<svg width="120" height="121" viewBox="0 0 120 121" fill="none" xmlns="http://www.w3.org/2000/svg">
<path fill-rule="evenodd" clip-rule="evenodd" d="M57.3682 61.5681C57.3682 58.8208 58.7382 60.1944 60.1082 60.1944C61.4782 60.1944 62.8482 56.0734 65.5883 56.0734C68.3283 56.0734 72.4384 54.6997 73.8084 56.0734C75.1784 57.4471 74.8813 58.1088 75.1784 60.1944C75.5663 62.9167 76.5484 64.3155 75.1784 65.6891C73.8084 67.0628 71.0684 67.0628 68.3283 67.0628C65.5883 67.0628 57.3682 64.3155 57.3682 61.5681Z" fill="black"/>
<path fill-rule="evenodd" clip-rule="evenodd" d="M75.584 57.3675C76.2265 59.548 76.5478 61.4064 76.5478 62.9426C76.5478 65.69 79.2878 65.69 80.6579 64.3163C82.0279 62.9426 80.6579 58.8216 79.2878 58.8216C77.9178 58.8216 77.9178 56.0742 76.5478 56.0742C75.9927 56.0742 75.5427 56.5254 75.5427 57.082C75.5427 57.1786 75.5566 57.2748 75.5839 57.3675L75.584 57.3675Z" fill="black"/>
<path fill-rule="evenodd" clip-rule="evenodd" d="M76.5473 54.6991C77.9173 54.6991 79.2873 58.8202 82.0274 58.8202C84.7674 58.8202 84.7674 56.0728 84.7674 54.6991C84.7674 53.3255 83.3974 50.5781 76.5473 50.5781C69.6972 50.5781 68.3271 53.3255 68.3271 54.6991C68.3271 54.6991 73.8072 53.3255 75.1773 56.0728C75.1773 55.157 75.6339 54.6991 76.5473 54.6991Z" fill="black"/>
<path fill-rule="evenodd" clip-rule="evenodd" d="M76.5476 67.0631C76.5476 66.1473 77.4609 65.6895 79.2876 65.6895C82.0276 65.6895 79.2876 68.4368 77.9176 68.4368C77.0043 68.4368 76.5476 67.9789 76.5476 67.0631Z" fill="black"/>
<path fill-rule="evenodd" clip-rule="evenodd" d="M82.0282 60.1953C82.9416 62.9427 82.4849 64.7742 80.6582 65.69C80.6582 65.69 86.1382 65.69 86.1382 62.9427C86.1382 61.1111 84.7682 60.1953 82.0282 60.1953Z" fill="black"/>
<path fill-rule="evenodd" clip-rule="evenodd" d="M71.0676 50.5784C68.3275 51.4942 66.9575 52.8678 66.9575 54.6994C66.9575 54.6994 62.8474 54.6994 61.4774 57.4468C60.1074 60.1941 60.1074 58.8204 57.3673 58.8204C55.5406 58.8204 52.8006 58.3625 49.1472 57.4468C49.1472 52.8678 47.7772 49.6626 45.0371 47.831C45.0371 46.4574 49.1472 46.4574 57.3673 47.831C62.8474 48.7468 67.4142 49.6626 71.0676 50.5784Z" fill="black"/>
<path fill-rule="evenodd" clip-rule="evenodd" d="M47.7778 54.6991C47.7778 57.4464 45.0378 62.9411 38.1876 62.9411C31.3375 62.9411 29.9675 54.6991 31.3375 51.9517C32.7075 49.2044 36.8176 46.457 39.5577 46.457C41.3844 46.457 43.2111 47.3728 45.0378 49.2044C46.8645 51.0359 47.7778 52.8675 47.7778 54.6991ZM39.5577 50.5781C36.8176 50.5781 35.4476 51.9517 35.4476 54.6991C35.4476 57.4464 38.1876 58.8201 39.5577 58.8201C40.9277 58.8201 43.6677 57.4464 43.6677 54.6991C43.6677 51.9517 42.2977 50.5781 39.5577 50.5781Z" fill="black"/>
<path fill-rule="evenodd" clip-rule="evenodd" d="M29.9668 54.6998C29.9668 58.8208 31.3368 60.1945 34.0769 62.9418C34.0769 62.9418 32.7069 64.3155 29.9668 64.3155C27.2268 64.3155 23.1167 61.5681 23.1167 57.4471C23.1167 53.3261 24.4867 49.2051 32.7069 49.2051C30.8802 50.1209 29.9668 51.9524 29.9668 54.6998Z" fill="black"/>
<path d="M49.1481 60.1953C49.1481 63.8584 46.8647 66.1479 42.298 67.0637C35.4478 68.4374 23.1177 83.5478 20.3776 82.1741C17.6376 80.8004 25.8577 73.9321 25.8577 71.1847C25.8577 68.4374 20.3776 68.4374 17.6376 76.6794C14.8975 84.9215 12.1575 71.1847 17.6376 65.69C17.6376 65.69 20.3776 62.9427 21.7476 62.9427" stroke="black" stroke-linejoin="round"/>
<path d="M14.8969 71.1838C13.9836 73.0154 13.0702 73.9312 12.1569 73.9312C10.7869 73.9312 9.41684 65.6891 13.5269 57.4471C17.637 49.205 24.4871 45.084 36.8173 45.084" stroke="black" stroke-linejoin="round"/>
<path fill-rule="evenodd" clip-rule="evenodd" d="M47.7777 67.0627C46.4077 68.4364 43.6676 68.4364 40.9276 69.8101C38.1876 71.1838 35.4475 72.5574 35.4475 75.3048C35.4475 78.0521 39.5576 76.6785 42.2976 73.9311C45.0377 71.1838 45.0377 68.4364 50.5177 68.4364C55.9978 68.4364 57.3679 65.6891 57.3679 64.3154C57.3679 62.9417 55.9978 61.568 54.6278 61.568C53.2578 61.568 51.8878 60.1944 50.5177 62.9417C49.6044 64.7733 48.6911 66.1469 47.7777 67.0627Z" fill="black"/>
<path d="M43.668 46.4581C41.8413 45.5423 40.4713 45.0844 39.5579 45.0844C38.1879 45.0844 36.8179 40.9634 42.2979 40.9634C47.778 40.9634 57.3682 38.216 65.5883 39.5897C73.8084 40.9634 103.949 43.7107 106.689 50.5791C106.689 50.5791 109.429 56.0738 108.059 58.8212C107.146 60.6527 104.406 61.5685 99.8389 61.5685C97.0988 67.979 92.5321 72.1 86.1386 73.9316C76.5485 76.6789 62.8483 76.6789 55.9982 73.9316C51.4314 72.1 47.778 71.6421 45.038 72.5579" stroke="black" stroke-linejoin="round"/>
<path fill-rule="evenodd" clip-rule="evenodd" d="M101.208 53.3255C102.578 53.3255 103.948 53.3255 103.948 54.6992C103.948 56.0728 99.838 57.4465 99.838 58.8202C99.838 60.1939 95.728 60.1939 94.3579 58.8202C92.9879 57.4465 88.8778 50.5781 94.3579 50.5781C95.728 50.5781 99.838 53.3255 101.208 53.3255Z" fill="black"/>
<path fill-rule="evenodd" clip-rule="evenodd" d="M94.3582 49.2059C92.9881 50.5796 80.6579 46.4586 76.5479 46.4586C72.4378 46.4586 53.2575 43.7112 50.5174 43.7112C47.7774 43.7112 46.4074 42.3376 53.2575 42.3376C60.1076 42.3376 69.6977 40.9639 80.6579 43.7112C91.6181 46.4586 95.7282 47.8323 94.3582 49.2059Z" fill="black"/>
</svg>
