<?xml version="1.0" standalone="no"?>
<!DOCTYPE svg PUBLIC "-//W3C//DTD SVG 20010904//EN"
 "http://www.w3.org/TR/2001/REC-SVG-20010904/DTD/svg10.dtd">
<svg version="1.0" xmlns="http://www.w3.org/2000/svg"
 width="200.000000pt" height="200.000000pt" viewBox="0 0 200.000000 200.000000"
 preserveAspectRatio="xMidYMid meet">
<metadata>
Created by potrace 1.14, written by Peter Selinger 2001-2017
</metadata>
<g transform="translate(0.000000,200.000000) scale(0.100000,-0.100000)"
fill="#000000" stroke="none">
<path d="M938 1528 c-165 -16 -283 -95 -302 -202 -7 -37 12 -75 41 -82 28 -7
155 2 198 15 39 10 248 7 300 -6 22 -5 69 -11 105 -12 53 -2 69 1 82 16 62 69
-29 204 -167 248 -71 22 -176 32 -257 23z"/>
<path d="M509 1297 c-140 -71 -271 -152 -327 -202 -129 -116 -171 -292 -102
-431 72 -147 224 -214 455 -201 164 9 255 50 295 133 39 79 11 174 -50 174
-30 0 -45 27 -33 61 7 17 7 29 2 29 -5 0 -17 12 -27 28 -9 15 -24 28 -32 29
-88 9 -126 31 -134 76 -6 35 30 76 69 78 74 4 79 2 129 -36 53 -40 71 -43 86
-16 14 28 15 28 -36 34 -49 5 -81 28 -85 62 -4 27 11 68 29 81 12 9 4 12 -38
16 -65 7 -100 39 -100 94 0 19 -3 34 -7 34 -5 0 -47 -20 -94 -43z"/>
<path d="M1406 1295 c-6 -35 -14 -49 -39 -67 -18 -13 -33 -22 -34 -20 -2 1
-20 2 -40 2 l-36 0 21 -23 c54 -57 5 -137 -84 -137 -30 0 -32 -24 -2 -44 21
-15 24 -14 54 15 79 77 214 68 214 -14 0 -17 -4 -37 -8 -43 -13 -20 -71 -45
-108 -46 -27 -1 -38 -7 -44 -23 -5 -12 -16 -25 -24 -28 -12 -5 -14 -12 -7 -29
13 -34 -4 -68 -33 -68 -15 0 -33 -11 -46 -27 -19 -24 -21 -37 -17 -86 11 -128
121 -191 344 -196 187 -4 310 45 396 160 93 124 72 313 -51 451 -39 43 -167
126 -313 202 -69 36 -128 66 -131 66 -3 0 -9 -20 -12 -45z"/>
<path d="M864 1226 c-101 -32 -133 -61 -119 -106 8 -25 60 -50 102 -50 15 1
46 8 68 16 57 22 119 23 179 2 60 -20 91 -22 135 -7 35 12 52 36 46 65 -2 10
-4 22 -4 26 -1 3 -27 19 -58 34 -52 25 -71 28 -183 30 -81 2 -139 -2 -166 -10z"/>
<path d="M945 1068 c-21 -5 -44 -16 -51 -26 -7 -10 -32 -31 -55 -48 -59 -40
-100 -84 -93 -96 6 -10 44 -7 119 8 38 7 240 8 280 1 91 -16 123 -19 128 -10
11 17 -174 173 -206 174 -12 1 -36 2 -52 3 -17 1 -48 -2 -70 -6z"/>
<path d="M977 884 c-1 -1 -33 -4 -72 -7 -87 -6 -125 -20 -125 -46 0 -15 11
-23 38 -32 21 -6 46 -23 56 -38 35 -51 66 -66 136 -66 70 0 101 15 136 67 11
16 33 30 54 35 40 10 54 45 23 61 -26 14 -235 36 -246 26z"/>
</g>
</svg>
