<svg xmlns="http://www.w3.org/2000/svg" width="1785" height="1131" viewBox="0 0 1785 1131" version="1.1">
    <path class="svg-region-V" d="M 712 295.911 C 708.975 296.343, 704.101 298.002, 701.169 299.598 C 698.237 301.194, 694.333 303.308, 692.494 304.297 C 682.067 309.898, 674.654 321.566, 673.402 334.346 C 673.135 337.063, 672.532 340.009, 672.062 340.893 C 670.186 344.415, 669.018 358.273, 669.398 372.500 C 669.849 389.409, 670.654 396.256, 672.661 400.240 C 673.420 401.746, 674.063 403.321, 674.091 403.740 C 674.119 404.158, 674.785 404.860, 675.571 405.300 C 676.357 405.740, 677 406.977, 677 408.050 C 677 409.122, 677.450 410, 678 410 C 678.550 410, 679 410.852, 679 411.894 C 679 413.805, 687.812 423.195, 702.561 437 C 707.655 441.768, 711.990 446.962, 714.462 451.260 C 719.939 460.781, 735.388 474.761, 742.221 476.379 C 743.718 476.734, 745.421 477.918, 746.006 479.012 C 746.592 480.105, 747.482 481, 747.985 481 C 748.488 481, 750.869 482.329, 753.276 483.953 C 757.153 486.570, 767.947 491.211, 773.500 492.649 C 774.600 492.934, 776.400 493.534, 777.500 493.983 C 782.117 495.865, 785.834 496.952, 791.374 498.040 L 797.247 499.193 807.874 493.701 C 835.298 479.527, 845.871 477.558, 890 478.406 C 904.575 478.686, 919.875 479.335, 924 479.849 C 928.125 480.363, 935.977 481.317, 941.449 481.969 C 952.336 483.266, 954.861 484.262, 962.429 490.246 C 965.218 492.452, 969.975 495.807, 973 497.704 C 976.025 499.600, 979.424 502.252, 980.554 503.597 C 982.540 505.960, 982.715 505.989, 985.804 504.448 C 987.562 503.571, 989 502.509, 989 502.087 C 989 500.680, 996.403 499.104, 1005.500 498.576 C 1018.287 497.833, 1030.340 494.264, 1035.643 489.651 C 1040.083 485.788, 1047.760 475.438, 1050.810 469.203 C 1051.806 467.166, 1053.156 464.600, 1053.810 463.500 C 1054.464 462.400, 1055.448 460.375, 1055.997 459 C 1056.546 457.625, 1057.447 455.825, 1057.998 455 C 1058.550 454.175, 1059.470 452.375, 1060.044 451 C 1062.626 444.807, 1071.032 435.369, 1082 426.349 C 1085.025 423.861, 1092 417.439, 1097.500 412.077 C 1106.682 403.125, 1107.962 401.394, 1113.145 390.914 C 1120.017 377.017, 1121.399 369.993, 1119.970 356.208 C 1118.459 341.617, 1115.435 331.923, 1109.840 323.734 C 1106.596 318.985, 1098.438 312.129, 1095.195 311.428 C 1093.713 311.107, 1091.576 310.401, 1090.446 309.858 C 1087.561 308.473, 1061.500 309.501, 1061.500 311 C 1061.500 311.085, 1060.150 311.300, 1058.500 311.480 C 1056.850 311.659, 1052.575 312.547, 1049 313.454 C 1045.425 314.360, 1038.330 315.507, 1033.233 316.003 C 1028.136 316.498, 1023.632 317.109, 1023.225 317.361 C 1018.697 320.159, 969.084 325.952, 966.500 323.985 C 964.110 322.165, 950.933 319.260, 946.435 319.561 C 936.647 320.215, 927.938 326.919, 923.131 337.500 C 922.382 339.150, 921.357 341.175, 920.855 342 C 920.353 342.825, 919.168 344.780, 918.221 346.346 C 917.275 347.911, 915.293 350.746, 913.818 352.647 C 912.343 354.548, 910.855 357.384, 910.511 358.948 C 910.168 360.513, 909.093 362.511, 908.123 363.389 C 906.491 364.866, 906.144 364.759, 903.453 361.951 C 898.762 357.054, 892.012 353.344, 884.218 351.378 C 876.981 349.552, 876.912 349.502, 873.218 343.520 C 871.173 340.209, 868.839 336.220, 868.030 334.655 C 867.222 333.090, 863.922 329.204, 860.697 326.019 C 855.447 320.833, 854.189 320.106, 848.667 319.066 C 845.275 318.427, 838.675 316.633, 834 315.079 C 829.325 313.525, 822.575 311.682, 819 310.983 C 815.425 310.284, 810.475 309.317, 808 308.835 C 805.525 308.354, 799 307.531, 793.500 307.009 C 788 306.486, 781.025 305.623, 778 305.092 C 774.975 304.561, 770.025 303.836, 767 303.480 C 763.975 303.125, 759.392 301.972, 756.815 300.917 C 754.238 299.863, 750.580 299, 748.687 299 C 746.793 299, 743.561 298.297, 741.504 297.437 C 737.138 295.613, 720.216 294.738, 712 295.911" stroke="#dd8a8a" fill="#dd8a8a" fill-opacity="0.2" fill-rule="evenodd"/><path class="svg-region-SF" d="M 848.500 479.406 C 839.373 480.459, 835.292 481.552, 824.538 485.826 C 817.409 488.659, 809.070 492.524, 806.007 494.415 C 802.945 496.305, 799.215 498.159, 797.719 498.534 C 796.224 498.910, 795 499.548, 795 499.952 C 795 501.768, 816.059 517, 818.570 517 C 821.263 517, 834.916 524.521, 835.819 526.501 C 837.855 530.970, 856.512 539.939, 869.500 542.691 C 879.351 544.779, 898.131 545.495, 904.941 544.042 C 918.342 541.182, 923.491 539.244, 927.321 535.618 C 929.423 533.628, 931.984 532, 933.012 532 C 934.041 532, 935.153 531.562, 935.483 531.027 C 935.814 530.492, 938.878 529.179, 942.292 528.110 C 945.707 527.040, 950.300 525.369, 952.500 524.397 C 954.700 523.424, 959.650 522.342, 963.500 521.992 C 972.721 521.154, 978.343 517.740, 981.223 511.229 C 982.618 508.076, 982.910 506.470, 982.137 506.212 C 981.512 506.004, 980.992 505.083, 980.983 504.167 C 980.972 503.194, 978.348 500.942, 974.683 498.761 C 971.228 496.705, 967.495 494.179, 966.388 493.147 C 965.281 492.115, 961.687 489.437, 958.403 487.195 C 952.851 483.405, 951.695 483.037, 941.965 481.967 C 936.209 481.333, 928.350 480.387, 924.500 479.863 C 912.871 478.281, 860.956 477.969, 848.500 479.406" stroke="#8c6b55" fill="#8c6b55" fill-opacity="0.2" fill-rule="evenodd"/><path class="svg-region-SB" d="M 886.500 732.092 C 874.030 733.148, 866.554 735.388, 851.215 742.668 C 839.203 748.367, 830.661 757.481, 822.784 773 C 820.728 777.050, 820.500 778.900, 820.500 791.500 C 820.500 804.008, 820.759 806.140, 822.928 811.500 C 828.129 824.357, 835.991 834.313, 844.500 838.822 C 848.781 841.091, 850.723 841.471, 858 841.465 C 865.205 841.460, 868.634 840.797, 880.500 837.113 C 888.200 834.722, 898.100 831.713, 902.500 830.426 C 923.443 824.299, 926.862 823.154, 931.881 820.586 C 947.230 812.734, 954.128 797.233, 950.549 778.631 C 947.601 763.307, 938.860 748.137, 928.394 740.181 C 923.070 736.134, 921.083 735.431, 909.853 733.619 C 897.163 731.572, 894.614 731.406, 886.500 732.092" stroke="#d2e400" fill="#d2e400" fill-opacity="0.2" fill-rule="evenodd"/><path class="svg-region-Ol" d="M 527 437.837 C 520.403 440.071, 518.603 441.268, 512.048 447.778 C 507.226 452.567, 502.268 456.351, 497.998 458.501 C 489.055 463.005, 483.576 467.797, 476.774 477.063 C 470.515 485.590, 466.675 494.228, 465.048 503.434 C 463.444 512.517, 463.767 518.219, 466.605 530.880 C 469.151 542.241, 471.971 549.623, 483.455 575 C 486.567 581.875, 490.926 591.902, 493.144 597.282 C 496.879 606.345, 505.793 621.897, 509.788 626.323 C 513.077 629.966, 521.543 634.768, 526.858 636.004 C 536.451 638.237, 541.629 640.640, 551.357 647.375 C 561.075 654.104, 572.903 658.978, 579.500 658.972 C 583.729 658.968, 597.198 655.448, 603.873 652.603 C 626.152 643.104, 638.836 639, 645.916 639 C 651.589 639, 666.441 636.004, 672 633.738 C 683.687 628.976, 694.277 621.860, 703.310 612.702 C 708.156 607.789, 713.230 602.133, 714.585 600.134 C 715.940 598.135, 718.326 594.737, 719.888 592.581 C 727.062 582.676, 733.077 566.577, 733.272 556.755 C 733.490 545.800, 732.280 540.248, 728.664 535.609 C 724.389 530.124, 723.299 529, 722.252 529 C 721.110 529, 717 524.299, 717 522.992 C 717 522.447, 716.523 522, 715.941 522 C 715.359 522, 715.142 521.579, 715.460 521.065 C 715.778 520.550, 715.164 518.572, 714.094 516.668 C 712.688 514.163, 712.155 511.313, 712.168 506.353 C 712.221 486.247, 711.848 482.508, 708.831 472.901 C 706.596 465.784, 704.870 462.253, 702.158 459.247 C 698.067 454.714, 688.956 448.599, 681.458 445.355 C 678.731 444.176, 673.151 441.738, 669.059 439.938 C 662.524 437.065, 660.560 436.667, 652.934 436.667 C 645.212 436.667, 643.601 437.004, 638.376 439.711 C 635.144 441.385, 630.932 443.094, 629.015 443.508 C 627.098 443.923, 624.416 444.991, 623.056 445.881 C 621.013 447.218, 617.705 447.484, 604.041 447.411 C 585.694 447.312, 579.115 446.037, 570.843 440.980 C 563.422 436.443, 556.962 434.981, 545.068 435.148 C 536.659 435.266, 532.968 435.815, 527 437.837" stroke="#aa444d" fill="#aa444d" fill-opacity="0.2" fill-rule="evenodd"/><path class="svg-region-Or" d="M 1125 491.324 C 1118.675 493.155, 1111.378 495.673, 1108.785 496.920 C 1102.329 500.025, 1087.335 515.079, 1084.330 521.474 C 1083.030 524.238, 1079.970 530.100, 1077.529 534.500 C 1075.087 538.900, 1071.409 546.325, 1069.354 551 C 1067.299 555.675, 1065.030 560.209, 1064.311 561.076 C 1063.592 561.944, 1061.975 564.644, 1060.718 567.076 C 1059.461 569.509, 1057.901 572.400, 1057.251 573.500 C 1055.330 576.753, 1052.454 584.008, 1050.059 591.644 C 1048.180 597.632, 1047.873 600.549, 1048.159 609.673 C 1048.495 620.408, 1048.551 620.628, 1052.158 625.529 C 1054.170 628.263, 1057.689 631.625, 1059.979 633 C 1071.684 640.029, 1079.489 645.405, 1082.178 648.291 C 1085.230 651.565, 1088.965 658.938, 1091.656 667 C 1092.927 670.808, 1099.446 685.833, 1103.281 693.796 C 1104.668 696.674, 1119.307 710.747, 1123.999 713.712 C 1132.702 719.211, 1149.674 726, 1154.721 726 C 1155.799 726, 1160.199 726.900, 1164.500 728 C 1172.669 730.089, 1180.386 730.441, 1188 729.071 C 1210.744 724.979, 1230.188 719.286, 1244.614 712.496 C 1267.960 701.506, 1289.481 681.267, 1302.028 658.500 C 1303.846 655.200, 1305.870 651.825, 1306.524 651 C 1309.450 647.311, 1319.481 623.525, 1322.127 614 C 1334 571.269, 1329.226 553.011, 1298.327 522.976 C 1292.372 517.188, 1285.700 511.040, 1283.500 509.314 C 1269.934 498.668, 1267.204 496.898, 1261.331 494.944 C 1256.600 493.369, 1253.668 492.972, 1250.204 493.438 C 1240.602 494.727, 1217.007 495.156, 1210.838 494.154 C 1207.352 493.588, 1200.225 492.223, 1195 491.122 C 1187.627 489.567, 1180.014 488.993, 1161 488.557 L 1136.500 487.995 1125 491.324" stroke="#aa444d" fill="#aa444d" fill-opacity="0.2" fill-rule="evenodd"/>
    </svg>