<svg xmlns="http://www.w3.org/2000/svg" width="1785" height="1131" viewBox="0 0 1785 1131" version="1.1">
    <path class="svg-region-V" d="M 745.500 265.011 C 735.006 266.608, 724.138 269.984, 714.500 274.642 C 709 277.300, 703.935 280.013, 703.244 280.672 C 702.553 281.330, 701.159 282.132, 700.147 282.453 C 699.068 282.796, 697.785 284.790, 697.049 287.269 C 696.359 289.596, 695.437 291.950, 695.001 292.500 C 693.586 294.288, 690 307.124, 690 310.405 C 690 312.162, 689.544 314.056, 688.988 314.612 C 688.431 315.169, 687.792 317.396, 687.568 319.562 C 687.344 321.728, 686.683 325.044, 686.098 326.931 C 684.315 332.688, 683.726 342.413, 683.611 368 C 683.550 381.475, 683.234 392.950, 682.910 393.500 C 682.585 394.050, 682.436 395.850, 682.578 397.500 C 682.721 399.150, 682.874 401.288, 682.919 402.250 C 682.963 403.212, 683.485 404, 684.077 404 C 686.137 404, 713 424.620, 713 426.201 C 713 426.641, 713.788 427.006, 714.750 427.013 C 715.712 427.021, 717.625 427.937, 719 429.050 C 720.375 430.162, 724.494 432.969, 728.153 435.286 C 731.811 437.604, 739.461 442.620, 745.153 446.434 C 750.844 450.248, 757.300 454.502, 759.500 455.888 C 761.700 457.273, 765.400 459.910, 767.722 461.747 C 770.043 463.584, 773.981 465.989, 776.472 467.090 C 778.962 468.192, 781 469.532, 781 470.068 C 781 470.604, 782.237 471.580, 783.750 472.238 C 785.263 472.895, 787.892 474.460, 789.594 475.716 C 791.296 476.972, 793.573 478, 794.653 478 C 795.734 478, 797.491 478.661, 798.559 479.468 C 801.585 481.757, 803 481.305, 803 478.047 C 803 471.453, 807.822 466.652, 818.130 462.982 C 826.798 459.897, 834.541 458.787, 850.716 458.309 C 864.313 457.908, 866.761 458.099, 873.716 460.100 C 877.997 461.332, 884.650 462.663, 888.500 463.057 C 892.350 463.451, 897.300 464.316, 899.500 464.978 C 901.700 465.640, 906.650 466.604, 910.500 467.118 C 923.991 468.922, 946.570 473.134, 954 475.232 C 962.647 477.674, 977.404 485.139, 987.444 492.151 C 991.263 494.818, 995.153 497, 996.090 497 C 999.479 497, 1008 509.557, 1008 514.551 C 1008 515.762, 1008.794 515.361, 1010.934 513.071 L 1013.868 509.930 1025.684 510.088 C 1032.183 510.175, 1037.725 510.153, 1038 510.039 C 1038.275 509.926, 1041.200 509.182, 1044.500 508.388 C 1047.800 507.594, 1051.623 506.658, 1052.995 506.309 C 1055.983 505.547, 1067.935 498.008, 1069.872 495.662 C 1070.627 494.748, 1071.762 494, 1072.393 494 C 1074.981 494, 1094.709 472.297, 1099.890 463.750 C 1101.140 461.688, 1102.689 459.999, 1103.332 459.999 C 1103.974 459.998, 1105.716 458.986, 1107.203 457.749 C 1112.403 453.421, 1114.414 452, 1115.336 452 C 1115.847 452, 1116.993 451.163, 1117.883 450.141 C 1118.772 449.118, 1121.862 447.085, 1124.750 445.624 C 1127.638 444.162, 1130 442.524, 1130 441.983 C 1130 441.442, 1130.669 441, 1131.487 441 C 1132.304 441, 1133.652 439.538, 1134.482 437.750 C 1135.312 435.962, 1137.456 432.618, 1139.246 430.317 C 1144.333 423.778, 1148.311 416.970, 1150.236 411.509 C 1152.862 404.060, 1155 393.509, 1155 388 C 1155 376.474, 1149.030 359.053, 1141.871 349.693 C 1127.740 331.215, 1114.493 324, 1093.500 323.350 C 1073.065 322.716, 1057.488 321.384, 1047.117 319.383 C 1041.950 318.386, 1034.193 317.981, 1023 318.122 C 1010.828 318.275, 1004.519 317.901, 998.946 316.697 C 985.577 313.806, 981.214 313.680, 972.591 315.933 C 966.716 317.468, 963.270 319.092, 959.190 322.250 C 948.677 330.384, 945.022 333, 944.168 333 C 943.696 333, 942.495 333.900, 941.500 335 C 940.505 336.100, 939.107 337, 938.395 337 C 937.682 337, 936.656 337.788, 936.114 338.750 C 935.179 340.408, 934.944 340.402, 931.617 338.621 C 929.686 337.588, 927.126 335.698, 925.926 334.422 C 924.255 332.642, 923.066 332.237, 920.830 332.684 C 917.365 333.377, 913.795 330.522, 911.240 325.015 C 904.542 310.576, 890.766 299.494, 876.211 296.835 C 873.070 296.261, 868.250 295.181, 865.500 294.435 C 862.750 293.689, 857.583 292.572, 854.019 291.953 C 846.561 290.659, 837.902 287.342, 831.175 283.203 C 826.768 280.491, 819.609 277.776, 814 276.688 C 808.318 275.586, 793.332 271.248, 791.125 270.067 C 789.819 269.368, 785.577 267.717, 781.700 266.398 C 775.671 264.347, 772.901 264.018, 762.575 264.125 C 755.934 264.193, 748.250 264.592, 745.500 265.011" stroke="#dd8a8a" fill="#dd8a8a" fill-opacity="0.2" fill-rule="evenodd"/><path class="svg-region-SF" d="M 835.500 459 C 834.400 459.473, 832.004 459.891, 830.176 459.930 C 825.645 460.026, 812.572 464.519, 808.846 467.262 C 805.009 470.086, 803 473.915, 803 478.402 C 803 481.446, 803.611 482.324, 807.667 485.115 C 810.235 486.881, 815.884 489.823, 820.222 491.653 C 824.561 493.483, 830.223 496.396, 832.805 498.127 C 839.897 502.881, 857 521.013, 857 523.778 C 857 526.738, 868.233 537.356, 875.890 541.635 C 882.267 545.198, 897.518 548.301, 907.500 548.066 C 916.833 547.847, 933.675 545.219, 937.101 543.448 C 938.803 542.568, 941.071 541.679, 942.141 541.473 C 943.211 541.267, 946.015 539.259, 948.374 537.012 C 954.156 531.501, 955.211 530.835, 964.841 526.616 C 974.162 522.533, 974.100 522.542, 986.229 523.390 C 993.069 523.869, 995.882 523.643, 999.229 522.348 C 1004.472 520.319, 1008 517.272, 1008 514.771 C 1008 509.392, 999.632 497, 995.999 497 C 995.114 497, 991.490 494.951, 987.945 492.446 C 973.926 482.541, 956.947 474.734, 945.710 473.024 C 942.844 472.588, 935.775 471.319, 930 470.203 C 924.225 469.087, 916.125 467.721, 912 467.166 C 907.875 466.612, 902.475 465.637, 900 464.999 C 897.525 464.362, 892.350 463.485, 888.500 463.050 C 884.650 462.616, 878.134 461.302, 874.020 460.130 C 867.861 458.376, 863.976 458.012, 852.020 458.070 C 844.034 458.109, 836.600 458.527, 835.500 459" stroke="#8c6b55" fill="#8c6b55" fill-opacity="0.2" fill-rule="evenodd"/><path class="svg-region-SB" d="M 892 719.728 C 882.737 720.758, 874.132 722.359, 872 723.449 C 862.278 728.420, 851.691 734.170, 848.185 736.383 C 845.905 737.822, 843.644 739, 843.159 739 C 842.675 739, 840.529 740.189, 838.390 741.643 C 836.250 743.097, 832.587 744.939, 830.250 745.737 C 827.913 746.535, 826 747.596, 826 748.094 C 826 748.592, 825.384 749, 824.631 749 C 821.729 749, 812.849 757.448, 808.013 764.809 C 805.234 769.039, 802.299 773.374, 801.490 774.442 C 800.681 775.510, 799.730 777.985, 799.378 779.942 C 799.025 781.899, 798.256 784.400, 797.669 785.500 C 796.059 788.516, 795.213 808.108, 796.324 816.646 C 796.785 820.189, 799.791 827.832, 804.256 836.814 C 804.889 838.086, 808.676 842.636, 812.672 846.925 C 820.934 855.793, 824.304 857.294, 835.949 857.294 C 842.076 857.294, 843.583 856.859, 850.636 853.055 C 854.959 850.723, 858.722 848.451, 858.998 848.005 C 859.409 847.341, 869.595 839.117, 873.547 836.258 C 876.683 833.989, 885.588 829.719, 889.736 828.494 C 895.064 826.921, 898.012 826.481, 912.725 825.066 C 928.625 823.536, 936.564 819.052, 945.277 806.679 C 951.568 797.746, 952.752 794.558, 953.510 784.500 C 954.117 776.447, 953.921 774.711, 951.653 768 C 948.248 757.928, 940.128 743.031, 935.548 738.453 C 925.176 728.087, 919.468 723.899, 913.179 722.040 C 906.813 720.158, 897.388 719.130, 892 719.728" stroke="#d2e400" fill="#d2e400" fill-opacity="0.2" fill-rule="evenodd"/><path class="svg-region-Ol" d="M 518.377 433.520 C 514.460 434.237, 510.410 435.261, 509.377 435.795 C 508.345 436.330, 506.375 437.218, 505 437.770 C 498.245 440.480, 485.329 446.170, 484 447.021 C 483.175 447.550, 480.250 449.171, 477.500 450.623 C 470.218 454.470, 457 465.988, 457 468.488 C 457 469.056, 455.824 470.789, 454.386 472.339 C 451.661 475.278, 444.933 488.309, 443.460 493.500 C 442.337 497.461, 442.250 499.153, 441.989 522 C 441.816 537.193, 442.130 543.046, 443.410 548.500 C 447.663 566.622, 451.140 580.776, 452.026 583.571 C 452.562 585.260, 453 587.206, 453 587.895 C 453 588.583, 455.288 593.951, 458.085 599.824 C 460.882 605.696, 463.888 612.266, 464.764 614.425 C 465.640 616.584, 468.053 621.309, 470.126 624.925 C 472.199 628.541, 476.120 635.782, 478.839 641.015 C 484.304 651.534, 489.096 656.828, 497.148 661.241 C 500.092 662.854, 503.625 665.188, 505 666.427 C 506.375 667.666, 509.525 669.698, 512 670.941 C 514.475 672.185, 520.325 676.028, 525 679.481 C 539.898 690.486, 547.246 692.946, 559.246 690.945 C 562.957 690.327, 566.246 689.411, 566.555 688.910 C 566.865 688.410, 567.879 687.985, 568.809 687.966 C 569.739 687.947, 572.300 687.063, 574.500 686 C 576.700 684.937, 578.901 684.053, 579.392 684.034 C 580.309 683.999, 593.105 676.171, 594 675.097 C 594.275 674.767, 595.850 673.844, 597.500 673.046 C 599.150 672.248, 601.625 670.638, 603 669.467 C 605.256 667.547, 612.430 665.644, 622.165 664.385 C 623.999 664.148, 629.325 663.314, 634 662.531 C 641.147 661.335, 648.232 660.239, 660.500 658.433 C 661.600 658.271, 666.325 656.500, 671 654.497 C 675.675 652.494, 680.175 650.576, 681 650.235 C 685.285 648.460, 701.398 635.702, 705.833 630.572 C 706.750 629.511, 710.763 625.238, 714.750 621.076 C 718.737 616.914, 722 612.977, 722 612.327 C 722 611.677, 723.030 610.325, 724.288 609.323 C 725.547 608.320, 727.200 605.925, 727.963 604 C 728.725 602.075, 730.091 599.375, 730.997 598 C 735.166 591.674, 736.369 587.502, 736.385 579.308 C 736.402 570.097, 736.592 570.632, 726.144 550.500 C 722.913 544.275, 722.539 542.781, 722.759 537 C 723.653 513.600, 723.383 507.553, 721.161 501.185 C 718.548 493.697, 718.470 493.586, 709.478 484.543 C 701.385 476.404, 690.138 468.637, 681.500 465.221 C 678.200 463.916, 673.475 461.923, 671 460.792 C 663.763 457.483, 661.189 456.957, 648 456.082 C 636.821 455.341, 634.443 454.833, 625.500 451.273 C 613.757 446.598, 599.881 443.384, 588 442.586 C 583.325 442.272, 576.350 441.092, 572.500 439.965 C 568.650 438.837, 561.547 437.642, 556.716 437.307 C 551.885 436.973, 547.696 436.317, 547.407 435.850 C 547.118 435.382, 545.363 435, 543.506 435 C 541.649 435, 539.088 434.614, 537.815 434.142 C 533.338 432.483, 525.427 432.230, 518.377 433.520" stroke="#aa444d" fill="#aa444d" fill-opacity="0.2" fill-rule="evenodd"/><path class="svg-region-Or" d="M 1220.669 482.637 C 1220.212 483.112, 1208.962 483.843, 1195.669 484.263 C 1182.376 484.682, 1163.175 485.289, 1153 485.611 C 1140.936 485.994, 1130.618 485.762, 1123.341 484.947 C 1114.406 483.946, 1110.634 483.946, 1104.417 484.949 C 1092.512 486.869, 1087.420 489.663, 1076.986 500 C 1073.378 503.575, 1068.298 508.223, 1065.697 510.330 C 1063.097 512.436, 1060.240 515.586, 1059.349 517.330 C 1058.459 519.073, 1056.271 522.750, 1054.488 525.500 C 1052.704 528.250, 1050.129 532.525, 1048.764 535 C 1044.556 542.631, 1042.466 546.157, 1036.312 556 C 1029.071 567.581, 1024.621 578.869, 1023.103 589.500 C 1021.786 598.727, 1021.831 600.318, 1023.641 608.602 C 1026.355 621.017, 1033.762 629.710, 1046.734 635.703 C 1055.356 639.687, 1063.420 644.377, 1066.870 647.414 C 1070.696 650.782, 1073.999 656.710, 1074.012 660.230 C 1074.028 664.792, 1078.660 682.944, 1080.305 684.892 C 1081.051 685.777, 1082.898 688.665, 1084.409 691.311 C 1089.692 700.564, 1101.238 708.911, 1115.173 713.553 C 1117.743 714.409, 1120.386 715.760, 1121.045 716.555 C 1121.705 717.350, 1122.819 718, 1123.520 718 C 1124.221 718, 1127.474 719.329, 1130.749 720.954 C 1136.092 723.605, 1140.300 724.697, 1153.500 726.856 C 1161.134 728.105, 1176.208 726.427, 1209.787 720.594 C 1226.137 717.753, 1225.825 717.832, 1236.500 713.821 C 1247.918 709.531, 1249.912 708.206, 1261.077 697.499 C 1267.497 691.343, 1281.453 676.151, 1284.459 672.047 C 1285.582 670.515, 1289.057 665.940, 1292.181 661.881 C 1295.306 657.821, 1298.472 653.375, 1299.217 652 C 1299.963 650.625, 1302.179 647.025, 1304.143 644 C 1308.973 636.562, 1317.660 620.061, 1321.254 611.500 C 1326.077 600.011, 1328.040 592.063, 1328.666 581.500 C 1329.925 560.266, 1322.281 545.100, 1296.912 518.500 C 1293.241 514.650, 1288.713 509.250, 1286.851 506.500 C 1275.933 490.373, 1272.336 486.851, 1264.178 484.296 C 1258.834 482.623, 1222.034 481.220, 1220.669 482.637" stroke="#aa444d" fill="#aa444d" fill-opacity="0.2" fill-rule="evenodd"/>
    </svg>