<svg xmlns="http://www.w3.org/2000/svg" width="1785" height="1131" viewBox="0 0 1785 1131" version="1.1">
    <path class="svg-region-V" d="M 730 276.704 C 723.868 277.376, 714.637 280.914, 710.283 284.259 C 707.964 286.042, 703.914 289.066, 701.283 290.980 C 698.652 292.894, 695.825 295.302, 695 296.331 C 694.175 297.360, 692.269 299.516, 690.764 301.121 C 689.259 302.727, 687.736 305.269, 687.378 306.770 C 687.021 308.272, 686.155 310.625, 685.454 312 C 684.753 313.375, 683.214 317.875, 682.034 322 C 680.854 326.125, 679.476 330.507, 678.971 331.738 C 678.467 332.969, 678.315 334.657, 678.634 335.488 C 678.953 336.320, 678.769 337, 678.226 337 C 677.682 337, 676.679 339.137, 675.996 341.750 C 674.643 346.930, 674.547 347.430, 673.073 357.034 C 672.521 360.628, 671.351 366.373, 670.473 369.801 C 669.594 373.229, 669.160 376.929, 669.508 378.024 C 669.855 379.119, 669.472 381.351, 668.657 382.985 C 667.842 384.619, 667.417 386.880, 667.713 388.011 C 668.009 389.141, 667.632 390.838, 666.875 391.783 C 662.832 396.831, 662.701 397.969, 665.681 402.120 C 667.231 404.280, 669.054 407.091, 669.730 408.368 C 672.423 413.450, 685.728 423.830, 704.405 435.421 C 717.221 443.374, 733.007 454.328, 735.500 456.998 C 738 459.675, 754.736 471.659, 759.594 474.250 C 760.367 474.663, 761.788 475.451, 762.750 476.002 C 763.712 476.554, 765.428 477.410, 766.562 477.906 C 767.696 478.402, 769.961 480.331, 771.596 482.193 C 773.231 484.055, 776.033 486.185, 777.823 486.927 C 779.612 487.668, 781.538 489.136, 782.101 490.189 C 782.665 491.243, 783.885 491.980, 784.813 491.827 C 785.741 491.675, 787.046 491.893, 787.714 492.311 C 788.480 492.792, 791.068 490.941, 794.738 487.286 C 802.750 479.308, 817.454 472.876, 830 471.863 C 834.675 471.485, 840.750 470.713, 843.500 470.148 C 849.981 468.815, 868.486 468.721, 874.674 469.990 C 881.600 471.410, 903.363 475.027, 911.044 476.035 C 914.643 476.507, 928.818 479.657, 942.544 483.035 C 970.375 489.884, 977.353 492.851, 992.168 504.128 C 996.411 507.358, 1000.256 510, 1000.713 510 C 1001.170 510, 1003.109 511.262, 1005.022 512.804 C 1013.910 519.970, 1014.286 520.055, 1032.263 518.952 C 1041.193 518.404, 1049.175 517.711, 1050 517.411 C 1050.825 517.112, 1055.100 516.190, 1059.500 515.362 C 1067.595 513.840, 1073.038 511.291, 1078.500 506.463 C 1080.150 505.005, 1082.850 503.116, 1084.500 502.266 C 1086.150 501.416, 1087.725 500.446, 1088 500.110 C 1088.275 499.775, 1090.075 498.694, 1092 497.709 C 1098.828 494.215, 1105.145 488.840, 1107.804 484.261 C 1109.287 481.708, 1112.115 477.793, 1114.088 475.560 C 1116.062 473.327, 1118.537 469.925, 1119.588 468 C 1120.640 466.075, 1122.287 463.912, 1123.250 463.193 C 1124.213 462.475, 1125 461.397, 1125 460.798 C 1125 460.199, 1128.263 456.326, 1132.250 452.191 C 1136.237 448.055, 1140.921 443.197, 1142.658 441.395 C 1144.394 439.593, 1146.141 436.634, 1146.540 434.819 C 1146.938 433.005, 1148.295 430.165, 1149.555 428.510 C 1156.785 419.009, 1157.850 400.250, 1152.390 378.584 C 1147.851 360.570, 1130.323 339.951, 1113.380 332.696 C 1098.977 326.528, 1069.988 326.094, 1026.329 331.394 C 1014.790 332.795, 1002.252 332.274, 998.486 330.238 C 995.519 328.633, 982.199 326.022, 976.500 325.928 C 967.859 325.786, 961.063 328.132, 947 336.115 C 942.346 338.757, 940.163 339.314, 932.805 339.738 C 924.373 340.224, 923.950 340.142, 918.805 337.019 C 915.887 335.248, 912.150 332.331, 910.500 330.537 C 902.646 321.998, 888.925 314.313, 878.500 312.615 C 875.494 312.126, 866.189 309.722, 860.429 307.946 C 858.740 307.426, 854.240 306.993, 850.429 306.985 C 842.861 306.968, 838.605 305.799, 832.492 302.056 C 827.218 298.826, 817.307 294, 815.949 294 C 815.356 294, 812.762 293.136, 810.185 292.081 C 797.806 287.010, 786.027 283.111, 781.488 282.580 C 778.731 282.258, 771.757 280.645, 765.990 278.997 C 756.916 276.404, 754.023 276.022, 744.502 276.160 C 738.451 276.248, 731.925 276.493, 730 276.704" stroke="#dd8a8a" fill="#dd8a8a" fill-opacity="0.2" fill-rule="evenodd"/><path class="svg-region-SF" d="M 843.500 469.735 C 841.300 469.954, 839.072 470.554, 838.550 471.067 C 838.028 471.580, 834.395 472, 830.477 472 C 815.014 472, 790 485.936, 790 494.552 C 790 497.830, 792.110 499.797, 797.984 501.994 C 801.316 503.240, 804.284 504.651, 804.580 505.130 C 804.876 505.608, 806.606 506, 808.424 506 C 810.243 506, 812.874 506.900, 814.273 508 C 815.671 509.100, 817.077 510, 817.397 510 C 818.366 510, 829.378 518.686, 831.250 520.927 C 832.212 522.080, 833 524.053, 833 525.311 C 833 526.570, 833.372 528.028, 833.826 528.550 C 834.280 529.073, 835.262 531.442, 836.008 533.816 C 836.975 536.894, 838.480 538.901, 841.259 540.816 C 843.401 542.292, 846.728 544.934, 848.651 546.687 C 853.409 551.025, 858.537 553.554, 865.508 555.002 C 868.730 555.670, 873.196 556.867, 875.433 557.660 C 880.298 559.385, 898.746 561.610, 916 562.553 C 929.468 563.289, 948.299 561.798, 952.208 559.687 C 958.133 556.486, 962.863 552.910, 965.555 549.595 C 974.558 538.509, 972.890 539.525, 982.159 539.482 C 993.871 539.428, 1001.665 538.136, 1007.643 535.257 C 1013.023 532.666, 1017.585 527.756, 1016.398 525.834 C 1016.016 525.217, 1015.739 523.468, 1015.782 521.948 C 1015.844 519.794, 1015.209 518.915, 1012.904 517.960 C 1011.278 517.287, 1008.047 515.224, 1005.724 513.377 C 1003.401 511.531, 1001.138 510.015, 1000.697 510.010 C 1000.255 510.004, 996.818 507.546, 993.058 504.547 C 989.299 501.547, 982.011 496.859, 976.862 494.128 C 968.685 489.791, 964.336 488.376, 942.500 482.953 C 928.750 479.539, 914.575 476.393, 911 475.963 C 907.425 475.534, 896.500 473.791, 886.723 472.091 C 869.507 469.098, 856.828 468.406, 843.500 469.735" stroke="#8c6b55" fill="#8c6b55" fill-opacity="0.2" fill-rule="evenodd"/><path class="svg-region-SB" d="M 890.691 712.149 C 884.534 713.048, 875.742 715.780, 870 718.579 C 854.374 726.198, 845.775 730.092, 840.568 731.908 C 829.347 735.821, 818.494 743.809, 814.890 750.808 C 814.127 752.288, 812.940 753.860, 812.252 754.300 C 811.563 754.740, 811 755.752, 811 756.550 C 811 757.347, 810.593 758, 810.095 758 C 809.320 758, 803.218 767.574, 802.129 770.500 C 801.924 771.050, 801.184 772.850, 800.484 774.500 C 799.784 776.150, 798.017 781.458, 796.559 786.296 C 793.566 796.222, 793.614 801.268, 796.843 816.024 C 799.197 826.779, 801.862 831.955, 808.779 839.207 C 819.670 850.625, 831.121 853.352, 844 847.594 C 851.038 844.447, 853.573 842.746, 865 833.497 C 875.843 824.721, 887.847 816.583, 892.792 814.656 C 896.153 813.345, 900.070 813.017, 910.837 813.141 C 922.548 813.276, 925.548 812.979, 931.045 811.140 C 942.688 807.243, 955.540 795.080, 958.134 785.500 C 958.729 783.300, 959.274 776.100, 959.345 769.500 C 959.504 754.589, 957.455 748.181, 949.651 739.184 C 943.818 732.458, 934.600 724.643, 931.246 723.578 C 930.011 723.186, 929 722.525, 929 722.110 C 929 721.695, 925.595 719.649, 921.433 717.564 C 912.901 713.291, 899.295 710.894, 890.691 712.149" stroke="#d2e400" fill="#d2e400" fill-opacity="0.2" fill-rule="evenodd"/><path class="svg-region-Ol" d="M 501.743 429.172 C 501.059 429.602, 499.792 429.735, 498.927 429.466 C 496.656 428.761, 473.997 437.450, 460.831 444.075 C 450.341 449.353, 443.017 457.132, 443.005 463.008 C 443.002 464.387, 441.827 467.720, 440.393 470.414 C 434.361 481.744, 429.262 500.808, 431.836 502.399 C 432.296 502.683, 432.729 504.416, 432.798 506.250 C 433.120 514.806, 435.198 533.095, 436.463 538.500 C 437.235 541.800, 438.078 545.850, 438.335 547.500 C 438.831 550.683, 443.644 567.130, 445.065 570.500 C 445.528 571.600, 447.315 577.225, 449.035 583 C 450.755 588.775, 452.801 594.978, 453.581 596.784 C 454.362 598.590, 455.007 601.290, 455.015 602.784 C 455.031 605.595, 457.111 612.444, 458.315 613.648 C 458.692 614.025, 459 615.195, 459 616.249 C 459 617.303, 460.370 621.286, 462.044 625.101 C 463.718 628.915, 465.794 635.066, 466.656 638.768 C 471.447 659.347, 482.382 675.036, 498.171 683.986 C 499.640 684.819, 503.553 687.413, 506.866 689.750 C 510.179 692.088, 513.305 694, 513.813 694 C 514.320 694, 517.864 695.811, 521.688 698.025 C 525.512 700.239, 533.334 703.709, 539.070 705.735 C 548.671 709.127, 550.375 709.420, 560.500 709.418 C 577.726 709.415, 583.084 706.288, 591.781 691.162 C 594.101 687.126, 596 683.414, 596 682.912 C 596 682.410, 598.453 679.637, 601.451 676.750 C 608.442 670.016, 609.689 669, 610.958 669 C 611.531 669, 612 668.660, 612 668.244 C 612 666.018, 618.373 664.887, 628.213 665.367 C 633.871 665.643, 639.175 665.961, 640 666.074 C 645.911 666.886, 665.931 662.412, 671.500 659.035 C 673.150 658.035, 676.030 656.892, 677.900 656.496 C 679.770 656.099, 683.966 653.812, 687.225 651.413 C 690.484 649.014, 696.069 645.615, 699.635 643.859 C 703.202 642.103, 706.656 639.954, 707.310 639.083 C 707.965 638.212, 711.108 635.152, 714.296 632.282 C 717.484 629.412, 721.933 624.735, 724.182 621.888 C 726.432 619.042, 730.872 613.966, 734.048 610.607 C 746.105 597.856, 749.355 592.582, 751.515 582.258 C 752.519 577.461, 752.645 573.653, 751.990 567.909 C 751.018 559.392, 749.666 556.123, 745.176 551.432 C 743.561 549.745, 741.903 546.820, 741.492 544.932 C 741.081 543.044, 740.153 540.650, 739.430 539.610 C 738.475 538.237, 738.256 535.193, 738.629 528.468 C 739.267 516.950, 737.908 509.231, 733.881 501.503 C 729.623 493.330, 727.778 491.176, 721.178 486.670 C 718.055 484.538, 715.050 482.268, 714.500 481.625 C 713.950 480.983, 710.125 478.479, 706 476.060 C 701.875 473.642, 695.800 470.009, 692.500 467.987 C 684.805 463.272, 670.407 456.447, 665.393 455.138 C 663.252 454.579, 657.675 453.853, 653 453.525 C 633.993 452.193, 620.229 450.706, 615.500 449.473 C 612.750 448.756, 608.025 447.902, 605 447.575 C 599.808 447.015, 583.286 443.222, 567.336 438.928 C 563.396 437.868, 559.489 437, 558.654 437 C 557.819 437, 550.243 435.122, 541.818 432.826 C 528.203 429.116, 525.193 428.638, 514.743 428.521 C 508.277 428.449, 502.427 428.742, 501.743 429.172" stroke="#aa444d" fill="#aa444d" fill-opacity="0.2" fill-rule="evenodd"/><path class="svg-region-Or" d="M 1220.587 448.956 C 1210.275 454.159, 1207.787 455.939, 1200.918 463.023 C 1194.945 469.184, 1190.872 472.319, 1183.975 476.067 C 1178.981 478.780, 1174.406 481, 1173.807 481 C 1173.209 481, 1170.870 481.851, 1168.610 482.891 C 1166.349 483.931, 1162.475 485.586, 1160 486.568 C 1157.525 487.550, 1153.612 489.174, 1151.305 490.177 C 1148.998 491.180, 1146.523 492.003, 1145.805 492.007 C 1145.087 492.012, 1140 493.544, 1134.500 495.413 C 1129 497.282, 1122.250 499.129, 1119.500 499.517 C 1116.750 499.905, 1112.436 501.522, 1109.912 503.111 C 1107.389 504.700, 1104.980 506, 1104.557 506 C 1104.135 506, 1101.789 507.350, 1099.343 509.001 C 1096.898 510.652, 1093.549 512.699, 1091.901 513.551 C 1090.254 514.403, 1088.140 515.719, 1087.203 516.475 C 1086.266 517.232, 1081.900 520.691, 1077.500 524.162 C 1073.100 527.634, 1065.425 534.530, 1060.444 539.487 C 1053.007 546.889, 1050.654 550.019, 1047.280 557 C 1045.020 561.675, 1042.415 568.200, 1041.491 571.500 C 1040.567 574.800, 1039.322 578.094, 1038.725 578.820 C 1037.461 580.356, 1035.716 595.794, 1035.823 604.500 C 1035.904 611.144, 1039.162 625.140, 1042.108 631.500 C 1042.617 632.600, 1044.336 638.378, 1045.927 644.340 C 1047.638 650.752, 1049.673 656.088, 1050.910 657.404 C 1052.059 658.628, 1053 660.122, 1053 660.726 C 1053 662.092, 1058.734 667, 1060.330 667 C 1060.977 667, 1062.796 668.366, 1064.371 670.035 C 1065.947 671.705, 1068.426 673.686, 1069.879 674.437 C 1071.332 675.189, 1074.767 678.212, 1077.511 681.154 C 1083.707 687.799, 1092.877 695.963, 1098.321 699.682 C 1100.590 701.232, 1104.510 704.556, 1107.031 707.069 C 1112.574 712.595, 1119.868 717.727, 1124.262 719.192 C 1126.043 719.786, 1128.625 721.278, 1130 722.507 C 1131.375 723.736, 1133.850 725.554, 1135.500 726.548 C 1137.150 727.541, 1142.100 730.692, 1146.500 733.551 C 1151.311 736.675, 1158.278 740.027, 1163.977 741.957 L 1173.455 745.167 1193.477 744.652 C 1223.404 743.883, 1229.747 742.881, 1244.696 736.561 C 1258.881 730.564, 1274.655 719.788, 1281.528 711.400 C 1283.489 709.007, 1285.794 706.348, 1286.651 705.492 C 1287.508 704.635, 1293 697.917, 1298.855 690.564 C 1311.488 674.697, 1320.576 660.412, 1322.432 653.501 C 1323.563 649.289, 1326.632 637.672, 1331.049 620.884 C 1331.572 618.895, 1332 616.488, 1332 615.535 C 1332 614.582, 1332.639 612.384, 1333.420 610.651 C 1334.202 608.918, 1335.331 603.450, 1335.931 598.500 C 1337.533 585.263, 1339.621 574.084, 1341.416 569.124 C 1342.287 566.718, 1343 563.702, 1343 562.424 C 1343 561.145, 1344.434 555.734, 1346.186 550.400 L 1349.372 540.702 1348.273 527.601 C 1347.016 512.625, 1343.474 500.910, 1337.265 491.195 C 1332.718 484.081, 1315.168 466.643, 1310.206 464.309 C 1308.168 463.350, 1305.600 461.721, 1304.500 460.688 C 1299.487 455.983, 1291.263 451.359, 1280.500 447.193 C 1272.649 444.155, 1264.012 443.029, 1248.446 443.015 L 1232.392 443 1220.587 448.956" stroke="#aa444d" fill="#aa444d" fill-opacity="0.2" fill-rule="evenodd"/>
    </svg>