<svg xmlns="http://www.w3.org/2000/svg" width="1785" height="1131" viewBox="0 0 1785 1131" version="1.1">
    <path class="svg-region-V" d="M 716.139 286.664 C 705.319 287.971, 690.779 292.449, 685.200 296.193 C 683.165 297.559, 679.025 300.343, 676 302.380 C 668.247 307.602, 658.614 318.041, 656.782 323.206 C 654.002 331.043, 652.938 335.430, 652.077 342.607 C 651.607 346.516, 650.702 350.688, 650.065 351.878 C 649.429 353.068, 649.162 354.452, 649.472 354.955 C 649.783 355.457, 649.374 357.585, 648.564 359.684 C 647.754 361.783, 646.878 365.525, 646.617 368 C 646.356 370.475, 645.612 374.916, 644.963 377.868 C 643.855 382.911, 644.093 405.329, 645.361 415.326 C 645.826 418.991, 649.683 425.979, 651.250 425.993 C 651.663 425.997, 652 426.700, 652 427.556 C 652 429.969, 657.766 434.668, 665.484 438.544 C 672.676 442.155, 676.945 444.518, 693.178 453.871 C 701.901 458.897, 720.674 472.616, 725.764 477.683 C 727.009 478.923, 731.284 482.531, 735.264 485.702 C 739.244 488.872, 743.300 492.149, 744.277 492.983 C 745.254 493.817, 747.548 495.400, 749.374 496.500 C 751.200 497.600, 753.868 499.326, 755.303 500.336 C 758.195 502.371, 760.374 501.755, 759.544 499.137 C 758.930 497.205, 764.953 492.826, 770.914 490.870 C 772.886 490.223, 776.075 488.711, 778 487.511 C 782.150 484.923, 790.435 482, 793.619 482 C 794.864 482, 796.122 481.612, 796.415 481.137 C 797.293 479.717, 804.913 478.019, 814.835 477.032 C 819.969 476.522, 824.694 475.689, 825.335 475.182 C 825.976 474.674, 834.600 473.955, 844.500 473.584 C 861.648 472.941, 862.954 473.027, 872.098 475.411 C 881.019 477.738, 882.373 477.841, 891.329 476.867 C 899.438 475.986, 901.639 476.068, 905.232 477.386 C 909.394 478.913, 927.480 480.956, 937.500 481.031 C 940.322 481.052, 944.242 481.909, 946.500 483 C 948.700 484.063, 951.760 484.947, 953.300 484.966 C 954.839 484.985, 957.414 485.680, 959.020 486.510 C 960.626 487.341, 965.441 488.293, 969.720 488.627 C 974.561 489.005, 978.762 489.953, 980.841 491.137 C 982.679 492.184, 986.954 493.964, 990.341 495.094 C 993.729 496.224, 997.991 498.016, 999.813 499.077 C 1002 500.351, 1003.999 500.787, 1005.697 500.361 C 1009.352 499.444, 1018.423 504.513, 1020.703 508.747 C 1021.666 510.536, 1022.802 512, 1023.227 512 C 1024.366 512, 1024.168 516.778, 1023 517.500 C 1022.450 517.840, 1022 518.509, 1022 518.987 C 1022 519.465, 1025.610 517.413, 1030.022 514.426 C 1044.391 504.696, 1059.768 496, 1062.602 496 C 1063.444 496, 1083.050 486.160, 1084.500 485.009 C 1085.050 484.573, 1093.150 480.284, 1102.500 475.479 C 1111.850 470.673, 1120.433 465.609, 1121.573 464.224 C 1124.154 461.089, 1127.549 450.729, 1129.021 441.500 C 1130.559 431.852, 1131.513 428.984, 1137.003 417.500 C 1139.632 412, 1143.022 403.999, 1144.536 399.719 C 1147.026 392.685, 1147.237 391.046, 1146.735 382.628 C 1146.100 371.982, 1142.528 360.243, 1138.666 356.108 C 1137.327 354.673, 1135.166 351.473, 1133.865 348.995 C 1127.422 336.722, 1107.477 319.219, 1093.836 313.867 C 1090.901 312.715, 1087.150 311.189, 1085.500 310.474 C 1077.241 306.898, 1061.339 304.523, 1050.994 305.321 C 1034.270 306.611, 1001.549 313.449, 994.764 317.073 C 993.809 317.583, 991.784 318.003, 990.264 318.006 C 988.744 318.009, 985.925 318.441, 984 318.966 C 978.600 320.440, 971.074 320.768, 963.965 319.838 C 960.409 319.374, 954.837 318.745, 951.582 318.442 C 948.328 318.139, 944.870 317.466, 943.898 316.945 C 941.035 315.413, 934.021 315.782, 933.362 317.500 C 933.045 318.325, 931.934 319, 930.893 319 C 929.852 319, 929 319.429, 929 319.953 C 929 320.477, 927.087 321.791, 924.750 322.872 C 922.413 323.953, 918.925 326.219, 917 327.908 C 915.075 329.597, 913.022 331.373, 912.437 331.854 C 910.124 333.759, 907.007 335, 904.534 335 C 903.106 335, 901.678 335.675, 901.362 336.500 C 900.429 338.929, 898.636 338.266, 893.576 333.621 C 890.739 331.015, 886.772 328.584, 883.783 327.619 C 881.021 326.727, 877.140 324.574, 875.161 322.836 C 870.718 318.936, 861.007 314.464, 855 313.553 C 852.525 313.178, 847.647 311.981, 844.160 310.893 C 840.673 309.805, 833.923 308.317, 829.160 307.585 C 820.242 306.216, 789.969 298.589, 786.873 296.932 C 785.915 296.419, 784.087 296, 782.811 296 C 781.535 296, 777.429 294.889, 773.687 293.532 C 769.945 292.175, 763.871 290.353, 760.191 289.484 C 756.511 288.615, 752.600 287.645, 751.500 287.327 C 746.806 285.972, 725.217 285.568, 716.139 286.664" stroke="#dd8a8a" fill="#dd8a8a" fill-opacity="0.2" fill-rule="evenodd"/><path class="svg-region-SF" d="M 837 474.043 C 830.675 474.410, 823.700 475.208, 821.500 475.816 C 819.300 476.423, 813.885 477.321, 809.466 477.811 C 805.047 478.301, 799.872 479.377, 797.966 480.202 C 796.060 481.028, 792.282 482.240, 789.571 482.895 C 786.861 483.551, 778.994 486.881, 772.089 490.294 C 760.131 496.206, 759.529 496.649, 759.390 499.648 C 759.268 502.289, 760.311 503.849, 765.872 509.342 C 769.517 512.942, 774.975 517.389, 778 519.223 C 788.163 525.387, 790.988 527.490, 791.592 529.342 C 791.923 530.355, 793.877 531.938, 795.936 532.860 C 797.994 533.781, 800.538 535.396, 801.589 536.449 C 804.347 539.210, 820.987 550, 822.487 550 C 823.184 550, 824.315 550.675, 825 551.500 C 825.685 552.325, 827.163 553, 828.285 553 C 829.406 553, 832.164 554.072, 834.412 555.381 C 836.660 556.691, 842.775 559.208, 848 560.976 C 853.225 562.744, 858.497 564.822, 859.715 565.595 C 860.933 566.368, 863.408 567.003, 865.215 567.006 C 867.022 567.010, 869.789 567.685, 871.364 568.506 C 872.940 569.328, 875.190 570.008, 876.364 570.017 C 877.539 570.027, 881.650 570.711, 885.500 571.537 C 895.376 573.656, 922.496 573.429, 923.870 571.216 C 924.216 570.657, 927.200 570.002, 930.500 569.760 C 940.633 569.015, 957.911 561.731, 965.827 554.865 C 968.462 552.579, 972.765 550.257, 976.827 548.926 C 980.497 547.725, 984.175 546.206, 985 545.552 C 985.825 544.897, 989.698 542.498, 993.608 540.221 C 997.517 537.943, 1002.538 534.599, 1004.766 532.790 C 1006.994 530.980, 1011.379 527.475, 1014.509 525 C 1025.016 516.693, 1025.509 515.672, 1021.936 509.617 C 1019.357 505.246, 1010.324 499.947, 1005.764 500.131 C 1002.593 500.259, 991.134 496.108, 982 491.521 C 979.076 490.053, 974.775 489.045, 969.720 488.641 C 965.441 488.300, 960.626 487.341, 959.020 486.510 C 957.414 485.680, 954.839 484.997, 953.300 484.994 C 951.760 484.990, 949.150 484.261, 947.500 483.372 C 945.455 482.270, 939.090 481.333, 927.500 480.426 C 918.025 479.685, 908.225 478.355, 905.360 477.423 C 900.969 475.994, 898.909 475.905, 891.215 476.815 C 882.951 477.792, 881.400 477.679, 872.358 475.440 C 862.088 472.897, 858.901 472.771, 837 474.043" stroke="#8c6b55" fill="#8c6b55" fill-opacity="0.2" fill-rule="evenodd"/><path class="svg-region-SB" d="M 895.899 709.434 C 895.661 709.673, 891.589 710.100, 886.850 710.384 C 881.752 710.689, 875.840 711.773, 872.367 713.040 C 869.140 714.217, 864.700 715.601, 862.500 716.115 C 857.273 717.337, 847.669 721.128, 846.885 722.278 C 846.547 722.775, 845.400 723.703, 844.337 724.340 C 837.147 728.652, 835.093 729.991, 829.336 734.122 C 825.792 736.664, 820.864 741.122, 818.383 744.028 C 815.903 746.934, 812.762 750.186, 811.403 751.255 C 809.197 752.990, 801 764.345, 801 765.666 C 801 765.955, 800.197 767.386, 799.215 768.846 C 794.816 775.385, 793.497 782.653, 793.560 800 C 793.649 824.606, 795.052 830.981, 803.617 845.701 C 804.642 847.461, 807.121 849.824, 809.126 850.951 C 817.554 855.687, 838.176 852.257, 850.500 844.068 C 859.667 837.977, 871.168 826.343, 877.302 816.956 C 884.910 805.315, 887.357 803.186, 894.575 801.934 C 900.489 800.908, 903.778 801.219, 927.597 805.054 C 934.091 806.099, 935.037 806.022, 938.719 804.144 C 945.132 800.872, 950.746 794.753, 954.012 787.474 C 955.655 783.811, 957 779.982, 957 778.966 C 957 777.950, 957.450 776.840, 958 776.500 C 959.524 775.558, 959.192 758.835, 957.522 752.425 C 955.994 746.557, 952.125 738.986, 948.874 735.500 C 947.848 734.400, 945.358 731.587, 943.340 729.250 C 941.323 726.913, 939.086 725, 938.371 725 C 937.655 725, 935.532 723.650, 933.653 722 C 931.774 720.350, 929.757 719, 929.171 719 C 928.585 719, 925.945 717.842, 923.303 716.426 C 914.241 711.569, 897.927 707.407, 895.899 709.434" stroke="#d2e400" fill="#d2e400" fill-opacity="0.2" fill-rule="evenodd"/><path class="svg-region-Ol" d="M 488.893 431.302 C 483.750 433.393, 478.858 435.672, 478.021 436.367 C 477.185 437.061, 472.922 439.401, 468.550 441.565 C 454.042 448.746, 438.543 466.882, 436.531 479.033 C 436.215 480.940, 435.505 484.750, 434.954 487.500 C 431.148 506.472, 429 518.564, 429 521.022 C 429 522.595, 428.594 524.133, 428.099 524.439 C 426.019 525.724, 429.238 549.659, 432.410 556.500 C 433.175 558.150, 434.563 562.425, 435.494 566 C 438.622 578.006, 443.111 590.396, 450.078 606.253 C 453.885 614.917, 457 622.205, 457 622.449 C 457 622.693, 458.519 625.504, 460.375 628.696 C 462.231 631.888, 464.065 635.523, 464.449 636.773 C 465.100 638.886, 475.828 658.008, 481.854 667.797 C 489.516 680.241, 499.525 693.238, 504.284 696.922 C 507.153 699.143, 510.240 701.673, 511.145 702.545 C 512.050 703.416, 515.875 706.100, 519.645 708.508 C 523.415 710.917, 527.780 713.882, 529.346 715.099 C 530.911 716.315, 536.311 718.844, 541.346 720.719 C 549.283 723.675, 551.829 724.151, 560.500 724.300 C 571.141 724.484, 578.796 723.064, 585.500 719.664 C 589.571 717.598, 598 709.397, 598 707.500 C 598 706.927, 599.787 703.767, 601.972 700.479 C 604.156 697.190, 605.956 693.799, 605.972 692.941 C 605.987 692.084, 606.661 690.509, 607.468 689.441 C 608.276 688.374, 608.951 686.712, 608.968 685.750 C 608.986 684.788, 609.347 684, 609.771 684 C 610.195 684, 611.657 681.953, 613.021 679.451 C 616.313 673.411, 619.131 672.086, 626.610 673.060 C 634.285 674.060, 641.500 674.780, 652.141 675.609 C 661.914 676.370, 665.694 675.253, 680 667.377 C 684.125 665.106, 689.220 662.696, 691.323 662.022 C 695.959 660.536, 710.420 652.560, 714.326 649.335 C 718.141 646.185, 732.014 629.285, 740 618.058 C 743.575 613.033, 747.441 607.701, 748.590 606.211 C 753.545 599.786, 758.162 582.524, 759.479 565.500 C 760.595 551.081, 756.320 525.098, 752.091 520.597 C 750.941 519.373, 750 517.706, 750 516.894 C 750 514.284, 741.901 507.579, 725.500 496.611 C 716.700 490.726, 707.081 484.172, 704.125 482.047 C 701.169 479.921, 695.319 476.453, 691.125 474.341 C 686.931 472.228, 683.275 470.250, 683 469.944 C 682.301 469.166, 666.440 462.511, 661 460.713 C 658.525 459.895, 653.585 458.894, 650.023 458.488 C 646.460 458.083, 641.950 457.188, 640 456.500 C 638.050 455.812, 633.540 454.936, 629.977 454.553 C 614.906 452.934, 602.141 450.314, 597.764 447.941 C 596.809 447.424, 594.951 447, 593.636 447 C 592.320 447, 589.629 446.325, 587.654 445.500 C 585.680 444.675, 582.800 444, 581.255 444 C 579.709 444, 577.557 443.385, 576.473 442.633 C 575.388 441.881, 572.025 440.784, 569 440.195 C 559.318 438.311, 551.646 436.246, 546 434.005 C 540.852 431.961, 538.927 431.342, 530 428.856 C 528.075 428.320, 520.142 427.796, 512.371 427.691 L 498.243 427.500 488.893 431.302" stroke="#aa444d" fill="#aa444d" fill-opacity="0.2" fill-rule="evenodd"/><path class="svg-region-Or" d="M 1245 454.986 C 1239.225 456.546, 1231.350 459.264, 1227.500 461.027 C 1220.913 464.043, 1211.259 467.014, 1201 469.181 C 1195.689 470.303, 1184.110 471.590, 1167.500 472.906 C 1160.900 473.428, 1150.325 474.791, 1144 475.935 C 1137.675 477.078, 1129.575 478.430, 1126 478.940 C 1107.901 481.518, 1104.356 482.176, 1098.184 484.098 C 1094.508 485.244, 1090.150 486.765, 1088.500 487.479 C 1086.850 488.193, 1084.379 489.117, 1083.009 489.533 C 1081.639 489.948, 1077.814 491.510, 1074.509 493.003 C 1071.204 494.497, 1067.793 495.962, 1066.928 496.260 C 1066.063 496.557, 1060.133 500.221, 1053.749 504.400 C 1047.366 508.580, 1041.899 512, 1041.601 512 C 1041.126 512, 1033.474 517.759, 1021.009 527.500 C 1012.799 533.915, 1003.041 549.131, 1001.184 558.417 C 999.796 565.353, 999.669 578.010, 1000.937 583 C 1004.195 595.819, 1005.497 599.501, 1009.732 607.872 C 1017.603 623.429, 1028.664 632.617, 1045.289 637.410 C 1053.968 639.912, 1057.385 643.683, 1060.956 654.700 C 1064.101 664.403, 1068.930 675.289, 1071.798 679.143 C 1072.763 680.439, 1074.166 682.712, 1074.915 684.194 C 1077.209 688.728, 1090.073 703.025, 1098.087 709.947 C 1104.878 715.813, 1115.228 721.832, 1128.001 727.346 C 1142.886 733.772, 1164.999 737.647, 1181.386 736.703 C 1199.377 735.666, 1223.878 728.727, 1241.097 719.793 C 1252.006 714.133, 1259.289 708.688, 1268.789 699.088 C 1279.687 688.077, 1281.125 686.268, 1293.517 668 C 1298.342 660.887, 1313.821 630.588, 1317.890 620.292 C 1318.931 617.656, 1321.116 612.575, 1322.745 609 C 1327.446 598.679, 1334.664 579.957, 1336.045 574.500 C 1336.741 571.750, 1337.631 569.050, 1338.022 568.500 C 1340.387 565.178, 1341.212 531.777, 1339.174 521.894 C 1336.674 509.777, 1329.879 498.031, 1318.577 486.290 C 1314.452 482.005, 1309.698 476.574, 1308.011 474.219 C 1306.323 471.865, 1302.368 468.308, 1299.222 466.314 C 1296.075 464.321, 1291.855 461.405, 1289.844 459.836 C 1279.250 451.564, 1263.843 449.897, 1245 454.986" stroke="#aa444d" fill="#aa444d" fill-opacity="0.2" fill-rule="evenodd"/>
    </svg>