<svg xmlns="http://www.w3.org/2000/svg" width="1785" height="1131" viewBox="0 0 1785 1131" version="1.1">
    <path class="svg-region-V" d="M 845.500 262.017 C 842.750 262.461, 832.400 262.880, 822.500 262.948 C 785.245 263.202, 771.271 265.210, 755.559 272.568 C 751.529 274.456, 747.780 276, 747.230 276 C 746.679 276, 744.940 276.672, 743.364 277.494 C 741.789 278.315, 738.925 278.994, 737 279.001 C 732.378 279.020, 721.480 282.377, 719.448 284.409 C 718.563 285.294, 717.417 285.758, 716.901 285.439 C 716.385 285.120, 714.456 285.791, 712.614 286.930 C 710.771 288.068, 708.630 289, 707.854 289 C 707.079 289, 705.333 289.779, 703.974 290.731 C 702.615 291.683, 701.052 292.484, 700.501 292.512 C 696.669 292.705, 690.292 297.500, 679.589 308.239 C 672.867 314.982, 666.519 321.850, 665.482 323.500 C 664.445 325.150, 662.412 328.075, 660.963 330 C 657.185 335.022, 649.871 355.836, 648.896 364.338 C 648.444 368.277, 647.572 375.325, 646.957 380 C 645.527 390.883, 646.496 406.136, 649.129 414.155 C 653.257 426.729, 664.921 443.780, 674.857 451.765 C 679.556 455.541, 690.831 462.464, 693.500 463.213 C 694.600 463.521, 696.400 464.119, 697.500 464.541 C 699.087 465.150, 698.902 464.667, 696.605 462.199 C 693.968 459.365, 693.764 458.639, 694.311 454.021 C 694.641 451.233, 695.168 448.538, 695.481 448.031 C 695.800 447.515, 702.293 447.253, 710.275 447.435 C 723.516 447.738, 725.296 448.019, 736 451.490 C 742.325 453.542, 747.725 455.577, 748 456.014 C 748.275 456.450, 751.073 457.479, 754.218 458.301 C 757.363 459.122, 760.658 460.515, 761.540 461.397 C 762.421 462.279, 764.287 463, 765.685 463 C 767.084 463, 769.864 463.841, 771.864 464.869 C 773.864 465.897, 777.425 467.188, 779.777 467.737 C 783.698 468.653, 784.427 468.490, 788.527 465.774 C 790.987 464.145, 793 462.265, 793 461.597 C 793 459.322, 790.504 457.209, 774 445.514 C 763.355 437.970, 754.572 430.810, 749.250 425.337 C 741.053 416.907, 740.591 416.199, 740.965 412.649 C 741.072 411.631, 740.224 409.926, 739.080 408.860 C 736.150 406.130, 736.096 397.554, 739 396 C 740.100 395.411, 741 394.072, 741 393.024 C 741 391.976, 741.450 390.840, 742.001 390.500 C 742.551 390.160, 743.508 387.869, 744.127 385.409 C 744.747 382.949, 746.197 380.275, 747.349 379.468 C 749.914 377.672, 759.283 377.522, 762.316 379.229 C 763.673 379.993, 769.230 380.514, 777 380.606 C 791.194 380.773, 801.065 382.696, 810.404 387.114 C 813.757 388.701, 817.196 389.999, 818.047 389.999 C 818.898 390, 821.352 391.800, 823.500 394 C 827.151 397.739, 827.776 398, 833.089 398 C 842.766 398, 848.032 402.339, 852.631 414.105 C 857.407 426.323, 860.744 431.350, 866.059 434.338 C 868.664 435.802, 872.303 437.007, 874.147 437.015 C 880.537 437.044, 889.840 441.052, 895.721 446.309 C 897.552 447.946, 898.209 448.071, 899.471 447.024 C 900.312 446.326, 901 445.083, 901 444.262 C 901 441.520, 908.136 432.970, 911.650 431.502 C 914.845 430.167, 918.181 427.656, 928.109 419.114 C 932.899 414.992, 940.352 413.037, 951.364 413.016 C 957.147 413.004, 960.190 412.494, 962.864 411.089 C 966.323 409.271, 969.428 408.127, 982 404.040 C 990.611 401.240, 998.293 400.155, 1014.766 399.410 C 1032.433 398.610, 1032.271 398.547, 1036.558 407.901 C 1040.368 416.214, 1039.586 418.545, 1029.762 428.174 C 1025.304 432.542, 1020.272 436.725, 1018.579 437.468 C 1013.345 439.765, 1009.352 444.553, 1006.404 452.068 C 1004.471 456.995, 1002.092 460.792, 998.796 464.212 L 994 469.188 994 476.894 C 994 481.132, 994.484 485.084, 995.077 485.677 C 996.451 487.051, 1000.169 486.216, 1016.065 480.966 C 1036.308 474.280, 1037.874 473.919, 1052.656 472.515 C 1060.442 471.776, 1067.725 470.683, 1068.840 470.086 C 1074.580 467.013, 1084 470.701, 1084 476.021 C 1084 476.493, 1082.194 478.966, 1079.986 481.517 C 1077.778 484.068, 1075.291 487.470, 1074.460 489.077 C 1073.038 491.826, 1073.065 492, 1074.904 492 C 1076.749 492, 1088.824 484.672, 1090.088 482.784 C 1090.411 482.302, 1092.066 481.140, 1093.765 480.203 C 1102.109 475.602, 1123.743 455.447, 1126.792 449.433 C 1127.926 447.196, 1129.600 444.747, 1130.511 443.991 C 1135.744 439.648, 1145 412.670, 1145 401.761 C 1145 394.222, 1141.676 374.761, 1140.002 372.500 C 1139.595 371.950, 1138.698 369.025, 1138.009 366 C 1137.320 362.975, 1135.856 359.009, 1134.757 357.186 C 1133.657 355.363, 1131.721 351.763, 1130.455 349.186 C 1127.836 343.854, 1120.397 335, 1118.538 335 C 1117.857 335, 1115.075 332.637, 1112.356 329.750 C 1109.638 326.863, 1104.999 322.475, 1102.047 320 C 1099.096 317.525, 1092.140 311.168, 1086.590 305.872 C 1081.041 300.577, 1074.925 294.986, 1073 293.447 C 1071.075 291.909, 1067.248 288.491, 1064.496 285.852 C 1059.890 281.436, 1044.594 271.935, 1032.500 265.980 C 1027.864 263.697, 1026.409 263.517, 1012.500 263.509 C 1000.611 263.502, 995.115 263.990, 986 265.865 C 975.385 268.048, 973.874 268.133, 966.368 266.972 C 961.371 266.199, 955.396 265.981, 950.868 266.407 C 946.816 266.788, 942.825 267.145, 942 267.200 C 938.928 267.407, 912.151 264.845, 902.500 263.421 C 896.966 262.605, 886.024 261.979, 878 262.020 C 870.025 262.061, 863.275 262.040, 863 261.973 C 860.442 261.347, 849.475 261.375, 845.500 262.017" stroke="#dd8a8a" fill="#dd8a8a" fill-opacity="0.2" fill-rule="evenodd"/><path class="svg-region-SV" d="M 747.302 379.501 C 746.123 380.327, 744.841 382.447, 744.454 384.211 C 743.559 388.283, 740.014 395.254, 738.306 396.300 C 737.517 396.783, 737 399.044, 737 402.011 C 737 405.730, 737.516 407.402, 739.124 408.901 C 740.686 410.356, 741.077 411.557, 740.604 413.442 C 739.546 417.658, 752.562 430.245, 773.228 444.992 C 782.728 451.771, 791.238 458.227, 792.141 459.340 C 793.777 461.356, 793.790 461.355, 796.800 458.822 C 798.780 457.156, 801.655 456.038, 805.157 455.574 C 808.093 455.184, 813.196 453.816, 816.498 452.534 C 822.770 450.098, 826.794 448.999, 831 448.571 C 834.874 448.176, 838.275 446.900, 840.885 444.862 C 844.260 442.227, 848.191 442.508, 851.076 445.592 C 855.168 449.967, 856.315 450.193, 865.605 448.452 C 874.904 446.710, 878.493 447.082, 881.289 450.081 C 883.893 452.874, 896.028 452.779, 902.667 449.915 C 906.428 448.292, 909.063 447.906, 914.547 448.174 C 920.882 448.484, 921.942 448.845, 925.047 451.755 C 926.946 453.534, 929.095 454.993, 929.822 454.995 C 930.549 454.998, 933.024 456.073, 935.322 457.385 C 938.661 459.292, 941.459 459.878, 949.253 460.305 C 957.002 460.730, 959.775 461.307, 962.753 463.115 C 964.814 464.366, 966.837 465.937, 967.250 466.606 C 967.662 467.274, 969.958 468.769, 972.352 469.928 C 976.836 472.099, 978.223 474.091, 981.688 483.334 L 983.500 488.168 989.494 487.507 C 995.578 486.836, 997.512 486.088, 995.250 485.280 C 994.395 484.974, 994 482.364, 994 477.010 L 994 469.188 998.944 464.058 C 1001.663 461.237, 1004.192 457.932, 1004.563 456.714 C 1007.435 447.300, 1012.523 440.277, 1018.500 437.480 C 1020.150 436.708, 1024.200 433.584, 1027.500 430.539 C 1030.800 427.494, 1033.838 425.002, 1034.250 425.001 C 1034.662 425.001, 1035 424.508, 1035 423.908 C 1035 423.307, 1035.900 421.671, 1037 420.273 C 1039.617 416.946, 1039.523 414.203, 1036.571 407.749 C 1032.389 398.605, 1032.372 398.599, 1014.757 399.375 C 1006.366 399.745, 997.025 400.508, 994 401.070 C 982.442 403.219, 978.403 404.298, 975.500 406.012 C 973.850 406.987, 970.962 408.110, 969.083 408.508 C 967.204 408.906, 964.279 410.078, 962.583 411.112 C 960.280 412.517, 957.573 412.993, 951.886 412.996 C 942.004 413.001, 934.129 414.517, 931 417.016 C 929.625 418.114, 926.025 420.896, 923 423.199 C 919.975 425.502, 917.050 427.905, 916.500 428.539 C 915.950 429.173, 913.989 430.285, 912.142 431.012 C 908.653 432.384, 901 441.072, 901 443.661 C 901 444.476, 900.298 445.844, 899.441 446.702 C 898.029 448.114, 897.623 448.013, 895.136 445.630 C 893.626 444.184, 892.035 443, 891.600 443 C 891.165 443, 889.614 442.182, 888.154 441.181 C 884.807 438.888, 878.314 437, 873.774 437 C 871.695 437, 868.786 435.987, 866.595 434.500 C 864.569 433.125, 862.594 432, 862.206 431.999 C 861.138 431.997, 855.771 422.239, 853.413 416.012 C 850.163 407.426, 849.837 406.827, 846.571 403.439 C 842.266 398.973, 839.940 398, 833.569 398 C 828.570 398, 827.595 397.629, 823.959 394.344 C 814.917 386.175, 789.907 379.200, 774.626 380.585 C 768.924 381.102, 766.698 380.895, 764.234 379.621 C 760.204 377.537, 750.207 377.466, 747.302 379.501" stroke="#c666b5" fill="#c666b5" fill-opacity="0.2" fill-rule="evenodd"/><path class="svg-region-SF" d="M 695.456 448.071 C 695.123 448.610, 694.639 451.402, 694.382 454.276 C 693.961 458.963, 694.205 459.812, 696.750 462.535 C 700.772 466.836, 705.260 469.864, 714.950 474.811 C 735.699 485.405, 743.579 491.325, 755.800 505.500 C 759.120 509.350, 765.404 515.911, 769.765 520.080 C 774.126 524.249, 779.518 530.346, 781.747 533.628 C 786.790 541.054, 804.374 559, 806.607 559 C 807.516 559, 810.371 556.952, 812.951 554.449 C 819.252 548.336, 822.113 547.015, 831.329 545.963 C 835.635 545.472, 841.851 544.540, 845.143 543.892 C 852.319 542.480, 875.363 543.226, 877.424 544.937 C 881.227 548.093, 895.836 550.251, 912.957 550.186 C 922.298 550.150, 923.563 550.359, 924.811 552.141 C 926.056 553.918, 926.908 554.062, 932.576 553.455 C 938.576 552.812, 939.212 552.952, 943.643 555.887 C 946.228 557.599, 948.777 559, 949.307 559 C 949.837 559, 951.283 560.013, 952.520 561.250 C 960.597 569.331, 963.952 572.148, 964.844 571.596 C 965.404 571.250, 966.144 571.425, 966.490 571.984 C 967.356 573.385, 969.593 573.257, 971.179 571.716 C 971.905 571.010, 975.650 568.341, 979.500 565.786 C 983.350 563.231, 988.525 559.056, 991 556.509 C 993.475 553.962, 997.075 550.939, 999 549.791 C 1000.925 548.643, 1003.864 546.308, 1005.530 544.602 C 1007.197 542.896, 1010.109 540.375, 1012.002 539 C 1013.895 537.625, 1018.218 534.025, 1021.609 531 C 1035.746 518.389, 1040.299 514.684, 1048.187 509.374 C 1052.752 506.301, 1058.515 502.705, 1060.993 501.383 C 1067.691 497.811, 1075.151 492.217, 1073.813 491.771 C 1072.471 491.324, 1077.284 483.899, 1081.394 480.076 C 1082.827 478.742, 1084 476.598, 1084 475.311 C 1084 470.669, 1074.118 467.261, 1068.843 470.084 C 1067.729 470.680, 1060.896 471.617, 1053.659 472.166 C 1042.596 473.006, 1038.190 473.883, 1026 477.676 C 1018.025 480.157, 1010.129 482.769, 1008.453 483.480 C 1004.550 485.137, 997.386 486.570, 983 488.571 C 976.675 489.451, 969.250 490.550, 966.500 491.012 C 958.754 492.316, 925.607 492.195, 922.315 490.850 C 919.647 489.761, 913.177 489.172, 880.500 487.045 C 864.186 485.983, 852.754 484.474, 850.047 483.025 C 848.993 482.461, 846.414 481.995, 844.316 481.989 C 842.217 481.982, 834.200 480.104, 826.500 477.814 C 817.079 475.012, 809.703 473.462, 803.950 473.075 C 798.598 472.715, 794.475 471.893, 792.928 470.877 C 791.569 469.984, 788.667 468.989, 786.479 468.665 C 776.856 467.242, 774.434 466.626, 771.557 464.872 C 769.876 463.846, 767.653 463.006, 766.618 463.004 C 765.583 463.002, 763.318 462.124, 761.586 461.053 C 759.853 459.982, 756.211 458.608, 753.493 457.998 C 750.775 457.389, 748.314 456.520, 748.025 456.067 C 747.736 455.613, 742.550 453.562, 736.500 451.508 C 726.100 447.976, 724.697 447.754, 710.781 447.431 C 701.853 447.224, 695.824 447.476, 695.456 448.071" stroke="#8c6b55" fill="#8c6b55" fill-opacity="0.2" fill-rule="evenodd"/><path class="svg-region-IF" d="M 843.698 544.030 C 841.607 544.558, 836.116 545.420, 831.496 545.945 C 821.615 547.068, 819.307 548.158, 812.082 555.120 L 806.664 560.341 810.582 563.646 C 815.521 567.812, 832.310 576.147, 841.500 578.994 C 845.350 580.187, 850.217 581.810, 852.316 582.600 C 854.415 583.390, 856.572 583.765, 857.110 583.432 C 857.648 583.100, 858.665 583.307, 859.371 583.893 C 860.077 584.479, 863.935 585.423, 867.944 585.992 C 871.953 586.561, 875.531 587.210, 875.895 587.435 C 878.746 589.197, 908.654 590.665, 920.500 589.624 C 930.361 588.758, 962.205 577.641, 965.613 573.875 C 966.546 572.844, 967.128 571.966, 966.905 571.923 C 966.682 571.881, 965.666 571.689, 964.647 571.497 C 963.628 571.304, 960.986 569.426, 958.776 567.323 C 956.566 565.221, 953.800 562.594, 952.629 561.486 C 951.458 560.378, 949.150 558.815, 947.500 558.012 C 945.850 557.210, 943.375 555.709, 942 554.677 C 939.893 553.096, 938.454 552.904, 932.843 553.452 C 926.884 554.035, 926.037 553.891, 924.771 552.084 C 923.500 550.269, 922.306 550.073, 912.929 550.143 C 895.882 550.270, 881.248 548.110, 877.374 544.895 C 875.546 543.379, 848.978 542.696, 843.698 544.030" stroke="#f2823b" fill="#f2823b" fill-opacity="0.2" fill-rule="evenodd"/><path class="svg-region-PF" d="M 840.581 444.910 C 839.631 445.961, 837.649 447.122, 836.178 447.492 C 833.599 448.139, 833.573 448.214, 835.442 449.581 C 836.509 450.362, 836.994 451, 836.520 451 C 836.046 451, 834.860 450.278, 833.885 449.396 C 832.267 447.932, 831.607 447.928, 826.306 449.355 C 823.113 450.214, 817.800 451.855, 814.500 453.002 C 811.200 454.148, 806.475 455.356, 804 455.687 C 800.599 456.142, 798.401 457.295, 795 460.411 C 792.525 462.678, 789.150 465.524, 787.500 466.735 C 784.646 468.829, 784.612 468.938, 786.790 468.968 C 788.049 468.986, 790.844 469.900, 793 471 C 795.679 472.367, 798.912 473.004, 803.210 473.011 C 807.637 473.019, 813.647 474.249, 823.500 477.163 C 831.200 479.440, 840.200 481.580, 843.500 481.918 C 846.800 482.256, 850.034 482.872, 850.686 483.286 C 852.528 484.456, 865.124 486.044, 880.500 487.045 C 913.177 489.172, 919.647 489.761, 922.315 490.850 C 925.687 492.227, 958.771 492.302, 967 490.951 C 970.025 490.455, 974.862 489.750, 977.750 489.384 C 983.580 488.647, 983.863 488.095, 981.389 482.284 C 977.389 472.886, 976.499 471.666, 972.285 469.802 C 969.963 468.775, 967.711 467.320, 967.281 466.570 C 966.852 465.820, 964.779 464.196, 962.675 462.960 C 959.661 461.190, 956.795 460.608, 949.175 460.219 C 941.212 459.812, 938.615 459.253, 934.500 457.060 C 928.589 453.911, 924.010 451.014, 922.179 449.263 C 920.059 447.237, 908.322 447.689, 902.151 450.034 C 894.481 452.949, 883.964 452.622, 880.443 449.359 C 877.444 446.580, 875.873 446.497, 865.082 448.544 L 856.944 450.088 852.619 446.544 C 847.692 442.506, 843.297 441.910, 840.581 444.910" stroke="#faaaaa" fill="#faaaaa" fill-opacity="0.2" fill-rule="evenodd"/><path class="svg-region-SB" d="M 850 739.019 C 846.484 739.990, 841.005 743.048, 836.414 746.602 C 834.261 748.269, 830.250 750.907, 827.500 752.465 C 817.756 757.987, 800.475 774.469, 796.710 781.832 C 795.397 784.400, 793.626 787.850, 792.773 789.500 C 789.472 795.886, 786.113 808.688, 785.559 817 C 785.394 819.475, 784.939 825.775, 784.549 831 C 783.430 845.976, 786.014 853.738, 793.884 859.043 C 800.597 863.568, 803.006 864.195, 812 863.761 C 819.355 863.405, 821.469 862.857, 827.696 859.689 C 835.716 855.610, 842.766 848.793, 847.394 840.643 C 856.802 824.075, 866.038 804.513, 868.709 795.500 C 872.856 781.508, 874.217 773.289, 873.842 764.500 C 873.457 755.486, 870.348 748.011, 864.649 742.398 C 861.304 739.104, 854.977 737.644, 850 739.019" stroke="#d2e400" fill="#d2e400" fill-opacity="0.2" fill-rule="evenodd"/><path class="svg-region-Ol" d="M 497 427.175 C 490.812 428.459, 480.409 431.803, 475 434.245 C 472.525 435.363, 467.800 437.498, 464.500 438.990 C 447.652 446.609, 427.791 462.497, 419.486 475 C 411.390 487.188, 409.493 494.929, 410.340 512.325 C 411.561 537.425, 415.531 558.274, 424.081 584.500 C 425.695 589.450, 427.923 596.650, 429.031 600.500 C 430.140 604.350, 431.464 608.400, 431.973 609.500 C 432.483 610.600, 433.573 613.525, 434.397 616 C 437.946 626.659, 446.965 651.908, 448.865 656.500 C 455.224 671.874, 464 695.005, 464 696.392 C 464 697.277, 464.441 698, 464.981 698 C 465.520 698, 466.268 699.237, 466.641 700.750 C 467.512 704.273, 475.484 724.056, 478.190 729.408 C 480.261 733.506, 488.526 744.651, 492.425 748.604 C 493.566 749.761, 499.156 755.473, 504.847 761.296 C 516.161 772.874, 528.331 781.985, 533.316 782.611 C 535.067 782.830, 538.975 783.462, 542 784.015 C 545.025 784.568, 549.300 785.255, 551.500 785.543 C 553.700 785.831, 556.850 786.432, 558.500 786.880 C 564.736 788.571, 587.075 788.122, 596.664 786.112 C 618.606 781.513, 631.223 774.088, 642.090 759.378 C 645.734 754.446, 647.811 750.882, 655.716 736 C 657.615 732.425, 659.806 729.140, 660.584 728.700 C 661.363 728.260, 662 727.348, 662 726.673 C 662 725.622, 667.531 720, 668.565 720 C 668.762 720, 672.203 718.496, 676.212 716.658 C 687.584 711.444, 688.866 711, 692.547 711 C 694.446 711, 696 710.550, 696 710 C 696 709.450, 697.597 709, 699.550 709 C 703.505 709, 706.891 707.464, 715 701.989 C 718.025 699.947, 723.066 696.579, 726.203 694.504 C 729.340 692.430, 732.940 689.354, 734.203 687.668 C 735.466 685.983, 739.200 681.427, 742.500 677.543 C 751.856 666.531, 754.539 662.848, 757.488 656.965 C 758.995 653.959, 760.815 650.825, 761.533 650 C 765.023 645.988, 775.490 618.760, 780.561 600.500 C 781.478 597.200, 783.294 592.250, 784.598 589.500 C 787.529 583.316, 788.722 570.144, 787.122 561.616 C 785.415 552.515, 781.802 546.086, 772.661 535.883 C 760.883 522.738, 759.726 521.785, 748.500 515.993 C 743 513.155, 737.825 510.265, 737 509.570 C 735.658 508.441, 731.646 506.459, 714.500 498.456 C 711.750 497.172, 704.325 494.248, 698 491.957 C 691.675 489.667, 684.250 486.954, 681.500 485.929 C 677.514 484.443, 673.643 484.059, 662.415 484.033 C 651.444 484.007, 647.022 483.583, 642.415 482.115 C 639.162 481.079, 635.825 480.212, 635 480.189 C 629.822 480.044, 623.804 477.765, 610.299 470.834 C 601.904 466.525, 594.450 463, 593.734 463 C 592.049 463, 584.475 458.314, 567.718 446.905 C 553.650 437.326, 549.890 435.102, 544.105 432.942 C 541.022 431.791, 537.150 430.264, 535.500 429.550 C 533.850 428.836, 530.648 427.745, 528.384 427.126 C 523.542 425.801, 503.462 425.833, 497 427.175" stroke="#aa444d" fill="#aa444d" fill-opacity="0.2" fill-rule="evenodd"/><path class="svg-region-Or" d="M 1248.751 412.821 C 1239.254 416.618, 1235.660 419.279, 1229.357 427.179 C 1221.651 436.837, 1215.196 443.331, 1211.300 445.345 C 1209.540 446.255, 1207.740 447.618, 1207.300 448.373 C 1204.674 452.881, 1170.490 473, 1165.456 473 C 1164.640 473, 1163.191 473.428, 1162.236 473.952 C 1159.480 475.462, 1153.805 477.744, 1150 478.871 C 1140.400 481.716, 1124.196 487.296, 1121.846 488.566 C 1120.386 489.355, 1118.338 490, 1117.296 490 C 1116.253 490, 1114.973 490.377, 1114.450 490.838 C 1113.928 491.299, 1109.675 492.906, 1105 494.409 C 1100.325 495.913, 1095.600 497.531, 1094.500 498.005 C 1093.400 498.480, 1090.700 499.441, 1088.500 500.142 C 1086.300 500.844, 1084.048 501.737, 1083.495 502.128 C 1082.941 502.519, 1077.657 504.439, 1071.751 506.394 C 1065.131 508.585, 1058.230 511.741, 1053.757 514.622 C 1049.765 517.193, 1044.925 520.288, 1043 521.500 C 1027.642 531.172, 1023.497 534.325, 1016.185 541.893 C 997.633 561.096, 991.987 576.852, 996.435 597 C 998.238 605.165, 1003.417 619.993, 1005.882 624.046 C 1011.749 633.694, 1027.788 647.446, 1041.863 654.896 C 1048.994 658.671, 1061.462 669.617, 1079.083 687.572 C 1108.837 717.892, 1109.073 718.125, 1116 724.199 C 1119.575 727.334, 1124.300 731.491, 1126.500 733.437 C 1128.700 735.384, 1132.975 737.911, 1136 739.053 C 1139.025 740.196, 1142.850 741.911, 1144.500 742.865 C 1148.459 745.153, 1157.111 748.480, 1164.261 750.464 C 1171.674 752.521, 1195.159 752.947, 1199.500 751.104 C 1201.490 750.258, 1206.541 749.906, 1214.500 750.056 C 1236.252 750.466, 1245.991 749.502, 1261.520 745.403 C 1265.684 744.304, 1272.983 740.346, 1277.500 736.739 C 1278.050 736.300, 1280.975 734.176, 1284 732.020 C 1306.613 715.904, 1320.727 702.431, 1326.252 691.687 C 1329.058 686.231, 1342 658.917, 1342 658.452 C 1342 658.209, 1344.069 653.396, 1346.599 647.755 C 1349.128 642.115, 1352.325 634.800, 1353.704 631.500 C 1355.082 628.200, 1357.678 622.350, 1359.472 618.500 C 1361.266 614.650, 1363.040 609.925, 1363.416 608 C 1364.453 602.678, 1371.130 583.700, 1372.564 582 C 1374.062 580.223, 1378 568.835, 1378 566.282 C 1378 565.302, 1378.873 561.800, 1379.941 558.500 C 1386.803 537.298, 1388.453 529.019, 1389.305 511.509 C 1389.911 499.066, 1388.119 493.552, 1380.655 484.899 C 1377.820 481.612, 1373.925 476.727, 1372 474.043 C 1370.075 471.359, 1366.108 466.722, 1363.184 463.738 C 1360.260 460.754, 1357.067 457.004, 1356.087 455.406 C 1355.108 453.808, 1352.826 450.925, 1351.016 449 C 1349.206 447.075, 1346.607 444.036, 1345.241 442.246 C 1343.874 440.456, 1339.701 436.960, 1335.967 434.478 C 1329.214 429.988, 1312.194 421.948, 1306.535 420.574 C 1304.904 420.178, 1301.529 418.962, 1299.035 417.872 C 1296.541 416.782, 1293.600 415.497, 1292.500 415.017 C 1282.515 410.652, 1278.492 409.882, 1266.804 410.101 C 1256.881 410.287, 1254.007 410.720, 1248.751 412.821" stroke="#aa444d" fill="#aa444d" fill-opacity="0.2" fill-rule="evenodd"/>
    </svg>