<svg xmlns="http://www.w3.org/2000/svg" width="1785" height="1131" viewBox="0 0 1785 1131" version="1.1">
    <path class="svg-region-V" d="M 771.839 262.494 C 771.549 262.785, 765.560 263.044, 758.531 263.071 L 745.750 263.119 747.875 265.098 C 752.594 269.495, 749.646 279.096, 741.757 285.022 C 739.149 286.982, 735.725 290.591, 734.148 293.042 C 732.572 295.494, 730.050 298.625, 728.544 300 C 727.038 301.375, 724.907 304.252, 723.809 306.393 C 722.712 308.534, 720.191 312.584, 718.208 315.393 C 716.225 318.202, 713.376 323.425, 711.876 327 C 699.997 355.320, 696.714 360.066, 685.254 365.481 C 674.422 370.599, 659.632 384.633, 658.559 390.811 C 657.350 397.775, 656.001 400, 652.986 400 C 650.076 400, 649 401.487, 649 405.509 C 649 408.649, 644.332 412.300, 641.293 411.537 C 640.032 411.221, 639 411.130, 639 411.335 C 639 412.171, 643.823 416.835, 645.758 417.870 C 647.764 418.944, 648.607 421.352, 651.055 433 C 651.575 435.475, 652.535 438.850, 653.187 440.500 C 654.587 444.042, 662.738 455, 663.973 455 C 664.443 455, 666.345 456.473, 668.200 458.274 C 673.730 463.645, 683.537 469.683, 690.484 471.995 C 694.068 473.187, 697 474.576, 697 475.082 C 697 475.587, 697.830 476, 698.845 476 C 699.860 476, 701.505 476.900, 702.500 478 C 705.906 481.764, 707.320 480.211, 704.073 476.272 C 699.583 470.825, 699.997 468.331, 706.252 463.170 L 711.500 458.841 722.519 459.412 C 728.579 459.726, 736.145 460.464, 739.332 461.054 C 746.465 462.372, 748.500 461.842, 744.425 459.726 C 742.734 458.848, 739.809 456.681, 737.925 454.911 C 736.041 453.140, 732.550 450.823, 730.166 449.762 C 727.782 448.700, 725.066 447.066, 724.130 446.130 C 723.193 445.193, 720.643 443.359, 718.464 442.054 C 710.408 437.232, 708.290 434.289, 706.549 425.500 C 706.042 422.941, 706.610 421.786, 710.411 417.648 C 716.189 411.359, 718.143 407.085, 718.761 399.384 C 719.178 394.192, 718.898 392.492, 717.132 389.500 C 714.532 385.092, 714.237 373.790, 716.480 364.500 C 717.277 361.200, 717.945 355.059, 717.964 350.854 C 717.999 343.414, 718.093 343.126, 721.431 340.195 C 723.318 338.538, 727.256 336.538, 730.181 335.751 C 741.168 332.796, 745.136 332, 748.889 332 C 751.012 332, 754.662 331.325, 757 330.500 C 765.098 327.643, 778.594 329.192, 790.157 334.306 C 793.121 335.617, 796.303 337.446, 797.227 338.370 C 798.152 339.295, 801.516 340.528, 804.704 341.110 C 810.426 342.156, 819.509 346.520, 823.607 350.192 C 824.765 351.230, 827.465 352.355, 829.607 352.691 C 831.748 353.028, 835.750 354.290, 838.500 355.495 C 841.250 356.701, 845.075 358.282, 847 359.009 C 848.925 359.735, 851.210 360.930, 852.079 361.665 C 852.947 362.399, 854.320 363, 855.129 363 C 855.938 363, 857.147 363.547, 857.815 364.215 C 859.914 366.314, 877.715 366.490, 883 364.464 C 885.475 363.515, 889.563 362.534, 892.084 362.284 C 896.140 361.882, 897.397 362.300, 902.989 365.915 C 910.326 370.656, 916.579 371.504, 918.737 368.050 C 919.427 366.944, 921.590 365.824, 923.728 365.465 C 925.802 365.117, 928.850 364.450, 930.500 363.985 C 932.150 363.519, 936.313 362.837, 939.750 362.471 L 946 361.804 946 364.494 C 946 367.130, 946.108 367.176, 951.250 366.745 C 956.439 366.309, 965.566 364.801, 986 361 C 1018.472 354.960, 1022.371 354.484, 1027.671 355.911 C 1031.817 357.028, 1033.294 357.965, 1044.367 366.500 C 1049.744 370.645, 1051.123 372.332, 1052.427 376.365 C 1053.292 379.040, 1054 381.815, 1054 382.532 C 1054 383.248, 1054.494 383.998, 1055.097 384.199 C 1055.719 384.406, 1056.424 388.241, 1056.724 393.058 C 1057.184 400.435, 1056.957 402.206, 1054.999 406.526 C 1053.759 409.262, 1052.439 411.725, 1052.065 412 C 1050.507 413.148, 1048.906 419.131, 1047.516 429 C 1046.702 434.775, 1046.028 439.994, 1046.018 440.598 C 1046.008 441.202, 1047.760 442.490, 1049.910 443.460 C 1053.714 445.175, 1054.001 445.163, 1060.425 443.025 C 1064.058 441.816, 1067.666 440.191, 1068.444 439.413 C 1070.408 437.449, 1071.740 437.646, 1073.050 440.093 C 1074.736 443.245, 1073.430 446.553, 1068.537 451.515 C 1064.371 455.741, 1064.234 456.055, 1066.112 457.060 C 1067.806 457.967, 1068.007 458.771, 1067.456 462.445 C 1067.047 465.172, 1067.212 467.013, 1067.904 467.441 C 1068.507 467.813, 1069 468.976, 1069 470.024 C 1069 471.072, 1069.900 472.411, 1071 473 C 1072.310 473.701, 1073 475.094, 1073 477.035 C 1073 478.666, 1073.413 480, 1073.918 480 C 1074.423 480, 1075.661 480.297, 1076.668 480.659 C 1077.676 481.022, 1078.172 480.957, 1077.771 480.514 C 1077.371 480.072, 1078.551 477.637, 1080.395 475.105 C 1082.238 472.572, 1084.049 469.600, 1084.418 468.500 C 1084.788 467.400, 1087.349 464.700, 1090.111 462.500 C 1092.872 460.300, 1095.535 457.504, 1096.027 456.286 C 1096.520 455.069, 1099.265 452.886, 1102.129 451.435 C 1108.107 448.405, 1117.470 439.939, 1119.736 435.514 C 1120.585 433.856, 1121.600 432.275, 1121.991 432 C 1122.383 431.725, 1123.707 428.575, 1124.932 425 C 1126.158 421.425, 1128.587 415.814, 1130.330 412.531 C 1133.172 407.180, 1133.490 405.730, 1133.401 398.531 C 1133.319 391.905, 1132.601 388.487, 1129.300 379 C 1127.099 372.675, 1124.971 365.700, 1124.572 363.500 C 1123.414 357.116, 1113.105 338.414, 1107.164 331.916 C 1104.229 328.706, 1099.279 324.419, 1096.164 322.389 C 1093.049 320.360, 1089.600 317.900, 1088.500 316.924 C 1087.400 315.948, 1084.226 314.012, 1081.447 312.621 C 1078.668 311.230, 1075.560 309.172, 1074.542 308.046 C 1073.523 306.921, 1072.141 306, 1071.470 306 C 1070.139 306, 1054.323 293.918, 1049.500 289.216 C 1045.938 285.743, 1040.525 282.498, 1036.862 281.638 C 1035.411 281.297, 1031.378 279.410, 1027.900 277.444 C 1023.592 275.008, 1017.739 272.975, 1009.538 271.065 C 989.170 266.320, 985.026 265.929, 943.500 264.833 C 941.300 264.775, 937.700 264.777, 935.500 264.838 C 933.300 264.898, 922.050 264.938, 910.500 264.926 C 898.950 264.915, 888.033 265.203, 886.241 265.567 C 884.340 265.954, 882.429 265.771, 881.656 265.130 C 880.783 264.405, 875.997 264.175, 867.621 264.455 C 860.630 264.689, 852.343 264.428, 849.205 263.875 C 843.263 262.827, 772.764 261.569, 771.839 262.494" stroke="#dd8a8a" fill="#dd8a8a" fill-opacity="0.2" fill-rule="evenodd"/><path class="svg-region-SV" d="M 758 330.189 C 756.625 330.773, 752.350 331.614, 748.500 332.057 C 733.288 333.808, 725.790 336.051, 721.084 340.258 C 718.149 342.882, 717.998 343.391, 717.964 350.758 C 717.945 355.016, 717.277 361.200, 716.480 364.500 C 714.237 373.790, 714.532 385.092, 717.132 389.500 C 718.894 392.485, 719.178 394.196, 718.765 399.336 C 718.161 406.863, 715.566 412.249, 709.892 417.757 L 705.632 421.892 706.855 427.191 C 708.218 433.097, 711.576 438.704, 714.270 439.575 C 715.244 439.890, 718.169 441.779, 720.770 443.773 C 723.372 445.767, 727.525 448.400, 730 449.624 C 732.475 450.849, 735.625 452.911, 737 454.207 C 741.141 458.110, 748.970 463, 751.079 463 C 752.167 463, 755.800 464.384, 759.152 466.077 C 763.504 468.274, 765.554 468.846, 766.323 468.077 C 766.916 467.484, 768.097 466.998, 768.950 466.995 C 769.802 466.992, 771.798 465.951, 773.385 464.682 C 775.916 462.656, 776.125 462.102, 775.089 460.166 C 773.538 457.269, 774.489 455.859, 777.285 456.906 C 778.503 457.362, 782.581 458.060, 786.347 458.458 C 792.293 459.085, 793.740 459.661, 797.347 462.840 C 799.631 464.853, 801.643 466.817, 801.818 467.204 C 801.993 467.591, 806.493 467.646, 811.818 467.326 C 819.746 466.850, 823.039 467.130, 830 468.874 C 840.598 471.530, 865.909 474.184, 885 474.641 C 892.975 474.832, 909.927 475.246, 922.670 475.561 C 942.521 476.052, 946.275 475.909, 948.871 474.567 C 950.537 473.705, 954.101 473, 956.790 473 C 959.480 473, 965.199 472.100, 969.500 471 C 973.801 469.900, 978.207 469, 979.292 469 C 980.377 469, 982.667 468.149, 984.382 467.108 C 991.047 463.063, 999.865 463.338, 1002.709 467.679 C 1004.190 469.939, 1004.168 470.298, 1002.403 472.657 C 1001.356 474.055, 998.250 476.458, 995.500 477.995 C 992.371 479.745, 990.380 481.579, 990.180 482.896 C 990.005 484.053, 990.373 485, 991 485 C 992.569 485, 1007.153 478.969, 1009 477.557 C 1009.825 476.926, 1012.975 475.601, 1016 474.614 C 1023.016 472.324, 1024.499 471.671, 1042.165 463.108 C 1052.119 458.284, 1058 456, 1060.471 456 C 1063.490 456, 1064.969 455.157, 1069.125 451.066 C 1073.381 446.877, 1074.089 445.648, 1073.818 442.917 C 1073.413 438.825, 1070.849 437.008, 1068.622 439.236 C 1067.746 440.111, 1064.074 441.810, 1060.462 443.013 C 1054.908 444.861, 1053.443 445.012, 1050.980 443.992 C 1045.992 441.926, 1045.836 441.243, 1047.547 428.979 C 1048.891 419.343, 1049.715 416.592, 1053.188 410.152 C 1057.247 402.624, 1057.254 402.591, 1056.753 393.808 C 1056.477 388.968, 1055.807 384.444, 1055.263 383.754 C 1054.720 383.064, 1053.475 379.907, 1052.497 376.737 C 1050.890 371.532, 1050.102 370.535, 1044.359 366.437 C 1040.862 363.941, 1038 361.549, 1038 361.120 C 1038 360.692, 1035.676 359.252, 1032.835 357.921 C 1024.940 354.221, 1021.030 354.456, 988 360.619 C 973.705 363.286, 955.757 366.227, 950.750 366.723 C 946.182 367.175, 946 367.093, 946 364.597 C 946 361.144, 944.176 361.172, 926.052 364.902 C 923.056 365.519, 919.586 366.980, 918.342 368.149 C 915.155 371.143, 909.357 370.184, 902.294 365.495 C 897.444 362.274, 896.194 361.879, 892.132 362.281 C 889.584 362.533, 885.700 363.453, 883.500 364.326 C 875.644 367.442, 857.119 365.697, 851.950 361.355 C 851.098 360.639, 848.398 359.354, 845.950 358.500 C 843.503 357.646, 839.700 356.114, 837.500 355.096 C 835.300 354.077, 831.613 352.929, 829.308 352.544 C 827.002 352.159, 824.596 351.219, 823.962 350.455 C 821.619 347.632, 810.323 342.156, 804.704 341.120 C 801.516 340.532, 798.152 339.295, 797.227 338.370 C 790.777 331.920, 766.059 326.765, 758 330.189" stroke="#c666b5" fill="#c666b5" fill-opacity="0.2" fill-rule="evenodd"/><path class="svg-region-SF" d="M 1051.395 458.337 C 1048.588 459.527, 1045.663 460.998, 1044.895 461.607 C 1043.560 462.666, 1035.592 466.543, 1026 470.801 C 1023.525 471.899, 1019.025 473.576, 1016 474.527 C 1012.975 475.479, 1009.825 476.790, 1009 477.441 C 1008.175 478.092, 1005.475 479.430, 1003 480.415 C 1000.525 481.400, 997.772 482.576, 996.882 483.028 C 995.993 483.481, 993.466 484.336, 991.267 484.928 C 988.280 485.732, 986.539 487.079, 984.385 490.252 C 973.352 506.507, 972.079 507.647, 961.500 510.740 C 960.400 511.061, 959.275 511.644, 959 512.034 C 957.899 513.597, 948.911 517, 945.884 517 C 944.109 517, 941.828 516.249, 940.813 515.331 C 939.755 514.373, 936.645 513.469, 933.515 513.210 L 928.062 512.757 933.281 518.335 C 942.924 528.642, 948 534.674, 948 535.829 C 948 537.527, 955.575 542, 958.452 542 C 959.822 542, 963.318 543.050, 966.221 544.334 C 969.125 545.618, 974.036 546.930, 977.135 547.250 C 982.884 547.844, 984.628 547.280, 995.500 541.320 C 997.150 540.416, 999.353 539.254, 1000.396 538.738 C 1009.540 534.217, 1020.006 528.315, 1022.327 526.369 C 1023.881 525.066, 1025.963 524, 1026.952 524 C 1029.539 524, 1043.001 517.696, 1046.517 514.838 C 1048.158 513.505, 1050.767 511.616, 1052.316 510.641 C 1059.610 506.047, 1067.401 498.620, 1071.162 492.673 C 1072.962 489.828, 1074.844 487.213, 1075.345 486.862 C 1075.846 486.511, 1075.935 485.704, 1075.542 485.068 C 1075.149 484.432, 1075.391 483.234, 1076.078 482.406 C 1077.118 481.152, 1076.965 480.804, 1075.164 480.333 C 1073.584 479.920, 1073 478.998, 1073 476.919 C 1073 475.094, 1072.281 473.686, 1071 473 C 1069.900 472.411, 1069 471.072, 1069 470.024 C 1069 468.976, 1068.514 467.818, 1067.921 467.451 C 1067.238 467.029, 1067.082 465.040, 1067.496 462.028 C 1068.100 457.637, 1067.972 457.225, 1065.825 456.650 C 1061.670 455.537, 1056.605 456.130, 1051.395 458.337 M 709.913 460.198 C 709.041 460.914, 706.678 462.818, 704.663 464.430 C 702.409 466.233, 701 468.221, 701 469.599 C 701 472.014, 704.022 477.983, 705.250 477.994 C 705.663 477.997, 706 478.590, 706 479.312 C 706 480.694, 709.529 483.602, 717 488.375 C 719.475 489.956, 721.725 491.543, 722 491.901 C 723.061 493.282, 730.832 499, 731.647 499 C 733.279 499, 742.521 506.070, 749 512.275 C 764.001 526.641, 776.359 536.419, 779.899 536.724 C 781.330 536.847, 784.442 537.235, 786.815 537.585 C 791.782 538.319, 798.520 536.172, 803.815 532.170 C 805.638 530.792, 808.699 529.402, 810.619 529.082 C 814.357 528.458, 815.377 526.663, 821.133 510.579 C 823.172 504.880, 823.184 504.607, 821.435 503.329 C 818.763 501.375, 816.517 501.694, 813.182 504.500 C 811.548 505.875, 809.775 507, 809.242 507 C 807 507, 799.279 497.299, 798.587 493.611 C 797.931 490.113, 797.365 489.587, 791.312 486.842 C 787.702 485.205, 783.342 482.547, 781.624 480.935 C 779.906 479.324, 777.019 477.299, 775.209 476.436 C 773.400 475.574, 770.475 473.628, 768.709 472.113 C 762.350 466.653, 755.894 463.940, 744.512 461.943 C 729.713 459.346, 712.038 458.455, 709.913 460.198" stroke="#8c6b55" fill="#8c6b55" fill-opacity="0.2" fill-rule="evenodd"/><path class="svg-region-IF" d="M 829.750 495.689 C 828.788 495.941, 828 496.567, 828 497.080 C 828 497.593, 826.875 498.991, 825.500 500.187 C 824.125 501.382, 823 502.969, 823 503.712 C 823 505.723, 819.138 516.809, 816.929 521.139 C 815.868 523.219, 815 525.603, 815 526.436 C 815 527.270, 813.423 528.761, 811.495 529.750 C 809.567 530.739, 806.223 533.687, 804.064 536.300 C 799.067 542.346, 797.766 549.585, 800.657 555.252 C 809.908 573.386, 810.191 573.801, 815.894 577.599 C 826.921 584.941, 828.618 586, 829.359 586 C 829.772 586, 832.119 586.915, 834.574 588.034 C 837.030 589.152, 840.943 590.489, 843.269 591.004 C 845.596 591.520, 850.425 592.649, 854 593.514 C 874.470 598.468, 899.720 596.982, 932.820 588.876 C 945.551 585.758, 956.402 581.459, 955.445 579.911 C 955.178 579.479, 956.893 577.794, 959.257 576.167 C 961.622 574.540, 965.922 570.575, 968.815 567.355 L 974.073 561.500 973.459 555 C 972.967 549.789, 972.373 548.120, 970.463 546.585 C 967.713 544.374, 961.496 542.037, 958.307 542.015 C 955.797 541.998, 949 538.257, 949 536.893 C 949 536.065, 946.786 533.406, 933.874 518.729 C 931.566 516.104, 928.512 513.675, 927.089 513.330 C 925.665 512.985, 922.860 511.420, 920.856 509.851 C 918.852 508.283, 916.714 507, 916.106 507 C 915.498 507, 915 506.550, 915 506 C 915 504.599, 910.651 504.749, 909.200 506.200 C 908.540 506.860, 908 509.195, 908 511.390 C 908 518.666, 905.730 527.131, 903.362 528.682 C 901.908 529.635, 896.920 530.315, 888.462 530.715 C 875.883 531.309, 875.727 531.290, 873.896 528.908 C 872.878 527.584, 872.034 525.545, 872.022 524.377 C 871.998 522.034, 869.476 515.775, 864.735 506.289 C 862.187 501.191, 861.081 499.958, 858.565 499.411 C 856.879 499.044, 852.854 497.901, 849.620 496.872 C 844.189 495.143, 834.131 494.545, 829.750 495.689" stroke="#f2823b" fill="#f2823b" fill-opacity="0.2" fill-rule="evenodd"/><path class="svg-region-PF" d="M 774.476 457.039 C 774.163 457.545, 774.411 458.900, 775.027 460.050 C 775.979 461.830, 775.732 462.497, 773.369 464.528 C 771.842 465.841, 769.706 467.046, 768.624 467.207 C 762.543 468.112, 767.671 471.071, 786.500 477.521 C 795.913 480.746, 808.313 487.141, 812.373 490.865 C 813.953 492.314, 815.868 494.954, 816.628 496.730 C 817.389 498.507, 819.117 500.686, 820.469 501.571 C 822.816 503.109, 823.039 503.061, 825.409 500.503 C 826.775 499.030, 828.057 497.328, 828.259 496.722 C 828.766 495.202, 840.614 494.611, 845.500 495.861 C 862.387 500.183, 861.635 499.811, 864.146 505.100 C 865.425 507.795, 866.928 509.982, 867.486 509.961 C 868.044 509.940, 870.009 507.872, 871.853 505.366 C 875.353 500.611, 881.426 497.061, 886.128 497.022 C 887.573 497.010, 890.371 497.675, 892.346 498.500 C 894.320 499.325, 898.711 500, 902.103 500 C 907.176 500, 908.664 500.399, 910.487 502.250 C 913.953 505.770, 919.877 510.053, 924.762 512.572 C 926.928 513.689, 934.700 512.003, 938.177 509.662 C 940.005 508.431, 942.462 505.400, 943.638 502.927 C 944.814 500.454, 946.389 497.963, 947.138 497.391 C 948.945 496.011, 965.904 490.971, 968.685 490.987 C 969.887 490.994, 972.137 490.494, 973.685 489.876 C 975.233 489.258, 979.411 487.996, 982.968 487.071 C 988.195 485.711, 989.540 484.948, 989.979 483.091 C 990.306 481.702, 992.298 479.811, 995.011 478.312 C 997.480 476.947, 1000.594 474.764, 1001.931 473.461 C 1004.058 471.389, 1004.216 470.770, 1003.194 468.526 C 1002.551 467.115, 1000.782 465.480, 999.262 464.893 C 995.780 463.548, 988.423 464.488, 985.065 466.707 C 983.654 467.640, 980.475 468.702, 978 469.067 C 975.525 469.433, 970.818 470.468, 967.540 471.366 C 964.262 472.265, 959.184 473, 956.255 473 C 953.102 473, 949.953 473.640, 948.536 474.568 C 946.466 475.924, 942.989 476.057, 922.821 475.548 C 909.995 475.225, 893.200 474.824, 885.500 474.658 C 867.215 474.263, 841.872 471.620, 830.236 468.894 C 822.995 467.198, 819.035 466.835, 812.108 467.230 C 803.549 467.718, 803.146 467.643, 800.372 465.053 C 795.390 460.400, 792.630 459.089, 786.480 458.453 C 783.191 458.113, 779.272 457.449, 777.772 456.977 C 776.173 456.474, 774.809 456.500, 774.476 457.039" stroke="#faaaaa" fill="#faaaaa" fill-opacity="0.2" fill-rule="evenodd"/><path class="svg-region-APB" d="M 879.376 498.917 C 874.922 500.939, 868 509.012, 868 512.184 C 868 513.226, 868.900 515.844, 870 518 C 871.100 520.156, 872 522.817, 872 523.913 C 872 525.009, 872.522 527.052, 873.161 528.453 C 874.281 530.911, 874.638 531, 883.411 530.994 C 891.792 530.989, 903.669 529.664, 904.715 528.618 C 904.959 528.375, 905.836 525.202, 906.665 521.568 C 908.123 515.175, 908.105 514.904, 906.116 513.230 C 904.986 512.279, 902.809 509.088, 901.280 506.140 C 898.866 501.486, 897.842 500.531, 893.500 498.891 C 887.274 496.538, 884.602 496.543, 879.376 498.917" stroke="#ac7444" fill="#ac7444" fill-opacity="0.2" fill-rule="evenodd"/><path class="svg-region-DB" d="M 725 262.051 C 716.053 262.856, 706.500 266.848, 705.427 270.231 C 705.118 271.204, 704.282 272, 703.569 272 C 702.855 272, 701 273.913, 699.444 276.250 C 696.479 280.708, 688.404 289, 687.030 289 C 686.589 289, 685.526 290.479, 684.669 292.286 C 683.811 294.093, 681.847 296.777, 680.305 298.250 C 667.623 310.359, 660.811 323.272, 657.490 341.500 C 655.118 354.515, 655.255 354.260, 644.216 366.280 C 643.822 366.709, 640.575 369.327, 637 372.098 C 633.425 374.870, 628.322 379.202, 625.660 381.725 C 620.915 386.223, 620.833 386.403, 621.477 390.906 C 622.447 397.697, 627.210 406.430, 630.139 406.791 C 631.438 406.951, 634.857 408.281, 637.737 409.746 L 642.975 412.409 645.715 410.363 C 647.222 409.238, 648.731 406.969, 649.068 405.321 C 649.942 401.050, 650.804 400, 653.438 400 C 655.860 400, 656.682 398.557, 658.860 390.477 C 659.633 387.608, 661.889 384.527, 666.722 379.740 C 674.989 371.553, 678.928 368.593, 685.736 365.454 C 691.533 362.781, 698.594 356.126, 701.180 350.897 C 705.096 342.981, 710.012 332.121, 711.996 327 C 714.052 321.694, 718.225 314.570, 720.490 312.500 C 721.091 311.950, 722.415 309.725, 723.431 307.556 C 724.446 305.388, 726.753 302.013, 728.557 300.056 C 733.290 294.924, 736 291.331, 736 290.186 C 736 289.637, 738.261 287.563, 741.024 285.578 C 747.243 281.110, 749.991 276.766, 749.996 271.396 C 750.002 264.853, 747.013 262.393, 738.435 261.881 C 734.621 261.653, 728.575 261.730, 725 262.051" stroke="#e8b1e4" fill="#e8b1e4" fill-opacity="0.2" fill-rule="evenodd"/><path class="svg-region-SB" d="M 820.235 767.512 C 811.982 770.512, 806.164 775.116, 801.152 782.613 C 794.860 792.025, 791.412 800.549, 789.498 811.426 C 787.402 823.338, 787.957 830.919, 791.467 838.339 C 794.384 844.504, 797.639 847.608, 803.270 849.595 C 807.005 850.913, 807.928 850.851, 814.421 848.850 C 822.176 846.459, 828.984 843.373, 829.028 842.230 C 829.044 841.828, 831.150 839.250, 833.710 836.500 C 836.863 833.111, 840.368 827.311, 844.587 818.500 C 853.288 800.327, 855.241 789.793, 851.817 779.500 C 849.824 773.507, 844.388 767, 841.374 767 C 840.618 767, 840 766.550, 840 766 C 840 764.115, 826.805 765.124, 820.235 767.512" stroke="#d2e400" fill="#d2e400" fill-opacity="0.2" fill-rule="evenodd"/><path class="svg-region-Ol" d="M 473.500 406.688 C 468.596 407.612, 462.408 409.381, 461.411 410.144 C 460.812 410.603, 456.762 411.689, 452.411 412.558 C 432.809 416.474, 412.517 428.107, 410.371 436.660 C 410.048 437.947, 409.382 439, 408.892 439 C 408.401 439, 408 439.442, 408 439.982 C 408 440.523, 406.140 444.004, 403.866 447.718 C 399.579 454.722, 395 465.667, 395 468.909 C 395 469.933, 394.361 472.004, 393.579 473.510 C 392.176 476.214, 392.092 488.722, 393.462 490.938 C 393.797 491.481, 394.517 497.004, 395.061 503.212 C 395.991 513.826, 397.740 525.125, 401.527 545 C 403.570 555.717, 409.809 580.998, 410.913 583.033 C 411.371 583.876, 412.063 586.126, 412.451 588.033 C 413.352 592.462, 425.207 627.844, 429.528 639 C 431.338 643.675, 434.003 650.875, 435.449 655 C 437.869 661.901, 445.466 681.386, 448.511 688.500 C 449.217 690.150, 451.032 694.650, 452.545 698.500 C 454.058 702.350, 456.641 708.425, 458.286 712 C 459.931 715.575, 462.292 721.051, 463.532 724.168 C 464.772 727.285, 468.085 733.256, 470.894 737.437 C 473.702 741.618, 476 745.439, 476 745.928 C 476 747.182, 489.671 762.892, 493.903 766.500 C 495.838 768.150, 499.955 771.862, 503.051 774.750 C 506.147 777.638, 509.203 780, 509.840 780 C 510.478 780, 511 780.370, 511 780.823 C 511 783.232, 526.458 788.208, 538.500 789.675 C 548.448 790.886, 562.514 791.108, 566.455 790.116 C 568.808 789.523, 572.931 788.780, 575.617 788.465 C 589.931 786.786, 608.233 780.022, 619.691 772.178 C 626.600 767.448, 644.088 749.617, 656.161 734.992 C 660.925 729.221, 666.311 722.991, 668.130 721.147 C 669.950 719.303, 672.408 716.480, 673.594 714.873 C 675.329 712.521, 690.851 702, 692.587 702 C 694.097 702, 721.628 687.630, 722.251 686.516 C 722.670 685.768, 724.602 684.173, 726.545 682.972 C 728.902 681.516, 731.107 678.743, 733.168 674.644 C 734.867 671.265, 736.591 668.275, 736.998 668 C 737.405 667.725, 738.977 665.025, 740.493 662 C 742.008 658.975, 747.375 650.875, 752.420 644 C 763.448 628.971, 766.242 624.532, 772.879 611.500 C 780.170 597.182, 781.261 592.824, 781.390 577.500 L 781.500 564.500 775.926 553 C 771.203 543.258, 769.293 540.472, 763.426 534.772 C 759.616 531.071, 754.289 526.571, 751.587 524.772 C 748.886 522.972, 744.836 520.273, 742.587 518.774 C 737.121 515.129, 682.431 488, 680.549 488 C 680.223 488, 676.097 486.200, 671.379 484 C 666.661 481.800, 662.102 480, 661.248 480 C 660.393 480, 656.816 478.640, 653.299 476.978 C 646.006 473.533, 639.197 471.039, 637 471.008 C 636.175 470.997, 634.299 470.361, 632.832 469.596 C 631.364 468.830, 628.340 467.895, 626.111 467.519 C 623.882 467.142, 620.962 465.971, 619.622 464.917 C 618.281 463.863, 616.806 463.001, 616.342 463.003 C 615.879 463.004, 613.700 462.137, 611.500 461.075 C 609.300 460.014, 604.575 457.967, 601 456.527 C 591.238 452.596, 577.902 445.510, 564.500 437.134 C 557.900 433.008, 552.275 429.312, 552 428.920 C 551.725 428.527, 547.900 425.975, 543.500 423.247 C 537.485 419.519, 533.515 417.864, 527.500 416.578 C 523.100 415.638, 518.230 414.475, 516.677 413.994 C 515.125 413.512, 513.262 413.346, 512.539 413.624 C 510.758 414.307, 500.342 412.421, 490 409.544 C 480.263 406.834, 476.334 406.154, 473.500 406.688" stroke="#aa444d" fill="#aa444d" fill-opacity="0.2" fill-rule="evenodd"/><path class="svg-region-Or" d="M 1255.668 405.666 C 1255.515 405.818, 1250.465 406.009, 1244.445 406.089 C 1234.828 406.218, 1233.136 406.506, 1230.500 408.463 C 1228.850 409.687, 1226.988 410.871, 1226.362 411.094 C 1224.684 411.692, 1216 424.745, 1216 426.669 C 1216 430.757, 1197.177 447, 1192.440 447 C 1190.483 447, 1180 452.952, 1180 454.063 C 1180 456.072, 1155.508 470, 1151.977 470 C 1151.401 470, 1149.933 470.638, 1148.715 471.418 C 1147.497 472.197, 1143.046 473.983, 1138.825 475.385 C 1131.687 477.757, 1119.458 483.627, 1116 486.340 C 1115.175 486.987, 1112.700 488.413, 1110.501 489.509 C 1108.302 490.604, 1104.027 493.122, 1101.001 495.104 C 1097.975 497.087, 1092.125 500.384, 1088 502.432 C 1083.875 504.480, 1079.600 506.653, 1078.500 507.262 C 1073.711 509.912, 1062.866 515, 1062.004 515 C 1061.115 515, 1056.259 517.224, 1049.500 520.727 C 1046.475 522.294, 1037.561 528.924, 1026.500 537.832 C 1021.455 541.895, 1002.281 560.493, 997.264 566.190 C 995.384 568.326, 992.467 579.196, 991.094 589.184 C 990.150 596.058, 990.245 597.322, 991.997 601.184 C 993.075 603.558, 993.966 606.226, 993.978 607.114 C 994.019 610.128, 1000.961 629.455, 1002.986 632.194 C 1004.094 633.693, 1005 635.318, 1005 635.806 C 1005 636.880, 1017.511 649.285, 1021.007 651.678 C 1022.378 652.616, 1023.725 653.635, 1024 653.942 C 1024.275 654.249, 1027.200 656.291, 1030.500 658.479 C 1038.677 663.901, 1049.057 672.150, 1053.455 676.719 C 1055.456 678.799, 1061.498 686.358, 1066.882 693.519 C 1074.963 704.266, 1077.877 707.339, 1083.585 711.132 C 1090.773 715.907, 1099.183 720.924, 1106.333 724.701 C 1108.625 725.911, 1115.450 731.210, 1121.500 736.476 C 1132.199 745.788, 1136.329 748.294, 1154.500 756.494 C 1164.183 760.864, 1183.817 765.750, 1186.167 764.375 C 1186.533 764.161, 1189.908 763.753, 1193.667 763.470 C 1197.425 763.186, 1204.775 762.244, 1210 761.377 C 1215.225 760.509, 1226.618 759.629, 1235.317 759.420 C 1249.907 759.071, 1256.313 758.253, 1261.500 756.078 C 1262.600 755.617, 1265.525 754.406, 1268 753.387 C 1270.475 752.369, 1273.095 750.965, 1273.821 750.268 C 1274.548 749.570, 1275.754 749, 1276.500 749 C 1277.246 749, 1278.452 748.438, 1279.179 747.750 C 1279.905 747.063, 1284.730 744.326, 1289.900 741.669 C 1303.092 734.890, 1308.978 730.105, 1316.376 720.149 C 1323.497 710.565, 1333 695.324, 1333 693.488 C 1333 692.838, 1333.845 691.331, 1334.879 690.140 C 1335.912 688.949, 1338.184 684.267, 1339.928 679.737 C 1342.756 672.388, 1346.348 663.412, 1350.625 653 C 1352.042 649.550, 1354.348 641.841, 1356.009 635 C 1356.476 633.075, 1358.038 627.225, 1359.479 622 C 1360.921 616.775, 1362.731 609.680, 1363.502 606.233 C 1364.272 602.787, 1365.127 599.604, 1365.401 599.160 C 1366.471 597.429, 1368.998 583.262, 1368.999 578.993 C 1369 576.515, 1369.466 572.915, 1370.036 570.993 C 1370.606 569.072, 1371.689 564.575, 1372.442 561 C 1373.994 553.630, 1380.381 529.278, 1381.360 527 C 1382.994 523.194, 1384.871 502.435, 1384.569 491.500 C 1384.284 481.167, 1383.823 478.366, 1381.251 471.340 C 1379.608 466.851, 1377.304 461.832, 1376.132 460.185 C 1374.959 458.539, 1374 456.807, 1374 456.337 C 1374 454.965, 1362.177 437.978, 1359.730 435.834 C 1356.355 432.877, 1350.049 430.203, 1343.962 429.147 C 1331.141 426.924, 1311.083 420.691, 1301.500 415.952 C 1294.463 412.472, 1283.150 409.150, 1274 407.878 C 1258.126 405.669, 1255.929 405.404, 1255.668 405.666" stroke="#aa444d" fill="#aa444d" fill-opacity="0.2" fill-rule="evenodd"/><path class="svg-region-OGl" d="M 574.884 382.273 C 569.655 385.147, 566.667 388.517, 562.354 396.404 C 560.037 400.639, 559 405.821, 559 413.158 C 559 420.293, 559.197 420.950, 562.888 426.104 C 568.663 434.169, 573.292 436.150, 586.799 436.338 C 602.094 436.551, 604.806 435.706, 613.586 428 L 620.991 421.500 620.544 416 C 619.416 402.108, 614.932 389.953, 608.882 384.391 C 605.859 381.613, 604.470 381.161, 595.808 380.141 C 582.650 378.592, 581.336 378.726, 574.884 382.273" stroke="#d66e9d" fill="#d66e9d" fill-opacity="0.2" fill-rule="evenodd"/><path class="svg-region-OGr" d="M 1178.435 402.328 C 1172.374 405.210, 1166.857 409.877, 1163.950 414.581 C 1162.213 417.392, 1161.916 419.073, 1162.328 423.761 C 1163.220 433.891, 1164.041 435.951, 1169.533 441.839 L 1174.812 447.500 1184.156 447.318 C 1195.917 447.090, 1200.366 445.009, 1209.486 435.477 C 1216.553 428.090, 1217.485 425.195, 1214.340 420.396 C 1213.427 419.002, 1212.313 415.541, 1211.864 412.704 C 1210.595 404.678, 1204.175 400.749, 1191.500 400.240 C 1184.700 399.967, 1182.740 400.280, 1178.435 402.328" stroke="#d66e9d" fill="#d66e9d" fill-opacity="0.2" fill-rule="evenodd"/><path class="svg-region-OVl" d="M 769.962 472.975 C 771.866 474.639, 773.827 476, 774.318 476 C 775.166 476, 782.936 481.705, 784 483.108 C 784.275 483.471, 787.469 485.110, 791.098 486.752 C 797.294 489.555, 797.765 490.004, 798.829 494.118 C 799.582 497.029, 801.514 500.100, 804.582 503.265 L 809.202 508.030 812.636 505.015 C 816.284 501.812, 818.843 501.243, 820.800 503.200 C 821.693 504.093, 822 504.102, 822 503.235 C 822 502.595, 821.099 501.588, 819.998 500.999 C 818.897 500.410, 817.378 498.482, 816.622 496.714 C 814.829 492.524, 810.817 488.908, 803.941 485.284 C 800.883 483.672, 797.733 481.950, 796.941 481.456 C 796.148 480.962, 790.775 478.911, 785 476.899 C 779.225 474.887, 772.700 472.500, 770.500 471.596 L 766.500 469.950 769.962 472.975 M 804.009 531.848 C 797.735 537.326, 790.892 538.742, 781.750 536.455 C 776.817 535.221, 778.567 538.507, 788.183 548.529 C 793.234 553.794, 798.192 559.946, 799.201 562.200 C 801.081 566.398, 805.536 570.997, 807.727 570.999 C 808.434 570.999, 806.820 566.907, 803.924 561.354 C 799.147 552.195, 798.927 551.434, 799.568 546.303 C 800.247 540.864, 803.840 535.151, 809.333 530.772 L 811.500 529.044 809.386 529.022 C 808.223 529.010, 805.803 530.282, 804.009 531.848" stroke="#593939" fill="#593939" fill-opacity="0.2" fill-rule="evenodd"/><path class="svg-region-OVr" d="M 979.896 487.511 C 977.364 488.205, 974.356 489.274, 973.212 489.886 C 972.068 490.499, 970.089 491, 968.816 491 C 965.735 490.999, 948.879 495.944, 947.087 497.373 C 946.311 497.993, 944.864 500.328, 943.874 502.562 C 941.583 507.727, 936.581 511.841, 932.264 512.110 C 931.294 512.170, 932.423 512.598, 934.773 513.061 C 937.124 513.525, 939.743 514.600, 940.595 515.452 C 943.010 517.867, 949.401 517.349, 955.283 514.262 C 958.152 512.755, 963.414 510.376, 966.975 508.975 C 973.086 506.570, 973.780 505.950, 979.293 497.963 C 982.506 493.308, 985.571 488.712, 986.103 487.750 C 987.240 485.693, 986.612 485.669, 979.896 487.511 M 901.119 505.727 C 906.120 515.234, 907.692 516.244, 908.190 510.273 C 908.408 507.648, 909.136 506.231, 910.652 505.480 L 912.804 504.413 910.511 502.207 C 908.763 500.524, 907.017 500, 903.162 500 L 898.107 500 901.119 505.727 M 1024.063 525.287 C 1017.395 529.698, 1013.298 532.021, 1002.144 537.709 C 995.899 540.894, 988.924 544.462, 986.644 545.637 C 983.425 547.297, 981.361 547.660, 977.398 547.262 L 972.297 546.751 973.159 553.054 C 973.633 556.522, 973.789 560.090, 973.505 560.985 C 972.660 563.646, 961.759 574.685, 958.250 576.433 C 954.824 578.139, 953.937 580, 956.550 580 C 958.443 580, 963.887 577.255, 965.812 575.331 C 966.587 574.556, 969.376 572.830, 972.010 571.495 C 980.064 567.413, 985.709 563.160, 990.479 557.576 C 992.986 554.642, 1000.746 547.574, 1007.725 541.870 C 1023.358 529.092, 1028.649 524.316, 1027.948 523.614 C 1027.651 523.317, 1025.902 524.070, 1024.063 525.287" stroke="#593939" fill="#593939" fill-opacity="0.2" fill-rule="evenodd"/>
    </svg>