<svg xmlns="http://www.w3.org/2000/svg" width="1785" height="1131" viewBox="0 0 1785 1131" version="1.1">
    <path class="svg-region-V" d="M 782.500 267 C 780.739 267.757, 780.834 267.868, 783.300 267.930 C 785.881 267.995, 792 270.490, 792 271.479 C 792 273.660, 788.692 277.733, 783.793 281.582 C 780.539 284.138, 776.706 287.998, 775.276 290.158 L 772.677 294.087 774.515 301.803 L 776.353 309.519 780.114 309.160 C 786.509 308.551, 797.037 311.734, 801 315.475 C 806.494 320.662, 810.062 321.949, 821.725 322.951 C 827.651 323.460, 835.650 324.567, 839.500 325.411 C 843.350 326.255, 850.888 327.496, 856.250 328.170 C 862.205 328.918, 866 329.841, 866 330.542 C 866 331.173, 864.843 332.996, 863.429 334.594 C 858.242 340.457, 857.327 347.414, 861.533 349.013 C 863.114 349.614, 864.712 349.624, 865.783 349.041 C 866.727 348.527, 872.011 345.903, 877.525 343.211 C 887.029 338.571, 887.731 338.382, 891.025 339.576 C 892.936 340.269, 898.938 342.448, 904.362 344.418 C 909.786 346.388, 914.385 348, 914.582 348 C 914.779 348, 914.841 346.313, 914.720 344.250 L 914.500 340.500 922.500 340.186 C 926.900 340.013, 932.204 340.374, 934.287 340.987 C 937.156 341.832, 938.900 341.804, 941.478 340.872 C 944.232 339.876, 945.678 339.904, 949.054 341.018 C 952.842 342.268, 953.561 342.215, 956.863 340.447 C 959.704 338.926, 960.567 337.805, 960.808 335.324 C 960.977 333.578, 961.652 331.733, 962.308 331.225 C 964.138 329.806, 984.988 325.594, 989.500 325.732 C 996.575 325.947, 1005.437 327.546, 1007.729 329.021 C 1009.612 330.232, 1010.465 330.249, 1013.229 329.126 C 1019.335 326.646, 1021 326.568, 1021 328.761 C 1021 329.858, 1020.325 331.315, 1019.500 332 C 1017.333 333.799, 1017.657 335.913, 1020.250 336.894 C 1024.919 338.659, 1029.701 340, 1031.325 340 C 1033.660 340, 1047.911 347.738, 1051.227 350.807 C 1054.655 353.978, 1055.674 357.347, 1056.388 367.871 C 1056.700 372.475, 1057.368 376.750, 1057.871 377.371 C 1058.373 377.992, 1059.546 381.236, 1060.477 384.581 C 1062.031 390.167, 1062.040 390.969, 1060.584 394.453 C 1058.761 398.815, 1058.393 413.997, 1060.035 417.066 C 1060.903 418.687, 1062.171 419, 1067.876 419 C 1071.619 419, 1076.891 418.330, 1079.591 417.511 C 1085.221 415.803, 1086.957 415.686, 1088.853 416.888 C 1089.982 417.603, 1089.986 418.140, 1088.879 420.123 C 1088.149 421.430, 1087.459 423.461, 1087.345 424.636 C 1087.019 427.993, 1079.685 441.726, 1073.571 450.428 C 1070.507 454.789, 1068 458.726, 1068 459.178 C 1068 459.630, 1070.238 460, 1072.974 460 C 1077.471 460, 1078.095 460.283, 1079.474 462.950 C 1081.502 466.871, 1081.368 471.593, 1079.087 476.616 C 1078.059 478.880, 1076.890 482.222, 1076.490 484.043 C 1076.090 485.865, 1074.523 489.413, 1073.008 491.927 C 1070.425 496.216, 1068.159 506.038, 1069.769 505.968 C 1071.110 505.910, 1074 503.295, 1074 502.140 C 1074 501.513, 1074.359 501, 1074.799 501 C 1075.238 501, 1077.376 499.313, 1079.551 497.250 C 1081.725 495.188, 1086.541 491.059, 1090.252 488.075 C 1093.964 485.092, 1097 482.039, 1097 481.291 C 1097 479.694, 1108.396 468.819, 1114.595 464.500 C 1119.211 461.284, 1132.142 451.287, 1135.603 448.258 C 1139.260 445.057, 1139.977 442.618, 1139.395 435.366 C 1138.813 428.136, 1137.412 424, 1135.542 424 C 1134.927 424, 1132.677 423.110, 1130.543 422.022 C 1128.409 420.934, 1125.269 419.584, 1123.565 419.022 C 1121.547 418.356, 1119.334 416.268, 1117.216 413.032 C 1115.427 410.301, 1112.172 406.625, 1109.982 404.865 C 1107.392 402.784, 1106 400.850, 1106 399.333 C 1106 397.041, 1103.508 395.986, 1102.833 397.992 C 1102.650 398.538, 1099.631 399.100, 1096.124 399.242 L 1089.747 399.500 1088.372 395.500 C 1087.615 393.300, 1086.557 390.600, 1086.021 389.500 C 1085.484 388.400, 1084.329 385.250, 1083.453 382.500 C 1082.577 379.750, 1080.317 374.509, 1078.430 370.854 C 1076.544 367.198, 1075 363.293, 1075 362.175 C 1075 361.057, 1074.325 359.468, 1073.500 358.643 C 1072.675 357.818, 1071.997 356.548, 1071.993 355.821 C 1071.987 354.513, 1065.721 344.429, 1061.108 338.301 C 1059.792 336.554, 1056.499 334.171, 1053.791 333.005 C 1049.423 331.126, 1048.279 331.015, 1043.683 332.020 C 1036.213 333.653, 1025.002 332.967, 1023.637 330.793 C 1022.743 329.370, 1023.620 328.122, 1028.910 323.293 C 1032.400 320.107, 1036.050 317.115, 1037.022 316.644 C 1038.538 315.910, 1037.989 315.080, 1033.144 310.779 C 1021.946 300.840, 1019.338 298.037, 1016.590 292.989 C 1014.634 289.394, 1013.916 286.842, 1014.194 284.465 C 1014.861 278.754, 1013.408 278.545, 972 278.380 C 951.925 278.301, 930.775 277.747, 925 277.149 C 909.744 275.570, 882.331 274.094, 860.277 273.665 C 846.796 273.402, 840.602 272.915, 839.540 272.033 C 838.707 271.342, 837.371 271.027, 836.571 271.334 C 835.771 271.641, 832.053 270.996, 828.309 269.902 C 822.719 268.267, 818.412 267.901, 804.247 267.856 C 794.759 267.826, 786.745 267.396, 786.438 266.900 C 785.781 265.836, 785.172 265.852, 782.500 267 M 679.750 383.615 C 676.799 385.170, 676.238 386.549, 678.250 387.300 C 679.032 387.592, 678.751 388.025, 677.500 388.456 C 673.407 389.865, 672.421 390.871, 668.050 398.102 C 665.589 402.171, 662.772 406.372, 661.788 407.439 C 660.805 408.505, 660 410.612, 660 412.120 C 660 414.011, 659.092 415.511, 657.076 416.946 C 655.467 418.092, 653.858 420.369, 653.497 422.014 C 652.740 425.460, 652.329 425.608, 649.823 423.339 C 647.563 421.295, 647.407 421.467, 646.734 426.742 C 646.219 430.780, 646.393 431.140, 650.346 434.218 C 652.631 435.996, 657.650 440.275, 661.500 443.728 C 665.350 447.180, 668.849 449.993, 669.276 449.978 C 669.702 449.964, 671.104 451.088, 672.390 452.476 C 673.677 453.864, 675.128 455.005, 675.615 455.011 C 676.102 455.017, 678.300 456.717, 680.500 458.789 C 682.700 460.862, 686.870 464.276, 689.767 466.376 C 692.664 468.477, 695.492 471.051, 696.052 472.098 C 696.612 473.144, 697.756 474, 698.594 474 C 699.432 474, 699.882 474.382, 699.593 474.849 C 699.304 475.316, 700.216 476.313, 701.619 477.063 C 703.021 477.814, 705.061 479.682, 706.152 481.214 C 707.244 482.746, 708.668 483.996, 709.318 483.991 C 709.968 483.986, 711.725 485.449, 713.223 487.241 C 717.045 491.815, 716.882 488.601, 712.917 481.231 C 710.281 476.331, 709.891 474.683, 710.223 469.864 C 710.571 464.811, 711.041 463.803, 714.767 460.114 C 717.052 457.851, 719.363 456, 719.902 456 C 721.979 456, 721.860 454.083, 719.475 449.141 C 716.601 443.182, 716.145 434.553, 718.469 430.060 C 719.277 428.498, 720.367 424.583, 720.891 421.360 C 721.815 415.677, 721.763 415.440, 719.172 413.510 C 717.702 412.415, 713.699 409.040, 710.275 406.010 C 706.851 402.979, 702.694 399.375, 701.036 398 C 699.378 396.625, 697.756 394.694, 697.431 393.709 C 697.105 392.724, 695.490 391.648, 693.840 391.318 C 692.191 390.988, 690.318 389.882, 689.680 388.859 C 689.041 387.837, 687.831 387, 686.991 387 C 686.151 387, 684.797 385.912, 683.982 384.583 C 682.590 382.312, 682.333 382.253, 679.750 383.615" stroke="#dd8a8a" fill="#dd8a8a" fill-opacity="0.2" fill-rule="evenodd"/><path class="svg-region-SV" d="M 776 309.956 C 775.175 310.513, 773.708 310.976, 772.739 310.985 C 769.334 311.014, 762.441 315.063, 756.750 320.376 C 753.587 323.329, 751 326.182, 751 326.717 C 751 327.252, 750.100 328.505, 749 329.500 C 747.900 330.495, 747 331.863, 747 332.538 C 747 333.214, 745.020 335.281, 742.600 337.133 C 740.180 338.985, 737.367 342.054, 736.350 343.953 C 734.035 348.275, 730.128 353, 728.869 353 C 728.345 353, 727.372 353.471, 726.708 354.047 C 726.044 354.623, 723.025 356.752, 720 358.778 L 714.500 362.461 698.160 362.981 L 681.820 363.500 679.374 366.348 C 676.657 369.511, 676.741 370.294, 680.709 378.786 C 682.067 381.693, 684.376 384.835, 685.839 385.768 C 687.303 386.702, 689.088 388.261, 689.807 389.233 C 690.525 390.205, 691.869 391, 692.792 391 C 693.716 391, 696.503 393.060, 698.986 395.577 C 701.469 398.095, 707.597 403.744, 712.604 408.130 L 721.708 416.105 720.763 421.301 C 720.244 424.159, 719.185 428.015, 718.410 429.871 C 716.062 435.490, 716.604 443.689, 719.733 449.873 L 722.466 455.275 733.254 454.706 C 743.047 454.189, 744.710 454.369, 751.271 456.654 C 755.247 458.038, 759.321 459.907, 760.323 460.807 C 761.561 461.917, 764.452 462.546, 769.323 462.763 C 775.159 463.023, 776.126 462.865, 774.500 461.919 C 770.380 459.520, 766.076 453.586, 766.038 450.250 C 766.017 448.462, 766.227 447, 766.505 447 C 766.783 447, 769.342 448.125, 772.192 449.500 C 775.042 450.875, 779.042 452, 781.080 452 C 783.118 452, 790.796 453.334, 798.143 454.964 C 805.489 456.594, 814.875 458.671, 819 459.579 C 823.125 460.487, 829.021 462.078, 832.103 463.115 C 835.184 464.152, 839.427 465, 841.532 465 C 843.636 465, 846.740 465.428, 848.429 465.951 C 862.114 470.187, 882.099 472.207, 912 472.378 C 926.362 472.460, 949.631 470.763, 957.096 469.091 C 959.691 468.509, 970.699 468.244, 983.051 468.466 L 1004.500 468.852 1004.500 472.676 C 1004.500 476.478, 1004.464 476.512, 998.235 478.598 C 994.789 479.753, 991.639 481.041, 991.235 481.463 C 989.844 482.912, 999.519 480.790, 1009.500 477.456 C 1015 475.619, 1021.975 473.801, 1025 473.416 C 1032.214 472.498, 1033.722 471.884, 1041.737 466.607 C 1045.457 464.158, 1051 461.220, 1054.056 460.078 C 1059.129 458.182, 1066.867 452.075, 1069.500 447.888 C 1070.863 445.722, 1076.672 437.838, 1078.232 436.037 C 1080.635 433.266, 1084.587 427.487, 1087.403 422.629 C 1089.676 418.708, 1089.960 417.589, 1088.863 416.894 C 1086.956 415.686, 1085.227 415.801, 1079.591 417.511 C 1076.891 418.330, 1071.619 419, 1067.876 419 C 1062.171 419, 1060.903 418.687, 1060.035 417.066 C 1058.442 414.088, 1058.787 399.982, 1060.582 394.715 C 1062.035 390.449, 1062.027 389.604, 1060.487 384.286 C 1059.565 381.104, 1058.406 378.008, 1057.912 377.406 C 1057.418 376.804, 1056.628 371.755, 1056.157 366.187 C 1055.134 354.081, 1053.154 350.429, 1045.512 346.543 C 1042.755 345.142, 1038.925 343.125, 1037 342.062 C 1035.075 340.998, 1030.800 339.575, 1027.500 338.899 C 1018.082 336.970, 1015.841 335.037, 1019.500 332 C 1021.424 330.403, 1021.447 327, 1019.534 327 C 1018.728 327, 1016.511 327.742, 1014.609 328.649 C 1011.395 330.182, 1010.904 330.182, 1007.674 328.649 C 1005.762 327.742, 1002.743 327, 1000.965 327 C 999.187 327, 996.008 326.483, 993.900 325.852 C 990.631 324.873, 988.113 325.119, 976.784 327.528 C 969.478 329.082, 962.938 330.779, 962.250 331.299 C 961.563 331.819, 961 333.546, 961 335.137 C 961 337.327, 960.211 338.511, 957.750 340.011 C 954.145 342.209, 950.485 342.593, 949.429 340.885 C 948.977 340.154, 947.145 340.009, 944.120 340.463 C 941.579 340.845, 938.600 341.092, 937.500 341.012 C 936.400 340.932, 930.775 340.784, 925 340.683 L 914.500 340.500 914.732 344.350 C 914.930 347.642, 914.712 348.101, 913.232 347.519 C 912.279 347.145, 909.475 346.147, 907 345.302 C 904.525 344.457, 899.192 342.455, 895.150 340.853 L 887.800 337.941 883.150 340.543 C 875.560 344.790, 864.255 349.174, 861.793 348.825 C 860.112 348.587, 859.413 347.738, 859.173 345.643 C 858.818 342.536, 860.706 337, 862.121 337 C 862.605 337, 863 336.518, 863 335.929 C 863 335.339, 863.675 334.182, 864.500 333.357 C 867.543 330.314, 866.183 329.454, 856.250 328.135 C 850.888 327.422, 843.350 326.164, 839.500 325.339 C 835.650 324.514, 827.651 323.430, 821.725 322.932 C 810.028 321.948, 806.479 320.666, 801 315.444 C 799.020 313.557, 795.545 311.595, 793 310.926 C 786.669 309.262, 777.778 308.755, 776 309.956" stroke="#c666b5" fill="#c666b5" fill-opacity="0.2" fill-rule="evenodd"/><path class="svg-region-SF" d="M 728.840 454.928 L 719.181 455.500 714.905 459.738 C 711.030 463.579, 710.591 464.517, 710.223 469.738 C 709.877 474.645, 710.252 476.323, 712.750 481.050 C 714.363 484.103, 715.961 487.703, 716.301 489.050 C 716.921 491.506, 721.506 495.649, 738.746 509.329 C 747.166 516.011, 748.398 516.667, 752.533 516.667 C 756.333 516.667, 757.681 517.232, 760.787 520.130 C 765.675 524.690, 771.014 527, 776.667 527 C 782.965 527, 784.362 525.094, 785.988 514.290 C 787.907 501.532, 788.625 500.694, 795.250 503.478 C 796.733 504.102, 797 503.653, 797 500.541 C 797 495.217, 795.610 493.347, 789.503 490.458 C 786.509 489.042, 782.808 486.512, 781.279 484.838 C 777.079 480.236, 773.599 477, 772.850 477 C 772.481 477, 770.389 474.166, 768.202 470.702 C 763.821 463.765, 757.904 458, 755.165 458 C 754.194 458, 752.972 457.626, 752.450 457.169 C 751 455.899, 743.567 453.978, 740.884 454.178 C 739.573 454.276, 734.153 454.614, 728.840 454.928 M 1062 463.135 C 1058.975 464.704, 1055.166 467.115, 1053.535 468.494 C 1051.904 469.872, 1049.950 471, 1049.192 471 C 1048.434 471, 1040.994 473.750, 1032.657 477.112 C 1024.321 480.473, 1015.421 483.898, 1012.880 484.722 C 1009.304 485.881, 1007.657 487.174, 1005.593 490.439 C 1002.227 495.765, 996.564 501.158, 991.474 503.886 C 982.239 508.836, 978.599 504.854, 982.654 494.237 C 985.085 487.870, 983.037 486.554, 979.662 492.314 C 975.370 499.638, 974.450 504.646, 976.062 511.914 C 978.201 521.556, 984.260 527.597, 993.692 529.492 C 995.448 529.845, 998.706 531.453, 1000.933 533.067 C 1006.032 536.760, 1010.794 536.884, 1017.797 533.505 C 1024.453 530.295, 1025.566 530.106, 1025.206 532.250 C 1024.845 534.401, 1029.166 534.710, 1030.872 532.654 C 1031.486 531.914, 1033.791 530.496, 1035.994 529.503 C 1038.197 528.509, 1040 527.315, 1040 526.848 C 1040 526.382, 1040.643 526, 1041.429 526 C 1042.214 526, 1043.452 525.416, 1044.179 524.702 C 1044.905 523.989, 1047.645 521.937, 1050.266 520.143 C 1052.888 518.349, 1055.813 516.077, 1056.766 515.094 C 1057.720 514.111, 1060.843 512.010, 1063.707 510.425 C 1068.800 507.606, 1068.928 507.423, 1069.585 502.021 C 1069.962 498.924, 1071.408 494.535, 1072.878 492.026 C 1075.921 486.833, 1079.996 475.998, 1080.734 471.137 C 1081.015 469.287, 1080.668 466.024, 1079.963 463.887 L 1078.680 460 1073.090 460.141 C 1069.096 460.242, 1065.929 461.097, 1062 463.135" stroke="#8c6b55" fill="#8c6b55" fill-opacity="0.2" fill-rule="evenodd"/><path class="svg-region-IF" d="M 923.586 513.448 C 920.648 514.745, 916 521.912, 916 525.146 C 916 527.410, 910.385 532, 907.614 532 C 906.387 532, 904.509 532.645, 903.441 533.433 C 901.885 534.581, 901.748 535.117, 902.750 536.133 C 905.022 538.437, 904.064 539.272, 899.805 538.701 C 897.498 538.391, 894.911 538.511, 894.055 538.966 C 892.043 540.037, 879.435 537.841, 875.370 535.712 C 871.543 533.708, 865.986 531.670, 855.556 528.445 C 851.186 527.094, 847.274 525.444, 846.863 524.778 C 845.730 522.945, 833.311 523.212, 828 525.184 C 825.525 526.102, 820.196 527.851, 816.158 529.069 C 808.102 531.501, 805.548 533.586, 800.934 541.500 C 797.945 546.627, 797.243 551.963, 798.639 558.943 C 799.270 562.098, 804.576 567.066, 817.926 577 C 825.984 582.996, 839.955 589.318, 854.500 593.549 C 871.074 598.370, 871.113 598.375, 890.500 598.368 C 908.845 598.361, 909.913 598.248, 921.500 595.086 C 928.100 593.285, 933.950 591.497, 934.500 591.114 C 935.050 590.731, 937.300 589.816, 939.500 589.081 C 945.829 586.968, 956.190 581.957, 959.583 579.369 C 961.291 578.066, 963.035 577, 963.457 577 C 963.880 577, 966.863 575.313, 970.088 573.250 C 973.959 570.773, 976.140 568.651, 976.509 567 C 976.817 565.625, 977.504 563.118, 978.035 561.429 C 978.566 559.740, 979 556.702, 979 554.679 C 979 551.719, 978.625 551, 977.082 551 C 973.609 551, 971.940 549.804, 969.937 545.877 C 968.210 542.492, 967.516 542, 964.466 542 C 962.545 542, 960.098 542.547, 959.028 543.215 C 957.323 544.279, 956.651 543.940, 953.583 540.465 C 951.658 538.284, 950.065 536.072, 950.042 535.549 C 950.019 535.027, 949.212 531.877, 948.250 528.549 C 946.854 523.722, 945.430 521.439, 941.205 517.250 C 936.276 512.362, 935.586 512.006, 931.205 512.081 C 928.617 512.126, 925.189 512.741, 923.586 513.448" stroke="#f2823b" fill="#f2823b" fill-opacity="0.2" fill-rule="evenodd"/><path class="svg-region-PF" d="M 766 450.334 C 766 453.835, 770.343 459.353, 776.375 463.516 C 782.512 467.750, 790.087 474.765, 794.919 480.686 C 799.426 486.210, 800.460 486.946, 804.577 487.564 C 807.113 487.944, 812.408 487.937, 816.344 487.547 C 830.576 486.139, 830.169 486.068, 832.612 490.400 C 835.139 494.880, 842.337 498.864, 848 498.918 C 852.195 498.958, 859.654 497.396, 862.697 495.842 C 865.425 494.448, 866.062 492.942, 866.864 486 L 867.500 480.500 873.130 480.204 C 878.356 479.929, 879.021 480.154, 882.407 483.348 C 884.413 485.240, 887.559 487.070, 889.398 487.415 C 893.089 488.107, 900.880 486.331, 908.333 483.097 C 910.991 481.944, 913.804 481, 914.583 481 C 916.266 481, 916.451 483.149, 914.902 484.698 C 914.235 485.365, 914.008 487.900, 914.324 491.148 C 915.307 501.252, 915.984 502.831, 921.350 507.525 C 925.986 511.580, 926.947 512, 931.602 512 C 936.109 512, 937.368 511.499, 941.869 507.915 C 945.892 504.712, 947 503.213, 947 500.974 C 947 496.621, 948.808 496.411, 952.840 500.297 C 957.152 504.451, 962.613 506.272, 969.419 505.824 C 974.259 505.505, 974.363 505.428, 975.924 501 C 978.229 494.458, 981.858 488, 983.228 488 C 983.881 488, 986.090 486.365, 988.136 484.367 C 990.501 482.058, 994.160 479.963, 998.178 478.617 C 1004.481 476.506, 1004.500 476.489, 1004.500 472.645 L 1004.500 468.789 983.110 468.447 C 971.166 468.256, 959.464 468.551, 956.610 469.116 C 932.506 473.884, 875.688 473.017, 854.622 467.559 C 849.189 466.152, 842.803 465, 840.431 465 C 838.059 465, 835.884 464.621, 835.598 464.159 C 835.312 463.696, 831.573 462.529, 827.289 461.566 C 823.005 460.603, 818.150 459.429, 816.500 458.957 C 814.850 458.486, 810.125 457.404, 806 456.554 C 801.875 455.703, 795.350 454.331, 791.500 453.504 C 787.651 452.677, 782.926 451.996, 781 451.991 C 779.075 451.986, 775.250 450.875, 772.500 449.522 C 769.750 448.169, 767.163 447.048, 766.750 447.031 C 766.337 447.014, 766 448.500, 766 450.334" stroke="#faaaaa" fill="#faaaaa" fill-opacity="0.2" fill-rule="evenodd"/><path class="svg-region-AAB" d="M 903 521.704 L 897.500 524.244 885 522.979 C 861.377 520.588, 858.399 520.590, 854.496 523.002 C 852.573 524.191, 851 525.520, 851 525.956 C 851 526.392, 855.163 528.155, 860.250 529.873 C 865.337 531.591, 871.247 533.945, 873.383 535.105 C 877.862 537.537, 891.774 540.226, 893.854 539.062 C 894.627 538.629, 897.227 538.497, 899.630 538.768 C 904.052 539.266, 905.028 538.442, 902.750 536.133 C 901.748 535.117, 901.885 534.581, 903.441 533.433 C 904.509 532.645, 906.414 532, 907.675 532 C 911.112 532, 915.805 527.119, 916.568 522.750 L 917.223 519 912.861 519.082 C 910.462 519.127, 906.026 520.306, 903 521.704" stroke="#7f3c1a" fill="#7f3c1a" fill-opacity="0.2" fill-rule="evenodd"/><path class="svg-region-APB" d="M 867.547 481.250 C 867.333 481.938, 866.949 484.666, 866.695 487.312 C 866.076 493.747, 863.420 496.439, 856.278 497.873 C 849.582 499.218, 845.593 499.303, 843.236 498.151 C 836.870 495.040, 835.186 493.746, 832.606 489.986 L 829.712 485.768 825.106 486.596 C 822.573 487.052, 815.775 487.499, 810 487.589 C 804.225 487.679, 799.010 487.808, 798.411 487.876 C 796.512 488.092, 794.878 492.904, 795.995 494.991 C 797.313 497.454, 797.291 504, 795.965 504 C 795.251 504, 795.251 504.601, 795.965 505.934 C 796.534 506.998, 797 510.391, 797 513.474 C 797 520.201, 799.558 525.798, 804.277 529.397 L 807.572 531.911 815.536 529.403 C 819.916 528.024, 825.525 526.185, 828 525.317 C 835.697 522.619, 841.458 522.516, 846.207 524.991 C 849.663 526.792, 850.583 526.938, 851.449 525.824 C 852.027 525.081, 853.774 523.657, 855.331 522.660 C 858.459 520.658, 861.682 520.697, 885.071 523.022 L 897.643 524.272 903.810 521.505 C 908.532 519.386, 910.992 518.852, 914.313 519.226 C 918.020 519.644, 918.783 519.409, 919.574 517.607 C 920.083 516.448, 921.952 514.774, 923.727 513.888 L 926.955 512.275 921.983 508.082 C 919.088 505.641, 916.774 502.764, 916.445 501.195 C 916.134 499.713, 915.456 497.719, 914.940 496.764 C 913.605 494.297, 913.775 486.333, 915.212 484.032 C 917.638 480.147, 914.349 480.295, 904.500 484.516 C 899.396 486.703, 892.319 488.014, 889.097 487.369 C 887.404 487.031, 884.407 485.234, 882.438 483.377 C 879.272 480.391, 878.226 480, 873.397 480 C 869.904 480, 867.797 480.450, 867.547 481.250 M 947.667 497.667 C 947.300 498.033, 947 499.582, 947 501.108 C 947 503.277, 945.823 504.801, 941.610 508.092 L 936.220 512.302 941.360 517.401 C 945.583 521.590, 946.824 523.660, 948.313 529 C 950.866 538.150, 950.801 538.001, 952.219 537.993 C 952.923 537.990, 954.850 537.093, 956.500 536 C 958.150 534.907, 961.075 533.998, 963 533.980 C 967.007 533.941, 972.174 529.760, 975.792 523.628 C 977.947 519.976, 977.955 519.815, 976.320 512.700 L 974.660 505.480 970.661 505.861 C 963.549 506.539, 956.309 504.281, 953.232 500.424 C 950.566 497.083, 949.018 496.316, 947.667 497.667" stroke="#ac7444" fill="#ac7444" fill-opacity="0.2" fill-rule="evenodd"/><path class="svg-region-DB" d="M 727.946 262.875 C 717.360 266.652, 709.058 273.247, 686.104 296.116 C 674.984 307.194, 671.674 312.343, 666.381 326.793 C 665.113 330.253, 663.106 334.447, 661.920 336.112 C 659.706 339.222, 655.554 341.461, 653.899 340.437 C 652.099 339.325, 641.856 341.239, 640.173 343.002 C 639.253 343.966, 636.576 345.725, 634.225 346.910 C 631.873 348.096, 627.104 351.954, 623.626 355.484 L 617.303 361.901 616.651 370.376 C 616.012 378.695, 616.069 378.996, 619.750 386.762 C 621.812 391.113, 624.605 397.384, 625.955 400.697 C 628.062 405.867, 629.054 407.055, 632.955 409.080 C 635.455 410.377, 639.575 412.690, 642.111 414.219 C 644.646 415.749, 648.044 417, 649.661 417 C 651.277 417, 653.063 417.463, 653.629 418.029 C 655.289 419.689, 660 415.363, 660.001 412.177 C 660.002 410.705, 661.128 408.191, 662.504 406.591 C 663.880 404.992, 666.601 400.829, 668.551 397.342 C 670.706 393.489, 673.242 390.409, 675.014 389.493 C 676.673 388.635, 677.715 387.422, 677.431 386.680 C 677.155 385.962, 678.071 384.765, 679.465 384.019 C 682.447 382.423, 682.522 381.910, 680.375 377.759 C 676.892 371.023, 676.822 369.024, 679.960 365.886 L 682.846 363 698.212 363 L 713.578 363 723.118 356.835 C 731.090 351.684, 733.110 349.835, 735.412 345.585 C 736.926 342.788, 739.940 339.167, 742.109 337.539 C 745.517 334.979, 749.195 330.332, 750.979 326.331 C 751.265 325.688, 754.565 322.460, 758.312 319.158 C 763.350 314.716, 766.439 312.816, 770.177 311.858 C 772.956 311.146, 775.458 309.969, 775.737 309.244 C 776.015 308.519, 775.476 305.194, 774.540 301.856 C 773.603 298.518, 773.111 294.696, 773.445 293.362 C 774.053 290.942, 782.399 282.095, 786.786 279.221 C 788.060 278.386, 789.810 276.334, 790.675 274.661 C 792.173 271.765, 792.141 271.533, 790.013 269.810 C 788.784 268.814, 786.253 268, 784.389 268 C 782.525 268, 781 267.646, 781 267.214 C 781 266.398, 780.733 266.345, 772.500 265.533 C 758.262 264.128, 751.226 263.118, 748.685 262.113 C 744.699 260.537, 733.327 260.955, 727.946 262.875 M 1030.493 274.369 C 1028.839 274.991, 1025.914 276.464, 1023.993 277.642 C 1022.072 278.820, 1019.038 280.094, 1017.250 280.472 C 1014.296 281.096, 1014.001 281.493, 1014.009 284.829 C 1014.019 288.758, 1018.049 296.716, 1022.198 301 C 1023.529 302.375, 1027.684 306.165, 1031.432 309.423 L 1038.245 315.346 1035.733 317.176 C 1034.352 318.182, 1030.817 321.263, 1027.878 324.022 C 1023.420 328.208, 1022.715 329.325, 1023.622 330.769 C 1025.003 332.968, 1036.166 333.664, 1043.683 332.020 C 1048.300 331.010, 1049.417 331.124, 1053.913 333.058 C 1058.370 334.975, 1059.724 336.361, 1065.481 344.898 C 1069.066 350.216, 1072 355.078, 1072 355.702 C 1072 356.327, 1072.635 358.112, 1073.412 359.669 C 1076.400 365.661, 1082.875 380.660, 1083.915 384 C 1084.514 385.925, 1086.116 390.200, 1087.474 393.500 L 1089.943 399.500 1096.165 399.246 C 1099.587 399.106, 1102.700 398.486, 1103.082 397.868 C 1103.980 396.415, 1106 397.659, 1106 399.666 C 1106 400.517, 1108.138 403.319, 1110.750 405.892 C 1113.362 408.465, 1116.625 412.195, 1118 414.182 C 1119.838 416.838, 1122.412 418.617, 1127.715 420.897 C 1131.683 422.604, 1135.396 424, 1135.965 424 C 1136.534 424, 1137 424.498, 1137 425.107 C 1137 425.767, 1137.707 425.925, 1138.750 425.499 C 1141.873 424.223, 1151.430 422.072, 1154.142 422.036 C 1157.440 421.991, 1158.441 418.825, 1157.074 412.759 C 1156.546 410.417, 1155.891 401.816, 1155.618 393.646 C 1155.233 382.104, 1154.774 378.408, 1153.561 377.068 C 1152.703 376.119, 1152 374.826, 1152 374.194 C 1152 371.639, 1147.093 369.715, 1142.264 370.377 C 1139.688 370.730, 1137.135 371.465, 1136.590 372.010 C 1136.046 372.554, 1134.565 373, 1133.300 373 C 1131.583 373, 1130.999 372.430, 1130.996 370.750 C 1130.993 369.512, 1129.836 365.350, 1128.423 361.500 C 1127.011 357.650, 1125.509 352.869, 1125.085 350.875 C 1124.661 348.881, 1123.344 345.887, 1122.157 344.221 C 1120.971 342.555, 1120 340.704, 1120 340.109 C 1120 336.849, 1110.479 323.753, 1101.845 315.136 C 1094.654 307.959, 1092.102 304.734, 1091.845 302.500 C 1091.655 300.850, 1090.713 298.628, 1089.750 297.561 C 1088.787 296.495, 1087.986 295.145, 1087.968 294.561 C 1087.894 292.060, 1077.047 282.477, 1071.712 280.199 C 1070.179 279.544, 1066.354 278.761, 1063.212 278.457 C 1060.071 278.154, 1055.025 277.296, 1052 276.551 C 1035.833 272.566, 1035.405 272.522, 1030.493 274.369" stroke="#e8b1e4" fill="#e8b1e4" fill-opacity="0.2" fill-rule="evenodd"/><path class="svg-region-SB" d="M 807.500 774.838 C 802.511 777.882, 794.496 787.401, 793.156 791.873 C 789.511 804.038, 799.124 811.059, 811.076 804.961 C 819.634 800.595, 823.991 794.254, 823.996 786.154 C 824.001 779.652, 821.893 775.725, 817.556 774.156 C 813.145 772.561, 810.992 772.707, 807.500 774.838" stroke="#d2e400" fill="#d2e400" fill-opacity="0.2" fill-rule="evenodd"/><path class="svg-region-Ol" d="M 430 407.978 C 421.568 410.286, 417.807 412.088, 410.541 417.302 C 404.575 421.582, 395.209 433.009, 395.072 436.173 C 395.033 437.094, 393.945 439.119, 392.656 440.673 C 391.366 442.228, 389.382 447.100, 388.246 451.500 C 383.809 468.693, 382.224 508.416, 385.400 522.857 C 386.862 529.506, 392.384 546.854, 395.473 554.500 C 396.139 556.150, 398.401 562.675, 400.498 569 C 402.596 575.325, 404.842 581.175, 405.491 582 C 407.295 584.295, 409.349 589.985, 408.631 590.702 C 408.280 591.053, 408.623 592.302, 409.393 593.478 C 411.621 596.877, 418 612.826, 418 614.995 C 418 618.152, 429.618 646.748, 438.619 665.746 C 441.029 670.832, 443 675.285, 443 675.643 C 443 676.235, 451.648 696.744, 456.011 706.500 C 456.995 708.700, 459.818 715.225, 462.284 721 C 464.751 726.775, 467.915 733.975, 469.318 737 C 470.720 740.025, 473.264 745.875, 474.972 750 C 476.680 754.125, 479.586 759.975, 481.430 763 C 483.274 766.025, 486.273 771.356, 488.095 774.847 C 491.720 781.793, 502.304 793.207, 511.247 799.813 C 520.953 806.983, 530.694 811.019, 550.330 816.005 C 559.603 818.360, 562.710 818.367, 583 816.079 C 611.452 812.872, 630.585 806.901, 641.507 797.820 C 648.772 791.780, 663.410 776.146, 666.236 771.410 C 670.508 764.250, 689.691 740, 691.083 740 C 691.473 740, 693.238 737.746, 695.005 734.992 C 696.867 732.091, 699.207 729.735, 700.567 729.394 C 703.009 728.781, 722.446 709.132, 727.925 701.738 C 729.652 699.407, 733.299 694.575, 736.029 691 C 740.810 684.739, 747.771 674.893, 753 666.994 C 760.078 656.304, 776.354 626.935, 779.522 619.138 C 780.925 615.686, 782.461 609.856, 782.937 606.181 C 783.412 602.506, 784.324 598.160, 784.962 596.523 C 787.952 588.855, 789.110 579.644, 787.981 572.500 C 786.574 563.594, 785.497 560.777, 780.908 554 C 775.269 545.674, 761.177 533.029, 751.500 527.612 C 749.850 526.688, 746.025 524.362, 743 522.444 C 739.975 520.525, 736.600 518.516, 735.500 517.980 C 733.032 516.777, 730.417 515.151, 726.458 512.360 C 724.785 511.181, 717.585 507.232, 710.458 503.586 C 703.331 499.940, 696.825 496.531, 696 496.011 C 693.884 494.676, 682.224 489.511, 677.750 487.926 C 675.688 487.196, 674 486.239, 674 485.799 C 674 485.360, 673.212 484.985, 672.250 484.967 C 670.626 484.937, 663.954 482.739, 657.941 480.253 C 656.534 479.671, 653.496 478.630, 651.191 477.939 C 648.886 477.248, 647 476.305, 647 475.842 C 647 475.379, 646.339 475, 645.530 475 C 644.722 475, 642.458 474.100, 640.500 473 C 638.542 471.900, 635.743 471, 634.281 471 C 631.631 471, 631.629 471.006, 633.640 472.879 C 634.749 473.913, 637.647 476.005, 640.079 477.529 C 645.708 481.056, 646.531 482.327, 643.720 483.150 C 639.670 484.337, 634.908 484.021, 627.664 482.087 C 623.724 481.035, 618.025 479.627, 615 478.958 C 611.975 478.290, 609.050 477.402, 608.500 476.987 C 607.950 476.571, 605.925 475.909, 604 475.515 C 599.542 474.603, 572.247 457.354, 571.491 454.971 C 571.178 453.986, 570.187 452.577, 569.288 451.840 C 567.852 450.663, 567.720 450.760, 568.202 452.632 C 568.716 454.627, 568.583 454.681, 566.126 453.469 C 564.681 452.756, 561.774 451.347, 559.665 450.337 C 557.556 449.327, 552.912 446.025, 549.345 443 C 536.186 431.841, 531.481 428.065, 530.695 428.033 C 530.252 428.015, 527.996 427.137, 525.680 426.082 C 519.524 423.278, 504.107 417.905, 499.628 417.003 C 497.400 416.555, 494.803 415.115, 493.512 413.612 C 492.277 412.175, 490.645 410.994, 489.884 410.986 C 489.123 410.978, 484 409.865, 478.500 408.512 C 469.888 406.394, 466.279 406.063, 452.500 406.126 C 440.446 406.181, 434.897 406.638, 430 407.978" stroke="#aa444d" fill="#aa444d" fill-opacity="0.2" fill-rule="evenodd"/><path class="svg-region-Or" d="M 1316.500 384.012 C 1312.650 384.429, 1307.620 385.280, 1305.323 385.904 C 1299.638 387.447, 1290.572 393.712, 1286.407 398.976 C 1282.542 403.860, 1268.941 414.675, 1264.750 416.197 C 1263.237 416.746, 1262 417.714, 1262 418.348 C 1262 419.781, 1256.082 424.574, 1252.312 426.196 C 1249.310 427.487, 1248.321 428.288, 1237.558 438.143 C 1229.648 445.386, 1227.828 447.181, 1219.500 455.948 C 1216.200 459.422, 1212.046 463.377, 1210.269 464.736 C 1207.428 466.910, 1206.655 467.075, 1203.870 466.104 C 1199.692 464.648, 1198.281 464.681, 1199.800 466.200 C 1202.101 468.501, 1201.179 472.949, 1197.750 476.087 C 1192.740 480.672, 1179.786 487.615, 1174.894 488.337 C 1170.109 489.044, 1157.355 491.406, 1152.391 492.505 C 1149.605 493.122, 1149.061 492.834, 1147.141 489.729 C 1144.419 485.323, 1144.428 482.237, 1147.174 479.314 C 1148.370 478.042, 1148.838 477, 1148.215 477 C 1147.591 477, 1146.050 478.072, 1144.790 479.383 C 1143.531 480.694, 1139.350 483.719, 1135.500 486.107 C 1128.425 490.495, 1119.919 496.618, 1119 497.986 C 1118.725 498.396, 1117.522 499.036, 1116.326 499.409 C 1115.130 499.782, 1112.440 501.248, 1110.348 502.668 C 1105.969 505.639, 1091.926 512.995, 1090.625 512.998 C 1089.662 513, 1087.250 514.015, 1059.500 526.096 C 1049.050 530.645, 1039.933 534.793, 1039.241 535.314 C 1038.548 535.834, 1033.598 538.452, 1028.241 541.130 C 1012.902 548.799, 1008.691 551.728, 1003 558.689 C 987.685 577.423, 984.879 586.597, 988.502 606.090 C 989.948 613.868, 991.223 617.234, 995.851 625.500 C 1001.495 635.579, 1005.533 642.016, 1006.816 642.978 C 1007.198 643.265, 1008.837 645.300, 1010.458 647.500 C 1012.079 649.700, 1018.601 656.712, 1024.952 663.083 C 1037.934 676.103, 1044.395 683.158, 1059.221 700.500 C 1064.863 707.100, 1069.806 712.645, 1070.205 712.822 C 1070.604 712.999, 1073.167 715.990, 1075.901 719.469 C 1081.949 727.165, 1119.993 765.283, 1124.946 768.609 C 1126.901 769.922, 1130.176 772.121, 1132.224 773.496 C 1146.164 782.855, 1159.205 786.667, 1182 788.044 C 1190.525 788.560, 1203.800 789.489, 1211.500 790.110 C 1219.200 790.731, 1232.025 791.052, 1240 790.822 C 1252.923 790.451, 1255.101 790.128, 1260.031 787.854 C 1265.292 785.428, 1282.218 774.228, 1286.516 770.329 C 1287.625 769.323, 1291.215 766.250, 1294.495 763.500 C 1302.028 757.185, 1305.312 753.477, 1311.236 744.598 C 1313.841 740.694, 1316.336 737.050, 1316.779 736.500 C 1317.527 735.572, 1323.471 725.484, 1325.309 722.023 C 1325.753 721.185, 1328.297 716.675, 1330.962 712 C 1337.499 700.532, 1349.487 676.201, 1350.401 672.546 C 1350.808 670.921, 1352.874 665.971, 1354.991 661.546 C 1357.109 657.121, 1360.211 649.450, 1361.885 644.500 C 1366.996 629.382, 1367.826 627.344, 1370.459 623.465 C 1371.857 621.406, 1373 619.325, 1373 618.841 C 1373 618.357, 1375.250 613.435, 1378 607.903 C 1380.750 602.371, 1383 597.367, 1383 596.784 C 1383 596.200, 1384.800 591.969, 1387 587.381 C 1389.200 582.794, 1391 578.729, 1391 578.349 C 1391 577.969, 1391.668 576.919, 1392.485 576.016 C 1394.614 573.664, 1398.722 561.975, 1401.101 551.500 C 1403.178 542.354, 1404.070 518.541, 1402.435 515.895 C 1402.030 515.239, 1401.560 513.307, 1401.393 511.601 C 1400.361 501.115, 1395.647 484.242, 1391.586 476.500 C 1390.720 474.850, 1390.010 473.041, 1390.006 472.480 C 1390.003 471.919, 1388.665 468.994, 1387.034 465.980 C 1383.106 458.723, 1381 454.030, 1381 452.533 C 1381 451.860, 1380.140 450.532, 1379.090 449.581 C 1378.039 448.631, 1376.906 446.762, 1376.572 445.430 C 1376.237 444.097, 1374.538 440.868, 1372.796 438.253 C 1367.468 430.259, 1366.392 428.558, 1365.671 427 C 1365.290 426.175, 1364.082 424.150, 1362.987 422.500 C 1361.892 420.850, 1360.338 418.091, 1359.534 416.369 C 1358.730 414.647, 1356.706 411.948, 1355.036 410.372 C 1353.366 408.796, 1352 406.705, 1352 405.726 C 1352 404.158, 1348.500 399.633, 1344 395.383 C 1338.210 389.914, 1335.748 388, 1334.504 388 C 1333.720 388, 1332.273 387.152, 1331.289 386.116 C 1328.940 383.643, 1325.037 383.087, 1316.500 384.012" stroke="#aa444d" fill="#aa444d" fill-opacity="0.2" fill-rule="evenodd"/><path class="svg-region-Pl" d="M 568.235 433.996 C 564.613 437.370, 564.372 442.196, 567.521 448.241 C 572.284 457.384, 571.306 456.530, 591.500 469.183 C 596.450 472.284, 602.075 475.139, 604 475.526 C 605.925 475.914, 607.950 476.571, 608.500 476.987 C 609.050 477.402, 611.975 478.312, 615 479.007 C 618.025 479.703, 623.679 481.111, 627.564 482.136 C 634.816 484.050, 639.796 484.429, 643.750 483.370 C 647.088 482.475, 646.553 481.511, 640.750 477.955 C 637.862 476.185, 635.275 474.459, 635 474.119 C 634.236 473.174, 622.860 464.645, 619.750 462.686 C 617.497 461.267, 617 460.231, 617 456.956 C 617 452.296, 612.721 445, 609.988 445 C 608.303 445, 600.812 441.998, 592.500 437.991 C 590.300 436.931, 586.250 435.543, 583.500 434.908 C 580.750 434.273, 577.466 433.359, 576.203 432.877 C 572.662 431.525, 570.571 431.819, 568.235 433.996" stroke="#f9d3d3" fill="#f9d3d3" fill-opacity="0.2" fill-rule="evenodd"/><path class="svg-region-Pr" d="M 1172.598 462.738 C 1169.743 463.031, 1167.596 464.191, 1164.598 467.059 C 1161.907 469.632, 1159.569 470.982, 1157.790 470.989 C 1155.893 470.997, 1153.568 472.488, 1150.040 475.961 C 1144.308 481.603, 1143.752 484.244, 1147.139 489.725 C 1148.912 492.593, 1149.726 493.097, 1151.889 492.663 C 1164.259 490.185, 1171.175 488.887, 1174.993 488.324 C 1177.464 487.960, 1181.646 486.388, 1184.287 484.831 C 1186.928 483.274, 1189.631 481.992, 1190.294 481.983 C 1190.957 481.974, 1193.638 479.961, 1196.250 477.510 C 1199.746 474.231, 1201 472.308, 1201 470.227 C 1201 466.732, 1199.381 465.011, 1196.050 464.965 C 1194.648 464.945, 1192.375 464.286, 1191 463.500 C 1188.589 462.122, 1181.457 461.826, 1172.598 462.738" stroke="#f9d3d3" fill="#f9d3d3" fill-opacity="0.2" fill-rule="evenodd"/><path class="svg-region-OGl" d="M 569.867 379.803 C 564.462 382.419, 563.123 383.813, 559.918 390.162 C 554.541 400.813, 556.443 416.554, 563.923 423.311 C 569.967 428.772, 581.659 434, 587.828 434 C 597.069 434, 607.131 427.468, 611.803 418.436 C 612.391 417.301, 613.186 410.305, 613.571 402.889 L 614.270 389.405 611.085 386.725 C 603.212 380.100, 578 375.866, 569.867 379.803" stroke="#d66e9d" fill="#d66e9d" fill-opacity="0.2" fill-rule="evenodd"/><path class="svg-region-OGr" d="M 1193.500 406.442 C 1190.146 407.966, 1185 412.566, 1185 414.040 C 1185 414.568, 1183.267 415, 1181.148 415 C 1176.717 415, 1171.176 418.282, 1169.279 422.030 C 1167.746 425.059, 1167.618 433.417, 1169.062 436.117 C 1169.647 437.209, 1170.390 441.264, 1170.714 445.128 C 1171.601 455.713, 1176.984 461.817, 1185.550 461.952 C 1187.227 461.978, 1189.094 462.494, 1189.697 463.097 C 1190.300 463.700, 1193.428 464.572, 1196.647 465.034 C 1199.866 465.496, 1203.625 466.156, 1205 466.499 C 1206.993 466.998, 1208.537 466.237, 1212.617 462.746 C 1215.431 460.337, 1219.760 456.085, 1222.237 453.296 C 1226.012 449.045, 1226.852 447.339, 1227.425 442.753 C 1227.801 439.744, 1227.834 435.981, 1227.498 434.391 C 1224.168 418.629, 1219.482 410.574, 1211.500 406.890 C 1206.756 404.700, 1197.821 404.478, 1193.500 406.442" stroke="#d66e9d" fill="#d66e9d" fill-opacity="0.2" fill-rule="evenodd"/><path class="svg-region-OVl" d="M 766.721 468.775 C 772.090 476.783, 782.561 486.899, 789.243 490.536 C 794.102 493.181, 794.444 493.235, 795.443 491.515 C 796.024 490.514, 797.253 489.018, 798.174 488.190 C 799.725 486.796, 799.615 486.389, 796.674 482.670 C 785.163 468.110, 778.636 463.435, 768.985 462.838 L 762.469 462.435 766.721 468.775 M 789.259 502.531 C 787.914 503.473, 787.081 505.591, 786.634 509.205 C 784.641 525.313, 783.683 527, 776.532 527 C 771.296 527, 765.026 524.233, 760.473 519.912 C 758.807 518.332, 755.995 516.749, 754.223 516.395 C 748.304 515.211, 750.225 518.029, 763.011 529.289 C 773.210 538.271, 778.817 542.888, 780.750 543.896 C 781.987 544.542, 783 545.714, 783 546.500 C 783 547.286, 784.013 548.457, 785.250 549.102 C 786.487 549.747, 789.673 552.687, 792.330 555.637 C 794.986 558.587, 797.522 561, 797.965 561 C 798.408 561, 798.536 558.089, 798.250 554.530 C 797.794 548.843, 798.069 547.393, 800.522 542.543 C 802.058 539.509, 804.143 536.275, 805.157 535.358 C 807.695 533.061, 807.474 531.727, 804.147 529.267 C 800.023 526.218, 796.773 518.723, 797.133 513.090 C 797.441 508.262, 795.251 502.694, 792.652 501.697 C 791.870 501.396, 790.343 501.772, 789.259 502.531" stroke="#593939" fill="#593939" fill-opacity="0.2" fill-rule="evenodd"/><path class="svg-region-OVr" d="M 1084.001 428.206 C 1082.077 431.042, 1079.520 434.517, 1078.320 435.931 C 1074.773 440.105, 1069 447.969, 1069 448.625 C 1069 448.959, 1067.133 450.991, 1064.851 453.140 C 1060.789 456.966, 1057.004 459.144, 1052 460.536 C 1050.625 460.919, 1045.827 463.683, 1041.337 466.679 C 1034.457 471.270, 1032.113 472.276, 1026.421 473.083 C 1022.707 473.608, 1015.131 475.567, 1009.584 477.434 C 1004.038 479.301, 997.408 481.137, 994.851 481.513 C 991.438 482.015, 989.430 483.035, 987.299 485.348 C 983.807 489.141, 980.740 497.570, 981.180 502.165 C 981.462 505.102, 981.880 505.537, 984.686 505.809 C 990.255 506.348, 997.978 500.883, 1005.038 491.406 C 1007.125 488.604, 1010.108 485.836, 1011.666 485.255 C 1013.225 484.674, 1021.993 481.229, 1031.152 477.599 C 1040.310 473.970, 1048.527 471, 1049.410 471 C 1050.294 471, 1052.334 469.827, 1053.944 468.393 C 1055.553 466.959, 1059.055 464.773, 1061.726 463.535 C 1065.546 461.766, 1067.313 460.080, 1070.003 455.643 C 1071.884 452.539, 1073.745 450, 1074.138 450 C 1074.532 450, 1075.500 448.762, 1076.289 447.250 C 1077.079 445.738, 1079.740 440.900, 1082.203 436.500 C 1085.964 429.780, 1088.795 422.927, 1087.769 423.026 C 1087.621 423.040, 1085.926 425.371, 1084.001 428.206 M 975.631 523.792 C 971.930 529.655, 966.456 533.995, 962.715 534.031 C 960.947 534.048, 957.838 535.085, 955.806 536.335 L 952.111 538.607 954.434 541.519 C 956.553 544.178, 956.989 544.326, 959.425 543.216 C 964.207 541.037, 967.611 541.648, 968.970 544.928 C 970.520 548.669, 972.843 550.728, 976 551.159 C 978.275 551.469, 978.485 551.905, 978.338 556 C 978.248 558.475, 977.860 561.962, 977.474 563.750 C 976.584 567.878, 977.639 567.856, 982.570 563.641 C 987.335 559.569, 1004.538 548, 1005.830 548 C 1006.339 548, 1007.331 547.306, 1008.035 546.458 C 1008.739 545.610, 1012.425 542.829, 1016.226 540.279 C 1027.298 532.850, 1029.216 528.181, 1019.337 532.703 C 1011.479 536.301, 1005.554 536.853, 1002.708 534.252 C 999.779 531.575, 994.581 529, 992.107 529 C 989.317 529, 983.473 525.371, 981.559 522.450 C 979.387 519.135, 978.435 519.350, 975.631 523.792" stroke="#593939" fill="#593939" fill-opacity="0.2" fill-rule="evenodd"/>
    </svg>