<svg xmlns="http://www.w3.org/2000/svg" width="1785" height="1131" viewBox="0 0 1785 1131" version="1.1">
    <path class="svg-region-SV" d="M 818.250 314.262 C 814.198 315.237, 814 315.457, 814 318.993 C 814 328.045, 811.874 330.071, 797.752 334.479 C 792.435 336.138, 791.926 336.562, 790.965 340.130 C 790.009 343.680, 785.648 349, 783.693 349 C 783.238 349, 778.563 351.079, 773.302 353.621 C 768.042 356.163, 761.210 358.837, 758.119 359.565 C 755.029 360.293, 749.575 361.623, 746 362.521 C 742.425 363.419, 738.503 364.349, 737.285 364.587 C 736.067 364.825, 732.467 367.484, 729.285 370.496 C 725.238 374.326, 722.959 375.800, 721.701 375.403 C 719.204 374.614, 715.662 377.178, 712.103 382.351 C 709.827 385.659, 707.730 387.283, 703.541 388.983 C 698.410 391.066, 697.506 391.963, 691.500 400.927 C 684.866 410.829, 680.604 415, 677.122 415 C 676.044 415, 673.778 415.788, 672.087 416.750 C 669.369 418.297, 669.012 419.023, 669.006 423.016 C 668.998 429.150, 671.397 433.078, 678.500 438.558 C 681.800 441.105, 685.762 445.209, 687.305 447.680 L 690.111 452.172 695.805 451.696 C 698.937 451.434, 704.960 450.635, 709.188 449.920 C 719.577 448.163, 730.691 449.847, 740.686 454.692 C 748.153 458.311, 750.620 458.413, 754.222 455.252 C 756.573 453.189, 770.744 453.947, 774.381 456.330 C 775.851 457.293, 778.924 458, 781.644 458 C 788.507 458, 796.264 460.650, 801.327 464.725 C 802.881 465.976, 805.356 466.999, 806.827 466.997 C 808.297 466.996, 811.300 467.857, 813.500 468.912 C 817.991 471.065, 829.111 473.159, 839.255 473.763 C 845.014 474.105, 846.419 474.573, 848.782 476.936 C 850.306 478.460, 853.117 480.018, 855.027 480.398 C 858.321 481.054, 874.260 482.684, 884 483.361 C 886.475 483.533, 890.199 484.292, 892.275 485.047 C 895.266 486.135, 896.698 486.175, 899.174 485.240 C 901.819 484.242, 903.266 484.398, 908.593 486.257 L 914.888 488.454 917.194 486.314 C 920.090 483.627, 924.581 483.170, 958 482.163 C 973.102 481.708, 984.924 480.907, 986.993 480.197 C 990.977 478.832, 1010.609 478.558, 1011.412 479.857 C 1012.473 481.575, 1023.198 481.821, 1032.742 480.346 C 1038.109 479.517, 1045.215 478.493, 1048.532 478.071 C 1059.416 476.686, 1062.223 473.848, 1067.944 458.450 L 1069.077 455.400 1083.623 455.450 L 1098.168 455.500 1101.185 451.746 C 1103.435 448.945, 1105.199 447.832, 1108.132 447.363 C 1110.867 446.926, 1112.784 445.813, 1114.432 443.707 L 1116.802 440.679 1113.887 437.590 C 1112.285 435.890, 1110.539 432.913, 1110.008 430.974 C 1108.635 425.954, 1105.823 422.558, 1094.654 412.429 C 1086.815 405.320, 1083.749 403.194, 1079.614 402 C 1076.757 401.175, 1072.863 399.570, 1070.960 398.433 C 1065.843 395.377, 1061.263 394.003, 1056.101 393.976 C 1051.790 393.953, 1051.028 393.508, 1044 386.901 C 1039.875 383.022, 1032.818 376.463, 1028.319 372.325 C 1023.438 367.837, 1019.546 363.328, 1018.672 361.150 C 1017.866 359.143, 1015.430 355.475, 1013.258 353 C 1008.345 347.401, 1007.004 344.903, 1006.985 341.316 C 1006.959 336.508, 1005.862 335.823, 997.882 335.626 C 993.822 335.526, 989.929 335.088, 989.231 334.651 C 988.533 334.215, 986.860 331.685, 985.514 329.028 C 983.127 324.317, 978.867 320, 976.605 320 C 975.986 320, 974.202 318.816, 972.641 317.368 C 970.010 314.928, 969.353 314.783, 963.651 315.378 C 958.806 315.884, 954.741 317.422, 944.500 322.621 C 932.393 328.769, 930.779 329.313, 921 330.545 C 909.940 331.939, 890.292 336.238, 887.047 337.975 C 884.756 339.201, 873.255 339.252, 867.099 338.063 C 864.679 337.596, 862.268 336.444, 861.742 335.503 C 859.466 331.436, 853.486 327.113, 847.353 325.099 C 840.103 322.719, 833.351 319.453, 827.706 315.594 C 825.619 314.167, 823.594 313.054, 823.206 313.120 C 822.818 313.186, 820.587 313.700, 818.250 314.262" stroke="#c666b5" fill="#c666b5" fill-opacity="0.2" fill-rule="evenodd"/><path class="svg-region-SF" d="M 713 474.271 C 713 475.094, 714.816 477.408, 717.035 479.412 C 719.254 481.417, 722.640 485.915, 724.560 489.407 C 730.871 500.889, 751.269 517, 759.494 517 C 765.201 517, 767 514.615, 767 507.048 C 767 503.786, 767.450 500.840, 768 500.500 C 768.550 500.160, 769 499.203, 769 498.374 C 769 497.545, 770.154 495.353, 771.565 493.504 C 773.499 490.969, 774.052 489.202, 773.815 486.321 L 773.500 482.500 757.500 481.871 C 741.061 481.224, 740.369 481.068, 730.500 475.777 C 725.370 473.027, 713 471.962, 713 474.271 M 1066.436 490.380 C 1063.218 494.336, 1055.464 499, 1052.105 499 C 1050.397 499, 1049 498.550, 1049 498 C 1049 496.401, 1039.608 496.845, 1035.372 498.645 C 1031.711 500.200, 1022.746 502.349, 1015 503.527 C 999.622 505.866, 998.196 506.274, 997.120 508.636 C 996.227 510.596, 996.625 512.136, 999.516 517.895 C 1004.159 527.148, 1010.399 533.023, 1017.445 534.778 C 1022.637 536.070, 1023.008 536.026, 1026.677 533.664 C 1028.780 532.310, 1032.300 530.618, 1034.500 529.903 C 1036.700 529.189, 1040.843 526.893, 1043.707 524.802 C 1046.571 522.711, 1049.295 521, 1049.761 521 C 1050.822 521, 1056.081 515.249, 1057.750 512.264 C 1058.438 511.034, 1059 509.209, 1059 508.209 C 1059 507.210, 1060.267 504.391, 1061.815 501.946 C 1067.538 492.909, 1070.166 488, 1069.281 488 C 1068.781 488, 1067.501 489.071, 1066.436 490.380" stroke="#8c6b55" fill="#8c6b55" fill-opacity="0.2" fill-rule="evenodd"/><path class="svg-region-IF" d="M 846 555.013 C 830.686 555.583, 828.889 555.857, 821 558.816 L 812.500 562.004 809.394 558.502 C 806.451 555.183, 803 553.832, 803 555.997 C 803 556.546, 801.425 558.738, 799.500 560.868 C 797.524 563.055, 796 565.800, 796 567.171 C 796 568.507, 795.485 570.115, 794.856 570.744 C 793.722 571.878, 798.321 577.997, 806.600 586.366 C 809.838 589.640, 822.509 596.443, 827.250 597.452 C 828.763 597.775, 830 598.506, 830 599.078 C 830 599.650, 830.470 599.828, 831.044 599.473 C 831.618 599.118, 832.630 599.263, 833.294 599.795 C 834.640 600.875, 835.381 601.010, 856.500 604.011 C 877.915 607.055, 916.667 607.121, 926.290 604.131 C 928.056 603.583, 931.300 602.899, 933.500 602.612 C 939.688 601.804, 944.401 600.787, 945.500 600.023 C 946.050 599.640, 949.052 598.316, 952.171 597.079 C 955.290 595.843, 958.623 593.970, 959.576 592.916 C 960.530 591.862, 961.860 591, 962.533 591 C 964.289 591, 966.571 587.991, 965.434 587.174 C 964.919 586.803, 963.859 585.263, 963.079 583.750 C 961.919 581.498, 960.989 581, 957.950 581 C 954.929 581, 953.782 580.394, 951.795 577.750 C 950.452 575.962, 949.046 573.670, 948.671 572.655 C 948.297 571.640, 947.148 570.590, 946.119 570.321 C 945.090 570.052, 943.713 568.832, 943.060 567.611 C 941.312 564.347, 931.450 559.483, 924 558.213 C 904.661 554.914, 878.021 553.821, 846 555.013" stroke="#f2823b" fill="#f2823b" fill-opacity="0.2" fill-rule="evenodd"/><path class="svg-region-PF" d="M 751.532 456.500 C 749.350 457.840, 746.313 459.212, 744.782 459.548 C 740.694 460.446, 741.357 461.609, 747.250 463.879 C 760.565 469.008, 764.790 471.086, 768.654 474.405 C 772.169 477.424, 772.915 478.745, 773.498 482.987 C 774.166 487.842, 774.291 488, 777.459 488 C 779.258 488, 781.874 487.100, 783.273 486 C 784.671 484.900, 786.281 484, 786.851 484 C 787.420 484, 789.423 483.093, 791.302 481.984 C 794.572 480.055, 795.028 480.033, 801.925 481.484 C 809.926 483.167, 817.249 483.442, 819.816 482.156 C 821.333 481.396, 833.075 482.024, 845 483.504 C 851.187 484.272, 852.470 483.250, 850.438 479.177 C 848.366 475.023, 846.276 474.003, 839.816 473.988 C 836.892 473.982, 832.025 473.312, 829 472.500 C 825.975 471.688, 821.925 471.015, 820 471.005 C 818.075 470.995, 815.150 470.093, 813.500 469 C 811.850 467.907, 809.099 467.010, 807.388 467.007 C 805.437 467.002, 802.855 465.872, 800.472 463.977 C 798.380 462.315, 795.505 460.709, 794.084 460.408 C 792.663 460.108, 790.466 459.443, 789.203 458.931 C 787.940 458.419, 784.951 458, 782.562 458 C 780.173 458, 776.257 457.110, 773.859 456.022 C 767.337 453.062, 756.760 453.289, 751.532 456.500 M 986.500 480.255 C 984.850 480.851, 972.025 481.703, 958 482.149 C 917.473 483.436, 914.764 483.938, 918.405 489.495 C 919.687 491.451, 920.891 492, 923.901 492 C 926.021 492, 929.371 492.675, 931.346 493.500 C 933.320 494.325, 937.391 495, 940.391 495 C 944.650 495, 946.466 495.516, 948.673 497.351 C 953.460 501.333, 955.596 502, 963.568 502 C 970.589 502, 978.752 503.495, 980 505.009 C 981.662 507.026, 985.878 509, 988.523 509 C 992.391 509, 993.979 507.441, 994.076 503.550 C 994.175 499.572, 995.938 495.067, 998.793 491.492 C 1000.754 489.037, 1001.947 488.559, 1007.043 488.191 L 1013 487.760 1013 483.987 C 1013 481.469, 1012.474 480.012, 1011.418 479.607 C 1008.790 478.598, 989.714 479.095, 986.500 480.255" stroke="#faaaaa" fill="#faaaaa" fill-opacity="0.2" fill-rule="evenodd"/><path class="svg-region-AAB" d="M 827.500 537.496 C 824.750 538.315, 821.150 539.250, 819.500 539.574 C 815.708 540.317, 813.828 541.041, 806.945 544.410 C 803.890 545.905, 798.940 547.670, 795.945 548.333 L 790.500 549.537 790.202 554.093 C 790.030 556.731, 790.662 560.687, 791.703 563.491 C 793.730 568.952, 796 570.597, 796 566.606 C 796 565.008, 796.901 563.456, 798.399 562.474 C 799.718 561.610, 801.348 559.574, 802.020 557.951 C 803.624 554.079, 805.601 554.226, 809.394 558.499 L 812.500 561.998 822.500 558.439 L 832.500 554.881 867.500 554.853 C 888.299 554.836, 905.340 555.273, 909.500 555.929 C 927.862 558.826, 930.762 559.466, 934.380 561.412 C 936.514 562.561, 939.072 563.932, 940.065 564.459 C 941.057 564.986, 942.339 566.449, 942.913 567.709 C 943.487 568.969, 944.584 570, 945.351 570 C 946.117 570, 948.264 572.466, 950.122 575.480 C 953.335 580.692, 953.703 580.960, 957.667 580.980 C 960.093 580.991, 962.009 581.522, 962.254 582.250 C 963.007 584.487, 965.959 581.036, 969.689 573.558 C 971.625 569.676, 974.327 565.308, 975.694 563.852 C 977.773 561.636, 977.996 560.860, 977.054 559.102 C 976.134 557.382, 974.982 556.997, 970.715 556.985 C 965.138 556.970, 959.411 555.325, 953.907 552.157 C 952.033 551.079, 948.056 549.689, 945.068 549.070 C 942.081 548.450, 939.156 547.574, 938.568 547.123 C 937.981 546.671, 934.321 545.280, 930.435 544.030 C 923.653 541.848, 923.239 541.825, 920.078 543.460 C 917.491 544.797, 913.236 545.256, 900.239 545.598 C 881.834 546.081, 874.648 545.177, 865.513 541.225 C 856.180 537.187, 835.383 535.147, 827.500 537.496" stroke="#7f3c1a" fill="#7f3c1a" fill-opacity="0.2" fill-rule="evenodd"/><path class="svg-region-APB" d="M 791 482 C 789.075 483.054, 786.938 483.935, 786.250 483.958 C 785.563 483.981, 784.100 484.900, 783 486 C 781.845 487.155, 779.627 488.015, 777.750 488.037 C 775.021 488.067, 774.059 488.770, 771.750 492.416 C 770.237 494.805, 769 497.462, 769 498.321 C 769 499.179, 768.550 500.160, 768 500.500 C 767.450 500.840, 767 504.016, 767 507.559 C 767 511.186, 766.563 514, 766 514 C 764.257 514, 764.910 515.392, 768.478 519.277 C 773.689 524.950, 777 531.190, 777 535.338 C 777 537.581, 777.709 539.678, 778.829 540.750 C 788.331 549.844, 794.749 550.887, 805.500 545.084 C 810.572 542.346, 812.603 541.636, 826 537.914 C 839.037 534.293, 840.357 534.048, 847 534.024 C 851.129 534.010, 855.419 534.730, 858.761 536.001 C 861.654 537.100, 865.535 538, 867.385 538 C 869.235 538, 872.625 538.662, 874.919 539.472 C 882.038 541.983, 888.684 542.333, 903.970 541.003 L 918.721 539.718 926.110 542.427 C 930.175 543.917, 935.525 545.974, 938 546.999 C 940.475 548.023, 944.054 549.124, 945.953 549.446 C 947.852 549.768, 952.352 551.473, 955.953 553.235 C 971.776 560.979, 988.668 556.201, 993.904 542.500 C 994.954 539.750, 996.399 536.054, 997.113 534.286 C 998.165 531.681, 998.177 529.451, 997.174 522.513 C 995.419 510.379, 994.797 509.331, 989.022 508.776 C 986.094 508.495, 983.405 507.524, 982.045 506.257 C 979.083 503.497, 972.674 502, 963.807 501.998 C 956.543 501.997, 953.840 501.121, 947.842 496.821 C 946.466 495.836, 943.230 495.051, 940 494.919 C 936.975 494.796, 932.983 494.089, 931.128 493.348 C 929.273 492.606, 926.015 492, 923.886 492 C 921.100 492, 919.667 491.440, 918.768 490 C 918.081 488.900, 916.519 488, 915.297 488 C 914.075 488, 910.555 487.057, 907.475 485.905 C 902.644 484.097, 901.457 483.982, 898.835 485.068 C 896.369 486.090, 895.106 486.077, 892.147 485.001 C 890.141 484.271, 886.475 483.533, 884 483.361 C 872.936 482.592, 858.258 481.077, 855.685 480.439 C 853.439 479.883, 852.555 480.191, 851.314 481.962 C 849.961 483.894, 849.159 484.103, 845.129 483.573 C 832.971 481.975, 821.357 481.306, 819.816 482.115 C 817.378 483.396, 810.469 483.143, 803 481.500 C 794.879 479.714, 795.201 479.700, 791 482" stroke="#ac7444" fill="#ac7444" fill-opacity="0.2" fill-rule="evenodd"/><path class="svg-region-DB" d="M 721.218 271.114 C 718.862 272.290, 716.463 274.135, 715.886 275.213 C 714.565 277.682, 708.850 282.932, 707.442 282.971 C 705.394 283.027, 693.186 297.621, 683.158 312 C 679.514 317.225, 675.400 322.850, 674.016 324.500 C 668.317 331.295, 655.763 343, 654.176 343 C 652.496 343, 633.192 353.896, 628 357.775 C 626.075 359.213, 624.140 360.977, 623.700 361.695 C 623.260 362.413, 622.337 363, 621.648 363 C 619.906 363, 608.425 375.419, 606.825 379.034 C 606.103 380.665, 605.172 382, 604.756 382 C 604.340 382, 604 383.921, 604 386.269 C 604 390.350, 604.441 390.975, 614.071 400.519 C 619.610 406.008, 624.833 411.850, 625.678 413.500 C 627.652 417.354, 635.706 425.739, 639.200 427.578 C 643.601 429.895, 649.399 429.314, 656.521 425.841 C 660.084 424.104, 663 422.390, 663 422.034 C 663 421.165, 675.788 415.266, 679.250 414.539 C 682.005 413.961, 690.187 404.858, 692.008 400.347 C 692.486 399.163, 693.382 397.882, 694 397.500 C 694.618 397.118, 695.544 395.699, 696.058 394.347 C 696.716 392.617, 699.045 390.983, 703.923 388.828 C 709.241 386.479, 711.138 385.082, 712.074 382.822 C 713.662 378.988, 719.326 374.651, 721.744 375.419 C 723.045 375.832, 725.321 374.409, 729.541 370.544 C 734.447 366.052, 736.472 364.894, 741 363.998 C 744.025 363.400, 748.300 362.280, 750.500 361.509 C 752.700 360.739, 756.300 359.803, 758.500 359.428 C 760.700 359.053, 767.127 356.554, 772.783 353.873 C 778.439 351.193, 783.436 349, 783.887 349 C 785.843 349, 789.950 343.899, 790.933 340.250 C 791.917 336.595, 792.421 336.152, 797.251 334.698 C 807.740 331.539, 810.511 330.181, 812.245 327.350 C 814.038 324.420, 814.762 314.411, 813.106 315.434 C 812.615 315.738, 809.802 314.886, 806.856 313.540 C 803.910 312.195, 798.929 310.427, 795.786 309.611 C 788.911 307.827, 783.938 305.603, 778.250 301.769 C 774.618 299.320, 774 298.400, 774 295.436 C 774 293.529, 774.563 290.159, 775.250 287.947 C 776.424 284.172, 777.126 283.615, 786.750 278.831 C 792.388 276.028, 797 273.641, 797 273.526 C 797 273.411, 795.009 273.287, 792.575 273.250 C 790.141 273.213, 787.366 272.745, 786.409 272.209 C 785.337 271.609, 783.483 271.578, 781.584 272.128 C 779.725 272.666, 775.521 272.628, 771 272.032 C 766.875 271.488, 758.550 270.820, 752.500 270.549 C 746.450 270.277, 737.900 269.812, 733.500 269.515 C 726.645 269.052, 724.887 269.281, 721.218 271.114 M 1005.523 282.103 C 1006.052 284.515, 1005.361 286.437, 1001.911 292.147 C 999.564 296.031, 996.937 300.625, 996.072 302.355 C 994.208 306.084, 986.701 310.406, 978.282 312.598 C 975.102 313.426, 972.090 314.512, 971.590 315.012 C 970.613 315.986, 974.638 319.909, 976.673 319.967 C 979.058 320.034, 983.864 325.151, 985.654 329.529 C 987.237 333.398, 988.069 334.196, 991.490 335.124 C 993.684 335.719, 997.417 335.988, 999.786 335.721 C 1005.156 335.115, 1007 336.730, 1007 342.038 C 1007 345.237, 1007.804 346.839, 1011.500 351 C 1013.975 353.787, 1017.082 358.202, 1018.404 360.811 C 1020.728 365.397, 1022.312 367.117, 1033.883 377.616 C 1036.844 380.302, 1041.958 385.087, 1045.247 388.250 C 1050.763 393.553, 1051.588 394.001, 1055.864 394.015 C 1060.996 394.032, 1065.824 395.529, 1070.753 398.634 C 1072.542 399.760, 1076.463 401.271, 1079.464 401.991 C 1084.422 403.181, 1086.022 404.365, 1096.912 414.900 C 1106.531 424.207, 1109.106 427.291, 1109.937 430.500 C 1111.225 435.471, 1116.256 441, 1119.492 441 C 1120.806 441, 1122.160 441.450, 1122.500 442 C 1123.815 444.127, 1131.902 443.030, 1138.352 439.849 C 1144.228 436.951, 1145.045 436.137, 1148.505 429.732 C 1150.574 425.900, 1154.232 420.553, 1156.634 417.849 C 1162.835 410.867, 1165.719 404.618, 1166.528 396.414 C 1167.510 386.445, 1164.213 379.686, 1156.702 376.271 C 1155.216 375.596, 1154 374.594, 1154 374.045 C 1154 371.722, 1138.914 366.001, 1127.154 363.865 C 1119.014 362.386, 1118.578 361.954, 1115.690 352.500 C 1114.376 348.199, 1109.693 336.920, 1104.896 326.500 C 1104.136 324.850, 1102.804 322.714, 1101.936 321.754 C 1101.068 320.793, 1099.400 318.093, 1098.229 315.754 C 1095.167 309.638, 1083.648 298.005, 1075.500 292.799 C 1066.167 286.837, 1052.319 281.516, 1042.500 280.120 C 1038.100 279.494, 1027.833 279.013, 1019.684 279.052 L 1004.868 279.121 1005.523 282.103" stroke="#e8b1e4" fill="#e8b1e4" fill-opacity="0.2" fill-rule="evenodd"/><path class="svg-region-MB" d="M 802.500 272.432 C 797.161 273.830, 788.826 276.991, 788 277.931 C 787.725 278.244, 785.025 279.682, 782 281.128 C 777.228 283.407, 776.334 284.299, 775.250 287.862 C 773.069 295.026, 773.580 298.443, 777.250 301.239 C 780.936 304.048, 791.316 309, 793.519 309 C 795.194 309, 807.939 313.884, 809.617 315.169 C 810.254 315.657, 813.650 315.414, 817.509 314.605 L 824.283 313.185 828.892 316.401 C 834.267 320.153, 841.242 323.589, 845.500 324.583 C 851.969 326.094, 859.218 330.994, 861.794 335.597 C 862.292 336.486, 864.679 337.596, 867.099 338.063 C 873.165 339.234, 886.389 339.211, 887.573 338.027 C 888.979 336.621, 913.090 331.310, 923.030 330.218 C 927.758 329.699, 933.269 328.402, 935.501 327.284 C 937.701 326.182, 943.105 323.469, 947.511 321.254 C 956.512 316.728, 961.860 315.014, 967.003 315.006 C 971.570 314.998, 982.029 311.951, 989.159 308.551 C 993.388 306.534, 995.139 305.049, 996.084 302.676 C 996.780 300.929, 998.283 298.159, 999.425 296.521 C 1004.760 288.862, 1006.227 285.310, 1005.474 281.880 L 1004.864 279.107 991.682 278.803 C 984.432 278.636, 976.250 278.737, 973.500 279.026 C 970.750 279.316, 967.497 279.218, 966.271 278.809 C 963.454 277.869, 961.475 277.834, 939.371 278.327 C 929.401 278.550, 920.752 279.035, 920.151 279.406 C 918.198 280.614, 886.732 281.240, 881.500 280.176 C 872.470 278.339, 855.665 275.764, 846.500 274.814 C 841.550 274.300, 833.900 273.458, 829.500 272.942 C 814.895 271.229, 807.620 271.091, 802.500 272.432" stroke="#f9c6c6" fill="#f9c6c6" fill-opacity="0.2" fill-rule="evenodd"/><path class="svg-region-Ol" d="M 442 385.114 C 433.375 387.406, 428.608 389.681, 422.233 394.548 C 419.747 396.447, 417.102 398, 416.356 398 C 415.610 398, 415 398.637, 415 399.417 C 415 400.196, 414.556 400.983, 414.012 401.167 C 412.072 401.822, 400.072 411.519, 399.988 412.500 C 399.919 413.312, 391.842 420.466, 388.248 422.899 C 387.099 423.677, 378.846 434.858, 377.374 437.631 C 374.318 443.386, 371.921 453.543, 370.915 465 C 368.096 497.090, 367.923 511.220, 370.039 536.500 C 371.177 550.085, 375.598 583.409, 376.607 586 C 376.928 586.825, 377.569 591.325, 378.031 596 C 380.622 622.183, 385.838 643.167, 397.049 672.500 C 398.100 675.250, 399.815 679.975, 400.860 683 C 405.761 697.187, 409.498 706.022, 415.162 716.805 C 424.624 734.817, 434.613 751.516, 442.410 762.356 C 446.310 767.777, 451.300 774.790, 453.500 777.941 C 455.700 781.092, 460.761 787.231, 464.747 791.585 C 468.732 795.938, 471.995 799.837, 471.997 800.250 C 471.998 800.663, 472.788 801.810, 473.750 802.801 C 474.712 803.791, 476.556 806.010, 477.847 807.732 C 479.137 809.453, 482.062 812.131, 484.347 813.681 C 486.631 815.231, 489.095 817.063, 489.821 817.750 C 490.548 818.437, 491.543 819, 492.032 819 C 492.522 819, 493.727 819.830, 494.711 820.844 C 496.850 823.048, 500.019 824.742, 510 829.015 C 526.500 836.078, 530.873 837.232, 541 837.197 C 553.898 837.153, 568.885 835.995, 569.504 834.994 C 569.937 834.292, 576.396 832.684, 579.500 832.505 C 580.050 832.473, 580.950 832.201, 581.500 831.901 C 582.050 831.600, 584.525 830.767, 587 830.049 C 589.475 829.331, 593.875 827.677, 596.777 826.372 C 599.680 825.067, 602.412 824, 602.850 824 C 604.110 824, 615.464 817.715, 615.833 816.814 C 616.017 816.366, 616.597 816, 617.124 816 C 619.551 816, 635.949 802.758, 646.500 792.278 C 663.395 775.497, 668.152 770.056, 667.561 768.191 C 667.177 766.981, 668.494 764.610, 671.586 760.946 C 674.113 757.951, 677.017 754.512, 678.037 753.304 C 679.058 752.096, 680.603 749.734, 681.472 748.054 C 682.341 746.374, 683.425 745, 683.881 745 C 684.337 745, 686.587 742.325, 688.880 739.056 C 691.173 735.787, 695.128 731.174, 697.669 728.806 C 700.210 726.438, 704.611 722.250, 707.450 719.500 C 710.288 716.750, 715.171 712.110, 718.301 709.189 C 721.430 706.268, 725.230 702.218, 726.745 700.189 C 728.260 698.160, 731.075 694.773, 733 692.662 C 734.925 690.551, 736.896 688.076, 737.380 687.162 C 737.864 686.248, 739.714 683.925, 741.491 682 C 744.891 678.317, 754.323 662.990, 759.954 652 C 761.785 648.425, 763.833 644.825, 764.505 644 C 765.177 643.175, 766.541 640.250, 767.536 637.500 C 768.531 634.750, 770.386 630.672, 771.658 628.437 C 772.930 626.202, 775.062 621.477, 776.396 617.937 C 777.729 614.397, 779.810 609.025, 781.019 606 C 782.894 601.310, 783.137 599.248, 782.669 592 C 781.798 578.501, 775.981 563.663, 768.525 555.916 C 767.686 555.045, 767 553.898, 767 553.368 C 767 552.837, 765.313 550.591, 763.250 548.375 C 761.188 546.160, 758.756 543.482, 757.847 542.424 C 755.039 539.156, 749.728 534.614, 744.500 531.010 C 741.750 529.115, 738.375 526.606, 737 525.435 C 734.497 523.303, 726.884 518.620, 717.500 513.440 C 709.758 509.166, 709.713 509.143, 706 507.527 C 704.075 506.690, 701.150 505.112, 699.500 504.021 C 697.850 502.930, 692.675 500.060, 688 497.643 C 683.325 495.226, 678.150 492.520, 676.500 491.630 C 674.850 490.740, 672.920 490.010, 672.210 490.006 C 669.848 489.995, 663.563 486.221, 658.138 481.557 C 648.153 472.974, 638.218 469.978, 627.771 472.401 C 620.440 474.101, 615.131 476.830, 610 481.535 C 606.637 484.619, 606.207 484.734, 599 484.485 C 586.627 484.058, 577.363 481.863, 570 477.614 C 564.083 474.199, 547.472 461.349, 544.670 458.020 C 543.212 456.287, 541.606 455.125, 541.101 455.438 C 540.177 456.009, 535 450.563, 535 449.020 C 535 447.870, 517.754 433, 516.420 433 C 515.823 433, 513.926 431.247, 512.203 429.104 C 509.065 425.199, 506.643 420.358, 501.513 407.736 C 500 404.015, 498.366 400.726, 497.881 400.427 C 497.397 400.127, 497 399.220, 497 398.410 C 497 396.442, 491.159 391.347, 483.636 386.753 L 477.500 383.006 463.500 383.064 C 452.836 383.108, 447.713 383.596, 442 385.114" stroke="#aa444d" fill="#aa444d" fill-opacity="0.2" fill-rule="evenodd"/><path class="svg-region-Or" d="M 1323 352.449 C 1314.259 353.184, 1308.300 354.186, 1306.096 355.292 C 1304.224 356.231, 1301.694 357, 1300.472 357 C 1296.587 357, 1289.754 361.645, 1281 370.236 C 1274.096 377.011, 1271.376 380.636, 1266.513 389.539 C 1259.426 402.515, 1259.445 402.484, 1255.125 408.107 C 1253.268 410.523, 1250.897 414.385, 1249.855 416.689 C 1248.813 418.993, 1246.282 422.628, 1244.230 424.766 C 1242.179 426.905, 1239.150 430.644, 1237.500 433.077 C 1235.850 435.510, 1233.923 438.109, 1233.217 438.854 C 1232.512 439.599, 1231.089 441.849, 1230.056 443.854 C 1229.023 445.859, 1225.196 450.588, 1221.552 454.362 C 1215.131 461.013, 1211.978 465.819, 1210.637 471 C 1208.946 477.532, 1182.997 488.145, 1164 490.074 C 1159.325 490.548, 1153.475 491.381, 1151 491.925 C 1148.525 492.468, 1141.910 492.932, 1136.300 492.956 L 1126.100 493 1122.338 497.500 C 1120.269 499.975, 1118.037 502, 1117.378 502 C 1116.719 502, 1113.167 504.807, 1109.484 508.238 C 1105.801 511.669, 1101.307 515.381, 1099.497 516.488 C 1097.687 517.595, 1093.370 520.413, 1089.904 522.750 C 1086.438 525.087, 1083.195 527, 1082.698 527 C 1082.200 527, 1079.179 529.138, 1075.984 531.750 C 1072.790 534.362, 1067.732 537.976, 1064.744 539.780 C 1061.757 541.584, 1058.449 543.864, 1057.394 544.847 C 1056.340 545.830, 1054.650 547.096, 1053.641 547.661 C 1048.425 550.580, 1023.337 573.479, 1021.498 577 C 1020.779 578.375, 1018.782 580.850, 1017.060 582.500 C 1006.029 593.066, 1002.239 606.620, 1005.519 623.765 C 1007.066 631.848, 1012.251 642.584, 1018.500 650.641 C 1024.813 658.782, 1038.907 674.179, 1043.373 677.815 C 1045.613 679.638, 1048.132 682.161, 1048.972 683.422 C 1050.758 686.102, 1056.766 693, 1057.316 693 C 1057.523 693, 1060.602 695.813, 1064.159 699.250 C 1067.716 702.688, 1073.451 707.525, 1076.905 710 C 1080.359 712.475, 1085.973 717.200, 1089.382 720.500 C 1096.535 727.427, 1109.184 737.495, 1116.680 742.229 C 1125.655 747.897, 1133.216 754.079, 1142.247 763.131 C 1155.343 776.260, 1161.330 779.939, 1178.962 785.699 C 1198.850 792.196, 1209.838 793.350, 1252 793.369 C 1273.075 793.379, 1279.728 793.056, 1284.500 791.791 C 1287.800 790.916, 1293.018 789.523, 1296.096 788.695 C 1302.370 787.007, 1310.271 783.231, 1317 778.703 C 1323.113 774.590, 1334.998 762.091, 1341.310 753.138 C 1344.164 749.089, 1347.737 744.305, 1349.250 742.506 C 1350.763 740.708, 1352 738.926, 1352 738.548 C 1352 738.170, 1353.369 735.871, 1355.042 733.439 C 1356.715 731.008, 1359.083 726.877, 1360.304 724.259 C 1361.525 721.642, 1363.981 717.394, 1365.762 714.820 C 1367.543 712.246, 1369 709.818, 1369 709.425 C 1369 709.032, 1370.982 704.387, 1373.404 699.102 C 1381.076 682.366, 1386.717 664.037, 1389.011 648.396 C 1390.076 641.127, 1390.565 637.695, 1392.978 620.500 C 1394.156 612.110, 1398.809 589.909, 1399.896 587.500 C 1401.432 584.091, 1407.189 563.973, 1412.008 545.171 C 1413.041 541.140, 1414.310 537.315, 1414.828 536.671 C 1416.655 534.398, 1418.562 518.404, 1419.738 495.500 C 1421.305 464.975, 1418.107 434.298, 1411.889 420.223 C 1410.850 417.871, 1410 415.211, 1410 414.311 C 1410 411.734, 1399.362 391.337, 1393.274 382.243 C 1388.864 375.655, 1386.408 373.111, 1381.124 369.661 C 1377.481 367.283, 1372.250 364.525, 1369.500 363.532 C 1366.750 362.539, 1363.825 361.163, 1363 360.475 C 1359.800 357.807, 1348.944 353.020, 1344.826 352.461 C 1342.447 352.138, 1339.600 351.748, 1338.500 351.594 C 1337.400 351.440, 1330.425 351.825, 1323 352.449" stroke="#aa444d" fill="#aa444d" fill-opacity="0.2" fill-rule="evenodd"/><path class="svg-region-Pl" d="M 549.241 432.250 C 543.688 438.178, 543.740 444.156, 549.442 455.332 C 554.942 466.111, 557.068 468.844, 563.919 473.947 C 573.400 481.008, 584.133 483.987, 602.400 484.626 C 613.843 485.027, 614.915 484.392, 614.968 477.184 C 615.010 471.493, 614.252 470.317, 607.109 465 C 602.219 461.360, 600.348 459.098, 597.319 453.166 C 593.283 445.259, 588.577 440.704, 583.250 439.547 C 581.462 439.159, 580 438.512, 580 438.110 C 580 437.707, 577.862 436.822, 575.250 436.141 C 572.638 435.461, 568.250 433.805, 565.500 432.462 C 558.888 429.231, 552.152 429.143, 549.241 432.250" stroke="#f9d3d3" fill="#f9d3d3" fill-opacity="0.2" fill-rule="evenodd"/><path class="svg-region-Pr" d="M 1194.500 451.055 C 1192.850 451.534, 1187.556 452.209, 1182.736 452.554 L 1173.973 453.182 1171.481 458.449 C 1170.109 461.348, 1166.632 465.940, 1163.745 468.665 C 1160.860 471.388, 1157.047 475.727, 1155.271 478.308 C 1153.494 480.888, 1151.469 483.025, 1150.771 483.055 C 1150.072 483.086, 1148.443 484.448, 1147.151 486.083 C 1145.170 488.589, 1145.007 489.304, 1146.111 490.634 C 1147.123 491.853, 1148.456 492.061, 1151.961 491.549 C 1154.457 491.184, 1160.100 490.514, 1164.500 490.061 C 1175.117 488.966, 1187.687 485.294, 1198.049 480.262 C 1207.091 475.870, 1211 472.877, 1211 470.346 C 1211 469.480, 1212.199 466.568, 1213.664 463.876 C 1216.092 459.415, 1216.204 458.749, 1214.923 456.356 C 1214.150 454.912, 1212.614 453.166, 1211.509 452.477 C 1208.871 450.832, 1198.307 449.949, 1194.500 451.055" stroke="#f9d3d3" fill="#f9d3d3" fill-opacity="0.2" fill-rule="evenodd"/><path class="svg-region-DLl" d="M 623.116 423.723 C 621.804 423.971, 618.654 425.627, 616.116 427.403 C 610.379 431.415, 605.228 434, 602.969 434 C 602.021 434, 600.663 434.701, 599.952 435.558 C 599.241 436.414, 596.733 438.244, 594.379 439.624 L 590.098 442.132 593.395 446.816 C 595.208 449.392, 597.666 453.565, 598.857 456.088 C 600.251 459.043, 602.709 461.885, 605.761 464.070 C 612.256 468.722, 615 471.862, 615 474.646 C 615 477.528, 614.792 477.529, 621.780 474.613 C 624.926 473.300, 629.389 471.914, 631.698 471.533 C 634.007 471.153, 637.832 469.635, 640.198 468.160 C 642.564 466.685, 645.390 464.991, 646.477 464.395 C 647.565 463.799, 648.757 462.228, 649.128 460.905 C 650.162 457.207, 650.112 447.425, 649.044 444.615 C 647.968 441.786, 641.491 435.014, 635.543 430.500 C 633.369 428.850, 630.537 426.488, 629.250 425.250 C 627.962 424.012, 626.592 423.061, 626.205 423.136 C 625.817 423.211, 624.427 423.475, 623.116 423.723" stroke="#b7d6d3" fill="#b7d6d3" fill-opacity="0.2" fill-rule="evenodd"/><path class="svg-region-DLr" d="M 1154.500 448.488 C 1152.300 449.284, 1149.294 450.175, 1147.820 450.469 C 1146.346 450.763, 1144.466 451.677, 1143.641 452.502 C 1142.817 453.326, 1141.747 454, 1141.263 454 C 1140.778 454, 1139.622 454.563, 1138.692 455.250 C 1137.129 456.406, 1137.113 457.177, 1138.483 465.500 C 1139.298 470.450, 1139.973 476.442, 1139.983 478.816 C 1140 483.090, 1141.353 486.884, 1143.316 488.162 C 1144.807 489.132, 1153.584 481.251, 1157.139 475.750 C 1158.827 473.137, 1160.512 471, 1160.883 471 C 1162.520 471, 1168.899 463.647, 1171.333 458.956 C 1174.294 453.248, 1174.560 452, 1172.814 452 C 1172.162 452, 1170.615 451.048, 1169.377 449.884 C 1166.518 447.198, 1159.806 446.568, 1154.500 448.488" stroke="#b7d6d3" fill="#b7d6d3" fill-opacity="0.2" fill-rule="evenodd"/><path class="svg-region-OGl" d="M 577 391.160 C 575.075 391.686, 571.305 392.522, 568.623 393.018 C 562.651 394.122, 561.351 395.256, 556.285 403.778 C 550.230 413.961, 549.360 416.992, 550.998 422.191 C 552.765 427.801, 554.707 429.999, 557.905 430.006 C 559.332 430.010, 561.850 430.742, 563.500 431.633 C 567.787 433.949, 576.163 437, 578.236 437 C 579.206 437, 580 437.414, 580 437.921 C 580 438.427, 581.345 439.136, 582.989 439.497 C 584.632 439.858, 586.234 440.569, 586.548 441.077 C 587.673 442.898, 590.870 441.935, 596.762 438 C 600.057 435.800, 603.456 434, 604.317 434 C 605.178 434, 606.139 433.585, 606.452 433.077 C 606.766 432.569, 608.330 431.867, 609.928 431.516 C 611.526 431.165, 613.106 430.166, 613.440 429.296 C 614.156 427.430, 614.487 427.717, 609.511 425.890 C 606.614 424.826, 605.247 423.614, 604.517 421.463 C 603.964 419.833, 602.946 417.905, 602.255 417.178 C 601.554 416.440, 601.259 414.818, 601.587 413.509 C 602.119 411.389, 599.298 400.693, 596.813 395.406 C 596.200 394.101, 593.848 392.687, 590.576 391.656 C 584.781 389.829, 582.219 389.735, 577 391.160" stroke="#d66e9d" fill="#d66e9d" fill-opacity="0.2" fill-rule="evenodd"/><path class="svg-region-OGr" d="M 1181.500 402.442 C 1176.242 404.831, 1173.176 408.690, 1171.039 415.610 C 1169.917 419.240, 1169 422.968, 1169 423.894 C 1169 424.820, 1168.153 427.239, 1167.118 429.269 C 1166.082 431.300, 1164.918 435.499, 1164.531 438.600 C 1163.837 444.150, 1163.885 444.298, 1167.607 448.110 C 1172.228 452.841, 1174.743 453.337, 1187 451.927 C 1201.111 450.304, 1208.945 450.644, 1212.204 453.020 L 1214.908 454.992 1215.906 451.378 C 1216.455 449.390, 1217.542 447.029, 1218.323 446.132 C 1219.103 445.234, 1220.688 441.575, 1221.844 438 C 1224.238 430.600, 1223.836 427.118, 1219.574 418.321 C 1213.651 406.100, 1205.658 401.001, 1192.500 401.049 C 1187.943 401.066, 1183.209 401.665, 1181.500 402.442" stroke="#d66e9d" fill="#d66e9d" fill-opacity="0.2" fill-rule="evenodd"/><path class="svg-region-OLl" d="M 596.656 392.750 C 596.402 393.163, 597.501 397.533, 599.097 402.463 C 600.693 407.393, 601.746 412.225, 601.436 413.201 C 601.126 414.177, 601.541 416.219, 602.358 417.738 C 603.175 419.257, 604.094 421.299, 604.400 422.276 C 605.099 424.505, 613.630 428.252, 616.170 427.446 C 621.178 425.856, 625.252 417.510, 622 415.500 C 621.450 415.160, 621 413.761, 621 412.391 C 621 410.898, 619.598 408.458, 617.500 406.297 C 615.575 404.315, 614 402.132, 614 401.445 C 614 400.258, 610.268 397.523, 603.563 393.798 C 600.277 391.972, 597.404 391.536, 596.656 392.750" stroke="#c4875d" fill="#c4875d" fill-opacity="0.2" fill-rule="evenodd"/><path class="svg-region-OABl" d="M 839.558 533.906 C 839.186 534.508, 837.934 535, 836.774 535 C 835.615 535, 834.929 535.262, 835.250 535.583 C 835.833 536.166, 846.278 537.705, 855.261 538.533 C 857.880 538.774, 861.728 539.841, 863.811 540.904 C 868.879 543.489, 883.010 546.390, 884.291 545.109 C 885.976 543.424, 884.285 541.259, 880.827 540.675 C 874.401 539.589, 866.433 537.747, 859.500 535.744 C 851.085 533.312, 840.527 532.339, 839.558 533.906" stroke="#81244d" fill="#81244d" fill-opacity="0.2" fill-rule="evenodd"/><path class="svg-region-OABr" d="M 903 541.042 C 899.975 541.460, 894.462 541.847, 890.750 541.901 C 884.682 541.990, 884 542.204, 884 544.016 C 884 545.976, 884.471 546.018, 901.090 545.572 C 914.495 545.211, 918.707 544.767, 920.622 543.512 C 921.965 542.632, 922.798 541.482, 922.473 540.956 C 921.799 539.866, 911.168 539.913, 903 541.042 M 978.515 556.366 C 977.391 557.187, 976.921 558.351, 977.306 559.355 C 978.243 561.796, 979.874 561.349, 980.601 558.453 C 981.409 555.232, 980.841 554.664, 978.515 556.366" stroke="#81244d" fill="#81244d" fill-opacity="0.2" fill-rule="evenodd"/><path class="svg-region-OVl" d="M 662.362 422.284 C 656.849 426.009, 650.685 428.789, 647 429.212 C 642.722 429.705, 643.352 433.080, 648.940 439.609 C 653.477 444.910, 653.983 445.983, 653.991 450.316 C 653.996 452.964, 653.519 456.031, 652.931 457.130 C 651.579 459.655, 653.293 462, 656.492 462 C 662.131 462, 675.798 467.697, 686.346 474.445 C 689.250 476.302, 693.623 478.349, 696.063 478.992 C 698.503 479.635, 701.544 481.264, 702.820 482.613 C 704.696 484.595, 705.766 484.947, 708.409 484.451 C 711.419 483.886, 712.028 484.256, 716.089 489.106 C 719.197 492.818, 720.500 495.280, 720.500 497.437 C 720.500 499.530, 721.133 500.788, 722.500 501.409 C 723.600 501.910, 725.865 504.154, 727.533 506.396 C 729.200 508.639, 731.453 510.929, 732.538 511.487 C 735.721 513.122, 748 523.275, 748 524.272 C 748 524.774, 752.858 529.981, 758.795 535.843 C 764.732 541.704, 775.068 552.217, 781.764 559.204 C 788.460 566.192, 794.179 571.520, 794.473 571.044 C 794.767 570.568, 793.830 567.836, 792.392 564.972 C 790.220 560.648, 789.849 558.767, 790.202 553.882 C 790.536 549.268, 790.322 548, 789.208 548 C 787.720 548, 780.400 542.746, 778.250 540.136 C 777.563 539.301, 777 537.111, 777 535.269 C 777 531.138, 774.021 525.136, 769.472 520.100 C 766.190 516.468, 765.798 516.313, 761.046 516.770 C 756.669 517.190, 755.420 516.840, 750.781 513.892 C 739.851 506.944, 726 494.454, 726 491.545 C 726 490.088, 720.146 482.258, 716.750 479.174 C 711.472 474.380, 711.808 473, 718.250 473.001 C 723.639 473.002, 730.484 475.146, 735.123 478.288 C 738.769 480.756, 747.449 481.987, 761.250 481.994 C 772.162 482, 773 481.863, 773 480.085 C 773 478.088, 764.602 470, 762.529 470 C 761.874 470, 759.189 468.912, 756.561 467.581 C 753.934 466.251, 750.595 464.870, 749.142 464.514 C 747.689 464.157, 745.387 463.144, 744.026 462.263 L 741.553 460.661 744.928 459.524 L 748.303 458.388 740.901 454.824 C 731.498 450.296, 721.632 448.486, 711.408 449.412 C 707.143 449.799, 702.818 450.562, 701.797 451.109 C 700.776 451.655, 697.597 451.967, 694.734 451.801 C 689.810 451.516, 689.408 451.283, 687.317 447.500 C 686.101 445.300, 682.492 441.531, 679.298 439.125 C 671.468 433.228, 669.720 430.666, 669.193 424.320 C 668.951 421.394, 668.409 419, 667.988 419 C 667.568 419, 665.036 420.478, 662.362 422.284" stroke="#593939" fill="#593939" fill-opacity="0.2" fill-rule="evenodd"/><path class="svg-region-OVr" d="M 1114 444 C 1112.417 446.224, 1111.065 447, 1108.778 447 C 1106.431 447, 1104.753 448.017, 1101.764 451.250 L 1097.836 455.500 1083.456 455.450 L 1069.077 455.400 1067.950 458.450 C 1062.948 471.990, 1059.010 476.489, 1051.292 477.480 C 1048.656 477.818, 1042.675 478.818, 1038 479.702 C 1033.325 480.585, 1025.787 481.269, 1021.250 481.220 L 1013 481.132 1013 484.566 L 1013 488 1007.452 488 C 1002.688 488, 1001.542 488.388, 999.341 490.750 C 996.148 494.176, 994.911 497.120, 993.983 503.500 C 993.495 506.856, 993.667 509.322, 994.508 511 C 996.268 514.513, 998.165 526.805, 997.605 531.072 C 997.348 533.037, 996.468 536.187, 995.651 538.072 C 994.834 539.958, 993.631 542.944, 992.979 544.709 C 992.293 546.561, 989.550 549.647, 986.492 552.006 C 983.578 554.254, 980.916 557.198, 980.578 558.547 C 980.239 559.896, 979.380 561, 978.669 561 C 976.877 561, 973.150 566.266, 969.375 574.132 C 967.624 577.779, 965.698 581.068, 965.096 581.441 C 963.978 582.131, 963.526 587, 964.579 587 C 964.897 587, 967.710 584.798, 970.829 582.107 C 973.948 579.415, 977.883 576.378, 979.573 575.357 C 981.262 574.336, 984.691 571.188, 987.192 568.363 C 991.862 563.089, 1005.364 550.340, 1012.534 544.435 C 1015.551 541.950, 1018.132 540.861, 1022.776 540.114 C 1026.934 539.444, 1031.875 537.540, 1037.742 534.348 C 1053.023 526.032, 1056.910 522.824, 1068.500 508.959 C 1072.350 504.354, 1076.243 499.823, 1077.151 498.891 C 1078.059 497.960, 1079.102 496.253, 1079.469 495.098 C 1080.129 493.020, 1085.848 488.013, 1087.594 487.986 C 1088.092 487.978, 1091.119 485.503, 1094.319 482.486 C 1097.519 479.469, 1100.527 477, 1101.002 477 C 1101.477 477, 1102.132 476.212, 1102.457 475.250 C 1102.783 474.288, 1105.159 471.925, 1107.737 470 C 1114.962 464.605, 1117.856 461.115, 1121.575 453.316 C 1125.492 445.099, 1125.560 444.703, 1123.429 442.571 C 1120.793 439.936, 1116.423 440.598, 1114 444 M 1064.509 492.197 C 1062.313 494.340, 1059.207 496.748, 1057.605 497.547 C 1054.250 499.221, 1049.404 499.462, 1048.500 498 C 1047.572 496.498, 1040.730 496.797, 1036.607 498.520 C 1033.211 499.939, 1021.326 502.683, 1014.500 503.625 C 994.961 506.320, 994.019 507.213, 999.582 517.764 C 1004.773 527.609, 1010.654 533.232, 1017.396 534.800 C 1022.585 536.006, 1022.984 535.951, 1026.555 533.528 C 1028.608 532.134, 1032.136 530.465, 1034.394 529.819 C 1038.147 528.745, 1045.702 524.033, 1053.018 518.203 C 1056.071 515.770, 1059 510.795, 1059 508.042 C 1059 507.134, 1060.267 504.391, 1061.815 501.946 C 1067.279 493.318, 1070.180 488.002, 1069.345 488.149 C 1068.880 488.232, 1066.704 490.053, 1064.509 492.197" stroke="#593939" fill="#593939" fill-opacity="0.2" fill-rule="evenodd"/>
    </svg>