<svg xmlns="http://www.w3.org/2000/svg" width="1785" height="1131" viewBox="0 0 1785 1131" version="1.1">
    <path class="svg-region-SV" d="M 859.279 330.549 C 854.687 332.592, 838.830 334.991, 829.886 334.996 C 825.699 334.998, 819.849 335.464, 816.886 336.031 C 813.924 336.598, 806.233 337.680, 799.797 338.435 C 793.360 339.189, 786.835 340.458, 785.297 341.253 C 783.758 342.048, 781.150 343.401, 779.500 344.259 C 770.188 349.102, 766.065 350.351, 763.399 349.136 C 761.332 348.194, 760.432 348.212, 759.151 349.220 C 758.257 349.924, 756.923 350.950, 756.185 351.500 C 755.448 352.050, 753.492 353.709, 751.840 355.187 C 750.188 356.665, 746.960 359.358, 744.668 361.171 C 738.778 365.831, 724 381.634, 724 383.272 C 724 383.578, 722.481 385.392, 720.625 387.304 C 717.451 390.572, 714.892 395.976, 713.553 402.238 C 713.145 404.148, 711.736 405.604, 708.896 407.053 C 706.657 408.195, 703.402 410.771, 701.662 412.776 C 694.810 420.677, 688.974 424.657, 682.185 426.060 C 675.986 427.340, 668.137 430.925, 666.065 433.422 C 665.344 434.290, 663.513 435, 661.995 435 C 659.291 435, 659.221 435.151, 658.536 442.463 C 657.759 450.750, 658.117 451.985, 661.309 452.032 C 663.791 452.068, 665.978 453.625, 667.619 456.523 C 668.692 458.418, 669.891 458.500, 696.619 458.500 C 711.954 458.500, 726.661 458.892, 729.301 459.371 C 733.379 460.111, 734.298 459.975, 735.399 458.470 C 736.498 456.966, 738.594 456.653, 749.188 456.409 C 761.813 456.117, 761.800 456.120, 769.733 451.503 C 769.861 451.429, 769.527 449.838, 768.991 447.968 C 768.087 444.818, 768.286 444.292, 771.689 440.806 C 773.845 438.598, 777.250 436.459, 779.931 435.628 C 790.521 432.346, 799.073 428.873, 804.603 425.611 C 807.846 423.698, 813.416 421.163, 816.981 419.978 C 820.546 418.793, 824.371 417.334, 825.481 416.735 C 826.591 416.137, 831.325 415.297, 836 414.870 C 862.611 412.435, 860.816 412.297, 871.370 417.602 C 872.948 418.395, 878.914 419.739, 884.628 420.588 L 895.015 422.131 901.428 419.566 C 910.641 415.880, 915.313 416.411, 920.657 421.750 C 922.446 423.537, 924.039 424, 928.407 424 C 935.395 424, 938.502 425.437, 941.209 429.922 C 943.546 433.794, 948.983 439.182, 953.031 441.637 C 954.424 442.482, 956.315 444.484, 957.235 446.086 C 958.155 447.689, 959.554 449, 960.346 449 C 961.137 449, 964.270 451.684, 967.307 454.965 L 972.830 460.930 976.236 457.161 C 978.109 455.088, 981.137 452.772, 982.965 452.015 C 986.070 450.728, 986.411 450.789, 988.150 452.937 C 989.478 454.577, 990.368 454.948, 991.256 454.230 C 991.940 453.677, 994.750 452.923, 997.500 452.554 C 1002.174 451.928, 1002.853 452.133, 1007.909 455.692 C 1014.961 460.657, 1015.962 462.280, 1013.590 464.901 C 1012.585 466.011, 1011.533 468.962, 1011.252 471.459 C 1010.766 475.768, 1010.867 476, 1013.229 476 C 1014.598 476, 1019.044 474.469, 1023.109 472.598 C 1035.422 466.930, 1053.907 461.624, 1066.953 460.013 C 1071.460 459.457, 1073.882 458.629, 1074.984 457.269 C 1076.125 455.859, 1078.396 455.133, 1083.207 454.640 C 1086.862 454.266, 1091.412 453.308, 1093.318 452.511 C 1096.253 451.285, 1096.877 450.446, 1097.392 447.032 C 1097.726 444.814, 1098.272 441.200, 1098.605 439 C 1099.186 435.160, 1099.100 435, 1096.473 435 C 1094.710 435, 1092.596 433.844, 1090.530 431.750 C 1088.766 429.962, 1085.051 426.430, 1082.275 423.900 C 1076.367 418.517, 1073 411.690, 1073 405.095 C 1073 399.841, 1070.855 396, 1067.921 396 C 1066.840 396, 1063.809 393.750, 1061.186 391 C 1058.563 388.250, 1055.986 385.987, 1055.459 385.972 C 1054.314 385.939, 1050.441 381.890, 1046.738 376.853 C 1045.259 374.842, 1041.713 372.039, 1038.832 370.603 C 1034.067 368.229, 1032.540 368, 1021.478 368 C 1009.833 368, 1009.255 367.900, 1007 365.500 C 1005.209 363.593, 1003.642 363, 1000.397 363 C 996.321 363, 993 361.140, 993 358.857 C 993 357.359, 990.484 355.135, 987.510 354.004 C 986.058 353.452, 981.594 353, 977.590 353 C 968.940 353, 967.046 351.587, 966.252 344.541 L 965.740 340 961.048 340 C 957.392 340, 955.489 340.656, 952.428 342.972 C 947.751 346.511, 946.099 346.611, 935 344.029 C 930.325 342.942, 920.875 341.536, 914 340.906 C 901.047 339.718, 896.750 338.519, 888.830 333.881 C 884.933 331.599, 882.698 331.078, 875.330 330.738 C 870.473 330.513, 865.600 330.057, 864.500 329.723 C 863.400 329.389, 861.050 329.760, 859.279 330.549" stroke="#c666b5" fill="#c666b5" fill-opacity="0.2" fill-rule="evenodd"/><path class="svg-region-IF" d="M 851.500 556.235 C 840.985 557.939, 825.879 561.920, 821.355 564.180 C 816.730 566.489, 817.032 565.885, 812.411 582.113 C 810.726 588.033, 849.215 603.197, 869.421 604.573 C 873.778 604.870, 878.140 605.540, 879.115 606.062 C 883.680 608.505, 921.081 603.645, 925.461 600.040 C 926.032 599.569, 928.975 598.315, 932 597.254 C 939.913 594.476, 959 580.887, 959 578.031 C 959 577.464, 957.987 576.998, 956.750 576.995 C 953.872 576.989, 949.638 573.456, 947.273 569.087 C 945.790 566.348, 944.149 565.207, 938.963 563.311 C 935.408 562.012, 931.600 560.576, 930.500 560.121 C 919.122 555.417, 919.920 555.506, 888 555.381 C 871.225 555.316, 854.800 555.700, 851.500 556.235" stroke="#f2823b" fill="#f2823b" fill-opacity="0.2" fill-rule="evenodd"/><path class="svg-region-PF" d="M 982.218 452.043 C 979.143 453.278, 973.225 459.744, 971.498 463.756 C 970.727 465.547, 969.011 467.425, 967.685 467.930 C 965.500 468.760, 964 470.817, 964 472.983 C 964 475.894, 975.010 479.105, 992.743 481.366 C 993.976 481.524, 995.289 481.955, 995.659 482.326 C 996.981 483.647, 1006.550 483.003, 1008.777 481.443 C 1010.570 480.188, 1011 478.920, 1011 474.891 C 1011 471.588, 1011.736 468.617, 1013.175 466.118 C 1015.331 462.371, 1015.333 462.317, 1013.425 459.701 C 1012.366 458.250, 1011.182 457.049, 1010.794 457.031 C 1010.406 457.014, 1008.390 455.847, 1006.313 454.438 C 1003.025 452.206, 1001.891 451.963, 997.519 452.550 C 994.759 452.921, 991.918 453.695, 991.206 454.271 C 990.252 455.043, 989.513 454.750, 988.399 453.159 C 986.761 450.821, 985.727 450.634, 982.218 452.043 M 735.859 457.087 C 733.907 458.293, 736.058 464.978, 738.868 466.440 C 742.613 468.389, 745.769 472.088, 746.162 474.990 C 746.635 478.478, 749.349 478.656, 755.396 475.597 C 761.842 472.336, 767.556 463.807, 766.504 459.018 L 765.862 456.094 751.362 456.280 C 743.388 456.383, 736.411 456.746, 735.859 457.087" stroke="#faaaaa" fill="#faaaaa" fill-opacity="0.2" fill-rule="evenodd"/><path class="svg-region-AAB" d="M 816 533.652 C 815.175 533.924, 813.600 534.528, 812.500 534.995 C 811.400 535.462, 803.950 536.087, 795.944 536.384 C 775.068 537.159, 769.420 539.636, 775.166 545.495 C 776.450 546.804, 780.200 551.361, 783.500 555.622 C 798.151 574.536, 813 587.209, 813 580.799 C 813 580.203, 813.891 576.724, 814.980 573.067 C 816.852 566.780, 817.218 566.293, 821.695 564.117 C 827.314 561.387, 842.145 557.674, 854 556.028 C 859.423 555.275, 872.635 554.966, 890.500 555.174 C 919.497 555.512, 919.550 555.518, 930.500 560.138 C 931.600 560.602, 935.425 562.059, 939 563.375 C 944.762 565.497, 945.777 566.284, 947.937 570.309 C 950.362 574.826, 953.321 577, 957.047 577 C 958.121 577, 959 577.471, 959 578.046 C 959 578.621, 960.919 577.609, 963.264 575.796 C 967.491 572.528, 969.617 570.604, 981.811 559.004 C 985.282 555.702, 988.461 553, 988.874 553 C 989.288 553, 990.919 551.650, 992.500 550 L 995.374 547 992.211 547 C 990.472 547, 987.575 547.898, 985.774 548.996 C 983.973 550.094, 981.578 550.994, 980.450 550.996 C 979.323 550.998, 977.933 551.467, 977.363 552.037 C 975.937 553.463, 971.421 551.655, 970.061 549.114 C 969.477 548.023, 969 546.067, 969 544.766 C 969 541.642, 967.225 540, 963.849 540 C 962.336 540, 958.488 539.306, 955.299 538.458 C 940.865 534.618, 907.766 533.630, 891.500 536.552 C 882.412 538.185, 869.357 537.328, 862.500 534.650 C 859.324 533.410, 854.276 533.095, 838 533.123 C 826.725 533.142, 816.825 533.380, 816 533.652" stroke="#7f3c1a" fill="#7f3c1a" fill-opacity="0.2" fill-rule="evenodd"/><path class="svg-region-APB" d="M 766.250 453.220 C 764.026 454.293, 763.181 456, 764.875 456 C 765.356 456, 766.028 457.388, 766.367 459.085 C 767.528 464.892, 760.603 473.669, 752.268 476.954 C 748.174 478.567, 746 477.747, 746 474.590 C 746 470.417, 744.565 470.892, 740.042 476.560 C 736.650 480.811, 735.091 482, 732.910 482 C 731.374 482, 729.840 482.450, 729.500 483 C 729.160 483.550, 728.030 484, 726.988 484 C 724.110 484, 720 486.153, 720 487.661 C 720 488.407, 721.060 489, 722.393 489 C 723.709 489, 725.040 489.661, 725.350 490.468 C 725.659 491.276, 727.468 492.587, 729.369 493.381 C 733.655 495.171, 752.681 514.033, 754.544 518.338 C 756.575 523.031, 769.750 536, 772.487 536 C 773.260 536, 780.078 534.401, 787.637 532.447 C 813.692 525.710, 823.367 525.300, 894 527.936 C 934.793 529.459, 943.302 530.492, 956.500 535.525 C 960.350 536.993, 965.278 538.854, 967.450 539.661 C 972.103 541.389, 978.792 540.930, 984.470 538.493 C 987.035 537.392, 989.949 536.960, 992.705 537.270 L 996.970 537.751 1009.396 525.625 C 1016.231 518.956, 1022.651 512.129, 1023.662 510.453 C 1024.673 508.777, 1028.987 504.080, 1033.250 500.014 C 1040.773 492.839, 1042.337 490.327, 1039.750 489.573 C 1028.128 486.189, 1026.535 485.465, 1022.910 481.912 C 1016.302 475.434, 1011.696 474.090, 1010.632 478.329 C 1010.311 479.609, 1008.891 481.184, 1007.477 481.829 C 1004.379 483.240, 997.351 483.378, 996.526 482.043 C 996.201 481.516, 994.712 481.090, 993.217 481.096 C 982.211 481.139, 964 475.828, 964 472.577 C 964 471.816, 965.688 469.839, 967.750 468.183 C 972.291 464.537, 971.862 463.673, 966.500 465.665 C 964.300 466.483, 960.025 467.764, 957 468.512 C 953.975 469.260, 949.700 470.361, 947.500 470.959 C 939.011 473.266, 933.284 473.854, 929.386 472.819 C 927.249 472.252, 920.775 471.425, 915 470.982 C 909.225 470.539, 901.603 469.643, 898.061 468.991 C 893.082 468.073, 890.802 468.075, 888.004 468.999 C 885.054 469.972, 882.730 469.881, 875.442 468.505 C 869.041 467.297, 861.386 466.832, 848.500 466.870 C 838.600 466.899, 827.800 466.488, 824.500 465.958 C 811.552 463.876, 806.380 462.651, 803.500 460.985 C 801.850 460.030, 798.164 458.956, 795.308 458.598 C 792.453 458.239, 788.403 457.230, 786.308 456.354 C 781.650 454.407, 772.515 451.976, 770.201 452.068 C 769.266 452.105, 767.487 452.624, 766.250 453.220" stroke="#ac7444" fill="#ac7444" fill-opacity="0.2" fill-rule="evenodd"/><path class="svg-region-PC" d="M 844.500 414.057 C 842.300 414.512, 838.123 414.911, 835.218 414.942 C 832.313 414.974, 828.263 415.712, 826.218 416.583 C 824.173 417.453, 819.650 419.058, 816.166 420.149 C 812.682 421.240, 807.453 423.654, 804.545 425.515 C 799.727 428.596, 791.657 431.928, 780.174 435.576 C 775.923 436.926, 770.291 440.886, 768.683 443.655 C 768.233 444.429, 768.347 446.511, 768.935 448.281 C 769.925 451.260, 770.693 451.710, 779.252 454.324 C 784.338 455.877, 790.750 457.614, 793.500 458.183 C 796.250 458.753, 800.525 460.040, 803 461.043 C 805.475 462.046, 808.760 463.136, 810.299 463.465 C 822.811 466.137, 831.364 466.903, 848.500 466.888 C 862.010 466.876, 869.614 467.323, 874.815 468.435 C 883.440 470.280, 887.194 470.406, 888.698 468.902 C 889.495 468.105, 891.810 468.123, 897.148 468.968 C 901.191 469.608, 909.225 470.506, 915 470.964 C 920.775 471.423, 927.045 472.285, 928.933 472.881 C 932.626 474.048, 937.293 473.610, 946 471.282 C 949.025 470.473, 953.472 469.406, 955.882 468.911 C 963.344 467.378, 972 463.828, 972 462.300 C 972 461.513, 971.484 459.886, 970.853 458.684 C 969.474 456.058, 962.138 449.226, 959.910 448.491 C 959.036 448.203, 957.763 446.926, 957.082 445.653 C 956.401 444.380, 954.641 442.627, 953.172 441.757 C 949.713 439.710, 942 432.364, 942 431.117 C 942 430.587, 940.615 428.769, 938.923 427.077 C 936.121 424.275, 935.267 424, 929.378 424 C 923.766 424, 922.569 423.660, 920.341 421.432 C 915.202 416.293, 910.720 415.848, 901.446 419.558 C 895.356 421.995, 894.657 422.064, 886.775 421.015 C 879.155 420, 872.634 418.097, 864.216 414.430 C 860.685 412.892, 851.017 412.709, 844.500 414.057" stroke="#cda789" fill="#cda789" fill-opacity="0.2" fill-rule="evenodd"/><path class="svg-region-DB" d="M 760.701 271.625 C 760.590 271.731, 755.550 272.124, 749.500 272.500 C 743.450 272.875, 735.781 273.804, 732.457 274.565 C 724.942 276.284, 711.310 282.892, 708.076 286.383 C 706.742 287.822, 705.055 289, 704.326 289 C 703.597 289, 703 289.441, 703 289.980 C 703 290.518, 701.236 291.860, 699.079 292.960 C 695.646 294.711, 685.989 302.318, 676.445 310.788 C 674.764 312.280, 670.748 315.750, 667.519 318.500 C 664.290 321.250, 660.297 324.971, 658.647 326.769 C 656.996 328.566, 653.654 331.031, 651.221 332.246 C 645.381 335.163, 636.685 343.801, 624.788 358.500 C 616.287 369.005, 613.110 372.335, 604.685 379.571 C 602.293 381.626, 603.178 386.088, 607.084 391.663 C 610.050 395.898, 610.806 399.384, 609 400.500 C 608.450 400.840, 608 402.415, 608 404 C 608 405.585, 608.450 407.160, 609 407.500 C 609.550 407.840, 610 410.844, 610 414.176 L 610 420.233 612.750 419.532 C 614.263 419.147, 618.921 418.599, 623.102 418.316 C 630.497 417.816, 630.801 417.886, 634.229 420.896 C 636.168 422.598, 638.323 425.366, 639.020 427.048 C 639.922 429.226, 640.748 429.925, 641.893 429.482 C 646.879 427.552, 648.503 427.867, 651.946 431.432 C 654.945 434.537, 656.008 435, 660.137 435 C 662.747 435, 665.157 434.555, 665.493 434.012 C 666.790 431.912, 674.815 428.042, 681.657 426.216 C 690.029 423.982, 696.514 419.518, 702.563 411.828 C 703.679 410.409, 706.477 408.287, 708.780 407.112 C 711.727 405.609, 713.141 404.164, 713.553 402.238 C 714.892 395.976, 717.451 390.572, 720.625 387.304 C 722.481 385.392, 724.006 383.529, 724.014 383.164 C 724.043 381.779, 737.748 367.057, 742.519 363.286 C 745.262 361.118, 748.853 357.917, 750.499 356.172 C 752.146 354.428, 753.945 352.992, 754.497 352.983 C 755.049 352.973, 756.625 351.780, 758 350.331 C 760.121 348.096, 760.450 346.923, 760.173 342.586 C 759.987 339.677, 760.519 335.542, 761.408 332.988 C 762.491 329.879, 762.975 324.745, 762.985 316.282 C 763 304.189, 763.043 303.964, 767.148 294.393 C 772.638 281.594, 775.711 276.236, 778.674 274.294 C 782.391 271.859, 779.844 270.988, 769.701 271.226 C 764.861 271.339, 760.811 271.519, 760.701 271.625 M 1006.852 272.020 C 1004.456 273.285, 990.820 274.413, 978.750 274.346 C 967.015 274.281, 964.563 274.943, 969.750 276.776 C 974.216 278.354, 979.970 284.556, 981.712 289.668 C 983.289 294.297, 987.285 298.907, 989.775 298.968 C 990.476 298.986, 991.314 300.322, 991.637 301.937 C 991.960 303.552, 993.862 306.436, 995.862 308.346 C 997.863 310.256, 1000.582 313.253, 1001.905 315.005 C 1004.438 318.360, 1004.428 318.389, 999.776 321.055 C 998.828 321.598, 994.553 322.479, 990.276 323.013 C 977.505 324.606, 976.988 324.808, 975.148 328.919 C 974.232 330.964, 971.751 334.158, 969.633 336.017 C 965.980 339.225, 965.807 339.642, 966.246 344.209 C 966.934 351.371, 968.910 353, 976.912 353 C 986.477 353, 993 355.375, 993 358.857 C 993 361.140, 996.321 363, 1000.397 363 C 1003.642 363, 1005.209 363.593, 1007 365.500 C 1009.255 367.900, 1009.833 368, 1021.478 368 C 1032.521 368, 1034.073 368.232, 1038.799 370.587 C 1042.357 372.360, 1045.344 374.955, 1048.290 378.830 C 1050.654 381.940, 1053.598 384.988, 1054.833 385.604 C 1056.067 386.219, 1059.077 388.810, 1061.522 391.362 C 1063.966 393.913, 1066.848 396, 1067.926 396 C 1070.856 396, 1073 399.844, 1073 405.095 C 1073 411.597, 1076.280 418.305, 1082.151 423.807 C 1084.904 426.388, 1088.606 429.929, 1090.377 431.677 C 1093.452 434.709, 1094.027 434.873, 1103.049 435.280 C 1112.220 435.694, 1113.955 435.904, 1120.680 437.414 C 1123.290 438, 1124.058 437.761, 1124.956 436.083 C 1125.558 434.958, 1127.113 433.467, 1128.411 432.769 C 1131.128 431.309, 1138.793 425.215, 1140.700 423 C 1148.357 414.104, 1150.981 411.573, 1153.821 410.347 C 1155.648 409.559, 1157.894 407.605, 1158.812 406.005 C 1159.730 404.405, 1161.386 402.869, 1162.491 402.591 C 1170.403 400.604, 1170.649 393.268, 1163.146 383 C 1159.802 378.423, 1141.277 360.340, 1133 353.573 C 1129.425 350.650, 1124.925 346.858, 1123 345.145 C 1121.075 343.433, 1119.179 342.025, 1118.786 342.016 C 1118.393 342.007, 1116.975 340.386, 1115.635 338.413 C 1113.404 335.130, 1105.935 326.765, 1092.250 312.222 C 1089.362 309.153, 1087 306.027, 1087 305.274 C 1087 304.521, 1084.861 301.789, 1082.247 299.202 C 1074.253 291.293, 1039.416 275.088, 1025 272.573 C 1019.333 271.584, 1008.314 271.248, 1006.852 272.020" stroke="#e8b1e4" fill="#e8b1e4" fill-opacity="0.2" fill-rule="evenodd"/><path class="svg-region-MB" d="M 793.500 271.018 C 784.767 272.100, 779.091 273.607, 777.158 275.357 C 775.186 277.141, 769.273 288.653, 765.568 297.922 C 763.323 303.537, 763 305.817, 763 316.047 C 763 323.892, 762.506 329.150, 761.500 332 C 759.303 338.227, 759.531 345.531, 762 348 C 763.100 349.100, 764.563 349.998, 765.250 349.997 C 766.779 349.992, 778.682 345.137, 785.500 341.737 C 788.843 340.069, 793.048 339.025, 798.191 338.585 C 802.421 338.223, 809.621 337.269, 814.191 336.465 C 818.761 335.661, 826.100 335.001, 830.500 334.998 C 839.823 334.993, 854.917 332.639, 860.132 330.378 C 862.909 329.174, 864.246 329.062, 865.816 329.901 C 866.945 330.506, 871.697 331, 876.375 331 C 881.054 331, 885.143 331.422, 885.461 331.937 C 885.780 332.453, 889.069 334.322, 892.770 336.092 C 899.629 339.371, 912.611 341.846, 923.503 341.952 C 926.255 341.978, 931.654 342.900, 935.500 344 C 944.906 346.690, 947.743 346.517, 952.428 342.972 C 955.316 340.787, 957.453 340, 960.496 340 C 965.813 340, 972.374 335.195, 975.063 329.332 C 977.177 324.725, 977.444 324.614, 990.276 323.013 C 994.553 322.479, 998.828 321.598, 999.776 321.055 C 1004.428 318.389, 1004.438 318.360, 1001.905 315.005 C 1000.582 313.253, 997.863 310.256, 995.862 308.346 C 993.862 306.436, 991.960 303.552, 991.637 301.937 C 991.314 300.322, 990.476 298.986, 989.775 298.968 C 987.285 298.907, 983.289 294.297, 981.712 289.668 C 979.637 283.580, 974.083 278.339, 966.500 275.314 C 956.808 271.448, 941.206 272.335, 917.500 278.099 C 901.035 282.102, 889.177 281.996, 856.500 277.553 C 850.450 276.730, 839.144 275.669, 831.375 275.195 C 819.970 274.498, 816.450 273.915, 813.094 272.166 C 808.715 269.883, 804.596 269.642, 793.500 271.018" stroke="#f9c6c6" fill="#f9c6c6" fill-opacity="0.2" fill-rule="evenodd"/><path class="svg-region-Ol" d="M 452 349.379 C 448.975 350.029, 442 352.848, 436.500 355.645 C 431 358.441, 422.903 362.477, 418.507 364.615 C 408.689 369.387, 392.258 380.176, 390.141 383.240 C 389.282 384.483, 386.289 387.840, 383.491 390.700 C 380.692 393.560, 376.624 398.510, 374.451 401.700 C 372.278 404.890, 369.770 408.311, 368.877 409.303 C 366.055 412.435, 360 425.094, 360 427.859 C 360 429.319, 359.578 431.986, 359.061 433.786 C 358.190 436.825, 357.511 443.856, 356.529 460 C 356.122 466.694, 356.941 474.309, 359.381 486.500 C 360.151 490.350, 361.083 495.075, 361.450 497 C 364.812 514.589, 376.471 558.964, 382.865 578.506 C 387.217 591.807, 396.528 613.173, 410.968 643 C 427.741 677.643, 428.949 680.497, 439.540 710.500 C 447.419 732.822, 447.545 733.133, 453.929 745.939 C 459.681 757.478, 466.020 768.311, 470.697 774.594 C 471.964 776.296, 473 778.137, 473 778.684 C 473 779.231, 474.462 781.044, 476.250 782.714 C 478.038 784.383, 481.075 787.629, 483 789.927 C 486.979 794.677, 501.691 807.599, 510.222 813.838 C 515.807 817.921, 521.871 820.477, 536.890 825.077 C 543.505 827.104, 546.334 827.339, 563.890 827.324 C 580.888 827.310, 584.673 827.010, 592.306 825.066 C 597.149 823.832, 602.324 822.191, 603.806 821.418 C 605.288 820.645, 607.132 820.010, 607.904 820.006 C 613.652 819.981, 637.622 802.145, 651.290 787.721 C 665.151 773.095, 682 754.244, 682.003 753.361 C 682.007 752.425, 702.237 731.510, 713.500 720.799 C 724.510 710.328, 734.973 698.715, 737.857 693.766 C 740.828 688.666, 748.012 678.586, 752.425 673.325 C 755.601 669.538, 763.529 656.073, 764.609 652.632 C 764.977 651.459, 767.826 645.550, 770.939 639.500 C 774.053 633.450, 777.210 626.925, 777.956 625 C 778.701 623.075, 780.929 618.125, 782.906 614 C 786.332 606.851, 786.495 606.032, 786.386 596.500 C 786.195 579.771, 782.898 568.467, 776.030 561 C 774.259 559.075, 772.065 556.596, 771.155 555.490 C 769.212 553.130, 759.401 546, 758.098 546 C 757.224 546, 747.999 539.487, 745 536.752 C 740.834 532.953, 719.755 520.849, 715 519.525 C 712.511 518.833, 709.463 516.960, 690.582 504.530 C 685.128 500.938, 680.290 498, 679.832 498 C 679.375 498, 679 497.530, 679 496.955 C 679 496.380, 677.900 494.809, 676.556 493.465 C 674.040 490.949, 671 491.027, 671 493.607 C 671 495.349, 670.542 495.334, 665.027 493.414 C 657.987 490.962, 638.337 490.441, 627.096 492.408 C 619.902 493.666, 616.922 493.799, 614.421 492.974 C 612.623 492.381, 607.089 491.783, 602.124 491.646 C 595.880 491.474, 592.542 490.936, 591.298 489.901 C 590.309 489.078, 586.462 486.856, 582.750 484.963 C 579.038 483.070, 576 481.179, 576 480.761 C 576 480.342, 575.212 480, 574.250 479.999 C 573.288 479.999, 569.780 478.711, 566.455 477.138 C 562.019 475.040, 558.823 472.467, 554.455 467.478 C 551.180 463.738, 546.768 458.978, 544.650 456.900 C 542.533 454.823, 539.279 450.761, 537.418 447.873 C 535.558 444.985, 533.426 442.533, 532.680 442.424 C 531.002 442.177, 521.250 432.735, 517.782 428 C 515.107 424.347, 514.259 421.526, 513.577 414 C 513.044 408.124, 512.138 404.229, 510.394 400.324 C 509.614 398.577, 508.540 394.752, 508.007 391.824 C 507.474 388.896, 504.949 382.332, 502.397 377.239 C 496.843 366.157, 490.935 360.263, 479.932 354.830 C 467.828 348.854, 460.817 347.486, 452 349.379" stroke="#aa444d" fill="#aa444d" fill-opacity="0.2" fill-rule="evenodd"/><path class="svg-region-Or" d="M 1302.112 332.521 C 1291.509 335.490, 1281.372 343.877, 1271.715 357.673 C 1266.658 364.897, 1257.484 383.493, 1255.483 390.578 C 1254.563 393.835, 1253.145 398.525, 1252.332 401 C 1251.519 403.475, 1250.439 407.685, 1249.933 410.356 C 1249.426 413.027, 1247.845 416.627, 1246.418 418.356 C 1244.992 420.085, 1242.563 423.577, 1241.021 426.114 C 1239.135 429.216, 1237.290 430.961, 1235.392 431.438 C 1230.866 432.574, 1223.449 438.625, 1220.005 443.992 C 1216.245 449.851, 1213.637 458.989, 1214.307 463.957 C 1215.023 469.264, 1211.666 475.740, 1205.621 480.715 C 1199.126 486.062, 1187.102 492.070, 1181.677 492.680 C 1179.380 492.938, 1175.141 494.293, 1172.257 495.690 C 1164.285 499.554, 1154.146 499.846, 1142 496.563 C 1134.873 494.636, 1128.004 493.717, 1114.500 492.882 C 1097.613 491.837, 1096.003 491.894, 1088.460 493.798 C 1076.024 496.937, 1069.894 500.365, 1058.673 510.456 C 1053.078 515.487, 1046.700 520.691, 1044.500 522.020 C 1040.149 524.648, 1031.803 530.800, 1031 531.972 C 1030.725 532.373, 1028.475 533.958, 1026 535.494 C 1019.901 539.279, 1005.209 550.580, 1001.423 554.397 C 999.731 556.104, 995.867 559.610, 992.837 562.190 C 981.114 572.168, 977.044 581.654, 977.016 599.068 C 976.991 613.869, 980.953 624.218, 993.834 643 C 997.418 648.225, 1001.429 654.075, 1002.749 656 C 1004.068 657.925, 1005.747 659.836, 1006.480 660.247 C 1007.213 660.658, 1010.396 664.933, 1013.554 669.747 C 1016.711 674.561, 1020.466 679.660, 1021.897 681.079 C 1025.139 684.291, 1029 689.608, 1029 690.861 C 1029 691.379, 1030.575 692.732, 1032.500 693.867 C 1035.006 695.346, 1036 696.638, 1036 698.417 C 1036 699.783, 1036.633 701.260, 1037.407 701.700 C 1038.181 702.140, 1040.368 704.814, 1042.267 707.642 C 1044.166 710.470, 1046.259 713.395, 1046.919 714.142 C 1047.579 714.889, 1053.285 722.475, 1059.599 731 C 1065.913 739.525, 1071.848 747.197, 1072.789 748.049 C 1073.730 748.901, 1074.950 750.322, 1075.500 751.207 C 1077.622 754.621, 1088.028 768.622, 1090.211 771 C 1091.474 772.375, 1094.755 775.300, 1097.503 777.500 C 1100.251 779.700, 1102.660 781.867, 1102.855 782.315 C 1103.050 782.763, 1104.175 783.556, 1105.355 784.077 C 1109.280 785.811, 1113.881 788.876, 1122.231 795.317 C 1131.309 802.320, 1136.501 805.348, 1138.318 804.699 C 1138.968 804.466, 1141.075 804.885, 1143 805.630 C 1146.384 806.939, 1153.284 808.851, 1169 812.834 C 1185.611 817.044, 1191.911 818.255, 1200.827 818.952 C 1230.928 821.306, 1250.920 812.929, 1280.346 785.633 C 1288.622 777.955, 1292.581 773.623, 1298.741 765.499 C 1303.266 759.532, 1305.115 756.762, 1307.420 752.500 C 1310.377 747.031, 1313.563 741.423, 1316.796 736 C 1320.713 729.430, 1331 710.016, 1330.967 709.257 C 1330.949 708.841, 1333.169 704, 1335.899 698.500 C 1345.405 679.355, 1354.854 659.403, 1356.517 654.966 C 1358.804 648.863, 1361.957 642.285, 1364.890 637.500 C 1368.077 632.301, 1374.060 617.571, 1379.094 602.528 C 1381.298 595.943, 1383.440 590.318, 1383.854 590.028 C 1384.268 589.738, 1385.109 587.475, 1385.722 585 C 1386.335 582.525, 1387.487 577.922, 1388.282 574.771 C 1389.077 571.620, 1391.339 566.670, 1393.307 563.771 C 1395.276 560.872, 1397.819 555.575, 1398.959 552 C 1400.098 548.425, 1401.416 544.810, 1401.888 543.967 C 1402.360 543.124, 1403.080 540.874, 1403.488 538.967 C 1403.897 537.060, 1404.666 534.960, 1405.197 534.299 C 1406.254 532.985, 1412.694 515.177, 1416.696 502.500 C 1419.045 495.059, 1419.231 492.998, 1419.361 473 C 1419.451 459.027, 1419.102 450.450, 1418.363 448.500 C 1417.737 446.850, 1416.457 442.575, 1415.519 439 C 1414.580 435.425, 1413.441 431.778, 1412.988 430.894 C 1412.534 430.011, 1410.795 424.554, 1409.123 418.766 C 1407.451 412.978, 1404.939 405.657, 1403.541 402.497 C 1402.144 399.337, 1401 396.217, 1401 395.563 C 1401 393.646, 1396.930 385.738, 1394.365 382.673 C 1393.064 381.119, 1392 379.058, 1392 378.095 C 1392 372.820, 1379.157 359.637, 1363 348.327 C 1351.071 339.976, 1346.365 337.426, 1337.362 334.434 C 1327.355 331.108, 1310.435 330.190, 1302.112 332.521" stroke="#aa444d" fill="#aa444d" fill-opacity="0.2" fill-rule="evenodd"/><path class="svg-region-Pl" d="M 542.843 423.750 C 540.496 426.548, 538.189 433.074, 537.534 438.763 C 536.690 446.092, 538.522 451.522, 543.073 455.179 C 545.105 456.812, 548.123 460.027, 549.781 462.324 C 555.069 469.652, 560.323 474.194, 567 477.209 C 570.575 478.824, 574.175 480.540, 575 481.023 C 575.825 481.506, 579.650 483.555, 583.500 485.576 C 587.350 487.598, 591.112 489.741, 591.860 490.340 C 592.608 490.938, 596.751 491.507, 601.067 491.604 C 605.382 491.700, 611.200 492.328, 613.995 492.999 C 617.817 493.916, 620.169 493.943, 623.481 493.109 C 625.904 492.499, 628.924 491.992, 630.193 491.982 C 632.975 491.960, 639 485.132, 639 482.002 C 639 480.828, 639.489 478.956, 640.086 477.840 C 640.969 476.189, 640.750 475.363, 638.911 473.406 C 637.668 472.083, 635.811 471, 634.784 471 C 633.757 471, 631.950 470.100, 630.770 469 C 629.589 467.900, 627.834 467, 626.870 467 C 625.907 467, 624.861 466.585, 624.548 466.077 C 624.234 465.569, 622.520 464.845, 620.739 464.467 C 614.193 463.079, 595.190 451.982, 595.055 449.469 C 595.025 448.902, 593.763 447.969, 592.250 447.394 C 590.737 446.820, 588.834 445.034, 588.021 443.425 C 584.954 437.360, 571.969 428.375, 559.893 423.961 C 553.016 421.447, 544.858 421.346, 542.843 423.750" stroke="#f9d3d3" fill="#f9d3d3" fill-opacity="0.2" fill-rule="evenodd"/><path class="svg-region-Pr" d="M 1204.500 448.323 C 1200.144 450.591, 1197.267 451.413, 1194 451.322 C 1188.004 451.154, 1181.790 449.996, 1180.250 448.759 C 1179.297 447.994, 1179 448.584, 1179 451.243 C 1179 455.284, 1176.190 459.333, 1171.817 461.595 C 1170.163 462.450, 1166.265 465.096, 1163.155 467.475 C 1160.045 469.855, 1154.679 473.246, 1151.232 475.011 C 1144.982 478.212, 1144.224 478.288, 1136.783 476.450 C 1134.591 475.909, 1133.481 476.365, 1131.033 478.813 C 1128.578 481.268, 1128 482.681, 1128 486.232 C 1128 488.644, 1128.563 491.327, 1129.250 492.193 C 1131.002 494.401, 1150.648 499.146, 1157.154 498.932 C 1164.125 498.704, 1170.876 497.123, 1174 494.987 C 1175.375 494.047, 1178.532 493.057, 1181.016 492.788 C 1187.198 492.118, 1197.759 487.047, 1204.967 481.288 C 1209.723 477.489, 1211.675 475.018, 1214.420 469.323 C 1218.369 461.129, 1218.276 461.527, 1218.118 453.411 C 1218.011 447.910, 1217.754 447.209, 1215.453 446.161 C 1212.025 444.598, 1211.424 444.717, 1204.500 448.323" stroke="#f9d3d3" fill="#f9d3d3" fill-opacity="0.2" fill-rule="evenodd"/><path class="svg-region-DLl" d="M 612.589 420.031 C 610.438 421.105, 605.681 424.799, 602.018 428.242 C 598.355 431.684, 593.477 435.603, 591.179 436.951 C 588.670 438.422, 587 440.139, 587 441.246 C 587 443.486, 591.314 448, 593.455 448 C 594.305 448, 595 448.498, 595 449.106 C 595 452.053, 613.709 463.154, 621.271 464.694 C 622.795 465.004, 624.284 465.650, 624.580 466.129 C 624.876 466.608, 625.922 467, 626.904 467 C 627.886 467, 629.505 467.900, 630.500 469 C 631.495 470.100, 633.217 471, 634.326 471 C 635.435 471, 637.168 471.747, 638.177 472.661 C 639.187 473.574, 640.286 474.048, 640.620 473.714 C 640.954 473.380, 642.401 470.045, 643.837 466.303 C 645.940 460.819, 646.451 457.753, 646.473 450.490 C 646.499 441.773, 646.354 441.193, 642.013 432.636 C 639.545 427.771, 636.042 422.488, 634.228 420.896 C 631.229 418.262, 630.277 418.004, 623.715 418.040 C 618.626 418.068, 615.348 418.655, 612.589 420.031" stroke="#b7d6d3" fill="#b7d6d3" fill-opacity="0.2" fill-rule="evenodd"/><path class="svg-region-DLr" d="M 1125.923 434.923 C 1124.315 436.531, 1123 438.574, 1123 439.463 C 1123 440.352, 1122.162 442.749, 1121.137 444.790 C 1120.113 446.830, 1119.034 451.277, 1118.739 454.671 C 1118.250 460.313, 1118.418 461.043, 1120.697 463.171 C 1123.671 465.949, 1126 470.176, 1126 472.795 C 1126 473.837, 1126.889 475.494, 1127.974 476.477 C 1129.692 478.031, 1130.348 478.098, 1133.020 476.992 C 1135.366 476.020, 1136.680 475.989, 1138.592 476.860 C 1139.968 477.487, 1142.130 478, 1143.396 478 C 1146.467 478, 1158.392 471.631, 1164 466.996 C 1166.475 464.950, 1169.923 462.549, 1171.662 461.658 C 1178.524 458.146, 1181.587 449.455, 1176.856 446.923 C 1175.676 446.292, 1172.691 443.913, 1170.221 441.638 L 1165.731 437.500 1152.084 437.500 C 1140.848 437.500, 1137.696 437.166, 1134.246 435.610 C 1131.941 434.571, 1130.294 433.334, 1130.586 432.860 C 1131.853 430.811, 1128.593 432.253, 1125.923 434.923" stroke="#b7d6d3" fill="#b7d6d3" fill-opacity="0.2" fill-rule="evenodd"/><path class="svg-region-OGl" d="M 564.500 394.546 C 561.750 396.505, 557.636 400.108, 555.358 402.554 C 552.740 405.365, 550.349 407.006, 548.858 407.015 C 544.519 407.043, 543.990 408.088, 544.663 415.297 L 545.289 422 549.895 422.015 C 556.372 422.035, 566.110 425.685, 574.219 431.132 C 575.749 432.159, 578.299 433.876, 579.887 434.946 C 582.851 436.945, 584.778 436.642, 582.969 434.463 C 582.074 433.384, 581.721 427.068, 581.936 416 C 581.974 414.075, 581.917 409.575, 581.810 406 C 581.663 401.124, 582.075 398.800, 583.456 396.699 C 585.986 392.850, 584.615 391.825, 576.322 391.364 C 569.831 391.003, 569.257 391.157, 564.500 394.546" stroke="#d66e9d" fill="#d66e9d" fill-opacity="0.2" fill-rule="evenodd"/><path class="svg-region-OGr" d="M 1183 415.752 C 1180.755 416.873, 1177.989 419.830, 1175.286 424 C 1172.968 427.575, 1170.155 431.696, 1169.036 433.158 C 1167.916 434.620, 1167 436.480, 1167 437.292 C 1167 438.979, 1174.013 445.616, 1177.302 447.042 C 1178.511 447.566, 1180.175 448.393, 1181 448.880 C 1183.017 450.070, 1191.415 452, 1194.576 452 C 1195.977 452, 1200.379 450.413, 1204.358 448.472 C 1211.518 444.981, 1211.636 444.960, 1215.922 446.472 C 1222.046 448.633, 1222.920 448.436, 1224.551 444.532 C 1226.427 440.042, 1226.403 434.579, 1224.500 433 C 1223.675 432.315, 1223 431.321, 1223 430.791 C 1223 428.854, 1216.617 421.008, 1213.107 418.630 C 1210.550 416.898, 1207.052 415.868, 1201.091 415.093 C 1189.709 413.614, 1187.089 413.709, 1183 415.752" stroke="#d66e9d" fill="#d66e9d" fill-opacity="0.2" fill-rule="evenodd"/><path class="svg-region-OLl" d="M 598 390 C 596.625 390.440, 593.408 390.845, 590.851 390.900 C 586.439 390.995, 586.087 391.217, 583.941 395.250 C 581.752 399.364, 581.358 402.802, 581.734 414.500 C 581.804 416.700, 581.881 421.782, 581.904 425.792 C 581.944 432.658, 584.050 440, 585.979 440 C 586.392 440, 587.803 439.164, 589.115 438.141 C 590.427 437.119, 593.008 435.509, 594.851 434.563 C 596.695 433.618, 600.927 430.066, 604.257 426.672 L 610.312 420.500 610.080 414.614 C 609.952 411.377, 609.347 407.928, 608.736 406.949 C 607.906 405.620, 607.961 404.147, 608.953 401.142 C 610.108 397.642, 610.068 396.663, 608.646 393.666 C 606.441 389.020, 603.848 388.127, 598 390" stroke="#c4875d" fill="#c4875d" fill-opacity="0.2" fill-rule="evenodd"/><path class="svg-region-OLr" d="M 1162.831 402.271 C 1161.363 402.853, 1159.578 404.421, 1158.863 405.755 C 1158.149 407.090, 1155.955 409.003, 1153.988 410.006 C 1152.020 411.010, 1148.513 414.007, 1146.195 416.666 C 1141.566 421.974, 1141.756 421.781, 1134.226 428.797 L 1128.953 433.710 1133.726 435.573 C 1137.568 437.072, 1141.282 437.441, 1152.750 437.468 C 1162.677 437.490, 1167 437.158, 1167 436.372 C 1167 435.752, 1167.672 434.687, 1168.494 434.005 C 1169.315 433.323, 1171.333 430.414, 1172.977 427.541 C 1176.269 421.786, 1182.230 415, 1183.992 415 C 1186.899 415, 1183.520 413.155, 1179.512 412.554 C 1176.156 412.051, 1175 411.433, 1175 410.142 C 1175 408.280, 1168.050 400.930, 1166.458 401.106 C 1165.931 401.165, 1164.299 401.689, 1162.831 402.271" stroke="#c4875d" fill="#c4875d" fill-opacity="0.2" fill-rule="evenodd"/><path class="svg-region-OABl" d="M 813.874 527.491 C 803.165 528.656, 777.853 534.237, 774.845 536.096 C 772.118 537.781, 775.162 538.092, 784.360 537.066 C 789.619 536.480, 797.920 536, 802.807 536 C 808.878 536, 812.689 535.503, 814.840 534.430 C 819.392 532.159, 859.996 532.765, 864.500 535.171 C 866.254 536.109, 871.377 537.046, 876.839 537.430 L 886.178 538.085 885.514 534.793 C 885.149 532.982, 884.655 530.795, 884.416 529.933 C 883.432 526.386, 838.376 524.826, 813.874 527.491" stroke="#81244d" fill="#81244d" fill-opacity="0.2" fill-rule="evenodd"/><path class="svg-region-OABr" d="M 884.909 528.390 C 884.584 528.734, 884.595 530.700, 884.935 532.758 C 885.648 537.079, 883.038 536.818, 908.339 535.103 C 918.666 534.404, 925.627 534.364, 928.339 534.991 C 930.628 535.519, 934.975 535.970, 938 535.993 C 941.025 536.016, 946.650 536.731, 950.500 537.583 C 961.259 539.961, 965 540.387, 965 539.230 C 965 538.234, 953.753 534.002, 945.500 531.893 C 937.320 529.802, 886.358 526.856, 884.909 528.390 M 999.645 534.849 C 997.215 537.385, 996.389 537.648, 992.123 537.238 C 988.730 536.912, 986.334 537.301, 983.916 538.572 C 981.629 539.774, 978.271 540.374, 973.756 540.389 C 969.286 540.404, 967.347 540.747, 968.006 541.406 C 968.553 541.953, 969 543.465, 969 544.766 C 969 551.422, 973.515 553.736, 981.097 550.965 C 983.991 549.907, 986.818 548.582, 987.379 548.021 C 987.941 547.459, 989.703 547, 991.296 547 C 997.071 547, 1001.796 542.232, 1003.436 534.750 C 1004.205 531.237, 1003.077 531.267, 999.645 534.849" stroke="#81244d" fill="#81244d" fill-opacity="0.2" fill-rule="evenodd"/><path class="svg-region-OVl" d="M 642.778 429.250 C 641.327 430.381, 641.427 431.023, 643.837 436 C 646.134 440.744, 646.493 442.738, 646.452 450.500 C 646.405 459.137, 644.008 468.876, 641.051 472.439 C 640.524 473.073, 640.106 474.471, 640.122 475.546 C 640.176 479.271, 638.157 485.204, 636.084 487.411 C 634.938 488.631, 634 489.937, 634 490.314 C 634 490.692, 637.938 491.003, 642.750 491.008 C 652.215 491.016, 662.827 492.382, 667.305 494.169 C 669.749 495.144, 670.303 495.012, 671.612 493.144 C 672.721 491.561, 674.158 491, 677.106 491 C 679.302 491, 682.413 490.321, 684.019 489.490 C 688.030 487.416, 700.365 488.493, 704.322 491.264 C 710.425 495.535, 723.487 497.529, 725.947 494.564 C 727.712 492.437, 725.562 489, 722.465 489 C 719.117 489, 719.308 486.490, 722.750 485.261 C 728.933 483.053, 732.745 482, 734.571 481.994 C 735.632 481.990, 737.271 480.753, 738.213 479.244 C 739.155 477.735, 740.955 475.217, 742.213 473.650 L 744.500 470.800 740.397 467.150 C 738.140 465.142, 736.054 462.811, 735.762 461.970 C 734.733 459.003, 722.252 457.859, 694.525 458.190 L 668.549 458.500 667.223 455.756 C 666.437 454.130, 664.797 452.772, 663.198 452.423 C 657.559 451.190, 657.742 451.558, 658.501 442.992 C 659.160 435.548, 659.077 435, 657.300 435 C 656.251 435, 653.866 433.425, 652 431.500 C 648.463 427.850, 645.501 427.128, 642.778 429.250" stroke="#593939" fill="#593939" fill-opacity="0.2" fill-rule="evenodd"/><path class="svg-region-OVr" d="M 1099 438.441 C 1099 440.334, 1098.550 442.160, 1098 442.500 C 1097.450 442.840, 1097 444.885, 1097 447.046 C 1097 450.604, 1096.664 451.113, 1093.427 452.466 C 1091.461 453.287, 1086.862 454.266, 1083.207 454.640 C 1078.365 455.136, 1076.127 455.856, 1074.966 457.291 C 1073.811 458.717, 1071.458 459.483, 1066.435 460.067 C 1053.386 461.585, 1033.066 467.540, 1021.775 473.156 L 1016.049 476.004 1020.775 480.252 C 1023.374 482.588, 1025.725 484.766, 1026 485.091 C 1026.773 486.004, 1036.130 489, 1038.210 489 C 1042.562 489, 1041.091 492.112, 1032.856 500.332 C 1028.260 504.919, 1023.274 510.433, 1021.775 512.586 C 1020.277 514.739, 1018.057 517.730, 1016.842 519.234 C 1015.628 520.737, 1014.841 522.175, 1015.095 522.428 C 1015.797 523.130, 1023.209 521.272, 1023.896 520.222 C 1024.925 518.650, 1029.089 516.820, 1030.450 517.342 C 1031.161 517.615, 1032.745 516.484, 1033.969 514.827 C 1035.194 513.171, 1037.614 511.200, 1039.348 510.447 C 1041.082 509.694, 1043.564 507.931, 1044.864 506.529 C 1046.165 505.128, 1048.302 503.711, 1049.614 503.382 C 1050.926 503.053, 1052 502.157, 1052 501.392 C 1052 500.626, 1052.605 500, 1053.345 500 C 1054.085 500, 1055.455 499.154, 1056.391 498.120 C 1057.327 497.087, 1059.836 495.962, 1061.969 495.621 C 1064.101 495.280, 1067.118 493.941, 1068.673 492.645 C 1070.228 491.349, 1073.219 489.972, 1075.321 489.586 C 1077.423 489.199, 1079.808 488.627, 1080.622 488.315 C 1081.786 487.868, 1081.961 488.307, 1081.442 490.374 C 1080.813 492.880, 1080.966 493, 1084.769 493 C 1087.119 493, 1089.274 492.375, 1090.019 491.477 C 1090.781 490.559, 1092.059 490.201, 1093.240 490.576 C 1094.872 491.094, 1095.087 490.848, 1094.531 489.099 C 1093.320 485.283, 1097.576 486.584, 1100.685 490.979 C 1103.492 494.948, 1103.514 494.957, 1108.500 494.229 C 1111.250 493.828, 1117.170 493.504, 1121.656 493.508 C 1129.009 493.515, 1129.722 493.350, 1128.906 491.824 C 1127.593 489.372, 1127.858 483.885, 1129.424 481.056 C 1130.645 478.853, 1130.556 478.439, 1128.525 476.841 C 1127.240 475.830, 1126.015 473.478, 1125.671 471.363 C 1125.302 469.084, 1123.757 466.278, 1121.662 464.078 C 1118.272 460.518, 1118.259 460.467, 1118.996 453.776 C 1119.403 450.077, 1120.471 445.930, 1121.368 444.561 C 1123.878 440.731, 1123.468 438.134, 1120.250 437.474 C 1118.737 437.163, 1115.873 436.480, 1113.884 435.955 C 1111.895 435.430, 1107.733 435, 1104.634 435 L 1099 435 1099 438.441" stroke="#593939" fill="#593939" fill-opacity="0.2" fill-rule="evenodd"/>
    </svg>