<svg xmlns="http://www.w3.org/2000/svg" width="1785" height="1131" viewBox="0 0 1785 1131" version="1.1">
    <path class="svg-region-SV" d="M 932 373.709 C 931.175 374.013, 929.666 374.990, 928.646 375.880 C 927.122 377.213, 922.419 377.680, 902.132 378.517 C 877.929 379.515, 877.385 379.584, 872.808 382.267 C 870.142 383.829, 866.651 385, 864.660 385 C 859.228 385, 845.964 387.794, 843.391 389.479 C 840.778 391.192, 834.443 391.525, 833.500 390 C 832.746 388.780, 820.331 388.656, 819.586 389.860 C 819.294 390.334, 816.968 391.007, 814.417 391.356 C 811.326 391.780, 808.068 393.244, 804.651 395.746 C 799.615 399.432, 799.573 399.506, 802.320 399.822 C 803.859 399.999, 805.371 400.803, 805.680 401.608 C 806.169 402.883, 806.544 402.874, 808.586 401.536 C 809.875 400.691, 812.192 400, 813.735 400 C 815.278 400, 819.788 399.100, 823.757 398 C 829.572 396.389, 834.047 396, 846.787 396 C 855.484 396, 863.028 396.389, 863.550 396.864 C 865.046 398.225, 873.443 400, 878.384 400 C 880.858 400, 883.160 400.450, 883.500 401 C 884.431 402.507, 892.055 402.276, 891.750 400.750 C 891.570 399.850, 893.373 399.500, 898.197 399.500 C 902.220 399.500, 905.394 399.001, 906.147 398.250 C 907.608 396.793, 911 396.571, 911 397.933 C 911 398.446, 912.013 399.136, 913.250 399.468 C 914.487 399.799, 917.139 400.560, 919.141 401.159 C 922.343 402.117, 923.480 401.918, 928.563 399.513 C 933.504 397.176, 935.082 396.881, 939.422 397.482 C 942.215 397.868, 948.775 398.502, 954 398.890 C 963.569 399.600, 967.763 400.902, 978.500 406.497 C 982.625 408.646, 984.312 408.992, 988.138 408.473 C 992 407.949, 993.090 408.180, 994.650 409.855 C 997.195 412.587, 1003.090 416.513, 1009.327 419.630 C 1015.080 422.505, 1020 426.680, 1020 428.687 C 1020 430.683, 1018.600 430.268, 1016 427.500 C 1013.171 424.488, 1011.141 424.377, 1006.084 426.957 C 1002.066 429.007, 999.472 428.985, 989.309 426.817 C 983.649 425.609, 978.667 426.819, 977.574 429.667 C 977.005 431.151, 981.562 440, 982.896 440 C 983.284 440, 984.880 442.024, 986.444 444.497 C 989.830 449.855, 998.284 458, 1000.457 458 C 1001.306 458, 1002 458.398, 1002 458.883 C 1002 459.369, 1003.013 460.075, 1004.250 460.451 C 1005.613 460.865, 1006.007 461.338, 1005.250 461.651 C 1003.036 462.565, 1003.903 465.575, 1008.250 472.069 C 1011.789 477.355, 1013.671 479.047, 1019.500 482.180 C 1027.543 486.504, 1028.007 486.569, 1034.885 484.348 C 1039.568 482.836, 1040.003 482.434, 1040.033 479.598 C 1040.103 473.143, 1046.135 470.050, 1060.165 469.276 C 1067.048 468.896, 1068.545 469.167, 1074.833 471.927 C 1078.684 473.617, 1082.533 475, 1083.386 475 C 1086.087 475, 1084.130 472.560, 1079.736 470.448 C 1076.603 468.942, 1075.211 467.530, 1074.391 465.025 C 1073.138 461.197, 1071.746 459.578, 1063.622 452.500 C 1055.660 445.563, 1048.482 441.654, 1044.990 442.352 C 1042.900 442.770, 1041.086 442.100, 1037.605 439.625 C 1035.066 437.820, 1033.297 436.037, 1033.672 435.661 C 1034.047 435.286, 1033.375 434.066, 1032.177 432.950 C 1030.866 431.729, 1030 429.717, 1030 427.893 C 1030 425.589, 1028.876 423.786, 1025.309 420.368 C 1022.729 417.896, 1019.385 415.627, 1017.879 415.326 C 1016.373 415.025, 1014.130 413.703, 1012.896 412.389 C 1011.661 411.075, 1010.245 410, 1009.748 410 C 1009.250 410, 1005.525 408.404, 1001.468 406.452 C 994.940 403.313, 993.737 402.284, 991.003 397.505 C 985.577 388.021, 977.020 382.689, 965.582 381.664 C 960.692 381.226, 957.591 380.333, 954.999 378.618 C 948.083 374.041, 937.336 371.748, 932 373.709" stroke="#c666b5" fill="#c666b5" fill-opacity="0.2" fill-rule="evenodd"/><path class="svg-region-IF" d="M 868.832 559.521 C 866.815 560.843, 864.876 562.392, 864.523 562.963 C 864.139 563.585, 859.130 564, 852.006 564 C 845.474 564, 838.874 564.478, 837.338 565.062 C 835.802 565.645, 832.279 568.458, 829.508 571.312 C 826.736 574.165, 822.379 578.300, 819.824 580.500 C 816.920 583, 814.952 585.625, 814.576 587.500 C 814.014 590.298, 814.403 590.788, 820.365 594.780 C 824.074 597.264, 829.849 599.958, 834.128 601.200 C 841.193 603.251, 843.413 603.339, 887.500 603.313 C 931.433 603.286, 933.816 603.190, 940.525 601.167 C 949.722 598.394, 951.619 597.025, 950.127 594.237 C 949.507 593.079, 949 591.232, 949 590.133 C 949 589.034, 948.137 587.861, 947.083 587.526 C 945.957 587.169, 943.677 583.825, 941.561 579.426 C 937.856 571.725, 935.324 569.579, 931.210 570.655 C 930.107 570.944, 928.158 570.620, 926.879 569.935 C 925.600 569.251, 921.297 568.372, 917.316 567.982 C 913.033 567.563, 907.920 566.266, 904.790 564.805 C 891.741 558.714, 886.081 556.999, 879.230 557.059 C 873.872 557.106, 871.752 557.608, 868.832 559.521" stroke="#f2823b" fill="#f2823b" fill-opacity="0.2" fill-rule="evenodd"/><path class="svg-region-AAB" d="M 745 520.855 C 745 521.353, 749.837 525.966, 755.750 531.105 C 767.792 541.574, 777.080 550.781, 787.636 562.716 C 791.561 567.154, 799.211 574.995, 804.636 580.142 C 813.438 588.492, 814.535 589.249, 814.830 587.173 C 815.165 584.807, 821.459 578.145, 826 575.351 C 827.375 574.505, 829.713 572.082, 831.197 569.968 C 834.662 565.028, 838.320 564.013, 852.691 564.006 C 859.357 564.002, 864.142 563.579, 864.525 562.959 C 864.879 562.387, 867.006 560.759, 869.252 559.341 C 872.971 556.993, 874.015 556.809, 880.918 557.277 C 886.670 557.668, 890.551 558.680, 897 561.471 C 909.920 567.064, 912.874 568, 917.605 568 C 920 568, 923.768 568.723, 925.978 569.608 C 928.188 570.492, 930.676 570.955, 931.507 570.636 C 934.946 569.316, 937.807 571.858, 941.570 579.576 C 943.633 583.808, 946.097 587.474, 947.046 587.722 C 948.148 588.010, 948.995 589.569, 949.389 592.029 C 950.115 596.571, 951.271 597.587, 953.348 595.509 C 954.178 594.679, 955.227 593.999, 955.679 593.999 C 956.629 593.997, 959.614 591.518, 969.884 582.200 C 973.945 578.515, 978.114 575.175, 979.148 574.777 C 980.183 574.379, 981.444 572.962, 981.951 571.628 C 982.459 570.293, 983.797 568.555, 984.926 567.764 C 986.055 566.974, 989.242 563.336, 992.009 559.681 C 994.776 556.026, 998.859 551.288, 1001.083 549.151 C 1004.780 545.598, 1004.950 545.220, 1003.063 544.727 C 1000.364 544.021, 1000.461 542.795, 1003.500 539.182 C 1004.875 537.548, 1006 535.747, 1006 535.180 C 1006 534.571, 1003.240 534.164, 999.250 534.185 C 994.018 534.212, 991.598 534.747, 988.487 536.566 C 984.799 538.722, 983.037 538.954, 966.771 539.417 C 956.147 539.719, 948.836 539.543, 948.485 538.976 C 948.164 538.456, 943.068 538.069, 937.161 538.117 C 929.049 538.182, 925.453 537.782, 922.461 536.480 C 919.085 535.012, 914.441 534.719, 891 534.499 C 874.637 534.345, 862.014 534.651, 859.831 535.254 C 855.639 536.413, 825.915 534.560, 822.913 532.953 C 821.928 532.426, 812.657 531.824, 802.311 531.615 C 791.765 531.402, 782.263 530.744, 780.685 530.117 C 779.137 529.503, 776.759 529, 775.402 529 C 773.914 529, 771.543 527.609, 769.433 525.500 C 765.601 521.667, 762.088 520.948, 761.332 523.840 C 760.897 525.503, 760.402 525.573, 756.175 524.567 C 753.604 523.955, 750.038 522.666, 748.250 521.701 C 746.462 520.737, 745 520.356, 745 520.855" stroke="#7f3c1a" fill="#7f3c1a" fill-opacity="0.2" fill-rule="evenodd"/><path class="svg-region-APB" d="M 777 447.083 C 772.279 448.473, 754.677 456.790, 743.959 462.696 C 740.912 464.375, 736.862 466.064, 734.959 466.449 C 733.057 466.834, 730.754 467.358, 729.842 467.613 C 727.928 468.148, 724 475.928, 724 479.184 C 724 480.398, 722.810 482.633, 721.356 484.151 C 718.759 486.861, 718.743 486.959, 720.481 489.611 C 722.704 493.004, 727.108 496.927, 728.741 496.968 C 730.378 497.010, 742.262 502.066, 753.557 507.526 C 758.538 509.935, 764.823 512.400, 767.523 513.005 C 770.676 513.712, 783.047 513.997, 802.107 513.803 C 830.120 513.517, 831.900 513.607, 833.891 515.405 C 836.696 517.938, 836.550 519.416, 833.250 521.917 L 830.500 524.002 832.698 525.751 C 833.907 526.713, 837.635 529.462, 840.984 531.861 L 847.072 536.222 854.286 535.548 C 858.254 535.177, 873.489 534.790, 888.143 534.687 C 912.932 534.513, 914.934 534.365, 916.925 532.566 C 918.989 530.700, 919.303 530.690, 925.782 532.282 C 930.977 533.558, 938.509 533.997, 959 534.216 C 983.618 534.480, 985.837 534.358, 990.246 532.500 C 995.278 530.379, 996.341 529, 992.941 529 C 989.628 529, 991.613 527.319, 995.728 526.641 C 997.803 526.299, 1000.789 525.339, 1002.364 524.509 C 1003.940 523.679, 1006.028 523, 1007.005 523 C 1010.861 523, 1017.557 518.904, 1023.591 512.853 C 1027.076 509.359, 1031.969 504.544, 1034.464 502.154 C 1039.688 497.148, 1040.120 495.283, 1036.250 494.438 C 1030.215 493.120, 1028.079 491.769, 1027.035 488.607 C 1026.186 486.032, 1024.526 484.662, 1018.379 481.461 C 1012.774 478.541, 1010.514 476.772, 1009.782 474.729 C 1008.539 471.257, 1006.237 470, 1001.125 470 C 995.902 470, 995.105 468.505, 999.217 466.422 C 1002.929 464.542, 1006 462.058, 1006 460.938 C 1006 460.524, 1003.638 459.975, 1000.750 459.718 C 997.862 459.461, 993.320 458.452, 990.655 457.475 C 985.670 455.649, 980.559 456.022, 972.500 458.801 C 959.889 463.149, 958.954 463.308, 953.620 462.029 C 949.298 460.992, 946.251 461.064, 935.282 462.464 C 923.078 464.021, 921.708 464.025, 916.314 462.508 C 913.116 461.610, 907.797 460.483, 904.494 460.005 C 898.511 459.139, 895.749 458.211, 891 455.472 C 888.025 453.755, 868.960 453.416, 865.952 455.026 C 861.675 457.315, 846.002 457.297, 832.500 454.987 C 825.350 453.764, 815.839 452.185, 811.363 451.479 C 806.888 450.773, 802.043 449.419, 800.596 448.471 C 797.425 446.393, 782.354 445.507, 777 447.083" stroke="#ac7444" fill="#ac7444" fill-opacity="0.2" fill-rule="evenodd"/><path class="svg-region-PC" d="M 884.469 403.500 C 884.211 404.325, 883.814 405.610, 883.587 406.356 C 883.316 407.245, 880.870 407.897, 876.483 408.249 C 870.359 408.741, 869.443 409.125, 865.647 412.784 C 856.832 421.283, 850.642 422.182, 843.500 416 L 838.878 412 828.189 412.033 C 820.248 412.057, 816.086 412.563, 812 414 C 805.321 416.349, 797.741 416.597, 796.019 414.523 C 794.960 413.247, 794.174 413.473, 790.231 416.185 C 785.971 419.116, 785.397 419.252, 781.584 418.227 C 777.881 417.233, 777.267 417.346, 775 419.443 C 769.918 424.144, 763.937 425.497, 762.173 422.344 C 761.325 420.830, 761.001 420.860, 758.373 422.704 C 756.793 423.812, 753.700 425.490, 751.500 426.433 C 744.640 429.374, 740.557 431.359, 739 432.509 C 738.175 433.119, 733 435.308, 727.500 437.374 C 722 439.440, 716.808 441.496, 715.962 441.942 C 715.115 442.388, 712.415 443.077, 709.962 443.472 C 703.946 444.443, 701 446.454, 701 449.589 C 701 454.570, 706.459 460.996, 710.693 460.999 C 713.453 461, 719.521 464.415, 723.718 468.329 C 726.383 470.815, 727.040 471.058, 727.544 469.747 C 727.890 468.844, 730.377 467.651, 733.326 466.973 C 737.729 465.960, 742.577 463.739, 752.610 458.136 C 753.650 457.556, 759.675 454.704, 766 451.798 C 777.316 446.599, 777.652 446.515, 787 446.512 C 794.374 446.511, 797.283 446.929, 800 448.382 C 801.925 449.412, 807.325 450.844, 812 451.564 C 816.675 452.285, 825.900 453.849, 832.500 455.040 C 845.084 457.310, 861.681 457.312, 865.920 455.043 C 868.953 453.420, 888.008 453.746, 891 455.472 C 895.658 458.159, 898.304 459.069, 903.909 459.912 C 906.984 460.375, 912.394 461.531, 915.930 462.481 C 922.035 464.121, 923.060 464.119, 936.177 462.442 C 946.995 461.059, 950.547 460.928, 952.544 461.838 C 953.947 462.477, 956.046 463, 957.209 463 C 959.661 463, 969.046 460.401, 973.697 458.435 C 979.365 456.038, 986.079 455.668, 991 457.480 C 999.023 460.434, 1002 460.953, 1002 459.395 C 1002 458.628, 1001.315 458, 1000.478 458 C 998.400 458, 990.502 450.576, 987.847 446.129 C 986.656 444.133, 984.656 441.375, 983.403 440 C 982.149 438.625, 980.062 435.925, 978.766 434 C 976.606 430.795, 975.994 430.500, 971.495 430.500 C 966.689 430.500, 966.549 430.413, 965.031 426.500 C 963.250 421.908, 960.846 418, 959.804 418 C 958.902 418, 951.722 413.155, 951.022 412.074 C 949.909 410.357, 941.925 407, 938.954 407 C 937.234 407, 932.487 407.970, 928.405 409.157 C 922.366 410.911, 920.510 411.098, 918.444 410.157 C 917.044 409.518, 911.253 409, 905.524 409 C 894.508 409, 892 408.060, 892 403.929 C 892 402.388, 891.290 402, 888.469 402 C 886.205 402, 884.769 402.538, 884.469 403.500 M 999.969 465.877 C 998.061 466.900, 996.500 468.134, 996.500 468.619 C 996.500 469.103, 998.638 469.637, 1001.250 469.805 C 1006.306 470.129, 1006.642 469.782, 1004.684 466.258 C 1003.442 464.024, 1003.427 464.022, 999.969 465.877" stroke="#cda789" fill="#cda789" fill-opacity="0.2" fill-rule="evenodd"/><path class="svg-region-DB" d="M 739.806 280.049 C 738.874 280.592, 733.924 282.109, 728.806 283.421 C 718.817 285.980, 710.634 289.166, 709.551 290.917 C 709.183 291.513, 707.984 292, 706.886 292 C 705.788 292, 702.240 293.800, 699 296 C 695.760 298.200, 692.777 300, 692.371 300 C 691.964 300, 688.400 303.295, 684.450 307.323 C 680.500 311.351, 675.745 315.213, 673.884 315.906 C 672.023 316.598, 669.825 317.574, 669 318.074 C 668.175 318.573, 665.315 320.143, 662.644 321.562 C 654.003 326.152, 649.574 329.970, 645.877 336.017 C 642.749 341.133, 638.623 352.326, 636.623 361.118 C 635.800 364.739, 628.999 371.277, 623.812 373.433 C 614.364 377.361, 612.209 377.942, 604.750 378.576 C 599.438 379.028, 597 379.640, 597 380.522 C 597 381.446, 598.125 381.659, 600.981 381.276 C 603.171 380.982, 606.235 381.269, 607.791 381.913 C 610.663 383.103, 614 387.600, 614 390.282 C 614 391.092, 614.675 392.315, 615.500 393 C 616.325 393.685, 617 395.090, 617 396.122 C 617 397.785, 617.828 398.001, 624.250 398.011 L 631.500 398.023 633.185 401.761 C 634.112 403.818, 635.157 407.668, 635.507 410.319 C 635.876 413.115, 637.581 417.522, 639.569 420.819 C 641.453 423.943, 642.996 426.975, 642.997 427.556 C 642.999 428.136, 644.125 430.136, 645.500 432 C 646.875 433.864, 648 436.244, 648 437.290 C 648 438.821, 649.838 442.998, 651.832 446 C 652.015 446.275, 658.315 446.817, 665.832 447.204 C 673.349 447.591, 683.671 448.209, 688.768 448.577 C 697.589 449.214, 698.217 449.124, 701.768 446.715 C 703.821 445.323, 707.508 443.862, 709.962 443.468 C 712.415 443.075, 715.115 442.373, 715.962 441.908 C 716.808 441.443, 719.525 440.394, 722 439.576 C 727.978 437.601, 737.528 433.606, 739.178 432.391 C 740.568 431.367, 741.299 431.015, 752.475 425.992 C 756.311 424.267, 760.586 421.594, 761.975 420.052 C 763.364 418.509, 765.917 416.941, 767.649 416.566 C 769.382 416.192, 772.585 414.135, 774.768 411.995 C 776.951 409.855, 780.033 407.800, 781.618 407.429 C 786.953 406.178, 803.582 397.672, 806 394.957 C 807.199 393.611, 814.023 391, 816.342 391 C 817.739 391, 819.160 390.550, 819.500 390 C 819.840 389.450, 822.990 389, 826.500 389 C 830.010 389, 833.160 389.450, 833.500 390 C 834.443 391.525, 840.778 391.192, 843.391 389.479 C 845.964 387.794, 859.228 385, 864.660 385 C 866.637 385, 870.128 383.837, 872.734 382.310 C 876.923 379.855, 878.596 379.556, 891.912 378.879 C 899.935 378.472, 910.971 378.107, 916.436 378.069 C 925.309 378.007, 926.627 377.760, 928.769 375.750 C 930.768 373.874, 932.291 373.500, 937.931 373.503 C 943.790 373.505, 945.706 374.019, 952.246 377.339 C 957.752 380.133, 961.518 381.321, 966.149 381.723 C 976.965 382.663, 984.266 387.257, 990.668 397.153 C 993.104 400.919, 995.681 404, 996.395 404 C 997.110 404, 998.732 404.900, 1000 406 C 1001.268 407.100, 1002.935 408, 1003.703 408 C 1005.529 408, 1010.967 410.767, 1013.500 412.986 C 1014.600 413.949, 1016.673 415.014, 1018.107 415.352 C 1019.541 415.690, 1022.804 417.968, 1025.357 420.415 C 1028.906 423.815, 1030 425.586, 1030 427.932 C 1030 429.754, 1030.888 431.888, 1032.188 433.188 C 1033.665 434.665, 1033.975 435.508, 1033.141 435.786 C 1031.008 436.497, 1042.276 442.953, 1044.632 442.370 C 1047.968 441.545, 1055.294 445.458, 1062.671 452.007 C 1066.384 455.303, 1069.803 458, 1070.268 458 C 1070.732 458, 1072.008 460.025, 1073.103 462.500 C 1074.198 464.975, 1075.445 467, 1075.875 467 C 1076.305 467, 1078.719 465.635, 1081.238 463.966 C 1085.225 461.325, 1088.671 457.541, 1093.334 450.685 C 1094.509 448.958, 1094.782 448.993, 1099.034 451.423 C 1104.087 454.312, 1106.244 454.511, 1113.696 452.778 L 1118.950 451.557 1120.084 446.096 C 1120.723 443.015, 1122.695 438.488, 1124.609 435.706 C 1127.364 431.700, 1128 429.829, 1128 425.732 C 1128 421.901, 1128.597 419.905, 1130.486 417.429 C 1133.082 414.026, 1143.851 408, 1147.339 408 C 1149.711 408, 1154.895 406.380, 1160.500 403.886 C 1162.700 402.907, 1167.800 400.790, 1171.833 399.180 L 1179.166 396.254 1176.333 394.290 C 1174.775 393.209, 1172.772 392.064, 1171.882 391.745 C 1170.991 391.425, 1166.105 387.639, 1161.024 383.332 C 1155.942 379.024, 1150.090 374.150, 1148.018 372.500 C 1128.558 357.003, 1103.888 334.004, 1100.411 328.118 C 1099.398 326.403, 1098.274 325, 1097.913 325 C 1097.552 325, 1093.145 319.868, 1088.120 313.596 C 1083.094 307.324, 1077.510 300.899, 1075.710 299.318 C 1071.668 295.770, 1062.746 291.292, 1049 285.913 C 1039.605 282.236, 1037.921 281.873, 1033 282.467 C 1029.975 282.831, 1025.344 283.370, 1022.710 283.664 C 1018.743 284.107, 1018.120 284.440, 1019.084 285.601 C 1020.802 287.672, 1022.271 311.576, 1021.596 326.500 C 1021.186 335.585, 1020.405 341.278, 1019.004 345.405 C 1016.602 352.484, 1016.432 358.744, 1018.560 361.782 C 1019.490 363.111, 1019.995 365.521, 1019.810 367.755 C 1019.547 370.936, 1019.113 371.545, 1016.927 371.799 C 1014.004 372.139, 996.268 364.259, 992.906 361.127 C 991.709 360.012, 989.464 358.822, 987.917 358.482 C 986.370 358.142, 983.168 356.095, 980.802 353.932 C 978.437 351.769, 976.200 350, 975.832 350 C 975.464 350, 974.511 349.750, 973.713 349.443 C 972.812 349.098, 972.063 349.651, 971.736 350.902 C 971.221 352.872, 970.556 352.911, 942.104 352.646 C 926.097 352.497, 913 352.689, 913 353.072 C 913 353.456, 910.568 354.073, 907.595 354.445 C 904.622 354.816, 899.892 355.993, 897.084 357.060 C 890.189 359.680, 877.539 359.652, 870 357 C 865.333 355.358, 861.672 355.060, 845.815 355.033 C 833.963 355.012, 826.101 355.420, 824.315 356.150 C 819.758 358.011, 794.094 357.617, 790.246 355.627 C 787.802 354.363, 786.502 354.239, 784.338 355.061 C 781.617 356.096, 772.823 362.723, 772.167 364.233 C 771.983 364.655, 771.411 365, 770.895 365 C 770.379 365, 768.209 366.157, 766.073 367.570 C 760.636 371.168, 756.333 370.643, 753.209 366 C 751.166 362.965, 750.930 361.703, 751.426 356.500 C 751.741 353.200, 752.270 342.955, 752.601 333.732 L 753.202 316.965 749.101 307.614 C 745.639 299.719, 745 297.219, 745 291.565 C 745 285.102, 746.094 281.305, 748.400 279.765 C 750.078 278.645, 741.742 278.919, 739.806 280.049" stroke="#e8b1e4" fill="#e8b1e4" fill-opacity="0.2" fill-rule="evenodd"/><path class="svg-region-MB" d="M 768.500 280.278 C 764.650 280.707, 758.234 280.800, 754.241 280.486 C 747.117 279.926, 746.964 279.963, 745.991 282.523 C 745.446 283.957, 745 288.028, 745 291.570 C 745 296.844, 745.738 299.775, 749.077 307.755 L 753.155 317.500 752.577 334 C 752.259 343.075, 751.741 353.200, 751.426 356.500 C 750.930 361.703, 751.166 362.965, 753.209 366 C 756.335 370.645, 760.966 371.191, 766.334 367.548 C 768.399 366.147, 770.318 365, 770.599 365 C 770.879 365, 772.536 363.666, 774.280 362.036 C 776.024 360.406, 779.584 357.912, 782.191 356.493 C 786.769 354.001, 787.040 353.969, 790.127 355.566 C 794.070 357.604, 818.199 358.041, 824.500 356.188 C 826.933 355.472, 835.550 355.022, 846.500 355.038 C 861.689 355.061, 865.359 355.367, 870 357 C 877.594 359.671, 891.167 359.715, 897.297 357.087 C 899.752 356.035, 904.289 354.858, 907.380 354.472 C 910.471 354.086, 913 353.468, 913 353.098 C 913 352.729, 925.938 352.548, 941.750 352.695 C 969.218 352.952, 970.567 352.877, 972 351.019 C 973.413 349.186, 973.688 349.166, 976.750 350.662 C 978.538 351.535, 980 352.797, 980 353.466 C 980 354.135, 983.038 356.159, 986.750 357.964 C 990.462 359.769, 993.743 361.627, 994.041 362.093 C 995.239 363.972, 1014.328 372.099, 1016.854 371.806 C 1019.122 371.544, 1019.544 370.966, 1019.810 367.755 C 1019.995 365.521, 1019.490 363.111, 1018.560 361.782 C 1016.390 358.684, 1016.612 353.393, 1019.250 345.355 C 1021.351 338.953, 1021.490 336.916, 1021.351 314.500 C 1021.270 301.300, 1020.757 289.363, 1020.211 287.973 C 1018.986 284.853, 1007.203 278.397, 1005.620 279.980 C 1004.989 280.611, 996.278 281, 982.768 281 C 965.802 281, 960.150 281.328, 957.410 282.473 C 955.152 283.417, 952.349 283.735, 949.611 283.360 C 946.752 282.968, 944.371 283.272, 942.419 284.279 C 940.627 285.202, 933.709 286.241, 924.500 286.970 C 916.250 287.623, 906.929 288.783, 903.787 289.548 C 900.645 290.313, 892.770 291.236, 886.287 291.599 C 874.312 292.269, 871.835 291.992, 854 287.988 C 849.325 286.938, 842.575 285.661, 839 285.150 C 835.425 284.638, 829.125 283.500, 825 282.619 C 816.010 280.701, 778.628 279.152, 768.500 280.278" stroke="#f9c6c6" fill="#f9c6c6" fill-opacity="0.2" fill-rule="evenodd"/><path class="svg-region-Ol" d="M 426 319.372 C 417.516 322.188, 411.030 327.905, 385.280 355.266 C 380.759 360.070, 376.822 364, 376.530 364 C 375.742 364, 372.270 367.054, 368.677 370.908 C 366.930 372.783, 363.363 376.368, 360.750 378.877 C 358.137 381.385, 356 384.044, 356 384.785 C 356 386.265, 351.742 392.327, 348.449 395.536 C 346.618 397.319, 343.978 403.832, 340.124 416.071 C 339.506 418.035, 339 421.721, 339 424.262 C 339 426.803, 338.535 429.169, 337.967 429.520 C 336.718 430.292, 337.587 462.706, 339.046 469.798 C 339.578 472.384, 340.249 476.525, 340.536 479 C 341.106 483.910, 342.845 490.184, 349.545 511.500 C 351.965 519.200, 355.062 529.775, 356.426 535 C 361.072 552.787, 361.834 555.499, 363.417 559.876 C 364.288 562.282, 365 565.230, 365 566.426 C 365 567.622, 365.408 569.028, 365.906 569.550 C 366.405 570.073, 367.724 573.425, 368.838 577 C 372.400 588.436, 375.938 597.858, 380.405 607.806 C 391.321 632.120, 394.354 638.602, 395.467 640 C 396.124 640.825, 397.929 643.750, 399.477 646.500 C 401.026 649.250, 404.806 655.325, 407.878 660 C 413.930 669.212, 415.839 672.357, 419.106 678.500 C 420.276 680.700, 421.839 683.192, 422.579 684.038 C 423.320 684.883, 428.668 695.233, 434.464 707.038 C 440.260 718.842, 445.905 730.075, 447.010 732 C 448.114 733.925, 450.870 739.100, 453.133 743.500 C 469.093 774.531, 487.928 798.742, 504.479 809.500 C 517.650 818.062, 540.593 825.497, 551.441 824.719 C 559.259 824.159, 578.798 820.462, 586.500 818.086 C 599.919 813.946, 603.294 813, 604.646 813 C 607.101 813, 620.149 805.116, 629.504 797.979 C 638.618 791.026, 669.846 762.640, 673.470 758.015 C 675.192 755.817, 678.789 751.833, 695.506 733.612 C 697.468 731.473, 701.628 726.748, 704.750 723.112 C 707.873 719.475, 713.369 713.350, 716.964 709.500 C 726.186 699.626, 732.932 691.865, 737 686.452 C 738.925 683.890, 741.028 681.233, 741.673 680.546 C 744.145 677.913, 757 659.177, 757 658.206 C 757 657.756, 758.153 655.839, 759.562 653.944 C 760.971 652.050, 763.838 647.125, 765.932 643 C 768.026 638.875, 771.372 632.800, 773.367 629.500 C 775.362 626.200, 776.996 622.970, 776.997 622.322 C 776.999 621.674, 778.544 618.524, 780.431 615.322 C 783.980 609.301, 787 596.134, 787 586.683 C 787 579.949, 785.048 571.029, 782.455 565.912 C 781.154 563.344, 780.308 561.026, 780.574 560.759 C 780.841 560.493, 779.696 558.816, 778.031 557.033 C 776.366 555.251, 773.615 552.039, 771.918 549.896 C 770.221 547.753, 768.195 546, 767.416 546 C 766.637 546, 766 545.550, 766 545 C 766 544.450, 765.360 544, 764.579 544 C 763.797 544, 755.535 538.938, 746.218 532.750 C 725.262 518.832, 725.550 519, 722.614 519 C 721.287 519, 717.861 517.425, 715 515.500 C 712.139 513.575, 709.414 512, 708.944 512 C 707.743 512, 698.920 506.717, 692.171 501.958 C 687.107 498.387, 685.566 497.851, 677.995 497.032 C 673.323 496.526, 664.830 495.589, 659.123 494.948 C 651.091 494.047, 646.458 494.061, 638.623 495.009 C 625.773 496.565, 626.140 496.570, 609.500 494.613 C 590.553 492.384, 584.377 491.205, 581.133 489.198 C 576.621 486.407, 562.033 474.867, 556.067 469.369 C 553.005 466.547, 547.682 461.989, 544.237 459.240 C 534.633 451.576, 529 443.509, 529 437.419 C 529 436.134, 528.212 433.516, 527.250 431.603 C 525.915 428.948, 525.020 428.240, 523.475 428.614 C 520.566 429.318, 515.035 425.227, 511.783 419.966 C 510.254 417.493, 508.056 412.102, 506.899 407.985 C 505.088 401.543, 504.888 398.968, 505.459 389.500 C 506.568 371.111, 506.274 368.385, 502.339 360.531 C 496.509 348.897, 484.143 334.618, 475.394 329.419 C 470.141 326.297, 457.876 322, 454.219 322 C 452.668 322, 450.973 321.611, 450.450 321.136 C 447.317 318.286, 432.492 317.217, 426 319.372" stroke="#aa444d" fill="#aa444d" fill-opacity="0.2" fill-rule="evenodd"/><path class="svg-region-Or" d="M 437 315 C 437 315.550, 437.675 316, 438.500 316 C 439.325 316, 440 315.550, 440 315 C 440 314.450, 439.325 314, 438.500 314 C 437.675 314, 437 314.450, 437 315 M 1312.750 339.337 C 1308.487 339.833, 1305 340.635, 1305 341.119 C 1305 341.604, 1303.680 342, 1302.066 342 C 1298.748 342, 1288.263 346.232, 1283 349.695 C 1277.191 353.518, 1270.439 358.513, 1267.961 360.822 C 1266.675 362.020, 1265.272 363, 1264.844 363 C 1264.415 363, 1262.308 365.363, 1260.162 368.250 C 1252.932 377.975, 1251.335 388.863, 1255.505 400 C 1258.459 407.889, 1258.393 409.296, 1254.636 418.512 C 1250.688 428.195, 1245.371 436.517, 1240.022 441.384 C 1236.212 444.850, 1231.475 454.240, 1230.515 460.227 C 1230.187 462.277, 1228.276 466.102, 1226.268 468.727 C 1224.261 471.352, 1221.095 475.491, 1219.234 477.925 C 1212.483 486.752, 1199.588 498.675, 1193.429 501.784 C 1180.589 508.265, 1171.870 509.169, 1153 505.976 C 1149.425 505.372, 1139.246 504.642, 1130.380 504.354 C 1113.736 503.815, 1110.002 504.362, 1101.972 508.515 C 1100.392 509.332, 1097.256 510, 1095.003 510 C 1091.500 510, 1090.660 509.567, 1089.203 507.006 C 1088.267 505.360, 1087.134 504.010, 1086.687 504.006 C 1086.240 504.003, 1083.540 505.065, 1080.687 506.367 C 1077.834 507.669, 1073.813 509.461, 1071.750 510.351 C 1069.688 511.240, 1068 512.425, 1068 512.984 C 1068 513.543, 1067.475 514, 1066.834 514 C 1066.193 514, 1064.955 514.693, 1064.084 515.541 C 1062.012 517.556, 1052.267 523.436, 1038.088 531.225 C 1031.811 534.673, 1024.691 539.422, 1022.265 541.780 C 1019.839 544.138, 1016.200 547.113, 1014.177 548.393 C 1009.991 551.041, 1005.091 555.503, 1002.953 558.615 C 1002.154 559.779, 999.362 562.173, 996.750 563.936 C 994.138 565.699, 991.987 567.447, 991.972 567.821 C 991.956 568.194, 990.165 570.498, 987.992 572.940 C 980.680 581.158, 979.558 584.675, 979.187 600.542 L 978.859 614.583 982.551 623.042 C 984.582 627.694, 988.326 634.584, 990.872 638.353 C 993.417 642.122, 996.175 646.250, 997 647.527 C 998.464 649.792, 1000.038 651.736, 1008.750 662.040 C 1011.087 664.805, 1013 667.508, 1013 668.048 C 1013 668.587, 1014.913 671.469, 1017.250 674.453 C 1024.555 683.776, 1029.395 690.274, 1032.344 694.716 C 1033.909 697.072, 1035.596 699, 1036.094 699 C 1036.592 699, 1037 699.584, 1037 700.298 C 1037 701.011, 1038.688 703.956, 1040.750 706.842 C 1042.813 709.728, 1046.645 715.107, 1049.267 718.795 C 1056.487 728.949, 1056.698 729.244, 1059.412 733 C 1060.804 734.925, 1063.018 738.075, 1064.334 740 C 1080.778 764.066, 1112.995 798.638, 1127.873 808.186 C 1137.159 814.144, 1140.347 815.182, 1152 816.039 C 1158.325 816.504, 1166.650 817.593, 1170.500 818.460 C 1197.702 824.582, 1203.462 825.437, 1217 825.361 C 1234.834 825.261, 1243.107 823.008, 1258.371 814.096 C 1267.072 809.015, 1283.404 795.653, 1292.162 786.450 C 1300.032 778.179, 1311.746 763.429, 1318.607 753.151 C 1321.783 748.393, 1325.147 743.600, 1326.083 742.500 C 1327.018 741.400, 1329.031 738.025, 1330.554 735 C 1332.078 731.975, 1334.377 728.068, 1335.663 726.317 C 1336.948 724.566, 1338 722.834, 1338 722.468 C 1338 722.101, 1340.564 717.459, 1343.697 712.151 C 1348.727 703.632, 1359.660 682.267, 1367.365 665.904 C 1368.814 662.825, 1370 659.559, 1370 658.645 C 1370 657.731, 1371.350 655.119, 1373 652.841 C 1374.650 650.564, 1376 648.239, 1376 647.676 C 1376 647.112, 1377.739 643.242, 1379.864 639.076 C 1381.990 634.909, 1384.966 628.350, 1386.477 624.500 C 1387.989 620.650, 1389.566 617.050, 1389.982 616.500 C 1390.399 615.950, 1391.304 613.700, 1391.994 611.500 C 1392.685 609.300, 1394.266 605.475, 1395.508 603 C 1403.954 586.172, 1407.362 577.073, 1414.049 553.500 C 1414.518 551.850, 1415.811 547.401, 1416.925 543.613 C 1418.038 539.826, 1418.740 536.388, 1418.485 535.975 C 1418.229 535.561, 1418.898 531.010, 1419.972 525.862 C 1422.188 515.231, 1423.862 494.145, 1423.373 483 C 1422.588 465.091, 1421.321 450.668, 1420.298 448 C 1419.982 447.175, 1419.818 445.061, 1419.934 443.303 C 1420.049 441.545, 1419.437 438.507, 1418.572 436.553 C 1417.707 434.599, 1416.243 431.313, 1415.317 429.250 C 1414.392 427.188, 1413.549 423.860, 1413.444 421.857 C 1413.205 417.287, 1410.509 408.036, 1407.512 401.500 C 1406.251 398.750, 1404.927 395.825, 1404.570 395 C 1403.253 391.954, 1396.313 381.178, 1394.910 380 C 1394.582 379.725, 1392.622 377.250, 1390.552 374.500 C 1388.483 371.750, 1384.925 367.778, 1382.645 365.673 C 1372.462 356.273, 1368.512 353, 1367.349 353 C 1366.662 353, 1365.740 352.411, 1365.300 351.691 C 1364.860 350.971, 1362.925 349.775, 1361 349.031 C 1359.075 348.288, 1356.007 346.581, 1354.183 345.238 C 1351.865 343.531, 1348.704 342.524, 1343.688 341.895 C 1339.740 341.399, 1335.020 340.502, 1333.199 339.901 C 1328.751 338.433, 1322.097 338.249, 1312.750 339.337" stroke="#aa444d" fill="#aa444d" fill-opacity="0.2" fill-rule="evenodd"/><path class="svg-region-Pl" d="M 539.758 412.818 C 537.150 414.860, 534.365 417.461, 533.569 418.598 C 531.873 421.020, 529 432.744, 529 437.246 C 529 444.143, 534.777 452.015, 547 461.775 C 550.575 464.630, 555.288 468.773, 557.473 470.983 C 559.658 473.192, 561.751 475, 562.123 475 C 562.495 475, 566.333 477.824, 570.650 481.275 C 583.627 491.649, 583.996 491.783, 605.823 494.086 C 616.534 495.216, 617.292 495.175, 619.823 493.319 C 621.296 492.241, 623.235 489.918, 624.134 488.158 C 625.033 486.398, 627.886 482.985, 630.475 480.574 L 635.181 476.191 634.067 470.820 C 632.959 465.484, 632.899 465.418, 624.726 460.476 C 620.202 457.740, 614.475 454.657, 612 453.623 C 603.212 449.955, 592.471 444.495, 590.500 442.695 C 589.400 441.690, 587.084 439.990, 585.354 438.916 C 583.624 437.843, 581.929 435.853, 581.588 434.493 C 581.246 433.133, 578.612 429.830, 575.734 427.152 C 572.855 424.474, 567.314 419.294, 563.420 415.641 L 556.340 409 550.420 409.052 C 545.146 409.098, 543.982 409.509, 539.758 412.818" stroke="#f9d3d3" fill="#f9d3d3" fill-opacity="0.2" fill-rule="evenodd"/><path class="svg-region-Pr" d="M 1205.546 435.074 C 1206.286 436.272, 1202.284 441, 1200.529 441 C 1199.912 441, 1196.953 442.563, 1193.954 444.474 C 1190.954 446.385, 1187.240 447.960, 1185.700 447.974 C 1184.161 447.988, 1181.529 448.709, 1179.853 449.576 C 1177.041 451.030, 1176.851 451.456, 1177.402 455.076 C 1177.731 457.234, 1178.274 460.817, 1178.609 463.037 C 1179.110 466.361, 1178.744 467.788, 1176.536 471.125 C 1173.155 476.234, 1167.645 481.615, 1163.711 483.650 C 1162.041 484.513, 1158.088 485.454, 1154.926 485.740 C 1150.133 486.175, 1148.679 485.907, 1146.184 484.131 C 1142.386 481.427, 1136.114 481.300, 1133.153 483.867 C 1128.949 487.514, 1130.274 490.455, 1139.485 497.923 C 1145.874 503.103, 1147.801 504.077, 1155.620 506.076 C 1175.944 511.271, 1191.143 506.838, 1207.104 491.058 C 1215.403 482.854, 1225.040 471.261, 1229.108 464.590 C 1230.317 462.608, 1230.994 459.627, 1230.996 456.280 C 1231 451.181, 1230.536 449.999, 1223.195 436.414 C 1221.974 434.153, 1221.350 434, 1213.386 434 C 1207.581 434, 1205.093 434.341, 1205.546 435.074" stroke="#f9d3d3" fill="#f9d3d3" fill-opacity="0.2" fill-rule="evenodd"/><path class="svg-region-DLl" d="M 611 399.201 C 608.424 399.766, 604.260 401.906, 601.259 404.208 C 596.823 407.612, 595.517 408.136, 592.759 407.619 C 590.966 407.283, 586.671 406.598, 583.214 406.096 C 579.757 405.595, 576.289 404.655, 575.508 404.006 C 573.698 402.505, 572 403.533, 572 406.130 C 572 407.237, 571.325 408.818, 570.500 409.643 C 569.611 410.532, 569 412.977, 569 415.646 C 569 419.720, 569.512 420.689, 574.372 425.824 C 577.327 428.946, 580.446 432.880, 581.303 434.566 C 582.160 436.252, 584.805 438.951, 587.180 440.563 C 589.556 442.175, 591.727 443.794, 592.005 444.160 C 592.541 444.866, 607.122 451.745, 613 454.064 C 614.925 454.824, 619.340 457.349, 622.811 459.675 C 626.281 462.001, 629.967 464.172, 631 464.500 C 633.538 465.306, 635.910 475.809, 633.848 477.115 C 632.842 477.753, 633.008 477.972, 634.500 477.978 C 637.314 477.990, 641 472.181, 641 467.735 C 641 463.929, 642.755 459, 644.110 459 C 644.544 459, 646.269 457.538, 647.945 455.750 C 650.421 453.108, 650.986 451.658, 650.964 448 C 650.949 445.525, 650.276 442.626, 649.468 441.559 C 648.661 440.491, 648 438.679, 648 437.531 C 648 436.384, 647.235 434.353, 646.301 433.019 C 642.284 427.284, 635.856 413.178, 635.364 409.018 C 635.070 406.533, 634.091 403.038, 633.188 401.250 L 631.545 398 623.523 398.107 C 619.110 398.166, 613.475 398.658, 611 399.201" stroke="#b7d6d3" fill="#b7d6d3" fill-opacity="0.2" fill-rule="evenodd"/><path class="svg-region-DLr" d="M 1131.245 429.820 C 1127.484 431.827, 1122.529 437.503, 1120.926 441.642 C 1120.317 443.214, 1119.614 449, 1119.363 454.500 C 1119.112 460, 1118.401 466.201, 1117.783 468.280 C 1116.938 471.125, 1116.949 472.349, 1117.830 473.230 C 1118.474 473.874, 1119 475.457, 1119 476.750 C 1119 480.567, 1121.783 484.838, 1126.009 487.505 C 1130.549 490.372, 1132.191 490.662, 1131.342 488.449 C 1130.999 487.555, 1131.721 485.861, 1133.048 484.449 C 1135.971 481.337, 1142.315 481.117, 1146 484 C 1147.673 485.309, 1150.082 485.963, 1153.282 485.978 C 1161.923 486.018, 1169.658 481.399, 1175.516 472.700 C 1179.210 467.215, 1179.801 463.596, 1177.896 458.132 C 1176.474 454.051, 1177.372 450.586, 1180.178 449.334 C 1182.330 448.374, 1182.276 448.260, 1178.467 445.671 C 1176.305 444.202, 1173.935 443, 1173.201 443 C 1171.739 443, 1166.204 439.165, 1161.500 434.893 C 1154.970 428.962, 1138.142 426.141, 1131.245 429.820" stroke="#b7d6d3" fill="#b7d6d3" fill-opacity="0.2" fill-rule="evenodd"/><path class="svg-region-OGr" d="M 1190.524 425.810 C 1190.236 426.098, 1190 427.056, 1190 427.939 C 1190 428.823, 1188.371 432.010, 1186.380 435.023 C 1178.562 446.850, 1182.676 450.049, 1196.686 443.037 C 1201.146 440.805, 1205.060 438.285, 1205.386 437.437 C 1205.980 435.890, 1203.424 431, 1202.021 431 C 1201.610 431, 1200.199 429.941, 1198.886 428.647 C 1196.604 426.397, 1191.626 424.708, 1190.524 425.810" stroke="#d66e9d" fill="#d66e9d" fill-opacity="0.2" fill-rule="evenodd"/><path class="svg-region-OLl" d="M 596 383 C 594.075 384.054, 591.107 384.935, 589.405 384.958 C 587.673 384.982, 585.549 385.841, 584.583 386.909 C 583.633 387.958, 581.545 389.360, 579.944 390.023 C 574.849 392.134, 572.079 401.161, 575.624 404.103 C 576.517 404.844, 579.779 405.750, 582.874 406.117 C 585.968 406.483, 590.183 407.115, 592.240 407.521 C 595.622 408.188, 596.493 407.863, 601.329 404.132 C 605.169 401.170, 608.016 399.822, 611.427 399.355 C 617.437 398.531, 618.185 397.028, 615.089 392 C 614.581 391.175, 613.615 389.016, 612.942 387.203 C 610.723 381.222, 602.826 379.263, 596 383" stroke="#c4875d" fill="#c4875d" fill-opacity="0.2" fill-rule="evenodd"/><path class="svg-region-OLr" d="M 1168.003 400.606 C 1163.330 402.524, 1159.077 404.523, 1158.553 405.047 C 1158.029 405.571, 1156.367 406, 1154.859 406 C 1153.351 406, 1151.840 406.450, 1151.500 407 C 1151.160 407.550, 1149.630 408, 1148.101 408 C 1143.974 408, 1133.334 413.696, 1130.486 417.429 C 1128.581 419.927, 1128 421.894, 1128 425.844 C 1128 431.426, 1128.243 431.648, 1132 429.500 C 1137.964 426.091, 1155.297 429.259, 1161.500 434.893 C 1166.310 439.261, 1171.751 443, 1173.298 443 C 1174.086 443, 1175.932 443.945, 1177.400 445.100 C 1178.868 446.255, 1181.966 447.363, 1184.285 447.563 C 1187.727 447.861, 1187.950 447.790, 1185.500 447.178 C 1183.007 446.556, 1182.532 445.967, 1182.691 443.692 C 1182.797 442.187, 1184.438 438.377, 1186.338 435.227 C 1188.238 432.077, 1189.961 428.600, 1190.165 427.500 C 1190.449 425.975, 1191.186 425.576, 1193.272 425.822 C 1195.069 426.034, 1196.217 425.598, 1196.618 424.554 C 1197.388 422.548, 1195.335 417.355, 1192.317 413.673 C 1191.043 412.119, 1190 409.921, 1190 408.790 C 1190 406.234, 1180.774 396.978, 1178.306 397.059 C 1177.313 397.091, 1172.676 398.687, 1168.003 400.606" stroke="#c4875d" fill="#c4875d" fill-opacity="0.2" fill-rule="evenodd"/><path class="svg-region-OABl" d="M 715.571 491.571 C 713.490 493.653, 713.590 495.209, 716 498.273 C 717.100 499.671, 718 501.260, 718 501.803 C 718 502.346, 719.688 503.649, 721.750 504.697 C 726.147 506.933, 737 513.792, 742 517.495 C 747.455 521.534, 752.801 524.865, 753.197 524.470 C 753.394 524.272, 755.193 524.480, 757.194 524.931 C 760.305 525.633, 760.903 525.480, 761.322 523.876 C 762.080 520.980, 765.767 521.621, 769.054 525.220 C 773.143 529.697, 779.667 530.957, 801.654 531.516 C 811.639 531.769, 820.983 532.423, 822.419 532.969 C 823.855 533.515, 829.410 534.268, 834.765 534.643 C 845.978 535.427, 846.112 534.924, 836.407 528.482 C 830.651 524.661, 829.797 523.127, 832.967 522.298 C 836.008 521.503, 836.570 518.125, 834.076 515.632 C 831.986 513.543, 831.287 513.500, 799.222 513.500 C 769.109 513.500, 766.141 513.346, 762 511.569 C 759.525 510.507, 757.275 509.369, 757 509.040 C 755.863 507.681, 730.786 497, 728.732 497 C 728.001 497, 725.850 495.439, 723.952 493.532 C 720.147 489.709, 717.948 489.195, 715.571 491.571" stroke="#81244d" fill="#81244d" fill-opacity="0.2" fill-rule="evenodd"/><path class="svg-region-OABr" d="M 1041 495.737 C 1040.175 496.055, 1038.834 497.257, 1038.019 498.408 C 1037.205 499.559, 1034.997 501.850, 1033.113 503.500 C 1031.228 505.150, 1026.720 509.515, 1023.093 513.199 C 1019.467 516.884, 1015.258 520.196, 1013.741 520.560 C 1012.223 520.924, 1010.734 521.622, 1010.432 522.111 C 1010.129 522.600, 1008.585 523, 1007 523 C 1005.415 523, 1003.878 523.388, 1003.585 523.863 C 1003.291 524.337, 1000.902 525.281, 998.276 525.961 C 990.173 528.056, 990.248 528.005, 993 529.537 C 994.483 530.363, 994.890 530.946, 994 530.971 C 993.175 530.994, 991.150 531.778, 989.500 532.714 C 986.836 534.226, 983.367 534.383, 958.500 534.124 C 935.098 533.879, 929.648 533.545, 925.311 532.091 C 920.367 530.434, 917 530.786, 917 532.960 C 917 533.434, 919.038 534.808, 921.529 536.014 C 925.390 537.883, 927.668 538.193, 936.979 538.118 C 942.986 538.070, 948.159 538.448, 948.474 538.958 C 949.102 539.974, 981.967 539.456, 985.419 538.376 C 986.564 538.018, 988.518 536.930, 989.763 535.958 C 991.450 534.641, 993.805 534.202, 999.013 534.235 C 1002.856 534.259, 1006 534.714, 1006 535.245 C 1006 535.776, 1004.875 537.548, 1003.500 539.182 C 1000.631 542.592, 1000.396 543.831, 1002.469 544.627 C 1003.336 544.959, 1008.650 541.870, 1015.425 537.095 C 1021.743 532.643, 1027.301 529, 1027.776 529 C 1030.375 529, 1038.691 518.690, 1038.150 516.138 C 1037.745 514.228, 1041.959 510, 1044.268 510 C 1045.324 510, 1046.413 509.138, 1046.688 508.085 C 1046.964 507.031, 1048.166 505.924, 1049.360 505.625 C 1051.841 505.002, 1058.671 498.338, 1057.761 497.428 C 1055.944 495.611, 1044.355 494.442, 1041 495.737" stroke="#81244d" fill="#81244d" fill-opacity="0.2" fill-rule="evenodd"/><path class="svg-region-SOTl" d="M 823 398.071 C 819.425 399.057, 815.233 399.894, 813.684 399.932 C 812.136 399.969, 809.950 400.492, 808.827 401.093 C 807.350 401.883, 806.483 401.883, 805.693 401.093 C 804.009 399.409, 798.110 399.798, 795.154 401.786 C 791.669 404.131, 788.443 405.524, 783.232 406.935 C 780.748 407.608, 776.868 409.953, 773.949 412.545 C 771.148 415.033, 767.932 417, 766.667 417 C 763.767 417, 762 418.780, 762 421.700 C 762 423.597, 762.534 424, 765.050 424 C 768.648 424, 773.721 421.566, 776.007 418.743 C 777.354 417.079, 777.998 416.928, 779.751 417.867 C 783.006 419.609, 785.763 419.233, 789.785 416.500 C 793.748 413.808, 796 413.316, 796 415.144 C 796 416.801, 809.979 415.579, 813.834 413.586 C 816.082 412.423, 819.802 412, 827.769 412 L 838.637 412 842.568 415.527 C 844.731 417.466, 847.537 419.321, 848.804 419.649 C 852.557 420.618, 857.994 419.270, 861.357 416.536 C 870.970 408.721, 871.021 408.694, 877.300 408.093 L 883.500 407.500 883.500 404 L 883.500 400.500 877 399.889 C 873.425 399.552, 868.475 398.546, 866 397.653 C 859.477 395.299, 832.086 395.565, 823 398.071" stroke="#995b45" fill="#995b45" fill-opacity="0.2" fill-rule="evenodd"/><path class="svg-region-SOTr" d="M 905.720 398.414 C 904.452 399.376, 902.030 399.612, 897.305 399.232 C 891.307 398.751, 890.735 398.866, 891.335 400.432 C 891.701 401.384, 892 402.995, 892 404.010 C 892 408.030, 894.577 409, 905.250 409 C 910.810 409, 916.811 409.526, 918.588 410.168 C 921.304 411.150, 922.911 410.991, 928.687 409.168 C 932.465 407.976, 936.796 407, 938.310 407 C 942.107 407, 947.599 409.441, 951.492 412.859 C 953.287 414.435, 956.151 416.342, 957.856 417.096 C 960.121 418.099, 961.804 420.190, 964.100 424.854 L 967.243 431.239 971.505 430.654 C 973.849 430.333, 977.403 429.105, 979.403 427.925 C 982.012 426.386, 983.953 425.948, 986.270 426.377 C 1000.540 429.018, 1001.973 429.062, 1006.494 427.003 C 1012.151 424.426, 1013.162 424.479, 1016 427.500 C 1018.659 430.330, 1020 430.679, 1020 428.539 C 1020 426.312, 1016.183 423.169, 1009 419.481 C 1005.425 417.645, 1000.269 414.274, 997.542 411.989 C 992.984 408.172, 992.247 407.886, 988.428 408.459 C 984.410 409.061, 980.369 408.012, 977 405.491 C 972.980 402.483, 961.080 399.126, 952.500 398.579 C 947.550 398.264, 941.549 397.728, 939.164 397.390 C 935.738 396.903, 933.478 397.347, 928.403 399.504 C 923.128 401.746, 921.489 402.049, 919.240 401.198 C 917.733 400.629, 915.263 399.892, 913.750 399.562 C 912.237 399.232, 911 398.520, 911 397.981 C 911 396.569, 907.806 396.832, 905.720 398.414" stroke="#995b45" fill="#995b45" fill-opacity="0.2" fill-rule="evenodd"/><path class="svg-region-OVl" d="M 651.414 446.917 C 651.186 447.146, 651 448.556, 651 450.050 C 651 451.943, 649.808 453.844, 647.071 456.317 C 642.151 460.761, 641 462.900, 641 467.590 C 641 471.341, 637.062 478, 634.843 478 C 632.741 478, 625.903 484.296, 624.589 487.442 C 623.848 489.214, 622.036 491.614, 620.560 492.774 L 617.879 494.883 621.939 496.100 C 624.966 497.007, 626.955 497.038, 629.750 496.224 C 635.990 494.407, 650.956 493.785, 660 494.968 C 680.077 497.595, 685.954 498.212, 693.670 498.505 C 700.048 498.746, 702.972 499.383, 707.002 501.407 C 709.841 502.833, 712.690 504.014, 713.332 504.031 C 713.974 504.049, 717.189 505.399, 720.475 507.031 C 727.258 510.402, 730.444 511.015, 727.887 508.459 C 727.039 507.611, 724.816 506.148, 722.946 505.209 C 718.970 503.210, 713.610 495.180, 714.575 492.666 C 714.930 491.740, 716.323 490.706, 717.670 490.368 C 719.351 489.946, 719.934 489.270, 719.529 488.214 C 719.188 487.325, 719.959 485.580, 721.353 484.087 C 722.681 482.664, 724.018 480.150, 724.323 478.500 C 724.629 476.850, 725.185 474.257, 725.558 472.737 C 726.117 470.468, 725.736 469.575, 723.426 467.737 C 718.888 464.126, 712.961 461, 710.648 460.999 C 707.557 460.997, 703.004 456.696, 701.518 452.375 L 700.240 448.658 693.700 448.895 C 690.103 449.025, 684.536 448.656, 681.330 448.073 C 675.538 447.021, 652.207 446.119, 651.414 446.917" stroke="#593939" fill="#593939" fill-opacity="0.2" fill-rule="evenodd"/><path class="svg-region-OVr" d="M 1092.637 451.735 C 1090.394 456.072, 1083.593 462.657, 1078.863 465.070 L 1074.644 467.223 1077.072 469.114 C 1078.407 470.155, 1080.480 471.270, 1081.678 471.593 C 1084.410 472.330, 1085.618 475, 1083.219 474.999 C 1082.273 474.999, 1078.583 473.619, 1075.019 471.932 C 1069.092 469.128, 1067.851 468.902, 1060.519 469.284 C 1046.039 470.038, 1040 472.934, 1040 479.127 C 1040 482.389, 1036.728 484.540, 1030.174 485.588 C 1026.308 486.206, 1026.180 486.344, 1027.132 488.846 C 1027.678 490.283, 1028.659 491.806, 1029.313 492.230 C 1032.075 494.023, 1039.039 495.327, 1046.688 495.484 C 1051.809 495.590, 1055.478 496.152, 1056.481 496.985 C 1057.923 498.181, 1057.759 498.654, 1054.854 501.651 C 1053.076 503.485, 1050.801 505.246, 1049.796 505.565 C 1045.918 506.795, 1049.219 507.686, 1054.227 506.760 C 1057.127 506.224, 1063.660 505.996, 1068.743 506.253 C 1075.770 506.608, 1078.258 506.394, 1079.116 505.360 C 1079.737 504.612, 1081.893 504, 1083.907 504 C 1086.915 504, 1087.885 504.535, 1089.341 507 C 1090.838 509.535, 1091.731 510, 1095.096 510 C 1097.287 510, 1100.749 509.171, 1102.790 508.157 C 1110.168 504.492, 1115.004 503.830, 1130.554 504.351 C 1138.774 504.627, 1147.525 505.094, 1150 505.389 C 1153.684 505.828, 1153.912 505.774, 1151.259 505.091 C 1149.477 504.632, 1147.172 503.636, 1146.137 502.878 C 1138.486 497.275, 1132.987 492.808, 1132.305 491.644 C 1131.862 490.889, 1130.104 489.558, 1128.398 488.687 C 1124.107 486.494, 1119 480.422, 1119 477.512 C 1119 476.182, 1118.472 473.936, 1117.827 472.520 C 1116.930 470.551, 1116.930 469.670, 1117.827 468.773 C 1119.440 467.160, 1119.425 452, 1117.810 452 C 1117.156 452, 1114.066 452.528, 1110.943 453.173 C 1105.676 454.260, 1104.913 454.171, 1100.383 451.940 C 1097.697 450.617, 1095.189 449.385, 1094.809 449.203 C 1094.428 449.021, 1093.451 450.160, 1092.637 451.735" stroke="#593939" fill="#593939" fill-opacity="0.2" fill-rule="evenodd"/>
    </svg>