<svg xmlns="http://www.w3.org/2000/svg" width="1785" height="1131" viewBox="0 0 1785 1131" version="1.1">
    <path class="svg-region-SV" d="M 924.500 412 C 922.850 412.420, 917.112 412.817, 911.750 412.882 C 906.388 412.947, 902 413.398, 902 413.883 C 902 415.355, 905.106 415.626, 913.500 414.887 C 929.794 413.452, 934.938 412.709, 934.417 411.865 C 933.788 410.848, 928.758 410.917, 924.500 412 M 831 413 C 828.354 414.710, 869.010 414.630, 872 412.919 C 872.872 412.420, 864.916 412.054, 853 412.046 C 841.435 412.037, 831.846 412.453, 831 413 M 804.102 417.586 C 801.550 419.399, 799.399 420, 795.463 420 C 791.961 420, 789.504 420.581, 788.060 421.750 C 785.968 423.443, 786.222 423.497, 795.844 423.400 C 805.159 423.307, 806.114 423.101, 810.895 420.160 C 813.703 418.432, 816 416.564, 816 416.009 C 816 413.993, 807.591 415.107, 804.102 417.586 M 959.921 418.498 C 962.352 419.309, 965.277 420.823, 966.421 421.862 C 967.564 422.902, 970.300 424.067, 972.500 424.452 C 974.700 424.836, 978.481 426.249, 980.902 427.590 C 983.323 428.932, 985.525 429.808, 985.795 429.539 C 986.526 428.808, 983.942 426, 982.538 426 C 981.869 426, 980.808 424.875, 980.182 423.500 C 979.253 421.461, 978.330 421, 975.175 421 C 973.048 421, 969.955 420.326, 968.303 419.501 C 966.651 418.677, 963.094 417.783, 960.400 417.513 L 955.500 417.024 959.921 418.498 M 1013.750 438.798 C 1011.138 438.969, 1009 439.444, 1009 439.852 C 1009 441.691, 1017.026 448.168, 1020.491 449.125 C 1022.603 449.708, 1026.619 451.912, 1029.416 454.023 C 1035.738 458.795, 1038.848 460, 1044.843 460 C 1048.381 460, 1050 460.519, 1051.339 462.083 C 1052.526 463.469, 1053.689 463.923, 1054.812 463.439 C 1055.740 463.038, 1058.269 462.438, 1060.432 462.105 L 1064.364 461.500 1059.932 458.503 C 1055.769 455.688, 1054.773 455.476, 1043.500 455.003 L 1031.500 454.500 1031 451 C 1030.540 447.783, 1030.196 447.475, 1026.750 447.190 C 1023.044 446.883, 1023 446.829, 1023 442.565 C 1023 437.799, 1023.827 438.136, 1013.750 438.798" stroke="#c666b5" fill="#c666b5" fill-opacity="0.2" fill-rule="evenodd"/><path class="svg-region-IF" d="M 827 584.567 C 819.430 587.385, 815.647 589.948, 815.134 592.606 C 814.933 593.648, 814.276 594.810, 813.674 595.189 C 811.735 596.409, 816.149 600.147, 823.500 603.511 C 832.755 607.745, 847.602 609.736, 852.373 607.381 C 859.476 603.876, 867.799 591.720, 865.567 588.109 C 865.276 587.638, 862.542 586.070, 859.492 584.626 C 854.583 582.302, 852.771 582.008, 843.723 582.073 C 835.489 582.132, 832.235 582.617, 827 584.567 M 911.844 583.686 C 906.473 585.539, 905 587.901, 905 594.657 C 905 598.771, 905.464 599.678, 909.704 603.860 C 912.906 607.018, 915.860 608.885, 918.954 609.706 C 924.506 611.179, 931.506 611.335, 933.926 610.039 C 934.913 609.511, 937.921 608.932, 940.611 608.752 C 946.417 608.365, 953.771 605.297, 954.515 602.952 C 955.402 600.159, 954.220 598.670, 947.810 594.500 C 930.187 583.036, 921.392 580.392, 911.844 583.686" stroke="#f2823b" fill="#f2823b" fill-opacity="0.2" fill-rule="evenodd"/><path class="svg-region-AAB" d="M 869 526.436 C 865.975 527.085, 862.825 527.878, 862 528.198 C 861.175 528.518, 858.250 529.577, 855.500 530.551 C 852.750 531.526, 849.515 532.959, 848.311 533.737 C 844.877 535.954, 833.297 538, 824.181 538 C 816.625 538, 815.471 538.268, 811.623 540.916 C 809.292 542.519, 806.793 544.544, 806.070 545.416 C 803.328 548.719, 793.568 546.323, 790.463 541.584 C 789.114 539.525, 787.965 539, 784.808 539 C 781.668 539, 780.188 538.332, 777.673 535.776 C 773.980 532.023, 767.185 529.346, 759.001 528.421 L 753.210 527.765 752.544 530.799 C 751.466 535.706, 752.864 540.523, 756.048 542.877 C 757.627 544.045, 759.182 545, 759.503 545 C 760.647 545, 771.660 554.670, 782 564.754 C 787.775 570.386, 795.313 577.734, 798.750 581.082 C 802.188 584.431, 805 587.567, 805 588.052 C 805 588.537, 806.576 590.509, 808.501 592.435 C 812.235 596.169, 814.675 596.265, 815.192 592.700 C 815.533 590.338, 820.971 586.254, 824.941 585.377 C 826.348 585.067, 828.918 584.180, 830.651 583.406 C 832.686 582.498, 837.388 582, 843.930 582 C 853.206 582, 854.559 582.253, 860.029 585.014 C 863.377 586.705, 866 588.696, 866 589.547 C 866 592.777, 862.916 598.180, 858.535 602.624 L 853.961 607.263 859.231 606.599 C 862.129 606.234, 868.626 605.249, 873.668 604.410 C 882.044 603.016, 893.478 602.943, 895.627 604.269 C 896.107 604.565, 899.089 605.286, 902.254 605.870 C 905.418 606.455, 908.915 607.419, 910.024 608.013 C 914.238 610.268, 914.243 607.691, 910.032 604.028 C 906.479 600.938, 905.709 599.598, 905.276 595.754 C 904.455 588.471, 906.319 585.523, 913.030 583.491 C 917.734 582.067, 919.548 581.972, 924.085 582.914 C 927.071 583.534, 930.860 584.929, 932.507 586.014 C 934.153 587.099, 936.049 587.990, 936.720 587.993 C 938.244 588.002, 953.212 597.990, 954.300 599.725 C 955.557 601.730, 956.696 601.283, 961.243 597 C 963.578 594.800, 965.838 593, 966.265 593 C 966.691 593, 969.019 589.962, 971.437 586.250 C 976.395 578.640, 989.574 563.035, 994.347 559.124 C 996.081 557.703, 998.175 555.839, 999 554.982 C 1001.218 552.677, 1014.690 543.098, 1017.538 541.801 C 1020.028 540.666, 1020.641 538.558, 1019.159 536.223 C 1018.149 534.632, 1014.304 534.388, 1006.250 535.406 C 1001.898 535.956, 1000 535.863, 1000 535.098 C 1000 534.362, 996.055 534, 988.023 534 C 977.710 534, 975.130 534.345, 969.456 536.480 C 961.165 539.601, 950.981 540.888, 938.908 540.340 C 927.761 539.834, 922.421 538.493, 918.945 535.327 C 917.540 534.047, 915.148 533, 913.630 533 C 910.507 533, 907.276 531.535, 904.860 529.025 C 903.624 527.739, 900.061 527.034, 890.360 526.153 C 875.883 524.839, 876.484 524.831, 869 526.436" stroke="#7f3c1a" fill="#7f3c1a" fill-opacity="0.2" fill-rule="evenodd"/><path class="svg-region-APB" d="M 782 455.737 C 770.359 458.573, 765.087 460.706, 759.235 464.945 C 754.007 468.732, 749.514 471, 747.238 471 C 746.215 471, 744.463 471.851, 743.346 472.892 C 740.485 475.558, 725.462 482, 722.107 482 C 718.939 482, 715.984 484.715, 716.033 487.579 C 716.106 491.765, 719.620 494.190, 726.754 494.977 C 732.707 495.633, 747.522 500.384, 756.682 504.574 C 761.090 506.590, 774.828 509.966, 778.701 509.985 C 780.462 509.993, 784.415 510.654, 787.486 511.454 C 790.556 512.254, 795.838 513.222, 799.223 513.605 C 804.020 514.147, 806.345 515.040, 809.765 517.650 C 812.185 519.498, 815.352 521.007, 816.827 521.015 C 818.297 521.023, 821.485 521.720, 823.910 522.565 C 826.336 523.410, 831.874 524.721, 836.218 525.479 C 840.561 526.238, 845.971 527.825, 848.240 529.008 C 851.967 530.951, 852.804 531.039, 856.932 529.924 C 859.445 529.245, 861.950 528.374, 862.500 527.987 C 865.134 526.138, 878.861 525.059, 888 525.984 C 893.225 526.513, 898.740 526.958, 900.257 526.973 C 901.926 526.989, 903.870 527.986, 905.187 529.500 C 907.123 531.727, 908.133 532, 914.430 531.996 C 921.404 531.991, 928.672 530.048, 938.500 525.561 C 940.700 524.557, 944.394 522.863, 946.709 521.798 C 950.428 520.087, 952.786 519.898, 966.960 520.181 C 975.784 520.356, 983.002 520.163, 983.001 519.750 C 983.001 519.337, 985.175 519, 987.833 519 C 992.660 519, 1000.189 517.897, 1009.354 515.847 C 1012.023 515.250, 1017.648 512.827, 1021.854 510.462 C 1026.059 508.098, 1030.850 505.839, 1032.500 505.444 C 1034.150 505.048, 1035.950 504.400, 1036.500 504.004 C 1038.535 502.538, 1047.469 499.997, 1050.928 499.900 C 1052.893 499.845, 1055.607 499.492, 1056.960 499.115 L 1059.420 498.429 1055.960 494.719 C 1053.106 491.659, 1050.271 490.234, 1039.774 486.582 C 1032.775 484.147, 1024.675 481.614, 1021.774 480.954 C 1018.873 480.293, 1013.708 478.346, 1010.296 476.626 C 979.960 461.339, 976.932 460, 972.705 460 C 970.689 460, 967.344 460.629, 965.270 461.399 C 954.897 465.247, 924.445 465.829, 914.624 462.366 C 912.096 461.475, 906.142 461, 897.496 461 C 887.979 461, 883.233 460.577, 880.654 459.500 C 877.730 458.278, 871.424 458, 846.660 458 C 817.524 458, 815.845 457.896, 806.401 455.500 C 800.981 454.125, 795.636 453.040, 794.523 453.089 C 793.410 453.138, 787.775 454.330, 782 455.737" stroke="#ac7444" fill="#ac7444" fill-opacity="0.2" fill-rule="evenodd"/><path class="svg-region-PC" d="M 887.948 418.012 C 881.973 423.508, 879.361 424.625, 875.232 423.447 C 871.362 422.344, 854.828 422.553, 846.251 423.813 C 838.893 424.894, 823.150 429.280, 819.500 431.266 C 813.516 434.523, 812.204 434.988, 809 434.989 C 807.075 434.990, 803.475 435.647, 801 436.449 C 790.987 439.695, 786 441, 783.609 441 C 782.226 441, 779.835 441.506, 778.297 442.125 C 776.759 442.743, 774.600 443.607, 773.500 444.045 C 772.400 444.482, 768.853 446.004, 765.618 447.426 C 761.992 449.019, 757.004 450.231, 752.618 450.585 L 745.500 451.158 748 449.117 C 749.375 447.994, 751.681 446.810, 753.124 446.486 C 754.568 446.162, 756.818 444.733, 758.124 443.311 C 759.513 441.800, 759.877 440.949, 759 441.262 C 757.318 441.864, 735.647 447.021, 732.427 447.586 C 731.287 447.786, 728.362 449.453, 725.927 451.291 C 723.492 453.129, 717.675 456.378, 713 458.511 C 702.091 463.490, 702.215 463.382, 701.441 468.545 C 700.294 476.193, 701.856 479.894, 708.484 485.233 C 711.738 487.855, 714.668 490, 714.994 490 C 715.320 490, 716.017 488.542, 716.543 486.761 C 717.243 484.392, 718.306 483.294, 720.500 482.675 C 728.002 480.558, 730.861 479.552, 735.936 477.244 C 738.925 475.884, 741.983 474.160, 742.731 473.412 C 743.478 472.665, 745.825 471.586, 747.946 471.014 C 750.067 470.443, 754.659 468.069, 758.151 465.738 C 767.227 459.680, 770.025 458.560, 783.806 455.474 C 795.861 452.774, 796.229 452.751, 801.806 454.368 C 813.083 457.637, 816.937 457.952, 846.500 458.019 C 869.968 458.073, 877.371 458.402, 880.500 459.529 C 883.205 460.503, 888.748 460.975, 897.624 460.985 C 906.172 460.995, 912.109 461.480, 914.648 462.376 C 924.428 465.826, 955.138 465.249, 965.270 461.423 C 972.908 458.540, 976.626 459.502, 995.500 469.247 C 1010.229 476.852, 1016.465 479.656, 1021.500 480.938 C 1024.250 481.639, 1031.311 483.825, 1037.191 485.798 L 1047.882 489.384 1052.898 484.692 C 1055.657 482.111, 1058.823 480, 1059.934 480 C 1061.045 480, 1062.712 478.843, 1063.639 477.429 C 1065.292 474.905, 1065.257 474.790, 1061.750 471.283 C 1059.273 468.806, 1056.845 467.474, 1053.838 466.942 C 1051.452 466.520, 1047.700 465.842, 1045.500 465.436 C 1043.300 465.030, 1040.047 463.438, 1038.271 461.898 C 1036.496 460.358, 1033.346 458.818, 1031.271 458.475 C 1029.197 458.131, 1024.575 456.599, 1021 455.070 C 1017.425 453.540, 1011.646 452.001, 1008.157 451.650 C 1000.254 450.854, 994.506 448.310, 990.076 443.648 C 987.980 441.443, 984.682 439.411, 981.576 438.411 C 978.784 437.513, 974.746 435.403, 972.602 433.723 C 968.382 430.415, 969.392 430.572, 936.500 428.122 C 918.298 426.765, 914.293 425.437, 909.162 419.053 C 907.371 416.824, 905.252 415, 904.453 415 C 903.654 415, 903 414.550, 903 414 C 903 413.450, 900.839 413, 898.198 413 C 893.825 413, 892.909 413.448, 887.948 418.012" stroke="#cda789" fill="#cda789" fill-opacity="0.2" fill-rule="evenodd"/><path class="svg-region-DB" d="M 703.221 305.558 C 701.997 306.415, 700.562 306.847, 700.030 306.519 C 699.498 306.190, 697.049 306.839, 694.587 307.961 C 692.124 309.082, 689.855 310, 689.544 310 C 688.917 310, 681.430 313.218, 676 315.822 C 671.410 318.023, 664.618 322.550, 663.022 324.473 C 662.325 325.313, 661.153 326, 660.418 326 C 659.028 326, 645.802 339.220, 645.101 341.310 C 644.882 341.965, 643.623 343.798, 642.303 345.384 C 640.984 346.969, 638.983 350.073, 637.858 352.279 C 636.732 354.486, 634.728 357.459, 633.405 358.886 C 632.082 360.312, 631 362.294, 631 363.289 C 631 364.285, 630.358 366.340, 629.574 367.857 C 628.790 369.374, 627.844 374.189, 627.472 378.557 C 626.570 389.145, 626.528 388.131, 628.358 399.644 C 630.814 415.098, 633.975 426, 637.014 429.500 C 640.115 433.072, 641 435.765, 641.015 441.684 C 641.037 449.912, 641.401 450.214, 648.513 447.909 C 651.806 446.841, 655.268 445.534, 656.206 445.003 C 657.145 444.472, 659.732 443.747, 661.956 443.391 C 664.180 443.035, 666 442.389, 666 441.954 C 666 441.107, 675.393 437.913, 683.343 436.056 C 686.006 435.434, 689.177 434.275, 690.390 433.480 C 691.602 432.686, 696.172 431.540, 700.547 430.933 C 704.921 430.326, 712.504 428.285, 717.398 426.396 C 722.292 424.508, 726.464 423.130, 726.668 423.335 C 726.873 423.540, 724.361 426.136, 721.087 429.104 C 714.806 434.796, 705.704 440.855, 700.229 442.987 C 694.385 445.262, 695.726 445.964, 705.703 445.857 C 714.666 445.760, 715.912 445.986, 720.338 448.510 L 725.176 451.269 728.974 449.135 C 731.063 447.961, 733.902 447, 735.282 447 C 736.662 447, 742.817 445.694, 748.960 444.097 C 759.084 441.466, 760.473 440.820, 763.827 437.187 C 766.541 434.248, 768.590 433.014, 771.514 432.560 C 773.706 432.219, 776.882 431.504, 778.571 430.970 C 780.260 430.437, 782.204 430, 782.891 430 C 783.578 430, 786.021 428.717, 788.320 427.148 C 790.619 425.580, 793.175 424.010, 794 423.660 C 794.825 423.310, 793.587 423.143, 791.250 423.288 C 788.913 423.434, 787 423.366, 787 423.137 C 787 421.587, 791.318 420.059, 795.770 420.032 C 799.577 420.009, 802.100 419.331, 804.860 417.588 C 809.315 414.776, 810.080 414.704, 853.710 412.950 C 872.189 412.208, 885.392 412.085, 887.710 412.633 C 890.788 413.362, 908.961 413.021, 930.500 411.830 C 932.150 411.738, 938 412.650, 943.500 413.855 C 949 415.060, 956.770 416.690, 960.767 417.478 C 964.763 418.266, 969.026 419.605, 970.239 420.455 C 971.452 421.305, 974.145 422, 976.223 422 C 978.941 422, 980 422.428, 980 423.525 C 980 424.363, 981.064 425.454, 982.364 425.948 C 983.664 426.442, 984.999 427.556, 985.332 428.423 C 985.793 429.624, 987.414 430, 992.131 430 C 998.848 430, 1005.932 433.135, 1008.017 437.031 C 1008.910 438.700, 1010.131 439, 1016.035 439 L 1023 439 1023 443 C 1023 446.881, 1023.101 447, 1026.393 447 C 1029.851 447, 1031 448.259, 1031 452.047 C 1031 455.113, 1034.255 456, 1045.506 456 C 1053.628 456, 1056.498 456.355, 1057.643 457.500 C 1059.221 459.078, 1063.217 459.364, 1066.371 458.124 C 1068.067 457.458, 1067.975 457.213, 1065.390 455.520 C 1061.840 453.194, 1059.077 449.953, 1059.033 448.063 C 1059.012 447.124, 1059.973 447.558, 1061.805 449.313 C 1063.821 451.245, 1065.655 452, 1068.330 452 C 1072.088 452, 1084.548 457.526, 1088.500 460.945 C 1089.600 461.897, 1093.108 463.275, 1096.297 464.008 C 1099.485 464.742, 1102.324 465.715, 1102.606 466.171 C 1102.887 466.627, 1104.981 467, 1107.259 467 C 1110.480 467, 1111.133 466.733, 1110.200 465.800 C 1107.089 462.689, 1109.887 449.832, 1113.966 448.494 C 1114.810 448.218, 1117.957 445.813, 1120.961 443.151 L 1126.421 438.310 1126.609 429.905 C 1126.928 415.625, 1128.283 406.997, 1130.458 405.407 C 1131.516 404.633, 1132.690 404, 1133.065 404 C 1134.567 404, 1140.741 397.353, 1141.285 395.151 C 1141.629 393.757, 1141.086 391.309, 1139.951 389.131 C 1138.899 387.112, 1137.856 383.669, 1137.634 381.480 C 1137.413 379.291, 1136.912 376.727, 1136.521 375.783 C 1136.131 374.839, 1136.009 373.489, 1136.251 372.783 C 1137.933 367.868, 1120.128 341.997, 1112.252 337.913 C 1109.329 336.397, 1106.804 334.545, 1103.850 331.750 C 1102.832 330.788, 1101.663 330.093, 1101.250 330.206 C 1100.021 330.543, 1094 327.029, 1094 325.974 C 1094 325.438, 1093.405 325, 1092.677 325 C 1091.950 325, 1087.194 322.975, 1082.109 320.500 C 1077.024 318.025, 1071.796 316, 1070.491 316 C 1069.186 316, 1067.873 315.604, 1067.575 315.121 C 1067.276 314.637, 1066.124 314.004, 1065.016 313.714 C 1062.469 313.048, 1062.384 314.961, 1064.843 317.601 C 1065.857 318.690, 1066.948 320.687, 1067.268 322.040 C 1069.086 329.741, 1072.264 340.559, 1072.836 340.995 C 1073.201 341.274, 1074.287 343, 1075.250 344.832 C 1077.371 348.868, 1077.716 362.401, 1075.750 364.438 C 1072.311 368.003, 1069.896 371.281, 1068.534 374.235 C 1067.706 376.031, 1065.682 379.975, 1064.036 383 C 1061.880 386.962, 1061.031 389.898, 1061 393.500 C 1060.886 406.557, 1049.626 415.621, 1038.500 411.614 C 1036.609 410.933, 1036.516 411.264, 1036.786 417.697 C 1036.974 422.182, 1037.763 425.778, 1039.100 428.250 C 1041.587 432.848, 1040.687 432.953, 1034.797 428.750 C 1029.653 425.080, 1023.746 418.373, 1021.508 413.661 C 1019.374 409.168, 1013.481 404.832, 1008.160 403.838 C 1001.874 402.663, 995.944 399.619, 991.460 395.264 C 988.125 392.026, 987.188 391.633, 983.587 391.967 C 973.717 392.883, 946.591 391.317, 942 389.567 C 941.175 389.252, 923.175 388.778, 902 388.514 C 880.825 388.249, 861.025 387.561, 858 386.985 C 854.975 386.408, 844.175 385.509, 834 384.988 C 823.825 384.466, 813.835 383.758, 811.800 383.416 C 809.004 382.945, 807.415 383.276, 805.300 384.771 C 801.876 387.190, 788.424 394, 787.069 394 C 786.530 394, 784.481 395.091, 782.515 396.425 C 778.916 398.868, 774.486 400.227, 763.567 402.241 C 757.971 403.273, 757.553 403.212, 756.195 401.167 C 754.199 398.161, 750.577 398.421, 748.094 401.750 C 743.725 407.609, 742.754 408.195, 738.500 407.536 C 736.300 407.195, 730.225 406.671, 725 406.372 C 719.775 406.072, 715.073 405.416, 714.550 404.913 C 714.028 404.411, 711.937 404, 709.904 404 C 706.924 404, 705.605 403.314, 703.104 400.465 C 701.397 398.521, 700 396.346, 700 395.631 C 700 394.916, 698.098 391.669, 695.773 388.416 L 691.546 382.500 691.543 373 C 691.541 366.343, 692.025 362.453, 693.161 360 C 698.308 348.883, 699.982 340.769, 700.898 322.500 C 701.501 310.483, 702.477 306.988, 705.762 305.073 C 706.718 304.516, 707.038 304.047, 706.473 304.030 C 705.907 304.014, 704.444 304.701, 703.221 305.558" stroke="#e8b1e4" fill="#e8b1e4" fill-opacity="0.2" fill-rule="evenodd"/><path class="svg-region-MB" d="M 793.754 291.579 C 793.449 291.884, 786.518 292.345, 778.350 292.604 C 770.183 292.863, 760.575 293.491, 757 294 C 753.425 294.509, 746.366 295.348, 741.314 295.864 C 736.262 296.381, 731.624 297.115, 731.007 297.495 C 730.391 297.876, 727.550 298.570, 724.694 299.036 C 714.918 300.634, 711.239 301.689, 707.597 303.940 C 702.206 307.272, 701 310.416, 701 321.140 C 701 333.794, 697.580 350.860, 693.212 360 C 690.666 365.329, 690.838 381.471, 693.484 385.500 C 694.567 387.150, 695.743 388.725, 696.096 389 C 696.449 389.275, 697.911 391.750, 699.345 394.500 C 703.425 402.326, 705.251 404, 709.710 404 C 711.850 404, 714.028 404.411, 714.550 404.913 C 715.073 405.416, 719.775 406.072, 725 406.372 C 730.225 406.671, 736.328 407.199, 738.561 407.545 C 742.115 408.096, 742.927 407.838, 745.061 405.486 C 746.403 404.007, 748.288 401.943, 749.250 400.899 C 751.523 398.433, 753.454 398.498, 755.900 401.123 C 757.602 402.950, 758.548 403.149, 762.689 402.550 C 769.813 401.521, 777.914 399.074, 783 396.415 C 785.475 395.122, 789.300 393.277, 791.500 392.317 C 793.700 391.357, 798.554 388.819, 802.287 386.678 C 807.783 383.525, 809.686 382.906, 812.287 383.427 C 814.054 383.780, 823.600 384.491, 833.500 385.006 C 843.400 385.521, 853.975 386.413, 857 386.989 C 860.025 387.564, 880.050 388.254, 901.500 388.521 C 922.950 388.789, 941.175 389.263, 942 389.575 C 946.655 391.337, 973.701 392.894, 983.587 391.970 C 987.212 391.631, 988.118 392.019, 991.587 395.396 C 996.385 400.065, 1001.437 402.733, 1007.158 403.620 C 1012.935 404.515, 1018.169 408.396, 1021.833 414.500 C 1025.546 420.685, 1032.786 428.321, 1037.011 430.506 C 1041.089 432.614, 1041.755 431.868, 1039.109 428.153 C 1037.440 425.809, 1037 423.711, 1037 418.096 C 1037 411.613, 1037.902 409.414, 1039.500 412 C 1040.791 414.089, 1047.562 413.030, 1052.359 409.987 C 1057.955 406.438, 1060.945 400.850, 1060.978 393.878 C 1061.004 388.387, 1067.862 373.894, 1073.460 367.500 C 1076.805 363.679, 1076.962 363.156, 1076.981 355.831 C 1076.998 348.797, 1075.376 342.963, 1072.857 341.001 C 1072.503 340.725, 1070.976 335.799, 1069.462 330.052 C 1067.948 324.306, 1065.875 318.709, 1064.855 317.614 C 1063.835 316.519, 1063 315.081, 1063 314.418 C 1063 312.988, 1060.744 312, 1057.477 312 C 1056.180 312, 1054.879 311.613, 1054.586 311.139 C 1053.814 309.891, 1043.471 307.228, 1036.500 306.483 C 1033.200 306.131, 1029.150 305.454, 1027.500 304.980 C 1023.074 303.708, 1014.832 302.857, 1003 302.451 C 982.425 301.745, 981.065 301.610, 980.532 300.223 C 980.247 299.481, 979.561 299.153, 979.007 299.496 C 978.453 299.838, 978 299.685, 978 299.157 C 978 297.918, 972.502 296, 968.952 296 C 967.440 296, 962.445 297.309, 957.852 298.908 C 953.258 300.508, 946.488 302.746, 942.807 303.883 C 939.125 305.019, 933.232 307.311, 929.710 308.975 C 926.188 310.639, 922.844 312, 922.279 312 C 921.714 312, 916.726 315.375, 911.195 319.500 L 901.139 327 887.012 327 C 868.226 327, 865.422 326.227, 859.885 319.518 C 854.262 312.706, 852.148 311.493, 838.713 307.368 C 832.609 305.494, 826.913 303.334, 826.057 302.568 C 821.923 298.869, 795.465 289.869, 793.754 291.579" stroke="#f9c6c6" fill="#f9c6c6" fill-opacity="0.2" fill-rule="evenodd"/><path class="svg-region-Fl" d="M 756.302 247.012 C 754.891 247.580, 753.715 249.344, 753.016 251.942 C 752.241 254.818, 751.070 256.429, 748.963 257.519 C 747.333 258.362, 746 259.294, 746 259.591 C 746 261.145, 748.253 264, 749.479 264 C 750.253 264, 751.695 265.369, 752.683 267.041 C 754.416 269.974, 756.254 270.857, 760.500 270.794 C 762.466 270.765, 767.822 272.431, 771.236 274.134 C 775.330 276.176, 785.377 274.744, 791.684 271.220 C 792.886 270.549, 794.536 270, 795.351 270 C 798.551 270, 797.747 266.020, 793.688 261.772 C 792.691 260.729, 789.991 259.058, 787.688 258.058 C 785.385 257.059, 782.409 255.062, 781.076 253.621 C 779.742 252.179, 777.811 251, 776.784 251 C 775.757 251, 774.004 250.150, 772.889 249.111 C 769.705 246.145, 761.145 245.062, 756.302 247.012" stroke="#5ca7a9" fill="#5ca7a9" fill-opacity="0.2" fill-rule="evenodd"/><path class="svg-region-Ol" d="M 465.111 331.092 C 463.797 331.612, 461.306 331.773, 459.576 331.448 C 452.966 330.208, 425.053 339.367, 422.716 343.543 C 422.267 344.344, 421.135 345.033, 420.200 345.073 C 419.265 345.113, 417.150 346.019, 415.500 347.085 C 413.850 348.151, 411.712 349.296, 410.750 349.628 C 409.788 349.961, 409 350.587, 409 351.019 C 409 351.452, 406.413 353.507, 403.250 355.587 C 400.087 357.667, 397.275 359.668, 397 360.035 C 396.725 360.401, 394.700 361.867, 392.500 363.291 C 390.300 364.716, 385.350 368.626, 381.500 371.980 C 377.650 375.334, 371.238 380.825, 367.250 384.182 C 363.262 387.539, 360 390.581, 360 390.941 C 360 391.302, 358.313 393.448, 356.250 395.711 C 349.552 403.059, 344 410.683, 344 412.534 C 344 413.529, 343.376 415.053, 342.614 415.921 C 340.787 418.002, 338.106 430.103, 338.738 433.411 C 339.012 434.841, 338.737 436.612, 338.127 437.347 C 337.518 438.081, 336.960 441.791, 336.888 445.591 C 336.561 462.905, 336.715 468.786, 337.541 470.575 C 338.030 471.634, 338.496 475.425, 338.577 479 C 338.741 486.270, 339.769 493.845, 340.808 495.445 C 341.430 496.402, 343.687 506.335, 345.935 518.006 C 347.056 523.831, 350.037 534.214, 350.957 535.500 C 351.350 536.050, 352.447 539.200, 353.395 542.500 C 354.342 545.800, 356.177 551.425, 357.472 555 C 358.768 558.575, 360.382 563.282, 361.061 565.461 C 361.739 567.639, 363.353 571.529, 364.647 574.106 C 365.941 576.682, 367 579.179, 367 579.653 C 367 580.826, 371.931 590.137, 373.538 592 C 374.250 592.825, 375.623 595.525, 376.589 598 C 377.556 600.475, 379.169 603.573, 380.173 604.885 C 381.178 606.197, 382 608.334, 382 609.635 C 382 610.936, 382.450 612, 383 612 C 383.550 612, 384 612.745, 384 613.656 C 384 614.566, 385.169 616.844, 386.597 618.717 C 388.026 620.590, 389.639 623.782, 390.182 625.811 C 390.725 627.840, 392.304 631.975, 393.690 635 C 395.076 638.025, 396.588 641.400, 397.050 642.500 C 403.011 656.683, 407.116 665.771, 410.147 671.498 C 416.636 683.759, 421.124 693.636, 422.576 698.855 C 427.135 715.240, 431.142 726.470, 440.110 748 C 442.744 754.325, 446.242 763.100, 447.882 767.500 C 452.377 779.558, 458.713 794.717, 462.299 801.994 C 466.697 810.918, 486.608 831.126, 496.241 836.442 C 499.949 838.488, 503.216 840.541, 503.503 841.004 C 503.789 841.467, 505.480 842.145, 507.261 842.511 C 509.043 842.877, 514.100 844.447, 518.500 845.999 C 531.696 850.655, 548.483 853.423, 558.240 852.552 C 562.783 852.147, 568.688 851.640, 571.363 851.426 C 577.647 850.924, 590.991 847.321, 598 844.235 C 601.025 842.903, 605.300 841.013, 607.500 840.036 C 609.700 839.059, 611.950 838.088, 612.500 837.879 C 615.612 836.696, 635.740 822.520, 643 816.398 C 655.589 805.783, 686.968 773.057, 697.045 760.034 C 698.945 757.578, 702.008 753.978, 703.851 752.034 C 707.968 747.692, 725.714 725.796, 729.003 721 C 730.323 719.075, 731.650 717.275, 731.952 717 C 733.174 715.885, 746.725 695.255, 748.374 692 C 750.433 687.934, 751.536 686.057, 755.270 680.270 C 756.772 677.943, 758 675.758, 758 675.414 C 758 675.069, 759.350 673.083, 761 671 C 762.650 668.917, 764 666.817, 764 666.333 C 764 665.850, 765.623 662.990, 767.608 659.977 C 772.355 652.769, 787 623.448, 787 621.151 C 787 620.164, 787.701 617.299, 788.558 614.784 C 789.968 610.645, 789.968 609.860, 788.558 606.484 C 787.701 604.434, 787.002 600.673, 787.005 598.128 C 787.010 593.701, 785.315 587.269, 782.290 580.225 C 781.083 577.417, 770.206 565.621, 765.910 562.463 C 765.135 561.893, 761.522 559.309, 757.883 556.720 C 751.080 551.882, 741.904 543.074, 741.006 540.521 C 740.315 538.556, 730.399 531.786, 712.500 521.059 C 704.250 516.114, 696.621 511.379, 695.547 510.535 C 694.306 509.560, 691.497 509, 687.848 509 C 683.148 509, 681.593 509.452, 679.302 511.484 C 675.253 515.075, 674.885 515.322, 670.716 517.250 C 665.831 519.509, 652.293 519.689, 649.441 517.532 C 648.374 516.724, 646.712 516.049, 645.750 516.032 C 644.788 516.014, 644 515.550, 644 515 C 644 514.450, 643.394 514, 642.654 514 C 641.913 514, 639.776 513.222, 637.904 512.271 C 633.549 510.059, 620.189 509.293, 616.876 511.066 C 613.953 512.631, 605.279 513.408, 593.726 513.142 C 586.849 512.983, 584.147 512.477, 581.226 510.801 C 579.177 509.625, 575.613 507.688, 573.307 506.496 C 569.265 504.408, 557.863 491.910, 550.183 481.148 C 544.305 472.912, 540.934 469, 539.703 468.987 C 538.004 468.970, 531 458.117, 531 455.503 C 531 454.310, 530.663 452.997, 530.250 452.585 C 529.837 452.173, 529.015 450.186, 528.422 448.168 C 527.830 446.151, 526.826 444.610, 526.191 444.744 C 525.557 444.878, 524.267 443.811, 523.324 442.372 C 520.429 437.953, 519.311 429.440, 520.083 417.676 C 520.661 408.859, 521.275 405.923, 523.396 401.834 C 524.828 399.074, 526 395.597, 526 394.108 C 526 392.618, 526.425 390.973, 526.944 390.450 C 528.087 389.300, 524.872 378.791, 523.209 378.236 C 522.591 378.030, 519.782 373.168, 516.966 367.431 C 514.150 361.694, 511.533 357, 511.151 357 C 510.511 357, 509.611 355.393, 505.964 347.736 C 504.223 344.081, 491.557 333.975, 486.500 332.205 C 481.596 330.489, 468.369 329.800, 465.111 331.092" stroke="#aa444d" fill="#aa444d" fill-opacity="0.2" fill-rule="evenodd"/><path class="svg-region-Or" d="M 1293.500 333.661 C 1287.849 334.871, 1281.683 337.949, 1273.053 343.864 C 1267.799 347.465, 1262.905 350.994, 1262.179 351.706 C 1261.452 352.418, 1260.542 353, 1260.157 353 C 1258.979 353, 1250.521 361.287, 1247.936 364.975 C 1246.596 366.887, 1244.757 370.370, 1243.850 372.717 C 1242.277 376.784, 1242.290 377.098, 1244.126 379.433 C 1249.237 385.930, 1252.280 400.939, 1250.893 412.809 C 1249.906 421.258, 1247.453 430.403, 1245.351 433.473 C 1244.608 434.557, 1243.999 436.132, 1243.998 436.973 C 1243.997 437.813, 1241.717 443.201, 1238.932 448.947 C 1236.147 454.693, 1232.037 463.243, 1229.798 467.947 C 1224.913 478.208, 1221.800 482.861, 1215.378 489.500 C 1212.717 492.250, 1209.182 496.140, 1207.520 498.145 C 1201.644 505.236, 1187.386 515.973, 1180.761 518.297 C 1171.671 521.486, 1156.843 521.173, 1144.500 517.532 C 1139.550 516.072, 1135.350 514.455, 1135.167 513.939 C 1134.569 512.255, 1119.672 512.879, 1113.907 514.829 C 1110.933 515.835, 1104.639 517.245, 1099.920 517.963 C 1092.098 519.154, 1091.105 519.115, 1088.672 517.521 C 1085.572 515.490, 1077.989 516.103, 1075.959 518.549 C 1075.297 519.347, 1074.094 520, 1073.286 520 C 1072.478 520, 1070.620 520.924, 1069.158 522.053 C 1063.609 526.340, 1058.832 529, 1056.683 529 C 1055.458 529, 1052.891 530.287, 1050.978 531.861 C 1049.065 533.434, 1045.250 535.865, 1042.500 537.262 C 1039.750 538.659, 1036.375 540.768, 1035 541.948 C 1031.354 545.079, 1026.126 548.260, 1021 550.467 C 1011.933 554.371, 1001.967 561.628, 990.057 573 C 981.819 580.865, 976.967 592.412, 975.456 607.748 C 974.921 613.175, 975.232 616.452, 976.908 623.076 C 978.923 631.042, 979.968 634.010, 984.093 643.500 C 986.034 647.965, 993.962 660.152, 997.429 664 C 998.668 665.375, 1000.724 668.300, 1001.998 670.500 C 1003.272 672.700, 1005.553 675.850, 1007.067 677.500 C 1008.581 679.150, 1010.648 681.926, 1011.660 683.669 C 1017.349 693.468, 1024.307 704.364, 1027.901 709.099 C 1030.154 712.070, 1033.584 717.425, 1035.521 721 C 1037.458 724.575, 1039.886 728.625, 1040.916 730 C 1041.945 731.375, 1045.806 737.225, 1049.494 743 C 1053.182 748.775, 1057.505 755.426, 1059.100 757.779 C 1060.695 760.133, 1062 762.217, 1062 762.411 C 1062 762.605, 1064.045 764.954, 1066.544 767.632 C 1069.043 770.309, 1071.677 773.860, 1072.398 775.523 C 1075.490 782.657, 1097.579 805.766, 1110.902 815.805 C 1128.029 828.711, 1151.091 837.483, 1170.500 838.474 C 1174.900 838.699, 1180.975 839.421, 1184 840.079 C 1197.442 843.004, 1227.288 838.487, 1247.207 830.513 C 1280.546 817.166, 1298.086 799.067, 1320.853 754.515 C 1324.784 746.823, 1328 740.202, 1328 739.801 C 1328 739.400, 1330.661 733.543, 1333.913 726.786 C 1345.281 703.165, 1349.699 691.338, 1351.019 681 C 1352.380 670.339, 1355.812 662.672, 1364.458 650.978 C 1367.092 647.415, 1369.698 643.228, 1370.248 641.674 C 1371.276 638.770, 1371.719 637.891, 1381.161 620 C 1387.848 607.329, 1393.398 597.048, 1398.973 587 C 1409.231 568.514, 1417.723 548.618, 1421.596 534 C 1424.836 521.768, 1427.075 498.336, 1427.030 477.137 C 1427.005 465.787, 1426.794 455.150, 1426.561 453.500 C 1424.071 435.874, 1421.119 421.192, 1419.916 420.448 C 1419.394 420.126, 1419.212 419.466, 1419.511 418.982 C 1420.089 418.048, 1417.111 408.526, 1414.086 401.632 C 1413.089 399.359, 1410.987 394.167, 1409.415 390.094 C 1404.932 378.478, 1394.707 365.570, 1384.588 358.753 C 1381.240 356.496, 1376.700 353.222, 1374.500 351.477 C 1366.961 345.495, 1351.323 337.096, 1343.886 335.036 C 1337.514 333.270, 1333.821 333.015, 1316.020 333.116 C 1304.734 333.180, 1294.600 333.425, 1293.500 333.661" stroke="#aa444d" fill="#aa444d" fill-opacity="0.2" fill-rule="evenodd"/><path class="svg-region-Pl" d="M 544 423.146 C 534.700 427.260, 534.451 427.533, 530.864 437.500 C 528.650 443.654, 528.588 446.320, 530.487 453.613 C 532.001 459.426, 537.623 468.927, 539.576 468.974 C 540.962 469.007, 545 473.293, 545 474.731 C 545 475.337, 545.412 475.983, 545.915 476.167 C 546.419 476.350, 548.331 478.591, 550.165 481.148 C 558.409 492.638, 569.257 504.405, 573.807 506.792 C 584.185 512.236, 585.768 512.799, 592.580 513.471 C 605.544 514.749, 623 507.839, 623 501.429 C 623 498.988, 616.894 493, 614.404 493 C 612.646 493, 597.271 485.730, 594.938 483.795 C 592.955 482.151, 589.294 475.271, 588.663 472 C 588.397 470.625, 586.805 465.675, 585.124 461 C 583.444 456.325, 582.053 451.573, 582.034 450.440 C 582.015 449.307, 580.087 446.051, 577.750 443.204 C 575.413 440.357, 572.525 436.757, 571.332 435.205 C 568.543 431.573, 554.076 423.016, 549.793 422.464 C 547.982 422.231, 545.375 422.538, 544 423.146" stroke="#f9d3d3" fill="#f9d3d3" fill-opacity="0.2" fill-rule="evenodd"/><path class="svg-region-Pr" d="M 1210.500 438.738 C 1201.410 440.066, 1186.303 450.228, 1187.368 454.299 C 1187.628 455.295, 1186.787 458.493, 1185.499 461.407 C 1183.341 466.286, 1182.696 466.886, 1177.328 469.001 C 1174.123 470.264, 1169.130 472.618, 1166.233 474.232 C 1157.607 479.038, 1140.656 484.052, 1135.447 483.338 C 1131.299 482.769, 1130.990 482.897, 1129.962 485.600 C 1129.283 487.387, 1129.132 491.226, 1129.561 495.803 C 1130.109 501.656, 1130.780 503.772, 1132.874 506.256 C 1134.318 507.969, 1135.950 510.710, 1136.500 512.349 C 1137.730 516.012, 1143.949 518.386, 1156.789 520.095 C 1166.485 521.385, 1172.913 520.842, 1181.282 518.027 C 1187.948 515.784, 1198.291 508.043, 1206.493 499.160 C 1208.697 496.772, 1213.343 491.822, 1216.817 488.160 C 1221.452 483.274, 1224.424 478.837, 1227.976 471.500 C 1233.876 459.315, 1235 455.942, 1235 450.422 C 1235 445.472, 1233.564 443.664, 1228.259 441.938 C 1226.192 441.266, 1223.612 440.104, 1222.527 439.358 C 1220.613 438.040, 1216.668 437.837, 1210.500 438.738" stroke="#f9d3d3" fill="#f9d3d3" fill-opacity="0.2" fill-rule="evenodd"/><path class="svg-region-DLl" d="M 620.385 406.238 C 618.798 407.469, 616.012 409.832, 614.194 411.488 C 612.375 413.145, 609.630 415.195, 608.094 416.044 C 603.576 418.541, 596.487 425.211, 594.098 429.213 C 592.783 431.417, 589.518 434.363, 586.067 436.459 C 577.803 441.479, 577.192 442.416, 579.843 446.001 C 581.029 447.606, 582 449.768, 582 450.806 C 582 451.843, 583.412 456.474, 585.138 461.096 C 586.863 465.718, 588.498 471.055, 588.771 472.955 C 589.044 474.855, 589.882 477.024, 590.633 477.776 C 591.385 478.528, 592 479.743, 592 480.477 C 592 481.956, 600.574 488, 602.671 488 C 603.402 488, 604 488.408, 604 488.907 C 604 489.406, 607.019 490.761, 610.708 491.919 C 617.722 494.121, 623 498.100, 623 501.187 C 623 504.002, 624.538 503.357, 628.295 498.969 C 631.782 494.895, 631.995 494.175, 634.014 479.673 C 634.620 475.324, 636.150 470.616, 638.232 466.698 C 641.462 460.622, 641.497 460.405, 641.280 448.265 C 641.062 436.123, 640.458 433.468, 637.014 429.500 C 635.112 427.310, 633.609 423.426, 631.403 415 C 628.302 403.163, 626.350 401.610, 620.385 406.238" stroke="#b7d6d3" fill="#b7d6d3" fill-opacity="0.2" fill-rule="evenodd"/><path class="svg-region-DLr" d="M 1129.250 438.946 C 1127.463 439.387, 1126 439.574, 1126 439.362 C 1126 439.150, 1123.557 440.967, 1120.571 443.399 C 1117.584 445.832, 1114.520 448.199, 1113.760 448.661 C 1110.770 450.478, 1109 454.521, 1109 459.535 C 1109 463.816, 1109.437 465.023, 1111.750 467.124 C 1113.263 468.498, 1115.737 470.148, 1117.250 470.790 C 1119.465 471.730, 1120 472.604, 1120 475.283 C 1120 477.690, 1120.967 479.665, 1123.500 482.430 C 1125.425 484.532, 1127 486.645, 1127 487.126 C 1127 488.702, 1129.048 488.040, 1129.708 486.250 C 1130.701 483.560, 1132.182 482.928, 1136.051 483.544 C 1140.018 484.175, 1162.067 477.558, 1166.799 474.317 C 1168.258 473.318, 1172.566 471.150, 1176.372 469.500 C 1180.179 467.850, 1183.623 465.825, 1184.025 465 C 1190.040 452.676, 1189.438 452.036, 1171.807 452.014 C 1161.898 452.001, 1160.999 451.837, 1159.557 449.777 C 1158.701 448.555, 1158 446.821, 1158 445.924 C 1158 445.026, 1156.935 443.143, 1155.633 441.738 C 1153.529 439.468, 1152.460 439.176, 1146.020 439.116 C 1142.035 439.079, 1137.363 438.845, 1135.637 438.596 C 1133.912 438.347, 1131.037 438.505, 1129.250 438.946" stroke="#b7d6d3" fill="#b7d6d3" fill-opacity="0.2" fill-rule="evenodd"/><path class="svg-region-OLl" d="M 590.681 387.873 C 575.282 395.158, 566.870 407.620, 566.602 423.544 C 566.503 429.402, 566.664 429.794, 571.836 436.294 C 577.364 443.241, 578.410 443.979, 579.331 441.581 C 579.630 440.801, 582.491 438.639, 585.688 436.778 C 589.424 434.603, 592.571 431.779, 594.500 428.870 C 597.682 424.072, 601.958 420.088, 608.500 415.828 C 610.700 414.396, 613.934 411.936, 615.687 410.362 C 617.440 408.788, 620.061 406.624, 621.512 405.554 C 623.796 403.869, 624.060 403.132, 623.486 400.054 C 623.122 398.099, 622.185 396.138, 621.405 395.696 C 620.624 395.254, 619.104 393.164, 618.026 391.051 C 614.729 384.588, 613.669 383.990, 605.679 384.087 C 599.581 384.160, 597.323 384.730, 590.681 387.873" stroke="#c4875d" fill="#c4875d" fill-opacity="0.2" fill-rule="evenodd"/><path class="svg-region-OLr" d="M 1141 395.562 C 1141 397.539, 1134.489 404, 1132.497 404 C 1128.841 404, 1127.013 412.034, 1126.555 430.109 L 1126.311 439.717 1130.271 438.828 C 1132.448 438.339, 1135.036 438.194, 1136.021 438.507 C 1137.006 438.819, 1141.225 439.115, 1145.396 439.164 C 1151.991 439.240, 1153.290 439.563, 1155.367 441.640 C 1156.681 442.954, 1158.023 445.260, 1158.351 446.764 C 1159.416 451.660, 1159.812 451.798, 1173.758 452.114 C 1189.432 452.470, 1189.670 452.344, 1191.033 442.911 C 1192.566 432.307, 1192.248 425.273, 1190.098 422.210 C 1185.101 415.090, 1181 407.769, 1181 405.968 C 1181 402.384, 1167.956 397.572, 1154 396.008 C 1149.875 395.545, 1145.263 394.852, 1143.750 394.467 C 1141.511 393.897, 1141 394.101, 1141 395.562" stroke="#c4875d" fill="#c4875d" fill-opacity="0.2" fill-rule="evenodd"/><path class="svg-region-VOC" d="M 722 424.605 C 714.959 427.675, 706.908 430.020, 700.088 430.988 C 696.247 431.532, 691.393 432.847, 689.302 433.908 C 687.211 434.970, 682.800 436.373, 679.500 437.027 C 676.200 437.680, 671.250 439.247, 668.500 440.508 C 665.750 441.770, 662.375 443.118, 661 443.503 C 652.803 445.800, 643.798 449.513, 643.073 450.895 C 642.609 451.778, 641.911 454.863, 641.521 457.750 L 640.812 463 646.861 463 C 651 463, 655.054 462.171, 659.705 460.372 C 663.442 458.927, 670.550 456.355, 675.500 454.658 C 680.450 452.960, 684.725 451.306, 685 450.982 C 685.275 450.658, 689.550 448.426, 694.500 446.021 C 707.328 439.790, 714.278 435.323, 721.333 428.778 C 727.754 422.821, 727.879 422.041, 722 424.605 M 1059 448.146 C 1059 448.982, 1060.434 450.979, 1062.186 452.583 C 1063.939 454.188, 1068.776 458.990, 1072.936 463.255 C 1077.096 467.520, 1081.063 471.007, 1081.750 471.005 C 1082.438 471.002, 1083 471.415, 1083 471.922 C 1083 473.938, 1090.360 475.258, 1098.029 474.618 C 1105.696 473.979, 1105.755 473.992, 1108.796 477.102 C 1111.101 479.460, 1113.018 480.360, 1116.590 480.763 C 1120.785 481.236, 1121.252 481.099, 1120.664 479.567 C 1120.299 478.615, 1120 476.562, 1120 475.004 C 1120 472.674, 1119.178 471.712, 1115.374 469.585 C 1112.830 468.163, 1109.661 467, 1108.333 467 C 1105.332 467, 1093.368 463.414, 1090 461.506 C 1078.660 455.080, 1071.639 452, 1068.327 452 C 1065.655 452, 1063.821 451.244, 1061.805 449.313 C 1059.806 447.398, 1059 447.063, 1059 448.146" stroke="#ff8f93" fill="#ff8f93" fill-opacity="0.2" fill-rule="evenodd"/><path class="svg-region-OABl" d="M 704.750 485.689 C 703.788 485.941, 703 486.515, 703 486.965 C 703 487.415, 701.793 488.086, 700.317 488.457 C 698.842 488.827, 696.338 490.220, 694.755 491.553 C 693.171 492.886, 689.090 495.272, 685.687 496.855 C 678.158 500.359, 675.739 502.852, 676.175 506.662 L 676.500 509.500 687.643 509.137 C 698.651 508.779, 705.271 509.852, 707.523 512.360 C 708.870 513.861, 709.518 514.253, 730.445 526.230 C 752.721 538.979, 751.996 538.677, 752.014 535.218 C 752.021 533.723, 752.310 531.444, 752.656 530.153 C 753.249 527.935, 753.595 527.842, 758.892 528.470 C 767.661 529.510, 774.569 532.126, 776.625 535.186 C 778.576 538.090, 780.670 538.965, 785.715 538.986 C 787.925 538.996, 789.273 539.642, 790.029 541.054 C 791.618 544.024, 796.983 546.992, 800.769 546.996 C 803.130 546.999, 805.628 545.751, 809.769 542.501 L 815.500 538.001 824 538.001 C 833.799 538, 843.891 536.130, 849.429 533.289 L 853.279 531.313 848.666 529.080 C 846.129 527.852, 840.457 526.219, 836.063 525.452 C 831.669 524.685, 826.427 523.370, 824.414 522.529 C 822.402 521.688, 819.270 521, 817.454 521 C 815.252 521, 812.697 519.889, 809.780 517.662 C 806.438 515.111, 804.002 514.158, 799.453 513.625 C 796.179 513.241, 790.575 512.297, 787 511.526 C 783.425 510.755, 776.538 509.427, 771.695 508.574 C 766.852 507.722, 759.877 505.704, 756.195 504.090 C 752.513 502.476, 748.150 500.825, 746.500 500.420 C 744.850 500.016, 741.498 498.833, 739.051 497.793 C 736.604 496.752, 731.248 495.475, 727.149 494.955 C 721.520 494.242, 719.352 493.520, 718.291 492.005 C 717.519 490.902, 716.392 490, 715.788 490 C 715.183 490, 713.214 488.875, 711.411 487.500 C 708.075 484.956, 707.822 484.887, 704.750 485.689" stroke="#81244d" fill="#81244d" fill-opacity="0.2" fill-rule="evenodd"/><path class="svg-region-OABr" d="M 1073 498.057 C 1052.635 498.946, 1039.928 501.066, 1036.550 504.136 C 1036.028 504.611, 1034.805 505, 1033.834 505 C 1031.796 505, 1024.662 508.137, 1024.167 509.250 C 1023.983 509.663, 1023.412 510, 1022.897 510 C 1022.382 510, 1020.282 511.057, 1018.230 512.348 C 1011.031 516.881, 997.278 519.018, 971 519.688 L 949.500 520.236 941.500 523.998 C 928.247 530.229, 921.845 532.184, 915.633 531.896 C 912.551 531.754, 909.723 531.944, 909.348 532.318 C 908.973 532.693, 910.405 533, 912.529 533 C 915.173 533, 917.196 533.734, 918.945 535.327 C 922.430 538.501, 927.732 539.819, 939.241 540.371 C 951.161 540.943, 960.979 539.671, 969.553 536.444 C 975.117 534.349, 977.758 534, 988.023 534 C 996.055 534, 1000 534.362, 1000 535.098 C 1000 535.863, 1001.898 535.956, 1006.250 535.406 C 1016.667 534.090, 1018.950 534.591, 1020.315 538.495 C 1020.507 539.042, 1023.186 538.254, 1026.269 536.745 C 1029.352 535.235, 1033.538 534, 1035.571 534 C 1039.373 534, 1046.706 532.239, 1048.525 530.889 C 1049.089 530.471, 1051.905 529.816, 1054.784 529.434 C 1058.643 528.922, 1061.659 527.594, 1066.259 524.381 C 1069.692 521.983, 1073.007 520.017, 1073.628 520.011 C 1074.248 520.005, 1075.275 519.374, 1075.910 518.609 C 1077.803 516.328, 1085.722 515.588, 1088.532 517.429 C 1089.850 518.293, 1091.931 519, 1093.155 519 C 1096.705 519, 1106.987 516.909, 1113.444 514.874 C 1120.198 512.745, 1132.933 512.333, 1134.783 514.183 C 1135.434 514.834, 1136.236 515.098, 1136.564 514.769 C 1137.755 513.578, 1134.855 509.975, 1131.219 508.129 C 1129.174 507.090, 1125.250 505.099, 1122.500 503.705 C 1116.742 500.786, 1109.714 499, 1103.986 499 C 1101.794 499, 1100 498.550, 1100 498 C 1100 496.946, 1098.339 496.950, 1073 498.057" stroke="#81244d" fill="#81244d" fill-opacity="0.2" fill-rule="evenodd"/><path class="svg-region-SOTl" d="M 870 413.036 C 868.075 413.493, 861.775 413.890, 856 413.918 C 826.840 414.061, 822.216 414.208, 818.750 415.106 C 816.688 415.640, 815 416.467, 815 416.944 C 815 417.420, 812.909 419.036, 810.352 420.534 C 806.793 422.619, 804.275 423.289, 799.602 423.394 C 794.737 423.503, 792.672 424.089, 789.418 426.287 C 784.894 429.342, 781.192 430.638, 773 432.036 C 768.003 432.889, 766.951 433.560, 761.500 439.373 C 757.680 443.448, 754.167 446.195, 751.830 446.937 C 749.811 447.578, 747.561 448.826, 746.830 449.710 C 745.620 451.172, 746.212 451.253, 753.398 450.604 C 758.019 450.186, 762.790 449.093, 764.898 447.970 C 768.182 446.219, 772.176 444.472, 777.500 442.457 C 778.600 442.041, 781.750 441.379, 784.500 440.986 C 787.250 440.593, 793.444 439.085, 798.265 437.636 C 803.086 436.186, 808.433 435, 810.147 435 C 811.861 435, 814.719 434.100, 816.498 433.001 C 820.804 430.340, 838.761 424.987, 847.500 423.760 C 855.671 422.612, 870.654 422.479, 876.761 423.500 C 880.704 424.159, 881.321 423.943, 885.014 420.606 C 887.210 418.623, 889.454 417, 890.003 417 C 890.551 417, 891 416.156, 891 415.125 C 891 413.825, 890.042 413.058, 887.875 412.625 C 883.703 411.791, 874.337 412.006, 870 413.036" stroke="#995b45" fill="#995b45" fill-opacity="0.2" fill-rule="evenodd"/><path class="svg-region-SOTr" d="M 922 413.939 C 920.625 414.413, 916.688 414.845, 913.250 414.900 C 907.442 414.993, 905.522 415.969, 908.062 417.538 C 908.646 417.899, 909.530 419.263, 910.026 420.569 C 911.639 424.811, 923.724 428, 938.183 428 C 942.318 428, 947.006 428.423, 948.601 428.939 C 950.195 429.455, 955.351 430.067, 960.058 430.299 C 968.001 430.690, 968.947 430.973, 973.216 434.232 C 975.746 436.163, 979.362 438.033, 981.251 438.387 C 983.342 438.780, 987.081 441.106, 990.812 444.337 C 997.003 449.698, 1002.810 452, 1010.146 452 C 1011.792 452, 1016.370 453.310, 1020.320 454.911 C 1024.269 456.512, 1029.197 458.109, 1031.271 458.460 C 1033.346 458.811, 1036.496 460.365, 1038.271 461.912 C 1040.047 463.459, 1042.963 465.012, 1044.750 465.362 C 1046.537 465.713, 1049.350 466.276, 1051 466.613 C 1054.742 467.379, 1054.999 465.480, 1051.592 462.250 C 1049.843 460.592, 1048.017 460, 1044.656 460 C 1039.106 460, 1036.240 458.795, 1028.640 453.264 C 1025.417 450.919, 1021.778 449, 1020.553 449 C 1017.933 449, 1010.879 442.600, 1008.563 438.121 C 1005.831 432.838, 1000.150 430.002, 992.270 429.987 C 986.751 429.977, 984.411 429.423, 979.609 426.987 C 976.369 425.344, 972.638 424, 971.317 424 C 969.997 424, 967.933 423.084, 966.731 421.964 C 965.530 420.845, 960.261 418.548, 955.023 416.861 C 947.495 414.437, 943.300 413.719, 935 413.436 C 929.225 413.239, 923.375 413.466, 922 413.939" stroke="#995b45" fill="#995b45" fill-opacity="0.2" fill-rule="evenodd"/><path class="svg-region-OVl" d="M 699.407 446 C 695.219 446.344, 691.344 447.516, 687.016 449.750 C 683.553 451.538, 680.043 453, 679.217 453 C 677.945 453, 672.780 454.997, 658 461.203 C 656.625 461.780, 651.905 462.533, 647.510 462.876 L 639.520 463.500 637.345 468 C 636.148 470.475, 634.897 474.300, 634.564 476.500 C 631.504 496.721, 632.155 494.949, 625.358 501.529 C 621.195 505.559, 617.450 508.162, 614.065 509.380 C 611.279 510.381, 609 511.606, 609 512.100 C 609 513.444, 611.479 513.192, 615.981 511.391 C 623.032 508.570, 632.857 509.794, 643.269 514.791 C 651.152 518.574, 652.792 519, 659.485 519 C 666.773 519, 672.587 517.309, 675.821 514.250 C 676.548 513.563, 677.561 513, 678.071 513 C 679.590 513, 679.125 510.262, 677.500 509.638 C 676.637 509.307, 676 507.813, 676 506.120 C 676 502.715, 680.606 498.229, 685.004 497.349 C 686.503 497.049, 690.037 495.058, 692.857 492.923 C 695.678 490.788, 699.114 488.759, 700.493 488.412 C 701.872 488.066, 703 487.434, 703 487.008 C 703 486.582, 704 485.972, 705.221 485.652 L 707.443 485.071 704.804 482.286 C 700.580 477.826, 700.064 465.041, 704.021 462.886 C 704.835 462.443, 709.888 460.012, 715.250 457.483 C 720.612 454.953, 725 452.312, 725 451.613 C 725 449.586, 715.779 445.820, 710.407 445.653 C 707.708 445.569, 702.758 445.725, 699.407 446" stroke="#593939" fill="#593939" fill-opacity="0.2" fill-rule="evenodd"/><path class="svg-region-OVr" d="M 1062.697 458.700 C 1061.266 459.071, 1061.136 459.459, 1062.069 460.584 C 1063.027 461.737, 1062.805 462.003, 1060.872 462.014 C 1054.032 462.053, 1051.889 464.846, 1056.750 467.385 C 1058.263 468.175, 1060.778 470.166, 1062.340 471.809 C 1064.698 474.290, 1064.996 475.139, 1064.097 476.818 C 1063.502 477.930, 1061.438 479.360, 1059.510 479.997 C 1057.582 480.633, 1054.231 483.017, 1052.065 485.294 L 1048.126 489.434 1050.863 490.584 C 1052.368 491.217, 1054.844 493.214, 1056.366 495.023 L 1059.132 498.311 1079.566 497.702 C 1092.287 497.322, 1100 497.452, 1100 498.046 C 1100 498.571, 1101.463 499, 1103.250 499 C 1109.303 499, 1120.015 501.818, 1124.769 504.662 C 1129.307 507.376, 1134.690 510, 1135.718 510 C 1135.987 510, 1134.881 508.490, 1133.261 506.644 C 1130.793 503.833, 1130.204 502.106, 1129.638 496.014 C 1129.083 490.048, 1128.428 488.066, 1125.996 484.995 C 1123.334 481.634, 1122.459 481.203, 1117.461 480.788 C 1112.755 480.398, 1111.431 479.823, 1108.926 477.080 L 1105.960 473.833 1098.671 474.516 C 1091.200 475.216, 1085.503 474.281, 1082.414 471.848 C 1081.473 471.107, 1078.004 467.688, 1074.705 464.250 C 1068.853 458.152, 1067.400 457.480, 1062.697 458.700" stroke="#593939" fill="#593939" fill-opacity="0.2" fill-rule="evenodd"/>
    </svg>