<svg xmlns="http://www.w3.org/2000/svg" width="1785" height="1131" viewBox="0 0 1785 1131" version="1.1">
    <path class="svg-region-IF" d="M 922 584.548 C 919.525 585.865, 916.752 586.956, 915.837 586.972 C 914.566 586.993, 913.962 588.471, 913.272 593.250 C 912.192 600.734, 913.063 601.902, 919.941 602.192 C 929.560 602.596, 946.281 601.347, 948.889 600.029 C 949.775 599.581, 951.747 598.722, 953.270 598.120 C 956.027 597.030, 958 593.618, 958 589.941 C 958 588.829, 956.243 586.740, 953.850 585.006 C 949.785 582.062, 949.461 582.002, 938.100 582.076 C 927.865 582.143, 925.970 582.434, 922 584.548" stroke="#f2823b" fill="#f2823b" fill-opacity="0.2" fill-rule="evenodd"/><path class="svg-region-AAB" d="M 784.914 504.374 C 780.914 507.432, 779.697 507.801, 771.944 508.312 C 764.898 508.776, 761.734 509.592, 754.021 512.938 C 748.870 515.172, 743.213 517, 741.450 517 C 736.131 517, 731 519.649, 731 522.394 C 731 524.259, 732.165 525.351, 736.487 527.538 C 739.505 529.065, 742.725 531.143, 743.642 532.157 C 744.559 533.171, 745.855 534, 746.520 534 C 747.186 534, 748.928 534.942, 750.391 536.093 C 751.855 537.244, 755.178 539.307, 757.776 540.677 C 760.374 542.047, 763.625 544.204, 765 545.470 C 766.375 546.736, 768.920 548.488, 770.655 549.363 C 772.391 550.237, 774.416 551.526, 775.155 552.227 C 775.895 552.927, 778.525 554.850, 781 556.500 C 783.475 558.150, 791.350 563.791, 798.500 569.037 C 820.252 584.994, 820 584.902, 852 588.627 C 853.375 588.788, 860.125 589.315, 867 589.801 C 874.551 590.333, 880.688 591.285, 882.500 592.204 C 885.947 593.951, 895.638 597.104, 904.837 599.470 C 912.139 601.348, 914.229 600.543, 913.429 596.163 C 912.428 590.675, 914.124 588.064, 920.521 585.247 C 928.353 581.799, 945.811 580.838, 951.181 583.559 C 956.302 586.154, 958 588.054, 958 591.190 C 958 593.820, 958.185 593.971, 960.132 592.929 C 964.615 590.530, 970.672 583.057, 974.987 574.600 C 977.455 569.763, 980.895 564.146, 982.632 562.117 C 986.214 557.932, 1001.725 546.978, 1007.462 544.580 C 1011.693 542.812, 1018.902 536.708, 1020.600 533.457 C 1021.205 532.298, 1021.937 530.111, 1022.226 528.597 C 1022.649 526.385, 1022.278 525.628, 1020.338 524.744 C 1018.689 523.993, 1018.134 523.145, 1018.590 522.072 C 1020.853 516.742, 1019.100 512, 1014.868 512 C 1013.866 512, 1012.325 510.899, 1011.444 509.554 C 1009.877 507.163, 1009.765 507.144, 1006.437 508.731 C 1003.356 510.201, 1000.502 510.238, 976.267 509.127 C 961.545 508.452, 947.250 507.453, 944.500 506.906 C 941.750 506.359, 934.078 505.899, 927.450 505.884 C 915.578 505.858, 915.297 505.910, 908.450 509.424 C 901.669 512.904, 901.219 512.990, 889.960 512.995 C 876.610 513.001, 869.923 511.550, 859 506.276 C 849.888 501.877, 842.930 501.121, 810.914 501.049 L 789.328 501 784.914 504.374" stroke="#7f3c1a" fill="#7f3c1a" fill-opacity="0.2" fill-rule="evenodd"/><path class="svg-region-APB" d="M 791.211 451.538 C 789.865 453.064, 786.754 453.371, 776.190 453.021 C 770.948 452.847, 769.254 453.227, 766.190 455.261 C 758.843 460.140, 738.440 471, 736.622 471 C 736.109 471, 734.245 472.101, 732.481 473.447 C 730.717 474.792, 728.004 476.212, 726.453 476.601 C 724.902 476.990, 722.478 477.912, 721.067 478.648 C 719.655 479.385, 716.093 479.990, 713.151 479.994 C 707.511 480, 701.526 482.187, 700.609 484.577 C 700.164 485.735, 701.594 486.006, 708.281 486.031 C 714.948 486.057, 717.444 486.527, 721.500 488.522 C 724.725 490.109, 728.275 490.995, 731.500 491.020 C 739.177 491.079, 756.650 494.503, 765 497.585 L 772.500 500.354 810 501.060 C 830.625 501.449, 848.850 502.116, 850.500 502.543 C 852.150 502.971, 855.108 504.328, 857.072 505.560 C 859.037 506.793, 864.348 508.971, 868.874 510.400 C 875.831 512.598, 878.958 513, 889.098 513 C 900.754 513, 901.307 512.900, 908.696 509.440 C 915.915 506.060, 916.836 505.880, 926.900 505.886 C 932.730 505.889, 940.650 506.365, 944.500 506.943 C 952.122 508.088, 984.878 509.987, 997.154 509.995 C 1003.981 509.999, 1005.442 509.641, 1010.680 506.681 C 1020.809 500.956, 1040.320 495.675, 1055.683 494.500 C 1064.822 493.802, 1064.860 493.787, 1063.811 491.485 C 1062.814 489.297, 1062.368 489.202, 1055.512 489.721 C 1049.102 490.205, 1047.591 489.959, 1042.410 487.588 C 1039.189 486.113, 1035.867 484.320, 1035.027 483.602 C 1034.187 482.885, 1030.800 481.256, 1027.500 479.981 C 1012.854 474.326, 1004.268 470.480, 1001.293 468.242 C 996.374 464.540, 990.873 462, 987.775 462 C 986.234 462, 984.191 461.586, 983.236 461.080 C 971.771 455.009, 968.651 454.731, 959.839 459 C 954.313 461.677, 952.640 462, 944.309 462 C 939.174 462, 934.191 461.589, 933.236 461.087 C 932.281 460.585, 926.775 459.727, 921 459.180 C 915.225 458.633, 906 457.211, 900.500 456.019 C 889.463 453.627, 876.504 453.684, 860 456.199 C 840.369 459.190, 804.200 456.630, 799.112 451.890 C 796.712 449.654, 793.017 449.489, 791.211 451.538" stroke="#ac7444" fill="#ac7444" fill-opacity="0.2" fill-rule="evenodd"/><path class="svg-region-PC" d="M 856.416 416.487 C 854.170 417.197, 851.001 418.465, 849.375 419.306 C 847.748 420.147, 842.930 421.321, 838.667 421.913 C 830.237 423.086, 827.349 424.288, 819 430.097 C 813.297 434.065, 806.323 437, 802.597 437 C 798.271 437, 796 439.711, 796 444.876 C 796 451.506, 798.422 453.392, 809.671 455.520 C 821.512 457.760, 849.095 458.011, 862.500 456 C 875.565 454.040, 893.492 454.196, 902.500 456.348 C 906.350 457.268, 914.450 458.508, 920.500 459.103 C 926.550 459.699, 932.281 460.594, 933.236 461.093 C 934.191 461.592, 939.267 462, 944.515 462 C 953.130 462, 954.634 461.709, 960 459 C 963.269 457.350, 966.856 456, 967.971 456 C 969.087 456, 970 455.765, 970 455.479 C 970 454.226, 953.811 439, 952.478 439 C 951.665 439, 951 438.610, 951 438.133 C 951 436.487, 935.138 427, 932.386 427 C 930.863 427, 922.438 424.348, 919.500 422.943 C 918.400 422.417, 915.475 421.569, 913 421.058 C 910.525 420.547, 906.925 419.668, 905 419.105 C 891.590 415.184, 890.249 415.002, 875.532 415.099 C 866.315 415.159, 858.920 415.697, 856.416 416.487" stroke="#cda789" fill="#cda789" fill-opacity="0.2" fill-rule="evenodd"/><path class="svg-region-DB" d="M 724 301.806 C 724 302.249, 720.063 303.138, 715.250 303.781 C 710.438 304.424, 702.675 305.467, 698 306.098 C 693.325 306.729, 687.925 307.394, 686 307.576 C 674.544 308.658, 663.535 317.148, 653.372 332.740 C 650.361 337.359, 647.439 342.344, 646.879 343.818 C 646.319 345.291, 645.266 347.172, 644.540 347.998 C 643.813 348.824, 641.817 353.027, 640.104 357.338 C 638.391 361.649, 636.317 366.137, 635.495 367.311 C 634.673 368.485, 634 370.032, 634 370.750 C 634 371.468, 632.481 375.129, 630.624 378.886 C 628.768 382.642, 626.701 387.377, 626.030 389.408 C 625.360 391.439, 624.050 393.576, 623.119 394.158 C 621.914 394.911, 621.541 396.193, 621.824 398.617 C 622.042 400.488, 622.621 402.266, 623.110 402.568 C 623.600 402.871, 624 403.904, 624 404.864 C 624 405.825, 626.250 411.016, 629 416.401 C 631.750 421.786, 634 426.745, 634 427.422 C 634 428.098, 635.125 429.708, 636.500 431 C 638.425 432.809, 639 434.351, 639 437.709 C 639 442.648, 638.691 442.694, 647.359 436.482 C 654.802 431.149, 660 432.027, 660 438.618 C 660 440.388, 660.273 442.548, 660.607 443.418 C 661.577 445.947, 667.348 445.333, 672.796 442.120 C 675.482 440.536, 679.439 439.018, 681.590 438.746 C 683.740 438.474, 688.650 437.043, 692.500 435.565 C 705.373 430.623, 718.896 426, 720.476 426 C 721.982 426, 729.030 421.957, 731.580 419.629 C 732.554 418.741, 732.359 417.753, 730.669 415 C 728.825 411.998, 728.424 409.367, 727.850 396.500 C 727.342 385.135, 726.526 378.955, 724.483 371 C 722.055 361.553, 721.843 359.347, 722.363 349 C 722.680 342.675, 723.584 333.900, 724.370 329.500 C 725.157 325.100, 726.121 317.900, 726.513 313.500 C 727.048 307.499, 727.741 304.938, 729.287 303.250 L 731.349 301 727.674 301 C 725.653 301, 724 301.363, 724 301.806 M 1039.374 303.707 C 1039.667 304, 1041.343 305.224, 1043.099 306.428 L 1046.292 308.615 1046.102 324.058 C 1045.925 338.465, 1045.131 344.295, 1041.951 354.571 C 1041.428 356.260, 1041 359.001, 1041 360.661 C 1041 364.445, 1035.718 375.237, 1031.325 380.430 C 1029.354 382.760, 1028 385.457, 1028 387.054 C 1028 389.681, 1023.398 399.169, 1021.801 399.833 C 1021.360 400.017, 1021 400.706, 1021 401.366 C 1021 402.026, 1019.404 405.572, 1017.452 409.246 C 1014.384 415.025, 1013.450 416.013, 1010.539 416.559 C 1005.187 417.563, 1003.083 416.315, 992.933 406.114 C 982.794 395.926, 975.873 391, 971.697 391 C 969.187 391, 962.790 389.832, 954 387.769 C 942.278 385.017, 816.430 385.276, 804.177 388.077 C 801.800 388.621, 797.553 390.176, 794.740 391.533 C 791.927 392.890, 789.124 394, 788.511 394 C 787.898 394, 784.720 396.604, 781.448 399.786 C 774.934 406.122, 770.901 409, 768.535 409 C 767.691 409, 767 409.450, 767 410 C 767 410.550, 766.184 411, 765.187 411 C 764.190 411, 761.042 412.125, 758.192 413.500 C 755.342 414.875, 752.321 416, 751.479 416 C 750.106 416, 750.106 416.304, 751.474 418.950 C 752.313 420.573, 753 423.701, 753 425.902 C 753 429.482, 752.552 430.214, 748.750 432.846 C 746.413 434.464, 743.522 436.624, 742.327 437.644 C 741.132 438.665, 737.581 441.525, 734.436 444 L 728.718 448.500 731.788 448.808 C 735.177 449.148, 741.591 447.971, 750 445.466 C 753.025 444.565, 757.291 443.391, 759.480 442.857 C 761.669 442.323, 767.739 439.847, 772.968 437.353 C 778.197 434.860, 785.406 432.109, 788.987 431.240 C 792.569 430.371, 798.425 428.540, 802 427.170 C 805.575 425.801, 811.650 424.376, 815.500 424.003 C 819.350 423.630, 823.767 422.802, 825.315 422.163 C 826.863 421.523, 832.169 421, 837.105 421 C 843.910 421, 846.977 420.545, 849.790 419.118 C 856.634 415.647, 863.682 414.749, 880.038 415.261 C 893.317 415.676, 896.505 416.105, 902.617 418.295 C 908.728 420.485, 911.979 420.922, 925.617 421.387 C 935.854 421.737, 943.455 422.507, 947 423.552 C 950.025 424.445, 954.300 425.408, 956.500 425.693 C 958.700 425.977, 961.400 427.012, 962.500 427.992 C 964.816 430.056, 972.006 433.881, 976.845 435.625 C 978.684 436.287, 981.159 437.730, 982.345 438.830 C 985.061 441.351, 992.936 444.890, 1004.500 448.785 C 1009.450 450.453, 1015.525 452.749, 1018 453.887 C 1020.475 455.025, 1023.995 455.966, 1025.823 455.978 L 1029.145 456 1027.073 453.365 C 1025.838 451.796, 1025.003 449.268, 1025.008 447.115 C 1025.014 443.949, 1025.512 443.217, 1029.008 441.220 C 1032.628 439.152, 1033 438.565, 1033 434.903 C 1033 431.536, 1033.291 430.947, 1034.750 431.360 C 1035.713 431.631, 1038.525 432.163, 1041 432.540 C 1043.475 432.917, 1045.950 433.563, 1046.500 433.974 C 1047.050 434.386, 1049.171 434.979, 1051.213 435.292 C 1053.254 435.606, 1057.851 437.259, 1061.428 438.965 C 1065.658 440.985, 1070.224 442.283, 1074.497 442.682 C 1078.109 443.019, 1081.301 443.679, 1081.591 444.148 C 1081.881 444.616, 1083.412 445, 1084.994 445 C 1089.052 445, 1092.125 446.345, 1097.580 450.509 C 1103.321 454.891, 1112 459.418, 1112 458.029 C 1112 457.477, 1113.688 455.954, 1115.750 454.644 C 1117.813 453.335, 1121.300 449.937, 1123.500 447.093 C 1125.700 444.249, 1129.606 439.324, 1132.180 436.149 C 1136.413 430.926, 1136.809 429.997, 1136.329 426.418 C 1136.037 424.242, 1136.324 420.510, 1136.966 418.125 C 1137.609 415.739, 1138.269 410.998, 1138.435 407.588 C 1138.606 404.040, 1139.649 399.322, 1140.872 396.557 C 1142.897 391.978, 1142.917 391.657, 1141.254 390.395 C 1140.289 389.663, 1139.156 389.049, 1138.735 389.032 C 1137.090 388.963, 1134.007 382.307, 1134.004 378.815 C 1134.002 376.788, 1133.545 373.934, 1132.989 372.471 C 1132.433 371.009, 1131.920 367.942, 1131.848 365.656 C 1131.777 363.370, 1131.417 361.050, 1131.047 360.500 C 1130.678 359.950, 1129.783 357.071, 1129.058 354.103 C 1128.333 351.134, 1126.673 347.134, 1125.370 345.213 C 1124.066 343.292, 1123 341.334, 1123 340.860 C 1123 340.387, 1122.484 340, 1121.854 340 C 1121.223 340, 1118.578 338.087, 1115.976 335.750 C 1108.405 328.949, 1103.386 325.819, 1088.500 318.612 C 1080.800 314.884, 1073.728 311.427, 1072.784 310.929 C 1070.625 309.792, 1063.051 307.848, 1060.817 307.858 C 1059.891 307.862, 1058.598 307.221, 1057.944 306.433 C 1057.201 305.537, 1054.833 304.991, 1051.628 304.976 C 1048.807 304.963, 1044.777 304.552, 1042.671 304.064 C 1040.565 303.575, 1039.081 303.415, 1039.374 303.707" stroke="#e8b1e4" fill="#e8b1e4" fill-opacity="0.2" fill-rule="evenodd"/><path class="svg-region-MB" d="M 752 300.966 C 750.075 301.353, 744.900 301.467, 740.500 301.219 C 733.494 300.825, 732.175 301.028, 729.882 302.853 C 727.577 304.688, 727.177 305.928, 726.541 313.217 C 726.144 317.771, 725.169 325.097, 724.374 329.498 C 723.579 333.899, 722.667 342.900, 722.347 349.500 C 721.814 360.490, 721.995 362.342, 724.494 371.500 C 726.632 379.340, 727.362 384.741, 727.871 396.500 C 728.446 409.795, 728.784 411.926, 730.841 415.250 C 732.736 418.310, 733.746 418.999, 736.332 418.992 C 741.881 418.979, 762 413.306, 762 411.755 C 762 411.340, 763.125 411, 764.500 411 C 765.875 411, 767 410.606, 767 410.125 C 767 409.644, 768.295 408.991, 769.877 408.675 C 771.521 408.346, 775.487 405.474, 779.127 401.975 C 782.632 398.607, 787.300 395.022, 789.500 394.009 C 803.592 387.517, 802.170 387.801, 825.500 386.827 C 855.258 385.584, 937.865 385.628, 946 386.891 C 949.575 387.446, 955.200 388.395, 958.500 389 C 961.800 389.605, 967.143 390.501, 970.373 390.991 C 973.747 391.504, 977.151 392.710, 978.373 393.827 C 979.543 394.896, 981.404 396.043, 982.508 396.376 C 983.613 396.709, 987.949 400.712, 992.145 405.272 C 1001.197 415.110, 1005.139 417.572, 1010.293 416.605 C 1013.500 416.003, 1014.303 415.178, 1017.452 409.246 C 1019.404 405.572, 1021 402.026, 1021 401.366 C 1021 400.706, 1021.354 400.017, 1021.787 399.833 C 1023.239 399.218, 1028 390.168, 1028 388.022 C 1028 385.386, 1030.304 380.822, 1032.591 378.927 C 1034.923 376.996, 1041 364.144, 1041 361.144 C 1041 358.795, 1041.675 355.785, 1044.508 345.500 C 1045.346 342.458, 1045.981 334.242, 1046.130 324.524 L 1046.375 308.548 1042.025 305.798 C 1037.924 303.206, 1033.748 302.510, 1031.500 304.046 C 1030.434 304.773, 1017.507 306.273, 1012.500 306.250 C 1010.850 306.242, 1006.581 305.542, 1003.013 304.693 C 998.796 303.689, 995.121 303.410, 992.513 303.893 C 990.306 304.303, 983.352 304.451, 977.060 304.223 C 970.768 303.995, 962.810 304.109, 959.376 304.476 C 953.643 305.090, 952.459 305.671, 944.907 311.573 C 940.383 315.108, 936.284 318, 935.798 318 C 933.792 318, 922.835 327.097, 912.953 336.966 C 903.032 346.874, 900.082 349.500, 891.286 356.250 C 885.679 360.553, 881.561 360.051, 872.804 354 C 868.825 351.250, 865.261 349, 864.884 349 C 864.508 349, 862.681 347.538, 860.824 345.750 C 858.967 343.962, 852.793 338.900, 847.104 334.500 C 829.060 320.545, 823.653 316.003, 817.500 309.630 C 814.200 306.212, 810.600 303.374, 809.500 303.322 C 808.400 303.271, 803 302.506, 797.500 301.621 C 787.230 299.968, 758.991 299.562, 752 300.966" stroke="#f9c6c6" fill="#f9c6c6" fill-opacity="0.2" fill-rule="evenodd"/><path class="svg-region-Fl" d="M 771.730 181.091 C 770.756 181.658, 769.047 181.832, 767.932 181.478 C 766.817 181.124, 765.270 181.361, 764.496 182.003 C 763.721 182.646, 762.674 182.916, 762.167 182.603 C 760.668 181.677, 745.752 189.567, 741.864 193.344 C 739.317 195.817, 737.013 199.979, 733.936 207.665 C 729.781 218.045, 729.583 219.022, 729.214 230.915 C 728.789 244.642, 730.232 251.773, 734.631 257.683 C 735.934 259.434, 737 261.170, 737 261.540 C 737 264, 752.052 279, 754.520 279 C 754.796 279, 756.929 279.861, 759.261 280.913 C 763.627 282.884, 768.723 284.111, 780 285.909 C 786.235 286.903, 794.386 288.968, 798.401 290.571 C 800.168 291.276, 800.254 290.969, 799.620 286.195 L 798.939 281.060 804.868 278.067 C 815.182 272.860, 816.811 268.734, 812.901 257.722 C 811.185 252.889, 810.898 250.324, 811.328 243.655 C 811.616 239.170, 812.362 233.250, 812.984 230.500 C 815.312 220.206, 815.387 212.442, 813.205 207.794 C 810.266 201.533, 809.419 192.724, 811.551 190.592 C 812.958 189.185, 813.027 188.478, 811.996 185.989 C 811.054 183.715, 809.953 182.916, 807.139 182.461 C 805.137 182.137, 802.466 181.451, 801.203 180.936 C 798.101 179.672, 773.950 179.799, 771.730 181.091" stroke="#5ca7a9" fill="#5ca7a9" fill-opacity="0.2" fill-rule="evenodd"/><path class="svg-region-Fr" d="M 981 195.731 C 976.581 196.541, 968.594 200.678, 965.259 203.884 C 963.477 205.598, 961.619 207, 961.130 207 C 960.642 207, 959.702 208.306, 959.041 209.901 C 958.380 211.497, 956.750 213.825, 955.420 215.076 C 954.089 216.326, 953 218.144, 953 219.115 C 953 220.087, 952.550 221.160, 952 221.500 C 950.564 222.388, 950.767 225.326, 952.495 228.636 C 953.317 230.211, 954.237 233.075, 954.539 235 C 955.381 240.358, 957.223 246.333, 958.547 248 C 959.763 249.530, 960.290 251.402, 962.172 260.867 C 963.206 266.066, 963.155 266.301, 960.557 268.373 C 956.678 271.466, 955.973 277.749, 959.025 282.034 C 961.265 285.180, 961.367 285.211, 967.396 284.538 C 970.753 284.164, 977.595 283.755, 982.599 283.630 C 990.935 283.421, 992.117 283.134, 996.687 280.201 C 999.430 278.440, 1002.323 277, 1003.115 277 C 1003.907 277, 1005.555 276.299, 1006.777 275.443 C 1008.606 274.163, 1009 272.932, 1009 268.511 C 1009 264.148, 1009.350 263.024, 1010.860 262.544 C 1011.883 262.220, 1014.144 260.389, 1015.885 258.477 C 1017.625 256.565, 1019.639 255, 1020.360 255 C 1021.838 255, 1025 244.742, 1025 239.948 C 1025 236.624, 1028.506 231.116, 1033.281 226.941 L 1036.208 224.381 1034.347 220.908 C 1033.323 218.998, 1031.902 216.775, 1031.189 215.968 C 1030.477 215.160, 1029.130 212.954, 1028.197 211.064 C 1027.085 208.813, 1025.390 207.262, 1023.279 206.564 C 1021.508 205.979, 1019.148 204.719, 1018.036 203.765 C 1016.923 202.811, 1013.198 200.857, 1009.757 199.423 C 1006.315 197.988, 1003.072 196.406, 1002.550 195.907 C 1001.599 194.999, 985.704 194.868, 981 195.731" stroke="#5ca7a9" fill="#5ca7a9" fill-opacity="0.2" fill-rule="evenodd"/><path class="svg-region-Ol" d="M 469.500 314.758 C 464.974 315.146, 454.052 318.107, 453.429 319.114 C 453.128 319.601, 452.076 320, 451.092 320 C 450.107 320, 446.333 321.575, 442.706 323.500 C 439.079 325.425, 435.409 327, 434.550 327 C 433.692 327, 430.778 328.067, 428.073 329.372 C 425.369 330.677, 422.080 332.014, 420.763 332.345 C 415.523 333.660, 394.003 344.607, 384.500 350.792 C 379.975 353.736, 367.411 366.181, 363.908 371.187 C 362.633 373.009, 360.111 376.300, 358.304 378.500 C 354.144 383.564, 344.120 403.180, 340.674 413.003 C 335.214 428.563, 333.757 437.270, 333.732 454.500 C 333.696 478.049, 337.150 491.913, 355.532 542 C 359.064 551.625, 364.482 566.925, 367.572 576 C 374.387 596.018, 379.312 610.006, 383.064 620 C 384.612 624.125, 388.219 634.025, 391.079 642 C 400.214 667.472, 405.014 680.281, 408.694 689 C 429.963 739.403, 436.825 754.067, 451.747 781 C 461.774 799.097, 465.337 804.672, 471.767 812.319 C 480.630 822.860, 495.710 834.575, 506 838.911 C 509.025 840.186, 511.950 841.587, 512.500 842.025 C 514 843.219, 524.200 845.616, 536 847.549 C 553.886 850.477, 576.377 848.245, 598.500 841.346 C 618.593 835.079, 630.908 827.437, 643.613 813.349 C 647.951 808.540, 652.175 803.873, 653 802.979 C 653.825 802.086, 657.650 797.817, 661.500 793.494 C 665.350 789.171, 670.815 783.128, 673.644 780.067 C 676.473 777.005, 681.451 771.350, 684.706 767.500 C 693.549 757.041, 696.058 754.129, 701.015 748.566 C 707.782 740.974, 716.614 730.306, 730.789 712.603 C 737.655 704.028, 749 687.722, 749 686.429 C 749 686.104, 750.476 683.513, 752.279 680.669 C 754.083 677.826, 756.403 673.925, 757.434 672 C 758.466 670.075, 761.675 664.900, 764.566 660.500 C 771.992 649.196, 780.383 632.961, 783.948 623 C 791.186 602.777, 785.743 577.595, 770.995 563.075 C 767.597 559.729, 759.600 553.506, 753.223 549.246 C 743.906 543.022, 740.806 540.321, 737.443 535.500 C 735.141 532.200, 732.413 529.357, 731.379 529.182 C 728.758 528.739, 723.200 526.133, 722.517 525.028 C 721.783 523.840, 703.990 514.132, 697.500 511.379 C 690.798 508.535, 677.917 507.409, 674.228 509.344 C 672.728 510.131, 670.263 511.266, 668.750 511.866 C 667.237 512.466, 666 513.642, 666 514.479 C 666 515.315, 665.624 516, 665.165 516 C 664.705 516, 663.020 519.432, 661.419 523.626 C 659.819 527.820, 657.945 531.468, 657.255 531.733 C 656.379 532.069, 656 534.898, 656 541.107 C 656 546.369, 655.592 550, 655 550 C 654.450 550, 654 550.865, 654 551.922 C 654 552.979, 652.119 555.454, 649.820 557.422 C 645.915 560.765, 645.208 560.995, 639.070 560.927 C 634.728 560.879, 631.483 560.259, 629.500 559.101 C 626.774 557.508, 626.472 556.806, 626.195 551.424 C 626.027 548.166, 625.465 545.073, 624.945 544.550 C 624.425 544.028, 624 541.890, 624 539.800 C 624 533.970, 621.155 534.789, 612.852 543.010 C 608.958 546.865, 604.699 550.289, 603.386 550.618 C 602.074 550.947, 601 551.677, 601 552.239 C 601 553.892, 593.939 552.291, 592.425 550.296 C 591.562 549.157, 591.052 545.723, 591.032 540.905 C 590.994 531.920, 589.823 530.305, 582.998 529.820 L 578.500 529.500 577.904 522.551 C 577.504 517.885, 576.847 515.451, 575.904 515.141 C 575.132 514.886, 573.035 513.063, 571.245 511.089 C 569.454 509.115, 566.642 506.051, 564.995 504.280 C 563.348 502.509, 562 500.802, 562 500.486 C 562 500.171, 560.875 498.699, 559.500 497.217 C 558.125 495.734, 557 493.953, 557 493.260 C 557 492.567, 556.663 491.993, 556.250 491.984 C 555.596 491.971, 552.191 485.360, 550.592 481 C 550.290 480.175, 548.900 477.700, 547.504 475.500 C 546.108 473.300, 543.344 468.125, 541.361 464 C 539.377 459.875, 536.315 455.296, 534.555 453.823 C 532.194 451.849, 531.001 449.672, 530.006 445.527 C 529.265 442.436, 528.285 439.676, 527.829 439.394 C 527.373 439.113, 527 438.099, 527 437.141 C 527 436.183, 526.448 434.848, 525.774 434.174 C 524.077 432.477, 522.291 422.906, 523.119 419.941 C 523.494 418.598, 523.845 415.144, 523.900 412.264 C 524.030 405.454, 525.495 399.539, 529.776 388.534 C 533.131 379.912, 533.240 379.218, 532.624 370.455 C 532.037 362.106, 530.727 357.548, 526.963 350.764 C 526.433 349.809, 526 347.959, 526 346.653 C 526 345.347, 524.875 342.621, 523.500 340.595 C 522.125 338.569, 521 336.557, 521 336.125 C 521 334.743, 506.623 321.361, 503.301 319.649 C 495.227 315.490, 482.472 313.644, 469.500 314.758" stroke="#aa444d" fill="#aa444d" fill-opacity="0.2" fill-rule="evenodd"/><path class="svg-region-Or" d="M 1302.317 312.046 C 1291.693 313.049, 1277.695 316.171, 1270.500 319.143 C 1255.200 325.462, 1253.893 326.128, 1250.193 329.493 C 1242.202 336.759, 1235.128 350.653, 1231.463 366.280 C 1229.276 375.607, 1230.487 380.897, 1235.976 386 C 1242.837 392.377, 1247 404.353, 1247 417.713 C 1247 422.248, 1243.717 433.460, 1240.991 438.236 C 1240.446 439.191, 1239.993 441.891, 1239.985 444.236 C 1239.960 451.688, 1236.771 459.109, 1228.787 470.299 C 1226.015 474.184, 1223.148 478.794, 1222.417 480.544 C 1221.557 482.603, 1216.572 487.393, 1208.294 494.113 C 1201.257 499.826, 1192.028 508.090, 1187.785 512.479 L 1180.070 520.458 1172.550 520.837 C 1166.485 521.144, 1164.293 520.833, 1161.225 519.234 C 1159.132 518.144, 1155.979 516.935, 1154.216 516.547 C 1152.454 516.160, 1150.638 515.176, 1150.182 514.361 C 1149.726 513.545, 1147.557 510.993, 1145.362 508.689 C 1143.168 506.385, 1140.317 502.756, 1139.028 500.625 L 1136.683 496.751 1131.091 497.297 C 1128.016 497.598, 1123.609 498.779, 1121.298 499.922 C 1118.987 501.065, 1116.662 502, 1116.132 502 C 1115.601 502, 1115.017 502.337, 1114.833 502.750 C 1114.650 503.163, 1112.700 504.400, 1110.500 505.500 C 1108.300 506.600, 1105.509 508.400, 1104.298 509.500 C 1098.996 514.316, 1098.849 514.387, 1096.798 513.106 C 1089.990 508.854, 1086.808 507.775, 1082.917 508.397 C 1080.715 508.749, 1078.145 509.413, 1077.206 509.872 C 1072.514 512.165, 1068.115 513.967, 1064.500 515.076 C 1059.337 516.660, 1036.547 528.544, 1032 532.025 C 1028.235 534.906, 1025.829 536.263, 1016.500 540.767 C 1010.782 543.528, 1001.598 552.105, 997.242 558.753 C 996.329 560.147, 992.630 564.260, 989.023 567.894 C 980.256 576.724, 978.623 578.965, 973.298 589.479 C 969.285 597.401, 968.689 599.431, 968.234 606.729 C 967.927 611.659, 968.103 615, 968.670 615 C 969.194 615, 970.226 617.357, 970.964 620.238 C 971.703 623.120, 973.127 626.832, 974.129 628.488 C 975.132 630.145, 977.095 633.525, 978.493 636 C 979.890 638.475, 983.047 643.200, 985.508 646.500 C 987.968 649.800, 992.895 656.775, 996.455 662 C 1006.488 676.725, 1013.214 686.283, 1016.564 690.574 C 1018.250 692.733, 1021.496 697.501, 1023.778 701.169 C 1026.061 704.836, 1028.957 708.942, 1030.214 710.293 C 1031.471 711.644, 1033.833 714.943, 1035.462 717.624 C 1037.092 720.306, 1040.518 725.200, 1043.076 728.500 C 1045.634 731.800, 1049.558 737.533, 1051.795 741.239 C 1056.077 748.333, 1060.014 753.381, 1071.496 766.500 C 1079.663 775.832, 1099.352 796, 1100.294 796 C 1100.650 796, 1103.909 798.925, 1107.537 802.500 C 1111.166 806.075, 1114.698 809, 1115.387 809 C 1116.076 809, 1118.409 810.499, 1120.570 812.331 C 1124.039 815.272, 1136.350 823, 1137.564 823 C 1137.816 823, 1139.929 823.857, 1142.261 824.905 C 1148.291 827.615, 1154.282 828.673, 1182.500 832.011 C 1186.900 832.531, 1192.075 833.439, 1194 834.028 C 1197.792 835.187, 1209.442 836.805, 1220.339 837.684 C 1232.696 838.681, 1245.783 834.456, 1260.627 824.677 C 1268.720 819.345, 1288.481 800.367, 1292.394 794.168 C 1293.840 791.877, 1295.918 789.443, 1297.012 788.761 C 1298.105 788.078, 1299 786.904, 1299 786.153 C 1299 785.402, 1300.298 783.148, 1301.885 781.144 C 1303.472 779.140, 1306.474 774.575, 1308.557 771 C 1310.639 767.425, 1312.716 764.350, 1313.171 764.167 C 1313.627 763.983, 1314 763.433, 1314 762.945 C 1314 762.456, 1315.970 757.881, 1318.378 752.778 C 1320.786 747.675, 1324.887 737.650, 1327.491 730.500 C 1330.095 723.350, 1332.588 716.777, 1333.031 715.894 C 1335.991 709.996, 1342.357 688.302, 1343.046 681.767 C 1343.494 677.514, 1344.199 673.487, 1344.613 672.817 C 1345.026 672.148, 1345.414 670.485, 1345.473 669.120 C 1345.533 667.756, 1346.126 666.458, 1346.791 666.236 C 1347.456 666.015, 1348 665.394, 1348 664.857 C 1348 664.321, 1351.065 659.296, 1354.811 653.691 C 1358.556 648.086, 1364.804 637.425, 1368.695 630 C 1372.586 622.575, 1379.108 610.650, 1383.189 603.500 C 1387.270 596.350, 1390.925 589.825, 1391.311 589 C 1391.697 588.175, 1394.714 582.550, 1398.016 576.500 C 1405.849 562.148, 1420.022 533.127, 1422.922 525.500 C 1424.177 522.200, 1426.103 517.287, 1427.202 514.582 C 1431.878 503.073, 1438.373 474.161, 1437.827 467.289 C 1437.639 464.930, 1437.743 463, 1438.058 463 C 1439.044 463, 1438.893 445.884, 1437.828 437.094 C 1437.268 432.471, 1435.503 424.721, 1433.905 419.873 C 1432.307 415.025, 1431 410.181, 1431 409.110 C 1431 408.039, 1430.360 405.888, 1429.578 404.331 C 1428.795 402.774, 1427.333 398.821, 1426.328 395.547 C 1425.322 392.272, 1423.487 388.090, 1422.250 386.252 C 1421.013 384.415, 1420 382.311, 1420 381.578 C 1420 380.845, 1419.325 379.685, 1418.500 379 C 1417.675 378.315, 1417 377.313, 1417 376.772 C 1417 376.231, 1415.875 374.452, 1414.500 372.818 C 1413.125 371.184, 1411.988 369.319, 1411.973 368.673 C 1411.958 368.028, 1409.659 365.025, 1406.863 362 C 1404.068 358.975, 1400.266 354.220, 1398.414 351.432 C 1391.869 341.579, 1377.880 331.402, 1363.249 325.849 C 1360.361 324.753, 1357.428 323.326, 1356.731 322.678 C 1354.439 320.548, 1349.575 318.218, 1345 317.058 C 1342.525 316.430, 1339.600 315.535, 1338.500 315.068 C 1331.102 311.931, 1316.473 310.709, 1302.317 312.046" stroke="#aa444d" fill="#aa444d" fill-opacity="0.2" fill-rule="evenodd"/><path class="svg-region-Pl" d="M 542 416.704 C 538.447 417.997, 531.995 425.663, 528.089 433.236 C 526.824 435.687, 526.922 436.726, 529.027 443.236 C 530.554 447.959, 532.444 451.532, 534.428 453.451 C 537.360 456.285, 540.170 461.288, 550.465 482 C 553.062 487.225, 555.595 491.650, 556.094 491.833 C 556.592 492.017, 557 492.784, 557 493.538 C 557 494.292, 558.125 496.034, 559.500 497.409 C 560.875 498.784, 562 500.199, 562 500.553 C 562 500.908, 563.246 502.391, 564.768 503.849 C 566.290 505.307, 568.354 507.781, 569.354 509.346 C 570.354 510.911, 572.471 512.936, 574.060 513.846 C 575.719 514.796, 577.205 516.669, 577.553 518.249 C 578.272 521.513, 578.860 521.456, 592.500 516.794 C 602.749 513.291, 610.048 508.469, 613.589 502.858 C 614.929 500.736, 616.607 499, 617.317 499 C 618.028 499, 620.330 497.423, 622.434 495.496 C 626.063 492.173, 626.232 491.749, 625.730 487.246 C 625.264 483.070, 624.571 481.935, 619.966 477.800 C 617.087 475.215, 613.329 472.366, 611.616 471.468 C 609.902 470.570, 607.354 469.217, 605.953 468.460 C 601.431 466.019, 595.587 458.688, 592.034 451 C 588.309 442.939, 586.330 440.009, 584.595 439.984 C 583.993 439.975, 581.977 438.625, 580.114 436.984 C 578.252 435.343, 576.105 434, 575.343 434 C 574.581 434, 573.445 432.875, 572.818 431.500 C 572.192 430.125, 571.282 429, 570.797 429 C 570.311 429, 567.796 427.049, 565.207 424.665 C 557.497 417.565, 548.302 414.411, 542 416.704" stroke="#f9d3d3" fill="#f9d3d3" fill-opacity="0.2" fill-rule="evenodd"/><path class="svg-region-Pr" d="M 1215.091 425.923 C 1214.316 426.413, 1213.155 426.613, 1212.513 426.366 C 1211.419 425.947, 1202.131 431.745, 1199.163 434.699 C 1198.428 435.431, 1196.330 437.172, 1194.501 438.567 C 1192.672 439.962, 1190.497 442.799, 1189.668 444.872 C 1187.947 449.173, 1182.247 453.985, 1178.817 454.032 C 1176.494 454.064, 1173 456.103, 1173 457.427 C 1173 458.683, 1167.606 465.315, 1163.622 468.956 C 1160.756 471.576, 1157.120 473.337, 1149.682 475.709 C 1142.725 477.928, 1138.729 479.810, 1136.734 481.805 L 1133.848 484.690 1136.083 492.095 C 1138.603 500.442, 1139.906 502.837, 1144.959 508.399 C 1152.175 516.343, 1152.957 517, 1155.205 517.007 C 1156.467 517.010, 1158.850 517.907, 1160.500 519 C 1162.855 520.559, 1165.198 520.988, 1171.396 520.993 L 1179.292 521 1187.448 512.750 C 1191.934 508.212, 1198.485 502.250, 1202.007 499.500 C 1205.529 496.750, 1209.496 493.500, 1210.822 492.277 C 1212.148 491.055, 1215.192 488.580, 1217.586 486.777 C 1219.980 484.975, 1221.952 482.775, 1221.969 481.890 C 1221.999 480.352, 1223.532 477.862, 1230.421 468.167 C 1241.575 452.469, 1243.117 436.744, 1234.287 428.758 C 1231.137 425.909, 1218.144 423.990, 1215.091 425.923" stroke="#f9d3d3" fill="#f9d3d3" fill-opacity="0.2" fill-rule="evenodd"/><path class="svg-region-DLl" d="M 626.015 414.500 C 625.990 416.150, 625.348 419.288, 624.587 421.472 C 623.476 424.665, 622.253 425.922, 618.352 427.877 C 607.331 433.403, 608.162 433.215, 602.750 431.417 C 597.225 429.582, 591.888 429.912, 586.906 432.397 C 585.139 433.279, 583.199 434.007, 582.596 434.015 C 581.993 434.024, 580.849 434.442, 580.053 434.946 C 578.860 435.701, 579.034 436.217, 581.053 437.897 C 582.399 439.017, 583.993 439.948, 584.595 439.967 C 586.412 440.022, 588.480 443.118, 591.866 450.854 C 595.029 458.079, 601.553 466.343, 605.500 468.123 C 613.083 471.543, 622.422 478.961, 624.643 483.330 C 626.806 487.585, 626.604 487.489, 629.469 485.612 C 631.517 484.271, 632 483.147, 631.999 479.727 C 631.997 472.708, 634.206 458.600, 635.558 457 C 637.160 455.103, 639 445.212, 639 438.491 C 639 434.362, 638.529 432.906, 636.611 431.104 C 635.297 429.870, 633.960 427.654, 633.640 426.180 C 633.320 424.706, 631.484 420.800, 629.559 417.500 C 626.312 411.931, 626.057 411.715, 626.015 414.500" stroke="#b7d6d3" fill="#b7d6d3" fill-opacity="0.2" fill-rule="evenodd"/><path class="svg-region-DLr" d="M 1190.427 420.088 C 1187.688 423.125, 1169.598 432, 1166.147 432 C 1163.978 432, 1162.670 431.142, 1160.898 428.556 C 1159.600 426.662, 1157.630 424.868, 1156.519 424.570 C 1148.636 422.451, 1138.968 427.028, 1132 436.178 C 1122.296 448.920, 1118.707 452.975, 1115.420 454.915 C 1110.731 457.681, 1111.040 460.117, 1116.731 465.241 C 1119.332 467.583, 1124.571 472.524, 1128.373 476.219 L 1135.284 482.939 1137.957 480.690 C 1139.427 479.453, 1144.876 477.186, 1150.065 475.652 C 1160.523 472.561, 1164.027 469.986, 1171.782 459.687 C 1175.015 455.394, 1176.686 454, 1178.599 454 C 1182.304 454, 1187.731 449.396, 1189.958 444.363 C 1191.025 441.950, 1192.552 439.726, 1193.351 439.419 C 1194.150 439.112, 1195.038 437.430, 1195.325 435.681 C 1196.066 431.164, 1194.707 418.728, 1193.427 418.305 C 1192.837 418.111, 1191.487 418.913, 1190.427 420.088" stroke="#b7d6d3" fill="#b7d6d3" fill-opacity="0.2" fill-rule="evenodd"/><path class="svg-region-OLl" d="M 586.184 380.893 C 575.695 385.567, 571.376 389.193, 568.003 396.154 C 566.352 399.564, 565 403.105, 565 404.022 C 565 404.940, 564.100 406.505, 563 407.500 C 561.900 408.495, 561 409.915, 561 410.655 C 561 411.395, 561.900 412, 563 412 C 565.321 412, 565.541 413.863, 563.790 418.703 C 562.587 422.030, 562.616 422.081, 569.040 428.232 C 576.319 435.200, 579.343 435.963, 586.403 432.613 C 592.142 429.890, 597.091 429.538, 602.832 431.444 C 607.303 432.929, 608.149 432.954, 610.192 431.659 C 611.461 430.855, 613.850 429.910, 615.500 429.561 C 619.927 428.622, 623.082 425.797, 624.612 421.400 C 626.203 416.829, 626.439 408.389, 625 407.500 C 624.450 407.160, 624 406.017, 624 404.960 C 624 403.744, 623.082 402.808, 621.500 402.411 C 619.360 401.874, 619 401.213, 619 397.827 C 619 395.651, 618.089 391.754, 616.976 389.166 C 615.186 385.004, 614.238 384.135, 608.768 381.637 C 599.911 377.592, 594.029 377.398, 586.184 380.893" stroke="#c4875d" fill="#c4875d" fill-opacity="0.2" fill-rule="evenodd"/><path class="svg-region-OLr" d="M 1150.500 387.030 C 1145.476 389.480, 1140.460 395.072, 1139.514 399.279 C 1138.823 402.348, 1137.731 410.700, 1136.379 423.250 C 1135.653 429.988, 1136.023 430.156, 1143.500 426.478 C 1146.250 425.125, 1150.257 424.014, 1152.404 424.009 C 1155.681 424.001, 1156.899 424.641, 1160 428 C 1162.795 431.028, 1164.453 432, 1166.822 432 C 1169.880 432, 1184.671 424.582, 1191.898 419.425 C 1193.767 418.091, 1196.118 417, 1197.122 417 C 1199.378 417, 1202.365 411.526, 1201.693 408.622 C 1201.423 407.455, 1200.639 404.925, 1199.950 403 C 1197.858 397.156, 1197.676 396.529, 1197.847 395.731 C 1197.938 395.309, 1196.885 394.449, 1195.506 393.821 C 1194.128 393.193, 1193 392.301, 1193 391.839 C 1193 391.378, 1191.306 391, 1189.236 391 C 1187.166 391, 1183.003 390.057, 1179.986 388.903 C 1168.421 384.483, 1157.186 383.770, 1150.500 387.030" stroke="#c4875d" fill="#c4875d" fill-opacity="0.2" fill-rule="evenodd"/><path class="svg-region-VOC" d="M 743.500 418 C 741.850 418.420, 738.432 418.817, 735.905 418.882 C 732.807 418.961, 730.761 419.606, 729.625 420.861 C 727.574 423.128, 723.536 424.836, 710.500 428.951 C 705 430.687, 699.600 432.510, 698.500 433.001 C 691.743 436.020, 682.991 439, 680.883 439 C 677.409 439, 664 446.246, 664 448.124 C 664 449.365, 668.474 451, 671.871 451 C 673.378 451, 676.136 449.875, 678 448.500 C 681.098 446.214, 682.272 446, 691.694 446 C 702.145 446, 704.435 446.933, 699.500 449.182 C 695.970 450.791, 696.111 454.706, 699.750 456.113 C 703.695 457.638, 711.644 456.640, 714.935 454.206 C 716.479 453.065, 720.163 451.424, 723.121 450.559 C 726.973 449.434, 731.259 446.790, 738.222 441.244 C 743.569 436.985, 749.082 432.691, 750.472 431.703 C 752.438 430.306, 753 429.038, 753 426 C 753 417.948, 750.843 416.132, 743.500 418 M 1033 434.891 C 1033 438.494, 1032.620 439.085, 1029 441.120 C 1025.457 443.112, 1025 443.792, 1025 447.076 C 1025 449.773, 1025.886 451.874, 1028.250 454.780 C 1031.255 458.476, 1038.407 462.992, 1041.277 463.006 C 1041.950 463.010, 1043.625 463.574, 1045 464.261 C 1046.375 464.949, 1051.646 466.858, 1056.713 468.505 C 1065.806 471.461, 1066.742 472.168, 1068.418 477.353 C 1068.960 479.032, 1069.759 479.141, 1076.878 478.511 L 1084.739 477.815 1088.791 481.907 C 1092.507 485.660, 1093.278 486, 1098.077 486 C 1102.179 486, 1104.052 485.435, 1106.736 483.388 C 1110.870 480.235, 1110.635 477.996, 1105.427 470.900 C 1101.031 464.912, 1101.046 462.825, 1105.500 460.701 C 1107.425 459.783, 1109 458.658, 1109 458.201 C 1109 457.744, 1107.537 456.672, 1105.750 455.819 C 1103.963 454.966, 1100.326 452.608, 1097.668 450.578 C 1092.128 446.347, 1089.067 445, 1084.994 445 C 1083.412 445, 1081.881 444.616, 1081.591 444.148 C 1081.301 443.679, 1078.055 443.014, 1074.376 442.671 C 1070.159 442.277, 1065.893 441.108, 1062.832 439.507 C 1060.161 438.111, 1055.619 436.325, 1052.738 435.539 C 1049.857 434.752, 1045.925 433.675, 1044 433.146 C 1042.075 432.616, 1038.813 431.896, 1036.750 431.546 L 1033 430.909 1033 434.891" stroke="#ff8f93" fill="#ff8f93" fill-opacity="0.2" fill-rule="evenodd"/><path class="svg-region-OABl" d="M 693.491 487.014 C 692.577 488.494, 685.383 492, 683.261 492 C 682.261 492, 678.305 493.338, 674.471 494.973 C 670.637 496.608, 666.375 497.962, 665 497.982 C 663.625 498.002, 660.250 499.125, 657.500 500.478 L 652.500 502.937 657.628 502.969 C 660.448 502.986, 664.371 503.675, 666.346 504.500 C 668.320 505.325, 672.200 506, 674.968 506 C 678.427 506, 680.547 506.547, 681.750 507.750 C 683.041 509.041, 684.762 509.419, 688.310 509.193 C 692.241 508.942, 694.649 509.616, 701.485 512.879 C 707.116 515.568, 712.278 517.210, 717.280 517.906 C 721.367 518.475, 725.875 519.382, 727.297 519.923 C 729.222 520.655, 730.687 520.504, 733.035 519.333 C 734.769 518.468, 738.733 517.428, 741.844 517.022 C 744.955 516.616, 751.011 514.646, 755.301 512.644 C 761.640 509.686, 764.734 508.882, 771.801 508.356 C 778.906 507.827, 781.183 507.231, 784.229 505.104 C 786.279 503.672, 787.967 502.221, 787.979 501.879 C 787.990 501.538, 784.288 500.936, 779.750 500.543 C 775.132 500.143, 768.418 498.710, 764.500 497.288 C 756.011 494.209, 745.336 492.111, 734.154 491.325 C 728.134 490.902, 724.565 490.079, 721.351 488.370 C 717.414 486.276, 715.566 486, 705.506 486 C 698.886 486, 693.856 486.425, 693.491 487.014" stroke="#81244d" fill="#81244d" fill-opacity="0.2" fill-rule="evenodd"/><path class="svg-region-OABr" d="M 1051.500 494.641 C 1049.300 494.861, 1042.775 496.166, 1037 497.540 C 1017.607 502.156, 1011 504.992, 1011 508.702 C 1011 510.502, 1011.689 511.188, 1013.949 511.640 C 1019.406 512.731, 1021.017 516.354, 1018.590 522.072 C 1018.132 523.151, 1018.701 523.998, 1020.405 524.775 C 1022.672 525.808, 1022.799 526.191, 1021.863 529.203 C 1021.299 531.016, 1020.600 533.276, 1020.309 534.224 C 1019.936 535.442, 1022.235 534.488, 1028.140 530.975 C 1032.738 528.239, 1036.891 526.001, 1037.369 526.001 C 1037.847 526, 1040.884 524.393, 1044.118 522.428 C 1047.560 520.337, 1053.835 517.853, 1059.249 516.438 C 1064.337 515.108, 1069.259 513.579, 1070.187 513.041 C 1073.040 511.385, 1083.314 508, 1085.465 508.006 C 1087.467 508.012, 1090.070 509.156, 1095.846 512.568 C 1098.996 514.429, 1098.912 514.460, 1104.316 509.436 C 1105.537 508.302, 1107.990 506.729, 1109.768 505.942 C 1112.408 504.774, 1113 503.944, 1113 501.411 C 1113 496.723, 1110.101 494.621, 1104.800 495.464 C 1096.298 496.817, 1082.404 497.160, 1077.500 496.139 C 1071.580 494.906, 1057.153 494.075, 1051.500 494.641" stroke="#81244d" fill="#81244d" fill-opacity="0.2" fill-rule="evenodd"/><path class="svg-region-SOTl" d="M 824 422.500 C 822.075 423.241, 818.184 423.882, 815.354 423.924 C 812.087 423.972, 807.522 425.094, 802.854 426.997 C 798.809 428.645, 794.514 429.995, 793.310 429.997 C 790.277 430.001, 778.133 434.487, 769.718 438.710 C 765.860 440.646, 760.959 442.464, 758.827 442.750 C 756.696 443.036, 754.711 443.659, 754.417 444.135 C 754.123 444.611, 752.761 445, 751.391 445 C 750.021 445, 747.631 445.657, 746.079 446.459 C 744.528 447.261, 740.163 448.190, 736.379 448.523 C 726.115 449.426, 720.072 450.974, 714.419 454.148 C 711.625 455.716, 708.196 457, 706.799 457 C 704.932 457, 702.139 459.185, 696.252 465.250 C 691.848 469.788, 687.627 473.971, 686.872 474.546 C 684.543 476.322, 676.451 480, 674.872 480 C 674.049 480, 671.513 480.900, 669.236 482 C 666.959 483.100, 663.928 484, 662.499 484 C 654.168 484, 643.116 495.821, 647.034 500.541 C 648.747 502.605, 654.394 502.350, 659 500 C 661.156 498.900, 663.870 498, 665.030 498 C 666.190 498, 670.370 496.690, 674.320 495.089 C 678.269 493.488, 683.174 491.895, 685.221 491.549 C 687.267 491.203, 690.257 489.813, 691.865 488.460 C 693.473 487.107, 695.939 486, 697.345 486 C 698.750 486, 700.261 485.357, 700.701 484.570 C 702.157 481.969, 707.421 480.012, 713 480 C 716.025 479.993, 719.655 479.385, 721.067 478.648 C 722.478 477.912, 724.902 476.990, 726.453 476.601 C 728.004 476.212, 730.717 474.792, 732.481 473.447 C 734.245 472.101, 736.117 471, 736.640 471 C 737.787 471, 751.370 464.004, 762.819 457.517 C 770.538 453.144, 771.584 452.821, 777.319 453.050 C 786.917 453.432, 789.736 453.121, 791.357 451.500 C 792.182 450.675, 793.564 450, 794.429 450 C 795.645 450, 796 448.884, 796 445.057 C 796 439.507, 798.222 437, 803.140 437 C 806.723 437, 813.621 433.969, 819.622 429.758 C 825.972 425.301, 831.124 422.988, 836.859 422.019 C 841.313 421.267, 841.218 421.234, 834.500 421.194 C 830.650 421.171, 825.925 421.759, 824 422.500" stroke="#995b45" fill="#995b45" fill-opacity="0.2" fill-rule="evenodd"/><path class="svg-region-SOTr" d="M 917 421.982 C 917.825 422.505, 921.650 423.911, 925.500 425.105 C 937.413 428.800, 940.909 430.370, 945.787 434.217 C 948.379 436.261, 952.075 438.813, 954 439.887 C 955.925 440.961, 959.889 444.575, 962.809 447.919 C 967.056 452.784, 969.792 454.798, 976.499 457.999 C 981.109 460.200, 986.162 462, 987.729 462 C 990.818 462, 995.636 464.180, 1001.021 468.015 C 1005.481 471.190, 1013.892 475.135, 1022 477.854 C 1025.575 479.052, 1030.300 481.143, 1032.500 482.500 C 1042.518 488.678, 1045.081 489.501, 1054.231 489.476 C 1062.807 489.453, 1062.979 489.500, 1063.895 492.129 C 1064.954 495.166, 1066.729 495.494, 1088.104 496.601 C 1097.722 497.099, 1100.250 496.922, 1102.871 495.567 C 1105.390 494.264, 1105.845 493.582, 1105.109 492.216 C 1103.332 488.920, 1099.470 486.260, 1095.607 485.672 C 1092.855 485.253, 1090.737 484.012, 1088.376 481.434 L 1085.037 477.789 1077.027 478.498 C 1069.757 479.141, 1068.961 479.035, 1068.418 477.353 C 1067.047 473.112, 1065.643 471.160, 1063.631 470.702 C 1061.512 470.220, 1050.321 466.402, 1046.500 464.859 C 1045.400 464.415, 1041.974 463.130, 1038.886 462.005 C 1035.798 460.879, 1032.466 459.068, 1031.481 457.979 C 1030.340 456.718, 1028.386 455.992, 1026.095 455.978 C 1024.118 455.966, 1020.475 455.027, 1018 453.891 C 1015.525 452.755, 1009 450.251, 1003.500 448.325 C 991.249 444.035, 988.479 442.814, 983.820 439.652 C 981.813 438.291, 976.420 435.414, 971.836 433.261 C 967.251 431.107, 962.882 428.593, 962.128 427.673 C 961.331 426.701, 959.318 426, 957.328 426 C 955.443 426, 952.641 425.349, 951.102 424.553 C 946.255 422.046, 913.170 419.552, 917 421.982" stroke="#995b45" fill="#995b45" fill-opacity="0.2" fill-rule="evenodd"/><path class="svg-region-OVl" d="M 650.902 433.820 C 650.024 434.194, 647.002 436.268, 644.187 438.429 C 639.688 441.883, 638.992 442.911, 638.437 446.929 C 638.090 449.443, 636.995 453.300, 636.004 455.500 C 634.070 459.795, 632 472.245, 632 479.587 C 632 483.546, 631.636 484.300, 629.006 485.797 C 627.360 486.733, 626.010 488.317, 626.006 489.316 C 625.995 492.459, 624.108 494.852, 619.517 497.543 C 617.072 498.976, 614.136 501.661, 612.993 503.511 C 610.739 507.158, 602.794 513.337, 598.914 514.460 C 597.586 514.845, 595.131 515.775, 593.458 516.528 C 591.785 517.280, 588.185 518.431, 585.458 519.085 C 582.731 519.738, 579.911 520.432, 579.192 520.627 C 578.310 520.866, 577.984 522.368, 578.192 525.241 L 578.500 529.500 582.998 529.820 C 589.823 530.305, 590.994 531.920, 591.032 540.905 C 591.052 545.723, 591.562 549.157, 592.425 550.296 C 593.939 552.291, 601 553.892, 601 552.239 C 601 551.677, 602.107 550.939, 603.460 550.599 C 604.813 550.260, 609.135 546.812, 613.063 542.937 C 617.257 538.802, 620.886 536.024, 621.853 536.210 C 623.568 536.539, 624.496 540.105, 625.811 551.424 C 626.415 556.614, 626.872 557.566, 629.500 559.101 C 631.482 560.259, 634.729 560.879, 639.070 560.927 C 645.208 560.995, 645.915 560.765, 649.820 557.422 C 652.119 555.454, 654 552.979, 654 551.922 C 654 550.865, 654.450 550, 655 550 C 655.593 550, 656 546.333, 656 541 C 656 536.050, 656.410 532, 656.911 532 C 657.938 532, 661.202 525.408, 662.978 519.750 C 663.625 517.688, 664.570 516, 665.078 516 C 665.585 516, 666 515.315, 666 514.479 C 666 513.642, 667.237 512.466, 668.750 511.866 C 670.263 511.266, 672.694 510.150, 674.154 509.387 C 675.614 508.624, 678.089 507.993, 679.654 507.985 C 681.859 507.973, 682.162 507.751, 681 507 C 680.175 506.467, 677.417 506.024, 674.872 506.015 C 672.327 506.007, 668.629 505.325, 666.654 504.500 C 664.680 503.675, 661.362 502.995, 659.282 502.989 C 647.394 502.954, 643.957 500.042, 648.030 493.452 C 650.778 489.005, 658.305 484, 662.244 484 C 663.813 484, 666.959 483.100, 669.236 482 C 671.513 480.900, 674.196 480, 675.199 480 C 679.651 480, 686.776 475.203, 695.154 466.567 L 703.909 457.542 700.454 456.164 C 696.176 454.457, 695.692 450.917, 699.500 449.182 C 704.435 446.933, 702.145 446, 691.694 446 C 682.176 446, 681.125 446.197, 677.944 448.578 C 675.130 450.684, 673.707 451.071, 670.163 450.691 C 664.897 450.126, 663.148 448.731, 664.965 446.542 C 666.061 445.222, 665.883 445, 663.729 445 C 660.932 445, 660 443.405, 660 438.618 C 660 436.848, 659.460 434.860, 658.800 434.200 C 657.509 432.909, 653.497 432.717, 650.902 433.820" stroke="#593939" fill="#593939" fill-opacity="0.2" fill-rule="evenodd"/><path class="svg-region-OVr" d="M 1105.750 460.264 C 1100.984 462.918, 1100.915 465.347, 1105.445 471.072 C 1110.511 477.474, 1110.767 479.637, 1106.868 483.117 C 1105.093 484.703, 1103.046 486, 1102.320 486 C 1100.420 486, 1100.694 487.413, 1103 489.500 C 1104.100 490.495, 1105 491.939, 1105 492.707 C 1105 493.475, 1106.359 494.578, 1108.021 495.157 C 1111.301 496.300, 1113 498.642, 1113 502.018 C 1113 503.200, 1113.338 504.003, 1113.750 503.803 C 1122.763 499.436, 1127.438 497.743, 1131.750 497.282 C 1134.638 496.973, 1137 496.405, 1137 496.020 C 1137 495.635, 1136.111 491.760, 1135.025 487.410 C 1133.179 480.015, 1132.707 479.208, 1127.775 475.016 C 1124.874 472.550, 1119.710 467.712, 1116.300 464.266 C 1112.890 460.820, 1109.965 458.040, 1109.800 458.088 C 1109.635 458.137, 1107.813 459.116, 1105.750 460.264" stroke="#593939" fill="#593939" fill-opacity="0.2" fill-rule="evenodd"/>
    </svg>