<svg xmlns="http://www.w3.org/2000/svg" width="1785" height="1131" viewBox="0 0 1785 1131" version="1.1">
    <path class="svg-region-AAB" d="M 862.500 488.462 C 860.202 489.257, 854.207 489.879, 848.409 489.923 C 842.561 489.968, 836.254 490.626, 833.409 491.489 C 830.709 492.308, 827.064 492.983, 825.309 492.989 C 823.554 492.995, 821.840 493.450, 821.500 494 C 821.123 494.609, 813.518 495, 802.026 495 L 783.170 495 779.335 499.295 C 773.942 505.334, 770.197 507.686, 765 508.296 C 754.452 509.534, 749.781 511.091, 746.617 514.422 C 744.593 516.555, 742.098 517.962, 739.500 518.437 C 734.310 519.385, 728.714 522.814, 729.407 524.619 C 729.699 525.379, 729.515 526, 729 526 C 728.485 526, 728.333 526.703, 728.663 527.563 C 729.219 529.013, 740.486 535, 742.657 535 C 743.813 535, 769.269 547.884, 769.994 548.836 C 770.729 549.800, 773.461 551.356, 782.892 556.179 C 789.473 559.544, 792.093 561.554, 795.026 565.485 C 797.084 568.243, 800.079 571.735, 801.682 573.243 C 805.945 577.257, 815.881 583, 818.562 583 C 819.838 583, 821.179 583.481, 821.542 584.068 C 821.905 584.656, 822.850 584.888, 823.641 584.584 C 824.432 584.281, 825.849 584.428, 826.790 584.911 C 828.266 585.669, 831.590 586.319, 845 588.471 C 846.375 588.692, 854.025 588.947, 862 589.039 C 869.975 589.130, 878.975 589.629, 882 590.147 C 892.216 591.895, 894.464 592.040, 911.577 592.061 C 921.048 592.073, 929.873 591.619, 931.392 591.041 C 932.898 590.469, 935.865 590, 937.984 590 C 944.918 590, 956.918 586.290, 967.306 580.936 C 971.734 578.653, 973.406 577.171, 978.650 570.881 C 984.995 563.269, 999.098 552.764, 1000.751 554.418 C 1001.062 554.728, 1001.992 554.424, 1002.818 553.741 C 1003.644 553.059, 1005.260 552.500, 1006.410 552.500 C 1007.559 552.500, 1008.584 552.106, 1008.687 551.624 C 1008.901 550.619, 1010.088 549.885, 1019.665 544.834 C 1029.150 539.832, 1029.681 539.081, 1027.884 533.203 C 1026.595 528.987, 1025.851 528.190, 1020.696 525.500 C 1016.253 523.181, 1014.769 521.819, 1014.166 519.500 C 1013.554 517.151, 1012.746 516.426, 1010.445 516.160 C 1004.382 515.458, 1004.655 511.954, 1011.333 504.798 C 1013.718 502.242, 1013.141 501.812, 1008.940 503.017 C 1007.055 503.558, 999.865 504, 992.961 504 C 984.063 504, 977.556 504.605, 970.607 506.078 C 964.083 507.461, 958.580 508.012, 954.153 507.723 C 945.103 507.134, 924.239 501.364, 921 498.554 C 920.175 497.838, 917.700 496.685, 915.500 495.991 C 913.300 495.297, 909.854 493.902, 907.843 492.892 C 899.317 488.608, 895.621 487.861, 881 487.467 C 870.376 487.182, 865.431 487.447, 862.500 488.462" stroke="#7f3c1a" fill="#7f3c1a" fill-opacity="0.2" fill-rule="evenodd"/><path class="svg-region-APB" d="M 867 448.100 C 848.571 454.933, 831.327 457.058, 810 455.124 C 803.125 454.500, 794.800 453.994, 791.500 453.998 C 787.215 454.003, 784.301 453.371, 781.307 451.785 C 777.224 449.622, 776.988 449.608, 772.307 451.240 C 769.663 452.162, 764.575 453.474, 761 454.157 C 755.364 455.234, 751.243 457.138, 742.442 462.734 C 738.384 465.314, 728.286 470.263, 723.050 472.238 C 720.053 473.368, 715.745 475.465, 713.476 476.897 C 711.208 478.328, 707.585 480.625, 705.426 482 L 701.500 484.500 710 485.171 C 714.675 485.540, 721.200 486.360, 724.500 486.993 C 727.800 487.625, 736.575 488.533, 744 489.010 C 751.425 489.487, 760.650 490.379, 764.500 490.991 C 782.526 493.859, 786.614 494.249, 802.904 494.656 C 814.256 494.940, 820.672 494.728, 821.354 494.046 C 821.929 493.471, 823.775 493, 825.457 493 C 827.138 493, 830.085 492.506, 832.007 491.902 C 833.928 491.299, 841.590 490.466, 849.034 490.053 C 856.661 489.630, 863.613 488.742, 864.964 488.019 C 866.740 487.069, 871.005 486.878, 881.430 487.284 C 895.636 487.837, 902.313 489.354, 908.564 493.450 C 909.865 494.303, 911.544 495, 912.295 495 C 913.046 495, 915.875 496.146, 918.581 497.547 C 924.289 500.502, 928.951 502.174, 938 504.510 C 941.575 505.432, 945.458 506.642, 946.629 507.198 C 949.145 508.392, 964.275 507.668, 971.500 506.007 C 974.250 505.375, 983.925 504.534, 993 504.138 C 1009.858 503.402, 1011.304 503.079, 1020 498.118 C 1030.315 492.232, 1038.304 490.528, 1051.368 491.428 C 1056.917 491.810, 1061.213 491.879, 1060.915 491.582 C 1060.617 491.284, 1055.945 489.889, 1050.532 488.483 C 1038.953 485.475, 1030.017 481.353, 1017.071 473.048 C 1011.886 469.722, 1006.631 467, 1005.394 467 C 1004.052 467, 1002.008 465.622, 1000.323 463.581 C 997.623 460.310, 997.087 460.117, 988 459.152 C 982.307 458.548, 976.496 458.492, 973.500 459.012 C 970.750 459.490, 965.328 459.908, 961.450 459.940 C 957.573 459.973, 953.918 460.482, 953.328 461.072 C 952.016 462.384, 935.273 461.755, 929.500 460.176 C 914.416 456.052, 910.928 454.916, 906.274 452.609 C 900.756 449.873, 887.213 446.884, 878 446.368 C 874.282 446.160, 870.718 446.721, 867 448.100" stroke="#ac7444" fill="#ac7444" fill-opacity="0.2" fill-rule="evenodd"/><path class="svg-region-PC" d="M 826.500 429.472 C 825.950 429.650, 820.775 430.330, 815 430.983 C 801.201 432.541, 797.416 433.994, 791.497 440.003 C 787.073 444.495, 786.131 445, 782.179 445 C 777.884 445, 777.799 445.063, 778.473 447.748 C 778.852 449.259, 779.238 450.521, 779.331 450.551 C 779.424 450.581, 780.625 451.299, 782 452.147 C 786.928 455.185, 839.747 456.639, 848.780 453.984 C 850.826 453.383, 854.949 452.224, 857.943 451.408 C 860.936 450.592, 863.861 449.562, 864.443 449.118 C 866.659 447.425, 875.016 445.805, 879.169 446.263 C 889.334 447.384, 901.665 450.304, 906.402 452.713 C 910.862 454.980, 920.174 457.958, 928 459.620 C 929.375 459.912, 931.432 460.600, 932.570 461.148 C 935.665 462.639, 975.236 460.086, 978.651 458.176 C 979.924 457.463, 979.493 456.866, 976.359 455 C 974.237 453.736, 969.350 449.658, 965.500 445.936 C 957.807 438.500, 952.555 435.655, 943.566 434.056 C 936.269 432.757, 908.620 432.657, 906.236 433.921 C 905.281 434.427, 900.605 435.393, 895.843 436.067 C 888.245 437.143, 886.412 437.083, 880.843 435.572 C 863.212 430.788, 860.045 430.285, 844 429.724 C 834.925 429.406, 827.050 429.293, 826.500 429.472" stroke="#cda789" fill="#cda789" fill-opacity="0.2" fill-rule="evenodd"/><path class="svg-region-DB" d="M 697 298.746 C 686.330 299.793, 675.815 302.613, 674 304.913 C 673.725 305.261, 672.263 306.334, 670.750 307.296 C 669.237 308.259, 668 309.711, 668 310.523 C 668 311.335, 667.617 312, 667.149 312 C 666.682 312, 664.367 314.420, 662.007 317.379 C 653.226 328.383, 641.597 352.108, 633.393 375.756 C 632.008 379.747, 630.231 384.247, 629.444 385.756 C 628.656 387.265, 628.010 389.078, 628.006 389.785 C 628 391.044, 625.175 396.012, 623.903 397 C 623.549 397.275, 622.122 401.231, 620.731 405.792 C 618.361 413.567, 618.290 414.410, 619.590 419.292 C 620.352 422.156, 620.982 426.079, 620.988 428.009 C 620.996 430.408, 621.623 431.908, 622.969 432.748 C 624.051 433.424, 625.676 435.407, 626.580 437.154 C 628.512 440.891, 628.133 445.108, 624.044 465.348 C 623.394 468.564, 623.089 471.423, 623.366 471.700 C 624.099 472.432, 634.221 468.986, 636.079 467.372 C 636.947 466.617, 637.937 466, 638.279 466 C 638.620 466, 640.900 464.650, 643.345 463 C 645.790 461.350, 648.132 460, 648.551 460 C 650.613 460, 655.794 454.779, 656.315 452.176 C 656.768 449.910, 658.190 448.519, 662.593 446.035 C 667.666 443.171, 669.547 442.726, 679.892 441.939 C 686.277 441.454, 694.200 440.423, 697.500 439.648 C 700.800 438.874, 707.939 437.268, 713.364 436.079 C 726.740 433.149, 732.444 430.180, 734.114 425.277 C 735.881 420.091, 735.572 411.404, 733.428 406 C 730.611 398.901, 728.355 367.997, 729.778 356 C 730.332 351.325, 730.452 345.040, 730.045 342.034 C 729.474 337.825, 729.728 335.359, 731.152 331.309 C 732.168 328.417, 733 324.745, 733 323.151 C 733 317.567, 740.789 307, 744.904 307 C 746.433 307, 746.285 303.029, 744.750 302.872 C 744.063 302.802, 742.600 302.577, 741.500 302.373 C 740.400 302.168, 738.572 301.865, 737.439 301.700 C 736.305 301.534, 734.055 300.879, 732.439 300.243 C 729.833 299.219, 703.509 298.106, 697 298.746 M 1035 307.980 C 1032.184 308.427, 1031.813 308.727, 1033.104 309.518 C 1035.523 310.998, 1039.859 318.417, 1040.829 322.733 C 1041.301 324.833, 1042.899 329.254, 1044.381 332.556 L 1047.076 338.560 1043.976 347.030 C 1040.950 355.298, 1039.544 360.933, 1034.381 385.500 C 1032.352 395.159, 1031.907 399.841, 1032.101 409.500 C 1032.234 416.100, 1031.996 423.593, 1031.572 426.151 C 1030.708 431.375, 1030.040 430.818, 1040.391 433.514 C 1043.601 434.350, 1047.362 435.926, 1048.749 437.017 C 1050.135 438.108, 1052.447 439.002, 1053.885 439.005 C 1056.200 439.009, 1062.164 443.357, 1063.153 445.763 C 1063.344 446.226, 1066.355 448.328, 1069.845 450.433 C 1073.793 452.815, 1077.495 456.076, 1079.643 459.066 L 1083.096 463.872 1107.218 463.676 C 1125.318 463.530, 1131.442 463.173, 1131.751 462.246 C 1131.977 461.568, 1130.982 460.564, 1129.540 460.015 C 1128.098 459.467, 1126.148 457.613, 1125.209 455.895 C 1124.269 454.177, 1122.487 451.228, 1121.250 449.341 C 1117.633 443.827, 1118.241 441.132, 1124.678 434.155 C 1127.800 430.770, 1130.846 428, 1131.445 428 C 1132.045 428, 1134.150 426.903, 1136.123 425.562 C 1139.461 423.294, 1139.758 422.665, 1140.385 416.544 C 1140.756 412.925, 1141.572 408.838, 1142.199 407.463 C 1143.185 405.298, 1142.998 404.596, 1140.805 402.231 C 1139.411 400.729, 1137.734 397.250, 1137.078 394.500 C 1136.119 390.479, 1134.811 388.485, 1130.400 384.317 C 1126.563 380.691, 1123.727 376.703, 1120.958 371.036 C 1118.781 366.581, 1117 362.291, 1117 361.503 C 1117 359.008, 1113.839 350.607, 1111.839 347.785 C 1110.780 346.292, 1109.647 342.814, 1109.320 340.056 C 1108.830 335.919, 1109.022 334.929, 1110.419 334.393 C 1111.860 333.840, 1111.620 333.270, 1108.805 330.552 C 1106.987 328.797, 1103.766 325.492, 1101.647 323.208 C 1099.528 320.924, 1093.779 316.821, 1088.872 314.090 C 1080.143 309.233, 1079.717 309.111, 1069.225 308.473 C 1053.970 307.546, 1039.082 307.332, 1035 307.980 M 669.637 328.503 C 669.320 329.329, 666.966 331.334, 664.406 332.957 C 661.847 334.581, 659.199 336.717, 658.523 337.704 C 656.019 341.362, 651.748 349.565, 649.879 354.308 C 648.819 356.997, 646.837 360.658, 645.476 362.443 C 642.490 366.358, 642.303 369.557, 644.977 370.988 C 646.418 371.759, 647.502 371.703, 648.977 370.782 C 650.090 370.087, 651 369.230, 651 368.877 C 651 368.524, 652.800 366.435, 655 364.235 C 657.200 362.035, 659 359.880, 659 359.446 C 659 359.012, 659.639 357.947, 660.420 357.079 C 663.268 353.912, 668.935 342.855, 669.571 339.226 C 669.931 337.177, 670.849 334.503, 671.612 333.285 C 672.376 332.067, 673 330.155, 673 329.035 C 673 326.678, 670.490 326.281, 669.637 328.503" stroke="#e8b1e4" fill="#e8b1e4" fill-opacity="0.2" fill-rule="evenodd"/><path class="svg-region-MB" d="M 744.500 306.721 C 742.850 307.571, 740.711 308.952, 739.748 309.790 C 736.989 312.190, 733 319.981, 733 322.969 C 733 324.464, 732.170 328.120, 731.156 331.093 C 729.738 335.250, 729.472 337.887, 730.007 342.500 C 730.389 345.800, 730.278 351.875, 729.761 356 C 728.406 366.791, 730.630 398.882, 733.193 405.513 C 735.768 412.174, 736.165 417.081, 734.609 422.999 C 733.814 426.023, 733.414 428.723, 733.719 428.999 C 734.024 429.274, 734.475 428.938, 734.720 428.250 C 734.966 427.563, 735.772 427, 736.512 427 C 737.252 427, 738.491 426.366, 739.265 425.592 C 741.305 423.552, 747.673 422.009, 754 422.023 C 757.025 422.029, 765.575 421.363, 773 420.544 C 796.577 417.942, 807.820 417.098, 835.750 415.836 C 850.737 415.159, 863 414.271, 863 413.862 C 863 413.453, 862.550 412.840, 862 412.500 C 861.450 412.160, 861 411.234, 861 410.441 C 861 409.395, 862.262 409, 865.606 409 C 868.139 409, 872.875 408.310, 876.130 407.466 C 880.119 406.433, 885.524 406.025, 892.712 406.216 L 903.377 406.500 904.168 409.562 L 904.960 412.625 917.730 413.742 C 926.345 414.496, 933.103 415.720, 938.500 417.504 C 946.041 419.997, 950.015 421.021, 959.500 422.914 C 961.700 423.353, 965.975 424.724, 969 425.961 C 974.120 428.053, 975.434 428.161, 988 427.531 C 995.425 427.158, 1003.431 426.430, 1005.791 425.913 C 1008.544 425.310, 1010.740 425.326, 1011.920 425.957 C 1012.931 426.498, 1017.603 427.798, 1022.303 428.845 L 1030.847 430.749 1031.640 425.624 C 1032.077 422.806, 1032.299 415.325, 1032.134 409 C 1031.886 399.515, 1032.304 395.310, 1034.515 385 C 1035.990 378.125, 1037.941 368.900, 1038.851 364.500 C 1039.762 360.100, 1040.782 356.050, 1041.119 355.500 C 1041.456 354.950, 1042.926 350.870, 1044.387 346.434 L 1047.042 338.368 1044.021 331.706 C 1042.359 328.042, 1040.992 324.247, 1040.983 323.272 C 1040.959 320.723, 1035.800 310.890, 1033.845 309.666 C 1031.786 308.377, 1010.253 311.394, 1001.713 314.167 C 992.219 317.250, 983.867 318.671, 977.500 318.287 C 963.727 317.456, 955.472 320.443, 943.953 330.423 C 936.464 336.913, 921 352.118, 921 352.993 C 921 353.386, 919.987 354.856, 918.750 356.258 C 917.513 357.661, 915.746 359.802, 914.825 361.016 C 913.903 362.230, 909.536 367.141, 905.120 371.929 C 897.928 379.728, 896.557 380.759, 891.969 381.818 C 889.152 382.468, 884.898 383, 882.515 383 C 877.623 383, 877.463 382.864, 855.909 360.500 C 846.379 350.612, 843.666 347.092, 840.496 340.500 C 838.276 335.884, 834.996 330.947, 832.742 328.828 C 828.897 325.213, 828.841 325.057, 829.168 318.831 L 829.500 312.507 822.500 311.833 C 811.196 310.745, 792.593 307.756, 791.387 306.834 C 790.775 306.366, 780.650 305.801, 768.887 305.580 C 751.002 305.243, 747.009 305.430, 744.500 306.721" stroke="#f9c6c6" fill="#f9c6c6" fill-opacity="0.2" fill-rule="evenodd"/><path class="svg-region-Fl" d="M 774 170.179 C 764.478 172.165, 762.113 173.070, 761.514 174.955 C 760.683 177.575, 752.678 181.350, 749.855 180.454 C 746.525 179.397, 738.066 184.404, 734.777 189.380 C 733.279 191.646, 730.252 195.975, 728.051 199 C 725.851 202.025, 723.767 206.075, 723.422 208 C 723.076 209.925, 721.265 214.654, 719.397 218.509 C 716.386 224.722, 716.004 226.425, 716.035 233.509 C 716.079 243.601, 717.739 251.121, 722.434 262.500 C 725.720 270.464, 726.968 272.267, 733.272 278.160 C 739.684 284.154, 740.921 284.885, 745.648 285.475 C 749.294 285.931, 752.746 285.613, 756.938 284.437 C 762.780 282.798, 766.471 282.833, 776 284.620 C 777.925 284.981, 779.746 285.656, 780.047 286.119 C 780.348 286.583, 784.084 287.834, 788.349 288.900 C 792.614 289.965, 797.189 291.549, 798.516 292.419 C 800.998 294.045, 807 294.611, 807 293.219 C 807 292.790, 808.296 291.949, 809.880 291.351 C 811.673 290.675, 814.322 287.912, 816.898 284.035 C 820.941 277.947, 821.021 277.661, 820.394 271.538 C 819.963 267.334, 820.122 265.043, 820.876 264.577 C 821.494 264.195, 822.003 261.996, 822.006 259.691 C 822.010 257.386, 822.685 254.211, 823.506 252.636 C 824.328 251.060, 825 248.662, 825 247.306 C 825 245.950, 826.101 242.064, 827.446 238.671 C 828.986 234.783, 829.973 230.095, 830.111 226 C 830.233 222.425, 830.973 218.441, 831.756 217.147 C 833.401 214.430, 834.993 205.563, 835.642 195.500 C 835.890 191.650, 836.339 186.646, 836.639 184.380 C 837.805 175.587, 832.043 171.602, 818.884 172.100 C 814.659 172.260, 811.191 171.777, 808.628 170.671 C 805.603 169.366, 801.883 169.026, 791.628 169.120 C 784.408 169.186, 776.475 169.663, 774 170.179" stroke="#5ca7a9" fill="#5ca7a9" fill-opacity="0.2" fill-rule="evenodd"/><path class="svg-region-Fr" d="M 982.500 183.460 C 976.450 184.089, 970.695 184.972, 969.712 185.423 C 968.728 185.874, 966.193 185.967, 964.078 185.629 C 961.325 185.188, 959.888 185.430, 959.016 186.480 C 958.347 187.287, 956.318 188.225, 954.507 188.565 C 949.010 189.596, 944.969 194.736, 943.829 202.148 C 942.049 213.729, 941.798 219.984, 942.983 223.273 C 943.623 225.048, 944.518 231.948, 944.973 238.606 C 945.540 246.913, 946.355 251.776, 947.571 254.106 C 948.977 256.797, 949.311 259.673, 949.187 268 C 948.973 282.427, 950.319 287.234, 956.306 293.413 L 961.120 298.381 965.310 297.137 C 972.242 295.079, 987.648 291.468, 996 289.944 C 1006.613 288.008, 1005.674 288.340, 1020.338 281.334 C 1022.448 280.325, 1025.895 278.038, 1027.997 276.250 C 1030.098 274.462, 1032.086 273, 1032.414 273 C 1034.249 273, 1047.599 260.728, 1050.881 256.026 C 1059.438 243.765, 1061.366 238.004, 1059.911 229.049 C 1057.932 216.868, 1055.926 212.263, 1049.160 204.365 C 1043.581 197.852, 1041.667 196.396, 1033.402 192.375 C 1028.227 189.858, 1023.743 187.394, 1023.438 186.899 C 1023.132 186.405, 1021.553 186, 1019.928 186 C 1018.304 186, 1013.727 185.100, 1009.757 184 C 1001.868 181.814, 998.910 181.755, 982.500 183.460" stroke="#5ca7a9" fill="#5ca7a9" fill-opacity="0.2" fill-rule="evenodd"/><path class="svg-region-Ol" d="M 494.917 309.407 C 494.688 309.631, 488.875 309.949, 482 310.114 C 474.641 310.290, 466.416 311.136, 462 312.172 C 457.875 313.140, 452.842 313.947, 450.815 313.966 C 448.788 313.985, 445.863 314.484, 444.315 315.075 C 442.767 315.667, 439.118 316.593, 436.207 317.134 C 425.463 319.130, 403.148 327.318, 388.500 334.639 C 380.250 338.763, 372.600 342.938, 371.500 343.917 C 370.400 344.897, 364.775 348.775, 359 352.536 C 353.225 356.297, 346.475 361.448, 344 363.983 C 328.205 380.157, 320.171 390.098, 316.878 397.542 C 315.814 399.948, 314.563 402.152, 314.098 402.439 C 313.185 403.004, 309.521 410.484, 306.232 418.500 C 305.103 421.250, 303.866 425.750, 303.482 428.500 C 303.097 431.250, 302.146 434.514, 301.366 435.754 C 300.226 437.567, 300.040 441.766, 300.412 457.254 C 300.667 467.839, 301.318 478.075, 301.858 480 C 302.398 481.925, 303.981 488, 305.375 493.500 C 309.662 510.412, 320.470 540.876, 334.295 575.016 C 337.298 582.432, 340.097 589.625, 340.514 591 C 343.727 601.584, 364.317 645.809, 368.255 650.585 C 370.496 653.303, 376.282 665.986, 379.734 675.750 C 380.561 678.087, 381.634 680, 382.119 680 C 382.603 680, 383 680.745, 383 681.656 C 383 683.663, 385.915 687.546, 393.394 695.500 C 400.485 703.043, 409 715.204, 409 717.791 C 409 718.871, 409.675 720.315, 410.500 721 C 411.325 721.685, 412 723.063, 412 724.063 C 412 725.064, 412.450 726.160, 413 726.500 C 413.550 726.840, 414 727.936, 414 728.937 C 414 729.937, 414.675 731.315, 415.500 732 C 416.325 732.685, 417 734.090, 417 735.122 C 417 736.155, 417.450 737, 418 737 C 418.550 737, 419.004 737.788, 419.010 738.750 C 419.015 739.712, 421.981 743.587, 425.601 747.360 C 430.423 752.385, 432.993 756.129, 435.213 761.360 C 439.335 771.071, 442.609 775.907, 455.263 790.973 C 472.925 812, 488.573 828.004, 497.122 833.784 C 509.130 841.901, 513.708 844.427, 522.920 848.017 C 539.051 854.303, 549.400 855.195, 574.403 852.455 C 586.571 851.121, 589.458 850.447, 595.500 847.525 C 599.350 845.663, 605.875 842.732, 610 841.011 C 620.458 836.649, 621.780 835.990, 628 832.044 C 634.466 827.942, 642.898 821.162, 652.144 812.631 C 655.798 809.259, 659.848 805.585, 661.144 804.468 C 668.570 798.062, 690 773.618, 690 771.553 C 690 771.249, 690.788 770.159, 691.750 769.130 C 695.790 764.814, 698.729 761.303, 700.890 758.213 C 702.155 756.405, 705.171 752.915, 707.594 750.457 C 710.017 747.999, 712 745.146, 712 744.117 C 712 743.087, 712.742 741.629, 713.648 740.877 C 714.555 740.124, 717.835 735.650, 720.937 730.934 C 724.038 726.218, 727.122 722.541, 727.788 722.763 C 728.455 722.985, 729 722.440, 729 721.552 C 729 720.664, 731.025 716.919, 733.500 713.229 C 735.975 709.540, 738 705.761, 738 704.832 C 738 703.903, 738.568 702.548, 739.263 701.821 C 741.250 699.742, 744 695.181, 744 693.964 C 744 693.355, 744.675 692.182, 745.500 691.357 C 746.325 690.532, 747.010 688.877, 747.022 687.679 C 747.034 686.480, 747.924 684.375, 749 683 C 750.076 681.625, 750.966 679.739, 750.978 678.809 C 750.990 677.879, 751.487 676.817, 752.083 676.449 C 752.678 676.081, 754.023 673.917, 755.070 671.640 C 756.118 669.363, 757.404 666.825, 757.928 666 C 758.452 665.175, 759.123 663.375, 759.419 662 C 759.715 660.625, 761.747 657.155, 763.934 654.288 C 766.122 651.422, 768.862 646.697, 770.023 643.788 C 771.184 640.880, 772.738 637.375, 773.477 636 C 780.381 623.149, 781.150 620.686, 781.609 609.974 C 781.981 601.285, 781.706 598.339, 780.030 593.094 C 778.913 589.599, 778 586.198, 778 585.537 C 778 582.461, 769.212 568.554, 764.533 564.224 C 756.722 556.998, 753.502 554.343, 749.328 551.691 C 747.223 550.354, 744.643 548.301, 743.595 547.130 C 742.547 545.958, 741.299 545, 740.821 545 C 739.327 545, 727 536.871, 727 535.886 C 727 535.371, 725.987 534.512, 724.750 533.977 C 722.288 532.911, 713.535 527.017, 710.750 524.550 C 709.788 523.698, 708.311 523, 707.469 523 C 706.626 523, 705.715 522.420, 705.443 521.711 C 705.170 521.002, 704.147 520.361, 703.167 520.288 C 702.188 520.214, 698.712 519.167, 695.443 517.962 C 681.738 512.910, 673.868 511.845, 666.899 514.100 C 662.228 515.612, 654.607 519.075, 654 519.962 C 653.321 520.954, 640.267 530, 639.515 530 C 638.861 530, 637.874 530.777, 633.009 535.123 C 631.238 536.705, 629.386 538, 628.894 538 C 628.402 538, 628 538.645, 628 539.433 C 628 540.221, 627.029 541.174, 625.841 541.550 C 624.654 541.927, 621.261 544.208, 618.302 546.618 C 615.343 549.028, 612.375 551, 611.705 551 C 611.036 551, 609.896 549.663, 609.173 548.029 C 608.450 546.395, 606.315 543.515, 604.429 541.629 C 601.230 538.430, 601 537.766, 601 531.725 C 601 522.187, 600.139 519.003, 597.263 517.910 C 595.912 517.396, 594.599 516.194, 594.346 515.238 C 593.945 513.720, 592.398 513.486, 582.140 513.392 C 569.723 513.279, 564.348 512.111, 560.203 508.629 C 552.703 502.328, 551 500.712, 551 499.896 C 551 499.403, 550.212 498.168, 549.250 497.150 C 544.705 492.346, 542 487.766, 542 484.874 C 542 482.347, 537.549 474.819, 533.311 470.180 C 527.717 464.055, 521.354 451.874, 519.069 442.914 C 514.799 426.174, 516.378 420.224, 529.750 402.666 C 532.087 399.597, 534 396.616, 534 396.043 C 534 395.469, 534.792 394.208, 535.761 393.239 C 537.994 391.006, 539.795 385.057, 540.374 378 C 540.622 374.975, 541.358 369.575, 542.009 366 C 542.762 361.870, 542.930 356.400, 542.471 351 C 542.073 346.325, 541.673 341.150, 541.582 339.500 C 541.194 332.454, 530.759 321.509, 519 315.814 C 510.890 311.887, 496.340 308.016, 494.917 309.407" stroke="#aa444d" fill="#aa444d" fill-opacity="0.2" fill-rule="evenodd"/><path class="svg-region-Or" d="M 1298 300.031 C 1284.871 300.745, 1278.217 302.472, 1269.227 307.497 C 1266.764 308.874, 1264.319 310, 1263.796 310 C 1263.272 310, 1261.007 311.800, 1258.762 314 C 1256.518 316.200, 1254.064 318, 1253.309 318 C 1252.555 318, 1251.646 318.760, 1251.289 319.689 C 1250.933 320.618, 1248.697 323.240, 1246.321 325.517 C 1243.944 327.794, 1242 330.007, 1242 330.435 C 1242 330.862, 1240.716 332.852, 1239.146 334.856 C 1235.489 339.525, 1231.659 346.467, 1228.417 354.302 C 1227.007 357.711, 1224.805 362.544, 1223.525 365.043 C 1220.899 370.167, 1217.466 382.799, 1218.435 383.769 C 1218.785 384.118, 1220.625 384.299, 1222.524 384.171 C 1229.130 383.727, 1236.106 391.144, 1238.542 401.202 C 1239.380 404.666, 1240.952 410.322, 1242.033 413.771 C 1244.163 420.560, 1244.611 431.175, 1243.068 438.236 C 1239.929 452.589, 1238.585 456.907, 1236.185 460.340 C 1234.708 462.452, 1231.700 466.970, 1229.500 470.379 C 1227.300 473.788, 1223.702 479.035, 1221.504 482.039 C 1217.016 488.174, 1199.125 507, 1197.783 507 C 1197.304 507, 1195.699 508.125, 1194.217 509.500 C 1192.734 510.875, 1190.991 512, 1190.344 512 C 1189.696 512, 1189.017 512.358, 1188.833 512.795 C 1188.650 513.232, 1186.574 514.582, 1184.219 515.795 C 1180.841 517.535, 1178.229 518, 1171.829 518 C 1161.553 518, 1156.933 515.865, 1148.371 507.161 C 1141.141 499.811, 1139.545 499.702, 1135.658 506.296 C 1132.693 511.326, 1128.500 513.632, 1120.736 514.502 C 1115.527 515.085, 1114.733 515.500, 1112.486 518.806 C 1111.119 520.818, 1110 523.035, 1110 523.732 C 1110 525.299, 1102.331 525.456, 1098.421 523.970 C 1096.931 523.404, 1093.981 521.569, 1091.866 519.894 C 1088.579 517.291, 1086.909 516.763, 1080.395 516.271 C 1073.345 515.737, 1072.351 515.912, 1067.183 518.597 C 1064.110 520.194, 1061.124 521.839, 1060.548 522.252 C 1058.551 523.686, 1049.473 530.004, 1043.682 533.991 C 1040.483 536.194, 1036.667 538.296, 1035.203 538.664 C 1033.739 539.031, 1029.832 542.075, 1026.520 545.427 C 1019.974 552.054, 1010.309 559.779, 1005.414 562.295 C 1000.986 564.571, 988.365 577.364, 986.029 581.942 C 984.939 584.080, 983.579 588.004, 983.006 590.664 C 982.434 593.324, 981.585 596.400, 981.121 597.500 C 979.712 600.840, 978.212 606.203, 977.033 612.117 C 974.029 627.188, 981.527 642.163, 1014.189 686.330 C 1016.560 689.536, 1019.790 694.261, 1021.367 696.830 C 1022.944 699.398, 1025.596 703.052, 1027.261 704.949 C 1028.926 706.846, 1031.143 710.221, 1032.188 712.449 C 1035.446 719.397, 1048.029 737.884, 1063.760 758.835 C 1079.939 780.382, 1087.946 790.028, 1097.961 800.032 C 1106.566 808.629, 1115.938 816, 1118.263 816 C 1119.133 816, 1121.342 817.740, 1123.172 819.866 C 1131.705 829.778, 1157.951 841.650, 1180.190 845.657 C 1194.469 848.230, 1213.952 847.791, 1226.020 844.624 C 1246.100 839.355, 1262.801 829.871, 1280 813.971 C 1291.140 803.672, 1297.035 797.571, 1299.500 793.790 C 1300.050 792.947, 1302.525 789.451, 1305 786.023 C 1311.707 776.732, 1316.704 768.384, 1320.578 760 C 1322.483 755.875, 1324.512 751.672, 1325.085 750.661 C 1326.908 747.446, 1333.993 725.400, 1336.949 713.743 C 1342.077 693.521, 1349.212 670.500, 1354.225 658 C 1357.150 650.705, 1365.585 633.511, 1367.225 631.500 C 1368.591 629.826, 1376 617.965, 1376 617.454 C 1376 617.191, 1377.968 613.944, 1380.374 610.238 C 1390.457 594.704, 1411.204 560.557, 1413.327 556 C 1413.712 555.175, 1415.366 552.250, 1417.004 549.500 C 1419.714 544.951, 1424.356 535.736, 1432.117 519.500 C 1436.405 510.529, 1443.885 482.988, 1445.153 471.500 C 1446.746 457.068, 1445.748 435.091, 1443.151 427.418 C 1442.019 424.073, 1440.598 418.241, 1439.993 414.457 C 1439.389 410.673, 1438.470 407.066, 1437.951 406.441 C 1437.433 405.817, 1435.938 401.932, 1434.629 397.808 C 1433.320 393.684, 1431.569 389.228, 1430.736 387.905 C 1429.904 386.582, 1428.652 383.700, 1427.955 381.500 C 1427.258 379.300, 1425.660 375.925, 1424.405 374 C 1423.149 372.075, 1421.817 369.250, 1421.445 367.722 C 1421.073 366.194, 1417.164 361.019, 1412.757 356.222 C 1408.350 351.425, 1401.540 343.262, 1397.623 338.083 C 1388.895 326.543, 1377.269 317.817, 1368.097 315.922 C 1365.018 315.285, 1361.375 313.989, 1360 313.040 C 1355.101 309.659, 1335.745 303.761, 1322.500 301.614 C 1317.550 300.811, 1312.825 299.974, 1312 299.753 C 1311.175 299.532, 1304.875 299.658, 1298 300.031" stroke="#aa444d" fill="#aa444d" fill-opacity="0.2" fill-rule="evenodd"/><path class="svg-region-Pl" d="M 546.580 411.871 C 546.284 412.350, 543.895 412.949, 541.271 413.202 C 534.656 413.841, 530.462 416.074, 523.610 422.606 L 517.721 428.221 518.345 435.861 C 519.416 448.974, 520.649 451.850, 531.739 467.121 C 535.183 471.862, 538 476.194, 538 476.748 C 538 477.302, 538.646 478.291, 539.436 478.947 C 540.225 479.602, 541.159 481.570, 541.510 483.319 C 542.468 488.090, 544.547 492.123, 547.947 495.812 C 549.626 497.633, 551 499.509, 551 499.980 C 551 501.616, 562.098 510.506, 565.788 511.825 C 567.959 512.602, 574.528 513.225, 581.614 513.326 C 592.675 513.485, 593.804 513.674, 594.614 515.500 C 595.101 516.600, 596.436 517.634, 597.580 517.797 C 599.183 518.026, 600.633 516.591, 603.895 511.547 C 606.223 507.946, 608.550 505, 609.064 505 C 609.579 505, 610 504.363, 610 503.583 C 610 502.804, 610.383 502.017, 610.851 501.833 C 612.480 501.195, 617 493.024, 616.971 490.770 C 616.943 488.605, 615.788 487.481, 600.266 474.509 C 598.298 472.864, 595.460 468.923, 593.960 465.752 C 592.461 462.581, 590.676 459.314, 589.994 458.493 C 588.540 456.740, 583.584 456.552, 579.195 458.082 C 576.587 458.991, 575.771 458.865, 574.083 457.292 C 570.698 454.139, 569 448.575, 569 440.641 C 569 432.854, 567.803 429.126, 562.855 421.500 C 559.562 416.426, 557.459 414.595, 552.628 412.600 C 548.188 410.765, 547.327 410.662, 546.580 411.871" stroke="#f9d3d3" fill="#f9d3d3" fill-opacity="0.2" fill-rule="evenodd"/><path class="svg-region-Pr" d="M 1217.500 418.491 C 1216.950 418.675, 1215.238 419.104, 1213.696 419.445 C 1212.154 419.786, 1208.525 422.413, 1205.630 425.283 C 1202.736 428.152, 1199.129 431.507, 1197.613 432.738 C 1195.680 434.308, 1195.039 435.548, 1195.467 436.895 C 1195.973 438.489, 1195.247 439.089, 1191.182 440.440 C 1188.490 441.334, 1185.223 443.198, 1183.923 444.582 C 1182.623 445.966, 1179.203 448.662, 1176.324 450.573 C 1173.444 452.485, 1170.817 454.488, 1170.485 455.024 C 1170.153 455.561, 1167.187 456, 1163.893 456 C 1158.138 456, 1156.086 456.670, 1147.500 461.352 C 1145.638 462.367, 1142.138 462.990, 1138.270 462.994 L 1132.041 463 1130.020 466.960 C 1128.909 469.138, 1128 472.668, 1128 474.805 C 1128 483.175, 1134.957 498.159, 1139.825 500.272 C 1141.296 500.911, 1145.218 504.175, 1148.539 507.526 C 1156.852 515.911, 1161.491 518, 1171.801 518 C 1178.977 518, 1180.681 517.627, 1185.813 514.938 C 1189.026 513.253, 1192.838 510.778, 1194.284 509.438 C 1195.730 508.097, 1197.304 507, 1197.783 507 C 1199.100 507, 1216.940 488.231, 1221.557 481.986 C 1223.789 478.969, 1227.313 473.800, 1229.389 470.500 C 1231.465 467.200, 1234.589 462.475, 1236.332 460 C 1240.489 454.095, 1242.728 444.374, 1241.147 439.095 C 1239.661 434.136, 1231.018 422.792, 1226.685 420.114 C 1223.585 418.199, 1220.181 417.597, 1217.500 418.491" stroke="#f9d3d3" fill="#f9d3d3" fill-opacity="0.2" fill-rule="evenodd"/><path class="svg-region-DLl" d="M 580.944 431.061 C 578.371 433.844, 574.744 436.882, 572.883 437.811 C 569.851 439.325, 569.469 439.986, 569.198 444.187 C 568.992 447.374, 569.529 450.117, 570.875 452.754 C 573.780 458.450, 575.305 459.438, 579.128 458.105 C 583.795 456.478, 588.471 456.750, 590.222 458.750 C 591.065 459.712, 592.372 462.295, 593.127 464.488 C 595.100 470.219, 614.444 488.534, 617.348 487.420 C 619.624 486.546, 622.997 479.009, 623.060 474.655 C 623.092 472.370, 623.540 468.250, 624.055 465.500 C 624.570 462.750, 625.449 458.025, 626.008 455 C 626.567 451.975, 627.295 448.040, 627.625 446.257 C 628.445 441.826, 627.351 436.711, 625.007 434.009 C 623.110 431.821, 622.948 431.804, 619.008 433.380 C 611.296 436.466, 606.460 435.306, 599.966 428.813 C 597.533 426.379, 596.376 426, 591.387 426 C 585.741 426, 585.523 426.106, 580.944 431.061" stroke="#b7d6d3" fill="#b7d6d3" fill-opacity="0.2" fill-rule="evenodd"/><path class="svg-region-DLr" d="M 1138.500 423.814 C 1137.950 424.330, 1135.322 425.947, 1132.660 427.407 C 1129.998 428.867, 1126.623 431.498, 1125.160 433.254 C 1123.697 435.010, 1121.713 437.246, 1120.750 438.223 C 1118.350 440.660, 1118.556 445.234, 1121.250 449.341 C 1122.487 451.228, 1124.250 454.145, 1125.168 455.824 C 1128.928 462.705, 1142.018 465.361, 1149.018 460.663 C 1153.927 457.368, 1158.476 456, 1164.527 456 C 1167.954 456, 1170.184 455.483, 1171 454.500 C 1172.020 453.271, 1171.951 453, 1170.622 453 C 1169.730 453, 1168.049 452.049, 1166.887 450.887 C 1165.285 449.285, 1163.977 448.904, 1161.473 449.311 C 1159.627 449.610, 1157.522 449.329, 1156.696 448.673 C 1154.304 446.771, 1152.802 440.505, 1153.547 435.534 C 1154.120 431.714, 1153.968 431, 1152.578 431 C 1151.672 431, 1149.839 430.285, 1148.505 429.412 C 1146.897 428.357, 1145.082 428.043, 1143.109 428.476 C 1140.348 429.083, 1140.114 428.907, 1139.818 426.002 C 1139.611 423.966, 1139.151 423.203, 1138.500 423.814" stroke="#b7d6d3" fill="#b7d6d3" fill-opacity="0.2" fill-rule="evenodd"/><path class="svg-region-OLl" d="M 585.064 384.938 C 582.810 387.104, 579.961 389.181, 578.733 389.554 C 577.505 389.927, 575.067 391.642, 573.315 393.366 C 571.564 395.090, 568.526 398.001, 566.565 399.835 C 562.848 403.311, 562.093 406.436, 564.074 410.138 C 564.854 411.595, 564.804 413.487, 563.892 417.043 C 562.801 421.300, 562.847 422.174, 564.241 423.721 C 565.123 424.699, 566.154 426.742, 566.533 428.259 C 566.912 429.777, 567.622 431.266, 568.111 431.568 C 568.600 431.871, 569 433.943, 569 436.174 L 569 440.230 571.465 438.615 C 572.820 437.727, 574.508 436.982, 575.215 436.960 C 575.922 436.938, 578.271 434.675, 580.436 431.932 C 582.601 429.189, 585.440 426.677, 586.746 426.349 C 591.255 425.217, 598.307 426.657, 600.474 429.152 C 605.324 434.737, 611.003 436.289, 617.851 433.902 C 620.777 432.882, 620.999 432.475, 620.989 428.152 C 620.983 425.593, 620.305 421.279, 619.481 418.565 C 618.397 414.991, 618.163 411.485, 618.632 405.856 C 619.237 398.608, 619.086 397.698, 616.390 392.363 C 612.133 383.938, 607.091 381, 596.886 381 C 589.257 381, 589.113 381.048, 585.064 384.938" stroke="#c4875d" fill="#c4875d" fill-opacity="0.2" fill-rule="evenodd"/><path class="svg-region-OLr" d="M 1164.028 389.549 C 1162.119 390.897, 1159.419 392.016, 1158.028 392.035 C 1154.201 392.089, 1151.540 393.995, 1147.604 399.500 C 1141.434 408.129, 1140.856 409.719, 1140.259 419.732 L 1139.693 429.226 1142.887 428.525 C 1145.101 428.039, 1146.825 428.311, 1148.505 429.412 C 1149.839 430.285, 1151.660 431, 1152.553 431 C 1153.898 431, 1154.058 431.699, 1153.484 435.094 C 1152.753 439.419, 1154.530 447.951, 1156.426 449.218 C 1157.017 449.613, 1159.081 449.685, 1161.014 449.378 C 1163.764 448.941, 1164.938 449.274, 1166.419 450.910 C 1169.712 454.550, 1174.700 453.036, 1182.364 446.072 C 1184.639 444.006, 1188.833 441.490, 1191.685 440.483 L 1196.871 438.651 1194.935 436.191 C 1192.638 433.270, 1192.495 431.166, 1194.410 428.432 C 1195.478 426.907, 1195.607 425.281, 1194.943 421.723 C 1194.040 416.888, 1191.724 411.566, 1190.084 410.552 C 1189.572 410.235, 1188.425 407.785, 1187.535 405.106 C 1185.580 399.220, 1183.846 397.545, 1178.135 396.024 C 1173.497 394.788, 1169 391.107, 1169 388.545 C 1169 386.475, 1168.136 386.649, 1164.028 389.549" stroke="#c4875d" fill="#c4875d" fill-opacity="0.2" fill-rule="evenodd"/><path class="svg-region-VOC" d="M 875.500 407.528 C 873.300 408.253, 869.138 408.881, 866.250 408.923 C 862.381 408.980, 861 409.379, 861 410.441 C 861 411.234, 861.450 412.160, 862 412.500 C 862.550 412.840, 863 413.448, 863 413.852 C 863 414.256, 850.737 415.138, 835.750 415.813 C 808.029 417.061, 797.062 417.888, 773 420.544 C 765.575 421.363, 756.755 422.026, 753.399 422.017 C 747.669 422.001, 741.124 423.467, 740 425.018 C 738.897 426.540, 720.571 435, 718.377 435 C 717.083 435, 711.857 436.068, 706.763 437.374 C 701.668 438.679, 695.736 440.064, 693.579 440.451 C 691.347 440.852, 688.534 442.306, 687.049 443.827 C 685.614 445.297, 683.328 447.481, 681.970 448.681 C 678.690 451.576, 677 453.696, 677 454.912 C 677 456.695, 684.214 457.361, 688.961 456.017 C 691.458 455.310, 695.300 454.257, 697.500 453.677 C 699.700 453.097, 707.350 449.713, 714.500 446.157 L 727.500 439.691 741 439.712 C 748.425 439.724, 758.253 440.068, 762.840 440.477 C 768.547 440.985, 771.531 440.869, 772.290 440.110 C 772.901 439.499, 774.660 439, 776.200 439 C 777.740 439, 779 438.601, 779 438.113 C 779 437.179, 781.875 436.461, 791.150 435.082 C 794.258 434.620, 797.233 433.974, 797.762 433.647 C 798.291 433.320, 802.498 432.593, 807.112 432.030 C 811.725 431.468, 818.906 430.553, 823.069 429.998 C 832.862 428.692, 861.426 430.238, 869 432.484 C 883.068 436.656, 888.683 437.466, 894.790 436.204 C 897.997 435.542, 901.804 435, 903.251 435 C 904.698 435, 906.160 434.550, 906.500 434 C 907.471 432.429, 936.349 432.765, 944.500 434.443 C 954.554 436.512, 967.861 440.145, 972.500 442.087 C 975.628 443.396, 985.882 445, 991.125 445 C 993.741 445, 996.129 445.399, 996.430 445.887 C 996.731 446.374, 998.655 447.088, 1000.705 447.473 C 1002.755 447.857, 1005.642 449.033, 1007.121 450.086 C 1008.866 451.329, 1011.483 452, 1014.583 452 C 1017.209 452, 1020.740 452.431, 1022.429 452.959 C 1026.940 454.367, 1038.709 457.037, 1044.864 458.050 C 1047.815 458.535, 1052.090 459.816, 1054.364 460.897 C 1059.769 463.464, 1060.917 463.585, 1064.500 461.961 C 1066.264 461.161, 1070.306 460.677, 1074.309 460.787 L 1081.118 460.974 1078.904 457.865 C 1076.859 454.993, 1065.781 447, 1063.845 447 C 1063.380 447, 1063 446.438, 1063 445.750 C 1063 443.799, 1056.379 439, 1053.688 439 C 1052.358 439, 1050.151 438.120, 1048.784 437.045 C 1046.268 435.066, 1037.375 432.332, 1022.129 428.852 C 1017.525 427.801, 1012.951 426.509, 1011.963 425.980 C 1010.845 425.382, 1008.347 425.362, 1005.334 425.928 C 1002.675 426.427, 994.875 427.133, 988 427.497 C 976.645 428.098, 974.950 427.957, 969.500 425.961 C 966.200 424.753, 961.700 423.393, 959.500 422.940 C 949.091 420.795, 945.890 419.956, 938.862 417.529 C 933.808 415.784, 927.065 414.518, 918.510 413.709 C 905.444 412.473, 905.009 412.299, 903.604 407.750 C 903.126 406.205, 901.684 406.012, 891.281 406.105 C 884.515 406.165, 877.797 406.771, 875.500 407.528" stroke="#ff8f93" fill="#ff8f93" fill-opacity="0.2" fill-rule="evenodd"/><path class="svg-region-OABl" d="M 693.514 488.158 C 688.887 491.268, 686.897 492, 683.064 492 C 678.824 492, 677.869 492.453, 673.915 496.339 C 668.958 501.212, 666.065 503, 663.139 503 C 661.036 503, 659.284 505.776, 655.990 514.332 C 654.290 518.748, 654.275 519.105, 655.815 518.480 C 668.822 513.201, 670.546 512.790, 677.500 513.308 C 681.350 513.595, 686.525 514.476, 689 515.265 C 693.240 516.618, 710.868 522.052, 717.547 524.064 C 719.223 524.569, 722.720 525.274, 725.319 525.630 C 729.297 526.175, 729.952 526.038, 729.461 524.758 C 728.711 522.805, 734.074 519.429, 739.500 518.437 C 742.055 517.970, 744.586 516.561, 746.507 514.540 C 749.508 511.379, 755.165 509.504, 765.500 508.245 C 767.700 507.977, 770.850 506.817, 772.500 505.666 C 775.182 503.797, 785 494.256, 785 493.519 C 785 493.358, 781.962 492.964, 778.250 492.645 C 774.538 492.325, 768.800 491.613, 765.500 491.062 C 762.200 490.511, 752.975 489.635, 745 489.114 C 737.025 488.594, 726.900 487.491, 722.500 486.663 C 718.100 485.836, 711.064 484.969, 706.865 484.737 C 699.374 484.323, 699.123 484.388, 693.514 488.158" stroke="#81244d" fill="#81244d" fill-opacity="0.2" fill-rule="evenodd"/><path class="svg-region-OABr" d="M 1033.500 492.434 C 1020.563 496.326, 1013.562 500.695, 1008.455 508.065 C 1005.415 512.452, 1005.799 515.991, 1009.317 516.015 C 1012.392 516.037, 1013.744 517.125, 1014.149 519.903 C 1014.407 521.667, 1016.069 523.132, 1020.404 525.415 C 1025.329 528.009, 1026.537 529.185, 1027.697 532.512 C 1028.461 534.705, 1028.884 537.288, 1028.637 538.250 C 1028.069 540.461, 1027.695 540.532, 1035.160 537.001 C 1038.647 535.351, 1042.236 534.001, 1043.135 534.001 C 1044.034 534, 1047.184 532.050, 1050.135 529.666 C 1053.086 527.282, 1059.192 523.232, 1063.703 520.666 C 1070.630 516.726, 1072.731 516.001, 1077.203 516.006 C 1084.099 516.013, 1088.898 517.405, 1092.011 520.301 C 1095.198 523.267, 1100.158 525.003, 1105.399 524.989 C 1109.206 524.978, 1109.640 524.685, 1111.452 520.904 C 1112.526 518.663, 1114.326 516.163, 1115.452 515.348 C 1117.449 513.902, 1117.378 513.756, 1112.561 509.462 C 1109.845 507.041, 1105.795 504.400, 1103.561 503.594 C 1095.452 500.668, 1079.730 494.021, 1078.497 492.998 C 1077.583 492.239, 1077.072 492.371, 1076.648 493.474 C 1075.885 495.463, 1073.555 495.410, 1070.382 493.331 C 1068.329 491.986, 1064.889 491.620, 1052.667 491.446 C 1043.107 491.310, 1036.021 491.675, 1033.500 492.434" stroke="#81244d" fill="#81244d" fill-opacity="0.2" fill-rule="evenodd"/><path class="svg-region-SOTl" d="M 796 434 C 795.175 434.533, 792.752 434.976, 790.616 434.985 C 786.283 435.002, 779 436.920, 779 438.045 C 779 439.394, 772.556 440.270, 764 440.085 C 759.325 439.984, 749.200 439.845, 741.500 439.776 L 727.500 439.651 715.737 445.442 C 709.267 448.627, 703.728 451.631, 703.428 452.117 C 703.128 452.602, 701.854 453, 700.598 453 C 699.341 453, 695.697 453.900, 692.500 455 C 689.303 456.100, 685.267 457, 683.531 457 C 680.294 457, 676.462 460.130, 674.122 464.684 C 673.505 465.886, 673 471.318, 673 476.757 L 673 486.645 677.090 489.322 C 679.339 490.795, 682.507 492, 684.130 492 C 687.400 492, 693.920 489.007, 695.933 486.580 C 696.648 485.719, 698.960 484.549, 701.071 483.981 C 703.182 483.412, 706.180 481.878, 707.733 480.571 C 710.768 478.017, 720.910 472.680, 725 471.484 C 729.561 470.151, 739.633 465.148, 740.949 463.562 C 741.662 462.703, 742.661 462, 743.170 462 C 743.680 462, 746.558 460.425, 749.567 458.500 C 752.577 456.575, 756.043 454.987, 757.269 454.971 C 758.496 454.955, 762.650 454.020, 766.500 452.893 C 770.350 451.766, 774.733 450.604, 776.241 450.310 C 778.548 449.860, 778.887 449.397, 778.382 447.388 C 777.820 445.146, 778.049 444.999, 782.142 444.985 C 786.082 444.972, 787.112 444.397, 792.879 438.985 C 798.636 433.584, 799.989 431.422, 796 434" stroke="#995b45" fill="#995b45" fill-opacity="0.2" fill-rule="evenodd"/><path class="svg-region-SOTr" d="M 956.500 438.153 C 957.600 438.754, 961.875 442.497, 966 446.470 C 975.955 456.059, 980.572 458.548, 989.960 459.386 C 996.843 460.001, 997.632 460.311, 1000.173 463.394 C 1001.839 465.415, 1004.226 466.993, 1006.214 467.388 C 1008.021 467.747, 1013.884 470.957, 1019.242 474.520 C 1024.600 478.084, 1029.241 481, 1029.556 481 C 1029.871 481, 1032.603 482.132, 1035.629 483.516 C 1042.254 486.546, 1058.550 491, 1063.014 491 C 1064.782 491, 1067.940 491.962, 1070.032 493.138 C 1074.021 495.380, 1077 495.122, 1077 492.534 C 1077 491.693, 1075.425 488.812, 1073.500 486.133 C 1071.575 483.453, 1070 480.383, 1070 479.309 C 1070 476.771, 1067.072 468.114, 1065.267 465.317 C 1064.492 464.117, 1063.103 463.187, 1062.179 463.250 C 1061.256 463.313, 1057.498 462.157, 1053.829 460.682 C 1050.161 459.207, 1046.211 458, 1045.053 458 C 1043.172 458, 1032.829 455.655, 1022.884 452.975 C 1020.895 452.439, 1017.141 452, 1014.542 452 C 1011.398 452, 1008.999 451.358, 1007.378 450.083 C 1006.038 449.029, 1003.154 447.864, 1000.971 447.495 C 998.787 447.126, 997 446.414, 997 445.912 C 997 445.410, 994.608 445, 991.684 445 C 985.970 445, 975.757 443.450, 972.500 442.088 C 969.335 440.765, 956.604 436.966, 955.500 437.016 C 954.950 437.041, 955.400 437.552, 956.500 438.153" stroke="#995b45" fill="#995b45" fill-opacity="0.2" fill-rule="evenodd"/><path class="svg-region-LBPCl" d="M 668.967 329.156 C 668.124 330.301, 665.651 332.236, 663.471 333.457 C 659.162 335.868, 653.652 344.200, 649.988 353.845 C 648.871 356.785, 646.842 360.652, 645.479 362.439 C 642.490 366.358, 642.302 369.556, 644.977 370.988 C 646.418 371.759, 647.502 371.703, 648.977 370.782 C 650.090 370.087, 651 369.230, 651 368.877 C 651 368.524, 652.800 366.435, 655 364.235 C 657.200 362.035, 659 359.927, 659 359.551 C 659 359.175, 660.084 357.434, 661.410 355.683 C 665.007 350.932, 668.863 343.249, 669.586 339.391 C 669.939 337.514, 671.061 334.342, 672.081 332.341 C 673.101 330.341, 673.698 328.321, 673.409 327.852 C 672.515 326.406, 670.573 326.976, 668.967 329.156" stroke="#daffff" fill="#daffff" fill-opacity="0.2" fill-rule="evenodd"/><path class="svg-region-LBPCr" d="M 1109.667 334.667 C 1108.010 336.324, 1109.244 342.846, 1112.367 348.935 C 1114.219 352.546, 1116.044 357.215, 1116.423 359.311 C 1117.787 366.843, 1124.727 379.452, 1130.530 384.940 C 1134.784 388.963, 1136.253 391.156, 1137.141 394.806 C 1138.334 399.715, 1140.481 403, 1142.497 403 C 1143.181 403, 1144.336 399.692, 1145.220 395.204 C 1146.065 390.916, 1147.659 385.539, 1148.763 383.255 C 1150.966 378.694, 1150.783 378, 1147.373 378 C 1145.536 378, 1144.835 377.156, 1143.847 373.750 C 1142.407 368.787, 1140.740 365.855, 1136.546 360.907 C 1134.871 358.931, 1132.786 356.456, 1131.912 355.407 C 1131.039 354.358, 1129.239 352.578, 1127.912 351.452 C 1126.586 350.325, 1123.250 346.752, 1120.500 343.511 C 1112.208 333.740, 1111.319 333.014, 1109.667 334.667" stroke="#daffff" fill="#daffff" fill-opacity="0.2" fill-rule="evenodd"/><path class="svg-region-OVl" d="M 678.500 442.085 C 665.492 442.909, 659.056 445.929, 655.711 452.777 C 653.989 456.301, 652.282 457.965, 648 460.289 C 644.975 461.932, 640.700 464.461, 638.500 465.910 C 636.300 467.359, 631.913 469.415, 628.750 470.479 C 623.352 472.296, 623 472.610, 623 475.613 C 623 478.868, 619.297 487, 617.814 487 C 617.367 487, 617 488.366, 617 490.035 C 617 492.595, 614.978 497.146, 613.017 499 C 612.029 499.935, 604.472 510.483, 601.913 514.500 C 600.046 517.430, 599.556 519.169, 600.083 521 C 600.477 522.375, 600.845 526.808, 600.900 530.850 C 600.995 537.830, 601.173 538.373, 604.429 541.629 C 606.315 543.515, 608.450 546.395, 609.173 548.029 C 609.896 549.663, 611.036 551, 611.705 551 C 612.375 551, 615.343 549.028, 618.302 546.618 C 621.261 544.208, 624.654 541.927, 625.841 541.550 C 627.029 541.174, 628 540.221, 628 539.433 C 628 538.645, 628.430 538, 628.955 538 C 629.480 538, 630.959 536.987, 632.241 535.750 C 635.085 533.006, 646.818 525, 647.995 525 C 649.360 525, 655.998 516.790, 656.023 515.070 C 656.036 514.207, 657.274 511.307, 658.773 508.627 C 660.845 504.924, 662.382 503.458, 665.172 502.521 C 668.514 501.400, 678.982 492.505, 678.995 490.776 C 678.998 490.377, 677.650 489.353, 676 488.500 L 673 486.949 673 477.442 C 673 467.317, 674.220 462.840, 677.862 459.595 C 680.365 457.364, 680.608 456, 678.500 456 C 675.720 456, 676.969 453.810, 683.141 447.864 C 686.518 444.610, 689.106 441.836, 688.891 441.700 C 688.676 441.563, 684 441.736, 678.500 442.085" stroke="#593939" fill="#593939" fill-opacity="0.2" fill-rule="evenodd"/><path class="svg-region-OVr" d="M 1067.037 461.089 C 1063.641 462.474, 1063.674 462.309, 1065.906 466.630 C 1067.005 468.758, 1068.436 472.750, 1069.086 475.500 C 1070.602 481.916, 1071.956 484.898, 1074.761 488 C 1076.005 489.375, 1077.241 491.187, 1077.508 492.027 C 1077.775 492.867, 1081.707 494.990, 1086.247 496.745 C 1105.900 504.345, 1108.385 505.577, 1113.224 510.119 C 1117.916 514.523, 1118.360 514.714, 1122.774 514.216 C 1128.943 513.521, 1133.663 510.581, 1136.016 505.968 C 1137.078 503.887, 1138.478 502.007, 1139.127 501.791 C 1139.854 501.549, 1139.322 500.413, 1137.742 498.833 C 1132.852 493.943, 1128.032 481.993, 1128.011 474.710 C 1128.005 472.626, 1128.858 469.239, 1129.906 467.184 L 1131.812 463.448 1107.666 463.662 C 1088.866 463.829, 1083.186 463.584, 1082.010 462.558 C 1079.995 460.798, 1070.125 459.830, 1067.037 461.089" stroke="#593939" fill="#593939" fill-opacity="0.2" fill-rule="evenodd"/>
    </svg>