<svg xmlns="http://www.w3.org/2000/svg" width="1785" height="1131" viewBox="0 0 1785 1131" version="1.1">
    <path class="svg-region-AAB" d="M 795.008 491.789 C 787.805 495.301, 787.026 495.457, 774.796 495.838 C 762.529 496.220, 761.916 496.141, 757.610 493.617 C 754.581 491.842, 751.694 491, 748.638 491 C 744.472 491, 744.109 491.206, 743.816 493.738 C 743.554 496.013, 742.902 496.573, 739.966 497.046 C 735.170 497.818, 734 498.696, 734 501.524 C 734 502.906, 733.149 504.385, 732 505 C 729.510 506.332, 729.306 511.565, 731.616 514.862 C 732.762 516.499, 732.921 517.479, 732.163 518.237 C 731.471 518.929, 731.423 519.922, 732.028 521.053 C 732.726 522.357, 732.524 522.972, 731.232 523.480 C 729.891 524.006, 730.740 524.816, 735 527.070 C 738.025 528.672, 742.075 530.674, 744 531.520 C 751.524 534.828, 763.698 540.651, 769.457 543.696 C 772.780 545.454, 780.112 549.172, 785.750 551.959 C 791.388 554.746, 796 557.401, 796 557.858 C 796 559.665, 804.756 567.363, 809 569.288 C 816.708 572.784, 829.450 574.118, 844.382 572.994 C 851.597 572.451, 859.281 571.581, 861.459 571.062 C 863.636 570.542, 871.061 570.055, 877.959 569.979 C 889.150 569.857, 891.792 570.186, 902.500 573.038 C 909.100 574.796, 917.425 576.665, 921 577.191 C 930.061 578.526, 948.727 579.051, 951.333 578.045 C 952.525 577.585, 955.525 576.631, 958 575.925 C 966.047 573.630, 970.288 570.879, 978.125 562.873 C 982.362 558.543, 986.473 555, 987.260 555 C 988.046 555, 989.505 554.100, 990.500 553 C 991.495 551.900, 992.878 551, 993.572 551 C 994.266 551, 994.983 550.646, 995.167 550.214 C 995.350 549.781, 1000.519 546.887, 1006.654 543.782 C 1012.788 540.678, 1018.638 537.683, 1019.654 537.127 C 1020.669 536.571, 1024.650 534.642, 1028.500 532.840 C 1032.350 531.038, 1035.725 529.284, 1036 528.943 C 1036.275 528.601, 1038.412 527.488, 1040.750 526.469 C 1045.470 524.410, 1046.556 522.609, 1042.250 523.979 C 1040.737 524.461, 1036.012 525.045, 1031.748 525.277 C 1025.785 525.602, 1023.717 525.363, 1022.786 524.242 C 1021.812 523.069, 1021.955 522.506, 1023.516 521.365 C 1025.796 519.697, 1024.774 517.245, 1021 515.332 C 1019.732 514.689, 1017.018 512.214, 1014.968 509.832 L 1011.239 505.500 993.161 504.991 C 980.703 504.640, 974.696 504.096, 973.841 503.241 C 973.158 502.558, 971.875 502, 970.988 502 C 970.101 502, 967.379 500.988, 964.938 499.750 C 960.681 497.592, 959.499 497.503, 936 497.571 C 922.525 497.610, 908.575 497.830, 905 498.060 C 901.114 498.310, 895.769 497.844, 891.709 496.901 C 886.201 495.622, 882.801 495.495, 873.709 496.230 C 867.544 496.728, 860.250 496.851, 857.500 496.502 C 854.750 496.153, 847.775 495.488, 842 495.023 C 836.225 494.559, 829.250 493.673, 826.500 493.055 C 823.750 492.436, 819.025 491.665, 816 491.343 C 812.975 491.020, 810.050 490.412, 809.500 489.993 C 806.506 487.711, 802.305 488.232, 795.008 491.789" stroke="#7f3c1a" fill="#7f3c1a" fill-opacity="0.2" fill-rule="evenodd"/><path class="svg-region-APB" d="M 859.500 446.150 C 856.804 447.075, 853.412 448.446, 847.500 450.999 C 846.400 451.474, 843.256 452.162, 840.513 452.528 C 837.770 452.894, 834.395 453.763, 833.013 454.459 C 831.631 455.156, 825.100 456.019, 818.500 456.377 C 811.900 456.736, 803.575 457.501, 800.001 458.077 C 792.358 459.308, 771.034 457.739, 764.215 455.443 C 754.438 452.151, 741.714 455.381, 733.976 463.119 C 728.782 468.313, 724.353 469.845, 719.674 468.066 C 716.342 466.799, 713.002 468.159, 712.996 470.785 C 712.994 471.728, 712.070 474.013, 710.942 475.863 C 709.815 477.712, 709.111 479.444, 709.379 479.712 C 710.476 480.809, 718.028 478.693, 721.097 476.429 C 724.075 474.231, 725.360 474, 734.576 474 L 744.763 474 747.381 477.433 C 748.822 479.322, 750 481.279, 750 481.783 C 750 482.287, 753.145 485.692, 756.988 489.349 L 763.976 496 773.278 496 C 783.803 496, 791.369 494.341, 798.142 490.549 C 802.573 488.068, 802.981 488.015, 807.142 489.371 C 809.539 490.152, 813.525 491.062, 816 491.393 C 818.475 491.725, 822.975 492.478, 826 493.067 C 838.366 495.477, 861.222 496.817, 878 496.116 C 883.556 495.884, 889.397 496.370, 894.864 497.519 C 902.060 499.032, 904.154 499.107, 909.864 498.055 C 914.227 497.251, 924.035 496.946, 938.500 497.166 C 958.969 497.477, 960.809 497.657, 964.938 499.750 C 967.379 500.988, 970.165 502, 971.129 502 C 972.093 502, 973.160 502.450, 973.500 503 C 974.751 505.024, 977.695 503.896, 981.547 499.918 C 986.382 494.925, 989.872 493.009, 994.200 492.972 C 998.688 492.934, 1013.022 487.914, 1016.536 485.150 C 1019.015 483.200, 1020.121 482.991, 1024.945 483.560 C 1028 483.920, 1033.641 485.066, 1037.480 486.107 C 1041.327 487.151, 1047.722 488, 1051.730 488 C 1058.130 488, 1059 487.779, 1059 486.155 C 1059 483.403, 1056.072 481.262, 1050.487 479.929 C 1038.715 477.120, 1037.743 476.648, 1035.751 472.780 C 1034.228 469.823, 1033.082 468.921, 1030.167 468.385 C 1026.417 467.695, 1019.277 464.473, 1010.657 459.581 C 1002.833 455.140, 986.452 454.911, 981.550 459.174 C 981.027 459.628, 978.911 460, 976.847 460 C 974.783 460, 971.954 460.519, 970.561 461.154 C 964.926 463.722, 923.979 457.626, 911.648 452.383 C 898.244 446.686, 896.177 446.261, 879 445.679 C 868.771 445.333, 861.360 445.512, 859.500 446.150" stroke="#ac7444" fill="#ac7444" fill-opacity="0.2" fill-rule="evenodd"/><path class="svg-region-PC" d="M 778.750 429.965 C 773.937 431.530, 767.969 434, 765.486 435.455 C 763.003 436.910, 760.528 437.827, 759.986 437.491 C 759.444 437.156, 759 437.760, 759 438.834 C 759 439.908, 759.675 441.045, 760.500 441.362 C 761.325 441.678, 762 443.028, 762 444.362 C 762 445.695, 761.325 447.045, 760.500 447.362 C 759.675 447.678, 759 448.825, 759 449.910 C 759 450.994, 758.452 452.220, 757.783 452.634 C 754.869 454.435, 773.777 457.958, 788 458.264 C 799.565 458.513, 828.366 456.284, 832.500 454.820 C 834.150 454.236, 837.750 453.301, 840.500 452.742 C 843.250 452.184, 846.850 451.159, 848.500 450.465 C 850.150 449.772, 853.862 448.378, 856.750 447.367 C 859.638 446.357, 862 445.170, 862 444.730 C 862 444.289, 860.087 443.066, 857.750 442.012 C 855.413 440.957, 852.375 439.444, 851 438.649 C 847.249 436.481, 833.953 432.492, 820.787 429.586 C 804.189 425.922, 790.812 426.042, 778.750 429.965 M 925 433.466 C 923.625 434.243, 918.450 436.768, 913.500 439.077 C 908.550 441.386, 903.515 444.166, 902.311 445.254 L 900.122 447.234 904.811 449.613 C 915.227 454.899, 933.383 459.044, 955.321 461.143 C 964.140 461.987, 968.105 461.986, 970.937 461.137 C 973.024 460.512, 975.805 460, 977.116 459.999 C 978.427 459.999, 981.867 459.099, 984.761 457.999 C 987.654 456.900, 990.917 456, 992.011 456 C 994.526 456, 994.506 455.762, 991.614 451.181 C 990.302 449.102, 988.238 445.100, 987.028 442.288 C 984.693 436.859, 984.328 436.644, 975.500 435.490 C 972.750 435.131, 967.256 434.198, 963.292 433.418 C 953.551 431.501, 928.421 431.533, 925 433.466" stroke="#cda789" fill="#cda789" fill-opacity="0.2" fill-rule="evenodd"/><path class="svg-region-DB" d="M 703.500 305.595 C 694.064 307.927, 666.449 321.385, 664.267 324.715 C 663.444 325.972, 662.235 327, 661.581 327 C 660.927 327, 658.842 328.643, 656.946 330.650 C 653.730 334.056, 653.915 334.244, 658.616 332.348 C 659.983 331.797, 660.060 332.019, 659.116 333.783 C 656.982 337.771, 658.027 337.966, 662.644 334.442 C 666.328 331.630, 668.035 330.959, 670.894 331.198 L 674.500 331.500 674.806 336.865 C 675.059 341.288, 674.513 343.492, 671.701 349.415 C 667.714 357.810, 660.697 368.399, 657.754 370.460 C 656.622 371.252, 653.852 375.636, 651.598 380.201 C 647.996 387.496, 646.926 388.810, 642.750 391.061 C 640.137 392.470, 637.187 394.495, 636.193 395.561 C 635.199 396.628, 633.061 398.656, 631.443 400.069 C 623.048 407.398, 622.719 408.080, 622.203 419.222 C 621.161 441.713, 621.371 448.442, 623.124 448.783 C 624.017 448.956, 626.042 447.812, 627.624 446.241 C 631.490 442.400, 635.009 440.558, 644.500 437.410 C 648.900 435.950, 653.130 434.249, 653.901 433.630 C 655.724 432.166, 672.242 432.147, 674.095 433.608 C 677.410 436.221, 688.857 438.301, 696.178 437.620 C 700.141 437.252, 703.539 436.795, 703.729 436.604 C 703.919 436.414, 703.539 435.083, 702.885 433.646 C 701.930 431.552, 702.012 429.789, 703.296 424.767 C 704.178 421.320, 705.093 414.675, 705.331 410 C 705.648 403.773, 706.477 399.802, 708.431 395.149 C 712.101 386.409, 712.507 384.450, 716.410 356.618 C 718.068 344.791, 719.473 340.399, 725.226 329.066 C 727.302 324.977, 729.015 320.927, 729.033 320.066 C 729.072 318.229, 732.387 314, 733.788 314 C 734.320 314, 735.315 313.325, 736 312.500 C 736.685 311.675, 738.341 311, 739.681 311 C 741.051 311, 741.847 310.562, 741.500 310 C 741.160 309.450, 739.946 309, 738.801 309 C 737.657 309, 736.181 308.262, 735.521 307.360 C 734.526 305.998, 731.874 305.667, 719.911 305.410 C 711.985 305.240, 704.600 305.323, 703.500 305.595 M 1051.865 310.468 C 1051.534 310.800, 1043.441 311.723, 1033.881 312.519 C 1024.322 313.316, 1011.775 314.763, 1006 315.734 L 995.500 317.500 1011 318.033 C 1025.614 318.536, 1026.765 318.723, 1031.134 321.304 C 1035.436 323.845, 1035.883 324.501, 1037.384 330.476 C 1039.427 338.611, 1039.448 346.234, 1037.437 350.123 C 1034.939 354.952, 1037.415 362.089, 1045.482 373.318 C 1049.334 378.679, 1050.730 382.736, 1051.659 391.258 C 1052.216 396.367, 1053.114 398.171, 1059.622 407.258 C 1067.699 418.537, 1068.618 421.919, 1064.988 427.016 L 1062.977 429.841 1072.238 429.336 C 1079.958 428.915, 1082.487 429.179, 1087.430 430.923 C 1090.692 432.075, 1094.067 433.629, 1094.930 434.379 C 1095.794 435.128, 1099.611 436.761, 1103.413 438.007 C 1109.227 439.911, 1111.303 441.263, 1116.470 446.507 C 1119.850 449.937, 1123.714 453.088, 1125.057 453.510 C 1126.401 453.933, 1128.502 455.228, 1129.726 456.389 C 1139.148 465.326, 1144.248 467.809, 1141.382 462.064 C 1140.576 460.449, 1139.768 455.931, 1139.585 452.024 C 1139.403 448.117, 1138.971 444.638, 1138.627 444.293 C 1137.499 443.165, 1137.935 401.486, 1139.110 398.115 C 1140.092 395.297, 1139.949 394.656, 1137.860 392.522 C 1133.318 387.883, 1132 386.326, 1132 385.600 C 1132 384.775, 1124.520 369.857, 1120.668 363 C 1119.278 360.525, 1116.776 355.965, 1115.110 352.868 C 1111.900 346.902, 1102.344 332.602, 1098.683 328.288 C 1095.078 324.041, 1091.877 321.262, 1089.114 319.980 C 1087.676 319.314, 1085.825 318.369, 1085 317.882 C 1084.175 317.394, 1082.382 316.517, 1081.015 315.933 C 1079.648 315.349, 1077.173 314.261, 1075.515 313.516 C 1073.857 312.771, 1069.350 311.875, 1065.500 311.526 C 1061.650 311.177, 1057.143 310.660, 1055.484 310.378 C 1053.825 310.096, 1052.197 310.137, 1051.865 310.468 M 1094.953 335.556 C 1093.344 337.496, 1094.854 343.662, 1098.616 350.508 C 1100.432 353.812, 1102.663 359.437, 1103.574 363.008 C 1106.406 374.107, 1110.591 381, 1114.497 381 C 1117.272 381, 1119.704 374.183, 1118.038 371.072 C 1117.467 370.005, 1117 367.047, 1117 364.500 C 1117 359.226, 1116.152 357.313, 1111.016 351 C 1109.003 348.525, 1106.540 344.605, 1105.543 342.288 C 1103.423 337.361, 1096.898 333.213, 1094.953 335.556" stroke="#e8b1e4" fill="#e8b1e4" fill-opacity="0.2" fill-rule="evenodd"/><path class="svg-region-MB" d="M 743.129 310.741 C 736.063 311.230, 729 315.642, 729 319.566 C 729 320.474, 727.036 325.330, 724.636 330.358 C 718.525 343.158, 718.336 343.713, 717.068 352.576 C 716.444 356.934, 715.481 363.650, 714.926 367.500 C 713.456 377.702, 710.008 391.825, 707.723 397 C 706.470 399.837, 705.449 405.195, 704.960 411.500 C 704.532 417, 703.634 423.853, 702.963 426.729 C 701.905 431.267, 701.962 432.293, 703.395 434.479 C 705.533 437.743, 707.111 437.656, 712.159 434 C 716.042 431.187, 716.870 431, 725.450 431 C 730.483 431, 735.028 430.606, 735.550 430.123 C 736.073 429.641, 739.148 428.275, 742.385 427.087 C 745.621 425.899, 750.137 424.077, 752.419 423.037 C 754.702 421.997, 757.679 420.898, 759.035 420.594 C 774.575 417.116, 780.260 415.769, 784.500 414.562 C 792.466 412.296, 798.763 411.142, 809.952 409.901 C 829.225 407.763, 842.051 410.199, 850.178 417.541 C 853.226 420.296, 859.790 424, 861.622 424 C 861.830 424, 862 421.950, 862 419.444 C 862 414.612, 858.056 405.386, 853.354 399.220 C 851.978 397.416, 849.146 391.116, 847.059 385.220 C 844.972 379.324, 841.856 371.744, 840.133 368.376 C 838.410 365.008, 836.990 361.858, 836.978 361.376 C 836.966 360.894, 836.133 359.431, 835.128 358.124 L 833.301 355.747 832.639 359.055 C 831.895 362.776, 827.369 371, 826.065 371 C 825.597 371, 824.955 370.325, 824.638 369.500 C 824.322 368.675, 823.522 368, 822.860 368 C 822.199 368, 820.947 367.380, 820.079 366.622 C 818.483 365.230, 807.320 361, 805.241 361 C 804.622 361, 800.053 358.525, 795.088 355.500 C 790.123 352.475, 785.592 350, 785.021 350 C 782 350, 774 339.226, 774 335.159 C 774 334.142, 773.048 332.453, 771.884 331.405 C 769.384 329.155, 764.023 320.103, 764.009 318.110 C 763.998 316.403, 761.072 314.075, 758.885 314.032 C 757.997 314.014, 756.126 313.100, 754.727 312 C 753.329 310.900, 751.356 310.083, 750.342 310.185 C 749.329 310.287, 746.083 310.537, 743.129 310.741 M 992 320.500 C 992 321.875, 991.615 323, 991.145 323 C 990.674 323, 990.008 326.006, 989.665 329.681 C 989.131 335.405, 988.583 336.835, 985.843 339.662 C 984.084 341.477, 981.037 343.492, 979.072 344.138 C 977.107 344.785, 973.157 347.044, 970.293 349.157 C 967.429 351.271, 964.634 353, 964.082 353 C 963.530 353, 960.610 355.010, 957.593 357.467 C 954.577 359.924, 950.847 362.238, 949.304 362.609 C 947.762 362.980, 944.914 364.077, 942.977 365.047 C 941.039 366.016, 937.214 367.139, 934.477 367.541 C 927.987 368.495, 926.188 369.240, 922.123 372.659 C 918.856 375.407, 913.695 385.042, 910.985 393.451 C 909.709 397.412, 905.810 406.189, 904.079 409 C 901.197 413.678, 897 421.098, 897 421.515 C 897 422.393, 900.854 422.021, 903.703 420.868 C 905.241 420.245, 909.200 418.502, 912.500 416.993 C 920.807 413.197, 936.035 411.451, 949.500 412.751 C 955 413.283, 964.995 413.501, 971.711 413.237 L 983.922 412.756 1004.711 423 C 1026.894 433.931, 1040.051 438.968, 1046.467 438.988 C 1050.410 439, 1059 436.320, 1059 435.078 C 1059 434.720, 1060.787 432.419, 1062.972 429.964 C 1068.960 423.234, 1068.628 419.813, 1060.955 409.147 C 1053.692 399.053, 1052 395.906, 1052 392.492 C 1052 389.197, 1050.188 381.273, 1048.685 378 C 1048.054 376.625, 1046.121 373.700, 1044.390 371.500 C 1037.556 362.818, 1034.975 354.883, 1037.437 350.123 C 1039.451 346.227, 1039.334 337.239, 1037.170 329.621 C 1035.598 324.086, 1035.184 323.573, 1030.112 320.871 C 1024.810 318.046, 1024.459 318, 1008.362 318 L 992 318 992 320.500" stroke="#f9c6c6" fill="#f9c6c6" fill-opacity="0.2" fill-rule="evenodd"/><path class="svg-region-LBl" d="M 765.206 314.651 C 763.382 315.048, 763.051 315.595, 763.586 317.325 C 764.952 321.741, 768.877 328.570, 771.401 330.924 C 772.830 332.258, 774 334.404, 774 335.694 C 774 339.861, 781.867 350, 785.100 350 C 785.556 350, 790.011 352.475, 795 355.500 C 799.989 358.525, 804.692 361, 805.452 361 C 808.397 361, 823.810 368.316, 825.174 370.361 C 826.882 372.923, 831.732 365.222, 832.645 358.500 C 833.531 351.976, 827.230 342.383, 812.172 327.327 C 802.768 317.924, 801.511 317, 798.122 317 C 796.075 317, 793.973 316.585, 793.450 316.077 C 792.395 315.053, 768.824 313.862, 765.206 314.651" stroke="#d7b230" fill="#d7b230" fill-opacity="0.2" fill-rule="evenodd"/><path class="svg-region-LBr" d="M 981 320.001 C 969.111 323.285, 965.028 324, 958.161 324 C 952.976 324, 950.952 324.418, 949.682 325.750 C 948.764 326.712, 946.572 329.017, 944.809 330.871 C 943.046 332.725, 940.343 334.682, 938.802 335.219 C 936.935 335.870, 936 336.895, 936 338.291 C 936 340.755, 929.652 354.178, 926.444 358.500 C 925.219 360.150, 923.222 363.839, 922.007 366.698 C 919.524 372.543, 919.622 375.236, 922.223 372.634 C 923.122 371.735, 924.302 371, 924.845 371 C 925.389 371, 925.983 370.560, 926.167 370.023 C 926.350 369.485, 929.650 368.400, 933.500 367.611 C 943.095 365.645, 952.390 361.953, 957.350 358.139 C 964.544 352.606, 974.881 345.980, 979.271 344.088 C 987.231 340.655, 990 336.213, 990 326.875 C 990 324.744, 990.450 323, 991 323 C 991.550 323, 992 321.875, 992 320.500 C 992 317.472, 990.414 317.400, 981 320.001" stroke="#d7b230" fill="#d7b230" fill-opacity="0.2" fill-rule="evenodd"/><path class="svg-region-DMl" d="M 640.949 361.092 C 639.052 362.811, 635.925 365.248, 634 366.506 C 630.848 368.568, 619.136 379.663, 616.415 383.165 C 614.693 385.382, 613.993 395.887, 615.064 403.445 C 615.604 407.259, 616.232 410.565, 616.460 410.794 C 617.734 412.067, 622.862 408.566, 630.071 401.500 C 634.560 397.100, 640.318 392.374, 642.867 390.999 C 646.289 389.151, 648.189 387.191, 650.139 383.499 C 653.864 376.440, 654.563 373.847, 652.528 374.628 C 650.768 375.303, 647 372.441, 647 370.428 C 647 369.734, 647.563 368.978, 648.250 368.747 C 649.237 368.416, 649.246 367.819, 648.292 365.914 C 647.627 364.586, 646.952 362.410, 646.792 361.078 C 646.368 357.558, 644.844 357.562, 640.949 361.092" stroke="#68533d" fill="#68533d" fill-opacity="0.2" fill-rule="evenodd"/><path class="svg-region-PV" d="M 826.406 169.849 C 826.798 170.482, 829.326 171, 832.024 171 C 837.890 171, 839.370 172.833, 838.400 178.898 C 837.889 182.093, 838.216 183.495, 840.083 186.116 C 841.904 188.673, 842.551 191.308, 843.108 198.435 C 843.498 203.421, 844.124 208.466, 844.499 209.648 C 844.873 210.829, 844.654 212.778, 844.011 213.980 C 841.492 218.687, 849.775 220.190, 856 216.155 C 864.807 210.446, 868.123 209.762, 880.500 211.102 C 891.823 212.327, 896.953 213.718, 906.433 218.133 C 909.285 219.461, 912 218.695, 912 216.562 C 912 215.736, 911.061 213.388, 909.912 211.344 C 908.359 208.578, 907.991 206.715, 908.476 204.064 C 908.835 202.104, 909.364 195.910, 909.653 190.301 L 910.179 180.101 915.340 178.415 C 922.179 176.180, 926 174.192, 926 172.867 C 926 172.223, 925.293 172.084, 924.250 172.525 C 921.472 173.699, 910.647 174.261, 895.286 174.030 C 890.218 173.953, 885.207 174.354, 884.149 174.920 C 882.933 175.571, 879.793 175.657, 875.615 175.154 C 871.979 174.716, 866.728 174.650, 863.947 175.007 C 860.700 175.423, 858.048 175.219, 856.538 174.435 C 854.773 173.520, 853.895 173.500, 853.023 174.357 C 852.148 175.218, 851.249 174.794, 849.384 172.640 C 847.020 169.911, 846.422 169.755, 836.301 169.238 C 828.440 168.837, 825.879 168.995, 826.406 169.849" stroke="#b09658" fill="#b09658" fill-opacity="0.2" fill-rule="evenodd"/><path class="svg-region-Fl" d="M 776.348 168.048 C 773.514 169.700, 770.447 172.195, 769.532 173.591 C 768.122 175.743, 767.383 176.027, 764.684 175.454 C 762.933 175.082, 760.731 174.099, 759.790 173.270 C 757.473 171.227, 753.232 172.397, 751.834 175.465 C 750.808 177.717, 748.927 178.683, 736.625 183.273 C 733.610 184.398, 716.239 201.092, 711.895 207.040 C 710.505 208.943, 708.553 213.200, 707.558 216.500 C 706.563 219.800, 704.635 224.633, 703.274 227.241 C 701.037 231.528, 700.848 232.818, 701.302 240.741 C 701.887 250.956, 703.190 257.381, 705.936 263.589 C 707.683 267.537, 709.944 270.351, 719.122 280 C 722.857 283.927, 727.356 286.750, 731.777 287.940 C 734.014 288.542, 735.999 289.496, 736.186 290.059 C 736.418 290.755, 740.080 290.747, 747.659 290.032 C 753.781 289.455, 759.625 289.276, 760.645 289.635 C 762.985 290.457, 779.594 299.664, 783.210 302.143 C 784.700 303.164, 786.976 304, 788.268 304 C 789.561 304, 791.491 304.661, 792.559 305.468 C 793.626 306.276, 795.604 306.951, 796.952 306.968 C 798.321 306.986, 800.853 308.403, 802.680 310.175 C 805.879 313.275, 806.003 313.307, 807.978 311.520 C 809.090 310.513, 810 309.270, 810 308.757 C 810 307.121, 815.789 295.248, 816.931 294.543 C 819.064 293.224, 821.751 286.425, 822.471 280.523 C 822.874 277.222, 824.490 271.992, 826.080 268.842 C 827.663 265.705, 829.376 261.420, 829.886 259.319 C 830.396 257.219, 832.629 251.138, 834.848 245.808 L 838.884 236.115 839.088 214.308 C 839.321 189.391, 838.802 174.063, 837.666 172.250 C 837.235 171.563, 834.940 171, 832.567 171 C 830.193 171, 826.338 170.325, 824 169.500 C 821.662 168.675, 818.510 168, 816.996 168 C 815.483 168, 812.629 167.325, 810.654 166.500 C 808.087 165.427, 803.424 165.006, 794.282 165.022 C 781.905 165.043, 781.337 165.139, 776.348 168.048" stroke="#5ca7a9" fill="#5ca7a9" fill-opacity="0.2" fill-rule="evenodd"/><path class="svg-region-Fr" d="M 949.500 168.997 C 945.650 169.436, 941.150 170.085, 939.500 170.438 C 937.850 170.792, 933.917 171.574, 930.761 172.175 C 927.605 172.777, 924.508 173.888, 923.880 174.644 C 923.252 175.401, 920.435 176.697, 917.619 177.525 C 914.804 178.353, 911.984 179.361, 911.353 179.765 C 910.693 180.188, 909.974 184.532, 909.659 190 C 909.359 195.225, 908.815 201.172, 908.451 203.216 C 907.960 205.970, 908.334 208.059, 909.895 211.282 C 911.053 213.674, 912 216.739, 912 218.093 C 912 219.447, 912.606 221.443, 913.347 222.527 C 916.225 226.741, 922.806 239.696, 923.999 243.500 C 924.690 245.700, 926.381 250.200, 927.757 253.500 C 931.126 261.578, 933 270.978, 933 279.797 C 933 286.298, 933.273 287.349, 935.500 289.412 C 936.875 290.687, 938 292.171, 938 292.711 C 938 293.251, 939.623 295.364, 941.606 297.406 L 945.212 301.119 952.856 300.524 C 966.939 299.427, 976.443 299.552, 984.067 300.932 C 990.869 302.163, 992.232 302.126, 997.567 300.562 C 1020.090 293.958, 1020.289 293.874, 1028.500 287.454 C 1039.752 278.658, 1043.456 274.509, 1048.016 265.593 C 1051.192 259.382, 1052 256.718, 1052 252.460 C 1052 249.522, 1052.408 246.866, 1052.906 246.558 C 1055.011 245.257, 1055.155 236.493, 1053.163 230.961 C 1052.082 227.957, 1050.923 223.590, 1050.588 221.256 C 1049.827 215.956, 1045.815 207.047, 1043.071 204.564 C 1041.932 203.533, 1041 202.085, 1041 201.345 C 1041 199.846, 1033.518 192, 1032.089 192 C 1031.588 192, 1030.042 190.650, 1028.653 189 C 1027.042 187.085, 1025.190 186, 1023.533 186 C 1020.471 186, 1012.322 183.339, 1002.305 179.068 C 998.283 177.353, 993.344 176, 991.106 176 C 988.252 176, 986.350 175.302, 984.478 173.567 C 979.932 169.354, 964.288 167.310, 949.500 168.997" stroke="#5ca7a9" fill="#5ca7a9" fill-opacity="0.2" fill-rule="evenodd"/><path class="svg-region-Ol" d="M 495 294.694 C 487.629 295.346, 479.184 297.261, 471 300.137 C 466.325 301.780, 459.575 304.047, 456 305.175 C 436.179 311.428, 392.072 332.305, 385.800 338.403 C 383.764 340.381, 381.794 342, 381.421 342 C 381.048 342, 379.088 343.462, 377.067 345.250 C 375.045 347.038, 370.971 350.525, 368.014 353 C 365.056 355.475, 359.906 360.394, 356.568 363.931 C 353.231 367.467, 349.713 371.180, 348.750 372.181 C 347.788 373.181, 347 374.413, 347 374.917 C 347 375.421, 346.615 375.983, 346.143 376.167 C 344.733 376.715, 336 390.007, 336 391.605 C 336 392.418, 335.100 394.050, 334 395.230 C 332.900 396.411, 332 397.967, 332 398.689 C 332 399.410, 331.602 400, 331.116 400 C 330.630 400, 329.195 402.587, 327.927 405.750 C 326.659 408.913, 324.845 412.907, 323.897 414.626 C 321.537 418.906, 316.374 435.275, 314.457 444.553 C 312.360 454.709, 312.360 483.333, 314.458 493.349 C 317.833 509.464, 322.296 522.079, 330.431 538.500 C 340.660 559.148, 348.757 576.480, 354.723 590.500 C 357.765 597.650, 361.697 606.425, 363.460 610 C 365.223 613.575, 367.683 619.200, 368.928 622.500 C 370.172 625.800, 372.321 630.975, 373.702 634 C 375.084 637.025, 376.567 640.400, 376.998 641.500 C 377.430 642.600, 379.566 647.325, 381.745 652 C 388.798 667.131, 391 672.043, 391 672.645 C 391 673.621, 407.798 706.896, 409.759 709.805 C 410.758 711.287, 412.908 715.415, 414.538 718.979 C 419.847 730.590, 429.179 748.492, 430.100 748.833 C 430.595 749.017, 431 749.600, 431 750.130 C 431 751.702, 442.604 771.740, 446.270 776.500 C 446.694 777.050, 448.804 780.200, 450.959 783.500 C 469.022 811.163, 494.284 837.427, 510.381 845.280 C 524.391 852.115, 538.719 855.034, 558.140 855.010 C 566.331 854.999, 580.598 852.668, 585.500 850.538 C 589.042 848.999, 592.366 847.872, 600.500 845.450 C 607.805 843.275, 622.530 836.031, 630 830.938 C 639.772 824.276, 668.020 795.319, 683.442 776.155 C 689.399 768.753, 694.552 762.142, 696.500 759.405 C 697.600 757.859, 699.635 755.223, 701.023 753.547 C 702.411 751.871, 705.518 747.575, 707.928 744 C 710.339 740.425, 713.516 736.150, 714.989 734.500 C 716.462 732.850, 721.205 726.100, 725.529 719.500 C 729.853 712.900, 733.641 707.275, 733.948 707 C 734.935 706.115, 741.639 695.599, 743.454 692.089 C 744.421 690.218, 746.011 687.831, 746.988 686.783 C 747.964 685.735, 750.270 681.867, 752.112 678.189 C 753.954 674.510, 756.707 669.745, 758.231 667.600 C 759.754 665.455, 761 663.159, 761 662.498 C 761 661.837, 762.964 658.306, 765.365 654.650 C 767.766 650.995, 770.710 645.191, 771.906 641.752 C 773.103 638.313, 774.500 634.825, 775.011 634 C 782.986 621.129, 784.600 610.816, 781.078 595.223 C 779.926 590.121, 778.609 585.171, 778.153 584.223 C 770.506 568.363, 770.346 568.099, 763.627 560.167 C 758.539 554.160, 757.141 553.133, 746.462 547.567 C 741.492 544.976, 735.192 540.715, 732.462 538.098 C 729.733 535.481, 725.250 532.039, 722.500 530.449 C 719.750 528.858, 715.976 526.532, 714.113 525.280 C 712.249 524.027, 707.524 522.093, 703.613 520.981 C 699.701 519.868, 695.150 518.330, 693.500 517.563 C 691.850 516.796, 686.036 515.161, 680.580 513.931 C 671.763 511.943, 669.852 511.820, 663.404 512.822 C 651.646 514.650, 641.745 521.053, 632.500 532.807 C 630.445 535.420, 628.144 537.731, 625.822 539.516 C 625.095 540.074, 623.202 541.537, 621.615 542.766 C 620.028 543.995, 617.511 545, 616.020 545 C 613.382 545, 610 542.374, 610 540.325 C 610 538.152, 606.836 533.123, 604.512 531.600 C 603.169 530.720, 600.971 530, 599.627 530 C 597.108 530, 587 534.764, 587 535.952 C 587 536.320, 585.597 538.056, 583.881 539.810 C 580.605 543.161, 577 544.046, 577 541.500 C 577 540.675, 576.550 540, 576 540 C 575.450 540, 574.990 538.763, 574.978 537.250 C 574.966 535.737, 574.066 532.538, 572.978 530.141 C 571.890 527.743, 571 524.706, 571 523.391 C 571 521.641, 570.446 521, 568.933 521 C 566.386 521, 560 516.269, 560 514.381 C 560 513.622, 559.591 513, 559.092 513 C 556.073 513, 538 491.544, 538 487.959 C 538 487.397, 537.325 486.678, 536.500 486.362 C 535.675 486.045, 535 485.159, 535 484.393 C 535 483.627, 534.660 483, 534.244 483 C 533.828 483, 532.883 481.538, 532.143 479.750 C 531.404 477.962, 530.169 475.082, 529.399 473.349 C 528.630 471.616, 528 469.788, 528 469.287 C 528 468.786, 527.079 466.469, 525.953 464.138 C 524.002 460.101, 523.958 459.207, 525.019 445.200 C 526.201 429.603, 527.175 425.512, 530.076 423.959 C 531.232 423.340, 532.122 421.293, 532.559 418.247 C 532.934 415.636, 534.311 412.068, 535.620 410.317 C 536.929 408.566, 538 406.635, 538 406.026 C 538 404.672, 541.230 399.999, 546.313 394 C 551.638 387.714, 552 387.211, 552 386.092 C 552 385.547, 553.289 383.165, 554.865 380.800 C 559.630 373.648, 561.443 366.707, 561.473 355.500 C 561.518 338.746, 555.450 321.639, 546.405 313.018 C 543.982 310.709, 542 308.459, 542 308.019 C 542 307.578, 538.532 304.865, 534.294 301.989 C 527.674 297.498, 525.596 296.626, 519.544 295.802 C 511.705 294.734, 500.346 294.221, 495 294.694" stroke="#aa444d" fill="#aa444d" fill-opacity="0.2" fill-rule="evenodd"/><path class="svg-region-Or" d="M 1281 293.121 C 1274.125 294.792, 1267.600 296.526, 1266.500 296.974 C 1265.400 297.422, 1262.345 298.555, 1259.711 299.492 C 1257.076 300.429, 1253.701 302.175, 1252.211 303.373 C 1250.720 304.570, 1248.375 306.117, 1247 306.810 C 1245.625 307.504, 1242.618 309.809, 1240.317 311.933 C 1238.016 314.058, 1234.519 317.028, 1232.546 318.533 C 1225.458 323.939, 1215.916 337.659, 1212.916 346.758 C 1212.237 348.816, 1210.784 352.075, 1209.687 354 C 1208.048 356.875, 1207.675 359.463, 1207.596 368.500 C 1207.513 378.009, 1207.771 379.873, 1209.500 382.254 C 1210.712 383.922, 1212.181 384.848, 1213.228 384.603 C 1214.353 384.340, 1217.683 386.872, 1222.758 391.849 C 1229.845 398.799, 1230.721 400.095, 1232.324 406 C 1233.295 409.575, 1235.034 415.381, 1236.189 418.901 C 1238.766 426.758, 1239.707 437.811, 1238.060 440.887 C 1237.408 442.105, 1236.610 446.341, 1236.286 450.301 C 1235.732 457.081, 1234.702 460.042, 1230.824 466 C 1229.929 467.375, 1228.888 470.075, 1228.512 472 C 1227.729 475.998, 1223.027 485.605, 1218.968 491.500 C 1215.376 496.716, 1209.613 502.436, 1204 506.357 C 1199.718 509.348, 1199.065 509.494, 1190.500 509.375 C 1184.308 509.289, 1180.564 508.745, 1178.500 507.631 C 1176.391 506.493, 1172.902 506.010, 1166.750 506.006 L 1158 506 1158.032 509.250 C 1158.049 511.038, 1158.724 513.374, 1159.532 514.441 C 1161.341 516.834, 1161.397 518.857, 1159.710 520.921 C 1159 521.790, 1157.101 525.425, 1155.490 529 C 1151.347 538.190, 1147.105 543.906, 1142.795 546.104 C 1136.474 549.329, 1129.940 548.266, 1127.955 543.689 C 1125.465 537.951, 1114.702 526.941, 1109.250 524.556 C 1106.912 523.533, 1105 522.315, 1105 521.848 C 1105 521.382, 1104.355 521, 1103.567 521 C 1102.779 521, 1100.475 518.975, 1098.446 516.500 L 1094.759 512 1087.880 512 C 1083.960 512, 1081 512.430, 1081 513 C 1081 513.550, 1080.146 514, 1079.102 514 C 1076.206 514, 1065.589 519.914, 1064.829 521.950 C 1064.448 522.969, 1062.703 524.021, 1060.797 524.378 C 1058.949 524.725, 1056.668 525.907, 1055.728 527.004 C 1054.789 528.102, 1053.195 529, 1052.187 529 C 1049.699 529, 1039.332 534.634, 1034.855 538.418 C 1030.996 541.680, 1027.619 544.072, 1019.506 549.289 C 1011.920 554.166, 999.891 566.715, 996.776 573.002 C 988.578 589.545, 986.653 595.250, 986.846 602.436 C 986.948 606.250, 987.447 610.975, 987.956 612.936 C 988.464 614.896, 989.612 619.425, 990.507 623 C 995.375 642.454, 1000.271 650.878, 1022.472 678 C 1034.723 692.966, 1035.432 693.881, 1039.138 699.500 C 1040.589 701.700, 1043.102 704.850, 1044.722 706.500 C 1046.343 708.150, 1050.734 713.550, 1054.481 718.500 C 1058.228 723.450, 1061.600 727.725, 1061.975 728 C 1063.164 728.873, 1078.553 748.513, 1083.237 755.135 C 1085.713 758.636, 1090.993 766.900, 1094.969 773.500 C 1103.631 787.876, 1109.426 795.630, 1112.919 797.520 C 1114.339 798.288, 1117.544 800.847, 1120.042 803.208 C 1122.539 805.569, 1126.589 808.850, 1129.042 810.500 C 1131.494 812.150, 1134.372 814.288, 1135.439 815.250 C 1136.505 816.212, 1137.912 817, 1138.566 817 C 1139.220 817, 1140.315 817.675, 1141 818.500 C 1141.685 819.325, 1143.246 820, 1144.469 820 C 1145.692 820, 1147.999 820.651, 1149.596 821.446 C 1151.362 822.326, 1158.573 823.320, 1168 823.984 C 1186.473 825.284, 1193.199 826.589, 1197.382 829.686 C 1208.141 837.652, 1219.205 839.631, 1233.022 836.061 C 1254.929 830.401, 1277.800 814.117, 1300.397 788.089 C 1307.231 780.216, 1317 765.603, 1317 763.252 C 1317 762.939, 1318.624 759.267, 1320.608 755.091 C 1326.591 742.502, 1326.984 741.614, 1327.940 738.500 C 1328.446 736.850, 1330.288 732.125, 1332.032 728 C 1333.776 723.875, 1336.524 716.675, 1338.139 712 C 1341.053 703.563, 1342.549 699.497, 1347.335 687 C 1354.996 667.002, 1359.274 656.602, 1362.967 649 C 1369.387 635.788, 1392.172 595.451, 1396.719 589.250 C 1398.030 587.462, 1399.769 584.537, 1400.583 582.750 C 1401.397 580.962, 1402.923 578.150, 1403.972 576.500 C 1407.327 571.227, 1414.156 558.767, 1418.578 549.850 C 1420.938 545.092, 1423.348 540.903, 1423.934 540.541 C 1424.520 540.178, 1425 538.991, 1425 537.901 C 1425 536.812, 1425.845 534.251, 1426.878 532.210 C 1431.296 523.481, 1442.659 489.321, 1443.579 482 C 1443.752 480.625, 1444.349 476.881, 1444.906 473.679 C 1447.021 461.519, 1447.245 448.855, 1445.558 436.868 C 1444.658 430.471, 1444.050 424.846, 1444.207 424.368 C 1444.473 423.560, 1442.740 417.096, 1441.026 412.500 C 1440.616 411.400, 1439.457 407.800, 1438.451 404.500 C 1437.445 401.200, 1435.357 395.676, 1433.811 392.225 C 1432.265 388.774, 1431 385.511, 1431 384.975 C 1431 384.439, 1430.660 384, 1430.244 384 C 1429.828 384, 1428.853 382.538, 1428.076 380.750 C 1427.300 378.962, 1424.715 374.690, 1422.332 371.255 C 1419.949 367.820, 1418 364.764, 1418 364.464 C 1418 362.249, 1396.885 337.405, 1390.054 331.584 C 1388.709 330.438, 1386.551 328.488, 1385.259 327.250 C 1383.966 326.012, 1382.647 325, 1382.326 325 C 1382.005 325, 1380.010 323.538, 1377.893 321.750 C 1370.462 315.475, 1366.814 312.648, 1364.128 311.081 C 1354.644 305.550, 1349.854 302.517, 1345 298.970 C 1333.855 290.827, 1332.707 290.525, 1312 290.291 C 1294.426 290.093, 1292.874 290.235, 1281 293.121" stroke="#aa444d" fill="#aa444d" fill-opacity="0.2" fill-rule="evenodd"/><path class="svg-region-Pl" d="M 537 418.944 C 535.075 419.965, 531.900 422.356, 529.944 424.259 L 526.388 427.719 525.139 443.794 C 523.933 459.321, 523.960 460.014, 525.945 464.122 C 527.075 466.462, 528 468.786, 528 469.287 C 528 469.788, 528.630 471.616, 529.399 473.349 C 530.169 475.082, 531.404 477.962, 532.143 479.750 C 532.883 481.538, 533.828 483, 534.244 483 C 534.660 483, 535 483.404, 535 483.897 C 535 484.390, 537.877 489.003, 541.393 494.147 C 547.178 502.612, 556.956 513, 559.138 513 C 559.612 513, 560.003 513.788, 560.006 514.750 C 560.017 517.792, 570.676 522.924, 572.725 520.875 C 573.191 520.409, 577.606 517.972, 582.536 515.461 C 587.466 512.949, 593.075 509.429, 595 507.637 C 596.925 505.845, 600.122 503.196, 602.103 501.750 C 604.085 500.305, 606.267 497.632, 606.952 495.811 C 607.637 493.990, 609.254 490.250, 610.546 487.500 C 613.508 481.197, 616.190 465.363, 615.799 456.488 C 615.531 450.415, 615.211 449.490, 612.739 447.650 C 610.826 446.225, 607.986 445.467, 603.489 445.180 C 597.595 444.805, 596.656 444.427, 593.250 441.057 C 591.187 439.016, 588.219 435.526, 586.654 433.301 C 584.168 429.766, 583.204 429.184, 579.013 428.688 C 576.375 428.375, 572.487 427.193, 570.373 426.060 C 568.259 424.927, 565.083 424, 563.315 424 C 561.414 424, 557.730 422.571, 554.300 420.503 C 547.610 416.469, 542.532 416.011, 537 418.944" stroke="#f9d3d3" fill="#f9d3d3" fill-opacity="0.2" fill-rule="evenodd"/><path class="svg-region-Pr" d="M 1222.580 411.871 C 1222.284 412.350, 1220.692 413.012, 1219.042 413.342 C 1217.393 413.671, 1214.666 415.257, 1212.984 416.865 C 1211.301 418.473, 1208.479 420.323, 1206.712 420.977 C 1201.206 423.014, 1200.503 423.633, 1200.397 426.543 C 1200.334 428.258, 1199.349 430.101, 1197.897 431.225 C 1196.578 432.245, 1192.734 435.312, 1189.354 438.040 C 1184.021 442.343, 1182.611 443, 1178.701 443 C 1174.696 443, 1174.084 443.305, 1173.192 445.750 C 1171.185 451.252, 1163.532 457.056, 1154.500 459.925 C 1141.384 464.092, 1139.559 466.707, 1140.203 480.417 C 1140.724 491.512, 1142.624 495.656, 1151.183 504.371 C 1156.918 510.210, 1157.243 510.394, 1158.069 508.250 C 1158.869 506.174, 1159.560 506, 1167.017 506 C 1172.602 506, 1176.088 506.514, 1178.300 507.662 C 1180.540 508.826, 1184.201 509.351, 1190.500 509.412 C 1199.046 509.496, 1199.727 509.341, 1204 506.346 C 1215.632 498.193, 1226.518 482.829, 1228.548 471.701 C 1228.929 469.611, 1229.767 467.361, 1230.410 466.701 C 1233.340 463.690, 1235.724 457.030, 1236.280 450.301 C 1236.607 446.341, 1237.412 442.099, 1238.068 440.872 C 1239.595 438.020, 1238.738 425.702, 1236.668 420.748 C 1234.282 415.036, 1224.452 408.842, 1222.580 411.871" stroke="#f9d3d3" fill="#f9d3d3" fill-opacity="0.2" fill-rule="evenodd"/><path class="svg-region-DLr" d="M 1139.602 446.238 C 1138.779 450.357, 1139.898 460.478, 1141.404 462.538 C 1142.433 463.945, 1143.530 463.784, 1151.789 461.017 C 1161.571 457.740, 1167.089 454.582, 1170.714 450.185 C 1172.771 447.691, 1173.687 445, 1172.480 445 C 1172.194 445, 1170.100 446.174, 1167.827 447.609 C 1164.175 449.915, 1163.274 450.096, 1160.097 449.161 C 1158.118 448.579, 1154.808 447.883, 1152.740 447.613 C 1150.673 447.343, 1147.678 446.195, 1146.086 445.061 C 1142.006 442.156, 1140.359 442.455, 1139.602 446.238" stroke="#b7d6d3" fill="#b7d6d3" fill-opacity="0.2" fill-rule="evenodd"/><path class="svg-region-OLl" d="M 604 380.919 C 602.511 381.347, 601.556 382.318, 601.639 383.319 C 601.715 384.244, 601.308 385, 600.733 385 C 600.159 385, 598.076 386.238, 596.104 387.750 C 591.751 391.089, 589.951 392.042, 583.500 394.422 C 580.750 395.437, 577.600 397.024, 576.500 397.949 C 575.400 398.874, 573.223 400.425, 571.662 401.396 C 569.432 402.783, 568.951 403.669, 569.417 405.526 C 569.890 407.410, 569.297 408.435, 566.495 410.571 C 563.162 413.114, 562.993 413.531, 563.240 418.620 C 563.434 422.629, 563.883 423.988, 565.015 423.993 C 565.848 423.997, 568.230 424.911, 570.308 426.025 C 572.386 427.139, 576.095 428.325, 578.551 428.662 C 582.170 429.158, 583.630 430.022, 586.258 433.223 C 588.041 435.394, 591.206 438.933, 593.292 441.086 C 596.712 444.615, 597.578 445, 602.108 445 C 604.871 445, 608.093 445.515, 609.268 446.143 C 610.871 447.001, 611.500 447.001, 611.786 446.143 C 611.995 445.515, 612.768 445, 613.503 445 C 614.563 445, 614.626 444.229, 613.808 441.266 C 612.546 436.696, 613.335 429.204, 615.575 424.483 C 617.314 420.819, 617.257 418.291, 615.105 403.500 C 614.545 399.650, 614.343 394.235, 614.656 391.466 C 615.097 387.557, 614.864 386.132, 613.612 385.093 C 612.726 384.357, 612 383.188, 612 382.494 C 612 381.801, 610.987 380.962, 609.750 380.630 C 607.215 379.951, 607.394 379.942, 604 380.919" stroke="#c4875d" fill="#c4875d" fill-opacity="0.2" fill-rule="evenodd"/><path class="svg-region-OLr" d="M 1145.274 390.575 C 1143.272 391.451, 1141.280 393.491, 1140.024 395.953 C 1138.169 399.589, 1138 401.805, 1138 422.469 C 1138 444.767, 1138.022 445.003, 1140 443.768 C 1141.623 442.754, 1142.424 442.786, 1144.250 443.937 C 1149.071 446.975, 1151.613 447.988, 1154.429 447.994 C 1156.040 447.997, 1158.780 448.514, 1160.518 449.143 C 1163.386 450.180, 1164.249 449.950, 1169.892 446.643 C 1173.815 444.344, 1177.389 443, 1179.582 443 C 1182.228 443, 1184.662 441.772, 1189.779 437.855 C 1200.372 429.747, 1201.029 429.020, 1200.417 426.094 C 1200.119 424.668, 1199.686 422.554, 1199.456 421.399 C 1199.225 420.243, 1197.243 418.054, 1195.050 416.535 C 1192.261 414.602, 1191.129 413.131, 1191.282 411.636 C 1191.459 409.901, 1190.889 409.441, 1188.250 409.187 C 1186.463 409.014, 1185 408.463, 1185 407.962 C 1185 407.461, 1183.537 406.313, 1181.750 405.410 C 1179.963 404.507, 1175.200 401.307, 1171.168 398.299 C 1159.020 389.236, 1152.665 387.341, 1145.274 390.575" stroke="#c4875d" fill="#c4875d" fill-opacity="0.2" fill-rule="evenodd"/><path class="svg-region-VOC" d="M 804.500 410.576 C 792.480 412.318, 785.256 413.724, 783.844 414.596 C 783.205 414.991, 780.167 415.870, 777.091 416.550 C 774.016 417.229, 768.181 418.514, 764.124 419.405 C 760.068 420.296, 755.343 421.658, 753.624 422.431 C 738.612 429.185, 732.468 431, 724.622 431 C 717.524 431, 716.183 431.316, 712.070 433.955 C 709.537 435.581, 706.572 436.880, 705.482 436.843 C 704.392 436.806, 700.232 437.116, 696.237 437.533 C 690.554 438.125, 687.507 437.897, 682.237 436.485 C 678.532 435.493, 675.179 434.190, 674.786 433.590 C 673.815 432.107, 655.742 432.148, 653.904 433.638 C 653.132 434.264, 648.675 436.027, 644 437.557 C 634.683 440.604, 631.976 442.030, 627.560 446.214 C 624.384 449.224, 623.002 449.602, 621.323 447.923 C 620.554 447.154, 619.678 447.653, 618.259 449.673 C 616.749 451.821, 616.149 454.722, 615.761 461.750 L 615.251 471 622.384 471 C 628.166 471, 630.460 470.500, 634.508 468.359 C 637.254 466.906, 639.725 465.394, 640 464.998 C 641.176 463.307, 646.991 461.133, 653.500 459.951 C 657.350 459.252, 669.275 458.404, 680 458.066 C 699.401 457.454, 703 456.905, 703 454.554 C 703 453.142, 707.193 451, 709.957 451 C 710.982 451, 714.673 449.650, 718.160 448.001 C 721.647 446.351, 725.711 445.001, 727.191 445.001 C 728.671 445, 730.160 444.550, 730.500 444 C 730.840 443.450, 733.990 443, 737.500 443 C 741.010 443, 744.152 442.564, 744.481 442.030 C 745.304 440.699, 758.805 436.761, 760.004 437.503 C 760.536 437.832, 762.891 436.980, 765.236 435.610 C 767.581 434.240, 773.757 431.742, 778.959 430.060 C 787.034 427.448, 789.944 427, 798.835 427 C 810.060 427, 826.332 430.060, 839.307 434.612 C 843.051 435.925, 846.904 437, 847.869 437 C 848.833 437, 850.589 437.900, 851.770 439 C 852.950 440.100, 854.243 441, 854.642 441 C 855.042 441, 857.198 441.875, 859.434 442.945 C 864.843 445.532, 899.564 447.615, 902 445.499 C 902.825 444.782, 909.056 441.452, 915.847 438.098 L 928.195 432 942.347 432.044 C 950.131 432.068, 958.525 432.527, 961 433.064 C 970.953 435.225, 979.237 436.161, 994.500 436.846 C 1003.300 437.241, 1011.078 437.924, 1011.786 438.363 C 1012.493 438.803, 1015.643 439.568, 1018.786 440.064 C 1026.359 441.259, 1034.399 443.535, 1038.320 445.592 C 1046.856 450.071, 1049.267 451.078, 1053.754 452.041 C 1060.285 453.441, 1064.830 456.372, 1066.517 460.272 C 1067.286 462.047, 1068.831 464.850, 1069.951 466.500 C 1071.071 468.150, 1071.990 470.711, 1071.993 472.191 C 1071.997 473.671, 1072.450 475.160, 1073 475.500 C 1073.550 475.840, 1074 477.243, 1074 478.618 C 1074 480.030, 1074.435 480.849, 1075 480.500 C 1075.550 480.160, 1076 478.839, 1076 477.563 C 1076 476.288, 1076.631 474.721, 1077.402 474.081 C 1078.173 473.442, 1079.070 471.858, 1079.395 470.562 C 1080.681 465.437, 1091.199 461.516, 1101.015 462.501 C 1108.121 463.215, 1113 466.011, 1113 469.369 C 1113 470.174, 1113.367 470.983, 1113.815 471.167 C 1114.263 471.350, 1115.337 473.300, 1116.202 475.500 L 1117.774 479.500 1128.887 479.783 L 1140 480.066 1140 475.483 C 1140 472.963, 1140.666 469.614, 1141.479 468.041 C 1142.927 465.240, 1142.893 465.158, 1139.850 464.098 C 1138.141 463.502, 1135.731 461.999, 1134.494 460.757 C 1129.971 456.218, 1127.449 454.269, 1125.163 453.548 C 1123.877 453.142, 1120.277 450.217, 1117.163 447.047 C 1110.826 440.599, 1109.080 439.503, 1101.671 437.325 C 1098.827 436.489, 1095.777 435.163, 1094.893 434.377 C 1094.010 433.592, 1090.635 432.009, 1087.393 430.859 C 1082.418 429.095, 1080.022 428.855, 1072.013 429.319 C 1062.078 429.894, 1062.206 429.834, 1058.083 435.800 C 1057.304 436.928, 1055.954 437.872, 1055.083 437.899 C 1054.212 437.925, 1051.337 438.216, 1048.694 438.545 C 1041.957 439.383, 1030.366 435.582, 1012.154 426.562 C 981.719 411.489, 985.846 412.796, 969.684 413.114 C 961.883 413.267, 951.661 413.034, 946.970 412.596 C 934.942 411.474, 920.302 413.385, 912.357 417.116 C 908.978 418.702, 905.517 420, 904.666 420 C 903.815 420, 902.840 420.450, 902.500 421 C 901.768 422.185, 897 422.358, 897 421.200 C 897 420.760, 897.533 419.867, 898.183 419.217 C 898.834 418.566, 899.131 417.797, 898.842 417.509 C 897.803 416.469, 891.480 421.644, 888.660 425.843 C 885.572 430.440, 882.758 432.013, 877.685 431.977 C 875.143 431.959, 873.293 430.749, 868.520 425.982 C 863.117 420.585, 862.469 420.204, 861.792 422.033 C 861.052 424.034, 860.993 424.030, 856.272 421.636 C 853.647 420.305, 850.600 418.218, 849.500 416.998 C 842.917 409.699, 826.611 407.372, 804.500 410.576" stroke="#ff8f93" fill="#ff8f93" fill-opacity="0.2" fill-rule="evenodd"/><path class="svg-region-OABl" d="M 720.847 476.329 C 718.959 477.610, 714.636 479.205, 711.239 479.873 C 705.834 480.937, 704.748 480.881, 702.532 479.429 C 701.139 478.517, 700 477.372, 700 476.885 C 700 475.004, 697.729 476.172, 693.207 480.379 C 687.354 485.824, 674.195 492.505, 664.130 495.142 C 658.338 496.659, 654.794 496.997, 649.418 496.544 C 643.327 496.031, 641.987 496.222, 639.834 497.916 C 638.457 498.999, 634.334 501.316, 630.672 503.066 C 624.153 506.179, 619.539 510.020, 611.500 519.021 C 609.300 521.484, 605.851 524.815, 603.837 526.422 L 600.173 529.344 603.314 531.029 C 606.525 532.751, 609.796 537.236, 609.927 540.095 C 610.040 542.569, 613.350 545, 616.606 545 C 618.485 545, 620.745 543.912, 622.839 542 C 624.645 540.350, 626.445 539, 626.839 539 C 627.232 539, 630.461 535.461, 634.014 531.136 C 637.567 526.810, 642.260 522.198, 644.442 520.886 C 646.625 519.574, 650.141 517.481, 652.256 516.236 C 658.273 512.695, 669.541 511.395, 677.785 513.291 C 681.478 514.140, 687.019 515.093, 690.099 515.408 C 693.178 515.724, 697.678 516.692, 700.099 517.559 C 703.269 518.695, 706.219 518.958, 710.643 518.500 C 716.208 517.924, 717.369 518.157, 722.958 520.979 C 726.352 522.692, 729.887 523.852, 730.814 523.556 C 732.914 522.885, 733.289 516.146, 731.335 514.192 C 729.259 512.116, 729.662 506.692, 732 505.232 C 733.110 504.539, 734 502.900, 734 501.551 C 734 498.696, 735.161 497.820, 739.966 497.046 C 742.902 496.573, 743.554 496.013, 743.816 493.738 C 744.112 491.184, 744.451 491, 748.872 491 C 752.357 491, 754.508 491.662, 757 493.500 C 760.125 495.806, 763 496.748, 763 495.466 C 763 495.172, 760.075 492.195, 756.500 488.851 C 752.925 485.507, 750 482.342, 750 481.819 C 750 481.295, 748.822 479.322, 747.381 477.433 L 744.763 474 734.521 474 C 725.446 474, 723.888 474.265, 720.847 476.329" stroke="#81244d" fill="#81244d" fill-opacity="0.2" fill-rule="evenodd"/><path class="svg-region-OABr" d="M 1016.947 484.840 C 1013.171 487.797, 998.256 492.998, 993.536 493.004 C 991.866 493.006, 989.037 493.900, 987.248 494.990 C 983.394 497.340, 977.982 503.162, 978.649 504.241 C 978.907 504.658, 986.152 505, 994.749 505 L 1010.379 505 1014.940 509.806 C 1017.448 512.449, 1020.737 515.385, 1022.250 516.329 C 1025.274 518.217, 1025.832 520.467, 1023.500 521.362 C 1021.633 522.078, 1021.537 524.608, 1023.350 525.304 C 1024.092 525.589, 1028.930 525.382, 1034.100 524.845 C 1039.270 524.307, 1047.263 523.624, 1051.863 523.327 C 1059.222 522.850, 1061.249 522.259, 1068.763 518.393 C 1073.459 515.977, 1078.107 514, 1079.091 514 C 1080.076 514, 1081.160 513.550, 1081.500 513 C 1081.840 512.450, 1084.751 512, 1087.969 512 C 1093.601 512, 1093.980 512.168, 1098.109 516.500 C 1100.467 518.975, 1102.983 521, 1103.699 521 C 1104.414 521, 1105 521.382, 1105 521.848 C 1105 522.315, 1106.862 523.536, 1109.138 524.562 C 1114.775 527.104, 1125.480 537.986, 1127.955 543.689 C 1130.756 550.146, 1141.967 548.995, 1148.858 541.544 C 1152.758 537.326, 1151.394 534.571, 1141.437 526.555 C 1137.764 523.598, 1134.604 519.261, 1130.187 511.117 C 1128.880 508.707, 1125.580 504.539, 1122.854 501.856 C 1118.320 497.393, 1117.327 496.895, 1111.199 496.008 C 1107.514 495.476, 1101.800 495.016, 1098.500 494.987 C 1093.699 494.945, 1091.501 494.342, 1087.500 491.968 C 1084.750 490.337, 1081.150 488.362, 1079.500 487.579 C 1076.501 486.156, 1076.500 486.157, 1076.196 489.470 C 1075.924 492.439, 1075.459 492.894, 1071.735 493.839 C 1067.417 494.935, 1065 494.096, 1065 491.500 C 1065 488.630, 1061.850 487.596, 1053.929 487.866 C 1048.360 488.056, 1043.839 487.528, 1038.513 486.067 C 1034.369 484.930, 1029.662 484, 1028.054 484 C 1026.446 484, 1024.053 483.591, 1022.737 483.090 C 1020.818 482.361, 1019.670 482.707, 1016.947 484.840" stroke="#81244d" fill="#81244d" fill-opacity="0.2" fill-rule="evenodd"/><path class="svg-region-SOTl" d="M 751.617 438.987 C 748.381 440.020, 745.254 441.346, 744.667 441.933 C 744.080 442.520, 740.540 443, 736.800 443 C 732.933 443, 730 443.431, 730 444 C 730 444.550, 728.763 445, 727.250 445.001 C 725.737 445.001, 721.647 446.351, 718.160 448.001 C 714.673 449.650, 710.982 451, 709.957 451 C 707.186 451, 703 453.143, 703 454.563 C 703 455.877, 697.966 458, 694.851 458 C 691.287 458, 692.998 465.321, 697.030 467.322 C 699.049 468.324, 699.555 469.406, 699.804 473.255 C 700.118 478.114, 702.459 481, 706.087 481 C 707.983 481, 712.485 474.737, 713.376 470.860 C 714.122 467.616, 716.161 466.731, 719.748 468.094 C 724.269 469.813, 728.959 468.265, 733.652 463.505 C 737.956 459.139, 745.803 455.393, 753 454.269 C 757.297 453.598, 759 452.343, 759 449.846 C 759 448.796, 759.675 447.678, 760.500 447.362 C 761.325 447.045, 762 445.695, 762 444.362 C 762 443.028, 761.325 441.678, 760.500 441.362 C 759.675 441.045, 759 439.934, 759 438.893 C 759 436.621, 759.024 436.621, 751.617 438.987" stroke="#995b45" fill="#995b45" fill-opacity="0.2" fill-rule="evenodd"/><path class="svg-region-SOTr" d="M 985.546 439.250 C 986.328 441.835, 991.492 451.729, 993.290 454.087 C 994.013 455.036, 996.851 455.949, 1000.343 456.357 C 1003.556 456.732, 1008.056 458.092, 1010.343 459.378 C 1012.629 460.665, 1016.195 462.677, 1018.266 463.851 C 1020.338 465.024, 1024.950 466.927, 1028.516 468.079 C 1032.082 469.231, 1035 470.749, 1035 471.452 C 1035 472.155, 1035.896 473.869, 1036.991 475.261 C 1038.511 477.193, 1040.525 478.060, 1045.512 478.929 C 1054.283 480.456, 1056.831 481.535, 1058.064 484.241 C 1058.636 485.496, 1060.430 487.284, 1062.052 488.215 C 1063.673 489.146, 1065 490.548, 1065 491.331 C 1065 494.105, 1067.324 494.959, 1071.789 493.826 L 1076 492.757 1076 487.365 C 1076 484.399, 1075.550 481.079, 1075 479.986 C 1074.450 478.894, 1073.550 477.106, 1073 476.014 C 1072.450 474.921, 1072 473, 1072 471.746 C 1072 470.491, 1070.898 467.843, 1069.551 465.861 C 1068.205 463.879, 1066.810 461.093, 1066.453 459.669 C 1065.766 456.932, 1057.518 452, 1053.627 452 C 1052.537 452, 1047.845 450.160, 1043.199 447.911 C 1034.275 443.592, 1028.021 441.558, 1019 440.041 C 1015.975 439.533, 1011.928 438.640, 1010.007 438.058 C 1008.085 437.476, 1001.642 437, 995.689 437 C 984.929 437, 984.869 437.013, 985.546 439.250" stroke="#995b45" fill="#995b45" fill-opacity="0.2" fill-rule="evenodd"/><path class="svg-region-LBPCl" d="M 665.500 332.141 C 664.400 332.764, 662.489 334.188, 661.254 335.307 C 658.758 337.568, 656.982 336.932, 659 334.500 C 661.199 331.851, 659.468 331.818, 653.634 334.398 C 648.353 336.734, 636 347.579, 636 349.879 C 636 351.947, 627.853 360.955, 624.049 363.093 C 621.822 364.344, 620 365.960, 620 366.684 C 620 367.408, 619.605 368, 619.121 368 C 618.638 368, 616.080 370.532, 613.436 373.626 C 610.191 377.424, 609.261 379.052, 610.574 378.635 C 612.219 378.113, 612.517 378.502, 612.509 381.164 C 612.496 385.737, 614.309 385.665, 618.660 380.919 C 624.052 375.037, 631.856 367.669, 633.833 366.592 C 634.750 366.093, 637.627 363.923, 640.227 361.769 C 645.233 357.621, 647 357.570, 647 361.573 C 647 362.923, 647.563 364.935, 648.250 366.044 C 649.280 367.707, 649.237 368.226, 648 369.002 C 646.864 369.715, 646.759 370.358, 647.567 371.655 C 649.910 375.414, 651.540 375.464, 655.963 371.910 C 661.266 367.648, 664.685 362.893, 670.512 351.675 C 674.619 343.768, 675.064 342.260, 674.798 337.175 L 674.500 331.500 671 331.255 C 669.075 331.120, 666.600 331.519, 665.500 332.141" stroke="#daffff" fill="#daffff" fill-opacity="0.2" fill-rule="evenodd"/><path class="svg-region-LBPCr" d="M 1094.527 335.915 C 1093.624 338.760, 1094.747 342.601, 1099.083 351.500 C 1101.228 355.900, 1103.364 361.563, 1103.831 364.084 C 1105.162 371.273, 1109.888 379.765, 1113.201 380.920 C 1115.829 381.836, 1116.113 381.665, 1117.507 378.328 C 1119.240 374.180, 1119.417 371.376, 1118 370.500 C 1117.450 370.160, 1117 367.629, 1117 364.875 C 1117 359.186, 1116.187 357.323, 1110.949 351 C 1108.899 348.525, 1106.881 345.375, 1106.466 344 C 1105.379 340.397, 1102.972 337, 1101.507 337 C 1100.813 337, 1099.685 336.325, 1099 335.500 C 1097.285 333.433, 1095.255 333.621, 1094.527 335.915" stroke="#daffff" fill="#daffff" fill-opacity="0.2" fill-rule="evenodd"/><path class="svg-region-OVl" d="M 660.773 458.560 C 660.465 458.869, 657.214 459.545, 653.549 460.064 C 647.583 460.909, 641.367 463.144, 640 464.934 C 639.725 465.295, 637.700 466.665, 635.500 467.980 C 632.450 469.802, 629.483 470.504, 623.010 470.935 L 614.520 471.500 613.737 476.969 C 613.062 481.677, 611.341 486.146, 605.699 497.834 C 605.079 499.118, 603.206 501.101, 601.536 502.241 C 599.866 503.381, 596.925 505.794, 595 507.604 C 593.075 509.414, 587.524 512.920, 582.665 515.395 C 569.549 522.077, 569.413 522.284, 572.978 530.141 C 574.066 532.538, 574.966 535.737, 574.978 537.250 C 574.990 538.763, 575.450 540, 576 540 C 576.550 540, 577 540.675, 577 541.500 C 577 544.514, 581.088 542.880, 585.654 538.043 C 588.227 535.317, 591.608 532.806, 593.166 532.463 C 594.725 532.121, 596 531.483, 596 531.046 C 596 530.608, 597.237 529.990, 598.750 529.673 C 601.498 529.096, 607.656 523.639, 617.977 512.636 C 621.618 508.754, 625.808 505.620, 630.477 503.287 C 634.340 501.357, 638.335 499.040, 639.355 498.139 C 640.813 496.851, 643.383 496.499, 651.355 496.494 C 659.450 496.489, 662.914 496.002, 668.500 494.083 C 678.065 490.797, 687.570 485.504, 693.207 480.325 C 695.796 477.946, 698.384 476, 698.957 476 C 699.531 476, 700 474.456, 700 472.568 C 700 469.906, 699.336 468.663, 697.038 467.027 C 695.130 465.668, 693.844 463.686, 693.426 461.459 L 692.777 458 677.055 458 C 668.408 458, 661.081 458.252, 660.773 458.560" stroke="#593939" fill="#593939" fill-opacity="0.2" fill-rule="evenodd"/><path class="svg-region-OVr" d="M 1090 462.940 C 1081.404 465.579, 1076 472.742, 1076 481.494 C 1076 486.375, 1076.203 486.834, 1078.637 487.445 C 1080.087 487.809, 1082.674 489.136, 1084.387 490.394 C 1089.142 493.886, 1092.595 494.789, 1103.818 495.472 C 1109.492 495.818, 1115.117 496.480, 1116.318 496.943 C 1120.134 498.417, 1127.648 506.372, 1130.455 511.911 C 1133.471 517.863, 1133.412 517.777, 1138.625 523.815 C 1140.673 526.188, 1143.613 528.783, 1145.158 529.582 C 1146.702 530.380, 1148.687 532.428, 1149.568 534.132 C 1151.437 537.747, 1151.645 537.568, 1155.543 529 C 1157.169 525.425, 1159.126 522.010, 1159.891 521.410 C 1161.448 520.191, 1160.647 513, 1158.955 513 C 1158.430 513, 1158 512.528, 1158 511.952 C 1158 511.375, 1154.951 507.888, 1151.224 504.202 C 1144.194 497.250, 1140 489.306, 1140 482.944 L 1140 480.066 1128.905 479.783 L 1117.810 479.500 1116.441 475.512 C 1115.688 473.319, 1114.606 471.369, 1114.036 471.179 C 1113.466 470.989, 1113 470.177, 1113 469.375 C 1113 466.757, 1109.212 463.771, 1104.811 462.920 C 1099.545 461.903, 1093.351 461.911, 1090 462.940" stroke="#593939" fill="#593939" fill-opacity="0.2" fill-rule="evenodd"/>
    </svg>