<svg xmlns="http://www.w3.org/2000/svg" width="1785" height="1131" viewBox="0 0 1785 1131" version="1.1">
    <path class="svg-region-AAB" d="M 809.500 483.095 C 807.850 483.603, 800.650 484.469, 793.500 485.021 C 786.350 485.572, 778.700 486.453, 776.500 486.977 C 772.048 488.039, 761.633 490.236, 752.500 492.039 C 741.347 494.242, 735.735 496.126, 732.313 498.818 C 728.486 501.829, 721.690 515.040, 720.687 521.419 C 720.348 523.575, 719.545 525.663, 718.903 526.060 C 716.927 527.281, 720.139 530.473, 723.605 530.734 C 725.313 530.863, 728.013 531.648, 729.605 532.478 C 731.197 533.308, 733.227 533.990, 734.117 533.994 C 735.006 533.997, 737.931 534.843, 740.617 535.873 C 743.302 536.903, 749.100 538.902, 753.500 540.314 C 768.546 545.145, 777.336 548.880, 790.869 556.191 C 800.129 561.194, 807.620 561.966, 823 559.504 C 828.775 558.579, 836.875 557.616, 841 557.362 C 845.125 557.109, 852.658 556.249, 857.739 555.451 C 862.821 554.653, 868.783 554, 870.989 554 C 874.746 554, 875 553.817, 875 551.107 C 875 549.458, 874.355 547.966, 873.500 547.638 C 872.675 547.322, 872 546.422, 872 545.638 C 872 544.855, 871.325 543.955, 870.500 543.638 C 868.858 543.008, 868.452 540.366, 869.916 539.833 C 871.330 539.319, 872.447 532, 871.111 532 C 870.500 532, 870 531.550, 870 531 C 870 530.450, 870.675 530, 871.500 530 C 873.741 530, 873.493 525.009, 871.250 524.968 C 869.660 524.939, 869.676 524.803, 871.425 523.480 C 873.224 522.119, 873.273 521.517, 872.168 514.262 C 871.518 509.993, 870.987 504.700, 870.988 502.500 C 870.990 495.341, 869.311 491.304, 865.829 490.090 C 864.109 489.491, 861.343 489, 859.683 489 C 858.023 489, 850.454 487.425, 842.863 485.500 C 828.553 481.871, 816.339 480.991, 809.500 483.095 M 971.500 485.542 C 953.028 487.084, 920.903 487.768, 915.500 486.735 C 911.624 485.993, 911.308 486.148, 905.308 491.735 C 898.183 498.369, 893 507.091, 893 512.445 C 893 514.444, 893.900 517.844, 895 520 C 896.288 522.524, 897 525.894, 897 529.460 C 897 533.794, 897.468 535.468, 899.148 537.148 C 900.899 538.899, 901.084 539.636, 900.148 541.135 C 899.517 542.146, 899 545.379, 899 548.320 C 899 553.194, 899.363 554.058, 903.096 558.084 C 905.349 560.513, 907.873 564.188, 908.705 566.250 C 909.681 568.670, 910.868 570, 912.050 570 C 913.059 570, 916.467 572.260, 919.623 575.023 C 922.780 577.785, 925.832 579.889, 926.404 579.699 C 926.976 579.508, 927.703 578.260, 928.019 576.926 C 928.564 574.624, 928.998 574.494, 936.547 574.375 C 947.071 574.209, 962.019 571.533, 967.236 568.882 C 968.191 568.397, 970.104 568, 971.486 568 C 972.869 568, 974.890 567.110, 975.977 566.023 C 977.065 564.935, 978.582 564.286, 979.348 564.580 C 980.618 565.067, 991.183 560.066, 993.450 557.906 C 993.973 557.408, 995.485 557, 996.810 557 C 998.923 557, 1003.366 555.045, 1014.500 549.216 C 1020.216 546.224, 1030 539.674, 1030 538.839 C 1030 538.377, 1030.675 538, 1031.500 538 C 1032.325 538, 1033 537.550, 1033 537 C 1033 536.450, 1033.900 536, 1035 536 C 1036.726 536, 1037 535.333, 1037 531.135 C 1037 527.848, 1036.376 525.476, 1035.076 523.824 C 1033.616 521.968, 1033.033 519.218, 1032.662 512.439 C 1032.393 507.522, 1031.796 501.250, 1031.336 498.500 L 1030.500 493.500 1022.500 491.936 C 1013.732 490.223, 1005.384 487.406, 1002.921 485.331 C 1001.014 483.723, 992.609 483.780, 971.500 485.542" stroke="#7f3c1a" fill="#7f3c1a" fill-opacity="0.2" fill-rule="evenodd"/><path class="svg-region-APB" d="M 908.838 457.788 C 904.580 462.863, 899.921 473.362, 899.313 479.256 C 898.761 484.602, 898.855 484.920, 901.116 485.386 C 912.628 487.757, 944.707 487.788, 973.483 485.457 C 995.881 483.642, 1000.919 483.630, 1002.921 485.382 C 1005.125 487.311, 1018.466 491.675, 1024.627 492.482 C 1029.516 493.123, 1029.854 493.014, 1031.895 490.147 C 1034.667 486.255, 1039.983 483, 1043.568 483 C 1048.709 483, 1044.507 480.693, 1037.960 479.921 C 1031.526 479.162, 1028 477, 1028 473.814 C 1028 472.782, 1027.438 471.776, 1026.750 471.578 C 1014.880 468.169, 1015.523 468.583, 1015.193 464.135 L 1014.885 460 1010.336 460 C 1006.662 460, 1005.406 460.486, 1003.799 462.528 C 998.673 469.045, 991.821 470.057, 967 467.961 C 947.257 466.294, 942.343 465.198, 933.500 460.493 C 927.015 457.042, 924.144 456.119, 918.338 455.619 C 911.393 455.021, 911.105 455.087, 908.838 457.788 M 847.545 457.785 C 847.151 458.178, 842.929 458.513, 838.164 458.528 C 830.749 458.553, 827.986 459.094, 819 462.285 C 813.225 464.335, 807.069 466.478, 805.319 467.046 C 800.003 468.773, 785.126 470.300, 773.500 470.312 C 764.142 470.321, 761.372 469.927, 754.947 467.669 L 747.393 465.015 743.485 467.008 C 741.336 468.103, 738.936 469, 738.153 469 C 737.370 469, 735.687 470.125, 734.412 471.500 C 732.797 473.243, 731.043 474, 728.619 474 C 725.406 474, 722 476.035, 722 477.955 C 722 479.133, 725.804 479.971, 731.219 479.986 C 736.890 480.003, 744 483.355, 744 486.012 C 744 488.520, 749.849 493.285, 751.890 492.440 C 752.776 492.073, 756.650 491.170, 760.500 490.433 C 764.350 489.695, 770.641 488.398, 774.481 487.550 C 778.320 486.702, 785.745 485.748, 790.981 485.430 C 796.216 485.113, 803.811 484.211, 807.857 483.426 C 819.356 481.197, 826.798 481.626, 842.420 485.418 C 850.164 487.297, 858.663 489.045, 861.307 489.301 L 866.115 489.767 865.487 484.134 C 864.660 476.709, 863.414 473.602, 858.613 467 C 853.467 459.924, 849.072 456.264, 847.545 457.785" stroke="#ac7444" fill="#ac7444" fill-opacity="0.2" fill-rule="evenodd"/><path class="svg-region-PC" d="M 785.500 432.989 C 773.085 433.908, 755.531 438.715, 753.700 441.697 C 753.178 442.548, 750.685 443, 746.509 443 C 742.994 443, 739.840 443.450, 739.500 444 C 739.160 444.550, 738.008 445, 736.940 445 C 734.459 445, 726.253 453.266, 728.155 453.849 C 728.895 454.076, 730.426 455.385, 731.558 456.759 C 733.125 458.660, 734.856 459.376, 738.808 459.756 C 745.111 460.361, 745.711 462.452, 740.750 466.519 L 737.500 469.183 740.500 468.514 C 742.150 468.145, 744.210 467.204, 745.079 466.422 C 747.087 464.613, 747.276 464.625, 752.305 466.886 C 766.236 473.149, 792.551 471.689, 816.102 463.347 C 828.187 459.067, 830.382 458.597, 838.500 458.551 L 847.500 458.500 847.804 454.314 C 848.136 449.747, 845.710 443.480, 841.721 438.602 C 839.577 435.979, 838.550 435.628, 830.926 434.910 C 826.292 434.474, 819.350 433.656, 815.500 433.091 C 807.908 431.979, 799.547 431.950, 785.500 432.989 M 934.500 436.995 C 929.691 437.749, 924.113 440.542, 923.327 442.589 C 923.014 443.406, 921.498 444.726, 919.958 445.522 C 918.418 446.318, 916.180 448.342, 914.986 450.020 C 912.028 454.173, 913.584 456, 920.080 456 C 923.850 456, 926.740 456.959, 933.207 460.356 C 942.380 465.175, 947.410 466.307, 967 467.961 C 991.786 470.054, 998.155 469.170, 1003.427 462.904 L 1006.093 459.736 1004.047 457.829 C 1002.921 456.780, 1002 455.014, 1002 453.905 C 1002 450.868, 996.141 446, 992.485 446 C 990.798 446, 983.585 444.045, 976.458 441.655 C 964.606 437.681, 962.433 437.270, 951 436.839 C 944.125 436.580, 936.700 436.650, 934.500 436.995" stroke="#cda789" fill="#cda789" fill-opacity="0.2" fill-rule="evenodd"/><path class="svg-region-DB" d="M 1026.665 313.065 C 1025.106 313.509, 1023.239 313.645, 1022.517 313.368 C 1021.794 313.091, 1020.905 313.344, 1020.542 313.932 C 1020.170 314.534, 1016.650 315, 1012.476 315 C 1005.983 315, 1004.932 315.258, 1003.950 317.094 C 1003.026 318.820, 1003.212 319.597, 1005.009 321.510 C 1006.208 322.786, 1008.384 324.115, 1009.845 324.461 C 1011.305 324.808, 1015.538 326.034, 1019.250 327.185 C 1025.193 329.028, 1026 329.573, 1026 331.745 C 1026 333.101, 1024.857 335.570, 1023.459 337.231 C 1022.061 338.892, 1021.196 340.530, 1021.537 340.870 C 1021.877 341.210, 1024.697 341.716, 1027.803 341.994 L 1033.450 342.500 1035.149 350.500 C 1039.584 371.373, 1043.464 385.645, 1045.317 387.890 C 1046.233 389.001, 1046.218 389.420, 1045.250 389.746 C 1044.470 390.009, 1044 392.072, 1044 395.237 C 1044 401.401, 1038.830 411.455, 1033.455 415.744 C 1031.555 417.260, 1030 418.978, 1030 419.563 C 1030 420.148, 1028.629 421.939, 1026.953 423.545 C 1024.503 425.893, 1023.965 427.151, 1024.203 429.979 C 1024.495 433.435, 1024.602 433.514, 1030.500 434.596 C 1033.800 435.201, 1039.255 437.115, 1042.623 438.848 C 1045.990 440.581, 1050.162 442.282, 1051.894 442.629 C 1053.625 442.975, 1055.284 443.650, 1055.580 444.129 C 1055.876 444.608, 1059.293 445, 1063.175 445 C 1069.885 445, 1070.556 444.780, 1076.866 440.507 C 1085.848 434.424, 1086.216 434.076, 1088.502 429.500 C 1090.979 424.541, 1091.661 424.034, 1095.884 424.015 C 1101.069 423.992, 1106.524 425.972, 1109.988 429.136 C 1111.712 430.711, 1113.994 432, 1115.059 432 C 1118.405 432, 1129.403 437.782, 1132.581 441.213 C 1134.256 443.021, 1136.177 445.796, 1136.851 447.379 C 1137.524 448.963, 1138.272 450.062, 1138.512 449.821 C 1138.753 449.581, 1138.556 444.862, 1138.076 439.335 C 1137.596 433.808, 1137.384 425.284, 1137.605 420.393 C 1137.826 415.502, 1137.739 412.072, 1137.413 412.771 C 1136.554 414.609, 1131.064 417.239, 1129.410 416.604 C 1128.634 416.306, 1128 415.005, 1128 413.713 C 1128 412.420, 1127.372 409.144, 1126.604 406.432 C 1125.836 403.719, 1124.921 400.236, 1124.570 398.691 C 1123.725 394.969, 1116.802 387.574, 1110.223 383.366 C 1107.312 381.504, 1104.649 379.197, 1104.306 378.240 C 1103.964 377.283, 1102.180 374.415, 1100.342 371.866 C 1097.566 368.016, 1097 366.344, 1097 361.982 C 1097 354.982, 1095.339 349.817, 1091.864 346.012 C 1087.845 341.612, 1087.876 336.708, 1091.934 335.027 C 1097.624 332.671, 1104.022 336.253, 1105.640 342.703 C 1105.996 344.122, 1107.774 345.865, 1110.052 347.027 C 1112.151 348.097, 1114.460 349.775, 1115.184 350.754 C 1115.908 351.733, 1117.668 353.280, 1119.097 354.190 C 1120.525 355.100, 1122.261 357.215, 1122.954 358.889 C 1123.648 360.564, 1125.069 362.204, 1126.112 362.535 C 1127.155 362.866, 1128.636 364.335, 1129.403 365.800 C 1130.170 367.264, 1133.431 370.304, 1136.649 372.555 C 1141.094 375.664, 1142.813 377.592, 1143.804 380.574 C 1145.691 386.257, 1146.475 386.556, 1148.864 382.507 C 1151.798 377.534, 1151.585 376.416, 1147.152 373.482 C 1145.035 372.081, 1142.689 369.788, 1141.939 368.387 C 1141.190 366.986, 1138.759 363.963, 1136.538 361.670 C 1134.317 359.376, 1130.002 354.800, 1126.949 351.500 C 1113.540 337.008, 1099.883 326.223, 1088.542 321.171 C 1081.156 317.881, 1068.486 314.328, 1061 313.448 C 1052.319 312.428, 1029.788 312.176, 1026.665 313.065 M 696.500 314.184 C 683.600 315.976, 673.557 319.679, 666.234 325.342 C 660.072 330.107, 658.903 331.353, 652 340.523 C 649.525 343.810, 647.002 346.950, 646.394 347.500 C 643.311 350.287, 635.679 362.573, 632.681 369.575 C 627.288 382.174, 624.336 387.510, 619.423 393.541 C 615.074 398.881, 614.897 399.336, 616.068 402.164 C 617.297 405.132, 616.963 422.700, 615.363 439.250 L 614.711 446 618.527 446 C 620.625 446, 623.053 445.403, 623.921 444.673 C 626.065 442.870, 632.929 441, 637.399 441 C 639.416 441, 643.374 439.831, 646.194 438.402 C 651.040 435.946, 651.986 435.824, 663.411 436.185 C 676.695 436.604, 679.615 437.557, 684.879 443.188 L 687.860 446.379 694.180 445.021 C 704.295 442.847, 717.658 442.546, 720.529 444.427 C 723.692 446.500, 726.980 446.367, 729.750 444.056 C 731.595 442.517, 732 441.165, 732 436.544 C 732 431.841, 731.297 429.578, 727.750 422.872 C 725.413 418.452, 721.119 411.966, 718.208 408.459 C 711.910 400.869, 709.617 394.503, 711.018 388.500 C 711.532 386.300, 711.963 382.769, 711.976 380.654 C 712 376.796, 714.589 366.374, 715.988 364.500 C 716.399 363.950, 717.514 361.113, 718.466 358.196 C 721.318 349.456, 729.459 335.550, 731.945 335.174 C 734.172 334.837, 740 327.730, 740 325.350 C 740 324.572, 741.073 324, 742.530 324 L 745.060 324 742.905 321.085 C 741.172 318.741, 739.562 317.960, 734.695 317.103 C 731.365 316.517, 728.384 315.639, 728.070 315.152 C 727.266 313.904, 703.711 313.182, 696.500 314.184 M 678.500 331.168 C 675.750 332.255, 671.161 333.723, 668.301 334.429 C 662.246 335.925, 657.155 339.858, 653.972 345.500 C 652.731 347.700, 649.940 351.895, 647.771 354.822 C 645.602 357.748, 642.478 362.862, 640.829 366.185 C 639.180 369.509, 636.151 374.089, 634.098 376.364 C 624.568 386.920, 623.944 390.247, 629.996 398.230 C 632.193 401.128, 633.993 404.465, 633.996 405.644 C 634 407.849, 639.014 414, 640.807 414 C 641.359 414, 643.724 412.401, 646.063 410.448 C 648.401 408.494, 651.734 406.303, 653.468 405.578 C 657.801 403.767, 664.660 395.488, 666.572 389.761 C 668.050 385.331, 672.518 378.132, 681.937 365 C 684.107 361.975, 686.447 358.862, 687.137 358.083 C 687.826 357.304, 688.441 354.445, 688.503 351.730 C 688.581 348.297, 689.110 346.518, 690.242 345.884 C 692.461 344.643, 692.254 331.404, 689.994 329.975 C 687.774 328.572, 684.100 328.953, 678.500 331.168" stroke="#e8b1e4" fill="#e8b1e4" fill-opacity="0.2" fill-rule="evenodd"/><path class="svg-region-MB" d="M 1015.543 344.084 C 1013.468 346.381, 1010.674 350.789, 1009.333 353.880 C 1004.962 363.960, 1003.789 365.862, 998.611 371.270 C 995.800 374.206, 992.154 378.383, 990.509 380.554 C 982.552 391.054, 974.384 396.526, 960 400.993 C 954.225 402.786, 946.386 405.321, 942.580 406.626 C 934.042 409.555, 932.518 409.578, 930.580 406.810 C 929.736 405.606, 928.923 404.819, 928.773 405.060 C 923.581 413.421, 920 421.990, 920 426.051 C 920 429.625, 920.248 430.112, 921.750 429.490 C 922.712 429.091, 925.975 427.973, 929 427.005 C 932.025 426.037, 935.850 424.518, 937.500 423.629 C 941.606 421.416, 962.777 421.386, 972.500 423.578 C 976.350 424.446, 984.017 425.528, 989.537 425.982 C 995.058 426.437, 1001.529 427.335, 1003.918 427.978 C 1006.306 428.621, 1010.565 429.525, 1013.380 429.986 C 1016.196 430.447, 1019.737 431.138, 1021.250 431.521 C 1023.712 432.144, 1024 431.950, 1024 429.670 C 1024 428.237, 1025.312 425.687, 1027 423.839 C 1028.650 422.032, 1030 420.215, 1030 419.801 C 1030 419.387, 1031.612 417.581, 1033.583 415.788 C 1039.277 410.606, 1044 401.289, 1044 395.237 C 1044 392.072, 1044.470 390.009, 1045.250 389.746 C 1046.208 389.424, 1046.228 388.995, 1045.335 387.913 C 1043.827 386.083, 1038.368 366.095, 1035.117 350.500 L 1033.450 342.500 1027.975 341.918 C 1024.964 341.598, 1021.784 341.014, 1020.908 340.622 C 1019.788 340.119, 1018.197 341.146, 1015.543 344.084 M 721.818 350.250 C 720.388 353.137, 718.660 357.300, 717.978 359.500 C 717.297 361.700, 716.402 363.950, 715.990 364.500 C 714.590 366.370, 712 376.792, 711.976 380.654 C 711.963 382.769, 711.535 386.300, 711.025 388.500 C 709.573 394.762, 711.478 400.183, 717.889 408.030 C 720.975 411.807, 725.420 418.633, 727.766 423.199 C 731.345 430.161, 732.030 432.427, 732.016 437.250 C 732.007 440.413, 731.550 443, 731 443 C 730.450 443, 730 443.450, 730 444 C 730 444.550, 731.998 445, 734.441 445 C 736.884 445, 739.160 444.550, 739.500 444 C 739.840 443.450, 743.028 443, 746.584 443 C 752.523 443, 753.125 442.801, 753.980 440.554 C 754.655 438.779, 755.951 437.916, 758.705 437.409 C 760.792 437.025, 763.772 435.651, 765.327 434.355 C 766.882 433.060, 769.357 431.703, 770.827 431.342 C 772.297 430.980, 774.491 430.042, 775.702 429.259 C 784.810 423.363, 810.807 420.822, 824.835 424.457 C 828.110 425.306, 832.636 426, 834.894 426 L 839 426 839 421.817 C 839 419.516, 838.145 415.128, 837.100 412.067 C 836.054 409.005, 834.950 405.375, 834.645 404 C 834.094 401.515, 834.038 401.503, 825.228 402 C 816.502 402.492, 816.292 402.565, 811.542 406.750 C 808.889 409.087, 806.172 411, 805.505 411 C 803.486 411, 799 406.232, 799 404.086 C 799 402.980, 796.525 399.302, 793.500 395.912 C 790.475 392.521, 788 389.411, 788 389 C 788 388.589, 786.313 386.467, 784.250 384.284 C 779.809 379.584, 772.959 375.931, 760.014 371.358 C 754.797 369.515, 748.272 366.506, 745.514 364.670 C 742.756 362.835, 739.262 360.572, 737.748 359.642 C 736.235 358.712, 733.784 356.050, 732.303 353.726 C 729.278 348.980, 725.963 345, 725.035 345 C 724.695 345, 723.248 347.363, 721.818 350.250" stroke="#f9c6c6" fill="#f9c6c6" fill-opacity="0.2" fill-rule="evenodd"/><path class="svg-region-LBl" d="M 748.500 322.536 C 746.850 323.292, 744.311 323.930, 742.858 323.955 C 740.975 323.987, 740.053 324.646, 739.645 326.250 C 738.927 329.078, 733.572 335, 731.734 335 C 730.494 335, 724.997 342.219, 725.002 343.840 C 725.004 344.203, 726.353 346.075, 728 348 C 729.647 349.925, 730.996 351.836, 730.998 352.247 C 731.001 353.372, 738.097 361, 739.140 361 C 739.640 361, 742.295 362.546, 745.041 364.435 C 749.660 367.612, 759.603 372, 762.183 372 C 762.792 372, 767.388 374.064, 772.395 376.587 C 780.388 380.613, 788 386.690, 788 389.045 C 788 389.482, 790.183 392.238, 792.852 395.169 C 795.521 398.101, 798.243 402.151, 798.902 404.168 C 800.024 407.601, 803.559 411, 806.008 411 C 806.602 411, 808.906 409.313, 811.129 407.250 C 816.330 402.424, 817.092 402.154, 825.750 402.070 L 833 402 833 397.689 C 833 394.716, 832.360 392.690, 830.937 391.163 C 829.803 389.946, 827.977 386.148, 826.878 382.725 C 825.780 379.301, 824.008 374.592, 822.941 372.261 C 821.873 369.929, 820.989 366.779, 820.976 365.261 C 820.929 360.036, 818.917 352.728, 815.883 346.764 C 815.397 345.809, 815 344.346, 815 343.514 C 815 342.681, 814.550 342, 814 342 C 813.450 342, 812.982 341.212, 812.961 340.250 C 812.940 339.288, 811.027 337.117, 808.711 335.427 C 804.420 332.294, 798.241 330.641, 786.659 329.524 C 779.725 328.856, 767.245 325.634, 761.123 322.932 C 756.075 320.704, 752.730 320.599, 748.500 322.536" stroke="#d7b230" fill="#d7b230" fill-opacity="0.2" fill-rule="evenodd"/><path class="svg-region-LBr" d="M 972.238 325.794 C 971.007 326.861, 970 328.172, 970 328.707 C 970 330.683, 960.855 334.006, 953 334.885 L 947.500 335.500 944.285 342 C 941.166 348.306, 937.375 361.928, 933.015 382.500 C 931.849 388, 930.469 393.882, 929.948 395.571 C 927.855 402.353, 929.875 409, 934.029 409 C 935.083 409, 940.570 407.480, 946.223 405.622 C 951.875 403.764, 959.518 401.269, 963.206 400.076 C 973.054 396.893, 978.343 393.571, 986.081 385.709 C 989.887 381.843, 993 378.404, 993 378.067 C 993 377.730, 995.487 374.782, 998.528 371.515 C 1001.568 368.248, 1005.193 363.084, 1006.583 360.038 C 1011.651 348.935, 1013.343 346.389, 1019.613 340.428 C 1024.313 335.959, 1026 333.658, 1026 331.718 C 1026 329.349, 1025.312 328.852, 1019.250 326.844 C 1013.445 324.921, 1009.839 324.555, 993.488 324.231 C 975.799 323.879, 974.320 323.988, 972.238 325.794" stroke="#d7b230" fill="#d7b230" fill-opacity="0.2" fill-rule="evenodd"/><path class="svg-region-DMl" d="M 658 357.538 C 656.625 358.303, 654.770 358.945, 653.877 358.965 C 652.985 358.984, 650.388 361.025, 648.107 363.500 C 645.825 365.975, 643.481 368, 642.898 368 C 641.514 368, 632.615 377.334, 628.903 382.680 C 624.869 388.489, 625.108 391.904, 630 398.384 C 632.200 401.298, 634 404.339, 634 405.142 C 634 407.856, 636.487 411.899, 638.807 412.957 C 641.308 414.097, 643.696 413.276, 646.019 410.477 C 646.765 409.579, 649.564 407.734, 652.240 406.378 C 658.323 403.296, 662.249 399.065, 665.584 392 C 667.011 388.975, 669.005 384.863, 670.015 382.863 C 671.810 379.305, 671.809 379.237, 669.937 379.727 C 667.989 380.236, 667.660 379.753, 666.571 374.778 C 666.244 373.280, 664.969 371.117, 663.738 369.971 C 662.073 368.421, 661.372 366.384, 661 362.017 L 660.500 356.148 658 357.538" stroke="#68533d" fill="#68533d" fill-opacity="0.2" fill-rule="evenodd"/><path class="svg-region-DMr" d="M 1115.169 354.750 C 1114.673 355.712, 1114.025 359.310, 1113.729 362.744 C 1113.107 369.957, 1110.469 375.181, 1107.040 375.991 C 1103.226 376.891, 1103.546 378.710, 1108.047 381.710 C 1113.376 385.261, 1121.859 392.868, 1123.122 395.229 C 1124.353 397.528, 1128 411.707, 1128 414.191 C 1128 415.221, 1128.634 416.306, 1129.410 416.604 C 1130.958 417.198, 1137 414.437, 1137 413.135 C 1137 412.687, 1138.037 411.848, 1139.305 411.271 C 1141.001 410.498, 1142.079 408.538, 1143.379 403.860 C 1144.351 400.362, 1146.005 396.112, 1147.053 394.415 C 1148.951 391.343, 1148.949 391.310, 1146.552 386.415 C 1145.229 383.712, 1143.685 380.289, 1143.121 378.809 C 1142.558 377.329, 1139.764 374.547, 1136.913 372.627 C 1134.062 370.708, 1130.993 368.014, 1130.093 366.642 C 1129.193 365.269, 1127.229 363.181, 1125.728 362.001 C 1124.228 360.821, 1123 359.245, 1123 358.500 C 1123 357.127, 1118.424 353, 1116.900 353 C 1116.444 353, 1115.665 353.788, 1115.169 354.750" stroke="#68533d" fill="#68533d" fill-opacity="0.2" fill-rule="evenodd"/><path class="svg-region-PV" d="M 867.853 156.475 C 866.618 157.720, 857.002 159.812, 856.471 158.952 C 856.177 158.477, 855.388 158.295, 854.718 158.548 C 854.048 158.802, 848.469 159.126, 842.321 159.267 C 836.173 159.409, 830.805 159.861, 830.394 160.273 C 829.982 160.684, 830.625 161.934, 831.823 163.050 C 833.020 164.165, 834 166.133, 834 167.423 C 834 168.713, 835.767 173.308, 837.927 177.634 C 840.087 181.960, 842.171 186.850, 842.559 188.500 C 842.947 190.150, 844.345 194.866, 845.666 198.980 C 847.734 205.425, 847.975 207.591, 847.404 214.626 C 846.790 222.198, 846.891 222.871, 848.795 223.890 C 853.212 226.254, 855.086 233.586, 852.886 239.896 C 851.971 242.522, 852.060 243.409, 853.386 244.874 C 855.320 247.011, 855.450 248.628, 853.750 249.405 C 853.063 249.719, 854.075 249.699, 856 249.361 C 857.925 249.022, 860.969 247.461, 862.763 245.891 C 864.558 244.322, 867.317 242.370, 868.893 241.555 C 870.470 240.740, 872.702 238.475, 873.855 236.521 C 875.923 233.016, 880.260 230.425, 882.128 231.579 C 882.656 231.905, 883.750 231.622, 884.560 230.950 C 885.555 230.124, 888.207 229.903, 892.746 230.268 C 898.877 230.760, 899.723 231.111, 902.480 234.302 C 904.141 236.224, 906.962 238.529, 908.750 239.424 C 910.538 240.319, 912 241.421, 912 241.873 C 912 243.208, 915.635 247, 916.915 247 C 918.233 247, 923 251.815, 923 253.146 C 923 253.616, 923.424 254, 923.943 254 C 924.461 254, 925.093 248.488, 925.347 241.750 C 925.601 235.012, 926.319 226.575, 926.944 223 C 927.569 219.425, 928.420 213.350, 928.837 209.500 C 929.415 204.155, 930.587 200.608, 933.795 194.500 C 937.720 187.026, 937.996 185.970, 937.998 178.437 C 938 170.931, 938.190 170.197, 940.750 167.809 C 944.814 164.019, 947.330 163.002, 952.684 162.985 C 958.524 162.966, 962.453 161.090, 957 160.924 C 947.775 160.643, 939.355 159.917, 938 159.286 C 937.175 158.902, 927.500 158.243, 916.500 157.822 C 905.500 157.401, 890.200 156.779, 882.500 156.440 C 874.800 156.101, 868.209 156.117, 867.853 156.475" stroke="#b09658" fill="#b09658" fill-opacity="0.2" fill-rule="evenodd"/><path class="svg-region-Fl" d="M 822.500 160.457 C 820.850 161.169, 816.800 162.058, 813.500 162.432 C 804.439 163.461, 786.017 166.955, 781.500 168.501 C 775.218 170.652, 758.674 177.926, 757.585 179.015 C 757.043 179.557, 755.790 180, 754.800 180 C 753.810 180, 753 180.353, 753 180.784 C 753 181.216, 751.734 182.317, 750.186 183.231 C 748.638 184.145, 744.578 187.386, 741.164 190.432 C 737.750 193.478, 733.504 196.712, 731.729 197.617 C 729.953 198.522, 726.468 201.116, 723.985 203.382 C 720.198 206.836, 717.684 208.943, 710.124 215 C 708.561 216.252, 701.055 227.904, 699.494 231.500 C 696.611 238.143, 695.730 242.978, 695.299 254.508 L 694.887 265.515 698.944 271.791 C 701.175 275.243, 703 278.310, 703 278.607 C 703 278.904, 705.577 281.477, 708.726 284.324 C 711.876 287.171, 715.941 290.963, 717.760 292.750 C 721.529 296.455, 729.927 301, 733.002 301 C 734.140 301, 736.269 301.788, 737.735 302.750 C 739.884 304.162, 743.415 304.597, 755.995 305 C 768.175 305.391, 772.141 305.861, 774.105 307.149 C 775.896 308.322, 777.933 308.649, 781.178 308.283 C 786.501 307.683, 796.367 311.536, 799.892 315.591 C 801.044 316.916, 802.863 318, 803.934 318 C 805.006 318, 806.160 318.450, 806.500 319 C 807.818 321.132, 810.194 319.737, 817.138 312.750 C 823.762 306.085, 842.784 281.991, 845.774 276.477 C 847.282 273.697, 849.453 264.347, 850.935 254.250 C 851.521 250.262, 852.512 243.903, 853.138 240.118 C 854.515 231.793, 853.852 228.698, 849.829 224.675 C 846.818 221.664, 846.772 221.471, 847.408 214.458 C 848.047 207.403, 846.665 198.979, 844.073 194.137 C 843.483 193.034, 843 191.166, 843 189.986 C 843 188.806, 840.975 183.766, 838.500 178.785 C 836.025 173.804, 834 168.805, 834 167.676 C 834 164.544, 829.805 159.002, 827.500 159.088 C 826.400 159.130, 824.150 159.745, 822.500 160.457" stroke="#5ca7a9" fill="#5ca7a9" fill-opacity="0.2" fill-rule="evenodd"/><path class="svg-region-Fr" d="M 959.500 162 C 958.400 162.473, 955.200 162.891, 952.390 162.930 C 948.606 162.982, 946.269 163.682, 943.390 165.627 C 938.172 169.151, 938.035 169.452, 938.001 177.500 C 937.970 184.755, 936.186 191.472, 933.108 195.922 C 930.416 199.815, 929.739 201.900, 928.858 209 C 928.415 212.575, 927.533 218.650, 926.899 222.500 C 926.264 226.350, 925.690 236.250, 925.622 244.500 L 925.500 259.500 929.750 266.108 C 932.087 269.742, 934 273.365, 934 274.158 C 934 274.951, 934.376 276.027, 934.835 276.550 C 935.294 277.072, 936.442 279.602, 937.387 282.171 C 938.332 284.740, 939.757 287.383, 940.553 288.044 C 941.349 288.704, 942 290.227, 942 291.426 C 942 294.030, 947.247 299.193, 951.651 300.923 C 953.384 301.604, 955.825 303.250, 957.076 304.580 C 959.129 306.766, 960.158 307, 967.715 307 C 974.551 307, 976.583 307.371, 978.824 309.028 C 980.332 310.143, 983.167 311.315, 985.123 311.633 C 989.755 312.384, 1005.083 308.572, 1011 305.196 C 1015.315 302.735, 1022.237 301.332, 1040.662 299.187 C 1044.051 298.792, 1047.651 297.742, 1048.662 296.853 C 1049.673 295.964, 1051.625 294.900, 1053 294.489 C 1059.328 292.596, 1065.938 288.397, 1070.779 283.194 C 1076.631 276.905, 1079.447 269.655, 1081.147 256.500 C 1083.372 239.274, 1078.526 221.577, 1069.160 212.730 C 1066.597 210.310, 1062.492 205.745, 1060.038 202.586 C 1057.584 199.428, 1054.659 196.367, 1053.538 195.784 C 1052.417 195.201, 1047.850 192.312, 1043.389 189.363 C 1034.570 183.532, 1025.957 179.341, 1015.927 175.999 C 1012.392 174.821, 1007.165 172.764, 1004.312 171.429 C 1001.458 170.093, 998.045 169, 996.727 169 C 995.409 169, 991.567 168.093, 988.190 166.984 C 984.813 165.876, 979.901 164.687, 977.275 164.344 C 974.649 164, 971.285 163.107, 969.800 162.359 C 966.792 160.845, 962.534 160.696, 959.500 162" stroke="#5ca7a9" fill="#5ca7a9" fill-opacity="0.2" fill-rule="evenodd"/><path class="svg-region-Ol" d="M 491 304 C 490.175 304.533, 487.925 304.977, 486 304.986 C 479.180 305.017, 461.080 309.400, 447 314.429 C 441.775 316.295, 436.587 318.086, 435.470 318.408 C 434.354 318.731, 430.994 320.571, 428.004 322.498 C 425.014 324.424, 421.652 326.005, 420.534 326.011 C 416.902 326.031, 385.130 347.254, 385.043 349.718 C 385.019 350.388, 382.930 352.413, 380.399 354.218 C 373.678 359.013, 363.007 368.787, 359.116 373.715 C 357.255 376.072, 355.118 378, 354.366 378 C 353.615 378, 353 378.342, 353 378.760 C 353 379.178, 351.832 380.780, 350.404 382.320 C 346.465 386.568, 332 408.838, 332 410.655 C 332 411.193, 330.624 414.304, 328.942 417.567 C 327.261 420.830, 325.484 425.300, 324.995 427.500 C 324.505 429.700, 323.400 434.200, 322.538 437.500 C 320.412 445.641, 320.340 465.071, 322.394 476.221 C 324.184 485.942, 330.669 506.493, 334.502 514.595 C 335.876 517.500, 337 520.343, 337 520.913 C 337 521.483, 338.403 524.999, 340.117 528.725 C 341.831 532.451, 344.563 538.875, 346.188 543 C 347.812 547.125, 349.773 551.894, 350.545 553.597 C 351.317 555.301, 353.512 560.790, 355.422 565.796 C 362.179 583.502, 364.336 588.533, 366.444 591.500 C 368.586 594.515, 369.956 597.676, 372.729 606 C 373.554 608.475, 375.583 613.875, 377.239 618 C 378.894 622.125, 381.717 629.325, 383.510 634 C 385.304 638.675, 388.207 645.573, 389.963 649.329 C 391.718 653.084, 393.841 658.484, 394.679 661.329 C 396.234 666.605, 399.631 674.616, 403.078 681.136 C 404.135 683.136, 405 685.461, 405 686.303 C 405 687.145, 405.358 687.983, 405.795 688.167 C 406.232 688.350, 407.536 691.200, 408.692 694.500 C 409.848 697.800, 413.808 707.700, 417.492 716.500 C 421.176 725.300, 428.410 742.942, 433.568 755.704 C 438.726 768.467, 443.822 780.842, 444.891 783.204 C 457.619 811.317, 464.302 824.445, 467.953 828.500 C 468.943 829.600, 470.873 832.300, 472.243 834.500 C 477.241 842.531, 494.289 859, 497.603 859 C 497.880 859, 499.762 860.125, 501.785 861.500 C 503.809 862.875, 506.297 864, 507.315 864 C 508.332 864, 512.390 865.443, 516.332 867.207 C 523.165 870.264, 524.085 870.414, 536 870.411 C 547.445 870.409, 549.049 870.173, 555 867.625 C 558.575 866.094, 564.093 864.017, 567.262 863.009 C 574.326 860.762, 581.062 856.892, 586.437 851.993 C 588.672 849.957, 593.425 846.315, 597 843.900 C 612.122 833.686, 632.304 815.472, 668.135 779.701 C 686.350 761.516, 695.818 751.269, 715.907 728 C 723.991 718.636, 741.927 694.080, 744.645 688.656 C 746.066 685.820, 747.893 682.744, 748.707 681.819 C 751.394 678.763, 761 660.043, 761 657.860 C 761 657.128, 762.183 654.047, 763.629 651.014 C 769.900 637.863, 772 629.504, 772 617.689 C 772 612.412, 771.597 607.060, 771.104 605.797 C 770.611 604.534, 769.639 601.587, 768.944 599.250 C 768.249 596.913, 767.302 595, 766.840 595 C 766.378 595, 766 594.306, 766 593.458 C 766 592.610, 765.542 591.372, 764.982 590.708 C 764.421 590.044, 761.100 585.650, 757.601 580.944 C 750.706 571.670, 744.691 565.201, 732.945 554.429 C 728.789 550.618, 722.573 544.913, 719.131 541.750 C 715.689 538.587, 712.433 536, 711.896 536 C 710.985 536, 705.114 532.219, 704 530.915 C 703.725 530.593, 700.812 529.109, 697.527 527.618 C 694.242 526.127, 690.742 524.171, 689.749 523.273 C 688.490 522.134, 685.443 521.507, 679.697 521.206 C 671.498 520.775, 671.424 520.793, 666.738 524.370 C 664.146 526.349, 659.733 529.166, 656.932 530.631 C 654.131 532.096, 651.472 534.259, 651.024 535.438 C 649.958 538.241, 648.324 539.474, 643.703 540.963 C 641.615 541.635, 637.941 543.832, 635.539 545.843 C 622.263 556.959, 623.183 556.471, 614.805 556.854 L 607.070 557.209 601.027 551.445 C 597.190 547.784, 594.584 544.343, 593.886 542.015 C 592.722 538.129, 593.189 523.856, 594.742 515.891 C 595.559 511.696, 595.477 511.324, 593.820 511.757 C 592.819 512.019, 592 512.631, 592 513.117 C 592 513.602, 591.082 514, 589.960 514 C 588.837 514, 586.650 514.938, 585.098 516.085 C 582.638 517.904, 581.781 518.033, 578.389 517.091 C 576.250 516.497, 572.250 516.004, 569.500 515.996 C 563.529 515.978, 557.216 512.695, 549.055 505.364 C 544.857 501.592, 542.671 498.453, 539.321 491.384 C 536.944 486.371, 535 481.083, 535 479.634 C 535 478.185, 534.550 477, 534 477 C 533.450 477, 533 474.975, 533 472.500 C 533 470.025, 532.550 468, 532 468 C 531.398 468, 531 463.871, 531 457.612 C 531 444.637, 534.270 432.222, 539.818 424.136 C 544.648 417.094, 544.620 417.142, 546.682 412.500 C 547.659 410.300, 550.268 406.678, 552.479 404.452 C 558.234 398.658, 561.365 394.168, 563.343 388.872 C 564.294 386.327, 565.956 383.445, 567.036 382.467 C 568.116 381.490, 569 379.842, 569 378.805 C 569 377.769, 569.989 375.026, 571.198 372.710 C 572.840 369.565, 573.403 366.729, 573.423 361.500 C 573.476 347.142, 568.454 335.591, 557.009 323.750 C 552.889 319.488, 549.199 316, 548.809 316 C 548.419 316, 546.100 314.650, 543.655 313 C 541.210 311.350, 538.782 310, 538.259 310 C 537.735 310, 535.881 309.288, 534.137 308.419 C 525.817 304.268, 495.406 301.153, 491 304" stroke="#aa444d" fill="#aa444d" fill-opacity="0.2" fill-rule="evenodd"/><path class="svg-region-Or" d="M 1294.500 273.709 C 1283.022 276.300, 1270.809 280.537, 1265.770 283.676 C 1263.718 284.954, 1261.655 286, 1261.186 286 C 1260.167 286, 1248.956 293.760, 1247.510 295.466 C 1246.955 296.121, 1244.239 298.066, 1241.476 299.788 C 1238.713 301.509, 1235.310 304.174, 1233.913 305.709 C 1231.411 308.460, 1230.531 309.665, 1225.368 317.422 C 1223.933 319.578, 1222.348 321.828, 1221.846 322.422 C 1218.804 326.016, 1213.336 336.699, 1210.801 344 C 1205.913 358.082, 1205.680 359.649, 1206.627 372.053 L 1207.500 383.500 1210.753 385.125 C 1212.543 386.019, 1217.714 390.069, 1222.244 394.125 C 1236.643 407.016, 1237.549 408.131, 1238.836 414.536 C 1240.464 422.646, 1240.286 438.503, 1238.468 447.185 C 1236.918 454.591, 1231.588 469.706, 1229.913 471.450 C 1229.411 471.972, 1229 473.243, 1229 474.274 C 1229 475.305, 1226.622 478.703, 1223.716 481.824 C 1220.809 484.946, 1217.803 488.748, 1217.034 490.273 C 1214.036 496.226, 1205.271 503, 1200.567 503 C 1199.735 503, 1196.680 504.095, 1193.777 505.434 C 1190.875 506.772, 1187.600 508.013, 1186.500 508.192 C 1185.082 508.422, 1184.412 509.423, 1184.196 511.633 C 1183.905 514.614, 1184.306 515.278, 1188.579 518.896 C 1190.880 520.843, 1189.983 527.486, 1186.784 532.186 C 1185.405 534.214, 1183.998 537.589, 1183.657 539.686 C 1183.149 542.820, 1182.189 544.075, 1178.269 546.725 C 1175.646 548.498, 1171.869 550.523, 1169.877 551.225 C 1167.884 551.926, 1164.284 554.184, 1161.877 556.242 C 1159.469 558.300, 1156.956 560.437, 1156.292 560.992 C 1154.324 562.635, 1149.453 562.144, 1146.768 560.032 C 1145.392 558.950, 1142.424 554.964, 1140.173 551.175 C 1136.057 544.247, 1130.486 536.786, 1127.347 534 C 1126.418 533.175, 1123.784 530.824, 1121.494 528.775 C 1115.203 523.147, 1109.739 521.048, 1101.309 521.022 C 1097.354 521.010, 1093.840 520.550, 1093.500 520 C 1092.756 518.796, 1081.335 518.649, 1080.603 519.833 C 1080.320 520.292, 1078.718 520.465, 1077.044 520.220 C 1074.852 519.898, 1074 520.177, 1074 521.216 C 1074 522.009, 1071.798 523.689, 1069.107 524.950 C 1066.417 526.210, 1062.078 529.444, 1059.465 532.137 C 1056.853 534.830, 1053.544 537.327, 1052.111 537.687 C 1047.991 538.721, 1039.337 544.678, 1036.287 548.579 C 1034.754 550.540, 1031.813 553.021, 1029.750 554.092 C 1027.688 555.164, 1026 556.707, 1026 557.520 C 1026 558.334, 1025.573 559, 1025.052 559 C 1023.231 559, 1012.271 568.863, 1008.760 573.662 C 1002.070 582.806, 995.662 595.473, 993.434 603.960 C 988.846 621.431, 995.038 641.757, 1013.588 670.118 C 1017.048 675.408, 1020.485 680.358, 1021.227 681.118 C 1021.968 681.878, 1023.653 684.300, 1024.971 686.500 C 1026.289 688.700, 1028.650 692.075, 1030.218 694 C 1034.666 699.460, 1034.702 699.508, 1038.468 705.158 C 1044.135 713.660, 1048.441 719.378, 1062.915 737.627 C 1070.387 747.047, 1080.100 759.383, 1084.500 765.042 C 1109.893 797.698, 1114.728 803.063, 1124.916 809.896 C 1127.987 811.955, 1133.200 814.426, 1136.500 815.386 C 1139.800 816.346, 1144.975 817.948, 1148 818.945 C 1173.593 827.383, 1212.887 831.421, 1231.535 827.531 C 1257.413 822.132, 1274.593 808.656, 1296.379 776.665 C 1304.262 765.089, 1333 709.972, 1333 706.428 C 1333 706.004, 1333.601 704.947, 1334.335 704.079 C 1335.069 703.210, 1337.332 698.567, 1339.364 693.759 C 1343.357 684.311, 1350.792 668.233, 1354.512 661 C 1355.786 658.525, 1358.216 653.812, 1359.914 650.528 C 1361.611 647.243, 1363 644.237, 1363 643.849 C 1363 643.148, 1367.514 635.092, 1373.281 625.500 C 1374.934 622.750, 1377.643 618.025, 1379.301 615 C 1380.959 611.975, 1384.607 606.097, 1387.408 601.939 C 1390.209 597.780, 1392.950 593.677, 1393.500 592.820 C 1394.050 591.964, 1400.350 582.463, 1407.500 571.707 C 1424.278 546.468, 1423.970 546.962, 1429.112 537 C 1431.526 532.325, 1433.838 528.350, 1434.250 528.167 C 1434.662 527.983, 1435 527.268, 1435 526.576 C 1435 525.885, 1436.303 522.660, 1437.897 519.410 C 1445.071 504.772, 1449.516 493.212, 1452.089 482.500 C 1454.564 472.195, 1456.754 454.845, 1456.505 447.500 C 1455.878 428.936, 1452.601 402.773, 1449.991 395.501 C 1449.005 392.750, 1447.909 388.503, 1447.557 386.063 C 1447.205 383.623, 1446.274 380.248, 1445.488 378.563 C 1443.837 375.023, 1439.070 361.565, 1438.294 358.250 C 1438.004 357.012, 1437.369 356, 1436.883 356 C 1436.398 356, 1436 355.486, 1436 354.858 C 1436 351.445, 1415.728 323.331, 1410.839 319.963 C 1409.003 318.698, 1404.501 315.039, 1400.835 311.831 C 1397.169 308.624, 1393.933 306, 1393.643 306 C 1393.354 306, 1390.278 303.305, 1386.808 300.012 C 1383.142 296.532, 1378.615 293.322, 1376 292.347 C 1373.525 291.426, 1370.150 289.711, 1368.500 288.537 C 1363.985 285.326, 1349.214 279.206, 1337 275.487 C 1333.975 274.566, 1327.450 273.621, 1322.500 273.388 C 1317.550 273.154, 1310.575 272.826, 1307 272.659 C 1303.425 272.491, 1297.800 272.964, 1294.500 273.709" stroke="#aa444d" fill="#aa444d" fill-opacity="0.2" fill-rule="evenodd"/><path class="svg-region-Pl" d="M 541.500 424.433 C 537.919 426.487, 537.192 427.605, 534.564 435.113 C 532.094 442.166, 531.561 445.449, 531.211 455.750 C 530.921 464.263, 531.131 468, 531.897 468 C 532.535 468, 533 469.871, 533 472.441 C 533 474.884, 533.450 477.160, 534 477.500 C 534.550 477.840, 535 479.142, 535 480.394 C 535 481.645, 536.575 485.906, 538.500 489.861 C 540.425 493.817, 542 497.381, 542 497.782 C 542 498.602, 548.519 505.444, 552.211 508.500 C 557.555 512.922, 564.699 516, 569.635 516.006 C 572.311 516.009, 576.250 516.497, 578.389 517.091 C 581.781 518.033, 582.638 517.904, 585.098 516.085 C 586.650 514.938, 588.465 514, 589.132 514 C 591.542 514, 597.905 510.455, 599.004 508.500 C 600.194 506.383, 605.906 502.454, 614.996 497.500 L 620.500 494.500 620.787 484.038 C 620.945 478.283, 620.609 471.403, 620.039 468.748 C 619.046 464.116, 613.494 455.120, 611.579 455.039 C 611.072 455.018, 609.947 454.399, 609.079 453.665 C 606.858 451.786, 602.302 450.252, 596.744 449.510 C 593.452 449.071, 590.988 447.961, 588.744 445.907 L 585.500 442.938 588.151 437.951 C 591.324 431.983, 590.918 431.563, 581.176 430.722 C 577.483 430.403, 574.122 429.516, 573.097 428.588 C 571.128 426.806, 567.441 426.478, 566.500 428 C 565.300 429.942, 562.353 428.959, 559 425.500 C 555.975 422.379, 555.060 422.008, 550.554 422.069 C 547.214 422.115, 544.143 422.917, 541.500 424.433" stroke="#f9d3d3" fill="#f9d3d3" fill-opacity="0.2" fill-rule="evenodd"/><path class="svg-region-Pr" d="M 1218.500 399.195 C 1217.400 399.819, 1216.275 400.593, 1216 400.915 C 1215.725 401.237, 1212.575 402.982, 1209 404.794 C 1199.410 409.653, 1197.955 410.569, 1195.324 413.406 C 1193.887 414.956, 1191.349 416.240, 1188.975 416.620 C 1186.800 416.968, 1183.959 418.236, 1182.662 419.438 C 1181.365 420.640, 1177.873 422.658, 1174.902 423.924 C 1161.477 429.641, 1148.883 439.610, 1147.359 445.725 C 1146.979 447.251, 1145.852 450.300, 1144.856 452.500 C 1143.664 455.132, 1143.036 458.925, 1143.022 463.589 C 1143 470.522, 1143.084 470.756, 1146.789 474.184 C 1149.107 476.329, 1151.093 479.399, 1151.905 482.095 C 1154.139 489.511, 1155.122 491.802, 1158.062 496.436 C 1161.540 501.920, 1171.472 509.312, 1177.710 511.059 C 1182.100 512.288, 1182.428 512.240, 1183.797 510.179 C 1184.593 508.981, 1186.224 508, 1187.422 508 C 1188.620 508, 1190.028 507.585, 1190.550 507.079 C 1191.073 506.572, 1194.200 505.251, 1197.500 504.143 C 1208.428 500.473, 1210.959 499.039, 1214.109 494.735 C 1215.813 492.406, 1217.457 489.825, 1217.763 489 C 1218.068 488.175, 1220.722 484.946, 1223.659 481.824 C 1226.597 478.703, 1229 475.305, 1229 474.274 C 1229 473.243, 1229.411 471.972, 1229.913 471.450 C 1231.588 469.706, 1236.918 454.591, 1238.468 447.185 C 1240.281 438.525, 1240.479 420.815, 1238.836 414.193 C 1237.318 408.073, 1235.619 405.564, 1230.186 401.416 C 1225.562 397.885, 1222.002 397.209, 1218.500 399.195" stroke="#f9d3d3" fill="#f9d3d3" fill-opacity="0.2" fill-rule="evenodd"/><path class="svg-region-OLl" d="M 605 397.034 C 600.883 399.550, 592.353 403, 590.248 403 C 588.848 403, 586.859 404.202, 585.408 405.926 C 584.054 407.536, 581.639 409.140, 580.043 409.491 C 576.247 410.324, 567.995 420.182, 568.011 423.865 C 568.027 427.332, 573.451 429.994, 582.382 430.919 C 585.983 431.292, 589.247 431.914, 589.635 432.301 C 590.022 432.689, 589.288 435.249, 588.004 437.991 C 585.698 442.915, 585.693 443.003, 587.585 445.126 C 590.052 447.896, 595.055 449.997, 599.218 450.012 C 601.023 450.019, 604.458 451.144, 606.852 452.512 C 610.548 454.625, 613.901 455.669, 614.037 454.750 C 614.756 449.912, 616.945 418.234, 616.956 412.500 C 616.977 402.252, 616.563 400.970, 612.348 398.250 C 608.586 395.822, 607.325 395.614, 605 397.034" stroke="#c4875d" fill="#c4875d" fill-opacity="0.2" fill-rule="evenodd"/><path class="svg-region-OLr" d="M 1150.375 391.638 C 1143.705 400.308, 1143.639 400.524, 1143.567 413.994 C 1143.520 422.778, 1144.077 429.220, 1145.438 435.640 L 1147.376 444.781 1150.155 440.945 C 1153.412 436.449, 1162.378 430.238, 1173.204 424.978 C 1177.441 422.920, 1181.618 420.524, 1182.487 419.655 C 1183.947 418.196, 1189.996 416.019, 1192.628 416.006 C 1194.436 415.997, 1196.089 413.396, 1195.410 411.627 C 1195.067 410.732, 1194.020 410, 1193.083 410 C 1192.147 410, 1189.008 407.975, 1186.109 405.500 C 1183.209 403.025, 1180.218 401, 1179.461 401 C 1178.704 401, 1176.829 399.399, 1175.293 397.442 C 1172.151 393.440, 1163.936 389.227, 1157.571 388.355 C 1153.574 387.807, 1153.186 387.984, 1150.375 391.638" stroke="#c4875d" fill="#c4875d" fill-opacity="0.2" fill-rule="evenodd"/><path class="svg-region-VOC" d="M 921.547 414.602 C 920.758 418.807, 921.593 420.469, 922.560 416.618 C 922.921 415.178, 923.570 414, 924.001 414 C 924.433 414, 925.045 413.325, 925.362 412.500 C 925.746 411.498, 925.320 411, 924.080 411 C 922.739 411, 922.035 412.001, 921.547 414.602 M 797 422.883 C 795.625 423.354, 791.603 424.284, 788.063 424.948 C 784.523 425.612, 779.573 427.187, 777.063 428.448 C 774.553 429.709, 771.375 431.086, 770 431.507 C 768.625 431.929, 766.228 433.337, 764.673 434.637 C 763.119 435.937, 760.842 437, 759.614 437 C 757.317 437, 752.526 439.911, 754.730 439.968 C 755.406 439.986, 757.656 439.353, 759.730 438.562 C 772.871 433.551, 798.900 430.918, 814.500 433.022 C 818.900 433.615, 826.281 434.461, 830.903 434.900 C 838.835 435.655, 839.462 435.890, 842.076 439.093 C 843.600 440.960, 845.179 442.155, 845.585 441.749 C 846.568 440.766, 844.053 433.289, 842.231 431.777 C 841.439 431.120, 840.400 429.551, 839.921 428.291 C 839.196 426.386, 838.314 426, 834.684 426 C 832.282 426, 828.138 425.344, 825.473 424.542 C 819.662 422.793, 800.514 421.677, 797 422.883 M 937.869 423.385 C 936.423 424.140, 932.205 425.767, 928.497 427.001 C 920.639 429.616, 918 431.864, 918 435.941 C 918 437.559, 917.550 439.160, 917 439.500 C 916.450 439.840, 916 441.943, 916 444.174 L 916 448.230 918.750 446.453 C 920.263 445.476, 922.512 443.601, 923.749 442.288 C 928.197 437.564, 932.273 436.650, 947.929 436.868 C 962.123 437.066, 962.575 437.142, 975.657 441.535 C 982.971 443.991, 990.465 446, 992.311 446 C 994.712 446, 996.497 446.846, 998.583 448.972 C 1001.928 452.381, 1003.750 452.724, 1005.537 450.280 C 1006.464 449.013, 1007.939 448.639, 1011.147 448.859 C 1016 449.192, 1025 451.842, 1025 452.938 C 1025 453.658, 1033.111 458, 1034.455 458 C 1034.860 458, 1036.610 459.012, 1038.344 460.250 C 1042.173 462.982, 1053.402 466.939, 1057.429 466.974 C 1060.359 467, 1065.967 465.529, 1069.236 463.877 C 1070.191 463.395, 1076.985 463, 1084.333 463 C 1094.356 463, 1098.463 463.384, 1100.778 464.539 C 1105.345 466.818, 1113.352 467.457, 1119.807 466.059 C 1122.938 465.380, 1126.499 464.634, 1127.720 464.401 C 1128.942 464.168, 1131.602 462.182, 1133.631 459.988 C 1135.661 457.795, 1137.945 456, 1138.708 456 C 1140.206 456, 1145 451.283, 1145 449.809 C 1145 449.314, 1143.430 449.204, 1141.511 449.564 C 1138.144 450.196, 1137.957 450.067, 1136.141 445.859 C 1135.106 443.462, 1133.413 440.769, 1132.380 439.876 C 1129.581 437.459, 1117.840 432, 1115.439 432 C 1114.289 432, 1112.313 430.898, 1111.048 429.551 C 1106.025 424.205, 1090 421.849, 1090 426.457 C 1090 429.231, 1083.781 435.992, 1077.211 440.360 C 1070.685 444.699, 1069.805 445, 1063.675 445 C 1060.068 445, 1056.877 444.611, 1056.583 444.135 C 1056.289 443.659, 1054.456 443.011, 1052.509 442.695 C 1050.563 442.379, 1045.940 440.582, 1042.235 438.701 C 1038.531 436.820, 1033.382 434.969, 1030.794 434.586 C 1028.206 434.204, 1024.831 433.265, 1023.294 432.501 C 1021.757 431.737, 1017.575 430.642, 1014 430.067 C 1010.425 429.493, 1005.925 428.542, 1004 427.953 C 1002.075 427.365, 995.775 426.489, 990 426.006 C 984.225 425.524, 976.575 424.441, 973 423.600 C 964.451 421.588, 941.581 421.448, 937.869 423.385 M 645.151 438.459 C 642.209 439.857, 638.159 441.007, 636.151 441.015 C 632.080 441.032, 625.558 443.042, 623.768 444.832 C 623.126 445.474, 622.015 446, 621.300 446 C 618.990 446, 619.719 455.044, 622.474 460.573 C 626.660 468.972, 628.013 469.391, 653.500 470.187 C 665.600 470.565, 679.126 471.171, 683.558 471.534 C 691.143 472.156, 691.788 472.050, 694.558 469.734 C 698.979 466.037, 704.935 463.358, 710.302 462.654 C 715.900 461.920, 721.479 458.374, 729.765 450.284 L 735.500 444.685 729.147 445.404 C 723.968 445.990, 722.459 445.821, 720.990 444.491 C 719.517 443.158, 717.472 442.932, 709.843 443.257 C 704.704 443.477, 697.627 444.274, 694.116 445.030 C 687.762 446.396, 687.723 446.391, 685.616 443.874 C 684.452 442.483, 681.925 440.255, 680 438.923 C 676.804 436.711, 675.370 436.475, 663.500 436.209 C 651.329 435.937, 650.159 436.081, 645.151 438.459" stroke="#ff8f93" fill="#ff8f93" fill-opacity="0.2" fill-rule="evenodd"/><path class="svg-region-OABl" d="M 689.990 484.012 C 685.073 489.688, 673.301 499.080, 661 507.142 C 655.052 511.041, 647.110 513.463, 643.657 512.432 C 640.655 511.535, 632.210 503.216, 630.022 499 C 627.939 494.986, 623.560 490, 622.117 490 C 621.579 490, 620.995 491.003, 620.820 492.229 C 620.599 493.766, 618.748 495.395, 614.854 497.479 C 601.853 504.436, 595.687 510.056, 594.500 516.029 C 593.071 523.223, 592.749 539.979, 593.982 542.957 C 594.648 544.564, 597.816 548.381, 601.022 551.440 L 606.852 557 613.492 557 C 621.221 557, 621.777 556.748, 632.734 548.291 C 637.299 544.767, 642.489 541.396, 644.267 540.800 C 648.127 539.507, 651 537.190, 651 535.371 C 651 534.645, 652.462 533.301, 654.250 532.383 C 656.038 531.466, 660.825 528.529, 664.889 525.857 C 671.466 521.533, 672.880 521, 677.773 521 C 680.795 521, 684.895 521.434, 686.884 521.964 C 688.873 522.495, 693.064 523.199, 696.198 523.530 C 699.808 523.911, 702.906 524.925, 704.650 526.297 C 708.259 529.135, 715.024 529.625, 717.887 527.254 C 719.089 526.259, 720.376 523.554, 720.862 521 C 722.179 514.070, 728.476 501.871, 732.295 498.849 C 734.138 497.391, 738.745 495.332, 742.533 494.275 L 749.421 492.352 746.710 489.996 C 745.220 488.700, 744 486.866, 744 485.921 C 744 483.269, 736.768 480, 730.903 480 C 728.134 480, 725.067 479.571, 724.087 479.047 C 722.789 478.352, 720.340 478.894, 715.050 481.047 C 711.058 482.671, 706.018 484, 703.850 484 C 700.517 484, 699.644 483.537, 698.203 481.006 C 697.267 479.360, 696.207 478.010, 695.849 478.006 C 695.491 478.003, 692.854 480.705, 689.990 484.012" stroke="#81244d" fill="#81244d" fill-opacity="0.2" fill-rule="evenodd"/><path class="svg-region-OABr" d="M 1067.452 478.923 C 1067.766 479.431, 1069.337 480.135, 1070.942 480.487 C 1074.540 481.277, 1075.499 482.403, 1076.918 487.500 C 1077.531 489.700, 1078.700 492.374, 1079.516 493.441 C 1080.332 494.509, 1081 496.421, 1081 497.691 C 1081 499.639, 1080.481 500, 1077.680 500 C 1074.122 500, 1066.626 494.548, 1065.558 491.183 C 1064.633 488.269, 1055.209 484.156, 1047.798 483.432 C 1041.965 482.862, 1040.639 483.060, 1037.566 484.959 C 1031.529 488.690, 1030.111 491.594, 1031.197 498 C 1031.709 501.025, 1032.368 507.550, 1032.660 512.500 C 1033.023 518.658, 1033.688 522.057, 1034.764 523.265 C 1036.264 524.948, 1036.731 526.782, 1036.917 531.719 C 1037.013 534.289, 1038.481 534.004, 1043.940 530.356 C 1046.033 528.957, 1048.215 528.267, 1049.514 528.593 C 1050.786 528.912, 1052.173 528.497, 1052.947 527.564 C 1053.661 526.704, 1054.907 526, 1055.717 526 C 1057.941 526, 1071.321 521.864, 1072.758 520.732 C 1073.451 520.187, 1075.588 519.996, 1077.508 520.308 C 1079.429 520.619, 1081 520.453, 1081 519.937 C 1081 518.675, 1092.717 518.734, 1093.500 520 C 1093.840 520.550, 1097.204 521, 1100.976 521 C 1109.178 521, 1115.472 523.389, 1121.515 528.794 C 1123.793 530.832, 1126.418 533.175, 1127.347 534 C 1130.108 536.451, 1135.260 543.292, 1139 549.472 C 1145.094 559.543, 1147.664 562, 1152.104 562 C 1154.247 562, 1156 561.550, 1156 561 C 1156 560.450, 1156.563 559.985, 1157.250 559.967 C 1157.938 559.949, 1160.288 558.149, 1162.473 555.967 C 1164.658 553.785, 1166.908 551.996, 1167.473 551.990 C 1169.644 551.970, 1179.399 546.846, 1181.182 544.790 C 1182.212 543.603, 1183.280 541.477, 1183.556 540.066 C 1183.832 538.655, 1185.395 534.944, 1187.029 531.821 C 1190.897 524.426, 1190.890 520.809, 1187 517.342 C 1185.350 515.872, 1184 514.154, 1184 513.524 C 1184 512.894, 1181.638 511.800, 1178.750 511.093 C 1175.862 510.386, 1171.523 508.427, 1169.107 506.739 C 1165.180 503.996, 1164.410 503.793, 1161.857 504.835 C 1160.285 505.476, 1157.537 506.510, 1155.750 507.134 C 1153.963 507.758, 1151.719 508.658, 1150.764 509.134 C 1148.452 510.287, 1138.270 510.246, 1137.550 509.080 C 1137.237 508.574, 1134.855 506.972, 1132.257 505.520 C 1128.234 503.272, 1126.417 502.898, 1120.016 503.001 C 1110.238 503.160, 1102.582 500.946, 1098.046 496.647 C 1096.096 494.798, 1092.475 491.920, 1090 490.249 C 1087.525 488.579, 1084.375 485.999, 1083 484.515 C 1081.625 483.031, 1078.728 480.959, 1076.562 479.909 C 1072.505 477.942, 1066.441 477.286, 1067.452 478.923" stroke="#81244d" fill="#81244d" fill-opacity="0.2" fill-rule="evenodd"/><path class="svg-region-SOTl" d="M 724.533 454.947 C 722.795 457.760, 714.423 462.049, 708.954 462.930 C 705.654 463.461, 701.615 464.850, 699.977 466.016 C 697.269 467.944, 697 468.653, 697 473.846 C 697 481.317, 698.814 484, 703.867 484 C 708.823 484, 719.887 479.601, 722.781 476.480 C 724.367 474.770, 726.145 474, 728.507 474 C 731.089 474, 732.795 473.138, 735.433 470.500 C 737.358 468.575, 739.430 467, 740.038 467 C 741.791 467, 744 464.323, 744 462.199 C 744 460.587, 743.113 460.169, 738.808 459.756 C 734.747 459.365, 733.160 458.685, 731.521 456.628 C 729.447 454.028, 725.664 453.117, 724.533 454.947" stroke="#995b45" fill="#995b45" fill-opacity="0.2" fill-rule="evenodd"/><path class="svg-region-SOTr" d="M 1005.696 450.116 C 1005.048 451.152, 1003.952 452, 1003.259 452 C 1002.567 452, 1002 453.073, 1002 454.385 C 1002 457.548, 1005.890 460, 1010.907 460 C 1014.853 460, 1014.887 460.033, 1015.193 464.135 C 1015.523 468.583, 1014.880 468.169, 1026.750 471.578 C 1027.438 471.776, 1028 473.065, 1028 474.443 C 1028 477.600, 1032.287 480, 1037.926 480 C 1040.189 480, 1043.385 480.874, 1045.226 481.996 C 1047.027 483.094, 1049.949 483.994, 1051.720 483.996 C 1056.244 484.002, 1061.478 487.230, 1068.094 494.097 C 1072.972 499.160, 1074.294 500, 1077.390 500 C 1080.408 500, 1081 499.650, 1081 497.868 C 1081 496.695, 1080.149 494.333, 1079.108 492.618 C 1078.067 490.903, 1076.913 488.069, 1076.544 486.319 C 1075.794 482.771, 1074.669 481.591, 1071 480.504 C 1067.165 479.368, 1065.294 477.260, 1063.369 471.905 C 1061.723 467.327, 1061.376 467, 1058.173 467 C 1054.083 467, 1041.866 462.752, 1037.963 459.974 C 1036.439 458.888, 1034.860 458, 1034.455 458 C 1033.133 458, 1025 453.664, 1025 452.959 C 1025 451.822, 1016.830 449.213, 1011.686 448.706 C 1007.734 448.316, 1006.662 448.569, 1005.696 450.116" stroke="#995b45" fill="#995b45" fill-opacity="0.2" fill-rule="evenodd"/><path class="svg-region-LBPCl" d="M 678.500 331.123 C 675.750 332.239, 671.161 333.729, 668.301 334.433 C 661.838 336.025, 657.334 339.757, 652.533 347.500 C 650.487 350.800, 647.140 355.897, 645.096 358.827 C 643.053 361.757, 640.896 365.437, 640.305 367.004 C 639.243 369.816, 639.263 369.838, 641.865 368.694 C 643.314 368.057, 646.075 365.871, 648 363.837 C 649.925 361.803, 653.638 359.233, 656.250 358.126 L 661 356.112 661 361.480 C 661 365.698, 661.518 367.462, 663.419 369.722 C 664.750 371.303, 666.241 374.149, 666.732 376.047 C 667.224 377.944, 668.300 379.627, 669.124 379.785 C 670.397 380.030, 678.081 371.544, 681.512 366.105 C 684.471 361.414, 686.618 358.350, 687.837 357.078 C 688.743 356.134, 689.003 354.420, 688.612 351.973 C 688.151 349.091, 688.449 347.904, 689.983 346.516 C 691.587 345.063, 691.916 343.543, 691.798 338.121 C 691.719 334.479, 691.227 330.938, 690.705 330.250 C 689.324 328.433, 684.231 328.797, 678.500 331.123" stroke="#daffff" fill="#daffff" fill-opacity="0.2" fill-rule="evenodd"/><path class="svg-region-LBPCr" d="M 1090.750 335.025 C 1087.929 336.757, 1088.493 342.321, 1091.864 346.012 C 1095.407 349.891, 1096.987 354.960, 1097.042 362.616 C 1097.079 367.850, 1097.457 368.923, 1100.462 372.324 C 1106.826 379.528, 1112.645 375.326, 1113.728 362.744 C 1114.024 359.310, 1114.706 355.943, 1115.245 355.263 C 1117.234 352.749, 1115.142 349.157, 1110.492 347.099 C 1107.286 345.681, 1106 344.528, 1106 343.072 C 1106 339.518, 1100.967 334.931, 1096.500 334.414 C 1094.300 334.159, 1091.713 334.434, 1090.750 335.025" stroke="#daffff" fill="#daffff" fill-opacity="0.2" fill-rule="evenodd"/><path class="svg-region-OVl" d="M 614.316 451.250 C 613.284 456.275, 613.360 456.654, 616.079 460.093 C 619.589 464.532, 620.944 470.152, 620.976 480.399 C 620.999 488.103, 621.087 488.382, 624.508 491.705 C 626.438 493.579, 628.877 496.775, 629.928 498.806 C 632.233 503.262, 640.611 511.521, 643.794 512.475 C 646.748 513.360, 655.913 511.139, 658.500 508.910 C 659.600 507.963, 662.573 505.908, 665.107 504.344 C 673.489 499.171, 682.403 491.964, 689.750 484.424 C 696.584 477.410, 697 476.723, 697 472.461 L 697 467.940 694.100 470.084 C 691.487 472.016, 690.420 472.161, 683.350 471.545 C 679.032 471.168, 665.600 470.554, 653.500 470.180 C 633.966 469.576, 631.136 469.276, 628.256 467.500 C 626.472 466.400, 625.010 464.938, 625.006 464.250 C 625.003 463.563, 624.599 463, 624.109 463 C 622.572 463, 620 455.162, 620 450.480 C 620 446.470, 619.758 446, 617.697 446 C 615.723 446, 615.241 446.749, 614.316 451.250" stroke="#593939" fill="#593939" fill-opacity="0.2" fill-rule="evenodd"/><path class="svg-region-OVr" d="M 1143.545 452.291 C 1142.719 453.551, 1140.571 455.119, 1138.772 455.775 C 1136.972 456.432, 1134.600 458.320, 1133.500 459.973 C 1130.881 463.907, 1129.924 464.266, 1115.736 466.638 C 1111.803 467.295, 1100.329 465.341, 1099.412 463.857 C 1098.690 462.690, 1071.409 462.764, 1069.236 463.940 C 1068.281 464.456, 1066.263 465.140, 1064.750 465.459 C 1061.462 466.152, 1061.301 467.864, 1063.973 473.750 C 1065.589 477.310, 1066.367 478, 1068.763 478 C 1072.926 478, 1079.814 481.613, 1085.207 486.625 C 1087.796 489.031, 1090.306 491, 1090.784 491 C 1091.262 491, 1093.869 493.041, 1096.577 495.535 C 1099.285 498.029, 1102.625 500.320, 1104 500.625 C 1105.375 500.930, 1108.075 501.674, 1110 502.278 C 1111.925 502.883, 1116.650 503.259, 1120.500 503.114 C 1126.510 502.889, 1128.172 503.228, 1132.250 505.511 C 1134.862 506.974, 1137 508.583, 1137 509.085 C 1137 510.333, 1149.726 510.252, 1150.500 509 C 1150.840 508.450, 1152.009 508, 1153.099 508 C 1155.207 508, 1163 504.359, 1163 503.374 C 1163 503.051, 1161.695 501.140, 1160.100 499.126 C 1156.794 494.952, 1153.693 488.454, 1152.047 482.248 C 1151.346 479.608, 1149.419 476.512, 1146.959 474.077 C 1143.142 470.297, 1143 469.921, 1143 463.546 C 1143 459.911, 1143.652 455.375, 1144.449 453.468 C 1146.115 449.480, 1145.722 448.968, 1143.545 452.291" stroke="#593939" fill="#593939" fill-opacity="0.2" fill-rule="evenodd"/>
    </svg>