<svg xmlns="http://www.w3.org/2000/svg" width="1785" height="1131" viewBox="0 0 1785 1131" version="1.1">
    <path class="svg-region-AAB" d="M 817 460.972 C 805.127 468.447, 804.899 468.510, 790 468.402 C 782.575 468.348, 772.714 467.949, 768.087 467.514 C 761.107 466.859, 759.487 466.981, 758.573 468.231 C 757.967 469.060, 755.903 470.077, 753.986 470.492 C 752.069 470.907, 748.435 472.287, 745.912 473.558 C 737.994 477.547, 729.324 480, 723.141 480 L 717.219 480 716.833 487.646 C 716.502 494.200, 716.129 495.502, 714.223 496.768 C 712.294 498.048, 712 499.129, 712 504.931 C 712 508.778, 712.531 512.283, 713.250 513.184 C 713.938 514.046, 717.183 516.194, 720.462 517.958 C 726.556 521.236, 735.199 527.745, 742.710 534.714 C 745.026 536.862, 748.176 539.256, 749.710 540.033 C 751.245 540.811, 753.573 542.247, 754.885 543.224 C 756.197 544.201, 758.152 545, 759.230 545 C 760.309 545, 762.386 545.822, 763.846 546.826 C 768.283 549.877, 789.543 553.482, 793.631 551.875 C 794.659 551.471, 797.196 551.109, 799.268 551.070 C 803.987 550.982, 816.192 547.752, 822.059 545.039 C 828.799 541.922, 836.979 537.329, 838.922 535.571 C 839.876 534.707, 841.626 534, 842.810 534 C 844.326 534, 845.163 533.187, 845.644 531.250 C 846.019 529.737, 847.390 526.884, 848.691 524.908 C 852.518 519.098, 852.725 508.029, 849.205 497.500 C 848.653 495.850, 846.929 490.450, 845.372 485.500 C 843.816 480.550, 841.072 473.575, 839.274 470 C 837.477 466.425, 836.005 462.262, 836.003 460.750 C 836 458.294, 835.639 458, 832.625 458 C 830.769 458, 827.956 457.748, 826.375 457.439 C 824.147 457.005, 822.037 457.800, 817 460.972 M 923.750 460.689 C 922.788 460.941, 922 461.511, 922 461.957 C 922 462.402, 921.139 462.992, 920.086 463.267 C 918.585 463.660, 918.028 465.029, 917.497 469.634 C 917.126 472.860, 916.379 477.246, 915.837 479.380 C 911.122 497.968, 908.824 527.302, 911.404 535.989 C 913.522 543.120, 917.629 549.909, 920.484 550.994 C 928.331 553.977, 940.874 555.998, 951.329 555.962 C 969.148 555.901, 996.877 549.730, 1009 543.128 C 1010.679 542.213, 1013.989 540.506, 1017 539 C 1018.100 538.450, 1019.894 537.550, 1020.986 537 C 1022.079 536.450, 1023.654 536, 1024.486 536 C 1025.340 536, 1026 535.116, 1026 533.975 C 1026 532.785, 1026.944 531.592, 1028.291 531.079 C 1032.333 529.543, 1033.440 527.092, 1034.136 518.134 C 1034.709 510.770, 1034.529 508.997, 1032.882 505.769 C 1031.825 503.696, 1030.287 502, 1029.465 502 C 1027.440 502, 1024.372 496.726, 1023.604 491.926 C 1023.110 488.836, 1022.539 488, 1020.922 488 C 1018.414 488, 1015.246 486.429, 1012.250 483.701 C 1010.511 482.116, 1010 480.556, 1010 476.826 C 1010 471.652, 1009.578 471.248, 1006.559 473.532 C 1004.019 475.453, 1001.666 475.345, 995 473 C 990.612 471.456, 986.671 471.053, 975.500 471.006 C 964.146 470.959, 959.610 470.483, 951.500 468.488 C 946 467.135, 939.834 466.022, 937.797 466.014 C 933.082 465.996, 929.308 464.284, 928.678 461.878 C 928.195 460.028, 927.199 459.788, 923.750 460.689" stroke="#7f3c1a" fill="#7f3c1a" fill-opacity="0.2" fill-rule="evenodd"/><path class="svg-region-PC" d="M 935.544 424.745 C 935.179 425.697, 934.626 429.406, 934.315 432.988 C 933.974 436.925, 932.570 442.236, 930.764 446.420 C 928.381 451.944, 927.873 454.327, 928.248 458.229 C 928.506 460.918, 929.186 463.586, 929.758 464.158 C 930.330 464.730, 934.106 465.579, 938.149 466.045 C 942.192 466.510, 949.100 467.809, 953.500 468.930 C 959.622 470.491, 964.734 470.973, 975.275 470.985 C 986.459 470.997, 990.120 471.376, 994.740 473 C 1002.180 475.615, 1004.568 475.523, 1007.586 472.505 C 1008.959 471.132, 1011.347 469.355, 1012.894 468.555 C 1014.930 467.502, 1017.230 464.088, 1021.236 456.172 L 1026.766 445.243 1022.633 443.948 C 1020.360 443.235, 1018.072 442.280, 1017.550 441.826 C 1017.027 441.372, 1015.550 441, 1014.267 441 C 1012.983 441, 1009.713 439.875, 1007 438.500 C 1002.359 436.148, 1001.130 436, 986.283 435.994 C 974.193 435.989, 969.826 435.636, 967.618 434.484 C 966.032 433.658, 962.985 432.701, 960.846 432.359 C 958.706 432.017, 956.714 431.346, 956.419 430.869 C 956.124 430.391, 954.964 430, 953.842 430 C 951.636 430, 945.424 427.403, 943 425.467 C 940.197 423.228, 936.272 422.848, 935.544 424.745 M 797 426.121 C 794.678 427.366, 791.453 427.997, 787.417 427.998 C 784.071 427.999, 780.999 428.337, 780.590 428.750 C 780.181 429.163, 771.443 430.175, 761.173 431 L 742.500 432.500 741.893 437 C 741.559 439.475, 740.546 443.469, 739.643 445.876 C 737.172 452.457, 737.532 456.135, 741.084 460.612 C 742.781 462.751, 744.758 464.833, 745.478 465.240 C 747.111 466.163, 772.337 468.169, 789.044 468.704 C 800.156 469.060, 802.154 468.863, 806.544 466.981 C 809.270 465.813, 812.175 464.259, 813 463.528 C 813.825 462.797, 816.525 461.081, 819 459.716 C 822.678 457.686, 824.439 457.324, 828.640 457.733 L 833.781 458.233 833.242 453.458 C 832.946 450.832, 831.651 446.842, 830.364 444.592 C 829.077 442.341, 828.019 439.465, 828.012 438.200 C 827.998 435.513, 825.772 430.886, 823.644 429.119 C 817.873 424.330, 803.384 422.700, 797 426.121" stroke="#cda789" fill="#cda789" fill-opacity="0.2" fill-rule="evenodd"/><path class="svg-region-DB" d="M 1062.500 322.106 C 1057 322.546, 1045.188 322.970, 1036.250 323.050 C 1022.251 323.175, 1017.675 323.800, 1020.750 325.167 C 1021.163 325.350, 1022.799 327.413, 1024.386 329.750 C 1025.973 332.087, 1027.805 334, 1028.456 334 C 1030.665 334, 1033.971 338.967, 1034.608 343.243 C 1035.223 347.372, 1040.398 357, 1042.002 357 C 1042.438 357, 1046.104 359.577, 1050.148 362.726 C 1054.191 365.875, 1058.095 368.912, 1058.822 369.476 C 1064.517 373.890, 1064.345 373.227, 1063.637 388.048 C 1062.947 402.507, 1061.858 406.777, 1057.331 412.775 C 1054.395 416.667, 1052.766 425.593, 1053.200 435.414 L 1053.500 442.193 1057.500 443.720 C 1065.676 446.840, 1069.904 446.601, 1079.500 442.476 C 1083.151 440.907, 1103.364 439, 1116.353 439 C 1127.156 439, 1130.348 440.380, 1135.598 447.318 L 1138.487 451.137 1141.743 447.583 C 1144.664 444.396, 1145 443.409, 1145 438.015 C 1145 432.025, 1144.988 432, 1142.059 432 C 1140.441 432, 1138.840 431.550, 1138.500 431 C 1138.160 430.450, 1135.546 429.997, 1132.691 429.994 C 1129.836 429.991, 1125.813 429.520, 1123.750 428.947 L 1120 427.906 1119.991 418.703 C 1119.977 403.144, 1119.255 399.774, 1114.770 394.324 C 1112.587 391.671, 1109.720 388.923, 1108.400 388.218 C 1107.080 387.513, 1106 386.253, 1106 385.417 C 1106 384.582, 1104.313 383.205, 1102.250 382.358 C 1100.188 381.511, 1097.123 379.504, 1095.440 377.898 L 1092.381 374.977 1090.132 377.563 C 1086.424 381.827, 1085 379.452, 1085 369.003 C 1085 356.401, 1084.391 354.158, 1080.707 353.204 C 1077.742 352.436, 1076.711 351.334, 1075.604 347.750 C 1075.276 346.691, 1074.070 346, 1072.550 346 C 1067.666 346, 1068.477 338.498, 1073.892 333.598 C 1075.413 332.222, 1077.982 331.577, 1083.244 331.252 C 1091.873 330.718, 1100.058 333.309, 1105.881 338.417 C 1107.871 340.163, 1110.638 342.304, 1112.029 343.174 C 1115.374 345.267, 1118.469 354.635, 1117.050 358.369 C 1116.189 360.632, 1116.562 361.528, 1120.033 365.538 C 1122.215 368.059, 1124 370.685, 1124 371.374 C 1124 372.062, 1125.350 373.919, 1127 375.500 C 1128.650 377.081, 1130 378.717, 1130 379.137 C 1130 379.556, 1131.350 381.900, 1133 384.345 C 1136.720 389.857, 1136.858 393.208, 1133.457 395.436 L 1130.913 397.103 1133.919 400.801 C 1135.571 402.836, 1138.291 406.023, 1139.962 407.886 C 1141.633 409.748, 1143 411.660, 1143 412.136 C 1143 412.611, 1143.417 413, 1143.928 413 C 1144.449 413, 1144.618 410.699, 1144.313 407.745 C 1144.015 404.855, 1144.261 400.715, 1144.860 398.545 C 1145.722 395.422, 1145.662 394.278, 1144.572 393.051 C 1143.814 392.198, 1142.517 389.195, 1141.689 386.378 C 1139.854 380.135, 1137.686 375.814, 1135.460 373.967 C 1133.675 372.486, 1129.806 364.373, 1128.617 359.622 C 1127.501 355.158, 1121.787 346.857, 1112.375 336.026 C 1103.006 325.244, 1103.599 325.655, 1093.500 322.934 C 1086.091 320.937, 1079.384 320.758, 1062.500 322.106 M 1032.736 329.736 C 1029.739 332.883, 1029.998 334, 1033.727 334 C 1035.235 334, 1038.128 335.899, 1041.554 339.140 C 1046.969 344.261, 1047.008 344.278, 1052.168 343.667 C 1055.016 343.329, 1057.761 342.639, 1058.267 342.133 C 1058.812 341.588, 1058.840 339.035, 1058.335 335.866 C 1057.612 331.319, 1057.037 330.298, 1054.492 329.036 C 1052.846 328.220, 1047.900 327.391, 1043.500 327.193 C 1035.764 326.844, 1035.409 326.928, 1032.736 329.736 M 710.200 340.200 C 709.540 340.860, 709 341.740, 709 342.156 C 709 342.571, 707.899 344.534, 706.553 346.517 C 705.207 348.500, 703.367 352.682, 702.464 355.811 C 700.664 362.041, 698.937 364.464, 694.752 366.628 C 692.753 367.662, 692 368.810, 692 370.826 C 692 372.352, 691.604 374.027, 691.121 374.550 C 690.637 375.072, 689.672 377.300, 688.976 379.500 C 687.020 385.683, 678.503 397, 675.806 397 C 675.194 397, 671.950 398.287, 668.597 399.859 C 665.244 401.432, 660.700 403.300, 658.500 404.011 C 653.293 405.693, 650.622 407.476, 644.653 413.250 C 641.952 415.863, 639.404 418, 638.990 418 C 638.576 418, 637.055 419.550, 635.609 421.445 L 632.982 424.891 635.536 427.445 C 637.881 429.790, 638.801 430, 646.708 430 C 654.480 430, 655.775 430.283, 659.912 432.886 C 662.436 434.473, 666.300 436.327, 668.500 437.006 C 670.700 437.686, 672.927 438.637, 673.450 439.121 C 673.972 439.604, 675.097 440.012, 675.950 440.026 C 676.802 440.040, 679.954 441.615, 682.954 443.526 C 689.022 447.391, 692.759 447.859, 696.740 445.251 C 700.227 442.966, 705.642 440.920, 709.943 440.263 C 711.836 439.973, 714.761 438.897, 716.443 437.872 C 718.350 436.709, 721.387 436.006, 724.516 436.004 C 729.593 436, 735.585 433.609, 737.283 430.909 C 738.473 429.015, 726.945 416.983, 721.500 414.436 C 719.300 413.407, 717.050 412.186, 716.500 411.723 C 715.950 411.260, 714.038 410.015, 712.250 408.955 C 710.296 407.797, 709 406.226, 709 405.015 C 709 403.907, 708.567 403, 708.039 403 C 706.156 403, 704.905 395.386, 705.992 390.538 C 707.135 385.434, 708.406 382.935, 711.750 379.212 C 712.987 377.835, 714 376.147, 714 375.461 C 714 374.775, 714.675 373.955, 715.500 373.638 C 716.325 373.322, 717 372.408, 717 371.608 C 717 370.808, 718.130 368.810, 719.512 367.168 C 720.893 365.527, 722.672 362.934, 723.464 361.407 C 724.805 358.823, 724.735 358.462, 722.452 356.179 C 720.355 354.082, 720 352.792, 720 347.257 C 720 342.176, 719.705 340.899, 718.624 341.314 C 717.868 341.604, 716.016 341.202, 714.510 340.421 C 711.227 338.718, 711.660 338.740, 710.200 340.200" stroke="#e8b1e4" fill="#e8b1e4" fill-opacity="0.2" fill-rule="evenodd"/><path class="svg-region-IBl" d="M 733.788 433.640 C 732.766 434.663, 729.578 435.529, 725.324 435.941 C 721.571 436.305, 717.060 437.366, 715.300 438.301 C 713.539 439.235, 711.192 440, 710.084 440 C 708.022 440, 703.327 441.824, 696.864 445.136 C 694.864 446.161, 691.939 447.013, 690.364 447.028 C 688.770 447.043, 685.758 448.374, 683.572 450.028 C 681.411 451.663, 678.874 453, 677.933 453 C 676.992 453, 675.159 453.862, 673.861 454.915 L 671.500 456.831 674.266 462.165 C 676.208 465.913, 677.027 468.973, 677.016 472.450 C 677 477.516, 677.710 477.694, 680.366 473.286 C 684.476 466.463, 685.821 464.918, 688.457 463.995 C 690.083 463.426, 692.333 462.131, 693.457 461.118 C 695.512 459.267, 701.987 456.653, 702.715 457.382 C 702.930 457.597, 703.244 460.608, 703.414 464.074 C 703.714 470.223, 703.823 470.445, 707.929 473.289 C 710.257 474.902, 711.918 476.770, 711.649 477.472 C 711.144 478.788, 717.561 479.974, 725.282 479.991 C 729.197 480, 739.127 477.029, 744.451 474.255 C 746.128 473.381, 749.943 471.937, 752.930 471.045 C 755.916 470.153, 758.521 468.937, 758.719 468.344 C 759.109 467.174, 754.618 466.009, 749.625 465.985 C 745.752 465.966, 744.935 465.451, 741.084 460.605 C 737.405 455.976, 737.145 452.242, 740 445 C 741.100 442.209, 742 438.143, 742 435.963 C 742 432.150, 741.876 432, 738.714 432 C 736.907 432, 734.690 432.738, 733.788 433.640" stroke="#b10e0e" fill="#b10e0e" fill-opacity="0.2" fill-rule="evenodd"/><path class="svg-region-IBr" d="M 1058 446.957 C 1054.378 449.771, 1051.359 450.254, 1047.712 448.605 C 1045.936 447.802, 1040.355 446.980, 1035.233 446.767 L 1025.966 446.382 1020.855 456.796 C 1016.627 465.410, 1015.193 467.439, 1012.554 468.542 C 1009.367 469.873, 1009.364 469.882, 1009.801 476.188 C 1010.410 484.954, 1014.200 488, 1024.500 488 C 1031.377 488, 1035.274 486.381, 1034.023 484.043 C 1033.494 483.054, 1033.501 480.760, 1034.040 478.435 C 1035.222 473.336, 1035.101 470.525, 1033.881 474.750 C 1033.365 476.538, 1032.470 478, 1031.892 478 C 1030.072 478, 1032.095 471.655, 1034.682 469.250 C 1036.745 467.332, 1038.210 467, 1044.591 467 C 1050.106 467, 1053.113 467.527, 1056 469 C 1058.156 470.100, 1060.501 471.007, 1061.210 471.015 C 1061.920 471.024, 1064.750 472.560, 1067.500 474.429 C 1072.497 477.826, 1075 477.808, 1075 474.378 C 1075 473.620, 1075.415 473, 1075.923 473 C 1077.708 473, 1083 467.802, 1083 466.050 C 1083 464.403, 1072.161 456, 1070.036 456 C 1069.540 456, 1068.850 455.103, 1068.502 454.006 C 1068.154 452.909, 1067.336 451.428, 1066.684 450.714 C 1066.033 450, 1065.002 448.535, 1064.393 447.458 C 1062.887 444.796, 1060.975 444.646, 1058 446.957" stroke="#b10e0e" fill="#b10e0e" fill-opacity="0.2" fill-rule="evenodd"/><path class="svg-region-MB" d="M 1036.516 355.703 C 1035.567 357.310, 1033.592 359.430, 1032.127 360.415 C 1030.491 361.514, 1027.957 365.478, 1025.562 370.683 C 1020.801 381.029, 1012.485 390.008, 1003.500 394.500 C 1000.200 396.150, 994.770 400.046, 991.434 403.157 C 983.637 410.427, 978.661 412.004, 963.568 411.988 C 953.837 411.977, 952.010 411.696, 948.445 409.657 C 945.727 408.102, 943.748 407.588, 942.445 408.098 C 941.375 408.517, 939.315 408.891, 937.867 408.930 C 934.564 409.018, 933.999 410.911, 934.116 421.500 C 934.193 428.508, 934.333 429.099, 935.242 426.266 C 936.149 423.441, 936.610 423.110, 938.890 423.650 C 940.326 423.990, 942.175 424.808, 943 425.467 C 945.424 427.403, 951.636 430, 953.842 430 C 954.964 430, 956.124 430.391, 956.419 430.869 C 956.714 431.346, 958.706 432.017, 960.846 432.359 C 962.985 432.701, 966.032 433.658, 967.618 434.484 C 969.826 435.636, 974.195 435.989, 986.296 435.994 C 1001.220 436, 1002.351 436.138, 1006.788 438.500 C 1009.371 439.875, 1012.163 441.007, 1012.992 441.015 C 1014.875 441.033, 1022.615 443.699, 1025.409 445.292 C 1026.559 445.948, 1031.550 446.752, 1036.500 447.079 C 1041.450 447.406, 1046.990 448.307, 1048.812 449.080 C 1051.831 450.361, 1052.445 450.299, 1055.769 448.371 C 1060.541 445.603, 1060.712 444.674, 1056.770 442.939 L 1053.500 441.500 1053.637 430.294 C 1053.767 419.635, 1053.924 418.844, 1056.865 414.066 C 1062.223 405.357, 1062.943 402.591, 1063.637 388.048 C 1064.345 373.234, 1064.504 373.848, 1058.822 369.485 C 1055.070 366.604, 1047.338 360.345, 1046.180 359.250 C 1045.452 358.563, 1044.457 358, 1043.969 358 C 1043.481 358, 1041.992 356.826, 1040.662 355.391 L 1038.242 352.782 1036.516 355.703 M 719.750 366.459 C 718.237 368.283, 717 370.500, 717 371.387 C 717 372.274, 716.559 373, 716.020 373 C 715.482 373, 714.122 374.800, 713 377 C 711.878 379.200, 710.631 381.004, 710.230 381.008 C 709.175 381.019, 707.077 385.819, 705.941 390.820 C 704.903 395.392, 706.213 403, 708.039 403 C 708.567 403, 709 403.921, 709 405.047 C 709 406.295, 710.198 407.757, 712.074 408.797 C 713.764 409.733, 716.352 411.512, 717.824 412.749 C 719.296 413.986, 721.247 414.998, 722.161 414.999 C 724.450 415, 738.218 428.990, 737.576 430.662 C 737.177 431.703, 738.666 432, 744.281 432.001 C 754.802 432.004, 778.215 430, 780.236 428.924 C 781.191 428.416, 784.566 427.990, 787.736 427.978 C 791.301 427.964, 795.163 427.201, 797.859 425.978 C 800.257 424.890, 804.114 424, 806.431 424 C 810.893 424, 819.177 426.403, 822.473 428.653 C 823.557 429.394, 824.721 430, 825.059 430 C 825.397 430, 824.855 426.738, 823.854 422.750 C 822.853 418.762, 822.027 413.418, 822.017 410.872 C 821.999 405.860, 820.373 403.520, 817.966 405.042 C 815.730 406.456, 806.206 406.112, 799.500 404.374 C 796.200 403.518, 790.702 402.429, 787.283 401.952 C 783.863 401.475, 779.634 400.345, 777.884 399.440 C 776.134 398.535, 771.594 397.364, 767.795 396.838 C 755.972 395.199, 753.116 393.376, 737.456 377.473 C 729.618 369.513, 723.047 363.032, 722.853 363.072 C 722.659 363.112, 721.263 364.636, 719.750 366.459" stroke="#f9c6c6" fill="#f9c6c6" fill-opacity="0.2" fill-rule="evenodd"/><path class="svg-region-LBl" d="M 749.500 317.352 C 746.750 318.700, 741.350 322.107, 737.500 324.924 C 733.650 327.741, 729.002 330.589, 727.171 331.253 C 724.280 332.300, 723.912 332.812, 724.378 335.142 C 724.796 337.230, 724.369 338.183, 722.458 339.436 C 720.279 340.863, 720 341.759, 720 347.334 C 720 352.309, 720.432 354.087, 722.068 355.842 C 723.210 357.068, 724.002 359.075, 723.838 360.325 C 723.511 362.820, 727.943 368.837, 734.500 374.801 C 736.700 376.802, 741.650 381.704, 745.500 385.695 C 753.188 393.665, 756.371 395.255, 767.816 396.841 C 771.604 397.365, 776.106 398.520, 777.820 399.407 C 779.535 400.294, 783.540 401.429, 786.719 401.929 C 789.899 402.429, 795.875 403.594, 800 404.517 C 808.240 406.361, 817.910 406.149, 820.416 404.070 C 821.552 403.127, 822 400.989, 822 396.512 C 822 391.784, 822.485 389.653, 824 387.727 C 826.591 384.434, 826.522 382.964, 823.500 377 C 820.647 371.369, 820.455 369.304, 822.532 366.559 C 824.760 363.613, 824.309 359.669, 821 353.156 C 819.350 349.909, 817.995 345.958, 817.988 344.376 C 817.951 335.422, 812.356 325.177, 805.193 320.952 C 801.823 318.963, 801.528 318.951, 795.140 320.554 C 787.016 322.591, 782.052 322.001, 776.823 318.377 C 773.261 315.909, 771.726 315.544, 763.646 315.242 C 755.560 314.940, 753.920 315.185, 749.500 317.352" stroke="#d7b230" fill="#d7b230" fill-opacity="0.2" fill-rule="evenodd"/><path class="svg-region-LBr" d="M 982.500 324 C 978.937 326.359, 973.605 326.564, 969.636 324.494 C 968.060 323.672, 966.373 323, 965.886 323 C 964.640 323, 964.784 326.727, 966.127 329.237 C 967.597 331.983, 966.159 333.034, 955.355 337.112 C 947.242 340.174, 946.990 340.372, 942.902 346.869 C 940.546 350.614, 938.123 356.111, 937.336 359.500 C 936.569 362.800, 935.475 367.525, 934.906 370 C 934.188 373.120, 934.194 376.493, 934.926 381 C 936.738 392.161, 936.795 396.350, 935.199 401.077 C 932.901 407.882, 933.881 409.411, 940.070 408.678 C 944.018 408.211, 945.945 408.525, 949.048 410.142 C 952.571 411.978, 954.376 412.160, 965.749 411.820 C 980.633 411.376, 984.760 409.951, 992.071 402.730 C 994.584 400.247, 998.859 397.084, 1001.571 395.701 C 1013.491 389.619, 1022.077 380.419, 1026.621 368.857 C 1028.323 364.526, 1030.074 361.763, 1031.650 360.920 C 1032.980 360.208, 1035.025 358.077, 1036.195 356.185 C 1037.940 353.361, 1038.107 352.401, 1037.127 350.832 C 1036.470 349.780, 1035.500 346.638, 1034.971 343.849 C 1034.202 339.790, 1033.060 337.820, 1029.255 333.979 C 1026.640 331.340, 1022.972 327.565, 1021.104 325.590 L 1017.709 322 1001.604 322.007 C 987.215 322.012, 985.180 322.225, 982.500 324" stroke="#d7b230" fill="#d7b230" fill-opacity="0.2" fill-rule="evenodd"/><path class="svg-region-DMl" d="M 672 340 C 671.175 340.533, 669.755 340.976, 668.844 340.985 C 665.975 341.011, 650.714 350.711, 645.500 355.822 C 637.266 363.893, 627.102 378.066, 618.651 393.260 C 613.322 402.841, 608.536 416.921, 609.561 420 C 609.836 420.825, 611.695 422.738, 613.692 424.250 C 616.706 426.533, 618.329 427, 623.257 427 C 628.840 427, 635 424.801, 635 422.809 C 635 422.391, 636.646 420.575, 638.657 418.774 C 640.669 416.973, 644.348 413.603, 646.834 411.284 C 649.813 408.506, 654.277 405.890, 659.927 403.614 C 673.188 398.270, 680 395.098, 680.005 394.263 C 680.007 393.843, 681.245 392.150, 682.755 390.500 C 684.265 388.850, 686.033 386.375, 686.685 385 C 692.243 373.278, 693.498 367.428, 690.250 368.376 C 689.288 368.656, 686.421 369.179, 683.881 369.537 C 679.356 370.175, 679.238 370.121, 678.131 366.945 C 677.509 365.161, 677 362.396, 677 360.801 C 677 359.206, 676.277 356.503, 675.393 354.794 C 674.248 352.579, 673.903 349.866, 674.191 345.344 C 674.611 338.740, 674.473 338.402, 672 340" stroke="#68533d" fill="#68533d" fill-opacity="0.2" fill-rule="evenodd"/><path class="svg-region-DMr" d="M 1107 355.942 C 1105.625 356.329, 1103.065 357.002, 1101.310 357.436 C 1097.836 358.296, 1095 362.754, 1095 367.354 C 1095 368.758, 1094.476 371.057, 1093.835 372.463 C 1092.822 374.685, 1092.986 375.361, 1095.085 377.630 C 1096.413 379.066, 1099.412 381.071, 1101.750 382.085 C 1104.088 383.099, 1106 384.606, 1106 385.433 C 1106 386.260, 1107.087 387.513, 1108.416 388.218 C 1109.745 388.923, 1112.712 391.868, 1115.010 394.762 L 1119.189 400.024 1119.743 414.006 L 1120.296 427.988 1123.898 428.988 C 1125.879 429.539, 1129.773 429.991, 1132.550 429.994 C 1135.327 429.997, 1138.088 430.488, 1138.685 431.085 C 1139.281 431.681, 1140.834 432.019, 1142.135 431.835 C 1144.352 431.521, 1144.518 431.030, 1144.782 424 C 1145.108 415.311, 1144.610 412.621, 1142.225 410.195 C 1138.055 405.956, 1132 398.644, 1132 397.849 C 1132 397.371, 1132.900 396.210, 1134 395.268 C 1135.100 394.326, 1136 392.457, 1136 391.115 C 1136 388.613, 1131.380 380.456, 1127.439 376 C 1126.223 374.625, 1124.525 372.150, 1123.666 370.500 C 1122.807 368.850, 1119.831 365.102, 1117.052 362.172 C 1114.274 359.241, 1112 356.429, 1112 355.922 C 1112 354.893, 1110.701 354.898, 1107 355.942" stroke="#68533d" fill="#68533d" fill-opacity="0.2" fill-rule="evenodd"/><path class="svg-region-PV" d="M 854.310 159.090 C 852.537 160.863, 837.117 161.846, 835.808 160.269 C 834.250 158.392, 827.883 158.989, 825.344 161.251 C 823.562 162.839, 822.812 162.970, 821.009 162.005 C 819.810 161.363, 818.665 161.002, 818.464 161.202 C 817.790 161.877, 820.485 166.297, 822 167.001 C 828.177 169.874, 829.839 171.404, 833.354 177.448 C 837.779 185.060, 837.333 178.173, 837.218 237.144 C 837.159 267.799, 837.358 272.457, 838.950 277.602 C 839.939 280.800, 841.233 283.578, 841.824 283.775 C 842.552 284.017, 842.593 284.941, 841.950 286.632 C 841.427 288.006, 841 289.273, 841 289.448 C 841 290.760, 850.596 285.928, 858.018 280.879 C 867.327 274.547, 868.828 272.435, 867.574 267.438 C 867.087 265.497, 867.484 264.415, 869.215 262.972 C 871.621 260.966, 877 260.294, 877 262 C 877 262.550, 878.350 263, 880 263 C 882.351 263, 883 262.559, 883 260.965 C 883 259.137, 883.509 258.969, 887.975 259.321 C 895.268 259.896, 896 260.875, 896 270.041 C 896 279.551, 896.304 280.407, 900.630 283.081 C 902.518 284.247, 904.904 286.844, 905.934 288.851 C 908.442 293.742, 911.366 296.214, 918.354 299.354 C 922.932 301.411, 924.076 301.642, 923.604 300.411 C 923.272 299.545, 923 297.951, 923 296.869 C 923 295.786, 921.425 293.279, 919.500 291.297 L 916 287.693 916 271.668 L 916 255.642 919.358 252.566 C 923.903 248.403, 927.163 241.560, 926.026 238.569 C 925.550 237.317, 925.162 225.764, 925.164 212.896 C 925.167 192.841, 925.447 188.443, 927.129 182.100 C 928.208 178.030, 929.520 173.897, 930.045 172.916 C 930.570 171.934, 931 170.234, 931 169.137 C 931 168.040, 931.675 166.468, 932.500 165.643 C 933.325 164.818, 934 163.918, 934 163.642 C 934 163.367, 931.413 162.650, 928.250 162.049 C 925.087 161.448, 920.764 160.483, 918.642 159.906 C 915.344 159.007, 914.538 159.120, 913.088 160.677 C 910.970 162.953, 908 171.861, 908 175.938 C 908 178.316, 907.561 179, 906.034 179 C 903.647 179, 897 182.061, 897 183.160 C 897 183.594, 895.672 184.635, 894.050 185.474 C 891.908 186.582, 888.001 186.995, 879.800 186.982 L 868.500 186.964 862.840 182.757 C 854.119 176.274, 850.566 166.644, 854.615 160.465 C 856.307 157.883, 856.164 157.236, 854.310 159.090" stroke="#b09658" fill="#b09658" fill-opacity="0.2" fill-rule="evenodd"/><path class="svg-region-Fl" d="M 797.500 162 C 797.160 162.550, 795.026 163, 792.758 163 C 790.489 163, 786.128 163.854, 783.067 164.898 C 780.005 165.941, 775.989 167.065, 774.143 167.394 C 770.331 168.074, 746.009 179.708, 738.595 184.397 C 732.720 188.114, 722.570 194.919, 714.198 200.756 C 708.445 204.766, 702.157 211.490, 703.191 212.524 C 703.449 212.783, 705.650 212.382, 708.080 211.633 C 714.960 209.513, 721.792 208, 724.479 208 C 727.010 208, 728.968 210.440, 729.041 213.684 C 729.063 214.683, 730.413 217.058, 732.041 218.962 C 735.571 223.092, 735.631 223.843, 732.867 229.260 C 731.002 232.916, 730.871 234.009, 731.816 237.970 C 732.411 240.462, 733.186 246.563, 733.538 251.528 L 734.177 260.557 729.468 262.909 C 725.427 264.927, 723.168 265.278, 713.558 265.380 L 702.358 265.500 698.644 262.250 C 694.121 258.291, 693.709 258.231, 695.236 261.750 C 697.596 267.190, 701.122 272.104, 703.872 273.786 C 705.413 274.729, 708.210 276.780, 710.087 278.345 C 711.964 279.910, 720.250 285.674, 728.500 291.155 C 736.750 296.636, 745.300 302.428, 747.500 304.027 L 751.500 306.934 773.500 307.004 L 795.500 307.075 801.388 312.537 C 804.627 315.542, 807.783 318, 808.401 318 C 809.020 318, 809.970 317.027, 810.513 315.839 C 811.167 314.408, 813.067 313.287, 816.138 312.522 C 824.492 310.440, 839.902 298.440, 840.044 293.906 C 840.068 293.133, 840.735 290.700, 841.526 288.500 C 842.672 285.313, 842.710 284.297, 841.713 283.500 C 841.025 282.950, 839.708 280.025, 838.788 277 C 837.375 272.356, 837.100 266.285, 837.024 238 C 836.975 219.575, 837.223 202.225, 837.576 199.445 C 839.288 185.953, 833.383 171.808, 824.439 167.974 C 821.593 166.754, 819.624 165.142, 819.011 163.530 C 818.071 161.057, 817.825 161, 808.084 161 C 802.519 161, 797.845 161.442, 797.500 162" stroke="#5ca7a9" fill="#5ca7a9" fill-opacity="0.2" fill-rule="evenodd"/><path class="svg-region-Fr" d="M 933.747 163.910 C 932.236 165.511, 931 167.790, 931 168.976 C 931 170.161, 930.570 171.934, 930.045 172.916 C 929.520 173.897, 928.209 178.030, 927.132 182.100 C 925.450 188.455, 925.171 192.897, 925.154 213.550 C 925.144 226.778, 925.510 238.207, 925.968 238.949 C 927.261 241.040, 923.309 249.121, 919.430 252.318 L 916 255.146 916 271.885 L 916 288.624 918.863 290.741 C 920.768 292.149, 922.114 294.397, 922.884 297.455 C 923.878 301.401, 924.782 302.528, 929.271 305.418 C 934.162 308.566, 936.960 312.292, 938.475 317.674 C 939.038 319.677, 939.611 319.820, 945.793 319.491 C 949.482 319.295, 954.510 318.398, 956.966 317.498 C 960.315 316.270, 963.440 315.995, 969.466 316.397 C 973.885 316.692, 978.400 316.987, 979.500 317.053 C 983.684 317.304, 993.902 315.326, 995.569 313.944 C 996.907 312.834, 1000.612 312.500, 1011.567 312.500 C 1024.974 312.500, 1025.968 312.366, 1028.227 310.250 C 1029.548 309.012, 1031.275 307.996, 1032.064 307.992 C 1034.159 307.980, 1042.338 303.005, 1046.377 299.286 C 1048.297 297.518, 1051.136 295.763, 1052.684 295.386 C 1054.233 295.009, 1057.993 292.181, 1061.040 289.100 C 1064.088 286.020, 1068.709 281.925, 1071.311 280 C 1073.912 278.075, 1076.591 275.262, 1077.264 273.750 C 1077.937 272.238, 1079.224 271, 1080.123 271 C 1083.618 271, 1084.297 253.674, 1081.062 247.060 C 1079.416 243.696, 1078 244.896, 1077.985 249.667 C 1077.967 255.744, 1076.412 258.846, 1071.985 261.639 C 1066.701 264.974, 1063.400 268.759, 1061.953 273.141 C 1060.285 278.195, 1059.641 278.532, 1055.450 276.543 C 1052.749 275.261, 1052 274.309, 1052 272.153 C 1052 270.639, 1052.534 268.866, 1053.187 268.213 C 1054.102 267.298, 1053.874 266.495, 1052.187 264.699 C 1050.984 263.419, 1050 261.457, 1050 260.341 C 1050 259.224, 1049.117 257.511, 1048.037 256.534 C 1046.428 255.078, 1046.023 253.202, 1045.787 246.133 L 1045.500 237.509 1040.601 236.472 C 1036.518 235.608, 1035.395 234.861, 1033.851 231.983 C 1031.262 227.155, 1031.520 222.433, 1034.737 215.804 C 1037.198 210.731, 1037.839 210.102, 1040.595 210.054 C 1042.297 210.024, 1046.171 210.819, 1049.204 211.819 C 1054.601 213.600, 1054.708 213.598, 1054.220 211.735 C 1053.947 210.687, 1053.007 209.556, 1052.134 209.221 C 1051.260 208.886, 1049.057 207.124, 1047.239 205.306 C 1045.421 203.488, 1043.324 202, 1042.578 202 C 1041.833 202, 1039.132 199.938, 1036.576 197.419 C 1032.348 193.250, 1019.283 186.046, 1015.816 185.972 C 1015.092 185.956, 1012.491 184.156, 1010.036 181.972 C 1007.581 179.787, 1005.007 178, 1004.316 178 C 1003.625 178, 1000.683 176.939, 997.780 175.643 C 985.688 170.245, 974.883 167, 969 167 C 964.885 167, 957.293 165.115, 952.390 162.877 C 949.854 161.718, 946.025 161, 942.387 161 C 937.175 161, 936.176 161.336, 933.747 163.910" stroke="#5ca7a9" fill="#5ca7a9" fill-opacity="0.2" fill-rule="evenodd"/><path class="svg-region-PCl" d="M 719.840 208.493 C 719.569 208.764, 717.021 209.427, 714.177 209.966 C 709.153 210.919, 703.451 213.276, 697.678 216.785 C 696.126 217.728, 693.274 220.975, 691.341 224 L 687.824 229.500 688.293 240 C 688.550 245.775, 689.377 251.910, 690.130 253.633 C 692.030 257.979, 700.255 264.770, 704.608 265.586 C 710.348 266.663, 724.919 265.087, 729.807 262.860 L 734.201 260.858 733.555 251.679 C 733.200 246.631, 732.447 240.410, 731.881 237.856 C 730.993 233.849, 731.136 232.653, 732.926 229.146 C 735.626 223.852, 735.559 223.079, 732.041 218.962 C 730.413 217.058, 729.063 214.352, 729.041 212.950 C 729.018 211.548, 728.460 209.860, 727.800 209.200 C 726.628 208.028, 720.821 207.513, 719.840 208.493" stroke="#465ee0" fill="#465ee0" fill-opacity="0.2" fill-rule="evenodd"/><path class="svg-region-PCr" d="M 1037 211.221 C 1037 212.046, 1035.875 214.379, 1034.500 216.405 C 1031.332 221.073, 1031.107 228.126, 1033.987 232.495 C 1035.469 234.743, 1037.152 235.743, 1040.731 236.500 L 1045.500 237.509 1045.787 246.133 C 1046.023 253.202, 1046.428 255.078, 1048.037 256.534 C 1049.117 257.511, 1050 259.224, 1050 260.341 C 1050 261.457, 1050.984 263.419, 1052.187 264.699 C 1053.874 266.495, 1054.102 267.298, 1053.187 268.213 C 1052.534 268.866, 1052 270.639, 1052 272.153 C 1052 274.322, 1052.751 275.262, 1055.536 276.584 C 1059.538 278.483, 1059.919 278.278, 1062 273.106 C 1063.911 268.356, 1066.767 264.878, 1070.219 263.098 C 1076.458 259.880, 1077.504 257.648, 1077.454 247.664 C 1077.410 238.609, 1077.362 238.435, 1073.454 233.025 C 1067.357 224.583, 1057.443 215.083, 1052.403 212.854 C 1046.248 210.131, 1037 209.151, 1037 211.221" stroke="#465ee0" fill="#465ee0" fill-opacity="0.2" fill-rule="evenodd"/><path class="svg-region-DV" d="M 867.500 156.961 C 866.400 157.455, 863.414 157.891, 860.865 157.930 C 856.954 157.989, 855.947 158.430, 854.418 160.750 C 851.078 165.821, 853.886 175.493, 860.267 180.893 C 867.059 186.641, 868.265 187, 880.796 187 C 892.228 187, 892.638 186.923, 896.022 184.153 C 900.503 180.486, 903.361 179, 905.934 179 C 907.572 179, 908 178.366, 908 175.938 C 908 172.270, 910.933 162.775, 912.359 161.826 C 913.025 161.383, 912.964 160.662, 912.182 159.720 C 911.272 158.623, 906.830 158.136, 893.246 157.644 C 883.486 157.290, 874.150 156.789, 872.500 156.531 C 870.850 156.273, 868.600 156.466, 867.500 156.961" stroke="#45567a" fill="#45567a" fill-opacity="0.2" fill-rule="evenodd"/><path class="svg-region-Ol" d="M 504 282.226 C 490.363 284.184, 475.268 287.738, 472.527 289.635 C 471.443 290.386, 469.712 291, 468.682 291 C 467.652 291, 465.614 291.635, 464.154 292.410 C 462.694 293.186, 459.700 294.587, 457.500 295.524 C 450.979 298.300, 440.539 303.389, 440 304.054 C 439.725 304.393, 436.125 306.614, 432 308.989 C 422.459 314.483, 402.398 330.371, 401.717 332.973 C 401.433 334.061, 399.935 335.525, 398.389 336.226 C 394.051 338.192, 372.057 360.941, 360.419 375.500 C 357.341 379.350, 353.851 383.619, 352.662 384.987 C 349.750 388.337, 348.697 389.842, 340 403.102 C 329.866 418.552, 327.093 424.320, 324.044 436.295 C 321.377 446.768, 319.710 463.814, 320.454 473 C 322.091 493.199, 324.619 503.220, 334.452 528.500 C 336.385 533.467, 346.695 553.512, 354.513 567.500 C 358.214 574.122, 387.060 620.394, 391.112 626.210 C 392.150 627.700, 393 629.122, 393 629.370 C 393 629.618, 394.803 633.002, 397.006 636.890 C 402.532 646.642, 420 680.914, 420 682.005 C 420 682.494, 421.554 686.180, 423.454 690.197 C 425.354 694.214, 428.455 702, 430.346 707.500 C 432.236 713, 436.590 725.600, 440.020 735.500 C 443.450 745.400, 447.513 757.775, 449.049 763 C 451.640 771.818, 453.238 776.697, 458.218 791 C 461.500 800.426, 472.989 822.174, 478.558 829.500 C 484.824 837.744, 494.678 847.491, 501 851.698 C 503.475 853.345, 507.985 856.341, 511.023 858.356 C 523.136 866.391, 536.334 868.940, 556.690 867.176 C 571.086 865.928, 577.573 864.035, 586.851 858.375 C 590.344 856.244, 595.936 853.015, 599.279 851.200 C 612.249 844.158, 635.401 828.383, 645.067 820 C 654.389 811.916, 657.742 808.399, 669.092 794.796 C 674.735 788.033, 679.621 782.275, 679.951 782 C 681.432 780.762, 688.825 770.751, 692 765.683 C 693.925 762.610, 696.014 760.074, 696.642 760.048 C 697.269 760.022, 698.056 758.914, 698.389 757.588 C 698.722 756.261, 700.345 753.900, 701.997 752.341 C 703.649 750.782, 705 749.141, 705 748.695 C 705 748.248, 708.740 742.397, 713.312 735.691 C 720.202 725.586, 726.405 715.969, 737.276 698.538 C 739.496 694.979, 743.472 688.724, 745.189 686.090 C 748.545 680.942, 753.749 671.364, 754.498 668.959 C 754.918 667.606, 756.103 665.306, 757.131 663.846 C 758.159 662.386, 759 660.009, 759 658.564 C 759 657.119, 759.634 655.694, 760.408 655.397 C 761.183 655.100, 762.568 652.559, 763.487 649.750 C 764.405 646.942, 766.037 642.771, 767.113 640.482 C 769.041 636.382, 770.654 629.587, 771.679 621.251 C 773.235 608.596, 759.666 577.412, 745.027 560 C 742.483 556.975, 739.331 552.925, 738.022 551 C 735.414 547.164, 727.014 538.805, 720.060 533.126 C 717.618 531.132, 714.468 528.432, 713.060 527.126 C 709.760 524.065, 703.568 520.048, 698.500 517.682 C 695.123 516.104, 693.020 515.906, 685 516.410 C 671.354 517.267, 656 519.276, 656 520.204 C 656 520.642, 655.163 521, 654.141 521 C 653.118 521, 646.951 526.175, 640.435 532.500 C 633.920 538.825, 628.301 544, 627.950 544 C 627.599 544, 626.004 545.124, 624.406 546.499 C 619.762 550.493, 615.335 549.936, 610.208 544.712 C 606.233 540.662, 606 540.100, 606 534.581 C 606 531.368, 605.334 524.410, 604.521 519.119 C 603.707 513.829, 602.920 507.619, 602.771 505.321 L 602.500 501.141 597.250 503.561 C 594.362 504.892, 592 506.435, 592 506.990 C 592 507.546, 591.084 508, 589.965 508 C 588.845 508, 586.728 508.788, 585.260 509.750 C 581.515 512.205, 566.508 512.177, 559.160 509.700 C 549.799 506.545, 544 501.274, 544 495.919 C 544 494.864, 543.640 494, 543.201 494 C 542.761 494, 541.807 492.313, 541.080 490.250 C 540.354 488.188, 538.688 485.068, 537.380 483.317 C 536.071 481.566, 535 479.428, 535 478.567 C 535 477.705, 534.550 477, 534 477 C 533.374 477, 533 470.833, 533 460.500 C 533 450.167, 533.374 444, 534 444 C 534.550 444, 535 442.912, 535 441.583 C 535 440.254, 535.376 439.017, 535.835 438.833 C 536.294 438.650, 538.523 434.563, 540.789 429.750 C 543.054 424.938, 545.378 421, 545.954 421 C 546.529 421, 547 420.489, 547 419.865 C 547 418.195, 552.034 413.818, 554.808 413.076 C 556.429 412.643, 557.629 411.212, 558.502 408.672 C 559.213 406.603, 562.067 402.507, 564.844 399.571 C 571.106 392.951, 577.333 383.425, 579.830 376.646 C 581.008 373.447, 581.972 367.337, 582.376 360.500 C 582.734 354.450, 583.174 348.375, 583.353 347 C 584.026 341.857, 582.183 327.106, 580.217 321.898 C 574.988 308.041, 566.535 297.634, 555.663 291.666 C 543.148 284.795, 539.135 283.061, 533.500 282.089 C 526.851 280.942, 512.477 281.008, 504 282.226" stroke="#aa444d" fill="#aa444d" fill-opacity="0.2" fill-rule="evenodd"/><path class="svg-region-Or" d="M 1289.500 269.662 C 1288.400 269.899, 1283.675 270.798, 1279 271.661 C 1268.175 273.659, 1248.197 281.254, 1246.487 284.021 C 1246.141 284.580, 1243.540 286.213, 1240.707 287.649 C 1234.672 290.707, 1219.879 305.296, 1214.228 313.763 C 1208.773 321.936, 1201.717 338.750, 1198.601 351 C 1196.299 360.052, 1195.981 363.073, 1196.293 372.901 L 1196.655 384.302 1200.445 387.342 C 1202.529 389.014, 1206.018 392.096, 1208.199 394.191 C 1210.379 396.286, 1212.689 398.009, 1213.332 398.020 C 1214.497 398.041, 1216.658 402.236, 1222.336 415.500 C 1224.878 421.439, 1225.403 424.151, 1225.800 433.394 C 1226.227 443.314, 1224.857 456.750, 1223.138 459.500 C 1222.795 460.050, 1222 462.300, 1221.372 464.500 C 1220.744 466.700, 1219.278 470.969, 1218.115 473.986 C 1216.952 477.003, 1216 480.385, 1216 481.501 C 1216 485.261, 1210.107 495.646, 1205.634 499.769 C 1203.006 502.192, 1199.421 504.336, 1196.848 505.024 C 1194.456 505.664, 1191.719 506.595, 1190.764 507.094 C 1188.825 508.106, 1175.679 508.346, 1174.720 507.386 C 1174.027 506.694, 1160.944 502.011, 1159.683 502.004 C 1158.241 501.997, 1160.188 506.418, 1162.763 509 C 1169.840 516.096, 1173 524.128, 1173 535.022 C 1173 539.983, 1172.686 540.852, 1170.250 542.617 C 1168.737 543.714, 1165.945 545.241, 1164.045 546.012 C 1162.144 546.782, 1157.419 550.490, 1153.545 554.251 C 1145.150 562.399, 1135.758 568, 1130.489 568 C 1125.843 568, 1120.124 565.336, 1118.888 562.597 C 1118.368 561.443, 1116.145 557.575, 1113.948 554 C 1111.751 550.425, 1109.254 545.925, 1108.399 544 C 1101.031 527.416, 1100.988 527.348, 1096.243 524.979 C 1092.011 522.865, 1090.345 522.687, 1074.579 522.661 C 1055.650 522.629, 1054.953 522.814, 1045 530.518 C 1042.525 532.434, 1039.375 534.539, 1038 535.196 C 1034.567 536.835, 1027.829 542.225, 1019.500 549.994 C 1015.650 553.585, 1009.350 558.843, 1005.500 561.679 C 998.478 566.850, 982.919 582.757, 979.946 587.804 C 979.073 589.287, 976.726 593.231, 974.730 596.568 C 968.019 607.793, 966.346 626.520, 970.357 645.507 C 973.230 659.105, 978.905 677.894, 982.547 685.871 C 983.896 688.825, 985 691.667, 985 692.188 C 985 693.319, 1000.816 725.141, 1005.328 733.087 C 1013.208 746.964, 1026.389 764.562, 1036.649 774.900 C 1040.142 778.421, 1043 781.607, 1043 781.981 C 1043 783.339, 1057.692 796.784, 1065.499 802.571 C 1069.899 805.832, 1074.294 809.216, 1075.266 810.090 C 1076.238 810.965, 1078.264 812.292, 1079.767 813.039 C 1081.270 813.787, 1083.852 815.373, 1085.505 816.563 C 1091.178 820.650, 1104.638 826.875, 1119 832.053 C 1127.140 834.988, 1158.435 841.176, 1164.250 840.999 C 1169.733 840.833, 1171.060 840.873, 1184.339 841.602 C 1205.879 842.783, 1240.366 833.704, 1260.048 821.669 C 1268.066 816.766, 1283.520 804.254, 1289.173 798.088 C 1298.332 788.098, 1309.243 770.804, 1318.439 751.700 C 1322.993 742.240, 1327.066 733.375, 1327.490 732 C 1327.914 730.625, 1329.045 727.700, 1330.002 725.500 C 1330.960 723.300, 1334.114 715.650, 1337.012 708.500 C 1345.279 688.098, 1348.193 681.526, 1349.130 681.167 C 1349.609 680.983, 1350.010 680.083, 1350.023 679.167 C 1350.054 676.877, 1375.697 625.802, 1380.288 618.885 C 1382.330 615.809, 1384 613.022, 1384 612.691 C 1384 612.359, 1385.428 609.706, 1387.173 606.794 C 1388.917 603.882, 1392.729 596.775, 1395.642 591 C 1398.555 585.225, 1402.190 578.387, 1403.719 575.803 C 1412.080 561.682, 1414.619 557.748, 1420.371 550 C 1426.731 541.432, 1438 521.447, 1438 518.733 C 1438 517.928, 1438.833 516.197, 1439.851 514.885 C 1440.870 513.573, 1441.954 511.375, 1442.262 510 C 1442.570 508.625, 1444.584 502.325, 1446.739 496 C 1452.322 479.612, 1453.864 473.448, 1455.624 460.500 C 1455.998 457.750, 1456.473 454.600, 1456.680 453.500 C 1457.702 448.072, 1456.974 421.771, 1455.601 414.500 C 1450.460 387.277, 1442.052 367.496, 1427.552 348.500 C 1426.241 346.783, 1420.104 338.580, 1417.826 335.500 C 1410.695 325.858, 1392.596 306.842, 1384.409 300.388 C 1361.922 282.663, 1345.916 274.907, 1322.760 270.514 C 1315.440 269.125, 1294.491 268.589, 1289.500 269.662 M 1145 568.059 C 1145 568.641, 1145.450 568.840, 1146 568.500 C 1146.550 568.160, 1147 567.684, 1147 567.441 C 1147 567.198, 1146.550 567, 1146 567 C 1145.450 567, 1145 567.477, 1145 568.059" stroke="#aa444d" fill="#aa444d" fill-opacity="0.2" fill-rule="evenodd"/><path class="svg-region-Pl" d="M 550.180 415.839 C 548.431 417.401, 547 419.153, 547 419.732 C 547 420.312, 546.438 421.010, 545.750 421.283 C 544.514 421.775, 543.396 423.750, 538.838 433.500 C 537.552 436.250, 536.163 438.650, 535.750 438.833 C 535.337 439.017, 535 440.254, 535 441.583 C 535 442.913, 534.550 444, 534 444 C 533.374 444, 533 450.167, 533 460.500 C 533 470.833, 533.374 477, 534 477 C 534.550 477, 535 477.873, 535 478.941 C 535 480.009, 535.485 481.181, 536.077 481.547 C 536.669 481.913, 538.740 485.652, 540.678 489.856 C 547.464 504.573, 547.413 504.505, 554 507.682 C 563.696 512.358, 579.754 513.357, 585.433 509.636 C 586.806 508.736, 588.845 508, 589.965 508 C 591.084 508, 592 507.633, 592 507.186 C 592 506.187, 599.680 502, 601.511 502 C 602.238 502, 603.023 502.563, 603.255 503.250 C 604.057 505.623, 607.416 497.483, 608.104 491.500 C 608.962 484.039, 610.095 479.816, 612.849 473.805 C 614.085 471.108, 615 467.099, 615 464.383 C 615 459.963, 614.645 459.315, 609.515 454.386 C 606.498 451.488, 603.279 448.696, 602.362 448.183 C 601.142 447.500, 600.528 445.266, 600.078 439.875 C 599.372 431.426, 598.739 430, 595.691 429.999 C 594.486 429.999, 591.250 429.151, 588.500 428.113 C 585.750 427.076, 580.947 425.663, 577.827 424.972 C 574.228 424.175, 570.380 422.374, 567.302 420.043 C 562.142 416.138, 556.450 413, 554.526 413 C 553.885 413, 551.929 414.278, 550.180 415.839" stroke="#f9d3d3" fill="#f9d3d3" fill-opacity="0.2" fill-rule="evenodd"/><path class="svg-region-Pr" d="M 1201.036 395.957 C 1200.230 396.466, 1199.521 398.039, 1199.459 399.452 C 1199.338 402.217, 1189.569 414, 1187.398 414 C 1185.753 414, 1180.014 417.299, 1180.006 418.250 C 1180.003 418.663, 1178.646 419, 1176.991 419 C 1172.487 419, 1166.114 424.172, 1162.319 430.906 C 1158.793 437.162, 1155.156 439.579, 1150.882 438.507 C 1148.848 437.996, 1147.896 438.649, 1144.978 442.559 C 1143.065 445.122, 1140.267 448.857, 1138.759 450.860 C 1133.126 458.342, 1131.817 469.522, 1135.092 482.192 C 1136.301 486.870, 1142.387 492.270, 1150.725 496.062 C 1154.149 497.620, 1158.606 500.019, 1160.629 501.394 C 1162.653 502.769, 1166.489 504.453, 1169.154 505.136 C 1171.819 505.819, 1174 506.743, 1174 507.189 C 1174 508.367, 1189.767 508.187, 1190.500 507 C 1190.840 506.450, 1192.234 506, 1193.599 506 C 1197.227 506, 1202.993 502.716, 1207.056 498.335 C 1211.468 493.577, 1216 485.098, 1216 481.601 C 1216 480.156, 1216.390 478.191, 1216.866 477.236 C 1218.026 474.910, 1219.978 469.395, 1221.373 464.500 C 1222 462.300, 1222.805 460.050, 1223.160 459.500 C 1224.594 457.285, 1225.999 446.088, 1225.976 437.066 C 1225.952 427.820, 1224.938 420.659, 1223.063 416.500 C 1216.557 402.072, 1214.309 398.317, 1211.209 396.708 C 1207.596 394.833, 1203.312 394.517, 1201.036 395.957" stroke="#f9d3d3" fill="#f9d3d3" fill-opacity="0.2" fill-rule="evenodd"/><path class="svg-region-OLr" d="M 1145.234 396.750 C 1144.463 398.667, 1144.399 402.649, 1144.759 426.405 L 1145 442.310 1147.108 440.405 C 1148.267 439.357, 1150.112 438.648, 1151.208 438.830 C 1155.265 439.501, 1158.876 436.888, 1162.535 430.633 C 1166.220 424.335, 1171.151 420.174, 1175.870 419.383 C 1182.449 418.280, 1182.817 415.555, 1177.019 410.895 C 1174.830 409.136, 1172.794 406.926, 1172.495 405.984 C 1172.114 404.784, 1170.433 404.093, 1166.870 403.671 C 1164.075 403.340, 1161.273 402.648, 1160.644 402.132 C 1160.015 401.617, 1157.595 400.686, 1155.267 400.064 C 1152.939 399.441, 1150.561 398.047, 1149.982 396.966 C 1148.677 394.529, 1146.173 394.415, 1145.234 396.750" stroke="#c4875d" fill="#c4875d" fill-opacity="0.2" fill-rule="evenodd"/><path class="svg-region-VOC" d="M 606 423.500 C 605.315 424.325, 604.248 425.002, 603.628 425.004 C 603.007 425.006, 600.986 425.931, 599.135 427.059 C 596.039 428.946, 595.911 429.214, 597.535 430.402 C 598.843 431.358, 599.466 433.703, 599.935 439.436 C 600.428 445.470, 600.972 447.405, 602.397 448.202 C 603.403 448.765, 605.030 450.120, 606.013 451.213 C 608.031 453.457, 608.540 453.958, 613.113 458.197 L 616.387 461.233 620.748 456.616 C 623.147 454.077, 625.873 452.007, 626.805 452.015 C 628.994 452.035, 634.558 454.064, 639 456.464 C 641.916 458.039, 644.753 458.367, 656 458.427 C 669.059 458.498, 669.614 458.415, 673 455.881 C 674.925 454.441, 677.716 452.975, 679.203 452.624 C 680.689 452.273, 683.164 450.880, 684.703 449.528 L 687.500 447.070 684.500 444.585 C 682.850 443.218, 680.150 441.587, 678.500 440.961 C 676.850 440.335, 674.375 439.239, 673 438.527 C 671.625 437.814, 669.064 436.924, 667.308 436.549 C 665.552 436.174, 662.294 434.547, 660.067 432.933 C 656.321 430.220, 655.360 430, 647.248 430 C 639.140 430, 638.264 429.800, 635.611 427.340 C 633.226 425.129, 632.429 424.876, 630.885 425.840 C 629.863 426.478, 626.356 427, 623.090 427 C 618.217 427, 616.621 426.552, 614.182 424.500 C 610.813 421.665, 607.826 421.300, 606 423.500 M 1092.500 440.153 C 1087 440.635, 1081.375 441.555, 1080 442.197 C 1074.635 444.701, 1070.364 445.971, 1067.250 445.985 C 1065.463 445.993, 1064 446.290, 1064 446.645 C 1064 448.207, 1069.622 455.997, 1070.750 455.998 C 1071.438 455.999, 1072 456.395, 1072 456.879 C 1072 457.362, 1073.237 458.282, 1074.750 458.924 C 1078.542 460.533, 1082.727 464.354, 1083.176 466.617 C 1083.597 468.737, 1083.024 468.724, 1101.500 467.021 C 1108.100 466.413, 1118 465.525, 1123.500 465.049 C 1129 464.573, 1133.573 464.142, 1133.662 464.091 C 1133.751 464.041, 1134.121 462.242, 1134.484 460.092 C 1134.848 457.943, 1135.773 455.355, 1136.541 454.342 C 1137.308 453.329, 1137.951 451.890, 1137.968 451.144 C 1138.013 449.254, 1133.607 444.222, 1129.420 441.381 C 1126.182 439.183, 1125.009 439.011, 1114.206 439.138 C 1107.768 439.214, 1098 439.671, 1092.500 440.153" stroke="#ff8f93" fill="#ff8f93" fill-opacity="0.2" fill-rule="evenodd"/><path class="svg-region-OABl" d="M 619.750 456.970 C 615.764 460.887, 615 462.239, 615 465.374 C 615 467.429, 614.032 471.223, 612.849 473.805 C 610.143 479.712, 609.023 483.875, 608.049 491.658 C 607.624 495.044, 606.315 499.372, 605.139 501.276 C 602.636 505.325, 602.518 508.614, 604.485 519.500 C 605.280 523.900, 605.946 530.444, 605.965 534.042 C 605.999 540.408, 606.115 540.696, 610.288 544.792 C 617.979 552.340, 621.986 550.695, 640.736 532.289 C 647.062 526.080, 652.994 521, 653.918 521 C 654.843 521, 656.027 520.617, 656.550 520.148 C 657.757 519.066, 671.502 517.247, 684.676 516.428 C 694.395 515.823, 695.071 515.914, 699.727 518.448 C 703.769 520.648, 705.064 520.926, 707.301 520.076 C 708.786 519.511, 710 518.412, 710 517.632 C 710 516.852, 710.603 515.983, 711.340 515.700 C 712.365 515.306, 712.568 513.252, 712.203 506.950 C 711.753 499.176, 711.860 498.615, 714.103 496.922 C 716.193 495.346, 716.523 494.158, 716.846 487.065 L 717.212 479 712.644 479 C 710.132 479, 704.572 480.119, 700.288 481.487 C 696.005 482.855, 691.773 483.980, 690.885 483.987 C 689.997 483.994, 688.121 484.904, 686.716 486.009 C 680.650 490.780, 673.837 488.520, 675.494 482.285 C 675.901 480.753, 676.422 476.575, 676.653 473 C 677.011 467.460, 676.722 465.930, 674.696 462.642 L 672.319 458.784 657.909 458.558 C 643.148 458.327, 642.277 458.137, 631.764 452.870 C 628.099 451.034, 624.562 452.241, 619.750 456.970" stroke="#81244d" fill="#81244d" fill-opacity="0.2" fill-rule="evenodd"/><path class="svg-region-OABr" d="M 1122 465.103 C 1117.325 465.536, 1108.100 466.401, 1101.500 467.025 C 1094.900 467.649, 1087.665 468.271, 1085.422 468.408 C 1082.818 468.567, 1080.558 469.442, 1079.172 470.828 C 1077.977 472.023, 1076.602 473, 1076.117 473 C 1075.631 473, 1074.995 473.910, 1074.704 475.023 C 1074.413 476.136, 1074.075 477.373, 1073.952 477.773 C 1073.829 478.173, 1072.215 479.529, 1070.364 480.786 C 1068.514 482.043, 1067 483.908, 1067 484.929 C 1067 485.950, 1066.288 487.059, 1065.418 487.393 C 1062.864 488.373, 1057.490 488.090, 1056.314 486.914 C 1055.191 485.791, 1035.789 486.218, 1027.160 487.555 L 1022.820 488.227 1023.496 491.829 C 1024.434 496.829, 1026.451 500.410, 1029.428 502.361 C 1033.884 505.281, 1034.829 508.523, 1034.041 518.197 C 1033.298 527.334, 1032.266 529.568, 1028.053 531.170 L 1025.523 532.132 1028.012 534.044 C 1031.918 537.045, 1037.104 536.562, 1041.898 532.750 C 1050.184 526.161, 1051.831 525.013, 1054.635 523.877 C 1056.401 523.162, 1063.925 522.704, 1074.244 522.685 C 1089.636 522.655, 1091.382 522.837, 1095.871 524.939 C 1101.074 527.377, 1100.678 526.757, 1108.542 544.750 C 1110.044 548.188, 1111.662 551, 1112.137 551 C 1112.611 551, 1113 551.418, 1113 551.928 C 1113 552.439, 1114.606 555.552, 1116.568 558.847 C 1118.922 562.798, 1121.271 565.375, 1123.469 566.418 C 1127.440 568.303, 1133.675 568.453, 1136.614 566.735 C 1137.777 566.056, 1140.477 564.515, 1142.614 563.311 C 1144.751 562.107, 1149.640 558.102, 1153.477 554.411 C 1157.314 550.719, 1162.039 546.972, 1163.977 546.083 C 1172.274 542.276, 1173 541.350, 1173 534.566 C 1173 523.903, 1169.897 516.153, 1162.763 509 C 1159.742 505.970, 1158.268 502, 1160.165 502 C 1162.164 502, 1155.051 497.584, 1150 495.689 C 1143.550 493.270, 1136.605 486.982, 1135.242 482.327 C 1134.626 480.222, 1133.811 475.238, 1133.432 471.250 C 1133.009 466.808, 1132.307 464.061, 1131.621 464.158 C 1131.004 464.246, 1126.675 464.671, 1122 465.103" stroke="#81244d" fill="#81244d" fill-opacity="0.2" fill-rule="evenodd"/><path class="svg-region-SOTl" d="M 697.500 458.386 C 695.849 459.105, 693.901 460.414, 693.170 461.296 C 692.438 462.177, 690.414 463.372, 688.670 463.952 C 686.927 464.532, 684.714 466.242, 683.753 467.753 C 682.793 469.264, 680.432 472.975, 678.508 476 C 674.570 482.189, 674.164 484.933, 676.829 487.345 C 679.281 489.565, 682.183 489.430, 685.335 486.951 C 687.797 485.015, 690.067 484.239, 704.500 480.401 C 707.800 479.524, 710.950 478.369, 711.500 477.834 C 712.482 476.879, 709.663 473.885, 705.496 471.455 C 704.388 470.810, 703.641 469.091, 703.538 466.955 C 703.001 455.744, 703.133 455.931, 697.500 458.386" stroke="#995b45" fill="#995b45" fill-opacity="0.2" fill-rule="evenodd"/><path class="svg-region-SOTr" d="M 1034.284 469.388 C 1031.892 472.139, 1030.271 478, 1031.901 478 C 1032.485 478, 1033.250 476.854, 1033.601 475.453 C 1034.684 471.139, 1035.130 473.467, 1034.099 478.054 C 1032.503 485.158, 1033.370 485.800, 1045.251 486.320 C 1050.888 486.567, 1056.957 487.097, 1058.737 487.496 C 1063.703 488.611, 1067 487.427, 1067 484.528 C 1067 482.719, 1067.919 481.658, 1070.579 480.395 L 1074.159 478.697 1069.673 475.905 C 1067.207 474.370, 1064.894 472.638, 1064.535 472.057 C 1064.176 471.476, 1062.896 470.998, 1061.691 470.996 C 1060.486 470.994, 1058.027 470.094, 1056.226 468.996 C 1053.648 467.425, 1051.186 467, 1044.656 467 C 1037.158 467, 1036.161 467.229, 1034.284 469.388" stroke="#995b45" fill="#995b45" fill-opacity="0.2" fill-rule="evenodd"/><path class="svg-region-LBPCl" d="M 721.992 331.964 C 719.082 333.552, 709.316 335.021, 695.435 335.959 C 681.518 336.899, 676.250 338.009, 674.786 340.313 C 673.472 342.378, 673.951 352.383, 675.506 355.364 C 676.328 356.940, 677 359.731, 677 361.567 C 677 363.404, 677.532 366.074, 678.183 367.502 C 679.312 369.980, 679.619 370.067, 684.933 369.420 C 694.640 368.238, 699.737 364.685, 702.032 357.500 C 703.513 352.862, 706.287 346.758, 708.816 342.569 C 710.606 339.606, 713 338.021, 713 339.800 C 713 341.808, 718.482 341.845, 721.713 339.858 C 724.544 338.118, 724.854 337.502, 724.320 334.691 C 723.572 330.761, 723.770 330.993, 721.992 331.964" stroke="#daffff" fill="#daffff" fill-opacity="0.2" fill-rule="evenodd"/><path class="svg-region-LBPCr" d="M 1032.750 329.721 C 1029.253 333.395, 1029.296 334, 1033.060 334 C 1035.371 334, 1037.449 335.257, 1041.554 339.140 C 1046.969 344.261, 1047.008 344.278, 1052.168 343.667 C 1055.016 343.329, 1057.761 342.639, 1058.267 342.133 C 1058.812 341.588, 1058.840 339.035, 1058.335 335.866 C 1057.612 331.319, 1057.037 330.298, 1054.492 329.036 C 1052.846 328.220, 1047.900 327.391, 1043.500 327.193 C 1035.772 326.845, 1035.406 326.931, 1032.750 329.721 M 1076.500 331.954 C 1072.739 333.509, 1069.742 337.728, 1069.618 341.640 C 1069.518 344.809, 1069.866 345.460, 1071.935 345.965 C 1073.274 346.292, 1075.099 347.874, 1075.989 349.480 C 1076.966 351.243, 1078.825 352.716, 1080.678 353.196 C 1084.383 354.156, 1084.993 356.362, 1085.015 368.875 C 1085.024 373.619, 1085.397 378.078, 1085.845 378.784 C 1087.984 382.155, 1093.895 374.552, 1095.110 366.869 C 1095.549 364.089, 1096.473 361.135, 1097.163 360.303 C 1098.496 358.698, 1102.195 356.977, 1105.500 356.425 C 1106.600 356.241, 1108.427 355.816, 1109.559 355.479 C 1111.119 355.015, 1111.902 355.489, 1112.788 357.433 C 1113.431 358.845, 1114.593 360, 1115.370 360 C 1117.695 360, 1118.083 355.601, 1116.235 350.174 C 1114.821 346.022, 1113.319 344.126, 1108.125 339.942 C 1104.572 337.080, 1099.300 333.964, 1096.218 332.903 C 1090.520 330.943, 1080.152 330.444, 1076.500 331.954" stroke="#daffff" fill="#daffff" fill-opacity="0.2" fill-rule="evenodd"/>
    </svg>