<svg xmlns="http://www.w3.org/2000/svg" width="1785" height="1131" viewBox="0 0 1785 1131" version="1.1">
    <path class="svg-region-AAB" d="M 730.500 467.231 C 724.384 471.525, 720.740 475.660, 717.806 481.637 C 714.565 488.236, 711.654 490.549, 707.572 489.769 C 705.326 489.340, 705 489.618, 705 491.961 C 705 493.436, 705.624 496.636, 706.386 499.072 C 707.149 501.507, 708.293 505.416, 708.929 507.757 C 709.953 511.531, 710.731 512.343, 715.792 514.921 C 721.405 517.779, 728.614 523.328, 736.500 530.861 C 742.756 536.836, 750.865 540.681, 760 542.004 C 763.025 542.442, 768.363 543.314, 771.862 543.940 C 785.180 546.325, 804.645 543.306, 817 536.938 L 822.500 534.103 822.688 524.802 C 822.791 519.686, 823.164 512.530, 823.516 508.900 C 824.018 503.732, 823.832 501.975, 822.659 500.802 C 821.403 499.546, 821.304 497.697, 822.044 489.401 C 823.799 469.757, 823.086 466.932, 817.326 470.706 C 814.152 472.786, 806.290 474.247, 799 474.113 C 786.938 473.890, 781.328 473.362, 777.667 472.106 C 773.580 470.703, 763 471.383, 763 473.049 C 763 473.547, 761.839 474.715, 760.419 475.645 C 758.007 477.226, 757.654 477.227, 755.015 475.668 C 753.462 474.751, 750.807 474, 749.116 474 C 744.562 474, 738.268 471.154, 735.732 467.947 L 733.500 465.125 730.500 467.231 M 940.330 468.194 C 938.801 469.888, 938.545 471.644, 938.774 478.861 C 938.924 483.612, 939.658 489.750, 940.403 492.500 C 942.516 500.292, 944.502 520.677, 943.298 522.208 C 941.230 524.837, 940.936 529.969, 942.770 531.461 C 951.276 538.383, 959.407 543.165, 967.500 546.004 C 968.600 546.390, 971.750 547.494, 974.500 548.458 C 982.535 551.275, 985.885 551.882, 997 552.534 C 1005.490 553.032, 1009.453 552.751, 1017.698 551.066 C 1027.743 549.014, 1041 543.833, 1041 541.959 C 1041 541.432, 1041.852 541, 1042.893 541 C 1043.934 541, 1045.042 540.333, 1045.355 539.517 C 1045.668 538.701, 1046.506 538.257, 1047.218 538.530 C 1047.930 538.803, 1051.157 536.603, 1054.391 533.642 C 1058.284 530.075, 1059.802 528.094, 1058.885 527.774 C 1057.766 527.385, 1057.837 526.912, 1059.250 525.317 C 1061.836 522.399, 1061.620 514.059, 1058.869 510.560 C 1057.697 509.070, 1056.513 505.859, 1056.239 503.425 C 1055.942 500.791, 1055.229 499, 1054.477 499 C 1052.755 499, 1052 496.677, 1052 491.380 C 1052 487.127, 1051.876 486.937, 1049.279 487.212 C 1047.043 487.449, 1046.204 486.847, 1044.567 483.835 C 1043.098 481.133, 1041.776 480.050, 1039.537 479.716 C 1033.820 478.862, 1021.502 474.624, 1018.018 472.311 C 1014.610 470.049, 1008.636 469.253, 1006.427 470.765 C 1005.837 471.169, 1005.064 472.288, 1004.708 473.250 C 1003.807 475.692, 1002.808 475.453, 999.500 472 C 997.094 469.488, 995.850 469, 991.860 469 C 989.239 469, 986.060 469.419, 984.797 469.931 C 983.534 470.443, 981.370 471.099, 979.990 471.390 C 978.609 471.680, 976.673 473.283, 975.688 474.952 C 973.194 479.173, 971.072 480.033, 964.936 479.306 C 960.441 478.774, 959.071 478.081, 956.054 474.814 C 954.093 472.689, 950.164 469.874, 947.324 468.558 L 942.160 466.166 940.330 468.194" stroke="#7f3c1a" fill="#7f3c1a" fill-opacity="0.2" fill-rule="evenodd"/><path class="svg-region-PC" d="M 943.447 441.608 C 939.886 444.685, 939.820 444.874, 940.298 450.626 C 940.566 453.857, 941.086 457.850, 941.453 459.500 C 941.821 461.150, 942.323 463.493, 942.569 464.707 C 942.868 466.182, 944.585 467.607, 947.746 469.006 C 950.347 470.156, 954.133 472.876, 956.159 475.049 C 958.515 477.575, 960.728 479, 962.297 479 C 963.646 479, 966.138 479.278, 967.835 479.617 C 970.360 480.122, 971.442 479.712, 973.796 477.357 C 975.379 475.775, 976.859 473.927, 977.087 473.250 C 977.579 471.783, 987.681 469, 992.514 469 C 994.884 469, 996.977 469.919, 999.347 472 C 1003.286 475.459, 1005 475.794, 1005 473.107 C 1005 472.066, 1005.712 470.941, 1006.582 470.607 C 1009.361 469.540, 1014.438 470.016, 1016.441 471.532 C 1019.548 473.882, 1021.148 473.318, 1027.344 467.685 C 1034.337 461.329, 1034.790 458.236, 1029 456.375 C 1026.664 455.624, 1025.394 454.542, 1025.180 453.125 C 1024.955 451.629, 1024.141 451, 1022.430 451 C 1021.094 451, 1020 450.533, 1020 449.961 C 1020 449.390, 1018.216 447.066, 1016.036 444.797 C 1012.117 440.719, 1011.948 440.656, 1001.286 439.314 C 994.405 438.449, 982.640 438.049, 968.792 438.211 L 947.083 438.465 943.447 441.608 M 748.848 441.954 C 747.419 442.850, 743.953 448.013, 740.513 454.372 C 739.956 455.401, 737.700 457.201, 735.500 458.372 C 730.358 461.108, 730.266 461.190, 731.750 461.720 C 732.438 461.966, 733 462.622, 733 463.179 C 733 463.736, 733.968 465.551, 735.151 467.212 C 737.747 470.858, 744.154 473.948, 749.179 473.978 C 751.202 473.990, 753.532 474.675, 754.357 475.500 C 756.570 477.713, 759.597 477.327, 761.779 474.554 C 764.267 471.391, 772.062 470.183, 777.639 472.097 C 781.372 473.377, 786.908 473.894, 799.500 474.136 C 806.869 474.278, 813.983 472.896, 817.396 470.660 C 821.381 468.049, 824 461.608, 824 454.416 C 824 448.561, 823.799 448.031, 820.465 445.104 C 816.480 441.604, 812.948 441.206, 806.500 443.529 C 802.149 445.096, 791.438 445.518, 790.595 444.154 C 790.308 443.689, 784.387 443.005, 777.437 442.633 C 770.487 442.262, 761.583 441.724, 757.651 441.438 C 753.493 441.136, 749.808 441.352, 748.848 441.954" stroke="#cda789" fill="#cda789" fill-opacity="0.2" fill-rule="evenodd"/><path class="svg-region-DB" d="M 1074 380.465 C 1074 381.270, 1073.052 382.437, 1071.893 383.058 C 1069.906 384.121, 1069.810 384.796, 1070.226 394.843 C 1070.531 402.215, 1071.178 406.425, 1072.327 408.500 C 1073.240 410.150, 1073.990 412.880, 1073.994 414.566 C 1074.006 420.513, 1076.200 429.427, 1078.337 432.213 C 1084 439.596, 1085.246 441, 1086.131 441 C 1086.655 441, 1089.971 442.350, 1093.500 444 C 1097.029 445.650, 1100.948 447.010, 1102.208 447.022 C 1103.469 447.034, 1106.525 447.981, 1109 449.127 C 1115.864 452.303, 1125.982 455.001, 1130.997 454.991 C 1134.780 454.984, 1136.099 454.415, 1139.250 451.428 L 1143 447.874 1143 439.143 L 1143 430.413 1136.967 429.074 C 1133.649 428.338, 1129.878 426.905, 1128.588 425.890 C 1127.297 424.875, 1122.475 422.228, 1117.871 420.007 C 1110.770 416.581, 1109.246 415.402, 1107.824 412.234 C 1106.902 410.180, 1106.115 406.888, 1106.074 404.917 C 1106.013 401.944, 1105.278 400.757, 1101.750 397.938 C 1099.412 396.069, 1094.699 391.944, 1091.275 388.770 C 1087.098 384.898, 1084.217 383, 1082.515 383 C 1081.121 383, 1079.210 382.100, 1078.268 381 C 1076.261 378.656, 1074 378.373, 1074 380.465 M 676.823 404.422 C 671.347 411.450, 663.702 417, 659.497 417 C 653.921 417, 650.112 419.184, 641.569 427.281 C 635.608 432.931, 632.300 435.253, 628.250 436.630 C 621.641 438.876, 621.081 439.522, 620.343 445.752 C 619.461 453.198, 621.096 454, 637.163 454 C 644.564 454, 650.140 454.418, 650.500 455 C 650.856 455.576, 656.149 456, 662.974 456 L 674.830 456 678.915 451.359 C 681.162 448.807, 683 446.313, 683 445.817 C 683 445.322, 685.854 443.636, 689.342 442.071 C 698.870 437.796, 701 435.228, 701 428.014 C 701 424.771, 700.567 421.850, 700.037 421.523 C 699.507 421.195, 697.170 416.863, 694.842 411.896 C 691.254 404.237, 690.090 402.647, 687.183 401.432 C 681.935 399.239, 680.549 399.639, 676.823 404.422" stroke="#e8b1e4" fill="#e8b1e4" fill-opacity="0.2" fill-rule="evenodd"/><path class="svg-region-IBl" d="M 701 431.351 C 701 434.903, 695.926 439.594, 689.732 441.768 C 686.585 442.873, 684.055 444.586, 682.743 446.500 C 681.612 448.150, 679.133 451.144, 677.234 453.154 C 674.008 456.568, 673.854 457.028, 674.892 460.154 C 675.503 461.994, 676.895 464.962, 677.987 466.750 C 679.666 469.502, 680.555 470, 683.784 470 C 687.237 470, 687.718 470.332, 688.866 473.507 C 689.564 475.436, 691.939 478.464, 694.144 480.236 C 698.129 483.438, 698.141 483.468, 696.077 485.139 C 694.934 486.064, 694 487.044, 694 487.318 C 694 487.591, 696.362 488.036, 699.250 488.306 C 702.138 488.576, 705.770 489.126, 707.322 489.529 C 711.570 490.631, 714.681 488.379, 717.618 482.076 C 720.467 475.962, 724.728 470.967, 729.750 467.852 C 733.358 465.615, 733.939 462.797, 731.204 460.807 C 730.217 460.088, 728.445 457.925, 727.268 456 C 726.090 454.075, 721.205 448.675, 716.412 444 C 711.619 439.325, 706.190 433.975, 704.349 432.110 L 701 428.720 701 431.351" stroke="#b10e0e" fill="#b10e0e" fill-opacity="0.2" fill-rule="evenodd"/><path class="svg-region-IBr" d="M 1026.250 449.662 C 1025.563 449.940, 1025 451.479, 1025 453.083 C 1025 455.505, 1025.412 456, 1027.429 456 C 1030.235 456, 1032.997 458.387, 1033.007 460.821 C 1033.014 462.442, 1023.433 472, 1021.802 472 C 1021.361 472, 1021 472.565, 1021 473.255 C 1021 474.491, 1033.360 478.756, 1039.750 479.726 C 1042.979 480.216, 1043 480.192, 1043 476.016 C 1043 472.654, 1043.400 471.708, 1045 471.290 C 1046.100 471.002, 1047 470.400, 1047 469.951 C 1047 469.502, 1047.900 468.849, 1049 468.500 C 1050.100 468.151, 1051 467.269, 1051 466.540 C 1051 463.588, 1057.869 463.093, 1060.376 465.863 C 1061.450 467.050, 1064.010 467.928, 1067.422 468.280 C 1073.113 468.867, 1074.166 469.506, 1083.030 477.747 C 1086.134 480.632, 1088.972 482.695, 1089.337 482.330 C 1090.384 481.283, 1090.110 473.614, 1088.902 470.149 C 1088.215 468.179, 1087.126 467, 1085.992 467 C 1084.995 467, 1081.983 465.264, 1079.298 463.141 C 1075.359 460.027, 1073.266 459.145, 1068.458 458.571 C 1065.181 458.179, 1060.799 456.991, 1058.719 455.930 C 1056.640 454.868, 1053.555 454, 1051.864 454 C 1050.043 454, 1047.577 452.980, 1045.818 451.500 C 1043.189 449.288, 1041.962 449.009, 1035.173 449.079 C 1030.953 449.122, 1026.938 449.385, 1026.250 449.662" stroke="#b10e0e" fill="#b10e0e" fill-opacity="0.2" fill-rule="evenodd"/><path class="svg-region-MB" d="M 1061.183 405.519 C 1059.359 406.311, 1055.476 409.002, 1052.554 411.498 C 1040.496 421.800, 1031.608 426.695, 1023.310 427.607 C 1014.795 428.542, 999.792 436.237, 1001.403 438.843 C 1001.708 439.337, 1004.194 439.956, 1006.927 440.219 C 1010.900 440.601, 1012.576 441.378, 1015.287 444.098 C 1017.151 445.969, 1019.202 448.488, 1019.845 449.696 C 1020.951 451.777, 1021.195 451.816, 1024.474 450.446 C 1026.444 449.623, 1031.149 449, 1035.391 449 C 1041.885 449, 1043.230 449.323, 1045.818 451.500 C 1047.577 452.980, 1050.043 454, 1051.864 454 C 1053.555 454, 1056.661 454.898, 1058.767 455.996 C 1063.180 458.296, 1078 459.999, 1078 458.206 C 1078 457.608, 1077.550 456.840, 1077 456.500 C 1076.450 456.160, 1076 455.009, 1076 453.941 C 1076 452.444, 1076.698 452, 1079.048 452 C 1080.962 452, 1082.914 451.122, 1084.298 449.639 C 1085.509 448.340, 1087.471 446.973, 1088.658 446.601 C 1092.494 445.397, 1092.056 443.426, 1087.455 441.191 C 1085.056 440.025, 1082.314 437.818, 1081.362 436.285 C 1080.410 434.753, 1078.878 432.600, 1077.958 431.500 C 1076.167 429.358, 1074 419.887, 1074 414.201 C 1074 412.295, 1073.063 409.220, 1071.918 407.368 C 1069.572 403.571, 1066.777 403.089, 1061.183 405.519 M 693 407.058 C 693 408.506, 699.014 420.891, 700.019 421.512 C 700.559 421.845, 701 423.239, 701 424.609 C 701 428.682, 703.538 432.406, 710.204 438.111 C 713.667 441.075, 716.684 443.939, 716.909 444.476 C 717.134 445.013, 719.271 447.272, 721.659 449.495 C 724.046 451.719, 726.015 453.980, 726.033 454.519 C 726.098 456.417, 729.843 460, 731.762 460 C 735.270 460, 740.210 455.604, 743.562 449.500 C 745.375 446.200, 747.525 443.077, 748.342 442.560 C 749.550 441.795, 749.060 440.957, 745.706 438.060 C 743.439 436.102, 739.215 432.378, 736.319 429.784 C 733.424 427.190, 729.324 424.186, 727.210 423.107 C 725.096 422.029, 722.781 420.441, 722.066 419.579 C 719.790 416.837, 710.766 412.225, 701.742 409.193 C 696.934 407.577, 693 406.616, 693 407.058" stroke="#f9c6c6" fill="#f9c6c6" fill-opacity="0.2" fill-rule="evenodd"/><path class="svg-region-LBl" d="M 758.078 333.263 C 757.070 336.319, 751.364 341.502, 743.620 346.397 C 742.035 347.398, 739.415 349.406, 737.797 350.859 C 734.509 353.811, 727.184 358, 725.311 358 C 724.640 358, 723.814 359.474, 723.476 361.275 C 722.499 366.484, 717.049 374.323, 709.787 380.968 C 702.214 387.897, 700.142 387.991, 698.003 381.508 C 696.657 377.430, 695.984 377.204, 693.971 380.157 C 693.162 381.343, 690.138 385.503, 687.250 389.402 C 684.362 393.300, 682 397.046, 682 397.725 C 682 398.404, 683.753 399.854, 685.896 400.947 C 688.038 402.040, 690.423 403.566, 691.195 404.337 C 693.244 406.387, 697.994 408.653, 702 409.493 C 706.996 410.541, 715.375 414.640, 720.471 418.530 C 722.877 420.366, 726.173 422.555, 727.795 423.394 C 729.418 424.233, 732.940 426.997, 735.623 429.537 C 738.305 432.076, 742.075 435.354, 744 436.821 C 745.925 438.288, 747.725 439.778, 748 440.132 C 748.275 440.486, 757.500 441.318, 768.500 441.981 C 779.500 442.644, 789.473 443.649, 790.662 444.215 C 793.165 445.406, 802.765 444.718, 811.500 442.723 L 817.500 441.352 817.800 437.340 C 818.001 434.643, 817.591 432.905, 816.550 432.041 C 814.410 430.265, 814.611 425.434, 817.034 420.430 C 820.077 414.144, 820.982 406.744, 821.674 382.498 C 822.236 362.785, 822.130 360.353, 820.651 359.125 C 819.743 358.372, 819 357.237, 819 356.604 C 819 355.971, 816.956 353.663, 814.457 351.476 C 811.958 349.289, 806.896 344.727, 803.207 341.337 C 796.567 335.235, 796.430 335.169, 789.500 334.647 C 785.650 334.357, 780.548 333.817, 778.163 333.447 C 775.434 333.023, 773.414 333.186, 772.713 333.887 C 770.876 335.724, 767.871 335.153, 765.412 332.500 C 762.137 328.966, 759.403 329.250, 758.078 333.263" stroke="#d7b230" fill="#d7b230" fill-opacity="0.2" fill-rule="evenodd"/><path class="svg-region-LBr" d="M 989.359 332.705 C 987.786 333.368, 984.458 333.930, 981.962 333.955 C 975.404 334.020, 960.806 339.445, 952.590 344.870 C 944.745 350.051, 943.292 352.620, 942.339 363 C 942.061 366.025, 940.909 372.475, 939.779 377.334 C 937.149 388.646, 937.713 403.121, 941.325 417 C 942.685 422.225, 944.078 428.075, 944.420 430 C 944.763 431.925, 945.888 434.598, 946.919 435.940 L 948.795 438.380 974.648 438.440 C 1000.069 438.499, 1000.541 438.463, 1002.982 436.257 C 1006.925 432.694, 1015.941 428.876, 1022.999 427.781 C 1032.458 426.313, 1044.072 419.805, 1054 410.410 C 1057.985 406.639, 1063.636 403.999, 1067.718 404.002 L 1070.500 404.004 1070.184 394.612 L 1069.868 385.220 1065.575 380.739 C 1063.214 378.275, 1061 375.135, 1060.655 373.761 C 1059.348 368.553, 1053.538 359.654, 1050.997 358.969 C 1049.624 358.598, 1046.750 357.104, 1044.610 355.647 C 1042.471 354.191, 1039.503 353, 1038.014 353 C 1034.359 353, 1029.543 350.477, 1027.633 347.563 C 1026.764 346.236, 1024.608 344.872, 1022.784 344.495 C 1018.644 343.640, 1012.635 339.807, 1007.604 334.811 C 1003.883 331.117, 1003.448 330.955, 997.962 331.221 C 994.802 331.375, 990.931 332.042, 989.359 332.705" stroke="#d7b230" fill="#d7b230" fill-opacity="0.2" fill-rule="evenodd"/><path class="svg-region-DMl" d="M 677 301.967 C 677 307.252, 656.040 343.691, 647.895 352.564 C 646.853 353.700, 646 354.982, 646 355.413 C 646 355.845, 643.271 359.820, 639.935 364.247 C 636.599 368.674, 631.683 376.617, 629.011 381.898 C 624.562 390.691, 619.311 397.313, 613.500 401.459 C 611.522 402.870, 611.532 402.947, 614.386 408.469 C 617.619 414.723, 617.589 415.657, 613.353 439.750 C 612.835 442.695, 613.013 443, 615.256 443 C 616.617 443, 618.873 442.101, 620.270 441.002 C 621.666 439.904, 625.242 438.074, 628.215 436.936 C 632.008 435.485, 635.991 432.625, 641.561 427.354 C 650.200 419.178, 653.990 417, 659.575 417 C 663.635 417, 669.996 412.563, 676.062 405.500 C 677.951 403.300, 680.060 401.140, 680.748 400.700 C 681.437 400.260, 682 399.120, 682 398.166 C 682 397.211, 685.204 392.211, 689.120 387.053 C 696.203 377.723, 696.231 377.661, 694.620 374.933 C 693.729 373.425, 693 370.525, 693 368.489 C 693 364.118, 695.626 351.799, 697.489 347.426 C 699.496 342.718, 706 322.992, 706 321.615 C 706 320.944, 700.375 316.238, 693.500 311.158 C 686.625 306.078, 681 301.489, 681 300.961 C 681 300.432, 680.100 300, 679 300 C 677.678 300, 677 300.667, 677 301.967 M 749.635 309.698 C 749.327 310.006, 750.769 312.625, 752.840 315.517 C 754.911 318.409, 757.234 322.680, 758.003 325.009 C 759.035 328.135, 760.139 329.501, 762.221 330.227 C 763.773 330.768, 765.499 332.063, 766.056 333.105 C 767.113 335.080, 770.907 335.659, 772.550 334.097 C 773.072 333.600, 774.391 333.034, 775.480 332.837 C 777.155 332.535, 777.411 331.812, 777.145 328.133 C 776.867 324.269, 777.194 323.484, 780.089 321.067 C 784.582 317.316, 783.616 315, 777.560 315 C 773.016 315, 759.199 312.489, 755.500 310.991 C 751.779 309.485, 750.198 309.136, 749.635 309.698" stroke="#68533d" fill="#68533d" fill-opacity="0.2" fill-rule="evenodd"/><path class="svg-region-DMr" d="M 1075.447 310.533 C 1072.176 313.542, 1066.426 318.087, 1062.668 320.633 C 1056.348 324.916, 1054.042 327.375, 1055.232 328.565 C 1055.495 328.828, 1058.691 329.668, 1062.335 330.430 C 1065.978 331.192, 1069.675 332.532, 1070.551 333.408 C 1071.426 334.284, 1072.538 335, 1073.020 335 C 1073.502 335, 1075.118 336.131, 1076.610 337.514 C 1078.976 339.707, 1079.355 340.890, 1079.571 346.764 C 1079.768 352.098, 1079.388 354.229, 1077.745 357 C 1076.216 359.578, 1075.549 362.788, 1075.215 369.187 C 1074.773 377.652, 1074.832 377.940, 1077.527 380.437 C 1079.048 381.847, 1081.363 383, 1082.671 383 C 1084.183 383, 1087.321 385.104, 1091.275 388.770 C 1094.699 391.944, 1099.412 396.069, 1101.750 397.938 C 1105.078 400.598, 1106 401.996, 1106 404.384 C 1106 406.061, 1106.740 409.370, 1107.644 411.737 C 1109.163 415.715, 1109.941 416.351, 1117.894 420.115 C 1122.627 422.355, 1127.208 424.818, 1128.073 425.589 C 1129.981 427.288, 1138.527 429.974, 1142.072 429.989 C 1145.944 430.005, 1150.103 423.297, 1149.008 418.803 C 1147.167 411.247, 1142.928 401.648, 1139.821 398.002 C 1134.186 391.390, 1132.338 388.610, 1131.611 385.650 C 1130.649 381.729, 1127.755 377.796, 1119.261 368.865 C 1115.268 364.665, 1112 360.563, 1112 359.748 C 1112 358.933, 1108.400 352.802, 1104 346.123 C 1099.600 339.444, 1096 333.550, 1096 333.026 C 1096 332.502, 1093.367 329.244, 1090.149 325.787 C 1082.823 317.916, 1081.791 315.944, 1082.128 310.465 C 1082.277 308.045, 1082.173 305.839, 1081.897 305.563 C 1081.621 305.287, 1078.719 307.524, 1075.447 310.533" stroke="#68533d" fill="#68533d" fill-opacity="0.2" fill-rule="evenodd"/><path class="svg-region-PV" d="M 823.504 178 C 823.900 179.375, 824.624 180.928, 825.112 181.450 C 826.328 182.751, 826.238 188, 825 188 C 824.417 188, 824 191.314, 824 195.941 C 824 200.309, 824.450 204.160, 825 204.500 C 826.655 205.523, 826.164 215.793, 824.292 219.300 C 823.078 221.575, 822.595 224.813, 822.622 230.500 C 822.659 238.372, 823.039 239.880, 828.044 252 C 831.821 261.149, 832.581 263.136, 835.947 272.665 L 839.184 281.830 836.518 286.165 C 831.729 293.951, 828.929 297.442, 825.971 299.315 C 823.922 300.612, 822.882 302.244, 822.455 304.829 C 821.034 313.437, 818.541 316.913, 813.750 316.968 C 811.135 316.998, 811.002 317.233, 811.041 321.750 C 811.072 325.453, 811.678 327.180, 813.791 329.584 C 815.281 331.280, 817.387 332.992, 818.472 333.388 C 819.907 333.912, 820.102 334.319, 819.188 334.884 C 817.789 335.748, 818.628 339, 820.251 339 C 820.931 339, 821.060 336.555, 820.626 331.887 L 819.965 324.774 822.733 325.637 C 824.255 326.112, 829.575 326.500, 834.554 326.500 C 843.036 326.500, 844.099 326.258, 851.356 322.670 C 857.020 319.869, 859.914 317.718, 862.116 314.670 C 865.780 309.598, 867.976 309.085, 883.799 309.600 L 895.098 309.968 899.799 314.790 C 905.811 320.957, 913.802 324.910, 920.872 325.215 C 926.516 325.457, 927.126 326.041, 929.466 333.433 C 929.995 335.105, 930.964 334.499, 936.657 328.933 C 944.852 320.921, 949 314.661, 949 310.304 C 949 308.487, 948.613 307, 948.140 307 C 947.667 307, 945.610 308.575, 943.569 310.500 C 939.020 314.790, 935.353 315.075, 931.924 311.405 C 930.591 309.978, 926.800 307.566, 923.500 306.046 C 913.960 301.653, 912.567 299.547, 912.149 288.890 C 911.710 277.662, 912.069 276.294, 916.590 271.995 C 928.043 261.103, 929.606 257.746, 928.541 246.324 C 928.191 242.571, 927.676 230.189, 927.397 218.808 C 926.965 201.210, 927.125 197.659, 928.470 195.058 C 930.502 191.128, 929.966 191.208, 925.306 195.527 C 922.516 198.113, 920.966 198.875, 919.500 198.382 C 918.400 198.012, 914.707 197.512, 911.293 197.271 C 905.227 196.843, 904.865 196.963, 895.418 202.522 C 885.811 208.176, 885.709 208.209, 878.872 207.823 C 873.251 207.505, 871.720 207.045, 870.502 205.307 C 867.297 200.731, 855.063 195, 848.500 195 C 842.813 195, 837.861 192.738, 835.494 189.059 C 834.234 187.102, 830.859 183.250, 827.993 180.500 C 823.623 176.306, 822.899 175.903, 823.504 178" stroke="#b09658" fill="#b09658" fill-opacity="0.2" fill-rule="evenodd"/><path class="svg-region-Fl" d="M 795.362 161.500 C 794.703 163.216, 787.503 163.623, 786.500 162 C 785.536 160.441, 780.846 160.817, 774.645 162.950 C 767.666 165.351, 749.349 174.251, 746.140 176.800 C 744.038 178.469, 743.927 178.910, 745.122 180.824 C 746.275 182.670, 746.146 184.211, 744.206 191.737 C 742.964 196.557, 741.960 203.258, 741.974 206.628 C 741.989 210.191, 741.302 214.376, 740.332 216.628 C 737.609 222.948, 736.800 229.483, 736.323 248.975 C 736.043 260.435, 735.448 267.960, 734.756 268.794 C 734.143 269.533, 733.371 275.453, 733.041 281.950 C 732.665 289.362, 731.957 294.347, 731.140 295.331 C 730.003 296.701, 730.955 297.453, 738.669 301.285 C 745.773 304.813, 749.646 306.013, 758.472 307.419 C 764.506 308.380, 770.214 309.579, 771.156 310.083 C 772.098 310.588, 777.061 311.003, 782.184 311.008 C 792.889 311.016, 803.588 312.519, 806.515 314.425 C 809.271 316.221, 814.539 317.281, 816.930 316.522 C 819.204 315.800, 822 310.766, 822 307.393 C 822 303.924, 823.938 300.371, 826.612 298.940 C 827.927 298.236, 829.898 296.274, 830.992 294.580 C 832.085 292.886, 834.380 289.350, 836.091 286.723 L 839.202 281.946 835.991 272.723 C 834.225 267.650, 832.226 262.150, 831.548 260.500 C 830.869 258.850, 829.293 255.025, 828.044 252 C 823.063 239.939, 822.658 238.340, 822.580 230.456 C 822.518 224.246, 822.917 221.775, 824.331 219.617 C 825.834 217.323, 826.054 215.627, 825.558 210.161 C 824.018 193.194, 823.869 188, 824.924 188 C 826.658 188, 826.164 183.241, 823.987 178.974 C 822.733 176.516, 820.564 174.305, 818.237 173.113 C 814.449 171.173, 808.767 167.010, 803.733 162.486 C 800.650 159.717, 796.245 159.198, 795.362 161.500" stroke="#5ca7a9" fill="#5ca7a9" fill-opacity="0.2" fill-rule="evenodd"/><path class="svg-region-Fr" d="M 944.334 157.243 C 941.147 159.093, 938.876 162.416, 933.603 172.944 C 929.550 181.036, 928.907 183.128, 929.113 187.561 C 929.244 190.407, 928.797 194.077, 928.118 195.716 C 926.872 198.724, 927.124 229.426, 928.540 247.152 C 929.094 254.085, 928.898 255.339, 926.464 260.485 C 924.970 263.642, 922.571 266.906, 921.064 267.833 C 919.571 268.750, 916.880 271.181, 915.084 273.236 L 911.817 276.972 912.159 287.433 C 912.493 297.692, 912.563 297.959, 915.757 301.252 C 917.549 303.099, 921.199 305.396, 923.869 306.356 C 926.538 307.316, 929.994 309.428, 931.548 311.051 C 935.745 315.431, 939.098 315.018, 944.819 309.414 L 949.500 304.828 966 305.027 C 1000.218 305.440, 1019.998 301.735, 1029.242 293.179 C 1031.784 290.826, 1031.867 290.511, 1030.380 288.867 C 1029.017 287.361, 1028.881 285.468, 1029.474 276.297 C 1030.087 266.832, 1029.923 264.821, 1028.147 260 C 1025.735 253.457, 1024.855 237.745, 1026.791 235.809 C 1029.214 233.386, 1028.078 225.737, 1023.885 216.223 C 1022.528 213.144, 1022.007 209.643, 1022.025 203.723 L 1022.049 195.500 1025.566 193.750 C 1027.500 192.787, 1029.990 192, 1031.100 192 C 1034.534 192, 1032.361 190.289, 1018.193 181.841 C 1009.284 176.528, 999.609 171.787, 990.500 168.270 C 962.241 157.359, 949.412 154.295, 944.334 157.243" stroke="#5ca7a9" fill="#5ca7a9" fill-opacity="0.2" fill-rule="evenodd"/><path class="svg-region-PCl" d="M 740.315 180.159 C 738.564 180.634, 735.676 182.481, 733.899 184.262 C 730.733 187.434, 719.304 194.998, 717.675 194.999 C 716.466 195, 703.108 205.268, 698.750 209.546 C 696.688 211.571, 694.994 213.739, 694.988 214.364 C 694.981 214.989, 693.293 217.321, 691.238 219.547 C 684.665 226.664, 682.268 230.434, 681.720 234.516 C 681.425 236.707, 680.595 240.432, 679.874 242.793 C 678.830 246.215, 678.815 247.431, 679.802 248.793 C 680.483 249.732, 681.726 252.075, 682.565 254 C 683.404 255.925, 684.625 258.568, 685.280 259.873 C 687.295 263.893, 705.462 281.300, 711.501 285 C 714.644 286.925, 719.811 290.188, 722.984 292.250 C 726.156 294.313, 729.231 296, 729.817 296 C 731.861 296, 732.447 293.420, 733.042 281.819 C 733.372 275.394, 734.143 269.533, 734.756 268.794 C 735.448 267.960, 736.043 260.435, 736.323 248.975 C 736.800 229.483, 737.609 222.948, 740.332 216.628 C 741.293 214.397, 742 210.130, 742 206.560 C 742 203.153, 742.889 197.020, 743.976 192.932 C 747.141 181.031, 746.417 178.503, 740.315 180.159" stroke="#465ee0" fill="#465ee0" fill-opacity="0.2" fill-rule="evenodd"/><path class="svg-region-PCr" d="M 1025.250 193.648 L 1022 195.250 1021.997 203.875 C 1021.995 210.288, 1022.482 213.526, 1023.897 216.500 C 1027.992 225.111, 1029.230 233.370, 1026.791 235.809 C 1024.855 237.745, 1025.735 253.457, 1028.147 260 C 1029.919 264.810, 1030.087 266.841, 1029.482 276.179 C 1028.798 286.745, 1028.820 286.897, 1031.514 290.429 C 1035.526 295.689, 1038.510 295.310, 1045.164 288.693 C 1048.099 285.773, 1052.075 282.311, 1054 280.998 C 1063.069 274.811, 1079.994 259.169, 1080.012 256.956 C 1080.019 256.155, 1081.144 253.542, 1082.512 251.148 C 1085.371 246.146, 1085.621 244.176, 1083.500 243.362 C 1082.675 243.045, 1082 242.098, 1082 241.258 C 1082 240.417, 1080.987 238.676, 1079.750 237.389 C 1076.313 233.814, 1074.483 231.618, 1068.764 224.204 C 1060.564 213.573, 1059.847 212.785, 1054.024 208 C 1051.012 205.525, 1046.721 201.700, 1044.487 199.500 C 1042.254 197.300, 1039.339 194.713, 1038.010 193.750 C 1035.011 191.579, 1029.536 191.535, 1025.250 193.648" stroke="#465ee0" fill="#465ee0" fill-opacity="0.2" fill-rule="evenodd"/><path class="svg-region-DV" d="M 895 153.094 C 885.161 154.606, 861.927 156.085, 842 156.469 C 814.532 156.999, 807 157.722, 807 159.830 C 807 161.982, 816.587 172.219, 820.500 174.246 C 823.860 175.985, 836 188.239, 836 189.890 C 836 192.019, 841.081 194.197, 848.098 195.078 C 856.702 196.159, 864.314 199.466, 868.778 204.062 C 871.766 207.139, 872.669 207.472, 878.968 207.828 C 885.422 208.193, 886.262 207.988, 891.689 204.724 C 903.240 197.778, 905.859 196.792, 911.377 197.313 C 914.195 197.579, 917.625 198.085, 919 198.437 C 920.970 198.942, 922.295 198.339, 925.250 195.590 C 928.552 192.518, 929 191.543, 929 187.422 C 929 183.889, 930.145 180.385, 933.673 173.121 C 936.244 167.829, 939.169 162.427, 940.173 161.115 C 942.695 157.823, 942.499 157.107, 938.638 155.493 C 935.935 154.364, 905.699 151.625, 901.500 152.129 C 900.950 152.195, 898.025 152.630, 895 153.094" stroke="#45567a" fill="#45567a" fill-opacity="0.2" fill-rule="evenodd"/><path class="svg-region-B" d="M 978.682 657.409 C 973.921 660.336, 969 664.989, 969 666.565 C 969 667.219, 968.357 668.289, 967.570 668.942 C 965.658 670.529, 962 681.550, 962 685.726 C 962 692.835, 967.870 700.917, 975.772 704.687 C 981.675 707.504, 992.054 704.418, 996.564 698.505 C 1000.419 693.451, 1000.717 688.115, 997.656 679 C 990.778 658.524, 988.837 654.967, 984.576 655.031 C 983.434 655.048, 980.782 656.118, 978.682 657.409 M 787.083 668.412 C 784.897 670.739, 784.829 671.364, 785.159 686.209 C 785.543 703.528, 786.044 705.015, 793.049 709.651 C 798.573 713.306, 805.475 713.899, 810.048 711.112 C 811.947 709.954, 814.272 709.006, 815.215 709.004 C 817.416 708.999, 820.954 702.530, 822.677 695.360 C 823.529 691.812, 818.877 685.539, 813.225 682.617 C 811.528 681.739, 808.654 678.953, 806.839 676.426 C 802.879 670.912, 795.947 666, 792.124 666 C 790.484 666, 788.422 666.986, 787.083 668.412" stroke="#e23b33" fill="#e23b33" fill-opacity="0.2" fill-rule="evenodd"/><path class="svg-region-Ol" d="M 529.500 278.984 C 527.300 279.387, 523.475 280.204, 521 280.800 C 514.791 282.295, 504.811 284, 502.273 284 C 501.115 284, 500.017 284.337, 499.833 284.750 C 499.522 285.451, 495.086 287.196, 480.500 292.354 C 477.200 293.521, 474.275 294.752, 474 295.090 C 473.725 295.428, 471.813 296.446, 469.750 297.352 C 467.688 298.258, 464.313 299.743, 462.250 300.651 C 452.523 304.934, 435.344 313.336, 434 314.468 C 433.175 315.163, 431.340 316.006, 429.922 316.342 C 426.277 317.204, 404.897 330.221, 396.165 336.895 C 392.130 339.978, 387.322 343.501, 385.479 344.724 C 383.636 345.947, 381.762 347.557, 381.314 348.302 C 380.866 349.047, 379.150 350.463, 377.500 351.449 C 375.850 352.435, 373.150 355.059, 371.500 357.280 C 369.850 359.501, 367.600 361.809, 366.500 362.409 C 360.226 365.832, 333.472 398.555, 328 409.500 C 327.725 410.050, 326.339 412.300, 324.921 414.500 C 321.156 420.339, 313.430 438.481, 311.505 446 C 310.590 449.575, 309.436 454.075, 308.941 456 C 307.939 459.899, 307.687 479.561, 308.570 485 C 308.882 486.925, 309.261 489.850, 309.413 491.500 C 309.564 493.150, 309.932 495.175, 310.229 496 C 311.619 499.849, 314.182 510.224, 315.466 517.196 C 316.245 521.429, 317.534 525.929, 318.329 527.196 C 319.125 528.463, 320.798 532.875, 322.047 537 C 324.360 544.637, 325.274 546.570, 330.860 555.629 C 332.600 558.450, 334.635 562.792, 335.383 565.278 C 336.646 569.474, 344.877 584.986, 349.143 591.210 C 350.164 592.700, 351 594.149, 351 594.430 C 351 594.711, 352.293 596.867, 353.874 599.221 C 359.368 607.401, 363.757 614.529, 366.362 619.500 C 367.803 622.250, 370.997 627.650, 373.459 631.500 C 377.767 638.235, 387.555 655.409, 394.832 669 C 396.746 672.575, 399.083 676.625, 400.025 678 C 400.967 679.375, 407.066 691.075, 413.578 704 C 428.662 733.939, 439.755 754.545, 443.220 759.064 C 444.716 761.014, 446.886 764.835, 448.043 767.555 C 450.040 772.251, 459.352 791.061, 461.513 794.764 C 462.071 795.719, 464.226 799.425, 466.304 803 C 474.115 816.442, 482.212 828.864, 485.403 832.304 C 486.834 833.846, 488.654 836.321, 489.447 837.804 C 491.220 841.116, 504.340 854.769, 508.654 857.791 C 510.389 859.006, 512.457 860, 513.249 860 C 514.042 860, 515.468 860.860, 516.419 861.910 C 517.369 862.961, 519.239 864.094, 520.574 864.429 C 521.908 864.764, 523 865.480, 523 866.019 C 523 866.559, 523.843 867, 524.873 867 C 525.903 867, 528.715 867.863, 531.123 868.918 C 540.938 873.219, 582.610 874.302, 594.394 870.562 C 599.718 868.872, 620.071 858.882, 626.500 854.803 C 628.700 853.407, 631.625 851.157, 633 849.803 C 634.375 848.450, 639.805 844.141, 645.067 840.228 C 654.667 833.089, 679.306 809.705, 684.479 802.823 C 692.616 791.998, 698.356 783.788, 702.007 777.750 C 704.252 774.038, 706.682 771, 707.408 771 C 708.134 771, 709.529 768.862, 710.508 766.250 C 711.487 763.638, 713.804 759.407, 715.656 756.849 C 717.509 754.291, 719.940 750.129, 721.059 747.599 C 722.178 745.070, 723.459 743, 723.905 743 C 726.220 743, 745.385 706.102, 753.251 686.500 C 757.867 674.999, 761 666.658, 761 665.872 C 761 665.387, 762.171 662.630, 763.602 659.745 C 770.779 645.279, 771.949 601.073, 765.606 584 C 762.812 576.478, 758.951 568.649, 757.797 568.167 C 757.359 567.983, 757 567.241, 757 566.517 C 757 564.628, 744.757 549.726, 741.396 547.524 C 738.198 545.428, 730.486 539.384, 721.248 531.731 C 714.923 526.493, 705.648 521.001, 703.125 521 C 702.369 521, 699.219 519.937, 696.125 518.638 C 683.359 513.278, 680.135 512.959, 669.500 516 C 665.654 517.100, 660.030 518.014, 657.003 518.032 C 653.758 518.051, 650.703 518.666, 649.559 519.532 C 648.491 520.339, 646.798 521, 645.795 521 C 644.793 521, 642.966 521.520, 641.736 522.156 C 636.969 524.621, 635.968 525, 634.236 525 C 633.251 525, 631.557 525.614, 630.473 526.365 C 629.388 527.116, 627.410 528.071, 626.077 528.488 C 623.438 529.312, 622.256 530.154, 618.185 534.107 C 616.708 535.540, 613.882 537.010, 611.904 537.373 C 607.124 538.250, 601.150 541.261, 597.686 544.538 C 595.885 546.242, 594.167 547.015, 592.913 546.687 C 591.490 546.315, 589.975 547.346, 587.379 550.451 C 585.413 552.803, 581.132 557.080, 577.865 559.955 C 569.664 567.174, 569 566.475, 569 550.620 C 569 539.594, 568.771 538.055, 566.500 533.788 C 563.674 528.479, 563.281 524.490, 565.500 523.638 C 566.325 523.322, 567 522.389, 567 521.567 C 567 520.744, 567.900 519.589, 569 519 C 570.124 518.399, 571 516.906, 571 515.594 C 571 513.530, 570.389 513.178, 565.750 512.569 C 562.862 512.191, 559.012 511.008, 557.193 509.941 C 555.374 508.873, 553.124 507.999, 552.193 507.998 C 549.446 507.994, 544.384 502.914, 541.079 496.845 C 539.386 493.735, 538 490.528, 538 489.718 C 538 488.908, 537.325 487.685, 536.500 487 C 535.675 486.315, 535 484.487, 535 482.937 C 535 481.386, 534.550 479.840, 534 479.500 C 533.437 479.152, 533 474.323, 533 468.441 C 533 462.147, 533.397 458, 534 458 C 534.550 458, 535 456.686, 535 455.081 C 535 453.476, 535.753 450.663, 536.674 448.831 C 537.594 446.999, 539.008 444.150, 539.815 442.500 C 541.627 438.798, 545.977 434, 547.522 434 C 548.153 434, 549.871 432.762, 551.340 431.250 C 554.839 427.646, 557.874 425, 558.509 425 C 558.789 425, 560.431 423.650, 562.157 422 C 563.884 420.350, 565.905 419, 566.648 419 C 567.392 419, 568 418.655, 568 418.233 C 568 417.810, 570.025 415.352, 572.500 412.769 C 574.975 410.186, 577 407.242, 577 406.227 C 577 405.213, 577.661 403.509, 578.468 402.441 C 579.392 401.220, 579.957 398.089, 579.993 394 C 580.071 384.979, 581.544 379.341, 585.348 373.500 C 591.734 363.698, 592.501 361.277, 592.483 351 C 592.473 345.775, 592.174 339.475, 591.819 337 C 591.463 334.525, 590.843 330.250, 590.443 327.500 C 590.042 324.750, 588.653 320.377, 587.357 317.783 C 586.061 315.189, 585 312.534, 585 311.883 C 585 308.703, 579.203 299.523, 573.755 294.075 C 564.290 284.610, 559.243 282.352, 540 278.976 C 536.975 278.446, 534.275 278.065, 534 278.131 C 533.725 278.197, 531.700 278.580, 529.500 278.984" stroke="#aa444d" fill="#aa444d" fill-opacity="0.2" fill-rule="evenodd"/><path class="svg-region-Or" d="M 1270 266.929 C 1259.123 269.092, 1245.263 273.594, 1243.235 275.622 C 1242.477 276.380, 1241.429 277, 1240.906 277 C 1239.368 277, 1224 286.190, 1224 287.109 C 1224 287.571, 1222.546 288.701, 1220.768 289.620 C 1210.075 295.149, 1192.200 319.463, 1189.480 332.178 C 1189.089 334.005, 1188.386 335.978, 1187.918 336.562 C 1187.450 337.146, 1186.958 340.408, 1186.823 343.812 C 1186.687 347.258, 1186.118 350.007, 1185.539 350.015 C 1184.968 350.024, 1185.175 350.467, 1186 351 C 1186.825 351.533, 1187.040 351.976, 1186.478 351.985 C 1185.817 351.995, 1185.514 357.678, 1185.622 368.033 L 1185.789 384.067 1190.209 388.783 C 1192.641 391.378, 1196.401 394.845, 1198.565 396.488 C 1203.662 400.358, 1222.785 419.471, 1226.092 424 C 1230.102 429.493, 1232.357 436.978, 1233.471 448.500 C 1234.081 454.800, 1233.847 456.282, 1231.132 463.326 C 1229.474 467.630, 1226.586 473.030, 1224.716 475.326 C 1222.846 477.622, 1221.015 480.625, 1220.647 482 C 1220.279 483.375, 1217.667 486.300, 1214.842 488.500 C 1212.017 490.700, 1209.139 493.052, 1208.447 493.728 C 1207.754 494.403, 1204.783 495.916, 1201.844 497.090 C 1197.181 498.952, 1195.195 499.153, 1186.250 498.668 C 1180.612 498.362, 1176 498.338, 1176 498.615 C 1176 498.891, 1177.366 500.818, 1179.036 502.896 C 1182.823 507.607, 1183.869 513.025, 1181.647 516.417 C 1180.253 518.544, 1171.744 523.243, 1162.750 526.853 C 1161.188 527.480, 1160 528.729, 1160 529.743 C 1160 533.811, 1152.732 544, 1149.831 544 C 1149.244 544, 1146.905 542.113, 1144.632 539.808 C 1140.098 535.207, 1132.714 529.904, 1126.500 526.783 C 1124.300 525.678, 1121.512 523.869, 1120.303 522.763 C 1117.932 520.591, 1115.617 520.609, 1099 522.931 C 1094.875 523.507, 1087.787 524.275, 1083.250 524.638 C 1078.713 525, 1075 525.609, 1075 525.990 C 1075 526.372, 1072.075 529.667, 1068.500 533.313 C 1064.925 536.959, 1062 540.619, 1062 541.445 C 1062 542.272, 1060.711 543.615, 1059.135 544.430 C 1057.184 545.439, 1056.297 546.644, 1056.355 548.206 C 1056.540 553.176, 1053.753 556.586, 1044.204 563.071 C 1032.022 571.345, 1026.379 577.874, 1020.932 590 C 1019.820 592.475, 1017.190 597.875, 1015.087 602 C 1012.985 606.125, 1010.293 612.263, 1009.106 615.640 C 1007.151 621.202, 1007.052 622.473, 1008.056 629.140 C 1009.443 638.352, 1011.130 643.485, 1015.916 653.061 C 1017.994 657.219, 1019.945 661.719, 1020.252 663.061 C 1021.302 667.654, 1026.724 679.499, 1031.362 687.333 C 1033.913 691.641, 1036 695.577, 1036 696.080 C 1036 696.583, 1037.504 698.683, 1039.342 700.747 C 1041.180 702.811, 1044.196 707.425, 1046.044 711 C 1047.892 714.575, 1053.099 723.176, 1057.615 730.113 C 1062.132 737.050, 1067.002 744.925, 1068.438 747.613 C 1069.874 750.301, 1071.865 753.850, 1072.863 755.500 C 1073.861 757.150, 1076.235 761.425, 1078.139 765 C 1082.876 773.898, 1085.856 778.575, 1097.565 795.484 C 1102.020 801.919, 1112.956 814, 1114.326 814 C 1114.972 814.001, 1117.437 816.251, 1119.805 819 C 1122.173 821.750, 1124.700 824, 1125.419 824 C 1126.139 824, 1127.801 825.052, 1129.114 826.337 C 1134.472 831.585, 1153.434 842.474, 1162.684 845.614 C 1168.036 847.431, 1191.006 847.709, 1195.473 846.010 C 1198.161 844.988, 1207.863 845.377, 1223.387 847.128 C 1242.555 849.290, 1251.570 846.140, 1271 830.489 C 1284.986 819.224, 1303.219 798.160, 1315.306 779.303 C 1319.742 772.382, 1326.883 758.230, 1329.526 751.122 C 1331.973 744.539, 1336.914 732.985, 1340.832 724.682 C 1342.955 720.182, 1345.724 714.025, 1346.985 711 C 1348.245 707.975, 1350.533 702.800, 1352.068 699.500 C 1353.603 696.200, 1355.811 690.946, 1356.973 687.825 C 1358.136 684.704, 1360.193 680.521, 1361.544 678.531 C 1362.895 676.540, 1364 674.565, 1364 674.143 C 1364 673.720, 1365.065 671.153, 1366.367 668.437 C 1374.759 650.932, 1377 645.992, 1377 644.994 C 1377 644.375, 1377.541 642.886, 1378.202 641.684 C 1378.863 640.483, 1379.508 638.870, 1379.635 638.100 C 1379.763 637.330, 1380.252 636.430, 1380.723 636.100 C 1381.194 635.770, 1382.868 632.575, 1384.444 629 C 1386.019 625.425, 1392.526 611.907, 1398.904 598.959 C 1405.282 586.012, 1411.272 573.637, 1412.217 571.459 C 1413.161 569.282, 1414.325 566.825, 1414.805 566 C 1417.180 561.914, 1419.424 557.609, 1424.183 548.010 C 1427.043 542.241, 1432.960 531.216, 1437.331 523.510 C 1448.298 504.176, 1454 493.761, 1454 493.062 C 1454 492.737, 1454.969 490.677, 1456.153 488.485 C 1458.420 484.289, 1460.754 477.432, 1464.147 465 C 1465.831 458.832, 1466.183 454.658, 1466.129 441.500 C 1466.093 432.700, 1465.865 424.375, 1465.622 423 C 1465.379 421.625, 1464.866 418.250, 1464.481 415.500 C 1463.396 407.748, 1458.813 391.727, 1457.051 389.525 C 1456.600 388.961, 1455.909 386.925, 1455.515 385 C 1454.777 381.394, 1444.087 359.761, 1442.750 359.167 C 1442.338 358.983, 1442 358.422, 1442 357.919 C 1442 357.089, 1439.121 352.871, 1429.770 340 C 1424.184 332.312, 1417.091 325.299, 1411.431 321.869 C 1408.444 320.059, 1405.764 317.885, 1405.474 317.039 C 1404.636 314.588, 1400.505 310.315, 1397.376 308.662 C 1395.794 307.826, 1393.664 305.872, 1392.643 304.321 C 1390.624 301.255, 1377.648 292.380, 1366.500 286.441 C 1354.605 280.104, 1343.994 275, 1342.718 275.001 C 1342.048 275.001, 1336.550 273.484, 1330.500 271.629 C 1313.618 266.452, 1310.932 265.992, 1294.658 265.499 C 1282.437 265.129, 1277.660 265.406, 1270 266.929" stroke="#aa444d" fill="#aa444d" fill-opacity="0.2" fill-rule="evenodd"/><path class="svg-region-Pl" d="M 568.500 418 C 568.160 418.550, 567.189 419, 566.342 419 C 565.495 419, 563.541 420.350, 562 422 C 560.459 423.650, 558.751 425, 558.206 425 C 557.660 425, 556.955 425.675, 556.638 426.500 C 556.322 427.325, 555.424 428, 554.644 428 C 553.864 428, 552.162 429.346, 550.863 430.991 C 549.563 432.636, 547.973 433.986, 547.328 433.991 C 545.332 434.006, 539.025 442.194, 537.958 446.155 C 537.401 448.223, 536.508 450.186, 535.973 450.517 C 535.438 450.847, 535 452.666, 535 454.559 C 535 456.452, 534.550 458, 534 458 C 533.397 458, 533 462.147, 533 468.441 C 533 474.323, 533.437 479.152, 534 479.500 C 534.550 479.840, 535 481.116, 535 482.335 C 535 483.555, 537.043 488.591, 539.539 493.526 C 544.031 502.406, 548.916 507.993, 552.193 507.998 C 553.124 507.999, 555.374 508.873, 557.193 509.941 C 559.012 511.008, 562.862 512.191, 565.750 512.569 C 570.049 513.133, 571 513.610, 571 515.204 C 571 517.066, 571.165 517.050, 574.851 514.825 C 585.881 508.167, 591.005 504.188, 592.977 500.750 C 594.160 498.688, 595.469 497, 595.886 497 C 596.688 497, 599.492 491.097, 603.011 482 C 604.181 478.975, 606.232 474.620, 607.569 472.322 C 608.975 469.905, 610.007 466.533, 610.016 464.322 C 610.024 462.220, 610.683 457.800, 611.480 454.500 C 612.990 448.247, 613.555 430.991, 612.250 431.012 C 611.837 431.018, 609.025 431.688, 606 432.500 C 597.070 434.897, 594.728 434.525, 589.329 429.852 C 586.693 427.571, 583.105 425.106, 581.355 424.375 C 579.605 423.644, 576.684 421.685, 574.864 420.023 C 571.428 416.885, 569.557 416.290, 568.500 418" stroke="#f9d3d3" fill="#f9d3d3" fill-opacity="0.2" fill-rule="evenodd"/><path class="svg-region-Pr" d="M 1204.833 403.894 C 1204.124 405.799, 1180.822 417.985, 1177.872 417.995 C 1176.977 417.998, 1175.695 418.663, 1175.022 419.474 C 1174.349 420.284, 1172.269 421.234, 1170.400 421.585 C 1168.530 421.936, 1167 422.560, 1167 422.972 C 1167 423.385, 1165.088 424.742, 1162.750 425.989 C 1158.504 428.253, 1154.300 433.592, 1151.612 440.133 C 1150.837 442.019, 1149.916 449.487, 1149.519 457.115 C 1148.912 468.761, 1149.049 471.193, 1150.461 473.925 C 1152.879 478.600, 1158.474 484.483, 1167.244 491.570 C 1174.833 497.704, 1175.138 497.842, 1182.607 498.542 C 1194.795 499.684, 1203.793 497.964, 1208.674 493.559 C 1209.320 492.977, 1212.123 490.700, 1214.902 488.500 C 1217.682 486.300, 1220.268 483.378, 1220.648 482.006 C 1221.028 480.634, 1222.983 477.432, 1224.993 474.890 C 1227.002 472.348, 1229.213 468.745, 1229.906 466.884 C 1230.599 465.023, 1231.837 461.952, 1232.657 460.061 C 1234.638 455.492, 1233.566 441.947, 1230.505 432.851 C 1228.006 425.425, 1227.886 425.246, 1219.500 416.417 C 1216.200 412.943, 1212.101 408.502, 1210.391 406.550 C 1207.316 403.038, 1205.479 402.161, 1204.833 403.894" stroke="#f9d3d3" fill="#f9d3d3" fill-opacity="0.2" fill-rule="evenodd"/><path class="svg-region-OLr" d="M 1149.334 404.671 C 1149.770 407.359, 1149.491 408.905, 1148.338 410.179 C 1147.065 411.585, 1146.952 412.519, 1147.787 414.724 C 1148.365 416.251, 1149.094 418.625, 1149.407 420 C 1149.721 421.375, 1151.774 423.981, 1153.971 425.792 L 1157.965 429.084 1163.466 425.565 C 1166.491 423.630, 1170.080 421.767, 1171.442 421.425 C 1172.804 421.083, 1174.442 420.173, 1175.081 419.402 C 1175.721 418.631, 1177.240 418, 1178.456 418 C 1181.145 418, 1182.190 417.099, 1181.227 415.611 C 1180.831 415, 1180.506 413.150, 1180.504 411.500 C 1180.500 408.652, 1180.246 408.468, 1175.500 407.863 C 1166.585 406.727, 1162.548 405.704, 1160 403.935 C 1158.625 402.980, 1155.526 401.914, 1153.114 401.566 L 1148.727 400.933 1149.334 404.671" stroke="#c4875d" fill="#c4875d" fill-opacity="0.2" fill-rule="evenodd"/><path class="svg-region-VOC" d="M 1143.698 430.636 C 1143.314 431.019, 1143 435.055, 1143 439.604 C 1143 447.862, 1142.995 447.879, 1139.250 451.428 C 1136.231 454.290, 1134.712 454.984, 1131.460 454.991 C 1126.440 455.002, 1117.862 452.809, 1110.030 449.513 C 1106.747 448.131, 1103.034 446.997, 1101.780 446.994 C 1100.526 446.990, 1098.211 446.315, 1096.636 445.494 C 1093.341 443.775, 1091 443.562, 1091 444.981 C 1091 445.520, 1089.925 446.232, 1088.610 446.562 C 1085.994 447.218, 1082 451.275, 1082 453.275 C 1082 453.968, 1085.938 456.100, 1090.750 458.013 C 1095.563 459.927, 1099.650 461.831, 1099.833 462.246 C 1100.017 462.661, 1101.254 463, 1102.583 463 C 1103.912 463, 1105 463.399, 1105 463.887 C 1105 464.374, 1109.612 464.963, 1115.250 465.196 C 1126.743 465.670, 1131.795 467.310, 1140.322 473.340 C 1143.961 475.914, 1151 476.804, 1151 474.691 C 1151 473.826, 1150.502 472.810, 1149.894 472.434 C 1147.988 471.257, 1149.789 444.432, 1152.137 439.034 L 1154.079 434.568 1151.789 432.806 C 1150.530 431.837, 1148.974 431.034, 1148.332 431.022 C 1147.689 431.010, 1146.541 430.761, 1145.780 430.469 C 1145.018 430.177, 1144.082 430.252, 1143.698 430.636" stroke="#ff8f93" fill="#ff8f93" fill-opacity="0.2" fill-rule="evenodd"/><path class="svg-region-OABl" d="M 619 442 C 618.175 442.533, 616.600 442.977, 615.500 442.987 C 613.774 443.001, 613.258 444.272, 611.735 452.252 C 610.764 457.338, 609.977 462.943, 609.985 464.706 C 609.993 466.469, 608.756 470.069, 607.235 472.706 C 605.715 475.343, 603.608 479.975, 602.554 483 C 599.151 492.768, 592.023 503.873, 587.430 506.561 C 578.497 511.790, 567 520.234, 567 521.566 C 567 522.389, 566.325 523.322, 565.500 523.638 C 563.281 524.490, 563.674 528.479, 566.500 533.788 C 568.771 538.055, 569 539.594, 569 550.620 C 569 566.613, 569.642 567.243, 578.228 559.691 C 581.678 556.657, 585.924 552.560, 587.665 550.587 C 589.667 548.318, 591.725 547, 593.266 547 C 594.607 547, 597.031 545.763, 598.654 544.250 C 602.203 540.942, 607.248 538.371, 612 537.447 C 613.925 537.073, 616.223 536.032, 617.107 535.134 C 620.556 531.627, 623.882 529.173, 626.140 528.468 C 627.438 528.062, 629.388 527.116, 630.473 526.365 C 631.557 525.614, 633.185 525, 634.089 525 C 635.862 525, 644.729 521.761, 649.331 519.432 C 650.888 518.645, 654.490 518, 657.334 518 C 660.179 518, 665.654 517.100, 669.500 516 C 677.016 513.851, 682.532 513.478, 686.203 514.872 C 690.961 516.679, 695.661 517.861, 700.588 518.492 C 705.114 519.071, 706.016 518.857, 708.753 516.554 C 711.704 514.071, 711.770 513.847, 710.380 511.060 C 708.671 507.635, 705.982 498.156, 705.114 492.500 C 704.500 488.503, 704.497 488.500, 699.500 488.190 C 696.750 488.020, 694.072 487.457, 693.550 486.940 C 691.770 485.179, 680.682 485.868, 676.500 488 C 671.679 490.458, 671 490.483, 671 488.200 C 671 487.210, 670.527 485.927, 669.949 485.349 C 668.481 483.881, 674.691 474, 677.082 474 C 680.121 474, 680.086 470.747, 676.980 464.609 C 675.341 461.369, 674 458.107, 674 457.359 C 674 456.293, 671.535 456, 662.559 456 C 656.010 456, 650.854 455.572, 650.500 455 C 650.144 454.423, 644.723 453.994, 637.691 453.985 C 623.483 453.968, 620.655 453.045, 620.190 448.273 C 620.020 446.524, 620.373 444.172, 620.975 443.046 C 622.154 440.844, 621.404 440.447, 619 442" stroke="#81244d" fill="#81244d" fill-opacity="0.2" fill-rule="evenodd"/><path class="svg-region-OABr" d="M 1076 453.941 C 1076 455.009, 1076.450 456.160, 1077 456.500 C 1078.602 457.490, 1078.155 458.997, 1076.250 459.028 C 1075.023 459.048, 1075.835 460.245, 1078.964 463.028 C 1081.419 465.213, 1084.421 467, 1085.636 467 C 1088.586 467, 1090.139 471.805, 1089.818 479.937 C 1089.538 487.030, 1089.970 486.903, 1079.658 482.911 C 1074.456 480.897, 1073.197 480.768, 1068.158 481.728 C 1053.075 484.602, 1052 485.325, 1052 492.587 C 1052 496.906, 1052.383 498.135, 1054 499 C 1055.147 499.614, 1056 501.094, 1056 502.470 C 1056 505.477, 1057.771 510.241, 1059.223 511.138 C 1059.826 511.511, 1060.531 514.355, 1060.788 517.457 C 1061.186 522.254, 1060.931 523.445, 1059.085 525.409 L 1056.915 527.719 1063.689 528.263 C 1069.148 528.701, 1070.951 528.466, 1072.981 527.048 C 1074.579 525.932, 1078.427 525.040, 1083.500 524.608 C 1087.900 524.233, 1094.875 523.489, 1099 522.955 C 1117.008 520.622, 1117.952 520.612, 1120.303 522.731 C 1121.512 523.819, 1124.525 525.787, 1127 527.105 C 1129.475 528.422, 1131.725 529.764, 1132 530.087 C 1132.275 530.409, 1134.637 531.914, 1137.249 533.431 C 1139.862 534.948, 1142.748 537.458, 1143.665 539.009 C 1145.029 541.320, 1148.698 544, 1150.496 544 C 1152.584 544, 1159.989 533.793, 1159.996 530.905 C 1160.002 528.580, 1162.687 526.673, 1169.820 523.930 C 1173.296 522.594, 1177.742 520.035, 1179.701 518.245 C 1182.948 515.277, 1183.214 514.629, 1182.712 510.887 C 1182.381 508.421, 1180.932 505.255, 1179.081 502.951 C 1177.386 500.842, 1175.999 498.753, 1175.998 498.309 C 1175.997 497.864, 1173.860 496.152, 1171.248 494.504 C 1168.637 492.857, 1163.020 488.078, 1158.767 483.885 C 1152.352 477.561, 1150.321 476.147, 1146.846 475.591 C 1144.543 475.223, 1140.847 473.589, 1138.632 471.961 C 1136.418 470.332, 1134.089 469, 1133.457 469 C 1132.824 469, 1130.776 468.232, 1128.904 467.293 C 1126.655 466.165, 1122.275 465.451, 1116 465.189 C 1110.775 464.971, 1106.072 464.390, 1105.550 463.897 C 1105.027 463.403, 1103.565 463, 1102.300 463 C 1101.035 463, 1100 462.550, 1100 462 C 1100 461.450, 1099.525 461, 1098.945 461 C 1098.365 461, 1096.002 460.147, 1093.695 459.104 C 1091.388 458.061, 1087.813 456.509, 1085.750 455.655 C 1083.688 454.801, 1082 453.629, 1082 453.051 C 1082 452.473, 1080.650 452, 1079 452 C 1076.697 452, 1076 452.451, 1076 453.941" stroke="#81244d" fill="#81244d" fill-opacity="0.2" fill-rule="evenodd"/><path class="svg-region-SOTl" d="M 679.768 472 C 679.081 473.100, 677.766 474, 676.845 474 C 674.534 474, 668.494 483.894, 669.930 485.330 C 670.518 485.918, 671 487.183, 671 488.141 C 671 490.622, 672.585 491.272, 674.344 489.513 C 676.874 486.984, 680.799 486, 688.365 486 C 698.158 486, 699.056 484.848, 693.481 479.430 C 691.058 477.075, 688.784 473.989, 688.429 472.574 C 687.894 470.443, 687.201 470, 684.400 470 C 682.100 470, 680.617 470.640, 679.768 472" stroke="#995b45" fill="#995b45" fill-opacity="0.2" fill-rule="evenodd"/><path class="svg-region-SOTr" d="M 1051.240 466.058 C 1050.283 467.190, 1048.037 469.027, 1046.250 470.140 C 1043.262 472, 1043 472.580, 1043.005 477.332 C 1043.009 481.270, 1043.576 483.208, 1045.390 485.475 L 1047.770 488.450 1052.635 486.350 C 1064.431 481.259, 1071.953 480.174, 1079.181 482.520 C 1082.107 483.469, 1084.928 484.641, 1085.450 485.123 C 1086.718 486.293, 1090 486.245, 1090 485.057 C 1090 484.538, 1087.638 481.892, 1084.750 479.177 C 1074.655 469.684, 1073.404 468.897, 1067.438 468.281 C 1063.501 467.875, 1061.487 467.152, 1060.675 465.851 C 1059.062 463.269, 1053.495 463.391, 1051.240 466.058" stroke="#995b45" fill="#995b45" fill-opacity="0.2" fill-rule="evenodd"/><path class="svg-region-LBPCl" d="M 603.808 203.250 C 602.943 203.938, 601.980 206.300, 601.669 208.500 C 601.358 210.700, 600.814 213.471, 600.460 214.658 C 600.017 216.140, 600.447 217.391, 601.836 218.658 C 605.121 221.653, 606.878 223, 607.500 223 C 607.821 223, 608.628 223.462, 609.292 224.026 C 609.956 224.591, 612.525 226.374, 615 227.989 C 617.475 229.604, 620.807 232.067, 622.406 233.462 C 624.004 234.858, 625.854 236, 626.518 236 C 627.182 236, 629.424 237.350, 631.500 239 C 633.576 240.650, 635.954 242, 636.785 242 C 637.615 242, 640.216 243.575, 642.565 245.500 C 644.915 247.425, 647.270 249, 647.799 249 C 649.599 249, 664.983 261.044, 666.676 263.779 C 667.602 265.275, 669.616 267.858, 671.150 269.517 C 674.787 273.449, 679 286.688, 679 294.181 C 679 299.568, 679.210 300.057, 682.750 302.924 C 692.501 310.822, 695.007 312.742, 699.813 315.997 C 702.652 317.921, 705.216 320.121, 705.510 320.887 C 706.026 322.232, 701.675 336.754, 697.986 346 C 695.717 351.685, 693 363.748, 693 368.134 C 693 372.276, 699.497 385.705, 701.864 386.457 C 703.060 386.837, 705.635 385.064, 710.144 380.754 C 717.794 373.443, 722.447 366.762, 723.391 361.731 C 723.944 358.782, 724.598 358.028, 727.070 357.485 C 729.601 356.929, 738.342 351.211, 740 349.027 C 740.275 348.665, 742.975 346.733, 746 344.733 C 761.819 334.280, 762.610 328.794, 750.670 312.364 C 745.860 305.745, 743.805 303.788, 739.646 301.864 C 736.834 300.564, 730.612 296.936, 725.819 293.803 C 721.026 290.669, 715.674 287.366, 713.927 286.462 C 709.792 284.324, 700.101 276.415, 697.552 273.098 C 696.454 271.669, 694.643 269.837, 693.528 269.026 C 690.597 266.896, 686.402 262.161, 685.227 259.659 C 679.409 247.263, 678.698 246.208, 674.655 243.972 C 660.472 236.131, 639.916 225.541, 636.587 224.361 C 632.242 222.821, 624.165 216.623, 623.234 214.115 C 622.512 212.170, 619.262 207.341, 616.594 204.250 C 615.100 202.520, 613.581 202, 610.017 202 C 607.468 202, 604.674 202.563, 603.808 203.250" stroke="#daffff" fill="#daffff" fill-opacity="0.2" fill-rule="evenodd"/><path class="svg-region-LBPCr" d="M 1081.989 251.250 C 1080.899 253.037, 1080.006 255.322, 1080.004 256.326 C 1079.999 258.819, 1058.803 279, 1056.190 279 C 1055.674 279, 1052.567 281.587, 1049.286 284.750 C 1038.506 295.142, 1036.421 296.279, 1033.499 293.356 C 1032.128 291.985, 1031.460 291.881, 1030.144 292.837 C 1024.797 296.715, 1021.683 298.233, 1014.450 300.487 C 1010.016 301.869, 1005.462 303, 1004.332 303 C 1003.201 303, 999.316 304.342, 995.698 305.983 C 989.136 308.958, 989.121 308.974, 989.691 312.483 C 990.219 315.735, 990.070 316, 987.713 316 C 985.281 316, 985.167 316.255, 985.214 321.552 C 985.290 329.997, 986.806 331.299, 996.693 331.410 C 1004.408 331.497, 1004.808 331.618, 1007.357 334.647 C 1010.534 338.424, 1018.079 343.320, 1023.258 344.966 C 1025.324 345.623, 1027.475 347.019, 1028.037 348.070 C 1029.307 350.443, 1034.110 353, 1037.297 353 C 1040.097 353, 1045.257 355.400, 1047.017 357.521 C 1047.692 358.334, 1049.262 359, 1050.506 359 C 1052.199 359, 1053.643 360.472, 1056.262 364.869 C 1058.185 368.097, 1060.263 372.259, 1060.881 374.119 C 1062.123 377.859, 1067.392 384, 1069.360 384 C 1070.052 384, 1071.459 383.385, 1072.487 382.633 C 1074.019 381.513, 1074.477 379.382, 1075.023 370.835 C 1075.511 363.194, 1076.187 359.644, 1077.551 357.562 C 1079.599 354.436, 1080.489 342.784, 1078.905 339.824 C 1077.152 336.547, 1068.556 331.696, 1062.059 330.317 C 1058.516 329.566, 1055.382 328.715, 1055.094 328.427 C 1054.112 327.445, 1056.687 324.503, 1060.343 322.430 C 1062.351 321.291, 1067.882 317.022, 1072.634 312.943 C 1081.882 305.004, 1083.141 302.984, 1087.050 289.802 C 1088.241 285.786, 1090.067 280.728, 1091.108 278.562 C 1093.519 273.544, 1093.506 268.458, 1091.065 261.788 C 1090.001 258.879, 1088.633 254.588, 1088.027 252.250 C 1086.689 247.101, 1084.718 246.774, 1081.989 251.250" stroke="#daffff" fill="#daffff" fill-opacity="0.2" fill-rule="evenodd"/>
    </svg>