<svg xmlns="http://www.w3.org/2000/svg" width="1785" height="1131" viewBox="0 0 1785 1131" version="1.1">
    <path class="svg-region-AAB" d="M 715.457 459.834 C 711.007 462.590, 707.220 467.505, 705.857 472.295 C 705.199 474.608, 703.837 477.429, 702.830 478.564 C 701.824 479.700, 701 480.970, 701 481.386 C 701 482.516, 698.300 485, 697.071 485 C 695.631 485, 695.722 486.298, 697.439 490.216 C 698.230 492.022, 699.130 494.703, 699.439 496.173 C 699.747 497.643, 701.165 500.231, 702.589 501.923 C 705.080 504.884, 705.099 505, 703.089 505 C 700.021 505, 700.542 506.312, 704.250 507.926 C 706.038 508.703, 707.725 509.627, 708 509.979 C 708.275 510.330, 711.650 512.341, 715.500 514.448 C 719.350 516.554, 725.108 520.032, 728.295 522.177 C 734.576 526.404, 740.927 528.333, 748 528.163 C 773.730 527.542, 777.546 527.181, 782.500 524.893 C 785.250 523.623, 787.725 522.564, 788 522.540 C 789.458 522.411, 796.924 516.230, 799.046 513.394 C 800.396 511.592, 803.155 509.362, 805.177 508.440 C 812.320 505.181, 816.042 499.168, 815.969 491.007 C 815.946 488.479, 815.267 487.013, 813.536 485.754 C 811.319 484.142, 811.010 484.133, 809.509 485.633 C 806.651 488.492, 800.090 488.489, 795 485.627 C 792.525 484.236, 788.543 482.181, 786.151 481.061 C 783.759 479.941, 779.648 477.444, 777.017 475.512 C 774.385 473.581, 771.499 472, 770.602 472 C 769.706 472, 768.191 471.596, 767.236 471.103 C 766.281 470.609, 763.475 469.422, 761 468.466 C 758.525 467.509, 754.605 465.894, 752.289 464.876 C 749.973 463.859, 745.473 462.734, 742.289 462.377 C 739.105 462.020, 736.050 461.392, 735.500 460.982 C 734.950 460.572, 731.800 460, 728.500 459.710 C 725.200 459.420, 721.600 458.906, 720.500 458.567 C 719.324 458.204, 717.246 458.727, 715.457 459.834 M 1031.104 466.206 C 1026.105 469.032, 1024.867 469.280, 1014.284 469.581 C 1004.562 469.858, 1002.239 470.253, 998.681 472.235 C 996.381 473.516, 992.925 475.157, 991 475.880 C 985.591 477.915, 979.926 481.078, 975.097 484.759 L 970.695 488.116 959.597 487.808 L 948.500 487.500 948.368 497.558 C 948.238 507.497, 948.268 507.631, 950.868 508.849 C 952.316 509.526, 955.009 511.975, 956.854 514.290 C 968.576 529.003, 975.768 535.425, 985.500 539.871 C 988.250 541.127, 991.674 542.783, 993.109 543.551 C 997.367 545.829, 1008.952 546.331, 1013.563 544.437 C 1017.124 542.975, 1026.765 537.358, 1028 536.027 C 1028.275 535.730, 1031.425 533.040, 1035 530.049 C 1038.575 527.057, 1042.175 523.867, 1043 522.960 C 1043.825 522.053, 1046.300 520.006, 1048.500 518.411 C 1053.536 514.761, 1053.785 514.415, 1055.141 509.209 C 1055.946 506.116, 1057.055 504.506, 1059.112 503.442 C 1062.701 501.586, 1065 497.224, 1065 492.272 C 1065 487.432, 1062.325 483.354, 1054.085 475.636 C 1051.657 473.361, 1048.738 470.458, 1047.598 469.185 C 1045.020 466.305, 1039.722 462.974, 1037.882 463.078 C 1037.122 463.121, 1034.072 464.528, 1031.104 466.206" stroke="#7f3c1a" fill="#7f3c1a" fill-opacity="0.2" fill-rule="evenodd"/><path class="svg-region-PC" d="M 1044.090 432.039 C 1038.939 434.859, 1038.103 435, 1026.590 435.001 C 1014.902 435.002, 1014.276 435.113, 1007.754 438.338 C 1000.394 441.977, 993 448.714, 993 451.780 C 993 453.713, 983.368 461, 980.813 461 C 980.143 461, 978.158 462.393, 976.402 464.095 L 973.209 467.190 967.540 465.922 C 963.899 465.107, 961.233 463.841, 960.086 462.382 C 958.372 460.203, 951.310 456.182, 950.759 457.071 C 950.613 457.307, 949.370 459.075, 947.997 461 C 945.749 464.151, 945.500 465.462, 945.500 474.142 C 945.500 487.609, 945.908 488, 959.992 488 L 970.674 488 976.337 483.945 C 979.452 481.715, 984.587 478.772, 987.750 477.405 C 990.912 476.038, 995.573 473.820, 998.107 472.476 C 1002.021 470.398, 1004.425 469.970, 1014.107 469.626 C 1020.373 469.404, 1026.625 468.703, 1028 468.068 C 1036.051 464.352, 1043.343 458.321, 1046.961 452.387 C 1049.931 447.515, 1050.065 446.842, 1049.789 438.175 L 1049.500 429.077 1044.090 432.039 M 741 437.032 C 739.075 437.489, 734.674 438.063, 731.221 438.307 L 724.942 438.752 721.068 444.281 C 716.711 450.502, 715.682 453.008, 716.554 455.281 C 717.436 457.577, 724.319 460, 729.961 460 C 732.668 460, 735.160 460.450, 735.500 461 C 735.840 461.550, 737.615 462, 739.444 462 C 742.640 462, 752.966 464.807, 754 465.957 C 754.662 466.693, 766.816 471.100, 770 471.759 C 771.375 472.043, 774.525 473.735, 777 475.518 C 785.422 481.586, 798.794 488, 803.025 488 C 808.056 488, 814.055 482.715, 814.018 478.313 C 814.005 476.766, 814.418 472.125, 814.935 468 C 815.453 463.875, 815.890 458.700, 815.906 456.500 C 815.931 453.173, 815.732 452.762, 814.718 454.058 C 812.754 456.569, 804.672 460, 800.721 460 C 797.658 460, 796.064 459.063, 790.787 454.163 C 782.274 446.259, 775.850 443.328, 756.447 438.499 C 745.585 435.796, 746.029 435.838, 741 437.032" stroke="#cda789" fill="#cda789" fill-opacity="0.2" fill-rule="evenodd"/><path class="svg-region-IBl" d="M 684.534 417.670 C 684.146 419.739, 683.024 422.573, 682.041 423.966 C 681.058 425.360, 678.734 429.376, 676.877 432.891 C 671.996 442.130, 671.373 443.126, 668.720 445.950 C 665.906 448.945, 664.525 451.463, 663.619 455.250 C 663.014 457.782, 663.198 458, 665.946 458 C 667.974 458, 669.298 458.687, 670.078 460.146 C 671.156 462.160, 671.082 463.674, 669.397 474.108 C 668.629 478.865, 671.987 485.708, 675.525 486.596 C 678.023 487.223, 679.105 487.092, 688.500 485.034 C 691.250 484.431, 694.531 484.190, 695.792 484.499 C 697.057 484.808, 698.640 484.486, 699.325 483.780 C 702.047 480.973, 704.700 476.282, 705.874 472.200 C 706.731 469.218, 708.757 466.321, 712.483 462.749 C 716.918 458.498, 717.684 457.278, 716.872 455.762 C 715.551 453.293, 716.399 451.024, 721.332 443.832 L 725.500 437.754 722.505 435.627 C 719.121 433.224, 713.866 427.893, 709.672 422.610 C 706.878 419.089, 706.775 419.054, 701.046 419.653 C 695.239 420.260, 691.829 419.192, 686.870 415.215 C 685.435 414.063, 685.156 414.356, 684.534 417.670" stroke="#b10e0e" fill="#b10e0e" fill-opacity="0.2" fill-rule="evenodd"/><path class="svg-region-IBr" d="M 1069.500 409.377 C 1065.650 412.315, 1059.688 417.963, 1056.250 421.930 L 1050 429.142 1050 438.272 C 1050 446.705, 1049.765 447.789, 1046.926 452.451 C 1045.235 455.228, 1042.363 458.620, 1040.543 459.989 L 1037.234 462.479 1040.090 463.680 C 1041.660 464.340, 1045.986 467.832, 1049.702 471.440 C 1055.824 477.385, 1060 479.639, 1060 477 C 1060 476.450, 1060.607 476, 1061.349 476 C 1062.751 476, 1075.783 469.429, 1077.450 467.882 C 1077.973 467.397, 1079.408 467, 1080.641 467 C 1081.874 467, 1083.191 466.500, 1083.568 465.890 C 1083.967 465.245, 1085.646 465.005, 1087.573 465.318 C 1090.684 465.823, 1090.965 465.626, 1092.061 462.178 C 1093.648 457.181, 1098.958 446.661, 1100.324 445.807 C 1100.993 445.389, 1100.410 444.726, 1098.853 444.134 C 1095.623 442.906, 1095.244 441.890, 1094.432 432.285 C 1093.555 421.905, 1090.107 414.039, 1084.831 410.383 C 1082.658 408.877, 1080.442 406.825, 1079.905 405.823 C 1078.446 403.096, 1077.155 403.537, 1069.500 409.377" stroke="#b10e0e" fill="#b10e0e" fill-opacity="0.2" fill-rule="evenodd"/><path class="svg-region-LBl" d="M 768.502 332.339 C 767.402 333.163, 766.825 334.159, 767.219 334.552 C 767.612 334.946, 767.049 336.393, 765.967 337.769 C 764.885 339.144, 763.990 341.222, 763.978 342.385 C 763.942 345.775, 760.961 348.609, 754 351.869 C 750.425 353.543, 745.700 356.045, 743.500 357.429 C 741.300 358.812, 738.150 360.563, 736.500 361.318 C 733.180 362.837, 731.635 365.334, 729.972 371.867 L 728.860 376.233 724.860 375.594 C 722.659 375.242, 719.728 374.213, 718.345 373.307 C 715.847 371.670, 715.791 371.702, 709.345 378.473 C 705.777 382.221, 702.107 386.460, 701.189 387.893 C 700.271 389.327, 698.131 392.344, 696.434 394.598 C 692.068 400.397, 685.755 412.919, 686.378 414.544 C 686.667 415.295, 688.813 416.884, 691.149 418.076 C 694.547 419.809, 696.527 420.139, 701.066 419.728 C 707.217 419.170, 706.831 418.946, 712.446 426.330 C 714.048 428.436, 717.973 432.171, 721.168 434.629 L 726.976 439.099 735.210 437.971 C 739.738 437.351, 743.809 436.618, 744.255 436.343 C 744.701 436.067, 749.996 437.020, 756.021 438.461 C 775.859 443.204, 782.310 446.149, 790.664 454.275 C 796.775 460.220, 796.868 460.267, 801.664 459.759 C 807.571 459.134, 813.394 456.898, 810.750 456.269 C 809.689 456.017, 809 454.915, 809 453.471 C 809 452.160, 807.650 448.798, 806 446 C 802.976 440.872, 802 434.400, 803.954 432.446 C 805.181 431.219, 810.682 409.921, 811.590 402.886 C 811.972 399.924, 812.676 396.443, 813.155 395.150 C 813.634 393.858, 814.903 388.785, 815.974 383.877 C 818.332 373.074, 819.051 342.850, 816.967 342.156 C 816.297 341.932, 814.875 340.875, 813.807 339.807 C 811.399 337.399, 803.823 335.025, 798.500 335.011 C 796.299 335.005, 791.349 334.290, 787.500 333.421 C 776.475 330.935, 770.806 330.612, 768.502 332.339" stroke="#d7b230" fill="#d7b230" fill-opacity="0.2" fill-rule="evenodd"/><path class="svg-region-LBr" d="M 980.637 331.684 C 977.413 333.036, 972.239 334.554, 969.141 335.058 C 962.343 336.165, 949.410 342.571, 946.731 346.158 C 943.601 350.351, 942.017 359.414, 941.342 377 L 940.709 393.500 943.465 399 C 944.980 402.025, 947.029 405.400, 948.018 406.500 C 949.236 407.856, 950.543 412.908, 952.073 422.179 L 954.332 435.859 952.166 441.518 C 949.240 449.165, 949.355 453.082, 952.601 456.328 C 954.032 457.759, 956.057 459.201, 957.101 459.532 C 958.145 459.864, 959 460.671, 959 461.327 C 959 463.060, 961.778 464.518, 967.830 465.964 C 973.154 467.236, 973.163 467.234, 976.377 464.119 C 978.147 462.403, 980.143 461, 980.813 461 C 983.368 461, 993 453.713, 993 451.780 C 993 448.701, 999.875 442.558, 1007.725 438.622 C 1014.811 435.070, 1015.178 435, 1026.797 435 C 1038.236 435, 1038.849 434.889, 1044.572 431.789 C 1047.833 430.024, 1052.300 426.556, 1054.500 424.084 C 1062.894 414.652, 1067.401 410.650, 1077.929 403.276 C 1078.952 402.559, 1074.579 395.472, 1068.778 388.443 C 1065.325 384.259, 1061.990 379.935, 1061.366 378.834 C 1059.360 375.293, 1058.127 374.473, 1056.800 375.800 C 1056.101 376.499, 1052.752 377, 1048.785 377 C 1042.172 377, 1041.912 376.904, 1039.998 373.757 C 1038.913 371.973, 1037.292 368.473, 1036.396 365.980 C 1035.499 363.486, 1032.199 358.577, 1029.063 355.070 C 1023.523 348.877, 1023.197 348.681, 1017.668 348.222 C 1012.665 347.808, 1011.902 347.457, 1011.369 345.332 C 1011.035 344.002, 1007.606 339.784, 1003.749 335.957 C 996.836 329.098, 996.664 329.002, 991.618 329.113 C 988.675 329.179, 984.008 330.271, 980.637 331.684" stroke="#d7b230" fill="#d7b230" fill-opacity="0.2" fill-rule="evenodd"/><path class="svg-region-PP" d="M 820.558 303.906 C 820.250 304.404, 819.028 304.559, 817.842 304.249 C 815.872 303.733, 815.743 303.967, 816.343 306.967 C 816.705 308.773, 817 311.116, 817 312.175 C 817 314.111, 822.925 320.995, 824.601 321.006 C 826.090 321.017, 828.970 326.915, 828.317 328.617 C 827.982 329.489, 828.112 330.494, 828.604 330.851 C 829.097 331.208, 830.099 332.566, 830.832 333.868 C 832.555 336.931, 830.844 339.020, 828.866 336.268 C 828.115 335.223, 826.693 334.067, 825.707 333.699 C 824.231 333.148, 824.111 332.661, 825.029 330.946 C 825.968 329.191, 825.730 328.479, 823.520 326.431 C 822.078 325.094, 820.245 324, 819.448 324 C 817.770 324, 817.472 328.072, 819.037 329.637 C 820.831 331.431, 821.090 335.850, 819.608 339.395 C 818.596 341.819, 818.143 347.478, 818.051 358.885 C 817.952 371.215, 817.444 377.003, 815.872 383.730 C 813.977 391.836, 813.027 396.152, 809.871 411 C 809.228 414.025, 808.049 418.975, 807.251 422 C 806.453 425.025, 805.567 428.519, 805.281 429.765 C 804.995 431.010, 804.365 432.274, 803.881 432.574 C 801.878 433.812, 803.051 440.999, 806.106 446.206 C 807.814 449.118, 809.373 451.671, 809.570 451.881 C 809.767 452.090, 811.553 451.491, 813.540 450.548 C 815.943 449.408, 816.964 448.348, 816.592 447.380 C 816.285 446.579, 816.712 445.664, 817.540 445.346 C 818.369 445.028, 820.598 442.431, 822.494 439.575 C 825.067 435.698, 826.236 432.496, 827.106 426.941 C 827.748 422.848, 828.886 418.082, 829.636 416.349 C 830.386 414.616, 831 412.472, 831 411.585 C 831 410.698, 831.404 409.191, 831.897 408.236 C 832.391 407.281, 833.270 402.815, 833.851 398.311 C 834.432 393.807, 835.338 389.307, 835.865 388.311 C 837.960 384.350, 839.939 377.184, 840.584 371.228 C 840.958 367.778, 841.654 364.714, 842.132 364.419 C 842.609 364.123, 843 361.235, 843 358 C 843 354.765, 843.450 351.840, 844 351.500 C 844.550 351.160, 845 350.064, 845 349.063 C 845 348.063, 845.597 346.749, 846.326 346.144 C 847.270 345.361, 847.699 341.699, 847.812 333.449 L 847.971 321.856 843.506 317.678 C 836.861 311.461, 832.776 308.359, 830.151 307.538 C 828.859 307.133, 826.947 305.947, 825.901 304.901 C 823.870 302.870, 821.474 302.424, 820.558 303.906 M 828 342.941 C 828 343.459, 828.450 344.160, 829 344.500 C 829.550 344.840, 830 344.416, 830 343.559 C 830 342.702, 829.550 342, 829 342 C 828.450 342, 828 342.423, 828 342.941 M 922.309 376.867 C 922.892 383.781, 924.391 390.537, 925.718 392.232 C 927.044 393.925, 927.948 397.275, 929.031 404.500 C 931.778 422.838, 932.275 425.196, 937.983 447 C 939.063 451.125, 940.437 456.454, 941.037 458.842 C 942.051 462.884, 942.313 463.140, 944.813 462.538 C 946.291 462.182, 948.047 461.128, 948.716 460.195 C 949.385 459.263, 950.450 457.900, 951.083 457.167 C 951.931 456.185, 951.940 455.540, 951.117 454.717 C 949.380 452.980, 949.793 447.718, 952.151 441.556 L 954.303 435.934 952.101 422.228 C 950.629 413.061, 949.316 407.856, 948.136 406.511 C 947.166 405.405, 945.302 402.410, 943.994 399.855 C 941.347 394.686, 939.551 394.507, 938.582 399.314 C 938.151 401.456, 937.678 402.079, 937.140 401.216 C 936.700 400.510, 935.635 400.203, 934.774 400.533 C 933.802 400.906, 932.603 400.271, 931.614 398.859 C 930.329 397.024, 930.142 395.006, 930.647 388.429 C 930.992 383.944, 930.984 378.730, 930.630 376.842 C 930.070 373.856, 929.456 373.268, 925.910 372.322 L 921.834 371.234 922.309 376.867 M 944.143 464.907 C 943.233 465.472, 943.033 466.528, 943.535 468.109 L 944.283 470.467 945.170 468.069 C 946.289 465.044, 945.892 463.821, 944.143 464.907" stroke="#c4743d" fill="#c4743d" fill-opacity="0.2" fill-rule="evenodd"/><path class="svg-region-DMl" d="M 675.498 300.750 C 674.466 307.274, 670.663 320.322, 668.431 324.996 C 667.248 327.473, 665.721 331.300, 665.038 333.500 C 663.444 338.629, 658.123 349.806, 656.922 350.548 C 656.415 350.862, 656 351.710, 656 352.433 C 656 353.679, 652.568 360.039, 648.761 365.847 C 647.805 367.306, 646.707 369.175, 646.321 370 C 645.935 370.825, 643.905 373.259, 641.810 375.409 C 639.714 377.559, 638 379.681, 638 380.124 C 638 380.568, 636.704 382.409, 635.119 384.215 C 631.566 388.266, 626.771 396.325, 625.132 401 C 623.426 405.866, 621.044 426.768, 621.020 437.076 C 620.992 449.178, 621.452 449.533, 638.950 450.928 C 659.849 452.594, 663.822 452.421, 666.085 449.750 C 669.268 445.993, 674.482 437.888, 678.470 430.500 C 680.549 426.650, 682.591 423.050, 683.009 422.500 C 683.427 421.950, 684.089 420.003, 684.481 418.173 C 685.508 413.372, 692.221 400.388, 696.942 394.069 C 699.174 391.083, 701.007 388.383, 701.015 388.069 C 701.023 387.756, 704.166 384.125, 708 380 C 715.097 372.364, 715.771 371.171, 713.996 369.396 C 713.324 368.724, 713.652 367.025, 714.989 364.260 C 716.675 360.769, 716.885 358.943, 716.341 352.504 C 715.946 347.831, 716.207 341.595, 717.016 336.395 C 718.095 329.461, 718.103 326.775, 717.059 321.705 C 716.356 318.292, 715.557 314.038, 715.281 312.250 C 714.924 309.931, 714.250 309, 712.925 309 C 711.905 309, 708.980 307.675, 706.427 306.056 C 699.666 301.768, 696.737 301.379, 692.247 304.170 C 688.784 306.323, 682.513 308.950, 680.750 308.985 C 680.337 308.993, 680 306.840, 680 304.200 C 680 296.891, 676.528 294.231, 675.498 300.750 M 784.500 302.171 C 771.459 303.280, 759.928 304.979, 757.816 306.103 C 756.889 306.597, 752.502 307, 748.066 307 C 743.630 307, 740 307.249, 740 307.553 C 740 307.857, 741.128 309.770, 742.508 311.803 C 745.069 315.579, 748.611 318.467, 757.546 324.063 C 760.321 325.801, 763.364 328.569, 764.308 330.214 C 765.572 332.417, 766.482 333.018, 767.762 332.498 C 768.718 332.109, 771.750 331.501, 774.500 331.146 L 779.500 330.500 780.050 323.440 C 780.522 317.390, 781.072 315.793, 783.892 312.284 C 785.702 310.031, 789.392 307.140, 792.092 305.858 C 796.531 303.750, 798.859 300.761, 795.750 301.161 C 795.063 301.249, 790 301.704, 784.500 302.171" stroke="#68533d" fill="#68533d" fill-opacity="0.2" fill-rule="evenodd"/><path class="svg-region-DMr" d="M 1090.190 292.750 C 1089.611 294.262, 1088.845 298.542, 1088.488 302.261 C 1087.899 308.394, 1087.532 309.255, 1084.534 311.542 C 1081.645 313.745, 1080.901 313.912, 1078.615 312.870 C 1077.083 312.173, 1076 310.863, 1076 309.709 C 1076 307.959, 1075.486 307.798, 1071.386 308.260 C 1066.035 308.863, 1061.791 311.648, 1060.979 315.088 C 1060.581 316.776, 1059.527 317.655, 1057.455 318.027 L 1054.500 318.558 1054.824 325.529 C 1055.016 329.664, 1055.957 334.331, 1057.138 337 C 1058.902 340.990, 1059.102 343.386, 1058.894 358.129 C 1058.627 377.089, 1058.068 375.378, 1068.987 389 C 1072.293 393.125, 1076.068 398.794, 1077.375 401.598 C 1078.962 405.005, 1081.239 407.765, 1084.237 409.919 C 1090.284 414.261, 1092.913 420.149, 1094.356 432.583 C 1095.393 441.527, 1095.733 442.567, 1098 443.752 C 1099.537 444.555, 1101.848 444.811, 1104 444.415 C 1105.925 444.062, 1110.425 443.855, 1114 443.957 C 1132.423 444.480, 1143.087 444.197, 1148.500 443.040 C 1155.740 441.494, 1157.162 440.493, 1156.405 437.479 C 1156.089 436.218, 1156.256 434.357, 1156.777 433.343 C 1157.945 431.072, 1156.402 415.611, 1154.694 412.466 C 1154.037 411.257, 1150.499 407.736, 1146.832 404.641 C 1140.328 399.152, 1129.777 385.284, 1125.423 376.500 C 1124.332 374.300, 1122.248 370.475, 1120.791 368 C 1119.334 365.525, 1116.809 359.630, 1115.179 354.901 C 1113.549 350.171, 1111.022 344.412, 1109.564 342.102 C 1106.448 337.165, 1105.316 334.419, 1103.368 327.064 C 1102.576 324.074, 1099.837 317.324, 1097.280 312.064 C 1093.259 303.791, 1092.632 301.656, 1092.639 296.250 C 1092.646 289.511, 1091.860 288.387, 1090.190 292.750 M 987.740 301.872 C 985.121 303.421, 982.646 305.019, 982.240 305.424 C 981.833 305.830, 981.206 309.837, 980.846 314.331 C 980.486 318.824, 979.865 324.637, 979.466 327.250 C 978.648 332.599, 979.218 332.973, 984.236 330.378 C 986.550 329.181, 989.027 328.889, 993.686 329.263 L 1000 329.770 1000 324.968 C 1000 322.327, 1000.382 320.017, 1000.849 319.833 C 1002.483 319.192, 1007.116 305.859, 1006.808 302.683 L 1006.500 299.500 999.500 299.278 C 993.393 299.085, 991.893 299.416, 987.740 301.872" stroke="#68533d" fill="#68533d" fill-opacity="0.2" fill-rule="evenodd"/><path class="svg-region-PV" d="M 913 184.465 C 911.625 185.242, 909.375 186.125, 908 186.428 C 906.625 186.731, 903.925 188.329, 902 189.979 C 900.075 191.629, 897.865 193.519, 897.089 194.179 C 892.847 197.788, 888.432 199, 879.539 198.996 C 871.244 198.992, 870.141 198.753, 866.136 196.096 C 863.736 194.504, 860.023 192.412, 857.886 191.449 C 855.749 190.485, 854 189.292, 854 188.797 C 854 188.303, 852.372 187.218, 850.383 186.387 C 846.677 184.838, 843.635 185.156, 832.842 188.221 C 830.237 188.960, 828.250 188.934, 825.942 188.130 C 820.421 186.205, 820 186.498, 820 192.265 C 820 195.619, 820.726 198.884, 822 201.261 C 824.344 205.634, 824.518 209.271, 822.640 214.624 C 821.893 216.756, 820.488 223.035, 819.518 228.579 L 817.755 238.658 822.009 253.079 C 827.091 270.302, 829.200 274.486, 837.038 282.899 C 840.317 286.418, 843 289.871, 843 290.572 C 843 291.273, 844.125 293.184, 845.500 294.818 C 848.140 297.955, 848.962 304.287, 846.896 305.565 C 846.288 305.940, 842.913 306.478, 839.396 306.760 C 835.878 307.043, 833 307.628, 833 308.061 C 833 308.494, 834.377 309.895, 836.061 311.174 C 840.242 314.351, 845.149 319.175, 849.366 324.253 L 852.892 328.500 861.196 328.421 C 876.894 328.271, 890.315 326.820, 894.237 324.850 C 896.911 323.507, 899.073 323.148, 901.836 323.590 C 905.353 324.152, 906.047 323.861, 909.599 320.329 C 911.745 318.196, 914.707 314.837, 916.182 312.864 C 917.825 310.667, 920.022 309.046, 921.851 308.680 L 924.838 308.082 923.169 303.791 C 922.251 301.431, 920.262 298.197, 918.750 296.604 C 916.333 294.059, 916 292.926, 916 287.255 C 916 281.300, 916.541 279.691, 923.006 266.419 C 932.244 247.452, 933.421 243.941, 933.421 235.346 C 933.420 228.795, 933.008 227.360, 928.538 218.346 C 925.852 212.931, 922.833 207.427, 921.828 206.115 C 919.851 203.536, 919.415 200.369, 920.963 199.833 C 921.493 199.650, 923.699 196.575, 925.865 193 C 929.774 186.550, 929.787 186.491, 927.652 185.384 C 923.862 183.419, 915.752 182.910, 913 184.465" stroke="#b09658" fill="#b09658" fill-opacity="0.2" fill-rule="evenodd"/><path class="svg-region-Fl" d="M 775 147.500 C 773.075 148.241, 769.753 148.882, 767.618 148.924 C 763.754 149, 758.536 151.502, 754.250 155.336 C 751.373 157.909, 751.397 158.838, 754.324 158.278 C 757.414 157.688, 763.228 164.045, 762.568 167.294 C 762.322 168.507, 761.840 171.964, 761.496 174.975 C 761.153 177.986, 760.529 180.911, 760.111 181.475 C 759.692 182.039, 758.818 184.365, 758.167 186.644 C 757.002 190.721, 754.655 193.192, 748.387 196.942 C 743.383 199.935, 740.677 206.815, 739.908 218.500 C 738.679 237.181, 736.229 251.327, 733.129 257.650 C 729.753 264.534, 729.371 266.455, 728.041 283.197 C 726.861 298.054, 727.482 299.993, 734.846 304.442 C 739.010 306.957, 739.884 307.101, 748.399 306.682 C 753.404 306.435, 761.550 305.517, 766.500 304.642 C 780.315 302.198, 803.329 300.487, 803.790 301.869 C 803.997 302.491, 805.817 303.020, 807.833 303.044 C 809.850 303.068, 813.525 303.478, 816 303.956 C 818.808 304.499, 820.946 304.456, 821.686 303.843 C 823.039 302.723, 826.574 304.222, 827.232 306.195 C 827.682 307.547, 839.406 307.516, 844.551 306.151 C 847.059 305.485, 847.547 304.812, 847.812 301.652 C 848.049 298.830, 847.509 297.205, 845.562 294.892 C 844.153 293.217, 843 291.284, 843 290.597 C 843 289.910, 840.638 286.740, 837.750 283.554 C 830.259 275.288, 827.164 270.405, 825.395 264.058 C 824.543 261.001, 822.477 254.114, 820.805 248.753 L 817.763 239.006 819.449 229.253 C 820.376 223.889, 821.779 217.507, 822.567 215.072 C 824.509 209.071, 824.370 205.683, 822 201.261 C 819.667 196.909, 819.225 184.785, 821.200 179.325 C 822.334 176.188, 822.211 175.809, 818.950 172.389 C 814.551 167.776, 798.959 156, 797.249 156 C 796.535 156, 795.550 154.946, 795.060 153.657 C 794.072 151.060, 784.408 145.950, 780.723 146.076 C 779.500 146.118, 776.925 146.759, 775 147.500" stroke="#5ca7a9" fill="#5ca7a9" fill-opacity="0.2" fill-rule="evenodd"/><path class="svg-region-Fr" d="M 950 146.956 C 949.175 147.513, 947.271 147.976, 945.769 147.985 C 943.748 147.996, 942.917 148.585, 942.573 150.250 C 941.764 154.169, 940.936 159.308, 940.097 165.625 C 939.650 168.994, 938.433 173.323, 937.392 175.246 C 935.889 178.024, 926.123 192.686, 920.500 200.608 C 919.797 201.599, 919.999 202.831, 921.182 204.759 C 922.107 206.266, 925.239 212.168, 928.142 217.872 C 933.049 227.515, 933.421 228.746, 933.421 235.372 C 933.421 243.096, 930.340 253.315, 925.995 260 C 925.459 260.825, 922.991 265.838, 920.510 271.139 C 916.607 279.481, 916 281.657, 916 287.312 C 916 293.160, 916.299 294.145, 918.846 296.693 C 920.412 298.258, 922.231 301.170, 922.889 303.163 C 923.547 305.157, 925.105 307.975, 926.351 309.425 L 928.617 312.062 931.558 309.512 C 941.462 300.928, 948.896 298.519, 962.500 299.485 C 974.678 300.349, 1004.929 298.381, 1008.748 296.476 C 1010.368 295.668, 1014.125 294.569, 1017.097 294.034 C 1020.069 293.500, 1025.098 292.261, 1028.272 291.281 C 1033.901 289.544, 1034.029 289.425, 1033.407 286.500 C 1033.056 284.850, 1032.421 283.050, 1031.996 282.500 C 1030.163 280.128, 1026.810 265.748, 1026.050 257 C 1025.596 251.775, 1024.257 244.800, 1023.075 241.500 C 1021.892 238.200, 1020.658 232.575, 1020.332 229 C 1019.950 224.815, 1019.097 221.788, 1017.936 220.500 C 1016.944 219.400, 1014.819 215.575, 1013.213 212 C 1011.607 208.425, 1009.327 203.387, 1008.146 200.805 C 1006.966 198.223, 1006 195.030, 1006 193.711 C 1006 190.663, 1002.586 180.675, 1000.551 177.770 C 999.668 176.509, 999 173.469, 999 170.712 C 999 168.048, 998.467 164.886, 997.815 163.684 C 997.163 162.483, 996.376 160.012, 996.065 158.193 C 995.539 155.115, 995.016 154.727, 988.500 152.575 C 980.420 149.907, 976.563 149.134, 965.500 147.970 C 961.100 147.507, 956.150 146.861, 954.500 146.535 C 952.850 146.209, 950.825 146.399, 950 146.956" stroke="#5ca7a9" fill="#5ca7a9" fill-opacity="0.2" fill-rule="evenodd"/><path class="svg-region-PCl" d="M 740.651 163.903 C 735.077 170.595, 731.715 173.199, 720.500 179.512 C 717.750 181.060, 715.275 182.593, 715 182.919 C 712.916 185.387, 706.649 189, 704.450 189 C 702.095 189, 701.828 189.320, 702.267 191.616 C 702.773 194.261, 697.602 204.678, 692.350 211.594 C 691.057 213.296, 690 215.167, 690 215.751 C 690 216.335, 689.148 216.590, 688.107 216.318 C 686.620 215.929, 685.947 216.647, 684.971 219.661 C 684.288 221.773, 682.801 225.300, 681.667 227.500 C 679.432 231.837, 677.815 240.740, 677.912 248.180 C 677.956 251.572, 678.755 254.049, 680.816 257.180 C 694.082 277.340, 697.659 282.333, 700.055 284.039 C 701.570 285.118, 703.120 286, 703.500 286 C 703.880 286, 705.386 286.849, 706.846 287.887 C 708.306 288.925, 711.525 290.366, 714 291.088 C 716.475 291.811, 718.725 292.702, 719 293.067 C 719.275 293.432, 721.300 294.640, 723.500 295.752 L 727.500 297.772 727.792 289.636 C 728.344 274.256, 729.924 264.847, 733.100 258.014 C 735.030 253.863, 736.469 248.644, 737.099 243.514 C 737.640 239.106, 738.514 233.328, 739.041 230.674 C 739.568 228.019, 740 222.587, 740 218.602 C 740 214.617, 740.695 209.316, 741.545 206.822 C 742.953 202.689, 748.169 196, 749.983 196 C 750.393 196, 752.118 194.762, 753.816 193.250 C 757.619 189.862, 760.705 181.771, 761.948 171.929 L 762.887 164.500 759.762 161.265 C 757.490 158.914, 755.798 158.058, 753.568 158.133 C 751.881 158.190, 749.598 157.935, 748.495 157.566 C 746.876 157.024, 745.364 158.245, 740.651 163.903" stroke="#465ee0" fill="#465ee0" fill-opacity="0.2" fill-rule="evenodd"/><path class="svg-region-PCr" d="M 996 158.032 C 996 159.150, 996.675 161.680, 997.500 163.654 C 998.325 165.629, 999 169.114, 999 171.400 C 999 173.685, 999.610 176.443, 1000.355 177.527 C 1002.408 180.516, 1006 190.745, 1006 193.602 C 1006 194.991, 1007.180 198.687, 1008.622 201.814 C 1010.064 204.941, 1012.114 209.525, 1013.178 212 C 1014.242 214.475, 1016.160 218.075, 1017.441 220 C 1018.928 222.235, 1019.982 225.669, 1020.357 229.500 C 1020.680 232.800, 1021.908 238.200, 1023.085 241.500 C 1024.262 244.800, 1025.595 251.775, 1026.046 257 C 1026.812 265.853, 1028.160 271.658, 1032.490 284.741 C 1034.105 289.622, 1034.406 289.939, 1036.862 289.358 C 1040.738 288.442, 1046.982 285.518, 1051.216 282.636 C 1053.260 281.245, 1057.283 279.295, 1060.155 278.303 C 1066.054 276.267, 1075.035 267.981, 1080.537 259.500 C 1082.321 256.750, 1084.955 253.409, 1086.390 252.076 C 1089.658 249.040, 1089.686 246.588, 1086.500 242.411 C 1085.125 240.608, 1084 238.716, 1084 238.207 C 1084 237.697, 1082.381 235.563, 1080.402 233.465 C 1078.423 231.367, 1075.718 228.041, 1074.390 226.075 C 1072.130 222.728, 1068.080 217.333, 1058.500 204.906 C 1056.300 202.052, 1052.882 197.997, 1050.904 195.895 C 1047.875 192.675, 1036.254 179.410, 1035.300 178.083 C 1035.135 177.854, 1034.694 177.972, 1034.321 178.346 C 1033.948 178.719, 1034.539 180.257, 1035.635 181.762 C 1039.709 187.359, 1039.838 188.241, 1036.145 185.250 C 1034.956 184.287, 1032.300 182.243, 1030.242 180.707 C 1021.334 174.058, 1019.031 172.214, 1014.083 167.764 C 1009.998 164.092, 1008.989 162.611, 1009.491 161.029 C 1010.034 159.319, 1009.692 158.999, 1007.317 158.994 C 1005.768 158.990, 1003.211 158.315, 1001.636 157.494 C 997.725 155.454, 996 155.619, 996 158.032" stroke="#465ee0" fill="#465ee0" fill-opacity="0.2" fill-rule="evenodd"/><path class="svg-region-DV" d="M 797.778 145.651 C 796.922 146.507, 794.709 147.526, 792.861 147.915 L 789.500 148.622 793.433 150.512 C 796.274 151.877, 797.477 152.068, 797.766 151.201 C 798.421 149.237, 800 149.837, 800 152.050 C 800 155.533, 802.778 159.700, 806.726 162.137 C 808.802 163.419, 813.087 166.913, 816.250 169.901 C 821.708 175.059, 823.225 178.125, 821 179.500 C 820.450 179.840, 820 181.557, 820 183.316 C 820 186.169, 820.429 186.647, 823.984 187.757 C 828.705 189.230, 831.095 189.313, 834.203 188.113 C 835.466 187.625, 838.755 186.711, 841.511 186.081 C 847.304 184.759, 852.386 185.984, 854.056 189.105 C 854.614 190.147, 855.539 191, 856.111 191 C 856.683 191, 860.233 192.800, 864 195 C 870.601 198.855, 871.169 198.999, 879.674 198.978 C 889.918 198.953, 893.981 197.445, 901 191.067 C 903.475 188.818, 906.625 186.740, 908 186.449 C 909.375 186.159, 911.737 185.285, 913.249 184.507 C 916.134 183.024, 925.556 183.473, 926.588 185.143 C 927.809 187.117, 930.710 185.588, 933.814 181.335 C 937.982 175.624, 939.021 172.994, 940.071 165.500 C 940.534 162.200, 941.407 156.413, 942.013 152.640 C 942.618 148.867, 942.874 145.541, 942.583 145.249 C 942.291 144.958, 909.941 144.578, 870.693 144.406 C 807.169 144.128, 799.164 144.265, 797.778 145.651" stroke="#45567a" fill="#45567a" fill-opacity="0.2" fill-rule="evenodd"/><path class="svg-region-B" d="M 968.252 653.046 C 961.842 657.760, 949.659 673.366, 944.706 683.208 C 942.291 688.007, 942.018 689.710, 941.772 701.500 C 941.519 713.575, 941.667 714.791, 943.844 718.590 C 947.305 724.628, 950.312 726, 960.089 726 C 966.345 726, 969.362 725.511, 972.434 724.001 C 977.792 721.367, 983.941 715.682, 988.120 709.500 L 991.500 704.500 991.831 690 C 992.049 680.409, 991.742 674.146, 990.924 671.500 C 990.244 669.300, 989.790 665.843, 989.915 663.818 C 990.172 659.668, 988.931 656.760, 985.191 652.750 C 983.039 650.443, 981.802 650, 977.510 650 C 973.382 650, 971.594 650.588, 968.252 653.046 M 789.741 666.989 C 788.148 668.242, 787.002 670.370, 786.645 672.739 C 786.333 674.808, 785.606 679.200, 785.029 682.500 C 782.798 695.264, 782.716 698.628, 784.504 704.013 C 790.072 720.776, 797.805 731.331, 808.257 736.432 C 813.164 738.827, 815.628 739.318, 824.969 739.760 C 834.049 740.191, 836.353 739.999, 838.427 738.640 C 842.854 735.739, 843.226 733.944, 841.992 721.421 C 840.882 710.153, 838.974 703.801, 834.956 698 C 834.003 696.625, 831.555 692.913, 829.516 689.751 C 827.237 686.219, 824.517 683.390, 822.462 682.415 C 820.622 681.542, 818.405 679.741, 817.536 678.414 C 816.666 677.086, 815.509 676, 814.966 676 C 814.422 676, 811.395 674.255, 808.239 672.122 C 796.941 664.486, 793.971 663.662, 789.741 666.989" stroke="#e23b33" fill="#e23b33" fill-opacity="0.2" fill-rule="evenodd"/><path class="svg-region-Ol" d="M 513 279.070 C 496.152 280.242, 472.182 286.873, 455.235 295.048 C 449.588 297.772, 444.333 300, 443.556 300 C 442.779 300, 441.469 300.674, 440.646 301.497 C 439.823 302.320, 435.628 304.827, 431.325 307.069 C 417.632 314.200, 413.434 316.554, 409.946 319.057 C 408.073 320.401, 405.804 321.950, 404.903 322.500 C 401.529 324.559, 397.262 327.674, 389.155 333.994 C 384.566 337.572, 379.575 341.400, 378.064 342.500 C 376.553 343.600, 372.740 347.021, 369.590 350.102 C 366.440 353.183, 361.531 357.657, 358.681 360.044 C 355.832 362.431, 351.025 367.264, 348 370.785 C 344.975 374.305, 341.576 378.156, 340.447 379.342 C 329.454 390.892, 316.593 412.966, 310.934 430 C 309.198 435.225, 307.173 440.676, 306.433 442.114 C 305.694 443.552, 304.351 449.058, 303.449 454.351 C 301.295 466.989, 301.836 497.487, 304.373 506.398 C 307.245 516.486, 311.831 526.916, 317.339 535.882 C 320.251 540.622, 323.278 545.625, 324.066 547 C 324.855 548.375, 325.808 549.733, 326.184 550.018 C 327.454 550.980, 337.898 567.103, 338.519 569.059 C 338.858 570.127, 339.671 571, 340.326 571 C 340.981 571, 342.760 573.587, 344.280 576.750 C 345.799 579.913, 347.911 583.850, 348.973 585.500 C 351.222 588.994, 351.141 588.856, 361.250 606.468 C 365.512 613.893, 369 620.356, 369 620.830 C 369 621.303, 369.868 622.475, 370.929 623.435 C 371.989 624.395, 375.118 629.753, 377.882 635.340 C 380.646 640.928, 383.539 646.625, 384.310 648 C 385.082 649.375, 386.560 652.075, 387.595 654 C 388.630 655.925, 390.937 660.200, 392.722 663.500 C 394.507 666.800, 396.373 670.406, 396.869 671.512 C 397.364 672.619, 400.567 679.369, 403.985 686.512 C 414.812 709.137, 417.303 714.363, 419.934 719.971 C 421.345 722.980, 423.063 726.049, 423.750 726.792 C 424.438 727.535, 425 728.766, 425 729.527 C 425 730.289, 426.330 733.168, 427.955 735.924 C 429.648 738.796, 430.495 741.194, 429.937 741.539 C 429.365 741.892, 429.733 743.245, 430.830 744.820 C 431.856 746.294, 432.964 748.400, 433.292 749.500 C 435.010 755.257, 438.070 763.213, 440.792 769 C 442.474 772.575, 444.655 777.525, 445.638 780 C 447.866 785.607, 459.769 808.969, 461.433 811 C 462.109 811.825, 463.936 814.750, 465.494 817.500 C 467.052 820.250, 468.592 822.725, 468.916 823 C 469.240 823.275, 471.503 826.129, 473.946 829.343 C 481.107 838.765, 493.390 849.506, 502.176 854.030 C 506.501 856.257, 510.593 857.962, 511.270 857.820 C 511.946 857.678, 513.732 858.384, 515.239 859.388 C 518.562 861.605, 526.927 862.982, 541.224 863.664 C 551.560 864.157, 552.327 864.046, 562.446 860.588 C 568.220 858.615, 573.544 857, 574.277 857 C 575.009 857, 577.746 855.645, 580.358 853.988 C 582.971 852.331, 588.121 849.328, 591.804 847.313 C 601.428 842.049, 606.467 838.434, 617.621 828.791 C 629.570 818.461, 642.740 804.746, 651.510 793.500 C 653.655 790.750, 656.165 787.825, 657.089 787 C 658.013 786.175, 661.823 781.681, 665.555 777.013 C 669.288 772.345, 673.374 767.395, 674.636 766.013 C 675.897 764.631, 680.110 759.675, 683.998 755 C 687.885 750.325, 692.633 744.644, 694.548 742.375 C 696.464 740.106, 699.036 736.874, 700.265 735.193 C 714.647 715.515, 720.197 707.759, 724 702.021 C 726.475 698.288, 730.544 692.143, 733.042 688.366 C 738.531 680.069, 742.788 671.870, 746.473 662.500 C 747.987 658.650, 749.561 655.050, 749.970 654.500 C 751.414 652.561, 756.889 630.394, 758.013 621.937 C 760.794 601.018, 752.790 572.948, 740.555 560.713 C 738.050 558.208, 736 555.739, 736 555.226 C 736 553.997, 726.546 545.234, 720.659 541.007 C 718.097 539.167, 716 537.257, 716 536.764 C 716 534.999, 710.620 528.855, 707.797 527.395 C 706.215 526.577, 701.751 522.775, 697.877 518.947 C 694.002 515.118, 690.466 512.212, 690.018 512.489 C 689.569 512.766, 688.145 511.877, 686.851 510.514 C 684.648 508.190, 683.853 508.033, 674.204 508.017 C 665.841 508.003, 662.418 508.482, 655.970 510.570 C 651.604 511.983, 647.773 513.558, 647.457 514.070 C 647.141 514.581, 646.209 515, 645.386 515 C 643.954 515, 636.408 518.010, 632.764 520.035 C 631.809 520.566, 630.346 521, 629.514 521 C 628.681 521, 628 521.450, 628 522 C 628 522.550, 627.332 523, 626.516 523 C 624.885 523, 610 537.435, 610 539.016 C 610 539.557, 609.325 540, 608.500 540 C 607.675 540, 607 540.450, 607 541 C 607 541.550, 606.372 542, 605.604 542 C 604.836 542, 602.921 543.465, 601.348 545.257 C 594.542 553.009, 585.260 558, 577.651 558 C 573.205 558, 570.746 556.832, 566.891 552.888 C 565.338 551.300, 563.678 550, 563.203 550 C 562.727 550, 561.731 548.866, 560.989 547.480 C 559.953 545.544, 559.914 544.686, 560.820 543.780 C 562.274 542.326, 562.431 526.384, 561 525.500 C 560.450 525.160, 560 521.084, 560 516.441 C 560 511.480, 559.588 508, 559 508 C 558.450 508, 557.993 506.762, 557.985 505.250 C 557.965 501.713, 557.331 500.923, 552.569 498.500 C 548.695 496.529, 538 484.731, 538 482.428 C 538 481.777, 537.325 480.685, 536.500 480 C 535.675 479.315, 535 477.460, 535 475.878 C 535 474.295, 534.550 473, 534 473 C 533.429 473, 533 470.020, 533 466.059 C 533 462.241, 533.450 458.840, 534 458.500 C 534.550 458.160, 535 457.064, 535 456.063 C 535 455.063, 535.675 453.685, 536.500 453 C 537.325 452.315, 538 451.159, 538 450.431 C 538 445.620, 554.847 425.021, 558.811 424.985 C 560.107 424.973, 560.192 424.774, 559.177 424.131 C 557.735 423.216, 564.487 422, 571.005 422 C 575.742 422, 580.342 418.652, 579.453 415.852 C 579.113 414.780, 579.295 413.350, 579.857 412.673 C 580.419 411.995, 580.865 410.104, 580.848 408.471 C 580.831 406.837, 581.758 402.842, 582.908 399.593 C 584.059 396.345, 585.010 392.070, 585.022 390.093 C 585.049 385.659, 587.369 380.543, 593.376 371.672 C 595.919 367.916, 598 364.069, 598 363.122 C 598 362.175, 598.440 360.960, 598.978 360.422 C 599.516 359.884, 600.060 355.631, 600.187 350.972 C 600.505 339.272, 599.021 329.427, 596.351 325.527 C 595.608 324.443, 595 322.981, 595 322.280 C 595 321.578, 593.425 318.812, 591.500 316.133 C 589.575 313.453, 588 310.978, 588 310.633 C 588 308.718, 580.532 300.049, 577.967 298.986 C 576.309 298.300, 574.626 297.227, 574.226 296.603 C 573.240 295.063, 557.665 285, 556.268 285 C 555.654 285, 551.855 283.684, 547.826 282.076 C 539.551 278.774, 529.595 277.915, 513 279.070" stroke="#aa444d" fill="#aa444d" fill-opacity="0.2" fill-rule="evenodd"/><path class="svg-region-Or" d="M 1278 272.655 C 1276.075 272.855, 1270.900 273.523, 1266.500 274.139 C 1262.100 274.755, 1257.150 275.396, 1255.500 275.564 C 1246.203 276.511, 1241.517 277.547, 1232.500 280.650 C 1221.253 284.521, 1222.577 283.723, 1209.514 294.500 C 1204.181 298.900, 1198.117 303.721, 1196.040 305.214 C 1191.923 308.172, 1189.165 313.021, 1188.312 318.801 C 1188.012 320.835, 1186.872 325.200, 1185.779 328.500 C 1182.608 338.075, 1181.132 345.974, 1181.969 348.894 C 1182.629 351.193, 1183.411 363.039, 1184.435 386.261 C 1184.575 389.430, 1184.984 392.317, 1185.345 392.678 C 1185.705 393.038, 1186 394.049, 1186 394.924 C 1186 395.798, 1188.025 398.983, 1190.500 402 C 1192.975 405.017, 1195 407.827, 1195 408.243 C 1195 408.659, 1195.942 409, 1197.094 409 C 1198.346 409, 1199.397 409.803, 1199.710 411 C 1200.109 412.523, 1201.074 413, 1203.763 413 C 1206.126 413, 1209.036 414.157, 1212.566 416.500 C 1215.466 418.425, 1218.325 420, 1218.919 420 C 1219.514 420, 1220 420.450, 1220 421 C 1220 421.550, 1220.675 422, 1221.500 422 C 1222.325 422, 1223 422.450, 1223 423 C 1223 423.550, 1223.575 424, 1224.278 424 C 1226.653 424, 1233 433.023, 1233 436.400 C 1233 437.765, 1233.450 439.160, 1234 439.500 C 1234.583 439.860, 1235 445.504, 1235 453.040 L 1235 465.961 1229.949 473.481 C 1227.170 477.616, 1224.400 481, 1223.793 481 C 1223.186 481, 1221.214 482.125, 1219.411 483.500 C 1215.569 486.430, 1210.425 486.770, 1205.474 484.421 C 1203.644 483.552, 1201.101 482.990, 1199.823 483.171 C 1197.575 483.489, 1197.505 483.790, 1197.659 492.500 C 1197.746 497.450, 1198.130 503.409, 1198.513 505.741 C 1199.064 509.101, 1198.885 510.107, 1197.650 510.581 C 1195.566 511.381, 1192 517.556, 1192 520.366 C 1192 521.604, 1191.339 523.491, 1190.532 524.559 C 1189.724 525.626, 1189.049 527.443, 1189.032 528.595 C 1189.014 529.747, 1188.100 531.505, 1187 532.500 C 1185.900 533.495, 1185 534.815, 1185 535.433 C 1185 536.050, 1184.095 537.331, 1182.989 538.278 C 1181.456 539.590, 1179.111 540, 1173.142 540 C 1163.539 540, 1160.719 538.715, 1155.605 532.009 C 1151.568 526.716, 1146.813 523.464, 1138.750 520.484 C 1136.138 519.518, 1134 518.404, 1134 518.007 C 1134 517.610, 1131.412 517.012, 1128.250 516.679 C 1125.088 516.345, 1120.533 515.119, 1118.128 513.954 C 1114.098 512.001, 1112.420 511.862, 1096.628 512.168 C 1075.783 512.572, 1073.156 513.506, 1068.702 522.097 C 1066.815 525.738, 1064.927 527.914, 1062.912 528.769 C 1061.268 529.466, 1059.682 530.816, 1059.388 531.769 C 1059.095 532.721, 1058.437 534.281, 1057.927 535.236 C 1056.674 537.584, 1056.686 537.628, 1059.250 540.031 C 1061.485 542.126, 1061.486 542.150, 1059.500 543.542 C 1058.400 544.313, 1055.976 546.194, 1054.114 547.722 C 1052.251 549.250, 1049.894 550.963, 1048.876 551.528 C 1047.858 552.094, 1043.816 555.694, 1039.894 559.528 C 1033.989 565.301, 1031.883 568.305, 1027.647 577 C 1024.833 582.775, 1021.124 589.366, 1019.403 591.646 C 1017.251 594.499, 1015.564 598.669, 1013.998 605.007 C 1012.020 613.011, 1011.794 615.880, 1012.271 626.861 C 1012.652 635.638, 1013.434 641.333, 1014.831 645.500 C 1021.289 664.769, 1025.085 674.422, 1027.393 677.449 C 1028.827 679.329, 1030 681.257, 1030 681.733 C 1030 682.210, 1032.146 685.278, 1034.768 688.550 C 1037.390 691.823, 1041.613 697.650, 1044.153 701.500 C 1046.692 705.350, 1049.946 709.850, 1051.383 711.500 C 1052.821 713.150, 1053.998 714.844, 1053.999 715.263 C 1054.001 716.680, 1086.190 757.612, 1095.040 767.452 C 1097.537 770.228, 1100.898 774.300, 1102.509 776.500 C 1104.121 778.700, 1106.380 781.253, 1107.530 782.174 C 1108.681 783.094, 1111.363 786.669, 1113.491 790.116 C 1117.293 796.276, 1118.861 798.135, 1129.292 808.850 C 1138.962 818.783, 1148.560 823.391, 1165 825.995 C 1172.709 827.216, 1215.334 826.920, 1229.500 825.548 C 1238.265 824.698, 1253.153 821.525, 1261.858 818.651 C 1272.771 815.048, 1288.275 805.672, 1296.174 797.897 C 1300.028 794.104, 1303.591 791, 1304.091 791 C 1305.335 791, 1309 787.241, 1309 785.965 C 1309 784.245, 1312.231 779.852, 1317.239 774.760 C 1319.846 772.110, 1322.645 768.653, 1323.461 767.076 C 1324.276 765.500, 1327.058 761.125, 1329.644 757.355 C 1333.825 751.260, 1336.565 745.954, 1343.769 730 C 1351.076 713.821, 1355.048 704.559, 1357.492 698 C 1359.030 693.875, 1361.375 687.575, 1362.703 684 C 1364.031 680.425, 1365.723 676.150, 1366.464 674.500 C 1369.915 666.810, 1375.015 654.425, 1375.008 653.753 C 1374.990 652.090, 1387.178 626.947, 1392.824 617 C 1396.756 610.071, 1408.022 593.104, 1409.155 592.404 C 1409.711 592.061, 1411.032 589.757, 1412.092 587.286 C 1413.905 583.057, 1417.013 578.540, 1424.829 568.779 C 1426.660 566.492, 1429.265 562.569, 1430.618 560.061 C 1433.370 554.958, 1436.908 549.872, 1440.589 545.731 C 1445.995 539.648, 1454.350 526.166, 1456.224 520.500 C 1457.316 517.200, 1459.428 511.800, 1460.917 508.500 C 1462.407 505.200, 1464.644 498.225, 1465.889 493 C 1467.134 487.775, 1468.673 481.925, 1469.309 480 C 1471.095 474.600, 1471.125 445.949, 1469.355 436.481 C 1468.534 432.091, 1467.289 427.600, 1466.588 426.500 C 1465.887 425.400, 1465.016 421.595, 1464.651 418.044 C 1464.286 414.493, 1463.540 411.140, 1462.994 410.594 C 1462.447 410.047, 1462 408.439, 1462 407.021 C 1462 401.264, 1452.927 376.739, 1444.476 359.650 C 1436.347 343.214, 1435.189 341.432, 1427.624 333.707 C 1423.156 329.145, 1413.875 320.570, 1407 314.651 C 1395.743 304.960, 1392.958 303.131, 1379 296.261 C 1370.475 292.066, 1361.475 287.745, 1359 286.659 C 1356.525 285.573, 1353.719 284.306, 1352.764 283.842 C 1351.809 283.379, 1349.896 283, 1348.514 283 C 1347.131 283, 1346 282.609, 1346 282.132 C 1346 281.654, 1344.313 280.988, 1342.250 280.653 C 1340.188 280.317, 1336.475 279.573, 1334 279 C 1329.956 278.064, 1324.776 277.111, 1307 274.034 C 1300.719 272.946, 1283.215 272.114, 1278 272.655" stroke="#aa444d" fill="#aa444d" fill-opacity="0.2" fill-rule="evenodd"/><path class="svg-region-Pl" d="M 561.231 422.725 C 559.433 422.947, 558.222 423.550, 558.540 424.065 C 558.858 424.579, 558.584 425, 557.931 425 C 554.523 425, 538 446.066, 538 450.412 C 538 451.320, 537.325 452.322, 536.500 452.638 C 535.675 452.955, 535 454.264, 535 455.548 C 535 456.832, 534.550 458.160, 534 458.500 C 533.450 458.840, 533 462.241, 533 466.059 C 533 470.020, 533.429 473, 534 473 C 534.550 473, 535 474.295, 535 475.878 C 535 477.460, 535.675 479.315, 536.500 480 C 537.325 480.685, 538 481.759, 538 482.387 C 538 484.644, 548.133 495.993, 552.359 498.470 C 560.985 503.525, 574.673 500.931, 581.370 492.972 C 582.816 491.253, 584 489.450, 584 488.966 C 584 487.800, 594.439 477.642, 598.490 474.867 C 604.706 470.607, 608.880 462.118, 608.956 453.579 C 608.984 450.475, 609.605 447.989, 610.638 446.847 C 611.973 445.372, 612.043 444.757, 611.016 443.519 C 610.322 442.683, 608.896 442, 607.847 442 C 606.798 442, 604.643 440.524, 603.060 438.721 C 601.402 436.832, 595.730 433.213, 589.684 430.186 C 583.910 427.295, 578.639 424.270, 577.971 423.465 C 576.777 422.026, 569.478 421.704, 561.231 422.725" stroke="#f9d3d3" fill="#f9d3d3" fill-opacity="0.2" fill-rule="evenodd"/><path class="svg-region-Pr" d="M 1192 415.854 L 1184.500 418.570 1182.379 424.535 C 1180.597 429.545, 1179.556 430.928, 1175.879 433.173 C 1171.832 435.642, 1170.912 435.802, 1163.750 435.279 C 1156.921 434.780, 1156 434.913, 1156 436.400 C 1156 437.328, 1157.036 439.204, 1158.302 440.570 C 1159.568 441.935, 1161.450 445.628, 1162.485 448.776 C 1165.055 456.591, 1169.349 465.110, 1171.865 467.382 C 1173.012 468.417, 1174.892 471.212, 1176.045 473.593 C 1177.790 477.198, 1179.173 478.407, 1184.320 480.827 C 1193.099 484.954, 1194.771 485.338, 1198.058 483.976 C 1200.447 482.986, 1201.692 483.060, 1205.005 484.385 C 1210.869 486.732, 1215.551 486.444, 1219.411 483.500 C 1221.214 482.125, 1223.169 481, 1223.755 481 C 1225.188 481, 1230 475.200, 1230 473.473 C 1230 472.717, 1230.563 471.740, 1231.250 471.300 C 1234.275 469.365, 1235 465.840, 1235 453.073 C 1235 445.515, 1234.583 439.861, 1234 439.500 C 1233.450 439.160, 1233 437.765, 1233 436.400 C 1233 432.396, 1224.568 422, 1221.320 422 C 1220.594 422, 1220 421.550, 1220 421 C 1220 420.450, 1219.514 420, 1218.919 420 C 1218.325 420, 1215.466 418.425, 1212.566 416.500 C 1206.079 412.194, 1202.427 412.080, 1192 415.854" stroke="#f9d3d3" fill="#f9d3d3" fill-opacity="0.2" fill-rule="evenodd"/><path class="svg-region-OABl" d="M 611.387 446.159 C 609.613 447.019, 609.187 448.349, 608.724 454.461 C 608.054 463.327, 605.523 468.673, 599.862 473.181 C 593.953 477.887, 584 487.666, 584 488.767 C 584 490.578, 576.597 497.278, 572.581 499.103 C 570.302 500.138, 566.182 500.966, 563.250 500.978 L 558 501 558 504.500 C 558 506.425, 558.450 508, 559 508 C 559.588 508, 560 511.480, 560 516.441 C 560 521.084, 560.450 525.160, 561 525.500 C 562.431 526.384, 562.274 542.326, 560.820 543.780 C 559.914 544.686, 559.953 545.544, 560.989 547.480 C 561.731 548.866, 562.727 550, 563.203 550 C 563.678 550, 565.338 551.300, 566.891 552.888 C 570.746 556.832, 573.205 558, 577.651 558 C 584.999 558, 592.790 554.025, 600.857 546.160 C 602.921 544.147, 605.823 541.861, 607.305 541.081 C 608.787 540.301, 610 539.304, 610 538.867 C 610 537.447, 625.078 523, 626.561 523 C 627.352 523, 628 522.550, 628 522 C 628 521.450, 628.606 521, 629.346 521 C 630.601 521, 635.207 519.107, 639.236 516.936 C 640.191 516.421, 641.541 515.986, 642.236 515.969 C 642.931 515.952, 645.750 514.824, 648.500 513.463 C 651.250 512.101, 655.197 510.706, 657.272 510.363 C 659.347 510.019, 661.286 509.346, 661.581 508.869 C 661.876 508.391, 667.154 508.008, 673.309 508.017 C 684.103 508.034, 684.589 508.128, 687 510.680 L 689.500 513.325 689.806 510.267 C 690.242 505.899, 692.992 503.666, 696.360 504.947 C 697.811 505.499, 700.343 505.681, 701.986 505.353 L 704.972 504.756 702.486 501.801 C 701.118 500.176, 699.733 497.643, 699.408 496.173 C 698.336 491.331, 695.522 484.799, 694.294 484.305 C 693.630 484.038, 690.930 484.343, 688.294 484.982 C 675.599 488.062, 673.810 487.701, 670.883 481.474 C 669.388 478.294, 668.967 476.045, 669.435 473.745 C 669.798 471.960, 670.357 468.925, 670.678 467 L 671.260 463.500 668.588 466.156 C 664.448 470.270, 659.843 472, 653.033 472 C 646.418 472, 643 470.803, 643 468.485 C 643 464.638, 639.719 459.210, 636.197 457.231 C 634.155 456.083, 631.397 453.987, 630.068 452.572 C 628.739 451.157, 627.077 450, 626.375 450 C 625.674 450, 624.740 449.391, 624.300 448.646 C 622.325 445.302, 615.764 444.038, 611.387 446.159" stroke="#81244d" fill="#81244d" fill-opacity="0.2" fill-rule="evenodd"/><path class="svg-region-OABr" d="M 1102.809 444.723 C 1099.823 445.165, 1096.612 449.893, 1093.453 458.500 C 1092.444 461.250, 1090.997 464.482, 1090.238 465.683 C 1088.568 468.324, 1089.556 470.607, 1093.977 474.328 C 1095.640 475.726, 1097 477.301, 1097 477.827 C 1097 479.498, 1091.973 480.120, 1088.529 478.874 C 1085.968 477.948, 1083.591 477.940, 1078.161 478.836 C 1069.516 480.264, 1060 480.350, 1060 479 C 1060 478.450, 1059.550 478, 1059 478 C 1057.212 478, 1057.934 479.731, 1061.500 484 C 1064.380 487.447, 1065 489, 1065 492.766 C 1065 496.865, 1064.544 497.780, 1060.626 501.534 C 1057.727 504.312, 1055.677 507.457, 1054.546 510.862 C 1053.607 513.688, 1052.487 516, 1052.057 516 C 1049.163 516, 1039.883 526.216, 1041.399 527.733 C 1042.512 528.845, 1051.406 524.628, 1055.227 521.176 C 1058.566 518.159, 1068.690 513.019, 1071.321 513.005 C 1071.773 513.002, 1072.818 513.675, 1073.643 514.500 C 1075.646 516.503, 1078.905 516.396, 1081.275 514.250 C 1082.947 512.735, 1085.379 512.500, 1099.354 512.500 C 1113.084 512.500, 1116.024 512.775, 1119 514.336 C 1120.925 515.347, 1125.088 516.422, 1128.250 516.725 C 1131.412 517.029, 1134 517.604, 1134 518.003 C 1134 518.402, 1136.138 519.518, 1138.750 520.484 C 1146.813 523.464, 1151.568 526.716, 1155.605 532.009 C 1160.784 538.800, 1163.493 540, 1173.644 540 L 1181.981 540 1185.465 535.250 C 1187.382 532.638, 1188.976 529.600, 1189.007 528.500 C 1189.038 527.400, 1189.724 525.626, 1190.532 524.559 C 1191.339 523.491, 1192 521.563, 1192 520.274 C 1192 517.593, 1194.590 513.145, 1197.326 511.128 C 1198.835 510.015, 1199.064 508.976, 1198.539 505.628 C 1198.183 503.358, 1197.579 497.915, 1197.196 493.534 L 1196.500 485.567 1191.204 483.707 L 1185.909 481.846 1183.882 484.423 C 1182.033 486.773, 1181.210 487, 1174.531 487 C 1167.444 487, 1167.110 486.889, 1164.202 483.577 C 1162.549 481.694, 1158.023 478.432, 1154.145 476.327 C 1149.891 474.018, 1143.803 469.316, 1138.797 464.473 C 1134.234 460.059, 1128.025 455.147, 1125 453.558 C 1121.975 451.969, 1118.427 449.844, 1117.115 448.835 C 1115.803 447.826, 1113.981 447, 1113.065 447 C 1112.149 447, 1110.973 446.601, 1110.450 446.112 C 1109.087 444.839, 1105.921 444.263, 1102.809 444.723" stroke="#81244d" fill="#81244d" fill-opacity="0.2" fill-rule="evenodd"/><path class="svg-region-SOTr" d="M 1083.500 466 C 1083.160 466.550, 1081.874 467, 1080.641 467 C 1079.408 467, 1077.973 467.397, 1077.450 467.882 C 1075.783 469.429, 1062.751 476, 1061.349 476 C 1060.607 476, 1060 476.900, 1060 478 C 1060 479.745, 1060.669 480.001, 1065.250 480.007 C 1068.138 480.010, 1073.985 479.483, 1078.244 478.834 C 1084.413 477.895, 1086.474 477.916, 1088.376 478.933 C 1090.808 480.235, 1097 479.592, 1097 478.038 C 1097 477.597, 1095.200 475.435, 1093 473.235 C 1090.800 471.035, 1089 468.282, 1089 467.118 C 1089 465.539, 1088.379 465, 1086.559 465 C 1085.216 465, 1083.840 465.450, 1083.500 466" stroke="#995b45" fill="#995b45" fill-opacity="0.2" fill-rule="evenodd"/><path class="svg-region-LBPCl" d="M 609.695 215.796 C 606.411 219.225, 606.301 221.803, 609.250 226.270 C 611.768 230.084, 624.219 239.803, 638.518 249.115 C 643.733 252.511, 648 255.891, 648 256.625 C 648 257.359, 649.750 258.852, 651.890 259.944 C 654.413 261.231, 656.151 262.994, 656.838 264.964 C 657.906 268.028, 659.364 268.839, 660.500 267 C 661.455 265.455, 662.994 265.814, 663.714 267.750 C 664.072 268.712, 666.054 271.525, 668.118 274 C 672.481 279.230, 673.462 281.521, 675.021 290.117 C 675.773 294.263, 676.823 296.888, 678.083 297.771 C 679.542 298.793, 680 300.320, 680 304.165 C 680 309.171, 680.025 309.211, 682.750 308.551 C 684.263 308.184, 688.117 306.536, 691.316 304.887 C 696.481 302.224, 697.510 302.013, 700.504 303.001 C 702.358 303.613, 705.040 305.030, 706.464 306.151 C 707.888 307.271, 710.246 308.506, 711.704 308.896 C 714.021 309.516, 714.589 310.541, 716.224 317.052 C 718.095 324.502, 718.089 327.997, 716.182 343 C 715.797 346.025, 715.850 351.055, 716.299 354.178 C 716.987 358.958, 716.791 360.529, 715.058 364.116 C 713.926 366.459, 713 368.681, 713 369.055 C 713 370.525, 721.117 374.995, 724.878 375.597 L 728.860 376.233 730.035 371.867 C 731.803 365.295, 733.642 362.335, 736.720 361.110 C 738.249 360.501, 741.300 358.857, 743.500 357.457 C 745.700 356.058, 750.425 353.543, 754 351.869 C 761.019 348.582, 763.943 345.775, 763.978 342.289 C 763.990 341.073, 765.001 339.146, 766.224 338.006 C 768.089 336.268, 768.246 335.657, 767.195 334.217 C 766.506 333.273, 765.189 331.313, 764.267 329.861 C 763.345 328.410, 760.321 325.801, 757.546 324.063 C 748.709 318.529, 745.174 315.608, 742.053 311.266 C 740.380 308.937, 737.321 305.951, 735.255 304.629 C 733.190 303.308, 730.178 300.826, 728.563 299.113 C 726.948 297.401, 725.096 296, 724.448 296 C 723.800 296, 722.197 295.159, 720.885 294.130 C 719.573 293.102, 717.105 291.956, 715.399 291.584 C 713.694 291.211, 708.912 288.924, 704.773 286.501 C 697.999 282.536, 696.670 281.217, 691.474 273.298 C 688.299 268.459, 685.319 264.350, 684.851 264.167 C 684.383 263.983, 683.998 263.308, 683.996 262.667 C 683.993 262.025, 682.645 259.475, 681 257 C 679.355 254.525, 678.007 251.549, 678.004 250.386 C 678 248.292, 671.697 243, 669.207 243 C 668.556 243, 665.430 241.036, 662.261 238.635 C 659.093 236.234, 654.475 233.253, 652 232.009 C 649.525 230.766, 645.415 228.230, 642.866 226.374 C 640.317 224.518, 637.792 223, 637.254 223 C 635.797 223, 622.731 216.991, 621 215.524 C 620.175 214.825, 617.900 213.967, 615.945 213.618 C 612.911 213.076, 611.996 213.394, 609.695 215.796" stroke="#daffff" fill="#daffff" fill-opacity="0.2" fill-rule="evenodd"/><path class="svg-region-LBPCr" d="M 1160.254 192.400 C 1157.639 194.939, 1151.622 200.500, 1146.883 204.758 C 1142.143 209.016, 1135.168 215.318, 1131.383 218.763 C 1127.597 222.207, 1123.314 225.807, 1121.865 226.763 C 1117.333 229.751, 1108.175 236.908, 1107.514 237.978 C 1107.166 238.540, 1106.041 239, 1105.013 239 C 1103.986 239, 1102.063 240.383, 1100.740 242.073 C 1098.946 244.366, 1097.256 245.290, 1094.081 245.716 C 1091.476 246.065, 1089.597 246.909, 1089.234 247.893 C 1088.908 248.777, 1086.472 251.952, 1083.821 254.950 C 1081.169 257.947, 1079 260.893, 1079 261.496 C 1079 262.100, 1075.941 265.722, 1072.202 269.547 C 1067.185 274.679, 1064.107 276.946, 1060.452 278.203 C 1057.729 279.140, 1051.996 281.904, 1047.714 284.345 C 1043.432 286.786, 1037.902 289.088, 1035.426 289.459 C 1032.950 289.830, 1029.478 290.729, 1027.712 291.456 C 1025.945 292.183, 1022.069 293.105, 1019.097 293.504 C 1016.126 293.903, 1012.244 294.836, 1010.470 295.577 C 1007.439 296.843, 1007.220 297.279, 1006.818 302.846 C 1006.530 306.819, 1005.338 310.902, 1003.195 315.256 C 1000.649 320.427, 1000.015 322.940, 1000.072 327.623 C 1000.143 333.412, 1000.218 333.560, 1005.021 337.500 C 1007.820 339.795, 1010.266 342.778, 1010.761 344.500 C 1011.561 347.286, 1012.043 347.546, 1017.516 348.139 C 1022.753 348.708, 1023.782 349.208, 1026.760 352.639 C 1028.603 354.763, 1031.146 357.625, 1032.411 359 C 1033.676 360.375, 1035.704 364.027, 1036.917 367.115 C 1040.645 376.606, 1041.125 377, 1048.942 377 C 1058.696 377, 1059 376.385, 1059 356.662 C 1059 343.752, 1058.693 340.545, 1057.107 336.877 C 1056.066 334.470, 1054.907 329.484, 1054.532 325.798 L 1053.851 319.096 1057.176 318.239 C 1059.480 317.645, 1060.597 316.716, 1060.817 315.211 C 1061.264 312.147, 1066.401 308.822, 1071.591 308.237 C 1075.479 307.799, 1076 307.973, 1076 309.709 C 1076 312.776, 1080.217 314.237, 1083.845 312.428 C 1087.390 310.659, 1087.901 309.495, 1088.612 301.583 C 1088.912 298.237, 1089.513 294.600, 1089.948 293.500 C 1091.499 289.575, 1095.316 280.450, 1096.640 277.500 C 1099.271 271.642, 1106.323 265.578, 1112.486 263.876 C 1114.411 263.345, 1116.839 261.630, 1118.025 259.965 C 1119.186 258.334, 1120.750 257, 1121.501 257 C 1122.251 257, 1123.151 256.099, 1123.500 254.999 C 1123.850 253.898, 1129.304 248.431, 1135.622 242.850 C 1143.831 235.597, 1149.584 229.392, 1155.787 221.101 C 1160.561 214.720, 1166.657 207.256, 1169.333 204.513 C 1173.834 199.901, 1174.160 199.232, 1173.677 195.625 C 1173.076 191.150, 1171.639 189.411, 1167.754 188.458 C 1165.411 187.884, 1164.308 188.464, 1160.254 192.400" stroke="#daffff" fill="#daffff" fill-opacity="0.2" fill-rule="evenodd"/><path class="svg-region-PNl" d="M 639.207 68.639 C 632.730 74.068, 630 80.259, 630 89.516 C 630 94.093, 630.560 98.183, 631.413 99.831 C 633.388 103.652, 641.231 110.756, 649.500 116.216 C 653.350 118.758, 658.023 122.224, 659.886 123.919 C 661.748 125.614, 663.623 127, 664.054 127 C 665.105 127, 669.366 133.967, 668.714 134.620 C 667.059 136.274, 643.926 130.884, 633.458 126.405 C 627.884 124.020, 621.593 123.049, 611.562 123.024 C 602.875 123.003, 601.209 123.283, 598.328 125.250 C 594.026 128.186, 593.584 129.602, 595.787 133.375 C 598.441 137.919, 601.365 138.969, 611.414 138.985 C 619.465 138.999, 621.016 139.328, 627.414 142.384 C 631.312 144.244, 636.249 147.169, 638.388 148.884 C 640.526 150.598, 642.851 152, 643.554 152 C 644.966 152, 658.203 158.811, 659 159.948 C 659.275 160.340, 661.750 161.739, 664.500 163.056 C 667.250 164.374, 670.772 166.475, 672.327 167.726 C 673.881 168.977, 675.713 170, 676.396 170 C 677.080 170, 680.051 171.800, 683 174 C 685.949 176.200, 688.928 178, 689.622 178 C 691.090 178, 701.597 187.874, 701.298 188.973 C 701.186 189.380, 702.898 189.384, 705.101 188.982 C 708.454 188.368, 712.804 185.667, 714.998 182.835 C 715.281 182.470, 718.660 180.501, 722.506 178.461 C 726.353 176.420, 730.625 173.894, 732 172.847 C 734.677 170.808, 746 158.016, 746 157.030 C 746 156.705, 744.650 155.929, 743 155.306 C 741.350 154.683, 740 153.495, 740 152.666 C 740 151.817, 738.737 150.881, 737.104 150.523 C 735.511 150.173, 733.559 149.125, 732.767 148.193 C 729.787 144.690, 724.286 133.232, 722.111 126 C 718.385 113.608, 716.559 110.639, 705.805 99.487 C 693.567 86.795, 681.818 77.909, 669.500 72.028 C 652.519 63.920, 645.739 63.162, 639.207 68.639" stroke="#bbc0d1" fill="#bbc0d1" fill-opacity="0.2" fill-rule="evenodd"/><path class="svg-region-PNr" d="M 1086 39.127 C 1075.403 40.839, 1069.429 42.167, 1061 44.682 C 1054.896 46.503, 1051.197 47.064, 1047.876 46.671 C 1040.225 45.766, 1032.198 48.392, 1027.500 53.337 C 1019.810 61.432, 1014 70.759, 1014 75.010 C 1014 76.159, 1013.382 78.314, 1012.627 79.800 C 1011.686 81.651, 1011.100 88.003, 1010.765 100 L 1010.275 117.500 1014.004 121.234 C 1019.266 126.503, 1025 133.639, 1025 134.918 C 1025 135.513, 1025.370 136, 1025.823 136 C 1026.880 136, 1031 144.215, 1031 146.324 C 1031 148.866, 1027.674 150, 1020.221 150 C 1014.796 150, 1012.954 150.393, 1011.655 151.829 C 1010.745 152.835, 1010 154.170, 1010 154.797 C 1010 155.423, 1008.763 156.607, 1007.250 157.428 L 1004.500 158.920 1007.317 158.960 C 1009.677 158.993, 1010.031 159.326, 1009.497 161.009 C 1009.001 162.573, 1010.121 164.181, 1014.550 168.259 C 1017.679 171.142, 1021.886 174.625, 1023.897 176 C 1025.909 177.375, 1029.567 180.118, 1032.027 182.095 C 1039.569 188.157, 1040.433 188.331, 1036.496 182.995 C 1034.904 180.836, 1034.214 178.900, 1034.603 177.675 C 1034.943 176.605, 1034.667 175.412, 1033.983 174.989 C 1033.042 174.408, 1033.171 173.520, 1034.529 171.220 C 1036.590 167.731, 1039.394 167.028, 1051.308 167.011 C 1055.603 167.005, 1062.128 166.575, 1065.808 166.056 C 1069.489 165.537, 1077.931 164.882, 1084.568 164.600 C 1097.154 164.066, 1104.988 162.032, 1116.184 156.392 C 1118.761 155.095, 1123.486 153.737, 1126.684 153.376 C 1129.883 153.015, 1134.170 151.882, 1136.210 150.860 C 1138.251 149.837, 1141.484 149, 1143.395 149 C 1148.456 149, 1151.858 147.405, 1153.234 144.387 C 1154.350 141.937, 1154.178 141.512, 1151.005 138.863 L 1147.567 135.993 1132.283 136.652 C 1119.213 137.215, 1117 137.098, 1117 135.842 C 1117 134.183, 1122.049 129, 1123.666 129 C 1125.222 129, 1133.155 117.064, 1134.300 113 C 1137.178 102.783, 1136.022 88.395, 1131.529 78.500 C 1130.281 75.750, 1128.523 71.240, 1127.625 68.477 C 1125.958 63.355, 1114.905 49.679, 1108.500 44.815 C 1106.850 43.562, 1105.347 42.181, 1105.160 41.747 C 1104.972 41.313, 1103.532 40.292, 1101.959 39.479 C 1098.829 37.860, 1094.437 37.763, 1086 39.127" stroke="#bbc0d1" fill="#bbc0d1" fill-opacity="0.2" fill-rule="evenodd"/><path class="svg-region-ODMl" d="M 628 450.858 C 628 451.470, 629.913 453.203, 632.250 454.709 C 638.608 458.804, 641.806 462.448, 642.558 466.457 C 643.455 471.237, 645.763 472.281, 654.466 471.842 C 660.116 471.556, 662.465 470.939, 665.301 468.996 C 672.251 464.233, 672.694 458.839, 666.186 458.189 C 663.363 457.908, 663.126 457.620, 663.631 455.093 L 664.189 452.307 649.844 451.611 C 641.955 451.228, 633.813 450.652, 631.750 450.330 C 629.311 449.949, 628 450.134, 628 450.858" stroke="#999999" fill="#999999" fill-opacity="0.2" fill-rule="evenodd"/><path class="svg-region-ODMr" d="M 1155 440.940 C 1149.731 444.028, 1129.887 445.260, 1113.750 443.502 C 1110.037 443.098, 1107.004 443.157, 1107.008 443.634 C 1107.013 444.110, 1109.600 445.724, 1112.758 447.219 C 1126.797 453.867, 1130.154 456.192, 1142.177 467.598 C 1146.673 471.864, 1151.897 475.761, 1154.785 477.003 C 1157.496 478.169, 1161.445 480.896, 1163.560 483.062 C 1167.327 486.920, 1167.552 487, 1174.548 487 C 1180.197 487, 1182.036 486.618, 1183.345 485.171 C 1185.527 482.761, 1185.436 481.273, 1183.062 480.520 C 1180.726 479.778, 1175 473.457, 1175 471.620 C 1175 470.900, 1174.053 469.453, 1172.896 468.406 C 1169.751 465.560, 1166.484 459.489, 1163.001 450.023 C 1159.436 440.330, 1158.280 439.018, 1155 440.940" stroke="#999999" fill="#999999" fill-opacity="0.2" fill-rule="evenodd"/>
    </svg>