<svg xmlns="http://www.w3.org/2000/svg" width="1785" height="1131" viewBox="0 0 1785 1131" version="1.1">
    <path class="svg-region-AAB" d="M 734.500 474.100 C 718.643 475.051, 709.568 477.293, 704.385 481.541 C 700.140 485.019, 700 485.315, 700 490.824 C 700 493.953, 699.543 498.085, 698.984 500.007 C 698.096 503.058, 698.236 503.722, 700.094 505.250 C 701.264 506.212, 703.037 507, 704.034 507 C 706.444 507, 711.992 511.744, 712.032 513.839 C 712.080 516.371, 714.444 519.020, 721.545 524.500 C 725.108 527.250, 731.376 532.136, 735.472 535.358 L 742.920 541.216 750.210 541.299 C 758.093 541.388, 763.074 539.600, 765.008 535.985 C 765.595 534.888, 768.646 532.693, 771.788 531.107 C 781.040 526.437, 787.289 516.390, 787.419 505.979 C 787.499 499.534, 787.447 499.405, 782.983 494.979 C 776.097 488.150, 760.161 478.135, 756 478.022 C 755.175 477.999, 752.250 476.972, 749.500 475.740 C 745.017 473.732, 743.466 473.562, 734.500 474.100 M 1035.206 477.447 C 1033.135 481.992, 1029.750 483.311, 1021.513 482.783 C 1017.421 482.520, 1013.494 481.841, 1012.786 481.275 C 1009.320 478.499, 1007.083 478.865, 999.544 483.441 C 995.414 485.949, 991.762 488, 991.430 488 C 991.099 488, 988.866 489.408, 986.469 491.130 C 982.858 493.723, 980.903 494.346, 975.056 494.764 L 968 495.269 968 498.975 C 968 501.014, 968.670 504.891, 969.489 507.591 C 970.308 510.291, 970.983 513.756, 970.989 515.292 C 971.007 519.946, 974.049 533.347, 975.652 535.834 C 977.604 538.862, 984.471 541.950, 989.316 541.978 C 991.414 541.990, 994.082 542.508, 995.243 543.130 C 997.996 544.603, 1007.237 545.999, 1018.589 546.656 L 1027.678 547.182 1033.335 540.841 C 1036.446 537.353, 1038.993 533.980, 1038.996 533.345 C 1039.003 531.449, 1045.284 524.508, 1052.109 518.852 C 1063.407 509.490, 1070.701 501.406, 1071.450 497.416 C 1072.339 492.678, 1071.544 492.047, 1069.548 495.907 C 1067.608 499.659, 1066.728 499.759, 1064.577 496.477 C 1063.667 495.089, 1061.253 493.258, 1059.212 492.408 C 1056.969 491.474, 1053.547 488.465, 1050.564 484.803 C 1042.931 475.434, 1037.343 472.757, 1035.206 477.447" stroke="#7f3c1a" fill="#7f3c1a" fill-opacity="0.2" fill-rule="evenodd"/><path class="svg-region-PC" d="M 1012 444.497 C 1009.114 446.150, 1004 446.472, 1004 445 C 1004 444.450, 1002.557 444, 1000.792 444 C 998.099 444, 996.506 445.158, 990.855 451.227 C 984.697 457.841, 983.790 458.455, 980.176 458.455 C 976.873 458.455, 975.875 458.968, 974.076 461.594 C 972.893 463.320, 971.051 467.124, 969.983 470.046 C 968.915 472.968, 967.582 475.818, 967.021 476.379 C 966.459 476.941, 966 480.855, 966 485.078 C 966 494.761, 966.693 495.459, 975.601 494.744 C 980.851 494.323, 983.040 493.592, 986.499 491.108 C 988.879 489.399, 991.099 488, 991.430 488 C 991.762 488, 995.461 485.920, 999.649 483.378 L 1007.263 478.755 1010.882 480.515 C 1012.872 481.483, 1017.752 482.497, 1021.727 482.768 C 1032.574 483.507, 1035.572 480.929, 1037.125 469.532 C 1037.577 466.215, 1038.224 461.890, 1038.563 459.921 C 1039.021 457.261, 1038.644 455.464, 1037.093 452.921 C 1035.946 451.040, 1035.006 448.496, 1035.004 447.269 C 1035 445.204, 1034.669 445.084, 1030.544 445.649 C 1026.722 446.173, 1020.998 445.354, 1015.879 443.550 C 1015.120 443.283, 1013.375 443.709, 1012 444.497 M 781.797 451.006 C 780.860 452.653, 779.452 454, 778.669 454 C 777.886 454, 776.685 454.675, 776 455.500 C 774.152 457.726, 769.823 457.318, 766.942 454.647 C 765.258 453.085, 762.737 452.116, 759.452 451.768 C 756.728 451.479, 753.712 450.915, 752.750 450.514 C 751.407 449.955, 751 450.276, 751 451.893 C 751 453.052, 750.550 454, 750 454 C 749.450 454, 749 454.498, 749 455.106 C 749 455.714, 747.875 457.548, 746.500 459.182 C 744.598 461.443, 744.008 463.271, 744.032 466.827 C 744.049 469.397, 744.636 472.253, 745.336 473.173 C 746.036 474.094, 749.477 475.813, 752.983 476.994 C 763.984 480.700, 776.043 487.791, 781.622 493.835 C 783.936 496.341, 785.269 497.049, 786.775 496.571 C 789.262 495.782, 792 490.294, 792 486.099 C 792 484.394, 792.450 483, 793 483 C 793.603 483, 794 478.833, 794 472.500 C 794 466.725, 793.606 462, 793.125 462 C 792.644 462, 791.994 460.762, 791.682 459.250 C 790.993 455.915, 785.954 447.998, 784.527 448.006 C 783.962 448.010, 782.733 449.360, 781.797 451.006" stroke="#cda789" fill="#cda789" fill-opacity="0.2" fill-rule="evenodd"/><path class="svg-region-IBl" d="M 686.968 432.447 C 679.088 437.139, 674.935 440.752, 668.680 448.356 C 666.564 450.929, 664.008 453, 662.949 453 C 660.234 453, 659.488 457.099, 660.854 464.513 C 661.484 467.933, 662 473.871, 662 477.710 C 662 483.202, 662.390 485.043, 663.829 486.345 C 665.846 488.170, 670.530 488.570, 671.500 487 C 673.826 483.237, 686.748 490.317, 688.586 496.361 C 689.694 500.004, 692.152 502, 695.530 502 C 698.336 502, 698.830 501.599, 699.375 498.875 C 699.719 497.156, 700 493.361, 700 490.442 C 700 485.374, 700.201 484.969, 704.443 481.494 C 709.598 477.269, 717.935 475.230, 734.458 474.150 L 744.416 473.500 744.133 468.236 C 743.883 463.577, 744.249 462.428, 747.323 458.236 C 749.232 455.631, 750.942 452.600, 751.123 451.500 C 751.535 448.981, 750.330 447, 748.386 447 C 746.980 447, 739.481 444.022, 735.864 442.028 C 734.964 441.532, 731.364 440.601, 727.864 439.959 C 712.520 437.146, 707.817 435.682, 701.948 431.888 C 698.639 429.749, 695.596 428, 695.185 428 C 694.773 428, 691.076 430.001, 686.968 432.447" stroke="#b10e0e" fill="#b10e0e" fill-opacity="0.2" fill-rule="evenodd"/><path class="svg-region-IBr" d="M 1057.879 425.515 C 1056.571 427.448, 1053.475 430.006, 1051 431.199 C 1048.525 432.392, 1045.772 434.186, 1044.883 435.184 C 1043.993 436.183, 1042.786 437, 1042.200 437 C 1041.614 437, 1040.872 437.828, 1040.551 438.840 C 1040.230 439.852, 1038.849 441.278, 1037.483 442.009 C 1034.330 443.697, 1034.171 448.128, 1037.093 452.921 C 1038.666 455.501, 1039.018 457.223, 1038.524 459.921 C 1038.165 461.890, 1037.640 465.985, 1037.358 469.021 L 1036.845 474.542 1040.438 475.841 C 1042.784 476.690, 1046.020 479.513, 1049.765 483.978 C 1053.172 488.040, 1056.971 491.439, 1059.124 492.350 C 1061.117 493.193, 1063.705 495.147, 1064.875 496.691 L 1067.002 499.500 1069.001 497.139 C 1070.100 495.841, 1071 494.237, 1071 493.576 C 1071 491.087, 1076.786 487.142, 1085 484.031 C 1089.675 482.260, 1094.218 480.172, 1095.097 479.390 C 1097.549 477.206, 1099 471.032, 1099 462.783 C 1099 458.667, 1099.502 453.858, 1100.116 452.098 C 1101.513 448.088, 1100.742 447.281, 1096.898 448.732 C 1094.282 449.720, 1093.645 449.608, 1092.186 447.908 C 1091.259 446.827, 1090.005 444.492, 1089.400 442.721 C 1088.334 439.602, 1088.141 439.510, 1083.327 439.826 L 1078.355 440.152 1074.161 434.596 C 1071.854 431.541, 1069.532 427.899, 1069.001 426.502 C 1068.101 424.135, 1064.575 422, 1061.564 422 C 1060.846 422, 1059.187 423.582, 1057.879 425.515" stroke="#b10e0e" fill="#b10e0e" fill-opacity="0.2" fill-rule="evenodd"/><path class="svg-region-LBl" d="M 805.500 344.660 C 802.415 346.236, 797.627 347.548, 793 348.084 C 774.519 350.224, 775.511 349.949, 774.003 353.356 C 773.238 355.083, 770.601 359.087, 768.141 362.254 C 763.474 368.265, 762.871 368.575, 751 371.096 C 747.975 371.738, 744.375 373.140, 743 374.213 C 740.716 375.993, 740.119 377.545, 738.323 386.362 C 737.941 388.238, 736.233 390.287, 733.367 392.307 C 730.569 394.279, 727.490 397.929, 724.815 402.444 C 721.203 408.543, 710.869 419.849, 708.804 419.962 C 707.233 420.048, 696 427.170, 696 428.080 C 696 428.622, 696.788 429.387, 697.750 429.782 C 698.712 430.177, 701.300 431.719, 703.500 433.208 C 705.987 434.892, 710.526 436.520, 715.500 437.514 C 732.809 440.969, 734.534 441.359, 735.500 442.033 C 736.050 442.417, 739.650 443.965, 743.500 445.474 C 747.350 446.982, 751.283 448.908, 752.240 449.754 C 753.197 450.600, 756.347 451.517, 759.240 451.792 C 763.122 452.162, 765.032 452.910, 766.532 454.646 C 769.255 457.801, 773.484 457.634, 778.500 454.176 C 782.029 451.743, 782.559 450.853, 783 446.620 C 783.452 442.281, 784.177 441.136, 790.571 434.661 C 797.828 427.312, 799.224 424.719, 803.575 410.500 C 804.585 407.200, 805.768 404.073, 806.205 403.550 C 806.642 403.028, 807 401.350, 807 399.823 C 807 398.295, 808.316 393.098, 809.923 388.273 C 811.531 383.448, 813.402 376.359, 814.080 372.521 C 814.758 368.682, 816.371 363.436, 817.663 360.862 C 821.219 353.783, 821.696 348.135, 819.025 344.750 C 816.248 341.231, 812.263 341.205, 805.500 344.660" stroke="#d7b230" fill="#d7b230" fill-opacity="0.2" fill-rule="evenodd"/><path class="svg-region-LBr" d="M 967.448 347.405 C 960.676 349.558, 954 353.442, 954 355.229 C 954 355.697, 953.063 357.348, 951.918 358.897 C 948.694 363.257, 948.245 372.269, 950.874 379.864 C 952.043 383.243, 953 387.005, 953 388.225 C 953 391.652, 955.362 401, 956.227 401 C 956.652 401, 957 401.894, 957 402.986 C 957 405.817, 959.288 414, 960.080 414 C 960.445 414, 961.047 415.688, 961.417 417.750 C 961.786 419.813, 963.182 423.525, 964.517 426 C 971.387 438.729, 974 445.068, 974 449 C 974 453.163, 975.368 456.878, 977.400 458.235 C 980.570 460.352, 983.517 458.840, 990.532 451.500 C 996.485 445.270, 998.232 444, 1000.849 444 C 1002.582 444, 1004 444.450, 1004 445 C 1004 446.479, 1008.687 446.213, 1011.899 444.552 C 1014.342 443.289, 1015.310 443.289, 1019.508 444.552 C 1029.426 447.537, 1033.485 446.182, 1043.357 436.587 C 1045.953 434.064, 1048.852 432, 1049.799 432 C 1051.743 432, 1056.180 428.181, 1058.694 424.345 C 1060.127 422.158, 1060.162 421.669, 1058.935 420.973 C 1057.522 420.172, 1055.771 418.907, 1046.548 412.017 C 1038.073 405.687, 1033.036 394.655, 1033.012 382.375 C 1033.001 376.511, 1032.883 376.224, 1030.250 375.642 C 1028.625 375.283, 1026.675 373.698, 1025.483 371.767 C 1023.837 369.101, 1022.640 368.385, 1018.983 367.876 C 1014.624 367.270, 1010.821 366.115, 1004.349 363.433 C 1002.617 362.715, 999.942 360.411, 998.406 358.314 C 993.500 351.614, 990.604 348.887, 986.305 346.920 C 980.965 344.476, 976.280 344.597, 967.448 347.405" stroke="#d7b230" fill="#d7b230" fill-opacity="0.2" fill-rule="evenodd"/><path class="svg-region-PP" d="M 808.595 310.847 C 808.307 311.313, 803.893 311.982, 798.786 312.334 C 790.519 312.904, 781.012 314.691, 785.058 314.914 C 787.978 315.075, 790 322.005, 790 331.850 C 790 336.897, 790.417 341.809, 790.927 342.764 C 791.437 343.719, 792.098 345.288, 792.396 346.250 C 793.206 348.870, 797.589 348.429, 804.840 344.999 C 814.492 340.433, 818.799 341.313, 820.518 348.202 C 821.233 351.067, 818.699 360.361, 816.484 363 C 815.791 363.825, 814.665 367.875, 813.982 372 C 813.299 376.125, 811.448 383.463, 809.870 388.307 C 808.291 393.151, 807 397.843, 807 398.734 C 807 401.901, 797.790 427.309, 795.911 429.326 C 793.620 431.786, 793.527 432.604, 795.455 433.344 C 796.255 433.651, 797.789 435.612, 798.863 437.701 C 801.282 442.404, 805.233 446.145, 810.645 448.857 C 814.775 450.926, 819 457.246, 819 461.356 C 819 463.931, 815.546 470.172, 812.597 472.924 C 808.966 476.314, 809.257 478, 813.474 478 C 817.427 478, 819.008 475.825, 821.102 467.510 C 821.766 464.874, 823.589 460.074, 825.154 456.843 C 826.719 453.612, 828 450.102, 828 449.043 C 828 447.984, 828.392 446.876, 828.871 446.580 C 829.350 446.284, 830.009 444.705, 830.336 443.072 C 830.662 441.439, 834.770 432.334, 839.465 422.839 C 844.159 413.344, 848 404.996, 848 404.288 C 848 403.579, 848.360 403, 848.801 403 C 849.695 403, 854 394.577, 854 392.827 C 854 392.211, 855.553 389.367, 857.451 386.507 C 859.350 383.648, 861.487 380.001, 862.201 378.404 C 863.954 374.485, 867.999 370, 869.781 370 C 870.579 370, 873.523 368.318, 876.322 366.263 C 882.836 361.482, 887.484 359, 889.925 359 C 891.748 359, 899 364.936, 899 366.428 C 899 366.809, 900.533 369.127, 902.406 371.581 C 904.280 374.034, 907.045 379.421, 908.551 383.552 C 910.058 387.682, 911.675 391.299, 912.145 391.590 C 912.615 391.880, 913 393.558, 913 395.317 C 913 397.076, 914.125 400.629, 915.500 403.212 C 918.241 408.361, 918.601 411.587, 916.860 415.408 C 915.991 417.315, 916.019 418.693, 916.979 421.205 C 918.712 425.741, 925.065 438.388, 925.917 439 C 927.740 440.308, 931 453.554, 931 459.653 C 931 464.774, 931.507 467.076, 933.250 469.868 C 934.487 471.850, 935.950 474.343, 936.500 475.409 C 937.468 477.284, 947.315 483, 949.577 483 C 950.191 483, 951.645 483.825, 952.807 484.833 C 954.907 486.654, 961 486.746, 961 484.956 C 961 484.507, 962.013 483.995, 963.250 483.820 C 964.855 483.592, 965.656 482.640, 966.045 480.500 C 966.344 478.850, 967.807 474.900, 969.295 471.721 C 970.783 468.543, 972 465.688, 972 465.376 C 972 465.064, 972.970 463.446, 974.156 461.781 C 976.032 459.146, 976.162 458.337, 975.156 455.555 C 974.520 453.797, 974 450.577, 974 448.401 C 974 444.791, 971.515 438.864, 964.841 426.558 C 963.929 424.876, 962.633 421.700, 961.962 419.500 C 961.290 417.300, 960.120 414.073, 959.361 412.330 C 958.603 410.586, 957.725 407.661, 957.410 405.830 C 957.095 403.998, 956.461 401.600, 956.001 400.500 C 954.176 396.136, 953 391.562, 953 388.826 C 953 387.244, 952.100 383.389, 951 380.260 C 948.218 372.346, 948.418 366.561, 951.698 359.978 C 954.956 353.440, 958.105 350.530, 963.750 348.837 C 968.479 347.420, 969.064 346.472, 965.841 345.450 C 963.437 344.687, 957.012 338.112, 957.005 336.407 C 957.002 335.807, 955.313 334.461, 953.250 333.418 C 951.188 332.375, 948.526 330.686, 947.335 329.666 C 944.427 327.174, 941 328.241, 941 331.639 C 941 333.679, 940.570 334.087, 938.679 333.839 C 934.938 333.349, 931.162 336.398, 931.744 339.440 C 932.163 341.635, 931.876 342, 929.731 342 C 925.362 342, 917.913 336.761, 918.743 334.272 C 918.945 333.666, 918.168 332.871, 917.018 332.506 C 915.867 332.140, 913.786 330.037, 912.393 327.831 L 909.861 323.820 903.774 324.526 C 900.426 324.915, 893.820 326.561, 889.093 328.185 C 877.288 332.241, 866.741 332.991, 860.290 330.233 C 857.655 329.106, 852.800 327.857, 849.500 327.457 C 846.200 327.057, 843.275 326.425, 843 326.054 C 842.168 324.929, 830.313 318, 829.221 318 C 828.662 318, 825.242 316.200, 821.620 314 C 815.417 310.232, 809.813 308.875, 808.595 310.847" stroke="#c4743d" fill="#c4743d" fill-opacity="0.2" fill-rule="evenodd"/><path class="svg-region-LPl" d="M 787.679 437.483 C 782.272 442.664, 781.764 445.497, 785.597 449.076 C 788.456 451.744, 792 458.046, 792 460.460 C 792 461.307, 792.450 462, 793 462 C 793.600 462, 794 465.980, 794 471.941 C 794 477.490, 793.558 482.155, 793 482.500 C 792.450 482.840, 792 484.464, 792 486.109 C 792 489.325, 789.525 494.873, 787.365 496.500 C 786.465 497.178, 786.341 497.982, 786.981 498.998 C 787.806 500.308, 788.365 500.258, 791.435 498.605 C 793.365 497.565, 797.095 494.769, 799.723 492.391 C 802.350 490.013, 804.826 488.052, 805.224 488.033 C 806.358 487.981, 808.664 482.878, 809.407 478.777 C 809.777 476.730, 810.684 474.705, 811.422 474.277 C 813.869 472.859, 819 464.252, 819 461.565 C 819 456.588, 815.327 451.199, 810.144 448.573 C 805.159 446.047, 800.756 441.616, 797.797 436.148 C 795.481 431.870, 793.227 432.167, 787.679 437.483" stroke="#d2454f" fill="#d2454f" fill-opacity="0.2" fill-rule="evenodd"/><path class="svg-region-DMl" d="M 677.130 296.750 C 675.745 297.909, 673.817 302.724, 671.424 311 C 666.974 326.388, 667.398 325.102, 660.394 344.500 C 655.307 358.591, 654.648 361.266, 654.872 366.921 C 655.011 370.453, 655.759 374.568, 656.534 376.066 C 658.717 380.288, 659.371 386.588, 658.110 391.255 C 657.480 393.590, 656.551 398.875, 656.048 403 C 655.544 407.125, 654.619 412.525, 653.992 415 C 653.365 417.475, 652.614 422.464, 652.323 426.087 C 651.887 431.506, 652.166 433.404, 653.896 436.797 C 655.053 439.065, 656.022 441.951, 656.048 443.210 C 656.138 447.505, 659.298 452.476, 662.149 452.806 C 664.285 453.054, 665.627 452.113, 669.146 447.897 C 675.674 440.078, 678.807 437.349, 686.500 432.781 C 690.350 430.495, 696.755 426.684, 700.733 424.312 C 704.711 421.941, 708.351 420, 708.821 420 C 710.189 420, 723 407.503, 723 406.168 C 723 404.516, 728.025 396.847, 730.318 395 C 731.342 394.175, 733.489 392.447, 735.090 391.161 C 736.816 389.774, 738 387.865, 738 386.470 C 738 385.176, 738.450 383.840, 739 383.500 C 740.598 382.512, 740.156 377.205, 738.294 375.031 C 736.594 373.045, 736.581 373.045, 734.281 375.206 C 731.720 377.612, 730.618 377.028, 729.605 372.728 C 729.133 370.727, 729.375 369.793, 730.475 369.371 C 732.591 368.559, 732.380 366.718, 730 365.232 C 727.441 363.634, 727.469 360.961, 730.097 355.809 C 731.251 353.548, 732.571 349.035, 733.031 345.780 C 733.575 341.935, 734.766 338.684, 736.434 336.498 C 737.845 334.647, 739 332.653, 739 332.067 C 739 331.480, 739.675 331, 740.500 331 C 741.325 331, 742 331.418, 742 331.929 C 742 333.863, 745.198 335.916, 750.707 337.517 C 753.845 338.430, 757.320 339.811, 758.429 340.588 C 759.538 341.365, 762.759 342, 765.588 342 C 771.588 342, 776.498 344.987, 775.675 348.136 C 775.084 350.395, 777.317 350.544, 786.469 348.858 C 792.221 347.798, 792.636 347.544, 792.215 345.343 C 791.965 344.038, 791.365 342.726, 790.881 342.426 C 790.396 342.127, 790 337.402, 790 331.927 C 790 326.452, 789.583 321.191, 789.073 320.236 C 788.563 319.281, 787.881 317.658, 787.558 316.628 C 786.996 314.840, 785.904 314.789, 763.249 315.497 C 750.203 315.905, 738.640 316.567, 737.553 316.970 C 735.443 317.750, 727.272 314.667, 725.500 312.421 C 724.950 311.724, 722.250 310.487, 719.500 309.672 C 716.750 308.858, 712.025 307.073, 709 305.706 C 702.072 302.575, 696.935 301.284, 698.750 303.129 C 700.498 304.907, 700.307 306.002, 698.250 305.988 C 697.288 305.981, 694.621 304.230, 692.324 302.096 C 684.149 294.502, 681.099 293.429, 677.130 296.750" stroke="#68533d" fill="#68533d" fill-opacity="0.2" fill-rule="evenodd"/><path class="svg-region-DMr" d="M 1060.561 305.199 C 1059.506 306.431, 1057.618 307, 1054.582 307 C 1049.320 307, 1047.144 309.184, 1044.313 317.307 C 1042.187 323.405, 1042.023 343.010, 1044.046 349.140 C 1044.964 351.920, 1044.984 353.607, 1044.130 356.058 C 1043.508 357.840, 1043 361.398, 1043 363.965 C 1043 368.418, 1042.806 368.740, 1038.750 370.991 C 1036.412 372.289, 1034.169 373.834, 1033.765 374.425 C 1032.548 376.205, 1032.931 388.152, 1034.379 393.591 C 1035.766 398.798, 1042.251 410, 1043.879 410 C 1044.377 410, 1046.970 411.960, 1049.642 414.354 C 1054.823 418.999, 1058.740 421.296, 1063.371 422.409 C 1066.536 423.169, 1068.267 424.590, 1069.276 427.253 C 1069.641 428.217, 1071.846 431.531, 1074.176 434.618 L 1078.414 440.230 1083.016 439.684 L 1087.619 439.139 1090.127 444.320 C 1092.034 448.259, 1093.097 449.423, 1094.567 449.178 C 1095.630 449.001, 1099.337 448.710, 1102.805 448.533 C 1106.535 448.342, 1109.802 447.604, 1110.805 446.726 C 1111.737 445.909, 1113.963 444.500, 1115.750 443.595 C 1120.761 441.057, 1119.940 436.483, 1112.165 423.621 C 1110.130 420.255, 1107.235 414.744, 1105.733 411.375 C 1103.137 405.557, 1103.073 405.046, 1104.442 401.163 C 1105.575 397.954, 1105.757 393.662, 1105.293 381.187 C 1104.759 366.815, 1104.920 364.418, 1106.982 356.072 C 1109.258 346.860, 1109.259 346.841, 1107.289 344.173 C 1106.204 342.703, 1104.745 339.700, 1104.046 337.500 C 1103.348 335.300, 1102.243 332.600, 1101.589 331.500 C 1100.936 330.400, 1099.581 326.800, 1098.579 323.500 C 1095.611 313.728, 1093.988 310.402, 1092.980 312.032 C 1092.501 312.807, 1091.948 313.230, 1091.752 312.971 C 1091.555 312.712, 1090.602 311.235, 1089.634 309.688 C 1088.665 308.141, 1087.339 307.066, 1086.686 307.298 C 1086.034 307.530, 1083.456 306.698, 1080.959 305.449 C 1075.048 302.493, 1063.005 302.346, 1060.561 305.199 M 966.324 312.197 C 962.879 315.413, 965.294 319.155, 972.250 321.378 C 974.885 322.220, 974.359 323.679, 971 324.850 C 969.350 325.425, 968 326.366, 968 326.940 C 968 329.224, 963.568 333, 960.887 333 C 954.559 333, 957.699 341.119, 965.637 345.283 C 968.511 346.791, 969.682 346.893, 973.198 345.947 C 977.551 344.775, 985.536 345.440, 986.536 347.058 C 987.562 348.718, 988.765 348.071, 989.407 345.515 C 989.785 344.009, 990.980 342.792, 992.442 342.425 C 995.408 341.681, 998.429 338.503, 997.539 337.063 C 997.126 336.395, 998.104 336, 1000.175 336 C 1004.648 336, 1015.107 330.628, 1017.213 327.249 C 1018.155 325.737, 1019.915 323.283, 1021.124 321.796 C 1023.034 319.446, 1023.140 318.873, 1021.929 317.414 C 1020.727 315.966, 1019.097 315.815, 1010.018 316.313 C 1001.141 316.799, 997.628 316.498, 987.500 314.379 C 980.900 312.999, 974.719 311.449, 973.764 310.935 C 971.152 309.529, 968.744 309.938, 966.324 312.197" stroke="#68533d" fill="#68533d" fill-opacity="0.2" fill-rule="evenodd"/><path class="svg-region-PV" d="M 781.297 150.774 C 779.157 151.117, 779.193 151.263, 782.543 155.927 C 789.175 165.158, 790.371 169.136, 790.963 183.937 L 791.500 197.375 796.238 199.009 C 798.844 199.907, 801.260 200.927, 801.608 201.275 C 802.890 202.556, 800.871 207.101, 798.552 208.158 C 796.038 209.304, 796.077 211.065, 798.684 214.114 C 801.012 216.837, 804.770 231.346, 806.943 246 C 810.019 266.739, 810.160 269.142, 809.487 289.250 L 808.792 310 811.436 310 C 814.247 310, 820.934 313.052, 824.885 316.137 C 826.197 317.162, 827.860 318, 828.581 318 C 829.929 318, 842.103 324.782, 843 326.032 C 843.275 326.416, 846.200 327.047, 849.500 327.436 C 852.800 327.824, 857.455 329.071, 859.845 330.206 C 865.953 333.108, 877.399 332.337, 889 328.244 C 893.675 326.594, 900.200 324.936, 903.500 324.560 C 909.006 323.933, 909.623 324.062, 911 326.130 C 911.825 327.370, 913.545 329.476, 914.823 330.810 L 917.146 333.237 918.816 330.868 C 919.734 329.566, 920.489 328.275, 920.493 328 C 920.497 327.725, 921.400 326.600, 922.500 325.500 C 923.999 324.001, 925.553 323.576, 928.707 323.805 C 932.070 324.049, 933.171 323.698, 934.197 322.055 C 934.903 320.925, 936.092 320, 936.839 320 C 937.586 320, 939.503 318.602, 941.099 316.894 C 943.979 313.811, 944 313.697, 944 301.342 C 944 289.498, 945.790 276.844, 948.042 272.764 C 948.569 271.809, 949 263.295, 949 253.845 C 949 229.820, 949.867 225.704, 957.392 214 L 963.500 204.500 964.061 190.500 L 964.623 176.500 970.811 167.393 C 974.215 162.384, 977 157.606, 977 156.774 C 977 155.124, 972.387 154.030, 965.357 154.011 C 960.706 153.999, 960 154.919, 960 160.993 C 960 164.006, 959.371 165.352, 957.050 167.304 C 952.495 171.137, 950.012 175.942, 949.972 181 C 949.946 184.352, 949.294 186.231, 947.416 188.367 C 944.389 191.809, 940.059 192.944, 929.833 192.976 C 925.617 192.989, 922.017 193.352, 921.833 193.783 C 921.650 194.214, 919.787 195.564, 917.693 196.783 C 914.680 198.537, 912.319 199, 906.377 199 C 902.247 199, 897.886 199.557, 896.684 200.238 C 895.483 200.919, 890.675 201.774, 886 202.138 C 881.325 202.503, 875.375 203.127, 872.777 203.527 C 868.417 204.198, 867.779 204.013, 864.492 201.127 C 862.533 199.407, 860.286 198, 859.499 198 C 857.546 198, 851 194.813, 851 193.862 C 851 192.183, 842.888 191.011, 831.230 191.006 C 819.924 191, 818.654 190.807, 815.064 188.541 C 812.921 187.188, 810.900 185.647, 810.573 185.117 C 810.245 184.587, 808.665 183.866, 807.062 183.514 C 804.276 182.902, 801 179.344, 801 176.930 C 801 176.303, 799.824 173.475, 798.387 170.645 C 795.526 165.009, 793.808 153, 795.863 153 C 796.488 153, 797 152.391, 797 151.647 C 797 150.637, 795.288 150.310, 790.250 150.357 C 786.538 150.392, 782.509 150.580, 781.297 150.774" stroke="#b09658" fill="#b09658" fill-opacity="0.2" fill-rule="evenodd"/><path class="svg-region-Fl" d="M 745.730 152.131 C 743.398 153.436, 743.549 154.675, 746.460 158.135 C 747.813 159.743, 749.217 162.733, 749.579 164.779 C 750.923 172.374, 752.910 175.023, 759.577 178.109 C 763.013 179.699, 766.928 181, 768.277 181 C 771.715 181, 775.626 184.379, 776.344 187.969 C 776.878 190.640, 777.359 191, 780.398 191 C 782.617 191, 784.906 191.891, 786.818 193.500 C 788.452 194.875, 790.113 196, 790.510 196 C 790.907 196, 791.040 190.037, 790.807 182.750 C 790.348 168.436, 789.327 165.170, 782.306 155.555 L 779.426 151.610 763.443 151.387 C 754.530 151.262, 746.695 151.591, 745.730 152.131 M 773.500 209.054 C 771.850 209.596, 767.054 209.965, 762.843 209.874 C 756.372 209.735, 754.763 210.042, 752.458 211.855 C 750.958 213.035, 749.138 214, 748.414 214 C 746.221 214, 740.257 226.021, 738.492 234 C 733.797 255.225, 733.151 260.915, 733.961 273.913 C 734.638 284.762, 734.530 286.673, 733.182 287.750 C 732.322 288.438, 730.888 289, 729.996 289 C 729.104 289, 727.165 290.262, 725.687 291.805 C 723.493 294.095, 723 295.540, 723 299.682 C 723 303.086, 723.520 305.187, 724.580 306.067 C 725.494 306.825, 725.977 308.342, 725.724 309.664 C 725.209 312.359, 727.004 314.183, 732.340 316.387 C 734.770 317.391, 736.791 317.658, 737.840 317.116 C 738.753 316.644, 749.175 315.945, 761 315.562 C 772.825 315.179, 784.525 314.409, 787 313.851 C 789.475 313.294, 795.325 312.536, 800 312.169 L 808.500 311.500 809.405 291.500 C 810.284 272.061, 809.805 263.025, 806.966 245.500 C 804.101 227.813, 800.246 213.921, 797.995 213.167 C 797.448 212.983, 797 212.148, 797 211.310 C 797 210.327, 796.435 210.003, 795.407 210.397 C 790.875 212.136, 788.836 212.161, 787 210.500 C 784.713 208.430, 777.689 207.678, 773.500 209.054" stroke="#5ca7a9" fill="#5ca7a9" fill-opacity="0.2" fill-rule="evenodd"/><path class="svg-region-Fr" d="M 976.580 157.462 C 975.795 159.341, 972.767 164.393, 969.851 168.689 L 964.549 176.500 964.196 189.840 C 963.857 202.592, 963.708 203.408, 960.806 208.340 C 959.137 211.178, 957.441 213.725, 957.037 214 C 955.153 215.283, 951.234 224.088, 950.175 229.417 C 949.529 232.671, 949 243.365, 949 253.180 C 949 262.996, 948.569 271.809, 948.042 272.764 C 945.772 276.875, 944 289.500, 944 301.553 C 944 313.865, 943.931 314.266, 941.500 316.179 C 938.069 318.878, 938.366 320.837, 942.468 322.551 C 950.074 325.729, 972.608 323.191, 967.913 319.685 C 967.041 319.033, 965.804 317.518, 965.164 316.317 C 964.146 314.405, 964.361 313.879, 966.905 312.067 C 969.991 309.870, 973 309.343, 973 311 C 973 311.550, 974.013 312.004, 975.250 312.009 C 976.487 312.014, 982.384 313.126, 988.352 314.480 C 997.742 316.610, 1000.673 316.857, 1010.102 316.318 C 1017.889 315.872, 1021 315.334, 1021 314.431 C 1021 313.735, 1021.337 313.017, 1021.750 312.833 C 1022.163 312.650, 1023.564 310.986, 1024.864 309.137 C 1026.859 306.297, 1027.128 305.026, 1026.592 300.978 C 1026.242 298.341, 1025.064 293.592, 1023.974 290.425 C 1022.257 285.435, 1022.182 284.454, 1023.409 283.083 C 1025.450 280.801, 1025.575 261.899, 1023.631 249.500 C 1019.849 225.381, 1017.125 217.150, 1012.060 214.531 C 1010.377 213.661, 1009 212.546, 1009 212.054 C 1009 211.562, 1007.655 210.864, 1006.012 210.503 C 1002.109 209.645, 999 205.591, 999 201.359 C 999 199.008, 998.243 197.328, 996.500 195.813 C 995.125 194.618, 994 192.760, 994 191.686 C 994 188.855, 991.817 182, 990.915 182 C 990.492 182, 989.439 180.581, 988.573 178.846 C 986.820 175.332, 986.451 169, 988 169 C 988.550 169, 989 167.252, 989 165.117 C 989 161.944, 989.412 161.117, 991.250 160.600 C 993.445 159.983, 993.453 159.931, 991.576 158.496 C 990.518 157.687, 988.043 156.766, 986.076 156.449 C 984.109 156.132, 981.489 155.462, 980.254 154.959 C 978.289 154.161, 977.829 154.475, 976.580 157.462" stroke="#5ca7a9" fill="#5ca7a9" fill-opacity="0.2" fill-rule="evenodd"/><path class="svg-region-PCl" d="M 692.700 193.750 C 692.115 198.546, 686.635 210, 684.925 210 C 684.416 210, 684 210.609, 684 211.354 C 684 212.099, 682.833 213.968, 681.406 215.507 C 679.457 217.610, 678.949 218.993, 679.363 221.066 C 679.691 222.706, 679.399 224.254, 678.644 224.881 C 677.944 225.461, 676.293 229.376, 674.975 233.580 C 673.656 237.785, 671.997 241.447, 671.289 241.719 C 669.321 242.474, 669.745 245.266, 672.366 248.818 C 673.667 250.582, 674.995 253.946, 675.317 256.293 C 676.103 262.029, 678.735 267.634, 683.192 273.065 C 687.247 278.007, 689 281.801, 689 285.635 C 689 287.013, 690.288 290.021, 691.863 292.320 C 693.438 294.619, 695.028 297.464, 695.396 298.642 C 695.765 299.821, 697.514 301.313, 699.283 301.959 C 701.052 302.605, 704.750 304.058, 707.500 305.188 C 714.775 308.178, 723.106 311, 724.655 311 C 726.472 311, 726.365 307.547, 724.500 306 C 723.519 305.186, 723 302.958, 723 299.565 C 723 295.183, 723.437 293.955, 725.805 291.687 C 727.347 290.209, 729.286 289, 730.114 289 C 730.941 289, 732.317 288.438, 733.171 287.750 C 734.497 286.683, 734.617 284.742, 733.994 274.500 C 733.095 259.734, 733.842 253.633, 739.203 232 C 741.182 224.012, 745.967 215.256, 749.053 213.978 C 752.712 212.463, 755.978 208.875, 754.250 208.271 C 753.515 208.013, 753 206.084, 753 203.586 C 753 197.516, 751.576 196.966, 731 195.090 C 725.775 194.613, 719.925 193.714, 718 193.092 C 714.461 191.948, 697.859 189.011, 694.889 189.004 C 693.715 189.001, 693.122 190.286, 692.700 193.750" stroke="#465ee0" fill="#465ee0" fill-opacity="0.2" fill-rule="evenodd"/><path class="svg-region-PCr" d="M 994.902 159.598 C 993.581 160.330, 991.712 160.945, 990.750 160.965 C 989.381 160.992, 989 161.871, 989 165 C 989 167.200, 988.550 169, 988 169 C 986.451 169, 986.820 175.332, 988.573 178.846 C 989.439 180.581, 990.492 182, 990.915 182 C 991.817 182, 994 188.855, 994 191.686 C 994 192.760, 995.125 194.618, 996.500 195.813 C 998.243 197.328, 999 199.008, 999 201.359 C 999 205.377, 1001.985 209.528, 1005.510 210.413 C 1007.842 210.998, 1008.978 211.821, 1014.333 216.796 C 1015.342 217.733, 1016.832 220.075, 1017.646 222 C 1019.365 226.071, 1022.656 241.765, 1023.616 250.475 C 1023.981 253.789, 1024.601 257.400, 1024.994 258.500 C 1025.387 259.600, 1025.429 265.675, 1025.087 272 C 1024.469 283.433, 1024.480 283.511, 1026.983 285.448 C 1031.415 288.878, 1039.079 297.354, 1042.160 302.231 L 1045.148 306.961 1052.324 302.008 C 1059.834 296.825, 1061.959 294.397, 1069.934 281.881 C 1072.604 277.690, 1075.624 273.639, 1076.645 272.879 C 1078.370 271.594, 1085 262.534, 1085 261.462 C 1085 261.198, 1086.338 259.135, 1087.974 256.877 C 1091.156 252.484, 1090.925 250.100, 1087.117 248.063 C 1086.107 247.522, 1084.295 244.788, 1083.090 241.987 C 1081.885 239.185, 1079.278 235.100, 1077.298 232.908 C 1075.317 230.715, 1072.527 227.158, 1071.098 225.003 C 1069.669 222.848, 1065.350 216.521, 1061.500 210.944 C 1057.650 205.366, 1053.373 198.982, 1051.995 196.756 C 1048.632 191.321, 1044.839 188.672, 1040.096 188.442 C 1037.932 188.337, 1034.887 187.368, 1033.330 186.288 C 1031.774 185.209, 1029.747 184.055, 1028.828 183.724 C 1027.735 183.331, 1027.338 182.423, 1027.682 181.107 C 1028.096 179.526, 1027.593 178.939, 1025.355 178.388 C 1019.780 177.015, 1013.737 173.935, 1011.810 171.485 C 1010.734 170.118, 1009.294 169, 1008.608 169 C 1007.055 169, 1003.195 164.644, 1002.028 161.573 C 1000.928 158.680, 998.015 157.873, 994.902 159.598" stroke="#465ee0" fill="#465ee0" fill-opacity="0.2" fill-rule="evenodd"/><path class="svg-region-DV" d="M 797 151.250 C 797 152.213, 796.488 153, 795.863 153 C 793.795 153, 795.524 165.009, 798.526 171.500 C 800.053 174.800, 801.787 178.563, 802.380 179.862 C 802.973 181.161, 804.592 182.623, 805.979 183.111 C 807.365 183.599, 808.995 184.337, 809.600 184.749 C 818.943 191.122, 817.696 190.781, 833.076 191.173 C 846.861 191.526, 847.671 191.662, 851.368 194.257 C 853.496 195.750, 856.731 197.384, 858.557 197.888 C 860.383 198.392, 863.142 199.998, 864.688 201.457 C 867.195 203.822, 868.043 204.047, 872.500 203.526 C 875.250 203.205, 881.550 202.614, 886.500 202.213 C 891.450 201.813, 896.483 200.925, 897.684 200.242 C 898.926 199.536, 903.347 199, 907.934 199 C 912.370 199, 916 198.662, 916 198.248 C 916 197.835, 917.913 196.521, 920.250 195.329 C 923.486 193.679, 926.862 193.055, 934.397 192.713 C 944.095 192.272, 944.352 192.197, 947.147 188.996 C 949.405 186.410, 950 184.761, 950 181.087 C 950 176.173, 951.201 173.768, 956.536 168 C 959.109 165.217, 959.869 163.415, 960.243 159.209 C 960.632 154.843, 960.401 153.750, 958.923 152.959 C 957.938 152.431, 950.464 151.997, 942.316 151.994 C 934.167 151.991, 924.800 151.472, 921.500 150.842 C 917.449 150.068, 896.251 149.664, 856.250 149.598 C 800.451 149.506, 797 149.602, 797 151.250" stroke="#45567a" fill="#45567a" fill-opacity="0.2" fill-rule="evenodd"/><path class="svg-region-B" d="M 964.351 662.972 C 959.563 665.718, 941 683.219, 941 684.988 C 941 685.422, 939.200 688.858, 937 692.623 L 933 699.468 933 710.512 C 933 718.296, 933.408 722.138, 934.383 723.530 C 935.144 724.616, 936.694 728.506, 937.826 732.173 C 939.525 737.674, 939.685 739.375, 938.737 741.885 C 935.105 751.507, 946.842 756.299, 961.824 751.310 C 967.981 749.260, 977.866 741.499, 978.548 738.180 C 979.959 731.315, 981.666 727.544, 986.137 721.411 C 993.573 711.211, 995.293 703.479, 993.879 686.609 C 992.991 676.008, 992.847 675.539, 988.486 668.979 C 984.521 663.015, 983.493 662.110, 979.560 661.119 C 972.779 659.412, 969.959 659.755, 964.351 662.972 M 785.580 676.697 C 780.306 682.385, 778.500 690.751, 778.500 709.500 C 778.500 723.647, 778.755 726.137, 780.698 731 C 781.908 734.025, 783.157 737.749, 783.474 739.275 C 784.223 742.879, 790.357 749.631, 795.064 752.032 C 800.497 754.804, 810.252 755.510, 817.500 753.656 C 834.932 749.198, 836.082 748.748, 839.972 744.868 C 843.288 741.560, 845.282 731.697, 843.988 725 C 842.052 714.977, 840.661 711, 839.082 710.972 C 838.160 710.956, 835.528 707.476, 832.772 702.629 C 830.172 698.055, 826.857 693.456, 825.405 692.407 C 823.954 691.358, 821.022 689.150, 818.891 687.500 C 816.759 685.850, 813.739 683.517, 812.178 682.315 C 810.618 681.113, 807.802 679.463, 805.920 678.649 C 804.039 677.834, 800.857 676.454, 798.849 675.583 C 793.189 673.129, 788.526 673.520, 785.580 676.697" stroke="#e23b33" fill="#e23b33" fill-opacity="0.2" fill-rule="evenodd"/><path class="svg-region-Ol" d="M 523.500 280.015 C 521.850 280.544, 517.350 281.049, 513.500 281.137 C 509.650 281.225, 505.285 281.905, 503.800 282.649 C 502.314 283.392, 499.979 284, 498.609 284 C 497.239 284, 495.840 284.450, 495.500 285 C 495.160 285.550, 494.128 286, 493.207 286 C 491.716 286, 477.885 291.948, 470.846 295.617 C 469.386 296.378, 467.586 297.014, 466.846 297.031 C 465.376 297.065, 459.818 299.761, 450.500 304.960 C 447.200 306.801, 442.757 309.251, 440.627 310.404 C 438.497 311.557, 435.712 313.465, 434.439 314.645 C 433.165 315.825, 431.896 316.563, 431.619 316.286 C 431.341 316.008, 429.041 317.180, 426.507 318.891 C 423.973 320.601, 421.498 322, 421.007 322 C 420.515 322, 419.523 322.788, 418.802 323.750 C 417.049 326.090, 412.712 328.985, 405.779 332.444 C 402.632 334.014, 399.249 336.019, 398.262 336.899 C 397.274 337.780, 393.834 340.279, 390.616 342.452 C 387.399 344.626, 383.131 347.878, 381.133 349.679 C 379.135 351.480, 377.132 352.964, 376.683 352.977 C 375.854 353, 369.926 357.263, 366.917 360 C 366.009 360.825, 362.009 364.425, 358.027 368 C 346.234 378.588, 333.360 393.694, 325.291 406.411 C 303.123 441.352, 293.779 475.411, 298.517 504 C 299.474 509.775, 300.746 515.400, 301.343 516.500 C 301.940 517.600, 302.465 518.725, 302.510 519 C 303.371 524.345, 305.116 529.082, 310.375 540.348 C 313.851 547.794, 317.375 554.925, 318.206 556.193 C 319.036 557.462, 320.890 560.819, 322.325 563.653 C 323.761 566.487, 326.318 570.312, 328.008 572.153 C 329.697 573.994, 332.750 578.071, 334.790 581.214 C 336.831 584.357, 339.470 587.448, 340.657 588.083 C 341.843 588.718, 343.631 590.872, 344.630 592.869 C 346.357 596.320, 349.091 599.699, 355.250 605.992 C 356.763 607.538, 358 609.131, 358 609.532 C 358 609.933, 359.542 612.407, 361.426 615.030 C 364.783 619.702, 367.991 627.381, 368.009 630.785 C 368.024 633.525, 372.031 640.994, 378.500 650.339 C 381.800 655.106, 385.850 661.191, 387.500 663.861 C 389.150 666.531, 392.240 671.367, 394.366 674.608 C 396.492 677.849, 399.257 682.075, 400.511 684 C 401.764 685.925, 406.304 694.700, 410.600 703.500 C 417.252 717.129, 424.239 730.194, 427.982 736 C 442.806 759, 454.960 781.745, 461.379 798.500 C 469.858 820.633, 477.854 834.457, 490.474 848.803 C 494.350 853.209, 504.067 860.156, 511.759 864.020 C 531.873 874.124, 552.055 874.707, 578.162 865.940 C 585.230 863.566, 601.341 856.521, 606 853.766 C 609.421 851.744, 627.247 839.934, 631.241 837.044 C 636.574 833.185, 645.934 822.883, 648.564 817.978 C 650.179 814.965, 651.837 812.350, 652.250 812.167 C 652.663 811.983, 653 811.408, 653 810.887 C 653 810.367, 654.858 807.592, 657.129 804.721 C 659.400 801.849, 662.369 797.156, 663.727 794.292 C 665.084 791.427, 666.826 788.559, 667.597 787.919 C 668.369 787.279, 669 786.173, 669 785.461 C 669 784.749, 669.337 784.017, 669.750 783.833 C 670.163 783.650, 675.550 777.875, 681.723 771 C 687.896 764.125, 693.988 757.600, 695.262 756.500 C 698.681 753.548, 709.643 740.686, 716.865 731.153 C 727.960 716.509, 737.338 696.601, 740.491 681 C 741.436 676.325, 742.566 672.050, 743.003 671.500 C 743.439 670.950, 744.471 668.250, 745.297 665.500 C 746.122 662.750, 747.792 658.250, 749.008 655.500 C 750.224 652.750, 752.632 646.225, 754.359 641 C 757.221 632.343, 757.496 630.391, 757.460 619 C 757.418 606.099, 756.236 600.958, 750.416 588.362 C 746.230 579.303, 733.624 561.416, 725.142 552.500 C 718.615 545.638, 715 540.186, 715 537.202 C 715 536.043, 712.983 533.247, 710.396 530.820 C 707.863 528.444, 703.701 524.481, 701.146 522.014 C 694.705 515.795, 688.334 513, 680.601 513 C 677.190 513, 673.973 513.414, 673.450 513.919 C 672.928 514.425, 669.575 515.054, 666 515.317 C 657.306 515.958, 649.368 517.566, 644.500 519.672 C 640.471 521.415, 633.280 525.924, 630.825 528.246 C 630.096 528.936, 627.172 531.054, 624.327 532.953 C 619.660 536.068, 617.603 538.704, 613.602 546.697 C 612.997 547.905, 610.599 549.844, 608.274 551.006 C 605.948 552.167, 603.784 553.541, 603.464 554.059 C 603.144 554.576, 602.009 555, 600.941 555 C 599.873 555, 599 555.395, 599 555.879 C 599 556.362, 597.671 557.308, 596.047 557.980 C 593.471 559.048, 592.719 558.936, 590.143 557.102 C 588.519 555.946, 586.432 555, 585.503 555 C 584.575 555, 582.671 554.100, 581.273 553 C 579.529 551.628, 577.216 551, 573.910 551 C 569.250 551, 569.070 550.891, 568.472 547.703 C 568.077 545.595, 568.480 542.840, 569.592 540.061 C 571.272 535.862, 571.267 535.668, 569.416 534.302 C 568.164 533.378, 565.594 532.995, 562 533.194 L 556.500 533.500 556.207 526.268 C 555.904 518.801, 557.351 511, 559.039 511 C 559.567 511, 560 510.325, 560 509.500 C 560 508.675, 560.450 508, 561 508 C 562.778 508, 562.061 501.882, 559.816 497.886 C 558.220 495.046, 556.981 494, 555.216 494 C 553.698 494, 551.117 492.341, 548.277 489.541 C 544.636 485.952, 543.388 483.763, 541.877 478.313 C 539.821 470.897, 539.212 451.605, 541 450.500 C 541.550 450.160, 542 449.096, 542 448.136 C 542 447.176, 543.575 444.671, 545.500 442.570 C 547.425 440.468, 549 438.130, 549 437.374 C 549 436.618, 549.378 436, 549.839 436 C 550.301 436, 551.151 434.964, 551.728 433.698 C 552.896 431.135, 558.607 428.091, 567.182 425.463 C 572.691 423.775, 572.964 423.781, 576.182 425.678 C 578.007 426.753, 580.978 428.148, 582.785 428.777 C 586.002 429.897, 586.103 429.843, 587.656 426.210 C 588.529 424.170, 589.639 421.825, 590.124 421 C 592.866 416.331, 593.184 413.908, 592.683 401.500 C 592.191 389.320, 592.308 388.179, 594.532 383.412 C 595.837 380.613, 597.646 377.708, 598.551 376.957 C 599.457 376.206, 602.233 372.473, 604.720 368.662 L 609.244 361.733 609.760 349.011 C 610.122 340.077, 609.937 336.079, 609.138 335.585 C 608.512 335.198, 608 333.868, 608 332.629 C 608 330.528, 605.162 323.414, 602.962 320 C 602.430 319.175, 601.571 317.524, 601.053 316.331 C 600.535 315.138, 599.461 313.788, 598.667 313.331 C 597.873 312.874, 597.060 311.738, 596.861 310.808 C 595.833 305.991, 574.087 286, 569.877 286 C 569.289 286, 567.614 285.163, 566.154 284.139 C 562.557 281.617, 554.851 279.995, 547 280.107 C 543.425 280.158, 537.350 279.942, 533.500 279.626 C 529.650 279.310, 525.150 279.485, 523.500 280.015" stroke="#aa444d" fill="#aa444d" fill-opacity="0.2" fill-rule="evenodd"/><path class="svg-region-Or" d="M 1273.563 252.834 C 1270.407 253.194, 1256.734 256.259, 1251 257.892 C 1249.075 258.440, 1243.853 259.853, 1239.396 261.032 C 1234.855 262.232, 1230.238 264.148, 1228.896 265.389 C 1227.578 266.606, 1225.825 267.926, 1225 268.321 C 1221.011 270.232, 1208.245 278.612, 1206.186 280.671 C 1205.438 281.419, 1203.201 283.261, 1201.213 284.765 C 1199.226 286.269, 1196.227 288.995, 1194.550 290.822 C 1192.872 292.649, 1189.939 295.799, 1188.032 297.822 C 1186.124 299.845, 1183.482 303.525, 1182.160 306 C 1180.838 308.475, 1179.187 311.175, 1178.492 312 C 1176.311 314.587, 1171 325.202, 1171 326.974 C 1171 327.905, 1170.691 328.976, 1170.313 329.354 C 1169.935 329.732, 1169.548 330.819, 1169.453 331.770 C 1169.358 332.722, 1168.502 336.422, 1167.550 339.993 C 1166.242 344.900, 1166.002 348.077, 1166.569 352.993 C 1166.982 356.572, 1167.218 360.693, 1167.095 362.151 C 1166.971 363.609, 1167.349 365.098, 1167.935 365.460 C 1168.521 365.822, 1169 366.811, 1169 367.657 C 1169 368.901, 1174.284 381.020, 1177.869 388 C 1178.293 388.825, 1178.316 390.625, 1177.919 392 C 1177.523 393.375, 1177.155 396.597, 1177.100 399.160 C 1176.999 403.844, 1177.142 404.107, 1185.598 414.856 C 1185.752 415.052, 1188.291 415.383, 1191.239 415.593 C 1211.941 417.067, 1223 419.572, 1223 422.787 C 1223 423.510, 1224.595 425.563, 1226.544 427.349 C 1229.841 430.370, 1230.041 430.888, 1229.416 434.798 C 1229.047 437.109, 1228.352 439, 1227.872 439 C 1227.392 439, 1227 442.099, 1227 445.886 C 1227 450.049, 1226.409 453.904, 1225.506 455.636 C 1224.685 457.211, 1224.010 459.246, 1224.006 460.157 C 1224.003 461.068, 1221.744 463.703, 1218.986 466.012 L 1213.972 470.210 1202.833 469.855 C 1195.720 469.628, 1191.564 469.875, 1191.335 470.538 C 1191.137 471.109, 1193.223 474.034, 1195.972 477.038 C 1200.900 482.424, 1200.969 482.591, 1200.985 489.063 C 1200.999 495.040, 1201.268 495.882, 1204 498.500 C 1207.342 501.701, 1207.708 504.119, 1205.494 508.364 C 1204.672 509.940, 1204 512.077, 1204 513.114 C 1204 514.151, 1203.662 515.001, 1203.250 515.001 C 1202.838 515.002, 1201.193 516.127, 1199.594 517.501 C 1197.996 518.876, 1195.664 520, 1194.412 520 C 1193.160 520, 1186.817 521.388, 1180.318 523.085 C 1168.019 526.296, 1167.434 526.317, 1150.803 524.149 C 1147.670 523.741, 1144.295 522.708, 1143.303 521.855 C 1142.311 521.002, 1140.713 520.025, 1139.750 519.683 C 1138.787 519.342, 1138 518.619, 1138 518.077 C 1138 517.534, 1136.425 516.795, 1134.500 516.434 C 1132.575 516.073, 1131 515.396, 1131 514.931 C 1131 514.465, 1128.862 512.849, 1126.250 511.338 C 1123.638 509.828, 1118.970 506.884, 1115.879 504.796 C 1110.455 501.133, 1109.956 501, 1101.679 501 C 1093.804 501, 1092.736 501.246, 1088.660 503.996 C 1086.219 505.644, 1082.504 509.244, 1080.405 511.996 C 1078.306 514.748, 1076.231 517, 1075.795 517 C 1075.358 517, 1075 517.869, 1075 518.930 C 1075 520.158, 1074.196 520.977, 1072.794 521.180 C 1071.439 521.377, 1069.828 522.947, 1068.618 525.250 C 1067.229 527.893, 1065.982 529, 1064.392 529 C 1059.208 529, 1055.566 541.423, 1059.575 545.432 C 1061.007 546.865, 1060.718 547.524, 1056.360 552.753 C 1053.725 555.914, 1049.079 561.299, 1046.035 564.719 C 1029.653 583.126, 1025.958 589.845, 1021.960 608.500 C 1019.476 620.091, 1019.508 621.303, 1022.531 630.119 C 1026.437 641.509, 1031.020 656.966, 1032.132 662.500 C 1033.579 669.700, 1036.036 678.106, 1037.539 681 C 1038.253 682.375, 1041.178 688.225, 1044.039 694 C 1050.743 707.535, 1065.917 730.464, 1075.263 741.184 C 1084.647 751.946, 1089.403 757.763, 1091.494 761.035 C 1094.766 766.153, 1140.450 811.489, 1144.814 813.947 C 1157.731 821.223, 1156.877 821.070, 1182.828 820.772 C 1205.677 820.509, 1206.967 820.600, 1219.926 823.384 C 1231.272 825.821, 1234.650 826.168, 1241.739 825.623 C 1260.831 824.156, 1280.549 813.552, 1298.027 795.355 C 1307.441 785.553, 1313.546 777.358, 1324.747 759.489 C 1326.561 756.594, 1335 739.240, 1335 738.404 C 1335 738.013, 1336.074 735.400, 1337.386 732.596 C 1342.431 721.819, 1343.207 719.877, 1353.210 693 C 1354.336 689.975, 1356.285 685.025, 1357.541 682 C 1358.797 678.975, 1361.266 672.900, 1363.028 668.500 C 1367.123 658.275, 1376.408 639.662, 1379.431 635.618 C 1380.713 633.903, 1382.842 630.475, 1384.163 628 C 1387.294 622.131, 1391.256 615.992, 1395.500 610.433 C 1397.379 607.970, 1400.093 603.603, 1401.530 600.728 C 1402.968 597.852, 1405.159 594.375, 1406.400 593 C 1410.024 588.985, 1417.899 577.396, 1419.036 574.407 C 1419.610 572.895, 1421.637 569.538, 1423.540 566.945 C 1425.443 564.353, 1427 561.802, 1427 561.277 C 1427 559.553, 1446.009 532.563, 1449.136 529.848 C 1456.215 523.700, 1461.037 512.778, 1469.379 484 C 1472.645 472.732, 1475 453.875, 1474.998 439 C 1474.997 425.184, 1474.447 420.471, 1470.388 399.500 C 1469.537 395.100, 1468.501 389.611, 1468.087 387.303 C 1467.672 384.995, 1466.863 382.520, 1466.287 381.803 C 1465.712 381.086, 1464.492 377.800, 1463.577 374.500 C 1461.342 366.443, 1459.935 363, 1458.879 363 C 1458.395 363, 1458 362.127, 1458 361.059 C 1458 359.991, 1457.550 358.840, 1457 358.500 C 1456.450 358.160, 1456 357.240, 1456 356.456 C 1456 354.868, 1450.028 344.690, 1448.789 344.167 C 1448.355 343.983, 1448 343.224, 1448 342.478 C 1448 340.902, 1442.977 331.414, 1438.854 325.200 C 1437.284 322.835, 1436 320.518, 1436 320.052 C 1436 317.574, 1422.412 303.280, 1415.448 298.433 C 1411.164 295.450, 1406.125 291.615, 1404.251 289.910 C 1398.810 284.959, 1390.091 278, 1389.329 278 C 1388.944 278, 1387.700 277.134, 1386.564 276.075 C 1385.429 275.016, 1382.025 272.922, 1379 271.421 C 1375.975 269.921, 1373.140 268.087, 1372.700 267.346 C 1372.260 266.606, 1371.230 266, 1370.410 266 C 1369.591 266, 1367.151 265.098, 1364.989 263.994 C 1359.526 261.207, 1343.880 256.237, 1338.212 255.489 C 1335.620 255.146, 1331.250 254.439, 1328.500 253.917 C 1323.713 253.008, 1279.663 252.140, 1273.563 252.834" stroke="#aa444d" fill="#aa444d" fill-opacity="0.2" fill-rule="evenodd"/><path class="svg-region-Pl" d="M 566 425.666 C 559.055 427.848, 553.002 431.128, 551.810 433.355 C 551.216 434.465, 549.890 436.275, 548.865 437.376 C 547.839 438.476, 547 439.803, 547 440.324 C 547 440.845, 545.875 442.313, 544.500 443.588 C 543.125 444.862, 542 446.799, 542 447.893 C 542 448.987, 541.550 450.160, 541 450.500 C 539.443 451.462, 539.821 470.088, 541.551 477.688 C 542.921 483.706, 543.688 485.054, 548.129 489.250 C 551.278 492.225, 554.061 494, 555.578 494 C 556.910 494, 558 494.422, 558 494.939 C 558 496.526, 566.228 497.198, 571.390 496.033 C 580.690 493.933, 586.189 488.307, 591.248 475.714 C 595.024 466.318, 595.529 461.703, 593.986 450.718 C 592.191 437.940, 589.203 431.378, 584.290 429.424 C 582.205 428.595, 578.864 427.035, 576.864 425.958 C 572.735 423.735, 572.194 423.720, 566 425.666" stroke="#f9d3d3" fill="#f9d3d3" fill-opacity="0.2" fill-rule="evenodd"/><path class="svg-region-Pr" d="M 1188.371 416.112 C 1184.048 417.331, 1180.012 422.878, 1179.952 427.683 C 1179.908 431.190, 1179.469 431.775, 1174.549 434.889 C 1167.281 439.490, 1166.415 441.661, 1168.613 449.781 C 1169.569 453.310, 1170.946 456.426, 1171.675 456.706 C 1172.404 456.985, 1173 457.926, 1173 458.797 C 1173 460.736, 1183.916 470.994, 1186 471.013 C 1186.825 471.021, 1188.532 471.304, 1189.793 471.641 C 1191.431 472.080, 1192.002 471.863, 1191.793 470.878 C 1191.554 469.756, 1193.637 469.559, 1203 469.819 L 1214.500 470.139 1219.250 465.958 C 1221.862 463.659, 1224.003 461.040, 1224.006 460.139 C 1224.010 459.237, 1224.685 457.211, 1225.506 455.636 C 1226.362 453.996, 1227 450.128, 1227 446.586 C 1227 443.184, 1227.404 439.972, 1227.897 439.450 C 1229.168 438.104, 1230.171 430.716, 1229.261 429.400 C 1228.842 428.795, 1227.493 427.769, 1226.262 427.121 C 1225.031 426.473, 1223.768 424.926, 1223.457 423.683 C 1222.626 420.373, 1216.120 417.978, 1205.047 416.906 C 1199.796 416.397, 1194.600 415.812, 1193.500 415.606 C 1192.400 415.399, 1190.092 415.627, 1188.371 416.112" stroke="#f9d3d3" fill="#f9d3d3" fill-opacity="0.2" fill-rule="evenodd"/><path class="svg-region-OABl" d="M 610.512 443.213 C 609.419 443.847, 605.369 445.366, 601.512 446.589 L 594.500 448.813 594.495 458.657 C 594.490 467.881, 594.251 469.035, 590.701 477 C 588.618 481.675, 586.145 486.411, 585.207 487.525 C 579.934 493.783, 569.561 497.891, 562.419 496.551 L 558.891 495.889 560.446 498.895 C 562.562 502.987, 562.398 506.657, 559.983 509.249 C 557.110 512.333, 555.868 517.928, 556.207 526.268 L 556.500 533.500 562 533.194 C 565.638 532.992, 568.161 533.377, 569.454 534.330 C 571.364 535.739, 571.367 535.859, 569.580 539.822 C 568.304 542.653, 567.955 544.946, 568.422 547.436 C 569.079 550.936, 569.177 551, 573.910 551 C 577.216 551, 579.529 551.628, 581.273 553 C 582.671 554.100, 584.575 555, 585.503 555 C 586.432 555, 588.550 555.968, 590.211 557.150 L 593.231 559.301 598.366 556.576 C 609.744 550.538, 612.891 548.547, 613.406 547.058 C 615.367 541.392, 620.584 535.029, 625.983 531.719 C 629.674 529.457, 629.775 529.383, 634.402 525.568 C 635.998 524.252, 638.473 522.634, 639.902 521.971 C 641.331 521.309, 643.400 520.285, 644.500 519.696 C 647.393 518.148, 658.535 515.838, 665.500 515.343 C 668.800 515.109, 672.499 514.417, 673.721 513.805 C 676.985 512.171, 699.964 513.413, 703.874 515.435 C 705.539 516.296, 708.048 517, 709.450 517 C 711.478 517, 712 516.507, 712 514.589 C 712 512.110, 706.992 507, 704.563 507 C 703.857 507, 701.621 505.875, 699.595 504.500 C 697.569 503.125, 695.325 502, 694.609 502 C 692.695 502, 689.394 498.841, 688.565 496.218 C 686.661 490.185, 673.818 483.249, 671.500 487 C 670.164 489.162, 665.179 488.043, 662.822 485.051 L 660.500 482.103 655.055 483.886 C 652.061 484.866, 649.436 486.193, 649.222 486.834 C 648.642 488.573, 645.904 488.242, 644.392 486.250 C 643.661 485.288, 643.049 482.432, 643.032 479.905 C 642.999 475.097, 640.917 472, 637.718 472 C 635.133 472, 630.918 469.765, 627.999 466.845 C 624.213 463.059, 622.652 458.766, 623.426 454.272 C 625.333 443.212, 625.339 443.323, 622.842 442.654 C 619.135 441.662, 612.684 441.954, 610.512 443.213" stroke="#81244d" fill="#81244d" fill-opacity="0.2" fill-rule="evenodd"/><path class="svg-region-OABr" d="M 1105.871 448.204 C 1100.047 449.422, 1099.002 451.488, 1098.994 461.797 C 1098.988 471.134, 1097.610 476.539, 1094.514 479.373 C 1093.235 480.543, 1088.659 482.750, 1084.345 484.277 C 1074.017 487.934, 1071.982 489.709, 1071.512 495.474 C 1071.217 499.100, 1070.294 501.002, 1067.004 504.767 C 1062.731 509.657, 1049.011 521.989, 1047.835 521.996 C 1046.693 522.003, 1039 532.185, 1039 533.689 C 1039 534.744, 1040.505 534.330, 1044.750 532.110 C 1047.912 530.457, 1053.060 528.381, 1056.189 527.499 C 1059.318 526.616, 1063.500 524.793, 1065.483 523.447 C 1067.466 522.101, 1070.419 521, 1072.044 521 C 1074.333 521, 1075 520.549, 1075 519 C 1075 517.900, 1075.354 517, 1075.787 517 C 1076.219 517, 1078.214 514.802, 1080.219 512.116 C 1082.224 509.430, 1085.943 505.830, 1088.483 504.116 C 1092.751 501.236, 1093.742 501, 1101.585 501 C 1110.399 501, 1111.945 501.529, 1118.371 506.744 C 1119.950 508.026, 1122.723 509.693, 1124.533 510.449 C 1126.343 511.206, 1128.718 512.718, 1129.811 513.811 C 1130.903 514.903, 1133.192 516.103, 1134.898 516.478 C 1136.604 516.852, 1138 517.530, 1138 517.984 C 1138 518.438, 1139.912 519.914, 1142.250 521.264 C 1148.919 525.115, 1166.544 526.670, 1176 524.242 C 1178.475 523.607, 1184.429 522.208, 1189.230 521.135 C 1194.032 520.061, 1198.666 518.476, 1199.529 517.613 C 1200.393 516.750, 1201.643 515.697, 1202.308 515.272 C 1203.610 514.440, 1207.013 505.505, 1207.005 502.937 C 1207.002 502.077, 1205.650 500.081, 1204 498.500 C 1201.244 495.860, 1201 495.074, 1201 488.846 C 1201 482.431, 1200.812 481.878, 1197.500 478.567 C 1195.575 476.642, 1194 474.692, 1194 474.234 C 1194 473.306, 1188.193 471, 1185.858 471 C 1183.757 471, 1173 460.453, 1173 458.393 C 1173 456.832, 1171.086 456.742, 1148.689 457.245 C 1132.980 457.598, 1123.693 457.429, 1122.439 456.768 C 1121.373 456.206, 1118.572 453.778, 1116.215 451.373 C 1113.858 448.968, 1111.608 447.053, 1111.215 447.118 C 1110.822 447.183, 1108.417 447.672, 1105.871 448.204" stroke="#81244d" fill="#81244d" fill-opacity="0.2" fill-rule="evenodd"/><path class="svg-region-LBPCl" d="M 586.750 198.637 C 584.061 199.420, 584.662 201.627, 588.250 204.143 C 590.038 205.397, 594.875 209.837, 599 214.010 C 606.922 222.025, 617.239 230.056, 627.981 236.570 C 631.545 238.731, 638.090 244.100, 642.525 248.500 C 652.517 258.413, 658.917 264.170, 661.410 265.489 C 664.324 267.031, 670.524 276.649, 672.361 282.477 C 673.263 285.337, 674 289.999, 674 292.838 C 674 295.677, 674.156 298, 674.346 298 C 674.537 298, 676.133 297.282, 677.893 296.403 C 682.217 294.246, 684.532 295.048, 691 300.940 C 694.124 303.786, 697.472 305.961, 698.750 305.975 C 701.625 306.007, 701.595 305.848, 698 302 C 696.350 300.234, 695 298.355, 695 297.824 C 695 297.294, 693.650 294.898, 692 292.500 C 690.350 290.102, 689 287.050, 689 285.719 C 689 281.559, 686.789 276.643, 683.208 272.842 C 679.028 268.405, 676.271 262.508, 675.427 256.204 C 674.623 250.188, 671.171 246.035, 663.716 242.113 C 660.549 240.448, 655.155 236.940, 651.729 234.318 C 648.303 231.696, 645.050 229.208, 644.500 228.790 C 643.950 228.372, 642.094 226.906, 640.375 225.532 C 633.708 220.201, 619.527 210, 618.783 210 C 618.352 210, 618 209.142, 618 208.094 C 618 206.700, 617.479 206.324, 616.062 206.694 C 614.997 206.973, 613.096 206.481, 611.840 205.600 C 610.583 204.720, 608.530 204, 607.277 204 C 605.710 204, 605 203.410, 605 202.107 C 605 201.066, 604.371 199.973, 603.602 199.678 C 601.446 198.850, 588.716 198.064, 586.750 198.637 M 736.631 335.782 C 735.053 338.377, 733.429 342.750, 733.022 345.500 C 732.616 348.250, 731.319 352.675, 730.141 355.333 C 727.426 361.462, 727.381 364.669, 730 365.500 C 732.401 366.262, 732.631 368.544, 730.394 369.402 C 729.205 369.859, 728.964 370.730, 729.465 372.759 C 730.524 377.048, 731.708 377.623, 734.359 375.133 C 736.383 373.231, 736.835 373.127, 737.341 374.446 C 738.110 376.450, 740.862 376.435, 743.094 374.415 C 744.058 373.543, 748.988 371.775, 754.051 370.487 C 759.113 369.199, 763.612 367.775, 764.049 367.323 C 768.030 363.201, 774.231 353.855, 775.082 350.696 C 776.023 347.200, 775.895 346.517, 773.894 344.388 C 772.083 342.460, 770.642 342, 766.408 342 C 762.809 342, 759.603 341.216, 756.187 339.500 C 753.449 338.125, 750.509 337, 749.652 337 C 746.937 337, 743.060 334.765, 742.452 332.848 C 741.499 329.845, 739.685 330.759, 736.631 335.782" stroke="#daffff" fill="#daffff" fill-opacity="0.2" fill-rule="evenodd"/><path class="svg-region-LBPCr" d="M 1132.485 221.124 C 1130.293 222.292, 1127.375 224.019, 1126 224.961 C 1124.625 225.904, 1122.704 226.962, 1121.730 227.314 C 1118.859 228.350, 1107.639 236.223, 1105.861 238.448 C 1102.456 242.712, 1099.318 245.712, 1095.677 248.186 C 1092.436 250.388, 1090.496 252.814, 1084.536 262.118 C 1081.512 266.839, 1079.180 269.948, 1075.536 274.120 C 1073.316 276.661, 1069.938 281.386, 1068.029 284.620 C 1063.597 292.127, 1057.997 298.117, 1050.811 303.037 L 1045.121 306.933 1042.882 303.216 C 1041.650 301.172, 1038.896 297.475, 1036.762 295 C 1031.824 289.271, 1032.173 289.622, 1027.699 285.881 C 1022.593 281.612, 1021.414 282.984, 1023.922 290.273 C 1027.315 300.135, 1027.542 304.377, 1024.910 308.708 C 1023.643 310.794, 1022.157 312.805, 1021.610 313.178 C 1020.963 313.619, 1021.047 314.808, 1021.850 316.570 C 1022.996 319.085, 1022.767 319.689, 1018.690 324.891 C 1013.753 331.190, 1005.741 336, 1000.187 336 C 997.676 336, 996.927 336.368, 997.326 337.406 C 997.945 339.021, 995.513 341.455, 992.301 342.433 C 988.316 343.646, 988.461 346.691, 992.723 351.315 C 994.862 353.636, 997.451 356.955, 998.477 358.693 C 999.519 360.455, 1001.925 362.484, 1003.922 363.284 C 1011.813 366.443, 1014.682 367.306, 1018.757 367.744 C 1021.875 368.080, 1023.545 368.911, 1024.996 370.851 C 1029.541 376.925, 1030.315 377.196, 1034 374 C 1035.268 372.900, 1036.800 371.985, 1037.403 371.967 C 1040.519 371.872, 1042.703 368.263, 1043.456 361.968 C 1044.422 353.890, 1044.378 351.675, 1043.028 340.500 C 1041.758 329.988, 1042.398 322.689, 1045.262 315.018 C 1047.756 308.340, 1049.249 307.073, 1054.679 307.032 C 1057.199 307.013, 1059.514 306.343, 1060.514 305.344 C 1061.658 304.199, 1064.327 303.586, 1069.153 303.361 C 1075.035 303.086, 1076.919 303.432, 1081.105 305.553 C 1083.839 306.938, 1086.512 307.801, 1087.047 307.471 C 1087.581 307.141, 1088.802 308.247, 1089.759 309.929 C 1090.717 311.611, 1091.786 312.990, 1092.135 312.994 C 1092.485 312.997, 1092.710 308.604, 1092.635 303.232 C 1092.514 294.503, 1092.739 293.159, 1094.750 290.597 C 1095.987 289.020, 1097 286.886, 1097 285.854 C 1097 284.822, 1098.723 281.395, 1100.828 278.239 C 1102.934 275.082, 1105.521 271.109, 1106.578 269.408 C 1109.163 265.250, 1120.014 255.387, 1128 249.936 C 1131.575 247.496, 1135.073 244.735, 1135.772 243.799 C 1136.472 242.864, 1137.664 241.479, 1138.422 240.721 C 1140.215 238.928, 1145 226.950, 1145 224.253 C 1145 223.104, 1144.727 221.452, 1144.393 220.582 C 1143.512 218.287, 1137.276 218.571, 1132.485 221.124" stroke="#daffff" fill="#daffff" fill-opacity="0.2" fill-rule="evenodd"/><path class="svg-region-PNl" d="M 632 43 C 631.175 43.533, 629.458 43.976, 628.184 43.985 C 626.911 43.993, 622.555 45.531, 618.504 47.403 C 612.191 50.320, 610.486 51.692, 606.569 57.013 C 602.840 62.079, 602 63.998, 602 67.455 C 602 70.489, 602.596 72.230, 604.102 73.593 C 605.259 74.639, 606.902 76.846, 607.755 78.498 C 608.607 80.149, 611.247 83.975, 613.622 87 C 615.997 90.025, 619.237 94.155, 620.822 96.179 C 622.407 98.202, 626.997 102.702, 631.023 106.179 C 642.722 116.282, 657.423 130.910, 656.653 131.681 C 656.263 132.070, 653.342 131.851, 650.162 131.194 C 637.765 128.634, 625.503 130.641, 623.623 135.539 C 622.345 138.870, 623.021 144.758, 624.966 147.230 C 627.546 150.510, 630.991 151.725, 639.500 152.359 C 643.350 152.646, 649.303 153.786, 652.729 154.892 C 661.285 157.655, 674.627 166.683, 681.120 174.103 C 684.079 177.485, 687.003 180.778, 687.618 181.422 C 688.233 182.066, 689.029 183.517, 689.387 184.645 C 690.256 187.381, 693.704 188.823, 702.282 190.040 C 706.200 190.596, 712.127 191.781, 715.453 192.675 C 718.779 193.568, 725.550 194.650, 730.500 195.078 C 751.243 196.872, 753 197.540, 753 203.634 C 753 206.858, 753.483 208.188, 754.934 208.965 C 757.521 210.349, 768.035 210.278, 775.054 208.828 C 780.266 207.751, 781.077 207.838, 785.025 209.896 C 789.745 212.356, 791.881 212.183, 797.463 208.889 C 800.965 206.823, 803.093 202.583, 801.377 201.092 C 800.895 200.673, 798.391 199.555, 795.814 198.607 C 793.237 197.659, 789.463 195.560, 787.427 193.942 C 785.243 192.206, 782.530 191, 780.811 191 C 778.438 191, 777.632 190.364, 776.463 187.567 C 774.827 183.650, 771.561 181, 768.371 181 C 764.538 181, 753.584 175.477, 752.312 172.903 C 751.658 171.582, 750.379 167.800, 749.468 164.500 C 748.558 161.200, 746.926 157.668, 745.841 156.651 C 744.116 155.032, 744.048 154.595, 745.294 153.151 C 747.685 150.379, 748.102 146.801, 746.202 145.357 C 745.266 144.646, 743.802 144.049, 742.949 144.032 C 742.096 144.014, 740.462 142.088, 739.318 139.750 C 738.174 137.412, 735.470 133.475, 733.310 131 C 731.150 128.525, 728.348 124.475, 727.083 122 C 725.819 119.525, 722.246 114.217, 719.142 110.205 C 709.385 97.591, 705.081 91.564, 704.406 89.573 C 704.047 88.513, 702.663 86.488, 701.331 85.073 C 699.999 83.658, 696.501 78.861, 693.556 74.413 C 690.200 69.344, 687.139 65.871, 685.351 65.106 C 683.783 64.435, 680.745 61.669, 678.600 58.960 C 675.627 55.205, 673.845 53.883, 671.100 53.398 C 669.120 53.048, 666.150 51.495, 664.500 49.946 C 658.429 44.250, 637.115 39.694, 632 43" stroke="#bbc0d1" fill="#bbc0d1" fill-opacity="0.2" fill-rule="evenodd"/><path class="svg-region-PNr" d="M 1071 49 C 1070.175 49.533, 1068.428 49.976, 1067.118 49.985 C 1065.808 49.993, 1063.333 50.855, 1061.618 51.900 C 1059.903 52.944, 1055.705 54.574, 1052.289 55.520 C 1045.849 57.305, 1038.648 62.406, 1036.937 66.397 C 1036.441 67.554, 1034.907 70.300, 1033.528 72.500 C 1032.149 74.700, 1030.538 77.616, 1029.948 78.980 C 1029.358 80.343, 1028.550 81.693, 1028.153 81.980 C 1027.757 82.266, 1025.760 86.250, 1023.716 90.834 L 1020 99.169 1019.990 122.834 C 1019.981 145.515, 1019.883 146.708, 1017.649 151.500 C 1015.804 155.457, 1014.375 156.969, 1010.799 158.750 C 1008.314 159.988, 1005.569 161, 1004.699 161 C 1003.830 161, 1002.863 161.412, 1002.552 161.915 C 1001.851 163.050, 1006.736 169, 1008.369 169 C 1009.024 169, 1010.983 170.508, 1012.721 172.352 C 1014.937 174.700, 1017.725 176.220, 1022.038 177.430 C 1027.316 178.911, 1028.118 179.440, 1027.674 181.140 C 1027.339 182.421, 1027.747 183.335, 1028.828 183.724 C 1029.747 184.055, 1031.827 185.247, 1033.449 186.373 C 1035.071 187.498, 1038.158 188.510, 1040.310 188.621 C 1042.461 188.731, 1044.712 189.312, 1045.311 189.911 C 1047.121 191.721, 1048.443 191.156, 1049.853 187.971 C 1050.667 186.132, 1052.825 184.115, 1055.347 182.837 C 1057.631 181.679, 1059.725 180.417, 1060 180.032 C 1060.275 179.648, 1063.425 177.796, 1067 175.917 C 1070.575 174.037, 1076.961 170.181, 1081.191 167.347 C 1085.421 164.513, 1090.596 161.638, 1092.691 160.958 C 1094.786 160.278, 1097.625 158.942, 1099 157.988 C 1100.375 157.034, 1103.075 156.028, 1105 155.752 C 1108.358 155.271, 1113.138 153.757, 1117.600 151.762 C 1118.922 151.170, 1121.016 151.186, 1123.257 151.805 C 1125.214 152.346, 1130.344 152.807, 1134.658 152.830 C 1138.971 152.854, 1145.650 153.198, 1149.500 153.595 C 1158.163 154.489, 1160.899 154.493, 1164.386 153.618 C 1166.725 153.031, 1167.077 152.486, 1166.811 149.858 C 1166.540 147.186, 1165.849 146.539, 1161.500 144.894 C 1158.750 143.853, 1155.458 143.001, 1154.184 143.001 C 1152.911 143, 1150.886 142.474, 1149.685 141.831 C 1148.292 141.086, 1141.347 140.622, 1130.501 140.550 C 1121.150 140.488, 1112.884 140.055, 1112.132 139.587 C 1110.414 138.518, 1111.305 130.709, 1113.534 127.308 C 1114.371 126.030, 1116.393 121.358, 1118.028 116.924 C 1121.405 107.766, 1121.916 98.493, 1119.569 89 C 1117.874 82.147, 1114.547 74.699, 1112.376 72.897 C 1111.469 72.145, 1109.612 69.762, 1108.248 67.602 C 1101.160 56.373, 1088.212 47.989, 1078 48.016 C 1074.975 48.024, 1071.825 48.467, 1071 49" stroke="#bbc0d1" fill="#bbc0d1" fill-opacity="0.2" fill-rule="evenodd"/><path class="svg-region-ODMl" d="M 653.704 359.328 C 652.767 360.759, 652 362.610, 652 363.442 C 652 365.673, 640.379 387.487, 636.444 392.642 C 632.052 398.395, 626.089 404, 624.360 404 C 623.612 404, 623 404.408, 623 404.908 C 623 405.407, 620.779 406.384, 618.065 407.080 C 614.199 408.071, 612.999 408.870, 612.522 410.768 C 612.188 412.101, 612.313 413.711, 612.802 414.346 C 614.869 417.033, 616.193 425.299, 615.856 433.415 C 615.500 441.998, 615.501 442, 618 442.014 C 619.375 442.021, 621.554 442.309, 622.842 442.654 C 625.339 443.323, 625.333 443.212, 623.426 454.272 C 623.034 456.548, 623.284 459.272, 624.058 461.139 C 626.069 465.995, 631.787 470.942, 636.206 471.649 C 641.017 472.418, 643 475.087, 643 480.794 C 643 485.227, 644.663 488, 647.322 488 C 648.127 488, 649.029 487.367, 649.325 486.594 C 649.622 485.821, 651.358 484.893, 653.182 484.532 C 655.007 484.171, 657.795 483.375, 659.377 482.763 L 662.254 481.652 661.517 472.076 C 661.112 466.809, 660.684 460.475, 660.567 458 C 660.450 455.525, 659.374 451.605, 658.177 449.290 C 656.980 446.974, 656 444.140, 656 442.992 C 656 441.843, 655.100 439.041, 654 436.764 C 651.584 431.764, 651.479 426.787, 653.593 417.500 C 654.469 413.650, 655.578 407.350, 656.056 403.500 C 656.535 399.650, 657.445 394.331, 658.080 391.680 C 659.319 386.500, 658.747 380.484, 656.547 375.563 C 654.738 371.518, 653.941 362.978, 655.160 360.701 C 656.769 357.695, 655.536 356.533, 653.704 359.328" stroke="#999999" fill="#999999" fill-opacity="0.2" fill-rule="evenodd"/><path class="svg-region-ODMr" d="M 1107.731 352.510 C 1105.132 361.808, 1104.744 366.406, 1105.298 381.314 C 1105.772 394.056, 1105.596 397.968, 1104.418 400.914 C 1102.721 405.154, 1103.677 409.011, 1108.404 417 C 1113.458 425.540, 1119 437.401, 1119 439.677 C 1119 441.341, 1117.893 442.524, 1114.915 444.043 L 1110.831 446.127 1116.763 452.004 L 1122.695 457.881 1146.597 457.304 C 1159.744 456.987, 1170.581 456.670, 1170.681 456.599 C 1170.781 456.529, 1169.940 453.624, 1168.813 450.143 C 1167.176 445.088, 1166.989 443.321, 1167.882 441.359 C 1168.929 439.061, 1168.728 438.779, 1164.751 436.973 C 1162.413 435.912, 1159.974 435.034, 1159.331 435.022 C 1157.333 434.984, 1152.020 431.577, 1151.502 430 C 1151.231 429.175, 1148.082 425.431, 1144.505 421.681 C 1140.927 417.931, 1138 413.993, 1138 412.931 C 1138 411.869, 1137.550 411, 1137 411 C 1136.450 411, 1136 409.855, 1136 408.455 C 1136 407.055, 1133.753 402.580, 1131.008 398.511 C 1128.262 394.442, 1125.088 388.761, 1123.956 385.887 C 1122.823 383.013, 1120.966 378.600, 1119.830 376.081 C 1118.693 373.561, 1116.453 368.575, 1114.851 365 C 1108.172 350.095, 1108.329 350.370, 1107.731 352.510" stroke="#999999" fill="#999999" fill-opacity="0.2" fill-rule="evenodd"/>
    </svg>