<svg xmlns="http://www.w3.org/2000/svg" width="1785" height="1131" viewBox="0 0 1785 1131" version="1.1">
    <path class="svg-region-AAB" d="M 739.158 477 C 737.577 479.139, 736.104 480, 734.027 480 C 730.220 480, 712.209 485.996, 704.234 489.918 C 697.208 493.374, 694.247 493.696, 689.950 491.474 C 687.006 489.952, 687 489.954, 687 492.893 C 687 497.252, 687.959 498.999, 690.357 499.009 C 692.463 499.017, 700 505.275, 700 507.015 C 700 507.504, 701.913 509.226, 704.250 510.841 C 706.587 512.456, 710.165 515.403, 712.200 517.389 C 714.236 519.375, 716.373 521, 716.950 521 C 717.528 521, 718 521.352, 718 521.781 C 718 522.211, 721.487 525.324, 725.750 528.700 C 730.013 532.076, 734.408 535.662, 735.517 536.669 C 741.349 541.965, 748.648 545.475, 746.457 541.931 C 746.141 541.419, 746.769 541, 747.853 541 C 750.326 541, 756.992 531.456, 759.328 524.572 C 760.410 521.383, 761 516.414, 761 510.490 L 761 501.337 755.976 498.081 C 750.798 494.726, 747.865 490.375, 746.489 484.004 C 745.623 480.001, 742.933 474, 742.003 474 C 741.658 474, 740.378 475.350, 739.158 477 M 1009.603 476.978 C 1007.335 478.035, 1005.162 479.987, 1004.405 481.647 C 1002.452 485.929, 1000.875 487.471, 996.806 489.076 L 993.112 490.534 995.056 494.876 C 996.125 497.264, 997 500.238, 997 501.483 C 997 502.729, 997.675 505.662, 998.500 508 C 1000.546 513.800, 1000.383 518.204, 997.949 522.874 C 996.052 526.512, 995.931 528.117, 996.342 544.155 C 996.801 562.028, 997.691 566.425, 1001.030 567.298 C 1003.812 568.025, 1010.863 566.434, 1012.857 564.629 C 1013.847 563.733, 1015.605 563, 1016.764 563 C 1020.258 563, 1023.791 561.233, 1024.450 559.157 C 1024.792 558.080, 1026.121 556.936, 1027.403 556.614 C 1029.882 555.991, 1041.659 544.842, 1046.249 538.771 C 1047.761 536.771, 1049.908 534.847, 1051.020 534.494 C 1052.132 534.141, 1054.210 531.523, 1055.639 528.676 C 1057.067 525.829, 1059.788 521.587, 1061.685 519.250 C 1063.975 516.428, 1064.936 514.373, 1064.544 513.137 C 1064.123 511.811, 1065.069 510.267, 1067.835 507.768 C 1069.970 505.839, 1072.118 504.090, 1072.608 503.881 C 1074.055 503.263, 1081 495.083, 1081 493.997 C 1081 493.423, 1077.819 493, 1073.500 493 L 1066 493 1066 489.956 C 1066 488.079, 1065.521 486.991, 1064.750 487.117 C 1064.063 487.229, 1062.150 486.751, 1060.500 486.054 C 1058.850 485.358, 1052.959 484.664, 1047.408 484.514 C 1036.359 484.213, 1034.236 483.477, 1029.780 478.403 C 1026.926 475.152, 1026.497 475.004, 1020.146 475.081 C 1015.974 475.132, 1012.049 475.838, 1009.603 476.978" stroke="#7f3c1a" fill="#7f3c1a" fill-opacity="0.2" fill-rule="evenodd"/><path class="svg-region-PC" d="M 777.775 447.773 C 776.277 448.781, 773.437 451.678, 771.464 454.210 C 767.939 458.734, 764.572 460.541, 761.711 459.442 C 758.666 458.274, 755.688 470.679, 757.983 474.968 C 759.397 477.610, 767.858 483.524, 772.258 484.946 C 774.386 485.634, 778.074 488.293, 780.758 491.075 C 787.304 497.859, 789.308 497.629, 795.765 489.356 L 799 485.212 799 469.280 C 799 454.009, 798.907 453.267, 796.750 451.379 C 794.338 449.268, 789.646 447.483, 784 446.530 C 781.503 446.108, 779.719 446.465, 777.775 447.773 M 979 452.917 C 978.175 453.356, 975.925 454.537, 974 455.541 C 970.443 457.395, 969.629 458.256, 964.750 465.320 C 962.366 468.771, 962 470.271, 962 476.585 C 962 491.129, 964.261 492.968, 984.221 494.655 C 990.658 495.198, 990.989 495.118, 992.074 492.737 C 992.781 491.185, 994.691 489.762, 997.163 488.946 C 1003.482 486.861, 1005 483.790, 1005 473.096 C 1005 468.093, 1004.761 464, 1004.468 464 C 1004.175 464, 1002.320 464.675, 1000.346 465.500 C 995.060 467.708, 992.477 467.358, 988.535 463.896 C 985.495 461.227, 985 460.177, 985 456.396 C 985 452.486, 984.751 452.007, 982.750 452.059 C 981.513 452.091, 979.825 452.477, 979 452.917" stroke="#cda789" fill="#cda789" fill-opacity="0.2" fill-rule="evenodd"/><path class="svg-region-IBl" d="M 723.881 413.652 C 719.293 418.426, 715.959 420, 710.433 420 C 705.974 420, 705.464 420.310, 698.932 427 C 695.172 430.850, 691.512 434, 690.798 434 C 688.774 434, 684.372 440.139, 682.552 445.498 C 680.229 452.341, 678.170 455.766, 672.934 461.500 C 665.792 469.320, 664.518 471.646, 665.815 474.493 C 666.419 475.819, 668.395 477.635, 670.207 478.528 C 672.018 479.422, 674.879 481.729, 676.565 483.654 C 679.663 487.193, 688.881 491.834, 694.534 492.703 C 696.637 493.025, 699.861 492.095, 705.034 489.673 C 714.044 485.454, 730.351 480, 733.953 480 C 735.643 480, 737.735 478.754, 739.900 476.459 C 743.535 472.605, 748.714 469.629, 753.635 468.568 C 756.184 468.018, 757.085 467.066, 758.458 463.470 L 760.147 459.049 757.077 455.774 C 755.378 453.962, 753.043 449.607, 751.846 446.019 C 750.656 442.455, 748.713 438.775, 747.526 437.842 C 746.340 436.909, 744.536 434.200, 743.517 431.823 C 740.778 425.430, 733.446 414.706, 730.147 412.267 L 727.262 410.134 723.881 413.652" stroke="#b10e0e" fill="#b10e0e" fill-opacity="0.2" fill-rule="evenodd"/><path class="svg-region-IBr" d="M 1042.750 417.882 C 1041.237 419.334, 1040 421.079, 1040 421.761 C 1040 422.442, 1039.639 423, 1039.197 423 C 1037.940 423, 1019.545 437.928, 1019.127 439.287 C 1018.922 439.954, 1017.496 441.850, 1015.957 443.500 C 1014.418 445.150, 1011.323 450.067, 1009.080 454.426 C 1005.267 461.834, 1005 462.897, 1005 470.689 L 1005 479.027 1008.750 477.313 C 1010.813 476.371, 1015.699 475.431, 1019.609 475.226 L 1026.717 474.852 1030.201 478.922 C 1034.211 483.607, 1039.010 484.984, 1050.629 484.784 C 1055.374 484.703, 1058.523 485.199, 1060.806 486.388 C 1064.098 488.102, 1064.125 488.097, 1067.543 485.097 C 1069.430 483.440, 1072.885 481.570, 1075.220 480.941 C 1077.556 480.312, 1080.893 478.545, 1082.637 477.014 C 1084.380 475.484, 1086.369 474.044, 1087.056 473.815 C 1088.008 473.497, 1087.929 472.812, 1086.727 470.949 C 1085.859 469.602, 1084.845 466.844, 1084.476 464.819 C 1084.106 462.795, 1083.174 460.897, 1082.404 460.602 C 1081.634 460.306, 1079.889 457.688, 1078.525 454.782 C 1076.538 450.547, 1075.992 447.636, 1075.773 440.100 L 1075.500 430.700 1070.456 429.058 C 1067.682 428.155, 1063.857 426.268, 1061.956 424.864 C 1060.055 423.460, 1055.575 420.722, 1052 418.777 L 1045.500 415.243 1042.750 417.882" stroke="#b10e0e" fill="#b10e0e" fill-opacity="0.2" fill-rule="evenodd"/><path class="svg-region-LBl" d="M 792.500 354.956 C 788.100 355.296, 782.925 356.266, 781 357.112 L 777.500 358.650 781.238 361.075 C 784.324 363.078, 784.977 364.085, 784.988 366.859 C 784.998 369.595, 784.004 371.213, 779.628 375.589 C 773.761 381.457, 768.532 384.142, 759.427 385.963 C 756.167 386.615, 750.350 387.996, 746.500 389.031 C 742.650 390.066, 738.172 391.045, 736.549 391.206 C 732.693 391.590, 730.139 395.944, 728.986 404.099 L 728.114 410.271 732.341 414.498 C 734.665 416.823, 738.577 422.664, 741.034 427.478 C 743.490 432.292, 746.462 436.991, 747.638 437.921 C 748.813 438.850, 750.594 442.286, 751.594 445.555 C 754.397 454.716, 760.550 460.912, 765.336 459.393 C 766.454 459.038, 771.129 454.894, 775.725 450.183 C 783.463 442.251, 788.129 435.006, 790.422 427.363 C 790.774 426.188, 793.211 421.688, 795.837 417.363 C 802.543 406.320, 813.660 383.413, 815.062 377.750 C 815.708 375.137, 816.606 373, 817.056 373 C 818.635 373, 815.412 355.967, 813.605 354.765 C 812.378 353.949, 804.629 354.020, 792.500 354.956" stroke="#d7b230" fill="#d7b230" fill-opacity="0.2" fill-rule="evenodd"/><path class="svg-region-LBr" d="M 953.252 336.225 C 952.683 336.926, 951.431 341.100, 950.468 345.500 C 949.506 349.900, 948.107 354.388, 947.360 355.473 C 946.522 356.687, 946 360.208, 946 364.636 C 946 370.512, 946.522 372.896, 948.851 377.664 C 950.419 380.874, 952.556 385.407, 953.601 387.739 C 954.645 390.070, 955.837 391.982, 956.250 391.989 C 956.663 391.995, 957 392.906, 957 394.014 C 957 396.916, 958.862 399.842, 964.218 405.361 C 966.812 408.034, 969.228 411.184, 969.586 412.361 C 969.944 413.537, 970.807 415.175, 971.505 416 C 973.475 418.331, 979 429.122, 979 430.641 C 979 431.388, 979.450 432, 980 432 C 980.550 432, 981 432.677, 981 433.504 C 981 434.331, 981.900 436.686, 983 438.739 C 984.582 441.691, 985 444.381, 985 451.617 C 985 460.611, 985.054 460.816, 988.250 463.969 C 991.114 466.794, 992.003 467.119, 995.736 466.712 C 1001.947 466.033, 1004.273 464.005, 1008.481 455.602 C 1010.560 451.451, 1013.777 446.284, 1015.631 444.119 C 1017.484 441.953, 1019 439.795, 1019 439.321 C 1019 438.848, 1021.287 436.669, 1024.083 434.480 C 1026.879 432.291, 1030.038 429.764, 1031.104 428.865 C 1032.170 427.965, 1034.604 426.165, 1036.514 424.865 C 1038.424 423.564, 1039.989 421.970, 1039.993 421.323 C 1039.997 420.675, 1041.125 419.260, 1042.500 418.179 C 1045.026 416.192, 1045.762 413.589, 1044.090 412.556 C 1043.590 412.247, 1042.624 408.880, 1041.944 405.075 C 1041.264 401.270, 1039.536 395.992, 1038.104 393.346 C 1035.560 388.645, 1035.403 388.542, 1031.250 388.844 C 1028.691 389.030, 1027 388.725, 1027 388.076 C 1027 387.484, 1026.325 387, 1025.500 387 C 1024.675 387, 1024 386.325, 1024 385.500 C 1024 383.728, 1023.638 383.695, 1018.834 385.029 C 1014.130 386.336, 1007.617 384.928, 1004.405 381.911 C 1003.082 380.668, 1002 380.033, 1002 380.500 C 1002 381.977, 996.875 376.628, 995.293 373.500 C 994.459 371.850, 992.421 369.071, 990.764 367.324 C 988.393 364.825, 987.848 363.488, 988.206 361.051 C 988.599 358.373, 988.311 357.873, 986.080 357.367 C 981.186 356.255, 974.494 353.871, 972.337 352.471 C 971.147 351.699, 969.863 349.590, 969.483 347.784 C 968.579 343.480, 963.341 338, 960.133 338 C 958.771 338, 956.899 337.314, 955.972 336.475 C 954.620 335.251, 954.082 335.202, 953.252 336.225" stroke="#d7b230" fill="#d7b230" fill-opacity="0.2" fill-rule="evenodd"/><path class="svg-region-PP" d="M 794.142 324.720 C 792.185 325.091, 791.875 325.621, 792.324 327.834 C 792.946 330.899, 797.005 339.658, 800.512 345.500 C 803.355 350.236, 803.492 351, 801.500 351 C 800.675 351, 800 351.675, 800 352.500 C 800 353.672, 801.368 354.003, 806.250 354.015 C 809.688 354.024, 812.998 354.361, 813.606 354.765 C 814.214 355.169, 815.314 358.562, 816.050 362.305 C 817.241 368.361, 817.195 369.848, 815.631 375.805 C 813.856 382.564, 802.670 406.461, 798.233 412.975 C 796.912 414.914, 794.022 420.230, 791.811 424.790 C 788.080 432.481, 787.882 433.311, 789.060 436.290 C 789.758 438.055, 790.930 440.210, 791.665 441.079 C 792.399 441.947, 793 443.889, 793 445.393 C 793 447.205, 794.013 448.981, 796 450.653 C 798.936 453.124, 799 453.376, 799 462.442 C 799 472.395, 801.850 482.814, 805.991 488 C 809.843 492.825, 811.352 496.543, 811.368 501.250 C 811.377 503.863, 811.513 506, 811.670 506 C 811.828 506, 814.186 502.512, 816.911 498.250 C 819.636 493.988, 823.258 488.475, 824.959 486 C 826.661 483.525, 831.225 476.550, 835.103 470.500 C 838.980 464.450, 843.468 457.574, 845.076 455.221 C 846.684 452.867, 848 450.700, 848 450.404 C 848 450.108, 849.086 448.434, 850.413 446.683 C 853.686 442.366, 862.993 426.127, 863.028 424.671 C 863.113 421.158, 877.225 402.511, 881.095 400.798 C 882.633 400.117, 884.318 398.647, 884.840 397.530 C 885.785 395.507, 885.791 395.507, 886.546 397.500 C 886.962 398.600, 890.047 402.238, 893.401 405.585 C 901.245 413.412, 902.990 415.831, 903.044 418.953 C 903.100 422.180, 905.180 429.828, 906.778 432.684 C 907.450 433.886, 908 435.743, 908 436.812 C 908 437.881, 908.675 439.315, 909.500 440 C 910.325 440.685, 911 441.770, 911 442.411 C 911 443.052, 911.930 445.360, 913.067 447.539 C 914.204 449.717, 915.292 452.232, 915.486 453.127 C 915.679 454.021, 916.774 456.809, 917.919 459.322 C 919.063 461.834, 920 464.356, 920 464.924 C 920 467.370, 932.799 490.488, 937.239 496.061 C 939.832 499.316, 939.978 499.373, 939.989 497.118 C 940.003 494.037, 943.735 488, 945.626 488 C 946.430 488, 950.421 485.863, 954.494 483.250 L 961.899 478.500 961.949 473.900 C 961.998 469.494, 963.439 466.533, 969 459.419 C 970.809 457.104, 976.196 454, 978.404 454 C 979.282 454, 980 453.550, 980 453 C 980 452.450, 981.125 452, 982.500 452 C 984.850 452, 985 451.685, 984.993 446.750 C 984.989 443.194, 984.346 440.532, 983 438.500 C 981.907 436.850, 981.010 434.712, 981.007 433.750 C 981.003 432.788, 980.550 432, 980 432 C 979.450 432, 979 430.875, 979 429.500 C 979 428.125, 978.580 427, 978.067 427 C 977.554 427, 976.819 425.988, 976.434 424.750 C 975.260 420.984, 968.254 409.685, 965.117 406.500 C 961.014 402.334, 957 396.083, 957 393.860 C 957 392.837, 956.550 392, 956 392 C 955.450 392, 955 391.100, 955 390 C 955 388.900, 954.559 388, 954.019 388 C 953.480 388, 952.742 386.762, 952.381 385.250 C 952.019 383.738, 950.437 380.025, 948.864 377 C 945.292 370.130, 944.872 360.315, 947.892 354.281 C 951.086 347.898, 951.257 343.459, 948.437 340.107 C 947.097 338.515, 946 336.938, 946 336.605 C 946 335.290, 937.841 328.177, 934.968 326.987 C 932.417 325.930, 930.893 326.003, 925.611 327.433 C 922.141 328.372, 915.951 329.237, 911.856 329.356 C 906.176 329.520, 903.710 330.064, 901.455 331.649 C 892.816 337.724, 883.514 339.354, 871.886 336.832 C 868.924 336.189, 865.025 335.661, 863.222 335.658 C 861.267 335.655, 860.449 335.341, 861.194 334.880 C 862.155 334.286, 862.104 333.979, 860.972 333.553 C 857.610 332.285, 847.956 329.727, 840 327.996 C 835.325 326.978, 830.233 325.663, 828.685 325.073 C 825.983 324.043, 799.153 323.769, 794.142 324.720" stroke="#c4743d" fill="#c4743d" fill-opacity="0.2" fill-rule="evenodd"/><path class="svg-region-LPl" d="M 786.040 437.379 C 785.427 439.238, 784.042 441.557, 782.962 442.534 C 780.114 445.112, 780.511 445.898, 785.022 446.620 C 787.234 446.973, 789.286 447.654, 789.581 448.131 C 789.876 448.609, 790.766 449, 791.559 449 C 793.487 449, 793.492 442.653, 791.564 441.053 C 790.775 440.398, 789.839 438.543, 789.485 436.931 C 788.636 433.064, 787.411 433.224, 786.040 437.379 M 749.280 469.826 C 742.911 472.414, 742.375 473.266, 744.319 477.717 C 745.228 479.798, 746.382 483.422, 746.884 485.770 C 748.092 491.421, 749.871 493.958, 755.129 497.527 C 757.533 499.159, 759.831 500.946, 760.235 501.497 C 761.662 503.445, 761.042 519.520, 759.344 524.572 C 757.263 530.766, 750.559 540.334, 747.823 541.015 C 745.946 541.482, 746.160 541.926, 750.127 545.783 C 754.500 550.035, 757.850 551.516, 765.655 552.645 C 770.735 553.380, 779.840 550.737, 782.852 547.652 C 784.008 546.469, 786.531 543.888, 788.458 541.917 C 790.385 539.947, 793.116 535.897, 794.527 532.917 C 795.939 529.938, 799.537 524.125, 802.524 520 C 805.511 515.875, 808.712 511.457, 809.637 510.182 C 810.728 508.679, 811.334 505.865, 811.360 502.182 C 811.402 496.415, 810.472 494.030, 805.507 487.175 C 804.182 485.346, 802.291 481.296, 801.304 478.175 L 799.510 472.500 799.202 478.367 C 798.877 484.549, 797.558 487.433, 792.624 492.750 C 788.543 497.147, 786.088 496.898, 781.395 491.613 C 778.898 488.799, 775.168 486.170, 771 484.286 C 762.428 480.409, 757 475.310, 757 471.132 C 757 467.452, 755.675 467.228, 749.280 469.826" stroke="#d2454f" fill="#d2454f" fill-opacity="0.2" fill-rule="evenodd"/><path class="svg-region-LPr" d="M 954 483.469 C 950.425 485.926, 946.749 487.950, 945.832 487.968 C 943.636 488.010, 940.011 493.969, 939.960 497.618 L 939.920 500.500 938.382 497.662 C 937.536 496.100, 936.602 495.065, 936.306 495.361 C 935.332 496.335, 937.967 502.288, 940.003 503.715 C 941.101 504.484, 942 505.560, 942 506.105 C 942 506.650, 943.575 509.558, 945.500 512.567 C 947.425 515.577, 949 518.458, 949 518.969 C 949 519.481, 950.406 521.983, 952.124 524.529 C 953.842 527.074, 956.580 531.908, 958.209 535.270 C 959.838 538.632, 962.482 542.974, 964.085 544.919 C 965.688 546.864, 967 548.844, 967 549.319 C 967 550.637, 973.723 558.306, 976.364 560 C 977.650 560.825, 979.980 562.396, 981.542 563.490 C 983.583 564.921, 986.466 565.586, 991.789 565.854 L 999.196 566.228 997.799 563.864 C 996.734 562.060, 996.415 557.088, 996.452 542.858 C 996.495 526.179, 996.694 524.002, 998.346 522.173 C 999.815 520.548, 1000.093 519.041, 999.708 514.815 C 999.131 508.486, 996.817 498.814, 994.760 494.131 L 993.280 490.762 991.711 493.002 C 990.281 495.043, 989.581 495.190, 983.821 494.658 C 972.032 493.568, 967.028 492.416, 965.456 490.428 C 963.320 487.726, 962 484.292, 962 481.435 C 962 480.096, 961.663 479.001, 961.250 479.001 C 960.837 479.002, 957.575 481.012, 954 483.469" stroke="#d2454f" fill="#d2454f" fill-opacity="0.2" fill-rule="evenodd"/><path class="svg-region-DMl" d="M 674.458 312.489 C 674.035 315.872, 673.228 318.082, 672.284 318.445 C 671.188 318.865, 670.943 319.898, 671.378 322.261 C 671.706 324.042, 671.310 327.975, 670.499 331 C 668.641 337.928, 668.635 338.865, 670.467 336.441 C 671.274 335.374, 672.463 331.883, 673.110 328.684 C 673.757 325.485, 675.009 321.977, 675.893 320.888 C 677.293 319.163, 677.740 319.084, 679.368 320.277 C 680.855 321.367, 681.407 323.667, 682.078 331.573 C 682.541 337.033, 683.406 346, 684 351.500 C 685.223 362.833, 684.884 365.133, 681.294 369.852 C 679.891 371.695, 678.166 375.070, 677.461 377.352 C 674.017 388.495, 670.318 394.269, 664.816 397.087 C 661.086 398.997, 648 414.181, 648 416.599 C 648 418.183, 651.868 421, 654.042 421 C 654.921 421, 657.111 422.313, 658.909 423.918 C 664.001 428.465, 673.212 428.912, 683.241 425.099 C 686.731 423.772, 708.192 420, 712.253 420 C 719.288 420, 729 410.727, 729 404.008 C 729 401.990, 730.063 398.239, 731.362 395.673 C 732.661 393.107, 733.539 389.993, 733.313 388.754 C 732.798 385.928, 741.197 374.021, 746.001 370.766 C 750.232 367.900, 750.527 366.914, 748.023 364.027 C 746.911 362.744, 746 361.069, 746 360.304 C 746 358.609, 754.832 348.999, 756.387 349.002 C 756.999 349.003, 759.033 351.253, 760.907 354.002 C 763.853 358.325, 764.798 359.025, 767.907 359.183 C 774.230 359.505, 777.399 358.999, 781.739 356.976 C 784.693 355.599, 788.103 355, 792.989 355 C 798.448 355, 800 354.679, 800 353.550 C 800 352.752, 800.685 351.716, 801.522 351.248 C 802.799 350.533, 802.139 348.635, 797.423 339.448 C 794.332 333.427, 791.163 327.779, 790.381 326.898 C 789.393 325.786, 786.290 325.083, 780.229 324.598 C 770.912 323.853, 760.609 321.942, 759.401 320.734 C 758.997 320.330, 756.807 320, 754.533 320 C 752.260 320, 749.887 319.487, 749.259 318.859 C 748.411 318.011, 745.942 317.999, 739.640 318.813 C 733.990 319.542, 730.051 319.581, 727.831 318.930 C 725.999 318.393, 720.450 317.749, 715.500 317.499 C 704.692 316.953, 700.109 315.926, 696.269 313.191 C 692.197 310.292, 686.356 308.260, 680.315 307.641 L 675.130 307.110 674.458 312.489" stroke="#68533d" fill="#68533d" fill-opacity="0.2" fill-rule="evenodd"/><path class="svg-region-DMr" d="M 1085.059 308.097 C 1082.617 310.770, 1081.940 311.038, 1080.103 310.055 C 1078.330 309.106, 1077.436 309.326, 1074.738 311.371 C 1072.957 312.721, 1069.025 314.281, 1066 314.837 C 1062.975 315.393, 1058.325 316.782, 1055.667 317.924 C 1053.009 319.066, 1049.836 320, 1048.617 320 C 1047.398 320, 1045.972 320.404, 1045.450 320.898 C 1044.027 322.242, 1037.572 322.744, 1015.500 323.228 C 996.882 323.636, 995.154 323.833, 990.500 326.082 C 986.577 327.978, 983.884 328.499, 978 328.500 C 969.668 328.500, 968 329.125, 968 332.245 C 968 333.414, 967.042 335.391, 965.871 336.638 L 963.741 338.904 966.286 341.928 C 967.686 343.591, 969.133 346.328, 969.502 348.010 C 970.314 351.704, 972.615 353.321, 980.769 355.926 C 986.977 357.909, 996.344 357.871, 997.588 355.857 C 997.880 355.386, 999.420 355, 1001.012 355 C 1005.663 355, 1009.135 353, 1008.416 350.734 C 1007.898 349.104, 1008.150 348.913, 1010.026 349.508 C 1011.465 349.965, 1012.548 349.735, 1013.094 348.857 C 1013.794 347.733, 1014.301 347.724, 1016.048 348.807 C 1017.714 349.840, 1018.466 349.859, 1019.629 348.893 C 1021.352 347.463, 1022.966 348.743, 1026.382 354.250 C 1032.065 363.412, 1032.559 363.988, 1034.750 363.994 C 1036.467 363.999, 1037 364.578, 1037 366.441 C 1037 367.784, 1036.550 369.160, 1036 369.500 C 1034.748 370.273, 1034.684 374.687, 1035.913 375.446 C 1037.750 376.582, 1038.262 383.951, 1036.672 386.378 C 1035.278 388.505, 1035.350 389.012, 1037.569 392.733 C 1038.895 394.958, 1040.660 400.005, 1041.489 403.949 C 1043.587 413.919, 1044.168 414.587, 1057 421.779 C 1059.475 423.166, 1062.571 425.132, 1063.881 426.147 C 1065.190 427.162, 1068.115 428.485, 1070.381 429.086 C 1072.646 429.687, 1077.310 431.944, 1080.744 434.101 C 1087.658 438.444, 1093.205 440.697, 1106.265 444.469 C 1117.249 447.641, 1117.299 447.639, 1116.539 444.177 C 1116.140 442.359, 1116.645 439.661, 1117.960 436.594 C 1120.719 430.156, 1120.575 426.078, 1117.483 423.145 C 1115.821 421.569, 1115 419.704, 1115 417.506 C 1115 415.699, 1113.949 410.176, 1112.665 405.233 C 1110.387 396.459, 1110.374 396.161, 1112.127 392.744 C 1113.115 390.819, 1114.615 388.978, 1115.461 388.653 C 1117.513 387.866, 1117.445 382.753, 1115.330 378.700 C 1113.099 374.427, 1109.494 364.402, 1106.448 354 C 1105.079 349.325, 1103.544 344.600, 1103.037 343.500 C 1101.688 340.569, 1100.066 332.834, 1098.425 321.500 C 1096.391 307.458, 1096.251 307, 1093.981 307 C 1092.891 307, 1092 306.550, 1092 306 C 1092 303.866, 1087.750 305.150, 1085.059 308.097" stroke="#68533d" fill="#68533d" fill-opacity="0.2" fill-rule="evenodd"/><path class="svg-region-PMl" d="M 699.337 289.285 C 698.147 289.953, 695.447 292.075, 693.337 294 C 688.365 298.535, 681.978 301.583, 680.946 299.912 C 679.386 297.389, 677 299.843, 677 303.969 C 677 307.979, 677.020 308, 680.851 308 C 685.765 308, 690.428 309.584, 695.591 313.006 C 700.403 316.196, 704.759 317.212, 715.051 317.549 C 719.204 317.685, 724.368 318.284, 726.528 318.880 C 728.687 319.476, 732.850 319.682, 735.779 319.338 C 740.167 318.823, 740.982 318.430, 740.411 317.106 C 740.030 316.223, 739.156 313.475, 738.469 311 C 736.472 303.812, 733.101 294.701, 732.048 293.648 C 731.516 293.116, 729.824 292.603, 728.290 292.510 C 726.755 292.416, 720.839 291.363, 715.142 290.170 C 703.278 287.685, 702.287 287.629, 699.337 289.285" stroke="#90cf92" fill="#90cf92" fill-opacity="0.2" fill-rule="evenodd"/><path class="svg-region-PMr" d="M 1062 297.518 C 1057.550 299.259, 1053.753 299.348, 1052.130 297.750 C 1051.112 296.747, 1050.381 297.054, 1048.430 299.306 C 1047.094 300.849, 1046 302.761, 1046 303.556 C 1046 305.452, 1044.373 305.414, 1043.638 303.500 C 1042.761 301.214, 1041.002 301.712, 1040.987 304.250 C 1040.979 305.488, 1039.703 310.149, 1038.150 314.609 L 1035.328 322.717 1039.914 322.237 C 1042.436 321.973, 1044.928 321.361, 1045.450 320.878 C 1045.972 320.395, 1047.449 320, 1048.730 320 C 1050.012 320, 1053.634 318.935, 1056.780 317.633 C 1059.926 316.331, 1064.478 314.965, 1066.895 314.598 C 1072.878 313.689, 1076.630 310.757, 1079.546 304.712 C 1082.974 297.607, 1082.825 297.121, 1077.250 297.242 C 1074.638 297.298, 1070.925 297.075, 1069 296.746 C 1066.967 296.399, 1064.033 296.722, 1062 297.518" stroke="#90cf92" fill="#90cf92" fill-opacity="0.2" fill-rule="evenodd"/><path class="svg-region-PV" d="M 752.302 151.382 C 752.531 151.997, 753.290 154.101, 753.990 156.057 C 754.690 158.013, 756.441 160.363, 757.881 161.278 C 759.321 162.194, 761.393 163.518, 762.485 164.221 C 763.576 164.925, 765.064 166.287, 765.791 167.250 C 766.519 168.213, 767.543 169, 768.068 169 C 770.386 169, 777.859 173.353, 781.750 176.970 C 785.649 180.593, 786 181.330, 786 185.883 C 786 189.608, 786.582 191.552, 788.332 193.673 C 789.615 195.228, 791.512 197.963, 792.548 199.750 C 793.584 201.537, 794.939 203, 795.561 203 C 797.646 203, 800 206.629, 800 209.842 C 800 211.594, 800.404 213.809, 800.897 214.764 C 803.782 220.345, 805.183 225.135, 804.605 227.438 C 804.064 229.593, 803.391 230, 800.364 230 C 796.328 230, 796.343 229.662, 799.964 239 C 803.513 248.153, 807.023 258.829, 807.949 263.287 C 808.430 265.604, 809.566 270.650, 810.473 274.500 C 811.380 278.350, 812.934 285.325, 813.926 290 C 814.918 294.675, 817.204 304.150, 819.006 311.055 L 822.283 323.611 826.892 324.792 C 829.426 325.441, 834.650 326.629, 838.500 327.432 C 842.350 328.234, 847.469 329.590, 849.876 330.445 C 852.282 331.300, 854.982 332.003, 855.876 332.006 C 856.769 332.010, 858.850 332.725, 860.500 333.595 C 864.841 335.886, 875.490 337.963, 883 337.983 C 888.652 337.998, 890.674 337.431, 898.500 333.636 C 909.443 328.329, 921.256 325.159, 919.500 328 C 918.688 329.313, 919.018 329.282, 925.830 327.387 C 931.364 325.849, 931.818 325.865, 935.701 327.741 C 939.455 329.555, 940.267 329.604, 946.136 328.375 C 949.636 327.642, 953.565 327.032, 954.867 327.021 C 956.939 327.003, 957.151 326.658, 956.572 324.250 C 956.208 322.738, 955.557 319.899, 955.125 317.943 C 954.693 315.987, 953.588 312.880, 952.670 311.040 C 951.751 309.199, 951 307.065, 951 306.298 C 951 305.531, 950.100 303.041, 949 300.764 C 946.483 295.555, 946.465 291.591, 948.935 286.500 C 952.878 278.372, 954.304 274.432, 959.069 258.500 C 960.221 254.650, 962.211 248.800, 963.491 245.500 C 967.875 234.206, 974 216.585, 974 215.269 C 974 214.272, 973.389 214.354, 971.474 215.609 C 969.109 217.158, 968.823 217.150, 966.974 215.477 C 965.888 214.494, 965 212.626, 965 211.325 C 965 208.191, 968.787 202.329, 973.649 197.936 L 977.581 194.384 976.626 186.321 C 975.698 178.483, 975.762 178.032, 978.945 170.135 C 984.277 156.908, 983.320 156, 964.042 156 C 953.225 156, 951.278 156.422, 952.920 158.408 C 954.598 160.438, 952.752 165.164, 948.796 168.966 C 944.713 172.889, 944.473 173.589, 940.890 192 C 938.342 205.096, 937.698 207.623, 936.364 209.750 C 935.589 210.988, 934.483 212, 933.907 212 C 933.331 212, 930.808 213.412, 928.299 215.138 C 923.755 218.265, 923.708 218.273, 915.619 217.388 C 911.154 216.900, 891.975 216.469, 873 216.432 C 854.025 216.394, 837.290 216.282, 835.812 216.182 C 833.892 216.052, 832.227 214.751, 829.984 211.627 C 828.257 209.222, 825.796 206.694, 824.516 206.009 C 823.236 205.324, 821.041 202.654, 819.638 200.076 C 816.517 194.342, 815.242 193.195, 807 188.710 C 803.425 186.764, 799.150 183.517, 797.500 181.494 C 794.595 177.931, 794.489 177.433, 794.139 165.725 C 793.819 154.982, 793.979 153.488, 795.580 152.318 C 797.181 151.147, 796.942 151.005, 793.441 151.044 C 791.274 151.068, 787.475 151.510, 785 152.028 C 782.525 152.545, 777.060 153.231, 772.855 153.553 C 765.912 154.084, 765.077 153.949, 763.771 152.083 C 762.609 150.424, 761.326 150.051, 757.109 150.146 C 753.720 150.223, 752.033 150.656, 752.302 151.382" stroke="#b09658" fill="#b09658" fill-opacity="0.2" fill-rule="evenodd"/><path class="svg-region-LPVl" d="M 756.433 284.599 C 752.400 286.563, 746.039 288.618, 741.616 289.387 C 737.353 290.128, 733.364 291.236, 732.752 291.848 C 731.935 292.665, 732.204 294.228, 733.762 297.730 C 734.929 300.354, 736.387 304.300, 737.003 306.500 C 737.619 308.700, 738.769 312.312, 739.559 314.527 C 740.952 318.432, 741.115 318.542, 744.997 318.172 C 747.274 317.955, 749 318.225, 749 318.798 C 749 319.353, 751.138 320.028, 753.750 320.298 C 756.362 320.568, 761.425 321.499, 765 322.366 C 768.575 323.233, 775.325 324.242, 780 324.608 C 784.675 324.973, 789.097 325.745, 789.826 326.322 C 790.777 327.074, 791.386 326.994, 791.976 326.038 C 792.539 325.128, 796.002 324.551, 802.900 324.219 C 808.455 323.951, 813 323.613, 813 323.466 C 813 323.320, 811.538 321.679, 809.750 319.820 C 807.962 317.962, 804.599 313.754, 802.275 310.470 C 796.611 302.467, 782.570 287.793, 777 284.056 C 770.848 279.928, 765.752 280.063, 756.433 284.599" stroke="#494949" fill="#494949" fill-opacity="0.2" fill-rule="evenodd"/><path class="svg-region-LPVr" d="M 1023.308 272.970 C 1018.184 277.464, 1014.768 279.535, 1009.500 281.341 C 991.326 287.571, 991.097 287.755, 987.944 298.656 C 987.283 300.941, 984.912 305.216, 982.675 308.156 C 977.870 314.471, 970.744 327.077, 971.533 327.866 C 971.837 328.170, 975.348 328.437, 979.335 328.459 C 984.668 328.489, 987.308 328.027, 989.317 326.711 C 993.112 324.225, 1006.805 322.739, 1022.085 323.154 L 1034.840 323.500 1036.868 318.500 C 1039.521 311.958, 1042 302.044, 1042 297.974 C 1042 296.193, 1041.137 293.333, 1040.082 291.618 C 1037.006 286.618, 1032 273.212, 1032 269.974 C 1032 268.338, 1031.576 267, 1031.058 267 C 1030.539 267, 1027.052 269.687, 1023.308 272.970" stroke="#494949" fill="#494949" fill-opacity="0.2" fill-rule="evenodd"/><path class="svg-region-Fl" d="M 761 213.188 C 755.478 214.952, 753.493 215.128, 747.808 214.357 C 739.886 213.284, 740.035 213.073, 740.014 225.385 C 740 233.485, 738.179 246.106, 736.895 247.005 C 736.498 247.283, 734.785 251.007, 733.087 255.281 C 729.087 265.349, 728.859 273.230, 732.414 278.469 C 733.742 280.426, 735.132 283.821, 735.502 286.013 C 735.873 288.206, 736.729 290, 737.404 290 C 741.983 290, 751.540 287.313, 757.251 284.420 C 765.658 280.161, 769.619 280.063, 776.401 283.944 C 782.336 287.339, 805 311.360, 805 314.254 C 805 314.689, 806.857 317.060, 809.127 319.522 C 812.837 323.547, 813.708 324, 817.741 324 C 823.002 324, 822.963 324.791, 818.513 308.500 C 817.011 303, 814.957 294.675, 813.949 290 C 812.941 285.325, 811.423 278.575, 810.576 275 C 809.730 271.425, 808.562 266.025, 807.980 263 C 807.399 259.975, 806.520 256.600, 806.027 255.500 C 805.534 254.400, 803.925 249.900, 802.451 245.500 C 798.687 234.264, 796.709 230.056, 795.176 230.026 C 794.447 230.012, 791.297 227.582, 788.176 224.628 C 785.054 221.673, 780.925 218.470, 779 217.509 C 777.075 216.549, 774.068 214.692, 772.317 213.382 C 768.553 210.566, 769.178 210.576, 761 213.188" stroke="#5ca7a9" fill="#5ca7a9" fill-opacity="0.2" fill-rule="evenodd"/><path class="svg-region-Fr" d="M 981.685 156.648 C 981.328 157.005, 981.287 158.294, 981.592 159.512 C 981.919 160.813, 980.831 165.060, 978.952 169.814 C 975.985 177.322, 975.807 178.444, 976.463 185.445 C 976.851 189.593, 977.563 193.230, 978.045 193.528 C 978.527 193.825, 981.687 192.591, 985.069 190.784 C 988.450 188.978, 995.556 185.250, 1000.859 182.500 L 1010.500 177.500 1010.195 173.658 C 1010.015 171.391, 1010.528 168.844, 1011.445 167.443 C 1012.300 166.138, 1013 164.659, 1013 164.157 C 1013 162.998, 1008.674 161.284, 1003.500 160.391 C 1001.300 160.012, 997.067 158.868, 994.093 157.851 C 988.672 155.995, 982.898 155.435, 981.685 156.648 M 980 212.382 L 974.500 214.795 970.164 227.148 C 967.779 233.941, 965.254 240.850, 964.552 242.500 C 962.980 246.195, 957.906 261.406, 955.545 269.500 C 953.683 275.886, 952.062 280.053, 948.935 286.500 C 946.465 291.591, 946.483 295.555, 949 300.764 C 950.100 303.041, 951 305.799, 951 306.893 C 951 307.987, 951.388 309.122, 951.863 309.415 C 952.337 309.709, 953.298 312.098, 953.997 314.724 C 954.697 317.351, 956.152 322.325, 957.231 325.779 C 958.309 329.232, 958.938 332.719, 958.627 333.529 C 957.893 335.442, 959.344 335.391, 963.262 333.364 C 968.057 330.885, 971.340 327.143, 975.453 319.467 C 977.507 315.635, 980.188 311.375, 981.412 310 C 985.070 305.888, 987.073 302.140, 989.345 295.159 C 990.937 290.270, 992.154 288.227, 994 287.345 C 1000.802 284.095, 1008.960 281, 1010.725 281 C 1013.145 281, 1019.050 277.041, 1025.896 270.827 L 1031.045 266.154 1029.933 261.827 C 1029.322 259.447, 1028.225 252.238, 1027.496 245.806 C 1026.767 239.375, 1025.878 233.075, 1025.520 231.806 C 1024.734 229.015, 1020.426 218.645, 1018.332 214.500 L 1016.817 211.500 1006.658 211.396 C 1001.071 211.339, 994.025 210.995, 991 210.631 C 986.432 210.081, 984.568 210.378, 980 212.382" stroke="#5ca7a9" fill="#5ca7a9" fill-opacity="0.2" fill-rule="evenodd"/><path class="svg-region-PCl" d="M 683.035 169.911 C 689.977 184.243, 692.578 200.494, 689.610 211 C 684.856 227.825, 682.845 233.424, 679.912 238 C 679.383 238.825, 677.655 242.200, 676.072 245.500 C 673.301 251.276, 673.229 251.799, 674.133 259.500 C 674.803 265.203, 676.067 269.550, 678.537 274.639 C 682.027 281.835, 682.904 286, 680.929 286 C 679.544 286, 677 283.456, 677 282.071 C 677 281.482, 676.498 281, 675.883 281 C 675.168 281, 675.010 281.989, 675.442 283.750 C 675.814 285.262, 676.373 289.123, 676.685 292.330 C 677.084 296.434, 677.733 298.336, 678.876 298.757 C 679.769 299.085, 680.768 299.750, 681.095 300.235 C 681.422 300.719, 683.447 300.302, 685.595 299.308 C 690.185 297.183, 691.264 296.410, 694.699 292.783 C 699.868 287.325, 703.135 287.205, 722.240 291.770 C 728.529 293.273, 729.221 293.265, 732.595 291.656 C 736.033 290.017, 736.177 289.750, 735.530 286.216 C 735.157 284.172, 733.760 280.620, 732.426 278.322 C 729.081 272.561, 729.158 265.167, 732.654 256.261 C 734.113 252.542, 735.843 248.825, 736.497 248 C 738.174 245.886, 739.893 234.191, 740.173 223 C 740.473 210.985, 739.010 207.618, 732.756 205.934 C 730.308 205.275, 726.131 205.066, 722.841 205.439 C 717.521 206.040, 717.037 205.916, 715.328 203.503 C 714.322 202.084, 709.788 197.057, 705.250 192.331 C 700.712 187.605, 697 183.206, 697 182.556 C 697 181.906, 695.610 180.052, 693.911 178.437 C 692.212 176.822, 690.138 174.150, 689.303 172.500 C 687.820 169.572, 685.183 166.915, 681.843 164.986 C 680.596 164.266, 680.891 165.485, 683.035 169.911" stroke="#465ee0" fill="#465ee0" fill-opacity="0.2" fill-rule="evenodd"/><path class="svg-region-PCr" d="M 1059.500 193.834 C 1049.074 199.042, 1049.174 199, 1047.121 199 C 1046.072 199, 1044.955 199.675, 1044.638 200.500 C 1044.322 201.325, 1043.149 202, 1042.031 202 C 1040.914 202, 1040 202.399, 1040 202.887 C 1040 203.374, 1038.763 204.021, 1037.250 204.325 C 1027.426 206.297, 1020.255 208.463, 1018.718 209.925 C 1017.012 211.547, 1017.048 211.873, 1019.565 217.560 C 1026.146 232.433, 1025.833 231.310, 1027.440 245.744 C 1028.159 252.210, 1029.450 260.200, 1030.307 263.500 C 1031.164 266.800, 1032.123 271.075, 1032.437 273 C 1032.751 274.925, 1035.031 280.986, 1037.504 286.468 C 1039.977 291.951, 1042 297.493, 1042 298.784 C 1042 301.569, 1043.675 305, 1045.035 305 C 1045.566 305, 1046 304.350, 1046 303.556 C 1046 302.761, 1047.094 300.849, 1048.430 299.306 C 1050.381 297.054, 1051.112 296.747, 1052.130 297.750 C 1053.836 299.429, 1057.827 299.325, 1063.099 297.465 C 1066.725 296.186, 1068.237 296.132, 1072.184 297.144 C 1075.897 298.095, 1077.495 298.095, 1079.583 297.144 C 1082.070 296.011, 1082.139 295.811, 1080.623 294.136 C 1079.731 293.150, 1079 291.693, 1079 290.898 C 1079 288.518, 1084.532 274.894, 1090.056 263.671 L 1095.237 253.144 1091.551 249.349 C 1087.664 245.348, 1079.040 231.732, 1076.421 225.465 C 1075.569 223.425, 1073.698 219.899, 1072.264 217.628 C 1070.830 215.358, 1068.668 210.976, 1067.458 207.890 C 1065.571 203.078, 1065.387 201.460, 1066.164 196.508 C 1066.662 193.333, 1066.941 190.646, 1066.785 190.536 C 1066.628 190.427, 1063.350 191.911, 1059.500 193.834" stroke="#465ee0" fill="#465ee0" fill-opacity="0.2" fill-rule="evenodd"/><path class="svg-region-DV" d="M 794.265 153.752 C 794.001 154.441, 793.947 160.139, 794.147 166.415 C 794.496 177.425, 794.617 177.960, 797.596 181.663 C 799.293 183.773, 803.668 187.144, 807.316 189.153 C 814.882 193.320, 815.724 194.052, 819.254 199.522 C 820.665 201.710, 824.638 206.425, 828.083 210 L 834.346 216.500 870.923 216.500 C 891.040 216.500, 911.100 216.886, 915.500 217.357 L 923.500 218.214 929.282 214.703 C 937.551 209.681, 937.608 209.611, 938.947 202.739 C 939.616 199.308, 940.583 194.475, 941.096 192 C 941.610 189.525, 942.673 184.158, 943.459 180.073 C 944.715 173.544, 945.363 172.212, 948.813 169.059 C 952.827 165.390, 955.075 159.675, 953.230 157.830 C 952.669 157.269, 940.480 156.678, 924.379 156.431 C 909.046 156.196, 891.325 155.747, 885 155.433 C 878.675 155.119, 869.225 154.909, 864 154.965 C 858.775 155.022, 847.075 154.531, 838 153.874 C 814.921 152.203, 794.881 152.147, 794.265 153.752" stroke="#45567a" fill="#45567a" fill-opacity="0.2" fill-rule="evenodd"/><path class="svg-region-B" d="M 963.354 664.397 C 961.784 666.265, 959.375 669.700, 958 672.029 C 956.625 674.358, 952.534 678.641, 948.910 681.547 C 941.473 687.509, 934.782 694.752, 932.433 699.383 C 930.353 703.483, 928 715.790, 928 722.569 C 928 726.809, 928.852 729.728, 931.989 736.231 C 934.184 740.779, 937.221 745.882, 938.739 747.570 C 942.794 752.080, 953.573 758.197, 958.426 758.745 C 963.571 759.324, 974.187 756.715, 978.144 753.898 C 982.573 750.744, 988.331 742.176, 990.172 736 C 994.672 720.907, 995.919 715.815, 997.037 707.974 C 998.477 697.871, 998.183 694.798, 994.469 681.192 C 991.673 670.950, 991.617 670.853, 985.740 665.942 C 979.924 661.082, 979.712 661, 973.016 661 C 966.500 661, 966.084 661.146, 963.354 664.397 M 786.559 682.250 C 783.974 684.529, 782.604 690.202, 781.425 703.500 C 781.181 706.250, 780.463 713.558, 779.830 719.741 C 778.070 736.913, 778.820 739.173, 790.269 751.181 C 801.927 763.407, 805.222 765.001, 818.833 764.998 C 830.544 764.997, 834.155 763.513, 838.587 756.881 C 842.202 751.472, 844.546 740.881, 845.576 725.305 L 846.250 715.110 842.712 710.976 C 840.766 708.703, 838.572 705.607, 837.837 704.096 C 837.102 702.585, 834.956 699.113, 833.069 696.381 C 830.044 691.999, 828.610 690.979, 820.927 687.743 C 816.136 685.724, 809.177 683.587, 805.463 682.994 C 801.749 682.401, 797.905 681.484, 796.921 680.958 C 793.850 679.314, 789.237 679.889, 786.559 682.250" stroke="#e23b33" fill="#e23b33" fill-opacity="0.2" fill-rule="evenodd"/><path class="svg-region-Ol" d="M 508.666 266.645 C 508.575 266.725, 503.681 267.305, 497.791 267.933 C 487.648 269.015, 483.070 269.998, 478.500 272.073 C 476.506 272.979, 452.299 280.721, 448.500 281.668 C 442.075 283.270, 426.686 291.332, 419.938 296.632 C 416.879 299.034, 413.841 301, 413.188 301 C 412.534 301, 412 301.450, 412 302 C 412 302.550, 411.170 303, 410.155 303 C 408.181 303, 405 305.938, 405 307.761 C 405 308.368, 403.988 309.186, 402.750 309.577 C 400.552 310.272, 385.992 318.758, 385 319.921 C 384.725 320.244, 381.462 322.823, 377.750 325.652 C 361.379 338.129, 344.983 354.136, 338.471 364 C 336.110 367.575, 332.820 371.904, 331.160 373.620 C 329.500 375.336, 326.689 379.161, 324.915 382.120 C 323.140 385.079, 320.234 389.750, 318.457 392.500 C 313.125 400.752, 308.748 410.319, 301.986 428.500 C 300.964 431.250, 299.139 437.775, 297.931 443 C 296.723 448.225, 295.270 453.400, 294.701 454.500 C 294.132 455.600, 293.456 465.614, 293.198 476.754 C 292.817 493.216, 293.053 498.739, 294.460 506.254 C 296.713 518.288, 298.679 525.532, 301.067 530.610 C 302.130 532.870, 303 535.351, 303 536.124 C 303 537.826, 308.737 549.901, 310.543 552 C 311.253 552.825, 312.884 555.359, 314.167 557.631 C 317.047 562.731, 322.060 570.327, 322.989 571 C 323.369 571.275, 324.989 573.325, 326.590 575.555 C 328.190 577.785, 332.099 582.285, 335.275 585.555 C 338.451 588.825, 343.851 595.584, 347.275 600.575 C 350.699 605.566, 356.125 612.766, 359.332 616.575 C 362.540 620.384, 366.311 625.750, 367.711 628.500 C 369.112 631.250, 371.696 635.750, 373.454 638.500 C 380.833 650.045, 384.969 656.846, 388.048 662.500 C 389.845 665.800, 392.444 670.297, 393.824 672.494 C 397.309 678.041, 412.307 708.421, 414.562 714.500 C 415.582 717.250, 417.200 720.850, 418.158 722.500 C 419.116 724.150, 421.446 729.775, 423.337 735 C 441.828 786.098, 457.525 814.918, 482.419 843.476 C 494.157 856.942, 508.504 867.646, 519.119 870.856 C 520.978 871.419, 524.300 872.561, 526.500 873.396 C 531.661 875.352, 545.299 875.436, 552.765 873.556 C 555.919 872.762, 563 871.151, 568.500 869.976 C 593.659 864.601, 609.177 856.772, 629.901 839 C 639.735 830.567, 647.108 819.354, 662.286 789.750 C 663.344 787.688, 664.552 786, 664.972 786 C 665.391 786, 666.858 784.312, 668.232 782.250 C 669.606 780.188, 676.303 772.868, 683.115 765.985 C 700.532 748.384, 703.585 744.694, 712.469 730.500 C 714.534 727.200, 717.108 723.234, 718.189 721.686 C 727.055 708.991, 741.614 671.232, 749.944 639.329 C 751.404 633.737, 751.611 609.388, 750.236 605 C 749.633 603.075, 748.379 598.800, 747.451 595.500 C 745.221 587.578, 740.061 576.362, 737.250 573.327 C 736.013 571.990, 735 570.036, 735 568.984 C 735 567.931, 734.156 566.619, 733.124 566.066 C 731.213 565.044, 718 545.948, 718 544.208 C 718 542.472, 713.984 534.139, 709.459 526.485 C 707.007 522.337, 705 518.505, 705 517.971 C 705 517.437, 704.550 517, 704 517 C 703.450 517, 703 515.945, 703 514.655 C 703 513.365, 702.089 511.486, 700.976 510.479 C 699.690 509.314, 699.342 508.407, 700.022 507.987 C 701.703 506.947, 693.179 499, 690.382 499 C 689.072 499, 688 498.550, 688 498 C 688 496.670, 667.322 496.670, 666.500 498 C 666.160 498.550, 663.905 499, 661.488 499 C 655.679 499, 653.023 500.266, 643.500 507.573 C 634.214 514.699, 632.782 515.506, 627.819 516.401 C 622.637 517.335, 612.803 522.579, 603.967 529.119 C 586.528 542.024, 582.084 542.845, 579.072 533.717 C 578.395 531.667, 576.119 527.698, 574.014 524.897 C 568.290 517.278, 566.256 507.684, 567.791 495.537 C 568.428 490.493, 569.677 484.624, 570.567 482.494 C 571.754 479.652, 572.094 476.307, 571.842 469.923 C 571.533 462.069, 571.258 461.027, 569.009 459.207 C 566.630 457.282, 566.596 457.104, 568.249 455.278 C 572.796 450.252, 583.907 447, 596.526 447 C 603.399 447, 603.981 446.818, 607.640 443.523 C 609.763 441.611, 611.772 440.036, 612.104 440.023 C 612.436 440.010, 613.922 438.875, 615.405 437.500 C 616.889 436.125, 618.676 435, 619.377 435 C 620.078 435, 621.691 433.893, 622.962 432.541 L 625.272 430.081 622.886 429.132 C 621.574 428.610, 618.978 427.612, 617.117 426.915 C 615.257 426.218, 612.557 424.656, 611.117 423.445 C 609.678 422.234, 607.600 421.074, 606.500 420.869 C 602.549 420.129, 601.043 414.719, 601.691 403.597 L 602.281 393.500 607.890 385.201 C 616.645 372.251, 617.626 370.320, 619.504 362.344 C 622.193 350.926, 621.270 338.312, 617.093 329.385 C 615.335 325.628, 613.529 322.317, 613.079 322.027 C 612.630 321.737, 611.024 319.046, 609.511 316.046 C 606.535 310.147, 597.360 297.915, 593.124 294.198 C 584.881 286.967, 573.160 279.037, 563.522 274.171 C 553.835 269.281, 551.752 268.601, 545.798 268.390 C 542.088 268.258, 538.621 267.884, 538.094 267.558 C 537.298 267.066, 509.180 266.194, 508.666 266.645" stroke="#aa444d" fill="#aa444d" fill-opacity="0.2" fill-rule="evenodd"/><path class="svg-region-Or" d="M 1263 246.977 C 1259.425 247.992, 1252 249.810, 1246.500 251.016 C 1231.654 254.272, 1225.649 256.524, 1217.685 261.821 C 1213.733 264.450, 1209.328 267.181, 1207.895 267.891 C 1202.390 270.620, 1189.379 281.288, 1185.449 286.294 C 1183.188 289.175, 1180.180 292.782, 1178.766 294.308 C 1177.352 295.834, 1174.997 299.530, 1173.533 302.522 C 1172.070 305.513, 1170.485 308.200, 1170.013 308.492 C 1169.540 308.784, 1168.842 310.480, 1168.461 312.261 C 1168.081 314.043, 1167.424 315.950, 1167.001 316.500 C 1166.579 317.050, 1164.748 322.153, 1162.933 327.840 L 1159.632 338.181 1160.750 357.140 C 1161.804 375.019, 1162.025 376.367, 1164.626 380.799 C 1167.916 386.407, 1168.642 391.215, 1166.519 393.338 C 1165.683 394.174, 1165 395.283, 1165 395.804 C 1165 396.324, 1163.643 397.021, 1161.983 397.353 C 1157.484 398.253, 1154.967 406.313, 1158.750 407.708 C 1161.465 408.710, 1162.043 410.295, 1160.370 412.144 C 1159.225 413.409, 1159.100 414.318, 1159.873 415.762 C 1161.319 418.464, 1158.956 421.533, 1154.247 423.069 C 1152.186 423.741, 1149.427 425.125, 1148.115 426.145 C 1146.803 427.165, 1145.186 428, 1144.520 428 C 1143.855 428, 1142.522 428.871, 1141.558 429.936 C 1139.870 431.801, 1139.964 432.035, 1144.153 436.403 C 1150.931 443.469, 1160.358 447.439, 1176.432 449.994 C 1184.471 451.273, 1192.145 456.108, 1193.837 460.961 C 1195.012 464.334, 1200.904 467.761, 1207.344 468.819 C 1211.049 469.427, 1211.752 470.009, 1213.822 474.179 C 1215.331 477.221, 1216.340 481.460, 1216.706 486.294 C 1217.196 492.777, 1217.019 493.981, 1215.327 495.673 C 1213.319 497.681, 1198.275 503.280, 1191.851 504.411 C 1189.844 504.764, 1186.746 505.779, 1184.966 506.667 C 1183.187 507.554, 1178.642 508.767, 1174.866 509.362 C 1171.090 509.956, 1168 510.793, 1168 511.221 C 1168 512.324, 1145.238 512.194, 1144.554 511.087 C 1144.243 510.585, 1142.192 509.870, 1139.995 509.499 C 1137.798 509.128, 1136 508.463, 1136 508.021 C 1136 507.578, 1134.979 506.960, 1133.730 506.647 C 1132.482 506.334, 1130.569 505.272, 1129.480 504.289 C 1125.428 500.628, 1118.123 498.990, 1105.875 498.995 C 1092.625 499.001, 1088.918 499.542, 1086.260 501.861 C 1083.202 504.530, 1078.010 507, 1075.459 507 C 1070.553 507, 1063.907 518.062, 1057.948 536.143 C 1055.320 544.115, 1055.179 545.299, 1056.127 551.385 C 1057.075 557.478, 1056.966 558.387, 1054.699 563.242 C 1053.349 566.134, 1049.727 571.650, 1046.651 575.500 C 1033.885 591.477, 1028.795 600.660, 1024.555 615.362 C 1022.403 622.827, 1022 626.264, 1022 637.174 C 1022 651.490, 1023.029 656.062, 1028.634 666.663 C 1031.516 672.114, 1031.761 673.172, 1030.758 675.829 C 1029.896 678.114, 1029.927 679.989, 1030.890 683.666 C 1031.585 686.325, 1032.394 689.967, 1032.688 691.759 C 1032.981 693.552, 1033.621 695.266, 1034.110 695.568 C 1034.600 695.871, 1035 697.688, 1035 699.606 C 1035 702.211, 1037.630 707.650, 1045.395 721.100 C 1051.112 731.004, 1057.524 741.092, 1059.645 743.518 C 1061.765 745.943, 1064.744 749.632, 1066.264 751.714 C 1081.359 772.388, 1097.999 790.342, 1106.986 795.651 C 1108.644 796.630, 1110 797.784, 1110 798.216 C 1110 798.647, 1110.675 799, 1111.500 799 C 1112.325 799, 1113 799.406, 1113 799.901 C 1113 801.943, 1138.231 816.142, 1150 820.723 C 1155.307 822.788, 1166.620 825.958, 1175 827.726 C 1180.180 828.820, 1187.914 829.314, 1200 829.325 C 1215.681 829.338, 1218.591 829.064, 1228 826.679 C 1238.605 823.992, 1249.743 820.004, 1258 815.938 C 1270.887 809.593, 1290.452 793.248, 1299.822 781 C 1301.295 779.075, 1303.016 777.050, 1303.648 776.500 C 1305.341 775.024, 1321.083 751.455, 1325.020 744.500 C 1326.889 741.200, 1329.421 737.015, 1330.647 735.201 C 1331.874 733.386, 1333.415 730.236, 1334.072 728.201 C 1334.729 726.165, 1337.635 719.491, 1340.529 713.368 C 1343.422 707.246, 1346.121 701.171, 1346.525 699.868 C 1346.929 698.566, 1348.483 695.250, 1349.979 692.500 C 1351.476 689.750, 1353.951 683.900, 1355.480 679.500 C 1357.010 675.100, 1359.527 669.025, 1361.075 666 C 1362.623 662.975, 1365.152 657.576, 1366.695 654.002 C 1370.362 645.506, 1382.830 620.925, 1384.448 619 C 1385.141 618.175, 1387.003 615.025, 1388.584 612 C 1391.188 607.020, 1396.022 599.457, 1411.912 575.500 C 1414.831 571.100, 1418.069 566.375, 1419.109 565 C 1420.148 563.625, 1423.069 559.350, 1425.601 555.500 C 1428.132 551.650, 1431.103 547.219, 1432.203 545.654 C 1434.758 542.016, 1444 526.032, 1444 525.250 C 1444 524.924, 1444.622 523.947, 1445.382 523.079 C 1446.899 521.345, 1451.025 513.340, 1455.989 502.500 C 1457.753 498.650, 1459.601 494.719, 1460.098 493.764 C 1460.594 492.809, 1461 491.560, 1461 490.989 C 1461 490.419, 1462.488 487.789, 1464.307 485.145 C 1472.705 472.935, 1478.162 421.543, 1472.604 407 C 1471.658 404.525, 1469.526 397.100, 1467.867 390.500 C 1464.929 378.811, 1461.170 371.180, 1452.844 360 C 1451.820 358.625, 1449.687 355.025, 1448.105 352 C 1442.867 341.984, 1441.457 339.575, 1435.726 330.836 C 1429.917 321.980, 1420.282 311.233, 1416.250 309.113 C 1415.013 308.462, 1414 307.362, 1414 306.668 C 1414 305.974, 1412.636 304.302, 1410.969 302.953 C 1406.589 299.409, 1406.370 299.192, 1396.543 288.628 C 1391.617 283.333, 1387.286 279, 1386.919 279 C 1386.552 279, 1384.518 277.412, 1382.400 275.472 C 1378.372 271.783, 1345.823 254.997, 1342.700 254.999 C 1341.711 254.999, 1339.587 254.320, 1337.981 253.490 C 1336.374 252.659, 1334.709 252.080, 1334.280 252.202 C 1333.851 252.325, 1332.545 251.894, 1331.377 251.245 C 1321.576 245.799, 1276.956 243.014, 1263 246.977" stroke="#aa444d" fill="#aa444d" fill-opacity="0.2" fill-rule="evenodd"/><path class="svg-region-OABl" d="M 632 428 C 631.175 428.533, 629.458 428.976, 628.185 428.985 C 626.855 428.993, 624.798 430.275, 623.347 432 C 621.958 433.650, 620.210 435, 619.463 435 C 618.715 435, 616.889 436.125, 615.405 437.500 C 613.922 438.875, 612.390 440, 612.002 440 C 611.614 440, 609.767 441.462, 607.898 443.250 C 604.593 446.411, 604.198 446.517, 593.473 447.105 C 583.608 447.646, 576.380 449.137, 573.500 451.225 C 572.950 451.624, 571.173 453.028, 569.551 454.345 L 566.602 456.739 569.301 459.946 C 571.728 462.830, 572 463.939, 572 470.955 C 572 475.621, 571.398 480.196, 570.502 482.340 C 569.679 484.312, 568.471 490.151, 567.818 495.316 C 566.770 503.619, 566.845 505.623, 568.470 512.604 C 569.732 518.032, 571.191 521.520, 573.134 523.763 C 574.690 525.558, 576.886 529.158, 578.015 531.763 C 581.169 539.040, 581.514 539.478, 584.361 539.817 C 587.693 540.215, 601.219 532.296, 609.500 525.100 C 612.317 522.652, 624.087 517.126, 628.121 516.358 C 633.066 515.416, 636.414 513.498, 644.377 507.045 C 652.021 500.849, 656.093 499, 662.090 499 C 664.176 499, 666.160 498.550, 666.500 498 C 666.845 497.442, 671.510 497, 677.059 497 L 687 497 687 493.475 C 687 490.533, 686.546 489.789, 684.250 488.976 C 679.803 487.400, 678.576 486.471, 677.178 483.621 C 676.398 482.032, 674.233 480.277, 671.901 479.344 C 669.726 478.473, 667.302 476.842, 666.515 475.718 C 665.085 473.676, 665.083 473.676, 663.208 475.991 C 661.769 477.768, 660.035 478.416, 655.765 478.770 C 650.750 479.185, 650.045 478.997, 648.664 476.866 C 647.821 475.565, 646.552 470.788, 645.845 466.250 C 645.137 461.712, 644.135 458, 643.618 458 C 642.135 458, 636.988 451.800, 636.345 449.239 C 635.719 446.745, 637.715 438.294, 639.137 437.415 C 639.612 437.122, 640 435.359, 640 433.498 C 640 428.671, 635.619 425.661, 632 428" stroke="#81244d" fill="#81244d" fill-opacity="0.2" fill-rule="evenodd"/><path class="svg-region-OABr" d="M 1120 429.770 C 1120 430.857, 1119.069 433.850, 1117.931 436.422 C 1116.494 439.672, 1116.070 442.041, 1116.541 444.187 C 1117.198 447.178, 1117.130 447.253, 1114.360 446.577 C 1112.787 446.193, 1110.263 445.630, 1108.750 445.326 L 1106 444.773 1105.968 457.137 C 1105.928 472.905, 1105.864 473, 1095.320 473 C 1087.668 473, 1087.202 473.136, 1083.271 476.500 C 1081.022 478.425, 1078.554 480, 1077.787 480 C 1077.020 480, 1074.054 481.165, 1071.196 482.589 C 1066.262 485.048, 1066 485.376, 1066 489.089 L 1066 493 1073.500 493 C 1077.625 493, 1080.998 493.337, 1080.995 493.750 C 1080.993 494.163, 1079.406 496.300, 1077.469 498.500 C 1072.336 504.331, 1072.433 504.237, 1068.088 507.500 C 1063.734 510.769, 1063.206 512.096, 1065.500 514 C 1066.325 514.685, 1067.002 514.852, 1067.005 514.372 C 1067.014 512.550, 1073.194 507, 1075.215 507 C 1077.808 507, 1085 503.918, 1085 502.808 C 1085 502.363, 1085.638 502, 1086.417 502 C 1087.196 502, 1088.021 501.438, 1088.251 500.750 C 1088.562 499.818, 1092.722 499.507, 1104.584 499.526 C 1121.676 499.554, 1121.876 499.600, 1132 505.848 C 1139.525 510.492, 1145.761 512, 1157.438 512 C 1163.247 512, 1168 511.650, 1168 511.221 C 1168 510.793, 1171.090 509.956, 1174.866 509.362 C 1178.642 508.767, 1183.254 507.519, 1185.116 506.589 C 1186.977 505.659, 1190.525 504.634, 1193 504.311 C 1195.475 503.988, 1197.950 503.396, 1198.500 502.995 C 1199.050 502.594, 1202.447 501.300, 1206.048 500.119 C 1216.999 496.528, 1217.360 496.078, 1216.725 486.822 C 1216.356 481.430, 1215.446 477.454, 1213.843 474.223 C 1211.766 470.036, 1211.040 469.426, 1207.445 468.836 C 1201.529 467.866, 1195.007 464.154, 1193.865 461.108 C 1191.989 456.104, 1183.113 450, 1177.712 450 C 1173.022 450, 1160.702 446.904, 1157.382 444.891 C 1155.667 443.851, 1153.565 443, 1152.710 443 C 1151.855 443, 1147.858 439.757, 1143.828 435.792 L 1136.500 428.585 1128.250 428.190 C 1120.567 427.822, 1120 427.931, 1120 429.770" stroke="#81244d" fill="#81244d" fill-opacity="0.2" fill-rule="evenodd"/><path class="svg-region-LBPCl" d="M 568.595 173.168 C 566.593 176.026, 566.569 179.036, 568.520 182.669 C 569.356 184.226, 570.470 186.738, 570.995 188.250 C 571.521 189.762, 572.559 191, 573.303 191 C 574.046 191, 575.745 193.363, 577.077 196.250 C 578.848 200.088, 580.127 201.589, 581.831 201.830 C 583.216 202.026, 584.981 203.548, 586.180 205.580 C 587.290 207.461, 588.639 209, 589.178 209 C 589.717 209, 592.228 211.071, 594.759 213.601 C 597.290 216.132, 601.192 219.353, 603.430 220.760 C 605.669 222.167, 608.088 224.147, 608.807 225.159 C 609.525 226.172, 610.583 227, 611.157 227 C 611.731 227, 619.411 232.192, 628.224 238.538 C 637.037 244.884, 645.698 250.683, 647.471 251.424 C 649.244 252.164, 651.671 254.349, 652.863 256.278 C 654.055 258.208, 656.487 260.899, 658.266 262.258 C 660.044 263.617, 665.550 269.514, 670.500 275.361 C 675.450 281.209, 680.063 285.995, 680.750 285.997 C 682.909 286.002, 682.124 282.033, 678.504 274.639 C 675.902 269.325, 674.839 265.606, 674.346 260.092 C 673.912 255.246, 673.133 252.198, 672.092 251.279 C 669.186 248.717, 662.932 245, 661.525 245 C 660.763 245, 659.995 243.992, 659.820 242.760 C 659.644 241.528, 658.776 240.383, 657.892 240.214 C 657.007 240.046, 653.182 237.012, 649.392 233.472 C 645.601 229.933, 642.274 227.028, 641.997 227.018 C 641.720 227.008, 638.328 223.963, 634.458 220.250 C 630.588 216.537, 624.739 211.925, 621.461 210 C 617.402 207.617, 615.398 205.782, 615.180 204.250 C 615.005 203.012, 614.330 201.993, 613.680 201.985 C 613.031 201.977, 608.450 198.610, 603.500 194.503 C 598.550 190.396, 592.158 185.790, 589.295 184.268 C 585.693 182.353, 583.074 179.960, 580.795 176.500 C 577.960 172.198, 576.989 171.457, 573.845 171.195 C 570.969 170.956, 569.850 171.376, 568.595 173.168 M 751.162 353.074 C 745.851 358.385, 745.240 360.481, 747.942 364.136 C 750.361 367.408, 750.056 368.387, 745.812 370.968 C 741.993 373.291, 733 385.752, 733 388.723 C 733 390.638, 733.531 391, 736.341 391 C 738.179 391, 741.861 390.344, 744.524 389.543 C 747.188 388.741, 753.222 387.331, 757.933 386.408 C 768.493 384.341, 772.844 382.207, 779.677 375.745 C 784.269 371.401, 785 370.194, 785 366.954 C 785 363.690, 784.520 362.915, 781.341 361.039 C 779.322 359.847, 776.297 358.972, 774.591 359.085 C 765.585 359.684, 764.764 359.318, 760 352.587 C 758.625 350.645, 756.990 349.043, 756.368 349.028 C 755.745 349.012, 753.402 350.833, 751.162 353.074" stroke="#daffff" fill="#daffff" fill-opacity="0.2" fill-rule="evenodd"/><path class="svg-region-LBPCr" d="M 1147.001 212.123 C 1145.626 212.672, 1143.601 213.941, 1142.501 214.945 C 1141.400 215.949, 1139.487 217.077, 1138.250 217.452 C 1137.013 217.828, 1136 218.554, 1136 219.067 C 1136 219.580, 1135.516 220, 1134.924 220 C 1133.619 220, 1123.016 227.912, 1117.500 233.001 C 1115.300 235.031, 1111.812 237.698, 1109.749 238.928 C 1107.686 240.158, 1105.436 241.933, 1104.749 242.874 C 1104.062 243.814, 1101.588 246.103, 1099.250 247.959 C 1096.912 249.816, 1095 251.867, 1095 252.517 C 1095 253.167, 1093.431 256.654, 1091.514 260.267 C 1087.056 268.668, 1078.990 288.326, 1079.032 290.690 C 1079.049 291.685, 1079.724 293.374, 1080.532 294.441 C 1082.458 296.988, 1082.386 298.297, 1080.058 303.117 C 1077.978 307.421, 1078.180 309.471, 1080.781 310.469 C 1081.838 310.875, 1083.402 310.028, 1085.254 308.047 C 1087.984 305.126, 1092 303.907, 1092 306 C 1092 306.550, 1093.016 307, 1094.257 307 C 1096.439 307, 1096.503 306.736, 1096.159 299.161 C 1095.792 291.085, 1096.010 290.323, 1101.825 279.334 C 1104.084 275.065, 1110.741 268, 1112.505 268 C 1113.289 268, 1114.411 267.100, 1115 266 C 1115.589 264.900, 1116.752 264, 1117.586 264 C 1118.420 264, 1119.757 262.433, 1120.557 260.518 C 1121.479 258.312, 1122.908 256.810, 1124.453 256.422 C 1125.796 256.085, 1127.664 254.615, 1128.605 253.155 C 1129.545 251.695, 1130.919 250.140, 1131.657 249.700 C 1132.396 249.260, 1133 248.493, 1133 247.996 C 1133 246.661, 1137.300 242.595, 1141.378 240.075 C 1147.125 236.523, 1154.700 224.470, 1155.680 217.316 C 1156.514 211.231, 1153.604 209.490, 1147.001 212.123 M 1008.235 349.757 C 1008.973 352.620, 1005.841 355, 1001.337 355 C 999.566 355, 997.840 355.450, 997.500 356 C 997.160 356.550, 995.424 357, 993.641 357 C 991.858 357, 989.860 357.540, 989.200 358.200 C 987.160 360.240, 987.828 364.491, 990.595 367.076 C 992.022 368.409, 993.874 370.850, 994.709 372.500 C 996.461 375.960, 1000.950 381, 1002.279 381 C 1002.777 381, 1004.300 381.877, 1005.663 382.949 C 1008.831 385.442, 1015.650 386.471, 1019.435 385.028 C 1021.845 384.109, 1022.524 384.185, 1023.234 385.454 C 1023.710 386.305, 1024.752 387, 1025.550 387 C 1026.347 387, 1027 387.450, 1027 388 C 1027 389.920, 1033.924 389.076, 1036.110 386.890 C 1037.855 385.145, 1038.106 384.062, 1037.559 380.640 C 1037.195 378.363, 1036.471 376.072, 1035.949 375.550 C 1034.698 374.297, 1034.732 370.284, 1036 369.500 C 1036.550 369.160, 1037 367.784, 1037 366.441 C 1037 364.588, 1036.458 363.991, 1034.750 363.961 C 1032.318 363.920, 1029.421 360.378, 1025.941 353.191 C 1023.644 348.447, 1021.714 347.162, 1019.566 348.946 C 1018.487 349.841, 1017.689 349.823, 1016.160 348.868 C 1014.553 347.864, 1013.853 347.877, 1012.581 348.933 C 1011.273 350.018, 1010.711 350.008, 1009.327 348.872 C 1007.836 347.650, 1007.717 347.746, 1008.235 349.757" stroke="#daffff" fill="#daffff" fill-opacity="0.2" fill-rule="evenodd"/><path class="svg-region-PNl" d="M 653 40.476 C 651.075 41.231, 648.375 41.888, 647 41.937 C 644.820 42.015, 633.674 45.701, 624.500 49.378 C 617.160 52.320, 612.841 55.292, 610.487 59.021 C 609.105 61.209, 607.575 63, 607.086 63 C 606.597 63, 605.220 64.656, 604.026 66.680 C 601.313 71.278, 602.321 73.671, 608.722 77.835 C 616.267 82.743, 625.756 92.785, 628.597 98.869 C 630.043 101.966, 632.022 105.400, 632.995 106.500 C 633.968 107.600, 635.829 110.525, 637.132 113 C 638.434 115.475, 640.303 118.625, 641.284 120 C 642.265 121.375, 646.270 127.440, 650.184 133.478 C 656.809 143.697, 666.374 154.493, 671.910 158 C 673.213 158.825, 675.453 160.415, 676.889 161.532 C 678.325 162.650, 681.218 164.675, 683.318 166.032 C 685.418 167.390, 687.979 170.075, 689.010 172 C 690.040 173.925, 692.259 176.938, 693.941 178.696 C 695.624 180.453, 697 182.351, 697 182.912 C 697 183.473, 700.712 187.746, 705.250 192.406 C 709.788 197.067, 714.322 202.051, 715.328 203.481 C 717.041 205.920, 717.509 206.042, 722.841 205.439 C 730.639 204.556, 736.563 206.255, 738.456 209.916 C 740.196 213.280, 741.519 213.878, 748.917 214.644 C 753.112 215.078, 756.319 214.668, 761.812 212.995 L 769.124 210.768 771.312 212.791 C 772.515 213.904, 775.525 215.855, 778 217.127 C 780.475 218.399, 784.962 221.835, 787.971 224.763 C 793.382 230.028, 793.503 230.083, 798.971 229.793 C 803.864 229.534, 804.537 229.237, 804.824 227.215 C 805.002 225.959, 803.990 221.899, 802.574 218.194 C 801.158 214.489, 800 210.299, 800 208.884 C 800 206.275, 797.313 203, 795.171 203 C 794.527 203, 794 202.595, 794 202.100 C 794 201.606, 792.200 198.805, 790 195.877 C 786.627 191.388, 786 189.801, 786 185.750 C 786 181.311, 785.638 180.606, 781.250 176.483 C 778.638 174.029, 774.475 171.277, 772 170.367 C 769.525 169.457, 766.824 167.990, 765.998 167.107 C 765.171 166.223, 762.509 164.150, 760.081 162.500 C 757.203 160.543, 755.001 157.993, 753.750 155.166 C 752.695 152.782, 751.038 150.038, 750.068 149.068 C 749.098 148.098, 748.068 145.543, 747.779 143.390 C 747.490 141.238, 746.143 136.557, 744.786 132.988 C 743.428 129.420, 741.543 123.350, 740.596 119.500 C 738.214 109.808, 733.024 99.980, 725.971 91.807 C 722.687 88, 720 84.486, 720 83.996 C 720 83.507, 716.513 79.536, 712.250 75.172 C 707.987 70.808, 700.225 62.781, 695 57.335 C 684.766 46.667, 681.089 44.610, 666.531 41.405 C 663.214 40.675, 659.600 39.859, 658.500 39.591 C 657.400 39.324, 654.925 39.722, 653 40.476" stroke="#bbc0d1" fill="#bbc0d1" fill-opacity="0.2" fill-rule="evenodd"/><path class="svg-region-PNr" d="M 1044.500 53.715 C 1043.400 53.980, 1041.150 54.817, 1039.500 55.574 C 1037.850 56.330, 1034.700 57.580, 1032.500 58.350 C 1024.583 61.121, 1015.045 72.566, 1012.496 82.355 C 1010.743 89.083, 1011.369 102.705, 1013.638 107.200 C 1014.387 108.686, 1015.016 112.061, 1015.036 114.700 C 1015.055 117.340, 1015.723 122.200, 1016.520 125.500 C 1017.325 128.836, 1017.976 136.378, 1017.984 142.486 C 1018.001 153.883, 1017.667 155.125, 1011.337 167.231 C 1010.551 168.734, 1010.042 171.656, 1010.204 173.726 L 1010.500 177.489 1000 182.854 C 994.225 185.804, 986.956 189.494, 983.847 191.054 C 977.275 194.351, 971.819 198.897, 967.828 204.400 C 964.486 209.009, 964.211 212.976, 967.056 215.551 C 968.747 217.081, 969.454 217.198, 971.037 216.209 C 972.095 215.548, 976.361 213.833, 980.516 212.398 C 986.150 210.453, 989.015 209.967, 991.785 210.486 C 993.828 210.870, 999.689 211.399, 1004.809 211.662 C 1012.833 212.074, 1014.661 211.857, 1018.046 210.093 C 1021.569 208.257, 1029.693 205.813, 1037.250 204.317 C 1038.763 204.018, 1040 203.374, 1040 202.887 C 1040 202.399, 1040.752 202, 1041.671 202 C 1042.590 202, 1044.053 201.405, 1044.921 200.678 C 1045.790 199.950, 1048.525 198.736, 1051 197.978 C 1053.475 197.221, 1057.179 195.566, 1059.230 194.300 C 1061.282 193.035, 1063.391 192, 1063.917 192 C 1065.078 192, 1075.940 179.928, 1079.364 174.832 C 1080.719 172.815, 1082.626 169.440, 1083.600 167.332 C 1084.575 165.224, 1086.447 162.150, 1087.761 160.500 C 1089.074 158.850, 1092.810 153.675, 1096.064 149 C 1099.317 144.325, 1102.877 139.375, 1103.976 138 C 1105.074 136.625, 1105.979 134.768, 1105.987 133.872 C 1105.994 132.977, 1106.708 131.657, 1107.573 130.939 C 1108.438 130.221, 1110.565 126.679, 1112.299 123.067 C 1115.293 116.833, 1115.454 115.889, 1115.476 104.455 C 1115.495 94.770, 1115.167 91.901, 1113.798 89.814 C 1112.863 88.386, 1111.146 84.275, 1109.984 80.677 C 1108.357 75.641, 1106.854 73.199, 1103.457 70.068 C 1101.030 67.830, 1098.627 66, 1098.117 66 C 1097.607 66, 1095.304 64.425, 1093 62.500 C 1089.728 59.766, 1087.924 59, 1084.763 59 C 1080.519 59, 1067.182 55.465, 1065.550 53.907 C 1064.584 52.984, 1048.148 52.834, 1044.500 53.715" stroke="#bbc0d1" fill="#bbc0d1" fill-opacity="0.2" fill-rule="evenodd"/><path class="svg-region-ODMl" d="M 675.510 320.720 C 675.111 321.699, 674.170 324.750, 673.421 327.500 C 672.672 330.250, 670.225 337.900, 667.985 344.500 C 665.744 351.100, 663.082 359.425, 662.068 363 C 661.055 366.575, 658.553 374, 656.508 379.500 C 653.135 388.576, 651.770 393.007, 648.897 404.205 C 648.374 406.243, 646.901 409.168, 645.623 410.705 C 644.345 412.242, 642.063 415.750, 640.550 418.500 C 639.038 421.250, 637.058 424.353, 636.151 425.396 C 634.905 426.827, 634.811 427.401, 635.768 427.735 C 637.933 428.492, 640 431.058, 640 432.989 C 640 434.004, 639.100 436.934, 638 439.500 C 636.900 442.066, 636 445.412, 636 446.935 C 636 450.313, 639.742 456.142, 642.775 457.487 C 644.337 458.180, 645.019 459.372, 645.064 461.487 C 645.167 466.328, 647.382 475.552, 648.872 477.347 C 651.517 480.533, 662.138 478.889, 664.036 475 C 664.439 474.175, 665.383 472.176, 666.134 470.557 C 666.885 468.938, 669.800 465.113, 672.612 462.057 C 677.996 456.204, 680.993 451.125, 682.973 444.498 C 684.066 440.836, 689.055 434, 690.633 434 C 691.893 434, 699.912 426.932, 702.037 423.948 L 704.173 420.949 699.836 421.593 C 694.052 422.451, 684.752 424.541, 678 426.499 C 670.288 428.735, 663.246 427.791, 658.936 423.942 C 657.123 422.324, 654.921 421, 654.042 421 C 651.784 421, 648 418.157, 648 416.461 C 648 415.676, 649.110 413.789, 650.466 412.267 C 651.823 410.745, 654.791 407.097, 657.061 404.159 C 659.332 401.222, 662.695 398.190, 664.535 397.421 C 669.580 395.313, 675.307 386.504, 677.425 377.596 C 677.805 376, 679.413 372.806, 681 370.500 C 684.958 364.747, 685.239 362.969, 683.995 351.500 C 683.399 346, 682.545 336.876, 682.097 331.224 C 681.649 325.573, 681.106 320.791, 680.891 320.599 C 680.676 320.406, 679.541 319.954, 678.368 319.594 C 676.852 319.129, 676.027 319.454, 675.510 320.720" stroke="#999999" fill="#999999" fill-opacity="0.2" fill-rule="evenodd"/><path class="svg-region-ODMr" d="M 1117.011 385.281 C 1117.005 386.811, 1116.334 388.318, 1115.520 388.631 C 1114.706 388.943, 1113.163 390.618, 1112.090 392.354 C 1110.142 395.507, 1110.142 395.518, 1112.570 404.865 C 1113.906 410.011, 1115 415.768, 1115 417.658 C 1115 420.040, 1115.768 421.807, 1117.500 423.412 C 1118.875 424.687, 1120 426.174, 1120 426.718 C 1120 427.261, 1124.329 427.964, 1129.619 428.280 C 1137.285 428.737, 1139.925 428.527, 1142.619 427.242 C 1144.479 426.355, 1146 425.022, 1146 424.280 C 1146 423.537, 1146.640 421.933, 1147.422 420.715 C 1148.204 419.497, 1149.155 416.363, 1149.536 413.750 L 1150.227 409 1146.963 409 C 1141.829 409, 1133.523 404.276, 1131.111 399.983 C 1129.969 397.951, 1127.412 394.536, 1125.428 392.395 C 1123.445 390.253, 1120.742 387.150, 1119.422 385.500 L 1117.022 382.500 1117.011 385.281 M 1076 440.349 C 1076 448.098, 1076.396 450.447, 1078.405 454.612 C 1079.728 457.354, 1081.499 460.170, 1082.341 460.868 C 1083.183 461.567, 1084.170 463.570, 1084.534 465.319 C 1085.958 472.156, 1087.216 473, 1095.988 473 C 1102.816 473, 1104.075 472.729, 1104.965 471.066 C 1105.534 470.002, 1105.999 463.589, 1105.998 456.816 L 1105.997 444.500 1097.248 441.654 C 1092.437 440.089, 1085.688 437.068, 1082.250 434.940 L 1076 431.072 1076 440.349" stroke="#999999" fill="#999999" fill-opacity="0.2" fill-rule="evenodd"/>
    </svg>