<svg xmlns="http://www.w3.org/2000/svg" width="1785" height="1131" viewBox="0 0 1785 1131" version="1.1">
    <path class="svg-region-AAB" d="M 751.232 464.168 C 749.111 466.289, 742.593 467.970, 736.430 467.985 C 731.174 467.998, 729.930 468.384, 727.150 470.866 C 722.550 474.973, 717 483.110, 717 485.747 C 717 487.806, 716.535 488, 711.607 488 C 705.878 488, 705 488.742, 705 493.582 C 705 495.333, 704.449 496, 703 496 C 701.900 496, 701 496.390, 701 496.866 C 701 498.176, 713.853 509.412, 721.629 514.899 C 725.408 517.566, 730.903 522.504, 733.839 525.874 C 738.531 531.257, 739.622 532.004, 742.839 532.035 C 744.853 532.055, 747.625 532.714, 749 533.500 C 751.971 535.199, 756.380 535.402, 759.066 533.965 C 760.486 533.205, 761 531.861, 761 528.908 C 761 526.696, 761.511 522.857, 762.135 520.378 C 762.982 517.015, 762.982 515.582, 762.135 514.735 C 761.511 514.111, 760.996 512.228, 760.990 510.550 C 760.985 508.873, 759.816 505.025, 758.393 502 C 756.970 498.975, 755.337 494.025, 754.765 491 C 753.502 484.326, 753.211 469.533, 754.269 465.750 C 755.098 462.785, 753.465 461.935, 751.232 464.168 M 1013 478.144 C 1009.425 484.805, 1005.375 492.320, 1004 494.844 C 1001.860 498.773, 1001.451 500.990, 1001.160 510.256 C 1000.794 521.940, 1001.740 525.034, 1006.302 527.070 C 1009.523 528.508, 1015.132 532.743, 1016.611 534.855 C 1017.318 535.865, 1018.032 539.554, 1018.198 543.054 C 1018.475 548.898, 1018.704 549.468, 1021 550.036 C 1024.011 550.781, 1030.023 548.223, 1029.354 546.481 C 1029.095 545.804, 1030.266 544.181, 1031.957 542.875 C 1033.649 541.569, 1036.348 539.471, 1037.956 538.212 C 1041.974 535.067, 1048.824 525.223, 1054.322 514.695 C 1056.851 509.852, 1061.018 502.733, 1063.583 498.876 C 1069.693 489.684, 1069.736 488.586, 1064 488.187 C 1061.525 488.015, 1059.072 487.452, 1058.550 486.937 C 1058.027 486.422, 1056.777 486, 1055.771 486 C 1050.376 486, 1038 477.166, 1038 473.314 C 1038 471.300, 1031.869 469, 1026.501 469 C 1023.367 469, 1021.757 468.530, 1021.362 467.500 C 1021.045 466.675, 1020.497 466.007, 1020.143 466.016 C 1019.789 466.025, 1016.575 471.482, 1013 478.144" stroke="#7f3c1a" fill="#7f3c1a" fill-opacity="0.2" fill-rule="evenodd"/><path class="svg-region-PC" d="M 782.200 442.200 C 781.390 443.010, 781.012 447.478, 781.037 455.950 L 781.073 468.500 785.587 471.361 C 788.070 472.935, 791.893 476.648, 794.082 479.611 C 797.319 483.993, 798.610 485, 800.986 485 C 803.547 485, 803.993 484.557, 804.580 481.424 C 804.949 479.457, 804.898 475.745, 804.467 473.174 C 803.698 468.597, 803.668 466.626, 804.225 457.487 C 804.466 453.526, 804.109 452.608, 801.304 449.987 C 799.547 448.344, 797.776 447, 797.370 447 C 796.094 447, 788.038 442.871, 787.447 441.913 C 786.645 440.617, 783.618 440.782, 782.200 442.200 M 977.441 452.977 C 975.824 455.164, 974.095 456.963, 973.601 456.976 C 973.107 456.989, 971.194 458.553, 969.351 460.450 C 964.770 465.167, 964.702 471.194, 969.126 480.455 C 972.082 486.643, 972.440 487, 975.697 487 C 978.270 487, 980.367 485.967, 983.984 482.917 C 989.775 478.034, 990.672 475.953, 991.495 465.500 C 991.841 461.100, 992.352 456.712, 992.630 455.750 C 993.014 454.417, 992.542 454, 990.648 454 C 988.259 454, 982.102 451.305, 980.942 449.751 C 980.634 449.338, 979.059 450.790, 977.441 452.977" stroke="#cda789" fill="#cda789" fill-opacity="0.2" fill-rule="evenodd"/><path class="svg-region-IBl" d="M 713.887 427.094 C 707.168 434.171, 697.475 445.358, 696.285 447.407 C 695.617 448.558, 695.055 451.840, 695.035 454.699 C 695.003 459.433, 695.298 460.125, 698.327 462.435 C 700.966 464.449, 703.598 465.200, 711.077 466.075 C 733.894 468.743, 746.690 468.239, 751 464.502 C 751.825 463.787, 755.650 461.515, 759.500 459.455 C 772.530 452.480, 782 445.077, 782 441.865 C 782 441.389, 780.668 441, 779.039 441 C 777.280 441, 775.250 440.111, 774.038 438.811 L 771.999 436.622 768.840 439.852 L 765.681 443.083 762.591 440.117 C 760.211 437.833, 758.872 437.274, 756.768 437.688 C 752.987 438.433, 749.673 437.437, 746.197 434.512 L 743.240 432.024 740.498 434.180 C 738.289 435.918, 737.441 436.107, 736.128 435.154 C 735.233 434.503, 733.308 433.499, 731.850 432.923 C 730.393 432.346, 728.972 431.003, 728.694 429.937 C 728.300 428.431, 727.303 428, 724.216 428 C 721.213 428, 719.882 427.454, 718.759 425.763 L 717.274 423.526 713.887 427.094" stroke="#b10e0e" fill="#b10e0e" fill-opacity="0.2" fill-rule="evenodd"/><path class="svg-region-IBr" d="M 1039 412.312 C 1039 413.034, 1038.100 415.487, 1037 417.764 C 1035.900 420.041, 1035 422.361, 1035 422.921 C 1035 425.745, 1030.136 432.648, 1026.210 435.395 C 1023.770 437.103, 1018.819 441.538, 1015.208 445.250 C 1011.597 448.962, 1008.048 452, 1007.321 452 C 1004.771 452, 1006.041 454.001, 1010.250 456.611 C 1016.162 460.278, 1019.051 463.026, 1020.473 466.334 C 1021.589 468.933, 1022.223 469.210, 1028.095 469.671 C 1031.618 469.947, 1037.886 470.246, 1042.025 470.336 C 1049.479 470.496, 1049.598 470.459, 1054.525 466.343 C 1062.094 460.022, 1072.088 456.090, 1080.750 456.024 C 1082.537 456.011, 1084 455.590, 1084 455.090 C 1084 454.589, 1082.188 451.887, 1079.973 449.086 C 1075.837 443.852, 1071.599 440.702, 1063.703 436.990 C 1059.960 435.231, 1058.443 433.596, 1054.843 427.439 C 1052.455 423.353, 1050.001 420.008, 1049.391 420.005 C 1048.781 420.002, 1046.555 417.975, 1044.446 415.500 C 1040.514 410.888, 1039 410.002, 1039 412.312" stroke="#b10e0e" fill="#b10e0e" fill-opacity="0.2" fill-rule="evenodd"/><path class="svg-region-LBl" d="M 817.056 348.078 C 814.062 349.141, 811.352 350.430, 811.036 350.943 C 809.606 353.255, 804.722 354.046, 798.918 352.904 C 789.839 351.118, 785.142 353.278, 781.054 361.121 C 779.866 363.401, 777.905 366.068, 776.697 367.048 L 774.500 368.831 777.500 369.432 C 784.859 370.904, 789.559 372.176, 790.281 372.889 C 790.710 373.314, 790.044 376.325, 788.800 379.581 C 784.073 391.957, 779.488 394.211, 759.107 394.178 C 750.273 394.163, 744.466 393.753, 744.072 393.117 C 743.637 392.413, 741.583 392.510, 737.670 393.419 C 734.501 394.156, 731.756 394.926, 731.570 395.129 C 731.384 395.333, 729.423 399.100, 727.213 403.500 C 725.002 407.900, 722.024 413.207, 720.596 415.294 C 717.848 419.311, 717.331 422.881, 719.035 426.066 C 719.798 427.490, 721.140 428, 724.129 428 C 727.354 428, 728.295 428.413, 728.713 430.011 C 729.002 431.117, 730.278 432.283, 731.547 432.601 C 732.817 432.920, 734.099 433.815, 734.396 434.590 C 735.195 436.672, 739.297 436.302, 741.296 433.967 C 743.032 431.940, 743.045 431.942, 746.876 435.021 C 750.095 437.607, 751.468 438.068, 755.358 437.867 C 759.233 437.666, 760.470 438.077, 762.845 440.351 L 765.689 443.076 768.844 439.849 L 771.999 436.622 774.038 438.811 C 775.755 440.653, 777.168 441, 782.955 441 C 789.711 441, 789.884 440.934, 792.780 437.250 C 794.401 435.188, 797.008 430.868, 798.574 427.652 C 800.140 424.435, 803.013 419.934, 804.960 417.650 C 810.405 411.260, 812.574 407.859, 813.984 403.500 C 814.695 401.300, 815.640 398.600, 816.083 397.500 C 816.526 396.400, 817.056 392.350, 817.262 388.500 C 817.492 384.192, 818.440 379.769, 819.728 377 C 820.879 374.525, 822.109 369.690, 822.460 366.254 C 823.112 359.874, 825.167 353.633, 826.985 352.509 C 827.543 352.164, 828 350.559, 828 348.941 C 828 346.382, 827.643 346.009, 825.250 346.073 C 823.737 346.113, 820.050 347.016, 817.056 348.078 M 742 388 C 742 388.550, 742.675 389, 743.500 389 C 744.325 389, 745 388.550, 745 388 C 745 387.450, 744.325 387, 743.500 387 C 742.675 387, 742 387.450, 742 388" stroke="#d7b230" fill="#d7b230" fill-opacity="0.2" fill-rule="evenodd"/><path class="svg-region-LBr" d="M 974.570 353.927 C 973.027 355.537, 970.355 357.424, 968.633 358.121 C 966.910 358.817, 965.169 359.862, 964.765 360.443 C 964.361 361.024, 964.022 370.725, 964.012 382 C 963.994 402.423, 964.776 408.812, 969.100 423.571 C 969.595 425.260, 970 427.653, 970 428.888 C 970 430.123, 971.125 432.608, 972.500 434.411 C 973.875 436.214, 975 438.227, 975 438.884 C 975 440.402, 978.851 447.993, 980.413 449.555 C 981.062 450.205, 982.585 451.051, 983.797 451.435 C 985.008 451.820, 986 452.554, 986 453.067 C 986 453.580, 990.275 454, 995.500 454 C 1001.167 454, 1005 453.596, 1005 453 C 1005 452.450, 1005.924 452, 1007.053 452 C 1008.283 452, 1011.386 449.536, 1014.801 445.848 C 1017.934 442.464, 1022.798 437.996, 1025.611 435.918 C 1030.122 432.586, 1035 425.833, 1035 422.921 C 1035 422.361, 1035.900 420.041, 1037 417.764 C 1038.100 415.487, 1039 412.871, 1039 411.951 C 1039 410.058, 1033.942 404.614, 1023.030 394.762 C 1017.110 389.417, 1015.394 388.331, 1014.733 389.512 C 1014.256 390.364, 1012.479 391, 1010.572 391 C 1008.742 391, 1005.629 391.675, 1003.654 392.500 C 995.559 395.883, 990.818 393.544, 985.860 383.723 C 983.128 378.311, 982.837 376.894, 983.186 370.716 C 983.661 362.308, 984.952 361.017, 992.941 360.960 L 998.500 360.920 994.557 358.953 C 992.388 357.871, 989.688 356.145, 988.557 355.118 C 983.115 350.176, 978.537 349.786, 974.570 353.927 M 1009.702 372.967 C 1010.575 376.308, 1012.847 377.581, 1014.675 375.754 C 1016.107 374.322, 1015.971 374.037, 1013.174 372.590 C 1009.268 370.570, 1009.080 370.590, 1009.702 372.967" stroke="#d7b230" fill="#d7b230" fill-opacity="0.2" fill-rule="evenodd"/><path class="svg-region-PP" d="M 794.290 324.918 C 794.724 330.094, 795.974 334.483, 798.942 341.250 C 801.174 346.339, 803 351.346, 803 352.377 C 803 353.954, 803.513 354.149, 806.250 353.612 C 808.038 353.260, 810.002 352.301, 810.616 351.479 C 811.907 349.750, 822.203 346, 825.657 346 C 827.583 346, 828 346.523, 828 348.941 C 828 350.559, 827.543 352.164, 826.985 352.509 C 825.229 353.594, 823.008 360.061, 822.388 365.891 C 822.061 368.976, 820.714 374.277, 819.396 377.671 C 817.805 381.767, 817 385.889, 817 389.934 C 817 393.285, 816.605 396.809, 816.123 397.764 C 815.640 398.719, 814.695 401.232, 814.022 403.349 C 812.591 407.852, 808.303 414.453, 804.504 418 C 803.032 419.375, 800.436 423.425, 798.736 427 C 795.105 434.638, 790.415 441, 788.416 441 C 785.574 441, 787.122 442.567, 792.250 444.880 C 803.371 449.897, 806.401 454.224, 803.965 461.606 C 801.656 468.601, 805.991 482.913, 812.143 488.608 C 819.234 495.172, 829.092 506.519, 829.657 508.768 C 830.042 510.302, 830.754 510.925, 831.705 510.560 C 832.507 510.252, 833.581 510, 834.092 510 C 834.603 510, 836.587 506.654, 838.502 502.564 C 840.417 498.475, 842.440 494.846, 842.999 494.501 C 844.390 493.641, 848 486.014, 848 483.935 C 848 483.005, 848.675 481.685, 849.500 481 C 850.325 480.315, 851.014 479.023, 851.032 478.128 C 851.049 477.232, 851.724 475.626, 852.532 474.559 C 853.339 473.491, 854 471.895, 854 471.012 C 854 469.162, 864.400 457.902, 867.750 456.124 C 868.987 455.467, 870 454.270, 870 453.465 C 870 452.655, 870.916 452, 872.050 452 C 873.177 452, 875.465 451.294, 877.134 450.431 C 881.072 448.394, 885.554 448.303, 887.753 450.213 C 888.714 451.048, 890.683 452.012, 892.128 452.354 C 897.189 453.553, 910.037 468.075, 911.563 474.320 C 911.942 475.871, 913.095 477.667, 914.126 478.311 C 915.157 478.954, 916 480.450, 916 481.634 C 916 482.817, 916.739 484.070, 917.643 484.417 C 918.547 484.763, 919.009 485.324, 918.670 485.663 C 918.331 486.002, 919.391 487.969, 921.027 490.034 C 922.662 492.099, 924 494.455, 924 495.271 C 924 496.087, 924.646 497.291, 925.436 497.947 C 926.225 498.602, 927.147 500.391, 927.483 501.921 C 928.424 506.206, 931.901 504.886, 936.043 498.672 C 937.940 495.827, 942.643 489.915, 946.496 485.534 C 950.348 481.152, 953.950 476.992, 954.500 476.289 C 955.050 475.586, 956.850 473.491, 958.500 471.632 C 960.150 469.774, 963.075 466.359, 965 464.043 C 966.925 461.727, 969.981 458.183, 971.792 456.166 C 973.602 454.150, 975.772 451.078, 976.613 449.339 C 977.991 446.492, 977.987 445.876, 976.572 443.139 C 975.707 441.467, 975 439.557, 975 438.894 C 975 438.231, 973.875 436.214, 972.500 434.411 C 970.931 432.355, 970 429.827, 970 427.626 C 970 425.697, 969.550 423.840, 969 423.500 C 968.450 423.160, 968 421.662, 968 420.171 C 968 418.680, 967.100 414.212, 966 410.243 C 964.301 404.111, 964 399.953, 964 382.594 C 964 371.357, 964.273 361.452, 964.607 360.582 C 964.941 359.712, 965.980 359, 966.917 359 C 969.634 359, 979.238 350.193, 982.343 344.854 C 988.025 335.081, 990.528 325.107, 987.750 323.309 C 987.063 322.864, 980.090 322.480, 972.255 322.455 C 962.528 322.425, 957.629 322.029, 956.805 321.205 C 956.052 320.452, 952.382 320, 947.023 320 C 938.930 320, 938.264 320.166, 935.230 322.937 C 933.461 324.552, 932.250 326.489, 932.539 327.240 C 932.938 328.280, 932.210 328.506, 929.483 328.188 C 927.058 327.905, 924.025 328.613, 920.077 330.385 C 915.857 332.279, 912.574 333, 908.174 333 C 904.832 333, 899.713 333.580, 896.799 334.290 C 893.184 335.170, 887.516 335.408, 878.961 335.040 L 866.422 334.500 855.628 329.250 C 849.691 326.363, 844.174 324, 843.367 324 C 842.561 324, 840.461 323.248, 838.700 322.329 C 834.795 320.290, 824.829 319.037, 807.098 318.355 L 793.696 317.839 794.290 324.918" stroke="#c4743d" fill="#c4743d" fill-opacity="0.2" fill-rule="evenodd"/><path class="svg-region-LPl" d="M 775.200 449.333 C 770.320 453.339, 757.715 461, 756.005 461 C 755.602 461, 754.709 463.660, 754.019 466.911 C 751.938 476.718, 753.894 492.372, 758.404 502 C 759.821 505.025, 760.985 508.873, 760.990 510.550 C 760.996 512.228, 761.526 514.126, 762.168 514.768 C 763.058 515.658, 763.058 516.862, 762.168 519.834 C 761.526 521.978, 761 525.801, 761 528.331 C 761 531.854, 760.548 533.172, 759.066 533.965 C 756.380 535.402, 751.971 535.199, 749 533.500 C 747.625 532.714, 745.247 532.055, 743.715 532.035 C 741.149 532.003, 741.023 532.174, 742.111 534.207 C 742.761 535.421, 745.376 538.459, 747.924 540.957 C 750.471 543.456, 753.608 546.994, 754.895 548.819 C 756.182 550.645, 758.195 552.569, 759.368 553.095 C 760.540 553.621, 763.047 555.176, 764.937 556.552 C 769.120 559.595, 778.227 562.375, 781.847 561.714 C 788.859 560.432, 800.209 553.739, 807 546.882 C 808.925 544.938, 811.218 542.932, 812.096 542.424 C 813.439 541.647, 816.733 537.243, 821.500 529.850 C 822.050 528.997, 823.737 526.441, 825.250 524.169 C 826.763 521.898, 828 519.581, 828 519.020 C 828 518.459, 828.390 518, 828.867 518 C 830.255 518, 835.059 510.154, 834.051 509.532 C 833.549 509.221, 832.856 509.425, 832.510 509.984 C 831.466 511.673, 830.250 511.133, 829.642 508.708 C 829.085 506.489, 819.019 494.946, 812.114 488.608 C 810.252 486.898, 808.077 483.960, 807.279 482.079 C 806.165 479.447, 805.622 478.985, 804.930 480.079 C 804.435 480.860, 804.024 482.288, 804.015 483.250 C 804.004 484.520, 803.186 485, 801.032 485 C 798.600 485, 797.343 484.025, 794.084 479.614 C 789.893 473.941, 786.089 470.481, 782.948 469.483 C 781.259 468.947, 781.031 467.630, 780.780 456.934 L 780.500 444.983 775.200 449.333" stroke="#d2454f" fill="#d2454f" fill-opacity="0.2" fill-rule="evenodd"/><path class="svg-region-LPr" d="M 976.069 449.833 C 975.424 451.391, 973.281 454.328, 971.308 456.359 C 969.335 458.391, 967.971 460.304, 968.277 460.610 C 968.583 460.916, 969.771 460.229, 970.917 459.083 C 972.063 457.938, 973.225 457, 973.500 457 C 975.487 457, 979.981 450.200, 979.282 448.250 C 978.549 446.208, 977.320 446.814, 976.069 449.833 M 999.022 453.745 C 996.009 453.952, 993.239 454.614, 992.866 455.218 C 992.493 455.821, 991.868 460.406, 991.478 465.407 C 990.682 475.604, 989.232 479.312, 985.231 481.381 C 983.726 482.159, 981.723 483.648, 980.780 484.691 C 979.836 485.734, 977.545 486.689, 975.690 486.814 C 972.423 487.034, 972.211 486.815, 969.063 479.987 C 966.470 474.359, 965.881 471.927, 966.156 467.965 C 966.345 465.234, 966.184 462.999, 965.798 462.999 C 965.412 463, 963.764 464.913, 962.137 467.250 C 960.509 469.587, 958.350 472.256, 957.339 473.180 C 956.327 474.103, 955.050 475.460, 954.500 476.193 C 953.950 476.927, 950.343 481.121, 946.484 485.514 C 942.626 489.906, 937.901 495.862, 935.984 498.748 C 933.992 501.749, 931.751 503.997, 930.750 503.998 C 929.788 503.999, 929 504.472, 929 505.050 C 929 506.792, 932.176 512.445, 933.635 513.300 C 934.386 513.740, 935 515.053, 935 516.219 C 935 518.832, 940.137 528.091, 944.644 533.603 C 946.490 535.860, 948 538.222, 948 538.853 C 948 539.484, 948.482 540, 949.071 540 C 949.661 540, 950.767 540.563, 951.530 541.250 C 952.293 541.938, 955.034 544.075, 957.621 546 C 960.207 547.925, 964.223 551.300, 966.544 553.500 C 974.003 560.568, 977.417 562.489, 983.235 562.892 C 988.133 563.231, 1006.242 557.431, 1009.387 554.517 C 1011.833 552.251, 1017.445 549.778, 1018.270 550.603 C 1019.305 551.639, 1017.627 536.337, 1016.532 534.759 C 1015.100 532.695, 1007.426 527, 1006.077 527 C 1005.559 527, 1004.206 525.693, 1003.068 524.096 C 1001.323 521.646, 1001 519.693, 1001 511.616 C 1001 501.870, 1002.332 496.422, 1006.042 491 C 1006.982 489.625, 1010.534 483.237, 1013.935 476.805 C 1019.865 465.591, 1020.054 465.012, 1018.542 462.705 C 1017.675 461.382, 1014.738 459.087, 1012.014 457.604 C 1009.290 456.122, 1006.796 454.479, 1006.472 453.954 C 1006.147 453.429, 1005.571 453.083, 1005.191 453.185 C 1004.811 453.287, 1002.035 453.539, 999.022 453.745" stroke="#d2454f" fill="#d2454f" fill-opacity="0.2" fill-rule="evenodd"/><path class="svg-region-DMl" d="M 674.485 315.024 C 673.954 315.884, 673.449 319.027, 671.040 336.500 C 669.979 344.197, 666.918 355.617, 664.946 359.236 C 664.426 360.191, 664 362.098, 664 363.472 C 664 364.847, 663.560 367.890, 663.023 370.236 C 662.486 372.581, 661.136 378.421, 660.023 383.214 C 658.910 388.006, 658 394.589, 658 397.842 C 658 401.094, 657.380 405.273, 656.623 407.128 C 655.866 408.983, 654.925 412.724, 654.533 415.441 C 654.141 418.159, 652.961 422.563, 651.910 425.228 C 649.465 431.431, 649.495 431.813, 652.542 433.201 C 654.907 434.278, 655.516 433.938, 661.292 428.312 C 664.706 424.986, 668.950 421.440, 670.723 420.433 C 673.889 418.633, 674.014 418.640, 677.859 420.801 C 683.013 423.697, 684.843 423.580, 690.100 420.018 C 694.550 417.003, 700.280 416.026, 701.542 418.068 C 701.905 418.655, 704.519 419.051, 707.351 418.947 C 710.183 418.843, 713.310 419.094, 714.301 419.505 C 717.106 420.670, 720.193 417.007, 726.145 405.450 L 731.500 395.051 736.750 393.867 C 741.573 392.778, 742 392.451, 742 389.841 C 742 387.667, 742.469 387, 744 387 C 745.100 387, 746 386.352, 746 385.559 C 746 383.366, 747.460 382.916, 750.802 384.081 C 754.575 385.396, 759.621 383.126, 761.003 379.492 C 761.508 378.165, 763.456 376.049, 765.333 374.790 C 777.477 366.644, 779.210 365.202, 780.763 361.958 C 781.695 360.010, 784.237 356.946, 786.410 355.148 C 790.227 351.992, 790.578 351.903, 796.681 352.556 C 802.500 353.179, 803 353.080, 803 351.294 C 803 350.227, 801.589 346.462, 799.864 342.927 C 796.092 335.198, 794.028 327.954, 794.012 322.387 L 794 318.274 784.750 317.647 C 779.663 317.302, 771.450 317.465, 766.500 318.008 C 761.550 318.551, 753.900 319.255, 749.500 319.572 C 745.100 319.889, 740.600 320.531, 739.500 320.998 C 738.400 321.465, 735.700 322.095, 733.500 322.399 C 731.300 322.703, 727.351 323.401, 724.724 323.951 C 720.252 324.886, 719.618 324.747, 714.769 321.763 C 709.703 318.645, 709.317 318.574, 697.045 318.475 C 686.556 318.390, 683.724 318.026, 679.769 316.251 C 677.167 315.084, 674.789 314.532, 674.485 315.024 M 679.630 334.250 C 679.462 334.938, 678.596 337.736, 677.707 340.469 C 676.468 344.276, 676.372 345.617, 677.295 346.204 C 679.418 347.553, 683.238 347.054, 684.608 345.250 C 685.992 343.426, 686.442 337.316, 685.393 334.582 C 684.675 332.710, 680.073 332.445, 679.630 334.250" stroke="#68533d" fill="#68533d" fill-opacity="0.2" fill-rule="evenodd"/><path class="svg-region-DMr" d="M 1086.267 317.139 C 1081.878 325.291, 1081.422 325.970, 1077.880 329.624 C 1074.714 332.891, 1074.245 333.053, 1069.513 332.512 C 1066.756 332.197, 1057.750 331.495, 1049.500 330.953 C 1005.778 328.077, 996.310 327.258, 994.316 326.181 C 990.915 324.343, 989.002 324.727, 988.985 327.250 C 988.964 330.608, 986.299 337.640, 982.420 344.577 L 978.971 350.744 981.735 351.300 C 983.256 351.606, 986.525 353.394, 989 355.272 C 993.404 358.615, 996.980 360.294, 1002 361.376 C 1003.648 361.731, 1005.325 363.427, 1006.923 366.355 C 1008.456 369.163, 1010.622 371.403, 1012.819 372.451 C 1015.431 373.696, 1016.008 374.392, 1015.146 375.254 C 1013.443 376.957, 1013.759 378.234, 1015.625 377.190 C 1017.638 376.063, 1025.046 379.972, 1027.990 383.715 C 1030.812 387.302, 1030.508 389.804, 1027.006 391.797 C 1025.360 392.733, 1024.010 393.972, 1024.006 394.548 C 1024.003 395.125, 1025.630 397.150, 1027.623 399.048 C 1029.616 400.947, 1035.128 406.352, 1039.873 411.059 L 1048.500 419.619 1057.152 419.818 L 1065.804 420.017 1070.101 415.508 C 1073.154 412.304, 1075.191 411, 1077.140 411 C 1078.648 411, 1080.176 410.524, 1080.536 409.941 C 1081.521 408.348, 1086.508 409.733, 1095.535 414.107 C 1099.954 416.248, 1104.047 418, 1104.630 418 C 1105.213 418, 1106.505 418.900, 1107.500 420 C 1109.821 422.565, 1113.035 422.547, 1115.819 419.954 C 1117.411 418.471, 1117.845 417.231, 1117.397 415.447 C 1117.018 413.935, 1117.400 412.038, 1118.390 410.528 C 1119.275 409.176, 1120 407.057, 1120 405.819 C 1120 403.034, 1117.005 395, 1115.967 395 C 1114.495 395, 1107.982 376.303, 1107.065 369.442 C 1106.554 365.624, 1105.426 360.025, 1104.559 357 C 1103.691 353.975, 1102.691 347.225, 1102.337 342 C 1101.983 336.775, 1101.140 331.600, 1100.463 330.500 C 1099.786 329.400, 1098.943 325.468, 1098.590 321.763 C 1097.700 312.439, 1097.445 312, 1092.910 312 C 1089.270 312, 1088.865 312.313, 1086.267 317.139" stroke="#68533d" fill="#68533d" fill-opacity="0.2" fill-rule="evenodd"/><path class="svg-region-PMl" d="M 702.500 277 C 700.342 278.100, 697.722 279, 696.677 279 C 695.631 279, 692.504 281.481, 689.726 284.514 C 685.801 288.800, 683.824 290.164, 680.857 290.639 C 678.756 290.975, 676.629 291.756, 676.130 292.375 C 675.630 292.994, 675.044 298.099, 674.827 303.720 L 674.432 313.939 679.466 316.157 C 683.692 318.019, 686.427 318.391, 696.500 318.474 C 708.039 318.569, 708.729 318.697, 714.460 321.804 L 720.421 325.035 728.960 323.391 C 743.181 320.654, 742 322.648, 742 301.362 C 742 286.637, 741.743 283.161, 740.683 283.568 C 739.959 283.846, 735.233 282.032, 730.182 279.537 C 721.828 275.410, 720.341 275, 713.711 275 C 708.397 275, 705.360 275.542, 702.500 277" stroke="#90cf92" fill="#90cf92" fill-opacity="0.2" fill-rule="evenodd"/><path class="svg-region-PMr" d="M 1034.953 279.622 L 1028.500 286.086 1028.180 307.409 C 1027.892 326.609, 1028.027 328.796, 1029.535 329.375 C 1030.456 329.729, 1038.700 330.457, 1047.855 330.995 C 1057.010 331.532, 1066.750 332.237, 1069.500 332.561 C 1074.235 333.118, 1074.679 332.964, 1077.867 329.656 C 1081.424 325.967, 1081.880 325.286, 1086.267 317.139 C 1088.978 312.103, 1089.126 312, 1093.618 312 L 1098.201 312 1097.590 307.250 C 1097.254 304.637, 1096.727 299.125, 1096.420 295 C 1096.040 289.906, 1095.031 285.761, 1093.273 282.079 L 1090.685 276.657 1088.555 279.329 C 1086.581 281.805, 1085.866 282, 1078.789 282 C 1068.552 282, 1051.881 278.376, 1043.953 274.427 C 1041.534 273.222, 1041.079 273.485, 1034.953 279.622" stroke="#90cf92" fill="#90cf92" fill-opacity="0.2" fill-rule="evenodd"/><path class="svg-region-PV" d="M 754.542 149.625 C 753.777 153.704, 753.845 153.790, 762.500 159.726 C 771.684 166.026, 777.163 170.437, 778.192 172.358 C 779.677 175.134, 783 190.604, 783 194.745 C 783 198.087, 784.489 200.155, 790.034 204.510 C 791.428 205.604, 794.803 210.511, 797.534 215.414 C 801.396 222.345, 803.432 224.893, 806.692 226.871 C 808.998 228.271, 811.457 230.485, 812.157 231.792 C 813.261 233.856, 813.103 234.779, 810.964 238.793 C 806.195 247.741, 798.047 251.508, 780.500 252.876 C 771.700 253.562, 772.073 253.097, 773.983 261 C 775.924 269.031, 782.366 281.966, 790.169 293.500 C 793.146 297.900, 796.386 303.217, 797.369 305.315 C 798.352 307.414, 800.470 311.079, 802.077 313.459 L 804.999 317.788 812.749 318.368 C 826.854 319.423, 835.456 320.686, 839 322.222 C 843.370 324.116, 846.588 325.293, 861 330.270 C 870.581 333.579, 874.186 334.320, 882.601 334.711 C 892.253 335.161, 893.055 335.036, 900.601 331.918 C 904.946 330.123, 909.983 327.538, 911.796 326.173 C 915.057 323.718, 915.180 323.706, 923.343 324.976 L 931.593 326.259 935.019 323.129 C 938.309 320.125, 938.793 320, 947.164 320 C 951.959 320, 956.135 320.410, 956.445 320.911 C 957.170 322.083, 973.153 323.429, 976.470 322.597 C 978.882 321.992, 979 321.628, 979 314.802 C 979 306.394, 980.108 302.761, 985.317 294.097 C 990.693 285.153, 990.994 284.091, 991.993 270.547 C 992.481 263.921, 993.196 254.600, 993.582 249.832 L 994.282 241.165 989.629 240.467 C 987.069 240.083, 984.729 239.371, 984.429 238.885 C 984.128 238.398, 977.834 238, 970.441 238 C 960.370 238, 956.993 237.687, 956.972 236.750 C 956.957 236.063, 955.607 234.188, 953.972 232.583 C 952.338 230.979, 951 229.127, 951 228.467 C 951 226.430, 960.628 207.661, 963.166 204.750 C 964.485 203.238, 966.362 202, 967.339 202 C 968.587 202, 970.143 199.702, 972.586 194.250 C 974.495 189.988, 976.476 185.600, 976.987 184.500 C 977.498 183.400, 978.380 180.700, 978.947 178.500 C 980.494 172.498, 986.842 163.302, 990.438 161.855 C 995.802 159.697, 1000 155.956, 1000 153.336 C 1000 151.096, 999.726 150.961, 996.433 151.578 C 993.130 152.198, 979.557 151.156, 964 149.088 C 960.425 148.612, 955.317 148.511, 952.649 148.862 L 947.798 149.500 947.488 156.500 C 947.318 160.350, 946.874 165.325, 946.503 167.556 C 945.988 170.644, 946.206 171.926, 947.413 172.928 C 950.045 175.112, 949.333 178.630, 945.750 181.149 C 943.962 182.406, 942.022 183.899, 941.438 184.467 C 939.985 185.880, 933 196.326, 933 197.085 C 933 197.422, 931.538 199.375, 929.750 201.426 C 913.780 219.748, 914.868 219.333, 892.166 215.731 C 880.173 213.828, 870.312 212.962, 857 212.644 C 841.928 212.284, 837.573 211.846, 833.500 210.285 C 824.903 206.991, 816.577 199.566, 811.873 191 C 811.118 189.625, 809.263 187.259, 807.750 185.741 C 806.237 184.224, 805 182.765, 805 182.500 C 805 182.234, 803.419 179.946, 801.486 177.413 C 793.724 167.246, 791.035 157.026, 795 152.770 C 797.774 149.792, 797.515 149.005, 793.750 148.977 C 783.516 148.901, 758.256 147.309, 756.873 146.653 C 755.569 146.034, 755.105 146.626, 754.542 149.625" stroke="#b09658" fill="#b09658" fill-opacity="0.2" fill-rule="evenodd"/><path class="svg-region-LPVl" d="M 748.250 253.662 C 747.563 253.940, 747 255.142, 746.999 256.333 C 746.999 257.525, 746.069 260.947, 744.932 263.938 C 743.795 266.929, 743.078 270.191, 743.339 271.187 C 743.599 272.183, 743.404 273.250, 742.906 273.558 C 742.407 273.866, 742 284.472, 742 297.168 L 742 320.219 749.250 319.697 C 753.237 319.411, 761.225 318.679, 767 318.072 C 772.775 317.465, 780.319 317.253, 783.764 317.602 C 789.316 318.164, 789.956 318.049, 789.396 316.590 C 789.049 315.685, 787.987 314.528, 787.037 314.020 C 786.087 313.511, 783.557 310.486, 781.416 307.297 C 779.275 304.109, 774.931 298.085, 771.762 293.912 C 767.229 287.942, 765.639 284.858, 764.304 279.449 C 763.038 274.318, 761.234 270.664, 757.191 265.037 C 754.212 260.892, 751.386 256.488, 750.912 255.250 C 750.438 254.012, 749.926 253.036, 749.775 253.079 C 749.624 253.122, 748.938 253.385, 748.250 253.662" stroke="#494949" fill="#494949" fill-opacity="0.2" fill-rule="evenodd"/><path class="svg-region-LPVr" d="M 1017.250 265.756 C 1007.311 274.034, 1007 274.417, 1006.990 278.396 C 1006.979 283.053, 1003.340 291.560, 1000.142 294.405 C 998.964 295.453, 998 297.029, 998 297.909 C 998 300.111, 991.204 319.196, 989.987 320.413 C 988.451 321.949, 988.826 325, 990.550 325 C 991.402 325, 993.314 325.616, 994.800 326.370 C 996.501 327.233, 1003.141 328, 1012.750 328.444 L 1028 329.149 1028 310.318 C 1028 299.961, 1028.448 289.923, 1028.997 288.012 C 1029.601 285.906, 1032.192 282.441, 1035.577 279.214 L 1041.161 273.891 1036.620 269.663 C 1034.123 267.337, 1031.393 263.792, 1030.555 261.785 C 1029.716 259.779, 1028.686 257.931, 1028.265 257.678 C 1027.844 257.426, 1022.888 261.061, 1017.250 265.756" stroke="#494949" fill="#494949" fill-opacity="0.2" fill-rule="evenodd"/><path class="svg-region-Fl" d="M 758.063 251.424 C 757.344 252.291, 755.460 253, 753.878 253 C 749.186 253, 749.616 254.110, 760.643 270.442 C 761.822 272.187, 763.523 276.493, 764.424 280.009 C 765.668 284.867, 767.461 288.216, 771.887 293.951 C 775.091 298.103, 778.420 302.878, 779.285 304.563 C 780.150 306.247, 782.956 309.960, 785.521 312.813 L 790.185 318 797.093 318 C 800.892 318, 804 317.613, 804 317.140 C 804 316.666, 802.920 314.688, 801.600 312.743 C 800.280 310.798, 798.907 308.281, 798.548 307.150 C 798.189 306.019, 794.961 300.686, 791.376 295.297 C 781.402 280.309, 777.166 271.569, 772.936 257.250 C 772.120 254.488, 771.106 253, 770.040 253 C 769.138 253, 767.972 252.585, 767.450 252.078 C 766.928 251.571, 764.896 250.861, 762.936 250.501 C 760.310 250.019, 759.027 250.262, 758.063 251.424" stroke="#5ca7a9" fill="#5ca7a9" fill-opacity="0.2" fill-rule="evenodd"/><path class="svg-region-Fr" d="M 1018.236 216.750 C 1017.190 218.262, 1013.971 223.671, 1011.081 228.770 L 1005.827 238.040 1000.035 239.650 L 994.244 241.260 993.049 257.380 C 991.162 282.831, 990.735 284.925, 985.739 293.197 C 980.294 302.212, 979.884 303.486, 979.117 313.751 L 978.500 322.002 982.691 322.001 C 984.996 322.001, 987.200 322.514, 987.588 323.143 C 988.035 323.866, 988.862 323.224, 989.841 321.393 C 991.935 317.475, 998 300.077, 998 297.988 C 998 297.065, 998.964 295.453, 1000.142 294.405 C 1003.341 291.559, 1006.979 283.053, 1006.990 278.392 C 1007 274.400, 1007.295 274.040, 1017.484 265.583 L 1027.969 256.882 1026.234 254.234 C 1024.783 252.017, 1024.500 249.133, 1024.500 236.543 C 1024.500 222.100, 1023.239 214, 1020.991 214 C 1020.521 214, 1019.281 215.238, 1018.236 216.750" stroke="#5ca7a9" fill="#5ca7a9" fill-opacity="0.2" fill-rule="evenodd"/><path class="svg-region-PCl" d="M 683.005 175.062 C 683.002 176.471, 683.974 179.621, 685.164 182.062 C 687.720 187.305, 688.939 192.297, 689.668 200.511 C 690.181 206.280, 689.984 206.946, 684.790 217.011 C 679.369 227.515, 678.410 230.282, 675.540 243.697 C 673.918 251.277, 673.578 265.977, 674.650 282.164 L 675.290 291.827 678.895 291.277 C 682.461 290.732, 688 288.118, 688 286.980 C 688 286.656, 689.523 284.728, 691.385 282.695 C 693.736 280.129, 695.621 279, 697.556 279 C 699.089 279, 701.211 278.214, 702.273 277.253 C 703.677 275.983, 706.368 275.407, 712.128 275.146 C 719.872 274.794, 720.270 274.893, 729.541 279.494 C 734.759 282.084, 739.697 283.946, 740.514 283.633 C 741.515 283.249, 742 281.637, 742 278.698 C 742 276.297, 742.284 274.049, 742.631 273.702 C 742.979 273.355, 743.354 271.563, 743.466 269.720 C 743.578 267.877, 744.419 264.867, 745.335 263.031 C 746.251 261.195, 747 258.460, 747 256.953 C 747 253.920, 748.485 253, 753.382 253 C 756.340 253, 759 251.550, 759 249.937 C 759 248.806, 747.263 246.717, 744.627 247.379 C 742.846 247.826, 742.042 248.791, 741.816 250.752 C 741.122 256.785, 732.120 253.118, 730.314 246.067 C 729.972 244.728, 729.088 242.478, 728.352 241.067 C 727.615 239.655, 727.010 238.152, 727.006 237.726 C 727.003 237.300, 725.453 234.703, 723.562 231.953 C 719.785 226.463, 714 214.779, 714 212.641 C 714 211.402, 708.731 203.871, 705.033 199.822 C 704.190 198.899, 700.575 194.533, 697 190.120 C 693.425 185.706, 689.938 182.074, 689.250 182.048 C 688.563 182.022, 687.984 181.213, 687.964 180.250 C 687.944 179.287, 686.821 177.150, 685.469 175.500 L 683.010 172.500 683.005 175.062" stroke="#465ee0" fill="#465ee0" fill-opacity="0.2" fill-rule="evenodd"/><path class="svg-region-PCr" d="M 1066.008 193.491 C 1064.721 194.861, 1061.830 196.881, 1059.584 197.979 C 1057.198 199.146, 1053.513 202.476, 1050.722 205.988 L 1045.944 212 1035.663 212 C 1023.366 212, 1021.207 212.952, 1023.130 217.530 C 1023.941 219.460, 1024.399 226.101, 1024.439 236.500 C 1024.500 252.374, 1024.522 252.528, 1027.250 256.094 C 1028.763 258.071, 1030 260.141, 1030 260.694 C 1030 263.163, 1036.431 270.206, 1041.143 272.897 C 1050.623 278.311, 1066.245 282, 1079.694 282 C 1086.486 282, 1087.862 281.722, 1088.369 280.250 C 1088.701 279.288, 1089.793 277.150, 1090.797 275.500 C 1091.904 273.679, 1093.057 268.696, 1093.731 262.823 C 1094.829 253.245, 1094.811 253.070, 1091.906 245.823 C 1087.860 235.727, 1084.113 228.317, 1080.353 222.981 C 1078.601 220.495, 1076.386 216.445, 1075.429 213.981 C 1074.472 211.516, 1072.979 208.673, 1072.110 207.662 C 1071.074 206.456, 1070.401 203.271, 1070.156 198.412 C 1069.950 194.335, 1069.459 191, 1069.065 191 C 1068.671 191, 1067.295 192.121, 1066.008 193.491" stroke="#465ee0" fill="#465ee0" fill-opacity="0.2" fill-rule="evenodd"/><path class="svg-region-DV" d="M 795.822 151.500 C 793.782 153.676, 793.008 155.523, 793.005 158.225 C 792.997 164.407, 799.444 176.651, 806.839 184.500 C 807.876 185.600, 810.573 189.200, 812.833 192.500 C 815.094 195.800, 817.523 199.175, 818.231 200 C 820.246 202.345, 827.162 207.516, 830.795 209.394 C 835.123 211.632, 847.410 212.983, 863.500 212.992 C 872.920 212.997, 880.946 213.740, 892.644 215.689 C 906.361 217.976, 909.382 218.202, 912.744 217.195 C 917.061 215.901, 925.008 208.819, 927.458 204.081 C 928.300 202.453, 929.786 200.532, 930.760 199.811 C 931.734 199.090, 933.034 197.375, 933.649 196 C 935.636 191.559, 942.227 183.421, 945.659 181.171 C 949.348 178.754, 950.111 175.167, 947.413 172.928 C 946.263 171.973, 945.990 170.634, 946.422 168.056 C 948.683 154.561, 948.298 149, 945.103 149 C 944.081 149, 942.685 149.675, 942 150.500 C 940.577 152.215, 935.903 152.503, 934.370 150.970 C 933.664 150.264, 930.531 150.262, 924.420 150.962 C 919.514 151.524, 911.745 151.987, 907.156 151.992 C 899.650 151.999, 898.760 151.799, 898.290 150 C 898.002 148.900, 897.707 148.003, 897.633 148.008 C 897.560 148.012, 894.575 148.908, 891 150 C 885.271 151.749, 881.573 151.986, 859.823 151.992 C 837.308 151.999, 835.118 151.850, 834.816 150.285 C 834.520 148.744, 832.679 148.567, 816.560 148.535 L 798.634 148.500 795.822 151.500" stroke="#45567a" fill="#45567a" fill-opacity="0.2" fill-rule="evenodd"/><path class="svg-region-B" d="M 972.500 656.391 C 964.288 658.680, 957.921 663.948, 955.081 670.804 C 954.353 672.562, 953.314 674, 952.772 674 C 950.112 674, 938.632 680.525, 934.060 684.636 C 925.971 691.909, 924.853 694.959, 923.958 712.194 C 923.537 720.295, 923.550 728.503, 923.985 730.433 C 925.961 739.193, 938.394 753.413, 948.525 758.500 C 956.239 762.373, 962.750 762.294, 976.782 758.156 C 990.047 754.244, 993.172 752.226, 997.674 744.669 C 1000.617 739.728, 1001.440 737.206, 1001.809 732 C 1002.245 725.852, 1001.079 709.260, 998.962 691.500 C 995.744 664.502, 996.296 666.888, 992.322 662.817 C 986.267 656.617, 979.528 654.432, 972.500 656.391 M 793.500 671.954 C 790.848 673.051, 787.364 676.892, 786.176 680.026 C 785.650 681.415, 784.670 687.715, 783.999 694.026 C 783.327 700.337, 781.928 708.754, 780.889 712.732 C 778.564 721.633, 778.301 741.125, 780.412 748.081 C 781.725 752.408, 787.653 762, 789.014 762 C 789.360 762, 790.672 764.276, 791.929 767.057 C 794.499 772.743, 799.528 776.725, 805.329 777.666 C 808.214 778.134, 810.399 777.521, 816.219 774.608 C 830.908 767.257, 838.564 762.704, 841.221 759.740 C 852.805 746.818, 858.134 725.252, 852.645 713.500 C 845.908 699.074, 838.007 690.953, 825.925 686.036 C 820.899 683.991, 817.309 681.700, 814.443 678.709 C 812.149 676.316, 808.681 673.602, 806.735 672.679 C 803 670.906, 796.848 670.569, 793.500 671.954" stroke="#e23b33" fill="#e23b33" fill-opacity="0.2" fill-rule="evenodd"/><path class="svg-region-Ol" d="M 509.994 266.322 C 509.715 266.610, 505.665 267.315, 500.994 267.889 C 496.322 268.463, 490.025 269.669, 487 270.570 C 483.975 271.471, 480.743 272.191, 479.817 272.171 C 478.891 272.151, 477.598 272.779, 476.944 273.567 C 476.290 274.355, 474.919 275, 473.897 275 C 471.347 275, 452.965 282.655, 444.863 287.090 C 436.726 291.545, 422.639 297.578, 418.261 298.484 C 416.480 298.852, 414.766 299.569, 414.452 300.077 C 414.139 300.585, 412.146 301, 410.024 301 C 403.024 301, 377.166 313.615, 367.896 321.553 C 364.378 324.565, 358.006 329.670, 353.735 332.896 C 346.749 338.174, 340 345.100, 340 346.991 C 340 347.386, 338.988 348.823, 337.750 350.187 C 336.513 351.550, 333.521 355.103, 331.102 358.083 C 328.683 361.062, 325.413 364.850, 323.834 366.500 C 320.847 369.621, 309.736 385.925, 306.832 391.447 C 305.914 393.192, 304.452 395.210, 303.582 395.932 C 302.712 396.654, 302 397.820, 302 398.523 C 302 399.990, 297.820 409.278, 296.291 411.209 C 295.728 411.919, 295.032 413.625, 294.743 415 C 294.453 416.375, 293.204 419.975, 291.966 423 C 288.390 431.741, 288.159 432.363, 287.512 435 C 287.174 436.375, 286.063 440.425, 285.041 444 C 280.937 458.369, 280 464.765, 280.039 478.143 C 280.077 491.017, 280.590 494.617, 285.072 513.500 C 286.617 520.010, 290.097 527.827, 293.932 533.402 C 295.620 535.854, 297 538.150, 297 538.505 C 297 538.860, 298.915 542.154, 301.255 545.825 C 303.595 549.496, 306.163 553.769, 306.961 555.320 C 307.760 556.871, 309.366 559.121, 310.531 560.320 C 313.289 563.158, 320 573.400, 320 574.770 C 320 575.355, 320.341 575.983, 320.757 576.167 C 322.007 576.717, 327.320 584.075, 331.468 591 C 333.609 594.575, 337.254 600.425, 339.569 604 C 341.884 607.575, 346.335 615.447, 349.460 621.494 C 354.340 630.937, 356.328 635.228, 361.967 648.500 C 363.518 652.149, 368.936 663.476, 369.859 665 C 370.359 665.825, 374.034 673.141, 378.026 681.258 C 382.017 689.374, 387.290 698.599, 389.744 701.758 C 392.197 704.916, 395.503 710.362, 397.090 713.860 C 400.627 721.659, 408.804 733.957, 414.470 740 C 418.859 744.681, 421.883 749.662, 430.561 766.500 C 433.395 772, 436.431 777.850, 437.308 779.500 C 438.185 781.150, 439.814 784.525, 440.928 787 C 442.962 791.518, 445.783 795.065, 450.151 798.599 C 451.443 799.645, 454.164 803.045, 456.197 806.155 C 469.684 826.784, 496.176 851.766, 512 858.778 C 522.240 863.316, 524.183 864.005, 525.112 863.430 C 525.649 863.099, 526.630 863.275, 527.294 863.822 C 531.289 867.114, 562.011 869.187, 573.174 866.917 C 598.021 861.865, 609.018 857.562, 621.505 848.006 C 627.846 843.152, 643.595 826.232, 647.807 819.746 C 648.738 818.312, 652.010 813.395, 655.077 808.819 C 660.938 800.077, 667 790.272, 667 789.535 C 667 788.676, 673.460 779.389, 677.935 773.814 C 680.446 770.686, 683.625 766.505, 685 764.523 C 688.003 760.192, 692.188 754.421, 694.806 751 C 701.290 742.526, 720.469 712.845, 725.176 704 C 744.162 668.323, 749.377 616.838, 737.494 582.384 C 734.224 572.903, 732.670 570.559, 723.673 561.540 L 716.730 554.581 715.425 545.847 C 714.707 541.043, 713.452 536.075, 712.634 534.807 C 711.817 533.538, 710.179 529.472, 708.994 525.770 C 707.639 521.539, 705.550 517.641, 703.365 515.270 C 701.454 513.197, 698.730 509.813, 697.312 507.750 C 695.894 505.688, 694.344 504, 693.867 504 C 693.390 504, 693 503.068, 693 501.929 C 693 499.773, 690.850 497, 689.178 497 C 688.648 497, 687.955 496.325, 687.638 495.500 C 687.322 494.675, 686.374 494, 685.531 494 C 684.689 494, 684 493.637, 684 493.192 C 684 490.444, 668.928 487.594, 666.450 489.874 C 665.928 490.355, 660.888 491.776, 655.250 493.032 C 649.612 494.289, 645 495.695, 645 496.158 C 645 496.621, 644.121 497, 643.047 497 C 641.973 497, 640.060 497.402, 638.797 497.893 C 637.534 498.384, 633.688 499.622, 630.250 500.643 C 626.813 501.664, 624 502.837, 624 503.250 C 624 503.662, 623.503 504, 622.895 504 C 619.650 504, 596 518.432, 596 520.412 C 596 522.614, 587.563 530, 585.042 530.006 C 583.644 530.010, 581.211 530.685, 579.636 531.506 C 575.894 533.457, 574.758 533.392, 572.080 531.070 C 570.230 529.465, 570.043 528.787, 570.974 527.049 C 572.424 524.340, 571.538 523.022, 568.191 522.909 C 566.711 522.860, 563.254 521.604, 560.508 520.119 C 555.699 517.518, 555.487 517.219, 554.732 511.969 C 554.285 508.869, 552.818 504.812, 551.328 502.561 C 545.685 494.034, 547.699 483.504, 556.750 474.212 C 559.638 471.248, 562 468.406, 562 467.898 C 562 467.389, 562.395 466.191, 562.878 465.236 C 566.807 457.465, 568.363 448.961, 566.111 447.568 C 565.622 447.266, 564.912 445.777, 564.533 444.259 C 564.154 442.742, 563.160 440.741, 562.324 439.813 C 559.103 436.238, 563.697 434.581, 567.359 437.997 C 577.899 447.828, 580.018 448.751, 588.351 447.133 C 591.733 446.477, 597.425 446.039, 601 446.161 C 607.157 446.370, 616.917 443.813, 617.833 441.750 C 618.017 441.337, 618.804 441, 619.583 441 C 621.397 441, 621.414 436.129, 619.608 433.750 C 618.877 432.788, 617.092 432, 615.640 432 C 613.483 432, 613 431.537, 613 429.474 C 613 427.083, 619.596 417, 621.160 417 C 621.563 417, 621.870 412.837, 621.841 407.750 C 621.810 402.123, 622.432 396.150, 623.429 392.500 C 628.780 372.927, 628.782 345.943, 623.435 327.366 C 619.683 314.330, 610.912 301.801, 601.194 295.595 C 599.162 294.298, 596.375 292.228, 595 290.996 C 589.510 286.076, 582.228 281, 580.660 281 C 579.747 281, 576.863 279.910, 574.251 278.577 C 568.866 275.831, 566.938 275.041, 558.500 272.115 C 550.197 269.237, 544.433 268.100, 535.315 267.543 C 531.017 267.280, 523.675 266.780, 519 266.432 C 514.325 266.083, 510.272 266.034, 509.994 266.322" stroke="#aa444d" fill="#aa444d" fill-opacity="0.2" fill-rule="evenodd"/><path class="svg-region-Or" d="M 1254 244.577 C 1253.175 244.896, 1250.475 245.969, 1248 246.962 C 1245.525 247.955, 1238.775 249.761, 1233 250.976 C 1226.091 252.429, 1220.373 254.350, 1216.282 256.592 C 1212.862 258.467, 1209.555 260, 1208.933 260 C 1207.079 260, 1200.906 263.200, 1198.465 265.426 C 1195.496 268.133, 1194.546 268.838, 1188 273.191 C 1178.732 279.354, 1169.879 288.760, 1166.050 296.514 C 1164.153 300.356, 1162.015 303.860, 1161.300 304.300 C 1160.585 304.740, 1160 305.691, 1160 306.415 C 1160 307.138, 1159.100 308.874, 1158 310.273 C 1156.900 311.671, 1156 313.532, 1156 314.408 C 1156 315.283, 1155.555 316, 1155.012 316 C 1154.468 316, 1153.736 317.800, 1153.384 320 C 1153.032 322.200, 1152.299 324, 1151.756 324 C 1151.212 324, 1150.996 324.878, 1151.277 325.952 C 1151.558 327.026, 1151.440 328.038, 1151.016 328.202 C 1149.463 328.802, 1147.142 350.292, 1148.014 356 C 1148.476 359.025, 1148.887 363.718, 1148.927 366.429 C 1148.993 370.900, 1149.890 374.933, 1152.055 380.500 C 1153.742 384.836, 1155.073 394.996, 1154.182 396.729 C 1153.682 397.703, 1152.981 402.828, 1152.625 408.118 C 1152.087 416.119, 1152.238 417.952, 1153.522 419.019 C 1154.897 420.159, 1154.824 420.559, 1152.859 422.650 C 1151.645 423.943, 1150.066 425, 1149.351 425 C 1148.435 425, 1148.216 425.962, 1148.609 428.250 C 1150.410 438.713, 1153.501 441, 1165.845 441 C 1170.815 441, 1175.123 441.389, 1175.417 441.865 C 1175.711 442.341, 1177.654 442.959, 1179.736 443.238 C 1183.874 443.793, 1200 450.806, 1200 452.051 C 1200 452.476, 1201.794 453.127, 1203.986 453.498 C 1209.059 454.355, 1214 458.814, 1214 462.537 C 1214 464.168, 1212.992 466.205, 1211.500 467.588 C 1210.125 468.862, 1209 470.799, 1209 471.893 C 1209 472.987, 1208.550 474.160, 1208 474.500 C 1207.400 474.871, 1207 481.562, 1207 491.213 L 1207 507.307 1203.250 510.952 C 1201.188 512.956, 1198.825 515.489, 1198 516.579 C 1196.091 519.102, 1191.757 521, 1187.907 521 C 1183.960 521, 1171.890 515.236, 1165.069 510.094 C 1162.083 507.842, 1159.086 506, 1158.411 506 C 1157.736 506, 1154.780 504.045, 1151.842 501.656 C 1148.904 499.266, 1144.744 496.734, 1142.598 496.028 C 1140.452 495.322, 1136.833 493.431, 1134.555 491.826 C 1131.696 489.810, 1128.414 488.618, 1123.957 487.973 C 1115.361 486.731, 1100.274 486.748, 1099.500 488 C 1099.160 488.550, 1097.810 489, 1096.500 489 C 1095.190 489, 1093.840 489.450, 1093.500 490 C 1093.160 490.550, 1091.639 491, 1090.119 491 C 1088.600 491, 1085.589 492.337, 1083.428 493.972 C 1081.268 495.607, 1079.103 496.957, 1078.618 496.972 C 1077.406 497.010, 1071 503.901, 1071 505.167 C 1071 505.730, 1070.151 507.386, 1069.114 508.846 C 1068.076 510.306, 1066.218 515.245, 1064.985 519.823 C 1063.174 526.542, 1062.870 529.528, 1063.408 535.323 C 1063.775 539.270, 1064.170 548.807, 1064.287 556.516 L 1064.500 570.531 1061.187 577.266 C 1059.365 580.970, 1057.459 584, 1056.950 584 C 1055.813 584, 1051.861 590.263, 1050.008 595 C 1049.256 596.925, 1047.371 600.381, 1045.820 602.680 C 1044.269 604.979, 1043 607.194, 1043 607.601 C 1043 608.009, 1042.367 609.053, 1041.594 609.921 C 1040.218 611.467, 1036.216 622.057, 1033.630 631 C 1031.972 636.732, 1032.994 655.141, 1035.213 659.500 C 1036.899 662.813, 1040.295 681.302, 1041.898 695.898 C 1042.665 702.875, 1043.540 706.225, 1045.294 708.898 C 1046.594 710.879, 1048.851 714.975, 1050.310 718 C 1054.542 726.778, 1058.714 731.679, 1080.738 753.746 C 1101.220 774.266, 1110.686 784.448, 1114.049 789.574 C 1118.475 796.322, 1139.522 816, 1142.313 816 C 1142.895 816, 1144.300 816.843, 1145.436 817.873 C 1148.978 821.086, 1160.433 824.979, 1168.190 825.607 C 1173.840 826.064, 1177.771 825.680, 1185.500 823.915 C 1198.193 821.017, 1205.091 821.198, 1215.916 824.713 C 1223.393 827.141, 1225.983 827.488, 1236 827.407 C 1248.171 827.309, 1250.956 826.667, 1263.276 821.114 C 1278.737 814.146, 1296.047 799.250, 1306.860 783.608 C 1309.677 779.533, 1315.639 769.067, 1320.108 760.350 C 1324.578 751.632, 1328.788 743.825, 1329.463 743 C 1330.139 742.175, 1331.746 739.250, 1333.034 736.500 C 1334.322 733.750, 1337.092 728.680, 1339.188 725.232 C 1341.285 721.785, 1343 718.665, 1343 718.299 C 1343 717.933, 1345.415 713.553, 1348.367 708.567 C 1355.947 695.760, 1363 682.892, 1363 681.869 C 1363 681.391, 1363.406 681, 1363.902 681 C 1364.398 681, 1365.248 679.729, 1365.789 678.175 C 1366.331 676.621, 1368.850 672.317, 1371.387 668.611 C 1373.924 664.906, 1376 661.672, 1376 661.425 C 1376 661.179, 1377.912 658.239, 1380.250 654.892 C 1382.588 651.544, 1385.400 647.293, 1386.500 645.445 C 1388.359 642.321, 1396.429 631.012, 1403.549 621.551 C 1407.687 616.053, 1409.458 612.560, 1411.645 605.585 C 1413.679 599.100, 1417.124 594.998, 1423.095 591.952 C 1427.730 589.587, 1430.729 584.456, 1434.173 573 C 1435.271 569.351, 1439.941 560.417, 1443.142 555.846 C 1444.164 554.386, 1445 552.834, 1445 552.396 C 1445 551.959, 1446.380 550.229, 1448.068 548.551 C 1450.045 546.584, 1454.696 537.681, 1461.155 523.500 C 1473.803 495.730, 1477.511 485.246, 1479.015 473 C 1479.454 469.425, 1480.530 464.039, 1481.406 461.032 C 1483.358 454.335, 1483.687 421.343, 1481.857 415.899 C 1481.228 414.030, 1478.815 409.575, 1476.493 406 C 1474.172 402.425, 1471.956 398.150, 1471.568 396.500 C 1470.163 390.516, 1453.457 356.540, 1447.529 347.609 C 1445.588 344.685, 1444 341.810, 1444 341.219 C 1444 340.628, 1442.987 339.325, 1441.750 338.323 C 1440.513 337.320, 1438.329 334.700, 1436.898 332.500 C 1432.286 325.411, 1425.606 318.262, 1419.984 314.400 C 1416.968 312.328, 1412.925 308.926, 1411 306.841 C 1393.127 287.481, 1374.310 271.363, 1364 266.581 C 1362.625 265.943, 1359.706 264.320, 1357.514 262.973 C 1349.056 257.777, 1333.115 251.352, 1325 249.869 C 1321.975 249.317, 1316.575 247.972, 1313 246.882 C 1307.466 245.193, 1302.711 244.832, 1281 244.448 C 1266.975 244.200, 1254.825 244.258, 1254 244.577" stroke="#aa444d" fill="#aa444d" fill-opacity="0.2" fill-rule="evenodd"/><path class="svg-region-OABl" d="M 617 430.845 C 617 431.310, 617.900 432.505, 619 433.500 C 621.510 435.771, 621.663 440.555, 619.250 441.325 C 618.288 441.632, 614.800 443.042, 611.500 444.459 C 606.556 446.581, 604.580 446.923, 600.271 446.404 C 597.250 446.041, 592.239 446.332, 588.406 447.094 C 582.031 448.361, 581.608 448.320, 577.635 446.048 C 573.560 443.718, 570.367 441.184, 567.180 437.750 C 565.261 435.683, 562.672 435.485, 561.173 437.291 C 560.380 438.248, 560.584 438.883, 561.961 439.744 C 562.983 440.382, 564.120 442.271, 564.487 443.941 C 564.854 445.611, 565.569 447.234, 566.077 447.548 C 567.480 448.415, 567.179 455.516, 565.583 459.216 C 564.804 461.022, 563.432 464.190, 562.534 466.256 C 561.636 468.321, 559.187 471.597, 557.093 473.534 C 548.235 481.730, 545.718 494.401, 551.311 502.641 C 553.220 505.454, 554.308 508.588, 554.703 512.408 C 555.203 517.251, 555.611 518.115, 557.642 518.625 C 558.939 518.950, 560 519.618, 560 520.108 C 560 520.599, 560.873 521, 561.941 521 C 563.009 521, 564.160 521.450, 564.500 522 C 564.840 522.550, 566.415 523, 568 523 C 571.487 523, 572.466 524.281, 570.899 526.790 C 569.953 528.304, 570.085 529.076, 571.587 530.831 C 573.773 533.384, 575.722 533.547, 579.636 531.506 C 581.211 530.685, 583.908 530.010, 585.630 530.006 C 588.113 530.001, 589.506 529.088, 592.380 525.582 C 594.371 523.152, 596.014 520.789, 596.031 520.332 C 596.049 519.874, 597.168 518.695, 598.520 517.712 C 602.967 514.476, 617.127 506, 618.087 506 C 619.080 506, 623.152 503.891, 624 502.938 C 624.275 502.628, 627.200 501.585, 630.500 500.620 C 633.800 499.654, 637.534 498.445, 638.797 497.932 C 640.060 497.420, 641.973 497, 643.047 497 C 644.121 497, 645 496.630, 645 496.178 C 645 495.726, 649.752 494.290, 655.559 492.987 C 661.367 491.683, 666.344 490.253, 666.618 489.809 C 666.893 489.364, 669.350 489, 672.079 489 C 675.648 489, 678.151 489.701, 681 491.500 C 683.178 492.875, 685.397 494, 685.930 494 C 686.464 494, 687.314 494.739, 687.819 495.642 C 688.523 496.898, 689.413 497.097, 691.619 496.490 C 693.204 496.054, 696.862 495.689, 699.750 495.679 C 704.748 495.662, 705 495.536, 705 493.031 C 705 489.252, 706.761 488, 712.075 488 C 716.485 488, 716.785 487.827, 717.359 484.954 C 718.074 481.381, 722.079 475.727, 726.891 471.500 L 730.306 468.500 724.903 467.734 C 721.931 467.312, 715.809 466.547, 711.297 466.034 C 697.704 464.486, 694.544 461.977, 695.177 453.230 L 695.595 447.455 690.047 453.097 C 683.603 459.651, 679.703 461, 667.206 461 C 654.394 461, 649 458.337, 649 452.012 C 649 449.989, 649.291 448.042, 649.647 447.686 C 650.544 446.790, 653.929 436.835, 653.961 435 C 653.976 434.175, 652.604 432.712, 650.913 431.750 C 648.351 430.292, 645.266 430, 632.419 430 C 623.939 430, 617 430.380, 617 430.845" stroke="#81244d" fill="#81244d" fill-opacity="0.2" fill-rule="evenodd"/><path class="svg-region-OABr" d="M 1143.056 435.085 C 1140.061 436.668, 1137.215 438.095, 1136.731 438.256 C 1136.246 438.418, 1135.202 441.689, 1134.411 445.525 C 1133.619 449.361, 1132.668 453.175, 1132.297 454 C 1131.926 454.825, 1131.145 457.478, 1130.561 459.895 C 1129.977 462.313, 1128.825 464.647, 1128 465.082 C 1122.098 468.195, 1118.715 469.261, 1113.222 469.736 C 1108.100 470.178, 1105.821 469.838, 1100.856 467.889 C 1097.507 466.575, 1094.547 464.938, 1094.277 464.250 C 1094.007 463.563, 1093.247 463, 1092.589 463 C 1091.931 463, 1089.866 461.425, 1088 459.500 C 1085.215 456.626, 1083.882 456.002, 1080.554 456.012 C 1071.798 456.038, 1062.561 459.680, 1054.714 466.202 C 1050.578 469.639, 1049.150 470.228, 1044.214 470.529 C 1041.071 470.721, 1038.174 470.906, 1037.775 470.939 C 1036.593 471.038, 1038.958 476.313, 1041.317 478.836 C 1045.034 482.813, 1058.022 488, 1064.262 488 C 1066.253 488, 1068.160 488.449, 1068.499 488.999 C 1068.839 489.548, 1066.228 494.610, 1062.698 500.249 C 1054.847 512.788, 1052.654 516.987, 1053.508 517.841 C 1053.869 518.202, 1054.838 517.598, 1055.663 516.498 C 1058.622 512.555, 1059.605 511.458, 1062.743 508.598 C 1065.363 506.210, 1066.193 505.915, 1067.420 506.934 C 1069.036 508.275, 1070.978 507.607, 1071.036 505.691 C 1071.094 503.776, 1075.163 499.483, 1079.750 496.499 C 1082.088 494.978, 1084 493.364, 1084 492.912 C 1084 492.460, 1085.688 491.821, 1087.750 491.491 C 1089.813 491.161, 1092.281 490.465, 1093.236 489.945 C 1094.191 489.425, 1095.852 489, 1096.927 489 C 1098.002 489, 1099.160 488.550, 1099.500 488 C 1100.265 486.761, 1115.327 486.726, 1123.740 487.943 C 1127.906 488.545, 1131.438 489.829, 1134.364 491.803 C 1136.774 493.430, 1140.491 495.330, 1142.623 496.026 C 1144.755 496.721, 1146.725 497.574, 1147 497.921 C 1148.301 499.562, 1155.946 505.013, 1158.564 506.166 C 1160.179 506.877, 1161.725 507.693, 1162 507.980 C 1163.683 509.731, 1172.444 515.193, 1177.853 517.864 C 1186.656 522.210, 1193.944 521.779, 1198 516.673 C 1198.825 515.634, 1201.187 513.146, 1203.248 511.142 L 1206.997 507.500 1206.998 491.309 C 1206.999 482.404, 1207.415 474.861, 1207.923 474.548 C 1208.431 474.234, 1209.142 472.628, 1209.504 470.980 C 1209.866 469.332, 1211.026 467.521, 1212.081 466.956 C 1217.423 464.098, 1211.846 454.826, 1203.986 453.498 C 1201.794 453.127, 1200 452.461, 1200 452.017 C 1200 450.783, 1187.869 445.205, 1182.374 443.911 C 1179.693 443.280, 1176.719 442.367, 1175.764 441.882 C 1174.809 441.397, 1170.038 441, 1165.162 441 C 1156.762 441, 1156.145 440.851, 1153.398 438.152 C 1151.804 436.585, 1150.050 434.607, 1149.500 433.755 C 1148.625 432.400, 1147.820 432.566, 1143.056 435.085" stroke="#81244d" fill="#81244d" fill-opacity="0.2" fill-rule="evenodd"/><path class="svg-region-LBPCl" d="M 767.275 373.376 C 763.922 375.845, 760.913 378.698, 760.590 379.716 C 760.267 380.734, 758.632 382.377, 756.957 383.366 C 754.453 384.845, 753.354 384.970, 750.769 384.069 C 747.475 382.921, 746.034 383.565, 745.622 386.369 C 745.490 387.266, 744.535 388.620, 743.498 389.378 C 741.714 390.682, 741.706 390.848, 743.336 392.479 C 744.802 393.945, 747.203 394.209, 759.407 394.249 C 772.119 394.292, 774.263 394.051, 778.212 392.140 C 780.663 390.953, 783.586 388.974, 784.708 387.741 C 786.959 385.268, 791.312 374.313, 790.539 373.064 C 789.978 372.155, 783.367 370.347, 777.437 369.481 C 773.761 368.944, 772.792 369.315, 767.275 373.376" stroke="#daffff" fill="#daffff" fill-opacity="0.2" fill-rule="evenodd"/><path class="svg-region-LBPCr" d="M 985.022 361.965 C 983.999 362.612, 983.429 365.179, 983.170 370.301 C 982.832 376.990, 983.100 378.318, 985.950 384.101 C 987.685 387.620, 990.093 391.277, 991.302 392.228 C 994.023 394.367, 998.927 394.475, 1003.654 392.500 C 1005.629 391.675, 1008.952 391, 1011.039 391 C 1013.167 391, 1015.032 390.451, 1015.285 389.750 C 1015.584 388.923, 1016.813 389.510, 1018.916 391.483 L 1022.095 394.465 1025.797 392.483 C 1030.183 390.134, 1030.886 387.396, 1028.035 383.772 C 1024.987 379.896, 1017.655 376.054, 1015.553 377.230 C 1013.797 378.213, 1010 375.793, 1010 373.692 C 1010 371.496, 1004.950 362.195, 1003.444 361.617 C 1000.933 360.653, 986.670 360.923, 985.022 361.965" stroke="#daffff" fill="#daffff" fill-opacity="0.2" fill-rule="evenodd"/><path class="svg-region-PNl" d="M 652.500 40.328 C 650.300 41.559, 646.676 43.739, 644.446 45.172 C 642.216 46.605, 639.516 47.945, 638.446 48.149 C 637.353 48.358, 636.362 49.490, 636.184 50.731 C 635.835 53.173, 631.203 54.955, 625 55.033 C 620.582 55.089, 604.760 61.204, 604.155 63.089 C 603.906 63.865, 602.656 65.758, 601.377 67.295 C 594.719 75.302, 597.265 86.616, 607.842 96.025 C 610.609 98.486, 617.229 104.325, 622.552 109 C 647.279 130.714, 667 150.776, 667 154.215 C 667 157.003, 670.342 161.850, 674.371 164.904 C 676.115 166.226, 678.633 169.035, 679.967 171.146 C 681.375 173.375, 682.672 174.531, 683.060 173.903 C 683.749 172.789, 688 178.782, 688 180.868 C 688 181.491, 688.675 182, 689.500 182 C 690.325 182, 691.004 182.338, 691.009 182.750 C 691.014 183.162, 693.305 186.200, 696.100 189.500 C 704.403 199.302, 704.645 199.592, 709.416 205.450 C 711.937 208.545, 714 211.908, 714 212.923 C 714 215.020, 721.592 230.630, 723.050 231.531 C 723.939 232.080, 725.720 235.644, 730.031 245.500 C 732.550 251.259, 735.646 254.177, 738.843 253.807 C 740.903 253.569, 741.571 252.883, 741.816 250.752 C 742.042 248.791, 742.846 247.826, 744.627 247.379 C 747.551 246.645, 757.385 248.509, 764.500 251.146 C 770.734 253.456, 781.736 253.575, 791.960 251.442 C 801.165 249.522, 807.490 245.312, 810.964 238.793 C 813.149 234.694, 813.277 233.887, 812.095 231.678 C 811.362 230.308, 809.228 228.361, 807.354 227.351 C 803.796 225.436, 801.526 222.474, 796.044 212.594 C 792.934 206.991, 789.921 203.490, 785.554 200.410 C 784.158 199.425, 783.398 197.265, 782.865 192.768 C 781.796 183.745, 779.264 173.023, 777.780 171.235 C 776.526 169.724, 767.105 162.468, 763.842 160.500 C 762.930 159.950, 760.338 158.150, 758.080 156.500 C 754.280 153.722, 754.019 153.232, 754.555 149.875 C 755.048 146.787, 754.745 145.944, 752.507 144.184 C 749.526 141.840, 746.060 137.286, 742.975 131.662 C 741.817 129.551, 738.923 125.951, 736.544 123.662 C 734.165 121.373, 730.673 116.575, 728.784 113 C 726.896 109.425, 724.858 105.600, 724.257 104.500 C 723.655 103.400, 722.181 100.250, 720.980 97.500 C 719.779 94.750, 718.227 91.825, 717.531 91 C 716.835 90.175, 714.472 86.125, 712.281 82 C 710.089 77.875, 707.092 72.700, 705.620 70.500 C 701.804 64.795, 681.627 44.387, 677.755 42.315 C 668.446 37.334, 659.154 36.603, 652.500 40.328" stroke="#bbc0d1" fill="#bbc0d1" fill-opacity="0.2" fill-rule="evenodd"/><path class="svg-region-PNr" d="M 1038 57.022 C 1036.075 57.457, 1031.850 58.292, 1028.612 58.877 C 1025.373 59.462, 1021.998 60.534, 1021.112 61.260 C 1020.225 61.985, 1017.813 63.341, 1015.750 64.273 C 1013.688 65.205, 1012 66.365, 1012 66.851 C 1012 67.337, 1010.182 68.937, 1007.961 70.407 C 1002.584 73.966, 1000.008 78.386, 1000.004 84.066 C 999.999 90.089, 1001.577 98.956, 1004.102 107.089 C 1006.105 113.542, 1006.111 113.842, 1004.380 121.589 C 1003.408 125.940, 1002.531 132.200, 1002.432 135.500 C 1002.333 138.800, 1001.745 142.767, 1001.126 144.315 C 1000.507 145.863, 1000 148.901, 1000 151.065 C 1000 155.732, 998.168 157.867, 991.089 161.455 C 987.009 163.522, 985.481 165.108, 982.624 170.239 C 980.707 173.683, 978.835 177.850, 978.464 179.500 C 976.775 187.005, 970.064 200.140, 967.177 201.591 C 962.795 203.792, 960.508 207.319, 952.381 224.404 C 950.485 228.389, 950.606 229.017, 954.016 232.886 C 955.657 234.748, 957 236.636, 957 237.081 C 957 237.527, 962.962 238.081, 970.250 238.311 C 977.538 238.542, 985.996 239.300, 989.046 239.996 C 993.803 241.081, 995.392 241.028, 1000.214 239.626 L 1005.835 237.992 1012.275 226.746 C 1020.297 212.735, 1021.386 212.050, 1035.462 212.143 C 1046.521 212.215, 1045.117 212.928, 1053.296 203.098 C 1054.833 201.250, 1057.566 198.986, 1059.368 198.067 C 1068.715 193.302, 1073.944 186.492, 1074.011 179 C 1074.031 176.764, 1081.055 163.650, 1084.125 160.117 C 1084.786 159.357, 1085.859 157.188, 1086.508 155.299 C 1087.158 153.409, 1089.034 150.431, 1090.677 148.681 C 1094.934 144.147, 1102 133.543, 1102 131.688 C 1102 130.824, 1102.436 129.848, 1102.970 129.519 C 1105.403 128.015, 1107.830 115.084, 1108.486 100.126 L 1109.160 84.752 1103.839 79.756 C 1100.796 76.900, 1095.088 73.104, 1090.509 70.892 C 1086.104 68.765, 1081.150 66.133, 1079.500 65.043 C 1073.391 61.007, 1070.721 59.849, 1065.425 58.935 C 1062.441 58.421, 1057.412 57.553, 1054.250 57.006 C 1047.708 55.875, 1043.051 55.879, 1038 57.022" stroke="#bbc0d1" fill="#bbc0d1" fill-opacity="0.2" fill-rule="evenodd"/><path class="svg-region-ODMl" d="M 679.618 334.250 C 679.442 334.938, 678.560 337.686, 677.657 340.358 C 676.754 343.030, 676.264 345.618, 676.567 346.108 C 677.541 347.684, 683.220 347.078, 684.608 345.250 C 685.992 343.426, 686.442 337.316, 685.393 334.582 C 684.675 332.710, 680.079 332.446, 679.618 334.250 M 690.703 419.473 C 686.439 423.303, 683.344 423.679, 678.269 420.987 C 673.905 418.671, 673.889 418.671, 670.550 420.583 C 668.711 421.637, 664.310 425.240, 660.771 428.589 C 655.359 433.712, 654.033 435.656, 652.419 440.831 C 651.363 444.215, 650.163 446.987, 649.750 446.991 C 648.519 447.005, 648.964 455.377, 650.282 457 C 652.358 459.557, 658.298 461, 666.745 461 C 679.737 461, 684.224 459.539, 689.772 453.501 C 698.771 443.709, 701 441.170, 701 440.716 C 701 440.465, 704.825 436.382, 709.500 431.644 C 718.047 422.981, 719.711 420, 716 420 C 714.900 420, 714 419.663, 714 419.250 C 714.001 418.837, 711.413 418.425, 708.250 418.333 C 705.088 418.241, 700.475 417.895, 698 417.563 C 694.126 417.045, 693.111 417.311, 690.703 419.473" stroke="#999999" fill="#999999" fill-opacity="0.2" fill-rule="evenodd"/><path class="svg-region-ODMr" d="M 1120 406.476 C 1120 407.353, 1119.275 409.176, 1118.390 410.528 C 1117.400 412.038, 1117.018 413.935, 1117.397 415.447 C 1117.845 417.231, 1117.411 418.471, 1115.819 419.954 C 1113.035 422.547, 1109.821 422.565, 1107.500 420 C 1106.505 418.900, 1104.947 418, 1104.039 418 C 1103.131 418, 1100.864 416.875, 1099 415.500 C 1097.136 414.125, 1094.825 413, 1093.865 413 C 1092.904 413, 1091.874 412.605, 1091.576 412.123 C 1090.598 410.540, 1081.810 408.790, 1080.652 409.948 C 1080.073 410.527, 1078.429 411, 1076.999 411 C 1075.207 411, 1073.024 412.441, 1069.986 415.629 L 1065.574 420.257 1058.287 419.641 C 1053.422 419.230, 1051 419.379, 1051 420.088 C 1051 420.673, 1052.823 424.272, 1055.051 428.087 C 1058.800 434.506, 1059.638 435.288, 1066.301 438.577 C 1074.445 442.598, 1077.176 444.833, 1080.704 450.364 C 1084.139 455.749, 1090.981 463, 1092.627 463 C 1093.382 463, 1094 463.410, 1094 463.911 C 1094 464.412, 1096.138 465.874, 1098.750 467.161 C 1104.852 470.166, 1116.431 470.430, 1122.500 467.702 C 1129.200 464.692, 1129.465 464.435, 1130.561 459.895 C 1131.145 457.478, 1131.926 454.825, 1132.297 454 C 1132.668 453.175, 1133.619 449.361, 1134.411 445.525 C 1135.202 441.689, 1136.246 438.418, 1136.731 438.256 C 1137.215 438.095, 1140.061 436.697, 1143.056 435.150 C 1147.729 432.735, 1148.500 431.930, 1148.500 429.468 C 1148.500 426.896, 1147.983 426.441, 1143.500 425.071 C 1138.684 423.599, 1133.960 419.582, 1124.917 409.270 C 1121.472 405.342, 1120 404.506, 1120 406.476" stroke="#999999" fill="#999999" fill-opacity="0.2" fill-rule="evenodd"/>
    </svg>