<svg xmlns="http://www.w3.org/2000/svg" width="1785" height="1131" viewBox="0 0 1785 1131" version="1.1">
    <path class="svg-region-AAB" d="M 749.444 465.746 C 743.293 471.303, 740.593 473, 737.903 473 C 736.285 473, 733.134 474.153, 730.901 475.562 C 726.154 478.559, 722.738 478.264, 716.653 474.330 C 710.981 470.663, 706.782 470.244, 704.140 473.080 C 701.655 475.748, 701.261 480, 703.500 480 C 704.325 480, 705 480.420, 705 480.933 C 705 481.446, 705.936 482.162, 707.080 482.525 C 708.224 482.889, 715.647 489.746, 723.576 497.764 C 731.504 505.782, 738.246 512.088, 738.557 511.776 C 738.869 511.465, 740.286 512.288, 741.708 513.605 C 744.453 516.149, 747.746 516.545, 756.360 515.364 L 761 514.728 761 510.256 C 761 506.262, 760.528 505.339, 756.594 501.642 C 751.355 496.717, 749 492.367, 749 487.615 C 749 485.698, 748.542 482.925, 747.982 481.452 C 747.129 479.209, 747.489 477.740, 750.199 472.405 C 752.405 468.063, 753.109 465.709, 752.412 465.012 C 751.715 464.315, 750.770 464.548, 749.444 465.746 M 1029.334 476.750 C 1028.302 478.813, 1025.587 483.875, 1023.300 488 C 1021.013 492.125, 1018.357 498.425, 1017.398 502 C 1016.439 505.575, 1015.037 509.232, 1014.284 510.126 C 1013.531 511.020, 1012.662 513.311, 1012.352 515.217 C 1011.800 518.620, 1011.872 518.704, 1016.421 519.978 C 1018.968 520.691, 1021.291 521.663, 1021.585 522.137 C 1021.878 522.612, 1023.409 523, 1024.988 523 C 1028.281 523, 1031 525.277, 1031 528.036 C 1031 529.078, 1031.868 530.394, 1032.928 530.961 C 1034.542 531.825, 1035.523 531.302, 1038.952 527.747 C 1041.205 525.411, 1045.751 519.225, 1049.054 514 C 1052.357 508.775, 1055.757 503.517, 1056.609 502.315 C 1058.101 500.210, 1058.050 500.132, 1055.238 500.212 C 1053.631 500.258, 1049.799 499.104, 1046.721 497.648 C 1043.642 496.191, 1040.646 495, 1040.062 495 C 1038.744 495, 1038.734 490.863, 1040.038 485.210 C 1041.232 480.035, 1040.346 477.995, 1035.645 475.089 C 1033.785 473.940, 1032.027 473, 1031.736 473 C 1031.446 473, 1030.365 474.688, 1029.334 476.750" stroke="#7f3c1a" fill="#7f3c1a" fill-opacity="0.2" fill-rule="evenodd"/><path class="svg-region-IBl" d="M 725 427.318 C 725 428.594, 724.283 432.081, 723.407 435.068 C 722.063 439.650, 720.536 441.753, 713.657 448.503 C 708.750 453.316, 702.212 458.429, 697.250 461.334 C 692.712 463.990, 689 466.480, 689 466.867 C 689 467.487, 699.740 469.828, 710.075 471.460 C 712.041 471.771, 714.605 472.915, 715.772 474.002 C 716.939 475.090, 719.845 476.501, 722.230 477.139 C 726.240 478.212, 726.882 478.100, 730.763 475.649 C 733.075 474.190, 736.429 472.996, 738.230 472.991 C 740.598 472.985, 742.532 472.004, 745.241 469.437 C 749.927 464.995, 767.803 456, 771.944 456 C 776.986 456, 788 447.836, 788 444.099 C 788 438.834, 786.614 433, 785.364 433 C 784.614 433, 784 433.357, 784 433.793 C 784 435.018, 775.513 436.999, 770.236 437.007 C 767.193 437.011, 764.428 437.723, 762.500 439 C 758.564 441.607, 755.569 441.516, 750.588 438.639 C 748.224 437.274, 744.068 436.039, 740.733 435.710 C 736.296 435.272, 734.047 434.413, 730.983 431.986 C 728.792 430.251, 727 427.970, 727 426.916 C 727 425.862, 726.550 425, 726 425 C 725.450 425, 725 426.043, 725 427.318" stroke="#b10e0e" fill="#b10e0e" fill-opacity="0.2" fill-rule="evenodd"/><path class="svg-region-IBr" d="M 1050.867 434.099 C 1048.393 437.307, 1048.215 437.360, 1037.799 438.025 C 1028.855 438.596, 1026.266 439.172, 1020.870 441.793 C 1017.366 443.495, 1013.268 445.937, 1011.762 447.222 L 1009.023 449.557 1018.029 457.862 C 1022.983 462.430, 1027.698 467.449, 1028.507 469.014 C 1029.317 470.580, 1031.788 472.877, 1033.998 474.119 C 1039.848 477.407, 1041.245 479.979, 1040.034 485.230 C 1038.672 491.132, 1038.758 494.999, 1040.250 495.006 C 1040.938 495.010, 1042.850 495.731, 1044.500 496.610 C 1046.150 497.488, 1049.097 498.783, 1051.048 499.488 C 1055.458 501.080, 1058 499.624, 1058 495.504 C 1058 493.836, 1058.988 491.814, 1060.477 490.434 C 1061.929 489.088, 1063.216 486.499, 1063.587 484.179 C 1064.028 481.420, 1064.945 479.832, 1066.610 478.941 C 1068.615 477.868, 1069 476.897, 1069 472.913 C 1069 465.830, 1069.572 465, 1074.451 465 C 1077.591 465, 1079.442 464.331, 1081.594 462.417 C 1083.193 460.996, 1085.737 459.377, 1087.250 458.819 C 1088.763 458.261, 1090 457.414, 1090 456.937 C 1090 455.466, 1086.307 454, 1082.601 454 C 1073.313 454, 1062.872 447.929, 1059.468 440.550 C 1058.187 437.773, 1056.292 434.453, 1055.257 433.173 L 1053.375 430.846 1050.867 434.099" stroke="#b10e0e" fill="#b10e0e" fill-opacity="0.2" fill-rule="evenodd"/><path class="svg-region-LBl" d="M 808.528 362.381 C 807.138 363.771, 806 366.061, 806 367.468 C 806 368.876, 805.572 370.809, 805.049 371.764 C 804.526 372.719, 803.819 376.087, 803.477 379.250 C 802.767 385.824, 800.609 387.047, 798.813 381.894 C 797.794 378.972, 797.503 378.824, 793.890 379.402 C 791.447 379.792, 788.617 381.334, 786.110 383.639 C 782.619 386.848, 782.232 387.656, 782.725 390.695 C 783.140 393.251, 782.736 394.866, 781.141 397.023 C 779.964 398.616, 779 400.576, 779 401.379 C 779 402.711, 759.636 413, 757.127 413 C 756.570 413, 755.442 412.041, 754.620 410.868 C 753.128 408.738, 753.126 408.738, 750.080 412.074 L 747.032 415.411 744.977 413.206 C 743.847 411.992, 742.287 411, 741.511 411 C 740.734 411, 739.613 410.212, 739.018 409.250 C 737.997 407.600, 737.867 407.608, 736.718 409.403 C 736.048 410.449, 734.666 412.024, 733.647 412.903 C 730.226 415.851, 727 421.915, 727 425.396 C 727 430.493, 732.930 434.943, 740.733 435.702 C 743.905 436.011, 747.175 436.793, 748 437.439 C 750.239 439.192, 754.833 441, 757.051 441 C 758.127 441, 760.686 440.100, 762.739 439 C 764.850 437.869, 768.381 437, 770.869 437 C 775.956 437, 782.906 435.150, 784.821 433.286 C 785.548 432.579, 786.780 432, 787.559 432 C 788.338 432, 790.115 430.313, 791.508 428.250 C 792.901 426.188, 795.324 422.588, 796.893 420.252 C 798.461 417.915, 800.030 414.216, 800.379 412.032 C 800.728 409.848, 802.339 405.234, 803.958 401.780 C 809.600 389.743, 813.439 376.145, 813.471 368.092 C 813.504 359.675, 812.451 358.458, 808.528 362.381" stroke="#d7b230" fill="#d7b230" fill-opacity="0.2" fill-rule="evenodd"/><path class="svg-region-LBr" d="M 958 376.981 C 957.175 377.524, 955.284 377.976, 953.797 377.985 C 952.310 377.993, 949.948 378.522, 948.547 379.161 C 946.094 380.278, 946 380.651, 946 389.265 C 946 397.549, 946.222 398.538, 949 402.655 C 950.650 405.100, 952 407.434, 952 407.842 C 952 409.033, 960.252 416.646, 963.158 418.137 C 967.638 420.434, 977.665 430.529, 980.662 435.759 C 986.838 446.535, 990.557 449.144, 1000.667 449.792 C 1007.666 450.242, 1008.064 450.142, 1012.766 446.763 C 1017.263 443.533, 1021.521 441.280, 1026.500 439.498 C 1027.600 439.105, 1032.950 438.457, 1038.390 438.058 C 1048.072 437.349, 1048.338 437.262, 1051.113 433.917 C 1052.671 432.038, 1053.958 429.878, 1053.973 429.118 C 1054.002 427.637, 1050.409 421.356, 1048.287 419.179 C 1047.579 418.452, 1047 417.279, 1047 416.572 C 1047 415.866, 1045.349 413.085, 1043.331 410.394 C 1041.313 407.702, 1039.621 405.421, 1039.572 405.324 C 1039.522 405.227, 1036.561 404.706, 1032.991 404.165 C 1029.421 403.624, 1025.375 402.872, 1024 402.493 C 1021.870 401.905, 1021.982 402.112, 1024.750 403.887 C 1028.398 406.226, 1028.704 407.737, 1026.425 412.144 C 1024.966 414.966, 1024.544 415.151, 1020.675 414.660 C 1011.419 413.486, 993.705 410.002, 992.638 409.145 C 992.012 408.642, 990.044 407.920, 988.264 407.539 C 985.160 406.875, 982.291 403.897, 980.520 399.500 C 980.077 398.400, 979.441 392.775, 979.107 387 L 978.500 376.500 969 376.246 C 963.775 376.106, 958.825 376.437, 958 376.981 M 1015 403.090 C 1015 405.150, 1020.496 410, 1022.830 410 C 1026.145 410, 1025.030 407.727, 1021.172 406.620 C 1017.597 405.595, 1017.187 404.573, 1019.750 403.080 C 1021.200 402.236, 1020.942 402.056, 1018.250 402.030 C 1016.462 402.014, 1015 402.490, 1015 403.090" stroke="#d7b230" fill="#d7b230" fill-opacity="0.2" fill-rule="evenodd"/><path class="svg-region-PP" d="M 825.444 316.905 C 823.220 317.864, 821.447 322.632, 820.480 330.250 C 820.149 332.863, 819.510 335, 819.060 335 C 817.961 335, 816.221 339.596, 815.464 344.500 C 815.124 346.700, 813.934 350.848, 812.820 353.718 C 810.961 358.506, 810.926 359.069, 812.397 360.540 C 815.085 363.228, 814.387 371.399, 810.388 384.062 C 808.401 390.353, 805.513 398.200, 803.969 401.500 C 802.425 404.800, 800.830 409.300, 800.423 411.500 C 799.651 415.680, 797.012 421.095, 794.087 424.500 C 793.142 425.600, 791.601 427.738, 790.662 429.250 C 789.722 430.762, 788.361 432, 787.635 432 C 785.792 432, 787.032 439.580, 789.517 443.500 C 793.873 450.372, 804.730 457.729, 813.681 459.874 C 815.781 460.378, 822.675 462.139, 829 463.788 C 835.325 465.438, 842.525 467.088, 845 467.456 C 851.430 468.411, 858.666 471.988, 860.181 474.959 C 860.893 476.357, 863.206 479.599, 865.321 482.163 C 867.888 485.276, 869.349 488.186, 869.715 490.913 C 870.440 496.320, 872.060 496.179, 878.430 490.155 C 883.439 485.417, 888.962 481.635, 887.562 483.900 C 887.188 484.505, 887.359 485, 887.941 485 C 888.523 485, 889 484.442, 889 483.761 C 889 483.079, 890.548 484.313, 892.439 486.501 C 895.531 490.079, 895.940 490.280, 896.487 488.491 C 897.809 484.164, 900.874 479.437, 903.128 478.247 C 907.979 475.686, 916.665 472.151, 921.879 470.615 C 924.837 469.744, 927.762 468.668, 928.379 468.224 C 928.995 467.780, 931.300 466.846, 933.500 466.148 C 937.705 464.813, 943.369 462.651, 948.651 460.364 C 950.384 459.614, 952.317 459, 952.947 459 C 953.577 459, 956.205 457.875, 958.788 456.500 C 961.371 455.125, 964.275 454, 965.242 454 C 966.209 454, 967 453.550, 967 453 C 967 452.450, 967.480 452, 968.067 452 C 968.653 452, 970.566 450.935, 972.317 449.634 C 974.068 448.332, 977.638 446.471, 980.250 445.498 C 985.119 443.684, 985.671 443.102, 984.092 441.450 C 983.593 440.928, 981.963 438.250, 980.471 435.500 C 977.367 429.780, 968.403 420.766, 963.099 418.031 C 959.420 416.134, 953.663 410.705, 951.633 407.217 C 946.301 398.059, 946 397.088, 946 389.075 C 946 381.799, 946.205 380.960, 948.250 379.860 C 952.110 377.784, 958.125 376.735, 968.689 376.297 L 978.877 375.874 974.995 371.753 C 972.351 368.945, 970.900 366.335, 970.444 363.566 C 970.075 361.330, 969.302 358.916, 968.725 358.203 C 968.126 357.461, 967.424 348.680, 967.088 337.703 L 966.500 318.500 958.385 318.599 C 952.956 318.665, 949.567 319.190, 948.145 320.186 C 945.928 321.739, 941.889 326.889, 939.861 330.750 C 938.146 334.014, 934.524 333.590, 930.601 329.668 C 928.667 327.734, 925.313 325.787, 922.608 325.030 C 915.680 323.091, 902.511 324.279, 890.500 327.927 C 885 329.598, 879.185 330.973, 877.578 330.983 C 874.425 331.001, 862.450 326.591, 860 324.508 C 856.554 321.578, 849.109 318.553, 843.500 317.803 C 831.851 316.245, 827.478 316.027, 825.444 316.905" stroke="#c4743d" fill="#c4743d" fill-opacity="0.2" fill-rule="evenodd"/><path class="svg-region-LPl" d="M 787.656 444.796 C 786.840 448.626, 776.652 455.958, 772.113 455.982 C 767.290 456.008, 751.681 463.726, 752.442 465.710 C 752.761 466.540, 751.627 469.657, 749.922 472.636 C 747.189 477.412, 746.952 478.422, 747.911 481.176 C 748.510 482.893, 749.003 486.144, 749.007 488.399 C 749.014 493.129, 751.095 496.715, 756.924 502.043 C 760.531 505.340, 761 506.285, 761 510.249 L 761 514.728 756.360 515.364 C 748.930 516.382, 745.102 516.113, 742.465 514.385 C 741.109 513.497, 740 513.063, 740 513.420 C 740 514.564, 743.265 519.351, 747.555 524.500 C 749.847 527.250, 755.912 535.125, 761.032 542 C 766.152 548.875, 771.052 555.032, 771.921 555.683 C 776.865 559.388, 788.698 565.134, 792.439 565.647 C 798.170 566.432, 809.260 564.456, 815.500 561.538 C 818.250 560.251, 821.908 558.746, 823.630 558.193 C 826.555 557.254, 836 548.857, 836 547.197 C 836 546.784, 837.785 544.658, 839.967 542.473 C 842.149 540.288, 843.949 538.121, 843.967 537.658 C 844 536.806, 846.333 533.570, 851.138 527.709 C 852.589 525.939, 854.736 522.650, 855.908 520.401 C 857.080 518.152, 859.206 515.229, 860.631 513.906 C 864.317 510.484, 868.762 500.825, 869.464 494.711 C 870.118 489.017, 870.062 488.874, 863.139 478.667 C 858.379 471.650, 853.583 468.682, 845 467.441 C 842.525 467.084, 838.025 466.133, 835 465.329 C 831.975 464.524, 825.244 462.787, 820.042 461.468 C 807.012 458.164, 799.222 454.117, 793.194 447.522 L 788.232 442.092 787.656 444.796" stroke="#d2454f" fill="#d2454f" fill-opacity="0.2" fill-rule="evenodd"/><path class="svg-region-LPr" d="M 978.642 445.974 C 975.420 447.576, 972.045 449.494, 971.142 450.236 C 970.239 450.979, 968.150 452.164, 966.500 452.871 C 964.850 453.577, 961.362 455.245, 958.749 456.577 C 956.137 457.910, 953.505 459, 952.901 459 C 952.297 459, 950.384 459.645, 948.651 460.434 C 946.918 461.223, 941.900 463.098, 937.500 464.599 C 933.100 466.101, 929.050 467.659, 928.500 468.060 C 927.950 468.462, 924.575 469.701, 921 470.814 C 905.640 475.594, 897 481.386, 897 486.900 C 897 487.990, 896.565 489.151, 896.034 489.479 C 895.502 489.808, 898.806 493.773, 903.375 498.291 C 910.757 505.591, 911.827 507.117, 912.985 512.002 C 913.701 515.026, 915.258 518.484, 916.445 519.687 C 917.631 520.890, 919.911 524.378, 921.512 527.437 C 923.113 530.497, 924.725 533, 925.095 533 C 925.464 533, 926.111 534.013, 926.532 535.250 C 928.086 539.820, 928.628 540.722, 934.953 549.243 C 939.504 555.375, 942.598 558.518, 945.453 559.908 C 952.183 563.187, 958.916 566, 960.030 566 C 960.608 566, 963.883 566.905, 967.307 568.011 C 972.006 569.529, 975.365 569.920, 981.016 569.606 C 990.449 569.082, 992.145 568.551, 999.449 563.838 C 1002.721 561.727, 1005.769 560, 1006.224 560 C 1007.635 560, 1029.150 537.456, 1030.952 534.089 C 1031.636 532.812, 1032.666 532.274, 1033.765 532.619 C 1035.392 533.129, 1035.391 533.074, 1033.746 531.718 C 1032.781 530.923, 1031.506 528.880, 1030.912 527.177 C 1030.292 525.398, 1028.911 523.835, 1027.666 523.502 C 1026.475 523.184, 1022.462 521.938, 1018.750 520.735 C 1011.175 518.279, 1010.672 517.276, 1013.929 511.136 C 1014.990 509.136, 1016.827 504.350, 1018.012 500.500 C 1019.197 496.650, 1021.444 491.250, 1023.007 488.500 C 1024.570 485.750, 1027.045 481.188, 1028.508 478.363 L 1031.167 473.225 1028.675 469.277 C 1027.305 467.106, 1022.493 461.935, 1017.983 457.785 L 1009.783 450.239 1001.642 449.810 C 993.637 449.387, 988.781 447.588, 986.700 444.274 C 985.630 442.569, 985.394 442.619, 978.642 445.974" stroke="#d2454f" fill="#d2454f" fill-opacity="0.2" fill-rule="evenodd"/><path class="svg-region-DMl" d="M 799 317.164 C 791.387 318.237, 768.713 325.395, 765.038 327.885 C 763.642 328.831, 759.800 330.424, 756.500 331.424 C 753.200 332.425, 750.230 333.669, 749.900 334.188 C 748.139 336.960, 719.315 335.822, 708.500 332.552 C 705.750 331.721, 699.675 328.772, 695 325.999 C 684.056 319.507, 682.733 319.657, 681.751 327.500 C 679.942 341.941, 678.706 353.934, 678.453 359.500 C 678.303 362.800, 677.723 369.325, 677.164 374 C 676.605 378.675, 675.686 386.325, 675.122 391 C 673.807 401.890, 671.756 408.613, 666.817 418.223 C 664.634 422.470, 663.134 426.408, 663.483 426.973 C 663.832 427.538, 666.679 427.998, 669.809 427.996 C 677.494 427.991, 681.491 425.491, 684.186 419.005 C 686.670 413.029, 691.809 410.013, 699.566 409.978 C 702.301 409.966, 706.443 409.074, 708.859 407.978 C 711.257 406.890, 714.407 405.990, 715.859 405.978 C 717.312 405.966, 720.462 405.066, 722.859 403.978 C 729.052 401.168, 733.527 401.387, 736.548 404.646 C 737.896 406.101, 739 408.126, 739 409.146 C 739 410.166, 739.638 411, 740.418 411 C 741.198 411, 742.544 411.272, 743.410 411.604 C 744.402 411.985, 745.237 411.523, 745.672 410.354 C 746.050 409.334, 747.435 406.856, 748.749 404.847 C 750.661 401.923, 750.916 400.825, 750.025 399.347 C 749.173 397.932, 749.332 396.213, 750.706 392.003 C 752.297 387.127, 753.065 386.192, 757.500 383.729 C 761.860 381.308, 763.197 381.032, 767.943 381.573 C 771.226 381.946, 774.598 383.087, 776.443 384.448 C 778.124 385.690, 780.023 386.999, 780.663 387.358 C 781.303 387.717, 783.660 386.249, 785.901 384.095 C 788.621 381.482, 791.270 379.961, 793.867 379.523 C 797.542 378.902, 797.817 379.035, 798.827 381.933 C 800.609 387.045, 802.767 385.804, 803.494 379.250 C 803.845 376.087, 804.518 372.600, 804.989 371.500 C 805.459 370.400, 806.115 368.256, 806.445 366.735 C 806.775 365.214, 807.786 363.105, 808.690 362.049 C 810.961 359.396, 814.527 350.359, 815.362 345.140 C 815.743 342.756, 817.167 338.715, 818.527 336.161 C 819.887 333.606, 821 329.840, 821 327.792 C 821 323.357, 823.694 317.254, 825.915 316.657 C 829.033 315.820, 805.370 316.265, 799 317.164 M 753.267 404.250 C 751.915 405.978, 751.014 410, 751.979 410 C 752.945 410, 756 405.469, 756 404.035 C 756 402.613, 754.453 402.734, 753.267 404.250" stroke="#68533d" fill="#68533d" fill-opacity="0.2" fill-rule="evenodd"/><path class="svg-region-DMr" d="M 1093.352 318.993 C 1092.171 319.470, 1090.925 320.312, 1090.584 320.864 C 1090.242 321.417, 1087.597 322.557, 1084.706 323.397 C 1080.314 324.674, 1079.042 325.604, 1076.975 329.057 C 1072.342 336.790, 1062.707 345.107, 1060.702 343.102 C 1060.096 342.496, 1058.678 341.998, 1057.550 341.995 C 1056.422 341.992, 1053.700 340.881, 1051.500 339.526 C 1049.116 338.058, 1045.946 337.050, 1043.654 337.031 C 1041.539 337.014, 1038.614 336.162, 1037.154 335.139 C 1033.604 332.649, 1028.838 331.305, 1021 330.581 C 1017.425 330.251, 1011.575 328.901, 1008 327.580 C 994.453 322.577, 984.412 320.123, 975.621 319.666 L 966.743 319.205 967.194 338.036 C 967.460 349.164, 968.080 357.406, 968.709 358.183 C 969.295 358.908, 970.073 361.300, 970.440 363.500 C 971.383 369.169, 976.696 374.972, 980.311 374.281 C 981.876 373.982, 983 374.215, 983 374.838 C 983 375.427, 984.549 376.200, 986.442 376.555 C 988.335 376.910, 991.347 378.281, 993.136 379.600 C 994.925 380.920, 996.943 382, 997.622 382 C 998.300 382, 999.740 383.125, 1000.821 384.500 C 1001.903 385.875, 1003.240 387, 1003.793 387 C 1004.347 387, 1007.139 385.425, 1010 383.500 C 1012.861 381.575, 1015.562 380, 1016.003 380 C 1017.481 380, 1024 390.809, 1024 393.259 C 1024 395.922, 1020.130 398.371, 1017.510 397.365 C 1016.677 397.046, 1014.821 397.079, 1013.386 397.439 C 1010.865 398.072, 1010.836 398.162, 1012.543 400.047 C 1013.774 401.407, 1015.615 402, 1018.608 402 C 1020.972 402, 1023.940 402.434, 1025.203 402.965 C 1026.466 403.496, 1034.843 404.591, 1043.818 405.399 C 1056.283 406.522, 1061.071 407.356, 1064.098 408.934 C 1071.134 412.602, 1075 411.544, 1075 405.952 C 1075 403.843, 1075.416 401.861, 1075.925 401.546 C 1078.116 400.192, 1092.059 408.640, 1093.747 412.344 C 1094.424 413.830, 1096.016 414.953, 1098.010 415.352 C 1099.761 415.702, 1103.197 417.341, 1105.647 418.994 C 1111.226 422.760, 1112 422.750, 1112 418.913 C 1112 414.179, 1107.997 391.881, 1106.540 388.500 C 1104.290 383.276, 1102.001 367.688, 1101.976 357.414 C 1101.963 351.961, 1101.474 345.700, 1100.889 343.500 C 1100.304 341.300, 1099.449 336.524, 1098.989 332.888 C 1098.231 326.908, 1096.241 317.905, 1095.711 318.063 C 1095.595 318.098, 1094.534 318.517, 1093.352 318.993" stroke="#68533d" fill="#68533d" fill-opacity="0.2" fill-rule="evenodd"/><path class="svg-region-PMl" d="M 721.891 259.864 C 718.926 261.439, 715.410 263.069, 714.077 263.486 C 711.475 264.301, 711.354 264.382, 705.868 268.965 C 703.870 270.634, 701.936 272, 701.569 272 C 701.203 272, 698.123 273.846, 694.726 276.103 C 689.851 279.341, 688.228 279.972, 687.025 279.096 C 684.465 277.234, 682.948 276.719, 682.207 277.460 C 681.277 278.391, 681.400 301.139, 682.395 312.250 C 683.004 319.039, 683.518 321, 684.689 321 C 685.519 321, 690.416 323.482, 695.571 326.516 C 707.092 333.296, 714.637 335.066, 733.102 335.320 L 746.236 335.500 748.224 329.500 C 750.756 321.855, 751.777 300.824, 750.112 290.622 C 746.694 269.689, 745.644 265.494, 743.138 262.750 C 741.756 261.238, 739.865 260, 738.935 260 C 738.006 260, 736.685 259.325, 736 258.500 C 734.013 256.105, 727.843 256.702, 721.891 259.864" stroke="#90cf92" fill="#90cf92" fill-opacity="0.2" fill-rule="evenodd"/><path class="svg-region-PMr" d="M 1030.750 250.162 L 1028 251.167 1028 261.518 C 1028 267.212, 1027.546 273.063, 1026.992 274.522 C 1025.478 278.502, 1025.296 300.785, 1026.738 305.500 C 1027.411 307.700, 1031.683 315.438, 1036.231 322.696 C 1043.946 335.007, 1044.884 336.096, 1050.231 338.946 C 1053.383 340.626, 1056.781 342, 1057.781 342 C 1058.781 342, 1060.105 342.505, 1060.723 343.123 C 1062.769 345.169, 1072.213 337.008, 1076.942 329.108 C 1078.666 326.228, 1080.430 324.709, 1082.942 323.943 C 1084.899 323.346, 1089.081 321.653, 1092.235 320.179 C 1096.946 317.978, 1097.876 317.143, 1097.445 315.500 C 1097.156 314.400, 1096.717 307.650, 1096.469 300.500 C 1095.987 286.597, 1095.077 275, 1094.467 275 C 1094.262 275, 1092.970 275.512, 1091.597 276.138 C 1089.607 277.044, 1088.400 276.943, 1085.649 275.638 C 1083.751 274.737, 1080.760 274, 1079.003 274 C 1077.246 274, 1074.614 273.365, 1073.154 272.589 C 1071.694 271.814, 1067.350 270.184, 1063.500 268.968 C 1059.650 267.752, 1055.927 266.298, 1055.226 265.736 C 1054.471 265.132, 1051.357 264.958, 1047.588 265.310 C 1042.337 265.800, 1040.971 265.606, 1039.781 264.202 C 1037.920 262.005, 1035 254.075, 1035 251.217 C 1035 248.771, 1034.737 248.706, 1030.750 250.162" stroke="#90cf92" fill="#90cf92" fill-opacity="0.2" fill-rule="evenodd"/><path class="svg-region-PV" d="M 755.014 142.750 C 755.034 149.702, 755.764 151.476, 760.015 154.891 L 763.845 157.969 769.023 154.485 C 776.236 149.631, 778.842 149.857, 783.422 155.736 C 785.451 158.340, 789.103 161.711, 791.537 163.226 C 796.861 166.539, 804.335 176.480, 806.576 183.230 C 807.471 185.925, 807.961 188.372, 807.664 188.669 C 806.555 189.778, 802.019 187.357, 797.044 183 C 794.218 180.525, 788.671 176.689, 784.716 174.475 C 778.073 170.755, 777.477 170.150, 776.886 166.516 C 776.535 164.352, 775.733 162.411, 775.106 162.202 C 774.478 161.993, 773.256 161.114, 772.391 160.249 C 771.054 158.911, 770.685 158.887, 769.925 160.088 C 768.695 162.031, 768.780 163.225, 770.314 165.527 C 773.717 170.633, 777 180.378, 777 185.370 C 777 189.446, 777.651 191.635, 779.934 195.234 C 781.547 197.779, 783.345 201.579, 783.928 203.680 C 785.508 209.371, 785.240 222.078, 783.433 227.124 C 781.295 233.096, 782.139 237.200, 787.498 246.888 C 792.985 256.808, 795.204 261.647, 797.868 269.500 C 800.609 277.580, 806.628 299.539, 807.462 304.500 C 807.832 306.700, 809.211 310.150, 810.527 312.168 L 812.919 315.835 825.210 316.341 C 844.452 317.132, 852.093 318.957, 859.750 324.589 C 861.096 325.579, 862 325.793, 862 325.122 C 862 323.309, 863.930 323.828, 866.298 326.280 C 868.206 328.254, 873.043 331, 874.614 331 C 874.901 331, 874.854 330.114, 874.510 329.032 C 873.930 327.204, 874.120 327.145, 877.193 328.196 C 879.012 328.818, 880.766 329.727, 881.091 330.215 C 881.431 330.726, 882.703 330.696, 884.091 330.143 C 892.096 326.956, 902.729 324.565, 911.500 323.980 C 917 323.614, 919.925 323.240, 918 323.151 L 914.500 322.988 917.364 321.494 C 921.676 319.245, 926.584 319.568, 928.443 322.223 C 930.520 325.188, 930.413 325.802, 927.750 326.180 C 925.905 326.443, 926.354 326.906, 930.250 328.755 C 932.862 329.995, 935 331.458, 935 332.005 C 935 332.552, 935.788 332.998, 936.750 332.995 C 937.775 332.992, 940.071 330.595, 942.289 327.211 C 944.373 324.033, 947.017 320.846, 948.164 320.130 C 949.311 319.413, 953.609 318.573, 957.714 318.262 C 963.337 317.837, 965.304 317.303, 965.686 316.099 C 966.365 313.958, 971.778 299.504, 973.775 294.500 C 974.653 292.300, 976.863 288.361, 978.685 285.748 C 980.508 283.134, 982 280.631, 982 280.185 C 982 279.739, 983.138 277.016, 984.528 274.134 C 985.919 271.251, 988.229 264.755, 989.662 259.697 C 991.095 254.638, 993.067 248.813, 994.043 246.750 C 995.434 243.811, 995.526 243, 994.468 243 C 993.726 243, 992.840 243.450, 992.500 244 C 991.397 245.784, 987.570 245.058, 984.594 242.499 C 982.655 240.831, 980.487 240, 978.077 240 C 974.061 240, 967 235.846, 967 233.483 C 967 232.688, 965.763 231.767, 964.250 231.436 C 959.302 230.351, 959 230.096, 959 227.003 C 959 223.909, 963.923 212.976, 966.771 209.746 C 967.622 208.781, 969.934 207.549, 971.909 207.009 C 973.884 206.469, 977.188 204.468, 979.250 202.564 C 982.963 199.137, 983 199.024, 983.019 191.301 C 983.038 183.355, 986.524 167.337, 989.148 163.134 C 989.870 161.979, 992.044 160.368, 993.980 159.554 C 999.135 157.389, 1001.668 154.903, 1002.323 151.368 C 1003.084 147.259, 1002.387 146.749, 998.649 148.682 C 996.090 150.005, 993.504 150.173, 983.776 149.650 C 972.995 149.070, 969.922 149.598, 973 151.500 C 975.224 152.874, 973.775 157.653, 969 164.690 C 966.250 168.743, 964 172.309, 964 172.613 C 964 172.918, 962.413 174.708, 960.473 176.592 C 958.534 178.475, 956.673 181.387, 956.337 183.063 C 955.865 185.423, 955.364 185.938, 954.114 185.350 C 951.053 183.908, 944.908 184.738, 942.601 186.905 C 939.391 189.920, 938.163 189.505, 937.810 185.285 C 937.530 181.929, 937.163 181.502, 934 180.859 C 931.544 180.360, 930.029 180.573, 928.921 181.574 C 928.053 182.358, 926.696 183, 925.906 183 C 925.117 183, 922.677 184.012, 920.485 185.250 C 916.680 187.399, 915.486 187.500, 894 187.500 C 871.881 187.500, 871.390 187.455, 865 184.820 C 861.425 183.346, 854.677 181.150, 850.005 179.940 C 842.278 177.938, 840.695 177.840, 832.480 178.849 C 827.514 179.460, 821.122 179.683, 818.276 179.346 C 813.744 178.810, 812.356 178.036, 807.091 173.117 C 803.786 170.028, 799.600 166.301, 797.790 164.835 C 794.569 162.227, 794.493 161.980, 794.151 153.089 L 793.801 144.008 789.651 144.650 C 787.368 145.004, 782.130 146.352, 778.012 147.646 C 773.894 148.941, 770.434 150, 770.323 150 C 770.082 150, 761.387 142.691, 758.359 139.943 C 757.182 138.874, 755.944 138, 755.609 138 C 755.274 138, 755.006 140.137, 755.014 142.750 M 937 322.893 C 937 324.017, 939.601 325.066, 940.402 324.264 C 941.606 323.061, 940.949 322, 939 322 C 937.900 322, 937 322.402, 937 322.893" stroke="#b09658" fill="#b09658" fill-opacity="0.2" fill-rule="evenodd"/><path class="svg-region-LPVl" d="M 749.325 232.540 C 744.763 236.366, 743.611 239.574, 744.851 245 C 745.792 249.119, 744.539 252.626, 741.878 253.322 C 738.894 254.102, 739.445 259.094, 742.878 262.383 C 744.618 264.050, 745.978 266.595, 746.318 268.820 C 746.628 270.844, 747.808 277.817, 748.941 284.316 C 752.148 302.719, 751.585 320.338, 747.440 331.250 C 746.090 334.805, 746.120 335, 748.008 335 C 749.104 335, 750 334.609, 750 334.132 C 750 333.654, 752.799 332.478, 756.220 331.518 C 759.641 330.558, 764.021 328.699, 765.952 327.387 C 767.884 326.074, 770.053 325, 770.772 325 C 771.492 325, 776.675 323.449, 782.290 321.554 C 787.906 319.658, 796.517 317.611, 801.426 317.004 C 806.336 316.397, 810.714 315.677, 811.154 315.405 C 811.595 315.132, 811.066 313.251, 809.980 311.223 C 808.893 309.195, 807.729 305.953, 807.394 304.018 C 806.591 299.390, 799.186 272.613, 797.294 267.500 C 794.741 260.599, 793.892 258.614, 791.735 254.500 C 790.582 252.300, 787.885 247.125, 785.743 243 C 782.768 237.270, 781.409 235.571, 779.983 235.803 C 778.309 236.075, 773.690 234.472, 764.349 230.380 C 758.775 227.939, 753.993 228.626, 749.325 232.540" stroke="#494949" fill="#494949" fill-opacity="0.2" fill-rule="evenodd"/><path class="svg-region-LPVr" d="M 998.759 239.075 C 996.415 240.441, 992.859 248.523, 989.656 259.768 C 988.203 264.866, 985.887 271.264, 984.508 273.985 C 983.128 276.707, 982 279.397, 982 279.964 C 982 280.531, 980.465 283.134, 978.589 285.748 C 976.713 288.361, 974.422 292.525, 973.496 295 C 972.571 297.475, 971.418 300.400, 970.935 301.500 C 966.627 311.297, 964.806 318.931, 966.750 319.044 C 983.027 319.990, 993.476 321.970, 1003.500 326.008 C 1010.830 328.961, 1014.461 329.941, 1020.105 330.486 C 1027.296 331.181, 1035 332.940, 1035 333.886 C 1035 334.981, 1040.873 337.158, 1042.924 336.823 C 1044.647 336.541, 1043.786 334.699, 1036.149 322.335 C 1025.374 304.889, 1024.364 301.090, 1026.090 284.500 C 1026.719 278.450, 1027.432 268.531, 1027.674 262.458 C 1028.103 251.686, 1028.052 251.355, 1025.581 248.958 C 1018.769 242.347, 1017.122 241.833, 1010.872 244.367 C 1004.616 246.903, 1002.346 247.132, 1002.352 245.226 C 1002.373 237.974, 1001.935 237.225, 998.759 239.075" stroke="#494949" fill="#494949" fill-opacity="0.2" fill-rule="evenodd"/><path class="svg-region-PCl" d="M 695 182.427 C 695 182.797, 695.725 184.502, 696.612 186.216 C 697.977 188.856, 698.113 191.394, 697.502 202.807 C 696.817 215.583, 696.222 218.364, 692.368 226.798 C 691.539 228.612, 689.764 234.420, 688.423 239.704 C 687.083 244.989, 685.469 249.935, 684.838 250.695 C 684.169 251.501, 683.521 257.172, 683.285 264.289 L 682.879 276.500 685.583 278.405 C 687.686 279.886, 688.643 280.059, 689.893 279.182 C 690.777 278.562, 692.942 277.326, 694.704 276.436 C 696.466 275.545, 698.434 274.182, 699.076 273.408 C 699.719 272.634, 700.688 272, 701.229 272 C 702.048 272, 709.319 266.807, 711 265.021 C 711.275 264.728, 713.300 263.859, 715.500 263.090 C 717.700 262.320, 720.635 260.851, 722.023 259.825 C 723.411 258.799, 726.889 257.682, 729.752 257.343 C 734.023 256.837, 735.071 257.020, 735.586 258.363 C 736.481 260.697, 740 260.473, 740 258.082 C 740 255.200, 741.062 253, 742.454 253 C 744.580 253, 745.753 248.847, 744.811 244.655 C 744.331 242.518, 744.213 239.904, 744.549 238.846 C 744.993 237.448, 744.042 235.837, 741.079 232.961 C 738.834 230.782, 736.661 228.999, 736.249 228.997 C 735.837 228.995, 732.350 226.088, 728.500 222.538 C 724.650 218.987, 721.203 216.063, 720.841 216.041 C 719.499 215.958, 703 196.516, 703 195.018 C 703 194.164, 701.875 191.809, 700.500 189.785 C 699.125 187.762, 698 185.687, 698 185.175 C 698 184.664, 697.325 183.685, 696.500 183 C 695.675 182.315, 695 182.058, 695 182.427" stroke="#465ee0" fill="#465ee0" fill-opacity="0.2" fill-rule="evenodd"/><path class="svg-region-PCr" d="M 1064.779 180.250 C 1063.981 181.488, 1062.771 184.750, 1062.089 187.500 C 1061.407 190.250, 1060.266 193.175, 1059.552 194 C 1058.838 194.825, 1055.497 200.942, 1052.127 207.594 C 1046.924 217.865, 1045.993 220.504, 1045.956 225.094 C 1045.932 228.067, 1045.353 233.200, 1044.669 236.500 C 1043.608 241.620, 1043.077 242.550, 1041.050 242.841 C 1035.456 243.644, 1033.668 249.817, 1036.669 257.967 C 1039.415 265.421, 1040.457 266.161, 1047.149 265.404 C 1051.863 264.870, 1053.758 265.136, 1057.378 266.838 C 1059.822 267.986, 1063.999 269.463, 1066.661 270.118 C 1069.322 270.774, 1072.388 271.916, 1073.473 272.655 C 1074.557 273.395, 1076.942 274, 1078.772 274 C 1080.602 274, 1083.457 274.702, 1085.117 275.561 C 1092.296 279.273, 1095.876 274.850, 1094.073 264.497 C 1092.549 255.746, 1085.292 238.642, 1078.317 227.361 C 1067.535 209.924, 1067.924 210.867, 1067.346 200.775 C 1067.054 195.674, 1066.876 188.463, 1066.951 184.750 C 1067.027 181.037, 1066.895 178, 1066.659 178 C 1066.423 178, 1065.577 179.012, 1064.779 180.250" stroke="#465ee0" fill="#465ee0" fill-opacity="0.2" fill-rule="evenodd"/><path class="svg-region-DV" d="M 796.155 142.568 C 793.944 144.151, 793.830 144.756, 794.155 153.209 C 794.492 161.969, 794.574 162.231, 797.794 164.835 C 799.605 166.301, 803.752 170.027, 807.008 173.116 C 812.158 178.002, 813.604 178.822, 818.111 179.420 C 820.961 179.798, 827.389 179.599, 832.396 178.977 C 838.604 178.206, 842.772 178.162, 845.500 178.838 C 854.942 181.179, 864.466 184.195, 867.372 185.762 C 869.962 187.160, 874.234 187.514, 892.198 187.822 C 913.843 188.193, 913.910 188.188, 919.386 185.597 C 922.406 184.169, 925.370 183, 925.973 183 C 926.577 183, 928.067 182.382, 929.285 181.628 C 930.881 180.639, 932.409 180.507, 934.750 181.156 C 937.619 181.952, 938 182.464, 938 185.529 C 938 189.483, 939.372 189.938, 942.484 187.015 C 944.747 184.889, 950.083 184.106, 953.750 185.363 C 955.460 185.950, 956 185.755, 956 184.554 C 956 182.289, 957.968 179.169, 962.103 174.877 C 964.085 172.821, 966.422 169.644, 967.295 167.819 C 968.169 165.994, 970.035 162.950, 971.442 161.056 C 974.384 157.094, 974.803 151.912, 972.346 149.873 C 970.495 148.336, 959.009 147.345, 929.500 146.175 C 919.050 145.761, 910.017 145.767, 909.426 146.187 C 908.836 146.608, 907.936 146.553, 907.426 146.065 C 906.917 145.578, 890.975 144.900, 872 144.560 C 853.025 144.220, 833.675 143.484, 829 142.924 C 824.325 142.364, 815.550 141.677, 809.500 141.397 C 800.248 140.970, 798.127 141.156, 796.155 142.568" stroke="#45567a" fill="#45567a" fill-opacity="0.2" fill-rule="evenodd"/><path class="svg-region-B" d="M 812.939 638.354 C 808.371 639.597, 803.466 642.528, 801.017 645.480 C 800.299 646.345, 795.904 649.128, 791.251 651.664 C 775.904 660.030, 771.509 666.823, 769.835 684.769 C 768.752 696.374, 766.893 726.335, 766.743 734.608 C 766.619 741.426, 770.390 751.286, 774.925 755.999 C 776.972 758.127, 781.065 760.738, 784.500 762.108 C 789.783 764.214, 792.054 764.494, 803.500 764.448 C 820.037 764.381, 825.485 762.531, 833.401 754.293 C 842.502 744.821, 856 713.003, 856 701.021 C 856 694.819, 852.213 676.236, 848.926 666.310 C 845.044 654.583, 836.416 643.799, 828 640.153 C 821.545 637.356, 818.115 636.946, 812.939 638.354 M 953.500 642.912 C 946.488 644.858, 935.178 651.252, 930.758 655.769 C 922.744 663.960, 915.219 682.760, 911.630 703.554 C 909.410 716.418, 911.763 727.603, 919.321 740.106 C 922.605 745.539, 923.957 746.913, 929.457 750.404 C 943.558 759.355, 955.439 760.845, 969.096 755.376 C 978.719 751.522, 990.575 743.607, 993.584 739.028 C 997.205 733.516, 997.949 727.994, 997.976 706.425 C 998.002 684.399, 995.810 667.455, 991.876 659.272 C 989.004 653.300, 980.939 646.363, 974.653 644.459 C 968.401 642.565, 957.596 641.775, 953.500 642.912" stroke="#e23b33" fill="#e23b33" fill-opacity="0.2" fill-rule="evenodd"/><path class="svg-region-Ol" d="M 512 269.701 C 509.525 269.894, 505.025 270.574, 502 271.211 C 498.975 271.848, 496.075 272.257, 495.556 272.120 C 495.037 271.983, 493.012 272.523, 491.056 273.320 C 489.100 274.116, 485.025 275.319, 482 275.993 C 478.975 276.667, 475.113 278.009, 473.419 278.976 C 471.724 279.943, 468.574 281.305, 466.419 282.004 C 464.263 282.703, 460.009 284.521, 456.965 286.043 C 453.920 287.566, 448.070 289.823, 443.965 291.058 C 439.859 292.293, 434.250 294.307, 431.500 295.534 C 428.750 296.761, 425.375 298.096, 424 298.501 C 422.625 298.906, 420.825 299.774, 420 300.431 C 419.175 301.087, 416.475 302.479, 414 303.523 C 407.738 306.164, 386.694 319.478, 385.028 321.853 C 384.738 322.267, 382.707 323.932, 380.515 325.553 C 378.323 327.174, 375.554 329.638, 374.362 331.029 C 373.169 332.420, 371.025 334.184, 369.597 334.948 C 368.169 335.713, 367 336.747, 367 337.246 C 367 338.481, 362 343.394, 359.241 344.871 C 358.009 345.531, 357 346.697, 357 347.462 C 357 348.227, 356.402 348.999, 355.671 349.177 C 353.265 349.762, 327 380.170, 327 382.371 C 327 382.714, 325.485 385.134, 323.633 387.748 C 315.988 398.539, 305.903 417.609, 301.306 429.967 C 295.038 446.815, 288.969 467.652, 289.319 471.123 C 289.395 471.880, 288.847 476.517, 288.101 481.426 C 286.404 492.584, 287.143 512.558, 289.489 518.940 C 290.386 521.381, 292.219 525.700, 293.560 528.536 C 294.902 531.372, 296 534.223, 296 534.871 C 296 535.518, 297.462 538.186, 299.250 540.799 C 301.038 543.412, 303.145 547.222, 303.933 549.266 C 304.721 551.309, 306.184 553.241, 307.183 553.558 C 308.182 553.875, 309 554.695, 309 555.380 C 309 556.065, 310.350 557.919, 312 559.500 C 313.650 561.081, 315 563.241, 315 564.300 C 315 565.359, 317.025 568.919, 319.500 572.212 C 321.975 575.504, 324 578.581, 324 579.049 C 324 579.517, 325.289 581.835, 326.865 584.200 C 337.145 599.628, 341.568 606.685, 343.033 609.996 C 343.640 611.368, 345.165 613.843, 346.420 615.496 C 347.676 617.148, 349.507 620.075, 350.489 622 C 351.471 623.925, 353.491 627.075, 354.979 629 C 359.493 634.839, 368.515 653.358, 367.582 654.868 C 367.268 655.375, 367.684 656.048, 368.506 656.364 C 369.328 656.679, 370 657.651, 370 658.523 C 370 659.395, 372.869 664.696, 376.375 670.304 C 379.881 675.912, 383.719 682.300, 384.903 684.500 C 386.087 686.700, 387.831 689.670, 388.778 691.101 C 392.096 696.113, 394.458 699.504, 394.977 700 C 395.694 700.685, 397.862 704.174, 398.706 706 C 399.680 708.107, 401.075 709.828, 404.250 712.838 C 405.762 714.272, 407 716.190, 407 717.100 C 407 718.010, 407.667 719.309, 408.483 719.986 C 410.019 721.260, 424 743.496, 424 744.664 C 424 745.323, 427.348 750.866, 433.668 760.669 C 435.500 763.513, 437 766.325, 437 766.919 C 437 767.514, 437.450 768, 438 768 C 438.550 768, 439 768.679, 439 769.509 C 439 770.338, 440.288 772.795, 441.862 774.968 C 443.436 777.141, 445.310 780.399, 446.027 782.209 C 446.743 784.019, 447.883 786.175, 448.559 787 C 449.235 787.825, 451.787 792.100, 454.230 796.500 C 461.913 810.340, 463.165 812.457, 464.669 814.153 C 465.475 815.062, 467.567 818.071, 469.317 820.838 C 476.113 831.582, 496.059 849.673, 509 856.830 C 530.649 868.804, 567.335 870.950, 594.500 861.833 C 607.217 857.565, 621.584 848.766, 629.500 840.395 C 639.236 830.101, 642.121 826.764, 647.137 820 C 654.234 810.429, 661.273 799.410, 662.926 795.283 C 663.635 793.514, 664.887 791.508, 665.709 790.826 C 666.531 790.144, 669.646 785.967, 672.633 781.543 C 681.833 767.913, 688.302 758.711, 693.066 752.476 C 695.577 749.189, 700.220 742.675, 703.384 738 C 706.548 733.325, 710.406 727.700, 711.956 725.500 C 719.375 714.974, 730.074 693.598, 734.228 681 C 743.437 653.075, 746.251 630.131, 744.101 600.500 C 742.476 578.101, 740.464 572.525, 730.301 562.261 L 723.671 555.566 721.884 545.616 C 720.901 540.143, 719.137 533.154, 717.965 530.083 C 715.200 522.842, 709.702 512.019, 708.783 512.008 C 707.828 511.997, 701 505.138, 701 504.189 C 701 503.780, 700.245 502.368, 699.323 501.051 C 698 499.162, 697.526 498.971, 697.073 500.145 C 696.574 501.440, 695.399 501.468, 688 500.359 C 676.078 498.572, 644.132 498.626, 634.603 500.449 C 626.791 501.944, 620.757 504.860, 615.442 509.710 C 613.760 511.244, 610.413 513.850, 608.003 515.500 C 602.019 519.598, 599.136 522.612, 598.402 525.535 C 598.062 526.891, 597.305 528, 596.720 528 C 595.053 528, 592.093 531.063, 592.522 532.344 C 592.734 532.980, 590.059 535.975, 586.576 539 C 582.063 542.919, 580.051 545.434, 579.576 547.750 C 579.209 549.538, 578.580 551, 578.177 551 C 576.722 551, 573.871 546.779, 574.398 545.406 C 574.767 544.442, 574.193 544, 572.574 544 C 570.457 544, 566.744 541.079, 563.250 536.664 C 562.563 535.795, 562 533.989, 562 532.649 C 562 529.477, 560.151 528.730, 550.633 528.057 L 542.765 527.500 540.997 521.771 C 539.353 516.441, 539.343 515.843, 540.865 513.192 C 543.913 507.880, 544.496 507.244, 548.037 505.361 C 553.553 502.428, 556.304 499.888, 559.523 494.752 C 561.161 492.140, 562.837 490.003, 563.250 490.002 C 565.621 489.996, 562.394 485.951, 548.750 471.823 C 543.786 466.683, 542.984 465, 545.500 465 C 546.325 465, 547 464.550, 547 464 C 547 463.450, 547.788 462.993, 548.750 462.985 C 551.231 462.964, 557.845 460.555, 559.232 459.168 C 559.874 458.526, 560.916 458, 561.546 458 C 563.232 458, 569.034 455.060, 572.683 452.358 C 575.177 450.510, 577.137 450, 581.733 450 C 584.960 450, 588.027 450.414, 588.550 450.919 C 590.043 452.364, 600.666 454, 608.549 454 C 613.980 454, 616.312 453.553, 618.115 452.166 C 619.427 451.157, 622.838 449.245, 625.696 447.916 C 629.726 446.042, 630.773 445.097, 630.363 443.702 C 630.073 442.713, 630.270 441.363, 630.802 440.702 C 631.334 440.041, 632.075 438.070, 632.448 436.323 C 633.175 432.919, 637.409 428, 639.612 428 C 640.685 428, 640.821 426.058, 640.294 418.250 C 639.932 412.887, 639.693 407.600, 639.763 406.500 C 641.200 383.909, 641.134 369.376, 639.557 360.814 C 638.613 355.691, 637.436 350.600, 636.941 349.500 C 636.446 348.400, 635.593 346.262, 635.045 344.750 C 634.498 343.238, 633.588 342, 633.025 342 C 632.461 342, 632 341.180, 632 340.178 C 632 337.386, 628.928 329, 627.906 329 C 627.408 329, 627.070 328.663, 627.156 328.250 C 627.513 326.531, 622.493 317.166, 618.885 312.821 C 616.748 310.247, 615 307.686, 615 307.130 C 615 306.573, 612.213 303.729, 608.808 300.809 C 605.402 297.889, 600.339 293.295, 597.558 290.600 C 594.776 287.905, 590.925 285.041, 589 284.236 C 587.075 283.430, 584.375 281.999, 583 281.055 C 581.483 280.014, 574.796 278.450, 566 277.081 C 558.025 275.839, 549.709 274.150, 547.520 273.327 C 542.607 271.482, 526.114 268.938, 520.587 269.175 C 518.339 269.271, 514.475 269.508, 512 269.701" stroke="#aa444d" fill="#aa444d" fill-opacity="0.2" fill-rule="evenodd"/><path class="svg-region-Or" d="M 1241.614 252.004 C 1237.276 253.112, 1230.301 255.885, 1226.114 258.165 C 1221.926 260.446, 1215.755 263.704, 1212.400 265.406 C 1209.044 267.108, 1203.686 270.750, 1200.491 273.500 C 1189.757 282.740, 1187.524 284.512, 1181.636 288.465 C 1178.411 290.629, 1173.686 294.840, 1171.136 297.822 C 1168.586 300.804, 1165.130 304.651, 1163.456 306.372 C 1161.781 308.092, 1159.814 310.962, 1159.084 312.750 C 1158.354 314.538, 1157.362 316, 1156.879 316 C 1156.395 316, 1155.999 316.563, 1155.998 317.250 C 1155.997 317.938, 1154.696 320.975, 1153.107 324 C 1146.710 336.176, 1144.277 350.331, 1142.016 388.500 C 1141.593 395.650, 1140.752 403.300, 1140.147 405.500 C 1139.542 407.700, 1139.037 413.212, 1139.024 417.750 C 1139.011 422.298, 1138.572 426, 1138.047 426 C 1137.522 426, 1137.718 427.238, 1138.481 428.750 C 1139.244 430.262, 1141.094 434.082, 1142.591 437.237 C 1147.604 447.799, 1149.298 448.310, 1175.009 447.012 C 1206.772 445.407, 1207.699 445.462, 1213.511 449.259 C 1218.292 452.383, 1220.492 456.335, 1218.314 457.887 C 1215.456 459.923, 1214 464.329, 1214 470.939 L 1214 477.948 1206.500 482.065 C 1202.375 484.328, 1199 486.834, 1199 487.632 C 1199 491.618, 1191.111 496.004, 1182.588 496.757 C 1179.240 497.052, 1176.206 497.747, 1175.846 498.301 C 1175.486 498.855, 1170.990 499.439, 1165.855 499.598 C 1157.318 499.864, 1156.004 499.643, 1150.509 497.021 C 1147.204 495.443, 1139.100 491.598, 1132.500 488.476 C 1125.900 485.353, 1120.275 482.471, 1120 482.071 C 1118.210 479.467, 1112.115 478, 1103.096 478.004 C 1092.013 478.008, 1090.711 478.571, 1081.423 487.374 C 1078.165 490.461, 1074.713 492.990, 1073.750 492.994 C 1071.373 493.002, 1071.489 496.437, 1074.004 500.506 C 1075.772 503.367, 1075.831 503.895, 1074.504 504.997 C 1073.677 505.683, 1073 506.864, 1073 507.620 C 1073 508.377, 1071.501 511.134, 1069.669 513.748 C 1067.836 516.361, 1065.590 520.530, 1064.677 523.010 C 1062.552 528.786, 1059.048 544.597, 1059.028 548.500 C 1058.997 554.691, 1055.705 569.514, 1054.025 571.027 C 1053.092 571.867, 1051.202 574.797, 1049.825 577.539 C 1048.448 580.281, 1045.853 584.094, 1044.058 586.012 C 1037.868 592.627, 1031.019 610.615, 1029.402 624.500 C 1027.938 637.076, 1030.122 662.623, 1033.145 668.271 C 1033.726 669.356, 1033.928 671.609, 1033.594 673.278 C 1032.857 676.964, 1034.581 691.292, 1036.750 699.500 C 1038.569 706.386, 1044.325 719.050, 1047.701 723.594 C 1048.965 725.296, 1050 727.050, 1050 727.491 C 1050 729.216, 1058.145 738.184, 1073.624 753.500 C 1082.517 762.300, 1093.484 773.775, 1097.994 779 C 1114.033 797.579, 1118.563 802.327, 1126.980 809.381 C 1142.298 822.219, 1144.402 822.992, 1169.500 825.001 C 1181.652 825.973, 1187.295 826.570, 1212.500 829.551 C 1230.219 831.646, 1238.553 831.497, 1246.993 828.933 C 1261.462 824.539, 1272.874 817.235, 1291.710 800.316 C 1299.469 793.346, 1313 777.973, 1313 776.127 C 1313 775.507, 1313.381 775, 1313.847 775 C 1314.312 775, 1316.675 771.830, 1319.097 767.956 C 1321.518 764.082, 1324.936 758.732, 1326.690 756.067 C 1328.445 753.403, 1330.587 749.710, 1331.450 747.861 C 1334.739 740.819, 1340.973 729.652, 1342.749 727.619 C 1343.768 726.454, 1345.892 723.025, 1347.469 720 C 1349.046 716.975, 1351.386 712.933, 1352.668 711.018 C 1353.951 709.103, 1355 706.740, 1355 705.768 C 1355 704.796, 1355.348 704, 1355.773 704 C 1356.198 704, 1357.419 702.313, 1358.486 700.250 C 1359.553 698.188, 1361.681 694.860, 1363.213 692.856 C 1364.746 690.852, 1366 688.908, 1366 688.536 C 1366 688.165, 1367.350 685.898, 1369 683.500 C 1370.650 681.102, 1372 678.943, 1372 678.702 C 1372 678.036, 1382.400 662.279, 1387.314 655.500 C 1389.706 652.200, 1393.307 647.025, 1395.317 644 C 1401.596 634.550, 1405.948 628.681, 1410.559 623.443 C 1413.007 620.662, 1417.038 615.599, 1419.517 612.193 C 1421.995 608.787, 1424.461 606, 1424.997 606 C 1425.533 606, 1426.990 604.487, 1428.235 602.637 C 1431.035 598.480, 1445.034 579.992, 1446.773 578.155 C 1447.474 577.416, 1448.665 575.615, 1449.421 574.153 C 1450.177 572.691, 1451.741 570.639, 1452.898 569.593 C 1454.054 568.546, 1455 567.291, 1455 566.802 C 1455 566.314, 1456.800 563.478, 1459 560.500 C 1461.200 557.522, 1463 554.610, 1463 554.029 C 1463 553.447, 1464.912 550.540, 1467.250 547.567 C 1469.588 544.595, 1472.467 540.663, 1473.650 538.831 C 1477.485 532.887, 1491 505.147, 1491 503.218 C 1491 502.717, 1491.648 501.001, 1492.440 499.404 C 1497.044 490.117, 1503 455.295, 1503 437.657 C 1503 430.064, 1502.411 426.628, 1499.461 417.023 C 1493.899 398.911, 1488.679 385.026, 1486.500 382.546 C 1485.400 381.294, 1484.351 379.647, 1484.168 378.885 C 1483.985 378.123, 1482.973 376.695, 1481.918 375.711 C 1480.863 374.727, 1480 373.489, 1480 372.959 C 1480 372.156, 1464.921 354.731, 1461.430 351.500 C 1458.950 349.205, 1450.979 338.977, 1446.087 331.814 C 1443.200 327.586, 1437.725 321.235, 1433.919 317.700 C 1430.114 314.166, 1427 310.776, 1427 310.168 C 1427 309.560, 1426.374 309.303, 1425.609 309.597 C 1424.750 309.926, 1422.963 308.383, 1420.939 305.565 C 1419.136 303.054, 1417.296 301, 1416.849 301 C 1416.402 301, 1412.790 297.633, 1408.821 293.518 C 1403.466 287.966, 1398.810 284.419, 1390.768 279.768 C 1384.807 276.321, 1377.197 271.791, 1373.856 269.702 C 1370.317 267.488, 1364.178 264.922, 1359.141 263.551 C 1354.389 262.257, 1348.475 260.300, 1346 259.202 C 1343.525 258.105, 1337 256.461, 1331.500 255.551 C 1326 254.640, 1317.675 253.249, 1313 252.461 C 1307.808 251.585, 1293.797 250.825, 1277 250.507 C 1251.692 250.029, 1248.871 250.149, 1241.614 252.004 M 1309 506 C 1309 506.550, 1309.423 507, 1309.941 507 C 1310.459 507, 1311.160 506.550, 1311.500 506 C 1311.840 505.450, 1311.416 505, 1310.559 505 C 1309.702 505, 1309 505.450, 1309 506" stroke="#aa444d" fill="#aa444d" fill-opacity="0.2" fill-rule="evenodd"/><path class="svg-region-OABl" d="M 626 447.634 C 622.975 449.137, 620.275 450.667, 620 451.034 C 618.561 452.953, 614.412 454, 608.249 454 C 600.621 454, 590.021 452.342, 588.550 450.919 C 587.045 449.463, 574.302 449.771, 573.724 451.277 C 573.008 453.143, 552.589 462.974, 549.312 463.032 C 547.343 463.066, 544 465.247, 544 466.497 C 544 466.924, 546.813 470.175, 550.250 473.722 C 553.688 477.269, 558.188 481.915, 560.250 484.046 C 562.313 486.177, 564 488.158, 564 488.449 C 564 488.980, 561.573 492.093, 559.250 494.540 C 558.563 495.265, 558 496.251, 558 496.732 C 558 498.204, 551.708 503.584, 548 505.282 C 546.075 506.164, 543.858 507.924, 543.073 509.193 C 539.236 515.394, 539.164 515.831, 541.004 521.793 L 542.765 527.500 550.735 528 C 559.374 528.542, 562 529.853, 562 533.622 C 562 534.930, 562.337 536.003, 562.750 536.006 C 563.163 536.010, 564.267 537.360, 565.203 539.006 C 566.140 540.653, 567.603 542, 568.453 542 C 569.304 542, 570 542.450, 570 543 C 570 543.554, 572.646 544, 575.937 544 L 581.875 544 586.687 538.345 C 589.334 535.234, 593.188 530.942, 595.250 528.806 C 597.313 526.670, 599 524.295, 599 523.529 C 599 522.762, 599.900 521.849, 601 521.500 C 602.100 521.151, 603.012 520.333, 603.027 519.683 C 603.042 519.032, 604.908 517.375, 607.174 516 C 609.439 514.625, 613.140 511.825, 615.397 509.777 C 617.654 507.729, 619.856 506.041, 620.290 506.027 C 620.725 506.012, 622.300 505.099, 623.790 503.998 C 628.379 500.609, 640.327 499, 660.904 499 C 671.205 499, 682.303 499.455, 685.566 500.011 C 688.830 500.567, 692.737 501.231, 694.250 501.486 C 696.123 501.802, 697 501.519, 697 500.597 C 697 499.854, 697.647 498.708, 698.437 498.052 C 699.227 497.397, 700.180 494.404, 700.556 491.402 C 701.036 487.553, 701.792 485.646, 703.119 484.936 C 705.356 483.739, 705.645 480, 703.500 480 C 701.545 480, 701.573 476.581, 703.553 473.560 C 705.064 471.253, 705.009 471.158, 701.497 469.999 C 699.512 469.344, 696.450 468.601, 694.694 468.348 C 692.937 468.095, 690.071 467.232, 688.324 466.432 C 682.648 463.831, 674.710 462.557, 664 462.528 C 658.225 462.513, 652.972 462.157, 652.327 461.739 C 651.682 461.320, 650.845 459.520, 650.468 457.739 C 650.091 455.957, 648.871 452.852, 647.756 450.837 C 645.971 447.611, 645.180 447.116, 641.115 446.683 C 638.577 446.412, 635.375 445.901, 634 445.546 C 632.286 445.103, 629.770 445.760, 626 447.634" stroke="#81244d" fill="#81244d" fill-opacity="0.2" fill-rule="evenodd"/><path class="svg-region-OABr" d="M 1138.331 444.388 C 1135.487 445, 1132.825 445.837, 1132.414 446.250 C 1132.003 446.663, 1129.935 447, 1127.818 447 C 1125.702 447, 1121.389 447.646, 1118.235 448.436 C 1115.081 449.226, 1109.800 450.378, 1106.500 450.996 C 1103.200 451.614, 1099.118 452.543, 1097.429 453.060 C 1095.740 453.577, 1093.122 454, 1091.612 454 C 1089.373 454, 1088.976 454.350, 1089.465 455.891 C 1089.919 457.321, 1089.387 458.025, 1087.283 458.782 C 1085.752 459.333, 1083.389 460.841, 1082.031 462.134 C 1080.351 463.734, 1077.955 464.648, 1074.531 464.993 L 1069.500 465.500 1069.222 471 C 1069.004 475.296, 1068.436 476.938, 1066.626 478.500 C 1065.352 479.600, 1063.726 482.656, 1063.014 485.290 C 1062.300 487.928, 1060.882 490.528, 1059.859 491.076 C 1058.610 491.744, 1058 493.179, 1058 495.452 C 1058 497.312, 1057.438 499.060, 1056.750 499.338 C 1056.063 499.615, 1056.937 499.878, 1058.694 499.921 C 1061.019 499.979, 1062.925 499.048, 1065.694 496.505 C 1068.312 494.101, 1070.459 493.008, 1072.571 493.005 C 1074.847 493.001, 1076.865 491.829, 1080.366 488.474 C 1082.964 485.984, 1086.937 482.609, 1089.195 480.974 C 1093.125 478.127, 1093.730 478.003, 1103.400 478.073 C 1111.567 478.132, 1114.074 478.514, 1116.500 480.066 C 1118.150 481.122, 1122.875 483.661, 1127 485.708 C 1131.125 487.755, 1134.725 489.723, 1135 490.080 C 1135.275 490.438, 1136.625 491.070, 1138 491.486 C 1139.375 491.901, 1144.131 493.961, 1148.570 496.063 C 1156.347 499.746, 1156.974 499.874, 1165.864 499.598 C 1171.124 499.434, 1175.585 498.815, 1176.244 498.156 C 1176.880 497.520, 1179.479 497, 1182.021 497 C 1188.043 497, 1196.824 492.615, 1199.044 488.500 C 1200.020 486.690, 1203.308 483.980, 1207.331 481.668 L 1214 477.837 1214 470.883 C 1214 464.330, 1215.465 459.917, 1218.314 457.887 C 1220.492 456.335, 1218.292 452.383, 1213.511 449.259 C 1207.701 445.463, 1206.763 445.408, 1175.095 447.007 C 1155.213 448.011, 1149.463 447.468, 1146.866 444.338 C 1145.622 442.840, 1145.525 442.841, 1138.331 444.388" stroke="#81244d" fill="#81244d" fill-opacity="0.2" fill-rule="evenodd"/><path class="svg-region-LBPCl" d="M 758.646 382.958 C 752.985 385.851, 752.277 386.650, 750.419 392.244 C 749.078 396.282, 748.973 397.728, 749.914 399.234 C 750.908 400.825, 750.605 401.881, 748.050 405.738 C 744.888 410.512, 744.234 413.409, 746.063 414.539 C 747.747 415.580, 750.901 412.045, 751.597 408.336 C 751.947 406.469, 753.117 404.472, 754.202 403.892 C 756.915 402.440, 757.688 403.583, 755.573 405.919 C 753.574 408.129, 753.782 410.833, 756.062 412.269 C 758.294 413.674, 779 403.569, 779 401.074 C 779 400.104, 779.922 398.476, 781.049 397.456 C 782.520 396.124, 783.013 394.623, 782.799 392.126 C 782.554 389.279, 781.665 388.065, 777.888 385.414 C 771.736 381.097, 764.175 380.132, 758.646 382.958" stroke="#daffff" fill="#daffff" fill-opacity="0.2" fill-rule="evenodd"/><path class="svg-region-LBPCr" d="M 979.171 386.386 C 979.552 397.823, 979.791 399.086, 982.294 402.867 C 984 405.446, 986.021 407.186, 987.752 407.565 C 989.263 407.896, 991.850 408.765, 993.500 409.497 C 995.150 410.228, 1001 411.564, 1006.500 412.464 C 1025.142 415.518, 1024.113 415.496, 1026.133 412.870 C 1028.924 409.241, 1028.484 406.265, 1024.829 404.042 C 1022.497 402.624, 1021.173 402.372, 1019.829 403.092 C 1017.168 404.516, 1017.576 405.589, 1021.172 406.620 C 1025.030 407.727, 1026.145 410, 1022.830 410 C 1020.518 410, 1015 405.158, 1015 403.129 C 1015 402.551, 1014.061 401.203, 1012.913 400.134 L 1010.827 398.190 1012.913 397.528 C 1014.061 397.163, 1015.954 397.168, 1017.119 397.538 C 1020.183 398.510, 1024 396.149, 1024 393.281 C 1024 389.349, 1018.317 380, 1015.926 380 C 1015.527 380, 1012.861 381.575, 1010 383.500 C 1007.139 385.425, 1004.347 387, 1003.793 387 C 1003.240 387, 1001.903 385.875, 1000.821 384.500 C 999.740 383.125, 998.300 382, 997.622 382 C 996.943 382, 994.925 380.920, 993.136 379.600 C 991.347 378.281, 988.335 376.910, 986.442 376.555 C 984.549 376.200, 983 375.480, 983 374.955 C 983 374.430, 982.046 374, 980.879 374 C 978.810 374, 978.769 374.302, 979.171 386.386" stroke="#daffff" fill="#daffff" fill-opacity="0.2" fill-rule="evenodd"/><path class="svg-region-PNl" d="M 652 46.250 C 645.389 48.707, 641.533 51.073, 633.073 57.863 C 629.553 60.688, 625.859 63, 624.865 63 C 623.870 63, 620.521 64.122, 617.421 65.493 C 614.321 66.863, 611.444 67.774, 611.027 67.517 C 610.610 67.259, 608.296 68.877, 605.885 71.112 C 603.473 73.347, 600.300 76.252, 598.834 77.568 C 595.826 80.267, 594.536 84.611, 595.474 88.881 C 596.109 91.773, 607.222 104.030, 614 109.315 C 615.925 110.816, 619.975 114.030, 623 116.458 C 635.610 126.579, 650.119 137.757, 655.503 141.500 C 658.668 143.700, 662.577 147.300, 664.190 149.500 C 665.802 151.700, 674.447 160.925, 683.402 170 C 697.361 184.148, 699.953 187.266, 701.583 191.873 C 702.839 195.423, 705.708 199.771, 710.041 204.689 C 717.206 212.821, 733.023 227.365, 737 229.477 C 738.375 230.207, 740.533 232.208, 741.796 233.924 L 744.091 237.042 748.860 233.021 C 754.404 228.347, 758.515 227.819, 765.305 230.910 C 778.990 237.141, 781.909 237.506, 782 233 C 782.016 232.175, 782.679 229.700, 783.471 227.500 C 785.181 222.753, 785.431 209.143, 783.912 203.500 C 783.319 201.300, 781.680 197.804, 780.268 195.732 C 778.460 193.076, 777.494 189.976, 776.995 185.232 C 776.235 177.988, 774.210 171.694, 770.938 166.400 C 769.299 163.747, 769.108 162.666, 769.991 161.017 C 770.901 159.317, 771.346 159.177, 772.513 160.226 C 773.293 160.927, 774.621 162.080, 775.465 162.789 C 776.309 163.499, 777 165.534, 777 167.313 C 777 170.282, 777.523 170.813, 783.370 173.783 C 786.874 175.563, 791.711 178.722, 794.120 180.804 C 801.645 187.308, 804.198 189, 806.481 189 L 808.693 189 806.986 183.958 C 806.047 181.185, 803.866 176.949, 802.140 174.545 C 800.413 172.140, 799 169.861, 799 169.480 C 799 168.637, 794.771 165.213, 790.377 162.500 C 788.596 161.400, 785.512 158.362, 783.524 155.750 C 779.053 149.876, 776.282 149.599, 769.259 154.326 L 764.317 157.652 760.199 154.799 C 755.655 151.651, 754.472 148.336, 755.193 140.772 C 755.581 136.705, 754.118 133.181, 750.014 128.292 C 749.456 127.628, 749 126.781, 749 126.410 C 749 126.039, 746.174 122.982, 742.720 119.618 C 731.494 108.682, 720.743 95.896, 717.945 90.154 C 716.966 88.144, 712.528 83.008, 708.083 78.739 C 703.637 74.471, 700 70.534, 700 69.989 C 700 69.445, 699.516 69, 698.925 69 C 697.321 69, 682.110 54.921, 681.442 52.818 C 681.125 51.818, 680.191 51, 679.366 51 C 678.541 51, 676.434 49.913, 674.683 48.584 C 671.768 46.372, 668.783 45.524, 660.500 44.555 C 658.850 44.363, 655.025 45.125, 652 46.250" stroke="#bbc0d1" fill="#bbc0d1" fill-opacity="0.2" fill-rule="evenodd"/><path class="svg-region-PNr" d="M 1039.825 63.811 C 1036.154 65.299, 1032.816 66.850, 1032.408 67.258 C 1032 67.666, 1029.829 68.003, 1027.583 68.006 C 1021.434 68.014, 1015.983 69.863, 1012.838 73.008 C 1011.288 74.558, 1009.465 76.012, 1008.788 76.237 C 1007.577 76.641, 1005.400 80.129, 1000.822 89 C 997.945 94.575, 997.817 105.790, 1000.541 113.500 C 1001.982 117.576, 1002.305 121.808, 1002.291 136.393 C 1002.271 156.573, 1002.600 155.702, 993.427 159.877 C 988.984 161.899, 988.530 162.734, 985.109 175.164 C 983.789 179.961, 983 185.780, 983 190.723 C 983 195.550, 982.514 199.217, 981.750 200.160 C 979.698 202.691, 973.424 207, 971.790 207 C 965.800 207, 955.048 228.845, 960.250 230.448 C 960.938 230.660, 962.737 231.104, 964.250 231.436 C 965.763 231.767, 967 232.626, 967 233.345 C 967 235.911, 971.710 239.075, 976.707 239.865 C 979.457 240.299, 983.080 241.633, 984.758 242.827 C 988.913 245.786, 990.767 245.563, 995.891 241.490 C 998.306 239.571, 1000.668 238, 1001.141 238 C 1001.927 238, 1002.376 240.718, 1002.344 245.293 C 1002.337 246.330, 1002.865 246.882, 1003.595 246.602 C 1004.290 246.335, 1006.470 245.815, 1008.440 245.445 C 1010.410 245.076, 1012.269 244.374, 1012.570 243.887 C 1014.146 241.337, 1023.994 245.462, 1026.347 249.658 C 1027.592 251.879, 1031.831 250.503, 1036 246.526 C 1037.925 244.690, 1040.366 243.033, 1041.425 242.844 C 1043.768 242.425, 1045.894 234.417, 1045.958 225.770 C 1045.994 220.801, 1046.813 218.410, 1052.121 207.770 C 1055.488 201.021, 1058.823 194.825, 1059.532 194 C 1060.241 193.175, 1061.589 189.839, 1062.529 186.586 C 1063.469 183.333, 1065.309 179.600, 1066.619 178.290 C 1067.928 176.981, 1069 175.306, 1069 174.569 C 1069 171.613, 1075.931 160.953, 1079.684 158.135 C 1081.233 156.973, 1083.044 155.567, 1083.708 155.011 C 1084.372 154.455, 1085.345 154, 1085.869 154 C 1087.356 154, 1091.847 148.228, 1093.924 143.647 C 1100.202 129.802, 1103.849 119.605, 1104.486 114.120 C 1104.883 110.704, 1106.285 105.880, 1107.603 103.401 C 1111.999 95.135, 1110.026 90, 1100.328 84.470 C 1098.584 83.475, 1096.574 81.573, 1095.862 80.242 C 1094.676 78.026, 1083.909 68, 1082.715 68 C 1082.432 68, 1079.861 66.425, 1077 64.500 L 1071.799 61 1059.150 61.052 C 1047.780 61.099, 1045.825 61.378, 1039.825 63.811" stroke="#bbc0d1" fill="#bbc0d1" fill-opacity="0.2" fill-rule="evenodd"/><path class="svg-region-ODMl" d="M 722.500 404.055 C 720.300 405.096, 717.312 405.959, 715.859 405.974 C 714.407 405.988, 711.257 406.890, 708.859 407.978 C 706.462 409.066, 702.250 410, 699.500 410.054 C 690.743 410.226, 687.888 411.844, 684.500 418.557 C 680.667 426.150, 677.024 428.249, 668.500 427.774 L 662.500 427.441 659.447 431.918 C 657.768 434.380, 654.292 437.768, 651.722 439.447 C 645.963 443.210, 644.951 446.116, 647.716 450.948 C 648.834 452.902, 650.060 455.931, 650.439 457.681 C 651.533 462.725, 652.963 463.319, 662.245 462.584 C 668.146 462.116, 672.497 462.373, 677.500 463.485 C 681.350 464.340, 685.625 465.285, 687 465.585 C 690.580 466.365, 704.763 457.537, 713.365 449.174 C 720.457 442.279, 723.366 437.400, 724.499 430.500 C 725.277 425.762, 729.316 417.511, 732.577 414 C 739.525 406.517, 739.141 407.444, 736.478 404.570 C 733.567 401.430, 728.446 401.241, 722.500 404.055" stroke="#999999" fill="#999999" fill-opacity="0.2" fill-rule="evenodd"/><path class="svg-region-ODMr" d="M 1075 405.393 C 1075 411.569, 1071.405 412.742, 1064.119 408.945 C 1060.546 407.083, 1041.496 404.170, 1040.355 405.312 C 1040.130 405.536, 1041.421 408.013, 1043.223 410.815 C 1045.026 413.617, 1048.188 418.547, 1050.250 421.771 C 1052.313 424.994, 1054 428.419, 1054 429.381 C 1054 431.382, 1055.700 434.843, 1057.631 436.774 C 1058.355 437.497, 1059.457 439.757, 1060.081 441.795 C 1062.549 449.855, 1080.831 456.566, 1093 453.879 C 1095.475 453.332, 1099.750 452.480, 1102.500 451.986 C 1105.250 451.491, 1110.650 450.338, 1114.500 449.423 C 1118.350 448.508, 1123.975 447.399, 1127 446.959 C 1135.429 445.733, 1142.156 444.115, 1143.514 442.988 C 1144.476 442.190, 1144.391 440.948, 1143.121 437.235 C 1142.229 434.631, 1140.927 431.895, 1140.227 431.155 C 1139.526 430.416, 1138.296 428.539, 1137.492 426.984 C 1134.734 421.652, 1131.090 420, 1122.082 420 C 1117.622 420, 1113.186 420.491, 1112.224 421.092 C 1110.815 421.972, 1109.438 421.486, 1105.137 418.592 C 1102.201 416.616, 1098.795 415, 1097.568 415 C 1096.232 415, 1094.819 414.029, 1094.042 412.578 C 1091.942 408.654, 1080.036 401, 1076.032 401 C 1075.464 401, 1075 402.977, 1075 405.393" stroke="#999999" fill="#999999" fill-opacity="0.2" fill-rule="evenodd"/>
    </svg>