<svg xmlns="http://www.w3.org/2000/svg" width="1785" height="1131" viewBox="0 0 1785 1131" version="1.1">
    <path class="svg-region-IBl" d="M 741.014 409.067 C 737.996 410.672, 734.846 411.781, 734.014 411.533 C 731.307 410.725, 728.126 414.585, 724.035 423.640 C 723.007 425.917, 721.668 428.087, 721.060 428.463 C 720.453 428.838, 718.390 432.312, 716.478 436.182 C 713.355 442.501, 713 444.064, 713 451.487 C 713 457.341, 713.407 460.093, 714.395 460.913 C 715.163 461.550, 716.101 463.727, 716.481 465.751 C 717.386 470.577, 719.719 475, 721.359 475 C 722.079 475, 724.617 473.200, 727 471 C 729.383 468.800, 731.760 467, 732.282 467 C 732.804 467, 735.417 464.709, 738.088 461.908 C 741.513 458.316, 743.103 455.739, 743.483 453.158 C 743.780 451.146, 744.468 447.581, 745.011 445.236 C 745.555 442.890, 746 436.433, 746 430.887 C 746 420.258, 747.508 414.869, 751.005 412.997 C 751.965 412.484, 752.989 411.149, 753.281 410.032 C 753.719 408.359, 753.334 408, 751.106 408 C 749.618 408, 747.972 407.584, 747.450 407.075 C 746.863 406.503, 744.401 407.266, 741.014 409.067" stroke="#b10e0e" fill="#b10e0e" fill-opacity="0.2" fill-rule="evenodd"/><path class="svg-region-IBr" d="M 1063.116 445.250 C 1063.001 446.984, 1060.012 447.678, 1058.627 446.293 C 1057.674 445.340, 1031.716 445.949, 1030.680 446.949 C 1030.229 447.384, 1030.182 449.452, 1030.574 451.545 C 1031.095 454.320, 1032.825 456.892, 1036.963 461.043 C 1043.570 467.670, 1045.740 469, 1049.948 469 C 1051.641 469, 1053.884 469.535, 1054.932 470.190 C 1057.580 471.843, 1059.794 469.833, 1060.486 465.150 C 1060.782 463.142, 1061.745 458.333, 1062.626 454.463 C 1063.508 450.593, 1064.004 446.543, 1063.730 445.463 C 1063.316 443.830, 1063.212 443.794, 1063.116 445.250" stroke="#b10e0e" fill="#b10e0e" fill-opacity="0.2" fill-rule="evenodd"/><path class="svg-region-LBr" d="M 994.485 396.024 C 993.552 397.534, 997.102 406.162, 998.399 405.534 C 999.004 405.241, 1000.288 404.724, 1001.250 404.384 C 1003.621 403.548, 1003.454 402.352, 1000.870 401.676 C 999.369 401.284, 998.931 400.622, 999.387 399.433 C 999.785 398.395, 999.354 397.229, 998.267 396.405 C 996.114 394.771, 995.310 394.690, 994.485 396.024 M 1032.357 402.387 C 1031.178 403.042, 1029.494 404.175, 1028.615 404.905 C 1027.736 405.634, 1025.100 406.345, 1022.758 406.484 C 1020.416 406.623, 1017.017 407.352, 1015.205 408.104 C 1012.799 409.103, 1011.720 409.168, 1011.205 408.343 C 1010.536 407.272, 1005.217 406.556, 1000.193 406.860 C 998.013 406.992, 997.972 407.122, 999.443 409.223 C 1000.541 410.790, 1001 413.832, 1001 419.546 C 1001 427.500, 1001.085 427.780, 1005.750 435.072 C 1011.068 443.386, 1012.961 445.545, 1015.651 446.367 C 1016.668 446.678, 1026.500 446.573, 1037.500 446.134 C 1048.500 445.694, 1057.928 445.710, 1058.450 446.168 C 1061.250 448.621, 1065 444.306, 1065 438.629 C 1065 436.811, 1062.235 430.854, 1060.995 430 C 1060.595 429.725, 1059.347 427.700, 1058.220 425.500 C 1057.093 423.300, 1054.328 419.700, 1052.075 417.500 C 1049.823 415.300, 1046.522 411.939, 1044.740 410.032 C 1035.315 399.943, 1035.997 400.364, 1032.357 402.387" stroke="#d7b230" fill="#d7b230" fill-opacity="0.2" fill-rule="evenodd"/><path class="svg-region-AP" d="M 940.500 453.024 C 937.750 453.457, 929.650 454.574, 922.500 455.507 C 909.498 457.203, 907.687 457.200, 872.670 455.424 C 864.985 455.034, 859.904 455.210, 858.170 455.925 C 848.258 460.012, 818.304 460.176, 808.750 456.195 C 805.996 455.048, 805.390 455.493, 806.765 457.654 C 808.652 460.616, 824.863 477.441, 827.762 479.445 C 829.556 480.686, 832.787 483.332, 834.943 485.327 C 839.306 489.364, 851.937 495.688, 862.273 499.011 C 870.261 501.579, 871.711 502.817, 872.549 507.782 C 872.894 509.827, 873.811 512.918, 874.588 514.651 C 875.365 516.384, 876 518.454, 876 519.251 C 876 520.048, 877.350 522.564, 879 524.841 C 881.228 527.917, 882 530.091, 882 533.291 C 882 535.661, 881.620 538.027, 881.156 538.550 C 880.692 539.072, 879.285 542.099, 878.029 545.276 C 876.774 548.453, 874.819 552.232, 873.686 553.672 C 872.553 555.113, 872.047 556.090, 872.563 555.843 C 884.653 550.058, 887.698 549.881, 897.127 554.417 C 901.278 556.414, 905.629 558.938, 906.796 560.024 C 907.962 561.111, 909.385 562, 909.958 562 C 910.531 562, 911.900 562.900, 913 564 C 914.100 565.100, 915.488 566, 916.084 566 C 917.407 566, 911.227 558.024, 909.344 557.302 C 906.765 556.312, 908.501 545.416, 912.418 538 C 913.434 536.075, 916.681 531.056, 919.633 526.848 C 922.585 522.639, 925 518.724, 925 518.148 C 925 517.572, 926.350 515.100, 928 512.655 C 929.650 510.210, 931 507.782, 931 507.258 C 931 506.734, 931.816 505.366, 932.812 504.216 C 933.809 503.067, 935.497 500.943, 936.562 499.497 C 945.279 487.666, 948.415 483.778, 949.613 483.318 C 950.376 483.026, 951 482.182, 951 481.443 C 951 480.704, 951.578 479.740, 952.284 479.300 C 955.492 477.302, 967.250 458.007, 965.267 457.995 C 964.845 457.993, 963.062 456.643, 961.304 454.995 C 958.412 452.285, 957.510 452.011, 951.804 452.119 C 948.337 452.184, 943.250 452.592, 940.500 453.024" stroke="#fc7143" fill="#fc7143" fill-opacity="0.2" fill-rule="evenodd"/><path class="svg-region-PP" d="M 802 329.469 C 802 329.800, 802.726 331.178, 803.613 332.532 C 804.891 334.483, 805.099 336.500, 804.614 342.247 C 804.277 346.236, 803.591 356.025, 803.090 364 C 802.133 379.217, 801.357 383.035, 798.101 388.554 C 795.056 393.714, 794 401.821, 794 420.034 C 794 438.115, 794.537 440.927, 799.376 448.188 C 803.590 454.511, 808.714 457.289, 818 458.286 C 831.849 459.773, 840.122 460.168, 841.817 459.423 C 842.743 459.016, 844.850 458.523, 846.500 458.327 C 848.150 458.131, 852.669 457.257, 856.541 456.385 C 861.803 455.200, 866.226 454.958, 874.041 455.426 C 909.392 457.544, 908.518 457.577, 941.193 452.948 C 953.246 451.241, 957.150 451.636, 961.038 454.959 C 965.025 458.367, 966.789 458.713, 967.726 456.272 C 968.091 455.322, 969.426 453.583, 970.694 452.407 C 971.963 451.232, 973 449.845, 973 449.325 C 973 448.805, 974.282 447.057, 975.849 445.440 C 977.416 443.823, 980.229 439.408, 982.099 435.629 C 983.970 431.849, 986.512 427.664, 987.750 426.327 C 988.987 424.991, 990 423.470, 990 422.948 C 990 422.427, 990.397 422, 990.883 422 C 991.369 422, 993.281 419.989, 995.133 417.531 C 996.985 415.073, 999.100 413.048, 999.833 413.031 C 1000.567 413.014, 1001.017 412.638, 1000.833 412.196 C 996.999 402.947, 993.484 397.260, 990.892 396.112 C 989.209 395.367, 987.097 393.150, 985.973 390.948 C 984.891 388.826, 982.429 385.832, 980.502 384.295 C 977.992 382.292, 977 380.703, 977 378.688 C 977 377.141, 976.268 373.637, 975.372 370.900 C 973.929 366.487, 973.890 364.598, 975.025 354.212 C 975.729 347.770, 976.498 339.462, 976.735 335.750 L 977.164 329 972.205 329 C 969.016 329, 966.800 329.536, 966 330.500 C 965.315 331.325, 963.123 332.026, 961.128 332.058 C 956.684 332.128, 945.636 334.978, 941.315 337.168 C 938.514 338.587, 938.061 338.601, 937.556 337.285 C 937.142 336.208, 936.213 335.978, 934.241 336.465 C 930.430 337.406, 929.437 338.616, 930.965 340.458 C 931.954 341.649, 931.965 342, 931.016 342 C 930.341 342, 928.911 340.886, 927.840 339.524 C 924.969 335.874, 920.442 335.147, 900.467 335.131 C 890.247 335.122, 881.230 334.658, 879.652 334.058 C 877.993 333.427, 867.307 332.982, 853.185 332.956 C 833.672 332.920, 828.795 332.625, 825.500 331.283 C 821.616 329.701, 802 328.186, 802 329.469" stroke="#c4743d" fill="#c4743d" fill-opacity="0.2" fill-rule="evenodd"/><path class="svg-region-LPl" d="M 790.093 395.574 C 787.669 396.908, 784.888 398, 783.912 398 C 782.864 398, 782.008 398.878, 781.820 400.148 C 781.644 401.329, 780.619 402.792, 779.542 403.398 C 778.465 404.004, 777.041 404.992, 776.377 405.594 C 775.713 406.195, 770.522 406.971, 764.841 407.317 C 756.528 407.823, 754.276 408.293, 753.302 409.723 C 752.637 410.700, 751.420 412.190, 750.599 413.034 C 746.964 416.767, 746.012 420.435, 746.006 430.736 C 746.003 436.365, 745.555 442.890, 745.011 445.236 C 744.468 447.581, 743.780 451.146, 743.483 453.158 C 743.103 455.739, 741.513 458.316, 738.088 461.908 C 735.417 464.709, 732.617 467.001, 731.866 467.002 C 731.115 467.003, 728.807 468.803, 726.738 471.002 C 722.797 475.190, 720.331 476.025, 719.362 473.500 C 719.015 472.596, 717.537 472.013, 715.643 472.032 L 712.500 472.063 715 474.312 C 719.303 478.182, 724.543 485.263, 727.719 491.500 C 729.399 494.800, 732.259 500.425, 734.074 504 C 737.920 511.578, 741.270 516.207, 748.940 524.543 C 751.998 527.866, 755.850 532.214, 757.500 534.205 C 760.668 538.027, 772.371 550.678, 781.503 560.152 C 788.550 567.463, 799.326 575.509, 804.457 577.290 C 813.813 580.539, 815.851 580.892, 822.878 580.477 C 837.748 579.600, 848.005 576.705, 854.083 571.670 C 855.962 570.113, 860.370 566.603, 863.879 563.870 C 871.157 558.199, 873.894 554.538, 878.638 544.127 C 882.858 534.867, 882.966 530.542, 879.119 524.800 C 877.535 522.435, 875.925 519.043, 875.542 517.261 C 875.159 515.480, 874.431 513.766, 873.923 513.452 C 873.415 513.139, 873 511.769, 873 510.409 C 873 509.049, 872.394 506.485, 871.653 504.713 C 870.487 501.920, 869.368 501.197, 863.276 499.294 C 852.596 495.957, 840.176 489.709, 833.531 484.331 C 827.358 479.335, 807.018 459.013, 807.006 457.831 C 807.003 457.463, 804.754 454.538, 802.008 451.331 C 794.370 442.410, 793.715 439.450, 794.226 416.181 C 794.464 405.357, 795.009 395.712, 795.436 394.750 C 796.448 392.473, 795.447 392.627, 790.093 395.574" stroke="#d2454f" fill="#d2454f" fill-opacity="0.2" fill-rule="evenodd"/><path class="svg-region-LPr" d="M 995.133 417.531 C 993.281 419.989, 991.369 422, 990.883 422 C 990.397 422, 990 422.427, 990 422.948 C 990 423.470, 988.861 425.126, 987.469 426.628 C 986.076 428.131, 983.515 432.429, 981.777 436.180 C 980.039 439.931, 978.330 443, 977.978 443 C 977.627 443, 975.844 445.137, 974.018 447.750 C 972.191 450.363, 970.202 452.960, 969.598 453.523 C 968.304 454.729, 967.388 456.186, 962.068 465.500 C 959.869 469.350, 955.241 475.876, 951.785 480.001 C 948.328 484.127, 942.800 491.101, 939.500 495.498 C 936.200 499.895, 932.938 504.089, 932.250 504.818 C 931.563 505.547, 931 506.786, 931 507.571 C 931 508.357, 930.649 509, 930.219 509 C 929.790 509, 928.897 510.238, 928.235 511.750 C 926.067 516.702, 921.542 524.397, 917.484 530.031 C 915.293 533.073, 912.898 536.618, 912.162 537.908 C 910.555 540.726, 907.995 550.225, 908.013 553.299 C 908.031 556.238, 916.780 565.610, 920.250 566.407 C 921.763 566.754, 923 567.520, 923 568.109 C 923 569.631, 927.185 572.927, 929.167 572.967 C 930.083 572.985, 930.983 573.357, 931.167 573.794 C 931.720 575.110, 941.682 579, 944.501 579 C 945.948 579, 948.028 579.480, 949.124 580.066 C 952.321 581.777, 967.580 578.701, 976.195 574.609 C 987.251 569.357, 1003.650 555.090, 1019.250 537.150 C 1021.313 534.778, 1023.006 532.536, 1023.014 532.168 C 1023.021 531.801, 1024.954 529.837, 1027.309 527.804 C 1035.474 520.755, 1038 517.973, 1038 516.026 C 1038 514.951, 1038.848 513.616, 1039.885 513.061 C 1044.097 510.808, 1054.119 493.256, 1056.480 484 C 1057.392 480.425, 1058.782 475.572, 1059.569 473.215 C 1061.435 467.627, 1061.386 467.341, 1058.944 469.551 C 1057.251 471.083, 1056.548 471.199, 1054.958 470.206 C 1053.896 469.543, 1051.722 469, 1050.128 469 C 1046.054 469, 1043.337 467.329, 1036.822 460.818 C 1032.213 456.212, 1031.022 454.330, 1030.496 450.822 L 1029.848 446.500 1022.174 446.500 C 1013.194 446.500, 1012.953 446.332, 1005.750 435.072 C 1001.192 427.946, 1001 427.350, 1001 420.323 C 1001 411.580, 999.981 411.095, 995.133 417.531" stroke="#d2454f" fill="#d2454f" fill-opacity="0.2" fill-rule="evenodd"/><path class="svg-region-DMl" d="M 678.507 331.674 C 679.444 339.468, 679.448 387.178, 678.513 403.715 C 678.102 410.983, 678.055 418.084, 678.409 419.495 L 679.053 422.060 683.512 418.992 C 685.964 417.305, 688.435 415.056, 689.003 413.994 C 690.532 411.137, 697.862 407.194, 703 406.464 C 706.597 405.953, 708.245 404.996, 711.216 401.693 L 714.933 397.561 717.716 400.196 C 719.247 401.644, 721.621 402.981, 722.991 403.165 C 724.478 403.365, 725.977 404.539, 726.712 406.077 C 727.390 407.495, 729.545 409.517, 731.502 410.571 L 735.061 412.488 740.467 409.563 C 743.988 407.659, 746.081 405.815, 746.466 404.279 C 746.804 402.933, 749.086 400.619, 751.779 398.894 C 756.359 395.959, 756.769 395.885, 765.500 396.404 C 770.450 396.699, 776.612 397.222, 779.193 397.566 C 785.554 398.415, 790.436 396.616, 795.488 391.565 C 800.803 386.250, 802.046 381.676, 803.114 363.500 C 803.566 355.800, 804.230 346.933, 804.588 343.796 C 805.369 336.962, 804.485 331.400, 802.495 330.637 C 801.173 330.129, 795.957 330.535, 772.500 332.971 C 768.100 333.428, 761.350 334.561, 757.500 335.488 C 751.715 336.881, 746.852 337.098, 729.484 336.736 L 708.467 336.299 697.984 331.770 C 692.218 329.279, 685.319 326.927, 682.653 326.544 L 677.806 325.848 678.507 331.674" stroke="#68533d" fill="#68533d" fill-opacity="0.2" fill-rule="evenodd"/><path class="svg-region-DMr" d="M 978.346 328.765 C 977.712 329.169, 976.979 332.425, 976.718 336 C 976.456 339.575, 975.676 347.606, 974.984 353.846 C 973.875 363.848, 973.920 365.891, 975.363 371.081 C 976.263 374.320, 977 377.989, 977 379.235 C 977 380.625, 978.353 382.579, 980.502 384.295 C 982.429 385.832, 984.863 388.771, 985.912 390.827 C 988.316 395.540, 992.224 397.889, 994.508 395.993 C 995.702 395.002, 996.366 394.966, 997.242 395.842 C 999.073 397.673, 1001.234 397.146, 1004.962 393.959 C 1007.924 391.428, 1009.252 391, 1014.153 391 C 1017.304 391, 1020.160 391.450, 1020.500 392 C 1020.840 392.550, 1023.241 393, 1025.836 393 C 1029.815 393, 1030.962 393.465, 1033.157 395.966 C 1034.589 397.597, 1036.048 399.682, 1036.400 400.599 C 1037.303 402.952, 1043.759 401.922, 1052.398 398.046 C 1058.120 395.479, 1060.432 395, 1067.113 395 C 1075.548 395, 1079.011 396.398, 1085.527 402.437 C 1087.048 403.847, 1088.813 405, 1089.450 405 C 1090.087 405, 1092.158 406.625, 1094.054 408.611 C 1097.237 411.946, 1105.707 416.626, 1106.723 415.611 C 1106.964 415.369, 1106.721 414.345, 1106.182 413.336 C 1105.643 412.326, 1104.730 407.900, 1104.153 403.500 C 1103.577 399.100, 1102.171 391.225, 1101.029 386 C 1099.266 377.936, 1098.942 372.910, 1098.886 352.750 C 1098.812 326.289, 1099.176 327.419, 1091.855 330.956 C 1089.292 332.194, 1086.761 332.702, 1084.953 332.341 C 1083.383 332.027, 1080.614 332.307, 1078.800 332.963 C 1076.985 333.620, 1073.201 334.774, 1070.391 335.529 C 1065.145 336.938, 1059.856 339.641, 1054.398 343.703 L 1051.296 346.012 1045.898 343.926 C 1042.929 342.779, 1039.150 341.208, 1037.500 340.437 C 1032.240 337.976, 1017.159 335, 1009.955 335 C 1004.344 335, 1001.263 334.318, 994.136 331.500 C 985.530 328.097, 980.708 327.262, 978.346 328.765" stroke="#68533d" fill="#68533d" fill-opacity="0.2" fill-rule="evenodd"/><path class="svg-region-PMl" d="M 732.829 238.119 C 731.729 239.497, 728.838 240.697, 724.362 241.636 C 720.623 242.419, 716.650 243.894, 715.532 244.913 C 712.442 247.731, 707.685 249.870, 702.855 250.613 C 696.613 251.574, 689.778 255.291, 686.606 259.450 C 682.847 264.378, 679.107 266.791, 678.001 265.002 C 676.332 262.301, 675.725 273.620, 676.369 295.435 C 677.167 322.482, 677.503 324.861, 680.709 326.079 C 682.041 326.586, 683.988 327, 685.035 327 C 686.910 327, 695.890 330.652, 701.223 333.584 C 704.039 335.132, 717.002 336.979, 725.143 336.992 C 729.827 337, 731 336.056, 731 332.278 C 731 331.422, 733.074 325.271, 735.609 318.610 C 743.459 297.987, 746.178 288.829, 745.513 285.250 C 745.160 283.349, 744.305 282, 743.455 282 C 742.264 282, 742 279.856, 742 270.179 C 742 255.116, 738.195 235.958, 735.215 236.013 C 734.822 236.021, 733.748 236.968, 732.829 238.119" stroke="#90cf92" fill="#90cf92" fill-opacity="0.2" fill-rule="evenodd"/><path class="svg-region-PMr" d="M 1040.107 257.748 C 1032.302 273.486, 1030 281.462, 1030 292.769 L 1030 302.699 1037.149 317.599 C 1041.081 325.795, 1045.539 335.411, 1047.058 338.970 C 1048.576 342.528, 1050.252 345.584, 1050.783 345.761 C 1051.314 345.938, 1053.042 345.015, 1054.624 343.710 C 1057.890 341.015, 1064.066 337.673, 1068.500 336.201 C 1077.937 333.069, 1083.333 331.867, 1085.508 332.413 C 1086.985 332.783, 1089.660 332.270, 1092.231 331.122 C 1094.579 330.074, 1097.220 328.983, 1098.101 328.697 C 1099.177 328.348, 1099.923 326.426, 1100.375 322.839 C 1100.745 319.902, 1101.533 315.025, 1102.125 312 C 1102.717 308.975, 1103.414 299.843, 1103.673 291.707 C 1104.136 277.211, 1103.251 270.052, 1099.913 261.270 C 1098.813 258.377, 1097 259.179, 1097 262.559 C 1097 265.679, 1094.287 265.800, 1090.533 262.847 C 1089.027 261.663, 1086.154 260.357, 1084.148 259.945 C 1082.142 259.534, 1078.390 258.766, 1075.811 258.239 C 1073.233 257.712, 1069.697 256.082, 1067.955 254.615 C 1065.474 252.528, 1064.104 252.073, 1061.643 252.519 C 1059.523 252.903, 1057.211 252.423, 1054.539 251.044 C 1052.360 249.920, 1049.198 249, 1047.511 249 C 1044.655 249, 1044.150 249.596, 1040.107 257.748" stroke="#90cf92" fill="#90cf92" fill-opacity="0.2" fill-rule="evenodd"/><path class="svg-region-PV" d="M 766.640 148.505 C 766.958 149.332, 768.696 150.711, 770.503 151.568 C 772.309 152.426, 775.523 155.152, 777.644 157.627 C 779.765 160.103, 782.737 163.549, 784.250 165.287 C 785.763 167.024, 787 169.155, 787 170.023 C 787 170.890, 787.504 172.104, 788.120 172.720 C 789.247 173.847, 790.729 179.431, 791.673 186.108 C 792.062 188.860, 791.790 189.867, 790.528 190.351 C 787.896 191.361, 784.043 188.741, 776.058 180.513 C 771.965 176.295, 767.913 172.317, 767.054 171.672 C 766.195 171.028, 763.721 167.575, 761.556 164 C 759.392 160.425, 757.256 157.350, 756.811 157.167 C 756.365 156.983, 756 156.196, 756 155.417 C 756 154.637, 755.260 154, 754.356 154 C 752.928 154, 752.797 154.906, 753.356 160.916 C 754.178 169.764, 754.564 170.663, 757.819 171.314 C 761.719 172.094, 763.015 178.379, 761.679 190.026 L 760.669 198.818 769.585 207.549 C 774.488 212.351, 779.506 217.904, 780.735 219.890 C 785.108 226.955, 790 238.157, 790 241.105 C 790 245.099, 792.038 248.820, 798.903 257.365 C 804.828 264.739, 815 283.334, 815 286.792 C 815 287.872, 815.675 290.371, 816.500 292.346 C 818.417 296.934, 818.422 306.291, 816.511 312.591 C 815.692 315.291, 815.017 320.087, 815.011 323.250 C 815 328.749, 815.111 329, 817.550 329 C 818.952 329, 821.539 329.788, 823.300 330.750 C 826 332.227, 830.560 332.615, 852.500 333.234 C 912.121 334.916, 922.638 335.451, 924.373 336.893 C 925.294 337.658, 926.337 337.996, 926.691 337.643 C 927.044 337.289, 926.808 337, 926.167 337 C 925.525 337, 925 336.550, 925 336 C 925 334.542, 926.634 334.777, 928.337 336.480 C 929.502 337.645, 930.457 337.737, 932.828 336.910 C 934.485 336.333, 936.086 335.219, 936.386 334.436 C 936.827 333.288, 937.423 333.236, 939.466 334.167 C 940.860 334.802, 942 335.725, 942 336.220 C 942 336.714, 942.563 336.762, 943.250 336.328 C 945.402 334.967, 957.331 332.118, 961.128 332.058 C 963.123 332.026, 965.315 331.325, 966 330.500 C 966.769 329.573, 968.965 329, 971.747 329 L 976.250 329 975.625 325.875 C 975.281 324.156, 975 320.761, 975 318.330 C 975 314.959, 974.412 313.321, 972.523 311.432 C 970.192 309.101, 970.107 308.647, 971.088 303.727 C 971.661 300.852, 972.605 296.025, 973.185 293 C 974.996 283.559, 977.147 275.666, 979.111 271.261 C 980.150 268.929, 981 266.812, 981 266.555 C 981 266.298, 982.350 263.798, 984 261 C 987.357 255.307, 987.650 254, 985.573 254 C 984.164 254, 980 249.473, 980 247.942 C 980 247.508, 981.125 245.816, 982.500 244.182 C 984.312 242.029, 985 240.037, 985 236.943 C 985 233.887, 985.870 231.320, 988.062 227.903 C 991.010 223.310, 996.981 204.129, 996.994 199.215 C 996.997 197.958, 996.264 195.807, 995.366 194.435 C 993.985 192.329, 993.841 190.273, 994.438 181.220 C 994.827 175.324, 995.562 170.072, 996.072 169.550 C 996.583 169.027, 997 167.812, 997 166.848 C 997 165.178, 1004.761 159, 1006.859 159 C 1008.625 159, 1011.001 155.923, 1010.969 153.679 C 1010.951 152.480, 1009.797 150.669, 1008.403 149.654 C 1005.940 147.860, 1005.813 147.860, 1003.832 149.654 C 1002.069 151.251, 999.764 151.532, 986.748 151.737 C 976.218 151.903, 969.777 151.528, 965.289 150.487 C 957.091 148.586, 943.899 148.597, 937.591 150.511 C 934.615 151.414, 928.646 152, 922.432 152 C 914.030 152, 909.688 152.630, 898.341 155.493 C 884.469 158.995, 876 159.922, 876 157.941 C 876 157.359, 875.506 157.187, 874.902 157.560 C 872.456 159.072, 852.385 157.864, 842.961 155.638 C 833.140 153.317, 825.936 153.379, 815.500 155.871 C 799.477 159.697, 790.899 160.954, 788.981 159.756 C 787.892 159.076, 787 158.198, 787 157.805 C 787 157.412, 785.424 156.795, 783.497 156.433 C 781.570 156.072, 778.358 154.477, 776.359 152.888 C 774.360 151.300, 772.167 150, 771.485 150 C 770.803 150, 769.685 149.325, 769 148.500 C 767.391 146.561, 765.895 146.564, 766.640 148.505" stroke="#b09658" fill="#b09658" fill-opacity="0.2" fill-rule="evenodd"/><path class="svg-region-LPVl" d="M 761 203.134 C 761 208.362, 758.802 214.223, 754.768 219.750 C 751.299 224.504, 750.575 225, 747.103 225 C 744.784 225, 742.265 224.210, 740.727 223 C 737.696 220.616, 737 220.516, 737 222.465 C 737 224.198, 733.975 226, 731.066 226 C 728.153 226, 728.490 228.488, 731.843 231.741 C 736.477 236.238, 737.777 239.001, 739.943 248.953 C 741.369 255.505, 742 262.027, 742 270.203 C 742 279.859, 742.264 282, 743.455 282 C 744.305 282, 745.160 283.349, 745.513 285.250 C 746.178 288.829, 743.459 297.987, 735.609 318.610 C 733.074 325.271, 731 331.593, 731 332.660 C 731 333.727, 730.460 335.140, 729.800 335.800 C 727.974 337.626, 749.853 337.317, 758 335.402 C 761.575 334.561, 768.325 333.463, 773 332.962 C 777.675 332.461, 785.550 331.581, 790.500 331.007 C 795.450 330.432, 802.987 329.688, 807.250 329.353 L 815 328.743 815 323.775 C 815 321.043, 815.722 316.325, 816.604 313.292 C 818.452 306.933, 818.063 296.552, 815.668 288.347 C 812.531 277.601, 803.796 262.257, 795.830 253.500 C 792.605 249.954, 790 244.116, 790 240.433 C 790 236.964, 787.396 231.013, 781.500 221.011 C 779.653 217.877, 762.637 200, 761.501 200 C 761.226 200, 761 201.410, 761 203.134" stroke="#494949" fill="#494949" fill-opacity="0.2" fill-rule="evenodd"/><path class="svg-region-LPVr" d="M 1015.756 234.569 C 1014.246 235.388, 1012.048 237.958, 1010.871 240.279 C 1008.172 245.603, 1007.580 245.966, 1001.562 245.985 C 996.861 245.999, 996.357 246.278, 991.062 251.790 C 981.267 261.985, 975.687 275.897, 971.924 299.500 C 971.398 302.800, 970.732 306.249, 970.444 307.164 C 970.136 308.142, 970.968 309.877, 972.460 311.369 C 974.414 313.323, 975 314.929, 975 318.330 C 975 320.761, 975.278 324.140, 975.618 325.840 C 976.213 328.813, 976.391 328.909, 980.368 328.381 C 983.595 327.953, 986.544 328.618, 993.836 331.417 C 1001.264 334.268, 1004.568 335, 1010.007 335 C 1016.703 335, 1032.806 338.080, 1036.232 340.016 C 1039.247 341.719, 1048.362 344.971, 1048.825 344.508 C 1049.489 343.845, 1047.526 339.276, 1038.337 320.096 L 1030 302.693 1030 293.059 C 1030 284.853, 1030.463 282.096, 1033.120 274.462 C 1034.837 269.533, 1037.987 262.022, 1040.120 257.772 C 1042.254 253.522, 1044 249.809, 1044 249.522 C 1044 249.235, 1043.168 249, 1042.152 249 C 1039.690 249, 1036.637 241.547, 1038.032 238.941 C 1038.564 237.946, 1039 236.877, 1039 236.566 C 1039 235.570, 1033.142 235.961, 1032.500 237 C 1031.415 238.755, 1028.849 238.078, 1026.821 235.500 C 1024.537 232.596, 1020.083 232.221, 1015.756 234.569" stroke="#494949" fill="#494949" fill-opacity="0.2" fill-rule="evenodd"/><path class="svg-region-PCl" d="M 696.722 187.782 C 695.580 189.065, 695.083 192.667, 694.762 202 C 694.417 212.024, 693.882 215.590, 692.065 220 C 689.976 225.069, 689.203 226.998, 685.851 235.500 C 683.598 241.217, 679.319 256.694, 678.318 262.750 C 677.539 267.468, 679.465 266.914, 685.430 260.706 C 690.966 254.945, 696.541 251.910, 704.855 250.132 C 709.547 249.129, 715.450 246.083, 717.025 243.853 C 717.314 243.444, 719.789 242.631, 722.525 242.047 C 725.261 241.463, 728.507 240.756, 729.737 240.477 C 730.968 240.197, 732.713 238.842, 733.615 237.465 C 735.203 235.041, 735.155 234.865, 732.128 231.972 C 730.408 230.328, 729 228.105, 729 227.032 C 729 225.783, 726.501 223.217, 722.044 219.893 C 715.597 215.084, 712 210.371, 712 206.734 C 712 205.929, 711.155 204.195, 710.122 202.882 C 709.089 201.569, 706.755 197.654, 704.935 194.183 C 701.113 186.891, 698.989 185.236, 696.722 187.782" stroke="#465ee0" fill="#465ee0" fill-opacity="0.2" fill-rule="evenodd"/><path class="svg-region-PCr" d="M 1067.500 205.380 C 1062.946 207.114, 1061.703 208.007, 1054.817 214.500 C 1048.560 220.399, 1041.610 230.211, 1038.622 237.363 C 1037.338 240.435, 1037.304 241.576, 1038.397 244.748 C 1039.662 248.413, 1039.828 248.512, 1045.596 249.027 C 1048.843 249.317, 1053.165 250.370, 1055.200 251.368 C 1057.623 252.555, 1059.906 252.960, 1061.815 252.541 C 1064.096 252.040, 1065.423 252.485, 1067.926 254.591 C 1069.684 256.071, 1073.233 257.712, 1075.811 258.239 C 1078.390 258.766, 1082.142 259.534, 1084.148 259.945 C 1086.154 260.357, 1089.027 261.663, 1090.533 262.847 C 1092.038 264.031, 1094.109 265, 1095.135 265 C 1096.681 265, 1097 264.224, 1097 260.460 C 1097 255.302, 1095.337 251.655, 1087.516 239.656 C 1084.514 235.050, 1081.576 230.014, 1080.986 228.464 C 1078.812 222.746, 1076 210.932, 1076 207.518 C 1076 204.318, 1075.752 204.011, 1073.250 204.119 C 1071.737 204.185, 1069.150 204.752, 1067.500 205.380" stroke="#465ee0" fill="#465ee0" fill-opacity="0.2" fill-rule="evenodd"/><path class="svg-region-B" d="M 940.500 642.949 C 939.400 643.401, 935.766 646.635, 932.425 650.136 C 927.672 655.115, 925.735 658.132, 923.521 664 C 921.965 668.125, 919.354 674.425, 917.718 678 C 912.299 689.841, 910.317 696.390, 908.970 706.896 C 907.192 720.773, 908.926 729.699, 915.768 741.892 C 922.239 753.422, 929.416 760.435, 940.229 765.791 C 952.231 771.736, 957.130 772.203, 965.247 768.175 C 977.350 762.168, 980.946 759.086, 988.131 748.561 C 997.091 735.435, 998.873 727.326, 995.514 714.968 C 994.696 711.961, 993.110 705.520, 991.990 700.655 C 990.870 695.790, 989.276 690.615, 988.449 689.155 C 978.255 671.166, 949.833 641.532, 943.282 642.063 C 942.852 642.098, 941.600 642.497, 940.500 642.949 M 811.500 647.961 C 809.300 649.016, 805.025 651.686, 802 653.894 C 798.975 656.103, 794.475 659.133, 792 660.629 C 784.679 665.055, 774.968 674.191, 773.006 678.500 C 769.985 685.134, 770.454 717.608, 773.887 739.500 C 776.713 757.525, 779.869 764.514, 788.255 771.319 C 797.629 778.926, 807.634 781.984, 816.598 779.982 C 822.669 778.626, 838.240 769.444, 843.165 764.316 C 847.583 759.715, 852.394 750.014, 854.976 740.500 C 856.021 736.650, 858.082 729.675, 859.556 725 C 862.798 714.717, 864.100 694.865, 861.958 688.369 C 860.165 682.931, 843.077 657.144, 838.753 653.353 C 834.311 649.457, 825.312 645.993, 819.712 646.022 C 817.396 646.034, 813.700 646.907, 811.500 647.961" stroke="#e23b33" fill="#e23b33" fill-opacity="0.2" fill-rule="evenodd"/><path class="svg-region-Ol" d="M 494 273.035 C 488.775 274.045, 482.025 275.776, 479 276.881 C 475.975 277.987, 471.638 279.571, 469.362 280.402 C 467.087 281.233, 461.389 283.710, 456.700 285.906 C 452.012 288.103, 445.503 290.592, 442.236 291.439 C 433.297 293.755, 423.718 297.564, 412.026 303.452 C 397.058 310.989, 396.837 311.119, 391.409 315.602 C 388.709 317.832, 384.338 321.196, 381.695 323.078 C 373.627 328.824, 371.629 330.365, 367.526 334 C 352.289 347.501, 339.356 361.744, 332.567 372.500 C 330.484 375.800, 327.959 379.400, 326.955 380.500 C 320.844 387.200, 305.128 419.524, 299.556 436.850 C 291.520 461.844, 290.216 468.611, 289.362 489.780 C 288.555 509.747, 291.963 527.064, 299.721 542.421 C 303.602 550.104, 322.001 582.327, 323.462 584 C 325.513 586.349, 339 614.282, 339 616.182 C 339 617.117, 339.502 618.192, 340.114 618.571 C 340.727 618.950, 343.251 623.589, 345.723 628.880 C 355.694 650.228, 370.386 679.061, 376.023 688.344 C 379.310 693.758, 382 698.389, 382 698.636 C 382 698.883, 382.436 699.628, 382.969 700.292 C 385.944 703.999, 393.079 713.277, 396.959 718.484 C 399.411 721.774, 403.796 726.884, 406.703 729.838 C 409.610 732.792, 411.740 735.612, 411.435 736.104 C 411.131 736.597, 411.584 737, 412.441 737 C 413.298 737, 414 737.717, 414 738.594 C 414 739.470, 414.862 740.413, 415.914 740.688 C 417.567 741.120, 432.054 759.081, 435.795 765.335 C 436.507 766.526, 438.852 770.200, 441.008 773.500 C 444.642 779.064, 457 802.870, 457 804.306 C 457 804.656, 459.025 808.368, 461.500 812.554 C 463.975 816.740, 466 820.508, 466 820.928 C 466 821.347, 466.900 822.505, 468 823.500 C 469.100 824.495, 470.003 825.803, 470.006 826.405 C 470.024 829.852, 485.934 844.441, 496.134 850.364 C 502.646 854.145, 520.570 860, 525.631 860 C 527.963 860, 531.137 860.495, 532.685 861.100 C 536.545 862.608, 563.764 862.572, 573 861.046 C 596.257 857.203, 616.055 846.838, 632.619 829.834 C 641.932 820.275, 649 811.462, 649 809.410 C 649 808.635, 649.422 808, 649.937 808 C 650.452 808, 653.457 804.062, 656.615 799.250 C 670.780 777.660, 686.498 754.120, 689.500 750 C 694.230 743.509, 698.416 736.188, 705.513 722 C 717.103 698.830, 725.803 666.533, 727.466 640.500 C 727.748 636.100, 728.202 628.846, 728.476 624.380 C 729.115 613.953, 727.462 592.931, 725.502 586.560 C 723.284 579.353, 718.023 572.374, 713.500 570.638 C 711.082 569.711, 710 565.496, 710 557.011 C 710 543.389, 702.452 514, 698.953 514 C 698.429 514, 698 513.206, 698 512.237 C 698 511.267, 696.426 508.136, 694.502 505.280 C 690.423 499.222, 686.691 490.309, 687.611 488.820 C 688.030 488.142, 687.432 488.053, 685.875 488.562 C 684.569 488.989, 681.925 489.375, 680 489.420 C 678.075 489.464, 676.050 489.758, 675.500 490.072 C 673.759 491.067, 669.124 491.009, 668.491 489.985 C 668.156 489.443, 667.043 489, 666.018 489 C 664.992 489, 662.712 487.787, 660.950 486.305 C 658.518 484.258, 656.394 483.511, 652.122 483.202 C 646.811 482.818, 646.287 482.993, 642.748 486.331 C 640.687 488.275, 639 490.164, 639 490.528 C 639 491.281, 618.025 512, 617.263 512 C 616.991 512, 614.683 513.481, 612.134 515.290 C 609.585 517.100, 606.150 519.177, 604.500 519.907 C 602.850 520.636, 600.719 521.631, 599.764 522.117 C 598.809 522.603, 592.140 523, 584.944 523 C 571.888 523, 571.850 522.993, 567.180 519.819 C 564.606 518.069, 562.187 516.128, 561.804 515.505 C 561.422 514.882, 559.144 512.376, 556.742 509.936 C 551.053 504.158, 547 498.693, 547 496.802 C 547 495.282, 559.602 483, 561.162 483 C 561.623 483, 562 482.325, 562 481.500 C 562 480.675, 562.415 480, 562.923 480 C 563.431 480, 565.160 478.762, 566.767 477.250 C 568.373 475.738, 571.993 472.475, 574.811 470 L 579.935 465.500 609.717 465 L 639.500 464.500 639.596 454 C 639.660 446.979, 640.235 442.009, 641.331 439 C 642.233 436.525, 642.977 433.875, 642.985 433.110 C 642.993 432.346, 643.716 431.197, 644.591 430.557 C 646.044 429.495, 646.046 428.440, 644.616 418.447 C 643.755 412.426, 642.563 401.650, 641.967 394.500 C 640.557 377.566, 639.204 368.385, 637.434 363.730 C 636.645 361.656, 636 358.731, 635.999 357.230 C 635.999 355.728, 634.649 351.647, 632.999 348.160 C 631.350 344.673, 630 341.223, 630 340.494 C 630 339.764, 629.627 339.017, 629.170 338.833 C 628.714 338.650, 625.968 333.775, 623.067 328 C 620.167 322.225, 616.345 315.925, 614.575 314 C 612.805 312.075, 610.598 309.272, 609.670 307.772 C 607.433 304.155, 590.815 289.724, 586.169 287.364 C 584.151 286.339, 581.150 284.540, 579.500 283.366 C 577.850 282.192, 575.375 280.900, 574 280.494 C 572.625 280.088, 571.050 279.405, 570.500 278.978 C 568.347 277.303, 547.170 272.912, 542 273.067 C 540.075 273.125, 536.475 272.703, 534 272.130 C 526.783 270.458, 504.748 270.956, 494 273.035" stroke="#aa444d" fill="#aa444d" fill-opacity="0.2" fill-rule="evenodd"/><path class="svg-region-Or" d="M 1283.610 258.723 C 1283.298 259.035, 1279.996 259.641, 1276.272 260.070 C 1264.932 261.375, 1246.827 265.621, 1240.814 268.386 C 1237.687 269.824, 1234.537 271.010, 1233.814 271.022 C 1231.202 271.066, 1223.404 275.199, 1219 278.874 C 1212.975 283.902, 1201.256 292, 1200.005 292 C 1199.452 292, 1198.988 292.337, 1198.973 292.750 C 1198.959 293.163, 1196.229 296.425, 1192.907 300 C 1185.537 307.933, 1178 317.776, 1178 319.469 C 1178 320.156, 1176.706 323.144, 1175.125 326.109 C 1168.407 338.707, 1163.060 353.857, 1158.047 374.500 C 1156.734 379.905, 1153.469 388.437, 1149.874 395.859 C 1144.973 405.977, 1143.727 409.604, 1143.003 415.859 C 1142.516 420.062, 1141.431 425.428, 1140.591 427.785 C 1139.751 430.142, 1139.320 433.350, 1139.633 434.914 C 1139.946 436.478, 1139.726 438.051, 1139.144 438.411 C 1138.563 438.770, 1138.341 439.726, 1138.652 440.535 C 1139.052 441.578, 1138.287 442.193, 1136.022 442.646 C 1134.023 443.045, 1132.425 444.167, 1131.753 445.642 C 1131.162 446.939, 1130.332 448, 1129.907 448 C 1129.482 448, 1128.832 448.954, 1128.462 450.120 C 1127.293 453.804, 1121.350 458.675, 1116.549 459.883 C 1114.047 460.513, 1112 461.401, 1112 461.856 C 1112 462.815, 1105.221 465, 1102.246 465 C 1101.134 465, 1098.036 466.486, 1095.362 468.302 C 1092.688 470.118, 1088.367 472.403, 1085.760 473.381 C 1083.154 474.358, 1080.764 475.572, 1080.451 476.079 C 1080.138 476.585, 1078.810 477, 1077.500 477 C 1074.420 477, 1073.782 478.160, 1073.695 483.910 C 1073.644 487.272, 1074.397 490.017, 1076.310 493.439 L 1078.996 498.245 1075.322 504.372 C 1073.301 507.743, 1070.334 512.444, 1068.728 514.820 C 1067.121 517.196, 1066.037 519.371, 1066.319 519.652 C 1066.600 519.933, 1066.140 521.814, 1065.296 523.832 C 1061.584 532.708, 1060.848 538.282, 1060.952 556.717 C 1061.062 576.378, 1060.536 579.119, 1055.448 585.354 C 1051.496 590.198, 1044.371 601.238, 1043.577 603.750 C 1043.185 604.987, 1042.446 606, 1041.933 606 C 1041.420 606, 1041 607.125, 1041 608.500 C 1041 609.875, 1040.619 611, 1040.153 611 C 1038.968 611, 1033.837 632.241, 1033.269 639.500 C 1033.010 642.800, 1033.543 650.900, 1034.453 657.500 C 1035.363 664.100, 1036.297 675.350, 1036.529 682.500 C 1036.761 689.650, 1037.262 697.075, 1037.643 699 C 1038.023 700.925, 1038.254 702.996, 1038.157 703.603 C 1037.824 705.676, 1045.164 720.475, 1049.509 726.492 C 1051.895 729.797, 1057.788 736.550, 1062.605 741.500 C 1067.423 746.450, 1076.725 757.250, 1083.276 765.500 C 1093.850 778.814, 1104.466 791.331, 1109.080 795.926 C 1132.184 818.933, 1150.902 828.751, 1183.678 835.054 C 1193.981 837.036, 1219.493 835.785, 1231.074 832.730 C 1262.720 824.382, 1277.563 812.294, 1314.235 765 C 1318.833 759.070, 1326.899 749.145, 1332.816 742.136 C 1334.842 739.735, 1337.043 736.762, 1337.707 735.529 C 1338.371 734.296, 1340.058 732.537, 1341.457 731.620 C 1342.856 730.704, 1344 729.285, 1344 728.467 C 1344 727.649, 1344.900 726.210, 1346 725.268 C 1347.100 724.326, 1348 722.981, 1348 722.278 C 1348 721.575, 1348.438 721, 1348.974 721 C 1349.510 721, 1350.595 719.763, 1351.385 718.250 C 1352.634 715.858, 1363.417 701.327, 1367.178 696.967 C 1367.905 696.125, 1370.075 693.292, 1372 690.673 C 1378.263 682.150, 1383.927 674.522, 1384.749 673.500 C 1385.192 672.950, 1386.615 670.995, 1387.913 669.155 C 1389.210 667.316, 1391.390 664.616, 1392.757 663.155 C 1394.124 661.695, 1395.958 659.375, 1396.832 658 C 1399.936 653.116, 1407.479 643.400, 1413.525 636.500 C 1416.898 632.650, 1422.262 626.350, 1425.444 622.500 C 1428.626 618.650, 1434.487 612.125, 1438.470 608 C 1442.452 603.875, 1446.113 599.754, 1446.605 598.841 C 1447.097 597.929, 1450.763 593.777, 1454.750 589.615 C 1458.737 585.452, 1462 581.586, 1462 581.023 C 1462 580.461, 1462.473 580, 1463.051 580 C 1463.629 580, 1464.715 578.534, 1465.463 576.742 C 1466.212 574.950, 1468.552 571.836, 1470.662 569.823 C 1487.595 553.672, 1504.121 520.754, 1509.732 492 C 1510.769 486.684, 1511.207 477.220, 1511.234 459.500 C 1511.275 433.613, 1510.926 430.421, 1505.656 408.500 C 1503.931 401.321, 1503.494 400.053, 1500.395 393.223 C 1499.078 390.320, 1498 387.118, 1498 386.108 C 1498 385.097, 1497.180 383.197, 1496.178 381.885 C 1495.177 380.573, 1493.332 376.930, 1492.078 373.789 C 1490.825 370.648, 1489.170 367.556, 1488.400 366.917 C 1487.630 366.278, 1487 364.933, 1487 363.927 C 1487 362.922, 1486.413 361.740, 1485.696 361.300 C 1484.979 360.860, 1483.562 358.700, 1482.548 356.500 C 1481.534 354.300, 1480.280 352.223, 1479.762 351.885 C 1479.243 351.547, 1478.297 350.338, 1477.660 349.199 C 1472.270 339.573, 1460.327 326.312, 1448.211 316.500 C 1444.816 313.750, 1442.029 310.923, 1442.019 310.219 C 1442.008 309.514, 1441.213 308.642, 1440.250 308.282 C 1439.287 307.922, 1433.819 303.999, 1428.097 299.564 C 1412.806 287.711, 1404.979 282.942, 1388.849 275.650 C 1386.841 274.743, 1384.899 274, 1384.535 274 C 1384.170 274, 1381.457 272.895, 1378.506 271.545 C 1375.554 270.195, 1370.296 268.355, 1366.820 267.456 C 1363.344 266.557, 1360.050 265.454, 1359.500 265.005 C 1358.258 263.990, 1341.111 260.858, 1326.500 258.976 C 1318.249 257.914, 1284.618 257.715, 1283.610 258.723 M 1185.450 450.848 C 1184.928 451.314, 1181.125 452.253, 1177 452.933 C 1167.357 454.524, 1164.013 455.949, 1163.950 458.494 C 1163.885 461.116, 1155.218 468.187, 1150.371 469.574 C 1146.231 470.758, 1144.909 472.644, 1147.517 473.645 C 1148.442 474, 1150.252 475.238, 1151.539 476.395 C 1157.120 481.417, 1159.537 483.090, 1161.940 483.594 C 1163.348 483.890, 1165.694 484.777, 1167.154 485.566 C 1170.591 487.423, 1174.428 487.394, 1176 485.500 C 1176.989 484.308, 1179.901 484, 1190.172 484 C 1206.614 484, 1209 483.044, 1209 476.454 C 1209 473.383, 1209.792 470.706, 1211.500 468 C 1213.276 465.187, 1214 462.639, 1214 459.205 C 1214 454.569, 1213.832 454.281, 1209.905 452.186 C 1206.503 450.370, 1204.170 450, 1196.105 450 C 1190.767 450, 1185.973 450.382, 1185.450 450.848" stroke="#aa444d" fill="#aa444d" fill-opacity="0.2" fill-rule="evenodd"/><path class="svg-region-OABl" d="M 666.500 434.640 C 665.400 436.129, 663.574 438.281, 662.441 439.423 C 661.309 440.565, 659.124 443.220, 657.586 445.322 C 656.047 447.424, 654.049 449.386, 653.144 449.681 C 652.240 449.977, 648.932 451.172, 645.794 452.337 L 640.089 454.455 639.794 459.478 L 639.500 464.500 609.911 464.765 L 580.322 465.029 575.135 469.765 C 572.282 472.369, 568.181 475.850, 566.020 477.500 C 563.860 479.150, 562.072 481.063, 562.046 481.750 C 562.021 482.438, 561.623 483, 561.162 483 C 559.602 483, 547 495.282, 547 496.802 C 547 498.724, 551.046 504.130, 557.193 510.420 C 559.837 513.126, 562 515.646, 562 516.021 C 562 516.395, 564.280 518.118, 567.066 519.851 C 572.069 522.960, 572.297 523, 585.080 523 C 592.201 523, 598.809 522.602, 599.764 522.115 C 600.719 521.628, 604.087 519.958, 607.250 518.404 C 610.413 516.849, 613 515.253, 613 514.856 C 613 514.459, 613.875 513.857, 614.944 513.518 C 616.886 512.901, 639 491.876, 639 490.646 C 639 490.288, 640.669 488.422, 642.708 486.498 C 647.696 481.794, 653.424 481.629, 660 486 C 662.475 487.645, 665.261 488.993, 666.191 488.996 C 667.121 488.998, 668.160 489.450, 668.500 490 C 669.333 491.348, 673.600 491.267, 675.852 489.860 C 677.083 489.091, 678.247 489.039, 679.426 489.699 C 680.647 490.382, 682.171 490.225, 684.481 489.178 C 688.422 487.392, 692 480.405, 692 474.496 C 692 471.162, 691.305 469.963, 686.931 465.747 C 683.585 462.522, 681.426 459.411, 680.578 456.594 C 679.872 454.247, 678.103 450.574, 676.647 448.431 C 675.191 446.289, 674 444.017, 674 443.383 C 674 442.749, 672.903 441.511, 671.561 440.632 C 669.883 439.533, 669.026 437.927, 668.811 435.484 L 668.500 431.933 666.500 434.640" stroke="#81244d" fill="#81244d" fill-opacity="0.2" fill-rule="evenodd"/><path class="svg-region-OABr" d="M 1185 450.909 C 1184.175 451.375, 1180.350 452.275, 1176.500 452.909 C 1166.986 454.475, 1164.013 455.768, 1163.943 458.371 C 1163.861 461.408, 1154.833 468.553, 1149.324 469.940 C 1145.536 470.894, 1145.011 471.308, 1146.031 472.537 C 1146.699 473.342, 1147.619 474, 1148.077 474 C 1148.535 474, 1150.044 475.012, 1151.432 476.250 C 1152.819 477.488, 1154.926 479.349, 1156.113 480.386 C 1158.609 482.567, 1167.089 486.035, 1171.588 486.714 C 1173.593 487.017, 1175.234 486.623, 1176.267 485.591 C 1177.553 484.305, 1180.274 484, 1190.478 484 C 1206.585 484, 1209 483.016, 1209 476.454 C 1209 473.383, 1209.792 470.706, 1211.500 468 C 1213.276 465.187, 1214 462.639, 1214 459.205 C 1214 454.569, 1213.832 454.281, 1209.905 452.186 C 1206.491 450.363, 1204.206 450.005, 1196.155 450.030 C 1190.845 450.047, 1185.825 450.442, 1185 450.909" stroke="#81244d" fill="#81244d" fill-opacity="0.2" fill-rule="evenodd"/><path class="svg-region-LBPCl" d="M 751.665 398.997 C 746.329 402.382, 745.178 404.304, 747.101 406.622 C 748.249 408.006, 750.231 408.126, 761.963 407.528 C 771.183 407.058, 775.827 406.423, 776.525 405.536 C 777.089 404.819, 778.439 404.062, 779.525 403.853 C 780.831 403.602, 781.500 402.668, 781.500 401.097 C 781.500 399.088, 780.727 398.518, 776.500 397.405 C 773.750 396.681, 768.101 396.068, 763.946 396.044 C 757.231 396.005, 755.866 396.333, 751.665 398.997" stroke="#daffff" fill="#daffff" fill-opacity="0.2" fill-rule="evenodd"/><path class="svg-region-LBPCr" d="M 1002.691 395.922 L 997.532 400.844 1000.266 401.531 C 1003.381 402.312, 1003.956 404, 1001.107 404 C 1000.066 404, 998.978 404.616, 998.689 405.369 C 998.286 406.419, 999.401 406.750, 1003.462 406.786 C 1006.376 406.812, 1009.677 407.406, 1010.798 408.106 C 1012.495 409.166, 1013.498 409.079, 1016.808 407.587 C 1019.195 406.510, 1021.641 406.069, 1022.939 406.481 C 1024.328 406.921, 1026.062 406.513, 1027.799 405.337 C 1029.285 404.330, 1031.737 402.965, 1033.250 402.302 C 1036.680 400.799, 1036.683 399.984, 1033.277 396.103 C 1030.954 393.455, 1029.862 393, 1025.836 393 C 1023.241 393, 1020.840 392.550, 1020.500 392 C 1020.160 391.450, 1017.175 391, 1013.867 391 C 1008.026 391, 1007.701 391.143, 1002.691 395.922" stroke="#daffff" fill="#daffff" fill-opacity="0.2" fill-rule="evenodd"/><path class="svg-region-PNl" d="M 665.390 44.947 C 663.680 45.356, 661.217 46.435, 659.918 47.345 C 658.618 48.255, 656.619 49, 655.474 49 C 654.330 49, 651.618 50.279, 649.447 51.842 C 645.120 54.958, 639.479 56.638, 630.949 57.351 C 624.625 57.879, 612.540 63.123, 610.995 66.009 C 608.516 70.641, 610.813 77.346, 617.355 84.580 C 620.300 87.836, 624.333 93.039, 626.317 96.142 C 628.301 99.246, 631.361 102.846, 633.118 104.142 C 644.948 112.874, 688.991 163.007, 688.998 167.750 C 688.999 168.438, 689.444 169, 689.987 169 C 691.637 169, 694.081 176.134, 694.704 182.772 C 695.248 188.557, 695.423 188.927, 696.967 187.530 C 698.320 186.305, 698.950 186.253, 700.264 187.258 C 702.027 188.606, 707.389 198.299, 713.535 211.249 C 715.380 215.138, 728.701 226, 731.624 226 C 734.042 226, 737 224.055, 737 222.465 C 737 220.516, 737.696 220.616, 740.727 223 C 742.265 224.210, 744.784 225, 747.103 225 C 750.575 225, 751.299 224.504, 754.768 219.750 C 759.400 213.403, 760.993 208.341, 761.020 199.884 C 761.031 196.373, 761.434 190.777, 761.916 187.449 C 763.157 178.875, 761.289 171.620, 757.730 171.192 C 754.624 170.818, 754.179 169.770, 753.356 160.916 C 752.449 151.166, 754 151.719, 761.459 163.803 C 764.905 169.386, 780.469 185.839, 785.909 189.649 C 787.150 190.518, 788.881 190.855, 790.106 190.466 C 791.858 189.910, 792.109 189.221, 791.677 186.152 C 790.733 179.448, 789.251 173.851, 788.120 172.720 C 787.504 172.104, 787 170.890, 787 170.023 C 787 169.155, 785.763 167.024, 784.250 165.287 C 782.737 163.549, 779.765 160.103, 777.644 157.627 C 775.523 155.152, 772.343 152.442, 770.578 151.604 C 767.104 149.956, 762.581 142.307, 761.351 136 C 760.225 130.228, 758.210 126.302, 755.275 124.158 C 747.403 118.410, 739 111.016, 739 109.838 C 739 108.965, 727.124 95.165, 705.578 71 C 700.428 65.225, 694.479 58.433, 692.358 55.907 C 684.013 45.971, 675.533 42.525, 665.390 44.947" stroke="#bbc0d1" fill="#bbc0d1" fill-opacity="0.2" fill-rule="evenodd"/><path class="svg-region-PNr" d="M 1028.500 84.380 C 1024.176 86.380, 1021.468 89.277, 1018.616 94.956 C 1014.495 103.161, 1013.799 106.751, 1013.084 123.500 C 1012.400 139.515, 1012.026 141.186, 1007.788 147.178 C 1006.811 148.560, 1007.016 149.192, 1008.951 150.759 C 1012.151 153.350, 1011.180 157.393, 1007.009 158.847 C 1002.580 160.391, 997 164.970, 997 167.060 C 997 168.062, 996.593 169.133, 996.096 169.441 C 995.599 169.748, 994.865 174.804, 994.465 180.677 C 993.830 189.989, 993.970 191.788, 995.557 194.735 C 997.178 197.745, 997.243 198.761, 996.153 204.037 C 994.245 213.276, 990.217 224.787, 987.486 228.806 C 985.775 231.324, 985 233.827, 985 236.838 C 985 240.044, 984.333 242.004, 982.500 244.182 C 979.473 247.779, 979.458 248.041, 982.073 251.365 C 985.090 255.201, 988.400 254.788, 993 250 C 996.366 246.496, 997.401 246, 1001.340 246 C 1007.618 246, 1008.617 245.422, 1011.056 240.383 C 1014.594 233.075, 1022.892 230.505, 1026.821 235.500 C 1028.864 238.097, 1030.918 238.662, 1032.550 237.077 C 1033.073 236.569, 1034.833 236.007, 1036.462 235.827 C 1038.957 235.552, 1040.131 234.318, 1043.913 228 C 1049.626 218.454, 1061.336 207.537, 1068.491 205.085 L 1073.482 203.375 1073.744 194.937 C 1074.038 185.475, 1074.299 183.367, 1075.304 182.362 C 1075.687 181.980, 1076 180.659, 1076 179.427 C 1076 178.194, 1077.350 174.178, 1079 170.500 C 1080.650 166.822, 1082 163.181, 1082 162.407 C 1082 161.633, 1082.391 161, 1082.868 161 C 1083.346 161, 1083.977 159.209, 1084.271 157.020 C 1084.564 154.831, 1086.592 149.939, 1088.777 146.149 C 1093.779 137.473, 1098.373 123.878, 1098.290 118 C 1098.254 115.525, 1097.710 111.596, 1097.079 109.268 C 1095.969 105.171, 1095.606 104.877, 1085.700 100.051 C 1080.073 97.310, 1072.775 94.191, 1069.484 93.122 C 1066.193 92.052, 1061.700 90.399, 1059.500 89.448 C 1054.953 87.482, 1050.895 86.367, 1043 84.914 C 1032.792 83.037, 1031.507 82.989, 1028.500 84.380" stroke="#bbc0d1" fill="#bbc0d1" fill-opacity="0.2" fill-rule="evenodd"/><path class="svg-region-ODMl" d="M 711.120 402 C 708.864 404.807, 707.134 406, 705.319 406 C 700.164 406, 694.802 408.439, 690.099 412.923 C 679.585 422.948, 678.640 422.876, 678 412 C 677.424 402.214, 677.437 402.198, 672.101 419.636 C 668.388 431.770, 668.047 438.394, 671.038 440.242 C 672.159 440.934, 674.213 443.750, 675.602 446.500 C 676.992 449.250, 678.768 452.625, 679.549 454 C 680.331 455.375, 680.977 457.278, 680.985 458.228 C 680.993 459.179, 683.475 462.432, 686.500 465.457 C 689.525 468.482, 692 471.701, 692 472.610 C 692 473.989, 692.705 474.157, 696.250 473.621 C 698.587 473.268, 704.458 472.691, 709.296 472.339 L 718.093 471.698 717.419 468.599 C 716.439 464.090, 715.270 461.285, 714.062 460.538 C 713.450 460.160, 713 456.341, 713 451.523 C 713 442.841, 714.813 437.446, 720.397 429.512 C 723.262 425.443, 731 411.843, 731 410.879 C 731 410.450, 730.292 409.703, 729.427 409.219 C 728.561 408.735, 727.313 407.250, 726.653 405.919 C 725.915 404.430, 724.414 403.379, 722.749 403.186 C 721.261 403.013, 719.182 401.775, 718.128 400.436 C 717.074 399.096, 715.790 398, 715.273 398 C 714.757 398, 712.888 399.800, 711.120 402" stroke="#999999" fill="#999999" fill-opacity="0.2" fill-rule="evenodd"/><path class="svg-region-ODMr" d="M 1050.500 398.599 C 1046.100 400.444, 1041.450 401.965, 1040.166 401.977 C 1037.848 402, 1037.853 402.026, 1040.923 405.903 C 1042.623 408.049, 1046.533 412.212, 1049.611 415.153 C 1054.669 419.985, 1058.202 424.935, 1063.233 434.239 C 1065.159 437.803, 1064.898 444.031, 1062.396 454.144 C 1060.853 460.381, 1060.540 468, 1061.826 468 C 1062.280 468, 1063.678 466.907, 1064.933 465.572 C 1068.367 461.916, 1071.095 463.417, 1073.003 470.011 C 1075.110 477.291, 1076.432 477.887, 1083.282 474.646 C 1086.359 473.191, 1089.292 472, 1089.801 472 C 1090.309 472, 1092.382 470.683, 1094.408 469.073 C 1096.434 467.463, 1100.353 465.661, 1103.118 465.068 C 1105.883 464.475, 1110.518 462.867, 1113.419 461.495 C 1116.320 460.123, 1119.131 459, 1119.666 459 C 1121.261 459, 1126.341 453.818, 1129.469 449 C 1131.076 446.525, 1133.646 443.136, 1135.180 441.468 L 1137.969 438.436 1133.900 432.208 C 1129.356 425.254, 1128.408 424.566, 1122.026 423.589 C 1119.565 423.213, 1116.865 422.294, 1116.026 421.548 C 1114.152 419.881, 1102.634 414, 1101.244 414 C 1100.690 414, 1098.046 411.980, 1095.368 409.511 C 1092.691 407.042, 1090.023 405.017, 1089.440 405.011 C 1088.857 405.005, 1087.057 403.736, 1085.440 402.190 C 1079.193 396.220, 1075.963 394.990, 1066.882 395.121 C 1059.792 395.224, 1057.267 395.760, 1050.500 398.599" stroke="#999999" fill="#999999" fill-opacity="0.2" fill-rule="evenodd"/>
    </svg>