<svg xmlns="http://www.w3.org/2000/svg" width="1785" height="1131" viewBox="0 0 1785 1131" version="1.1">
    <path class="svg-region-LBr" d="M 1016.568 411.890 C 1016.191 412.500, 1014.109 413, 1011.941 413 C 1009.773 413, 1008 413.241, 1008 413.535 C 1008 414.736, 1011.753 419.756, 1015.718 423.859 C 1018.038 426.261, 1020.221 429.187, 1020.569 430.363 C 1022.288 436.175, 1026.252 442.639, 1029.085 444.250 C 1033.251 446.619, 1038.540 446.464, 1042.189 443.865 C 1044.767 442.030, 1045.098 441.293, 1044.546 438.615 C 1044.194 436.902, 1043.671 433.925, 1043.385 432 C 1042.823 428.219, 1039.991 422, 1038.832 422 C 1038.439 422, 1037.840 422.450, 1037.500 423 C 1036.413 424.759, 1033.979 424.073, 1033.069 421.750 C 1031.536 417.834, 1024.620 411.975, 1020.799 411.355 C 1018.674 411.010, 1016.980 411.224, 1016.568 411.890" stroke="#d7b230" fill="#d7b230" fill-opacity="0.2" fill-rule="evenodd"/><path class="svg-region-AP" d="M 851.500 444.558 C 835.508 446.449, 828.485 447.663, 823.722 449.360 C 821.400 450.187, 816.800 451.647, 813.500 452.603 C 806.219 454.714, 797.475 458.422, 796.657 459.746 C 796.328 460.279, 796.450 468.367, 796.929 477.720 L 797.800 494.724 801.928 502.743 C 805.316 509.323, 807.892 512.512, 816.279 520.505 C 821.900 525.863, 828.416 532.554, 830.758 535.374 C 838.014 544.110, 840.266 546.217, 844.261 548.006 C 850.933 550.993, 859.050 559.834, 863.752 569.236 C 866.089 573.907, 868 578.248, 868 578.883 C 868 580.280, 873.009 579.315, 874.500 577.630 C 876.638 575.214, 883.705 571.002, 885.554 571.042 C 886.624 571.065, 889.750 573.306, 892.500 576.021 C 895.250 578.737, 898.625 581.350, 900 581.829 C 910.108 585.350, 911.281 585.097, 905.891 580.561 C 902.981 578.113, 902.826 577.648, 903.474 573.322 C 903.953 570.133, 904.958 568.048, 906.716 566.600 C 908.117 565.445, 911.117 562.495, 913.382 560.045 C 921.705 551.041, 924.412 549.021, 934.674 544.157 C 937.624 542.758, 938.351 541.790, 940.979 535.750 C 947.400 520.997, 949 516.136, 949 511.386 C 949 508.539, 949.865 503.351, 950.922 499.855 C 951.978 496.360, 953.323 490.575, 953.910 487 C 954.496 483.425, 955.433 478.285, 955.990 475.578 C 957.171 469.845, 956.236 467.803, 950.372 463.301 C 948.365 461.760, 943.595 457.800, 939.772 454.500 C 928.608 444.865, 930.261 445.359, 905 444.102 C 877.774 442.747, 865.969 442.847, 851.500 444.558" stroke="#fc7143" fill="#fc7143" fill-opacity="0.2" fill-rule="evenodd"/><path class="svg-region-PP" d="M 826.250 317.973 C 823.450 319.244, 822 320.541, 822 321.775 C 822 322.805, 820.837 327.439, 819.415 332.074 C 816.518 341.514, 813.880 351.033, 812.089 358.500 C 811.430 361.250, 809.529 366.391, 807.864 369.923 C 804.750 376.536, 803.572 381.659, 801.986 395.500 C 801.481 399.900, 800.097 409.125, 798.910 416 C 796.903 427.623, 795.054 459, 796.376 459 C 796.682 459, 798.635 458.263, 800.716 457.361 C 807.473 454.435, 808.400 454.109, 816 451.981 C 820.125 450.825, 824.314 449.436, 825.310 448.894 C 827.392 447.760, 834.561 446.658, 855 444.332 C 867.876 442.866, 872.724 442.820, 898.282 443.916 C 917.477 444.740, 927.884 445.577, 929.529 446.431 C 930.885 447.134, 934.791 450.294, 938.208 453.452 C 941.626 456.610, 946.318 460.499, 948.635 462.093 C 950.952 463.687, 953.748 466.135, 954.848 467.533 L 956.847 470.075 957.388 464.787 C 957.686 461.879, 958.204 456.125, 958.540 452 C 959.213 443.726, 960.651 435.583, 961.983 432.500 C 962.459 431.400, 963.531 427.125, 964.366 423 C 966.269 413.599, 967.916 407.083, 969.043 404.500 C 970.231 401.774, 970.577 398.707, 969.834 397.500 C 965.087 389.796, 961.292 380.767, 958.944 371.591 C 957.382 365.491, 954.691 356.225, 952.962 351 C 948.881 338.663, 946.053 328.111, 946.024 325.110 C 945.974 320.096, 940.505 318.681, 934 322 C 930.616 323.726, 928.106 324, 915.666 324 C 905.850 324, 899.982 324.448, 897.274 325.403 C 895.086 326.175, 887.903 327.129, 881.311 327.522 C 870.370 328.175, 868.908 328.053, 864.536 326.119 C 861.901 324.953, 858.930 324, 857.932 324 C 856.934 324, 855.871 323.600, 855.568 323.111 C 855.266 322.622, 853.835 321.924, 852.389 321.561 C 850.942 321.198, 849.123 320.265, 848.345 319.488 C 844.638 315.781, 832.858 314.973, 826.250 317.973" stroke="#c4743d" fill="#c4743d" fill-opacity="0.2" fill-rule="evenodd"/><path class="svg-region-LPl" d="M 800.092 386.007 C 796.387 391.726, 791.295 396, 788.187 396 C 786.702 396, 786.237 396.455, 786.643 397.513 C 786.963 398.345, 786.668 399.695, 785.989 400.513 C 784.298 402.551, 774.182 402.516, 771.249 400.462 C 767.275 397.679, 754.145 400.574, 752.611 404.572 C 752.127 405.834, 751.206 406.074, 748.674 405.599 C 745.972 405.092, 744.938 405.437, 743.010 407.489 C 741.713 408.870, 740.115 410, 739.461 410 C 737.497 410, 733.074 413.963, 731.271 417.338 C 730.341 419.077, 729.310 423.929, 728.978 428.119 C 728.457 434.706, 727.940 436.288, 725.164 439.793 C 723.397 442.023, 721.015 446.245, 719.869 449.174 C 717.274 455.807, 716.005 458.903, 714.761 461.631 C 714.227 462.803, 714.127 464.824, 714.539 466.123 C 715.208 468.230, 715.112 468.337, 713.644 467.120 C 712.740 466.369, 712 465.135, 712 464.378 C 712 463.479, 710.869 463.018, 708.750 463.052 C 705.505 463.105, 705.504 463.107, 707.750 464.674 C 708.987 465.538, 710 466.864, 710 467.622 C 710 468.380, 710.866 469.866, 711.924 470.924 C 712.983 471.983, 714.387 473.854, 715.044 475.083 C 716.349 477.520, 720.732 482.654, 725.601 487.447 C 727.306 489.126, 729.770 492.075, 731.075 494 C 732.381 495.925, 736.233 500.477, 739.636 504.116 C 743.039 507.755, 746.753 512.555, 747.890 514.784 C 749.027 517.013, 751.317 520.851, 752.978 523.313 C 754.640 525.775, 756 528.050, 756 528.368 C 756 528.685, 757.083 531.320, 758.407 534.223 C 759.731 537.125, 761.590 541.632, 762.538 544.237 C 764.334 549.172, 769.286 557.435, 772.179 560.324 C 773.102 561.246, 774.759 562, 775.861 562 C 776.963 562, 778.139 562.863, 778.474 563.917 C 779.431 566.934, 811.605 580.360, 820.500 581.454 C 823.800 581.860, 827.065 582.657, 827.755 583.223 C 828.446 583.790, 830.696 584.011, 832.755 583.715 C 834.815 583.418, 838.911 583.512, 841.858 583.923 C 849.578 584.998, 867.348 582.146, 867.808 579.758 C 867.993 578.800, 866.199 574.101, 863.822 569.317 C 859.230 560.074, 850.926 550.850, 844.929 548.328 C 840.552 546.488, 837.305 543.721, 833.741 538.798 C 832.031 536.434, 825.140 529.100, 818.428 522.500 C 808.722 512.955, 805.372 508.910, 802.055 502.729 L 797.886 494.958 796.979 478.729 C 795.381 450.121, 795.735 437.002, 798.579 419.434 C 799.998 410.670, 801.543 399.900, 802.012 395.500 C 802.482 391.100, 803.177 386.038, 803.558 384.250 C 803.939 382.462, 804.045 381, 803.793 381 C 803.542 381, 801.877 383.253, 800.092 386.007" stroke="#d2454f" fill="#d2454f" fill-opacity="0.2" fill-rule="evenodd"/><path class="svg-region-LPr" d="M 970 401.226 C 970 402.569, 969.663 404.004, 969.251 404.416 C 968.406 405.260, 966.669 411.901, 964.389 423 C 963.541 427.125, 962.437 431.400, 961.935 432.500 C 960.546 435.544, 958.001 451.608, 957.993 457.381 C 957.983 464.880, 953.657 490.439, 950.610 501 C 949.738 504.025, 949.018 508.626, 949.012 511.224 C 949 515.784, 946.561 523.054, 940.442 536.769 C 938.663 540.757, 936.979 542.997, 935.165 543.790 C 930.762 545.712, 924.523 549.350, 924.167 550.202 C 923.983 550.641, 923.212 551, 922.453 551 C 921.694 551, 918.745 553.813, 915.899 557.250 C 913.053 560.688, 909.448 564.325, 907.887 565.333 C 905.201 567.067, 903.019 571.961, 903.006 576.281 C 903 577.949, 909.439 584.500, 911.083 584.500 C 911.496 584.500, 912.133 584.800, 912.500 585.167 C 912.867 585.533, 925.458 585.887, 940.482 585.952 L 967.797 586.070 973.438 583.399 C 979.506 580.526, 981.950 578.427, 989.096 569.951 C 999.548 557.553, 1004.230 551.432, 1013.536 538 C 1025.176 521.199, 1029.180 514.737, 1032.937 506.683 C 1038.760 494.202, 1039.745 491.454, 1043.036 478.500 C 1044.713 471.900, 1046.525 466.347, 1047.064 466.160 C 1048.383 465.701, 1051.295 459.961, 1050.574 459.240 C 1050.258 458.925, 1050 459.192, 1050 459.833 C 1050 460.475, 1049.612 461, 1049.137 461 C 1048.662 461, 1048.035 458.023, 1047.743 454.384 C 1047.347 449.459, 1046.670 447.226, 1045.095 445.650 C 1043.306 443.861, 1042.671 443.724, 1041.002 444.766 C 1038.181 446.528, 1032.671 446.290, 1029.085 444.250 C 1026.205 442.612, 1022.301 436.189, 1020.486 430.101 C 1020.093 428.782, 1017.862 425.848, 1015.530 423.581 C 1013.197 421.314, 1010.537 418.006, 1009.619 416.229 C 1008.700 414.453, 1007.346 413, 1006.609 413 C 1005.872 413, 1004.057 412.046, 1002.575 410.880 C 1000.662 409.376, 997.937 408.615, 993.190 408.259 C 988.162 407.882, 985.879 407.204, 984 405.529 C 982.625 404.303, 979.475 402.508, 977 401.540 C 974.525 400.572, 971.938 399.557, 971.250 399.283 C 970.456 398.967, 970 399.676, 970 401.226" stroke="#d2454f" fill="#d2454f" fill-opacity="0.2" fill-rule="evenodd"/><path class="svg-region-DMl" d="M 801 311.042 C 794.855 313.079, 776.426 315.762, 774.746 314.863 C 772.492 313.658, 766.960 315.085, 756.199 319.647 C 745.851 324.034, 737.367 325.394, 732.051 323.518 C 729.949 322.776, 724.690 321.911, 720.365 321.595 C 706.597 320.588, 697.538 319.486, 696.230 318.660 C 694.693 317.688, 688.139 319.718, 686.042 321.815 C 684.701 323.156, 682.992 326.931, 681.318 332.250 C 680.949 333.422, 681.301 334, 682.383 334 C 683.769 334, 684.029 335.678, 684.201 345.750 C 684.311 352.212, 684.303 359.188, 684.182 361.250 C 684.055 363.428, 684.422 365, 685.056 365 C 685.715 365, 686.084 366.883, 685.985 369.750 C 685.896 372.363, 685.909 374.950, 686.015 375.500 C 686.120 376.050, 686.121 381.991, 686.015 388.703 C 685.910 395.415, 686.116 401.379, 686.474 401.958 C 686.882 402.618, 688.686 401.952, 691.312 400.173 C 693.616 398.613, 698.425 395.974, 702 394.308 C 707.326 391.827, 709.403 391.366, 713.500 391.755 C 718.811 392.260, 719.960 393.145, 719.985 396.750 C 719.993 398.026, 720.618 399, 721.429 399 C 723.722 399, 726 401.920, 726 404.859 C 726 406.405, 727.259 409.067, 728.923 411.038 C 731.466 414.049, 732.085 414.336, 733.673 413.243 C 734.678 412.551, 736.625 411.444, 738 410.782 C 739.375 410.120, 741.844 408.487, 743.488 407.154 C 745.996 405.118, 746.477 404.009, 746.488 400.235 C 746.503 394.552, 748.469 392.951, 752.328 395.479 C 753.937 396.534, 755 398.141, 755 399.521 C 755 401.618, 755.276 401.739, 758.250 400.943 C 760.038 400.465, 763.170 399.815, 765.211 399.499 C 768.748 398.951, 768.869 398.807, 767.788 396.435 C 766.271 393.104, 767.807 391.648, 773.222 391.285 C 776.337 391.076, 778.374 391.644, 781.183 393.502 C 787.034 397.375, 790.293 396.860, 795.815 391.189 C 801.410 385.443, 811.557 364.365, 813.002 355.486 C 813.870 350.156, 815.300 344.910, 817.088 340.500 C 819.199 335.293, 822.089 322.603, 821.811 319.761 C 821.334 314.886, 814.382 309.965, 808.172 310.106 C 805.603 310.165, 802.375 310.586, 801 311.042" stroke="#68533d" fill="#68533d" fill-opacity="0.2" fill-rule="evenodd"/><path class="svg-region-DMr" d="M 950.270 319.576 C 945.754 321.552, 945.245 324.682, 947.856 334.428 C 949.045 338.868, 950.259 343.573, 950.553 344.885 C 950.847 346.196, 951.665 348.446, 952.370 349.885 C 953.638 352.470, 954.558 355.546, 959.555 373.898 C 963.280 387.580, 970.834 400.923, 974.924 401.048 C 975.791 401.074, 978.075 401.879, 980 402.835 L 983.500 404.575 987.750 400.249 C 990.087 397.870, 992 395.461, 992 394.895 C 992 394.330, 993.237 394.010, 994.750 394.184 C 997.068 394.450, 997.457 394.919, 997.225 397.165 C 996.994 399.407, 997.430 399.936, 999.969 400.493 C 1001.630 400.858, 1003.376 401.849, 1003.849 402.695 C 1004.586 404.012, 1005.214 404.052, 1008.204 402.971 C 1012.241 401.511, 1015.473 402.151, 1018.979 405.104 C 1021.279 407.041, 1021.334 407.283, 1019.729 408.456 C 1017.245 410.272, 1017.558 410.826, 1021.481 411.562 C 1024.866 412.197, 1029.287 416.158, 1033.141 422.009 C 1034.760 424.467, 1034.822 424.477, 1037.795 422.750 C 1039.499 421.761, 1042.846 421, 1045.497 421 C 1048.670 421, 1051.006 420.354, 1052.727 419 C 1054.126 417.900, 1056.136 417, 1057.194 417 C 1059.818 417, 1067.628 423.687, 1069.070 427.169 C 1070.568 430.787, 1072.898 430.760, 1076.419 427.084 C 1078.685 424.719, 1079.386 422.781, 1080.130 416.834 C 1081.124 408.877, 1082.710 390.235, 1083.942 372 C 1084.369 365.675, 1085.232 358.928, 1085.860 357.007 C 1089.395 346.176, 1085.961 344.617, 1065.147 347.605 C 1059.586 348.403, 1049.670 346.367, 1044.412 343.348 C 1041.237 341.524, 1038.828 341, 1033.622 341 C 1029.089 341, 1025.720 340.399, 1023.210 339.142 C 1021.170 338.120, 1018.224 336.977, 1016.665 336.601 C 1015.105 336.226, 1012.855 335.002, 1011.665 333.882 C 1008.766 331.153, 1004.887 329.660, 996.500 328.046 C 992.590 327.293, 988.176 325.706, 986.500 324.449 C 978.706 318.606, 976.617 317.995, 964.720 318.082 C 957.410 318.135, 952.375 318.656, 950.270 319.576 M 997 408.383 C 997 408.594, 998.125 408.982, 999.500 409.245 C 1000.875 409.508, 1002 409.335, 1002 408.861 C 1002 408.388, 1000.875 408, 999.500 408 C 998.125 408, 997 408.173, 997 408.383" stroke="#68533d" fill="#68533d" fill-opacity="0.2" fill-rule="evenodd"/><path class="svg-region-PMl" d="M 714.687 197.805 C 712.031 200.577, 711.063 202.697, 713 201.500 C 714.377 200.649, 714.279 201.217, 712.098 206.751 C 711.052 209.405, 710.398 212.684, 710.644 214.038 C 711.034 216.180, 709.941 217.308, 702.228 222.720 C 697.353 226.141, 692.537 229.854, 691.527 230.970 C 690.517 232.087, 688.890 233, 687.913 233 C 684.192 233, 679.737 243.459, 676.839 259 C 675.701 265.102, 676.401 283.767, 678.452 302 C 679.829 314.252, 683.176 328.877, 683.829 325.500 C 684.042 324.400, 684.962 322.793, 685.873 321.930 C 688.033 319.883, 693.935 317.842, 695.283 318.675 C 696.359 319.340, 706.960 320.599, 719.500 321.551 C 723.350 321.843, 728.575 322.754, 731.111 323.575 C 734.020 324.517, 737.213 324.830, 739.765 324.422 L 743.809 323.775 744.284 315.137 C 744.546 310.387, 745.937 301.325, 747.377 295 C 751.960 274.861, 752.479 269.591, 751.343 254.760 C 750.416 242.661, 749.998 240.719, 747.220 235.590 C 745.311 232.065, 743.894 227.708, 743.513 224.192 C 742.763 217.277, 740.100 205.239, 738.713 202.500 C 737.372 199.852, 736.022 199.034, 732.961 199.015 C 731.565 199.007, 728.658 198.100, 726.500 197 C 721.085 194.240, 717.895 194.457, 714.687 197.805" stroke="#90cf92" fill="#90cf92" fill-opacity="0.2" fill-rule="evenodd"/><path class="svg-region-PMr" d="M 1032.571 238.614 C 1027.033 244.044, 1025.956 245.609, 1026.554 247.364 C 1028.189 252.167, 1028.141 260.781, 1026.448 266.106 C 1024.696 271.617, 1023.490 282.565, 1022.384 303 C 1021.789 313.997, 1022.678 324.566, 1025.182 336.250 L 1026.199 341 1032.858 341 C 1038.036 341, 1040.557 341.554, 1044.199 343.493 C 1051.045 347.137, 1061.490 348.712, 1068.801 347.202 C 1076.125 345.689, 1083.258 345.658, 1084.733 347.133 C 1087.323 349.723, 1088.727 347.268, 1089.193 339.333 C 1089.446 335.025, 1090.395 329.925, 1091.301 328 C 1092.207 326.075, 1093.652 321.350, 1094.512 317.500 C 1095.372 313.650, 1096.734 308.803, 1097.538 306.730 C 1098.483 304.293, 1098.997 299.342, 1098.990 292.730 C 1098.982 283.983, 1098.625 281.737, 1096.528 277.233 C 1095.180 274.337, 1093.384 271.701, 1092.538 271.376 C 1091.692 271.052, 1091 270.113, 1091 269.291 C 1091 268.469, 1088.086 264.805, 1084.524 261.148 C 1080.963 257.492, 1074.652 250.924, 1070.500 246.554 C 1061.392 236.967, 1058.467 234.882, 1055.600 235.935 C 1051.181 237.559, 1048 238.018, 1048 237.030 C 1048 234.940, 1044.456 232, 1041.936 232 C 1040.054 232, 1037.417 233.862, 1032.571 238.614" stroke="#90cf92" fill="#90cf92" fill-opacity="0.2" fill-rule="evenodd"/><path class="svg-region-PV" d="M 769.299 142.599 C 771.853 151.761, 772.348 155.167, 771.224 155.861 C 770.343 156.406, 770.568 157.994, 772.103 162.047 C 774.888 169.403, 786.156 191.777, 790.477 198.531 C 792.398 201.534, 794.707 205.681, 795.607 207.745 C 803.372 225.541, 804 227.491, 804 233.796 C 804 245.188, 797.844 264.455, 790.770 275.204 C 785.080 283.849, 785 284.156, 785 297.212 C 785 306.920, 785.342 310.044, 786.604 311.845 C 787.662 313.356, 788.767 313.910, 789.854 313.473 C 791.879 312.660, 800.869 311.035, 807.228 310.332 C 812.486 309.751, 817.249 311.959, 820.984 316.707 C 822.993 319.261, 823.019 319.265, 827.284 317.636 C 832.938 315.476, 838.825 315.569, 845.525 317.924 C 848.536 318.983, 851 319.646, 851 319.399 C 851 319.151, 852.263 319.602, 853.807 320.400 C 855.802 321.432, 860.313 321.874, 869.409 321.930 C 876.447 321.974, 882.676 322.300, 883.251 322.655 C 883.825 323.010, 894.671 323.421, 907.351 323.567 C 928.411 323.810, 930.732 323.667, 934.163 321.917 C 938.741 319.581, 940.859 319.512, 943.842 321.602 C 945.851 323.009, 946.275 323.025, 947.315 321.730 C 949.373 319.170, 954.981 318, 965.198 318 C 973.039 318, 975.954 318.414, 979.222 319.993 C 981.491 321.089, 983.524 321.809, 983.740 321.593 C 984.453 320.880, 982.068 284.265, 980.996 279.484 C 979.633 273.400, 970.295 257.578, 964.008 250.699 L 959.077 245.304 965.538 223.950 C 969.092 212.206, 972 201.358, 972 199.845 C 972 197.852, 973.070 196.235, 975.884 193.973 C 978.899 191.550, 980.252 189.375, 981.937 184.241 C 983.131 180.605, 985.096 176.689, 986.304 175.541 C 987.512 174.392, 989.400 172.160, 990.500 170.582 C 991.600 169.003, 993.323 166.989, 994.329 166.106 C 996.905 163.844, 999.246 159.082, 998.604 157.410 C 998.285 156.580, 996.667 156, 994.671 156 C 992.806 156, 987.504 154.258, 982.890 152.130 C 973.290 147.701, 968.494 146.392, 967.536 147.941 C 966.588 149.475, 963.716 149.288, 964.602 147.750 C 964.998 147.063, 964.125 147.591, 962.661 148.924 C 960.510 150.884, 960 152.238, 960 155.987 C 960 159.798, 959.484 161.121, 957.106 163.398 C 955.514 164.923, 953.656 168.158, 952.976 170.586 L 951.740 175 942.264 175 C 932.055 175, 922.885 176.880, 917.714 180.033 C 912.877 182.982, 905.953 182.661, 900.831 179.250 C 898.559 177.738, 896.015 176.050, 895.178 175.500 C 894.340 174.950, 892.316 173.262, 890.679 171.750 C 886.764 168.132, 883.188 168.231, 876.155 172.153 C 873.045 173.888, 869.150 176.016, 867.500 176.882 C 865.796 177.777, 861.165 178.620, 856.781 178.833 C 850.615 179.133, 848.202 178.808, 844.781 177.217 C 837.282 173.727, 833.903 173, 825.172 173 C 820.480 173, 815.248 172.496, 813.545 171.880 C 808.587 170.087, 802.879 160.755, 800.316 150.250 C 800.014 149.012, 799.369 148, 798.883 148 C 798.398 148, 798 147.073, 798 145.941 C 798 144.683, 797.567 144.150, 796.887 144.570 C 794.262 146.192, 777.924 144.230, 770.635 141.417 C 769.136 140.839, 768.873 141.072, 769.299 142.599" stroke="#b09658" fill="#b09658" fill-opacity="0.2" fill-rule="evenodd"/><path class="svg-region-LPVl" d="M 741.933 141.094 C 739.939 143.894, 739.804 144.867, 740.508 151.344 C 741.930 164.420, 741.140 182.088, 738.767 190.265 C 737.710 193.907, 737.558 194.009, 734.087 193.383 C 732.114 193.028, 729.814 192.384, 728.975 191.954 C 726.804 190.839, 710.747 191.092, 709.250 192.265 C 707.528 193.615, 707.678 198.488, 709.489 199.991 C 710.713 201.007, 711.608 200.673, 714.524 198.113 C 718.660 194.482, 721.113 194.254, 726.500 197 C 728.658 198.100, 731.565 199.007, 732.961 199.015 C 736.016 199.034, 737.361 199.845, 738.738 202.500 C 739.929 204.796, 742.602 217.135, 743.504 224.500 C 743.840 227.250, 745.461 232.250, 747.105 235.611 C 751.762 245.131, 753.438 266.733, 750.550 280 C 744.993 305.534, 744 311.171, 744 317.202 C 744 320.941, 744.155 324, 744.343 324 C 745.427 324, 756.201 319.947, 759.087 318.454 C 764.418 315.696, 772.046 313.954, 774.064 315.034 C 775.178 315.631, 777.862 315.559, 781.457 314.837 C 786.105 313.904, 786.962 313.421, 786.314 312.102 C 785.882 311.221, 785.398 304.650, 785.239 297.500 L 784.950 284.500 788.442 279 C 798.067 263.841, 803.062 249.878, 803.767 236.164 C 804.054 230.578, 803.819 225.959, 803.183 224.664 C 802.599 223.474, 800.479 218.675, 798.473 214 C 796.467 209.325, 792.866 202.350, 790.469 198.500 C 788.073 194.650, 784.880 188.800, 783.375 185.500 C 781.870 182.200, 779.450 177.475, 777.998 175 C 776.545 172.525, 774.115 167.245, 772.597 163.266 C 770.071 156.645, 769.525 155.938, 766.162 154.930 C 761.316 153.479, 760.016 152.412, 756.097 146.674 C 752.968 142.095, 747.893 138.012, 745.318 138.004 C 744.668 138.002, 743.145 139.392, 741.933 141.094" stroke="#494949" fill="#494949" fill-opacity="0.2" fill-rule="evenodd"/><path class="svg-region-LPVr" d="M 1006.810 170.772 C 1004.314 173.441, 1001.707 176.680, 1001.016 177.971 C 999.067 181.612, 990.384 191, 988.964 191 C 988.602 191, 987.268 191.900, 986 193 C 983.070 195.541, 981.136 195.541, 980.196 193 C 979.488 191.087, 979.297 191.131, 975.834 193.985 C 973.123 196.220, 972.103 197.916, 971.775 200.735 C 971.534 202.806, 969.624 210.125, 967.531 217 C 965.437 223.875, 962.692 233.071, 961.431 237.435 L 959.138 245.371 963.853 250.529 C 970.263 257.543, 979.825 273.815, 981.001 279.712 C 981.526 282.345, 982.448 293.050, 983.050 303.500 C 983.978 319.606, 984.422 322.785, 985.971 324.371 C 987.065 325.492, 991.219 326.955, 996.333 328.020 C 1004.193 329.658, 1013 333.386, 1013 335.076 C 1013 335.465, 1014.237 336.073, 1015.750 336.426 C 1017.263 336.780, 1019.945 337.821, 1021.711 338.741 C 1023.476 339.660, 1025.141 340.193, 1025.409 339.924 C 1025.678 339.655, 1025.504 337.650, 1025.022 335.468 C 1022.709 324.985, 1021.800 313.796, 1022.384 303 C 1023.460 283.120, 1024.719 271.667, 1026.387 266.591 C 1028.203 261.064, 1028.499 252.442, 1027.007 248.519 C 1025.757 245.230, 1027.518 242.299, 1033.047 238.467 C 1035.221 236.961, 1037 235.162, 1037 234.471 C 1037 231.839, 1044.670 230.977, 1045.638 233.500 C 1045.955 234.325, 1046.706 235, 1047.307 235 C 1048.038 235, 1048.003 234.603, 1047.200 233.800 C 1046.540 233.140, 1046 231.847, 1046 230.927 C 1046 229.654, 1044.824 229.141, 1041.075 228.781 C 1038.366 228.521, 1033.709 227.114, 1030.725 225.654 C 1027.742 224.194, 1024.642 223, 1023.837 223 C 1019.778 223, 1012.370 209.735, 1010.008 198.240 C 1008.354 190.186, 1009.161 182.706, 1012.463 175.488 C 1017.038 165.485, 1014.071 163.010, 1006.810 170.772" stroke="#494949" fill="#494949" fill-opacity="0.2" fill-rule="evenodd"/><path class="svg-region-VV" d="M 836.500 138.055 C 834.300 138.528, 827.325 139.374, 821 139.935 C 805.854 141.279, 794.908 145.159, 798.628 147.866 C 799.623 148.589, 801.805 154.013, 802.951 158.611 C 804.086 163.161, 810.028 170.586, 813.571 171.879 C 815.260 172.496, 820.480 173, 825.172 173 C 833.903 173, 837.282 173.727, 844.781 177.217 C 848.202 178.808, 850.615 179.133, 856.781 178.833 C 861.153 178.621, 865.801 177.776, 867.500 176.886 C 884.980 167.725, 886.092 167.478, 890.615 171.750 C 892.216 173.262, 896 176.188, 899.022 178.250 C 905.497 182.669, 911.607 183.262, 917.850 180.077 C 924.133 176.871, 933.305 175, 942.734 175 L 951.680 175 953.011 170.750 C 953.743 168.412, 955.615 165.129, 957.171 163.452 C 959.299 161.160, 960 159.411, 960 156.397 C 960 153.678, 960.815 151.284, 962.533 148.955 C 963.926 147.067, 964.714 145.406, 964.283 145.265 C 961.109 144.225, 941.690 141.612, 928 140.384 C 916.536 139.355, 906.098 139.096, 893.800 139.533 C 883.215 139.910, 873.970 139.757, 870.800 139.154 C 863.341 137.733, 841.283 137.027, 836.500 138.055" stroke="#7699d1" fill="#7699d1" fill-opacity="0.2" fill-rule="evenodd"/><path class="svg-region-B" d="M 924.111 643.385 C 917.247 648.038, 915.091 650.871, 915.035 655.312 C 915.016 656.858, 913.923 660.458, 912.607 663.312 C 910.372 668.157, 910.179 669.986, 909.686 691 C 909.159 713.413, 909.167 713.525, 911.733 720 C 913.149 723.575, 916.177 728.975, 918.462 732 C 920.746 735.025, 924.720 741.128, 927.293 745.563 C 930.989 751.934, 933.684 755.054, 940.134 760.429 C 952.119 770.415, 959.205 772.926, 966.685 769.837 C 968.233 769.198, 972.733 768.374, 976.685 768.006 C 982.360 767.478, 984.633 766.754, 987.507 764.563 C 989.507 763.037, 991.403 761.049, 991.719 760.144 C 992.035 759.240, 993.322 757.375, 994.579 756 C 995.836 754.625, 998.075 749.900, 999.556 745.500 C 1002.164 737.748, 1002.232 736.972, 1001.750 720.476 L 1001.253 703.452 997.500 695.976 C 995.436 691.864, 992.229 686.203, 990.374 683.396 C 988.518 680.590, 987 677.375, 987 676.253 C 987 675.132, 986.325 673.955, 985.500 673.638 C 984.506 673.257, 984 673.675, 984 674.876 C 984 677.255, 980.898 680, 978.210 680 C 976.506 680, 975.769 678.961, 974.543 674.834 C 973.699 671.992, 972.363 668.954, 971.574 668.082 C 969.349 665.623, 967.804 661, 969.207 661 C 969.844 661, 967.705 658.525, 964.455 655.500 C 961.205 652.475, 958.446 650, 958.324 650 C 958.203 650, 957.006 648.987, 955.664 647.750 C 950.870 643.327, 940.861 638.997, 935.500 639.027 C 931.278 639.051, 929.506 639.729, 924.111 643.385 M 825.750 643.392 C 824.788 644.123, 824.001 645.121, 824.003 645.610 C 824.009 647.484, 819.446 655, 818.303 655 C 817.642 655, 815.878 656.605, 814.382 658.566 C 812.886 660.527, 809.904 663.028, 807.756 664.124 C 805.483 665.284, 802.739 667.902, 801.192 670.387 C 798.620 674.518, 794.689 676.848, 789.500 677.319 C 787.979 677.457, 787.557 676.961, 787.738 675.250 C 787.869 674.013, 787.725 673, 787.417 673 C 785.285 673, 779.390 683.554, 778.391 689.159 C 778.064 690.996, 776.913 695.218, 775.834 698.540 C 774.208 703.545, 773.947 706.545, 774.309 716.040 C 775.156 738.203, 778.879 748.483, 788.119 754.168 C 790.801 755.818, 793.334 757.716, 793.747 758.386 C 794.824 760.129, 804.359 765.771, 809.302 767.591 C 820.142 771.582, 824.168 771.249, 832.381 765.682 C 835.197 763.774, 838.923 761.499, 840.662 760.627 C 844.455 758.723, 848 754.461, 848 751.805 C 848 750.747, 850.339 747.407, 853.198 744.384 C 858.099 739.202, 859.005 737.619, 862.005 729 C 862.674 727.075, 864.139 723.580, 865.259 721.233 C 867.103 717.371, 867.243 715.666, 866.739 703.233 C 866.148 688.616, 863.670 671.544, 861.385 666.349 C 860.623 664.616, 860 662.539, 860 661.734 C 860 660.929, 859.100 659.126, 858 657.727 C 856.900 656.329, 856 654.505, 856 653.674 C 856 650.585, 854.726 649.065, 851.162 647.900 C 849.148 647.241, 845.933 645.644, 844.018 644.351 C 841.228 642.467, 839.240 642.006, 834.018 642.032 C 830.190 642.050, 826.778 642.612, 825.750 643.392" stroke="#e23b33" fill="#e23b33" fill-opacity="0.2" fill-rule="evenodd"/><path class="svg-region-Ol" d="M 504 251.956 C 498.225 252.327, 491.137 253.164, 488.250 253.815 C 485.363 254.467, 480.637 255.499, 477.750 256.110 C 470.111 257.724, 457.397 262.297, 449.433 266.295 C 445.620 268.209, 437.550 271.226, 431.500 272.999 C 425.450 274.773, 417.925 277.523, 414.779 279.112 C 411.632 280.700, 408.659 282, 408.172 282 C 406.806 282, 389.595 292.076, 388.765 293.362 C 388.361 293.988, 388.024 294.132, 388.015 293.682 C 388 292.882, 382.982 296.029, 380 298.708 C 377.571 300.891, 371.674 304.871, 369.302 305.930 C 368.094 306.469, 366.354 308.056, 365.437 309.455 C 364.520 310.855, 363.311 312, 362.750 312 C 362.188 312, 360.756 313.012, 359.566 314.250 C 358.376 315.488, 354.949 318.677, 351.951 321.337 C 344.422 328.018, 335.375 339.273, 325.805 353.865 C 318.543 364.938, 302.691 399.043, 299.947 409.500 C 290.194 446.658, 287.838 464.192, 289.921 484.091 C 291.855 502.562, 299.780 523.573, 311.230 540.589 C 313.853 544.489, 316 547.919, 316 548.213 C 316 548.507, 317.800 550.716, 320 553.123 C 322.200 555.530, 324 557.901, 324 558.392 C 324 558.883, 325.937 561.583, 328.306 564.392 C 330.674 567.201, 334.752 572.754, 337.369 576.730 C 339.986 580.707, 342.523 584.205, 343.007 584.504 C 343.491 584.803, 345.744 588.299, 348.015 592.274 C 350.285 596.248, 354.373 602.650, 357.099 606.500 C 359.825 610.350, 362.826 614.625, 363.770 616 C 364.713 617.375, 365.842 618.950, 366.280 619.500 C 366.717 620.050, 369.030 623.232, 371.419 626.571 C 375.270 631.954, 377.684 635.921, 386.587 651.500 C 390.537 658.410, 402.913 682.255, 405.532 688 C 406.912 691.025, 408.706 694.694, 409.520 696.154 C 410.334 697.614, 411 699.292, 411 699.882 C 411 700.473, 412.529 704.229, 414.397 708.228 C 416.266 712.228, 419.905 720.225, 422.483 726 C 428.783 740.109, 438.379 758.181, 443.399 765.390 C 448.728 773.043, 451.719 777.790, 453.550 781.500 C 454.364 783.150, 455.471 785.175, 456.010 786 C 456.549 786.825, 460.323 794.484, 464.397 803.021 C 475.054 825.350, 482.343 834.232, 496.607 842.266 C 510.848 850.288, 526.206 854.038, 547.767 854.758 C 576.880 855.732, 600.026 849.468, 618.061 835.735 C 626.350 829.423, 656.811 802.914, 662.169 797.349 C 674.524 784.517, 680.190 777.812, 685.279 770 C 688.324 765.325, 692.646 759.025, 694.882 756 C 697.118 752.975, 699.857 748.837, 700.967 746.804 C 702.077 744.771, 703.612 742.746, 704.378 742.304 C 705.143 741.862, 708.111 737.525, 710.973 732.666 C 720.160 717.069, 733 683.004, 733 674.226 C 733 672.595, 733.937 668.389, 735.082 664.880 C 736.228 661.371, 737.363 656.475, 737.605 654 C 737.847 651.525, 738.506 646.905, 739.069 643.734 C 740.706 634.525, 740.427 601.721, 738.643 593.476 C 736.292 582.613, 732.843 575.835, 726.169 568.961 C 719.485 562.076, 718.837 560.202, 718.261 546.081 C 717.950 538.468, 717.172 532.118, 716.291 530 C 715.490 528.075, 713.921 523.575, 712.805 520 C 711.688 516.425, 709.908 511.797, 708.850 509.716 C 707.791 507.634, 707.201 505.483, 707.540 504.936 C 707.878 504.388, 706.524 501.483, 704.531 498.480 C 702.537 495.477, 700.240 491.425, 699.425 489.476 C 698.611 487.527, 696.945 485.532, 695.722 485.044 C 694.500 484.556, 690.800 483.131, 687.500 481.878 C 684.200 480.625, 681.072 479.240, 680.550 478.800 C 680.028 478.360, 677.665 478, 675.300 478 C 672.935 478, 671 477.550, 671 477 C 671 476.431, 673.936 476, 677.809 476 C 681.987 476, 685.340 475.472, 686.486 474.634 C 688.299 473.308, 688.289 473.183, 686.178 470.499 C 684.980 468.976, 684 466.666, 684 465.365 C 684 463.718, 683.430 463, 682.121 463 C 680.408 463, 679.431 461.437, 677.679 455.892 C 677.369 454.908, 675.507 454.017, 672.890 453.598 C 669.441 453.047, 668.074 453.309, 665.860 454.945 C 662.080 457.740, 654.587 456.825, 652.268 453.286 C 649.316 448.781, 650.569 440.975, 656.083 429.500 C 658.505 424.461, 658.505 424.470, 655.477 415.116 C 654.090 410.829, 652.768 405.112, 652.541 402.411 C 651.764 393.191, 650.104 379.507, 649.155 374.500 C 647.486 365.701, 637.395 333.177, 635.968 332 C 635.635 331.725, 634.610 329.590, 633.692 327.256 C 631.232 321.007, 619.597 298.599, 616.862 294.842 C 612.714 289.146, 598.378 275.446, 592.340 271.408 C 584.254 266.002, 580.639 264.505, 567.197 261 C 560.764 259.323, 553.475 257.234, 551 256.358 C 548.134 255.343, 543.749 254.833, 538.924 254.952 C 533.025 255.097, 530.591 254.709, 527.924 253.199 C 524.166 251.070, 520.639 250.887, 504 251.956" stroke="#aa444d" fill="#aa444d" fill-opacity="0.2" fill-rule="evenodd"/><path class="svg-region-Or" d="M 1278.500 270.574 C 1262.130 272.262, 1257.415 272.930, 1251 274.468 C 1239.467 277.233, 1229.419 280.241, 1227.365 281.542 C 1226.192 282.286, 1220.342 284.545, 1214.365 286.563 C 1208.389 288.580, 1201.479 291.304, 1199.008 292.615 C 1196.537 293.927, 1194.125 295, 1193.648 295 C 1193.170 295, 1189.686 297.250, 1185.905 300 C 1182.124 302.750, 1178.809 305, 1178.539 305 C 1176.721 305, 1164.458 314.625, 1159.421 320.006 C 1151.322 328.658, 1147.367 334.556, 1146.014 340 C 1145.399 342.475, 1143.794 347.317, 1142.448 350.761 C 1140.921 354.666, 1140 359.062, 1140 362.445 C 1140 365.429, 1139.545 369.066, 1138.989 370.529 C 1138.433 371.991, 1137.313 377.083, 1136.499 381.844 C 1134.546 393.281, 1132.406 402.936, 1129.927 411.500 C 1126.504 423.330, 1125.125 428.378, 1124.488 431.421 C 1124.151 433.028, 1121.882 436.309, 1119.445 438.711 C 1115.410 442.689, 1111 450.172, 1111 453.041 C 1111 455.656, 1099.693 471.099, 1094.787 475.185 C 1088.260 480.622, 1082.634 484.956, 1079.151 487.232 C 1075.851 489.388, 1068 497.049, 1068 498.112 C 1068 498.545, 1066.426 501.510, 1064.503 504.700 C 1062.579 507.890, 1061.004 511.220, 1061.003 512.101 C 1061.001 512.982, 1059.941 515.694, 1058.646 518.130 C 1053.979 526.907, 1052.608 534.299, 1052.273 552.500 C 1052.100 561.850, 1051.684 570.175, 1051.348 571 C 1051.012 571.825, 1050.569 573.850, 1050.364 575.500 C 1049.938 578.934, 1045.287 588.824, 1041.417 594.528 C 1038.377 599.007, 1035.477 607.519, 1033.987 616.335 C 1032.392 625.776, 1031.362 647.724, 1032.172 654.997 C 1032.571 658.574, 1032.922 664.875, 1032.952 669 C 1033.003 675.928, 1033.821 681.783, 1037.358 700.556 C 1038.090 704.436, 1039.865 709.611, 1041.303 712.056 C 1044.650 717.745, 1056.141 728.968, 1066.946 737.103 C 1076.580 744.356, 1088.806 756.376, 1093.287 763 C 1102.782 777.034, 1122.630 797.081, 1136.193 806.333 C 1148.958 815.042, 1167.704 822.806, 1183.700 826.010 C 1193.224 827.918, 1220.329 826.794, 1230.500 824.069 C 1252.902 818.067, 1263.300 812.721, 1274.312 801.543 C 1288.911 786.723, 1289.524 785.951, 1306.840 760.500 C 1310.956 754.450, 1314.611 749.275, 1314.960 749 C 1315.310 748.725, 1316.682 746.925, 1318.009 745 C 1319.336 743.075, 1322.465 738.985, 1324.961 735.912 C 1327.457 732.838, 1331.975 726.822, 1335 722.543 C 1342.454 711.999, 1346.661 706.713, 1352.034 701.137 C 1354.527 698.549, 1357.397 694.647, 1358.411 692.466 C 1359.425 690.285, 1360.822 687.825, 1361.514 687 C 1362.206 686.175, 1364.199 682.803, 1365.942 679.506 C 1367.685 676.209, 1369.986 672.580, 1371.055 671.441 C 1372.125 670.303, 1373 668.893, 1373 668.308 C 1373 667.723, 1373.751 666.627, 1374.669 665.872 C 1375.586 665.118, 1377.643 661.629, 1379.238 658.119 C 1384.038 647.559, 1395.029 630.977, 1402.352 623.246 C 1404.304 621.186, 1409.411 615.283, 1413.701 610.129 C 1440.724 577.662, 1461.789 548.882, 1465.572 539.260 C 1466.385 537.192, 1467.505 534.692, 1468.062 533.705 C 1472.918 525.086, 1475.802 519.011, 1480.620 507.251 C 1485.808 494.588, 1486.314 492.632, 1487.529 480.544 C 1489.321 462.703, 1488.193 441.851, 1485.037 434.500 C 1483.690 431.359, 1481.001 422.263, 1480.992 420.812 C 1480.980 418.908, 1471.501 399.566, 1468.181 394.670 C 1466.626 392.376, 1463.591 387.800, 1461.437 384.500 C 1455.790 375.847, 1448.697 366.659, 1438.406 354.666 C 1437.540 353.657, 1433.923 349.157, 1430.368 344.666 C 1426.812 340.175, 1422.866 335.825, 1421.598 335 C 1420.329 334.175, 1417.368 331.813, 1415.016 329.750 C 1412.664 327.688, 1410.196 326, 1409.532 326 C 1408.868 326, 1405.889 323.500, 1402.912 320.445 C 1399.935 317.390, 1396.895 314.353, 1396.155 313.695 C 1395.415 313.038, 1393.811 311.591, 1392.590 310.481 C 1385.668 304.183, 1365.830 291.345, 1355.827 286.689 C 1349.545 283.765, 1335.713 276.961, 1331 274.475 C 1322.845 270.176, 1299.321 268.428, 1278.500 270.574" stroke="#aa444d" fill="#aa444d" fill-opacity="0.2" fill-rule="evenodd"/><path class="svg-region-LBPCl" d="M 768.250 391.730 C 766.135 392.469, 766.862 396.246, 769.687 399.195 C 772.057 401.669, 773.095 402, 778.487 402 C 787.966 402, 789.738 398.791, 782.750 394.284 C 778.747 391.702, 771.819 390.481, 768.250 391.730 M 747.200 395.200 C 746.540 395.860, 746 398.020, 746 400 C 746 406.066, 750.359 408.153, 753.385 403.535 C 755.614 400.134, 755.406 397.397, 752.777 395.557 C 750.108 393.687, 748.797 393.603, 747.200 395.200" stroke="#daffff" fill="#daffff" fill-opacity="0.2" fill-rule="evenodd"/><path class="svg-region-LBPCr" d="M 992 395 C 992 395.550, 990.132 397.868, 987.850 400.150 C 982.015 405.985, 983.133 407.408, 993.855 407.790 C 1000.100 408.013, 1002 408.413, 1002 409.505 C 1002 411.690, 1005.346 413, 1010.926 413 C 1014.900 413, 1016.251 412.572, 1017.232 411 C 1017.919 409.900, 1019.048 409, 1019.741 409 C 1021.815 409, 1021.174 407.057, 1018.250 404.484 C 1015.195 401.794, 1011.479 401.369, 1007.376 403.238 C 1005.203 404.229, 1004.575 404.224, 1004.238 403.213 C 1004.006 402.519, 1002.337 401.332, 1000.528 400.576 C 997.749 399.415, 997.316 398.799, 997.736 396.601 C 998.185 394.250, 997.934 394, 995.117 394 C 993.402 394, 992 394.450, 992 395" stroke="#daffff" fill="#daffff" fill-opacity="0.2" fill-rule="evenodd"/><path class="svg-region-BPCl" d="M 818.500 646.448 C 816.300 647.777, 813.145 649.570, 811.489 650.432 C 809.834 651.295, 807.151 653.232, 805.527 654.737 C 803.904 656.243, 799.993 659.376, 796.835 661.700 C 790.151 666.621, 788.278 669.179, 787.827 674 C 787.548 676.989, 787.792 677.474, 789.500 677.319 C 793.287 676.976, 799.024 674.501, 799.507 673.002 C 800.326 670.458, 805.338 665.308, 808.586 663.672 C 810.284 662.817, 812.894 660.516, 814.387 658.559 C 815.880 656.602, 817.642 655, 818.303 655 C 819.564 655, 824.008 647.399, 824.003 645.250 C 823.999 643.490, 823.062 643.694, 818.500 646.448" stroke="#83385f" fill="#83385f" fill-opacity="0.2" fill-rule="evenodd"/><path class="svg-region-BPCr" d="M 969.216 660.846 C 967.680 661.820, 968.507 664.620, 971.226 667.647 C 972.287 668.827, 973.710 671.977, 974.388 674.647 C 975.360 678.470, 976.104 679.570, 977.893 679.830 C 980.370 680.190, 984 677.509, 984 675.320 C 984 674.162, 972.634 660.966, 971.034 660.266 C 970.740 660.138, 969.922 660.399, 969.216 660.846" stroke="#83385f" fill="#83385f" fill-opacity="0.2" fill-rule="evenodd"/><path class="svg-region-PNl" d="M 672.285 57.938 C 661.497 59.697, 650.804 67.493, 646.395 76.814 C 644.209 81.434, 643.908 83.111, 644.465 87.566 C 645.259 93.922, 648.997 99.934, 655.545 105.389 C 658.113 107.528, 660.728 110.500, 661.357 111.994 C 661.986 113.488, 663.962 115.940, 665.750 117.444 C 667.538 118.948, 669 120.751, 669 121.451 C 669 122.511, 671.730 126.546, 675.818 131.526 C 676.281 132.090, 677.508 133.890, 678.544 135.526 C 679.580 137.162, 681.906 140.346, 683.714 142.603 C 685.521 144.860, 687 147.357, 687 148.153 C 687 148.949, 687.483 150.083, 688.074 150.674 C 688.665 151.265, 689.279 152.940, 689.439 154.396 C 689.599 155.852, 690.466 157.857, 691.365 158.851 C 692.264 159.844, 693 161.942, 693 163.513 C 693 165.084, 693.997 168.423, 695.216 170.934 C 697.175 174.969, 697.436 177.127, 697.466 189.500 C 697.497 202.413, 697.273 204.160, 694.579 212 C 690.569 223.670, 688.462 228.372, 686.520 229.983 C 684.602 231.575, 681.998 236.312, 682.004 238.200 C 682.006 238.915, 682.899 238.037, 683.989 236.250 C 685.079 234.463, 686.796 233, 687.805 233 C 688.814 233, 691.409 231.507, 693.570 229.681 C 695.732 227.856, 699.525 224.942, 702 223.205 C 709.822 217.717, 711.276 216.162, 710.687 213.912 C 710.388 212.768, 711.011 209.807, 712.072 207.333 C 714.145 202.496, 714.499 200.574, 713.163 201.399 C 711.678 202.317, 708 198.955, 708.015 196.693 C 708.047 192.224, 709.427 191.506, 718.214 191.394 C 722.771 191.335, 728.428 191.897, 730.785 192.644 C 733.142 193.390, 735.658 194, 736.377 194 C 740.204 194, 742.766 169.686, 740.664 153.296 C 739.811 146.640, 739.878 144.597, 741.017 142.469 C 744.364 136.215, 749.531 137.601, 755.712 146.412 C 759.950 152.453, 762.752 154.489, 768.250 155.520 C 771.730 156.172, 771.997 156.053, 771.956 153.861 C 771.809 146.026, 768.319 139.876, 761.471 135.389 C 760.181 134.544, 758.156 131.973, 756.973 129.676 C 755.789 127.379, 753.793 124.375, 752.536 123 C 747.324 117.297, 743.260 110.031, 741.069 102.500 C 739.789 98.100, 738.237 93.522, 737.621 92.326 C 735.469 88.153, 715.789 67.960, 711.322 65.343 C 699.757 58.565, 685.278 55.819, 672.285 57.938" stroke="#bbc0d1" fill="#bbc0d1" fill-opacity="0.2" fill-rule="evenodd"/><path class="svg-region-PNr" d="M 1036.503 108.457 C 1030.911 110.404, 1028.069 115.168, 1026.501 125.221 C 1026.182 127.267, 1024.813 130.257, 1023.460 131.865 C 1022.107 133.473, 1021 135.193, 1021 135.686 C 1021 137.050, 1013.124 144.274, 1007.500 148.068 C 999.639 153.371, 997.911 155.145, 998.574 157.232 C 999.136 159.004, 997.629 162.107, 994.403 165.817 C 993.598 166.743, 990.958 169.750, 988.536 172.500 C 985.680 175.744, 983.408 179.703, 982.067 183.771 C 979.595 191.271, 979.474 193.861, 981.557 194.660 C 983.340 195.344, 991.236 190.029, 994.932 185.656 C 996.269 184.074, 997.861 182.267, 998.469 181.640 C 999.077 181.013, 1000.542 178.925, 1001.724 177 C 1005.027 171.623, 1011.601 165.633, 1013.429 166.335 C 1015.193 167.011, 1015.453 169.168, 1014.084 171.764 C 1011.414 176.825, 1009.843 181.528, 1009.305 186.069 C 1008.588 192.128, 1010.615 204.316, 1013.036 208.500 C 1013.991 210.150, 1015.098 212.625, 1015.496 214 C 1016.384 217.063, 1021.868 223, 1023.810 223 C 1024.590 223, 1026.864 223.864, 1028.864 224.920 C 1033.902 227.581, 1038.697 229, 1042.649 229 C 1045.299 229, 1046 229.406, 1046 230.941 C 1046 232.009, 1046.450 233.160, 1047 233.500 C 1047.550 233.840, 1048 234.980, 1048 236.034 C 1048 237.678, 1048.462 237.847, 1051.250 237.225 C 1053.037 236.826, 1056.188 236.522, 1058.250 236.549 C 1062.110 236.599, 1062.571 235.902, 1062.059 230.790 C 1061.965 229.850, 1063.902 224, 1066.363 217.790 C 1070.795 206.610, 1074.595 195.696, 1077.084 187 C 1078.333 182.640, 1081.610 176.847, 1083.214 176.167 C 1083.646 175.983, 1084 174.846, 1084 173.639 C 1084 172.432, 1084.578 170.557, 1085.285 169.473 C 1090.045 162.169, 1090.939 151.886, 1087.526 143.715 C 1085.731 139.422, 1073.569 126.336, 1066.074 120.636 C 1051.312 109.410, 1043.274 106.099, 1036.503 108.457" stroke="#bbc0d1" fill="#bbc0d1" fill-opacity="0.2" fill-rule="evenodd"/><path class="svg-region-ODMl" d="M 700.473 394.856 C 696.609 396.860, 691.970 399.562, 690.164 400.860 L 686.882 403.220 687.535 411.360 C 687.894 415.837, 688.863 421.975, 689.687 425 C 690.511 428.025, 691.425 431.850, 691.718 433.500 C 692.011 435.150, 692.641 436.991, 693.117 437.592 C 693.593 438.192, 694.872 441.470, 695.960 444.876 C 700.531 459.183, 703.393 463, 709.552 463 C 714.349 463, 715.189 462.243, 717.316 456 C 719.883 448.466, 721.737 444.721, 725.448 439.574 C 728.574 435.238, 729.003 433.920, 729.026 428.574 C 729.042 425.013, 729.770 420.902, 730.788 418.637 L 732.524 414.775 729.262 411.316 C 727.468 409.414, 726 406.801, 726 405.511 C 726 401.852, 724.932 399.925, 722.364 398.948 C 720.730 398.327, 720 397.260, 720 395.493 C 720 392.610, 719.489 392.350, 712.500 391.687 C 708.183 391.277, 706.540 391.710, 700.473 394.856" stroke="#999999" fill="#999999" fill-opacity="0.2" fill-rule="evenodd"/><path class="svg-region-ODMr" d="M 1052.500 419 C 1051.112 420.534, 1049.420 421, 1045.237 421 C 1039.789 421, 1039.784 421.003, 1040.466 423.750 C 1040.841 425.262, 1041.565 426.650, 1042.074 426.833 C 1042.583 427.017, 1043 428.560, 1043 430.262 C 1043 431.965, 1043.548 434.872, 1044.217 436.723 C 1045.093 439.147, 1045.135 440.563, 1044.364 441.784 C 1043.542 443.088, 1043.766 444.117, 1045.333 446.237 C 1046.669 448.043, 1047.522 451.065, 1047.806 454.997 C 1048.045 458.299, 1048.373 461, 1048.535 461 C 1048.912 461, 1052.718 457.825, 1059.924 451.500 C 1063.058 448.750, 1067.009 445.301, 1068.706 443.836 C 1071.836 441.132, 1078.779 428.445, 1077.712 427.378 C 1077.391 427.058, 1076.100 427.517, 1074.842 428.398 C 1071.584 430.680, 1070.410 430.405, 1069.013 427.032 C 1067.419 423.183, 1059.853 417, 1056.737 417 C 1055.402 417, 1053.495 417.900, 1052.500 419" stroke="#999999" fill="#999999" fill-opacity="0.2" fill-rule="evenodd"/>
    </svg>