<svg xmlns="http://www.w3.org/2000/svg" width="1785" height="1131" viewBox="0 0 1785 1131" version="1.1">
    <path class="svg-region-AP" d="M 867.500 434.479 C 859.700 437.487, 856.052 437.921, 851.139 436.424 C 848.587 435.647, 841.478 434.718, 835.341 434.358 C 825.077 433.758, 823.386 433.928, 814.263 436.476 L 804.345 439.246 804.754 447.373 C 805.016 452.573, 805.877 457.076, 807.146 459.875 C 812.767 472.283, 813.335 474.423, 813.418 483.500 C 813.502 492.769, 813.053 494.661, 805.230 518 C 803.261 523.875, 802.565 528.534, 802.018 539.500 C 801.236 555.161, 799.863 559.995, 793.985 567.786 C 791.997 570.420, 789.451 572.641, 788.214 572.820 C 786.996 572.995, 786 573.276, 786 573.444 C 786 573.611, 787.462 575.293, 789.250 577.181 C 794.607 582.837, 806.950 587.191, 821.500 588.558 C 840.325 590.325, 851.175 589.134, 862.500 584.058 C 873.183 579.269, 875.853 577.882, 876.961 576.547 C 877.667 575.696, 878.681 575, 879.215 575 C 879.748 575, 881.329 574.100, 882.727 573 C 884.126 571.900, 885.772 571.009, 886.385 571.020 C 886.998 571.030, 889.848 573.261, 892.718 575.976 C 899.329 582.229, 901.439 583.592, 910.832 587.676 C 919.567 591.473, 920.987 591.692, 921.032 589.250 C 921.099 585.540, 923.545 584.040, 931.103 583.075 C 945.231 581.270, 947.732 580.173, 945.758 576.645 C 944.952 575.204, 944.441 566.791, 944.200 551 C 943.944 534.205, 943.437 526.277, 942.421 523.215 C 940.559 517.600, 940.601 502.953, 942.500 495.661 C 943.325 492.494, 944 489.220, 944 488.385 C 944 486.222, 952.780 468.925, 955.206 466.309 C 956.323 465.104, 958.985 461.279, 961.122 457.809 L 965.006 451.500 959.472 450.782 C 956.428 450.387, 952.489 449.438, 950.719 448.673 C 943.631 445.608, 941.818 445, 939.774 445 C 936.942 445, 931.718 443.331, 925.012 440.282 C 913.192 434.910, 876.091 431.167, 867.500 434.479" stroke="#fc7143" fill="#fc7143" fill-opacity="0.2" fill-rule="evenodd"/><path class="svg-region-PP" d="M 827.250 321.120 C 826.563 321.824, 826 322.928, 826 323.574 C 826 324.220, 824.792 326.910, 823.315 329.552 C 821.024 333.650, 820.521 336.055, 819.886 345.928 C 819.169 357.076, 818.512 361.809, 817.239 365 C 816.910 365.825, 816.036 369.875, 815.296 374 C 814.557 378.125, 813.688 382.967, 813.365 384.759 C 813.043 386.552, 812.379 388.266, 811.890 388.568 C 811.400 388.871, 811 390.420, 811 392.012 C 811 395.214, 803.798 409.781, 801.241 411.750 C 800.348 412.438, 798.605 413, 797.368 413 C 796.130 413, 794.912 413.337, 794.660 413.750 C 794.408 414.163, 795.324 417.425, 796.697 421 C 798.069 424.575, 800.104 429.870, 801.219 432.767 C 802.334 435.664, 803.627 438.269, 804.092 438.557 C 804.557 438.844, 809.339 437.877, 814.719 436.408 C 823.584 433.987, 825.530 433.796, 835.500 434.374 C 841.550 434.725, 848.557 435.638, 851.071 436.404 C 855.988 437.902, 860.177 437.456, 867.876 434.615 C 877.671 431, 913.381 434.666, 925 440.479 C 927.475 441.717, 931.975 443.299, 935 443.995 C 938.025 444.691, 944.397 446.552, 949.160 448.130 C 953.923 449.709, 959.443 451, 961.426 451 C 964.563 451, 965.250 450.544, 966.701 447.500 C 967.619 445.575, 968.682 444, 969.063 444 C 969.444 444, 970.804 441.188, 972.084 437.750 C 974.297 431.810, 979.104 422.545, 982.456 417.760 C 983.305 416.547, 984 415.223, 984 414.818 C 984 413.223, 978.596 409.195, 975.017 408.123 C 972.721 407.435, 969.231 404.933, 966.122 401.746 L 961.006 396.500 961.003 385.973 C 961.001 378.824, 960.570 374.812, 959.660 373.473 C 958.922 372.388, 956.672 368.421, 954.660 364.658 L 951 357.816 951 340.108 C 951 327.321, 951.347 322.029, 952.250 321.064 C 953.279 319.964, 953.058 319.853, 951 320.437 C 949.625 320.828, 943.325 321.522, 937 321.981 C 930.675 322.440, 923.025 323.486, 920 324.304 C 916.975 325.123, 912.025 326.084, 909 326.439 C 905.975 326.794, 900.479 327.785, 896.787 328.641 C 891.184 329.940, 888.656 330.009, 881.511 329.058 C 876.802 328.432, 871.441 328.202, 869.596 328.548 C 866.271 329.172, 861.461 327.469, 857.988 324.440 C 854.626 321.507, 829.520 318.796, 827.250 321.120" stroke="#c4743d" fill="#c4743d" fill-opacity="0.2" fill-rule="evenodd"/><path class="svg-region-LPl" d="M 772.367 405.035 C 761.334 407.484, 756.228 410.169, 755.818 413.736 C 755.532 416.220, 755.063 416.531, 751.191 416.810 C 748.350 417.015, 745.430 416.418, 742.625 415.060 C 736.943 412.310, 735.877 412.448, 733.342 416.257 C 727.711 424.721, 723.028 440.541, 723.012 451.156 C 723.001 458.298, 722.867 458.778, 721.015 458.294 C 719.923 458.008, 718.351 458.035, 717.521 458.354 C 716.274 458.832, 716.531 459.813, 719.006 464.010 C 720.653 466.803, 722 469.486, 722 469.973 C 722 470.459, 722.567 471.452, 723.259 472.179 C 723.952 472.905, 725.865 476.021, 727.509 479.103 C 729.154 482.185, 731.521 486.010, 732.768 487.603 C 745.959 504.452, 762.775 535.595, 765.392 548.020 C 766.869 555.034, 782.433 573.026, 786.971 572.967 C 789.359 572.935, 794 569.982, 794 568.494 C 794 568.117, 794.825 566.614, 795.834 565.154 C 800.087 559, 801.352 553.772, 802.038 539.500 C 802.609 527.628, 803.175 524.132, 805.766 516.500 C 813.456 493.849, 813.448 493.883, 813.406 484 C 813.365 474.324, 812.889 472.493, 807.131 459.875 C 805.835 457.033, 805.007 452.696, 804.769 447.500 C 804.530 442.263, 803.701 437.946, 802.368 435 C 801.248 432.525, 798.837 426.547, 797.010 421.717 C 794.473 415.008, 792.839 412.240, 790.094 409.998 C 788.117 408.383, 785.553 406.148, 784.395 405.031 C 783.237 403.914, 781.887 403.051, 781.395 403.114 C 780.903 403.177, 776.840 404.041, 772.367 405.035" stroke="#d2454f" fill="#d2454f" fill-opacity="0.2" fill-rule="evenodd"/><path class="svg-region-LPr" d="M 981.894 418.385 C 979.058 422.862, 976.890 426.997, 968.991 443 C 963.142 454.848, 958.717 462.325, 955.380 466 C 952.754 468.892, 944 486.101, 944 488.372 C 944 489.214, 943.325 492.494, 942.500 495.661 C 940.602 502.950, 940.617 518.194, 942.529 523.500 C 943.591 526.448, 943.990 532.761, 944.045 547.500 C 944.120 567.642, 944.864 576.264, 946.686 578.086 C 947.337 578.737, 948.628 578.712, 950.469 578.012 C 952.731 577.152, 954.061 577.335, 957.448 578.975 C 959.981 580.201, 963.654 581, 966.757 581 C 969.576 581, 972.160 581.450, 972.500 582 C 973.950 584.345, 977.117 582.554, 983.597 575.725 C 987.394 571.724, 991.400 567.171, 992.500 565.608 C 993.600 564.044, 997.297 559.259, 1000.715 554.975 C 1006.560 547.649, 1009.057 543.870, 1013.021 536.351 C 1015.169 532.278, 1021.912 522.970, 1024.249 520.854 C 1028.650 516.868, 1041 488.961, 1041 483.001 C 1041 481.200, 1041.618 479.700, 1042.500 479.362 C 1043.325 479.045, 1044 477.584, 1044 476.115 C 1044 474.646, 1045.594 470.118, 1047.542 466.053 C 1051.354 458.098, 1051.392 456, 1047.720 456 C 1044.954 456, 1041.444 452.999, 1040.450 449.784 C 1040.061 448.528, 1037.889 445.474, 1035.622 442.997 C 1033.355 440.520, 1029.713 436.324, 1027.530 433.672 C 1022.620 427.708, 1016.663 424.865, 1007.725 424.218 C 1003.999 423.948, 1000.709 423.339, 1000.416 422.864 C 1000.122 422.389, 998.130 422, 995.988 422 C 990.575 422, 987 420.189, 987 417.446 C 987 413.642, 984.621 414.080, 981.894 418.385" stroke="#d2454f" fill="#d2454f" fill-opacity="0.2" fill-rule="evenodd"/><path class="svg-region-ADCr" d="M 951 577.680 C 950.175 577.990, 948.150 578.822, 946.500 579.530 C 942.846 581.098, 939.587 581.829, 930.583 583.098 C 926.133 583.726, 923.195 584.684, 922.343 585.787 C 918.110 591.268, 925.484 595.636, 940.639 596.625 C 949.574 597.208, 951.295 597.046, 955.139 595.264 C 957.537 594.151, 960.269 592.983, 961.210 592.667 C 964.506 591.561, 972.917 584.485, 972.700 583 C 972.539 581.900, 970.889 581.418, 966.506 581.193 C 963.220 581.024, 959.850 580.272, 959.016 579.521 C 957.172 577.861, 953.043 576.912, 951 577.680" stroke="#54413e" fill="#54413e" fill-opacity="0.2" fill-rule="evenodd"/><path class="svg-region-DMl" d="M 821.500 321.152 C 819.300 321.529, 814.773 322.324, 811.440 322.919 C 808.107 323.513, 801.305 324, 796.325 324 C 789.021 324, 786.808 324.360, 784.885 325.859 C 778.110 331.138, 776.557 331.451, 758.427 331.178 C 749.037 331.037, 740.089 330.584, 738.543 330.170 C 736.420 329.602, 734.329 330.107, 730.007 332.232 C 726.858 333.780, 721.631 335.516, 718.391 336.091 C 715.151 336.665, 709.575 337.773, 706 338.554 C 702.425 339.334, 697.925 340.091, 696 340.236 C 693.015 340.461, 692.454 340.900, 692.187 343.216 C 692.015 344.710, 692.558 347.410, 693.395 349.216 C 695.275 353.274, 699 379.942, 699 389.341 C 699 396.071, 699.924 403.145, 702.418 415.500 C 703.421 420.467, 704.009 421.555, 705.835 421.822 C 707.574 422.076, 708.377 421.341, 709.626 418.352 C 710.498 416.266, 713.189 412.360, 715.606 409.671 C 718.022 406.983, 720 404.429, 720 403.996 C 720 402.637, 729.567 397, 731.873 397 C 734.758 397, 738.539 405.124, 736.996 408.008 C 735.342 411.098, 735.787 411.788, 741.177 414.495 C 744.981 416.405, 747.565 417.016, 750.922 416.798 C 755.106 416.525, 755.532 416.253, 755.995 413.562 C 756.421 411.082, 757.387 410.267, 762.182 408.339 C 765.307 407.083, 771.089 405.383, 775.030 404.561 L 782.195 403.067 785.174 405.783 C 786.812 407.278, 789.264 409.512, 790.622 410.750 C 793.283 413.175, 797.848 413.687, 801.131 411.930 C 802.231 411.341, 804.030 408.763, 805.129 406.200 C 806.227 403.637, 807.435 401.306, 807.813 401.020 C 809.398 399.821, 811 395.824, 811 393.073 C 811 391.448, 811.450 389.840, 812 389.500 C 812.550 389.160, 813 387.529, 813 385.875 C 813 384.222, 813.455 382.019, 814.011 380.980 C 814.566 379.942, 815.303 376.259, 815.648 372.796 C 815.993 369.333, 816.602 366.050, 817.003 365.500 C 818.377 363.615, 819.162 358.488, 819.837 347 C 820.410 337.249, 820.941 334.627, 823.327 329.756 C 827.111 322.032, 826.734 320.256, 821.500 321.152" stroke="#68533d" fill="#68533d" fill-opacity="0.2" fill-rule="evenodd"/><path class="svg-region-DMr" d="M 953.086 320.652 C 951.102 322.042, 951 322.996, 951 340.255 L 951 358.396 956 367.190 L 961 375.984 961.025 386.242 L 961.050 396.500 965.263 400.967 C 967.581 403.424, 972.384 406.897, 975.938 408.684 C 979.491 410.472, 982.435 411.837, 982.479 411.717 C 982.523 411.598, 983.329 409.806, 984.270 407.737 C 985.942 404.058, 986.076 403.987, 990.240 404.589 C 992.583 404.928, 995.737 405.719, 997.250 406.347 C 1000.093 407.527, 1000.945 410.401, 998.750 411.405 C 998.063 411.720, 1002.331 411.870, 1008.235 411.739 C 1014.797 411.593, 1019.040 411.889, 1019.148 412.500 C 1019.246 413.050, 1021.251 414.333, 1023.604 415.352 L 1027.882 417.204 1031.032 413.616 C 1033.074 411.291, 1035.647 409.659, 1038.341 408.980 C 1040.629 408.403, 1043.520 407.504, 1044.766 406.980 C 1048.279 405.505, 1054.604 408.424, 1055.890 412.115 C 1057.116 415.631, 1063.987 423.921, 1065.715 423.967 C 1066.383 423.985, 1067.336 423.212, 1067.833 422.250 C 1069.552 418.920, 1073.840 400.464, 1074.976 391.500 C 1075.604 386.550, 1076.806 377.912, 1077.649 372.305 C 1079.118 362.529, 1079.103 362.027, 1077.287 360.078 C 1076.246 358.960, 1071.832 356.882, 1067.479 355.461 C 1063.125 354.040, 1053.699 349.904, 1046.532 346.269 C 1039.364 342.635, 1032.375 339.104, 1031 338.424 C 1029.625 337.743, 1025.166 336.866, 1021.091 336.476 C 1017.016 336.085, 1012.193 335.143, 1010.373 334.383 C 1008.553 333.622, 1005.365 333, 1003.289 333 C 1001.213 333, 993.661 330.990, 986.507 328.534 C 979.353 326.078, 969.376 322.971, 964.336 321.630 C 956.160 319.453, 954.948 319.348, 953.086 320.652" stroke="#68533d" fill="#68533d" fill-opacity="0.2" fill-rule="evenodd"/><path class="svg-region-VMr" d="M 990.750 413.303 C 987.618 414.180, 987 414.792, 987 417.016 C 987 420.217, 990.215 422, 995.988 422 C 998.130 422, 1000.160 422.450, 1000.500 423 C 1000.840 423.550, 1003.229 423.995, 1005.809 423.990 C 1008.389 423.984, 1013.334 424.975, 1016.799 426.192 C 1021.864 427.971, 1023.920 429.388, 1027.299 433.427 C 1039.142 447.587, 1040.577 448.517, 1046.453 445.839 C 1048.327 444.986, 1049 443.915, 1049 441.790 C 1049 439.117, 1047.014 434.187, 1044.892 431.594 C 1044.400 430.992, 1041.466 426.675, 1038.372 422 C 1035.279 417.325, 1032.578 413.311, 1032.370 413.079 C 1032.162 412.848, 1030.929 413.657, 1029.631 414.877 C 1027.306 417.061, 1027.210 417.068, 1023.540 415.317 C 1020.052 413.655, 1019.730 413.648, 1018.580 415.222 C 1016.879 417.548, 1012.648 416.454, 1013.326 413.862 C 1013.778 412.135, 1013.114 412.009, 1004.156 412.126 C 998.845 412.196, 992.813 412.725, 990.750 413.303" stroke="#e59376" fill="#e59376" fill-opacity="0.2" fill-rule="evenodd"/><path class="svg-region-PMl" d="M 748 178.113 C 743.875 179.190, 739.118 180.505, 737.429 181.035 C 735.740 181.566, 731.451 182, 727.898 182 C 721.811 182, 721.369 182.159, 720.228 184.750 C 719.563 186.262, 717.896 189.018, 716.525 190.874 C 714.117 194.133, 714.090 194.343, 715.714 197.093 C 716.638 198.658, 717.142 200.191, 716.833 200.500 C 716.524 200.809, 713.953 201.337, 711.119 201.672 C 706.587 202.209, 705.901 202.596, 705.421 204.891 C 704.616 208.733, 700.868 220.342, 700.059 221.500 C 699.675 222.050, 698.794 224.525, 698.101 227 C 694.688 239.200, 692.576 245.943, 690.740 250.500 C 689.632 253.250, 688.361 257.975, 687.915 261 C 687.470 264.025, 686.686 268.750, 686.175 271.500 C 684.954 278.060, 685.509 306.214, 686.911 308.834 C 687.510 309.953, 688 312.842, 688 315.255 C 688 319.523, 691.357 337.150, 692.532 339.051 C 693.386 340.434, 700.171 340.212, 706.765 338.585 C 709.919 337.807, 715.045 336.714, 718.155 336.158 C 721.265 335.601, 726.440 333.908, 729.655 332.396 C 732.870 330.883, 735.997 329.730, 736.604 329.833 C 737.313 329.954, 737.929 326.526, 738.325 320.260 C 738.858 311.824, 742.209 294.938, 746.017 281.500 C 746.641 279.300, 747.494 275.700, 747.913 273.500 C 748.332 271.300, 750.072 267.250, 751.780 264.500 C 755.125 259.114, 760.247 250.339, 762.870 245.500 C 763.764 243.850, 765.005 240.025, 765.627 237 C 766.248 233.975, 767.967 227.675, 769.447 223 C 771.781 215.621, 772.065 213.379, 771.597 206 C 771.301 201.325, 770.222 193.716, 769.199 189.092 C 767.673 182.186, 766.818 180.265, 764.420 178.346 C 760.915 175.542, 758.005 175.501, 748 178.113" stroke="#90cf92" fill="#90cf92" fill-opacity="0.2" fill-rule="evenodd"/><path class="svg-region-PMr" d="M 1048.035 213.934 C 1047.466 214.998, 1047 217.923, 1047 220.434 C 1047 226.061, 1045.712 226.321, 1044.123 221.016 C 1042.781 216.535, 1039.864 214.253, 1038.138 216.333 C 1037.549 217.043, 1033.185 218.914, 1028.441 220.491 C 1021.667 222.742, 1019.620 223.870, 1018.907 225.744 C 1017.722 228.862, 1017.754 232.594, 1018.986 234.764 C 1019.831 236.252, 1021.221 242.801, 1023.652 256.751 C 1024.040 258.977, 1023.519 261.492, 1022 264.724 C 1019.962 269.059, 1019.871 269.995, 1020.890 276.165 C 1021.501 279.861, 1022 284.231, 1022 285.876 C 1022 287.521, 1023.303 293.059, 1024.896 298.183 C 1028.563 309.980, 1030.470 323.059, 1029.711 331.197 L 1029.119 337.527 1044.310 345.273 C 1052.664 349.533, 1063.248 354.196, 1067.830 355.636 C 1072.411 357.075, 1076.397 358.870, 1076.687 359.626 C 1077.587 361.971, 1079.932 361.137, 1080.557 358.250 C 1081.269 354.965, 1086.357 341.565, 1089.647 334.314 C 1090.941 331.462, 1092 327.960, 1092 326.533 C 1092 325.105, 1092.675 323.678, 1093.500 323.362 C 1094.406 323.014, 1095 321.504, 1095 319.548 C 1095 317.767, 1095.889 313.653, 1096.975 310.405 C 1099.451 303.005, 1099.901 281.993, 1097.625 280.104 C 1096.868 279.476, 1095.963 277.171, 1095.613 274.981 C 1095.263 272.792, 1094.532 271, 1093.988 271 C 1093.445 271, 1093 270.567, 1093 270.039 C 1093 269.510, 1090.532 265.452, 1087.515 261.022 C 1084.498 256.591, 1081.770 251.736, 1081.454 250.233 C 1081.137 248.730, 1080.147 245.925, 1079.253 244 C 1078.360 242.075, 1076.925 238.681, 1076.064 236.457 C 1072.959 228.432, 1066.697 218.434, 1062.781 215.250 C 1059.495 212.578, 1057.920 212, 1053.927 212 C 1050.149 212, 1048.840 212.430, 1048.035 213.934" stroke="#90cf92" fill="#90cf92" fill-opacity="0.2" fill-rule="evenodd"/><path class="svg-region-PV" d="M 827.309 188.750 C 829.054 194.380, 833.792 207.125, 834.346 207.679 C 834.706 208.039, 835 212.070, 835 216.637 C 835 223.235, 834.511 226.025, 832.621 230.220 C 827.957 240.574, 826 245.266, 826 246.097 C 826 246.561, 824.925 249.317, 823.612 252.220 C 822.299 255.124, 820.311 259.525, 819.195 262 C 818.079 264.475, 814.247 272.652, 810.680 280.171 C 807.113 287.689, 803.870 295.339, 803.474 297.171 C 803.078 299.002, 801.732 303.200, 800.484 306.500 C 799.236 309.800, 797.747 314.525, 797.175 317 C 796.603 319.475, 795.873 322.180, 795.552 323.011 C 794.869 324.783, 799.630 324.505, 822.102 321.459 C 835.155 319.690, 836.084 319.686, 845.102 321.370 C 861.999 324.524, 888.857 328.637, 891.500 328.476 C 892.050 328.442, 894.075 327.907, 896 327.287 C 897.925 326.667, 902.650 326.164, 906.500 326.170 C 910.385 326.177, 917.060 325.258, 921.500 324.106 C 926.169 322.895, 932.831 322.006, 937.500 321.971 C 941.900 321.939, 947.673 321.339, 950.329 320.639 C 954.471 319.547, 956.108 319.608, 961.829 321.069 C 965.498 322.006, 969.236 323.077, 970.135 323.449 C 972.493 324.425, 975 316.400, 975 307.875 C 975 302.605, 974.455 300.081, 972.541 296.481 C 971.168 293.900, 969.390 287.799, 968.516 282.678 C 966.494 270.824, 965.526 267.974, 961.393 261.698 C 959.517 258.849, 957.731 255.726, 957.423 254.759 C 957.116 253.792, 956.446 253, 955.933 253 C 955.420 253, 955 252.519, 955 251.930 C 955 250.328, 949.292 242.343, 943.853 236.338 C 941.209 233.418, 938.751 229.857, 938.392 228.424 C 938.032 226.991, 937.950 218.831, 938.210 210.290 L 938.682 194.761 930.591 195.547 C 919.176 196.655, 903.556 196.362, 896.500 194.907 C 890.301 193.629, 871.993 193.472, 852.082 194.526 L 840.663 195.131 836.947 191.065 C 834.069 187.917, 832.502 187, 829.999 187 C 827.381 187, 826.870 187.332, 827.309 188.750" stroke="#b09658" fill="#b09658" fill-opacity="0.2" fill-rule="evenodd"/><path class="svg-region-LPVl" d="M 801 144 C 800.175 144.533, 794.673 144.976, 788.773 144.985 C 778.442 144.999, 777.986 145.092, 776.408 147.500 C 775.331 149.144, 773.846 150, 772.072 150 C 770.395 150, 768.314 151.107, 766.571 152.926 C 764.165 155.437, 763.437 155.701, 761.429 154.786 C 758.438 153.423, 753.730 155.237, 751.526 158.601 C 750.661 159.921, 749.320 161, 748.544 161 C 745.297 161, 733.199 166.760, 729.640 170 C 725.595 173.684, 723 177.800, 723 180.532 C 723 181.928, 723.978 182.094, 729.750 181.683 C 733.462 181.418, 738.525 180.731, 741 180.156 C 762.123 175.247, 760.378 175.421, 763.845 177.890 C 765.578 179.123, 767.191 181.115, 767.431 182.316 C 767.671 183.517, 768.798 188.550, 769.935 193.500 C 772.898 206.398, 772.630 212.429, 768.497 225.879 C 766.574 232.137, 765 238.265, 765 239.497 C 765 241.658, 760.047 251.126, 753.489 261.500 C 748.702 269.073, 748.670 269.140, 747.884 273.463 C 747.481 275.684, 746.641 279.300, 746.017 281.500 C 742.226 294.881, 738.859 311.805, 738.332 320.138 C 737.770 329.011, 737.872 329.823, 739.611 330.352 C 740.650 330.669, 749.150 331.057, 758.500 331.214 L 775.500 331.500 782.162 327.750 C 785.849 325.675, 790.198 324, 791.899 324 C 794.487 324, 795.213 323.427, 796.487 320.378 C 797.319 318.386, 798 315.664, 798 314.330 C 798 312.995, 798.851 310.142, 799.891 307.989 C 800.932 305.836, 802.352 301.700, 803.049 298.798 C 803.745 295.896, 807.114 287.667, 810.535 280.511 C 821.538 257.499, 824.228 251.581, 825.537 247.500 C 826.920 243.192, 828.814 238.559, 832.602 230.220 C 834.524 225.988, 835 223.272, 835 216.529 C 835 211.903, 834.550 207.840, 834 207.500 C 833.450 207.160, 833 206.002, 833 204.927 C 833 203.852, 832.586 202.191, 832.080 201.236 C 831.574 200.281, 830.165 196.897, 828.950 193.716 C 826.567 187.478, 824.858 186, 820.032 186 C 818.328 186, 814.698 184.867, 811.967 183.483 C 807.139 181.037, 807 180.843, 807 176.542 C 807 174.109, 807.450 171.840, 808 171.500 C 809.684 170.459, 809.138 168.316, 805.783 162.794 C 802.940 158.115, 802.567 156.658, 802.574 150.250 C 802.579 146.262, 802.564 143.007, 802.541 143.015 C 802.518 143.024, 801.825 143.467, 801 144" stroke="#494949" fill="#494949" fill-opacity="0.2" fill-rule="evenodd"/><path class="svg-region-LPVr" d="M 1001.821 152.828 C 999.247 153.747, 996.810 154.838, 996.404 155.250 C 995.163 156.513, 989.392 156.085, 986.364 154.506 C 982.204 152.336, 980.670 152.514, 982.006 155.012 C 983.508 157.819, 980.477 164.240, 974.930 170 C 972.547 172.475, 969.208 176.389, 967.511 178.697 C 965.815 181.006, 962.418 184.417, 959.963 186.278 C 954.696 190.271, 944.694 195, 941.515 195 C 939.604 195, 939.178 195.688, 938.636 199.640 C 937.535 207.669, 937.968 228.319, 939.285 230.640 C 939.953 231.817, 942.649 235.192, 945.275 238.140 C 949.932 243.369, 952.076 246.545, 961.401 262.034 C 965.802 269.345, 969 279.801, 969 286.882 C 969 288.396, 970.350 292.274, 972 295.500 C 975.480 302.304, 976.007 310.363, 973.511 318.591 C 972.692 321.291, 972.017 323.571, 972.011 323.657 C 972.005 323.743, 974.813 324.707, 978.250 325.798 C 981.688 326.889, 987.591 328.956, 991.369 330.391 C 995.159 331.830, 1000.314 333.003, 1002.869 333.006 C 1005.416 333.010, 1008.676 333.626, 1010.113 334.376 C 1014.104 336.458, 1028.044 337.538, 1029.115 335.848 C 1031.425 332.204, 1029.412 312.898, 1025.329 299.523 C 1023.989 295.135, 1022.492 288.385, 1022.001 284.523 C 1021.510 280.660, 1020.815 275.675, 1020.457 273.445 C 1019.962 270.359, 1020.334 268.267, 1022.013 264.696 C 1023.521 261.488, 1024.040 258.973, 1023.652 256.751 C 1021.221 242.801, 1019.831 236.252, 1018.986 234.764 C 1017.759 232.602, 1017.721 228.865, 1018.895 225.777 C 1019.591 223.945, 1021.689 222.792, 1028.364 220.574 C 1037.995 217.374, 1040.552 215.336, 1039.616 211.607 C 1038.915 208.813, 1035.177 207.096, 1033.987 209.021 C 1033.063 210.517, 1031 209.439, 1031 207.460 C 1031 206.678, 1029.913 205.765, 1028.585 205.432 C 1027.178 205.079, 1025.785 203.715, 1025.246 202.163 C 1024.737 200.698, 1023.505 197.250, 1022.508 194.500 C 1021.511 191.750, 1020.504 186.512, 1020.270 182.861 C 1019.854 176.372, 1019.924 176.143, 1023.351 172.716 C 1025.279 170.788, 1027.412 167.357, 1028.090 165.093 C 1028.769 162.829, 1029.926 160.476, 1030.662 159.866 C 1032.187 158.600, 1032.448 155.395, 1031.094 154.558 C 1030.080 153.932, 1025.358 160.225, 1019.509 170 C 1014.394 178.546, 1009.444 183.819, 1004.382 186.111 C 1002.117 187.137, 999.700 188.657, 999.010 189.488 C 997.098 191.791, 995.068 191.301, 993.880 188.250 C 993.040 186.092, 993.153 184.890, 994.404 182.669 C 995.282 181.112, 996 178.495, 996 176.853 C 996 173.833, 997.548 169.992, 999.202 168.909 C 999.698 168.583, 1001.547 166.108, 1003.309 163.409 C 1005.910 159.424, 1007.124 158.441, 1009.757 158.187 C 1012.190 157.952, 1013 157.390, 1013 155.937 C 1013 154.667, 1012.312 154, 1011 154 C 1009.889 154, 1009 153.333, 1009 152.500 C 1009 150.645, 1007.771 150.701, 1001.821 152.828 M 1063.500 194.531 C 1061.850 195.883, 1059.713 196.992, 1058.750 196.995 C 1057.658 196.998, 1057 197.765, 1057 199.035 C 1057 200.155, 1056.313 202.119, 1055.473 203.400 C 1053.257 206.783, 1054.826 209.799, 1061.172 214.349 C 1064.893 217.016, 1067.608 220.085, 1070.020 224.349 L 1073.500 230.500 1073.800 225.314 C 1074.037 221.216, 1073.368 218.359, 1070.609 211.695 C 1067.563 204.336, 1067.192 202.543, 1067.699 197.630 C 1068.018 194.534, 1067.879 192.016, 1067.390 192.036 C 1066.900 192.056, 1065.150 193.179, 1063.500 194.531" stroke="#494949" fill="#494949" fill-opacity="0.2" fill-rule="evenodd"/><path class="svg-region-VV" d="M 818.490 139.915 C 812.434 140.332, 806.531 141.181, 805.372 141.801 C 803.241 142.941, 802 146.779, 802 152.224 C 802 155.411, 804.162 160.766, 807.279 165.297 C 808.905 167.661, 809.022 168.532, 808.034 170.919 C 807.390 172.472, 807.007 175.488, 807.182 177.621 C 807.469 181.117, 807.945 181.715, 812 183.671 C 814.849 185.045, 819.574 186.102, 824.879 186.550 C 833.424 187.272, 834.142 187.619, 838.136 192.944 C 839.704 195.035, 840.259 195.100, 851.636 194.527 C 873.739 193.413, 889.377 193.520, 895.259 194.826 C 902.594 196.455, 919.121 196.674, 934.500 195.346 C 944.365 194.494, 947.389 193.833, 951.500 191.627 C 960.307 186.901, 962.314 185.303, 967.319 179.032 C 968.869 177.089, 972.066 173.475, 974.423 171 C 978.690 166.519, 983 159.331, 983 156.695 C 983 154.163, 979.356 151.957, 969.378 148.448 C 951.134 142.032, 938.256 140.115, 912 139.906 C 902.375 139.830, 893.600 139.880, 892.500 140.019 C 891.400 140.157, 876.775 140.020, 860 139.714 C 843.225 139.408, 824.545 139.499, 818.490 139.915" stroke="#7699d1" fill="#7699d1" fill-opacity="0.2" fill-rule="evenodd"/><path class="svg-region-B" d="M 871.977 607.289 C 869.489 607.997, 865.311 609.773, 862.692 611.237 C 860.074 612.700, 854.539 614.828, 850.393 615.966 C 837.278 619.564, 830 624.502, 830 629.803 C 830 632.961, 829.102 636.077, 825.335 646 C 823.433 651.009, 821.964 653.146, 818.933 655.315 C 816.770 656.863, 815 658.537, 815 659.035 C 815 659.533, 813.894 662.360, 812.541 665.316 C 810.136 670.575, 802.755 677.960, 799.832 678.033 C 798.004 678.079, 794.577 681.076, 793.581 683.500 C 793.128 684.600, 792.368 688.875, 791.891 693 C 790.500 705.041, 789.449 710.145, 787.155 716 C 785.448 720.358, 785.001 723.625, 785.001 731.738 C 785 741.220, 785.267 742.621, 788.605 750.686 C 792.683 760.537, 797.311 767.147, 802.772 770.923 C 806.380 773.417, 806.967 773.497, 821 773.397 C 835.029 773.297, 835.721 773.192, 842.316 770.159 C 847.821 767.628, 851.190 764.954, 859.828 756.262 C 867.058 748.987, 871.123 744.042, 872.375 741 C 873.393 738.525, 875.763 733.079, 877.641 728.897 C 880.881 721.682, 884 706.824, 884 698.605 C 884 696.917, 885.204 691.994, 886.675 687.664 L 889.350 679.792 891.226 683.450 C 892.619 686.165, 893.355 690.868, 894.080 701.706 C 894.838 713.013, 895.593 717.679, 897.432 722.402 C 898.737 725.756, 900.349 730.300, 901.014 732.500 C 903.141 739.544, 906.609 744.300, 915.959 753 C 929.357 765.466, 939.296 771.369, 949.809 773.106 C 960.151 774.813, 964.425 773.803, 974.173 767.344 C 983.218 761.351, 985.355 758.795, 989.089 749.500 C 991.343 743.890, 991.496 742.297, 991.443 725 C 991.382 705.084, 991.115 703.583, 984.244 684.482 C 979.838 672.235, 980.367 672.720, 974.499 675.561 C 968.042 678.687, 965.648 678.637, 963.481 675.330 C 962.040 673.131, 961.829 671.235, 962.288 664.580 C 962.594 660.136, 962.542 655.770, 962.172 654.879 C 961.803 653.987, 959.583 651.062, 957.240 648.379 C 950.656 640.839, 944.712 631.756, 944.601 629.065 C 944.481 626.181, 940.532 623.513, 925 615.824 C 915.795 611.267, 913.637 610.592, 907.500 610.354 C 903.650 610.204, 898.527 609.370, 896.115 608.499 C 890.085 606.323, 877.578 605.696, 871.977 607.289 M 976 667.642 C 976 668.179, 976.700 669.491, 977.555 670.559 C 979.022 672.389, 979.042 672.357, 977.920 670 C 976.462 666.939, 976 666.372, 976 667.642" stroke="#e23b33" fill="#e23b33" fill-opacity="0.2" fill-rule="evenodd"/><path class="svg-region-Ol" d="M 508.500 274.640 C 502.938 275.216, 492.658 277.546, 485.334 279.890 C 480.011 281.593, 467.546 287.632, 464.500 289.983 C 463.950 290.408, 455.400 294.928, 445.500 300.028 C 428.932 308.562, 403.911 324.017, 394.664 331.426 C 387.030 337.544, 381.387 342.236, 375.551 347.319 C 351.195 368.530, 347.520 372.473, 336.231 389.500 C 317.509 417.737, 308.479 442.777, 303.414 480.500 C 301.133 497.491, 302.697 518.940, 306.773 526.542 C 307.350 527.619, 308.582 530.655, 309.509 533.289 C 311.077 537.744, 320.821 553.603, 324.075 557 C 324.866 557.825, 326.789 560.075, 328.349 562 C 330.622 564.804, 343.017 577.746, 347.983 582.500 C 354.224 588.475, 366.740 603.955, 373.451 614 C 378.045 620.875, 381.739 626.725, 381.660 627 C 381.581 627.275, 382.910 629.525, 384.614 632 C 388.620 637.821, 396 650.394, 396 651.398 C 396 651.826, 397.350 655.093, 399 658.658 C 400.650 662.223, 402 665.446, 402 665.821 C 402 666.806, 413.008 688.321, 414.090 689.450 C 414.590 689.973, 415 690.935, 415 691.589 C 415 693.650, 422.747 706.134, 425.008 707.718 C 426.198 708.551, 428.027 711.093, 429.074 713.367 C 430.121 715.640, 431.770 718.850, 432.739 720.501 C 433.707 722.151, 435.738 725.607, 437.250 728.180 C 439.884 732.659, 450.414 747.872, 463.428 766 C 471.789 777.646, 477.454 786.507, 484.985 799.718 C 496.292 819.552, 505.665 827.032, 532.165 837.369 C 552.554 845.322, 567.279 849.023, 578.360 848.980 C 584.534 848.957, 597.336 846.747, 601.500 844.987 C 610.056 841.370, 611.894 840.387, 616.500 836.961 C 622.262 832.676, 634.768 819.802, 640.262 812.500 C 647.271 803.185, 650.592 798.510, 652.515 795.250 C 653.569 793.462, 654.784 792, 655.216 792 C 655.647 792, 656 791.507, 656 790.905 C 656 790.302, 658.422 786.140, 661.383 781.655 C 664.343 777.170, 667.496 772.055, 668.389 770.288 C 670.529 766.053, 682.732 749.072, 685.552 746.406 C 686.770 745.254, 688.074 743.342, 688.450 742.156 C 688.827 740.970, 689.502 740, 689.952 740 C 691.076 740, 702.076 726.016, 707.647 717.504 C 712.323 710.358, 720 695.809, 720 694.092 C 720 693.568, 721.356 690.210, 723.013 686.630 C 724.670 683.050, 726.284 678.631, 726.599 676.810 C 727.182 673.445, 728.004 670.623, 732.477 656.651 C 738.208 638.751, 740.938 604.493, 737.453 594.215 C 736.654 591.858, 736 589.232, 736 588.379 C 736 586.805, 730.949 579.107, 727.750 575.806 C 726.788 574.813, 726 572.705, 726 571.122 C 726 569.540, 725.325 567.685, 724.500 567 C 723.290 565.996, 723 562.886, 723 550.908 C 723 537.772, 722.711 535.178, 720.494 528.385 C 715.464 512.976, 708.066 500.606, 693.993 484.071 C 685.572 474.177, 679.371 469.618, 675.617 470.560 C 669.886 471.998, 664.807 466.081, 668.381 462.131 C 670.389 459.913, 670.469 456.634, 668.555 455.045 C 667.760 454.386, 666.370 451.518, 665.466 448.673 C 664.562 445.828, 662.777 441.250, 661.500 438.500 C 656.863 428.522, 654.884 418.668, 653.997 401.151 C 653.063 382.682, 650.283 369.521, 645.138 359.204 C 643.573 356.067, 641.458 351.250, 640.436 348.500 C 638.313 342.780, 626.745 320.232, 623.251 315 C 613.310 300.117, 588.874 283.910, 572 281.011 C 567.783 280.286, 559.431 278.401, 549 275.820 C 544.471 274.699, 515.944 273.868, 508.500 274.640" stroke="#aa444d" fill="#aa444d" fill-opacity="0.2" fill-rule="evenodd"/><path class="svg-region-Or" d="M 1276 259.111 C 1264.022 259.939, 1248.879 262.345, 1235 265.624 C 1217.766 269.697, 1190.667 280.644, 1183.323 286.500 C 1180.127 289.049, 1179.338 289.583, 1176.975 290.798 C 1175.587 291.513, 1172.804 293.650, 1170.792 295.548 C 1168.780 297.447, 1166.765 299, 1166.314 299 C 1165.482 299, 1160 304.444, 1160 305.270 C 1160 305.518, 1158.386 307.432, 1156.412 309.524 C 1154.439 311.616, 1151.852 315.240, 1150.662 317.576 C 1149.473 319.912, 1146.798 324.901, 1144.718 328.662 C 1142.638 332.423, 1140.650 336.625, 1140.300 338 C 1139.949 339.375, 1138.565 342.975, 1137.223 346 C 1134.289 352.613, 1128.008 371.453, 1125.054 382.500 C 1123.877 386.900, 1121.129 396.125, 1118.946 403 C 1116.763 409.875, 1114.983 416.232, 1114.989 417.128 C 1114.995 418.023, 1114.325 419.315, 1113.500 420 C 1112.675 420.685, 1112 422.029, 1112 422.988 C 1112 423.946, 1111.162 425.803, 1110.137 427.115 C 1109.113 428.427, 1107.343 431.300, 1106.205 433.500 C 1104.323 437.137, 1090.583 450.984, 1075.009 464.937 C 1070.757 468.746, 1067.983 472.338, 1065.739 476.937 C 1063.978 480.547, 1062.191 483.650, 1061.768 483.833 C 1061.346 484.017, 1061 484.556, 1061 485.032 C 1061 485.508, 1059.873 487.113, 1058.495 488.600 C 1057.117 490.087, 1055.512 493.148, 1054.929 495.402 C 1054.346 497.656, 1053.191 501.892, 1052.363 504.816 C 1047.689 521.309, 1047.712 521.127, 1047.837 540.500 C 1047.904 550.950, 1047.519 561.638, 1046.980 564.250 C 1044.237 577.546, 1043.656 579.691, 1042.169 582 C 1041.284 583.375, 1039.871 585.696, 1039.030 587.158 C 1038.188 588.620, 1036.687 590.943, 1035.693 592.320 C 1033.357 595.556, 1029.013 607.535, 1028.956 610.897 C 1028.932 612.329, 1028.248 615.300, 1027.436 617.500 C 1023.357 628.558, 1025.504 661.240, 1031.510 679.500 C 1032.233 681.700, 1033.371 685.975, 1034.037 689 C 1034.703 692.025, 1035.621 695.625, 1036.077 697 C 1036.533 698.375, 1037.384 701.371, 1037.967 703.658 C 1039.050 707.904, 1044.179 716.227, 1048.879 721.365 C 1050.321 722.940, 1056 727.871, 1061.500 732.323 C 1078.603 746.166, 1083.740 751.128, 1093.258 763 C 1105.548 778.329, 1108.266 781.243, 1116.500 787.914 C 1125.509 795.213, 1131.084 798.639, 1144 804.817 C 1163.384 814.089, 1181.435 819.018, 1196 819.015 C 1217.979 819.011, 1240.885 811.944, 1255.773 800.574 C 1266.154 792.647, 1280.271 776.589, 1291.003 760.500 C 1293.938 756.100, 1296.630 752.275, 1296.985 752 C 1297.341 751.725, 1299.281 748.991, 1301.298 745.924 C 1303.314 742.857, 1308.009 736.860, 1311.732 732.597 C 1315.454 728.333, 1319.763 723.192, 1321.306 721.173 C 1322.850 719.153, 1327.159 714.125, 1330.882 710 C 1334.605 705.875, 1339.110 700.475, 1340.893 698 C 1342.676 695.525, 1347.319 689.993, 1351.210 685.707 C 1355.102 681.422, 1359.579 676.247, 1361.159 674.207 C 1364.233 670.240, 1367.758 666.012, 1372.366 660.764 C 1373.942 658.969, 1376.867 655.061, 1378.866 652.081 C 1385.407 642.327, 1386.459 641.041, 1390 638.465 C 1391.925 637.064, 1395.975 632.855, 1399 629.110 C 1402.025 625.366, 1409 616.802, 1414.500 610.078 C 1420 603.354, 1426.378 595.299, 1428.674 592.177 C 1430.969 589.054, 1433.894 585.188, 1435.174 583.584 C 1439.940 577.609, 1451.200 559.957, 1457.554 548.500 C 1466.653 532.092, 1481 496.848, 1481 490.903 C 1481 489.784, 1481.537 487.886, 1482.193 486.684 C 1482.849 485.483, 1483.757 482.250, 1484.212 479.500 C 1485.662 470.736, 1487.668 448.627, 1487.343 445 C 1487.170 443.075, 1486.843 437.675, 1486.617 433 C 1486.390 428.325, 1485.709 423.233, 1485.102 421.685 C 1484.496 420.137, 1484 417.963, 1484 416.855 C 1484 410.834, 1473.445 388.682, 1466.453 380.028 C 1463.454 376.316, 1461 372.766, 1461 372.139 C 1461 371.513, 1460.649 371, 1460.219 371 C 1459.790 371, 1458.962 369.737, 1458.379 368.193 C 1456.551 363.349, 1440.069 342.180, 1431.096 333.151 C 1423.167 325.171, 1408.679 311.732, 1401.500 305.697 C 1399.850 304.310, 1396.016 300.773, 1392.979 297.837 C 1379.795 285.091, 1342.466 265.917, 1322.500 261.637 C 1316.250 260.297, 1312.168 259.868, 1293.500 258.590 C 1290.750 258.401, 1282.875 258.636, 1276 259.111" stroke="#aa444d" fill="#aa444d" fill-opacity="0.2" fill-rule="evenodd"/><path class="svg-region-LBPCr" d="M 985.123 405.352 C 984.452 406.160, 983.649 408.390, 983.338 410.307 C 982.571 415.029, 984.784 415.619, 993.340 412.977 C 998.392 411.416, 1000 410.476, 1000 409.081 C 1000 405.765, 987.401 402.607, 985.123 405.352 M 1013.476 413.075 C 1012.722 415.451, 1012.772 415.528, 1015.583 416.390 C 1017.159 416.873, 1017.934 416.441, 1018.766 414.614 C 1020.048 411.800, 1019.525 411, 1016.401 411 C 1014.986 411, 1013.887 411.779, 1013.476 413.075" stroke="#daffff" fill="#daffff" fill-opacity="0.2" fill-rule="evenodd"/><path class="svg-region-BPCl" d="M 826.445 627.661 C 823.535 629.547, 819.443 634.660, 811.945 645.773 C 800.621 662.560, 800.357 662.988, 796.563 670.732 C 794.448 675.049, 793.130 681, 794.289 681 C 795.399 681, 802.543 676.738, 805.930 674.055 C 809.510 671.220, 815 662.128, 815 659.035 C 815 658.537, 816.743 656.877, 818.873 655.346 C 824.178 651.533, 828.089 642.350, 830.414 628.250 C 830.709 626.462, 830.849 625.007, 830.725 625.016 C 830.601 625.025, 828.675 626.215, 826.445 627.661" stroke="#83385f" fill="#83385f" fill-opacity="0.2" fill-rule="evenodd"/><path class="svg-region-BPCr" d="M 944.740 628.887 C 944.143 631.168, 952.168 643.555, 958.280 649.789 L 962.500 654.094 962.199 663.505 C 961.961 670.970, 962.243 673.441, 963.564 675.458 C 965.465 678.358, 969.357 678.801, 972.441 676.468 C 973.509 675.661, 975.170 675, 976.132 675 C 979.517 675, 979.220 672.757, 974.810 665 C 974.341 664.175, 973.171 661.884, 972.210 659.910 C 969.132 653.583, 962.678 644.833, 956.155 638.145 C 952.665 634.567, 949.126 630.596, 948.290 629.320 C 946.447 626.507, 945.396 626.379, 944.740 628.887" stroke="#83385f" fill="#83385f" fill-opacity="0.2" fill-rule="evenodd"/><path class="svg-region-PNl" d="M 686 60.987 C 686 62.563, 677.653 67.459, 677.214 66.141 C 677.004 65.513, 676.061 65, 675.117 65 C 674.173 65, 672.913 64.513, 672.317 63.917 C 670.772 62.372, 662.947 62.577, 658.899 64.269 C 657.009 65.058, 653.221 67.581, 650.482 69.875 C 644.027 75.279, 644.126 75.211, 639.818 77.201 C 635.561 79.168, 634.044 80.342, 625.217 88.500 C 618.239 94.949, 614 100.775, 614 103.916 C 614 106.628, 621.668 114.794, 626.500 117.228 C 628.700 118.336, 633.207 121.825, 636.516 124.980 C 639.825 128.135, 643.650 131.059, 645.016 131.478 C 646.382 131.896, 649.750 133.227, 652.500 134.434 C 658.742 137.176, 669.216 140.358, 679 142.485 C 683.125 143.382, 687.678 144.427, 689.117 144.808 C 692.343 145.661, 695.996 150.052, 698.430 156 C 699.443 158.475, 700.886 161.918, 701.636 163.651 C 702.386 165.384, 703 167.937, 703 169.324 C 703 170.712, 704.064 173.119, 705.365 174.673 C 708.007 177.830, 710.005 187.057, 708.900 191 C 708.515 192.375, 708.155 195.470, 708.100 197.878 L 708 202.256 712.212 201.582 C 717.403 200.752, 717.748 200.427, 716.151 197.870 C 714.564 195.329, 715.522 190.449, 717.942 188.751 C 719.670 187.538, 724 179.183, 724 177.060 C 724 174.371, 733.794 166.350, 740.270 163.734 C 743.993 162.230, 747.631 161, 748.355 161 C 749.078 161, 750.863 159.660, 752.323 158.022 C 755.432 154.532, 758.983 153.385, 761.880 154.936 C 763.639 155.877, 764.349 155.591, 766.639 153.021 C 768.386 151.060, 770.285 150, 772.050 150 C 773.883 150, 775.331 149.143, 776.490 147.374 C 778.546 144.236, 777.765 143.492, 771.416 142.540 C 769.077 142.189, 766.622 141.249, 765.959 140.451 C 765.297 139.653, 764.149 139, 763.408 139 C 761.385 139, 754.484 135.192, 752.465 132.962 C 751.489 131.883, 750.092 131, 749.360 131 C 747.648 131, 738.538 117.269, 736.957 112.304 C 734.194 103.629, 730.033 98, 726.384 98 C 724.801 98, 722.787 96.264, 719.712 92.250 C 717.289 89.088, 714.810 85.600, 714.203 84.500 C 712.426 81.281, 701.067 70.502, 693.697 65.041 C 686.474 59.688, 686 59.439, 686 60.987" stroke="#bbc0d1" fill="#bbc0d1" fill-opacity="0.2" fill-rule="evenodd"/><path class="svg-region-PNr" d="M 1038.450 109.407 C 1033.830 111.419, 1030.388 116.215, 1027.895 124.112 C 1026.657 128.036, 1024.522 132.878, 1023.151 134.873 C 1021.780 136.868, 1019.359 140.404, 1017.771 142.731 C 1016.183 145.059, 1013.560 148.286, 1011.942 149.904 C 1008.469 153.377, 1008.326 154, 1011 154 C 1012.333 154, 1013 154.667, 1013 156 C 1013 157.555, 1012.333 158, 1010.006 158 C 1007.614 158, 1006.419 158.854, 1004.058 162.250 C 1002.433 164.588, 999.956 167.756, 998.552 169.291 C 996.856 171.146, 996 173.230, 996 175.507 C 996 177.391, 995.294 180.412, 994.432 182.221 C 991.758 187.827, 995.482 193.739, 999.010 189.488 C 999.700 188.657, 1002.117 187.152, 1004.382 186.143 C 1009.654 183.796, 1014.903 177.818, 1022.831 165.131 C 1026.314 159.559, 1029.801 155, 1030.581 155 C 1032.374 155, 1032.400 156.974, 1030.642 159.527 C 1029.896 160.612, 1028.726 163.217, 1028.043 165.316 C 1027.360 167.415, 1025.235 170.698, 1023.320 172.613 C 1019.914 176.020, 1019.849 176.237, 1020.279 182.797 C 1020.669 188.746, 1021.689 192.778, 1025.176 202.155 C 1025.719 203.615, 1027.060 205.044, 1028.156 205.331 C 1029.252 205.617, 1030.393 206.785, 1030.691 207.926 C 1031.232 209.996, 1034 210.895, 1034 209 C 1034 207.467, 1036.669 207.812, 1038.429 209.571 C 1039.293 210.436, 1040 212.188, 1040 213.464 C 1040 214.741, 1040.650 216.035, 1041.444 216.340 C 1042.238 216.645, 1043.434 218.718, 1044.102 220.947 C 1045.745 226.431, 1047 226.052, 1047 220.071 C 1047 214.121, 1048.759 212, 1053.694 212 C 1056.390 212, 1057.009 211.699, 1056.267 210.750 C 1054.500 208.492, 1054.187 205.125, 1055.574 203.296 C 1056.323 202.308, 1056.951 200.488, 1056.968 199.250 C 1056.988 197.835, 1057.615 197, 1058.656 197 C 1059.566 197, 1061.819 195.850, 1063.661 194.445 C 1065.504 193.039, 1067.459 192.166, 1068.006 192.504 C 1068.590 192.865, 1069 191.719, 1069 189.726 C 1069 185.710, 1073.920 174.083, 1079.439 165.057 C 1082.993 159.245, 1083.421 157.819, 1083.806 150.483 C 1084.330 140.495, 1083.235 138.020, 1075.332 131.323 C 1072.202 128.671, 1065.983 123.017, 1061.512 118.760 C 1055.312 112.856, 1052.211 110.664, 1048.442 109.521 C 1042.516 107.723, 1042.320 107.721, 1038.450 109.407" stroke="#bbc0d1" fill="#bbc0d1" fill-opacity="0.2" fill-rule="evenodd"/><path class="svg-region-ODMl" d="M 724.786 399.764 C 722.743 401.269, 719.737 404.365, 718.106 406.644 C 716.475 408.923, 714.278 411.398, 713.224 412.144 C 712.169 412.890, 710.734 415.244, 710.035 417.375 C 709.296 419.626, 707.974 421.455, 706.881 421.741 C 704.576 422.344, 704.483 424.984, 706.535 431.572 C 707.380 434.282, 708.529 438.075, 709.090 440 C 709.650 441.925, 710.955 445.525, 711.988 448 C 713.022 450.475, 714.119 453.690, 714.426 455.144 C 714.899 457.381, 715.603 457.847, 718.993 458.171 L 723 458.553 723.012 451.026 C 723.018 446.887, 723.634 441.210, 724.379 438.411 C 727.185 427.872, 733.510 414.326, 736.158 413.185 C 736.559 413.012, 736.653 412.260, 736.367 411.514 C 736.080 410.767, 736.377 409.165, 737.025 407.953 C 738.197 405.764, 738.072 405.201, 735.033 399 C 733.768 396.418, 728.829 396.787, 724.786 399.764" stroke="#999999" fill="#999999" fill-opacity="0.2" fill-rule="evenodd"/><path class="svg-region-ODMr" d="M 1040.500 408.135 C 1031.559 411.020, 1031.354 411.490, 1035.959 418.517 C 1038.115 421.808, 1040.363 425.051, 1040.955 425.724 C 1041.546 426.396, 1042.462 428.084, 1042.990 429.474 C 1043.518 430.863, 1044.363 432, 1044.867 432 C 1046.060 432, 1049 439.370, 1049 442.360 C 1049 444.819, 1045.636 447, 1041.845 447 C 1040.100 447, 1039.886 447.423, 1040.452 449.750 C 1041.218 452.897, 1044.613 455.945, 1047.390 455.978 C 1048.429 455.990, 1049.827 456.748, 1050.495 457.662 C 1051.219 458.652, 1052.380 459.068, 1053.364 458.691 C 1055.175 457.995, 1055.287 457.765, 1060.468 444 C 1062.435 438.775, 1064.709 433.226, 1065.522 431.669 C 1067.172 428.508, 1067.497 424, 1066.075 424 C 1064.394 424, 1057.036 415.557, 1055.989 412.426 C 1055.320 410.424, 1053.735 408.767, 1051.447 407.676 C 1047.335 405.715, 1048.102 405.683, 1040.500 408.135" stroke="#999999" fill="#999999" fill-opacity="0.2" fill-rule="evenodd"/>
    </svg>