<svg xmlns="http://www.w3.org/2000/svg" width="1785" height="1131" viewBox="0 0 1785 1131" version="1.1">
    <path class="svg-region-AP" d="M 881.500 444.005 C 878.750 444.498, 873.800 445.327, 870.500 445.849 C 867.200 446.370, 862.025 447.742, 859 448.898 C 854.955 450.443, 851.225 450.999, 844.899 450.999 C 834.915 451, 831.245 452.035, 824.866 456.648 C 822.317 458.492, 819.167 460.003, 817.866 460.006 C 814.462 460.014, 808.185 461.892, 807.418 463.132 C 807.058 463.714, 807.225 465.160, 807.788 466.345 C 808.987 468.869, 811.019 493.714, 811.889 516.500 C 812.460 531.464, 812.662 532.728, 815 536 C 817.275 539.185, 817.529 540.580, 817.826 551.500 C 818.006 558.100, 818.568 563.928, 819.076 564.450 C 819.584 564.973, 820 566.405, 820 567.633 C 820 569.077, 820.795 570.109, 822.250 570.556 C 823.487 570.936, 827.200 572.468, 830.500 573.960 C 833.800 575.453, 839.087 577.198, 842.250 577.837 C 858.521 581.128, 858.776 581.212, 859.901 583.683 C 860.506 585.009, 861 588.977, 861 592.500 C 861 600.313, 862.364 603.626, 865.864 604.313 C 867.314 604.598, 872.684 604.607, 877.798 604.333 C 884.206 603.990, 887.544 604.207, 888.537 605.031 C 889.400 605.747, 891.296 605.980, 893.263 605.611 C 895.568 605.178, 897.285 605.517, 899.023 606.747 C 900.386 607.711, 902.953 609.006, 904.728 609.625 C 907.888 610.725, 908.012 610.656, 910.511 606.392 C 911.915 603.995, 914.656 600.789, 916.602 599.267 C 918.547 597.745, 920.806 595.239, 921.622 593.697 C 923.603 589.956, 934.954 575.306, 940.986 568.705 C 943.650 565.791, 947.407 562.557, 949.337 561.518 L 952.846 559.628 953.413 524.564 C 953.725 505.279, 954.245 483.830, 954.568 476.899 L 955.157 464.299 949.583 460.599 C 946.517 458.564, 942.545 456.393, 940.755 455.774 C 938.965 455.156, 935.475 453.429, 933 451.936 C 930.525 450.444, 924.930 448.007, 920.567 446.520 C 913.903 444.249, 910.544 443.761, 899.567 443.463 C 892.380 443.269, 884.250 443.512, 881.500 444.005" stroke="#fc7143" fill="#fc7143" fill-opacity="0.2" fill-rule="evenodd"/><path class="svg-region-PP" d="M 842.777 325.557 C 845.779 327.659, 845.575 330.226, 842.250 332.207 C 840.737 333.109, 838.600 334.680, 837.500 335.700 C 836.400 336.720, 833.996 338.615, 832.159 339.910 C 826.863 343.645, 813 363.492, 813 367.341 C 813 368.720, 805.160 375.999, 803.666 376.005 C 803.025 376.008, 797.196 381.130, 790.714 387.388 C 779.795 397.928, 779.108 398.810, 781.367 399.377 C 785.708 400.467, 792.559 408.146, 794.485 414.080 C 796.174 419.283, 801.356 428.301, 805.070 432.500 C 806.579 434.205, 806.699 435.266, 805.883 439.704 C 805.060 444.179, 806.111 460.445, 807.300 461.633 C 807.474 461.808, 810.515 461.433, 814.058 460.802 C 818.365 460.035, 821.992 458.601, 825 456.476 C 831.260 452.053, 835.027 451, 844.580 451 C 850.537 451, 855.056 450.318, 860.681 448.571 C 873.018 444.737, 882.363 443.492, 898 443.599 C 915.924 443.720, 918.105 444.347, 940.500 455.816 C 944.900 458.069, 949.962 460.877, 951.750 462.055 L 955 464.196 955 455.553 C 955 447.840, 955.248 446.672, 957.299 444.705 C 968.247 434.207, 981.463 422.440, 982.603 422.177 C 984.123 421.825, 984.554 420, 983.117 420 C 979.823 420, 981.931 409.476, 985.449 408.354 C 987.056 407.841, 986.161 407.245, 981.315 405.600 C 975.505 403.628, 968.904 398.836, 961.022 390.868 C 957.470 387.277, 949.652 370.936, 947.631 362.874 C 946.091 356.735, 943.736 330.296, 944.600 328.856 C 945.530 327.308, 905.370 326.221, 869.500 326.824 C 860.920 326.968, 854.120 326.531, 849.500 325.538 C 840.677 323.643, 840.048 323.645, 842.777 325.557" stroke="#c4743d" fill="#c4743d" fill-opacity="0.2" fill-rule="evenodd"/><path class="svg-region-LPl" d="M 776.500 400.786 C 774.389 402.600, 771.006 411.125, 768.057 422.064 C 765.960 429.843, 758.573 441.835, 744.500 460.308 C 739.866 466.391, 739.153 466.919, 734.764 467.528 C 729.475 468.260, 729.472 468.692, 734.712 474.694 C 736.245 476.450, 738.341 478.925, 739.368 480.194 C 741.689 483.060, 746.205 492.730, 748.884 500.573 C 749.998 503.833, 752.538 510.325, 754.529 515 C 756.519 519.675, 759.521 527.550, 761.199 532.500 C 766.110 546.987, 768.027 552.231, 770.074 556.777 C 771.133 559.129, 772 562.443, 772 564.141 C 772 565.838, 772.821 568.864, 773.824 570.864 C 774.827 572.864, 776.290 575.801, 777.074 577.392 C 777.858 578.982, 779.581 580.995, 780.903 581.866 L 783.307 583.447 782.600 579.680 C 781.595 574.322, 782.568 572.293, 786.798 570.931 C 788.834 570.276, 791.121 569.245, 791.879 568.640 C 793.558 567.302, 811.075 567.497, 815.802 568.906 C 818.499 569.710, 819.216 569.601, 819.710 568.313 C 820.043 567.445, 819.795 565.901, 819.158 564.881 C 818.459 563.762, 818 558.558, 818 551.746 C 818 541.071, 817.852 540.250, 815.250 536.482 C 812.610 532.659, 812.477 531.862, 811.912 516.500 C 811.157 495.988, 809.049 469.079, 807.994 466.500 C 806.149 461.990, 804.912 444.507, 806.060 439.158 C 807.138 434.130, 807.076 433.804, 804.581 431.309 C 801.437 428.165, 796.722 419.977, 794.902 414.500 C 793.052 408.931, 790.409 405.309, 785.719 401.911 C 781.123 398.582, 779.320 398.362, 776.500 400.786" stroke="#d2454f" fill="#d2454f" fill-opacity="0.2" fill-rule="evenodd"/><path class="svg-region-LPr" d="M 969.260 433.591 L 955.500 446.181 954.811 466.341 C 953.625 501.064, 952.778 556.979, 953.413 558.633 C 953.961 560.063, 954.248 560.067, 956.364 558.681 C 963.062 554.292, 971.093 555.837, 976.616 562.576 C 978.610 565.009, 980.822 567, 981.532 567 C 983.415 567, 988 572.812, 988 575.199 C 988 578.612, 990.492 575.661, 994.354 567.676 C 999.829 556.356, 1007 540.921, 1007 540.456 C 1007 540.223, 1008.350 537.245, 1010 533.839 C 1011.650 530.432, 1013 527.061, 1013 526.347 C 1013 525.633, 1015.209 520.876, 1017.910 515.775 C 1020.610 510.674, 1024.499 502.450, 1026.552 497.500 C 1028.605 492.550, 1030.892 487.091, 1031.633 485.368 C 1034.084 479.676, 1033.828 477.708, 1030.500 476.673 C 1028.850 476.160, 1024.575 474.494, 1021 472.972 C 1017.425 471.450, 1012.863 469.923, 1010.862 469.578 C 1005.248 468.611, 1000.643 465.021, 999.816 460.968 C 998.126 452.685, 997.766 451.342, 996.471 448.500 C 995.719 446.850, 993.930 442.801, 992.494 439.503 C 991.059 436.205, 988.974 432.536, 987.860 431.351 C 986.747 430.166, 985.589 427.352, 985.286 425.098 C 984.984 422.844, 984.350 421, 983.878 421 C 983.406 421, 976.827 426.666, 969.260 433.591" stroke="#d2454f" fill="#d2454f" fill-opacity="0.2" fill-rule="evenodd"/><path class="svg-region-ADCl" d="M 795.500 567.653 C 794.400 567.919, 792.082 568.780, 790.349 569.568 C 788.616 570.356, 786.735 571, 786.170 571 C 785.605 571, 784.428 571.714, 783.555 572.588 C 782.246 573.897, 782.083 575.606, 782.624 582.338 C 783.372 591.632, 785.719 597.209, 792.314 605.357 C 794.616 608.202, 797.268 611.648, 798.206 613.015 C 799.654 615.124, 800.068 615.273, 800.941 614 C 802.660 611.493, 802.148 602.510, 800 597.500 C 798.900 594.934, 798 591.576, 798 590.039 C 798 586.158, 800.753 579.958, 803.683 577.243 C 806.427 574.700, 806.579 574.728, 820.940 580.439 C 824.658 581.918, 829.377 583, 832.108 583 C 834.709 583, 837.548 583.273, 838.418 583.607 C 840.024 584.223, 840.454 587.706, 839.406 591.611 C 838.680 594.318, 832.153 598, 828.082 598 C 823.547 598, 823.079 600.454, 826.868 604.364 C 828.590 606.141, 830 607.971, 830 608.430 C 830 608.888, 830.950 610.801, 832.111 612.680 C 834.109 615.912, 834.338 616.013, 836.361 614.559 C 841.669 610.743, 849.487 607.694, 853.567 607.848 C 856.507 607.960, 857.958 607.553, 858.360 606.504 C 858.678 605.677, 859.904 605, 861.085 605 C 862.873 605, 863.105 604.622, 862.469 602.750 C 862.048 601.513, 861.433 596.900, 861.102 592.500 C 860.771 588.100, 860.050 583.823, 859.500 582.995 C 858.328 581.230, 852.416 579, 848.909 579 C 845.484 579, 831.953 575.169, 829.302 573.449 C 824.013 570.016, 801.618 566.176, 795.500 567.653" stroke="#54413e" fill="#54413e" fill-opacity="0.2" fill-rule="evenodd"/><path class="svg-region-ADCr" d="M 958.500 557.420 C 956.850 558.175, 953.433 559.746, 950.906 560.911 C 948.379 562.075, 944.085 565.384, 941.364 568.264 C 935.687 574.271, 923.914 589.298, 921.984 593 C 921.267 594.375, 918.807 597.156, 916.516 599.180 C 914.226 601.204, 911.260 604.929, 909.926 607.459 C 907.245 612.540, 907.904 613.941, 913 613.997 C 914.375 614.012, 917.791 614.634, 920.592 615.380 C 925.309 616.636, 925.770 616.598, 926.850 614.868 C 927.492 613.841, 928.710 613, 929.558 613 C 932.732 613, 937.201 609.763, 938.579 606.466 C 940.591 601.649, 940.479 595, 938.385 595 C 936.561 595, 930 588.261, 930 586.388 C 930 584.608, 932.100 584.168, 935.317 585.274 C 937.424 585.998, 938.937 585.845, 941.317 584.665 C 945.855 582.417, 958.646 578.785, 960.660 579.173 C 961.595 579.353, 963.682 581.750, 965.297 584.499 C 967.899 588.928, 968.179 590.183, 967.751 595.509 C 967.486 598.815, 966.341 603.556, 965.208 606.044 C 962.111 612.841, 961.653 615.467, 963.320 616.850 C 964.526 617.851, 964.880 617.453, 965.440 614.466 C 965.810 612.494, 967.663 609.165, 969.557 607.069 C 971.450 604.973, 973 602.997, 973 602.679 C 973 601.773, 979.276 592.615, 980.661 591.500 C 982.876 589.717, 988 578.876, 988 575.975 C 988 572.943, 983.693 567, 981.495 567 C 980.765 567, 978.697 565.142, 976.898 562.871 C 971.822 556.462, 965.002 554.442, 958.500 557.420" stroke="#54413e" fill="#54413e" fill-opacity="0.2" fill-rule="evenodd"/><path class="svg-region-DMl" d="M 794 321.971 C 788.775 322.384, 779.775 323.042, 774 323.435 C 762.436 324.220, 746.892 328.760, 738.162 333.902 C 731.708 337.702, 724.485 340.003, 719.072 339.983 C 716.557 339.973, 710.976 340.753, 706.669 341.715 L 698.838 343.465 699.311 347.983 C 700.316 357.581, 701.960 366.680, 703.448 370.876 C 704.302 373.282, 705 376.263, 705 377.500 C 705 378.737, 705.679 381.674, 706.510 384.027 C 707.340 386.380, 708.948 393.074, 710.083 398.903 C 713.142 414.611, 713.875 417, 715.637 417 C 717.857 417, 722.994 411.195, 723.031 408.644 C 723.048 407.465, 724.171 404.700, 725.526 402.500 C 728.585 397.534, 728.640 395.406, 725.750 393.891 C 721.527 391.678, 718 386.845, 718 383.270 C 718 378.200, 720.533 374, 723.591 374 C 728.448 374, 730 375.646, 730 380.795 C 730 384.436, 730.458 385.805, 732 386.768 C 733.100 387.455, 734 388.688, 734 389.508 C 734 390.333, 734.894 391, 736 391 C 737.100 391, 738 391.412, 738 391.915 C 738 393.410, 731.727 404.419, 728.639 408.343 C 723.785 414.513, 727.527 417.145, 735.261 413 C 737.314 411.900, 739.485 411, 740.086 411 C 740.687 411, 742.073 409.988, 743.166 408.750 C 744.258 407.512, 744.867 407.063, 744.517 407.750 C 744.033 408.703, 745.937 409, 752.519 409 C 765.424 409, 771.860 405.589, 787.500 390.462 C 794.100 384.078, 801.535 377.562, 804.023 375.982 C 808.553 373.104, 813 368.724, 813 367.141 C 813 365.329, 818.191 356.683, 823.571 349.534 C 828.608 342.842, 832.545 339.228, 842.126 332.500 C 845.157 330.371, 845.799 327.893, 843.750 326.230 C 838.908 322.299, 815.370 320.284, 794 321.971" stroke="#68533d" fill="#68533d" fill-opacity="0.2" fill-rule="evenodd"/><path class="svg-region-DMr" d="M 956.488 326.083 C 955.395 326.510, 952.643 326.891, 950.372 326.930 C 948.102 326.968, 945.787 327.563, 945.227 328.250 C 943.794 330.009, 945.606 355.902, 947.693 363.500 C 950.344 373.149, 958.514 389.425, 962.230 392.457 C 964.028 393.925, 967.697 397.121, 970.383 399.560 C 974.051 402.891, 977.038 404.521, 982.383 406.108 C 986.297 407.270, 990.769 408.875, 992.321 409.673 C 993.872 410.471, 999.047 411.726, 1003.821 412.461 C 1014.110 414.046, 1020.881 416.881, 1024.421 421.089 C 1025.840 422.774, 1027.008 424.456, 1027.019 424.827 C 1027.029 425.197, 1029.225 426.840, 1031.898 428.479 C 1035.427 430.641, 1037.576 432.970, 1039.743 436.979 C 1041.385 440.015, 1043.407 442.634, 1044.237 442.799 C 1045.947 443.138, 1049.105 438.289, 1050.996 432.419 C 1051.691 430.263, 1053.834 424.900, 1055.760 420.500 C 1057.685 416.100, 1059.853 411.131, 1060.578 409.458 C 1061.303 407.785, 1062.409 404.185, 1063.035 401.458 C 1063.662 398.731, 1064.544 395.150, 1064.997 393.500 C 1065.449 391.850, 1067.036 385.325, 1068.523 379 C 1070.010 372.675, 1072.525 364.027, 1074.113 359.782 C 1075.701 355.538, 1077 351.600, 1077 351.032 C 1077 350.404, 1073.695 350, 1068.557 350 C 1061.819 350, 1058.293 349.390, 1051.096 346.979 C 1046.136 345.317, 1034.073 342.130, 1024.289 339.897 C 1014.505 337.664, 1004.466 334.963, 1001.981 333.895 C 996.673 331.613, 989.900 330.264, 977.500 329.019 C 972.550 328.522, 966.245 327.484, 963.488 326.711 C 960.619 325.907, 957.626 325.639, 956.488 326.083" stroke="#68533d" fill="#68533d" fill-opacity="0.2" fill-rule="evenodd"/><path class="svg-region-VMl" d="M 767 405.724 C 761.383 408.514, 759.447 408.956, 752.750 408.976 C 747.221 408.993, 744.990 408.642, 744.967 407.750 C 744.948 407.063, 744.089 407.512, 743.056 408.750 C 742.024 409.988, 740.671 411, 740.050 411 C 739.429 411, 737.156 411.900, 735 413 C 732.844 414.100, 730.192 415, 729.107 415 C 728.013 415, 726.852 414.109, 726.500 413 C 725.598 410.158, 723.173 410.522, 719.850 414 C 718.273 415.650, 716.474 417, 715.852 417 C 715.062 417, 714.941 418.582, 715.451 422.250 C 715.852 425.137, 716.131 428.625, 716.070 430 C 716.008 431.375, 716.370 433.400, 716.874 434.500 C 717.377 435.600, 718.293 439.512, 718.909 443.194 C 719.525 446.876, 720.669 451.151, 721.452 452.694 C 722.234 454.237, 724.002 458.045, 725.379 461.155 C 726.757 464.266, 728.381 467.118, 728.988 467.493 C 729.595 467.868, 732.241 467.880, 734.866 467.518 C 739.550 466.874, 739.792 466.661, 747.678 456.181 C 759.517 440.448, 766.729 428.366, 768.097 421.972 C 768.742 418.962, 770.108 414.933, 771.133 413.018 C 772.911 409.695, 774.652 403.136, 773.870 402.701 C 773.667 402.587, 770.575 403.948, 767 405.724" stroke="#e59376" fill="#e59376" fill-opacity="0.2" fill-rule="evenodd"/><path class="svg-region-VMr" d="M 991.750 410.078 C 993.395 411.817, 993.354 415, 991.687 415 C 990.965 415, 989.103 416.327, 987.549 417.949 C 985.123 420.481, 984.800 421.471, 985.265 424.940 C 985.563 427.163, 986.863 430.237, 988.154 431.772 C 989.444 433.306, 991.335 436.572, 992.356 439.030 C 997.841 452.236, 1000 458.629, 1000 461.666 C 1000 464.999, 1007.386 470, 1012.309 470 C 1013.634 470, 1017.369 471.344, 1020.609 472.987 C 1023.849 474.630, 1027.486 475.980, 1028.691 475.987 C 1029.896 475.994, 1031.160 476.450, 1031.500 477 C 1033.407 480.085, 1035.964 475.829, 1038.992 464.532 C 1040.128 460.289, 1042.171 454.624, 1043.529 451.942 C 1046.245 446.583, 1046.713 443, 1044.698 443 C 1043.982 443, 1041.883 440.391, 1040.034 437.202 C 1037.654 433.098, 1035.262 430.541, 1031.847 428.452 C 1029.193 426.828, 1026.787 424.792, 1026.500 423.926 C 1024.796 418.795, 1014.632 413.741, 1002.687 412.085 C 998.389 411.490, 993.889 410.497, 992.687 409.879 C 990.884 408.953, 990.720 408.988, 991.750 410.078" stroke="#e59376" fill="#e59376" fill-opacity="0.2" fill-rule="evenodd"/><path class="svg-region-PMl" d="M 807 179.427 C 798.475 181.257, 789.700 183.234, 787.500 183.821 C 785.300 184.408, 781.700 185.343, 779.500 185.900 C 766.282 189.247, 736 201.013, 736 202.803 C 736 204.122, 731.596 209, 730.405 209 C 729.838 209, 728.109 210.321, 726.562 211.935 C 725.016 213.549, 720.994 216.567, 717.625 218.642 C 709.137 223.871, 700.190 230.780, 698.431 233.465 C 697.620 234.703, 696.319 239.340, 695.540 243.770 C 694.762 248.200, 693.634 253.646, 693.035 255.871 C 691.526 261.474, 691.430 308.238, 692.916 313.717 C 693.545 316.037, 694.499 321.887, 695.035 326.717 C 696.783 342.453, 696.937 343, 699.595 343 C 700.902 343, 703.918 342.479, 706.297 341.843 C 710.504 340.718, 710.745 340.425, 715.062 331.220 C 717.503 326.013, 721.631 318.771, 724.236 315.127 C 726.840 311.482, 730.665 306.025, 732.736 303 C 734.806 299.975, 737.038 296.930, 737.696 296.232 C 739.107 294.737, 749 277.344, 749 276.358 C 749 275.986, 750.701 273.391, 752.780 270.591 C 760.713 259.904, 769 247.094, 769 245.516 C 769 244.611, 769.950 241.663, 771.110 238.965 C 772.967 234.648, 774.399 233.275, 783.029 227.530 C 788.424 223.938, 793.066 221, 793.345 221 C 793.625 221, 797.599 218.687, 802.177 215.860 C 814.766 208.086, 817.113 207.298, 831.448 206.024 C 838.570 205.391, 844.808 204.618, 845.312 204.307 C 845.816 203.996, 854.290 203.789, 864.143 203.848 L 882.058 203.956 881.779 191.012 L 881.500 178.068 859 177.606 C 846.625 177.353, 833.350 176.910, 829.500 176.623 C 823.930 176.207, 819.334 176.780, 807 179.427" stroke="#90cf92" fill="#90cf92" fill-opacity="0.2" fill-rule="evenodd"/><path class="svg-region-PMr" d="M 931 174.047 C 897.497 175.214, 880 176.281, 880 177.157 C 880 177.620, 880.450 178, 881 178 C 881.615 178, 882 183, 882 191 C 882 199.483, 881.632 204, 880.941 204 C 880.359 204, 880.160 204.450, 880.500 205 C 880.840 205.550, 883.248 206, 885.851 206 C 891.276 206, 918.542 200.877, 926.548 198.353 C 931.056 196.932, 932.571 196.855, 935.960 197.870 C 939.939 199.062, 940.964 200.286, 939 201.500 C 937.700 202.303, 937.716 208.122, 939.027 211.572 C 940.017 214.176, 940.260 214.253, 945.700 213.692 C 950.098 213.238, 951.913 213.491, 953.922 214.841 C 955.340 215.793, 957.850 217.227, 959.500 218.028 C 961.150 218.828, 965.200 221.042, 968.500 222.947 C 975.050 226.729, 986.194 232.853, 992.500 236.135 C 995.062 237.469, 999.447 241.863, 1004.697 248.359 C 1009.205 253.936, 1015.534 261.650, 1018.762 265.500 C 1024.047 271.804, 1025.156 273.992, 1029.911 287.500 C 1035.398 303.087, 1044.752 331.822, 1047.164 340.500 C 1049.149 347.644, 1053.047 349.464, 1066.402 349.485 L 1076.303 349.500 1079.226 342 C 1080.834 337.875, 1082.550 333.600, 1083.039 332.500 C 1086.568 324.572, 1088.154 317.325, 1089.055 305 C 1090.069 291.131, 1089.835 287.228, 1087.318 276 C 1083.888 260.695, 1080.851 253.750, 1075.050 247.949 C 1072.548 245.445, 1069.337 242.070, 1067.916 240.449 C 1063.122 234.979, 1050.541 223.442, 1044.575 219.045 C 1040.985 216.400, 1035.295 213.530, 1030.140 211.765 C 1020.298 208.395, 1010.176 203.731, 997.637 196.786 C 990.583 192.879, 987.319 191.694, 981.637 190.977 C 964.252 188.785, 965.010 189.247, 961.563 178.750 L 959.675 173 955.088 173.184 C 952.564 173.285, 941.725 173.674, 931 174.047" stroke="#90cf92" fill="#90cf92" fill-opacity="0.2" fill-rule="evenodd"/><path class="svg-region-PV" d="M 925 198.627 C 918.726 200.619, 896.733 204.977, 889.424 205.676 C 885.637 206.038, 882.535 205.822, 881.190 205.102 C 878.335 203.574, 851.922 203.393, 841.500 204.831 C 837.100 205.438, 830.462 206.210, 826.750 206.547 L 820 207.159 820 214.930 C 820 222.889, 819.539 224.961, 815.391 235.671 C 813.674 240.100, 813 243.842, 813 248.934 C 813 252.835, 812.546 256.809, 811.990 257.764 C 811.435 258.719, 809.826 263.775, 808.414 269 C 807.003 274.225, 805.207 280.750, 804.423 283.500 C 803.628 286.290, 802.711 295.791, 802.349 305 L 801.700 321.500 812.100 321.172 C 818.592 320.966, 825.694 321.426, 831 322.394 C 854.703 326.718, 857.157 326.904, 893 327.082 C 947.535 327.355, 953.315 327.279, 955.961 326.253 C 957.659 325.595, 960.097 325.737, 963.828 326.712 C 966.802 327.488, 969.857 327.885, 970.618 327.593 C 972.933 326.705, 972.496 307.361, 970 300.260 C 968.900 297.130, 968 293.386, 968 291.940 C 968 290.494, 967.111 286.653, 966.025 283.405 C 964.446 278.687, 964.044 274.736, 964.025 263.750 C 964.009 255.266, 963.617 250, 963 250 C 962.450 250, 962 249.085, 962 247.967 C 962 245.593, 957.505 236.347, 956.107 235.844 C 955.582 235.655, 952.877 232.372, 950.096 228.549 L 945.040 221.598 947.020 218.242 C 948.109 216.396, 949 214.571, 949 214.186 C 949 213.801, 946.981 213.646, 944.513 213.842 C 940.427 214.167, 939.936 213.961, 939.013 211.535 C 937.714 208.117, 937.706 202.300, 939 201.500 C 940.798 200.389, 940.056 199.215, 936.851 198.098 C 932.911 196.725, 930.676 196.824, 925 198.627" stroke="#b09658" fill="#b09658" fill-opacity="0.2" fill-rule="evenodd"/><path class="svg-region-LPVl" d="M 795.335 145.455 C 793.594 146.213, 788.669 147.793, 784.390 148.966 C 779.810 150.223, 773.299 153.089, 768.556 155.935 C 764.125 158.594, 758.047 162, 755.050 163.503 C 738.195 171.956, 719.103 188.864, 712.712 201 C 705.843 214.042, 705.056 215.598, 702.550 221.096 C 699.940 226.824, 699.336 230, 700.856 230 C 701.327 230, 703.690 228.508, 706.106 226.684 C 708.523 224.860, 713.200 221.622, 716.500 219.489 C 719.800 217.355, 724.164 214.235, 726.197 212.555 C 728.231 210.875, 731.268 208.453, 732.947 207.174 C 734.626 205.895, 736 204.182, 736 203.369 C 736 202.533, 738.502 200.771, 741.750 199.317 C 751.877 194.786, 777.115 186.445, 789.834 183.427 L 802.168 180.500 801.539 176.543 C 801.193 174.367, 799.540 170.192, 797.865 167.264 C 795.144 162.508, 794.895 161.396, 795.527 156.803 C 795.916 153.976, 797.080 150.277, 798.113 148.582 C 801.134 143.627, 800.689 143.126, 795.335 145.455 M 816 207.945 C 813.144 208.829, 793.450 220.612, 781.350 228.677 C 774.420 233.295, 772.885 234.840, 771.100 238.990 C 769.945 241.674, 769 244.584, 769 245.455 C 769 246.785, 756.428 266.180, 752.442 271 C 751.759 271.825, 749.521 275.650, 747.468 279.500 C 743.745 286.482, 731.315 306.051, 730 307 C 727.891 308.522, 719.301 322.281, 715.476 330.262 L 711.048 339.500 717.115 339.800 C 724.010 340.141, 730.850 338.216, 738.255 333.849 C 740.913 332.282, 743.524 331, 744.058 331 C 744.591 331, 745.809 330.562, 746.764 330.026 C 747.719 329.490, 751.875 327.958, 756 326.621 C 763.181 324.293, 766.469 323.900, 791.750 322.344 L 802 321.713 802.018 312.106 C 802.046 296.879, 803.591 286.534, 808.081 271.500 C 810.781 262.459, 812.529 254.312, 813.016 248.500 C 813.549 242.128, 814.587 237.602, 816.570 233 C 818.821 227.777, 819.456 224.585, 819.802 216.750 C 820.039 211.387, 819.843 207.039, 819.366 207.086 C 818.890 207.133, 817.375 207.520, 816 207.945" stroke="#494949" fill="#494949" fill-opacity="0.2" fill-rule="evenodd"/><path class="svg-region-LPVr" d="M 964 149.776 C 964 150.889, 965.587 152.289, 968.250 153.526 C 971.647 155.104, 972.675 156.207, 973.371 159.024 C 974.126 162.079, 973.827 163.203, 971.121 167.470 C 969.405 170.177, 968 172.823, 968 173.351 C 968 173.879, 966.875 175.786, 965.500 177.589 C 962.643 181.334, 962.376 183.664, 964.461 186.641 C 965.949 188.765, 967.774 189.227, 981.523 190.965 C 986.670 191.615, 990.276 192.833, 995.023 195.526 C 1005.749 201.609, 1021.013 208.695, 1029.500 211.530 C 1040.159 215.090, 1047.816 220.680, 1063.277 236.186 C 1070.304 243.233, 1076.225 249, 1076.433 249 C 1077.079 249, 1075.737 244.607, 1074.447 242.500 C 1073.774 241.400, 1072.668 238.700, 1071.991 236.500 C 1071.313 234.300, 1070.363 232.072, 1069.879 231.550 C 1069.396 231.027, 1069 229.624, 1069 228.430 C 1069 227.237, 1067.200 222.823, 1065 218.621 C 1062.800 214.420, 1061 209.784, 1061 208.319 C 1061 203.488, 1051.405 185.999, 1043.536 176.487 C 1036.828 168.379, 1035.387 167.185, 1028.801 164.279 C 1024.785 162.508, 1020.735 161.046, 1019.801 161.029 C 1018.866 161.013, 1016.823 159.632, 1015.260 157.960 C 1013.320 155.883, 1010.529 154.429, 1006.459 153.373 C 1003.182 152.522, 999.757 151.161, 998.849 150.348 C 997.473 149.116, 994.794 148.987, 982.744 149.573 C 972.340 150.078, 968.091 149.957, 967.585 149.138 C 966.487 147.360, 964 147.803, 964 149.776 M 949 214.040 C 949 214.613, 948.055 216.359, 946.901 217.921 C 945.094 220.364, 944.977 221.088, 946.059 223.109 C 946.750 224.402, 947.960 226.102, 948.746 226.889 C 949.533 227.676, 951.267 230.048, 952.601 232.160 C 953.934 234.272, 955.398 236, 955.854 236 C 957.088 236, 962 245.452, 962 247.826 C 962 248.957, 962.450 250.160, 963 250.500 C 963.585 250.862, 964.014 256.797, 964.033 264.809 C 964.059 275.723, 964.458 279.616, 966 284 C 967.064 287.025, 967.949 290.752, 967.967 292.282 C 967.985 293.811, 968.937 297.845, 970.083 301.246 C 971.800 306.343, 972.107 309.322, 971.833 318.215 L 971.500 329.002 976.400 329.001 C 983.027 329, 996.178 331.667, 1003.500 334.499 C 1006.800 335.775, 1014 337.793, 1019.500 338.984 C 1025 340.175, 1032.425 341.787, 1036 342.567 C 1039.575 343.346, 1043.752 344.498, 1045.282 345.126 C 1046.812 345.755, 1048.224 346.096, 1048.419 345.885 C 1048.895 345.369, 1047.098 339.389, 1038.991 314.500 C 1026.198 275.226, 1025.439 273.381, 1018.641 265.048 C 1015.263 260.908, 1011.825 256.806, 1011 255.933 C 1010.175 255.059, 1006.575 250.721, 1003 246.292 C 999.425 241.863, 995.150 237.529, 993.500 236.661 C 989.305 234.455, 977.649 227.984, 963.284 219.886 C 950.971 212.945, 949 212.139, 949 214.040" stroke="#494949" fill="#494949" fill-opacity="0.2" fill-rule="evenodd"/><path class="svg-region-VV" d="M 895.500 129.129 C 891.650 130.264, 887.408 131.442, 886.073 131.747 C 884.738 132.052, 882.041 133.390, 880.080 134.721 C 876.324 137.269, 875.405 137.251, 868 134.480 C 862.357 132.369, 845.369 131.457, 838 132.870 C 829.669 134.468, 820.957 136.707, 816.500 138.396 C 814.300 139.230, 811.725 139.932, 810.777 139.956 C 809.829 139.980, 807.115 140.942, 804.745 142.093 C 799.556 144.614, 796.527 149.423, 795.532 156.721 C 794.895 161.394, 795.136 162.497, 797.828 167.221 C 799.482 170.125, 801.147 174.188, 801.529 176.250 C 802.354 180.712, 802.276 180.703, 815.444 177.911 C 824.334 176.026, 826.388 175.928, 836.452 176.911 C 850.590 178.291, 878.666 178.350, 879.500 177 C 879.840 176.450, 883.892 176, 888.505 176 C 893.117 176, 902.428 175.574, 909.196 175.053 C 915.963 174.532, 929.979 173.901, 940.343 173.652 L 959.187 173.198 960.884 176.989 C 962.967 181.642, 964.476 180.895, 967.916 173.505 C 969.195 170.757, 971.087 167.434, 972.121 166.120 C 975.998 161.190, 973.071 154.060, 966.492 152.409 C 963.635 151.692, 963.684 152.203, 965.592 143 C 966.086 140.614, 965.570 140.306, 954.305 136.259 C 930.611 127.746, 909.056 125.132, 895.500 129.129" stroke="#7699d1" fill="#7699d1" fill-opacity="0.2" fill-rule="evenodd"/><path class="svg-region-B" d="M 883.417 608.492 C 880.003 611.906, 871.586 614.611, 868.688 613.226 C 854.557 606.472, 851.868 606.240, 843.699 611.070 C 840.508 612.957, 837.021 614.944, 835.949 615.487 C 834.424 616.259, 834 617.521, 834 621.283 C 834 627.566, 830.903 633.314, 823.566 640.651 C 813.073 651.144, 807 662.787, 807 672.411 C 807 677.210, 806.616 678.409, 804.478 680.286 C 803.092 681.504, 799.891 684.443, 797.366 686.817 C 793.547 690.408, 792.206 691.085, 789.389 690.842 C 786.326 690.578, 785.609 691.072, 781.877 696.025 C 777.351 702.031, 774.829 707.114, 772.962 714 C 772.290 716.475, 771.022 720.075, 770.143 722 C 767.194 728.458, 768.866 744.775, 773.474 754.500 C 777.786 763.602, 787.248 771.886, 797.639 775.658 C 802.746 777.512, 806.121 778, 813.824 778 C 822.884 778, 824.060 777.759, 830.841 774.509 C 840.140 770.053, 851.509 761.448, 856 755.467 C 857.925 752.904, 861.121 748.938, 863.103 746.653 C 870.243 738.424, 873.868 732.968, 875.973 727.284 C 877.152 724.103, 878.990 720.823, 880.059 719.995 C 881.378 718.973, 882.491 715.938, 883.522 710.551 C 884.993 702.862, 887.003 699, 889.534 699 C 891.104 699, 892.529 702.837, 893.990 711 C 895.137 717.406, 900.650 733.444, 903.859 739.712 C 906.172 744.227, 916.438 755.706, 923.190 761.324 C 932.410 768.997, 938.369 770.855, 959.500 772.646 C 969.767 773.516, 979.666 769.804, 991 760.832 C 998.426 754.954, 999.109 753.978, 1004.174 742 C 1006.219 737.164, 1006.487 734.990, 1006.390 724 C 1006.300 713.844, 1005.842 710.141, 1003.943 704.250 C 1002.658 700.263, 1001.245 697, 1000.803 697 C 1000.361 697, 1000 699.007, 1000 701.460 L 1000 705.921 996.112 702.110 C 993.877 699.919, 991.911 696.855, 991.487 694.900 C 991.081 693.030, 989.343 689.893, 987.625 687.930 C 985.906 685.966, 982.722 682.271, 980.549 679.718 C 978.377 677.165, 975.227 674.513, 973.549 673.823 C 967.876 671.492, 961.859 666.775, 960.546 663.629 C 958.447 658.599, 957 653.524, 957 651.186 C 957 648.869, 947.720 638.784, 942.500 635.429 C 938.013 632.544, 936 630.685, 936 629.426 C 936 628.805, 934.763 626.964, 933.250 625.335 C 931.737 623.705, 929.340 621.029, 927.921 619.387 C 925.316 616.371, 924.424 616.074, 908.594 612.952 C 905.139 612.270, 901.031 610.586, 898.694 608.893 C 893.370 605.036, 887.039 604.870, 883.417 608.492" stroke="#e23b33" fill="#e23b33" fill-opacity="0.2" fill-rule="evenodd"/><path class="svg-region-Ol" d="M 483.955 255.584 C 469.412 256.710, 466.767 257.414, 461.908 261.451 C 460.483 262.635, 456.658 264.198, 453.408 264.924 C 443.488 267.138, 437.337 269.596, 427.140 275.420 C 421.767 278.489, 416.974 281, 416.489 281 C 416.004 281, 414.008 282.050, 412.054 283.334 C 400.203 291.118, 397.292 292.887, 395.474 293.410 C 389.745 295.058, 370.721 306.781, 368.193 310.222 C 367.475 311.200, 366.113 312, 365.167 312 C 362.686 312, 339.086 329.961, 335.296 334.734 C 333.534 336.953, 330.875 341.408, 329.388 344.634 C 327.901 347.860, 325.670 352.525, 324.430 355 C 323.191 357.475, 319.851 366.700, 317.009 375.500 C 314.168 384.300, 310.320 396.225, 308.459 402 C 304.532 414.183, 301.597 421.728, 296.983 431.500 C 295.166 435.350, 293.123 439.850, 292.444 441.500 C 291.766 443.150, 290.745 445.625, 290.175 447 C 288.429 451.219, 285.901 464.579, 286.537 466.235 C 286.866 467.094, 286.698 468.068, 286.163 468.399 C 285.042 469.092, 285.827 480.940, 287.100 482.563 C 287.559 483.148, 287.698 485.173, 287.410 487.063 C 286.625 492.198, 290.438 509.456, 293.959 516.702 C 295.081 519.013, 296 521.426, 296 522.066 C 296 522.705, 296.855 524.864, 297.901 526.864 C 298.946 528.864, 300.574 532.300, 301.519 534.500 C 305.787 544.436, 319.265 566.202, 327.527 576.500 C 329.292 578.700, 331.226 581.447, 331.825 582.605 C 332.858 584.600, 336.045 588.772, 353.518 611 C 365.855 626.695, 378.349 644.156, 381.422 650 C 383.013 653.025, 385.067 656.625, 385.986 658 C 388 661.014, 394.760 675.124, 396.527 680 C 397.692 683.215, 398.984 686.132, 406.271 702 C 407.660 705.025, 409.508 709.075, 410.378 711 C 411.248 712.925, 412.346 715.175, 412.818 716 C 413.781 717.682, 414.287 718.652, 422.987 735.500 C 438.580 765.696, 453.150 789.429, 467.680 808.298 C 480.222 824.586, 481.582 825.560, 500.764 831.987 C 507.219 834.150, 516.550 837.322, 521.500 839.035 C 529.799 841.907, 531.552 842.154, 544 842.200 C 573.005 842.306, 601.206 831.264, 623.558 811.047 C 627.539 807.446, 634.289 801.575, 638.558 798 C 661.190 779.048, 661.824 778.401, 674.973 760.818 C 677.983 756.793, 686.825 746.975, 694.622 739 C 702.418 731.025, 710.012 723.198, 711.496 721.607 C 715.353 717.473, 720.496 707.643, 723.063 699.500 C 724.277 695.650, 725.600 692.050, 726.004 691.500 C 726.799 690.417, 727.907 683.196, 728.382 676 C 728.545 673.525, 729.457 668.423, 730.408 664.662 C 731.359 660.901, 732.164 656.851, 732.195 655.662 C 732.227 654.473, 733.096 648.275, 734.127 641.889 C 736.460 627.426, 736.455 623.158, 734.090 610 C 730.847 591.951, 729.332 589.212, 714.303 574.220 C 708.086 568.018, 705.007 564.203, 705.020 562.720 C 705.030 561.499, 705.729 556.900, 706.572 552.500 C 707.415 548.100, 708.454 540, 708.881 534.500 C 709.531 526.116, 709.344 523.288, 707.725 517 C 706.663 512.875, 705.457 507.842, 705.044 505.815 C 704.269 502.017, 699.103 493.160, 696.308 490.841 C 695.439 490.119, 693.881 487.722, 692.848 485.514 C 691.815 483.306, 690.037 480.041, 688.898 478.258 C 687.758 476.476, 686.709 473.950, 686.566 472.646 C 686.223 469.530, 681.256 463.261, 677.594 461.324 C 674.311 459.588, 673.551 458.995, 667.887 453.750 C 665.659 451.688, 663.458 450, 662.995 450 C 661.058 450, 655.812 444.477, 654.026 440.557 C 650.445 432.696, 645.880 409.636, 643.523 387.500 C 642.548 378.337, 640.808 369.181, 638.490 361 C 636.541 354.125, 634.065 344.298, 632.988 339.163 C 631.228 330.767, 628.484 321.996, 624.961 313.500 C 621.472 305.087, 619.823 302.178, 616.575 298.709 C 614.623 296.623, 612.548 294.024, 611.964 292.932 C 609.998 289.260, 602.553 281.870, 595.325 276.415 C 591.378 273.437, 587.855 271, 587.496 271 C 587.137 271, 583.616 269.463, 579.672 267.585 C 570.040 262.998, 555.533 258, 551.855 258 C 550.212 258, 547.922 257.494, 546.766 256.875 C 542.790 254.747, 504.839 253.967, 483.955 255.584 M 524.667 534.667 C 524.300 535.033, 524 535.798, 524 536.367 C 524 536.993, 524.466 536.934, 525.183 536.217 C 525.834 535.566, 526.134 534.801, 525.850 534.517 C 525.566 534.232, 525.033 534.300, 524.667 534.667" stroke="#aa444d" fill="#aa444d" fill-opacity="0.2" fill-rule="evenodd"/><path class="svg-region-Or" d="M 1284.798 252.080 C 1281.663 252.540, 1276.713 253.609, 1273.798 254.455 C 1270.884 255.302, 1264.225 256.633, 1259 257.413 C 1248.884 258.923, 1237.061 261.777, 1230.500 264.293 C 1228.300 265.137, 1224.382 266.080, 1221.793 266.388 C 1213.517 267.376, 1195.022 274.083, 1191 277.555 C 1186.778 281.200, 1177.685 287.596, 1174.062 289.469 C 1170.342 291.392, 1160 301.242, 1160 302.862 C 1160 303.408, 1158.806 304.794, 1157.347 305.941 C 1155.888 307.089, 1154.989 308.323, 1155.350 308.683 C 1155.710 309.043, 1155.402 310.049, 1154.665 310.919 C 1153.129 312.732, 1149 325.573, 1149 328.535 C 1149 329.624, 1146.604 337.936, 1143.676 347.007 C 1140.646 356.393, 1137.387 369.102, 1136.114 376.500 C 1130.182 410.977, 1127.653 422.869, 1124.776 429.830 C 1122.066 436.387, 1115.701 445.886, 1104.321 460.359 C 1102.219 463.032, 1099.583 466.717, 1098.463 468.548 C 1097.342 470.379, 1095.259 472.795, 1093.833 473.917 C 1092.408 475.038, 1090.284 477.878, 1089.114 480.228 C 1086.414 485.651, 1084.058 489.709, 1081.406 493.504 C 1080.254 495.152, 1078.474 498.975, 1077.450 502 C 1076.425 505.025, 1075.118 508.132, 1074.544 508.904 C 1073.970 509.676, 1073.645 511.165, 1073.823 512.213 C 1074.001 513.262, 1073.664 514.700, 1073.075 515.410 C 1072.485 516.120, 1071.574 521.962, 1071.050 528.393 C 1070.117 539.841, 1070.490 546.137, 1073.072 562.500 C 1074.013 568.466, 1074.200 579.738, 1073.553 591.500 C 1073.462 593.150, 1072.851 595.767, 1072.194 597.315 C 1071.537 598.863, 1071 600.721, 1071 601.443 C 1071 602.165, 1070.278 603.354, 1069.396 604.086 C 1067.478 605.678, 1066.643 607.762, 1063.881 617.843 C 1061.472 626.635, 1060.165 632.794, 1059.495 638.500 C 1059.237 640.700, 1058.599 644.750, 1058.078 647.500 C 1055.388 661.688, 1056.548 679.162, 1061.140 693.608 C 1063.867 702.185, 1071.108 713.437, 1083.273 728 C 1094.159 741.032, 1102.502 748.654, 1106.911 749.596 C 1111.216 750.517, 1121.338 754.264, 1124 755.922 C 1127.329 757.997, 1135.371 764.056, 1136 764.964 C 1136.275 765.361, 1138.750 767.386, 1141.500 769.464 C 1144.250 771.542, 1146.725 773.527, 1147 773.875 C 1147.275 774.223, 1150.650 776.864, 1154.500 779.744 C 1158.350 782.624, 1161.952 785.322, 1162.504 785.740 C 1171.928 792.872, 1175.141 795.110, 1178.500 796.879 C 1180.700 798.037, 1184.750 800.354, 1187.500 802.027 C 1197.482 808.098, 1214.780 815.399, 1221.500 816.376 C 1223.700 816.696, 1227.525 817.398, 1230 817.936 C 1238.358 819.751, 1247.950 819.197, 1256.528 816.404 C 1260.912 814.977, 1265.353 812.901, 1266.395 811.791 C 1268.340 809.719, 1275.531 806.061, 1277.735 806.022 C 1279.311 805.994, 1288.343 800.514, 1293.349 796.549 C 1295.466 794.872, 1301.766 788.938, 1307.349 783.363 C 1322.133 768.598, 1331.137 757.526, 1365.375 712 C 1377.991 695.225, 1388.917 681.140, 1389.656 680.700 C 1390.395 680.260, 1391 679.266, 1391 678.489 C 1391 677.713, 1391.816 676.273, 1392.814 675.289 C 1395.587 672.554, 1406.435 658.881, 1408.514 655.500 C 1409.529 653.850, 1411.291 651.481, 1412.430 650.235 C 1417.797 644.362, 1437 620.325, 1437 619.480 C 1437 619.177, 1439.846 615.008, 1443.325 610.215 C 1446.803 605.422, 1450.516 600.080, 1451.575 598.344 C 1454.184 594.066, 1465.270 578.210, 1468.245 574.500 C 1469.568 572.850, 1474.156 564.525, 1478.440 556 C 1482.724 547.475, 1487.223 539.150, 1488.439 537.500 C 1494.125 529.783, 1498.893 517.830, 1501.424 504.942 C 1504.776 487.873, 1503.640 423.397, 1499.919 419.550 C 1499.413 419.028, 1499 417.637, 1499 416.460 C 1499 414.144, 1493.163 401.713, 1491.820 401.167 C 1491.369 400.983, 1491 400.266, 1491 399.573 C 1491 397.469, 1481.395 384.489, 1478.372 382.508 C 1476.815 381.488, 1471.772 376.794, 1467.167 372.076 C 1458.996 363.707, 1456.822 361.173, 1440.082 340.500 C 1431.162 329.483, 1429.191 327.332, 1419.862 318.429 C 1416.363 315.090, 1407.425 306.078, 1400 298.402 C 1392.575 290.727, 1383.350 282.224, 1379.500 279.507 C 1375.650 276.790, 1370.592 272.694, 1368.260 270.404 C 1364.486 266.697, 1360.150 264.034, 1347.911 257.906 C 1345.937 256.918, 1341.212 255.605, 1337.411 254.989 C 1333.610 254.373, 1327.919 253.224, 1324.765 252.435 C 1318.441 250.853, 1294.610 250.641, 1284.798 252.080" stroke="#aa444d" fill="#aa444d" fill-opacity="0.2" fill-rule="evenodd"/><path class="svg-region-LBPCr" d="M 984.480 408.765 C 982.609 410.112, 980.983 415.084, 981.604 417.557 C 982.306 420.354, 985.090 420.802, 987.055 418.434 C 987.770 417.573, 989.625 416.211, 991.177 415.408 C 994.823 413.523, 994.736 412.419, 990.750 409.989 C 987.245 407.852, 986.067 407.622, 984.480 408.765" stroke="#daffff" fill="#daffff" fill-opacity="0.2" fill-rule="evenodd"/><path class="svg-region-BPCl" d="M 803.397 577.267 C 797.756 583.257, 796.764 589.245, 800.001 597.761 C 801.100 600.654, 801.989 604.929, 801.975 607.261 C 801.937 613.836, 796.893 627.586, 792.670 632.629 C 791.347 634.208, 788.153 639.752, 785.571 644.949 C 782.989 650.146, 778.977 657.121, 776.657 660.449 C 771.235 668.225, 768.152 674.781, 765.847 683.432 C 762.677 695.330, 763.522 724.856, 767.136 728.469 C 767.702 729.035, 771.041 720.889, 773.066 714 C 775.322 706.326, 777.584 701.708, 781.872 696.025 C 785.641 691.030, 786.307 690.577, 789.473 690.849 C 792.441 691.105, 793.617 690.485, 797.584 686.574 C 800.136 684.058, 802.686 682, 803.252 682 C 805.459 682, 806.938 678.269, 806.968 672.625 C 807.022 662.741, 813.007 651.210, 823.566 640.651 C 836.536 627.682, 837.463 616.921, 826.712 604.156 C 825.163 602.317, 824.069 600.292, 824.279 599.656 C 824.490 599.020, 826.426 598.247, 828.581 597.939 C 833.386 597.251, 838.544 594.631, 839.379 592.455 C 839.720 591.565, 840 589.346, 840 587.525 C 840 583.740, 838.817 583.007, 832.668 582.985 C 828.423 582.971, 824.319 581.795, 813.329 577.443 C 805.866 574.488, 806.012 574.491, 803.397 577.267" stroke="#83385f" fill="#83385f" fill-opacity="0.2" fill-rule="evenodd"/><path class="svg-region-BPCr" d="M 955.500 579.647 C 954.400 579.898, 952.600 580.489, 951.500 580.960 C 942.674 584.741, 937.238 585.797, 933.262 584.502 C 927.655 582.675, 930.963 591.378, 937.079 594.541 C 939.480 595.783, 940 596.687, 940 599.625 C 940 606.233, 934.798 613, 929.718 613 C 928.908 613, 927.712 613.643, 927.060 614.428 C 925.508 616.297, 927.513 620.235, 932.415 624.946 C 934.387 626.842, 936 628.912, 936 629.547 C 936 630.181, 937.462 631.781, 939.250 633.100 C 941.038 634.420, 945.717 638.569, 949.649 642.321 C 955.221 647.638, 956.937 649.953, 957.428 652.821 C 957.775 654.844, 958.326 658.018, 958.653 659.874 C 959.411 664.176, 964.875 669.653, 972.023 673.277 C 978.472 676.547, 989.600 688.968, 991.168 694.647 C 991.713 696.620, 993.923 699.964, 996.079 702.078 L 1000 705.921 1000 701.507 C 1000 699.080, 1000.477 696.048, 1001.060 694.769 C 1002.424 691.774, 1002.314 691.526, 990.750 671.628 C 988.688 668.079, 987 664.667, 987 664.046 C 987 663.425, 986.044 661.923, 984.874 660.708 C 981.859 657.576, 970.002 633.019, 970.001 629.905 C 970 628.478, 969.100 626.495, 968 625.500 C 966.900 624.505, 966 622.920, 966 621.980 C 966 621.039, 965.099 619.124, 963.997 617.724 C 961.855 615, 961.840 615.114, 965.618 605.329 C 968.880 596.881, 968.715 589.938, 965.113 584 C 962.360 579.463, 960.332 578.544, 955.500 579.647" stroke="#83385f" fill="#83385f" fill-opacity="0.2" fill-rule="evenodd"/><path class="svg-region-ODMl" d="M 719.615 376.465 C 717.041 380.393, 717.534 386.125, 720.750 389.676 C 722.263 391.346, 724.513 393.243, 725.750 393.891 C 728.640 395.406, 728.585 397.534, 725.526 402.500 C 720.590 410.514, 723.800 414.363, 729.500 407.264 C 732.455 403.585, 738 393.535, 738 391.859 C 738 391.387, 737.100 391, 736 391 C 734.894 391, 734 390.333, 734 389.508 C 734 388.688, 733.100 387.455, 732 386.768 C 730.475 385.816, 730 384.436, 730 380.959 C 730 375.575, 728.736 374, 724.415 374 C 722.133 374, 720.772 374.699, 719.615 376.465" stroke="#999999" fill="#999999" fill-opacity="0.2" fill-rule="evenodd"/>
    </svg>