<svg xmlns="http://www.w3.org/2000/svg" width="1785" height="1131" viewBox="0 0 1785 1131" version="1.1">
    <path class="svg-region-AP" d="M 880 460.472 C 876.975 461.202, 871.891 462.519, 868.701 463.399 C 864.579 464.537, 858.579 465, 847.951 465 L 833 465 833 474.691 C 833 484.442, 832.130 495.861, 829.451 521.261 C 827.507 539.696, 827.602 541.610, 830.780 548 C 834.325 555.130, 842.166 566.868, 845.436 569.940 C 846.846 571.265, 848 572.719, 848 573.172 C 848 574.604, 854.751 583.357, 858.702 587.048 C 860.791 588.999, 863.115 591.924, 863.867 593.548 C 864.618 595.172, 865.631 597.281, 866.117 598.236 C 866.603 599.191, 867 602.004, 867 604.486 C 867 608.939, 867.045 609, 870.346 609 C 872.187 609, 875.125 608.286, 876.875 607.413 C 879.150 606.278, 881.687 605.974, 885.778 606.348 C 893.004 607.009, 903.810 608.659, 906.748 609.550 C 908.805 610.174, 908.946 609.978, 908.401 607.255 C 907.526 602.879, 910.232 598.554, 916.265 594.686 C 919.144 592.840, 923.505 589.456, 925.956 587.165 C 928.406 584.874, 930.656 582.984, 930.956 582.964 C 931.255 582.944, 933.862 580.760, 936.750 578.110 L 942 573.293 942 565.772 C 942 561.636, 942.675 556.338, 943.500 554 C 944.325 551.662, 945 548.762, 945 547.556 C 945 543.007, 948.115 534.783, 950.027 534.283 C 951.386 533.927, 952.099 532.501, 952.593 529.145 C 952.970 526.590, 953.571 524.275, 953.929 524 C 955.585 522.729, 957.093 514.289, 958.040 501 C 958.608 493.025, 959.396 482.563, 959.792 477.750 L 960.511 469 950.505 468.968 C 945.002 468.951, 935.775 468.257, 930 467.427 C 924.225 466.597, 915.675 465.433, 911 464.840 C 906.325 464.248, 900.817 462.959, 898.759 461.976 C 893.532 459.481, 886.465 458.914, 880 460.472" stroke="#fc7143" fill="#fc7143" fill-opacity="0.2" fill-rule="evenodd"/><path class="svg-region-PP" d="M 823.510 327.833 C 825.639 333.072, 826 335.549, 826 344.921 C 826 351.150, 826.432 356.149, 827 356.500 C 827.550 356.840, 828 356.641, 828 356.059 C 828 355.477, 828.450 355, 829 355 C 830.531 355, 830.190 360.301, 828.381 364.628 C 824.875 373.013, 824 379.069, 823.949 395.299 C 823.920 404.209, 823.534 414.650, 823.090 418.500 C 822.470 423.884, 822.616 426.161, 823.726 428.363 C 824.519 429.937, 825.418 433.649, 825.724 436.613 C 826.030 439.576, 826.667 442, 827.140 442 C 827.613 442, 828.006 443.012, 828.013 444.250 C 828.020 445.488, 828.920 449.353, 830.013 452.839 C 831.106 456.326, 832 460.488, 832 462.089 L 832 465 847.302 465 C 861.018 465, 863.879 464.683, 874.905 461.943 C 887.919 458.709, 889.724 458.713, 898.500 462 C 901.250 463.030, 907.100 464.348, 911.500 464.929 C 915.900 465.510, 924.330 466.680, 930.234 467.529 C 936.138 468.378, 945.363 468.944, 950.734 468.786 L 960.500 468.500 960.794 461.250 C 960.955 457.262, 961.518 454, 962.044 454 C 962.603 454, 963 448.603, 963 441 C 963 430.111, 963.244 428, 964.500 428 C 966.930 428, 966.612 414.863, 964.127 412.615 C 962.614 411.246, 962.126 408.856, 961.591 400.210 C 960.672 385.371, 959.471 372.785, 958.802 371 C 957.976 368.795, 955.259 359.212, 953.904 353.724 C 953.256 351.098, 952.329 348.703, 951.844 348.403 C 950.167 347.367, 946 338.057, 946 335.348 C 946 333.852, 946.950 331.617, 948.112 330.381 L 950.224 328.133 946.724 327.476 C 944.799 327.115, 940.136 327.094, 936.362 327.429 C 926.834 328.276, 898.547 330.079, 892.500 330.225 C 889.750 330.291, 885.025 329.598, 882 328.685 C 878.975 327.771, 873.942 327.018, 870.815 327.012 C 867.688 327.005, 863.863 326.502, 862.315 325.894 C 859.709 324.869, 852.114 324.045, 829.760 322.363 L 821.020 321.705 823.510 327.833" stroke="#c4743d" fill="#c4743d" fill-opacity="0.2" fill-rule="evenodd"/><path class="svg-region-LPl" d="M 820.538 430.197 C 820.183 432.014, 819.280 435.075, 818.530 437 C 817.781 438.925, 816.416 442.975, 815.497 446 C 813.641 452.111, 810.632 456, 807.760 456 C 805.624 456, 802.201 457.656, 800.199 459.658 C 798.404 461.453, 796 461.363, 796 459.500 C 796 457.837, 794.905 457.554, 793.450 458.840 C 792.928 459.302, 790.925 460.277, 789 461.007 C 787.075 461.737, 783.700 463.741, 781.500 465.461 C 776.130 469.659, 762.732 475.941, 756.224 477.312 C 752.081 478.185, 751.089 478.754, 751.604 479.962 C 751.965 480.808, 753.976 486.225, 756.074 492 C 758.171 497.775, 760.771 504.750, 761.851 507.500 C 762.931 510.250, 764.256 513.850, 764.796 515.500 C 765.866 518.765, 769.173 528.429, 772.077 536.771 C 773.086 539.669, 774.898 546.067, 776.105 550.987 C 777.312 555.907, 778.696 559.688, 779.181 559.388 C 780.655 558.477, 783.812 550.755, 784.486 546.416 C 784.834 544.170, 785.986 540.908, 787.045 539.166 C 788.866 536.173, 789.300 536, 795.017 536 C 799.215 536, 801.224 536.419, 801.589 537.371 C 801.966 538.355, 803.351 538.602, 806.495 538.248 C 813.210 537.491, 819.477 538.786, 822.456 541.547 C 826.537 545.329, 828 544.776, 828 539.452 C 828 536.951, 828.645 528.963, 829.433 521.702 C 833.746 481.984, 833.903 465.155, 830.073 453 C 828.947 449.425, 828.020 445.514, 828.013 444.309 C 828.006 443.104, 827.550 441.840, 827 441.500 C 826.450 441.160, 825.975 439.446, 825.944 437.691 C 825.872 433.620, 823.846 427.763, 822.341 427.272 C 821.693 427.061, 820.898 428.350, 820.538 430.197" stroke="#d2454f" fill="#d2454f" fill-opacity="0.2" fill-rule="evenodd"/><path class="svg-region-LPr" d="M 963 440.217 C 963 447.027, 962.598 453.027, 962.106 453.550 C 961.615 454.072, 960.971 458.550, 960.676 463.500 C 957.919 509.766, 957.235 516.440, 954.661 522.222 C 953.859 524.025, 952.742 527.462, 952.180 529.859 C 951.315 533.548, 951.453 534.745, 953.079 537.640 C 954.251 539.727, 955 542.982, 955 545.988 C 955 550.697, 955.272 551.183, 961.132 556.972 C 968.071 563.825, 970.522 564.808, 976.089 562.971 L 980 561.680 980 554.860 C 980 546.214, 982.372 539.593, 984.971 540.984 C 985.943 541.505, 987.485 543.409, 988.397 545.215 C 989.309 547.022, 990.942 550.068, 992.027 551.984 C 994.443 556.252, 994.582 562.937, 992.388 569.376 C 990.168 575.889, 991.148 576.114, 993.986 569.742 C 995.270 566.859, 998.769 559.325, 1001.761 553 C 1004.753 546.675, 1008.519 538.125, 1010.129 534 C 1012.999 526.649, 1014.584 523.107, 1020.876 509.984 C 1022.594 506.399, 1024 503.144, 1024 502.749 C 1024 502.355, 1025.311 499.325, 1026.914 496.016 C 1028.517 492.707, 1029.492 490, 1029.081 490 C 1028.669 490, 1026.345 488.158, 1023.916 485.907 C 1021.487 483.656, 1017.475 480.668, 1015 479.266 C 1012.525 477.865, 1008.819 475.655, 1006.765 474.355 C 1004.710 473.055, 999.743 470.685, 995.726 469.090 C 988.931 466.391, 986.795 465.242, 977.428 459.250 C 975.494 458.012, 973.499 457, 972.994 457 C 972.490 457, 971.679 455.313, 971.193 453.250 C 970.706 451.188, 969.522 446.575, 968.562 443 C 967.601 439.425, 966.519 434.737, 966.158 432.581 C 965.796 430.426, 964.938 428.476, 964.250 428.248 C 963.295 427.931, 963 430.755, 963 440.217" stroke="#d2454f" fill="#d2454f" fill-opacity="0.2" fill-rule="evenodd"/><path class="svg-region-ADCl" d="M 802.450 540.750 C 801.500 545.191, 796.183 566.191, 795.045 569.993 C 793.185 576.212, 793.739 581.791, 796.589 585.528 C 799.851 589.805, 802.540 590.726, 805.072 588.435 C 806.132 587.475, 807 586.366, 807 585.971 C 807 585.575, 808.462 583.642, 810.250 581.675 C 815.958 575.395, 824.054 557.667, 825.364 548.582 C 825.844 545.250, 825.540 544.303, 823.332 542.257 C 819.687 538.878, 816.823 538, 809.454 538 C 803.264 538, 803.017 538.097, 802.450 540.750 M 781.113 556.349 C 779.058 560.523, 778.876 561.689, 779.806 564.721 C 781.782 571.158, 790.486 590.938, 791.357 590.969 C 791.828 590.986, 791.879 590.212, 791.471 589.250 C 787.460 579.808, 784.813 568.997, 784.063 559 L 783.500 551.500 781.113 556.349 M 833.841 559.134 C 834.058 561.408, 833.445 566.627, 832.478 570.732 C 830.457 579.315, 830.980 593.126, 833.511 598.022 C 834.330 599.605, 835 601.942, 835 603.215 C 835 604.488, 835.954 607.309, 837.119 609.483 C 838.814 612.646, 839.135 614.569, 838.725 619.097 C 838.235 624.495, 838.311 624.733, 840.356 624.224 C 841.535 623.930, 844.137 622.231, 846.138 620.448 C 848.140 618.665, 852.190 616.495, 855.138 615.624 C 858.087 614.754, 861.962 613.139, 863.750 612.036 C 866.720 610.202, 867 609.596, 867 605.001 C 867 602.236, 866.603 599.191, 866.117 598.236 C 865.631 597.281, 864.618 595.164, 863.867 593.531 C 863.115 591.898, 860.290 588.298, 857.589 585.531 C 854.888 582.764, 851.180 578.167, 849.350 575.316 C 847.520 572.465, 845.555 569.843, 844.982 569.489 C 844.409 569.135, 841.888 565.730, 839.380 561.923 C 836.872 558.115, 834.511 555, 834.133 555 C 833.756 555, 833.625 556.860, 833.841 559.134" stroke="#54413e" fill="#54413e" fill-opacity="0.2" fill-rule="evenodd"/><path class="svg-region-ADCr" d="M 956.055 558.750 C 956.857 565.462, 960.991 575.825, 965.109 581.447 C 967.902 585.260, 968 585.786, 968 596.928 L 968 608.462 970.812 605.481 C 974.561 601.505, 978.666 591.266, 977.126 589.726 C 975.610 588.210, 975.707 585.995, 977.372 584.079 C 978.854 582.374, 980.406 562, 979.055 562 C 978.639 562, 976.873 562.497, 975.132 563.104 C 970.459 564.733, 967.373 563.499, 962.272 557.961 C 956.207 551.377, 955.188 551.506, 956.055 558.750 M 935.417 578.937 C 920.574 592.031, 916.843 594.990, 914.393 595.611 C 912.047 596.206, 908 602.658, 908 605.804 C 908 608.656, 909.024 611, 910.269 611 C 911.737 611, 920.877 616.791, 924.500 620.016 C 928.227 623.334, 936.773 629, 938.050 629 C 938.573 629, 939 626.271, 939 622.936 C 939 619.601, 940.125 611.443, 941.500 604.806 C 944.284 591.366, 944.522 585.817, 942.623 578.608 L 941.334 573.717 935.417 578.937" stroke="#54413e" fill="#54413e" fill-opacity="0.2" fill-rule="evenodd"/><path class="svg-region-DMl" d="M 810.802 316.531 C 810.510 316.824, 806.722 317.301, 802.385 317.592 C 798.048 317.882, 793.825 318.393, 793 318.726 C 788.747 320.445, 774.276 323.189, 765 324.036 C 753.623 325.075, 743.369 327.241, 738.911 329.546 C 737.365 330.346, 733.960 331, 731.346 331 C 728.731 331, 721.734 331.540, 715.796 332.200 C 705.378 333.359, 705 333.486, 705 335.817 C 705 339.158, 710.655 363.193, 713.160 370.500 C 714.390 374.087, 715.151 378.656, 715.053 381.860 C 714.951 385.172, 715.415 387.846, 716.266 388.860 C 717.024 389.762, 718.143 392.300, 718.753 394.500 C 719.362 396.700, 720.547 400.975, 721.387 404 C 722.226 407.025, 723.699 412.988, 724.660 417.250 C 725.621 421.512, 726.775 425, 727.225 425 C 727.675 425, 730.846 422.814, 734.271 420.143 C 737.697 417.472, 743.585 413.145, 747.356 410.529 L 754.211 405.772 776.252 405.636 L 798.292 405.500 800.118 400 C 801.122 396.975, 801.956 393.725, 801.972 392.777 C 801.987 391.830, 803.051 388.680, 804.336 385.777 C 805.621 382.875, 807.735 377.125, 809.033 373 C 810.332 368.875, 811.977 364.573, 812.688 363.439 C 814.293 360.883, 821.046 357, 823.886 357 C 825.916 357, 826 356.540, 826 345.480 C 826 335.629, 825.652 333.105, 823.601 328.056 C 820.423 320.236, 813.411 313.922, 810.802 316.531" stroke="#68533d" fill="#68533d" fill-opacity="0.2" fill-rule="evenodd"/><path class="svg-region-DMr" d="M 949.861 325.967 C 948.318 327.252, 947.993 327.945, 948.924 327.967 C 949.950 327.991, 949.741 328.647, 948.174 330.314 C 946.978 331.587, 946 333.780, 946 335.187 C 946 338.220, 949.392 346.250, 951.364 347.887 C 952.127 348.520, 953.279 351.167, 953.925 353.769 C 958.019 370.265, 959.568 374.482, 961.955 375.629 C 962.952 376.108, 966.765 379.200, 970.428 382.500 C 977.179 388.583, 983 397.202, 983 401.117 C 983 403.901, 988.970 409.505, 993.545 411.015 C 995.719 411.732, 997.474 413.118, 998.016 414.543 C 998.878 416.809, 999.373 416.907, 1012.204 417.362 C 1019.517 417.621, 1031.286 418.337, 1038.358 418.953 L 1051.215 420.073 1054.680 417.431 C 1056.585 415.977, 1058.286 414.274, 1058.459 413.644 C 1058.632 413.015, 1059.540 410.025, 1060.476 407 C 1063.254 398.022, 1065.728 388.763, 1066.460 384.603 C 1066.837 382.460, 1069.138 376.674, 1071.573 371.745 C 1074.008 366.815, 1076 361.626, 1076 360.212 C 1076 358.799, 1076.536 356.159, 1077.192 354.346 C 1078.774 349.971, 1077.683 349.178, 1073.316 351.529 C 1067.465 354.680, 1046.558 353.558, 1042.897 349.897 C 1041.853 348.853, 1040.093 348, 1038.985 348 C 1037.217 348, 1026.339 342.574, 1025 341.024 C 1024.725 340.705, 1022.587 339.601, 1020.250 338.571 C 1017.913 337.540, 1016 336.397, 1016 336.032 C 1016 335.667, 1014.251 334.385, 1012.114 333.184 C 1009.085 331.482, 1006.584 331, 1000.779 331 C 996.206 331, 991.046 330.267, 987.415 329.101 C 974.022 324.802, 969.900 324, 961.207 324 C 953.739 324, 951.823 324.332, 949.861 325.967" stroke="#68533d" fill="#68533d" fill-opacity="0.2" fill-rule="evenodd"/><path class="svg-region-VMl" d="M 748.163 410 C 738.834 416.283, 730.758 422.381, 729.062 424.425 C 727.842 425.895, 727.825 426.857, 728.945 430.827 C 729.669 433.397, 730.593 437.300, 730.997 439.500 C 731.768 443.697, 732.960 447.156, 733.927 448 C 734.242 448.275, 735.494 450.525, 736.709 453 C 737.924 455.475, 739.556 458.625, 740.335 460 C 741.115 461.375, 743.496 465.983, 745.626 470.239 C 749.888 478.753, 750.504 479.072, 758.500 476.904 C 764.100 475.386, 776.816 469.186, 781.027 465.921 C 782.967 464.416, 787.168 461.948, 790.363 460.435 C 795.681 457.917, 796.120 457.465, 795.545 455.092 C 795.199 453.666, 794.401 448.519, 793.771 443.653 C 792.554 434.252, 793.203 427.686, 796.722 413.794 C 797.656 410.105, 798.213 406.887, 797.960 406.641 C 797.707 406.396, 787.903 406.039, 776.172 405.848 L 754.845 405.500 748.163 410" stroke="#e59376" fill="#e59376" fill-opacity="0.2" fill-rule="evenodd"/><path class="svg-region-VMr" d="M 998 418.712 C 998 419.712, 997.100 422.209, 996 424.261 C 994.900 426.314, 993.997 429.457, 993.994 431.246 C 993.981 438.795, 992.281 441.666, 983.457 449.036 C 978.806 452.921, 975 456.522, 975 457.037 C 975 458.043, 982.364 463, 983.858 463 C 984.351 463, 985.254 463.602, 985.865 464.337 C 986.475 465.072, 990.243 466.943, 994.237 468.494 C 1003.444 472.068, 1017.068 480.114, 1023.358 485.692 C 1026.030 488.061, 1028.569 490, 1029.001 490 C 1029.933 490, 1030.286 489.198, 1034.497 477.500 C 1044.970 448.405, 1049.385 437.115, 1051.510 434 C 1053.875 430.533, 1055.928 423.697, 1055.976 419.135 C 1055.999 416.854, 1055.913 416.827, 1053.548 418.377 C 1051.391 419.790, 1049.557 419.854, 1038.298 418.908 C 1031.259 418.317, 1019.313 417.622, 1011.750 417.364 C 998.955 416.927, 998 417.021, 998 418.712" stroke="#e59376" fill="#e59376" fill-opacity="0.2" fill-rule="evenodd"/><path class="svg-region-PMl" d="M 788.579 182.144 C 778.066 185.073, 759.661 194.863, 740.110 207.926 C 719.644 221.600, 717.136 223, 713.109 223 C 711.464 223, 709.840 223.450, 709.500 224 C 709.160 224.550, 708.081 225, 707.101 225 C 705.222 225, 703 228.792, 703 231.998 C 703 233.046, 702.268 236.512, 701.373 239.701 C 697.809 252.408, 696.705 277.980, 698.811 299 C 699.911 309.973, 703.470 330.334, 704.611 332.180 C 705.040 332.874, 707.607 333.031, 711.887 332.625 C 715.524 332.281, 721.698 331.714, 725.606 331.366 L 732.712 330.733 733.356 320.211 C 733.710 314.424, 734 307.569, 734 304.978 C 734 300.017, 734.322 299.243, 751.262 263.500 L 759.319 246.500 770.909 234.624 L 782.500 222.747 798.665 214.900 C 816.453 206.265, 814.538 206.701, 846.500 203.989 C 863.001 202.589, 873.131 201.136, 874.537 199.969 C 876.432 198.396, 872.345 189.500, 868.315 186.426 C 865.608 184.362, 863.271 183.779, 854.283 182.924 C 848.353 182.361, 841.581 181.472, 839.236 180.950 C 836.890 180.427, 826.090 180.049, 815.236 180.108 C 799.040 180.197, 794.259 180.562, 788.579 182.144" stroke="#90cf92" fill="#90cf92" fill-opacity="0.2" fill-rule="evenodd"/><path class="svg-region-PMr" d="M 923.500 177 C 922.400 177.473, 917.493 177.891, 912.596 177.930 C 905.296 177.987, 902.752 178.445, 898.463 180.474 C 895.587 181.835, 892.956 183.671, 892.617 184.556 C 891.847 186.562, 891.836 193.788, 892.599 196.631 C 893.258 199.086, 896.053 199.613, 915.500 200.950 C 922.100 201.404, 927.545 201.826, 927.601 201.888 C 927.656 201.950, 929.071 204.204, 930.746 206.898 C 934.586 213.076, 943.853 219.389, 952.289 221.575 C 955.695 222.457, 958.936 223.466, 959.491 223.817 C 961.272 224.942, 970.442 227.934, 972.212 227.967 C 978.870 228.094, 993 237.213, 993 241.383 C 993 242.272, 993.395 243, 993.879 243 C 994.362 243, 995.328 244.377, 996.025 246.061 C 996.723 247.744, 998.804 250.274, 1000.650 251.682 C 1002.497 253.091, 1004.568 255.240, 1005.254 256.459 C 1008.302 261.878, 1014.132 269.964, 1016.218 271.668 C 1017.473 272.692, 1020.057 275.773, 1021.960 278.515 C 1023.863 281.257, 1025.761 283.645, 1026.178 283.823 C 1026.595 284, 1027.214 285.800, 1027.553 287.823 C 1028.944 296.130, 1031.628 302.926, 1035.763 308.611 C 1037.007 310.322, 1038.678 313.922, 1039.476 316.611 C 1041.362 322.972, 1044 340.629, 1044 346.901 L 1044 351.815 1049.750 352.491 C 1061.523 353.875, 1069.283 353.545, 1073.706 351.472 C 1078.283 349.326, 1079.232 347.713, 1081.341 338.500 C 1083.113 330.761, 1086.941 318.061, 1088.268 315.522 C 1088.887 314.338, 1089.222 306.706, 1089.104 296.522 C 1088.904 279.466, 1087.740 271.504, 1084.377 264.199 C 1083.542 262.383, 1082.593 259.264, 1082.268 257.267 C 1081.843 254.646, 1080.194 252.150, 1076.340 248.296 C 1073.403 245.359, 1071 242.623, 1071 242.214 C 1071 240.695, 1058.770 227.991, 1052.743 223.251 C 1049.309 220.550, 1043.800 216.831, 1040.500 214.986 C 1037.200 213.141, 1034.275 211.368, 1034 211.046 C 1033.725 210.723, 1032.375 209.900, 1031 209.216 C 1029.625 208.532, 1026.475 206.712, 1024 205.171 C 1017.777 201.298, 993.041 193.614, 978 190.883 C 971.125 189.634, 964.825 188.093, 964 187.458 C 962.340 186.181, 961.409 185.782, 952 182.316 C 936.086 176.452, 928.198 174.981, 923.500 177" stroke="#90cf92" fill="#90cf92" fill-opacity="0.2" fill-rule="evenodd"/><path class="svg-region-PV" d="M 891.080 200.051 C 889.749 200.607, 885.024 200.955, 880.580 200.825 C 876.136 200.695, 867.100 201.352, 860.500 202.286 C 853.900 203.220, 846.419 203.988, 843.875 203.992 C 834.866 204.008, 833.271 204.757, 831.560 209.777 C 830.708 212.280, 829.537 218.191, 828.959 222.913 C 827.293 236.522, 825.970 243.271, 824.335 246.500 C 822.214 250.689, 818.046 264.962, 818.021 268.124 C 818.009 269.568, 817.271 272.718, 816.380 275.124 C 815.171 278.389, 814.727 283.438, 814.630 295.010 L 814.500 310.520 818.203 316.108 L 821.905 321.696 830.703 322.406 C 852.246 324.145, 858.725 324.868, 861.993 325.899 C 863.915 326.504, 867.605 327, 870.194 327 C 875.737 327, 884.970 328.807, 886.752 330.241 C 887.505 330.846, 890.292 330.970, 893.752 330.550 C 899.631 329.836, 924.984 328.169, 939.709 327.528 C 945.088 327.294, 948.698 326.624, 950.181 325.585 C 951.783 324.463, 954.751 324, 960.336 324 L 968.227 324 967.482 313.250 C 966.175 294.369, 966.461 282.875, 968.329 279.300 C 971.206 273.790, 970.595 268.981, 965.559 257.500 C 964.835 255.850, 964.076 253.989, 963.872 253.364 C 963.667 252.739, 959.791 248.330, 955.257 243.565 C 946.267 234.117, 944.899 231.329, 947.390 227.528 C 950.095 223.400, 949.395 221.553, 943.750 217.922 C 940.862 216.065, 937.799 214.244, 936.943 213.876 C 936.087 213.508, 933.641 210.673, 931.508 207.576 C 929.375 204.479, 926.701 201.755, 925.565 201.524 C 924.429 201.292, 918.775 200.844, 913 200.528 C 907.225 200.212, 900.475 199.748, 898 199.497 C 895.525 199.247, 892.411 199.496, 891.080 200.051" stroke="#b09658" fill="#b09658" fill-opacity="0.2" fill-rule="evenodd"/><path class="svg-region-LPVl" d="M 819 139.669 C 817.075 140.339, 813.840 140.913, 811.812 140.944 C 802.585 141.085, 782.192 148.387, 766 157.348 C 762.975 159.022, 757.575 161.820, 754 163.567 C 746.578 167.193, 740.114 172.139, 731.500 180.784 C 721.509 190.809, 720.361 192.252, 716.994 199 C 715.210 202.575, 713.356 205.650, 712.875 205.833 C 712.394 206.017, 712 207.044, 712 208.117 C 712 209.189, 710.939 212.189, 709.643 214.783 C 706.358 221.357, 705.566 225, 707.422 225 C 708.225 225, 709.160 224.550, 709.500 224 C 709.840 223.450, 711.464 223, 713.109 223 C 717.151 223, 719.582 221.646, 741 207.465 C 759.473 195.233, 777.498 185.480, 786 183.116 C 788.475 182.428, 791.882 181.445, 793.571 180.932 C 795.260 180.420, 801.950 180, 808.438 180 L 820.233 180 819.594 177.250 C 819.243 175.738, 818.702 169.775, 818.393 164 C 817.664 150.377, 818.862 146.650, 825.305 142.500 C 827.867 140.850, 829.971 139.186, 829.982 138.803 C 830.010 137.740, 822.942 138.298, 819 139.669 M 822.642 206.166 C 815.749 206.947, 812.681 208.075, 797.642 215.360 L 780.500 223.664 770 234.582 L 759.500 245.500 751.106 263.500 C 746.490 273.400, 740.810 285.325, 738.485 290 L 734.257 298.500 733.525 314.886 L 732.793 331.273 735.147 330.708 C 736.441 330.397, 740.200 329.189, 743.500 328.024 C 746.800 326.859, 754.450 325.428, 760.500 324.843 C 766.550 324.259, 776.450 322.657, 782.500 321.284 C 788.550 319.910, 797.255 318.401, 801.844 317.931 C 806.433 317.460, 811.088 316.789, 812.188 316.440 C 813.584 315.997, 815.061 316.643, 817.083 318.580 C 821.219 322.542, 821.506 321.160, 817.739 315.428 L 814.500 310.500 814.570 295 C 814.615 285.073, 815.067 278.710, 815.827 277.303 C 816.479 276.095, 817.412 272.495, 817.899 269.303 C 819.025 261.929, 821.478 253.059, 823.877 247.687 C 826.223 242.433, 827.710 235.499, 828.421 226.500 C 828.725 222.650, 829.628 216.991, 830.428 213.924 C 831.229 210.858, 832.022 207.764, 832.192 207.049 C 832.620 205.245, 831.601 205.151, 822.642 206.166" stroke="#494949" fill="#494949" fill-opacity="0.2" fill-rule="evenodd"/><path class="svg-region-LPVr" d="M 974.380 150.452 C 974.074 151.251, 974.077 152.316, 974.388 152.818 C 974.699 153.321, 974.049 154.551, 972.944 155.551 C 969.699 158.487, 967.033 163.454, 965.461 169.490 C 964.653 172.592, 962.860 177.156, 961.478 179.632 C 960.096 182.108, 959.160 184.441, 959.400 184.817 C 960.887 187.153, 981.842 193, 988.727 193 C 992.046 193, 1019.065 202.313, 1023.778 205.082 C 1026.042 206.412, 1032.081 209.941, 1037.197 212.923 C 1042.314 215.906, 1048.750 220.147, 1051.500 222.347 C 1057.761 227.355, 1071 241.070, 1071 242.547 C 1071 243.989, 1075.821 248.513, 1076.564 247.769 C 1077.847 246.487, 1070.219 226.871, 1067.874 225.422 C 1067.393 225.125, 1067 223.872, 1067 222.638 C 1067 221.404, 1065.713 218.618, 1064.141 216.447 C 1062.569 214.276, 1060.982 211.251, 1060.616 209.725 C 1059.887 206.692, 1054.999 201.459, 1047.795 196 C 1045.255 194.075, 1041.224 189.430, 1038.838 185.677 C 1031.289 173.805, 1029.753 172.415, 1020.942 169.481 C 1016.558 168.021, 1010.806 165.337, 1008.159 163.516 C 1001.104 158.662, 992.027 154.001, 989.609 153.990 C 988.449 153.985, 985.093 152.860, 982.151 151.490 C 975.937 148.598, 975.133 148.490, 974.380 150.452 M 949 222.956 C 949 224.119, 948.275 226.176, 947.390 227.528 C 944.871 231.371, 946.365 234.476, 955.007 243.364 C 961.348 249.886, 963.548 252.988, 966.093 259 C 970.238 268.791, 970.813 273.872, 968.384 279.252 C 966.267 283.943, 966 295.645, 967.605 313.420 L 968.500 323.341 972.500 324.586 C 990.609 330.226, 994.039 331, 1000.938 331 C 1008.105 331, 1012.565 332.575, 1016.665 336.556 C 1017.305 337.178, 1019.330 338.294, 1021.165 339.037 C 1022.999 339.779, 1024.725 340.664, 1025 341.003 C 1026.110 342.370, 1035.768 347.279, 1039.750 348.501 L 1044 349.804 1043.983 345.152 C 1043.964 340.235, 1041.836 325.887, 1039.882 317.500 C 1039.241 314.750, 1037.512 310.925, 1036.040 309 C 1032.726 304.667, 1029.573 297.188, 1028.104 290.173 C 1027.490 287.242, 1026.428 284.232, 1025.744 283.482 C 1025.060 282.733, 1023.375 280.466, 1022 278.445 C 1020.625 276.425, 1017.813 273.154, 1015.750 271.177 C 1013.688 269.200, 1012 267.051, 1012 266.402 C 1012 265.752, 1010.435 263.484, 1008.523 261.360 C 1006.611 259.237, 1005.036 256.960, 1005.023 256.301 C 1005.010 255.641, 1003.440 253.912, 1001.534 252.458 C 999.628 251.005, 996.517 247.044, 994.621 243.658 C 992.725 240.271, 989.897 236.392, 988.337 235.038 C 985.222 232.335, 975.661 228.080, 972.500 227.991 C 970.671 227.940, 964.268 225.860, 958 223.283 C 956.625 222.717, 954.038 221.937, 952.250 221.548 C 949.385 220.925, 949 221.092, 949 222.956" stroke="#494949" fill="#494949" fill-opacity="0.2" fill-rule="evenodd"/><path class="svg-region-VV" d="M 903.500 128.877 C 902.400 129.367, 898.672 130.292, 895.216 130.931 C 891.760 131.570, 886.818 133.217, 884.234 134.590 C 880.085 136.796, 879.009 136.974, 875.018 136.107 C 867.081 134.383, 855.796 133.952, 845.224 134.969 C 835.223 135.931, 832.627 136.671, 829.171 139.544 C 828.252 140.308, 825.962 141.960, 824.081 143.216 C 822.143 144.511, 820.119 147.015, 819.408 149 C 817.807 153.463, 817.663 166.988, 819.138 174.333 L 820.276 180 826.828 180 C 830.431 180, 835.882 180.435, 838.940 180.966 C 841.998 181.497, 848.897 182.366, 854.271 182.897 C 866.277 184.084, 870.272 186.191, 873.219 192.891 C 874.334 195.426, 875.266 198.039, 875.290 198.699 C 875.345 200.209, 884.766 201.454, 889.468 200.572 L 892.961 199.917 892.348 194.054 C 891.421 185.189, 892.192 183.436, 898.263 180.599 C 902.314 178.707, 905.878 178.011, 914 177.525 C 935.910 176.214, 935.318 176.145, 949.820 181.699 C 953.296 183.030, 956.896 183.980, 957.820 183.810 C 959.598 183.482, 965.936 171.748, 965.976 168.710 C 966.010 166.197, 969.759 158.992, 972.631 155.923 C 974.959 153.435, 974.989 153.218, 973.490 149.630 C 972.636 147.585, 971.164 145.628, 970.218 145.280 C 969.273 144.932, 967.150 143.656, 965.500 142.444 C 958.659 137.420, 946.680 132.600, 940 132.184 C 936.425 131.961, 932.803 131.165, 931.951 130.416 C 930.087 128.776, 906.575 127.504, 903.500 128.877" stroke="#7699d1" fill="#7699d1" fill-opacity="0.2" fill-rule="evenodd"/><path class="svg-region-B" d="M 898.399 615.909 C 895.593 616.919, 892.668 617.413, 891.899 617.007 C 889.444 615.709, 857.788 614.944, 853.665 616.082 C 851.571 616.660, 848.148 618.678, 846.058 620.567 C 843.968 622.455, 841.579 624, 840.750 624 C 838.638 624, 830.697 633.593, 828.294 639.048 C 827.193 641.550, 824.466 646.275, 822.235 649.548 C 818.727 654.695, 817.140 658.638, 813.198 672 C 812.479 674.434, 809.237 676.526, 802.244 679.065 C 798.987 680.248, 791.886 688.223, 785.275 698.121 C 781.692 703.486, 778.078 707.411, 777.372 706.705 C 776.090 705.424, 780.056 679.561, 783 670 C 786.963 657.132, 788.230 651.897, 787.549 651.216 C 785.510 649.176, 777.252 679.197, 772.940 704.326 C 770.207 720.252, 773.776 749.074, 779.830 759.976 C 782.896 765.495, 790.477 772.699, 794.500 773.914 C 801.251 775.954, 821.337 778.184, 829.702 777.822 C 844.026 777.201, 853.008 772.111, 864.258 758.236 C 869.757 751.453, 878.790 736.766, 883.159 727.500 C 885.283 722.996, 885.876 722.470, 889.137 722.197 L 892.758 721.894 899.016 734.697 C 907.585 752.226, 909.569 755.420, 915.141 760.658 C 918.564 763.876, 933.665 771.887, 940 773.847 C 941.925 774.442, 946.991 776.070, 951.259 777.465 C 960.288 780.415, 963.964 780.582, 972.296 778.423 C 986.042 774.861, 993.523 768.493, 1000.069 754.783 C 1004.492 745.517, 1004.501 745.477, 1004.851 732.708 C 1005.120 722.925, 1004.826 718.765, 1003.601 715.020 C 1002.721 712.328, 1001.984 708.184, 1001.965 705.812 C 1001.909 699.006, 997.833 682.633, 995.896 681.436 C 993.812 680.148, 993.827 682.011, 995.935 686.366 C 998.853 692.393, 999.754 698, 997.805 698 C 995.916 698, 992.435 694.175, 991.486 691.055 C 991.076 689.710, 989.383 686.402, 987.723 683.704 L 984.704 678.798 983.352 682.014 C 982.608 683.783, 982 685.826, 982 686.556 C 982 688.994, 980.413 688.913, 972.165 686.057 C 961.760 682.454, 961 681.792, 961 676.336 C 961 673.518, 959.913 669.591, 958 665.500 C 956.350 661.971, 955 658.610, 955 658.031 C 955 656.342, 950.955 648.158, 945.672 639.157 C 941.816 632.589, 939.806 630.249, 936.222 628.157 C 933.718 626.696, 929.193 623.521, 926.167 621.102 C 917.295 614.011, 908.327 612.334, 898.399 615.909" stroke="#e23b33" fill="#e23b33" fill-opacity="0.2" fill-rule="evenodd"/><path class="svg-region-Ol" d="M 492.818 250.115 C 482.142 251.491, 454.423 259.791, 450.850 262.681 C 450.108 263.282, 445 266.067, 439.500 268.870 C 434 271.673, 426.125 275.803, 422 278.048 C 417.875 280.293, 410.450 284.218, 405.500 286.769 C 400.550 289.321, 396.350 291.767, 396.167 292.204 C 395.983 292.642, 395.308 293.008, 394.667 293.017 C 394.025 293.027, 392.440 294.152, 391.145 295.517 C 389.850 296.883, 388.183 298, 387.441 298 C 385.641 298, 365.674 315.367, 360 321.867 C 357.525 324.703, 353.232 329.605, 350.461 332.761 C 347.689 335.918, 344.140 340.975, 342.574 344 C 341.008 347.025, 338.903 350.175, 337.897 351 C 331.170 356.518, 319 394.047, 319 409.276 C 319 414.617, 318.530 416.378, 316.120 420.079 C 314.536 422.510, 312.665 426.975, 311.962 430 C 311.259 433.025, 309.612 438.736, 308.302 442.690 C 306.992 446.645, 305.280 452.720, 304.496 456.190 C 303.713 459.661, 302.551 464.723, 301.915 467.440 C 301.116 470.850, 301.074 472.889, 301.781 474.021 C 302.467 475.119, 302.483 477.287, 301.830 480.580 C 300.300 488.306, 300.834 506.070, 302.919 516.831 C 304.990 527.514, 311.138 544.115, 316.498 553.500 C 318.383 556.800, 321.120 561.726, 322.580 564.448 C 327.346 573.331, 335.178 585.466, 337.167 587.047 C 338.237 587.898, 339.650 589.537, 340.307 590.690 C 340.963 591.843, 344.650 597.136, 348.500 602.454 C 357.249 614.537, 358.944 617.324, 364.342 628.500 C 369.831 639.864, 374.719 652.683, 382.266 675.500 C 388.953 695.719, 405.812 734, 408.029 734 C 408.521 734, 409.402 735.780, 409.988 737.955 C 410.573 740.130, 412.166 743.232, 413.526 744.849 C 414.887 746.466, 416 748.485, 416 749.335 C 416 750.186, 416.482 751.180, 417.070 751.543 C 417.659 751.907, 418.446 752.946, 418.820 753.852 C 419.891 756.446, 429.825 774.025, 433.032 779 C 434.627 781.475, 436.909 785.291, 438.104 787.480 C 439.298 789.669, 441.480 793.044, 442.953 794.980 C 444.426 796.916, 448.230 801.979, 451.407 806.231 C 458.779 816.098, 467.459 825.106, 473.645 829.308 C 479.456 833.255, 484.974 835.657, 499.548 840.585 C 505.572 842.621, 512.525 845.161, 515 846.228 C 525.703 850.845, 528.235 851.325, 542 851.352 C 556.601 851.380, 566.250 849.517, 577.671 844.467 C 580.739 843.110, 583.677 842, 584.200 842 C 585.887 842, 599.297 833.683, 606.500 828.170 C 610.350 825.223, 618.225 818.418, 624 813.047 C 629.775 807.677, 637.425 800.785, 641 797.732 C 653.350 787.185, 663.912 775.472, 679.982 754.500 C 682.932 750.650, 690.893 741.930, 697.673 735.123 C 704.453 728.315, 710 722.352, 710 721.873 C 710 721.393, 710.599 721, 711.331 721 C 712.063 721, 713.141 719.987, 713.727 718.750 C 715.781 714.411, 721 699.383, 721 697.807 C 721 696.931, 721.710 695.942, 722.577 695.609 C 723.640 695.201, 724.079 693.945, 723.925 691.752 C 723.591 686.983, 725.030 678.939, 726.832 675.500 C 727.697 673.850, 728.527 669.999, 728.676 666.942 C 728.825 663.885, 729.582 658.260, 730.359 654.442 C 733.154 640.693, 729.640 612.135, 724.708 608.528 C 723.929 607.959, 722.977 606.504, 722.594 605.297 C 722.211 604.090, 720.498 601.616, 718.786 599.801 C 714.590 595.349, 708.371 585.655, 706.952 581.353 C 705.553 577.116, 706.549 569.110, 708.570 568.335 C 709.357 568.033, 710 566.934, 710 565.893 C 710 564.852, 710.405 564, 710.899 564 C 713.283 564, 712.384 541.618, 709.426 527.294 C 706.700 514.098, 696.681 487, 694.527 487 C 693.934 487, 692.560 485.199, 691.474 482.997 C 690.388 480.796, 685.771 471.719, 681.213 462.826 C 669.048 439.090, 665.671 429.484, 662.114 408.500 C 659.591 393.621, 658.754 388.206, 658.480 385 C 658.225 382.012, 656.369 371.456, 654.876 364.500 C 653.949 360.181, 650.868 351.156, 648.047 344.500 C 647.581 343.400, 645.742 338.900, 643.960 334.500 C 639.651 323.863, 632.568 310.062, 626.500 300.482 C 620.276 290.655, 606.712 277.981, 596.754 272.686 C 594.358 271.412, 590.315 268.937, 587.769 267.185 C 585.223 265.433, 582.884 264, 582.572 264 C 582.261 264, 579.192 262.698, 575.753 261.107 C 570.198 258.538, 567.185 257.490, 555.500 254.065 C 539.756 249.451, 511.687 247.682, 492.818 250.115" stroke="#aa444d" fill="#aa444d" fill-opacity="0.2" fill-rule="evenodd"/><path class="svg-region-Or" d="M 1294.500 245.516 C 1293.950 245.758, 1289.675 246.371, 1285 246.877 C 1280.325 247.383, 1272.225 248.758, 1267 249.932 C 1261.775 251.106, 1255.200 252.468, 1252.390 252.958 C 1247.255 253.854, 1238.625 256.955, 1221 264.238 C 1210.263 268.675, 1204.521 271.006, 1198 273.577 C 1195.525 274.553, 1192.375 276.299, 1191 277.456 C 1189.625 278.614, 1185.125 281.786, 1181 284.506 C 1171.526 290.753, 1157.635 304.721, 1153.313 312.346 C 1151.491 315.561, 1150 318.592, 1150 319.080 C 1150 319.569, 1148.683 322.686, 1147.074 326.008 C 1145.465 329.330, 1143.838 333.500, 1143.459 335.274 C 1143.079 337.048, 1142.449 338.950, 1142.057 339.500 C 1140.436 341.775, 1138.131 349.860, 1137.638 355 C 1137.347 358.025, 1136.657 362.525, 1136.104 365 C 1134.352 372.836, 1131.072 388.150, 1128.938 398.461 C 1126.770 408.933, 1121.942 427.381, 1119.375 435 C 1117.224 441.382, 1112.382 448.893, 1107.868 452.851 C 1105.740 454.715, 1104 456.777, 1104 457.433 C 1104 458.089, 1102.649 459.920, 1100.997 461.502 C 1098.181 464.201, 1094 471.434, 1094 473.609 C 1094 474.147, 1091.341 477.321, 1088.091 480.663 C 1084.640 484.212, 1081.056 489.185, 1079.476 492.620 C 1077.987 495.854, 1075.495 501.200, 1073.937 504.500 C 1072.378 507.800, 1070.624 512.525, 1070.038 515 C 1066.018 531.985, 1064.771 540.656, 1064.358 554.500 C 1064.112 562.750, 1063.289 572.200, 1062.530 575.500 C 1061.770 578.800, 1060.882 585.181, 1060.557 589.680 C 1060.208 594.497, 1059.159 599.636, 1058.004 602.180 C 1056.926 604.556, 1056.034 607.422, 1056.022 608.550 C 1056.010 609.677, 1055.608 611.027, 1055.130 611.550 C 1054.303 612.452, 1051.592 621.206, 1049.106 631 C 1046.223 642.357, 1045.586 666.344, 1047.838 678.751 C 1049.108 685.749, 1053.526 695.189, 1058.711 701.983 C 1064.666 709.785, 1089.752 734.770, 1094.317 737.446 C 1096.718 738.853, 1103.592 741.572, 1109.591 743.488 C 1122.617 747.647, 1127.874 751.173, 1146.955 768.549 C 1150.005 771.327, 1154.975 775.593, 1158 778.030 C 1161.025 780.467, 1164.625 783.477, 1166 784.719 C 1171.746 789.907, 1194.115 802.332, 1202.500 804.992 C 1204.700 805.690, 1206.958 806.620, 1207.517 807.060 C 1210.641 809.513, 1229.570 810.010, 1238 807.859 C 1243.588 806.434, 1257.013 800.568, 1263.500 796.716 C 1287.441 782.503, 1306.236 767.215, 1319.017 751.558 C 1322.583 747.190, 1327.091 741.790, 1329.036 739.558 C 1330.980 737.326, 1333.739 733.925, 1335.166 732 C 1336.593 730.075, 1338.843 727.343, 1340.167 725.929 C 1341.490 724.515, 1344.357 721.140, 1346.536 718.429 C 1348.716 715.718, 1350.766 713.275, 1351.091 713 C 1351.555 712.608, 1366.025 695.182, 1369.775 690.500 C 1372.575 687.004, 1382.481 675.209, 1387.896 668.924 C 1398.352 656.788, 1400.400 654.326, 1402.500 651.363 C 1403.600 649.812, 1406.101 646.733, 1408.058 644.521 C 1412.093 639.961, 1421.404 628.689, 1424.698 624.377 C 1425.907 622.795, 1428.472 619.475, 1430.398 617 C 1436.219 609.520, 1456.393 578.975, 1460.450 571.500 C 1462.539 567.650, 1464.595 564.050, 1465.018 563.500 C 1468.376 559.133, 1490.987 513.709, 1491.006 511.292 C 1491.010 510.856, 1491.597 509.375, 1492.311 508 C 1493.591 505.537, 1494.224 503.339, 1497.640 489.500 C 1500.115 479.474, 1500.143 439.356, 1497.681 430.356 C 1496.756 426.976, 1496 423.001, 1496 421.522 C 1496 416.635, 1484.470 383.731, 1481.450 380 C 1480.783 379.175, 1479.904 377.411, 1479.497 376.079 C 1479.090 374.748, 1477.135 371.148, 1475.152 368.079 C 1473.169 365.011, 1470.752 361.047, 1469.782 359.271 C 1468.812 357.494, 1466.552 354.059, 1464.759 351.637 C 1462.967 349.214, 1459.925 344.639, 1458 341.469 C 1456.075 338.300, 1452.777 333.860, 1450.672 331.603 C 1448.566 329.346, 1446.217 326.310, 1445.451 324.856 C 1444.685 323.402, 1442.808 320.862, 1441.279 319.211 C 1439.751 317.560, 1437.600 315.003, 1436.500 313.528 C 1435.400 312.054, 1430.644 307.394, 1425.932 303.173 C 1407.589 286.745, 1387.742 272.634, 1370.768 263.952 C 1365.121 261.063, 1358.700 257.508, 1356.500 256.051 C 1350.701 252.212, 1345.285 250.210, 1338.750 249.490 C 1335.588 249.141, 1333 248.475, 1333 248.010 C 1333 246.718, 1297.057 244.390, 1294.500 245.516" stroke="#aa444d" fill="#aa444d" fill-opacity="0.2" fill-rule="evenodd"/><path class="svg-region-BPCl" d="M 828.128 355.332 C 827.373 356.250, 825.451 357, 823.856 357 C 820.384 357, 813.717 361.187, 812.259 364.283 C 810.109 368.849, 807 377.314, 807 378.604 C 807 379.339, 805.875 382.400, 804.500 385.406 C 803.125 388.412, 801.993 391.688, 801.985 392.686 C 801.977 393.684, 801.239 396.525, 800.344 399 C 799.449 401.475, 798.371 405.300, 797.948 407.500 C 797.525 409.700, 796.239 415.931, 795.090 421.347 C 792.846 431.917, 792.551 439.530, 794.076 447.500 C 794.601 450.250, 795.308 454.413, 795.646 456.750 C 796.356 461.666, 797.341 461.937, 802 458.500 C 803.864 457.125, 806.348 456, 807.520 456 C 810.804 456, 814.050 451.755, 816.076 444.810 C 817.088 441.340, 818.859 435.800, 820.011 432.500 C 822.824 424.442, 823.983 413.578, 823.992 395.193 C 823.999 381.165, 824.826 373.790, 826.983 368.500 C 829.546 362.213, 830.112 359.911, 829.822 356.951 C 829.534 354.007, 829.357 353.838, 828.128 355.332 M 787.519 538.331 C 782.072 546.644, 782.879 565.135, 789.524 584.232 C 790.863 588.082, 791.466 591.212, 790.933 591.541 C 788.300 593.168, 792.309 603.830, 796.077 605.224 C 798.004 605.937, 798.105 606.599, 797.687 615.742 C 797.108 628.430, 796.059 633.102, 792.015 641 C 790.185 644.575, 788.130 650.200, 787.448 653.500 C 786.767 656.800, 784.754 664.225, 782.975 670 C 780.043 679.521, 776.081 705.414, 777.360 706.694 C 778.257 707.591, 782.200 703.377, 785.495 698 C 787.349 694.975, 789.796 691.838, 790.933 691.029 C 792.070 690.220, 793 689.058, 793 688.446 C 793 687.834, 794.702 685.489, 796.783 683.236 C 799.490 680.303, 801.913 678.799, 805.308 677.944 C 810.160 676.722, 814 673.239, 814 670.059 C 814 666.218, 818.594 655.249, 822.981 648.617 C 825.570 644.703, 828.207 639.925, 828.840 638 C 829.473 636.075, 831.407 633.164, 833.138 631.531 C 839.184 625.826, 840.794 616.436, 837 609 C 835.900 606.844, 835 604.139, 835 602.990 C 835 601.841, 834.321 599.588, 833.491 597.983 C 831.085 593.330, 830.476 578.638, 832.387 571.356 C 833.274 567.976, 834 563.156, 834 560.643 C 834 552.935, 828.855 541.812, 826.417 544.250 C 826.143 544.524, 825.525 546.942, 825.044 549.624 C 823.333 559.145, 815.502 575.795, 809.929 581.758 C 808.318 583.481, 807 585.296, 807 585.791 C 807 586.285, 806.132 587.475, 805.072 588.435 C 802.451 590.807, 799.559 589.716, 796.488 585.197 C 793.769 581.195, 793.269 575.938, 795.042 569.993 C 798.805 557.381, 802.047 542.984, 801.796 540.005 L 801.500 536.500 795.303 536.204 C 789.685 535.935, 788.959 536.133, 787.519 538.331" stroke="#83385f" fill="#83385f" fill-opacity="0.2" fill-rule="evenodd"/><path class="svg-region-BPCr" d="M 960.430 383.750 C 960.822 388.563, 961.448 396.904, 961.821 402.288 C 962.311 409.354, 962.917 412.332, 964 412.998 C 965.124 413.690, 965.657 416.755, 966.125 425.211 C 966.684 435.316, 970.595 454.929, 972.414 456.747 C 972.754 457.088, 974.124 456.496, 975.458 455.433 C 976.793 454.370, 980.723 451.330, 984.192 448.677 C 991.304 443.239, 993.931 438.764, 993.980 432 C 994.001 429.230, 994.777 426.347, 996 424.500 C 997.202 422.685, 997.989 419.808, 997.993 417.214 C 998 413.130, 997.800 412.841, 993.750 411.061 C 988.175 408.610, 983.010 403.701, 982.961 400.806 C 982.892 396.690, 976.557 387.697, 969.202 381.275 C 965.250 377.824, 961.499 375, 960.867 375 C 960.035 375, 959.915 377.414, 960.430 383.750 M 948.027 535.949 C 947.418 537.088, 945.936 542.178, 944.734 547.260 C 942.537 556.556, 942.393 560.422, 943.184 589 C 943.343 594.737, 942.836 599.613, 941.626 604 C 939.551 611.526, 938.171 631, 939.714 631 C 940.887 631, 948.724 644.072, 952.304 652 C 958.836 666.465, 961.005 672.717, 961.002 677.081 C 961 682.239, 961.222 682.428, 971.500 686.034 C 980.739 689.276, 981.052 689.209, 982.955 683.580 L 984.619 678.660 987.680 683.635 C 989.364 686.371, 991.076 689.710, 991.486 691.055 C 992.435 694.175, 995.916 698, 997.805 698 C 999.725 698, 998.866 692.420, 996.050 686.602 C 994.922 684.274, 994 681.605, 994 680.671 C 994 679.737, 993.590 678.191, 993.089 677.236 C 992.587 676.281, 991.415 673.336, 990.483 670.691 C 989.552 668.045, 987.251 664.220, 985.372 662.191 C 983.492 660.161, 981.668 657.396, 981.318 656.047 C 980.968 654.698, 978.047 648.063, 974.828 641.303 L 968.975 629.012 968.383 607.256 C 967.792 585.523, 967.788 585.496, 965.013 581.500 C 958.754 572.487, 955.259 559.974, 954.958 545.500 C 954.856 540.597, 952.528 535.009, 950.275 534.258 C 949.648 534.049, 948.637 534.810, 948.027 535.949 M 981.644 544.250 C 980.657 547.008, 979.895 554.279, 979.474 564.955 C 979.015 576.630, 978.416 581.996, 977.413 583.427 C 975.637 585.963, 975.608 588.430, 977.336 589.864 C 978.362 590.715, 979.644 590.140, 982.862 587.386 C 987.824 583.139, 989.567 580.021, 992.108 570.854 C 994.782 561.204, 994.601 555.164, 991.500 550.595 C 990.125 548.569, 989 546.663, 989 546.360 C 989 545.291, 984.853 540, 984.015 540 C 983.548 540, 982.481 541.913, 981.644 544.250" stroke="#83385f" fill="#83385f" fill-opacity="0.2" fill-rule="evenodd"/>
    </svg>