<svg xmlns="http://www.w3.org/2000/svg" width="1785" height="1131" viewBox="0 0 1785 1131" version="1.1">
    <path class="svg-region-AP" d="M 888.190 414.749 C 871.615 415.035, 870.906 415.130, 871.493 416.977 C 871.975 418.495, 871.246 419.344, 868.068 420.965 C 865.848 422.098, 862.378 423.368, 860.358 423.788 C 858.339 424.208, 856.194 425.432, 855.593 426.509 C 849.680 437.102, 839.685 447.487, 831.776 451.255 C 825.562 454.215, 816 461.615, 816 463.463 C 816 464.173, 815.370 465.278, 814.600 465.917 C 812.060 468.025, 815.045 487.760, 819.533 498.534 C 822.271 505.105, 823.067 508.724, 823.909 518.412 C 824.551 525.802, 825.513 531.134, 826.469 532.593 C 827.311 533.878, 828.017 536.858, 828.038 539.215 C 828.060 541.572, 829.079 548.450, 830.303 554.500 L 832.529 565.500 838.066 566.097 C 841.112 566.425, 844.705 567.380, 846.052 568.218 C 847.398 569.056, 851.983 571.598, 856.239 573.867 L 863.979 577.992 867.463 571.246 C 873.313 559.919, 876.988 557.208, 879.070 562.684 C 880.072 565.319, 879.095 572.082, 876.887 577.797 C 875.215 582.125, 875.911 587.596, 878.750 592.447 C 880.263 595.032, 882.056 598.126, 882.735 599.323 C 883.415 600.521, 883.977 603.166, 883.985 605.203 C 883.997 608.162, 885.186 612.535, 886.599 614.814 C 886.706 614.986, 891.331 614.561, 896.876 613.869 C 906.459 612.673, 906.878 612.522, 905.341 610.824 C 904.022 609.367, 903.957 608.757, 904.986 607.516 C 906.158 606.105, 905.986 602.684, 904.559 598.999 C 904.172 598.002, 904.938 597.073, 906.841 596.231 C 908.416 595.533, 910.523 593.444, 911.522 591.588 C 913.276 588.332, 913.276 588.009, 911.535 582.357 C 907.872 570.462, 908.393 566.466, 914.516 559.508 C 916.891 556.809, 917.245 556.686, 918.124 558.258 C 918.661 559.216, 919.668 560, 920.363 560 C 921.057 560, 922.948 561.389, 924.563 563.087 C 927.188 565.847, 927.925 566.107, 931.500 565.534 C 937.009 564.651, 936.620 564.629, 945 566.315 C 956.701 568.670, 957.610 567.862, 959.983 553 C 960.642 548.875, 961.624 544.391, 962.166 543.036 C 963.591 539.475, 966.947 518.374, 967.023 512.500 C 967.059 509.750, 967.702 505.925, 968.453 504 C 973.381 491.364, 976.211 481.088, 977.566 470.922 C 978.114 466.803, 977.924 466.180, 975.664 464.699 C 974.282 463.794, 972.827 462.029, 972.430 460.777 C 970.935 456.063, 966.865 450.972, 963.027 449.014 C 956.949 445.913, 950.681 438.979, 945.433 429.550 C 944.162 427.266, 943.541 426.922, 934.500 423.487 C 927.246 420.731, 924 418.564, 924 416.476 C 924 414.956, 918.198 413.956, 911 414.236 C 907.975 414.353, 897.711 414.584, 888.190 414.749 M 1011.169 473.986 C 1009.954 475.628, 1007.956 477.224, 1006.728 477.532 C 1004.824 478.010, 1004.245 479.343, 1002.797 486.585 C 1001.837 491.391, 999.559 498.157, 997.550 502.173 C 995.014 507.243, 994 510.593, 994 513.907 C 994 517.617, 993.380 519.296, 990.902 522.302 C 988.361 525.386, 987.724 527.176, 987.356 532.280 C 987.110 535.701, 985.962 543.391, 984.805 549.370 L 982.702 560.239 984.845 566.482 C 989.001 578.592, 991.423 583.154, 990.828 577.750 C 990.692 576.513, 990.919 572.350, 991.332 568.500 C 993.985 543.825, 995.192 533.965, 996.046 530 C 996.579 527.525, 997.280 523.925, 997.604 522 C 997.928 520.075, 999.050 516.592, 1000.097 514.261 C 1001.143 511.929, 1002 509.576, 1002 509.032 C 1002 507.716, 1005.904 495.291, 1007.508 491.500 C 1008.206 489.850, 1009.108 487.375, 1009.511 486 C 1009.915 484.625, 1010.576 483.050, 1010.981 482.500 C 1011.615 481.638, 1015 472.224, 1015 471.322 C 1015 470.103, 1013.023 471.478, 1011.169 473.986 M 788.323 474.696 C 785.249 475.295, 783.197 477.885, 784.942 478.964 C 785.664 479.411, 786.430 481.713, 786.643 484.081 C 787.154 489.751, 787.667 492.462, 788.988 496.464 C 789.589 498.285, 790.195 501.745, 790.335 504.151 C 790.475 506.558, 790.915 509.054, 791.313 509.697 C 791.711 510.341, 792.231 513.485, 792.469 516.684 C 794.851 548.691, 796.819 565.628, 800.172 583 C 800.863 586.575, 801.444 592.538, 801.464 596.251 C 801.484 599.964, 801.802 603.001, 802.170 603.001 C 802.539 603, 803.125 599.962, 803.473 596.250 C 803.821 592.538, 804.757 588.306, 805.553 586.846 C 807.978 582.397, 807.568 539.796, 804.958 525 C 803.842 518.675, 802.249 509.225, 801.418 504 C 800.587 498.775, 799.024 491.800, 797.944 488.500 C 796.864 485.200, 795.984 480.861, 795.990 478.857 C 796.003 474.285, 794.533 473.487, 788.323 474.696" stroke="#fc7143" fill="#fc7143" fill-opacity="0.2" fill-rule="evenodd"/><path class="svg-region-PP" d="M 806 337.194 C 802.425 337.575, 797.928 338.363, 796.007 338.944 C 794.085 339.525, 790.948 340, 789.034 340 L 785.555 340 788.027 341.733 C 789.420 342.709, 793.340 343.728, 797 344.066 C 807.983 345.078, 816 349.923, 816 355.547 C 816 356.491, 817.039 357, 818.965 357 C 820.860 357, 822.299 357.689, 822.952 358.910 C 823.547 360.023, 825.544 361.091, 827.737 361.470 C 835.410 362.794, 838.083 367.501, 835.359 374.891 C 833.245 380.630, 831.282 383, 828.645 383 C 825.789 383, 827.258 384.139, 835.881 388.613 C 840.151 390.829, 844.498 393.982, 846.197 396.096 C 847.812 398.106, 851.354 401.188, 854.067 402.946 C 856.780 404.704, 859 406.524, 859 406.989 C 859 407.454, 861.013 408.603, 863.472 409.543 C 866.047 410.526, 868.209 412.083, 868.568 413.213 C 869.168 415.104, 870.178 415.171, 896.345 415.036 C 911.280 414.960, 924.400 414.967, 925.500 415.053 C 926.600 415.139, 932.337 412.866, 938.250 410.002 C 947.882 405.337, 949.002 404.520, 949.015 402.148 C 949.040 397.875, 950.271 396.773, 954.196 397.509 C 956.805 397.998, 958.542 397.640, 961.092 396.085 C 962.966 394.943, 965.663 394.006, 967.084 394.004 C 968.703 394.001, 971.275 392.516, 973.975 390.023 C 977.657 386.624, 978.094 385.818, 976.984 384.481 C 976.083 383.395, 975.366 383.234, 974.642 383.958 C 974.069 384.531, 971.440 385, 968.800 385 L 964 385 964 378.821 C 964 372.627, 965.613 366.141, 967.495 364.765 C 968.048 364.361, 969.480 364.024, 970.677 364.015 C 973.358 363.996, 979 357.425, 979 354.322 C 979 351.480, 984.150 343.827, 988.296 340.507 L 991.500 337.943 983 338.470 C 978.325 338.759, 972.700 339.473, 970.500 340.056 C 968.300 340.638, 965.128 341.269, 963.452 341.458 C 961.775 341.647, 957.050 342.308, 952.952 342.926 C 948.853 343.544, 943.925 344.029, 942 344.003 C 931.838 343.869, 914.671 344.899, 914.126 345.676 C 913.263 346.907, 910.920 346.730, 908.297 345.235 C 906.854 344.413, 902.365 344.028, 895.297 344.120 C 889.358 344.197, 881.800 343.760, 878.500 343.148 C 872.825 342.096, 868.543 341.624, 854.500 340.500 C 851.200 340.236, 845.125 339.355, 841 338.541 C 832.357 336.836, 815.449 336.185, 806 337.194" stroke="#c4743d" fill="#c4743d" fill-opacity="0.2" fill-rule="evenodd"/><path class="svg-region-AVCl" d="M 833.476 568.750 C 833.711 570.263, 834.133 574.200, 834.415 577.500 C 834.972 584.029, 837.155 589.255, 842.935 597.906 C 844.991 600.983, 847.982 605.562, 849.582 608.083 C 853.387 614.081, 856.512 615, 873.101 615 L 886.233 615 885.573 612.750 C 885.211 611.513, 884.511 607.866, 884.018 604.647 C 883.526 601.427, 882.487 598.052, 881.710 597.147 C 880.933 596.241, 879.218 593.533, 877.899 591.128 L 875.500 586.757 874.123 592.128 C 873.366 595.083, 872.466 600.875, 872.123 605 L 871.500 612.500 867.894 612.802 C 863.894 613.137, 853.415 608.658, 851.678 605.871 C 850.919 604.654, 851.365 602.888, 853.444 598.871 C 854.973 595.917, 856.848 592.790, 857.612 591.921 C 858.375 591.053, 859.014 589.703, 859.031 588.921 C 859.048 588.140, 860.109 585.364, 861.388 582.754 C 863.035 579.394, 863.391 577.752, 862.607 577.131 C 861.998 576.649, 857.050 573.947, 851.610 571.127 C 844.164 567.267, 840.649 566, 837.385 566 C 833.219 566, 833.067 566.107, 833.476 568.750" stroke="#ffbab9" fill="#ffbab9" fill-opacity="0.2" fill-rule="evenodd"/><path class="svg-region-AVCr" d="M 920 560.386 C 920 560.598, 920.672 562.060, 921.494 563.636 C 922.315 565.211, 922.990 568.357, 922.994 570.628 C 922.997 572.988, 923.615 575.265, 924.436 575.947 C 925.225 576.602, 926.153 578.570, 926.497 580.319 C 927.544 585.636, 930.293 594.380, 931.585 596.500 C 932.255 597.600, 933.119 600.008, 933.504 601.852 C 933.889 603.695, 935.058 606.058, 936.102 607.102 C 938.267 609.267, 938.556 612.044, 936.800 613.800 C 936.113 614.487, 936.033 615, 936.613 615 C 938.296 615, 942.766 609.754, 944.708 605.500 C 945.712 603.300, 947.285 600.375, 948.204 599 C 949.835 596.560, 951.625 591.581, 953.777 583.500 C 956.636 572.761, 957 571.085, 957 568.659 C 957 566.308, 956.759 566.141, 954.568 566.974 C 953.055 567.549, 950.880 567.532, 948.818 566.928 C 946.993 566.393, 943.787 565.733, 941.693 565.459 C 939.600 565.186, 937.575 564.880, 937.193 564.779 C 936.812 564.678, 934.757 564.942, 932.627 565.366 C 929.202 566.048, 928.312 565.782, 924.936 563.068 C 921.369 560.203, 920 559.458, 920 560.386 M 909.022 594.476 C 907.718 595.864, 906.046 597, 905.307 597 C 904.329 597, 904.161 597.751, 904.693 599.750 C 905.594 603.143, 905.558 605.979, 904.585 608.176 C 903.472 610.688, 907.449 612.683, 914.788 613.294 C 920.874 613.800, 921.055 613.748, 920.403 611.659 C 920.033 610.471, 918.441 608.022, 916.865 606.215 C 915.289 604.409, 913.980 602.609, 913.956 602.215 C 913.932 601.822, 913.345 599.352, 912.653 596.726 L 911.394 591.952 909.022 594.476" stroke="#ffbab9" fill="#ffbab9" fill-opacity="0.2" fill-rule="evenodd"/><path class="svg-region-DMl" d="M 756 337.936 C 750.996 338.946, 746.243 341.660, 745.526 343.917 C 744.432 347.364, 746.878 365.847, 749.118 371.052 C 751.469 376.518, 751.980 376.864, 753.680 374.140 C 754.353 373.064, 756.574 372.004, 758.956 371.623 C 762.622 371.037, 763.422 371.297, 766.286 374.009 C 776.252 383.447, 784.806 385.865, 790.694 380.911 C 793.595 378.470, 801.127 376.600, 811.500 375.747 C 814.094 375.533, 814.509 375.094, 814.568 372.500 C 814.681 367.543, 815.906 365.253, 819.616 363.064 C 824.082 360.429, 823.891 357.636, 819.213 357.184 C 817.359 357.006, 816.043 356.356, 816.174 355.684 C 816.526 353.890, 813.118 348.001, 811.724 347.994 C 811.051 347.990, 809.150 347.268, 807.500 346.387 C 805.850 345.507, 801.575 344.544, 798 344.247 C 794.425 343.951, 789.932 342.874, 788.015 341.854 C 785.999 340.782, 782.415 339.985, 779.515 339.964 C 776.757 339.945, 771.800 339.277, 768.500 338.480 C 761.998 336.910, 761.248 336.877, 756 337.936" stroke="#68533d" fill="#68533d" fill-opacity="0.2" fill-rule="evenodd"/><path class="svg-region-DMr" d="M 1012 332.617 C 1008.975 333.434, 1003.471 334.486, 999.769 334.955 C 994.191 335.662, 992.508 336.338, 989.942 338.904 C 988.239 340.607, 986.507 342, 986.091 342 C 984.764 342, 979 351.698, 979 353.932 C 979 355.116, 978.557 356.628, 978.015 357.292 C 971.520 365.257, 971.654 365, 973.988 365 C 975.179 365, 977.469 366.315, 979.077 367.923 C 981.460 370.306, 982 371.695, 982 375.445 C 982 379.379, 981.639 380.207, 979.500 381.182 C 976.998 382.322, 976.214 384.396, 977.894 385.434 C 978.385 385.738, 980.692 385.314, 983.019 384.493 C 987.847 382.790, 994 382.514, 994 384 C 994 384.550, 995.493 385, 997.318 385 C 1002.431 385, 1010.720 387.811, 1013.343 390.434 C 1016.015 393.106, 1020.233 395.416, 1024.152 396.354 C 1026.770 396.981, 1035 405.732, 1035 407.889 C 1035 409.748, 1037.531 409.133, 1039.688 406.750 C 1043.227 402.839, 1049.062 388.717, 1050.451 380.697 C 1050.814 378.606, 1051.756 376.647, 1052.544 376.345 C 1055.328 375.276, 1056.250 368.400, 1054.840 359.211 C 1053.737 352.017, 1053.082 350.261, 1050.647 347.962 C 1046.914 344.438, 1046.750 344.264, 1042.429 339.250 C 1039.815 336.215, 1038 335, 1036.084 335 C 1034.608 335, 1032.973 334.626, 1032.450 334.169 C 1030.989 332.890, 1023.608 330.992, 1020.384 331.066 C 1018.798 331.102, 1015.025 331.800, 1012 332.617" stroke="#68533d" fill="#68533d" fill-opacity="0.2" fill-rule="evenodd"/><path class="svg-region-VMl" d="M 758 371.732 C 756.625 371.985, 754.938 372.654, 754.250 373.218 C 752.377 374.757, 752.742 383.493, 754.902 388.815 C 755.948 391.392, 758.155 397.550, 759.808 402.500 C 763.441 413.386, 768.956 428.992, 772.528 438.500 C 776.332 448.623, 779.673 458.626, 781.546 465.500 C 784.453 476.165, 784.295 475.966, 788.938 474.788 C 791.736 474.078, 793.390 474.079, 794.251 474.792 C 796.122 476.345, 801.031 471.835, 800.341 469.197 C 799.716 466.804, 803.106 463, 805.865 463 C 806.891 463, 808.939 463.951, 810.417 465.113 L 813.103 467.227 818.618 461.133 C 822.508 456.835, 826.050 454.124, 830.640 451.933 C 835.163 449.775, 839.335 446.605, 844.324 441.538 C 852.440 433.292, 857.810 424.525, 855.327 423.572 C 851.803 422.220, 850.454 423.140, 848.148 428.469 C 846.827 431.519, 844.633 434.638, 843.148 435.577 C 841.691 436.497, 839.716 438.206, 838.757 439.375 C 837.260 441.200, 836.875 441.289, 836.023 440 C 835.477 439.175, 835.024 437.148, 835.015 435.496 C 835 432.509, 830.790 419.707, 829.130 417.602 C 827.116 415.046, 825.839 406.242, 826.919 402.352 C 829.108 394.469, 828.481 392.177, 822.500 386.196 C 819.475 383.171, 817 380.539, 817 380.348 C 817 380.157, 817.923 380, 819.051 380 C 820.993 380, 820.958 379.811, 818.379 376.431 C 816.122 373.471, 815.507 373.130, 814.779 374.431 C 814.204 375.457, 812.448 376.012, 809.700 376.035 C 802.957 376.092, 793.047 378.607, 790.633 380.875 C 785.650 385.557, 777.612 383.886, 769.261 376.433 C 767.193 374.587, 764.956 372.609, 764.292 372.038 C 763.053 370.973, 762.323 370.937, 758 371.732" stroke="#e59376" fill="#e59376" fill-opacity="0.2" fill-rule="evenodd"/><path class="svg-region-VMr" d="M 988.967 388.534 C 987.084 390.477, 983.117 393.515, 980.152 395.284 C 977.188 397.053, 973.128 399.493, 971.131 400.707 C 966.668 403.420, 965.104 406.841, 965.045 414.018 C 965.010 418.305, 965.558 420.356, 967.500 423.215 C 968.875 425.238, 970 427.616, 970 428.499 C 970 429.381, 970.951 434.829, 972.114 440.605 C 973.276 446.381, 973.934 451.400, 973.575 451.758 C 973.217 452.116, 971.591 451.907, 969.962 451.292 C 968.333 450.677, 967 450.417, 967 450.715 C 967 451.621, 973.209 462.382, 974.810 464.250 C 976.920 466.712, 978.676 466.425, 979.411 463.500 C 979.961 461.307, 980.579 461, 984.437 461 C 988.204 461, 989.595 461.647, 994.109 465.500 C 997.008 467.975, 1000.105 470, 1000.990 470 C 1003.408 470, 1005 472.065, 1005 475.200 C 1005 479.070, 1007.213 478.778, 1010.793 474.435 C 1014.426 470.028, 1014.195 470.488, 1024.062 448 C 1031.043 432.091, 1040 409.171, 1040 407.217 C 1040 406.878, 1039.460 407.140, 1038.800 407.800 C 1037.161 409.439, 1035 409.312, 1035 407.577 C 1035 404.757, 1026.340 396.546, 1021.943 395.198 C 1019.607 394.481, 1015.977 392.424, 1013.876 390.626 C 1009.903 387.225, 1002.881 385, 996.120 385 C 993.166 385, 991.682 385.733, 988.967 388.534" stroke="#e59376" fill="#e59376" fill-opacity="0.2" fill-rule="evenodd"/><path class="svg-region-PV" d="M 829 166.721 C 827.625 166.968, 826.072 167.581, 825.550 168.085 C 825.028 168.588, 823.749 169, 822.708 169 C 821.668 169, 819.502 170.012, 817.897 171.250 C 813.839 174.377, 805 182.905, 805 183.692 C 805 184.050, 804.388 185.053, 803.641 185.921 C 801.897 187.947, 800.113 195.624, 800.485 199.500 C 800.773 202.497, 802.400 207.395, 805.300 214 C 806.146 215.925, 807.774 219.633, 808.919 222.239 C 810.063 224.846, 811 227.256, 811 227.595 C 811 228.124, 812.696 230.411, 817.015 235.708 C 817.557 236.372, 818.005 237.272, 818.011 237.708 C 818.017 238.144, 820.712 243.900, 824 250.500 C 827.288 257.100, 829.983 263.063, 829.989 263.750 C 829.995 264.438, 830.450 265, 831 265 C 831.550 265, 832.022 265.563, 832.049 266.250 C 832.132 268.370, 843.388 284.053, 852.208 294.338 C 867.195 311.811, 876.685 318.487, 889 320.217 C 892.575 320.719, 904.320 321.365, 915.100 321.653 L 934.700 322.176 941.600 318.686 C 953.198 312.819, 960.385 302.468, 967.418 281.500 C 968.894 277.100, 971.262 271.250, 972.680 268.500 C 976.062 261.941, 982.111 253, 983.166 253 C 983.625 253, 984 252.531, 984 251.957 C 984 251.384, 985.886 248.361, 988.192 245.241 C 990.497 242.120, 992.974 237.852, 993.696 235.757 C 994.418 233.661, 996.045 230.271, 997.312 228.223 C 1001.590 221.307, 1003.294 215.289, 1002.569 209.660 C 1001.409 200.656, 997.668 189.947, 994.272 185.911 C 990.109 180.964, 979.049 176.243, 973.169 176.903 C 971.888 177.047, 970.086 176.482, 969.165 175.649 C 968.244 174.816, 966.143 173.916, 964.495 173.649 C 962.848 173.383, 961.275 173.074, 961 172.964 C 960.725 172.853, 960.152 172.820, 959.726 172.890 C 959.300 172.959, 957.181 172.112, 955.016 171.008 C 952.851 169.904, 950.360 169, 949.481 169 C 946.838 169, 948.942 171.087, 953.713 173.197 C 958.632 175.373, 966 182.151, 966 184.500 C 966 185.684, 964.576 186.004, 959.250 186.017 C 953.568 186.031, 951.392 186.585, 945.500 189.517 C 941.650 191.432, 936.925 193.283, 935 193.630 C 933.075 193.977, 930.882 194.753, 930.126 195.355 C 928.487 196.662, 919.932 197.890, 907.223 198.644 C 899.113 199.126, 897.372 198.925, 893.382 197.049 C 889.260 195.112, 887.737 194.964, 877.659 195.517 C 871.521 195.855, 864.573 196.819, 862.219 197.660 C 858.397 199.025, 857.700 199.027, 855.719 197.678 C 852.429 195.438, 843.885 187.185, 839.048 181.574 C 835.238 177.155, 834.862 176.263, 835.398 172.911 C 835.727 170.856, 836.270 168.461, 836.605 167.587 C 837.236 165.943, 834.852 165.671, 829 166.721" stroke="#b09658" fill="#b09658" fill-opacity="0.2" fill-rule="evenodd"/><path class="svg-region-VV" d="M 872.522 161.811 C 872.352 161.981, 865.103 162.547, 856.413 163.068 C 838.502 164.140, 836.696 164.923, 835.476 172.142 C 834.650 177.029, 835.702 178.733, 845.633 188.600 C 856.280 199.178, 856.946 199.542, 862.219 197.665 C 871.282 194.437, 895 194.856, 895 198.244 C 895 200.170, 927.507 197.648, 930 195.528 C 930.825 194.827, 933.075 193.972, 935 193.628 C 936.926 193.284, 941.749 191.427, 945.719 189.502 C 951.881 186.512, 953.969 186, 959.994 186 L 967.051 186 965.556 183.108 C 964.170 180.427, 957.091 174, 955.524 174 C 955.146 174, 952.184 172.445, 948.942 170.545 C 942.750 166.916, 931.500 164, 923.691 164 C 921.275 164, 917.994 163.574, 916.399 163.052 C 913.798 162.202, 873.277 161.055, 872.522 161.811" stroke="#7699d1" fill="#7699d1" fill-opacity="0.2" fill-rule="evenodd"/><path class="svg-region-B" d="M 851.999 618.625 C 851.997 626.325, 849.670 638.328, 847.553 641.560 C 844.945 645.540, 838.997 650.798, 833.500 653.983 C 828.140 657.089, 822.214 661.747, 817.760 666.356 C 815.332 668.868, 815 669.981, 815 675.606 C 815 679.175, 814.561 682, 814.006 682 C 813.460 682, 811.697 683.816, 810.089 686.036 C 807.251 689.953, 807.122 690.013, 805.743 688.044 C 804.359 686.067, 804.247 686.111, 801.364 689.758 C 798.426 693.474, 794 703.015, 794 705.633 C 794 706.385, 793.150 707, 792.111 707 C 790.724 707, 790.030 707.996, 789.499 710.750 C 788.231 717.317, 788.941 746.935, 790.531 753.790 C 791.339 757.274, 792.003 761.784, 792.006 763.812 C 792.009 765.840, 792.487 769.215, 793.069 771.311 C 794.456 776.303, 797.034 775.931, 798.553 770.520 C 799.538 767.008, 800.112 766.462, 803.582 765.737 C 805.737 765.287, 809.244 765.049, 811.376 765.209 C 814.943 765.477, 815.390 765.853, 816.976 769.922 C 818.988 775.086, 821.568 776.424, 827.751 775.507 C 831.693 774.923, 832.077 775.072, 833.018 777.546 C 834.191 780.632, 835.031 780.609, 848.813 777.110 C 853.386 775.950, 858.229 775, 859.577 775 C 860.925 775, 862.809 774.577, 863.764 774.060 C 864.719 773.544, 866.634 772.886, 868.020 772.599 C 873.181 771.530, 879.925 765.831, 886.541 756.945 C 892.209 749.332, 893.626 748, 896.054 748 C 898.330 748, 899.241 748.706, 900.565 751.496 C 902.813 756.234, 912.649 765.156, 920.260 769.362 C 932.364 776.050, 950.343 782, 958.450 782 C 963.652 782, 964.116 781.794, 966.241 778.554 C 967.587 776.500, 970.465 774.187, 973.364 772.830 C 981.059 769.226, 986.428 761.854, 990.466 749.351 C 993.373 740.346, 991.268 711.590, 986.322 692.764 C 983.707 682.809, 982 680.978, 982 688.126 C 982 691.817, 981.822 692.081, 979.750 691.457 C 978.513 691.084, 976.005 689.367, 974.177 687.640 C 971.149 684.778, 970.915 684.146, 971.541 680.500 C 972.974 672.158, 972.405 662.707, 970.181 657.915 C 968.307 653.878, 967.167 652.892, 960.637 649.665 C 954.225 646.496, 952.270 646, 946.192 646 C 937.624 646, 936.335 645.549, 934.439 641.883 C 933.073 639.240, 933.157 638.385, 935.476 631.282 C 936.864 627.032, 938 621.722, 938 619.481 L 938 615.407 931.750 615.389 C 928.313 615.378, 923.475 614.794, 921 614.090 C 917.725 613.159, 913.233 613.015, 904.500 613.563 C 887.673 614.618, 859.130 614.648, 855.250 613.615 L 852 612.750 851.999 618.625" stroke="#e23b33" fill="#e23b33" fill-opacity="0.2" fill-rule="evenodd"/><path class="svg-region-Ol" d="M 518.500 285.080 C 515.750 285.608, 510.350 286.499, 506.500 287.059 C 496.082 288.573, 486.859 291.821, 478.500 296.919 C 476.850 297.926, 472.125 300.669, 468 303.016 C 463.875 305.364, 460.275 307.567, 460 307.912 C 459.725 308.258, 458.262 309.084, 456.750 309.749 C 455.238 310.413, 454 311.417, 454 311.979 C 454 312.540, 453.554 313, 453.009 313 C 452.463 313, 449.954 314.575, 447.432 316.500 C 444.806 318.504, 441.693 320, 440.146 320 C 438.660 320, 436.353 320.788, 435.018 321.750 C 431.665 324.168, 421.389 329.940, 409.500 336.084 C 398.310 341.866, 393.817 345.130, 387.101 352.353 C 381.699 358.163, 382.882 357.012, 370.002 369 C 356.563 381.509, 352.119 386.053, 348.500 390.980 C 346.850 393.227, 344.534 396.298, 343.353 397.805 C 337.044 405.854, 320 446.609, 320 453.645 C 320 454.499, 319.374 456.616, 318.609 458.349 C 313.760 469.336, 310.315 503.572, 312.556 518.500 C 313.689 526.050, 319.947 544.606, 324.472 553.834 C 326.962 558.913, 329 563.321, 329 563.630 C 329 563.939, 329.855 565.391, 330.899 566.858 C 334.015 571.235, 346.301 595.863, 349.926 605 C 351.780 609.675, 354.318 615.750, 355.564 618.500 C 356.811 621.250, 358.376 625.300, 359.042 627.500 C 359.708 629.700, 360.840 632.176, 361.557 633.002 C 362.274 633.828, 363.344 635.628, 363.935 637.002 C 364.525 638.376, 368.212 645.575, 372.127 653 C 376.042 660.425, 383.900 675.802, 389.590 687.171 C 395.280 698.540, 400.400 708.129, 400.968 708.480 C 401.535 708.831, 402 709.798, 402 710.629 C 402 713.769, 413.639 731.549, 428.428 751 C 446.757 775.107, 449.558 778.696, 453.191 782.728 C 455.286 785.053, 457 787.559, 457 788.297 C 457 790.287, 480.192 812, 482.318 812 C 482.881 812, 484.053 812.636, 484.921 813.413 C 490.911 818.774, 525.622 830.596, 542.061 832.874 C 560.841 835.477, 578.319 826.068, 597.500 803.030 C 600.800 799.066, 605.098 793.950, 607.052 791.661 C 609.005 789.373, 612.131 785.475, 613.998 783 C 618.233 777.386, 627.828 766.476, 636.153 757.811 C 641.848 751.883, 658.194 737.889, 660.588 736.892 C 661.106 736.677, 666.895 732.900, 673.451 728.500 C 690.727 716.906, 702.306 705.013, 711.236 689.691 C 718.271 677.618, 721.223 669.292, 721.762 660 C 722.148 653.339, 721.930 652.108, 719.814 649 C 710.009 634.592, 704.116 616.764, 705.995 607.191 C 707.806 597.963, 709.929 591.372, 713.786 583 C 721.302 566.688, 724.323 556.421, 724.379 547 C 724.426 539.063, 721.753 526.181, 718.946 520.815 C 718.461 519.889, 717.638 516.514, 717.117 513.315 C 716.068 506.881, 713.014 499.104, 710.060 495.350 C 709.003 494.006, 707.825 491.465, 707.443 489.703 C 707.061 487.941, 704.507 482.027, 701.769 476.559 C 696.883 466.804, 695.067 462.056, 688.934 443 C 687.252 437.775, 684.808 430.800, 683.502 427.500 C 681.340 422.035, 679.159 415.815, 672.280 395.500 C 670.246 389.493, 668.958 384.694, 667.585 378 C 667.416 377.175, 667.018 375.825, 666.700 375 C 666.382 374.175, 664.730 369.355, 663.029 364.288 C 660.111 355.597, 657.264 349.105, 651.281 337.500 C 649.864 334.750, 648.208 331.491, 647.602 330.258 C 646.996 329.025, 646.179 328.012, 645.786 328.008 C 645.393 328.004, 644.043 326.490, 642.786 324.644 C 637.009 316.164, 625.237 303.691, 620.888 301.442 C 619.300 300.621, 618 299.582, 618 299.135 C 618 297.824, 613.664 296.210, 604.278 294.027 C 599.450 292.904, 593.925 291.560, 592 291.038 C 585.570 289.298, 575.610 288.082, 563.500 287.560 C 556.900 287.275, 548.125 286.568, 544 285.989 C 532.210 284.334, 523.920 284.038, 518.500 285.080" stroke="#aa444d" fill="#aa444d" fill-opacity="0.2" fill-rule="evenodd"/><path class="svg-region-Or" d="M 1278.500 241.633 C 1270.400 242.277, 1247.065 247.042, 1242.611 248.962 C 1240.350 249.937, 1236.475 251.654, 1234 252.778 C 1231.525 253.902, 1226.800 255.793, 1223.500 256.979 C 1217.675 259.074, 1204.108 265.965, 1197 270.439 C 1180.247 280.986, 1175.740 284.404, 1171.567 289.724 C 1162.945 300.719, 1156 311.130, 1156 313.061 C 1156 314.127, 1155.559 315, 1155.019 315 C 1154.480 315, 1153.767 316.238, 1153.437 317.750 C 1152.471 322.164, 1148.838 331, 1147.989 331 C 1147.324 331, 1146.356 335.648, 1145.905 341 C 1145.319 347.955, 1140.144 365.239, 1135.361 376.211 C 1133.513 380.452, 1132 384.542, 1132 385.300 C 1132 389.245, 1110.969 427.483, 1104.783 434.785 C 1103.252 436.591, 1102 438.659, 1102 439.380 C 1102 440.100, 1101.054 441.546, 1099.898 442.593 C 1098.741 443.639, 1097.173 445.699, 1096.412 447.170 C 1095.651 448.641, 1093.726 451.271, 1092.134 453.014 C 1090.543 454.757, 1088.624 457.379, 1087.870 458.841 C 1087.117 460.304, 1085.712 462.088, 1084.749 462.808 C 1082.862 464.216, 1080.766 468.475, 1076.535 479.500 C 1069.680 497.361, 1068.941 502.322, 1069.388 527.500 C 1069.594 539.050, 1069.997 549.175, 1070.285 550 C 1070.573 550.825, 1071.120 552.400, 1071.502 553.500 C 1071.884 554.600, 1072.582 558.200, 1073.053 561.500 C 1073.523 564.800, 1074.668 572.225, 1075.596 578 C 1077.234 588.190, 1077.591 598.710, 1077.070 621.500 C 1076.864 630.553, 1077.288 634.447, 1079.465 643.500 C 1083.978 662.262, 1086.039 668.037, 1089.645 672.029 C 1091.490 674.071, 1093 676.240, 1093 676.848 C 1093 677.456, 1094.237 678.750, 1095.750 679.723 C 1097.263 680.696, 1102.017 684.121, 1106.316 687.334 C 1113.918 693.016, 1128.304 702, 1129.801 702 C 1130.210 702, 1132.109 703.282, 1134.022 704.848 C 1135.935 706.415, 1139.163 708.479, 1141.195 709.436 C 1145.287 711.362, 1155.659 720.072, 1158 723.546 C 1161.062 728.091, 1170.388 739, 1171.212 739 C 1171.681 739, 1172.387 739.802, 1172.782 740.781 C 1174.014 743.837, 1189.470 757.531, 1194.195 759.751 C 1201.636 763.249, 1209.296 763.577, 1222.483 760.961 L 1234.028 758.670 1241.764 761.487 C 1256.436 766.830, 1264.092 766.067, 1282.686 757.408 C 1299.240 749.700, 1309 743.763, 1309 741.403 C 1309 740.631, 1309.338 739.999, 1309.750 739.997 C 1310.569 739.995, 1324.634 726.493, 1329.588 720.953 C 1333.927 716.101, 1347.007 701.176, 1350 697.661 C 1358.508 687.671, 1370.010 674.953, 1380 664.488 C 1397.754 645.889, 1403.056 640.150, 1410.474 631.500 C 1414.247 627.100, 1418.052 623.141, 1418.930 622.703 C 1419.808 622.265, 1421.645 620.272, 1423.013 618.275 C 1424.381 616.278, 1425.952 614.162, 1426.504 613.572 C 1427.057 612.982, 1429.510 610.025, 1431.956 607 C 1434.402 603.975, 1437.427 600.375, 1438.678 599 C 1442.399 594.909, 1460 571.117, 1460 570.177 C 1460 569.700, 1460.900 568.495, 1462 567.500 C 1463.100 566.505, 1464 565.122, 1464 564.428 C 1464 563.734, 1464.348 563.017, 1464.773 562.833 C 1467.306 561.741, 1485.215 528.280, 1489.571 516.500 C 1490.792 513.200, 1493.214 506.675, 1494.953 502 C 1505.977 472.376, 1508.037 434.868, 1499.869 412.500 C 1498.180 407.875, 1492.266 396.170, 1488.182 389.370 C 1486.157 385.998, 1483.150 380.902, 1481.500 378.045 C 1479.850 375.188, 1477.150 370.781, 1475.500 368.250 C 1473.850 365.720, 1471.994 362.800, 1471.376 361.761 C 1470.758 360.722, 1469.176 358.664, 1467.861 357.186 C 1466.546 355.709, 1464.656 353.025, 1463.662 351.223 C 1462.668 349.421, 1460.875 346.911, 1459.677 345.647 C 1453.868 339.515, 1437.426 319.840, 1434.065 315 C 1428.768 307.370, 1417.043 295.380, 1408.500 288.855 C 1403.550 285.074, 1396.369 279.318, 1392.542 276.063 C 1388.714 272.809, 1381.964 267.995, 1377.542 265.367 C 1373.119 262.739, 1367.239 258.501, 1364.475 255.950 C 1359.682 251.527, 1353.718 248.605, 1344.500 246.164 C 1329.063 242.076, 1326.175 241.734, 1305 241.486 C 1293.175 241.348, 1281.250 241.414, 1278.500 241.633" stroke="#aa444d" fill="#aa444d" fill-opacity="0.2" fill-rule="evenodd"/><path class="svg-region-BPCl" d="M 802.129 464.622 C 800.420 465.819, 799.942 466.916, 800.304 468.809 C 800.664 470.692, 800.157 471.875, 798.397 473.260 C 795.392 475.623, 795.214 480.708, 797.874 488.212 C 798.904 491.121, 800.297 497.325, 800.969 502 C 801.641 506.675, 803.115 514.775, 804.243 520 C 807.014 532.823, 808.096 582.678, 805.684 586.359 C 804.747 587.789, 803.787 593.574, 803.077 602.062 C 801.650 619.127, 801.529 620.084, 798.959 634.500 C 797.783 641.100, 796.450 651.675, 795.997 658 C 795.014 671.730, 793.750 679.912, 791.052 690 C 789.949 694.125, 789.036 699.638, 789.024 702.250 C 789.002 706.656, 789.181 707, 791.500 707 C 792.875 707, 794.002 706.438, 794.005 705.750 C 794.014 703.192, 798.600 693.376, 801.450 689.813 C 804.294 686.258, 804.449 686.196, 805.782 688.099 C 807.108 689.993, 807.284 689.908, 810.089 686.036 C 811.697 683.816, 813.460 682, 814.006 682 C 814.559 682, 815 679.224, 815 675.751 L 815 669.503 822.058 662.879 C 825.940 659.236, 831.002 655.275, 833.308 654.078 C 838.203 651.536, 844.981 645.649, 847.433 641.811 C 849.879 637.980, 852 626.804, 852 617.741 C 852 611.218, 851.681 609.707, 850 608.268 C 848.900 607.326, 848 606.181, 848 605.723 C 848 605.265, 846.202 602.243, 844.005 599.007 C 836.533 588.004, 834.968 584.171, 834.004 574.510 C 833.509 569.554, 832.628 563.925, 832.046 562 C 830.502 556.891, 828.007 542.065, 828.003 537.973 C 828.001 536.032, 827.336 533.497, 826.525 532.339 C 825.631 531.063, 824.616 525.571, 823.949 518.407 C 822.916 507.299, 822.193 504.583, 817.061 492.500 C 815.849 489.646, 814 477.997, 814 473.211 C 814 470.305, 813.266 468.281, 811.411 466.077 C 808.524 462.645, 805.605 462.188, 802.129 464.622 M 872.409 562.805 C 869.848 566.105, 859 586.811, 859 588.400 C 859 589.030, 857.466 591.875, 855.590 594.723 C 851.194 601.398, 850.328 605.125, 852.712 607.110 C 856.244 610.050, 864.583 613.158, 868.052 612.828 L 871.500 612.500 871.765 606 C 871.911 602.425, 872.443 598.600, 872.947 597.500 C 873.451 596.400, 874.538 591.900, 875.363 587.500 C 876.188 583.100, 877.604 576.157, 878.510 572.070 C 879.734 566.550, 879.886 564.044, 879.100 562.320 C 877.709 559.268, 875.002 559.464, 872.409 562.805" stroke="#83385f" fill="#83385f" fill-opacity="0.2" fill-rule="evenodd"/><path class="svg-region-BPCr" d="M 979.182 463.750 C 978.599 465.262, 977.838 468.525, 977.490 471 C 976.243 479.873, 971.798 496.561, 969.827 499.765 C 968.408 502.071, 967.568 505.922, 966.963 512.884 C 966.016 523.786, 963.416 539.843, 962.041 543.283 C 961.553 544.502, 960.210 550.900, 959.055 557.500 C 955.267 579.157, 952.541 590.167, 949.397 596.500 C 945.182 604.989, 942.279 609.920, 940.250 612.033 C 938.556 613.798, 938 615.561, 938 619.168 C 938 621.803, 937.389 625.656, 936.643 627.730 C 934.435 633.866, 933 638.572, 933 639.675 C 933 640.243, 934.104 641.899, 935.452 643.354 C 937.697 645.776, 938.559 646, 945.643 646 C 952.616 646, 954.098 646.369, 960.627 649.730 C 967.009 653.015, 968.145 654.039, 970.143 658.305 C 972.549 663.442, 973.049 671.157, 971.553 680.038 C 970.808 684.456, 970.896 684.674, 974.897 688.288 C 979.057 692.046, 981.933 693.032, 982.081 690.750 C 982.232 688.429, 982.704 684.536, 983.867 676 C 985.344 665.169, 984.196 656.823, 978.914 640 C 974.873 627.130, 974.170 621.158, 976.125 616.297 C 978.637 610.048, 979.605 608.330, 982.732 604.569 C 987.604 598.711, 991 591.238, 991 586.374 C 991 583.781, 989.424 578.144, 986.930 571.821 L 982.860 561.500 984.034 554.500 C 984.679 550.650, 985.424 546.825, 985.688 546 C 985.952 545.175, 986.552 540.496, 987.020 535.603 C 987.745 528.028, 988.327 526.072, 990.936 522.440 C 993.162 519.340, 994 517.053, 994 514.074 C 994 511.444, 995.252 507.374, 997.494 502.713 C 1001.772 493.820, 1006.053 474.899, 1004.387 472.242 C 1003.787 471.284, 1002.345 470.358, 1001.184 470.185 C 1000.022 470.012, 996.852 467.875, 994.139 465.435 C 989.853 461.582, 988.618 461, 984.724 461 C 980.759 461, 980.120 461.317, 979.182 463.750 M 913.500 560.669 C 911.850 562.661, 910.194 565.013, 909.820 565.896 C 908.487 569.042, 909.044 574.600, 911.351 581.189 C 912.753 585.194, 913.360 588.404, 912.862 589.189 C 912.405 589.910, 912.024 591.721, 912.015 593.212 C 911.994 597.054, 915.783 606.703, 917.585 607.394 C 918.415 607.713, 919.538 609.244, 920.079 610.797 C 921.187 613.976, 925.501 616, 931.166 616 C 937.134 616, 940.498 609.577, 936 606.768 C 934.900 606.081, 934 604.714, 934 603.729 C 934 602.745, 932.815 599.141, 931.367 595.720 C 929.918 592.299, 928.114 586.869, 927.356 583.653 C 926.598 580.438, 925.308 576.850, 924.489 575.681 C 923.670 574.512, 923 571.790, 923 569.632 C 923 566.159, 918.620 556.956, 917 557.025 C 916.725 557.036, 915.150 558.676, 913.500 560.669" stroke="#83385f" fill="#83385f" fill-opacity="0.2" fill-rule="evenodd"/><path class="svg-region-AMC" d="M 818.875 363.436 C 813.461 367.073, 813.112 370.211, 817.524 375.595 C 820.765 379.550, 820.923 380, 819.067 380 C 817.930 380, 817 380.135, 817 380.300 C 817 380.466, 819.475 383.156, 822.500 386.279 C 828.462 392.435, 829.065 394.626, 826.919 402.352 C 825.697 406.752, 826.917 413.383, 830.197 420.171 C 832.729 425.413, 834.971 432.793, 835.004 436 C 835.019 437.375, 835.477 439.175, 836.023 440 C 836.875 441.288, 837.261 441.199, 838.757 439.367 C 839.716 438.194, 841.470 436.738, 842.656 436.132 C 844.906 434.982, 850 426.792, 850 424.324 C 850 423.178, 851.150 423.031, 855.904 423.569 C 860.923 424.136, 862.507 423.887, 866.477 421.905 C 869.045 420.622, 871.354 419.236, 871.608 418.825 C 872.704 417.052, 867.318 411.018, 863.250 409.461 C 860.913 408.566, 859 407.412, 859 406.895 C 859 406.379, 856.965 404.666, 854.479 403.089 C 851.992 401.512, 848.586 398.496, 846.911 396.388 C 845.235 394.279, 841.982 391.599, 839.682 390.432 C 827.601 384.304, 826.695 383.544, 830.367 382.623 C 833.732 381.778, 837.675 371.044, 836.056 367.135 C 834.620 363.668, 831.989 362.072, 826.728 361.478 C 823.390 361.102, 821.737 361.514, 818.875 363.436 M 967.495 364.739 C 965.605 366.169, 964 372.637, 964 378.821 L 964 385 968.374 385 C 971.219 385, 974.365 384.096, 977.374 382.415 C 981.782 379.951, 982 379.622, 982 375.430 C 982 369.669, 978.266 365.396, 972.500 364.559 C 970.300 364.240, 968.048 364.321, 967.495 364.739 M 981.250 384.721 C 978.913 385.529, 977 386.594, 977 387.089 C 977 388.650, 968.801 394, 966.407 394 C 965.146 394, 962.524 394.938, 960.581 396.085 C 957.982 397.618, 956.215 397.987, 953.899 397.478 C 950.339 396.696, 949.040 397.919, 949.015 402.079 C 949.002 404.355, 947.767 405.263, 938.469 409.829 C 932.677 412.673, 927.304 415, 926.528 415 C 925.753 415, 924.819 415.483, 924.454 416.074 C 923.209 418.089, 927.875 421.504, 935.193 423.933 C 944.179 426.916, 944.252 426.970, 947.480 433.144 C 950.617 439.142, 958.743 447.292, 963.256 448.965 C 965.040 449.626, 967.281 450.579, 968.236 451.083 C 969.191 451.588, 970.907 452, 972.048 452 C 973.948 452, 974.067 451.601, 973.466 447.250 C 973.105 444.637, 972.177 439.960, 971.405 436.856 C 970.632 433.751, 970 429.814, 970 428.106 C 970 426.398, 969.647 425, 969.216 425 C 967.340 425, 965 418.892, 965 413.997 C 965 407.382, 967.080 403.032, 971.454 400.500 C 982.227 394.265, 985.939 391.669, 989.958 387.559 L 994.416 383 989.958 383.126 C 987.506 383.195, 983.587 383.913, 981.250 384.721" stroke="#9d4741" fill="#9d4741" fill-opacity="0.2" fill-rule="evenodd"/>
    </svg>