<svg xmlns="http://www.w3.org/2000/svg" width="1785" height="1131" viewBox="0 0 1785 1131" version="1.1">
    <path class="svg-region-AP" d="M 866.054 428.266 C 862.104 429.289, 849.944 440.724, 847.520 445.693 C 845.926 448.964, 840.300 453.974, 838.181 454.012 C 836.860 454.036, 830.090 464.974, 829.081 468.713 C 821.880 495.411, 820.428 508.794, 822.979 524.961 C 824.914 537.227, 828.003 553.267, 829.081 556.643 C 830.220 560.210, 830.725 560.346, 849 561.979 C 860.897 563.042, 869.314 565.246, 871.805 567.950 C 877.534 574.170, 878 575.135, 878.017 580.835 C 878.031 585.458, 878.464 586.907, 880.368 588.711 C 882.402 590.639, 882.777 592.178, 883.287 600.711 C 883.816 609.557, 883.682 610.704, 881.892 612.612 L 879.911 614.724 883.705 615.351 C 889.802 616.358, 896.504 616.096, 897.800 614.800 C 898.460 614.140, 899 611.781, 899 609.559 C 899 606.893, 900.275 602.961, 902.745 598.009 C 906.086 591.309, 906.527 589.531, 906.832 581.500 C 907.156 573.007, 907.350 572.317, 910.284 569.250 C 911.993 567.462, 913.910 566, 914.543 566 C 915.175 566, 917.148 565.274, 918.926 564.387 C 922.917 562.396, 937.104 563.179, 947.074 565.940 C 950.608 566.919, 954.147 567.896, 954.938 568.110 C 955.901 568.371, 956.626 567.344, 957.133 565 C 957.549 563.075, 958.387 559.475, 958.994 557 C 961.160 548.175, 963.025 537.393, 963.578 530.500 C 963.887 526.650, 964.540 522.600, 965.028 521.500 C 965.517 520.400, 967.079 515.945, 968.501 511.600 C 971.919 501.156, 974.393 495.859, 976.922 493.570 C 978.065 492.536, 979 491.226, 979 490.659 C 979 490.093, 979.977 488.589, 981.171 487.318 C 983.155 485.206, 983.219 484.773, 981.921 482.291 C 980.237 479.071, 975.009 474.071, 973.283 474.029 C 972.614 474.013, 969.867 472.046, 967.178 469.658 C 964.488 467.269, 961.402 464.682, 960.319 463.908 C 959.236 463.133, 957.508 460.137, 956.478 457.250 C 954.743 452.386, 954.367 452, 951.374 452 C 947.865 452, 947.630 451.810, 941.040 443.660 C 937.636 439.450, 935.741 437.987, 933.040 437.482 C 931.093 437.119, 929.050 436.470, 928.500 436.041 C 927.950 435.612, 925.760 434.947, 923.632 434.563 C 921.505 434.179, 917.288 432.733, 914.262 431.348 C 909.177 429.022, 907.760 428.846, 895.629 429.027 C 888.408 429.134, 879.494 428.827, 875.820 428.344 C 872.146 427.861, 867.751 427.826, 866.054 428.266 M 781.619 453.750 C 781.981 455.262, 782.687 457.301, 783.189 458.280 C 783.692 459.259, 784.969 462.773, 786.029 466.090 C 787.088 469.406, 789.269 474.905, 790.876 478.310 C 792.482 481.714, 794.105 486.525, 794.482 489 C 794.860 491.475, 795.805 495.719, 796.584 498.432 C 797.363 501.144, 798.020 504.969, 798.044 506.932 C 798.068 508.894, 798.713 512.750, 799.477 515.500 L 800.865 520.500 800.954 516 C 801.004 513.525, 801.934 509.538, 803.022 507.141 C 805.251 502.229, 805.514 498.830, 803.900 495.813 C 803.295 494.683, 802.578 491.519, 802.307 488.783 C 801.937 485.041, 800.489 481.662, 796.470 475.154 C 793.530 470.394, 789.035 463.012, 786.481 458.750 C 783.927 454.488, 781.640 451, 781.400 451 C 781.159 451, 781.258 452.238, 781.619 453.750 M 989.632 491.646 C 988.078 494.905, 986.504 499.440, 981.483 515.134 C 980.667 517.683, 980 522.722, 980 526.333 C 980 531.949, 980.361 533.287, 982.500 535.595 C 985.834 539.192, 985.654 541.776, 981.586 548.717 C 978.395 554.163, 978.233 554.862, 979.092 559.462 C 979.597 562.169, 980.909 565.338, 982.006 566.506 C 983.221 567.800, 984.056 570.166, 984.143 572.564 C 984.348 578.248, 985.646 561.214, 986.469 542.020 C 986.857 532.957, 987.586 524.774, 988.088 523.836 C 988.589 522.899, 989.014 519.739, 989.032 516.816 C 989.050 513.736, 989.681 510.683, 990.532 509.559 C 991.339 508.491, 992 506.324, 992 504.743 C 992 503.162, 992.390 501.111, 992.866 500.184 C 993.342 499.258, 994.033 496.137, 994.400 493.250 C 994.997 488.568, 994.869 488, 993.220 488 C 992.077 488, 990.706 489.393, 989.632 491.646 M 800.758 528.575 C 800.442 528.892, 800.541 530.401, 800.980 531.930 C 801.418 533.458, 801.829 538.182, 801.893 542.428 C 801.957 546.674, 802.441 550.956, 802.969 551.943 C 803.497 552.930, 803.686 553.981, 803.388 554.279 C 803.090 554.577, 803.541 557.448, 804.391 560.660 C 805.241 563.872, 806.124 567.400, 806.352 568.500 C 806.581 569.600, 806.793 568.700, 806.824 566.500 C 806.855 564.300, 806.427 560.250, 805.873 557.500 C 804.427 550.323, 802.113 529.637, 802.658 528.750 C 803.195 527.875, 801.605 527.728, 800.758 528.575 M 982.088 582.268 C 981.384 585.146, 979.576 589.300, 978.070 591.500 C 974.572 596.611, 973.694 599, 975.316 599 C 977.583 599, 985.438 579.105, 983.813 577.480 C 983.569 577.235, 982.793 579.390, 982.088 582.268" stroke="#fc7143" fill="#fc7143" fill-opacity="0.2" fill-rule="evenodd"/><path class="svg-region-PP" d="M 895.250 334.802 C 892.362 334.969, 890 335.558, 890 336.111 C 890 336.665, 889.527 336.826, 888.950 336.469 C 888.372 336.112, 886.235 336.619, 884.200 337.595 C 882.165 338.572, 878.923 339.418, 876.995 339.475 C 875.067 339.533, 873.042 339.856, 872.495 340.193 C 871.948 340.530, 866.957 341.128, 861.404 341.521 C 853.693 342.067, 850.741 341.916, 848.904 340.882 C 845.223 338.811, 820.460 339.194, 816.217 341.388 C 812.650 343.232, 811.443 346.386, 812.436 351.263 C 812.798 353.043, 813.340 355.899, 813.640 357.609 C 814.045 359.915, 815.084 361.146, 817.662 362.376 C 819.573 363.287, 821.471 363.827, 821.879 363.575 C 822.287 363.323, 824.449 363.580, 826.683 364.147 C 829.470 364.855, 832.377 366.832, 835.949 370.448 C 841.146 375.711, 841.152 375.723, 840.066 379.756 C 838.944 383.923, 837.579 385, 833.418 385 C 830.056 385, 830.400 386.449, 834.311 388.756 C 836.428 390.005, 838.747 390.544, 840.744 390.251 C 843.670 389.821, 843.936 390.047, 844.952 393.821 C 845.845 397.139, 846.574 397.967, 849.086 398.519 C 850.763 398.887, 853.342 399.818, 854.817 400.588 C 856.293 401.358, 858.408 401.990, 859.518 401.994 C 860.628 401.997, 863.298 403.197, 865.451 404.660 C 867.604 406.124, 872.321 407.940, 875.933 408.696 C 879.545 409.452, 884.081 411.115, 886.013 412.393 C 891.752 416.186, 893.072 416.240, 898 412.880 C 902.189 410.024, 902.928 409.855, 908.696 410.429 C 914.192 410.975, 916.282 410.585, 927.190 406.977 C 940.278 402.649, 944 400.789, 944 398.577 C 944 397.820, 945.575 394.861, 947.500 392 C 949.425 389.139, 951 385.549, 951 384.022 C 951 380.229, 953.665 374.052, 956.683 370.852 C 959.107 368.280, 959.129 368.127, 957.455 365.572 C 956.093 363.494, 955.843 361.549, 956.262 356.323 C 956.919 348.137, 955.628 343.593, 953.039 344.979 C 952.062 345.502, 950.957 345.623, 950.583 345.249 C 949.816 344.483, 948.325 344.377, 935.194 344.156 C 926.376 344.008, 925.746 343.852, 923.194 341.173 C 920.270 338.104, 915.043 336.256, 906.775 335.368 C 903.874 335.057, 901.275 334.734, 901 334.651 C 900.725 334.568, 898.138 334.636, 895.250 334.802" stroke="#c4743d" fill="#c4743d" fill-opacity="0.2" fill-rule="evenodd"/><path class="svg-region-AVCl" d="M 830.958 560.376 C 829.436 561.897, 836.350 597.861, 840.116 608.016 L 841.049 610.531 846.395 605.516 C 849.335 602.757, 852.493 599.150, 853.413 597.500 C 856.974 591.110, 868.537 577, 870.211 577 C 870.744 577, 871.995 575.993, 872.992 574.761 C 874.584 572.796, 874.639 572.203, 873.450 569.902 C 871.224 565.599, 864.170 563.352, 848.500 561.953 C 842.450 561.413, 836.143 560.723, 834.484 560.418 C 832.825 560.114, 831.238 560.095, 830.958 560.376 M 878.573 587.883 C 878.180 588.518, 877.970 592.966, 878.105 597.769 C 878.240 602.571, 877.988 608.188, 877.544 610.250 C 876.836 613.545, 876.967 613.996, 878.619 613.968 C 879.654 613.951, 881.294 613.334, 882.264 612.598 C 883.824 611.414, 883.952 610.111, 883.372 601.268 C 882.907 594.175, 882.220 590.617, 881.002 589.002 C 879.841 587.463, 879.056 587.101, 878.573 587.883" stroke="#ffbab9" fill="#ffbab9" fill-opacity="0.2" fill-rule="evenodd"/><path class="svg-region-AVCr" d="M 920.250 563.600 C 919.438 563.968, 919 566.423, 919 570.606 C 919 576.149, 919.572 578.188, 923.117 585.272 C 925.904 590.841, 928.974 595.155, 932.617 598.622 C 935.578 601.438, 938 604.404, 938 605.211 C 938 606.858, 942.645 609.338, 944.075 608.454 C 944.584 608.139, 945 607.371, 945 606.746 C 945 606.121, 946.116 604.445, 947.480 603.021 C 949.313 601.108, 950.369 598.223, 951.527 591.966 C 952.389 587.310, 953.482 582.150, 953.957 580.500 C 954.432 578.850, 955.089 575.605, 955.416 573.288 C 956.113 568.360, 955.156 567.556, 946.073 565.444 C 939.816 563.990, 922.171 562.730, 920.250 563.600 M 905.365 591.750 C 904.995 593.263, 903.387 596.830, 901.791 599.678 C 899.401 603.945, 898.948 605.792, 899.215 610.178 C 899.533 615.399, 899.563 615.445, 900.794 612.622 C 901.931 610.012, 902.404 609.791, 905.858 610.254 C 914.469 611.409, 915.027 607.361, 908.344 592.250 C 906.593 588.291, 906.227 588.230, 905.365 591.750" stroke="#ffbab9" fill="#ffbab9" fill-opacity="0.2" fill-rule="evenodd"/><path class="svg-region-DMl" d="M 773.282 354.366 C 768.212 356.090, 764.050 358.066, 764.032 358.759 C 764.014 359.451, 765.350 361.881, 767 364.159 C 768.650 366.436, 770 369.380, 770 370.700 C 770 376.113, 775.336 382.011, 780.215 381.990 C 787.424 381.959, 812.242 364.842, 809.318 361.918 C 808.768 361.368, 805.255 359.848, 801.511 358.539 C 797.768 357.231, 793.628 355, 792.312 353.581 C 789.148 350.168, 785.140 350.334, 773.282 354.366" stroke="#68533d" fill="#68533d" fill-opacity="0.2" fill-rule="evenodd"/><path class="svg-region-DMr" d="M 1010.235 337.030 C 1007.889 337.509, 1005.414 338.251, 1004.735 338.678 C 1004.056 339.105, 999.225 339.794, 994 340.209 C 973.391 341.846, 967.897 342.544, 967.213 343.615 C 966.821 344.229, 965.600 345.029, 964.500 345.393 C 961.824 346.280, 958.554 349.097, 957.147 351.726 C 955.477 354.846, 955.727 363.165, 957.570 365.796 L 959.139 368.037 961.974 366.018 C 965.751 363.329, 968.565 363.474, 971.605 366.514 C 973.814 368.723, 974.037 369.571, 973.446 373.514 C 972.702 378.475, 973.478 379.044, 977.444 376.445 C 979.036 375.401, 981.569 374.990, 985.135 375.195 C 989.623 375.452, 990.641 375.882, 991.668 377.952 C 993.609 381.860, 1006.991 384.378, 1018.379 382.977 C 1022.249 382.501, 1022.267 382.515, 1025.553 388.691 L 1028.848 394.882 1030.405 392.504 C 1031.262 391.196, 1032.436 388.016, 1033.014 385.437 C 1033.592 382.858, 1034.925 378.861, 1035.975 376.554 C 1041.049 365.417, 1041.937 359.970, 1039.896 352.500 C 1038.136 346.055, 1034.782 342.526, 1027.737 339.705 C 1019.849 336.548, 1015.701 335.914, 1010.235 337.030" stroke="#68533d" fill="#68533d" fill-opacity="0.2" fill-rule="evenodd"/><path class="svg-region-VMl" d="M 809.304 361.637 C 812.187 364.521, 787.458 381.843, 780.167 382.047 C 779.250 382.072, 774.675 385.360, 770 389.353 C 762.571 395.698, 761.461 397.070, 761.194 400.236 C 761.007 402.452, 761.687 405.426, 762.944 407.890 C 764.075 410.107, 765 412.627, 765 413.490 C 765 416.702, 772.936 434.449, 778.394 443.441 C 780.377 446.709, 782 449.992, 782 450.738 C 782 451.483, 786.500 459.318, 792 468.147 C 800.084 481.125, 802 484.928, 802 487.992 C 802 490.076, 802.824 493.622, 803.831 495.872 C 805.624 499.877, 805.703 499.924, 807.581 498.104 C 811.017 494.775, 813 492.006, 813 490.536 C 813 489.743, 813.408 488.060, 813.907 486.797 C 817.950 476.554, 819.573 473.115, 821.656 470.384 C 823.444 468.040, 824.194 465.498, 824.608 460.371 C 824.914 456.592, 825.648 452.150, 826.240 450.500 C 827.660 446.538, 832.490 441.426, 837.747 438.321 C 843.304 435.040, 849.717 427.677, 850.985 423.123 C 851.969 419.588, 851.861 419.366, 846.551 414 C 843.557 410.975, 835.908 403.217, 829.554 396.761 L 818 385.021 818 375.570 C 818 370.347, 818.447 365.841, 819 365.500 C 820.651 364.480, 820.145 363.387, 817.453 362.161 C 814.797 360.950, 808.193 360.526, 809.304 361.637" stroke="#e59376" fill="#e59376" fill-opacity="0.2" fill-rule="evenodd"/><path class="svg-region-VMr" d="M 992 382 C 992 382.550, 990.045 383, 987.655 383 C 984.577 383, 982.781 383.584, 981.496 385.004 C 980.499 386.107, 977.949 387.475, 975.829 388.046 C 971.538 389.202, 961.060 396.194, 956.599 400.879 C 955.003 402.554, 952.978 405.488, 952.099 407.397 C 950.586 410.682, 939.696 421.268, 936.855 422.215 C 935.909 422.530, 936.311 423.581, 938.267 425.905 C 939.770 427.692, 941.261 430.192, 941.580 431.461 C 942.192 433.902, 946.306 436.117, 953.705 437.989 C 959.723 439.512, 961 441.189, 961 447.571 C 961 452.937, 960.965 453, 958 453 C 955.081 453, 953.795 455.138, 955.923 456.452 C 956.431 456.766, 957.142 458.368, 957.503 460.011 C 957.864 461.655, 958.461 463.001, 958.829 463.001 C 959.198 463.002, 961.525 464.834, 964 467.072 C 966.475 469.310, 970.799 472.638, 973.609 474.468 C 976.418 476.297, 979.712 479.191, 980.928 480.899 C 982.666 483.340, 983.643 483.877, 985.497 483.411 C 989.153 482.494, 992.273 483.848, 991.685 486.096 C 991.301 487.566, 991.719 488, 993.517 488 C 995.530 488, 996.206 486.945, 998.484 480.250 C 999.934 475.988, 1001.522 470.627, 1002.013 468.339 C 1002.505 466.050, 1003.788 462.225, 1004.866 459.839 C 1005.944 457.452, 1007.347 453.819, 1007.986 451.764 C 1008.624 449.709, 1009.563 447.770, 1010.073 447.455 C 1010.583 447.140, 1011 446.002, 1011 444.927 C 1011 443.852, 1011.439 442.191, 1011.976 441.236 C 1013.909 437.795, 1024.745 407.341, 1026.508 400.394 L 1028.311 393.287 1025.061 387.606 C 1022.736 383.544, 1021.339 382.058, 1020.155 382.390 C 1014.969 383.847, 1008.015 383.904, 1003 382.530 C 996.638 380.788, 992 380.564, 992 382" stroke="#e59376" fill="#e59376" fill-opacity="0.2" fill-rule="evenodd"/><path class="svg-region-PV" d="M 838.086 168.092 C 836.758 168.623, 835.183 168.890, 834.586 168.686 C 833.989 168.482, 831.925 169.303, 830 170.511 C 828.075 171.719, 825.487 173.029, 824.250 173.421 C 823.013 173.814, 822 174.506, 822 174.959 C 822 175.412, 820.935 176.051, 819.633 176.377 C 814.990 177.542, 805.960 189.508, 807.654 192.250 C 807.939 192.710, 807.622 193.750, 806.950 194.560 C 805.631 196.149, 806.281 205.643, 807.923 208.784 C 809.820 212.412, 813 221.348, 813 223.050 C 813 224.031, 813.337 224.983, 813.750 225.167 C 815.041 225.741, 819 231.853, 819 233.272 C 819 234.017, 820.340 235.909, 821.977 237.478 C 825.157 240.524, 832 253.742, 832 256.838 C 832 257.862, 833.249 260.455, 834.775 262.600 C 836.301 264.745, 840.092 271.685, 843.198 278.022 C 846.304 284.359, 850.704 291.655, 852.976 294.235 C 861.822 304.285, 876.030 308.123, 901.887 307.449 C 916.492 307.068, 923.775 305.617, 928.757 302.096 C 929.999 301.218, 933.340 296.450, 936.181 291.500 C 939.022 286.550, 942.961 280.475, 944.934 278 C 949.838 271.848, 953.958 265.711, 958.359 258 C 960.400 254.425, 963.188 249.700, 964.556 247.500 C 965.923 245.300, 967.343 242.825, 967.710 242 C 968.078 241.175, 969.782 238.250, 971.497 235.500 C 973.212 232.750, 975.223 228.588, 975.967 226.250 C 976.711 223.912, 977.640 222, 978.030 222 C 978.951 222, 980.102 214.371, 980.532 205.416 C 980.800 199.837, 980.353 196.864, 978.427 191.416 C 974.424 180.096, 971.683 176.269, 964.906 172.538 C 956.055 167.665, 942 171.452, 942 178.710 C 942 183.857, 937.104 189.330, 930.271 191.821 C 926.984 193.019, 923.010 194, 921.439 194 C 919.503 194, 917.324 195.207, 914.667 197.750 C 911.985 200.317, 910.597 201.082, 910.266 200.173 C 909.837 198.997, 907.890 196.694, 902.297 190.750 C 899.895 188.197, 884.537 188.349, 877 191 C 873.975 192.064, 870.818 192.949, 869.985 192.967 C 867.687 193.017, 856.730 182.073, 854.217 177.219 C 852.997 174.865, 852 171.602, 852 169.969 C 852 167.014, 851.973 167, 846.250 167.063 C 843.087 167.098, 839.414 167.561, 838.086 168.092" stroke="#b09658" fill="#b09658" fill-opacity="0.2" fill-rule="evenodd"/><path class="svg-region-VV" d="M 875.432 165.968 C 874.899 166.501, 869.409 167.014, 863.232 167.109 L 852 167.282 852 170.148 C 852 174.705, 856.951 182.657, 863.139 188.039 C 866.276 190.768, 869.440 192.985, 870.171 192.967 C 870.902 192.949, 873.975 192.064, 877 191 C 880.843 189.648, 885.234 189.055, 891.575 189.033 C 899.466 189.004, 900.901 189.268, 902.575 191.056 C 903.634 192.187, 905.444 194.099, 906.598 195.306 C 907.752 196.513, 909.225 198.502, 909.871 199.727 C 911.035 201.934, 911.080 201.917, 914.639 197.977 C 917.324 195.006, 918.999 194, 921.264 194 C 922.931 194, 926.984 193.019, 930.271 191.821 C 934.816 190.164, 936.935 188.691, 939.123 185.671 C 940.706 183.487, 941.985 180.755, 941.967 179.600 C 941.930 177.262, 938.780 173, 937.090 173 C 936.490 173, 936 172.622, 936 172.161 C 936 170.713, 931.076 169, 926.918 169 C 924.724 169, 921.933 168.377, 920.715 167.615 C 915.847 164.571, 900.324 164.935, 896.550 168.183 C 894.799 169.689, 889.938 169.020, 887.737 166.969 C 885.463 164.851, 882.318 164.750, 882.750 166.809 C 883.100 168.476, 881.489 168.294, 880 166.500 C 878.569 164.776, 876.827 164.573, 875.432 165.968" stroke="#7699d1" fill="#7699d1" fill-opacity="0.2" fill-rule="evenodd"/><path class="svg-region-B" d="M 912.020 609.476 C 911.231 610.426, 911.155 611, 911.819 611 C 913.027 611, 914.436 609.103, 913.743 608.409 C 913.491 608.158, 912.716 608.638, 912.020 609.476 M 901.052 612.363 C 900.558 613.663, 899.106 615.007, 897.827 615.350 C 894.359 616.278, 887.079 616.085, 882.073 614.931 C 877.971 613.985, 877.494 614.091, 875.573 616.374 C 874.433 617.729, 871.526 619.887, 869.114 621.169 C 862.061 624.918, 861.026 625.601, 857.996 628.504 C 856.301 630.128, 854.493 631.019, 853.594 630.674 C 852.363 630.202, 852.184 630.669, 852.667 633.086 C 853.022 634.862, 852.631 637.594, 851.706 639.791 C 850.847 641.831, 849.876 644.749, 849.547 646.275 C 848.659 650.399, 845.870 652.623, 839.044 654.649 C 834.070 656.126, 832.199 657.322, 829.084 661.015 C 823.124 668.084, 819.496 676.360, 817.104 688.350 C 815.913 694.317, 814.087 700.870, 813.045 702.912 C 811.789 705.373, 811.457 707.110, 812.060 708.063 C 812.560 708.853, 812.996 720.525, 813.029 734 C 813.087 757.930, 813.607 762.966, 816.746 770 C 817.360 771.375, 818.126 773.737, 818.450 775.250 C 819.093 778.256, 821.070 778.825, 822.959 776.549 C 824.620 774.548, 829.634 774.009, 850.500 773.587 C 869.857 773.196, 871.892 772.709, 878.051 767 C 886.663 759.016, 888 757.609, 888 756.534 C 888 755.882, 889.161 754.258, 890.581 752.924 C 893.109 750.549, 893.190 750.540, 894.581 752.441 C 895.361 753.509, 896 754.670, 896 755.022 C 896 755.373, 898.138 757.188, 900.750 759.054 C 903.362 760.920, 908.533 764.984, 912.239 768.085 C 920.288 774.819, 926.594 777.182, 943 779.611 C 958.439 781.898, 973 781.621, 973 779.041 C 973 777.873, 969.468 775, 968.032 775 C 963.565 775, 962.861 766.266, 966.621 757.500 C 969.173 751.551, 969.849 748.757, 973.879 727.500 C 975.026 721.450, 976.423 714.928, 976.982 713.007 C 978.457 707.943, 978.280 706.692, 975.509 702.608 C 974.139 700.589, 972.594 696.589, 972.076 693.719 C 971.558 690.848, 970.092 685.042, 968.817 680.815 L 966.500 673.129 958 667.426 C 948.063 660.758, 944.272 657.434, 943.371 654.593 C 943.012 653.463, 941.884 651.405, 940.864 650.019 C 939.026 647.522, 936.812 640.210, 935.557 632.491 C 935.060 629.433, 934.186 628.070, 931.872 626.741 C 930.203 625.784, 928.424 625, 927.919 625 C 927.414 625, 927 627.400, 927 630.333 C 927 633.267, 926.691 635.976, 926.314 636.353 C 925.936 636.730, 924.761 635.118, 923.701 632.770 C 922.642 630.421, 920.647 626.997, 919.269 625.161 C 917.042 622.194, 916.386 621.893, 913.381 622.456 C 910.857 622.930, 910 622.738, 910 621.700 C 910 620.936, 909.100 619.495, 908 618.500 C 905.938 616.634, 905.225 612, 907 612 C 907.550 612, 908 611.550, 908 611 C 908 610.450, 906.639 610, 904.975 610 C 902.716 610, 901.723 610.598, 901.052 612.363 M 801.664 652.482 C 802.002 654.692, 802.830 657.625, 803.505 659 C 805.275 662.607, 806.830 670.341, 807.585 679.295 C 808.288 687.613, 808.536 688.163, 809.475 683.477 C 809.804 681.840, 810.583 678.025, 811.206 675 C 813.051 666.043, 812.662 657.500, 810.100 650.763 C 809.287 648.624, 808.547 648.268, 805.098 648.359 L 801.051 648.465 801.664 652.482 M 975.388 655.500 C 975.721 657.700, 976.241 665.125, 976.543 672 C 977.144 685.680, 978.807 694.738, 980.107 691.420 C 980.521 690.364, 980.891 684.058, 980.930 677.407 C 980.986 667.740, 980.594 664.133, 978.977 659.434 C 976.407 651.963, 974.543 649.921, 975.388 655.500" stroke="#e23b33" fill="#e23b33" fill-opacity="0.2" fill-rule="evenodd"/><path class="svg-region-Ol" d="M 525.500 294.044 C 521.100 294.461, 513.450 296.023, 508.500 297.517 C 503.550 299.010, 497.700 300.653, 495.500 301.167 C 485.454 303.515, 454.148 320.334, 443.592 329.055 C 437.848 333.801, 431.345 337.555, 413.390 346.492 C 403.551 351.389, 395.050 355.982, 394.500 356.698 C 393.950 357.414, 392.067 358.787, 390.315 359.750 C 388.563 360.712, 384.394 364.087, 381.050 367.250 C 377.706 370.413, 374.527 373, 373.985 373 C 373.443 373, 373 373.675, 373 374.500 C 373 375.325, 372.518 376, 371.929 376 C 371.339 376, 370.270 376.563, 369.553 377.250 C 368.835 377.938, 365.188 381.200, 361.448 384.500 C 343.524 400.315, 336.546 408.236, 330.615 419.500 C 329.167 422.250, 327.542 425.175, 327.005 426 C 322.335 433.167, 313.110 459.308, 306.113 485.202 C 300.246 506.917, 300.864 534.177, 307.650 553 C 310.999 562.289, 318.169 575.887, 325.841 587.500 C 333.441 599.005, 342.419 614.193, 354.646 636.232 C 359.913 645.725, 367.502 660.697, 385.195 696.500 C 389 704.200, 393.106 712.300, 394.318 714.500 C 395.531 716.700, 397.775 721.200, 399.306 724.500 C 403.636 733.836, 412.530 748.350, 416.527 752.603 C 417.097 753.210, 419.921 756.612, 422.802 760.163 C 428.735 767.476, 438.207 775.228, 444 777.513 C 450.214 779.964, 455.412 783.431, 461.464 789.161 C 465.334 792.825, 469.850 796.866, 471.500 798.143 C 473.150 799.419, 474.650 800.809, 474.833 801.232 C 475.017 801.654, 475.701 802, 476.353 802 C 477.005 802, 480.102 803.913, 483.234 806.250 C 489.031 810.577, 499.488 816.214, 508.500 819.870 C 526.499 827.173, 543.614 826.802, 559.493 818.764 C 570.838 813.023, 590.018 796.243, 604.454 779.433 C 607.728 775.620, 612.116 770.724, 614.204 768.553 C 616.292 766.382, 618 764.205, 618 763.716 C 618 762.452, 632.448 748.558, 640.634 741.951 C 646.396 737.300, 653.788 732, 654.512 732 C 654.969 732, 656.207 731.218, 657.263 730.262 C 658.320 729.306, 661.175 727.393, 663.608 726.012 C 683.964 714.455, 690.024 709.544, 696.619 699.262 C 701.807 691.174, 704.897 683.933, 707.615 673.500 C 710.564 662.182, 710.556 660.547, 707.500 648.194 C 704.654 636.690, 704.264 624.878, 706.431 615.814 C 707.892 609.700, 707.842 609.812, 716.370 593.805 C 727.048 573.764, 728.048 570.553, 729.082 553 C 729.584 544.475, 730.159 536.154, 730.360 534.508 C 730.560 532.862, 729.917 526.711, 728.929 520.838 C 727.134 510.155, 724.275 502.831, 717.090 490.500 C 712.663 482.903, 710.674 479.232, 706.245 470.489 C 704.013 466.084, 700.570 460.076, 698.594 457.139 C 696.617 454.202, 695 451.271, 695 450.627 C 695 449.982, 693.425 447.063, 691.500 444.140 C 689.575 441.217, 687.986 438.302, 687.968 437.663 C 687.951 437.023, 687.286 435.641, 686.492 434.591 C 684.787 432.338, 680 417.969, 680 415.105 C 680 414.012, 679.576 412.856, 679.058 412.536 C 678.540 412.215, 677.816 409.826, 677.449 407.227 C 677.083 404.627, 676.243 401.600, 675.583 400.500 C 674.529 398.743, 672.973 394.113, 667.374 376.072 C 666.618 373.636, 666 371.013, 666 370.243 C 666 367.286, 653.277 343.067, 647.040 334.152 C 643.443 329.011, 639.548 323.379, 638.384 321.636 C 637.220 319.894, 632.363 315.117, 627.592 311.021 C 618.690 303.379, 613.867 301.144, 606.060 301.044 C 601.406 300.984, 591.288 299.067, 587 297.432 C 585.075 296.698, 578.550 295.874, 572.500 295.602 C 566.450 295.329, 558.125 294.651, 554 294.097 C 545.519 292.956, 537.165 292.941, 525.500 294.044" stroke="#aa444d" fill="#aa444d" fill-opacity="0.2" fill-rule="evenodd"/><path class="svg-region-Or" d="M 1251.500 251.369 C 1248.750 252.098, 1243.922 253.187, 1240.772 253.789 C 1233.525 255.176, 1229.585 257.023, 1219 263.998 C 1194.656 280.040, 1177.681 295.021, 1169.143 308 C 1166.067 312.675, 1163.202 316.650, 1162.776 316.833 C 1162.349 317.017, 1161.985 318.142, 1161.966 319.333 C 1161.947 320.525, 1161.063 323.300, 1160 325.500 C 1158.937 327.700, 1158.053 330.294, 1158.034 331.264 C 1158.015 332.234, 1157.610 333.809, 1157.134 334.764 C 1156.658 335.719, 1155.702 338.075, 1155.009 340 C 1154.317 341.925, 1152.857 345.975, 1151.766 349 C 1150.675 352.025, 1148.926 359.216, 1147.880 364.981 C 1146.358 373.368, 1144.959 377.464, 1140.878 385.481 C 1138.074 390.991, 1135.211 396.175, 1134.517 397 C 1133.823 397.825, 1132.442 400.300, 1131.449 402.500 C 1128.708 408.568, 1108.829 435.990, 1107.159 436.007 C 1106.796 436.011, 1105.380 437.698, 1104.010 439.757 C 1102.641 441.816, 1096.050 448.932, 1089.365 455.571 C 1080.416 464.457, 1076.388 469.270, 1074.094 473.814 C 1068.337 485.217, 1067.824 488.766, 1067.269 521 L 1066.761 550.500 1069.759 559.500 C 1071.409 564.450, 1073.510 572.325, 1074.429 577 C 1075.348 581.675, 1076.592 587.830, 1077.193 590.679 C 1077.811 593.611, 1078.004 598.816, 1077.636 602.679 C 1075.321 626.995, 1075.750 632.740, 1081.425 653.430 C 1084.951 666.286, 1087.919 671.993, 1094.305 678.197 C 1099.505 683.250, 1114.757 693.801, 1122.751 697.875 C 1135.039 704.138, 1152.591 717.259, 1159.123 725.065 C 1168.213 735.927, 1182.185 750.978, 1185.937 753.950 C 1190.706 757.727, 1199.080 761.486, 1204.648 762.348 C 1207.104 762.729, 1212.202 762.326, 1217.148 761.360 C 1228.578 759.128, 1237.421 759.495, 1245.500 762.536 C 1253.384 765.504, 1261.531 765.746, 1268.204 763.212 C 1270.791 762.229, 1273.229 761.105, 1273.621 760.713 C 1274.013 760.321, 1275.046 760, 1275.917 760 C 1277.300 760, 1286.162 755.333, 1300.870 746.859 C 1305.104 744.420, 1321.711 730.439, 1324.918 726.614 C 1325.788 725.576, 1331.225 719.317, 1337 712.705 C 1342.775 706.092, 1349.498 698.166, 1351.939 695.091 C 1354.381 692.016, 1356.902 689.050, 1357.541 688.500 C 1358.181 687.950, 1361.538 684.350, 1365.001 680.500 C 1368.465 676.650, 1378.319 666.248, 1386.899 657.384 C 1395.480 648.521, 1405.650 637.788, 1409.500 633.534 C 1413.350 629.279, 1417.644 624.606, 1419.043 623.149 C 1420.441 621.692, 1424.041 617.575, 1427.043 614 C 1430.044 610.425, 1432.767 607.275, 1433.093 607 C 1433.419 606.725, 1435.386 604.250, 1437.464 601.500 C 1439.542 598.750, 1441.573 596.275, 1441.977 596 C 1443.577 594.912, 1471 555.838, 1471 554.647 C 1471 554.404, 1472.766 551.297, 1474.925 547.744 C 1482.124 535.894, 1488.741 521.382, 1495.782 502 C 1496.881 498.975, 1498.725 491.937, 1499.879 486.360 C 1501.034 480.783, 1502.175 475.608, 1502.416 474.860 C 1502.657 474.112, 1503.114 470.575, 1503.431 467 C 1503.748 463.425, 1504.676 458.025, 1505.492 455 C 1508.729 443.003, 1506.019 426.366, 1499.165 416.167 C 1493.028 407.036, 1478.871 390.849, 1463.032 374.854 C 1456.690 368.449, 1447.650 359.224, 1442.945 354.354 C 1438.239 349.484, 1427.476 338.975, 1419.026 331 C 1410.576 323.025, 1401.376 314.294, 1398.581 311.597 C 1392.125 305.368, 1377.891 293.309, 1357.546 276.832 C 1349.106 269.996, 1324.044 258.489, 1309.649 254.841 C 1305.167 253.704, 1300.825 252.538, 1300 252.249 C 1297.547 251.388, 1295.376 251.245, 1275.500 250.632 C 1261.323 250.194, 1255.231 250.382, 1251.500 251.369" stroke="#aa444d" fill="#aa444d" fill-opacity="0.2" fill-rule="evenodd"/><path class="svg-region-BPCl" d="M 840 446.731 C 838.075 447.593, 834.025 448.812, 831 449.439 L 825.500 450.578 824.778 458.505 C 824.276 464.023, 823.444 467.261, 822.041 469.158 C 819.554 472.523, 815.822 480.892, 813.925 487.361 C 813.141 490.035, 810.926 494.061, 809.003 496.308 C 807.080 498.556, 804.991 501.768, 804.360 503.447 C 803.729 505.126, 802.626 507.937, 801.909 509.694 C 800.815 512.372, 800.899 516.003, 802.432 532.194 C 803.437 542.812, 804.692 552.625, 805.222 554 C 805.752 555.375, 806.532 562.800, 806.955 570.500 C 807.378 578.200, 808.543 588.702, 809.544 593.839 C 811.126 601.960, 811.198 603.981, 810.093 609.339 C 809.394 612.727, 808.491 615.950, 808.086 616.500 C 807.681 617.050, 806.783 619.525, 806.089 622 C 805.395 624.475, 804.106 627.625, 803.224 629 C 802.216 630.571, 801.460 634.528, 801.190 639.645 C 800.789 647.254, 800.900 647.833, 802.880 648.462 C 804.046 648.832, 805.900 648.849, 806.999 648.500 C 809.368 647.749, 810.090 649.284, 812.035 659.206 C 813.028 664.273, 813.081 666.839, 812.249 669.706 C 811.644 671.793, 810.624 676.200, 809.982 679.500 C 808.758 685.786, 804.116 700.140, 803.028 701 C 800.205 703.232, 796.808 716.040, 797.655 721.260 L 798.240 724.868 800.403 722.184 C 803.487 718.355, 808 711.204, 808 710.144 C 808 709.649, 808.708 708.657, 809.573 707.939 C 813.126 704.991, 816.101 696.220, 818.503 681.611 C 819.389 676.222, 825.197 665.312, 829.786 660.416 C 832.673 657.336, 835.166 655.867, 839.932 654.439 C 843.644 653.327, 846.790 651.711, 847.556 650.523 C 850.091 646.594, 853.220 635.850, 852.654 633.019 C 852.193 630.716, 852.401 630.292, 853.807 630.660 C 854.829 630.927, 856.705 629.874, 858.448 628.054 C 860.057 626.374, 861.685 625, 862.066 625 C 862.869 625, 874.043 618.357, 875.220 617.180 C 875.656 616.744, 876.616 614.062, 877.353 611.221 C 878.898 605.263, 878.434 576.807, 876.739 573.559 C 875.769 571.702, 875.625 571.734, 873.411 574.309 C 872.138 575.789, 870.692 577, 870.198 577 C 868.558 577, 858.451 589.396, 853.500 597.480 C 852.400 599.276, 849.144 602.863, 846.264 605.452 C 841.098 610.097, 841.018 610.128, 840.148 607.829 C 837.199 600.035, 834.813 589.991, 833.418 579.500 C 832.540 572.900, 831.187 564.913, 830.411 561.750 C 829.635 558.587, 828.359 553.413, 827.575 550.250 C 825.857 543.320, 823.220 526.818, 821.860 514.500 C 820.892 505.725, 820.981 504.990, 825.435 485.077 C 828.126 473.044, 830.685 463.901, 831.663 462.820 C 832.576 461.812, 833.825 459.979, 834.438 458.748 C 835.052 457.517, 837.865 454.933, 840.688 453.005 C 843.643 450.988, 846.014 448.545, 846.273 447.250 C 846.811 444.559, 845.155 444.422, 840 446.731" stroke="#83385f" fill="#83385f" fill-opacity="0.2" fill-rule="evenodd"/><path class="svg-region-BPCr" d="M 982.749 485.750 C 976.345 492.458, 971.805 500.734, 968.075 512.500 C 966.854 516.350, 965.466 520.400, 964.990 521.500 C 964.514 522.600, 963.902 526.200, 963.630 529.500 C 963.108 535.828, 960.765 549.765, 959.092 556.500 C 957.708 562.070, 956.039 569.678, 955.033 575 C 951.603 593.159, 949.939 599.584, 948.064 601.913 C 946.919 603.336, 945.547 605.513, 945.016 606.750 C 944.484 607.987, 943.688 609, 943.247 609 C 941.755 609, 938 605.895, 938 604.661 C 938 603.987, 935.529 601.033, 932.508 598.098 C 928.725 594.421, 925.769 590.195, 923.008 584.517 C 919.548 577.401, 919 575.356, 919 569.565 C 919 563.467, 918.857 563, 917.429 564.429 C 916.564 565.293, 915.268 566, 914.547 566 C 913.827 566, 911.834 567.435, 910.119 569.190 C 907.135 572.242, 907 572.738, 907 580.664 C 907 587.523, 907.516 590.247, 910 596.499 C 911.649 600.652, 913.112 605.497, 913.250 607.265 C 913.481 610.239, 913.237 610.519, 910 610.990 C 907.172 611.402, 906.444 611.983, 906.206 614.015 C 906.033 615.495, 906.753 617.431, 907.956 618.723 C 909.080 619.929, 910 621.406, 910 622.003 C 910 622.697, 911.224 622.861, 913.381 622.456 C 916.383 621.893, 917.047 622.197, 919.298 625.161 C 920.692 626.997, 922.593 630.410, 923.522 632.744 C 924.452 635.077, 925.614 636.738, 926.106 636.434 C 926.598 636.131, 927 633.434, 927 630.441 C 927 627.448, 927.337 625.002, 927.750 625.004 C 928.163 625.006, 929.880 625.849, 931.567 626.878 C 934.298 628.543, 934.835 629.703, 936.459 637.444 C 937.463 642.227, 939.300 647.637, 940.542 649.467 C 941.784 651.297, 943.082 653.628, 943.428 654.647 C 944.525 657.884, 947.276 660.344, 956.679 666.500 C 961.719 669.800, 966.155 673.175, 966.536 674 C 967.579 676.262, 970.974 688.869, 971.983 694.227 C 972.868 698.929, 979.043 709.371, 979.726 707.321 C 979.923 706.730, 979.586 702.028, 978.977 696.873 C 977.437 683.848, 975.762 660.339, 975.566 649 C 975.351 636.587, 974.274 628.741, 971.872 622.106 L 969.920 616.711 972.558 606.106 C 974.117 599.838, 976.165 594.216, 977.565 592.360 C 980.665 588.252, 982.861 581.887, 983.653 574.719 C 984.210 569.677, 984.018 568.648, 982.151 566.661 C 980.974 565.408, 979.597 562.165, 979.090 559.455 C 978.226 554.825, 978.377 554.191, 981.585 548.994 C 985.648 542.410, 985.866 539.226, 982.500 535.595 C 980.417 533.347, 980 531.907, 980 526.964 C 980 519.784, 983.999 504.897, 988.988 493.500 C 991.970 486.687, 992.333 484.825, 990.857 483.890 C 988.350 482.302, 985.393 482.980, 982.749 485.750" stroke="#83385f" fill="#83385f" fill-opacity="0.2" fill-rule="evenodd"/><path class="svg-region-AMC" d="M 820.250 364.534 C 818.204 365.971, 818 366.918, 818 375.010 C 818 383.211, 819.264 389, 821.054 389 C 821.457 389, 826.116 393.387, 831.407 398.750 C 836.698 404.113, 843.505 410.993, 846.534 414.041 C 851.964 419.504, 852.025 419.631, 850.863 423.041 C 849.214 427.883, 842.453 435.728, 837.952 438.025 C 833.666 440.211, 827.022 446.801, 827.009 448.878 C 826.997 450.688, 833.044 449.767, 839.587 446.963 C 842.207 445.840, 845.055 445.057, 845.916 445.222 C 846.789 445.390, 849.436 443.304, 851.892 440.512 C 858.056 433.507, 863.124 429.044, 865.659 428.388 C 866.847 428.080, 871.122 428.123, 875.159 428.482 C 879.197 428.841, 888.266 429.066, 895.314 428.982 C 906.903 428.844, 908.720 429.070, 914.314 431.347 C 920.723 433.955, 933.525 437.995, 935.418 438.007 C 936.329 438.013, 941.358 443.646, 946.258 450.149 C 947.083 451.244, 949.767 452.026, 954.250 452.478 L 961 453.159 961 447.139 C 961 443.457, 960.519 440.804, 959.763 440.309 C 959.082 439.864, 955.152 438.363, 951.029 436.972 C 944.364 434.725, 943.291 434.004, 941.354 430.472 C 940.156 428.288, 938.349 425.653, 937.338 424.619 C 935.987 423.236, 935.837 422.615, 936.772 422.278 C 939.983 421.119, 951.038 410.372, 952.382 407.104 C 954.955 400.846, 968.341 390.062, 976.143 387.961 C 978.512 387.323, 981.050 385.946, 981.782 384.901 C 982.751 383.518, 984.324 383, 987.557 383 C 991.757 383, 992 382.847, 992 380.200 C 992 378.660, 991.460 376.860, 990.800 376.200 C 989.103 374.503, 979.793 374.690, 977.441 376.468 C 973.790 379.230, 972.708 378.430, 973.446 373.514 C 974.037 369.571, 973.814 368.723, 971.605 366.514 C 967.768 362.677, 964.667 363.254, 958.690 368.919 C 953.600 373.742, 951 378.929, 951 384.257 C 951 385.516, 949.425 388.937, 947.500 391.860 C 945.575 394.783, 944 397.800, 944 398.564 C 944 400.441, 940.614 402.463, 934 404.534 C 930.975 405.481, 925.627 407.345, 922.115 408.675 C 916.755 410.706, 914.669 410.995, 909.115 410.472 C 902.900 409.887, 902.207 410.038, 897.652 412.965 L 892.804 416.080 887.383 413.021 C 884.401 411.338, 879.158 409.367, 875.731 408.641 C 872.304 407.914, 867.750 406.123, 865.610 404.660 C 863.471 403.197, 860.996 401.998, 860.110 401.995 C 858.557 401.991, 848.673 398.220, 846.379 396.757 C 845.763 396.363, 844.998 394.739, 844.679 393.147 C 844.040 389.951, 841.445 388.386, 839.483 390.014 C 838.573 390.769, 837.210 390.467, 834.610 388.932 C 830.017 386.222, 830.052 385.199, 834.750 384.810 C 838.193 384.525, 838.610 384.153, 839.842 380.258 L 841.185 376.017 837.008 371.258 C 830.727 364.102, 824.453 361.585, 820.250 364.534" stroke="#9d4741" fill="#9d4741" fill-opacity="0.2" fill-rule="evenodd"/>
    </svg>