<svg xmlns="http://www.w3.org/2000/svg" width="1785" height="1131" viewBox="0 0 1785 1131" version="1.1">
    <path class="svg-region-AP" d="M 867.555 449.916 C 848.750 456.283, 847.482 456.872, 845.371 460.208 C 844.139 462.154, 841.590 465.040, 839.705 466.623 C 837.820 468.205, 834.706 471.750, 832.785 474.500 C 829.478 479.232, 828.763 481.444, 824.941 498.764 C 824.423 501.110, 823.980 511.010, 823.956 520.764 C 823.932 530.519, 823.498 540.525, 822.991 543 C 822.485 545.475, 822.336 551.339, 822.662 556.031 L 823.254 564.563 828.877 561.719 C 831.970 560.155, 835.400 559.080, 836.500 559.330 C 841.387 560.443, 861.673 565.901, 863.285 566.537 C 865.421 567.379, 870.120 574.127, 871.964 579 C 872.692 580.925, 875.248 585.088, 877.644 588.251 C 882.347 594.460, 882.820 596.794, 880.500 602.346 C 879.675 604.320, 879 607.525, 879 609.468 C 879 612.831, 879.696 613.892, 884.496 617.853 C 885.398 618.597, 885.921 619.763, 885.660 620.444 C 885.328 621.309, 887.598 622.052, 893.192 622.908 C 897.596 623.582, 901.394 623.940, 901.631 623.702 C 901.868 623.465, 900.994 622.571, 899.688 621.715 C 897.533 620.303, 897.305 619.421, 897.210 612.113 C 897.152 607.687, 896.632 603.180, 896.053 602.099 C 894.075 598.403, 894.783 594.371, 897.750 592.438 C 901.506 589.991, 906 585.083, 906 583.429 C 906 579.981, 912.010 576.014, 922.687 572.414 C 932.586 569.076, 934.704 568.726, 947.741 568.273 L 961.983 567.778 962.916 564.139 C 964.400 558.358, 965.112 526.985, 964.157 509.500 C 963.206 492.095, 961.371 484.001, 955.986 473.473 C 954.344 470.261, 953 467.052, 953 466.340 C 953 465.628, 951.763 464.252, 950.250 463.282 C 948.737 462.312, 946.375 460.488, 945 459.228 C 943.625 457.968, 941.375 456.681, 940 456.368 C 931.747 454.490, 929.707 453.542, 925.202 449.492 L 920.218 445.010 906.609 444.755 C 899.124 444.615, 893 444.163, 893 443.750 C 893 441.954, 886.214 443.598, 867.555 449.916 M 972 472.171 C 972 473.365, 972.617 475.053, 973.371 475.921 C 974.125 476.790, 976.212 481.224, 978.008 485.776 C 979.804 490.327, 981.662 494.291, 982.137 494.585 C 984.113 495.806, 982.958 504.585, 979.999 510.840 C 978.350 514.327, 977 517.949, 977 518.890 C 977 519.830, 976.506 521.094, 975.903 521.697 C 974.829 522.771, 975.006 530.421, 976.571 550.620 C 977.156 558.176, 977.024 559.010, 974.667 562.620 C 973.274 564.754, 971.821 568.300, 971.437 570.500 C 971.053 572.700, 969.898 576.272, 968.870 578.438 C 967.841 580.604, 967.006 583.079, 967.013 583.938 C 967.042 587.479, 963.632 600.766, 961.782 604.320 C 959.865 608.002, 959.810 613.024, 961.617 619.228 C 962.046 620.698, 969.654 623.782, 970.468 622.816 C 971.279 621.853, 971.606 613, 970.831 613 C 969.774 613, 970.440 602.279, 971.825 597 C 973.012 592.476, 976.040 584.858, 977.301 583.226 C 977.842 582.525, 978 581.666, 977.651 581.318 C 977.303 580.969, 977.419 580.193, 977.911 579.592 C 979.910 577.149, 981.076 569.376, 981.111 558.257 C 981.131 551.790, 981.810 542.998, 982.619 538.717 C 983.428 534.436, 984.287 529.486, 984.529 527.717 C 985.790 518.482, 986.204 516.332, 987.069 514.500 C 987.588 513.400, 988.431 510.475, 988.943 508 C 990.489 500.516, 991.831 495.840, 994.538 488.500 C 995.958 484.650, 997.329 480.825, 997.585 480 C 998.173 478.111, 991.974 474, 988.538 474 C 987.169 474, 984.575 473.102, 982.774 472.004 C 980.973 470.906, 977.813 470.006, 975.750 470.004 C 972.567 470.001, 972 470.328, 972 472.171 M 790.518 477.750 C 790.921 478.712, 791.608 481.075, 792.044 483 C 792.480 484.925, 793.549 488.709, 794.419 491.409 C 795.288 494.109, 796.003 497.259, 796.006 498.409 C 796.010 499.559, 796.720 501.850, 797.585 503.500 C 798.450 505.150, 799.340 508.857, 799.562 511.737 C 799.785 514.618, 800.495 517.819, 801.140 518.852 C 801.993 520.219, 802.032 521.834, 801.281 524.790 C 800.714 527.023, 800.612 529.222, 801.053 529.675 C 802.048 530.697, 803.229 541.735, 803.084 548.653 C 803.025 551.488, 803.478 555.088, 804.092 556.653 C 804.706 558.219, 805.375 561.442, 805.579 563.816 C 805.782 566.189, 806.852 572.939, 807.956 578.816 C 810.054 589.983, 810.265 593.613, 809.541 606 L 809.102 613.500 813.606 608.750 C 816.083 606.138, 818.535 604, 819.055 604 C 820.415 604, 820.221 597.791, 818.506 586.413 C 817.684 580.961, 817.003 573.575, 816.991 570 C 816.980 566.425, 816.337 561.682, 815.563 559.459 C 814.788 557.237, 813.884 549.362, 813.554 541.959 C 812.872 526.652, 811.579 517.307, 808.875 508.145 C 806.643 500.579, 806.368 488.358, 808.365 485.473 C 809.116 484.388, 810.047 482.488, 810.433 481.250 C 811.108 479.086, 810.902 479, 805.035 479 C 801.681 479, 797.320 478.325, 795.346 477.500 C 790.678 475.549, 789.620 475.604, 790.518 477.750" stroke="#fc7143" fill="#fc7143" fill-opacity="0.2" fill-rule="evenodd"/><path class="svg-region-PP" d="M 896.500 344.299 C 892.650 344.778, 888.727 345.863, 887.783 346.710 C 886.838 347.557, 885.168 348.016, 884.070 347.728 C 882.972 347.441, 881.598 347.779, 881.018 348.478 C 880.437 349.178, 878.283 350.047, 876.231 350.409 C 871.581 351.229, 865.934 354.016, 864.900 356 C 864.471 356.825, 863.879 358.656, 863.586 360.070 C 863.064 362.585, 860.450 364.305, 846.500 371.318 C 841.090 374.038, 839.119 375.851, 836.948 380.103 L 835.110 383.705 838.055 385.882 C 840.307 387.547, 841 388.857, 841 391.447 C 841 396.466, 844.376 403.433, 848.165 406.233 C 855.115 411.370, 859.474 412.421, 874 412.462 C 886.365 412.497, 887.765 412.689, 890.654 414.750 C 894.682 417.623, 896.106 417.580, 899 414.500 C 901.797 411.523, 906.998 411.186, 914.591 413.489 C 921.922 415.713, 928.460 415.401, 934.512 412.538 C 942.341 408.834, 950.896 399.938, 955.559 390.652 C 957.727 386.336, 960.513 381.700, 961.750 380.351 C 962.987 379.001, 963.999 377.133, 963.999 376.198 C 963.997 374.124, 957.238 370.978, 947.578 368.556 C 943.770 367.601, 939.636 366.153, 938.391 365.337 C 935.203 363.248, 934.433 358.769, 936.624 355.059 C 938.669 351.598, 938.259 350.866, 934.088 350.538 C 932.427 350.408, 930.490 349.838, 929.784 349.273 C 929.078 348.707, 927.487 347.934, 926.250 347.555 C 925.013 347.176, 924 346.478, 924 346.005 C 924 345.169, 918.746 344.404, 908.500 343.748 C 905.750 343.572, 900.350 343.820, 896.500 344.299" stroke="#c4743d" fill="#c4743d" fill-opacity="0.2" fill-rule="evenodd"/><path class="svg-region-AVCl" d="M 828.500 561.777 L 823.500 564.507 822.743 571.503 C 821.794 580.278, 821.390 581.364, 819.363 580.586 C 817.950 580.044, 817.822 580.639, 818.368 585.232 C 818.713 588.129, 819.262 593.200, 819.589 596.500 C 820.335 604.030, 823.163 610.427, 826.742 612.679 C 828.259 613.633, 830.772 615.446, 832.327 616.707 C 833.881 617.968, 835.933 619, 836.886 619 C 837.839 619, 841.292 616.384, 844.560 613.186 C 855.725 602.258, 870.699 589, 871.875 589 C 873.734 589, 875.105 593.779, 876.032 603.494 C 876.797 611.510, 876.693 612.706, 875.077 614.494 C 874.080 615.597, 873.001 618.235, 872.678 620.355 C 872.130 623.960, 872.234 624.169, 874.296 623.591 C 875.508 623.251, 878.425 622.691, 880.777 622.347 C 883.130 622.002, 885.269 621.374, 885.531 620.951 C 886.341 619.640, 884.906 617.105, 883.015 616.505 C 879.870 615.506, 878.516 610.542, 879.925 605.177 C 882.619 594.928, 882.571 594.565, 877.719 588.298 C 875.250 585.109, 872.717 580.925, 872.091 579 C 871.465 577.075, 869.444 573.445, 867.600 570.934 C 864.410 566.590, 863.818 566.262, 855.374 564.173 C 850.493 562.966, 844.415 561.308, 841.866 560.489 C 835.613 558.480, 834.308 558.606, 828.500 561.777" stroke="#ffbab9" fill="#ffbab9" fill-opacity="0.2" fill-rule="evenodd"/><path class="svg-region-AVCr" d="M 924.224 572.038 C 914.962 575.015, 911.218 576.731, 908.974 579.026 C 907.338 580.700, 905.982 582.616, 905.959 583.284 C 905.904 584.945, 901.106 590.311, 897.750 592.465 C 894.798 594.360, 894.070 598.394, 896.022 602.042 C 896.585 603.093, 897.147 607.628, 897.272 612.119 C 897.484 619.729, 897.686 620.426, 900.234 622.326 C 901.737 623.448, 903.232 624.102, 903.554 623.779 C 904.415 622.919, 904.405 607.466, 903.539 600.488 C 902.889 595.242, 903.056 594.159, 904.845 591.988 L 906.896 589.500 908.513 591.761 C 910.840 595.017, 926.867 610.386, 931.537 613.840 C 933.717 615.452, 937.189 618.398, 939.252 620.386 C 941.316 622.374, 943.642 624, 944.421 624 C 946.643 624, 949 622.880, 949 621.823 C 949 620.448, 954.461 612.696, 957.793 609.343 C 961.733 605.376, 963.603 601.567, 965.427 593.794 C 967.152 586.440, 967.466 579.930, 966.165 578.450 C 965.706 577.928, 964.544 575.362, 963.583 572.750 L 961.835 568 949.167 568.046 C 937.222 568.089, 935.800 568.317, 924.224 572.038" stroke="#ffbab9" fill="#ffbab9" fill-opacity="0.2" fill-rule="evenodd"/><path class="svg-region-VMl" d="M 774.500 374.322 C 770.500 376.152, 760.699 386.419, 759.721 389.804 C 758.675 393.423, 759.768 400.613, 762.098 405.438 C 763.144 407.604, 764 410.137, 764 411.069 C 764 413.292, 770.172 430.294, 773.435 437.058 C 774.846 439.982, 776 442.788, 776 443.294 C 776 443.800, 777.304 446.978, 778.898 450.357 C 780.491 453.736, 782.785 458.975, 783.994 462 C 789.052 474.648, 789.073 474.682, 793.452 476.869 C 796.604 478.443, 799.575 479, 804.821 479 L 811.923 479 812.879 475.250 C 813.405 473.188, 814.131 469.925, 814.492 468 C 815.741 461.347, 816.035 460.784, 817.584 462.070 C 818.363 462.716, 819 464.118, 819 465.186 C 819 466.758, 819.591 467.067, 822.108 466.813 C 824.541 466.568, 825.696 465.641, 827.422 462.547 C 828.992 459.731, 830.563 458.352, 832.884 457.750 C 835.350 457.111, 836.510 456.006, 837.658 453.203 C 840.446 446.394, 845.299 440.361, 849.976 437.890 C 853.073 436.254, 855.055 434.317, 856.258 431.750 C 857.342 429.437, 858.712 428, 859.834 428 C 860.833 428, 862.680 426.905, 863.937 425.567 L 866.223 423.134 858.133 419.067 C 853.684 416.830, 849.351 415, 848.504 415 C 845.602 415, 823.674 402.898, 820.778 399.697 C 815.648 394.029, 815.077 392.761, 815.675 388.350 C 816.072 385.413, 816.859 383.921, 818.368 383.246 C 820.316 382.375, 820.049 382.064, 815.283 379.646 C 812.414 378.191, 808.589 376.993, 806.783 376.985 C 804.977 376.977, 800.673 376.304, 797.217 375.489 C 787.532 373.206, 778.008 372.716, 774.500 374.322" stroke="#e59376" fill="#e59376" fill-opacity="0.2" fill-rule="evenodd"/><path class="svg-region-VMr" d="M 979.145 373.006 C 977.423 373.743, 976.988 374.481, 977.524 375.756 C 979.147 379.615, 979.082 381.861, 977.226 386.081 C 976.158 388.512, 974.825 391.638, 974.264 393.028 C 973.704 394.418, 966.760 402.293, 958.834 410.528 C 943.782 426.166, 938 433.252, 938 436.062 C 938 436.980, 938.838 438.803, 939.863 440.115 C 940.887 441.427, 942.696 444.413, 943.883 446.750 C 945.804 450.534, 946.426 451, 949.552 451 C 953.909 451, 958.895 453.045, 961.405 455.862 C 963.851 458.607, 965.511 458.541, 970.852 455.488 C 979.852 450.343, 981.913 453.020, 976.072 462.268 C 973.833 465.814, 972 469.005, 972 469.358 C 972 469.711, 973.688 470.003, 975.750 470.007 C 977.813 470.010, 980.850 470.907, 982.500 472 C 984.150 473.093, 986.625 473.991, 988 473.997 C 989.375 474.003, 992.009 474.928, 993.854 476.052 C 998.018 478.591, 998.882 478.319, 1000.490 473.965 C 1003.309 466.335, 1015.227 439.468, 1017.557 435.493 C 1018.923 433.162, 1021.332 427.485, 1022.909 422.877 C 1024.487 418.270, 1026.728 412.325, 1027.889 409.667 C 1029.050 407.009, 1030 403.746, 1030 402.417 C 1030 400.252, 1029.570 400, 1025.884 400 C 1022.374 400, 1021.211 399.409, 1017.989 395.988 C 1015.911 393.782, 1013.921 390.822, 1013.567 389.411 C 1012.912 386.800, 1015.628 379, 1017.192 379 C 1017.637 379, 1018 377.425, 1018 375.500 C 1018 372.327, 1017.736 372, 1015.178 372 C 1013.626 372, 1010.167 372.746, 1007.492 373.658 C 1003.379 375.059, 1001.923 375.127, 998.075 374.098 C 991.645 372.378, 981.925 371.817, 979.145 373.006" stroke="#e59376" fill="#e59376" fill-opacity="0.2" fill-rule="evenodd"/><path class="svg-region-PV" d="M 886.836 174.183 C 883.351 175.108, 876.812 175.896, 872.304 175.933 C 861.418 176.022, 839.267 177.948, 836.344 179.059 C 833.141 180.277, 825.168 187.775, 823.361 191.268 C 821.482 194.903, 821.107 211.442, 822.824 215 C 823.487 216.375, 824.879 218.850, 825.918 220.500 C 826.957 222.150, 829.470 226.804, 831.504 230.843 C 834.123 236.045, 836.192 238.771, 838.601 240.192 C 840.470 241.295, 842 242.619, 842 243.133 C 842 243.648, 844.925 247.497, 848.500 251.687 C 852.075 255.877, 855 259.713, 855 260.212 C 855 260.711, 856.746 264.805, 858.880 269.310 C 863.678 279.439, 863.917 280.236, 864.142 286.844 C 864.246 289.911, 864.833 292.382, 865.519 292.646 C 866.176 292.898, 867.272 294.795, 867.955 296.862 C 870.543 304.707, 884.249 307.925, 911.250 307.028 C 916.612 306.850, 921 306.321, 921 305.852 C 921 305.384, 921.614 305, 922.364 305 C 924.951 305, 928.765 297.771, 929.486 291.500 C 930.719 280.779, 932.937 273.262, 937.585 264.045 C 940.094 259.070, 942.515 255, 942.965 255 C 943.415 255, 944.062 253.889, 944.403 252.530 C 944.744 251.172, 947.268 247.058, 950.011 243.387 C 952.755 239.717, 955 236.356, 955 235.918 C 955 235.480, 956.798 233.045, 958.995 230.506 C 961.192 227.968, 963.270 224.774, 963.612 223.408 C 964.616 219.409, 963.540 202.140, 962.204 200.804 C 961.542 200.142, 960.999 198.227, 960.998 196.550 C 960.996 192.417, 954.894 181.578, 952.013 180.591 C 951.181 180.305, 948.759 179.415, 946.631 178.613 C 944.503 177.810, 942.136 177.394, 941.370 177.688 C 940.605 177.982, 937.171 177.712, 933.739 177.088 C 926.670 175.802, 912.196 174.060, 900.836 173.129 C 895.174 172.664, 891.516 172.940, 886.836 174.183" stroke="#b09658" fill="#b09658" fill-opacity="0.2" fill-rule="evenodd"/><path class="svg-region-B" d="M 875.211 623.270 C 870.520 624.397, 868.064 627.076, 866.061 633.250 C 865.262 635.715, 864.238 637, 863.072 637 C 862.098 637, 859.477 638.321, 857.249 639.935 C 855.020 641.549, 851.353 643.367, 849.098 643.973 C 844.355 645.251, 843.813 646.698, 847.750 647.574 C 854.543 649.086, 854.553 649.094, 851.817 650.754 C 850.383 651.624, 848.110 654.977, 846.489 658.611 C 842.286 668.033, 838.733 670.905, 828.738 672.961 C 822.561 674.232, 821.023 675.868, 819.544 682.736 C 819.139 684.618, 817.653 686.823, 815.994 688.004 C 814.425 689.122, 812.173 691.603, 810.989 693.518 C 808.889 696.916, 804.920 698.297, 803.563 696.102 C 803.258 695.608, 803.297 691.783, 803.651 687.602 C 804.248 680.537, 804.455 680, 806.579 680 C 809.226 680, 810.389 677.399, 809.439 673.611 C 808.810 671.106, 812.010 662.730, 814.087 661.447 C 814.589 661.136, 815 657.426, 815 653.201 L 815 645.520 812.250 648.494 C 809.531 651.434, 809.496 651.441, 809.173 649.176 C 808.993 647.915, 809.592 645.745, 810.504 644.353 C 811.417 642.961, 812.414 639.387, 812.721 636.411 C 813.227 631.512, 813.094 631, 811.318 631 C 810.119 631, 808.255 632.654, 806.529 635.250 C 804.157 638.815, 803.487 641.352, 802.370 651 C 801.637 657.325, 800.581 665.650, 800.023 669.500 C 799.466 673.350, 798.567 680.100, 798.026 684.500 C 797.485 688.900, 796.573 695.650, 795.998 699.500 C 794.061 712.478, 793.666 721.508, 794.933 723.874 C 796.671 727.122, 800.490 744.191, 801.898 755 C 802.363 758.575, 803.350 762.962, 804.091 764.750 C 805.382 767.864, 805.670 768, 810.969 767.994 C 819.487 767.986, 823.535 766.489, 826.052 762.416 C 828.008 759.251, 828.550 758.960, 831.365 759.561 C 838.046 760.988, 838.808 764.559, 833.500 769.565 C 829.857 773, 829.057 775, 831.326 775 C 832.055 775, 833.657 776.070, 834.886 777.379 C 836.449 779.042, 838.680 779.943, 842.310 780.376 C 859.290 782.401, 858.265 782.456, 865.095 779.154 C 870.327 776.624, 872.049 775.147, 874.500 771.085 C 876.150 768.351, 878.513 765.648, 879.750 765.078 C 880.987 764.509, 882 763.219, 882 762.213 C 882 761.206, 882.630 759.521, 883.399 758.468 C 885.579 755.488, 889.253 758.022, 891.397 763.984 C 892.609 767.353, 895.018 770.621, 899.376 774.806 C 905.555 780.739, 910.143 782.982, 916.128 782.994 C 917.573 782.997, 920.482 783.721, 922.592 784.603 C 927.343 786.588, 938.651 786.164, 940.053 783.948 C 941.686 781.367, 941.061 778.974, 938.500 778 C 936.310 777.167, 936 776.451, 936 772.225 C 936 766.743, 937.228 765, 941.092 765 C 943.095 765, 943.936 765.611, 944.382 767.388 C 945.009 769.885, 950.950 772.967, 955.270 773.035 C 956.497 773.055, 958.625 773.714, 960 774.500 C 961.375 775.286, 963.511 775.945, 964.747 775.965 C 968.053 776.017, 974.223 769.920, 978.101 762.768 L 981.500 756.500 981.293 743.069 C 981.138 733.063, 980.582 727.964, 979.112 723.069 C 974.596 708.032, 972.721 690.106, 972.044 655.500 C 971.732 639.550, 971.096 625.712, 970.631 624.750 C 970.118 623.687, 968.661 623, 966.918 623 C 964.239 623, 964.085 623.215, 964.585 626.250 C 965.548 632.105, 967.258 638.041, 968.137 638.585 C 969.868 639.654, 969.072 650.370, 967.011 653.750 C 965.921 655.538, 964.645 657, 964.175 657 C 962.266 657, 961 662.589, 961 671.021 C 961 679.191, 961.297 680.558, 964.510 687.160 C 968.165 694.669, 970.536 708, 968.217 708 C 966.896 708, 962.012 697.549, 961.968 694.629 C 961.923 691.538, 957.192 686.408, 955.733 687.867 C 953.697 689.903, 952.258 689.077, 949 684 C 947.166 681.141, 945.045 679, 944.049 679 C 942.244 679, 938.035 677.275, 932 674.060 C 929.078 672.503, 928.488 671.629, 928.424 668.766 C 928.383 666.880, 927.595 664.260, 926.674 662.946 C 924.518 659.868, 924.539 654.965, 926.724 651.158 C 928.379 648.275, 928.369 648.064, 926.474 645.955 C 925.388 644.746, 921.924 642.003, 918.776 639.858 C 912.734 635.744, 909.779 633.010, 906.500 628.502 C 905.400 626.989, 904.275 625.453, 904 625.089 C 903.216 624.050, 889.477 621.987, 884.231 622.120 C 881.629 622.186, 877.570 622.704, 875.211 623.270" stroke="#e23b33" fill="#e23b33" fill-opacity="0.2" fill-rule="evenodd"/><path class="svg-region-Ol" d="M 509 253.099 C 502.125 254.168, 495.150 255.523, 493.500 256.110 C 491.850 256.696, 488.718 257.610, 486.539 258.141 C 484.361 258.671, 482.084 259.515, 481.479 260.017 C 480.875 260.519, 476.357 261.865, 471.440 263.009 C 466.523 264.153, 460.925 266.117, 459 267.375 C 448.675 274.118, 446.112 275.584, 442 277.096 C 439.525 278.006, 434.490 280.163, 430.810 281.888 C 427.131 283.614, 422.734 285.303, 421.039 285.642 C 419.345 285.981, 417.716 286.650, 417.420 287.129 C 417.124 287.608, 415.986 288, 414.890 288 C 413.795 288, 407.789 290.475, 401.544 293.500 C 395.299 296.525, 389.699 299, 389.099 299 C 387.352 299, 364.832 309.161, 361.106 311.631 C 350.417 318.715, 323.332 347.189, 315.221 359.869 C 308.600 370.220, 300.893 388.069, 295.519 405.500 C 293.993 410.450, 291.940 416.975, 290.957 420 C 285.579 436.550, 283.720 449.550, 283.880 469.500 C 284.122 499.733, 292.653 525.810, 314.959 564.500 C 318.447 570.550, 321.858 576.175, 322.539 577 C 323.221 577.825, 326.373 583.450, 329.544 589.500 C 332.716 595.550, 335.637 600.950, 336.037 601.500 C 336.940 602.743, 354 641.575, 354 642.388 C 354 642.712, 357.101 649.396, 360.891 657.239 C 364.681 665.083, 369.182 674.512, 370.893 678.193 C 372.605 681.874, 374.459 685.166, 375.014 685.509 C 375.569 685.852, 377.527 688.483, 379.365 691.357 C 381.203 694.230, 383.910 697.879, 385.380 699.465 C 386.850 701.051, 389.430 704.756, 391.113 707.697 C 392.796 710.639, 400.096 719.048, 407.336 726.385 C 414.576 733.722, 421.625 741.407, 423 743.463 C 424.375 745.519, 427.525 749.528, 430 752.372 C 432.475 755.217, 436.525 759.936, 439 762.860 C 447.118 772.451, 458.592 779.414, 476.159 785.410 C 489.884 790.095, 499.778 790.994, 510.124 788.497 C 518.140 786.562, 530.578 781.014, 538.500 775.840 C 546.469 770.635, 569.771 750.401, 578.500 741.107 C 591.106 727.685, 608.072 710.846, 613.073 706.795 C 619.158 701.864, 625.979 697.198, 640.947 687.727 C 647.793 683.395, 654.206 678.916, 655.197 677.773 C 656.189 676.630, 658.439 672.726, 660.199 669.097 C 663.219 662.869, 663.400 661.857, 663.435 651 C 663.463 642.416, 662.875 636.859, 661.113 629.085 C 659.451 621.751, 658.898 616.870, 659.243 612.585 C 659.846 605.089, 664.244 593.712, 668.396 588.907 C 670.103 586.931, 672.360 584.231, 673.411 582.907 C 674.462 581.583, 677.432 578.025, 680.011 575 C 686.269 567.659, 692 559.548, 692 558.032 C 692 557.356, 692.634 555.384, 693.409 553.651 C 695.925 548.022, 696.368 544.081, 698.594 507.500 C 699.164 498.137, 698.938 496.855, 693.589 479 C 692.188 474.325, 691.033 469.289, 691.021 467.809 C 691.009 466.329, 690.543 464.835, 689.984 464.490 C 689.425 464.144, 689.171 463.533, 689.419 463.131 C 689.667 462.729, 688.325 460.447, 686.435 458.060 C 684.546 455.672, 683 452.703, 683 451.462 C 683 450.221, 681.650 446.484, 680 443.159 C 678.350 439.833, 677 436.425, 677 435.585 C 677 434.744, 675.875 431.513, 674.500 428.404 C 673.125 425.295, 672 422.026, 672 421.140 C 672 420.254, 670.922 417.272, 669.605 414.514 C 668.288 411.756, 666.003 405.450, 664.528 400.500 C 663.052 395.550, 661.232 389.475, 660.483 387 C 659.734 384.525, 658.392 379.125, 657.502 375 C 656.612 370.875, 655.460 365.873, 654.942 363.884 C 654.424 361.895, 653.996 358.970, 653.992 357.384 C 653.973 350.206, 645.015 322.377, 641.137 317.447 C 639.962 315.953, 639 314.003, 638.999 313.115 C 638.999 311.357, 633.796 302.654, 627.560 293.980 C 623.769 288.707, 612.973 279.274, 609.081 277.834 C 608.049 277.453, 606.907 276.659, 606.543 276.070 C 606.180 275.482, 605.053 275, 604.040 275 C 603.027 275, 598.339 273.200, 593.621 271 C 588.903 268.800, 584.726 267, 584.337 267 C 583.949 267, 581.783 266.105, 579.525 265.012 C 577.266 263.918, 572.286 262.308, 568.459 261.434 C 564.631 260.559, 556.775 258.351, 551 256.526 C 545.225 254.702, 537.800 252.941, 534.500 252.614 C 531.200 252.287, 526.925 251.825, 525 251.587 C 523.075 251.350, 515.875 252.030, 509 253.099" stroke="#aa444d" fill="#aa444d" fill-opacity="0.2" fill-rule="evenodd"/><path class="svg-region-Or" d="M 1266 254.664 C 1262.425 255.492, 1257.925 256.516, 1256 256.941 C 1254.075 257.365, 1249.125 259.324, 1245 261.293 C 1240.875 263.261, 1234.575 265.971, 1231 267.315 C 1223.708 270.055, 1210.800 276.582, 1206.214 279.848 C 1204.551 281.032, 1202.840 282, 1202.410 282 C 1201.980 282, 1200.630 282.938, 1199.410 284.085 C 1198.190 285.231, 1193.606 288.719, 1189.225 291.835 C 1175.959 301.268, 1167.636 308.461, 1162.131 315.246 C 1154.086 325.161, 1151.586 330.174, 1146.544 346.500 C 1144.506 353.100, 1142.425 359.281, 1141.919 360.236 C 1141.414 361.191, 1141 362.595, 1141 363.356 C 1141 366.681, 1136.489 378.332, 1130.895 389.457 C 1122.737 405.681, 1121.089 408.595, 1116.442 415.004 C 1114.250 418.027, 1111.234 422.300, 1109.739 424.500 C 1108.244 426.700, 1106.004 429.846, 1104.760 431.490 C 1096.454 442.479, 1094.238 445.803, 1093.666 448.136 C 1093.310 449.585, 1090.177 454.760, 1086.703 459.636 C 1083.229 464.511, 1079.664 470.075, 1078.780 472 C 1074.643 481.012, 1069.089 499.626, 1067.985 508.177 C 1067.323 513.305, 1066.352 518.313, 1065.826 519.306 C 1064.480 521.848, 1064.634 540.190, 1066.053 546.356 C 1067.284 551.706, 1070.656 562.265, 1075.927 577.279 C 1082.807 596.879, 1085.188 607.555, 1086.904 626.500 C 1087.402 632, 1088.044 637.175, 1088.331 638 C 1088.618 638.825, 1089.096 642.200, 1089.393 645.500 C 1089.691 648.800, 1090.404 653.075, 1090.978 655 C 1091.552 656.925, 1092.235 660.160, 1092.494 662.190 C 1092.949 665.744, 1095.819 671.880, 1098.485 675 C 1099.190 675.825, 1100.684 678.326, 1101.805 680.557 C 1104.724 686.366, 1124.166 705.789, 1133 711.722 C 1144.255 719.281, 1152.208 725.661, 1155 729.373 C 1175.416 756.509, 1182.605 763.041, 1196.500 767.078 C 1200.350 768.196, 1210.025 771.080, 1218 773.487 C 1234.264 778.394, 1250.539 780.364, 1251.617 777.555 C 1251.919 776.769, 1252.719 776.339, 1253.395 776.598 C 1255.626 777.454, 1271.763 773.104, 1277.181 770.186 C 1280.106 768.610, 1283.625 767.041, 1285 766.700 C 1286.375 766.358, 1290.293 764.261, 1293.707 762.039 C 1297.121 759.818, 1300.395 758, 1300.982 758 C 1301.569 758, 1302.482 756.863, 1303.010 755.474 C 1303.538 754.085, 1304.764 752.657, 1305.735 752.301 C 1308.274 751.370, 1321 737.909, 1321 736.155 C 1321 735.690, 1321.900 734.495, 1323 733.500 C 1324.100 732.505, 1325 731.085, 1325 730.345 C 1325 729.605, 1325.450 729, 1326 729 C 1326.550 729, 1327 728.539, 1327 727.976 C 1327 726.007, 1337.097 712.178, 1344.871 703.500 C 1357.727 689.148, 1370.028 677.116, 1388.390 660.929 C 1390.530 659.043, 1392.780 657.047, 1393.390 656.494 C 1394.001 655.941, 1398.775 651.820, 1404 647.337 C 1421.147 632.626, 1438.511 614.112, 1452.184 595.965 C 1457.831 588.470, 1471 567.887, 1471 566.555 C 1471 566.286, 1473.277 561.214, 1476.059 555.283 C 1482.874 540.759, 1482.479 541.671, 1486.367 531.500 C 1492.293 515.996, 1498.489 495.868, 1499.602 488.500 C 1499.768 487.400, 1500.394 484.025, 1500.993 481 C 1502.781 471.960, 1503.974 455.008, 1503.385 447 C 1502.364 433.133, 1495.824 410.864, 1492.096 408.559 C 1491.578 408.239, 1490.847 406.580, 1490.472 404.873 C 1489.721 401.452, 1481.271 388.573, 1474.152 380 C 1463.341 366.979, 1398.822 302.224, 1387.585 293.116 C 1383.688 289.958, 1378.659 286.052, 1376.408 284.437 C 1367.310 277.906, 1358.640 271.432, 1357.466 270.289 C 1353.440 266.373, 1334.709 257.636, 1323.500 254.446 C 1316.342 252.410, 1275.062 252.566, 1266 254.664" stroke="#aa444d" fill="#aa444d" fill-opacity="0.2" fill-rule="evenodd"/><path class="svg-region-BPCl" d="M 838.553 454.698 C 836.382 456.117, 833.457 457.582, 832.053 457.954 C 830.467 458.373, 828.619 460.215, 827.175 462.815 C 824.221 468.133, 820.477 468.666, 818.850 464 C 816.959 458.574, 816.079 459.742, 813.951 470.500 C 813.298 473.800, 811.467 479.075, 809.882 482.221 C 807.539 486.872, 807.004 489.211, 807.024 494.721 C 807.037 498.450, 807.522 503.300, 808.102 505.500 C 811.501 518.392, 812.817 527.137, 813.430 540.921 C 813.861 550.616, 814.652 557.624, 815.558 559.793 C 816.393 561.792, 817 566.507, 817 571 C 817 576.768, 817.395 579.083, 818.542 580.035 C 821.743 582.691, 822.488 579.635, 822.769 562.699 C 823.709 506.203, 823.856 503.945, 827.727 486.500 C 829.401 478.955, 832.784 473.445, 840.006 466.500 C 844.824 461.866, 847 458.148, 847 454.550 C 847 451.169, 843.867 451.224, 838.553 454.698 M 865.500 593.626 C 862.750 596.152, 855.401 602.961, 849.170 608.756 L 837.839 619.294 834.670 617.623 C 828.267 614.249, 823.169 609.922, 822.150 606.999 C 820.751 602.988, 818.515 603.201, 814.271 607.750 C 810.211 612.100, 808.499 615.718, 807.528 622 C 807.145 624.475, 806.196 628.714, 805.419 631.420 C 804.642 634.126, 804.254 636.587, 804.556 636.890 C 804.858 637.192, 806.240 635.990, 807.625 634.220 C 809.011 632.449, 810.850 631, 811.712 631 C 813.014 631, 813.184 631.930, 812.715 636.474 C 812.404 639.485, 811.441 642.960, 810.575 644.196 C 808.979 646.475, 808.405 651, 809.712 651 C 810.104 651, 811.438 649.763, 812.676 648.250 L 814.928 645.500 814.964 653.191 C 814.984 657.421, 814.597 661.131, 814.104 661.436 C 811.795 662.863, 808.866 670.472, 809.443 673.545 C 810.243 677.813, 809.260 680, 806.540 680 C 804.465 680, 804.244 680.580, 803.651 687.602 C 803.297 691.783, 803.258 695.608, 803.563 696.102 C 804.920 698.297, 808.889 696.916, 810.989 693.518 C 812.173 691.603, 814.404 689.137, 815.947 688.038 C 817.793 686.723, 819.135 684.520, 819.871 681.596 C 821.351 675.720, 822.897 674.369, 829.751 672.959 C 839.264 671.002, 841.259 669.334, 846.156 659.248 C 847.825 655.809, 850.258 652.156, 851.562 651.130 C 854.271 648.999, 853.804 648.007, 850.083 647.985 C 848.662 647.976, 846.825 647.526, 846 646.985 C 844.667 646.109, 844.667 645.891, 846 645.015 C 846.825 644.474, 848.710 644.024, 850.188 644.015 C 851.782 644.006, 854.225 642.755, 856.188 640.943 C 858.010 639.262, 860.720 637.634, 862.212 637.326 C 864.285 636.897, 865.317 635.737, 866.590 632.404 C 867.506 630.005, 869.323 626.595, 870.628 624.827 C 871.933 623.058, 873 620.490, 873 619.120 C 873 617.750, 873.875 615.697, 874.945 614.559 C 876.721 612.668, 876.815 611.705, 876.032 603.494 C 875.089 593.613, 873.730 588.991, 871.775 589.017 C 871.074 589.026, 868.250 591.100, 865.500 593.626" stroke="#83385f" fill="#83385f" fill-opacity="0.2" fill-rule="evenodd"/><path class="svg-region-BPCr" d="M 940.007 451.189 C 940.020 453.943, 947.441 462.950, 949.721 462.983 C 951.309 463.005, 958.466 478.243, 961.179 487.376 C 964.900 499.906, 965.948 547.411, 962.869 564 C 962.034 568.497, 962.134 570.047, 963.418 572.500 C 964.281 574.150, 964.990 576.007, 964.994 576.628 C 965.002 578.069, 967.859 580.474, 968.638 579.695 C 968.962 579.371, 970.099 575.857, 971.164 571.887 C 972.229 567.917, 974.024 563.371, 975.154 561.784 C 976.972 559.231, 977.136 557.960, 976.587 550.700 C 974.481 522.842, 974.433 523.388, 980.085 511.231 C 982.974 505.019, 984.109 495.804, 982.137 494.585 C 981.662 494.291, 979.797 490.327, 977.992 485.776 C 976.187 481.224, 974.100 476.612, 973.355 475.527 C 971.517 472.852, 971.652 469.477, 973.727 466.215 C 974.677 464.722, 975.689 463.275, 975.977 463 C 977.254 461.779, 980 456.043, 980 454.596 C 980 452.209, 975.885 452.611, 970.852 455.488 C 965.526 458.533, 963.858 458.605, 961.407 455.898 C 958.405 452.580, 955.043 451.315, 947.250 450.571 C 941.585 450.030, 940.001 450.165, 940.007 451.189 M 904.532 591.964 C 903.027 593.627, 902.872 594.893, 903.522 600.214 C 903.944 603.671, 904.228 610.737, 904.153 615.916 C 904.025 624.690, 904.199 625.576, 906.707 628.916 C 910.100 633.435, 913.417 636.469, 918.500 639.703 C 920.700 641.103, 923.750 643.583, 925.277 645.216 C 927.947 648.068, 927.995 648.303, 926.527 651.245 C 924.610 655.088, 924.568 659.938, 926.429 662.595 C 927.215 663.717, 928.002 666.358, 928.179 668.465 C 928.471 671.944, 928.958 672.526, 933.500 674.828 C 941.288 678.775, 941.849 679, 943.901 679 C 945.142 679, 946.945 680.815, 948.964 684.096 C 951.745 688.616, 952.391 689.119, 954.680 688.544 C 957.822 687.755, 962 691.185, 962 694.553 C 962 697.491, 966.860 708, 968.218 708 C 969.555 708, 968.612 695.024, 967.080 692.342 C 962.866 684.967, 961 678.423, 961 671.025 C 961 663.283, 962.394 657, 964.113 657 C 964.617 657, 965.921 655.538, 967.011 653.750 C 969.624 649.465, 969.628 641.603, 967.022 635.859 C 965.934 633.462, 965.034 630.245, 965.022 628.710 C 965.010 627.176, 964.153 624.251, 963.119 622.210 C 962.084 620.170, 960.917 616.138, 960.525 613.250 C 960.133 610.362, 959.497 608, 959.112 608 C 958.334 608, 952.563 615.460, 948.880 621.228 C 946.071 625.627, 944.569 625.488, 939.268 620.340 C 937.299 618.428, 934.071 615.671, 932.094 614.212 C 930.117 612.753, 927.092 610.196, 925.370 608.530 C 923.649 606.863, 919.036 602.400, 915.120 598.611 C 911.204 594.823, 908 591.335, 908 590.861 C 908 589.396, 906.394 589.907, 904.532 591.964" stroke="#83385f" fill="#83385f" fill-opacity="0.2" fill-rule="evenodd"/><path class="svg-region-AMC" d="M 967.601 376.308 C 966.208 377.701, 964.309 378.989, 963.380 379.170 C 962.451 379.352, 959.284 383.775, 956.343 389 C 944.621 409.820, 930.027 418.605, 915.426 413.629 C 908.680 411.331, 901.780 411.480, 899.523 413.974 C 896.666 417.131, 894.310 417.358, 890.749 414.818 C 887.737 412.669, 886.515 412.500, 874 412.500 C 861.309 412.500, 860.142 412.333, 854.527 409.703 C 851.242 408.165, 847.696 406.140, 846.648 405.203 C 844.076 402.906, 841.004 395.562, 840.985 391.667 C 840.957 385.910, 838.735 384.548, 827.816 383.598 C 816.549 382.617, 815.500 383.060, 815.500 388.806 C 815.500 396.362, 820.546 401.543, 835.179 409.010 C 841.635 412.304, 847.633 415, 848.506 415 C 849.380 415, 853.468 416.852, 857.593 419.115 C 864.762 423.050, 865.029 423.324, 863.681 425.365 C 862.905 426.539, 861.272 427.649, 860.051 427.831 C 858.640 428.041, 857.320 429.382, 856.432 431.509 C 855.471 433.807, 853.491 435.696, 850.117 437.533 C 846.909 439.279, 844.171 441.822, 842.233 444.854 C 836.205 454.285, 835.703 456.735, 840.434 453.635 C 844.085 451.243, 846.804 451.532, 847.184 454.353 C 847.500 456.703, 847.525 456.697, 868 449.881 C 888.299 443.124, 893 442.025, 893 444.040 C 893 444.669, 895.268 444.975, 898.750 444.815 C 901.913 444.670, 907.951 444.652, 912.168 444.775 C 919.688 444.996, 919.939 445.088, 925.130 449.519 C 929.988 453.665, 931.887 454.528, 940.403 456.457 L 943.305 457.115 941.653 454.593 C 939.373 451.114, 939.579 450, 942.500 450 C 943.875 450, 945 449.770, 945 449.489 C 945 448.162, 940.665 439.967, 939.414 438.928 C 935.744 435.883, 938.160 432.367, 958.760 410.766 C 967.274 401.840, 974.310 393.602, 974.675 392.133 C 975.035 390.685, 976.156 388.024, 977.165 386.220 C 980.545 380.178, 979.029 375.524, 973.316 374.402 C 970.749 373.898, 969.642 374.267, 967.601 376.308" stroke="#9d4741" fill="#9d4741" fill-opacity="0.2" fill-rule="evenodd"/>
    </svg>