<svg xmlns="http://www.w3.org/2000/svg" width="1785" height="1131" viewBox="0 0 1785 1131" version="1.1">
    <path class="svg-region-AP" d="M 889.500 456.027 C 887.300 456.435, 882.891 457.496, 879.701 458.384 C 876.512 459.273, 873.061 460, 872.033 460 C 871.005 460, 867.924 461.125, 865.187 462.500 C 862.449 463.875, 859.656 465, 858.978 465 C 858.301 465, 855.091 466.350, 851.844 468 C 848.597 469.650, 844.901 471, 843.631 471 C 836.618 471, 828.030 489.990, 828.029 505.500 C 828.028 511.380, 825.084 525.997, 823.900 525.999 C 822.837 526.001, 816.834 506.898, 815.964 500.748 C 815.501 497.473, 814.418 494.015, 813.558 493.064 C 812.042 491.389, 812.032 488.428, 813.510 478.819 C 813.905 476.251, 813.767 476.159, 810.211 476.634 C 801.717 477.768, 801.751 477.746, 802.316 481.794 C 803.039 486.969, 805.836 497.106, 807.202 499.500 C 808.408 501.615, 808.428 501.727, 809.973 515 C 810.518 519.675, 811.225 525.075, 811.546 527 C 811.866 528.925, 812.016 532.975, 811.879 536 C 811.429 545.965, 811.629 549.441, 812.947 554.500 C 813.664 557.250, 814.454 562.763, 814.704 566.750 C 815.165 574.119, 815.774 575.182, 818 572.500 C 818.854 571.471, 821.133 571, 825.254 571 C 830.999 571, 831.452 570.811, 835.551 566.712 C 841.161 561.102, 844.132 559.567, 847.673 560.449 C 850.794 561.226, 860.357 569.059, 866.365 575.758 C 868.490 578.128, 871.640 580.788, 873.365 581.669 C 875.089 582.549, 878.833 584.808, 881.684 586.689 C 886.784 590.052, 886.862 590.179, 886.508 594.528 C 886.310 596.960, 885.573 600.540, 884.870 602.484 C 883.706 605.701, 883.828 606.499, 886.226 611.389 L 888.860 616.760 886.125 619.380 C 884.621 620.821, 882.853 622, 882.195 622 C 881.538 622, 881 622.628, 881 623.395 C 881 625.464, 888.650 625.878, 893.650 624.080 C 897.449 622.714, 898.041 622.721, 899.681 624.148 C 902.672 626.752, 906.725 627.224, 910.538 625.415 C 912.442 624.511, 914 623.443, 914 623.041 C 914 622.005, 910.539 619, 909.346 619 C 908.797 619, 907.380 617.969, 906.196 616.709 C 904.179 614.562, 904.116 614.028, 905.193 608.235 C 906.208 602.779, 906.130 601.656, 904.525 598.677 C 902.111 594.194, 903.055 590.268, 906.765 589.365 C 908.269 588.999, 911.975 586.306, 915 583.382 C 918.025 580.457, 922.975 576.362, 926 574.282 C 929.025 572.202, 931.725 570.275, 932 570 C 938.610 563.390, 941.126 562, 946.480 562 C 951.216 562, 952.175 562.337, 953.592 564.501 C 954.494 565.876, 956.383 567.564, 957.792 568.251 C 961.289 569.957, 963.698 577.127, 962.216 581.419 C 961.631 583.114, 960.649 587.027, 960.033 590.116 C 959.306 593.765, 958.053 596.541, 956.457 598.041 C 954.411 599.962, 954 601.292, 954 605.983 C 954 609.389, 953.419 612.385, 952.532 613.559 C 951.724 614.626, 951.049 617.413, 951.032 619.750 C 951.006 623.155, 951.348 623.993, 952.750 623.967 C 957.444 623.877, 962.164 615.676, 964.956 602.757 C 967.260 592.099, 968.805 585.923, 971.023 578.500 C 972.010 575.200, 973.370 570.025, 974.047 567 C 974.724 563.975, 976.115 559.592, 977.139 557.261 C 978.162 554.929, 979 552.229, 979 551.261 C 979 550.292, 979.713 546.349, 980.584 542.500 C 981.456 538.650, 982.543 533.250, 983 530.500 C 983.458 527.750, 984.545 523.531, 985.416 521.124 C 986.295 518.697, 987 513.626, 987 509.738 C 987 502.320, 988.386 488.397, 990.096 478.644 C 990.660 475.424, 990.921 472.588, 990.675 472.342 C 990.429 472.096, 989.254 473.471, 988.064 475.397 C 986.873 477.323, 984.306 479.884, 982.359 481.087 C 979.329 482.960, 978.916 483.651, 979.489 485.887 C 979.857 487.324, 980.397 491.766, 980.689 495.759 C 981.107 501.483, 980.840 503.808, 979.425 506.759 C 978.217 509.279, 977.389 514.301, 976.888 522.148 C 976.479 528.554, 975.663 534.629, 975.073 535.648 C 974.483 536.666, 973.495 538.850, 972.878 540.500 L 971.754 543.500 969.903 539.500 C 968.885 537.300, 968.038 533.250, 968.021 530.500 C 968.003 527.750, 967.528 523.841, 966.965 521.814 C 966.402 519.787, 965.786 513.240, 965.595 507.265 C 965.170 493.913, 962.731 487.873, 954.697 480.275 C 951.789 477.524, 949.576 474.771, 949.781 474.157 C 950.156 473.033, 949.085 472.474, 936.746 467.354 C 932.880 465.750, 929.751 463.792, 929.428 462.774 C 929.118 461.796, 926.532 459.939, 923.682 458.648 C 919.427 456.719, 916.265 456.208, 906 455.791 C 899.125 455.513, 891.700 455.618, 889.500 456.027 M 815.500 579 C 815.840 579.550, 816.316 580, 816.559 580 C 816.802 580, 817 579.550, 817 579 C 817 578.450, 816.523 578, 815.941 578 C 815.359 578, 815.160 578.450, 815.500 579" stroke="#fc7143" fill="#fc7143" fill-opacity="0.2" fill-rule="evenodd"/><path class="svg-region-PP" d="M 894 351.740 C 894 352.578, 892.393 353, 889.200 353 C 886.560 353, 883.885 353.515, 883.255 354.145 C 882.625 354.775, 879.870 356.079, 877.133 357.043 C 874.397 358.007, 870.129 360.191, 867.649 361.898 C 865.169 363.604, 862.673 365, 862.103 365 C 861.533 365, 859.589 366.462, 857.783 368.250 C 855.977 370.038, 853.297 372.276, 851.826 373.223 C 848.428 375.413, 847.493 378.361, 849.024 382.057 C 850.951 386.710, 849.521 391.081, 844.969 394.448 C 841.082 397.323, 840.999 397.512, 841.604 402.070 C 842 405.058, 841.823 406.992, 841.112 407.431 C 839.054 408.703, 839.978 410.136, 842.649 409.816 C 845.611 409.463, 846.423 408.282, 847.653 402.543 C 848.406 399.027, 849.224 398.170, 855 394.847 C 862.078 390.776, 867.157 390.021, 870.711 392.510 C 871.897 393.341, 874.473 396.663, 876.434 399.891 C 880.513 406.606, 881.231 412.982, 878.277 416.246 C 876.613 418.085, 876.655 418.126, 879.527 417.437 C 883.150 416.568, 885 415.203, 885 413.397 C 885 411.623, 889.861 410.423, 891.882 411.697 C 892.747 412.243, 893.690 413.547, 893.977 414.595 C 894.417 416.196, 895.630 416.554, 901.578 416.836 L 908.657 417.172 910.502 410.336 C 914.156 396.803, 921.215 390.766, 930.614 393.133 C 933.995 393.984, 936.278 395.613, 940.535 400.211 C 948.532 408.849, 951.633 411.251, 953.869 410.541 C 955.705 409.959, 955.715 409.734, 954.138 404.454 C 952.777 399.897, 951.773 398.490, 948.194 396.124 C 942.989 392.684, 931.011 381.213, 930.972 379.633 C 930.957 379.010, 929.607 376.732, 927.972 374.572 C 926.337 372.411, 925 370.027, 925 369.272 C 925 367.185, 922.057 361.883, 918.861 358.215 C 917.288 356.409, 916 354.320, 916 353.574 C 916 351.590, 911.587 350.618, 902.250 350.545 C 896.249 350.498, 894 350.824, 894 351.740" stroke="#c4743d" fill="#c4743d" fill-opacity="0.2" fill-rule="evenodd"/><path class="svg-region-AVCl" d="M 842 560.899 C 841.175 561.415, 838.355 563.899, 835.732 566.419 C 831.186 570.787, 830.695 571, 825.157 571 C 820.315 571, 818.973 571.400, 817.089 573.406 C 815.250 575.363, 815.031 576.189, 815.914 577.840 C 816.511 578.956, 817 581.905, 817 584.395 C 817 587.037, 819.108 595.659, 822.063 605.105 C 826.104 618.020, 826.993 622.079, 826.466 625.202 C 825.714 629.650, 827.465 635, 829.673 635 C 832.338 635, 839.050 630.513, 839.608 628.358 C 840.185 626.131, 850.309 618, 852.505 618 C 854.538 618, 865 612.935, 865 611.950 C 865 610.253, 875.174 603, 877.555 603 C 880.952 603, 882.316 606.313, 882.391 614.740 C 882.426 618.733, 882.665 622, 882.922 622 C 883.180 622, 884.618 620.824, 886.118 619.387 L 888.845 616.774 886.343 611.005 C 883.918 605.415, 883.890 605.091, 885.420 600.583 C 888.273 592.180, 887.780 590.583, 880.929 586.032 C 877.590 583.815, 874.376 582, 873.786 582 C 873.196 582, 869.965 579.180, 866.606 575.733 C 853.869 562.661, 846.390 558.152, 842 560.899" stroke="#ffbab9" fill="#ffbab9" fill-opacity="0.2" fill-rule="evenodd"/><path class="svg-region-AVCr" d="M 935.972 566.250 C 933.500 568.587, 929.008 572.202, 925.989 574.282 C 922.970 576.362, 918.020 580.479, 914.988 583.431 C 911.956 586.383, 908.365 588.956, 907.008 589.149 C 903.319 589.674, 902.186 593.869, 904.405 598.790 C 905.902 602.109, 906.002 603.540, 905.082 608.514 C 903.879 615.022, 904.651 616.682, 910.162 619.431 C 913.536 621.114, 913.860 620.031, 911.435 615.171 C 909.393 611.076, 909.876 605.635, 912.324 605.171 C 914.405 604.776, 917.506 607.235, 919.973 611.234 C 921.725 614.075, 924.393 616.276, 937 625.277 C 947.160 632.531, 946.620 632.325, 948.940 629.834 C 950.540 628.116, 951.007 626.270, 951.032 621.561 C 951.051 617.825, 951.627 614.756, 952.532 613.559 C 953.404 612.406, 954 609.414, 954 606.191 C 954 601.649, 954.465 600.234, 956.854 597.514 C 958.865 595.223, 959.915 592.699, 960.411 588.959 C 960.798 586.041, 961.593 582.760, 962.179 581.666 C 962.946 580.233, 962.888 578.203, 961.972 574.385 C 960.916 569.980, 960.223 568.925, 957.846 568.096 C 956.258 567.543, 954.558 565.967, 954.019 564.550 C 953.122 562.190, 952.582 562, 946.757 562 C 940.726 562, 940.279 562.176, 935.972 566.250" stroke="#ffbab9" fill="#ffbab9" fill-opacity="0.2" fill-rule="evenodd"/><path class="svg-region-VMl" d="M 794.528 387.744 C 790.363 388.065, 788.929 388.749, 785.686 391.960 C 783.165 394.456, 780.192 396.206, 777.158 396.981 C 774.596 397.635, 770.250 398.936, 767.500 399.873 L 762.500 401.576 762.765 406.510 C 762.910 409.224, 763.895 413.104, 764.952 415.133 C 766.010 417.162, 767.365 420.641, 767.964 422.865 C 768.563 425.089, 770.176 428.245, 771.550 429.877 C 775.204 434.219, 782.856 445.108, 784.287 448 C 784.967 449.375, 786.756 452.404, 788.262 454.730 C 789.768 457.057, 791 459.359, 791 459.845 C 791 460.332, 791.830 461.803, 792.844 463.115 C 793.859 464.427, 795.486 467.615, 796.461 470.201 C 799.113 477.232, 800.411 478.043, 807.479 477.084 C 811.400 476.552, 813.776 475.690, 814.461 474.552 C 817.161 470.068, 817.675 469.848, 828.930 468.379 C 841.208 466.776, 844.056 467.023, 841.990 469.512 C 840.951 470.763, 841.162 471, 843.312 471 C 846.663 471, 851 469.322, 851 468.025 C 851 467.461, 849.682 467, 848.071 467 C 846.461 467, 844.436 466.293, 843.571 465.429 C 841.846 463.703, 841.502 462, 842.880 462 C 843.364 462, 846.393 459.955, 849.612 457.455 C 856.235 452.313, 859 447.583, 859 441.398 C 859 436.507, 862.293 432.482, 869.366 428.728 L 873.500 426.534 870.500 426.221 C 863.425 425.484, 846.316 421.670, 844.250 420.370 C 842.463 419.245, 842 418.033, 842 414.477 C 842 409.094, 840.064 408.531, 835.645 412.628 C 833.111 414.978, 832.272 415.192, 827.707 414.652 C 819.866 413.723, 818.678 411.959, 818.177 400.502 C 817.780 391.424, 817.626 390.870, 814.976 388.983 C 812.148 386.969, 807.902 386.712, 794.528 387.744" stroke="#e59376" fill="#e59376" fill-opacity="0.2" fill-rule="evenodd"/><path class="svg-region-VMr" d="M 987 382.999 C 985.625 383.440, 981.052 383.845, 976.838 383.900 L 969.176 384 968.514 387.917 C 968.150 390.071, 968.146 393.790, 968.505 396.182 C 969.385 402.051, 967.077 404.836, 958.318 408.474 C 954.568 410.032, 950.129 412.588, 948.452 414.153 C 946.776 415.719, 944.751 417.007, 943.952 417.015 C 942.713 417.028, 942.720 417.178, 944 418.034 C 945.295 418.901, 945.227 419.251, 943.500 420.601 C 942.400 421.460, 939.630 423.056, 937.345 424.147 C 934.062 425.714, 932.750 427.154, 931.095 431.001 C 928.442 437.167, 928.387 442.952, 930.950 446.210 C 933.569 449.538, 939 460.094, 939 461.854 C 939 467.040, 949.173 474.761, 952.436 472.053 C 954.600 470.257, 967.733 468.787, 970.134 470.072 C 971.969 471.054, 977 480.540, 977 483.019 C 977 483.650, 977.337 484.005, 977.750 483.807 C 984.416 480.613, 985.850 479.240, 990.443 471.661 C 995.043 464.070, 1005.868 449.817, 1008.065 448.460 C 1008.596 448.132, 1009.676 446.319, 1010.464 444.432 C 1011.253 442.544, 1012.371 441, 1012.949 441 C 1013.527 441, 1014 439.901, 1014 438.557 C 1014 437.213, 1014.804 435.525, 1015.786 434.807 C 1016.769 434.088, 1018.198 431.475, 1018.962 429 C 1019.726 426.525, 1022.072 421.091, 1024.176 416.924 C 1026.279 412.758, 1028 408.206, 1028 406.809 C 1028 402.840, 1022.249 396.097, 1018.810 396.032 C 1017.880 396.014, 1015.191 393.714, 1012.835 390.920 C 1010.479 388.126, 1007.190 385.273, 1005.526 384.580 C 1001.597 382.944, 990.206 381.972, 987 382.999" stroke="#e59376" fill="#e59376" fill-opacity="0.2" fill-rule="evenodd"/><path class="svg-region-PV" d="M 870.792 179.503 C 856.313 184.825, 851.464 189.893, 846.133 205.279 C 843.861 211.835, 843.284 215.109, 843.472 220.381 C 843.603 224.082, 844.226 227.626, 844.855 228.255 C 845.485 228.885, 846.014 230.322, 846.032 231.450 C 846.049 232.577, 846.724 234.374, 847.532 235.441 C 848.339 236.509, 849 238.047, 849 238.860 C 849 239.672, 851.146 243.299, 853.768 246.918 C 862.651 259.178, 865.830 264.573, 866.509 268.543 C 867.945 276.930, 873.703 289.745, 878.345 294.886 C 879.530 296.198, 882.255 298.560, 884.400 300.136 C 889.718 304.042, 896.906 304.114, 904.134 300.334 C 908.618 297.990, 909.580 296.894, 912.116 291.241 C 913.702 287.706, 915 283.088, 915 280.978 C 915 278.869, 915.675 276.468, 916.500 275.643 C 917.325 274.818, 918 273.271, 918 272.206 C 918 270.210, 920.625 266.377, 924.998 261.990 C 928.530 258.446, 930.451 253.926, 931.581 246.500 C 931.748 245.400, 933.632 240.261, 935.768 235.079 C 939.432 226.192, 939.647 225.088, 939.576 215.579 C 939.511 207.013, 939.083 204.449, 936.720 198.500 C 931.718 185.905, 929.901 184.836, 911 183.382 C 906.325 183.023, 901.295 182.769, 899.822 182.818 C 898.350 182.868, 894.327 181.804, 890.883 180.454 C 883.859 177.701, 876.627 177.359, 870.792 179.503" stroke="#b09658" fill="#b09658" fill-opacity="0.2" fill-rule="evenodd"/><path class="svg-region-B" d="M 960.495 616.149 C 960.108 617.442, 957.926 620.319, 955.646 622.542 C 947.827 630.164, 946.982 631.530, 948.630 633.883 C 950.366 636.360, 952.974 644.620, 952.989 647.685 C 952.996 649.075, 954.428 650.895, 956.921 652.685 C 960.864 655.516, 966.157 664.325, 967.625 670.500 C 968.017 672.150, 969.161 674.850, 970.165 676.500 C 971.375 678.486, 971.994 681.449, 971.996 685.266 C 972 690.873, 971.903 691.079, 968.500 692.701 C 965.274 694.240, 965 694.719, 965 698.823 L 965 703.276 958.250 702.603 C 951.062 701.887, 949 700.485, 949 696.317 C 949 695.020, 947.690 692.848, 946 691.342 C 944.350 689.872, 943 687.869, 943 686.891 C 943 685.913, 941.652 684.317, 940.005 683.344 C 935.655 680.774, 935.110 676.777, 937.610 665.750 C 938.132 663.447, 937.902 663, 936.200 663 C 935.082 663, 933.918 663.563, 933.614 664.250 C 933.226 665.127, 932.679 664.915, 931.780 663.539 C 931.076 662.460, 928.813 659.855, 926.750 657.750 C 923.703 654.640, 923 653.186, 923 649.997 C 923 647.190, 922.469 645.786, 921.137 645.073 C 918.585 643.708, 917.203 639.662, 916.751 632.235 C 916.271 624.334, 915.248 623.180, 910.657 625.358 C 906.321 627.416, 906.584 627.432, 901.312 624.799 C 897.364 622.827, 896.570 622.737, 893.702 623.929 C 891.941 624.661, 888.293 625.175, 885.596 625.070 C 882.462 624.949, 880.392 625.353, 879.861 626.190 C 879.404 626.911, 879.011 630.875, 878.987 635 C 878.952 641.031, 878.385 643.748, 876.091 648.871 C 872.166 657.634, 870.814 659, 866.069 659 C 863.896 659, 861.893 659.364, 861.618 659.810 C 861.343 660.255, 862.872 662.617, 865.016 665.060 C 869.519 670.189, 870.167 672.601, 866.750 671.523 C 859.373 669.195, 857.104 669.975, 861 673.500 C 863.333 675.612, 863.448 676.648, 861.750 680.258 C 860.133 683.696, 854.110 686, 846.742 686 C 841.452 686, 840.944 685.792, 839.526 683.050 C 838.687 681.427, 838 678.977, 838 677.606 C 838 675.889, 837.053 674.554, 834.959 673.317 C 831.251 671.127, 830.675 669.073, 831.153 659.747 C 831.409 654.753, 832.220 651.169, 833.762 648.219 C 834.993 645.865, 836 643.180, 836 642.253 C 836 641.325, 836.740 638.629, 837.644 636.261 C 838.549 633.893, 839.041 631.707, 838.737 631.404 C 837.793 630.460, 832.640 633.673, 829.500 637.165 C 825.476 641.638, 824.433 643.639, 820.816 653.814 C 818.210 661.143, 817.682 664.218, 817.435 673.500 C 817.100 686.046, 815.166 695.554, 812.062 699.913 C 808.265 705.245, 806.204 711.260, 804.081 723.203 C 801.493 737.760, 801.326 755.214, 803.668 766.477 C 805.556 775.558, 807.119 778, 811.041 778 C 812.543 778, 815.060 778.672, 816.636 779.494 C 818.739 780.591, 822.955 780.995, 832.500 781.014 C 846.113 781.041, 852.862 781.827, 871.755 785.582 C 876.310 786.487, 885.094 782.745, 889.273 778.119 C 891.093 776.105, 893.650 771.766, 894.955 768.478 C 898.648 759.172, 900.135 757.999, 902.271 762.709 C 902.947 764.199, 905.436 767.462, 907.803 769.959 C 910.169 772.457, 912.959 776.418, 914.002 778.762 C 915.045 781.106, 916.708 783.267, 917.699 783.564 C 918.690 783.862, 921.300 784.941, 923.500 785.963 C 930.114 789.036, 940.053 790.175, 962 790.376 C 970.617 790.455, 977.150 790.020, 980.061 789.173 C 984.311 787.936, 984.873 787.358, 988.311 780.673 C 992.551 772.432, 993.013 766.915, 990.601 753.360 C 989.832 749.037, 988.668 740.100, 988.016 733.500 C 986.831 721.511, 986.315 718.847, 981.723 701 C 980.378 695.775, 978.733 688.125, 978.066 684 C 977.400 679.875, 976.055 674.250, 975.078 671.500 C 972.587 664.491, 970.454 657.723, 967.989 649 C 966.823 644.875, 965.063 639.700, 964.077 637.500 C 962.637 634.287, 962.380 631.764, 962.771 624.679 C 963.068 619.294, 962.857 615.457, 962.228 614.828 C 961.522 614.122, 960.978 614.537, 960.495 616.149" stroke="#e23b33" fill="#e23b33" fill-opacity="0.2" fill-rule="evenodd"/><path class="svg-region-Ol" d="M 504.508 252.731 C 499.562 252.926, 495.084 253.516, 494.558 254.042 C 494.031 254.569, 491.426 255, 488.768 255 C 486.110 255, 482.263 255.707, 480.218 256.571 C 478.173 257.435, 473.800 259.070, 470.500 260.204 C 467.200 261.338, 464.050 262.580, 463.500 262.964 C 462.950 263.348, 459.575 264.691, 456 265.948 C 452.425 267.205, 448.825 268.748, 448 269.378 C 447.175 270.007, 444.925 271.370, 443 272.405 C 441.075 273.441, 438.600 275.056, 437.500 275.994 C 435.183 277.970, 420.171 288, 419.531 288 C 419.294 288, 417.100 289.350, 414.655 291 C 412.210 292.650, 409.502 294, 408.637 294 C 407.772 294, 404.741 296.250, 401.903 299 C 399.065 301.750, 396.356 304, 395.882 304 C 395.409 304, 392.654 306.144, 389.761 308.764 C 386.867 311.384, 382.813 314.571, 380.750 315.846 C 378.688 317.120, 377 318.517, 377 318.949 C 377 319.381, 375.159 320.952, 372.909 322.441 C 367.567 325.977, 349 344.047, 349 345.711 C 349 346.420, 348.541 347, 347.980 347 C 346.480 347, 332.593 361.283, 327.850 367.703 C 322.368 375.123, 315.924 388.989, 311.446 403 C 309.425 409.325, 307.375 415.400, 306.891 416.500 C 306.408 417.600, 304.198 423.900, 301.981 430.500 C 293.469 455.837, 290.618 487.430, 294.972 508.174 C 297.888 522.068, 299.829 529.305, 302.664 536.858 C 306.537 547.173, 322.919 578.878, 326.765 583.500 C 327.223 584.050, 329.450 587.200, 331.715 590.500 C 336.236 597.087, 345.230 608.002, 357.381 621.649 C 361.716 626.517, 366.320 632.075, 367.613 634 C 376.581 647.351, 379.965 652.578, 379.981 653.101 C 380.013 654.136, 391.010 674.036, 397.332 684.500 C 404.089 695.685, 417.758 715.565, 426.641 727.126 C 440.784 745.535, 470.775 776, 474.754 776 C 475.330 776, 478.434 777.968, 481.651 780.373 C 488.474 785.474, 502.881 793.176, 508.554 794.756 C 510.724 795.360, 514.975 796.558, 518 797.419 C 526.560 799.853, 544.624 799.673, 554.500 797.054 C 563.189 794.751, 568.038 793.017, 575 789.723 C 580.576 787.086, 591.046 780.933, 592.821 779.252 C 593.548 778.563, 594.535 778, 595.015 778 C 596.240 778, 608.657 767.401, 613.753 762.004 C 616.093 759.527, 620.818 753.940, 624.253 749.589 C 636.655 733.882, 644.907 725.631, 654.143 719.703 C 658.968 716.606, 672.420 706.568, 681.154 699.546 C 684.264 697.046, 687.228 695, 687.741 695 C 688.942 695, 697.562 682.425, 699.051 678.500 C 699.678 676.850, 701.326 671.225, 702.713 666 C 705.358 656.041, 705.393 654.255, 703.689 615.500 C 703.463 610.365, 704.372 602.553, 706.713 589.500 C 707.009 587.850, 707.583 586.050, 707.988 585.500 C 708.393 584.950, 709.021 583.259, 709.383 581.743 C 709.745 580.227, 712.644 573.702, 715.825 567.243 C 719.006 560.784, 722.363 553.600, 723.285 551.278 C 724.207 548.956, 726.658 543.556, 728.731 539.278 L 732.500 531.500 732.687 514 C 732.828 500.830, 732.518 495.567, 731.437 492.730 C 730.647 490.656, 730 487.461, 730 485.629 C 730 479.839, 728.232 475.603, 716.417 453.082 C 713.987 448.452, 712 444.119, 712 443.454 C 712 442.789, 711.294 441.659, 710.430 440.942 C 709.567 440.226, 709.068 438.846, 709.322 437.877 C 709.833 435.921, 706.781 432.561, 705.571 433.748 C 705.149 434.162, 704.953 433.600, 705.135 432.500 C 705.317 431.400, 704.686 429.387, 703.733 428.027 C 702.780 426.668, 702 425.035, 702 424.400 C 702 423.765, 701.354 422.709, 700.564 422.053 C 699.775 421.398, 698.839 419.543, 698.485 417.931 C 698.131 416.319, 697.433 415, 696.934 415 C 696.435 415, 695.369 413.425, 694.564 411.500 C 693.760 409.575, 692.709 408, 692.228 408 C 691.748 408, 690.301 405.863, 689.013 403.250 C 687.725 400.637, 685.171 396.129, 683.336 393.231 C 681.501 390.332, 680 387.785, 680 387.570 C 680 387.355, 678.261 384.101, 676.135 380.340 C 670.015 369.507, 664 357.675, 664 356.466 C 664 354.308, 652.594 332.392, 647.624 325 C 638.283 311.108, 620.148 290.244, 609.933 281.636 C 604.516 277.071, 585.184 266.403, 577 263.462 C 555.342 255.679, 528.935 251.770, 504.508 252.731" stroke="#aa444d" fill="#aa444d" fill-opacity="0.2" fill-rule="evenodd"/><path class="svg-region-Or" d="M 1269.500 242.437 C 1250.152 246.590, 1232.699 251.272, 1224.249 254.575 C 1210.656 259.889, 1186.268 270.935, 1184.588 272.539 C 1183.990 273.110, 1181.455 275.135, 1178.956 277.039 C 1159.787 291.641, 1143.284 309.082, 1134.700 323.814 C 1123.587 342.885, 1117.848 353.914, 1114.570 362.500 C 1109.823 374.935, 1109.662 375.403, 1109.841 376.250 C 1109.929 376.663, 1109.600 377, 1109.111 377 C 1108.623 377, 1107.946 378.477, 1107.607 380.282 C 1106.767 384.758, 1095.863 406.130, 1092.073 410.728 C 1090.383 412.778, 1089 414.821, 1089 415.268 C 1089 415.715, 1088.157 417.300, 1087.127 418.790 C 1086.098 420.281, 1083.502 424.200, 1081.360 427.500 C 1079.218 430.800, 1075.614 435.975, 1073.351 439 C 1071.089 442.025, 1068.660 446.300, 1067.954 448.500 C 1063.934 461.032, 1062.709 464.699, 1061.943 466.500 C 1061.475 467.600, 1060.565 470.525, 1059.921 473 C 1059.276 475.475, 1058.147 478.884, 1057.411 480.575 C 1056.675 482.266, 1055.608 486.991, 1055.039 491.075 C 1054.471 495.159, 1053.489 502.171, 1052.856 506.657 C 1051.510 516.212, 1052.113 529.034, 1054.307 537.500 C 1055.162 540.800, 1056.407 545.658, 1057.074 548.296 C 1057.740 550.934, 1059.841 555.659, 1061.742 558.796 C 1071.272 574.521, 1074.736 583.708, 1080.110 607.500 C 1081.352 613, 1083.431 620.200, 1084.728 623.500 C 1086.026 626.800, 1088.671 634.868, 1090.607 641.429 C 1092.542 647.990, 1095.299 655.415, 1096.734 657.929 C 1103.531 669.838, 1117.518 683.606, 1135.189 695.781 C 1147.465 704.239, 1152.856 709.089, 1160.777 718.806 C 1171.264 731.668, 1176.089 736.283, 1184.291 741.293 C 1190.304 744.966, 1210.127 752, 1214.465 752 C 1215.639 752, 1217.034 752.434, 1217.564 752.964 C 1218.959 754.359, 1232.305 757, 1237.958 757 C 1244.279 757, 1256.724 754.391, 1264.671 751.399 C 1279.418 745.849, 1307.057 730.371, 1315.205 723.101 C 1321.740 717.269, 1329.976 708.415, 1342.736 693.500 C 1349.324 685.800, 1361.367 672.975, 1369.499 665 C 1409.784 625.490, 1417.607 617.327, 1435.531 596.091 C 1444.946 584.937, 1455.364 569.079, 1463.511 553.500 C 1466.675 547.450, 1470.288 540.691, 1471.540 538.479 C 1477.077 528.698, 1488.799 497.455, 1492.961 481.388 C 1496.431 467.990, 1497.940 455.395, 1497.500 443.500 C 1497.028 430.745, 1495.800 420.561, 1494.305 417 C 1492.704 413.186, 1491.003 407.525, 1490.978 405.929 C 1490.965 405.143, 1489.625 401.800, 1488 398.500 C 1486.375 395.200, 1485.035 392.015, 1485.022 391.422 C 1484.925 386.727, 1467.407 351.285, 1457.876 336.500 C 1456.458 334.300, 1453.360 329.029, 1450.992 324.788 C 1448.624 320.546, 1445.069 315.316, 1443.093 313.166 C 1441.117 311.017, 1437.345 306.734, 1434.710 303.650 C 1429.239 297.244, 1422.932 292.593, 1416.765 290.417 C 1414.423 289.591, 1411.156 287.655, 1409.504 286.116 C 1405.633 282.510, 1401.842 279.938, 1394.460 275.913 C 1385.212 270.870, 1368.099 259.987, 1367.257 258.612 C 1366.478 257.341, 1351.493 248.005, 1350.215 247.994 C 1349.822 247.990, 1348.240 247.330, 1346.699 246.527 C 1339.312 242.673, 1326.882 241.099, 1299 240.484 C 1282.386 240.117, 1279.379 240.316, 1269.500 242.437" stroke="#aa444d" fill="#aa444d" fill-opacity="0.2" fill-rule="evenodd"/><path class="svg-region-BPCl" d="M 827 468.525 C 821.775 469.230, 817.397 469.850, 817.270 469.903 C 817.144 469.957, 816.194 471.688, 815.160 473.750 C 812.577 478.901, 811.535 491.940, 813.586 493.439 C 814.447 494.069, 815.488 497.381, 816.032 501.221 C 816.552 504.898, 817.603 509.615, 818.367 511.703 C 819.131 513.791, 820.575 518.074, 821.575 521.220 C 822.575 524.366, 823.627 526.706, 823.912 526.421 C 825.284 525.050, 827.147 515.453, 827.887 505.939 C 828.759 494.753, 832.744 480.398, 835.837 477.306 C 839.479 473.666, 842.941 468.714, 842.426 467.881 C 841.750 466.787, 839.044 466.900, 827 468.525 M 868.955 608.137 C 865.286 611.593, 860.912 614.386, 855.596 616.669 C 844.358 621.495, 841.002 624.739, 838.269 633.416 C 837.042 637.312, 836.029 641.087, 836.019 641.805 C 836.009 642.523, 835.012 645.223, 833.804 647.805 C 831.580 652.561, 830.196 664.659, 831.350 669.257 C 831.662 670.502, 833.286 672.329, 834.959 673.317 C 836.941 674.488, 838 675.912, 838 677.407 C 838 678.669, 838.494 681.119, 839.098 682.851 C 840.168 685.920, 840.350 686, 846.314 686 C 854.078 686, 860.103 683.759, 861.750 680.258 C 863.448 676.648, 863.333 675.612, 861 673.500 C 857.104 669.975, 859.373 669.195, 866.750 671.523 C 870.167 672.601, 869.519 670.189, 865.016 665.060 C 862.872 662.617, 861.343 660.255, 861.618 659.810 C 861.893 659.364, 863.859 659, 865.988 659 C 870.789 659, 872.272 657.561, 876.041 649.249 C 878.355 644.146, 879.003 641.282, 879.013 636.112 C 879.020 632.239, 879.880 626.807, 881.087 623 C 883.193 616.357, 883.120 608.961, 880.907 604.827 C 879.079 601.410, 874.856 602.580, 868.955 608.137" stroke="#83385f" fill="#83385f" fill-opacity="0.2" fill-rule="evenodd"/><path class="svg-region-BPCr" d="M 959.809 469.993 C 955.857 470.500, 953.159 471.530, 950.982 473.362 C 949.257 474.813, 948.255 476, 948.754 476 C 950.787 476, 959.998 485.845, 962.468 490.659 C 964.740 495.089, 965.168 497.350, 965.496 506.659 C 965.706 512.622, 966.344 519.526, 966.914 522 C 967.485 524.475, 967.981 528.750, 968.017 531.500 C 968.055 534.341, 968.889 538.011, 969.948 540 L 971.813 543.500 973.014 540.500 C 973.675 538.850, 974.675 536.625, 975.238 535.555 C 975.801 534.485, 976.568 528.410, 976.944 522.055 C 977.404 514.272, 978.177 509.455, 979.313 507.300 C 980.432 505.178, 981 501.733, 981 497.076 C 981 491.086, 980.485 488.995, 977.500 482.861 C 975.575 478.906, 974 475.101, 974 474.407 C 974 472.703, 969.126 468.968, 967.115 469.131 C 966.227 469.203, 962.939 469.591, 959.809 469.993 M 910.667 605.667 C 908.853 607.480, 910.817 616.139, 914.666 623.299 C 915.494 624.839, 916.485 629.381, 916.868 633.393 C 917.532 640.347, 919.844 646, 922.023 646 C 922.560 646, 923 647.783, 923 649.961 C 923 653.192, 923.692 654.629, 926.750 657.750 C 928.813 659.855, 930.968 662.410, 931.540 663.429 C 932.451 665.053, 932.845 665.114, 934.744 663.928 C 937.748 662.051, 938.523 663.312, 937.160 667.860 C 934.869 675.507, 935.828 680.699, 940.057 683.532 C 941.672 684.614, 942.996 686.150, 942.997 686.945 C 942.999 687.740, 944.100 689.540, 945.445 690.945 C 946.790 692.350, 948.478 695.296, 949.196 697.490 C 950.618 701.833, 952.366 702.648, 960.750 702.882 L 965 703 965.022 698.750 C 965.041 694.946, 965.382 694.342, 968.272 693 C 971.298 691.594, 971.519 691.138, 971.801 685.726 C 972.023 681.451, 971.586 678.985, 970.118 676.226 C 969.026 674.177, 967.598 670.700, 966.942 668.500 C 964.976 661.900, 960.972 655.601, 956.868 652.651 C 954.152 650.699, 953 649.126, 953 647.373 C 953 644.329, 950.340 636.060, 948.697 633.998 C 948.039 633.172, 943.900 630.031, 939.500 627.019 C 928.998 619.830, 927.584 618.657, 920.499 611.263 C 914.943 605.464, 912.347 603.987, 910.667 605.667" stroke="#83385f" fill="#83385f" fill-opacity="0.2" fill-rule="evenodd"/><path class="svg-region-AMC" d="M 844.250 409.360 C 842.396 410.278, 842 411.298, 842 415.154 C 842 419.762, 842.066 419.857, 846.250 421.310 C 850.328 422.726, 867.852 426.333, 870.650 426.333 C 872.944 426.333, 872.144 427.698, 869.115 428.952 C 867.528 429.610, 864.603 431.637, 862.615 433.459 C 859.502 436.310, 859 437.386, 859 441.206 C 859 447.567, 856.337 452.159, 849.632 457.360 C 846.404 459.864, 843.254 462.099, 842.632 462.328 C 841.801 462.632, 841.793 463.242, 842.603 464.621 C 844.970 468.653, 859.789 466.763, 867.353 461.465 C 868.504 460.659, 870.591 460, 871.993 460 C 873.394 460, 877.906 459.029, 882.020 457.842 C 888.227 456.052, 891.789 455.715, 902.945 455.861 C 918.558 456.065, 922.935 457.115, 927.892 461.845 C 931.536 465.322, 941.662 470.671, 942.678 469.655 C 942.981 469.353, 942.277 467.896, 941.114 466.418 C 939.951 464.940, 939 463.091, 939 462.310 C 939 460.145, 935.085 451.906, 932.285 448.180 C 927.933 442.386, 928.244 433.774, 933.025 427.696 C 934.076 426.359, 937.425 424.048, 940.468 422.559 C 943.511 421.071, 946 419.436, 946 418.926 C 946 417.284, 931.194 417.848, 927.766 419.621 C 924.099 421.517, 916.254 421.040, 911.500 418.631 C 909.850 417.795, 905.241 416.974, 901.257 416.806 C 894.575 416.524, 894.014 416.331, 894.007 414.317 C 894.003 412.992, 893.186 411.877, 891.928 411.477 C 889.118 410.585, 885 411.726, 885 413.397 C 885 416.216, 881.876 417.432, 875.145 417.232 C 871.497 417.124, 868.359 416.578, 868.173 416.018 C 867.734 414.703, 865 414.687, 865 416 C 865 416.550, 862.580 417, 859.622 417 C 853.688 417, 851.414 415.422, 852.485 412.049 C 852.990 410.456, 852.550 409.779, 850.502 409.001 C 847.476 407.850, 847.275 407.862, 844.250 409.360" stroke="#9d4741" fill="#9d4741" fill-opacity="0.2" fill-rule="evenodd"/>
    </svg>