<svg xmlns="http://www.w3.org/2000/svg" width="1785" height="1131" viewBox="0 0 1785 1131" version="1.1">
    <path class="svg-region-AP" d="M 870.500 462.567 C 866.100 464.985, 861.272 466.971, 859.770 466.981 C 858.269 466.992, 855.344 467.611, 853.270 468.357 C 845.957 470.988, 842.429 471.913, 835.500 473.012 C 826.127 474.500, 821.859 475.883, 819.711 478.129 C 818.727 479.158, 817 480, 815.874 480 C 813.940 480, 813.860 480.407, 814.447 487.250 C 814.860 492.061, 814.483 498.369, 813.328 506 C 810.692 523.408, 811.074 540.716, 814.444 556.500 C 814.678 557.600, 815.357 559.850, 815.953 561.500 C 816.548 563.150, 818.580 569.900, 820.468 576.500 C 822.356 583.100, 823.924 587.259, 823.951 585.741 C 823.985 583.830, 825.689 581.146, 829.500 577 C 832.525 573.710, 835 570.629, 835 570.155 C 835 569.680, 836.104 568.101, 837.452 566.646 C 839.346 564.603, 840.851 564, 844.058 564 C 849.161 564, 859.429 566.580, 862.602 568.659 C 868.180 572.314, 873.997 587.184, 873.999 597.796 C 874 600.917, 878.184 615.275, 879.763 617.573 C 881.075 619.482, 884.385 620.443, 889.747 620.472 L 894.993 620.500 894.997 615.996 C 894.998 613.518, 896.143 608.343, 897.540 604.496 C 898.937 600.648, 900.677 592.922, 901.407 587.327 L 902.735 577.155 907.617 572.476 C 916.435 564.027, 927.670 560.643, 935.607 564.046 C 939.745 565.820, 940.379 565.855, 943.065 564.467 C 945.691 563.108, 946.311 563.109, 948.953 564.476 C 950.940 565.503, 952.235 567.193, 952.910 569.636 C 954.042 573.737, 952.998 576.565, 948.601 581.302 C 947.170 582.842, 946 584.998, 946 586.091 C 946 587.185, 945.100 589.844, 944 592 C 942.900 594.156, 942 596.854, 942 597.995 C 942 599.137, 941.361 601.067, 940.581 602.285 C 939.800 603.503, 938.852 607.054, 938.475 610.175 C 937.978 614.285, 937.128 616.471, 935.394 618.099 C 932.298 621.008, 932.227 625.186, 935.250 626.513 C 936.663 627.133, 937.620 628.551, 937.824 630.324 C 938.001 631.876, 939.007 634.007, 940.058 635.058 C 941.940 636.940, 941.978 636.927, 942.487 634.235 C 942.772 632.731, 943.733 628.575, 944.622 625 C 945.511 621.425, 946.589 616.700, 947.017 614.500 C 947.446 612.300, 948.315 608.925, 948.950 607 C 949.585 605.075, 950.490 601.475, 950.962 599 C 951.434 596.525, 953.825 588.650, 956.274 581.500 C 961.260 566.947, 965.150 553.476, 966.957 544.500 C 967.621 541.200, 968.578 536.613, 969.082 534.307 C 969.587 532.001, 970 528.709, 970 526.991 C 970 525.274, 970.518 522.900, 971.152 521.717 C 971.785 520.533, 972.461 515.231, 972.653 509.934 C 972.846 504.638, 973.401 498.175, 973.887 495.573 C 975.524 486.812, 973.729 484.613, 962.553 481.695 C 958.733 480.697, 954.458 479.274, 953.053 478.533 C 943.110 473.283, 936.459 470.733, 932.237 470.551 C 929.288 470.424, 923.726 468.751, 917.500 466.120 C 912 463.795, 906.600 461.517, 905.500 461.057 C 901.330 459.313, 892.585 458.003, 885.674 458.086 C 879.156 458.164, 877.768 458.574, 870.500 462.567 M 825 595.617 C 825 597.195, 834.297 618.037, 834.784 617.550 C 835.312 617.022, 834.505 614.899, 831.407 608.669 C 830.633 607.112, 830 605.181, 830 604.379 C 830 602.780, 826.250 595, 825.480 595 C 825.216 595, 825 595.278, 825 595.617 M 835.195 621.500 C 835.215 623.150, 835.439 623.704, 835.693 622.731 C 835.947 621.758, 835.930 620.408, 835.656 619.731 C 835.382 619.054, 835.175 619.850, 835.195 621.500" stroke="#fc7143" fill="#fc7143" fill-opacity="0.2" fill-rule="evenodd"/><path class="svg-region-PP" d="M 895.008 361.974 C 894.188 362.492, 892.523 362.667, 891.308 362.362 C 890.010 362.037, 886.913 362.836, 883.799 364.300 C 880.885 365.671, 876.890 367.459, 874.922 368.274 C 870.404 370.143, 853.723 384.604, 847.970 391.638 C 847.129 392.667, 845.105 394.559, 843.473 395.842 C 840.918 397.852, 840.529 398.788, 840.676 402.577 C 840.770 404.997, 840.431 407.234, 839.923 407.547 C 839.415 407.861, 839 409.891, 839 412.059 C 839 415.761, 839.180 416, 841.965 416 C 845.395 416, 847.062 413.646, 847.326 408.427 C 847.444 406.114, 847.991 405.008, 849.020 405.004 C 850.933 404.999, 861.506 397.150, 863.569 394.204 C 865.382 391.616, 866.654 391.482, 870.622 393.462 C 877.163 396.724, 882.016 404.525, 881.982 411.718 C 881.970 414.243, 880.972 416.963, 878.982 419.900 C 875.651 424.817, 875.347 426, 877.416 426 C 878.991 426, 885.802 419.174, 887.624 415.767 C 888.761 413.644, 888.843 413.689, 890.322 417.229 C 891.610 420.312, 892.445 420.973, 895.674 421.470 C 897.778 421.794, 900.882 422.496, 902.571 423.030 C 907.642 424.632, 908.231 424.346, 906.552 421.101 C 905.232 418.548, 905.229 418.055, 906.526 416.978 C 907.337 416.305, 908 414.892, 908 413.838 C 908 410.456, 911.986 403.960, 914.791 402.771 C 916.281 402.140, 918.625 400.613, 920 399.380 C 923.673 396.084, 931 395.671, 931 398.759 C 931 399.727, 931.900 401.081, 933 401.768 C 934.100 402.455, 935 403.684, 935 404.500 C 935 405.316, 935.900 406.545, 937 407.232 C 938.100 407.919, 939 408.871, 939 409.347 C 939 409.823, 940.125 411.097, 941.500 412.179 C 942.875 413.260, 944 414.755, 944 415.500 C 944 416.836, 948.559 421, 950.021 421 C 950.435 421, 951.092 418.863, 951.482 416.250 C 951.871 413.637, 952.837 409.949, 953.627 408.053 C 955.434 403.714, 954.942 402.438, 951.167 401.683 C 948.953 401.241, 947.219 399.662, 944.581 395.688 C 942.611 392.721, 941 389.777, 941 389.146 C 941 388.516, 940.550 388, 940 388 C 939.450 388, 939 387.578, 939 387.063 C 939 386.547, 937.865 384.860, 936.478 383.313 C 921.809 366.950, 918.424 364.624, 906.063 362.419 C 896.943 360.792, 896.881 360.789, 895.008 361.974" stroke="#c4743d" fill="#c4743d" fill-opacity="0.2" fill-rule="evenodd"/><path class="svg-region-LPl" d="M 1088.630 413.250 C 1087.692 416.753, 1087.879 417.345, 1089.500 416 C 1091.116 414.658, 1091.568 411, 1090.117 411 C 1089.631 411, 1088.962 412.012, 1088.630 413.250" stroke="#d2454f" fill="#d2454f" fill-opacity="0.2" fill-rule="evenodd"/><path class="svg-region-AVCl" d="M 838.743 565.084 C 837.777 565.647, 836.123 567.800, 835.067 569.868 C 834.012 571.936, 831.203 575.336, 828.824 577.422 C 824.580 581.144, 824.501 581.328, 824.580 587.357 C 824.642 592.115, 825.260 594.514, 827.318 598 C 828.780 600.475, 829.981 603.251, 829.988 604.169 C 829.995 605.087, 830.751 607.337, 831.669 609.169 C 832.587 611.001, 833.780 613.389, 834.319 614.476 C 834.858 615.563, 835.518 619.501, 835.784 623.226 C 836.051 626.952, 836.420 630, 836.606 630 C 836.791 630, 839.543 628.846, 842.721 627.436 C 845.900 626.025, 851.397 624.196, 854.938 623.370 C 858.479 622.545, 862.258 621.397, 863.336 620.820 C 865.664 619.574, 872.034 621.177, 874.483 623.626 C 875.684 624.827, 876.381 624.929, 877.430 624.058 C 880.129 621.818, 880.022 618.289, 876.999 609.848 C 875.355 605.257, 874.008 599.700, 874.005 597.500 C 873.991 586.310, 868.493 572.519, 862.474 568.575 C 856.919 564.935, 842.612 562.831, 838.743 565.084" stroke="#ffbab9" fill="#ffbab9" fill-opacity="0.2" fill-rule="evenodd"/><path class="svg-region-AVCr" d="M 925.500 562.976 C 918.696 564.210, 912.314 567.670, 907.194 572.898 C 902.654 577.534, 902.235 578.385, 901.618 584.206 C 900.582 593.977, 900.058 596.479, 897.440 604.178 C 894.013 614.252, 894.180 619.549, 898.073 624.272 C 899.763 626.322, 901.497 628, 901.927 628 C 902.357 628, 903.362 625.954, 904.160 623.453 L 905.611 618.906 908.060 620.833 C 910.699 622.908, 917.294 626.077, 923.126 628.072 C 926.395 629.190, 927.060 629.093, 929.876 627.088 C 931.648 625.827, 933 623.970, 933 622.799 C 933 621.664, 933.952 619.909, 935.116 618.900 C 936.455 617.738, 937.699 614.759, 938.505 610.782 C 939.776 604.515, 940.542 602.021, 944.143 592.422 C 945.191 589.629, 946.257 586.260, 946.512 584.935 C 946.768 583.610, 947.833 581.845, 948.880 581.013 C 949.927 580.181, 951.488 578.098, 952.348 576.384 C 954.363 572.370, 952.965 566.679, 949.388 564.335 C 947.063 562.811, 946.621 562.810, 943.459 564.318 C 940.241 565.852, 939.775 565.832, 935.438 563.974 C 932.906 562.888, 930.534 562.056, 930.167 562.125 C 929.800 562.194, 927.700 562.577, 925.500 562.976" stroke="#ffbab9" fill="#ffbab9" fill-opacity="0.2" fill-rule="evenodd"/><path class="svg-region-VMl" d="M 777.667 410.667 C 776.602 411.732, 776.897 420, 778 420 C 778.550 420, 779 420.834, 779 421.853 C 779 422.873, 782.658 428.835, 787.128 435.103 C 791.598 441.371, 797.197 450.142, 799.569 454.593 C 801.941 459.044, 805.274 465.119, 806.976 468.093 C 808.677 471.067, 810.812 474.962, 811.720 476.750 C 813.659 480.568, 817.555 481.168, 820.218 478.058 C 822.013 475.962, 825.571 474.843, 836.500 472.936 C 847.355 471.042, 856.555 467.684, 856.219 465.738 C 856.022 464.598, 857.899 463.203, 862.484 461.081 C 866.912 459.031, 869.330 457.263, 869.956 455.617 C 870.464 454.278, 871.955 452.373, 873.268 451.382 L 875.656 449.581 873.033 447.375 C 871.591 446.161, 868.631 444.848, 866.455 444.457 C 860.923 443.462, 854.577 439.478, 847.810 432.750 C 841.597 426.574, 839.928 426.059, 832.659 428.078 C 829.511 428.952, 828.503 428.861, 827.080 427.572 C 826.124 426.708, 823.948 426, 822.243 426 C 819.214 426, 816 423.863, 816 421.849 C 816 421.221, 812.323 420.946, 806.250 421.121 C 797.040 421.386, 792 420.336, 792 418.153 C 792 416.149, 787.680 413, 784.930 413 C 783.192 413, 781.696 412.371, 781.362 411.500 C 780.764 409.944, 778.827 409.507, 777.667 410.667" stroke="#e59376" fill="#e59376" fill-opacity="0.2" fill-rule="evenodd"/><path class="svg-region-VMr" d="M 975.358 389.772 C 974.180 390.723, 972.529 392.870, 971.689 394.544 C 969.650 398.608, 967 409.016, 967 412.960 C 967 414.704, 966.475 417.114, 965.832 418.316 C 964.397 421.002, 956.744 428.532, 953.907 430.050 C 952.761 430.663, 950.129 432.695, 948.059 434.566 C 944.977 437.350, 943.083 438.138, 937.607 438.913 C 933.929 439.434, 929.025 440.747, 926.710 441.831 C 924.394 442.915, 920.813 444.331, 918.750 444.978 C 915.909 445.870, 915.008 446.682, 915.032 448.328 C 915.074 451.226, 916.558 452.963, 922.404 456.957 C 925.101 458.800, 928.096 461.026, 929.059 461.904 C 930.022 462.782, 931.977 464.309, 933.405 465.297 C 934.832 466.285, 936 467.728, 936 468.505 C 936 469.997, 943.118 474.575, 948.998 476.863 C 958.847 480.698, 965.717 482.951, 967.628 482.974 C 968.798 482.988, 970.315 483.675, 971 484.500 C 973.846 487.929, 974.687 486.694, 977.947 474.295 C 979.311 469.112, 982.220 465.572, 989.712 459.986 C 992.895 457.612, 997.403 453.660, 999.729 451.205 C 1004.746 445.910, 1012.101 432.699, 1014.968 423.834 C 1016.094 420.350, 1018.743 415.220, 1020.853 412.434 C 1026.158 405.431, 1026.712 402.705, 1023.366 400.073 C 1021.047 398.249, 1019.351 398, 1009.260 398 C 998.047 398, 997.686 397.929, 993.145 394.853 C 982.324 387.523, 979.239 386.641, 975.358 389.772" stroke="#e59376" fill="#e59376" fill-opacity="0.2" fill-rule="evenodd"/><path class="svg-region-PV" d="M 878.500 191.189 C 875.200 192.339, 870.587 193.953, 868.250 194.776 C 865.913 195.599, 864 196.661, 864 197.136 C 864 197.611, 863.325 198, 862.500 198 C 861.675 198, 861 198.606, 861 199.346 C 861 200.087, 860.253 202.190, 859.340 204.021 C 855.715 211.288, 858.844 228.682, 865.992 241 C 870.836 249.347, 877 262.381, 877 264.278 C 877 267.604, 880.288 274.701, 883.239 277.746 C 886.854 281.476, 890.592 281.930, 898.385 279.585 C 904.813 277.650, 912.211 271.521, 911.811 268.463 C 911.638 267.148, 912.430 265.151, 913.649 263.826 C 917.710 259.413, 920 253.776, 920 248.193 C 920 244.783, 920.541 242.316, 921.500 241.357 C 922.325 240.532, 923 238.829, 923 237.572 C 923 236.316, 924.509 233.310, 926.353 230.894 C 931.147 224.613, 934.002 218.591, 933.988 214.790 C 933.965 208.363, 929.716 196.179, 926.889 194.431 C 923.390 192.269, 910.443 190.327, 894.500 189.572 C 886.113 189.175, 883.532 189.436, 878.500 191.189" stroke="#b09658" fill="#b09658" fill-opacity="0.2" fill-rule="evenodd"/><path class="svg-region-B" d="M 886.750 620.716 C 885.237 620.945, 883.931 621.665, 883.848 622.316 C 883.764 622.967, 883.647 624.081, 883.589 624.792 C 883.449 626.497, 881.030 627.966, 878.332 627.985 C 875.111 628.007, 872.234 633.491, 870.388 643.124 C 866.401 663.926, 862.187 678.041, 857.866 685.063 C 854.253 690.935, 852.382 701.930, 854.139 706.969 C 855.413 710.624, 853.994 713, 850.536 713 C 848.905 713, 847.601 711.683, 845.608 708.021 C 841.762 700.954, 836.468 697.932, 833.367 701.033 C 832.220 702.180, 829 701.313, 829 699.858 C 829 697.799, 825.203 701.112, 824.574 703.720 C 824.205 705.249, 823.501 714.600, 823.010 724.500 C 822.039 744.043, 822.850 753.943, 826.113 762.383 C 827.151 765.069, 828 768.338, 828 769.647 C 828 770.956, 828.395 772.809, 828.879 773.764 C 829.362 774.719, 831.033 778.340, 832.592 781.811 C 834.992 787.155, 835.738 788.032, 837.463 787.535 C 843.468 785.806, 849.004 785.772, 851.562 787.449 C 854.030 789.066, 854.495 789.068, 859.309 787.494 C 863.725 786.049, 865.236 785.989, 870.268 787.057 C 873.680 787.781, 876.416 787.923, 876.854 787.398 C 877.659 786.434, 880.127 780.706, 884.565 769.500 C 886.089 765.650, 887.472 762.327, 887.637 762.115 C 888.614 760.861, 893.216 765.741, 895.544 770.500 C 899.924 779.452, 903.634 784, 906.556 784 C 907.955 784, 910.423 784.685, 912.041 785.521 C 913.774 786.417, 916.017 786.783, 917.499 786.411 C 919.071 786.016, 920.936 786.383, 922.472 787.390 C 925.719 789.517, 927.632 789.421, 930.230 787 C 932.795 784.611, 934.342 784.485, 936.357 786.500 C 937.182 787.325, 939.037 788, 940.478 788 C 941.920 788, 944.479 788.713, 946.165 789.585 C 948.130 790.601, 949.575 790.825, 950.193 790.207 C 950.723 789.677, 951.554 784.352, 952.041 778.372 C 952.527 772.392, 953.370 761.999, 953.914 755.275 C 954.458 748.552, 955.435 742.057, 956.085 740.842 C 957.858 737.529, 956.431 723.150, 953.434 714.132 C 949.402 701.999, 942.297 688.092, 939.472 686.805 C 938.128 686.193, 936.336 684.636, 935.491 683.346 C 933.860 680.857, 930.986 680.152, 931.020 682.250 C 931.031 682.938, 931.458 686.389, 931.968 689.920 L 932.896 696.339 929.066 700.170 C 925.269 703.966, 923 704.997, 923 702.925 C 923 702.334, 920.750 698.861, 918 695.209 C 913.263 688.917, 913 688.245, 913 682.424 C 913 677.587, 912.489 675.526, 910.600 672.743 C 909.280 670.798, 907.867 668.156, 907.460 666.873 C 907.053 665.590, 905.387 663.296, 903.759 661.774 C 901.122 659.312, 900.860 658.543, 901.366 654.754 C 904.512 631.218, 904.493 631.062, 897.624 623.750 C 894.119 620.018, 893.147 619.747, 886.750 620.716" stroke="#e23b33" fill="#e23b33" fill-opacity="0.2" fill-rule="evenodd"/><path class="svg-region-Ol" d="M 518.500 261.030 C 515.750 261.433, 510.800 262.511, 507.500 263.426 C 504.200 264.342, 499.025 265.767, 496 266.595 C 484.138 269.840, 477.311 272.183, 473 274.488 C 470.525 275.811, 464.309 278.971, 459.187 281.509 C 454.066 284.048, 449.068 286.884, 448.081 287.813 C 447.095 288.741, 444.808 290.625, 443 292 C 441.192 293.375, 438.953 295.211, 438.025 296.081 C 435.905 298.068, 419.997 309.396, 417.301 310.839 C 416.196 311.430, 413.450 313.396, 411.199 315.207 C 403.736 321.212, 398.575 324.677, 391.500 328.434 C 387.650 330.478, 383.600 332.929, 382.500 333.880 C 380.263 335.814, 372.141 341.228, 370.319 342 C 366.730 343.520, 347.764 362.178, 333.383 378.336 C 330.762 381.281, 326.942 389.898, 323.638 400.321 C 314.616 428.776, 308.026 450.973, 307.109 456 C 303.285 476.948, 303.239 491.337, 306.935 510 C 308.938 520.113, 315.618 538.821, 319.075 544 C 319.993 545.375, 321.978 548.975, 323.487 552 C 324.996 555.025, 327.979 560.082, 330.116 563.239 C 332.252 566.395, 334 569.199, 334 569.470 C 334 569.741, 337.122 575.140, 340.939 581.468 C 347.593 592.503, 352.295 598.925, 365.567 615.104 C 372.291 623.301, 379.019 634.150, 387.210 650 C 393.747 662.651, 398.424 669.563, 411.570 686 C 417.068 692.875, 423.109 700.525, 424.994 703 C 431.216 711.167, 458.456 741.444, 468 750.801 C 473.565 756.256, 485.114 765.932, 490.361 769.535 C 500.916 776.783, 506.561 779.762, 518.500 784.385 C 545.304 794.763, 573.758 791.122, 598.750 774.114 C 603.287 771.026, 607.008 768.050, 607.017 767.500 C 607.027 766.950, 609.614 763.523, 612.767 759.883 C 615.920 756.244, 620.525 750.878, 623 747.959 C 625.475 745.039, 628.191 741.942, 629.035 741.075 C 629.880 740.209, 632.580 736.838, 635.035 733.583 C 637.491 730.329, 640.800 726.876, 642.388 725.910 C 643.977 724.944, 647.127 722.535, 649.388 720.556 C 655.656 715.072, 666.947 707.086, 672.250 704.385 C 674.862 703.055, 677 701.524, 677 700.983 C 677 700.442, 677.858 700, 678.907 700 C 681.938 700, 693.700 687.493, 697.085 680.670 C 704.305 666.117, 705.526 654.816, 703.561 620.734 C 702.269 598.341, 703.070 595.694, 722.547 558 C 728.151 547.155, 731.934 536.281, 734.030 525 C 736.173 513.459, 733.314 488.816, 727.764 471 C 725.377 463.335, 719.832 451.936, 717.584 450.070 C 716.713 449.347, 716 448.329, 716 447.808 C 716 447.287, 714.730 444.979, 713.178 442.680 C 711.626 440.381, 708.619 435.356, 706.497 431.514 C 704.375 427.672, 702.250 424.072, 701.774 423.514 C 700.047 421.487, 691.663 406.221, 685.888 394.587 C 682.635 388.034, 679.585 382.184, 679.109 381.587 C 678.634 380.989, 677.925 379.375, 677.533 378 C 676.274 373.577, 674.535 370, 673.645 370 C 673.168 370, 673.066 368.460, 673.419 366.578 C 673.820 364.442, 673.634 362.892, 672.924 362.453 C 672.127 361.960, 672.005 362.462, 672.517 364.125 C 672.932 365.473, 672.871 366.140, 672.374 365.666 C 671.893 365.208, 671.500 363.183, 671.500 361.167 C 671.500 358.673, 671.048 357.502, 670.083 357.501 C 669.304 357.501, 668.479 356.938, 668.250 356.250 C 668.021 355.563, 668.279 355, 668.823 355 C 669.367 355, 669.576 354.093, 669.286 352.984 C 668.996 351.875, 668.072 351.088, 667.233 351.234 C 666.394 351.380, 665.490 350.875, 665.224 350.111 C 664.929 349.264, 665.182 348.994, 665.870 349.420 C 668.136 350.820, 666.956 346.239, 664 342.159 C 662.350 339.881, 661 337.387, 661 336.616 C 661 335.845, 660.325 334.955, 659.500 334.638 C 658.675 334.322, 658 333.149, 658 332.031 C 658 330.914, 657.550 330, 657 330 C 656.450 330, 656 329.148, 656 328.107 C 656 327.066, 655.288 325.941, 654.417 325.606 C 653.546 325.272, 653.007 324.480, 653.218 323.846 C 653.429 323.212, 652.679 321.693, 651.551 320.471 C 646.536 315.038, 645.188 313.292, 643.550 310.112 C 641.408 305.951, 628.671 290.742, 623.155 285.759 C 614.359 277.812, 599.160 269.080, 594 269.008 C 593.175 268.997, 591.185 268.302, 589.578 267.464 C 587.971 266.626, 583.471 265.733, 579.578 265.479 C 575.685 265.226, 570.925 264.523, 569 263.918 C 565.772 262.904, 547.300 261.309, 530.500 260.595 C 526.650 260.431, 521.250 260.627, 518.500 261.030 M 1130 698.417 C 1130 698.629, 1131.575 699.732, 1133.500 700.867 C 1135.425 702.003, 1137 702.581, 1137 702.151 C 1137 701.722, 1135.425 700.619, 1133.500 699.701 C 1131.575 698.783, 1130 698.206, 1130 698.417" stroke="#aa444d" fill="#aa444d" fill-opacity="0.2" fill-rule="evenodd"/><path class="svg-region-Or" d="M 1278.999 240.313 C 1278.724 240.600, 1272.874 241.359, 1265.999 241.999 C 1252.965 243.213, 1247.693 244.299, 1234.740 248.438 C 1224.831 251.605, 1205.686 260.938, 1197.129 266.773 C 1184.947 275.079, 1170.559 287.663, 1164.717 295.119 C 1158.046 303.633, 1152.925 310.120, 1146.452 318.257 C 1141.374 324.641, 1138.882 328.760, 1127.169 350.135 C 1122.758 358.185, 1118.011 368.042, 1116.621 372.041 C 1114.488 378.173, 1108.067 390.290, 1106.044 392 C 1103.921 393.795, 1094.783 406.510, 1092.030 411.500 C 1090.209 414.800, 1085.745 420.425, 1082.110 424 C 1069.210 436.685, 1065.866 442.039, 1053.687 469.500 C 1046.860 484.894, 1043.545 502.007, 1043.517 522 C 1043.501 533.930, 1043.649 534.846, 1046.775 542.086 C 1048.577 546.259, 1051.572 552.109, 1053.432 555.086 C 1061.359 567.778, 1064.918 575.117, 1067.940 585 C 1069.708 590.783, 1074.910 603.136, 1079.519 612.500 C 1084.122 621.850, 1088.191 630.850, 1088.562 632.500 C 1090.890 642.875, 1096.841 659.889, 1100.231 665.860 C 1106.938 677.678, 1122.307 693.600, 1132.236 699.018 C 1136.802 701.510, 1147.586 712.070, 1154.894 721.207 C 1162.164 730.297, 1167.314 734.699, 1175.500 738.821 C 1185.684 743.950, 1191.469 744.913, 1213.005 745.067 C 1274.491 745.506, 1284.532 740.920, 1340.418 686.884 C 1348.163 679.395, 1362.150 666.570, 1371.500 658.384 C 1380.850 650.198, 1389.852 642.123, 1391.504 640.440 C 1393.156 638.756, 1397.656 634.660, 1401.504 631.337 C 1410.721 623.376, 1430.354 601.612, 1435.917 593.188 C 1438.346 589.510, 1440.714 586.245, 1441.180 585.933 C 1442.268 585.204, 1449.486 573.921, 1454 565.893 C 1455.925 562.470, 1459.113 557.606, 1461.084 555.084 C 1464.743 550.405, 1472.762 535.286, 1477.305 524.500 C 1484.197 508.142, 1486.955 500.822, 1488.989 493.500 C 1490.211 489.100, 1491.615 484.375, 1492.108 483 C 1493.691 478.588, 1495.963 459.771, 1495.982 450.909 C 1496.006 439.650, 1494.368 427.410, 1491.512 417.500 C 1487.705 404.295, 1477.330 385.180, 1467.896 373.992 C 1465.512 371.164, 1463.051 366.562, 1461.524 362.072 C 1458.698 353.761, 1453.184 343.391, 1448.459 337.500 C 1446.695 335.300, 1443.310 329.752, 1440.936 325.172 C 1437.754 319.028, 1434.548 314.775, 1428.716 308.959 C 1424.368 304.623, 1420.066 300.823, 1419.155 300.516 C 1418.245 300.209, 1416.382 298.448, 1415.016 296.603 C 1413.650 294.758, 1410.524 292.183, 1408.070 290.881 C 1405.615 289.579, 1401.898 287.161, 1399.809 285.507 C 1384.887 273.693, 1373.994 266.588, 1362.486 261.165 C 1360.278 260.125, 1357.877 258.557, 1357.150 257.681 C 1355.440 255.621, 1340.561 248.426, 1331.535 245.294 C 1326.107 243.410, 1321.074 242.643, 1309.500 241.933 C 1301.250 241.427, 1291.125 240.738, 1287 240.402 C 1282.875 240.066, 1279.275 240.026, 1278.999 240.313" stroke="#aa444d" fill="#aa444d" fill-opacity="0.2" fill-rule="evenodd"/><path class="svg-region-BPCl" d="M 862.450 620.862 C 861.928 621.337, 858.566 622.441, 854.980 623.316 C 849.463 624.662, 837.134 629.392, 836.939 630.237 C 835.973 634.426, 834.084 652.401, 834.048 657.746 C 834.020 661.987, 833.223 667.378, 832.126 670.746 C 831.096 673.911, 829.699 678.525, 829.022 681 C 828.345 683.475, 827.391 686.529, 826.900 687.788 C 825.375 691.701, 824.603 701, 825.803 701 C 826.397 701, 827.177 700.523, 827.537 699.940 C 827.950 699.271, 828.687 699.548, 829.535 700.690 C 830.669 702.218, 831.197 702.305, 832.926 701.250 C 837.584 698.406, 841.791 700.681, 845.535 708.070 C 848.014 712.962, 849.628 713.847, 853.418 712.393 C 855.172 711.720, 855.489 708.783, 854.090 706.168 C 853.572 705.200, 853.517 701.400, 853.963 697.342 C 854.576 691.757, 855.523 688.947, 858.343 684.357 C 860.322 681.136, 862.582 676.250, 863.365 673.500 C 865.944 664.450, 868.281 654.581, 869.049 649.500 C 870.118 642.426, 873.115 630.677, 874.138 629.550 C 874.612 629.028, 875 627.423, 875 625.985 C 875 623.977, 874.181 622.980, 871.466 621.685 C 867.609 619.846, 863.939 619.511, 862.450 620.862" stroke="#83385f" fill="#83385f" fill-opacity="0.2" fill-rule="evenodd"/><path class="svg-region-BPCr" d="M 905 620.826 C 905 621.957, 904.620 623.117, 904.155 623.404 C 903.690 623.692, 903.253 629.349, 903.183 635.976 C 903.113 642.604, 902.594 648.891, 902.028 649.947 C 900.176 653.408, 900.786 659.723, 903.189 661.961 C 904.392 663.082, 905.742 664, 906.189 664 C 906.635 664, 907.008 664.788, 907.018 665.750 C 907.028 666.712, 908.378 669.480, 910.018 671.900 C 912.535 675.615, 913 677.270, 913 682.513 C 913 687.774, 913.421 689.261, 915.750 692.228 C 917.263 694.154, 919.625 697.579, 921 699.838 C 922.375 702.098, 923.950 703.951, 924.500 703.956 C 925.050 703.962, 927.206 702.235, 929.291 700.119 L 933.082 696.271 931.997 689.480 C 930.764 681.763, 931.853 678.918, 934.561 682.783 C 936.392 685.398, 939.674 687.319, 940.956 686.527 C 941.459 686.216, 940.925 683.833, 939.768 681.231 C 936.471 673.812, 936.151 659.095, 939.001 645.993 C 941.065 636.510, 941.116 635.558, 939.625 634.468 C 938.726 633.810, 938 631.885, 938 630.159 C 938 626.026, 934.501 625.019, 928.905 627.543 C 925.879 628.907, 924.656 629.056, 923.767 628.167 C 923.125 627.525, 922.013 627, 921.295 627 C 919.755 627, 911.667 623.169, 907.750 620.585 C 905.053 618.805, 905 618.810, 905 620.826" stroke="#83385f" fill="#83385f" fill-opacity="0.2" fill-rule="evenodd"/><path class="svg-region-AMC" d="M 887.563 415.801 C 886.830 418.112, 880.643 423.911, 875.500 427.108 L 871.500 429.595 863.500 427.856 C 855.593 426.137, 843 425.394, 843 426.647 C 843 427.003, 844.615 429.264, 846.588 431.672 C 851.086 437.162, 860.108 443.027, 866 444.292 C 868.475 444.824, 871.660 446.231, 873.078 447.420 L 875.656 449.581 873.268 451.382 C 871.955 452.373, 870.462 454.284, 869.951 455.629 C 869.311 457.313, 866.970 458.994, 862.426 461.033 C 855.637 464.079, 854.440 466.236, 859.222 466.806 C 861.699 467.102, 876.416 460.754, 877.565 458.895 C 878.932 456.683, 899.510 458.560, 906.500 461.534 C 930.313 471.666, 936 473.050, 936 468.716 C 936 467.197, 934.910 465.790, 932.750 464.519 C 930.962 463.467, 928.680 461.570, 927.677 460.303 C 926.675 459.036, 925.231 458, 924.470 458 C 922.258 458, 915 450.514, 915 448.232 C 915 446.708, 915.998 445.842, 918.750 444.978 C 920.813 444.331, 924.422 442.901, 926.771 441.801 C 929.121 440.701, 933.846 439.440, 937.271 438.999 C 945.100 437.990, 946.476 437.424, 947.726 434.697 C 948.760 432.440, 951 423.745, 951 421.986 C 951 420.220, 947.358 420.947, 945.407 423.102 C 942.479 426.338, 938.460 428.042, 935.265 427.403 C 933.305 427.011, 931.968 427.333, 931.072 428.414 C 929.323 430.521, 923.092 430.453, 920.008 428.293 C 918.668 427.355, 915.530 426.272, 913.036 425.888 C 910.541 425.504, 906.475 424.494, 904 423.644 C 901.525 422.793, 897.700 421.738, 895.500 421.299 C 892.129 420.626, 891.349 419.989, 890.543 417.250 C 889.474 413.617, 888.419 413.104, 887.563 415.801" stroke="#9d4741" fill="#9d4741" fill-opacity="0.2" fill-rule="evenodd"/>
    </svg>