<svg xmlns="http://www.w3.org/2000/svg" width="1785" height="1131" viewBox="0 0 1785 1131" version="1.1">
    <path class="svg-region-Ol" d="M 513.500 277.951 C 505.040 278.338, 501.567 278.849, 501.728 279.684 C 501.984 281.014, 494.274 282.857, 485.704 283.515 C 472.515 284.527, 457.517 289.363, 452 294.383 C 449.815 296.371, 428.379 310.531, 422.869 313.626 C 421.766 314.245, 419.360 316.045, 417.521 317.626 C 415.682 319.207, 410.017 323.650, 404.932 327.500 C 386.017 341.821, 371.732 355.083, 359.156 370 C 356.142 373.575, 349.811 380.488, 345.088 385.362 C 340.364 390.236, 335.797 394.961, 334.938 395.862 C 325.990 405.244, 314.495 423.647, 310.491 435 C 306.505 446.303, 304.781 459.443, 306.095 468.500 C 306.654 472.350, 307.267 476.625, 307.457 478 C 307.928 481.405, 310.878 493.037, 311.894 495.500 C 312.348 496.600, 313.551 500.200, 314.568 503.500 C 315.584 506.800, 317.486 511.975, 318.793 515 C 320.100 518.025, 321.845 522.075, 322.669 524 C 323.494 525.925, 324.662 528.400, 325.267 529.500 C 325.871 530.600, 328.138 534.875, 330.304 539 C 332.471 543.125, 335.499 547.933, 337.034 549.684 C 338.568 551.436, 340.147 553.911, 340.542 555.184 C 342.160 560.403, 352.335 575.634, 356.078 578.442 C 358.235 580.060, 360 581.903, 360 582.538 C 360 584.613, 363.184 590.133, 364.721 590.723 C 365.547 591.040, 366.746 592.545, 367.386 594.067 C 368.026 595.589, 372.926 601.418, 378.275 607.020 C 383.624 612.622, 388 618.015, 388 619.004 C 388 619.993, 393.850 626.707, 401 633.924 C 408.150 641.142, 414 647.512, 414 648.082 C 414 649.129, 417.740 653.399, 426.067 661.860 C 428.578 664.412, 431.377 667.701, 432.287 669.170 C 436.277 675.610, 470.297 698.159, 478.324 699.683 C 480.071 700.014, 482.743 700.911, 484.263 701.675 C 492.365 705.750, 516.694 706.085, 534 702.360 C 551.733 698.543, 575.335 688.620, 587.344 679.932 C 594.716 674.600, 607.703 662.456, 612.440 656.468 C 618.611 648.667, 627.402 631.847, 631.089 620.790 C 634.839 609.541, 640.596 586.456, 641.885 577.500 C 642.438 573.650, 643.099 569.600, 643.352 568.500 C 643.605 567.400, 644.115 565.150, 644.484 563.500 C 644.853 561.850, 645.525 559.600, 645.977 558.500 C 646.429 557.400, 647.327 555.089, 647.973 553.364 C 649.781 548.538, 654.509 544.357, 663.367 539.748 C 667.814 537.435, 672.962 534.216, 674.807 532.596 C 678.553 529.307, 684.707 520.165, 686.296 515.529 C 686.867 513.863, 688.357 510.865, 689.606 508.867 C 693.606 502.469, 699.797 482.279, 701.145 471.239 C 703.170 454.649, 699.966 439.042, 691.241 423 C 683.710 409.151, 664.221 381.402, 655.072 371.500 C 650.487 366.538, 646.264 360.887, 643 355.346 C 637.845 346.594, 623.321 327.171, 615.073 318 C 600.118 301.370, 584.611 290.168, 564.500 281.467 C 554.019 276.933, 546.736 276.431, 513.500 277.951" stroke="#aa444d" fill="#aa444d" fill-opacity="0.2" fill-rule="evenodd"/>
    </svg>