<?xml version="1.0" encoding="utf-8"?>
<!-- Generator: Adobe Illustrator 25.3.1, SVG Export Plug-In . SVG Version: 6.00 Build 0)  -->
<svg version="1.1" id="Layer_1" xmlns="http://www.w3.org/2000/svg" xmlns:xlink="http://www.w3.org/1999/xlink" x="0px" y="0px"
	 viewBox="0 0 1470 1025" style="enable-background:new 0 0 1470 1025;" xml:space="preserve">
<style type="text/css">
	.st0{fill:#DADADA;}
</style>
<path class="st0" d="M606.6,640.2l8.5-18.1h3.7l8.5,18.1h-4.7l-1.6-3.7h-8.1l-1.6,3.7H606.6z M616.9,627l-2.5,5.9h5L616.9,627
	L616.9,627z M640.4,640.5c-1.2,0-2.2-0.1-3.2-0.4c-1-0.2-1.8-0.6-2.5-1l1.1-3c0.6,0.4,1.4,0.7,2.2,0.9c0.8,0.2,1.7,0.3,2.5,0.3
	c0.6,0,1.1-0.1,1.4-0.3c0.3-0.2,0.4-0.4,0.4-0.7c0-0.3-0.1-0.4-0.3-0.6c-0.2-0.1-0.4-0.2-0.7-0.3l-2.8-0.5c-1.1-0.2-1.9-0.6-2.5-1.2
	c-0.6-0.6-0.9-1.4-0.9-2.3c0-0.9,0.2-1.7,0.7-2.3c0.5-0.7,1.2-1.1,2.1-1.5c0.9-0.4,1.9-0.5,3.1-0.5c0.9,0,1.8,0.1,2.7,0.3
	c0.9,0.2,1.7,0.5,2.3,1l-1.1,2.9c-0.5-0.3-1.1-0.6-1.8-0.8c-0.7-0.2-1.4-0.4-2-0.4c-0.7,0-1.2,0.1-1.5,0.3c-0.3,0.2-0.4,0.4-0.4,0.7
	c0,0.5,0.3,0.7,0.9,0.8l2.8,0.5c1.1,0.2,1.9,0.5,2.5,1.1c0.6,0.6,0.9,1.3,0.9,2.3c0,1.4-0.5,2.5-1.6,3.2
	C643.6,640.1,642.1,640.5,640.4,640.5z M654.5,640.5c-1.4,0-2.7-0.3-3.7-0.8c-1-0.5-1.9-1.3-2.4-2.3c-0.6-1-0.9-2.2-0.9-3.5
	c0-1.4,0.3-2.5,0.9-3.5c0.6-1,1.4-1.7,2.4-2.3c1.1-0.5,2.3-0.8,3.7-0.8c0.8,0,1.7,0.1,2.5,0.4c0.8,0.2,1.5,0.5,2.1,0.9l-1.2,3.1
	c-0.4-0.3-0.9-0.5-1.4-0.7c-0.5-0.2-1-0.3-1.5-0.3c-0.9,0-1.6,0.3-2.1,0.8c-0.5,0.5-0.7,1.3-0.7,2.3c0,1,0.2,1.8,0.7,2.4
	c0.5,0.5,1.2,0.8,2.1,0.8c0.5,0,0.9-0.1,1.5-0.3c0.5-0.2,1-0.4,1.4-0.7l1.2,3.1c-0.5,0.4-1.2,0.7-2.1,1
	C656.2,640.4,655.3,640.5,654.5,640.5z M660.4,625.4v-4.1h4.8v4.1H660.4z M660.5,640.2v-12.6h4.6v12.6H660.5z M674.6,640.5
	c-1.5,0-2.9-0.3-4-0.8c-1.1-0.5-2-1.3-2.6-2.3c-0.6-1-0.9-2.2-0.9-3.5c0-1.3,0.3-2.4,0.8-3.4c0.6-1,1.4-1.8,2.4-2.3
	c1-0.6,2.2-0.8,3.4-0.8c1.3,0,2.4,0.3,3.3,0.8c0.9,0.5,1.7,1.3,2.2,2.3c0.5,1,0.8,2.1,0.8,3.4v1h-8.5c0.2,0.8,0.5,1.4,1,1.8
	c0.5,0.4,1.3,0.5,2.2,0.5c0.6,0,1.3-0.1,2-0.3c0.7-0.2,1.4-0.5,1.9-0.9l1.1,3c-0.7,0.5-1.4,0.8-2.4,1.1
	C676.4,640.3,675.5,640.5,674.6,640.5z M674,630.2c-0.7,0-1.2,0.2-1.7,0.6c-0.4,0.4-0.7,1-0.8,1.8h4.8c-0.1-0.8-0.3-1.4-0.7-1.8
	C675.2,630.4,674.6,630.2,674,630.2z M681.9,640.2v-12.6h4.4v1.7c0.4-0.7,1-1.1,1.7-1.5c0.7-0.3,1.5-0.5,2.4-0.5
	c1.5,0,2.6,0.4,3.3,1.3c0.7,0.9,1.1,2.3,1.1,4.1v7.5h-4.6v-7.3c0-0.8-0.1-1.3-0.4-1.6c-0.3-0.3-0.6-0.5-1.2-0.5
	c-0.7,0-1.2,0.2-1.6,0.7c-0.4,0.4-0.6,1-0.6,1.7v7H681.9z M704.1,640.5c-1.9,0-3.3-0.4-4.3-1.3c-0.9-0.9-1.4-2.2-1.4-4v-4.2h-2.4
	v-3.4h2.4v-3.7h4.6v3.7h3.6v3.4H703v4c0,1.2,0.6,1.8,1.9,1.8c0.2,0,0.4,0,0.7-0.1c0.3-0.1,0.5-0.1,0.8-0.2l0.6,3.3
	c-0.4,0.2-0.9,0.4-1.4,0.5C705.1,640.4,704.6,640.5,704.1,640.5z M708.3,625.4v-4.1h4.8v4.1H708.3z M708.4,640.2v-12.6h4.6v12.6
	H708.4z M725.6,625.4v-4.1h4.8v4.1H725.6z M716.7,640.2v-9.3h-2.4v-3.4h2.4c0.1-1.8,0.7-3.1,1.7-4c1.1-0.9,2.7-1.4,4.8-1.5l1.3-0.1
	l0.2,3.3l-0.9,0.1c-1,0.1-1.7,0.2-2.1,0.5c-0.4,0.3-0.5,0.7-0.5,1.4v0.4h9v12.6h-4.6v-9.3h-4.4v9.3H716.7z M739.3,640.5
	c-1.4,0-2.7-0.3-3.7-0.8c-1-0.5-1.9-1.3-2.4-2.3c-0.6-1-0.9-2.2-0.9-3.5c0-1.4,0.3-2.5,0.9-3.5c0.6-1,1.4-1.7,2.4-2.3
	c1.1-0.5,2.3-0.8,3.7-0.8c0.8,0,1.7,0.1,2.5,0.4c0.8,0.2,1.5,0.5,2.1,0.9l-1.2,3.1c-0.4-0.3-0.9-0.5-1.4-0.7c-0.5-0.2-1-0.3-1.5-0.3
	c-0.9,0-1.6,0.3-2.1,0.8c-0.5,0.5-0.7,1.3-0.7,2.3c0,1,0.2,1.8,0.7,2.4c0.5,0.5,1.2,0.8,2.1,0.8c0.5,0,0.9-0.1,1.5-0.3
	c0.5-0.2,1-0.4,1.4-0.7l1.2,3.1c-0.5,0.4-1.2,0.7-2.1,1C741,640.4,740.1,640.5,739.3,640.5z M759.3,640.5c-1.9,0-3.3-0.4-4.3-1.3
	c-0.9-0.9-1.4-2.2-1.4-4v-4.2h-2.4v-3.4h2.4v-3.7h4.6v3.7h3.6v3.4h-3.6v4c0,1.2,0.6,1.8,1.9,1.8c0.2,0,0.4,0,0.7-0.1
	c0.3-0.1,0.5-0.1,0.8-0.2l0.6,3.3c-0.4,0.2-0.9,0.4-1.4,0.5C760.3,640.4,759.8,640.5,759.3,640.5z M769.8,640.5
	c-1.4,0-2.6-0.3-3.7-0.8c-1-0.5-1.9-1.3-2.4-2.3c-0.6-1-0.9-2.2-0.9-3.5c0-1.4,0.3-2.5,0.9-3.5c0.6-1,1.4-1.8,2.4-2.3
	c1-0.5,2.3-0.8,3.7-0.8c1.4,0,2.6,0.3,3.7,0.8c1,0.5,1.8,1.3,2.4,2.3c0.6,1,0.9,2.1,0.9,3.5c0,1.4-0.3,2.5-0.9,3.5
	c-0.6,1-1.4,1.8-2.4,2.3C772.4,640.2,771.2,640.5,769.8,640.5z M769.8,637.1c0.7,0,1.2-0.3,1.7-0.8c0.4-0.5,0.7-1.3,0.7-2.5
	c0-1.1-0.2-2-0.7-2.5c-0.4-0.5-1-0.8-1.7-0.8c-0.7,0-1.3,0.3-1.7,0.8c-0.4,0.5-0.7,1.3-0.7,2.5c0,1.1,0.2,1.9,0.7,2.5
	C768.5,636.9,769.1,637.1,769.8,637.1z M785.2,640.5c-1.4,0-2.6-0.3-3.7-0.8c-1-0.5-1.9-1.3-2.4-2.3c-0.6-1-0.9-2.2-0.9-3.5
	c0-1.4,0.3-2.5,0.9-3.5c0.6-1,1.4-1.8,2.4-2.3c1-0.5,2.3-0.8,3.7-0.8c1.4,0,2.6,0.3,3.7,0.8c1,0.5,1.8,1.3,2.4,2.3
	c0.6,1,0.9,2.1,0.9,3.5c0,1.4-0.3,2.5-0.9,3.5c-0.6,1-1.4,1.8-2.4,2.3C787.9,640.2,786.6,640.5,785.2,640.5z M785.2,637.1
	c0.7,0,1.2-0.3,1.7-0.8c0.4-0.5,0.7-1.3,0.7-2.5c0-1.1-0.2-2-0.7-2.5c-0.4-0.5-1-0.8-1.7-0.8c-0.7,0-1.3,0.3-1.7,0.8
	c-0.4,0.5-0.7,1.3-0.7,2.5c0,1.1,0.2,1.9,0.7,2.5C784,636.9,784.5,637.1,785.2,637.1z M799.3,640.5c-1.7,0-3-0.4-3.8-1.3
	c-0.8-0.9-1.2-2.2-1.2-4v-13.1h4.6V635c0,1.2,0.5,1.8,1.6,1.8c0.2,0,0.3,0,0.5,0c0.2,0,0.4,0,0.5-0.1l-0.1,3.5
	C800.8,640.4,800.1,640.5,799.3,640.5z M803.2,640.2v-18.1h4.6v10.5h0.1l4.2-5.1h5.4l-5,6l5.2,6.6H812l-4.2-5.3h-0.1v5.3H803.2z
	 M817.9,625.4v-4.1h4.8v4.1H817.9z M818.1,640.2v-12.6h4.6v12.6H818.1z M831.9,640.5c-1.9,0-3.3-0.4-4.3-1.3c-0.9-0.9-1.4-2.2-1.4-4
	v-4.2h-2.4v-3.4h2.4v-3.7h4.6v3.7h3.6v3.4h-3.6v4c0,1.2,0.6,1.8,1.9,1.8c0.2,0,0.4,0,0.7-0.1c0.3-0.1,0.5-0.1,0.8-0.2l0.6,3.3
	c-0.4,0.2-0.9,0.4-1.4,0.5C832.9,640.4,832.4,640.5,831.9,640.5z"/>
<g>
	<polygon class="st0" points="550.4,477.9 480.7,477.9 480.7,497.2 509.4,497.2 509.4,568.4 533,568.4 533,497.2 550.4,497.2 
		561.7,497.2 579.1,497.2 579.1,568.4 602.7,568.4 602.7,497.2 631.4,497.2 631.4,477.9 561.7,477.9 	"/>
	<path class="st0" d="M350.7,497c3.9,0,7.8,0.7,11.5,2.1c3.8,1.3,7.5,3.3,11.3,6l7.1-18.6c-3.4-3-7.9-5.4-13.5-7.2
		c-5.6-1.9-11.3-2.8-17.3-2.8c-10,0-18.6,1.9-25.8,5.8c-7.2,3.8-12.7,9.3-16.5,16.3c-3.8,6.9-5.6,15.1-5.6,24.5
		c0,9.4,1.9,17.6,5.6,24.6c3.8,7,9.4,12.4,16.5,16.3c7.2,3.8,15.8,5.8,25.8,5.8c6,0,11.8-0.9,17.3-2.7c5.6-1.9,10-4.3,13.5-7.3
		l-7.1-18.6c-3.8,2.7-7.5,4.8-11.3,6.2c-3.8,1.3-7.6,1.9-11.5,1.9c-7.9,0-13.9-2.2-17.9-6.7c-4-4.5-6-11-6-19.5c0-8.4,2-14.8,6-19.2
		C336.8,499.3,342.8,497,350.7,497z"/>
	<polygon class="st0" points="663.9,477.9 640.3,477.9 640.3,568.4 704.2,568.4 704.2,548.7 663.9,548.7 	"/>
	<path class="st0" d="M449.1,530.1c0,6.6-1.5,11.5-4.4,14.9c-2.9,3.3-7.1,5-12.6,5c-5.6,0-9.8-1.7-12.7-5c-2.9-3.3-4.4-8.3-4.4-14.9
		v-52.2h-23.6v52c0,13.3,3.5,23.2,10.4,29.9c7,6.7,17.1,10,30.3,10s23.1-3.3,29.9-10c6.8-6.7,10.3-16.6,10.3-29.9v-52h-23.2V530.1z"
		/>
	<polygon class="st0" points="715.3,568.4 779.2,568.4 779.2,550.1 737.9,550.1 737.9,531.5 776.2,531.5 776.2,513.3 737.9,513.3 
		737.9,496.1 779.2,496.1 779.2,477.9 715.3,477.9 	"/>
	<path class="st0" d="M1027.7,515.8l-14.9-3.2c-3.9-0.9-6.7-1.9-8.2-3.1c-1.5-1.2-2.3-2.7-2.3-4.6c0-2.7,1.3-4.8,3.8-6.4
		c2.6-1.7,6.2-2.6,11-2.6c5,0,9.6,0.7,13.8,2.1c4.3,1.3,8,3.1,11.3,5.5l6.5-17.2c-3.5-3-8.1-5.3-13.7-7.1
		c-5.5-1.8-11.4-2.7-17.7-2.7c-7.6,0-14.3,1.2-20,3.7c-5.7,2.4-10.2,5.8-13.5,10.3c-3.2,4.4-4.7,9.6-4.7,15.5
		c0,13.5,8.1,22,24.4,25.5l15,3.2c4,0.9,6.8,1.9,8.3,3.1c1.6,1.2,2.4,2.8,2.4,4.7c0,2.2-1.1,4.1-3.5,5.6c-2.2,1.5-6.2,2.2-11.8,2.2
		c-5.4,0-10.7-0.8-16-2.3c-5.3-1.5-9.9-3.6-13.8-6.3l-6.5,18.3c4.2,2.9,9.5,5.3,16,7.1c6.5,1.7,13.3,2.6,20.4,2.6
		c7.8,0,14.5-1.2,20.2-3.6c5.7-2.4,10.2-5.8,13.3-10.1c3.2-4.4,4.7-9.5,4.7-15.4C1052.4,527.6,1044.2,519.3,1027.7,515.8z"/>
	<path class="st0" d="M915.2,477.9l-42.3,90.4h23.6l7.8-18.3h40.4l7.8,18.3h23.6l-42.3-90.4H915.2z M912,531.9l12.3-29.4h0.3
		l12.3,29.4H912z"/>
	<path class="st0" d="M855,521.4c4.2-1.7,7.4-4.3,9.7-7.8c2.4-3.5,3.6-7.6,3.6-12.3c0-7.1-2.7-12.7-8.1-16.9
		c-5.3-4.3-12.8-6.4-22.6-6.4h-43.6v90.4h44.9c9.8,0,17.6-2.3,23.2-6.8c5.7-4.6,8.6-10.9,8.6-18.9c0-5.4-1.4-9.9-4.1-13.5
		C863.9,525.6,860,522.9,855,521.4z M816.6,495.2h16.8c4.3,0,7.4,0.8,9.4,2.3c2.1,1.5,3.1,3.8,3.1,6.9s-1,5.5-3.1,7.1
		c-2,1.5-5.1,2.3-9.4,2.3h-16.8V495.2z M845.2,548.6c-2,1.6-5.1,2.4-9.5,2.4h-19.1v-19.9h19.1c4.4,0,7.5,0.8,9.5,2.4
		c2.1,1.6,3.1,4.1,3.1,7.4C848.3,544.4,847.3,546.9,845.2,548.6z"/>
	<polygon class="st0" points="1127.8,496.1 1127.8,477.9 1064,477.9 1064,568.4 1127.8,568.4 1127.8,550.1 1086.6,550.1 
		1086.6,531.5 1124.9,531.5 1124.9,513.3 1086.6,513.3 1086.6,496.1 	"/>
</g>
</svg>
