<svg width="606" height="147" viewBox="0 0 606 147" fill="none" xmlns="http://www.w3.org/2000/svg">
<path d="M35.2467 68.8816C27.9105 68.8816 21.6089 67.4701 16.3419 64.6469C11.0749 61.8237 7.03054 57.8399 4.20892 52.6955C1.45002 47.551 0.0705566 41.5282 0.0705566 34.6272C0.0705566 27.7261 1.45002 21.7347 4.20892 16.653C7.03054 11.5085 11.0749 7.52473 16.3419 4.70156C21.6089 1.87838 27.9105 0.466797 35.2467 0.466797C39.6359 0.466797 43.8683 1.1569 47.944 2.53712C52.0196 3.8546 55.3115 5.61124 57.8196 7.80704L52.6466 21.4524C49.8878 19.4448 47.1288 17.9705 44.3699 17.0294C41.611 16.0256 38.7894 15.5237 35.9051 15.5237C30.0737 15.5237 25.6845 17.1863 22.7375 20.5113C19.7905 23.7737 18.317 28.479 18.317 34.6272C18.317 40.8382 19.7905 45.6062 22.7375 48.9312C25.6845 52.1936 30.0737 53.8247 35.9051 53.8247C38.7894 53.8247 41.611 53.3542 44.3699 52.4131C47.1288 51.4093 49.8878 49.9036 52.6466 47.8961L57.8196 61.5414C55.3115 63.7372 52.0196 65.5252 47.944 66.9054C43.8683 68.2229 39.6359 68.8816 35.2467 68.8816ZM95.6781 68.8816C86.0223 68.8816 78.6234 66.4349 73.4817 61.5414C68.4028 56.6479 65.8634 49.339 65.8634 39.6148V1.50196H83.1693V39.803C83.1693 44.6337 84.2353 48.2725 86.3671 50.7192C88.499 53.166 91.6028 54.3894 95.6781 54.3894C99.6914 54.3894 102.764 53.166 104.895 50.7192C107.028 48.2725 108.093 44.6337 108.093 39.803V1.50196H125.117V39.6148C125.117 49.339 122.61 56.6479 117.593 61.5414C112.64 66.4349 105.335 68.8816 95.6781 68.8816ZM152.303 67.8465V15.6178H131.235V1.50196H190.677V15.6178H169.609V67.8465H152.303ZM203.427 67.8465V15.6178H182.359V1.50196H241.801V15.6178H220.733V67.8465H203.427ZM248.343 67.8465V1.50196H265.648V53.4483H295.181V67.8465H248.343ZM303.36 67.8465V1.50196H350.199V14.865H319.914V27.4751H348.036V40.8381H319.914V54.4835H350.199V67.8465H303.36ZM361.134 67.8465V1.50196H393.112C400.26 1.50196 405.778 3.07038 409.666 6.20725C413.616 9.28137 415.591 13.4221 415.591 18.6292C415.591 22.0798 414.713 25.0912 412.957 27.6633C411.264 30.2355 408.882 32.1491 405.809 33.4038C409.508 34.5331 412.362 36.4465 414.368 39.1442C416.374 41.7792 417.378 45.0729 417.378 49.0253C417.378 54.8599 415.278 59.4711 411.076 62.8589C406.938 66.1839 401.264 67.8465 394.053 67.8465H361.134ZM377.687 27.8516H390.008C393.143 27.8516 395.432 27.2869 396.874 26.1577C398.379 25.0284 399.132 23.3032 399.132 20.9818C399.132 18.6605 398.379 16.9666 396.874 15.9001C395.432 14.7709 393.143 14.2062 390.008 14.2062H377.687V27.8516ZM377.687 55.1422H391.701C394.899 55.1422 397.219 54.5462 398.661 53.3542C400.166 52.0995 400.919 50.2487 400.919 47.802C400.919 45.3552 400.166 43.5359 398.661 42.3438C397.219 41.1518 394.899 40.5558 391.701 40.5558H377.687V55.1422ZM418.995 67.8465L450.032 1.50196H463.67L494.708 67.8465H477.402L471.665 54.3894H442.038L436.301 67.8465H418.995ZM456.71 19.5703L447.681 41.1205H465.928L456.898 19.5703H456.71ZM522.539 68.8816C517.336 68.8816 512.351 68.2542 507.585 66.9995C502.819 65.6821 498.901 63.9568 495.828 61.8237L500.625 48.3666C503.51 50.3115 506.896 51.8485 510.783 52.9778C514.67 54.1071 518.589 54.6717 522.539 54.6717C526.678 54.6717 529.562 54.1384 531.192 53.0719C532.885 51.9426 533.732 50.5624 533.732 48.9312C533.732 47.4883 533.137 46.3276 531.945 45.4493C530.816 44.571 528.778 43.8182 525.831 43.1908L514.827 40.8381C502.913 38.266 496.957 32.0235 496.957 22.1111C496.957 17.7822 498.117 13.9867 500.437 10.7243C502.819 7.46199 506.111 4.9525 510.312 3.19586C514.514 1.37648 519.405 0.466797 524.985 0.466797C529.563 0.466797 533.889 1.12554 537.964 2.44301C542.103 3.69776 545.458 5.42303 548.028 7.61883L543.231 20.229C540.849 18.4723 538.089 17.1235 534.955 16.1825C531.82 15.1786 528.434 14.6768 524.797 14.6768C521.286 14.6768 518.589 15.3042 516.708 16.5589C514.827 17.7509 513.887 19.3193 513.887 21.2642C513.887 22.6444 514.451 23.7737 515.58 24.652C516.708 25.5303 518.714 26.2831 521.599 26.9105L532.509 29.2631C544.611 31.8353 550.662 37.9209 550.662 47.5197C550.662 51.8485 549.502 55.6127 547.182 58.8123C544.861 62.0119 541.601 64.49 537.4 66.2467C533.199 68.0034 528.246 68.8816 522.539 68.8816ZM559.161 67.8465V1.50196H606V14.865H575.715V27.4751H603.837V40.8381H575.715V54.4835H606V67.8465H559.161Z" fill="#DADADA"/>
<path d="M204.858 99.0805H209.423L215.104 116.073L216.499 116.326V118H208.51V116.326L210.311 116.073L209.449 113.029H203.387L202.525 116.098L204.503 116.326V118H197.757L197.732 116.326L199.203 116.047L204.858 99.0805ZM206.735 103.493L206.354 101.718L205.949 103.519L203.894 111.076H208.916L206.735 103.493ZM226.398 115.895C226.517 116.081 226.787 116.25 227.21 116.402C227.649 116.554 228.089 116.63 228.529 116.63C229.222 116.63 229.746 116.487 230.101 116.199C230.473 115.895 230.659 115.506 230.659 115.033C230.659 114.526 230.422 114.111 229.949 113.79C229.475 113.452 228.698 113.046 227.616 112.573L226.652 112.142C225.553 111.651 224.724 111.059 224.167 110.366C223.625 109.656 223.355 108.76 223.355 107.678C223.355 106.9 223.583 106.207 224.04 105.598C224.496 104.973 225.156 104.482 226.018 104.127C226.88 103.772 227.895 103.595 229.061 103.595C229.873 103.595 230.574 103.646 231.166 103.747C231.758 103.848 232.358 103.975 232.967 104.127C233.373 104.246 233.677 104.313 233.88 104.33V107.779H231.623L230.963 105.827C230.879 105.674 230.676 105.539 230.355 105.421C230.033 105.286 229.67 105.218 229.264 105.218C228.622 105.218 228.114 105.362 227.742 105.649C227.37 105.92 227.185 106.292 227.185 106.765C227.185 107.306 227.396 107.737 227.819 108.058C228.241 108.363 228.918 108.726 229.847 109.149L230.38 109.377C231.75 109.952 232.823 110.578 233.601 111.254C234.379 111.913 234.768 112.826 234.768 113.993C234.768 115.244 234.269 116.275 233.271 117.087C232.274 117.882 230.803 118.279 228.858 118.279C227.962 118.279 227.168 118.203 226.474 118.051C225.781 117.915 225.02 117.729 224.192 117.493L223.355 117.265V113.891H225.764L226.398 115.895ZM236.348 111.051C236.348 109.546 236.652 108.227 237.261 107.095C237.87 105.962 238.724 105.091 239.823 104.482C240.921 103.857 242.19 103.544 243.627 103.544C244.337 103.544 244.945 103.595 245.453 103.696C245.977 103.781 246.509 103.908 247.05 104.077C247.541 104.212 247.845 104.288 247.963 104.305L247.786 108.895H245.224L244.565 105.979C244.514 105.759 244.371 105.607 244.134 105.522C243.914 105.421 243.644 105.37 243.322 105.37C242.528 105.37 241.902 105.759 241.446 106.537C241.006 107.314 240.786 108.608 240.786 110.417C240.786 112.142 241.065 113.469 241.623 114.399C242.198 115.312 242.967 115.768 243.931 115.768C245.182 115.768 246.332 115.447 247.38 114.804L248.065 116.301C247.659 116.757 246.991 117.205 246.061 117.645C245.131 118.068 244.1 118.279 242.967 118.279C240.752 118.279 239.095 117.628 237.997 116.326C236.898 115.007 236.348 113.249 236.348 111.051ZM252.996 101.718C252.337 101.718 251.804 101.524 251.398 101.135C250.993 100.746 250.79 100.247 250.79 99.6385C250.79 98.9284 251.009 98.3451 251.449 97.8886C251.906 97.4321 252.514 97.2038 253.275 97.2038C254.036 97.2038 254.619 97.3982 255.025 97.7871C255.431 98.176 255.634 98.6748 255.634 99.2834C255.634 100.01 255.405 100.602 254.949 101.059C254.492 101.498 253.85 101.718 253.021 101.718H252.996ZM251.449 106.562L249.75 106.08V104.178L254.822 103.569H254.873L255.659 104.102V116.098L257.181 116.326V118H249.877V116.326L251.449 116.098V106.562ZM265.485 118.279C263.169 118.279 261.453 117.628 260.337 116.326C259.221 115.007 258.663 113.215 258.663 110.95C258.663 109.411 258.95 108.084 259.525 106.968C260.1 105.852 260.903 105.007 261.935 104.432C262.983 103.84 264.209 103.544 265.612 103.544C267.387 103.544 268.74 103.992 269.67 104.888C270.617 105.784 271.107 107.052 271.141 108.692C271.141 109.775 271.065 110.645 270.912 111.305H262.974C263.059 112.742 263.405 113.841 264.014 114.602C264.64 115.346 265.51 115.717 266.626 115.717C267.252 115.717 267.903 115.616 268.579 115.413C269.272 115.193 269.83 114.948 270.253 114.678L270.963 116.225C270.524 116.715 269.771 117.18 268.706 117.62C267.658 118.059 266.584 118.279 265.485 118.279ZM267.108 109.631L267.134 108.566C267.134 107.5 266.99 106.689 266.702 106.131C266.415 105.573 265.925 105.294 265.231 105.294C264.521 105.294 263.972 105.607 263.583 106.232C263.194 106.841 262.983 107.974 262.949 109.631H267.108ZM274.405 106.562L272.909 106.106V104.127L277.524 103.569H277.6L278.26 104.102V105.04L278.234 105.624C278.826 105.066 279.579 104.592 280.492 104.203C281.405 103.815 282.36 103.62 283.357 103.62C284.372 103.62 285.167 103.806 285.741 104.178C286.333 104.533 286.756 105.108 287.009 105.903C287.28 106.697 287.415 107.779 287.415 109.149V116.098L288.835 116.301V118H281.937V116.326L283.18 116.098V109.174C283.18 108.363 283.121 107.737 283.002 107.298C282.901 106.841 282.715 106.511 282.444 106.308C282.174 106.106 281.785 106.004 281.278 106.004C280.5 106.004 279.621 106.368 278.64 107.095V116.098L280.035 116.326V118H273.01V116.326L274.405 116.098V106.562ZM294.806 118.228C293.69 118.228 292.861 117.975 292.32 117.467C291.796 116.943 291.534 116.14 291.534 115.058V106.03H289.987V104.559L290.494 104.356C290.9 104.22 291.255 104.077 291.559 103.925C291.898 103.603 292.168 103.181 292.371 102.656C292.625 102.048 292.904 101.194 293.208 100.095H295.566L295.719 103.899H299.345V106.03H295.769V112.75C295.769 113.68 295.795 114.331 295.845 114.703C295.896 115.075 295.989 115.32 296.124 115.439C296.277 115.54 296.547 115.591 296.936 115.591C297.731 115.591 298.483 115.455 299.193 115.185L299.726 116.783C299.252 117.172 298.551 117.51 297.621 117.797C296.691 118.085 295.752 118.228 294.806 118.228ZM303.966 101.718C303.307 101.718 302.774 101.524 302.368 101.135C301.963 100.746 301.76 100.247 301.76 99.6385C301.76 98.9284 301.98 98.3451 302.419 97.8886C302.876 97.4321 303.484 97.2038 304.245 97.2038C305.006 97.2038 305.589 97.3982 305.995 97.7871C306.401 98.176 306.604 98.6748 306.604 99.2834C306.604 100.01 306.376 100.602 305.919 101.059C305.462 101.498 304.82 101.718 303.992 101.718H303.966ZM302.419 106.562L300.72 106.08V104.178L305.792 103.569H305.843L306.629 104.102V116.098L308.151 116.326V118H300.847V116.326L302.419 116.098V106.562ZM311.586 106.03H309.608V104.457L311.586 103.95V102.885C311.586 101.752 311.89 100.721 312.499 99.7906C313.108 98.8607 313.919 98.1253 314.934 97.5842C315.965 97.0432 317.072 96.7727 318.256 96.7727C318.881 96.7727 319.448 96.8572 319.955 97.0263V100.704C319.769 100.501 319.406 100.306 318.865 100.12C318.323 99.9175 317.791 99.816 317.267 99.816C316.709 99.816 316.311 99.9597 316.075 100.247C315.838 100.535 315.72 101.008 315.72 101.667V103.925H318.763V106.03H315.72V116.098L318.281 116.326V118H309.633V116.326L311.586 116.098V106.03ZM323.48 101.718C322.821 101.718 322.288 101.524 321.882 101.135C321.477 100.746 321.274 100.247 321.274 99.6385C321.274 98.9284 321.494 98.3451 321.933 97.8886C322.39 97.4321 322.998 97.2038 323.759 97.2038C324.52 97.2038 325.103 97.3982 325.509 97.7871C325.915 98.176 326.118 98.6748 326.118 99.2834C326.118 100.01 325.89 100.602 325.433 101.059C324.977 101.498 324.334 101.718 323.506 101.718H323.48ZM321.933 106.562L320.234 106.08V104.178L325.306 103.569H325.357L326.143 104.102V116.098L327.665 116.326V118H320.361V116.326L321.933 116.098V106.562ZM329.125 111.051C329.125 109.546 329.429 108.227 330.038 107.095C330.646 105.962 331.5 105.091 332.599 104.482C333.698 103.857 334.966 103.544 336.403 103.544C337.113 103.544 337.722 103.595 338.229 103.696C338.753 103.781 339.286 103.908 339.827 104.077C340.317 104.212 340.622 104.288 340.74 104.305L340.562 108.895H338.001L337.342 105.979C337.291 105.759 337.147 105.607 336.91 105.522C336.691 105.421 336.42 105.37 336.099 105.37C335.304 105.37 334.679 105.759 334.222 106.537C333.783 107.314 333.563 108.608 333.563 110.417C333.563 112.142 333.842 113.469 334.4 114.399C334.975 115.312 335.744 115.768 336.708 115.768C337.959 115.768 339.108 115.447 340.157 114.804L340.841 116.301C340.436 116.757 339.768 117.205 338.838 117.645C337.908 118.068 336.877 118.279 335.744 118.279C333.529 118.279 331.872 117.628 330.773 116.326C329.674 115.007 329.125 113.249 329.125 111.051ZM352.983 118.228C351.867 118.228 351.039 117.975 350.497 117.467C349.973 116.943 349.711 116.14 349.711 115.058V106.03H348.164V104.559L348.671 104.356C349.077 104.22 349.432 104.077 349.737 103.925C350.075 103.603 350.345 103.181 350.548 102.656C350.802 102.048 351.081 101.194 351.385 100.095H353.744L353.896 103.899H357.523V106.03H353.947V112.75C353.947 113.68 353.972 114.331 354.023 114.703C354.073 115.075 354.166 115.32 354.302 115.439C354.454 115.54 354.724 115.591 355.113 115.591C355.908 115.591 356.66 115.455 357.37 115.185L357.903 116.783C357.43 117.172 356.728 117.51 355.798 117.797C354.868 118.085 353.93 118.228 352.983 118.228ZM359.125 111.026C359.125 109.403 359.447 108.033 360.089 106.917C360.732 105.784 361.594 104.939 362.676 104.381C363.775 103.823 364.975 103.544 366.277 103.544C368.408 103.544 370.073 104.187 371.273 105.472C372.491 106.74 373.099 108.515 373.099 110.797C373.099 112.471 372.778 113.866 372.136 114.982C371.493 116.098 370.631 116.926 369.549 117.467C368.467 118.008 367.258 118.279 365.922 118.279C363.809 118.279 362.143 117.645 360.926 116.377C359.726 115.092 359.125 113.308 359.125 111.026ZM366.176 116.504C366.987 116.504 367.588 116.073 367.977 115.21C368.382 114.331 368.585 112.962 368.585 111.102C368.585 109.124 368.391 107.67 368.002 106.74C367.63 105.793 366.996 105.319 366.1 105.319C364.443 105.319 363.614 107.12 363.614 110.721C363.614 112.683 363.817 114.137 364.223 115.083C364.629 116.03 365.28 116.504 366.176 116.504ZM375.397 111.026C375.397 109.403 375.718 108.033 376.361 106.917C377.003 105.784 377.866 104.939 378.948 104.381C380.047 103.823 381.247 103.544 382.549 103.544C384.679 103.544 386.345 104.187 387.545 105.472C388.763 106.74 389.371 108.515 389.371 110.797C389.371 112.471 389.05 113.866 388.408 114.982C387.765 116.098 386.903 116.926 385.821 117.467C384.739 118.008 383.53 118.279 382.194 118.279C380.081 118.279 378.415 117.645 377.198 116.377C375.997 115.092 375.397 113.308 375.397 111.026ZM382.448 116.504C383.259 116.504 383.859 116.073 384.248 115.21C384.654 114.331 384.857 112.962 384.857 111.102C384.857 109.124 384.663 107.67 384.274 106.74C383.902 105.793 383.268 105.319 382.372 105.319C380.715 105.319 379.886 107.12 379.886 110.721C379.886 112.683 380.089 114.137 380.495 115.083C380.901 116.03 381.552 116.504 382.448 116.504ZM392.912 99.6892L391.136 99.3595V97.8125L396.209 97.2038H396.285L397.02 97.7364V116.098L398.669 116.326V118H391.289V116.326L392.912 116.098V99.6892ZM401.452 99.6892L399.728 99.3595V97.8125L404.774 97.2038H404.851L405.586 97.7364V109.58L405.51 110.823L410.278 105.801L408.401 105.522V103.925H415.299V105.522L413.22 105.852L410.481 108.464L414.665 116.098L415.984 116.326V118H408.934V116.326L410.075 116.098L407.564 111.076L405.51 113.207L405.561 114.5V116.098L407.032 116.326V118H400.057V116.326L401.452 116.098V99.6892ZM419.825 101.718C419.166 101.718 418.633 101.524 418.228 101.135C417.822 100.746 417.619 100.247 417.619 99.6385C417.619 98.9284 417.839 98.3451 418.278 97.8886C418.735 97.4321 419.343 97.2038 420.104 97.2038C420.865 97.2038 421.448 97.3982 421.854 97.7871C422.26 98.176 422.463 98.6748 422.463 99.2834C422.463 100.01 422.235 100.602 421.778 101.059C421.322 101.498 420.679 101.718 419.851 101.718H419.825ZM418.278 106.562L416.579 106.08V104.178L421.651 103.569H421.702L422.488 104.102V116.098L424.01 116.326V118H416.706V116.326L418.278 116.098V106.562ZM430.057 118.228C428.941 118.228 428.113 117.975 427.572 117.467C427.048 116.943 426.786 116.14 426.786 115.058V106.03H425.239V104.559L425.746 104.356C426.152 104.22 426.507 104.077 426.811 103.925C427.149 103.603 427.42 103.181 427.623 102.656C427.876 102.048 428.155 101.194 428.459 100.095H430.818L430.97 103.899H434.597V106.03H431.021V112.75C431.021 113.68 431.046 114.331 431.097 114.703C431.148 115.075 431.241 115.32 431.376 115.439C431.528 115.54 431.799 115.591 432.188 115.591C432.982 115.591 433.735 115.455 434.445 115.185L434.977 116.783C434.504 117.172 433.802 117.51 432.872 117.797C431.942 118.085 431.004 118.228 430.057 118.228Z" fill="#DADADA"/>
</svg>
