<?xml version="1.0" encoding="utf-8"?>
<!-- Generator: Adobe Illustrator 25.3.1, SVG Export Plug-In . SVG Version: 6.00 Build 0)  -->
<svg version="1.1" id="Layer_1" xmlns="http://www.w3.org/2000/svg" xmlns:xlink="http://www.w3.org/1999/xlink" x="0px" y="0px"
	 viewBox="0 0 606 147" style="enable-background:new 0 0 606 147;" xml:space="preserve">
<style type="text/css">
	.st0{fill:#DADADA;}
</style>
<g>
	<polygon class="st0" points="303.4,67.8 350.2,67.8 350.2,54.5 319.9,54.5 319.9,40.8 348,40.8 348,27.5 319.9,27.5 319.9,14.9 
		350.2,14.9 350.2,1.5 303.4,1.5 	"/>
	<path class="st0" d="M108.1,39.8c0,4.8-1.1,8.5-3.2,10.9c-2.1,2.4-5.2,3.7-9.2,3.7c-4.1,0-7.2-1.2-9.3-3.7
		c-2.1-2.4-3.2-6.1-3.2-10.9V1.5H65.9v38.1c0,9.7,2.5,17,7.6,21.9c5.1,4.9,12.5,7.3,22.2,7.3c9.7,0,17-2.4,21.9-7.3
		c5-4.9,7.5-12.2,7.5-21.9V1.5h-17V39.8z"/>
	<polygon class="st0" points="265.6,1.5 248.3,1.5 248.3,67.8 295.2,67.8 295.2,53.4 265.6,53.4 	"/>
	<polygon class="st0" points="182.4,1.5 131.2,1.5 131.2,15.6 152.3,15.6 152.3,67.8 169.6,67.8 169.6,15.6 182.4,15.6 190.7,15.6 
		203.4,15.6 203.4,67.8 220.7,67.8 220.7,15.6 241.8,15.6 241.8,1.5 190.7,1.5 	"/>
	<path class="st0" d="M35.9,15.5c2.9,0,5.7,0.5,8.5,1.5c2.8,0.9,5.5,2.4,8.3,4.4l5.2-13.6c-2.5-2.2-5.8-4-9.9-5.3
		c-4.1-1.4-8.3-2.1-12.7-2.1c-7.3,0-13.6,1.4-18.9,4.2c-5.3,2.8-9.3,6.8-12.1,12c-2.8,5.1-4.1,11.1-4.1,18c0,6.9,1.4,12.9,4.1,18.1
		c2.8,5.1,6.9,9.1,12.1,12c5.3,2.8,11.6,4.2,18.9,4.2c4.4,0,8.6-0.7,12.7-2c4.1-1.4,7.4-3.2,9.9-5.4l-5.2-13.6
		c-2.8,2-5.5,3.5-8.3,4.5c-2.8,0.9-5.6,1.4-8.5,1.4c-5.8,0-10.2-1.6-13.2-4.9c-2.9-3.3-4.4-8.1-4.4-14.3c0-6.1,1.5-10.9,4.4-14.1
		C25.7,17.2,30.1,15.5,35.9,15.5z"/>
	<path class="st0" d="M405.8,33.4c3.1-1.3,5.5-3.2,7.1-5.7c1.8-2.6,2.6-5.6,2.6-9c0-5.2-2-9.3-5.9-12.4c-3.9-3.1-9.4-4.7-16.6-4.7
		h-32v66.3h32.9c7.2,0,12.9-1.7,17-5c4.2-3.4,6.3-8,6.3-13.8c0-4-1-7.2-3-9.9C412.4,36.4,409.5,34.5,405.8,33.4z M377.7,14.2H390
		c3.1,0,5.4,0.6,6.9,1.7c1.5,1.1,2.3,2.8,2.3,5.1c0,2.3-0.8,4-2.3,5.2c-1.4,1.1-3.7,1.7-6.9,1.7h-12.3V14.2z M398.7,53.4
		c-1.4,1.2-3.8,1.8-7,1.8h-14V40.6h14c3.2,0,5.5,0.6,7,1.8c1.5,1.2,2.3,3,2.3,5.5C400.9,50.2,400.2,52.1,398.7,53.4z"/>
	<path class="st0" d="M532.5,29.3l-10.9-2.4c-2.9-0.6-4.9-1.4-6-2.3c-1.1-0.9-1.7-2-1.7-3.4c0-1.9,0.9-3.5,2.8-4.7
		c1.9-1.3,4.6-1.9,8.1-1.9c3.6,0,7,0.5,10.2,1.5c3.1,0.9,5.9,2.3,8.3,4L548,7.6c-2.6-2.2-5.9-3.9-10.1-5.2c-4.1-1.3-8.4-2-13-2
		c-5.6,0-10.5,0.9-14.7,2.7c-4.2,1.8-7.5,4.3-9.9,7.5c-2.3,3.3-3.5,7.1-3.5,11.4c0,9.9,6,16.2,17.9,18.7l11,2.4
		c2.9,0.6,5,1.4,6.1,2.3c1.2,0.9,1.8,2,1.8,3.5c0,1.6-0.8,3-2.5,4.1c-1.6,1.1-4.5,1.6-8.7,1.6c-4,0-7.9-0.6-11.8-1.7
		c-3.9-1.1-7.3-2.7-10.2-4.6l-4.8,13.5c3.1,2.1,7,3.9,11.8,5.2c4.8,1.3,9.8,1.9,15,1.9c5.7,0,10.7-0.9,14.9-2.6
		c4.2-1.8,7.5-4.2,9.8-7.4c2.3-3.2,3.5-7,3.5-11.3C550.7,37.9,544.6,31.8,532.5,29.3z"/>
	<polygon class="st0" points="606,14.9 606,1.5 559.2,1.5 559.2,67.8 606,67.8 606,54.5 575.7,54.5 575.7,40.8 603.8,40.8 
		603.8,27.5 575.7,27.5 575.7,14.9 	"/>
	<path class="st0" d="M450,1.5l-31,66.3h17.3l5.7-13.5h29.6l5.7,13.5h17.3l-31-66.3H450z M447.7,41.1l9-21.6h0.2l9,21.6H447.7z"/>
</g>
<path class="st0" d="M204.9,99.1h4.6l5.7,17l1.4,0.3v1.7h-8v-1.7l1.8-0.3l-0.9-3h-6.1l-0.9,3.1l2,0.2v1.7h-6.7l0-1.7l1.5-0.3
	L204.9,99.1z M206.7,103.5l-0.4-1.8l-0.4,1.8l-2.1,7.6h5L206.7,103.5z M226.4,115.9c0.1,0.2,0.4,0.4,0.8,0.5
	c0.4,0.2,0.9,0.2,1.3,0.2c0.7,0,1.2-0.1,1.6-0.4c0.4-0.3,0.6-0.7,0.6-1.2c0-0.5-0.2-0.9-0.7-1.2c-0.5-0.3-1.3-0.7-2.3-1.2l-1-0.4
	c-1.1-0.5-1.9-1.1-2.5-1.8c-0.5-0.7-0.8-1.6-0.8-2.7c0-0.8,0.2-1.5,0.7-2.1c0.5-0.6,1.1-1.1,2-1.5c0.9-0.4,1.9-0.5,3-0.5
	c0.8,0,1.5,0.1,2.1,0.2s1.2,0.2,1.8,0.4c0.4,0.1,0.7,0.2,0.9,0.2v3.4h-2.3l-0.7-2c-0.1-0.2-0.3-0.3-0.6-0.4
	c-0.3-0.1-0.7-0.2-1.1-0.2c-0.6,0-1.2,0.1-1.5,0.4c-0.4,0.3-0.6,0.6-0.6,1.1c0,0.5,0.2,1,0.6,1.3c0.4,0.3,1.1,0.7,2,1.1l0.5,0.2
	c1.4,0.6,2.4,1.2,3.2,1.9c0.8,0.7,1.2,1.6,1.2,2.7c0,1.3-0.5,2.3-1.5,3.1c-1,0.8-2.5,1.2-4.4,1.2c-0.9,0-1.7-0.1-2.4-0.2
	c-0.7-0.1-1.5-0.3-2.3-0.6l-0.8-0.2v-3.4h2.4L226.4,115.9z M236.3,111.1c0-1.5,0.3-2.8,0.9-4c0.6-1.1,1.5-2,2.6-2.6
	c1.1-0.6,2.4-0.9,3.8-0.9c0.7,0,1.3,0.1,1.8,0.2c0.5,0.1,1.1,0.2,1.6,0.4c0.5,0.1,0.8,0.2,0.9,0.2l-0.2,4.6h-2.6l-0.7-2.9
	c-0.1-0.2-0.2-0.4-0.4-0.5c-0.2-0.1-0.5-0.2-0.8-0.2c-0.8,0-1.4,0.4-1.9,1.2c-0.4,0.8-0.7,2.1-0.7,3.9c0,1.7,0.3,3.1,0.8,4
	c0.6,0.9,1.3,1.4,2.3,1.4c1.3,0,2.4-0.3,3.4-1l0.7,1.5c-0.4,0.5-1.1,0.9-2,1.3c-0.9,0.4-2,0.6-3.1,0.6c-2.2,0-3.9-0.7-5-2
	C236.9,115,236.3,113.2,236.3,111.1z M253,101.7c-0.7,0-1.2-0.2-1.6-0.6c-0.4-0.4-0.6-0.9-0.6-1.5c0-0.7,0.2-1.3,0.7-1.7
	c0.5-0.5,1.1-0.7,1.8-0.7c0.8,0,1.3,0.2,1.8,0.6c0.4,0.4,0.6,0.9,0.6,1.5c0,0.7-0.2,1.3-0.7,1.8C254.5,101.5,253.9,101.7,253,101.7
	L253,101.7z M251.4,106.6l-1.7-0.5v-1.9l5.1-0.6h0.1l0.8,0.5v12l1.5,0.2v1.7h-7.3v-1.7l1.6-0.2V106.6z M265.5,118.3
	c-2.3,0-4-0.7-5.1-2c-1.1-1.3-1.7-3.1-1.7-5.4c0-1.5,0.3-2.9,0.9-4c0.6-1.1,1.4-2,2.4-2.5c1-0.6,2.3-0.9,3.7-0.9
	c1.8,0,3.1,0.4,4.1,1.3c0.9,0.9,1.4,2.2,1.5,3.8c0,1.1-0.1,2-0.2,2.6H263c0.1,1.4,0.4,2.5,1,3.3c0.6,0.7,1.5,1.1,2.6,1.1
	c0.6,0,1.3-0.1,2-0.3c0.7-0.2,1.3-0.5,1.7-0.7l0.7,1.5c-0.4,0.5-1.2,1-2.3,1.4C267.7,118.1,266.6,118.3,265.5,118.3z M267.1,109.6
	l0-1.1c0-1.1-0.1-1.9-0.4-2.4c-0.3-0.6-0.8-0.8-1.5-0.8c-0.7,0-1.3,0.3-1.6,0.9c-0.4,0.6-0.6,1.7-0.6,3.4H267.1z M274.4,106.6
	l-1.5-0.5v-2l4.6-0.6h0.1l0.7,0.5v0.9l0,0.6c0.6-0.6,1.3-1,2.3-1.4c0.9-0.4,1.9-0.6,2.9-0.6c1,0,1.8,0.2,2.4,0.6
	c0.6,0.4,1,0.9,1.3,1.7c0.3,0.8,0.4,1.9,0.4,3.2v6.9l1.4,0.2v1.7h-6.9v-1.7l1.2-0.2v-6.9c0-0.8-0.1-1.4-0.2-1.9
	c-0.1-0.5-0.3-0.8-0.6-1c-0.3-0.2-0.7-0.3-1.2-0.3c-0.8,0-1.7,0.4-2.6,1.1v9l1.4,0.2v1.7h-7v-1.7l1.4-0.2V106.6z M294.8,118.2
	c-1.1,0-1.9-0.3-2.5-0.8c-0.5-0.5-0.8-1.3-0.8-2.4v-9H290v-1.5l0.5-0.2c0.4-0.1,0.8-0.3,1.1-0.4c0.3-0.3,0.6-0.7,0.8-1.3
	c0.3-0.6,0.5-1.5,0.8-2.6h2.4l0.2,3.8h3.6v2.1h-3.6v6.7c0,0.9,0,1.6,0.1,2c0.1,0.4,0.1,0.6,0.3,0.7c0.2,0.1,0.4,0.2,0.8,0.2
	c0.8,0,1.5-0.1,2.3-0.4l0.5,1.6c-0.5,0.4-1.2,0.7-2.1,1C296.7,118.1,295.8,118.2,294.8,118.2z M304,101.7c-0.7,0-1.2-0.2-1.6-0.6
	c-0.4-0.4-0.6-0.9-0.6-1.5c0-0.7,0.2-1.3,0.7-1.7c0.5-0.5,1.1-0.7,1.8-0.7c0.8,0,1.3,0.2,1.8,0.6s0.6,0.9,0.6,1.5
	c0,0.7-0.2,1.3-0.7,1.8C305.5,101.5,304.8,101.7,304,101.7L304,101.7z M302.4,106.6l-1.7-0.5v-1.9l5.1-0.6h0.1l0.8,0.5v12l1.5,0.2
	v1.7h-7.3v-1.7l1.6-0.2V106.6z M311.6,106h-2v-1.6l2-0.5v-1.1c0-1.1,0.3-2.2,0.9-3.1c0.6-0.9,1.4-1.7,2.4-2.2c1-0.5,2.1-0.8,3.3-0.8
	c0.6,0,1.2,0.1,1.7,0.3v3.7c-0.2-0.2-0.5-0.4-1.1-0.6c-0.5-0.2-1.1-0.3-1.6-0.3c-0.6,0-1,0.1-1.2,0.4c-0.2,0.3-0.4,0.8-0.4,1.4v2.3
	h3v2.1h-3v10.1l2.6,0.2v1.7h-8.6v-1.7l2-0.2V106z M323.5,101.7c-0.7,0-1.2-0.2-1.6-0.6c-0.4-0.4-0.6-0.9-0.6-1.5
	c0-0.7,0.2-1.3,0.7-1.7c0.5-0.5,1.1-0.7,1.8-0.7c0.8,0,1.3,0.2,1.8,0.6s0.6,0.9,0.6,1.5c0,0.7-0.2,1.3-0.7,1.8
	C325,101.5,324.3,101.7,323.5,101.7L323.5,101.7z M321.9,106.6l-1.7-0.5v-1.9l5.1-0.6h0.1l0.8,0.5v12l1.5,0.2v1.7h-7.3v-1.7l1.6-0.2
	V106.6z M329.1,111.1c0-1.5,0.3-2.8,0.9-4c0.6-1.1,1.5-2,2.6-2.6c1.1-0.6,2.4-0.9,3.8-0.9c0.7,0,1.3,0.1,1.8,0.2
	c0.5,0.1,1.1,0.2,1.6,0.4c0.5,0.1,0.8,0.2,0.9,0.2l-0.2,4.6H338l-0.7-2.9c-0.1-0.2-0.2-0.4-0.4-0.5c-0.2-0.1-0.5-0.2-0.8-0.2
	c-0.8,0-1.4,0.4-1.9,1.2c-0.4,0.8-0.7,2.1-0.7,3.9c0,1.7,0.3,3.1,0.8,4c0.6,0.9,1.3,1.4,2.3,1.4c1.3,0,2.4-0.3,3.4-1l0.7,1.5
	c-0.4,0.5-1.1,0.9-2,1.3c-0.9,0.4-2,0.6-3.1,0.6c-2.2,0-3.9-0.7-5-2C329.7,115,329.1,113.2,329.1,111.1z M353,118.2
	c-1.1,0-1.9-0.3-2.5-0.8c-0.5-0.5-0.8-1.3-0.8-2.4v-9h-1.5v-1.5l0.5-0.2c0.4-0.1,0.8-0.3,1.1-0.4c0.3-0.3,0.6-0.7,0.8-1.3
	c0.3-0.6,0.5-1.5,0.8-2.6h2.4l0.2,3.8h3.6v2.1h-3.6v6.7c0,0.9,0,1.6,0.1,2c0,0.4,0.1,0.6,0.3,0.7c0.2,0.1,0.4,0.2,0.8,0.2
	c0.8,0,1.5-0.1,2.3-0.4l0.5,1.6c-0.5,0.4-1.2,0.7-2.1,1C354.9,118.1,353.9,118.2,353,118.2z M359.1,111c0-1.6,0.3-3,1-4.1
	c0.6-1.1,1.5-2,2.6-2.5c1.1-0.6,2.3-0.8,3.6-0.8c2.1,0,3.8,0.6,5,1.9c1.2,1.3,1.8,3,1.8,5.3c0,1.7-0.3,3.1-1,4.2
	c-0.6,1.1-1.5,1.9-2.6,2.5s-2.3,0.8-3.6,0.8c-2.1,0-3.8-0.6-5-1.9C359.7,115.1,359.1,113.3,359.1,111z M366.2,116.5
	c0.8,0,1.4-0.4,1.8-1.3c0.4-0.9,0.6-2.2,0.6-4.1c0-2-0.2-3.4-0.6-4.4c-0.4-0.9-1-1.4-1.9-1.4c-1.7,0-2.5,1.8-2.5,5.4
	c0,2,0.2,3.4,0.6,4.4C364.6,116,365.3,116.5,366.2,116.5z M375.4,111c0-1.6,0.3-3,1-4.1c0.6-1.1,1.5-2,2.6-2.5
	c1.1-0.6,2.3-0.8,3.6-0.8c2.1,0,3.8,0.6,5,1.9c1.2,1.3,1.8,3,1.8,5.3c0,1.7-0.3,3.1-1,4.2c-0.6,1.1-1.5,1.9-2.6,2.5
	s-2.3,0.8-3.6,0.8c-2.1,0-3.8-0.6-5-1.9C376,115.1,375.4,113.3,375.4,111z M382.4,116.5c0.8,0,1.4-0.4,1.8-1.3
	c0.4-0.9,0.6-2.2,0.6-4.1c0-2-0.2-3.4-0.6-4.4c-0.4-0.9-1-1.4-1.9-1.4c-1.7,0-2.5,1.8-2.5,5.4c0,2,0.2,3.4,0.6,4.4
	C380.9,116,381.6,116.5,382.4,116.5z M392.9,99.7l-1.8-0.3v-1.5l5.1-0.6h0.1l0.7,0.5v18.4l1.6,0.2v1.7h-7.4v-1.7l1.6-0.2V99.7z
	 M401.5,99.7l-1.7-0.3v-1.5l5-0.6h0.1l0.7,0.5v11.8l-0.1,1.2l4.8-5l-1.9-0.3v-1.6h6.9v1.6l-2.1,0.3l-2.7,2.6l4.2,7.6l1.3,0.2v1.7
	h-7.1v-1.7l1.1-0.2l-2.5-5l-2.1,2.1l0.1,1.3v1.6l1.5,0.2v1.7h-7v-1.7l1.4-0.2V99.7z M419.8,101.7c-0.7,0-1.2-0.2-1.6-0.6
	c-0.4-0.4-0.6-0.9-0.6-1.5c0-0.7,0.2-1.3,0.7-1.7c0.5-0.5,1.1-0.7,1.8-0.7c0.8,0,1.3,0.2,1.8,0.6s0.6,0.9,0.6,1.5
	c0,0.7-0.2,1.3-0.7,1.8C421.3,101.5,420.7,101.7,419.8,101.7L419.8,101.7z M418.3,106.6l-1.7-0.5v-1.9l5.1-0.6h0.1l0.8,0.5v12
	l1.5,0.2v1.7h-7.3v-1.7l1.6-0.2V106.6z M430.1,118.2c-1.1,0-1.9-0.3-2.5-0.8c-0.5-0.5-0.8-1.3-0.8-2.4v-9h-1.5v-1.5l0.5-0.2
	c0.4-0.1,0.8-0.3,1.1-0.4c0.3-0.3,0.6-0.7,0.8-1.3c0.3-0.6,0.5-1.5,0.8-2.6h2.4l0.2,3.8h3.6v2.1H431v6.7c0,0.9,0,1.6,0.1,2
	c0.1,0.4,0.1,0.6,0.3,0.7c0.2,0.1,0.4,0.2,0.8,0.2c0.8,0,1.5-0.1,2.3-0.4l0.5,1.6c-0.5,0.4-1.2,0.7-2.1,1
	C431.9,118.1,431,118.2,430.1,118.2z"/>
</svg>
