<svg width="26" height="26" viewBox="0 0 26 26" fill="none" xmlns="http://www.w3.org/2000/svg">
<path fill-rule="evenodd" clip-rule="evenodd" d="M13 25C19.6274 25 25 19.6274 25 13C25 6.37258 19.6274 1 13 1C6.37258 1 1 6.37258 1 13C1 19.6274 6.37258 25 13 25ZM13 26C20.1797 26 26 20.1797 26 13C26 5.8203 20.1797 0 13 0C5.8203 0 0 5.8203 0 13C0 20.1797 5.8203 26 13 26Z" fill="#000000"/>
<path d="M13.7145 18.1116C12.7719 18.1116 11.9645 17.9109 11.2925 17.5096C10.6205 17.0989 10.1025 16.5156 9.73854 15.7596C9.38388 15.0036 9.20654 14.1029 9.20654 13.0576C9.20654 12.0216 9.38388 11.1256 9.73854 10.3696C10.1025 9.61358 10.6205 9.03491 11.2925 8.63358C11.9645 8.22291 12.7719 8.01758 13.7145 8.01758C14.3959 8.01758 15.0212 8.12958 15.5905 8.35358C16.1692 8.56825 16.6592 8.88558 17.0605 9.30558L16.6825 10.0196C16.2439 9.59025 15.7865 9.28225 15.3105 9.09558C14.8439 8.90891 14.3165 8.81558 13.7285 8.81558C12.5712 8.81558 11.6799 9.18891 11.0545 9.93558C10.4385 10.6729 10.1305 11.7136 10.1305 13.0576C10.1305 14.4109 10.4385 15.4609 11.0545 16.2076C11.6799 16.9449 12.5712 17.3136 13.7285 17.3136C14.3165 17.3136 14.8439 17.2202 15.3105 17.0336C15.7865 16.8469 16.2439 16.5389 16.6825 16.1096L17.0605 16.8236C16.6592 17.2436 16.1692 17.5656 15.5905 17.7896C15.0212 18.0042 14.3959 18.1116 13.7145 18.1116Z" fill="#000000"/>
</svg>
