<?xml version="1.0" encoding="utf-8"?>
<!-- Generator: Adobe Illustrator 25.3.1, SVG Export Plug-In . SVG Version: 6.00 Build 0)  -->
<svg version="1.1" id="Layer_1" xmlns="http://www.w3.org/2000/svg" xmlns:xlink="http://www.w3.org/1999/xlink" x="0px" y="0px"
	 viewBox="0 0 120 120" style="enable-background:new 0 0 120 120;" xml:space="preserve">
<path d="M68.3,54.7c1.2,0.9,2.4,1.6,3.6,2.3l0.9,0.5l1.3,0.7c0.3,0.2,0.6,0.3,0.9,0.5l0.4,0.3l0.4,0.3l0.4,0.3l0.4,0.3l0.4,0.3
	c0.1,0.1,0.3,0.2,0.4,0.3l0.4,0.3l0.4,0.3l0.4,0.3c0.1,0.1,0.2,0.2,0.3,0.3l0.3,0.3c2.3,2.4,3.8,5.9,3.8,12.2
	c0,12.2-10.6,22-23.9,22.2h-0.4h-0.4c-13.1-0.3-23.8-10.2-23.8-22.3c0-7,1.9-10.6,4.7-13l0.4-0.3c0.1-0.1,0.2-0.2,0.4-0.3l0.4-0.3
	l0.4-0.3l0.2-0.1l0.4-0.3l0.4-0.3l0.4-0.3l0.4-0.3l0.4-0.3l0.9-0.5l1.3-0.7c1.3-0.7,2.7-1.5,4-2.5c-0.2,0-0.4-0.1-0.5-0.2
	c-2-1.6-0.4-3.3,0.4-3.5c0.4-0.1,0.6,0,0.7,0.1l0.2,0.1c0.2,0.1,0.3,0.2,0.6,0.2c0.2,0,0.4-0.1,0.6-0.2l0.2-0.1l0.2-0.1
	c0,0,0.1,0,0.1-0.1l0.2-0.2l0.2-0.2l0.2-0.2c0.6-0.6,1-1.3,0-1.4h-0.1c-1.2,0-2.3-0.4-3.2-1.1c0.4-0.7,0.6-1.4,0.6-2.3
	c0-1.9-1.1-3.5-2.8-4c0.1-0.4,0.3-0.7,0.6-1.1c1-1.3,2-1.4,2.9-1.2h0.3l0.7,0.1h0.2c0.1,0,0.1,0,0.2,0c0.4,0,0.7-0.3,0.9-0.7
	l0.3-0.4c0.4-0.5,0.8-0.9,1.6-0.9c0.7,0,1.5,0.5,2.1,0.9l0.6,0.5c0.4,0.3,0.8,0.5,1.1,0.6h0.2c0.4,0,0.8-0.3,1.4-0.7l0.4-0.3
	c0.7-0.5,1.5-1,2.2-1c0.8,0,1.2,0.5,1.6,0.9l0.3,0.4c0.3,0.4,0.6,0.7,0.9,0.7c0.1,0,0.1,0,0.2,0h0.2l0.6-0.1h0.3
	c0.9-0.1,2-0.1,3,1.2c0.2,0.3,0.4,0.7,0.6,1c-0.1,0-0.1,0-0.2,0c-2,0-3.5,1.9-3.5,4.1c0,1,0.3,2,0.9,2.7c-0.7,0.4-1.4,0.6-2.2,0.6
	h-0.3c-1.1,0-0.7,0.7-0.1,1.4l0.2,0.2l0.2,0.2l0.2,0.2c0,0,0.2,0.1,0.3,0.2l0.2,0.1c0.2,0.1,0.5,0.2,0.6,0.2c0.3,0,0.5-0.1,0.6-0.2
	l0.2-0.1c0.2-0.1,0.4-0.2,0.7-0.1c0.8,0.2,2.4,1.8,0.4,3.5C68.2,54.6,68.1,54.5,68.3,54.7z M58.8,49.2h-0.2
	c-1.4,0.1-2.4,0.7-3.6,1.9l-0.2,0.2l-0.3,0.4l-1,1.2l-0.3,0.4L52.5,54c-1.6,1.6-3.2,2.7-5.6,4.1L46,58.6l-1.3,0.7l-0.9,0.5L43.4,60
	L43,60.2l-0.5,0.3l-0.4,0.2L41.8,61l-0.2,0.1l-0.4,0.3c-3.5,2.6-5.6,6.1-5.6,12.7c0,5.9,2.7,11.3,7.1,15.1l0.5,0.4
	c3.8,3.1,9.1,5.6,14.6,5.8h0.4h0.4H59c12.4-0.2,23-10,23-21.2c0-6.6-2.1-10.1-5.6-12.7l-0.2-0.2L75.8,61l-0.3-0.2l-0.4-0.2l-0.4-0.2
	l-0.4-0.3l-0.6-0.3l-0.3-0.2l-1.3-0.7l-0.9-0.5c-2.4-1.4-4.1-2.5-5.7-4.1L65.1,54c-0.1-0.1-0.2-0.2-0.2-0.2l-0.1-0.1l-0.3-0.4
	l-0.3-0.4l-0.9-1.1L63,51.4c-1.3-1.4-2.3-2.1-3.8-2.2L58.8,49.2z M58.4,23.3c5,0,9.1,4.5,9.1,10.1c0,1.8-0.4,3.5-1.1,4.9h-0.2
	l-0.6,0.1h-0.2l0,0c0.1,0,0.1,0,0-0.1l-0.1-0.2L65,37.7c-0.7-0.9-1.4-1.3-2.4-1.3s-1.7,0.4-2.8,1.2L59.2,38L59,38.2l-0.2,0.1
	l-0.1,0.1h-0.1h-0.1l-0.3-0.2L58,38.1l-0.9-0.5c-1-0.8-1.8-1.1-2.7-1.1c-1,0-1.7,0.5-2.4,1.3l-0.5,0.6c0,0.1,0,0.1,0,0.1l0,0h-0.1
	h-0.2l-0.7-0.1h-0.1c-0.7-1.5-1.1-3.1-1.1-4.9C49.3,27.9,53.4,23.3,58.4,23.3z M46.1,48.7c-1.4,0-2.5-1.4-2.5-3c0-1.7,1.1-3,2.5-3
	s2.5,1.4,2.5,3C48.7,47.3,47.5,48.7,46.1,48.7z M70,48.7c-1.4,0-2.5-1.4-2.5-3c0-1.7,1.1-3,2.5-3s2.5,1.4,2.5,3S71.4,48.7,70,48.7z"
	/>
</svg>
