<svg width="120" height="121" viewBox="0 0 120 121" fill="none" xmlns="http://www.w3.org/2000/svg">
<path d="M93.0808 29.7421C93.0808 29.7421 79.6418 36.4003 79.6023 52.2807C79.5627 68.1611 65.4659 73.8193 65.4659 73.8193C65.4659 73.8193 51.5246 79.8521 40.266 68.6826C29.0075 57.5131 14.832 62.3691 14.832 62.3691" stroke="black" stroke-width="1.2" stroke-miterlimit="10"/>
<path d="M27.1983 90.4826C27.1983 90.4826 40.6357 83.825 40.6745 67.9449C40.7134 52.0647 54.8085 46.4073 54.8085 46.4073C54.8085 46.4073 68.7482 40.3752 80.006 51.545C91.2638 62.7147 105.447 57.8555 105.447 57.8555" stroke="black" stroke-width="1.2" stroke-miterlimit="10"/>
<path d="M20.7493 61.3184L31.5126 87.2697" stroke="black" stroke-width="1.2" stroke-miterlimit="10"/>
<path d="M28.8735 62.1777L36.8834 81.4903" stroke="black" stroke-width="1.2" stroke-miterlimit="10"/>
<path d="M43.9209 55.9023L51.9309 75.215" stroke="black" stroke-width="1.2" stroke-miterlimit="10"/>
<path d="M49.2904 50.125L59.8033 75.4728" stroke="black" stroke-width="1.2" stroke-miterlimit="10"/>
<path d="M54.8087 46.4082L66.0726 73.5665" stroke="black" stroke-width="1.2" stroke-miterlimit="10"/>
<path d="M61.0776 44.502L71.5906 69.8497" stroke="black" stroke-width="1.2" stroke-miterlimit="10"/>
<path d="M68.3485 45.0098L76.3584 64.3224" stroke="black" stroke-width="1.2" stroke-miterlimit="10"/>
<path d="M83.9989 38.4844L92.2592 58.4005" stroke="black" stroke-width="1.2" stroke-miterlimit="10"/>
<path d="M88.7667 32.957L99.5302 58.9083" stroke="black" stroke-width="1.2" stroke-miterlimit="10"/>
</svg>
