<svg width="26" height="26" viewBox="0 0 26 26" fill="none" xmlns="http://www.w3.org/2000/svg">
<path fill-rule="evenodd" clip-rule="evenodd" d="M13 25C19.6274 25 25 19.6274 25 13C25 6.37258 19.6274 1 13 1C6.37258 1 1 6.37258 1 13C1 19.6274 6.37258 25 13 25ZM13 26C20.1797 26 26 20.1797 26 13C26 5.8203 20.1797 0 13 0C5.8203 0 0 5.8203 0 13C0 20.1797 5.8203 26 13 26Z" fill="#000000"/>
<path d="M8.99707 18.0009V8.13086H9.85107V12.6109H16.1511V8.13086H17.0051V18.0009H16.1511V13.3809H9.85107V18.0009H8.99707Z" fill="#000000"/>
</svg>
