<svg width="61" height="61" viewBox="0 0 61 61" fill="none" xmlns="http://www.w3.org/2000/svg">
<circle cx="30.5" cy="30.5" r="30.1294" stroke="white" stroke-width="0.741176"/>
<path d="M18.2998 38.1784C18.2998 44.4936 23.1798 49.8042 26.8398 51.3113C29.2798 52.316 31.9351 52.316 34.3751 51.4548C38.3939 49.9478 44.2069 44.3501 43.561 36.8148C42.4845 25.4042 34.5186 16.7207 30.9304 16.7207C26.8398 16.7207 18.2998 28.1313 18.2998 38.1784Z" stroke="white" stroke-width="0.741176" stroke-miterlimit="10"/>
<path d="M29.0643 37.6744C28.6337 34.8756 28.3467 31.6461 28.3467 28.2732C28.3467 16.7908 31.2173 7.5332 34.8055 7.5332C36.5996 7.5332 38.1784 9.82967 39.3267 13.6332" stroke="white" stroke-width="0.741176" stroke-miterlimit="10"/>
<path d="M31.7197 34.9482L31.1456 34.5176L29.0644 37.3882L26.4091 35.1635L25.9067 35.6658L29.2079 38.4646L31.7197 34.9482Z" fill="white"/>
<path d="M17.5661 17.9505C17.3188 17.9505 17.0668 17.8969 16.8101 17.7895C16.5581 17.6775 16.3551 17.5282 16.2011 17.3415L16.3761 16.9915C16.5441 17.1829 16.7308 17.3252 16.9361 17.4185C17.1461 17.5119 17.3584 17.5585 17.5731 17.5585C18.0538 17.5585 18.4248 17.3765 18.6861 17.0125C18.9474 16.6439 19.0781 16.0979 19.0781 15.3745V14.9545C18.9941 15.2859 18.8261 15.5472 18.5741 15.7385C18.3221 15.9299 18.0258 16.0255 17.6851 16.0255C17.3911 16.0255 17.1298 15.9602 16.9011 15.8295C16.6771 15.6942 16.4998 15.5099 16.3691 15.2765C16.2431 15.0432 16.1801 14.7772 16.1801 14.4785C16.1801 14.1705 16.2454 13.8999 16.3761 13.6665C16.5114 13.4285 16.6934 13.2419 16.9221 13.1065C17.1554 12.9712 17.4214 12.9035 17.7201 12.9035C18.2941 12.9035 18.7351 13.1135 19.0431 13.5335C19.3511 13.9489 19.5051 14.5345 19.5051 15.2905C19.5051 16.1492 19.3348 16.8072 18.9941 17.2645C18.6534 17.7219 18.1774 17.9505 17.5661 17.9505ZM17.7551 15.6405C18.0958 15.6405 18.3711 15.5309 18.5811 15.3115C18.7958 15.0922 18.9031 14.8099 18.9031 14.4645C18.9031 14.1145 18.7958 13.8299 18.5811 13.6105C18.3711 13.3912 18.0958 13.2815 17.7551 13.2815C17.4191 13.2815 17.1438 13.3912 16.9291 13.6105C16.7191 13.8299 16.6141 14.1145 16.6141 14.4645C16.6141 14.8099 16.7191 15.0922 16.9291 15.3115C17.1438 15.5309 17.4191 15.6405 17.7551 15.6405ZM22.0854 17.9505C21.53 17.9505 21.1077 17.7359 20.8184 17.3065C20.5337 16.8772 20.3914 16.2519 20.3914 15.4305C20.3914 14.5999 20.5337 13.9722 20.8184 13.5475C21.1077 13.1182 21.53 12.9035 22.0854 12.9035C22.6454 12.9035 23.0677 13.1159 23.3524 13.5405C23.637 13.9652 23.7794 14.5929 23.7794 15.4235C23.7794 16.2449 23.6347 16.8725 23.3454 17.3065C23.056 17.7359 22.636 17.9505 22.0854 17.9505ZM22.0854 17.5655C22.51 17.5655 22.825 17.3905 23.0304 17.0405C23.2357 16.6905 23.3384 16.1515 23.3384 15.4235C23.3384 14.6862 23.2357 14.1472 23.0304 13.8065C22.8297 13.4612 22.5147 13.2885 22.0854 13.2885C21.6607 13.2885 21.3457 13.4612 21.1404 13.8065C20.935 14.1519 20.8324 14.6909 20.8324 15.4235C20.8324 16.1515 20.935 16.6905 21.1404 17.0405C21.3457 17.3905 21.6607 17.5655 22.0854 17.5655ZM25.4706 14.9265C25.2793 14.9265 25.1066 14.8822 24.9526 14.7935C24.7986 14.7049 24.6773 14.5835 24.5886 14.4295C24.5 14.2755 24.4556 14.1029 24.4556 13.9115C24.4556 13.7202 24.5 13.5499 24.5886 13.4005C24.6773 13.2465 24.7986 13.1252 24.9526 13.0365C25.1066 12.9479 25.2793 12.9035 25.4706 12.9035C25.6573 12.9035 25.8276 12.9479 25.9816 13.0365C26.1356 13.1205 26.2546 13.2395 26.3386 13.3935C26.4273 13.5475 26.4716 13.7202 26.4716 13.9115C26.4716 14.1075 26.4273 14.2825 26.3386 14.4365C26.2546 14.5859 26.1356 14.7049 25.9816 14.7935C25.8276 14.8822 25.6573 14.9265 25.4706 14.9265ZM25.4706 14.5975C25.662 14.5975 25.8183 14.5345 25.9396 14.4085C26.061 14.2779 26.1216 14.1122 26.1216 13.9115C26.1216 13.7155 26.061 13.5545 25.9396 13.4285C25.8183 13.2979 25.662 13.2325 25.4706 13.2325C25.2746 13.2325 25.116 13.2979 24.9946 13.4285C24.8733 13.5545 24.8126 13.7155 24.8126 13.9115C24.8126 14.1122 24.8733 14.2779 24.9946 14.4085C25.116 14.5345 25.2746 14.5975 25.4706 14.5975Z" fill="white"/>
</svg>
