<svg width="26" height="26" viewBox="0 0 26 26" fill="none" xmlns="http://www.w3.org/2000/svg">
<path fill-rule="evenodd" clip-rule="evenodd" d="M13 25C19.6274 25 25 19.6274 25 13C25 6.37258 19.6274 1 13 1C6.37258 1 1 6.37258 1 13C1 19.6274 6.37258 25 13 25ZM13 26C20.1797 26 26 20.1797 26 13C26 5.8203 20.1797 0 13 0C5.8203 0 0 5.8203 0 13C0 20.1797 5.8203 26 13 26Z" fill="#000000"/>
<path d="M9.91992 18.2743V8.4043H13.6439C14.6986 8.4043 15.5013 8.6563 16.0519 9.1603C16.6119 9.6643 16.8919 10.383 16.8919 11.3163C16.8919 12.2403 16.6119 12.959 16.0519 13.4723C15.5013 13.9763 14.6986 14.2283 13.6439 14.2283H10.7739V18.2743H9.91992ZM10.7739 13.4723H13.5739C15.2073 13.4723 16.0239 12.7536 16.0239 11.3163C16.0239 9.86963 15.2073 9.1463 13.5739 9.1463H10.7739V13.4723Z" fill="#000000"/>
</svg>
