<svg width="44" height="44" viewBox="0 0 44 44" fill="none" xmlns="http://www.w3.org/2000/svg">
<circle cx="22" cy="22" r="21.5" stroke="black"/>
<path d="M12.7147 16.8723L22.0371 11.49L31.6779 17.1135L31.6779 27.6204L22.0321 33.6223L12.7147 28.0986L12.7147 16.8723Z" stroke="black"/>
<path d="M12.4573 17.1145L21.7418 22.7963M21.7418 22.7963L31.515 17.588M21.7418 22.7963V33.6864" stroke="black"/>
<path d="M9.49636 17.9431C6.70504 18.8231 5 19.9989 5 21.2904C5 24.0179 12.605 26.2291 21.9862 26.2291C31.3675 26.2291 38.9725 24.0179 38.9725 21.2904C38.9725 20.0778 37.4695 18.9673 34.9757 18.1078" stroke="black"/>
<path d="M35.9344 21.2575L34.8296 18.0352L38.144 17.1145" stroke="black"/>
</svg>
