<svg xmlns="http://www.w3.org/2000/svg" width="1921" height="1027" viewBox="0 0 1921 1027" version="1.1">
    <path class="svg-region-SB" d="M 928 183.284 C 927.725 183.557, 921.875 184.299, 915 184.933 C 887.348 187.483, 857.334 201.174, 843.095 217.733 C 828.848 234.302, 815.340 256.552, 812.333 268.404 C 811.482 271.757, 809.710 277.729, 808.393 281.676 C 806.308 287.929, 806 290.723, 806 303.377 C 806 318.178, 807.060 326.139, 809.746 331.500 C 812.499 336.995, 817.708 342.463, 823.510 345.948 C 828.644 349.032, 830.182 349.441, 838.071 349.818 C 846.220 350.207, 847.371 350.014, 853.196 347.280 C 860.100 344.039, 871.318 333.889, 900.690 304.306 L 916.880 288 922.190 288.002 C 925.111 288.004, 933.800 289.008, 941.500 290.234 C 963.816 293.787, 981.126 292.934, 991.389 287.773 C 1002.453 282.210, 1011.781 267.119, 1012.703 253.291 C 1013.265 244.881, 1010.809 231.879, 1007.059 223.401 C 1002.743 213.644, 985.228 195.531, 977.019 192.335 C 975.084 191.582, 972.150 190.313, 970.500 189.516 C 960.111 184.498, 956.609 183.714, 942.500 183.249 C 934.800 182.994, 928.275 183.010, 928 183.284" stroke="#d2e400" fill="#d2e400" fill-opacity="0.2" fill-rule="evenodd"/><path class="svg-region-Ol" d="M 609.500 286.144 C 605.650 286.524, 600.881 287.055, 598.903 287.323 C 593.405 288.069, 582.661 293.844, 576 299.632 C 572.385 302.774, 552.850 315.664, 549.417 317.173 C 547.813 317.878, 544.159 319.927, 541.298 321.727 C 538.437 323.527, 535.800 325, 535.437 325 C 535.075 325, 531.961 326.970, 528.517 329.377 C 525.073 331.785, 519.459 335.393, 516.042 337.396 C 503.080 344.993, 465.107 381.407, 459.101 392 C 444.835 417.160, 441.341 428.779, 443.917 442.500 C 444.536 445.800, 445.481 453.675, 446.017 460 C 447.024 471.897, 448.075 476.289, 452.360 486.500 C 455.705 494.470, 464.289 510.432, 466.326 512.469 C 467.220 513.363, 468.691 515.653, 469.596 517.560 C 471.810 522.226, 491.032 540.983, 498.500 545.766 C 506.836 551.104, 521.829 556.889, 543 562.936 C 547.125 564.114, 552.750 565.771, 555.500 566.617 C 562.070 568.638, 577.952 570.933, 585.500 570.951 C 591.668 570.965, 605.735 568.956, 612.819 567.049 C 615.019 566.456, 619.447 564.049, 622.659 561.698 C 625.872 559.348, 630.123 556.433, 632.106 555.220 C 637.324 552.029, 651.541 536.289, 657.019 527.638 C 662.425 519.101, 668 502.661, 668 495.257 C 668 493.429, 669.067 489.811, 670.372 487.217 C 671.676 484.623, 673.789 479.575, 675.066 476 C 676.343 472.425, 677.652 469.275, 677.975 469 C 679.025 468.104, 687 450.197, 687 448.734 C 687 447.951, 687.908 444.653, 689.018 441.405 C 690.128 438.157, 692.153 429.300, 693.518 421.722 C 695.692 409.657, 695.993 405.183, 695.940 385.722 C 695.908 373.500, 695.501 361.475, 695.038 359 C 694.574 356.525, 693.479 350.675, 692.605 346 C 691.118 338.044, 685.833 325, 684.098 325 C 683.671 325, 682.850 323.967, 682.275 322.704 C 680.933 319.758, 671.733 307.486, 667.656 303.204 C 665.930 301.391, 662.714 298.854, 660.509 297.565 C 654.920 294.300, 632.736 287.009, 628.228 286.956 C 626.178 286.932, 622.700 286.585, 620.500 286.183 C 618.300 285.782, 613.350 285.765, 609.500 286.144" stroke="#aa444d" fill="#aa444d" fill-opacity="0.2" fill-rule="evenodd"/><path class="svg-region-Or" d="M 1220 240.874 C 1209.676 243.139, 1200.872 249.872, 1191.190 262.908 C 1185.777 270.196, 1182 278.063, 1182 282.051 C 1182 283.167, 1181.158 285.749, 1180.130 287.790 C 1179.031 289.970, 1178.050 294.593, 1177.752 299 C 1177.448 303.506, 1176.380 308.471, 1175.079 311.436 C 1173.338 315.400, 1173.121 316.878, 1173.976 318.942 C 1174.718 320.733, 1174.729 323.154, 1174.014 326.925 C 1173.450 329.902, 1172.764 346.164, 1172.490 363.062 C 1172.077 388.585, 1172.261 395.116, 1173.578 401.643 C 1177.761 422.372, 1178.283 424.359, 1182.932 437.225 C 1184.069 440.374, 1185.007 444.874, 1185.015 447.225 C 1185.041 454.882, 1187.886 464.861, 1193.076 475.500 C 1197.353 484.268, 1217.212 510.279, 1227.465 520.542 C 1240.723 533.813, 1257.809 541.532, 1279.937 544.248 C 1293.782 545.947, 1304.312 542.820, 1308.475 535.773 C 1309.371 534.256, 1317.563 526.825, 1326.680 519.258 C 1346.411 502.882, 1349.131 500.340, 1352.288 495.327 C 1357.731 486.684, 1367.957 448.374, 1370.526 427 C 1371.806 416.351, 1372.003 399.412, 1370.939 391.500 C 1369.635 381.810, 1365.471 366.431, 1363.222 363 C 1362.320 361.625, 1361.292 357.755, 1360.936 354.399 C 1360.580 351.043, 1359.296 346.318, 1358.082 343.899 C 1356.029 339.806, 1349.684 332, 1348.411 332 C 1346.982 332, 1335.374 322.209, 1326.827 313.795 C 1320.759 307.822, 1315.652 301.640, 1312.537 296.500 C 1302.974 280.718, 1297.021 272.410, 1291.307 266.872 C 1282.911 258.734, 1270.202 250.470, 1262.267 247.988 C 1241.693 241.554, 1227.664 239.192, 1220 240.874" stroke="#aa444d" fill="#aa444d" fill-opacity="0.2" fill-rule="evenodd"/>
    </svg>