<svg xmlns="http://www.w3.org/2000/svg" width="1921" height="1027" viewBox="0 0 1921 1027" version="1.1">
    <path class="svg-region-SB" d="M 903.500 183.569 C 899.650 184.325, 894.475 185.460, 892 186.091 C 889.525 186.723, 884.680 187.855, 881.234 188.608 C 874.230 190.137, 869.117 192.511, 861 198.002 C 857.975 200.049, 853.067 202.954, 850.093 204.458 C 843.116 207.987, 835.023 216.524, 830.505 225.123 C 828.539 228.864, 826.496 232.193, 825.965 232.522 C 825.434 232.850, 825 233.907, 825 234.872 C 825 236.494, 817.539 249.868, 816.002 251 C 815.629 251.275, 814.094 254.875, 812.592 259 C 811.089 263.125, 809.020 268.300, 807.995 270.500 C 805.086 276.741, 802.702 292.294, 802.629 305.500 C 802.566 316.950, 802.707 317.807, 805.719 324.205 C 809.069 331.321, 815.204 338.733, 820.371 341.910 C 824.537 344.471, 837.865 345.652, 844 344.004 C 846.475 343.339, 850.435 341.491, 852.800 339.898 C 855.165 338.304, 857.350 337, 857.656 337 C 859.748 337, 876.511 321.538, 894.719 302.814 C 900.878 296.482, 905.149 292.907, 907.058 292.487 C 908.663 292.135, 910.234 291.431, 910.548 290.923 C 911.321 289.672, 920 289.742, 920 291 C 920 291.550, 922.210 292, 924.912 292 C 927.614 292, 933.351 292.675, 937.662 293.500 C 949.221 295.712, 963.687 295.492, 969.463 293.016 C 978.418 289.177, 988.095 280.424, 991.038 273.500 C 992.207 270.750, 993.880 266.925, 994.755 265 C 997.787 258.331, 1000 247.658, 1000 239.701 L 1000 231.767 993.480 221.282 C 985.975 209.212, 978.226 199.905, 973.079 196.777 C 971.111 195.581, 967.925 193.363, 966 191.847 C 960.963 187.881, 953.791 184.971, 945.508 183.532 C 935.762 181.840, 912.198 181.860, 903.500 183.569" stroke="#d2e400" fill="#d2e400" fill-opacity="0.2" fill-rule="evenodd"/><path class="svg-region-Ol" d="M 610.500 267.409 C 607.200 268.158, 602.250 269.068, 599.500 269.432 C 596.068 269.886, 591.677 271.757, 585.500 275.399 C 580.550 278.317, 574.925 281.236, 573 281.886 C 571.075 282.536, 567.919 284.114, 565.987 285.391 C 564.055 286.669, 561.355 288.056, 559.987 288.472 C 558.619 288.889, 556.600 290.017, 555.500 290.979 C 554.400 291.940, 549.675 294.800, 545 297.333 C 540.325 299.867, 535.259 302.966, 533.741 304.220 C 529.091 308.063, 523.737 311.958, 518.503 315.305 C 515.754 317.062, 509.454 322.344, 504.503 327.042 C 499.551 331.741, 492.908 338.041, 489.739 341.042 C 486.570 344.044, 481.961 349.650, 479.497 353.500 C 474.762 360.895, 466.435 377.138, 465.010 381.758 C 464.545 383.266, 462.967 388.325, 461.504 393 C 456.171 410.047, 454.634 433.640, 457.495 454.564 C 459.342 468.068, 460.014 470.885, 464.467 483.793 C 469.448 498.230, 473.763 506.316, 483.967 520.329 C 501.713 544.698, 520.971 559.915, 543.822 567.624 C 549.695 569.605, 555.850 571.923, 557.500 572.776 C 563.223 575.732, 578.163 579, 585.947 578.999 C 592.724 578.997, 604.310 577.358, 612.500 575.241 C 616.056 574.322, 628.049 567.977, 632.994 564.398 C 637.344 561.251, 647.944 550.146, 652.942 543.500 C 655.010 540.750, 658.682 536.178, 661.101 533.341 C 667.817 525.463, 678.688 503.245, 680.594 493.500 C 681.455 489.100, 683.227 482.125, 684.532 478 C 685.837 473.875, 687.613 465.100, 688.479 458.500 C 689.345 451.900, 690.481 443.350, 691.003 439.500 C 691.525 435.650, 692.241 428, 692.594 422.500 C 692.947 417, 694.308 407.151, 695.618 400.612 C 700.837 374.570, 697.536 350.358, 686.471 333.510 C 684.012 329.766, 682 326.196, 682 325.575 C 682 324.955, 679.638 321.427, 676.750 317.737 C 673.862 314.046, 667.675 304.616, 663 296.782 C 653.936 281.593, 645.524 271.923, 638.382 268.484 C 633.392 266.081, 618.832 265.520, 610.500 267.409" stroke="#aa444d" fill="#aa444d" fill-opacity="0.2" fill-rule="evenodd"/><path class="svg-region-Or" d="M 1226.500 261.169 C 1215.658 261.949, 1207.342 264.200, 1198.538 268.736 C 1194.211 270.965, 1183.508 283.077, 1180.631 289 C 1179.429 291.475, 1177.245 295.525, 1175.778 298 C 1173.829 301.290, 1172.819 304.921, 1172.023 311.500 C 1171.424 316.450, 1170.509 321.850, 1169.989 323.500 C 1168.308 328.840, 1166.125 346.112, 1165.059 362.500 C 1163.530 386.023, 1165.479 413.603, 1169.471 424.917 C 1170.216 427.029, 1171.148 431.400, 1171.542 434.629 C 1172.220 440.191, 1175.067 451.144, 1176.967 455.500 C 1177.446 456.600, 1178.795 461.325, 1179.963 466 C 1181.131 470.675, 1182.689 476.075, 1183.426 478 C 1195.028 508.298, 1197.662 513.126, 1207.167 521.503 C 1209.661 523.702, 1214.431 528.875, 1217.768 533 C 1226.259 543.499, 1232.650 549.447, 1238.658 552.442 C 1249.780 557.985, 1274.171 560.477, 1287.889 557.471 C 1302.162 554.343, 1317.614 545.542, 1330.377 533.269 C 1337.533 526.389, 1348.482 511.084, 1351.676 503.500 C 1355.059 495.463, 1360.934 478.938, 1362.450 473.191 C 1363.219 470.274, 1364.284 467.350, 1364.816 466.694 C 1365.348 466.037, 1366.331 462.830, 1367 459.567 C 1367.670 456.304, 1368.889 451.804, 1369.709 449.567 C 1374.858 435.532, 1376.170 418.882, 1373.538 401 C 1372.254 392.275, 1368.849 379.912, 1367.065 377.500 C 1366.659 376.950, 1365.272 373.575, 1363.985 370 C 1360.837 361.262, 1343.970 329.985, 1339.987 325.500 C 1339.010 324.400, 1337.370 321.905, 1336.342 319.956 C 1330.332 308.559, 1311.084 287.369, 1297.681 277.395 C 1278.373 263.026, 1259.730 258.776, 1226.500 261.169" stroke="#aa444d" fill="#aa444d" fill-opacity="0.2" fill-rule="evenodd"/>
    </svg>