<svg xmlns="http://www.w3.org/2000/svg" width="1921" height="1027" viewBox="0 0 1921 1027" version="1.1">
    <path class="svg-region-SB" d="M 899 190.947 C 897.075 191.405, 893.084 192.278, 890.130 192.887 C 874.787 196.050, 864.570 200.817, 852.765 210.319 C 842.880 218.275, 838.553 223.036, 835.159 229.688 C 833.995 231.969, 831.726 235.787, 830.117 238.172 C 826.100 244.124, 813.502 272.637, 812.002 279.170 C 811.330 282.102, 809.929 286.903, 808.890 289.839 C 807.363 294.152, 807.002 297.996, 807.010 309.839 C 807.019 323.115, 807.241 324.972, 809.363 329.500 C 812.189 335.531, 820.349 343.382, 826.722 346.201 C 829.282 347.334, 834.105 348.461, 837.439 348.706 C 842.967 349.113, 844.240 348.789, 851.920 345.030 C 870.496 335.935, 897.097 314.727, 904.362 303.219 C 908.301 296.978, 909.486 296.381, 913.798 298.461 C 922.977 302.889, 932.086 304.288, 943 302.946 C 965.454 300.185, 977.516 295.730, 982.987 288.176 C 984.644 285.889, 986 283.739, 986 283.398 C 986 283.058, 987.595 279.552, 989.545 275.607 C 993.764 267.069, 995.408 257.614, 994.518 247 C 993.492 234.754, 989.774 226.197, 979.503 212.434 C 975.120 206.561, 973.011 204.728, 967.012 201.576 C 963.042 199.489, 955.228 196.192, 949.647 194.249 C 939.643 190.765, 939.239 190.711, 921 190.414 C 910.825 190.249, 900.925 190.488, 899 190.947" stroke="#d2e400" fill="#d2e400" fill-opacity="0.2" fill-rule="evenodd"/><path class="svg-region-Ol" d="M 627.567 266.537 C 619.028 267.970, 611.458 270.447, 608.921 272.637 C 608.053 273.387, 606.703 274.005, 605.921 274.012 C 605.140 274.019, 602.667 275.072, 600.428 276.353 C 598.188 277.634, 591.213 280.581, 584.928 282.901 C 578.642 285.221, 570.125 288.492, 566 290.169 C 561.875 291.847, 557.600 293.575, 556.500 294.009 C 549.714 296.689, 538.517 302.275, 532.500 305.983 C 528.650 308.355, 524.154 310.992, 522.510 311.841 C 517.908 314.219, 502.206 325.478, 495.386 331.290 C 487.425 338.074, 479.808 348.310, 474.920 358.793 C 472.764 363.416, 471 367.423, 471 367.698 C 471 367.973, 470.384 369.616, 469.632 371.349 C 465.494 380.880, 458.997 406.535, 456.552 423 C 453.786 441.633, 455.105 480.061, 458.938 492.500 C 460.121 496.338, 462.573 510.078, 464.025 521 C 464.647 525.675, 465.642 530.850, 466.236 532.500 C 469.027 540.247, 476.436 554.141, 480.982 560.153 C 487.461 568.720, 503.210 584.763, 509 588.694 C 521.196 596.974, 540.208 604.455, 553.192 606.083 C 564.337 607.481, 569.106 606.529, 583.419 600.048 C 591.068 596.585, 612.486 587.753, 617.500 585.995 C 620.250 585.030, 625.188 582.837, 628.472 581.121 C 631.757 579.404, 634.869 578, 635.388 578 C 637.058 578, 651.017 568.886, 654.818 565.313 C 656.843 563.410, 659.513 561.160, 660.750 560.312 C 661.987 559.464, 663 558.357, 663 557.851 C 663 556.767, 668.350 551.383, 669.961 550.846 C 670.574 550.642, 672.847 547.105, 675.012 542.987 C 677.176 538.869, 680.034 533.475, 681.363 531 C 683.798 526.463, 697.724 485.644, 699.902 476.657 C 700.547 473.994, 701.698 470.844, 702.460 469.657 C 703.221 468.471, 704.586 464.800, 705.494 461.500 C 706.401 458.200, 708.188 452.800, 709.464 449.500 C 716.432 431.481, 718.767 423.471, 722.049 406.324 C 724.184 395.168, 721.920 361.099, 718.101 346.908 C 715.356 336.712, 714.014 333.239, 707.702 320 C 699.973 303.789, 691.817 291.933, 681.906 282.500 C 665.545 266.929, 650.886 262.622, 627.567 266.537" stroke="#aa444d" fill="#aa444d" fill-opacity="0.2" fill-rule="evenodd"/><path class="svg-region-Or" d="M 1222.344 223.484 C 1208.760 225.111, 1203.461 227.654, 1185.178 241.319 C 1177.061 247.386, 1169.206 259.290, 1166.059 270.293 C 1165.044 273.844, 1163.535 278.268, 1162.706 280.124 C 1160.424 285.236, 1159.948 287.591, 1158.892 299 C 1156.135 328.804, 1156.829 351.063, 1160.986 366.216 C 1162.088 370.233, 1163.182 375.991, 1163.417 379.010 C 1164.174 388.747, 1165.716 397.255, 1168.761 408.500 C 1170.400 414.550, 1172.038 421.300, 1172.403 423.500 C 1172.768 425.700, 1174.197 433.800, 1175.578 441.500 C 1176.960 449.200, 1178.775 459.550, 1179.611 464.500 C 1182.380 480.896, 1183.977 486.102, 1188.549 493.634 C 1190.997 497.666, 1193 501.195, 1193 501.475 C 1193 501.756, 1193.856 503.001, 1194.903 504.242 C 1195.950 505.484, 1199.499 509.875, 1202.791 514 C 1210.594 523.778, 1227.031 539.670, 1234 544.174 C 1237.025 546.129, 1240.625 548.965, 1242 550.476 C 1245.764 554.611, 1255.496 560.941, 1262.379 563.730 C 1271.620 567.473, 1285.600 567.969, 1297.500 564.975 C 1316.421 560.214, 1338.411 546.106, 1354 528.729 C 1363.649 517.972, 1370.451 500.185, 1375.163 473.385 C 1378.076 456.820, 1378.315 453.729, 1378.398 431.500 C 1378.512 400.614, 1376.131 377.718, 1370.806 358.500 C 1369.739 354.650, 1368.399 349.700, 1367.828 347.500 C 1366.170 341.118, 1359.767 321.597, 1358.971 320.500 C 1358.571 319.950, 1357.905 318.375, 1357.490 317 C 1355.900 311.735, 1340.146 281.672, 1338.100 280 C 1337.764 279.725, 1335.480 276.800, 1333.026 273.500 C 1320.203 256.260, 1305.932 243.793, 1288.340 234.464 C 1269.906 224.689, 1245.787 220.677, 1222.344 223.484" stroke="#aa444d" fill="#aa444d" fill-opacity="0.2" fill-rule="evenodd"/>
    </svg>