<svg xmlns="http://www.w3.org/2000/svg" width="1921" height="1027" viewBox="0 0 1921 1027" version="1.1">
    <path class="svg-region-SB" d="M 913.500 204 C 911.300 204.486, 907.300 204.911, 904.611 204.942 C 899.410 205.004, 883.131 209.641, 874.110 213.630 C 866.820 216.854, 855.488 224.305, 850.167 229.373 C 844.296 234.966, 834.697 248.366, 831.687 255.173 C 830.332 258.237, 828.735 261.046, 828.139 261.414 C 827.542 261.783, 826.169 264.952, 825.086 268.457 C 824.003 271.962, 821.444 278.024, 819.399 281.928 C 815.923 288.564, 815.683 289.594, 815.707 297.763 C 815.722 302.661, 816.451 309.119, 817.367 312.460 C 818.265 315.738, 819 319.725, 819 321.320 C 819 322.915, 820.449 326.938, 822.219 330.260 C 829.972 344.805, 848.894 352.039, 863.728 346.129 C 868.427 344.257, 883.036 334.368, 884.427 332.119 C 884.732 331.625, 889.148 328.263, 894.241 324.647 C 899.710 320.763, 905.278 315.787, 907.845 312.489 L 912.191 306.906 916.845 307.703 C 919.405 308.141, 927.800 308.454, 935.500 308.398 C 948.888 308.300, 949.828 308.156, 957 305.110 C 965.415 301.536, 968.531 299.084, 975.335 290.683 C 984.127 279.827, 988.959 271.590, 990.074 265.557 C 993.013 249.660, 987.191 230.588, 976.449 220.924 C 974.967 219.591, 972.788 217.533, 971.607 216.351 C 970.425 215.169, 966.452 212.186, 962.778 209.723 C 957.189 205.975, 955.070 205.146, 949.799 204.648 C 937.507 203.486, 917.442 203.127, 913.500 204" stroke="#d2e400" fill="#d2e400" fill-opacity="0.2" fill-rule="evenodd"/><path class="svg-region-Ol" d="M 637.284 248.043 C 636.853 248.434, 634.025 249.547, 631 250.515 C 623.589 252.889, 617.065 256.201, 607.500 262.446 C 599.795 267.477, 590.931 273.048, 583.186 277.727 C 581.159 278.952, 572.075 283.149, 563 287.055 C 553.925 290.961, 543.800 295.442, 540.500 297.013 C 537.200 298.584, 533.375 300.347, 532 300.932 C 530.625 301.517, 528.615 302.559, 527.534 303.248 C 526.453 303.936, 522.603 306.395, 518.979 308.712 C 511.844 313.273, 505.637 319.515, 491.200 336.646 C 479.231 350.850, 477.975 352.755, 470.983 367.325 C 463.975 381.926, 462.077 386.673, 456.719 403 L 452.617 415.500 452.281 436 L 451.946 456.500 455.904 471.500 C 460.763 489.910, 467.286 514.442, 469.466 522.500 C 473.992 539.231, 484.714 554.716, 499.109 565.310 C 501.209 566.855, 505.813 571.805, 509.339 576.310 C 517.178 586.322, 526.254 595.079, 531.545 597.736 C 540.769 602.367, 555.820 605.999, 565.799 606.002 C 573.641 606.005, 601.282 600.091, 611 596.331 C 619.379 593.090, 630.119 587.245, 638.699 581.259 C 649.460 573.752, 674.848 547.880, 684.094 535 C 693.826 521.441, 704.724 500.778, 706.473 492.567 C 707.184 489.230, 708.486 484.700, 709.366 482.500 C 710.247 480.300, 711.643 474.225, 712.468 469 C 713.294 463.775, 714.382 457.475, 714.886 455 C 715.390 452.525, 716.533 443.075, 717.424 434 C 718.316 424.925, 719.749 413.675, 720.608 409 C 721.818 402.414, 722.088 395.321, 721.805 377.500 C 721.453 355.305, 721.344 354.238, 718.675 347 C 717.154 342.875, 715.463 337.475, 714.916 335 C 712.622 324.611, 711.598 320.930, 707.955 310 C 701.458 290.503, 698.022 282.478, 693.608 276.500 C 685.530 265.558, 676.532 258.648, 664.883 254.438 C 660.822 252.971, 655.925 251.192, 654 250.485 C 649.326 248.767, 638.266 247.152, 637.284 248.043" stroke="#aa444d" fill="#aa444d" fill-opacity="0.2" fill-rule="evenodd"/><path class="svg-region-Or" d="M 1205.024 221.539 C 1197.297 223.706, 1191.868 227.166, 1186.843 233.127 C 1181.273 239.734, 1175.440 245.571, 1164.652 255.333 C 1159.507 259.990, 1155.727 264.248, 1155.332 265.833 C 1154.967 267.300, 1153.170 271.425, 1151.339 275 C 1149.508 278.575, 1148.008 282.090, 1148.005 282.812 C 1148.002 283.534, 1147.257 286.397, 1146.348 289.175 C 1144.879 293.667, 1144.760 298.830, 1145.277 335.863 C 1145.632 361.266, 1146.310 379.644, 1147.017 383 C 1147.655 386.025, 1149.997 394.350, 1152.222 401.500 C 1156.342 414.737, 1159.660 428.238, 1164.512 451.500 C 1168.498 470.614, 1170.667 477.436, 1176.108 487.982 C 1178.799 493.197, 1181 497.998, 1181 498.651 C 1181 499.304, 1181.662 501.112, 1182.471 502.669 C 1183.281 504.226, 1185.306 508.425, 1186.973 512 C 1189.683 517.816, 1192.635 522.104, 1203.734 536.349 C 1205.513 538.632, 1208.112 542.646, 1209.511 545.270 C 1211.924 549.797, 1230.076 568.399, 1235.857 572.270 C 1237.311 573.243, 1241.650 574.993, 1245.500 576.158 C 1249.350 577.324, 1252.968 578.641, 1253.539 579.086 C 1254.705 579.994, 1260.769 581.615, 1269 583.219 C 1274.390 584.270, 1289.311 583.335, 1305.427 580.936 C 1317.200 579.184, 1331.576 570.042, 1341.280 558.137 C 1363.181 531.268, 1373.563 511.135, 1377.450 488 C 1378.986 478.856, 1380.775 453.419, 1380.967 438 C 1381.093 427.897, 1378.724 400.403, 1377.034 392.337 C 1374.417 379.854, 1366.530 354.102, 1363.454 348 C 1362.207 345.525, 1358.203 337.509, 1354.557 330.186 C 1337.668 296.266, 1318.823 276.097, 1288.500 259.489 C 1262.754 245.387, 1254.147 239.701, 1244.281 230.276 C 1240.715 226.869, 1237.093 224.573, 1232.843 223.023 C 1224.794 220.088, 1212.528 219.434, 1205.024 221.539" stroke="#aa444d" fill="#aa444d" fill-opacity="0.2" fill-rule="evenodd"/>
    </svg>