<svg xmlns="http://www.w3.org/2000/svg" width="1921" height="1027" viewBox="0 0 1921 1027" version="1.1">
    <path class="svg-region-SB" d="M 903.844 215.489 C 903.524 215.810, 899.040 216.523, 893.881 217.075 C 888.721 217.626, 883.225 218.499, 881.668 219.015 C 875.466 221.069, 861.168 231.212, 855.617 237.495 C 850.361 243.445, 845.033 252.671, 845.010 255.863 C 845.004 256.612, 841.655 263.218, 837.568 270.541 C 833.480 277.865, 828.642 287.152, 826.818 291.178 C 823.706 298.046, 823.500 299.182, 823.500 309.500 C 823.500 319.736, 823.708 320.912, 826.500 326.436 C 833.967 341.212, 843.780 347.452, 858.578 346.836 C 870.538 346.338, 879.993 341.367, 894.175 328.118 C 903.786 319.140, 905.331 318.073, 909.665 317.423 C 913.133 316.903, 915.779 317.162, 919.124 318.350 C 924.557 320.280, 938.214 320.557, 946.201 318.901 C 956.374 316.790, 966.835 308.456, 971.442 298.791 C 972.677 296.201, 974.181 293.487, 974.785 292.759 C 977.958 288.936, 983.021 274.180, 983.608 267.045 C 984.475 256.512, 983.173 252.815, 974.464 241.082 C 963.833 226.759, 953.142 219.072, 940.767 216.853 C 933.923 215.626, 904.784 214.549, 903.844 215.489" stroke="#d2e400" fill="#d2e400" fill-opacity="0.2" fill-rule="evenodd"/><path class="svg-region-Ol" d="M 629.923 262.953 C 628.505 263.383, 623.330 264.032, 618.423 264.396 C 602.856 265.549, 581.392 271.210, 573.319 276.292 C 571.219 277.614, 565.900 280.363, 561.500 282.400 C 557.100 284.437, 551.960 286.868, 550.078 287.802 C 548.196 288.736, 546.396 289.505, 546.078 289.512 C 544.982 289.535, 525.536 300.223, 521.343 303.108 C 519.031 304.699, 516.859 306, 516.515 306 C 515.743 306, 505.072 313.208, 499 317.831 C 493.913 321.704, 491.978 323.675, 487.019 330.036 C 485.105 332.491, 481.625 336.388, 479.286 338.696 C 471.677 346.205, 462.055 362.461, 453.620 382.057 C 448.209 394.628, 442.681 420.279, 440.828 441.410 C 439.963 451.272, 439.985 457.647, 440.917 468.410 C 442.422 485.772, 446.777 512.746, 449.085 519 C 449.593 520.375, 451.097 526.450, 452.429 532.500 C 459.444 564.376, 464.865 576.180, 478.754 589.817 C 487.558 598.460, 500.899 607.807, 508.979 610.992 C 517.855 614.490, 531.328 616.319, 543.406 615.663 C 559.800 614.773, 565.397 613.914, 573.500 611.041 C 576.250 610.066, 580.300 608.943, 582.500 608.546 C 584.700 608.149, 589.875 606.124, 594 604.046 C 614.631 593.654, 616.905 592.308, 623.849 586.386 C 625.857 584.674, 629.075 582.471, 631 581.491 C 632.925 580.511, 637.053 577.749, 640.174 575.354 C 643.295 572.959, 646.557 571, 647.424 571 C 648.291 571, 649 570.662, 649 570.248 C 649 569.834, 653.933 564.361, 659.962 558.085 C 671.720 545.846, 675.255 540.286, 681.385 524.401 C 683.274 519.506, 686.153 512.575, 687.784 509 C 693.088 497.369, 697.692 482.030, 700.540 466.500 C 701.447 461.550, 702.546 457.050, 702.982 456.500 C 704.153 455.023, 710.690 434.141, 711.435 429.500 C 712.571 422.419, 714.178 396.994, 714.625 379 C 714.983 364.605, 714.717 359.637, 713.121 351 C 712.055 345.225, 709.998 333.975, 708.550 326 C 705.465 309.002, 705.247 308.346, 698.633 296.175 C 689.751 279.829, 680.521 271.354, 664 264.372 C 659.158 262.325, 656.945 262.055, 645.500 262.110 C 638.350 262.144, 631.340 262.524, 629.923 262.953" stroke="#aa444d" fill="#aa444d" fill-opacity="0.2" fill-rule="evenodd"/><path class="svg-region-Or" d="M 1222 217.968 C 1214.935 219.327, 1208.961 221.751, 1203 225.677 C 1199.975 227.670, 1195.250 230.788, 1192.500 232.606 C 1186.386 236.649, 1171.347 249.157, 1168.195 252.821 C 1166.927 254.294, 1165.017 257.075, 1163.951 259 C 1162.884 260.925, 1160.896 264.300, 1159.532 266.500 C 1158.169 268.700, 1155.034 274.550, 1152.567 279.500 L 1148.081 288.500 1147.103 310 C 1146.506 323.133, 1146.478 334.419, 1147.031 339 C 1147.530 343.125, 1148.407 352.125, 1148.981 359 C 1150.964 382.747, 1153.281 397.251, 1157.050 409.500 C 1158.066 412.800, 1159.376 419.100, 1159.961 423.500 C 1160.546 427.900, 1161.716 436, 1162.561 441.500 C 1163.407 447, 1163.855 453.131, 1163.557 455.124 C 1163.260 457.118, 1163.424 460.043, 1163.923 461.624 C 1164.421 463.206, 1165.575 468.100, 1166.486 472.500 C 1167.397 476.900, 1168.970 482.750, 1169.980 485.500 C 1170.991 488.250, 1172.064 491.625, 1172.365 493 C 1174.328 501.980, 1177.140 510.629, 1178.395 511.547 C 1179.205 512.139, 1180.189 513.946, 1180.583 515.562 C 1180.976 517.178, 1181.906 519.388, 1182.649 520.473 C 1183.392 521.557, 1184 523.165, 1184 524.044 C 1184 526.660, 1197.008 541.866, 1208.977 553.244 C 1211.440 555.585, 1217.487 561.451, 1222.414 566.279 C 1228.973 572.706, 1233.282 575.988, 1238.493 578.529 C 1242.409 580.438, 1245.896 582, 1246.241 582 C 1246.587 582, 1248.137 582.525, 1249.685 583.166 C 1251.233 583.808, 1252.854 584.370, 1253.286 584.416 C 1253.719 584.462, 1254.444 585.100, 1254.897 585.833 C 1255.350 586.566, 1258.596 587.956, 1262.110 588.920 C 1265.625 589.885, 1269.400 591.015, 1270.500 591.431 C 1276.246 593.605, 1278.271 594.026, 1287.196 594.905 C 1312.530 597.401, 1334.165 587.592, 1350.003 566.427 C 1363.034 549.014, 1369.445 531.814, 1375.136 499 C 1378.232 481.146, 1379.092 473.695, 1381.313 445.500 C 1383.389 419.133, 1381.294 386.263, 1376.310 367 C 1374.957 361.775, 1373.464 355.475, 1372.990 353 C 1372.165 348.688, 1366.731 332.781, 1363.936 326.500 C 1360.280 318.283, 1343.277 291.406, 1338.209 285.834 C 1326.410 272.859, 1315.922 263.198, 1308.467 258.435 C 1306.835 257.392, 1302.286 254.186, 1298.357 251.309 C 1294.428 248.433, 1289.328 245.049, 1287.023 243.790 C 1274.732 237.073, 1261.931 229.085, 1258.046 225.706 C 1251.959 220.413, 1245.041 217.917, 1235.271 217.488 C 1230.447 217.276, 1224.475 217.492, 1222 217.968" stroke="#aa444d" fill="#aa444d" fill-opacity="0.2" fill-rule="evenodd"/>
    </svg>