<svg xmlns="http://www.w3.org/2000/svg" width="1921" height="1027" viewBox="0 0 1921 1027" version="1.1">
    <path class="svg-region-SB" d="M 906.135 228.502 C 904.285 229.326, 901.638 230, 900.254 230 C 896.271 230, 882.192 238.018, 876.547 243.500 C 869.385 250.456, 859.529 261.380, 852.531 270.118 C 849.280 274.178, 845.146 279.078, 843.345 281.006 C 841.544 282.935, 838.254 288.021, 836.035 292.310 C 830.862 302.306, 830.603 308.606, 834.865 320.782 C 837.713 328.918, 844.141 338.080, 849.435 341.549 C 856.557 346.216, 872.111 349.203, 878.213 347.076 C 879.955 346.468, 887.040 342.638, 893.957 338.563 C 900.873 334.489, 907.650 330.872, 909.016 330.525 C 910.382 330.178, 913.975 328.122, 917 325.956 C 920.025 323.789, 925.489 320.457, 929.142 318.550 C 941.262 312.225, 959.928 291.321, 959.994 284 C 960.001 283.175, 960.906 281.027, 962.004 279.226 C 963.640 276.543, 964 274.185, 964 266.167 C 964 256.734, 963.872 256.169, 960.442 250.441 C 955.953 242.944, 946.859 233.644, 942.126 231.711 C 932.878 227.932, 911.664 226.041, 906.135 228.502" stroke="#d2e400" fill="#d2e400" fill-opacity="0.2" fill-rule="evenodd"/><path class="svg-region-Ol" d="M 648.500 253.696 C 643.743 254.239, 624.345 257.822, 614.500 259.975 C 609.550 261.058, 602.125 262.441, 598 263.049 C 593.875 263.656, 586.675 265.020, 582 266.078 C 577.325 267.137, 572.112 268.002, 570.415 268.001 C 567.058 268, 555.084 271.610, 553.550 273.086 C 553.027 273.589, 551.596 274, 550.368 274 C 546.595 274, 530.522 282.454, 521.276 289.302 C 510.538 297.254, 499.861 308.070, 488.839 322.161 C 484.253 328.024, 478.475 335.378, 476 338.502 C 473.525 341.626, 470.287 346.054, 468.804 348.341 C 465.843 352.909, 452 380.674, 452 382.045 C 452 382.516, 450.679 387.086, 449.065 392.201 C 447.450 397.315, 444.863 408.025, 443.315 416 C 440.585 430.064, 440.502 431.446, 440.555 462 C 440.613 495.591, 440.228 491.578, 446.510 524 C 454.184 563.604, 460.258 578.650, 477.032 599.599 C 499.948 628.220, 511.907 636.630, 533.219 639.107 C 545.322 640.514, 561.721 639.265, 575 635.926 C 579.125 634.889, 584.525 633.541, 587 632.932 C 601.842 629.278, 614.766 622.993, 626.408 613.767 C 630.757 610.320, 642.946 598.946, 653.495 588.492 C 670.611 571.529, 672.908 568.861, 674.838 563.704 C 676.027 560.526, 677 557.498, 677 556.976 C 677 556.454, 679.388 550.958, 682.307 544.763 C 685.226 538.568, 688.666 530.350, 689.952 526.500 C 691.237 522.650, 692.899 518.082, 693.645 516.349 C 694.390 514.616, 695 512.353, 695 511.321 C 695 510.289, 695.593 508.557, 696.318 507.473 C 697.043 506.388, 698.456 503.250, 699.458 500.500 C 700.461 497.750, 701.669 495.002, 702.144 494.393 C 702.619 493.785, 703.422 491.310, 703.929 488.893 C 704.437 486.477, 706.435 479.775, 708.369 474 C 719.161 441.779, 723.614 426.573, 723.890 421 C 724.121 416.344, 725.806 410.238, 727.076 409.453 C 727.759 409.031, 727.766 408.423, 727.095 407.615 C 726.415 406.795, 726.585 404.982, 727.625 401.962 C 728.642 399.009, 729.103 394.323, 728.998 388.008 C 728.910 382.779, 729.228 376.700, 729.704 374.500 C 730.623 370.249, 728.709 350.134, 727.286 349.081 C 726.854 348.762, 726.413 345.907, 726.307 342.739 C 726.081 335.991, 722.933 325.947, 718.398 317.500 C 716.626 314.200, 714.447 309.305, 713.556 306.621 C 711.932 301.730, 707.019 290.909, 700.166 277.127 C 696.120 268.990, 690.390 261.849, 686.213 259.739 C 684.721 258.985, 682.600 257.883, 681.500 257.291 C 676.344 254.513, 658.429 252.562, 648.500 253.696" stroke="#aa444d" fill="#aa444d" fill-opacity="0.2" fill-rule="evenodd"/><path class="svg-region-Or" d="M 1209.500 227 C 1209.160 227.550, 1207.335 228, 1205.444 228 C 1202.919 228, 1200.977 228.930, 1198.132 231.500 C 1196.001 233.425, 1193.971 235, 1193.620 235 C 1192.175 235, 1182.184 244.628, 1177 251.016 C 1175.075 253.388, 1173.042 255.818, 1172.483 256.415 C 1170.546 258.480, 1164 268.008, 1164 268.760 C 1164 269.667, 1159.444 278.490, 1157.163 282 C 1155.150 285.098, 1153.035 290.885, 1153.015 293.349 C 1153.007 294.366, 1152.374 296.616, 1151.609 298.349 C 1148.298 305.847, 1147.136 314.403, 1146.384 336.833 C 1145.942 350.005, 1146.163 354.649, 1147.527 360.833 C 1148.457 365.050, 1149.630 369.010, 1150.134 369.633 C 1150.728 370.367, 1150.521 370.970, 1149.547 371.344 C 1148.339 371.807, 1148.136 373.317, 1148.516 379.016 C 1148.776 382.918, 1149.441 386.956, 1149.994 387.990 C 1150.548 389.023, 1151 394.413, 1151 399.966 C 1151 406.085, 1151.524 411.332, 1152.329 413.282 C 1153.060 415.052, 1154.229 420.100, 1154.927 424.500 C 1155.625 428.900, 1156.583 433.850, 1157.055 435.500 C 1157.528 437.150, 1158.399 444.761, 1158.991 452.413 C 1159.584 460.066, 1161.014 470.416, 1162.171 475.413 C 1163.327 480.411, 1164.619 486.975, 1165.040 490 C 1165.936 496.424, 1168.411 506.032, 1169.877 508.770 C 1170.440 509.822, 1171.516 512.441, 1172.269 514.591 C 1174.398 520.672, 1181.999 531.717, 1190.111 540.516 C 1204.053 555.639, 1213.337 568.112, 1224 586.044 C 1228.707 593.959, 1235.966 600.571, 1243.500 603.804 C 1247.350 605.456, 1252.075 607.274, 1254 607.843 C 1255.925 608.412, 1259.525 609.637, 1262 610.566 C 1268.950 613.174, 1287.468 615.954, 1298 615.971 C 1309.252 615.989, 1322.303 613.175, 1328.980 609.292 C 1348.607 597.877, 1368.842 577.106, 1377.975 559 C 1384.918 545.236, 1388.634 522.859, 1388.934 493 C 1389.009 485.575, 1389.704 472.075, 1390.479 463 C 1392.503 439.279, 1393.304 408.004, 1392.155 397.492 C 1390.840 385.452, 1385.689 371.614, 1374.736 350.702 C 1373.355 348.064, 1371.552 345.139, 1370.731 344.202 C 1369.910 343.266, 1367.898 339.769, 1366.260 336.431 C 1364.622 333.093, 1361.032 327.018, 1358.283 322.931 C 1355.534 318.844, 1350.433 310.775, 1346.948 305 C 1338.395 290.826, 1330.237 279.501, 1324.367 273.649 C 1319.831 269.128, 1307.432 259.808, 1300.515 255.718 C 1295.425 252.709, 1275.044 243, 1273.818 243 C 1273.182 243, 1270.270 241.650, 1267.346 240 C 1264.422 238.350, 1261.536 237, 1260.933 237 C 1260.329 237, 1256.670 235.611, 1252.802 233.913 C 1242.100 229.216, 1228.132 226, 1218.431 226 C 1213.859 226, 1209.840 226.450, 1209.500 227" stroke="#aa444d" fill="#aa444d" fill-opacity="0.2" fill-rule="evenodd"/>
    </svg>