<svg xmlns="http://www.w3.org/2000/svg" width="1921" height="1027" viewBox="0 0 1921 1027" version="1.1">
    <path class="svg-region-Ol" d="M 641.932 244.443 C 639.420 245.165, 636.495 246.183, 635.432 246.706 C 622.264 253.185, 619.290 254.821, 617.175 256.750 C 615.818 257.988, 614.086 259, 613.325 259 C 612.565 259, 609.143 260.414, 605.721 262.142 C 599.298 265.387, 590.924 268.716, 580.500 272.170 C 577.200 273.264, 573.150 274.770, 571.500 275.518 C 569.850 276.266, 564 277.837, 558.500 279.009 C 534.560 284.113, 521.155 289.890, 504 302.496 C 495.783 308.534, 491.087 313.350, 481.568 325.500 C 476.828 331.550, 470.970 338.992, 468.550 342.039 C 466.130 345.085, 463.569 348.910, 462.860 350.539 C 462.151 352.167, 460.584 355.112, 459.379 357.082 C 454.820 364.532, 448.973 376.878, 447.070 383.072 C 440.201 405.431, 437.378 433.804, 438.321 471 C 439.560 519.845, 440.959 539.242, 444.163 552 C 445.610 557.762, 453.421 573.742, 456.383 577 C 457.633 578.375, 460.316 581.821, 462.345 584.658 C 469.857 595.158, 492.909 613.665, 508.500 621.712 C 511.800 623.415, 519 626.245, 524.500 628.001 C 543.339 634.013, 566.733 633.094, 590.715 625.400 C 595.510 623.861, 611.036 612.676, 618.908 605.088 C 621.812 602.290, 624.595 600, 625.094 600 C 625.592 600, 626 599.516, 626 598.925 C 626 597.019, 640.069 584.149, 651.934 575.200 C 662.648 567.120, 678 552.706, 678 550.728 C 678 550.254, 679.125 548.392, 680.500 546.589 C 681.875 544.786, 683 542.846, 683 542.278 C 683 541.710, 683.645 540.710, 684.433 540.055 C 685.222 539.401, 686.319 536.983, 686.871 534.683 C 689.444 523.966, 690.166 521.513, 690.891 521.025 C 692.153 520.176, 694.812 508.233, 696.019 497.994 C 697.042 489.307, 701.412 470.292, 703.867 463.847 C 704.422 462.388, 705.386 458.338, 706.007 454.847 C 707.700 445.343, 710.805 435.595, 715.513 425 C 717.836 419.775, 720.950 411.225, 722.434 406 C 723.918 400.775, 726.438 392.225, 728.035 387 C 734.076 367.226, 735.344 359.074, 734.702 344.120 C 734.047 328.869, 732.412 321.308, 727.865 312.500 C 722.528 302.164, 715.907 291.639, 712.453 288 C 710.626 286.075, 708.131 281.800, 706.908 278.500 C 705.068 273.532, 703.035 270.846, 695.093 262.884 C 686.665 254.436, 681.546 250.483, 672 245.048 C 668.567 243.094, 648.065 242.681, 641.932 244.443" stroke="#aa444d" fill="#aa444d" fill-opacity="0.2" fill-rule="evenodd"/><path class="svg-region-Or" d="M 1201.525 214.814 C 1198.789 214.987, 1196.089 215.490, 1195.525 215.934 C 1194.961 216.377, 1192.813 217.283, 1190.750 217.947 C 1188.688 218.612, 1187 219.487, 1187 219.893 C 1187 220.299, 1185.257 221.611, 1183.127 222.809 C 1174.532 227.639, 1150.760 257.077, 1149.401 264.573 C 1149.132 266.056, 1148.177 268.671, 1147.278 270.385 C 1146.379 272.098, 1145.331 275.300, 1144.948 277.500 C 1144.565 279.700, 1143.444 284.200, 1142.457 287.500 C 1141.470 290.800, 1140.497 296.650, 1140.295 300.500 C 1140.093 304.350, 1139.510 308.400, 1139 309.500 C 1138.491 310.600, 1137.865 313.627, 1137.610 316.227 C 1137.355 318.826, 1136.881 321.383, 1136.557 321.908 C 1136.233 322.432, 1136.410 323.136, 1136.952 323.470 C 1137.493 323.805, 1137.880 325.565, 1137.812 327.382 C 1137.744 329.199, 1138.010 331.206, 1138.403 331.843 C 1138.796 332.479, 1138.615 333, 1138 333 C 1137.374 333, 1137.214 333.538, 1137.637 334.222 C 1138.053 334.894, 1138.270 337.144, 1138.120 339.222 C 1137.970 341.300, 1138.235 343, 1138.710 343 C 1139.185 343, 1139.672 347.837, 1139.792 353.750 C 1140.214 374.392, 1144.799 413.203, 1148.033 423.500 C 1149.069 426.800, 1150.160 431.525, 1150.457 434 C 1151.592 443.445, 1154.071 459.946, 1156.017 471 C 1157.130 477.325, 1158.509 485.197, 1159.082 488.494 C 1159.654 491.791, 1161.032 496.516, 1162.145 498.994 C 1163.257 501.472, 1164.512 507.163, 1164.934 511.640 C 1165.589 518.604, 1166.299 520.819, 1169.850 526.978 C 1172.133 530.937, 1174 534.638, 1174 535.204 C 1174 536.867, 1186.075 550, 1187.603 550 C 1188.371 550, 1189 550.700, 1189 551.556 C 1189 552.411, 1191.879 555.899, 1195.397 559.306 C 1198.916 562.713, 1205.333 568.925, 1209.656 573.112 C 1213.980 577.299, 1221.339 583.262, 1226.009 586.364 C 1230.679 589.466, 1235.625 592.790, 1237 593.752 C 1238.375 594.713, 1241.075 596.571, 1243 597.880 C 1244.925 599.189, 1249.425 602.800, 1253 605.905 C 1270.471 621.076, 1272.763 622.478, 1289.807 628.412 C 1299.682 631.849, 1300.686 632, 1313.736 632 C 1328.791 632, 1331.784 631.326, 1339.849 626.124 C 1354.006 616.992, 1371.676 587.526, 1378.002 562.500 C 1378.976 558.650, 1380.682 553.025, 1381.795 550 C 1388.278 532.370, 1392.592 491.796, 1391.576 458 C 1390.779 431.509, 1389.621 419.128, 1385.403 392 C 1383.900 382.335, 1372.550 336.151, 1370.535 331.500 C 1369.820 329.850, 1368.652 326.925, 1367.940 325 C 1366.279 320.510, 1357.942 303.521, 1355.244 299.128 C 1351.989 293.828, 1344.014 284.160, 1338 278.225 C 1319.291 259.760, 1313.970 254.977, 1309.500 252.601 C 1306.750 251.139, 1302.700 248.916, 1300.500 247.660 C 1290.335 241.859, 1282.125 237.720, 1278 236.316 C 1275.525 235.474, 1271.250 233.770, 1268.500 232.530 C 1265.750 231.289, 1262.023 229.702, 1260.217 229.002 C 1258.411 228.303, 1254.586 226.318, 1251.717 224.592 C 1242.176 218.854, 1236.824 217.119, 1224.888 215.897 C 1211.655 214.541, 1208.306 214.386, 1201.525 214.814" stroke="#aa444d" fill="#aa444d" fill-opacity="0.2" fill-rule="evenodd"/>
    </svg>