<svg xmlns="http://www.w3.org/2000/svg" width="1921" height="1027" viewBox="0 0 1921 1027" version="1.1">
    <path class="svg-region-B" d="M 984.326 557.576 C 978.552 559.706, 972.539 567.855, 969.375 577.837 C 968.040 582.052, 966.460 586.850, 965.865 588.500 C 965.271 590.150, 964.426 594.875, 963.988 599 C 962.647 611.621, 961.284 615.568, 956.823 619.740 C 952.358 623.916, 945 634.369, 945 636.535 C 945 637.302, 943.933 639.858, 942.629 642.215 C 939.455 647.953, 937.918 657.657, 938.546 668 C 939.805 688.726, 946.916 697.008, 962.146 695.483 C 967.963 694.901, 969.590 694.236, 975.181 690.159 C 978.694 687.597, 986.503 679.892, 992.534 673.037 C 998.565 666.182, 1005.134 659.091, 1007.131 657.278 C 1009.127 655.466, 1012.498 650.724, 1014.621 646.742 C 1018.441 639.576, 1018.484 639.372, 1018.695 627.272 C 1018.827 619.765, 1019.506 613.036, 1020.455 609.841 C 1022.345 603.475, 1022.555 582.586, 1020.788 576.688 C 1019.349 571.883, 1011.324 562.929, 1005.210 559.306 C 999.802 556.101, 990.429 555.324, 984.326 557.576" stroke="#e23b33" fill="#e23b33" fill-opacity="0.2" fill-rule="evenodd"/><path class="svg-region-Ol" d="M 624.425 237.011 C 614.896 237.687, 604.704 239.564, 602.500 241.050 C 601.950 241.421, 600.150 242.045, 598.500 242.438 C 594.230 243.453, 583.968 248.408, 573.500 254.508 C 563.904 260.100, 555.748 263.924, 536.420 271.892 C 520.395 278.498, 513.029 281.758, 510 283.586 C 508.625 284.416, 505.644 285.933, 503.376 286.958 C 501.108 287.983, 497.058 290.433, 494.376 292.404 C 491.694 294.375, 487.556 297.416, 485.181 299.163 C 475.219 306.490, 457.287 335.346, 453.902 349.500 C 453.245 352.250, 451.465 356.975, 449.949 360 C 448.432 363.025, 446.505 367.750, 445.667 370.500 C 444.115 375.592, 435.474 400.271, 434.286 403 C 433.928 403.825, 433.056 406.975, 432.349 410 C 431.642 413.025, 429.482 421.575, 427.548 429 C 421.150 453.571, 420.781 457.422, 420.789 499.500 C 420.795 533.081, 421.033 538.908, 422.833 549.606 C 428.173 581.333, 433.921 593.261, 452.904 612 C 467.737 626.643, 486.294 638.914, 503.687 645.581 C 514.035 649.548, 515.573 649.924, 528.500 651.645 C 543.922 653.697, 560.078 652.949, 572.018 649.630 C 592.054 644.059, 600.367 638.247, 624.929 612.638 C 633.407 603.798, 637.621 600.582, 647.500 595.411 C 651.350 593.396, 656.797 590.229, 659.604 588.374 C 662.410 586.518, 665.165 585, 665.724 585 C 666.283 585, 669.661 582.080, 673.230 578.510 C 680.302 571.439, 687.513 561.299, 692.328 551.654 C 694.018 548.269, 696.842 543.610, 698.603 541.301 C 702.149 536.651, 704.349 530.685, 705.998 521.242 C 706.599 517.800, 708.443 511.969, 710.096 508.285 C 714.809 497.783, 717.480 490.732, 723.409 473.149 C 726.441 464.157, 729.328 456.282, 729.823 455.649 C 730.319 455.017, 731.031 453.217, 731.406 451.650 C 731.782 450.082, 733 447.566, 734.115 446.059 C 735.229 444.551, 736.571 441.403, 737.097 439.062 C 737.623 436.721, 740.107 430.326, 742.617 424.851 C 748.051 412.997, 749.885 403.894, 750.647 385 C 750.946 377.575, 751.151 370.600, 751.101 369.500 C 751.052 368.400, 750.781 361.433, 750.500 354.018 C 749.925 338.857, 748.121 327.782, 745.066 320.654 C 743.930 318.003, 743 315.307, 743 314.662 C 743 314.018, 740.409 308.992, 737.243 303.495 C 731.085 292.805, 729.463 289.636, 725.715 280.986 C 722.312 273.129, 706.490 258.837, 694.500 252.789 C 692.300 251.679, 689.068 249.698, 687.317 248.386 C 685.566 247.074, 683.316 245.984, 682.317 245.965 C 681.318 245.945, 679.375 245.286, 678 244.500 C 676.625 243.714, 674.115 243.055, 672.422 243.035 C 670.730 243.016, 666.680 241.920, 663.422 240.600 C 657.920 238.371, 642.750 235.817, 637 236.151 C 635.625 236.231, 629.966 236.618, 624.425 237.011" stroke="#aa444d" fill="#aa444d" fill-opacity="0.2" fill-rule="evenodd"/><path class="svg-region-Or" d="M 1216.877 200.429 C 1216.534 200.787, 1213.698 201.265, 1210.574 201.493 C 1207.450 201.720, 1203.499 202.603, 1201.793 203.453 C 1200.088 204.304, 1197.968 205, 1197.082 205 C 1196.195 205, 1193.777 205.907, 1191.708 207.016 C 1189.639 208.125, 1185.608 209.534, 1182.750 210.147 C 1177.632 211.245, 1174.426 213.330, 1165.659 221.265 C 1163.372 223.335, 1160.375 225.319, 1159 225.672 C 1150.828 227.774, 1133 253.085, 1133 262.586 C 1133 263.986, 1132.567 265.940, 1132.039 266.928 C 1130.801 269.241, 1129.668 274.802, 1129.784 278 C 1129.833 279.375, 1128.545 284.692, 1126.920 289.816 C 1124.358 297.894, 1123.892 301.179, 1123.412 314.547 C 1123.107 323.025, 1123.213 330.533, 1123.647 331.231 C 1124.080 331.929, 1124.524 334.750, 1124.633 337.500 C 1124.742 340.250, 1125.291 346.100, 1125.852 350.500 C 1126.414 354.900, 1127.392 363, 1128.025 368.500 C 1128.659 374, 1129.591 379.001, 1130.097 379.613 C 1130.603 380.225, 1131.486 383.375, 1132.059 386.613 C 1132.632 389.851, 1133.960 395.200, 1135.010 398.500 C 1136.060 401.800, 1137.418 407.200, 1138.027 410.500 C 1138.636 413.800, 1139.743 417.712, 1140.488 419.194 C 1141.233 420.675, 1141.615 422.755, 1141.338 423.816 C 1141.061 424.877, 1141.723 427.714, 1142.810 430.122 C 1143.897 432.530, 1145.310 437.200, 1145.951 440.500 C 1146.592 443.800, 1147.967 448.555, 1149.006 451.066 C 1151.212 456.392, 1152.683 464.541, 1153.964 478.522 C 1155.728 497.769, 1163.365 512.512, 1175.210 519.537 C 1181.786 523.437, 1184.955 526.491, 1190.219 534 C 1193.712 538.983, 1200.914 546.316, 1208.522 552.635 C 1211.260 554.910, 1215.176 558.356, 1217.223 560.293 C 1219.271 562.231, 1221.296 563.970, 1221.723 564.158 C 1222.151 564.346, 1224.283 566.750, 1226.461 569.500 C 1228.640 572.250, 1232.955 577.425, 1236.050 581 C 1239.145 584.575, 1242.321 588.464, 1243.107 589.642 C 1247.031 595.520, 1261.039 609.573, 1268.780 615.397 C 1273.576 619.005, 1278.379 622.642, 1279.453 623.479 C 1280.528 624.315, 1281.785 625, 1282.248 625 C 1282.711 625, 1287.743 627.256, 1293.431 630.013 C 1299.118 632.770, 1306.411 635.520, 1309.636 636.124 C 1318 637.691, 1330.109 636.626, 1339.106 633.532 C 1353.482 628.588, 1366.719 614.434, 1377.813 592.146 C 1383.671 580.375, 1390 565.318, 1390 563.151 C 1390 562.503, 1390.430 561.191, 1390.956 560.236 C 1393.177 556.205, 1397.169 538.981, 1399.514 523.318 C 1402.383 504.153, 1403.446 479.956, 1402.012 466.500 C 1401.484 461.550, 1400.118 447.600, 1398.976 435.500 C 1396.482 409.083, 1390.369 375.895, 1383.965 354 C 1381.993 347.257, 1373.905 315.256, 1371.960 306.500 C 1371.349 303.750, 1370.250 300.150, 1369.517 298.500 C 1368.785 296.850, 1366.951 292.125, 1365.442 288 C 1354.446 257.937, 1339.977 237.275, 1319.361 222.197 C 1305.269 211.890, 1292.610 208, 1273.160 208 C 1260.498 208, 1249.266 206.243, 1240 202.813 C 1234.592 200.811, 1218.136 199.114, 1216.877 200.429" stroke="#aa444d" fill="#aa444d" fill-opacity="0.2" fill-rule="evenodd"/>
    </svg>