<svg xmlns="http://www.w3.org/2000/svg" width="1921" height="1027" viewBox="0 0 1921 1027" version="1.1">
    <path class="svg-region-B" d="M 977.355 522.981 C 967.998 527.656, 966.743 530.639, 965.779 550.500 C 964.429 578.322, 964.237 579.004, 953.445 594.500 C 947.865 602.512, 939 619.186, 939 621.668 C 939 622.762, 937.655 625.688, 936.011 628.170 C 933.990 631.221, 933.016 633.948, 933.003 636.591 C 932.992 638.741, 932.726 644.278, 932.411 648.894 C 931.991 655.059, 932.237 658.379, 933.339 661.394 C 935.229 666.565, 938.995 682.967, 939.016 686.124 C 939.041 689.686, 943.089 696.144, 946.913 698.720 C 951.867 702.059, 963.156 701.974, 969.768 698.549 C 972.371 697.201, 975.625 695.672, 977 695.150 C 984.575 692.274, 1002.613 677.583, 1005.556 671.891 C 1006.423 670.216, 1008.677 666.820, 1010.566 664.346 C 1012.455 661.871, 1014 659.226, 1014 658.467 C 1014 657.709, 1015.283 654.912, 1016.851 652.252 C 1019.711 647.401, 1022.288 641.111, 1026.377 629 C 1027.584 625.425, 1029.207 621.375, 1029.982 620 C 1031.014 618.170, 1031.407 613.478, 1031.446 602.500 L 1031.500 587.500 1025.878 576 C 1019.251 562.443, 1016.384 553.913, 1015.462 545 C 1014.559 536.279, 1011.581 529.653, 1006.673 525.453 C 999.125 518.991, 987.329 517.996, 977.355 522.981 M 851.655 541.406 C 846.847 543.186, 843.711 546.099, 840.318 551.939 C 838.861 554.448, 836.169 558.268, 834.336 560.428 C 828.938 566.790, 822.369 581.379, 820.120 592 C 819.014 597.225, 817.435 603.918, 816.612 606.874 C 815.083 612.366, 815.583 622.542, 817.833 631.716 C 820.234 641.509, 821.211 650.148, 820.645 656.576 C 818.728 678.308, 818.744 681.333, 820.820 689.815 C 823.285 699.886, 824.789 702.342, 830.180 705.092 C 833.667 706.871, 835.947 707.188, 844.429 707.077 C 849.984 707.003, 856.772 706.358, 859.514 705.643 C 862.966 704.743, 865.577 704.630, 868 705.277 C 878.853 708.172, 892.280 702.265, 902.945 689.903 C 908.148 683.874, 908.931 682.403, 909.541 677.516 C 910.830 667.202, 908.540 648.100, 905.224 641.500 C 903.069 637.210, 897.185 629.451, 892.315 624.476 C 887.952 620.019, 883.153 611.352, 881.254 604.500 C 879.543 598.328, 877.988 585.299, 877.972 577 C 877.949 565.841, 875.744 552.940, 873.138 548.723 C 868.802 541.707, 859.447 538.521, 851.655 541.406" stroke="#e23b33" fill="#e23b33" fill-opacity="0.2" fill-rule="evenodd"/><path class="svg-region-Ol" d="M 600 213.652 C 582.697 218.341, 579.729 219.832, 552.500 237.517 C 549.750 239.303, 543.900 242.661, 539.500 244.978 C 535.100 247.295, 530.825 249.777, 530 250.493 C 529.175 251.210, 526.250 252.826, 523.500 254.086 C 520.750 255.345, 516.935 257.641, 515.022 259.188 C 513.109 260.735, 511.192 262, 510.762 262 C 507.954 262, 483.145 282.590, 474.013 292.500 C 470.465 296.350, 467.003 300.078, 466.318 300.784 C 463.695 303.492, 453.533 322.719, 452.372 327.173 C 451.702 329.743, 450.716 332.668, 450.181 333.673 C 449.646 334.678, 448.434 338.650, 447.486 342.500 C 446.538 346.350, 445.214 350.175, 444.543 351 C 443.872 351.825, 442.564 355.200, 441.636 358.500 C 440.709 361.800, 438.850 368.100, 437.505 372.500 C 434.507 382.311, 430.316 398.948, 428.311 409 C 427.488 413.125, 425.886 419.875, 424.751 424 C 423.616 428.125, 422.527 432.625, 422.330 434 C 422.133 435.375, 421.588 438.750, 421.119 441.500 C 417.996 459.823, 417.045 467.948, 417.788 469.956 C 418.628 472.227, 417.982 478.364, 416.170 485.333 C 414.843 490.435, 416.420 530.604, 418.414 542.500 C 421.383 560.211, 421.836 562.585, 423.477 569 C 425.718 577.765, 427.679 583.704, 429.918 588.500 C 430.944 590.700, 432.573 594.750, 433.536 597.500 C 435.384 602.774, 439.252 610.147, 441.929 613.500 C 442.808 614.600, 444.371 617.075, 445.404 619 C 448.092 624.011, 456.781 635.516, 463.090 642.419 C 470.870 650.931, 484.179 659.194, 496.500 663.163 C 504.233 665.653, 523.238 666.679, 531.500 665.051 C 534.800 664.401, 538.625 663.688, 540 663.467 C 541.375 663.246, 544.826 662.686, 547.669 662.222 C 550.512 661.759, 553.437 660.905, 554.169 660.326 C 554.901 659.747, 556.175 659.264, 557 659.253 C 565.387 659.143, 601.963 643.816, 609.123 637.411 C 611.607 635.189, 616 628.526, 616 626.979 C 616 626.396, 616.817 624.700, 617.815 623.210 C 618.814 621.719, 620.539 619.150, 621.651 617.500 C 622.762 615.850, 623.958 613.375, 624.308 612 C 625.151 608.689, 633.591 600.141, 636.816 599.331 C 638.219 598.979, 640.522 598.088, 641.933 597.352 C 643.345 596.615, 645.863 596.010, 647.528 596.006 C 650.483 596, 656.227 593.394, 672.500 584.678 C 678.290 581.577, 680.951 579.504, 682.134 577.175 C 683.033 575.405, 685.216 572.954, 686.985 571.728 C 690.429 569.343, 691.083 568.307, 695.966 557.500 C 697.705 553.650, 699.774 549.306, 700.564 547.846 C 701.354 546.386, 702 544.430, 702 543.500 C 702 542.570, 702.846 540.614, 703.879 539.154 C 704.913 537.694, 706.058 534.025, 706.425 531 C 706.792 527.975, 707.524 523.475, 708.053 521 C 709.246 515.414, 710.120 506.797, 710.488 497 C 710.842 487.579, 714.387 472.443, 718.183 464.154 C 719.781 460.663, 721.348 456.511, 721.665 454.926 C 721.982 453.341, 722.862 451.530, 723.621 450.900 C 724.379 450.270, 725 449, 725 448.078 C 725 447.155, 725.442 445.958, 725.982 445.418 C 726.522 444.878, 728.254 441.975, 729.830 438.968 C 731.406 435.960, 735.870 427.875, 739.749 421 C 743.627 414.125, 747.776 405.350, 748.968 401.500 C 750.160 397.650, 752.062 392.250, 753.194 389.500 C 758.089 377.611, 759.228 362.445, 756.460 346 C 755.674 341.325, 754.153 330.750, 753.081 322.500 C 752.010 314.250, 750.874 306.054, 750.559 304.287 C 749.456 298.114, 742.929 283.613, 737.639 275.580 C 732.386 267.605, 719.894 254.880, 713 250.482 C 711.075 249.255, 708.073 246.956, 706.328 245.375 C 696.898 236.828, 690.370 232.168, 683.319 228.951 C 673.784 224.600, 673 224.281, 668.500 222.938 C 666.300 222.281, 662.700 220.951, 660.500 219.983 C 652.777 216.582, 649.542 215.884, 630.500 213.511 C 615.725 211.670, 607.166 211.710, 600 213.652" stroke="#aa444d" fill="#aa444d" fill-opacity="0.2" fill-rule="evenodd"/><path class="svg-region-Or" d="M 1194.500 187.947 C 1191.200 188.899, 1186.250 190.856, 1183.500 192.296 C 1180.750 193.736, 1176.659 195.787, 1174.409 196.853 C 1172.159 197.920, 1169.459 199.901, 1168.409 201.256 C 1167.359 202.611, 1164.475 205.087, 1162 206.758 C 1155.497 211.149, 1147.615 218.843, 1144.592 223.750 C 1143.153 226.088, 1141.531 228, 1140.987 228 C 1140.444 228, 1140 228.873, 1140 229.941 C 1140 231.009, 1139.580 232.142, 1139.066 232.459 C 1136.893 233.802, 1128 254.676, 1128 258.433 C 1128 259.625, 1127.453 261.147, 1126.785 261.815 C 1126.117 262.483, 1125.268 265.610, 1124.899 268.765 C 1124.529 271.919, 1123.488 279, 1122.585 284.500 C 1121.681 290, 1120.735 296.525, 1120.481 299 C 1119.824 305.405, 1118.006 316.232, 1117.290 318 C 1116.956 318.825, 1116.754 319.839, 1116.842 320.254 C 1116.930 320.668, 1116.282 325.393, 1115.401 330.754 C 1114.333 337.259, 1113.970 343.765, 1114.310 350.319 C 1114.777 359.328, 1115.169 360.856, 1119.066 368.819 C 1127.244 385.538, 1130.729 393.577, 1133.879 403 C 1135.626 408.225, 1137.487 413.272, 1138.015 414.216 C 1138.543 415.160, 1139.392 417.635, 1139.902 419.716 C 1140.413 421.797, 1141.765 426.746, 1142.909 430.714 C 1144.411 435.930, 1145.267 443.135, 1145.997 456.714 C 1147.848 491.172, 1149.039 504.860, 1150.562 509.175 C 1151.392 511.529, 1152.273 515.445, 1152.519 517.877 C 1152.765 520.310, 1153.762 523.406, 1154.733 524.757 C 1155.705 526.108, 1157.483 528.832, 1158.685 530.809 C 1160.982 534.587, 1175.828 549, 1177.424 549 C 1179.517 549, 1189.817 556.989, 1197.163 564.311 C 1201.473 568.606, 1205 572.320, 1205 572.563 C 1205 572.806, 1206.912 574.690, 1209.250 576.748 C 1211.588 578.807, 1215.300 582.483, 1217.500 584.917 C 1219.700 587.352, 1230.611 598.482, 1241.747 609.651 C 1264.619 632.591, 1266.751 634.003, 1284.500 637.972 C 1290 639.202, 1295.625 640.592, 1297 641.061 C 1310.563 645.688, 1331.792 643.459, 1346.680 635.845 C 1359.041 629.524, 1370.499 619.199, 1377.027 608.500 C 1384.472 596.298, 1390.835 575.898, 1392.934 557.500 C 1393.561 552, 1394.318 545.700, 1394.615 543.500 C 1394.913 541.300, 1395.559 524.200, 1396.052 505.500 C 1397.025 468.578, 1398.063 448.728, 1400.534 419.771 C 1403.642 383.365, 1402.941 356.808, 1398.020 324.500 C 1395.166 305.759, 1384.724 280.320, 1372.250 261.716 C 1359.288 242.385, 1335.293 223.807, 1308 211.973 C 1302.775 209.708, 1297.150 207.250, 1295.500 206.512 C 1290.110 204.102, 1261.651 193.165, 1255.295 191.062 C 1245.235 187.733, 1235.879 186.474, 1229.289 187.562 C 1225.257 188.228, 1221.982 188.165, 1218.500 187.355 C 1211.361 185.695, 1201.464 185.939, 1194.500 187.947" stroke="#aa444d" fill="#aa444d" fill-opacity="0.2" fill-rule="evenodd"/>
    </svg>