<svg xmlns="http://www.w3.org/2000/svg" width="1921" height="1027" viewBox="0 0 1921 1027" version="1.1">
    <path class="svg-region-B" d="M 974.701 487.790 C 972.139 490.465, 969.013 499.045, 963.880 517.500 C 962.809 521.350, 961.071 527.425, 960.019 531 C 958.413 536.454, 958.137 540.292, 958.303 554.846 C 958.411 564.386, 958.163 572.400, 957.750 572.655 C 957.337 572.910, 957 573.849, 957 574.742 C 957 576.319, 948.643 590.886, 942.510 600 C 938.265 606.308, 935.677 612.019, 934.127 618.500 C 930.655 633.016, 930.207 663.554, 933.319 673.528 C 936.998 685.316, 949.682 700.708, 957.508 702.881 C 962.871 704.369, 968.379 704.286, 972.282 702.657 C 974.052 701.918, 977.221 700.991, 979.325 700.597 C 983.470 699.821, 988.582 697.247, 993.813 693.301 C 995.635 691.926, 999.712 689.789, 1002.872 688.550 C 1011.252 685.266, 1021.803 677.829, 1025.059 672.911 C 1027.938 668.563, 1028.516 666.626, 1034.137 642.500 C 1037.217 629.282, 1037.393 627.495, 1037.292 610.500 C 1037.206 596.221, 1036.834 591.570, 1035.491 588 C 1034.559 585.525, 1033.374 579.900, 1032.857 575.500 C 1032.339 571.100, 1030.972 564.125, 1029.818 560 C 1028.663 555.875, 1027.400 549.322, 1027.011 545.437 C 1025.558 530.956, 1012.697 507.997, 999.836 496.928 C 995.893 493.534, 991.577 489.462, 990.244 487.879 C 988.145 485.384, 987.126 485, 982.598 485 C 978.187 485, 976.959 485.434, 974.701 487.790 M 874.462 511.250 C 868.834 515.760, 858.407 523.037, 854.716 525.031 C 849.192 528.016, 836.318 540.994, 834.452 545.460 C 833.569 547.575, 832.481 552.274, 832.036 555.903 C 830.269 570.313, 826.062 587.130, 822.506 594 C 821.224 596.475, 819.865 600.300, 819.484 602.500 C 819.104 604.700, 818.164 608.428, 817.396 610.785 C 815.835 615.577, 815.614 630.792, 816.959 641 C 818.696 654.189, 820.012 660.961, 821.465 664.190 C 822.285 666.010, 823.653 670.021, 824.506 673.103 C 825.984 678.444, 831.910 687, 834.131 687 C 834.668 687, 838.209 689.025, 842 691.500 C 845.791 693.975, 849.097 696, 849.346 696 C 849.595 696, 852.142 697.576, 855.005 699.503 C 857.868 701.430, 863.426 703.942, 867.355 705.086 C 876.291 707.686, 884.555 710.850, 888.640 713.235 C 890.368 714.243, 893.968 715.320, 896.640 715.627 C 900.682 716.092, 902.089 715.785, 905 713.804 C 911.242 709.557, 914.281 702.154, 916.003 687 C 916.472 682.875, 917.613 677.027, 918.539 674.005 C 919.936 669.446, 920.130 665.783, 919.675 652.505 C 919.374 643.702, 918.944 634.475, 918.720 632 C 918.092 625.065, 912.516 615.500, 902.696 604.513 C 897.787 599.019, 893.372 593.478, 892.885 592.197 C 892.398 590.917, 892 583.404, 892 575.500 C 892 566.158, 891.447 558.571, 890.420 553.815 C 889.411 549.142, 888.761 540.464, 888.620 529.783 C 888.499 520.589, 888.197 512.902, 887.950 512.702 C 882.657 508.410, 878.557 507.968, 874.462 511.250" stroke="#e23b33" fill="#e23b33" fill-opacity="0.2" fill-rule="evenodd"/><path class="svg-region-Ol" d="M 625 211.067 C 620.875 211.499, 615.925 212.352, 614 212.961 C 612.075 213.570, 608.700 214.302, 606.500 214.588 C 604.300 214.873, 601.600 215.484, 600.500 215.944 C 592.979 219.090, 581.806 223.003, 580.301 223.018 C 579.310 223.028, 576.552 224.357, 574.171 225.970 C 571.790 227.584, 567.290 229.636, 564.171 230.531 C 556.410 232.757, 538.049 240.094, 536.591 241.552 C 535.937 242.206, 533.849 243.537, 531.951 244.510 C 530.053 245.483, 528.275 246.585, 528 246.958 C 527.725 247.332, 525.573 248.396, 523.218 249.324 C 519.194 250.908, 506.094 258.632, 505 260.066 C 504.725 260.426, 503.043 261.467, 501.263 262.380 C 499.482 263.292, 492.858 267.393, 486.543 271.493 C 467.843 283.634, 447.048 304.946, 440.288 318.897 C 438.795 321.979, 437.223 324.649, 436.796 324.830 C 435.915 325.204, 434.044 329.269, 431.539 336.250 C 430.602 338.863, 429.431 341, 428.938 341 C 427.670 341, 424.905 346.718, 419.745 360.007 C 411.433 381.416, 404.098 408.390, 402.015 425.206 C 401.490 429.444, 400.821 433.944, 400.529 435.206 C 400.237 436.468, 399.527 442.225, 398.952 448 C 398.377 453.775, 397.271 464.575, 396.494 472 C 395.512 481.398, 395.073 498.869, 395.050 529.500 L 395.018 573.500 398.383 583.260 C 400.233 588.628, 402.913 594.781, 404.337 596.933 C 405.762 599.086, 407.878 603.694, 409.040 607.174 C 410.201 610.653, 412.714 616.311, 414.623 619.747 C 418.060 625.932, 432.482 645.183, 434.171 645.841 C 434.653 646.029, 436.546 648.144, 438.377 650.542 C 443.792 657.635, 470.789 681.066, 479.821 686.513 C 481.362 687.442, 488.599 691.786, 493.480 694.711 C 495.873 696.145, 496.915 696.597, 503.500 699.059 C 506.873 700.321, 512.241 701.086, 520 701.412 C 526.325 701.678, 536.465 702.207, 542.533 702.588 C 555.554 703.406, 563.547 702.289, 576.758 697.808 C 584.172 695.294, 586.522 694.004, 588.559 691.334 C 589.957 689.500, 591.590 688, 592.186 688 C 592.783 688, 594.262 686.987, 595.473 685.750 C 596.684 684.513, 600.210 681.723, 603.308 679.552 C 609.766 675.025, 613.921 669.318, 623 652.500 C 628.061 643.126, 630.435 639.502, 634.463 635 C 639.873 628.955, 650.313 619.024, 651.272 619.011 C 651.697 619.005, 653.947 617.264, 656.272 615.142 C 661.629 610.254, 663.175 609.469, 671.062 607.631 C 680.745 605.374, 692.387 599.654, 698.022 594.383 C 706.904 586.074, 716.147 568.320, 717.569 556.835 C 717.933 553.901, 718.782 550.600, 719.458 549.500 C 720.133 548.400, 720.962 545.122, 721.300 542.215 C 721.638 539.308, 722.737 535.708, 723.742 534.215 C 726.450 530.195, 731 514.235, 731 508.759 C 731 507.464, 732.750 502.825, 734.890 498.452 C 739.244 489.552, 743 477.863, 743 473.214 C 743 471.525, 743.571 469.548, 744.270 468.821 C 746.327 466.680, 752 458.667, 752 457.902 C 752 457.515, 753.800 453.339, 756 448.621 C 758.200 443.903, 760 439.818, 760 439.544 C 760 439.269, 761.599 435.546, 763.554 431.272 C 768.828 419.739, 768.827 419.741, 769.316 416.500 C 769.565 414.850, 770.707 410.962, 771.854 407.860 C 774.922 399.566, 776.325 381.816, 775.709 359.086 C 775.171 339.241, 774.235 333.343, 770.461 326 C 767.372 319.991, 767 319.072, 767 317.447 C 767 316.578, 765.875 314.392, 764.500 312.589 C 763.125 310.786, 762 308.650, 762 307.843 C 762 307.035, 760.939 304.153, 759.642 301.437 C 758.345 298.722, 756.493 294.089, 755.526 291.142 C 754.558 288.194, 751.148 281.894, 747.946 277.142 C 741.010 266.844, 720.679 243.554, 712.398 236.418 C 706.707 231.516, 693.583 223, 691.718 223 C 691.218 223, 689.614 222.178, 688.154 221.173 C 685.384 219.266, 674.377 215.322, 667.500 213.772 C 651.003 210.055, 640.819 209.407, 625 211.067" stroke="#aa444d" fill="#aa444d" fill-opacity="0.2" fill-rule="evenodd"/><path class="svg-region-Or" d="M 1199.500 192.006 C 1177.439 194.046, 1158.143 198.430, 1151.695 202.866 C 1149.190 204.590, 1146.669 206, 1146.093 206 C 1145.517 206, 1144.309 207.125, 1143.408 208.500 C 1142.507 209.875, 1141.147 211, 1140.385 211 C 1139.623 211, 1138.993 211.338, 1138.984 211.750 C 1138.975 212.162, 1137.738 213.925, 1136.234 215.666 C 1134.730 217.407, 1132.725 220.107, 1131.779 221.666 C 1129.114 226.054, 1127.694 228.233, 1125.253 231.683 C 1124.014 233.434, 1123 235.284, 1123 235.793 C 1123 236.303, 1121.443 238.371, 1119.540 240.389 C 1117.528 242.523, 1115.791 245.597, 1115.390 247.736 C 1115.010 249.759, 1113.591 253.837, 1112.235 256.798 C 1110.759 260.022, 1109.033 266.996, 1107.932 274.181 C 1106.922 280.781, 1105.607 286.769, 1105.010 287.488 C 1104.413 288.208, 1103.733 289.789, 1103.500 291.003 C 1102.814 294.564, 1095.933 319.242, 1094.767 322.321 C 1094.080 324.133, 1093.920 330.031, 1094.318 338.821 C 1095.089 355.824, 1097.021 362.989, 1105.697 381 C 1112.363 394.838, 1118.026 408.643, 1120.669 417.500 C 1121.490 420.250, 1122.797 423.910, 1123.572 425.633 C 1124.348 427.357, 1125.853 433.882, 1126.917 440.133 C 1127.981 446.385, 1129.560 454.182, 1130.426 457.460 C 1131.292 460.738, 1132 464.480, 1132 465.776 C 1132 467.071, 1132.542 469.114, 1133.205 470.316 C 1133.868 471.517, 1134.540 474.250, 1134.698 476.390 C 1134.857 478.529, 1135.365 480.779, 1135.828 481.390 C 1136.291 482, 1137.220 485.200, 1137.893 488.500 C 1139.206 494.937, 1140.592 500.055, 1145.073 515 C 1149.402 529.436, 1149.988 532.095, 1149.994 537.312 C 1150 542.137, 1152.471 551.317, 1154.446 553.854 C 1158.524 559.091, 1165.543 566, 1166.784 566 C 1167.606 566, 1170.354 567.265, 1172.889 568.811 C 1175.425 570.358, 1180.602 573.064, 1184.392 574.825 C 1195.202 579.848, 1202.332 584.544, 1213.319 593.876 C 1225.994 604.641, 1227.448 606.118, 1234.661 615.542 C 1244.343 628.191, 1248.875 635.300, 1253.836 645.617 C 1260.101 658.648, 1270.370 667.042, 1282.445 669.002 C 1290.623 670.330, 1332.590 670.268, 1339.201 668.918 C 1349.006 666.917, 1362.056 661.361, 1368.750 656.337 C 1370.537 654.996, 1372 654.178, 1372 654.521 C 1372 655.359, 1375.237 652.076, 1376.494 649.963 C 1377.047 649.033, 1378.506 646.440, 1379.737 644.202 C 1380.967 641.963, 1382.900 639.483, 1384.032 638.690 C 1386.365 637.056, 1391.389 629.468, 1394.090 623.500 C 1395.085 621.300, 1396.768 617.925, 1397.829 616 C 1406.452 600.353, 1410.552 585.214, 1412.451 562 C 1413.350 551.008, 1414.308 543.679, 1415.705 537.078 C 1417.009 530.923, 1417.099 527.766, 1416.232 518.578 C 1415.658 512.485, 1415.175 506.375, 1415.160 505 C 1415.124 501.690, 1413.922 491.024, 1413.301 488.500 C 1412.771 486.349, 1412.581 481.073, 1411.642 442.500 C 1411.307 428.750, 1410.601 414.350, 1410.073 410.500 C 1409.546 406.650, 1408.852 400.350, 1408.532 396.500 C 1407.519 384.309, 1404.949 369.859, 1400.351 350.500 C 1397.183 337.160, 1396.122 333.116, 1393.533 324.500 C 1391.146 316.558, 1389.298 311.758, 1383.329 298 C 1379.304 288.724, 1374.350 279.702, 1373 279.191 C 1371.108 278.476, 1369.073 275.906, 1369.032 274.180 C 1368.996 272.713, 1363.079 263.691, 1361.808 263.167 C 1361.364 262.983, 1361 262.414, 1361 261.903 C 1361 259.595, 1347.012 244.466, 1338.688 237.771 C 1333.031 233.221, 1320.604 225.180, 1317.267 223.911 C 1315.778 223.345, 1311.396 221.395, 1307.529 219.579 C 1297.763 214.990, 1290.917 212.823, 1263.500 205.646 C 1260.750 204.926, 1256.198 203.159, 1253.384 201.719 C 1250.570 200.280, 1245.620 198.440, 1242.384 197.631 C 1239.148 196.823, 1233.125 195.284, 1229 194.212 C 1220.175 191.920, 1209.259 191.103, 1199.500 192.006" stroke="#aa444d" fill="#aa444d" fill-opacity="0.2" fill-rule="evenodd"/>
    </svg>