<svg xmlns="http://www.w3.org/2000/svg" width="1921" height="1027" viewBox="0 0 1921 1027" version="1.1">
    <path class="svg-region-B" d="M 978.663 465.999 C 976.062 467.648, 972.940 470.686, 971.726 472.749 C 970.511 474.812, 968.066 478.661, 966.291 481.302 C 962.149 487.468, 956.458 500.086, 954.926 506.500 C 954.270 509.250, 952.649 514.160, 951.325 517.411 C 950.001 520.662, 948.649 525.387, 948.320 527.911 C 947.992 530.435, 947.354 533.222, 946.904 534.105 C 946.453 534.988, 945.612 538.669, 945.034 542.285 C 943.930 549.200, 938.456 563.147, 934.870 568.183 C 933.707 569.816, 932.386 572.581, 931.935 574.326 C 931.484 576.072, 930.156 580.200, 928.984 583.500 C 927.133 588.709, 926.736 592.929, 925.975 615.500 C 925.492 629.800, 925.028 644.875, 924.943 649 C 924.807 655.623, 924.575 654.572, 922.960 640 C 919.948 612.823, 919.144 607.138, 918.018 605.035 C 917.428 603.931, 915.808 599.759, 914.419 595.764 C 907.618 576.209, 906.842 573.032, 904.987 557.177 C 904.452 552.599, 903.095 543.599, 901.973 537.177 C 900.455 528.492, 900.101 523.519, 900.594 517.767 C 901.213 510.532, 901.043 509.519, 897.965 502.063 C 894.067 492.622, 887.727 484.909, 881.110 481.556 C 877.546 479.750, 874.091 479.043, 866.473 478.563 C 856.689 477.947, 856.424 477.988, 852.500 480.750 C 846.407 485.037, 841.493 495.534, 840.608 506.153 C 839.647 517.675, 838.450 522.316, 834.072 531.500 C 831.975 535.900, 829.914 540.625, 829.493 542 C 829.071 543.375, 827.419 546.408, 825.823 548.739 C 820.497 556.514, 817.297 568.542, 815.909 586 C 815.406 592.325, 814.569 602.450, 814.048 608.500 C 811.816 634.447, 813.839 652.861, 820.419 666.500 C 822.277 670.350, 824.618 675.300, 825.622 677.500 C 828.648 684.132, 834.659 692.553, 839.051 696.312 C 841.329 698.262, 846.637 701.577, 850.847 703.679 L 858.500 707.500 874.500 707.500 C 887.623 707.500, 891.399 707.166, 895.500 705.644 C 911.119 699.847, 913.979 698.167, 917.288 692.844 C 920.151 688.238, 920.516 688, 924.715 688 C 929.851 688, 932.066 689.006, 937.365 693.746 C 939.491 695.647, 945.116 699.069, 949.865 701.351 C 958.125 705.320, 958.913 705.500, 968.007 705.500 L 977.515 705.500 990.007 698.551 C 1008.190 688.437, 1013.739 684.637, 1017.374 679.808 C 1022.573 672.902, 1028.023 662.153, 1029.038 656.802 C 1029.554 654.080, 1030.627 650.423, 1031.423 648.676 C 1032.219 646.929, 1033.340 640.775, 1033.914 635 C 1036.055 613.489, 1036.200 601.511, 1034.600 578.362 C 1033.720 565.636, 1032.992 551.686, 1032.983 547.362 C 1032.972 542.105, 1032.141 536.517, 1030.476 530.500 C 1029.106 525.550, 1027.716 520.150, 1027.387 518.500 C 1026.777 515.444, 1022.088 502.737, 1018.899 495.500 C 1017.930 493.300, 1016.381 488.849, 1015.457 485.609 C 1011.985 473.440, 1006.665 467.463, 996.657 464.491 C 988.809 462.160, 984.093 462.555, 978.663 465.999" stroke="#e23b33" fill="#e23b33" fill-opacity="0.2" fill-rule="evenodd"/><path class="svg-region-Ol" d="M 629.447 202.654 C 626.726 203.289, 622.871 203.851, 620.880 203.904 C 617.187 204.002, 605.566 207.335, 603.592 208.863 C 602.991 209.327, 600.700 210.188, 598.500 210.775 C 596.300 211.363, 591.125 213.206, 587 214.871 C 573.090 220.487, 551.576 228.684, 539.500 232.969 C 524.371 238.337, 514.906 243.043, 503.500 250.869 C 485.197 263.427, 471.564 276.489, 458.990 293.514 C 447.894 308.537, 437.131 327.181, 434.464 335.997 C 434.048 337.370, 432.458 340.805, 430.929 343.631 C 424.695 355.154, 411.921 395.480, 406.105 422 C 401.801 441.621, 401.504 447.409, 403.438 474 C 403.972 481.346, 409.632 526.730, 411.669 540 C 412.471 545.225, 413.518 552.650, 413.995 556.500 C 414.472 560.350, 415.359 565.750, 415.966 568.500 C 418.225 578.740, 422.320 594.533, 422.966 595.500 C 423.334 596.050, 424.457 599.200, 425.462 602.500 C 429.799 616.740, 441.549 644.335, 445.101 648.620 C 445.611 649.235, 447.035 651.585, 448.264 653.842 C 451.057 658.966, 464.513 675.279, 470.790 681.149 C 481.302 690.981, 498.761 701, 505.380 701 C 506.749 701, 509.099 701.467, 510.600 702.038 C 517.481 704.654, 547.008 702.758, 564.500 698.576 C 567.800 697.787, 576.350 696.634, 583.500 696.014 C 599.709 694.607, 604.804 693.523, 612.979 689.743 C 621.888 685.623, 629.828 676.586, 636.986 662.419 C 639.186 658.064, 641.408 653.825, 641.922 653 C 642.437 652.175, 643.811 649.404, 644.974 646.841 C 646.138 644.279, 648.128 641.129, 649.396 639.841 C 650.665 638.554, 652.884 635.365, 654.329 632.755 C 656.638 628.583, 663.158 621.424, 667.312 618.500 C 676.244 612.212, 691.801 598.993, 701.103 589.788 C 713.763 577.259, 719.628 563.877, 727.023 530.645 C 733.844 499.996, 737.262 489.106, 743.861 477 C 745.211 474.525, 747.747 469.800, 749.498 466.500 C 751.249 463.200, 754.484 457.575, 756.687 454 C 770.251 431.986, 779.107 407.072, 782.090 382.530 C 784.340 364.020, 781.678 322.931, 777.936 318.423 C 777.415 317.795, 776.088 314.662, 774.986 311.459 C 773.884 308.255, 772.086 304.116, 770.991 302.260 C 769.896 300.404, 769 298.274, 769 297.526 C 769 296.778, 768.638 296.017, 768.197 295.833 C 767.755 295.650, 765.934 292.575, 764.150 289 C 762.367 285.425, 758.341 279.564, 755.204 275.977 C 752.067 272.389, 747.576 266.268, 745.225 262.375 C 742.874 258.483, 740.040 254.443, 738.928 253.399 C 737.815 252.354, 735.239 249.727, 733.203 247.559 C 731.166 245.391, 728.263 242.479, 726.750 241.086 C 725.237 239.694, 724 238.174, 724 237.709 C 724 236.737, 715.552 228.242, 712.359 226.002 C 711.181 225.176, 707.988 222.475, 705.263 220 C 694.201 209.951, 686.309 205.009, 681.290 204.988 C 679.755 204.982, 676.250 204.404, 673.500 203.706 C 670.750 203.007, 666.700 202.506, 664.500 202.593 C 662.300 202.681, 660.173 202.563, 659.774 202.332 C 658.067 201.344, 633.966 201.600, 629.447 202.654" stroke="#aa444d" fill="#aa444d" fill-opacity="0.2" fill-rule="evenodd"/><path class="svg-region-Or" d="M 1170.593 189.742 C 1170.459 189.876, 1166.391 190.675, 1161.555 191.518 C 1154.752 192.705, 1151.561 193.848, 1147.464 196.568 C 1140.411 201.249, 1122.098 219.732, 1121.326 222.949 C 1120.989 224.352, 1119.715 227.525, 1118.495 230 C 1117.275 232.475, 1115.507 236.975, 1114.567 240 C 1113.627 243.025, 1112.469 246.400, 1111.994 247.500 C 1110.941 249.941, 1107.751 259.557, 1105.525 267 C 1104.620 270.025, 1102.805 274.300, 1101.492 276.500 C 1100.179 278.700, 1097.895 282.975, 1096.418 286 C 1094.940 289.025, 1092.667 292.772, 1091.366 294.327 C 1090.064 295.881, 1089 297.964, 1089 298.954 C 1089 299.945, 1088.325 301.315, 1087.500 302 C 1086.675 302.685, 1086 304.004, 1086 304.931 C 1086 305.859, 1085.339 307.491, 1084.532 308.559 C 1083.724 309.626, 1083.049 311.232, 1083.032 312.128 C 1083.014 313.023, 1082.371 314.277, 1081.603 314.915 C 1079.527 316.637, 1077.249 324.518, 1076.374 333 C 1075.949 337.125, 1075.705 340.882, 1075.833 341.349 C 1075.961 341.816, 1076.483 346.578, 1076.993 351.930 C 1078.017 362.675, 1079.946 367.436, 1087.113 376.906 C 1089.360 379.873, 1091.839 384.463, 1092.624 387.106 C 1093.409 389.749, 1095.760 394.969, 1097.848 398.706 C 1099.936 402.442, 1102.262 407.075, 1103.016 409 C 1103.770 410.925, 1104.637 412.725, 1104.943 413 C 1106.023 413.970, 1119.019 440.517, 1119.010 441.733 C 1119.004 442.412, 1120.626 446.462, 1122.613 450.733 C 1124.601 455.005, 1127.270 460.750, 1128.544 463.500 C 1129.819 466.250, 1131.549 470.778, 1132.389 473.561 C 1133.230 476.345, 1135.037 481.039, 1136.405 483.993 C 1137.774 486.947, 1138.686 489.699, 1138.433 490.108 C 1137.509 491.603, 1141.901 515.781, 1143.953 520.500 C 1144.432 521.600, 1145.306 525.126, 1145.895 528.335 C 1146.591 532.122, 1148.004 535.480, 1149.921 537.901 C 1154.520 543.707, 1161.760 550, 1163.841 550 C 1164.879 550, 1166.801 551.060, 1168.114 552.356 C 1169.426 553.653, 1172.300 555.294, 1174.500 556.004 C 1176.700 556.713, 1180.068 558.128, 1181.985 559.147 C 1183.902 560.166, 1186.067 561, 1186.797 561 C 1188.744 561, 1198.678 565.840, 1204.975 569.857 C 1212.308 574.534, 1224.524 586.434, 1227.707 592 C 1229.123 594.475, 1231.247 598.075, 1232.428 600 C 1233.608 601.925, 1235.412 605.525, 1236.437 608 C 1240.315 617.371, 1244.284 624.683, 1248.370 629.989 C 1252.431 635.262, 1267.549 648.914, 1269.390 648.972 C 1269.880 648.987, 1272.130 649.865, 1274.390 650.922 C 1281.801 654.387, 1292.299 656.854, 1304.500 657.999 C 1328.265 660.230, 1343.474 659.222, 1355.500 654.619 C 1357.700 653.777, 1360.184 653.068, 1361.021 653.044 C 1364.399 652.946, 1377.891 643.827, 1384.248 637.343 C 1399.771 621.511, 1407.598 604.413, 1420.111 559 C 1425.608 539.047, 1426.479 513.248, 1422.963 474.500 C 1421.595 459.427, 1421.324 456.079, 1419.924 437 C 1419.299 428.475, 1418.669 419.925, 1418.524 418 C 1418.379 416.075, 1417.934 409.100, 1417.536 402.500 C 1416.747 389.427, 1411.611 355.011, 1410.001 352.002 C 1409.450 350.973, 1408.997 348.639, 1408.994 346.816 C 1408.990 344.992, 1408.299 342.178, 1407.456 340.563 C 1406.614 338.948, 1405.472 335.573, 1404.918 333.063 C 1403.902 328.454, 1398.958 314.031, 1396.498 308.500 C 1395.764 306.850, 1394.384 303.539, 1393.430 301.141 C 1390.198 293.018, 1380.907 276.641, 1375.225 269.053 C 1359.139 247.569, 1333.038 227.768, 1306.787 217.133 C 1289.490 210.126, 1252.615 199.368, 1237.500 196.919 C 1234.750 196.473, 1229.800 195.602, 1226.500 194.983 C 1223.200 194.363, 1218.850 193.679, 1216.833 193.463 C 1214.816 193.247, 1210.316 192.577, 1206.833 191.973 C 1194.449 189.827, 1185.401 188.961, 1178.169 189.229 C 1174.137 189.378, 1170.728 189.609, 1170.593 189.742" stroke="#aa444d" fill="#aa444d" fill-opacity="0.2" fill-rule="evenodd"/>
    </svg>