<svg xmlns="http://www.w3.org/2000/svg" width="1921" height="1027" viewBox="0 0 1921 1027" version="1.1">
    <path class="svg-region-B" d="M 989.988 451.285 C 982.091 453.971, 980.853 454.860, 974.368 462.500 C 965.353 473.119, 957 489.504, 957 496.569 C 957 498.492, 955.733 503.538, 954.183 507.782 C 952.634 512.027, 949.664 520.675, 947.583 527 C 945.502 533.325, 942.778 540.750, 941.531 543.500 C 940.283 546.250, 938.927 550.075, 938.516 552 C 938.105 553.925, 937.450 555.950, 937.060 556.500 C 936.669 557.050, 935.770 559.525, 935.062 562 C 934.353 564.475, 932.391 569.200, 930.703 572.500 C 927.879 578.018, 927.610 579.425, 927.348 590 C 927.068 601.344, 926.408 609.112, 925.309 614 C 924.856 616.011, 924.471 615.326, 923.338 610.500 C 922.563 607.200, 921.496 601.800, 920.967 598.500 C 918.202 581.258, 917.579 577.957, 915.911 571.698 C 914.914 567.956, 913.202 563.446, 912.107 561.674 C 911.012 559.902, 909.368 554.413, 908.454 549.476 C 907.539 544.539, 905.713 536.675, 904.395 532 C 900.743 519.040, 899.037 510.085, 899.017 503.776 C 899.001 498.220, 896.007 488.899, 891.105 479.141 C 890.099 477.138, 887.627 472.076, 885.612 467.890 C 880.997 458.304, 877.797 456.500, 865.411 456.500 C 857.758 456.500, 856.964 456.709, 852.118 460 C 843.181 466.069, 831.251 486.105, 829.060 498.725 C 828.413 502.451, 827.241 508.425, 826.457 512 C 824.521 520.817, 822.502 533.816, 820.555 550 C 819.662 557.425, 817.713 568.225, 816.224 574 C 813.703 583.778, 813.519 585.910, 813.548 605 C 813.572 620.714, 814.003 627.601, 815.392 634.500 C 818.567 650.267, 820.695 658.364, 823.013 663.500 C 824.255 666.250, 826.116 670.363, 827.151 672.640 C 828.185 674.917, 829.729 677.360, 830.582 678.068 C 831.435 678.776, 834.113 682.416, 836.534 686.158 C 845.219 699.584, 856.060 707.531, 867.269 708.688 C 870.295 709.001, 879.455 708.717, 887.625 708.057 C 900.155 707.046, 903.596 706.393, 909.626 703.883 C 917.723 700.512, 918.927 699.408, 924.500 690.229 C 926.700 686.606, 928.959 683.495, 929.519 683.315 C 930.080 683.135, 931.404 684.595, 932.462 686.559 C 937.874 696.610, 953.711 703.936, 970 703.925 C 979.253 703.919, 993.213 700.786, 997.948 697.653 C 1000.116 696.219, 1003.107 692.897, 1004.595 690.272 C 1009.134 682.267, 1013.899 675.544, 1015.938 674.271 C 1018.498 672.672, 1025.405 660.909, 1027.840 654 C 1030.797 645.612, 1032.073 639.115, 1032.981 627.814 C 1033.437 622.141, 1034.866 611.875, 1036.155 605 C 1038.263 593.764, 1038.479 590.022, 1038.292 568 C 1038.083 543.512, 1037.380 533.177, 1034.516 512.500 C 1032.251 496.150, 1031.010 489.954, 1029.530 487.608 C 1028.798 486.449, 1027.463 482.187, 1026.562 478.138 C 1025.008 471.147, 1019.723 459.710, 1016.149 455.605 C 1013.774 452.875, 1007.282 450.215, 1001.500 449.601 C 997.860 449.214, 994.729 449.672, 989.988 451.285" stroke="#e23b33" fill="#e23b33" fill-opacity="0.2" fill-rule="evenodd"/><path class="svg-region-Ol" d="M 634.389 199.002 C 626.210 200.850, 613.470 206.524, 611.108 209.370 C 607.027 214.287, 589.787 221.535, 576 224.129 C 558.982 227.332, 556.726 227.794, 552 229.042 C 549.525 229.696, 545.925 230.901, 544 231.721 C 542.075 232.541, 536.407 234.695, 531.404 236.507 C 519.264 240.905, 514.909 243.221, 505.925 250.059 C 497.346 256.588, 484.218 268.352, 482.065 271.441 C 481.275 272.574, 478.411 275.955, 475.700 278.956 C 469.769 285.520, 456.041 305.984, 451.520 315 C 449.727 318.575, 447.225 324.425, 445.961 328 C 444.697 331.575, 443.342 334.950, 442.951 335.500 C 442.025 336.801, 433.991 363.306, 432.948 368.500 C 432.090 372.769, 424.355 401.905, 420.337 416 C 414.253 437.345, 413.689 442.081, 414.263 466.995 C 414.565 480.075, 415.562 494.573, 416.807 504 C 417.934 512.525, 419.353 528.050, 419.961 538.500 C 420.570 548.950, 421.533 561.325, 422.103 566 C 423.426 576.862, 427.820 602.584, 429.022 606.500 C 433.942 622.534, 435.556 627.075, 437.614 630.678 C 438.926 632.976, 440 635.497, 440 636.280 C 440 637.063, 442.033 640.799, 444.518 644.583 C 447.003 648.366, 448.818 652.033, 448.550 652.731 C 448.282 653.429, 448.640 654, 449.346 654 C 450.052 654, 451.374 655.562, 452.284 657.470 C 454.278 661.650, 465.230 674.662, 472.349 681.309 C 478.721 687.258, 488.035 693.768, 492.295 695.251 C 494.058 695.864, 496.850 697.158, 498.500 698.126 C 500.176 699.108, 505.156 700.267, 509.787 700.752 C 518.897 701.705, 541.633 700.672, 549.500 698.947 C 552.250 698.344, 557.425 697.255, 561 696.526 C 582.252 692.194, 588.156 690.871, 594 689.133 C 602.484 686.609, 606.729 684.714, 610.944 681.569 C 612.839 680.156, 614.876 679, 615.472 679 C 617.218 679, 628.536 667.073, 633.721 659.768 C 636.350 656.065, 641.635 648.221, 645.467 642.337 C 652.239 631.938, 662.021 621.151, 672.749 612.250 C 675.566 609.912, 678.305 608, 678.836 608 C 680.576 608, 695.353 595.450, 702.525 587.881 C 706.389 583.804, 710.396 578.675, 711.429 576.484 C 712.463 574.293, 714.011 571.419, 714.869 570.097 C 718.993 563.749, 722.999 550.882, 728.441 526.500 C 735.347 495.563, 741.790 477.903, 751.127 464.320 C 752.707 462.021, 754 459.892, 754 459.589 C 754 459.287, 755.528 456.650, 757.396 453.730 C 759.264 450.810, 761.901 446.189, 763.255 443.460 C 764.610 440.732, 767.807 434.337, 770.359 429.249 C 772.912 424.161, 775 419.691, 775 419.315 C 775 418.939, 775.886 416.802, 776.968 414.566 C 779.749 408.822, 787 387.344, 787 384.852 C 787 383.709, 787.881 379.112, 788.958 374.637 C 792.626 359.386, 793.310 336.412, 790.483 323.358 C 787.747 310.727, 782.514 296.494, 778.259 290.110 C 777.017 288.246, 776 285.870, 776 284.829 C 776 283.789, 775.325 282.678, 774.500 282.362 C 773.675 282.045, 773 281.337, 773 280.787 C 773 279.751, 772.449 279.004, 762.500 266.545 C 748.440 248.939, 722.473 226.129, 705.790 216.729 C 703.085 215.205, 697.812 211.943, 694.073 209.479 C 690.334 207.016, 686.425 204.998, 685.387 204.996 C 684.349 204.994, 682.150 204.173, 680.500 203.172 C 676.426 200.698, 674.054 200.061, 663 198.467 C 650.508 196.665, 644.206 196.783, 634.389 199.002" stroke="#aa444d" fill="#aa444d" fill-opacity="0.2" fill-rule="evenodd"/><path class="svg-region-Or" d="M 1173.500 181.466 C 1163.595 183.516, 1151.912 187.831, 1144.746 192.084 C 1136.386 197.047, 1123.519 208.347, 1118.972 214.719 C 1117.095 217.348, 1114.708 220.400, 1113.667 221.500 C 1112.627 222.600, 1110.461 226.306, 1108.854 229.736 C 1104.989 237.982, 1094.405 253.726, 1092.226 254.468 C 1091.277 254.792, 1088.278 257.069, 1085.563 259.528 C 1082.847 261.988, 1080.260 264, 1079.813 264 C 1079.366 264, 1079 264.469, 1079 265.043 C 1079 265.616, 1077.262 268.438, 1075.138 271.313 C 1073.014 274.188, 1069.899 279.006, 1068.216 282.020 C 1065.173 287.468, 1059 304.481, 1059 307.420 C 1059 308.266, 1057.919 312.230, 1056.598 316.229 C 1055.277 320.228, 1053.846 325.075, 1053.418 327 C 1052.424 331.476, 1052.846 342.209, 1054.066 343.450 C 1054.580 343.972, 1055.003 345.322, 1055.006 346.450 C 1055.010 347.577, 1055.685 349.789, 1056.506 351.364 C 1057.328 352.940, 1058 354.595, 1058 355.043 C 1058 355.490, 1059.672 358.701, 1061.716 362.178 C 1064.098 366.229, 1070.314 373.349, 1079.023 382 C 1086.497 389.425, 1093.487 397.075, 1094.556 399 C 1095.625 400.925, 1096.747 402.725, 1097.048 403 C 1100.659 406.292, 1110.823 422.952, 1117.486 436.500 C 1129.724 461.382, 1132.873 472.883, 1136.515 506 C 1139.183 530.269, 1142.257 540.159, 1150.110 549.748 C 1155.470 556.293, 1161.011 560.420, 1177.403 570.077 C 1189.092 576.963, 1199.437 586.229, 1207.100 596.678 C 1212.315 603.787, 1217.602 610.323, 1225.461 619.377 C 1228.744 623.159, 1234.146 630.222, 1237.465 635.072 C 1240.784 639.922, 1245.075 645.040, 1247 646.443 C 1256.948 653.698, 1271.802 658.301, 1292.500 660.543 C 1293.050 660.602, 1301.514 661.011, 1311.309 661.450 C 1334.690 662.498, 1344.894 660.519, 1360.500 651.911 C 1367.944 647.804, 1381.173 635.232, 1386.711 627 C 1390.843 620.857, 1397.256 607.866, 1400.038 600 C 1401.303 596.425, 1402.697 593.022, 1403.135 592.438 C 1403.574 591.854, 1405.051 587.129, 1406.418 581.938 C 1408.757 573.050, 1408.878 571.334, 1408.485 552.500 C 1408.255 541.500, 1407.869 522.600, 1407.627 510.500 C 1407.051 481.724, 1405.502 462.104, 1401.823 437 C 1400.171 425.725, 1398.431 413.350, 1397.956 409.500 C 1397.481 405.650, 1396.162 398.225, 1395.024 393 C 1393.886 387.775, 1392.563 381.009, 1392.084 377.965 C 1391.605 374.920, 1390.229 369.125, 1389.026 365.087 C 1387.823 361.048, 1386.470 355.664, 1386.019 353.122 C 1385.569 350.580, 1384.289 344, 1383.175 338.500 C 1382.062 333, 1380.648 324.450, 1380.033 319.500 C 1377.110 295.980, 1373.665 282.151, 1368.077 271.500 C 1358.620 253.477, 1333.960 227.537, 1317.921 218.742 C 1315.403 217.361, 1312.478 215.728, 1311.421 215.114 C 1304.678 211.194, 1280.153 202.092, 1267.841 198.939 C 1262.825 197.655, 1253.897 195.415, 1246 193.460 C 1237.958 191.468, 1234.101 190.388, 1228.500 188.559 C 1223.848 187.040, 1215.145 185.110, 1210.500 184.569 C 1209.400 184.440, 1206.756 183.555, 1204.626 182.602 C 1199.660 180.381, 1181.877 179.732, 1173.500 181.466" stroke="#aa444d" fill="#aa444d" fill-opacity="0.2" fill-rule="evenodd"/>
    </svg>