<svg xmlns="http://www.w3.org/2000/svg" width="1921" height="1027" viewBox="0 0 1921 1027" version="1.1">
    <path class="svg-region-B" d="M 999.545 443.231 C 994.698 444.990, 985.687 450.627, 982.867 453.664 C 977.154 459.815, 964.227 479.467, 959.012 489.925 C 952.252 503.483, 951.221 506.397, 950.606 513.674 C 950.002 520.829, 946.193 532.447, 941.812 540.500 C 935.118 552.806, 932.675 558.887, 931.969 565 C 931.556 568.575, 930.710 572.790, 930.089 574.367 C 928.977 577.193, 928.258 583.435, 928.087 591.750 C 928.039 594.087, 927.599 596, 927.109 596 C 926.142 596, 925.491 592.811, 923.946 580.500 C 923.394 576.100, 922.505 571.195, 921.971 569.601 C 921.437 568.006, 921 565.657, 921 564.379 C 921 563.102, 919.905 559.581, 918.567 556.555 C 917.229 553.529, 915.239 546.741, 914.145 541.470 C 913.051 536.199, 911.518 530.900, 910.737 529.693 C 909.957 528.487, 907.605 523, 905.510 517.500 C 903.415 512, 900.194 504.228, 898.351 500.228 C 896.508 496.229, 895 492.373, 895 491.661 C 895 489.032, 888.961 478.675, 883.644 472.185 C 880.632 468.508, 874.406 461.833, 869.808 457.350 C 861.840 449.581, 861.186 449.167, 855.807 448.495 C 848.646 447.600, 844.672 448.892, 837.117 454.572 C 824.662 463.934, 820.614 471.276, 819.022 487.392 C 818.527 492.402, 817.654 498.871, 817.083 501.769 C 815.584 509.376, 813.012 539.992, 813.006 550.316 C 813.003 555.164, 812.569 559.936, 812.043 560.920 C 811.431 562.064, 811.468 572.778, 812.145 590.605 C 813.013 613.475, 813.546 619.485, 815.102 623.965 C 816.146 626.971, 817 630.636, 817 632.108 C 817 633.581, 818.963 642.597, 821.363 652.143 C 825.905 670.213, 828.398 675.999, 835.586 685.151 C 841.527 692.716, 855.597 704.676, 862.625 708.136 L 868.891 711.221 883.695 710.762 C 901.965 710.196, 909.341 708.164, 916.653 701.684 C 927.961 691.663, 930.062 691.201, 939.863 696.589 C 954.041 704.382, 968.034 705.998, 986.261 701.946 C 996.393 699.693, 998.445 698.657, 1003.608 693.183 C 1008.958 687.511, 1027 665.131, 1027 664.167 C 1027 663.695, 1027.958 662.453, 1029.130 661.405 C 1034.084 656.973, 1036.936 643.502, 1037.050 624 C 1037.100 615.382, 1037.964 609.089, 1040.893 596 C 1042.424 589.158, 1044.219 526.238, 1043.003 522.007 C 1042.452 520.085, 1042 513.456, 1042 507.275 C 1042 494.650, 1040.938 486.307, 1037.381 471 C 1033.207 453.036, 1032.350 451.366, 1024.381 445.663 C 1019.429 442.120, 1018.986 442.003, 1010.881 442.079 C 1006.271 442.122, 1001.170 442.641, 999.545 443.231" stroke="#e23b33" fill="#e23b33" fill-opacity="0.2" fill-rule="evenodd"/><path class="svg-region-Ol" d="M 647.500 198.100 C 644.200 198.476, 638.125 198.843, 634 198.915 C 625.133 199.072, 622.276 199.741, 611 204.304 C 603.658 207.275, 601.478 208.772, 595 215.285 C 587.972 222.352, 578.792 230, 577.338 230 C 576.983 230, 574.175 231.206, 571.096 232.680 C 565.552 235.335, 546.207 241.426, 538.500 242.944 C 534.703 243.691, 533.133 244.164, 528.500 245.954 C 527.400 246.379, 524.025 247.524, 521 248.499 C 513.202 251.012, 496.975 259.267, 487 265.794 C 470.633 276.504, 461.776 285.266, 451.787 300.629 C 447.297 307.535, 445.775 310.482, 442.043 319.500 C 439.550 325.523, 434.557 339.283, 432.972 344.500 C 430.815 351.594, 418.373 387.613, 417.082 390.500 C 415.712 393.563, 410.247 410.183, 406.396 423 C 399.285 446.661, 396.962 468.900, 396.627 516.500 C 396.368 553.260, 399.408 589.300, 403.568 598.797 C 404.363 600.611, 405.486 604.211, 406.063 606.797 C 408.994 619.913, 430.142 655.980, 444.063 671.605 C 447.442 675.397, 452.718 681.309, 455.788 684.742 C 466.122 696.299, 474.414 700.264, 488.050 700.168 C 492.753 700.135, 499.278 699.658, 502.550 699.109 C 525.782 695.208, 534.186 693.563, 539 691.974 C 542.025 690.977, 548.291 689.444, 552.925 688.568 C 562.798 686.702, 569.020 685.012, 570.706 683.739 C 571.370 683.238, 572.353 683.100, 572.892 683.433 C 573.430 683.766, 575.587 683.074, 577.685 681.896 C 579.783 680.718, 584.799 678.677, 588.832 677.360 C 597.697 674.466, 600.903 672.870, 603.407 670.102 C 604.454 668.946, 605.803 667.988, 606.405 667.974 C 607.007 667.960, 608.341 666.125, 609.369 663.897 C 610.398 661.668, 613.548 657.432, 616.369 654.482 C 619.191 651.533, 622.400 648.021, 623.500 646.678 C 629.410 639.461, 634.709 633.415, 636.321 632.046 C 637.323 631.196, 640.023 628.549, 642.321 626.165 C 647.261 621.039, 658.245 613, 660.307 613 C 661.103 613, 662.320 612.319, 663.011 611.487 C 663.702 610.655, 664.769 610.074, 665.383 610.197 C 665.998 610.319, 667.494 609.869, 668.709 609.196 C 669.925 608.523, 671.275 608.053, 671.709 608.151 C 674.640 608.809, 684.981 603.853, 691.393 598.717 C 693.652 596.908, 696.625 594.704, 698 593.818 C 703.523 590.263, 717.006 574.263, 716.998 571.274 C 716.996 570.452, 727.889 547.899, 731.138 542 C 734.310 536.241, 742 519.353, 742 518.147 C 742 517.708, 743.125 516.292, 744.500 515 C 745.875 513.708, 747 512.049, 747 511.312 C 747 510.576, 747.412 509.191, 747.916 508.236 C 750.021 504.246, 752 499.091, 752 497.599 C 752 496.719, 752.361 496, 752.802 496 C 753.244 496, 754.426 493.716, 755.430 490.923 C 756.434 488.131, 761.828 476.769, 767.416 465.673 C 773.004 454.578, 779.205 441.225, 781.195 436 C 783.186 430.775, 785.158 425.600, 785.579 424.500 C 785.999 423.400, 786.452 421.600, 786.585 420.500 C 787.227 415.188, 790.097 401.273, 790.916 399.500 C 791.425 398.400, 792.095 395.925, 792.406 394 C 792.716 392.075, 793.664 387.350, 794.512 383.500 C 798.998 363.126, 799.336 348.526, 795.531 339.419 C 794.689 337.404, 794 334.680, 794 333.364 C 794 332.049, 793.574 330.191, 793.054 329.236 C 792.533 328.281, 790.931 324.350, 789.493 320.500 C 782.787 302.548, 775.570 286.758, 770.979 280 C 770.045 278.625, 768.448 275.700, 767.429 273.500 C 766.410 271.300, 765.109 268.982, 764.538 268.349 C 763.967 267.716, 760.674 263.148, 757.220 258.197 C 753.767 253.246, 750.279 248.647, 749.470 247.975 C 748.662 247.304, 748 246.358, 748 245.872 C 748 244.518, 731.470 228.590, 726.713 225.360 C 724.396 223.787, 722.350 222.162, 722.167 221.750 C 721.983 221.338, 721.308 220.996, 720.667 220.990 C 720.025 220.985, 716.783 219.257, 713.462 217.150 C 698.326 207.547, 678.522 200.399, 664 199.299 C 659.875 198.986, 655.825 198.435, 655 198.074 C 654.175 197.713, 650.800 197.725, 647.500 198.100" stroke="#aa444d" fill="#aa444d" fill-opacity="0.2" fill-rule="evenodd"/><path class="svg-region-Or" d="M 1163 164.691 C 1161.075 164.894, 1158.600 165.466, 1157.500 165.961 C 1156.400 166.456, 1153.700 167.404, 1151.500 168.068 C 1143.298 170.545, 1134.077 176.088, 1124.186 184.488 C 1118.584 189.246, 1114 193.451, 1114 193.832 C 1114 194.214, 1112.987 194.970, 1111.750 195.513 C 1110.513 196.056, 1108.760 198.075, 1107.855 200 C 1106.950 201.925, 1104.475 205.127, 1102.355 207.115 C 1100.235 209.103, 1096.700 212.885, 1094.500 215.520 C 1092.300 218.155, 1089.971 220.851, 1089.324 221.510 C 1088.678 222.169, 1087.426 224.439, 1086.542 226.554 C 1085.658 228.669, 1083.205 232.672, 1081.089 235.450 C 1078.974 238.227, 1075.616 243.601, 1073.626 247.392 C 1071.637 251.182, 1069.633 254.782, 1069.172 255.392 C 1068.712 256.001, 1067.731 258.075, 1066.993 260 C 1066.255 261.925, 1064.829 264.694, 1063.825 266.154 C 1062.821 267.614, 1062 269.580, 1062 270.523 C 1062 271.466, 1061.062 275.222, 1059.916 278.869 C 1056.332 290.276, 1056.108 291.221, 1054.202 303 C 1049.178 334.062, 1055.545 355.436, 1079.356 387.442 C 1088.667 399.957, 1095.475 410.426, 1096.465 413.750 C 1096.833 414.987, 1097.554 416, 1098.067 416 C 1098.580 416, 1099 416.663, 1099 417.474 C 1099 418.284, 1100.463 421.997, 1102.251 425.724 C 1106.591 434.773, 1109.530 444.288, 1114.928 466.771 C 1116.549 473.520, 1118.578 480.452, 1119.437 482.175 C 1120.297 483.898, 1121 486.305, 1121 487.523 C 1121 490.197, 1124.181 500.340, 1126.325 504.500 C 1127.175 506.150, 1128.819 510.607, 1129.979 514.405 C 1133.882 527.185, 1142.287 541.878, 1150.913 551 C 1153.253 553.475, 1155.693 556.197, 1156.334 557.050 C 1158.115 559.416, 1170.235 569.251, 1174.085 571.453 C 1180.711 575.242, 1193.572 582.277, 1199.528 585.370 C 1202.843 587.091, 1206.783 589.467, 1208.285 590.649 C 1210.920 592.725, 1222 608.543, 1222 610.231 C 1222 610.687, 1224.429 615.047, 1227.398 619.920 C 1230.367 624.793, 1233.124 629.816, 1233.526 631.081 C 1234.872 635.322, 1248.195 647.263, 1257.146 652.250 C 1261.835 654.862, 1266.350 657, 1267.179 657 C 1268.764 657, 1279.081 660.331, 1282.500 661.947 C 1284.254 662.775, 1287.799 663.834, 1303 668.067 C 1309.706 669.934, 1323.543 671.965, 1329.678 671.983 C 1346.262 672.029, 1357.372 668.648, 1368.882 660.049 C 1380.353 651.480, 1387.725 642.206, 1399.819 621.129 C 1409.592 604.096, 1417.515 582.401, 1421.959 560.500 C 1424.426 548.345, 1425.271 523.505, 1423.984 501 C 1421.375 455.352, 1421.462 449.580, 1425.297 414.500 C 1426.675 401.901, 1426.447 375.131, 1424.894 367 C 1424.316 363.975, 1422.907 358.350, 1421.764 354.500 C 1420.620 350.650, 1419.326 345.700, 1418.887 343.500 C 1416.518 331.610, 1406.786 300.580, 1403.206 293.500 C 1402.371 291.850, 1400.875 287.246, 1399.880 283.268 C 1398.275 276.846, 1396.387 272.464, 1388.780 257.500 C 1385.142 250.344, 1374.958 237.721, 1364.374 227.250 C 1358.676 221.613, 1353.596 217, 1353.084 217 C 1352.572 217, 1350.855 215.907, 1349.268 214.572 C 1345.365 211.288, 1326.750 201.512, 1319.428 198.901 C 1293.020 189.484, 1282.155 186.065, 1262.500 180.983 C 1255.900 179.277, 1247.575 177.015, 1244 175.957 C 1238.378 174.294, 1223.108 170.775, 1216.298 169.575 C 1215.086 169.361, 1212.589 168.689, 1210.748 168.082 C 1200.569 164.722, 1177.904 163.113, 1163 164.691" stroke="#aa444d" fill="#aa444d" fill-opacity="0.2" fill-rule="evenodd"/>
    </svg>