<svg xmlns="http://www.w3.org/2000/svg" width="1921" height="1027" viewBox="0 0 1921 1027" version="1.1">
    <path class="svg-region-B" d="M 991.500 420.845 C 985.849 424.306, 967 447.466, 967 450.949 C 967 451.509, 964.153 455.688, 960.674 460.234 C 950.745 473.209, 941.499 493.606, 939.595 506.737 C 939.257 509.067, 938.072 512.591, 936.962 514.568 C 934.892 518.253, 927.880 537.586, 925.392 546.468 C 924.626 549.200, 924 553.308, 924 555.595 C 924 559.830, 921.478 563.759, 920.620 560.863 C 920.397 560.113, 919.304 556.800, 918.189 553.500 C 917.074 550.200, 914.989 542.776, 913.556 537.002 C 912.038 530.889, 908.925 522.327, 906.103 516.502 C 901.312 506.616, 896.654 493.192, 895.372 485.573 C 894.789 482.107, 892.487 478.316, 883.413 465.878 C 880.929 462.475, 866.049 444, 864.037 441.823 C 863.184 440.900, 859.565 438.763, 855.993 437.073 C 847.410 433.013, 841.950 432.987, 834.062 436.969 C 826.737 440.666, 823.604 445.007, 819.963 456.500 C 819.266 458.700, 817.870 462.750, 816.860 465.500 C 815.851 468.250, 814.135 477.250, 813.048 485.500 C 811.960 493.750, 809.930 509.136, 808.535 519.692 C 805.696 541.186, 805.336 557.574, 807.034 588 C 808.052 606.256, 808.516 608.904, 814.469 630.500 C 815.227 633.250, 816.815 640.225, 817.999 646 C 819.182 651.775, 820.981 658.975, 821.996 662 C 823.011 665.025, 824.137 669.384, 824.498 671.687 C 824.859 673.990, 826.695 678.432, 828.577 681.558 C 830.460 684.685, 832 687.656, 832 688.161 C 832 690.089, 835.937 696.614, 838.658 699.196 C 844.553 704.790, 850.162 706.369, 865.706 706.814 C 889.157 707.484, 896.596 704.948, 911.176 691.309 L 916.852 686 924.180 686 C 929.483 686, 933.304 686.670, 938.004 688.424 C 941.577 689.757, 946.075 691.399, 948 692.074 C 949.925 692.748, 952.589 693.794, 953.919 694.400 C 955.428 695.086, 961.533 695.379, 970.130 695.179 C 985.018 694.832, 988.674 693.777, 998.495 686.992 C 1006.992 681.123, 1008.681 678.823, 1015.011 664.500 C 1024.892 642.146, 1030.850 619.617, 1034.187 592 C 1036.433 573.412, 1038.248 527.781, 1036.884 524.195 C 1036.398 522.916, 1035.993 518.637, 1035.984 514.685 C 1035.976 510.733, 1035.317 504.800, 1034.520 501.500 C 1033.723 498.200, 1033.055 494.248, 1033.036 492.718 C 1033.016 491.189, 1032.116 487.314, 1031.036 484.108 C 1029.880 480.676, 1028.631 472.815, 1028 464.994 C 1026.791 450.035, 1024.685 441.284, 1020.037 431.914 C 1014.657 421.068, 1011.652 418.998, 1001.300 419.004 C 996.461 419.006, 993.635 419.537, 991.500 420.845" stroke="#e23b33" fill="#e23b33" fill-opacity="0.2" fill-rule="evenodd"/><path class="svg-region-Ol" d="M 641.500 169.750 C 640.400 169.935, 637.025 170.912, 634 171.922 C 630.975 172.932, 626.250 174.328, 623.500 175.024 C 620.750 175.719, 617.097 177.124, 615.382 178.144 C 613.667 179.165, 611.642 180.003, 610.882 180.006 C 609.548 180.012, 599.472 184.924, 589.837 190.266 C 587.272 191.688, 582.097 195.085, 578.337 197.816 C 574.577 200.546, 567.450 204.718, 562.500 207.086 C 530.640 222.326, 525.520 225.044, 512.335 233.707 C 497.817 243.246, 468.819 272.966, 457.410 290 C 453.790 295.404, 448 307.188, 448 309.150 C 448 309.923, 447.397 311.443, 446.660 312.527 C 445.443 314.320, 444.038 320.290, 442.504 330.187 C 442.190 332.214, 441.097 336.489, 440.074 339.687 C 439.052 342.884, 437.030 350, 435.581 355.500 C 434.132 361, 431.638 370.450, 430.039 376.500 C 428.439 382.550, 426.841 388.843, 426.487 390.485 C 426.133 392.127, 423.361 399.777, 420.326 407.485 C 413.364 425.166, 408 442.682, 408 447.735 C 408 449.879, 407.548 454.078, 406.996 457.066 C 405.482 465.265, 405.169 477.503, 406.230 487 C 406.752 491.675, 407.550 516.425, 408.002 542 C 408.455 567.575, 409.250 590.750, 409.769 593.500 C 412.490 607.919, 422.669 628.629, 434.435 643.684 C 436.671 646.544, 440.743 651.908, 443.483 655.602 C 450.774 665.430, 467.729 682.848, 473.500 686.438 C 482.633 692.120, 504.426 702.037, 509.554 702.844 C 514.967 703.696, 531.792 701.440, 535.500 699.365 C 540.053 696.818, 557.788 692.899, 573.384 690.995 C 587.829 689.231, 609.889 682.248, 613.051 678.439 C 613.774 677.567, 616.067 675.986, 618.146 674.926 C 620.224 673.865, 623.629 671.280, 625.713 669.180 C 627.796 667.080, 630.737 664.554, 632.250 663.566 C 633.763 662.578, 635 660.948, 635 659.944 C 635 658.940, 635.421 657.858, 635.935 657.540 C 637.577 656.525, 642.738 646.212, 643.418 642.586 C 643.779 640.661, 645.070 638.263, 646.287 637.256 C 647.504 636.250, 649.126 634.334, 649.892 632.999 C 652.462 628.518, 664.305 615, 665.660 615 C 666.397 615, 667 614.626, 667 614.169 C 667 613.712, 668.118 612.740, 669.483 612.009 C 670.849 611.278, 672.230 609.852, 672.551 608.840 C 672.872 607.828, 673.597 607, 674.163 607 C 674.729 607, 676.413 606.130, 677.907 605.066 C 679.400 604.003, 681.832 602.829, 683.311 602.458 C 684.790 602.087, 686 601.382, 686 600.892 C 686 600.401, 686.587 600, 687.304 600 C 688.022 600, 690.834 598.556, 693.554 596.792 C 699.915 592.665, 702.983 591, 704.223 591 C 705.439 591, 718.176 581.069, 719.331 579.220 C 719.788 578.488, 721.216 577.488, 722.504 576.999 C 724.773 576.136, 726.325 573.371, 733.333 557.713 C 734.758 554.530, 736.215 550.255, 736.571 548.213 C 737.592 542.363, 743.619 521.984, 745.870 516.769 C 746.994 514.167, 748.422 510.148, 749.044 507.838 C 749.666 505.528, 751.246 502.233, 752.556 500.516 C 753.865 498.799, 755.437 494.943, 756.048 491.947 C 756.660 488.951, 757.939 485.375, 758.891 484 C 760.367 481.868, 769.718 462.377, 774.723 451 C 775.570 449.075, 777.086 445.766, 778.091 443.647 C 779.096 441.528, 780.607 437.424, 781.449 434.528 C 782.291 431.631, 783.647 428.708, 784.463 428.030 C 785.279 427.353, 786.224 425.157, 786.563 423.150 C 786.901 421.142, 787.773 417.700, 788.499 415.500 C 791.884 405.248, 793.101 399.564, 794.497 387.506 C 795.324 380.359, 796.711 372.066, 797.580 369.078 C 800.232 359.953, 801.820 334.575, 800.918 315.722 C 800.223 301.207, 799.770 298.082, 797.557 292.551 C 796.151 289.035, 795 285.269, 795 284.181 C 795 282.486, 792.934 277.995, 788.247 269.500 C 787.640 268.400, 786.130 265.250, 784.892 262.500 C 783.654 259.750, 781.597 256.108, 780.321 254.406 C 779.044 252.704, 778 250.645, 778 249.830 C 778 249.015, 776.820 247.258, 775.377 245.924 C 773.935 244.591, 770.946 241.025, 768.736 238 C 766.526 234.975, 763.930 231.600, 762.968 230.500 C 757.016 223.695, 736.284 204, 735.074 204 C 734.603 204, 732.040 202.200, 729.377 200 C 726.715 197.800, 723.889 196, 723.097 196 C 722.305 196, 720.947 195.380, 720.079 194.622 C 717.975 192.785, 708.809 188, 707.395 188 C 706.779 188, 704.526 186.608, 702.388 184.906 C 695.145 179.142, 684.833 175.058, 671.062 172.500 C 666.421 171.638, 662.133 170.526, 661.535 170.029 C 660.525 169.191, 646.031 168.989, 641.500 169.750" stroke="#aa444d" fill="#aa444d" fill-opacity="0.2" fill-rule="evenodd"/><path class="svg-region-Or" d="M 1147.500 159.590 C 1143.650 161.405, 1139.799 162.915, 1138.941 162.945 C 1138.084 162.975, 1134.709 164.640, 1131.441 166.645 C 1128.174 168.650, 1123.475 171.446, 1121 172.858 C 1113.754 176.992, 1108.020 181.702, 1099.677 190.371 C 1091.268 199.108, 1078.786 214.580, 1076.358 219.274 C 1075.539 220.858, 1073.436 224.051, 1071.684 226.368 C 1067.604 231.767, 1057.369 252.291, 1051.569 266.706 C 1047.585 276.606, 1045.826 283.052, 1041.804 302.500 C 1041.235 305.250, 1040.738 314.475, 1040.699 323 C 1040.637 336.438, 1040.929 339.463, 1042.894 345.741 C 1044.141 349.723, 1045.575 353.237, 1046.080 353.550 C 1046.586 353.862, 1047 354.768, 1047 355.563 C 1047 356.780, 1061.707 379.210, 1073.670 396.240 C 1075.502 398.847, 1077 401.218, 1077 401.510 C 1077 401.801, 1078.059 403.718, 1079.353 405.770 C 1080.647 407.821, 1082.404 411.750, 1083.257 414.500 C 1084.110 417.250, 1085.779 421.975, 1086.966 425 C 1088.153 428.025, 1089.816 432.750, 1090.661 435.500 C 1091.507 438.250, 1092.620 441.570, 1093.136 442.878 C 1093.652 444.186, 1096.048 451.161, 1098.461 458.378 C 1105.152 478.391, 1108.958 489.179, 1110.553 492.651 C 1111.349 494.384, 1112 496.356, 1112 497.032 C 1112 499.507, 1121.512 519.784, 1127.423 529.909 C 1132.012 537.770, 1135.948 542.808, 1143.500 550.490 C 1157.851 565.088, 1163.799 569.128, 1191.424 583.038 L 1206.393 590.576 1211.947 598.731 C 1215.001 603.216, 1220.168 611.524, 1223.428 617.193 C 1232.605 633.147, 1239.263 641.016, 1249.033 647.452 C 1256.441 652.333, 1262.488 654.134, 1277.500 655.932 C 1282.450 656.524, 1293.795 658.410, 1302.711 660.122 C 1317.366 662.935, 1320.199 663.184, 1332.211 662.712 C 1346.642 662.145, 1353.781 660.271, 1370.023 652.787 C 1384.385 646.170, 1396.493 631.419, 1406.786 608 C 1420.567 576.647, 1425.543 552.339, 1424.438 521.775 C 1424.089 512.127, 1423.277 506.324, 1421.078 497.775 C 1415.387 475.645, 1414.662 469.494, 1414.388 441 C 1414.231 424.646, 1413.358 405.799, 1412.106 391.774 C 1409.848 366.465, 1408.649 361.777, 1398.801 339.784 C 1392.843 326.475, 1386 308.672, 1386 306.478 C 1386 303.449, 1374.909 271.768, 1371.372 264.694 C 1367.493 256.937, 1359.513 244.643, 1354.694 239 C 1353.050 237.075, 1347.299 231.450, 1341.914 226.500 C 1336.529 221.550, 1329.412 214.079, 1326.099 209.897 C 1317.395 198.913, 1314.186 196.682, 1299.500 191.404 C 1277.127 183.364, 1271.017 181.069, 1264 178.068 C 1245.315 170.078, 1215.067 160.222, 1213.053 161.467 C 1212.555 161.775, 1210.202 161.376, 1207.824 160.582 C 1200.414 158.106, 1188.140 156.751, 1171 156.516 L 1154.500 156.290 1147.500 159.590" stroke="#aa444d" fill="#aa444d" fill-opacity="0.2" fill-rule="evenodd"/>
    </svg>