<svg xmlns="http://www.w3.org/2000/svg" width="1921" height="1027" viewBox="0 0 1921 1027" version="1.1">
    <path class="svg-region-B" d="M 988 440.665 C 986.625 440.942, 985.072 441.581, 984.550 442.085 C 984.028 442.588, 983.047 443, 982.371 443 C 980.269 443, 969.424 450.704, 967.594 453.497 C 966.638 454.956, 962.328 460.151, 958.016 465.043 C 953.704 469.934, 949.637 475.569, 948.979 477.565 C 948.320 479.560, 947.158 482.387, 946.397 483.847 C 945.635 485.306, 945.010 487.798, 945.006 489.384 C 945 492.492, 943.115 499.870, 941.911 501.500 C 941.505 502.050, 939.836 506.359, 938.202 511.076 C 934.945 520.479, 933.974 522.571, 927.216 534.754 L 922.638 543.008 920.319 540.830 C 919.043 539.632, 918 538.100, 918 537.427 C 918 536.414, 907.263 513.725, 903.961 507.764 C 903.433 506.809, 903 505.211, 903 504.214 C 903 503.216, 902.592 501.972, 902.093 501.450 C 901.594 500.927, 900.722 498.925, 900.154 497 C 898.335 490.831, 895.887 484.528, 894.930 483.550 C 894.418 483.028, 894 481.983, 894 481.229 C 894 480.474, 893.438 479.240, 892.750 478.485 C 892.063 477.730, 888.800 473.841, 885.500 469.843 C 875.918 458.232, 870.084 453.096, 862 449.156 C 854.795 445.644, 854.087 445.501, 844 445.538 C 832.485 445.579, 831.499 445.939, 823.073 453.187 C 819.483 456.276, 818.320 458.266, 815.903 465.456 L 813.020 474.038 813.020 524.769 C 813.020 586.218, 814.341 607.400, 819.521 629 C 820.378 632.575, 822 640.225, 823.126 646 C 826.076 661.135, 831.193 676.303, 836.449 685.495 C 838.964 689.891, 841.752 695.516, 842.646 697.995 C 843.539 700.473, 845.110 704.330, 846.135 706.566 C 847.161 708.802, 848 711.118, 848 711.712 C 848 712.307, 849.548 714.152, 851.440 715.813 C 856.706 720.437, 862.928 721.303, 884.840 720.465 C 901.568 719.824, 904.173 719.483, 910 717.175 C 917.539 714.187, 924.199 707.962, 927.304 701 C 929.689 695.651, 931.254 694.335, 936.250 693.472 C 939.764 692.865, 940.467 693.216, 947.407 699.053 C 951.480 702.479, 955.365 706.314, 956.040 707.575 C 958.257 711.717, 967.661 714, 982.503 714 C 989.677 714, 992.932 713.514, 997.117 711.818 C 1009.440 706.824, 1016.215 699.195, 1017.918 688.390 C 1019.617 677.611, 1022.560 668, 1024.161 668 C 1025.116 668, 1027 658.656, 1027 653.919 C 1027 651.728, 1027.709 648.263, 1028.576 646.218 C 1032.077 637.955, 1032.661 635.639, 1037.499 610.792 C 1038.617 605.053, 1039 595.859, 1039 574.792 C 1039 549.948, 1038.702 544.489, 1036.554 530 C 1034.283 514.675, 1033.099 504.546, 1031.061 483 C 1028.954 460.736, 1023.499 446.895, 1015.124 442.564 C 1012.389 441.150, 992.497 439.757, 988 440.665" stroke="#e23b33" fill="#e23b33" fill-opacity="0.2" fill-rule="evenodd"/><path class="svg-region-Ol" d="M 617.772 175.010 C 608.826 176.101, 605.182 177.355, 594.500 183.020 C 570.434 195.783, 564.123 198.472, 530 210.498 C 514.198 216.066, 493.589 225.590, 489 229.444 C 488.175 230.137, 485.658 231.783, 483.406 233.102 C 479.026 235.668, 476.974 237.187, 465.414 246.423 C 461.336 249.681, 458 252.718, 458 253.173 C 458 253.628, 457.405 254, 456.678 254 C 454.903 254, 437.904 272.265, 432.123 280.384 C 424.841 290.609, 421 297.298, 421 299.754 C 421 301, 420.100 302.790, 419 303.732 C 417.900 304.674, 417 305.964, 417 306.600 C 417 307.235, 416.325 308.315, 415.500 309 C 414.675 309.685, 414 310.909, 414 311.721 C 414 312.533, 413.364 314.616, 412.587 316.349 C 411.810 318.082, 410.188 322.875, 408.982 327 C 403.986 344.092, 399.774 357.712, 398.467 361 C 397.702 362.925, 395.218 369.675, 392.947 376 C 390.677 382.325, 387.774 389.975, 386.497 393 C 381.129 405.713, 375.718 429.204, 373.941 447.500 C 373.461 452.450, 372.602 460.550, 372.034 465.500 C 369.961 483.561, 371.380 532.528, 374.614 554.500 C 375.505 560.550, 376.591 568.650, 377.028 572.500 C 377.465 576.350, 378.819 583.100, 380.038 587.500 C 381.257 591.900, 382.591 597.075, 383.002 599 C 385.226 609.398, 393.576 629.663, 401.543 644 C 405.288 650.741, 419.079 667.813, 428.289 677.109 C 446.423 695.414, 463.767 705.462, 488.733 712.125 C 496.486 714.194, 499.755 714.467, 517 714.483 L 536.500 714.500 546.500 710.731 C 552 708.658, 557.625 706.303, 559 705.499 C 560.375 704.694, 563.075 703.326, 565 702.459 C 566.925 701.592, 570.975 699.616, 574 698.069 C 577.025 696.521, 580.706 694.972, 582.180 694.626 C 583.654 694.280, 585.473 693.435, 586.222 692.748 C 588.079 691.047, 590.917 689.298, 594.500 687.649 C 596.150 686.889, 599.965 684.632, 602.977 682.634 C 605.990 680.635, 608.853 679, 609.340 679 C 609.827 679, 612.987 676.973, 616.363 674.497 C 626.506 667.054, 626.424 667.105, 635.500 662.618 C 639.350 660.715, 644.141 658.043, 646.147 656.679 C 648.153 655.316, 650.709 653.910, 651.827 653.555 C 655.021 652.541, 668.691 643.248, 669.292 641.681 C 669.590 640.906, 672.079 637.173, 674.825 633.386 C 677.570 629.598, 680.971 624.408, 682.384 621.851 C 683.796 619.295, 686.200 615.905, 687.726 614.319 C 692.879 608.964, 698.035 602.803, 699.171 600.645 C 699.791 599.465, 700.598 598.275, 700.964 598 C 702.222 597.054, 712.601 582.491, 716.548 576.135 C 718.721 572.634, 722.834 566.109, 725.686 561.635 C 728.538 557.161, 732.075 551.279, 733.546 548.565 C 735.017 545.851, 737.746 541.413, 739.610 538.703 C 741.475 535.993, 743 532.885, 743 531.797 C 743 530.708, 744.462 528.101, 746.250 526.003 C 748.038 523.904, 750.593 519.109, 751.928 515.348 C 753.264 511.586, 755.793 506.482, 757.550 504.004 C 759.306 501.527, 761.305 497.700, 761.992 495.500 C 762.679 493.300, 763.637 491.073, 764.121 490.550 C 764.604 490.028, 765 488.804, 765 487.830 C 765 486.857, 765.978 484.360, 767.173 482.280 C 771.930 474.006, 775 467.543, 775 465.802 C 775 464.794, 776.350 461.578, 778 458.654 C 779.650 455.730, 781 452.389, 781 451.228 C 781 450.068, 781.399 448.871, 781.887 448.570 C 782.374 448.269, 783.066 446.461, 783.424 444.553 C 783.782 442.645, 784.730 439.828, 785.531 438.292 C 786.332 436.757, 786.997 434.825, 787.009 434 C 787.020 433.175, 788.130 428.958, 789.475 424.629 C 790.819 420.301, 791.866 416.476, 791.801 416.129 C 791.736 415.783, 791.936 414.825, 792.245 414 C 792.555 413.175, 793.336 408, 793.981 402.500 C 795.517 389.414, 795.627 388.630, 796.989 381 C 797.627 377.425, 798.307 372.599, 798.500 370.275 C 798.693 367.951, 799.135 365.591, 799.481 365.031 C 799.827 364.471, 800.169 353.098, 800.241 339.756 C 800.372 315.464, 800.057 312.503, 796.491 304.500 C 795.756 302.850, 794.860 300.150, 794.499 298.500 C 794.139 296.850, 793.443 294.600, 792.952 293.500 C 792.462 292.400, 790.745 288.125, 789.137 284 C 785.618 274.975, 780.353 263.070, 778.964 261 C 778.410 260.175, 777.165 257.925, 776.196 256 C 771.813 247.288, 764.242 237.209, 756.066 229.201 C 744.664 218.035, 741.339 215, 740.504 215 C 740.132 215, 735.930 211.573, 731.164 207.385 C 726.399 203.197, 721.825 199.526, 721 199.227 C 720.175 198.928, 717.475 197.242, 715 195.481 C 707.533 190.167, 691.792 181.929, 687 180.827 C 684.525 180.258, 680.025 179.120, 677 178.297 C 673.975 177.475, 669.475 176.347, 667 175.791 C 661.207 174.491, 626.539 173.941, 617.772 175.010" stroke="#aa444d" fill="#aa444d" fill-opacity="0.2" fill-rule="evenodd"/><path class="svg-region-Or" d="M 1166.886 151.424 C 1166.548 151.775, 1163.848 152.206, 1160.886 152.384 C 1154.208 152.783, 1146.750 154.598, 1141.500 157.099 C 1139.300 158.148, 1136.764 159.004, 1135.864 159.003 C 1134.965 159.001, 1132.940 159.672, 1131.364 160.494 C 1129.789 161.315, 1127.735 161.990, 1126.800 161.994 C 1125.865 161.997, 1123.165 163.293, 1120.800 164.874 C 1118.435 166.455, 1115.413 168.084, 1114.084 168.494 C 1112.755 168.905, 1110.505 170.424, 1109.084 171.871 C 1107.663 173.318, 1104.341 175.627, 1101.702 177.001 C 1099.063 178.376, 1093.656 182.875, 1089.687 187 C 1082.701 194.260, 1072 207.184, 1072 208.361 C 1072 208.678, 1069.750 212.385, 1067 216.597 C 1064.250 220.810, 1062 224.609, 1062 225.039 C 1062 225.469, 1060.200 228.997, 1058 232.880 C 1055.800 236.762, 1054 240.407, 1054 240.980 C 1054 241.553, 1053.162 243.929, 1052.137 246.261 C 1049.198 252.947, 1047.222 258.173, 1045.995 262.500 C 1045.371 264.700, 1044.498 267.400, 1044.055 268.500 C 1040.576 277.136, 1037.995 294.806, 1037.481 313.500 C 1037.105 327.168, 1040.022 344.503, 1044.294 354 C 1050.688 368.210, 1053.351 373.699, 1054.483 375 C 1055.729 376.430, 1057.888 380.349, 1067.468 398.563 C 1069.801 402.998, 1072.399 407.723, 1073.243 409.063 C 1074.087 410.403, 1075.316 413.300, 1075.975 415.500 C 1077.266 419.811, 1078.465 422.657, 1083.560 433.500 C 1085.369 437.350, 1087.393 442.750, 1088.058 445.500 C 1088.722 448.250, 1090.283 452.525, 1091.526 455 C 1092.769 457.475, 1094.360 461.075, 1095.062 463 C 1098.592 472.673, 1111.210 500.062, 1113.915 503.922 C 1114.909 505.340, 1116.284 508.232, 1116.971 510.349 C 1118.159 514.007, 1122.962 523.095, 1126.749 528.848 C 1127.712 530.311, 1128.950 532.227, 1129.500 533.105 C 1138.261 547.089, 1148.178 555.018, 1170.500 565.889 C 1181.041 571.022, 1195.436 578.237, 1199 580.173 C 1205.903 583.923, 1214.485 591.940, 1219.747 599.554 C 1220.908 601.234, 1223.910 604.834, 1226.418 607.554 C 1228.926 610.274, 1230.983 612.851, 1230.989 613.279 C 1231.019 615.440, 1240.267 625.327, 1248.296 631.781 C 1256.732 638.563, 1263.530 642.503, 1268.444 643.459 C 1272.117 644.174, 1302.345 651.117, 1308 652.545 C 1323.482 656.454, 1327.251 657, 1338.745 657 C 1350.209 657, 1351.525 656.782, 1363.181 652.952 C 1376.677 648.518, 1381.161 646.005, 1388.106 638.987 C 1395.738 631.276, 1400.814 621.626, 1408.876 599.500 C 1410.944 593.825, 1414.493 575.636, 1415.992 563.026 C 1417.324 551.825, 1417.269 499.561, 1415.909 485 C 1413.754 461.915, 1414.977 442.710, 1420.465 413.500 C 1423.219 398.843, 1423.443 385.822, 1421.161 373 C 1417.912 354.738, 1415.349 343.576, 1413.652 340.294 C 1412.787 338.622, 1412.347 336.986, 1412.674 336.659 C 1413.002 336.332, 1412.811 334.812, 1412.251 333.282 C 1411.690 331.752, 1410.691 328.475, 1410.030 326 C 1409.370 323.525, 1408.029 319.250, 1407.051 316.500 C 1406.073 313.750, 1404.703 309.025, 1404.008 306 C 1403.312 302.975, 1402.405 300.050, 1401.992 299.500 C 1401.579 298.950, 1400.037 294.279, 1398.565 289.120 C 1392.183 266.746, 1379.054 244.010, 1363.530 228.448 C 1353.112 218.004, 1343.119 209, 1341.946 209 C 1341.501 209, 1340.108 207.537, 1338.851 205.750 C 1336.086 201.817, 1335.581 201.310, 1330.500 197.366 C 1322.141 190.878, 1309.255 186, 1300.472 186 C 1298.213 186, 1293.020 185.096, 1288.932 183.991 C 1284.845 182.885, 1278.350 181.261, 1274.500 180.381 C 1270.650 179.501, 1265.925 178.408, 1264 177.953 C 1262.075 177.498, 1255.325 175.283, 1249 173.031 C 1242.675 170.780, 1236.150 168.553, 1234.500 168.084 C 1232.850 167.614, 1226.325 164.873, 1220 161.993 C 1198.529 152.213, 1197.081 151.810, 1181.500 151.271 C 1173.800 151.005, 1167.224 151.073, 1166.886 151.424" stroke="#aa444d" fill="#aa444d" fill-opacity="0.2" fill-rule="evenodd"/>
    </svg>