<svg xmlns="http://www.w3.org/2000/svg" width="1921" height="1027" viewBox="0 0 1921 1027" version="1.1">
    <path class="svg-region-B" d="M 987.993 441.358 C 985.515 443.178, 982.202 446.608, 980.631 448.982 C 979.060 451.355, 972.384 458.743, 965.794 465.398 C 950.849 480.494, 938 499.139, 938 505.730 C 938 506.590, 935.803 511.841, 933.118 517.397 C 930.433 522.954, 927.641 529.075, 926.913 531 C 924.692 536.880, 921.890 541, 920.113 541 C 918.145 541, 910 529.140, 910 526.273 C 910 525.221, 908.486 522.591, 906.636 520.430 C 904.787 518.268, 902.063 513.145, 900.584 509.044 C 899.104 504.943, 896.230 498.869, 894.197 495.547 C 892.164 492.225, 890.050 488.756, 889.500 487.839 C 887.268 484.119, 880.121 476.054, 872.361 468.500 C 867.841 464.100, 862.283 457.482, 860.009 453.793 C 853.886 443.859, 846.600 440.415, 837.113 442.970 C 831.027 444.608, 822.378 453.513, 818.629 462 C 817.049 465.575, 815.270 469.400, 814.675 470.500 C 814.079 471.600, 813.279 480.150, 812.896 489.500 C 812.513 498.850, 811.059 514.600, 809.665 524.500 C 806.730 545.345, 804.846 596.035, 806.754 602.788 C 807.331 604.830, 808.509 610.217, 809.373 614.759 C 811.059 623.624, 813.300 629.934, 821.181 648 C 829.203 666.388, 833.140 674.223, 836.510 678.500 C 838.243 680.700, 841.104 684.897, 842.868 687.827 C 848.899 697.841, 858.082 708.965, 862.339 711.411 C 869.903 715.756, 883.483 717.353, 888.929 714.537 C 890.486 713.732, 893.501 712.417, 895.630 711.616 C 897.758 710.814, 902.650 708.956, 906.500 707.487 C 910.350 706.017, 914.625 704.613, 916 704.366 C 929.727 701.898, 929.690 701.899, 940.172 704.042 C 948.755 705.797, 953.119 706.090, 966 705.780 C 980.867 705.422, 981.696 705.292, 986.296 702.592 C 988.934 701.044, 992.309 698.199, 993.796 696.269 C 995.283 694.339, 998.700 690.227, 1001.389 687.130 C 1006.758 680.948, 1017 665.836, 1017 664.097 C 1017 663.493, 1017.450 663, 1018 663 C 1018.550 663, 1019 662.590, 1019 662.089 C 1019 661.588, 1020.544 657.876, 1022.431 653.839 C 1028.092 641.727, 1031.355 629.484, 1032.514 616 C 1032.869 611.875, 1034.063 605.810, 1035.167 602.523 C 1036.936 597.257, 1037.110 594.818, 1036.634 582.023 C 1036.337 574.035, 1035.643 564.125, 1035.092 560 C 1034.541 555.875, 1033.829 550.250, 1033.509 547.500 C 1033.190 544.750, 1032.075 539.350, 1031.031 535.500 C 1026.376 518.337, 1026 514.952, 1026 490.237 C 1026 469.063, 1025.768 465.533, 1024.012 460.038 C 1020.830 450.076, 1017.042 443.989, 1012.054 440.823 C 1008.173 438.358, 1006.649 438.003, 1000.054 438.025 C 993.098 438.048, 992.143 438.311, 987.993 441.358" stroke="#e23b33" fill="#e23b33" fill-opacity="0.2" fill-rule="evenodd"/><path class="svg-region-Ol" d="M 624.500 169.052 C 606.543 172.443, 596.870 175.564, 587.500 180.988 C 581.148 184.666, 569.170 190.254, 562.500 192.651 C 560.300 193.442, 557.150 194.704, 555.500 195.455 C 553.850 196.206, 547.100 198.892, 540.500 201.424 C 533.900 203.956, 525.350 207.254, 521.500 208.752 C 509.135 213.565, 489.857 223.878, 476.530 232.808 C 460.081 243.832, 460.676 243.343, 447.012 257.041 C 434.800 269.284, 428.760 276.130, 425.500 281.424 C 424.400 283.211, 422.184 286.659, 420.576 289.086 C 416.278 295.574, 411.562 305.543, 409.027 313.500 C 407.801 317.350, 406.438 321.400, 406 322.500 C 403.941 327.662, 402.841 331.194, 400.551 340 C 396.235 356.600, 389.788 373.890, 380.920 392.652 C 378.308 398.179, 372.516 417.001, 371.120 424.500 C 367.758 442.568, 366.985 458.891, 366.743 517 C 366.506 574.016, 366.558 575.838, 368.791 588.816 C 372.527 610.527, 380.233 630.931, 390.552 646.431 C 392.723 649.692, 395.175 653.388, 396 654.643 C 396.825 655.899, 398.653 657.808, 400.062 658.887 C 401.470 659.966, 403.933 662.795, 405.534 665.174 C 418.195 683.990, 434.586 701.288, 448.500 710.516 C 455.254 714.996, 455.785 715.307, 465.500 720.485 C 488.371 732.675, 513.511 734.167, 547.180 725.335 C 552.504 723.938, 557.295 723.064, 557.826 723.393 C 558.357 723.721, 560.076 723.320, 561.646 722.501 C 563.216 721.682, 565.166 721.010, 565.981 721.006 C 567.559 721, 576.844 717.591, 581 715.493 C 582.375 714.799, 584.941 713.923, 586.703 713.546 C 588.465 713.170, 590.940 712.075, 592.203 711.113 C 593.466 710.152, 596.075 708.761, 598 708.023 C 599.925 707.284, 602.850 705.703, 604.500 704.509 C 606.150 703.314, 610.875 700.349, 615 697.919 C 620.764 694.523, 626.739 689.229, 640.811 675.052 C 650.882 664.905, 659.432 656.106, 659.811 655.497 C 660.190 654.888, 662.275 653.065, 664.444 651.445 C 666.613 649.825, 669.743 647.270, 671.398 645.767 C 673.054 644.264, 676.004 642.282, 677.954 641.363 C 679.904 640.444, 683.300 638.271, 685.500 636.535 C 687.700 634.798, 692.124 631.830, 695.331 629.938 C 702.300 625.830, 707.423 621.498, 719.502 609.500 C 729.067 599.999, 733.181 595.416, 736.560 590.500 C 737.694 588.850, 740.619 584.614, 743.061 581.086 C 748.037 573.896, 754.154 562.538, 761.420 547 C 762.834 543.975, 764.428 540.825, 764.962 540 C 766.458 537.686, 770 529.245, 770 527.992 C 770 526.937, 772.908 520.264, 777.119 511.655 C 778.154 509.541, 779 506.220, 779 504.274 C 779 502.329, 780.766 496.634, 782.923 491.619 C 785.081 486.604, 787.132 481.375, 787.481 480 C 787.830 478.625, 788.727 475.925, 789.473 474 C 790.220 472.075, 791.180 469.600, 791.608 468.500 C 792.036 467.400, 792.454 466.050, 792.537 465.500 C 792.620 464.950, 793.208 463.233, 793.844 461.685 C 794.480 460.137, 795 458.224, 795 457.435 C 795 456.646, 795.450 456, 796 456 C 796.550 456, 797 455.019, 797 453.821 C 797 452.623, 797.424 450.260, 797.942 448.571 C 800.125 441.454, 803.375 424.060, 803.562 418.500 C 803.753 412.804, 804.165 410.623, 807.711 396.563 C 810.106 387.068, 808.717 339.943, 805.381 317.500 C 803.992 308.150, 802.435 298.925, 801.923 297 C 797.046 278.665, 794.029 270.240, 790.109 264 C 789.591 263.175, 788.484 260.925, 787.649 259 C 786.815 257.075, 785.271 254.581, 784.220 253.457 C 782.420 251.534, 780.315 248.073, 778.163 243.500 C 777.645 242.400, 776.047 240.239, 774.611 238.698 C 773.175 237.158, 772 235.642, 772 235.330 C 772 235.019, 767.837 230.501, 762.750 225.292 C 752.823 215.127, 746.300 210.182, 736 205.010 C 732.425 203.215, 728.342 200.930, 726.927 199.931 C 725.512 198.933, 721.458 197.026, 717.918 195.693 C 714.377 194.361, 708.335 191.255, 704.490 188.793 C 694.225 182.216, 682.126 176.267, 667.376 170.542 C 658.686 167.169, 657.687 167.004, 646.376 167.082 C 639.279 167.131, 630.476 167.923, 624.500 169.052" stroke="#aa444d" fill="#aa444d" fill-opacity="0.2" fill-rule="evenodd"/><path class="svg-region-Or" d="M 1157 150.460 C 1139.216 154.163, 1122.943 162.093, 1103.260 176.647 C 1099.277 179.591, 1095.547 182, 1094.970 182 C 1093.467 182, 1063.985 211.870, 1058.710 218.737 C 1056.276 221.907, 1053.261 226.525, 1052.011 229 C 1050.761 231.475, 1048.924 234.658, 1047.928 236.073 C 1045.335 239.755, 1041.261 251.023, 1038.929 260.956 C 1037.826 265.655, 1036.302 271.975, 1035.543 275 C 1030.844 293.715, 1030.705 340.035, 1035.310 352.500 C 1036.122 354.700, 1037.364 358.075, 1038.069 360 C 1038.774 361.925, 1041.297 368.465, 1043.675 374.533 C 1046.054 380.601, 1048 385.875, 1048 386.251 C 1048 386.628, 1050.700 392.590, 1054 399.500 C 1057.300 406.410, 1060 412.730, 1060 413.545 C 1060 414.360, 1060.433 415.809, 1060.961 416.764 C 1064.136 422.497, 1077 450.180, 1077 451.278 C 1077 452.005, 1077.377 453.028, 1077.838 453.550 C 1078.907 454.761, 1085 470.295, 1085 471.808 C 1085 472.434, 1085.862 474.871, 1086.915 477.223 C 1087.969 479.575, 1089.981 485.325, 1091.386 490 C 1099.370 516.549, 1101.163 521.888, 1102.218 522.239 C 1102.859 522.453, 1104.157 525.974, 1105.102 530.064 C 1111.295 556.849, 1119.618 567.328, 1148.778 585.055 C 1157.901 590.600, 1161.792 592.735, 1178 601.087 C 1185.415 604.908, 1196.235 615.286, 1200.535 622.700 C 1204.044 628.752, 1215.994 645, 1216.936 645 C 1217.324 645, 1219.687 646.912, 1222.187 649.250 C 1228.481 655.136, 1233.788 659.137, 1238.498 661.549 C 1240.699 662.676, 1244.726 664.908, 1247.448 666.510 C 1250.169 668.111, 1256.019 670.700, 1260.448 672.261 C 1268.154 674.979, 1269.616 675.138, 1294.500 675.962 C 1312.137 676.546, 1322.108 677.296, 1325.500 678.293 C 1341.767 683.077, 1357.301 683.715, 1366 679.958 C 1380.232 673.810, 1397.492 659.756, 1410.161 644 C 1417.837 634.454, 1425.573 617.493, 1431.827 596.500 C 1434.707 586.834, 1435.523 582.864, 1438.407 564.500 C 1443.675 530.957, 1443.920 511.068, 1439.421 482 C 1437.151 467.330, 1436.573 459.324, 1435.845 432.500 C 1434.905 397.830, 1434.544 390.354, 1433.669 387.414 C 1433.356 386.361, 1432.373 378.975, 1431.484 371 C 1429.743 355.373, 1427.728 347.679, 1423.104 339 C 1415.693 325.090, 1413.558 321.260, 1412.513 320 C 1411.380 318.633, 1409.154 314.096, 1401.628 297.813 C 1400.183 294.685, 1398.994 291.535, 1398.987 290.813 C 1398.966 288.661, 1395.288 277.566, 1392.152 270.198 C 1383.977 250.986, 1365.571 226.742, 1349.251 213.688 C 1342.004 207.891, 1331.558 201, 1330.019 201 C 1329.500 201, 1325.797 199.472, 1321.788 197.605 C 1317.780 195.738, 1312.025 193.435, 1309 192.488 C 1303.033 190.620, 1284.383 183.657, 1279.434 181.449 C 1266.353 175.613, 1248.064 168.477, 1232 162.941 C 1228.425 161.709, 1223.025 159.818, 1220 158.739 C 1216.975 157.660, 1210.900 155.750, 1206.500 154.495 C 1202.100 153.240, 1197.150 151.651, 1195.500 150.965 C 1191.084 149.127, 1165.041 148.785, 1157 150.460" stroke="#aa444d" fill="#aa444d" fill-opacity="0.2" fill-rule="evenodd"/>
    </svg>