<svg xmlns="http://www.w3.org/2000/svg" width="1921" height="1027" viewBox="0 0 1921 1027" version="1.1">
    <path class="svg-region-B" d="M 998.566 439.659 C 995.852 441.071, 993.152 442.737, 992.566 443.363 C 990.798 445.249, 985.118 453.183, 981.729 458.500 C 979.976 461.250, 974.334 467.775, 969.189 473 C 958.639 483.716, 954.048 489.129, 951.804 493.500 C 950.957 495.150, 947.729 501.337, 944.632 507.248 C 941.534 513.160, 939 518.919, 939 520.047 C 939 521.175, 937.255 524.663, 935.122 527.799 C 932.990 530.934, 929.885 535.646, 928.224 538.268 L 925.203 543.036 920.919 539.768 C 916.952 536.741, 907.238 524.682, 907.072 522.579 C 907.033 522.072, 906.409 520.947, 905.688 520.079 C 904.966 519.210, 903.570 516.475, 902.586 514 C 894.529 493.739, 893.229 491.367, 888.076 487.529 C 877.068 479.329, 867.820 471.169, 864.813 467 C 860.155 460.544, 857.184 458.186, 851.392 456.346 C 843.268 453.766, 840.259 454.853, 833.600 462.771 C 830.488 466.472, 827.005 471.525, 825.860 474 C 815.610 496.159, 814.962 497.863, 814.061 505.042 C 813.590 508.792, 812.911 512.336, 812.551 512.918 C 810.110 516.868, 809.247 526.157, 809.152 549.500 C 809.065 571.256, 809.293 575.279, 810.914 580.500 C 813.381 588.448, 816.556 600.193, 818.078 607 C 820.362 617.215, 826.978 636.253, 831.424 645.404 C 833.854 650.407, 836.565 656.168, 837.448 658.208 C 838.331 660.247, 839.459 662.165, 839.954 662.471 C 840.449 662.777, 841.401 664.684, 842.069 666.708 C 842.736 668.731, 843.669 670.863, 844.141 671.444 C 844.613 672.025, 849.060 677.752, 854.024 684.172 C 866.708 700.577, 874.970 707.932, 890.500 716.646 C 894.900 719.115, 900.020 722.079, 901.878 723.234 C 906.657 726.205, 922.089 730, 929.387 730 C 938.728 730, 951.517 728.153, 957.391 725.955 C 960.639 724.740, 966.733 720.652, 973.359 715.245 C 979.252 710.435, 986.323 704.700, 989.071 702.500 C 991.851 700.275, 995.443 696.059, 997.166 693 C 1002.298 683.889, 1012.641 668.665, 1015.510 666 C 1016.991 664.625, 1019.743 660.452, 1021.625 656.727 C 1023.508 653.002, 1026.638 647.872, 1028.581 645.326 C 1033.630 638.711, 1035.696 634.243, 1037.579 625.864 C 1038.489 621.814, 1039.841 617.375, 1040.584 616 C 1041.326 614.625, 1043.175 607.425, 1044.693 600 C 1046.996 588.736, 1047.457 583.933, 1047.477 571 C 1047.498 556.808, 1047.259 554.699, 1044.649 546 C 1043.081 540.775, 1040.349 533.800, 1038.579 530.500 C 1033.316 520.689, 1032.929 517.888, 1032.572 487 C 1032.357 468.469, 1031.818 457.101, 1031.030 454.500 C 1029.418 449.182, 1018.779 438.606, 1014.099 437.670 C 1008.097 436.469, 1003.589 437.047, 998.566 439.659" stroke="#e23b33" fill="#e23b33" fill-opacity="0.2" fill-rule="evenodd"/><path class="svg-region-Ol" d="M 630 167.022 C 625.875 167.418, 619.800 168.721, 616.500 169.918 C 613.200 171.115, 607.575 172.943, 604 173.979 C 590.349 177.938, 581.302 181.454, 568.621 187.730 C 537.171 203.295, 522.071 210.422, 516 212.567 C 503.574 216.956, 481.894 226.506, 474 231.067 C 473.175 231.544, 469.125 233.837, 465 236.162 C 451.700 243.660, 430.551 261.666, 431.657 264.549 C 431.925 265.248, 431.325 266.080, 430.322 266.398 C 425.660 267.878, 411.828 294.556, 407.975 309.500 C 407.266 312.250, 405.886 316.112, 404.908 318.083 C 402.783 322.364, 398.460 334.180, 395.973 342.500 C 394.208 348.405, 391.461 356.577, 389.921 360.500 C 389.489 361.600, 388.453 365.200, 387.619 368.500 C 386.784 371.800, 385.433 376.525, 384.616 379 C 381.651 387.981, 379.023 397.657, 377.554 405 C 376.729 409.125, 374.902 417.900, 373.493 424.500 C 369.271 444.277, 365.186 471.284, 363.055 493.500 C 362.422 500.100, 361.395 510.675, 360.772 517 C 359.504 529.875, 359.139 583.161, 360.234 595.500 C 360.624 599.900, 361.631 606.109, 362.472 609.299 C 363.312 612.488, 364 615.810, 364 616.681 C 364 618.842, 375.934 643.326, 381.959 653.526 C 387.597 663.071, 388.505 664.224, 400.056 676.501 C 404.762 681.502, 412.345 690.973, 416.908 697.547 C 421.471 704.121, 427.296 711.460, 429.852 713.856 C 436.258 719.859, 442.550 725, 443.492 725 C 443.925 725, 446.568 726.408, 449.366 728.130 C 461.105 735.353, 478.135 738.939, 491.500 737.001 C 509.683 734.365, 513.772 733.624, 516.500 732.472 C 518.150 731.774, 523.325 729.995, 528 728.516 C 537.163 725.619, 565.348 716.164, 573.500 713.254 C 585.132 709.100, 603.330 697.077, 615 685.834 C 620.732 680.313, 636.335 663.305, 642.831 655.500 C 651.399 645.204, 662.320 634.475, 666.750 632.003 C 669.087 630.699, 671 629.046, 671 628.329 C 671 627.613, 672.462 626.334, 674.250 625.487 C 676.038 624.640, 678.625 623.290, 680 622.488 C 681.375 621.686, 683.257 621.023, 684.182 621.015 C 685.107 621.007, 686.786 619.705, 687.912 618.123 C 689.039 616.541, 691.657 614.451, 693.730 613.478 C 697.176 611.861, 702.596 607.939, 705.767 604.767 C 716.320 594.211, 724.644 584.794, 728.283 579.296 C 734.063 570.566, 742.826 554.285, 746.476 545.500 C 747.390 543.300, 749.682 538.350, 751.569 534.500 C 753.457 530.650, 755.001 526.744, 755.001 525.820 C 755 524.136, 758.203 517.150, 764.547 505 C 768.428 497.566, 774.555 482.062, 775.512 477.250 C 775.868 475.462, 776.524 474, 776.971 474 C 777.418 474, 778.087 472.790, 778.458 471.311 C 778.829 469.832, 780.003 467.400, 781.066 465.907 C 782.130 464.413, 783 462.672, 783 462.037 C 783 461.402, 784.800 457.163, 787 452.618 C 789.200 448.073, 791 443.144, 791 441.666 C 791 440.188, 791.961 436.933, 793.136 434.433 C 794.311 431.934, 795.249 428.001, 795.221 425.694 C 795.172 421.717, 796.081 417.553, 798.204 412.037 C 798.725 410.682, 799.334 407.401, 799.557 404.746 C 799.781 402.091, 801.270 396.900, 802.866 393.210 C 806.639 384.490, 807.160 380.334, 807.066 359.679 C 806.966 337.612, 805.623 317.495, 803.615 308 C 802.743 303.875, 801.354 296.693, 800.529 292.040 C 798.934 283.048, 798.038 280.681, 791.171 267.323 C 790.656 266.321, 789.117 263.315, 787.752 260.644 C 785.016 255.290, 775.307 243.265, 767.451 235.500 C 758.537 226.689, 752.169 221, 751.220 221 C 750.712 221, 748.911 219.762, 747.218 218.250 C 738.540 210.498, 733.945 206.941, 729.928 204.866 C 727.492 203.608, 722.365 200.424, 718.534 197.789 C 714.703 195.155, 711.186 193, 710.718 193 C 710.250 193, 708.209 191.417, 706.183 189.482 C 702.966 186.409, 697.993 183.530, 689.799 179.996 C 688.535 179.451, 686.825 178.630, 686 178.171 C 676.775 173.043, 663.371 168.335, 654.233 167.013 C 646.803 165.939, 641.262 165.941, 630 167.022" stroke="#aa444d" fill="#aa444d" fill-opacity="0.2" fill-rule="evenodd"/><path class="svg-region-Or" d="M 1178 153.072 C 1162.196 154.307, 1155.624 155.210, 1153 156.509 C 1151.625 157.190, 1147.350 158.511, 1143.500 159.445 C 1130.429 162.618, 1119.752 167.531, 1109.500 175.092 C 1104.005 179.144, 1096.544 183.065, 1090.771 184.934 C 1084.728 186.890, 1061 206.107, 1061 209.045 C 1061 209.490, 1059.987 210.675, 1058.750 211.677 C 1055.649 214.189, 1048.849 223.568, 1046.190 229 C 1043.436 234.627, 1040.614 239.555, 1039.105 241.373 C 1038.468 242.141, 1037.260 245.183, 1036.420 248.134 C 1032.434 262.143, 1030.849 269.777, 1028.658 285.500 C 1026.584 300.380, 1026.387 304.371, 1027.074 317.500 C 1027.506 325.750, 1028.558 336.775, 1029.412 342 C 1031.523 354.918, 1031.298 353.997, 1034.607 363.250 C 1034.952 364.212, 1035.533 365, 1035.899 365 C 1036.264 365, 1036.662 366.192, 1036.783 367.649 C 1036.904 369.106, 1037.416 370.797, 1037.923 371.407 C 1039.027 372.737, 1041.611 379.663, 1043.507 386.374 C 1044.265 389.055, 1045.754 392.205, 1046.816 393.374 C 1049.321 396.131, 1054.001 404.665, 1053.360 405.307 C 1053.087 405.579, 1055.315 409.784, 1058.310 414.651 C 1061.305 419.518, 1064.761 425.525, 1065.991 428 C 1067.220 430.475, 1069.187 433.547, 1070.363 434.826 C 1073.405 438.138, 1080.289 449.299, 1084.348 457.500 C 1090.775 470.486, 1095 479.869, 1095.015 481.188 C 1095.037 483.061, 1097.371 489.518, 1098.611 491.134 C 1099.187 491.885, 1100.682 494.975, 1101.933 498 C 1103.184 501.025, 1104.611 503.928, 1105.104 504.450 C 1105.597 504.973, 1106 506.035, 1106 506.811 C 1106 508.751, 1112.998 522.753, 1114.655 524.129 C 1115.395 524.743, 1116 526.033, 1116 526.996 C 1116 531.551, 1127.210 547.681, 1136.353 556.283 C 1141.312 560.949, 1157.958 572.162, 1162.485 573.887 C 1164.970 574.834, 1187.698 586.068, 1189.458 587.219 C 1190.535 587.924, 1192.029 589.063, 1192.779 589.750 C 1193.529 590.438, 1194.579 591, 1195.111 591 C 1196.599 591, 1209 603.678, 1209 605.200 C 1209 605.938, 1211.843 609.470, 1215.317 613.049 C 1221.361 619.274, 1227.097 623.175, 1242.500 631.537 C 1246.350 633.627, 1251.300 636.370, 1253.500 637.631 C 1258.018 640.223, 1273.855 648, 1274.614 648 C 1274.887 648, 1276.998 648.858, 1279.305 649.907 C 1290.289 654.899, 1295.343 657.001, 1296.374 657.006 C 1296.993 657.010, 1298.850 657.718, 1300.500 658.580 C 1302.150 659.443, 1308.675 661.946, 1315 664.143 C 1321.325 666.340, 1331 669.702, 1336.500 671.614 C 1342 673.525, 1350.100 675.742, 1354.500 676.539 C 1358.900 677.336, 1366.325 678.880, 1371 679.970 C 1386.002 683.469, 1390.076 682.884, 1406.511 674.879 C 1413.576 671.437, 1417.107 668.894, 1423.005 663 C 1432.151 653.860, 1445.903 635.007, 1452.025 623.216 C 1461.511 604.947, 1463.728 598.269, 1470.196 568.500 C 1471.900 560.657, 1471.911 527.854, 1470.214 514 C 1468.767 502.192, 1463.840 480.069, 1460.970 472.500 C 1454.982 456.705, 1449.174 428.677, 1446.464 402.500 C 1445.287 391.133, 1442.882 377.579, 1440.697 370 C 1438.162 361.206, 1428.867 339.698, 1426.402 336.921 C 1425.631 336.053, 1425 334.859, 1425 334.267 C 1425 333.676, 1423.230 329.436, 1421.067 324.846 C 1418.903 320.256, 1414.595 310.650, 1411.493 303.500 C 1408.391 296.350, 1403.805 286, 1401.301 280.500 C 1398.798 275, 1395.641 268.025, 1394.285 265 C 1386.484 247.590, 1378.208 232.500, 1372.347 225 C 1369.983 221.975, 1366.801 217.841, 1365.275 215.814 C 1361.969 211.422, 1348.819 201.540, 1340.470 197.173 C 1326.214 189.717, 1306.120 181.995, 1281.500 174.510 C 1260.662 168.175, 1257.445 167.234, 1240.500 162.508 C 1231.150 159.901, 1219.468 156.470, 1214.541 154.884 C 1204.882 151.775, 1198.591 151.463, 1178 153.072" stroke="#aa444d" fill="#aa444d" fill-opacity="0.2" fill-rule="evenodd"/>
    </svg>