<svg xmlns="http://www.w3.org/2000/svg" width="1921" height="1027" viewBox="0 0 1921 1027" version="1.1">
    <path class="svg-region-B" d="M 987.717 434.008 C 985.265 435.937, 978.552 448.709, 976.159 456.001 C 975.526 457.927, 972.576 462.695, 969.603 466.598 C 966.630 470.501, 963.261 475.450, 962.118 477.597 C 960.975 479.744, 958.696 483.300, 957.054 485.500 C 952.950 490.998, 949.608 497.471, 947.503 504 C 944.952 511.908, 943.418 514.630, 936.988 522.650 C 933.835 526.583, 930.639 531.195, 929.884 532.900 C 929.129 534.605, 928.172 536, 927.756 536 C 927.340 536, 926.998 538.813, 926.996 542.250 L 926.993 548.500 924.875 545 C 923.711 543.075, 922.363 541.350, 921.879 541.167 C 921.396 540.983, 921 540.130, 921 539.271 C 921 538.411, 916.950 533.692, 912 528.785 C 907.050 523.877, 903 519.480, 903 519.014 C 903 518.548, 902.663 518.017, 902.250 517.833 C 901.837 517.650, 900.189 514.708, 898.588 511.295 C 894.749 503.116, 886.956 494.997, 879.511 491.421 C 877.855 490.625, 873.655 487.555, 870.177 484.597 C 863.528 478.944, 861.798 478.306, 850.500 477.346 C 844.479 476.835, 842.801 477.079, 838.500 479.094 C 832.507 481.901, 824.994 489.131, 822.029 494.944 C 819.705 499.498, 816.367 513.240, 814.848 524.500 C 813.696 533.040, 811.842 561.519, 811.463 576.500 C 811.153 588.719, 813.950 609.635, 817.129 618.875 C 818.158 621.866, 819 624.946, 819 625.721 C 819 626.495, 820.125 629.588, 821.500 632.594 C 822.875 635.600, 824 638.426, 824 638.875 C 824 639.323, 825.800 642.475, 828 645.879 C 830.200 649.283, 832 652.322, 832 652.634 C 832 653.091, 844.046 667.138, 846.034 669 C 846.328 669.275, 848.353 671.750, 850.534 674.500 C 852.715 677.250, 855.013 679.950, 855.641 680.500 C 856.268 681.050, 859.355 684.425, 862.501 688 C 865.647 691.575, 870.533 696.212, 873.360 698.305 C 876.187 700.398, 879.175 702.658, 880 703.328 C 880.825 703.998, 887.068 707.886, 893.874 711.968 C 902.785 717.313, 907.963 719.750, 912.374 720.674 C 920.599 722.398, 936.065 722.309, 943.769 720.492 C 949.897 719.048, 959.220 714.921, 961.503 712.642 C 962.132 712.014, 964.785 709.925, 967.398 708 C 987.816 692.956, 996.260 684.631, 1010.502 665.500 C 1012.549 662.750, 1014.743 660.050, 1015.378 659.500 C 1021.523 654.171, 1038.854 623.399, 1042.628 611.114 C 1045.134 602.955, 1045.188 602.198, 1044.615 583.114 C 1043.399 542.639, 1039.060 517.136, 1029.028 491.500 C 1027.307 487.100, 1024.522 479.675, 1022.840 475 C 1017.473 460.083, 1014.817 453.540, 1013.506 452 C 1012.803 451.175, 1011.002 448.025, 1009.504 445 C 1003.890 433.663, 994.304 428.827, 987.717 434.008" stroke="#e23b33" fill="#e23b33" fill-opacity="0.2" fill-rule="evenodd"/><path class="svg-region-Ol" d="M 625 181.410 C 621.425 182.095, 616.925 183.172, 615 183.803 C 613.075 184.434, 606.100 185.837, 599.500 186.919 C 586.991 188.972, 567.772 195.044, 540.500 205.560 C 536.650 207.044, 531.475 208.916, 529 209.719 C 526.525 210.522, 521.575 212.439, 518 213.981 C 514.425 215.522, 508.260 217.738, 504.301 218.905 C 500.341 220.072, 496.827 221.471, 496.492 222.013 C 496.156 222.556, 495.212 223, 494.393 223 C 492.839 223, 490.165 224.239, 478.500 230.367 C 471.139 234.233, 470.111 234.830, 463.200 239.250 C 460.835 240.762, 458.533 242, 458.086 242 C 456.683 242, 442.736 253.595, 437.431 259.171 C 429.115 267.913, 424.314 274.597, 419.627 283.961 C 417.188 288.833, 414.874 293.873, 414.485 295.160 C 414.096 296.447, 413.196 298.850, 412.485 300.500 C 410.774 304.474, 403.290 327.070, 401.421 333.910 C 400.608 336.885, 399.297 340.710, 398.508 342.410 C 397.719 344.109, 396.107 349.100, 394.925 353.500 C 393.743 357.900, 392.447 361.950, 392.044 362.500 C 391.642 363.050, 390.531 366.425, 389.576 370 C 388.620 373.575, 387.032 378.975, 386.045 382 C 375.466 414.444, 365.268 460.233, 362.994 485.500 C 362.400 492.100, 361.174 500.650, 360.270 504.500 C 358.464 512.192, 357.907 541.617, 359.201 561 C 360.326 577.848, 365.349 608.479, 367.171 609.606 C 367.627 609.887, 368 611.190, 368 612.500 C 368 613.810, 368.450 615.160, 369 615.500 C 369.550 615.840, 370 616.917, 370 617.894 C 370 618.870, 371.628 623.006, 373.617 627.085 C 375.607 631.163, 378.530 637.425, 380.112 641 C 381.694 644.575, 383.741 648.850, 384.660 650.500 C 385.579 652.150, 387.592 655.774, 389.134 658.554 C 391.006 661.928, 398.964 670.403, 413.078 684.054 C 424.705 695.299, 434.732 704.950, 435.359 705.500 C 441.738 711.091, 457.932 718.595, 470 721.550 C 480.997 724.243, 492.575 723.888, 502 720.567 C 506.125 719.114, 510.850 717.521, 512.500 717.027 C 523.035 713.872, 536.246 709.595, 547.500 705.697 C 554.650 703.221, 563.875 700.205, 568 698.996 C 572.125 697.787, 576.400 696.418, 577.500 695.955 C 578.600 695.492, 581.525 694.826, 584 694.476 C 589.141 693.747, 604.753 686.173, 609.959 681.882 C 611.882 680.297, 613.822 679, 614.270 679 C 614.718 679, 615.628 678.546, 616.292 677.991 C 616.956 677.436, 619.880 675.133, 622.790 672.874 C 625.699 670.615, 629.322 667.581, 630.840 666.133 C 641.998 655.487, 649.318 648.321, 654.353 643.112 C 663.440 633.712, 676.151 625.895, 686.169 623.545 C 689.638 622.731, 693.672 620.815, 696.563 618.608 C 699.162 616.623, 702.123 615, 703.144 615 C 704.165 615, 705 614.550, 705 614 C 705 613.450, 705.563 612.991, 706.250 612.980 C 706.938 612.969, 709.750 610.685, 712.500 607.906 C 725.689 594.574, 727.645 592.684, 729.633 591.353 C 730.806 590.567, 732.046 588.519, 732.390 586.801 C 732.733 585.083, 733.877 583.074, 734.931 582.336 C 735.985 581.598, 737.400 579.308, 738.075 577.247 C 738.751 575.186, 739.882 572.600, 740.589 571.500 C 741.297 570.400, 742.601 567.250, 743.488 564.500 C 744.375 561.750, 745.502 558.600, 745.992 557.500 C 746.482 556.400, 747.173 553.925, 747.526 552 C 748.372 547.392, 751.849 535.035, 753.013 532.500 C 753.518 531.400, 754.861 527.575, 755.997 524 C 757.133 520.425, 758.891 515.925, 759.903 514 C 760.914 512.075, 762.034 509.262, 762.390 507.750 C 762.747 506.237, 763.467 505, 763.991 505 C 764.515 505, 765.695 502.418, 766.612 499.262 C 767.530 496.106, 768.621 492.844, 769.037 492.012 C 770.527 489.037, 772.943 482.431, 773.979 478.500 C 774.558 476.300, 775.700 473.626, 776.516 472.559 C 777.332 471.491, 778 469.992, 778 469.228 C 778 468.463, 779.575 464.700, 781.500 460.864 C 783.425 457.028, 785 453.115, 785 452.168 C 785 451.220, 785.646 449.523, 786.435 448.396 C 787.832 446.401, 790.538 437.193, 793.604 424 C 794.434 420.425, 795.567 415.700, 796.120 413.500 C 799.677 399.356, 802.968 381.093, 802.786 376.500 C 802.699 374.300, 802.712 365.975, 802.814 358 C 803.002 343.388, 802.855 340.894, 800.848 324.500 C 799.549 313.893, 793.913 290.666, 791.512 286.024 C 790.588 284.236, 787.844 279.870, 785.416 276.323 C 782.987 272.776, 781 269.507, 781 269.059 C 781 268.611, 780.387 267.736, 779.638 267.114 C 778.889 266.493, 776.171 262.420, 773.599 258.063 C 767.961 248.516, 759.778 240.656, 749.010 234.445 C 744.697 231.958, 738.121 227.494, 734.397 224.526 C 730.672 221.557, 722.984 216.800, 717.312 213.953 C 711.641 211.106, 707 208.410, 707 207.962 C 707 207.514, 704.485 205.917, 701.411 204.413 C 698.337 202.909, 694.877 200.401, 693.723 198.839 C 692.568 197.278, 691.181 196, 690.641 196 C 690.100 196, 688.947 195.364, 688.079 194.587 C 686.438 193.118, 682.333 191.504, 663 184.726 C 652.972 181.210, 650.220 180.660, 641.500 180.429 C 636 180.284, 628.575 180.725, 625 181.410" stroke="#aa444d" fill="#aa444d" fill-opacity="0.2" fill-rule="evenodd"/><path class="svg-region-Or" d="M 1183.500 153.030 C 1179.100 154.050, 1174.182 154.911, 1172.571 154.943 C 1169.615 155.001, 1168.757 155.215, 1157 158.841 C 1153.425 159.943, 1149.150 161.131, 1147.500 161.481 C 1139.053 163.272, 1104.292 181.616, 1094.404 189.500 C 1092.335 191.150, 1088.135 194.502, 1085.071 196.948 C 1075.338 204.720, 1071.089 209.161, 1062.944 220.075 C 1058.575 225.930, 1055 231.022, 1055 231.392 C 1055 231.761, 1052.562 235.311, 1049.583 239.282 C 1044.595 245.927, 1042.870 249.481, 1037.097 265 C 1034.092 273.079, 1030.797 288.898, 1030.855 294.965 C 1030.873 296.871, 1030.449 298.959, 1029.913 299.605 C 1028.804 300.941, 1028.329 335.113, 1029.323 342 C 1031.460 356.800, 1034.394 368.059, 1038.614 377.651 C 1039.376 379.384, 1040 381.271, 1040 381.843 C 1040 383.643, 1048.021 399.773, 1049.545 401.038 C 1050.345 401.702, 1051 402.759, 1051 403.387 C 1051 405.191, 1055.097 412.416, 1056.621 413.300 C 1057.379 413.740, 1058 414.697, 1058 415.427 C 1058 416.158, 1058.745 417.373, 1059.655 418.128 C 1060.565 418.882, 1061.954 420.850, 1062.742 422.500 C 1065.197 427.644, 1067.619 431.800, 1069.853 434.704 C 1072.630 438.312, 1083 455.013, 1083 455.876 C 1083 456.239, 1084.220 458.328, 1085.712 460.518 C 1089.886 466.647, 1093.658 477.838, 1100.028 503 C 1102.345 512.148, 1108.145 526.939, 1111.008 531 C 1111.978 532.375, 1113.521 535.300, 1114.437 537.500 C 1120.566 552.215, 1139.566 571.167, 1156.292 579.252 C 1161.356 581.700, 1168.875 584.959, 1173 586.495 C 1190.464 592.997, 1193.791 595.241, 1214.354 614.392 C 1229.394 628.398, 1245.269 640.158, 1259.925 648.150 C 1272.575 655.049, 1291.318 663, 1294.930 663 C 1296.027 663, 1299.304 663.841, 1302.212 664.870 C 1308.814 667.204, 1315.935 669.138, 1332.500 673.093 C 1345.182 676.121, 1346.135 676.201, 1371.500 676.349 L 1397.500 676.500 1404.431 673.231 C 1408.243 671.433, 1412.826 668.844, 1414.616 667.479 C 1419.137 664.031, 1439.618 633.737, 1446.004 621.051 C 1448.730 615.636, 1456 594.620, 1456 592.154 C 1456 591.176, 1456.885 586.999, 1457.966 582.872 C 1459.047 578.744, 1460.674 569.772, 1461.581 562.933 C 1463.761 546.503, 1462.948 518.157, 1459.475 489.500 C 1458.075 477.950, 1456.517 458.600, 1456.013 446.500 C 1454.345 406.487, 1453.999 400.821, 1453.133 399.274 C 1452.661 398.430, 1452.466 395.886, 1452.700 393.620 C 1453.265 388.139, 1446.545 356.695, 1442.737 347 C 1442.412 346.175, 1440.746 341.450, 1439.033 336.500 C 1435.380 325.942, 1432.453 318.248, 1429.713 312 C 1428.628 309.525, 1426.880 305.475, 1425.829 303 C 1424.778 300.525, 1422.985 296.700, 1421.844 294.500 C 1412.214 275.926, 1408.642 269.289, 1407.583 268 C 1406.906 267.175, 1403.944 262.675, 1401.001 258 C 1398.059 253.325, 1393.684 247.025, 1391.278 244 C 1388.873 240.975, 1385.689 236.977, 1384.203 235.116 C 1372.521 220.490, 1343.272 198.129, 1330.449 194.021 C 1328.277 193.326, 1324.925 191.940, 1323 190.943 C 1321.075 189.945, 1317.700 188.372, 1315.500 187.445 C 1313.300 186.519, 1309.250 184.720, 1306.500 183.446 C 1303.750 182.173, 1299.700 180.474, 1297.500 179.671 C 1295.300 178.868, 1286.525 175.415, 1278 171.999 C 1269.475 168.582, 1261.375 165.430, 1260 164.993 C 1246.719 160.779, 1231.545 156.319, 1222.304 153.914 C 1208.810 150.402, 1196.078 150.112, 1183.500 153.030" stroke="#aa444d" fill="#aa444d" fill-opacity="0.2" fill-rule="evenodd"/>
    </svg>