<svg xmlns="http://www.w3.org/2000/svg" width="1921" height="1027" viewBox="0 0 1921 1027" version="1.1">
    <path class="svg-region-SF" d="M 885.500 195.020 C 872.873 195.838, 865.541 197.709, 855.152 202.761 C 845.459 207.476, 837.157 214.122, 831.746 221.500 C 826.816 228.222, 825.743 230.665, 823.619 240 C 819.772 256.902, 819.836 256.272, 821.381 262.204 C 822.191 265.314, 823.319 268.728, 823.889 269.792 C 825.430 272.671, 831.718 277.905, 834.268 278.431 C 845.402 280.727, 859.952 281.519, 866.467 280.183 C 869.235 279.616, 873.750 278.700, 876.500 278.149 C 879.250 277.598, 883.975 276.407, 887 275.504 C 890.480 274.464, 900.949 273.342, 915.500 272.449 C 941.228 270.870, 945.695 269.881, 954.043 263.917 C 957.044 261.772, 961.975 258.255, 965 256.101 C 968.025 253.946, 972.188 250.568, 974.250 248.594 C 977.801 245.195, 978 244.673, 977.999 238.752 C 977.998 227.021, 972.101 218.563, 954.422 204.935 C 944.624 197.383, 941.293 196.246, 925.466 195.056 C 910.331 193.917, 902.624 193.910, 885.500 195.020" stroke="#8c6b55" fill="#8c6b55" fill-opacity="0.2" fill-rule="evenodd"/><path class="svg-region-IF" d="M 893 284.991 C 889.975 285.472, 881.425 286.319, 874 286.875 C 856.367 288.194, 850.797 289.916, 846.939 295.243 C 841.855 302.261, 843.042 307.726, 854.166 328.505 C 860.538 340.407, 869.403 350.042, 875.562 351.759 C 877.728 352.363, 881.300 353.545, 883.500 354.385 C 886.608 355.572, 892.141 355.922, 908.312 355.956 C 929.647 356.001, 933.256 355.513, 943 351.262 C 947.023 349.506, 961.789 334.841, 963.954 330.450 C 964.754 328.827, 966.174 326.600, 967.109 325.500 C 969.904 322.211, 974 311.336, 974 307.204 C 974 303.315, 971.828 300.286, 967.120 297.611 C 966.045 297, 962.541 295.007, 959.333 293.182 C 945.160 285.120, 943.743 284.806, 920 284.445 C 908.175 284.265, 896.025 284.511, 893 284.991" stroke="#f2823b" fill="#f2823b" fill-opacity="0.2" fill-rule="evenodd"/><path class="svg-region-B" d="M 977.825 481.974 C 975.253 483.589, 972.778 485.551, 972.325 486.334 C 971.871 487.116, 969.879 488.849, 967.897 490.184 C 962.296 493.957, 951 504.221, 951 505.537 C 951 506.187, 948.188 509.611, 944.750 513.144 C 926.790 531.608, 919.989 533.788, 905.722 525.658 C 893.710 518.812, 883 510.130, 883 507.237 C 883 506.491, 880.812 503.545, 878.137 500.690 C 875.462 497.836, 872.104 493.623, 870.675 491.330 C 869.245 489.036, 866.403 485.886, 864.359 484.330 C 860.930 481.719, 859.978 481.504, 852.071 481.553 C 842.625 481.611, 839.866 482.618, 833.946 488.168 C 828.865 492.932, 821.589 505.329, 819.080 513.500 C 817.898 517.350, 816.027 523.226, 814.924 526.557 C 813.820 529.888, 812.494 536.638, 811.976 541.557 C 810.761 553.111, 810.775 595.728, 811.999 608 C 812.952 617.568, 816.805 630.772, 821.106 639.213 C 824.885 646.631, 835.957 664.661, 838.277 667.175 C 845.027 674.491, 852.907 683.997, 855.126 687.500 C 856.520 689.700, 858.805 693.300, 860.204 695.500 C 866.380 705.214, 876.885 714.305, 889.337 720.710 C 896.689 724.492, 909.427 725.060, 920.800 722.112 C 925.281 720.950, 929.935 720, 931.143 720 C 932.350 720, 935.730 718.650, 938.654 717 C 941.578 715.350, 944.394 714, 944.913 714 C 947.116 714, 959.234 705.995, 968.662 698.313 C 985.112 684.908, 1005.321 661.923, 1016.088 644.372 C 1031.319 619.544, 1035 605.176, 1035 570.565 C 1035 547.807, 1033.805 537.999, 1029.569 526 C 1024.158 510.675, 1019.410 502.485, 1010.500 493.109 C 999.803 481.852, 995.251 478.994, 988.054 479.019 C 983.658 479.034, 981.525 479.650, 977.825 481.974" stroke="#e23b33" fill="#e23b33" fill-opacity="0.2" fill-rule="evenodd"/><path class="svg-region-Ol" d="M 599 192.438 C 586.088 193.584, 577.419 195.551, 565 200.153 C 561.975 201.274, 557.475 202.907, 555 203.781 C 525.805 214.094, 514.252 218.956, 507 223.982 C 505.625 224.935, 502.250 226.949, 499.500 228.459 C 483.592 237.193, 449.267 265.243, 441.324 276 C 434.312 285.495, 426 298.196, 426 299.416 C 426 300.117, 425.043 301.547, 423.873 302.595 C 422.076 304.205, 415.349 317.227, 411.783 326 C 411.224 327.375, 410.331 329.343, 409.798 330.373 C 408.053 333.746, 402 348.419, 402 349.275 C 402 349.734, 401.036 352.223, 399.859 354.805 C 398.681 357.387, 396.251 363.325, 394.458 368 C 389.906 379.870, 383.909 394.022, 378.966 404.554 C 366.812 430.451, 361.065 449.610, 357.537 476 C 356.250 485.625, 354.292 499.575, 353.185 507 C 349.372 532.577, 348.681 543.691, 350.045 557.559 C 351.258 569.896, 350.982 582.371, 349.123 599.220 C 347.718 611.954, 350.495 625.893, 356.939 638.453 C 366.763 657.602, 377.447 673.193, 388.577 684.622 C 393.332 689.505, 399.569 696.650, 402.436 700.500 C 405.304 704.350, 408.966 708.909, 410.575 710.631 C 414.606 714.946, 425.959 722.500, 433.894 726.147 C 446.575 731.975, 448.830 732.358, 470.500 732.371 C 502.428 732.390, 525.258 731.522, 527.678 730.198 C 528.875 729.543, 530.485 729.249, 531.255 729.544 C 532.025 729.840, 535.770 729.004, 539.577 727.688 C 543.385 726.371, 547.850 725.228, 549.500 725.149 C 553.571 724.952, 563.266 721.970, 564.500 720.536 C 565.050 719.896, 568.200 718.657, 571.500 717.782 C 574.800 716.907, 579.525 715.658, 582 715.006 C 587.585 713.535, 602.615 707.202, 606.061 704.868 C 607.470 703.914, 609.945 702.815, 611.561 702.426 C 613.177 702.036, 615.301 700.886, 616.279 699.870 C 617.257 698.853, 619.416 697.319, 621.076 696.461 C 624.681 694.596, 626.953 692.820, 632.532 687.500 C 639.026 681.308, 647.321 673.224, 649.187 671.268 C 650.115 670.296, 653.171 667.475, 655.978 665 C 658.784 662.525, 663.432 658.250, 666.306 655.500 C 671.692 650.346, 674.952 647.937, 681 644.643 C 682.925 643.594, 685.765 641.502, 687.312 639.994 C 688.858 638.485, 692.458 635.992, 695.312 634.454 C 698.165 632.916, 700.725 631.333, 701 630.936 C 701.275 630.539, 703.810 628.479, 706.632 626.357 C 719.992 616.317, 742 595.737, 742 593.285 C 742 592.578, 742.466 592, 743.036 592 C 743.605 592, 744.896 590.076, 745.904 587.724 C 746.912 585.372, 748.665 581.528, 749.798 579.181 C 750.932 576.834, 752.145 573.615, 752.494 572.026 C 752.843 570.438, 753.775 568.602, 754.564 567.947 C 755.354 567.291, 756.016 565.123, 756.035 563.128 C 756.055 561.132, 756.714 558.375, 757.500 557 C 758.286 555.625, 758.945 553.318, 758.965 551.872 C 758.984 550.427, 759.675 548.685, 760.500 548 C 761.463 547.200, 762.016 544.921, 762.044 541.628 C 762.068 538.807, 762.775 534.700, 763.615 532.500 C 764.454 530.300, 765.829 526.250, 766.670 523.500 C 773.604 500.817, 774.972 496.853, 779.361 486.716 C 780.263 484.635, 781 482.249, 781 481.413 C 781 480.577, 782.125 478.238, 783.500 476.215 C 784.875 474.191, 786 471.976, 786 471.292 C 786 470.608, 786.898 468.575, 787.996 466.774 C 789.094 464.973, 789.994 462.957, 789.996 462.294 C 789.998 461.631, 791.125 459.431, 792.500 457.405 C 793.875 455.379, 795 452.778, 795 451.625 C 795 450.472, 796.094 447.272, 797.430 444.514 C 798.767 441.756, 800.146 437.764, 800.496 435.641 C 800.850 433.490, 802.190 430.801, 803.524 429.565 C 804.841 428.345, 806.382 426.124, 806.951 424.630 C 808.112 421.574, 812.294 396.858, 812.302 393 C 812.338 375.258, 809.943 356.669, 803.347 323.500 C 801.925 316.350, 800.684 309.600, 800.589 308.500 C 800.355 305.780, 799.226 302.514, 796.267 296 C 794.892 292.975, 792.194 286.937, 790.271 282.582 C 784.022 268.430, 779.550 262.608, 770.623 257.001 C 764.610 253.225, 757.263 249.959, 751.264 248.396 C 739.689 245.381, 723.328 236.406, 712.994 227.403 C 711.162 225.806, 707.046 222.195, 703.848 219.377 C 694.995 211.578, 675.522 202.729, 656.556 197.887 C 652.125 196.755, 648.050 195.473, 647.500 195.038 C 643.726 192.050, 618.571 190.701, 599 192.438" stroke="#aa444d" fill="#aa444d" fill-opacity="0.2" fill-rule="evenodd"/><path class="svg-region-Or" d="M 1195.068 156.055 C 1180.613 158.107, 1150.168 167.775, 1137 174.494 C 1119.412 183.468, 1113.126 187.601, 1102.007 197.500 C 1090.949 207.345, 1086.952 210.341, 1080.570 213.575 C 1055.486 226.283, 1046 232.304, 1046 235.517 C 1046 236.278, 1045.405 237.260, 1044.679 237.700 C 1043.311 238.528, 1039.728 245.619, 1038.464 250 C 1038.067 251.375, 1036.675 254.428, 1035.371 256.785 C 1034.067 259.142, 1033 262.561, 1033 264.382 C 1033 266.203, 1032.283 269.129, 1031.408 270.884 C 1030.532 272.640, 1029.686 275.072, 1029.528 276.288 C 1029.060 279.885, 1026.008 296.134, 1024.887 301 C 1021.420 316.052, 1020.085 326.896, 1020.408 337.413 C 1020.875 352.673, 1022.018 361.770, 1023.636 363.113 C 1024.386 363.736, 1025 365.533, 1025 367.108 C 1025 373.337, 1029.599 390.045, 1033.503 398 C 1035.257 401.575, 1037.594 406.525, 1038.696 409 C 1043.888 420.659, 1045.523 423.828, 1048.580 428.160 C 1050.388 430.724, 1052.862 434.774, 1054.077 437.160 C 1055.293 439.547, 1058.585 444.827, 1061.393 448.893 C 1071.080 462.918, 1079.172 475.515, 1081.696 480.500 C 1083.089 483.250, 1084.772 486.175, 1085.437 487 C 1086.705 488.573, 1089.166 496.093, 1093.617 512 C 1095.079 517.225, 1097.215 523.750, 1098.364 526.500 C 1106.380 545.694, 1120.065 565.125, 1130.306 571.853 C 1131.685 572.759, 1135.443 575.575, 1138.657 578.110 C 1141.870 580.646, 1146.361 583.618, 1148.636 584.715 C 1150.911 585.811, 1153.386 587.241, 1154.136 587.892 C 1154.886 588.543, 1159.775 592.300, 1165 596.241 C 1170.225 600.182, 1174.860 603.990, 1175.300 604.703 C 1175.740 605.416, 1176.516 606, 1177.024 606 C 1177.980 606, 1193.726 618.402, 1195.500 620.552 C 1196.050 621.219, 1199.650 623.813, 1203.500 626.317 C 1207.350 628.822, 1212.754 633.037, 1215.508 635.685 C 1225.578 645.365, 1233.094 652, 1233.992 652 C 1234.497 652, 1236.569 653.125, 1238.595 654.500 C 1240.621 655.875, 1243.176 657, 1244.272 657 C 1245.367 657, 1247.689 657.881, 1249.430 658.957 C 1256.278 663.189, 1273.837 668.312, 1288.700 670.414 C 1292.652 670.973, 1305.850 674.717, 1312.500 677.166 C 1332.289 684.454, 1340.775 686.031, 1363.165 686.578 C 1377.270 686.923, 1381.264 686.672, 1389.165 684.944 C 1394.299 683.820, 1400.355 682.498, 1402.623 682.005 C 1413.287 679.685, 1429.381 669.414, 1444.936 655 C 1449.166 651.080, 1457.623 639.866, 1462.017 632.351 C 1466.737 624.279, 1473.434 607.101, 1478.139 591 C 1481.460 579.638, 1481.499 579.266, 1481.441 560 C 1481.383 541.055, 1481.262 539.931, 1477.186 520.500 C 1474.878 509.500, 1472.122 496.225, 1471.062 491 C 1469.765 484.607, 1468.622 471.524, 1467.567 451 C 1466.705 434.225, 1465.325 416.675, 1464.501 412 C 1463.677 407.325, 1463.002 401.700, 1463.001 399.500 C 1463 395.475, 1461.313 386.037, 1458.444 374 C 1457.592 370.425, 1456.500 365.700, 1456.018 363.500 C 1455.536 361.300, 1454.219 357.475, 1453.092 355 C 1451.966 352.525, 1451.034 349.831, 1451.022 349.014 C 1450.976 345.911, 1439.475 323.030, 1432.250 311.667 C 1430.093 308.275, 1425.581 301, 1422.224 295.500 C 1418.867 290, 1414.405 282.809, 1412.310 279.520 C 1410.214 276.230, 1407.227 271.091, 1405.670 268.098 C 1404.114 265.105, 1401.751 261.229, 1400.420 259.484 C 1399.089 257.739, 1398 255.992, 1398 255.601 C 1398 254.911, 1392.606 246.935, 1386.500 238.597 C 1381.935 232.362, 1366.676 216.860, 1355.500 207.101 C 1344.244 197.273, 1333.235 191.422, 1314 185.046 C 1310.975 184.043, 1305.350 182.003, 1301.500 180.512 C 1280.747 172.476, 1250.795 162.040, 1245.500 161 C 1243.300 160.568, 1237.900 159.304, 1233.500 158.190 C 1224.597 155.936, 1203.976 154.790, 1195.068 156.055" stroke="#aa444d" fill="#aa444d" fill-opacity="0.2" fill-rule="evenodd"/>
    </svg>