<svg xmlns="http://www.w3.org/2000/svg" width="1921" height="1027" viewBox="0 0 1921 1027" version="1.1">
    <path class="svg-region-SF" d="M 894 203.988 C 889.875 204.401, 881.582 204.797, 875.570 204.869 C 864.753 204.999, 855.558 206.941, 849 210.482 C 847.625 211.225, 843.214 213.510, 839.198 215.561 C 829.906 220.306, 825.813 225.253, 816.060 243.525 C 815.172 245.189, 813.234 248.138, 811.753 250.079 C 808.565 254.259, 806 260.072, 806 263.118 C 806 264.319, 804.823 267.706, 803.385 270.645 C 798.090 281.469, 799.339 294.742, 806.197 300.513 L 809.251 303.082 825.875 302.397 C 836.676 301.952, 843.151 301.265, 844.358 300.436 C 845.392 299.727, 847.609 299.386, 849.358 299.668 C 851.265 299.975, 854.534 299.371, 857.677 298.131 C 860.524 297.007, 866.945 295.377, 871.946 294.509 C 888.859 291.575, 940.885 289.865, 946.643 292.055 C 948.169 292.635, 953.717 293.371, 958.972 293.691 C 967.472 294.209, 969.354 293.994, 976.013 291.744 C 993.677 285.777, 1004.247 280.799, 1006.475 277.398 C 1008.251 274.688, 1008.491 266.399, 1006.911 262.315 C 1006.312 260.767, 1005.649 258.640, 1005.438 257.589 C 1005.226 256.538, 1003.916 253.960, 1002.526 251.861 C 1001.137 249.761, 1000 247.652, 1000 247.174 C 1000 246.696, 997.188 243.749, 993.750 240.625 C 990.313 237.501, 986.150 233.664, 984.500 232.099 C 966.725 215.229, 938.922 204.425, 911 203.539 C 905.775 203.373, 898.125 203.575, 894 203.988" stroke="#8c6b55" fill="#8c6b55" fill-opacity="0.2" fill-rule="evenodd"/><path class="svg-region-IF" d="M 896 292.037 C 879.262 292.952, 865.083 295.207, 857.677 298.131 C 854.426 299.414, 851.283 299.978, 849.230 299.647 C 846.413 299.192, 845.418 299.666, 842.058 303.060 C 839.912 305.227, 837.515 307, 836.730 307 C 835.946 307, 834.551 308.688, 833.632 310.750 C 831.235 316.127, 831.052 336.957, 833.354 342.372 C 834.259 344.502, 835.025 347.427, 835.056 348.872 C 835.176 354.504, 842.262 367.342, 848.649 373.500 C 855.714 380.312, 872.271 387.107, 876.303 384.850 C 877.160 384.371, 880.374 384.153, 883.446 384.366 C 886.517 384.579, 892.286 384.190, 896.265 383.501 C 900.244 382.812, 908.900 381.487, 915.500 380.557 C 922.100 379.627, 929.975 378.463, 933 377.968 C 936.025 377.474, 940.750 376.797, 943.500 376.463 C 951.620 375.476, 957.781 371.913, 967.027 362.854 C 981.720 348.459, 987.371 333.155, 983.926 317.090 C 982.519 310.531, 980.556 308.204, 970.253 300.881 C 962.922 295.671, 960.546 294.548, 954.080 293.235 C 945.165 291.425, 917.588 290.856, 896 292.037" stroke="#f2823b" fill="#f2823b" fill-opacity="0.2" fill-rule="evenodd"/><path class="svg-region-B" d="M 836.046 491.578 C 833.437 493.934, 831.382 497.092, 830.025 500.828 C 828.891 503.947, 825.352 511.675, 822.160 518 C 818.968 524.325, 815.549 532.425, 814.561 536 C 813.573 539.575, 811.356 547, 809.633 552.500 C 806.550 562.342, 806.500 562.824, 806.500 583 C 806.500 607.560, 807.780 616.324, 812.999 627.500 C 816.340 634.654, 818.098 636.822, 829.618 648 C 841.188 659.227, 848.216 665.099, 859 672.550 C 871.756 681.364, 873.399 682.227, 878.860 682.993 C 885.296 683.895, 906.314 682.592, 910.403 681.037 C 913.957 679.686, 926.873 679.717, 940.576 681.111 C 952.107 682.283, 965.183 681.183, 971.500 678.507 C 973.150 677.809, 976.300 676.923, 978.500 676.539 C 982.931 675.765, 986.649 672.284, 999.585 656.800 C 1011.557 642.470, 1018.562 628.925, 1024.304 609 C 1027.268 598.715, 1027.329 598.060, 1027.255 577 C 1027.168 552.326, 1026.178 545.480, 1020.041 527.122 C 1017.818 520.474, 1016 514.297, 1016 513.397 C 1016 511.161, 1011.335 503.713, 1006.545 498.300 C 1001.727 492.857, 995.935 489.751, 990.732 489.823 C 986.200 489.886, 983.330 491.575, 976.997 497.907 C 969.703 505.202, 961.846 511.610, 957.318 513.961 C 955.018 515.154, 952.600 516.776, 951.946 517.565 C 951.291 518.354, 950.432 519, 950.037 519 C 949.642 519, 944.410 521.622, 938.410 524.826 C 932.409 528.030, 924.895 531.504, 921.710 532.546 C 916.170 534.360, 915.712 534.367, 911.076 532.721 C 908.412 531.774, 905.270 531, 904.094 531 C 902.918 531, 898.979 529.650, 895.340 528 C 891.701 526.350, 888.223 524.994, 887.612 524.987 C 886.058 524.970, 873.703 514.895, 870.274 510.849 C 865.325 505.009, 862.227 500.479, 860.727 496.890 C 859.927 494.974, 857.826 492.190, 856.059 490.703 C 853.298 488.380, 851.944 488, 846.426 488 C 840.467 488, 839.722 488.257, 836.046 491.578" stroke="#e23b33" fill="#e23b33" fill-opacity="0.2" fill-rule="evenodd"/><path class="svg-region-Ol" d="M 585 194.648 C 581.975 195.464, 576.125 197.027, 572 198.121 C 567.875 199.215, 562.475 201.042, 560 202.181 C 557.525 203.319, 553.250 204.920, 550.500 205.737 C 541.049 208.546, 523.363 215.877, 512.825 221.354 C 478.198 239.350, 440.958 271.609, 419.724 302 C 411.910 313.185, 407.235 320.453, 404.289 326 C 402.391 329.575, 400.199 333.210, 399.419 334.079 C 398.638 334.947, 398 336.007, 398 336.435 C 398 336.862, 396.638 338.932, 394.973 341.034 C 393.308 343.136, 391.445 346.351, 390.832 348.178 C 390.218 350.005, 389.157 352.175, 388.472 353 C 387.788 353.825, 385.464 358.100, 383.308 362.500 C 381.153 366.900, 378.874 371.400, 378.244 372.500 C 377.613 373.600, 375.212 378.550, 372.908 383.500 C 370.604 388.450, 367.223 395.650, 365.394 399.500 C 361.384 407.940, 351.310 427.146, 348.347 432 C 345.361 436.890, 339.979 453.108, 338.920 460.403 C 338.433 463.756, 336.850 476.850, 335.401 489.500 C 332.374 515.925, 332.526 528.093, 336.096 545.089 C 338.873 558.309, 339.069 573.667, 336.588 583.500 C 334.211 592.920, 333.405 610.045, 334.951 618.242 C 336.681 627.411, 346.002 645.628, 356.265 659.901 C 363.183 669.521, 390.622 698.041, 401.748 707.175 C 410.261 714.164, 427.601 723.327, 441 727.916 C 453.491 732.195, 471.578 733.722, 490 732.054 C 496.875 731.431, 507.450 730.720, 513.500 730.473 C 529.045 729.838, 544.718 728.221, 546.961 727.021 C 548.010 726.459, 549.911 725.997, 551.184 725.994 C 552.458 725.990, 554.625 725.401, 556 724.684 C 557.375 723.966, 560.975 722.582, 564 721.607 C 577.423 717.282, 586.102 714.194, 588.236 712.984 C 589.191 712.443, 590.438 712, 591.007 712 C 592.390 712, 607.016 704.829, 614.500 700.481 C 617.800 698.564, 622.666 695.850, 625.313 694.449 C 627.959 693.049, 634.579 687.458, 640.023 682.026 C 652.980 669.096, 662.411 660.435, 668.908 655.500 C 671.804 653.300, 676.941 649.301, 680.324 646.613 C 683.707 643.925, 688.280 640.590, 690.487 639.202 C 692.694 637.815, 696.847 634.839, 699.716 632.590 C 710.323 624.272, 714.837 621, 715.704 621 C 716.193 621, 722.804 614.618, 730.396 606.818 C 740.934 595.990, 744.778 591.318, 746.648 587.068 C 747.994 584.005, 750.132 579.475, 751.397 577 C 752.663 574.525, 754.718 568.225, 755.965 563 C 757.212 557.775, 759.050 551.250, 760.048 548.500 C 761.046 545.750, 762.396 539.450, 763.047 534.500 C 763.699 529.539, 765.301 523.131, 766.615 520.220 C 767.927 517.317, 769 513.941, 769 512.720 C 769 504.425, 778.255 477.401, 783.461 470.497 C 784.706 468.845, 786.714 465.245, 787.923 462.497 C 793.991 448.703, 794.336 448.010, 801.142 435.929 C 808.427 422.997, 809.377 416.991, 808.723 388 C 808.181 363.947, 807.919 361.705, 801.363 325 C 799.445 314.260, 797.789 308.296, 794.975 302 C 792.887 297.325, 790.196 290.800, 788.997 287.500 C 784.359 274.733, 783.564 273.467, 774.698 264.703 C 765.111 255.228, 759.392 251.800, 750.178 250.005 C 747.055 249.396, 742.362 248.479, 739.749 247.967 C 732.986 246.640, 719.288 240.221, 714 235.901 C 711.525 233.879, 708.046 231.491, 706.268 230.596 C 704.490 229.700, 699.166 225.262, 694.435 220.734 C 685.351 212.038, 679.912 208.257, 668.500 202.704 C 660.050 198.592, 655.170 197.465, 639.500 196.007 C 632.900 195.392, 625.925 194.649, 624 194.355 C 615.161 193.004, 590.405 193.190, 585 194.648" stroke="#aa444d" fill="#aa444d" fill-opacity="0.2" fill-rule="evenodd"/><path class="svg-region-Or" d="M 1202.331 161.057 C 1198.938 161.499, 1190.613 163.495, 1183.831 165.492 C 1146.362 176.527, 1146.909 176.324, 1133.425 184.171 C 1128.984 186.756, 1123.809 190.334, 1121.925 192.123 C 1113.468 200.155, 1096.606 214, 1095.282 214 C 1094.797 214, 1093.890 214.510, 1093.266 215.134 C 1092.072 216.328, 1078.554 222, 1076.903 222 C 1073.653 222, 1055.039 241.021, 1055.008 244.373 C 1055.004 244.854, 1053.062 248.454, 1050.692 252.373 C 1048.323 256.293, 1045.670 261.300, 1044.797 263.500 C 1043.924 265.700, 1042.037 270.059, 1040.605 273.186 C 1039.172 276.313, 1038 279.395, 1038 280.035 C 1038 280.674, 1037.388 282.616, 1036.641 284.349 C 1033.502 291.623, 1033 293.240, 1033 296.065 C 1033 297.700, 1032.043 302.516, 1030.873 306.768 C 1029.703 311.021, 1028.432 316.075, 1028.048 318 C 1027.664 319.925, 1026.723 322.625, 1025.956 324 C 1024.416 326.762, 1022.897 337.997, 1023.117 345 C 1023.195 347.475, 1023.368 354, 1023.501 359.500 C 1023.838 373.433, 1025.355 380.390, 1030.076 389.650 C 1031.134 391.725, 1032.001 393.890, 1032.003 394.461 C 1032.005 395.033, 1033.580 398.624, 1035.503 402.443 C 1037.426 406.261, 1039 409.832, 1039 410.377 C 1039 411.317, 1039.695 412.938, 1045.699 426 C 1047.090 429.025, 1049.232 432.625, 1050.459 434 C 1053.747 437.682, 1062 450.412, 1062 451.802 C 1062 452.461, 1062.429 453, 1062.954 453 C 1063.479 453, 1065.530 456.262, 1067.511 460.250 C 1071.952 469.190, 1073.265 471.501, 1075.174 473.743 C 1075.997 474.709, 1077.269 477.075, 1078 479 C 1078.731 480.925, 1081.321 486.550, 1083.756 491.500 C 1086.191 496.450, 1089.305 503.425, 1090.677 507 C 1092.048 510.575, 1093.523 513.950, 1093.954 514.500 C 1094.385 515.050, 1095.317 517.975, 1096.024 521 C 1096.731 524.025, 1097.672 527.175, 1098.116 528 C 1100.068 531.631, 1104 540.783, 1104 541.696 C 1104 542.248, 1105.350 544.564, 1107 546.841 C 1108.650 549.119, 1110 551.197, 1110 551.460 C 1110 552.985, 1119.059 564.583, 1125.261 571 C 1135.238 581.322, 1138.791 584.291, 1145.791 588.161 C 1149.113 589.998, 1155.581 594.933, 1160.165 599.128 C 1168.033 606.328, 1176.935 613.720, 1190.123 624 C 1195.491 628.185, 1209.580 639.998, 1216.500 646.116 C 1228.897 657.077, 1232.947 660.364, 1236.067 661.992 C 1238.029 663.016, 1240.252 664.598, 1241.007 665.509 C 1241.762 666.419, 1244.882 668.464, 1247.940 670.053 C 1250.998 671.643, 1254.625 673.603, 1256 674.410 C 1264.557 679.427, 1283.027 686.483, 1295 689.308 C 1298.575 690.151, 1303.975 691.574, 1307 692.469 C 1324.403 697.617, 1381.762 699.558, 1399.500 695.599 C 1408.628 693.561, 1412.308 691.939, 1425.292 684.229 C 1445.401 672.289, 1460.692 655.008, 1474.768 628.311 C 1483.146 612.424, 1485.013 607.434, 1490.601 586 C 1495.541 567.053, 1495.893 535.890, 1492.412 425.500 C 1491.189 386.691, 1482.481 358.163, 1462.852 328.648 C 1452.211 312.650, 1446.633 303.937, 1443.715 298.761 C 1442.183 296.043, 1439.038 291.273, 1436.725 288.160 C 1434.413 285.047, 1430.633 279.575, 1428.326 276 C 1423.324 268.248, 1419.237 262.607, 1416.486 259.659 C 1415.378 258.471, 1413.892 256.360, 1413.182 254.966 C 1409.610 247.945, 1385.449 222.667, 1374.325 214.312 C 1370.021 211.080, 1363.800 206.820, 1360.500 204.845 C 1354.544 201.280, 1339.032 194, 1337.393 194 C 1336.923 194, 1334.280 193.115, 1331.519 192.034 C 1310.130 183.656, 1262.856 167.966, 1254.793 166.568 C 1252.754 166.215, 1249.152 165.070, 1246.789 164.025 C 1238.800 160.491, 1217.560 159.073, 1202.331 161.057" stroke="#aa444d" fill="#aa444d" fill-opacity="0.2" fill-rule="evenodd"/>
    </svg>