<svg xmlns="http://www.w3.org/2000/svg" width="1921" height="1027" viewBox="0 0 1921 1027" version="1.1">
    <path class="svg-region-SF" d="M 874 200.612 C 848.293 206.325, 840.575 208.987, 824.500 217.683 C 820.528 219.832, 801.450 239.650, 799.538 243.612 C 798.712 245.324, 797.377 247.272, 796.570 247.942 C 795.763 248.612, 794.576 250.811, 793.933 252.830 C 793.290 254.848, 792.176 257.850, 791.457 259.500 C 789.019 265.095, 787.698 272.469, 787.337 282.500 C 786.989 292.175, 787.085 292.711, 790.287 298.994 C 792.593 303.518, 794.796 306.273, 797.548 308.073 C 801.490 310.652, 812.487 315, 815.065 315 C 816.288 315, 820.055 313.578, 840.500 305.395 C 843.800 304.075, 847.296 302.996, 848.270 302.997 C 849.243 302.999, 852.840 301.862, 856.261 300.472 C 861.964 298.155, 863.610 297.959, 875.992 298.130 C 883.421 298.232, 890.983 297.980, 892.794 297.569 C 894.606 297.158, 898.656 296.694, 901.794 296.538 C 904.933 296.383, 912.450 295.671, 918.500 294.957 C 935.911 292.902, 945.361 293.123, 953.500 295.778 C 957.350 297.034, 965 298.929, 970.500 299.989 C 976 301.050, 982.525 302.349, 985 302.878 C 987.475 303.406, 993.839 303.705, 999.143 303.542 C 1014.159 303.080, 1021.916 298.793, 1026.719 288.304 C 1028.870 283.603, 1029.169 281.592, 1029.078 272.400 C 1028.964 260.792, 1027.177 253.978, 1022.276 246.455 C 1019.090 241.565, 1007.014 231.293, 1003.379 230.380 C 1002.031 230.042, 997.273 227.568, 992.805 224.883 C 988.337 222.197, 984.244 220, 983.709 220 C 983.175 220, 978.634 218.202, 973.619 216.005 C 968.604 213.807, 962.025 211.314, 959 210.464 C 953.038 208.788, 951.103 208.210, 940.500 204.941 C 924.208 199.917, 918.364 199.099, 899 199.134 C 886.652 199.156, 878.338 199.648, 874 200.612" stroke="#8c6b55" fill="#8c6b55" fill-opacity="0.2" fill-rule="evenodd"/><path class="svg-region-IF" d="M 929.932 293.401 C 929.282 294.052, 909.928 296.110, 900.239 296.559 C 896.245 296.744, 892.536 297.169, 891.996 297.503 C 891.456 297.836, 884.465 298.088, 876.461 298.062 C 863.138 298.018, 861.407 298.224, 855.984 300.507 C 852.726 301.878, 849.155 303, 848.048 303 C 844.439 303, 829.542 310.524, 827.756 313.250 C 826.199 315.626, 823.648 325.402, 822.334 334.029 C 822.038 335.970, 822.576 340.695, 823.530 344.529 C 825.401 352.052, 832.244 366.661, 834.879 368.758 C 840.988 373.620, 859.906 380.969, 874.260 384.056 C 879.079 385.093, 883.881 386.401, 884.932 386.964 C 889.231 389.264, 920.087 385.674, 939 380.672 C 946.849 378.596, 966.509 368.378, 973.963 362.500 C 987.144 352.106, 989.789 348.997, 991.452 341.941 C 994.959 327.065, 992.561 316.488, 983.867 308.475 C 976.968 302.117, 973.982 300.496, 966.500 299.052 C 962.650 298.309, 957.025 296.833, 954 295.772 C 948.856 293.968, 931.113 292.220, 929.932 293.401" stroke="#f2823b" fill="#f2823b" fill-opacity="0.2" fill-rule="evenodd"/><path class="svg-region-B" d="M 974.500 494.406 C 972.850 495.136, 970.018 497.733, 968.206 500.177 C 966.395 502.621, 963.599 505.397, 961.993 506.345 C 960.387 507.294, 958.453 508.690, 957.695 509.448 C 955.601 511.542, 948.762 515, 946.715 515 C 945.717 515, 943.686 515.622, 942.200 516.383 C 940.715 517.143, 937.027 518.101, 934.005 518.510 C 930.983 518.920, 924.550 520.998, 919.710 523.128 C 908.878 527.894, 906.147 527.964, 888.751 523.917 C 881.463 522.222, 874.600 520.661, 873.500 520.449 C 870.816 519.933, 859.975 511.721, 852.126 504.260 C 845.561 498.019, 841.788 496.370, 837.661 497.939 C 834.482 499.147, 830.435 504.147, 828.931 508.725 C 828.249 510.801, 825.986 515.875, 823.902 520 C 818.704 530.292, 815 538.790, 815 540.426 C 815 541.178, 813.387 546.227, 811.415 551.647 C 807.966 561.129, 807.815 562.113, 807.405 577.788 L 806.979 594.075 809.740 592.122 C 814.325 588.878, 816.626 588.628, 818.415 591.182 C 819.287 592.427, 820 594.256, 820 595.247 C 820 596.238, 821.013 597.428, 822.250 597.891 C 828.967 600.404, 828.836 600.439, 834.429 594.619 C 837.360 591.568, 840.024 588.380, 840.348 587.536 C 841.149 585.447, 842.334 585.606, 844.595 588.105 C 847.392 591.196, 847.328 602.267, 844.500 604.477 C 840.419 607.667, 836.667 609.160, 829.181 610.571 C 824.956 611.367, 819.339 612.937, 816.697 614.060 C 814.055 615.183, 811.017 615.823, 809.946 615.483 C 808.183 614.923, 808.098 615.127, 809.049 617.630 C 810.114 620.430, 811.282 622.402, 820.012 636.148 C 824.572 643.328, 842.834 663, 844.940 663 C 845.468 663, 846.260 663.583, 846.700 664.296 C 847.971 666.356, 854.596 669.834, 858.721 670.606 C 860.800 670.995, 863.948 671.918, 865.718 672.657 C 869.975 674.434, 883.368 674.369, 890.669 672.537 C 893.876 671.732, 902.125 670.339, 909 669.441 C 919.896 668.019, 923.617 667.969, 938 669.051 C 953.473 670.215, 956.987 670.139, 964.500 668.480 C 970.715 667.108, 973.849 664.746, 986.636 651.800 C 999.325 638.952, 1006.199 630.365, 1007.510 625.724 C 1007.855 624.501, 1009.184 621.475, 1010.463 619 C 1011.743 616.525, 1013.737 610.799, 1014.895 606.276 C 1017.100 597.663, 1017.579 593.475, 1015.800 598.363 C 1014.809 601.086, 1014.533 601.197, 1010.129 600.636 C 1007.583 600.312, 1000.550 599.759, 994.500 599.407 C 988.034 599.031, 982.602 598.207, 981.320 597.407 C 980.122 596.659, 977.347 595.759, 975.155 595.409 L 971.169 594.771 972.564 590.820 C 974.739 584.653, 977.515 581.480, 982.041 579.986 C 984.330 579.231, 987.620 577.278, 989.351 575.647 C 993.068 572.145, 1003.244 567.304, 1008.734 566.427 C 1012.002 565.904, 1013.119 566.229, 1015.799 568.484 L 1018.983 571.163 1018.407 567.832 C 1018.090 565.999, 1016.969 560.927, 1015.915 556.560 C 1014.862 552.192, 1014 547.417, 1014 545.948 C 1014 543.646, 1008.735 530.847, 1004.561 523 C 1003.829 521.625, 1002.902 518.963, 1002.500 517.086 C 1001.392 511.912, 997.386 504.995, 992.703 500.170 C 985.778 493.035, 981.010 491.525, 974.500 494.406 M 1017.158 593 C 1017.158 594.375, 1017.385 594.938, 1017.662 594.250 C 1017.940 593.563, 1017.940 592.438, 1017.662 591.750 C 1017.385 591.063, 1017.158 591.625, 1017.158 593" stroke="#e23b33" fill="#e23b33" fill-opacity="0.2" fill-rule="evenodd"/><path class="svg-region-Ol" d="M 591 193.137 C 587.425 193.626, 582.025 194.854, 579 195.865 C 567.271 199.784, 563.175 201, 561.699 201 C 560.856 201, 560.017 201.369, 559.833 201.821 C 559.549 202.519, 545.395 207.279, 535.500 210.004 C 495.694 220.963, 461.773 240.236, 440.574 263.936 C 433.799 271.510, 430.257 275.685, 427.365 279.500 C 421.345 287.443, 415.089 296.891, 412.609 301.785 C 411.217 304.532, 409.428 307.429, 408.634 308.223 C 407.839 309.018, 405.359 313.309, 403.122 317.758 C 400.884 322.208, 398.592 326.134, 398.027 326.483 C 397.462 326.832, 397 327.991, 397 329.059 C 397 330.127, 396.550 331, 396 331 C 395.450 331, 395 331.597, 395 332.328 C 395 334.703, 388.771 349.162, 375.719 377.089 C 373.254 382.362, 370.902 387.762, 370.493 389.089 C 369.629 391.889, 355.336 419.689, 350.231 428.500 C 343.395 440.298, 339.956 451.899, 337.928 470 C 336.912 479.075, 335.574 490.100, 334.955 494.500 C 334.337 498.900, 333.847 509.700, 333.867 518.500 C 333.907 535.925, 331.891 575.005, 330.591 582 C 326.700 602.939, 325.857 625.104, 328.684 632.169 C 331.489 639.179, 339.943 654.212, 343.836 659.111 C 354.383 672.385, 359.210 677.965, 364.072 682.500 C 367.020 685.250, 376.712 694.813, 385.610 703.750 C 394.508 712.688, 402.286 720, 402.894 720 C 403.502 720, 404.843 720.843, 405.874 721.874 C 411.128 727.128, 432.388 736.018, 450.594 740.574 C 465.017 744.183, 465.834 744.273, 484.437 744.302 C 510.791 744.343, 529.623 743.435, 542 741.527 C 547.775 740.637, 554.226 739.639, 556.336 739.311 C 558.446 738.982, 560.407 738.103, 560.693 737.357 C 560.980 736.611, 561.790 736, 562.493 736 C 565.323 736, 580.148 730.467, 590.772 725.446 C 604.852 718.791, 612.818 714.032, 620.499 707.686 C 623.798 704.961, 627.623 702.231, 628.999 701.620 C 630.374 701.009, 632.282 699.543, 633.238 698.361 C 634.195 697.180, 636.724 695.303, 638.860 694.190 C 642.976 692.044, 648.115 687.449, 647.305 686.638 C 647.039 686.372, 650.109 683.532, 654.126 680.327 C 658.144 677.122, 663.471 672.603, 665.965 670.285 C 668.459 667.967, 672.413 664.307, 674.750 662.152 C 677.087 659.996, 679 657.730, 679 657.116 C 679 656.502, 679.435 656, 679.967 656 C 680.498 656, 682.636 654.400, 684.717 652.445 C 686.798 650.490, 689.850 647.633, 691.500 646.096 C 693.150 644.559, 697.306 641.181, 700.736 638.590 C 704.166 635.999, 707.541 633.075, 708.236 632.092 C 710.003 629.596, 722.638 619, 723.848 619 C 726.697 619, 743.131 597.520, 747.948 587.500 C 753.303 576.361, 755.797 567.682, 760.447 544 C 762.841 531.806, 765.133 522.969, 766.661 520.041 C 767.391 518.644, 767.990 516.759, 767.994 515.853 C 767.997 514.947, 769.515 511.122, 771.366 507.353 C 773.217 503.584, 775.769 498.137, 777.037 495.250 C 778.305 492.362, 779.715 490, 780.171 490 C 780.627 490, 781 489.085, 781 487.967 C 781 485.795, 785.039 477.226, 788.128 472.846 C 789.158 471.386, 790 469.248, 790 468.096 C 790 466.943, 790.418 466, 790.930 466 C 791.441 466, 792.847 463.863, 794.054 461.250 C 795.261 458.637, 796.789 455.375, 797.450 454 C 798.111 452.625, 799.243 449.475, 799.965 447 C 800.688 444.525, 802.341 439.723, 803.639 436.329 C 804.938 432.936, 806 428.802, 806 427.145 C 806 425.487, 806.412 423.047, 806.915 421.723 C 807.419 420.398, 808.100 417.332, 808.430 414.907 C 808.759 412.483, 809.454 407.575, 809.973 404 C 810.493 400.425, 810.662 396.041, 810.349 394.258 C 810.036 392.474, 810.119 390.224, 810.534 389.258 C 812.531 384.599, 807.678 358.201, 803.200 349.367 C 802.122 347.240, 800.029 342.350, 798.548 338.500 C 795.884 331.574, 795.384 330.302, 793.052 324.545 C 792.394 322.920, 791.663 320.084, 791.428 318.245 C 791.192 316.405, 790.360 313.663, 789.578 312.151 C 787.279 307.706, 784 297.279, 784 294.416 C 784 292.960, 782.480 288.523, 780.621 284.555 C 778.763 280.586, 776.908 276.287, 776.500 274.999 C 775.096 270.575, 769.195 262.491, 762.852 256.301 C 756.730 250.327, 746.813 243, 744.849 243 C 743.070 243, 718.523 230.418, 712 226.162 C 708.425 223.830, 704.487 221.665, 703.250 221.352 C 702.013 221.039, 701 220.382, 701 219.892 C 701 219.401, 700.519 219, 699.930 219 C 699.342 219, 696.806 217.586, 694.295 215.859 C 689.409 212.497, 676.122 205.760, 672 204.553 C 670.625 204.151, 666.125 202.557, 662 201.011 C 649.575 196.355, 642.247 194.818, 626 193.458 C 608.128 191.963, 600.111 191.889, 591 193.137" stroke="#aa444d" fill="#aa444d" fill-opacity="0.2" fill-rule="evenodd"/><path class="svg-region-Or" d="M 1213.500 163.987 C 1211.300 164.393, 1206.575 165.237, 1203 165.864 C 1199.425 166.490, 1194.025 167.715, 1191 168.586 C 1187.975 169.456, 1183.475 170.553, 1181 171.022 C 1172.687 172.599, 1161.196 175.861, 1156.635 177.939 C 1154.146 179.072, 1151.374 180, 1150.475 180 C 1146.336 180, 1117.435 196.375, 1108.336 203.875 C 1106.251 205.594, 1104.144 207, 1103.654 207 C 1103.165 207, 1101.153 208.415, 1099.184 210.143 C 1097.215 211.872, 1092.206 214.845, 1088.052 216.750 C 1083.898 218.655, 1078.988 220.953, 1077.140 221.857 C 1070.492 225.109, 1059.104 238.930, 1053.952 250 C 1052.801 252.475, 1050.826 256.525, 1049.565 259 C 1046.047 265.901, 1039.882 283.133, 1034.001 302.500 C 1033.500 304.150, 1032.657 308.200, 1032.129 311.500 C 1031.601 314.800, 1030.459 318.850, 1029.591 320.500 C 1028.723 322.150, 1028.010 324.251, 1028.006 325.169 C 1027.998 327.320, 1025.167 338.896, 1024.011 341.500 C 1023.523 342.600, 1022.898 345.075, 1022.622 347 C 1022.346 348.925, 1021.607 353.200, 1020.981 356.500 C 1020.299 360.092, 1020.092 366.256, 1020.466 371.861 C 1021.057 380.720, 1024.129 396.318, 1025.983 399.869 C 1029.933 407.434, 1031.957 412.259, 1032.575 415.586 C 1032.975 417.739, 1034.359 420.892, 1035.651 422.594 C 1036.943 424.296, 1038.033 426.321, 1038.073 427.094 C 1038.113 427.867, 1039.008 429.850, 1040.062 431.500 C 1041.116 433.150, 1042.281 435.175, 1042.652 436 C 1043.270 437.377, 1053.965 454.118, 1057.992 460.012 C 1058.936 461.394, 1063.203 467.613, 1067.475 473.834 C 1071.746 480.054, 1076.478 487.698, 1077.990 490.822 C 1082.050 499.207, 1089.333 518.229, 1090.496 523.486 C 1091.463 527.855, 1097.832 542.302, 1102.846 551.500 C 1110.481 565.503, 1123.704 581.045, 1131.486 585.160 C 1135.539 587.303, 1146.163 596.534, 1157.861 608.079 C 1160.412 610.597, 1163.936 613.646, 1165.691 614.855 C 1167.446 616.063, 1169.164 617.940, 1169.508 619.026 C 1169.853 620.112, 1170.573 621, 1171.108 621 C 1172.406 621, 1177.460 624.588, 1183.079 629.498 C 1185.598 631.699, 1195.674 639.350, 1205.470 646.500 C 1215.266 653.650, 1224.680 660.655, 1226.391 662.067 C 1228.101 663.478, 1231.300 665.704, 1233.500 667.014 C 1235.700 668.323, 1237.725 669.679, 1238 670.026 C 1239.370 671.756, 1257.014 680, 1259.346 680 C 1260.290 680, 1264.238 681.800, 1268.120 684 C 1272.003 686.200, 1275.823 688, 1276.611 688 C 1277.399 688, 1279.721 689.101, 1281.771 690.448 C 1283.875 691.829, 1290.293 694.036, 1296.500 695.514 C 1302.550 696.954, 1309.525 698.773, 1312 699.557 C 1318.450 701.600, 1342.286 702.430, 1357.163 701.130 C 1364.228 700.513, 1373.955 698.893, 1379.163 697.466 C 1384.298 696.059, 1390.300 694.428, 1392.500 693.840 C 1394.700 693.253, 1397.400 692.385, 1398.500 691.912 C 1399.600 691.440, 1404.160 689.742, 1408.632 688.139 C 1422.218 683.272, 1440.271 671.306, 1448.941 661.422 C 1461.220 647.423, 1475.650 619.149, 1483.606 593.500 C 1492.881 563.600, 1491.959 515.037, 1481.500 482.500 C 1476.181 465.953, 1475.644 459.915, 1475.498 415 C 1475.424 392.175, 1475.011 371.700, 1474.580 369.500 C 1471.288 352.678, 1467.252 340.355, 1460.384 326.161 C 1443.816 291.917, 1415.325 254.102, 1390.500 233.407 C 1383.288 227.395, 1366.263 215, 1365.217 215 C 1363.906 215, 1356.573 210.856, 1354.470 208.927 C 1350.919 205.670, 1317.875 190.323, 1305.340 186.110 C 1301.952 184.971, 1297.047 182.905, 1294.441 181.520 C 1291.835 180.134, 1288.959 179, 1288.051 179 C 1287.143 179, 1285.972 178.592, 1285.450 178.094 C 1284.928 177.595, 1281.575 176.284, 1278 175.179 C 1274.425 174.075, 1268.900 171.969, 1265.723 170.500 C 1254.133 165.141, 1226.168 161.653, 1213.500 163.987" stroke="#aa444d" fill="#aa444d" fill-opacity="0.2" fill-rule="evenodd"/><path class="svg-region-BPCl" d="M 836.500 592.098 C 830.212 599.748, 829.183 600.305, 824.390 598.646 C 821.471 597.635, 820.399 596.618, 819.795 594.289 C 818.539 589.442, 816.557 588.364, 812.477 590.309 C 807.746 592.566, 805.840 597.469, 806.211 606.432 C 806.476 612.855, 806.722 613.555, 809.197 614.941 C 811.678 616.330, 812.255 616.275, 816.428 614.247 C 818.922 613.036, 824.001 611.559, 827.715 610.966 C 834.531 609.877, 840.825 607.458, 844.500 604.515 C 847.326 602.252, 847.390 591.194, 844.595 588.105 C 843.547 586.947, 842.422 586.003, 842.095 586.007 C 841.768 586.011, 839.250 588.752, 836.500 592.098" stroke="#83385f" fill="#83385f" fill-opacity="0.2" fill-rule="evenodd"/><path class="svg-region-BPCr" d="M 1002.268 567.955 C 996.929 569.877, 992.137 572.838, 988.421 576.512 C 987.278 577.642, 984.422 579.201, 982.076 579.975 C 977.346 581.536, 973.946 585.421, 972.301 591.142 L 971.253 594.785 975.043 595.391 C 977.127 595.724, 980.108 596.640, 981.666 597.426 C 984.410 598.809, 1013.766 601.568, 1014.795 600.539 C 1016.996 598.338, 1019.913 576.775, 1018.677 571.848 C 1017.988 569.103, 1013.248 565.984, 1009.846 566.036 C 1008.556 566.056, 1005.146 566.920, 1002.268 567.955" stroke="#83385f" fill="#83385f" fill-opacity="0.2" fill-rule="evenodd"/>
    </svg>