<svg xmlns="http://www.w3.org/2000/svg" width="1921" height="1027" viewBox="0 0 1921 1027" version="1.1">
    <path class="svg-region-V" d="M 862 185.990 C 857.875 186.350, 852.598 187.375, 850.273 188.269 C 844.763 190.389, 835.251 192.693, 826.500 194.029 C 815.340 195.732, 790.346 202.943, 784.677 206.095 C 783.674 206.652, 780.974 208.070, 778.677 209.244 C 776.379 210.419, 771.537 213.311, 767.915 215.672 C 764.293 218.032, 757.993 221.499, 753.915 223.375 C 744.500 227.707, 738.392 232.928, 737.039 237.799 C 735.347 243.891, 735.752 250.415, 738 253.273 C 739.100 254.671, 740 256.325, 740 256.948 C 740 257.570, 740.906 259.856, 742.013 262.026 L 744.026 265.972 751.763 265.438 C 763.579 264.621, 775.896 261.970, 782.062 258.916 C 785.121 257.401, 789.283 255.850, 791.312 255.469 C 793.340 255.089, 795 254.237, 795 253.576 C 795 252.311, 800.103 247, 801.318 247 C 801.707 247, 810.211 241.825, 820.215 235.500 C 830.219 229.175, 838.996 224, 839.720 224 C 841.316 224, 858.665 215.375, 869 209.443 C 873.790 206.694, 879.752 204.337, 885.500 202.919 C 894.269 200.757, 894.719 200.742, 903 202.335 C 907.675 203.234, 917.125 204.489, 924 205.123 C 932.019 205.863, 937.585 206.884, 939.526 207.972 C 941.190 208.905, 945.447 209.971, 948.985 210.341 C 954.206 210.886, 955.991 211.562, 958.459 213.924 C 960.132 215.525, 965.079 218.709, 969.453 220.999 C 973.827 223.290, 978.573 226.139, 980 227.332 C 982.523 229.442, 984.406 230.450, 994.226 234.950 C 996.825 236.142, 1002.225 239.464, 1006.226 242.334 C 1010.227 245.204, 1015.075 248.190, 1017 248.969 C 1018.925 249.749, 1020.725 250.637, 1021 250.943 C 1021.275 251.249, 1024.177 252.850, 1027.450 254.500 C 1030.722 256.150, 1034.380 258.401, 1035.577 259.501 C 1036.775 260.602, 1040.398 262.342, 1043.628 263.368 C 1046.857 264.393, 1050.400 265.618, 1051.500 266.089 C 1052.600 266.560, 1055.879 267.857, 1058.787 268.972 C 1066.322 271.862, 1076.817 271.515, 1075.812 268.408 C 1075.650 267.909, 1077.539 264.575, 1080.009 261 C 1088.388 248.872, 1089.500 246.576, 1090.462 239.401 L 1091.146 234.302 1083.323 227.082 C 1077.621 221.820, 1073.060 218.695, 1066.500 215.554 C 1042.769 204.194, 1037.828 202, 1035.973 202 C 1034.873 202, 1033.191 201.574, 1032.236 201.054 C 1031.281 200.533, 1025.100 199.639, 1018.500 199.067 C 1011.900 198.495, 1002.225 196.945, 997 195.624 C 990.769 194.047, 981.650 192.813, 970.500 192.036 C 961.150 191.385, 951.700 190.257, 949.500 189.528 C 941.447 186.862, 880.354 184.392, 862 185.990" stroke="#dd8a8a" fill="#dd8a8a" fill-opacity="0.2" fill-rule="evenodd"/><path class="svg-region-SF" d="M 883 203.415 C 878.875 204.629, 873.025 207.062, 870 208.822 C 861.138 213.977, 841.145 224, 839.724 224 C 839.005 224, 830.561 228.973, 820.959 235.050 C 811.356 241.128, 802.057 246.795, 800.292 247.644 C 798.528 248.493, 796.520 250.463, 795.830 252.022 C 794.917 254.085, 793.626 255.035, 791.093 255.510 C 789.177 255.870, 785.479 257.244, 782.873 258.564 C 776.602 261.742, 762.620 264.738, 751.630 265.259 C 744.189 265.611, 742.591 265.987, 741.715 267.590 C 741.141 268.640, 740.214 269.802, 739.655 270.171 C 739.096 270.539, 738.449 273.471, 738.216 276.686 C 737.703 283.786, 740.325 290.918, 748.471 304.575 C 751.447 309.566, 754.385 315.641, 754.998 318.075 C 756.510 324.078, 758.202 325.968, 767.378 331.904 L 775.257 337 784.886 337 C 793.239 337, 795.139 336.668, 799.212 334.500 C 801.795 333.125, 804.718 332, 805.709 332 C 806.699 332, 810.610 330.875, 814.401 329.500 C 818.192 328.125, 823.446 327, 826.077 327 C 830.272 327, 830.900 326.724, 831.180 324.756 C 831.388 323.300, 832.378 322.329, 834 321.990 C 835.375 321.702, 838.525 320.493, 841 319.303 C 843.475 318.114, 849.068 316.370, 853.430 315.430 C 862.425 313.489, 876.596 313.888, 890.500 316.473 C 894.900 317.291, 903.596 317.970, 909.824 317.980 C 919.620 317.997, 922.183 317.634, 928.824 315.285 C 935.693 312.856, 937.919 312.567, 950 312.535 C 960.914 312.507, 964.174 312.836, 967.017 314.254 C 968.952 315.218, 973.492 316.626, 977.106 317.382 C 984.233 318.873, 986.956 320.037, 988.955 322.445 C 989.680 323.320, 991.806 324, 993.812 324 C 1000.940 324, 1018.119 327.574, 1019.170 329.275 C 1019.873 330.412, 1025.632 331.144, 1045.191 332.581 C 1056.806 333.434, 1063.057 332.089, 1065.615 328.183 C 1066.544 326.766, 1069.036 323.804, 1071.152 321.602 C 1073.268 319.399, 1075 317.216, 1075 316.750 C 1075 314.906, 1082.210 301.619, 1084.781 298.723 C 1086.952 296.278, 1088.066 281.576, 1086.390 277.500 C 1084.720 273.436, 1078.205 266, 1076.315 266 C 1075.298 266, 1075 266.559, 1075.427 267.670 C 1076.283 269.901, 1074.360 270.966, 1069.444 270.985 C 1065.441 271, 1053.394 267.556, 1051.550 265.869 C 1051.027 265.391, 1049.592 265, 1048.359 265 C 1047.126 265, 1045.871 264.601, 1045.570 264.113 C 1045.269 263.626, 1043.497 262.941, 1041.633 262.591 C 1039.769 262.241, 1037.152 260.953, 1035.818 259.728 C 1034.484 258.502, 1032.067 256.826, 1030.446 256.002 C 1028.826 255.177, 1027.275 254.271, 1027 253.988 C 1026.347 253.315, 1015.299 248, 1014.553 248 C 1014.238 248, 1010.657 245.542, 1006.594 242.537 C 1002.532 239.533, 997.024 236.093, 994.354 234.893 C 986.054 231.163, 981.577 228.776, 979.500 226.976 C 978.400 226.022, 973.900 223.318, 969.500 220.966 C 965.100 218.615, 960.132 215.413, 958.459 213.852 C 956.028 211.582, 954.129 210.878, 948.985 210.341 C 945.447 209.971, 941.190 208.901, 939.526 207.963 C 937.531 206.838, 931.901 205.833, 923 205.014 C 915.575 204.330, 906.960 203.147, 903.856 202.385 C 896.374 200.549, 892.001 200.765, 883 203.415" stroke="#8c6b55" fill="#8c6b55" fill-opacity="0.2" fill-rule="evenodd"/><path class="svg-region-IF" d="M 937 312.982 C 935.075 313.465, 930.360 314.792, 926.522 315.930 C 917.997 318.458, 902.439 318.693, 890.500 316.473 C 886.100 315.655, 877.775 314.707, 872 314.366 C 859.712 313.641, 847.200 315.691, 840.124 319.589 C 837.717 320.915, 834.680 322, 833.374 322 C 831.355 322, 831 322.493, 831 325.300 C 831 329.244, 832.498 330.983, 835.950 331.048 C 838.605 331.098, 841.054 332.245, 850.450 337.840 C 857.516 342.048, 863.495 343.107, 883.429 343.683 C 897.062 344.076, 899.912 343.893, 903.203 342.408 C 906.586 340.883, 907.737 340.826, 912.774 341.932 C 921.585 343.868, 930.751 344.300, 935.838 343.019 C 938.374 342.381, 945.589 339.415, 951.871 336.429 L 963.292 331 973.196 331 C 985.057 331, 989 329.535, 989 325.129 C 989 321.051, 986.046 318.967, 978.129 317.458 C 974.290 316.727, 969.653 315.353, 967.825 314.405 C 964.018 312.431, 943.050 311.463, 937 312.982" stroke="#f2823b" fill="#f2823b" fill-opacity="0.2" fill-rule="evenodd"/><path class="svg-region-AAB" d="M 948.088 338.112 C 934.795 344.400, 927.616 345.177, 912.806 341.933 C 907.883 340.855, 906.523 340.910, 902.772 342.343 C 897.831 344.230, 874.244 344.704, 866.764 343.066 C 857.982 341.144, 854.452 340.255, 852.794 339.547 C 851.523 339.005, 849.234 340.627, 843.813 345.910 C 839.812 349.809, 836.022 353, 835.391 353 C 834.761 353, 833.634 353.736, 832.887 354.637 C 829.222 359.052, 816.542 361.725, 815.745 358.250 C 815.480 357.092, 814.489 358.360, 812.816 362 C 811.426 365.025, 809.349 368.334, 808.201 369.354 C 807.053 370.373, 805.819 372.623, 805.460 374.354 C 805.100 376.084, 803.890 379.075, 802.771 381 C 797.987 389.226, 797.035 402.535, 800.823 408.215 C 807.441 418.137, 817.846 429.405, 824.601 433.964 C 826.998 435.581, 832.590 438.501, 837.028 440.452 C 843.802 443.431, 846.252 444.002, 852.298 444.015 C 858.558 444.028, 860.481 443.554, 867 440.391 C 871.125 438.389, 876.975 435.570, 880 434.126 C 883.025 432.681, 886.505 430.641, 887.734 429.591 C 888.963 428.541, 893.913 426.598, 898.734 425.274 C 924.334 418.242, 928.924 418.030, 940.254 423.355 C 944.519 425.360, 949.057 427, 950.338 427 C 951.619 427, 952.975 427.308, 953.352 427.685 C 955.633 429.966, 970.834 433.963, 977.307 433.984 C 985.327 434.010, 991.032 431.941, 1001.500 425.210 C 1015.679 416.091, 1018.104 413.310, 1021.801 401.923 C 1027.548 384.222, 1028.372 374.119, 1024.627 367.282 C 1023.789 365.752, 1022.191 362.475, 1021.076 360 C 1018.665 354.647, 1013.387 347.118, 1007.932 341.250 C 1004.983 338.078, 1003.222 337, 1000.991 337 C 999.346 337, 998 337.450, 998 338 C 998 338.550, 998.450 339, 999 339 C 1000.650 339, 1000.174 347.683, 998.429 349.429 C 997.458 350.399, 995.108 351, 992.285 351 C 988.344 351, 987.283 350.525, 984.606 347.563 C 981.703 344.351, 973.913 340.477, 965.006 337.815 C 963.084 337.241, 960.621 336.148, 959.533 335.386 C 957.057 333.651, 957.990 333.429, 948.088 338.112" stroke="#7f3c1a" fill="#7f3c1a" fill-opacity="0.2" fill-rule="evenodd"/><path class="svg-region-APB" d="M 986.500 329 C 983.996 330.658, 981.797 330.988, 973.200 330.993 C 965.799 330.998, 962.045 331.443, 959.859 332.573 C 956.987 334.058, 956.920 334.224, 958.659 335.541 C 959.671 336.309, 960.905 336.951, 961.400 336.968 C 961.895 336.986, 966.774 338.660, 972.243 340.688 C 980.034 343.578, 982.731 345.092, 984.711 347.688 C 986.903 350.562, 987.825 351, 991.684 351 C 998.510 351, 1000.004 349.778, 999.978 344.215 C 999.963 341.081, 999.300 338.662, 998 337 C 996.924 335.625, 996.034 333.916, 996.022 333.202 C 996 331.927, 991.288 326.994, 990.104 327.007 C 989.772 327.010, 988.150 327.907, 986.500 329 M 834 333.499 C 832.075 334.811, 829.781 335.911, 828.903 335.942 C 828.025 335.974, 826.284 336.887, 825.034 337.970 C 823.785 339.054, 821.932 340.204, 820.917 340.526 C 819.499 340.976, 819.203 341.764, 819.637 343.934 C 819.991 345.707, 819.420 348.523, 818.101 351.505 C 814.914 358.708, 815.209 360, 820.040 360 C 824.243 360, 830.684 357.290, 832.939 354.573 C 833.657 353.708, 834.786 353, 835.448 353 C 836.110 353, 839.903 349.812, 843.878 345.915 C 849.733 340.174, 850.881 338.562, 849.930 337.415 C 849.284 336.637, 848.121 336, 847.346 336 C 846.571 336, 845.694 335.366, 845.396 334.590 C 845.099 333.815, 843.805 332.917, 842.521 332.595 C 841.236 332.272, 839.581 331.807, 838.843 331.560 C 838.104 331.314, 835.925 332.186, 834 333.499" stroke="#ac7444" fill="#ac7444" fill-opacity="0.2" fill-rule="evenodd"/><path class="svg-region-AP" d="M 969.500 534.110 C 966.750 535.255, 959.287 538.624, 952.916 541.596 C 946.545 544.568, 940.710 547, 939.949 547 C 939.189 547, 936.752 547.669, 934.533 548.487 C 928.197 550.823, 904.150 553.954, 899.500 553.048 C 895.012 552.174, 887.573 549.309, 881.292 546.035 C 877.448 544.031, 875.916 543.878, 862.779 544.175 C 848.663 544.495, 848.359 544.550, 841.620 548 C 831.399 553.233, 826.224 560.054, 824.148 571.032 C 823.579 574.039, 822.189 579.158, 821.057 582.407 C 817.499 592.623, 818.775 603, 823.589 603 C 824.837 603, 826.532 602.325, 827.357 601.500 C 828.182 600.675, 830.230 600, 831.907 600 C 834.468 600, 836.763 601.824, 846.228 611.385 C 859.206 624.492, 858.466 623.620, 863.870 632.177 C 866.141 635.773, 868 639.957, 868 641.475 C 868 643.890, 868.280 644.140, 870.250 643.488 C 871.487 643.078, 874.621 642.533, 877.214 642.277 C 881.193 641.884, 882.830 642.323, 887.714 645.088 C 890.896 646.890, 897.165 651.208, 901.644 654.682 C 906.123 658.157, 910.675 661, 911.759 661 C 916.719 661, 923.010 669.802, 922.988 676.710 C 922.981 678.859, 921.936 682.318, 920.576 684.697 L 918.176 688.895 923.674 690.036 C 930.119 691.374, 957.011 689.365, 956.985 687.547 C 956.977 686.971, 956.268 684.480, 955.408 682.010 C 953.803 677.401, 954.176 669.627, 956.058 668.464 C 956.576 668.144, 957.002 666.896, 957.005 665.691 C 957.015 661.226, 981.319 633.297, 988.613 629.369 C 991.523 627.802, 992.426 627.727, 995.241 628.823 C 997.033 629.521, 998.902 630.184, 999.393 630.296 C 999.884 630.408, 1000.840 627.314, 1001.519 623.420 C 1002.291 618.984, 1004.419 612.985, 1007.217 607.355 C 1010.110 601.532, 1011.914 596.387, 1012.344 592.733 C 1013.029 586.901, 1016.169 582, 1019.221 582 C 1020.737 582, 1030.214 588.719, 1030.846 590.241 C 1031.036 590.699, 1032.273 592.360, 1033.596 593.931 C 1035.167 595.799, 1036.030 598.125, 1036.086 600.644 L 1036.172 604.500 1037.132 601.500 C 1037.660 599.850, 1037.811 594.964, 1037.468 590.643 C 1036.233 575.094, 1028.542 557.384, 1018.949 548 C 1006.112 535.443, 982.335 528.764, 969.500 534.110 M 982.997 553.504 C 981.090 555.802, 970.379 562.057, 966.533 563.119 C 964.653 563.638, 962.865 564.836, 962.560 565.781 C 962.255 566.727, 959.945 569.750, 957.426 572.500 C 952.216 578.189, 950.556 581.016, 949.498 586 C 949.090 587.925, 947.911 591.170, 946.878 593.210 C 945.845 595.251, 945 598.457, 945 600.334 C 945 604.474, 947.452 611.737, 949.681 614.200 C 951.453 616.158, 956.966 616.634, 958.627 614.973 C 959.191 614.409, 962.010 613.668, 964.891 613.326 C 968.627 612.884, 971.954 611.529, 976.490 608.603 C 983.023 604.389, 992.453 594.569, 994.083 590.282 C 994.587 588.955, 995 580.908, 995 572.400 C 995 554.173, 994.255 552, 988.007 552 C 985.878 552, 983.703 552.653, 982.997 553.504 M 860.667 561.667 C 859.219 563.115, 860.042 573.711, 861.902 577.562 C 862.948 579.728, 864.135 583.713, 864.540 586.417 C 865.604 593.512, 870.309 603.186, 874.476 606.845 C 878.920 610.746, 882.636 612.334, 891 613.904 C 899.217 615.446, 903.039 614.064, 907.042 608.104 C 909.521 604.412, 909.790 603.261, 909.355 598.213 C 909.084 595.071, 908.261 590.700, 907.526 588.500 C 906.791 586.300, 905.924 583.305, 905.600 581.845 C 904.416 576.522, 888.582 564.645, 879.192 562.037 C 875.080 560.894, 861.706 560.627, 860.667 561.667" stroke="#fc7143" fill="#fc7143" fill-opacity="0.2" fill-rule="evenodd"/><path class="svg-region-ADCl" d="M 860.750 561.567 C 859.373 562.974, 859.957 574.015, 861.573 577.141 C 862.438 578.814, 863.780 583.225, 864.555 586.943 C 865.331 590.661, 866.645 595.008, 867.476 596.602 C 868.308 598.196, 868.990 600.005, 868.994 600.623 C 869.003 602.335, 877.706 609.984, 881.310 611.448 C 883.065 612.161, 887.425 613.279, 891 613.932 C 899.534 615.492, 903.832 613.870, 907.374 607.756 C 909.594 603.921, 909.763 602.858, 909.083 597 C 907.773 585.708, 905.376 579.538, 900.490 574.882 C 890.974 565.813, 882.037 561.739, 870.500 561.211 C 865.550 560.985, 861.163 561.145, 860.750 561.567" stroke="#54413e" fill="#54413e" fill-opacity="0.2" fill-rule="evenodd"/><path class="svg-region-ADCr" d="M 981.500 554.569 C 977.435 557.952, 969.123 562.602, 965.707 563.404 C 964.171 563.764, 962.648 564.834, 962.321 565.780 C 961.995 566.726, 960.678 568.625, 959.394 570 C 953.277 576.552, 951.030 580.012, 949.939 584.562 C 949.287 587.278, 947.909 590.988, 946.877 592.807 C 945.845 594.626, 945 597.884, 945 600.046 C 945 604.467, 948.264 613.916, 950.219 615.157 C 952.143 616.377, 956.028 616.140, 960.500 614.529 C 962.700 613.736, 965.850 613.063, 967.500 613.033 C 972.967 612.933, 989.736 599.112, 993.848 591.316 C 994.579 589.929, 995 583.251, 995 573.031 C 995 559.893, 994.703 556.476, 993.385 554.465 C 991.172 551.088, 985.624 551.136, 981.500 554.569" stroke="#54413e" fill="#54413e" fill-opacity="0.2" fill-rule="evenodd"/><path class="svg-region-AVCl" d="M 870.757 643.297 C 869.248 643.893, 867.733 645.308, 867.391 646.441 C 867.048 647.573, 865.695 649.932, 864.384 651.683 C 863.073 653.434, 862 655.483, 862 656.236 C 862 656.989, 859.706 659.947, 856.903 662.810 L 851.806 668.015 854.884 671.521 C 856.577 673.449, 858.633 676.324, 859.453 677.910 C 861.148 681.187, 874.970 692.670, 879.500 694.563 C 885.370 697.018, 898.463 698.328, 903.953 697.011 C 913.736 694.664, 923 684.689, 923 676.500 C 923 669.797, 916.641 661, 911.796 661 C 910.732 661, 906.180 658.151, 901.680 654.669 C 886.158 642.657, 879.019 640.031, 870.757 643.297" stroke="#ffbab9" fill="#ffbab9" fill-opacity="0.2" fill-rule="evenodd"/><path class="svg-region-AVCr" d="M 987.347 629.930 C 983.835 632.071, 979.061 636.923, 969.752 647.812 C 960.174 659.015, 957.488 663.032, 955.671 668.865 C 953.601 675.512, 953.602 676.062, 955.713 683.171 C 957.411 688.891, 957.465 688.947, 961.884 689.610 C 968.627 690.621, 985.625 688.266, 991.666 685.484 C 1000.199 681.553, 1013.971 663.006, 1012.553 657.354 C 1012.232 656.078, 1009.502 651.409, 1006.485 646.978 C 1002.125 640.575, 1001 638.113, 1001 634.975 C 1001 631.383, 1000.673 630.890, 997.378 629.513 C 992.667 627.545, 991.155 627.608, 987.347 629.930" stroke="#ffbab9" fill="#ffbab9" fill-opacity="0.2" fill-rule="evenodd"/><path class="svg-region-Ol" d="M 586.894 193.627 C 586.268 194.382, 584.798 194.995, 583.628 194.990 C 581.875 194.982, 575.286 196.884, 567 199.791 C 566.175 200.081, 565.161 200.246, 564.747 200.158 C 563.866 199.971, 538.256 213.187, 529.500 218.347 C 513.901 227.539, 510.612 229.623, 509.140 231.250 C 508.268 232.213, 506.985 233, 506.288 233 C 505.591 233, 502.429 234.799, 499.261 236.999 C 496.092 239.198, 492.997 240.998, 492.382 240.999 C 491.767 240.999, 487.418 242.962, 482.718 245.361 C 478.017 247.760, 473.345 249.991, 472.335 250.320 C 467.509 251.893, 452.447 262.346, 448.969 266.538 C 448.177 267.492, 445.515 269.136, 443.055 270.191 C 439.070 271.899, 433 277.240, 433 279.038 C 433 279.411, 430.413 281.313, 427.250 283.265 C 418.337 288.766, 395.855 312.947, 382.402 331.500 C 373.576 343.674, 360.218 363.663, 358.140 367.806 C 357.122 369.838, 353.397 376.450, 349.862 382.500 C 343.953 392.615, 333.519 413.117, 328.742 424 C 320.696 442.331, 311.995 477.401, 307.900 508 C 307.241 512.928, 306.799 529.318, 306.850 547 C 306.922 572.417, 307.271 579.583, 308.944 590 C 313.834 620.456, 319.478 640.847, 328.210 659.597 C 331.063 665.724, 345.816 688, 347.021 688 C 347.489 688, 350.596 691.521, 353.925 695.824 C 359.932 703.589, 370.871 712.872, 378.647 716.802 C 384.749 719.886, 407.179 725.557, 423 728.016 C 440.769 730.777, 446.368 732.053, 456 735.533 C 460.125 737.023, 466.171 738.877, 469.436 739.653 C 472.700 740.429, 475.850 741.427, 476.436 741.871 C 479.544 744.229, 493.617 745.499, 516.500 745.488 C 548.832 745.473, 549.173 745.379, 590 725.287 C 606.225 717.302, 623.066 709.453, 627.424 707.845 C 631.783 706.237, 638.308 702.955, 641.924 700.552 C 645.541 698.149, 649.737 695.619, 651.250 694.931 C 652.763 694.242, 654 693.286, 654 692.806 C 654 692.326, 655.462 690.398, 657.250 688.521 C 659.038 686.644, 660.980 684.522, 661.566 683.804 C 662.152 683.087, 665.924 679.575, 669.948 676 C 673.972 672.425, 678.060 668.600, 679.032 667.500 C 685.190 660.530, 689 655.765, 689 655.034 C 689 654.569, 690.603 652.234, 692.562 649.845 C 694.520 647.455, 696.754 644.726, 697.526 643.780 C 698.297 642.835, 699.901 640.135, 701.090 637.780 C 702.278 635.426, 704.770 631.415, 706.626 628.866 C 708.482 626.317, 710 623.991, 710 623.697 C 710 623.403, 713.178 616.488, 717.062 608.331 C 720.947 600.174, 725.302 591.025, 726.740 588 C 728.178 584.975, 729.693 581.600, 730.107 580.500 C 730.521 579.400, 732.416 574.900, 734.318 570.500 C 736.221 566.100, 738.086 560.700, 738.463 558.500 C 738.840 556.300, 739.752 553.561, 740.490 552.413 C 741.229 551.265, 742.058 548.277, 742.333 545.774 C 742.609 543.270, 743.488 539.934, 744.286 538.361 C 746.015 534.956, 748.885 524.481, 750.002 517.500 C 750.442 514.750, 752.160 507.775, 753.820 502 C 755.479 496.225, 758.269 486.100, 760.019 479.500 C 761.769 472.900, 764.206 465.025, 765.433 462 C 771.608 446.781, 773 440.815, 773 429.568 C 773 422.071, 772.429 416.673, 771.154 412.108 C 767.459 398.880, 766.816 395.277, 765.960 383 C 765.481 376.125, 764.399 366.675, 763.556 362 C 762.713 357.325, 761.517 350.575, 760.899 347 C 760.280 343.425, 758.529 338.250, 757.006 335.500 C 755.484 332.750, 753.662 328.701, 752.959 326.501 C 752.256 324.302, 749.728 318.630, 747.340 313.897 C 744.953 309.163, 743 304.970, 743 304.579 C 743 303.841, 738.497 294.766, 728.247 274.852 C 722.243 263.185, 718 252.334, 718 248.643 C 718 247.561, 716.685 244.611, 715.078 242.088 C 713.471 239.564, 710.928 234.414, 709.428 230.641 C 706.080 222.223, 700.810 216.842, 689.156 209.941 C 684.567 207.223, 680.460 205, 680.030 205 C 679.601 205, 676.830 203.932, 673.874 202.626 C 670.918 201.320, 664.450 199.508, 659.500 198.598 C 654.550 197.689, 648.183 196.485, 645.350 195.923 C 640.404 194.942, 638.021 194.694, 622.500 193.551 C 604.303 192.211, 588.041 192.245, 586.894 193.627" stroke="#aa444d" fill="#aa444d" fill-opacity="0.2" fill-rule="evenodd"/><path class="svg-region-Or" d="M 1218.620 176.714 C 1218.425 176.908, 1215.393 177.301, 1211.883 177.587 C 1208.372 177.872, 1204.150 178.309, 1202.500 178.557 C 1200.850 178.806, 1196.350 179.464, 1192.500 180.020 C 1188.650 180.576, 1183.475 181.499, 1181 182.070 C 1178.525 182.642, 1174.662 183.452, 1172.415 183.871 C 1168.247 184.648, 1164.060 186.885, 1155.921 192.681 C 1151.269 195.994, 1143 204.673, 1143 206.242 C 1143 206.716, 1140.470 212.366, 1137.378 218.798 C 1134.286 225.231, 1130.655 233.870, 1129.310 237.997 C 1127.965 242.124, 1124.830 249.362, 1122.343 254.083 C 1117.965 262.395, 1114.698 267.340, 1099.160 289.182 C 1095.123 294.857, 1089.824 302.875, 1087.386 307 C 1084.948 311.125, 1080.061 318.550, 1076.527 323.500 C 1072.993 328.450, 1068.904 334.750, 1067.439 337.500 C 1065.974 340.250, 1064.128 343.237, 1063.335 344.138 C 1061.333 346.411, 1058 355.476, 1058 358.645 C 1058 360.087, 1057.582 362.895, 1057.070 364.884 C 1053.692 378.024, 1049.723 404.759, 1050.327 410.304 C 1052.562 430.825, 1054.968 439.851, 1059.839 445.997 C 1062.986 449.967, 1068.676 459.312, 1072.019 466 C 1073.256 468.475, 1074.570 470.725, 1074.938 471 C 1075.307 471.275, 1076.665 473.525, 1077.956 476 C 1079.247 478.475, 1080.907 481.625, 1081.646 483 C 1082.384 484.375, 1082.990 486.288, 1082.994 487.250 C 1082.997 488.212, 1083.450 489, 1084 489 C 1084.550 489, 1085 489.845, 1085 490.878 C 1085 491.910, 1085.675 493.315, 1086.500 494 C 1087.325 494.685, 1088 495.642, 1088 496.128 C 1088 496.614, 1090.700 502.631, 1094 509.500 C 1097.300 516.369, 1100 522.219, 1100 522.499 C 1100 522.780, 1101.156 525.370, 1102.568 528.255 C 1103.980 531.140, 1106.172 536.211, 1107.438 539.525 C 1111.866 551.110, 1136.475 599.242, 1140.873 604.918 C 1142.400 606.888, 1144.759 610.525, 1146.116 613 C 1149.380 618.953, 1162.014 636, 1163.161 636 C 1163.657 636, 1164.359 636.788, 1164.720 637.750 C 1165.081 638.712, 1166.530 640.636, 1167.939 642.025 C 1169.347 643.414, 1171.671 645.889, 1173.102 647.525 C 1176.407 651.304, 1189.433 663.081, 1194.011 666.429 C 1201.305 671.764, 1209.546 676.981, 1210.693 676.990 C 1211.349 676.996, 1213.374 677.867, 1215.193 678.927 C 1218.510 680.859, 1228.288 684.556, 1239.500 688.116 C 1242.800 689.164, 1246.400 690.434, 1247.500 690.939 C 1248.600 691.443, 1252.540 693.006, 1256.256 694.412 C 1270.994 699.988, 1275.868 702.042, 1280.094 704.457 C 1282.517 705.843, 1285.065 706.981, 1285.755 706.988 C 1286.445 706.995, 1289.370 708.160, 1292.255 709.577 C 1295.140 710.994, 1298.400 712.317, 1299.500 712.517 C 1302.115 712.992, 1306.888 714.378, 1315.500 717.167 C 1321.884 719.234, 1324.260 719.423, 1342.500 719.319 C 1362.958 719.202, 1371.085 718.258, 1388.283 714 C 1392.802 712.881, 1397.859 711.327, 1399.519 710.545 C 1401.180 709.764, 1406.959 707.949, 1412.362 706.511 C 1427.245 702.551, 1432.198 700.294, 1455.812 686.712 C 1470.899 678.035, 1491.439 661.118, 1498.549 651.514 C 1500.172 649.322, 1502.541 646.335, 1503.814 644.878 C 1506.394 641.922, 1514.322 628.403, 1516.642 623 C 1522.481 609.404, 1525.200 596.688, 1525.194 583 C 1525.190 572.849, 1523.465 543.632, 1521.947 528 C 1521.440 522.775, 1520.527 511.750, 1519.918 503.500 C 1519.309 495.250, 1517.927 481.525, 1516.846 473 C 1515.765 464.475, 1514.250 452.325, 1513.480 446 C 1512.709 439.675, 1511.366 430.675, 1510.497 426 C 1509.627 421.325, 1508.280 413.450, 1507.504 408.500 C 1506.728 403.550, 1505.201 396.125, 1504.111 392 C 1503.021 387.875, 1501.833 383.375, 1501.471 382 C 1498.582 371.024, 1491.730 354.378, 1488.938 351.550 C 1488.422 351.028, 1488 350.041, 1488 349.358 C 1488 347.874, 1478.491 332.108, 1472.654 323.913 C 1470.369 320.706, 1466.265 314.914, 1463.534 311.041 C 1460.803 307.169, 1458.291 304, 1457.952 304 C 1457.613 304, 1455.441 301.413, 1453.124 298.250 C 1445.228 287.468, 1425.241 266.561, 1421.750 265.432 C 1420.787 265.120, 1420 264.293, 1420 263.593 C 1420 261.920, 1413.922 256.427, 1411.068 255.522 C 1409.836 255.130, 1404.796 251.113, 1399.869 246.593 C 1394.943 242.074, 1388.344 237.054, 1385.206 235.438 C 1382.068 233.822, 1377.700 231.319, 1375.500 229.876 C 1373.300 228.434, 1368.800 225.823, 1365.500 224.074 C 1362.200 222.326, 1358.825 220.484, 1358 219.981 C 1354.418 217.798, 1333.588 207.921, 1323.500 203.622 C 1317.450 201.044, 1309.575 197.637, 1306 196.050 C 1291.114 189.442, 1285.527 187.540, 1273.500 184.982 C 1270.200 184.280, 1266.590 183.154, 1265.478 182.479 C 1264.366 181.805, 1261.441 180.920, 1258.978 180.513 C 1256.515 180.106, 1251.125 178.946, 1247 177.934 C 1240.407 176.318, 1219.897 175.436, 1218.620 176.714" stroke="#aa444d" fill="#aa444d" fill-opacity="0.2" fill-rule="evenodd"/><path class="svg-region-BPCl" d="M 827 601.500 C 826.315 602.325, 824.910 603, 823.878 603 C 821.154 603, 821.400 608.873, 824.370 614.783 C 825.674 617.377, 827.083 620.625, 827.501 622 C 827.919 623.375, 829.943 628.100, 832 632.500 C 834.057 636.900, 836.941 643.425, 838.407 647 C 839.874 650.575, 842.745 655.975, 844.787 659 C 847.881 663.582, 849.056 664.553, 851.834 664.820 C 854.636 665.088, 855.706 664.530, 858.542 661.320 C 860.398 659.219, 861.935 656.768, 861.958 655.872 C 861.981 654.977, 862.745 653.627, 863.655 652.872 C 865.941 650.977, 868.001 645.713, 867.996 641.782 C 867.993 639.813, 866.795 636.700, 865 634 C 863.355 631.525, 862.007 629.166, 862.004 628.758 C 861.997 627.580, 858.300 623.443, 846.414 611.313 C 836.418 601.112, 834.980 600, 831.787 600 C 829.839 600, 827.685 600.675, 827 601.500" stroke="#83385f" fill="#83385f" fill-opacity="0.2" fill-rule="evenodd"/><path class="svg-region-BPCr" d="M 1015.220 584.462 C 1013.905 585.974, 1012.833 588.966, 1012.443 592.212 C 1012.048 595.500, 1009.905 601.428, 1006.777 607.886 C 1001.906 617.942, 1001.731 618.608, 1001.268 628.886 L 1000.789 639.500 1004.372 644.050 C 1006.344 646.553, 1009.262 650.988, 1010.857 653.906 L 1013.759 659.211 1016.735 654.856 C 1018.372 652.460, 1020.291 648.700, 1021 646.500 C 1021.710 644.300, 1025.190 636.200, 1028.735 628.500 C 1034.669 615.611, 1035.223 613.819, 1035.719 605.919 C 1036.246 597.535, 1036.188 597.242, 1033.166 593.071 C 1029.844 588.485, 1021.507 582, 1018.934 582 C 1018.068 582, 1016.397 583.108, 1015.220 584.462" stroke="#83385f" fill="#83385f" fill-opacity="0.2" fill-rule="evenodd"/>
    </svg>