<svg xmlns="http://www.w3.org/2000/svg" width="1921" height="1027" viewBox="0 0 1921 1027" version="1.1">
    <path class="svg-region-V" d="M 935.500 176.338 C 916.932 177.408, 913.128 177.464, 883.500 177.104 C 859.982 176.817, 837.173 178.498, 819 181.857 C 806.166 184.228, 794.230 186.963, 790.500 188.386 C 788.300 189.225, 785.768 189.932, 784.872 189.956 C 783.977 189.980, 782.721 190.631, 782.081 191.402 C 781.442 192.173, 779.699 193.093, 778.209 193.448 C 775.748 194.033, 754.588 203.860, 751 206.085 C 749.217 207.190, 747.045 208.165, 741 210.576 C 738.525 211.563, 735.600 213.121, 734.500 214.039 C 733.400 214.957, 728.225 217.806, 723 220.369 C 711.739 225.894, 709.450 227.569, 708.051 231.315 C 706.070 236.620, 706.898 240.370, 712.513 251.536 C 715.546 257.566, 718.488 264.188, 719.052 266.250 C 720.020 269.793, 720.300 270, 724.104 270 C 726.319 270, 729.059 270.496, 730.192 271.103 C 733.238 272.733, 752.712 273.003, 757.500 271.481 C 759.700 270.782, 765.325 269.661, 770 268.990 C 774.675 268.320, 783 266.659, 788.500 265.299 C 794.429 263.833, 803.385 262.542, 810.500 262.127 C 822.427 261.431, 822.557 261.397, 831.832 256.463 C 836.965 253.733, 842.815 250.121, 844.832 248.435 C 846.849 246.749, 853 242.969, 858.500 240.035 C 864 237.100, 868.772 234.285, 869.104 233.777 C 870.411 231.780, 878.330 230.788, 897 230.281 C 936.993 229.196, 947.638 229.475, 959 231.903 C 975.881 235.512, 994.268 243.407, 1015.949 256.357 C 1024.388 261.397, 1025.990 262.001, 1030.949 262.006 C 1034.002 262.009, 1038.300 262.517, 1040.500 263.135 C 1048.208 265.300, 1066.564 269.149, 1073.329 270.018 C 1077.085 270.500, 1082.035 271.587, 1084.329 272.433 C 1089.356 274.287, 1103.437 276.059, 1107.220 275.314 C 1110.667 274.635, 1115 267.571, 1115 262.631 C 1115 260.699, 1115.433 258.850, 1115.963 258.523 C 1116.492 258.196, 1116.943 256.032, 1116.964 253.714 C 1117.018 247.751, 1117.360 245.816, 1118.815 243.229 C 1119.518 241.980, 1119.871 240.601, 1119.601 240.163 C 1119.330 239.725, 1119.025 235.229, 1118.923 230.172 C 1118.756 221.954, 1118.434 220.499, 1115.889 216.486 C 1112.567 211.248, 1107.789 208.009, 1103.375 208.004 C 1100.466 208, 1085.134 201.736, 1084.006 200.090 C 1083.728 199.684, 1081.250 198.763, 1078.500 198.043 C 1075.750 197.324, 1071.475 195.833, 1069 194.731 C 1057.280 189.514, 1050.635 187.630, 1034.500 184.950 C 1030.650 184.310, 1023.900 182.974, 1019.500 181.981 C 1009.859 179.805, 993.968 177.977, 984.799 177.990 C 981.114 177.996, 975.939 177.582, 973.299 177.071 C 965.365 175.535, 953.444 175.304, 935.500 176.338" stroke="#dd8a8a" fill="#dd8a8a" fill-opacity="0.2" fill-rule="evenodd"/><path class="svg-region-SF" d="M 911.500 230.116 C 908.200 230.675, 900.274 230.868, 893.887 230.546 C 879.823 229.835, 872.849 231.205, 864.999 236.218 C 861.974 238.149, 856.800 241.139, 853.500 242.861 C 850.200 244.584, 845.925 247.308, 844 248.915 C 842.075 250.522, 836.106 254.123, 830.735 256.918 C 821.078 261.944, 820.870 262, 811.833 262 C 805.220 262, 799.352 262.798, 790.598 264.886 C 783.944 266.474, 774.450 268.344, 769.500 269.042 C 764.550 269.739, 759.642 270.744, 758.594 271.274 C 755.695 272.739, 736.307 272.750, 732.113 271.289 C 730.126 270.597, 727.065 270.023, 725.311 270.015 C 722.287 270.001, 722.087 270.236, 721.435 274.584 C 720.548 280.498, 721.348 292.924, 722.782 295.500 C 723.394 296.600, 724.775 299.975, 725.851 303 C 727.523 307.701, 730.615 314.222, 733.912 320 C 734.383 320.825, 735.365 322.850, 736.095 324.500 C 738.166 329.180, 747.730 341.693, 751.346 344.450 C 758.090 349.594, 761.506 350.414, 774.999 350.124 C 785.467 349.898, 788.027 349.528, 790.749 347.846 C 792.537 346.741, 794 345.424, 794 344.918 C 794 344.413, 794.741 344, 795.646 344 C 796.552 344, 799.666 342.425, 802.566 340.500 C 805.466 338.575, 808.602 337, 809.534 337 C 810.466 337, 815.565 335.682, 820.864 334.071 C 826.164 332.460, 834.472 329.960, 839.326 328.515 C 846.200 326.469, 847.918 325.606, 847.094 324.613 C 845.439 322.619, 849.402 319.007, 853.289 318.966 C 855.055 318.947, 858.300 318.063, 860.500 317 C 863.431 315.584, 866.697 315.059, 872.723 315.034 C 879.632 315.005, 881.859 315.433, 886.669 317.710 C 892.881 320.651, 893.996 320.718, 915.965 319.465 C 923.234 319.051, 928.166 318.297, 929.438 317.406 C 930.542 316.633, 933.257 315.994, 935.473 315.987 C 937.688 315.980, 942.353 315.080, 945.839 313.987 C 950.684 312.468, 954.997 312, 964.142 312 C 975.256 312, 976.368 312.178, 979.785 314.500 C 981.809 315.875, 984 317, 984.655 317 C 985.311 317, 987.281 318.207, 989.034 319.682 C 992.018 322.193, 992.106 322.449, 990.420 323.682 C 988.888 324.803, 990.256 325.005, 999.559 325.032 C 1007.591 325.055, 1011.016 325.454, 1012.441 326.532 C 1013.509 327.339, 1015.484 328, 1016.831 328 C 1018.177 328, 1021.473 329.350, 1024.154 331 C 1026.836 332.650, 1029.361 334.001, 1029.765 334.002 C 1031.301 334.007, 1046.612 342.288, 1049 344.405 C 1053.376 348.286, 1056.560 349.002, 1069.297 348.965 C 1077.987 348.939, 1082.220 348.518, 1084 347.500 C 1085.375 346.714, 1087.527 346.055, 1088.781 346.035 C 1090.036 346.016, 1091.357 345.212, 1091.716 344.250 C 1092.075 343.288, 1093.171 341.922, 1094.153 341.215 C 1095.134 340.509, 1096.861 338.034, 1097.991 335.715 C 1100.371 330.831, 1102.132 327.771, 1103.663 325.857 C 1104.260 325.110, 1104.988 323.150, 1105.279 321.500 C 1105.571 319.850, 1106.508 316.639, 1107.360 314.365 C 1108.213 312.091, 1109.219 306.153, 1109.595 301.169 C 1110.372 290.877, 1109.395 287.635, 1103.969 282.500 C 1102.225 280.850, 1100.429 278.550, 1099.977 277.389 C 1099.346 275.768, 1097.951 275.119, 1093.968 274.590 C 1091.116 274.212, 1086.765 273.217, 1084.299 272.380 C 1081.834 271.543, 1076.821 270.472, 1073.159 270 C 1066.527 269.144, 1048.112 265.273, 1040.500 263.135 C 1038.300 262.517, 1034.337 262.009, 1031.694 262.006 C 1026.674 262, 1018.883 258.747, 1010.638 253.214 C 1004.030 248.779, 984.170 239.410, 972.500 235.223 C 970.850 234.631, 967.025 233.626, 964 232.990 C 960.975 232.354, 956.925 231.402, 955 230.876 C 949.890 229.478, 918.506 228.929, 911.500 230.116" stroke="#8c6b55" fill="#8c6b55" fill-opacity="0.2" fill-rule="evenodd"/><path class="svg-region-IF" d="M 945.500 314 C 942.750 315.015, 938.463 315.880, 935.973 315.922 C 933.482 315.965, 930.523 316.645, 929.397 317.434 C 928.061 318.370, 923.380 319.074, 915.925 319.460 C 893.710 320.610, 892.944 320.562, 887.063 317.672 C 882.412 315.387, 880.345 315, 872.773 315 C 865.894 315, 863.046 315.446, 860 317 C 857.844 318.100, 854.729 319, 853.079 319 C 850.399 319, 846 322.128, 846 324.034 C 846 325.080, 849.211 327.612, 852.932 329.499 C 855.937 331.023, 858.551 331.175, 873.932 330.720 C 883.594 330.435, 893.189 329.685, 895.253 329.053 C 897.778 328.280, 912.880 327.838, 941.399 327.702 C 980.199 327.517, 983.955 327.352, 985.724 325.750 C 986.788 324.788, 988.383 324, 989.270 324 C 990.156 324, 991.135 323.591, 991.444 323.091 C 992.132 321.977, 986.849 317.401, 983.755 316.432 C 982.515 316.043, 980.427 314.887, 979.115 313.862 C 975.682 311.182, 952.885 311.275, 945.500 314" stroke="#f2823b" fill="#f2823b" fill-opacity="0.2" fill-rule="evenodd"/><path class="svg-region-AAB" d="M 925.500 354.316 C 918.900 354.881, 910.125 355.264, 906 355.168 C 884.245 354.660, 871.861 355.071, 864 356.562 C 859.325 357.448, 854.150 358.414, 852.500 358.709 C 850.850 359.003, 848.825 359.829, 848 360.545 C 845.418 362.787, 835.772 365.775, 829.102 366.401 C 825.584 366.730, 822.209 367.356, 821.602 367.792 C 820.996 368.227, 818.700 369.177, 816.500 369.904 C 801.882 374.731, 794.601 378.756, 789.480 384.841 C 788.018 386.579, 786.300 388.001, 785.661 388.003 C 785.022 388.004, 782.489 389.740, 780.031 391.859 L 775.561 395.714 775.162 406.492 C 774.771 417.068, 776.424 431.526, 778.147 432.591 C 778.616 432.881, 779 433.896, 779 434.848 C 779 437.194, 782.431 443.760, 785.221 446.756 C 786.475 448.101, 789.440 450.119, 791.811 451.240 C 796.593 453.500, 796.779 453.496, 828 450.393 C 837.075 449.490, 847.200 448.689, 850.500 448.612 C 856.584 448.471, 858.486 447.880, 867.478 443.341 C 870.240 441.948, 874.975 439.893, 878 438.775 C 881.025 437.658, 885.300 435.943, 887.500 434.965 C 901.057 428.936, 902.781 428.577, 919.882 428.234 C 935.181 427.926, 936.832 428.077, 944.882 430.511 C 949.622 431.944, 954.400 433.520, 955.500 434.013 C 956.600 434.506, 963.125 436.809, 970 439.130 C 981.521 443.021, 983.675 443.418, 997.500 444.198 C 1031.832 446.134, 1048.145 446.228, 1053.574 444.521 C 1064.562 441.064, 1067.373 433.810, 1066.757 410.500 C 1066.349 395.100, 1065.509 392.966, 1057.822 387.807 C 1054.895 385.843, 1048.571 380.431, 1043.769 375.782 L 1035.039 367.328 1026.769 366.185 C 1022.221 365.556, 1014.246 364.560, 1009.047 363.972 C 999.360 362.875, 987.571 360.103, 981.128 357.407 C 976.039 355.277, 957.347 352.973, 946.564 353.145 C 941.579 353.224, 932.100 353.752, 925.500 354.316" stroke="#7f3c1a" fill="#7f3c1a" fill-opacity="0.2" fill-rule="evenodd"/><path class="svg-region-APB" d="M 984.612 326 C 982.828 327.267, 976.108 327.530, 941.362 327.690 C 908.903 327.840, 898.488 328.210, 892.001 329.440 C 887.055 330.379, 878.305 331, 870.038 331 C 857.299 331, 855.955 330.818, 851.592 328.498 L 846.887 325.996 840.693 327.990 C 826.772 332.473, 811.079 337, 809.461 337 C 807.787 337, 801.020 340.657, 799.990 342.118 C 799.709 342.516, 798.241 343.152, 796.727 343.532 C 795.213 343.912, 793.643 344.746, 793.237 345.386 C 792.832 346.025, 791.227 347.358, 789.672 348.348 C 787.651 349.635, 787.047 350.627, 787.557 351.824 C 787.949 352.746, 788.554 355.070, 788.900 356.989 C 789.728 361.571, 792.057 361.918, 796.092 358.062 C 799.678 354.635, 802.564 354.122, 803.465 356.750 C 803.795 357.712, 805.474 359.400, 807.196 360.500 C 812.162 363.671, 812.832 365.485, 810.109 368.384 C 806.508 372.217, 807.831 373.093, 814 370.961 C 817.025 369.916, 820.312 368.578, 821.305 367.988 C 822.298 367.397, 826.123 366.666, 829.805 366.362 C 836.911 365.775, 844.426 363.569, 847.145 361.271 C 852.030 357.141, 887.809 352.675, 897.459 354.990 C 900.238 355.657, 905.209 355.986, 908.506 355.722 C 952.826 352.168, 965.390 352.556, 982.500 358.004 C 995.040 361.996, 1003.792 363.827, 1016 365.011 C 1021.775 365.572, 1028.020 366.308, 1029.877 366.647 C 1034.753 367.538, 1033.558 365.079, 1027.768 362.303 C 1021.756 359.423, 1021.265 358.377, 1024.391 355.114 C 1025.826 353.616, 1027 351.718, 1027 350.895 C 1027 349.037, 1028.957 347, 1030.743 347 C 1031.482 347, 1034.429 348.745, 1037.293 350.877 C 1050.648 360.821, 1056.995 359.820, 1051.522 348.634 C 1048.987 343.453, 1048.411 342.971, 1039.538 338.596 C 1034.411 336.068, 1029.958 334, 1029.643 334 C 1029.327 334, 1026.941 332.650, 1024.339 331 C 1021.737 329.350, 1018.556 328, 1017.269 328 C 1015.982 328, 1013.933 327.358, 1012.715 326.574 C 1009.385 324.431, 987.452 323.983, 984.612 326" stroke="#ac7444" fill="#ac7444" fill-opacity="0.2" fill-rule="evenodd"/><path class="svg-region-AP" d="M 970 513.055 C 965.866 514.448, 948.914 518.986, 942.500 520.417 C 933.812 522.355, 920.351 523.157, 914 522.114 C 907.983 521.127, 889.985 516.562, 886 515.013 C 884.625 514.478, 873.825 513.943, 862 513.824 C 841.577 513.618, 840.289 513.717, 836.290 515.803 C 833.974 517.011, 831.338 518, 830.431 518 C 829.239 518, 828.923 518.622, 829.290 520.250 C 829.569 521.487, 828.601 525.425, 827.138 529 C 824.955 534.337, 823.933 535.679, 821.425 536.500 C 819.745 537.050, 816.902 538.737, 815.108 540.250 C 811.379 543.394, 808.465 543.715, 805.092 541.352 L 802.738 539.703 803.325 545.602 C 804.851 560.929, 805.868 568.978, 806.386 569.816 C 806.698 570.320, 807.980 570.535, 809.237 570.295 C 811.713 569.822, 821.727 575.112, 825.989 579.145 C 827.358 580.440, 830.569 583.185, 833.124 585.243 C 836.888 588.276, 838.355 590.460, 840.852 596.743 C 842.547 601.010, 844.458 608.377, 845.100 613.117 L 846.266 621.733 850.383 619.379 C 854.926 616.780, 860.159 616.368, 866.081 618.142 C 871.779 619.849, 886.664 635.541, 891.064 644.479 C 895.739 653.976, 896.279 662.527, 892.696 670.353 L 890.175 675.860 896.837 676.660 C 904.323 677.560, 922.945 677.452, 936.500 676.430 L 945.500 675.751 945.537 671.626 C 945.598 664.903, 950.597 655.468, 958.851 646.500 C 962.901 642.100, 967.295 636.369, 968.617 633.765 C 971.263 628.548, 981.961 615.626, 984.965 614.019 C 986.176 613.371, 987.753 613.336, 989.297 613.923 C 991.678 614.828, 991.737 614.723, 992.318 608.498 C 993.024 600.941, 994.811 596.302, 998.661 592.038 C 1000.222 590.308, 1002.286 587.465, 1003.246 585.719 C 1005.982 580.747, 1013.768 574, 1016.770 574 C 1018.200 574, 1020.390 573.043, 1021.635 571.873 C 1024.621 569.068, 1026.038 569.784, 1028.922 575.559 C 1030.928 579.576, 1031.437 580.046, 1032.025 578.431 C 1033.726 573.756, 1033.973 565.332, 1032.560 560.101 C 1030.547 552.645, 1029.391 551.836, 1028.020 556.924 C 1027.402 559.223, 1026.278 561.340, 1025.524 561.629 C 1023.844 562.274, 1012.149 559.369, 1010.323 557.853 C 1009.595 557.249, 1009 555.735, 1009 554.488 C 1009 553.240, 1006.975 549.469, 1004.500 546.107 C 999.481 539.289, 999.247 538.275, 1001.750 534.198 C 1005.731 527.713, 1008.782 525.015, 1012.429 524.755 C 1014.391 524.615, 1015.994 524.275, 1015.991 524 C 1015.978 522.598, 1008.395 518.657, 1001.503 516.469 C 988.532 512.353, 976.088 511.004, 970 513.055" stroke="#fc7143" fill="#fc7143" fill-opacity="0.2" fill-rule="evenodd"/><path class="svg-region-LPl" d="M 811.191 521.446 C 807.721 523.316, 803.825 525.903, 802.533 527.194 C 800.458 529.270, 800.279 530.059, 800.999 533.992 C 801.920 539.031, 805.675 543, 809.521 543 C 810.846 543, 813.417 541.695, 815.233 540.100 C 817.050 538.505, 819.653 537.042, 821.018 536.850 C 823.454 536.506, 824.315 535.263, 828.461 526.096 C 830.371 521.872, 830.370 521.512, 828.429 519.571 C 825.663 516.806, 818.319 517.604, 811.191 521.446" stroke="#d2454f" fill="#d2454f" fill-opacity="0.2" fill-rule="evenodd"/><path class="svg-region-LPr" d="M 1011.112 524.836 C 1007.725 525.317, 1000.020 534.621, 1000.007 538.247 C 1000.003 539.208, 1002.025 542.745, 1004.500 546.107 C 1006.975 549.469, 1009 553.240, 1009 554.488 C 1009 555.735, 1009.595 557.249, 1010.323 557.853 C 1012.143 559.364, 1023.842 562.275, 1025.515 561.633 C 1027.079 561.032, 1028.986 554.917, 1028.994 550.473 C 1028.997 548.807, 1029.696 546.451, 1030.547 545.236 C 1032 543.161, 1031.804 542.468, 1027.297 533.764 L 1022.500 524.500 1018 524.499 C 1015.525 524.498, 1012.425 524.650, 1011.112 524.836" stroke="#d2454f" fill="#d2454f" fill-opacity="0.2" fill-rule="evenodd"/><path class="svg-region-AVCl" d="M 850.891 618.995 C 847.419 620.831, 845.842 623.373, 844.584 629.161 C 844.266 630.625, 841.755 635.189, 839.003 639.303 C 836.251 643.418, 834 647.419, 834 648.194 C 834 649.851, 842.261 658.490, 848.871 663.744 C 851.417 665.768, 856.200 669.955, 859.500 673.048 L 865.500 678.672 873.392 679.335 C 880.365 679.921, 881.811 679.737, 885.807 677.749 C 889.479 675.923, 890.790 674.498, 892.771 670.179 C 894.829 665.692, 895.146 663.734, 894.791 657.679 C 894.150 646.724, 890.988 640.960, 878.660 628.277 C 869.465 618.817, 866.106 616.956, 858.384 617.044 C 856.248 617.069, 852.876 617.947, 850.891 618.995" stroke="#ffbab9" fill="#ffbab9" fill-opacity="0.2" fill-rule="evenodd"/><path class="svg-region-AVCr" d="M 983.516 615.166 C 978.160 619.379, 973.050 625.584, 969.298 632.430 C 967.209 636.241, 962.680 642.187, 959.232 645.642 C 954.767 650.118, 951.820 654.292, 948.982 660.159 C 944.260 669.924, 943.996 673.165, 947.646 676.548 C 950.040 678.766, 951.134 679, 959.135 679 C 973.291 679, 979.740 675.793, 993.716 661.805 C 1003.428 652.086, 1004.583 649.203, 1000.233 645.543 C 996.548 642.442, 993.194 632.597, 992.327 622.336 C 991.758 615.608, 991.444 614.739, 989.281 613.917 C 986.223 612.754, 986.719 612.647, 983.516 615.166" stroke="#ffbab9" fill="#ffbab9" fill-opacity="0.2" fill-rule="evenodd"/><path class="svg-region-Ol" d="M 595.500 208.271 C 590.550 209.877, 585.306 211.823, 583.846 212.595 C 582.386 213.368, 580.467 214, 579.582 214 C 578.697 214, 577.191 214.403, 576.236 214.896 C 575.281 215.389, 569.100 218.138, 562.500 221.005 C 555.900 223.873, 549.286 226.856, 547.801 227.636 C 546.317 228.415, 543.331 229.678, 541.165 230.442 C 539 231.206, 535.386 232.994, 533.134 234.415 C 530.882 235.837, 528.498 237, 527.836 237 C 526.209 237, 518.152 240.944, 517.447 242.087 C 517.136 242.589, 516.256 243, 515.491 243 C 514.726 243, 512.100 244.350, 509.655 246 C 507.210 247.650, 504.729 249, 504.140 249 C 503.552 249, 501.142 250.363, 498.785 252.028 C 496.428 253.694, 490 258.054, 484.500 261.717 C 474.887 268.119, 470.991 271.012, 464.500 276.570 C 462.850 277.983, 457.450 282.262, 452.500 286.079 C 447.550 289.896, 441.521 294.702, 439.102 296.759 C 436.683 298.817, 433.983 300.917, 433.102 301.427 C 432.221 301.937, 431.050 302.900, 430.500 303.567 C 429.400 304.901, 417.783 313.632, 410.276 318.767 C 396.752 328.018, 390.116 333.031, 384.497 338.238 C 381.092 341.393, 376.765 345.218, 374.882 346.738 C 371.787 349.235, 356.814 364.748, 353.033 369.376 C 352.190 370.407, 350.592 372.207, 349.481 373.376 C 347.820 375.124, 339.705 385.957, 330.296 398.987 C 325.533 405.582, 311 432.372, 311 434.557 C 311 435.202, 310.193 436.803, 309.208 438.115 C 307.235 440.740, 302.828 452.329, 298.225 467 C 292.170 486.295, 289.203 499.805, 287.991 513.600 C 287.485 519.362, 286.881 524.397, 286.649 524.788 C 286.416 525.180, 285.928 530.417, 285.563 536.427 C 285.198 542.437, 284.670 547.726, 284.389 548.179 C 283.346 549.868, 287.372 595.333, 289.642 607.500 C 291.254 616.145, 295.849 632.166, 299.248 641 C 301.946 648.012, 309.166 662.396, 310.206 662.833 C 310.643 663.017, 311 663.578, 311 664.081 C 311 664.881, 317.546 674.662, 318.977 676 C 319.271 676.275, 320.840 678.300, 322.463 680.500 C 327.004 686.654, 345.780 704.668, 349.488 706.427 C 351.305 707.289, 355.106 709.553, 357.936 711.457 C 365.904 716.819, 375.955 721.790, 386.500 725.583 C 389.250 726.573, 392.472 727.996, 393.660 728.747 C 396.795 730.728, 416.371 735.704, 432.158 738.533 C 439.670 739.878, 446.870 741.371, 448.158 741.849 C 451.301 743.016, 464.208 744.766, 476.703 745.721 C 494.074 747.047, 528.297 744.860, 535.500 741.963 C 536.600 741.521, 539.525 740.892, 542 740.566 C 553.388 739.066, 568.554 735.491, 571.500 733.612 C 572.600 732.911, 575.975 731.504, 579 730.486 C 582.025 729.468, 587.264 727.367, 590.643 725.818 C 594.022 724.268, 597.221 723, 597.752 723 C 598.284 723, 601.144 721.716, 604.109 720.147 C 607.074 718.577, 610.032 717.480, 610.682 717.707 C 611.333 717.935, 612.361 717.194, 612.967 716.061 C 613.574 714.927, 614.911 714, 615.939 714 C 616.967 714, 622.239 711.676, 627.654 708.836 C 633.069 705.995, 639.975 702.415, 643 700.879 C 646.025 699.343, 650.750 696.204, 653.500 693.903 C 656.250 691.603, 659.850 689.148, 661.500 688.448 C 663.150 687.748, 665.591 686.010, 666.924 684.587 C 668.258 683.164, 669.695 682, 670.117 682 C 672.235 682, 692.499 660.953, 696.948 654.133 C 699.686 649.935, 702.685 645.426, 703.613 644.113 C 706.565 639.936, 716.787 618.673, 718.090 614 C 718.780 611.525, 719.862 608.825, 720.495 608 C 721.671 606.465, 722.318 604.440, 726.079 590.500 C 727.266 586.100, 728.859 581.082, 729.619 579.349 C 730.378 577.616, 731 575.351, 731 574.317 C 731 573.282, 731.682 569.975, 732.516 566.968 C 733.350 563.961, 734.886 555.875, 735.931 549 C 736.975 542.125, 738.527 533.125, 739.379 529 C 740.232 524.875, 741.417 517.483, 742.015 512.574 C 742.612 507.664, 743.317 503.297, 743.581 502.868 C 743.846 502.440, 745.261 496.332, 746.727 489.295 C 750.265 472.305, 750.082 458.681, 746.187 449 C 745.634 447.625, 744.431 443.800, 743.514 440.500 C 742.597 437.200, 741.485 433.600, 741.043 432.500 C 737.988 424.898, 737.028 422.083, 736.438 419 C 736.070 417.075, 735.450 415.050, 735.060 414.500 C 734.669 413.950, 733.816 411.630, 733.164 409.345 C 731.672 404.122, 726.106 395.821, 720.263 390.105 C 712.314 382.329, 698.868 359.613, 695.803 348.780 C 693.253 339.769, 693.736 327.891, 697.074 317.541 L 699.318 310.581 697.148 299.541 C 695.954 293.468, 694.983 285.231, 694.989 281.236 C 694.995 277.241, 694.585 273.191, 694.078 272.236 C 693.572 271.281, 691.691 265.775, 689.899 260 C 688.106 254.225, 685.580 248.087, 684.285 246.360 C 682.990 244.633, 679.436 238.558, 676.388 232.860 C 669.944 220.815, 668.419 218.997, 661.002 214.529 C 653.407 209.954, 646.513 208.140, 632.500 207.031 C 607.186 205.027, 605.302 205.090, 595.500 208.271 M 599.445 380.068 C 597.765 380.557, 595.347 382.066, 594.073 383.423 C 591.377 386.292, 591.706 388.954, 595.307 393.403 C 597.271 395.831, 598.546 396.371, 603.078 396.696 C 609.591 397.163, 612.888 395.657, 614.610 391.427 C 616.351 387.151, 614.642 384.065, 608.996 381.291 C 604.004 378.839, 603.776 378.810, 599.445 380.068" stroke="#aa444d" fill="#aa444d" fill-opacity="0.2" fill-rule="evenodd"/><path class="svg-region-Or" d="M 1238 185.989 C 1228.225 187.557, 1216.874 191.466, 1204.500 197.523 C 1192.392 203.451, 1188.943 207.681, 1186.081 220.114 C 1184.936 225.084, 1183.995 231.480, 1183.989 234.326 C 1183.984 237.171, 1183.067 245.350, 1181.953 252.500 C 1180.838 259.650, 1179.499 268.801, 1178.977 272.836 C 1177.525 284.056, 1174.639 292.055, 1167.064 305.868 C 1157.771 322.812, 1154.123 328.465, 1147.819 335.687 C 1144.894 339.039, 1140.754 344.578, 1138.620 347.996 C 1134.810 354.099, 1123.702 369.082, 1119.342 374 C 1116.944 376.705, 1114.585 380.043, 1104.024 395.677 C 1095.182 408.765, 1095.340 408.444, 1092.367 419.281 C 1090.976 424.351, 1089.167 430.108, 1088.347 432.073 C 1087.116 435.022, 1087.043 437.028, 1087.928 443.573 C 1088.518 447.933, 1089.441 458.892, 1089.978 467.928 C 1090.516 476.963, 1091.415 484.815, 1091.978 485.378 C 1092.540 485.940, 1093 489.257, 1093 492.750 C 1093 496.242, 1093.611 500.314, 1094.358 501.800 C 1095.750 504.568, 1099 522.427, 1099 527.309 C 1099 528.806, 1099.650 532.611, 1100.446 535.765 C 1101.241 538.919, 1102.327 544.875, 1102.860 549 C 1103.393 553.125, 1105.243 561.675, 1106.970 568 C 1108.697 574.325, 1111.204 583.775, 1112.540 589 C 1113.876 594.225, 1115.406 599.400, 1115.940 600.500 C 1117.937 604.614, 1120 610.292, 1120 611.673 C 1120 613.758, 1133.485 635.656, 1138.369 641.500 C 1140.667 644.250, 1143.866 648.300, 1145.479 650.500 C 1150.915 657.916, 1165.466 673.060, 1170 676.020 C 1172.475 677.636, 1175.625 679.717, 1177 680.644 C 1184.602 685.767, 1186.745 687, 1188.054 687.005 C 1188.849 687.007, 1194.675 689.514, 1201 692.576 C 1207.325 695.638, 1215.200 699.437, 1218.500 701.019 C 1227.788 705.471, 1244.301 713.618, 1257.386 720.203 C 1263.924 723.493, 1271.085 726.824, 1273.300 727.606 C 1275.515 728.387, 1277.816 729.429, 1278.414 729.921 C 1279.011 730.413, 1281.975 731.304, 1285 731.902 C 1288.025 732.500, 1294.550 734.143, 1299.500 735.554 C 1304.450 736.966, 1310.525 738.478, 1313 738.915 C 1315.475 739.352, 1319.750 740.527, 1322.500 741.527 C 1329.646 744.125, 1357.771 744.285, 1363.096 741.759 C 1365.072 740.821, 1369.346 739.743, 1372.594 739.363 C 1375.842 738.983, 1380.300 737.683, 1382.500 736.474 C 1384.700 735.265, 1388.975 733.480, 1392 732.507 C 1395.025 731.534, 1401.775 728.733, 1407 726.283 C 1412.225 723.832, 1418.822 720.949, 1421.659 719.876 C 1424.496 718.802, 1427.364 717.266, 1428.031 716.462 C 1428.699 715.658, 1430.042 715, 1431.015 715 C 1431.989 715, 1433.006 714.428, 1433.274 713.729 C 1433.542 713.029, 1436.178 711.283, 1439.131 709.847 C 1467.108 696.246, 1473.112 692.971, 1483.041 685.901 C 1486.594 683.371, 1491.062 680.446, 1492.972 679.401 C 1499.114 676.038, 1508.933 666.730, 1513.971 659.494 C 1527.485 640.084, 1538.554 603.505, 1540.491 571.850 C 1540.638 569.458, 1541.278 559.400, 1541.913 549.500 C 1543.342 527.234, 1542.519 484.415, 1540.395 470.500 C 1539.555 465, 1538.673 457.350, 1538.434 453.500 C 1538.016 446.774, 1537.182 441.689, 1534.904 432 C 1534.323 429.525, 1533.236 424.575, 1532.489 421 C 1530.153 409.823, 1523.586 389.951, 1520.042 383.340 C 1518.919 381.244, 1518 378.952, 1518 378.245 C 1518 377.538, 1516.875 375.178, 1515.500 373 C 1514.125 370.822, 1513 368.615, 1513 368.096 C 1513 364.733, 1492.108 334.154, 1483.201 324.480 C 1481.165 322.269, 1477.904 318.669, 1475.954 316.480 C 1474.004 314.291, 1468.154 308.782, 1462.954 304.239 C 1457.754 299.695, 1452.050 294.632, 1450.278 292.989 C 1448.507 291.345, 1446.675 290, 1446.208 290 C 1445.742 290, 1443.591 288.528, 1441.430 286.729 C 1435.142 281.495, 1426.896 275.439, 1421.500 272.090 C 1418.750 270.384, 1415.243 268.203, 1413.708 267.244 C 1412.172 266.285, 1407.222 262.902, 1402.708 259.727 C 1398.193 256.551, 1393.487 253.690, 1392.250 253.368 C 1391.013 253.046, 1390 252.434, 1390 252.008 C 1390 251.582, 1389.213 250.960, 1388.250 250.626 C 1387.287 250.291, 1384.250 248.604, 1381.500 246.876 C 1376.556 243.769, 1368.314 239.113, 1362.500 236.141 C 1360.850 235.297, 1358.628 233.796, 1357.561 232.804 C 1356.495 231.812, 1354.834 231, 1353.870 231 C 1352.907 231, 1351.817 230.513, 1351.449 229.917 C 1351.081 229.322, 1348.917 227.960, 1346.640 226.892 C 1344.363 225.823, 1340.250 223.641, 1337.500 222.041 C 1334.750 220.442, 1330.700 218.202, 1328.500 217.064 C 1326.300 215.925, 1322.971 213.870, 1321.102 212.497 C 1319.233 211.124, 1316.941 210, 1316.007 210 C 1315.074 210, 1313.495 209.100, 1312.500 208 C 1311.505 206.900, 1309.950 206, 1309.045 206 C 1308.140 206, 1306.971 205.571, 1306.447 205.047 C 1304.948 203.548, 1281.845 192, 1280.345 192 C 1279.605 192, 1279 191.660, 1279 191.243 C 1279 190.294, 1272.907 188.374, 1263.848 186.468 C 1256.602 184.944, 1245.768 184.743, 1238 185.989 M 1233.302 351.501 C 1228.975 354.532, 1229.410 360.351, 1234.375 365.856 C 1238.903 370.877, 1244.799 370.289, 1248.635 364.434 C 1250.030 362.305, 1250.106 361.298, 1249.121 358.008 C 1248.478 355.863, 1246.777 353.183, 1245.341 352.054 C 1242.241 349.615, 1236.378 349.346, 1233.302 351.501" stroke="#aa444d" fill="#aa444d" fill-opacity="0.2" fill-rule="evenodd"/><path class="svg-region-Pl" d="M 599.209 379.984 C 592.248 381.634, 590.389 385.845, 594.004 391.775 C 596.261 395.476, 599.437 397.007, 604.815 396.985 C 609.827 396.965, 613.114 395.100, 614.610 391.427 C 616.351 387.151, 614.642 384.065, 608.996 381.291 C 604.069 378.871, 603.967 378.857, 599.209 379.984" stroke="#f9d3d3" fill="#f9d3d3" fill-opacity="0.2" fill-rule="evenodd"/><path class="svg-region-Pr" d="M 1232.428 352.080 C 1228.259 356.686, 1231.036 365.250, 1237.758 368.518 C 1241.649 370.409, 1245.058 369.205, 1248.329 364.785 C 1250.112 362.376, 1250.204 361.623, 1249.145 358.089 C 1247.561 352.803, 1243.879 350, 1238.520 350 C 1235.526 350, 1233.766 350.601, 1232.428 352.080" stroke="#f9d3d3" fill="#f9d3d3" fill-opacity="0.2" fill-rule="evenodd"/><path class="svg-region-OABl" d="M 795.913 358.085 C 793.821 360.130, 792.099 360.998, 790.804 360.659 C 789.472 360.311, 787.637 361.319, 785.043 363.824 C 782.950 365.846, 779.721 368.955, 777.868 370.733 C 769.538 378.728, 768 381.279, 768 387.100 C 768 390.947, 770.683 395, 773.231 395 C 775.582 395, 788.384 386.717, 790.333 383.935 C 792.083 381.436, 798.638 376.758, 802.718 375.095 C 804.488 374.374, 807.506 371.868, 809.424 369.527 L 812.912 365.270 807.267 360.135 C 804.162 357.311, 801.047 355, 800.345 355 C 799.643 355, 797.649 356.388, 795.913 358.085" stroke="#81244d" fill="#81244d" fill-opacity="0.2" fill-rule="evenodd"/><path class="svg-region-OABr" d="M 1028.250 347.662 C 1027.563 347.940, 1026.999 348.917, 1026.999 349.833 C 1026.998 350.750, 1025.863 352.819, 1024.476 354.432 C 1023.089 356.045, 1022.112 357.845, 1022.305 358.432 C 1022.498 359.019, 1024.387 360.477, 1026.504 361.671 C 1030.645 364.006, 1035.205 367.837, 1045.784 377.868 C 1053.801 385.469, 1060.149 390, 1062.784 390 C 1064.595 390, 1064.691 389.265, 1064.422 377.376 C 1064.149 365.264, 1064.030 364.641, 1061.485 361.985 C 1059.095 359.490, 1054.012 357.415, 1051.556 357.931 C 1049.813 358.297, 1042.545 354.674, 1037.293 350.820 C 1032.225 347.102, 1030.838 346.618, 1028.250 347.662" stroke="#81244d" fill="#81244d" fill-opacity="0.2" fill-rule="evenodd"/><path class="svg-region-BPCl" d="M 809.500 569.792 C 808.400 570.009, 805.821 571.804, 803.768 573.779 C 800.353 577.065, 800.085 577.717, 800.609 581.436 C 803.337 600.764, 818.454 636.687, 826.003 641.779 C 833.319 646.713, 835.663 645.823, 841.477 635.904 C 847.257 626.042, 847.073 612.349, 840.954 596.978 C 838.309 590.335, 837.069 588.661, 830.339 582.650 C 826.147 578.906, 821.546 575.398, 820.114 574.853 C 818.681 574.308, 816.157 572.858, 814.504 571.629 C 812.852 570.401, 810.600 569.574, 809.500 569.792" stroke="#83385f" fill="#83385f" fill-opacity="0.2" fill-rule="evenodd"/><path class="svg-region-BPCr" d="M 1021.534 571.963 C 1020.520 573.083, 1018.458 574, 1016.952 574 C 1015.083 574, 1012.593 575.489, 1009.107 578.689 C 1006.298 581.269, 1004 583.883, 1004 584.499 C 1004 585.115, 1001.985 587.980, 999.522 590.865 C 996.817 594.034, 994.442 598.141, 993.522 601.237 C 989.615 614.393, 993.593 641.796, 1000 645.866 C 1001.375 646.739, 1002.766 647.825, 1003.091 648.278 C 1003.415 648.731, 1004.894 648.550, 1006.375 647.875 C 1009.537 646.434, 1021.628 628.752, 1024.068 622 C 1024.963 619.525, 1026.031 616.600, 1026.441 615.500 C 1028.585 609.755, 1029.041 607.859, 1030.047 600.500 C 1032.341 583.708, 1032.287 581.974, 1029.274 576 C 1026.202 569.909, 1024.293 568.914, 1021.534 571.963" stroke="#83385f" fill="#83385f" fill-opacity="0.2" fill-rule="evenodd"/>
    </svg>