<svg xmlns="http://www.w3.org/2000/svg" width="1921" height="1027" viewBox="0 0 1921 1027" version="1.1">
    <path class="svg-region-V" d="M 843.500 178.089 C 823.540 179.723, 804.459 183.643, 783.782 190.357 C 779.777 191.658, 773.350 193.531, 769.500 194.520 C 760.612 196.804, 749.559 202.399, 731.900 213.556 C 728.194 215.897, 724.871 216.956, 714.500 219.099 C 706.917 220.667, 700.924 223.385, 697.877 226.639 C 695.714 228.949, 695.509 230, 695.597 238.339 C 695.684 246.490, 696.033 248.162, 698.765 253.500 C 700.453 256.800, 703.041 264, 704.514 269.500 C 706.540 277.059, 707.934 280.277, 710.228 282.683 C 715.661 288.382, 715.728 288.389, 753.920 287.228 C 787.802 286.198, 788.907 286.101, 795.195 283.585 C 798.749 282.163, 802.579 281, 803.706 281 C 806.537 281, 812.383 278.448, 813.991 276.511 C 814.724 275.628, 817.613 273.805, 820.412 272.460 C 823.210 271.115, 828.803 267.359, 832.839 264.113 C 842.599 256.266, 850.046 252.504, 862.316 249.223 C 872.360 246.537, 872.898 246.502, 901.500 246.626 C 931.137 246.755, 930.808 246.724, 952.385 251.445 C 959.304 252.960, 967.004 256.147, 969.307 258.450 C 972.681 261.824, 985.976 272.552, 989.500 274.744 C 991.700 276.113, 995.075 278.708, 997 280.511 C 999.060 282.441, 1001.940 284.002, 1004 284.307 C 1005.925 284.591, 1010.650 285.297, 1014.500 285.875 C 1018.350 286.453, 1026 287.416, 1031.500 288.015 C 1041.309 289.083, 1049.038 290.167, 1060 292.010 C 1063.025 292.519, 1074.658 293.001, 1085.851 293.081 L 1106.201 293.227 1111.073 288.428 C 1114.763 284.794, 1116.936 281.309, 1120.030 274.065 C 1122.277 268.804, 1125.102 262.281, 1126.308 259.569 C 1128.137 255.454, 1128.451 253.159, 1128.201 245.704 C 1127.833 234.687, 1125.858 230.047, 1118.625 223.207 C 1114.421 219.230, 1111.949 217.828, 1105.951 216.018 C 1095.940 212.997, 1085.166 209.025, 1081.500 207.004 C 1079.850 206.095, 1076.025 204.504, 1073 203.469 C 1069.975 202.434, 1067.050 201.301, 1066.500 200.952 C 1065.407 200.257, 1054.968 197.104, 1045.500 194.609 C 1042.200 193.740, 1035.225 192.510, 1030 191.876 C 1012.641 189.771, 1010.516 189.409, 1008.276 188.179 C 1007.053 187.507, 1002.375 186.740, 997.881 186.475 C 993.386 186.210, 988.087 185.571, 986.105 185.056 C 973.178 181.693, 969.701 181.301, 941 179.963 C 898.822 177.997, 854.933 177.153, 843.500 178.089" stroke="#dd8a8a" fill="#dd8a8a" fill-opacity="0.2" fill-rule="evenodd"/><path class="svg-region-SF" d="M 875 246.603 C 863.595 248.777, 853.595 251.463, 849.027 253.579 C 843.491 256.144, 828 266.766, 828 267.997 C 828 268.369, 825.413 269.948, 822.250 271.505 C 819.087 273.063, 815.150 275.283, 813.500 276.439 C 809.432 279.289, 806.081 280.776, 802.500 281.319 C 800.850 281.569, 797.025 282.741, 794 283.923 C 789.034 285.862, 785.492 286.163, 757.500 287.025 C 715.177 288.328, 716.025 288.251, 713.834 290.957 C 709.968 295.731, 711.674 303.054, 721.298 323 C 728.550 338.031, 733.358 343.677, 744.500 350.248 C 752.213 354.797, 762.059 356.078, 769.609 353.514 C 772.299 352.601, 776.642 351.447, 779.261 350.951 C 781.879 350.454, 786.464 348.485, 789.450 346.575 C 797.045 341.717, 801.643 339.474, 809.071 337.006 C 812.607 335.831, 817.525 333.876, 820 332.662 C 824.356 330.525, 824.490 330.324, 824.177 326.365 C 823.863 322.384, 823.969 322.229, 828.177 320.517 C 833.318 318.427, 840.513 316.670, 855.802 313.771 C 865.795 311.875, 867.936 311.765, 874.302 312.818 C 879.506 313.678, 883.240 313.722, 887.783 312.977 C 891.238 312.410, 908.788 311.865, 926.783 311.767 C 955.456 311.611, 960.303 311.809, 966 313.374 C 979.123 316.977, 988.520 320.311, 989.300 321.638 C 989.740 322.387, 991.177 323, 992.494 323 C 995.199 323, 1009.389 329.202, 1010.390 330.822 C 1010.749 331.402, 1013.508 333.288, 1016.521 335.012 C 1019.535 336.736, 1022 338.734, 1022 339.452 C 1022 340.170, 1023.462 341.357, 1025.250 342.090 C 1027.037 342.823, 1031.154 344.915, 1034.397 346.740 C 1037.640 348.565, 1041.821 350.300, 1043.688 350.597 C 1045.555 350.894, 1048.675 351.802, 1050.621 352.615 C 1056.166 354.932, 1072.448 355.565, 1078.662 353.705 C 1084.523 351.951, 1092.230 346.103, 1099.356 338 C 1104.659 331.971, 1105.684 330.317, 1109.494 321.648 C 1113.297 312.996, 1113.704 308.128, 1111.067 302.853 C 1106.096 292.908, 1107.970 293.583, 1083.310 292.866 C 1071.314 292.517, 1058.350 291.744, 1054.500 291.147 C 1043.321 289.413, 1032.186 287.974, 1022.500 287.011 C 1007.839 285.554, 1000.145 283.523, 996.607 280.176 C 994.898 278.559, 991.643 276.088, 989.374 274.684 C 987.105 273.280, 981.111 268.541, 976.054 264.153 C 965.297 254.820, 961.506 253.107, 943.500 249.450 C 931.786 247.071, 927.879 246.776, 904 246.468 C 889.425 246.280, 876.375 246.341, 875 246.603" stroke="#8c6b55" fill="#8c6b55" fill-opacity="0.2" fill-rule="evenodd"/><path class="svg-region-PF" d="M 894.644 311.692 C 894.537 311.798, 891.622 312.339, 888.166 312.896 C 883.771 313.604, 879.571 313.572, 874.191 312.790 C 867.478 311.814, 865.101 311.939, 855.500 313.776 C 841.840 316.389, 833.681 318.349, 828.500 320.261 C 824.691 321.667, 824.504 321.934, 824.587 325.872 C 824.634 328.146, 824.964 330.298, 825.320 330.654 C 825.676 331.010, 829.012 330.738, 832.734 330.049 C 845.052 327.771, 845.904 327.744, 850.248 329.504 C 856.899 332.198, 881.813 332.709, 893.500 330.391 C 904.889 328.132, 921.355 328.131, 934.249 330.387 C 941.828 331.713, 948.617 332.027, 964.749 331.798 C 987.886 331.469, 995.102 332.343, 1008.138 337.050 C 1016.174 339.952, 1022.488 340.888, 1021.833 339.080 C 1020.745 336.075, 997.332 323, 993.041 323 C 991.983 323, 990.823 322.522, 990.462 321.938 C 989.700 320.706, 986.513 319.359, 979.500 317.307 C 976.750 316.503, 971.350 314.904, 967.500 313.754 C 961.047 311.827, 957.934 311.658, 927.669 311.582 C 909.612 311.537, 894.750 311.586, 894.644 311.692" stroke="#faaaaa" fill="#faaaaa" fill-opacity="0.2" fill-rule="evenodd"/><path class="svg-region-AAB" d="M 902.500 366.054 C 882.448 367.206, 876.241 368.578, 863 374.787 C 847.527 382.042, 835.977 385.733, 823 387.570 C 816.057 388.553, 800.799 396.258, 797.387 400.505 C 792.149 407.025, 788.564 410.557, 783.432 414.253 C 777.337 418.643, 770.832 425.543, 765.757 433 C 762.499 437.788, 761.930 439.504, 761.360 446.260 C 760.871 452.050, 761.083 454.968, 762.194 457.760 C 764.243 462.906, 768.070 473.968, 768.854 477.009 C 770.592 483.759, 774.473 486.020, 784.184 485.940 C 797.283 485.834, 809.005 482.700, 813.555 478.088 C 816.840 474.759, 817.128 474.272, 821.377 464.901 C 823.366 460.514, 825.101 458.485, 829.387 455.534 C 834.248 452.185, 835.839 451.668, 843.679 450.882 C 855.694 449.679, 872.888 444.557, 886 438.274 C 901.243 430.971, 904.990 430.024, 918.693 430.011 C 928.937 430.001, 930.717 430.295, 939.693 433.476 C 949.782 437.051, 962.991 441.114, 980.500 446.025 C 999.614 451.387, 1014.523 456.095, 1018.500 458.024 C 1025.560 461.450, 1034.274 463.701, 1043.205 464.408 L 1051.909 465.097 1058.912 460.298 C 1062.763 457.659, 1065.934 454.923, 1065.957 454.219 C 1065.981 453.514, 1066.640 452.692, 1067.423 452.391 C 1069.791 451.483, 1072.250 445.144, 1071.590 441.653 C 1070.439 435.573, 1061.378 424.447, 1040.778 403.823 C 1029.643 392.674, 1010.260 378.739, 1003.162 376.779 C 1001.272 376.257, 997.200 374.549, 994.113 372.983 C 988.933 370.355, 987.149 370.053, 971 369.074 C 961.375 368.491, 949.900 367.603, 945.500 367.101 C 933.335 365.714, 915.840 365.288, 902.500 366.054" stroke="#7f3c1a" fill="#7f3c1a" fill-opacity="0.2" fill-rule="evenodd"/><path class="svg-region-APB" d="M 838.234 329.037 C 836.987 329.538, 832.937 330.247, 829.234 330.614 C 825.470 330.986, 820.508 332.276, 817.983 333.538 C 815.499 334.781, 811.449 336.337, 808.983 336.997 C 802.362 338.768, 794.882 342.530, 790.960 346.063 C 789.057 347.776, 786.150 350.390, 784.500 351.871 C 780.560 355.408, 773 366.574, 773 368.857 C 773 373.779, 783.014 377.629, 793.222 376.631 C 796.675 376.293, 802.650 375.759, 806.500 375.443 C 810.350 375.128, 815.075 374.262, 817 373.519 C 820.204 372.282, 834.884 370.136, 852.500 368.330 C 856.350 367.935, 866.025 367.534, 874 367.437 C 881.975 367.341, 895.250 366.823, 903.500 366.287 C 918.521 365.310, 936.668 365.876, 955.500 367.909 C 961 368.503, 971.125 369.434, 978 369.979 C 997.441 371.519, 1004.767 372.602, 1014.696 375.405 C 1022.230 377.531, 1026.020 378, 1035.667 378 C 1042.143 378, 1049.817 377.448, 1052.721 376.773 L 1058 375.545 1058.167 368.773 C 1058.258 365.048, 1058.371 361.283, 1058.417 360.407 C 1058.468 359.430, 1057.068 358.322, 1054.796 357.541 C 1052.758 356.840, 1048.933 354.959, 1046.296 353.361 C 1034.830 346.414, 1021.623 340, 1018.785 340 C 1017.464 340, 1012.809 338.699, 1008.441 337.109 C 995.491 332.395, 987.873 331.468, 964.668 331.782 C 948.561 332.001, 941.643 331.681, 934.168 330.373 C 921.452 328.148, 904.961 328.147, 893 330.372 C 881.166 332.573, 858.104 332.168, 851 329.634 C 846.019 327.858, 841.676 327.654, 838.234 329.037" stroke="#ac7444" fill="#ac7444" fill-opacity="0.2" fill-rule="evenodd"/><path class="svg-region-AP" d="M 832.269 509.881 C 827.607 510.706, 826.532 511.405, 826.513 513.629 C 826.500 515.109, 821.140 521.564, 813.500 529.302 C 807.768 535.107, 805 539.077, 805 541.495 C 805 542.653, 802.829 546.053, 800.175 549.050 C 795.392 554.453, 792 560.086, 792 562.627 C 792 564.886, 796.360 573.047, 797.385 572.705 C 797.920 572.527, 798.839 571.508, 799.429 570.440 C 802.204 565.415, 806.594 565.701, 811.593 571.234 C 813.697 573.563, 817.462 576.458, 819.959 577.668 C 826.320 580.749, 828.323 582.643, 832.470 589.500 C 834.466 592.800, 837.197 597.022, 838.539 598.882 C 841.729 603.305, 842.882 607.636, 843.646 618.074 C 844.536 630.223, 843.491 636.916, 839.843 642.423 C 836.629 647.276, 833.405 648.398, 831 645.500 C 830.315 644.675, 829.331 644, 828.812 644 C 827.232 644, 853.815 669.718, 855.980 670.285 C 858.723 671.002, 858.518 669.831, 855.394 666.924 C 852.266 664.015, 847.023 655.180, 847.009 652.797 C 846.979 647.341, 852.027 643, 858.403 643 C 865.619 643, 867.629 645.104, 870.080 655.225 C 870.710 657.824, 872.299 661.110, 873.613 662.527 C 876.986 666.166, 876.747 670.407, 872.955 674.199 C 871.280 675.873, 870.043 677.335, 870.205 677.446 C 870.477 677.634, 876.856 678.921, 888 681.038 C 897.781 682.897, 937.110 684.239, 946.982 683.051 C 961.202 681.340, 967.153 679.147, 962.463 677.347 C 960.226 676.489, 957.747 671.143, 958.393 668.569 C 958.699 667.351, 961.300 662.787, 964.173 658.427 C 970.090 649.447, 969.873 649.727, 976.124 642.999 C 978.668 640.261, 981.310 636.666, 981.996 635.011 C 983.256 631.967, 984.996 630.949, 985.004 633.250 C 985.007 633.938, 986.807 638.053, 989.004 642.395 C 991.202 646.738, 993 651.155, 993 652.211 C 993 654.951, 991.228 657.913, 986.844 662.500 C 984.742 664.700, 983.017 666.855, 983.011 667.289 C 982.986 669.083, 992.227 660.050, 995.628 654.955 L 997.994 651.411 995.997 647.494 C 994.899 645.340, 994 642.826, 994 641.908 C 994 640.989, 992.834 637.147, 991.410 633.369 C 989.121 627.299, 988.901 625.635, 989.513 619.062 C 989.925 614.641, 991.162 609.572, 992.564 606.562 C 993.861 603.778, 996.122 598.800, 997.588 595.500 C 1000.282 589.438, 1006.885 582.856, 1015.890 577.255 C 1020.941 574.114, 1030.380 574.069, 1033.682 577.171 C 1034.952 578.364, 1036.141 579.152, 1036.324 578.921 C 1036.964 578.108, 1041.138 565.469, 1041.692 562.663 C 1042.224 559.970, 1042.143 559.894, 1040.096 561.163 C 1038.341 562.251, 1037.789 562.260, 1037.135 561.209 C 1036.488 560.169, 1035.445 560.156, 1031.766 561.140 C 1027.893 562.176, 1026.844 562.126, 1024.850 560.807 C 1022.170 559.035, 1018.185 549.058, 1014.941 536 C 1013.780 531.325, 1012.478 527.050, 1012.047 526.500 C 1011.617 525.950, 1010.503 523.165, 1009.572 520.310 C 1007.955 515.352, 1007.648 515.048, 1002.690 513.489 C 999.835 512.591, 996.418 511.327, 995.096 510.679 C 990.839 508.592, 975.577 509.524, 964.999 512.517 C 949.216 516.984, 944.738 518.072, 944.231 517.564 C 943.964 517.297, 942.173 517.736, 940.251 518.540 C 938.329 519.343, 934.898 520.005, 932.628 520.011 C 930.358 520.017, 926.250 520.721, 923.500 521.575 C 919.288 522.884, 917.634 522.934, 913 521.897 C 909.975 521.220, 906.310 520.079, 904.855 519.362 C 894.572 514.290, 844.397 507.737, 832.269 509.881" stroke="#fc7143" fill="#fc7143" fill-opacity="0.2" fill-rule="evenodd"/><path class="svg-region-LPl" d="M 801 506.657 C 795.501 507.621, 788.179 511.277, 785.003 514.644 C 780.565 519.349, 779.891 525.869, 782.830 535.647 C 783.963 539.416, 785.429 544.525, 786.086 547 C 788.081 554.507, 791.560 561.040, 792.868 559.732 C 793.491 559.109, 794 558.044, 794 557.364 C 794 556.684, 796.475 553.290, 799.500 549.821 C 802.525 546.353, 805 542.586, 805 541.452 C 805 539.094, 807.734 535.167, 813.500 529.244 C 815.700 526.983, 819.469 523.103, 821.875 520.621 C 824.565 517.846, 826.381 514.978, 826.591 513.176 C 826.918 510.372, 826.670 510.171, 820.921 508.558 C 814.652 506.799, 805.289 505.906, 801 506.657" stroke="#d2454f" fill="#d2454f" fill-opacity="0.2" fill-rule="evenodd"/><path class="svg-region-LPr" d="M 1011.792 513.041 C 1007.656 513.517, 1003.841 515, 1006.753 515 C 1007.350 515, 1008.610 517.362, 1009.552 520.250 C 1010.494 523.138, 1011.592 525.950, 1011.991 526.500 C 1012.391 527.050, 1013.700 531.325, 1014.901 536 C 1018.352 549.435, 1022.214 559.065, 1024.850 560.807 C 1026.844 562.126, 1027.893 562.176, 1031.766 561.140 C 1035.390 560.171, 1036.490 560.176, 1037.101 561.163 C 1037.711 562.150, 1038.381 562.134, 1040.335 561.088 C 1043.078 559.620, 1044.953 555.677, 1047.508 546 C 1048.453 542.425, 1049.668 538.288, 1050.210 536.807 C 1051.956 532.036, 1050.236 526.478, 1045.322 521.013 C 1042.843 518.256, 1039.983 516, 1038.966 516 C 1037.950 516, 1036.871 515.601, 1036.570 515.113 C 1035.258 512.990, 1021.931 511.876, 1011.792 513.041" stroke="#d2454f" fill="#d2454f" fill-opacity="0.2" fill-rule="evenodd"/><path class="svg-region-AVCl" d="M 852.500 644.161 C 849.406 645.862, 847.046 649.246, 847.032 652 C 847.013 655.693, 852.030 663.720, 858.440 670.250 C 863.392 675.295, 864.561 676, 867.970 676 C 875.160 676, 878.550 667.854, 873.587 662.500 C 872.260 661.068, 870.646 657.557, 870 654.698 C 868.095 646.268, 867.985 646.043, 864.979 644.489 C 861.618 642.751, 855.363 642.586, 852.500 644.161" stroke="#ffbab9" fill="#ffbab9" fill-opacity="0.2" fill-rule="evenodd"/><path class="svg-region-AVCr" d="M 982.067 634.838 C 981.420 636.399, 978.778 639.972, 976.196 642.777 C 969.924 649.589, 969.664 649.923, 965.361 656.658 C 963.308 659.871, 961.038 663.094, 960.316 663.820 C 958.382 665.765, 957.588 669.930, 958.606 672.788 C 959.891 676.392, 964.293 679.394, 967.218 678.660 C 974.254 676.894, 993 658.258, 993 653.030 C 993 651.523, 991.202 646.738, 989.004 642.395 C 986.807 638.053, 985.007 633.938, 985.004 633.250 C 984.997 631.003, 983.269 631.937, 982.067 634.838" stroke="#ffbab9" fill="#ffbab9" fill-opacity="0.2" fill-rule="evenodd"/><path class="svg-region-Ol" d="M 596.500 206.067 C 592.650 207.105, 588.289 207.965, 586.809 207.977 C 585.329 207.990, 583.866 208.408, 583.558 208.906 C 583.250 209.405, 580.636 210.127, 577.749 210.511 C 574.862 210.894, 570.475 212.240, 568 213.500 C 565.525 214.761, 560.618 216.820, 557.096 218.075 C 549.981 220.613, 540 225.751, 540 226.878 C 540 227.278, 537.775 228.405, 535.056 229.383 C 532.336 230.361, 529.577 231.805, 528.924 232.592 C 528.270 233.379, 525.883 234.846, 523.618 235.851 C 521.353 236.856, 516.125 239.873, 512 242.556 C 507.875 245.239, 503.446 248.006, 502.158 248.705 C 500.870 249.404, 498.473 251.107, 496.832 252.488 C 495.190 253.870, 493.419 255, 492.896 255 C 492.374 255, 487.151 258.150, 481.290 262 C 475.429 265.850, 470.275 269, 469.836 269 C 469.147 269, 459.599 275.523, 438.092 290.687 C 435.118 292.784, 431.450 295.738, 429.941 297.250 C 428.432 298.762, 426.875 300, 426.481 300 C 426.087 300, 424.282 301.238, 422.471 302.750 C 420.660 304.262, 417.513 306.625, 415.478 308 C 413.443 309.375, 408.542 313.252, 404.586 316.615 C 400.630 319.978, 396.218 323.353, 394.780 324.115 C 391.900 325.642, 375.079 341.122, 366.176 350.440 C 363.054 353.707, 358.530 358.207, 356.121 360.440 C 351.338 364.875, 341.351 377.551, 338.314 383.042 C 337.263 384.944, 334.930 388.750, 333.130 391.500 C 328.581 398.452, 317.512 421.581, 313.987 431.500 C 296.463 480.813, 290.680 509.837, 290.574 549 C 290.528 565.897, 290.936 572.137, 292.894 584.500 C 298.733 621.371, 311.985 652.327, 333.199 678.646 C 351.680 701.576, 381.188 723.315, 406.500 732.650 C 410.350 734.070, 413.980 735.617, 414.567 736.087 C 416.440 737.587, 442.236 744.248, 449.500 745.107 C 453.350 745.562, 459.425 746.431, 463 747.037 C 472.337 748.621, 511.402 749.420, 517.500 748.152 C 520.250 747.581, 527.675 746.594, 534 745.960 C 540.325 745.326, 550.225 743.556, 556 742.027 C 561.775 740.498, 570.325 738.276, 575 737.090 C 579.675 735.904, 584.850 734.536, 586.500 734.050 C 592.129 732.394, 614.253 722.947, 623.887 718.086 C 638.716 710.604, 651.297 703.994, 652.453 703.078 C 653.029 702.622, 656.650 700.557, 660.500 698.489 C 670.684 693.018, 679.992 686.794, 685.061 682.066 C 699.735 668.377, 705.629 661.637, 709.971 653.578 C 711.726 650.321, 714.251 646.054, 715.581 644.096 C 716.911 642.138, 718 640.011, 718 639.370 C 718 638.730, 719.350 635.484, 721 632.159 C 722.650 628.833, 724 625.438, 724 624.615 C 724 623.792, 724.450 622.840, 725 622.500 C 725.550 622.160, 726 620.993, 726 619.906 C 726 618.819, 726.732 616.813, 727.626 615.448 C 729.923 611.943, 738.984 581.063, 739.015 576.639 C 739.023 575.463, 739.739 572.475, 740.606 570 C 741.756 566.718, 742.482 558.120, 743.289 538.226 C 744.630 505.143, 743.460 485.733, 739.340 472.669 C 735.372 460.093, 729.882 448.109, 725.060 441.500 C 719.370 433.703, 717.551 432, 714.908 432 C 713.711 432, 711.008 431.483, 708.901 430.852 C 703.624 429.271, 694.906 432.013, 690.035 436.784 C 688.091 438.689, 684.700 441.384, 682.500 442.772 C 680.300 444.161, 676.466 447.438, 673.980 450.054 C 670.384 453.839, 668.238 455.148, 663.480 456.464 C 656.108 458.503, 650.294 461.474, 646.978 464.897 C 641.517 470.536, 631.273 479.328, 626.757 482.255 C 624.140 483.950, 622 485.656, 622 486.047 C 622 486.438, 620.639 487.321, 618.976 488.010 C 617.313 488.699, 615.626 489.820, 615.226 490.501 C 614.827 491.182, 612.593 492.705, 610.263 493.884 C 605.509 496.289, 600.010 496.006, 595.715 493.135 C 594.370 492.236, 591.296 490.195, 588.884 488.601 C 586.473 487.006, 584.275 485.398, 584 485.028 C 583.076 483.783, 579.549 482.759, 571.650 481.440 C 556.219 478.863, 556.182 474.242, 571.528 466.014 C 578.955 462.031, 582.402 458.833, 585.826 452.751 C 587.297 450.139, 588.837 448.002, 589.250 448.001 C 589.663 448, 590 446.690, 590 445.089 C 590 443.066, 590.939 441.388, 593.077 439.589 C 594.769 438.165, 596.514 437, 596.955 437 C 597.396 437, 598.317 435.650, 599 434 C 599.683 432.350, 600.586 431, 601.005 431 C 601.424 431, 601.978 430.192, 602.236 429.205 C 602.684 427.492, 602.452 427.496, 597.144 429.287 C 588.926 432.062, 577.909 431.245, 574.080 427.577 C 569.223 422.923, 564.988 410.623, 565.012 401.236 C 565.045 388.159, 573.717 371.890, 587.854 358.386 C 594.459 352.076, 597.568 351.016, 611.572 350.302 C 625.026 349.615, 627.830 350.640, 634.784 358.784 C 640.838 365.875, 643.664 367, 655.421 367 C 665.225 367, 668.948 367.964, 672.659 371.464 C 673.846 372.584, 676.546 374.337, 678.659 375.361 C 680.771 376.384, 683.281 377.622, 684.236 378.111 C 685.191 378.600, 687.074 379, 688.419 379 C 692.551 379, 692.435 375.921, 688.030 368.670 C 685.822 365.035, 683.126 359.721, 682.040 356.862 C 680.953 354.003, 678.773 350.052, 677.194 348.082 C 675.616 346.112, 673.743 343.407, 673.032 342.072 C 672.321 340.736, 669.636 337.540, 667.065 334.969 C 648.403 316.308, 644.100 287.644, 656.579 265.118 C 657.914 262.708, 659.662 258.226, 660.463 255.158 L 661.920 249.579 657.554 240.539 C 655.152 235.568, 652.947 230.600, 652.654 229.500 C 652.361 228.400, 650.942 223.564, 649.501 218.754 C 647.182 211.012, 646.573 209.935, 644.191 209.370 C 642.711 209.019, 640.786 208.114, 639.914 207.359 C 635.836 203.831, 607.882 202.999, 596.500 206.067" stroke="#aa444d" fill="#aa444d" fill-opacity="0.2" fill-rule="evenodd"/><path class="svg-region-Or" d="M 1244.500 195.539 C 1236.346 197.164, 1232.190 197.838, 1229.750 197.933 C 1228.787 197.970, 1228 198.497, 1228 199.105 C 1228 199.713, 1226.746 202.075, 1225.214 204.355 C 1222.848 207.875, 1220.734 214.280, 1215.266 234.500 C 1214.968 235.600, 1213.258 239.650, 1211.466 243.500 C 1209.673 247.350, 1206.968 254.550, 1205.455 259.500 C 1202.499 269.172, 1198.803 276.512, 1190.045 290.107 C 1183.360 300.485, 1177.649 309.550, 1173.184 316.875 C 1168.286 324.909, 1153.240 343.698, 1148.791 347.336 C 1146.640 349.096, 1143.762 352.941, 1142.306 356 C 1140.866 359.025, 1137.708 364.964, 1135.287 369.197 C 1132.866 373.431, 1129.970 379.506, 1128.851 382.697 C 1125.606 391.952, 1113.600 415.201, 1108.214 422.661 C 1105.498 426.422, 1102.704 430.625, 1102.005 432 C 1101.306 433.375, 1098.759 437.295, 1096.345 440.710 C 1092.091 446.729, 1091.944 447.192, 1091.572 455.710 C 1091.360 460.545, 1090.644 467.425, 1089.980 471 C 1087.943 481.973, 1089.957 517.785, 1094.481 551 C 1096.068 562.655, 1096.920 566.654, 1100.566 579.588 C 1101.355 582.386, 1102.003 585.536, 1102.006 586.588 C 1102.010 587.640, 1102.685 589.790, 1103.507 591.367 C 1104.330 592.943, 1106.303 598.343, 1107.892 603.367 C 1111.425 614.532, 1114.350 621.358, 1117.100 624.853 C 1118.245 626.309, 1119.813 628.850, 1120.584 630.500 C 1123.374 636.466, 1133.925 651.956, 1136.850 654.381 C 1137.593 654.996, 1141.106 658.313, 1144.656 661.750 C 1148.206 665.188, 1151.283 668, 1151.494 668 C 1151.704 668, 1153.367 669.393, 1155.188 671.096 C 1157.010 672.799, 1160.300 674.991, 1162.500 675.967 C 1164.700 676.943, 1167.357 678.699, 1168.405 679.870 C 1169.453 681.042, 1170.682 682, 1171.136 682 C 1171.591 682, 1177.258 685.232, 1183.731 689.182 C 1205.131 702.242, 1212.092 705.544, 1246.793 719.096 C 1255.204 722.380, 1264.429 725.502, 1267.293 726.031 C 1270.157 726.561, 1277.225 728.097, 1283 729.444 C 1335.048 741.586, 1388.561 738.515, 1427.349 721.161 C 1432.216 718.983, 1436.694 716.706, 1437.299 716.101 C 1437.905 715.495, 1439.353 715, 1440.519 715 C 1441.684 715, 1445.532 713.186, 1449.069 710.968 C 1452.606 708.750, 1457.075 706.222, 1458.999 705.350 C 1475.768 697.753, 1502.586 673.408, 1515.860 653.732 C 1531.861 630.016, 1541.285 605.093, 1547.390 570.350 C 1554.121 532.041, 1553.373 493.938, 1545.030 450.136 C 1543.315 441.130, 1539.854 429.225, 1534.379 413.500 C 1527.237 392.989, 1526.507 391.107, 1525.168 389.768 C 1524.526 389.126, 1524 387.872, 1524 386.983 C 1524 385.051, 1520.061 377.281, 1513.869 367 C 1511.385 362.875, 1508.074 357.250, 1506.513 354.500 C 1504.951 351.750, 1503.409 349.275, 1503.087 349 C 1502.764 348.725, 1500.718 345.800, 1498.541 342.500 C 1491.515 331.853, 1473.082 312.231, 1462.791 304.446 C 1459.331 301.828, 1456.348 299.301, 1456.163 298.831 C 1455.605 297.417, 1448.048 292.594, 1438.500 287.558 C 1433.550 284.948, 1428.333 281.604, 1426.908 280.129 C 1425.482 278.653, 1422.332 276.567, 1419.908 275.492 C 1417.483 274.417, 1415.050 273.003, 1414.500 272.350 C 1413.950 271.696, 1410.575 269.617, 1407 267.729 C 1403.425 265.842, 1398.388 263.105, 1395.808 261.649 C 1393.227 260.192, 1390.632 259, 1390.042 259 C 1389.452 259, 1385.939 256.836, 1382.235 254.192 C 1378.531 251.547, 1372.125 247.928, 1368 246.150 C 1363.875 244.372, 1359.150 242.188, 1357.500 241.298 C 1353.957 239.387, 1341.775 232.923, 1337.500 230.686 C 1335.850 229.822, 1330.450 227.197, 1325.500 224.853 C 1320.550 222.508, 1316.050 220.058, 1315.500 219.410 C 1314.950 218.761, 1311.125 216.491, 1307 214.365 C 1302.875 212.239, 1299.275 210.275, 1299 210 C 1297.131 208.131, 1278.962 199.213, 1272.500 196.993 C 1264.817 194.354, 1253.417 193.762, 1244.500 195.539 M 1205.750 330.162 C 1204.237 330.715, 1203 331.549, 1203 332.016 C 1203 332.483, 1202.147 333.136, 1201.105 333.467 C 1198.832 334.188, 1198 337.971, 1197.344 350.587 C 1196.871 359.659, 1196.876 359.682, 1200.229 364.087 C 1202.076 366.514, 1206.329 370.550, 1209.681 373.056 C 1213.033 375.562, 1218.123 379.723, 1220.993 382.303 C 1228.985 389.489, 1239.364 394.210, 1248.246 394.699 C 1256.737 395.167, 1259.426 394.069, 1262.207 389 C 1263.812 386.075, 1264.067 383.940, 1263.765 376 C 1263.455 367.847, 1263.009 365.800, 1260.619 361.567 C 1255.025 351.654, 1244.669 340.040, 1236.141 334.113 C 1230.085 329.905, 1212.658 327.639, 1205.750 330.162" stroke="#aa444d" fill="#aa444d" fill-opacity="0.2" fill-rule="evenodd"/><path class="svg-region-Pl" d="M 599.116 351.580 C 591.822 353.541, 587.405 357.355, 577.383 370.344 C 566.198 384.840, 562.888 397.379, 566.388 412 C 568.033 418.877, 571.008 424.756, 574.484 428 C 576.965 430.317, 577.871 430.497, 586.831 430.462 C 594.945 430.429, 597.224 430.049, 601 428.099 C 609.489 423.714, 611.986 420.334, 614.002 410.500 C 615.860 401.434, 617.796 397.331, 620.822 396.044 C 622.295 395.417, 625.722 392.901, 628.437 390.452 C 631.153 388.004, 633.747 386, 634.202 386 C 634.657 386, 635.921 384.538, 637.011 382.750 C 641.053 376.120, 638.334 360.233, 632.209 354.689 C 626.955 349.934, 610.859 348.421, 599.116 351.580" stroke="#f9d3d3" fill="#f9d3d3" fill-opacity="0.2" fill-rule="evenodd"/><path class="svg-region-Pr" d="M 1205.500 330.216 C 1204.400 330.851, 1202.905 331.962, 1202.179 332.685 C 1201.452 333.408, 1200.542 334, 1200.156 334 C 1198.832 334, 1197 344.564, 1197 352.202 C 1197 359.288, 1197.237 360.156, 1200.259 364.117 C 1202.051 366.467, 1206.474 370.664, 1210.087 373.445 C 1213.700 376.225, 1218.759 380.357, 1221.328 382.626 C 1228.329 388.809, 1238.689 393.894, 1245.800 394.637 C 1254.900 395.588, 1258.545 394.563, 1261.494 390.224 C 1263.714 386.956, 1264 385.499, 1264 377.451 C 1264 369.443, 1263.664 367.708, 1261.163 362.819 C 1256.069 352.857, 1245.229 340.434, 1236.073 334.063 C 1229.940 329.796, 1210.470 327.346, 1205.500 330.216" stroke="#f9d3d3" fill="#f9d3d3" fill-opacity="0.2" fill-rule="evenodd"/><path class="svg-region-OABl" d="M 637.965 364.934 C 639.368 367.555, 639.277 378.298, 637.825 381.485 C 636.743 383.859, 634.924 385.446, 623.500 393.978 C 621.300 395.621, 618.948 397.432, 618.273 398.001 C 617.598 398.571, 616.351 401.616, 615.502 404.768 C 611.445 419.836, 611.126 420.527, 606.072 425.240 C 603.354 427.774, 600.473 431.119, 599.669 432.674 C 598.865 434.228, 596.360 436.984, 594.103 438.797 C 591.018 441.276, 590 442.806, 590 444.964 C 590 446.542, 589.663 447.983, 589.250 448.167 C 588.423 448.534, 584 454.631, 584 455.404 C 584 457.625, 571.922 467, 569.061 467 C 568.399 467, 567.289 467.563, 566.594 468.250 C 565.899 468.938, 564.131 470.394, 562.665 471.487 C 557.285 475.500, 560.416 479.538, 570.119 481.100 C 577.217 482.243, 583.238 483.921, 584 484.970 C 584.275 485.349, 587.509 487.705, 591.187 490.206 C 599.793 496.060, 605.115 497.045, 610.613 493.801 C 612.741 492.545, 615.273 490.727, 616.241 489.759 C 617.208 488.792, 618.450 488, 619 488 C 619.550 488, 620.803 487.212, 621.784 486.250 C 622.765 485.288, 625.466 483.201, 627.786 481.613 C 631.648 478.969, 640.164 471.583, 647.210 464.767 C 650.837 461.257, 654.466 459.409, 662.758 456.848 C 667.833 455.280, 670.423 453.770, 673.475 450.598 C 675.689 448.297, 679.581 444.989, 682.125 443.245 C 684.669 441.502, 688.381 438.492, 690.373 436.557 C 692.366 434.622, 695.235 432.763, 696.748 432.427 C 703.270 430.975, 703 431.330, 703 424.198 C 703 420.531, 702.052 412.349, 700.893 406.016 C 697.134 385.470, 695.026 380.672, 689.222 379.452 C 687.725 379.137, 685.719 378.456, 684.764 377.940 C 683.809 377.423, 682.561 377, 681.992 377 C 680.751 377, 672.644 371.827, 672.158 370.725 C 671.205 368.562, 664.148 367, 655.330 367 C 647.950 367, 645.005 366.566, 641.764 365 C 636.692 362.549, 636.688 362.549, 637.965 364.934 M 854.500 368.032 C 835.681 369.996, 820.258 372.249, 817 373.513 C 815.075 374.259, 810.350 375.106, 806.500 375.395 C 802.650 375.684, 796.698 376.225, 793.274 376.597 C 786.007 377.387, 778.216 375.632, 776.137 372.737 C 775.126 371.329, 774.094 371.010, 772.137 371.501 C 769.548 372.150, 766.008 375.149, 765.991 376.708 C 765.987 377.144, 764.524 379.075, 762.741 381 C 759.518 384.481, 756 390.917, 756 393.334 C 756 394.030, 755.439 395.161, 754.754 395.846 C 752.754 397.846, 752.769 412.526, 754.778 419.353 C 756.113 423.891, 757.146 425.540, 759.375 426.693 C 762.410 428.264, 762.539 428.231, 772 423.439 C 777.353 420.727, 791.923 407.644, 797.337 400.687 C 800.713 396.349, 816.048 388.531, 823 387.604 C 832.721 386.308, 837.585 385.340, 839.500 384.320 C 840.600 383.735, 845.100 382.012, 849.500 380.493 C 853.900 378.973, 860.875 376.058, 865 374.014 C 869.125 371.971, 874.233 369.978, 876.352 369.585 C 878.471 369.192, 880.046 368.729, 879.852 368.556 C 878.856 367.665, 861.467 367.306, 854.500 368.032" stroke="#81244d" fill="#81244d" fill-opacity="0.2" fill-rule="evenodd"/><path class="svg-region-OABr" d="M 995.483 373.462 C 996.573 374.341, 999.562 375.683, 1002.126 376.445 C 1010.303 378.873, 1028.454 391.792, 1040.500 403.758 C 1055.935 419.091, 1067.154 431.867, 1069.500 436.784 C 1070.600 439.090, 1071.950 440.979, 1072.500 440.982 C 1074.386 440.991, 1078.698 437.495, 1084.199 431.500 C 1090.311 424.837, 1092.149 420.375, 1094.080 407.500 C 1095.061 400.965, 1095.748 399.113, 1097.835 397.389 L 1100.389 395.278 1097.194 391.245 C 1095.437 389.027, 1094 386.796, 1094 386.286 C 1094 384.804, 1089.149 381.001, 1087.242 380.989 C 1086.284 380.983, 1083.250 380.253, 1080.500 379.367 C 1076.008 377.919, 1072.664 377.181, 1062.344 375.360 C 1060.609 375.054, 1056.715 375.522, 1053.690 376.402 C 1049.953 377.488, 1044.238 377.995, 1035.846 377.985 C 1025.519 377.972, 1022.191 377.562, 1015.500 375.477 C 1011.100 374.105, 1004.350 372.731, 1000.500 372.423 C 993.970 371.900, 993.633 371.970, 995.483 373.462" stroke="#81244d" fill="#81244d" fill-opacity="0.2" fill-rule="evenodd"/><path class="svg-region-BPCl" d="M 801.477 567.765 C 800.914 568.169, 799.710 569.670, 798.802 571.100 C 797.256 573.533, 797.273 574.176, 799.069 581.100 C 800.125 585.170, 802.392 591.650, 804.108 595.500 C 805.823 599.350, 808.016 604.300, 808.981 606.500 C 809.946 608.700, 811.425 612.075, 812.269 614 C 813.113 615.925, 814.593 620.354, 815.559 623.842 C 816.525 627.330, 817.918 630.415, 818.656 630.698 C 819.393 630.981, 821.372 633.752, 823.053 636.856 C 826.124 642.525, 831.384 647, 834.975 647 C 837.584 647, 842.771 638.707, 843.594 633.220 C 844.426 627.672, 843.448 610.900, 841.996 605.818 C 841.417 603.793, 839.379 599.968, 837.466 597.318 C 835.553 594.668, 833.443 591.375, 832.778 590 C 830.049 584.361, 826.483 580.871, 820.386 577.869 C 816.874 576.140, 814 574.438, 814 574.086 C 814 573.734, 812.675 571.995, 811.056 570.223 C 808.174 567.067, 803.956 565.985, 801.477 567.765" stroke="#83385f" fill="#83385f" fill-opacity="0.2" fill-rule="evenodd"/><path class="svg-region-BPCr" d="M 1017.630 575.875 C 1016.602 576.279, 1012.264 579.510, 1007.989 583.055 C 1000.002 589.679, 999.511 590.419, 992.598 606.288 C 991.112 609.700, 989.814 615.037, 989.437 619.288 C 988.880 625.573, 989.132 627.383, 991.399 633.369 C 992.829 637.147, 994 641.107, 994 642.169 C 994 644.519, 996.727 650, 997.896 650 C 998.361 650, 1002.683 646.110, 1007.502 641.356 C 1015.009 633.950, 1016.871 631.410, 1020.513 623.606 C 1022.851 618.598, 1025.026 612.738, 1025.346 610.583 C 1025.666 608.429, 1027.011 604.379, 1028.335 601.583 C 1029.658 598.788, 1031.699 594.445, 1032.870 591.934 C 1035.561 586.165, 1035.703 578.946, 1033.171 576.655 C 1031.245 574.912, 1021.345 574.415, 1017.630 575.875" stroke="#83385f" fill="#83385f" fill-opacity="0.2" fill-rule="evenodd"/>
    </svg>