<svg xmlns="http://www.w3.org/2000/svg" width="1921" height="1027" viewBox="0 0 1921 1027" version="1.1">
    <path class="svg-region-V" d="M 846 166.106 C 826.917 167.712, 795.291 172.763, 784 176.008 C 779.875 177.193, 773.125 179.035, 769 180.100 C 760.380 182.326, 755.352 183.800, 752.500 184.937 C 751.400 185.376, 746.675 187.207, 742 189.007 C 736.647 191.068, 732.204 193.550, 730 195.712 C 728.075 197.600, 723.204 201.024, 719.174 203.322 C 715.145 205.620, 709.295 208.953, 706.174 210.729 C 703.054 212.506, 697.142 215.656, 693.038 217.729 C 683.499 222.549, 672.982 232.293, 669.387 239.642 C 666.886 244.754, 666.762 245.652, 667.400 254.095 C 668.030 262.444, 669.094 266.325, 672.627 273.154 C 673.382 274.614, 674 276.766, 674 277.936 C 674 279.106, 674.658 280.315, 675.462 280.624 C 676.266 280.932, 677.180 281.991, 677.492 282.976 C 677.805 283.961, 679.432 286.202, 681.107 287.955 C 682.783 289.708, 684.593 292.403, 685.130 293.944 C 686.901 299.025, 691.968 300.379, 706.733 299.715 C 713.755 299.400, 720.944 298.568, 722.710 297.867 C 725.371 296.810, 728.362 296.884, 740.210 298.304 C 748.069 299.246, 757.284 300.013, 760.687 300.008 C 765.840 300.001, 778.005 302.249, 784 304.316 C 790.406 306.524, 790.353 306.551, 802.201 294.930 C 812.704 284.629, 818.930 279.592, 827.551 274.425 C 829.455 273.283, 832.248 271.266, 833.757 269.941 C 836.743 267.320, 838.882 266.071, 849.555 260.716 C 860.483 255.233, 868.332 253, 876.679 253 C 880.720 253, 884.809 253.422, 885.764 253.938 C 899.436 261.326, 908.319 263.242, 917.173 260.714 C 920.103 259.877, 926.101 258.733, 930.502 258.170 C 943.072 256.564, 950.678 258.921, 962.810 268.183 C 966.280 270.832, 969.567 273, 970.114 273 C 970.661 273, 972.547 274.348, 974.304 275.995 C 976.062 277.643, 977.833 278.993, 978.240 278.995 C 980.460 279.009, 993.775 288.844, 1001.422 296.119 C 1006.267 300.729, 1010.879 304.874, 1011.671 305.331 C 1012.463 305.788, 1013.525 307.250, 1014.031 308.581 L 1014.950 311 1031.197 311 C 1044.283 311, 1048.714 310.627, 1053.972 309.080 C 1057.562 308.025, 1062.975 306.696, 1066 306.128 C 1075.341 304.374, 1082.340 302.864, 1086.156 301.780 C 1090.556 300.530, 1095.853 301.391, 1100.449 304.102 C 1104.201 306.316, 1115.540 307.684, 1121.254 306.612 C 1125.795 305.760, 1130 301.852, 1130 298.484 C 1130 297.047, 1131.125 293.412, 1132.500 290.406 C 1133.926 287.289, 1135 283.102, 1135 280.661 C 1135 278.308, 1135.661 275.509, 1136.468 274.441 C 1138.223 272.120, 1138.462 263.731, 1136.857 260.733 C 1136.229 259.559, 1135.666 254.659, 1135.607 249.844 C 1135.502 241.236, 1135.437 241.015, 1131.700 236.545 C 1129.610 234.045, 1127.424 232, 1126.842 232 C 1125.829 232, 1123.531 230.515, 1101.988 215.937 C 1089.940 207.783, 1090.877 208.325, 1075.500 200.627 C 1068.350 197.048, 1059.350 193.225, 1055.500 192.132 C 1051.650 191.039, 1046.025 189.232, 1043 188.115 C 1036.742 185.806, 1014.412 180.019, 1011.715 180.008 C 1010.733 180.003, 1008.888 179.317, 1007.614 178.483 C 1006.340 177.648, 997.018 175.315, 986.899 173.298 C 966.681 169.268, 965.976 169.232, 927 170.257 C 906.598 170.794, 901.497 170.643, 896.500 169.353 C 884.987 166.380, 861.039 164.840, 846 166.106" stroke="#dd8a8a" fill="#dd8a8a" fill-opacity="0.2" fill-rule="evenodd"/><path class="svg-region-SV" d="M 861.307 255.482 C 850.452 259.660, 838.299 265.997, 832.294 270.609 C 830.225 272.199, 827.778 273.950, 826.858 274.500 C 819.636 278.816, 800.667 295.308, 794.953 302.241 L 792.021 305.798 798.342 306.899 C 810.032 308.935, 836.969 307.228, 842.854 304.078 C 844.340 303.283, 847.594 303.280, 854.677 304.070 C 860.052 304.670, 864.725 305.330, 865.062 305.538 C 865.398 305.746, 886.784 306.182, 912.587 306.508 C 990.405 307.489, 998.043 307.728, 1003.270 309.343 C 1008.659 311.008, 1013.324 310.272, 1013.823 307.678 C 1014.001 306.755, 1013.640 306, 1013.020 306 C 1012.400 306, 1007.632 301.940, 1002.424 296.979 C 997.215 292.017, 989.702 285.879, 985.727 283.340 C 981.752 280.800, 977.208 277.643, 975.629 276.324 C 974.050 275.005, 971.350 273.333, 969.629 272.608 C 967.908 271.883, 964.516 269.626, 962.092 267.592 C 952.420 259.478, 942.841 256.600, 930.611 258.132 C 926.150 258.690, 921.024 259.598, 919.221 260.149 C 917.417 260.700, 913.496 261.403, 910.507 261.711 C 904.723 262.308, 903.471 261.959, 891.228 256.339 C 884.806 253.390, 882.995 253.006, 875.728 253.049 C 869.544 253.086, 865.961 253.690, 861.307 255.482" stroke="#c666b5" fill="#c666b5" fill-opacity="0.2" fill-rule="evenodd"/><path class="svg-region-SF" d="M 721.699 297.634 C 721.351 297.983, 719.939 298.391, 718.562 298.543 C 715.847 298.841, 707.543 305.143, 706.589 307.630 C 705.674 310.014, 705.896 324.150, 706.904 327.664 C 707.785 330.736, 712.652 337.724, 719.125 345.208 C 720.889 347.248, 723.495 351.019, 724.916 353.589 C 727.971 359.114, 733.363 362.487, 740.572 363.383 C 755.557 365.247, 757.560 365.228, 764.060 363.157 C 776.851 359.083, 780.714 357.369, 785.070 353.836 C 787.506 351.859, 792.092 349.028, 795.260 347.544 C 800.458 345.109, 800.999 344.564, 800.800 341.960 C 800.666 340.195, 801.387 338.188, 802.658 336.788 C 803.836 335.491, 805.001 332.447, 805.347 329.763 C 805.683 327.158, 807.019 323.333, 808.317 321.263 C 811.272 316.549, 812.345 311.531, 810.693 310.160 C 810.020 309.602, 805.427 308.390, 800.485 307.468 C 795.543 306.545, 786.237 304.487, 779.805 302.895 C 772.324 301.043, 765.479 299.997, 760.805 299.992 C 756.787 299.987, 748.550 299.321, 742.500 298.511 C 730.760 296.940, 722.732 296.601, 721.699 297.634 M 1083.500 302.176 C 1081.300 302.684, 1077.700 303.535, 1075.500 304.067 C 1073.300 304.600, 1069.025 305.524, 1066 306.121 C 1062.975 306.718, 1057.393 308.114, 1053.596 309.222 C 1047.493 311.003, 1044.560 311.189, 1028.344 310.824 C 1010.241 310.417, 1010.004 310.438, 1010.596 312.456 C 1013.137 321.118, 1015.068 325.453, 1019.223 331.834 C 1022.503 336.869, 1024 340.212, 1024 342.500 C 1024 345.192, 1024.767 346.440, 1027.993 348.995 C 1030.190 350.734, 1033.669 352.622, 1035.724 353.189 C 1037.780 353.757, 1041.270 355.463, 1043.481 356.981 C 1045.691 358.498, 1049.075 360.075, 1051 360.484 C 1052.925 360.893, 1056.075 361.893, 1058 362.707 C 1066.364 366.241, 1081.191 364.762, 1085.537 359.959 C 1086.512 358.881, 1087.945 358, 1088.722 358 C 1090.863 358, 1097 352.973, 1097 351.219 C 1097 350.370, 1098.072 347.836, 1099.382 345.588 C 1103.774 338.051, 1105.426 311.857, 1101.869 306.161 C 1099.002 301.571, 1092.361 300.130, 1083.500 302.176" stroke="#8c6b55" fill="#8c6b55" fill-opacity="0.2" fill-rule="evenodd"/><path class="svg-region-PF" d="M 842.915 303.976 C 842.043 304.492, 836.418 305.638, 830.415 306.521 C 813.080 309.072, 811.537 309.598, 811.292 313.042 C 811.177 314.651, 809.715 318.563, 808.044 321.734 C 806.372 324.905, 805.003 328.875, 805.002 330.556 C 805.001 332.236, 803.938 335.051, 802.640 336.811 C 800.080 340.281, 800.116 345, 802.703 345 C 803.511 345, 807.396 344.134, 811.336 343.076 C 818.797 341.071, 828.869 339.921, 860 337.516 C 870.175 336.729, 882.550 335.400, 887.500 334.561 C 900.279 332.394, 920.518 332.571, 939.500 335.016 C 948.300 336.149, 959.325 337.537, 964 338.101 C 968.675 338.665, 974.525 339.763, 977 340.540 C 979.475 341.318, 989.375 342.654, 999 343.509 C 1008.625 344.363, 1018.188 345.451, 1020.250 345.926 L 1024 346.789 1024 342.884 C 1024 339.993, 1023.040 337.620, 1020.301 333.740 C 1016.510 328.369, 1011 316.135, 1011 313.089 C 1011 311.818, 1009.208 310.921, 1003.946 309.556 C 996.275 307.566, 997.053 307.592, 914 306.549 C 888.425 306.228, 865.025 305.559, 862 305.063 C 852.180 303.452, 844.535 303.016, 842.915 303.976" stroke="#faaaaa" fill="#faaaaa" fill-opacity="0.2" fill-rule="evenodd"/><path class="svg-region-AAB" d="M 894.237 389.557 C 889.692 390.265, 884.067 391.526, 881.737 392.359 C 879.407 393.191, 874.350 394.385, 870.500 395.011 C 866.650 395.638, 860.071 397.016, 855.880 398.075 C 851.689 399.134, 846.941 400, 845.330 400 C 843.718 400, 841.972 400.395, 841.450 400.877 C 839.461 402.712, 825.476 407, 821.479 407 C 816.808 407, 811.183 408.684, 809.179 410.683 C 808.452 411.407, 807.196 412, 806.389 412 C 804.840 412, 800.496 414.176, 792.933 418.743 C 790.421 420.259, 783.770 424.143, 778.153 427.373 C 772.535 430.603, 767.487 434.090, 766.934 435.123 C 766.382 436.155, 765.256 437, 764.433 437 C 763.611 437, 762.694 437.634, 762.396 438.410 C 762.099 439.185, 760.875 440.076, 759.678 440.390 C 758.480 440.704, 755.190 443.108, 752.368 445.731 C 749.545 448.354, 744.076 453.200, 740.214 456.500 C 736.353 459.800, 732.607 463.625, 731.890 465 C 731.173 466.375, 730.044 468.175, 729.382 469 C 728.720 469.825, 727.889 472.525, 727.537 475 C 726.930 479.265, 727.166 479.866, 732.054 486.500 C 734.891 490.350, 737.610 494.531, 738.097 495.791 C 738.584 497.052, 740.333 498.852, 741.985 499.791 C 743.636 500.731, 744.990 501.837, 744.994 502.250 C 744.997 502.663, 745.527 503, 746.171 503 C 746.815 503, 748.192 503.769, 749.231 504.709 C 750.771 506.103, 753.183 506.423, 762.310 506.444 C 772.408 506.468, 773.988 506.219, 778.500 503.891 C 787.465 499.267, 790.494 497.513, 790.833 496.750 C 791.017 496.337, 791.804 496, 792.583 496 C 793.362 496, 794 495.593, 794 495.096 C 794 494.598, 797.038 492.688, 800.750 490.851 C 804.462 489.014, 807.725 487.283, 808 487.005 C 808.718 486.279, 814.362 482.348, 819.810 478.778 C 822.390 477.088, 825.937 474.309, 827.693 472.603 C 835.468 465.048, 837.763 463, 838.454 463 C 838.860 463, 843.086 460.422, 847.846 457.272 C 857.819 450.670, 861.822 448.687, 879 441.841 C 885.875 439.102, 893.975 435.697, 897 434.275 C 907.027 429.562, 929.342 428.979, 941.500 433.113 C 945.980 434.636, 953.674 436.920, 961.212 438.965 C 975.133 442.742, 997.762 456.993, 1011.935 470.910 C 1020.037 478.865, 1029.662 484.997, 1034.050 484.999 C 1034.902 485, 1036.085 485.485, 1036.678 486.078 C 1039.384 488.784, 1053.144 491.008, 1071.170 491.654 C 1085.708 492.175, 1085.876 492.157, 1089.653 489.590 C 1091.749 488.166, 1093.959 487, 1094.563 487 C 1095.996 487, 1101.148 479.594, 1103.258 474.500 C 1106.240 467.300, 1106.982 463.125, 1105.537 461.680 C 1104.819 460.962, 1103.321 458.603, 1102.208 456.437 C 1099.464 451.099, 1089.953 441.415, 1083.111 436.994 C 1080.025 434.999, 1073.992 431.657, 1069.705 429.568 C 1065.418 427.478, 1061.368 425.231, 1060.705 424.575 C 1060.042 423.918, 1050.950 420.537, 1040.500 417.061 C 1030.050 413.585, 1020.306 409.899, 1018.846 408.870 C 1017.386 407.842, 1015.655 407, 1015 407 C 1014.345 407, 1012.614 406.360, 1011.154 405.577 C 998.793 398.952, 986.930 395.826, 959.500 391.967 C 956.200 391.502, 950.350 390.420, 946.500 389.561 C 937.854 387.633, 906.606 387.630, 894.237 389.557" stroke="#7f3c1a" fill="#7f3c1a" fill-opacity="0.2" fill-rule="evenodd"/><path class="svg-region-APB" d="M 886.500 334.621 C 882.100 335.359, 870.175 336.634, 860 337.454 C 826.974 340.115, 818.620 341.075, 811.271 343.054 C 807.295 344.124, 803.289 345, 802.368 345 C 799.447 345, 789.673 350.074, 784.821 354.109 C 782.247 356.249, 779.659 358, 779.071 358 C 778.482 358, 777.989 358.563, 777.976 359.250 C 777.963 359.938, 776.167 361.821, 773.985 363.435 C 771.803 365.050, 769.733 367.300, 769.386 368.435 C 769.038 369.571, 766.222 373.248, 763.127 376.606 C 760.032 379.965, 756.288 384.690, 754.806 387.106 L 752.112 391.500 759.231 391.797 C 763.656 391.982, 766.756 392.601, 767.424 393.433 C 768.055 394.218, 771.688 395.042, 776.210 395.424 C 780.451 395.783, 785.319 396.564, 787.030 397.160 C 788.740 397.757, 792.246 397.964, 794.820 397.622 C 797.394 397.280, 805.800 397.001, 813.500 397.002 C 822.194 397.004, 830.153 396.436, 834.500 395.503 C 838.349 394.676, 845.942 394, 851.372 394 C 860.033 394, 861.092 394.184, 860.001 395.499 C 858.934 396.784, 859.167 396.934, 861.628 396.542 C 874.121 394.557, 878.962 393.556, 881.940 392.344 C 887.869 389.930, 905.720 388, 922.115 388 C 930.787 388, 938.127 387.603, 938.427 387.119 C 939.275 385.745, 976.394 386.076, 987 387.551 C 992.225 388.278, 1001 389.837, 1006.500 391.016 C 1024.996 394.979, 1033.007 395.831, 1049 395.533 C 1063.857 395.257, 1074.471 393.929, 1076.279 392.121 C 1076.746 391.654, 1076.435 390.578, 1075.587 389.730 C 1074.739 388.881, 1073.115 385.829, 1071.979 382.946 C 1070.842 380.063, 1069.032 376.585, 1067.956 375.217 C 1066.880 373.849, 1066 372.332, 1066 371.845 C 1066 371.359, 1064.906 369.228, 1063.569 367.110 C 1061.433 363.726, 1060.312 363.041, 1054.319 361.453 C 1050.569 360.459, 1045.657 358.401, 1043.404 356.880 C 1041.150 355.359, 1038 353.796, 1036.404 353.406 C 1034.807 353.016, 1031.475 351.314, 1029 349.624 C 1026.525 347.933, 1023.825 346.428, 1023 346.279 C 1017.843 345.344, 1005.652 343.926, 994 342.906 C 986.575 342.255, 978.894 341.159, 976.931 340.470 C 974.968 339.780, 969.343 338.727, 964.431 338.129 C 959.519 337.530, 948.300 336.124, 939.500 335.003 C 921.176 332.670, 899.076 332.510, 886.500 334.621" stroke="#ac7444" fill="#ac7444" fill-opacity="0.2" fill-rule="evenodd"/><path class="svg-region-AP" d="M 811.618 497.685 C 813.052 500.637, 812.404 528.672, 810.708 537 C 808.225 549.196, 807.359 551.810, 803.919 557.487 C 801.102 562.134, 799.954 563.112, 795.665 564.515 C 792.220 565.642, 789.190 565.939, 785.842 565.478 C 783.179 565.112, 781 565.092, 781 565.435 C 781 566.448, 786.876 577.212, 789.496 581 C 795.126 589.138, 794.306 588.833, 797.571 584.009 C 802.023 577.433, 805.024 575.657, 812.485 575.182 C 816.040 574.955, 820.030 575.042, 821.351 575.373 C 824.968 576.281, 834.425 588.564, 836.077 594.500 C 837.710 600.371, 838.039 624.683, 836.500 625.785 C 834.273 627.378, 832 633.056, 832 637.027 C 832 641.027, 832.480 641.715, 841.298 650.372 C 849.910 658.827, 865.822 670.618, 870.145 671.748 C 871.165 672.015, 872 672.580, 872 673.003 C 872 673.810, 874.848 674.512, 884 675.961 C 891.589 677.162, 931.997 677.178, 940.262 675.983 C 950.010 674.573, 960.026 670.783, 966.352 666.109 C 969.378 663.874, 972.150 661.566, 972.511 660.982 C 972.873 660.397, 974.833 658.868, 976.868 657.583 C 990.344 649.076, 999.621 634.903, 996.077 628.236 C 993.844 624.036, 992.256 613.563, 992.100 602 C 991.895 586.800, 992.400 585.729, 1003.680 577.428 C 1007.981 574.263, 1011.725 571.360, 1012 570.976 C 1012.732 569.955, 1019.121 566.788, 1019.561 567.228 C 1020.617 568.283, 1022.839 574.828, 1022.318 575.349 C 1021.986 575.680, 1022.214 576.553, 1022.824 577.288 C 1023.434 578.023, 1024.983 582.798, 1026.266 587.899 L 1028.599 597.173 1032.284 591.366 C 1034.310 588.173, 1036.893 582.697, 1038.024 579.199 C 1039.154 575.701, 1041.269 570.962, 1042.723 568.669 C 1044.177 566.376, 1046.904 562.107, 1048.782 559.182 C 1050.660 556.257, 1052.040 553.721, 1051.849 553.547 C 1051.657 553.373, 1050.150 552.385, 1048.500 551.351 C 1038.903 545.339, 1028.712 533.984, 1025.315 525.516 C 1022.742 519.103, 1022.517 517.526, 1022.703 507.157 L 1022.905 495.813 1018.203 496.261 C 1012.292 496.823, 984.081 501.832, 982.976 502.515 C 981.894 503.184, 973.642 504.800, 962.500 506.525 C 957.550 507.291, 947.650 508.834, 940.500 509.952 C 927.204 512.032, 909.542 512.687, 908.583 511.135 C 907.929 510.076, 898.921 508.335, 889.500 507.446 C 885.650 507.083, 880.530 505.934, 878.123 504.893 C 875.715 503.852, 871.665 502.993, 869.123 502.985 C 866.580 502.976, 863.829 502.545, 863.010 502.027 C 862.001 501.389, 860.764 501.580, 859.181 502.617 C 857.074 503.998, 856.034 503.985, 848.671 502.486 C 844.177 501.571, 837.125 500.576, 833 500.274 C 828.875 499.973, 824.268 499.104, 822.763 498.344 C 821.258 497.584, 817.936 496.716, 815.381 496.416 C 811.148 495.918, 810.814 496.030, 811.618 497.685" stroke="#fc7143" fill="#fc7143" fill-opacity="0.2" fill-rule="evenodd"/><path class="svg-region-LPl" d="M 796.173 495.729 C 794.343 495.954, 790.968 497.157, 788.673 498.402 C 786.378 499.647, 781.350 502.378, 777.500 504.471 C 773.650 506.564, 768.700 509.867, 766.500 511.811 C 762.402 515.433, 758.126 522.190, 758.045 525.171 C 757.935 529.239, 765.100 543.392, 770.431 549.637 C 773.494 553.224, 776 556.799, 776 557.580 C 776 558.361, 776.450 559, 777 559 C 777.550 559, 778 559.665, 778 560.477 C 778 564.652, 787.787 566.970, 795.360 564.588 C 799.997 563.129, 801.005 562.295, 803.904 557.511 C 805.712 554.528, 807.633 550.381, 808.174 548.294 C 811.214 536.560, 812.127 529.961, 812.675 515.789 C 813.201 502.147, 813.062 499.744, 811.618 497.539 C 810.159 495.313, 809.310 495.020, 804.727 495.160 C 801.852 495.248, 798.003 495.504, 796.173 495.729" stroke="#d2454f" fill="#d2454f" fill-opacity="0.2" fill-rule="evenodd"/><path class="svg-region-LPr" d="M 1025.392 494.687 C 1023.543 495.051, 1023.206 496.031, 1022.642 502.702 C 1021.619 514.814, 1021.823 516.654, 1025.124 525.006 C 1028.267 532.961, 1032.015 537.757, 1041.500 545.959 C 1049.653 553.010, 1053.086 554.858, 1056.929 554.265 C 1061.932 553.494, 1066.659 550.882, 1072.647 545.582 C 1077.446 541.333, 1077.909 540.506, 1079.503 533.344 C 1080.501 528.858, 1081.049 523.117, 1080.822 519.541 C 1080.496 514.424, 1079.887 512.742, 1077.111 509.288 C 1073.809 505.179, 1071.232 503.656, 1065.500 502.425 C 1063.850 502.070, 1059.649 500.423, 1056.164 498.765 C 1048.276 495.011, 1033.618 493.069, 1025.392 494.687" stroke="#d2454f" fill="#d2454f" fill-opacity="0.2" fill-rule="evenodd"/><path class="svg-region-Ol" d="M 549.311 243.453 C 545.358 244.113, 541.442 245.218, 540.609 245.909 C 539.777 246.600, 538.200 246.881, 537.106 246.534 C 535.861 246.138, 533.690 246.781, 531.308 248.249 C 529.214 249.540, 524.899 251.925, 521.720 253.548 C 518.541 255.172, 514.575 257.738, 512.908 259.250 C 511.241 260.762, 509.675 262, 509.430 262 C 508.912 262, 504.744 265.644, 498.137 271.871 C 494.254 275.531, 478.906 288.804, 470.165 296.061 C 468.881 297.128, 467.475 298, 467.041 298 C 466.607 298, 464.283 299.091, 461.876 300.425 C 459.469 301.758, 455.700 303.167, 453.500 303.555 C 451.300 303.943, 449.050 304.594, 448.500 305.002 C 447.950 305.409, 445.137 306.250, 442.250 306.871 C 439.363 307.492, 434.637 308.508, 431.750 309.130 C 428.863 309.751, 426.135 310.470, 425.690 310.726 C 425.244 310.983, 422.769 311.329, 420.190 311.495 C 412.561 311.986, 392.232 319.348, 382.904 324.997 C 361.715 337.828, 340.340 359.494, 326.333 382.335 C 317.553 396.653, 302 427.705, 302 430.915 C 302 431.386, 300.465 435.985, 298.590 441.135 C 296.714 446.286, 294.392 453.200, 293.429 456.500 C 292.466 459.800, 291.303 463.175, 290.845 464 C 289.476 466.467, 283.344 492.280, 279.679 511 C 276.281 528.360, 273.951 549.901, 273.983 563.655 C 274.004 572.675, 276.591 595.112, 278.617 603.852 C 282.789 621.845, 293.878 645.724, 306.500 663.893 C 311.147 670.583, 329.957 691.824, 337.146 698.500 C 344.394 705.231, 362.423 720, 363.391 720 C 363.737 720, 366.179 721.517, 368.817 723.371 C 371.455 725.225, 374.600 727.056, 375.806 727.439 C 377.013 727.821, 378 728.520, 378 728.992 C 378 729.806, 392.783 735.926, 403.500 739.549 C 408.297 741.170, 415.335 744.654, 426.884 751.127 C 434.119 755.181, 445.577 757.460, 476 760.895 C 480.675 761.422, 488.775 761.697, 494 761.505 C 507.912 760.992, 523.116 760.004, 525.457 759.459 C 526.581 759.197, 532.586 758.331, 538.803 757.534 C 549.370 756.179, 569.241 751.848, 580.365 748.475 C 583.040 747.664, 586.084 747, 587.128 747 C 589.033 747, 589.671 746.756, 595.831 743.669 C 597.663 742.751, 599.954 742, 600.921 742 C 602.876 742, 614.530 738.081, 629 732.558 C 638.129 729.074, 669.364 712.517, 673.500 708.970 C 674.600 708.026, 676.023 707.085, 676.663 706.877 C 679.638 705.912, 703.021 684.402, 711.277 675.036 C 723.499 661.169, 726.899 656.678, 730.599 649.506 C 732.303 646.203, 735.357 640.269, 737.385 636.320 C 743.909 623.619, 746.326 611.794, 747.467 587 C 748.095 573.355, 746.285 553.327, 742.543 532.500 C 741.753 528.100, 741.082 522.759, 741.053 520.631 C 741.024 518.503, 740.114 514.003, 739.032 510.631 C 737.949 507.259, 736 501.125, 734.700 497 L 732.337 489.500 728.179 488.934 C 725.892 488.623, 723.004 487.429, 721.760 486.280 C 720.517 485.131, 717.813 483.497, 715.750 482.647 C 713.267 481.624, 712 480.457, 712 479.195 C 712 477.528, 710.960 477.201, 703.750 476.601 C 698.310 476.148, 693.671 475.077, 690.129 473.457 C 686.565 471.826, 682.965 471, 679.426 471 C 674.128 471, 669 472.554, 669 474.161 C 669 474.622, 668.137 475, 667.083 475 C 666.029 475, 662.197 476.575, 658.569 478.500 C 654.940 480.425, 651.099 482, 650.033 482 C 648.966 482, 646.950 482.521, 645.551 483.159 C 643.437 484.122, 642.675 484.016, 641.029 482.526 C 639.259 480.925, 638.208 480.842, 631.099 481.750 C 621.503 482.975, 612.472 487.860, 608.846 493.787 C 607.597 495.829, 605.996 498.095, 605.287 498.821 C 604.579 499.548, 604 500.480, 604 500.893 C 604 501.305, 601.525 504.219, 598.500 507.367 C 595.475 510.515, 593 513.484, 593 513.964 C 593 514.444, 591.127 516.786, 588.838 519.168 L 584.676 523.500 576.781 523.500 C 569.538 523.500, 568.727 523.293, 566.965 521 C 564.680 518.025, 564.506 514.238, 566.532 511.559 C 567.339 510.491, 568 508.804, 568 507.809 C 568 506.814, 568.450 506, 569 506 C 569.550 506, 570 503.573, 570 500.606 C 570 496.033, 569.558 494.738, 567.099 492.106 C 565.450 490.341, 563.183 488.998, 561.849 488.996 C 559.113 488.992, 553.171 485.609, 552.408 483.621 C 552.119 482.869, 553.195 480.184, 554.799 477.656 C 557.677 473.118, 564.532 465, 565.486 465 C 567.208 465, 570 461.117, 570 458.723 C 570 456.270, 569.295 455.575, 564.750 453.542 C 557.970 450.511, 555.301 447.899, 552.313 441.372 C 550.260 436.888, 549.871 434.458, 549.816 425.780 C 549.780 420.126, 550.283 412.350, 550.934 408.500 C 552.698 398.074, 553.885 387.199, 553.946 380.922 C 553.994 375.972, 555.494 370.859, 559.940 360.500 C 560.412 359.400, 561.353 357.026, 562.031 355.224 C 562.709 353.422, 564.544 351.037, 566.108 349.923 C 569.188 347.730, 571.951 342.295, 573.858 334.679 C 576.454 324.310, 584.785 315.826, 594.698 313.457 C 601.372 311.863, 612.754 311.576, 616.272 312.913 C 619.495 314.139, 624.357 319.117, 631 327.993 C 634.025 332.035, 639.309 338.527, 642.742 342.421 C 646.175 346.314, 648.988 350.288, 648.992 351.250 C 649.001 353.328, 650.563 353.581, 651.313 351.627 C 652.040 349.733, 645.693 335.446, 642.184 331.079 C 640.603 329.110, 638.605 326.139, 637.745 324.475 C 636.885 322.811, 633.018 318.230, 629.152 314.294 C 625.286 310.358, 621.409 305.757, 620.536 304.069 C 619.663 302.381, 618.500 301, 617.952 301 C 616.154 301, 606.280 284.682, 602.825 276 C 596.208 259.375, 590.064 251.597, 579.191 246.084 C 575.597 244.262, 561.386 241.674, 557.500 242.133 C 556.950 242.199, 553.265 242.792, 549.311 243.453" stroke="#aa444d" fill="#aa444d" fill-opacity="0.2" fill-rule="evenodd"/><path class="svg-region-Or" d="M 1259.824 232.967 C 1256.703 234.611, 1253.916 236.754, 1253.631 237.729 C 1251.628 244.588, 1250.800 253.365, 1251.223 263.246 C 1251.487 269.436, 1251.424 276.750, 1251.081 279.500 C 1249.926 288.769, 1253.753 307.214, 1257.787 311.823 C 1262.217 316.884, 1269.407 327.127, 1270.750 330.287 C 1271.438 331.906, 1272 334.931, 1272 337.010 C 1272 340.188, 1273.313 342.541, 1280.250 351.796 C 1284.787 357.849, 1290.500 366.109, 1292.945 370.151 C 1297.306 377.362, 1297.398 377.693, 1297.809 387.768 C 1298.270 399.070, 1297.618 401.696, 1292.574 408.859 C 1288.600 414.502, 1282.787 417.388, 1271.048 419.545 C 1262.106 421.188, 1250.104 421.128, 1245.648 419.418 C 1244.316 418.907, 1244 419.440, 1244 422.194 C 1244 425.727, 1245.940 430.979, 1247.250 430.992 C 1249.427 431.015, 1247.490 434.297, 1244 436.500 L 1240 439.025 1240.024 446.763 C 1240.051 455.178, 1241.217 461.549, 1243.683 466.744 C 1244.551 468.574, 1245.090 470.232, 1244.881 470.428 C 1244.189 471.076, 1223.541 468.971, 1221.500 468.044 C 1220.400 467.545, 1218.150 466.925, 1216.500 466.668 C 1214.850 466.410, 1208.325 464.817, 1202 463.128 C 1195.675 461.439, 1189.525 460.044, 1188.333 460.028 C 1187.142 460.013, 1186.006 459.517, 1185.809 458.926 C 1185.612 458.335, 1182.537 457.626, 1178.975 457.350 C 1175.414 457.075, 1171.600 456.494, 1170.500 456.059 C 1165.165 453.951, 1154.467 452, 1148.240 452 C 1140.770 452, 1136.146 453.660, 1132.420 457.681 C 1131.238 458.956, 1129.976 460, 1129.615 460 C 1129.255 460, 1127.178 461.125, 1125 462.500 C 1122.822 463.875, 1120.356 465, 1119.520 465 C 1118.684 465, 1117.999 465.337, 1117.997 465.750 C 1117.996 466.163, 1116.622 467.400, 1114.946 468.500 C 1113.182 469.657, 1110.343 473.436, 1108.212 477.464 C 1106.185 481.295, 1102.841 486.673, 1100.780 489.416 C 1098.719 492.158, 1097.467 494.671, 1097.998 494.999 C 1098.529 495.327, 1099.194 499.213, 1099.477 503.634 C 1099.759 508.056, 1100.393 513.884, 1100.885 516.586 C 1101.378 519.289, 1101.835 529.314, 1101.902 538.865 C 1101.969 548.415, 1102.356 556.740, 1102.762 557.365 C 1103.168 557.989, 1103.550 560.075, 1103.612 562 C 1103.940 572.236, 1109.538 602.813, 1112.492 610.500 C 1113.971 614.350, 1116.298 621.031, 1117.664 625.346 C 1119.950 632.568, 1125.576 643.002, 1127.988 644.493 C 1128.545 644.837, 1129 645.935, 1129 646.933 C 1129 647.931, 1131.490 651.617, 1134.534 655.124 C 1137.577 658.631, 1140.448 661.950, 1140.913 662.500 C 1143.472 665.527, 1157.062 676, 1158.432 676 C 1158.696 676, 1161.069 677.252, 1163.706 678.782 C 1168.305 681.451, 1173.223 683.581, 1188.500 689.518 C 1196.362 692.574, 1196.972 692.776, 1209.496 696.476 C 1217.361 698.800, 1225.396 700.823, 1234 702.648 C 1239.254 703.762, 1250.745 707.280, 1256.500 709.536 C 1259.800 710.830, 1264.869 712.566, 1267.764 713.395 C 1270.660 714.223, 1275.160 716.026, 1277.764 717.402 C 1298.717 728.468, 1322.233 738.334, 1336.590 742.083 C 1347.324 744.887, 1349.921 745.189, 1362.895 745.148 C 1379.935 745.094, 1386.010 743.954, 1409 736.499 C 1435.381 727.944, 1449.395 721.427, 1465.141 710.392 C 1467.693 708.603, 1472.418 705.754, 1475.641 704.060 C 1484.613 699.346, 1490.774 694.850, 1502.998 684.096 C 1548.116 644.405, 1569.203 611.123, 1577.731 566.146 C 1579.999 554.185, 1580.318 549.906, 1580.318 531.500 C 1580.318 510.097, 1579.599 503.170, 1575.025 480.500 C 1571.610 463.572, 1569.408 456.271, 1559.343 428.500 C 1556.653 421.075, 1541.859 391.579, 1535.269 380.500 C 1518.755 352.737, 1497.755 328.070, 1481.595 317.454 C 1477.865 315.004, 1474.600 313, 1474.337 313 C 1474.075 313, 1471.979 311.732, 1469.680 310.183 C 1467.381 308.634, 1463.250 306.444, 1460.500 305.318 C 1452.897 302.203, 1430.113 295.128, 1422.670 293.571 C 1419.034 292.810, 1414.133 291.528, 1411.779 290.722 C 1409.426 289.916, 1404.800 288.440, 1401.500 287.442 C 1395.301 285.567, 1381.763 279.097, 1381.156 277.719 C 1380.968 277.290, 1378.605 275.820, 1375.906 274.453 C 1373.208 273.085, 1371 271.596, 1371 271.144 C 1371 270.691, 1369.812 269.780, 1368.361 269.119 C 1366.909 268.457, 1364.852 266.810, 1363.788 265.458 C 1362.725 264.106, 1361.374 263, 1360.785 263 C 1360.197 263, 1357.417 261.077, 1354.608 258.727 C 1347.458 252.745, 1342.296 249, 1341.202 249 C 1340.689 249, 1339.197 248.174, 1337.885 247.165 C 1335.676 245.466, 1330.631 242.772, 1322 238.681 C 1320.075 237.769, 1314.225 235.614, 1309 233.893 C 1300.177 230.986, 1298.289 230.735, 1282.500 230.369 L 1265.500 229.976 1259.824 232.967" stroke="#aa444d" fill="#aa444d" fill-opacity="0.2" fill-rule="evenodd"/><path class="svg-region-Pl" d="M 596.500 312.940 C 594.850 313.409, 592.298 314.064, 590.828 314.396 C 584.443 315.837, 574.913 327.702, 573.396 336.099 C 572.419 341.501, 569.070 347.814, 566.033 349.977 C 564.080 351.367, 561.959 355.062, 558.997 362.234 C 555.288 371.215, 554.656 373.876, 553.943 383.500 C 553.093 394.979, 551.288 408.716, 550.067 413 C 549.675 414.375, 549.496 420.345, 549.669 426.266 C 549.935 435.387, 550.365 437.787, 552.486 441.972 C 553.863 444.689, 556.004 447.881, 557.245 449.065 C 560.020 451.716, 567.353 455, 570.494 455 C 576.812 455, 590.503 447.510, 602.383 437.555 C 607.710 433.090, 614.214 424.071, 616.664 417.749 C 617.569 415.412, 618.859 412.825, 619.529 412 C 620.199 411.175, 621.279 408.842, 621.930 406.815 C 622.580 404.788, 623.523 402.988, 624.024 402.815 C 624.526 402.642, 626.638 399.967, 628.718 396.872 C 630.798 393.776, 634.898 388.376, 637.829 384.872 C 645.891 375.234, 646.035 375.038, 647.056 372.354 C 648.222 369.285, 649.309 361.085, 649.373 354.855 C 649.417 350.685, 648.914 349.627, 644.461 344.523 C 637.790 336.877, 628.495 325.224, 625.959 321.329 C 624.824 319.585, 622.231 316.885, 620.198 315.329 C 616.880 312.791, 615.626 312.479, 608 312.294 C 603.325 312.180, 598.150 312.471, 596.500 312.940" stroke="#f9d3d3" fill="#f9d3d3" fill-opacity="0.2" fill-rule="evenodd"/><path class="svg-region-Pr" d="M 1231.266 303.167 C 1219.124 304.470, 1212.385 308.957, 1206.316 319.780 C 1204.379 323.234, 1200.982 327.509, 1198.766 329.280 C 1189.553 336.644, 1185.388 342.076, 1183.549 349.127 C 1182.778 352.082, 1182.502 354.629, 1182.936 354.787 C 1183.369 354.945, 1183.074 358.233, 1182.280 362.093 L 1180.836 369.112 1188.730 376.489 C 1193.071 380.546, 1199.521 386.031, 1203.062 388.676 C 1206.603 391.322, 1213.371 397.202, 1218.102 401.744 C 1222.833 406.285, 1227.221 410, 1227.852 410 C 1228.483 410, 1229 410.349, 1229 410.776 C 1229 411.202, 1232.713 413.453, 1237.250 415.778 C 1244.400 419.441, 1246.633 420.087, 1254 420.620 C 1263.846 421.333, 1277.980 419.114, 1284.641 415.809 C 1289.633 413.332, 1295.215 406.912, 1296.950 401.652 C 1297.777 399.145, 1298.072 394.268, 1297.796 387.652 C 1297.410 378.401, 1297.089 377.030, 1294.186 372.206 C 1292.434 369.294, 1291 366.672, 1291 366.379 C 1291 365.639, 1273.906 343.060, 1272.854 342.410 C 1272.384 342.119, 1272 339.935, 1272 337.556 C 1272 332.736, 1270.833 329.598, 1266.617 323.078 C 1263.447 318.176, 1262.920 317.498, 1258.250 312.322 C 1256.463 310.341, 1255 308.308, 1255 307.804 C 1255 306.452, 1247.109 303.302, 1242.500 302.814 C 1240.300 302.581, 1235.245 302.739, 1231.266 303.167" stroke="#f9d3d3" fill="#f9d3d3" fill-opacity="0.2" fill-rule="evenodd"/><path class="svg-region-OABl" d="M 650.732 351.759 C 649.759 354.916, 648.960 358.850, 648.957 360.500 C 648.940 369.132, 645.232 376.658, 635.349 388.127 C 628.337 396.264, 622.888 404.004, 621.727 407.477 C 621.172 409.140, 620.175 411.175, 619.514 412 C 618.852 412.825, 617.528 415.516, 616.571 417.981 C 611.474 431.110, 592.657 447.873, 576.873 453.344 C 569.996 455.728, 569.522 456.078, 569.834 458.547 C 570.129 460.882, 567.388 465, 565.539 465 C 563.775 465, 552 480.622, 552 482.962 C 552 484.645, 557.343 488.058, 561.691 489.153 C 567.490 490.613, 570 494.163, 570 500.904 C 570 503.707, 569.550 506, 569 506 C 568.450 506, 568 506.814, 568 507.809 C 568 508.804, 567.339 510.491, 566.532 511.559 C 564.333 514.466, 564.701 518.385, 567.452 521.354 C 569.657 523.733, 570.616 524, 576.946 524 C 583.936 524, 584.022 523.967, 588.494 519.558 C 590.972 517.115, 593 514.654, 593 514.090 C 593 513.525, 595.275 510.715, 598.056 507.845 C 600.837 504.975, 604.956 499.777, 607.209 496.293 C 612.857 487.560, 620.092 483.155, 631.099 481.750 C 638.208 480.842, 639.259 480.925, 641.029 482.526 C 642.675 484.016, 643.437 484.122, 645.551 483.159 C 646.950 482.521, 648.966 482, 650.033 482 C 651.099 482, 654.940 480.425, 658.569 478.500 C 662.197 476.575, 666.029 475, 667.083 475 C 668.137 475, 669 474.622, 669 474.161 C 669 472.592, 674.076 471, 679.077 471 C 682.160 471, 686.357 471.967, 690.084 473.535 C 693.939 475.158, 698.970 476.292, 704.054 476.684 C 710.959 477.216, 712 477.544, 712 479.184 C 712 480.450, 713.399 481.675, 716.250 482.906 C 718.587 483.915, 721.357 485.699, 722.405 486.870 C 723.723 488.344, 725.495 489, 728.155 489 C 732.756 489, 733.019 487.759, 729.438 482.944 C 727.244 479.995, 726.969 478.853, 727.527 475 C 727.885 472.525, 728.720 469.825, 729.382 469 C 730.044 468.175, 731.205 466.262, 731.962 464.750 C 732.719 463.238, 733.712 462, 734.169 462 C 734.626 462, 736.750 460.313, 738.889 458.250 C 748.265 449.210, 757.213 441.425, 759.271 440.518 C 760.497 439.978, 762.095 438.965, 762.821 438.268 C 763.548 437.571, 764.733 437, 765.455 437 C 766.176 437, 766.986 436.162, 767.254 435.138 C 767.521 434.114, 769.036 432.603, 770.620 431.780 C 773.985 430.032, 788.629 421.509, 793.875 418.244 C 800.070 414.390, 804.859 412, 806.389 412 C 807.196 412, 808.452 411.407, 809.179 410.683 C 811.186 408.682, 816.810 407, 821.495 407 C 823.804 407, 829.474 405.598, 834.096 403.884 C 838.718 402.171, 844.683 400.391, 847.351 399.929 C 854.076 398.764, 858.623 397.159, 860.042 395.449 C 861.079 394.200, 859.880 394, 851.372 394.001 C 845.943 394.001, 838.264 394.677, 834.309 395.502 C 829.860 396.430, 821.852 396.989, 813.309 396.969 C 805.714 396.950, 797.394 397.230, 794.820 397.590 C 792.077 397.973, 788.767 397.766, 786.825 397.089 C 785.001 396.453, 780.208 395.654, 776.172 395.313 C 771.820 394.945, 768.242 394.099, 767.377 393.234 C 766.160 392.017, 763.319 391.893, 750.209 392.486 C 735.226 393.163, 734.378 393.100, 731.857 391.110 C 730.163 389.773, 726.571 388.653, 721.857 387.993 C 713.769 386.860, 707.818 385.197, 706.919 383.820 C 706.600 383.330, 704.575 382.677, 702.419 382.369 C 700.264 382.061, 697.082 381.177, 695.349 380.405 C 693.616 379.632, 691.741 379, 691.184 379 C 689.792 379, 686.258 376.016, 674.072 364.553 C 672.349 362.932, 670.690 360.615, 670.386 359.403 C 669.643 356.442, 656.624 345.988, 653.706 346.009 C 653.043 346.013, 651.704 348.601, 650.732 351.759" stroke="#81244d" fill="#81244d" fill-opacity="0.2" fill-rule="evenodd"/><path class="svg-region-OABr" d="M 1159.865 354.463 C 1145.579 362.211, 1145.036 362.384, 1134.859 362.444 C 1123.596 362.509, 1121.985 363.409, 1119.919 370.790 C 1119.197 373.369, 1117.120 378.533, 1115.303 382.266 C 1113.486 385.999, 1112 389.408, 1112 389.841 C 1112 390.275, 1110.408 391.389, 1108.463 392.316 C 1105.079 393.930, 1104.753 393.915, 1100.914 391.956 C 1098.708 390.831, 1096.651 389.255, 1096.344 388.455 C 1095.123 385.271, 1081.592 387.457, 1076.930 391.591 C 1070.149 397.606, 1026.945 396.703, 1002.091 390.027 C 1000.116 389.496, 993.775 388.426, 988 387.648 C 975.466 385.960, 939 385.464, 939 386.982 C 939 387.542, 939.113 388, 939.250 388 C 939.388 388, 942.651 388.703, 946.500 389.561 C 950.350 390.420, 956.200 391.510, 959.500 391.983 C 989.616 396.300, 994.469 397.684, 1017.500 408.526 C 1021.350 410.338, 1032.007 414.311, 1041.183 417.355 C 1050.358 420.399, 1059.583 423.963, 1061.683 425.275 C 1063.782 426.587, 1068.200 428.927, 1071.500 430.475 C 1074.800 432.023, 1079.689 434.762, 1082.364 436.562 C 1089.685 441.488, 1100.081 451.987, 1102.106 456.500 C 1103.093 458.700, 1105.082 461.376, 1106.527 462.447 C 1107.971 463.519, 1109.805 465.656, 1110.602 467.197 C 1112.376 470.627, 1112.818 470.651, 1116.217 467.500 C 1117.699 466.125, 1119.391 465, 1119.976 465 C 1120.561 465, 1122.822 463.875, 1125 462.500 C 1127.178 461.125, 1129.198 460, 1129.489 460 C 1129.779 460, 1131.337 458.824, 1132.951 457.386 C 1134.564 455.949, 1137.086 454.149, 1138.556 453.386 C 1142.105 451.545, 1154.372 451.603, 1160.591 453.489 C 1163.291 454.308, 1166.513 454.983, 1167.750 454.989 C 1168.987 454.995, 1170 455.391, 1170 455.868 C 1170 456.346, 1173.467 456.959, 1177.704 457.231 C 1182.156 457.517, 1185.569 458.206, 1185.788 458.863 C 1185.996 459.488, 1186.981 460, 1187.977 460 C 1188.972 460, 1195.122 461.397, 1201.643 463.104 C 1208.164 464.812, 1214.850 466.417, 1216.500 466.672 C 1218.150 466.928, 1220.400 467.559, 1221.500 468.075 C 1223.499 469.014, 1244.161 471.089, 1244.881 470.424 C 1245.090 470.230, 1244.551 468.574, 1243.683 466.744 C 1241.271 461.662, 1240.051 455.225, 1240.024 447.441 C 1239.999 439.966, 1240.645 438.509, 1245.250 435.657 C 1247.779 434.091, 1249.074 431, 1247.201 431 C 1246.133 431, 1244.002 424.972, 1243.993 421.929 C 1243.988 419.964, 1242.632 418.736, 1236.894 415.500 C 1232.993 413.300, 1228.928 410.999, 1227.860 410.387 C 1226.792 409.775, 1222.224 405.725, 1217.709 401.387 C 1213.194 397.049, 1207.073 391.700, 1204.107 389.500 C 1201.141 387.300, 1195.588 382.462, 1191.768 378.750 C 1187.947 375.038, 1184.467 372, 1184.033 372 C 1183.600 372, 1182.714 371.360, 1182.065 370.578 C 1181.153 369.480, 1181.228 367.498, 1182.394 361.863 C 1183.224 357.852, 1183.739 354.406, 1183.537 354.204 C 1183.336 354.003, 1182.304 354.302, 1181.245 354.869 C 1179.879 355.600, 1178.035 355.521, 1174.909 354.600 C 1166.048 351.986, 1164.458 351.972, 1159.865 354.463" stroke="#81244d" fill="#81244d" fill-opacity="0.2" fill-rule="evenodd"/><path class="svg-region-BPCl" d="M 806.021 576.116 C 804.657 576.660, 802.705 577.862, 801.684 578.786 C 799.484 580.777, 794 588.737, 794 589.939 C 794 590.401, 795.810 594.316, 798.022 598.639 C 802.792 607.962, 809.799 617.975, 816.233 624.664 C 818.791 627.324, 821.914 630.850, 823.171 632.500 C 828.264 639.183, 830.959 639.747, 832.060 634.359 C 832.412 632.638, 833.780 629.715, 835.100 627.865 C 837.328 624.741, 837.499 623.606, 837.484 612 C 837.461 594.172, 835.755 589.054, 826.567 579.250 C 822.594 575.011, 822.565 575, 815.542 575.063 C 811.669 575.098, 807.384 575.572, 806.021 576.116" stroke="#83385f" fill="#83385f" fill-opacity="0.2" fill-rule="evenodd"/><path class="svg-region-BPCr" d="M 1015 568.786 C 1013.625 569.710, 1012.275 570.738, 1012 571.070 C 1011.725 571.402, 1008.125 574.164, 1004 577.208 C 992.045 586.030, 992.523 585.059, 992.355 600.856 C 992.220 613.525, 993.331 621.604, 996.360 630 C 996.658 630.825, 997.391 633.413, 997.989 635.750 C 998.588 638.087, 999.622 639.999, 1000.289 639.998 C 1001.428 639.997, 1011.172 626.079, 1016.090 617.429 C 1017.318 615.268, 1020.091 611.346, 1022.253 608.713 C 1026.859 603.100, 1028.391 598.416, 1027.504 592.658 C 1026.713 587.530, 1024.066 578.918, 1022.782 577.294 C 1022.257 576.630, 1022.115 575.623, 1022.466 575.055 C 1023.307 573.694, 1020.096 566.985, 1018.636 567.052 C 1018.011 567.081, 1016.375 567.861, 1015 568.786" stroke="#83385f" fill="#83385f" fill-opacity="0.2" fill-rule="evenodd"/><path class="svg-region-OVl" d="M 773.450 359.948 C 771.548 361.847, 760.340 364.404, 754 364.386 C 745.653 364.362, 737.244 363.095, 733.750 361.334 L 731 359.949 731 368.779 C 731 376.872, 730.750 378.003, 728 382.339 C 726.350 384.941, 725 387.290, 725 387.559 C 725 387.829, 726.013 388.508, 727.250 389.068 C 728.487 389.628, 730.625 390.735, 732 391.528 C 733.573 392.436, 737.331 392.976, 742.136 392.985 C 749.643 393, 749.833 392.937, 753.386 389.279 C 755.374 387.233, 757 384.944, 757 384.193 C 757 383.441, 759.645 380.053, 762.877 376.663 C 766.109 373.274, 769.048 369.539, 769.408 368.364 C 769.768 367.190, 771.848 364.991, 774.031 363.478 C 776.214 361.966, 778 360.339, 778 359.864 C 778 358.700, 774.638 358.762, 773.450 359.948" stroke="#593939" fill="#593939" fill-opacity="0.2" fill-rule="evenodd"/>
    </svg>