<svg xmlns="http://www.w3.org/2000/svg" width="1921" height="1027" viewBox="0 0 1921 1027" version="1.1">
    <path class="svg-region-V" d="M 807 168.068 C 789.578 170.725, 781.368 172.328, 768.804 175.525 C 760.937 177.527, 753.375 179.177, 752 179.193 C 750.625 179.208, 749.050 179.559, 748.500 179.973 C 747.950 180.387, 743.450 182.871, 738.500 185.494 C 728.155 190.976, 719 196.837, 719 197.978 C 719 198.408, 715.761 200.952, 711.802 203.630 C 707.843 206.309, 699.938 212.775, 694.236 218 C 688.534 223.225, 682.152 228.850, 680.055 230.500 C 671.279 237.403, 660.909 247.679, 659.399 250.970 C 658.508 252.911, 657.256 254.950, 656.616 255.500 C 652.556 258.991, 651 262.442, 651 267.957 C 651 276.944, 653.263 282.047, 659.811 287.830 C 669.392 296.291, 673.501 300.348, 676.187 304 C 677.602 305.925, 679.940 308.762, 681.382 310.304 C 682.824 311.846, 684.741 314.546, 685.642 316.304 C 686.542 318.062, 687.560 319.725, 687.903 320 C 688.247 320.275, 690.540 322.975, 693 326 C 695.460 329.025, 697.929 331.831, 698.486 332.235 C 700.380 333.607, 708.697 333.071, 710.007 331.492 C 711.219 330.032, 710.975 324.268, 709.498 319.443 C 709.096 318.131, 709.581 316.504, 710.835 314.955 L 712.804 312.524 734.404 312.833 C 754.751 313.124, 756.151 313.026, 758.548 311.141 C 759.947 310.040, 764.334 307.927, 768.296 306.444 C 772.258 304.962, 779.775 301.154, 785 297.982 C 790.225 294.810, 798.775 290.069, 804 287.445 C 809.225 284.822, 816.208 280.812, 819.517 278.534 C 822.826 276.256, 826.323 274.090, 827.287 273.720 C 828.251 273.350, 831.753 271.205, 835.069 268.953 C 842.231 264.090, 848.984 261.607, 862.500 258.869 C 871.957 256.953, 875.744 256.902, 884 258.584 C 887.831 259.364, 895.032 263.498, 896.300 265.646 C 896.850 266.577, 899.259 267, 904.019 267 C 911.227 267, 914.153 265.944, 923.880 259.835 C 926.289 258.322, 930.255 256.784, 932.694 256.419 C 938.126 255.604, 948.239 257.614, 951.461 260.148 C 952.756 261.167, 954.253 262, 954.788 262 C 955.665 262, 967.896 267.728, 975.500 271.699 C 977.150 272.561, 987.693 277.960, 998.929 283.696 C 1023.241 296.108, 1027.700 298.598, 1031 301.606 C 1032.630 303.092, 1036.285 304.458, 1041.500 305.532 C 1045.900 306.438, 1050.092 307.669, 1050.817 308.267 C 1052.676 309.804, 1062.932 313.160, 1063.915 312.553 C 1065.154 311.787, 1094.106 316.899, 1096.983 318.392 C 1098.367 319.111, 1100.886 320.518, 1102.580 321.520 C 1105.477 323.233, 1105.953 323.245, 1110.580 321.728 C 1119.197 318.903, 1126.508 315.099, 1132.192 310.484 C 1135.639 307.685, 1140 299.539, 1140 295.899 C 1140 294.232, 1140.533 291.886, 1141.184 290.684 C 1142.337 288.558, 1142.772 286.728, 1144.974 274.738 C 1145.942 269.462, 1145.784 268.239, 1143.101 260.238 C 1141.488 255.432, 1139.851 248.887, 1139.463 245.694 C 1138.848 240.649, 1138.181 239.288, 1134.378 235.319 C 1131.970 232.806, 1130 230.400, 1130 229.973 C 1130 229.545, 1128.763 228.713, 1127.250 228.123 C 1124.237 226.947, 1114.074 219.879, 1107 214.040 C 1104.525 211.997, 1100.347 209.128, 1097.716 207.664 C 1095.086 206.200, 1089.460 202.189, 1085.216 198.751 C 1075.672 191.020, 1073.869 190, 1069.760 190 C 1067.963 190, 1063.345 188.482, 1059.497 186.626 C 1048.390 181.270, 1032.674 177.601, 1007 174.372 C 983.381 171.401, 938.156 172.415, 933.500 176.020 C 932.950 176.446, 930.250 177.014, 927.500 177.283 C 895.155 180.441, 897.213 180.406, 886.500 177.971 C 881 176.721, 873.800 175.194, 870.500 174.578 C 867.200 173.961, 863.600 172.950, 862.500 172.330 C 861.400 171.710, 857.800 170.911, 854.500 170.555 C 851.200 170.199, 846.700 169.502, 844.500 169.006 C 839.327 167.840, 812.838 167.177, 807 168.068" stroke="#dd8a8a" fill="#dd8a8a" fill-opacity="0.2" fill-rule="evenodd"/><path class="svg-region-SV" d="M 928.500 257.209 C 926.850 257.788, 924.825 258.820, 924 259.502 C 923.175 260.185, 919.937 262.151, 916.804 263.872 C 911.982 266.520, 910.064 266.997, 904.304 266.983 C 898.366 266.968, 897.199 266.649, 895.140 264.477 C 891.637 260.784, 886.908 258.904, 877.094 257.301 C 869.784 256.107, 844.458 262.401, 837.963 267.026 C 836.439 268.112, 834.768 269, 834.251 269 C 833.733 269, 832.495 269.900, 831.500 271 C 830.505 272.100, 829.217 273, 828.638 273 C 828.060 273, 825.003 274.812, 821.845 277.028 C 818.687 279.243, 810.342 284.033, 803.302 287.672 C 796.261 291.312, 787.350 296.324, 783.500 298.810 C 779.650 301.296, 773.758 304.297, 770.407 305.478 C 761.922 308.469, 753.853 313.300, 756.458 313.829 C 761.964 314.948, 766.915 320.204, 766.982 325 C 767.009 326.925, 767.428 329.128, 767.914 329.895 C 769.172 331.881, 774.479 330.617, 778.269 327.427 C 781.072 325.069, 781.910 324.889, 787.919 325.363 C 798.017 326.158, 804.154 325.988, 806.271 324.855 C 807.330 324.288, 812.764 323.428, 818.348 322.942 C 823.932 322.457, 834.125 321.391, 841 320.574 C 856.967 318.677, 870.949 318.629, 885.199 320.422 C 906.916 323.155, 916.317 323.284, 931.500 321.058 C 953.194 317.876, 977.983 318.801, 994.500 323.407 C 997.250 324.174, 1001.750 325.102, 1004.500 325.469 C 1007.250 325.836, 1013.100 327.021, 1017.500 328.102 C 1021.900 329.183, 1028.611 330.511, 1032.414 331.053 C 1036.216 331.596, 1040.769 332.930, 1042.532 334.020 C 1045.038 335.568, 1047.508 336, 1053.868 336 C 1058.341 336, 1062 335.743, 1062 335.429 C 1062 334.428, 1059.186 332, 1058.026 332 C 1057.412 332, 1055.805 330.895, 1054.455 329.545 C 1051.161 326.252, 1051.221 321.915, 1054.601 318.855 C 1056.032 317.560, 1058.138 315.631, 1059.281 314.570 L 1061.360 312.640 1058.930 311.670 C 1057.594 311.136, 1054.769 309.852, 1052.654 308.816 C 1050.539 307.780, 1045.599 306.257, 1041.677 305.432 C 1037.754 304.607, 1033.465 303.160, 1032.146 302.216 C 1026.122 297.907, 1019.035 293.951, 999.500 283.990 C 987.950 278.101, 977.150 272.556, 975.500 271.670 C 973.850 270.783, 969.480 268.680, 965.789 266.996 C 962.098 265.313, 958.809 263.500, 958.480 262.967 C 958.151 262.435, 956.839 262, 955.563 262 C 954.288 262, 952.702 261.346, 952.039 260.547 C 949.064 256.962, 934.925 254.958, 928.500 257.209" stroke="#c666b5" fill="#c666b5" fill-opacity="0.2" fill-rule="evenodd"/><path class="svg-region-SF" d="M 714.354 312.715 C 713.174 312.933, 711.437 313.965, 710.493 315.008 C 709.025 316.630, 708.931 317.595, 709.843 321.702 C 710.430 324.341, 711.190 329.658, 711.533 333.519 C 712.375 342.993, 716.197 348.342, 724.067 351.059 C 731.804 353.730, 733.908 353.484, 739.556 349.250 C 753.956 338.454, 761.388 333.391, 764.284 332.406 C 767.393 331.348, 767.488 331.149, 767.143 326.452 C 766.502 317.744, 761.778 314.149, 750.093 313.476 C 737.249 312.735, 716.616 312.296, 714.354 312.715 M 1062.654 312.708 C 1060.599 313.238, 1057.828 315.297, 1054.329 318.896 C 1050.321 323.019, 1051.596 330.180, 1056.562 331.426 C 1058 331.787, 1060.338 333.159, 1061.758 334.476 C 1063.218 335.830, 1067.198 337.590, 1070.920 338.527 C 1074.539 339.438, 1079.427 340.860, 1081.781 341.687 C 1085.660 343.048, 1086.298 343.035, 1088.576 341.542 C 1089.958 340.636, 1093.356 339.627, 1096.126 339.299 C 1102.186 338.581, 1103.505 336.344, 1102.592 328.335 C 1101.804 321.426, 1101.225 320.168, 1098.092 318.548 C 1096.037 317.485, 1065.358 311.584, 1064.654 312.116 C 1064.569 312.180, 1063.669 312.446, 1062.654 312.708" stroke="#8c6b55" fill="#8c6b55" fill-opacity="0.2" fill-rule="evenodd"/><path class="svg-region-PF" d="M 842.500 320.108 C 837.550 320.568, 831.613 321.407, 829.307 321.972 C 827.001 322.538, 822.276 323.003, 818.807 323.006 C 809.715 323.014, 805.276 324.499, 802.952 328.311 C 801.882 330.065, 801.006 332.711, 801.004 334.191 C 801.002 335.671, 800.550 337.160, 800 337.500 C 798.060 338.699, 798.867 345.798, 801.189 347.961 C 803.063 349.707, 804.701 350, 812.594 350 C 821.663 350, 821.878 349.944, 826 346.500 C 828.304 344.575, 830.587 343, 831.073 343 C 831.559 343, 835.229 341.482, 839.228 339.626 C 843.228 337.771, 848.300 335.687, 850.500 334.995 C 852.700 334.303, 856.075 333.136, 858 332.400 C 859.925 331.665, 863.300 330.765, 865.500 330.400 C 867.700 330.035, 870.245 329.353, 871.156 328.883 C 875.120 326.841, 893.889 325, 910.743 325 C 927.980 325, 941.367 326.520, 946.007 329.004 C 947.053 329.563, 950.741 330.302, 954.204 330.646 C 957.667 330.990, 961.625 331.824, 963 332.499 C 966.053 333.999, 974.423 336.944, 978.500 337.953 C 983.133 339.100, 993.529 344.647, 997.378 348.027 C 1001.083 351.280, 1009.518 354, 1015.903 354 C 1018.605 354, 1020.513 353.254, 1022.486 351.425 C 1025.035 349.063, 1025.219 348.410, 1024.713 343.507 C 1024.255 339.067, 1024.486 337.870, 1026.081 336.427 C 1027.136 335.472, 1028 333.738, 1028 332.575 C 1028 330.717, 1026.790 330.180, 1018.069 328.164 C 1012.607 326.901, 1005.519 325.471, 1002.319 324.985 C 999.118 324.500, 994.925 323.644, 993 323.082 C 978.241 318.776, 952.817 317.936, 931.500 321.049 C 916.382 323.257, 907.904 323.139, 886.199 320.417 C 874.016 318.889, 856.898 318.768, 842.500 320.108" stroke="#faaaaa" fill="#faaaaa" fill-opacity="0.2" fill-rule="evenodd"/><path class="svg-region-AAB" d="M 953 403 C 952.151 403.549, 942.076 403.976, 929.780 403.985 C 906.422 404.001, 891.879 405.521, 879.500 409.238 C 875.650 410.394, 868.450 412.099, 863.500 413.028 C 836.205 418.146, 828.298 419.780, 820.500 421.912 C 818.850 422.363, 812.176 425.268, 805.670 428.366 C 799.163 431.465, 793.403 434, 792.870 434 C 792.337 434, 790.461 434.746, 788.700 435.659 C 786.940 436.571, 784.150 437.665, 782.500 438.090 C 776.604 439.609, 765.667 443.855, 761.500 446.243 C 760.400 446.873, 757.250 448.565, 754.500 450.002 C 732.575 461.459, 724 468.421, 724 474.763 C 724 476.616, 723.513 479.042, 722.917 480.156 C 720.823 484.067, 721.641 490.636, 724.917 496.233 C 729.307 503.730, 730.991 505.455, 736.791 508.394 C 741.129 510.592, 743.259 511, 750.408 511 C 755.069 511, 759.127 510.604, 759.426 510.120 C 759.725 509.636, 762.339 508.466, 765.235 507.520 C 768.131 506.574, 772.525 504.428, 775 502.752 C 781.990 498.018, 787.019 495.431, 793 493.494 C 796.025 492.513, 799.388 491.102, 800.473 490.356 C 801.557 489.610, 803.582 488.990, 804.973 488.977 C 806.363 488.965, 810.404 487.390, 813.954 485.477 C 817.503 483.565, 820.878 481.993, 821.454 481.984 C 822.029 481.976, 826.325 478.587, 831 474.454 C 836.359 469.717, 844.674 463.939, 853.500 458.819 C 874.570 446.597, 875.292 446.224, 879.340 445.464 C 881.407 445.076, 883.761 444.097, 884.570 443.287 C 885.402 442.455, 891.142 440.972, 897.771 439.878 C 904.222 438.812, 913.181 437.279, 917.680 436.470 C 922.178 435.662, 927.471 435, 929.440 435 C 934.114 435, 950.133 438.544, 956.500 440.987 C 959.250 442.042, 964.576 443.845, 968.335 444.993 C 972.094 446.142, 978.169 448.934, 981.835 451.197 C 985.501 453.461, 990.795 456.726, 993.600 458.451 C 996.405 460.177, 1001.130 463.653, 1004.100 466.175 C 1009.958 471.149, 1024.659 481, 1026.224 481 C 1026.756 481, 1028.386 481.818, 1029.846 482.818 C 1031.306 483.817, 1037.295 486.750, 1043.157 489.334 C 1049.018 491.919, 1056.443 495.637, 1059.657 497.598 L 1065.500 501.162 1077 500.754 C 1091.281 500.247, 1097.520 497.979, 1100.828 492.092 C 1102 490.007, 1104.747 487.061, 1106.932 485.547 C 1113.016 481.331, 1114.468 478.519, 1114.446 471 C 1114.419 462.272, 1111.920 457.687, 1104.062 451.955 C 1095.973 446.052, 1083.726 439.439, 1077.381 437.547 C 1074.565 436.707, 1071.699 435.342, 1071.011 434.513 C 1070.323 433.684, 1067.677 432.354, 1065.130 431.557 C 1062.584 430.759, 1056 428.462, 1050.500 426.452 C 1045 424.441, 1038.925 422.364, 1037 421.834 C 1035.075 421.305, 1032.150 420.275, 1030.500 419.546 C 1027.289 418.127, 1022.262 416.500, 1001 409.997 C 993.575 407.726, 986.150 405.392, 984.500 404.811 C 977.524 402.356, 955.920 401.113, 953 403" stroke="#7f3c1a" fill="#7f3c1a" fill-opacity="0.2" fill-rule="evenodd"/><path class="svg-region-APB" d="M 889.882 344.452 C 889.106 345.227, 851.601 348, 841.883 348 C 825.780 348, 803.295 351.029, 797.539 353.974 C 795.360 355.088, 792.966 356, 792.219 356 C 790.611 356, 784.103 360.490, 778.511 365.457 C 776.317 367.406, 774.190 369, 773.785 369 C 773.380 369, 771.575 370.644, 769.774 372.654 C 767.973 374.664, 765.487 377.343, 764.250 378.609 C 763.013 379.874, 762 381.301, 762 381.780 C 762 382.259, 760.875 383.708, 759.500 385 C 758.125 386.292, 757 387.673, 757 388.069 C 757 388.465, 755.683 390.198, 754.074 391.921 C 752.464 393.644, 750.854 396.387, 750.497 398.016 C 750.139 399.644, 749.431 401.234, 748.923 401.548 C 747.169 402.632, 748.009 407.096, 750.464 409.745 L 752.928 412.402 779.714 412.384 C 796.452 412.373, 814.190 411.715, 827 410.630 C 841.490 409.403, 851.604 409.087, 861.500 409.554 C 872.599 410.078, 876.743 409.892, 881.500 408.658 C 893.599 405.517, 901.033 404.740, 926.500 403.953 C 940.800 403.512, 956.775 402.554, 962 401.825 C 972.342 400.383, 1024.576 400.452, 1026.465 401.911 C 1028.787 403.706, 1033.434 404.259, 1053 405.074 C 1064.275 405.544, 1076.102 406.211, 1079.283 406.558 C 1087.653 407.471, 1088.719 406.810, 1085.558 402.665 C 1084.151 400.820, 1083 398.803, 1083 398.181 C 1083 396.958, 1072.973 385.001, 1066.500 378.506 C 1057.897 369.873, 1048.137 362, 1046.038 362 C 1045.337 362, 1043.271 360.689, 1041.446 359.086 C 1038.712 356.686, 1036.927 356.067, 1031.314 355.571 C 1019.904 354.564, 1009.760 353.220, 1004.500 352.019 C 1001.750 351.391, 996.350 350.520, 992.500 350.082 C 988.650 349.645, 980.775 348.568, 975 347.688 C 955.169 344.669, 944.446 343.981, 917.417 343.990 C 902.521 343.996, 890.130 344.203, 889.882 344.452" stroke="#ac7444" fill="#ac7444" fill-opacity="0.2" fill-rule="evenodd"/><path class="svg-region-PC" d="M 881.909 326.506 C 877.183 327.196, 872.458 328.205, 871.409 328.748 C 870.359 329.292, 867.700 330.035, 865.500 330.400 C 863.300 330.765, 859.925 331.675, 858 332.424 C 856.075 333.173, 852.475 334.360, 850 335.063 C 847.525 335.766, 841.814 338.064, 837.310 340.171 C 832.805 342.277, 828.712 344, 828.215 344 C 827.134 344, 823.500 347.854, 824.089 348.375 C 824.783 348.988, 864.858 347.077, 876 345.900 C 891.823 344.228, 940.728 343.601, 952.500 344.919 C 975.577 347.504, 980.652 348.171, 983.500 348.996 C 985.150 349.473, 989.623 350.128, 993.441 350.450 L 1000.382 351.036 998.055 348.558 C 994.902 345.202, 982.159 338.848, 973 336.064 C 968.875 334.810, 964.306 333.158, 962.846 332.392 C 961.386 331.627, 958.645 331, 956.755 331 C 954.864 331, 951.109 330.315, 948.409 329.478 C 936.972 325.932, 928.636 324.999, 909.500 325.127 C 899.050 325.196, 886.634 325.817, 881.909 326.506" stroke="#cda789" fill="#cda789" fill-opacity="0.2" fill-rule="evenodd"/><path class="svg-region-AP" d="M 977.500 496.542 C 974.750 497.268, 970.700 498.549, 968.500 499.387 C 966.300 500.226, 962.198 500.932, 959.385 500.956 C 955.702 500.988, 953.499 501.606, 951.518 503.165 C 949.140 505.035, 946.439 505.516, 931.633 506.708 C 912.317 508.262, 899.541 507.741, 890 505.011 C 879.286 501.945, 868.007 500.131, 859 500.026 C 854.325 499.971, 848.925 499.525, 847 499.034 C 845.075 498.543, 839.563 497.832, 834.750 497.453 C 824.869 496.674, 823.819 497.543, 828.516 502.611 C 830.273 504.508, 830.836 505.955, 830.385 507.413 C 828.700 512.850, 822.280 523.999, 818.254 528.481 C 812.867 534.478, 807.176 546.174, 805.492 554.707 C 804.846 557.984, 799.981 564.808, 792.303 573.207 C 787.413 578.557, 786.883 581.656, 789.989 586.750 C 792.534 590.925, 794 590.883, 794 586.635 C 794 581.815, 797.195 578.316, 803.236 576.522 C 810.104 574.483, 813.865 574.603, 820.468 577.074 C 826.793 579.441, 829.750 582.723, 832.999 590.985 C 836.581 600.092, 835.676 620.736, 831.338 628.899 C 830.052 631.318, 829 634.131, 829 635.149 C 829 636.167, 828.550 637, 828 637 C 827.450 637, 827 637.675, 827 638.500 C 827 639.325, 827.617 640, 828.371 640 C 829.124 640, 833.512 643.917, 838.121 648.705 C 850.977 662.060, 855.235 666.051, 858.500 667.803 C 872.395 675.262, 890.155 679.046, 914.500 679.736 C 925.982 680.062, 936.047 679.797, 942.295 679.005 L 952.091 677.763 962.795 669.931 C 968.683 665.623, 975.443 660.501, 977.818 658.549 C 980.193 656.597, 982.586 655, 983.135 655 C 984.441 655, 989.221 651.323, 995.911 645.173 C 1000.115 641.309, 1001.131 639.811, 1000.538 638.360 C 1000.119 637.337, 999.191 632, 998.475 626.500 C 997.759 621, 996.648 613.145, 996.006 609.044 C 995.364 604.943, 995.099 599.093, 995.418 596.044 C 995.736 592.995, 995.991 588.960, 995.985 587.078 C 995.972 583.099, 998.690 579.733, 1004.196 576.910 C 1006.229 575.867, 1008.254 574.421, 1008.696 573.697 C 1011.178 569.629, 1019.496 567.589, 1023.929 569.962 C 1026.494 571.335, 1028.329 576.414, 1027.639 580.233 C 1027.315 582.030, 1027.528 585.300, 1028.111 587.500 C 1028.694 589.700, 1029.230 592.254, 1029.300 593.177 C 1029.523 596.084, 1030.756 594.258, 1036.960 581.837 C 1042.623 570.497, 1044.107 566, 1042.185 566 C 1040.572 566, 1024 548.165, 1024 546.429 C 1024 545.791, 1023.199 544.197, 1022.220 542.885 C 1021.241 541.573, 1018.901 536.900, 1017.021 532.500 C 1015.140 528.100, 1011.666 520.776, 1009.301 516.226 C 1005.946 509.772, 1005 506.874, 1005 503.057 C 1005 494.861, 1005.185 494.985, 993.143 495.111 C 987.289 495.171, 980.250 495.815, 977.500 496.542" stroke="#fc7143" fill="#fc7143" fill-opacity="0.2" fill-rule="evenodd"/><path class="svg-region-LPl" d="M 799.450 490.877 C 798.928 491.359, 796.025 492.546, 793 493.515 C 787.361 495.320, 779.669 499.169, 777 501.520 C 774.498 503.725, 765.345 508, 763.128 508 C 761.809 508, 759.533 509.922, 756.912 513.250 C 754.638 516.138, 752.184 518.842, 751.458 519.261 C 750.732 519.679, 749.589 522.477, 748.917 525.478 C 747.884 530.095, 747.952 531.969, 749.357 537.662 C 751.113 544.779, 753.260 547.804, 758.983 551.230 C 760.917 552.388, 764.460 554.903, 766.855 556.821 C 771.614 560.629, 786 577.416, 786 579.160 C 786 580.941, 788.581 578.314, 796.388 568.590 C 804.531 558.445, 806 556.071, 806 553.052 C 806 551.909, 806.415 550.191, 806.921 549.236 C 807.428 548.281, 809.083 544.509, 810.599 540.852 C 812.236 536.905, 815.339 532.030, 818.238 528.852 C 822.538 524.139, 831 508.751, 831 505.647 C 831 505.055, 830.116 503.655, 829.036 502.535 C 827.956 501.416, 825.810 499, 824.267 497.167 C 822.504 495.072, 819.439 493.121, 816.019 491.917 C 810.375 489.929, 801.107 489.347, 799.450 490.877" stroke="#d2454f" fill="#d2454f" fill-opacity="0.2" fill-rule="evenodd"/><path class="svg-region-LPr" d="M 1022 485.591 C 1018.975 487.542, 1013.774 490.389, 1010.443 491.919 L 1004.386 494.700 1004.798 501.600 C 1005.209 508.485, 1006.716 513.113, 1010.195 518.179 C 1011.207 519.652, 1013.963 525.332, 1016.319 530.802 C 1018.676 536.272, 1021.368 541.913, 1022.302 543.338 C 1023.236 544.763, 1024 546.303, 1024 546.759 C 1024 547.517, 1025.477 549.239, 1035.410 560.069 C 1037.211 562.033, 1040.023 564.592, 1041.660 565.758 L 1044.636 567.877 1047.244 565.688 C 1048.679 564.485, 1051.123 562.725, 1052.676 561.779 C 1054.229 560.832, 1056.175 559.647, 1057 559.145 C 1057.825 558.643, 1059.717 557.665, 1061.204 556.971 C 1062.692 556.278, 1066.727 553.864, 1070.171 551.606 C 1075.459 548.139, 1077.007 546.411, 1080.119 540.500 C 1086.063 529.208, 1086.492 526.737, 1084.116 517.463 C 1082.998 513.098, 1081.615 509.372, 1081.042 509.181 C 1080.469 508.990, 1080 508.333, 1080 507.721 C 1080 507.110, 1078.791 505.347, 1077.313 503.805 C 1075.128 501.524, 1073.762 501, 1070.004 501 C 1066.528 501, 1063.992 500.163, 1059.773 497.622 C 1055.398 494.988, 1034.130 484.661, 1028.500 482.438 C 1027.950 482.221, 1025.025 483.640, 1022 485.591" stroke="#d2454f" fill="#d2454f" fill-opacity="0.2" fill-rule="evenodd"/><path class="svg-region-Ol" d="M 567 248.052 C 556.816 249.014, 551 250.105, 551 251.052 C 551 251.486, 549.538 252.162, 547.751 252.555 C 545.964 252.947, 543.774 254.108, 542.884 255.134 C 541.994 256.160, 540.600 257, 539.788 257 C 538.975 257, 537.495 257.900, 536.500 259 C 535.505 260.100, 534.163 261, 533.519 261 C 532.875 261, 531.258 262.177, 529.924 263.615 C 528.591 265.053, 523.900 269.067, 519.500 272.535 C 515.100 276.003, 510.769 279.664, 509.875 280.670 C 507.057 283.843, 502.214 288, 501.335 288 C 500.871 288, 498.918 290.008, 496.995 292.462 C 495.073 294.916, 493.178 296.941, 492.784 296.962 C 491.630 297.023, 486 302.836, 486 303.966 C 486 304.535, 485.433 305, 484.741 305 C 484.048 305, 482.908 305.917, 482.208 307.039 C 481.508 308.160, 480.580 308.858, 480.146 308.590 C 479.712 308.322, 478.675 308.867, 477.841 309.801 C 472.989 315.239, 468.544 317.194, 458 318.531 C 454.975 318.915, 452.050 319.499, 451.500 319.830 C 450.950 320.161, 448.255 320.601, 445.511 320.809 C 442.767 321.016, 439.759 321.594, 438.827 322.093 C 437.894 322.592, 435.549 323, 433.615 323 C 426.994 323, 415.375 326.596, 408.770 330.689 C 406.718 331.960, 404.614 333, 404.093 333 C 402.630 333, 389.059 342.216, 381.914 348.061 C 373.152 355.230, 354.556 374.447, 350.766 380.250 C 349.059 382.863, 347.386 385, 347.047 385 C 346.708 385, 345.595 386.462, 344.574 388.250 C 343.553 390.038, 340.888 393.966, 338.652 396.980 C 332.715 404.986, 321.802 425.658, 315.678 440.500 C 308.604 457.647, 297.501 494.822, 294.174 512.500 C 288.740 541.378, 287.713 552.090, 287.606 581 C 287.535 600.117, 287.874 610.488, 288.637 612.500 C 289.263 614.150, 290.550 618.425, 291.498 622 C 292.446 625.575, 293.593 629.400, 294.048 630.500 C 294.502 631.600, 295.178 633.625, 295.548 635 C 295.919 636.375, 296.838 638.850, 297.590 640.500 C 298.341 642.150, 300.050 646.425, 301.387 650 C 308.196 668.207, 312.087 677.412, 315.877 684.277 C 320.913 693.400, 331.611 706.997, 338.630 713.197 C 345.063 718.878, 356.388 727, 357.877 727 C 358.495 727, 359 727.386, 359 727.858 C 359 728.330, 361.138 729.852, 363.750 731.241 C 366.363 732.630, 372.775 736.037, 378 738.813 C 383.225 741.589, 389.939 744.815, 392.919 745.982 C 395.900 747.149, 400.263 748.981, 402.615 750.052 C 404.966 751.123, 407.432 752, 408.095 752 C 408.758 752, 411.820 753.181, 414.900 754.624 C 424.548 759.145, 426.416 759.912, 429.500 760.615 C 431.150 760.991, 433.388 761.906, 434.473 762.649 C 435.557 763.392, 437.096 764, 437.893 764 C 438.689 764, 442.301 765.306, 445.920 766.901 C 458.938 772.641, 475.877 776.994, 485.299 777.020 C 489.259 777.031, 495.425 777.473, 499 778.002 C 508.313 779.380, 527.818 776.837, 545 772.006 C 548.575 771, 552.625 769.962, 554 769.697 C 555.375 769.433, 558.750 768.308, 561.500 767.198 C 564.250 766.087, 571 763.491, 576.500 761.429 C 582 759.368, 588.834 756.627, 591.686 755.340 C 594.538 754.053, 597.183 753, 597.563 753 C 597.943 753, 601.235 751.598, 604.877 749.885 C 614.501 745.358, 614.372 745.404, 628 741.606 C 655.550 733.929, 679.720 723.142, 694.780 711.803 C 702.161 706.245, 716.936 691.233, 716.975 689.250 C 716.989 688.563, 717.416 688, 717.924 688 C 718.433 688, 720.335 685.075, 722.151 681.500 C 723.967 677.925, 725.801 675, 726.226 675 C 726.652 675, 727 674.326, 727 673.502 C 727 672.679, 728.580 669.805, 730.512 667.116 C 732.665 664.120, 733.785 661.603, 733.405 660.614 C 733.065 659.726, 733.226 659, 733.763 659 C 734.300 659, 735.297 656.862, 735.979 654.250 C 736.660 651.638, 737.869 648.028, 738.665 646.230 C 739.925 643.383, 741.243 638.179, 743.661 626.500 C 744.002 624.850, 744.689 622.703, 745.187 621.729 C 745.685 620.755, 745.734 619.405, 745.296 618.729 C 744.858 618.053, 744.438 612.325, 744.363 606 C 744.002 575.682, 743.042 549.601, 742.004 541.946 C 740.285 529.265, 735.747 517.086, 728.985 507 C 727.325 504.525, 725.030 501.038, 723.885 499.250 C 722.578 497.210, 720.989 496, 719.617 496 C 717.424 496, 706.810 492.695, 704 491.137 C 703.175 490.680, 700.025 489.746, 697 489.062 C 693.975 488.378, 689.830 487.343, 687.789 486.762 C 681.988 485.111, 670.680 486.554, 665.166 489.648 C 662.600 491.089, 657.350 492.912, 653.500 493.701 C 646.774 495.080, 631.399 502.702, 623.500 508.573 C 619.667 511.423, 613.435 514, 610.378 514 C 609.070 514, 608 514.450, 608 515 C 608 515.550, 606.902 516, 605.559 516 C 604.216 516, 602.840 516.450, 602.500 517 C 602.160 517.550, 601.059 518, 600.053 518 C 597.602 518, 588.715 524.169, 582.256 530.354 C 575.231 537.080, 569.063 539.979, 561.750 539.991 C 557.301 539.998, 556 539.660, 556 538.500 C 556 537.675, 555.606 537, 555.125 537 C 554.644 537, 553.983 535.665, 553.657 534.034 C 553.309 532.295, 550.569 528.471, 547.032 524.788 C 540.156 517.629, 539.346 514.425, 543.500 510.813 C 546.523 508.185, 546.626 506.877, 544 504.500 C 542.678 503.304, 542 501.420, 542 498.945 C 542 495.268, 542.093 495.177, 547.095 493.977 L 552.190 492.755 551.536 488.389 C 550.977 484.663, 551.256 483.531, 553.440 480.667 C 555.459 478.021, 556 476.165, 556 471.893 C 556 467.049, 555.476 465.701, 551.054 459.178 C 548.333 455.165, 545.345 449.321, 544.414 446.191 C 541.987 438.038, 542.488 420.757, 545.550 407 C 546.468 402.875, 547.546 397.890, 547.944 395.923 C 548.342 393.956, 549.012 391.790, 549.431 391.111 C 551.145 388.339, 554 371.168, 554 363.638 C 554 352.052, 556.714 345.395, 564.706 337.380 C 571.088 330.980, 577.978 325.780, 581.500 324.705 C 582.600 324.369, 585.975 323.188, 589 322.080 C 592.433 320.823, 597.044 320.053, 601.269 320.033 L 608.038 320 607.371 317.250 C 607.004 315.738, 605.420 313.335, 603.852 311.911 C 602.283 310.487, 601 308.992, 601 308.589 C 601 308.187, 600.438 307.230, 599.750 306.463 C 597.181 303.599, 596 302.071, 596 301.612 C 596 301.352, 594.558 298.071, 592.795 294.320 C 591.032 290.569, 589.699 287.110, 589.833 286.634 C 589.967 286.158, 589.355 283.877, 588.472 281.565 C 587.386 278.721, 586.807 273.607, 586.683 265.759 C 586.515 255.121, 586.307 253.952, 584.171 251.681 C 582.890 250.318, 580.865 248.990, 579.671 248.730 C 578.477 248.470, 576.825 248.052, 576 247.800 C 575.175 247.549, 571.125 247.663, 567 248.052" stroke="#aa444d" fill="#aa444d" fill-opacity="0.2" fill-rule="evenodd"/><path class="svg-region-Or" d="M 1286.360 258.026 C 1283.128 259.304, 1279.546 261.847, 1276.712 264.876 C 1270.200 271.839, 1269.154 277.767, 1270.342 301 C 1271.746 328.462, 1271.643 327.954, 1276.701 332.483 C 1284.335 339.317, 1286.964 345.895, 1286.985 358.219 C 1287.001 367.336, 1288.312 371.398, 1293.537 378.522 C 1297.267 383.607, 1301.154 399.603, 1300.527 407.290 C 1300.322 409.804, 1299.220 413.975, 1298.077 416.558 C 1296.935 419.141, 1296 421.842, 1296 422.560 C 1296 423.279, 1293.855 426.068, 1291.234 428.760 C 1286.156 433.974, 1279.584 436.980, 1274.095 436.600 C 1270.437 436.346, 1270.331 436.659, 1273.086 439.591 C 1274.743 441.355, 1274.954 442.217, 1274.115 443.785 C 1273.534 444.871, 1271.963 449.115, 1270.624 453.216 C 1269.286 457.316, 1266.595 463.840, 1264.645 467.713 L 1261.099 474.754 1250.299 475.454 C 1242.678 475.948, 1238.239 476.751, 1235.214 478.183 C 1231.781 479.809, 1230.389 480.005, 1228.214 479.165 C 1226.721 478.589, 1222.892 477.565, 1219.704 476.890 C 1216.517 476.214, 1213.678 475.288, 1213.395 474.831 C 1213.113 474.374, 1208.669 474, 1203.520 474 C 1197.481 474, 1191.024 473.255, 1185.329 471.901 C 1177.533 470.047, 1174.277 469.852, 1157.500 470.230 C 1142.891 470.559, 1137.344 471.060, 1133.500 472.398 C 1125.809 475.073, 1120.211 477.809, 1119.314 479.329 C 1118.866 480.088, 1117.560 481.201, 1116.411 481.803 C 1110.160 485.079, 1102.011 493.566, 1101.956 496.856 C 1101.932 498.310, 1101.304 501.205, 1100.561 503.288 C 1099.408 506.520, 1099.430 507.914, 1100.708 512.788 C 1101.657 516.404, 1101.979 520.335, 1101.587 523.500 C 1099.503 540.307, 1099.111 556.428, 1100.555 566 C 1103.393 584.821, 1104.074 589.713, 1104.524 594.500 C 1104.782 597.250, 1105.379 600.400, 1105.849 601.500 C 1106.320 602.600, 1107.728 607.759, 1108.978 612.964 C 1110.229 618.170, 1113.080 626.045, 1115.315 630.464 C 1120.854 641.418, 1131.049 659.175, 1132.825 660.960 C 1133.624 661.764, 1134.896 663.901, 1135.652 665.710 C 1136.408 667.520, 1137.475 669, 1138.023 669 C 1138.570 669, 1140.317 670.237, 1141.905 671.750 C 1149.103 678.608, 1151.918 680.634, 1159.012 684.065 C 1163.183 686.082, 1169.949 688.734, 1174.047 689.958 C 1178.146 691.182, 1182.496 692.576, 1183.714 693.054 C 1184.932 693.533, 1191.457 694.627, 1198.214 695.486 C 1204.971 696.345, 1213.495 697.937, 1217.155 699.024 C 1220.816 700.111, 1224.547 701, 1225.446 701 C 1227.057 701, 1234.719 703.257, 1246.500 707.201 C 1249.800 708.306, 1258.125 711.603, 1265 714.526 C 1271.875 717.450, 1282.900 721.974, 1289.500 724.580 C 1301.545 729.336, 1311.052 734.069, 1318.500 739.018 C 1320.700 740.479, 1325.875 743.144, 1330 744.939 C 1334.125 746.734, 1338.305 748.622, 1339.289 749.134 C 1344.775 751.991, 1381.898 752.706, 1382.833 749.973 C 1383.017 749.438, 1384.245 749, 1385.562 749 C 1388.249 749, 1399.654 745.644, 1405 743.281 C 1406.925 742.430, 1413.675 739.589, 1420 736.968 C 1437.306 729.795, 1448.215 724.861, 1451 722.947 C 1452.375 722.002, 1459.472 717.690, 1466.772 713.364 C 1488.127 700.710, 1495.966 695.439, 1506.122 686.905 C 1510.314 683.382, 1515.239 679.375, 1517.065 678 C 1521.401 674.736, 1534.539 661.471, 1537.864 657 C 1539.296 655.075, 1542.121 651.475, 1544.144 649 C 1550.844 640.799, 1561.312 621.234, 1565.009 610 C 1570.676 592.780, 1572.436 579.916, 1572.395 556 C 1572.363 536.943, 1569.974 510.891, 1568.042 508.541 C 1567.572 507.968, 1566.896 505.250, 1566.541 502.500 C 1564.822 489.207, 1563.446 482.119, 1559.358 465.500 C 1556.923 455.600, 1554.091 444.575, 1553.065 441 C 1552.039 437.425, 1550.986 433.375, 1550.724 432 C 1549.471 425.418, 1538.456 389.277, 1535.333 381.500 C 1534.449 379.300, 1532.888 375.592, 1531.863 373.261 C 1530.838 370.929, 1530 368.806, 1530 368.543 C 1530 367.222, 1518.827 345.799, 1514.155 338.160 C 1509.693 330.865, 1492.648 311.752, 1485.373 305.887 C 1473.208 296.078, 1461.435 289.910, 1450.370 287.546 C 1446.042 286.622, 1438.341 284.770, 1433.257 283.433 C 1428.173 282.095, 1422.609 281, 1420.891 281 C 1419.174 281, 1415.683 280.345, 1413.134 279.544 C 1410.585 278.743, 1403.550 277.152, 1397.500 276.009 C 1376.901 272.114, 1365.630 268.890, 1353.500 263.422 C 1339.051 256.908, 1337.903 256.702, 1314 256.337 C 1293.266 256.021, 1291.097 256.154, 1286.360 258.026" stroke="#aa444d" fill="#aa444d" fill-opacity="0.2" fill-rule="evenodd"/><path class="svg-region-Pl" d="M 587 322.602 C 575.007 327.300, 573.618 328.234, 564 338.069 C 556.609 345.627, 554.327 351.901, 553.660 366.500 C 553.351 373.242, 552.336 380.403, 551.037 385 C 546.938 399.504, 544.008 412.937, 543.405 420 C 541.750 439.362, 543.601 449.529, 550.401 458.438 C 556.171 465.997, 561.903 469.303, 569.884 469.673 C 577.617 470.032, 580.312 469.277, 592.760 463.264 C 600.133 459.704, 603.125 457.572, 607.434 452.810 C 612.459 447.257, 618 437.713, 618 434.612 C 618 433.878, 620.025 431.103, 622.500 428.445 C 624.975 425.788, 627 423.290, 627 422.895 C 627 422.501, 628.237 421.120, 629.750 419.826 C 632.525 417.454, 640.789 406.465, 644.660 400 C 647.463 395.318, 648.763 388.736, 649.520 375.387 C 650.237 362.761, 649.365 358.135, 645.265 352.797 C 641.525 347.928, 629.462 337.767, 624.323 335.156 C 622.025 333.989, 619.888 332.222, 619.573 331.230 C 619.258 330.239, 616.997 327.306, 614.548 324.714 L 610.096 320 601.798 320.028 C 595.323 320.050, 592.072 320.616, 587 322.602" stroke="#f9d3d3" fill="#f9d3d3" fill-opacity="0.2" fill-rule="evenodd"/><path class="svg-region-Pr" d="M 1226.982 315.376 C 1222.847 316.544, 1217.897 318.686, 1215.982 320.136 C 1214.067 321.585, 1210.560 323.746, 1208.189 324.937 C 1200.851 328.623, 1187.373 337.924, 1189.290 337.978 C 1189.724 337.990, 1191.844 337.100, 1194 336 C 1198.415 333.748, 1203.008 333.408, 1204.800 335.200 C 1205.460 335.860, 1206 338.426, 1206 340.902 C 1206 344.460, 1205.406 346.044, 1203.170 348.452 C 1201.491 350.260, 1199.295 354.755, 1197.772 359.500 C 1196.359 363.900, 1194.054 370.094, 1192.650 373.265 C 1190.518 378.079, 1189.593 379.131, 1187.048 379.640 C 1181.566 380.737, 1183.524 386.462, 1192.169 394.612 C 1221.946 422.686, 1227.224 426.756, 1236 428.415 C 1237.925 428.779, 1241.300 429.503, 1243.500 430.025 C 1275.123 437.515, 1275.443 437.554, 1282.581 434.884 C 1290.064 432.084, 1294.796 426.433, 1298.267 416.151 C 1299.770 411.697, 1301 406.698, 1301 405.041 C 1301 399.553, 1296.519 382.345, 1294.480 380 C 1293.762 379.175, 1291.785 375.812, 1290.087 372.528 C 1287.352 367.235, 1286.998 365.584, 1286.985 358.028 C 1286.964 346.287, 1284.318 339.393, 1277.351 332.925 C 1275.233 330.959, 1272.001 327.697, 1270.169 325.675 C 1268.337 323.654, 1266.341 322, 1265.733 322 C 1265.126 322, 1263.700 321.141, 1262.564 320.091 C 1259.367 317.134, 1245.752 312.981, 1239.729 313.126 C 1236.853 313.195, 1231.117 314.207, 1226.982 315.376" stroke="#f9d3d3" fill="#f9d3d3" fill-opacity="0.2" fill-rule="evenodd"/><path class="svg-region-DLr" d="M 1191 337.638 C 1178.177 344.771, 1177.192 346.427, 1177.076 361.079 C 1177.004 370.197, 1177.150 370.884, 1180.130 375.382 C 1182.884 379.540, 1183.634 380.071, 1186.380 379.804 C 1188.897 379.559, 1189.887 378.721, 1191.500 375.470 C 1195.234 367.946, 1198.533 359.239, 1199.486 354.391 C 1199.822 352.680, 1201.425 350.009, 1203.049 348.453 C 1205.482 346.122, 1206 344.816, 1206 341.013 C 1206 338.476, 1205.460 335.860, 1204.800 335.200 C 1202.659 333.059, 1197.639 333.945, 1191 337.638" stroke="#b7d6d3" fill="#b7d6d3" fill-opacity="0.2" fill-rule="evenodd"/><path class="svg-region-OABl" d="M 644 350.540 C 644 350.838, 644.932 352.341, 646.071 353.882 C 649.195 358.108, 650.193 364.402, 649.497 375.500 C 648.541 390.738, 647.311 395.738, 642.792 402.750 C 640.577 406.188, 638.368 409, 637.883 409 C 637.397 409, 637 409.593, 637 410.318 C 637 411.043, 632.898 416.330, 627.885 422.068 C 622.872 427.806, 618.372 433.542, 617.885 434.815 C 616.092 439.506, 616.845 442.657, 620.535 445.896 C 623.820 448.781, 624.602 449, 631.610 449 C 638.570 449, 639.319 448.794, 641.326 446.333 C 642.522 444.866, 645.188 441.888, 647.250 439.715 C 649.313 437.542, 651 435.129, 651 434.351 C 651 433.573, 651.651 432.687, 652.447 432.382 C 653.247 432.075, 654.417 429.294, 655.063 426.163 C 656.072 421.280, 657.024 419.714, 661.983 414.790 C 665.146 411.650, 668.525 407.412, 669.493 405.374 C 671.100 401.988, 673.075 399.785, 681.711 391.750 C 683.337 390.238, 685.215 389, 685.884 389 C 686.554 389, 687.768 387.405, 688.583 385.456 C 689.397 383.508, 690.836 381.642, 691.782 381.312 C 694.632 380.314, 696.954 376.697, 696.978 373.219 C 696.990 371.412, 696.438 369.795, 695.750 369.621 C 695.063 369.448, 691.207 368.256, 687.183 366.974 C 681.368 365.121, 679.567 364.063, 678.407 361.821 C 677.279 359.639, 676.241 359, 673.821 359 C 670.616 359, 661.584 355.206, 656.846 351.869 C 654.399 350.146, 644 349.070, 644 350.540 M 740.146 409.156 C 736.651 409.656, 733.131 410.726, 732.324 411.533 C 731.517 412.340, 730.252 413, 729.513 413 C 728.774 413, 726.894 414.394, 725.335 416.097 C 723.776 417.801, 720.555 421.266, 718.178 423.798 C 713.188 429.112, 712 431.062, 712 433.938 C 712 435.076, 711.100 437.686, 710 439.739 C 708.900 441.791, 708 444.649, 708 446.090 C 708 447.737, 706.794 449.869, 704.750 451.834 C 699.726 456.665, 695.647 460.345, 692.906 462.517 C 688.639 465.900, 681.227 475.688, 680.531 478.861 C 679.665 482.804, 681.261 485.635, 684.722 486.294 C 693.022 487.875, 701.859 490.147, 704.500 491.380 C 709.087 493.521, 717.247 496.010, 719.658 496.005 C 721.672 496, 721.808 495.536, 721.708 489 C 721.642 484.751, 722.071 481.529, 722.800 480.800 C 723.460 480.140, 724 477.754, 724 475.497 C 724 468.337, 731.649 461.943, 754.500 450.002 C 757.250 448.565, 760.400 446.867, 761.500 446.229 C 764.716 444.366, 772.788 441, 774.044 441 C 774.679 441, 776.616 440.399, 778.349 439.665 C 780.082 438.930, 783.075 437.763, 785 437.072 C 794.521 433.651, 804.717 429.263, 812.154 425.384 C 816.721 423.003, 829.362 419.016, 832.500 418.968 C 834.150 418.942, 839.550 418.031, 844.500 416.943 C 849.450 415.854, 858.165 414.095, 863.866 413.033 C 869.567 411.971, 874.418 410.915, 874.646 410.687 C 874.874 410.459, 869.084 409.959, 861.780 409.575 C 852.363 409.081, 842.245 409.387, 827 410.630 C 813.711 411.713, 795.422 412.381, 779.113 412.380 C 753.172 412.379, 752.695 412.342, 750.952 410.189 C 749.977 408.985, 748.577 408.056, 747.840 408.123 C 747.103 408.191, 743.641 408.656, 740.146 409.156" stroke="#81244d" fill="#81244d" fill-opacity="0.2" fill-rule="evenodd"/><path class="svg-region-OABr" d="M 969.500 400.841 L 966.500 401.585 969.875 402.292 C 971.731 402.682, 974.894 403, 976.902 403 C 978.911 403, 981.443 403.619, 982.527 404.375 C 983.612 405.131, 986.512 406.087, 988.971 406.500 C 991.431 406.913, 997.056 408.494, 1001.471 410.014 C 1005.887 411.535, 1013.550 414.008, 1018.500 415.512 C 1023.450 417.015, 1028.850 418.836, 1030.500 419.559 C 1032.150 420.281, 1035.075 421.305, 1037 421.834 C 1038.925 422.364, 1045 424.447, 1050.500 426.463 C 1056 428.480, 1062.075 430.602, 1064 431.178 C 1065.925 431.755, 1068.770 433.130, 1070.322 434.233 C 1071.875 435.337, 1075.177 436.851, 1077.661 437.598 C 1082.108 438.937, 1094.633 445.444, 1100.500 449.464 C 1111.460 456.974, 1113.965 460.690, 1114.762 470.625 C 1115.389 478.431, 1117.296 479.728, 1123.435 476.522 C 1132.736 471.664, 1137.638 470.752, 1157 470.275 C 1172.383 469.895, 1176.764 470.118, 1183 471.596 C 1187.125 472.573, 1195.442 473.544, 1201.482 473.753 C 1207.522 473.962, 1212.697 474.501, 1212.982 474.950 C 1213.532 475.818, 1226.788 479.039, 1231 479.328 C 1233.020 479.467, 1233.559 478.986, 1233.809 476.826 C 1234.500 470.848, 1228.409 465.474, 1210.098 455.907 C 1206.315 453.931, 1201.259 450.734, 1198.860 448.802 C 1193.477 444.465, 1183.814 440.017, 1179.629 439.950 C 1172.468 439.836, 1152.954 436.411, 1151.279 434.974 C 1148.268 432.392, 1143.747 431.017, 1138 430.934 C 1127.187 430.778, 1123.550 429.247, 1115.174 421.324 C 1109.943 416.377, 1105.818 413.419, 1102.218 412.035 C 1099.313 410.918, 1095.793 409.255, 1094.395 408.339 C 1092.641 407.190, 1089.170 406.581, 1083.177 406.372 C 1040.127 404.871, 1029.195 404.016, 1026.500 401.941 C 1025.151 400.903, 973.288 399.902, 969.500 400.841" stroke="#81244d" fill="#81244d" fill-opacity="0.2" fill-rule="evenodd"/><path class="svg-region-BPCl" d="M 802.500 576.574 C 796.408 578.757, 794 582.085, 794 588.321 C 794 594.241, 795.625 597.785, 802.749 607.405 C 812.494 620.563, 826.594 637, 828.137 637 C 828.612 637, 829 636.167, 829 635.149 C 829 634.131, 830.051 631.318, 831.335 628.899 C 835.477 621.096, 836.625 599.931, 833.380 591.197 C 830.585 583.677, 826.657 579.389, 820.424 577.057 C 814.091 574.688, 808.207 574.529, 802.500 576.574" stroke="#83385f" fill="#83385f" fill-opacity="0.2" fill-rule="evenodd"/><path class="svg-region-BPCr" d="M 1011.973 570.690 C 1010.613 571.619, 1009.138 572.973, 1008.695 573.699 C 1008.252 574.425, 1006.337 575.668, 1004.439 576.461 C 999.107 578.689, 995.858 582.845, 996.410 586.732 C 996.662 588.509, 996.448 590.223, 995.934 590.541 C 994.760 591.267, 994.845 603.715, 996.074 611 C 996.585 614.025, 997.629 621.079, 998.396 626.675 C 999.945 637.987, 1000.319 639, 1002.944 639 C 1004.969 639, 1007.093 636.182, 1008.781 631.253 C 1009.393 629.467, 1011.006 626.542, 1012.364 624.753 C 1013.723 622.964, 1015.739 619.109, 1016.845 616.186 C 1017.952 613.263, 1020.689 608.445, 1022.928 605.479 C 1025.168 602.513, 1027 599.601, 1027 599.008 C 1027 598.415, 1027.707 596.851, 1028.571 595.532 C 1029.867 593.554, 1029.925 592.728, 1028.902 590.817 C 1028.220 589.543, 1027.705 585.631, 1027.758 582.123 C 1027.857 575.538, 1026.753 571.099, 1024.687 569.786 C 1022.492 568.390, 1014.507 568.957, 1011.973 570.690" stroke="#83385f" fill="#83385f" fill-opacity="0.2" fill-rule="evenodd"/><path class="svg-region-OVl" d="M 778.266 327.430 C 776.576 328.852, 773.012 330.432, 770.347 330.940 C 767.681 331.449, 764.503 332.238, 763.285 332.692 C 760.811 333.615, 750.126 341.023, 740.845 348.250 C 734.177 353.442, 731.591 353.980, 725.511 351.440 C 721.933 349.945, 721.628 349.979, 718.139 352.269 C 716.138 353.583, 710.225 356.597, 705 358.967 C 696.114 362.998, 691 366.337, 691 368.108 C 691 368.525, 692.237 369.010, 693.750 369.184 C 695.953 369.437, 696.566 370.079, 696.832 372.412 C 697.250 376.080, 695.217 379.967, 692.299 381.076 C 691.066 381.545, 689.392 383.520, 688.579 385.465 C 687.767 387.409, 686.430 389, 685.608 389 C 684.786 389, 683.525 389.808, 682.807 390.796 C 682.088 391.783, 679.813 393.620, 677.750 394.877 C 675.688 396.134, 674 397.753, 674 398.475 C 674 399.196, 673.346 400.037, 672.548 400.343 C 671.749 400.650, 670.201 402.864, 669.107 405.264 C 668.014 407.664, 664.666 412.012, 661.668 414.927 C 656.915 419.546, 656.070 420.968, 655.076 426.018 C 654.423 429.339, 653.310 432.051, 652.468 432.374 C 651.661 432.684, 651 433.573, 651 434.351 C 651 435.129, 649.313 437.542, 647.250 439.715 C 645.188 441.888, 642.522 444.866, 641.326 446.333 C 639.321 448.792, 638.567 449, 631.652 449 C 624.986 449, 623.801 448.704, 620.982 446.332 C 619.238 444.864, 617.467 442.733, 617.046 441.596 C 616.361 439.743, 616.064 439.954, 614.188 443.632 C 610.668 450.532, 602.744 458.335, 595.818 461.721 C 581.290 468.825, 579.554 469.421, 572.645 469.681 C 565.804 469.938, 561.987 468.889, 557.361 465.480 C 555.225 463.906, 555.223 463.911, 555.711 470.202 C 556.146 475.811, 555.910 476.923, 553.555 480.360 C 551.345 483.586, 551.014 484.908, 551.537 488.400 L 552.164 492.580 547.082 493.882 L 542 495.185 542 499.352 C 542 502.436, 542.520 503.844, 544 504.768 C 546.666 506.433, 546.521 508.186, 543.500 510.813 C 539.557 514.242, 540.114 518.357, 545.126 522.823 C 549.625 526.832, 554 533.072, 554 535.480 C 554 536.316, 554.450 537, 555 537 C 555.550 537, 556 537.675, 556 538.500 C 556 539.661, 557.301 539.998, 561.750 539.990 C 569.102 539.978, 575.801 536.868, 582.500 530.359 C 588.277 524.745, 593.237 521.026, 597.500 519.113 C 599.150 518.373, 601.281 517.369, 602.236 516.883 C 603.191 516.397, 604.879 516, 605.986 516 C 607.094 516, 608 515.550, 608 515 C 608 514.450, 609.070 514, 610.378 514 C 613.413 514, 619.640 511.436, 623.500 508.596 C 626.536 506.363, 631.009 503.725, 641 498.274 C 644.025 496.623, 649.650 494.673, 653.500 493.941 C 657.350 493.208, 662.263 491.518, 664.418 490.186 C 666.573 488.853, 671.200 487.272, 674.701 486.673 C 680.905 485.610, 681.052 485.514, 680.477 482.895 C 679.205 477.104, 682.529 472.845, 704.750 451.789 C 706.725 449.917, 708 447.730, 708 446.214 C 708 444.842, 708.855 441.870, 709.900 439.610 C 710.945 437.349, 712.305 433.615, 712.922 431.310 C 713.637 428.641, 714.762 426.893, 716.022 426.493 C 717.110 426.148, 718 425.467, 718 424.979 C 718 423.283, 727.141 414.184, 730.060 412.975 C 731.677 412.305, 733 411.394, 733 410.951 C 733 410.507, 735.587 409.850, 738.750 409.490 C 746.824 408.572, 748 408.123, 748 405.961 C 748 403.229, 752.378 393.891, 754.877 391.292 C 756.045 390.077, 757 388.693, 757 388.216 C 757 387.739, 758.125 386.292, 759.500 385 C 760.875 383.708, 762 382.278, 762 381.822 C 762 381.366, 764.022 378.857, 766.494 376.246 C 768.966 373.636, 770.991 371.163, 770.994 370.750 C 770.997 370.337, 771.563 369.993, 772.250 369.984 C 772.938 369.975, 774.910 368.738, 776.634 367.234 C 778.358 365.730, 781.058 363.392, 782.634 362.038 C 786.134 359.032, 793.885 355.010, 796.191 355.004 C 797.121 355.002, 798.156 354.557, 798.490 354.016 C 798.825 353.475, 801.214 352.381, 803.799 351.586 C 807.251 350.523, 807.816 350.121, 805.924 350.070 C 801.943 349.962, 798.648 345.847, 799.311 341.811 C 799.893 338.270, 801.395 331.961, 802.553 328.197 C 803.217 326.036, 802.991 325.894, 798.880 325.891 C 796.471 325.889, 791.539 325.653, 787.919 325.366 C 781.906 324.889, 781.073 325.067, 778.266 327.430" stroke="#593939" fill="#593939" fill-opacity="0.2" fill-rule="evenodd"/><path class="svg-region-OVr" d="M 1028 332.249 C 1028 333.090, 1027.137 334.841, 1026.081 336.139 C 1024.561 338.009, 1024.278 339.488, 1024.720 343.250 C 1025.248 347.740, 1025.075 348.193, 1021.568 351.500 L 1017.858 355 1023.880 355 C 1032.577 355, 1039.374 356.704, 1042.054 359.557 C 1043.316 360.901, 1044.998 362, 1045.792 362 C 1046.586 362, 1048.705 363.238, 1050.500 364.750 C 1052.295 366.262, 1056.319 369.525, 1059.442 372 C 1066.720 377.768, 1078.397 391.231, 1084.316 400.679 C 1086.422 404.040, 1088.458 405.573, 1094.717 408.508 C 1107.448 414.477, 1108.616 415.227, 1115.370 421.774 C 1122.630 428.812, 1127.722 430.971, 1137.101 430.989 C 1143.307 431.001, 1148.538 432.492, 1151.254 435.022 C 1152.919 436.573, 1159.729 437.813, 1178.500 439.980 C 1186.128 440.860, 1193.411 444.286, 1201.346 450.723 C 1202.911 451.993, 1206.736 454.262, 1209.846 455.765 C 1212.956 457.268, 1215.950 458.865, 1216.500 459.315 C 1217.050 459.764, 1219.869 461.465, 1222.764 463.094 C 1228.274 466.195, 1234 472.908, 1234 476.267 C 1234 477.848, 1234.441 478.095, 1236.250 477.530 C 1237.487 477.143, 1243.587 476.303, 1249.804 475.663 L 1261.108 474.500 1264.542 468.070 C 1266.430 464.533, 1269.265 457.783, 1270.843 453.070 C 1272.420 448.356, 1273.988 443.825, 1274.327 443 C 1274.682 442.138, 1273.928 440.347, 1272.554 438.790 C 1270.571 436.540, 1267.897 435.543, 1256.832 432.924 C 1249.499 431.188, 1241.384 429.401, 1238.797 428.952 C 1228.871 427.229, 1223.230 423.464, 1204.461 406.036 C 1200.589 402.441, 1195.227 397.476, 1192.545 395.002 C 1187.187 390.060, 1184.010 385.481, 1184.004 382.695 C 1183.997 379.255, 1176.342 369.529, 1170.367 365.369 C 1161.090 358.911, 1160.559 358.744, 1149.879 358.928 C 1142.707 359.051, 1139.463 358.701, 1137.789 357.622 C 1136.530 356.810, 1131.795 355.831, 1127.266 355.446 C 1122.271 355.020, 1118.585 354.205, 1117.894 353.372 C 1117.268 352.618, 1116.283 352, 1115.706 352 C 1115.129 352, 1113.807 351.230, 1112.768 350.290 C 1111.294 348.956, 1110.705 348.860, 1110.092 349.852 C 1109.472 350.854, 1108.007 350.687, 1103.184 349.062 C 1099.818 347.928, 1096.577 347, 1095.983 347 C 1095.389 347, 1093.238 346.204, 1091.202 345.230 C 1089.166 344.257, 1085.025 342.694, 1082 341.758 C 1066.511 336.961, 1061.831 336, 1053.963 336 C 1047.388 336, 1045.063 335.584, 1042.386 333.930 C 1037.994 331.215, 1028 330.048, 1028 332.249" stroke="#593939" fill="#593939" fill-opacity="0.2" fill-rule="evenodd"/>
    </svg>