<svg xmlns="http://www.w3.org/2000/svg" width="1921" height="1027" viewBox="0 0 1921 1027" version="1.1">
    <path class="svg-region-V" d="M 845.554 158.780 C 845.273 159.060, 831.422 159.405, 814.772 159.546 C 790.137 159.755, 783.476 160.109, 779 161.446 C 775.975 162.350, 772.600 163.274, 771.500 163.499 C 770.400 163.725, 767.700 164.585, 765.500 165.411 C 763.300 166.237, 760.015 166.932, 758.200 166.956 C 756.386 166.980, 753.686 167.609, 752.200 168.354 C 750.715 169.099, 747.288 170.249, 744.584 170.910 C 738.335 172.438, 710.093 187.423, 708.449 190.082 C 708.091 190.661, 704.357 193.669, 700.149 196.766 C 689.665 204.484, 664.790 229.988, 659.770 238.164 C 658.819 239.714, 655.048 243.123, 651.391 245.741 C 643.549 251.354, 641.044 255.953, 640.256 266.183 C 639.682 273.633, 642.410 286.412, 646.501 295.440 C 647.762 298.223, 649.802 302.829, 651.033 305.675 C 652.264 308.521, 655.123 312.654, 657.386 314.859 C 661.439 318.807, 680.881 329.242, 686.652 330.566 C 688.218 330.925, 691.428 331.845, 693.785 332.610 C 699.443 334.446, 713.352 334.382, 719.720 332.490 C 722.516 331.660, 727.661 328.961, 731.152 326.493 C 734.643 324.025, 739.525 320.917, 742 319.586 C 747.683 316.528, 754.760 309.260, 759.682 301.422 C 769.997 285.001, 774.744 279.745, 784.669 273.754 C 788.994 271.144, 794.775 268.381, 797.516 267.615 C 800.257 266.849, 804.975 265.530, 808 264.685 C 816.016 262.445, 819 261.181, 819 260.025 C 819 259.461, 819.794 259, 820.765 259 C 821.736 259, 825.373 257.613, 828.848 255.918 C 839.366 250.786, 845.723 249, 853.469 249 C 861.076 249, 867.730 251.404, 874.576 256.626 C 878.877 259.906, 887.681 271.545, 892.096 279.787 L 895.692 286.500 901.846 286.798 C 905.658 286.982, 908 286.697, 908 286.048 C 908 285.471, 908.510 285, 909.133 285 C 910.292 285, 912.419 282.843, 916.582 277.447 C 917.877 275.768, 919.455 271.943, 920.089 268.947 C 920.723 265.951, 921.859 262.825, 922.615 262 C 923.371 261.175, 925.130 259.070, 926.523 257.322 C 927.917 255.574, 930.991 253.405, 933.354 252.503 C 937.267 251.008, 938.314 250.997, 945.076 252.375 C 956.307 254.665, 964.366 257.149, 978.579 262.699 C 985.686 265.475, 993.300 268.314, 995.500 269.010 C 998.035 269.811, 1002.252 272.879, 1007.014 277.387 C 1011.146 281.299, 1016.822 286.065, 1019.627 287.979 C 1022.431 289.892, 1025.575 292.655, 1026.613 294.120 C 1035.734 306.994, 1050.355 322.286, 1055.661 324.503 C 1057.632 325.326, 1060.965 326, 1063.069 326 C 1065.242 326, 1068.952 327.094, 1071.660 328.534 C 1079.578 332.744, 1086.419 334.297, 1093.878 333.579 C 1097.520 333.228, 1101.625 332.931, 1103 332.919 C 1107.313 332.881, 1113.617 329.383, 1128.500 318.772 C 1135.617 313.697, 1138.876 308.014, 1139.642 299.339 C 1139.926 296.128, 1141.339 290.800, 1142.783 287.500 C 1144.895 282.673, 1145.487 279.522, 1145.813 271.380 C 1146.284 259.600, 1144.776 252.985, 1139.421 243.338 C 1137.539 239.948, 1135.988 236.573, 1135.972 235.838 C 1135.957 235.102, 1134.392 233.375, 1132.493 232 C 1130.595 230.625, 1128.795 228.769, 1128.493 227.875 C 1128.192 226.982, 1126.015 225.514, 1123.657 224.613 C 1118.698 222.719, 1100.333 209.510, 1097.302 205.657 C 1096.172 204.220, 1094.179 202.575, 1092.874 202.001 C 1089.202 200.387, 1083.658 195.925, 1079.555 191.283 C 1076.369 187.679, 1074.571 186.687, 1067.164 184.452 C 1062.399 183.014, 1056.803 181.199, 1054.730 180.418 C 1052.656 179.638, 1050.129 179, 1049.115 179 C 1048.100 179, 1046.197 178.166, 1044.885 177.147 C 1042.695 175.446, 1039.641 174.149, 1025.500 168.916 C 1022.750 167.898, 1018.840 167.051, 1016.812 167.033 C 1014.784 167.015, 1010.114 166.302, 1006.436 165.449 C 998.550 163.620, 970.247 163.122, 956.708 164.574 C 951.234 165.161, 947.563 165.163, 946.979 164.579 C 946.394 163.994, 945.184 164.059, 943.770 164.750 C 941.280 165.966, 918.267 167.500, 902.500 167.500 C 896.267 167.500, 890.240 166.875, 886.500 165.842 C 878.552 163.646, 869.960 161.939, 862 160.975 C 858.425 160.543, 853.377 159.757, 850.782 159.229 C 848.187 158.702, 845.834 158.499, 845.554 158.780" stroke="#dd8a8a" fill="#dd8a8a" fill-opacity="0.2" fill-rule="evenodd"/><path class="svg-region-SV" d="M 841.500 250.439 C 839.300 251.157, 834.350 253.235, 830.500 255.057 C 826.650 256.878, 822.694 258.450, 821.709 258.550 C 820.723 258.649, 819.373 259.416, 818.709 260.253 C 817.535 261.731, 813.937 263.020, 801.500 266.421 C 789.014 269.836, 776.270 277.840, 770.314 286.008 C 768.513 288.479, 765.883 292.075, 764.471 294 C 763.058 295.925, 760.196 300.200, 758.110 303.500 C 753.725 310.437, 746.484 317.317, 739.430 321.247 C 736.719 322.758, 732.403 325.509, 729.839 327.361 C 727.276 329.212, 723.129 331.332, 720.624 332.071 C 714.692 333.823, 713.030 337.154, 715.496 342.351 C 716.927 345.366, 717.877 346.022, 722.132 346.935 C 724.864 347.521, 729.095 348, 731.535 348 C 735.986 348, 742.468 349.217, 749 351.279 C 754.100 352.889, 761.868 353.802, 775.995 354.454 C 787.113 354.966, 788.868 355.298, 791.912 357.464 L 795.333 359.898 797.952 357.694 C 802.626 353.761, 823.243 344.180, 833.500 341.175 C 863.945 332.254, 869.876 331.003, 881.739 331.001 C 888.311 331, 891.312 331.533, 896.563 333.636 C 903.771 336.521, 904.353 336.495, 922.925 332.459 C 932.103 330.464, 938.373 330.808, 957.500 334.359 C 973.069 337.249, 991.438 342.590, 998.693 346.335 C 1002.159 348.125, 1013.749 355.760, 1018.568 359.428 C 1019.360 360.030, 1021.643 359.584, 1025.086 358.153 C 1028.544 356.716, 1033.531 355.745, 1039.442 355.357 C 1051.941 354.538, 1072.817 348.683, 1076.942 344.839 C 1080.528 341.499, 1079.150 330, 1075.164 330 C 1074.550 330, 1072.575 329.102, 1070.774 328.004 C 1068.973 326.906, 1065.977 326.006, 1064.116 326.004 C 1057.318 325.996, 1053.221 323.885, 1045.761 316.547 C 1041.768 312.618, 1036.700 307.019, 1034.500 304.105 C 1026.477 293.479, 1024.408 291.239, 1019.522 287.901 C 1016.785 286.031, 1011.289 281.236, 1007.310 277.247 C 1001.284 271.206, 999.191 269.760, 994.787 268.593 C 989.275 267.132, 984.899 265.623, 981.500 264.010 C 972.153 259.573, 954.415 253.916, 943.915 252.023 C 938.252 251.002, 936.781 251.065, 933.415 252.471 C 929.379 254.157, 924 258.645, 924 260.327 C 924 260.851, 923.330 261.779, 922.511 262.390 C 921.692 263, 920.565 265.935, 920.006 268.912 C 919.067 273.916, 917.390 276.907, 912.246 282.750 C 911.157 283.988, 909.756 285, 909.133 285 C 908.510 285, 908 285.450, 908 286 C 908 286.555, 905.338 287, 902.014 287 L 896.029 287 892.879 280.750 C 889.002 273.059, 879.321 260.382, 874.262 256.372 C 872.193 254.732, 868.925 252.781, 867 252.035 C 865.075 251.289, 863.072 250.302, 862.550 249.840 C 861.085 248.545, 845.987 248.975, 841.500 250.439" stroke="#c666b5" fill="#c666b5" fill-opacity="0.2" fill-rule="evenodd"/><path class="svg-region-AAB" d="M 908 405.843 C 907.175 406.339, 896.825 407.724, 885 408.922 C 873.175 410.120, 860.763 411.528, 857.418 412.050 C 854.073 412.573, 849.692 413, 847.682 413 C 843.951 413, 836.093 414.604, 832.500 416.100 C 831.400 416.558, 827.125 417.118, 823 417.346 C 813.906 417.847, 805.818 419.547, 801.050 421.960 C 799.098 422.948, 795.925 424.085, 794 424.486 C 792.075 424.888, 787.575 426.721, 784 428.560 C 780.425 430.399, 776.263 432.199, 774.750 432.560 C 773.237 432.921, 772 433.582, 772 434.028 C 772 434.969, 764.293 437.531, 758.547 438.500 C 753.811 439.299, 748.591 441.864, 744.500 445.403 C 742.850 446.830, 741.134 447.998, 740.686 447.999 C 738.515 448.002, 729.212 453.091, 727 455.484 C 725.625 456.972, 723.241 458.845, 721.703 459.645 C 717.030 462.076, 715.012 464.230, 711.410 470.632 C 709.512 474.005, 706.262 478.730, 704.187 481.132 C 699.239 486.861, 694 495.229, 694 497.403 C 694 499.656, 695.807 503, 697.025 503 C 697.551 503, 700.911 505.006, 704.493 507.458 C 711.129 512.001, 720.230 515.266, 729.430 516.402 C 733.451 516.899, 734.741 516.658, 736.430 515.097 C 738.578 513.110, 750.065 507, 751.651 507 C 753.601 507, 775.105 495.273, 776.610 493.390 C 777.221 492.625, 778.133 492, 778.638 492 C 779.143 492, 780.326 491.100, 781.268 490 C 782.210 488.900, 783.657 488, 784.483 488 C 785.310 488, 789.240 485.975, 793.217 483.500 C 798.634 480.129, 801.459 478.996, 804.474 478.984 C 806.873 478.974, 809.956 478.065, 812.104 476.734 C 820.053 471.807, 824.714 468.289, 829.002 463.978 C 832.017 460.947, 836.797 457.893, 843.500 454.714 C 849 452.106, 854.005 449.641, 854.622 449.236 C 855.239 448.831, 858.606 446.475, 862.105 444 C 883.799 428.654, 898.920 423.039, 914.952 424.376 C 929.859 425.619, 953.445 431.476, 966.285 437.123 C 971.353 439.352, 975.950 441.531, 976.500 441.966 C 977.050 442.400, 978.625 443.083, 980 443.484 C 981.375 443.885, 986.550 446.243, 991.500 448.724 C 998.751 452.358, 1001.821 454.650, 1007.301 460.517 C 1013.814 467.491, 1016.288 469.140, 1022.147 470.412 C 1023.603 470.728, 1026.649 472.536, 1028.915 474.429 C 1031.181 476.322, 1035.615 479.043, 1038.768 480.475 C 1041.920 481.906, 1045.281 483.510, 1046.236 484.039 C 1047.191 484.568, 1048.431 485, 1048.990 485 C 1049.550 485, 1054.212 487.004, 1059.350 489.454 C 1064.488 491.904, 1071.124 494.859, 1074.096 496.022 C 1077.068 497.185, 1080.581 498.836, 1081.903 499.692 C 1085.561 502.059, 1096.221 500.994, 1103.062 497.579 C 1109.471 494.380, 1120.652 483.326, 1126.674 474.235 C 1130.471 468.504, 1133 461.168, 1133 455.885 C 1133 450.971, 1128.654 447.606, 1118.500 444.659 C 1115.200 443.701, 1111.375 442.283, 1110 441.507 C 1108.625 440.731, 1104.575 438.579, 1101 436.725 C 1097.425 434.871, 1091.649 431.876, 1088.165 430.069 C 1084.366 428.100, 1079.361 426.458, 1075.665 425.969 C 1055.288 423.274, 1048.701 422.020, 1037.500 418.703 C 1024.673 414.904, 1019.865 413.816, 1011.500 412.821 C 1006.550 412.232, 1000.250 411.813, 997.500 411.889 C 991.827 412.047, 977.757 410.187, 974 408.782 C 972.625 408.269, 962.050 407.409, 950.500 406.873 C 938.950 406.336, 925 405.682, 919.500 405.420 C 914 405.157, 908.825 405.348, 908 405.843" stroke="#7f3c1a" fill="#7f3c1a" fill-opacity="0.2" fill-rule="evenodd"/><path class="svg-region-APB" d="M 885 361.059 C 866.938 364.236, 833.187 365.489, 827.699 363.186 C 823.382 361.374, 804.308 360.636, 800.593 362.137 C 798.892 362.824, 797.275 363.668, 797 364.012 C 796.725 364.356, 794.250 365.651, 791.500 366.890 C 788.750 368.128, 786.001 369.447, 785.390 369.821 C 782.085 371.844, 778.229 374.609, 776.168 376.435 C 772.775 379.441, 759.160 399.797, 754.464 408.886 C 752.244 413.183, 749.668 417.858, 748.739 419.275 C 746.159 423.213, 744.902 432.921, 746.632 435.561 C 748.909 439.036, 751.889 439.868, 758.020 438.738 C 764.648 437.516, 772 435.010, 772 433.973 C 772 433.557, 773.237 432.924, 774.750 432.566 C 776.263 432.209, 780.141 430.530, 783.368 428.836 C 786.596 427.142, 791.321 425.168, 793.868 424.448 C 796.416 423.728, 800.975 422.260, 804 421.187 C 812.536 418.157, 818.465 417, 825.455 417 C 828.990 417, 832.131 416.598, 832.435 416.106 C 832.739 415.614, 834.678 414.970, 836.744 414.675 C 846.957 413.218, 857.282 411.996, 876 410.030 C 887.275 408.846, 899.200 407.390, 902.500 406.795 C 905.800 406.200, 912.775 405.702, 918 405.688 C 930.563 405.654, 971.735 407.718, 972.904 408.441 C 974.936 409.696, 990.510 412.098, 995.826 411.975 C 1003.753 411.793, 1019.447 413.582, 1026 415.414 C 1029.025 416.261, 1036.191 418.313, 1041.924 419.976 C 1047.658 421.639, 1054.059 423, 1056.149 423 C 1059.355 423, 1060.190 422.534, 1061.491 420.017 C 1062.339 418.377, 1063.274 415.114, 1063.567 412.767 C 1064.160 408.027, 1064.294 408.194, 1045.363 389.902 C 1036.168 381.018, 1020.803 370.246, 1015.329 368.846 C 997.724 364.345, 993.240 363.959, 947.176 362.977 C 923.898 362.480, 902.328 361.607, 899.243 361.037 C 893.062 359.894, 891.606 359.897, 885 361.059" stroke="#ac7444" fill="#ac7444" fill-opacity="0.2" fill-rule="evenodd"/><path class="svg-region-PC" d="M 866.500 332.138 C 837.765 338.832, 817.207 345.956, 804.030 353.785 C 796.201 358.437, 795.167 359.596, 797.113 361.541 C 798.326 362.755, 799.238 362.860, 801.401 362.038 C 804.836 360.732, 823.817 361.558, 827.686 363.182 C 829.547 363.963, 836.428 364.304, 848 364.190 C 864.638 364.025, 868.818 363.675, 885.746 361.030 C 890.980 360.212, 894.590 360.194, 898.746 360.965 C 901.911 361.552, 921.375 362.279, 942 362.580 C 978.429 363.111, 984.171 363.334, 994.346 364.609 C 997.666 365.025, 1000.344 364.730, 1002.846 363.673 C 1004.856 362.824, 1008.872 361.940, 1011.772 361.709 C 1014.672 361.478, 1017.323 361.010, 1017.664 360.669 C 1018.688 359.645, 1016.256 357.392, 1008.299 351.992 C 999.311 345.894, 981.548 338.768, 970.990 337.025 C 966.870 336.345, 958.151 334.711, 951.612 333.394 C 937.982 330.649, 931.185 330.457, 922 332.556 C 905.152 336.407, 903.982 336.456, 896.877 333.614 C 891.270 331.371, 888.936 331.015, 880.422 331.103 C 874.965 331.160, 868.700 331.626, 866.500 332.138" stroke="#cda789" fill="#cda789" fill-opacity="0.2" fill-rule="evenodd"/><path class="svg-region-DB" d="M 704.772 344.047 C 693.065 345.410, 686.037 348.928, 684.684 354.101 C 684.252 355.751, 684.756 356, 688.529 356 C 690.916 356, 693.965 356.416, 695.303 356.925 C 698.894 358.290, 704 367.150, 704 372.015 L 704 376 709.443 376 C 716.529 376, 717.999 377.884, 718.003 386.973 L 718.006 393.500 720.753 387.801 C 723.571 381.953, 726.894 378.814, 735.683 373.694 C 738.332 372.151, 743.200 369.277, 746.500 367.307 C 749.800 365.337, 754.975 362.293, 758 360.543 C 761.025 358.793, 764.514 356.721, 765.753 355.938 C 769.114 353.815, 771.605 355.748, 771.146 360.124 C 770.449 366.772, 770.523 378.857, 771.265 379.598 C 771.681 380.014, 773.254 379.236, 774.760 377.870 C 779.754 373.343, 784.556 370.215, 790.763 367.445 C 794.137 365.940, 797.129 364.106, 797.411 363.371 C 797.710 362.593, 796.059 360.609, 793.461 358.626 C 789.187 355.362, 788.546 355.194, 778.249 354.646 C 772.337 354.332, 766.825 354.081, 766 354.088 C 762.679 354.120, 751.180 352.170, 749.400 351.275 C 747.391 350.263, 738.687 348.758, 725.594 347.158 C 720.146 346.493, 717.409 345.696, 716.794 344.596 C 715.835 342.882, 715.067 342.847, 704.772 344.047 M 1009.500 361.919 C 1006.750 362.270, 1003.600 363.075, 1002.500 363.708 C 1000.586 364.810, 1000.621 364.905, 1003.315 365.930 C 1004.863 366.518, 1007.136 367, 1008.365 367 C 1009.594 367, 1011.028 367.392, 1011.550 367.872 C 1012.072 368.352, 1014.401 369.030, 1016.725 369.380 L 1020.950 370.016 1018.475 366.368 C 1017.114 364.362, 1016 362.334, 1016 361.860 C 1016 361.387, 1015.663 361.063, 1015.250 361.141 C 1014.837 361.218, 1012.250 361.569, 1009.500 361.919" stroke="#e8b1e4" fill="#e8b1e4" fill-opacity="0.2" fill-rule="evenodd"/><path class="svg-region-MB" d="M 1057.113 400.796 C 1057.819 401.733, 1059.756 403.974, 1061.420 405.776 L 1064.443 409.053 1062.872 414.776 C 1062.008 417.924, 1060.989 421.212, 1060.608 422.082 C 1060.025 423.413, 1061.311 423.855, 1068.707 424.867 C 1077.256 426.037, 1086.988 428.574, 1088 429.897 C 1088.275 430.256, 1092.100 432.300, 1096.500 434.439 C 1100.900 436.578, 1105.850 439.308, 1107.500 440.506 C 1109.150 441.703, 1111.850 442.990, 1113.500 443.365 C 1121.886 445.271, 1125.567 446.794, 1129.111 449.828 C 1132.178 452.453, 1133 453.856, 1133 456.471 C 1133 459.862, 1134.283 461, 1138.107 461 C 1139.176 461, 1142.611 461.900, 1145.740 463 C 1150.628 464.718, 1157.010 465.855, 1153.250 464.338 C 1152.563 464.060, 1152 463.236, 1152 462.506 C 1152 461.775, 1150.650 460.042, 1149 458.653 C 1147.350 457.265, 1146 455.636, 1146 455.034 C 1146 454.432, 1144.312 450.915, 1142.248 447.219 C 1140.185 443.524, 1137.890 439.320, 1137.148 437.878 C 1136.406 436.435, 1133.931 433.703, 1131.649 431.805 C 1127.815 428.618, 1125.538 427.612, 1113 423.566 C 1110.525 422.768, 1104.675 420.492, 1100 418.509 C 1095.325 416.526, 1089.250 414.076, 1086.500 413.065 C 1080.644 410.912, 1072.304 406.932, 1066.099 403.329 C 1063.679 401.924, 1060.378 400.395, 1058.765 399.932 C 1056.107 399.170, 1055.951 399.251, 1057.113 400.796 M 751.500 405.956 C 748.750 408.092, 744.925 411.780, 743 414.151 C 736.373 422.316, 729.491 429.269, 725.577 431.753 C 723.419 433.123, 719.594 436.124, 717.077 438.422 C 710.787 444.164, 707.857 445.846, 702.820 446.607 C 700.444 446.966, 697.600 448.050, 696.500 449.015 C 695.400 449.980, 693.553 451.056, 692.396 451.406 C 691.239 451.756, 688.438 453.720, 686.171 455.771 C 682.920 458.712, 681.818 460.596, 680.956 464.685 C 680.354 467.536, 679.218 470.404, 678.431 471.057 C 676.834 472.383, 676.445 480, 677.974 480 C 678.510 480, 679.625 481.309, 680.453 482.908 C 681.630 485.184, 682.886 485.970, 686.228 486.522 C 688.578 486.909, 690.950 487.563, 691.500 487.975 C 692.050 488.387, 693.688 489.007, 695.141 489.354 C 697.285 489.865, 698.116 489.468, 699.565 487.242 C 700.547 485.734, 703.062 482.475, 705.156 480 C 707.249 477.525, 710.262 473.032, 711.852 470.015 C 713.833 466.256, 716.277 463.477, 719.621 461.182 C 722.304 459.340, 725.914 456.554, 727.642 454.991 C 730.362 452.530, 738.697 448, 740.505 448 C 741.639 448, 751.924 440.510, 751.962 439.656 C 751.983 439.192, 751.121 438.583, 750.047 438.302 C 746.288 437.319, 745.129 434.024, 746.236 427.461 C 746.789 424.183, 747.592 421.050, 748.020 420.500 C 749.977 417.987, 757.101 403.807, 756.818 402.989 C 756.643 402.485, 754.250 403.820, 751.500 405.956" stroke="#f9c6c6" fill="#f9c6c6" fill-opacity="0.2" fill-rule="evenodd"/><path class="svg-region-AP" d="M 986 482.024 C 983.525 482.462, 976.325 483.807, 970 485.012 C 963.675 486.217, 956.002 487.548, 952.948 487.969 C 949.895 488.390, 946.520 489.190, 945.448 489.746 C 941.892 491.590, 925.649 494.257, 915 494.745 C 907.887 495.070, 901.758 494.725, 896 493.672 C 891.325 492.818, 884.800 491.838, 881.500 491.495 C 878.200 491.151, 872.800 490.246, 869.500 489.483 C 863.239 488.035, 849.585 486.454, 834.872 485.472 L 826.243 484.897 825.646 490.198 C 825.317 493.114, 824.943 509.675, 824.814 527 C 824.641 550.162, 824.900 559.078, 825.790 560.684 C 826.475 561.920, 827 566.616, 827 571.500 C 827 576.247, 827.429 580.933, 827.954 581.913 C 830.014 585.763, 830.904 596.055, 829.923 604.688 C 829.132 611.645, 829.238 614.306, 830.472 618.553 C 832.367 625.071, 832.438 632.019, 830.634 634.486 C 829.397 636.178, 829.835 636.879, 835.285 641.924 C 838.594 644.987, 843.395 649.070, 845.955 650.997 C 848.515 652.924, 851.668 655.499, 852.961 656.720 C 856.495 660.057, 870.709 667.279, 877.437 669.158 C 882.580 670.593, 885.948 670.699, 902.592 669.946 C 913.161 669.468, 923.764 668.607, 926.154 668.033 C 928.545 667.459, 935.675 666.543, 942 665.999 C 958.711 664.561, 969.487 661.612, 979 655.876 C 990.142 649.157, 1001.445 639.774, 1003.881 635.222 C 1005.383 632.416, 1005.302 632.001, 1003.250 631.993 C 1002.024 631.988, 1000.976 630.391, 999.750 626.656 C 997.587 620.068, 997.550 617.011, 999.583 612.748 C 1001.076 609.617, 1001.019 608.872, 998.583 599.718 C 995.479 588.052, 995.399 585.498, 998.004 581.226 C 999.102 579.425, 1000 576.956, 1000 575.738 C 1000 573.417, 1009.418 564.011, 1011.750 564.004 C 1015.321 563.993, 1011.370 552.339, 1004.828 543.589 C 1000.415 537.685, 999 532.596, 999 522.623 C 999 518.502, 998.269 511.839, 997.377 507.815 C 996.484 503.792, 995.668 496.225, 995.564 491 C 995.350 480.230, 995.472 480.345, 986 482.024" stroke="#fc7143" fill="#fc7143" fill-opacity="0.2" fill-rule="evenodd"/><path class="svg-region-LPl" d="M 793 483.531 C 789.425 485.941, 785.712 487.932, 784.750 487.956 C 783.788 487.980, 782.100 488.900, 781 490 C 779.900 491.100, 778.712 492, 778.360 492 C 778.008 492, 777.221 492.625, 776.610 493.390 C 774.902 495.527, 756.884 505.107, 749 508.069 C 742.375 510.559, 737.523 513.787, 736.860 516.146 C 736.497 517.441, 736.155 522.934, 736.100 528.354 C 736.004 537.831, 736.138 538.471, 739.621 545.098 C 742.497 550.571, 744.952 553.429, 751.561 558.994 C 756.137 562.847, 760.571 566, 761.415 566 C 762.258 566, 767.258 570.275, 772.526 575.500 C 777.793 580.725, 782.530 585, 783.052 585 C 783.573 585, 784 583.256, 784 581.125 C 784 569.653, 786.398 567.603, 800.999 566.597 C 812.548 565.802, 814.224 566.374, 821.724 573.672 L 826.500 578.318 826.792 570.672 C 826.974 565.895, 826.614 562.176, 825.833 560.762 C 824.890 559.057, 824.642 550.620, 824.824 526.500 C 824.957 508.900, 825.314 492.674, 825.617 490.443 C 826.300 485.426, 825.521 484.765, 817 483.126 C 813.425 482.439, 810 481.229, 809.390 480.438 C 808.704 479.549, 806.603 479.029, 803.890 479.075 C 800.432 479.134, 798.119 480.080, 793 483.531" stroke="#d2454f" fill="#d2454f" fill-opacity="0.2" fill-rule="evenodd"/><path class="svg-region-LPr" d="M 1020.498 472.003 C 1019.902 472.967, 1011.798 477, 1010.456 477 C 1010.096 477, 1008.384 477.633, 1006.651 478.406 C 1004.918 479.180, 1002.370 480.061, 1000.990 480.365 C 999.602 480.671, 997.642 482.336, 996.607 484.088 C 995.031 486.757, 994.835 488.469, 995.371 494.901 C 995.722 499.105, 996.479 504.109, 997.055 506.022 C 997.630 507.935, 998.464 515.350, 998.907 522.500 C 999.750 536.073, 1001.373 541.313, 1006.046 545.541 C 1008.623 547.874, 1010.480 551.693, 1012.088 557.967 L 1013.394 563.063 1017.562 562.438 C 1024.217 561.441, 1028.734 564.309, 1031.103 571.036 C 1033.719 578.464, 1033.492 581.747, 1030 587 C 1027.041 591.452, 1026.042 596, 1028.025 596 C 1028.588 596, 1029.512 594.987, 1030.077 593.750 C 1032.758 587.877, 1034.770 585.264, 1042.344 577.819 C 1050.001 570.292, 1061.229 561, 1062.667 561 C 1063.021 561, 1064.704 559.940, 1066.406 558.644 C 1068.108 557.348, 1070.490 555.975, 1071.699 555.593 C 1075.048 554.534, 1079.890 549.573, 1084.653 542.322 C 1089.675 534.676, 1090.331 531.957, 1089.854 520.788 C 1089.565 514.024, 1088.948 511.397, 1086.500 506.500 C 1083.887 501.275, 1082.790 500.148, 1078 497.777 C 1073.247 495.423, 1056.065 487.875, 1045 483.279 C 1036.850 479.894, 1030.943 476.550, 1028.372 473.866 C 1025.644 471.019, 1021.685 470.082, 1020.498 472.003" stroke="#d2454f" fill="#d2454f" fill-opacity="0.2" fill-rule="evenodd"/><path class="svg-region-Ol" d="M 463.500 325.102 C 459.650 325.604, 454.475 326.669, 452 327.468 C 449.525 328.268, 443.900 329.662, 439.500 330.566 C 435.100 331.470, 429.803 332.838, 427.730 333.605 C 425.656 334.372, 422.420 335, 420.539 335 C 418.657 335, 416.879 335.386, 416.588 335.858 C 416.296 336.330, 412.557 337.279, 408.279 337.967 C 396.198 339.910, 370.247 350.542, 358.359 358.419 C 346.169 366.497, 332.376 379.180, 325.269 388.846 C 323.791 390.855, 320.377 395.276, 317.682 398.669 C 308.629 410.067, 297.413 430.137, 291.510 445.500 C 290.031 449.350, 288.212 453.850, 287.468 455.500 C 285.408 460.066, 278.912 481.471, 277.149 489.500 C 276.545 492.250, 275.153 498.325, 274.054 503 C 269.593 521.985, 267.252 555.083, 268.884 576.109 C 269.455 583.474, 269.912 591.387, 269.898 593.694 C 269.873 597.960, 273.250 616.980, 275.025 622.571 C 275.561 624.260, 276 626.552, 276 627.664 C 276 630.184, 282.985 651.761, 285.982 658.500 C 293.438 675.264, 298.508 684.046, 307.633 696 C 315.028 705.687, 326.675 717.940, 328.525 717.979 C 329.089 717.990, 331.875 720.137, 334.717 722.750 C 344.798 732.017, 357.117 740.589, 369 746.605 C 377.075 750.693, 400.190 758.981, 403.550 758.993 C 404.678 758.997, 406.054 759.454, 406.608 760.008 C 408.022 761.422, 429.182 766.356, 443.500 768.610 C 461.012 771.368, 491.515 771.209, 502 768.306 C 506.125 767.163, 513.100 765.479, 517.500 764.562 C 521.900 763.645, 526.400 762.479, 527.500 761.970 C 528.600 761.461, 533.100 759.893, 537.500 758.486 C 546.553 755.592, 558.002 751.168, 559.500 749.985 C 560.050 749.551, 562.472 748.668, 564.883 748.023 C 567.293 747.379, 571.792 745.696, 574.880 744.284 C 581.770 741.132, 598.902 735.256, 605 733.953 C 609.894 732.907, 615.842 731.942, 632 729.572 C 653.188 726.464, 656.674 725.763, 665.500 722.830 C 675.153 719.622, 681.130 716.568, 687.500 711.589 C 689.700 709.869, 692.850 707.796, 694.500 706.981 C 702.489 703.037, 716.837 684.842, 723.662 670 C 725.559 665.875, 727.759 661.230, 728.551 659.677 C 729.343 658.125, 731.434 651.375, 733.197 644.677 C 736.356 632.683, 736.404 632.155, 736.424 609.500 C 736.440 591.385, 736.065 584.588, 734.659 577.500 C 733.677 572.550, 732.433 565.575, 731.895 562 C 731.357 558.425, 730.437 554.375, 729.851 553 C 729.265 551.625, 728.170 548.025, 727.418 545 C 724.957 535.106, 719.111 524.928, 713.038 519.964 C 702.639 511.465, 698.202 509.342, 689.431 508.671 C 685.069 508.337, 678.322 507.771, 674.439 507.411 C 668.735 506.884, 665.371 507.241, 656.939 509.270 C 651.197 510.652, 643.350 512.347, 639.500 513.038 C 633.169 514.174, 631.945 514.806, 626.693 519.647 C 621.016 524.881, 620.752 525, 614.872 525 C 608.051 525, 607.136 525.616, 604.118 532.240 C 602.967 534.767, 600.849 537.760, 599.411 538.891 C 596.112 541.486, 590.263 542.645, 587.903 541.171 C 585.925 539.936, 580 541.428, 580 543.161 C 580 543.692, 578.538 543.986, 576.750 543.813 C 573.831 543.532, 573.406 543.075, 572.575 539.331 C 571.521 534.582, 569.401 533.190, 561.863 532.297 L 557.132 531.737 549.317 539.328 C 542.101 546.336, 541.101 546.968, 536.267 547.572 C 529.156 548.461, 528 547.855, 528 543.241 C 528 538.536, 530.748 527.621, 532.047 527.167 C 532.571 526.983, 533 526.250, 533 525.538 C 533 524.189, 537.808 515.849, 541.818 510.242 C 543.478 507.921, 544.925 507, 546.913 507 C 549.422 507, 553 504.431, 553 502.629 C 553 501.754, 553.758 500.767, 558.987 494.835 C 561.537 491.941, 563.321 488.796, 563.685 486.551 L 564.273 482.933 560.056 483.607 C 555.782 484.291, 547.928 483.005, 540.445 480.397 C 534.431 478.301, 529.752 472.735, 526.661 464 C 521.395 449.117, 521.091 445.579, 522.018 410 C 522.240 401.475, 522.058 391, 521.614 386.723 C 520.948 380.318, 521.087 378.516, 522.403 376.508 C 524.527 373.267, 524.430 371.680, 521.606 363.465 C 516.904 349.786, 515.422 346.926, 509.500 340.109 C 504.395 334.233, 502.283 332.653, 495.343 329.514 C 489.617 326.924, 485.445 325.732, 481.343 325.512 C 478.130 325.340, 474.375 324.973, 473 324.695 C 471.625 324.417, 467.350 324.600, 463.500 325.102" stroke="#aa444d" fill="#aa444d" fill-opacity="0.2" fill-rule="evenodd"/><path class="svg-region-Or" d="M 1335 299.474 C 1324.754 300.749, 1317.966 302.502, 1314 304.895 C 1306.287 309.551, 1296.508 320.876, 1297.501 324.004 C 1297.791 324.918, 1297.304 327.654, 1296.418 330.083 C 1295.532 332.512, 1294.621 336.075, 1294.394 338 C 1294.167 339.925, 1293.476 343.809, 1292.859 346.630 C 1292.242 349.452, 1292.055 353.277, 1292.443 355.130 C 1293.676 361.017, 1294.185 376.407, 1293.231 378.944 C 1292.606 380.608, 1292.768 382.841, 1293.739 385.944 C 1294.524 388.450, 1295.493 397.025, 1295.894 405 C 1296.985 426.751, 1295.179 433.742, 1286.313 442.090 C 1280.315 447.737, 1273.988 450.829, 1265.869 452.081 C 1261.816 452.705, 1257.713 453.634, 1256.750 454.143 C 1254.233 455.477, 1254.448 461.082, 1257.102 463.356 C 1258.976 464.960, 1259.161 465.992, 1258.807 472.828 C 1258.422 480.242, 1258.267 480.651, 1254.201 485 C 1251.888 487.475, 1249.218 491.376, 1248.268 493.670 C 1246.134 498.825, 1242.621 501, 1236.428 501 C 1229.155 501, 1218.945 498.945, 1217.112 497.112 C 1214.180 494.180, 1209.229 491, 1207.596 491 C 1206.718 491, 1206 490.598, 1206 490.107 C 1206 488.637, 1203.021 487.846, 1192.500 486.527 C 1184.338 485.503, 1181.122 485.516, 1175 486.596 C 1170.875 487.325, 1165.217 487.938, 1162.426 487.960 C 1159.636 487.982, 1152.779 488.684, 1147.190 489.519 C 1131.703 491.835, 1129.041 493.052, 1120.884 501.544 C 1110.597 512.254, 1107.152 518.079, 1104.648 529 C 1100.864 545.505, 1098.616 572.049, 1100.473 578.294 C 1101.161 580.607, 1102.026 587.900, 1102.394 594.500 C 1103.057 606.397, 1104.386 614.892, 1106.107 618.236 C 1106.598 619.191, 1107 621.095, 1107 622.467 C 1107 623.840, 1108.422 628.008, 1110.161 631.731 C 1111.899 635.454, 1114.037 640.075, 1114.911 642 C 1115.785 643.925, 1117.737 647.140, 1119.250 649.144 C 1120.763 651.148, 1122 653.098, 1122 653.476 C 1122 654.498, 1134.136 670, 1134.936 670 C 1135.314 670, 1136.646 670.953, 1137.897 672.119 C 1139.148 673.284, 1142.945 675.697, 1146.336 677.480 C 1149.726 679.263, 1156.337 682.759, 1161.026 685.249 C 1165.716 687.738, 1172.916 690.939, 1177.026 692.361 C 1183.845 694.719, 1217.893 700.992, 1223.954 701.006 C 1230.552 701.021, 1276.391 714.704, 1280.367 717.844 C 1280.990 718.337, 1283.275 719.060, 1285.445 719.451 C 1287.614 719.843, 1291.537 721.252, 1294.162 722.582 C 1296.786 723.912, 1299.511 725.003, 1300.217 725.006 C 1300.923 725.010, 1302.625 725.587, 1304 726.289 C 1307.515 728.085, 1318.978 731.565, 1329 733.880 C 1333.675 734.960, 1340.547 736.561, 1344.271 737.438 C 1353.396 739.587, 1381.602 740.519, 1395.500 739.129 C 1420.497 736.629, 1455.323 724.827, 1473.073 712.840 C 1476.608 710.453, 1480.227 708.050, 1481.115 707.500 C 1493.515 699.823, 1515.238 680.255, 1523.270 669.528 C 1523.693 668.963, 1525.200 667.150, 1526.619 665.500 C 1530.561 660.917, 1539.363 647.174, 1544.324 637.856 C 1551.893 623.642, 1556.461 610.055, 1561.592 586.500 C 1567.677 558.561, 1567.107 499.294, 1560.457 468.500 C 1559.032 461.900, 1557.473 454.700, 1556.994 452.500 C 1556.514 450.300, 1555.396 446.475, 1554.508 444 C 1553.620 441.525, 1552.056 436.575, 1551.031 433 C 1545.008 411.988, 1527.779 374.330, 1516.501 357.530 C 1508.669 345.862, 1498.432 336.174, 1484.742 327.473 C 1478.275 323.363, 1472.650 320.003, 1472.242 320.006 C 1471.834 320.009, 1466.775 317.809, 1461 315.118 C 1449.143 309.591, 1441.570 307.145, 1425 303.488 C 1418.675 302.092, 1410.919 300.286, 1407.765 299.475 C 1400.645 297.644, 1349.708 297.643, 1335 299.474" stroke="#aa444d" fill="#aa444d" fill-opacity="0.2" fill-rule="evenodd"/><path class="svg-region-Pl" d="M 552.817 346.923 C 542.801 349.625, 536.453 355.246, 526.554 370.173 L 520.802 378.846 521.586 386.673 C 522.016 390.978, 522.193 401.475, 521.978 410 C 521.082 445.470, 521.405 449.218, 526.625 464 C 530.801 475.824, 535.322 479.594, 549.264 482.878 C 558.591 485.075, 564.482 483.891, 577.014 477.301 C 591.470 469.700, 594.863 467.150, 609.269 453.057 C 618.700 443.831, 619.131 443.215, 621.719 435.269 C 624.759 425.934, 624.298 421.763, 620.161 421.171 C 618.551 420.941, 617.318 419.574, 616.049 416.614 C 613.310 410.224, 610.766 409.109, 592.989 406.512 C 590.801 406.192, 586.951 404.020, 582.776 400.749 L 576.075 395.500 576.640 385.500 C 577.153 376.438, 577.575 374.764, 581.138 367.649 C 583.583 362.769, 584.842 359.076, 584.465 357.890 C 583.707 355.502, 576.775 349.667, 571.539 347.010 C 566.723 344.567, 561.639 344.543, 552.817 346.923" stroke="#f9d3d3" fill="#f9d3d3" fill-opacity="0.2" fill-rule="evenodd"/><path class="svg-region-Pr" d="M 1236.500 328.160 C 1231.550 329.792, 1227.064 331.557, 1226.531 332.083 C 1225.998 332.608, 1225.011 334.904, 1224.338 337.184 C 1223.254 340.854, 1223.328 341.602, 1224.988 343.712 C 1226.018 345.022, 1227.154 347.424, 1227.511 349.049 C 1228.364 352.934, 1225.633 361.057, 1222.476 364.022 C 1219.876 366.465, 1217.045 371.742, 1214.593 378.721 C 1213.777 381.043, 1211.285 386.405, 1209.055 390.638 C 1206.825 394.871, 1205 398.879, 1205 399.544 C 1205 400.210, 1204.329 401.312, 1203.510 401.992 C 1201.711 403.485, 1202.243 406.068, 1206.079 414.476 C 1208.842 420.530, 1213.354 425.663, 1218 428.038 C 1219.375 428.741, 1225.803 434.082, 1232.285 439.908 C 1238.767 445.734, 1245.517 451.037, 1247.285 451.694 C 1255.068 454.583, 1271.790 452.389, 1279.480 447.469 C 1287.860 442.109, 1293.654 434.959, 1295.087 428.212 C 1296.704 420.592, 1296.289 398.256, 1294.368 389.500 C 1293.523 385.650, 1292.884 382.050, 1292.948 381.500 C 1295.100 363.002, 1293.060 350.656, 1286.092 340.015 C 1281.559 333.092, 1277.996 329.549, 1273.011 327.006 C 1269.692 325.313, 1267.243 325.015, 1257.290 325.097 C 1247.068 325.181, 1244.303 325.588, 1236.500 328.160" stroke="#f9d3d3" fill="#f9d3d3" fill-opacity="0.2" fill-rule="evenodd"/><path class="svg-region-DLl" d="M 596.027 353.225 C 588.881 356.911, 582.890 363.179, 579.531 370.482 C 577.819 374.207, 577.076 378.077, 576.650 385.500 L 576.075 395.500 582.776 400.749 C 586.887 403.970, 590.835 406.207, 592.989 406.538 C 604.465 408.301, 608.862 409.365, 611.850 411.103 L 615.200 413.051 620.850 410.435 C 623.958 408.997, 628.326 406.963, 630.557 405.914 C 634.277 404.167, 636.735 402.227, 639.575 398.798 C 640.166 398.084, 641.818 396.633, 643.245 395.573 C 647.327 392.541, 648.498 386.667, 646.994 376.768 C 645.789 368.833, 645.544 368.310, 640.904 363.780 C 632.546 355.621, 618.230 350, 605.809 350 C 603.794 350, 599.599 351.383, 596.027 353.225" stroke="#b7d6d3" fill="#b7d6d3" fill-opacity="0.2" fill-rule="evenodd"/><path class="svg-region-DLr" d="M 1182.129 335.207 C 1180.275 335.841, 1175.663 339.369, 1171.879 343.049 C 1165.024 349.717, 1164.999 349.761, 1164.775 355.620 C 1164.264 368.998, 1164.941 373.184, 1168.714 380 C 1174.700 390.811, 1181.678 399.551, 1185.813 401.416 C 1190.598 403.573, 1202.884 403.293, 1204.061 401 C 1208.868 391.627, 1213.378 382.064, 1216.085 375.500 C 1217.899 371.100, 1220.643 366.150, 1222.181 364.500 C 1225.050 361.424, 1228 354.323, 1228 350.493 C 1228 346.940, 1222.109 339.096, 1217.782 336.889 C 1214.494 335.211, 1211.367 334.792, 1199.654 334.459 C 1190.550 334.200, 1184.297 334.467, 1182.129 335.207" stroke="#b7d6d3" fill="#b7d6d3" fill-opacity="0.2" fill-rule="evenodd"/><path class="svg-region-VOC" d="M 1090.500 370.010 C 1087.646 370.890, 1087.500 371.201, 1087.500 376.397 C 1087.500 381.076, 1087.921 382.299, 1090.437 384.930 C 1092.052 386.618, 1094.360 388, 1095.565 388 C 1096.769 388, 1098.275 388.626, 1098.910 389.391 C 1099.545 390.156, 1101.287 391.026, 1102.782 391.324 C 1104.277 391.622, 1107.975 392.603, 1111 393.504 C 1115.034 394.706, 1118.733 395.001, 1124.877 394.611 C 1129.484 394.319, 1133.534 393.799, 1133.876 393.457 C 1134.610 392.723, 1130.541 389.167, 1122.098 383.166 C 1118.744 380.782, 1116 378.241, 1116 377.520 C 1116 375.563, 1104.089 370.193, 1098.435 369.601 C 1095.721 369.317, 1092.150 369.501, 1090.500 370.010 M 696.398 379.774 C 694.692 381.830, 691.830 386.329, 690.039 389.772 C 687.192 395.242, 686.793 396.944, 686.876 403.266 C 686.957 409.357, 687.308 410.776, 689.097 412.250 C 691.913 414.570, 696.138 414.466, 699.273 412 C 700.671 410.900, 702.307 410, 702.908 410 C 703.508 410, 704.024 409.438, 704.053 408.750 C 704.082 408.063, 706.444 406.332, 709.303 404.904 C 713.863 402.627, 714.709 401.707, 716.206 397.404 C 718.404 391.088, 718.526 381.196, 716.443 378.223 C 715.062 376.250, 714.021 376.002, 707.193 376.018 C 699.536 376.036, 699.486 376.053, 696.398 379.774" stroke="#ff8f93" fill="#ff8f93" fill-opacity="0.2" fill-rule="evenodd"/><path class="svg-region-OABl" d="M 668.806 482.282 C 662.948 487.106, 641.655 501, 640.120 501 C 639.589 501, 636.817 503.137, 633.960 505.750 C 631.102 508.363, 628.030 510.895, 627.132 511.378 C 624.882 512.590, 617 520.236, 617 521.208 C 617 521.644, 618.670 522, 620.712 522 C 623.648 522, 625.269 521.198, 628.462 518.165 C 631.849 514.949, 633.629 514.127, 639.500 513.069 C 643.350 512.375, 651 510.752, 656.500 509.463 C 662.134 508.142, 670.648 506.983, 676 506.809 C 684.699 506.526, 685.857 506.247, 689.729 503.500 C 692.796 501.324, 693.963 499.797, 693.979 497.941 C 693.990 496.534, 694.661 494.509, 695.468 493.441 C 696.276 492.374, 696.951 491.169, 696.968 490.763 C 697.013 489.719, 691.018 487.348, 686.330 486.556 C 683.386 486.058, 681.915 485.127, 680.625 482.943 C 679.193 480.517, 678.238 480.006, 675.193 480.032 C 672.892 480.051, 670.485 480.899, 668.806 482.282" stroke="#81244d" fill="#81244d" fill-opacity="0.2" fill-rule="evenodd"/><path class="svg-region-OABr" d="M 1131.641 463.841 C 1130.896 468.501, 1122.413 481.631, 1118.113 484.780 C 1114.292 487.578, 1114.146 490.096, 1117.707 491.750 C 1121.558 493.538, 1125.904 493.287, 1139.500 490.490 C 1146.100 489.132, 1155.100 487.998, 1159.500 487.971 C 1163.900 487.943, 1170.875 487.325, 1175 486.596 C 1184.091 484.991, 1201.851 486.650, 1204.875 489.387 C 1205.855 490.274, 1207.228 491, 1207.924 491 C 1209.278 491, 1214.416 494.416, 1217.099 497.099 C 1219.390 499.390, 1226.036 500.526, 1227.181 498.823 C 1228.587 496.730, 1227.111 489.747, 1224.724 487.207 C 1221.257 483.516, 1205.337 476.541, 1196 474.622 C 1191.325 473.661, 1185.475 472.247, 1183 471.480 C 1180.525 470.712, 1175.575 469.586, 1172 468.977 C 1160.049 466.941, 1150.528 464.791, 1147.500 463.444 C 1145.286 462.459, 1134.536 460, 1132.444 460 C 1132.340 460, 1131.979 461.728, 1131.641 463.841" stroke="#81244d" fill="#81244d" fill-opacity="0.2" fill-rule="evenodd"/><path class="svg-region-BPCl" d="M 797 566.926 C 786.225 567.939, 784 570.298, 784 580.711 C 784 585.877, 784.317 586.641, 788.250 590.972 C 799.635 603.507, 808.649 614.478, 812.576 620.581 C 814.374 623.376, 817.499 626.976, 819.520 628.581 C 821.541 630.187, 824.132 632.513, 825.277 633.750 C 827.876 636.556, 829.606 636.604, 831.049 633.908 C 832.302 631.568, 831.847 622.650, 830.162 616.500 C 829.405 613.736, 829.360 609.873, 830.018 604 C 830.978 595.420, 829.950 584.801, 827.749 580.580 C 826.252 577.710, 820.016 571.558, 815.610 568.606 C 811.507 565.857, 809.906 565.712, 797 566.926" stroke="#83385f" fill="#83385f" fill-opacity="0.2" fill-rule="evenodd"/><path class="svg-region-BPCr" d="M 1013.173 563.269 C 1008.367 564.807, 1000 572.619, 1000 575.568 C 1000 576.879, 999.102 579.425, 998.004 581.226 C 995.399 585.498, 995.479 588.052, 998.583 599.718 C 1001.019 608.872, 1001.076 609.617, 999.583 612.748 C 997.566 616.978, 997.588 620.016, 999.683 626.662 C 1001.169 631.376, 1001.680 632, 1004.060 632 C 1007.413 632, 1008.774 630.400, 1010.610 624.300 C 1011.892 620.041, 1020.267 605.567, 1025.183 599.115 C 1026.182 597.803, 1027 595.673, 1027 594.380 C 1027 593.088, 1028.350 589.836, 1030 587.154 C 1033.485 581.491, 1033.703 578.419, 1031.137 571.134 C 1028.259 562.962, 1022.294 560.350, 1013.173 563.269" stroke="#83385f" fill="#83385f" fill-opacity="0.2" fill-rule="evenodd"/><path class="svg-region-OVl" d="M 761 358.527 C 757.975 360.355, 752.218 363.797, 748.206 366.176 C 725.492 379.643, 724.114 380.701, 721.132 386.967 C 719.685 390.010, 718.163 392.650, 717.750 392.833 C 717.337 393.017, 717 393.789, 717 394.549 C 717 398.338, 713.557 402.826, 708.896 405.113 C 706.220 406.426, 704.024 408.063, 704.016 408.750 C 704.007 409.438, 703.508 410, 702.908 410 C 702.307 410, 700.671 410.900, 699.273 412 C 696.226 414.396, 692.261 414.571, 689.223 412.443 C 687.252 411.063, 687.001 410.013, 687.005 403.193 C 687.009 396.444, 687.408 394.749, 690.255 389.382 C 694.325 381.710, 699.323 376, 701.969 376 C 707.071 376, 702.033 360.357, 695.935 357.265 C 691.073 354.799, 675.205 355.769, 667.500 359.005 C 666.400 359.467, 664.367 360.087, 662.982 360.383 C 661.596 360.679, 657.401 363.895, 653.659 367.528 L 646.855 374.134 647.539 380.521 C 648.115 385.896, 647.887 387.602, 646.102 391.290 C 644.935 393.701, 642.867 396.268, 641.507 396.996 C 640.146 397.725, 638.804 399.036, 638.524 399.910 C 638.034 401.439, 630.152 407, 628.474 407 C 627.345 407, 615 413.061, 615 413.615 C 615 413.862, 615.637 415.588, 616.415 417.451 C 617.345 419.677, 618.620 420.952, 620.132 421.169 C 624.220 421.757, 624.658 426.529, 621.480 435.879 C 618.808 443.744, 618.424 444.265, 607.598 454.734 C 601.474 460.655, 593.997 467.126, 590.982 469.113 C 583.800 473.847, 567.782 482, 565.664 482 C 564.547 482, 564 482.838, 564 484.550 C 564 487.926, 561.877 491.836, 558.089 495.437 C 556.390 497.052, 555 498.965, 555 499.687 C 555 500.409, 554.550 501, 554 501 C 553.450 501, 553 501.605, 553 502.345 C 553 504.441, 549.606 507, 546.826 507 C 545.442 507, 543.621 507.788, 542.779 508.750 C 540.287 511.597, 533 524.093, 533 525.519 C 533 526.242, 532.538 526.987, 531.973 527.176 C 530.551 527.650, 528.026 537.595, 528.012 542.781 C 527.998 547.916, 528.989 548.482, 536.383 547.558 C 541.327 546.940, 542.296 546.342, 549.117 539.701 C 556.055 532.947, 556.771 532.513, 561 532.508 C 568.283 532.499, 571.475 534.372, 572.567 539.296 C 573.406 543.078, 573.826 543.531, 576.750 543.813 C 578.538 543.986, 580 543.661, 580 543.092 C 580 541.536, 586.219 540.167, 588.091 541.311 C 590.269 542.641, 596.251 541.377, 599.364 538.928 C 600.776 537.818, 603.359 534.229, 605.105 530.954 L 608.279 525 614.389 524.968 C 618.170 524.949, 621.240 524.376, 622.441 523.468 C 624.261 522.092, 624.151 522, 620.691 522 C 618.661 522, 617 521.607, 617 521.127 C 617 519.447, 636.548 503.043, 642.052 500.104 C 647.309 497.298, 663.498 486.548, 668.940 482.250 C 670.507 481.012, 672.961 480, 674.394 480 C 676.754 480, 677 479.634, 677 476.122 C 677 473.979, 677.640 471.714, 678.431 471.057 C 679.218 470.404, 680.354 467.536, 680.956 464.685 C 681.820 460.589, 682.920 458.713, 686.194 455.750 C 688.474 453.688, 690.903 452, 691.593 452 C 692.282 452, 694.119 450.938, 695.673 449.640 C 697.271 448.306, 700.567 446.975, 703.253 446.578 C 706.373 446.118, 709.361 444.781, 711.946 442.688 C 717.837 437.921, 726.043 431.401, 730.085 428.276 C 732.057 426.751, 735.432 423.315, 737.585 420.640 C 743.981 412.694, 750.217 406.494, 754.909 403.416 C 758.839 400.838, 761.620 397.322, 770.233 384.044 C 771.621 381.905, 771.771 380.688, 770.983 377.942 C 769.671 373.368, 769.743 367.991, 771.187 362.592 C 772.137 359.039, 772.112 357.840, 771.064 356.577 C 769.219 354.354, 767.287 354.728, 761 358.527" stroke="#593939" fill="#593939" fill-opacity="0.2" fill-rule="evenodd"/><path class="svg-region-OVr" d="M 1078 344.007 C 1078 346.776, 1054.180 353.913, 1041 355.093 C 1033.869 355.732, 1028.254 356.892, 1023.500 358.710 C 1019.650 360.181, 1016.333 361.504, 1016.129 361.648 C 1015.349 362.197, 1020.965 370.691, 1023.179 372.313 C 1024.455 373.247, 1028.201 375.959, 1031.502 378.337 C 1034.803 380.716, 1040.428 385.686, 1044.002 389.381 C 1049.115 394.668, 1052.312 396.946, 1059 400.068 C 1063.675 402.250, 1068.175 404.473, 1069 405.008 C 1071.751 406.792, 1083.437 412.165, 1088.500 413.975 C 1091.250 414.958, 1097.100 417.292, 1101.500 419.163 C 1105.900 421.034, 1111.525 423.166, 1114 423.902 C 1125.966 427.459, 1133.815 432.030, 1136.377 436.932 C 1141.229 446.216, 1144.259 451.627, 1145.067 452.450 C 1145.580 452.973, 1146 454.029, 1146 454.799 C 1146 455.568, 1147.237 457.405, 1148.750 458.880 C 1150.263 460.356, 1152.127 462.514, 1152.894 463.676 C 1154.288 465.786, 1155.276 466.060, 1172 468.958 C 1175.575 469.577, 1180.525 470.708, 1183 471.469 C 1185.475 472.231, 1191.100 473.608, 1195.500 474.530 C 1206.759 476.889, 1219.224 482.607, 1224.157 487.675 C 1226.649 490.235, 1227.287 491.786, 1227.448 495.675 L 1227.647 500.500 1234.074 500.821 C 1242.313 501.233, 1245.870 499.455, 1248.272 493.726 C 1249.246 491.402, 1252.059 487.294, 1254.522 484.598 C 1258.957 479.742, 1259 479.626, 1259 472.501 C 1259 466.741, 1258.601 464.846, 1257 463 C 1254.768 460.426, 1254.368 456.032, 1256.200 454.200 C 1257.133 453.267, 1256.743 453, 1254.443 453 C 1248.313 453, 1244.859 450.931, 1232.059 439.590 C 1224.864 433.215, 1218.534 428, 1217.992 428 C 1217.449 428, 1215.156 426.329, 1212.896 424.287 C 1208.902 420.679, 1204.445 412.592, 1203.093 406.500 C 1202.440 403.562, 1202.272 403.488, 1194.963 402.937 C 1190.858 402.627, 1186.150 401.630, 1184.500 400.722 C 1180.730 398.648, 1173.387 388.738, 1167.972 378.418 C 1165.687 374.063, 1162.709 369.035, 1161.353 367.244 C 1159.998 365.453, 1159.135 363.591, 1159.435 363.105 C 1160.845 360.824, 1141.448 349.926, 1129.409 346.235 C 1123.508 344.425, 1119.254 344.053, 1100.250 343.680 C 1088.013 343.439, 1078 343.587, 1078 344.007 M 1091.199 369.949 C 1087.865 370.776, 1085.784 372, 1087.712 372 C 1088.430 372, 1088.450 373.441, 1087.777 376.597 C 1086.834 381.018, 1086.923 381.326, 1090.094 384.597 C 1091.908 386.469, 1094.374 388, 1095.574 388 C 1096.773 388, 1098.315 388.675, 1099 389.500 C 1099.685 390.325, 1101.035 391, 1102 391 C 1102.966 391, 1105.498 391.764, 1107.628 392.698 C 1110.472 393.946, 1114.343 394.400, 1122.205 394.410 C 1128.093 394.417, 1133.232 394.101, 1133.626 393.708 C 1134.385 392.948, 1130.225 388, 1128.827 388 C 1127.308 388, 1116 378.695, 1116 377.444 C 1116 375.652, 1104.269 370.280, 1099 369.660 C 1096.525 369.369, 1093.015 369.499, 1091.199 369.949" stroke="#593939" fill="#593939" fill-opacity="0.2" fill-rule="evenodd"/>
    </svg>