<svg xmlns="http://www.w3.org/2000/svg" width="1921" height="1027" viewBox="0 0 1921 1027" version="1.1">
    <path class="svg-region-V" d="M 788.994 161.934 C 787.615 162.354, 785.068 163.431, 783.333 164.328 C 781.599 165.225, 776.292 166.636, 771.540 167.465 C 766.787 168.294, 759.884 170.287, 756.200 171.895 C 752.515 173.503, 747.630 175.315, 745.345 175.922 C 739.731 177.413, 730.350 181.624, 729.470 183.049 C 729.077 183.684, 724.304 186.349, 718.862 188.971 C 711.162 192.681, 707.076 195.486, 700.438 201.619 C 695.747 205.954, 690.599 210.056, 688.997 210.736 C 687.395 211.415, 684.169 214.565, 681.827 217.736 C 679.486 220.906, 674.378 226.915, 670.476 231.088 C 666.574 235.262, 662.566 240.437, 661.569 242.588 C 660.572 244.740, 658.682 247.456, 657.369 248.625 C 652.309 253.126, 649 258.248, 649 261.578 C 649 263.395, 648.550 265.160, 648 265.500 C 646.347 266.522, 646.785 295, 648.500 298 C 649.286 299.375, 649.956 301.400, 649.989 302.500 C 650.022 303.600, 651.500 306.362, 653.274 308.638 C 655.048 310.914, 659.551 316.837, 663.281 321.801 L 670.061 330.825 675.781 331.305 C 678.926 331.568, 683.525 332.337, 686 333.014 C 688.475 333.691, 696.246 334.450, 703.269 334.702 C 714.718 335.112, 716.483 334.945, 720.335 333.080 C 722.698 331.936, 725.127 331, 725.732 331 C 726.338 331, 726.983 330.646, 727.167 330.214 C 727.960 328.342, 734.102 324.994, 740.541 322.923 C 751.992 319.240, 757.214 315.193, 758.509 309 C 758.912 307.075, 759.931 304.150, 760.774 302.500 C 766.761 290.783, 787.145 275.509, 799.500 273.481 C 803.674 272.796, 806.501 271.699, 816.500 266.885 C 819.800 265.296, 824.750 263.367, 827.500 262.599 C 830.250 261.830, 835.875 259.974, 840 258.475 C 844.855 256.710, 850.326 255.576, 855.515 255.261 L 863.530 254.774 867.961 258.637 C 872.280 262.402, 875.898 265.997, 886.191 276.750 C 888.955 279.637, 891.730 282.003, 892.358 282.006 C 892.986 282.010, 894.645 282.610, 896.044 283.340 C 899.497 285.142, 904.804 286.126, 905.448 285.084 C 905.737 284.616, 908.538 283.913, 911.672 283.522 C 918.932 282.615, 921.879 281.480, 922.727 279.265 C 924.347 275.035, 934.833 263, 936.898 263 C 937.260 263, 938.326 262.100, 939.268 261 C 941.529 258.360, 949.780 258.699, 963 261.976 C 965.475 262.589, 969.075 263.459, 971 263.907 C 972.925 264.356, 976.300 265.395, 978.500 266.217 C 980.700 267.038, 985.200 268.546, 988.500 269.566 C 996.613 272.075, 1017.619 281.130, 1025.324 285.439 C 1034.843 290.762, 1041.221 297.802, 1046.630 308.954 C 1049.177 314.204, 1052.664 320.093, 1054.380 322.041 C 1056.096 323.988, 1058.545 326.980, 1059.822 328.690 C 1062.263 331.957, 1070.736 336.900, 1077.500 339.003 C 1079.700 339.687, 1082.551 341.203, 1083.835 342.373 C 1085.925 344.277, 1087.346 344.500, 1097.380 344.500 C 1106.969 344.500, 1109.004 344.211, 1111.454 342.500 C 1113.030 341.400, 1116.147 339.472, 1118.381 338.216 C 1124.290 334.894, 1126.883 332.123, 1128.201 327.724 C 1128.939 325.261, 1131.828 321.242, 1136.053 316.802 C 1140.287 312.354, 1143.756 307.526, 1145.514 303.639 C 1147.040 300.262, 1148.905 296.150, 1149.658 294.500 C 1152.006 289.354, 1154.194 279.697, 1154.077 275 C 1153.906 268.212, 1153.099 265.163, 1149.445 257.500 C 1147.609 253.650, 1145.828 249.178, 1145.487 247.563 C 1144.710 243.878, 1130.846 229.801, 1125.981 227.758 C 1124.067 226.953, 1120.518 224.091, 1118.097 221.398 C 1115.675 218.704, 1110.649 214.025, 1106.929 211 C 1103.209 207.975, 1096.866 202.760, 1092.833 199.410 C 1082.068 190.470, 1073.748 185.082, 1066.724 182.502 C 1060.227 180.116, 1047.730 174.972, 1042.391 172.487 C 1040.681 171.691, 1035.956 170.763, 1031.891 170.425 C 1027.826 170.087, 1021.962 169.132, 1018.859 168.304 C 1014.303 167.087, 1008.339 166.882, 987.859 167.236 C 965.605 167.621, 961.758 167.927, 956.438 169.735 C 951.051 171.567, 946.862 171.879, 918.836 172.532 C 887.954 173.251, 887.111 173.218, 878.398 170.967 C 873.504 169.702, 868.984 168.276, 868.353 167.797 C 867.722 167.318, 863.830 166.547, 859.704 166.085 C 855.579 165.622, 851.611 164.877, 850.886 164.430 C 850.162 163.982, 846.404 163.517, 842.535 163.396 C 838.666 163.276, 834.233 162.687, 832.685 162.088 C 829.483 160.850, 792.980 160.722, 788.994 161.934" stroke="#dd8a8a" fill="#dd8a8a" fill-opacity="0.2" fill-rule="evenodd"/><path class="svg-region-SV" d="M 845.500 256.616 C 842.750 257.428, 838.250 258.950, 835.500 259.998 C 832.750 261.046, 828.475 262.407, 826 263.023 C 823.525 263.638, 817.450 266.102, 812.500 268.498 C 807.550 270.894, 801.523 273.162, 799.108 273.539 C 789.863 274.981, 775.148 284.410, 766.766 294.263 C 761.447 300.515, 760.040 303.029, 758.521 308.994 C 757.607 312.589, 756.394 314.242, 752.522 317.173 C 749.853 319.193, 745.679 321.347, 743.246 321.960 C 737.578 323.387, 730.868 326.543, 728.184 329.043 C 727.029 330.120, 725.416 331, 724.601 331 C 721.797 331, 722.084 332.689, 725.441 335.943 C 728.850 339.247, 730.097 339.699, 751.703 345.463 C 756.765 346.814, 763.065 348.999, 765.703 350.318 C 768.736 351.835, 773.074 352.929, 777.500 353.292 C 784.579 353.872, 788.305 355.053, 797.656 359.680 L 802.812 362.232 810.249 359.229 C 816.933 356.530, 828.423 349.398, 838 342.003 C 846.469 335.463, 857.865 331.386, 869.623 330.689 C 874.090 330.423, 878.815 329.598, 880.123 328.853 C 883.857 326.727, 928.929 327.152, 934.876 329.369 C 937.938 330.510, 942.591 331.007, 950.376 331.022 C 961.927 331.045, 966.178 332.152, 972.823 336.867 C 974.295 337.913, 981.350 341.828, 988.500 345.568 C 998.943 351.030, 1002.728 353.628, 1007.745 358.774 L 1013.990 365.180 1020.245 363.017 C 1023.685 361.828, 1028.300 360.376, 1030.500 359.790 C 1032.700 359.205, 1038.325 357.628, 1043 356.287 C 1047.675 354.945, 1054.650 353.656, 1058.499 353.421 C 1066.822 352.915, 1073.033 350.999, 1079.355 346.990 C 1086.129 342.694, 1085.775 342.015, 1074.500 337.685 C 1070.650 336.206, 1066.338 334.210, 1064.919 333.248 C 1059.917 329.861, 1051.409 318.389, 1046.661 308.632 C 1039.609 294.139, 1035.761 290.500, 1018.628 282.124 C 1002.782 274.378, 997.197 272.033, 988.500 269.475 C 985.200 268.505, 980.700 267.053, 978.500 266.248 C 970.995 263.504, 956.513 260.206, 949 259.530 C 940.660 258.779, 941.083 258.591, 932.238 266.961 C 927.493 271.452, 923.978 275.999, 922.727 279.265 C 921.857 281.536, 918.679 282.711, 911.071 283.571 C 907.707 283.952, 904.740 284.612, 904.477 285.038 C 903.902 285.967, 900.650 285.312, 896.349 283.401 C 894.616 282.630, 892.815 282, 892.347 282 C 891.181 282, 883.515 274.498, 877.687 267.653 C 875.041 264.544, 872.498 262, 872.037 262 C 871.577 262, 869.625 260.425, 867.700 258.500 C 864.361 255.161, 863.885 255.003, 857.350 255.070 C 853.582 255.108, 848.250 255.804, 845.500 256.616" stroke="#c666b5" fill="#c666b5" fill-opacity="0.2" fill-rule="evenodd"/><path class="svg-region-AAB" d="M 897.500 408.545 C 893.650 409.347, 887.575 410.661, 884 411.465 C 880.425 412.269, 874.800 413.210, 871.500 413.556 C 864.689 414.270, 852.482 417.992, 843.247 422.171 C 839.808 423.727, 835.286 425, 833.197 425 C 831.109 425, 828.972 425.427, 828.450 425.949 C 827.320 427.077, 813.975 431.859, 809 432.918 C 807.075 433.327, 803.925 434.489, 802 435.500 C 800.075 436.511, 796.925 437.682, 795 438.104 C 793.075 438.525, 787.675 440.274, 783 441.990 C 778.325 443.705, 773.150 445.504, 771.500 445.987 C 769.850 446.469, 766.700 447.550, 764.500 448.388 C 762.300 449.226, 759.205 449.932, 757.623 449.956 C 751.986 450.042, 742.503 455.800, 735.548 463.358 C 731.934 467.286, 725.861 473.875, 722.053 478 C 710.327 490.703, 709.862 491.297, 711.068 492.042 C 712.603 492.991, 710.172 497.357, 705.133 502.700 L 701.172 506.900 705.836 508.672 C 708.401 509.647, 712.525 511.468, 715 512.718 C 717.475 513.969, 720.486 514.994, 721.691 514.996 C 722.896 514.998, 724.139 515.415, 724.452 515.923 C 724.766 516.431, 726.365 517.141, 728.005 517.501 C 730.213 517.986, 731.671 517.617, 733.628 516.078 C 735.363 514.713, 737.731 514, 740.526 514 C 744.103 514, 744.875 513.641, 745.359 511.750 C 745.926 509.538, 755.841 497.980, 763.256 490.889 C 768.992 485.403, 779.330 481.839, 791.210 481.251 L 800.921 480.771 807.197 473.135 C 810.648 468.936, 813.799 465.356, 814.199 465.179 C 814.599 465.003, 816.924 462.078, 819.366 458.679 C 821.807 455.281, 825.312 451.095, 827.153 449.378 C 832.176 444.694, 846.863 435, 848.937 435 C 849.937 435, 851.296 434.349, 851.956 433.553 C 852.617 432.757, 855.260 431.338, 857.829 430.400 C 860.398 429.462, 866.100 427.138, 870.500 425.235 C 898.549 413.107, 917.828 413.791, 964.331 428.560 C 970.287 430.452, 975.764 432, 976.500 432 C 979.527 432, 1001.027 443.030, 1005.003 446.622 C 1010.124 451.249, 1025.248 468.587, 1029.959 475.232 C 1033.655 480.446, 1033.887 480.561, 1042.500 481.467 C 1045.800 481.815, 1050.525 482.721, 1053 483.481 C 1055.475 484.242, 1060.875 485.864, 1065 487.087 C 1079.354 491.341, 1081.441 492.363, 1091.399 500.007 C 1095.854 503.427, 1100.599 503.901, 1106.346 501.500 C 1108.320 500.675, 1111.188 499.989, 1112.718 499.977 C 1114.248 499.964, 1117.750 498.715, 1120.500 497.201 C 1125.443 494.479, 1125.496 494.398, 1125.165 490.069 C 1124.682 483.750, 1120.468 478.156, 1105.741 464.284 C 1095.422 454.565, 1088.374 449.226, 1080.959 445.511 C 1077.956 444.007, 1073.929 441.589, 1072.009 440.138 C 1070.089 438.687, 1066.489 436.974, 1064.009 436.332 C 1061.529 435.690, 1056.575 434.419, 1053 433.509 C 1043.847 431.178, 1032.684 427.770, 1031.500 426.944 C 1030.950 426.561, 1027.800 425.922, 1024.500 425.525 C 1021.200 425.128, 1016.025 423.773, 1013 422.513 C 999.469 416.879, 986.222 414.066, 968.092 412.977 C 958.526 412.402, 950.234 411.645, 949.664 411.293 C 948.152 410.358, 926.102 407.980, 914.500 407.500 C 908.048 407.233, 902.016 407.604, 897.500 408.545" stroke="#7f3c1a" fill="#7f3c1a" fill-opacity="0.2" fill-rule="evenodd"/><path class="svg-region-APB" d="M 998 368 C 997.175 368.533, 995.708 368.976, 994.739 368.985 C 993.771 368.993, 991.071 369.863, 988.739 370.917 C 982.292 373.834, 972.894 375.001, 955.918 374.993 C 941.908 374.988, 939.535 374.717, 929.926 372.034 C 919.474 369.116, 919.110 369.086, 898.426 369.466 C 886.917 369.678, 876.825 370.065, 876 370.327 C 873.442 371.140, 855.031 372.934, 843.755 373.470 C 826.798 374.275, 808.363 377.225, 804 379.831 C 796.812 384.124, 794.916 385.762, 793.963 388.500 C 793.215 390.648, 791.580 392.127, 788.205 393.706 C 783.769 395.781, 772 406.067, 772 407.868 C 772 408.322, 771.212 409.621, 770.250 410.754 C 769.288 411.887, 767.825 413.808, 767 415.022 C 766.175 416.237, 764.712 418.263, 763.750 419.523 C 762.787 420.784, 762 422.219, 762 422.712 C 762 423.205, 760.650 425.737, 759 428.339 C 757.350 430.941, 756 433.509, 756 434.046 C 756 434.583, 755.067 437.007, 753.926 439.434 C 752.786 441.860, 751.998 445.118, 752.176 446.673 C 752.485 449.370, 752.735 449.498, 757.610 449.465 C 760.421 449.445, 764.471 448.722, 766.610 447.857 C 772.076 445.646, 776.773 443.991, 782 442.433 C 789.114 440.313, 796.048 437.900, 802 435.474 C 805.025 434.241, 809.300 432.775, 811.500 432.217 C 813.700 431.658, 818.650 429.982, 822.500 428.492 C 826.350 427.001, 831.300 425.565, 833.500 425.300 C 835.700 425.034, 839.975 423.664, 843 422.254 C 846.025 420.843, 849.850 419.350, 851.500 418.934 C 853.150 418.519, 857.076 417.239, 860.225 416.089 C 863.374 414.940, 867.199 413.999, 868.725 413.999 C 870.251 413.998, 874.650 413.369, 878.500 412.600 C 882.350 411.831, 890.450 410.208, 896.500 408.993 C 908.414 406.599, 914.780 406.673, 936 409.449 C 947.435 410.945, 962.224 412.499, 978.250 413.889 C 988.617 414.788, 1007.097 419.489, 1013.977 422.977 C 1015.915 423.960, 1020.407 425.097, 1023.960 425.504 C 1027.513 425.912, 1031.113 426.599, 1031.960 427.032 C 1036.279 429.241, 1044.576 432, 1046.895 432 C 1048.341 432, 1053.069 433.125, 1057.401 434.500 C 1066.359 437.343, 1084.003 438.172, 1083.997 435.750 C 1083.994 434.639, 1076.914 428.135, 1062.894 416.366 C 1060.361 414.240, 1057.778 411.150, 1057.155 409.500 C 1055.908 406.197, 1050.477 402.002, 1047.438 401.996 C 1046.372 401.994, 1043.025 400.435, 1040 398.533 C 1036.975 396.630, 1033.191 394.334, 1031.592 393.429 C 1024.101 389.194, 1013.438 379.650, 1009.527 373.681 C 1007.991 371.338, 1001.886 366.978, 1000.193 367.015 C 999.812 367.024, 998.825 367.467, 998 368" stroke="#ac7444" fill="#ac7444" fill-opacity="0.2" fill-rule="evenodd"/><path class="svg-region-PC" d="M 886 327.964 C 882.975 328.415, 878.700 329.272, 876.500 329.868 C 874.300 330.464, 869.983 330.963, 866.907 330.976 C 856.777 331.019, 846.840 335.480, 830 347.545 C 824.225 351.682, 818.150 355.690, 816.500 356.451 C 814.850 357.213, 811.250 358.826, 808.500 360.036 L 803.500 362.237 808.606 363.443 C 811.414 364.106, 817.804 366.762, 822.805 369.345 L 831.898 374.042 843.199 373.501 C 854.955 372.939, 873.399 371.154, 876 370.326 C 876.825 370.064, 886.725 369.673, 898 369.457 C 918.151 369.072, 918.690 369.116, 929.700 372.033 C 939.774 374.702, 942.428 375, 956.118 375 C 972.912 375, 982.314 373.823, 988.739 370.917 C 991.071 369.863, 994.018 369, 995.289 369 C 996.560 369, 998.151 368.449, 998.825 367.775 C 999.792 366.808, 1000.484 366.821, 1002.108 367.836 C 1003.821 368.905, 1004.566 368.859, 1006.548 367.560 C 1007.858 366.702, 1009.845 366, 1010.965 366 C 1014.020 366, 1013.491 364.698, 1007.985 358.674 C 1004.420 354.774, 1000.415 351.868, 994.133 348.623 C 989.273 346.113, 982.417 342.387, 978.898 340.343 C 962.960 331.087, 962.700 331, 951.018 331 C 944.294 331, 938.494 330.438, 935.409 329.487 C 929.672 327.718, 894.847 326.645, 886 327.964" stroke="#cda789" fill="#cda789" fill-opacity="0.2" fill-rule="evenodd"/><path class="svg-region-DB" d="M 706.107 339.925 C 693.940 352.930, 688.204 359.702, 687.535 361.849 C 686.905 363.870, 687.078 364.110, 688.780 363.570 C 689.867 363.225, 694.107 362.746, 698.203 362.505 C 702.298 362.264, 707.469 361.839, 709.693 361.560 C 715.362 360.847, 716.490 362.466, 720.799 377.500 C 721.586 380.248, 722.108 380.546, 727.011 381.045 C 729.955 381.345, 732.544 382.132, 732.765 382.795 C 732.986 383.458, 733.748 384, 734.458 384 C 736.050 384, 737.002 388.453, 736.995 395.875 C 736.991 400.835, 736.606 401.914, 733.737 405 C 731.947 406.925, 729.137 409.625, 727.492 411 C 719.267 417.873, 714.067 429.125, 717.191 433.291 C 718.688 435.289, 716.835 435.782, 736.500 428.152 C 740.900 426.445, 746.300 424.626, 748.500 424.110 C 758.509 421.763, 763.466 420.078, 764.443 418.693 C 765.024 417.867, 766.175 416.207, 767 415.003 C 767.825 413.799, 769.288 411.887, 770.250 410.754 C 771.212 409.621, 772 408.361, 772 407.953 C 772 406.210, 783.900 395.782, 788.226 393.736 C 791.606 392.136, 793.288 390.608, 794.135 388.365 C 794.917 386.294, 797.077 384.164, 800.496 382.092 C 806.682 378.343, 809.638 377.430, 820.357 375.964 C 824.836 375.351, 829.175 374.629, 830 374.360 C 832.258 373.622, 815.505 365.167, 808.466 363.492 C 805.148 362.703, 799.748 360.734, 796.466 359.116 C 787.804 354.847, 781.604 353, 775.937 353 C 772.429 353, 769.240 352.144, 765.221 350.124 C 762.075 348.542, 757.925 346.933, 756 346.548 C 752.776 345.903, 740.737 342.565, 731.764 339.829 C 729.710 339.202, 727.278 337.859, 726.359 336.845 C 725.040 335.387, 723.224 335, 717.702 335 L 710.714 335 706.107 339.925 M 1110.500 342.841 C 1108.190 344.118, 1104.738 344.511, 1095.500 344.547 C 1084.338 344.591, 1083.184 344.781, 1078.967 347.265 C 1072.099 351.312, 1066.183 353.073, 1059.280 353.126 C 1055.251 353.157, 1049.785 354.209, 1043.893 356.087 C 1038.867 357.689, 1034.023 359.004, 1033.127 359.009 C 1032.232 359.014, 1027 360.580, 1021.500 362.488 C 1016 364.397, 1010.543 365.968, 1009.372 365.979 C 1008.202 365.991, 1006.678 366.683, 1005.986 367.517 C 1004.928 368.792, 1005.681 370.107, 1010.713 375.767 C 1016.878 382.702, 1024.863 389.504, 1031 393.048 C 1032.925 394.160, 1036.975 396.627, 1040 398.530 C 1043.025 400.434, 1046.358 401.994, 1047.406 401.996 C 1050.081 402.002, 1055.983 406.733, 1057.353 409.970 C 1057.984 411.461, 1061.579 415.292, 1065.343 418.482 L 1072.186 424.283 1087.843 424.700 C 1097.459 424.956, 1105.567 425.696, 1108.857 426.618 C 1111.804 427.443, 1114.454 427.880, 1114.745 427.588 C 1115.413 426.920, 1109.766 416.006, 1108.750 416.002 C 1108.338 416.001, 1108 415.507, 1108 414.904 C 1108 414.302, 1107.151 412.614, 1106.113 411.154 C 1105.075 409.694, 1103.654 406.587, 1102.955 404.250 L 1101.683 400 1094.842 400 C 1089.309 400, 1087.613 399.613, 1085.978 397.978 C 1084.154 396.154, 1084.021 395.152, 1084.613 387.728 C 1084.974 383.203, 1085.704 378.949, 1086.235 378.276 C 1087.986 376.058, 1093.749 375.688, 1099.129 377.448 C 1101.942 378.368, 1104.831 378.895, 1105.549 378.620 C 1106.267 378.344, 1107.395 378.771, 1108.057 379.568 C 1108.718 380.366, 1111.001 381.296, 1113.130 381.637 C 1116.207 382.129, 1117.003 382.691, 1117.014 384.378 C 1117.021 385.545, 1117.299 387.512, 1117.630 388.750 C 1118.231 390.992, 1118.313 391, 1139.367 391.044 C 1150.990 391.068, 1163.875 391.479, 1168 391.957 C 1172.125 392.435, 1175.662 392.667, 1175.859 392.471 C 1176.057 392.275, 1175.269 390.782, 1174.109 389.153 C 1172.949 387.524, 1172 385.001, 1172 383.546 C 1172 382.091, 1171.272 379.494, 1170.383 377.774 C 1169.186 375.459, 1168.930 373.251, 1169.398 369.275 L 1170.029 363.903 1164.264 361.364 C 1161.094 359.968, 1157.709 358.117, 1156.743 357.251 C 1154.673 355.397, 1153.915 354.966, 1141.779 348.738 C 1133.665 344.574, 1131.731 343.978, 1126.372 343.988 C 1123.002 343.995, 1118.727 343.366, 1116.872 342.591 C 1113.892 341.346, 1113.151 341.375, 1110.500 342.841 M 1032 386.959 C 1032 388.660, 1050.877 400, 1053.709 400 C 1054.928 400, 1058.209 400.900, 1061 402 C 1066.660 404.231, 1071 404.597, 1071 402.844 C 1071 398.680, 1058.029 389, 1052.449 389 C 1051.030 389, 1049.111 388.611, 1048.184 388.136 C 1045.840 386.934, 1032 385.928, 1032 386.959" stroke="#e8b1e4" fill="#e8b1e4" fill-opacity="0.2" fill-rule="evenodd"/><path class="svg-region-MB" d="M 754.579 422.485 C 752.422 423.253, 748.822 424.188, 746.579 424.562 C 744.335 424.936, 740.467 426.267, 737.983 427.520 C 735.499 428.772, 731.449 430.336, 728.983 430.995 C 723.919 432.347, 711.242 438.425, 709.065 440.544 C 707.856 441.722, 707.839 442.331, 708.960 444.425 C 710.636 447.556, 709.169 450.068, 702.415 455.634 C 692.347 463.932, 691.293 465.272, 690.024 471.382 C 689.020 476.223, 688.027 477.975, 684.098 481.848 C 681.502 484.407, 678.281 487.242, 676.939 488.149 L 674.500 489.799 676.924 492.399 C 680.217 495.931, 686.902 495.971, 693.813 492.500 C 699.382 489.703, 701.248 489.493, 705.962 491.137 C 709.150 492.248, 709.325 492.155, 713.861 486.922 C 716.412 483.978, 721.087 479.110, 724.250 476.102 C 727.413 473.095, 730 470.116, 730 469.481 C 730 467.135, 743.569 455.241, 748.826 452.979 C 752.527 451.388, 753.792 450.392, 753.054 449.654 C 751.419 448.019, 751.804 443.782, 754 439.236 C 755.100 436.959, 756 434.641, 756 434.083 C 756 433.526, 757.350 430.941, 759 428.339 C 763.738 420.868, 762.759 419.570, 754.579 422.485 M 1074.040 425.258 C 1074.062 425.941, 1076.312 428.261, 1079.040 430.414 C 1086.083 435.971, 1085.653 436.991, 1076.250 437.041 L 1068.500 437.081 1071.916 440.002 C 1073.795 441.609, 1077.764 444.075, 1080.736 445.482 C 1088.490 449.153, 1095.726 454.775, 1108.174 466.802 C 1119.407 477.655, 1125 484.691, 1125 487.969 C 1125 488.997, 1125.787 491.337, 1126.750 493.169 C 1127.713 495.001, 1128.517 496.592, 1128.538 496.704 C 1128.558 496.817, 1130.471 497.212, 1132.788 497.582 C 1136.092 498.110, 1137 497.947, 1137 496.822 C 1137 496.034, 1138.125 493.864, 1139.500 492 C 1140.875 490.136, 1142 487.600, 1142 486.365 C 1142 485.129, 1142.450 483.840, 1143 483.500 C 1143.550 483.160, 1144 481.360, 1144 479.500 C 1144 477.640, 1144.357 475.898, 1144.792 475.628 C 1145.228 475.359, 1145.076 471.047, 1144.455 466.047 C 1143.191 455.879, 1140.164 450.242, 1133.957 446.500 C 1130.701 444.537, 1128.672 442.553, 1120.336 433.181 C 1114.313 426.409, 1111.101 425.595, 1086.250 424.538 C 1076.869 424.139, 1074.009 424.308, 1074.040 425.258" stroke="#f9c6c6" fill="#f9c6c6" fill-opacity="0.2" fill-rule="evenodd"/><path class="svg-region-AP" d="M 1006 477.658 C 1004.625 477.891, 1000.125 478.797, 996 479.670 C 991.875 480.543, 986.250 481.608, 983.500 482.036 C 969.253 484.255, 965.669 485.006, 958.405 487.298 C 930.666 496.046, 913.107 496.898, 886 490.811 C 883.525 490.255, 877.900 489.428, 873.500 488.974 C 863.533 487.944, 852.049 486.323, 845.500 485.021 C 842.750 484.474, 835.325 483.795, 829 483.511 C 822.675 483.226, 816.038 482.719, 814.250 482.383 C 810.302 481.642, 810.287 481.833, 813.500 491.405 C 814.875 495.501, 816.029 499.673, 816.063 500.676 C 816.203 504.684, 826.668 522.668, 831.913 527.913 L 835.786 531.786 836.505 544.246 C 836.900 551.099, 836.914 558.116, 836.535 559.841 C 835.897 562.745, 831.912 567, 829.830 567 C 829.335 567, 827.812 567.732, 826.447 568.627 C 824.352 569.999, 824.191 570.429, 825.415 571.377 C 826.313 572.071, 827.047 574.980, 827.338 579 C 827.598 582.575, 828.380 588.101, 829.077 591.280 C 830.240 596.580, 830.155 597.638, 828.060 604.030 C 825.874 610.699, 825.639 611, 822.623 611 C 818.618 611, 810.724 608.123, 805.270 604.674 C 797.209 599.578, 798.055 601.624, 808.538 612.578 C 813.235 617.485, 819.812 625.100, 823.154 629.500 C 831.984 641.124, 841.626 649.126, 862.774 662.377 C 869.748 666.747, 883.691 669.200, 903.375 669.520 C 915.353 669.714, 921.157 669.422, 923.375 668.513 C 925.094 667.809, 930.440 666.684, 935.255 666.013 C 940.071 665.341, 944.260 664.389, 944.564 663.896 C 944.869 663.403, 946.339 663, 947.831 663 C 950.901 663, 960.853 660.231, 968.905 657.136 C 978.345 653.508, 989.601 645.853, 999.196 636.535 C 1007.358 628.608, 1009.104 626.271, 1013.417 617.499 C 1016.121 612, 1018.977 606.231, 1019.764 604.681 C 1021.814 600.642, 1020.744 600.407, 1016.655 603.998 C 1013.655 606.632, 1012.427 607.071, 1008.800 606.810 C 1004.520 606.501, 1004.490 606.472, 1002.365 600.500 C 1001.191 597.200, 999.925 591.458, 999.553 587.741 C 998.983 582.036, 999.171 580.554, 1000.761 578.241 C 1001.797 576.733, 1003.404 573.849, 1004.331 571.830 C 1005.259 569.812, 1006.576 567.965, 1007.259 567.727 C 1008.187 567.402, 1008.103 566.815, 1006.922 565.396 C 1004.456 562.433, 1001.262 556.507, 997.996 548.832 C 995.464 542.880, 995 540.489, 995 533.382 C 995 524.355, 995.452 523.060, 1001.063 516 C 1006.977 508.560, 1015.280 495.798, 1019 488.432 C 1020.925 484.619, 1022.935 481.188, 1023.466 480.807 C 1025.705 479.202, 1011.739 476.684, 1006 477.658" stroke="#fc7143" fill="#fc7143" fill-opacity="0.2" fill-rule="evenodd"/><path class="svg-region-LPl" d="M 780 482.167 C 778.075 482.724, 776.050 483.512, 775.500 483.918 C 774.950 484.324, 772.404 485.429, 769.843 486.375 C 766.907 487.459, 763.580 489.852, 760.843 492.849 C 749.744 505, 745.923 509.669, 745.375 511.750 C 744.877 513.645, 744.101 514, 740.460 514 C 736.829 514, 735.805 514.465, 734.068 516.904 C 732.343 519.327, 732 521.312, 732 528.877 C 732 536.623, 732.388 538.766, 734.662 543.568 C 738.529 551.735, 751.436 564.549, 761.386 570.100 C 766.021 572.686, 770.322 575.943, 771.819 578 C 775.164 582.596, 780.731 587.936, 781.440 587.227 C 781.748 586.919, 782 585.585, 782 584.264 C 782 581.948, 786.487 574.513, 790.011 570.989 C 792.402 568.598, 800.551 566, 805.657 566 C 808.023 566, 812.899 566.965, 816.493 568.145 C 822.881 570.242, 823.125 570.250, 827.264 568.495 C 829.594 567.507, 832.737 565.409, 834.250 563.833 C 836.781 561.197, 836.995 560.352, 836.938 553.234 C 836.904 548.980, 836.544 542.182, 836.138 538.127 C 835.456 531.310, 835.121 530.499, 831.693 527.358 C 827.209 523.248, 818.752 508.570, 816.507 501 C 815.610 497.975, 813.881 492.350, 812.665 488.500 L 810.455 481.500 796.977 481.326 C 789.565 481.231, 781.925 481.609, 780 482.167" stroke="#d2454f" fill="#d2454f" fill-opacity="0.2" fill-rule="evenodd"/><path class="svg-region-LPr" d="M 1023.500 480.765 C 1022.950 481.169, 1021.184 484.131, 1019.576 487.347 C 1016.208 494.085, 1004.965 511.315, 1001.532 515 C 996.144 520.785, 995.008 523.984, 995.004 533.381 C 995 541.775, 995.251 542.825, 999.587 552.538 C 1002.110 558.191, 1005.184 563.764, 1006.418 564.923 L 1008.662 567.031 1010.486 565.016 C 1011.489 563.907, 1013.050 563, 1013.955 563 C 1014.860 563, 1016.103 562.497, 1016.718 561.882 C 1017.416 561.184, 1020.533 560.917, 1025.038 561.172 C 1031.411 561.532, 1032.515 561.898, 1034.621 564.345 C 1037.612 567.823, 1037.748 573.754, 1034.978 579.859 C 1031.850 586.752, 1032.574 586.728, 1039.250 579.717 C 1048.667 569.827, 1053.520 566.231, 1060.324 564.101 C 1068.940 561.403, 1076.080 558.140, 1078.860 555.630 C 1083.077 551.823, 1088.085 542.921, 1090.963 534.113 C 1093.434 526.553, 1093.667 524.819, 1092.860 519.997 C 1092.355 516.974, 1092.058 511.507, 1092.200 507.849 L 1092.458 501.199 1087.550 497.143 C 1082.478 492.951, 1077.856 490.890, 1065 487.084 C 1060.875 485.863, 1055.475 484.224, 1053 483.441 C 1050.525 482.658, 1043.325 481.568, 1037 481.018 C 1023.388 479.833, 1024.734 479.859, 1023.500 480.765" stroke="#d2454f" fill="#d2454f" fill-opacity="0.2" fill-rule="evenodd"/><path class="svg-region-Ol" d="M 441.655 343.235 C 441.020 343.639, 438.001 343.976, 434.947 343.985 C 431.893 343.993, 425.143 345.140, 419.947 346.534 C 414.751 347.927, 408.925 349.313, 407 349.613 C 405.075 349.914, 402.600 350.530, 401.500 350.982 C 397.159 352.768, 388.294 355.910, 384.500 357.007 C 376.469 359.330, 356.234 370.142, 342.485 379.457 C 334.113 385.129, 319.419 397.879, 313.952 404.216 C 305.927 413.516, 294.132 429.089, 291.129 434.348 C 289.825 436.632, 287.318 440.750, 285.557 443.500 C 283.796 446.250, 281.083 450.975, 279.529 454 C 275.705 461.440, 261.705 501.371, 262.605 502.271 C 262.817 502.484, 261.603 508.022, 259.908 514.579 L 256.825 526.500 257.318 551.500 C 257.684 570.053, 258.244 578.305, 259.490 583.500 C 260.414 587.350, 261.771 593.200, 262.506 596.500 C 264.721 606.440, 265.752 609.995, 266.792 611.278 C 267.337 611.950, 268.492 614.525, 269.359 617 C 273.835 629.775, 276.422 635.785, 282.345 647.164 C 285.912 654.018, 290.820 662.523, 293.251 666.063 C 295.683 669.603, 299.636 675.352, 302.036 678.838 C 309.360 689.478, 331.333 712.882, 343 722.470 C 345.475 724.504, 348.400 726.926, 349.500 727.852 C 351.327 729.390, 353.387 730.832, 365.500 739.052 C 373.620 744.563, 402.130 758, 405.703 758 C 406.449 758, 409.859 759.179, 413.280 760.619 C 419.568 763.267, 428.490 765.157, 444 767.126 C 454.284 768.431, 487.654 767.800, 490.549 766.245 C 491.676 765.640, 496.401 764.678, 501.049 764.108 C 508.323 763.216, 516.887 761.516, 536.757 757.021 C 539.099 756.491, 543.824 754.996, 547.257 753.699 C 555.660 750.524, 572.660 745, 574.026 745 C 575.004 745, 585.660 740.346, 590.236 737.920 C 591.191 737.414, 592.541 736.997, 593.236 736.994 C 593.931 736.990, 595.719 736.352, 597.208 735.575 C 598.697 734.798, 602.522 733.630, 605.708 732.979 C 611.223 731.851, 614.449 730.802, 618.176 728.921 C 619.956 728.023, 635.171 723.865, 646 721.317 C 652.397 719.811, 664.101 716.591, 669 714.987 C 670.375 714.537, 673.005 713.909, 674.844 713.591 C 684.495 711.922, 698.978 702.060, 704.867 693.147 C 706.556 690.591, 709.986 686.250, 712.490 683.500 C 714.994 680.750, 717.955 676.700, 719.071 674.500 C 720.186 672.300, 721.511 669.825, 722.015 669 C 727.102 660.676, 733.952 637.542, 736.080 621.500 C 737.693 609.338, 735.737 573.940, 733.041 566.500 C 732.044 563.750, 730.177 558.125, 728.891 554 C 726.817 547.345, 724.245 541.989, 718.883 533.162 C 717.994 531.698, 717.421 530.223, 717.609 529.884 C 718.321 528.606, 714.320 526.239, 709.500 525.087 C 706.750 524.430, 702.250 522.688, 699.500 521.215 L 694.500 518.539 655.714 518.519 C 629.494 518.506, 616.697 518.843, 616.214 519.560 C 615.821 520.143, 612.350 521.646, 608.500 522.900 C 599.458 525.846, 592 529.136, 592 530.178 C 592 530.630, 591.190 531, 590.200 531 C 589.210 531, 587.896 531.504, 587.280 532.120 C 585.310 534.090, 558.320 531.848, 556.500 529.563 C 555.950 528.872, 554.038 527.552, 552.250 526.628 C 549.653 525.286, 549 524.331, 549 521.876 C 549 519.750, 548.075 517.938, 546 516 C 544.350 514.459, 543 512.754, 543 512.211 C 543 511.669, 546.101 510.208, 549.892 508.966 C 555.842 507.015, 557.106 506.165, 559.142 502.750 C 560.439 500.574, 562.737 497.318, 564.250 495.515 C 568.131 490.887, 567.855 489.680, 563.098 490.483 C 558.373 491.282, 547.628 488.797, 540.500 485.259 C 527.833 478.970, 524.218 473.056, 522.918 456.500 C 522.443 450.450, 521.349 440.550, 520.487 434.500 C 516.884 409.221, 515.878 399.188, 516.404 393.797 C 516.724 390.513, 516.544 387.836, 515.980 387.488 C 515.441 387.154, 514.995 385.221, 514.988 383.191 C 514.982 381.161, 514.273 377.025, 513.414 374 C 512.555 370.975, 511.266 365.608, 510.550 362.073 C 509.457 356.682, 508.629 355.095, 505.418 352.238 C 499.842 347.276, 494.538 344.894, 486.559 343.770 C 478.202 342.593, 443.319 342.177, 441.655 343.235" stroke="#aa444d" fill="#aa444d" fill-opacity="0.2" fill-rule="evenodd"/><path class="svg-region-Or" d="M 1363.500 299 C 1361.850 299.420, 1358.603 299.817, 1356.284 299.882 C 1353.965 299.947, 1350.590 300.616, 1348.784 301.369 C 1344.298 303.240, 1339.365 304.927, 1333.962 306.438 C 1328.585 307.942, 1322.500 311.663, 1318.921 315.637 C 1315.001 319.988, 1310 328.121, 1310 330.143 C 1310 331.133, 1308.604 335.668, 1306.897 340.221 L 1303.794 348.500 1303.944 372.497 C 1304.030 386.152, 1304.505 396.905, 1305.047 397.447 C 1307.735 400.135, 1305.108 430.074, 1301.597 436.777 C 1297.182 445.205, 1284.105 452.238, 1268.250 454.712 C 1266.463 454.991, 1265.014 455.507, 1265.032 455.859 C 1265.099 457.209, 1267.646 459.673, 1271.250 461.873 C 1273.313 463.133, 1275 464.503, 1275 464.918 C 1275 465.333, 1277.727 466.430, 1281.060 467.357 C 1285.635 468.629, 1288.062 470.032, 1290.966 473.085 C 1297.286 479.729, 1297.865 481.665, 1296.162 490.464 C 1294.752 497.742, 1294.605 498, 1291.851 498 C 1290.283 498, 1289 497.550, 1289 497 C 1289 496.450, 1287.157 496, 1284.904 496 C 1280.495 496, 1275 499.089, 1275 501.568 C 1275 502.557, 1273.839 502.999, 1271.250 502.997 C 1268.548 502.995, 1265.824 501.878, 1261.500 499 C 1258.200 496.804, 1254.669 495.005, 1253.654 495.003 C 1252.639 495.001, 1250.529 494.244, 1248.965 493.320 C 1246.379 491.793, 1244.551 491.748, 1228.810 492.829 C 1206.528 494.359, 1200.971 494.293, 1198.559 492.468 C 1195.969 490.509, 1179.589 490.444, 1175.882 492.378 C 1174.354 493.176, 1167.902 494.052, 1160.382 494.484 C 1149.040 495.136, 1146.843 495.562, 1142 498.049 C 1138.975 499.602, 1134.925 501.164, 1133 501.520 C 1125.600 502.889, 1122.685 505.122, 1119.318 512 C 1115.564 519.667, 1109.403 537.709, 1108.477 543.745 C 1108.119 546.079, 1107.415 548.243, 1106.913 548.554 C 1106.411 548.864, 1106 550.921, 1106 553.125 C 1106 555.328, 1105.507 558.053, 1104.904 559.180 C 1103.697 561.435, 1103.263 590.998, 1104.409 592.853 C 1104.789 593.468, 1105.504 596.340, 1105.997 599.236 C 1106.490 602.131, 1107.802 609.450, 1108.914 615.500 C 1110.025 621.550, 1111.197 628.693, 1111.519 631.373 C 1111.840 634.054, 1112.755 636.898, 1113.552 637.695 C 1114.348 638.491, 1115 639.961, 1115 640.961 C 1115 643.445, 1122.564 653.462, 1128.841 659.290 C 1131.679 661.925, 1134 664.475, 1134 664.959 C 1134 665.442, 1135.688 666.877, 1137.750 668.149 C 1139.813 669.420, 1142.540 671.692, 1143.811 673.197 C 1149.767 680.250, 1169.122 689.663, 1187.657 694.521 C 1193.071 695.939, 1199.750 697.738, 1202.500 698.518 C 1210.162 700.690, 1226.199 703.900, 1239.500 705.924 C 1246.100 706.928, 1252.850 708.203, 1254.500 708.758 C 1256.150 709.313, 1259.525 710.334, 1262 711.027 C 1268.534 712.858, 1278.746 716.484, 1284.500 719.016 C 1291.881 722.265, 1300.970 725.743, 1315 730.688 C 1337.562 738.639, 1342.100 740.021, 1348.839 740.996 C 1352.503 741.527, 1358.425 742.575, 1362 743.327 C 1369.664 744.938, 1390.732 743.967, 1400.500 741.552 C 1403.800 740.736, 1408.525 739.786, 1411 739.440 C 1416.341 738.695, 1433.901 733.197, 1446.500 728.326 C 1454.727 725.146, 1478.818 713.156, 1481.718 710.798 C 1482.388 710.254, 1485.445 708.297, 1488.512 706.451 C 1506.940 695.354, 1535.117 670.287, 1544.099 657 C 1548.328 650.744, 1556 638.136, 1556 637.442 C 1556 637.257, 1557.527 633.820, 1559.393 629.803 C 1566.513 614.478, 1572.187 593.246, 1575.081 571.093 C 1576.391 561.063, 1576.348 510.181, 1575.019 497.541 C 1573.669 484.708, 1572.223 475.717, 1570.985 472.460 C 1570.443 471.035, 1569.987 468.437, 1569.971 466.685 C 1569.955 464.933, 1569.032 460.350, 1567.921 456.500 C 1566.809 452.650, 1565.205 447.025, 1564.357 444 C 1563.508 440.975, 1561.806 436.250, 1560.575 433.500 C 1559.343 430.750, 1557.799 426.316, 1557.144 423.647 C 1554.356 412.291, 1536.601 380.500, 1527.919 371.321 C 1525.213 368.460, 1523 365.494, 1523 364.730 C 1523 363.227, 1514.540 353.492, 1506.500 345.743 C 1500.514 339.974, 1482.574 327.683, 1475.536 324.529 C 1472.766 323.287, 1468.025 321.122, 1465 319.716 C 1452.624 313.966, 1448.197 312.444, 1426.500 306.483 C 1403.714 300.223, 1373.022 296.577, 1363.500 299" stroke="#aa444d" fill="#aa444d" fill-opacity="0.2" fill-rule="evenodd"/><path class="svg-region-Pl" d="M 544.500 357.975 C 536.371 361.841, 522.732 377.278, 517.722 388.284 C 515.670 392.793, 515.611 398.824, 517.481 413 C 518.243 418.775, 519.792 430.475, 520.922 439 C 522.052 447.525, 522.985 456.525, 522.994 459 C 523.035 469.906, 528.193 478.461, 538.071 484.008 C 541.685 486.038, 545.960 488.010, 547.571 488.392 C 557.374 490.712, 559.788 490.924, 567.109 490.105 C 573.371 489.404, 576.047 488.547, 580.237 485.901 C 594.134 477.125, 610.815 457.201, 615.319 444 C 617.954 436.275, 619.720 422.324, 618.301 420.430 C 617.861 419.842, 614.264 418.331, 610.309 417.073 C 606.353 415.816, 602.383 413.976, 601.486 412.985 C 600.589 411.994, 598.641 410.680, 597.156 410.065 C 593.796 408.673, 587.007 400.892, 583.981 394.966 C 582.461 391.990, 581.565 388.165, 581.294 383.500 C 581.071 379.650, 580.686 375.511, 580.438 374.303 C 579.725 370.819, 571.587 363.296, 564.413 359.490 C 556.741 355.420, 550.820 354.970, 544.500 357.975" stroke="#f9d3d3" fill="#f9d3d3" fill-opacity="0.2" fill-rule="evenodd"/><path class="svg-region-Pr" d="M 1256.081 335.576 C 1247.878 339.300, 1242.517 344.201, 1239.472 350.761 C 1233.868 362.830, 1231.033 368.114, 1229.606 369.148 C 1229.114 369.505, 1229.676 371.358, 1230.856 373.266 C 1232.035 375.175, 1233 376.955, 1233 377.223 C 1233 378.284, 1224.083 386.679, 1219.850 389.603 C 1214.255 393.469, 1210.518 400.619, 1211.617 405.358 C 1212.018 407.086, 1212.434 411.200, 1212.542 414.500 C 1212.863 424.339, 1214.812 429.753, 1219.328 433.355 C 1221.496 435.085, 1224.447 437.707, 1225.885 439.182 C 1228.725 442.095, 1241.626 451, 1243.007 451 C 1243.475 451, 1244.452 451.568, 1245.179 452.263 C 1248.749 455.675, 1252.188 457, 1257.478 457 C 1260.530 457, 1263.809 456.599, 1264.764 456.109 C 1265.719 455.619, 1269.875 454.431, 1274 453.470 C 1288.337 450.127, 1299.115 443.297, 1302.441 435.445 C 1304.740 430.018, 1306.234 416.003, 1305.579 406 C 1305.237 400.775, 1304.622 388.400, 1304.212 378.500 C 1303.786 368.226, 1302.942 359.306, 1302.246 357.718 C 1300.520 353.785, 1283.530 336.479, 1279.531 334.582 C 1274.242 332.072, 1262.723 332.560, 1256.081 335.576" stroke="#f9d3d3" fill="#f9d3d3" fill-opacity="0.2" fill-rule="evenodd"/><path class="svg-region-DLl" d="M 613.500 360.894 C 610.750 361.914, 603.325 365.097, 597 367.968 C 590.675 370.839, 584.708 373.425, 583.739 373.714 C 582.771 374.003, 581.699 375.350, 581.358 376.709 C 580.305 380.905, 581.705 390.821, 583.961 395.149 C 586.771 400.540, 593.763 408.790, 596.170 409.554 C 597.214 409.885, 598.888 411.037, 599.891 412.113 C 600.893 413.189, 605.426 415.383, 609.964 416.987 C 617.858 419.779, 618.330 419.833, 620.858 418.235 C 625.322 415.413, 628.064 412.894, 637.598 402.864 C 646.232 393.780, 649.072 390.223, 649.511 387.943 C 649.743 386.737, 650.632 384.684, 651.487 383.380 C 653.340 380.551, 652.761 377.250, 649.368 371.298 C 647.014 367.170, 646.033 366.426, 637 361.927 C 630.818 358.848, 620.266 358.384, 613.500 360.894" stroke="#b7d6d3" fill="#b7d6d3" fill-opacity="0.2" fill-rule="evenodd"/><path class="svg-region-DLr" d="M 1181.500 346.200 C 1178.167 348.097, 1172.493 354.384, 1171.271 357.534 C 1169.126 363.060, 1168.668 374.269, 1170.416 378.452 C 1171.287 380.538, 1172 383.132, 1172 384.218 C 1172 385.303, 1172.862 387.402, 1173.916 388.882 C 1174.970 390.362, 1176.226 393.095, 1176.708 394.954 C 1177.190 396.814, 1178.240 398.640, 1179.042 399.012 C 1179.844 399.385, 1181.400 400.140, 1182.500 400.692 C 1183.600 401.243, 1186.975 402.264, 1190 402.960 C 1193.025 403.656, 1196.534 404.625, 1197.797 405.113 C 1199.060 405.601, 1201.794 406, 1203.873 406 C 1208.012 406, 1211.197 403.421, 1212.516 399 C 1213.703 395.025, 1216.737 391.319, 1220.768 388.920 C 1224.205 386.875, 1233 378.321, 1233 377.024 C 1233 376.716, 1231.875 374.809, 1230.500 372.785 C 1229.125 370.762, 1228 368.711, 1228 368.227 C 1228 367.744, 1226.836 366.258, 1225.412 364.924 C 1223.989 363.591, 1221.663 360.131, 1220.243 357.234 C 1218.331 353.336, 1216.297 351.064, 1212.411 348.484 L 1207.161 345 1195.331 345.030 C 1188.378 345.048, 1182.675 345.530, 1181.500 346.200" stroke="#b7d6d3" fill="#b7d6d3" fill-opacity="0.2" fill-rule="evenodd"/><path class="svg-region-OGl" d="M 565.248 319.899 C 551.082 325.168, 548.002 328.849, 548.005 340.500 C 548.008 347.985, 550.458 354, 553.505 354 C 554.349 354, 556.718 355.052, 558.770 356.337 C 570.103 363.439, 581.820 367.695, 585.805 366.158 C 587.287 365.586, 591.126 364.561, 594.335 363.881 C 599.107 362.869, 600.655 362.007, 602.835 359.145 C 605.278 355.938, 605.491 354.918, 605.389 346.925 C 605.261 336.972, 603.266 331.588, 597.706 326.200 C 590.799 319.505, 574.704 316.381, 565.248 319.899" stroke="#d66e9d" fill="#d66e9d" fill-opacity="0.2" fill-rule="evenodd"/><path class="svg-region-OGr" d="M 1226.231 302.091 C 1219.996 305.115, 1219.938 305.183, 1215.465 314.628 C 1212.991 319.852, 1210.888 325.110, 1210.791 326.313 C 1210.695 327.516, 1212.106 331.521, 1213.927 335.213 C 1216.852 341.143, 1217.747 342.120, 1221.605 343.593 C 1230.015 346.805, 1242.062 343.101, 1249.313 335.075 C 1252.977 331.020, 1253 330.939, 1253 322.146 C 1253 310.175, 1252.086 308.023, 1244.904 303.095 C 1237.641 298.111, 1234.759 297.956, 1226.231 302.091" stroke="#d66e9d" fill="#d66e9d" fill-opacity="0.2" fill-rule="evenodd"/><path class="svg-region-VOC" d="M 698.385 377.226 C 690.898 383.004, 687.002 388.220, 686.996 392.473 C 686.994 394.138, 685.869 397.714, 684.496 400.419 C 680.202 408.884, 681.711 414.980, 688.110 415.022 C 689.975 415.034, 692.625 415.924, 694 417 C 697.083 419.412, 705.765 419.690, 709.977 417.512 C 711.560 416.693, 715.068 415.851, 717.773 415.639 C 723.045 415.228, 725.096 413.907, 732.692 406.037 C 736.879 401.699, 737 401.391, 736.986 395.037 C 736.971 387.725, 736.237 384, 734.812 384 C 734.287 384, 733.182 383.325, 732.357 382.500 C 731.314 381.457, 728.757 381, 723.959 381 C 717.453 381, 716.934 380.829, 714.842 378 C 712.830 375.279, 712.095 375, 706.947 375 C 702.608 375, 700.590 375.525, 698.385 377.226 M 1088.352 376.993 C 1085.243 378.248, 1084.974 379.038, 1084.497 388.336 C 1083.893 400.097, 1084.336 400.441, 1099.259 399.782 C 1110.767 399.274, 1116.439 397.625, 1117.665 394.432 C 1117.974 393.626, 1117.924 390.545, 1117.554 387.584 C 1116.898 382.336, 1116.788 382.183, 1113.191 381.511 C 1111.161 381.131, 1108.908 380.332, 1108.185 379.734 C 1107.462 379.136, 1105.887 378.543, 1104.685 378.416 C 1103.483 378.289, 1100.700 377.705, 1098.500 377.117 C 1093.759 375.850, 1091.262 375.819, 1088.352 376.993" stroke="#ff8f93" fill="#ff8f93" fill-opacity="0.2" fill-rule="evenodd"/><path class="svg-region-OABl" d="M 693.683 492.526 C 689.315 494.769, 687.700 495, 676.366 495 C 664.767 495, 663.637 495.171, 660.683 497.376 C 658.932 498.683, 655.700 500.314, 653.500 500.999 C 651.300 501.685, 648.505 503.152, 647.290 504.260 C 645.144 506.215, 638.561 509.284, 628.672 512.940 C 626.017 513.922, 622.707 515.575, 621.317 516.613 C 618.822 518.475, 619.155 518.495, 646.599 518.142 C 671.554 517.822, 674.771 517.591, 677.940 515.892 C 679.881 514.852, 682.411 514, 683.561 514 C 684.711 514, 686.691 512.894, 687.961 511.541 C 689.395 510.015, 692.394 508.608, 695.871 507.830 C 700.261 506.847, 702.295 505.703, 705.283 502.538 C 708.807 498.805, 712.580 493.080, 711.824 492.615 C 710.913 492.054, 701.736 490.003, 700.236 490.026 C 699.281 490.040, 696.332 491.165, 693.683 492.526" stroke="#81244d" fill="#81244d" fill-opacity="0.2" fill-rule="evenodd"/><path class="svg-region-OABr" d="M 1168.439 469.975 C 1163.456 470.345, 1158.740 471.043, 1157.958 471.526 C 1157.177 472.009, 1153.829 473.109, 1150.519 473.972 C 1144.729 475.480, 1144.488 475.672, 1144.179 479.020 C 1144.002 480.934, 1143.439 482.928, 1142.929 483.450 C 1142.418 483.972, 1142 485.400, 1142 486.623 C 1142 487.846, 1140.943 490.119, 1139.652 491.673 C 1138.361 493.228, 1137.002 495.738, 1136.633 497.250 C 1136.086 499.493, 1136.299 500, 1137.792 500 C 1138.799 500, 1140.696 499, 1142.009 497.777 C 1144.142 495.790, 1145.986 495.457, 1159.447 494.632 C 1167.979 494.109, 1174.799 493.247, 1175.190 492.642 C 1175.572 492.051, 1180.367 491.395, 1185.938 491.172 C 1194.010 490.847, 1196.483 491.087, 1198.463 492.384 C 1199.820 493.273, 1202.970 494, 1205.465 494 C 1209.531 494, 1210 493.762, 1210 491.699 C 1210 488.752, 1202.734 477.444, 1198.216 473.360 C 1193.281 468.899, 1189.184 468.433, 1168.439 469.975" stroke="#81244d" fill="#81244d" fill-opacity="0.2" fill-rule="evenodd"/><path class="svg-region-SOTl" d="M 696.387 449.092 C 692.599 451.892, 688.600 454.654, 687.500 455.229 C 685.254 456.403, 664.155 470.410, 659.978 473.500 C 658.492 474.600, 653.276 478.316, 648.388 481.757 C 637.713 489.272, 625.881 498.481, 624.496 500.352 C 623.944 501.099, 622.369 502.053, 620.996 502.473 C 617.852 503.435, 615 505.900, 615 507.655 C 615 508.700, 617.400 508.995, 625.750 508.976 C 638.636 508.948, 643.350 507.985, 646.862 504.667 C 648.313 503.295, 651.467 501.652, 653.870 501.016 C 656.274 500.379, 659.419 498.765, 660.860 497.429 C 663.176 495.281, 664.398 495, 671.414 495 L 679.349 495 677.028 492.529 C 675.102 490.480, 674.923 489.798, 675.976 488.529 C 676.674 487.688, 677.752 486.988, 678.372 486.973 C 681.668 486.894, 690 475.965, 690 471.721 C 690 467.855, 693.343 462.810, 698.362 459.102 C 705.889 453.541, 711.300 447.066, 709.864 445.336 C 707.680 442.705, 703.419 443.892, 696.387 449.092" stroke="#995b45" fill="#995b45" fill-opacity="0.2" fill-rule="evenodd"/><path class="svg-region-SOTr" d="M 1032 386.894 C 1032 387.394, 1033.463 388.760, 1035.250 389.930 C 1045.860 396.875, 1049.770 399.127, 1052 399.577 C 1053.375 399.855, 1057.200 400.968, 1060.500 402.051 C 1067.263 404.271, 1071 404.553, 1071 402.844 C 1071 398.680, 1058.029 389, 1052.449 389 C 1051.030 389, 1049.111 388.612, 1048.184 388.137 C 1045.714 386.871, 1032 385.818, 1032 386.894 M 1123.280 436.250 C 1125.267 439.375, 1128.618 442.810, 1131.559 444.735 C 1138.514 449.289, 1144 456.488, 1144 461.061 C 1144 462.457, 1145.172 462.942, 1149.750 463.437 C 1162.717 464.839, 1169 465.116, 1169 464.285 C 1169 463.801, 1167.177 461.627, 1164.950 459.453 C 1162.722 457.279, 1159.272 452.988, 1157.284 449.918 C 1154.555 445.705, 1152.509 443.804, 1148.942 442.168 C 1146.343 440.976, 1143.571 440, 1142.783 440 C 1141.994 440, 1140.355 438.942, 1139.140 437.649 C 1137.925 436.355, 1135.034 434.733, 1132.715 434.044 C 1130.397 433.355, 1127.466 432.389, 1126.203 431.896 C 1124.940 431.403, 1123.014 431, 1121.924 431 C 1120.119 431, 1120.241 431.472, 1123.280 436.250" stroke="#995b45" fill="#995b45" fill-opacity="0.2" fill-rule="evenodd"/><path class="svg-region-BPCl" d="M 796.425 567.420 C 791.732 568.977, 788.588 571.748, 784.729 577.729 C 781.017 583.481, 781.104 587.871, 785 591.342 C 786.650 592.813, 788 594.420, 788 594.913 C 788 595.407, 791.298 597.419, 795.329 599.384 C 799.360 601.349, 804.201 604.004, 806.087 605.284 C 812.802 609.841, 825.602 612.654, 826.411 609.750 C 826.603 609.063, 827.571 605.947, 828.561 602.827 C 830.145 597.837, 830.210 596.451, 829.096 591.327 C 828.399 588.122, 827.530 582.375, 827.165 578.555 L 826.500 571.610 820.500 569.247 C 813.146 566.351, 802.160 565.517, 796.425 567.420" stroke="#83385f" fill="#83385f" fill-opacity="0.2" fill-rule="evenodd"/><path class="svg-region-BPCr" d="M 1014.924 562.331 C 1010.878 564.167, 1005.642 568.988, 1004 572.392 C 1003.175 574.101, 1001.667 576.728, 1000.649 578.228 C 999.111 580.496, 998.915 582.016, 999.488 587.228 C 999.867 590.678, 1001.081 596.538, 1002.186 600.250 L 1004.195 607 1008.942 607 C 1012.445 607, 1014.172 606.467, 1015.529 604.968 C 1016.541 603.850, 1018.904 601.987, 1020.780 600.827 C 1022.790 599.584, 1024.929 597.030, 1025.986 594.609 C 1026.973 592.349, 1028.754 589.481, 1029.943 588.235 C 1033.386 584.629, 1036.979 575.928, 1036.990 571.173 C 1036.998 567.717, 1036.412 566.258, 1034.077 563.923 C 1031.395 561.241, 1030.591 561.007, 1024.327 561.081 C 1020.572 561.126, 1016.341 561.688, 1014.924 562.331" stroke="#83385f" fill="#83385f" fill-opacity="0.2" fill-rule="evenodd"/><path class="svg-region-OVl" d="M 707.849 361.485 C 707.582 361.751, 703.688 362.184, 699.194 362.447 C 689.924 362.990, 678.682 366.528, 670 371.635 C 664.717 374.743, 644.151 394.676, 630.874 409.557 C 629.430 411.176, 625.965 414.243, 623.174 416.374 C 618.708 419.783, 618.167 420.585, 618.663 423.064 C 619.407 426.785, 617.481 438.011, 614.813 445.500 C 613.538 449.079, 609.816 455.314, 605.588 460.952 C 593.978 476.434, 581.641 487.017, 572.365 489.451 C 568.048 490.584, 564.038 494.643, 559.049 502.929 C 557.701 505.168, 555.901 507.003, 555.049 507.006 C 554.197 507.010, 552.345 507.615, 550.933 508.352 C 549.522 509.088, 547.159 509.994, 545.683 510.365 C 542.224 511.233, 542.297 512.541, 546 516 C 548.071 517.934, 549 519.751, 549 521.866 C 549 524.033, 549.659 525.269, 551.250 526.090 C 552.487 526.728, 554.400 528.046, 555.500 529.020 C 557.768 531.027, 562.177 531.783, 576.525 532.623 C 585.523 533.150, 586.907 532.996, 590.025 531.126 C 595.166 528.042, 600.655 525.633, 608.500 523.016 C 612.350 521.731, 615.725 520.415, 616 520.090 C 616.793 519.155, 622.197 516.026, 625.750 514.445 C 627.537 513.650, 630.687 512.212, 632.750 511.250 L 636.500 509.500 626.511 509.211 C 621.017 509.052, 616.100 508.500, 615.585 507.985 C 614.230 506.630, 617.626 503.241, 621.104 502.477 C 622.697 502.127, 624 501.445, 624 500.960 C 624 500.475, 627.264 497.665, 631.253 494.715 C 635.242 491.765, 639.180 488.679, 640.003 487.859 C 640.826 487.038, 642.850 485.502, 644.500 484.445 C 646.150 483.388, 653.889 478.018, 661.698 472.511 C 669.507 467.005, 679.150 460.475, 683.126 458 C 687.103 455.525, 693.263 451.363, 696.815 448.750 C 700.367 446.137, 704.337 444, 705.637 444 C 707.007 444, 708 443.406, 708 442.586 C 708 441.808, 710.220 439.806, 712.932 438.137 C 717.672 435.220, 717.822 434.990, 716.780 432.227 C 715.411 428.601, 716.302 424.983, 719.500 421.183 C 720.875 419.548, 722 417.461, 722 416.544 C 722 415.126, 721.291 414.980, 717.250 415.562 C 714.638 415.938, 710.983 416.866, 709.128 417.623 C 703.977 419.726, 696.686 419.416, 694.500 417 C 693.313 415.688, 691.420 415, 689 415 C 681.877 415, 680.013 409.034, 684.500 400.596 C 685.875 398.010, 687 394.443, 687 392.670 C 687 389.049, 688.853 385.915, 693.604 381.500 C 700.012 375.545, 701.155 375, 707.235 375 C 711.866 375, 713.199 375.359, 713.725 376.750 C 714.760 379.481, 716.659 381, 719.040 381 C 721.013 381, 721.159 380.640, 720.562 377.250 C 719.520 371.332, 716.968 364.111, 715.344 362.487 C 713.948 361.091, 708.916 360.418, 707.849 361.485" stroke="#593939" fill="#593939" fill-opacity="0.2" fill-rule="evenodd"/><path class="svg-region-OVr" d="M 1117.613 393.406 C 1116.901 396.245, 1113.512 398.155, 1106.500 399.671 C 1103.094 400.408, 1102.538 400.886, 1102.759 402.886 C 1103.011 405.171, 1105.837 411.994, 1106.948 413 C 1107.812 413.782, 1109.849 417.171, 1111.756 421 C 1112.715 422.925, 1113.838 424.650, 1114.250 424.833 C 1114.662 425.017, 1115 425.621, 1115 426.176 C 1115 428.250, 1118.546 431.548, 1120.380 431.181 C 1123.396 430.575, 1136.266 435.009, 1139.055 437.614 C 1140.460 438.926, 1142.302 440, 1143.147 440 C 1147.083 440, 1153.641 444.804, 1157.548 450.548 C 1159.775 453.822, 1163.312 458.300, 1165.409 460.500 L 1169.221 464.500 1162.962 464.802 C 1159.492 464.969, 1156.235 464.635, 1155.652 464.052 C 1155.073 463.473, 1152.200 463, 1149.266 463 L 1143.931 463 1144.590 468.250 C 1144.952 471.137, 1145.622 473.907, 1146.080 474.405 C 1146.568 474.937, 1149.712 474.379, 1153.705 473.051 C 1161.343 470.510, 1181.415 468.523, 1189.593 469.498 C 1193.902 470.011, 1195.297 470.751, 1198.655 474.302 C 1204.809 480.810, 1208.532 486.527, 1210.427 492.377 C 1210.969 494.052, 1211.764 494.190, 1217.768 493.651 C 1238.532 491.790, 1246.042 491.709, 1249.285 493.309 C 1251.053 494.182, 1253.634 495.127, 1255.020 495.409 C 1256.406 495.692, 1258.444 496.728, 1259.550 497.711 C 1263.212 500.970, 1267.762 503, 1271.404 503 C 1273.417 503, 1275 502.501, 1275 501.866 C 1275 499.292, 1280.468 496.002, 1284.750 496.001 C 1287.088 496.001, 1289 496.450, 1289 497 C 1289 497.550, 1290.302 498, 1291.893 498 C 1294.644 498, 1294.847 497.693, 1296.015 491.750 C 1297.811 482.610, 1297.613 481.493, 1293.135 475.563 C 1289.860 471.225, 1287.969 469.758, 1283.493 468.083 C 1280.431 466.937, 1277.470 466, 1276.915 466 C 1276.359 466, 1274.862 464.875, 1273.588 463.500 C 1272.313 462.125, 1270.830 461, 1270.290 461 C 1269.751 461, 1268.495 460.100, 1267.500 459 C 1266.049 457.397, 1264.420 457, 1259.295 457 C 1252.884 457, 1248.522 455.539, 1246.055 452.566 C 1245.340 451.705, 1244.149 451, 1243.409 451 C 1241.506 451, 1230.316 443.164, 1227.586 439.920 C 1226.332 438.429, 1223.998 436.533, 1222.400 435.707 C 1215.776 432.281, 1213.100 426.032, 1212.522 412.642 C 1212.161 404.267, 1211.154 401.904, 1209.035 404.458 C 1207.617 406.166, 1201.454 406.525, 1197.797 405.113 C 1196.534 404.625, 1193.025 403.656, 1190 402.960 C 1186.975 402.264, 1183.600 401.243, 1182.500 400.692 C 1181.400 400.140, 1179.825 399.376, 1179 398.992 C 1178.175 398.609, 1177.353 397.305, 1177.173 396.094 C 1176.986 394.828, 1175.711 393.430, 1174.173 392.803 C 1172.595 392.160, 1160.604 391.518, 1144.889 391.235 L 1118.278 390.755 1117.613 393.406" stroke="#593939" fill="#593939" fill-opacity="0.2" fill-rule="evenodd"/>
    </svg>