<svg xmlns="http://www.w3.org/2000/svg" width="1921" height="1027" viewBox="0 0 1921 1027" version="1.1">
    <path class="svg-region-V" d="M 763.710 163.463 C 758.325 165.319, 752.025 167.148, 749.710 167.528 C 747.394 167.907, 744.825 168.797, 744 169.505 C 742.403 170.875, 733.804 174, 731.630 174 C 730.915 174, 726.626 176.250, 722.098 179 C 717.570 181.750, 713.674 184, 713.441 184 C 712.626 184, 707.468 188.564, 697.018 198.532 C 691.233 204.049, 684.025 210.673, 681 213.250 C 677.975 215.827, 671.675 222.264, 667 227.554 C 662.325 232.844, 656.362 239.540, 653.750 242.433 C 651.138 245.326, 649 248.337, 649 249.124 C 649 249.911, 648.298 251.558, 647.439 252.784 C 646.580 254.010, 644.052 258.660, 641.821 263.118 C 638.106 270.539, 637.679 272.226, 636.749 283.114 C 635.964 292.308, 636.036 296.707, 637.066 302.503 C 637.799 306.626, 638.754 310, 639.190 310 C 639.625 310, 641.862 311.998, 644.160 314.441 C 647.291 317.768, 649.362 319.052, 652.419 319.563 C 654.664 319.938, 656.725 320.527, 657 320.872 C 658.483 322.733, 666.422 326.092, 670.644 326.645 C 673.315 326.995, 676.771 327.922, 678.325 328.705 C 679.879 329.488, 684.379 330.384, 688.325 330.697 C 692.271 331.009, 696.204 331.874, 697.065 332.619 C 698.887 334.198, 719.323 334.861, 725 333.525 C 729.610 332.441, 738.776 327.488, 742.339 324.155 C 747.164 319.643, 748.304 316.443, 747.526 309.590 C 746.269 298.515, 746.459 296.720, 749.342 292.391 C 753.216 286.576, 763.192 279.784, 778 272.881 C 789.292 267.618, 805.009 264.163, 823.560 262.868 C 844.447 261.410, 847.031 262.089, 859.228 272.238 C 872.475 283.261, 873.582 284, 876.835 284 C 878.495 284, 883.264 285.575, 887.431 287.500 C 894.156 290.606, 895.936 291, 903.254 290.996 C 910.041 290.992, 912.363 290.554, 916.377 288.517 C 919.059 287.156, 922.884 285.738, 924.877 285.364 C 927.794 284.818, 937.800 279.274, 940 276.986 C 940.508 276.457, 941.552 276.131, 957.500 271.507 C 973.847 266.767, 997.787 267.029, 1013 272.113 C 1016.025 273.124, 1019.196 273.962, 1020.048 273.975 C 1022.285 274.011, 1033.353 279.864, 1041.686 285.419 C 1052.516 292.638, 1054.847 296.713, 1057.089 312.357 C 1057.731 316.836, 1058.619 321.202, 1059.062 322.061 C 1060.003 323.882, 1071.649 331, 1073.690 331 C 1074.454 331, 1076.899 331.928, 1079.123 333.063 C 1082.604 334.839, 1084.579 335.075, 1093.333 334.759 C 1102.529 334.428, 1118.975 331.437, 1126.230 328.775 C 1133.044 326.276, 1139.854 316.640, 1143.168 304.809 C 1144.293 300.789, 1145.823 296.810, 1146.567 295.966 C 1148.801 293.431, 1153.001 283.136, 1152.989 280.221 C 1152.983 278.725, 1152.357 275.475, 1151.597 273 C 1149.883 267.417, 1142.400 247.750, 1140.841 244.730 C 1140.207 243.503, 1139.422 241.976, 1139.095 241.336 C 1137.475 238.165, 1125.894 223.853, 1121.022 219 C 1103.713 201.761, 1093.979 193.018, 1090.453 191.546 C 1088.279 190.638, 1084.250 188.357, 1081.500 186.477 C 1074.423 181.639, 1050.326 173.317, 1037.500 171.283 C 1035.850 171.021, 1032.672 169.951, 1030.438 168.905 C 1022.712 165.288, 990.037 165.529, 976 169.306 C 964.663 172.357, 935.239 175.511, 919.500 175.363 C 908.614 175.261, 887.337 172.612, 865.436 168.633 C 835.177 163.136, 817.219 161.068, 795.500 160.581 L 773.500 160.088 763.710 163.463" stroke="#dd8a8a" fill="#dd8a8a" fill-opacity="0.2" fill-rule="evenodd"/><path class="svg-region-SV" d="M 818.500 263.040 C 803.654 264.143, 785.526 268.964, 773.305 275.058 C 759.509 281.938, 751.148 288.393, 748.090 294.526 C 745.920 298.878, 745.796 299.789, 746.840 303.693 C 750.162 316.111, 746.664 323.083, 733.857 329.572 C 729.247 331.909, 727.796 334.138, 730 335.500 C 730.550 335.840, 731 337.393, 731 338.950 C 731 343.651, 757.453 369, 762.358 369 C 763.181 369, 764.684 370.054, 765.696 371.341 C 766.709 372.629, 768.654 374.259, 770.019 374.963 C 771.384 375.668, 773.625 377.239, 775 378.454 C 777.853 380.977, 783.054 382.640, 791 383.572 L 796.500 384.216 797.831 379.707 C 799.078 375.485, 799.715 374.885, 807.831 370.303 C 819.346 363.801, 825.912 360.724, 835.306 357.429 C 841.742 355.172, 844.599 353.391, 851.585 347.284 C 863.407 336.949, 865.751 336.039, 880.500 336.066 C 887.100 336.077, 894.389 336.453, 896.698 336.900 C 899.007 337.347, 904.632 337.337, 909.198 336.879 C 928.639 334.926, 934.874 334.731, 939.657 335.924 C 945.530 337.389, 958.339 343.401, 970.500 350.399 C 975.450 353.248, 980.850 356.224, 982.500 357.012 C 984.150 357.801, 987.975 360.061, 991 362.034 C 994.025 364.007, 998.750 366.907, 1001.500 368.479 C 1004.250 370.051, 1008.509 372.861, 1010.965 374.723 C 1014.296 377.249, 1016.049 377.953, 1017.867 377.497 C 1022.253 376.397, 1038.284 364.325, 1048.993 354.059 C 1054.765 348.526, 1059.961 344, 1060.540 344 C 1061.120 344, 1063.308 342.245, 1065.402 340.100 C 1068.955 336.462, 1069.163 335.922, 1068.506 332.037 C 1067.933 328.641, 1067.203 327.588, 1064.549 326.322 C 1059.959 324.133, 1058.495 320.976, 1056.526 309.025 C 1054.493 296.676, 1052.076 292.558, 1043.193 286.307 C 1029.969 277.002, 1020.589 273.194, 1001.500 269.380 C 989.690 267.021, 969.525 267.978, 957.500 271.469 C 952.550 272.905, 946.700 274.594, 944.500 275.220 C 942.300 275.846, 937.800 278.221, 934.500 280.498 C 930.815 283.040, 926.371 285.100, 922.982 285.838 C 919.947 286.499, 915.999 287.931, 914.208 289.020 C 911.675 290.560, 909.162 291, 902.898 291 C 895.746 291, 894.029 290.608, 887.567 287.500 C 883.565 285.575, 878.834 284, 877.053 284 C 873.585 284, 873.030 283.633, 858.750 271.900 C 846.238 261.619, 844.062 261.140, 818.500 263.040" stroke="#c666b5" fill="#c666b5" fill-opacity="0.2" fill-rule="evenodd"/><path class="svg-region-PC" d="M 917 336.060 C 909.904 337.105, 902.969 337.180, 884.383 336.413 C 866.406 335.670, 863.913 336.414, 853.481 345.630 C 846.623 351.688, 845.197 353.982, 849.750 351.632 C 851.887 350.529, 859.854 350.084, 885.500 349.634 C 903.650 349.315, 920.525 348.618, 923 348.084 C 925.584 347.526, 934.656 347.369, 944.305 347.716 C 958.086 348.210, 961.325 348.608, 962.305 349.924 C 963.604 351.669, 975.264 356.038, 978.500 355.992 C 979.815 355.973, 978.787 355.002, 975.500 353.156 C 972.750 351.612, 968.874 349.412, 966.887 348.268 C 963.515 346.327, 962.318 345.687, 956.927 342.946 C 955.786 342.366, 953.105 340.980, 950.967 339.866 C 942.275 335.336, 930.712 334.040, 917 336.060 M 882 353.872 C 882 354.351, 878.513 354.965, 874.250 355.237 C 865.172 355.816, 852.379 359.931, 846.553 364.145 C 844.382 365.715, 841.830 367, 840.881 367 C 838.514 367, 826.796 374.878, 816.765 383.213 C 814.969 384.705, 810.540 387.551, 806.922 389.538 C 802.818 391.790, 799.654 394.344, 798.512 396.325 C 797.505 398.071, 794.612 402.200, 792.083 405.500 C 787.877 410.989, 783.018 417.865, 780.500 421.894 C 779.950 422.773, 778.263 424.973, 776.750 426.782 C 775.237 428.590, 773.996 430.616, 773.992 431.285 C 773.988 431.953, 771.063 435.784, 767.492 439.797 C 763.921 443.810, 760.987 447.635, 760.972 448.297 C 760.956 448.959, 759.156 452.190, 756.972 455.479 C 753.804 460.246, 753.001 462.373, 753.006 465.979 C 753.012 469.978, 753.368 470.702, 756.087 472.250 C 757.778 473.212, 759.688 474.010, 760.331 474.021 C 760.974 474.033, 764.636 476.074, 768.470 478.558 C 772.303 481.041, 776.466 483.330, 777.720 483.645 C 778.974 483.959, 780 484.843, 780 485.608 C 780 486.426, 781.031 487, 782.500 487 C 783.875 487, 785 486.599, 785 486.108 C 785 485.618, 786.053 484.953, 787.339 484.630 C 788.625 484.307, 793.139 481.783, 797.370 479.021 C 805.622 473.634, 810.833 472.600, 816.562 475.210 C 818.873 476.263, 819.396 476.166, 820.575 474.460 C 821.321 473.382, 822.397 471.956, 822.966 471.292 C 823.535 470.628, 824 469.806, 824 469.466 C 824 468.390, 833.269 456.667, 837.467 452.433 C 842.327 447.533, 848.130 443.006, 856.361 437.695 C 859.737 435.516, 867.958 428.263, 874.629 421.577 C 884.364 411.822, 888.115 408.767, 893.629 406.106 C 897.408 404.282, 901.281 402.387, 902.236 401.895 C 903.191 401.403, 907.691 401.005, 912.236 401.012 C 919.194 401.022, 921.188 401.417, 924.852 403.512 C 927.246 404.880, 930.085 406, 931.162 406 C 935.438 406, 949.762 414.001, 957.580 420.757 C 961.963 424.545, 968.688 429.355, 972.524 431.447 C 987.102 439.396, 1000.682 451.455, 1005.056 460.332 C 1006.365 462.989, 1008.552 466.280, 1009.916 467.644 C 1012.972 470.699, 1023.440 476.610, 1027.500 477.573 C 1029.150 477.964, 1032.111 479.090, 1034.079 480.075 C 1037.990 482.032, 1039.554 481.839, 1050.405 478.058 C 1053.653 476.926, 1057.269 476, 1058.440 476 C 1060.431 476, 1061.736 474.433, 1065.346 467.712 C 1065.999 466.495, 1069.563 462.350, 1073.264 458.500 C 1076.966 454.650, 1079.993 451.050, 1079.992 450.500 C 1079.978 445.650, 1077.475 441.638, 1071.450 436.810 C 1067.903 433.967, 1065 431.281, 1065 430.841 C 1065 430.401, 1063.094 429.068, 1060.764 427.880 C 1055.550 425.219, 1043.669 412.921, 1041.078 407.500 C 1040.026 405.300, 1036.540 400.689, 1033.333 397.253 C 1028.484 392.061, 1025.391 389.936, 1015 384.660 C 1003.990 379.070, 997.643 375.748, 986.500 369.744 C 970.358 361.046, 957.974 357.187, 942.257 355.956 C 909.172 353.366, 882 352.426, 882 353.872" stroke="#cda789" fill="#cda789" fill-opacity="0.2" fill-rule="evenodd"/><path class="svg-region-DB" d="M 1068.556 332.631 C 1069.137 336.264, 1068.915 336.714, 1064.929 340 C 1056.247 347.157, 1052.316 350.672, 1045.495 357.374 C 1041.648 361.154, 1036.025 365.839, 1033 367.783 C 1029.975 369.728, 1026.175 372.416, 1024.556 373.758 C 1022.937 375.099, 1020.611 376.578, 1019.386 377.043 C 1017.764 377.660, 1017.306 378.453, 1017.700 379.961 C 1017.998 381.099, 1018.638 382.276, 1019.123 382.576 C 1019.620 382.883, 1019.568 383.938, 1019.003 384.994 C 1018.192 386.510, 1018.413 386.996, 1020.165 387.552 C 1021.354 387.930, 1024.537 389.826, 1027.237 391.765 L 1032.145 395.292 1035.630 391.705 C 1037.546 389.732, 1040.776 387.576, 1042.807 386.914 C 1044.838 386.252, 1048.834 384.651, 1051.686 383.355 C 1056.159 381.324, 1058.435 381, 1068.236 381 C 1074.486 381, 1080.027 381.427, 1080.550 381.948 C 1081.072 382.470, 1084.172 383.592, 1087.437 384.442 C 1094.201 386.203, 1095.281 387.283, 1094.496 391.500 C 1093.643 396.080, 1096.643 401.372, 1100.945 402.874 C 1102.900 403.557, 1117.100 404.963, 1132.500 405.999 C 1158.766 407.765, 1175.877 409.896, 1180.500 411.975 C 1182.603 412.921, 1202.062 416.297, 1202.505 415.793 C 1202.647 415.632, 1203.082 410.693, 1203.473 404.819 C 1204.153 394.591, 1204.090 394.060, 1201.980 392.319 C 1200.768 391.318, 1199.184 389.938, 1198.460 389.250 C 1197.735 388.563, 1196.496 388, 1195.706 388 C 1194.916 388, 1193.197 387.186, 1191.885 386.191 C 1190.573 385.196, 1187.701 383.345, 1185.503 382.079 C 1183.304 380.812, 1180.604 378.931, 1179.503 377.898 C 1178.401 376.865, 1176.263 374.911, 1174.750 373.555 C 1172.780 371.790, 1172 370.134, 1172 367.714 C 1172 364.831, 1170.941 363.319, 1164.750 357.363 C 1154.904 347.890, 1144.495 342.788, 1129.500 340.082 C 1115.066 337.477, 1094.849 334.987, 1088.200 334.994 C 1085.253 334.997, 1081.506 334.279, 1079.759 333.375 C 1078.031 332.482, 1075.466 331.404, 1074.058 330.979 C 1072.651 330.555, 1070.699 329.883, 1069.719 329.485 C 1068.139 328.844, 1068.008 329.198, 1068.556 332.631 M 720 339.379 C 716.425 340.624, 709.225 343.121, 704 344.930 C 687.847 350.521, 676.243 356.685, 669.141 363.446 C 661.318 370.895, 643.566 390.884, 642.724 393.192 C 642.385 394.122, 640.846 395.677, 639.304 396.646 C 637.762 397.616, 633.688 400.455, 630.250 402.955 C 624.240 407.326, 624 407.667, 624 411.846 C 624 416.243, 626.975 422, 629.247 422 C 629.858 422, 631.770 420.538, 633.497 418.750 C 636.190 415.961, 649.430 406.877, 661.870 399.284 C 663.866 398.065, 669.100 395.664, 673.500 393.947 C 677.900 392.230, 681.928 390.415, 682.450 389.913 C 682.972 389.411, 684.972 389, 686.894 389 C 688.815 389, 695.813 388.275, 702.444 387.389 C 712.461 386.051, 714.932 385.375, 717.055 383.389 C 720.085 380.555, 726.997 380.136, 732.535 382.450 C 734.444 383.248, 738.817 384.391, 742.253 384.991 C 759.357 387.978, 764.273 389.503, 766.215 392.425 C 767.299 394.057, 776.393 393.575, 780.692 391.658 C 782.786 390.723, 787.200 389.630, 790.500 389.229 C 795.565 388.612, 796.547 388.168, 796.802 386.384 C 797.072 384.492, 796.468 384.198, 791.062 383.587 C 783.754 382.760, 779.173 381.310, 776.500 378.978 C 775.400 378.019, 772.925 376.439, 771 375.468 C 769.075 374.497, 766.907 372.863, 766.183 371.837 C 765.459 370.810, 763.253 369.297, 761.282 368.473 C 757.452 366.873, 747.172 358.338, 742.390 352.788 C 741.779 352.080, 738.967 349.370, 736.140 346.766 C 732.570 343.478, 731 341.263, 731 339.516 C 731 336.323, 728.860 336.296, 720 339.379" stroke="#e8b1e4" fill="#e8b1e4" fill-opacity="0.2" fill-rule="evenodd"/><path class="svg-region-IBl" d="M 720.833 452.500 C 720.611 452.722, 718.151 453.127, 715.365 453.400 C 709.415 453.983, 702.534 456.554, 699.187 459.446 C 697.879 460.575, 695.615 463.525, 694.155 466 C 691.905 469.814, 691.505 471.644, 691.534 478 C 691.573 486.731, 693.467 490.872, 699 494.319 C 701.996 496.186, 703.940 496.497, 712.500 496.481 C 723.175 496.461, 725.654 495.686, 731.929 490.406 C 740.292 483.369, 743.064 469.229, 737.677 461.088 C 736.203 458.861, 733.311 456.196, 731.249 455.164 C 727.453 453.265, 721.572 451.761, 720.833 452.500" stroke="#b10e0e" fill="#b10e0e" fill-opacity="0.2" fill-rule="evenodd"/><path class="svg-region-IBr" d="M 1106.826 434.990 C 1091.481 439.558, 1087.435 453.168, 1096.481 469.788 C 1098.911 474.253, 1100.028 475.167, 1107.116 478.493 C 1114.532 481.974, 1115.540 482.187, 1122.937 481.851 C 1129.799 481.540, 1131.405 481.095, 1135.141 478.468 C 1137.508 476.805, 1140.769 473.559, 1142.389 471.254 C 1144.843 467.762, 1145.333 466.082, 1145.333 461.156 C 1145.333 456.122, 1144.772 454.286, 1141.542 448.765 C 1139.457 445.200, 1136.481 441.534, 1134.930 440.618 C 1127.945 436.491, 1112.304 433.360, 1106.826 434.990" stroke="#b10e0e" fill="#b10e0e" fill-opacity="0.2" fill-rule="evenodd"/><path class="svg-region-MB" d="M 790.500 389.176 C 787.200 389.622, 782.925 390.611, 781 391.374 C 779.075 392.136, 775.567 393.082, 773.203 393.476 L 768.907 394.192 773.516 398.671 C 777.388 402.435, 778.031 403.584, 777.531 405.858 C 777.204 407.346, 775.285 409.899, 773.265 411.532 C 771.245 413.164, 768.537 415.515, 767.245 416.756 C 765.954 417.997, 763.034 419.962, 760.756 421.124 C 757.306 422.884, 755.578 423.131, 750.397 422.600 C 746.977 422.249, 744.026 422.345, 743.840 422.811 C 743.653 423.278, 740.913 424.875, 737.750 426.359 C 731.731 429.185, 729.824 431.802, 734.750 430.477 C 746.086 427.426, 773.250 422.037, 774.232 422.643 C 774.750 422.964, 774.952 424.074, 774.681 425.112 C 774.132 427.212, 775.069 428.231, 776.586 427.184 C 777.131 426.808, 779.998 422.900, 782.956 418.500 C 785.915 414.100, 789.776 408.700, 791.536 406.500 C 797.908 398.539, 800.058 394.284, 799.051 391.634 C 797.803 388.352, 797.415 388.241, 790.500 389.176 M 1097.200 403.200 C 1096.540 403.860, 1096 405.004, 1096 405.742 C 1096 407.892, 1099.740 411.314, 1101.397 410.678 C 1103.355 409.927, 1114.705 413.750, 1118.250 416.355 C 1119.763 417.467, 1121 419.326, 1121 420.487 C 1121 421.981, 1121.996 422.958, 1124.405 423.830 C 1126.278 424.507, 1129.541 426.244, 1131.655 427.689 C 1133.770 429.135, 1137.334 430.876, 1139.576 431.559 C 1141.818 432.241, 1146.869 434.420, 1150.801 436.400 C 1158.985 440.521, 1159 440.525, 1159 438.455 C 1159 437.605, 1160.119 435.790, 1161.487 434.422 C 1163.441 432.468, 1164.995 431.935, 1168.737 431.937 C 1177.889 431.940, 1183.837 431.494, 1184.582 430.750 C 1186.365 428.970, 1189.092 430.301, 1192.022 434.381 C 1196.084 440.037, 1206.851 445.515, 1215.250 446.197 C 1218.412 446.454, 1221 446.290, 1221 445.832 C 1221 445.375, 1220.605 445, 1220.121 445 C 1219.638 445, 1218.683 443.650, 1218 442 C 1217.317 440.350, 1216.362 439, 1215.879 439 C 1215.395 439, 1215 435.907, 1215 432.127 C 1215 425.277, 1214.986 425.242, 1210.559 421.161 C 1208.117 418.910, 1205.079 416.819, 1203.809 416.515 C 1202.539 416.211, 1196.775 415.041, 1191 413.915 C 1185.225 412.788, 1176.225 410.995, 1171 409.930 C 1165.301 408.768, 1149.978 407.256, 1132.703 406.149 C 1114.668 404.994, 1103.474 403.874, 1102.753 403.153 C 1101.259 401.659, 1098.719 401.681, 1097.200 403.200 M 1064.998 430.575 C 1064.999 431.167, 1067.918 434.018, 1071.485 436.912 C 1076.536 441.011, 1078.207 443.055, 1079.044 446.162 C 1080.070 449.972, 1079.949 450.360, 1076.360 454.825 C 1074.294 457.396, 1071.182 460.850, 1069.446 462.500 C 1067.709 464.150, 1065.994 466.175, 1065.633 467 C 1065.273 467.825, 1064.143 469.850, 1063.122 471.500 C 1061.707 473.789, 1061.512 474.973, 1062.299 476.495 C 1064.022 479.821, 1075.862 490.891, 1079.803 492.860 C 1084.875 495.393, 1094.808 497.186, 1105.204 497.444 C 1113.771 497.657, 1115.958 496.842, 1110.010 495.652 C 1105.842 494.818, 1103.967 490.799, 1106.460 488.044 C 1107.998 486.345, 1109.200 486.142, 1115.369 486.540 C 1119.291 486.793, 1124.052 487.263, 1125.949 487.583 C 1127.846 487.903, 1134.032 487.849, 1139.696 487.463 L 1149.994 486.762 1147.786 482.833 L 1145.579 478.905 1147.724 472.203 C 1148.904 468.516, 1150.605 463.250, 1151.505 460.500 C 1154.390 451.678, 1154.403 451.284, 1151.850 449.944 C 1150.557 449.266, 1147.747 447.143, 1145.605 445.227 C 1141.886 441.901, 1130.472 436, 1127.757 436 C 1127.049 436, 1124.791 435.100, 1122.739 434 C 1118.516 431.737, 1111.581 431.241, 1112.248 433.250 C 1112.477 433.938, 1114.886 434.776, 1117.603 435.113 C 1122.871 435.767, 1133.417 439.311, 1136.152 441.348 C 1137.701 442.500, 1139.632 445.380, 1143.615 452.477 C 1144.589 454.211, 1145.286 457.654, 1145.286 460.728 C 1145.286 468.006, 1141.298 474.379, 1134.008 478.750 C 1129.271 481.591, 1127.707 482, 1121.589 482 C 1115.627 482, 1113.440 481.461, 1106.844 478.365 C 1099.424 474.884, 1098.972 474.473, 1096.086 468.615 C 1090.066 456.394, 1090.076 448.400, 1096.118 441.518 L 1099.207 438 1096.354 437.996 C 1094.784 437.993, 1091.475 436.645, 1089 435 C 1086.013 433.014, 1083.239 432.007, 1080.750 432.004 C 1078.688 432.002, 1077 431.590, 1077 431.089 C 1077 430.588, 1074.299 430.025, 1070.998 429.839 C 1067.172 429.623, 1064.997 429.890, 1064.998 430.575 M 748 445.021 C 738.165 445.659, 735.259 446.312, 727.349 449.665 C 725.616 450.399, 723.366 451.032, 722.349 451.070 C 721.332 451.109, 719.600 451.500, 718.500 451.939 C 717.114 452.492, 718.101 452.742, 721.715 452.753 C 728.205 452.773, 734.834 456.378, 738.100 461.663 C 742.845 469.339, 740.244 482.509, 732.641 489.309 C 725.074 496.077, 713.913 498.542, 703.177 495.817 C 693.922 493.468, 689.531 484.146, 691.931 471.944 C 693.435 464.302, 692.456 462.904, 688.144 466.532 C 685.311 468.916, 683.560 469.691, 680.486 469.923 C 677.669 470.136, 658.540 484.132, 651.750 490.948 C 645.519 497.203, 644 499.319, 644 501.742 C 644 507.319, 647.089 507.896, 664 505.477 C 665.925 505.202, 669.300 504.763, 671.500 504.501 C 673.700 504.240, 681.054 502.905, 687.843 501.534 C 694.631 500.163, 704.756 498.830, 710.343 498.572 C 715.929 498.314, 724.011 497.812, 728.301 497.456 C 737.775 496.670, 741 497.321, 741 500.019 C 741 501.109, 740.585 502, 740.077 502 C 738.584 502, 732.949 507.109, 733.485 507.976 C 733.755 508.412, 736.021 509.076, 738.522 509.451 C 743.982 510.270, 749.131 508.785, 754 504.988 C 755.925 503.486, 760.293 500.853, 763.707 499.136 C 767.120 497.420, 771.395 494.737, 773.207 493.176 C 775.018 491.615, 777.288 490.051, 778.250 489.700 C 780.923 488.727, 780.521 484.347, 777.693 483.638 C 776.424 483.319, 772.283 481.021, 768.490 478.529 C 764.697 476.038, 761.047 474, 760.378 474 C 759.709 474, 757.778 473.212, 756.087 472.250 C 750.925 469.312, 752.060 462.369, 759.491 451.419 C 762.454 447.053, 762.781 443.924, 760.250 444.170 C 759.288 444.264, 753.775 444.647, 748 445.021" stroke="#f9c6c6" fill="#f9c6c6" fill-opacity="0.2" fill-rule="evenodd"/><path class="svg-region-AP" d="M 996.183 472.529 C 989.669 473.868, 982.079 476.200, 978.300 478.023 C 974.688 479.764, 969.205 481.582, 966.116 482.062 C 963.027 482.542, 958.700 483.434, 956.500 484.043 C 954.300 484.652, 950.700 485.515, 948.500 485.961 C 946.300 486.407, 940.900 487.498, 936.500 488.386 C 931.014 489.492, 923.179 490, 911.571 490 C 895.121 490, 891.689 489.536, 884 486.276 C 882.075 485.460, 872.850 483.958, 863.500 482.938 C 847.880 481.236, 837.889 479.290, 834.743 477.338 C 834.059 476.914, 829.450 476.204, 824.500 475.759 C 819.550 475.314, 813.106 474.693, 810.181 474.379 C 805.211 473.844, 804.490 474.062, 799.181 477.695 C 796.056 479.834, 791.813 482.454, 789.750 483.519 C 787.688 484.584, 786 485.802, 786 486.227 C 786 486.652, 787.953 487, 790.339 487 C 798.223 487, 808.361 496.321, 819.200 513.536 C 828.811 528.800, 830.599 535.221, 829.600 550.878 C 828.784 563.675, 827.625 568.449, 824.863 570.383 C 823.698 571.199, 823.096 572.346, 823.494 572.990 C 824.472 574.572, 827 586.911, 827 590.100 C 827 594.269, 820.778 605.302, 817.540 606.874 C 812.034 609.548, 800.126 607.377, 798.609 603.423 C 797.919 601.626, 795 601.549, 795 603.327 C 795 604.057, 798.669 607.994, 803.153 612.077 C 807.638 616.160, 813.150 621.358, 815.403 623.629 C 818.978 627.232, 823.922 630.916, 830.063 634.552 C 831.040 635.131, 833.788 637.554, 836.170 639.937 C 838.551 642.319, 842.969 646.346, 845.986 648.884 C 849.003 651.423, 852.598 654.513, 853.975 655.750 C 855.353 656.987, 856.865 658, 857.335 658 C 857.806 658, 859.482 658.919, 861.059 660.042 C 865.519 663.218, 878.676 664.831, 910.536 666.111 C 938.926 667.252, 939.783 667.229, 948.995 665.108 C 958.507 662.918, 971.621 657.367, 973.971 654.535 C 974.671 653.691, 975.822 653, 976.526 653 C 977.231 653, 982.125 649.625, 987.402 645.500 C 992.679 641.375, 997.389 638, 997.867 638 C 999.011 638, 1014.139 622.932, 1020.474 615.483 C 1025.768 609.257, 1030.952 601.990, 1030.982 600.750 C 1031.027 598.879, 1028.816 600.313, 1026.759 603.488 C 1024.889 606.375, 1023.895 606.977, 1020.984 606.988 C 1017.843 606.999, 1017.100 606.441, 1014.014 601.750 C 1007.156 591.326, 1007.193 591.483, 1005.797 567.131 C 1004.036 536.400, 1004.103 526.259, 1006.095 522.500 C 1013.494 508.536, 1016.742 502.864, 1019.592 498.932 C 1022.958 494.289, 1030.516 486.806, 1034.940 483.738 C 1036.281 482.807, 1037.181 481.899, 1036.940 481.720 C 1034.175 479.673, 1030.721 478, 1029.258 478 C 1028.260 478, 1023.925 476.200, 1019.623 474 C 1015.321 471.800, 1010.834 470.046, 1009.651 470.102 C 1008.468 470.158, 1002.407 471.250, 996.183 472.529" stroke="#fc7143" fill="#fc7143" fill-opacity="0.2" fill-rule="evenodd"/><path class="svg-region-LPl" d="M 780 487.933 C 780 488.446, 779.212 489.125, 778.250 489.442 C 777.288 489.760, 774.925 491.413, 773 493.116 C 771.075 494.820, 767.025 497.468, 764 499 C 760.975 500.533, 756.149 503.371, 753.276 505.308 C 750.403 507.245, 746.703 509.126, 745.053 509.488 C 741.153 510.345, 737.686 514.561, 734.983 521.734 L 732.810 527.500 735.562 532.427 C 742.027 544.001, 762.759 570.617, 775.928 584.250 C 782.910 591.478, 784.572 592.415, 783.610 588.583 C 783.275 587.249, 783.470 586.010, 784.045 585.818 C 784.618 585.627, 785.630 583.453, 786.294 580.985 C 786.957 578.518, 788.850 574.633, 790.500 572.351 C 792.923 569, 794.607 567.863, 799.254 566.441 C 804.345 564.884, 805.842 564.827, 812.254 565.949 C 816.678 566.724, 820.347 567.995, 821.676 569.214 C 826.158 573.325, 828.687 567.619, 829.588 551.365 C 830.483 535.218, 828.900 529.071, 820.117 514.595 C 812.973 502.823, 804.095 493.020, 796 487.967 C 794.046 486.747, 780 486.717, 780 487.933" stroke="#d2454f" fill="#d2454f" fill-opacity="0.2" fill-rule="evenodd"/><path class="svg-region-LPr" d="M 1057.496 476.135 C 1055.298 476.513, 1051.475 477.572, 1049 478.487 C 1046.525 479.402, 1042.548 480.612, 1040.163 481.175 C 1036.934 481.938, 1034.036 483.888, 1028.813 488.815 C 1019.936 497.189, 1016.504 502.231, 1006.564 521.500 C 1004.178 526.125, 1003.908 534.760, 1005.390 559.143 L 1006.279 573.787 1008.442 569.696 C 1011.552 563.815, 1017.356 561.065, 1026.735 561.028 L 1033.970 561 1039.985 566.647 C 1045.663 571.978, 1046 572.555, 1046 576.934 C 1046 581.292, 1045.545 582.085, 1038.500 590 C 1034.375 594.634, 1031 598.780, 1031 599.213 C 1031 600.503, 1032.666 600.108, 1034 598.500 C 1034.685 597.675, 1035.628 597, 1036.097 597 C 1036.566 597, 1040.673 594.059, 1045.224 590.464 C 1055.507 582.342, 1055.168 582.630, 1057.115 580.373 C 1058.004 579.343, 1060.704 576.798, 1063.115 574.718 C 1065.527 572.638, 1071.313 567.575, 1075.972 563.468 C 1080.632 559.360, 1084.792 556, 1085.216 556 C 1086.401 556, 1096.995 539.161, 1097.035 537.215 C 1097.055 536.272, 1097.714 534.375, 1098.500 533 C 1100.434 529.617, 1100.440 514.769, 1098.511 508.409 C 1097.692 505.709, 1097.017 502.096, 1097.011 500.380 C 1097 497.367, 1096.795 497.220, 1091.003 496.080 C 1080.120 493.939, 1074.651 490.595, 1066.293 480.973 C 1061.610 475.582, 1061.394 475.463, 1057.496 476.135" stroke="#d2454f" fill="#d2454f" fill-opacity="0.2" fill-rule="evenodd"/><path class="svg-region-Ol" d="M 466.979 331.334 C 466.692 331.632, 463.542 332.131, 459.979 332.444 C 443.454 333.894, 432.074 336.081, 418 340.511 C 413.325 341.982, 408.150 343.541, 406.500 343.974 C 399.934 345.699, 393.150 348.402, 386.083 352.110 C 382.004 354.249, 378.158 356, 377.536 356 C 376.366 356, 364.509 363.333, 359.842 366.944 C 358.380 368.075, 356.913 369, 356.583 369 C 355.261 369, 338.073 382.650, 331.500 388.919 C 321.723 398.245, 303.126 419.334, 301.887 422.500 C 301.672 423.050, 298.985 427.325, 295.917 432 C 269.920 471.607, 257.698 519.774, 261.661 567 C 263.318 586.749, 264.647 594.790, 266.570 596.712 C 267.374 597.517, 268 600.056, 268 602.512 C 268 604.916, 268.450 607.160, 269 607.500 C 269.550 607.840, 270.015 609.554, 270.033 611.309 C 270.068 614.762, 272.578 622.574, 275.301 627.700 C 276.235 629.461, 277.007 631.711, 277.015 632.700 C 277.023 633.690, 277.673 635.625, 278.459 637 C 279.245 638.375, 281.489 642.722, 283.446 646.659 C 290.010 659.865, 299.617 674.442, 310.587 687.843 C 318.154 697.087, 337.053 715.646, 342.940 719.614 C 344.898 720.934, 350.100 724.517, 354.500 727.576 C 366.551 735.955, 380.192 743.383, 393 748.540 C 399.325 751.086, 405.850 753.748, 407.500 754.455 C 411.830 756.311, 422.035 758.900, 439.220 762.504 C 448.029 764.351, 471.720 764.755, 474.794 763.110 C 475.865 762.537, 478.487 761.639, 480.620 761.115 C 485.182 759.995, 496.062 756.056, 497.500 755.004 C 498.050 754.602, 501.875 753.513, 506 752.583 C 510.125 751.654, 519.125 749.614, 526 748.050 C 532.875 746.485, 540.975 744.696, 544 744.074 C 549.913 742.857, 563.688 738.932, 571 736.381 C 582.226 732.465, 593.424 731.152, 621 730.521 C 632.616 730.255, 639.256 729.563, 647.500 727.758 C 657.129 725.651, 668.516 721.262, 672.273 718.210 C 673.564 717.161, 677.875 714.687, 687 709.758 C 695.760 705.027, 710.272 692.046, 715.446 684.315 C 716.850 682.217, 719.809 678.025, 722.022 675 C 726.020 669.535, 729.014 663.871, 729.423 661 C 729.540 660.175, 730.168 658.233, 730.818 656.685 C 731.468 655.137, 732 652.535, 732 650.903 C 732 649.271, 732.675 646.320, 733.500 644.346 C 737.312 635.223, 733.007 589.389, 726.657 571.500 C 723.358 562.204, 717.157 550.217, 713.194 545.473 C 710.593 542.359, 704.708 539.084, 699.869 538.056 C 695.310 537.088, 693.372 536.570, 681 533.012 C 673.525 530.863, 670 528.771, 670 526.486 C 670 524.808, 657.216 523.142, 648 523.619 C 641.195 523.972, 634.688 524.578, 612 526.971 C 600.232 528.213, 590.716 530.702, 583.640 534.391 C 580.056 536.259, 574.958 538.588, 572.312 539.566 C 569.665 540.544, 567.050 541.663, 566.500 542.051 C 563.999 543.820, 553.589 546, 547.644 546 C 541.432 546, 540.916 545.814, 537.576 542.375 C 535.640 540.382, 533.803 537.955, 533.495 536.983 C 533.186 536.011, 531.560 534.646, 529.882 533.951 C 524.982 531.922, 524 530.338, 524 524.468 C 524 518.542, 523.984 518.565, 532.113 513.202 C 535.200 511.166, 538.800 508.589, 540.113 507.475 C 544.047 504.138, 549 497.254, 549 495.124 C 549 491.869, 547.156 488, 545.605 488 C 544.810 488, 541.941 485.510, 539.228 482.467 C 535.649 478.451, 533.865 475.366, 532.722 471.217 C 530.381 462.717, 525.970 441.823, 525.986 439.309 C 525.994 438.104, 525.543 436.835, 524.984 436.490 C 524.425 436.144, 524.181 435.517, 524.441 435.095 C 524.702 434.673, 524.064 429.516, 523.024 423.636 C 521.984 417.755, 520.821 409.244, 520.440 404.722 C 520.059 400.200, 519.410 396.050, 518.997 395.500 C 518.585 394.950, 517.926 389.830, 517.534 384.122 C 517.053 377.109, 516.242 372.711, 515.034 370.561 C 514.051 368.811, 512.741 365.021, 512.123 362.139 C 510.800 355.967, 508.998 352.214, 506.102 349.593 C 504.764 348.382, 504 346.474, 504 344.345 C 504 342.505, 503.882 341, 503.739 341 C 503.595 341, 498.757 338.920, 492.989 336.378 C 484.458 332.619, 481.100 331.667, 475 331.275 C 470.875 331.009, 467.265 331.036, 466.979 331.334" stroke="#aa444d" fill="#aa444d" fill-opacity="0.2" fill-rule="evenodd"/><path class="svg-region-Or" d="M 1371 306.105 C 1366.325 306.515, 1360.700 307.513, 1358.500 308.322 C 1350.467 311.276, 1337.361 317.996, 1335.298 320.219 C 1334.134 321.473, 1332.036 323.293, 1330.636 324.263 C 1327.060 326.738, 1316 344.082, 1316 347.213 C 1316 347.716, 1314.827 350.687, 1313.394 353.814 C 1309.914 361.406, 1309.083 368.257, 1309.184 388.500 C 1309.257 402.976, 1308.942 406.762, 1307.064 414 C 1305.851 418.675, 1304.513 427.225, 1304.089 433 C 1303.209 445.022, 1301.501 449.853, 1296.201 455.313 C 1291.572 460.082, 1287.503 462.574, 1283 463.396 C 1280.577 463.838, 1278.468 465.278, 1276.145 468.075 C 1273.331 471.465, 1272.897 472.630, 1273.452 475.308 C 1275.325 484.346, 1275.228 485.365, 1272.042 490.148 C 1270.336 492.711, 1267.890 495.062, 1266.593 495.387 C 1265.298 495.712, 1264.020 496.814, 1263.753 497.835 C 1263.400 499.185, 1261.965 499.870, 1258.494 500.346 C 1251.558 501.296, 1226.418 501.012, 1220 499.910 C 1210.616 498.298, 1199 497.652, 1199 498.742 C 1199 499.850, 1194.057 501.258, 1183.500 503.157 C 1179.518 503.874, 1174.560 505.598, 1172 507.157 C 1166.189 510.697, 1159.123 514, 1157.363 514 C 1156.603 514, 1152.273 516.008, 1147.740 518.461 C 1140.861 522.185, 1138.591 524.092, 1134 530.002 C 1130.975 533.897, 1127.487 537.749, 1126.250 538.564 C 1125.013 539.379, 1124 540.534, 1124 541.130 C 1124 541.726, 1122.649 545.044, 1120.999 548.503 C 1118.510 553.717, 1117.808 556.902, 1116.886 567.146 C 1115.088 587.129, 1115.277 606.899, 1117.301 610.500 C 1118.229 612.150, 1118.990 613.881, 1118.994 614.346 C 1118.997 614.812, 1121.333 619.959, 1124.186 625.784 C 1137.529 653.038, 1157.467 674.727, 1178.397 684.758 C 1186.313 688.551, 1201.952 694.457, 1206.500 695.370 C 1208.150 695.701, 1212.875 696.904, 1217 698.043 C 1221.125 699.183, 1227.875 700.717, 1232 701.453 C 1236.125 702.189, 1244.225 703.692, 1250 704.792 C 1255.775 705.893, 1264.550 707.334, 1269.500 707.994 C 1281.355 709.574, 1304.956 714.514, 1312.500 716.994 C 1318.939 719.111, 1333.548 723.039, 1346.500 726.135 C 1373.269 732.535, 1372.392 732.420, 1394.500 732.420 C 1414.129 732.421, 1416.251 732.237, 1427 729.609 C 1433.325 728.062, 1440.075 726.470, 1442 726.070 C 1457.120 722.927, 1489.987 706.548, 1504.756 694.797 C 1508.271 692, 1512.761 688.616, 1514.733 687.277 C 1521.062 682.982, 1528.858 675.700, 1535.370 668 C 1545.590 655.915, 1554.670 643.586, 1557.578 637.843 C 1559.067 634.904, 1561.008 631.395, 1561.892 630.045 C 1564.784 625.626, 1568.966 613.182, 1573.188 596.431 L 1576.447 583.500 1576.387 552 C 1576.342 528.136, 1575.948 518.318, 1574.762 511.500 C 1570.784 488.631, 1569.674 482.742, 1567.320 472 C 1565.933 465.675, 1564.362 458.250, 1563.828 455.500 C 1560.578 438.763, 1552.373 418.011, 1542.079 400.490 C 1533.956 386.664, 1529.887 381.630, 1514.602 366.500 C 1500.432 352.474, 1488.075 343.202, 1471 333.786 C 1462.487 329.091, 1445.652 321.562, 1438.319 319.169 C 1423.180 314.230, 1413.094 311.454, 1405 309.999 C 1402.525 309.554, 1396.900 308.482, 1392.500 307.617 C 1380.849 305.326, 1380.302 305.288, 1371 306.105" stroke="#aa444d" fill="#aa444d" fill-opacity="0.2" fill-rule="evenodd"/><path class="svg-region-Pl" d="M 539 362.820 C 532.292 365.860, 526.335 371.407, 521.171 379.421 C 518.633 383.360, 518 385.396, 518 389.612 C 518 392.511, 518.384 395.119, 518.854 395.410 C 519.323 395.700, 520.016 399.664, 520.393 404.219 C 521.165 413.538, 525.010 436.688, 528.163 451 C 529.314 456.225, 530.578 462.300, 530.971 464.500 C 532.486 472.975, 534.436 477.155, 539.414 482.596 C 545.830 489.609, 551.917 491.919, 563 491.546 C 580.137 490.970, 591.031 486.596, 600.051 476.669 C 604.777 471.467, 605.396 470.267, 605.788 465.548 C 606.058 462.284, 605.800 459.994, 605.113 459.570 C 604.501 459.192, 604 457.754, 604 456.375 C 604 454.997, 603.488 452.886, 602.863 451.684 C 600.185 446.540, 591.002 433.298, 588.519 431 C 587.034 429.625, 584.195 426.250, 582.211 423.500 C 580.228 420.750, 577.390 417.075, 575.906 415.333 C 574.422 413.592, 571.845 409.317, 570.180 405.833 C 567.643 400.526, 567.081 397.961, 566.713 390 C 566.458 384.486, 565.599 378.906, 564.667 376.701 C 562.768 372.209, 556.550 365.964, 551.672 363.649 C 548.166 361.985, 541.767 361.567, 539 362.820" stroke="#f9d3d3" fill="#f9d3d3" fill-opacity="0.2" fill-rule="evenodd"/><path class="svg-region-Pr" d="M 1275.028 365.735 C 1273.669 365.989, 1271.811 366.719, 1270.900 367.357 C 1267.434 369.785, 1260.352 379.686, 1258.995 384 C 1257.034 390.237, 1248.176 398.742, 1240.392 401.861 C 1219.639 410.176, 1215 415.400, 1215 430.460 C 1215 435.157, 1215.420 439, 1215.933 439 C 1216.446 439, 1217.180 439.990, 1217.564 441.201 C 1218.371 443.745, 1230.618 455.862, 1236.500 459.936 C 1241.268 463.239, 1248.627 465.770, 1255.500 466.471 C 1263.142 467.250, 1286.689 463.125, 1290.924 460.265 C 1299.840 454.245, 1303.514 446.363, 1304.333 431.500 C 1304.606 426.550, 1305.808 418.675, 1307.005 414 C 1309.857 402.856, 1310.099 384.043, 1307.456 378.879 C 1304.583 373.267, 1300.216 368.330, 1296.609 366.619 C 1293.311 365.054, 1281.298 364.562, 1275.028 365.735" stroke="#f9d3d3" fill="#f9d3d3" fill-opacity="0.2" fill-rule="evenodd"/><path class="svg-region-DLl" d="M 601.850 362.933 C 592.958 368.905, 588.013 374.894, 584.882 383.483 C 581.856 391.784, 581.048 399.975, 583.250 400.033 C 584.683 400.071, 589 403.459, 589 404.546 C 589 404.944, 590.060 406.253, 591.356 407.454 C 592.652 408.656, 593.913 410.239, 594.158 410.973 C 595.204 414.112, 618.350 412.838, 621.982 409.441 C 624.430 407.152, 636.299 398.441, 638.765 397.124 C 642.467 395.146, 649.899 382.640, 649.966 378.276 C 649.989 376.805, 649.001 375.535, 647.052 374.527 C 645.430 373.688, 642.072 371.631, 639.588 369.955 C 631.012 364.167, 622.155 360.819, 614.030 360.295 C 606.875 359.833, 606.268 359.965, 601.850 362.933" stroke="#b7d6d3" fill="#b7d6d3" fill-opacity="0.2" fill-rule="evenodd"/><path class="svg-region-DLr" d="M 1183.413 350.943 C 1179.168 351.957, 1178.300 352.604, 1174.934 357.250 C 1172.567 360.518, 1172 362.324, 1172 366.603 C 1172 371.152, 1172.363 372.162, 1174.551 373.703 C 1175.954 374.691, 1178.916 377.188, 1181.133 379.250 C 1183.349 381.313, 1185.767 383, 1186.505 383 C 1187.243 383, 1189.184 384.125, 1190.818 385.500 C 1192.452 386.875, 1194.296 388, 1194.916 388 C 1195.536 388, 1197.721 389.095, 1199.771 390.433 C 1201.822 391.771, 1205.080 393.151, 1207.012 393.499 C 1210.693 394.164, 1212.607 392.767, 1217.243 386.032 C 1219.441 382.841, 1219.573 370.334, 1217.471 364.500 C 1216.679 362.300, 1216.023 359.774, 1216.015 358.887 C 1216.006 357.890, 1213.802 356.303, 1210.250 354.736 C 1200.625 350.488, 1191.003 349.128, 1183.413 350.943" stroke="#b7d6d3" fill="#b7d6d3" fill-opacity="0.2" fill-rule="evenodd"/><path class="svg-region-OGl" d="M 575 318.022 C 566.269 318.418, 562.416 319.046, 559 320.627 C 552.975 323.415, 551.667 325.129, 548.490 334.387 C 546.258 340.894, 545.887 343.345, 546.368 348.387 C 547.469 359.923, 548.082 362.081, 550.520 363.008 C 551.777 363.486, 553.074 364.311, 553.403 364.843 C 554.619 366.811, 565.261 372.109, 569.641 372.927 C 574.513 373.838, 580.277 372.284, 584.851 368.829 C 586.145 367.852, 588.724 366.767, 590.582 366.419 C 595.007 365.588, 600.193 359.812, 604.026 351.443 C 608.496 341.683, 607.824 330.587, 602.521 326.610 C 601.134 325.570, 600 324.134, 600 323.419 C 600 321.690, 598.839 321.055, 592.146 319.127 C 587.790 317.872, 583.872 317.619, 575 318.022" stroke="#d66e9d" fill="#d66e9d" fill-opacity="0.2" fill-rule="evenodd"/><path class="svg-region-OGr" d="M 1221.776 300.090 C 1213.955 302.897, 1210.696 305.308, 1206.500 311.394 C 1202.948 316.545, 1202.504 317.840, 1202.533 322.961 C 1202.560 327.768, 1203.030 329.292, 1205.354 332.114 C 1206.887 333.976, 1209.122 337.030, 1210.321 338.901 C 1211.724 341.091, 1215.171 343.758, 1220 346.390 C 1227.452 350.451, 1227.569 350.477, 1238.248 350.489 L 1248.996 350.500 1255.748 343.328 C 1266.150 332.279, 1268.212 324.462, 1263.237 314.939 C 1260.379 309.469, 1254.919 304.681, 1247.500 301.141 C 1241.770 298.406, 1228.031 297.845, 1221.776 300.090" stroke="#d66e9d" fill="#d66e9d" fill-opacity="0.2" fill-rule="evenodd"/><path class="svg-region-OLl" d="M 587 367.944 C 585.075 369.012, 582.302 370.391, 580.839 371.010 C 577.900 372.251, 573 378.950, 572.999 381.729 C 572.999 382.703, 571.649 386.353, 569.999 389.840 C 568.350 393.327, 567 396.959, 567 397.913 C 567 402.892, 577.365 419, 580.569 419 C 581.318 419, 584.059 417.650, 586.661 416 C 589.263 414.350, 591.978 413, 592.696 413 C 593.413 413, 594 412.100, 594 411 C 594 409.900, 593.575 409, 593.057 409 C 592.538 409, 591.370 407.742, 590.462 406.204 C 589.553 404.667, 587.278 402.359, 585.405 401.075 C 582.504 399.087, 582 398.160, 582 394.806 C 582 388.300, 587.711 375.365, 592.750 370.461 C 594.538 368.721, 596 367.006, 596 366.649 C 596 365.277, 590.340 366.092, 587 367.944" stroke="#c4875d" fill="#c4875d" fill-opacity="0.2" fill-rule="evenodd"/><path class="svg-region-OLr" d="M 1212.273 348.113 C 1210.498 348.626, 1208.571 349.934, 1207.990 351.019 C 1207.059 352.758, 1207.473 353.256, 1211.467 355.196 C 1213.960 356.407, 1216 358.012, 1216 358.761 C 1216 359.511, 1216.712 362.301, 1217.582 364.962 C 1219.147 369.745, 1219.114 379.380, 1217.503 388 C 1216.623 392.710, 1219.748 397.150, 1227.147 401.698 L 1232.794 405.170 1239.576 402.183 C 1243.306 400.539, 1248.415 397.418, 1250.929 395.246 C 1255.281 391.487, 1260 384.329, 1260 381.486 C 1260 379.867, 1253.243 358.358, 1251.775 355.303 C 1250.587 352.832, 1244.086 351.022, 1236.201 350.967 C 1233.615 350.949, 1229.025 350.064, 1226 349 C 1219.977 346.881, 1217.164 346.700, 1212.273 348.113" stroke="#c4875d" fill="#c4875d" fill-opacity="0.2" fill-rule="evenodd"/><path class="svg-region-VOC" d="M 715.578 385.180 C 713.330 387.806, 712 390.396, 712 392.146 C 712 394.978, 714.882 402.225, 716.250 402.833 C 716.663 403.017, 717 403.621, 717 404.176 C 717 404.731, 717.900 406.329, 719 407.727 C 722.295 411.916, 721.630 416.477, 716.951 421.793 C 713.793 425.380, 712.968 427.064, 713.201 429.446 L 713.500 432.500 720.275 432.146 C 725.806 431.857, 728.469 431.059, 734.775 427.801 C 739.024 425.607, 742.996 423.404, 743.603 422.905 C 744.209 422.407, 747.379 422.279, 750.647 422.621 C 755.799 423.159, 757.273 422.895, 761.738 420.633 C 764.570 419.197, 767.250 417.443, 767.694 416.735 C 768.137 416.026, 770.379 413.984, 772.676 412.197 C 775.250 410.196, 777.102 407.811, 777.503 405.985 C 778.079 403.364, 777.559 402.441, 773.011 398.010 C 770.181 395.255, 767.447 393, 766.933 393 C 766.420 393, 766 392.652, 766 392.227 C 766 390.069, 758.841 387.887, 742.278 384.996 C 738.856 384.399, 734.806 383.258, 733.278 382.461 C 731.750 381.664, 727.948 381.010, 724.828 381.006 C 719.404 381, 718.999 381.183, 715.578 385.180 M 1051.116 383.587 C 1048.155 384.971, 1044.460 386.358, 1042.906 386.669 C 1040.463 387.157, 1032 394.365, 1032 395.958 C 1032 396.267, 1033.732 398.316, 1035.849 400.510 C 1037.966 402.705, 1040.440 406.075, 1041.346 408 C 1043.515 412.608, 1055.564 425.206, 1059.993 427.496 C 1061.913 428.489, 1066.525 429.519, 1070.242 429.785 C 1073.959 430.051, 1077 430.658, 1077 431.134 C 1077 431.610, 1078.732 432, 1080.850 432 C 1083.541 432, 1085.947 432.903, 1088.841 435 C 1093.498 438.374, 1098.093 438.875, 1102.636 436.506 C 1104.211 435.685, 1106.517 435.010, 1107.759 435.006 C 1111.174 434.997, 1118 427.690, 1118 424.044 C 1118 423.446, 1116.763 422.407, 1115.250 421.736 C 1113.737 421.064, 1111.600 419.671, 1110.500 418.640 C 1109.400 417.609, 1107.145 416.182, 1105.490 415.469 C 1103.834 414.756, 1101.069 412.624, 1099.346 410.730 C 1096.575 407.685, 1096.271 406.776, 1096.713 402.854 C 1097.084 399.558, 1096.802 398.081, 1095.613 397.094 C 1094.439 396.120, 1094.172 394.779, 1094.607 392.055 C 1095.284 387.823, 1093.328 385.015, 1089.679 384.978 C 1088.480 384.966, 1085.538 384.066, 1083.141 382.978 C 1079.613 381.377, 1076.657 381.007, 1067.641 381.035 C 1057.874 381.066, 1055.836 381.380, 1051.116 383.587" stroke="#ff8f93" fill="#ff8f93" fill-opacity="0.2" fill-rule="evenodd"/><path class="svg-region-OABl" d="M 724.917 497.378 C 724.688 497.586, 718.719 498.067, 711.653 498.447 C 704.587 498.826, 695.587 499.789, 691.653 500.586 C 685.132 501.907, 677.289 503.267, 660.385 506.008 C 657.021 506.554, 652.881 507, 651.183 507 C 646.418 507, 637.210 509.687, 632.483 512.457 C 626.184 516.148, 620.904 521.587, 621.673 523.591 C 622.243 525.076, 623.654 525.172, 634.906 524.491 C 645.306 523.861, 669.375 523.590, 677.500 524.011 C 684.380 524.367, 698.494 522.793, 704.161 521.038 C 712.051 518.594, 733.856 507.676, 736 505.095 C 736.825 504.102, 738.288 503.014, 739.250 502.676 C 741.432 501.911, 741.547 498.424, 739.418 497.607 C 737.705 496.950, 725.599 496.759, 724.917 497.378" stroke="#81244d" fill="#81244d" fill-opacity="0.2" fill-rule="evenodd"/><path class="svg-region-OABr" d="M 1164.500 485.011 C 1136.498 487.880, 1131.985 488.109, 1122.896 487.124 C 1108.663 485.582, 1105.070 486.311, 1105.015 490.750 C 1104.994 492.486, 1108.679 496, 1110.520 496 C 1111.356 496, 1113.718 497.034, 1115.770 498.298 C 1120.394 501.148, 1139.341 507.047, 1143.780 507.020 C 1145.584 507.009, 1149.702 505.888, 1152.930 504.529 C 1164.043 499.852, 1172.189 498.857, 1200.923 498.666 C 1224.955 498.506, 1227.506 498.329, 1227.800 496.802 C 1228.041 495.550, 1226.883 494.742, 1223.312 493.671 C 1220.666 492.877, 1215.885 491.064, 1212.688 489.641 C 1201.054 484.465, 1184.940 482.916, 1164.500 485.011" stroke="#81244d" fill="#81244d" fill-opacity="0.2" fill-rule="evenodd"/><path class="svg-region-SOTl" d="M 874 349.992 C 852.621 350.529, 849.237 350.969, 842.929 354.031 C 842.066 354.450, 838.241 355.977, 834.429 357.425 C 819.142 363.230, 799.785 373.982, 798.147 377.576 C 796.166 381.924, 797.505 393, 800.011 393 C 801.223 393, 813.321 385.879, 817.001 383 C 818.758 381.625, 821.390 379.562, 822.848 378.414 C 829.175 373.439, 839.369 367, 840.919 367 C 841.847 367, 844.382 365.715, 846.553 364.145 C 851.987 360.214, 865.050 355.945, 873.484 355.345 C 877.343 355.070, 881.501 354.360, 882.724 353.767 C 884.180 353.062, 889.136 352.915, 897.080 353.342 C 907.888 353.923, 909.146 353.822, 908.606 352.415 C 908.273 351.547, 908 350.423, 908 349.918 C 908 349.413, 905.413 349.096, 902.250 349.213 C 899.087 349.330, 886.375 349.681, 874 349.992 M 764.500 423.653 C 760.650 424.466, 750.975 426.638, 743 428.481 C 735.025 430.323, 726.925 432.127, 725 432.490 C 723.075 432.852, 719.925 433.821, 718 434.642 C 710.811 437.709, 709.417 438.319, 706 439.890 C 704.075 440.776, 698.831 443.863, 694.346 446.750 C 689.861 449.637, 685.754 452, 685.218 452 C 684.683 452, 683.777 452.564, 683.205 453.253 C 682.633 453.942, 679.091 456.068, 675.333 457.978 C 671.575 459.887, 668.050 461.999, 667.500 462.670 C 666.950 463.341, 665.914 464.027, 665.198 464.195 C 664.482 464.363, 662.232 465.940, 660.198 467.699 C 658.164 469.458, 651.550 474.218, 645.500 478.275 C 636.376 484.394, 634.444 486.131, 634.171 488.461 L 633.841 491.270 639.171 490.573 C 653.020 488.764, 653.963 488.497, 657.230 485.468 C 659.028 483.800, 662.975 480.890, 666 479 C 669.025 477.111, 671.725 475.302, 672 474.980 C 673.362 473.385, 679.976 470, 681.731 470 C 682.827 470, 685.401 468.668, 687.450 467.040 C 689.499 465.411, 692.149 463.775, 693.338 463.403 C 694.527 463.031, 696.847 461.600, 698.492 460.224 C 703.022 456.435, 709.696 453.914, 723 450.965 C 724.925 450.539, 729.604 449.022, 733.397 447.595 C 738.658 445.615, 742.215 444.986, 748.397 444.942 C 762.235 444.844, 763.665 444.323, 769.742 437.169 C 774.606 431.442, 775.079 430.462, 774.804 426.684 C 774.444 421.750, 774.053 421.635, 764.500 423.653" stroke="#995b45" fill="#995b45" fill-opacity="0.2" fill-rule="evenodd"/><path class="svg-region-SOTr" d="M 918.010 348.661 C 913.341 349.441, 909.198 350.402, 908.802 350.798 C 906.738 352.862, 911.350 353.753, 932 355.281 C 944.375 356.196, 956.525 357.605, 959 358.411 C 971.618 362.521, 977.074 364.781, 986.500 369.799 C 988.150 370.677, 991.800 372.550, 994.610 373.960 C 997.421 375.370, 1000.346 377.015, 1001.110 377.616 C 1003.818 379.746, 1015.958 386, 1017.385 386 C 1019.315 386, 1019.856 384.085, 1018.641 381.556 C 1017.437 379.051, 1009.238 372.915, 998.500 366.483 C 994.100 363.848, 989.361 360.901, 987.969 359.933 C 986.576 358.966, 981.401 356.972, 976.469 355.501 C 971.536 354.031, 966.607 352.561, 965.516 352.236 C 964.425 351.911, 962.850 350.872, 962.016 349.927 C 959.849 347.472, 930.224 346.620, 918.010 348.661 M 1100.583 410.866 C 1099.926 411.929, 1102.783 414.546, 1105.500 415.371 C 1106.600 415.705, 1108.625 416.999, 1110 418.247 C 1111.375 419.495, 1113.782 421.086, 1115.348 421.782 C 1117.472 422.725, 1118.015 423.486, 1117.485 424.773 C 1117.093 425.723, 1116.547 427.288, 1116.270 428.250 C 1115.993 429.212, 1115.369 430, 1114.883 430 C 1114.398 430, 1114 430.450, 1114 431 C 1114 431.550, 1115.127 432, 1116.504 432 C 1117.881 432, 1120.686 432.900, 1122.739 434 C 1124.791 435.100, 1126.955 436, 1127.548 436 C 1128.141 436, 1130.958 437.125, 1133.808 438.500 C 1136.658 439.875, 1139.357 441, 1139.805 441 C 1140.564 441, 1149.035 447.653, 1153.443 451.711 C 1156.800 454.802, 1159.380 455.928, 1163.185 455.965 L 1166.869 456 1162.736 448.078 L 1158.603 440.155 1149.052 435.576 C 1143.798 433.057, 1138.747 430.998, 1137.827 430.998 C 1136.906 430.999, 1134.827 429.884, 1133.206 428.520 C 1131.585 427.156, 1128.175 425.147, 1125.629 424.055 C 1122.510 422.718, 1121 421.468, 1121 420.224 C 1121 417.688, 1116.692 414.733, 1109.246 412.160 C 1102.283 409.755, 1101.355 409.616, 1100.583 410.866" stroke="#995b45" fill="#995b45" fill-opacity="0.2" fill-rule="evenodd"/><path class="svg-region-BPCl" d="M 798 566.605 C 792.783 568.304, 787.541 574.599, 786.435 580.494 C 786.063 582.476, 785.124 584.733, 784.349 585.508 C 783.136 586.722, 783.144 587.408, 784.406 590.429 C 786.245 594.832, 791.497 600.142, 795.750 601.899 C 797.538 602.638, 799 603.587, 799 604.007 C 799 604.428, 800.585 605.524, 802.522 606.443 C 807.016 608.576, 815.317 608.678, 818.430 606.638 C 821.484 604.637, 827.010 593.598, 826.965 589.590 C 826.918 585.445, 824.652 575.331, 822.795 570.979 C 821.367 567.631, 820.941 567.397, 814.128 566.229 C 805.319 564.718, 803.676 564.756, 798 566.605" stroke="#83385f" fill="#83385f" fill-opacity="0.2" fill-rule="evenodd"/><path class="svg-region-BPCr" d="M 1015.295 563.278 C 1012.983 564.500, 1010.058 566.840, 1008.795 568.477 C 1006.732 571.153, 1006.526 572.374, 1006.761 580.537 C 1007.039 590.226, 1007.696 592.147, 1014.014 601.750 C 1017.115 606.463, 1017.828 606.995, 1020.984 606.951 C 1024.017 606.910, 1025.118 606.141, 1029 601.359 C 1031.475 598.310, 1036.313 592.603, 1039.750 588.677 C 1045.454 582.161, 1045.999 581.143, 1045.985 577.019 C 1045.967 571.759, 1046.070 571.932, 1039.293 565.750 L 1034.086 561 1026.793 561.028 C 1021.224 561.050, 1018.506 561.582, 1015.295 563.278" stroke="#83385f" fill="#83385f" fill-opacity="0.2" fill-rule="evenodd"/><path class="svg-region-OVl" d="M 697 387.703 C 689.966 388.525, 682.313 390.056, 679.500 391.202 C 670.788 394.753, 656.424 401.958, 654.426 403.779 C 652.582 405.459, 645.448 410.239, 638 414.785 C 636.075 415.960, 627.222 424.251, 618.327 433.211 L 602.154 449.500 603.362 454.202 C 604.026 456.787, 604.892 459.225, 605.285 459.618 C 606.432 460.765, 606.041 468.306, 604.715 470.611 C 601.816 475.650, 593.988 482.964, 588.356 485.895 C 578.761 490.889, 562.592 493.078, 553.235 490.651 L 548.024 489.299 548.627 493.066 C 549.145 496.306, 548.759 497.433, 545.864 501.134 C 541.595 506.592, 539.972 508.006, 532 513.212 C 528.425 515.546, 525.169 517.916, 524.765 518.478 C 524.361 519.040, 524.024 521.862, 524.015 524.750 C 523.998 530.519, 525.906 533.436, 530.439 534.574 C 531.808 534.918, 533.209 536.084, 533.552 537.165 C 533.896 538.247, 535.533 540.677, 537.192 542.566 C 540.129 545.911, 540.405 546, 547.783 546 C 555.544 546, 559.407 545.153, 566.610 541.872 C 568.870 540.842, 571.032 540, 571.413 540 C 571.795 540, 576.784 537.750, 582.500 535 C 588.216 532.250, 593.630 530, 594.532 530 C 595.434 530, 598.946 529.327, 602.336 528.503 C 605.726 527.680, 611.982 526.742, 616.237 526.419 C 623.086 525.899, 623.804 525.661, 622.487 524.344 C 621.669 523.526, 621 522.663, 621 522.427 C 621 522.190, 622.881 520.225, 625.180 518.059 C 630.194 513.336, 637.124 509.486, 642.250 508.575 C 645.924 507.923, 646.990 506.730, 645 505.500 C 642.550 503.986, 644.012 498.753, 648 494.765 C 653.265 489.499, 653.133 488.566, 647.250 489.470 C 637.675 490.942, 634.528 490.697, 634.207 488.456 C 633.913 486.402, 641.093 480.684, 654.769 472.081 C 657.667 470.259, 660.822 467.771, 661.779 466.554 C 662.737 465.336, 664.036 464.512, 664.667 464.722 C 665.297 464.932, 666.425 464.231, 667.173 463.163 C 667.921 462.096, 670.132 460.554, 672.086 459.737 C 674.040 458.921, 677.633 456.964, 680.070 455.388 C 682.506 453.813, 685.781 451.959, 687.346 451.270 C 688.912 450.580, 691.883 448.677, 693.949 447.041 C 697.753 444.027, 703.416 440.978, 712.500 437.052 C 715.250 435.863, 718.400 434.498, 719.500 434.019 C 720.600 433.539, 722.175 432.901, 723 432.602 C 723.825 432.303, 722.025 432.158, 719 432.279 C 713.544 432.498, 713.498 432.476, 713.201 429.446 C 712.968 427.064, 713.793 425.380, 716.951 421.793 C 721.701 416.397, 722.172 412.666, 718.803 407.118 C 717.594 405.128, 716.334 403.275, 716.001 403 C 715.669 402.725, 714.587 400.339, 713.596 397.697 C 711.876 393.113, 711.862 391.713, 713.494 387.750 C 714.354 385.661, 714.465 385.661, 697 387.703 M 728.510 431.016 C 728.856 431.575, 729.557 431.774, 730.069 431.457 C 731.456 430.600, 731.198 430, 729.441 430 C 728.584 430, 728.165 430.457, 728.510 431.016" stroke="#593939" fill="#593939" fill-opacity="0.2" fill-rule="evenodd"/><path class="svg-region-OVr" d="M 1184.531 430.950 C 1184.208 431.472, 1181.768 431.641, 1179.107 431.326 C 1176.075 430.967, 1174.017 431.163, 1173.592 431.852 C 1173.169 432.536, 1171.264 432.724, 1168.536 432.350 C 1164.731 431.828, 1163.822 432.087, 1161.580 434.330 C 1158.486 437.423, 1158.288 440.825, 1161 444.273 C 1162.100 445.671, 1163 447.446, 1163 448.217 C 1163 448.987, 1163.661 450.491, 1164.468 451.559 C 1165.276 452.626, 1165.951 453.994, 1165.968 454.598 C 1166.014 456.196, 1160.112 456.109, 1156.932 454.465 C 1154.301 453.104, 1154.148 453.169, 1152.684 456.277 C 1151.849 458.050, 1150.835 461.300, 1150.432 463.500 C 1150.028 465.700, 1148.866 469.450, 1147.849 471.833 C 1145.485 477.374, 1145.524 479.079, 1148.117 483.473 C 1149.545 485.894, 1150.764 486.898, 1151.867 486.559 C 1152.765 486.283, 1158.450 485.595, 1164.500 485.029 C 1186.781 482.948, 1199.939 484.169, 1211.321 489.375 C 1214.350 490.761, 1219.341 492.625, 1222.414 493.518 C 1227.925 495.120, 1229.743 497.394, 1226.506 498.636 C 1222.560 500.150, 1227.355 500.999, 1239.809 500.991 C 1258.256 500.980, 1264 500.252, 1264 497.928 C 1264 496.940, 1265.010 495.824, 1266.250 495.443 C 1269.043 494.585, 1271.282 492.290, 1273.488 488.024 C 1275.129 484.849, 1275.127 483.491, 1273.460 475.430 C 1272.961 473.012, 1273.375 471.708, 1275.413 469.286 C 1278.997 465.026, 1278.799 463.579, 1274.750 464.444 C 1253.052 469.074, 1241.040 465.932, 1227.545 452.095 C 1223.296 447.739, 1221.870 446.913, 1217.545 446.305 C 1214.770 445.915, 1211.966 445.700, 1211.313 445.827 C 1210.660 445.955, 1206.760 444.417, 1202.647 442.410 C 1197.044 439.677, 1194.378 437.662, 1192.022 434.381 C 1189.040 430.229, 1185.873 428.779, 1184.531 430.950" stroke="#593939" fill="#593939" fill-opacity="0.2" fill-rule="evenodd"/>
    </svg>