<svg xmlns="http://www.w3.org/2000/svg" width="1921" height="1027" viewBox="0 0 1921 1027" version="1.1">
    <path class="svg-region-V" d="M 772.500 163.966 C 768.650 164.995, 764.283 165.874, 762.796 165.918 C 759.940 166.005, 743.756 170.990, 740.448 172.803 C 739.377 173.390, 737.150 174.314, 735.500 174.857 C 730.908 176.366, 716.977 182.410, 712.564 184.808 C 709.066 186.709, 691.889 201.951, 669.987 222.589 C 665.849 226.488, 662.022 229.863, 661.482 230.089 C 660.536 230.485, 658.015 234.654, 654.280 242 C 653.301 243.925, 652.275 245.727, 652 246.005 C 650.819 247.199, 640.996 266.977, 639.089 272 C 637.484 276.227, 637.001 279.785, 637.001 287.371 L 637 297.242 642.073 306.032 C 644.863 310.867, 647.901 315.473, 648.823 316.269 C 651.090 318.225, 661.402 323.368, 667.289 325.478 C 669.924 326.423, 673.299 328.193, 674.789 329.413 C 680.005 333.680, 684.765 336, 688.304 336 C 690.267 336, 696.514 337.125, 702.186 338.499 C 711.458 340.746, 713.106 340.880, 718.500 339.827 C 724.605 338.635, 734 333.726, 734 331.729 C 734 331.124, 734.912 329.658, 736.027 328.471 C 737.142 327.284, 738.241 325.455, 738.468 324.407 C 738.696 323.358, 739.452 321.051, 740.149 319.279 C 741.222 316.554, 741.154 315.324, 739.709 311.279 C 737.667 305.560, 738.651 296.919, 741.954 291.575 C 745.355 286.071, 756.938 279.447, 767.616 276.898 C 770.302 276.257, 773.400 275.378, 774.500 274.944 C 775.600 274.511, 779.148 273.885, 782.385 273.553 C 785.622 273.222, 788.693 272.689, 789.210 272.370 C 789.727 272.051, 793.603 271.633, 797.825 271.442 C 802.046 271.250, 807.072 270.622, 808.993 270.047 C 815.917 267.972, 837.849 269.645, 857 273.708 L 864.500 275.300 877.104 287.729 C 898.498 308.827, 901.448 309.729, 915.882 299.583 C 918.736 297.577, 922.517 295.657, 924.285 295.317 C 930.974 294.030, 949 284.339, 949 282.031 C 949 281.531, 951.138 280.831, 953.750 280.475 C 956.362 280.119, 961.879 279.173, 966.009 278.372 C 971.490 277.310, 978.915 277.008, 993.509 277.253 C 1013.714 277.593, 1013.516 277.567, 1039.500 283.187 C 1046.922 284.792, 1051.418 287.418, 1057.986 293.986 C 1065.048 301.048, 1065.500 302.627, 1065.500 320.239 L 1065.500 332.979 1068.435 334.002 C 1070.049 334.565, 1072.181 335.759, 1073.173 336.656 C 1074.435 337.799, 1077.751 338.470, 1084.238 338.897 C 1090.660 339.319, 1094.258 340.041, 1095.973 341.253 C 1101.105 344.880, 1105.521 343.857, 1125.500 334.415 C 1128.250 333.115, 1132.418 331.517, 1134.762 330.864 C 1139.757 329.472, 1140.520 328.700, 1144.500 321.012 C 1154.082 302.502, 1157 295.059, 1157 289.125 C 1157 283.519, 1154.490 273.900, 1151.473 267.946 C 1150.164 265.363, 1148.208 259.871, 1147.126 255.742 C 1144.920 247.319, 1142.311 241.680, 1137.468 234.869 C 1135.657 232.322, 1133.438 228.815, 1132.538 227.074 C 1130.679 223.478, 1116.761 209.123, 1110 203.827 C 1100.212 196.161, 1086.774 188.841, 1069.500 181.767 C 1055.711 176.120, 1053.875 175.559, 1041 173.055 C 1035.225 171.932, 1027.800 170.448, 1024.500 169.757 C 1017.605 168.313, 998.634 168.387, 992 169.884 C 989.525 170.443, 983.675 171.612, 979 172.482 C 974.325 173.352, 967.800 174.769, 964.500 175.631 C 961.200 176.492, 954.675 177.611, 950 178.117 C 936.077 179.625, 898.832 180.706, 895 179.713 C 893.075 179.214, 889.025 178.499, 886 178.123 C 882.975 177.747, 878.968 176.665, 877.096 175.720 C 875.224 174.774, 872.438 174, 870.904 174 C 869.370 174, 865.051 172.920, 861.307 171.601 C 857.563 170.281, 849.775 168.424, 844 167.474 C 838.225 166.524, 831.416 165.169, 828.868 164.462 C 826.087 163.691, 815.298 162.961, 801.868 162.636 C 782.073 162.157, 778.695 162.310, 772.500 163.966" stroke="#dd8a8a" fill="#dd8a8a" fill-opacity="0.2" fill-rule="evenodd"/><path class="svg-region-SV" d="M 808.052 270.104 C 806.706 270.642, 802.206 271.245, 798.052 271.446 C 793.899 271.646, 789.825 272.082, 789 272.414 C 788.175 272.747, 784.575 273.415, 781 273.898 C 763.213 276.300, 746.858 283.640, 742.086 291.360 C 738.830 296.630, 737.422 306.982, 739.434 310.872 C 741.395 314.665, 741.429 318.050, 739.532 320.559 C 738.724 321.626, 738.049 323.365, 738.032 324.421 C 738.014 325.478, 737.264 327.156, 736.364 328.150 C 734.928 329.737, 734.886 330.542, 736.016 334.729 C 737.716 341.024, 738.642 341.964, 747.165 346.040 C 751.234 347.986, 755.917 351.165, 757.866 353.305 C 761.568 357.369, 767.519 361.239, 773.008 363.153 C 774.862 363.799, 778.704 365.957, 781.546 367.947 C 784.388 369.938, 788.578 372.408, 790.857 373.435 C 794.797 375.212, 795.185 375.220, 798.772 373.603 C 802.320 372.003, 802.522 371.672, 802.174 368.027 C 801.844 364.569, 802.126 363.986, 804.795 362.606 C 806.440 361.755, 810.872 360.652, 814.643 360.156 C 818.414 359.659, 826.880 357.815, 833.455 356.059 L 845.410 352.866 897.955 353.392 C 927.016 353.683, 952.511 354.364, 955 354.915 C 957.475 355.464, 961.698 355.932, 964.385 355.956 C 967.071 355.980, 972.246 356.509, 975.885 357.131 C 981.960 358.169, 982.869 358.666, 987.014 363.212 L 991.528 368.163 1001.774 368.727 C 1009.911 369.176, 1012.378 368.992, 1013.760 367.834 C 1014.717 367.032, 1017.525 365.562, 1020 364.567 C 1022.475 363.573, 1027.994 361.228, 1032.265 359.355 C 1036.535 357.483, 1042.742 355.256, 1046.057 354.407 C 1055.273 352.046, 1058.342 350.471, 1062.333 346.054 C 1065.757 342.263, 1066.482 340.821, 1066.072 338.612 C 1065.982 338.123, 1065.850 330.698, 1065.780 322.112 C 1065.710 313.525, 1065.210 305.150, 1064.670 303.500 C 1062.003 295.354, 1050.796 285.944, 1041 283.627 C 1017.710 278.117, 1013.761 277.592, 993.053 277.253 C 980.284 277.044, 970.708 277.342, 967.553 278.046 C 964.774 278.665, 959.653 279.544, 956.174 279.999 C 952.232 280.514, 949.397 281.442, 948.650 282.464 C 946.773 285.031, 939.613 289.132, 928.500 294.006 C 927.400 294.489, 925.063 295.165, 923.306 295.509 C 921.549 295.853, 918.055 297.705, 915.541 299.625 C 910.064 303.806, 905.110 306, 901.142 306 C 897.115 306, 888.809 299.597, 876 286.620 C 863.671 274.129, 863.179 273.912, 840.500 270.957 C 824.388 268.857, 811.990 268.532, 808.052 270.104" stroke="#c666b5" fill="#c666b5" fill-opacity="0.2" fill-rule="evenodd"/><path class="svg-region-PC" d="M 903 363.149 C 876.764 364.943, 870.550 365.854, 859.500 369.528 C 849.323 372.911, 839.302 377.657, 832.846 382.152 C 831.386 383.168, 829.434 384, 828.508 384 C 827.582 384, 823.921 385.624, 820.372 387.609 C 816.213 389.935, 813.066 391.055, 811.520 390.759 C 809.691 390.409, 808.132 391.308, 804.952 394.549 C 800.850 398.728, 800.821 398.807, 803.142 399.479 C 808.203 400.944, 814.112 404.128, 814.723 405.721 C 815.185 406.926, 813.539 409.086, 808.835 413.447 C 805.244 416.776, 801.501 420.902, 800.517 422.614 C 799.534 424.327, 797.507 426.451, 796.014 427.333 C 794.520 428.215, 791.376 430.863, 789.027 433.218 C 782.606 439.654, 780.121 440.985, 774.500 441.001 C 769.721 441.015, 769.399 441.192, 767.220 445.008 C 765.966 447.203, 764.504 449, 763.970 449 C 763.437 449, 763 449.461, 763 450.024 C 763 450.587, 761.425 453.338, 759.500 456.136 C 756.363 460.696, 756 461.913, 756 467.857 C 756 473.987, 756.311 474.943, 760.119 480.494 C 765.420 488.226, 773.744 495.330, 776.500 494.477 C 785.665 491.641, 785.413 491.627, 793.057 495.392 C 801.353 499.479, 801.419 499.460, 805.822 491.669 C 809.339 485.447, 817.900 477.196, 821.730 476.337 C 823.393 475.964, 826.497 473.410, 829.500 469.943 C 837.810 460.349, 855.117 443.455, 861.582 438.626 C 865.614 435.614, 868.971 431.961, 871.538 427.791 C 876.352 419.971, 885.100 411.296, 892.112 407.388 C 893.975 406.350, 897.075 404.343, 899 402.928 C 900.925 401.514, 903.954 399.775, 905.732 399.065 C 909.585 397.524, 921.077 398.066, 925.500 399.997 C 927.150 400.718, 929.046 401.421, 929.714 401.560 C 930.382 401.699, 932.182 402.689, 933.714 403.760 C 935.246 404.832, 937.706 406, 939.180 406.356 C 940.654 406.712, 942.495 407.638, 943.272 408.415 C 944.048 409.191, 946.404 410.749, 948.507 411.876 C 952.496 414.014, 968.282 429.437, 971.472 434.312 C 972.483 435.859, 975.379 438.175, 977.906 439.460 C 980.433 440.746, 984.750 443.425, 987.500 445.416 C 990.250 447.406, 994.405 450.374, 996.734 452.012 C 999.063 453.650, 1002.060 456.679, 1003.394 458.745 C 1006.680 463.832, 1012.490 469.356, 1025.140 479.420 C 1034.978 487.247, 1036.147 487.898, 1040.640 488.053 C 1045.041 488.205, 1051.906 486.428, 1053.648 484.685 C 1054.025 484.308, 1056.037 484, 1058.120 484 C 1061.515 484, 1062.088 483.613, 1063.670 480.250 C 1064.639 478.188, 1066.769 474.592, 1068.402 472.260 C 1070.681 469.006, 1071.473 466.608, 1071.810 461.948 C 1072.216 456.338, 1071.997 455.518, 1068.933 451.188 C 1063.524 443.543, 1057.080 436.735, 1052.037 433.339 C 1049.436 431.588, 1046.002 428.856, 1044.404 427.269 C 1042.807 425.682, 1040.037 423.525, 1038.250 422.476 C 1036.463 421.427, 1035 420.216, 1035 419.784 C 1035 419.353, 1034.566 419, 1034.035 419 C 1030.675 419, 1009.906 402.748, 1005.393 396.589 C 1000.131 389.406, 988.961 376.751, 985.351 373.881 C 981.598 370.899, 968.896 366.602, 960.500 365.474 C 957.750 365.105, 954.825 364.447, 954 364.013 C 951.997 362.958, 914.966 362.331, 903 363.149" stroke="#cda789" fill="#cda789" fill-opacity="0.2" fill-rule="evenodd"/><path class="svg-region-DB" d="M 728.943 335.821 C 723.333 339.379, 713.975 341.298, 708.500 340.014 C 705.218 339.245, 703.179 339.518, 697.136 341.538 C 693.086 342.892, 688.794 344, 687.598 344 C 686.402 344, 683.640 344.924, 681.461 346.053 C 679.283 347.183, 674.046 349.452, 669.825 351.097 C 665.604 352.742, 660.654 355.080, 658.825 356.294 C 656.996 357.507, 652.688 359.820, 649.250 361.434 C 643.809 363.988, 643 364.724, 643 367.119 C 643 368.632, 643.422 370.979, 643.937 372.335 C 644.534 373.905, 644.503 376.197, 643.853 378.650 C 641.595 387.156, 640.653 390, 640.090 390.004 C 638.980 390.010, 631 397.247, 631 398.247 C 631 398.847, 631.542 398.795, 632.359 398.117 C 636.932 394.322, 650.867 392.894, 656.633 395.630 C 661.161 397.779, 663 400.585, 663 405.348 C 663 409.218, 663.026 409.245, 666.250 408.593 C 671.196 407.593, 682.955 405.863, 688 405.393 C 690.475 405.162, 696.325 404.288, 701 403.450 C 705.675 402.612, 714.445 401.605, 720.488 401.213 C 730.393 400.570, 731.513 400.303, 731.846 398.500 C 732.621 394.303, 733.696 394, 747.826 394 C 762.859 394, 779.858 395.435, 790.373 397.591 C 794.153 398.366, 797.884 399, 798.666 399 C 799.447 399, 802.316 396.913, 805.043 394.363 C 808.720 390.924, 810 388.997, 810 386.904 L 810 384.081 801.750 383.790 L 793.500 383.500 793.170 380.609 C 792.985 378.993, 793.427 377.305, 794.170 376.782 C 794.950 376.234, 795.086 375.664, 794.500 375.405 C 793.651 375.029, 781.756 367.989, 777 365.048 C 776.175 364.538, 772.863 362.971, 769.640 361.565 C 766.356 360.133, 761.520 356.826, 758.640 354.043 C 755.813 351.311, 750.125 347.368, 746 345.280 C 739.160 341.819, 738.382 341.112, 737.155 337.242 C 736.415 334.909, 735.266 333, 734.601 333 C 733.936 333, 731.390 334.270, 728.943 335.821 M 1072.226 341.710 C 1066.320 342.074, 1065.721 342.347, 1062.009 346.375 C 1058.063 350.655, 1057.077 351.110, 1042 355.594 C 1038.975 356.493, 1033.800 358.471, 1030.500 359.987 C 1027.200 361.504, 1022.475 363.562, 1020 364.560 C 1017.525 365.558, 1014.714 367.034, 1013.753 367.840 C 1012.332 369.031, 1009.848 369.182, 1000.474 368.646 C 990.710 368.089, 988.853 368.219, 988.364 369.494 C 988.046 370.322, 986.934 371, 985.893 371 C 983.293 371, 983.511 373.390, 986.250 374.912 C 987.487 375.599, 990.525 378.630, 993 381.648 C 999.713 389.833, 1001.198 391.284, 1001.880 390.323 C 1002.566 389.357, 1028.504 390.355, 1045 391.983 C 1066.608 394.116, 1066.042 393.998, 1067.239 396.625 C 1067.846 397.958, 1069.278 399.259, 1070.421 399.518 C 1073.515 400.217, 1098.527 403.066, 1106 403.570 C 1114.413 404.138, 1128.230 406.706, 1132.305 408.460 C 1134.062 409.216, 1138.200 410.592, 1141.500 411.517 C 1158.590 416.309, 1159.497 416.701, 1163.347 420.962 L 1166.716 424.691 1178.834 424.543 C 1190.168 424.404, 1191.129 424.236, 1193.697 421.947 C 1198.048 418.069, 1198.958 416.835, 1201.703 411.095 C 1203.780 406.753, 1204.063 405.331, 1203.144 403.859 C 1202.515 402.851, 1202 400.761, 1202 399.214 C 1202 395.303, 1200.311 394, 1195.243 394 C 1191.168 394, 1190.371 393.503, 1182.943 386.322 C 1177.754 381.306, 1175 377.881, 1175 376.444 C 1175 375.235, 1174.325 373.685, 1173.500 373 C 1172.675 372.315, 1172 371.151, 1172 370.413 C 1172 369.674, 1171.100 368.589, 1170 368 C 1168.868 367.394, 1168 365.906, 1168 364.572 C 1168 362.206, 1166.343 361, 1163.093 361 C 1162.133 361, 1160.334 359.920, 1159.095 358.601 C 1154.918 354.154, 1145.383 350.683, 1136 350.193 C 1129.195 349.838, 1126.403 349.185, 1122 346.919 C 1117.893 344.806, 1113.967 343.803, 1106.500 342.963 C 1094.914 341.658, 1081.192 341.157, 1072.226 341.710 M 1155 377 C 1150.502 381.498, 1154.283 387.197, 1163.299 389.512 C 1166.488 390.330, 1170.356 391, 1171.894 391 C 1175.116 391, 1178 388.287, 1178 385.255 C 1178 382.381, 1171.552 377.569, 1165.807 376.155 C 1159.267 374.545, 1157.301 374.699, 1155 377" stroke="#e8b1e4" fill="#e8b1e4" fill-opacity="0.2" fill-rule="evenodd"/><path class="svg-region-IBl" d="M 704.707 449.478 C 700.971 450.254, 696.454 451.792, 694.669 452.895 C 685.498 458.563, 683.349 475.633, 690.363 487.092 C 693.404 492.059, 694.739 493.141, 701.865 496.415 C 713.380 501.706, 733.602 496.985, 739.876 487.541 C 744.519 480.553, 745.468 477.920, 745.429 472.130 C 745.368 463.045, 738.467 452.991, 731.232 451.445 C 729.729 451.124, 727.414 450.419, 726.087 449.878 C 721.955 448.194, 711.800 448.004, 704.707 449.478" stroke="#b10e0e" fill="#b10e0e" fill-opacity="0.2" fill-rule="evenodd"/><path class="svg-region-IBr" d="M 1110.500 437.864 C 1095.531 439.793, 1086.169 457.357, 1093.098 470.512 C 1097.527 478.920, 1111.425 485.993, 1122.573 485.514 C 1132.876 485.071, 1139.218 482.994, 1145.500 478.004 C 1151.577 473.177, 1153.349 469.731, 1153.410 462.623 C 1153.452 457.698, 1152.901 455.481, 1150.595 451.292 C 1147.998 446.574, 1145.683 444.464, 1138 439.804 C 1135.111 438.052, 1118.263 436.864, 1110.500 437.864" stroke="#b10e0e" fill="#b10e0e" fill-opacity="0.2" fill-rule="evenodd"/><path class="svg-region-MB" d="M 713.857 401.676 C 707.611 402.322, 700.025 403.349, 697 403.958 C 693.975 404.566, 689.700 405.217, 687.500 405.405 C 682.542 405.827, 676.219 406.760, 668.860 408.157 C 663.363 409.199, 663.204 409.323, 662.618 412.988 C 662.190 415.667, 661.061 417.479, 658.701 419.279 C 652.328 424.140, 638.506 426.555, 632.562 423.846 C 629.177 422.304, 625.672 414.939, 626.194 410.466 C 626.552 407.399, 626.334 407, 624.299 407 C 622.778 407, 621.998 407.592, 621.995 408.750 C 621.992 409.712, 620.881 412.300, 619.526 414.500 C 617.886 417.164, 617.052 420.008, 617.031 423.014 C 617.014 425.497, 616.100 429.991, 615 433 C 613.900 436.009, 613 438.579, 613 438.710 C 613 438.841, 611.672 439.635, 610.050 440.474 C 606.248 442.440, 600.713 442.420, 596.857 440.426 C 592.804 438.330, 592.053 439.384, 595.193 442.760 C 599.471 447.360, 604.889 455.941, 605.968 459.823 C 608.298 468.215, 607.112 473.168, 601.638 477.893 C 600.615 478.777, 599.265 479.975, 598.638 480.556 C 598.012 481.137, 596.702 481.914, 595.726 482.284 C 594.215 482.856, 591.767 486.966, 592.463 487.763 C 592.589 487.908, 595.747 486.876, 599.481 485.471 C 609.654 481.642, 619.266 479.909, 631.500 479.698 C 643.429 479.493, 648.252 480.715, 652.804 485.097 C 654.899 487.112, 655.156 488.107, 654.774 492.708 C 654.301 498.414, 654.653 498.748, 658.854 496.576 C 660.369 495.792, 665.859 494.169, 671.054 492.969 C 681.390 490.581, 688.621 487.216, 688.286 484.950 C 688.168 484.152, 687.577 481.250, 686.973 478.500 C 684.895 469.042, 687.547 459.204, 693.620 453.840 C 698.561 449.475, 714.251 447.283, 724 449.595 C 733.399 451.824, 735.489 452.791, 738.828 456.461 C 747.456 465.942, 747.806 476.152, 739.898 487.647 C 735.950 493.387, 724.566 498.244, 714.707 498.396 C 709.174 498.481, 707.994 498.778, 708.346 500 C 709.478 503.931, 711.030 510.858, 711.510 514.124 L 712.043 517.748 718.272 516.519 C 721.697 515.843, 726.525 514.509, 729 513.555 C 731.475 512.601, 736.518 511.060, 740.206 510.130 C 743.895 509.201, 748.301 507.414, 749.997 506.160 C 751.694 504.906, 756.028 502.771, 759.629 501.415 C 763.229 500.060, 768.024 498.008, 770.284 496.855 C 773.741 495.091, 774.148 494.581, 772.855 493.630 C 768.150 490.169, 763.493 485.366, 759.975 480.343 C 756.432 475.285, 756 474.027, 756 468.768 C 756 462.071, 756.219 461.549, 763.765 450.223 C 766.798 445.671, 769.091 441.758, 768.862 441.528 C 768.632 441.299, 763.277 440.985, 756.961 440.831 C 747.401 440.598, 745.066 440.840, 743.017 442.276 C 741.663 443.224, 738.855 444, 736.777 444 C 733.153 444, 733 443.863, 733 440.621 C 733 437.810, 732.496 437.034, 730 436 C 727.567 434.992, 727 434.164, 727 431.615 C 727 428.906, 727.550 428.233, 730.978 426.748 C 736.801 424.226, 737.222 421.197, 732.544 415.489 C 730.521 413.020, 728.446 411, 727.933 411 C 726.125 411, 727.029 407.877, 729.500 405.588 C 730.875 404.313, 732 402.647, 732 401.885 C 732 400.161, 728.838 400.125, 713.857 401.676 M 1073.500 401.819 C 1075.150 402.840, 1077.175 404.499, 1078 405.505 C 1081.735 410.059, 1087.245 413, 1092.039 413 C 1095.209 413, 1097.557 413.631, 1099.131 414.905 L 1101.483 416.809 1096.741 421.224 C 1093.127 424.590, 1092 426.351, 1092 428.631 C 1092 431.386, 1091.602 431.724, 1086.962 432.913 C 1083.255 433.863, 1078.062 434.011, 1067.294 433.473 L 1052.663 432.741 1058.438 438.621 C 1061.614 441.854, 1066.015 447.137, 1068.219 450.360 C 1071.953 455.823, 1072.196 456.603, 1071.802 461.860 C 1071.499 465.915, 1070.556 468.765, 1068.447 472 C 1064.632 477.853, 1062.049 483.270, 1062.627 484.205 C 1063.730 485.991, 1074.018 488, 1082.057 488 C 1094.612 488, 1096.708 488.586, 1097.984 492.452 C 1099.084 495.785, 1102.913 499.941, 1106.651 501.860 C 1110.307 503.737, 1134.562 505.972, 1140.857 505.012 L 1144.214 504.500 1142.107 502.595 C 1140.247 500.914, 1140 499.581, 1140 491.238 C 1140 482.619, 1139.846 481.852, 1138.250 482.531 C 1134.506 484.124, 1124.015 485.693, 1119.421 485.346 C 1112.186 484.801, 1108.447 483.509, 1101.948 479.309 C 1091.407 472.497, 1087.865 461.485, 1093.001 451.498 C 1095.929 445.804, 1097.944 443.703, 1103.720 440.318 C 1108.240 437.669, 1108.981 437.556, 1121.117 437.657 C 1133.029 437.756, 1134.105 437.933, 1138.975 440.583 C 1141.825 442.134, 1145.436 444.711, 1146.999 446.310 C 1150.565 449.958, 1152 449.125, 1152 443.409 C 1152 440.949, 1152.640 437.403, 1153.423 435.530 C 1154.839 432.142, 1162.074 426, 1164.650 426 C 1167.140 426, 1166.033 423.263, 1162.112 419.720 C 1159.651 417.497, 1156.070 415.602, 1152.362 414.560 C 1138.395 410.636, 1135.333 409.695, 1132.500 408.460 C 1128.480 406.707, 1114.253 404.140, 1105.009 403.500 C 1100.888 403.215, 1096.838 402.779, 1096.009 402.531 C 1094.009 401.935, 1086.314 401.069, 1077.581 400.458 L 1070.500 399.962 1073.500 401.819 M 640.500 444.736 C 638.174 445.322, 630.061 450.809, 628.282 453 C 626.089 455.700, 626.771 460.415, 629.750 463.151 C 635.041 468.008, 638.775 468.999, 650.111 468.557 C 655.825 468.334, 661.767 467.668, 663.315 467.076 C 664.863 466.484, 667.226 466, 668.565 466 C 669.904 466, 671 465.534, 671 464.965 C 671 461.847, 661.968 451.934, 654.405 446.750 C 650.476 444.057, 645.852 443.388, 640.500 444.736 M 1207.443 448.223 C 1211.396 453.866, 1208.191 459.842, 1198.609 464.698 L 1193.702 467.185 1199.601 469.675 C 1202.845 471.045, 1206.937 472.646, 1208.694 473.233 L 1211.887 474.301 1208.230 478.764 C 1202.941 485.219, 1198.223 489.769, 1192.223 494.203 C 1186.209 498.648, 1186.296 500.452, 1192.491 499.754 C 1198.740 499.050, 1206.906 494.743, 1211.940 489.496 C 1214.381 486.951, 1217.756 484.293, 1219.440 483.589 C 1221.123 482.885, 1225.163 479.751, 1228.418 476.623 C 1234.512 470.766, 1234.625 470.204, 1230.227 467.634 C 1224.103 464.056, 1219.824 460.567, 1214.250 454.608 C 1210.813 450.934, 1208 447.493, 1208 446.963 C 1208 446.434, 1207.524 446, 1206.943 446 C 1206.351 446, 1206.571 446.977, 1207.443 448.223" stroke="#f9c6c6" fill="#f9c6c6" fill-opacity="0.2" fill-rule="evenodd"/><path class="svg-region-LBl" d="M 637.526 395.664 C 632.591 397.441, 630.320 399.456, 627.894 404.210 C 624.761 410.348, 625.995 417.995, 630.912 422.912 C 633.679 425.679, 642.441 425.725, 651.202 423.019 C 659.838 420.352, 662.253 417.646, 662.805 410.023 C 663.394 401.870, 662.585 399.470, 658.256 396.528 C 655.151 394.418, 653.458 394.019, 648.018 394.117 C 644.433 394.181, 639.712 394.877, 637.526 395.664" stroke="#79495c" fill="#79495c" fill-opacity="0.2" fill-rule="evenodd"/><path class="svg-region-LBr" d="M 1154.655 376.829 C 1152.315 379.414, 1152.602 383.278, 1155.324 385.835 C 1157.738 388.102, 1167.033 391, 1171.894 391 C 1175.120 391, 1178 388.286, 1178 385.244 C 1178 378.776, 1159.068 371.952, 1154.655 376.829" stroke="#79495c" fill="#79495c" fill-opacity="0.2" fill-rule="evenodd"/><path class="svg-region-AP" d="M 990.500 473.169 C 985.550 474.784, 979.700 476.914, 977.500 477.901 C 971.348 480.662, 966.669 482, 963.164 482 C 961.407 482, 957.578 483.350, 954.654 485 C 951.730 486.650, 948.159 488, 946.718 488 C 943.178 488, 933.085 490.684, 931.416 492.070 C 929.425 493.722, 900.057 493.365, 895.251 491.631 C 888.229 489.097, 881.983 488, 874.569 488 C 867.547 488, 861.653 486.412, 855.575 482.882 C 854.516 482.268, 849.566 480.475, 844.575 478.900 C 834.342 475.670, 823.739 475.049, 819.169 477.413 C 815.375 479.374, 807.610 487.885, 805.069 492.864 C 803.905 495.146, 802.105 497.542, 801.069 498.189 C 799.310 499.287, 799.428 499.555, 802.842 502.212 C 804.854 503.778, 807.750 506.058, 809.277 507.279 C 810.804 508.501, 813.818 512.425, 815.974 516 C 818.131 519.575, 822.258 524.975, 825.146 528 C 828.033 531.025, 831.635 534.997, 833.149 536.826 C 836.088 540.376, 839 548.849, 839 553.847 C 839 557.280, 836.001 562.891, 831.522 567.837 C 826.999 572.832, 826.039 575.085, 826.674 579.216 C 827.033 581.551, 826.642 584.439, 825.622 586.988 C 824.729 589.219, 823.524 593.172, 822.944 595.772 C 821.550 602.021, 819.502 605, 816.599 605 C 815.304 605, 812.629 605.675, 810.654 606.500 C 808.680 607.325, 805.909 608, 804.497 608 C 801.994 608, 797.200 605.547, 795.804 603.551 C 795.391 602.962, 794.856 603.211, 794.490 604.164 C 793.816 605.922, 797.660 610.458, 812.069 624.907 C 816.782 629.633, 822.486 635.662, 824.744 638.305 C 830.186 644.675, 844.649 652.012, 860.500 656.445 C 863.800 657.368, 869.425 659.108, 873 660.311 C 879.206 662.401, 881.103 662.499, 915 662.484 C 950.120 662.468, 950.602 662.440, 960 659.864 C 973.345 656.206, 989.042 650.377, 992 647.980 C 993.375 646.866, 996.750 644.434, 999.500 642.576 C 1005.985 638.195, 1010.277 633.591, 1013.088 628 C 1014.332 625.525, 1016.733 622.131, 1018.425 620.458 C 1021.113 617.798, 1026.483 611.830, 1036.248 600.647 C 1038.928 597.578, 1039.917 594, 1038.087 594 C 1037.584 594, 1035.447 596.025, 1033.337 598.500 C 1029.945 602.478, 1029.024 603, 1025.399 603 C 1018.031 603, 1015.112 601.323, 1012.566 595.627 C 1010.338 590.646, 1008 580.670, 1008 576.150 C 1008 574.924, 1008.898 572.161, 1009.994 570.011 C 1012.435 565.227, 1011.427 561.493, 1007.270 559.912 C 1003.585 558.511, 1001 556.074, 1001 554 C 1001 553.070, 1000.120 551.513, 999.044 550.540 C 992.294 544.431, 998.198 528.229, 1010.171 520.003 C 1012.741 518.238, 1018.591 512.931, 1023.171 508.210 C 1036.242 494.738, 1041.172 490, 1042.121 490 C 1042.605 490, 1043 489.550, 1043 489 C 1043 488.450, 1041.390 488, 1039.421 488 C 1036.530 488, 1034.433 486.848, 1028.500 482 C 1024.461 478.700, 1020.893 476, 1020.570 476 C 1020.247 476, 1018.119 474.650, 1015.841 473 C 1012.249 470.398, 1010.891 470.015, 1005.600 470.116 C 1001.842 470.187, 996.045 471.359, 990.500 473.169" stroke="#fc7143" fill="#fc7143" fill-opacity="0.2" fill-rule="evenodd"/><path class="svg-region-LPl" d="M 777.080 494.145 C 773.548 495.263, 769.723 496.781, 768.580 497.519 C 767.436 498.258, 763.455 500, 759.734 501.392 C 753.720 503.641, 748.149 506.994, 744.172 510.757 C 743.442 511.448, 741.941 512.496, 740.837 513.087 C 739.734 513.678, 738.188 515.700, 737.402 517.580 C 736.498 519.745, 735.287 521, 734.103 521 C 727.842 521, 731.525 545.754, 739.442 556.881 C 745.804 565.823, 763.476 584.026, 769.351 587.689 C 771.633 589.112, 776.200 592.597, 779.500 595.433 C 788.107 602.830, 791.086 605, 792.635 605 C 795.144 605, 794.043 602.738, 788.871 597.270 L 783.742 591.847 784.231 585.019 C 784.923 575.342, 787.227 572.047, 796.574 567.365 C 803.686 563.802, 804.238 563.683, 807.777 564.930 C 815.478 567.645, 821.542 570.871, 822.758 572.901 C 824.289 575.454, 826.660 575.631, 827.434 573.250 C 827.747 572.288, 829.483 569.925, 831.292 568 C 838.997 559.801, 840.343 554.886, 837.503 545.323 C 835.896 539.911, 833.468 536.480, 824.062 526.327 C 820.761 522.764, 816.671 517.421, 814.973 514.453 C 813.276 511.486, 810.674 508.129, 809.193 506.994 C 807.712 505.859, 804.025 503.009, 801 500.660 C 794.710 495.777, 787.734 491.974, 785.219 492.056 C 784.274 492.087, 780.611 493.027, 777.080 494.145" stroke="#d2454f" fill="#d2454f" fill-opacity="0.2" fill-rule="evenodd"/><path class="svg-region-LPr" d="M 1049.654 486.120 C 1043.105 488.709, 1036.722 493.233, 1031.704 498.843 C 1022.394 509.249, 1013.332 518.007, 1009.850 519.964 C 1005.752 522.268, 999.816 529.919, 997.354 536.074 C 995.361 541.054, 996.049 547.359, 998.918 550.413 C 1000.063 551.632, 1001 553.355, 1001 554.242 C 1001 556.057, 1005.544 560, 1007.635 560 C 1008.386 560, 1009 560.378, 1009 560.839 C 1009 561.301, 1010.176 562.215, 1011.612 562.869 C 1013.781 563.857, 1015.147 563.715, 1019.650 562.030 C 1025.820 559.721, 1032.817 559.444, 1038.134 561.296 C 1043.465 563.154, 1044.483 564.339, 1046.516 571.052 C 1048.090 576.250, 1048.172 577.635, 1047.086 580.639 C 1046.388 582.570, 1046.038 584.371, 1046.309 584.642 C 1047.066 585.399, 1056.822 580.195, 1062.474 576.019 C 1065.255 573.965, 1068.491 571.979, 1069.664 571.607 C 1070.838 571.234, 1074.881 567.677, 1078.649 563.703 C 1082.417 559.728, 1087.219 555.005, 1089.320 553.207 C 1091.421 551.409, 1094.078 547.815, 1095.226 545.219 C 1096.373 542.624, 1098.586 538.913, 1100.143 536.974 C 1101.701 535.035, 1103.706 530.985, 1104.601 527.974 C 1105.988 523.303, 1106.051 521.474, 1105.031 515.500 C 1104.373 511.650, 1103.197 507.022, 1102.418 505.216 C 1101.638 503.410, 1101 500.918, 1101 499.678 C 1101 496.136, 1097.199 489.567, 1094.735 488.850 C 1093.506 488.492, 1088.101 488.155, 1082.725 488.100 C 1075.722 488.028, 1071.337 487.433, 1067.260 486 C 1060.348 483.571, 1056.029 483.600, 1049.654 486.120" stroke="#d2454f" fill="#d2454f" fill-opacity="0.2" fill-rule="evenodd"/><path class="svg-region-DMl" d="M 640.505 444.737 C 637.935 445.386, 629.968 450.850, 627.909 453.374 C 626.887 454.627, 626.530 456.293, 626.909 458.035 C 627.606 461.233, 631.002 466, 632.584 466 C 633.194 466, 635.030 466.667, 636.665 467.483 C 640.101 469.197, 658.501 468.916, 663.315 467.076 C 664.863 466.484, 667.488 466, 669.147 466 L 672.163 466 669.912 462.250 C 667.013 457.420, 661.709 451.837, 655.866 447.466 C 651.237 444.004, 646.636 443.186, 640.505 444.737" stroke="#68533d" fill="#68533d" fill-opacity="0.2" fill-rule="evenodd"/><path class="svg-region-DMr" d="M 1169 424.936 C 1161.759 426.012, 1156.151 429.809, 1153.125 435.684 C 1151.646 438.555, 1151.759 452.106, 1153.317 458.774 C 1154.317 463.052, 1155.206 464.468, 1158.025 466.274 C 1161.228 468.326, 1162.641 468.494, 1176.083 468.422 C 1190.153 468.348, 1190.891 468.239, 1197.083 465.321 C 1205.240 461.477, 1209 457.765, 1209 453.555 C 1209 451.810, 1208.339 449.509, 1207.532 448.441 C 1206.724 447.374, 1206.049 445.734, 1206.032 444.798 C 1205.985 442.283, 1190.981 427.308, 1186.728 425.531 C 1182.968 423.960, 1176.932 423.757, 1169 424.936" stroke="#68533d" fill="#68533d" fill-opacity="0.2" fill-rule="evenodd"/><path class="svg-region-Ol" d="M 442.500 332.448 C 431.145 334.177, 422.074 336.644, 410 341.289 C 391.439 348.428, 371.957 358.713, 361.709 366.781 C 358.294 369.470, 352.268 373.741, 348.317 376.272 C 344.366 378.802, 337.272 384.796, 332.552 389.591 C 321.478 400.841, 314.340 411.323, 302.651 433.500 C 297.608 443.069, 287.064 467.961, 282.532 481 C 281.290 484.575, 277.575 495.150, 274.277 504.500 C 270.979 513.850, 267.727 524.650, 267.050 528.500 C 266.373 532.350, 265.369 537.525, 264.820 540 C 262.444 550.694, 263.534 579.086, 266.856 593 C 267.446 595.475, 268.691 601.100, 269.622 605.500 C 270.553 609.900, 271.709 613.761, 272.190 614.079 C 272.671 614.398, 273.222 616.198, 273.414 618.079 C 273.606 619.961, 274.267 622.767, 274.882 624.315 C 275.497 625.863, 276.003 627.663, 276.007 628.315 C 276.010 628.967, 276.907 630.850, 278 632.500 C 279.093 634.150, 279.990 636.457, 279.993 637.628 C 279.997 638.798, 280.675 640.315, 281.500 641 C 282.325 641.685, 283 642.883, 283 643.662 C 283 645.062, 284.829 648.706, 289.443 656.500 C 290.745 658.700, 292.979 662.750, 294.408 665.500 C 295.836 668.250, 298.803 672.872, 301.002 675.770 C 303.201 678.669, 305 681.481, 305 682.020 C 305 682.559, 305.428 683, 305.952 683 C 306.476 683, 308.368 685.137, 310.156 687.750 C 311.945 690.362, 318.338 697.356, 324.362 703.291 C 334.905 713.677, 348.431 723.622, 363.133 731.798 C 370.637 735.970, 393.634 745.296, 408.475 750.184 C 415.061 752.353, 420.927 754.525, 421.511 755.009 C 422.094 755.493, 426.830 756.817, 432.036 757.951 C 437.241 759.085, 443.525 760.671, 446 761.474 C 458.032 765.382, 478.816 765.310, 493.500 761.311 C 498.450 759.963, 504.525 758.440, 507 757.928 C 509.475 757.416, 513.750 756.126, 516.500 755.062 C 519.250 753.998, 523.075 752.829, 525 752.464 C 526.925 752.098, 531.650 750.346, 535.500 748.569 C 543.583 744.839, 552.188 741.239, 556.500 739.785 C 558.150 739.228, 561.750 737.877, 564.500 736.781 C 573.841 733.061, 577.481 732.703, 613 732.014 C 634.201 731.603, 649.817 730.883, 651.768 730.227 C 653.566 729.623, 655.141 729.129, 655.268 729.129 C 655.396 729.129, 656.175 728.900, 657 728.619 C 657.825 728.339, 661.744 727.171, 665.710 726.024 C 669.675 724.877, 673.190 723.502, 673.520 722.967 C 673.851 722.432, 676.231 721.051, 678.811 719.897 C 692.569 713.741, 701.502 705.238, 714.422 686 C 728.911 664.426, 730.764 655.098, 728.526 615 C 728.028 606.071, 727.233 599.937, 725.871 594.500 C 725.320 592.300, 724.215 586.675, 723.416 582 C 722.047 573.991, 718.485 563.746, 715.032 557.892 C 713.034 554.503, 701.949 545.020, 699.973 545.009 C 699.132 545.004, 697.344 544.229, 695.998 543.286 C 691.047 539.818, 670.711 530.704, 656.135 525.420 C 652.635 524.151, 648.010 521.893, 645.858 520.401 C 642.041 517.757, 641.778 517.718, 635.222 518.836 C 624.305 520.698, 611.993 522, 605.296 522 C 599.164 522, 591 524.346, 591 526.109 C 591 526.599, 590.481 527, 589.846 527 C 589.212 527, 586.204 528.177, 583.163 529.616 C 578.528 531.809, 576.779 532.132, 572.354 531.612 C 564.872 530.732, 562.221 529.281, 561.418 525.626 C 560.764 522.650, 555.186 511.032, 553.915 510 C 550.871 507.527, 549.979 496.933, 552.532 493.559 C 553.339 492.491, 554 490.362, 554 488.828 C 554 486.689, 553.419 485.892, 551.509 485.413 C 546.502 484.156, 533.024 466.110, 532.994 460.623 C 532.990 460.005, 532.361 458.299, 531.596 456.832 C 530.830 455.364, 529.899 452.214, 529.528 449.832 C 528.751 444.856, 526.572 435.012, 524.457 426.934 C 523.656 423.873, 523 418.571, 523 415.152 C 523 411.733, 522.295 407.263, 521.433 405.218 C 520.423 402.821, 519.975 399.313, 520.172 395.342 C 520.396 390.810, 520.057 388.698, 518.885 387.342 C 516.706 384.821, 514.304 379.683, 513.470 375.760 C 512.644 371.873, 504.735 356.354, 500.315 349.946 C 494.253 341.158, 480.305 334.608, 465.076 333.395 C 461.543 333.114, 457.860 332.460, 456.892 331.942 C 454.766 330.804, 452.862 330.871, 442.500 332.448" stroke="#aa444d" fill="#aa444d" fill-opacity="0.2" fill-rule="evenodd"/><path class="svg-region-Or" d="M 1374 312.980 C 1372.625 313.477, 1368.350 314.865, 1364.500 316.064 C 1356.274 318.626, 1346.864 323.105, 1342.139 326.708 C 1338.746 329.296, 1331.027 340.429, 1331.010 342.761 C 1330.999 344.183, 1328.740 349.390, 1322.445 362.500 C 1316.293 375.313, 1312.599 388.846, 1313.319 395.931 C 1313.665 399.332, 1313.320 403.836, 1312.433 407.500 C 1311.634 410.800, 1310.739 418.675, 1310.445 425 C 1309.641 442.292, 1308.456 447.558, 1303.849 454.325 C 1301.667 457.528, 1298.334 461.653, 1296.441 463.491 C 1294.549 465.329, 1293 467.268, 1293 467.800 C 1293 468.332, 1291.987 469.001, 1290.750 469.288 C 1289.513 469.575, 1285.294 471.161, 1281.375 472.812 C 1277.428 474.475, 1271.259 476.134, 1267.545 476.532 C 1262.940 477.025, 1260.657 477.729, 1260.254 478.781 C 1259.347 481.144, 1263.647 484, 1268.111 484 C 1270.250 484, 1272 484.402, 1272 484.894 C 1272 485.385, 1268.963 487.001, 1265.250 488.485 C 1261.537 489.969, 1258.050 491.511, 1257.500 491.911 C 1256.950 492.312, 1254.475 493.242, 1252 493.978 C 1249.525 494.714, 1245.885 496.559, 1243.911 498.076 L 1240.322 500.835 1210.411 501.081 C 1180.849 501.324, 1175.964 501.808, 1169.806 505.104 C 1168.731 505.679, 1164.383 507.188, 1160.144 508.457 C 1155.905 509.726, 1150.859 511.829, 1148.930 513.132 C 1147.001 514.434, 1143.551 516.400, 1141.263 517.500 C 1138.975 518.600, 1136.607 520.582, 1136.002 521.905 C 1134.784 524.566, 1129.278 532.079, 1124.218 537.984 C 1122.413 540.090, 1119.734 544.668, 1118.265 548.157 C 1115.717 554.212, 1115.598 555.272, 1115.644 571.500 C 1115.690 587.483, 1116.419 597.155, 1119.177 618.396 C 1120.447 628.180, 1123.370 635.144, 1133.581 652.719 C 1139.481 662.874, 1150.435 675.265, 1157 679.211 C 1158.925 680.367, 1161.850 682.550, 1163.500 684.060 C 1166.128 686.465, 1184.326 695, 1186.827 695 C 1187.337 695, 1188.315 695.675, 1189 696.500 C 1189.685 697.325, 1191.078 698, 1192.096 698 C 1193.114 698, 1195.871 698.865, 1198.223 699.921 C 1206.507 703.642, 1217.482 706.265, 1228.044 707.046 C 1233.915 707.481, 1241.595 708.539, 1245.109 709.398 C 1248.624 710.257, 1258.025 711.879, 1266 713.003 C 1273.975 714.127, 1281.625 715.438, 1283 715.916 C 1284.375 716.394, 1286.400 716.781, 1287.500 716.775 C 1288.600 716.770, 1291.525 717.260, 1294 717.865 C 1296.475 718.470, 1302.100 719.707, 1306.500 720.614 C 1310.900 721.521, 1317.388 723.104, 1320.918 724.132 C 1324.449 725.159, 1328.069 726, 1328.964 726 C 1329.858 726, 1335.070 727.189, 1340.545 728.643 C 1346.020 730.097, 1352.300 731.617, 1354.500 732.021 C 1363.249 733.628, 1375.860 736.205, 1382.500 737.742 C 1392.151 739.976, 1418.401 739.800, 1427.217 737.442 C 1440.233 733.960, 1449.347 730.891, 1451.881 729.135 C 1453.321 728.137, 1456.917 726.546, 1459.872 725.600 C 1470.119 722.319, 1480.364 715.350, 1497.509 700 C 1525.796 674.675, 1533.187 667.572, 1543.296 656 C 1553.115 644.758, 1566 625.705, 1566 622.426 C 1566 621.776, 1566.650 620.705, 1567.445 620.045 C 1568.240 619.386, 1569.650 616.518, 1570.578 613.673 C 1571.505 610.828, 1572.603 608.050, 1573.016 607.500 C 1574.003 606.188, 1578.797 592.764, 1579.935 588.129 C 1580.425 586.133, 1581.532 581.920, 1582.396 578.766 C 1585.294 568.184, 1588.190 539.531, 1587.578 527.500 C 1586.939 514.951, 1585.583 502.784, 1584.010 495.500 C 1583.416 492.750, 1582.499 486.761, 1581.973 482.191 C 1579.554 461.184, 1570.730 433.300, 1559.351 410.705 C 1544.696 381.602, 1516.621 354.259, 1485.314 338.597 C 1478.062 334.968, 1471.628 332, 1471.016 332 C 1470.404 332, 1468.100 331.129, 1465.897 330.064 C 1463.693 329, 1457.078 326.909, 1451.195 325.419 C 1445.313 323.928, 1438.082 321.650, 1435.126 320.355 C 1432.170 319.060, 1427.895 318.001, 1425.626 318.002 C 1421.490 318.004, 1407.142 315.830, 1399.333 314.019 C 1393.226 312.602, 1376.897 311.933, 1374 312.980" stroke="#aa444d" fill="#aa444d" fill-opacity="0.2" fill-rule="evenodd"/><path class="svg-region-Pl" d="M 531.001 376.802 C 521.336 383.369, 517.337 395.383, 521.500 405.346 C 522.325 407.320, 523 411.622, 523 414.904 C 523 418.187, 524.295 426.414, 525.878 433.186 C 527.461 439.959, 529.032 447.353, 529.369 449.618 C 529.706 451.882, 530.658 455.032, 531.484 456.618 C 532.311 458.203, 532.990 460.005, 532.994 460.623 C 533.010 463.641, 537.831 472.148, 542.669 477.694 C 546.289 481.845, 549.853 484.732, 553.474 486.444 C 558.404 488.777, 559.996 488.998, 571.688 488.976 C 584.826 488.952, 592.191 487.927, 592.822 486.035 C 593.264 484.709, 594.944 483.095, 598.583 480.500 C 600.126 479.400, 602.088 477.675, 602.944 476.666 C 603.800 475.657, 605.242 473.953, 606.150 472.878 C 607.913 470.791, 607.778 465.707, 605.781 459 C 604.239 453.822, 597.068 444.248, 590.052 438 C 575.457 425.002, 572.389 421.571, 570.924 416.604 C 570.036 413.594, 567.593 409.574, 564.437 405.928 C 559.414 400.127, 555.078 390.188, 553.564 381 C 552.808 376.416, 549.676 374.985, 540.551 375.052 C 535.636 375.089, 532.743 375.619, 531.001 376.802" stroke="#f9d3d3" fill="#f9d3d3" fill-opacity="0.2" fill-rule="evenodd"/><path class="svg-region-Pr" d="M 1283.500 373.505 C 1278.935 375.122, 1276.054 378.278, 1272.402 385.665 C 1269.750 391.029, 1265.009 395.978, 1254.356 404.500 C 1250.919 407.250, 1245.637 411.667, 1242.618 414.317 C 1238.273 418.129, 1236.229 419.220, 1232.814 419.549 C 1230.441 419.777, 1226.700 420.452, 1224.500 421.049 C 1222.300 421.645, 1218.831 422.489, 1216.791 422.925 C 1212.441 423.853, 1209.708 425.524, 1204.498 430.437 C 1200.693 434.026, 1200.691 434.033, 1202.021 438.063 C 1202.753 440.282, 1203.867 442.413, 1204.495 442.799 C 1205.123 443.185, 1207.019 445.525, 1208.707 448 C 1211.297 451.797, 1220.821 461.386, 1226.293 465.705 C 1229.726 468.415, 1247.348 476.118, 1252.235 477.045 C 1258.996 478.327, 1271.063 476.720, 1280.500 473.282 C 1284.350 471.879, 1287.927 470.341, 1288.450 469.865 C 1288.972 469.389, 1290.180 469, 1291.133 469 C 1292.086 469, 1293.155 468.088, 1293.508 466.973 C 1293.862 465.859, 1295.198 464.261, 1296.476 463.424 C 1299.169 461.659, 1307.372 449.677, 1308.403 446 C 1308.789 444.625, 1309.507 436.975, 1309.998 429 C 1310.490 421.025, 1311.557 411.575, 1312.370 408 C 1314.014 400.778, 1313.311 383.244, 1311.224 379.392 C 1309.566 376.332, 1306.199 374.423, 1300.191 373.134 C 1293.284 371.653, 1288.423 371.761, 1283.500 373.505" stroke="#f9d3d3" fill="#f9d3d3" fill-opacity="0.2" fill-rule="evenodd"/><path class="svg-region-DLl" d="M 611.028 362.630 C 604.447 368.168, 600.350 381.471, 602.872 389.114 C 603.490 390.984, 605.026 393.637, 606.286 395.008 C 607.545 396.378, 609.133 398.859, 609.815 400.521 C 610.496 402.183, 612.659 404.823, 614.621 406.389 C 617.894 409.001, 618.403 409.123, 620.764 407.868 C 622.180 407.116, 624.950 404.779, 626.919 402.675 C 633.602 395.537, 639.316 390, 639.999 390 C 640.683 390, 642.108 385.875, 643.952 378.559 C 645.431 372.686, 642.820 364.244, 639.246 363.347 C 637.809 362.986, 635.478 362.088, 634.067 361.352 C 632.501 360.535, 628.118 360.010, 622.827 360.006 C 614.915 360.001, 613.879 360.231, 611.028 362.630" stroke="#b7d6d3" fill="#b7d6d3" fill-opacity="0.2" fill-rule="evenodd"/><path class="svg-region-DLr" d="M 1174.250 355.396 C 1167.531 362.386, 1166.561 365.323, 1170 368.268 C 1171.100 369.210, 1172 370.605, 1172 371.368 C 1172 372.131, 1172.675 373.315, 1173.500 374 C 1174.325 374.685, 1175 376.010, 1175 376.944 C 1175 377.879, 1178.574 382.099, 1182.943 386.322 C 1189.870 393.018, 1191.349 394, 1194.508 394 C 1196.501 394, 1199.093 394.515, 1200.268 395.143 C 1201.750 395.937, 1202.513 395.961, 1202.759 395.223 C 1202.986 394.542, 1204.122 394.737, 1205.908 395.762 C 1208.310 397.141, 1209.151 397.180, 1211.898 396.042 C 1213.656 395.314, 1215.705 393.544, 1216.452 392.109 C 1217.199 390.674, 1218.978 388.409, 1220.405 387.076 C 1222.402 385.210, 1223 383.683, 1223 380.448 C 1223 376.167, 1220.830 369.631, 1219.043 368.526 C 1218.500 368.191, 1217.501 366.068, 1216.825 363.809 C 1215.556 359.574, 1210.469 353.822, 1205.895 351.450 C 1204.426 350.688, 1198.323 349.836, 1191.895 349.497 L 1180.500 348.895 1174.250 355.396" stroke="#b7d6d3" fill="#b7d6d3" fill-opacity="0.2" fill-rule="evenodd"/><path class="svg-region-OGl" d="M 567.622 321.995 C 558.650 323.606, 555.842 328.835, 554.270 346.861 C 553.814 352.084, 553.914 352.337, 558.151 356.656 C 563.145 361.746, 571.871 367, 575.332 367 C 576.631 367, 578.732 366.100, 580 365 C 581.268 363.900, 583.111 363, 584.094 363 C 585.077 363, 586.160 362.550, 586.500 362 C 586.840 361.450, 587.879 360.999, 588.809 360.997 C 589.739 360.996, 592.525 359.247, 595 357.112 L 599.500 353.230 599.500 343.638 L 599.500 334.047 594.500 329.515 C 591.750 327.022, 588.190 324.262, 586.588 323.382 C 583.064 321.445, 574.269 320.802, 567.622 321.995" stroke="#d66e9d" fill="#d66e9d" fill-opacity="0.2" fill-rule="evenodd"/><path class="svg-region-OGr" d="M 1215.500 310.412 C 1208.145 313.792, 1206.945 315.592, 1206.345 324.156 C 1205.874 330.880, 1206.030 331.711, 1208.196 334 C 1209.497 335.375, 1212.123 338.730, 1214.031 341.455 C 1218.542 347.899, 1220.288 350, 1221.133 350 C 1221.512 350, 1225.324 351.640, 1229.604 353.645 C 1233.885 355.649, 1239.370 357.513, 1241.793 357.786 C 1245.946 358.254, 1246.417 358.043, 1250.031 354.089 C 1252.139 351.783, 1254.168 348.457, 1254.541 346.698 C 1254.913 344.939, 1256.162 341.794, 1257.316 339.709 L 1259.414 335.919 1256.957 331.216 C 1252.234 322.175, 1241.930 312, 1237.496 312 C 1236.646 312, 1233.389 311.100, 1230.260 310 C 1223.180 307.512, 1221.725 307.552, 1215.500 310.412" stroke="#d66e9d" fill="#d66e9d" fill-opacity="0.2" fill-rule="evenodd"/><path class="svg-region-OLl" d="M 571.888 373.459 C 570.451 374.262, 568.816 376.175, 568.253 377.710 C 566.927 381.327, 564.990 391.962, 564.340 399.201 C 563.875 404.373, 564.099 405.255, 566.755 408.701 C 568.366 410.791, 570.289 414.525, 571.030 417 C 572.370 421.479, 578.175 427.964, 587.663 435.580 C 595.130 441.574, 604.122 443.540, 610.050 440.474 C 611.672 439.635, 613 438.841, 613 438.710 C 613 438.579, 613.900 436.009, 615 433 C 616.100 429.991, 617.005 425.722, 617.012 423.514 C 617.019 421.089, 618.009 417.777, 619.512 415.148 C 622.695 409.580, 622.742 407.776, 619.685 408.543 C 617.845 409.005, 616.510 408.192, 613.185 404.584 C 610.883 402.088, 609 399.360, 609 398.522 C 609 397.685, 608.622 397, 608.159 397 C 607.696 397, 606.121 394.802, 604.659 392.115 C 602.775 388.654, 602 385.755, 602 382.174 C 602 379.393, 601.479 376.796, 600.841 376.402 C 598.590 375.010, 587.417 372.742, 581 372.373 C 576.556 372.117, 573.674 372.461, 571.888 373.459" stroke="#c4875d" fill="#c4875d" fill-opacity="0.2" fill-rule="evenodd"/><path class="svg-region-OLr" d="M 1216.323 352.250 C 1212.876 356.079, 1212.921 356.456, 1218.028 366.456 C 1223.988 378.126, 1224.571 383.184, 1220.405 387.076 C 1218.978 388.409, 1217.186 390.700, 1216.422 392.167 C 1214.475 395.908, 1208.761 397.728, 1205.555 395.628 C 1203.420 394.229, 1203.126 394.228, 1202.593 395.619 C 1200.692 400.572, 1203.007 405.337, 1209.324 409.477 C 1211.264 410.747, 1212.010 412.093, 1212.036 414.365 C 1212.057 416.157, 1213.110 418.771, 1214.495 420.466 C 1216.764 423.241, 1217.130 423.356, 1220.209 422.260 C 1222.983 421.273, 1234.742 419.032, 1237.275 419.008 C 1237.702 419.003, 1240.918 416.333, 1244.422 413.072 C 1247.927 409.812, 1253.101 405.487, 1255.921 403.461 C 1258.742 401.435, 1261.488 398.957, 1262.024 397.954 C 1263.451 395.288, 1263.215 388.560, 1261.563 384.784 C 1260.772 382.978, 1258.905 378.164, 1257.413 374.087 C 1253.503 363.401, 1249.806 359.709, 1240.826 357.527 C 1236.873 356.566, 1231.234 354.479, 1228.296 352.890 C 1221.870 349.413, 1219.014 349.261, 1216.323 352.250" stroke="#c4875d" fill="#c4875d" fill-opacity="0.2" fill-rule="evenodd"/><path class="svg-region-VOC" d="M 1002 390.976 C 1002 392.795, 1006.951 399.047, 1012 403.604 C 1016.740 407.882, 1025.807 415, 1026.516 415 C 1027.537 415, 1042.477 425.294, 1043.207 426.500 C 1043.596 427.143, 1045.621 428.825, 1047.707 430.240 C 1051.241 432.636, 1052.578 432.859, 1067.265 433.512 C 1086.650 434.373, 1092 433.321, 1092 428.650 C 1092 426.604, 1093.064 424.733, 1095.571 422.368 C 1097.535 420.516, 1099.560 419, 1100.071 419 C 1101.640 419, 1101.102 416.402, 1099.171 414.655 C 1098.006 413.600, 1095.607 413, 1092.555 413 C 1088.636 413, 1086.881 412.349, 1082.878 409.410 C 1080.188 407.436, 1077.428 405.074, 1076.744 404.160 C 1076.060 403.247, 1073.865 401.670, 1071.868 400.656 C 1069.870 399.642, 1067.770 397.790, 1067.201 396.541 C 1066.073 394.066, 1064.598 393.754, 1045.500 391.959 C 1031.483 390.642, 1023.022 390.080, 1011.750 389.720 C 1003.428 389.453, 1002 389.637, 1002 390.976 M 733.250 395.101 C 732.563 395.815, 732 397.819, 732 399.554 C 732 401.532, 731.068 403.714, 729.500 405.405 C 728.125 406.889, 727 408.513, 727 409.013 C 727 409.514, 729.025 412.007, 731.500 414.553 C 733.975 417.100, 736 420.019, 736 421.041 C 736 422.923, 730.277 428, 728.156 428 C 727.509 428, 727 429.490, 727 431.379 C 727 434.190, 727.504 434.966, 730 436 C 732.496 437.034, 733 437.810, 733 440.621 C 733 443.863, 733.153 444, 736.777 444 C 738.855 444, 741.638 443.242, 742.961 442.315 C 745.024 440.870, 747.763 440.664, 762.134 440.876 C 773.519 441.044, 779.606 440.746, 781.099 439.947 C 782.308 439.300, 786.144 436.122, 789.623 432.885 C 793.103 429.648, 796.374 427, 796.893 427 C 797.412 427, 798.868 425.313, 800.129 423.250 C 801.389 421.188, 805.330 416.768, 808.886 413.428 C 816.283 406.480, 816.390 405.130, 809.791 402.039 C 801.095 397.967, 781.541 395.318, 753.500 394.414 C 738.588 393.934, 734.231 394.081, 733.250 395.101" stroke="#ff8f93" fill="#ff8f93" fill-opacity="0.2" fill-rule="evenodd"/><path class="svg-region-SOTl" d="M 838 354.632 C 834.975 355.441, 829.350 356.963, 825.500 358.014 C 821.650 359.066, 816.067 360.192, 813.094 360.518 C 810.120 360.844, 806.364 361.795, 804.746 362.631 C 802.126 363.986, 801.845 364.579, 802.176 368.049 C 802.499 371.435, 802.218 372.085, 800.024 373.019 C 795.231 375.060, 792.840 377.750, 793.180 380.717 C 793.498 383.483, 793.550 383.502, 801.750 383.790 L 810 384.081 810 387.540 C 810 392.130, 812.294 392.121, 820.701 387.500 C 824.203 385.575, 827.682 384, 828.432 384 C 829.182 384, 832.714 382.227, 836.281 380.060 C 849.861 371.810, 866.610 366.196, 881.500 364.904 C 887 364.427, 894.987 363.737, 899.250 363.370 C 906.755 362.725, 907 362.621, 907.014 360.102 C 907.021 358.671, 907.299 356.488, 907.630 355.250 L 908.233 353 875.867 353.081 C 850.747 353.143, 842.269 353.491, 838 354.632" stroke="#995b45" fill="#995b45" fill-opacity="0.2" fill-rule="evenodd"/><path class="svg-region-SOTr" d="M 918.260 353.746 C 908.423 354.057, 907.997 354.164, 907.422 356.456 C 907.092 357.768, 906.981 359.665, 907.175 360.671 C 907.501 362.367, 909.129 362.520, 929.513 362.779 C 941.606 362.932, 952.625 363.484, 954 364.006 C 955.375 364.527, 959.425 365.424, 963 365.999 C 969.124 366.984, 978.102 369.665, 980.647 371.268 C 982.649 372.529, 987.726 370.880, 988.964 368.567 C 990.019 366.596, 989.733 365.866, 986.497 362.260 C 983.020 358.388, 982.426 358.130, 974.668 357.135 C 951.434 354.153, 939.822 353.020, 934.448 353.211 C 931.177 353.327, 923.892 353.568, 918.260 353.746" stroke="#995b45" fill="#995b45" fill-opacity="0.2" fill-rule="evenodd"/><path class="svg-region-BPCl" d="M 795.551 567.791 C 786.984 572.364, 784.909 575.533, 784.225 585.096 L 783.729 592.030 790.115 598.324 C 800.784 608.840, 801.922 609.195, 814 605.765 C 821.073 603.756, 820.530 604.514, 824.215 591.500 C 824.838 589.300, 825.720 587.072, 826.174 586.550 C 826.628 586.028, 826.981 583.778, 826.958 581.550 C 826.897 575.623, 822.149 570.656, 812.973 566.922 C 809.024 565.315, 805.052 564.018, 804.146 564.041 C 803.241 564.064, 799.373 565.751, 795.551 567.791" stroke="#83385f" fill="#83385f" fill-opacity="0.2" fill-rule="evenodd"/><path class="svg-region-BPCr" d="M 1019.693 561.972 C 1013.609 564.349, 1012.328 565.437, 1009.817 570.359 C 1007.722 574.465, 1007.718 576.818, 1009.784 588.041 C 1010.959 594.424, 1014.953 601.262, 1018 602.107 C 1019.375 602.489, 1022.463 602.845, 1024.862 602.900 C 1029.032 602.996, 1029.557 602.658, 1036.771 595.255 C 1047.900 583.832, 1049.680 578.721, 1046.087 568.500 C 1044.533 564.080, 1043.818 563.303, 1039.915 561.804 C 1034.101 559.571, 1025.658 559.641, 1019.693 561.972" stroke="#83385f" fill="#83385f" fill-opacity="0.2" fill-rule="evenodd"/><path class="svg-region-OVl" d="M 620.502 480.173 C 616.102 480.674, 607.777 482.724, 602.002 484.729 L 591.500 488.375 572.751 488.437 C 556.794 488.491, 553.997 488.723, 553.969 490 C 553.951 490.825, 553.276 492.374, 552.468 493.441 C 550.148 496.508, 550.575 505.074, 553.250 509.145 C 556.556 514.175, 560.842 523.091, 561.490 526.285 C 562.156 529.566, 564.840 530.820, 572.895 531.613 C 577.626 532.079, 579.280 531.763, 583.500 529.587 C 586.250 528.169, 589.063 527.006, 589.750 527.004 C 590.438 527.002, 591 526.611, 591 526.136 C 591 524.460, 599.639 522, 605.533 521.997 C 614.631 521.993, 628.799 520.049, 635.617 517.868 C 641.950 515.843, 645.256 513.193, 646.483 509.155 C 646.874 507.866, 648.951 504.304, 651.097 501.240 C 656.032 494.195, 656.450 488.722, 652.364 484.636 C 650.914 483.186, 649.165 482, 648.478 482 C 647.791 482, 645.940 481.328, 644.364 480.506 C 641.170 478.840, 633.179 478.729, 620.502 480.173" stroke="#593939" fill="#593939" fill-opacity="0.2" fill-rule="evenodd"/><path class="svg-region-OVr" d="M 1231.307 473.892 C 1229.111 475.483, 1226.422 477.919, 1225.331 479.306 C 1224.240 480.693, 1221.807 482.483, 1219.924 483.283 C 1218.041 484.084, 1214.169 486.992, 1211.319 489.747 C 1204.976 495.878, 1198.315 499.226, 1191.304 499.808 C 1188.387 500.050, 1186 500.594, 1186 501.017 C 1186 501.439, 1198.263 501.543, 1213.250 501.247 L 1240.500 500.709 1243.978 497.854 C 1245.891 496.284, 1248.259 495, 1249.241 495 C 1250.224 495, 1251.809 494.603, 1252.764 494.117 C 1255.300 492.826, 1258.747 491.367, 1265.428 488.753 C 1272.772 485.881, 1273.784 484, 1267.985 484 C 1264.664 484, 1263.247 483.406, 1261.106 481.113 C 1259.183 479.054, 1256.736 477.879, 1252.573 477.015 C 1249.363 476.349, 1244.703 474.723, 1242.219 473.402 C 1236.524 470.373, 1236.141 470.391, 1231.307 473.892" stroke="#593939" fill="#593939" fill-opacity="0.2" fill-rule="evenodd"/><path class="svg-region-ODMl" d="M 684.727 488.429 C 682.652 489.661, 677.252 491.443, 672.727 492.389 C 662.114 494.608, 653.124 498.511, 650.120 502.205 L 647.739 505.131 653.022 510.305 C 657.002 514.202, 659.552 515.797, 663.360 516.772 C 666.140 517.483, 669.144 518.725, 670.036 519.533 C 670.928 520.340, 673.157 521, 674.991 521 C 676.824 521, 680.659 521.736, 683.513 522.635 C 688.108 524.084, 690.043 524.126, 700.439 523.007 L 712.177 521.742 711.493 514.621 C 710.724 506.620, 708.279 498, 706.778 498 C 703.798 498, 692.892 491.626, 691.321 488.966 C 689.283 485.517, 689.589 485.542, 684.727 488.429" stroke="#999999" fill="#999999" fill-opacity="0.2" fill-rule="evenodd"/><path class="svg-region-ODMr" d="M 1153.552 465.250 C 1153.340 465.938, 1152.914 467.667, 1152.604 469.093 C 1152.014 471.809, 1148.734 475.545, 1143.250 479.747 L 1140 482.237 1140 491.464 C 1140 498.999, 1140.321 500.971, 1141.750 502.224 C 1148.035 507.735, 1157.069 508.423, 1170.074 504.381 C 1174.708 502.941, 1179.850 501.543, 1181.500 501.275 C 1183.150 501.007, 1184.950 500.248, 1185.500 499.587 C 1186.050 498.927, 1189.200 496.411, 1192.500 493.996 C 1199.131 489.143, 1203.857 484.598, 1208.712 478.406 L 1211.921 474.311 1208.711 473.236 C 1206.945 472.645, 1202.800 471.049, 1199.500 469.689 C 1193.959 467.407, 1192.927 467.293, 1186 468.195 C 1174.557 469.685, 1161.851 468.742, 1158.183 466.131 C 1154.717 463.662, 1154.079 463.541, 1153.552 465.250" stroke="#999999" fill="#999999" fill-opacity="0.2" fill-rule="evenodd"/>
    </svg>