<svg xmlns="http://www.w3.org/2000/svg" width="1921" height="1027" viewBox="0 0 1921 1027" version="1.1">
    <path class="svg-region-V" d="M 759 166.116 C 752.840 166.940, 746.247 169.509, 729.500 177.614 C 725.650 179.477, 721.824 181.001, 720.997 181.001 C 720.170 181, 717.278 182.575, 714.571 184.500 C 711.863 186.425, 709.165 188.002, 708.574 188.004 C 706.050 188.014, 698.765 194.067, 692.332 201.500 C 688.524 205.900, 681.731 213.205, 677.238 217.734 C 672.745 222.262, 668.319 227.437, 667.403 229.234 C 666.487 231.030, 663.210 235.363, 660.119 238.862 C 651.117 249.056, 647.514 254.162, 645.558 259.500 C 644.551 262.250, 643.054 265.276, 642.232 266.224 C 641.410 267.172, 639.222 271.651, 637.369 276.177 C 630.401 293.199, 633.788 302.832, 651.770 317.142 C 657.207 321.469, 660.788 323.448, 665.979 324.994 C 669.796 326.131, 673.179 327.481, 673.496 327.994 C 673.814 328.507, 676.869 329.802, 680.287 330.870 C 683.704 331.939, 689.076 333.755, 692.225 334.907 C 700.826 338.051, 713.653 337.838, 721 334.427 C 731.940 329.349, 736.884 321.711, 737.738 308.573 C 738.202 301.437, 738.683 299.861, 741.877 294.995 C 744.190 291.470, 747.632 288.053, 751.444 285.495 C 758.585 280.703, 770.051 275.119, 774.374 274.328 C 776.093 274.014, 778.418 273.188, 779.540 272.493 C 781.056 271.553, 787.213 271.295, 803.540 271.484 L 825.500 271.738 839.003 276.232 C 846.429 278.703, 855.654 282.300, 859.503 284.225 C 863.351 286.149, 868.300 288.300, 870.500 289.004 C 872.700 289.708, 875.388 290.896, 876.473 291.642 C 877.557 292.389, 879.357 293.008, 880.473 293.017 C 881.588 293.027, 883.554 294.146, 884.842 295.503 C 886.129 296.861, 888.829 298.367, 890.842 298.850 C 911.611 303.833, 917.465 304.098, 928.609 300.560 C 933.870 298.889, 937.430 297.034, 939.897 294.679 C 943.543 291.198, 953.121 287, 957.415 287 C 958.703 287, 961.371 286.325, 963.346 285.500 C 965.320 284.675, 968.683 284, 970.819 284 C 972.954 284, 976.006 283.602, 977.601 283.116 C 980.704 282.169, 988.596 280.800, 1001.540 278.962 C 1008.054 278.037, 1011.192 278.099, 1018.082 279.288 C 1027.178 280.858, 1042.747 286.958, 1045.543 290.048 C 1046.477 291.080, 1048.773 292.430, 1050.644 293.048 C 1052.980 293.818, 1054.633 295.319, 1055.917 297.835 C 1056.945 299.851, 1058.735 302.357, 1059.894 303.405 C 1061.415 304.781, 1062 306.507, 1062 309.617 C 1062 324.739, 1076.249 339, 1091.358 339 C 1097.963 339, 1113.268 335.402, 1118.664 332.581 C 1126.676 328.391, 1135.483 318.530, 1145.500 302.531 C 1146.600 300.774, 1148.696 297.925, 1150.158 296.201 C 1152.690 293.214, 1152.790 292.674, 1152.275 284.783 C 1151.379 271.050, 1145.400 255.606, 1134.202 238.102 C 1128.940 229.876, 1099.896 201.282, 1092.178 196.729 C 1088.701 194.678, 1085.551 193.012, 1085.178 193.026 C 1084.805 193.040, 1081.350 191.518, 1077.500 189.643 C 1062.020 182.107, 1053.541 179.383, 1038.500 177.114 C 1031.224 176.017, 1013.982 174.641, 1010.500 174.880 C 988.500 176.389, 977.812 177.526, 970 179.188 C 964.775 180.300, 958.700 181.389, 956.500 181.607 C 954.300 181.826, 948.900 182.461, 944.500 183.020 C 933.926 184.361, 906.058 184.455, 898.500 183.174 C 895.200 182.615, 890.025 181.237, 887 180.111 C 883.975 178.986, 880.558 178.051, 879.407 178.033 C 878.255 178.015, 874.697 177.100, 871.500 176 C 868.303 174.900, 864.690 174, 863.471 174 C 862.252 174, 859.103 173.048, 856.473 171.885 C 851.956 169.887, 842.051 168.226, 821.500 166.020 C 810.566 164.847, 768.005 164.912, 759 166.116" stroke="#dd8a8a" fill="#dd8a8a" fill-opacity="0.2" fill-rule="evenodd"/><path class="svg-region-SV" d="M 779.662 272.250 C 779.023 272.663, 776.730 273.490, 774.567 274.088 C 765.331 276.642, 745.732 287.904, 743.632 291.863 C 743.155 292.763, 741.676 295.123, 740.345 297.107 C 738.392 300.019, 737.869 302.233, 737.630 308.607 C 737.417 314.251, 736.725 317.680, 735.201 320.642 C 732.661 325.578, 727.550 331.158, 723.775 333.116 L 721.050 334.530 725.275 336.680 C 731.714 339.957, 740.505 342.637, 751 344.522 C 759.771 346.097, 776.066 350.305, 777.982 351.489 C 780.396 352.981, 796.131 355.039, 808.921 355.536 C 838.263 356.676, 862.930 357.361, 869 357.203 C 870.375 357.167, 874.650 357.120, 878.500 357.099 C 882.350 357.078, 896.525 356.772, 910 356.420 C 927.147 355.971, 936.780 356.141, 942.096 356.984 C 952.634 358.654, 979.587 358.888, 991 357.407 C 996.225 356.729, 1006.350 355.640, 1013.500 354.987 C 1020.650 354.333, 1029.425 353.134, 1033 352.322 C 1039.944 350.743, 1053.687 348.384, 1063.500 347.087 C 1066.800 346.651, 1070.850 345.647, 1072.500 344.858 C 1077.189 342.613, 1083 338.874, 1083 338.102 C 1083 337.717, 1081.356 336.807, 1079.348 336.081 C 1070.548 332.899, 1063.400 322.450, 1062.266 311.114 C 1061.848 306.933, 1060.999 304.687, 1058.941 302.316 C 1057.420 300.564, 1055.891 298.233, 1055.543 297.136 C 1055.195 296.038, 1052.567 293.758, 1049.705 292.070 C 1046.842 290.381, 1043.825 288.567, 1043 288.038 C 1041.278 286.934, 1031.780 282.598, 1027.844 281.119 C 1026.384 280.570, 1021.560 279.624, 1017.126 279.017 C 1009.163 277.927, 1000.080 278.730, 981.500 282.166 C 978.750 282.675, 974.025 283.452, 971 283.893 C 957.667 285.837, 944.565 290.307, 939.881 294.510 C 931.739 301.817, 916.915 304.607, 902.653 301.516 C 888.460 298.440, 887.234 298.026, 884.842 295.503 C 883.554 294.146, 881.514 293.027, 880.309 293.017 C 879.104 293.008, 877.861 292.584, 877.547 292.076 C 877.233 291.569, 874.619 290.373, 871.738 289.420 C 868.857 288.466, 862.450 285.753, 857.500 283.391 C 843.783 276.845, 830.950 272.958, 819.500 271.882 C 808.365 270.835, 781.468 271.084, 779.662 272.250" stroke="#c666b5" fill="#c666b5" fill-opacity="0.2" fill-rule="evenodd"/><path class="svg-region-PC" d="M 902.500 363.679 C 882.123 368.239, 880.251 368.995, 861 380.446 C 856.875 382.900, 851.813 385.838, 849.750 386.974 C 842.028 391.230, 846.209 391.683, 867.822 388.932 C 871.850 388.419, 877.798 388, 881.040 388 C 884.283 388, 893.812 387.042, 902.218 385.870 C 916.709 383.851, 918.972 383.798, 945.941 384.846 C 961.584 385.454, 974.585 385.748, 974.834 385.500 C 975.862 384.472, 972.190 381.618, 965.558 378.290 C 961.676 376.343, 957.252 373.867, 955.726 372.789 C 954.200 371.711, 948.890 369.068, 943.926 366.915 L 934.900 363 919.700 363.116 C 911.340 363.180, 903.600 363.433, 902.500 363.679 M 992 426.574 C 987.875 427.341, 981.575 428.450, 978 429.040 C 971.522 430.108, 967.523 432, 971.741 432 C 972.919 432, 974.160 432.450, 974.500 433 C 974.840 433.550, 975.883 434, 976.818 434 C 977.754 434, 979.081 434.900, 979.768 436 C 980.455 437.100, 981.666 438, 982.459 438 C 983.252 438, 990.478 444.525, 998.517 452.500 C 1006.556 460.475, 1013.412 467, 1013.752 467 C 1014.093 467, 1016.425 468.695, 1018.936 470.767 C 1027.384 477.738, 1031.025 480.130, 1035.523 481.663 C 1037.985 482.502, 1040 483.742, 1040 484.420 C 1040 488.976, 1052.166 493.567, 1061.664 492.593 C 1070.634 491.674, 1074.765 489.504, 1075.999 485.063 C 1077.271 480.483, 1077.272 477, 1076 477 C 1075.450 477, 1075 476.356, 1075 475.568 C 1075 474.781, 1073.661 473.183, 1072.024 472.017 C 1068.720 469.664, 1065 462.238, 1065 457.995 C 1065 451.760, 1058.387 441, 1054.556 441 C 1053.342 441, 1051.295 439.879, 1050.008 438.509 C 1048.721 437.139, 1045.605 435.081, 1043.084 433.937 C 1040.563 432.793, 1037.719 431.439, 1036.764 430.928 C 1035.809 430.418, 1032.814 430, 1030.109 430 C 1027.405 430, 1021.886 428.878, 1017.846 427.507 C 1009.527 424.684, 1003.370 424.461, 992 426.574 M 858.769 433.564 C 857.786 434.547, 836.238 435.887, 814.500 436.317 C 791.228 436.776, 786.773 437.604, 784.563 441.879 C 783.770 443.411, 781.454 446.653, 779.414 449.082 C 777.375 451.512, 774.198 456.637, 772.353 460.472 C 769.030 467.381, 769 467.573, 769 481.741 L 769 496.038 771.750 495.415 C 773.263 495.072, 777.040 494.163, 780.144 493.396 C 787.221 491.646, 794.667 491.574, 795.321 493.250 C 795.819 494.526, 803 487.996, 803 486.268 C 803 485.131, 810.827 477, 811.922 477 C 812.388 477, 816.418 473.400, 820.878 469 C 825.337 464.600, 829.256 461, 829.585 461 C 830.155 461, 836.999 455.384, 842.991 450 C 844.521 448.625, 846.612 447.004, 847.637 446.398 C 848.662 445.792, 849.643 444.336, 849.818 443.163 C 850.005 441.907, 851.498 440.383, 853.446 439.458 C 856.934 437.803, 862.062 433, 860.341 433 C 859.787 433, 859.080 433.254, 858.769 433.564" stroke="#cda789" fill="#cda789" fill-opacity="0.2" fill-rule="evenodd"/><path class="svg-region-DB" d="M 1162.500 324.880 C 1160.850 325.312, 1157.980 326.457, 1156.122 327.425 C 1154.263 328.393, 1148.638 329.788, 1143.622 330.525 C 1138.605 331.263, 1131.305 332.563, 1127.399 333.415 C 1123.493 334.267, 1118.093 335.165, 1115.399 335.410 C 1112.705 335.655, 1107.800 336.431, 1104.500 337.135 C 1101.200 337.839, 1095.125 338.446, 1091 338.483 C 1084.101 338.545, 1082.899 338.888, 1076 342.762 C 1071.647 345.206, 1067.178 346.979, 1065.349 346.987 C 1061.836 347.002, 1043.007 350.117, 1033 352.340 C 1029.425 353.134, 1020.875 354.301, 1014 354.933 C 1007.125 355.565, 998.125 356.574, 994 357.174 C 989.875 357.775, 978.175 358.264, 968 358.260 C 957.825 358.256, 950.342 358.559, 951.371 358.932 C 952.859 359.472, 952.425 359.856, 949.255 360.805 C 947.062 361.462, 943.970 362.045, 942.384 362.100 C 940.798 362.155, 938.375 362.534, 937 362.944 C 934.633 363.649, 934.712 363.750, 938.500 364.844 C 944.953 366.708, 970.567 380.315, 974.452 383.943 C 976.098 385.480, 979.051 386.064, 989.500 386.917 C 996.690 387.504, 1005.405 388.878, 1009 389.992 C 1012.575 391.100, 1019.100 392.877, 1023.500 393.942 C 1027.900 395.006, 1033.525 396.614, 1036 397.515 C 1038.619 398.468, 1046.142 399.516, 1054 400.022 C 1061.425 400.500, 1071.775 401.586, 1077 402.436 C 1091.225 404.748, 1108.064 406.164, 1132 407.059 C 1143.825 407.501, 1156.425 408.313, 1160 408.862 C 1163.575 409.411, 1169.200 409.976, 1172.500 410.119 C 1177.779 410.346, 1178.534 410.144, 1178.781 408.439 C 1179.019 406.792, 1176.683 405.595, 1163.289 400.500 C 1154.614 397.200, 1146.288 394.153, 1144.788 393.729 C 1141.328 392.751, 1134.993 384.563, 1135.022 381.106 C 1135.077 374.701, 1143.167 370.118, 1155.873 369.295 C 1163.719 368.787, 1165.077 368.976, 1170.124 371.285 C 1173.607 372.878, 1176.917 375.371, 1178.935 377.918 C 1182.721 382.698, 1184.345 382.914, 1188.751 379.223 C 1191.585 376.850, 1192.085 375.698, 1192.644 370.249 C 1193.158 365.239, 1193.854 363.403, 1196.151 360.999 C 1197.728 359.350, 1199.974 358, 1201.143 358 C 1203.149 358, 1203.241 357.618, 1202.784 351.250 C 1202.012 340.499, 1196.308 331.346, 1187.500 326.727 C 1184.468 325.137, 1181.323 324.565, 1174.500 324.362 C 1169.550 324.215, 1164.150 324.448, 1162.500 324.880 M 668.731 334.055 C 661.533 335.824, 660.442 335.855, 653.915 334.482 C 644.018 332.400, 639.977 332.617, 632.437 335.636 C 627.381 337.660, 625.323 339.113, 623.563 341.900 C 622.303 343.896, 620.466 346.198, 619.481 347.015 C 616.949 349.115, 615 354.264, 615 358.853 C 615 363.561, 616.544 364.793, 626.719 368.205 C 633.739 370.560, 639.758 374.811, 641.999 378.998 C 642.727 380.358, 642.945 382.881, 642.558 385.460 C 641.698 391.199, 643.770 393.158, 648.036 390.638 C 655.755 386.078, 668.608 384.588, 672.745 387.773 C 677.226 391.222, 681.333 405.498, 680.832 415.880 C 680.625 420.164, 680.876 422.621, 681.500 422.405 C 691.003 419.119, 704.106 415.811, 718.500 413.067 C 724 412.018, 731.649 410.224, 735.497 409.080 C 739.345 407.936, 744.680 407, 747.352 407 C 750.025 407, 754.976 406.264, 758.356 405.365 C 761.735 404.466, 767.184 403.454, 770.465 403.115 C 776.153 402.529, 776.474 402.348, 777.365 399.231 C 778.591 394.947, 782.188 393.889, 785.370 396.878 C 788.139 399.480, 789.332 399.492, 803.889 397.063 C 810.275 395.997, 821.779 394.385, 829.454 393.480 C 840.705 392.154, 843.925 391.415, 846.078 389.668 C 847.546 388.475, 850.267 386.632, 852.124 385.570 C 853.981 384.509, 859.325 381.399, 864 378.661 C 874.169 372.703, 886.201 367, 888.601 367 C 889.554 367, 890.104 366.770, 889.823 366.489 C 889.542 366.208, 884.629 365.559, 878.906 365.046 C 866.960 363.976, 845.750 361.084, 845.103 360.437 C 844.863 360.196, 847.104 359.955, 850.083 359.900 C 853.062 359.845, 856.625 359.482, 858 359.094 C 863.569 357.519, 851.342 356.123, 831.500 356.069 C 802.161 355.989, 788.618 354.722, 777 350.972 C 768.496 348.227, 760.454 346.215, 749 343.966 C 737.888 341.785, 735.747 341.131, 727.023 337.254 C 722.296 335.153, 721.048 334.969, 717.907 335.910 C 711.347 337.875, 699.598 337.250, 691.405 334.500 C 682.641 331.558, 679.165 331.490, 668.731 334.055" stroke="#e8b1e4" fill="#e8b1e4" fill-opacity="0.2" fill-rule="evenodd"/><path class="svg-region-IBl" d="M 722.500 460.124 C 713.928 461.352, 712.122 462.114, 708.001 466.234 L 704 470.235 703.997 478.868 C 703.995 485.824, 704.498 488.762, 706.587 494 C 710.737 504.405, 711.794 506.204, 717.022 511.750 C 721.138 516.115, 722.554 517, 725.427 517 C 727.327 517, 729.160 517.450, 729.500 518 C 729.840 518.550, 730.689 519, 731.388 519 C 732.852 519, 740.464 514.100, 743.696 511.076 C 744.904 509.946, 748.504 507.841, 751.696 506.397 C 754.888 504.954, 760.087 502.216, 763.250 500.314 L 769 496.855 769 486.509 C 769 480.819, 768.719 475.431, 768.375 474.536 C 768.032 473.641, 764.320 470.646, 760.126 467.881 C 752.147 462.620, 748.590 461.531, 735.707 460.406 C 731.743 460.059, 728.275 459.693, 728 459.592 C 727.725 459.490, 725.250 459.730, 722.500 460.124" stroke="#b10e0e" fill="#b10e0e" fill-opacity="0.2" fill-rule="evenodd"/><path class="svg-region-IBr" d="M 1110.629 450.163 C 1103.207 451.382, 1098.036 454.635, 1093.848 460.719 C 1090.884 465.026, 1090.557 466.206, 1090.556 472.614 C 1090.556 479.001, 1090.859 480.110, 1093.528 483.460 C 1095.162 485.513, 1096.919 487.989, 1097.430 488.964 C 1097.942 489.938, 1099.890 491.132, 1101.760 491.618 C 1103.966 492.190, 1105.745 493.552, 1106.829 495.500 C 1108.934 499.279, 1109.883 499.966, 1113.027 499.985 C 1114.418 499.993, 1116.625 500.750, 1117.934 501.666 C 1120.203 503.256, 1120.398 503.227, 1122.169 501.040 C 1123.190 499.779, 1124.310 497.567, 1124.657 496.124 C 1125.795 491.396, 1133.433 476.785, 1136.545 473.385 C 1145.439 463.664, 1145.623 462.960, 1140.750 457.285 C 1135.913 451.652, 1135.250 451.317, 1127.570 450.635 C 1123.681 450.290, 1119.600 449.826, 1118.500 449.603 C 1117.400 449.381, 1113.858 449.633, 1110.629 450.163" stroke="#b10e0e" fill="#b10e0e" fill-opacity="0.2" fill-rule="evenodd"/><path class="svg-region-MB" d="M 1052 401.291 C 1053.925 401.888, 1055.725 402.630, 1056 402.939 C 1056.275 403.248, 1058.498 404.208, 1060.940 405.072 C 1063.383 405.936, 1065.526 407.078, 1065.703 407.610 C 1065.881 408.142, 1063.691 409.910, 1060.837 411.539 C 1056.548 413.987, 1055.299 415.367, 1053.629 419.500 C 1052.518 422.250, 1051.170 424.799, 1050.634 425.165 C 1050.097 425.530, 1046.585 426.799, 1042.829 427.985 C 1036.205 430.075, 1033.900 432, 1038.020 432 C 1040.369 432, 1046.650 435.790, 1049.405 438.870 C 1050.466 440.057, 1052.518 441, 1054.036 441 C 1058.384 441, 1065 451.255, 1065 457.995 C 1065 461.966, 1068.494 469.274, 1071.736 472.082 C 1076.188 475.938, 1077.264 478.871, 1076.110 484.007 C 1075.561 486.448, 1075.316 488.649, 1075.565 488.898 C 1076.532 489.866, 1098 490.234, 1098 489.283 C 1098 488.748, 1097.054 487.454, 1095.898 486.407 C 1092.285 483.138, 1090.654 478.817, 1090.647 472.500 C 1090.641 466.307, 1091.518 463.822, 1095.677 458.249 C 1100.850 451.318, 1111.425 448.697, 1126.316 450.658 C 1131.367 451.323, 1135.584 451.897, 1135.687 451.934 C 1136.984 452.395, 1143.185 460.061, 1143.627 461.750 C 1144.403 464.711, 1145.077 464.572, 1147.623 460.925 C 1152.722 453.624, 1161.830 444.456, 1169.215 439.190 C 1182.992 429.367, 1184.420 428.730, 1191.641 429.190 C 1195.138 429.413, 1198 429.439, 1198 429.248 C 1198 429.057, 1197.275 427.461, 1196.390 425.700 C 1194.109 421.166, 1188.169 415.176, 1183.635 412.836 C 1178.612 410.245, 1158.202 407.977, 1131 406.989 C 1104.178 406.014, 1084.345 404.135, 1068.114 401.030 C 1065.151 400.464, 1059.526 400.046, 1055.614 400.102 C 1048.945 400.198, 1048.719 400.272, 1052 401.291 M 759.500 405.067 C 755.650 406.105, 750.013 406.965, 746.972 406.977 C 743.932 406.990, 738.082 408.071, 733.972 409.379 C 729.863 410.688, 722 412.532, 716.500 413.477 C 706.186 415.250, 700.893 416.552, 688 420.487 C 680.940 422.642, 680.265 423.106, 676.500 428.400 C 672.031 434.683, 669.157 437.019, 664.051 438.521 C 660.168 439.663, 659.261 441.618, 659.100 449.189 L 659 453.877 663.372 454.533 C 668.401 455.287, 677.121 461.808, 680.457 467.310 C 681.581 469.164, 685.076 473.315, 688.225 476.535 L 693.951 482.391 698.725 480.418 C 703.243 478.551, 703.516 478.220, 703.805 474.270 C 704.176 469.201, 709.300 463.570, 715.500 461.418 C 720.659 459.628, 731.037 459.639, 743 461.449 C 751.453 462.727, 753.299 463.405, 759.750 467.606 C 763.737 470.203, 767 472.703, 767 473.163 C 767 473.624, 767.450 474, 768 474 C 768.550 474, 769 472.622, 769 470.938 C 769 466.705, 773.306 457.890, 779.657 449.125 C 782.596 445.068, 785 441.203, 785 440.535 C 785 438.321, 780.009 437, 771.644 437 C 766.292 437, 762.733 436.525, 761.538 435.652 C 759.267 433.991, 760.310 432, 763.452 432 C 764.736 432, 766.026 431.374, 766.319 430.610 C 766.926 429.030, 772.500 426.016, 774.904 425.968 C 776.938 425.928, 780 423.627, 780 422.140 C 780 421.513, 778.632 421, 776.960 421 C 772.917 421, 766.306 417.540, 765.501 415.002 C 765.146 413.885, 764.435 413.231, 763.921 413.549 C 763.407 413.867, 762.709 413.406, 762.372 412.526 C 761.493 410.238, 764.353 407.523, 769.264 405.981 C 771.594 405.250, 773.928 404.280, 774.450 403.826 C 776.151 402.347, 766.674 403.134, 759.500 405.067" stroke="#f9c6c6" fill="#f9c6c6" fill-opacity="0.2" fill-rule="evenodd"/><path class="svg-region-LBl" d="M 655.173 387.484 C 647.960 389.735, 634.979 399.205, 632.479 404.041 C 630.636 407.605, 628 419.847, 628 424.843 C 628 428.623, 630.246 433, 632.186 433 C 632.775 433, 635.001 434.575, 637.132 436.500 L 641.006 440 650.854 440 C 665.681 440, 670.310 437.800, 677.158 427.500 L 681.147 421.500 680.734 412 C 680.464 405.810, 679.742 401.385, 678.660 399.300 C 677.747 397.539, 677 395.142, 677 393.973 C 677 392.803, 675.685 390.531, 674.077 388.923 C 671.492 386.338, 670.479 386.008, 665.327 386.067 C 662.122 386.104, 657.553 386.741, 655.173 387.484" stroke="#79495c" fill="#79495c" fill-opacity="0.2" fill-rule="evenodd"/><path class="svg-region-LBr" d="M 1148.500 369.938 C 1146.850 370.342, 1143.603 371.647, 1141.283 372.839 C 1134.167 376.497, 1133.231 380.836, 1138.030 387.918 C 1140.899 392.153, 1141.679 392.584, 1156.762 398.282 C 1165.418 401.553, 1174.075 404.832, 1176 405.570 C 1185.067 409.047, 1193.031 406.046, 1192.965 399.177 C 1192.920 394.569, 1192.198 393.357, 1183.087 382.612 C 1173.630 371.458, 1169.131 368.957, 1158.783 369.102 C 1154.777 369.159, 1150.150 369.535, 1148.500 369.938" stroke="#79495c" fill="#79495c" fill-opacity="0.2" fill-rule="evenodd"/><path class="svg-region-AP" d="M 824.576 465.195 C 823.274 467.053, 818.239 471.614, 808.458 479.792 C 807.335 480.732, 804.591 483.976, 802.360 487.001 C 800.130 490.027, 797.561 493.119, 796.652 493.874 C 795.744 494.628, 795 495.667, 795 496.183 C 795 496.698, 797.418 499.681, 800.374 502.810 C 813.754 516.977, 817.041 520.848, 818.419 524.061 C 819.230 525.953, 822.607 531.100, 825.924 535.500 L 831.954 543.500 831.977 550.636 C 831.999 557.314, 831.743 558.157, 828 563.762 C 823.554 570.420, 823.341 571.208, 825.500 573 C 827.333 574.521, 827.438 580.258, 825.780 588.286 C 824.888 592.607, 823.814 594.820, 821.780 596.532 C 820.251 597.818, 819 599.342, 819 599.919 C 819 600.495, 816.765 602.099, 814.033 603.483 C 810.358 605.345, 807.497 606, 803.033 606 C 799.126 606, 797 606.408, 797 607.159 C 797 611.006, 820.501 636.432, 827.856 640.543 C 830.282 641.899, 835.920 644.630, 840.384 646.612 C 844.848 648.594, 851.421 651.568, 854.990 653.220 C 867.447 658.987, 874.502 660.208, 894.500 660.063 C 904.400 659.990, 915.200 659.464, 918.500 658.893 C 921.800 658.323, 934.175 657.521, 946 657.112 C 965.670 656.432, 968.165 656.139, 975.307 653.672 C 991.351 648.131, 1003.439 640.314, 1017.310 626.510 C 1022.640 621.206, 1027 616.472, 1027 615.989 C 1027 615.506, 1029.925 611.669, 1033.500 607.462 C 1041.548 597.993, 1042.072 596.278, 1035.807 599.925 C 1033.112 601.493, 1031.281 601.748, 1025.911 601.301 C 1015.786 600.458, 1015.380 599.924, 1010.461 581 C 1007.998 571.524, 1008.311 570.346, 1015 563.922 C 1018.300 560.752, 1021 557.914, 1021 557.614 C 1021 557.315, 1019.735 555.591, 1018.190 553.785 C 1011.996 546.545, 1009.701 540.226, 1008.460 527 L 1007.850 520.500 1014.497 511.500 C 1023.687 499.055, 1024.381 498.415, 1034.169 493.359 L 1042.839 488.881 1041.169 485.954 C 1040.089 484.060, 1038.002 482.516, 1035.255 481.576 C 1031.468 480.281, 1023.907 475.091, 1017.097 469.110 C 1015.105 467.361, 1013.400 467, 1007.130 467 C 1002.970 467, 997.752 467.618, 995.533 468.373 C 993.315 469.129, 989.700 470.299, 987.500 470.975 C 985.300 471.650, 981.919 473.218, 979.987 474.459 C 978.055 475.700, 975.355 477.032, 973.987 477.420 C 972.619 477.808, 970.600 478.487, 969.500 478.929 C 968.400 479.371, 965.250 480.255, 962.500 480.894 C 959.750 481.532, 954.800 483.322, 951.500 484.871 C 948.200 486.419, 943.475 488.235, 941 488.905 C 938.525 489.575, 935.150 490.652, 933.500 491.298 C 929.412 492.900, 914.464 492.865, 912.850 491.250 C 912.162 490.563, 910.121 490, 908.314 490 C 904.548 490, 899.689 488.919, 885.258 484.872 C 877.946 482.822, 872.767 482, 867.156 482 C 860.608 482, 858.481 481.566, 854.399 479.393 C 851.705 477.959, 846.848 475.406, 843.608 473.718 C 840.367 472.030, 835.906 468.928, 833.695 466.825 C 829.114 462.467, 826.779 462.050, 824.576 465.195" stroke="#fc7143" fill="#fc7143" fill-opacity="0.2" fill-rule="evenodd"/><path class="svg-region-LPl" d="M 777.500 493.928 C 773.650 494.874, 768.025 497.220, 765 499.142 C 759.575 502.588, 750.743 506.999, 749.261 507.001 C 748.842 507.002, 747.150 508.176, 745.500 509.610 C 743.850 511.045, 739.923 513.978, 736.774 516.130 C 733.625 518.282, 730.587 520.903, 730.024 521.955 C 729.461 523.008, 729 528.993, 729 535.257 C 729 545.862, 729.206 547.071, 731.992 552.823 C 733.638 556.220, 735.341 559, 735.777 559 C 736.212 559, 737.424 560.462, 738.469 562.250 C 742.475 569.101, 752.404 578.158, 762 583.715 C 767.225 586.741, 772.625 589.984, 774 590.923 C 775.375 591.861, 778.525 593.437, 781 594.424 C 783.475 595.412, 785.950 596.401, 786.500 596.622 C 787.118 596.871, 787.369 594.908, 787.155 591.478 C 786.933 587.905, 787.406 584.430, 788.482 581.715 C 790.268 577.212, 794.604 572, 796.565 572 C 797.219 572, 798.366 571.264, 799.113 570.364 C 799.860 569.464, 802.235 567.614, 804.391 566.253 C 809.315 563.145, 814.924 563.595, 818.916 567.420 C 820.398 568.839, 822.157 570, 822.827 570 C 823.496 570, 825.834 567.230, 828.022 563.845 C 831.717 558.128, 832 557.180, 832 550.521 C 832 543.371, 831.985 543.331, 826.416 535.926 C 823.345 531.842, 819.913 526.700, 818.791 524.500 C 816.808 520.615, 813.038 516.156, 800.868 503.301 C 796.864 499.071, 795 496.292, 795 494.551 C 795 492.127, 794.739 492.005, 789.750 492.104 C 786.862 492.161, 781.350 492.982, 777.500 493.928" stroke="#d2454f" fill="#d2454f" fill-opacity="0.2" fill-rule="evenodd"/><path class="svg-region-LPr" d="M 1033.880 493.378 C 1023.954 498.747, 1023.885 498.811, 1015.226 510.500 L 1007.818 520.500 1008.476 527.500 C 1009.668 540.171, 1011.901 546.417, 1017.795 553.568 C 1020.676 557.062, 1021.121 557.266, 1023.507 556.179 C 1027.093 554.545, 1028.763 554.695, 1031.907 556.934 C 1033.400 557.997, 1035.850 559.175, 1037.350 559.552 C 1041.022 560.473, 1044.635 565.455, 1046.029 571.518 C 1046.659 574.258, 1047.585 577.882, 1048.087 579.571 C 1048.589 581.260, 1049 583.406, 1049 584.340 C 1049 585.686, 1049.570 585.901, 1051.750 585.376 C 1058.108 583.845, 1069.965 576.867, 1077 570.515 C 1079.475 568.281, 1084.115 564.438, 1087.312 561.976 C 1092.006 558.361, 1094.206 555.579, 1098.751 547.512 C 1105.953 534.732, 1108.670 525.066, 1109.227 510.250 C 1109.459 504.063, 1109.388 499, 1109.069 499 C 1108.750 499, 1107.888 497.644, 1107.155 495.987 C 1106.421 494.330, 1104.903 492.483, 1103.781 491.883 C 1102.659 491.283, 1095.262 490.386, 1087.343 489.891 C 1075.241 489.134, 1072.585 489.226, 1070.689 490.468 C 1069.449 491.281, 1065.299 492.218, 1061.467 492.551 C 1055.868 493.038, 1053.341 492.749, 1048.593 491.079 C 1045.345 489.935, 1042.420 489.058, 1042.093 489.128 C 1041.767 489.198, 1038.071 491.111, 1033.880 493.378" stroke="#d2454f" fill="#d2454f" fill-opacity="0.2" fill-rule="evenodd"/><path class="svg-region-DMl" d="M 650 455 C 647.525 455.470, 643.475 456.317, 641 456.883 C 638.525 457.450, 634.761 457.932, 632.636 457.956 C 630.511 457.980, 627.024 458.983, 624.886 460.184 C 621.855 461.888, 621 462.968, 621 465.095 C 621 469.006, 625.068 479.092, 626.927 479.787 C 627.792 480.111, 630.566 481.819, 633.091 483.584 C 643.118 490.589, 656.160 494.590, 660.826 492.093 C 661.926 491.505, 667.733 490.853, 673.730 490.645 C 679.727 490.436, 685.671 489.711, 686.939 489.033 C 688.206 488.354, 691.197 487.507, 693.584 487.150 L 697.926 486.500 689.463 477.715 C 684.808 472.884, 681 468.512, 681 468 C 681 466.374, 674.728 459.853, 670.746 457.339 C 666.395 454.593, 657.461 453.585, 650 455" stroke="#68533d" fill="#68533d" fill-opacity="0.2" fill-rule="evenodd"/><path class="svg-region-DMr" d="M 1180.859 431.266 C 1167.628 439.382, 1159.819 445.849, 1152.043 455.132 C 1148.227 459.687, 1148.211 461.541, 1151.970 463.485 C 1153.604 464.329, 1155.392 465.864, 1155.944 466.895 C 1157.428 469.668, 1175.592 471.866, 1179.687 469.768 C 1189.546 464.718, 1196.770 460.604, 1198.500 459.054 C 1199.600 458.069, 1201.850 456.943, 1203.500 456.553 C 1208.622 455.343, 1210 453.327, 1210 447.046 C 1210 441.795, 1209.714 441.105, 1205.877 437.112 C 1199.731 430.716, 1196.374 429.005, 1190 429.020 C 1186.079 429.029, 1183.455 429.674, 1180.859 431.266" stroke="#68533d" fill="#68533d" fill-opacity="0.2" fill-rule="evenodd"/><path class="svg-region-Ol" d="M 436.097 341.566 C 425.165 343.771, 417.722 345.880, 411.216 348.618 C 409.410 349.378, 407.143 350, 406.178 350 C 405.212 350, 402.658 350.900, 400.500 352 C 398.342 353.100, 396.011 354, 395.319 354 C 394.628 354, 392.360 354.827, 390.281 355.837 C 379.369 361.139, 373.844 363.978, 367.500 367.543 C 363.650 369.706, 359.274 372.156, 357.777 372.988 C 340.936 382.338, 321.936 396.875, 318.977 402.675 C 318.184 404.229, 316.082 407.456, 314.304 409.846 C 310.203 415.363, 301.704 432.026, 295.101 447.500 C 292.284 454.100, 289.534 460.281, 288.990 461.236 C 288.445 462.191, 288 463.473, 288 464.085 C 288 464.697, 287.348 466.616, 286.551 468.349 C 285.754 470.082, 282.822 478.250, 280.035 486.500 C 277.248 494.750, 274.300 502.918, 273.484 504.651 C 272.668 506.384, 272 508.311, 272 508.933 C 272 509.554, 271.118 512.682, 270.039 515.883 C 266.163 527.390, 263.639 543.273, 263.912 554.441 C 264.142 563.826, 266.448 580.100, 267.945 582.897 C 268.525 583.981, 269.015 586.136, 269.033 587.684 C 269.051 589.233, 269.970 592.975, 271.076 596 C 272.181 599.025, 273.832 604.425, 274.744 608 C 276.794 616.038, 292.850 648.108, 300.099 658.644 C 301.671 660.929, 304.363 665.432, 306.080 668.649 C 310.998 677.862, 311.280 678.306, 324.109 697.049 C 337.906 717.208, 362.184 736.269, 387 746.428 C 390.575 747.892, 394.400 749.465, 395.500 749.924 C 397.172 750.622, 421.133 757.958, 431.500 760.946 C 445.051 764.851, 461.196 765.550, 477.841 762.951 C 484.803 761.865, 492.300 760.525, 494.500 759.975 C 496.700 759.425, 500.750 758.527, 503.500 757.980 C 506.250 757.432, 513.675 755.594, 520 753.895 C 526.325 752.197, 535.550 749.720, 540.500 748.392 C 545.450 747.064, 552.425 745.560, 556 745.049 C 559.575 744.539, 567 743.179, 572.500 742.027 C 578 740.875, 585.200 739.524, 588.500 739.025 C 594.974 738.045, 602.134 736.631, 608.500 735.075 C 610.700 734.538, 612.500 734.148, 612.500 734.209 C 612.500 734.270, 614.075 733.826, 616 733.222 C 617.925 732.618, 622.030 731.933, 625.121 731.700 C 628.213 731.468, 631.347 730.904, 632.085 730.448 C 632.823 729.991, 635.243 729.291, 637.463 728.890 C 657.115 725.348, 684.122 714.509, 693.090 706.565 C 705.931 695.191, 709.602 691.196, 711.592 686.433 C 712.352 684.615, 714.094 681.476, 715.465 679.457 C 723.893 667.037, 726.112 656.856, 725.480 633.500 C 724.929 613.105, 724.466 608.775, 721.790 599 C 720.660 594.875, 719.369 589.475, 718.920 587 C 717.995 581.898, 717.221 579.382, 713.543 569.520 C 712.111 565.681, 710.503 562.103, 709.970 561.570 C 709.436 561.036, 709 559.611, 709 558.402 C 709 556.038, 696.528 543, 694.267 543 C 693.570 543, 693 542.637, 693 542.193 C 693 541.749, 686.466 539.207, 678.479 536.544 C 666.159 532.437, 662.863 530.878, 656.729 526.259 C 652.753 523.265, 648.538 519.765, 647.362 518.482 C 645.257 516.185, 628.726 507, 626.697 507 C 626.125 507, 624.947 506.402, 624.079 505.672 C 622.281 504.159, 612.706 501, 609.919 501 C 608.901 501, 606.590 500.366, 604.784 499.591 C 602.978 498.816, 599.250 497.473, 596.500 496.606 C 593.750 495.738, 588.350 493.909, 584.500 492.540 C 580.650 491.172, 576.233 490.040, 574.685 490.026 C 573.137 490.012, 567.647 487.723, 562.484 484.940 C 552.139 479.363, 543.131 471.347, 541.107 465.916 C 540.406 464.037, 539.357 461.616, 538.774 460.536 C 530.629 445.426, 528.690 440.931, 527.975 435.500 C 527.541 432.200, 526.667 426.350, 526.033 422.500 C 525.079 416.705, 524.501 407.274, 523.870 387.182 C 523.826 385.801, 522.895 384.454, 521.564 383.847 C 519.188 382.764, 516 378.135, 516 375.767 C 516 372.007, 500.824 352.368, 494.780 348.306 C 488.529 344.105, 485.525 343.126, 470.500 340.393 C 461.762 338.803, 447.364 339.294, 436.097 341.566" stroke="#aa444d" fill="#aa444d" fill-opacity="0.2" fill-rule="evenodd"/><path class="svg-region-Or" d="M 1360.500 300.995 C 1358.850 301.444, 1355.319 302.112, 1352.654 302.481 C 1345.739 303.438, 1333.506 310.218, 1326.744 316.841 C 1320.632 322.829, 1319.730 324.713, 1313.261 345 C 1306.364 366.633, 1303.827 378.937, 1303.572 392 C 1303.459 397.775, 1302.879 403.400, 1302.282 404.500 C 1301.685 405.600, 1299.861 410.550, 1298.228 415.500 C 1292.032 434.290, 1289.219 440.987, 1285.962 444.701 C 1281.206 450.126, 1276.319 453.799, 1272.130 455.097 C 1266.489 456.845, 1249.802 457.420, 1245.540 456.013 C 1242.086 454.873, 1241.568 455.002, 1236.686 458.219 C 1233.834 460.098, 1230.713 461.929, 1229.750 462.287 C 1228.787 462.644, 1227.980 463.514, 1227.956 464.219 C 1227.932 464.923, 1225.570 467.660, 1222.706 470.300 C 1219.843 472.940, 1214.586 477.777, 1211.024 481.050 C 1207.462 484.322, 1204.005 487, 1203.342 487 C 1202.059 487, 1195.331 493.795, 1189.829 500.647 C 1186.095 505.297, 1175.535 513.634, 1168.288 517.652 C 1153.681 525.750, 1144.647 534.311, 1139.322 545.101 C 1137.574 548.643, 1135.843 553.556, 1135.476 556.020 C 1135.109 558.484, 1134.581 573.325, 1134.304 589 C 1133.782 618.478, 1133.667 616.986, 1137.924 636 C 1139.634 643.638, 1146.136 655.422, 1151.443 660.500 C 1168.115 676.453, 1181.619 687.973, 1183.667 687.990 C 1184.308 687.996, 1184.983 688.367, 1185.167 688.816 C 1185.828 690.436, 1201.938 701, 1203.747 701 C 1204.766 701, 1206.028 701.374, 1206.550 701.832 C 1208.617 703.642, 1218.460 707, 1221.699 707 C 1223.587 707, 1225.956 707.441, 1226.964 707.981 C 1227.972 708.520, 1233.680 709.194, 1239.648 709.479 C 1245.617 709.763, 1252.975 710.445, 1256 710.994 C 1259.025 711.542, 1267.125 712.688, 1274 713.540 C 1280.875 714.391, 1290.213 715.981, 1294.750 717.071 C 1299.288 718.162, 1306.038 719.441, 1309.750 719.912 C 1313.463 720.384, 1318.075 721.453, 1320 722.289 C 1321.925 723.124, 1326.650 724.351, 1330.500 725.014 C 1334.350 725.677, 1338.850 726.884, 1340.500 727.696 C 1344.147 729.492, 1350.545 731.233, 1363.611 733.985 C 1384.660 738.419, 1392.207 739.183, 1414 739.086 C 1430.631 739.012, 1443.573 737.189, 1447 734.437 C 1449.296 732.594, 1456.751 729, 1458.280 729 C 1460.021 729, 1480.571 718.482, 1483.813 715.932 C 1485.164 714.869, 1486.829 714, 1487.514 714 C 1488.198 714, 1493.200 709.706, 1498.629 704.459 C 1504.058 699.211, 1509.625 694.286, 1511 693.515 C 1516.538 690.408, 1553.201 650.232, 1555.129 645.156 C 1555.475 644.245, 1556.849 642.375, 1558.182 641 C 1567.056 631.845, 1585.617 595.033, 1588.939 580 C 1589.365 578.075, 1590.220 574.680, 1590.840 572.455 C 1594.030 561.005, 1594.783 552.976, 1594.637 532 C 1594.487 510.441, 1594.403 509.701, 1589.675 488 C 1587.954 480.102, 1583.187 465.639, 1578.304 453.500 C 1574.699 444.537, 1564.333 423.886, 1561.009 419.044 C 1560.048 417.645, 1557.330 413.575, 1554.969 410 C 1544.317 393.871, 1523.531 370.729, 1508.996 358.815 C 1495.144 347.462, 1491.569 344.752, 1482 338.352 C 1473.101 332.400, 1458.232 324.591, 1434.500 313.404 C 1423.133 308.047, 1411.432 305.284, 1386.181 301.995 C 1369.882 299.872, 1365.291 299.694, 1360.500 300.995" stroke="#aa444d" fill="#aa444d" fill-opacity="0.2" fill-rule="evenodd"/><path class="svg-region-Pl" d="M 532.334 395.064 C 525.110 398.640, 523.231 406.739, 525.969 422.500 C 526.638 426.350, 527.541 432.200, 527.975 435.500 C 528.690 440.931, 530.629 445.426, 538.774 460.536 C 539.357 461.616, 540.406 464.037, 541.107 465.916 C 544.492 474.997, 565.575 489.174, 577.742 490.550 C 586.479 491.539, 592.731 490.393, 595.621 487.274 C 597.759 484.968, 598 483.798, 598 475.727 C 598 467.647, 597.677 466.081, 594.778 460.123 C 593.006 456.480, 590.306 451.745, 588.778 449.600 C 587.250 447.455, 586 445.052, 586 444.260 C 586 441.470, 567.871 424.721, 561.913 422.006 C 558.477 420.441, 554.052 411.450, 552.988 403.872 C 552.291 398.910, 551.517 397.002, 549.491 395.250 C 546.035 392.262, 538.167 392.176, 532.334 395.064" stroke="#f9d3d3" fill="#f9d3d3" fill-opacity="0.2" fill-rule="evenodd"/><path class="svg-region-Pr" d="M 1281.408 376.424 C 1277.159 378.274, 1266.978 391.023, 1262.050 400.665 C 1259.802 405.064, 1256.647 409.624, 1255.020 410.827 C 1253.396 412.027, 1250.232 415.713, 1247.989 419.017 C 1245.745 422.321, 1242.580 426.384, 1240.955 428.046 C 1239.330 429.709, 1238 431.968, 1238 433.066 C 1238 434.164, 1237.417 435.286, 1236.704 435.560 C 1235.764 435.921, 1235.519 437.898, 1235.809 442.779 C 1236.276 450.606, 1238.618 453.970, 1244.916 455.857 C 1250.310 457.473, 1264.583 457.256, 1270.475 455.469 C 1280.656 452.381, 1288.402 444.410, 1291.979 433.339 C 1293.130 429.774, 1294.956 425.209, 1296.036 423.194 C 1297.116 421.178, 1298 418.970, 1298 418.286 C 1298 417.602, 1299.207 413.545, 1300.683 409.271 C 1304.358 398.628, 1304.550 387.212, 1301.148 381.726 C 1299.860 379.650, 1297.523 377.287, 1295.953 376.476 C 1292.430 374.654, 1285.530 374.630, 1281.408 376.424" stroke="#f9d3d3" fill="#f9d3d3" fill-opacity="0.2" fill-rule="evenodd"/><path class="svg-region-DLl" d="M 609.219 364.750 C 607.981 367.763, 608.386 381.787, 609.750 383.150 C 610.438 383.838, 611 385.593, 611 387.052 C 611 388.511, 612.107 391.233, 613.460 393.102 C 614.813 394.971, 616.812 398.119, 617.902 400.097 C 618.993 402.076, 621.338 404.398, 623.113 405.258 C 626.013 406.662, 626.580 406.666, 628.671 405.296 C 629.952 404.457, 631 403.430, 631 403.014 C 631 402.598, 633.226 399.960, 635.947 397.152 C 642.523 390.364, 644.494 383.721, 641.569 378.200 C 639.425 374.154, 634.312 370.728, 626.500 368.104 C 622.650 366.812, 618.612 365.134, 617.527 364.377 C 614.718 362.416, 610.092 362.623, 609.219 364.750" stroke="#b7d6d3" fill="#b7d6d3" fill-opacity="0.2" fill-rule="evenodd"/><path class="svg-region-DLr" d="M 1195.788 360.750 C 1193.712 362.957, 1193.066 364.904, 1192.513 370.619 C 1191.831 377.660, 1191.855 377.761, 1194.723 379.803 C 1196.317 380.938, 1198.814 382.166, 1200.270 382.532 C 1201.726 382.897, 1203.442 383.827, 1204.081 384.598 C 1205.685 386.530, 1214.375 386.458, 1216 384.500 C 1216.685 383.675, 1217.871 383, 1218.637 383 C 1220.440 383, 1223.991 377.169, 1223.996 374.200 C 1224.009 366.282, 1213.309 358, 1203.065 358 C 1199.241 358, 1197.896 358.508, 1195.788 360.750" stroke="#b7d6d3" fill="#b7d6d3" fill-opacity="0.2" fill-rule="evenodd"/><path class="svg-region-OLl" d="M 596.640 366.379 C 594.518 368.197, 590.585 370.473, 587.901 371.438 C 585.037 372.468, 581.052 375.115, 578.254 377.847 C 569.555 386.336, 566.003 391.443, 565.992 395.473 C 565.988 397.138, 565.092 401.425, 564 405 C 562.908 408.575, 562.012 413.786, 562.008 416.580 C 562 421.506, 562.145 421.763, 566.750 425.021 C 573.419 429.739, 585.993 442.581, 586.036 444.718 C 586.056 445.698, 587.134 447.799, 588.433 449.387 C 592.705 454.611, 604.215 454.056, 611.062 448.294 C 615.608 444.470, 617 440.054, 617 429.463 L 617 420.170 621.750 415.997 C 625.998 412.266, 628.864 408.642, 628.965 406.875 C 628.984 406.531, 627.945 406.250, 626.656 406.250 C 624.211 406.250, 619 403.347, 619 401.985 C 619 401.554, 617.421 398.854, 615.490 395.985 C 613.560 393.117, 611.717 389.584, 611.395 388.135 C 611.073 386.686, 610.114 383.580, 609.263 381.234 C 608.123 378.091, 607.887 375.129, 608.365 369.984 L 609.014 363 604.757 363.038 C 601.417 363.067, 599.669 363.787, 596.640 366.379" stroke="#c4875d" fill="#c4875d" fill-opacity="0.2" fill-rule="evenodd"/><path class="svg-region-OLr" d="M 1213.912 351.907 C 1211.955 352.956, 1208.811 354.754, 1206.927 355.903 C 1203.930 357.731, 1203.783 357.993, 1205.761 357.996 C 1209.554 358.003, 1216.889 362.043, 1220.063 365.874 C 1223.836 370.427, 1224.494 372.973, 1223.038 377.385 C 1220.905 383.847, 1208.518 388.554, 1204.079 384.590 C 1203.210 383.815, 1201.600 383.027, 1200.500 382.840 C 1198.694 382.533, 1198.514 383.016, 1198.643 387.822 C 1198.745 391.605, 1199.364 393.773, 1200.785 395.322 C 1204.490 399.358, 1212.777 414.467, 1213.476 418.462 C 1214.144 422.277, 1219.674 429, 1222.143 429 C 1222.693 429, 1223.860 429.718, 1224.737 430.594 C 1226.001 431.858, 1227.491 432.049, 1231.916 431.514 C 1239.045 430.652, 1240.975 429.359, 1245.669 422.296 C 1247.776 419.126, 1251.525 414.513, 1254 412.045 C 1256.475 409.577, 1259.887 404.845, 1261.582 401.529 C 1264.507 395.807, 1264.591 395.322, 1263.234 392 C 1262.448 390.075, 1261.189 388.148, 1260.435 387.719 C 1258.614 386.680, 1253.026 378.159, 1248.487 369.500 C 1238.987 351.376, 1237.365 350, 1225.513 350 C 1219.511 350, 1216.567 350.484, 1213.912 351.907" stroke="#c4875d" fill="#c4875d" fill-opacity="0.2" fill-rule="evenodd"/><path class="svg-region-VOC" d="M 897 386.132 C 888.475 387.143, 875.650 388.460, 868.500 389.059 C 852.259 390.418, 824.471 393.926, 795.777 398.239 C 788.290 399.364, 787.978 399.328, 785.582 397.077 C 782.197 393.897, 778.626 394.825, 777.368 399.211 C 776.409 402.557, 774.967 403.612, 766.750 406.981 C 762.844 408.583, 762 409.380, 762 411.464 C 762 413.075, 762.559 414, 763.531 414 C 764.374 414, 765.329 414.694, 765.655 415.543 C 766.425 417.549, 773.220 421, 776.401 421 C 777.766 421, 779.179 421.480, 779.541 422.067 C 780.313 423.316, 777.215 425.922, 774.904 425.968 C 772.754 426.011, 767.501 428.692, 765.983 430.521 C 765.308 431.334, 763.685 432, 762.378 432 C 759.480 432, 759.200 434.502, 761.934 435.965 C 762.998 436.534, 767.477 437, 771.887 437 C 776.297 437, 781.081 437.536, 782.518 438.190 C 784.577 439.128, 786.121 439.091, 789.815 438.015 C 792.872 437.124, 801.798 436.515, 815.500 436.262 C 833.579 435.930, 849.018 435.029, 860.500 433.639 C 865.200 433.069, 871.796 431.066, 877.900 428.354 C 881.706 426.663, 887.344 425.413, 895.500 424.451 C 902.100 423.672, 909.656 422.632, 912.291 422.139 C 915.579 421.524, 919.502 421.664, 924.791 422.583 C 929.031 423.321, 935.650 424.218, 939.500 424.577 C 943.350 424.936, 950.775 426.184, 956 427.350 C 967.118 429.832, 976.746 429.942, 986.505 427.698 C 990.357 426.812, 997.107 425.798, 1001.505 425.443 C 1008.516 424.877, 1010.445 425.118, 1017.176 427.399 C 1026.509 430.561, 1033.858 430.734, 1042.892 428.002 C 1051.220 425.484, 1051.208 425.493, 1053.617 419.529 C 1055.321 415.311, 1056.523 414.033, 1061.550 411.095 L 1067.475 407.634 1063.487 405.843 C 1061.294 404.858, 1058.713 404.041, 1057.750 404.026 C 1056.787 404.012, 1056 403.603, 1056 403.117 C 1056 402.631, 1052.513 401.458, 1048.250 400.509 C 1043.987 399.561, 1037.800 397.944, 1034.500 396.916 C 1031.200 395.888, 1025.575 394.366, 1022 393.534 C 1018.425 392.702, 1012.575 391.114, 1009 390.005 C 1001.190 387.582, 987.155 386.339, 952.500 385.003 C 920.325 383.763, 916.286 383.845, 897 386.132" stroke="#ff8f93" fill="#ff8f93" fill-opacity="0.2" fill-rule="evenodd"/><path class="svg-region-SOTl" d="M 864.500 357.666 C 861.750 358.445, 856.228 359.355, 852.229 359.687 C 848.230 360.020, 845.120 360.454, 845.318 360.651 C 845.917 361.250, 866.754 363.996, 879 365.089 C 888.677 365.954, 891.887 365.850, 899.250 364.434 L 908 362.752 908 359.263 L 908 355.773 897.750 356.363 C 892.112 356.687, 884.427 357.243, 880.671 357.598 C 876.143 358.026, 873.465 357.865, 872.721 357.121 C 871.396 355.796, 871.005 355.822, 864.500 357.666" stroke="#995b45" fill="#995b45" fill-opacity="0.2" fill-rule="evenodd"/><path class="svg-region-SOTr" d="M 914.250 355.679 L 908 356.095 908 359.579 C 908 361.876, 908.555 363.276, 909.629 363.688 C 912.195 364.672, 946.829 362.076, 950.341 360.636 L 953.500 359.341 946 357.578 C 938.214 355.749, 925.039 354.961, 914.250 355.679" stroke="#995b45" fill="#995b45" fill-opacity="0.2" fill-rule="evenodd"/><path class="svg-region-BPCl" d="M 804.500 565.910 C 801.155 568.157, 798.486 570.192, 793.595 574.226 C 786.255 580.281, 784.751 594.413, 790.668 601.735 C 793.650 605.425, 793.863 605.506, 801.314 605.791 C 807.528 606.029, 809.702 605.685, 813.209 603.906 C 822.176 599.357, 826.863 590.796, 826.956 578.797 C 826.995 573.785, 826.689 572.876, 824.438 571.297 C 823.028 570.309, 820.532 568.430, 818.891 567.122 C 814.762 563.831, 808.392 563.295, 804.500 565.910" stroke="#83385f" fill="#83385f" fill-opacity="0.2" fill-rule="evenodd"/><path class="svg-region-BPCr" d="M 1024.216 555.673 C 1023.510 555.957, 1019.798 559.238, 1015.966 562.965 C 1008.235 570.484, 1007.972 571.342, 1010.432 581 C 1013.476 592.945, 1014.971 597.400, 1016.428 598.856 C 1017.312 599.740, 1020.945 600.697, 1025.106 601.142 C 1034.278 602.122, 1038.083 600.339, 1044.430 592.092 C 1048.996 586.158, 1049.961 582.731, 1048.051 579.236 C 1047.529 578.281, 1046.832 575.400, 1046.502 572.833 C 1045.764 567.093, 1041.265 560.534, 1037.399 559.564 C 1035.872 559.181, 1033.400 557.997, 1031.907 556.934 C 1029.250 555.042, 1026.791 554.639, 1024.216 555.673" stroke="#83385f" fill="#83385f" fill-opacity="0.2" fill-rule="evenodd"/><path class="svg-region-ODMl" d="M 687.500 488.686 C 685.130 489.601, 679.318 490.366, 673.240 490.563 C 667.596 490.745, 662.485 491.200, 661.881 491.573 C 661.278 491.946, 656.445 493.090, 651.142 494.114 C 638.728 496.511, 636 497.648, 636 500.421 C 636 501.620, 636.396 503.027, 636.879 503.550 C 637.363 504.072, 638.275 506.118, 638.906 508.095 C 639.537 510.073, 641.054 512.166, 642.276 512.748 C 643.499 513.329, 651.999 517.449, 661.164 521.903 C 670.330 526.356, 678.188 530, 678.627 530 C 679.066 530, 683.267 531.913, 687.963 534.250 C 696.265 538.383, 696.810 538.509, 707.793 538.837 C 720.600 539.219, 723.134 538.317, 725.560 532.511 C 727.691 527.411, 724.616 519.458, 717.776 512.374 C 712.941 507.367, 709.935 503.207, 706.846 497.250 C 706.204 496.012, 705.301 495, 704.839 495 C 704.378 495, 704 494.378, 704 493.619 C 704 491.431, 697.437 486.992, 694.317 487.070 C 692.768 487.109, 689.700 487.836, 687.500 488.686" stroke="#999999" fill="#999999" fill-opacity="0.2" fill-rule="evenodd"/><path class="svg-region-ODMr" d="M 1143.558 465.496 C 1141.408 467.969, 1138.088 471.681, 1136.180 473.746 C 1132.750 477.458, 1125 492.331, 1125 495.202 C 1125 496.019, 1123.181 499.396, 1120.959 502.706 C 1117.301 508.153, 1117.031 508.975, 1118.119 511.362 C 1118.780 512.813, 1119.886 514, 1120.576 514 C 1121.267 514, 1123.258 515.800, 1125 518 C 1127.789 521.521, 1128.666 522, 1132.334 521.996 C 1134.625 521.994, 1137.850 521.188, 1139.500 520.205 C 1141.150 519.222, 1144.525 517.813, 1147 517.073 C 1157.106 514.055, 1158.563 513.539, 1160 512.462 C 1166.100 507.892, 1180.228 501.103, 1183.770 501.040 C 1186.922 500.984, 1192.702 497.107, 1197.805 491.625 C 1200.173 489.081, 1202.690 487, 1203.399 487 C 1204.108 487, 1206.524 485.146, 1208.768 482.880 C 1212.326 479.286, 1212.714 478.466, 1211.803 476.466 C 1209.757 471.977, 1186.402 467.357, 1179.391 470.055 C 1174.977 471.753, 1158.435 469.383, 1155.928 466.693 C 1154.033 464.658, 1148.948 461.019, 1147.984 461.007 C 1147.700 461.003, 1145.708 463.023, 1143.558 465.496" stroke="#999999" fill="#999999" fill-opacity="0.2" fill-rule="evenodd"/>
    </svg>