<svg xmlns="http://www.w3.org/2000/svg" width="1921" height="1027" viewBox="0 0 1921 1027" version="1.1">
    <path class="svg-region-V" d="M 783 155.714 C 780.525 155.941, 778.072 156.548, 777.550 157.063 C 777.028 157.578, 774.185 158, 771.234 158 C 768.283 158, 764.886 158.533, 763.684 159.184 C 762.483 159.836, 759.700 160.689, 757.500 161.081 C 753.400 161.811, 735.943 167.890, 732.212 169.887 C 731.068 170.499, 729.314 171.035, 728.316 171.079 C 727.317 171.122, 724.475 172.468, 722 174.071 C 719.525 175.673, 716.263 177.482, 714.750 178.090 C 713.237 178.698, 712 179.592, 712 180.078 C 712 180.563, 710.087 181.933, 707.750 183.124 C 705.413 184.314, 701.947 186.461, 700.048 187.894 C 690.713 194.942, 671.402 216.113, 663.588 227.868 C 661.020 231.730, 658.106 235.149, 657.112 235.464 C 654.896 236.168, 650.448 245.012, 648.989 251.618 C 648.396 254.303, 646.812 258.617, 645.469 261.205 C 642.246 267.417, 641.673 273.670, 642.805 290.308 C 643.701 303.493, 643.878 304.282, 646.728 307.808 C 648.955 310.563, 650.702 311.646, 653.607 312.076 C 655.748 312.393, 660.650 314.123, 664.500 315.919 C 677.226 321.858, 679.036 322.307, 694 323.235 C 719.417 324.810, 719.853 324.790, 726.500 321.692 C 733.825 318.278, 739.344 313.121, 742.705 306.549 C 744.098 303.826, 746.042 300.451, 747.025 299.049 C 748.009 297.647, 749.085 294.925, 749.418 293 C 749.858 290.457, 750.973 288.885, 753.497 287.250 C 755.408 286.012, 757.488 285, 758.118 285 C 758.748 285, 760.667 284.134, 762.382 283.075 C 767.660 279.817, 780.095 276.223, 788.572 275.506 C 797.772 274.728, 812.021 276.122, 826 279.168 C 831.225 280.307, 837.075 281.577, 839 281.990 C 843.604 282.978, 855.300 286.730, 861.185 289.108 C 863.762 290.148, 866.362 291, 866.963 291 C 867.564 291, 872.779 293.261, 878.552 296.025 C 888.074 300.583, 889.996 301.135, 899.274 301.970 C 904.898 302.476, 912.425 303.574, 916 304.410 C 925.810 306.704, 933.996 306.161, 937 303.018 C 939.344 300.564, 946.174 296.996, 948.554 296.982 C 950.174 296.971, 955.249 296.300, 959.832 295.490 C 968.663 293.928, 1008.016 293.308, 1018.145 294.571 C 1023.909 295.290, 1042.134 301.209, 1045.637 303.500 C 1046.812 304.269, 1048.770 306.510, 1049.988 308.480 C 1051.211 310.460, 1054.058 312.991, 1056.351 314.139 C 1058.633 315.281, 1061.850 317.494, 1063.500 319.057 C 1065.150 320.619, 1068.750 322.933, 1071.500 324.199 C 1075.872 326.211, 1078.070 326.500, 1089 326.500 C 1100.592 326.500, 1101.972 326.291, 1108 323.626 C 1111.926 321.891, 1117.272 320.478, 1121.500 320.058 C 1127.924 319.421, 1137.567 316.761, 1145.784 313.359 C 1147.590 312.612, 1150.628 312, 1152.534 312 L 1156 312 1156 305.934 C 1156 302.598, 1155.503 298.941, 1154.896 297.806 C 1154.289 296.672, 1153.437 293.439, 1153.003 290.622 C 1152.568 287.805, 1151.265 282.243, 1150.106 278.263 C 1148.948 274.282, 1147.990 268.657, 1147.979 265.763 C 1147.958 260.605, 1145.437 252.253, 1139.600 238 C 1134.524 225.607, 1132.109 221.465, 1125.820 214.371 C 1122.344 210.450, 1117.068 204.450, 1114.096 201.037 C 1107.240 193.165, 1100.942 188.448, 1089 182.240 C 1079.191 177.141, 1075.481 175.734, 1061 171.619 C 1045.916 167.332, 1039.826 166.706, 1019.441 167.346 C 995.542 168.097, 983.004 169.282, 971.071 171.917 C 965.884 173.063, 959.584 174.010, 957.071 174.022 C 952.277 174.045, 946.029 176.413, 940.684 180.234 C 934.749 184.475, 931.008 185.413, 920 185.420 C 906.374 185.429, 898.173 183.404, 885 176.776 C 874.634 171.560, 873.276 170.732, 864.308 164.162 C 858.448 159.869, 853.308 158.001, 844 156.784 C 836.278 155.774, 791.013 154.980, 783 155.714" stroke="#dd8a8a" fill="#dd8a8a" fill-opacity="0.2" fill-rule="evenodd"/><path class="svg-region-SV" d="M 782.500 276.111 C 776.035 277.046, 773.980 277.724, 764 282.216 C 751.317 287.924, 750.576 288.461, 749.500 292.725 C 748.950 294.904, 747.326 298.445, 745.892 300.594 C 744.458 302.742, 742.743 305.895, 742.083 307.600 C 740.458 311.792, 733.593 318.244, 727.500 321.304 L 722.500 323.815 725.500 324.412 C 727.150 324.740, 732.325 325.881, 737 326.948 C 741.675 328.015, 749.155 329.091, 753.623 329.340 C 758.090 329.590, 762.647 330.276, 763.748 330.865 C 764.850 331.455, 771.095 332.430, 777.626 333.032 C 784.157 333.634, 791.525 334.792, 794 335.606 C 797.437 336.737, 806.293 337.219, 831.500 337.651 C 864.763 338.221, 883.597 337.270, 885.033 334.947 C 885.766 333.761, 909.364 334.160, 922.908 335.588 C 926.432 335.959, 934.532 335.738, 940.908 335.097 C 957.178 333.460, 973.360 333.241, 975.091 334.635 C 983.130 341.107, 1051.075 339.192, 1056.500 332.340 C 1057.050 331.646, 1060.603 330.591, 1064.395 329.996 C 1075.274 328.291, 1077.618 326.348, 1071.476 324.127 C 1069.538 323.427, 1065.858 321.041, 1063.299 318.826 C 1060.740 316.611, 1057.263 314.127, 1055.573 313.306 C 1053.883 312.485, 1051.600 310.431, 1050.500 308.740 C 1047.652 304.365, 1044.540 302.377, 1036 299.478 C 1031.875 298.078, 1027.600 296.531, 1026.500 296.041 C 1022.782 294.384, 1013.585 293.841, 990.808 293.933 C 975.670 293.994, 965.351 294.514, 959.808 295.494 C 955.239 296.302, 950.142 296.971, 948.482 296.982 C 946.822 296.992, 943.857 298.092, 941.893 299.427 C 931.360 306.584, 928.554 307.136, 916.500 304.426 C 912.650 303.561, 905.023 302.458, 899.551 301.977 C 894.080 301.495, 888.230 300.446, 886.551 299.645 C 873.479 293.409, 868.070 291, 867.137 291 C 866.541 291, 864.129 290.139, 861.777 289.088 C 859.425 288.036, 854.575 286.382, 851 285.412 C 847.425 284.442, 844.050 283.331, 843.500 282.943 C 842.950 282.555, 840.925 282.024, 839 281.764 C 837.075 281.504, 831.225 280.350, 826 279.199 C 808.254 275.293, 794.781 274.336, 782.500 276.111" stroke="#c666b5" fill="#c666b5" fill-opacity="0.2" fill-rule="evenodd"/><path class="svg-region-DB" d="M 1164.500 315.112 C 1160.100 315.570, 1152.810 315.730, 1148.300 315.467 C 1141.539 315.074, 1139.169 315.360, 1134.800 317.098 C 1131.885 318.258, 1126.125 319.557, 1122 319.985 C 1117.360 320.466, 1112.021 321.856, 1108 323.631 C 1101.982 326.287, 1100.535 326.507, 1088.487 326.588 C 1080.719 326.641, 1074.603 327.142, 1073.312 327.833 C 1072.123 328.469, 1067.742 329.497, 1063.575 330.116 C 1059.181 330.770, 1056 331.727, 1056 332.394 C 1056 338.708, 982.672 340.739, 975.091 334.635 C 973.365 333.245, 956.284 333.466, 940 335.089 C 933.675 335.720, 926.025 335.943, 923 335.585 C 911.209 334.192, 885.751 333.785, 885.014 334.978 C 883.628 337.220, 863.036 338.242, 831 337.658 C 807.907 337.238, 798.165 336.698, 794.500 335.635 C 791.750 334.838, 784.325 333.671, 778 333.041 C 771.675 332.411, 764.572 331.245, 762.215 330.448 C 759.858 329.652, 754.843 329, 751.070 329 C 746.862 329, 741.561 328.173, 737.355 326.859 C 732.676 325.398, 727.167 324.617, 720 324.400 C 714.225 324.225, 702.525 323.686, 694 323.202 C 685.475 322.718, 677.600 322.645, 676.500 323.039 C 675.400 323.433, 672.475 324.038, 670 324.382 C 662.261 325.457, 658.707 326.071, 652 327.486 C 648.425 328.241, 641.900 329.381, 637.500 330.019 C 626.865 331.562, 624.202 332.677, 619.720 337.463 C 609.113 348.791, 608.791 360.854, 618.845 370.258 C 625.658 376.631, 630.717 377.591, 647.157 375.632 C 655.461 374.642, 661.562 373.307, 665.801 371.552 C 670.872 369.452, 673.820 368.927, 680.908 368.860 C 689.893 368.775, 692.609 369.529, 696.688 373.241 C 700.772 376.958, 736.582 376.242, 811.500 370.946 C 833.168 369.415, 857.683 367.943, 868.043 367.551 C 872.742 367.374, 880.167 366.399, 884.543 365.385 C 891.670 363.733, 897.424 363.539, 939.700 363.520 C 976.149 363.505, 987.185 363.785, 988.150 364.750 C 988.954 365.554, 992.629 366.025, 998.450 366.070 C 1003.427 366.108, 1012.675 366.578, 1019 367.113 C 1025.325 367.649, 1038.375 368.490, 1048 368.983 C 1057.625 369.475, 1070.900 370.394, 1077.500 371.025 C 1084.100 371.656, 1094.225 372.274, 1100 372.399 C 1105.775 372.524, 1112.423 373.180, 1114.773 373.858 C 1119.776 375.300, 1120.552 374.991, 1121.298 371.260 C 1122.061 367.445, 1127.873 361.896, 1134.759 358.408 C 1140.256 355.623, 1141.052 355.503, 1153.500 355.580 C 1161.618 355.630, 1167.350 356.115, 1168.762 356.872 C 1171.126 358.138, 1179.439 357.192, 1186.974 354.800 C 1197.355 351.504, 1203.387 336.818, 1198.422 326.925 C 1196.871 323.834, 1189.963 317.423, 1187.361 316.658 C 1184.830 315.915, 1173.770 313.966, 1173.066 314.140 C 1172.755 314.217, 1168.900 314.654, 1164.500 315.112" stroke="#e8b1e4" fill="#e8b1e4" fill-opacity="0.2" fill-rule="evenodd"/><path class="svg-region-MB" d="M 894.500 363.732 C 892.300 363.897, 887.554 364.726, 883.952 365.574 C 880.351 366.422, 873.151 367.287, 867.952 367.496 C 855.556 367.994, 830.358 369.520, 811 370.947 C 794.083 372.193, 770.380 373.697, 748.500 374.912 C 740.800 375.340, 727.975 375.486, 720 375.236 C 711.020 374.955, 704.475 375.187, 702.808 375.845 L 700.115 376.907 701.974 380.703 C 705.663 388.240, 705.675 388.283, 708.947 404.826 C 710.458 412.466, 710.260 422.596, 708.536 425.931 C 706.162 430.522, 701.314 434, 697.289 434 C 693.175 434, 684.668 432.671, 670.500 429.816 C 665 428.707, 658.349 427.420, 655.721 426.956 C 649.024 425.773, 642.086 422.067, 640.377 418.762 C 639.108 416.307, 638.669 416.107, 636.781 417.117 C 635.599 417.750, 631.575 421.276, 627.840 424.952 C 619.439 433.221, 616.506 439.177, 617.345 446.263 C 618.675 457.497, 624.247 463, 634.292 463 C 639.893 463, 640.493 462.769, 643.394 459.486 C 645.821 456.741, 647.703 455.735, 652 454.885 C 655.025 454.288, 659.300 453.413, 661.500 452.943 C 670.447 451.029, 683.080 452.532, 691.651 456.530 C 693.384 457.339, 695.442 458, 696.224 458 C 697.006 458, 701.735 459.991, 706.734 462.423 C 714.324 466.118, 717.373 468.384, 725.229 476.173 C 730.403 481.303, 736.636 488.214, 739.080 491.532 C 743.277 497.229, 743.661 497.499, 746.012 496.391 C 747.380 495.746, 751.650 494.291, 755.500 493.158 C 771.482 488.452, 775.188 487.901, 789.647 488.084 C 797.412 488.182, 804.268 487.952, 804.883 487.572 C 805.497 487.193, 806 485.977, 806 484.871 C 806 483.734, 808.044 481.043, 810.701 478.680 C 819.184 471.138, 823.832 466.226, 825.454 463.089 C 826.333 461.390, 827.419 460, 827.868 460 C 828.644 460, 829.849 457.815, 833.777 449.290 C 834.725 447.233, 836.908 443.514, 838.629 441.025 C 840.350 438.536, 842.073 435.375, 842.458 434 C 842.843 432.625, 843.378 430.712, 843.647 429.750 C 844.394 427.071, 841.486 427.609, 839.592 430.500 C 838.572 432.057, 837.016 433, 835.468 433 C 833.040 433, 832.996 432.867, 833.574 427.250 C 834.101 422.130, 834.629 421.062, 838.391 417.500 C 840.715 415.300, 844.997 410.456, 847.906 406.735 C 853.008 400.211, 862.903 392, 865.663 392 C 866.411 392, 867 390.933, 867 389.577 C 867 386.354, 870.756 382.048, 876.129 379.109 C 879.926 377.032, 883.059 376.517, 900 375.180 C 912.319 374.208, 928.098 373.755, 942.847 373.948 L 966.195 374.254 971.847 377.259 C 974.956 378.912, 978.388 380.879, 979.473 381.632 C 981.264 382.875, 981.012 383, 976.723 383 C 972.785 383, 972 383.309, 972 384.860 C 972 387.196, 978.314 394, 980.481 394 C 982.730 394, 986.703 398.540, 989.003 403.739 C 990.066 406.144, 993.337 410.455, 996.271 413.319 C 999.204 416.183, 1001.921 419.351, 1002.307 420.358 C 1002.694 421.366, 1003.903 422.423, 1004.994 422.709 C 1006.085 422.994, 1006.731 423.626, 1006.430 424.114 C 1005.586 425.479, 993.117 425.141, 987.309 423.594 L 982.118 422.212 988.387 429.856 C 991.835 434.060, 996.073 439.525, 997.804 442 C 1001.792 447.701, 1004.623 451, 1005.527 451 C 1005.915 451, 1008.951 453.517, 1012.274 456.593 C 1015.597 459.670, 1019.257 462.631, 1020.408 463.174 C 1022.725 464.267, 1030 473.177, 1030 474.922 C 1030 475.530, 1031.719 474.891, 1033.820 473.501 C 1036.238 471.901, 1038.898 471.022, 1041.070 471.106 C 1042.956 471.180, 1046.771 470.909, 1049.547 470.505 C 1053.097 469.988, 1056.951 470.300, 1062.547 471.559 C 1076.055 474.599, 1086.354 474.852, 1094.500 472.347 L 1101.500 470.194 1103.540 464.347 C 1104.662 461.131, 1106.390 457.279, 1107.381 455.787 C 1110.208 451.527, 1124.207 442.955, 1133.950 439.518 C 1135.926 438.820, 1139.181 437.138, 1141.184 435.779 C 1144.801 433.325, 1152.330 431.467, 1170.707 428.495 C 1180.384 426.929, 1184.224 427.523, 1192.829 431.913 C 1195.079 433.061, 1197.957 434, 1199.224 434 C 1202.002 434, 1211.567 430.604, 1213.644 428.881 C 1218.049 425.225, 1219.325 416.856, 1216.086 412.861 C 1214.398 410.778, 1213.332 410.501, 1207.044 410.506 C 1200.238 410.511, 1199.892 410.398, 1199.400 408.006 C 1196.944 396.068, 1194.994 392.647, 1188.800 389.411 C 1183.920 386.862, 1180.700 387.589, 1176.928 392.093 C 1171.430 398.659, 1165.418 402.685, 1147.500 411.802 C 1144.750 413.201, 1140.619 415.618, 1138.320 417.173 C 1134.976 419.435, 1133.029 420, 1128.586 420 C 1123.890 420, 1122.538 419.559, 1119.836 417.144 C 1116.654 414.301, 1116.638 414.239, 1116.230 402.894 C 1115.829 391.703, 1116.391 387.477, 1119.344 379.500 L 1120.825 375.500 1116.163 374.122 C 1113.598 373.365, 1106.775 372.636, 1101 372.502 C 1095.225 372.369, 1084.875 371.703, 1078 371.022 C 1071.125 370.341, 1058.075 369.427, 1049 368.991 C 1011.256 367.178, 992.328 365.840, 989.500 364.786 C 986.764 363.766, 905.979 362.869, 894.500 363.732" stroke="#f9c6c6" fill="#f9c6c6" fill-opacity="0.2" fill-rule="evenodd"/><path class="svg-region-LBl" d="M 675.500 368.999 C 668.191 369.908, 661.942 372.570, 652.935 378.614 C 644.431 384.319, 642.587 386.939, 638.944 398.493 C 637.364 403.503, 637.866 413.108, 639.946 417.691 C 641.400 420.892, 642.889 422.355, 646.254 423.888 C 653.374 427.131, 679.066 432.317, 694.560 433.637 L 701.620 434.239 705.810 429.479 C 709.911 424.820, 710 424.563, 710 417.436 C 710 410.676, 709.650 408.108, 706.873 394.500 C 704.958 385.112, 702.408 379.341, 698.108 374.661 C 693.132 369.244, 686.628 367.615, 675.500 368.999" stroke="#79495c" fill="#79495c" fill-opacity="0.2" fill-rule="evenodd"/><path class="svg-region-LBr" d="M 1135.250 358.064 C 1127.974 361.871, 1122.146 367.312, 1121.451 370.947 C 1121.183 372.351, 1119.959 376.650, 1118.731 380.500 C 1116.890 386.278, 1116.500 389.802, 1116.500 400.685 L 1116.500 413.871 1119.437 416.935 C 1122.104 419.718, 1122.932 419.993, 1128.437 419.927 C 1132.577 419.877, 1135.451 419.251, 1137.500 417.952 C 1139.150 416.905, 1143.425 414.462, 1147 412.522 C 1166.862 401.745, 1170.531 399.334, 1175.826 393.580 C 1181.399 387.525, 1183 383.542, 1183 375.732 C 1183 367.016, 1179.691 361.780, 1172 358.327 C 1167.423 356.272, 1164.403 355.769, 1154 355.326 L 1141.500 354.794 1135.250 358.064" stroke="#79495c" fill="#79495c" fill-opacity="0.2" fill-rule="evenodd"/><path class="svg-region-PP" d="M 983.124 448.995 C 980.168 450.078, 977.116 451.489, 976.343 452.130 C 975.570 452.772, 972.139 454.717, 968.719 456.453 C 960.216 460.769, 957.987 462.140, 955.307 464.702 C 952.554 467.335, 947.156 468.971, 941 469.038 C 936.164 469.091, 931.854 469.884, 922.701 472.403 C 916.112 474.218, 909.737 474.465, 907.021 473.011 C 903.694 471.231, 877.869 465, 873.817 465 C 870.914 465, 867.947 463.841, 862.680 460.650 C 851.037 453.596, 845.687 451, 842.789 451 C 837.242 451, 829.224 456.907, 824.466 464.500 C 822.516 467.611, 820.030 470.167, 811.050 478.294 C 806.197 482.686, 805.799 483.373, 806.305 486.493 C 806.609 488.366, 807.602 491.608, 808.512 493.699 C 812.521 502.908, 813 504.124, 813 505.089 C 813 505.650, 813.885 508.053, 814.967 510.429 C 816.050 512.804, 817.409 516.863, 817.988 519.448 C 819.203 524.866, 823.118 533.023, 825.422 534.935 C 826.446 535.785, 827 537.880, 827 540.900 C 827 543.480, 827.689 546.538, 828.546 547.762 C 829.396 548.975, 830.735 553.688, 831.522 558.234 C 832.308 562.780, 833.485 568.334, 834.136 570.576 C 835.112 573.934, 835.056 575.182, 833.818 577.663 C 832.342 580.623, 832.398 580.779, 837.060 586.681 C 840.900 591.544, 842.917 593.131, 847.652 595.015 C 850.868 596.294, 854.625 598.105, 856 599.039 C 857.375 599.973, 859.625 601.082, 861 601.502 C 862.375 601.923, 865.750 603.354, 868.500 604.683 C 882.662 611.528, 884.853 612.045, 900.652 612.271 C 922.291 612.581, 943.850 608.939, 962.148 601.883 C 973.256 597.599, 980.520 593.086, 990.792 584.088 C 995.581 579.892, 1000.827 575.875, 1002.448 575.161 C 1004.588 574.218, 1005.035 573.640, 1004.079 573.049 C 1002.411 572.018, 1002.987 546.602, 1004.752 543.402 C 1005.388 542.247, 1006.046 539.322, 1006.215 536.902 C 1006.496 532.858, 1006.805 532.408, 1010.004 531.371 C 1013.814 530.136, 1013.495 531.069, 1021.913 496.500 C 1025.589 481.406, 1025.766 480.878, 1027.916 478.589 C 1029.062 477.369, 1030 475.804, 1030 475.110 C 1030 473.370, 1021.786 463, 1020.408 463 C 1019.793 463, 1016.412 460.388, 1012.895 457.196 C 1009.378 454.003, 1004.782 450.593, 1002.682 449.616 C 996.880 446.919, 989.440 446.683, 983.124 448.995" stroke="#c4743d" fill="#c4743d" fill-opacity="0.2" fill-rule="evenodd"/><path class="svg-region-LPl" d="M 765 490.426 C 760.325 491.670, 755.233 493.208, 753.685 493.844 C 752.137 494.480, 749.784 495, 748.458 495 C 743.794 495, 743.177 497.814, 743.528 517.500 C 743.862 536.272, 744.554 541.701, 747.873 551.576 C 748.968 554.834, 750.397 560.185, 751.048 563.468 C 752.103 568.787, 752.874 570.064, 758.142 575.218 C 761.392 578.398, 764.721 581, 765.539 581 C 767.574 581, 770.888 582.947, 774.654 586.353 C 777.676 589.087, 778.019 589.162, 782.806 588.135 C 785.555 587.545, 791.336 586.790, 795.652 586.457 C 802.345 585.940, 804.740 586.230, 811.926 588.426 C 822.159 591.552, 822 591.548, 822 588.700 C 822 585.834, 820.244 584, 817.499 584 C 816.107 584, 814.468 582.527, 812.638 579.633 C 811.120 577.231, 808.851 574.798, 807.597 574.226 C 805.028 573.056, 801.989 567.399, 802.022 563.849 C 802.094 556.142, 813.637 544, 820.892 544 C 822.931 544, 825.140 544.540, 825.800 545.200 C 826.733 546.133, 827 545.321, 827 541.544 C 827 537.991, 826.370 535.859, 824.648 533.594 C 821.060 528.874, 819.113 524.626, 817.866 518.800 C 817.242 515.885, 815.892 511.932, 814.866 510.015 C 813.839 508.098, 813 505.976, 813 505.299 C 813 504.622, 812.352 502.590, 811.560 500.784 C 810.768 498.978, 809.375 495.408, 808.463 492.852 L 806.806 488.204 790.153 488.185 C 775.991 488.168, 772.229 488.503, 765 490.426" stroke="#d2454f" fill="#d2454f" fill-opacity="0.2" fill-rule="evenodd"/><path class="svg-region-LPr" d="M 1046 470.946 C 1044.625 471.357, 1042.150 471.502, 1040.500 471.268 C 1038.189 470.940, 1036.220 471.762, 1031.926 474.850 C 1025.519 479.457, 1026.431 476.957, 1017.088 515.500 C 1015.355 522.650, 1013.951 529.063, 1013.968 529.750 C 1013.987 530.471, 1015.297 531, 1017.066 531 C 1021.085 531, 1022.944 532.073, 1029.517 538.192 L 1035 543.294 1035 549.682 C 1035 553.825, 1034.444 556.919, 1033.417 558.486 C 1032.546 559.815, 1032.107 561.761, 1032.440 562.810 C 1033.365 565.726, 1032.070 567.963, 1028.624 569.401 L 1025.500 570.705 1029.500 572.541 C 1032.359 573.853, 1036.637 574.491, 1044.500 574.780 C 1050.550 575.001, 1055.984 575.582, 1056.576 576.069 C 1057.263 576.636, 1059.612 575.163, 1063.076 571.994 C 1066.059 569.264, 1069.063 567.024, 1069.750 567.015 C 1070.438 567.007, 1071 566.601, 1071 566.114 C 1071 565.627, 1072.463 564.532, 1074.250 563.682 C 1078.342 561.735, 1086.759 552.254, 1089.165 546.881 C 1091.850 540.882, 1094.072 525.705, 1095.003 507 C 1095.673 493.543, 1096.199 489.746, 1097.857 486.413 C 1100.416 481.266, 1102.405 473.498, 1101.660 471.556 C 1101.172 470.284, 1100.276 470.364, 1095.296 472.120 C 1087.936 474.716, 1076.870 474.658, 1065.641 471.966 C 1057.323 469.972, 1050.456 469.615, 1046 470.946" stroke="#d2454f" fill="#d2454f" fill-opacity="0.2" fill-rule="evenodd"/><path class="svg-region-DMl" d="M 655 454.069 C 647.120 455.922, 646.139 456.443, 641.544 461.210 C 637.784 465.111, 636.444 467.336, 635.992 470.426 C 634.948 477.575, 635.133 477.821, 653.500 493.571 C 655.150 494.986, 658.075 497.331, 660 498.784 C 661.925 500.236, 664.266 502.116, 665.202 502.962 C 666.138 503.808, 667.493 504.950, 668.212 505.500 C 674.087 509.990, 679.857 514.915, 681.686 517 C 683.488 519.055, 684.201 519.299, 685.689 518.370 C 687.140 517.465, 687.480 516.012, 687.400 511.070 C 687.346 507.677, 686.783 504.383, 686.150 503.750 C 684.465 502.065, 684.733 500.184, 687.138 496.807 C 688.946 494.267, 689.739 493.898, 692.287 494.407 C 694.574 494.865, 696.089 494.407, 698.583 492.505 C 700.389 491.127, 702.291 490, 702.811 490 C 703.330 490, 704.373 489.252, 705.128 488.337 C 707.115 485.930, 713.728 483.234, 719.528 482.466 C 723.638 481.923, 725.337 482.208, 728.822 484.024 C 731.167 485.247, 733.385 485.948, 733.751 485.583 C 734.116 485.217, 730.306 480.910, 725.284 476.010 C 715.092 466.067, 708.257 462.061, 691.500 456.210 C 678.666 451.728, 667.692 451.084, 655 454.069 M 740.032 494 C 740.031 494.825, 740.634 497.234, 741.372 499.353 C 742.588 502.847, 742.769 502.990, 743.319 500.888 C 743.701 499.427, 743.206 497.450, 741.979 495.536 C 740.909 493.866, 740.033 493.175, 740.032 494 M 741.151 533.621 C 740.410 536.304, 739.623 539.190, 739.403 540.034 C 739.183 540.877, 737.652 542.365, 736.001 543.340 C 734.351 544.315, 733 545.474, 733 545.914 C 733 546.355, 730.224 547.005, 726.831 547.360 C 723.438 547.715, 720.401 548.266, 720.082 548.585 C 718.237 550.430, 749.768 573, 754.190 573 C 754.658 573, 754.192 571.313, 753.156 569.250 C 752.119 567.188, 750.977 563.700, 750.618 561.500 C 750.260 559.300, 748.869 553.900, 747.529 549.500 C 746.188 545.100, 744.508 538.629, 743.795 535.121 L 742.500 528.742 741.151 533.621" stroke="#68533d" fill="#68533d" fill-opacity="0.2" fill-rule="evenodd"/><path class="svg-region-DMr" d="M 1172 428.136 C 1156.845 430.613, 1145.197 433.345, 1142.500 435.056 C 1140.850 436.102, 1138.375 437.447, 1137 438.043 C 1126.377 442.651, 1113.233 449.978, 1110.053 453.064 C 1105.821 457.172, 1102 465.968, 1102 471.605 C 1102 474.807, 1102.209 475.070, 1104.250 474.433 C 1105.487 474.046, 1106.725 473.412, 1107 473.022 C 1107.275 472.633, 1109.041 472.014, 1110.924 471.647 C 1112.808 471.280, 1116.717 469.860, 1119.612 468.490 C 1122.531 467.109, 1126.686 466, 1128.938 466 C 1131.172 466, 1133 465.550, 1133 465 C 1133 464.424, 1136.115 464, 1140.345 464 C 1148.360 464, 1149.560 464.687, 1151.902 470.619 C 1152.580 472.334, 1154.679 475.235, 1156.567 477.065 C 1158.455 478.895, 1160 480.979, 1160 481.696 C 1160 483.986, 1161.777 483.119, 1167.063 478.250 C 1169.899 475.637, 1172.508 473.488, 1172.860 473.474 C 1175.443 473.369, 1191.266 458.540, 1195.333 452.413 C 1198.302 447.941, 1200 442.998, 1200 438.830 C 1200 436.631, 1199.024 435.588, 1194.594 433.054 C 1189.486 430.131, 1180.689 426.893, 1178.500 427.130 C 1177.950 427.189, 1175.025 427.642, 1172 428.136" stroke="#68533d" fill="#68533d" fill-opacity="0.2" fill-rule="evenodd"/><path class="svg-region-VMl" d="M 787.250 587.229 C 783.263 587.757, 780 588.593, 780 589.086 C 780 589.579, 781.580 592.053, 783.512 594.583 C 785.443 597.114, 788.226 601.280, 789.695 603.842 C 791.164 606.404, 794.046 610.361, 796.098 612.636 C 798.151 614.910, 800.541 618.145, 801.409 619.825 C 802.278 621.504, 803.782 623.468, 804.752 624.189 C 806.287 625.330, 810.201 629.865, 817.500 638.962 C 818.600 640.333, 822.012 644.112, 825.081 647.360 C 829.823 652.377, 831.403 653.405, 835.581 654.192 C 853.814 657.623, 888.548 654.941, 901 649.140 C 903.475 647.987, 906.187 647.034, 907.028 647.022 C 909.072 646.993, 912.193 643.235, 911.808 641.267 C 911.501 639.699, 902.647 634.193, 900.228 634.066 C 899.529 634.030, 895.029 632.167, 890.228 629.927 C 885.428 627.687, 880.150 625.594, 878.500 625.275 C 876.850 624.957, 871.900 622.663, 867.500 620.179 C 863.100 617.694, 857.250 614.509, 854.500 613.101 C 849.811 610.700, 843.549 606.629, 828 595.873 C 820.338 590.573, 806.687 585.932, 799.354 586.134 C 796.684 586.208, 791.237 586.700, 787.250 587.229" stroke="#e59376" fill="#e59376" fill-opacity="0.2" fill-rule="evenodd"/><path class="svg-region-VMr" d="M 1021 572 C 1020.175 572.533, 1018.258 572.976, 1016.740 572.985 C 1015.222 572.993, 1013.210 573.900, 1012.268 575 C 1011.326 576.100, 1010.228 577, 1009.828 577 C 1008.756 577, 1000.770 582.563, 998.808 584.677 C 997.877 585.680, 994.272 588.975, 990.796 592 C 987.320 595.025, 983.123 599.287, 981.468 601.470 C 978.299 605.653, 965.603 614.784, 955.500 620.148 C 952.200 621.900, 949.266 623.680, 948.980 624.104 C 948.694 624.527, 946.219 625.834, 943.481 627.008 C 936.928 629.817, 932 633.654, 932 635.947 C 932 637.054, 933.906 639.015, 936.768 640.851 C 941.465 643.865, 941.657 643.898, 949.518 643.038 C 953.908 642.558, 960.200 641.421, 963.500 640.512 C 966.800 639.602, 973.325 638.227, 978 637.456 C 982.675 636.685, 988.525 635.567, 991 634.972 C 993.475 634.377, 997.300 633.552, 999.500 633.138 C 1009.112 631.329, 1033 616.625, 1033 612.518 C 1033 611.757, 1033.944 610.835, 1035.099 610.469 C 1036.329 610.078, 1038.191 607.672, 1039.601 604.651 C 1041.951 599.614, 1045.640 593.657, 1053.306 582.521 C 1055.400 579.480, 1056.836 576.543, 1056.497 575.996 C 1056.156 575.443, 1051.473 575, 1045.978 575 C 1038.432 575, 1034.866 574.524, 1031 573 C 1025.364 570.779, 1023.222 570.564, 1021 572" stroke="#e59376" fill="#e59376" fill-opacity="0.2" fill-rule="evenodd"/><path class="svg-region-Ol" d="M 444.500 346.709 C 441.200 347.524, 436.925 348.577, 435 349.048 C 428.449 350.652, 419.503 353.326, 418.500 353.981 C 417.950 354.340, 414.800 355.443, 411.500 356.430 C 402.203 359.213, 395.390 362.627, 384.197 370.111 C 372.370 378.018, 362.349 385.943, 356.297 392.173 C 344.962 403.844, 333.402 416.341, 332.562 417.833 C 332.046 418.750, 329.267 422.278, 326.388 425.674 C 323.508 429.070, 320.616 432.849, 319.962 434.072 C 319.307 435.294, 317.246 437.821, 315.381 439.686 C 313.516 441.551, 310.652 445.726, 309.017 448.965 C 307.382 452.204, 305.592 455.134, 305.038 455.476 C 303.862 456.204, 292 479.051, 292 480.591 C 292 480.921, 291.179 482.386, 290.175 483.846 C 288.182 486.743, 279.200 509.192, 276.509 518 C 275.584 521.025, 273.995 525.975, 272.976 529 C 271.132 534.477, 267.338 552.887, 266.484 560.500 C 266.237 562.700, 265.759 570.125, 265.422 577 C 264.879 588.058, 265.108 590.942, 267.402 602 C 270.191 615.440, 272.455 623.617, 273.879 625.391 C 274.369 626.001, 275.102 628.075, 275.508 630 C 276.910 636.643, 284.369 653.519, 288.678 659.798 C 291.055 663.262, 293 666.663, 293 667.357 C 293 668.050, 294.547 671.187, 296.439 674.328 C 298.330 677.469, 300.196 681.041, 300.584 682.266 C 300.973 683.490, 301.836 684.944, 302.503 685.496 C 303.169 686.048, 306.985 691.450, 310.983 697.500 C 332.174 729.569, 358.800 753.508, 388.500 767.194 C 395.442 770.393, 400.831 772.004, 418 776.012 C 425.668 777.803, 437.872 778.790, 448.897 778.513 C 477.669 777.788, 490.694 776.772, 500.500 774.486 C 506 773.204, 513.425 771.639, 517 771.008 C 523.450 769.871, 530.177 768.180, 539.188 765.430 C 541.766 764.644, 544.809 764, 545.951 764 C 548.552 764, 561.085 760.560, 563.824 759.094 C 564.948 758.492, 567.586 757.997, 569.684 757.994 C 571.783 757.990, 574.789 757.315, 576.364 756.494 C 577.940 755.672, 579.965 754.993, 580.864 754.985 C 581.764 754.977, 584.371 754.319, 586.658 753.522 C 588.945 752.725, 593.445 751.619, 596.658 751.064 C 599.871 750.509, 605.425 749.371, 609 748.535 C 616.626 746.752, 635.143 743.442, 643 742.456 C 656.847 740.719, 678.954 733.043, 688.225 726.751 C 694.433 722.538, 699.534 717.641, 702.029 713.500 C 703.354 711.300, 705.959 707.925, 707.819 706 C 709.678 704.075, 711.834 701.276, 712.610 699.780 C 713.386 698.283, 715.747 694.595, 717.857 691.583 C 719.966 688.572, 722.467 683.496, 723.414 680.304 C 724.361 677.112, 725.543 673.492, 726.042 672.260 C 727.688 668.190, 729.452 643.240, 728.269 640.752 C 727.680 639.513, 726.483 634.225, 725.607 629 C 724.732 623.775, 723.094 616.350, 721.966 612.500 C 720.838 608.650, 719.274 602.951, 718.490 599.836 C 716.943 593.693, 710.234 576.091, 708.852 574.550 C 708.383 574.028, 707.995 572.903, 707.989 572.050 C 707.975 570.067, 697.293 548.827, 695.643 547.500 C 694.959 546.950, 691.171 541.550, 687.226 535.500 C 679.582 523.778, 660.378 500.129, 653.120 493.500 C 639.375 480.945, 636 477.537, 636 476.209 C 636 474.636, 626.583 465.618, 618.490 459.441 C 615.793 457.382, 612.442 454.608, 611.043 453.276 C 606.774 449.210, 600.248 445, 598.214 445 C 595.292 445, 587.236 438.376, 585.078 434.200 C 583.019 430.218, 577.217 424.365, 570 418.991 C 567.525 417.148, 560.775 411.165, 555 405.696 C 549.225 400.226, 543.234 394.569, 541.687 393.125 C 538.101 389.779, 530 379.289, 530 377.992 C 530 377.449, 528.425 375.262, 526.500 373.132 C 524.575 371.001, 523 368.780, 523 368.196 C 523 367.612, 521.087 365.594, 518.750 363.712 C 509.232 356.049, 489.329 348.056, 475.661 346.407 C 465.545 345.187, 450.050 345.337, 444.500 346.709" stroke="#aa444d" fill="#aa444d" fill-opacity="0.2" fill-rule="evenodd"/><path class="svg-region-Or" d="M 1396.978 308.356 C 1396.711 308.623, 1392.669 309.085, 1387.996 309.382 C 1377.440 310.053, 1366.897 312.144, 1361 314.736 C 1358.525 315.824, 1353.800 317.492, 1350.500 318.444 C 1338.053 322.033, 1329.211 327.784, 1315.156 341.429 C 1305.976 350.342, 1303.063 354.580, 1298.369 365.853 C 1297.143 368.797, 1294.333 373.349, 1292.124 375.968 C 1289.916 378.587, 1287.103 382.703, 1285.875 385.115 C 1284.646 387.527, 1282.454 391.075, 1281.004 393 C 1279.554 394.925, 1277.130 398.656, 1275.617 401.291 C 1274.105 403.927, 1270.892 408.307, 1268.477 411.026 C 1266.063 413.744, 1263.583 416.911, 1262.966 418.063 C 1260.663 422.366, 1257.896 425.339, 1241.613 441 C 1237.324 445.125, 1233.397 449.276, 1232.886 450.225 C 1231.706 452.415, 1219.409 462.530, 1212.965 466.612 C 1210.263 468.323, 1206.495 470.910, 1204.593 472.362 C 1202.690 473.813, 1200.402 475, 1199.508 475 C 1197.923 475, 1192.361 478.887, 1186.672 483.972 C 1181.850 488.282, 1171.930 503.851, 1169.410 511.064 C 1168.090 514.843, 1166.364 521.662, 1165.576 526.217 C 1164.787 530.773, 1163.466 538.100, 1162.640 542.500 C 1158.692 563.525, 1156.446 603.973, 1158.365 619.500 C 1159.620 629.655, 1164.848 641.038, 1171.750 648.641 C 1174.177 651.313, 1176.852 654.513, 1177.696 655.750 C 1178.540 656.987, 1179.753 658, 1180.392 658 C 1181.032 658, 1182.685 659.237, 1184.067 660.750 C 1188.712 665.835, 1192.446 668.402, 1203.500 674.113 C 1209.550 677.238, 1215.850 680.514, 1217.500 681.392 C 1219.150 682.269, 1221.305 682.990, 1222.290 682.994 C 1223.274 682.997, 1225.749 683.846, 1227.790 684.880 C 1229.830 685.914, 1233.525 687.058, 1236 687.422 C 1238.475 687.786, 1243.425 688.506, 1247 689.021 C 1250.575 689.536, 1265.650 690.654, 1280.500 691.507 C 1319.744 693.759, 1326.197 694.544, 1338.657 698.580 C 1344.621 700.511, 1351.875 703.196, 1354.777 704.546 C 1357.680 705.896, 1360.830 707.002, 1361.777 707.004 C 1362.725 707.007, 1366.650 708.167, 1370.500 709.582 C 1389.506 716.569, 1404.709 719.195, 1422.363 718.542 C 1428.718 718.307, 1434.724 717.703, 1435.709 717.201 C 1436.694 716.698, 1440.425 715.740, 1444 715.071 C 1471.450 709.940, 1504.029 689.709, 1527.769 663.051 C 1549.115 639.083, 1561.552 618.756, 1572.158 590.500 C 1575.798 580.805, 1576.152 578.925, 1580.822 544.500 C 1581.195 541.750, 1581.435 533.200, 1581.355 525.500 C 1581.240 514.464, 1580.753 509.912, 1579.052 504 C 1577.866 499.875, 1576.522 494.475, 1576.067 492 C 1574.951 485.935, 1571.308 472.464, 1570.190 470.270 C 1569.694 469.297, 1568.773 466.386, 1568.143 463.803 C 1566.549 457.267, 1560.662 444.661, 1556.493 438.857 C 1554.572 436.183, 1553 433.540, 1553 432.984 C 1553 432.428, 1552.603 431.191, 1552.117 430.236 C 1551.631 429.281, 1550.632 427.150, 1549.897 425.500 C 1549.161 423.850, 1546.702 419.575, 1544.431 416 C 1542.160 412.425, 1539.056 407.250, 1537.534 404.500 C 1536.011 401.750, 1533.520 397.925, 1531.997 396 C 1530.475 394.075, 1527.647 389.800, 1525.712 386.500 C 1523.778 383.200, 1521.139 379.350, 1519.848 377.945 C 1518.556 376.540, 1514.130 371.365, 1510.012 366.445 C 1501.796 356.631, 1486.026 340.687, 1482.032 338.156 C 1480.639 337.273, 1476.794 334.515, 1473.486 332.026 C 1464.696 325.411, 1447.073 316.803, 1436 313.715 C 1425.664 310.832, 1398.264 307.069, 1396.978 308.356" stroke="#aa444d" fill="#aa444d" fill-opacity="0.2" fill-rule="evenodd"/><path class="svg-region-OLl" d="M 595.500 396.919 C 581.268 399.972, 579.377 402.364, 580.504 415.892 C 580.897 420.612, 581.845 425.368, 582.610 426.460 C 583.374 427.552, 584 429.267, 584 430.272 C 584 433.588, 586.937 437.860, 591.753 441.550 C 595.968 444.780, 596.997 445.132, 600.929 444.696 C 604.714 444.277, 606.124 443.402, 610.618 438.688 C 617.017 431.975, 618.283 428.045, 618.408 414.500 C 618.522 402.134, 617.808 399.463, 613.723 396.973 C 609.888 394.635, 606.203 394.624, 595.500 396.919" stroke="#c4875d" fill="#c4875d" fill-opacity="0.2" fill-rule="evenodd"/><path class="svg-region-OLr" d="M 1214.636 369.507 C 1213.060 370.328, 1211.187 371, 1210.472 371 C 1209.758 371, 1207.784 372.889, 1206.087 375.197 C 1202.039 380.701, 1201.735 387.539, 1205.396 390.722 C 1206.766 391.914, 1208.070 394.452, 1208.442 396.653 C 1208.885 399.266, 1210.513 402.024, 1213.519 405.250 C 1217.772 409.814, 1218.163 410, 1223.493 410 C 1233.010 410, 1238.811 404.987, 1241.576 394.371 C 1243.859 385.603, 1243.504 383.502, 1238.892 378.498 C 1231.939 370.956, 1220.203 366.605, 1214.636 369.507" stroke="#c4875d" fill="#c4875d" fill-opacity="0.2" fill-rule="evenodd"/><path class="svg-region-VOC" d="M 915.862 374.014 C 913.311 374.448, 904.761 375.124, 896.862 375.517 C 885.111 376.101, 881.591 376.642, 877.500 378.493 C 871.125 381.377, 867 385.479, 867 388.935 C 867 391.069, 866.307 391.849, 863.516 392.858 C 859.159 394.434, 849.883 402.827, 845.785 408.902 C 844.080 411.431, 840.767 415.300, 838.425 417.500 C 834.620 421.073, 834.103 422.113, 833.574 427.250 C 832.996 432.867, 833.040 433, 835.468 433 C 836.996 433, 838.566 432.065, 839.543 430.575 C 841.250 427.970, 846.248 425.625, 849.500 425.904 C 850.721 426.008, 851.889 425.194, 852.500 423.812 C 853.050 422.567, 854.850 420.903, 856.500 420.113 C 858.150 419.323, 860.175 418.290, 861 417.817 C 861.825 417.345, 864.564 415.938, 867.087 414.692 C 869.611 413.445, 873.436 411.062, 875.587 409.396 C 879.479 406.382, 883.042 404.865, 894.500 401.344 C 899.411 399.835, 903.858 399.500, 919 399.500 C 938.266 399.500, 945.475 400.566, 949.500 404.009 C 953.863 407.742, 965.201 414.911, 968.424 415.975 C 970.301 416.594, 972.558 418.203, 973.441 419.551 C 974.591 421.306, 975.960 422.003, 978.273 422.012 C 980.048 422.018, 983.975 422.688, 987 423.500 C 993.042 425.122, 1005.562 425.517, 1006.430 424.114 C 1006.731 423.626, 1006.085 422.994, 1004.994 422.709 C 1003.903 422.423, 1002.694 421.366, 1002.307 420.358 C 1001.921 419.351, 999.204 416.183, 996.271 413.319 C 993.337 410.455, 990.066 406.144, 989.003 403.739 C 986.775 398.704, 982.748 394, 980.664 394 C 978.788 394, 971.766 386.206, 972.267 384.681 C 972.481 384.031, 974.846 383.275, 977.524 383 L 982.393 382.500 973.947 378.351 L 965.500 374.202 943 373.714 C 930.625 373.446, 918.413 373.581, 915.862 374.014" stroke="#ff8f93" fill="#ff8f93" fill-opacity="0.2" fill-rule="evenodd"/><path class="svg-region-BPCl" d="M 810.754 549.274 C 804.951 554.553, 802 559.718, 802 564.600 C 802 568.128, 805.327 573.373, 808.475 574.807 C 809.864 575.440, 811.014 576.529, 811.032 577.229 C 811.085 579.379, 815.359 583.435, 818.926 584.722 C 821.664 585.710, 822.908 585.683, 825.407 584.579 C 827.108 583.829, 829.217 582.982, 830.092 582.699 C 830.968 582.416, 832.498 580.470, 833.492 578.376 C 835.032 575.130, 835.125 573.975, 834.125 570.535 C 833.480 568.316, 832.301 562.737, 831.506 558.139 C 829.577 546.981, 827.301 544.069, 820.500 544.056 C 817.072 544.050, 815.679 544.795, 810.754 549.274" stroke="#83385f" fill="#83385f" fill-opacity="0.2" fill-rule="evenodd"/><path class="svg-region-BPCr" d="M 1007.916 531.932 C 1006.941 532.536, 1006.269 534.492, 1006.171 537.013 C 1006.082 539.268, 1005.465 542.100, 1004.798 543.306 C 1004.083 544.602, 1003.420 551.127, 1003.180 559.250 L 1002.773 573 1006.137 573.170 C 1013.296 573.531, 1018.731 572.832, 1024.500 570.807 C 1031.420 568.379, 1033.282 566.562, 1032.500 563 C 1032.170 561.498, 1032.554 559.652, 1033.439 558.481 C 1034.408 557.199, 1034.948 554.168, 1034.968 549.890 C 1034.999 543.587, 1034.834 543.124, 1031.415 539.890 C 1029.444 538.026, 1026.753 535.390, 1025.437 534.034 C 1023.440 531.976, 1021.924 531.517, 1016.272 531.258 C 1012.547 531.088, 1008.787 531.391, 1007.916 531.932" stroke="#83385f" fill="#83385f" fill-opacity="0.2" fill-rule="evenodd"/><path class="svg-region-AMC" d="M 1002.506 574.700 C 1000.860 575.590, 996.093 579.285, 991.913 582.910 C 987.734 586.534, 983.456 590.183, 982.407 591.017 C 966.436 603.726, 931.787 612.717, 900.603 612.245 C 884.760 612.006, 882.596 611.496, 868.500 604.683 C 865.750 603.354, 862.375 601.923, 861 601.502 C 859.625 601.082, 857.375 599.973, 856 599.039 C 854.625 598.105, 850.928 596.318, 847.784 595.068 C 843.520 593.373, 840.889 591.416, 837.428 587.364 C 832.457 581.546, 832.201 581.488, 825.250 584.626 C 822.993 585.645, 822 586.776, 822 588.324 C 822 590.972, 824.610 595, 826.325 595 C 826.991 595, 829.684 596.775, 832.309 598.943 C 834.933 601.112, 838.750 603.882, 840.790 605.098 C 842.831 606.313, 846.826 608.814, 849.669 610.654 C 852.513 612.494, 855.258 614, 855.771 614 C 856.283 614, 861.012 616.475, 866.279 619.500 C 871.546 622.525, 876.677 625, 877.681 625 C 879.244 625, 890.789 629.998, 896.236 633.033 C 898.577 634.337, 915.762 634.258, 925.875 632.897 C 932.194 632.047, 935.948 630.821, 942.284 627.538 C 962.146 617.248, 977.014 607.351, 981.480 601.448 C 983.141 599.252, 987.132 595.215, 990.348 592.478 C 993.565 589.740, 997.615 586.083, 999.348 584.351 C 1001.082 582.619, 1003.850 580.498, 1005.500 579.638 C 1011.198 576.666, 1011.510 576.320, 1010.063 574.576 C 1008.422 572.598, 1006.327 572.633, 1002.506 574.700" stroke="#9d4741" fill="#9d4741" fill-opacity="0.2" fill-rule="evenodd"/><path class="svg-region-ODMl" d="M 714.416 483.412 C 709.710 484.886, 704 488.067, 704 489.216 C 704 489.647, 703.429 490, 702.732 490 C 702.035 490, 699.847 491.099, 697.870 492.442 C 695.557 494.014, 693.496 494.681, 692.090 494.313 C 690.617 493.928, 689.104 494.493, 687.452 496.045 C 684.624 498.702, 684.489 499.999, 686.471 505.500 C 688.714 511.725, 688.399 515.726, 685.451 518.458 C 682.676 521.030, 682.579 520.870, 689.120 524.494 C 698.489 529.684, 708.818 537.633, 714.902 544.332 L 718.381 548.165 725.314 547.468 C 732.005 546.796, 733.601 546.043, 738.633 541.179 C 739.385 540.452, 740.011 539.102, 740.025 538.179 C 740.038 537.255, 740.938 533.843, 742.025 530.595 C 744.423 523.426, 744.579 513.890, 742.464 503.815 C 740.149 492.786, 737.961 489.037, 731.624 485.250 C 725.654 481.681, 721.398 481.227, 714.416 483.412" stroke="#999999" fill="#999999" fill-opacity="0.2" fill-rule="evenodd"/><path class="svg-region-ODMr" d="M 1132.500 465 C 1132.160 465.550, 1130.221 466.003, 1128.191 466.006 C 1126.161 466.010, 1123.150 466.721, 1121.500 467.588 C 1117.472 469.702, 1110.905 471.968, 1108.750 471.985 C 1107.787 471.993, 1107 472.450, 1107 473 C 1107 473.550, 1106.190 474, 1105.200 474 C 1103.051 474, 1101 475.856, 1101 477.799 C 1101 479.093, 1099.461 483.019, 1096.648 488.900 C 1095.952 490.356, 1095.500 496.849, 1095.500 505.400 L 1095.500 519.500 1098.836 524.750 C 1101.758 529.349, 1102.581 530, 1105.472 530 C 1109.073 530, 1120.277 523.220, 1122.002 519.997 C 1122.537 518.997, 1124.668 517.161, 1126.737 515.916 C 1130.196 513.837, 1136.530 508.546, 1146.352 499.534 C 1148.470 497.590, 1150.515 496, 1150.896 496 C 1151.277 496, 1153.481 494.235, 1155.794 492.078 C 1161.525 486.734, 1161.621 482.555, 1156.160 476.064 C 1154.047 473.554, 1151.521 469.813, 1150.546 467.750 L 1148.772 464 1140.945 464 C 1136.640 464, 1132.840 464.450, 1132.500 465" stroke="#999999" fill="#999999" fill-opacity="0.2" fill-rule="evenodd"/>
    </svg>