<svg xmlns="http://www.w3.org/2000/svg" width="1921" height="1027" viewBox="0 0 1921 1027" version="1.1">
    <path class="svg-region-V" d="M 813.500 156.895 C 812.400 157.357, 804.075 158.063, 795 158.463 C 785.925 158.863, 774 159.789, 768.500 160.519 C 753.752 162.477, 735.277 167.516, 730.500 170.883 C 728.300 172.433, 725.326 173.987, 723.892 174.335 C 722.457 174.682, 718.726 176.952, 715.602 179.379 C 712.477 181.805, 708.476 184.355, 706.710 185.044 C 703.241 186.400, 687 201.707, 687 203.621 C 687 204.262, 686.384 205.022, 685.631 205.311 C 683.822 206.006, 673.329 218.938, 668.439 226.500 C 666.306 229.800, 663.197 234.143, 661.530 236.152 C 657.412 241.114, 652.527 247.973, 650.969 250.979 C 649.345 254.114, 647.568 269.050, 647.577 279.500 C 647.583 286.601, 647.985 288.342, 651.157 295 C 653.123 299.125, 656.376 304.059, 658.385 305.965 C 660.395 307.871, 662.469 311.029, 662.996 312.984 L 663.953 316.538 671.226 316.653 C 675.227 316.715, 685.925 317.301, 695 317.954 C 704.075 318.606, 715.550 318.941, 720.500 318.698 C 735.282 317.971, 743.388 313.061, 749.402 301.193 C 752.623 294.838, 759.994 288.191, 768.500 283.972 C 775.462 280.519, 775.571 280.501, 788.500 280.618 C 795.650 280.683, 805.550 281.446, 810.500 282.314 C 815.450 283.182, 825.787 284.208, 833.470 284.593 C 845.940 285.218, 848.088 285.600, 853.470 288.146 C 856.787 289.715, 860.270 290.999, 861.211 290.999 C 862.153 291, 864.672 292.767, 866.810 294.926 C 871.302 299.464, 872.271 299.688, 890.500 300.407 C 897.650 300.689, 905.027 301.454, 906.893 302.107 C 911.347 303.667, 935.395 302.669, 943.316 300.597 C 946.515 299.760, 952.590 297.874, 956.816 296.407 C 964.183 293.849, 965.078 293.765, 978.500 294.371 C 994.852 295.109, 1018.103 298.790, 1025.143 301.756 C 1026.597 302.368, 1029.522 303.192, 1031.643 303.587 C 1035.761 304.354, 1041.605 307.615, 1043.971 310.465 C 1044.764 311.421, 1047.745 313.695, 1050.595 315.518 C 1055.089 318.393, 1056.953 318.924, 1064.638 319.519 C 1078.743 320.613, 1105.332 316.612, 1109.831 312.719 C 1110.749 311.925, 1115.550 310.291, 1120.500 309.088 C 1125.450 307.885, 1130.562 306.371, 1131.860 305.723 C 1134.585 304.362, 1139.977 295.509, 1139.991 292.372 C 1139.996 291.202, 1140.673 288.634, 1141.495 286.665 C 1142.318 284.697, 1143.459 277.690, 1144.032 271.095 C 1144.987 260.096, 1144.899 258.457, 1142.964 251.301 C 1141.804 247.011, 1140.497 241.925, 1140.061 240 C 1138.137 231.525, 1131.700 221.751, 1120.735 210.660 C 1114.815 204.670, 1109.635 199.171, 1109.226 198.439 C 1108.816 197.707, 1105.335 194.355, 1101.490 190.990 C 1093.847 184.300, 1078.653 176.028, 1073 175.478 C 1068.715 175.061, 1060.709 173.489, 1056 172.141 C 1036.401 166.527, 1022.648 165.544, 1004.558 168.460 C 999.576 169.264, 990.775 170.406, 985 171 C 956.908 173.886, 950.320 175.219, 946.409 178.806 C 945.359 179.769, 940.765 182.737, 936.200 185.403 C 924.985 191.951, 919.228 193.050, 908 190.790 C 903.325 189.849, 898.056 189.061, 896.291 189.039 C 894.297 189.015, 892.025 188.040, 890.291 186.464 C 888.756 185.070, 885.391 182.482, 882.813 180.714 C 880.235 178.946, 874.813 174.955, 870.762 171.844 C 866.712 168.733, 859.225 164.008, 854.124 161.344 L 844.850 156.500 830.175 156.277 C 822.104 156.155, 814.600 156.432, 813.500 156.895" stroke="#dd8a8a" fill="#dd8a8a" fill-opacity="0.2" fill-rule="evenodd"/><path class="svg-region-SV" d="M 775.500 280.868 C 765.621 283.528, 752.278 293.985, 748.781 301.808 C 746.863 306.099, 740.305 313.480, 736.500 315.630 C 734.616 316.695, 734.795 317.043, 739.599 321.630 C 749.938 331.504, 758.654 333.378, 793.625 333.245 C 807.028 333.195, 811.401 332.844, 813.743 331.633 C 817.800 329.535, 822.763 329.356, 849 330.364 C 863.585 330.924, 878.888 330.847, 892.500 330.144 C 932.826 328.062, 958.967 328.543, 965.500 331.488 C 967.266 332.284, 976.314 333.345, 987.500 334.068 C 1018.676 336.083, 1024.006 336.202, 1030.909 335.043 C 1039.525 333.596, 1052.956 326.884, 1055.257 322.875 L 1056.942 319.939 1052.865 317.220 C 1050.623 315.724, 1046.924 312.903, 1044.644 310.952 C 1038.817 305.963, 1036.281 304.600, 1030 303.076 C 1026.975 302.343, 1024.005 301.351, 1023.400 300.874 C 1022.796 300.396, 1020.184 299.791, 1017.598 299.529 C 1015.011 299.267, 1012.454 298.781, 1011.916 298.448 C 1009.834 297.161, 991.864 294.967, 978.500 294.367 C 965.074 293.765, 964.184 293.849, 956.794 296.414 C 943.252 301.117, 938.806 301.959, 923.959 302.633 C 913.739 303.097, 908.778 302.952, 907.265 302.142 C 906.082 301.509, 898.900 300.744, 891.307 300.442 C 872.183 299.682, 871.328 299.490, 866.810 294.926 C 864.672 292.767, 862.246 291, 861.420 291 C 860.593 291, 857.123 289.706, 853.708 288.125 C 848.168 285.560, 845.995 285.176, 833.500 284.559 C 825.800 284.178, 815.675 283.210, 811 282.406 C 800.810 280.655, 779.691 279.740, 775.500 280.868" stroke="#c666b5" fill="#c666b5" fill-opacity="0.2" fill-rule="evenodd"/><path class="svg-region-DB" d="M 1126 307.569 C 1115.044 310.175, 1111.470 311.312, 1109.851 312.707 C 1105.644 316.331, 1078.035 320.602, 1065.428 319.580 L 1057.356 318.925 1055.516 322.341 C 1054.126 324.922, 1051.697 326.758, 1045.588 329.847 C 1032.391 336.519, 1029.114 336.757, 987.500 334.068 C 976.467 333.355, 967.242 332.278, 965.500 331.501 C 958.700 328.465, 932.672 327.974, 893 330.133 C 880.553 330.810, 865 330.888, 850 330.347 C 822.553 329.358, 818.931 329.485, 813.285 331.638 C 810.052 332.870, 805.275 333.251, 792.785 333.273 C 769.261 333.313, 754.617 331.814, 750.500 328.942 C 749.950 328.559, 748.443 327.920, 747.150 327.523 C 745.858 327.127, 742.348 324.368, 739.349 321.393 C 734.566 316.649, 733.642 316.121, 731.821 317.096 C 730.680 317.707, 726.315 318.422, 722.123 318.684 C 714.619 319.155, 683.082 317.598, 675.744 316.395 C 673.678 316.057, 670.448 316.069, 668.566 316.422 C 665.791 316.942, 665.020 317.632, 664.484 320.073 C 664.080 321.912, 662.539 323.943, 660.524 325.291 C 658.710 326.506, 655.625 328.772, 653.668 330.326 C 651.467 332.076, 647.710 333.659, 643.806 334.484 C 632.936 336.778, 626.067 339.843, 623.928 343.350 C 618.070 352.958, 626.640 370.103, 639.755 375.010 C 647.160 377.780, 650.363 377.523, 656.869 373.635 C 664.241 369.230, 677.886 365.384, 691.189 363.960 L 701.877 362.817 705.399 365.627 C 707.335 367.172, 709.707 369.898, 710.669 371.685 C 711.970 374.099, 712.942 374.815, 714.459 374.473 C 728.905 371.217, 736.251 370.028, 745.500 369.451 C 751.550 369.073, 761.225 367.894, 767 366.829 C 790.043 362.583, 800.220 361.087, 816.500 359.556 C 825.850 358.676, 836.875 357.514, 841 356.972 C 845.125 356.430, 850.784 355.990, 853.575 355.993 C 856.484 355.997, 861.818 354.891, 866.075 353.401 C 872.380 351.194, 876.139 350.673, 891 349.942 C 912.235 348.897, 953.227 348.699, 973 349.545 C 987.398 350.162, 999.150 351.565, 1014.500 354.502 C 1018.900 355.343, 1025.425 356.489, 1029 357.048 C 1032.575 357.607, 1040.450 359.048, 1046.500 360.251 C 1055.598 362.060, 1062.513 362.548, 1086.500 363.076 C 1102.450 363.427, 1116.454 364.041, 1117.621 364.440 C 1119.422 365.056, 1120.069 364.489, 1121.916 360.673 C 1125.047 354.206, 1128.019 353.301, 1146.796 353.097 C 1167.893 352.868, 1174.534 351.497, 1178.854 346.479 C 1184.374 340.068, 1185.133 332.982, 1180.879 327.574 C 1178.519 324.573, 1172.074 321, 1169.021 321 C 1167.091 321, 1157.151 316.200, 1154.466 313.972 C 1152.414 312.268, 1135.638 305.992, 1133.507 306.130 C 1132.403 306.202, 1129.025 306.849, 1126 307.569" stroke="#e8b1e4" fill="#e8b1e4" fill-opacity="0.2" fill-rule="evenodd"/><path class="svg-region-MB" d="M 913 349.094 C 878.773 350.034, 874.971 350.387, 866.075 353.446 C 861.444 355.039, 856.464 356, 852.843 356 C 849.650 356, 843.991 356.449, 840.269 356.998 C 836.546 357.547, 825.850 358.690, 816.500 359.538 C 798.338 361.184, 794.790 361.695, 771.500 366.013 C 763.250 367.543, 751.775 369.079, 746 369.428 C 737.832 369.921, 715.011 373.535, 713.173 374.626 C 712.993 374.733, 713.512 377.448, 714.325 380.660 C 716.802 390.437, 717.964 398.099, 718.636 409.079 C 719.262 419.314, 719.216 419.637, 716.726 422.533 L 714.175 425.500 697.860 425.750 C 685.931 425.932, 679.972 425.596, 675.692 424.500 C 672.473 423.675, 668.030 423, 665.820 423 C 661.594 423, 650.680 417.213, 649.600 414.400 C 649.219 413.408, 647.254 413, 642.851 413 C 636.749 413, 636.563 413.082, 632.320 417.639 C 628.867 421.346, 628.003 423.003, 628.015 425.889 C 628.024 427.875, 628.375 430.042, 628.796 430.703 C 629.990 432.583, 638.322 437.962, 640.070 437.982 C 640.934 437.992, 643.409 439.512, 645.570 441.360 C 647.732 443.207, 651.750 445.855, 654.500 447.243 C 658.628 449.326, 660.445 449.674, 664.916 449.240 C 672.230 448.529, 692.328 450.770, 698.500 452.985 C 701.250 453.971, 707.775 456.141, 713 457.807 C 743.506 467.530, 750 471.916, 750 482.793 C 750 484.924, 750.274 486.941, 750.610 487.277 C 750.945 487.612, 752.961 486.787, 755.090 485.443 C 757.219 484.099, 759.982 483.004, 761.230 483.008 C 763.473 483.016, 791.878 492.499, 797.302 495.050 C 800.049 496.343, 800.257 496.213, 807.897 488.434 C 812.183 484.070, 820.412 474.847, 826.183 467.938 C 835.998 456.188, 836.718 455.026, 837.318 449.961 C 837.671 446.983, 838.809 443.397, 839.848 441.992 C 840.886 440.588, 842.752 437.427, 843.995 434.969 C 845.237 432.511, 848.672 427.731, 851.627 424.346 C 854.582 420.962, 857 417.784, 857 417.284 C 857 416.784, 852.163 416.383, 846.250 416.393 C 834.546 416.413, 823 415.189, 823 413.928 C 823 413.492, 823.936 412.838, 825.080 412.475 C 826.224 412.111, 829.361 409.625, 832.051 406.949 C 838.198 400.835, 840.496 399.397, 845.500 398.536 C 854.373 397.009, 869.748 390.699, 880.500 384.174 C 883.854 382.138, 894.061 378.971, 902.500 377.347 C 911.057 375.700, 935.005 376.038, 942 377.903 C 943.925 378.416, 949.855 379.138, 955.178 379.506 L 964.856 380.176 966.430 383.494 C 967.479 385.704, 969.888 387.875, 973.646 389.996 C 979.301 393.187, 992.904 398, 996.269 398 C 998.948 398, 999.530 400.805, 997.262 402.780 C 996.175 403.726, 994.985 405.400, 994.618 406.500 C 994.250 407.600, 992.903 409.258, 991.624 410.184 C 989.560 411.679, 988.989 411.707, 986.535 410.434 C 982.360 408.268, 982.044 408.574, 982.704 414.150 C 983.199 418.327, 984.004 419.980, 986.966 422.900 C 988.975 424.880, 991.939 428.525, 993.554 431 C 995.169 433.475, 998.107 437.586, 1000.083 440.134 C 1002.059 442.683, 1004.257 446.846, 1004.968 449.384 C 1005.678 451.923, 1006.684 454, 1007.201 454 C 1007.719 454, 1008.742 454.563, 1009.474 455.250 C 1010.207 455.938, 1012.875 458.226, 1015.403 460.337 C 1017.931 462.447, 1020 464.745, 1020 465.444 C 1020 466.143, 1024.162 470.753, 1029.250 475.689 C 1034.338 480.625, 1039.175 485.681, 1040 486.925 C 1040.825 488.168, 1042.410 490.264, 1043.521 491.581 L 1045.542 493.975 1048.021 490.873 C 1054.936 482.218, 1063.564 476.861, 1073.544 475.024 C 1077.370 474.320, 1082.017 473.127, 1083.872 472.372 C 1085.727 471.617, 1089.394 471, 1092.022 471 C 1096.545 471, 1097.071 470.703, 1101.900 465.419 C 1104.705 462.350, 1107 459.386, 1107 458.833 C 1107 456.974, 1119.459 444.815, 1123.462 442.769 C 1125.641 441.655, 1130.591 439.404, 1134.462 437.767 C 1138.333 436.129, 1144.068 433.702, 1147.206 432.373 C 1150.344 431.044, 1156.090 429.557, 1159.974 429.069 C 1163.859 428.582, 1168.843 427.242, 1171.049 426.091 C 1173.256 424.941, 1175.835 423.993, 1176.781 423.985 C 1183.629 423.925, 1194.215 416.012, 1198.557 407.709 C 1200.712 403.587, 1201.043 401.949, 1200.507 398.052 C 1200.152 395.471, 1198.831 392.066, 1197.571 390.486 C 1195.548 387.950, 1194.503 387.563, 1188.660 387.191 C 1177.556 386.484, 1175.539 387.254, 1171.355 393.795 C 1165.094 403.582, 1155.638 410.712, 1145.500 413.291 C 1143.300 413.850, 1135.316 414.487, 1127.757 414.707 C 1114.177 415.101, 1113.985 415.076, 1111.507 412.598 C 1109.232 410.323, 1109.001 409.322, 1109.008 401.795 C 1109.016 393.135, 1110.468 387.129, 1115.486 375 C 1116.965 371.425, 1118.586 368.072, 1119.088 367.550 C 1122.217 364.292, 1118.433 363.767, 1086.500 363.033 C 1062.803 362.488, 1055.671 361.984, 1047.500 360.277 C 1042 359.127, 1034.125 357.698, 1030 357.100 C 1025.875 356.503, 1018.900 355.325, 1014.500 354.483 C 996.721 351.079, 986.262 350.011, 965.379 349.463 C 953.345 349.148, 942.600 348.772, 941.500 348.628 C 940.400 348.484, 927.575 348.694, 913 349.094" stroke="#f9c6c6" fill="#f9c6c6" fill-opacity="0.2" fill-rule="evenodd"/><path class="svg-region-LBl" d="M 686.500 364.499 C 681 365.186, 674.475 366.473, 672 367.359 C 669.525 368.246, 666.825 368.983, 666 368.997 C 665.175 369.011, 661.163 371.008, 657.083 373.435 C 649.931 377.691, 649.602 378.056, 647.848 383.674 C 645.321 391.770, 645.411 403.350, 648.056 410.421 C 649.834 415.172, 650.879 416.395, 655.775 419.458 C 659.941 422.064, 662.556 423, 665.670 423 C 667.998 423, 672.512 423.716, 675.701 424.591 C 678.891 425.466, 682.175 426.163, 683 426.139 C 683.825 426.115, 690.760 426.048, 698.412 425.990 C 719.021 425.833, 719.902 424.990, 718.589 406.683 C 717.140 386.479, 713.204 373.098, 706.696 366.250 C 703.180 362.550, 702.543 362.495, 686.500 364.499" stroke="#79495c" fill="#79495c" fill-opacity="0.2" fill-rule="evenodd"/><path class="svg-region-LBr" d="M 1127.371 354.947 C 1123.147 356.840, 1123.086 356.939, 1116.971 371.500 C 1110.047 387.988, 1109.051 391.698, 1109.025 401.115 C 1109.004 408.340, 1109.334 410.155, 1111.073 412.365 C 1113.120 414.968, 1113.302 415, 1126.024 415 C 1139.793 415, 1146.469 413.789, 1154 409.926 C 1163.067 405.275, 1169.901 397.838, 1175.524 386.500 C 1178.173 381.160, 1178.500 379.491, 1178.500 371.333 C 1178.500 363.118, 1178.259 361.909, 1176.176 359.690 C 1174.898 358.328, 1171.223 356.255, 1168.009 355.084 C 1162.911 353.225, 1160.191 352.969, 1146.704 353.082 C 1134.388 353.186, 1130.455 353.565, 1127.371 354.947" stroke="#79495c" fill="#79495c" fill-opacity="0.2" fill-rule="evenodd"/><path class="svg-region-PP" d="M 990.500 451.015 C 985.617 451.986, 974.723 455.541, 970.094 457.673 C 968.221 458.536, 962.371 460.776, 957.094 462.651 C 951.817 464.526, 946.995 466.729, 946.378 467.546 C 945.761 468.363, 942.836 469.736, 939.878 470.597 C 936.920 471.458, 932.824 473.304, 930.776 474.699 C 927.530 476.910, 926.246 477.182, 920.776 476.815 C 917.324 476.583, 909.775 474.916, 904 473.110 C 898.225 471.304, 888.550 468.305, 882.500 466.446 C 876.450 464.587, 865.614 461.234, 858.420 458.994 C 839.640 453.148, 838.465 453.448, 827.043 467.017 C 820.043 475.333, 818.726 476.796, 809.159 486.882 L 801.210 495.263 804.104 501.382 C 805.696 504.747, 806.999 508.106, 806.999 508.846 C 807 509.586, 807.648 511.386, 808.440 512.846 C 809.232 514.306, 810.133 517.075, 810.442 519 C 810.752 520.925, 812.579 525.624, 814.502 529.443 C 816.426 533.261, 818 536.974, 818 537.693 C 818 538.488, 819.214 539, 821.099 539 C 825.280 539, 830.636 541.671, 832.879 544.873 C 835.178 548.157, 837.402 555.327, 839.066 564.824 C 840.118 570.831, 840.113 572.800, 839.036 575.777 C 838.021 578.584, 837.998 579.499, 838.933 579.811 C 839.599 580.033, 842.698 581.558, 845.822 583.200 C 848.945 584.842, 853.166 587.044, 855.202 588.093 C 865.540 593.420, 879.548 594.960, 917.859 594.983 C 945.747 594.999, 947.727 594.876, 957.359 592.521 C 962.937 591.158, 969.750 588.922, 972.500 587.552 C 975.250 586.183, 978.087 585.048, 978.805 585.031 C 979.523 585.014, 982.683 583.313, 985.829 581.250 C 995.499 574.909, 1000.047 572.391, 1004.241 571.055 C 1005.728 570.581, 1006.046 568.815, 1006.419 558.973 C 1006.903 546.205, 1008.265 541.084, 1013.034 534.096 C 1016.250 529.382, 1021.741 525, 1024.431 525 C 1025.234 525, 1026.478 523.910, 1027.195 522.579 C 1028.688 519.809, 1032.741 511.645, 1034.375 508.119 C 1034.981 506.810, 1037.101 503.885, 1039.084 501.619 C 1044.591 495.329, 1045.269 493.624, 1043.221 491.213 C 1042.275 490.098, 1040.828 488.132, 1040.007 486.843 C 1039.186 485.554, 1034.644 480.675, 1029.914 476 C 1025.183 471.325, 1020.774 466.482, 1020.114 465.237 C 1019.455 463.993, 1015.922 460.505, 1012.264 457.487 C 1007.224 453.331, 1004.824 452, 1002.364 452 C 1000.579 452, 998.840 451.550, 998.500 451 C 997.802 449.870, 996.241 449.873, 990.500 451.015" stroke="#c4743d" fill="#c4743d" fill-opacity="0.2" fill-rule="evenodd"/><path class="svg-region-LPl" d="M 754.562 485.436 C 752.395 486.792, 750.049 488.936, 749.347 490.201 C 747.584 493.378, 747.707 502.501, 749.595 508.500 C 750.460 511.250, 751.567 519.575, 752.055 527 C 752.542 534.425, 753.214 544.325, 753.548 549 C 754.147 557.376, 755.529 563, 756.988 563 C 757.398 563, 758.653 565.213, 759.777 567.918 C 760.956 570.755, 763.023 573.608, 764.661 574.659 C 769.131 577.527, 776.437 583.142, 777.138 584.249 C 778.129 585.813, 779.834 584.252, 782.129 579.682 C 786.188 571.597, 788.585 569.255, 793.982 568.097 C 796.739 567.506, 800.523 566.020, 802.392 564.795 C 805.475 562.774, 805.829 562.043, 806.199 556.927 C 806.521 552.472, 807.341 550.259, 810.101 546.393 C 812.022 543.702, 814.612 541.050, 815.857 540.500 C 817.786 539.647, 818.029 538.985, 817.506 536 C 817.168 534.075, 816.061 531.341, 815.045 529.924 C 813.175 527.317, 810 518.979, 810 516.677 C 810 515.681, 806.800 507.586, 802.380 497.403 C 802.118 496.800, 800.463 495.819, 798.702 495.224 C 796.941 494.629, 788.975 491.804, 781 488.947 C 763.167 482.559, 759.858 482.119, 754.562 485.436" stroke="#d2454f" fill="#d2454f" fill-opacity="0.2" fill-rule="evenodd"/><path class="svg-region-LPr" d="M 1083.500 472.382 C 1081.850 473.099, 1077.370 474.275, 1073.544 474.995 C 1066.374 476.345, 1057.649 480.746, 1053 485.358 C 1047.508 490.807, 1035.656 505.315, 1034.316 508.229 C 1031.488 514.379, 1028.805 519.673, 1027.717 521.250 C 1026.769 522.625, 1026.783 523.375, 1027.784 524.750 C 1028.484 525.713, 1029.832 527.792, 1030.779 529.371 C 1031.725 530.951, 1034.412 534.890, 1036.750 538.124 C 1039.088 541.359, 1041 544.599, 1041 545.324 C 1041 546.049, 1040.156 548.378, 1039.124 550.499 C 1037.257 554.337, 1037.259 554.367, 1039.443 556.722 C 1041.326 558.753, 1042.026 558.941, 1044.384 558.044 C 1051.159 555.468, 1065.581 558.406, 1067.487 562.750 C 1069.156 566.554, 1072.406 565.487, 1079.570 558.786 C 1088.292 550.627, 1092.981 543.308, 1093.060 537.731 C 1093.092 535.404, 1093.469 531.376, 1093.897 528.779 C 1094.324 526.182, 1094.352 523.932, 1093.959 523.779 C 1092.598 523.248, 1088 515.714, 1088 514.015 C 1088 513.077, 1087.100 511.495, 1086 510.500 C 1083.046 507.826, 1083.256 499.595, 1086.425 493.876 C 1087.758 491.469, 1089.158 487.700, 1089.536 485.500 C 1089.914 483.300, 1091.298 479.620, 1092.612 477.322 C 1093.925 475.024, 1095 472.661, 1095 472.072 C 1095 470.583, 1087.153 470.795, 1083.500 472.382" stroke="#d2454f" fill="#d2454f" fill-opacity="0.2" fill-rule="evenodd"/><path class="svg-region-DMl" d="M 659.500 450.397 C 654.583 452.297, 649.617 455.131, 647.711 457.127 C 646.727 458.157, 646.145 459, 646.417 459 C 646.689 459, 646.250 460.875, 645.441 463.167 C 644.633 465.458, 644.267 468.271, 644.629 469.417 C 645.347 471.693, 651.739 480.014, 653.762 481.306 C 654.456 481.750, 656.187 484.409, 657.610 487.217 C 660.757 493.427, 668.354 501.025, 674.290 503.898 C 676.703 505.067, 680.878 508.043, 683.567 510.511 C 686.256 512.980, 688.845 515, 689.319 515 C 689.794 515, 692.748 516.800, 695.884 519 C 699.021 521.200, 702.091 523, 702.708 523 C 703.366 523, 704.025 520.419, 704.302 516.750 C 704.563 513.313, 705.099 509.287, 705.494 507.804 C 706.020 505.830, 705.648 504.314, 704.106 502.149 C 702.948 500.522, 702 498.327, 702 497.270 C 702 494.050, 706.161 491.001, 710.564 490.994 C 712.729 490.990, 715.789 490.315, 717.364 489.494 C 719.197 488.538, 723.062 488, 728.095 488 C 736.602 488, 736.195 487.715, 737.211 494.403 C 737.370 495.449, 739.750 497.859, 742.500 499.757 L 747.500 503.208 748.283 496.854 C 750.189 481.373, 750.208 479.306, 748.475 475.861 C 746.500 471.936, 744.027 469.757, 738.500 467.071 C 733.932 464.852, 714.720 457.906, 708 456.044 C 705.525 455.358, 701.475 453.988, 699 452.999 C 690.474 449.591, 665.795 447.966, 659.500 450.397 M 749.186 538.962 C 745.932 543.363, 740.301 544.595, 733.384 542.420 C 727.323 540.513, 725.254 541.046, 729.730 543.360 C 731.334 544.190, 733.268 545.618, 734.029 546.536 C 734.791 547.453, 737.908 549.779, 740.957 551.706 C 744.005 553.633, 747.956 556.594, 749.735 558.286 C 754.672 562.982, 754.825 562.369, 753.390 543.750 C 753.061 539.487, 752.473 536, 752.084 536 C 751.695 536, 750.391 537.333, 749.186 538.962" stroke="#68533d" fill="#68533d" fill-opacity="0.2" fill-rule="evenodd"/><path class="svg-region-DMr" d="M 1170.805 426.040 C 1168.772 427.113, 1164.047 428.434, 1160.305 428.975 C 1156.562 429.516, 1152.150 430.383, 1150.500 430.903 C 1146.989 432.008, 1129.291 439.768, 1123.500 442.741 C 1119.393 444.849, 1107 456.983, 1107 458.895 C 1107 459.482, 1104.137 463.008, 1100.639 466.731 C 1093.928 473.872, 1091.188 478.269, 1089.898 483.964 L 1089.114 487.428 1091.801 483.964 C 1095.330 479.416, 1100.016 475.130, 1102.228 474.427 C 1103.203 474.118, 1104 473.446, 1104 472.933 C 1104 472.420, 1104.906 472, 1106.014 472 C 1107.121 472, 1108.809 471.589, 1109.764 471.086 C 1123.117 464.055, 1136.924 464.136, 1144.750 471.291 C 1146.729 473.101, 1146.999 474.321, 1146.994 481.424 C 1146.990 486.483, 1146.452 490.527, 1145.553 492.250 C 1144.228 494.790, 1144.264 495, 1146.024 495 C 1147.072 495, 1149.858 493.930, 1152.215 492.623 C 1154.572 491.315, 1160.550 488.125, 1165.500 485.533 C 1170.450 482.941, 1175.400 480.018, 1176.500 479.037 C 1177.600 478.056, 1181.266 475.389, 1184.646 473.110 C 1192.269 467.971, 1192.826 466.363, 1193.676 447.072 C 1194.227 434.577, 1192.623 428.960, 1187.635 425.919 C 1183.504 423.400, 1175.697 423.456, 1170.805 426.040 M 1094.595 524.846 C 1094.308 525.311, 1093.758 529.467, 1093.373 534.080 L 1092.673 542.469 1097.587 537.433 C 1100.289 534.663, 1103.963 531.536, 1105.750 530.483 C 1110.060 527.944, 1109.849 527, 1104.969 527 C 1102.308 527, 1100.742 526.490, 1100.362 525.500 C 1099.750 523.907, 1095.475 523.422, 1094.595 524.846" stroke="#68533d" fill="#68533d" fill-opacity="0.2" fill-rule="evenodd"/><path class="svg-region-VMl" d="M 790.500 568.891 C 787.686 570.119, 785.740 572.579, 781.992 579.641 L 778.734 585.782 782.870 591.641 C 785.145 594.864, 787.931 598.625, 789.063 600 C 790.194 601.375, 793.777 606.100, 797.025 610.500 C 802.746 618.250, 804.450 620.208, 817.691 634.247 L 823.883 640.811 832.191 641.485 C 841.238 642.218, 848.458 641.068, 853.468 638.094 C 855.136 637.104, 859.875 635.285, 864 634.052 C 875.648 630.571, 882.044 627.631, 885.156 624.328 C 886.817 622.565, 887.075 621.404, 886.528 618.167 C 885.560 612.434, 884.254 611.470, 864 601.528 C 859.875 599.503, 855.306 597.206, 853.846 596.423 C 852.386 595.640, 850.721 595, 850.146 595 C 848.901 595, 840.537 589.589, 837 586.496 C 833.788 583.687, 825.192 579, 823.253 579 C 822.431 579, 817.707 576.662, 812.756 573.805 C 805.298 569.500, 802.790 568.559, 798.127 568.314 C 795.032 568.152, 791.600 568.411, 790.500 568.891" stroke="#e59376" fill="#e59376" fill-opacity="0.2" fill-rule="evenodd"/><path class="svg-region-VMr" d="M 1042.500 558.411 C 1036.760 560.060, 1029.312 564.350, 1023.213 569.519 C 1020.233 572.044, 1016.904 574, 1015.585 574 C 1014.298 574, 1012.685 574.675, 1012 575.500 C 1011.315 576.325, 1010.309 577, 1009.765 577 C 1008.783 577, 1005.838 579.211, 997.715 586.047 C 995.397 587.998, 990.727 591.040, 987.338 592.808 C 981.877 595.658, 973.742 600.983, 960.288 610.516 C 953.182 615.551, 954.979 620.006, 965.939 624.528 C 970.908 626.578, 975.131 627.392, 984.439 628.093 C 1007.534 629.831, 1019.640 630.281, 1024.347 629.575 C 1030.037 628.722, 1035.263 624.537, 1038.076 618.581 C 1039.136 616.337, 1041.781 612.250, 1043.955 609.500 C 1047.843 604.580, 1049.983 600.876, 1058.692 584 C 1064.119 573.484, 1065.467 571.133, 1066.884 569.716 C 1067.498 569.102, 1068 566.966, 1068 564.969 C 1068 562.203, 1067.464 561.071, 1065.750 560.216 C 1059.296 556.998, 1049.943 556.272, 1042.500 558.411" stroke="#e59376" fill="#e59376" fill-opacity="0.2" fill-rule="evenodd"/><path class="svg-region-Ol" d="M 439 348.119 C 428.867 349.486, 426.648 350.282, 408.427 359.095 C 403.987 361.243, 399.892 363, 399.327 363 C 398.763 363, 396.321 364.342, 393.900 365.982 C 391.480 367.622, 389 368.972, 388.389 368.982 C 387.219 369.001, 372.376 378.517, 370.277 380.594 C 369.604 381.259, 367.453 382.793, 365.497 384.002 C 363.540 385.211, 360.254 387.714, 358.193 389.564 C 351.585 395.496, 339 407.815, 339 408.351 C 339 408.636, 336.616 411.261, 333.702 414.185 C 324.683 423.235, 314.414 440.278, 304.074 463.362 C 302.383 467.137, 301 470.653, 301 471.176 C 301 471.700, 299.828 474.687, 298.396 477.814 C 294.539 486.236, 290.875 496.095, 290.337 499.500 C 290.077 501.150, 289.475 503.400, 289 504.500 C 287.699 507.513, 285.050 522.075, 283.452 535 C 281.390 551.676, 281.422 591.752, 283.504 599 C 284.372 602.025, 285.250 605.217, 285.454 606.094 C 286.160 609.128, 293.324 623.525, 297.154 629.608 C 299.269 632.967, 301 636.075, 301 636.514 C 301 636.952, 302.056 638.704, 303.346 640.406 C 304.636 642.108, 306.392 645.075, 307.248 647 C 309.607 652.304, 314.917 663.888, 317.563 669.500 C 321.863 678.623, 333.522 695.388, 341.249 703.560 C 350.412 713.249, 360.532 720.385, 372 725.244 C 382.176 729.555, 385.826 730.585, 401.500 733.568 C 408.100 734.824, 415.525 736.368, 418 736.998 C 420.475 737.628, 427.675 738.559, 434 739.067 C 440.325 739.576, 449.325 740.414, 454 740.931 C 478.779 743.671, 505.419 743.028, 535.500 738.964 C 539.900 738.369, 549.350 737.225, 556.500 736.421 C 563.650 735.617, 572.200 734.507, 575.500 733.955 C 578.800 733.402, 585.325 732.542, 590 732.042 C 602.584 730.697, 612.447 729.161, 615.190 728.118 C 616.525 727.610, 621.191 726.679, 625.559 726.048 C 629.927 725.417, 635.750 724.070, 638.500 723.055 C 641.250 722.040, 646.650 720.201, 650.500 718.968 C 657.829 716.621, 677.656 706.906, 681.982 703.542 C 690.068 697.255, 700.950 684.675, 705.078 676.843 C 715.198 657.646, 715.464 656.789, 715.440 643.500 C 715.424 635.009, 714.741 628.138, 713.103 620 C 710.735 608.237, 706.331 593.984, 704.725 592.888 C 704.232 592.552, 703.912 591.877, 704.014 591.388 C 704.451 589.292, 701.586 580.055, 700.352 579.582 C 699.609 579.296, 699 577.789, 699 576.231 C 699 574.674, 698.569 572.969, 698.042 572.442 C 697.515 571.915, 696.848 569.606, 696.560 567.311 C 695.668 560.209, 688.089 538.791, 686.015 537.509 C 685.457 537.164, 685 536.045, 685 535.022 C 685 533.999, 684.373 531.888, 683.606 530.331 C 682.839 528.774, 681.217 525.250, 680.002 522.500 C 677.023 515.764, 668.190 504.143, 659.030 494.911 C 647.154 482.942, 631.712 468.817, 626.382 465.048 C 623.697 463.149, 619.475 459.679, 617 457.337 C 609.350 450.098, 597.711 440.018, 593.149 436.682 C 587.215 432.342, 570 417.023, 570 416.082 C 570 414.759, 547.293 392.215, 543.311 389.585 C 541.215 388.200, 535.900 384.545, 531.500 381.462 C 527.100 378.379, 522.600 375.422, 521.500 374.891 C 520.400 374.359, 516.800 372.149, 513.500 369.979 C 510.200 367.809, 504.575 364.617, 501 362.884 C 497.425 361.152, 491.800 358.406, 488.500 356.782 C 473.371 349.338, 454.479 346.031, 439 348.119" stroke="#aa444d" fill="#aa444d" fill-opacity="0.2" fill-rule="evenodd"/><path class="svg-region-Or" d="M 1400 313.981 C 1396.975 314.450, 1392.250 315.100, 1389.500 315.428 C 1385.085 315.954, 1382.668 316.424, 1374.500 318.348 C 1357.235 322.414, 1336.643 330.881, 1328.607 337.218 C 1319.584 344.334, 1316.398 347.197, 1305.318 358.150 C 1298.618 364.774, 1292.373 371.837, 1291.440 373.846 C 1290.507 375.856, 1287.974 380.124, 1285.809 383.330 C 1283.645 386.537, 1279.380 393.962, 1276.330 399.830 C 1273.281 405.699, 1269.157 412.525, 1267.168 415 C 1262.791 420.443, 1242.959 440, 1241.815 440 C 1241.367 440, 1241 440.457, 1241 441.017 C 1241 442.181, 1230.840 453.272, 1223.633 459.974 C 1220.957 462.463, 1213.979 469.225, 1208.128 475 C 1197.788 485.206, 1197.387 485.768, 1193.827 495.077 L 1190.164 504.654 1190.177 522.577 C 1190.184 532.435, 1190.207 543.650, 1190.228 547.500 C 1190.262 553.891, 1188.395 565.053, 1186.882 567.500 C 1186.075 568.805, 1184.287 577.175, 1183.464 583.500 C 1183.106 586.250, 1182.374 589.034, 1181.837 589.686 C 1180.423 591.405, 1178.972 608.614, 1179.082 622.354 C 1179.213 638.770, 1182.810 648.925, 1195.251 668 C 1200.617 676.228, 1213.579 690.367, 1219.194 694.118 C 1238.566 707.058, 1240.700 708.270, 1254.500 714.170 C 1263.181 717.882, 1266.751 718.894, 1275 719.985 C 1278.575 720.457, 1283.727 721.332, 1286.450 721.929 C 1292.726 723.305, 1299.020 723.874, 1343 727.045 C 1359.939 728.266, 1364.700 728.767, 1371.500 730.044 C 1384.076 732.406, 1433.790 732.998, 1444 730.907 C 1450.537 729.568, 1465.144 724.938, 1470.611 722.471 C 1508.809 705.237, 1524.479 695.957, 1534.910 684.390 C 1537.336 681.701, 1541.851 676.800, 1544.943 673.500 C 1552.827 665.085, 1556.276 660.426, 1559.784 653.450 C 1562.889 647.277, 1568.741 632.704, 1571.008 625.500 C 1571.701 623.300, 1572.897 620.256, 1573.666 618.736 C 1574.436 617.216, 1575.453 614.066, 1575.926 611.736 C 1576.399 609.406, 1577.991 602.100, 1579.463 595.500 C 1582.004 584.109, 1582.120 582.409, 1581.758 562 C 1581.413 542.604, 1581.068 539.032, 1578.230 525.500 C 1574.818 509.229, 1572.228 500.615, 1565.882 484.437 C 1561.348 472.878, 1548.105 446.213, 1544.558 441.500 C 1543.316 439.850, 1540.611 435.365, 1538.546 431.533 C 1536.482 427.701, 1533.909 423.426, 1532.829 422.033 C 1531.749 420.640, 1528.448 415.675, 1525.494 411 C 1518.796 400.398, 1510.885 388.724, 1504.944 380.674 C 1494.410 366.401, 1491.478 362.473, 1491 362 C 1490.723 361.725, 1487.278 357.675, 1483.345 353 C 1476.475 344.835, 1464.139 332.843, 1458.969 329.306 C 1457.611 328.376, 1456.275 327.365, 1456 327.058 C 1455.725 326.751, 1454.375 325.863, 1453 325.084 C 1436.884 315.957, 1415.790 311.538, 1400 313.981" stroke="#aa444d" fill="#aa444d" fill-opacity="0.2" fill-rule="evenodd"/><path class="svg-region-VOC" d="M 900.500 377.449 C 894.106 378.740, 882.218 382.684, 880.413 384.114 C 874.514 388.785, 853.130 397.398, 844.303 398.658 C 840.901 399.144, 838.866 400.450, 833.548 405.563 C 829.940 409.031, 826.091 412.154, 824.994 412.502 C 818.773 414.476, 829.358 416.430, 846 416.379 C 857.694 416.344, 860.805 415.279, 870.614 407.958 C 876.350 403.677, 878.909 402.484, 894.283 396.931 C 907.878 392.020, 918.414 391.074, 934.334 393.335 C 948.185 395.301, 959.294 400.445, 966.777 408.358 C 972.682 414.601, 975.400 416.490, 979.907 417.480 L 983.285 418.222 982.765 413.611 C 982.196 408.556, 982.470 408.325, 986.535 410.434 C 988.989 411.707, 989.560 411.679, 991.624 410.184 C 992.903 409.258, 994.191 407.792, 994.486 406.926 C 994.781 406.061, 995.957 404.350, 997.099 403.125 C 999.423 400.630, 998.997 398, 996.269 398 C 993.047 398, 979.630 393.241, 973.765 390.018 C 969.889 387.888, 967.525 385.802, 966.472 383.582 L 964.913 380.298 953.207 379.099 C 946.768 378.440, 938.350 377.496, 934.500 377.002 C 924.868 375.765, 907.728 375.990, 900.500 377.449" stroke="#ff8f93" fill="#ff8f93" fill-opacity="0.2" fill-rule="evenodd"/><path class="svg-region-BPCl" d="M 816.025 540.226 C 814.664 540.945, 811.852 543.966, 809.775 546.938 C 806.365 551.819, 806 552.960, 806 558.737 C 806 565.543, 806.894 568.079, 810.631 571.870 C 813.548 574.830, 821.270 579, 823.832 579 C 824.890 579, 826.315 579.675, 827 580.500 C 828.601 582.429, 830.894 582.398, 834.911 580.394 C 840.282 577.715, 840.722 574.797, 838.139 558.993 C 836.936 551.635, 833.435 544.446, 829.791 541.851 C 826.150 539.258, 819.369 538.458, 816.025 540.226" stroke="#83385f" fill="#83385f" fill-opacity="0.2" fill-rule="evenodd"/><path class="svg-region-BPCr" d="M 1019.500 527.016 C 1017.850 528.062, 1014.579 531.763, 1012.231 535.242 C 1008.440 540.859, 1007.853 542.516, 1006.988 550.034 C 1004.858 568.566, 1006 572.694, 1013.510 573.616 C 1018.937 574.281, 1022.150 572.086, 1030.739 561.843 C 1037.833 553.382, 1041 548.355, 1041 545.552 C 1041 544.702, 1039.088 541.325, 1036.750 538.050 C 1034.412 534.774, 1031.594 530.610, 1030.487 528.797 C 1028.058 524.818, 1024.005 524.161, 1019.500 527.016" stroke="#83385f" fill="#83385f" fill-opacity="0.2" fill-rule="evenodd"/><path class="svg-region-AMC" d="M 998.500 573.537 C 996.300 574.884, 993.825 576.292, 993 576.665 C 992.175 577.038, 988.937 579.067, 985.805 581.172 C 982.673 583.277, 979.616 585, 979.013 585 C 978.410 585, 975.123 586.288, 971.708 587.863 C 968.294 589.438, 961.126 591.735, 955.781 592.969 C 946.434 595.125, 944.726 595.192, 911.281 594.705 C 867.938 594.075, 864.436 593.446, 845.849 582.965 C 841.027 580.247, 835.459 579.374, 833.469 581.026 C 832.112 582.152, 832.381 582.692, 835.658 585.405 C 841.971 590.634, 848.425 595, 849.843 595 C 850.584 595, 852.386 595.645, 853.846 596.434 C 855.306 597.222, 859.425 599.290, 863 601.029 C 866.575 602.768, 870.210 604.823, 871.079 605.595 C 871.947 606.368, 873.171 607, 873.798 607 C 876.025 607, 883.154 611.305, 884.611 613.529 C 885.425 614.772, 886.342 617.332, 886.648 619.219 C 887.129 622.181, 886.772 623.014, 884.037 625.315 C 882.295 626.781, 881.102 628.355, 881.385 628.814 C 881.668 629.272, 883.835 630.268, 886.200 631.028 C 888.565 631.787, 892.816 633.591, 895.646 635.035 C 900.787 637.658, 900.809 637.661, 917.646 636.984 C 929.852 636.493, 935.568 635.850, 938.372 634.653 C 940.502 633.744, 943.202 632.998, 944.372 632.995 C 945.542 632.993, 950.720 630.998, 955.879 628.563 L 965.257 624.134 961.709 622.652 C 955.211 619.937, 954.200 614.682, 959.512 611.241 C 961.431 609.998, 963 608.536, 963 607.991 C 963 607.446, 963.628 607, 964.395 607 C 965.162 607, 969.175 604.571, 973.313 601.602 C 977.451 598.633, 983.686 594.717, 987.168 592.899 C 990.651 591.081, 995.359 587.998, 997.632 586.047 C 999.905 584.096, 1003.416 581.375, 1005.436 580 C 1007.455 578.625, 1010.073 576.771, 1011.253 575.879 L 1013.400 574.258 1010.249 572.629 C 1005.985 570.424, 1003.236 570.636, 998.500 573.537" stroke="#9d4741" fill="#9d4741" fill-opacity="0.2" fill-rule="evenodd"/><path class="svg-region-ODMl" d="M 717 489.583 C 715.625 490.346, 712.388 490.977, 709.807 490.985 C 706.100 490.997, 704.786 491.467, 703.557 493.223 C 701.441 496.243, 701.600 498.630, 704.156 502.219 C 706.032 504.854, 706.162 505.663, 705.156 508.445 C 704.520 510.203, 704 514.913, 704 518.911 C 704 527.054, 704.517 527.838, 713 532.547 C 715.475 533.920, 719.300 536.131, 721.500 537.460 C 723.700 538.788, 728.429 540.850, 732.009 542.041 C 740.245 544.781, 745.572 543.739, 749.473 538.624 C 751.744 535.647, 751.998 534.409, 751.977 526.406 C 751.964 521.278, 751.213 514.604, 750.207 510.674 C 748.551 504.204, 748.174 503.651, 742.980 500.077 C 739.966 498.003, 737.370 495.449, 737.211 494.403 C 736.190 487.677, 736.663 487.992, 727.731 488.098 C 722.756 488.157, 718.511 488.745, 717 489.583" stroke="#999999" fill="#999999" fill-opacity="0.2" fill-rule="evenodd"/><path class="svg-region-ODMr" d="M 1116 468.191 C 1113.525 469.327, 1110.719 470.650, 1109.764 471.129 C 1108.809 471.608, 1107.121 472, 1106.014 472 C 1104.906 472, 1104 472.450, 1104 473 C 1104 473.550, 1103.500 474, 1102.889 474 C 1102.278 474, 1099.594 475.828, 1096.925 478.063 C 1087.109 486.281, 1080.599 505.612, 1086 510.500 C 1087.100 511.495, 1088 513.293, 1088 514.494 C 1088 518.010, 1093.073 523.921, 1096.128 523.964 C 1097.573 523.984, 1099.315 524.675, 1100 525.500 C 1100.841 526.514, 1103.069 526.993, 1106.872 526.978 L 1112.500 526.957 1116.462 521.427 C 1120.602 515.649, 1130.285 506.225, 1138.856 499.633 C 1145.486 494.534, 1147 491.121, 1147 481.273 C 1147 472.580, 1146.155 471.080, 1139.300 467.617 C 1134.541 465.213, 1121.802 465.526, 1116 468.191" stroke="#999999" fill="#999999" fill-opacity="0.2" fill-rule="evenodd"/>
    </svg>