<svg xmlns="http://www.w3.org/2000/svg" width="1921" height="1027" viewBox="0 0 1921 1027" version="1.1">
    <path class="svg-region-V" d="M 772 183.604 C 771.175 183.808, 765.100 184.583, 758.500 185.326 C 748.078 186.499, 745.003 187.309, 735.111 191.490 C 728.848 194.138, 722.323 197.493, 720.611 198.946 C 718.900 200.399, 716.297 202.344, 714.826 203.267 C 713.355 204.191, 711.862 205.859, 711.508 206.973 C 711.155 208.088, 710.272 209, 709.547 209 C 706.560 209, 696.373 216.991, 694.018 221.181 C 692.686 223.552, 689.468 228.132, 686.868 231.358 C 684.268 234.585, 681.538 238.412, 680.801 239.863 C 678.810 243.784, 673.120 251.611, 667.744 257.826 C 661.200 265.392, 657.886 272.549, 657.248 280.494 C 656.715 287.140, 658.566 299, 660.137 299 C 660.611 299, 661 299.587, 661 300.305 C 661 301.022, 662.547 303.298, 664.438 305.363 C 666.329 307.427, 668.016 310.103, 668.188 311.308 C 668.433 313.029, 669.359 313.621, 672.500 314.061 C 674.700 314.370, 678.054 315.441, 679.953 316.442 C 682.357 317.709, 686.918 318.493, 694.953 319.022 C 703.991 319.616, 707.804 320.343, 712.500 322.367 C 717.894 324.692, 719.784 324.955, 731.220 324.976 C 741.845 324.996, 744.479 324.692, 747.220 323.127 C 754.429 319.012, 768.198 312.547, 771.500 311.728 C 772.600 311.454, 776.875 310.308, 781 309.179 C 785.125 308.051, 794.863 306.397, 802.640 305.505 C 815.525 304.026, 818.340 304.019, 834.359 305.418 C 851.787 306.940, 854.310 307.482, 874.500 314.035 C 885.095 317.474, 899.002 318.998, 919.808 318.999 C 935.575 319, 945.148 320.075, 955 322.949 C 973.841 328.446, 982.992 331.514, 987.500 333.843 C 992.284 336.316, 993.471 336.459, 1015 337.147 C 1027.375 337.543, 1041.325 338.171, 1046 338.543 C 1052.212 339.037, 1056.384 338.794, 1061.500 337.641 C 1070.526 335.606, 1085.253 330.588, 1091 327.589 C 1093.475 326.298, 1097.090 324.960, 1099.033 324.616 C 1100.976 324.272, 1104.819 322.305, 1107.572 320.245 C 1112.736 316.382, 1120.489 312.559, 1125.173 311.567 C 1128.266 310.912, 1134 306.391, 1134 304.608 C 1134 303.270, 1139.704 295.086, 1141.742 293.500 C 1142.449 292.950, 1143.468 289.800, 1144.008 286.500 C 1145.595 276.789, 1145.218 268.543, 1142.897 262.225 C 1141.741 259.076, 1140.561 255.477, 1140.276 254.227 C 1139.991 252.978, 1138.779 251.178, 1137.583 250.227 C 1133.401 246.907, 1122.749 233.463, 1120.866 229.127 C 1119.821 226.722, 1116.531 221.018, 1113.554 216.453 C 1108.677 208.970, 1107.372 207.702, 1100.322 203.594 C 1094.368 200.125, 1091.473 199.032, 1088.200 199.018 C 1085.836 199.008, 1082.686 198.388, 1081.200 197.639 C 1079.715 196.891, 1073.759 196.001, 1067.964 195.662 C 1062.169 195.323, 1056.094 194.622, 1054.464 194.105 C 1050.448 192.832, 998.004 191.985, 990.500 193.072 C 987.200 193.551, 979.775 194.410, 974 194.982 C 961.642 196.205, 946.299 200.905, 940.809 205.147 C 938.778 206.716, 936.681 208, 936.148 208 C 935.614 208, 934.042 209.350, 932.653 211 C 931.265 212.650, 929.632 214, 929.025 214 C 928.417 214, 926.156 214.900, 924 216 C 919.095 218.502, 915.692 218.497, 910.141 215.978 C 907.743 214.890, 904.420 214, 902.757 214 C 896.187 214, 891.971 211.776, 885.167 204.720 C 881.500 200.917, 875.575 196.101, 872 194.016 C 855.827 184.584, 860.698 185.599, 831 185.475 C 816.347 185.414, 801.371 184.851, 797.500 184.215 C 790.961 183.141, 775.375 182.767, 772 183.604" stroke="#dd8a8a" fill="#dd8a8a" fill-opacity="0.2" fill-rule="evenodd"/><path class="svg-region-SV" d="M 809 304.620 C 794.067 306.335, 787.509 307.404, 781 309.182 C 776.875 310.309, 772.600 311.448, 771.500 311.713 C 770.400 311.979, 767.025 313.303, 764 314.656 C 750.666 320.620, 745.076 323.569, 745.358 324.490 C 745.848 326.095, 753.038 327.840, 759.500 327.923 C 762.800 327.966, 769.027 328.675, 773.338 329.500 C 777.649 330.325, 785.299 331.001, 790.338 331.002 C 795.377 331.003, 805.800 331.673, 813.500 332.491 C 822.010 333.395, 837.499 333.986, 853 333.996 C 877.886 334.014, 878.680 334.077, 886 336.625 C 894.003 339.412, 898.238 340.515, 907 342.095 C 910.025 342.640, 916.325 344.015, 921 345.151 C 928.591 346.994, 932.707 347.220, 959.500 347.265 C 983.749 347.305, 990.746 347.008, 996 345.714 C 999.575 344.835, 1004.075 343.808, 1006 343.434 C 1007.925 343.060, 1011.750 341.572, 1014.500 340.127 L 1019.500 337.500 1006 336.960 C 994.680 336.507, 991.820 336.062, 988.288 334.209 C 982.593 331.220, 965.033 325.001, 962.288 325 C 961.071 325, 957.696 324.142, 954.788 323.094 C 947.066 320.310, 935.813 319, 919.633 319 C 897.004 319, 877.224 316.481, 872.500 312.998 C 871.950 312.593, 869.841 311.962, 867.813 311.597 C 865.786 311.232, 861.431 310.048, 858.137 308.967 C 849.754 306.215, 818.889 303.485, 809 304.620" stroke="#c666b5" fill="#c666b5" fill-opacity="0.2" fill-rule="evenodd"/><path class="svg-region-DB" d="M 1128.500 310.231 C 1125.200 311.367, 1120.700 312.906, 1118.500 313.652 C 1116.300 314.398, 1111.811 317.030, 1108.523 319.501 C 1105.236 321.972, 1100.961 324.282, 1099.023 324.634 C 1097.086 324.985, 1093.475 326.279, 1091 327.510 C 1088.525 328.740, 1083.125 330.889, 1079 332.285 C 1074.875 333.681, 1069.888 335.512, 1067.918 336.354 C 1062.736 338.571, 1051.555 339.202, 1035 338.212 L 1020.500 337.345 1014.413 340.198 C 1011.065 341.768, 1005.890 343.468, 1002.913 343.977 C 999.936 344.486, 995.925 345.420, 994 346.051 C 991.677 346.814, 980.244 347.204, 960 347.211 C 932.691 347.220, 928.611 347.007, 921 345.176 C 916.325 344.051, 909.800 342.608, 906.500 341.969 C 897.321 340.192, 894.131 339.350, 886.035 336.567 C 878.787 334.074, 877.830 334, 853.035 333.989 C 837.452 333.983, 822.044 333.399, 813.500 332.491 C 805.800 331.673, 795.377 331.003, 790.338 331.002 C 785.299 331.001, 777.649 330.325, 773.338 329.500 C 769.027 328.675, 763.025 327.984, 760 327.965 C 756.975 327.945, 751.800 327.277, 748.500 326.480 C 745.065 325.651, 737.370 325.010, 730.500 324.981 C 719.621 324.936, 717.799 324.654, 711 321.969 C 705.397 319.757, 701.856 319.008, 697 319.011 C 682.924 319.020, 672.384 322.154, 668.095 327.607 C 666.315 329.869, 666.001 331.642, 666.005 339.385 C 666.010 347.318, 666.330 349.019, 668.474 352.500 C 669.829 354.700, 670.952 357.331, 670.969 358.346 C 671.017 361.206, 673.973 365.553, 677.141 367.424 C 679.605 368.880, 681.687 369.022, 691.841 368.428 C 708.894 367.430, 712.279 368.858, 721.194 380.812 C 724.823 385.680, 725.407 386.070, 728.159 385.465 C 729.811 385.102, 733.488 384.437, 736.331 383.987 C 739.174 383.537, 744.650 381.949, 748.500 380.460 C 762.792 374.929, 768.687 373.233, 776 372.551 C 780.125 372.166, 785.975 371.230, 789 370.470 C 792.025 369.710, 800.350 368.885, 807.500 368.637 C 815.618 368.355, 822.566 367.554, 826 366.502 C 834.149 364.008, 844.934 363.168, 870 363.077 C 882.375 363.031, 899.250 362.358, 907.500 361.581 C 923.999 360.028, 972.760 360.314, 983.500 362.028 C 986.800 362.554, 998.725 363.008, 1010 363.036 C 1026.037 363.077, 1031.371 363.425, 1034.500 364.638 C 1042.269 367.650, 1046.605 368.815, 1056.489 370.549 C 1061.983 371.513, 1068.014 372.944, 1069.892 373.728 C 1071.770 374.513, 1075.600 375.554, 1078.403 376.041 C 1081.206 376.529, 1088.900 378.024, 1095.500 379.363 C 1116.319 383.588, 1114.790 383.545, 1116.769 379.954 C 1119.261 375.429, 1127.961 363.957, 1130.950 361.254 C 1132.353 359.986, 1135.300 358.009, 1137.500 356.861 C 1147.811 351.482, 1151.769 343.534, 1152.700 326.338 C 1153.249 316.204, 1151.748 312.697, 1145.684 309.943 C 1140.406 307.547, 1136.086 307.620, 1128.500 310.231" stroke="#e8b1e4" fill="#e8b1e4" fill-opacity="0.2" fill-rule="evenodd"/><path class="svg-region-MB" d="M 907 361.576 C 900.125 362.268, 883.700 362.903, 870.500 362.988 C 844.445 363.156, 834.497 363.934, 826 366.470 C 822.764 367.435, 814.118 368.445, 805 368.922 C 796.475 369.367, 788.375 370.187, 787 370.743 C 785.625 371.299, 780.675 372.087, 776 372.494 C 767.963 373.194, 765.354 373.955, 748 380.664 C 744.425 382.046, 740.150 383.392, 738.500 383.655 C 730.121 384.990, 724.923 386.234, 725.220 386.832 C 728.902 394.236, 730.751 398.850, 731.985 403.708 C 732.573 406.022, 733.539 408.215, 734.131 408.581 C 736.337 409.944, 738.957 417.630, 738.978 422.800 C 739.005 429.273, 736.994 433.435, 732.789 435.609 C 728.372 437.893, 713.548 437.063, 706.213 434.121 C 699.080 431.260, 698.652 431.397, 700.907 435.818 C 703.602 441.100, 710.073 446.673, 715.076 448.020 C 717.380 448.641, 719.993 449.512, 720.882 449.958 C 724.400 451.717, 731.548 454.564, 746 459.961 C 767.284 467.909, 775.940 475.304, 782.508 491.149 C 784.501 495.959, 787.895 502.622, 790.049 505.954 C 792.203 509.287, 794.225 513.023, 794.543 514.257 C 795.611 518.408, 797.755 520.218, 802.196 520.716 C 806.643 521.215, 817.824 519.576, 819.171 518.229 C 819.592 517.808, 820.874 513.423, 822.021 508.482 C 826.955 487.233, 833.829 470.004, 839.166 465.514 C 840.725 464.202, 842 462.660, 842 462.088 C 842 461.515, 843.106 460.321, 844.458 459.436 C 846.361 458.189, 846.796 457.225, 846.385 455.163 C 846.051 453.483, 846.776 450.515, 848.348 447.125 C 849.719 444.168, 850.645 441.238, 850.405 440.612 C 850.165 439.986, 852.113 435.215, 854.734 430.010 C 859.009 421.521, 860.428 419.732, 868.500 412.650 C 873.450 408.307, 877.725 404.247, 878 403.627 C 878.275 403.007, 879.350 401.246, 880.389 399.713 C 882.267 396.943, 882.264 396.910, 879.916 394.410 C 877.249 391.572, 877.694 390.983, 883.857 389.190 C 885.861 388.607, 891.325 386.956, 896 385.521 C 907.784 381.905, 916.559 381.021, 938 381.291 C 953.434 381.486, 957.204 381.830, 960.750 383.371 C 965.519 385.442, 966.059 386.517, 962.750 387.348 C 961.513 387.659, 959.600 388.602, 958.500 389.444 C 956.520 390.960, 956.525 390.995, 959 392.996 C 961.636 395.127, 971.094 401.806, 973.866 403.495 C 978.365 406.236, 986.925 412.683, 990.324 415.891 C 993.835 419.205, 998 426.321, 998 429.007 C 998 430.258, 1000.378 438.287, 1002.663 444.750 C 1003.489 447.087, 1004.623 449, 1005.182 449 C 1005.740 449, 1007.703 449.714, 1009.542 450.587 C 1012.309 451.900, 1013.422 453.496, 1015.994 459.837 C 1017.703 464.052, 1020.854 471.100, 1022.996 475.500 C 1028.040 485.862, 1031.409 493.573, 1032.928 498.236 C 1033.598 500.291, 1034.518 502.202, 1034.972 502.483 C 1035.427 502.764, 1036.333 505.219, 1036.986 507.940 L 1038.172 512.886 1044.172 509.560 C 1051.064 505.740, 1061.251 497.763, 1068.503 490.506 C 1073.095 485.911, 1078.393 476.870, 1082.368 466.848 C 1083.164 464.839, 1085.208 462.167, 1086.908 460.910 C 1088.609 459.653, 1090.008 458.146, 1090.017 457.562 C 1090.062 454.814, 1105.778 442.573, 1115.834 437.452 C 1120.968 434.838, 1127.524 430.546, 1130.403 427.915 C 1135.599 423.166, 1141.696 415.363, 1140.862 414.529 C 1140.623 414.290, 1138.037 415.277, 1135.116 416.723 C 1129.464 419.520, 1121.433 420.679, 1115.463 419.559 C 1112.352 418.975, 1111.542 418.220, 1109.793 414.264 C 1107.166 408.325, 1107.809 401.133, 1111.858 391.183 C 1115.083 383.260, 1115.005 383.043, 1108.537 381.913 C 1106.316 381.525, 1099.550 380.216, 1093.500 379.004 C 1087.450 377.792, 1080.475 376.438, 1078 375.996 C 1075.525 375.554, 1071.700 374.509, 1069.500 373.674 C 1065.535 372.169, 1054.664 369.748, 1046 368.440 C 1043.525 368.066, 1039.700 366.812, 1037.500 365.653 C 1033.828 363.718, 1031.410 363.501, 1008 363.009 C 993.975 362.715, 982.034 362.175, 981.465 361.811 C 979.377 360.473, 919.821 360.286, 907 361.576" stroke="#f9c6c6" fill="#f9c6c6" fill-opacity="0.2" fill-rule="evenodd"/><path class="svg-region-LBl" d="M 685 368.947 C 679.162 369.640, 675.233 371.554, 667.367 377.535 C 661.641 381.890, 661.163 382.818, 661.070 389.770 C 661.013 394.087, 661.796 396.625, 665.400 403.800 C 672.572 418.080, 681.853 424.935, 707 434.520 C 712.978 436.799, 727.928 437.687, 731.989 436.005 C 736.738 434.037, 739 430.082, 739 423.745 C 739 417.271, 737.535 412.532, 734.340 408.673 C 733.053 407.119, 732 404.937, 732 403.824 C 732 401.554, 730.364 397.479, 725.689 388.109 C 721.395 379.504, 713.249 370.691, 708.188 369.174 C 704.072 367.941, 694.279 367.845, 685 368.947" stroke="#79495c" fill="#79495c" fill-opacity="0.2" fill-rule="evenodd"/><path class="svg-region-LBr" d="M 1142.009 354.711 C 1130.903 358.107, 1120.132 370.972, 1112.045 390.500 C 1108.035 400.183, 1107.052 408.796, 1109.335 414.258 C 1111.190 418.698, 1113.960 420, 1121.554 420 C 1131.801 420, 1143.436 413.629, 1155.338 401.500 C 1163.754 392.923, 1166.095 389.343, 1171.651 376.542 C 1176.426 365.543, 1176.896 362.329, 1174.218 359.021 C 1170.401 354.308, 1151.569 351.788, 1142.009 354.711" stroke="#79495c" fill="#79495c" fill-opacity="0.2" fill-rule="evenodd"/><path class="svg-region-PP" d="M 990.500 449.547 C 986.100 450.340, 979.800 452.310, 976.500 453.926 C 951.328 466.252, 943.156 468.467, 925.948 467.626 C 909.308 466.813, 899.195 465.598, 897.848 464.250 C 897.162 463.563, 894.102 462.980, 891.050 462.956 C 887.997 462.932, 883.475 462.480, 881 461.950 C 878.525 461.421, 874.475 460.579, 872 460.078 C 869.525 459.578, 865.025 458.448, 862 457.566 C 858.338 456.499, 854.858 456.175, 851.586 456.598 C 847.406 457.138, 845.917 457.987, 841.619 462.285 C 838.840 465.064, 835.698 468.949, 834.637 470.919 C 831.861 476.071, 824 497.741, 824 500.242 C 824 501.406, 823.580 503.740, 823.068 505.429 C 821.614 510.217, 820.154 516.201, 819.604 519.619 C 819.145 522.471, 819.471 522.928, 823.410 524.954 C 825.779 526.172, 830.136 529.381, 833.093 532.085 C 836.049 534.788, 838.782 537, 839.166 537 C 839.551 537, 840.150 537.897, 840.498 538.994 C 840.846 540.091, 841.664 541.565, 842.316 542.270 C 846.406 546.696, 849.651 557.154, 850.686 569.250 C 851.096 574.044, 850.913 575, 849.589 575 C 848.715 575, 848 575.342, 848 575.759 C 848 577.050, 851.194 578.547, 859 580.914 C 863.125 582.165, 867.400 583.562, 868.500 584.017 C 869.600 584.472, 871.850 585.133, 873.500 585.485 C 875.150 585.838, 882.435 589.038, 889.690 592.597 C 900.140 597.724, 903.311 599.767, 904.960 602.435 C 906.104 604.287, 907.743 606.071, 908.602 606.401 C 911.679 607.582, 921.320 606.969, 926.041 605.292 C 930.105 603.848, 931.598 603.765, 935.675 604.757 C 938.329 605.402, 942.525 606.052, 945 606.201 L 949.500 606.471 949.810 602.486 C 950.445 594.333, 963.594 584.578, 977.659 581.827 C 980.872 581.198, 985.918 579.630, 988.874 578.342 C 991.830 577.054, 994.786 576, 995.441 576 C 996.097 576, 999.217 574.679, 1002.375 573.064 C 1005.532 571.449, 1008.652 569.926, 1009.308 569.679 C 1010.097 569.381, 1009.862 568.739, 1008.612 567.777 C 1007.010 566.545, 1006.835 565.582, 1007.459 561.413 C 1009.328 548.904, 1015.194 531.214, 1019.560 524.913 C 1022.799 520.239, 1026.585 517, 1028.807 517 C 1029.653 517, 1032.080 516.212, 1034.200 515.250 C 1037.837 513.599, 1038.021 513.302, 1037.454 510 C 1037.123 508.075, 1036.181 505.150, 1035.361 503.500 C 1034.540 501.850, 1032.383 496.675, 1030.567 492 C 1028.751 487.325, 1025.630 480.368, 1023.632 476.539 C 1021.635 472.711, 1020 469.237, 1020 468.819 C 1020 468.401, 1018.874 465.598, 1017.498 462.589 C 1016.121 459.580, 1014.566 455.988, 1014.041 454.607 C 1011.997 449.231, 1002.993 447.296, 990.500 449.547" stroke="#c4743d" fill="#c4743d" fill-opacity="0.2" fill-rule="evenodd"/><path class="svg-region-DMl" d="M 675 445.642 C 659.187 447.935, 658.319 448.190, 656.647 451.021 C 654.099 455.334, 654.436 464.885, 657.286 469.110 C 658.544 470.975, 660.134 473.868, 660.821 475.540 C 664.260 483.917, 680.598 502.957, 692.874 512.894 C 695.418 514.954, 699.075 518.036, 701 519.744 C 710.783 528.424, 715.516 532.308, 719.318 534.778 C 725.175 538.583, 734.744 546.612, 746.842 557.873 C 752.530 563.168, 759.652 569.143, 762.670 571.151 C 767.860 574.605, 777 584.117, 777 586.063 C 777 586.559, 778.478 588.486, 780.285 590.346 C 786.834 597.090, 791.354 596.431, 800.312 587.429 L 806.711 580.998 807.290 573.351 C 807.640 568.715, 808.436 565.136, 809.309 564.263 C 810.358 563.213, 810.524 561.964, 809.921 559.661 C 809.465 557.922, 808.575 554.475, 807.944 552 C 807.313 549.525, 805.267 544.350, 803.397 540.500 C 801.528 536.650, 799.993 532.600, 799.986 531.500 C 799.955 526.379, 794.545 512.521, 789.714 505.185 C 787.837 502.335, 785.065 496.965, 783.553 493.252 C 779.087 482.278, 778.782 481.796, 772 474.991 C 765.166 468.133, 760.271 465.301, 746 459.949 C 741.325 458.195, 735.592 455.914, 733.261 454.880 C 730.929 453.846, 728.432 453, 727.711 453 C 726.990 453, 725.972 452.591, 725.450 452.091 C 724.928 451.592, 721.125 450.062, 717 448.692 C 710.633 446.577, 707.083 446.131, 693.500 445.740 C 684.700 445.487, 676.375 445.443, 675 445.642 M 725.724 497.250 C 720.995 500.814, 719.256 515.513, 723 520.273 C 724.198 521.796, 725.009 524.357, 725.021 526.658 C 725.040 530.027, 725.563 530.868, 729.271 533.487 C 731.597 535.130, 735.075 537.858, 737 539.549 C 740.532 542.652, 746.266 543.997, 747.493 542.011 C 748.530 540.333, 753.022 540.872, 755.727 543 C 758.692 545.332, 763.679 545.558, 766.420 543.484 C 769.269 541.328, 771.986 536.811, 771.993 534.217 C 772.001 531.519, 767.595 522.464, 765.711 521.306 C 764.990 520.863, 763.366 519.020, 762.104 517.210 C 759.189 513.034, 749.730 506, 747.029 506 C 745.898 506, 744.191 505.588, 743.236 505.083 C 742.281 504.579, 740.016 503.616, 738.201 502.942 C 736.387 502.268, 733.688 500.431, 732.204 498.858 C 729.205 495.681, 728.152 495.420, 725.724 497.250" stroke="#68533d" fill="#68533d" fill-opacity="0.2" fill-rule="evenodd"/><path class="svg-region-DMr" d="M 1171.350 418.176 C 1168.518 418.604, 1162.723 420.090, 1158.473 421.477 C 1154.222 422.865, 1149.565 424.002, 1148.122 424.004 C 1146.680 424.006, 1143.925 424.970, 1142 426.147 C 1140.075 427.324, 1135.350 429.373, 1131.500 430.701 C 1114.883 436.432, 1101.520 444.736, 1091.691 455.441 C 1090.147 457.123, 1087.355 460.140, 1085.487 462.144 C 1083.619 464.149, 1081.769 467.074, 1081.376 468.644 C 1080.369 472.665, 1074.661 483.376, 1071.176 487.787 C 1066.726 493.418, 1060.404 506.018, 1056.269 517.500 C 1054.882 521.350, 1051.935 528.100, 1049.719 532.500 C 1045.720 540.443, 1045.692 540.577, 1045.821 551.252 C 1045.990 565.285, 1046.782 566.794, 1056.417 571.428 C 1066.368 576.214, 1068.320 578.765, 1067.782 586.280 C 1067.433 591.158, 1067.581 591.848, 1068.730 590.698 C 1069.479 589.949, 1070.681 587.106, 1071.400 584.380 C 1072.602 579.822, 1074.162 577.007, 1080.279 568.360 C 1081.501 566.633, 1083.248 563.853, 1084.162 562.182 C 1085.076 560.512, 1089.351 556.572, 1093.662 553.429 C 1104.581 545.467, 1108.916 541.187, 1111.079 536.235 C 1112.103 533.890, 1117.580 526.915, 1123.249 520.735 C 1128.917 514.556, 1135.330 507.025, 1137.500 504 C 1139.669 500.975, 1145.741 493.100, 1150.993 486.500 C 1156.244 479.900, 1161.617 472.925, 1162.931 471 C 1164.246 469.075, 1166.320 466.375, 1167.540 465 C 1168.760 463.625, 1170.295 460.821, 1170.951 458.769 C 1171.606 456.716, 1174.434 450.866, 1177.234 445.769 C 1181.961 437.165, 1182.325 436.012, 1182.307 429.703 C 1182.286 422.550, 1180.840 418.427, 1178.126 417.783 C 1177.232 417.571, 1174.183 417.747, 1171.350 418.176 M 1106 485 C 1106 485.550, 1105.172 486, 1104.161 486 C 1101.988 486, 1096 492.254, 1096 494.523 C 1096 497.512, 1087.887 510.153, 1084.658 512.195 C 1082.809 513.365, 1083.638 530.942, 1085.646 533.162 C 1087.917 535.671, 1089.397 535.492, 1095.570 531.960 C 1101.040 528.831, 1116 515.558, 1116 513.834 C 1116 513.302, 1117.178 511.322, 1118.618 509.435 L 1121.235 506.003 1118.618 500.474 C 1117.178 497.433, 1116 494.535, 1116 494.034 C 1116 493.533, 1114.763 491.085, 1113.250 488.593 C 1111.318 485.411, 1109.831 484.054, 1108.250 484.032 C 1107.013 484.014, 1106 484.450, 1106 485" stroke="#68533d" fill="#68533d" fill-opacity="0.2" fill-rule="evenodd"/><path class="svg-region-VMl" d="M 808.500 580.654 C 807.400 580.955, 804.141 583.617, 801.259 586.570 C 794.874 593.111, 790.755 595.401, 786.798 594.610 C 784.132 594.076, 783.934 594.223, 784.565 596.262 C 788.514 609.035, 807.472 632.584, 817.458 637.120 C 820.294 638.408, 823.914 638.963, 829.587 638.978 C 837.375 638.999, 837.875 638.858, 843.087 635.160 C 846.064 633.049, 851.632 629.614, 855.460 627.528 C 862.553 623.662, 867.651 619.333, 869.516 615.591 C 870.357 613.906, 869.975 612.543, 867.528 608.494 C 861.047 597.767, 858.645 595.668, 845.204 588.991 C 838.217 585.519, 831.610 582.233, 830.521 581.688 C 828.316 580.584, 811.623 579.800, 808.500 580.654" stroke="#e59376" fill="#e59376" fill-opacity="0.2" fill-rule="evenodd"/><path class="svg-region-VMr" d="M 1035 565.574 C 1029.225 567.521, 1022.538 570.209, 1020.140 571.548 C 1017.742 572.887, 1014.071 574.442, 1011.981 575.005 C 1009.798 575.593, 1006.917 577.469, 1005.207 579.417 C 1003.571 581.281, 1001.167 583.372, 999.866 584.065 C 993.117 587.658, 985.662 595.513, 984.462 600.296 C 983.891 602.569, 984.318 603.120, 988.158 605.066 C 990.546 606.276, 994.140 608.556, 996.144 610.133 C 998.148 611.710, 1000.216 613, 1000.740 613 C 1002.748 613, 1007.679 616.104, 1012 620.086 C 1014.475 622.368, 1017.542 624.632, 1018.815 625.117 C 1022.031 626.343, 1035.067 626.221, 1042.692 624.893 C 1048.897 623.813, 1049.095 623.681, 1051.074 619.338 C 1052.189 616.891, 1055.441 611.482, 1058.300 607.318 C 1066.567 595.284, 1067.107 594.106, 1067.718 586.819 L 1068.293 579.969 1064.353 576.234 C 1062.185 574.180, 1058.016 571.648, 1055.088 570.607 C 1051.144 569.205, 1049.250 567.844, 1047.783 565.357 C 1046.694 563.511, 1045.734 562.008, 1045.651 562.017 C 1045.568 562.027, 1040.775 563.627, 1035 565.574" stroke="#e59376" fill="#e59376" fill-opacity="0.2" fill-rule="evenodd"/><path class="svg-region-Ol" d="M 432.500 349.164 C 429.200 349.683, 424.250 350.821, 421.500 351.694 C 413.227 354.319, 396.723 363.138, 393.188 366.822 C 391.367 368.720, 388.217 371.419, 386.188 372.819 C 372.458 382.297, 366.671 386, 365.585 386 C 364.190 386, 349.351 400.760, 345.797 405.683 C 344.534 407.433, 341.669 411.258, 339.431 414.183 C 337.193 417.107, 334.274 421.525, 332.945 424 C 331.615 426.475, 329.509 429.772, 328.264 431.327 C 327.019 432.881, 326 434.984, 326 436 C 326 437.016, 324.875 439.184, 323.500 440.818 C 322.125 442.452, 321 444.090, 321 444.457 C 321 444.825, 319.928 447.460, 318.617 450.313 C 310.547 467.883, 304.262 485.592, 300.983 500 C 299.794 505.225, 298.001 512.650, 296.998 516.500 C 294.883 524.620, 292.346 536.748, 291.558 542.500 C 289.863 554.879, 288.872 594.669, 290.151 599 C 290.557 600.375, 291.124 603.075, 291.411 605 C 292.556 612.687, 296.033 627.164, 297.356 629.753 C 298.128 631.264, 299.090 634.075, 299.494 636 C 300.960 642.981, 309.806 662.160, 314.483 668.500 C 315.701 670.150, 317.260 673.219, 317.949 675.320 C 318.638 677.421, 319.843 679.386, 320.627 679.687 C 321.411 679.988, 323.160 682.575, 324.514 685.437 C 327.344 691.421, 331.344 695.800, 342.535 705.166 C 356.953 717.233, 362.782 721.154, 377.500 728.686 C 389.289 734.720, 402.478 739.066, 423.500 743.846 C 429.465 745.203, 460.302 744.635, 470 742.991 C 484.189 740.585, 493.312 739.960, 512 740.112 C 522.725 740.200, 533.525 740.400, 536 740.558 C 538.475 740.716, 547.250 740.407, 555.500 739.872 C 563.750 739.337, 573.875 738.750, 578 738.569 C 590.340 738.027, 605.502 735.512, 607.896 733.609 C 609.183 732.588, 611.324 731.930, 622.500 729.126 C 624.700 728.574, 630.861 727.456, 636.192 726.640 C 646.218 725.107, 655.382 721.510, 663.680 715.851 C 665.979 714.283, 668.136 713, 668.472 713 C 669.513 713, 672.646 709.593, 673.314 707.735 C 673.663 706.764, 674.973 705.579, 676.224 705.101 C 679.570 703.824, 690 694.975, 690 693.413 C 690 692.674, 690.934 691.570, 692.076 690.959 C 695.434 689.162, 697.348 686.784, 699.936 681.197 C 701.276 678.304, 702.968 675.442, 703.696 674.837 C 705.140 673.639, 707.600 665.843, 708.536 659.500 C 709.797 650.946, 710.147 635.263, 709.182 630.500 C 708.625 627.750, 707.177 620.560, 705.964 614.521 C 704.751 608.483, 702.913 601.965, 701.879 600.036 C 700.846 598.108, 700 595.916, 700 595.166 C 700 594.416, 699.378 592.384, 698.617 590.651 C 697.022 587.016, 695.764 583.347, 693.936 577 C 693.223 574.525, 692.269 572.002, 691.816 571.392 C 691.362 570.783, 690.153 567.858, 689.128 564.892 C 688.104 561.927, 686.023 555.900, 684.505 551.500 C 682.987 547.100, 680.227 539.189, 678.373 533.919 C 676.518 528.650, 675 523.834, 675 523.218 C 675 521.638, 668.597 506.868, 664.197 498.299 C 658.529 487.260, 643.858 472.455, 625.019 458.762 C 621.433 456.156, 617.928 453.543, 617.230 452.954 C 616.531 452.365, 611.530 449.310, 606.117 446.164 C 597.105 440.927, 593.355 438.394, 583.490 430.879 C 581.597 429.437, 573.625 422.166, 565.774 414.720 C 557.924 407.275, 549.250 399.334, 546.500 397.073 C 543.750 394.813, 539.700 391.468, 537.500 389.641 C 531.852 384.949, 516.107 373, 515.573 373 C 515.328 373, 511.541 370.637, 507.156 367.750 C 486.167 353.927, 476.707 350.749, 453 349.552 C 448.325 349.317, 443.150 348.921, 441.500 348.673 C 439.850 348.425, 435.800 348.646, 432.500 349.164" stroke="#aa444d" fill="#aa444d" fill-opacity="0.2" fill-rule="evenodd"/><path class="svg-region-Or" d="M 1387.500 300.620 C 1367.418 304.060, 1355 307.632, 1355 309.967 C 1355 310.448, 1353.665 311.134, 1352.033 311.493 C 1350.401 311.851, 1347.569 313.124, 1345.740 314.322 C 1343.910 315.520, 1340.633 317.390, 1338.457 318.478 C 1332.854 321.280, 1307.559 338.444, 1301 343.895 C 1295.104 348.795, 1292.503 351.427, 1285.174 359.908 C 1282.603 362.882, 1278.437 367.607, 1275.915 370.408 C 1265.331 382.162, 1253.548 396.831, 1250.850 401.612 C 1247.470 407.600, 1240.924 415.336, 1229.787 426.500 C 1225.398 430.900, 1220.963 436.146, 1219.930 438.158 C 1218.898 440.170, 1217.665 441.970, 1217.191 442.158 C 1215.602 442.788, 1209 453.202, 1209 455.077 C 1209 456.096, 1208.177 457.370, 1207.171 457.908 C 1204.670 459.247, 1197.400 475.357, 1196.525 481.500 C 1196.133 484.250, 1195.454 486.950, 1195.016 487.500 C 1194.578 488.050, 1194.874 492.775, 1195.673 498 C 1196.842 505.641, 1196.932 510.667, 1196.134 523.683 C 1195.589 532.584, 1194.716 540.684, 1194.195 541.683 C 1192.174 545.558, 1190.717 564.417, 1191.390 577.979 C 1192.041 591.079, 1195.344 610.684, 1198.724 621.500 C 1201.654 630.881, 1210.648 648.488, 1215.836 655 C 1229.157 671.722, 1250.147 683.511, 1277.365 689.558 C 1297.230 693.970, 1299.221 694.223, 1309 693.572 C 1331.201 692.093, 1335.992 692.265, 1363 695.511 C 1366.025 695.875, 1370.075 696.757, 1372 697.473 C 1374.136 698.266, 1383.101 699.033, 1395 699.440 C 1405.725 699.807, 1415.344 700.357, 1416.375 700.661 C 1417.406 700.965, 1418.583 700.675, 1418.990 700.015 C 1419.644 698.958, 1425.073 698.242, 1445.913 696.465 C 1448.341 696.258, 1450.591 695.704, 1450.913 695.233 C 1451.489 694.393, 1464.004 690.657, 1467.052 690.415 C 1469.459 690.224, 1485.034 685.062, 1489.500 682.974 C 1491.700 681.946, 1494.627 680.875, 1496.005 680.595 C 1498.818 680.022, 1511.962 672.828, 1519.375 667.804 C 1536.770 656.014, 1555.852 634.513, 1564.661 616.778 C 1566.498 613.080, 1568 609.243, 1568 608.250 C 1568 607.257, 1568.719 605.419, 1569.597 604.165 C 1572.335 600.256, 1576 589.794, 1576 585.886 C 1576 583.832, 1577.463 578.630, 1579.250 574.326 L 1582.500 566.500 1582.498 539.500 C 1582.496 517.008, 1582.197 511.248, 1580.704 505 C 1577.189 490.286, 1574.140 480.362, 1570.224 470.886 C 1568.039 465.598, 1565.447 458.848, 1564.464 455.886 C 1561.922 448.225, 1553.222 432.662, 1540 412.119 C 1537.684 408.522, 1529.163 396.364, 1524.500 390.005 C 1510.008 370.242, 1501.005 357.135, 1501.002 355.794 C 1500.994 352.880, 1482.022 330.677, 1476 326.534 C 1474.075 325.210, 1470.954 322.729, 1469.065 321.020 C 1462.980 315.517, 1442.697 306.039, 1430.312 302.911 C 1417.264 299.615, 1399.050 298.641, 1387.500 300.620" stroke="#aa444d" fill="#aa444d" fill-opacity="0.2" fill-rule="evenodd"/><path class="svg-region-VOC" d="M 913 381.720 C 908.420 382.102, 892.770 386.067, 891.550 387.154 C 891.027 387.619, 889.602 388, 888.383 388 C 887.164 388, 884.074 388.897, 881.518 389.992 L 876.870 391.984 879.685 394.407 L 882.500 396.829 880.250 399.874 C 879.013 401.549, 878 403.162, 878 403.460 C 878 405.760, 888.206 400.815, 893.515 395.943 C 898.287 391.562, 943.932 386.752, 949.984 389.992 C 952.870 391.536, 956.194 391.190, 959.500 389 C 961.150 387.907, 963.343 387.010, 964.372 387.007 C 967.989 386.994, 964.178 384.314, 958.131 382.617 C 953.547 381.331, 948.460 381.028, 934.398 381.204 C 924.554 381.327, 914.925 381.559, 913 381.720" stroke="#ff8f93" fill="#ff8f93" fill-opacity="0.2" fill-rule="evenodd"/><path class="svg-region-BPCl" d="M 813 531.599 C 813 545.543, 814.707 550.507, 823.281 561.500 C 831.983 572.656, 840.879 577.478, 848.832 575.348 C 851.003 574.767, 851.130 574.336, 850.677 569.112 C 849.874 559.841, 848.117 552.324, 845.692 547.788 C 842.183 541.223, 839.718 537.635, 837.684 536.135 C 836.667 535.384, 834.468 533.435, 832.797 531.802 C 828.966 528.056, 816.468 520, 814.490 520 C 813.256 520, 813 521.991, 813 531.599" stroke="#83385f" fill="#83385f" fill-opacity="0.2" fill-rule="evenodd"/><path class="svg-region-BPCr" d="M 1033.441 515.468 C 1032.374 516.276, 1030.522 516.951, 1029.327 516.968 C 1026.397 517.011, 1021.504 521.283, 1018.486 526.434 C 1012.262 537.055, 1004.916 565.594, 1007.927 567.455 C 1010.157 568.833, 1018.112 563.689, 1026.229 555.620 C 1033.645 548.248, 1034.837 546.525, 1037.763 538.949 C 1041.139 530.204, 1041.415 528.104, 1040.352 519.250 C 1039.808 514.724, 1039.422 514, 1037.552 514 C 1036.359 514, 1034.509 514.661, 1033.441 515.468" stroke="#83385f" fill="#83385f" fill-opacity="0.2" fill-rule="evenodd"/><path class="svg-region-AMC" d="M 1004.500 572 C 1002.342 573.100, 999.997 574, 999.289 574 C 998.580 574, 998 574.450, 998 575 C 998 575.550, 997.031 576, 995.846 576 C 994.662 576, 991.400 577.083, 988.596 578.406 C 985.793 579.729, 981.250 581.123, 978.500 581.504 C 970.607 582.598, 957.788 589.202, 953.572 594.347 C 949.477 599.344, 948.836 604.341, 951.819 608.025 C 953.477 610.072, 954.719 610.316, 965.857 610.774 C 977.494 611.254, 978.189 611.171, 980.463 609.035 C 981.782 607.796, 983.387 604.555, 984.050 601.793 C 984.985 597.895, 986.431 595.613, 990.620 591.424 C 993.574 588.469, 997.515 585.253, 999.377 584.276 C 1003.771 581.971, 1007.528 577.339, 1008.320 573.250 C 1008.667 571.462, 1008.831 570, 1008.686 570 C 1008.541 570, 1006.658 570.900, 1004.500 572 M 847 578.532 C 847 582.103, 850.398 587.613, 857.042 594.814 C 860.942 599.042, 864.833 603.971, 865.689 605.770 C 868.834 612.373, 871.528 613.308, 887.512 613.344 C 899.327 613.370, 902.226 613.082, 904.389 611.665 C 907.931 609.344, 907.830 605.354, 904.125 601.298 C 901.119 598.007, 878.663 586.483, 873.079 585.366 C 871.363 585.023, 869.716 584.350, 869.420 583.871 C 869.124 583.392, 867.994 583, 866.909 583 C 864.698 583, 853.440 579.503, 850.764 577.985 C 848.285 576.579, 847 576.766, 847 578.532" stroke="#9d4741" fill="#9d4741" fill-opacity="0.2" fill-rule="evenodd"/><path class="svg-region-ODMl" d="M 725.144 497.327 C 722.654 500.326, 721 506.309, 721 512.313 C 721 517.420, 721.398 519.050, 723 520.500 C 724.411 521.777, 725 523.580, 725 526.620 C 725 529.825, 725.485 531.189, 726.893 531.943 C 727.935 532.500, 731.422 535.235, 734.643 538.020 C 740.852 543.389, 741.143 543.452, 750.523 541.477 C 752.844 540.988, 753.982 541.322, 755.428 542.920 C 756.704 544.331, 758.531 545, 761.107 545 C 764.162 545, 765.597 544.287, 768.452 541.347 C 770.751 538.980, 772 536.736, 772 534.974 C 772 531.438, 768.441 523.429, 766.139 521.785 C 765.149 521.078, 763.482 519.150, 762.433 517.500 C 761.384 515.850, 760.070 514.029, 759.513 513.452 C 757.449 511.318, 749.095 506, 747.806 506 C 744.604 506, 735.373 501.785, 732.520 499.020 C 729.153 495.756, 726.880 495.234, 725.144 497.327" stroke="#999999" fill="#999999" fill-opacity="0.2" fill-rule="evenodd"/><path class="svg-region-ODMr" d="M 1106 485 C 1106 485.550, 1105.185 486, 1104.189 486 C 1101.490 486, 1096 491.759, 1096 494.590 C 1096 496.117, 1092.446 502.806, 1091 504 C 1090.667 504.275, 1089.369 506.188, 1088.116 508.250 C 1086.862 510.313, 1085.476 512, 1085.035 512 C 1083.646 512, 1083.120 517.225, 1083.711 525.156 C 1084.215 531.916, 1084.563 532.963, 1086.679 534.096 C 1088.776 535.218, 1089.737 535.044, 1094.353 532.708 C 1099.561 530.070, 1116 515.747, 1116 513.847 C 1116 513.308, 1117.196 511.298, 1118.659 509.381 L 1121.318 505.895 1118.716 500.197 C 1117.285 497.064, 1115.976 494.050, 1115.807 493.500 C 1115.638 492.950, 1114.375 490.591, 1113 488.258 C 1111.241 485.273, 1109.833 484.013, 1108.250 484.008 C 1107.013 484.003, 1106 484.450, 1106 485" stroke="#999999" fill="#999999" fill-opacity="0.2" fill-rule="evenodd"/>
    </svg>