<svg xmlns="http://www.w3.org/2000/svg" width="1921" height="1027" viewBox="0 0 1921 1027" version="1.1">
    <path class="svg-region-V" d="M 999.693 177.500 C 997.049 178.227, 990.524 179.120, 985.193 179.484 C 973.384 180.290, 963.622 183.299, 948.740 190.718 C 938.655 195.745, 929.386 199, 925.151 199 C 924.188 199, 920.545 201.137, 917.055 203.750 C 913.565 206.363, 910.125 208.932, 909.410 209.460 C 907.799 210.650, 896.876 205.803, 892.500 201.955 C 887.252 197.341, 883.490 195.140, 871.856 189.880 C 860.571 184.778, 860.415 184.741, 847 183.961 C 839.575 183.530, 831.925 182.580, 830 181.851 C 827.430 180.878, 819.725 180.522, 801 180.513 C 778.783 180.502, 775.049 180.724, 772 182.237 C 770.075 183.192, 764.675 184.638, 760 185.451 C 746.386 187.818, 722.401 197.073, 716 202.428 C 715.175 203.118, 711.625 205.400, 708.111 207.498 C 700.416 212.094, 691.463 220.774, 686.849 228.115 C 683.723 233.088, 678 244.238, 678 245.356 C 678 245.621, 675.946 250.174, 673.436 255.473 C 665.183 272.900, 662.436 287.752, 666.218 294.500 C 667.143 296.150, 668.652 299.075, 669.572 301 C 673.483 309.181, 673.757 309.479, 678.182 310.360 C 680.557 310.834, 691.275 311.552, 702 311.956 C 714.659 312.433, 724.131 313.307, 729 314.447 C 736.495 316.202, 739.543 316.134, 750.500 313.969 C 753.250 313.426, 757.975 312.576, 761 312.082 C 764.025 311.588, 770.666 309.557, 775.757 307.569 C 780.849 305.582, 788.499 303.330, 792.757 302.566 C 802.437 300.828, 831.745 299.480, 851.431 299.867 L 866.361 300.161 872.256 304.830 C 880.234 311.149, 883.799 313.222, 895.500 318.342 L 905.500 322.718 949.500 323.427 C 1006.819 324.350, 1013.575 324.217, 1028.753 321.876 C 1035.764 320.794, 1044.425 319.454, 1048 318.896 C 1051.575 318.339, 1058.341 318.144, 1063.036 318.461 C 1070.128 318.942, 1072.581 318.687, 1077.536 316.956 C 1080.816 315.810, 1085.950 314.460, 1088.945 313.957 C 1091.939 313.453, 1096.664 311.945, 1099.445 310.605 C 1104.104 308.360, 1112.703 306.637, 1124.051 305.676 C 1126.555 305.464, 1131.397 304.036, 1134.813 302.503 C 1141.314 299.586, 1145.345 295.702, 1150.406 287.482 C 1153.116 283.080, 1153.317 282.047, 1153.391 272.131 C 1153.459 263.005, 1153.172 261.005, 1151.363 258 C 1148.364 253.021, 1146.614 249.592, 1142.435 240.511 C 1138.889 232.806, 1131.834 222.070, 1122.055 209.500 C 1115.938 201.637, 1109 191.358, 1109 190.160 C 1109 188.513, 1099 183.899, 1092.114 182.369 C 1079.483 179.563, 1067.174 178.177, 1059.348 178.680 C 1054.587 178.987, 1047.398 178.559, 1041.074 177.593 C 1028.560 175.681, 1006.489 175.632, 999.693 177.500" stroke="#dd8a8a" fill="#dd8a8a" fill-opacity="0.2" fill-rule="evenodd"/><path class="svg-region-SV" d="M 830.500 299.965 C 826.650 300.398, 818.325 300.808, 812 300.876 C 797.814 301.029, 787.737 302.892, 775.735 307.578 C 770.656 309.561, 764.025 311.576, 761 312.057 C 757.975 312.537, 751.900 313.612, 747.500 314.446 C 743.100 315.279, 739.072 315.970, 738.550 315.980 C 738.027 315.991, 738.097 316.497, 738.705 317.105 C 739.853 318.253, 754.535 320.325, 773.500 322.015 C 779.550 322.554, 785.175 323.297, 786 323.665 C 786.825 324.033, 795.825 324.657, 806 325.053 C 816.175 325.448, 832.186 326.318, 841.581 326.987 C 863.904 328.576, 892.717 326.729, 902.164 323.103 C 904.493 322.209, 904.491 322.203, 901.500 321.059 C 892.613 317.663, 878.730 309.926, 873.193 305.286 C 867.730 300.707, 866.313 300, 862.599 300 C 860.241 300, 853.629 299.815, 847.906 299.589 C 842.183 299.363, 834.350 299.533, 830.500 299.965" stroke="#c666b5" fill="#c666b5" fill-opacity="0.2" fill-rule="evenodd"/><path class="svg-region-DB" d="M 1108 310.079 C 1102.775 311.116, 1096.025 312.446, 1093 313.034 C 1089.975 313.622, 1083.900 315.193, 1079.500 316.526 C 1072.722 318.579, 1070.201 318.862, 1063 318.378 C 1058.234 318.057, 1051.645 318.309, 1048 318.950 C 1023.228 323.310, 1015.450 323.988, 993 323.744 C 940.228 323.171, 900.450 323.621, 894.500 324.857 C 882.330 327.386, 859.560 328.295, 841.500 326.974 C 832.150 326.290, 816.400 325.414, 806.500 325.029 C 796.600 324.644, 787.825 324.035, 787 323.677 C 786.175 323.318, 780.550 322.590, 774.500 322.058 C 749.994 319.902, 739.214 318.013, 722.429 312.930 C 720.740 312.418, 710.480 312, 699.629 312 C 677.292 312, 675.940 312.339, 670.980 319.186 C 668.442 322.690, 668 324.212, 668 329.453 C 668 334.568, 668.655 336.946, 671.881 343.553 C 674.016 347.924, 677.278 352.904, 679.131 354.619 C 683.336 358.513, 690.662 361, 697.928 361.001 C 702 361.001, 705.151 361.783, 709.635 363.904 C 716.737 367.264, 720.840 372.354, 723.403 380.985 C 725.137 386.824, 729.554 394, 731.413 394 C 732.041 394, 733.467 393.361, 734.581 392.581 C 735.695 391.801, 738.833 390.713, 741.553 390.165 C 744.274 389.617, 751 387.620, 756.500 385.728 C 766.768 382.196, 774.257 380.535, 786.500 379.073 C 790.350 378.613, 795.525 377.545, 798 376.700 C 800.475 375.855, 804.750 374.627, 807.500 373.971 C 810.250 373.315, 817.346 371.479, 823.269 369.889 C 829.192 368.300, 834.855 367, 835.854 367 C 836.853 367, 840.468 366.081, 843.888 364.959 C 851.655 362.409, 875.224 359.346, 893 358.576 C 900.425 358.254, 922.250 357.754, 941.500 357.464 C 978.929 356.899, 994.286 357.751, 1006.664 361.076 C 1010.604 362.134, 1015.554 363.005, 1017.664 363.010 C 1019.774 363.016, 1026.617 363.916, 1032.871 365.010 C 1039.125 366.105, 1046.303 367, 1048.823 367 C 1051.342 367, 1057.250 367.871, 1061.952 368.935 C 1066.653 370, 1074.100 371.533, 1078.500 372.344 C 1082.900 373.154, 1088.750 374.483, 1091.500 375.297 C 1107.955 380.171, 1108.350 380.236, 1109.828 378.297 C 1110.582 377.309, 1112.083 374.475, 1113.164 372 C 1116.510 364.338, 1120.887 358.341, 1125.230 355.467 C 1132.358 350.749, 1134.186 349.025, 1138.610 342.845 C 1144.527 334.580, 1145.299 328.968, 1141.644 320.779 C 1138.857 314.532, 1137.119 312.837, 1130.667 310.071 C 1124.869 307.586, 1120.552 307.588, 1108 310.079" stroke="#e8b1e4" fill="#e8b1e4" fill-opacity="0.2" fill-rule="evenodd"/><path class="svg-region-MB" d="M 913 358.009 C 880.208 358.787, 853.927 361.322, 844.835 364.584 C 842.451 365.439, 838.250 366.557, 835.500 367.067 C 826.233 368.787, 807.722 373.493, 797.500 376.729 C 794.750 377.600, 789.575 378.633, 786 379.025 C 782.425 379.416, 776.800 380.297, 773.500 380.982 C 766.395 382.457, 747.929 387.932, 746.500 388.988 C 745.950 389.394, 743.625 390.013, 741.334 390.362 C 739.042 390.711, 735.758 391.785, 734.034 392.748 C 731.004 394.443, 730.849 394.434, 729.325 392.500 L 727.750 390.500 728.315 392.500 C 728.626 393.600, 730.061 397.650, 731.503 401.500 C 733.181 405.980, 734.307 411.380, 734.631 416.500 C 735.068 423.407, 734.854 424.947, 733.068 427.775 C 730.587 431.702, 727.604 432.977, 720.685 433.068 L 715.500 433.136 721.500 436.037 C 724.800 437.632, 728.365 438.952, 729.421 438.969 C 730.478 438.986, 732.053 439.603, 732.921 440.340 C 733.790 441.077, 737.282 442.696, 740.683 443.937 C 751.058 447.724, 760.944 458.391, 759.481 464.221 C 759.004 466.120, 759.398 466.860, 761.361 467.755 C 762.727 468.377, 764.761 469.671, 765.882 470.631 C 770.269 474.388, 778.166 478, 781.991 478 C 784.131 478, 786.125 478.394, 786.423 478.875 C 786.720 479.356, 790.581 480.313, 795.003 481 C 803.631 482.343, 812.631 486.852, 820.253 493.652 C 822.317 495.493, 824.398 497, 824.878 497 C 825.358 497, 826.017 495.663, 826.344 494.029 C 826.671 492.395, 827.989 489.357, 829.274 487.279 C 830.559 485.200, 832.437 480.575, 833.449 477 C 834.460 473.425, 836.910 468.074, 838.894 465.110 C 840.877 462.145, 842.941 458.890, 843.480 457.877 C 844.019 456.863, 846.190 455.341, 848.305 454.495 C 851.919 453.048, 852.107 452.765, 851.448 449.764 C 851.063 448.008, 850.216 445.038, 849.567 443.163 C 848.608 440.393, 848.697 438.515, 850.044 433.128 C 852.369 423.826, 855.030 418.469, 861.836 409.387 C 872.318 395.402, 874.327 393.931, 896.494 383.998 C 908.164 378.769, 922.577 376.544, 940 377.282 C 953.991 377.875, 958.880 379.432, 969.355 386.634 C 973.675 389.604, 979.394 392.974, 982.065 394.123 C 987.613 396.510, 993.529 403.545, 997.762 412.791 C 1000.005 417.690, 1000.399 420.131, 1000.782 431.463 C 1001.201 443.912, 1001.336 444.601, 1003.766 446.750 C 1005.166 447.988, 1006.779 449, 1007.351 449 C 1009.361 449, 1014 454.401, 1014 456.741 C 1014 458.043, 1015.360 460.547, 1017.022 462.304 C 1018.685 464.062, 1021.215 467.975, 1022.644 471 C 1024.074 474.025, 1026.839 479.106, 1028.790 482.291 L 1032.335 488.082 1036.733 483.056 C 1040.283 478.997, 1043.381 476.941, 1052.815 472.382 C 1059.242 469.277, 1066.075 465.518, 1068 464.029 C 1071.928 460.992, 1077.665 458, 1079.560 458 C 1081.164 458, 1094.063 444.694, 1095.873 441.172 C 1097.695 437.627, 1107.169 428.399, 1109.865 427.543 C 1111.039 427.170, 1112 426.408, 1112 425.849 C 1112 425.291, 1111.662 424.995, 1111.250 425.193 C 1110.838 425.390, 1108.845 426.396, 1106.822 427.427 C 1103.610 429.064, 1102.743 429.136, 1099.988 427.995 C 1096.735 426.648, 1095 423.675, 1095 419.450 C 1095 416.675, 1099.401 403.050, 1104.568 389.827 C 1106.514 384.847, 1107.869 380.536, 1107.580 380.247 C 1107.291 379.958, 1104.797 379.090, 1102.038 378.318 C 1099.279 377.547, 1094.654 376.218, 1091.761 375.366 C 1088.867 374.514, 1082.900 373.162, 1078.500 372.362 C 1074.100 371.562, 1066.837 370.028, 1062.359 368.954 C 1057.882 367.879, 1051.973 367, 1049.230 367 C 1046.487 367, 1039.125 366.105, 1032.871 365.010 C 1026.617 363.916, 1019.925 363.011, 1018 362.998 C 1016.075 362.986, 1012.025 362.250, 1009 361.362 C 1005.975 360.474, 1000.125 359.363, 996 358.893 C 984.432 357.574, 947.792 357.184, 913 358.009" stroke="#f9c6c6" fill="#f9c6c6" fill-opacity="0.2" fill-rule="evenodd"/><path class="svg-region-LBl" d="M 691.500 362.215 C 686.275 363.472, 682.071 365.526, 678.439 368.596 C 664.207 380.628, 663.603 381.709, 666.615 389.755 C 669.440 397.299, 680.894 414, 683.244 414 C 683.864 414, 685.300 414.857, 686.436 415.903 C 687.571 416.950, 691.650 419.484, 695.500 421.534 C 699.350 423.584, 704.733 426.886, 707.463 428.872 C 711.866 432.076, 713.232 432.523, 719.586 432.844 C 727.754 433.257, 730.232 432.308, 733.050 427.686 C 737.149 420.963, 734.155 403.442, 726.413 388.853 C 725.641 387.397, 724.171 383.514, 723.146 380.223 C 720.625 372.121, 716.801 367.433, 709.853 363.926 C 703.718 360.829, 699.065 360.395, 691.500 362.215" stroke="#79495c" fill="#79495c" fill-opacity="0.2" fill-rule="evenodd"/><path class="svg-region-LBr" d="M 1133.523 350.733 C 1129.887 351.654, 1120.225 358.899, 1118.204 362.219 C 1113.052 370.684, 1104.721 388.506, 1101.479 398 C 1099.506 403.775, 1097.457 409.297, 1096.924 410.272 C 1095.519 412.842, 1094.642 420.436, 1095.400 423.458 C 1095.814 425.109, 1097.343 426.673, 1099.589 427.744 C 1103.544 429.630, 1101.741 430.197, 1119 421.631 C 1132.109 415.125, 1136.767 412.423, 1142.491 408.007 C 1151.048 401.405, 1157.601 393.681, 1159.933 387.449 C 1161.074 384.399, 1163.808 379.467, 1166.009 376.488 C 1171.432 369.146, 1172.372 366.799, 1171.580 362.573 C 1170.802 358.427, 1168.257 356.838, 1155.636 352.625 C 1148.118 350.116, 1139.029 349.338, 1133.523 350.733" stroke="#79495c" fill="#79495c" fill-opacity="0.2" fill-rule="evenodd"/><path class="svg-region-PP" d="M 984.500 445.497 C 978.707 447.079, 966.413 452.523, 965.577 453.876 C 965.263 454.384, 962.677 455.358, 959.830 456.041 C 956.983 456.724, 951.816 458.569, 948.349 460.141 C 942.273 462.896, 941.489 462.998, 926.772 462.950 C 915.041 462.911, 909.529 462.430, 903 460.875 C 898.325 459.762, 889.643 458.440, 883.706 457.937 C 877.769 457.434, 872.018 456.545, 870.926 455.960 C 869.834 455.376, 866.141 454.001, 862.720 452.904 L 856.500 450.911 850.660 453.205 C 847.447 454.467, 844.345 456.400, 843.765 457.500 C 843.185 458.600, 841.354 461.230, 839.696 463.345 C 838.038 465.460, 835.394 471.020, 833.822 475.699 C 832.249 480.379, 829.900 486.074, 828.602 488.354 C 825.891 493.117, 824.619 498.646, 826.033 499.520 C 827.306 500.307, 827.281 505.708, 826 506.500 C 823.941 507.772, 824.968 513.974, 827.911 518.036 C 831.703 523.271, 840.393 540.985, 842.610 548 C 843.566 551.025, 845.395 555.179, 846.674 557.230 C 847.953 559.282, 849.014 561.982, 849.032 563.230 C 849.049 564.479, 849.744 566.400, 850.576 567.500 C 851.596 568.848, 851.896 570.647, 851.496 573.016 C 850.960 576.195, 851.316 576.922, 855.202 580.594 C 857.566 582.829, 862.200 588.353, 865.500 592.872 C 875.584 606.678, 877.303 608.732, 883 613.775 C 886.025 616.453, 892.550 620.698, 897.500 623.207 C 906.714 627.879, 911.698 629.071, 924 629.544 C 927.575 629.682, 933.455 630.113, 937.067 630.502 C 949.090 631.797, 963.670 626.475, 972.522 617.558 C 979.049 610.984, 986.479 597.143, 989.083 586.707 C 989.604 584.620, 991.148 581.142, 992.515 578.977 C 993.882 576.811, 995 574.758, 995 574.414 C 995 572.675, 1001.409 565.993, 1002.850 566.229 C 1004.112 566.436, 1004.575 565.560, 1004.820 562.500 C 1004.996 560.300, 1005.896 557.600, 1006.820 556.500 C 1009.734 553.030, 1011.159 549.890, 1013.131 542.591 C 1014.185 538.691, 1015.457 534.600, 1015.959 533.500 C 1016.460 532.400, 1017.822 529.256, 1018.984 526.512 C 1020.147 523.769, 1021.946 520.619, 1022.982 519.512 C 1024.019 518.406, 1025.336 516.263, 1025.909 514.750 C 1026.482 513.237, 1027.582 512, 1028.354 512 C 1030.643 512, 1032.111 506.834, 1032.441 497.619 C 1032.740 489.246, 1032.638 488.783, 1029.251 483.234 C 1027.326 480.080, 1024.659 475.073, 1023.324 472.106 C 1021.990 469.139, 1019.346 464.818, 1017.449 462.503 C 1015.552 460.188, 1014 457.412, 1014 456.334 C 1014 454.049, 1009.501 449.527, 1006.250 448.545 C 1005.013 448.171, 1004 447.467, 1004 446.980 C 1004 445.772, 997.288 443.998, 993 444.071 C 991.075 444.105, 987.250 444.746, 984.500 445.497" stroke="#c4743d" fill="#c4743d" fill-opacity="0.2" fill-rule="evenodd"/><path class="svg-region-DMl" d="M 683.541 442.934 C 683.179 443.520, 681.754 444, 680.375 444 C 675.227 444, 670.071 448.479, 670.012 453 C 669.994 454.375, 672.626 460.900, 675.860 467.500 C 679.093 474.100, 683.920 484.411, 686.584 490.414 C 689.249 496.416, 693.245 503.978, 695.465 507.218 C 697.684 510.457, 700.175 514.195, 701 515.524 C 706.163 523.839, 735.666 552.658, 745.589 559.080 C 748.840 561.184, 752.080 563.410, 752.788 564.027 C 755.949 566.782, 766.837 574.800, 770.187 576.840 C 775.129 579.849, 780.365 586.775, 787.819 600.163 C 793.827 610.954, 794.126 611.110, 799.175 606.061 C 801.474 603.761, 804.193 601.432, 805.217 600.884 C 807.936 599.428, 839.858 599.577, 844.835 601.069 C 847.905 601.988, 850.591 604.146, 855.584 609.702 C 860.978 615.705, 862.719 617.052, 864.769 616.805 C 868.156 616.397, 869.911 613.591, 868.242 611.250 C 867.556 610.288, 866.584 608.556, 866.080 607.403 C 865.577 606.249, 861.993 601.974, 858.116 597.903 C 853.039 592.572, 850.601 589.100, 849.404 585.500 C 848.491 582.750, 847.126 579.790, 846.372 578.921 C 845.617 578.053, 845 576.195, 845 574.793 C 845 572.854, 843.623 571.214, 839.250 567.947 C 830.193 561.179, 822.210 552.206, 818.839 545.005 C 816.234 539.441, 815.855 537.618, 816.194 532.293 C 816.412 528.874, 816.904 525.762, 817.289 525.378 C 818.460 524.207, 825.962 526.966, 827.261 529.046 C 827.932 530.121, 828.946 531, 829.513 531 C 830.081 531, 831.371 532.534, 832.381 534.409 C 833.391 536.284, 835.802 539.321, 837.740 541.159 L 841.264 544.500 840.553 541.510 C 840.161 539.866, 839.540 538.291, 839.171 538.010 C 838.802 537.730, 836.261 533.081, 833.524 527.681 C 828.355 517.481, 820.060 508, 816.306 508 C 814.592 508, 810.327 506.092, 791.500 496.902 C 778.626 490.618, 773.130 484.270, 777.113 480.287 C 778.723 478.677, 777.491 477.283, 772 474.500 C 769.328 473.146, 766.844 471.556, 766.480 470.967 C 766.116 470.378, 763.063 468.562, 759.695 466.930 C 756.328 465.299, 752.431 462.919, 751.036 461.641 C 747.464 458.370, 741.443 454.904, 737.689 453.960 C 732.954 452.768, 717.800 447.204, 715.500 445.812 C 711.258 443.244, 684.821 440.863, 683.541 442.934 M 744.992 517.783 L 740.697 521.671 743.037 524.836 C 744.323 526.576, 745.735 528, 746.175 528 C 746.614 528, 748.776 526.763, 750.979 525.250 C 757.168 521.002, 757.617 514.901, 751.793 514.197 C 750.024 513.984, 748.025 515.037, 744.992 517.783 M 847.070 559.691 C 847.109 560.136, 847.527 561.400, 848 562.500 C 848.829 564.428, 848.862 564.421, 848.930 562.309 C 848.968 561.104, 848.550 559.840, 848 559.500 C 847.450 559.160, 847.032 559.246, 847.070 559.691" stroke="#68533d" fill="#68533d" fill-opacity="0.2" fill-rule="evenodd"/><path class="svg-region-DMr" d="M 1155.141 421.022 C 1152.743 422.110, 1149.994 423, 1149.032 423 C 1148.069 423, 1144.631 424.344, 1141.391 425.987 C 1138.151 427.630, 1135.155 428.980, 1134.733 428.987 C 1134.311 428.994, 1129.970 431.253, 1125.086 434.006 C 1117.050 438.535, 1105 448.804, 1105 451.121 C 1105 451.618, 1102.638 453.548, 1099.750 455.409 C 1093.426 459.485, 1090.382 462.724, 1086.040 470 C 1080.798 478.783, 1074.334 485.759, 1069.426 487.930 C 1066.976 489.013, 1061.785 490.342, 1057.889 490.881 C 1050.565 491.896, 1044.768 494.893, 1042.242 498.969 C 1041.549 500.086, 1040.068 501, 1038.950 501 C 1036.113 501, 1033.475 503.750, 1031.453 508.815 C 1030.168 512.034, 1030.019 513.419, 1030.865 514.265 C 1031.489 514.889, 1032 517.737, 1032 520.593 C 1032 526.529, 1032.581 527, 1039.915 527 C 1042.528 527, 1044.938 527.271, 1045.269 527.603 C 1046.571 528.904, 1043.622 533.777, 1038.070 539.500 C 1034.869 542.800, 1031.856 546.231, 1031.375 547.125 C 1030.319 549.085, 1016.432 560.200, 1012.386 562.322 C 1007.022 565.135, 1002.030 571.675, 997.594 581.696 C 995.208 587.088, 992.945 593.075, 992.566 595 C 992.187 596.925, 991.170 600.857, 990.305 603.737 C 989.037 607.964, 988.976 609.267, 989.990 610.487 C 992.139 613.078, 994.995 612.377, 995.036 609.250 C 995.076 606.219, 998.010 602.324, 1002.250 599.673 C 1003.763 598.727, 1005 597.331, 1005 596.571 C 1005 595.015, 1018.408 582.251, 1021.500 580.864 C 1022.600 580.370, 1025.750 578.638, 1028.500 577.016 C 1034.140 573.688, 1038.333 573.293, 1045.406 575.422 C 1052.214 577.471, 1059 585.957, 1059 592.421 C 1059 594.325, 1059.450 596.160, 1060 596.500 C 1060.550 596.840, 1061 599.662, 1061 602.771 L 1061 608.424 1063.959 604.962 C 1065.587 603.058, 1066.937 601.007, 1066.959 600.405 C 1066.982 599.803, 1067.874 598.519, 1068.943 597.551 C 1070.012 596.584, 1071.161 594.545, 1071.496 593.020 C 1071.831 591.494, 1073.206 588.754, 1074.552 586.929 C 1075.899 585.104, 1077 582.977, 1077 582.201 C 1077 581.425, 1078.306 578.855, 1079.903 576.489 C 1081.499 574.123, 1083.073 571.345, 1083.400 570.314 C 1084.065 568.218, 1093.857 558.852, 1102.546 552 C 1115.962 541.421, 1135.022 522.547, 1138.673 516.228 C 1140.175 513.628, 1142.634 509.925, 1144.138 508 C 1145.641 506.075, 1148.520 501.350, 1150.534 497.500 C 1152.549 493.650, 1155.053 489.571, 1156.099 488.436 C 1157.145 487.300, 1158 485.872, 1158 485.262 C 1158 484.652, 1159.123 482.819, 1160.496 481.187 C 1164.320 476.643, 1173.767 456.147, 1175.606 448.404 C 1180.538 427.647, 1177.441 418.974, 1165.115 419.022 C 1161.699 419.035, 1157.793 419.819, 1155.141 421.022 M 1100.750 501.572 C 1096.274 505.814, 1096.063 507, 1099.784 507 C 1101.828 507, 1103.048 507.812, 1104.371 510.051 C 1105.761 512.405, 1106.476 512.850, 1107.499 512.001 C 1108.734 510.976, 1111.664 501.129, 1110.863 500.696 C 1110.663 500.588, 1109.494 499.938, 1108.264 499.250 C 1105.160 497.515, 1104.967 497.575, 1100.750 501.572" stroke="#68533d" fill="#68533d" fill-opacity="0.2" fill-rule="evenodd"/><path class="svg-region-VMl" d="M 814 599.990 L 804.500 600.523 799.250 605.809 C 796.362 608.716, 794 611.689, 794 612.415 C 794 613.141, 795.913 616.614, 798.250 620.133 C 800.587 623.652, 803.170 627.820, 803.989 629.395 C 804.807 630.971, 806.607 632.739, 807.989 633.324 C 809.370 633.908, 811.175 634.939, 812 635.615 C 814.099 637.333, 837.397 640.355, 842.818 639.611 C 847.955 638.907, 856.833 633.447, 859.943 629.080 C 861.314 627.155, 862 624.631, 862 621.517 C 862 617.168, 861.543 616.335, 855.431 609.532 C 850.218 603.731, 847.998 602.003, 844.681 601.163 C 839.343 599.811, 826.159 599.307, 814 599.990" stroke="#e59376" fill="#e59376" fill-opacity="0.2" fill-rule="evenodd"/><path class="svg-region-VMr" d="M 1026.500 577.912 C 1018.750 582.215, 1006.317 593.036, 1004.928 596.689 C 1004.437 597.980, 1002.956 599.447, 1001.635 599.948 C 998.541 601.125, 995 606.109, 995 609.288 C 995 612.421, 1002.033 619, 1005.382 619 C 1006.689 619, 1010.238 620.135, 1013.269 621.523 C 1016.941 623.204, 1021.401 624.248, 1026.640 624.651 L 1034.500 625.256 1043.500 620.624 C 1048.450 618.076, 1054.374 614.297, 1056.664 612.225 C 1060.418 608.830, 1060.855 607.943, 1061.105 603.221 C 1061.269 600.138, 1060.893 597.493, 1060.192 596.792 C 1059.536 596.136, 1059 594.079, 1059 592.219 C 1059 590.021, 1057.764 586.977, 1055.464 583.512 C 1051.101 576.939, 1050.622 576.562, 1044.807 575.144 C 1037.141 573.275, 1033.997 573.750, 1026.500 577.912" stroke="#e59376" fill="#e59376" fill-opacity="0.2" fill-rule="evenodd"/><path class="svg-region-Ol" d="M 457 359 C 456.175 359.533, 453.250 359.987, 450.500 360.009 C 447.750 360.030, 443.700 360.471, 441.500 360.988 C 439.300 361.506, 433 362.427, 427.500 363.036 C 420.656 363.794, 416.869 364.695, 415.500 365.891 C 414.400 366.852, 410.437 368.906, 406.694 370.456 C 402.950 372.005, 397.784 375.011, 395.212 377.136 C 392.641 379.261, 390.003 381, 389.352 381 C 388.700 381, 388.017 381.340, 387.833 381.755 C 387.650 382.170, 384.575 384.825, 381 387.655 C 377.425 390.485, 372.700 394.935, 370.500 397.545 C 363.992 405.265, 356.831 413.427, 355.624 414.500 C 353.510 416.380, 345 427.829, 345 428.793 C 345 429.322, 344.279 430.354, 343.397 431.086 C 341.220 432.892, 326 462.902, 326 465.387 C 326 466.185, 325.321 468.112, 324.491 469.669 C 323.661 471.226, 320.940 477.900, 318.445 484.500 C 315.949 491.100, 313.478 497.281, 312.954 498.236 C 312.429 499.191, 312 500.461, 312 501.058 C 312 501.655, 311.325 502.818, 310.500 503.643 C 309.675 504.468, 309 505.976, 309 506.995 C 309 508.013, 307.650 510.196, 306 511.846 C 304.350 513.496, 303 515.280, 303 515.811 C 303 516.341, 301.420 519.073, 299.488 521.881 C 297.557 524.689, 295.022 529.352, 293.857 532.243 C 292.691 535.134, 290.841 539.750, 289.745 542.500 C 287.137 549.045, 286.415 567.481, 287.866 590.500 C 288.742 604.394, 289.416 608.870, 291.553 615 C 292.991 619.125, 294.965 625.899, 295.938 630.054 C 297.974 638.739, 300.496 646.756, 302.998 652.500 C 303.957 654.700, 305.970 659.650, 307.472 663.500 C 308.975 667.350, 311.217 671.625, 312.455 673 C 313.694 674.375, 315.027 676.175, 315.419 677 C 318.619 683.736, 330.677 701, 332.181 701 C 332.632 701, 333 701.637, 333 702.416 C 333 703.195, 334.913 705.298, 337.250 707.089 C 339.588 708.881, 341.950 710.864, 342.500 711.497 C 343.050 712.129, 345.562 713.850, 348.081 715.320 C 350.601 716.790, 353.886 719.366, 355.382 721.045 C 357.989 723.970, 368.491 729.398, 378 732.734 C 383.019 734.495, 391.045 736.055, 411 739.150 C 425.513 741.401, 454.703 742.093, 476.500 740.702 C 482.550 740.316, 506.175 739.760, 529 739.465 C 551.825 739.170, 574.550 738.693, 579.500 738.404 C 584.450 738.114, 591.650 737.743, 595.500 737.578 C 600.193 737.376, 603.748 736.602, 606.288 735.227 C 608.371 734.100, 612.421 732.865, 615.288 732.484 C 618.154 732.103, 621.850 730.994, 623.500 730.021 C 626.156 728.454, 629.510 727.872, 644.224 726.427 C 646.272 726.225, 652.783 723.699, 658.693 720.813 C 668.231 716.154, 670.583 714.439, 679.646 705.532 C 686.925 698.379, 690.827 693.634, 693.242 689 C 697.983 679.902, 698.499 678.913, 700.399 675.275 C 703.706 668.944, 706.814 652.225, 707.329 638 C 707.737 626.753, 705.509 604.522, 703.020 595 C 702.517 593.075, 701.334 588.350, 700.390 584.500 C 699.447 580.650, 698.077 576.794, 697.346 575.930 C 696.614 575.067, 694.661 569.031, 693.004 562.517 C 691.348 556.003, 688.154 545.910, 685.906 540.087 C 676.894 516.738, 676 514.269, 676 512.724 C 676 511.841, 675.536 510.831, 674.968 510.480 C 674.401 510.130, 672.961 507.740, 671.768 505.171 C 665.539 491.750, 636.426 459.819, 615.084 443 C 611.943 440.525, 604.902 434.650, 599.437 429.946 C 593.971 425.241, 587.025 419.640, 584 417.500 C 580.975 415.360, 576.833 412.142, 574.796 410.348 C 571.384 407.345, 545.024 389.634, 538.374 385.876 C 536.793 384.983, 531.009 381.406, 525.521 377.927 C 513.464 370.286, 496.207 364.001, 481.972 362.066 C 476.762 361.358, 470.281 360.154, 467.568 359.389 C 461.795 357.763, 459.070 357.662, 457 359" stroke="#aa444d" fill="#aa444d" fill-opacity="0.2" fill-rule="evenodd"/><path class="svg-region-Or" d="M 1374.655 332.614 C 1358.436 334.693, 1337.915 340.267, 1332 344.202 C 1330.625 345.116, 1328.150 346.165, 1326.500 346.531 C 1323.115 347.284, 1313.958 350.489, 1311.272 351.861 C 1310.297 352.359, 1308.150 353.332, 1306.500 354.024 C 1295.365 358.690, 1284.823 365.586, 1275.999 373.973 C 1272.975 376.848, 1268.201 380.923, 1265.391 383.028 C 1260.770 386.489, 1237.204 412.400, 1234.579 416.904 C 1233.986 417.923, 1231.430 421.849, 1228.900 425.628 C 1226.370 429.408, 1223.737 433.567, 1223.050 434.871 C 1222.363 436.174, 1220.674 438.505, 1219.298 440.050 C 1215.953 443.804, 1206 459.165, 1206 460.573 C 1206 461.187, 1205.149 462.461, 1204.108 463.402 C 1203.067 464.344, 1200.595 468.351, 1198.613 472.307 C 1193.939 481.640, 1192.890 491.861, 1195.458 503.045 C 1196.743 508.641, 1197.014 512.744, 1196.544 519.500 C 1195.101 540.261, 1195.074 547.853, 1196.420 554.288 C 1197.176 557.902, 1198.086 561.330, 1198.442 561.906 C 1198.798 562.482, 1199.701 566.736, 1200.450 571.360 C 1201.243 576.263, 1203.148 582.629, 1205.020 586.634 C 1208.784 594.688, 1213.627 607.327, 1218.570 622 C 1221.805 631.601, 1226.096 641.621, 1229.706 648 C 1230.484 649.375, 1232.257 652.874, 1233.646 655.776 C 1240.901 670.937, 1250.486 679.816, 1261.944 681.989 C 1264.806 682.532, 1268.577 683.595, 1270.324 684.351 C 1276.762 687.136, 1284.026 688.098, 1299.575 688.223 C 1312.512 688.327, 1316.419 688.019, 1320.399 686.585 C 1323.093 685.614, 1328.268 684.770, 1331.899 684.710 C 1339.382 684.585, 1360.726 685.822, 1363 686.512 C 1369.041 688.345, 1383.351 690.014, 1388.500 689.486 C 1391.800 689.148, 1398.501 689.337, 1403.392 689.907 C 1408.283 690.476, 1412.783 690.618, 1413.392 690.222 C 1414.001 689.826, 1418.325 688.962, 1423 688.304 C 1436.183 686.446, 1450.965 681.621, 1469 673.291 C 1472.025 671.894, 1477.200 669.881, 1480.500 668.817 C 1483.800 667.754, 1487.850 666.289, 1489.500 665.563 C 1491.150 664.836, 1495.425 662.975, 1499 661.427 C 1508.697 657.229, 1520.858 650.143, 1526.500 645.403 C 1538.587 635.249, 1547.917 624.601, 1552.265 616 C 1553.238 614.075, 1554.682 611.375, 1555.474 610 C 1558.157 605.344, 1564 592.165, 1564 590.769 C 1564 590.006, 1564.661 588.509, 1565.468 587.441 C 1566.276 586.374, 1566.949 584.825, 1566.965 584 C 1566.990 582.722, 1570.059 574.478, 1573.107 567.500 C 1578.972 554.077, 1580.214 548.522, 1580.709 533.500 C 1581.140 520.421, 1580.925 517.357, 1579.031 509.572 C 1576.531 499.296, 1574.731 495.450, 1567.539 485.025 C 1564.683 480.886, 1561.779 475.475, 1561.086 473 C 1560.392 470.525, 1557.749 464.675, 1555.212 460 C 1552.675 455.325, 1549.782 449.925, 1548.784 448 C 1547.785 446.075, 1545.157 442.025, 1542.943 439 C 1540.730 435.975, 1538.159 432.410, 1537.231 431.077 C 1534.306 426.878, 1529.029 421.192, 1509.853 401.575 C 1499.598 391.084, 1489.427 380.250, 1487.251 377.500 C 1483.288 372.490, 1464.694 353.383, 1457.781 347.216 C 1451.622 341.721, 1433.905 334.517, 1420.566 332.083 C 1412.561 330.622, 1387.979 330.906, 1374.655 332.614" stroke="#aa444d" fill="#aa444d" fill-opacity="0.2" fill-rule="evenodd"/><path class="svg-region-BPCl" d="M 816.630 527.250 C 816.299 528.487, 816.022 531.750, 816.014 534.500 C 815.988 544.661, 822.674 554.185, 840.781 569.780 C 845.818 574.119, 847.365 574.947, 849.456 574.422 C 852.550 573.645, 852.774 571.020, 850.121 566.618 C 849.088 564.903, 847.689 561.769, 847.012 559.653 C 846.335 557.538, 845.158 554.613, 844.397 553.153 C 843.635 551.694, 843.010 549.922, 843.006 549.215 C 842.998 547.599, 839.960 542.759, 838.297 541.713 C 837.608 541.280, 835.592 538.805, 833.816 536.213 C 827.261 526.646, 818.076 521.856, 816.630 527.250" stroke="#83385f" fill="#83385f" fill-opacity="0.2" fill-rule="evenodd"/><path class="svg-region-BPCr" d="M 1023.195 518.750 C 1018.422 526.736, 1014.734 535.455, 1013.006 542.842 C 1011.787 548.054, 1007.760 556.412, 1005.920 557.550 C 1004.659 558.329, 1004.751 566, 1006.021 566 C 1006.956 566, 1014.828 561.248, 1016 559.976 C 1016.275 559.678, 1018.750 557.797, 1021.500 555.797 C 1027.502 551.431, 1043.603 534.175, 1044.929 530.686 C 1046.166 527.433, 1045.577 527, 1039.915 527 C 1032.571 527, 1032 526.534, 1032 520.548 C 1032 516.743, 1031.500 514.857, 1030.171 513.655 C 1029.165 512.745, 1028.092 512, 1027.786 512 C 1027.480 512, 1025.414 515.038, 1023.195 518.750" stroke="#83385f" fill="#83385f" fill-opacity="0.2" fill-rule="evenodd"/><path class="svg-region-ODMl" d="M 744.972 517.801 L 740.656 521.708 742.896 524.854 C 745.296 528.225, 747.067 528.755, 749.179 526.737 C 749.905 526.042, 751.763 524.665, 753.307 523.677 C 755.679 522.158, 756.066 521.308, 755.807 518.190 C 755.531 514.872, 755.186 514.469, 752.394 514.197 C 749.951 513.959, 748.366 514.729, 744.972 517.801" stroke="#999999" fill="#999999" fill-opacity="0.2" fill-rule="evenodd"/><path class="svg-region-ODMr" d="M 1100.532 501.501 C 1096.443 506.058, 1096.323 507, 1099.833 507 C 1102.204 507, 1103.111 507.629, 1104.161 510.002 C 1104.892 511.653, 1105.942 512.857, 1106.495 512.678 C 1107.893 512.225, 1109.710 508.206, 1110.531 503.750 C 1111.097 500.682, 1110.929 500, 1109.611 500 C 1108.725 500, 1108 499.550, 1108 499 C 1108 496.817, 1103.332 498.380, 1100.532 501.501" stroke="#999999" fill="#999999" fill-opacity="0.2" fill-rule="evenodd"/><path class="svg-region-HRl" d="M 647 369 C 644.671 371.329, 644.675 371.284, 646.064 378.201 C 647.949 387.595, 652.072 396.671, 659.601 408 C 666.472 418.340, 666.411 418.287, 682 427.498 C 685.575 429.610, 690.075 432.546, 692 434.023 C 699.085 439.458, 712.693 445.705, 728 450.549 C 731.025 451.506, 733.928 452.674, 734.450 453.145 C 734.972 453.615, 736.460 454, 737.755 454 C 740.233 454, 750.163 460.267, 753.405 463.878 C 755.666 466.396, 757.289 466.561, 759.040 464.452 C 762.104 460.760, 753.147 449.632, 743.408 445.030 C 739.881 443.364, 736.376 442, 735.620 442 C 734.864 442, 733.685 441.325, 733 440.500 C 732.315 439.675, 730.897 439, 729.849 439 C 728.801 439, 724.624 437.425, 720.568 435.500 C 716.511 433.575, 712.811 431.996, 712.346 431.990 C 711.881 431.985, 709.555 430.434, 707.178 428.545 C 704.801 426.655, 700.751 424.096, 698.178 422.859 C 689.479 418.675, 680.539 411.889, 676.192 406.169 C 672.161 400.865, 666.408 390.002, 660.665 376.849 C 656.509 367.332, 651.529 364.471, 647 369 M 777.655 479.829 C 774.857 482.921, 775.590 486.517, 779.712 489.914 C 781.754 491.597, 790.269 496.355, 798.634 500.487 C 811.862 507.021, 814.546 508, 819.222 508 C 825.429 508, 827 506.865, 827 502.380 C 827 499.724, 826.001 498.270, 821.300 494.080 C 818.166 491.286, 815.295 489, 814.922 489 C 814.548 489, 811.720 487.481, 808.637 485.625 C 804.557 483.168, 800.846 481.909, 794.998 481 C 790.579 480.312, 786.720 479.356, 786.423 478.875 C 785.436 477.279, 779.365 477.939, 777.655 479.829" stroke="#d9dba1" fill="#d9dba1" fill-opacity="0.2" fill-rule="evenodd"/><path class="svg-region-HRr" d="M 1178.172 351.770 C 1177.071 352.721, 1175.414 356.194, 1174.489 359.487 C 1172.442 366.771, 1170.856 369.924, 1165.782 376.794 C 1163.631 379.706, 1161.113 384.201, 1160.186 386.783 C 1158.097 392.599, 1157.168 393.854, 1148.767 402.205 C 1143.279 407.660, 1126.793 419, 1124.349 419 C 1124.025 419, 1119.586 421.491, 1114.484 424.535 C 1100.033 433.159, 1094.023 440.831, 1094.006 450.679 C 1094 453.693, 1096.105 457, 1098.029 457 C 1099.183 457, 1105.350 450.824, 1110.864 444.148 C 1113.265 441.242, 1116.190 438.438, 1117.364 437.917 C 1118.539 437.396, 1120.850 436.101, 1122.500 435.040 C 1124.150 433.978, 1127.300 432.159, 1129.500 430.997 C 1131.700 429.836, 1136.875 425.940, 1141 422.340 C 1145.125 418.740, 1150.750 414.341, 1153.500 412.565 C 1156.250 410.788, 1161.506 406.355, 1165.181 402.713 C 1170.380 397.559, 1172.775 394.140, 1175.980 387.295 C 1178.245 382.458, 1181.896 375.738, 1184.094 372.362 C 1190.643 362.301, 1190.649 355.969, 1184.113 352.270 C 1180.359 350.145, 1180.078 350.122, 1178.172 351.770 M 1075.500 459.293 C 1074.400 459.939, 1070.125 462.551, 1066 465.097 C 1061.875 467.643, 1057.464 470.050, 1056.197 470.447 C 1050.946 472.092, 1041.220 478.338, 1037.250 482.615 C 1033.434 486.725, 1033 487.701, 1033 492.162 C 1033 494.895, 1033.466 498.002, 1034.035 499.066 C 1035.543 501.883, 1040.536 501.637, 1042.494 498.650 C 1044.826 495.090, 1052.750 491.335, 1059.500 490.591 C 1062.800 490.227, 1067.396 489.013, 1069.713 487.894 C 1073.651 485.991, 1081.402 477.977, 1085.294 471.785 C 1087.585 468.139, 1087.521 461.782, 1085.171 459.655 C 1083.069 457.753, 1078.417 457.579, 1075.500 459.293" stroke="#d9dba1" fill="#d9dba1" fill-opacity="0.2" fill-rule="evenodd"/>
    </svg>