<svg xmlns="http://www.w3.org/2000/svg" width="1921" height="1027" viewBox="0 0 1921 1027" version="1.1">
    <path class="svg-region-V" d="M 849.500 212.607 C 846.200 213.325, 842.107 213.932, 840.404 213.956 C 838.701 213.980, 835.963 214.671, 834.320 215.490 C 829.973 217.659, 814.853 218.958, 792.296 219.101 C 777.706 219.194, 770.002 219.707, 763 221.052 C 757.775 222.056, 751.250 223.165, 748.500 223.517 C 745.750 223.869, 739.308 225.472, 734.183 227.079 C 729.059 228.685, 724.023 230, 722.992 230 C 721.961 230, 720.834 230.460, 720.486 231.022 C 720.139 231.585, 717.261 233.354, 714.091 234.954 C 708.308 237.874, 702.716 243.169, 701.555 246.826 C 701.213 247.903, 700.133 248.994, 699.154 249.250 C 697.919 249.573, 696.818 251.824, 695.558 256.607 C 694.560 260.398, 693.163 264.850, 692.455 266.500 C 691.747 268.150, 690.944 270.850, 690.670 272.500 C 690.396 274.150, 689.621 277.442, 688.948 279.815 C 687.793 283.887, 687.906 284.492, 690.957 290.565 C 693.623 295.869, 694.625 297, 696.661 297 C 698.020 297, 700.026 297.479, 701.120 298.064 C 702.214 298.650, 705.834 299.568, 709.165 300.104 C 712.496 300.640, 717.924 302.015, 721.227 303.158 C 724.530 304.301, 729.768 305.798, 732.866 306.485 C 735.965 307.172, 741.200 308.464, 744.500 309.356 C 747.800 310.248, 755.225 311.837, 761 312.888 C 766.775 313.938, 773.300 315.324, 775.500 315.968 C 777.700 316.612, 783.325 317.555, 788 318.063 C 792.675 318.572, 801.675 319.549, 808 320.235 C 823.281 321.890, 868.353 321.828, 883 320.130 C 901.682 317.965, 925.377 317.760, 947.500 319.571 C 958.500 320.471, 977.040 321.403, 988.700 321.642 C 1007.598 322.028, 1010.790 321.854, 1018.088 320.038 C 1022.591 318.917, 1027.748 318, 1029.548 318 C 1031.349 318, 1035.674 317.106, 1039.161 316.013 C 1042.647 314.920, 1046.290 314.020, 1047.255 314.013 C 1048.220 314.006, 1051.271 312.909, 1054.034 311.576 C 1059.529 308.925, 1068.687 306.455, 1076.500 305.515 C 1085.980 304.375, 1094.508 302.843, 1097.306 301.779 C 1099.312 301.015, 1100.422 301.022, 1101.203 301.803 C 1101.992 302.592, 1102.822 302.225, 1104.195 300.479 C 1105.240 299.151, 1107.289 297.487, 1108.747 296.782 C 1113.035 294.709, 1114.821 290.428, 1115.577 280.413 C 1116.058 274.038, 1115.879 270.157, 1114.979 267.413 C 1113.379 262.538, 1100.595 249.003, 1097.581 248.994 C 1096.436 248.990, 1094.150 248.249, 1092.500 247.346 C 1090.465 246.232, 1086.444 245.608, 1080 245.405 C 1071.318 245.132, 1068.455 244.651, 1059.500 241.964 C 1057.850 241.469, 1053.800 240.771, 1050.500 240.413 C 1047.027 240.036, 1041.855 238.485, 1038.220 236.729 C 1031.010 233.247, 1021.074 232.136, 1012.029 233.800 C 1007.872 234.566, 1005.712 234.487, 1003.029 233.475 C 1001.088 232.742, 995.071 231.651, 989.659 231.051 C 984.246 230.451, 977.271 229.124, 974.159 228.103 C 965.556 225.281, 964.070 225.050, 953.634 224.917 C 947.421 224.837, 943.439 225.221, 942.514 225.989 C 941.147 227.123, 933.957 228.433, 922.217 229.688 C 916.285 230.322, 907.849 228.152, 902 224.486 C 900.075 223.280, 895.911 221.069, 892.748 219.573 C 889.584 218.077, 886.357 216.214, 885.577 215.434 C 882.394 212.251, 859.410 210.450, 849.500 212.607" stroke="#dd8a8a" fill="#dd8a8a" fill-opacity="0.2" fill-rule="evenodd"/><path class="svg-region-DB" d="M 694.798 299.196 C 687.822 306.616, 685.938 316.313, 688.524 331.491 C 690.572 343.516, 691.049 344.853, 696.017 352.505 C 700.437 359.313, 707.194 364.774, 716.869 369.358 L 723.500 372.500 744.500 372.830 C 761.075 373.091, 767.396 372.804, 774.500 371.472 C 786.358 369.247, 805.501 368.092, 832.500 367.971 C 853.508 367.877, 873.771 366.299, 883.145 364.026 C 888.590 362.705, 912.452 359.066, 920.594 358.314 C 924.332 357.969, 930.518 358.403, 936.594 359.438 C 946.549 361.134, 950.642 362.158, 970 367.796 C 983.946 371.858, 998.482 374.669, 1009.500 375.436 C 1030.335 376.885, 1071.666 372.538, 1084 367.599 C 1085.925 366.828, 1090.200 365.653, 1093.500 364.988 C 1102.886 363.097, 1114.476 359.472, 1119.924 356.723 C 1121.257 356.050, 1123.619 353.499, 1125.174 351.054 C 1127.685 347.104, 1127.996 345.711, 1127.965 338.554 C 1127.944 333.877, 1127.384 329.516, 1126.628 328.154 C 1125.912 326.864, 1122.216 322.572, 1118.413 318.617 C 1114.611 314.662, 1110.319 309.868, 1108.876 307.963 C 1105.199 303.111, 1099.680 300.315, 1096.739 301.817 C 1095.508 302.446, 1088.200 303.879, 1080.500 305.003 C 1065.354 307.212, 1059.176 308.677, 1054.500 311.166 C 1050.692 313.192, 1036.186 317.095, 1029 318.026 C 1025.975 318.418, 1021.025 319.357, 1018 320.114 C 1010.439 322.004, 973.324 321.728, 947.500 319.589 C 925.375 317.757, 901.767 317.955, 883 320.130 C 867.966 321.873, 823.192 321.888, 807.500 320.156 C 800.900 319.428, 791.900 318.457, 787.500 317.998 C 783.100 317.540, 777.700 316.632, 775.500 315.981 C 773.300 315.330, 766.775 313.938, 761 312.886 C 755.225 311.835, 748.025 310.302, 745 309.479 C 741.975 308.656, 736.466 307.306, 732.757 306.479 C 729.048 305.653, 723.873 304.140, 721.257 303.119 C 718.641 302.097, 713.350 300.724, 709.500 300.068 C 705.650 299.412, 701.466 298.203, 700.202 297.383 C 698.042 295.981, 697.717 296.090, 694.798 299.196" stroke="#e8b1e4" fill="#e8b1e4" fill-opacity="0.2" fill-rule="evenodd"/><path class="svg-region-MB" d="M 899.500 361.089 C 896.750 361.564, 889.550 362.849, 883.500 363.943 C 866.906 366.944, 854.627 367.901, 831.500 367.996 C 806.470 368.099, 785.469 369.353, 774.500 371.401 C 769.404 372.352, 759.966 372.917, 748.500 372.956 L 730.500 373.018 737.739 376.631 C 747.131 381.319, 757.960 392.352, 760.411 399.732 C 764.670 412.554, 758.849 422.908, 746.247 424.927 C 743.636 425.345, 742.175 425.934, 743 426.236 C 743.825 426.537, 748.550 428.246, 753.500 430.034 C 778.343 439.006, 797.114 449.226, 806.450 458.865 C 810.489 463.034, 811.400 464.627, 811.400 467.515 C 811.400 472.237, 807.805 475.785, 801.961 476.830 L 797.500 477.628 801 479.817 C 802.925 481.021, 806.525 482.756, 809 483.672 C 811.475 484.589, 814.175 485.862, 815 486.502 C 815.825 487.141, 818.154 488.420, 820.175 489.344 C 822.196 490.267, 825.684 493.106, 827.925 495.652 L 832 500.282 832 497.114 C 832 494.331, 830.024 485.194, 826.975 473.884 C 825.299 467.667, 825.785 461.615, 828.253 457.952 C 832.220 452.066, 835.359 450.952, 848.656 450.713 C 862.525 450.464, 862.464 450.552, 855.876 440.359 C 848.256 428.569, 845.466 417.764, 846.961 405.839 C 849.206 387.931, 853.947 384.030, 895 366.301 C 909.445 360.063, 910.150 359.246, 899.500 361.089 M 1084.606 367.161 C 1079.887 369.901, 1050.185 375, 1038.941 375 C 1035.051 375, 1030.886 375.524, 1029.684 376.165 C 1025.302 378.501, 1016.880 387.524, 1012.457 394.621 C 1005.663 405.521, 1004.679 409.799, 1004.776 428 L 1004.860 443.500 1008.680 444.569 C 1010.781 445.156, 1013.625 446.129, 1015 446.730 C 1027.284 452.101, 1028.877 453.065, 1030.914 456.361 C 1032.886 459.552, 1032.992 460.492, 1032.135 467.178 C 1031.619 471.205, 1030.869 475.314, 1030.469 476.309 C 1029.888 477.753, 1031.005 477.434, 1036.005 474.729 C 1041.388 471.816, 1042.302 470.913, 1042.507 468.308 C 1042.823 464.295, 1043.410 463.360, 1050.988 454.804 C 1059.649 445.025, 1066.305 438.521, 1073.813 432.500 C 1080.537 427.108, 1088.642 422.270, 1103.742 414.634 C 1107.392 412.788, 1106.330 410.674, 1100.413 408 C 1093.877 405.047, 1090 400.510, 1090.001 395.817 C 1090.002 391.664, 1094.764 381.593, 1098.848 377.105 C 1100.548 375.237, 1101.682 373.295, 1101.369 372.788 C 1101.056 372.282, 1098.978 370.548, 1096.750 368.934 C 1092.502 365.857, 1087.987 365.198, 1084.606 367.161" stroke="#f9c6c6" fill="#f9c6c6" fill-opacity="0.2" fill-rule="evenodd"/><path class="svg-region-LBl" d="M 703.668 371.914 C 693.783 376.954, 689.065 383.353, 689.022 391.782 C 688.972 401.494, 694.128 407.494, 708.952 414.976 C 734.830 428.038, 753.352 428.395, 759.815 415.956 C 764.378 407.176, 761.185 396.285, 751.159 386.431 C 743.615 379.015, 735.374 374.536, 724.698 372.046 C 713.764 369.497, 708.475 369.463, 703.668 371.914" stroke="#79495c" fill="#79495c" fill-opacity="0.2" fill-rule="evenodd"/><path class="svg-region-LBr" d="M 1118 365.677 C 1103.100 370.397, 1091.737 382.076, 1090.299 394.150 C 1089.822 398.157, 1090.125 399.297, 1092.491 402.400 C 1094.002 404.380, 1095.677 406, 1096.214 406 C 1096.752 406, 1098.541 406.961, 1100.191 408.136 C 1102.692 409.917, 1105.058 410.355, 1114.411 410.768 L 1125.631 411.263 1129.066 408.359 C 1130.955 406.761, 1134.075 404.659, 1136 403.686 C 1142.071 400.619, 1143.460 399.615, 1148.187 394.876 C 1151.810 391.245, 1153.058 389.099, 1154.002 384.876 C 1155.125 379.855, 1155.033 379.126, 1152.608 373.827 C 1148.494 364.837, 1146.809 363.976, 1133.615 364.126 C 1127.122 364.200, 1120.629 364.845, 1118 365.677" stroke="#79495c" fill="#79495c" fill-opacity="0.2" fill-rule="evenodd"/><path class="svg-region-PP" d="M 970.500 444.056 C 965.062 444.949, 958.091 446.944, 956.500 448.064 C 955.950 448.451, 952.125 449.999, 948 451.503 C 937.903 455.186, 925.512 455.840, 910 453.509 C 898.192 451.735, 883.504 451.082, 853.176 450.984 C 837.622 450.934, 835.528 451.129, 832.676 452.898 C 825.739 457.202, 824.546 464.807, 828.425 480 C 829.337 483.575, 830.787 490.775, 831.647 496 C 833.050 504.532, 834.217 508.364, 837.246 514.395 C 838.262 516.416, 841.200 524.609, 843.560 532 C 845.107 536.844, 846.316 539.781, 848.703 544.500 C 850.540 548.133, 852.207 557.036, 852.073 562.500 C 852.018 564.700, 852.493 567.625, 853.128 569 C 856.210 575.681, 859.490 581.599, 860.609 582.500 C 861.292 583.050, 863.572 586.730, 865.675 590.678 C 871.643 601.878, 875.158 606.238, 882.792 611.915 C 896.328 621.980, 911.048 626.629, 915.885 622.366 C 923.706 615.472, 924.808 613.819, 926.036 607.140 C 926.707 603.488, 927.935 599.722, 928.765 598.770 C 930.172 597.157, 930.540 597.315, 934.227 601.115 C 936.402 603.355, 938.854 606.799, 939.676 608.768 C 941.111 612.201, 943.958 615.115, 948.417 617.715 C 949.563 618.383, 953.718 618.945, 957.650 618.965 C 967.962 619.016, 978.801 613.905, 988.566 604.387 C 992.452 600.599, 996.401 596.325, 997.340 594.888 C 999.400 591.739, 1004.512 576.850, 1006.450 568.356 C 1007.221 564.977, 1008.811 560.330, 1009.985 558.030 C 1011.703 554.662, 1011.879 553.560, 1010.891 552.368 C 1009.156 550.278, 1009.045 531.819, 1010.764 531.246 C 1011.483 531.006, 1012.675 532.372, 1013.528 534.412 C 1014.352 536.385, 1015.381 538, 1015.813 538 C 1016.246 538, 1017.428 534.513, 1018.441 530.250 C 1019.453 525.987, 1021.163 519.125, 1022.240 515 C 1024.567 506.091, 1025.295 502.934, 1027.314 493 C 1028.153 488.875, 1029.354 483.025, 1029.983 480 C 1030.612 476.975, 1031.552 471.183, 1032.070 467.129 C 1032.930 460.412, 1032.825 459.453, 1030.882 456.308 C 1029.434 453.967, 1026.942 452.043, 1023.125 450.321 C 1020.031 448.926, 1016.150 447.166, 1014.500 446.411 C 1007.821 443.355, 982.899 442.021, 970.500 444.056" stroke="#c4743d" fill="#c4743d" fill-opacity="0.2" fill-rule="evenodd"/><path class="svg-region-DMl" d="M 702.127 434.096 C 696.799 439.060, 697.054 442.057, 704.929 467 C 707.621 475.525, 711.171 486.775, 712.818 492 C 717.808 507.828, 723.624 520.884, 728.672 527.594 C 729.952 529.296, 731 531.015, 731 531.413 C 731 531.812, 733.595 535.819, 736.767 540.319 C 739.938 544.819, 743.268 549.653, 744.166 551.062 C 746.692 555.024, 765.086 574, 766.401 574 C 767.043 574, 768.416 575.462, 769.452 577.250 C 770.488 579.038, 772.374 581.759, 773.644 583.298 C 774.913 584.837, 776.676 587.622, 777.561 589.487 C 781.003 596.740, 796.957 605.911, 806.236 605.970 C 814.448 606.022, 824.778 602.912, 832.500 598.062 C 839.783 593.487, 851.946 583.969, 852.981 582.035 C 854.260 579.645, 854.317 574, 853.062 574 C 852.546 574, 852.178 572.987, 852.245 571.750 C 852.490 567.209, 851.975 564, 851 564 C 850.450 564, 850 564.895, 850 565.989 C 850 568.505, 841.336 580, 839.440 580 C 837.843 580, 834.933 577.859, 830.800 573.644 C 828.337 571.132, 828 570.037, 828 564.543 C 828 559.805, 828.602 557.165, 830.495 553.605 C 833.310 548.312, 837.630 544.079, 840.266 544.032 C 841.279 544.013, 842.737 542.522, 843.686 540.533 C 845.279 537.192, 845.240 536.766, 842.623 528.783 C 841.129 524.227, 839.104 518.700, 838.122 516.500 C 833.561 506.279, 833 504.823, 833 503.199 C 833 498.409, 817.483 485.815, 808.980 483.703 C 807.594 483.359, 804.444 481.755, 801.980 480.139 C 799.516 478.523, 794.767 476.510, 791.428 475.667 C 783.586 473.685, 770.261 467.357, 769.010 465.019 C 767.772 462.705, 756.135 454.372, 751.348 452.372 C 747.793 450.887, 739.522 446.262, 734.162 442.762 C 732.698 441.806, 729.925 440.236, 728 439.273 C 726.075 438.309, 723.422 436.279, 722.105 434.761 C 719.879 432.195, 719.169 432, 712.044 432 C 705.642 432, 704.006 432.346, 702.127 434.096" stroke="#68533d" fill="#68533d" fill-opacity="0.2" fill-rule="evenodd"/><path class="svg-region-DMr" d="M 1138.271 418.024 C 1134.862 419.688, 1131.718 421.600, 1131.286 422.274 C 1130.854 422.948, 1127.350 425.634, 1123.500 428.243 C 1119.650 430.852, 1112.900 436.415, 1108.500 440.605 C 1104.100 444.796, 1098.250 449.726, 1095.500 451.562 C 1092.750 453.399, 1088.488 456.330, 1086.028 458.077 C 1080.856 461.752, 1073.290 464.437, 1063.873 465.941 C 1060.229 466.523, 1055.631 467.674, 1053.655 468.499 C 1051.680 469.325, 1048.587 470.002, 1046.782 470.004 C 1044.977 470.006, 1041.925 470.994, 1040 472.200 C 1038.075 473.406, 1035.177 475.092, 1033.560 475.946 C 1030.394 477.619, 1029.912 478.788, 1027.975 489.500 C 1027.278 493.350, 1024.373 505.950, 1021.520 517.500 L 1016.331 538.500 1020.584 538.801 C 1025.030 539.117, 1026.897 540.820, 1028.472 546 C 1028.890 547.375, 1030.305 549.932, 1031.616 551.683 C 1034.244 555.192, 1034.670 558.225, 1032.750 559.743 C 1032.063 560.287, 1028.503 561.025, 1024.840 561.384 C 1017.590 562.095, 1015.808 561.257, 1013.900 556.236 C 1012.607 552.836, 1010.822 554.538, 1008.493 561.390 C 1006.688 566.699, 1006.690 566.873, 1008.574 569.548 C 1010.802 572.709, 1011.090 573.217, 1013.506 578.241 C 1017.970 587.523, 1035.390 590.863, 1064.144 587.951 C 1078.244 586.523, 1087.182 582.228, 1091.094 575 C 1098.161 561.944, 1109.039 547.183, 1120.607 534.950 C 1124.014 531.347, 1127.785 526.308, 1128.987 523.751 C 1130.189 521.194, 1131.809 518.574, 1132.586 517.928 C 1133.364 517.283, 1134 515.965, 1134 515 C 1134 514.035, 1134.675 512.685, 1135.500 512 C 1136.325 511.315, 1137 510.297, 1137 509.737 C 1137 508.425, 1141.260 499.677, 1142.261 498.934 C 1143.116 498.299, 1149.908 482.609, 1150.674 479.500 C 1150.945 478.400, 1151.507 476.600, 1151.923 475.500 C 1152.708 473.424, 1154.940 467.080, 1157.463 459.750 C 1163.393 442.526, 1164.630 424.428, 1160.198 419.711 C 1157.748 417.103, 1152.021 415, 1147.369 415 C 1145.775 415, 1141.681 416.361, 1138.271 418.024" stroke="#68533d" fill="#68533d" fill-opacity="0.2" fill-rule="evenodd"/><path class="svg-region-Ol" d="M 439.500 376.419 C 431.335 378.577, 421.675 382.036, 419.003 383.760 C 417.629 384.645, 413.579 386.908, 410.003 388.789 C 399.024 394.561, 396.645 395.948, 392.500 398.991 C 390.300 400.607, 386.923 402.797, 384.996 403.859 C 381.441 405.818, 370 417.299, 370 418.908 C 370 419.391, 369.296 420.056, 368.437 420.386 C 367.577 420.716, 367.144 421.424, 367.475 421.960 C 367.807 422.496, 367.137 423.512, 365.987 424.217 C 363.166 425.948, 353.033 439.199, 349.331 446 C 347.683 449.025, 345.818 452.400, 345.186 453.500 C 342.457 458.245, 335.393 474.646, 329.897 489 C 326.632 497.525, 323.070 506.425, 321.980 508.777 C 320.891 511.129, 320 513.985, 320 515.122 C 320 516.260, 319.325 518.498, 318.500 520.096 C 317.675 521.693, 316.325 524.307, 315.500 525.904 C 314.675 527.502, 314 529.607, 314 530.583 C 314 531.559, 313.577 533.740, 313.060 535.429 C 308.427 550.568, 307 556.066, 307 558.775 C 307 560.512, 306.256 563.491, 305.348 565.397 C 303.859 568.520, 303.808 570.826, 304.838 588.756 C 306.199 612.436, 308.257 622.015, 314.451 633.500 C 318.601 641.195, 326.014 652.992, 329.724 657.804 C 330.701 659.072, 332.523 661.976, 333.774 664.258 C 335.025 666.540, 337.277 669.778, 338.779 671.453 C 340.280 673.129, 342.304 675.736, 343.276 677.248 C 345.636 680.917, 360.020 695.327, 367.510 701.526 C 375.794 708.382, 392.605 716.627, 409.464 722.104 C 416.143 724.273, 422.672 725.439, 434.495 726.572 C 443.293 727.415, 451.168 727.929, 451.995 727.714 C 452.823 727.499, 461.150 727.695, 470.500 728.151 C 497.515 729.468, 505.003 729.927, 513 730.761 C 517.125 731.191, 524.550 731.424, 529.500 731.279 C 536.958 731.061, 562.702 730.883, 574.500 730.968 C 587.015 731.059, 602.169 730.113, 605.500 729.033 C 623.665 723.143, 629.432 720.550, 639.161 713.893 C 640.624 712.892, 644.374 710.691, 647.494 709.003 C 652.493 706.298, 660.207 700.542, 668.003 693.698 C 674.378 688.101, 680.155 678.561, 680.527 673.018 C 680.656 671.083, 681.680 666.064, 682.802 661.864 C 683.924 657.664, 685.372 648.889, 686.020 642.364 C 686.669 635.839, 687.574 629.533, 688.032 628.351 C 688.491 627.169, 688.620 625.264, 688.321 624.118 C 688.021 622.973, 688.543 618.904, 689.481 615.076 C 690.962 609.033, 691.043 606.542, 690.093 596.137 C 689.492 589.547, 689 577.829, 689 570.096 C 689 556.001, 687.650 543.144, 685.799 539.611 C 685.255 538.573, 684.157 535.423, 683.360 532.611 C 682.562 529.800, 681.550 526.600, 681.111 525.500 C 680.672 524.400, 679.532 521.025, 678.577 518 C 677.623 514.975, 674.908 508.450, 672.544 503.500 C 670.180 498.550, 666.811 491.208, 665.058 487.183 C 661.408 478.808, 652.703 465.506, 649.496 463.406 C 648.304 462.624, 645.945 460.076, 644.253 457.743 C 639.816 451.619, 626.192 437.943, 619.898 433.294 C 616.928 431.100, 613.901 428.586, 613.172 427.707 C 612.443 426.829, 609.518 424.657, 606.673 422.880 C 603.828 421.104, 600.260 418.518, 598.745 417.133 C 595.865 414.502, 591.248 411.822, 582 407.415 C 574.432 403.807, 573.017 403.234, 569 402.148 C 567.075 401.627, 561.225 399.654, 556 397.762 C 550.775 395.871, 544.475 394.012, 542 393.632 C 539.525 393.251, 534.125 391.849, 530 390.514 C 516.506 386.150, 502.720 382.157, 490 378.930 C 478.953 376.127, 475.582 375.720, 461 375.428 C 449.546 375.198, 442.971 375.501, 439.500 376.419" stroke="#aa444d" fill="#aa444d" fill-opacity="0.2" fill-rule="evenodd"/><path class="svg-region-Or" d="M 1345 337.691 C 1339.054 338.687, 1319.039 343.209, 1314 344.695 C 1310.975 345.587, 1307.600 347.103, 1306.500 348.065 C 1305.400 349.026, 1302.042 350.534, 1299.038 351.415 C 1296.034 352.297, 1292.209 354.311, 1290.538 355.892 C 1288.867 357.473, 1286.312 359.382, 1284.860 360.133 C 1283.408 360.885, 1278.980 364.538, 1275.020 368.250 C 1271.059 371.962, 1267.461 375, 1267.023 375 C 1266.585 375, 1262.758 378.938, 1258.520 383.750 C 1254.281 388.563, 1249.730 393.697, 1248.406 395.160 C 1247.083 396.623, 1246 398.122, 1246 398.491 C 1246 399.511, 1239.090 409.935, 1235.091 414.947 C 1230.571 420.612, 1227.459 425.202, 1225.374 429.278 C 1224.468 431.050, 1222.485 434.080, 1220.969 436.010 C 1219.452 437.941, 1213.670 448.585, 1208.119 459.664 C 1198.330 479.201, 1198.008 480.059, 1197.414 488.154 C 1196.929 494.755, 1197.349 499.595, 1199.419 511.300 C 1201.538 523.285, 1202.054 529.456, 1202.132 543.752 C 1202.219 559.824, 1202.614 564.818, 1204.592 574.828 C 1204.990 576.843, 1207.307 580.394, 1210.463 583.828 C 1219.899 594.093, 1222.956 599.701, 1234.100 627.185 C 1235.145 629.762, 1236 632.490, 1236 633.248 C 1236 634.005, 1236.918 636.523, 1238.039 638.845 C 1239.160 641.166, 1239.797 643.520, 1239.453 644.076 C 1239.109 644.632, 1239.276 645.630, 1239.825 646.294 C 1240.373 646.957, 1241.628 649.517, 1242.613 651.983 C 1250.945 672.840, 1272.420 688.311, 1298.322 692.115 C 1307.692 693.492, 1319.416 692.237, 1334 688.297 C 1343.017 685.861, 1345.930 685.179, 1362.500 681.624 C 1379.553 677.965, 1387.354 676.793, 1403.107 675.520 C 1412.348 674.773, 1421.392 673.707, 1423.205 673.150 C 1425.017 672.593, 1429.650 671.589, 1433.500 670.919 C 1441.418 669.541, 1447.948 667.455, 1456.313 663.628 C 1459.473 662.183, 1462.908 661, 1463.946 661 C 1464.984 661, 1465.983 660.641, 1466.167 660.202 C 1466.350 659.763, 1470.502 657.696, 1475.393 655.608 C 1480.284 653.520, 1485.234 650.915, 1486.393 649.819 C 1487.552 648.723, 1490.075 647.006, 1492 646.005 C 1493.925 645.003, 1496.822 642.792, 1498.437 641.092 C 1500.052 639.391, 1501.777 638, 1502.269 638 C 1502.761 638, 1505.085 636.425, 1507.435 634.500 C 1509.784 632.575, 1512.113 631, 1512.610 631 C 1513.874 631, 1525.096 621.318, 1533.803 612.716 C 1539.734 606.855, 1542.036 603.611, 1546.053 595.441 C 1548.774 589.909, 1551 584.873, 1551 584.250 C 1551 583.628, 1552.798 579.299, 1554.995 574.631 C 1560.113 563.757, 1561.967 555.748, 1561.985 544.426 C 1562 535.049, 1560.054 519.634, 1557.479 508.742 C 1556.667 505.309, 1555.489 500.250, 1554.861 497.500 C 1554.233 494.750, 1553.107 491.612, 1552.359 490.527 C 1551.612 489.443, 1551 487.770, 1551 486.811 C 1551 481.323, 1538.849 459.942, 1532.105 453.563 C 1530.397 451.948, 1529 450.127, 1529 449.518 C 1529 448.909, 1526.813 446.044, 1524.141 443.152 C 1521.468 440.260, 1518.655 436.719, 1517.891 435.283 C 1517.126 433.846, 1514.188 430.263, 1511.363 427.319 C 1508.538 424.376, 1504.938 420.490, 1503.363 418.684 C 1501.788 416.878, 1498.338 414.073, 1495.696 412.450 C 1493.054 410.828, 1488.760 408.094, 1486.154 406.376 C 1483.548 404.658, 1479.615 402.334, 1477.414 401.211 C 1472.840 398.878, 1459.857 387.086, 1456.552 382.263 C 1451.984 375.599, 1426.109 358.775, 1411.500 352.971 C 1387.123 343.286, 1373.882 338.792, 1367.177 337.927 C 1360.379 337.050, 1349.518 336.934, 1345 337.691" stroke="#aa444d" fill="#aa444d" fill-opacity="0.2" fill-rule="evenodd"/><path class="svg-region-BPCl" d="M 843.158 541 C 841.938 542.650, 840.391 544.014, 839.720 544.032 C 837.576 544.087, 833.069 548.765, 830.495 553.605 C 828.585 557.198, 828 559.796, 828 564.686 C 828 570.962, 828.081 571.153, 832.592 575.537 C 835.117 577.992, 838.010 580, 839.020 580 C 841.105 580, 850 568.915, 850 566.318 C 850 565.405, 850.734 563.846, 851.632 562.854 C 852.933 561.416, 853.051 560.489, 852.215 558.276 C 851.638 556.749, 850.908 553.335, 850.594 550.689 C 850.279 548.044, 849.342 545.199, 848.511 544.368 C 847.680 543.537, 847 541.764, 847 540.429 C 847 537.195, 845.845 537.366, 843.158 541" stroke="#83385f" fill="#83385f" fill-opacity="0.2" fill-rule="evenodd"/><path class="svg-region-BPCr" d="M 1009.749 531.697 C 1009.510 532.139, 1009.409 536.550, 1009.524 541.500 C 1009.724 550.094, 1009.906 550.763, 1013.563 556.332 L 1017.393 562.164 1024.446 561.471 C 1028.326 561.090, 1032.063 560.323, 1032.750 559.767 C 1034.712 558.179, 1034.220 554.417, 1031.645 551.327 C 1030.350 549.772, 1028.752 546.848, 1028.094 544.830 C 1026.545 540.076, 1025.383 539.205, 1020.082 538.819 C 1017.127 538.604, 1015.427 537.931, 1014.852 536.750 C 1014.383 535.788, 1013.630 534.239, 1013.179 533.310 C 1012.240 531.378, 1010.392 530.509, 1009.749 531.697" stroke="#83385f" fill="#83385f" fill-opacity="0.2" fill-rule="evenodd"/><path class="svg-region-HRl" d="M 710.758 425.976 C 709.376 427.063, 708.008 428.863, 707.717 429.976 C 707.227 431.849, 707.655 432, 713.449 432 C 719.079 432, 719.951 432.284, 722.105 434.813 C 723.422 436.359, 725.962 438.214, 727.750 438.934 C 729.538 439.654, 731 440.608, 731 441.054 C 731 441.500, 732.004 442.184, 733.231 442.573 C 734.458 442.963, 736.595 444.053, 737.981 444.997 C 743.601 448.826, 746.697 450.565, 750.612 452.095 C 755.636 454.058, 767.673 462.520, 769.019 465.035 C 770.325 467.475, 785.808 474.826, 792.193 476.037 C 801.096 477.725, 804.629 477.303, 808.184 474.127 C 810.692 471.886, 811.400 470.451, 811.400 467.608 C 811.400 464.505, 810.534 463.087, 805.587 458.088 C 799.962 452.404, 783.581 441.833, 776 438.994 C 774.075 438.274, 770.590 436.845, 768.257 435.820 C 757.092 430.916, 748.050 427.682, 743.500 426.967 C 740.750 426.535, 736.700 425.701, 734.500 425.114 C 732.300 424.528, 726.623 424.037, 721.885 424.024 C 714.795 424.004, 712.825 424.350, 710.758 425.976" stroke="#d9dba1" fill="#d9dba1" fill-opacity="0.2" fill-rule="evenodd"/><path class="svg-region-HRr" d="M 1153 388.752 C 1153 391.372, 1136.764 404.969, 1133.579 405.016 C 1132.985 405.025, 1130.977 406.375, 1129.114 408.016 C 1126.136 410.642, 1124.986 411, 1119.543 411 C 1113.766 411, 1104.968 413.138, 1102.356 415.176 C 1101.727 415.667, 1098.577 417.407, 1095.356 419.043 C 1080.342 426.668, 1067.689 436.091, 1058.225 446.693 C 1055.076 450.221, 1050.764 454.996, 1048.641 457.304 C 1045.049 461.211, 1042 466.565, 1042 468.968 C 1042 470.557, 1050.615 470.190, 1054.782 468.424 C 1056.827 467.557, 1061.200 466.405, 1064.500 465.864 C 1070.651 464.855, 1080.295 461.983, 1083.762 460.127 C 1084.832 459.555, 1087.686 457.432, 1090.104 455.410 C 1092.522 453.388, 1095.526 451.266, 1096.779 450.693 C 1098.033 450.121, 1102.758 446.116, 1107.279 441.794 C 1115.740 433.707, 1126.918 425, 1128.842 425 C 1129.440 425, 1130.382 424.154, 1130.936 423.120 C 1132.425 420.338, 1141.776 415.809, 1147.475 415.111 C 1152.351 414.513, 1152.521 414.376, 1155.681 408.500 C 1159.828 400.787, 1160.228 393.502, 1156.686 390.174 C 1154.304 387.937, 1153 387.434, 1153 388.752" stroke="#d9dba1" fill="#d9dba1" fill-opacity="0.2" fill-rule="evenodd"/>
    </svg>