<svg xmlns="http://www.w3.org/2000/svg" width="1921" height="1027" viewBox="0 0 1921 1027" version="1.1">
    <path class="svg-region-V" d="M 860.297 226.095 C 859.465 226.919, 826.261 231.977, 821.329 232.031 C 819.773 232.048, 816.250 233.169, 813.500 234.522 C 810.750 235.875, 806.700 236.993, 804.500 237.006 C 802.300 237.020, 796.956 237.924, 792.623 239.015 C 788.291 240.107, 782.652 241, 780.091 241 C 772.171 241, 755.627 246.601, 743.049 253.540 C 736.528 257.139, 734.939 258.614, 730.307 265.372 C 727.396 269.618, 724.749 274.309, 724.424 275.796 C 723.828 278.524, 720.961 285.075, 719.958 286 C 719.660 286.275, 718.795 288.428, 718.036 290.785 C 717.277 293.142, 715.629 296.098, 714.373 297.354 C 712.362 299.365, 709.300 308.634, 710.312 309.646 C 710.522 309.855, 712.357 309.331, 714.391 308.481 C 716.425 307.631, 719.756 306.782, 721.794 306.594 C 723.832 306.406, 726.741 305.671, 728.259 304.962 C 730.297 304.008, 731.602 303.951, 733.259 304.744 C 738.924 307.456, 768.829 316.065, 781 318.488 C 806.168 323.498, 811.053 324.110, 829.500 324.559 C 839.950 324.814, 850.750 325.283, 853.500 325.601 C 856.250 325.919, 865.250 326.340, 873.500 326.537 C 881.750 326.733, 892.325 327.156, 897 327.477 C 901.675 327.797, 914.445 328.280, 925.377 328.550 C 936.310 328.819, 945.591 329.247, 946.002 329.501 C 946.413 329.755, 950.968 330.229, 956.125 330.553 C 961.281 330.878, 966.175 331.371, 967 331.650 C 967.825 331.928, 973.225 332.555, 979 333.042 C 984.775 333.530, 992.650 334.348, 996.500 334.862 C 1000.350 335.375, 1014.075 335.678, 1027 335.535 C 1047.793 335.304, 1052.055 334.966, 1064 332.598 C 1077.408 329.941, 1091.586 324.980, 1099.500 320.177 C 1103.689 317.635, 1110 311.604, 1110 310.144 C 1110 309.675, 1111.096 308.109, 1112.436 306.663 C 1113.863 305.124, 1115.148 302.194, 1115.539 299.591 C 1116.137 295.599, 1115.839 294.596, 1112.599 289.715 C 1109.363 284.839, 1107.803 283.654, 1097.366 278.142 C 1090.971 274.764, 1085.432 272, 1085.056 272 C 1084.681 272, 1076.077 269.260, 1065.937 265.910 C 1040.391 257.472, 991.123 247.243, 962.500 244.434 C 959.200 244.110, 952.900 243.213, 948.500 242.441 C 944.100 241.669, 939.150 241.030, 937.500 241.022 C 933.373 241.001, 909.420 234.444, 907.550 232.823 C 907.028 232.370, 905.592 232, 904.359 232 C 903.126 232, 901.840 231.550, 901.500 231 C 901.160 230.450, 899.585 230, 898 230 C 896.415 230, 894.882 229.617, 894.593 229.150 C 893.461 227.318, 861.900 224.508, 860.297 226.095" stroke="#dd8a8a" fill="#dd8a8a" fill-opacity="0.2" fill-rule="evenodd"/><path class="svg-region-DB" d="M 726.726 305.584 C 725.201 306.412, 723.555 306.843, 723.070 306.543 C 722.584 306.243, 719.445 306.851, 716.093 307.894 C 712.742 308.937, 710 309.552, 710 309.260 C 710 308.969, 709.047 309.941, 707.883 311.421 C 705.984 313.836, 705.809 315.090, 706.182 323.623 C 706.416 328.959, 707.078 333.434, 707.690 333.817 C 708.291 334.193, 709.489 336.750, 710.354 339.500 C 713.518 349.570, 715.255 354, 716.039 354 C 716.480 354, 717.143 355.375, 717.512 357.055 C 717.999 359.274, 719.856 361.327, 724.292 364.555 C 727.651 367, 730.738 369, 731.150 369 C 731.562 369, 733.835 370.238, 736.200 371.750 C 745.124 377.457, 744.307 377.019, 753.500 381.027 C 758.426 383.175, 765.235 385.098, 765.825 384.508 C 766.066 384.267, 767.087 384.511, 768.094 385.050 C 772.575 387.448, 796.215 389.171, 816.995 388.613 C 831.736 388.217, 835.842 387.753, 843 385.671 C 859.935 380.745, 872.296 376.913, 873.881 376.097 C 874.771 375.638, 877.299 374.938, 879.499 374.540 C 883.076 373.892, 889.833 371.402, 898.500 367.537 C 902.744 365.645, 915.255 363.170, 923.500 362.592 C 929.658 362.160, 956.253 363.384, 964.500 364.479 C 967.997 364.943, 981.660 369.582, 994.500 374.664 C 1010.733 381.089, 1033.219 385.394, 1045.500 384.428 C 1058.011 383.444, 1063.015 382.786, 1063.460 382.064 C 1063.725 381.636, 1066.767 380.732, 1070.221 380.056 C 1073.674 379.379, 1079.875 377.108, 1084 375.009 C 1088.125 372.909, 1093.525 370.663, 1096 370.017 C 1101.107 368.684, 1116.740 362.636, 1122 359.959 C 1129.978 355.898, 1136.455 346.947, 1136.455 339.981 C 1136.455 335.888, 1133.472 331.224, 1128.360 327.326 C 1125.279 324.976, 1123.522 324.552, 1113.680 323.788 C 1099.619 322.696, 1092.292 323.438, 1085.137 326.678 C 1078.705 329.591, 1060.977 333.443, 1047 334.965 C 1038.043 335.940, 1000.012 335.640, 993.500 334.543 C 991.850 334.265, 985.397 333.580, 979.160 333.022 C 972.922 332.463, 967.522 331.832, 967.160 331.618 C 966.797 331.405, 962.046 330.939, 956.601 330.582 C 951.157 330.226, 946.361 329.723, 945.942 329.464 C 945.524 329.206, 936.929 328.791, 926.841 328.542 C 916.753 328.293, 903.325 327.782, 897 327.405 C 890.675 327.029, 880.550 326.611, 874.500 326.475 C 868.450 326.340, 853.625 325.756, 841.555 325.176 C 829.485 324.597, 819.295 324.317, 818.911 324.555 C 818.527 324.792, 810.178 323.597, 800.357 321.900 C 777.512 317.952, 775.614 317.574, 769 315.662 C 765.975 314.787, 760.350 313.196, 756.500 312.125 C 752.650 311.055, 745.384 308.789, 740.352 307.090 C 729.859 303.545, 730.380 303.603, 726.726 305.584" stroke="#e8b1e4" fill="#e8b1e4" fill-opacity="0.2" fill-rule="evenodd"/><path class="svg-region-MB" d="M 756 382.966 C 756 383.470, 756.439 384.153, 756.976 384.485 C 758.972 385.719, 768.524 401.157, 775.092 413.763 C 779.428 422.086, 788.995 431.872, 796.280 435.436 C 801.481 437.981, 802.803 438.210, 809.887 437.800 C 824.992 436.926, 830.615 430.781, 833.390 412.115 C 835.078 400.762, 834.831 401.211, 845.341 390.344 L 852.263 383.189 843.381 385.740 C 834.881 388.183, 833.385 388.292, 808.500 388.294 C 787.477 388.295, 781.064 387.966, 775 386.574 C 770.875 385.628, 766.064 384.661, 764.309 384.425 C 762.555 384.189, 759.967 383.558, 758.559 383.023 C 757.051 382.449, 756 382.426, 756 382.966" stroke="#f9c6c6" fill="#f9c6c6" fill-opacity="0.2" fill-rule="evenodd"/><path class="svg-region-PP" d="M 848 446.032 C 829.758 449.239, 824.501 462.164, 830.471 489.126 C 833.182 501.367, 835.194 508.622, 836.953 512.500 C 837.451 513.600, 839.526 518.325, 841.563 523 C 843.600 527.675, 846.624 534.425, 848.283 538 C 849.942 541.575, 851.644 545.850, 852.064 547.500 C 852.484 549.150, 853.695 552.773, 854.755 555.551 C 856.148 559.202, 856.879 564.576, 857.392 574.935 C 858.057 588.372, 858.269 589.492, 860.790 592.883 C 862.268 594.872, 864.383 597.274, 865.489 598.220 C 866.595 599.165, 868.290 600.709, 869.256 601.650 C 870.945 603.297, 874.908 605.030, 881.714 607.098 C 883.481 607.635, 885.201 608.516, 885.535 609.056 C 885.868 609.596, 888.368 611.166, 891.089 612.545 C 893.810 613.924, 898.419 617.178, 901.331 619.776 C 906.295 624.205, 913.669 629.827, 918.418 632.805 C 921.157 634.522, 933.347 633.645, 939.184 631.311 C 945.643 628.729, 958.988 621.158, 962.384 618.148 C 969.313 612.009, 980.549 601.336, 982.279 599.250 C 983.305 598.013, 984.813 597, 985.630 597 C 987.721 597, 995.987 592.299, 999.164 589.303 C 1001.251 587.335, 1001.982 585.460, 1002.538 580.645 C 1002.928 577.265, 1003.615 573.530, 1004.063 572.344 C 1005.453 568.672, 1007.339 553.873, 1007.422 546 C 1007.481 540.275, 1008.135 536.962, 1010.182 532 C 1011.657 528.425, 1015.375 517.688, 1018.444 508.139 C 1024.009 490.826, 1024.023 490.753, 1023.379 481.598 C 1022.985 475.989, 1023.220 468.992, 1023.984 463.612 C 1025.738 451.256, 1025.173 450.320, 1014.201 447.407 C 1006.964 445.485, 1004.477 445.612, 992.806 448.500 C 987.249 449.875, 981.528 451, 980.093 451 C 978.658 451, 973.802 452.302, 969.302 453.893 C 964.802 455.485, 960.951 456.617, 960.744 456.410 C 960.537 456.204, 956.809 457.164, 952.460 458.544 C 937.408 463.321, 923.235 462.683, 882.320 455.386 C 881.121 455.172, 879.525 454.382, 878.773 453.630 C 878.022 452.879, 876.303 451.933, 874.953 451.528 C 873.604 451.123, 871.375 450.070, 870 449.187 C 868.625 448.305, 864.800 447.277, 861.500 446.904 C 858.200 446.531, 854.825 446.004, 854 445.733 C 853.175 445.463, 850.475 445.597, 848 446.032" stroke="#c4743d" fill="#c4743d" fill-opacity="0.2" fill-rule="evenodd"/><path class="svg-region-DMl" d="M 705.073 429.528 C 701.924 431.257, 699 437.341, 699 442.164 C 699 444.257, 700.510 450.589, 702.356 456.235 C 704.202 461.881, 706.716 470.735, 707.945 475.910 C 709.173 481.086, 711.209 487.611, 712.471 490.410 C 713.732 493.210, 716.196 499.424, 717.946 504.220 C 722.818 517.570, 733.407 536.962, 740.427 545.390 C 748.806 555.449, 758.541 566.691, 763.932 572.535 C 771.892 581.163, 777.197 587.722, 779.500 591.782 C 780.600 593.722, 782.175 595.668, 783 596.107 C 791.891 600.839, 801.322 602.383, 816 601.510 C 822.722 601.110, 828.370 600.272, 829.593 599.492 C 830.745 598.759, 834.318 597.673, 837.535 597.078 C 840.752 596.483, 843.635 595.644, 843.942 595.213 C 844.249 594.782, 847.530 592.646, 851.233 590.465 C 857.798 586.599, 857.963 586.401, 857.892 582.500 L 857.820 578.500 856.881 581.750 C 855.948 584.982, 852.896 586.259, 851.500 584 C 851.160 583.450, 850.009 583, 848.941 583 C 847.873 583, 847 582.580, 847 582.067 C 847 581.554, 846.070 580.839, 844.932 580.479 C 843.365 579.981, 841.867 580.811, 838.735 583.911 C 836.464 586.160, 833.996 588, 833.252 588 C 832.507 588, 831.191 586.313, 830.326 584.250 C 828.281 579.369, 828.926 559.391, 831.312 553.750 C 832.835 550.149, 835.200 548.896, 836.500 551 C 836.840 551.550, 840.466 552, 844.559 552 C 848.853 552, 852 552.423, 852 553 C 852 553.550, 852.498 554, 853.107 554 C 853.770 554, 853.924 553.298, 853.492 552.250 C 853.095 551.288, 852.425 549.066, 852.004 547.312 C 851.583 545.559, 850.312 542.184, 849.180 539.812 C 840.196 520.995, 833.734 504.584, 832.125 496.500 C 831.577 493.750, 830.313 487.607, 829.316 482.848 L 827.502 474.197 823.522 473.663 C 821.333 473.369, 816.157 473.768, 812.021 474.549 C 800.179 476.784, 791.021 477.057, 787.513 475.279 C 785.856 474.440, 780.585 470.442, 775.799 466.396 C 771.014 462.349, 764.489 457.390, 761.299 455.376 C 751.918 449.451, 740.651 442.075, 738.547 440.480 C 737.472 439.666, 736.165 439, 735.641 439 C 735.117 439, 733.296 437.955, 731.594 436.679 C 729.892 435.402, 725.833 432.927, 722.572 431.179 C 716.086 427.700, 709.530 427.082, 705.073 429.528" stroke="#68533d" fill="#68533d" fill-opacity="0.2" fill-rule="evenodd"/><path class="svg-region-DMr" d="M 1130.056 419.138 C 1124.662 420.420, 1121.068 422.979, 1109.957 433.450 C 1099.791 443.028, 1092.672 448.985, 1089.105 450.895 C 1087.672 451.663, 1086.275 452.589, 1086 452.955 C 1084.733 454.638, 1075.337 459.074, 1072.103 459.516 C 1070.121 459.787, 1061.075 460.182, 1052 460.395 C 1040.537 460.664, 1033.755 461.292, 1029.784 462.452 C 1024.450 464.011, 1024.023 464.362, 1023.394 467.715 C 1023.023 469.691, 1023.005 475.659, 1023.353 480.976 C 1023.983 490.592, 1023.960 490.726, 1019.002 506.072 C 1016.260 514.557, 1013.323 523.656, 1012.475 526.291 C 1011.626 528.926, 1011.273 531.626, 1011.688 532.291 C 1012.104 532.956, 1012.535 534.104, 1012.647 534.842 C 1012.895 536.484, 1012.315 536.095, 1019.456 539.407 C 1022.732 540.926, 1026.704 543.256, 1028.283 544.585 C 1029.862 545.913, 1031.724 547, 1032.422 547 C 1033.119 547, 1034.488 547.882, 1035.464 548.960 C 1038.052 551.820, 1036.728 555.515, 1032.059 558.462 C 1029.913 559.818, 1027.349 562.293, 1026.363 563.963 C 1025.376 565.633, 1023.933 567, 1023.155 567 C 1022.377 567, 1018.642 563.782, 1014.855 559.849 C 1011.067 555.916, 1007.747 552.920, 1007.476 553.191 C 1007.205 553.461, 1006.522 557.366, 1005.957 561.867 C 1005.393 566.368, 1004.524 571.122, 1004.026 572.432 C 1003.528 573.742, 1002.849 577.443, 1002.518 580.657 C 1001.945 586.217, 1002.051 586.597, 1004.708 588.500 C 1006.872 590.050, 1009.187 590.518, 1015 590.580 C 1021.945 590.654, 1031.137 592.033, 1048.373 595.584 C 1057.928 597.553, 1061.116 597.375, 1068.250 594.477 C 1077.707 590.634, 1081.505 587.587, 1083.560 582.193 C 1084.543 579.612, 1086.836 575.475, 1088.656 573 C 1090.476 570.525, 1093.618 565.133, 1095.639 561.017 C 1097.659 556.901, 1100.929 551.894, 1102.906 549.890 C 1110.188 542.508, 1112.891 539.237, 1118.413 531.127 C 1121.519 526.567, 1125.798 520.510, 1127.924 517.668 C 1132.756 511.208, 1144.416 487.455, 1146.952 478.909 C 1147.998 475.384, 1150.074 469.350, 1151.566 465.500 C 1159.714 444.475, 1160.939 437.563, 1157.931 429.584 C 1156.877 426.788, 1154.999 423.245, 1153.757 421.712 C 1151.672 419.136, 1150.854 418.892, 1143 418.503 C 1138.325 418.271, 1132.500 418.557, 1130.056 419.138" stroke="#68533d" fill="#68533d" fill-opacity="0.2" fill-rule="evenodd"/><path class="svg-region-Ol" d="M 471.668 369.665 C 470.985 370.349, 456.530 371.907, 445 372.539 C 433.699 373.159, 421.510 374.818, 417.435 376.289 C 415.271 377.071, 410.800 378.531, 407.500 379.534 C 400.413 381.688, 383.058 390.685, 382.330 392.583 C 382.051 393.310, 379.684 395.278, 377.070 396.955 C 372.638 399.799, 363 410.780, 363 412.985 C 363 413.526, 360.188 418.245, 356.750 423.472 C 346.673 438.794, 339.614 449.980, 334.959 458 C 332.565 462.125, 328.272 468.918, 325.420 473.095 C 322.567 477.272, 319.925 481.662, 319.547 482.851 C 319.170 484.039, 317.849 486.246, 316.611 487.755 C 313.187 491.932, 307.511 502.754, 305.026 509.844 C 302.690 516.510, 302.519 517.296, 300.974 528.500 C 300.443 532.350, 299.794 536.850, 299.532 538.500 C 297.840 549.140, 297.515 554.114, 297.640 567.500 C 297.910 596.360, 300.529 613.755, 305.648 620.683 C 306.942 622.434, 308 624.356, 308 624.953 C 308 626.960, 313.160 634.239, 318.352 639.554 C 324.950 646.310, 325.893 647.467, 331.049 655.134 C 333.403 658.635, 337.491 663.598, 340.133 666.163 C 344.936 670.826, 349 676.887, 349 679.388 C 349 681.618, 368.974 700.340, 374.396 703.193 C 375.553 703.801, 376.725 704.594, 377 704.955 C 378.071 706.358, 393.715 714.788, 397.500 716.001 C 399.700 716.706, 401.865 717.904, 402.311 718.662 C 402.758 719.421, 403.543 719.783, 404.056 719.466 C 404.569 719.148, 407.304 720.052, 410.133 721.473 C 414.587 723.710, 424.228 726.387, 437.077 728.954 C 439.044 729.347, 441.142 729.970, 441.738 730.338 C 444.536 732.067, 462.264 734.688, 480 735.994 C 498.703 737.371, 543.415 735.962, 556.498 733.584 C 560.103 732.928, 566.566 732.291, 578 731.464 C 590.737 730.542, 602.132 726.300, 616 717.316 C 617.925 716.069, 620.400 714.195, 621.500 713.151 C 622.600 712.108, 624.737 710.470, 626.250 709.512 C 627.763 708.554, 629.010 707.259, 629.021 706.635 C 629.044 705.411, 636.193 700, 637.788 700 C 638.783 700, 647.480 690.354, 652.364 683.833 C 655.279 679.942, 661 666.143, 661 663.005 C 661 661.979, 662.094 657.620, 663.432 653.319 C 664.769 649.019, 666.754 638.750, 667.842 630.500 C 668.931 622.250, 670.575 613.475, 671.496 611 C 673.032 606.875, 674.357 601.668, 677.167 588.710 C 678.565 582.262, 679.029 557.951, 677.896 550.500 C 677.394 547.200, 676.562 541.800, 676.047 538.500 C 675.533 535.200, 674.455 528.225, 673.654 523 C 672.852 517.775, 670.552 508.325, 668.542 502 C 664.876 490.462, 664.560 489.592, 661.602 482.849 C 660.721 480.841, 660 478.926, 660 478.594 C 660 478.262, 658.041 475.180, 655.646 471.745 C 653.251 468.310, 650.483 463.925, 649.496 462 C 647.048 457.230, 633.894 441.079, 629.948 438 C 628.186 436.625, 623.355 432.662, 619.212 429.193 C 615.069 425.724, 610.313 422.179, 608.642 421.315 C 606.972 420.451, 603.014 417.665, 599.847 415.122 C 587.851 405.495, 583.396 402.202, 580.071 400.509 C 578.185 399.549, 574.485 397.059, 571.850 394.975 C 569.214 392.892, 564.907 390.421, 562.279 389.484 C 559.650 388.547, 555.250 386.860, 552.500 385.735 C 549.750 384.610, 545.700 383.121, 543.500 382.426 C 541.300 381.731, 533.650 379.046, 526.500 376.459 C 519.350 373.872, 510.125 371.160, 506 370.431 C 498.236 369.059, 472.840 368.493, 471.668 369.665" stroke="#aa444d" fill="#aa444d" fill-opacity="0.2" fill-rule="evenodd"/><path class="svg-region-Or" d="M 1350.898 339.406 C 1350.679 339.609, 1346.900 340.018, 1342.500 340.315 C 1338.100 340.611, 1332.700 341.484, 1330.500 342.255 C 1328.300 343.026, 1323.125 344.222, 1319 344.913 C 1314.875 345.603, 1309.700 346.856, 1307.500 347.696 C 1305.300 348.537, 1302.150 349.736, 1300.500 350.362 C 1298.850 350.988, 1296.375 352.314, 1295 353.310 C 1293.625 354.305, 1290.035 356.671, 1287.023 358.567 C 1281.335 362.147, 1258 385.467, 1258 387.571 C 1258 388.231, 1256.875 389.507, 1255.500 390.408 C 1254.125 391.309, 1253 392.505, 1253 393.066 C 1253 394.041, 1245.939 403.983, 1243.182 406.889 C 1237.145 413.254, 1214.336 444.954, 1211.376 451.094 C 1207.552 459.028, 1206.308 461.440, 1203.688 466.006 C 1199.544 473.227, 1198 481.034, 1198 494.770 C 1198 504.148, 1198.576 509.691, 1200.392 517.810 C 1201.708 523.689, 1203.109 530.975, 1203.507 534 C 1203.904 537.025, 1205.066 541.722, 1206.090 544.438 C 1207.113 547.154, 1208.226 552.779, 1208.562 556.938 C 1209.318 566.297, 1210.181 569.288, 1215.216 580 C 1223.139 596.857, 1225.546 601.247, 1228.294 603.852 C 1232.188 607.542, 1236.503 615.215, 1247.499 638 C 1249.490 642.125, 1253.088 649.325, 1255.495 654 C 1257.903 658.675, 1259.901 663.272, 1259.936 664.216 C 1259.971 665.159, 1261.237 667.282, 1262.750 668.932 C 1267.494 674.110, 1272.460 680.119, 1273.500 681.940 C 1275.771 685.918, 1287.241 694.954, 1290.845 695.604 C 1292.855 695.967, 1295.400 696.741, 1296.500 697.325 C 1297.600 697.909, 1301.875 698.511, 1306 698.663 C 1310.125 698.814, 1314.175 699.001, 1315 699.079 C 1319.529 699.503, 1333.666 698.609, 1334.643 697.836 C 1335.766 696.949, 1339.051 696.422, 1348 695.695 C 1350.475 695.493, 1354.975 694.806, 1358 694.167 C 1366.469 692.378, 1370.032 691.848, 1376 691.487 C 1395.589 690.302, 1401.331 689.787, 1408.126 688.602 C 1412.320 687.870, 1416.250 686.964, 1416.859 686.587 C 1417.468 686.211, 1420.953 685.687, 1424.602 685.423 C 1428.252 685.159, 1432.027 684.521, 1432.992 684.004 C 1433.957 683.488, 1436.840 682.596, 1439.399 682.023 C 1441.958 681.449, 1446.374 679.860, 1449.213 678.490 C 1452.052 677.121, 1454.902 676, 1455.546 676 C 1456.191 676, 1459.248 674.650, 1462.340 673 C 1465.432 671.350, 1468.608 670, 1469.398 670 C 1470.187 670, 1470.985 669.546, 1471.170 668.991 C 1471.354 668.437, 1474.679 666.691, 1478.558 665.113 C 1486.049 662.064, 1495.570 655.872, 1506.082 647.213 C 1509.612 644.305, 1514.145 640.603, 1516.155 638.986 C 1520.183 635.747, 1536.530 617.225, 1539.540 612.491 C 1541.785 608.959, 1547.218 601.715, 1548.160 600.997 C 1549.430 600.028, 1557.764 582.453, 1559.302 577.500 C 1561.287 571.105, 1563.751 559.061, 1564.518 552 C 1565.331 544.523, 1563.350 520.126, 1561.776 518.230 C 1560.419 516.595, 1558.471 510.156, 1557.169 503 C 1556.718 500.525, 1555.146 496.254, 1553.675 493.508 C 1552.204 490.762, 1551 487.899, 1551 487.144 C 1551 486.390, 1550.144 484.136, 1549.098 482.136 C 1548.053 480.136, 1546.652 477.048, 1545.987 475.273 C 1545.299 473.440, 1538.239 465.450, 1529.638 456.771 C 1521.312 448.370, 1511.513 438.347, 1507.863 434.498 C 1501.272 427.549, 1499.050 425.473, 1484.875 413.021 C 1480.819 409.457, 1476.150 405.037, 1474.500 403.199 C 1465.115 392.741, 1458.124 386.629, 1447.111 379.250 C 1440.339 374.712, 1434.382 371, 1433.875 371 C 1433.367 371, 1430.703 369.453, 1427.953 367.562 C 1422.587 363.870, 1412.980 359.110, 1406.500 356.931 C 1404.300 356.191, 1401.790 355.004, 1400.921 354.293 C 1400.053 353.582, 1399.050 353, 1398.693 353 C 1398.336 353, 1394.771 351.482, 1390.772 349.626 C 1386.772 347.771, 1381.700 345.677, 1379.500 344.973 C 1377.300 344.269, 1374.128 343.109, 1372.451 342.395 C 1370.774 341.681, 1366.274 340.822, 1362.451 340.487 C 1358.628 340.151, 1354.554 339.688, 1353.398 339.457 C 1352.243 339.225, 1351.118 339.203, 1350.898 339.406" stroke="#aa444d" fill="#aa444d" fill-opacity="0.2" fill-rule="evenodd"/><path class="svg-region-BPCl" d="M 831.244 553.750 C 829.041 558.746, 828.755 583.787, 830.872 586.343 C 832.935 588.833, 834.367 588.398, 838.844 583.921 C 841.912 580.852, 843.429 580.001, 844.962 580.488 C 846.083 580.844, 847 581.554, 847 582.067 C 847 582.580, 847.681 583, 848.514 583 C 849.346 583, 850.861 583.521, 851.881 584.158 C 852.901 584.795, 854.470 585.034, 855.368 584.689 C 856.756 584.156, 856.988 582.304, 856.919 572.281 C 856.850 562.174, 856.530 559.932, 854.665 556.500 L 852.490 552.500 844.996 552.201 C 840.875 552.037, 837.074 551.474, 836.551 550.951 C 834.693 549.093, 832.876 550.051, 831.244 553.750" stroke="#83385f" fill="#83385f" fill-opacity="0.2" fill-rule="evenodd"/><path class="svg-region-BPCr" d="M 1009.071 534.312 C 1007.339 538.869, 1006.769 543.975, 1007.471 548.654 C 1008.065 552.613, 1009.145 554.299, 1014.833 560.140 C 1018.500 563.905, 1022.175 566.985, 1023 566.986 C 1023.825 566.986, 1025.559 565.432, 1026.853 563.531 C 1028.147 561.631, 1030.720 559.183, 1032.570 558.091 C 1034.421 556.999, 1036.213 554.999, 1036.553 553.646 C 1037.332 550.540, 1035.494 547, 1033.102 547 C 1032.097 547, 1029.717 545.763, 1027.812 544.250 C 1025.907 542.737, 1021.908 540.393, 1018.924 539.040 C 1015.941 537.686, 1013.354 536.490, 1013.175 536.381 C 1012.996 536.272, 1012.732 535.379, 1012.588 534.396 C 1012.180 531.618, 1010.115 531.568, 1009.071 534.312" stroke="#83385f" fill="#83385f" fill-opacity="0.2" fill-rule="evenodd"/>
    </svg>