<svg xmlns="http://www.w3.org/2000/svg" width="1921" height="1027" viewBox="0 0 1921 1027" version="1.1">
    <path class="svg-region-V" d="M 935.664 226.828 C 932.069 230.581, 927.118 231.460, 911.145 231.181 C 901.168 231.007, 897.857 230.564, 893.939 228.879 C 890.201 227.270, 887.989 226.940, 884.294 227.437 C 881.657 227.792, 866.900 228.527, 851.500 229.071 C 822.669 230.088, 820.252 230.238, 816 231.270 C 814.625 231.603, 810.125 232.647, 806 233.588 C 801.875 234.529, 796.143 236.368, 793.263 237.673 C 790.382 238.979, 785.882 240.481, 783.263 241.011 C 775.524 242.577, 771.846 243.692, 765.500 246.396 C 762.200 247.802, 758.715 248.963, 757.755 248.976 C 755.832 249.002, 745.812 259.135, 742.782 264.117 C 741.727 265.853, 739.958 269.570, 738.851 272.377 C 737.745 275.184, 736.366 277.774, 735.788 278.131 C 734.470 278.946, 735.587 285.430, 737.276 286.769 C 737.949 287.303, 740.188 288.043, 742.250 288.415 C 744.313 288.787, 746 289.443, 746 289.874 C 746 290.869, 755.125 293, 759.385 293 C 761.296 293, 764.958 294.409, 768.343 296.448 C 775.540 300.781, 778.226 301.591, 790 302.975 C 815.354 305.956, 833.034 308.738, 834 309.899 C 834.275 310.230, 836.975 311.562, 840 312.860 C 847.840 316.224, 869.309 317.216, 916.611 316.402 C 941.324 315.977, 959.430 316.132, 968.111 316.843 C 975.475 317.446, 991.400 318.455, 1003.500 319.085 C 1023.691 320.137, 1025.844 320.428, 1029.678 322.616 C 1033.488 324.790, 1034.996 325, 1046.806 325 C 1057.096 325, 1060.011 324.692, 1061 323.500 C 1061.995 322.301, 1064.976 322.001, 1075.872 322.004 C 1087.727 322.007, 1089.926 322.267, 1092.774 324.004 C 1094.575 325.102, 1096.470 326, 1096.986 326 C 1098.680 326, 1100.525 317.255, 1102.635 299.216 C 1103.246 293.991, 1103.205 293.885, 1098.950 289.838 C 1095.089 286.165, 1086.107 281.035, 1083.493 281.010 C 1082.939 281.004, 1079.650 278.527, 1076.184 275.504 C 1072.718 272.482, 1068.896 269.782, 1067.691 269.505 C 1066.486 269.228, 1061.900 268.342, 1057.500 267.536 C 1047.307 265.669, 1040.669 263.800, 1038.840 262.282 C 1038.048 261.625, 1035.501 260.784, 1033.178 260.413 C 1030.856 260.041, 1028.714 259.346, 1028.419 258.869 C 1028.124 258.391, 1026.784 258, 1025.441 258 C 1024.098 258, 1023 257.600, 1023 257.111 C 1023 256.623, 1021.313 255.906, 1019.250 255.520 C 1017.188 255.133, 1013.925 254.111, 1012 253.250 C 1010.075 252.388, 1005.800 250.898, 1002.500 249.940 C 994.539 247.629, 989.650 245.708, 988.830 244.571 C 988.462 244.059, 985.762 243.029, 982.830 242.282 C 977.075 240.814, 971.967 237.847, 968 233.668 C 966.407 231.990, 964.412 231.023, 962.500 231.002 C 959.173 230.966, 952.979 229.027, 950.866 227.360 C 950.115 226.767, 948.090 226.015, 946.367 225.689 C 944.643 225.363, 942.161 224.828, 940.851 224.499 C 939.055 224.048, 937.779 224.621, 935.664 226.828" stroke="#dd8a8a" fill="#dd8a8a" fill-opacity="0.2" fill-rule="evenodd"/><path class="svg-region-DB" d="M 722.744 289.987 C 720.485 291.764, 720 292.933, 720 296.604 C 720 299.645, 719.523 301.246, 718.500 301.638 C 717.675 301.955, 717 302.693, 717 303.278 C 717 303.864, 716.402 305.053, 715.671 305.921 C 714.115 307.771, 712 316.716, 712 321.450 C 712 327.151, 716.814 333.731, 731.673 348.342 C 746.343 362.767, 750.321 365.574, 762.500 370.097 C 765.800 371.323, 769.039 372.738, 769.698 373.242 C 770.357 373.746, 773.282 374.554, 776.198 375.038 C 779.114 375.523, 783.750 376.457, 786.500 377.116 C 789.340 377.796, 801.604 378.477, 814.890 378.692 C 835.891 379.033, 839.101 378.864, 846.330 377.036 C 850.758 375.916, 855.478 375, 856.819 375 C 860.448 375, 887.659 366.057, 900.561 360.625 C 919.858 352.500, 939.643 350.130, 955.813 354.007 C 960.386 355.103, 965.336 355.995, 966.813 355.990 C 969.611 355.979, 985.284 359.398, 990.500 361.156 C 992.150 361.712, 997.100 362.992, 1001.500 363.999 C 1005.900 365.006, 1010.795 366.329, 1012.377 366.939 C 1016.103 368.374, 1041.082 371.995, 1047.282 371.998 C 1057.641 372.003, 1071.323 365.169, 1078.777 356.266 C 1081.100 353.492, 1083 350.973, 1083 350.669 C 1083 349.684, 1091.446 336.576, 1093.250 334.761 C 1096.092 331.901, 1095.885 327.640, 1092.739 324.250 C 1090.762 322.119, 1089.908 322.002, 1076.576 322.032 C 1065.786 322.056, 1062.047 322.406, 1060.559 323.532 C 1059.101 324.634, 1055.613 325, 1046.551 325 C 1035.779 325, 1034.002 324.745, 1029.992 322.626 C 1025.914 320.471, 1023.472 320.146, 1003.500 319.096 C 991.400 318.460, 975.650 317.507, 968.500 316.979 C 961.350 316.450, 931.650 316.100, 902.500 316.203 C 856.140 316.365, 848.999 316.189, 845.500 314.800 C 843.300 313.927, 839.925 312.602, 838 311.856 C 836.075 311.110, 834.275 310.230, 834 309.899 C 833.044 308.750, 816.992 306.211, 790 302.941 C 780.336 301.770, 772.968 299.753, 770.713 297.660 C 768.079 295.215, 763.068 293, 760.172 293 C 755.846 293, 746.627 290.789, 745.788 289.551 C 745.396 288.973, 740.668 288.349, 735.282 288.164 C 726.474 287.862, 725.213 288.045, 722.744 289.987" stroke="#e8b1e4" fill="#e8b1e4" fill-opacity="0.2" fill-rule="evenodd"/><path class="svg-region-PP" d="M 826.492 448.655 C 823.746 450.116, 820.952 452.028, 820.282 452.905 C 818.444 455.311, 818.760 459.425, 821 462.273 C 822.100 463.671, 823 465.112, 823 465.474 C 823 466.139, 827.569 472.509, 829.593 474.665 C 830.195 475.305, 831.248 477.330, 831.934 479.165 C 832.620 480.999, 833.996 484.300, 834.993 486.500 C 835.989 488.700, 837.109 491.962, 837.481 493.750 C 837.854 495.538, 838.543 497, 839.012 497 C 839.481 497, 840.159 497.926, 840.519 499.059 C 840.878 500.191, 843.026 503.904, 845.293 507.309 C 852.696 518.432, 853.949 522.751, 853.976 537.231 L 854 549.962 856.509 550.592 C 859.447 551.329, 860.763 555.097, 859.211 558.327 C 858.637 559.522, 857.650 562.750, 857.019 565.500 C 856.387 568.250, 855.029 571.939, 854 573.697 C 852.170 576.825, 852.171 576.979, 854.046 580.859 C 855.100 583.040, 856.247 587.250, 856.595 590.214 L 857.229 595.603 864.364 597.380 C 872.670 599.448, 879.128 600.622, 887.500 601.585 C 890.800 601.964, 894.013 602.677, 894.640 603.169 C 895.267 603.660, 899.317 604.488, 903.640 605.008 C 907.963 605.528, 913.525 606.696, 916 607.604 C 919.112 608.745, 923.894 609.273, 931.500 609.316 C 940.614 609.366, 943.529 608.987, 948.500 607.104 C 951.800 605.854, 955.850 604.582, 957.500 604.277 C 959.150 603.973, 960.725 603.448, 961 603.112 C 962.480 601.301, 978.247 594, 980.679 594 C 982.247 594, 985.098 593.187, 987.015 592.194 C 988.932 591.200, 993.087 589.532, 996.250 588.487 L 1002 586.586 1002 579.949 C 1002 576.048, 1002.778 571.051, 1003.888 567.825 C 1005.551 562.993, 1005.625 561.749, 1004.510 557.418 C 1003.814 554.713, 1003.403 551.635, 1003.598 550.579 C 1003.792 549.522, 1004.208 546.407, 1004.523 543.656 C 1004.837 540.906, 1005.292 538.336, 1005.534 537.945 C 1006.347 536.629, 1006.947 530.573, 1007.427 518.849 C 1007.913 506.971, 1010.070 499.049, 1014.718 492.069 C 1015.659 490.656, 1017.621 487.025, 1019.079 484 C 1020.536 480.975, 1023.081 476.969, 1024.734 475.098 C 1027.483 471.987, 1027.785 470.920, 1028.273 462.598 C 1028.903 451.843, 1028.206 450.555, 1021.190 449.511 C 1018.610 449.127, 1016.023 448.421, 1015.441 447.942 C 1013.883 446.662, 996.833 446.448, 994.500 447.679 C 992.368 448.805, 982.181 450.417, 967.500 451.952 C 954.097 453.353, 946.196 454.813, 942.488 456.573 C 937.219 459.073, 923.171 458.085, 915.302 454.660 C 910.975 452.777, 906.147 451.679, 899.302 451.023 C 893.911 450.505, 884.854 449.164, 879.176 448.041 C 871.015 446.427, 864.940 446, 850.169 446 C 831.867 446, 831.382 446.054, 826.492 448.655" stroke="#c4743d" fill="#c4743d" fill-opacity="0.2" fill-rule="evenodd"/><path class="svg-region-DMl" d="M 720.233 432.061 C 718.436 432.614, 714.949 434.999, 712.483 437.362 L 708 441.657 708 450.308 C 708 455.902, 708.666 461.173, 709.887 465.229 C 713.854 478.416, 715.911 484.730, 718.412 491.397 C 719.836 495.190, 721 499.128, 721 500.147 C 721 501.166, 721.344 502, 721.763 502 C 722.183 502, 723.069 504.282, 723.731 507.071 C 724.800 511.569, 729.588 522.541, 735.106 533.136 C 736.148 535.136, 737 537.441, 737 538.258 C 737 540.965, 746.598 554.411, 752.596 560.105 C 760.042 567.175, 767 574.741, 767 575.767 C 767 576.200, 768.807 578.342, 771.015 580.527 C 773.224 582.712, 776.690 587.425, 778.718 591 C 780.746 594.575, 783.101 598.048, 783.952 598.718 C 785.867 600.225, 804.723 600.383, 814 598.969 C 825.514 597.215, 842.309 595.596, 849.500 595.547 C 856.419 595.501, 856.504 595.468, 856.823 592.685 C 857.216 589.253, 854.257 579.458, 852.348 577.874 C 851.285 576.992, 850.559 577.087, 849.231 578.284 C 848.279 579.142, 846.150 580.176, 844.500 580.581 C 842.850 580.986, 840.108 582.371, 838.406 583.659 C 834.761 586.416, 831.476 586.684, 830.560 584.297 C 830.201 583.360, 830.203 580.225, 830.564 577.331 C 831.114 572.936, 831.766 571.653, 834.520 569.553 C 836.915 567.726, 838.004 565.937, 838.497 563.020 C 839.426 557.521, 846.627 550, 850.963 550 L 854 550 854 537.678 C 854 524.932, 852.653 518.323, 848.971 513 C 845.522 508.014, 838.161 495.080, 837.485 492.818 C 837.104 491.543, 835.988 488.700, 835.005 486.500 C 834.022 484.300, 832.426 480.587, 831.457 478.250 C 830.489 475.913, 829.385 474, 829.006 474 C 828.626 474, 827.467 472.425, 826.430 470.500 C 825.393 468.575, 824.198 467, 823.773 467 C 823.348 467, 823 466.507, 823 465.904 C 823 465.302, 822.115 463.567, 821.034 462.048 C 819.533 459.940, 817.655 458.988, 813.084 458.018 C 806.418 456.603, 805.367 456.748, 795.747 460.403 L 788.993 462.969 783.247 460.860 C 780.086 459.700, 775.025 456.907, 772 454.653 C 768.975 452.399, 763.125 448.348, 759 445.650 C 754.875 442.952, 749.700 439.505, 747.500 437.990 C 745.300 436.475, 741.700 434.482, 739.500 433.560 C 734.559 431.491, 724.606 430.717, 720.233 432.061" stroke="#68533d" fill="#68533d" fill-opacity="0.2" fill-rule="evenodd"/><path class="svg-region-DMr" d="M 1127.500 421.209 C 1125.850 421.788, 1123.790 422.877, 1122.921 423.630 C 1122.053 424.384, 1121.005 425, 1120.594 425 C 1120.182 425, 1113.360 431.188, 1105.434 438.750 C 1088.041 455.345, 1085.358 456.933, 1074.651 456.972 C 1067.130 456.999, 1066.680 456.869, 1063.876 453.868 L 1060.950 450.735 1050.725 451.427 C 1045.101 451.808, 1038.098 452.282, 1035.163 452.480 C 1032.228 452.678, 1029.592 453.074, 1029.306 453.360 C 1029.020 453.646, 1028.546 457.845, 1028.253 462.690 C 1027.764 470.784, 1027.466 471.785, 1024.594 475 C 1022.875 476.925, 1018.417 484.642, 1014.689 492.149 L 1007.910 505.798 1007.452 516.649 C 1006.940 528.793, 1006.228 536.172, 1005.317 538.762 C 1004.818 540.180, 1004.953 540.270, 1006.053 539.250 C 1008.696 536.798, 1011.702 537.985, 1018.082 544 C 1023.364 548.979, 1025.047 550.003, 1027.973 550.015 C 1033.105 550.038, 1034.347 551.143, 1033.513 554.942 C 1032.997 557.290, 1033.265 558.636, 1034.527 560.030 C 1037.964 563.827, 1035.876 565, 1025.679 565 C 1013.051 565, 1010.572 563.419, 1006.813 552.970 C 1005.335 548.861, 1004.063 546.400, 1003.986 547.500 C 1003.910 548.600, 1003.690 550.328, 1003.499 551.341 C 1003.307 552.353, 1003.754 555.188, 1004.493 557.641 C 1005.694 561.632, 1005.628 562.713, 1003.869 567.923 C 1002.482 572.028, 1001.991 575.768, 1002.201 580.608 L 1002.500 587.472 1019 587.543 C 1028.075 587.582, 1040.496 588.221, 1046.603 588.963 C 1057.539 590.291, 1057.825 590.274, 1065.603 587.795 C 1069.946 586.411, 1075.304 584.730, 1077.509 584.059 C 1082.812 582.445, 1091.648 576.385, 1095.225 571.907 C 1096.804 569.931, 1099.167 565.656, 1100.477 562.407 C 1102.550 557.263, 1103.558 556.086, 1108.276 553.295 C 1114.337 549.710, 1118.671 544.633, 1120.700 538.745 C 1121.446 536.579, 1123.951 532.038, 1126.267 528.653 C 1132.799 519.108, 1140.852 502.645, 1145.176 490 C 1147.338 483.675, 1149.983 476.670, 1151.054 474.434 C 1152.124 472.198, 1153 469.018, 1153 467.368 C 1153 464.105, 1154.120 457.033, 1156.638 444.390 C 1158.145 436.828, 1158.138 435.932, 1156.540 431.121 C 1154.624 425.352, 1152.525 423.809, 1143.338 421.416 C 1137.064 419.782, 1131.771 419.713, 1127.500 421.209" stroke="#68533d" fill="#68533d" fill-opacity="0.2" fill-rule="evenodd"/><path class="svg-region-Ol" d="M 477.917 369.985 C 473.196 370.365, 468.862 370.967, 468.287 371.323 C 466.641 372.340, 446.250 375, 440.076 375.003 C 433.954 375.005, 410.833 378.148, 404.496 379.838 C 402.298 380.425, 396.675 381.876, 392 383.063 C 382.225 385.544, 371.989 389.927, 368.265 393.225 C 358.205 402.134, 351.534 408.936, 350.340 411.500 C 349.572 413.150, 346.257 418.325, 342.973 423 C 339.689 427.675, 337.002 431.915, 337.001 432.421 C 337 432.928, 336.390 434.053, 335.646 434.921 C 334.901 435.790, 332.988 438.975, 331.396 442 C 327.984 448.479, 325.479 452.345, 321.137 457.827 C 316.426 463.776, 305.152 487.786, 304.493 493.275 C 304.185 495.839, 303.274 499.808, 302.467 502.094 C 301.660 504.381, 301 507.253, 301 508.477 C 301 509.701, 299.604 516.057, 297.897 522.601 C 294.962 533.856, 294.787 535.582, 294.660 554.500 C 294.533 573.482, 295.024 578.696, 298.026 590.250 C 298.562 592.313, 299.481 595.913, 300.069 598.250 C 301.497 603.926, 303.968 612.029, 305.025 614.500 C 305.496 615.600, 306.375 618.975, 306.980 622 C 307.586 625.036, 309.939 630.636, 312.231 634.500 C 318.262 644.667, 332.448 662.536, 337.310 666.089 C 349.361 674.895, 368.931 687.031, 372 687.602 C 373.925 687.960, 377.793 689.321, 380.596 690.626 C 383.400 691.932, 386.347 693, 387.146 693 C 387.946 693, 389.028 693.408, 389.550 693.906 C 394.004 698.152, 409.874 704.116, 423 706.477 C 427.675 707.317, 434.200 708.681, 437.500 709.507 C 440.800 710.332, 448 711.904, 453.500 712.999 C 459 714.094, 465.525 715.419, 468 715.943 C 475.646 717.563, 483.107 718.346, 493 718.564 C 509.752 718.935, 538.358 720.839, 543 721.892 C 550.073 723.497, 583.659 723.258, 591.685 721.546 C 601.752 719.399, 615.879 712.075, 628.396 702.516 C 632.971 699.021, 644.330 685.234, 647.089 679.826 C 650.868 672.417, 655 657.748, 655 651.738 C 655 646.450, 655.712 642.085, 659.115 626.500 C 659.715 623.750, 660.987 617.675, 661.942 613 C 662.896 608.325, 664.604 602.406, 665.739 599.847 C 667.367 596.176, 669.727 589.272, 671.498 583 C 671.576 582.725, 672.205 580.475, 672.896 578 C 673.587 575.525, 674.793 571.572, 675.576 569.215 C 677.199 564.330, 677.430 555.164, 676.060 550 C 675.550 548.075, 674.629 540.733, 674.014 533.684 C 673.400 526.635, 672.516 519.885, 672.049 518.684 C 671.583 517.483, 670.461 513.575, 669.556 510 C 666.327 497.251, 659.758 478.423, 656.902 473.735 C 655.306 471.114, 654 468.596, 654 468.140 C 654 467.683, 653.100 466.495, 652 465.500 C 650.900 464.505, 650 463.126, 650 462.438 C 650 461.060, 641.128 452.749, 637.529 450.756 C 636.282 450.065, 633.516 448.535, 631.381 447.356 C 629.246 446.177, 626.600 444.212, 625.500 442.990 C 624.400 441.767, 621.040 439.676, 618.034 438.343 C 615.028 437.010, 612.323 435.522, 612.023 435.037 C 611.723 434.552, 609.683 433.093, 607.489 431.795 C 598.030 426.196, 594.096 423.086, 587.527 416.010 C 571.476 398.724, 559.549 390.391, 534.500 378.966 C 527.643 375.838, 525.722 375.180, 511.500 371.077 C 504.104 368.944, 494.671 368.637, 477.917 369.985" stroke="#aa444d" fill="#aa444d" fill-opacity="0.2" fill-rule="evenodd"/><path class="svg-region-BPCl" d="M 846.232 551.331 C 843.069 553.087, 839.286 558.959, 838.451 563.407 C 837.945 566.105, 836.837 567.744, 834.468 569.297 C 831.508 571.237, 831.119 572.064, 830.516 577.696 C 830.148 581.132, 830.133 584.406, 830.482 584.972 C 831.588 586.760, 836.015 586.088, 839.317 583.631 C 841.068 582.329, 843.647 580.993, 845.050 580.662 C 846.452 580.332, 849.409 578.361, 851.621 576.281 C 854.911 573.187, 855.866 571.410, 856.875 566.500 C 857.554 563.200, 858.592 559.522, 859.182 558.327 C 860.693 555.269, 859.461 551.357, 856.761 550.633 C 853.164 549.669, 848.689 549.966, 846.232 551.331" stroke="#83385f" fill="#83385f" fill-opacity="0.2" fill-rule="evenodd"/><path class="svg-region-BPCr" d="M 1005.917 539.600 C 1004.312 541.533, 1004.532 545.552, 1006.648 552.954 C 1009.472 562.834, 1012.949 565, 1025.982 565 C 1033.165 565, 1035.184 564.684, 1035.643 563.487 C 1035.963 562.655, 1035.628 561.257, 1034.900 560.379 C 1034.172 559.502, 1033.559 556.920, 1033.538 554.642 L 1033.500 550.500 1028.759 550 C 1024.642 549.566, 1023.238 548.744, 1018.076 543.750 C 1011.851 537.726, 1008.439 536.561, 1005.917 539.600" stroke="#83385f" fill="#83385f" fill-opacity="0.2" fill-rule="evenodd"/>
    </svg>