<svg xmlns="http://www.w3.org/2000/svg" width="1921" height="1027" viewBox="0 0 1921 1027" version="1.1">
    <path class="svg-region-V" d="M 847.500 237.141 C 832.650 237.529, 818.700 238.050, 816.500 238.297 C 814.300 238.545, 808.450 239.076, 803.500 239.478 C 794.519 240.206, 778.776 243.850, 772.051 246.757 C 760.337 251.821, 755.769 254.564, 749.543 260.273 L 742.585 266.652 742.185 273.724 C 741.797 280.606, 741.876 280.891, 745.143 284.359 C 748.215 287.620, 766.604 297.628, 773 299.521 C 774.375 299.928, 777.300 301.092, 779.500 302.107 C 783.283 303.853, 788.206 305.127, 804.500 308.577 C 817.370 311.302, 832.201 312.040, 874.646 312.066 C 909.193 312.087, 917.995 311.813, 923.458 310.546 C 931.861 308.597, 937.966 308.580, 941.636 310.494 C 943.214 311.317, 947.195 312.004, 950.500 312.025 C 960.439 312.086, 971.179 313.835, 973.430 315.758 C 977.118 318.908, 981.735 321, 985 321 C 990.513 321, 999.345 317.894, 1002.167 314.963 C 1003.633 313.439, 1005.553 311.790, 1006.432 311.298 C 1007.603 310.643, 1008.202 308.196, 1008.667 302.164 C 1009.292 294.061, 1009.254 293.875, 1006.401 290.869 C 1004.806 289.188, 1001.025 286.188, 998 284.201 C 994.975 282.215, 990.700 279.162, 988.500 277.417 C 986.300 275.672, 983.375 273.902, 982 273.485 C 980.625 273.068, 978.329 271.748, 976.897 270.551 C 975.253 269.178, 971.568 267.907, 966.897 267.103 C 962.829 266.402, 956.350 264.901, 952.500 263.766 C 944.132 261.300, 924.043 251.962, 922.119 249.644 C 921.369 248.740, 919.973 248, 919.017 248 C 918.061 248, 915.560 246.833, 913.459 245.407 C 904.074 239.039, 892.762 235.830, 881.066 236.218 C 877.455 236.338, 862.350 236.753, 847.500 237.141" stroke="#dd8a8a" fill="#dd8a8a" fill-opacity="0.2" fill-rule="evenodd"/><path class="svg-region-DB" d="M 734.041 283.258 C 727.499 286.542, 722.105 292.400, 722.033 296.300 C 722.015 297.289, 721.304 299.445, 720.454 301.090 C 718.464 304.936, 718.761 318.892, 720.951 324.500 C 722.916 329.531, 727.939 338, 728.959 338 C 729.381 338, 730.957 339.229, 732.459 340.732 C 735.542 343.815, 740.486 346.999, 746.750 349.936 C 749.087 351.032, 751 352.302, 751 352.758 C 751 353.214, 753.813 354.193, 757.250 354.933 C 760.688 355.672, 766.875 357.290, 771 358.526 C 778.083 360.650, 782.333 361.417, 801.500 364.026 C 813.955 365.722, 866.093 365.797, 874 364.130 C 881.999 362.445, 901.053 353.133, 908.560 347.241 C 911.620 344.838, 915.447 340.788, 917.062 338.241 C 921.019 332.002, 920.943 327.319, 916.750 318.971 L 913.500 312.500 881 312.366 C 825.495 312.137, 818.216 311.590, 791.500 305.648 C 776.878 302.396, 750.599 290.166, 744.864 283.944 C 742.864 281.775, 741.064 280.003, 740.864 280.008 C 740.664 280.012, 737.593 281.474, 734.041 283.258" stroke="#e8b1e4" fill="#e8b1e4" fill-opacity="0.2" fill-rule="evenodd"/><path class="svg-region-PP" d="M 990.472 436.953 C 988.257 437.296, 985.344 438.346, 984 439.288 C 982.655 440.229, 980.770 441, 979.811 441 C 978.852 441, 976.365 441.737, 974.284 442.639 C 968.334 445.215, 965.583 446.175, 948.500 451.632 C 940.105 454.314, 932.861 454.454, 925.965 452.067 C 922.615 450.908, 919.541 450.166, 919.134 450.417 C 918.726 450.669, 916.392 450.415, 913.946 449.851 C 911.501 449.288, 908.567 448.646, 907.426 448.426 C 906.286 448.205, 901.786 447.126, 897.426 446.028 C 893.067 444.929, 887.250 444.021, 884.500 444.009 C 881.750 443.997, 878.158 443.288, 876.519 442.433 C 874.879 441.578, 871.054 440.857, 868.019 440.831 C 864.983 440.805, 860.250 440.723, 857.500 440.649 C 844.546 440.302, 834.283 440.778, 832.343 441.817 C 829.609 443.279, 827.548 451.500, 828.433 457.405 C 829.161 462.257, 833.340 474.335, 835.372 477.461 C 836.102 478.583, 837.022 481.245, 837.419 483.378 C 838.533 489.380, 842.279 497.038, 846.585 502.119 C 848.738 504.660, 851.258 507.668, 852.184 508.804 C 853.111 509.940, 855.069 514.611, 856.535 519.185 C 858.002 523.758, 859.607 528.281, 860.101 529.236 C 860.596 530.191, 861 531.824, 861 532.864 C 861 533.905, 861.761 536.498, 862.692 538.628 C 863.817 541.204, 864.645 547.018, 865.166 556 C 865.596 563.425, 866.238 571.220, 866.592 573.322 C 867.146 576.609, 866.848 577.550, 864.465 580.036 C 862.149 582.454, 861.904 583.179, 862.970 584.464 C 863.671 585.309, 865.533 586, 867.108 586 C 868.683 586, 871.890 586.424, 874.236 586.943 C 876.581 587.462, 880.975 588.415, 884 589.060 C 890.999 590.554, 904.596 594.428, 908.500 596.042 C 910.150 596.723, 912.985 597.925, 914.801 598.712 C 916.617 599.499, 919.767 600.407, 921.801 600.730 C 923.835 601.053, 926.558 602.002, 927.851 602.840 C 931.252 605.043, 940.592 606.066, 946.238 604.856 C 948.881 604.289, 957.672 600.457, 965.772 596.341 C 983.741 587.210, 992.780 583.406, 1000 581.935 C 1007.162 580.476, 1012.568 576.979, 1013.317 573.322 C 1014.127 569.365, 1011.867 552.775, 1010.300 551.180 C 1008.317 549.162, 1007.647 545.211, 1008.690 541.683 C 1009.414 539.233, 1010.134 538.555, 1011.815 538.738 C 1013.769 538.951, 1014 538.507, 1014 534.547 C 1014 532.111, 1014.450 529.840, 1015 529.500 C 1015.550 529.160, 1016 527.055, 1016 524.822 C 1016 522.589, 1016.884 518.003, 1017.965 514.631 C 1019.046 511.259, 1020.699 505.800, 1021.638 502.500 C 1022.577 499.200, 1024.618 494.074, 1026.173 491.109 C 1028.137 487.364, 1029 484.250, 1029 480.906 C 1029 478.260, 1029.506 474.835, 1030.125 473.297 C 1033.479 464.953, 1035 459.769, 1035 456.679 C 1035 455.206, 1035.375 454, 1035.833 454 C 1037.808 454, 1036.393 450.760, 1033.083 447.704 C 1028.529 443.498, 1012.316 438.527, 997 436.640 C 995.625 436.470, 992.687 436.611, 990.472 436.953" stroke="#c4743d" fill="#c4743d" fill-opacity="0.2" fill-rule="evenodd"/><path class="svg-region-DMl" d="M 724.764 437.513 C 718.413 439.846, 716.112 442.134, 714.414 447.804 C 713.167 451.973, 713.045 454.114, 713.847 457.804 C 714.408 460.387, 714.905 463.175, 714.951 464 C 715.464 473.210, 715.932 477.262, 716.972 481.500 C 719.925 493.528, 724.456 507.267, 728.678 517 C 731.183 522.775, 734.708 531.100, 736.511 535.500 C 738.314 539.900, 741.524 545.486, 743.645 547.913 C 745.765 550.340, 749.234 554.615, 751.354 557.413 C 753.474 560.211, 758.262 564.773, 761.994 567.552 C 765.726 570.330, 770.862 574.891, 773.406 577.687 C 775.951 580.483, 779.371 583.325, 781.008 584.003 C 782.644 584.681, 784.923 586.758, 786.074 588.619 C 787.224 590.481, 789.155 592.252, 790.365 592.555 C 795.114 593.747, 821.471 592.454, 827.500 590.734 C 830.800 589.792, 838.140 588.631, 843.811 588.153 C 851.865 587.476, 854.757 586.816, 857.021 585.143 C 858.615 583.964, 860.303 583, 860.772 583 C 861.242 583, 862.925 581.643, 864.514 579.985 L 867.402 576.971 866.201 569.967 C 865.540 566.115, 864.980 558.809, 864.956 553.731 C 864.928 547.835, 864.348 543.055, 863.351 540.500 C 862.492 538.300, 861.562 535.033, 861.284 533.241 C 861.006 531.448, 860.379 529.734, 859.890 529.432 C 859.400 529.129, 859 527.777, 859 526.427 C 859 525.077, 858.590 523.191, 858.089 522.236 C 857.587 521.281, 856.399 518.293, 855.447 515.596 C 853.729 510.727, 853.269 510.003, 847.500 503.093 C 842.420 497.009, 838.760 489.863, 837.625 483.817 C 837.252 481.828, 836.333 478.919, 835.583 477.351 C 833.845 473.721, 831.595 468.442, 829.943 464.122 C 828.482 460.302, 828.231 452.503, 829.372 446.389 C 830.127 442.343, 830.088 442.268, 826.903 441.631 C 823.203 440.891, 817.427 443.290, 811.427 448.058 C 809.391 449.676, 806.848 451, 805.776 451 C 804.704 451, 801.015 453.700, 797.579 457 C 792.292 462.076, 790.773 463, 787.712 463 C 784.316 463, 779.119 461.339, 778 459.896 C 777.725 459.541, 773.450 457.218, 768.500 454.734 C 763.550 452.250, 756.800 448.091, 753.500 445.492 C 742.135 436.539, 733.752 434.212, 724.764 437.513 M 847.188 552.960 C 844.588 556.476, 844.530 557.191, 846.531 561.060 C 847.983 563.868, 848.345 564.005, 853.540 563.701 C 861.023 563.264, 861.614 562.386, 858.541 556.268 C 854.935 549.089, 850.916 547.918, 847.188 552.960" stroke="#68533d" fill="#68533d" fill-opacity="0.2" fill-rule="evenodd"/><path class="svg-region-DMr" d="M 1131 428.022 C 1124.879 429.099, 1119.193 431.878, 1115 435.843 C 1107.660 442.783, 1093.560 454.217, 1091.265 455.089 C 1088.316 456.210, 1086.874 455.427, 1081.016 449.524 C 1074.410 442.867, 1069.621 441.553, 1057.321 443.021 C 1051.965 443.661, 1045.302 445.038, 1042.513 446.081 C 1037.772 447.855, 1037.361 448.287, 1036.182 452.739 C 1035.488 455.358, 1034.488 458.882, 1033.960 460.571 C 1033.432 462.260, 1033 464.548, 1033 465.654 C 1033 466.761, 1032.692 467.975, 1032.315 468.352 C 1030.814 469.853, 1029.029 476.753, 1029.015 481.109 C 1029.005 484.207, 1028.073 487.486, 1026.173 491.109 C 1024.618 494.074, 1022.556 499.200, 1021.590 502.500 C 1020.624 505.800, 1018.971 511.294, 1017.917 514.709 C 1016.863 518.124, 1016 522.737, 1016 524.959 C 1016 527.182, 1015.550 529, 1015 529 C 1014.450 529, 1014 531.475, 1014 534.500 C 1014 539.657, 1014.152 540, 1016.429 540 C 1017.764 540, 1019.536 539.322, 1020.365 538.492 C 1022.337 536.520, 1022.659 537.212, 1023.515 545.250 L 1024.233 552 1018.116 552 C 1012.106 552, 1012 552.048, 1012.020 554.750 C 1012.031 556.263, 1012.469 560.468, 1012.994 564.097 C 1013.548 567.926, 1013.585 571.960, 1013.082 573.713 C 1012.606 575.373, 1012.505 577.130, 1012.858 577.616 C 1013.211 578.102, 1018.900 578.536, 1025.500 578.579 C 1032.330 578.624, 1039.439 579.233, 1042 579.991 C 1044.882 580.844, 1052.431 581.354, 1063 581.411 L 1079.500 581.500 1089.387 576.500 C 1094.825 573.750, 1101.607 570.304, 1104.459 568.843 C 1108.533 566.755, 1110.567 564.769, 1113.956 559.568 C 1116.327 555.928, 1118.780 552.623, 1119.407 552.225 C 1120.579 551.479, 1132.968 535.917, 1136.774 530.408 C 1137.950 528.707, 1141.140 523.017, 1143.863 517.764 C 1146.587 512.510, 1149.491 507.151, 1150.316 505.856 C 1152.415 502.562, 1155.036 494.668, 1156.576 487 C 1159.620 471.844, 1160.642 467.389, 1161.326 466.282 C 1161.725 465.637, 1161.996 460.472, 1161.929 454.805 C 1161.862 449.137, 1161.846 443.083, 1161.895 441.352 C 1162.041 436.111, 1159.391 431.240, 1155.244 429.127 C 1151.177 427.055, 1139.516 426.524, 1131 428.022" stroke="#68533d" fill="#68533d" fill-opacity="0.2" fill-rule="evenodd"/><path class="svg-region-Ol" d="M 434.741 376.592 C 434.415 376.918, 429.864 378.246, 424.627 379.543 C 415.877 381.711, 408.493 384.383, 403.538 387.176 C 402.459 387.784, 399.534 389.365, 397.038 390.690 C 388.846 395.037, 381.065 400.383, 371.845 408 C 366.851 412.125, 361.973 415.964, 361.004 416.532 C 358.330 418.098, 351.118 425.494, 342.510 435.500 C 338.251 440.450, 333.971 445.175, 333 446 C 332.028 446.825, 329.771 450.200, 327.983 453.500 C 326.196 456.800, 324.484 459.931, 324.179 460.458 C 323.875 460.984, 323.505 462.540, 323.359 463.914 C 323.212 465.289, 322.460 467.783, 321.686 469.457 C 320.913 471.130, 318.915 475.425, 317.247 479 C 311.869 490.526, 307.838 507.034, 305.380 527.600 C 304.446 535.416, 304.322 566.561, 305.207 571 C 305.591 572.925, 306.335 576.975, 306.862 580 C 307.781 585.282, 309.409 590.306, 317.463 612.727 C 320.964 622.473, 329.042 638.552, 334.415 646.470 C 344.888 661.903, 353.121 669.998, 370.548 682 C 372.544 683.375, 375.600 685.679, 377.339 687.120 C 381.675 690.713, 390.766 695.161, 401.500 698.941 C 406.450 700.684, 411.400 702.682, 412.500 703.381 C 413.600 704.079, 416.750 705.235, 419.500 705.949 C 425.321 707.461, 430.343 709.091, 437.986 711.949 C 441.003 713.077, 444.346 714, 445.415 714 C 446.484 714, 448.740 714.447, 450.429 714.992 C 460.691 718.309, 485.497 723.223, 491.324 723.094 C 493.427 723.047, 495.944 723.435, 496.917 723.956 C 497.929 724.497, 520.996 725.121, 550.778 725.413 C 610.052 725.995, 608.752 726.115, 622.167 718.823 C 623.634 718.026, 627.192 714.551, 630.074 711.102 C 632.956 707.653, 636.356 704.435, 637.629 703.951 C 638.902 703.467, 640.616 701.593, 641.437 699.785 C 644.982 691.986, 650.209 683.561, 654.381 678.921 C 656.850 676.175, 658.889 673.157, 658.911 672.214 C 658.934 671.271, 659.205 668.925, 659.513 667 C 659.822 665.075, 660.461 657.558, 660.933 650.296 C 661.724 638.137, 662.765 631.310, 665.020 623.500 C 665.496 621.850, 666.589 616.900, 667.448 612.500 C 669.374 602.643, 671.257 595.705, 673.391 590.603 C 674.760 587.330, 674.952 583.722, 674.591 568.103 C 674.185 550.515, 673.748 547.061, 669.836 530.500 C 669.316 528.300, 668.534 524.700, 668.098 522.500 C 666.932 516.609, 663.333 506.313, 661.552 503.771 C 660.698 502.552, 660.001 500.868, 660.003 500.027 C 660.004 499.187, 658.931 495.800, 657.617 492.500 C 656.303 489.200, 654.458 483.800, 653.516 480.500 C 650.848 471.155, 638.650 456.139, 629.593 451.052 C 627.527 449.892, 623.368 447.043, 620.351 444.721 C 617.334 442.400, 613.433 439.460, 611.683 438.190 C 608.626 435.971, 596.582 426.114, 593.122 423 C 588.150 418.524, 579.788 411.834, 574.549 408.140 C 571.276 405.833, 566.136 401.820, 563.128 399.223 C 555.765 392.867, 549.027 388.630, 543.816 387.079 C 541.442 386.373, 538.321 385.175, 536.880 384.418 C 535.439 383.660, 528.689 382.068, 521.880 380.879 C 511.582 379.082, 504.791 378.670, 481.500 378.430 C 466.100 378.272, 449.687 377.660, 445.026 377.071 C 435.095 375.816, 435.499 375.835, 434.741 376.592" stroke="#aa444d" fill="#aa444d" fill-opacity="0.2" fill-rule="evenodd"/><path class="svg-region-BPCl" d="M 847.188 552.960 C 844.665 556.373, 844.527 557.593, 846.250 561.265 C 847.427 563.775, 847.870 563.919, 853.866 563.744 C 857.448 563.639, 860.419 563.072, 860.659 562.446 C 861.283 560.821, 856.275 551.319, 854.420 550.608 C 851.299 549.410, 849.342 550.046, 847.188 552.960" stroke="#83385f" fill="#83385f" fill-opacity="0.2" fill-rule="evenodd"/><path class="svg-region-BPCr" d="M 1019.929 538.585 C 1018.646 540.131, 1016.400 540.110, 1011.353 538.504 C 1009.453 537.899, 1009.125 538.298, 1008.505 541.968 C 1008.071 544.541, 1008.267 547.231, 1009.024 549.057 C 1010.209 551.919, 1010.436 552, 1017.261 552 L 1024.279 552 1023.648 546.750 C 1023.301 543.862, 1023.013 540.487, 1023.009 539.250 C 1022.999 536.616, 1021.782 536.353, 1019.929 538.585" stroke="#83385f" fill="#83385f" fill-opacity="0.2" fill-rule="evenodd"/><path class="svg-region-HRl" d="M 736.071 414.134 C 728.572 415.379, 724 418.970, 724 423.617 C 724 430.229, 729.083 436, 734.906 436 C 738.344 436, 747.235 440.488, 752.500 444.882 C 755.250 447.176, 762 451.360, 767.500 454.179 C 773 456.998, 777.725 459.583, 778 459.923 C 779.173 461.373, 784.372 463, 787.831 463 C 791.036 463, 792.342 462.217, 796.994 457.506 C 800.514 453.942, 803.545 451.801, 805.623 451.411 C 809.369 450.708, 813.002 447.653, 812.996 445.211 C 812.988 441.292, 804.649 432, 801.141 432 C 800.498 432, 796.173 428.202, 791.531 423.559 C 785.562 417.590, 781.979 414.810, 779.295 414.065 C 774.764 412.807, 743.774 412.857, 736.071 414.134" stroke="#d9dba1" fill="#d9dba1" fill-opacity="0.2" fill-rule="evenodd"/><path class="svg-region-HRr" d="M 1114.500 399.426 C 1102.164 401.835, 1092.269 405.557, 1086.380 410.003 C 1080.860 414.170, 1073.029 424.809, 1073.010 428.167 C 1073.004 429.083, 1072.646 429.983, 1072.213 430.167 C 1071.225 430.585, 1066 439.526, 1066 440.798 C 1066 441.316, 1068.019 442.305, 1070.487 442.996 C 1074.870 444.224, 1078.894 447.103, 1085.628 453.831 L 1088.963 457.163 1092.231 454.899 C 1094.029 453.655, 1097.332 451.031, 1099.571 449.068 C 1101.810 447.106, 1105.136 444.375, 1106.962 443 C 1108.788 441.625, 1112.287 438.604, 1114.737 436.286 C 1119.407 431.868, 1127.960 428, 1133.060 428 C 1135.157 428, 1137.348 426.799, 1140.427 423.960 C 1148.847 416.199, 1150.396 408.196, 1144.600 402.400 C 1142.092 399.892, 1140.321 398.998, 1137.850 398.993 C 1136.007 398.989, 1131.575 398.777, 1128 398.522 C 1124.425 398.267, 1118.350 398.674, 1114.500 399.426" stroke="#d9dba1" fill="#d9dba1" fill-opacity="0.2" fill-rule="evenodd"/>
    </svg>