<svg xmlns="http://www.w3.org/2000/svg" width="1921" height="1027" viewBox="0 0 1921 1027" version="1.1">
    <path class="svg-region-DMl" d="M 793.500 518.403 C 787.642 520.988, 787.117 522.391, 785.948 538.563 C 785.355 546.779, 784.449 554.882, 783.935 556.571 C 783.421 558.260, 783 560.398, 783 561.321 C 783 562.471, 782.164 563, 780.345 563 C 777.772 563, 777.745 563.060, 779.463 564.959 C 780.438 566.036, 783.545 567.723, 786.368 568.707 C 792.390 570.807, 803.601 570.992, 840.250 569.595 C 859.246 568.870, 864 568.415, 864 567.320 C 864 566.567, 862.969 565.559, 861.709 565.079 C 857.558 563.501, 856.751 561.358, 853.962 544.500 C 852.589 536.202, 849.266 524.746, 847.553 522.403 C 846.746 521.300, 843.997 520.463, 839.417 519.926 C 835.613 519.481, 830.250 518.667, 827.500 518.118 C 819.981 516.616, 797.113 516.808, 793.500 518.403" stroke="#68533d" fill="#68533d" fill-opacity="0.2" fill-rule="evenodd"/><path class="svg-region-DMr" d="M 1081 516.263 C 1079.423 516.980, 1070.935 517.440, 1058 517.510 C 1046.725 517.571, 1036.717 517.977, 1035.761 518.413 C 1034.804 518.849, 1033.600 520.847, 1033.085 522.853 C 1032.569 524.859, 1031.423 529.200, 1030.537 532.500 C 1029.652 535.800, 1028.504 540.075, 1027.987 542 C 1027.471 543.925, 1027.037 549.438, 1027.024 554.250 L 1027 563 1038.250 562.987 C 1049.359 562.973, 1068.172 564.112, 1089.403 566.082 C 1100.591 567.120, 1103.883 566.483, 1101.200 563.800 C 1100.540 563.140, 1100 561.655, 1100 560.500 C 1100 559.345, 1099.458 557.858, 1098.796 557.196 C 1097.593 555.993, 1096.550 546.756, 1095.385 527 C 1095.028 520.944, 1094.287 516.189, 1093.633 515.765 C 1091.922 514.656, 1083.835 514.975, 1081 516.263" stroke="#68533d" fill="#68533d" fill-opacity="0.2" fill-rule="evenodd"/><path class="svg-region-PMl" d="M 743.022 451.948 C 740.009 453.003, 737.391 454.327, 737.204 454.889 C 737.016 455.451, 735.173 458.068, 733.107 460.705 C 731.041 463.342, 728.185 467.627, 726.759 470.227 L 724.166 474.954 724.964 492.326 C 725.543 504.921, 726.208 510.636, 727.383 513.113 C 728.275 514.992, 730.582 521.447, 732.509 527.457 C 734.437 533.468, 736.863 539.311, 737.902 540.443 C 738.940 541.574, 740.704 544.233, 741.823 546.351 C 744.567 551.548, 752.664 558.276, 758.077 559.858 C 760.510 560.569, 763.774 561.792, 765.331 562.575 C 768.329 564.084, 773.156 564.366, 779.116 563.380 C 782.537 562.814, 782.791 562.503, 783.810 557.641 C 784.403 554.813, 785.391 545.779, 786.008 537.565 C 786.624 529.350, 787.534 521.870, 788.031 520.943 C 788.575 519.925, 788.550 517.917, 787.967 515.884 C 786.662 511.335, 786.741 490.553, 788.096 481.820 C 790.262 467.858, 784.592 458.632, 772.500 456.444 C 770.300 456.046, 766.262 454.650, 763.527 453.343 C 756.605 450.034, 749.805 449.571, 743.022 451.948" stroke="#90cf92" fill="#90cf92" fill-opacity="0.2" fill-rule="evenodd"/><path class="svg-region-PMr" d="M 1114.500 451.003 C 1100.537 454.583, 1095.392 457.408, 1092.441 463.114 C 1090.668 466.542, 1090.569 473.379, 1092.250 476.316 C 1092.938 477.517, 1093.612 482.100, 1093.749 486.500 C 1095.116 530.402, 1096.904 555.304, 1098.826 557.226 C 1099.472 557.872, 1100.014 559.323, 1100.032 560.450 C 1100.082 563.703, 1102.188 565.618, 1106.471 566.307 C 1115.414 567.746, 1129.918 557.362, 1137.500 544.093 C 1139.150 541.206, 1143.356 534.954, 1146.847 530.201 C 1154.534 519.735, 1158.177 512.698, 1162.057 500.825 C 1164.746 492.596, 1165 490.611, 1165 477.795 C 1165 464.681, 1164.836 463.469, 1162.469 459.120 C 1159.646 453.934, 1157.422 452.798, 1145.500 450.455 C 1136.033 448.595, 1122.994 448.825, 1114.500 451.003" stroke="#90cf92" fill="#90cf92" fill-opacity="0.2" fill-rule="evenodd"/><path class="svg-region-PV" d="M 863.368 419.750 C 862.113 423.067, 859.348 426.661, 854.203 431.663 C 846.097 439.542, 844.194 440.559, 835.800 441.495 C 830.981 442.033, 829.537 442.700, 826.454 445.816 L 822.807 449.500 823.341 458.286 C 823.914 467.715, 823.389 466.508, 833.714 482.126 C 836.031 485.632, 838.465 489.120, 839.123 489.879 C 839.781 490.637, 840.660 494.687, 841.077 498.879 C 841.818 506.330, 843.482 513.501, 844.934 515.500 C 845.334 516.050, 847.103 520.389, 848.865 525.143 C 851.751 532.925, 853.026 538.228, 854.604 549 C 855.417 554.545, 857.228 561.393, 858.223 562.685 C 858.725 563.336, 860.859 564.767, 862.964 565.864 C 866.626 567.773, 867.741 567.818, 888.646 566.900 C 900.666 566.372, 913.875 565.505, 918 564.973 C 922.125 564.442, 928.200 563.756, 931.500 563.450 C 934.800 563.144, 941.325 562.178, 946 561.304 C 950.675 560.430, 959.450 559.723, 965.500 559.732 C 976.065 559.749, 981.334 559.936, 1012.635 561.406 L 1026.771 562.070 1027.217 551.785 C 1027.536 544.448, 1028.331 539.637, 1029.991 535 C 1031.975 529.458, 1032.407 525.841, 1032.918 510.462 C 1033.507 492.704, 1033.567 492.322, 1036.746 485.864 C 1038.523 482.256, 1042.033 477.098, 1044.547 474.402 C 1047.061 471.706, 1050.104 467.741, 1051.309 465.591 C 1052.514 463.441, 1054.400 461.191, 1055.500 460.591 C 1056.600 459.991, 1057.860 458.938, 1058.300 458.250 C 1058.740 457.563, 1060.078 457, 1061.275 457 C 1063.046 457, 1062.107 455.648, 1056.225 449.726 C 1052.251 445.726, 1049 441.979, 1049 441.401 C 1049 438.721, 1040.477 433.411, 1032.213 430.942 C 1029.856 430.238, 1026.799 428.616, 1025.421 427.339 C 1024.043 426.062, 1021.809 424.739, 1020.458 424.400 C 1019.106 424.061, 1018 423.392, 1018 422.915 C 1018 421.067, 1013.214 418.855, 1011.333 419.833 C 1009.208 420.939, 1001.072 422.865, 996 423.464 C 990.832 424.073, 983.219 425.817, 981.236 426.845 C 980.281 427.339, 977.250 428.055, 974.500 428.435 C 969.752 429.091, 960.030 431.772, 953.500 434.226 C 947.523 436.473, 937.086 436.255, 927.500 433.683 C 909.751 428.920, 906.536 427.890, 904.951 426.455 C 904.066 425.655, 902.004 425, 900.368 425 C 896.796 425, 877.977 418.798, 874.804 416.575 C 873.567 415.709, 870.892 415, 868.860 415 C 865.371 415, 865.065 415.265, 863.368 419.750" stroke="#b09658" fill="#b09658" fill-opacity="0.2" fill-rule="evenodd"/><path class="svg-region-LPVl" d="M 810 457.983 C 807.525 458.376, 804.575 459.103, 803.444 459.599 C 800.337 460.960, 793.919 468.515, 794.961 469.584 C 795.494 470.129, 794.495 471.512, 792.493 473 C 790.644 474.375, 788.851 476.400, 788.507 477.500 C 787.122 481.940, 786.722 510.673, 787.973 515.888 L 789.220 521.086 791.860 519.302 C 795.257 517.007, 817.489 516.192, 826.523 518.032 C 833.105 519.372, 846.306 520.957, 846.835 520.471 C 847.020 520.301, 846.501 518.663, 845.681 516.831 C 842.602 509.945, 841 503.463, 841 497.893 C 841 494.630, 840.454 491.571, 839.738 490.821 C 839.044 490.095, 837.912 488.375, 837.221 487 C 836.531 485.625, 834.608 482.700, 832.949 480.500 C 826.897 472.476, 824.959 468.904, 823.863 463.755 C 823.248 460.865, 822.240 458.169, 821.623 457.765 C 820.309 456.906, 816.301 456.981, 810 457.983" stroke="#494949" fill="#494949" fill-opacity="0.2" fill-rule="evenodd"/><path class="svg-region-LPVr" d="M 1065.500 456.966 C 1058.729 457.940, 1054.376 460.444, 1051.480 465.031 C 1050.149 467.141, 1046.956 471.235, 1044.385 474.129 C 1041.815 477.023, 1038.314 482.341, 1036.606 485.946 C 1033.676 492.128, 1033.482 493.279, 1033.174 506.250 C 1032.995 513.813, 1033.220 519.986, 1033.674 519.968 C 1034.128 519.951, 1035.392 519.262, 1036.482 518.438 C 1038.135 517.189, 1040.962 517.049, 1053.482 517.598 C 1064.275 518.071, 1070.610 517.877, 1076 516.909 C 1080.125 516.168, 1086.114 515.547, 1089.310 515.531 L 1095.120 515.500 1094.552 505 C 1094.239 499.225, 1093.860 490.900, 1093.708 486.500 C 1093.557 482.100, 1092.885 477.233, 1092.216 475.685 C 1091.547 474.137, 1091 471.310, 1091 469.403 C 1091 464.965, 1088.694 459.433, 1086.335 458.210 C 1083.719 456.854, 1071.395 456.118, 1065.500 456.966" stroke="#494949" fill="#494949" fill-opacity="0.2" fill-rule="evenodd"/><path class="svg-region-Ol" d="M 436.922 392.048 C 436.212 392.487, 432.901 393.152, 429.565 393.525 C 426.229 393.899, 421.925 394.871, 420 395.686 C 411.611 399.236, 409.830 400.071, 408.699 400.986 C 402.163 406.272, 395.306 412.660, 383.208 424.735 C 375.347 432.581, 368.485 439, 367.958 439 C 367.431 439, 367 439.689, 367 440.531 C 367 441.374, 366.325 442.322, 365.500 442.638 C 364.675 442.955, 364 443.855, 364 444.638 C 364 445.422, 363.325 446.322, 362.499 446.639 C 360.636 447.354, 352.950 460.883, 349.972 468.690 C 348.753 471.886, 347.558 476.300, 347.317 478.500 C 346.923 482.096, 340.371 500.673, 337.839 505.372 C 337.284 506.402, 336.582 509.777, 336.280 512.872 C 335.977 515.968, 335.374 518.955, 334.939 519.512 C 333.305 521.608, 330.120 531.754, 328.979 538.500 C 327.691 546.117, 328.164 566.181, 329.828 574.500 C 330.378 577.250, 331.485 583.245, 332.287 587.823 C 333.090 592.401, 334.253 596.653, 334.873 597.273 C 335.493 597.893, 336 599.596, 336 601.057 C 336 602.518, 338.025 607.844, 340.500 612.891 C 342.975 617.939, 345 622.502, 345 623.031 C 345 623.561, 346.480 625.683, 348.289 627.747 C 350.097 629.811, 353.349 634.126, 355.514 637.336 C 357.680 640.546, 360.441 643.696, 361.650 644.336 C 362.860 644.976, 366.858 648.200, 370.535 651.500 C 386.454 665.786, 388.758 667.809, 393.500 671.662 C 396.250 673.896, 405.250 678.982, 413.500 682.963 C 437.496 694.544, 443.445 696.995, 447.571 697.004 C 448.632 697.006, 451.581 698.064, 454.124 699.355 C 456.667 700.645, 459.817 702.045, 461.124 702.466 C 462.431 702.887, 463.725 703.323, 464 703.435 C 469.787 705.797, 474.566 706.441, 504.500 708.895 C 511.100 709.436, 518.748 710.383, 521.497 710.999 C 524.646 711.705, 530.746 711.881, 537.997 711.476 C 545.357 711.064, 551.121 711.238, 554 711.959 C 560.899 713.685, 574.941 713.489, 582.678 711.559 C 586.430 710.623, 591.300 709.408, 593.500 708.860 C 598.883 707.519, 609.773 702.220, 613.633 699.063 C 615.356 697.653, 618.154 695.449, 619.849 694.165 C 624.294 690.797, 630.987 680.151, 640.593 661.170 C 647.380 647.759, 649.007 643.685, 649.035 640.029 C 649.054 637.538, 649.762 632.575, 650.606 629 C 652.239 622.092, 653.275 616.116, 654.939 604 C 655.506 599.875, 656.628 593.310, 657.432 589.411 C 659.426 579.746, 660.986 565.410, 661.993 547.500 C 662.916 531.080, 663.101 532.238, 656.305 512 C 654.366 506.225, 652.207 500.825, 651.508 500 C 650.809 499.175, 649.907 497.375, 649.504 496 C 649.101 494.625, 647.968 492.150, 646.985 490.500 C 644.986 487.144, 642.850 483.394, 635.882 471 C 633.254 466.325, 628.610 459.575, 625.563 456 C 622.516 452.425, 617.916 446.769, 615.340 443.432 C 610.851 437.617, 599.925 428.161, 594.043 425 C 586.396 420.890, 582.552 419, 581.842 419 C 581.411 419, 578.649 417.898, 575.703 416.550 C 572.757 415.203, 567.232 413.117, 563.424 411.916 C 559.616 410.714, 550.650 407.715, 543.500 405.251 C 512.467 394.555, 508.885 393.845, 477 392.057 C 456.606 390.914, 438.763 390.910, 436.922 392.048" stroke="#aa444d" fill="#aa444d" fill-opacity="0.2" fill-rule="evenodd"/><path class="svg-region-HRl" d="M 732.898 393.251 C 728.082 396.442, 724.913 403.473, 723.859 413.302 C 722.567 425.358, 723.912 465.541, 725.682 467.760 C 726.996 469.406, 727.136 469.398, 728.285 467.617 C 734.508 457.967, 739.679 452, 741.817 452 C 744.923 452, 757.596 447.722, 759.500 446.031 C 760.600 445.054, 761.950 444.078, 762.500 443.861 C 763.050 443.645, 765.160 442.435, 767.188 441.172 C 772.595 437.805, 775 433.106, 775 425.908 L 775 419.930 766.983 410.039 C 757.249 398.031, 754.630 395.754, 747.478 393.078 C 740.371 390.419, 737.114 390.458, 732.898 393.251" stroke="#d9dba1" fill="#d9dba1" fill-opacity="0.2" fill-rule="evenodd"/><path class="svg-region-HRr" d="M 1137.500 382.807 C 1134.148 384.950, 1115.426 404.039, 1109.849 411 C 1102.962 419.597, 1103.455 423.601, 1111.819 426.994 C 1114.944 428.261, 1118.175 429.822, 1119 430.461 C 1120.904 431.938, 1127.633 434.667, 1131.358 435.474 C 1132.930 435.814, 1137.430 437.605, 1141.358 439.454 C 1145.286 441.302, 1150.300 443.372, 1152.500 444.052 C 1154.700 444.733, 1156.781 445.723, 1157.125 446.252 C 1158.124 447.789, 1163.545 446.113, 1165.990 443.510 C 1168.920 440.392, 1169.390 435.352, 1168.136 420.500 C 1167.041 407.541, 1164.676 395.519, 1162.768 393.221 C 1162.114 392.432, 1161.111 390.880, 1160.539 389.772 C 1159.968 388.664, 1157.595 386.387, 1155.267 384.713 C 1149.781 380.766, 1141.998 379.931, 1137.500 382.807" stroke="#d9dba1" fill="#d9dba1" fill-opacity="0.2" fill-rule="evenodd"/>
    </svg>