<svg xmlns="http://www.w3.org/2000/svg" width="1921" height="1027" viewBox="0 0 1921 1027" version="1.1">
    <path class="svg-region-PMl" d="M 746.128 453.150 C 744.274 453.684, 741.493 455.054, 739.949 456.195 C 738.269 457.438, 736.312 458.053, 735.071 457.729 C 733.864 457.413, 732.989 457.670, 732.973 458.344 C 732.959 458.980, 730.243 462.859, 726.938 466.965 C 723.634 471.071, 720.676 475.441, 720.366 476.677 C 719.454 480.310, 721.638 501.067, 723.503 506.500 C 725.818 513.240, 731.200 525.729, 733.571 529.860 C 738.976 539.276, 750.954 553.773, 754 554.585 C 755.375 554.951, 758.152 556.826, 760.172 558.752 L 763.844 562.253 770.671 561.377 C 777.489 560.501, 777.500 560.495, 778.890 556.500 C 779.656 554.300, 780.587 548.675, 780.958 544 C 781.380 538.693, 783.769 527.519, 787.317 514.257 C 792.501 494.880, 793 492.102, 793 482.618 C 793 472.261, 792.987 472.207, 789.750 468.775 C 785.497 464.267, 779.549 460, 777.517 460 C 776.628 460, 774.686 459.378, 773.200 458.618 C 771.715 457.858, 768.614 456.923, 766.308 456.540 C 764.003 456.157, 760.420 454.979, 758.347 453.922 C 754.251 451.834, 751.343 451.650, 746.128 453.150" stroke="#90cf92" fill="#90cf92" fill-opacity="0.2" fill-rule="evenodd"/><path class="svg-region-PMr" d="M 1118.257 455.214 C 1112.903 456.036, 1111.697 456.624, 1109.797 459.336 C 1108.579 461.076, 1106.773 463.090, 1105.785 463.811 C 1104.797 464.532, 1103.319 466.416, 1102.501 467.997 C 1101.683 469.579, 1099.438 472.589, 1097.512 474.687 C 1093.567 478.982, 1093.122 482.022, 1095.597 487.782 C 1097.516 492.247, 1099.079 505.870, 1099.675 523.319 C 1100.030 533.693, 1099.792 536.977, 1098.431 540.543 C 1096.807 544.795, 1096.830 545.261, 1099.095 553.943 C 1100.635 559.846, 1101.967 563.050, 1102.971 563.264 C 1105.301 563.759, 1116.753 561.203, 1121.388 559.153 C 1126.101 557.068, 1129.087 553.740, 1141.745 536.470 C 1142.160 535.904, 1143.368 533.879, 1144.429 531.970 C 1145.969 529.199, 1158.417 510.887, 1161.742 506.500 C 1162.952 504.904, 1165 498.541, 1165 496.379 C 1165 495.291, 1165.490 493.910, 1166.089 493.311 C 1166.688 492.712, 1167.421 486.884, 1167.717 480.361 L 1168.255 468.500 1162.777 463.335 C 1159.073 459.842, 1155.875 457.798, 1152.900 457.020 C 1150.480 456.388, 1147.118 455.450, 1145.429 454.935 C 1141.624 453.776, 1126.614 453.930, 1118.257 455.214" stroke="#90cf92" fill="#90cf92" fill-opacity="0.2" fill-rule="evenodd"/><path class="svg-region-PV" d="M 977 414.829 C 975.075 415.791, 969.675 418.096, 965 419.950 C 960.325 421.805, 956.021 423.685, 955.435 424.130 C 954.849 424.574, 949.948 425.459, 944.543 426.097 C 936.075 427.095, 933.317 427.012, 924.608 425.494 C 915.798 423.959, 914.018 423.300, 910.747 420.366 C 907.789 417.713, 906.134 417, 902.931 417 C 896.838 417, 895 418.371, 895 422.916 C 895 426.107, 894.427 427.200, 891.637 429.328 C 889.787 430.739, 887.083 432.192, 885.627 432.557 C 884.172 432.923, 882.734 433.622, 882.432 434.111 C 882.129 434.600, 881.069 435, 880.076 435 C 879.082 435, 877.197 435.839, 875.885 436.865 C 874.573 437.891, 871.025 440.055, 868 441.675 C 864.975 443.294, 860.700 445.760, 858.500 447.154 C 853.709 450.190, 839.506 457, 837.964 457 C 836.173 457, 827 461.184, 827 462.001 C 827 462.416, 827.748 463.373, 828.663 464.128 C 829.577 464.882, 831.129 467.300, 832.111 469.500 C 833.094 471.700, 837.561 477.269, 842.038 481.875 C 850.062 490.131, 853.220 495.324, 854.560 502.470 C 854.927 504.424, 855.626 506.269, 856.113 506.570 C 856.601 506.871, 857 508.604, 857 510.419 C 857 512.292, 858.082 515.315, 859.500 517.405 C 860.875 519.431, 862 521.912, 862 522.919 C 862 523.925, 862.726 526.718, 863.612 529.124 C 866.319 536.470, 868.231 545.156, 868.711 552.296 C 869.193 559.471, 868.387 561.551, 864.576 562.961 C 861.600 564.062, 873.666 567.821, 883.936 568.993 C 889.720 569.652, 893.519 570.700, 896.537 572.469 C 898.912 573.861, 901.550 575, 902.397 575 C 903.245 575, 907.440 576.147, 911.719 577.548 C 922.552 581.095, 942.523 582.069, 952 579.511 C 955.575 578.546, 960.300 577.426, 962.500 577.022 C 964.700 576.618, 970.775 574.683, 976 572.722 C 984.682 569.464, 990.394 567.956, 1004.500 565.200 C 1016.323 562.890, 1024.647 560.884, 1026.653 559.863 C 1028.601 558.870, 1028.687 558.486, 1027.562 555.810 C 1026.878 554.184, 1025.675 552.099, 1024.888 551.177 C 1020.839 546.434, 1020 544.349, 1020.001 539.027 C 1020.002 535.987, 1019.478 529.745, 1018.837 525.156 C 1017.547 515.930, 1018.565 507.901, 1022.215 498.500 C 1025.971 488.826, 1027.160 487.105, 1032.343 483.852 C 1035.179 482.072, 1039.574 478.718, 1042.108 476.400 C 1046.625 472.268, 1053.035 468.451, 1058 466.935 C 1060.037 466.313, 1059.673 466.156, 1056.028 466.086 C 1051.730 466.003, 1051.187 465.623, 1041.993 456.250 C 1032.909 446.990, 1021 433.024, 1021 431.632 C 1021 431.276, 1018.525 427.392, 1015.500 423 C 1012.475 418.608, 1010 414.561, 1010 414.007 C 1010 413.375, 1004.515 413.015, 995.250 413.040 C 983.262 413.072, 979.845 413.407, 977 414.829" stroke="#b09658" fill="#b09658" fill-opacity="0.2" fill-rule="evenodd"/><path class="svg-region-LPVl" d="M 780.803 456.652 L 778.151 459.304 783.761 463.660 C 792.278 470.274, 792.986 471.786, 792.993 483.394 C 793 493.626, 793.167 492.821, 783.893 527.234 C 782.302 533.137, 781 540.203, 781 542.935 C 781 547.534, 778.907 557.723, 777.493 560.012 C 777.157 560.555, 775.671 561.014, 774.191 561.030 C 771.880 561.057, 771.747 561.205, 773.250 562.080 C 774.212 562.641, 775 563.752, 775 564.550 C 775 565.464, 776.017 566.002, 777.750 566.006 C 779.263 566.010, 781.850 566.717, 783.500 567.579 C 785.858 568.810, 788.426 569.022, 795.500 568.571 C 800.450 568.254, 809.527 567.761, 815.670 567.474 C 821.814 567.187, 829.014 566.239, 831.670 565.367 C 835.020 564.267, 841.003 563.713, 851.194 563.560 C 861.786 563.400, 866.342 562.961, 867.514 561.988 C 870.469 559.536, 868.401 542.118, 863.612 529.124 C 862.726 526.718, 862 523.875, 862 522.808 C 862 521.740, 860.953 519.434, 859.674 517.683 C 858.395 515.932, 857.272 513.233, 857.180 511.685 C 856.970 508.175, 852.322 494.337, 850.256 491.071 C 849.411 489.735, 845.182 485.028, 840.860 480.612 C 836.537 476.195, 833 472.068, 833 471.441 C 833 470.813, 831.616 468.389, 829.924 466.053 C 826.478 461.296, 827.039 461.341, 812.872 464.698 C 803.609 466.893, 800.593 466.067, 794 459.531 C 787.659 453.245, 784.827 452.627, 780.803 456.652" stroke="#494949" fill="#494949" fill-opacity="0.2" fill-rule="evenodd"/><path class="svg-region-LPVr" d="M 1104 451.820 C 1103.175 452.194, 1101.178 453.395, 1099.562 454.488 C 1096.787 456.366, 1091.377 458.104, 1077.500 461.578 C 1055.118 467.181, 1050.042 469.281, 1042.731 475.963 C 1039.700 478.733, 1036.958 481, 1036.639 481 C 1034.295 481, 1026.857 487.941, 1024.982 491.878 C 1023.771 494.420, 1022.440 497.186, 1022.023 498.024 C 1021.606 498.862, 1020.456 503.295, 1019.466 507.875 C 1017.901 515.117, 1017.819 517.345, 1018.833 524.965 C 1019.475 529.784, 1020 536.197, 1020 539.215 C 1020 543.459, 1020.558 545.475, 1022.460 548.102 C 1023.813 549.971, 1025.814 553.124, 1026.908 555.108 L 1028.896 558.717 1037.698 559.332 C 1042.539 559.670, 1051.450 560.619, 1057.500 561.441 C 1063.550 562.263, 1075.539 562.950, 1084.143 562.967 C 1097.528 562.995, 1099.874 562.771, 1100.395 561.412 C 1100.730 560.539, 1100.061 556.717, 1098.907 552.919 C 1096.895 546.295, 1096.877 545.800, 1098.465 540.749 C 1099.764 536.621, 1100.026 532.787, 1099.678 522.992 C 1099.065 505.748, 1097.495 492.198, 1095.597 487.782 C 1093.771 483.531, 1093.536 479.467, 1095.016 477.708 C 1095.574 477.044, 1097.082 475.312, 1098.366 473.860 C 1099.651 472.407, 1101.705 469.595, 1102.932 467.610 C 1104.159 465.624, 1105.517 464, 1105.949 464 C 1106.381 464, 1107.965 462.141, 1109.468 459.868 L 1112.203 455.737 1109.351 453.404 C 1106.231 450.852, 1106.174 450.835, 1104 451.820" stroke="#494949" fill="#494949" fill-opacity="0.2" fill-rule="evenodd"/><path class="svg-region-Fl" d="M 809 379.003 C 800.098 382.070, 789.944 384.653, 781.500 385.999 C 774.106 387.178, 772.103 387.943, 765.500 392.108 C 753.748 399.520, 754.771 397.622, 755.566 410.537 L 756.265 421.881 753.144 427.876 C 749.255 435.350, 749.687 438.854, 755.181 444.388 L 759.040 448.275 768.968 448.217 C 778.326 448.162, 779.152 448.327, 783.328 451.094 C 785.765 452.708, 790.363 456.491, 793.545 459.500 C 800.253 465.843, 803.585 466.848, 811.863 465.022 C 829.218 461.195, 845.713 454.709, 861.500 445.504 C 864.800 443.580, 868.175 441.712, 869 441.355 C 869.825 440.997, 871.897 439.673, 873.605 438.412 C 875.313 437.151, 879.223 435.236, 882.295 434.157 C 890.558 431.252, 895 427.531, 895 423.514 C 895 419.854, 891.979 417.379, 881.930 412.809 C 878.178 411.102, 875.076 408.692, 872.430 405.426 C 870.268 402.758, 866.755 398.759, 864.622 396.538 C 862.489 394.317, 858.703 389.904, 856.209 386.731 C 850.875 379.945, 847.241 378.556, 832.162 377.543 C 827.026 377.197, 821.626 376.726, 820.162 376.495 C 818.698 376.264, 813.675 377.393, 809 379.003" stroke="#5ca7a9" fill="#5ca7a9" fill-opacity="0.2" fill-rule="evenodd"/><path class="svg-region-Fr" d="M 1043.608 368.991 C 1038.441 369.925, 1033.394 371.737, 1031.155 373.463 C 1025.649 377.706, 1019.618 383.961, 1016.127 389.049 C 1009.996 397.983, 1009.123 400.664, 1009.760 408.605 C 1010.262 414.857, 1010.786 416.156, 1015.656 423.226 C 1018.595 427.494, 1021 431.261, 1021 431.599 C 1021 433.157, 1036.139 451.012, 1045.397 460.371 C 1052.077 467.124, 1055.143 467.369, 1073.556 462.622 C 1104.094 454.747, 1103.029 455.463, 1103.989 442.153 C 1104.630 433.267, 1104.671 433.156, 1109.016 428.597 C 1111.426 426.069, 1113.996 424, 1114.727 424 C 1115.459 424, 1118.685 422.674, 1121.896 421.052 C 1127.628 418.159, 1127.744 418.016, 1128.208 413.302 C 1128.504 410.298, 1129.864 406.587, 1131.840 403.389 C 1133.578 400.579, 1135 397.562, 1135 396.686 C 1135 393.812, 1132.736 390.051, 1130.598 389.373 C 1129.444 389.007, 1125.125 386.141, 1121 383.005 C 1111.735 375.959, 1107.772 373.844, 1102 372.863 C 1099.525 372.442, 1094.575 371.370, 1091 370.480 C 1083.430 368.596, 1051.370 367.589, 1043.608 368.991" stroke="#5ca7a9" fill="#5ca7a9" fill-opacity="0.2" fill-rule="evenodd"/><path class="svg-region-PCl" d="M 742.510 442.750 C 739.745 445.707, 734 455.317, 734 456.985 C 734 458.706, 736.945 458.116, 741.403 455.504 C 743.745 454.131, 747.875 452.712, 750.581 452.350 C 757.998 451.358, 759.180 447.879, 753.777 442.944 C 749.651 439.175, 745.913 439.110, 742.510 442.750" stroke="#465ee0" fill="#465ee0" fill-opacity="0.2" fill-rule="evenodd"/><path class="svg-region-PCr" d="M 1122 421 C 1118.975 422.598, 1115.787 423.927, 1114.917 423.953 C 1112.918 424.012, 1106.080 430.741, 1104.893 433.815 C 1104.402 435.088, 1104 438.871, 1104 442.220 C 1104 448.058, 1104.171 448.472, 1108.140 452.248 C 1111.811 455.740, 1112.688 456.121, 1115.890 455.612 C 1124.469 454.248, 1141.272 453.762, 1144.799 454.777 C 1146.834 455.363, 1150.420 456.348, 1152.767 456.966 C 1155.113 457.584, 1158.601 459.467, 1160.517 461.149 C 1163.709 463.952, 1165.590 463.990, 1162.795 461.195 C 1162.107 460.507, 1161.645 457.610, 1161.719 454.454 C 1161.842 449.193, 1161.679 448.810, 1158.428 446.709 C 1156.548 445.494, 1154.779 443.798, 1154.497 442.940 C 1154.216 442.083, 1151.402 439.158, 1148.243 436.440 C 1145.084 433.723, 1139.397 428.462, 1135.605 424.750 C 1131.813 421.038, 1128.438 418.021, 1128.105 418.047 C 1127.772 418.073, 1125.025 419.402, 1122 421" stroke="#465ee0" fill="#465ee0" fill-opacity="0.2" fill-rule="evenodd"/><path class="svg-region-Ol" d="M 449.151 414.435 C 440.182 415.886, 434.977 417.686, 426.500 422.269 C 424.850 423.161, 421.920 424.591, 419.988 425.447 C 414.430 427.908, 400.042 440.016, 391.930 449.059 C 387.843 453.613, 382.813 458.994, 380.750 461.016 C 378.688 463.038, 377 465.192, 377 465.802 C 377 467.029, 373.004 473.515, 370.562 476.250 C 369.703 477.212, 369 478.605, 369 479.345 C 369 480.085, 368.100 481.505, 367 482.500 C 365.900 483.495, 365 485.159, 365 486.197 C 365 487.235, 362.711 492.396, 359.912 497.665 C 353.511 509.720, 348 524.820, 348 530.306 C 348 532.620, 347.565 536.031, 347.033 537.885 C 345.492 543.259, 345.912 555.113, 347.994 565 C 348.631 568.025, 349.771 574.775, 350.529 580 C 353.455 600.189, 362.438 626.819, 369.419 635.999 C 371.939 639.312, 374 642.359, 374 642.771 C 374 643.182, 374.900 644.081, 376 644.768 C 377.100 645.455, 378 646.616, 378 647.348 C 378 648.080, 379.228 649.238, 380.729 649.922 C 383.164 651.032, 389.296 656.645, 403.865 671.099 C 406.414 673.628, 410.075 676.553, 412 677.599 C 413.925 678.645, 417.150 680.746, 419.167 682.268 C 421.184 683.791, 425.459 686.197, 428.667 687.616 C 436.061 690.885, 446.047 695.733, 448 697.001 C 453.061 700.286, 479.607 711.407, 485.222 712.594 C 490.343 713.677, 499.903 713.985, 525.373 713.888 C 543.760 713.818, 559.211 714.013, 559.710 714.321 C 560.952 715.088, 571.312 715.221, 578 714.554 C 583.926 713.964, 590.915 712.161, 592.450 710.826 C 592.973 710.372, 594.098 709.997, 594.950 709.994 C 595.803 709.990, 597.775 709.323, 599.333 708.510 C 600.891 707.697, 603.934 706.556, 606.095 705.974 C 608.255 705.393, 611.996 703.585, 614.407 701.958 C 616.818 700.331, 619.277 699, 619.872 699 C 620.467 699, 621.744 697.763, 622.709 696.250 C 623.674 694.737, 625.597 692.350, 626.982 690.945 C 632.158 685.692, 637 678.284, 637 675.618 C 637 674.983, 638.230 672.672, 639.732 670.482 C 642.722 666.125, 646.245 657.518, 646.171 654.750 C 646.145 653.788, 646.474 653, 646.902 653 C 647.704 653, 650.569 639.611, 650.310 637.075 C 650.230 636.292, 651.241 633.418, 652.557 630.689 C 653.873 627.961, 654.733 625.377, 654.468 624.948 C 654.203 624.519, 654.507 622.893, 655.145 621.334 C 656.529 617.953, 657.526 611.905, 659.572 594.500 C 660.962 582.674, 660.970 569.992, 659.597 555.500 C 659.389 553.300, 658.911 547.450, 658.536 542.500 C 657.927 534.478, 656.386 527.501, 653.897 521.500 C 649.778 511.568, 647.467 507.062, 643.319 500.872 C 633.978 486.930, 633.041 485.455, 630.453 480.627 C 624.561 469.632, 618.769 462.643, 612.500 458.964 C 610.300 457.673, 606.533 454.910, 604.129 452.825 C 598.916 448.305, 582.275 439.986, 572.500 437.015 C 555.769 431.929, 545.915 428.707, 537.500 425.571 C 528.810 422.332, 526.495 421.640, 513.500 418.394 C 510.200 417.570, 504.800 416.209, 501.500 415.369 C 493.065 413.224, 460.254 412.638, 449.151 414.435" stroke="#aa444d" fill="#aa444d" fill-opacity="0.2" fill-rule="evenodd"/><path class="svg-region-HRl" d="M 725.858 393.965 C 718.649 399.908, 718.500 400.747, 718.500 435.396 C 718.500 463.011, 718.685 466.597, 720.243 469.159 C 721.694 471.546, 722.280 471.838, 723.743 470.907 C 725.988 469.477, 730.384 462.948, 735.641 453.235 C 740.334 444.563, 744.817 440, 748.641 440 C 750.980 440, 751.191 439.703, 750.676 437.130 C 750.270 435.099, 751.001 432.418, 753.181 427.950 C 756.057 422.056, 756.226 421.098, 755.746 413.415 C 755.285 406.013, 754.859 404.627, 751.494 399.558 C 746.884 392.612, 743.924 391, 735.778 391 C 730.245 391, 729.006 391.370, 725.858 393.965" stroke="#d9dba1" fill="#d9dba1" fill-opacity="0.2" fill-rule="evenodd"/><path class="svg-region-HRr" d="M 1138.898 378.258 C 1137.029 379.500, 1134.508 382.478, 1133.296 384.876 C 1131.370 388.687, 1131.275 389.418, 1132.545 390.688 C 1133.344 391.486, 1134.270 393.229, 1134.604 394.560 C 1135.175 396.832, 1134.704 398.035, 1129.354 408 C 1128.616 409.375, 1128.010 412.111, 1128.006 414.081 C 1128 417.876, 1127.293 417.081, 1148.513 437.166 C 1151.806 440.283, 1155.240 443.658, 1156.145 444.666 C 1159.063 447.919, 1163.134 451, 1164.514 451 C 1165.253 451, 1166.619 451.762, 1167.551 452.693 C 1169.142 454.285, 1169.332 454.270, 1170.699 452.443 C 1173.507 448.695, 1170.740 418.659, 1166.790 410 C 1165.912 408.075, 1163.519 401.594, 1161.474 395.599 C 1159.428 389.603, 1156.907 383.261, 1155.871 381.507 C 1152.451 375.709, 1144.907 374.265, 1138.898 378.258" stroke="#d9dba1" fill="#d9dba1" fill-opacity="0.2" fill-rule="evenodd"/>
    </svg>