<svg xmlns="http://www.w3.org/2000/svg" width="1921" height="1027" viewBox="0 0 1921 1027" version="1.1">
    <path class="svg-region-PMl" d="M 753.965 460.960 C 751.846 462.201, 739.794 464.053, 732.247 464.297 C 726.709 464.477, 725.709 464.832, 723.497 467.406 C 721.823 469.354, 721 471.511, 721 473.956 C 721 475.960, 720.579 478.028, 720.064 478.550 C 719.100 479.529, 719.168 479.930, 723.097 496.500 C 725.128 505.069, 732.962 522.010, 739.191 531.305 C 743.348 537.508, 754.847 550.635, 759.219 554.168 C 765.058 558.886, 775.428 562, 785.303 562 C 792.642 562, 793.099 561.869, 793.998 559.504 C 794.608 557.901, 794.568 554.056, 793.887 548.754 C 792.483 537.822, 792.484 535.913, 793.912 504.744 L 795.138 477.988 791.472 471.954 C 789.456 468.635, 786.761 465.235, 785.485 464.398 C 784.208 463.561, 778.289 462.233, 772.332 461.447 C 759.869 459.801, 756.113 459.702, 753.965 460.960" stroke="#90cf92" fill="#90cf92" fill-opacity="0.2" fill-rule="evenodd"/><path class="svg-region-PMr" d="M 1106.642 460.851 C 1104.102 463.503, 1101.059 470.532, 1097.301 482.432 C 1095.917 486.814, 1095.897 488.989, 1097.121 501.932 C 1097.930 510.476, 1098.361 524.179, 1098.163 535.070 L 1097.826 553.640 1101.448 556.820 C 1103.470 558.596, 1106.184 560, 1107.592 560 C 1108.979 560, 1112.188 560.522, 1114.723 561.160 C 1118.864 562.203, 1119.745 562.096, 1123.416 560.105 C 1127.102 558.105, 1132 552.300, 1132 549.931 C 1132 549.419, 1132.436 549, 1132.968 549 C 1134.013 549, 1141.615 539.398, 1143.891 535.203 C 1144.656 533.793, 1147.693 529.278, 1150.641 525.171 C 1153.588 521.063, 1156 517.154, 1156 516.486 C 1156 515.817, 1156.851 514.188, 1157.891 512.866 C 1165.536 503.146, 1172.115 480.676, 1169.393 473.582 C 1169.059 472.712, 1167.916 472, 1166.853 472 C 1165.789 472, 1163.700 471.106, 1162.210 470.014 C 1156.679 465.960, 1145.236 462.915, 1130.546 461.587 C 1122.795 460.886, 1115.481 459.792, 1114.292 459.156 C 1111.038 457.415, 1109.638 457.725, 1106.642 460.851" stroke="#90cf92" fill="#90cf92" fill-opacity="0.2" fill-rule="evenodd"/><path class="svg-region-PV" d="M 992.801 408.927 C 988.846 412.059, 979.446 415.986, 973.086 417.161 C 970.033 417.726, 964.572 419.720, 960.952 421.594 C 954.851 424.751, 953.692 425, 945.089 425 C 936.554 425, 935.215 424.719, 928.432 421.500 C 924.376 419.575, 920.464 418, 919.740 418 C 919.016 418, 916.640 417.031, 914.461 415.847 C 912.283 414.664, 907.575 413.366, 904 412.964 C 894.635 411.912, 883.765 409.922, 881.852 408.911 C 879.964 407.912, 877.784 410.601, 876.606 415.383 C 875.540 419.705, 868.734 427.190, 857.562 436.324 C 852.063 440.821, 845.477 446.413, 842.928 448.750 C 840.378 451.087, 838.003 453, 837.649 453 C 837.294 453, 834.866 454.512, 832.252 456.360 C 829.639 458.208, 825.580 460.548, 823.233 461.560 C 820.887 462.572, 819.098 463.794, 819.259 464.276 C 819.629 465.386, 831.740 472, 833.403 472 C 834.086 472, 838.662 473.979, 843.573 476.397 C 850.039 479.582, 853.086 481.718, 854.627 484.147 C 857.702 488.996, 861.765 501.542, 862.514 508.500 C 862.869 511.800, 864.068 519.225, 865.177 525 C 866.453 531.643, 867.154 539.174, 867.085 545.500 C 866.983 554.828, 866.808 555.648, 864.488 557.702 C 863.119 558.913, 862 560.107, 862 560.354 C 862 561.164, 868.235 563, 870.983 563 C 872.459 563, 873.940 563.273, 874.274 563.608 C 874.609 563.942, 878.719 565.505, 883.408 567.080 C 892.141 570.015, 901.896 574.965, 904.041 577.550 C 904.703 578.347, 905.772 579, 906.416 579 C 907.061 579, 909.236 580.739, 911.251 582.865 C 913.927 585.689, 916.037 586.910, 919.083 587.397 C 921.377 587.764, 924.197 588.725, 925.349 589.532 C 926.502 590.339, 928.605 591, 930.023 591 C 931.440 591, 933.107 591.507, 933.726 592.126 C 934.484 592.884, 938.729 593.114, 946.730 592.828 C 956.831 592.468, 959.152 592.069, 962.234 590.165 C 964.227 588.932, 966.003 587.601, 966.179 587.206 C 966.782 585.854, 978.653 576, 979.678 576 C 980.240 576, 982.486 574.706, 984.669 573.125 C 986.852 571.543, 989.732 569.917, 991.069 569.510 C 992.406 569.103, 994.400 567.982, 995.500 567.019 C 996.600 566.056, 998.962 564.994, 1000.750 564.659 C 1002.537 564.324, 1005.918 563.176, 1008.263 562.108 C 1010.607 561.040, 1015.819 559.371, 1019.845 558.399 C 1026.718 556.741, 1027.049 556.537, 1025.273 555.066 C 1024.232 554.205, 1022.335 550.210, 1021.058 546.190 C 1018.532 538.238, 1018.621 531.881, 1021.336 526.456 C 1023.843 521.446, 1024.725 518.775, 1026.442 511 C 1029.344 497.851, 1032.468 491.110, 1039.019 483.855 C 1044.239 478.073, 1046.236 476.676, 1054.378 473.105 C 1059.526 470.847, 1064.359 468.998, 1065.119 468.996 C 1065.879 468.994, 1068.075 468.015, 1070 466.820 L 1073.500 464.648 1069.720 463.834 C 1066.290 463.094, 1063.373 461.189, 1050.596 451.343 C 1045.686 447.559, 1030 431.538, 1030 430.307 C 1030 429.123, 1019.540 419.109, 1014 414.988 C 1011.525 413.147, 1008.806 410.799, 1007.957 409.770 C 1006.936 408.531, 1004.569 407.711, 1000.957 407.344 C 996.373 406.879, 995.068 407.132, 992.801 408.927" stroke="#b09658" fill="#b09658" fill-opacity="0.2" fill-rule="evenodd"/><path class="svg-region-LPVl" d="M 775.764 454.619 C 774.651 457.061, 774.825 457.490, 777.991 460.134 C 779.879 461.710, 782 463, 782.705 463 C 784.212 463, 788.281 467.400, 792.225 473.297 L 795.037 477.500 794.484 496.500 C 794.179 506.950, 793.442 520.564, 792.845 526.754 C 792.058 534.924, 792.063 538.760, 792.863 540.754 C 793.469 542.264, 794.130 547.325, 794.331 552 L 794.696 560.500 799.005 561.894 C 802.599 563.057, 806.646 563.099, 823.407 562.147 C 858.096 560.177, 863.523 559.620, 865.296 557.847 C 867.770 555.373, 867.710 538.213, 865.181 525 C 864.076 519.225, 862.893 511.755, 862.553 508.399 C 861.866 501.624, 856.989 486.824, 854.214 483.093 C 852.268 480.477, 839.439 473.475, 834.676 472.429 C 831.533 471.738, 821.555 466.628, 818.921 464.360 C 818.053 463.612, 816.222 463, 814.853 463 C 811.771 463, 802.199 460.258, 799.500 458.603 C 796.426 456.717, 785.994 453.283, 781.235 452.592 C 777.319 452.022, 776.871 452.188, 775.764 454.619" stroke="#494949" fill="#494949" fill-opacity="0.2" fill-rule="evenodd"/><path class="svg-region-LPVr" d="M 1097.334 449.695 C 1096.143 449.927, 1091.847 452.950, 1087.789 456.413 C 1083.730 459.876, 1078.630 463.275, 1076.455 463.966 C 1074.280 464.657, 1071.600 465.780, 1070.500 466.460 C 1069.400 467.140, 1066.700 468.283, 1064.500 468.998 C 1041.027 476.637, 1030.984 487.987, 1026.009 512.500 C 1024.703 518.934, 1024.372 519.906, 1020.954 527.346 C 1019.123 531.332, 1018.831 533.287, 1019.305 538.368 C 1019.623 541.765, 1020.581 545.884, 1021.435 547.522 C 1022.289 549.160, 1022.990 551.232, 1022.994 552.128 C 1023.007 555.636, 1025.743 556.345, 1039.813 556.486 C 1049.056 556.579, 1054.398 557.064, 1056.266 557.980 C 1058.490 559.070, 1060.025 559.107, 1064.093 558.168 C 1072.617 556.200, 1088.047 556.673, 1095.114 559.119 C 1100.154 560.863, 1101.384 560.997, 1102.075 559.879 C 1102.631 558.979, 1102.059 557.627, 1100.379 555.874 L 1097.843 553.227 1098.172 534.863 C 1098.364 524.111, 1097.924 510.447, 1097.109 501.895 C 1095.590 485.946, 1095.238 488.607, 1101.070 472 C 1104.055 463.500, 1107.872 458, 1110.786 458 C 1113.004 458, 1106.961 451.343, 1103.601 450.085 C 1102.006 449.488, 1100.431 449.061, 1100.101 449.136 C 1099.770 449.211, 1098.525 449.462, 1097.334 449.695" stroke="#494949" fill="#494949" fill-opacity="0.2" fill-rule="evenodd"/><path class="svg-region-Fl" d="M 799.500 366.549 C 795.650 367.842, 791.251 368.922, 789.725 368.950 C 788.199 368.977, 783.924 370.510, 780.225 372.355 C 776.526 374.201, 772.375 376.004, 771 376.362 C 767.459 377.285, 763.469 383.064, 761.008 390.835 C 759.847 394.501, 758.245 398.918, 757.448 400.651 C 756.652 402.384, 756 404.467, 756 405.279 C 756 406.999, 753.725 412.211, 751.101 416.500 C 749.350 419.363, 749.253 421.580, 750.924 420.547 C 752.186 419.767, 755.652 424.183, 756.943 428.214 C 757.597 430.257, 760.127 434.499, 762.566 437.639 C 765.005 440.780, 767 443.913, 767 444.602 C 767 446.954, 771.885 449.702, 779.196 451.463 C 783.213 452.430, 786.950 453.552, 787.500 453.956 C 788.050 454.359, 790.649 455.271, 793.276 455.982 C 795.902 456.693, 798.284 457.650, 798.568 458.110 C 799.460 459.553, 812.018 463, 816.383 463 C 820.715 463, 830.584 458.612, 834.564 454.917 C 835.700 453.863, 837.050 452.991, 837.564 452.981 C 838.079 452.970, 840.300 451.359, 842.500 449.400 C 844.700 447.441, 851.450 441.642, 857.500 436.514 C 871.396 424.735, 876.035 419.231, 876.739 413.685 C 877.031 411.383, 877.669 408.992, 878.157 408.372 C 879.795 406.286, 877.254 402.585, 867.834 393.340 C 859.727 385.385, 845.839 375, 843.307 375 C 842.844 375, 840.897 373.952, 838.982 372.671 C 833.651 369.105, 817.195 363.984, 811.443 364.100 C 808.724 364.155, 803.350 365.257, 799.500 366.549" stroke="#5ca7a9" fill="#5ca7a9" fill-opacity="0.2" fill-rule="evenodd"/><path class="svg-region-Fr" d="M 1052.500 360.614 C 1042.349 363.213, 1039.822 364.353, 1035.364 368.341 C 1032.689 370.734, 1028.700 373.852, 1026.500 375.270 C 1021.456 378.519, 1016.614 383.264, 1011.500 389.966 C 1009.300 392.850, 1006.038 396.595, 1004.250 398.289 C 999.832 402.475, 999.751 406.567, 1004.068 407.515 C 1005.755 407.885, 1007.384 408.837, 1007.688 409.629 C 1007.992 410.421, 1010.324 412.491, 1012.870 414.227 C 1018.528 418.086, 1029.994 428.908, 1030.016 430.409 C 1030.024 431.009, 1032.293 433.701, 1035.058 436.390 C 1037.823 439.080, 1041.398 442.873, 1043.003 444.820 C 1044.607 446.766, 1047.894 449.740, 1050.307 451.429 C 1052.720 453.118, 1057.332 456.496, 1060.555 458.935 C 1065.289 462.518, 1067.390 463.451, 1071.487 463.790 C 1076.597 464.214, 1084 462.074, 1084 460.173 C 1084 459.661, 1086.509 457.307, 1089.576 454.941 C 1092.643 452.575, 1096.486 448.700, 1098.117 446.329 C 1100.830 442.386, 1113.715 431, 1115.464 431 C 1115.872 431, 1118.463 428.971, 1121.222 426.491 C 1126.499 421.746, 1130.846 419.321, 1134.991 418.808 C 1139.040 418.307, 1140.382 414.215, 1138.425 408.331 C 1135.033 398.128, 1127.184 383.377, 1123.807 380.856 C 1120.503 378.389, 1111.574 373.931, 1107.164 372.545 C 1105.880 372.141, 1102.672 370.470, 1100.035 368.831 C 1092.936 364.418, 1078.648 360.970, 1065.500 360.497 C 1059.450 360.280, 1053.600 360.332, 1052.500 360.614" stroke="#5ca7a9" fill="#5ca7a9" fill-opacity="0.2" fill-rule="evenodd"/><path class="svg-region-PCl" d="M 746.224 422.261 C 745.056 423.505, 743.802 426.389, 743.437 428.669 C 743.072 430.950, 741.054 435.351, 738.951 438.448 C 736.849 441.546, 734.591 445.750, 733.934 447.790 C 733.277 449.831, 732.388 451.950, 731.959 452.500 C 731.530 453.050, 730.872 455.145, 730.496 457.156 C 729.602 461.937, 732.719 465.560, 736.848 464.541 C 738.307 464.181, 741.885 463.498, 744.801 463.023 C 747.717 462.548, 752.254 461.607, 754.884 460.933 C 758.577 459.987, 761.424 459.969, 767.374 460.854 C 779.702 462.687, 779.710 462.685, 776.084 458.106 C 774.388 455.964, 773 453.892, 773 453.500 C 773 453.108, 771.650 451.083, 770 449 C 768.350 446.917, 767 444.793, 767 444.281 C 767 443.769, 765.005 440.780, 762.566 437.639 C 760.127 434.499, 757.597 430.257, 756.943 428.214 C 755.534 423.815, 752.310 420, 750 420 C 749.092 420, 747.393 421.018, 746.224 422.261" stroke="#465ee0" fill="#465ee0" fill-opacity="0.2" fill-rule="evenodd"/><path class="svg-region-PCr" d="M 1133.512 418.739 C 1130.473 419.186, 1123.034 424.094, 1119.535 427.961 C 1118.474 429.134, 1116.121 430.798, 1114.306 431.659 C 1110.038 433.685, 1097 446.033, 1097 448.050 C 1097 449.150, 1098 449.600, 1100.442 449.600 C 1103.212 449.600, 1104.942 450.601, 1109.307 454.729 C 1115.294 460.392, 1115.174 460.355, 1133 461.909 C 1145.081 462.962, 1157.165 466.315, 1162.210 470.013 C 1165.844 472.678, 1166.584 472.539, 1168.427 468.846 C 1171.278 463.132, 1169.602 453.184, 1165.370 450.703 C 1164.623 450.265, 1162.210 447.254, 1160.008 444.012 C 1157.806 440.770, 1155.196 437.528, 1154.207 436.808 C 1153.218 436.089, 1151.418 433.925, 1150.207 432 C 1148.996 430.075, 1145.979 426.481, 1143.503 424.013 C 1141.026 421.546, 1139 419.183, 1139 418.763 C 1139 417.982, 1138.671 417.980, 1133.512 418.739" stroke="#465ee0" fill="#465ee0" fill-opacity="0.2" fill-rule="evenodd"/><path class="svg-region-Ol" d="M 492.693 423.641 C 492.568 423.765, 486.624 424.376, 479.483 424.999 C 467.314 426.060, 452.034 428.882, 447.500 430.906 C 446.400 431.396, 444.038 432.348, 442.250 433.020 C 440.462 433.693, 439 434.567, 439 434.964 C 439 435.361, 436.956 436.737, 434.457 438.022 C 431.958 439.307, 428.921 441.340, 427.707 442.540 C 426.493 443.740, 424.023 445.479, 422.217 446.404 C 420.412 447.328, 419.170 448.467, 419.459 448.933 C 419.747 449.400, 418.895 450.494, 417.566 451.365 C 411.986 455.021, 399.394 468.022, 398.179 471.382 C 397.474 473.331, 395.120 477.587, 392.949 480.839 C 390.777 484.091, 389 487.207, 389 487.764 C 389 488.320, 387.601 491.863, 385.891 495.638 C 379.831 509.012, 378.730 511.538, 377.458 515 C 376.751 516.925, 374.739 521.411, 372.988 524.969 C 371.236 528.527, 369.560 533.027, 369.262 534.969 C 368.965 536.911, 368.368 539.195, 367.936 540.044 C 366.499 542.868, 366.791 557.391, 368.448 565.500 C 369.348 569.900, 371.202 577.775, 372.569 583 C 375.086 592.616, 375.529 594.337, 378.493 606 C 379.401 609.575, 380.787 613.774, 381.572 615.331 C 382.358 616.888, 383 618.801, 383 619.581 C 383 620.361, 383.420 621, 383.933 621 C 384.446 621, 385.185 622.009, 385.577 623.241 C 385.968 624.474, 387.913 627.512, 389.898 629.991 C 391.884 632.471, 393.956 635.240, 394.504 636.145 C 396.607 639.619, 413.159 657.909, 422.120 666.662 C 439.570 683.705, 452.885 693.034, 464 696.004 C 466.475 696.666, 468.725 697.502, 469 697.863 C 471.206 700.756, 479.828 704.599, 489.721 707.098 C 496.021 708.689, 501.542 710.217, 501.989 710.493 C 503.888 711.667, 518.991 714, 524.691 714 C 528.096 714, 531.165 714.457, 531.510 715.016 C 531.856 715.575, 532.471 715.827, 532.878 715.575 C 533.285 715.324, 541.017 714.640, 550.059 714.055 C 572.828 712.583, 591.581 708.486, 601.873 702.733 C 608.531 699.012, 623.266 685.067, 625.488 680.385 C 626.346 678.576, 628.068 675.837, 629.313 674.298 C 631.679 671.376, 636.522 661.705, 639.479 654 C 640.428 651.525, 641.609 648.719, 642.103 647.764 C 642.596 646.809, 643 645.527, 643 644.915 C 643 644.303, 643.623 642.384, 644.384 640.651 C 646.270 636.359, 648.785 627.611, 649.985 621.173 C 650.531 618.243, 651.267 615.377, 651.621 614.805 C 652.372 613.588, 653.521 609.222, 655.647 599.500 C 658.686 585.601, 658.755 585.085, 657.609 584.699 C 656.857 584.445, 656.950 583.780, 657.901 582.628 C 659.044 581.244, 659.093 579.967, 658.166 575.715 C 656.772 569.318, 655.002 550.675, 655.001 542.372 C 655 539.002, 654.325 534.629, 653.500 532.654 C 652.675 530.680, 652 527.899, 652 526.475 C 652 523.019, 643.813 506.327, 637.542 497 C 634.769 492.875, 632.274 489.275, 631.998 489 C 631.431 488.434, 630.277 485.920, 626.953 478 C 624.901 473.114, 622.712 470.396, 611.242 458.500 C 610.181 457.400, 607.796 455.600, 605.942 454.500 C 604.087 453.400, 601.429 451.739, 600.035 450.810 C 597.479 449.105, 587.167 444, 586.280 444 C 586.017 444, 584.384 443.364, 582.651 442.586 C 577.765 440.394, 572.998 439.132, 567 438.444 C 562.061 437.877, 546.477 433.471, 540 430.810 C 527.719 425.765, 511.590 422.725, 499.477 423.172 C 495.870 423.305, 492.817 423.516, 492.693 423.641" stroke="#aa444d" fill="#aa444d" fill-opacity="0.2" fill-rule="evenodd"/><path class="svg-region-HRl" d="M 727.763 385.565 C 720.725 389.384, 718.031 402.356, 717.305 435.924 C 716.790 459.686, 716.873 461.434, 718.568 462.674 C 720.545 464.119, 725.784 464.424, 727.701 463.206 C 728.362 462.786, 730.238 458.517, 731.869 453.720 C 733.501 448.923, 736.608 442.344, 738.774 439.101 C 741.032 435.719, 743.007 431.348, 743.404 428.852 C 743.886 425.824, 745.150 423.419, 747.561 420.945 C 751.023 417.392, 751.025 417.386, 750.165 411.098 C 749.692 407.638, 748.822 404.508, 748.232 404.143 C 747.641 403.778, 746.854 402.265, 746.481 400.781 C 746.109 399.297, 745.173 397.558, 744.402 396.919 C 743.631 396.279, 742.997 395.023, 742.993 394.128 C 742.984 391.783, 739.507 386.849, 736.810 385.353 C 733.789 383.677, 731.129 383.739, 727.763 385.565" stroke="#d9dba1" fill="#d9dba1" fill-opacity="0.2" fill-rule="evenodd"/><path class="svg-region-HRr" d="M 1144.642 387.501 C 1141.899 390.243, 1140 399.378, 1140 409.827 C 1140 419.264, 1140.159 420.040, 1142.733 423.173 C 1144.236 425.003, 1146.001 426.840, 1146.655 427.256 C 1147.309 427.672, 1148.882 429.697, 1150.149 431.756 C 1151.417 433.815, 1153.633 436.625, 1155.075 438 C 1156.516 439.375, 1159.124 442.621, 1160.870 445.213 C 1162.616 447.805, 1164.649 450.280, 1165.387 450.713 C 1166.125 451.146, 1167.491 452.990, 1168.422 454.812 C 1170.405 458.691, 1172.405 458.683, 1175.312 454.787 C 1177.116 452.368, 1177.398 450.049, 1177.918 433.393 C 1178.460 416.006, 1178.354 414.323, 1176.386 409.106 C 1172.596 399.052, 1171.133 396.317, 1168.688 394.715 C 1167.364 393.848, 1165.655 392.530, 1164.890 391.788 C 1159.405 386.462, 1148.079 384.064, 1144.642 387.501" stroke="#d9dba1" fill="#d9dba1" fill-opacity="0.2" fill-rule="evenodd"/>
    </svg>