<svg xmlns="http://www.w3.org/2000/svg" width="1921" height="1027" viewBox="0 0 1921 1027" version="1.1">
    <path class="svg-region-PMl" d="M 758.500 466.639 C 755.750 467.466, 750.350 468.835, 746.500 469.681 C 742.650 470.527, 738.552 472.088, 737.393 473.149 C 736.235 474.211, 733.535 475.341, 731.393 475.661 C 729.252 475.981, 726.938 476.949, 726.250 477.813 C 722.668 482.311, 727.127 502.870, 734.641 516.500 C 743.352 532.301, 759.064 553.091, 766.384 558.500 C 770.090 561.239, 771.097 561.491, 777.972 561.401 C 782.112 561.347, 788.619 560.897, 792.430 560.401 C 798.978 559.550, 799.407 559.334, 800.203 556.500 C 801.535 551.755, 800.011 494.480, 798.382 488.040 C 797.622 485.037, 797 481.188, 797 479.486 C 797 475.559, 792.237 470.762, 785.017 467.416 C 780.789 465.457, 778.259 465.013, 771.651 465.067 C 767.168 465.105, 761.250 465.812, 758.500 466.639" stroke="#90cf92" fill="#90cf92" fill-opacity="0.2" fill-rule="evenodd"/><path class="svg-region-PMr" d="M 1109.513 463.189 C 1106.324 467.985, 1104.056 472.940, 1102.551 478.401 C 1101.323 482.855, 1099.488 488.075, 1098.472 490 C 1097.013 492.765, 1096.462 496.966, 1095.849 510 C 1095.422 519.075, 1094.626 528.525, 1094.080 531 C 1093.534 533.475, 1093.068 538.737, 1093.044 542.693 C 1092.961 556.322, 1097.855 559.878, 1115.019 558.659 C 1122.556 558.124, 1124.687 557.559, 1128.876 554.981 C 1135.896 550.662, 1146.673 537.158, 1152.191 525.767 C 1153.810 522.424, 1156.197 518.297, 1157.496 516.594 C 1158.795 514.891, 1160.972 510.085, 1162.334 505.913 C 1163.695 501.742, 1166.366 495.217, 1168.268 491.414 C 1170.170 487.611, 1172.273 482.025, 1172.940 479 C 1173.607 475.975, 1174.597 472.040, 1175.139 470.256 C 1176.290 466.470, 1175.484 464.571, 1173.149 465.566 C 1168.954 467.353, 1161.430 467.757, 1149.056 466.858 C 1135.632 465.883, 1126.505 463.672, 1123.070 460.563 C 1122.166 459.746, 1119.811 458.401, 1117.835 457.576 L 1114.244 456.075 1109.513 463.189" stroke="#90cf92" fill="#90cf92" fill-opacity="0.2" fill-rule="evenodd"/><path class="svg-region-PV" d="M 992 394.980 C 988.425 395.969, 981.225 398.383, 976 400.342 C 970.775 402.302, 963.800 404.648, 960.500 405.555 C 957.200 406.463, 953.150 407.722, 951.500 408.353 C 946.807 410.148, 924.772 409.737, 916.207 407.695 C 912.092 406.714, 903.875 403.383, 897.352 400.050 L 885.789 394.144 882.394 397.232 C 880.528 398.931, 879 400.872, 879 401.545 C 879 402.218, 877.313 404.193, 875.250 405.935 C 857.630 420.815, 850.551 427.300, 846.603 432.177 C 842.061 437.790, 833.003 446, 821.120 455.278 C 817.754 457.906, 815 460.718, 815 461.528 C 815 462.338, 814.325 463, 813.500 463 C 812.675 463, 812 463.450, 812 464 C 812 464.550, 812.605 465, 813.345 465 C 814.085 465, 815.537 465.936, 816.572 467.080 C 817.930 468.580, 819.297 469.036, 821.477 468.716 C 823.223 468.459, 826.401 469.109, 829 470.254 C 838.195 474.306, 839.556 474.846, 842 475.417 C 843.375 475.739, 846.583 477.914, 849.129 480.251 C 853.243 484.027, 854.954 486.407, 861.055 496.841 C 864.656 502.999, 870 520.989, 870 526.954 C 870 529.234, 870.730 532.511, 871.622 534.236 C 872.890 536.689, 873.091 538.803, 872.543 543.936 C 872.157 547.546, 871.739 553.558, 871.614 557.295 L 871.385 564.089 874.943 565.647 C 881.750 568.627, 882.532 568.887, 887.872 569.956 C 896.226 571.628, 907.385 577.413, 923.144 588.242 C 932.230 594.485, 939.688 596.829, 944.567 594.974 C 945.977 594.439, 949.566 594, 952.542 594 C 957.116 594, 958.192 593.637, 959.491 591.654 C 960.336 590.364, 962.237 588.757, 963.715 588.084 C 965.192 587.411, 970.023 584.466, 974.451 581.540 C 984.284 575.040, 991.856 571.232, 1003 567.183 C 1011.805 563.983, 1024.462 561.002, 1029.250 561.001 C 1032.618 561, 1032.810 559.690, 1029.653 558.252 C 1027.383 557.218, 1023 549.525, 1023 546.576 C 1023 545.781, 1022.493 543.863, 1021.873 542.315 C 1021.254 540.767, 1020.619 535, 1020.462 529.500 C 1020.223 521.079, 1020.546 518.474, 1022.510 513 C 1023.793 509.425, 1025.530 502.450, 1026.370 497.500 C 1030.636 472.375, 1033.897 464.567, 1041.414 461.475 C 1043.661 460.551, 1046.281 459.391, 1047.236 458.897 C 1048.191 458.404, 1049.627 458, 1050.427 458 C 1053.047 458, 1053.075 456.200, 1050.517 452.429 C 1049.132 450.390, 1048 447.693, 1048 446.437 C 1048 445.181, 1046.937 442.881, 1045.637 441.327 C 1044.338 439.772, 1041.820 435.913, 1040.042 432.750 C 1038.264 429.588, 1036.402 426.748, 1035.905 426.441 C 1035.407 426.134, 1035 424.760, 1035 423.388 C 1035 418.524, 1026.545 408.532, 1017.081 402.213 C 1013.611 399.896, 1010.354 398, 1009.842 398 C 1009.331 398, 1007.699 396.875, 1006.217 395.500 C 1003.084 392.595, 1000.902 392.516, 992 394.980" stroke="#b09658" fill="#b09658" fill-opacity="0.2" fill-rule="evenodd"/><path class="svg-region-LPVl" d="M 800.769 464.871 C 795.586 465.440, 790.992 467.730, 791.005 469.740 C 791.007 470.158, 792.357 471.938, 794.005 473.696 C 795.881 475.697, 797 477.954, 797 479.736 C 797 481.300, 797.645 485.057, 798.434 488.085 C 799.477 492.090, 800.006 502.568, 800.375 526.545 L 800.882 559.500 808.191 560.323 C 812.211 560.775, 825.175 561.278, 837 561.440 C 848.825 561.602, 861.313 562.073, 864.750 562.487 C 871.704 563.325, 871.233 563.809, 871.550 555.500 C 871.655 552.750, 872.084 547.715, 872.504 544.312 C 873.092 539.537, 872.893 537.191, 871.633 534.042 C 870.735 531.796, 870 528.399, 870 526.491 C 870 522.741, 867.197 511.738, 864.053 503.141 C 859.859 491.674, 848.052 476.832, 842 475.417 C 840.625 475.096, 838.150 474.228, 836.500 473.488 C 826.227 468.884, 824.213 468.237, 821.666 468.723 C 819.680 469.103, 818.234 468.629, 816.547 467.044 C 813.893 464.551, 809.366 463.927, 800.769 464.871" stroke="#494949" fill="#494949" fill-opacity="0.2" fill-rule="evenodd"/><path class="svg-region-LPVr" d="M 1098.112 460.894 C 1094.615 464.221, 1090.831 467.236, 1089.704 467.594 C 1088.576 467.952, 1086.747 469.090, 1085.638 470.122 C 1082.546 473.003, 1076.698 472.546, 1070.379 468.931 C 1065.305 466.028, 1063.337 464.574, 1057.271 459.250 C 1055.861 458.012, 1053.986 457.012, 1053.104 457.027 C 1050.328 457.074, 1037.914 462.793, 1036.134 464.845 C 1032.024 469.584, 1029.763 477.127, 1026.045 498.500 C 1025.088 504, 1023.371 510.792, 1022.229 513.594 C 1020.479 517.885, 1020.197 520.417, 1020.439 529.655 C 1020.597 535.686, 1021.238 541.577, 1021.863 542.745 C 1022.489 543.913, 1023 545.756, 1023 546.840 C 1023 549.925, 1027.261 557.155, 1029.750 558.293 C 1030.987 558.858, 1032 559.763, 1032 560.303 C 1032 560.918, 1034.899 561.041, 1039.750 560.633 C 1057.678 559.122, 1065.911 558.173, 1067.016 557.490 C 1067.662 557.091, 1074.447 556.830, 1082.095 556.910 C 1095.153 557.046, 1096 556.939, 1096 555.150 C 1096 554.102, 1095.325 552.685, 1094.500 552 C 1092.509 550.348, 1092.509 539.301, 1094.500 528 C 1095.323 523.325, 1095.998 514.402, 1095.999 508.171 C 1096 498.545, 1096.365 495.913, 1098.425 490.671 C 1099.758 487.277, 1101.779 481.350, 1102.916 477.500 C 1104.054 473.650, 1106.787 467.669, 1108.992 464.210 C 1113.306 457.439, 1113.768 456, 1111.625 456 C 1110.869 456, 1108.949 455.740, 1107.360 455.422 C 1104.847 454.919, 1103.640 455.633, 1098.112 460.894" stroke="#494949" fill="#494949" fill-opacity="0.2" fill-rule="evenodd"/><path class="svg-region-Fl" d="M 804.500 364.953 C 802.850 365.364, 798.531 367.118, 794.903 368.850 C 791.275 370.583, 787.900 372, 787.403 372 C 786.906 372, 782.355 374.084, 777.289 376.632 C 770.397 380.098, 766.998 382.529, 763.789 386.286 C 761.430 389.047, 757.532 393.375, 755.126 395.903 L 750.753 400.500 751.366 407.780 C 752.097 416.458, 752.933 418.209, 762.010 430.083 C 765.854 435.112, 769 439.783, 769 440.462 C 769 442.544, 788.412 460.669, 793.032 462.901 C 800.109 466.321, 813.617 465.031, 815.528 460.754 C 816.063 459.557, 820.325 455.711, 825 452.208 C 835.782 444.126, 842.571 437.837, 847.352 431.500 C 850.629 427.156, 858.231 420.194, 874.750 406.407 C 877.087 404.457, 879 402.287, 879 401.585 C 879 400.884, 879.900 399.495, 881 398.500 C 884.593 395.249, 883.480 391.070, 878.151 387.802 C 876.143 386.571, 874.050 385.178, 873.500 384.706 C 871.746 383.203, 864.704 379.249, 858 376.002 C 854.425 374.271, 849.925 372.048, 848 371.062 C 846.075 370.076, 842.310 368.949, 839.634 368.556 C 836.958 368.164, 832.062 366.978, 828.754 365.921 C 822.563 363.944, 810.482 363.461, 804.500 364.953" stroke="#5ca7a9" fill="#5ca7a9" fill-opacity="0.2" fill-rule="evenodd"/><path class="svg-region-Fr" d="M 1065 357.508 C 1053.534 360.224, 1034.654 368.174, 1028 373.087 C 1024.425 375.726, 1020.825 378.523, 1020 379.303 C 1019.175 380.082, 1016.138 382.399, 1013.250 384.453 C 1009.158 387.364, 1008.003 388.773, 1008.014 390.844 C 1008.037 395.448, 1009.085 397.710, 1011.834 399.094 C 1022.553 404.488, 1034.912 417.360, 1034.972 423.191 C 1034.987 424.671, 1035.496 426.188, 1036.102 426.563 C 1036.708 426.938, 1037.860 428.652, 1038.662 430.372 C 1040.927 435.231, 1042.425 437.656, 1045.323 441.154 C 1046.795 442.931, 1048 445.221, 1048 446.242 C 1048 450.413, 1051.263 454.321, 1063.325 464.595 C 1067.360 468.032, 1075.966 472, 1079.385 472 C 1081.769 472, 1084.801 470.823, 1088.479 468.470 C 1095.287 464.115, 1106 453.929, 1106 451.811 C 1106 450.949, 1106.675 449.685, 1107.500 449 C 1109.284 447.519, 1109.443 442.866, 1107.858 438.484 C 1105.510 431.991, 1107.285 428.403, 1117.838 418.299 C 1123.152 413.211, 1130.287 406.900, 1133.692 404.274 C 1139.134 400.079, 1139.892 399.078, 1139.942 396.021 C 1139.974 394.108, 1138.846 389.523, 1137.436 385.832 C 1135.332 380.327, 1133.661 377.987, 1128.138 372.810 C 1121.918 366.981, 1109.408 359, 1106.490 359 C 1105.805 359, 1103.629 358.325, 1101.654 357.500 C 1097.105 355.599, 1073.035 355.604, 1065 357.508" stroke="#5ca7a9" fill="#5ca7a9" fill-opacity="0.2" fill-rule="evenodd"/><path class="svg-region-PCl" d="M 743.750 419.603 C 740.038 422.622, 737 425.691, 737 426.424 C 737 427.156, 736.348 428.296, 735.551 428.958 C 734.754 429.619, 733.571 431.811, 732.921 433.830 C 732.272 435.848, 730.455 440.121, 728.884 443.325 C 726.883 447.404, 726.059 450.550, 726.132 453.825 C 726.189 456.396, 725.795 461.650, 725.258 465.500 C 723.960 474.785, 724.777 476.398, 730.451 475.758 C 732.790 475.495, 736.014 474.310, 737.617 473.125 C 739.219 471.941, 742.998 470.562, 746.015 470.060 C 749.032 469.559, 753.288 468.393, 755.473 467.468 C 757.790 466.487, 763.417 465.570, 768.973 465.267 C 777.576 464.798, 779.078 464.992, 784.455 467.266 C 790.061 469.636, 790.543 469.687, 792.663 468.142 C 796.274 465.510, 796.232 464.124, 792.497 462.563 C 789.154 461.167, 769 442.017, 769 440.238 C 769 439.467, 761.094 428.321, 756.419 422.500 C 755.535 421.400, 754.096 419.038, 753.221 417.250 C 752.346 415.462, 751.375 414.026, 751.065 414.057 C 750.754 414.088, 747.462 416.584, 743.750 419.603" stroke="#465ee0" fill="#465ee0" fill-opacity="0.2" fill-rule="evenodd"/><path class="svg-region-PCr" d="M 1134 403.636 C 1108.315 425.895, 1105.443 429.730, 1107.816 438.601 C 1109.398 444.518, 1109.308 447.500, 1107.500 449 C 1104.139 451.789, 1107.196 455.197, 1114.149 456.414 C 1116.157 456.765, 1119.432 458.161, 1121.427 459.515 C 1123.423 460.869, 1126.306 462.624, 1127.835 463.414 C 1134.288 466.752, 1166.982 468.712, 1172 466.063 C 1179.221 462.250, 1179.709 458.410, 1174.405 447.139 C 1172.427 442.938, 1169.985 437.700, 1168.978 435.500 C 1161.565 419.308, 1159.412 415.589, 1152.765 407.500 C 1147.590 401.201, 1144.640 398.425, 1142.935 398.251 C 1141.204 398.074, 1138.620 399.632, 1134 403.636" stroke="#465ee0" fill="#465ee0" fill-opacity="0.2" fill-rule="evenodd"/><path class="svg-region-Ol" d="M 492.500 435.056 C 481.500 435.463, 468.980 436.291, 464.678 436.898 C 460.375 437.504, 454.439 438, 451.485 438 C 446.459 438, 431.659 442.187, 421.841 446.386 C 415.612 449.050, 397.467 466.601, 388.268 478.860 C 381.048 488.483, 371.183 509.269, 368.981 519.500 C 365.642 535.009, 366.990 559.232, 372.153 576.500 C 373.304 580.350, 374.847 586.338, 375.582 589.806 C 377.411 598.434, 383.703 611.091, 390.344 619.500 C 393.384 623.350, 397.990 629.545, 400.580 633.266 C 408.707 644.946, 429.145 663.895, 439.661 669.500 C 441.724 670.600, 446.322 673.403, 449.877 675.729 C 453.433 678.055, 457.952 680.463, 459.921 681.080 C 461.889 681.697, 466.425 683.467, 470 685.012 C 484.212 691.155, 493.906 693.779, 509 695.570 C 515.875 696.385, 522.175 697.250, 523 697.492 C 525.884 698.337, 545.573 700.898, 554 701.525 C 565.741 702.398, 579.037 700.580, 586.500 697.081 C 589.800 695.533, 593.625 693.921, 595 693.497 C 596.375 693.073, 598.703 691.775, 600.174 690.613 C 601.644 689.451, 604.690 687.170, 606.941 685.545 C 611.825 682.020, 623.023 670.571, 628.759 663.239 C 632.732 658.161, 638.938 646.322, 642.513 637 C 643.463 634.525, 644.598 631.600, 645.036 630.500 C 646.313 627.295, 648.119 619.445, 650.441 607 C 650.698 605.625, 651.408 602.250, 652.018 599.500 C 652.629 596.750, 653.369 586.722, 653.663 577.216 C 654.111 562.678, 653.942 559.398, 652.598 556.565 C 651.719 554.713, 651 552.216, 651 551.017 C 651 548.054, 646.508 534.844, 643.003 527.500 C 641.428 524.200, 639.204 519.297, 638.061 516.604 C 636.919 513.912, 635.314 511.212, 634.495 510.604 C 633.676 509.997, 631.764 506.957, 630.245 503.849 C 628.726 500.741, 625.912 496.296, 623.991 493.971 C 618.045 486.773, 600.617 468.936, 598.309 467.686 C 597.104 467.034, 593.718 464.856, 590.785 462.847 C 584.354 458.441, 569.625 450.586, 563.754 448.432 C 545.209 441.626, 524.877 436.003, 518.809 436.001 C 517.329 436, 515.840 435.550, 515.500 435 C 515.160 434.450, 514.346 434.071, 513.691 434.159 C 513.036 434.246, 503.500 434.650, 492.500 435.056" stroke="#aa444d" fill="#aa444d" fill-opacity="0.2" fill-rule="evenodd"/>
    </svg>