<svg xmlns="http://www.w3.org/2000/svg" width="1921" height="1027" viewBox="0 0 1921 1027" version="1.1">
    <path class="svg-region-PMl" d="M 773 469.051 C 770.525 469.491, 766.693 469.885, 764.485 469.926 C 762.277 469.967, 758.902 470.834, 756.985 471.853 C 755.068 472.872, 751.065 474.284, 748.088 474.991 C 745.112 475.699, 740.228 477.565, 737.237 479.139 C 734.245 480.712, 731.185 482, 730.437 482 C 728.525 482, 726.689 489.627, 727.438 494.458 C 727.783 496.681, 729.137 500.750, 730.447 503.500 C 731.757 506.250, 733.867 510.975, 735.136 514 C 736.405 517.025, 740.156 523.494, 743.472 528.375 C 746.787 533.256, 750.269 538.722, 751.209 540.522 C 752.150 542.322, 754.334 545.078, 756.063 546.647 C 757.793 548.216, 760.763 550.945, 762.664 552.711 C 767.287 557.004, 773.882 558.193, 786.720 557.050 C 792.099 556.571, 797.198 555.900, 798.051 555.559 C 798.904 555.218, 801.067 550.889, 802.859 545.938 C 806.032 537.171, 806.121 536.479, 806.308 519.219 L 806.500 501.500 802.384 494.500 C 800.120 490.650, 797.713 485.783, 797.034 483.684 C 795.450 478.782, 790.247 473.606, 783.753 470.474 C 780.933 469.113, 778.372 468.056, 778.063 468.125 C 777.753 468.194, 775.475 468.611, 773 469.051" stroke="#90cf92" fill="#90cf92" fill-opacity="0.2" fill-rule="evenodd"/><path class="svg-region-PMr" d="M 1116.500 472 C 1115.400 472.473, 1113.356 472.891, 1111.958 472.930 C 1108.912 473.014, 1101.912 479.855, 1099.607 485 C 1098.745 486.925, 1096.343 491.205, 1094.270 494.512 C 1092.196 497.818, 1089.896 502.093, 1089.157 504.012 C 1088.419 505.930, 1086.918 509.750, 1085.822 512.500 C 1081.155 524.217, 1079.756 528.812, 1079.277 534 C 1078.787 539.318, 1078.925 539.707, 1083.460 545.738 C 1088.663 552.656, 1089.015 552.956, 1094 554.727 C 1098.562 556.347, 1120.582 556.331, 1124.125 554.705 C 1128.187 552.841, 1132.383 548.859, 1136.542 542.923 C 1138.631 539.940, 1143.107 533.675, 1146.487 529 C 1152.850 520.200, 1159 507.732, 1159 503.631 C 1159 502.337, 1160.079 499.689, 1161.398 497.745 C 1163.356 494.860, 1167 485.005, 1167 482.596 C 1167 482.268, 1165.440 482, 1163.534 482 C 1160.293 482, 1153.176 479.402, 1151.956 477.774 C 1151.656 477.375, 1146.380 476.346, 1140.231 475.488 C 1134.081 474.631, 1127.182 473.270, 1124.899 472.464 C 1120.248 470.823, 1119.354 470.774, 1116.500 472" stroke="#90cf92" fill="#90cf92" fill-opacity="0.2" fill-rule="evenodd"/><path class="svg-region-PV" d="M 887.635 398.781 C 888.196 404.150, 888.008 404.905, 885.088 409.038 C 883.353 411.492, 881.195 414.625, 880.292 416 C 875.631 423.096, 865.220 430.550, 848.500 438.763 C 845.750 440.114, 843.350 441.620, 843.167 442.109 C 842.983 442.599, 842.253 443, 841.544 443 C 840.306 443, 835.228 445.240, 828.183 448.894 C 826.358 449.840, 822.629 453.504, 819.895 457.036 L 814.924 463.459 818.212 466.335 C 820.020 467.917, 823.525 470.247, 826 471.514 C 830.256 473.691, 840.179 481.115, 846.275 486.682 C 849.407 489.543, 858 500.461, 858 501.580 C 858 501.982, 859.125 503.786, 860.500 505.589 C 861.875 507.392, 863 509.114, 863 509.416 C 863 509.718, 864.766 512.850, 866.924 516.376 C 870.957 522.965, 874 530.561, 874 534.039 C 874 535.121, 874.900 537.686, 876 539.739 C 877.100 541.791, 878 544.041, 878 544.738 C 878 546.779, 865.232 559.023, 861.887 560.189 C 859.259 561.106, 859.025 561.454, 860.233 562.661 C 861.006 563.435, 863.407 564.320, 865.569 564.629 C 867.731 564.938, 870.942 565.834, 872.705 566.621 C 874.468 567.408, 878.518 568.507, 881.705 569.064 C 888.121 570.185, 887.678 570.019, 901 576.281 C 906.225 578.737, 911.591 581.929, 912.924 583.373 C 914.258 584.818, 915.698 586, 916.124 586 C 917.808 586, 926.693 592.535, 930 596.205 C 935.535 602.348, 945.107 602.695, 951.341 596.978 C 961.190 587.946, 965.445 584.502, 970.556 581.424 C 973.683 579.541, 976.570 578, 976.971 578 C 977.372 578, 979.668 576.575, 982.073 574.832 C 988.012 570.530, 995.362 568.003, 1001.986 567.985 C 1005.019 567.977, 1008.625 567.314, 1010 566.512 C 1011.375 565.710, 1013.969 564.358, 1015.764 563.507 C 1018.588 562.170, 1018.946 561.593, 1018.415 559.231 C 1018.077 557.729, 1016.496 554.333, 1014.901 551.684 C 1012.954 548.451, 1012 545.518, 1012 542.765 C 1012 535.873, 1014.035 525.773, 1016.513 520.363 C 1017.808 517.538, 1019.155 513.691, 1019.507 511.814 C 1019.891 509.765, 1023.322 504.223, 1028.088 497.950 C 1032.456 492.203, 1037.204 485.700, 1038.640 483.500 C 1040.077 481.300, 1043.863 476.314, 1047.054 472.421 C 1056.231 461.224, 1055.654 459.977, 1029.947 435.437 C 1025.301 431.002, 1019.255 425.602, 1016.510 423.437 C 1013.766 421.272, 1010.616 418.674, 1009.510 417.665 C 1008.405 416.656, 1006.352 415.228, 1004.948 414.492 C 1002.613 413.267, 999.141 409.772, 991.750 401.205 C 990.237 399.452, 989 397.062, 989 395.895 C 989 393.931, 988.647 393.826, 984.250 394.481 C 981.638 394.870, 977.700 395.998, 975.500 396.987 C 973.300 397.976, 969.340 399.511, 966.700 400.398 C 964.061 401.284, 960.148 402.904, 958.005 403.997 C 949.264 408.457, 918.294 407.571, 909.414 402.608 C 907.016 401.267, 903.579 399.851, 901.777 399.461 C 899.975 399.071, 895.919 397.454, 892.765 395.869 L 887.029 392.986 887.635 398.781" stroke="#b09658" fill="#b09658" fill-opacity="0.2" fill-rule="evenodd"/><path class="svg-region-LPVl" d="M 780.669 465.814 C 779.403 467.213, 779.299 467.899, 780.214 468.814 C 780.866 469.466, 781.796 470, 782.281 470 C 782.765 470, 785.524 471.569, 788.413 473.486 C 792.012 475.875, 794.268 478.287, 795.582 481.151 C 797.403 485.118, 801.369 492.936, 804.890 499.500 C 806.219 501.977, 806.462 505.513, 806.284 519.784 C 806.087 535.559, 805.842 537.698, 803.474 544.284 C 802.048 548.253, 800.232 552.497, 799.440 553.715 C 798.648 554.933, 798 556.170, 798 556.465 C 798 556.759, 803.075 557, 809.277 557 C 817.589 557, 821.108 557.387, 822.657 558.472 C 827.483 561.852, 854.796 562.976, 862.266 560.102 C 865.894 558.706, 878.002 546.504, 877.993 544.253 C 877.990 543.289, 877.093 541.150, 876 539.500 C 874.907 537.850, 874.010 535.503, 874.007 534.285 C 873.996 530.563, 871.052 523.121, 866.924 516.376 C 864.766 512.850, 863 509.718, 863 509.416 C 863 509.114, 861.875 507.392, 860.500 505.589 C 859.125 503.786, 858 501.945, 858 501.496 C 858 500.201, 849.895 489.771, 846.547 486.757 C 840.438 481.259, 830.403 473.744, 826.520 471.759 C 824.331 470.640, 820.884 468.394, 818.859 466.767 L 815.178 463.808 812.066 466.109 C 809.465 468.032, 807.400 468.478, 799.478 468.824 C 790.481 469.218, 789.828 469.106, 786.567 466.619 C 782.482 463.503, 782.729 463.537, 780.669 465.814" stroke="#494949" fill="#494949" fill-opacity="0.2" fill-rule="evenodd"/><path class="svg-region-LPVr" d="M 1045.918 473.750 C 1042.312 478.563, 1038.718 483.455, 1037.931 484.623 C 1037.144 485.791, 1032.825 491.598, 1028.332 497.528 C 1023.349 504.106, 1019.912 509.658, 1019.516 511.768 C 1019.159 513.670, 1017.808 517.538, 1016.513 520.363 C 1014.019 525.808, 1012 535.881, 1012 542.885 C 1012 545.753, 1012.808 548.291, 1014.522 550.803 C 1015.909 552.836, 1017.495 556.165, 1018.047 558.200 L 1019.050 561.900 1024.275 561.365 C 1027.149 561.070, 1031.750 560.381, 1034.500 559.833 C 1037.250 559.285, 1044.900 558.431, 1051.500 557.936 C 1058.100 557.441, 1067.606 556.353, 1072.624 555.518 C 1077.642 554.683, 1083.379 554, 1085.374 554 C 1087.368 554, 1089 553.551, 1089 553.003 C 1089 552.454, 1087.505 550.317, 1085.677 548.253 C 1080.331 542.216, 1078.999 539.774, 1079.012 536.027 C 1079.027 531.578, 1081.070 523.884, 1083.852 517.805 C 1085.033 515.223, 1086 512.644, 1086 512.074 C 1086 510.312, 1093.695 494.745, 1096.913 490 C 1098.591 487.525, 1099.972 484.918, 1099.982 484.207 C 1099.992 483.496, 1102.087 480.684, 1104.637 477.957 C 1107.187 475.231, 1108.823 473, 1108.272 473 C 1107.721 473, 1106.047 472.039, 1104.553 470.863 C 1102 468.855, 1100.479 468.703, 1079.169 468.324 C 1060.808 467.998, 1056.289 467.644, 1055.390 466.461 C 1054.779 465.657, 1053.873 465, 1053.377 465 C 1052.880 465, 1049.524 468.938, 1045.918 473.750" stroke="#494949" fill="#494949" fill-opacity="0.2" fill-rule="evenodd"/><path class="svg-region-Fl" d="M 782.500 364.641 C 781.400 364.947, 777.927 366.052, 774.782 367.098 C 771.636 368.144, 767.506 369, 765.603 369 C 763.700 369, 761.468 369.675, 760.643 370.500 C 759.818 371.325, 758.745 372, 758.259 372 C 756.017 372, 748.205 382.725, 747.356 386.968 C 747.028 388.611, 746.138 390.470, 745.379 391.100 C 744.621 391.730, 744 393.990, 744 396.122 C 744 399.974, 744.027 400, 747.965 400 C 753.851 400, 758.122 404.178, 760.975 412.729 C 762.217 416.453, 763.885 420.242, 764.680 421.149 C 766.923 423.705, 772.091 437.837, 773.200 444.445 C 774.866 454.373, 778.045 460.214, 784.391 465.005 L 789.990 469.233 800.109 468.827 C 810.223 468.420, 810.228 468.419, 813.363 464.903 C 819.765 457.724, 821.828 455.190, 822.898 453.190 C 824.026 451.083, 838.769 443, 841.484 443 C 842.318 443, 843 442.623, 843 442.162 C 843 441.702, 846.038 439.865, 849.750 438.080 C 868.047 429.284, 875.032 423.891, 882.750 412.601 C 890.281 401.583, 890.026 396.105, 881.811 392.431 C 879.440 391.370, 876.333 389.321, 874.906 387.877 C 871.667 384.597, 845.239 371.665, 838.500 370.063 C 835.750 369.409, 831.925 368.449, 830 367.931 C 828.075 367.412, 824.475 366.531, 822 365.974 C 816.953 364.838, 785.601 363.780, 782.500 364.641" stroke="#5ca7a9" fill="#5ca7a9" fill-opacity="0.2" fill-rule="evenodd"/><path class="svg-region-Fr" d="M 1053.500 363.090 C 1035.627 367.450, 1015.369 375.566, 1007.635 381.465 C 1005.807 382.859, 1003.995 384, 1003.608 384 C 1002.666 384, 992.025 390.832, 990.336 392.521 C 988.248 394.609, 988.753 397.726, 991.750 401.259 C 996.983 407.427, 1004.648 414.523, 1011.994 420 C 1019.797 425.819, 1033.997 438.859, 1045.205 450.500 C 1049.724 455.194, 1051.965 458.323, 1052.008 460 C 1052.043 461.375, 1053.068 463.678, 1054.286 465.117 C 1056.498 467.732, 1056.515 467.735, 1076.036 468.330 C 1098.415 469.011, 1100.380 468.766, 1099.730 465.366 C 1099.482 464.072, 1099.818 462.566, 1100.475 462.021 C 1101.133 461.475, 1102.273 459.110, 1103.009 456.764 C 1103.745 454.419, 1104.720 452.072, 1105.174 451.550 C 1105.628 451.027, 1106 449.775, 1106 448.767 C 1106 445.894, 1110.540 437.652, 1115.623 431.298 C 1121.685 423.721, 1130.157 415.002, 1131.466 414.994 C 1132.035 414.990, 1133.268 413.753, 1134.207 412.244 C 1135.146 410.735, 1137.301 407.888, 1138.996 405.918 C 1141.691 402.785, 1141.948 401.993, 1141.039 399.603 C 1140.468 398.100, 1140 393.833, 1140 390.120 L 1140 383.371 1132.812 376.225 C 1127.657 371.101, 1124.049 368.456, 1120.062 366.876 C 1117.003 365.664, 1113.929 364.234, 1113.231 363.698 C 1112.533 363.162, 1103.758 362.615, 1093.731 362.481 C 1083.704 362.348, 1072.350 361.992, 1068.500 361.689 C 1063.405 361.289, 1059.323 361.670, 1053.500 363.090" stroke="#5ca7a9" fill="#5ca7a9" fill-opacity="0.2" fill-rule="evenodd"/><path class="svg-region-PCl" d="M 741.003 402.750 C 739.221 404.368, 737.123 407.954, 735.904 411.463 C 734.765 414.743, 733.027 418.568, 732.042 419.963 C 729.940 422.941, 725.795 436.268, 723.569 447.208 C 721.764 456.077, 721.613 462.026, 722.978 470.500 C 723.749 475.281, 724.582 477.075, 727.080 479.332 C 730.548 482.465, 733.244 482.386, 737.978 479.016 C 739.408 477.997, 743.459 476.418, 746.979 475.505 C 750.500 474.593, 754.982 473.043, 756.940 472.060 C 758.898 471.078, 764.100 469.961, 768.500 469.579 C 772.900 469.197, 777.513 468.225, 778.750 467.419 C 781.098 465.890, 781.761 462.589, 779.947 461.467 C 778.091 460.320, 774.073 450.038, 773.388 444.684 C 773.023 441.833, 771.887 437.830, 770.862 435.790 C 769.838 433.749, 769 431.432, 769 430.641 C 769 429.850, 767.599 426.570, 765.887 423.352 C 764.175 420.133, 761.749 414.711, 760.495 411.302 C 757.508 403.178, 754.099 400, 748.370 400 C 745.038 400, 743.329 400.638, 741.003 402.750" stroke="#465ee0" fill="#465ee0" fill-opacity="0.2" fill-rule="evenodd"/><path class="svg-region-PCr" d="M 1137.542 407.750 C 1134.955 410.913, 1131.487 414.575, 1129.835 415.889 C 1123.879 420.624, 1112.161 435.119, 1108.935 441.740 C 1105.604 448.577, 1105.305 449.319, 1102.985 456.500 C 1102.274 458.700, 1101.060 460.963, 1100.287 461.530 C 1098.311 462.978, 1099.990 466.972, 1103.991 470.339 C 1107.454 473.253, 1112.961 473.886, 1117.369 471.878 C 1119.303 470.997, 1120.873 471.113, 1124.666 472.420 C 1127.325 473.336, 1134.078 474.736, 1139.674 475.530 C 1146.412 476.487, 1151.444 477.824, 1154.573 479.488 C 1166.918 486.051, 1174.142 480.017, 1175.568 461.952 C 1176.160 454.442, 1175.985 452.872, 1174.121 449.015 C 1172.954 446.600, 1172 444.094, 1172 443.446 C 1172 442.797, 1171.132 440.069, 1170.070 437.383 C 1169.009 434.698, 1167.013 429.572, 1165.636 425.993 C 1162.130 416.887, 1158.297 410.133, 1154.146 405.750 C 1151.146 402.583, 1149.945 402, 1146.420 402 C 1142.549 402, 1141.902 402.419, 1137.542 407.750" stroke="#465ee0" fill="#465ee0" fill-opacity="0.2" fill-rule="evenodd"/><path class="svg-region-Ol" d="M 477.200 453.180 C 476.265 453.554, 474.019 453.891, 472.208 453.930 C 460.282 454.184, 439.265 461.936, 430.523 469.305 C 422.201 476.318, 404.656 494.797, 402 499.344 C 399.576 503.494, 394.030 510.940, 391.085 514 C 390.290 514.825, 388.113 518.806, 386.245 522.847 L 382.850 530.193 383.205 555.347 L 383.559 580.500 387.783 591.396 C 391.674 601.430, 393.618 605.449, 399.928 616.500 C 402.430 620.881, 408.317 628.624, 410.965 631.016 C 412.869 632.736, 419.567 640.344, 425.500 647.525 C 427.700 650.188, 430.352 653.072, 431.393 653.934 C 432.434 654.795, 434.743 656.737, 436.525 658.250 C 438.306 659.763, 440.020 661, 440.332 661 C 440.644 661, 442.996 662.462, 445.559 664.250 C 461.305 675.233, 472.229 679.296, 497.500 683.571 C 529.912 689.054, 568.311 686.685, 590.780 677.818 C 607.851 671.081, 617.751 663.338, 626.668 649.750 C 629.104 646.038, 631.525 643, 632.048 643 C 632.572 643, 633.003 642.212, 633.006 641.250 C 633.010 640.288, 633.672 638.235, 634.478 636.690 C 635.831 634.096, 638.617 622.587, 639.607 615.500 C 639.837 613.850, 640.241 611.228, 640.503 609.674 C 640.766 608.119, 641.261 600.244, 641.603 592.174 C 641.945 584.103, 642.384 577.231, 642.577 576.903 C 642.904 576.349, 640.932 560.972, 639.511 553 C 639.168 551.075, 638.013 546.911, 636.944 543.746 C 635.875 540.581, 635 537.496, 635 536.889 C 635 536.282, 633.558 532.797, 631.796 529.143 C 630.034 525.489, 628.571 522.050, 628.545 521.500 C 628.519 520.950, 627.261 518.596, 625.749 516.270 C 624.237 513.943, 623 511.656, 623 511.187 C 623 510.717, 621.663 509.021, 620.028 507.417 C 618.393 505.813, 617.043 503.983, 617.028 503.351 C 616.950 500.134, 595.337 479.872, 583.944 472.335 C 572.189 464.559, 560.531 460.698, 543.755 459.028 C 531.284 457.786, 520.642 456.318, 514 454.923 C 507.397 453.535, 479.602 452.219, 477.200 453.180" stroke="#aa444d" fill="#aa444d" fill-opacity="0.2" fill-rule="evenodd"/>
    </svg>