<svg xmlns="http://www.w3.org/2000/svg" width="1921" height="1027" viewBox="0 0 1921 1027" version="1.1">
    <path class="svg-region-PMl" d="M 778 469.953 C 772.050 470.343, 767.316 471.210, 765.332 472.272 C 763.589 473.204, 758.651 475.113, 754.359 476.515 C 750.066 477.916, 745.424 479.836, 744.043 480.781 C 742.662 481.727, 739.275 483.662, 736.516 485.082 C 730.508 488.175, 730.462 488.650, 734.926 501.500 C 738.319 511.268, 741.599 517.979, 746.412 525 C 748.109 527.475, 750.218 531.075, 751.099 533 C 753.331 537.880, 763.401 548.488, 767.767 550.560 C 770.970 552.079, 773.466 552.201, 788.828 551.585 C 800.809 551.105, 806.655 550.488, 807.532 549.611 C 811.213 545.930, 807.371 504.281, 802.903 499.436 C 801.755 498.190, 801 495.919, 801 493.711 C 801 489.201, 790.338 468.695, 788.237 469.165 C 787.832 469.256, 783.225 469.610, 778 469.953" stroke="#90cf92" fill="#90cf92" fill-opacity="0.2" fill-rule="evenodd"/><path class="svg-region-PMr" d="M 1117.500 478.126 C 1114.750 478.616, 1111.095 478.778, 1109.379 478.487 C 1106.829 478.055, 1105.956 478.418, 1104.610 480.472 C 1102.343 483.932, 1096.108 490.839, 1085.756 501.356 C 1075.506 511.771, 1074.527 514.180, 1075.256 527.202 C 1075.751 536.031, 1076.088 537.030, 1082.491 548.605 L 1085.315 553.710 1100.709 554.272 C 1114.539 554.777, 1116.726 554.624, 1122.230 552.765 C 1129.156 550.426, 1135.614 544.754, 1138.597 538.389 C 1139.599 536.250, 1142.125 531.843, 1144.210 528.595 C 1146.294 525.347, 1148 522.342, 1148 521.917 C 1148 521.491, 1149.578 518.495, 1151.506 515.257 C 1154.935 509.502, 1157.519 501.863, 1158.981 493.163 C 1159.574 489.634, 1159.410 488.734, 1158.105 488.331 C 1156.051 487.699, 1152.917 486.271, 1151 485.093 C 1150.175 484.587, 1146.800 482.980, 1143.500 481.522 C 1140.200 480.065, 1136.719 478.451, 1135.764 477.936 C 1133.667 476.806, 1124.367 476.903, 1117.500 478.126" stroke="#90cf92" fill="#90cf92" fill-opacity="0.2" fill-rule="evenodd"/><path class="svg-region-PV" d="M 887.326 394.364 C 887.466 397.967, 887.900 401.234, 888.290 401.624 C 888.681 402.014, 889 405.158, 889 408.610 C 889 414.690, 886.248 422, 883.958 422 C 883.493 422, 882.300 423.379, 881.307 425.065 C 880.313 426.751, 877.266 429.507, 874.536 431.188 C 871.806 432.869, 866.856 436.797, 863.536 439.917 C 856.715 446.326, 849.902 450.984, 847.271 451.034 C 845.142 451.075, 840.030 453.522, 834.270 457.257 C 831.943 458.766, 829.835 460, 829.585 460 C 829.335 460, 827.929 460.457, 826.460 461.015 L 823.789 462.031 829.645 467.843 C 832.865 471.040, 835.950 474.306, 836.500 475.102 C 837.050 475.897, 839.041 478.787, 840.925 481.524 C 842.808 484.261, 845.111 487.249, 846.041 488.164 C 847.982 490.074, 856.081 502.276, 865.456 517.414 C 866.449 519.016, 868.992 522.206, 871.108 524.502 C 874.490 528.171, 874.979 529.330, 875.152 534.088 C 875.451 542.309, 872.893 560.104, 871.326 560.705 C 869.397 561.446, 869.703 563, 871.777 563 C 872.755 563, 874.551 563.697, 875.767 564.550 C 876.984 565.402, 880.797 567.164, 884.240 568.466 C 896.840 573.230, 903.579 576.318, 907 578.898 C 908.925 580.349, 913.062 583.253, 916.194 585.351 C 919.325 587.449, 923.280 590.816, 924.981 592.833 C 942.414 613.492, 941.541 612.626, 943.387 611.093 C 944.274 610.357, 945 609.173, 945 608.461 C 945 607.749, 945.378 607.017, 945.841 606.833 C 946.303 606.650, 948.264 604.412, 950.199 601.860 C 956.029 594.167, 969 582.135, 977.612 576.429 C 987.315 570.002, 988.404 569.555, 998.018 568.070 C 1008.079 566.516, 1017 563.221, 1017 561.060 C 1017 560.141, 1015.875 557.864, 1014.500 556 C 1013.125 554.136, 1012 551.899, 1012 551.028 C 1012 550.157, 1011.292 548.434, 1010.426 547.197 C 1007.058 542.390, 1011.515 527.803, 1020.623 513.824 C 1023.015 510.153, 1025.911 504.640, 1027.058 501.574 C 1028.205 498.508, 1029.561 496, 1030.072 496 C 1030.582 496, 1031 495.520, 1031 494.933 C 1031 493.549, 1035.214 487.881, 1041.262 481.129 C 1043.909 478.175, 1046.724 474.501, 1047.518 472.965 C 1048.894 470.305, 1048.771 469.884, 1044.928 464.130 C 1042.709 460.807, 1039.455 456.878, 1037.698 455.399 C 1035.940 453.920, 1033.779 451.538, 1032.896 450.105 C 1032.013 448.672, 1030.202 446.375, 1028.872 445 C 1027.542 443.625, 1024.013 439.238, 1021.031 435.250 C 1018.048 431.262, 1015.264 428, 1014.843 428 C 1014.422 428, 1013.273 427.172, 1012.289 426.159 C 1011.305 425.147, 1007.970 422.475, 1004.879 420.223 C 999.180 416.071, 996.856 413.543, 992.447 406.706 C 989.340 401.887, 989.350 398.827, 992.483 395.855 C 995.413 393.076, 995.881 390.422, 993.250 391.508 C 992.288 391.905, 990.025 392.584, 988.222 393.016 C 986.419 393.449, 984.394 394.253, 983.722 394.805 C 982.381 395.905, 975.073 396.968, 965 397.528 C 961.425 397.726, 953.550 398.365, 947.500 398.948 C 940.088 399.661, 935.554 399.679, 933.601 399.003 C 932.006 398.451, 928.361 398, 925.500 398 C 922.639 398, 918.994 397.587, 917.399 397.081 C 915.805 396.576, 911.800 395.406, 908.500 394.481 C 905.200 393.557, 901.600 392.445, 900.500 392.010 C 899.400 391.576, 896.541 390.689, 894.146 390.039 C 891.751 389.389, 889.180 388.622, 888.431 388.335 C 887.354 387.922, 887.124 389.178, 887.326 394.364" stroke="#b09658" fill="#b09658" fill-opacity="0.2" fill-rule="evenodd"/><path class="svg-region-LPVl" d="M 819.500 462.724 C 818.400 462.994, 816.950 463.661, 816.278 464.207 C 815.606 464.752, 809.676 465.296, 803.101 465.416 C 788.456 465.684, 786.989 466.439, 790.673 471.812 C 792.063 473.841, 793.609 476.400, 794.108 477.500 C 794.608 478.600, 796.333 481.750, 797.942 484.500 C 799.762 487.611, 800.892 490.987, 800.934 493.436 C 800.974 495.830, 801.742 498.179, 802.895 499.436 C 804.259 500.921, 805.269 504.852, 806.495 513.447 C 807.432 520.018, 808.567 526.361, 809.016 527.542 C 810.084 530.350, 809.163 545.858, 807.757 548.748 C 806.314 551.716, 807.151 552.363, 812.788 552.640 C 815.379 552.768, 819.975 553.384, 823 554.008 C 826.025 554.633, 832.775 555.516, 838 555.970 C 850.092 557.022, 853.933 557.695, 862.225 560.217 C 868.507 562.128, 869.114 562.155, 871.443 560.629 C 872.814 559.731, 873.720 558.433, 873.455 557.744 C 873.191 557.056, 873.615 552.219, 874.397 546.996 C 876.076 535.780, 875.507 528.074, 872.861 526.203 C 871.852 525.489, 865.671 516.877, 859.125 507.064 C 852.579 497.251, 846.481 488.385, 845.575 487.361 C 841.885 483.194, 839 479.150, 839 478.146 C 839 476.566, 824.223 461.981, 822.758 462.116 C 822.066 462.180, 820.600 462.453, 819.500 462.724" stroke="#494949" fill="#494949" fill-opacity="0.2" fill-rule="evenodd"/><path class="svg-region-LPVr" d="M 1081.105 471.488 C 1068.040 474.711, 1067.521 474.760, 1060.105 473.473 C 1055.922 472.748, 1051.598 471.871, 1050.496 471.525 C 1048.953 471.040, 1048.046 471.654, 1046.547 474.198 C 1045.476 476.014, 1042.742 479.525, 1040.470 482 C 1034.544 488.457, 1027.530 498.910, 1026.326 503.080 C 1025.757 505.049, 1023.157 509.930, 1020.548 513.926 C 1011.419 527.911, 1007.028 542.346, 1010.426 547.197 C 1011.292 548.434, 1012 550.157, 1012 551.028 C 1012 551.899, 1013.125 554.136, 1014.500 556 C 1015.875 557.864, 1017 560.201, 1017 561.194 C 1017 562.543, 1017.777 563, 1020.066 563 C 1021.752 563, 1023.894 562.592, 1024.825 562.093 C 1027.835 560.483, 1051.958 556.001, 1057.816 555.964 C 1060.942 555.945, 1066.200 555.277, 1069.500 554.480 C 1072.800 553.683, 1077.412 553.024, 1079.750 553.016 C 1084.933 552.997, 1085.068 552.070, 1080.852 545.446 C 1076.960 539.331, 1075.020 532.344, 1075.036 524.500 C 1075.057 513.608, 1076.107 511.266, 1084.698 502.933 C 1088.989 498.770, 1093.832 493.595, 1095.459 491.433 C 1097.087 489.270, 1098.987 487.050, 1099.681 486.500 C 1100.375 485.950, 1102.231 483.758, 1103.805 481.629 L 1106.666 477.757 1104.583 475.467 C 1103.437 474.207, 1101.600 472.016, 1100.500 470.598 C 1099.400 469.181, 1097.600 468.057, 1096.500 468.102 C 1095.400 468.146, 1088.472 469.670, 1081.105 471.488" stroke="#494949" fill="#494949" fill-opacity="0.2" fill-rule="evenodd"/><path class="svg-region-Fl" d="M 778 357.500 C 775.525 358.189, 769.675 360.614, 765 362.890 C 758.350 366.128, 755.051 368.548, 749.840 374.012 C 742.899 381.291, 739 387.829, 739 392.188 C 739 394.404, 739.541 394.831, 743.069 395.395 C 747.495 396.103, 750.178 398.452, 755.454 406.237 C 757.219 408.842, 760.530 412.326, 762.812 413.979 C 765.094 415.632, 767.982 418.528, 769.230 420.414 C 770.479 422.300, 774.509 427.160, 778.186 431.213 C 784.872 438.584, 785.816 440.415, 790.583 455.285 C 792.049 459.856, 792.192 461.462, 791.268 462.942 C 790.189 464.671, 790.549 464.867, 795.940 465.493 C 799.153 465.866, 804.419 465.882, 807.641 465.528 C 815.596 464.654, 829.618 460.253, 834.500 457.099 C 840.067 453.501, 845.178 451.074, 847.271 451.034 C 849.833 450.985, 856.533 446.420, 864 439.636 C 867.575 436.388, 872.555 432.454, 875.066 430.893 C 877.578 429.332, 880.242 426.917, 880.985 425.527 C 881.729 424.137, 882.706 423, 883.156 423 C 883.607 423, 885.106 421.209, 886.487 419.020 C 888.490 415.848, 889 413.749, 889 408.687 C 889 405.192, 888.674 402.008, 888.276 401.610 C 887.878 401.211, 887.476 398.413, 887.383 395.390 C 887.214 389.898, 885.174 386, 882.467 386 C 881.795 386, 880.692 385.334, 880.017 384.521 C 878.677 382.906, 877.639 382.303, 864.895 375.732 C 860.162 373.292, 854.302 369.928, 851.872 368.256 C 849.442 366.584, 845.439 364.669, 842.977 364.001 C 840.515 363.332, 836.250 361.776, 833.500 360.544 C 830.750 359.311, 826.356 357.785, 823.736 357.151 C 817.317 355.600, 783.914 355.855, 778 357.500" stroke="#5ca7a9" fill="#5ca7a9" fill-opacity="0.2" fill-rule="evenodd"/><path class="svg-region-Fr" d="M 1055.860 360.473 C 1055.600 360.733, 1052.263 361.604, 1048.444 362.409 C 1044.318 363.278, 1038.456 365.572, 1034 368.062 C 1029.875 370.367, 1022 374.492, 1016.500 377.229 C 1011 379.966, 1006.275 382.549, 1006 382.968 C 1005.725 383.387, 1004.527 384.034, 1003.339 384.404 C 1002.150 384.775, 1000.002 386.619, 998.566 388.503 C 997.129 390.386, 994.614 393.394, 992.977 395.186 C 989.151 399.376, 989.227 401.763, 993.396 408.231 C 997.149 414.053, 1000.148 417.036, 1007.250 422.011 C 1009.862 423.842, 1012 425.682, 1012 426.102 C 1012 426.522, 1012.814 427.124, 1013.809 427.439 C 1014.804 427.755, 1018.056 431.273, 1021.036 435.257 C 1024.015 439.241, 1027.542 443.625, 1028.872 445 C 1030.202 446.375, 1032.012 448.659, 1032.895 450.075 C 1033.778 451.491, 1036.214 454.148, 1038.309 455.980 C 1040.404 457.812, 1042.950 460.928, 1043.967 462.905 C 1047.460 469.693, 1051.087 472.146, 1059.699 473.541 C 1066.965 474.718, 1068.220 474.637, 1078 472.364 C 1096.510 468.060, 1097.155 467.846, 1096.529 466.215 C 1096.213 465.392, 1096.573 463.769, 1097.329 462.609 C 1098.085 461.449, 1101.083 456, 1103.991 450.500 C 1106.900 445, 1109.555 440.275, 1109.892 440 C 1110.230 439.725, 1111.666 437.700, 1113.085 435.500 C 1114.504 433.300, 1117.894 428.125, 1120.618 424 C 1123.342 419.875, 1126.226 415.202, 1127.027 413.615 C 1127.828 412.028, 1129.536 410.003, 1130.824 409.115 C 1138.626 403.734, 1140 401.944, 1140 397.161 C 1140 390.515, 1135.770 382.777, 1127.711 374.677 C 1119.779 366.704, 1115.010 364.321, 1104.298 362.978 C 1099.998 362.439, 1094.911 361.548, 1092.996 360.999 C 1089.567 360.015, 1056.782 359.551, 1055.860 360.473" stroke="#5ca7a9" fill="#5ca7a9" fill-opacity="0.2" fill-rule="evenodd"/><path class="svg-region-PCl" d="M 736.606 397.250 C 735.813 398.488, 733.947 402.200, 732.458 405.500 C 730.970 408.800, 728.934 413.300, 727.934 415.500 C 726.934 417.700, 725.678 421.525, 725.143 424 C 723.601 431.132, 721.722 453.188, 722.242 458.062 C 722.836 463.630, 726.908 479.179, 728.105 480.450 C 728.597 480.973, 729 482.885, 729 484.700 C 729 487.262, 729.420 488, 730.878 488 C 731.910 488, 733.315 487.325, 734 486.500 C 734.685 485.675, 735.767 485, 736.406 485 C 737.045 485, 740.007 483.428, 742.990 481.507 C 745.972 479.585, 750.007 477.720, 751.956 477.361 C 753.905 477.002, 758.948 475.199, 763.162 473.354 C 769.778 470.458, 771.927 470, 778.899 470 L 786.975 470 789.487 466.020 C 792.358 461.473, 792.565 459.409, 790.615 454.784 C 789.854 452.978, 788.319 448.575, 787.204 445 C 785.534 439.643, 784.009 437.269, 778.529 431.500 C 774.871 427.650, 770.818 422.879, 769.521 420.898 C 768.223 418.917, 765.213 415.779, 762.831 413.924 C 760.449 412.069, 758.180 410.090, 757.790 409.526 C 751.625 400.619, 748.367 396.975, 745.754 396.064 C 741.014 394.412, 738.188 394.778, 736.606 397.250" stroke="#465ee0" fill="#465ee0" fill-opacity="0.2" fill-rule="evenodd"/><path class="svg-region-PCr" d="M 1135.822 405.282 C 1134.350 406.502, 1132.096 408.227, 1130.814 409.115 C 1129.532 410.003, 1127.812 412.028, 1126.991 413.615 C 1126.171 415.202, 1121.758 422.087, 1117.184 428.917 C 1112.610 435.746, 1106.581 445.646, 1103.786 450.917 C 1100.990 456.187, 1098.139 461.400, 1097.449 462.500 C 1095.981 464.839, 1097.102 468.718, 1099.513 469.643 C 1100.372 469.973, 1101.740 471.530, 1102.554 473.104 C 1105.119 478.064, 1109.097 479.377, 1117.685 478.100 C 1130.842 476.143, 1135.363 476.923, 1146.236 483.025 C 1147.191 483.561, 1148.584 484, 1149.331 484 C 1150.079 484, 1151.505 484.900, 1152.500 486 C 1153.630 487.249, 1155.580 488, 1157.691 488 C 1160.770 488, 1161.253 487.577, 1163.115 483.250 C 1166.924 474.396, 1169.264 460.451, 1168.564 450.778 C 1167.423 435.022, 1163.359 422.557, 1156.340 413.289 C 1148.965 403.551, 1141.451 400.618, 1135.822 405.282" stroke="#465ee0" fill="#465ee0" fill-opacity="0.2" fill-rule="evenodd"/><path class="svg-region-Ol" d="M 489 466.537 C 475.823 468.666, 466.464 470.935, 464.391 472.505 C 463.351 473.292, 461.712 473.951, 460.750 473.968 C 459.788 473.986, 458.996 474.337, 458.992 474.750 C 458.988 475.163, 457.975 475.969, 456.742 476.542 C 451.332 479.055, 445.474 482.716, 442.622 485.367 C 440.926 486.944, 437.054 489.821, 434.019 491.760 C 430.983 493.699, 427.453 496.459, 426.173 497.893 C 423.351 501.055, 415 513.436, 415 514.458 C 415 514.861, 414.098 516.457, 412.997 518.005 C 411.895 519.552, 411.255 521.500, 411.574 522.333 C 411.928 523.254, 411.342 524.282, 410.078 524.958 C 408.837 525.623, 408 527.063, 408 528.535 C 408 529.891, 407.550 531, 407 531 C 406.450 531, 406 531.533, 406 532.184 C 406 532.836, 405.114 535.198, 404.032 537.434 C 402.777 540.026, 401.927 544.254, 401.687 549.095 C 401.480 553.272, 400.971 557.238, 400.556 557.909 C 400.141 558.581, 400.059 560.563, 400.374 562.315 C 400.689 564.067, 401.220 569.100, 401.554 573.500 C 402.185 581.819, 408.293 605.384, 410.496 608 C 411.190 608.825, 412.497 610.956, 413.398 612.737 C 416.282 618.431, 426.028 628.051, 434.939 634 C 436.175 634.825, 438.382 636.513, 439.843 637.752 C 441.304 638.990, 444.857 641.158, 447.738 642.569 C 450.619 643.981, 453.319 645.691, 453.738 646.371 C 454.157 647.050, 456.750 648.438, 459.500 649.454 C 462.250 650.470, 467.385 652.873, 470.911 654.794 C 481.353 660.481, 482.426 660.987, 484.060 660.994 C 484.917 660.997, 489.414 661.960, 494.052 663.133 C 501.374 664.984, 504.199 665.184, 515.493 664.652 C 522.647 664.314, 537.725 663.610, 549 663.086 C 581.319 661.585, 598.360 656.865, 605.733 647.373 C 607.255 645.414, 610.280 641.785, 612.456 639.308 C 616.748 634.423, 618.101 632.363, 620.536 627 C 621.410 625.075, 622.772 622.082, 623.562 620.349 C 624.353 618.616, 625 616.224, 625 615.033 C 625 613.843, 625.445 612.038, 625.988 611.023 C 626.531 610.008, 627.204 606.775, 627.483 603.839 C 627.762 600.902, 628.380 596.025, 628.856 593 C 629.688 587.718, 629.597 572.759, 628.696 566.500 C 627.513 558.290, 626.617 554.277, 625.459 552 C 623.938 549.009, 620.613 539.910, 620.526 538.500 C 620.389 536.298, 615.108 526.381, 613.120 524.595 C 611.954 523.547, 611 522.300, 611 521.824 C 611 520.550, 605.728 512.632, 604.260 511.700 C 603.567 511.260, 603 510.494, 603 509.996 C 603 508.810, 595.538 500.586, 585.184 490.359 C 577.118 482.392, 566.968 476.015, 562.313 475.990 C 561.316 475.985, 558.025 474.815, 555 473.390 C 541.649 467.101, 534.889 465.741, 515.500 465.442 C 503.730 465.260, 494.558 465.640, 489 466.537" stroke="#aa444d" fill="#aa444d" fill-opacity="0.2" fill-rule="evenodd"/>
    </svg>