<svg xmlns="http://www.w3.org/2000/svg" width="1921" height="1027" viewBox="0 0 1921 1027" version="1.1">
    <path class="svg-region-PMl" d="M 781.958 474.975 C 781.156 475.408, 776.225 476.733, 771 477.919 C 765.775 479.105, 760.375 480.472, 759 480.957 C 757.625 481.441, 755.375 482.090, 754 482.398 C 752.625 482.707, 748.819 485.473, 745.543 488.544 C 739.639 494.080, 739.583 494.186, 739.181 500.502 C 738.845 505.773, 739.135 507.381, 740.855 509.797 C 742 511.404, 744.757 516.495, 746.982 521.109 C 750.753 528.931, 756.712 537.452, 759.701 539.298 C 760.411 539.736, 762.682 541.674, 764.746 543.603 C 771.130 549.569, 772.406 549.913, 790.845 550.638 L 807.847 551.307 811.480 547.903 C 817.048 542.688, 819 538.917, 819 533.378 C 819 528.654, 815.364 516.755, 812.632 512.539 C 811.906 511.417, 809.826 507.800, 808.010 504.500 C 800.208 490.321, 785.148 473.253, 781.958 474.975" stroke="#90cf92" fill="#90cf92" fill-opacity="0.2" fill-rule="evenodd"/><path class="svg-region-PMr" d="M 1111.500 480.843 C 1109.300 481.880, 1106.375 483.833, 1105 485.182 C 1098.743 491.321, 1086.510 504.831, 1084.339 508 C 1083.021 509.925, 1080.790 513.075, 1079.383 515 C 1076.947 518.331, 1076.842 519.008, 1077.213 529 C 1077.578 538.853, 1077.798 539.784, 1080.774 544.105 C 1084.874 550.058, 1085.250 550.324, 1093.303 552.966 C 1099.242 554.915, 1101.758 555.154, 1113.125 554.849 L 1126.145 554.500 1129.822 550.338 C 1135.638 543.757, 1141.855 535.550, 1142.626 533.437 C 1143.014 532.372, 1144.526 529.925, 1145.985 528 C 1151.423 520.824, 1157.662 501.397, 1156.418 495.513 C 1154.679 487.286, 1146.678 482.686, 1131.084 480.946 C 1126.363 480.420, 1120.925 479.757, 1119 479.473 C 1116.722 479.137, 1114.103 479.616, 1111.500 480.843" stroke="#90cf92" fill="#90cf92" fill-opacity="0.2" fill-rule="evenodd"/><path class="svg-region-PV" d="M 887.936 391.750 C 886.117 396.678, 883.042 404.888, 881 410.269 C 879.900 413.167, 879 415.920, 879 416.385 C 879 416.851, 876.750 420.095, 874 423.595 C 871.250 427.094, 869 430.410, 869 430.964 C 869 431.518, 864.612 436.515, 859.250 442.069 C 853.888 447.622, 847.544 454.357, 845.154 457.035 C 842.763 459.713, 839.163 462.757, 837.154 463.799 C 835.144 464.841, 833.391 466.325, 833.258 467.097 C 833.125 467.869, 834.877 469.625, 837.150 471 C 839.424 472.375, 841.815 474.015, 842.464 474.644 C 843.113 475.273, 846.762 477.749, 850.572 480.147 C 860.366 486.311, 873.054 495.918, 876 499.401 C 880.087 504.233, 881.223 507.907, 880.713 514.640 C 880.246 520.804, 876.962 527.307, 872.423 531.058 C 871.462 531.851, 869.640 534.750, 868.372 537.500 C 865.619 543.473, 864.540 544.843, 860.166 547.915 C 848.662 555.993, 847.463 560, 856.548 560 C 859.482 560, 862.160 560.450, 862.500 561 C 862.840 561.550, 864.176 562, 865.470 562 C 868.040 562, 879.177 565.943, 880.031 567.155 C 880.323 567.570, 883.923 568.435, 888.031 569.079 C 899.939 570.944, 914.717 579.424, 928.500 592.301 C 934.931 598.310, 936.181 599.077, 942.756 601.048 C 946.916 602.295, 947.133 602.241, 952.363 598.639 C 955.306 596.612, 959.305 593.277, 961.250 591.227 C 965.298 586.960, 966.779 585.724, 969.735 584.142 C 970.895 583.521, 972.442 582.442, 973.172 581.745 C 975.684 579.345, 987.506 572.097, 991.500 570.508 C 993.700 569.633, 997.075 568.103, 999 567.108 C 1000.925 566.114, 1005.875 564.746, 1010 564.070 C 1014.125 563.393, 1018.400 562.602, 1019.500 562.312 C 1023.137 561.351, 1033.340 560.059, 1044.838 559.102 C 1051.074 558.582, 1056.473 557.860, 1056.836 557.497 C 1057.200 557.134, 1056.717 556.266, 1055.764 555.569 C 1054.810 554.872, 1053.446 552.911, 1052.731 551.211 C 1050.698 546.376, 1044.035 539.641, 1036.983 535.293 C 1030.741 531.445, 1029.017 528.796, 1027.281 520.387 C 1025.696 512.714, 1025.711 512.313, 1027.822 505.595 C 1031.111 495.127, 1034.094 490.859, 1042.590 484.465 C 1047.354 480.879, 1051.206 477.030, 1052.857 474.204 C 1054.311 471.716, 1056.799 468.160, 1058.388 466.302 L 1061.276 462.922 1058.888 460.355 C 1057.574 458.943, 1054.475 456.418, 1052 454.743 C 1049.525 453.069, 1044.973 449.539, 1041.885 446.898 C 1038.796 444.257, 1032.411 440.062, 1027.695 437.574 C 1015.857 431.331, 1008.273 426.355, 1006.584 423.722 C 1004.795 420.935, 1001.609 410.218, 998.668 397.095 C 997.074 389.986, 995.385 388.965, 989.253 391.404 C 978.584 395.648, 914.162 396.151, 904.500 392.066 C 902.209 391.098, 892.562 389, 890.399 389 C 889.602 389, 888.494 390.238, 887.936 391.750" stroke="#b09658" fill="#b09658" fill-opacity="0.2" fill-rule="evenodd"/><path class="svg-region-LPVl" d="M 790.940 468.282 C 790.082 468.952, 788.085 470.531, 786.503 471.791 L 783.626 474.082 790.313 480.574 C 793.991 484.145, 797 487.486, 797 487.998 C 797 488.511, 798.333 490.448, 799.962 492.304 C 801.591 494.159, 805.637 500.547, 808.954 506.499 C 821.323 528.697, 822.037 536.763, 812.479 546.321 C 810.484 548.316, 809.125 550.393, 809.460 550.936 C 809.796 551.479, 811.742 552.199, 813.785 552.537 C 815.828 552.875, 818.625 553.563, 820 554.066 C 821.375 554.569, 826.325 555.466, 831 556.061 C 835.675 556.655, 841.862 557.471, 844.750 557.874 C 848.391 558.381, 850 558.262, 850 557.487 C 850 556.133, 855.143 551.486, 860.722 547.799 C 863.621 545.883, 865.598 543.414, 867.527 539.299 C 869.022 536.110, 871.064 532.720, 872.064 531.766 C 882.518 521.795, 883.894 506.961, 875.162 498.359 C 871.028 494.286, 867.091 491, 866.345 491 C 865.994 491, 863.860 489.488, 861.603 487.640 C 859.346 485.792, 854.350 482.359, 850.500 480.011 C 846.650 477.663, 843.275 475.445, 843 475.084 C 842.725 474.722, 840.285 472.980, 837.579 471.213 C 832.545 467.927, 830.130 467.313, 828.450 468.893 C 827.230 470.041, 817.879 472, 813.623 472 C 811.820 472, 807.576 470.875, 804.192 469.500 C 797.479 466.772, 793.359 466.393, 790.940 468.282 M 856.762 560.707 C 858.006 560.946, 859.806 560.937, 860.762 560.687 C 861.718 560.437, 860.700 560.241, 858.500 560.252 C 856.300 560.263, 855.518 560.468, 856.762 560.707" stroke="#494949" fill="#494949" fill-opacity="0.2" fill-rule="evenodd"/><path class="svg-region-LPVr" d="M 1058.944 465.350 C 1057.749 466.724, 1055.337 470.245, 1053.584 473.174 C 1051.355 476.899, 1047.978 480.303, 1042.351 484.500 C 1035.092 489.914, 1033.955 491.234, 1030.720 498.006 C 1026.120 507.635, 1025.292 513.688, 1027.432 522.042 C 1029.174 528.842, 1031.298 531.788, 1036.983 535.293 C 1044.360 539.841, 1050.563 546.197, 1052.078 550.758 C 1053.544 555.170, 1055.539 556, 1064.684 556 C 1071.992 556.001, 1088 553.218, 1088 551.947 C 1088 551.633, 1086.757 550.457, 1085.237 549.333 C 1083.717 548.210, 1081.198 544.769, 1079.639 541.687 C 1077.012 536.494, 1076.830 535.391, 1077.152 526.613 C 1077.447 518.593, 1077.846 516.710, 1079.759 514.321 C 1081.002 512.769, 1083.079 509.925, 1084.374 508 C 1086.460 504.900, 1092.800 497.929, 1104.427 485.949 C 1106.466 483.847, 1110.287 481.378, 1113.023 480.395 L 1117.947 478.624 1114.710 477.511 C 1111.667 476.465, 1110.049 475.309, 1102.651 468.899 L 1099.650 466.298 1096.132 468.685 C 1092.861 470.905, 1092.011 471.026, 1084.057 470.405 C 1079.351 470.037, 1074.742 469.346, 1073.816 468.868 C 1072.889 468.391, 1071.172 468, 1069.999 468 C 1068.826 468, 1066.348 466.842, 1064.491 465.426 L 1061.116 462.851 1058.944 465.350" stroke="#494949" fill="#494949" fill-opacity="0.2" fill-rule="evenodd"/><path class="svg-region-Fl" d="M 785 357.930 C 783.075 358.315, 780.517 359.163, 779.316 359.815 C 778.114 360.467, 776.216 361, 775.098 361 C 773.979 361, 770.687 363.305, 767.782 366.121 C 764.877 368.938, 761.588 371.975, 760.473 372.871 C 759.358 373.767, 756.896 376.525, 755.003 379 C 753.109 381.475, 750.331 384.850, 748.830 386.500 C 745.285 390.397, 742.999 395.979, 743.006 400.718 C 743.011 404.432, 743.083 404.503, 746.975 404.648 C 749.156 404.730, 751.628 405.485, 752.470 406.327 C 753.312 407.169, 757.970 411.252, 762.820 415.401 C 775.456 426.207, 785.181 438.316, 786.535 444.927 C 786.921 446.813, 788.604 450.577, 790.275 453.293 C 792.502 456.911, 793.296 459.402, 793.247 462.615 C 793.187 466.610, 793.397 467, 795.610 467 C 796.946 467, 800.808 468.125, 804.192 469.500 C 807.576 470.875, 811.820 472, 813.623 472 C 818.660 472, 827.022 469.962, 830.432 467.904 C 832.119 466.885, 835.086 465.182, 837.025 464.120 C 838.963 463.058, 842.720 459.784, 845.372 456.845 C 848.025 453.905, 854.427 447.106, 859.598 441.735 C 864.769 436.364, 869 431.501, 869 430.929 C 869 430.356, 871.208 427.159, 873.906 423.824 C 876.605 420.489, 879.049 416.802, 879.338 415.630 C 879.627 414.459, 881.270 409.675, 882.989 405 C 888.732 389.378, 888.569 390.172, 886.420 388.235 C 874.669 377.642, 871.485 375, 870.469 375 C 869.815 375, 867.754 373.969, 865.890 372.709 C 858.576 367.764, 839.837 362.576, 821.500 360.419 C 814.900 359.643, 807.025 358.589, 804 358.077 C 797.602 356.994, 789.975 356.935, 785 357.930" stroke="#5ca7a9" fill="#5ca7a9" fill-opacity="0.2" fill-rule="evenodd"/><path class="svg-region-Fr" d="M 1069.981 359.002 C 1065.846 359.399, 1059.996 360.411, 1056.981 361.251 C 1053.967 362.090, 1050.014 363.046, 1048.198 363.374 C 1045.427 363.875, 1037.773 367.312, 1029.406 371.814 C 1023.685 374.891, 1001.136 385.403, 999 385.987 C 995.947 386.823, 995.947 388.427, 999.002 399.500 C 1000.215 403.900, 1001.595 409.395, 1002.067 411.711 C 1004.448 423.395, 1008.302 427.371, 1026.552 436.977 C 1032.013 439.851, 1038.094 443.659, 1040.065 445.440 C 1042.036 447.220, 1046.315 450.628, 1049.574 453.011 C 1052.833 455.395, 1056.645 458.505, 1058.044 459.923 C 1065.379 467.355, 1067.769 468.322, 1083.204 470.097 C 1090.587 470.947, 1092.379 470.856, 1095.006 469.497 C 1099.026 467.418, 1099.579 465.739, 1097.610 461.591 C 1094.601 455.249, 1095.851 449.648, 1102.431 440 C 1104.119 437.525, 1105.780 435.275, 1106.122 435 C 1106.465 434.725, 1108.003 432.162, 1109.540 429.304 C 1111.077 426.446, 1115.072 421.418, 1118.417 418.131 C 1121.763 414.844, 1126.209 410.433, 1128.297 408.327 C 1130.385 406.222, 1133.760 402.819, 1135.797 400.764 C 1137.834 398.710, 1140.063 397.022, 1140.750 397.014 C 1142.724 396.992, 1142.270 388.955, 1140.092 385.384 C 1137.351 380.888, 1130.308 374.175, 1124.298 370.329 C 1121.437 368.498, 1118.806 367, 1118.452 367 C 1118.098 367, 1116.614 366.168, 1115.154 365.150 C 1113.694 364.133, 1109.350 362.519, 1105.500 361.565 C 1101.650 360.611, 1097.719 359.418, 1096.764 358.915 C 1094.797 357.879, 1081.217 357.923, 1069.981 359.002" stroke="#5ca7a9" fill="#5ca7a9" fill-opacity="0.2" fill-rule="evenodd"/><path class="svg-region-PCl" d="M 741.262 405.452 C 737.988 406.909, 732.003 414.979, 731.996 417.946 C 731.994 418.801, 731.159 420.866, 730.141 422.536 C 729.123 424.206, 728.042 426.906, 727.740 428.536 C 727.437 430.166, 726.431 433.525, 725.504 436 C 724.337 439.113, 723.959 442.349, 724.277 446.500 C 724.952 455.316, 727.973 471.048, 729.593 474.179 C 730.367 475.676, 731 478.412, 731 480.259 C 731 482.106, 731.661 484.491, 732.468 485.559 C 733.276 486.626, 733.951 488.209, 733.968 489.076 C 733.986 489.942, 735.104 491.689, 736.454 492.957 L 738.908 495.262 745.624 489.107 C 749.319 485.722, 753.502 482.695, 754.921 482.381 C 756.339 482.067, 759.300 481.222, 761.500 480.502 C 763.700 479.783, 768.869 478.438, 772.986 477.514 C 780.960 475.725, 784.631 474.012, 789.093 470 C 794.582 465.064, 794.742 460.304, 789.687 452.297 C 788.286 450.077, 786.827 446.595, 786.445 444.559 C 785.517 439.613, 775.372 426.304, 767.075 419.149 C 763.472 416.042, 759.163 412.150, 757.500 410.500 C 755.837 408.850, 753.806 406.978, 752.988 406.339 C 750.428 404.343, 744.724 403.912, 741.262 405.452" stroke="#465ee0" fill="#465ee0" fill-opacity="0.2" fill-rule="evenodd"/><path class="svg-region-PCr" d="M 1140.500 396.966 C 1139.400 397.427, 1136.700 399.698, 1134.500 402.013 C 1132.300 404.328, 1128.747 407.860, 1126.605 409.861 C 1117.801 418.086, 1111.927 424.779, 1109.368 429.500 C 1107.877 432.250, 1106.397 434.725, 1106.079 435 C 1104.739 436.158, 1099.234 444.779, 1097.681 448.151 C 1094.047 456.044, 1096.570 464.108, 1104.725 470.664 C 1107.350 472.774, 1110.044 475.014, 1110.711 475.641 C 1112.732 477.541, 1125.058 480.749, 1132.501 481.312 C 1141.698 482.008, 1150.344 485.270, 1153.045 489.063 C 1154.195 490.678, 1155.912 492, 1156.859 492 C 1159.337 492, 1163.958 482.284, 1165.832 473.135 C 1168.043 462.340, 1167.974 443.361, 1165.692 434.500 C 1164.700 430.650, 1163.553 425.135, 1163.141 422.245 C 1162.358 416.742, 1162.545 417.006, 1150.735 404.677 C 1147.668 401.474, 1144.911 398.211, 1144.610 397.427 C 1143.996 395.827, 1143.380 395.758, 1140.500 396.966" stroke="#465ee0" fill="#465ee0" fill-opacity="0.2" fill-rule="evenodd"/><path class="svg-region-Ol" d="M 488.418 486.950 C 482.323 487.961, 475.348 489.792, 472.918 491.020 C 469.106 492.945, 462.238 499.144, 443.572 517.506 C 441.333 519.710, 437.518 524.435, 435.096 528.006 C 432.673 531.578, 430.198 534.831, 429.596 535.235 C 428.993 535.639, 428.874 535.976, 429.332 535.985 C 429.789 535.993, 429.259 537.462, 428.155 539.250 C 427.050 541.038, 426.185 542.725, 426.233 543 C 426.280 543.275, 425.762 545.822, 425.082 548.660 C 423.829 553.881, 424.032 576.365, 425.344 577.677 C 425.705 578.038, 426 579.362, 426 580.620 C 426 581.877, 426.506 584.165, 427.125 585.703 C 427.743 587.241, 428.597 589.400, 429.023 590.500 C 429.448 591.600, 430.517 594.143, 431.398 596.151 C 432.279 598.159, 433 600.207, 433 600.702 C 433 602.703, 444.194 620.368, 449.175 626.228 C 460.990 640.128, 465.833 643.783, 478.933 648.685 C 482.545 650.036, 487.300 651.969, 489.500 652.979 C 502.892 659.132, 509.269 661.112, 517 661.517 C 546.459 663.062, 554.490 663.168, 560.246 662.089 C 565.853 661.038, 575.708 658.206, 581.712 655.920 C 585.174 654.601, 597.997 644.973, 598.026 643.670 C 598.040 643.026, 601.212 639.800, 605.074 636.500 C 617.609 625.789, 620.270 621.722, 624.705 606.500 C 627.951 595.359, 629.090 578.984, 627 573.500 C 626.371 571.850, 625.440 568.250, 624.932 565.500 C 624.424 562.750, 623.609 559.600, 623.122 558.500 C 622.635 557.400, 621.005 553.125, 619.500 549 C 617.995 544.875, 615.759 539.925, 614.530 538 C 608.948 529.255, 597.753 518.377, 585 509.307 C 579.576 505.450, 561.685 496.436, 557.500 495.453 C 555.850 495.065, 552.293 493.416, 549.595 491.788 C 542.960 487.784, 534.495 486.256, 515.500 485.635 C 502.771 485.219, 497.235 485.488, 488.418 486.950" stroke="#aa444d" fill="#aa444d" fill-opacity="0.2" fill-rule="evenodd"/>
    </svg>