<svg xmlns="http://www.w3.org/2000/svg" width="1921" height="1027" viewBox="0 0 1921 1027" version="1.1">
    <path class="svg-region-PMl" d="M 776.570 488.887 C 776.269 489.374, 774.386 490.080, 772.386 490.455 C 769.033 491.084, 757.137 496.365, 752.542 499.265 C 748.982 501.511, 748.145 502.680, 746.501 507.707 C 744.726 513.133, 744.525 512.125, 750.645 528.445 C 753.025 534.789, 758.689 540.593, 768.530 546.769 C 772.380 549.185, 775.897 550.309, 783.530 551.563 C 794.139 553.305, 810.381 553.019, 812.344 551.056 C 812.925 550.475, 815.040 550, 817.045 550 C 819.399 550, 821.320 549.304, 822.470 548.033 C 824.354 545.952, 827.918 530.901, 827.925 525 C 827.932 518.709, 823.574 513.998, 813.713 509.637 C 808.224 507.209, 802.719 503.446, 796.500 497.869 C 792.867 494.611, 780.960 488, 778.726 488 C 777.842 488, 776.871 488.399, 776.570 488.887" stroke="#90cf92" fill="#90cf92" fill-opacity="0.2" fill-rule="evenodd"/><path class="svg-region-PMr" d="M 1117 491.849 C 1112.009 492.623, 1103.449 497.858, 1098.054 503.437 C 1096.158 505.397, 1094.076 507, 1093.426 507 C 1092.777 507, 1091.685 507.675, 1091 508.500 C 1090.315 509.325, 1088.798 510.026, 1087.628 510.057 C 1086.314 510.092, 1083.970 512.028, 1081.500 515.119 C 1079.300 517.872, 1076.037 521.931, 1074.250 524.140 C 1071.129 527.996, 1071 528.508, 1071 537.031 L 1071 545.906 1074.250 547.397 C 1076.037 548.217, 1079.750 549.195, 1082.500 549.571 C 1085.250 549.946, 1089.750 551.096, 1092.500 552.126 C 1102.221 555.767, 1113.791 553.951, 1130.022 546.235 C 1135.325 543.714, 1141.688 535.607, 1146.689 525 C 1153.681 510.168, 1154.289 508.354, 1153.564 504.490 C 1152.951 501.223, 1152.265 500.681, 1143.272 496.365 C 1133.030 491.449, 1126.649 490.352, 1117 491.849" stroke="#90cf92" fill="#90cf92" fill-opacity="0.2" fill-rule="evenodd"/><path class="svg-region-PV" d="M 983.500 396.606 C 967.769 401.324, 962.728 402, 943.256 402 C 933.018 402, 923.260 401.564, 921.571 401.030 C 912.472 398.157, 901.224 395, 900.085 395 C 899.197 395, 898.982 395.792, 899.409 397.492 C 900.303 401.057, 897.788 406.293, 893.183 410.454 C 890.995 412.430, 888.453 415.499, 887.533 417.273 C 880.120 431.569, 860.295 451.749, 845.631 459.926 C 835.141 465.776, 821.005 476.780, 821.001 479.101 C 821 479.619, 827.510 484.153, 833.187 487.589 C 837.974 490.485, 839 492.243, 839 497.541 C 839 503.789, 834.158 518.138, 830.868 521.641 C 829.279 523.332, 827.934 527.292, 826.244 535.263 C 824.933 541.443, 823.636 547.402, 823.361 548.504 C 822.615 551.492, 827.977 558.211, 833.097 560.703 C 835.519 561.882, 839.525 563.358, 842 563.982 C 844.475 564.607, 849.650 566.034, 853.500 567.155 C 857.350 568.275, 862.075 569.650, 864 570.211 C 865.925 570.772, 868.850 571.804, 870.500 572.506 C 872.150 573.207, 876.425 574.554, 880 575.498 C 883.575 576.442, 886.950 577.543, 887.500 577.944 C 888.050 578.345, 891.200 579.744, 894.500 581.052 C 903.073 584.452, 917.543 593.410, 921.997 598.074 C 924.620 600.822, 932.335 606.572, 937.159 609.376 C 940.624 611.390, 942.523 611.907, 944.567 611.394 C 947.465 610.666, 963.207 598.508, 971.267 590.773 C 972.829 589.273, 976.094 587.167, 978.521 586.094 C 980.948 585.020, 984.861 582.857, 987.217 581.287 C 998.128 574.014, 1014.769 569.634, 1049.500 564.893 C 1059.544 563.522, 1065.592 560.357, 1069.072 554.650 C 1071.799 550.177, 1071.937 532.217, 1069.250 531.414 C 1064.892 530.110, 1055.489 523.676, 1053.495 520.633 C 1052.640 519.327, 1051.025 515.657, 1049.908 512.477 C 1046.585 503.024, 1047.545 500.410, 1058.223 489.833 C 1063.176 484.926, 1068.589 480.357, 1070.251 479.679 L 1073.273 478.446 1067.386 474.021 C 1061.956 469.939, 1059.928 468.188, 1050 459.009 C 1045.177 454.551, 1034.633 447.737, 1026.666 443.932 C 1023.007 442.184, 1018.098 438.887, 1015.757 436.606 C 1010.888 431.861, 1003.002 422.866, 1002.995 422.049 C 1002.993 421.747, 1001.637 418.019, 999.981 413.764 C 996.937 405.936, 996.696 400.576, 999.172 395.750 C 999.963 394.210, 999.557 394.012, 995.785 394.103 C 993.428 394.160, 987.900 395.287, 983.500 396.606" stroke="#b09658" fill="#b09658" fill-opacity="0.2" fill-rule="evenodd"/><path class="svg-region-LPVl" d="M 794.940 480.348 C 788.967 481.258, 786.599 482.147, 783.663 484.584 L 779.947 487.668 786.123 491.334 C 789.520 493.350, 792.627 495, 793.027 495 C 793.428 495, 794.337 495.701, 795.049 496.559 C 797.767 499.834, 808.578 507.345, 814.411 510.011 C 821.448 513.227, 826.637 517.706, 827.552 521.353 C 828.100 523.535, 828.454 523.733, 830.035 522.746 C 831.655 521.734, 832.841 519.512, 836.037 511.500 C 838.188 506.108, 839 502.242, 839 497.390 C 839 493.213, 838.532 491.642, 836.811 490.039 C 835.608 488.918, 834.102 488, 833.466 488 C 832.830 488, 831.495 487.099, 830.498 485.998 C 826.158 481.203, 820.728 479.283, 811.375 479.239 C 806.494 479.216, 799.098 479.715, 794.940 480.348" stroke="#494949" fill="#494949" fill-opacity="0.2" fill-rule="evenodd"/><path class="svg-region-LPVr" d="M 1068.500 480.421 C 1067.400 481.016, 1062.590 485.401, 1057.811 490.167 C 1047.838 500.111, 1046.849 502.577, 1049.383 511.166 C 1051.381 517.934, 1054.143 522.412, 1057.702 524.653 C 1059.241 525.622, 1061.772 527.446, 1063.327 528.707 C 1067.349 531.970, 1070.208 531.687, 1071.902 527.858 C 1072.667 526.130, 1075.927 521.810, 1079.147 518.257 C 1082.366 514.705, 1085 511.394, 1085 510.899 C 1085 510.405, 1086.070 510, 1087.378 510 C 1088.685 510, 1090.315 509.325, 1091 508.500 C 1091.685 507.675, 1092.777 507, 1093.426 507 C 1094.076 507, 1096.158 505.389, 1098.054 503.420 C 1099.949 501.451, 1104.313 498.013, 1107.750 495.780 C 1111.188 493.548, 1114 491.591, 1114 491.431 C 1114 491.271, 1111.975 490.129, 1109.500 488.893 C 1107.025 487.657, 1105 486.351, 1105 485.991 C 1105 485.631, 1102.776 483.896, 1100.058 482.134 C 1095.118 478.934, 1095.108 478.932, 1082.808 479.136 C 1076.038 479.249, 1069.600 479.827, 1068.500 480.421" stroke="#494949" fill="#494949" fill-opacity="0.2" fill-rule="evenodd"/><path class="svg-region-Fl" d="M 786.851 361.541 C 776.998 363.076, 772.816 364.612, 766.761 368.920 C 758.168 375.034, 758.019 375.265, 755.777 385.909 C 753.390 397.242, 753.881 399, 759.431 399 C 763.523 399, 765.161 400.359, 768.469 406.500 C 769.951 409.250, 772.476 413.161, 774.082 415.191 C 775.687 417.222, 777 419.521, 777 420.302 C 777 421.082, 778.125 423.379, 779.500 425.405 C 780.875 427.431, 782 429.289, 782 429.535 C 782 429.780, 783.979 432.871, 786.397 436.404 C 788.896 440.054, 791.095 444.602, 791.489 446.937 C 792.184 451.046, 790.693 468.958, 789.030 476.491 C 788.546 478.686, 788.312 480.645, 788.510 480.844 C 788.709 481.042, 792.807 480.681, 797.616 480.041 C 802.426 479.401, 809.473 478.978, 813.278 479.102 C 819.857 479.315, 820.349 479.171, 823.347 476.143 C 828.517 470.923, 842.567 460.920, 849 457.879 C 852.834 456.067, 866.028 445.268, 870 440.691 C 879.667 429.552, 883 425.370, 883 424.380 C 883 423.756, 883.683 422.678, 884.518 421.985 C 885.354 421.292, 886.733 419.257, 887.585 417.463 C 888.436 415.669, 891.055 412.399, 893.405 410.197 C 901.318 402.780, 902.005 395.565, 894.988 393.583 C 893.070 393.041, 885.118 389.300, 877.319 385.270 C 864.217 378.501, 856.129 375.087, 848.476 373.099 C 846.814 372.666, 844.471 371.787, 843.270 371.145 C 842.070 370.502, 838 370.060, 834.227 370.161 C 828.316 370.320, 826.450 369.899, 820.746 367.120 C 813.334 363.509, 801.808 359.950, 798.003 360.097 C 796.626 360.150, 791.608 360.800, 786.851 361.541" stroke="#5ca7a9" fill="#5ca7a9" fill-opacity="0.2" fill-rule="evenodd"/><path class="svg-region-Fr" d="M 1086.808 367.526 C 1085.733 368.600, 1068.094 370.816, 1055.938 371.404 C 1042.500 372.054, 1035.467 373.481, 1026.883 377.300 C 1023.923 378.618, 1018.575 380.733, 1015 382.001 C 1004.861 385.596, 999.103 392.146, 997.627 401.764 C 997.104 405.168, 997.578 407.586, 999.981 413.764 C 1001.637 418.019, 1002.993 421.801, 1002.995 422.168 C 1002.998 422.536, 1004.683 424.786, 1006.740 427.168 C 1014.280 435.902, 1020.313 441.250, 1024.852 443.224 C 1033.841 447.134, 1045.582 454.951, 1053.500 462.298 C 1057.900 466.380, 1064.425 471.921, 1068 474.610 C 1074.479 479.484, 1074.522 479.499, 1081.274 479.164 C 1087.946 478.832, 1088.075 478.772, 1089.912 475.164 C 1090.938 473.149, 1092.330 469.475, 1093.005 467 C 1094.159 462.770, 1098.379 453.715, 1100.228 451.500 C 1100.688 450.950, 1102.586 448.742, 1104.447 446.593 C 1106.307 444.444, 1108.279 441.744, 1108.827 440.593 C 1109.375 439.442, 1111.723 434.450, 1114.043 429.500 C 1116.364 424.550, 1118.879 420.140, 1119.632 419.700 C 1120.384 419.260, 1121 418.300, 1121 417.565 C 1121 416.094, 1132.845 406, 1134.571 406 C 1135.165 406, 1136.717 404.866, 1138.019 403.480 C 1140.225 401.132, 1140.297 400.704, 1139.079 397.230 C 1137.442 392.566, 1132.849 387.615, 1127 384.210 C 1124.525 382.770, 1119.575 379.257, 1116 376.404 C 1105.681 368.169, 1103.026 367, 1094.636 367 C 1090.620 367, 1087.097 367.237, 1086.808 367.526" stroke="#5ca7a9" fill="#5ca7a9" fill-opacity="0.2" fill-rule="evenodd"/><path class="svg-region-PCl" d="M 746.500 399.798 C 742.625 402.245, 735.632 409.876, 733.517 413.968 C 732.573 415.792, 731.189 423.029, 730.292 430.832 C 728.019 450.587, 730.004 469.382, 736.645 491 C 738.081 495.675, 739.761 499.831, 740.378 500.235 C 742.527 501.642, 750.513 501.029, 753.027 499.265 C 756.374 496.916, 765.611 492.594, 770.504 491.087 C 781.292 487.764, 788.480 481.932, 789.378 475.771 C 791.020 464.515, 792.151 449.617, 791.590 446.631 C 791.229 444.704, 789.226 440.512, 787.139 437.314 C 778.198 423.615, 777 421.575, 777 420.056 C 777 419.176, 775.727 416.891, 774.170 414.978 C 772.614 413.065, 770.050 409.106, 768.473 406.180 C 766.896 403.253, 764.907 400.487, 764.053 400.033 C 763.199 399.578, 759.575 398.913, 756 398.555 C 750.597 398.014, 748.994 398.224, 746.500 399.798" stroke="#465ee0" fill="#465ee0" fill-opacity="0.2" fill-rule="evenodd"/><path class="svg-region-PCr" d="M 1137.500 404 C 1136.505 405.100, 1135.086 406, 1134.348 406 C 1133.610 406, 1131.262 407.575, 1129.132 409.500 C 1127.001 411.425, 1124.787 413, 1124.213 413 C 1123.638 413, 1122.570 414.350, 1121.840 416 C 1121.109 417.650, 1120.217 419, 1119.857 419 C 1119.497 419, 1118.281 420.767, 1117.155 422.927 C 1116.030 425.086, 1114.667 427.674, 1114.127 428.677 C 1113.588 429.679, 1111.820 433.425, 1110.199 437 C 1108.579 440.575, 1105.860 445.075, 1104.157 447 C 1099.629 452.120, 1099.660 452.077, 1096.712 457.376 C 1095.221 460.058, 1094 463.100, 1094 464.137 C 1094 465.174, 1093.025 468.097, 1091.832 470.633 C 1089.499 475.597, 1090.034 478.170, 1093.544 478.859 C 1095.470 479.237, 1102.796 483.640, 1104.500 485.444 C 1105.050 486.026, 1107.481 487.790, 1109.901 489.365 C 1114.036 492.055, 1114.723 492.187, 1121.241 491.545 C 1128.126 490.866, 1138 492.424, 1138 494.189 C 1138 494.635, 1138.498 495, 1139.107 495 C 1139.716 495, 1143.073 496.365, 1146.568 498.033 C 1151.656 500.461, 1153.279 500.841, 1154.711 499.940 C 1156.801 498.624, 1163 486.046, 1163 483.120 C 1163 482.019, 1163.450 480.840, 1164 480.500 C 1164.618 480.118, 1165 471.469, 1165 457.879 C 1165 433.372, 1164.258 429.147, 1158.519 421 C 1156.776 418.525, 1154.071 414.267, 1152.509 411.538 C 1150.946 408.809, 1148.638 405.547, 1147.379 404.288 C 1144.531 401.440, 1139.938 401.306, 1137.500 404" stroke="#465ee0" fill="#465ee0" fill-opacity="0.2" fill-rule="evenodd"/><path class="svg-region-Ol" d="M 501.519 512.035 C 495.480 513.051, 490.379 514.362, 490.184 514.948 C 489.989 515.533, 489.423 515.761, 488.926 515.454 C 488.068 514.924, 483.150 517.024, 476.439 520.785 C 471.377 523.622, 465.081 529.167, 464.384 531.402 C 464.025 532.556, 463.454 533.725, 463.115 534 C 461.436 535.365, 458.455 542.207, 455.348 551.828 C 452.333 561.168, 451.930 563.623, 452.119 571.500 C 452.535 588.763, 457.358 604.349, 464.588 611.793 C 466.464 613.726, 468 615.736, 468 616.259 C 468 618.049, 474.077 624.890, 476.291 625.592 C 477.506 625.977, 480.359 627.711, 482.631 629.446 C 484.903 631.180, 489.853 633.850, 493.631 635.379 C 497.409 636.908, 501.281 638.573, 502.236 639.080 C 503.191 639.586, 504.766 640.003, 505.736 640.006 C 506.706 640.010, 508.850 640.738, 510.500 641.625 C 513.429 643.199, 524.493 645.681, 532.500 646.560 C 547.009 648.152, 567.998 645.465, 580.683 640.390 C 592.003 635.861, 601.340 624.252, 603.934 611.479 C 605.640 603.079, 606.761 584.101, 605.841 579.178 C 605.366 576.633, 604.768 572.740, 604.512 570.526 C 603.749 563.910, 602.281 558.968, 600.491 556.990 C 599.563 555.965, 599.056 554.718, 599.365 554.218 C 600.555 552.293, 594.480 538.732, 589.709 532.662 C 586.462 528.531, 569.785 517, 567.057 517 C 566.146 517, 564.920 516.520, 564.333 515.933 C 563.747 515.347, 560.394 514.208, 556.883 513.402 C 553.373 512.596, 548.700 511.521, 546.500 511.012 C 539.608 509.418, 513.543 510.011, 501.519 512.035" stroke="#aa444d" fill="#aa444d" fill-opacity="0.2" fill-rule="evenodd"/>
    </svg>