<svg xmlns="http://www.w3.org/2000/svg" width="1921" height="1027" viewBox="0 0 1921 1027" version="1.1">
    <path class="svg-region-PMl" d="M 792 490.851 C 783.995 494.715, 774.738 501.455, 772.442 505.093 C 769.813 509.257, 769.886 509.950, 773.758 517.500 C 778.447 526.644, 781.435 529.578, 789.456 532.917 C 796.720 535.941, 797.294 536.016, 815.691 536.343 C 833.814 536.665, 834.660 536.591, 838.899 534.338 C 841.318 533.052, 844.116 532, 845.115 532 C 848.619 532, 853.527 528.819, 856.410 524.679 C 858.011 522.380, 861.098 518.143, 863.272 515.263 C 867.802 509.258, 867.668 507.003, 862.781 506.995 C 860.977 506.992, 854.100 505.811, 847.500 504.370 C 840.900 502.929, 833.700 501.414, 831.500 501.003 C 829.300 500.592, 823.900 498.411, 819.500 496.157 C 814.444 493.567, 808.556 491.496, 803.500 490.529 C 799.100 489.688, 795.500 489.037, 795.500 489.081 C 795.500 489.126, 793.925 489.922, 792 490.851" stroke="#90cf92" fill="#90cf92" fill-opacity="0.2" fill-rule="evenodd"/><path class="svg-region-PMr" d="M 1107.070 499.795 C 1105.734 500.010, 1102.713 502.169, 1100.358 504.593 C 1098.002 507.017, 1095.662 509, 1095.158 509 C 1094.655 509, 1091.694 510.535, 1088.579 512.410 C 1085.464 514.286, 1080.572 516.367, 1077.708 517.034 C 1069.976 518.836, 1065 524.258, 1065 530.879 C 1065 533.296, 1065.854 534.435, 1069.525 536.912 C 1074.872 540.521, 1081.077 543.125, 1090 545.505 C 1093.575 546.459, 1098.646 547.899, 1101.268 548.706 C 1105.247 549.930, 1107.787 549.984, 1116.616 549.034 C 1122.435 548.407, 1127.939 547.512, 1128.848 547.045 C 1129.757 546.577, 1132.336 545.654, 1134.581 544.993 C 1137.123 544.245, 1141.334 541.377, 1145.750 537.386 C 1151.983 531.754, 1152.969 530.372, 1153.919 525.941 C 1155.517 518.490, 1155.284 513.560, 1153.250 511.769 C 1147.924 507.079, 1131.726 501.084, 1122.500 500.388 C 1119.200 500.139, 1114.925 499.816, 1113 499.669 C 1111.075 499.523, 1108.407 499.580, 1107.070 499.795" stroke="#90cf92" fill="#90cf92" fill-opacity="0.2" fill-rule="evenodd"/><path class="svg-region-PV" d="M 909 393.441 C 909 394.784, 908.550 396.160, 908 396.500 C 907.450 396.840, 907 398.239, 907 399.609 C 907 403.525, 904.501 407.395, 898.992 412.007 C 896.194 414.349, 893.071 417.893, 892.052 419.883 C 891.033 421.872, 886.773 427.022, 882.586 431.326 C 878.399 435.630, 874.326 440.402, 873.536 441.930 C 871.433 445.998, 861.805 454.440, 856.286 457.055 C 850.743 459.682, 838 467.954, 838 468.926 C 838 470.370, 847.517 472, 855.955 472 C 865.495 472, 867.016 472.734, 865.058 476.393 C 862.977 480.280, 859.957 481.321, 849.385 481.796 C 841.491 482.150, 838.111 481.865, 833.994 480.498 C 825.859 477.796, 811.275 478.760, 804.221 482.466 C 798.681 485.377, 795.854 488.669, 798.207 489.469 C 798.918 489.711, 802.079 490.362, 805.231 490.917 C 808.382 491.471, 815.132 493.920, 820.231 496.358 C 827.384 499.779, 832.923 501.499, 844.500 503.892 C 852.750 505.597, 861.071 507.107, 862.992 507.246 C 867.401 507.567, 867.854 509.551, 864.421 513.500 C 862.987 515.150, 859.996 519.257, 857.775 522.628 C 853.890 528.522, 849.255 532, 845.282 532 C 842.917 532, 835 535.990, 835 537.181 C 835 537.733, 835.900 539.329, 837 540.727 C 838.100 542.126, 839 544.273, 839 545.498 C 839 546.724, 840.146 548.873, 841.546 550.274 C 843.948 552.675, 845.495 553.160, 861 556.364 C 870.305 558.287, 874.430 559.622, 881.500 563.003 C 892.129 568.084, 905.029 575.375, 912.899 580.748 C 920.760 586.116, 926.944 589.291, 934.892 592.042 C 946.214 595.960, 965.057 593.107, 985 584.454 C 989.675 582.426, 996.425 579.672, 1000 578.335 C 1003.575 576.998, 1010.100 574.184, 1014.500 572.082 C 1027.576 565.834, 1053.428 560.424, 1074.500 559.525 C 1080.550 559.267, 1086.422 558.833, 1087.549 558.560 C 1089.810 558.011, 1094.683 548.224, 1093.308 546.992 C 1092.864 546.594, 1088.716 545.069, 1084.092 543.603 C 1074.280 540.493, 1066.193 535.618, 1065.364 532.314 C 1063.729 525.800, 1069.283 518.926, 1077.701 517.042 C 1080.887 516.330, 1085.866 514.228, 1088.766 512.373 C 1091.666 510.518, 1094.460 509, 1094.975 509 C 1095.489 509, 1098.376 506.593, 1101.389 503.651 L 1106.868 498.302 1105.533 494.401 C 1104.281 490.744, 1103.925 490.483, 1099.849 490.226 C 1097.457 490.076, 1094.536 489.463, 1093.359 488.865 C 1091.299 487.820, 1080.816 488.146, 1071.500 489.545 C 1068.279 490.029, 1067.062 489.734, 1065.250 488.034 C 1064.013 486.872, 1063 485.600, 1063 485.206 C 1063 484.400, 1068.707 482.263, 1074 481.085 C 1076.767 480.470, 1077.132 480.147, 1075.745 479.544 C 1074.779 479.125, 1071.225 475.569, 1067.846 471.641 C 1057.152 459.210, 1048.712 449.818, 1041.707 442.553 C 1037.972 438.679, 1034.654 434.382, 1034.336 433.005 C 1033.316 428.597, 1027.963 421.153, 1022.654 416.763 C 1015.030 410.457, 1014.283 409.228, 1012.896 400.715 L 1011.628 392.931 975.064 393.605 C 943.266 394.192, 937.476 394.066, 930.643 392.640 C 926.322 391.738, 919.684 391, 915.893 391 C 909.252 391, 909 391.089, 909 393.441" stroke="#b09658" fill="#b09658" fill-opacity="0.2" fill-rule="evenodd"/><path class="svg-region-Fl" d="M 816 359.280 C 815.725 359.567, 810.775 360.113, 805 360.493 C 799.225 360.873, 794.072 361.592, 793.550 362.092 C 793.027 362.591, 791.927 363, 791.104 363 C 789.502 363, 782.976 367.212, 779.483 370.500 C 773.608 376.030, 762.477 392.165, 761.385 396.733 C 761.022 398.255, 760.298 400.043, 759.776 400.706 C 758.334 402.540, 759.783 404, 763.044 404 C 764.653 404, 768.164 405.350, 770.846 407 C 773.527 408.650, 776.292 410, 776.989 410 C 779.269 410, 789.025 416.125, 792.587 419.793 C 794.503 421.765, 797.517 425.819, 799.285 428.802 C 801.053 431.785, 803.400 435.735, 804.500 437.580 C 809.277 445.591, 823.538 460.357, 832.807 466.887 L 836.114 469.217 840.807 466.167 C 843.388 464.489, 849.031 461.217, 853.346 458.897 C 861.771 454.366, 871.205 446.438, 873.536 441.930 C 874.326 440.402, 878.399 435.630, 882.586 431.326 C 886.773 427.022, 891.012 421.925, 892.006 420 C 892.999 418.075, 896.261 414.396, 899.255 411.823 C 904.600 407.229, 905.492 405.752, 908.039 397.266 C 909.244 393.249, 909.186 392.933, 906.905 391.121 C 905.582 390.070, 902.475 387.593, 900 385.615 C 897.525 383.637, 894.560 382.015, 893.411 382.010 C 891.176 381.999, 872.402 373.135, 868.047 370.033 C 866.606 369.007, 861.618 366.997, 856.963 365.565 C 852.309 364.134, 846.475 362.272, 844 361.428 C 839.664 359.948, 817.023 358.212, 816 359.280" stroke="#5ca7a9" fill="#5ca7a9" fill-opacity="0.2" fill-rule="evenodd"/><path class="svg-region-Fr" d="M 1080.500 370.135 C 1078.300 370.632, 1071.775 371.712, 1066 372.533 C 1060.225 373.355, 1053.475 374.681, 1051 375.481 C 1048.525 376.280, 1044.700 377.365, 1042.500 377.890 C 1040.300 378.416, 1034.675 380.255, 1030 381.978 C 1025.325 383.700, 1019.432 385.864, 1016.905 386.788 C 1011.621 388.719, 1011.475 389.321, 1013.259 401.807 L 1014.302 409.114 1021.081 415.307 C 1028.585 422.163, 1032.806 427.778, 1033.658 432.039 C 1033.977 433.637, 1037.081 437.827, 1040.860 441.762 C 1048.356 449.568, 1058.741 461.068, 1067.843 471.641 C 1074.573 479.460, 1075.433 480.012, 1080.832 479.976 C 1084.051 479.954, 1086.809 479.493, 1095.618 477.506 C 1097.279 477.131, 1097.844 476.075, 1098.234 472.614 C 1098.508 470.186, 1100.592 464.357, 1102.866 459.659 C 1105.140 454.962, 1107 450.620, 1107 450.011 C 1107 448.209, 1113.380 438.779, 1117.155 435 C 1119.079 433.075, 1122.559 429.925, 1124.890 428 C 1127.221 426.075, 1130.160 423.492, 1131.420 422.259 C 1132.681 421.026, 1135.303 419.354, 1137.247 418.541 C 1139.190 417.729, 1142.231 415.233, 1144.004 412.995 C 1145.777 410.756, 1149 408.020, 1151.166 406.915 C 1154.464 405.233, 1154.994 404.547, 1154.426 402.703 C 1152.998 398.073, 1150.797 394.863, 1147.214 392.184 C 1143.606 389.488, 1135.608 382.432, 1129.618 376.663 C 1125.511 372.707, 1123.075 372, 1113.561 372 C 1108.731 372, 1103.471 371.372, 1101 370.500 C 1096.377 368.869, 1086.847 368.699, 1080.500 370.135" stroke="#5ca7a9" fill="#5ca7a9" fill-opacity="0.2" fill-rule="evenodd"/><path class="svg-region-PCl" d="M 753.147 410.322 C 750.316 415.574, 748 420.618, 748 421.531 C 748 422.445, 747.295 425.617, 746.433 428.582 C 744.553 435.050, 744.915 448.239, 747.407 464 C 748.320 469.775, 749.281 475.850, 749.543 477.500 C 749.805 479.150, 751.027 482.504, 752.260 484.954 C 754.258 488.928, 755.201 489.668, 761 491.812 C 766.101 493.698, 769.437 494.212, 776.500 494.200 C 784.503 494.186, 786.186 493.845, 791.697 491.125 C 797.618 488.203, 800.733 484.996, 799.535 483.056 C 799.228 482.560, 797.612 481.854, 795.944 481.488 C 791.623 480.539, 789 477.322, 789 472.972 C 789 468.539, 791.091 467.323, 800.898 466.053 C 804.529 465.583, 808.767 464.704, 810.315 464.099 C 811.863 463.495, 816.026 463, 819.565 463 C 823.104 463, 826 462.717, 826 462.370 C 826 462.024, 823.013 458.762, 819.361 455.120 C 813.435 449.211, 806.281 440.502, 803.500 435.814 C 802.950 434.887, 801.097 431.737, 799.382 428.814 C 794.188 419.960, 786.157 413.339, 776 409.536 C 775.175 409.227, 772.517 407.855, 770.093 406.487 C 767.669 405.119, 764.429 404, 762.892 404 C 761.356 404, 759.693 403.274, 759.197 402.387 C 758.491 401.126, 757.174 402.853, 753.147 410.322" stroke="#465ee0" fill="#465ee0" fill-opacity="0.2" fill-rule="evenodd"/><path class="svg-region-PCr" d="M 1150.198 407.343 C 1147.281 409.079, 1144.033 411.951, 1142.978 413.724 C 1141.905 415.528, 1139.437 417.626, 1137.372 418.489 C 1135.343 419.337, 1132.741 420.940, 1131.591 422.050 C 1125.918 427.530, 1120.574 432, 1119.697 432 C 1118.537 432, 1117.432 433.365, 1111.493 442.134 C 1109.022 445.783, 1107 449.298, 1107 449.944 C 1107 450.590, 1105.156 454.929, 1102.901 459.586 C 1100.647 464.244, 1098.571 469.782, 1098.287 471.894 L 1097.772 475.733 1107.353 475.232 C 1115.556 474.803, 1117.775 475.046, 1122.797 476.924 C 1126.023 478.130, 1130.874 479.434, 1133.577 479.821 C 1137.909 480.440, 1138.695 480.938, 1140.198 484.012 C 1142.335 488.382, 1142.488 492, 1140.535 492 C 1139.730 492, 1138.589 492.900, 1138 494 C 1137.067 495.744, 1135.906 496, 1128.946 496 C 1121.554 496, 1115.990 494.682, 1105.794 490.517 C 1104.289 489.902, 1104.199 490.208, 1105.032 493.112 C 1106.616 498.636, 1108.123 499.407, 1118.771 500.142 C 1129.693 500.896, 1134.868 502.369, 1146.614 508.065 C 1160.384 514.743, 1167.863 513.264, 1170.750 503.291 C 1175.235 487.804, 1176.339 479.439, 1176.297 461.265 C 1176.261 445.602, 1175.969 442.216, 1174.233 437.265 C 1173.121 434.094, 1171.413 428.672, 1170.437 425.216 C 1169.461 421.759, 1167.613 417.509, 1166.331 415.771 C 1165.049 414.033, 1164 412.219, 1164 411.739 C 1164 409.915, 1158.690 404.004, 1157.131 404.093 C 1156.234 404.143, 1153.114 405.606, 1150.198 407.343" stroke="#465ee0" fill="#465ee0" fill-opacity="0.2" fill-rule="evenodd"/><path class="svg-region-PNl" d="M 810 464.159 C 808.625 464.727, 804.168 465.620, 800.096 466.143 C 790.260 467.407, 789 468.168, 789 472.847 C 789 476.663, 791.807 480.994, 794.289 481.006 C 794.955 481.010, 796.839 481.710, 798.475 482.564 C 801.259 484.015, 801.704 483.972, 805.397 481.897 C 810.982 478.758, 826.474 478, 833.994 480.498 C 838.111 481.865, 841.491 482.150, 849.385 481.796 C 859.957 481.321, 862.977 480.280, 865.058 476.393 C 867.025 472.717, 865.501 472.001, 855.691 471.989 C 850.530 471.983, 844.390 471.338, 841.688 470.518 C 836.237 468.864, 829 465.042, 829 463.816 C 829 462.642, 812.973 462.932, 810 464.159" stroke="#bbc0d1" fill="#bbc0d1" fill-opacity="0.2" fill-rule="evenodd"/><path class="svg-region-PNr" d="M 1098.980 476.439 C 1097.043 477.152, 1092.318 478.239, 1088.480 478.855 C 1069.007 481.974, 1063 483.572, 1063 485.630 C 1063 488.124, 1068.065 490.215, 1072.359 489.493 C 1083.854 487.561, 1102.480 489.306, 1113.500 493.348 C 1122.840 496.774, 1136.279 497.128, 1138.232 494 C 1138.919 492.900, 1140.107 492, 1140.871 492 C 1141.910 492, 1142.113 491.087, 1141.677 488.394 C 1140.797 482.973, 1138.458 480, 1135.073 480 C 1133.488 480, 1128.886 478.878, 1124.846 477.507 C 1116.546 474.690, 1105.015 474.214, 1098.980 476.439" stroke="#bbc0d1" fill="#bbc0d1" fill-opacity="0.2" fill-rule="evenodd"/>
    </svg>