<svg xmlns="http://www.w3.org/2000/svg" width="1921" height="1027" viewBox="0 0 1921 1027" version="1.1">
    <path class="svg-region-PMl" d="M 804.966 491.042 C 804.160 491.552, 802.375 491.983, 801 492 C 799.625 492.016, 796.700 492.679, 794.500 493.471 C 792.035 494.359, 786.542 494.929, 780.185 494.956 L 769.870 495 764.435 500.702 C 758.568 506.857, 758.309 507.502, 760.532 510.441 C 761.339 511.509, 762 513.183, 762 514.163 C 762 516.779, 766.778 527.135, 769.150 529.660 C 770.276 530.858, 772.616 532.371, 774.349 533.021 C 776.082 533.670, 778.400 534.561, 779.500 534.999 C 784.484 536.987, 800.377 538.308, 822 538.534 C 846.099 538.785, 850.370 538.305, 855 534.822 C 864.080 527.991, 867.332 525.988, 870.893 525.029 C 876.086 523.630, 876.847 522.268, 873.294 520.731 C 871.582 519.991, 870.573 518.874, 870.762 517.930 C 871.004 516.724, 869.593 516.086, 864.673 515.180 C 861.151 514.531, 857.239 514, 855.979 514 C 853.719 514, 834.002 508.800, 828.849 506.845 C 827.391 506.292, 825.175 504.750, 823.924 503.420 C 822.674 502.089, 821.160 501, 820.559 501 C 819.957 501, 817.223 499.082, 814.483 496.738 C 806.759 490.131, 806.578 490.022, 804.966 491.042" stroke="#90cf92" fill="#90cf92" fill-opacity="0.2" fill-rule="evenodd"/><path class="svg-region-PMr" d="M 1136 500.111 C 1126.375 500.557, 1116.700 501.375, 1114.500 501.928 C 1109.049 503.299, 1101.709 504.536, 1087.500 506.476 C 1080.900 507.378, 1073.025 508.582, 1070 509.152 C 1056.474 511.701, 1046.293 512.988, 1043.845 512.458 C 1039.903 511.604, 1039.575 513.446, 1042.978 517.322 C 1044.640 519.215, 1046.015 521.155, 1046.033 521.632 C 1046.273 527.887, 1072.680 539, 1087.302 539 C 1089.807 539, 1092.452 539.592, 1093.179 540.315 C 1095.452 542.577, 1105.805 544, 1119.917 543.990 C 1132.125 543.981, 1134.019 543.739, 1138.628 541.593 C 1143.160 539.483, 1143.953 538.640, 1145.448 534.352 C 1146.379 531.684, 1147.770 528.375, 1148.539 527 C 1153.103 518.841, 1160 504.281, 1160 502.804 C 1160 500.979, 1157.045 498.896, 1154.816 499.150 C 1154.092 499.232, 1145.625 499.665, 1136 500.111" stroke="#90cf92" fill="#90cf92" fill-opacity="0.2" fill-rule="evenodd"/><path class="svg-region-PV" d="M 912.500 392.491 C 911.950 392.675, 910.216 393.110, 908.647 393.457 C 906.026 394.038, 905.846 394.363, 906.425 397.454 C 907.248 401.839, 904.691 408.241, 900.813 411.504 C 899.182 412.877, 897.319 414.006, 896.673 414.013 C 894.515 414.036, 885.781 425.072, 881.782 432.828 C 879.607 437.048, 876.339 442.750, 874.519 445.500 C 870.412 451.708, 858.765 463, 856.470 463 C 855.192 463, 854.917 463.561, 855.370 465.250 C 855.701 466.488, 855.979 468.657, 855.986 470.070 C 855.994 471.547, 857.489 474.379, 859.500 476.729 C 861.425 478.978, 863 481.481, 863 482.292 C 863 483.947, 858.259 484.605, 836.500 485.974 C 822.324 486.865, 810.002 488.641, 808.627 489.989 C 807.367 491.225, 815.997 498.565, 827.475 506.020 C 829.111 507.082, 832.879 508.456, 835.850 509.073 C 838.820 509.689, 843.739 511.050, 846.781 512.097 C 849.824 513.144, 853.743 514, 855.490 514 C 861.951 514, 870.252 516.249, 870.745 518.132 C 871.004 519.123, 872.067 520.204, 873.108 520.534 C 876.336 521.559, 875.219 523.864, 870.935 525.017 C 867.299 525.996, 863.496 528.353, 854.762 535.037 C 850.782 538.083, 846.242 539.150, 840 538.506 C 836.975 538.195, 832.475 538.302, 830 538.744 C 824.815 539.670, 823.971 541.602, 826.308 547.195 C 827.661 550.433, 828.128 550.675, 836.114 552.297 C 846.818 554.469, 851.911 555.699, 860.071 558.081 C 863.685 559.137, 867.480 560, 868.505 560 C 869.530 560, 872.198 560.850, 874.434 561.889 C 876.670 562.928, 881.875 565.351, 886 567.272 C 890.125 569.194, 894.625 571.097, 896 571.500 C 897.375 571.902, 899.903 573.282, 901.617 574.566 C 907.396 578.892, 938.444 593.777, 945.064 595.395 C 953.589 597.480, 957.539 597.419, 964.661 595.094 C 975.018 591.714, 991.156 584.400, 1000 579.080 C 1007.064 574.830, 1035.291 562.221, 1043.830 559.501 C 1067.067 552.099, 1072.609 550.986, 1087.318 550.772 C 1096.475 550.638, 1098.279 550.346, 1099.068 548.873 C 1100.790 545.656, 1100.147 543.254, 1097.379 542.559 C 1095.938 542.197, 1094.106 541.248, 1093.308 540.451 C 1092.465 539.608, 1089.949 539, 1087.302 539 C 1079.936 539, 1065.032 535.088, 1058 531.309 C 1051.458 527.794, 1046 523.421, 1046 521.695 C 1046 521.183, 1044.640 519.215, 1042.978 517.322 C 1039.574 513.446, 1039.903 511.603, 1043.845 512.460 C 1046.419 513.020, 1065.133 510.654, 1066.934 509.541 C 1067.425 509.238, 1071.578 508.561, 1076.163 508.038 C 1086.946 506.808, 1103.142 504.348, 1109.500 502.976 C 1116.823 501.395, 1130.193 500.152, 1140.750 500.071 C 1145.838 500.032, 1150 499.658, 1150 499.241 C 1150 497.214, 1145.276 496.185, 1132.961 495.529 C 1123.929 495.048, 1118.742 494.330, 1117.196 493.348 C 1115.929 492.542, 1111.429 491.243, 1107.196 490.460 C 1102.963 489.678, 1097.025 487.845, 1094 486.387 C 1090.975 484.929, 1087.600 483.402, 1086.500 482.993 C 1085.400 482.584, 1083.241 481.743, 1081.703 481.125 C 1080.165 480.506, 1074.877 480, 1069.953 480 C 1064.903 480, 1061 479.582, 1061 479.040 C 1061 478.513, 1059.807 476.975, 1058.349 475.623 L 1055.698 473.164 1058.471 470.778 C 1060.817 468.760, 1061.138 467.905, 1060.550 465.229 C 1060.168 463.490, 1058.749 460.436, 1057.397 458.443 C 1054.196 453.727, 1049.954 445.195, 1046.607 436.744 C 1043.157 428.032, 1040.514 424.146, 1031.899 415.119 C 1028.025 411.060, 1023.712 406.012, 1022.316 403.901 C 1020.919 401.791, 1018.995 399.816, 1018.040 399.513 C 1017.085 399.210, 1015.812 397.883, 1015.211 396.564 C 1013.220 392.194, 1006.173 391.545, 976.500 392.996 C 956.787 393.961, 948.761 393.994, 943.308 393.134 C 936.840 392.114, 914.998 391.658, 912.500 392.491" stroke="#b09658" fill="#b09658" fill-opacity="0.2" fill-rule="evenodd"/><path class="svg-region-Fl" d="M 818 368.034 C 808.192 368.604, 803.885 369.344, 798 371.474 C 793.875 372.967, 789.600 374.431, 788.500 374.728 C 785.949 375.416, 780.441 380.577, 777.921 384.639 C 776.165 387.470, 771 400.535, 771 402.146 C 771 402.507, 775.319 404.903, 780.599 407.471 C 785.878 410.039, 792.065 413.829, 794.349 415.893 C 796.632 417.956, 799.877 420.194, 801.559 420.865 C 803.242 421.536, 805.455 423.528, 806.477 425.292 C 807.499 427.057, 809.385 429.772, 810.668 431.327 C 812.674 433.758, 813 435.254, 813 442.030 C 813 449.982, 812.058 453.530, 808.790 457.885 C 805.867 461.780, 806.473 463.511, 809.904 461.068 C 813.970 458.173, 827.770 458.081, 832.382 460.918 C 834.809 462.411, 837.606 462.875, 845 463.012 C 850.225 463.109, 855.326 463.146, 856.337 463.094 C 858.572 462.980, 870.138 452.072, 874.091 446.350 C 875.668 444.067, 878.968 438.326, 881.425 433.591 C 885.863 425.035, 894.429 414.037, 896.673 414.013 C 899.076 413.987, 903.912 408.797, 905.564 404.472 C 907.161 400.289, 907.164 399.719, 905.611 395.651 C 904.697 393.259, 902.939 390.352, 901.704 389.192 C 899.063 386.710, 888.003 381.563, 883 380.487 C 881.075 380.073, 876.104 378.242, 871.953 376.418 C 864.866 373.303, 861.209 372.151, 851.500 369.977 C 849.300 369.484, 845.928 368.612, 844.007 368.040 C 840.241 366.919, 837.201 366.918, 818 368.034" stroke="#5ca7a9" fill="#5ca7a9" fill-opacity="0.2" fill-rule="evenodd"/><path class="svg-region-Fr" d="M 1081.421 369.927 C 1080.277 370.412, 1074.202 371.142, 1067.921 371.549 C 1058.037 372.190, 1055.424 372.756, 1048.500 375.756 C 1044.100 377.662, 1038.250 379.815, 1035.500 380.541 C 1024.748 383.376, 1020.823 385.241, 1018.951 388.404 C 1017.943 390.107, 1016.600 392.089, 1015.965 392.808 C 1014.404 394.580, 1015.658 399.098, 1017.872 399.677 C 1018.852 399.933, 1020.410 401.424, 1021.335 402.990 C 1022.260 404.556, 1026.587 409.586, 1030.950 414.168 C 1040.563 424.264, 1043.132 427.968, 1046.608 436.744 C 1048.080 440.460, 1050.908 446.619, 1052.892 450.432 C 1062.127 468.175, 1061.550 467.306, 1063.080 465.794 C 1065.929 462.977, 1077.633 458.182, 1083 457.632 C 1086.025 457.323, 1092.213 457.637, 1096.750 458.331 C 1105.008 459.595, 1106.701 459.101, 1103.858 456.258 C 1103.003 455.403, 1103.547 453.786, 1106.030 449.808 C 1107.852 446.889, 1109.900 444.030, 1110.581 443.456 C 1111.261 442.882, 1113.677 438.726, 1115.949 434.220 C 1118.221 429.714, 1121.075 425.501, 1122.290 424.858 C 1123.506 424.215, 1126.300 422.228, 1128.500 420.442 C 1133.032 416.763, 1138.687 414.964, 1146.583 414.689 C 1151.355 414.522, 1151.997 414.251, 1151.998 412.401 C 1152 410.020, 1144.298 398.511, 1138.927 392.872 C 1136.963 390.808, 1134.057 387.246, 1132.470 384.957 C 1127.213 377.371, 1118.840 371.863, 1110.500 370.505 C 1103.689 369.395, 1083.612 368.996, 1081.421 369.927" stroke="#5ca7a9" fill="#5ca7a9" fill-opacity="0.2" fill-rule="evenodd"/><path class="svg-region-PCl" d="M 768.491 404.015 C 768.146 404.573, 766.432 405.636, 764.682 406.376 C 759.191 408.697, 751.347 417.445, 747.275 425.785 C 743.532 433.454, 743.507 433.586, 743.157 447.916 C 742.808 462.237, 742.830 462.408, 746.517 473.916 C 752.324 492.038, 753.005 493.628, 755.879 495.752 C 760.463 499.142, 764.412 499.472, 768.353 496.794 C 771.486 494.665, 771.674 494.274, 770.401 492.534 C 768.503 489.938, 768.545 482.112, 770.462 481.376 C 771.266 481.068, 772.169 480.042, 772.469 479.097 C 773.066 477.216, 777.996 474.804, 784.988 472.971 C 789.819 471.705, 799.752 466.872, 804.309 463.571 C 805.854 462.452, 808.442 459.223, 810.059 456.396 C 812.684 451.810, 813 450.337, 813 442.705 C 813 435.222, 812.709 433.800, 810.668 431.327 C 809.385 429.772, 807.499 427.057, 806.477 425.292 C 805.455 423.528, 803.242 421.536, 801.559 420.865 C 799.877 420.194, 796.632 417.956, 794.349 415.893 C 790.519 412.432, 772.899 403, 770.263 403 C 769.633 403, 768.836 403.457, 768.491 404.015" stroke="#465ee0" fill="#465ee0" fill-opacity="0.2" fill-rule="evenodd"/><path class="svg-region-PCr" d="M 1141.054 415.137 C 1138.058 415.634, 1133.783 417.185, 1131.554 418.584 C 1121.070 425.162, 1119.811 426.420, 1115.869 434.260 C 1113.716 438.542, 1111.111 442.889, 1110.079 443.921 C 1109.048 444.952, 1107.005 447.841, 1105.541 450.340 C 1103.016 454.649, 1102.962 455.012, 1104.499 457.358 C 1106.613 460.584, 1107.861 460.994, 1117.454 461.615 C 1121.879 461.901, 1127.525 462.975, 1130 464.001 C 1132.475 465.027, 1135.703 466.122, 1137.173 466.433 C 1140.729 467.186, 1145.679 472.262, 1146.499 475.997 C 1146.862 477.650, 1148.764 480.914, 1150.725 483.251 C 1152.686 485.588, 1154.950 489.075, 1155.757 491 C 1157.468 495.080, 1158.582 495.968, 1162 495.973 C 1164.802 495.978, 1166.840 492.528, 1169.577 483.148 C 1172.217 474.098, 1172.794 467.945, 1172.078 456.500 C 1171.398 445.659, 1171.305 445.334, 1165.623 434 C 1159.688 422.164, 1156.488 417.860, 1151.800 415.411 C 1148.818 413.853, 1148.798 413.853, 1141.054 415.137" stroke="#465ee0" fill="#465ee0" fill-opacity="0.2" fill-rule="evenodd"/><path class="svg-region-PNl" d="M 810 461 C 808.625 462.076, 806.803 462.966, 805.950 462.978 C 805.097 462.990, 803.972 463.417, 803.450 463.926 C 801.492 465.836, 789.074 471.902, 784.868 473.003 C 779.192 474.490, 773 477.177, 773 478.153 C 773 478.576, 772.040 479.816, 770.868 480.909 C 769.066 482.587, 768.812 483.696, 769.231 488.054 C 769.504 490.892, 770.351 493.630, 771.113 494.140 C 772.934 495.357, 791.249 494.572, 797 493.030 C 799.475 492.367, 803.525 491.191, 806 490.418 C 813.037 488.218, 822.387 486.855, 836.500 485.971 C 859.257 484.545, 863 483.989, 863 482.038 C 863 481.088, 862.054 479.454, 860.898 478.407 C 858.104 475.879, 856 471.675, 856 468.621 C 856 464.097, 853.697 463.001, 844.179 462.993 C 837.200 462.988, 834.912 462.598, 832.500 461 C 828.189 458.145, 813.650 458.145, 810 461" stroke="#bbc0d1" fill="#bbc0d1" fill-opacity="0.2" fill-rule="evenodd"/><path class="svg-region-PNr" d="M 1079.184 458.024 C 1076.811 458.516, 1073.382 459.837, 1071.566 460.959 C 1069.750 462.082, 1067.718 463, 1067.050 463 C 1066.383 463, 1063.615 465.342, 1060.899 468.204 L 1055.961 473.409 1058.481 475.745 C 1059.866 477.030, 1061 478.513, 1061 479.040 C 1061 479.581, 1064.872 480, 1069.867 480 C 1079.063 480, 1083.690 481.248, 1094.159 486.550 C 1096.722 487.848, 1101.897 489.438, 1105.659 490.084 C 1109.422 490.729, 1114.075 492.049, 1116 493.017 C 1118.494 494.271, 1123.522 495.024, 1133.500 495.638 C 1150.619 496.692, 1151.847 496.597, 1154.425 494.019 L 1156.478 491.966 1154.071 487.428 C 1152.747 484.933, 1150.855 482.458, 1149.866 481.928 C 1148.877 481.399, 1147.592 479.197, 1147.010 477.036 C 1145.761 472.400, 1140.943 467.220, 1137.173 466.461 C 1135.703 466.166, 1132.836 465.041, 1130.802 463.962 C 1128.426 462.701, 1125.145 462, 1121.625 462 C 1118.612 462, 1111.726 461.138, 1106.324 460.085 C 1093.556 457.597, 1084.548 456.913, 1079.184 458.024" stroke="#bbc0d1" fill="#bbc0d1" fill-opacity="0.2" fill-rule="evenodd"/>
    </svg>