<svg xmlns="http://www.w3.org/2000/svg" width="1921" height="1027" viewBox="0 0 1921 1027" version="1.1">
    <path class="svg-region-PMl" d="M 754 490.264 C 752.625 490.885, 751.379 491.463, 751.232 491.548 C 751.085 491.633, 751.645 493.007, 752.477 494.601 C 753.309 496.196, 754.268 498.967, 754.608 500.761 C 754.948 502.555, 755.626 504.269, 756.113 504.570 C 756.601 504.871, 757 505.924, 757 506.910 C 757 507.896, 758.125 510.818, 759.500 513.404 C 760.875 515.990, 762 519.070, 762 520.249 C 762 525.197, 771.269 533.937, 782.967 540.020 C 786.527 541.871, 811.193 541.372, 815.954 539.352 C 818.340 538.340, 824.162 537.708, 833.749 537.419 C 842.255 537.163, 849.511 536.438, 851.749 535.620 C 853.812 534.866, 857.750 533.461, 860.500 532.498 C 869.827 529.231, 875.630 525.839, 875.562 523.694 C 875.489 521.346, 880.295 518.180, 884.095 518.073 C 885.522 518.033, 887.451 517.159, 888.380 516.132 C 889.993 514.350, 889.920 514.231, 886.785 513.534 C 884.978 513.133, 872.025 512.497, 858 512.123 C 840.967 511.668, 831.775 511.036, 830.316 510.221 C 829.114 509.549, 827.361 509, 826.418 509 C 825.476 509, 822.008 508.016, 818.711 506.814 C 814.157 505.154, 812.090 503.722, 810.108 500.854 C 807.802 497.517, 807.136 497.144, 804.349 497.633 C 802.615 497.937, 796.540 497.488, 790.849 496.636 C 785.157 495.784, 776.734 494.621, 772.130 494.051 C 767.058 493.423, 762.480 492.224, 760.512 491.007 C 756.819 488.725, 757.290 488.779, 754 490.264" stroke="#90cf92" fill="#90cf92" fill-opacity="0.2" fill-rule="evenodd"/><path class="svg-region-PMr" d="M 1094.413 508.902 C 1092.715 509.330, 1090.915 509.933, 1090.413 510.241 C 1089.911 510.550, 1080.275 511.357, 1069 512.036 C 1051.075 513.115, 1046.051 513.057, 1029 511.577 C 1018.275 510.646, 1008.712 509.655, 1007.750 509.375 C 1005.277 508.655, 1005.450 512.192, 1008 514.500 C 1009.100 515.495, 1010 516.912, 1010 517.649 C 1010 519.282, 1017.677 524.994, 1019.900 525.015 C 1022.305 525.038, 1028.061 527.308, 1032 529.789 C 1033.925 531.001, 1036.091 531.994, 1036.814 531.996 C 1037.537 531.998, 1040.588 533.125, 1043.594 534.500 C 1046.600 535.875, 1049.519 537, 1050.081 537 C 1050.643 537, 1054.291 538.650, 1058.188 540.666 L 1065.272 544.332 1100.257 544.147 L 1135.242 543.962 1137.368 541.260 C 1138.537 539.773, 1140.564 536.519, 1141.873 534.029 C 1143.181 531.538, 1147.157 525.504, 1150.707 520.620 C 1154.257 515.737, 1157.399 511.124, 1157.688 510.370 C 1158.332 508.692, 1157.512 508.679, 1136.500 510.040 C 1125.195 510.772, 1118.152 510.759, 1112.500 509.996 C 1099.084 508.185, 1097.610 508.095, 1094.413 508.902" stroke="#90cf92" fill="#90cf92" fill-opacity="0.2" fill-rule="evenodd"/><path class="svg-region-PV" d="M 902 398.346 C 902 404.280, 900.629 407.661, 896.700 411.419 C 894.929 413.114, 891.040 418.775, 888.058 424 C 885.075 429.225, 882.363 433.725, 882.029 434 C 881.696 434.275, 880.493 436.001, 879.356 437.836 C 878.219 439.670, 876.214 441.708, 874.900 442.363 C 873.585 443.018, 872.280 444.667, 871.998 446.027 C 871.716 447.387, 869.921 451.425, 868.009 455 C 864.171 462.176, 862.864 465.956, 862.629 470.565 C 862.464 473.786, 857.183 480.818, 853.460 482.774 C 852.338 483.363, 846.938 484.947, 841.460 486.294 C 832.672 488.454, 824.765 490.575, 811.700 494.277 C 809.610 494.869, 807.728 495.632, 807.517 495.972 C 807.307 496.312, 808.301 498.405, 809.727 500.623 C 811.931 504.051, 813.306 504.969, 818.910 506.754 C 834.192 511.622, 835.948 511.859, 860.500 512.352 C 873.700 512.618, 885.825 513.235, 887.444 513.725 L 890.389 514.614 887.972 516.307 C 886.643 517.238, 884.643 518.033, 883.527 518.073 C 880.362 518.187, 875.615 521.402, 875.030 523.827 C 874.365 526.586, 870.215 529.132, 862.500 531.514 C 859.200 532.532, 855.497 534.004, 854.271 534.784 C 851.783 536.367, 830.296 538.436, 825.499 537.554 C 823.681 537.220, 820.426 537.790, 817.238 539.001 C 814.070 540.205, 809.556 541, 805.884 541 L 799.790 541 804.501 545.449 C 809.448 550.123, 815.740 552.598, 828.500 554.889 C 845.063 557.863, 851.766 559.307, 854.500 560.490 C 856.150 561.204, 859.975 562.529, 863 563.433 C 866.025 564.337, 869.400 565.464, 870.500 565.938 C 871.600 566.411, 874.001 567.364, 875.835 568.056 C 877.670 568.747, 879.695 569.824, 880.335 570.448 C 880.976 571.071, 883.595 572.558, 886.155 573.752 C 888.716 574.945, 893.626 577.741, 897.067 579.965 C 900.509 582.189, 903.443 583.890, 903.588 583.745 C 903.733 583.600, 902.937 580.785, 901.819 577.491 C 900.334 573.115, 899.923 569.966, 900.293 565.809 C 901.271 554.823, 909.349 541.825, 917.244 538.536 C 919.585 537.561, 926.225 534.454, 932 531.631 C 941.987 526.751, 942.891 526.501, 950.500 526.514 C 956.222 526.524, 959.426 527.030, 961.751 528.290 C 964.573 529.820, 970.695 531.430, 977.500 532.433 C 981.767 533.061, 987.617 535.057, 990.125 536.739 C 991.568 537.708, 994.043 539.373, 995.625 540.439 C 999.630 543.140, 1003.854 547.713, 1007.177 552.946 C 1009.688 556.899, 1010 558.306, 1010 565.649 C 1010 570.190, 1009.477 575.054, 1008.838 576.457 C 1008.198 577.860, 1007.875 579.209, 1008.120 579.453 C 1008.716 580.049, 1017.206 577.935, 1018.621 576.838 C 1019.238 576.360, 1021.938 575.316, 1024.621 574.519 C 1027.305 573.722, 1031.750 571.628, 1034.500 569.866 C 1039.099 566.918, 1045.338 564.711, 1057 561.908 C 1059.475 561.313, 1062.950 560.390, 1064.722 559.858 C 1068.425 558.746, 1094.142 559.586, 1104 561.141 C 1113.941 562.709, 1121.392 563.173, 1122.509 562.294 C 1125.192 560.184, 1128.744 553.013, 1129.223 548.741 L 1129.756 543.983 1097.628 544.141 L 1065.500 544.299 1058.500 540.763 C 1054.650 538.817, 1049.700 536.666, 1047.500 535.983 C 1045.300 535.299, 1043.050 534.407, 1042.500 534 C 1041.950 533.593, 1039.700 532.702, 1037.500 532.019 C 1035.300 531.336, 1032.375 530.048, 1031 529.158 C 1028.027 527.232, 1022.143 525.036, 1019.900 525.015 C 1017.677 524.994, 1010 519.282, 1010 517.649 C 1010 516.912, 1009.100 515.495, 1008 514.500 C 1005.449 512.192, 1005.276 508.652, 1007.750 509.382 C 1008.712 509.666, 1018.275 510.659, 1029 511.588 C 1046.097 513.069, 1051.088 513.123, 1069.500 512.030 C 1081.050 511.345, 1091.056 510.333, 1091.735 509.782 C 1093.383 508.445, 1102.757 508.498, 1112 509.898 C 1117.504 510.731, 1124.424 510.750, 1138 509.969 C 1148.175 509.384, 1157.063 508.715, 1157.750 508.484 C 1159.829 507.783, 1159.178 505, 1156.934 505 C 1155.798 505, 1154.023 504.547, 1152.989 503.994 C 1151.955 503.441, 1146.022 502.561, 1139.804 502.040 C 1133.587 501.518, 1125.125 500.137, 1121 498.969 C 1116.875 497.802, 1111.475 496.312, 1109 495.657 C 1106.525 495.003, 1103.517 493.913, 1102.316 493.234 C 1101.114 492.555, 1099.208 492, 1098.078 492 C 1096.793 492, 1095.139 490.596, 1093.655 488.245 C 1092.351 486.180, 1090.208 483.992, 1088.892 483.384 C 1084.388 481.300, 1079.357 480, 1075.801 480 C 1073.845 480, 1071.685 479.325, 1071 478.500 C 1070.315 477.675, 1069.193 477, 1068.505 477 C 1066.955 477, 1052.395 472.282, 1050.017 471.009 C 1049.058 470.496, 1047.671 468.597, 1046.934 466.788 C 1046.197 464.980, 1044.110 460.949, 1042.297 457.832 C 1038.878 451.954, 1038.289 449.557, 1040.003 448.498 C 1040.555 448.157, 1043.817 447.568, 1047.253 447.189 L 1053.500 446.500 1047.500 441.896 C 1044.200 439.363, 1040.104 436.574, 1038.398 435.697 C 1034.072 433.472, 1029.726 428.235, 1026.496 421.354 C 1024.985 418.134, 1022.294 413.475, 1020.516 411 C 1016.669 405.646, 1015.427 401.395, 1017.115 399.362 C 1018.049 398.236, 1018.048 397.648, 1017.109 396.708 C 1015.545 395.142, 994.947 395.213, 978.031 396.844 C 967.278 397.881, 963.976 397.817, 954.031 396.380 C 947.689 395.464, 933.388 394.513, 922.250 394.268 L 902 393.822 902 398.346 M 966.316 420.084 C 965.720 420.680, 961.918 422.029, 957.866 423.081 C 950.048 425.112, 947 427.492, 947 431.564 C 947 437.722, 951.541 441.340, 960.813 442.570 C 967.777 443.493, 972.730 440.150, 975.674 432.536 C 977.230 428.511, 977.300 421.700, 975.800 420.200 C 974.304 418.704, 967.776 418.624, 966.316 420.084" stroke="#b09658" fill="#b09658" fill-opacity="0.2" fill-rule="evenodd"/><path class="svg-region-Fl" d="M 818.052 368.104 C 815.303 369.202, 807.019 370.673, 796.348 371.958 C 784.463 373.389, 778.144 377.118, 775.630 384.184 C 774.981 386.008, 772.251 390.773, 769.563 394.773 C 764.259 402.666, 762.125 410.268, 764.536 412.679 C 766.618 414.761, 774.745 418.791, 778.249 419.479 C 781.931 420.201, 782.009 420.233, 795.123 426.300 C 800.416 428.749, 807.019 432.549, 809.796 434.745 C 812.574 436.940, 818.341 440.440, 822.612 442.522 L 830.378 446.308 840.939 445.178 C 846.747 444.557, 855.550 444.136, 860.500 444.243 C 865.791 444.357, 871.044 443.903, 873.247 443.142 C 877.335 441.729, 879.837 438.442, 888.790 422.728 C 891.538 417.903, 895.014 412.990, 896.515 411.810 C 901.312 408.036, 903.377 399.753, 901.048 393.627 C 899.195 388.752, 875.151 375.990, 864.736 374.353 C 862.406 373.987, 858.542 372.855, 856.149 371.836 C 846.247 367.622, 824.575 365.499, 818.052 368.104" stroke="#5ca7a9" fill="#5ca7a9" fill-opacity="0.2" fill-rule="evenodd"/><path class="svg-region-Fr" d="M 1063.500 376.146 C 1061.300 376.663, 1055.225 378.016, 1050 379.153 C 1036.852 382.014, 1029.125 386.043, 1021.831 393.840 C 1016.444 399.599, 1015.948 400.493, 1016.562 403.348 C 1016.935 405.082, 1018.704 408.525, 1020.494 411 C 1022.284 413.475, 1024.967 418.097, 1026.457 421.272 C 1030.061 428.950, 1032.919 432.172, 1040.856 437.501 C 1044.510 439.955, 1049.232 443.186, 1051.348 444.682 C 1055.033 447.286, 1055.825 447.419, 1070.047 447.823 C 1082.416 448.174, 1085.153 447.990, 1086.423 446.720 C 1087.261 445.882, 1089.534 444.215, 1091.473 443.016 C 1093.413 441.818, 1095 440.454, 1095 439.986 C 1095 439.518, 1095.932 438.839, 1097.072 438.477 C 1098.211 438.116, 1101.593 435.824, 1104.587 433.386 C 1113.432 426.181, 1117.194 424.660, 1127.961 423.935 C 1133.208 423.582, 1138.767 422.777, 1140.315 422.147 C 1141.863 421.516, 1144.424 421, 1146.006 421 C 1147.588 421, 1149.141 420.580, 1149.459 420.067 C 1149.988 419.211, 1146.611 412.276, 1143.353 407.527 C 1142.609 406.443, 1142 404.733, 1142 403.728 C 1142 402.723, 1141.279 400.507, 1140.399 398.804 C 1138.166 394.487, 1125.071 382.045, 1122.020 381.342 C 1120.634 381.023, 1118.600 380.204, 1117.500 379.522 C 1116.400 378.840, 1111.855 377.544, 1107.400 376.641 C 1098.384 374.814, 1070.508 374.500, 1063.500 376.146" stroke="#5ca7a9" fill="#5ca7a9" fill-opacity="0.2" fill-rule="evenodd"/><path class="svg-region-PCl" d="M 758.376 415.163 C 754.273 419.678, 749.609 429.919, 745.118 444.271 C 742.267 453.385, 742.207 466.453, 744.983 473.481 C 746.074 476.241, 747.430 480.370, 747.996 482.655 C 750.107 491.172, 754.470 493.120, 756.828 486.599 C 758.108 483.060, 765.200 476.009, 773.436 470.089 C 778.041 466.779, 782.462 464.660, 787.500 463.347 C 790.049 462.683, 804.942 457.051, 807.236 455.884 C 808.191 455.398, 809.546 455, 810.246 455 C 810.946 455, 812.040 454.166, 812.676 453.147 C 813.377 452.025, 815.540 451.048, 818.166 450.669 C 824.384 449.772, 830 448.048, 830 447.036 C 830 446.558, 826.288 444.296, 821.750 442.009 C 817.212 439.722, 811.394 436.085, 808.821 433.926 C 806.247 431.766, 803.858 430, 803.512 430 C 803.165 430, 799.163 428.200, 794.618 426 C 790.073 423.800, 785.824 422, 785.177 422 C 784.530 422, 784 421.550, 784 421 C 784 420.450, 782.846 420, 781.435 420 C 778.733 420, 768.910 416.197, 767.919 414.767 C 767.600 414.306, 765.800 413.681, 763.919 413.377 C 761.183 412.936, 760.075 413.293, 758.376 415.163" stroke="#465ee0" fill="#465ee0" fill-opacity="0.2" fill-rule="evenodd"/><path class="svg-region-PCr" d="M 1145 420.978 C 1142.525 421.368, 1139.233 422.208, 1137.685 422.844 C 1136.137 423.480, 1131.914 424, 1128.301 424 C 1120.266 424, 1115.718 425.287, 1110.496 429.041 C 1108.298 430.621, 1104.028 433.620, 1101.008 435.707 C 1097.987 437.793, 1094.786 440.225, 1093.896 441.112 C 1093.005 441.998, 1090.864 443.558, 1089.138 444.577 C 1087.412 445.597, 1086 446.784, 1086 447.216 C 1086 447.647, 1088.466 448, 1091.480 448 C 1100.264 448, 1126.547 453.185, 1129.640 455.528 C 1130.663 456.302, 1132.317 456.951, 1133.316 456.968 C 1136.291 457.020, 1150.214 463.861, 1151.720 466.010 C 1152.486 467.105, 1153.696 468, 1154.408 468 C 1155.120 468, 1157.843 469.138, 1160.459 470.529 C 1165.165 473.031, 1165.249 473.039, 1168.358 471.227 C 1171.429 469.436, 1171.507 469.210, 1171.790 461.204 C 1172.157 450.850, 1171.020 446.751, 1166.043 440.500 C 1163.854 437.750, 1160.886 433.302, 1159.447 430.616 C 1157.076 426.189, 1151.336 419.802, 1150.027 420.134 C 1149.737 420.207, 1147.475 420.587, 1145 420.978" stroke="#465ee0" fill="#465ee0" fill-opacity="0.2" fill-rule="evenodd"/><path class="svg-region-DV" d="M 966.316 420.084 C 965.720 420.680, 961.918 422.029, 957.866 423.081 C 950.048 425.112, 947 427.492, 947 431.564 C 947 437.676, 951.935 441.613, 960.932 442.678 C 969.582 443.703, 975.757 437.505, 976.795 426.755 C 977.081 423.795, 976.784 421.444, 976.004 420.505 C 974.560 418.765, 967.924 418.476, 966.316 420.084" stroke="#45567a" fill="#45567a" fill-opacity="0.2" fill-rule="evenodd"/><path class="svg-region-VV" d="M 941.287 527.450 C 938.970 528.174, 934.570 530.181, 931.508 531.908 C 928.447 533.636, 923.368 536.003, 920.221 537.167 C 906.143 542.378, 896.637 562.360, 901.406 576.718 C 902.319 579.465, 904.063 582.631, 905.283 583.752 C 909.172 587.330, 923.246 594.012, 931 595.963 C 935.125 597.001, 940.072 598.334, 941.993 598.925 C 943.915 599.516, 949.833 600, 955.145 600 C 964.350 600, 965.204 599.811, 973.328 595.968 C 978.016 593.750, 984.130 591.260, 986.915 590.433 C 989.700 589.606, 995.371 587.099, 999.518 584.862 C 1008.682 579.919, 1010 577.512, 1010 565.716 C 1010 558.800, 1009.625 557.036, 1007.320 553.103 C 1003.961 547.371, 999.986 543.319, 993.158 538.667 C 987.631 534.902, 985.033 533.981, 971.500 530.991 C 967.100 530.018, 961.700 528.517, 959.500 527.655 C 954.652 525.755, 946.987 525.669, 941.287 527.450" stroke="#7699d1" fill="#7699d1" fill-opacity="0.2" fill-rule="evenodd"/><path class="svg-region-PNl" d="M 837.500 445.345 C 833.650 445.910, 829.961 446.907, 829.302 447.563 C 828.642 448.218, 825.042 449.316, 821.302 450.002 C 817.561 450.688, 813.600 452.016, 812.500 452.953 C 810.090 455.005, 790.277 462.987, 787.481 463.032 C 786.392 463.049, 784.626 463.724, 783.559 464.532 C 782.491 465.339, 780.957 466, 780.150 466 C 776.782 466, 757.687 482.620, 756.597 486.500 C 755.715 489.640, 762.322 492.840, 772.238 494.074 C 776.782 494.639, 784.795 495.754, 790.044 496.551 C 802.545 498.449, 802.992 498.424, 808.813 495.500 C 811.551 494.125, 814.690 493, 815.790 493 C 816.890 493, 820.874 492.042, 824.645 490.871 C 828.415 489.700, 836.656 487.462, 842.959 485.898 C 854.098 483.132, 854.530 482.922, 858.445 478.341 C 861.037 475.309, 862.531 472.537, 862.637 470.565 C 862.909 465.501, 864.083 462.126, 868.138 454.749 C 873.984 444.113, 874.347 444.493, 858.250 444.399 C 850.688 444.355, 841.350 444.781, 837.500 445.345" stroke="#bbc0d1" fill="#bbc0d1" fill-opacity="0.2" fill-rule="evenodd"/><path class="svg-region-PNr" d="M 1042.005 447.909 C 1040.633 448.282, 1039.381 449.262, 1039.222 450.087 C 1038.744 452.566, 1048.994 471.055, 1051.366 471.993 C 1052.540 472.457, 1057.455 474.070, 1062.290 475.578 C 1067.124 477.086, 1071.313 478.698, 1071.599 479.160 C 1071.884 479.622, 1073.747 480, 1075.738 480 C 1083.141 480, 1089.920 483.092, 1093.198 487.962 C 1094.666 490.142, 1096.634 491.652, 1098.514 492.040 C 1100.156 492.379, 1102.400 493.153, 1103.500 493.760 C 1104.600 494.367, 1107.300 495.306, 1109.500 495.846 C 1111.700 496.386, 1116.650 497.774, 1120.500 498.930 C 1124.350 500.086, 1132.813 501.473, 1139.306 502.011 C 1145.799 502.549, 1151.874 503.379, 1152.806 503.854 C 1153.738 504.329, 1155.908 504.985, 1157.630 505.310 C 1160.659 505.883, 1160.828 505.723, 1162.880 500.362 C 1164.046 497.315, 1165 494.007, 1165 493.010 C 1165 492.014, 1166.023 488.991, 1167.273 486.293 C 1170.187 480.002, 1169.959 471.516, 1166.897 472.317 C 1165.059 472.797, 1152.275 467.028, 1151.092 465.184 C 1150.238 463.855, 1140.539 459.094, 1134.056 456.823 C 1119.394 451.687, 1119.787 451.782, 1102 449.107 C 1094.140 447.925, 1045.515 446.954, 1042.005 447.909" stroke="#bbc0d1" fill="#bbc0d1" fill-opacity="0.2" fill-rule="evenodd"/>
    </svg>