<svg xmlns="http://www.w3.org/2000/svg" width="1921" height="1027" viewBox="0 0 1921 1027" version="1.1">
    <path class="svg-region-PMl" d="M 769.330 516.714 C 770.714 523.509, 774.087 534.400, 775.238 535.786 C 777.084 538.011, 786.312 544.683, 791.234 547.352 C 793.580 548.625, 798.650 551.405, 802.500 553.530 C 806.350 555.655, 811.075 557.470, 813 557.564 C 814.925 557.657, 819.028 558.074, 822.117 558.489 C 831.292 559.722, 843.908 557.431, 853.002 552.879 C 857.265 550.745, 861.197 549, 861.741 549 C 862.285 549, 863.901 548.079, 865.332 546.954 C 870.782 542.667, 897.139 530, 900.610 530 C 902.495 530, 907.258 528.875, 911.193 527.500 C 917.313 525.362, 920.112 525, 930.525 525 C 937.222 525, 944.006 525.415, 945.601 525.922 C 947.195 526.429, 950.638 527.049, 953.250 527.299 L 958 527.754 958 521.896 C 958 516.649, 957.765 515.981, 955.750 515.494 C 951.017 514.349, 897.268 514.558, 870.500 515.826 C 848.195 516.882, 839.754 516.906, 829 515.945 C 821.575 515.281, 804.984 514.556, 792.131 514.333 L 768.762 513.928 769.330 516.714" stroke="#90cf92" fill="#90cf92" fill-opacity="0.2" fill-rule="evenodd"/><path class="svg-region-PMr" d="M 1088.007 510.604 C 1084.986 511.459, 1081.896 512.671, 1081.141 513.298 C 1077.982 515.920, 1072.245 517.366, 1065.750 517.178 C 1053.090 516.811, 1042.511 516.916, 1029.154 517.539 C 1019.162 518.006, 1013.475 517.765, 1006.530 516.581 C 996.523 514.876, 986.938 514.638, 969.250 515.657 L 958 516.306 958 521.997 L 958 527.688 973.250 528.340 C 992.169 529.149, 1009.221 531.634, 1014.500 534.349 C 1018.441 536.377, 1021.492 536.935, 1039.719 538.965 C 1045.680 539.629, 1050.097 540.698, 1052.219 541.992 C 1054.147 543.168, 1057.265 543.994, 1059.781 543.996 C 1062.807 543.999, 1064.246 544.476, 1064.686 545.623 C 1065.270 547.145, 1074.756 552, 1077.146 552 C 1077.746 552, 1079.835 553.404, 1081.788 555.119 C 1084.967 557.910, 1085.826 558.181, 1089.952 557.692 C 1092.488 557.392, 1098.824 555.592, 1104.032 553.692 C 1109.239 551.792, 1116.510 549.534, 1120.189 548.674 C 1131.821 545.954, 1137 540.990, 1137 532.563 C 1137 530.126, 1135.939 528.406, 1132.250 524.865 C 1129.638 522.357, 1125.700 519.248, 1123.500 517.955 C 1121.300 516.663, 1119.275 515.308, 1119 514.945 C 1118.725 514.581, 1116.255 513.298, 1113.510 512.092 C 1106.892 509.185, 1095.392 508.514, 1088.007 510.604" stroke="#90cf92" fill="#90cf92" fill-opacity="0.2" fill-rule="evenodd"/><path class="svg-region-PV" d="M 883.833 429.684 C 882.955 430.683, 881.901 432.625, 881.490 434 C 879.945 439.175, 876.537 444.715, 870.802 451.375 C 866.620 456.232, 865.094 458.727, 865.602 459.875 C 866.558 462.031, 866.410 466.105, 865.348 466.881 C 864.881 467.221, 863.647 469.178, 862.604 471.229 C 861.561 473.280, 859.986 475.197, 859.104 475.489 C 858.222 475.780, 855.977 477.365, 854.114 479.010 C 852.252 480.654, 850.115 482, 849.364 482 C 848.614 482, 848 482.387, 848 482.861 C 848 483.334, 844.908 484.697, 841.128 485.890 C 837.349 487.083, 833.454 488.946, 832.473 490.030 C 831.492 491.113, 829.915 492, 828.967 492 C 828.020 492, 825.629 492.675, 823.654 493.500 C 821.680 494.325, 818.882 495, 817.437 495 C 815.992 495, 812.490 496.244, 809.655 497.764 C 806.820 499.284, 801.895 501.388, 798.711 502.440 C 793.600 504.128, 792.195 504.211, 786.711 503.152 C 783.295 502.493, 776.545 501.568, 771.712 501.097 C 765.613 500.503, 762.321 499.696, 760.956 498.460 C 758.521 496.256, 757.092 497.333, 759.253 499.744 C 760.118 500.710, 761.770 504.200, 762.924 507.500 C 764.078 510.800, 765.467 513.650, 766.011 513.833 C 766.555 514.017, 767 514.759, 767 515.484 C 767 516.209, 768.121 519.209, 769.490 522.151 C 772.172 527.911, 772.975 527.270, 770.500 521.346 C 767.230 513.520, 766.117 513.879, 792.250 514.334 C 805.038 514.556, 821.575 515.281, 829 515.944 C 839.749 516.904, 848.206 516.880, 870.500 515.825 C 885.900 515.096, 906.600 514.544, 916.500 514.598 C 991.384 515.006, 996.761 515.128, 1006.294 516.640 C 1013.618 517.802, 1019.546 518.027, 1029.794 517.533 C 1047.200 516.693, 1056.998 516.690, 1064.228 517.523 C 1070.036 518.192, 1077.430 516.381, 1081 513.415 C 1081.825 512.730, 1085.425 511.408, 1089 510.478 C 1096.416 508.548, 1106.886 509.017, 1111.627 511.489 C 1113.207 512.313, 1114.842 512.990, 1115.260 512.994 C 1115.678 512.997, 1118.261 514.575, 1121 516.500 C 1123.739 518.425, 1126.255 520, 1126.591 520 C 1128.069 520, 1136.928 529.495, 1137.200 531.370 C 1137.463 533.190, 1138.135 532.832, 1142.644 528.473 C 1145.474 525.738, 1149.491 520.800, 1151.572 517.500 C 1153.653 514.200, 1155.935 511.050, 1156.645 510.500 C 1157.354 509.950, 1158.675 507.700, 1159.580 505.500 C 1160.485 503.300, 1161.724 501.187, 1162.333 500.804 C 1162.943 500.422, 1163.128 499.795, 1162.745 499.412 C 1162.362 499.029, 1161.475 499.172, 1160.774 499.730 C 1159.486 500.756, 1144.695 502.236, 1135.500 502.259 C 1129.550 502.274, 1116.713 500.559, 1115.041 499.526 C 1114.391 499.124, 1110.675 498.395, 1106.783 497.907 C 1099.616 497.007, 1091.434 493.294, 1090.341 490.446 C 1090.046 489.678, 1088.611 488.438, 1087.152 487.692 C 1080.981 484.533, 1068.423 477.719, 1067.500 477.029 C 1066.950 476.618, 1064.290 475.454, 1061.589 474.443 C 1056.464 472.525, 1049 466.122, 1049 463.642 C 1049 461.910, 1045.603 457.776, 1037.250 449.339 C 1033.813 445.867, 1031 442.584, 1031 442.043 C 1031 440.386, 1024.727 432.051, 1023.876 432.577 C 1023.437 432.848, 1022.808 434.742, 1022.478 436.785 C 1020.934 446.349, 1014.741 456.426, 1009.790 457.429 C 1007.980 457.796, 1004.925 458.950, 1003 459.994 C 996.832 463.338, 995.072 463.950, 988.715 464.966 C 978.771 466.554, 939.184 463.399, 926.537 460.010 C 922.469 458.920, 915.464 457.616, 910.971 457.114 C 903.665 456.296, 902.433 455.846, 899.313 452.850 C 895.519 449.206, 893.105 445.029, 890.003 436.736 C 888.900 433.791, 887.421 430.590, 886.714 429.624 C 885.492 427.952, 885.353 427.955, 883.833 429.684 M 912.668 526.981 C 910.010 528.020, 905.057 529.302, 901.661 529.830 C 897.234 530.520, 891.553 532.799, 881.584 537.885 C 873.938 541.786, 866.930 545.658, 866.012 546.489 C 865.094 547.320, 863.957 548, 863.486 548 C 863.015 548, 859.451 549.645, 855.565 551.656 C 848.163 555.487, 840.399 557.968, 835.750 557.988 C 834.237 557.995, 833 558.450, 833 559 C 833 559.550, 835.189 560, 837.865 560 C 841.216 560, 843.522 560.622, 845.273 562 C 846.671 563.100, 848.590 564, 849.536 564 C 850.483 564, 856.830 566.713, 863.640 570.029 C 870.451 573.345, 877.031 576.502, 878.262 577.044 C 879.493 577.586, 881.850 578.890, 883.500 579.942 C 887.693 582.614, 887.815 582.537, 887.254 577.563 C 886.979 575.122, 887.075 570.987, 887.467 568.373 C 888.078 564.298, 889.118 562.647, 894.756 556.807 C 901.421 549.903, 909.446 544, 912.165 544 C 912.985 544, 916.320 542.933, 919.578 541.630 C 923.170 540.192, 929.827 538.778, 936.500 538.036 C 949.372 536.603, 984.528 537.067, 990.500 538.749 C 996.176 540.347, 1003.787 549.117, 1009.608 560.768 C 1012.193 565.941, 1015.363 571.730, 1016.654 573.631 C 1017.944 575.533, 1019 577.519, 1019 578.044 C 1019 578.570, 1019.394 579, 1019.876 579 C 1020.848 579, 1030.648 574.550, 1033 573.040 C 1035.550 571.403, 1048.285 566.247, 1052.500 565.144 C 1066.098 561.588, 1073.426 560.098, 1080.488 559.451 C 1086.978 558.858, 1088.010 558.548, 1085.988 557.803 C 1084.620 557.298, 1082.375 555.841, 1081 554.565 C 1079.625 553.289, 1076.058 551.453, 1073.073 550.484 C 1070.089 549.515, 1066.662 547.660, 1065.459 546.361 C 1063.939 544.721, 1062.170 544, 1059.666 544 C 1057.683 544, 1054.454 543.098, 1052.491 541.995 C 1050.273 540.749, 1045.434 539.602, 1039.711 538.964 C 1021.478 536.934, 1018.440 536.376, 1014.500 534.339 C 1008.981 531.485, 992.360 529.210, 968.348 528.022 C 957.265 527.474, 946.998 526.570, 945.533 526.013 C 944.068 525.456, 937.162 525.021, 930.185 525.047 C 920.206 525.084, 916.469 525.496, 912.668 526.981" stroke="#b09658" fill="#b09658" fill-opacity="0.2" fill-rule="evenodd"/><path class="svg-region-Fl" d="M 816 384.672 C 811.875 386.050, 804.450 388.229, 799.500 389.513 C 785.434 393.163, 784.048 393.900, 774.673 402.716 L 770.845 406.315 773.700 407.516 C 775.271 408.176, 780.040 411.678, 784.300 415.298 C 788.559 418.918, 793.046 422.195, 794.272 422.582 C 795.497 422.968, 798.354 424.913, 800.619 426.903 C 802.885 428.894, 806.029 431.192, 807.605 432.011 C 809.182 432.830, 811.228 434.130, 812.151 434.900 C 813.900 436.357, 819.341 438.570, 824.500 439.922 C 826.150 440.355, 830.702 442.349, 834.617 444.354 C 840.093 447.160, 842.924 448, 846.899 448 C 853.576 448, 857.740 449.801, 861.827 454.456 C 863.640 456.521, 865.230 458.050, 865.361 457.855 C 865.492 457.660, 868.147 454.545, 871.261 450.934 C 876.329 445.055, 881.964 435.324, 881.990 432.405 C 881.996 431.803, 882.949 430.453, 884.109 429.405 C 887.704 426.159, 892 416.498, 892 411.662 C 892 406.746, 888.605 397.453, 885.803 394.697 C 883.288 392.223, 874.034 388.022, 871.075 388.010 C 869.742 388.004, 865.467 386.926, 861.575 385.613 C 855.758 383.650, 851.745 383.132, 839 382.696 C 824.362 382.196, 823.083 382.306, 816 384.672" stroke="#5ca7a9" fill="#5ca7a9" fill-opacity="0.2" fill-rule="evenodd"/><path class="svg-region-Fr" d="M 1052 391.653 C 1037.689 394.029, 1034.465 394.835, 1022.323 399.075 C 1017.448 400.777, 1015.896 401.838, 1014.955 404.108 C 1013.604 407.370, 1013.886 409.060, 1017.185 417.500 C 1019.687 423.902, 1020.176 424.785, 1026.750 434.794 C 1029.088 438.353, 1031 441.664, 1031 442.151 C 1031 442.638, 1033.813 445.850, 1037.250 449.288 C 1040.688 452.726, 1044.426 456.811, 1045.557 458.365 L 1047.615 461.192 1050.057 459.129 C 1059.554 451.108, 1069.661 445.470, 1078.991 442.988 C 1081.461 442.331, 1084.680 440.940, 1086.145 439.897 C 1087.610 438.853, 1089.270 438, 1089.833 438 C 1090.396 438, 1091.452 437.435, 1092.179 436.744 C 1096.655 432.488, 1100.452 430, 1102.472 430 C 1103.747 430, 1107.875 428.699, 1111.645 427.108 C 1115.415 425.518, 1120.525 423.892, 1123 423.495 C 1125.475 423.098, 1127.966 422.400, 1128.535 421.943 C 1129.104 421.486, 1132.165 420.975, 1135.339 420.806 L 1141.108 420.500 1138.804 416.202 C 1135.659 410.336, 1125.853 400.726, 1119.815 397.594 C 1114.813 394.999, 1108.022 392.943, 1096 390.384 C 1086.422 388.345, 1068.882 388.851, 1052 391.653" stroke="#5ca7a9" fill="#5ca7a9" fill-opacity="0.2" fill-rule="evenodd"/><path class="svg-region-PCl" d="M 768.500 407.721 C 766.747 408.149, 758.274 416.247, 754.009 421.571 C 746.271 431.228, 743.168 440.708, 746.007 446.014 C 746.896 447.674, 748.587 447.773, 769.038 447.366 C 787.492 446.999, 792.077 447.199, 797.010 448.583 C 803.713 450.464, 811.167 450.157, 822.910 447.517 C 826.986 446.600, 831.099 446.054, 832.050 446.303 C 833.001 446.551, 834.360 446.395, 835.071 445.956 C 836.374 445.151, 830.893 442.236, 821 438.472 C 815.465 436.367, 811.662 434.666, 811 434 C 810.725 433.723, 809.204 432.828, 807.619 432.010 C 806.035 431.192, 802.885 428.896, 800.619 426.908 C 798.354 424.920, 794.925 422.490, 793 421.507 C 791.075 420.525, 787.025 417.615, 784 415.040 C 774.461 406.921, 773.544 406.488, 768.500 407.721" stroke="#465ee0" fill="#465ee0" fill-opacity="0.2" fill-rule="evenodd"/><path class="svg-region-PCr" d="M 1128 421.914 C 1127.175 422.384, 1124.105 423.272, 1121.178 423.889 C 1118.250 424.506, 1113.482 426.133, 1110.581 427.505 C 1107.680 428.877, 1104.147 430, 1102.730 430 C 1100.655 430, 1096.058 432.827, 1093 435.984 C 1092.066 436.948, 1079.513 442.898, 1077 443.568 C 1071.904 444.927, 1063.395 449.298, 1056.302 454.202 C 1044.955 462.046, 1046.613 463.050, 1061.625 457.428 C 1078.047 451.277, 1079.385 451.026, 1096 450.967 C 1104.525 450.937, 1113.300 450.506, 1115.500 450.009 C 1117.700 449.511, 1123.325 448.371, 1128 447.475 C 1138.566 445.449, 1143.935 443.914, 1145.382 442.504 C 1147.284 440.652, 1152.889 438.738, 1154.882 439.259 C 1155.925 439.532, 1157.385 439.380, 1158.125 438.923 C 1159.918 437.815, 1154.648 432.586, 1149.621 430.486 C 1147.629 429.654, 1146 428.441, 1146 427.791 C 1146 427.141, 1144.791 425.347, 1143.313 423.805 C 1140.989 421.379, 1139.873 421.004, 1135.063 421.030 C 1132.003 421.047, 1128.825 421.445, 1128 421.914" stroke="#465ee0" fill="#465ee0" fill-opacity="0.2" fill-rule="evenodd"/><path class="svg-region-DV" d="M 887.005 395.250 C 887.007 395.387, 888.121 398.200, 889.481 401.500 C 892.829 409.626, 892.708 414.654, 888.990 422.019 L 885.981 427.981 887.881 432.240 C 893.848 445.616, 896.119 449.824, 898.945 452.742 C 902.346 456.252, 903.360 456.597, 912.686 457.414 C 916.089 457.712, 922.280 458.869, 926.445 459.985 C 939.315 463.434, 978.583 466.570, 988.725 464.959 C 995.643 463.860, 999.508 462.605, 1000.393 461.173 C 1000.717 460.650, 1003.740 459.395, 1007.112 458.385 C 1011.514 457.067, 1013.882 455.696, 1015.513 453.524 C 1018.155 450.005, 1021.242 442.531, 1022.870 435.712 C 1024.032 430.842, 1023.904 430.308, 1020.061 424 C 1019.558 423.175, 1017.961 419.390, 1016.513 415.588 C 1014.533 410.394, 1014.040 407.722, 1014.527 404.838 C 1015.086 401.531, 1014.921 401.009, 1013.338 401.067 C 1007.209 401.290, 985.333 404.123, 979 405.513 C 966.900 408.171, 940.530 406.191, 920.066 401.089 C 918.105 400.600, 913.350 399.930, 909.500 399.601 C 905.650 399.271, 899.575 398.105, 896 397.008 C 890.079 395.193, 886.992 394.589, 887.005 395.250" stroke="#45567a" fill="#45567a" fill-opacity="0.2" fill-rule="evenodd"/><path class="svg-region-VV" d="M 932 538.527 C 921.730 540.109, 910.143 544.104, 904.589 547.978 C 897.954 552.606, 889.070 562.269, 887.991 566.032 C 887.446 567.932, 887 571.783, 887 574.588 C 887 580.675, 887.778 581.536, 897.500 586.215 C 901.350 588.068, 905.805 590.449, 907.400 591.505 C 908.995 592.562, 910.795 593.542, 911.400 593.682 C 913.208 594.101, 924.345 598.001, 926.500 598.969 C 933.113 601.940, 944.599 604, 954.553 604 C 963.205 604, 967.945 602.707, 981.089 596.764 C 991.331 592.133, 1004.150 586.494, 1011.310 583.469 C 1018.839 580.289, 1020.414 578.239, 1017.680 575.176 C 1016.858 574.254, 1013.592 568.426, 1010.423 562.225 C 1003.537 548.752, 996.464 540.412, 990.500 538.735 C 984.580 537.070, 942.434 536.921, 932 538.527" stroke="#7699d1" fill="#7699d1" fill-opacity="0.2" fill-rule="evenodd"/><path class="svg-region-PNl" d="M 743.657 442.451 C 743.296 443.393, 743 449.338, 743 455.661 C 743 465.742, 743.326 467.981, 745.643 473.829 C 747.097 477.498, 749.011 481.625, 749.897 483 C 750.783 484.375, 752.340 487.141, 753.356 489.146 C 754.372 491.152, 756.922 494.471, 759.022 496.522 C 762.710 500.123, 763.181 500.283, 772.671 501.168 C 778.077 501.673, 783.805 502.516, 785.399 503.043 C 791.298 504.991, 798.469 503.450, 809.195 497.931 C 812.327 496.319, 816.054 495, 817.477 495 C 818.900 495, 821.680 494.325, 823.654 493.500 C 825.629 492.675, 828.020 492, 828.967 492 C 829.915 492, 831.436 491.176, 832.348 490.168 C 833.260 489.160, 837.155 487.284, 841.003 485.999 C 844.851 484.714, 848 483.288, 848 482.831 C 848 482.374, 848.614 482, 849.364 482 C 850.115 482, 852.252 480.654, 854.114 479.010 C 855.977 477.365, 858.222 475.780, 859.104 475.489 C 859.986 475.197, 861.561 473.280, 862.604 471.229 C 863.647 469.178, 864.758 467.275, 865.073 467 C 868.029 464.420, 865.625 457.853, 859.608 452.074 C 856.367 448.961, 855.284 448.569, 847.770 447.793 C 843.222 447.324, 837.425 446.689, 834.889 446.383 C 831.994 446.033, 826.615 446.602, 820.435 447.913 C 808.724 450.396, 802.772 450.536, 796.912 448.469 C 793.397 447.229, 788.203 446.992, 769.538 447.219 L 746.503 447.500 745.409 444.119 C 744.559 441.493, 744.168 441.121, 743.657 442.451" stroke="#bbc0d1" fill="#bbc0d1" fill-opacity="0.2" fill-rule="evenodd"/><path class="svg-region-PNr" d="M 1155.500 438.914 C 1152.750 439.262, 1147.616 440.999, 1144.090 442.773 C 1140.565 444.548, 1136.740 446, 1135.590 446 C 1134.440 446, 1130.349 446.712, 1126.500 447.582 C 1113.248 450.576, 1110.455 450.881, 1095.737 450.940 C 1079.601 451.006, 1075.470 451.831, 1058.500 458.377 C 1052.613 460.648, 1049.378 462.445, 1049.148 463.571 C 1048.749 465.527, 1057.485 473.980, 1059.958 474.032 C 1060.806 474.050, 1065.100 476.040, 1069.500 478.453 C 1073.900 480.867, 1079.930 484.069, 1082.901 485.568 C 1085.871 487.068, 1090.061 490.002, 1092.211 492.089 C 1095.233 495.021, 1097.414 496.136, 1101.811 496.994 C 1104.940 497.605, 1109.525 498.570, 1112 499.139 C 1125.393 502.219, 1134.535 502.780, 1150.500 501.501 C 1160.088 500.733, 1160.631 500.562, 1163.667 497.367 C 1165.409 495.534, 1167.132 492.676, 1167.496 491.017 C 1167.861 489.358, 1168.499 488, 1168.916 488 C 1170.170 488, 1172.991 476.404, 1173.659 468.502 C 1174.297 460.956, 1173.395 455.434, 1170.230 447.500 C 1168.294 442.646, 1164.195 437.949, 1162.063 438.141 C 1161.203 438.218, 1158.250 438.566, 1155.500 438.914" stroke="#bbc0d1" fill="#bbc0d1" fill-opacity="0.2" fill-rule="evenodd"/>
    </svg>