<svg xmlns="http://www.w3.org/2000/svg" width="1921" height="1027" viewBox="0 0 1921 1027" version="1.1">
    <path class="svg-region-PMl" d="M 942.500 513.106 C 913.045 514.961, 894.332 517.891, 885 522.111 C 874.414 526.897, 873.319 528.388, 878.500 530.965 C 882.272 532.840, 909.850 533.861, 925 532.685 C 930.775 532.237, 944.500 531.562, 955.500 531.185 L 975.500 530.500 975.309 522.626 C 975.204 518.295, 974.881 514.132, 974.591 513.376 C 973.989 511.807, 964.399 511.727, 942.500 513.106" stroke="#90cf92" fill="#90cf92" fill-opacity="0.2" fill-rule="evenodd"/><path class="svg-region-PMr" d="M 975.081 516.632 C 975.521 519.309, 975.908 523.638, 975.940 526.250 L 976 531 996.326 531 C 1007.506 531, 1021.568 531.503, 1027.576 532.119 C 1038.678 533.256, 1059.384 532.111, 1068.253 529.870 C 1071.955 528.934, 1075.722 524.977, 1074.615 523.187 C 1074.309 522.691, 1071.458 521.768, 1068.279 521.136 C 1065.101 520.504, 1057.786 519.060, 1052.024 517.928 C 1040.304 515.626, 1012.245 513.103, 989.391 512.297 L 974.281 511.764 975.081 516.632" stroke="#90cf92" fill="#90cf92" fill-opacity="0.2" fill-rule="evenodd"/><path class="svg-region-PV" d="M 906.150 425.290 C 905.439 433.785, 893.356 443.849, 879.552 447.444 C 876.522 448.234, 872.830 450.004, 871.348 451.378 C 869.046 453.512, 868.846 454.110, 869.976 455.471 C 871.010 456.716, 871.057 457.877, 870.194 460.782 C 869.586 462.827, 868.833 466.136, 868.521 468.135 C 868.103 470.806, 866.643 472.995, 863.019 476.385 C 860.306 478.923, 857.612 481, 857.034 481 C 856.455 481, 854.670 482.238, 853.066 483.750 C 851.463 485.262, 849.329 487.273, 848.325 488.217 C 847.321 489.161, 845.426 491.035, 844.114 492.380 C 841.230 495.336, 836.672 497.605, 823.500 502.641 L 813.500 506.464 795.750 506.829 C 785.987 507.030, 778 507.346, 778 507.531 C 778 508.530, 790.807 520.107, 792.500 520.638 C 793.600 520.983, 796.090 522.668, 798.033 524.383 C 803.335 529.061, 809.367 533.048, 822 540.225 C 823.925 541.318, 825.950 542.536, 826.500 542.931 C 827.050 543.327, 829.364 544.182, 831.642 544.833 C 833.919 545.483, 838.391 547.585, 841.578 549.505 C 844.765 551.424, 852.126 554.826, 857.936 557.065 C 868.575 561.165, 872.984 563.008, 878.500 565.661 C 886.454 569.488, 899.034 574.097, 899.961 573.524 C 900.532 573.171, 901.019 570.546, 901.042 567.691 C 901.095 561.064, 903.014 557.672, 910.500 550.968 C 913.800 548.012, 917.272 544.621, 918.216 543.432 C 919.160 542.243, 921.410 540.688, 923.216 539.976 C 925.022 539.263, 927.850 537.704, 929.500 536.510 C 931.150 535.316, 935.200 533.822, 938.500 533.189 C 948.272 531.315, 948.808 531.100, 942.500 531.582 C 939.200 531.834, 925.475 532.301, 912 532.619 C 886.510 533.220, 878.477 532.485, 875.841 529.308 C 874.724 527.962, 874.880 527.492, 876.884 526.161 C 880.139 524, 888.528 520.669, 895.590 518.734 C 910.053 514.770, 956.648 511.468, 986.205 512.312 C 1011.574 513.036, 1039.545 515.410, 1051.716 517.872 C 1057.097 518.961, 1064.326 520.399, 1067.779 521.069 C 1074.766 522.423, 1075.575 523.056, 1074.023 525.956 C 1072.311 529.156, 1070.080 529.827, 1055.390 531.556 C 1043.383 532.969, 1039.466 533.024, 1026.500 531.958 C 1018.250 531.280, 1010.600 530.960, 1009.500 531.247 C 1008.400 531.533, 1010.251 531.820, 1013.612 531.884 C 1020.732 532.019, 1023.351 533.695, 1032.121 543.733 C 1035.079 547.119, 1041.550 552.899, 1046.500 556.576 C 1056.311 563.866, 1056.955 564.535, 1057 567.500 C 1057.054 571.011, 1058.412 572.212, 1061.091 571.117 C 1065.684 569.239, 1080.522 565.095, 1085 564.440 C 1087.475 564.077, 1091.525 562.728, 1094 561.441 C 1096.475 560.153, 1100.459 558.290, 1102.854 557.300 C 1121.805 549.465, 1137.025 539.970, 1150.906 527.320 L 1155.493 523.140 1150.817 521.136 C 1148.245 520.033, 1145.594 518.111, 1144.927 516.863 C 1142.811 512.910, 1136.860 508.038, 1132.607 506.776 C 1130.348 506.106, 1127.600 504.490, 1126.500 503.185 C 1125.400 501.881, 1121.626 498.042, 1118.114 494.656 C 1114.602 491.270, 1110.973 487.281, 1110.050 485.791 C 1109.127 484.301, 1105.813 480.356, 1102.686 477.026 C 1099.559 473.695, 1097 470.618, 1097 470.188 C 1097 469.758, 1095.249 467.696, 1093.108 465.605 C 1090.967 463.515, 1088.439 460.083, 1087.490 457.979 C 1086.496 455.774, 1085.240 454.354, 1084.526 454.628 C 1080.780 456.066, 1065 444.841, 1065 440.739 C 1065 439.123, 1060.247 430.061, 1058.128 427.638 C 1056.608 425.900, 1056.464 426.595, 1055.952 438.138 C 1055.449 449.481, 1055.181 450.821, 1052.702 454.390 C 1051.216 456.529, 1049.993 458.779, 1049.985 459.390 C 1049.977 460, 1048.514 462.114, 1046.735 464.088 C 1039.323 472.307, 1026.095 480.528, 1021.861 479.546 C 1019.011 478.885, 990.017 477.729, 970 477.478 C 955.779 477.299, 940.256 475.682, 938.859 474.233 C 938.471 473.830, 936.206 469.829, 933.827 465.343 C 928.138 454.619, 921.598 445.177, 913.615 436.161 C 910.040 432.124, 906.932 427.624, 906.708 426.161 C 906.483 424.697, 906.232 424.305, 906.150 425.290" stroke="#b09658" fill="#b09658" fill-opacity="0.2" fill-rule="evenodd"/><path class="svg-region-Fl" d="M 862.500 393.127 C 859.750 393.661, 852.036 395.426, 845.358 397.049 C 834.973 399.573, 831.948 400.796, 824.455 405.500 C 819.637 408.525, 814.629 411, 813.326 411 C 812.023 411, 807.029 412.518, 802.228 414.373 C 797.428 416.228, 791.025 418.544, 788 419.520 C 783.078 421.108, 778.578 423.145, 766.922 429.064 C 764.954 430.063, 762.766 431.577, 762.059 432.428 C 760.407 434.420, 759.443 434.100, 779 438.049 C 784.775 439.215, 791.905 440.862, 794.845 441.708 C 797.785 442.554, 803.860 443.622, 808.345 444.081 C 822.157 445.495, 842.724 448.412, 857.500 451.053 C 870.560 453.387, 869.969 453.399, 872.822 450.739 C 874.295 449.366, 877.238 447.933, 879.363 447.555 C 889.026 445.835, 902.853 436.167, 904.875 429.717 C 908.002 419.746, 906.438 400.993, 902.119 396.675 C 900.808 395.364, 897.950 394.315, 894.278 393.797 C 884.712 392.448, 867.825 392.092, 862.500 393.127" stroke="#5ca7a9" fill="#5ca7a9" fill-opacity="0.2" fill-rule="evenodd"/><path class="svg-region-Fr" d="M 1060.500 399.057 C 1058.300 399.512, 1054.362 399.911, 1051.750 399.942 C 1046.215 400.010, 1045.711 401.393, 1048.914 407.719 C 1052.651 415.098, 1055 420.916, 1055 422.790 C 1055 423.835, 1055.970 425.547, 1057.155 426.595 C 1058.340 427.643, 1061.009 432.100, 1063.087 436.500 C 1065.165 440.900, 1068.243 445.820, 1069.928 447.433 C 1073.757 451.099, 1084.345 456.185, 1084.880 454.616 C 1085.696 452.223, 1088.680 449.663, 1092.652 447.948 C 1095.767 446.603, 1101.759 445.868, 1116.652 445.005 C 1132.578 444.083, 1138.806 443.277, 1148.169 440.928 C 1154.587 439.318, 1160.999 438, 1162.419 438 C 1168.290 438, 1162.703 430.422, 1154.700 427.531 C 1152.061 426.577, 1148.461 424.460, 1146.700 422.827 C 1144.940 421.194, 1142.150 419.145, 1140.500 418.274 C 1136.903 416.375, 1132.413 413.312, 1129 410.428 C 1125.024 407.068, 1113.903 401.404, 1107.797 399.629 C 1103.418 398.356, 1098.069 398.025, 1083.346 398.115 C 1072.981 398.178, 1062.700 398.602, 1060.500 399.057" stroke="#5ca7a9" fill="#5ca7a9" fill-opacity="0.2" fill-rule="evenodd"/><path class="svg-region-DV" d="M 959 398.949 C 957.625 399.361, 947.749 399.518, 937.054 399.297 C 921.469 398.975, 917.002 399.185, 914.554 400.351 C 912.874 401.151, 910.206 402.316, 908.625 402.939 C 905.989 403.977, 905.801 404.380, 906.364 407.786 C 906.702 409.828, 906.983 415.423, 906.989 420.217 L 907 428.934 913.583 436.217 C 920.709 444.101, 928.196 455.001, 934.899 467.250 C 937.232 471.512, 939.671 475.023, 940.320 475.051 C 940.969 475.080, 944.650 475.594, 948.500 476.195 C 952.350 476.796, 962.025 477.370, 970 477.471 C 989.112 477.714, 1016.585 478.831, 1021.084 479.549 C 1025.099 480.188, 1031.260 477.418, 1038.430 471.749 C 1043.746 467.546, 1050 460.961, 1050 459.566 C 1050 458.960, 1051.237 456.672, 1052.750 454.482 C 1055.440 450.586, 1055.500 450.186, 1055.500 436 C 1055.500 421.900, 1055.413 421.307, 1052.361 414.500 C 1049.553 408.238, 1048.657 407.184, 1043.861 404.500 L 1038.500 401.500 1015 401.155 C 980.817 400.653, 964.628 399.947, 963.550 398.912 C 962.494 397.898, 962.505 397.898, 959 398.949" stroke="#45567a" fill="#45567a" fill-opacity="0.2" fill-rule="evenodd"/><path class="svg-region-VV" d="M 947.500 531.592 C 938.530 532.841, 932.169 534.579, 929.500 536.510 C 927.850 537.704, 925.022 539.263, 923.216 539.976 C 921.410 540.688, 919.143 542.274, 918.178 543.501 C 917.213 544.728, 913.741 548.074, 910.462 550.937 C 902.214 558.140, 900.601 561.555, 900.889 571.211 C 900.994 574.716, 901.237 574.982, 905.250 575.989 C 912.938 577.916, 923.303 582.281, 936.503 589.149 C 954.579 598.554, 957.516 599.180, 978.500 598.093 C 994.788 597.249, 995.877 597.059, 1004.500 593.554 C 1009.450 591.543, 1014.694 589.245, 1016.154 588.448 C 1017.614 587.652, 1019.345 587, 1020 587 C 1020.655 587, 1022.488 586.077, 1024.073 584.948 C 1025.658 583.820, 1030.002 581.842, 1033.727 580.553 C 1037.452 579.264, 1043.738 576.812, 1047.695 575.104 C 1051.653 573.397, 1055.599 572, 1056.464 572 C 1057.999 572, 1057.988 570.802, 1056.405 565 C 1056.179 564.175, 1051.834 560.441, 1046.748 556.702 C 1041.661 552.962, 1035.025 547.007, 1032 543.466 C 1028.975 539.926, 1024.775 535.811, 1022.666 534.321 L 1018.832 531.612 984.666 531.393 C 965.875 531.273, 949.150 531.362, 947.500 531.592" stroke="#7699d1" fill="#7699d1" fill-opacity="0.2" fill-rule="evenodd"/><path class="svg-region-PNl" d="M 746 458.498 C 746 461.153, 753.381 480.932, 754.537 481.376 C 755.342 481.685, 756.001 482.514, 756.001 483.219 C 756.002 484.408, 757.497 486.391, 763.461 493.120 C 764.738 494.560, 766.543 496.899, 767.472 498.317 C 768.401 499.735, 771.371 502.313, 774.073 504.047 L 778.984 507.198 796.242 506.829 C 813.440 506.460, 813.535 506.446, 823.500 502.638 C 836.665 497.608, 841.229 495.337, 844.114 492.380 C 845.426 491.035, 847.343 489.161, 848.373 488.217 C 849.403 487.273, 850.978 485.773, 851.873 484.885 C 852.768 483.996, 855.300 482.133, 857.500 480.744 C 864.420 476.374, 868.167 471.699, 868.726 466.735 L 869.227 462.298 844.363 461.639 C 830.688 461.277, 805.391 460.465, 788.148 459.835 C 759.585 458.792, 756.548 458.836, 754.016 460.332 C 751.385 461.886, 751.096 461.864, 748.618 459.914 C 747.178 458.782, 746 458.144, 746 458.498" stroke="#bbc0d1" fill="#bbc0d1" fill-opacity="0.2" fill-rule="evenodd"/><path class="svg-region-PNr" d="M 1091.250 459.803 C 1088.203 460.258, 1088.383 460.860, 1092.958 465.500 C 1095.127 467.700, 1096.924 469.831, 1096.951 470.235 C 1096.978 470.639, 1099.588 473.719, 1102.750 477.080 C 1105.912 480.441, 1108.980 484.073, 1109.566 485.153 C 1110.152 486.232, 1114.719 491.279, 1119.715 496.369 C 1126.327 503.106, 1129.875 505.945, 1132.756 506.809 C 1136.885 508.046, 1142.841 512.967, 1144.927 516.863 C 1145.594 518.111, 1148.209 520.018, 1150.736 521.101 L 1155.332 523.071 1158.895 519.786 C 1160.855 517.978, 1162.693 516.225, 1162.979 515.890 C 1163.266 515.554, 1164.850 514.587, 1166.500 513.740 C 1168.150 512.894, 1172.875 508.704, 1177 504.429 C 1181.125 500.154, 1185.548 495.721, 1186.828 494.578 C 1192.927 489.135, 1194.844 487.174, 1198.146 483 C 1202.558 477.421, 1205 472.766, 1205 469.933 C 1205 468.059, 1204.630 467.866, 1202.250 468.501 C 1195.407 470.327, 1187.921 469.165, 1175.850 464.404 C 1169.908 462.059, 1164.900 460.828, 1159.850 460.469 C 1151.272 459.860, 1094.561 459.309, 1091.250 459.803" stroke="#bbc0d1" fill="#bbc0d1" fill-opacity="0.2" fill-rule="evenodd"/><path class="svg-region-COl" d="M 755.332 435.939 C 751.791 438.098, 746 448.971, 746 453.459 C 746 459.367, 750.741 463.449, 754.086 460.422 C 755.883 458.796, 758.083 458.758, 788.253 459.838 C 870.437 462.779, 871 462.767, 871 458.033 C 871 454.629, 866.356 452.441, 855 450.497 C 841.499 448.184, 821.901 445.493, 808.345 444.090 C 803.860 443.626, 797.785 442.548, 794.845 441.695 C 791.905 440.842, 785.225 439.383, 780 438.452 C 774.775 437.522, 770.050 436.425, 769.500 436.013 C 768.950 435.602, 766.250 434.983, 763.500 434.636 C 759.541 434.137, 757.840 434.408, 755.332 435.939" stroke="#906d99" fill="#906d99" fill-opacity="0.2" fill-rule="evenodd"/><path class="svg-region-COr" d="M 1183.500 433.701 C 1181.850 433.922, 1177.125 434.816, 1173 435.688 C 1168.875 436.560, 1163.475 437.621, 1161 438.045 C 1158.525 438.469, 1153.800 439.558, 1150.500 440.464 C 1140.171 443.300, 1136.044 443.847, 1116.010 445.032 C 1099.612 446.003, 1095.814 446.528, 1092.074 448.343 C 1086.236 451.176, 1085.033 453.185, 1087.038 456.759 L 1088.577 459.500 1120.538 459.704 C 1158.463 459.947, 1164.895 460.346, 1171.500 462.868 C 1182.961 467.244, 1192.760 470, 1196.861 470 C 1202.238 470, 1209.343 463.963, 1213.149 456.159 C 1217.634 446.964, 1216.340 439.007, 1209.701 434.960 C 1207.035 433.334, 1204.828 433.032, 1196.500 433.154 C 1191 433.234, 1185.150 433.480, 1183.500 433.701" stroke="#906d99" fill="#906d99" fill-opacity="0.2" fill-rule="evenodd"/>
    </svg>