<svg xmlns="http://www.w3.org/2000/svg" width="1921" height="1027" viewBox="0 0 1921 1027" version="1.1">
    <path class="svg-region-PV" d="M 903 404.566 C 903 404.877, 903.483 406.034, 904.073 407.137 C 905.702 410.181, 903.836 414.188, 898.498 419.109 C 895.926 421.480, 892.773 425.463, 891.493 427.960 C 890.213 430.457, 886.840 434.750, 883.998 437.500 C 881.156 440.250, 877.335 445.425, 875.507 449 C 871.499 456.838, 867.539 460.733, 859.250 464.992 C 854.821 467.267, 853 468.770, 853 470.151 C 853 471.222, 851.538 473.614, 849.750 475.464 C 820.830 505.411, 821.396 504.918, 812.980 507.473 C 809.966 508.387, 805.250 510.224, 802.500 511.555 C 798.967 513.264, 795.446 514.051, 790.500 514.237 L 783.500 514.500 788.668 517.500 C 791.511 519.150, 797.290 522.476, 801.511 524.891 C 805.732 527.306, 809.931 530.023, 810.843 530.929 C 813.319 533.389, 819.747 538, 820.701 538 C 821.160 538, 823.191 539.125, 825.215 540.500 C 827.238 541.875, 829.891 543, 831.110 543 C 832.329 543, 837.527 545.506, 842.660 548.570 C 861.030 559.532, 886.878 572.040, 896.453 574.601 C 901.675 575.998, 903.144 575.744, 901.183 573.783 C 899.293 571.893, 899.693 562.314, 901.750 560.209 C 902.712 559.224, 905.294 556.187, 907.487 553.459 C 912.123 547.692, 928.375 531.528, 931.941 529.137 C 933.524 528.074, 938.438 527.121, 945.941 526.421 C 954.048 525.664, 958.825 524.693, 961.938 523.171 C 965.910 521.228, 967.957 521.005, 981.438 521.044 C 992.713 521.077, 997.506 521.484, 1000.500 522.665 C 1002.700 523.532, 1007.425 524.558, 1011 524.945 C 1018.378 525.742, 1026.253 529.697, 1028.321 533.643 C 1029.459 535.816, 1040.638 548.185, 1051.250 559.016 C 1054.644 562.480, 1055 563.353, 1055 568.221 C 1055 571.180, 1054.438 574.196, 1053.750 574.925 C 1052.741 575.995, 1052.789 576.149, 1054 575.724 C 1054.825 575.434, 1060 573.764, 1065.500 572.013 C 1084.163 566.068, 1092.485 562.971, 1099.093 559.509 C 1103.319 557.295, 1107.808 555.815, 1111.593 555.387 C 1118.086 554.653, 1121.644 553.108, 1131.751 546.636 C 1135.463 544.259, 1140.991 541.113, 1144.035 539.645 C 1150.387 536.582, 1159 529.108, 1159 526.659 C 1159 525.395, 1158.064 525, 1155.071 525 C 1152.911 525, 1150.468 524.325, 1149.643 523.500 C 1148.818 522.675, 1147.755 522, 1147.281 522 C 1146.806 522, 1142.855 519.750, 1138.500 517 C 1134.145 514.250, 1130.001 512, 1129.291 512 C 1128.581 512, 1128 511.550, 1128 511 C 1128 510.450, 1127.431 510, 1126.735 510 C 1124.727 510, 1117.702 505.954, 1115.386 503.463 C 1112.008 499.831, 1109.317 495.698, 1108.573 493 C 1107.001 487.296, 1104.322 482.267, 1100.851 478.500 C 1095.088 472.249, 1093.177 469.555, 1092.451 466.662 C 1092.081 465.187, 1091.378 463.734, 1090.889 463.432 C 1090.400 463.129, 1090 461.784, 1090 460.441 C 1090 459.098, 1089.550 458, 1089 458 C 1087.327 458, 1087.883 454.416, 1089.829 452.655 C 1090.988 451.606, 1093.390 451, 1096.388 451 C 1099.287 451, 1100.879 450.613, 1100.500 450 C 1100.160 449.450, 1098.896 448.991, 1097.691 448.980 C 1096.486 448.969, 1091.993 446.687, 1087.707 443.909 C 1080.228 439.062, 1079.760 438.529, 1076.077 430.679 C 1068.730 415.017, 1066.762 410.062, 1067.316 408.618 C 1068.126 406.508, 1065.917 406, 1055.918 406 C 1049.946 406, 1047 406.374, 1047 407.132 C 1047 409.089, 1051.138 415.322, 1055.542 420 C 1062.334 427.214, 1062.711 429.412, 1059.716 444.291 C 1058.264 451.505, 1056.336 458.150, 1055.236 459.728 C 1052.902 463.079, 1051 468.441, 1051 471.669 C 1051 474.039, 1046.663 481.876, 1044.617 483.204 C 1043.286 484.067, 1030.266 487.612, 1021.198 489.580 C 1000.058 494.167, 999.907 494.179, 965.531 493.712 C 932.442 493.262, 924 492.389, 924 489.416 C 924 488.772, 923.384 487.734, 922.632 487.110 C 921.880 486.485, 920.489 482.718, 919.543 478.737 C 918.596 474.757, 916.799 469.925, 915.551 468 C 910.031 459.490, 908.655 456.406, 907.375 449.669 C 906.626 445.726, 905.732 441.825, 905.389 441 C 904.191 438.122, 905.175 427.509, 907.215 421.293 C 908.603 417.065, 910.639 413.583, 913.482 410.573 C 917.451 406.372, 918.904 405.626, 925 404.666 C 926.375 404.450, 921.987 404.211, 915.250 404.136 C 908.513 404.061, 903 404.255, 903 404.566" stroke="#b09658" fill="#b09658" fill-opacity="0.2" fill-rule="evenodd"/><path class="svg-region-Fl" d="M 859.025 401.478 C 856.013 402.252, 851.963 403.751, 850.025 404.809 C 848.086 405.866, 843.599 407.283, 840.052 407.955 C 836.506 408.628, 829.756 411.094, 825.052 413.434 C 820.349 415.775, 814.250 418.422, 811.500 419.316 C 808.750 420.211, 802.792 422.142, 798.259 423.608 C 793.726 425.074, 789.509 426.887, 788.887 427.637 C 788.264 428.387, 787.147 429, 786.404 429 C 785.661 429, 783.129 429.865, 780.777 430.922 C 778.425 431.980, 774.982 433.407, 773.126 434.095 C 770.006 435.251, 769.889 435.445, 771.567 436.673 C 772.565 437.403, 775.119 438, 777.241 438 C 779.363 438, 782.314 438.619, 783.800 439.376 C 785.285 440.132, 790.156 441.485, 794.625 442.381 C 799.093 443.277, 806.068 445.416, 810.125 447.134 C 814.181 448.853, 819.750 450.643, 822.500 451.113 C 825.250 451.582, 829.525 452.456, 832 453.053 C 834.475 453.651, 838.939 454.478, 841.919 454.891 C 846.389 455.511, 847.834 456.236, 850.169 459.034 C 851.789 460.974, 853 463.617, 853 465.212 C 853 466.746, 853.232 468, 853.515 468 C 854.983 468, 865.944 461.271, 868.841 458.591 C 870.679 456.891, 873.679 452.575, 875.507 449 C 877.335 445.425, 881.155 440.250, 883.996 437.500 C 886.837 434.750, 890.076 430.700, 891.194 428.500 C 892.312 426.300, 895.468 422.281, 898.207 419.569 C 905.640 412.209, 906.544 407.739, 901.548 403.045 C 899.436 401.061, 897.970 400.870, 881.883 400.486 C 869.046 400.179, 863.068 400.439, 859.025 401.478" stroke="#5ca7a9" fill="#5ca7a9" fill-opacity="0.2" fill-rule="evenodd"/><path class="svg-region-Fr" d="M 1072.196 406.735 C 1069.606 406.967, 1067.665 407.708, 1067.325 408.596 C 1066.763 410.061, 1068.711 414.977, 1076.077 430.679 C 1079.760 438.529, 1080.228 439.062, 1087.707 443.909 C 1091.993 446.687, 1096.422 448.969, 1097.550 448.980 C 1098.677 448.991, 1100.027 449.396, 1100.550 449.879 C 1102.966 452.115, 1109.126 453.170, 1113.789 452.147 C 1116.380 451.579, 1123.627 450.149, 1129.894 448.970 C 1140.416 446.990, 1142.981 446.288, 1148.500 443.877 C 1149.600 443.397, 1152.300 442.393, 1154.500 441.646 L 1158.500 440.287 1153.659 437.210 C 1150.996 435.518, 1148.226 434.360, 1147.502 434.638 C 1146.778 434.915, 1144.457 434.059, 1142.343 432.735 C 1140.229 431.410, 1136.409 429.535, 1133.852 428.567 C 1131.296 427.599, 1127.696 425.236, 1125.852 423.317 C 1122.773 420.113, 1111.387 414, 1108.497 414 C 1107.822 414, 1106.197 413.167, 1104.885 412.150 C 1103.573 411.132, 1099.481 409.332, 1095.791 408.150 C 1089.307 406.072, 1083.491 405.723, 1072.196 406.735" stroke="#5ca7a9" fill="#5ca7a9" fill-opacity="0.2" fill-rule="evenodd"/><path class="svg-region-DV" d="M 923.500 405.003 C 915.604 406.200, 910.913 410.780, 907.517 420.608 C 905.249 427.169, 903.976 438.534, 905.273 440.632 C 905.606 441.172, 906.429 444.738, 907.102 448.557 C 908.209 454.839, 913.826 467.434, 916.268 469.106 C 916.755 469.440, 918.018 473.040, 919.076 477.106 C 921.850 487.775, 923.507 490.418, 928.386 491.959 C 931.259 492.866, 942.306 493.400, 965 493.730 C 996.402 494.185, 1003.584 493.787, 1015 490.960 C 1016.925 490.484, 1022.775 489.129, 1028 487.951 C 1042.953 484.577, 1045.201 483.520, 1048.291 478.403 C 1049.781 475.937, 1051 472.879, 1051 471.608 C 1051 468.436, 1052.918 463.057, 1055.236 459.728 C 1056.334 458.152, 1058.261 451.521, 1059.703 444.357 C 1062.735 429.296, 1062.170 426.169, 1055.122 419 C 1052.688 416.525, 1049.625 412.491, 1048.313 410.035 L 1045.930 405.570 1037.715 405.822 C 1033.197 405.960, 1027.700 406.307, 1025.500 406.593 C 1023.300 406.879, 1014.525 406.570, 1006 405.907 C 989.572 404.629, 930.252 403.980, 923.500 405.003" stroke="#45567a" fill="#45567a" fill-opacity="0.2" fill-rule="evenodd"/><path class="svg-region-VV" d="M 964.450 521.835 C 962.065 523.930, 953.653 525.928, 944.505 526.572 C 938.120 527.021, 933.606 527.852, 932.005 528.872 C 928.638 531.020, 910.205 549.502, 906.478 554.467 C 904.840 556.649, 902.712 559.236, 901.750 560.217 C 900.504 561.486, 900 563.613, 900 567.599 C 900 572.550, 900.353 573.527, 903.048 576.045 C 906.823 579.572, 914.203 582.392, 925.026 584.445 C 929.586 585.310, 933.808 586.404, 934.409 586.875 C 935.009 587.346, 936.625 587.986, 938 588.296 C 939.375 588.606, 943.875 590.081, 948 591.574 C 955.083 594.136, 956.529 594.293, 974 594.393 C 988.576 594.477, 993.561 594.156, 997.500 592.876 C 1000.250 591.983, 1006.775 590.491, 1012 589.561 C 1017.225 588.630, 1024.292 587.224, 1027.706 586.435 C 1031.119 585.646, 1034.751 585, 1035.778 585 C 1038.704 585, 1049.887 579.225, 1052.574 576.326 C 1054.489 574.259, 1054.997 572.634, 1054.985 568.604 C 1054.976 565.797, 1054.590 562.902, 1054.127 562.172 C 1053.664 561.441, 1049.734 557.148, 1045.393 552.631 C 1033.407 540.160, 1029.431 535.707, 1028.183 533.358 C 1026.170 529.569, 1018.126 525.605, 1011 524.892 C 1007.425 524.535, 1002.700 523.532, 1000.500 522.665 C 997.485 521.476, 992.670 521.077, 980.950 521.044 C 972.398 521.020, 964.972 521.376, 964.450 521.835 M 1004.854 537.706 C 1001.403 538.236, 999.327 540.647, 998.505 545.079 C 997.953 548.059, 998.288 549.189, 1000.510 551.829 C 1002.922 554.696, 1003.715 555, 1008.784 555 C 1013.506 555, 1014.833 554.576, 1017.195 552.313 C 1019.983 549.642, 1020.848 545.374, 1019.379 541.545 C 1018.020 538.005, 1012.466 536.537, 1004.854 537.706 M 937.687 543.805 C 934.088 547.561, 934.067 552.121, 937.635 554.927 C 939.692 556.546, 941.707 557, 946.830 557 C 952.587 557, 953.734 556.671, 956.195 554.313 C 959.761 550.897, 959.965 546.255, 956.686 543.174 C 954.764 541.369, 953.182 541, 947.373 541 C 941.010 541, 940.130 541.255, 937.687 543.805" stroke="#7699d1" fill="#7699d1" fill-opacity="0.2" fill-rule="evenodd"/><path class="svg-region-PNl" d="M 785.430 440.887 C 786.866 443.210, 785.096 446.940, 782.235 447.621 C 780.731 447.979, 778.375 448.838, 777 449.530 C 768.422 453.847, 755.864 459.412, 752.155 460.540 C 749.766 461.267, 747.066 462.487, 746.155 463.253 C 745.245 464.018, 742.623 465.235, 740.330 465.956 L 736.160 467.267 742.330 474.494 C 745.723 478.468, 750.013 484.246, 751.861 487.334 C 755.628 493.625, 768.634 506.543, 775.732 511.045 C 779.981 513.739, 781.165 514, 789.160 514 C 796.490 514, 798.633 513.613, 802.215 511.645 C 804.572 510.350, 808.004 509.003, 809.841 508.652 C 816.994 507.285, 823.220 502.991, 833.654 492.227 C 854.322 470.904, 853 472.631, 853 466.959 C 853 459.867, 849.332 455.914, 841.820 454.909 C 838.894 454.518, 833.800 453.494, 830.500 452.635 C 827.200 451.775, 823.318 451.055, 821.874 451.036 C 820.430 451.016, 816.830 449.931, 813.874 448.624 C 805.869 445.084, 799.097 442.896, 793.500 442.039 C 790.750 441.618, 787.639 440.911, 786.586 440.467 C 785.192 439.879, 784.878 439.993, 785.430 440.887" stroke="#bbc0d1" fill="#bbc0d1" fill-opacity="0.2" fill-rule="evenodd"/><path class="svg-region-PNr" d="M 1157.884 442.094 C 1155.345 442.480, 1149.495 443.955, 1144.884 445.371 C 1140.273 446.787, 1133.575 448.450, 1130 449.067 C 1126.425 449.683, 1121.025 450.651, 1118 451.219 C 1111.874 452.368, 1109.740 452.393, 1099.206 451.433 C 1093.024 450.871, 1091.614 451.039, 1089.956 452.540 C 1087.909 454.392, 1087.278 458, 1089 458 C 1089.550 458, 1090 459.098, 1090 460.441 C 1090 461.784, 1090.415 463.139, 1090.923 463.452 C 1091.431 463.766, 1092.143 465.374, 1092.505 467.025 C 1092.868 468.676, 1095.265 472.318, 1097.832 475.118 C 1103.635 481.448, 1106.702 486.331, 1108.114 491.491 C 1109.217 495.520, 1111.511 499.296, 1115.386 503.463 C 1117.702 505.954, 1124.727 510, 1126.735 510 C 1127.431 510, 1128 510.340, 1128 510.756 C 1128 511.172, 1129.463 512.157, 1131.250 512.945 C 1133.037 513.734, 1137.157 516.094, 1140.405 518.189 C 1143.653 520.285, 1146.867 522, 1147.548 522 C 1148.229 522, 1149.045 522.675, 1149.362 523.500 C 1149.791 524.619, 1151.577 525, 1156.390 525 L 1162.842 525 1179.069 508.962 C 1195.988 492.240, 1200.132 486.979, 1202.039 479.795 C 1202.666 477.433, 1204.043 474.567, 1205.099 473.426 C 1207.407 470.932, 1206.715 470, 1202.556 470 C 1198.899 470, 1196.079 468.236, 1190.172 462.253 C 1185.958 457.985, 1183 452.709, 1183 449.461 C 1183 447.667, 1180.685 445, 1179.128 445 C 1178.570 445, 1177.525 444.196, 1176.807 443.213 C 1175.787 441.818, 1174.074 441.423, 1169 441.409 C 1165.425 441.400, 1160.423 441.708, 1157.884 442.094" stroke="#bbc0d1" fill="#bbc0d1" fill-opacity="0.2" fill-rule="evenodd"/><path class="svg-region-COl" d="M 725.261 429.250 C 716.167 435.624, 716.970 452.840, 726.848 463.250 C 729.666 466.220, 731.143 466.997, 733.953 466.985 C 738.013 466.969, 745.783 464.488, 748 462.500 C 748.825 461.761, 750.850 460.831, 752.500 460.435 C 754.150 460.039, 759.550 457.796, 764.500 455.451 C 769.450 453.106, 776.101 450.156, 779.280 448.897 C 788.730 445.153, 788.211 439.412, 778.290 437.942 C 766.850 436.248, 753.010 432.734, 746.920 429.978 C 738.433 426.137, 730.103 425.857, 725.261 429.250" stroke="#906d99" fill="#906d99" fill-opacity="0.2" fill-rule="evenodd"/><path class="svg-region-COr" d="M 1201.500 427.918 C 1199.300 428.285, 1193.900 430.084, 1189.500 431.916 C 1175.341 437.810, 1172.943 441.001, 1179.488 445.241 C 1181.406 446.483, 1182.981 448.302, 1182.988 449.282 C 1183.012 452.723, 1185.885 457.911, 1190.172 462.253 C 1197.374 469.548, 1198.428 470, 1208.232 470 C 1216.509 470, 1217.190 469.836, 1219.974 467.175 C 1227.599 459.888, 1230.094 447.064, 1225.608 438.217 C 1220.788 428.713, 1214.032 425.827, 1201.500 427.918" stroke="#906d99" fill="#906d99" fill-opacity="0.2" fill-rule="evenodd"/><path class="svg-region-VSl" d="M 937.687 543.805 C 934.279 547.362, 934.128 551.832, 937.314 554.826 C 939.266 556.659, 940.805 557, 947.126 557 C 954.275 557, 954.726 556.862, 956.812 554.040 C 959.673 550.171, 959.623 545.934, 956.686 543.174 C 954.764 541.369, 953.182 541, 947.373 541 C 941.010 541, 940.130 541.255, 937.687 543.805" stroke="#959faf" fill="#959faf" fill-opacity="0.2" fill-rule="evenodd"/><path class="svg-region-VSr" d="M 1004.854 537.706 C 1000.809 538.328, 998.500 541.541, 998.500 546.548 C 998.500 552.782, 1001.165 555, 1008.653 555 C 1013.517 555, 1014.818 554.591, 1017.195 552.313 C 1019.406 550.195, 1020 548.726, 1020 545.381 C 1020 538.540, 1015.213 536.115, 1004.854 537.706" stroke="#959faf" fill="#959faf" fill-opacity="0.2" fill-rule="evenodd"/>
    </svg>