<svg xmlns="http://www.w3.org/2000/svg" width="1921" height="1027" viewBox="0 0 1921 1027" version="1.1">
    <path class="svg-region-SB" d="M 917.500 185.497 C 900.097 189.146, 895.696 190.223, 889.323 192.390 C 885.493 193.693, 881.491 195.248, 880.430 195.846 C 879.368 196.444, 874.960 198.362, 870.633 200.109 C 862.979 203.198, 855.092 208.829, 843.872 219.216 C 836.515 226.026, 818.501 249.515, 815.663 256 C 811.789 264.852, 804.030 286.085, 802.690 291.500 C 800.480 300.436, 799.831 317.736, 801.484 323.642 C 805.591 338.313, 812.100 348.832, 819.500 352.756 C 827.326 356.905, 845.793 352.571, 853.965 344.667 C 863.890 335.066, 866.816 332.068, 874.660 323.457 C 887.509 309.354, 898.111 298.785, 903 295.206 C 905.475 293.394, 910.875 289.408, 915 286.349 L 922.500 280.786 934.148 281.379 C 945.034 281.933, 954.435 283.620, 958.679 285.781 C 959.680 286.290, 963.974 287.285, 968.219 287.990 C 985.051 290.786, 998.414 284.636, 1005.749 270.717 C 1008.416 265.656, 1008.498 265.023, 1008.497 249.500 L 1008.496 233.500 1005.108 227.002 C 999.802 216.822, 983.209 200.957, 971 194.389 C 965.775 191.579, 959.475 188.768, 957 188.143 C 939.999 183.853, 928.888 183.109, 917.500 185.497" stroke="#d2e400" fill="#d2e400" fill-opacity="0.2" fill-rule="evenodd"/><path class="svg-region-Ol" d="M 574.500 329.065 C 553.320 332.519, 534.126 338.960, 512.869 349.748 C 498.874 356.850, 496.713 358.382, 487.259 367.903 C 475.373 379.872, 467.748 395.147, 464.246 414 C 461.893 426.672, 461.985 462.468, 464.402 474.500 C 468.209 493.450, 474.553 505.681, 486.828 517.737 C 495.576 526.329, 503.560 531.753, 511.355 534.399 C 526.304 539.475, 547.262 542.684, 559 541.696 C 568.024 540.936, 585.039 535.811, 591.765 531.827 C 598.506 527.833, 613.138 514.210, 625.411 500.500 C 630.334 495, 634.887 490.050, 635.527 489.500 C 639.134 486.400, 653.240 465.231, 658.848 454.500 C 660.318 451.688, 661.203 447.416, 664.120 429.045 C 666.823 412.025, 659.224 372.378, 650.327 357.080 C 643.753 345.776, 630.757 337.005, 618.380 335.519 C 615.750 335.204, 612.900 334.322, 612.049 333.560 C 611.197 332.798, 606.527 331.236, 601.671 330.087 C 592.633 327.951, 583.452 327.605, 574.500 329.065" stroke="#aa444d" fill="#aa444d" fill-opacity="0.2" fill-rule="evenodd"/><path class="svg-region-Or" d="M 1239.024 277.542 C 1236.013 278.385, 1231.722 280.145, 1229.490 281.453 C 1223.722 284.833, 1216.257 293.175, 1213.534 299.282 C 1212.254 302.152, 1209.345 308.697, 1207.070 313.827 C 1201.862 325.565, 1197.943 342.905, 1196.972 358.500 C 1196.561 365.100, 1195.477 372.975, 1194.564 376 C 1193.157 380.660, 1192.962 385.318, 1193.282 406.500 L 1193.661 431.500 1196.880 440 C 1198.650 444.675, 1200.918 450.765, 1201.921 453.533 C 1202.923 456.302, 1204.926 461.153, 1206.372 464.313 C 1207.817 467.473, 1209.002 470.608, 1209.005 471.280 C 1209.008 471.951, 1210.773 474.750, 1212.928 477.500 C 1215.083 480.250, 1217.796 484.230, 1218.956 486.344 C 1220.116 488.458, 1222.963 492.199, 1225.283 494.656 C 1227.602 497.114, 1229.885 499.885, 1230.355 500.813 C 1233.173 506.374, 1253.160 520.337, 1263.725 524.126 C 1271.319 526.850, 1290.456 526.271, 1298.500 523.074 C 1319.797 514.612, 1340.090 497.354, 1354.288 475.630 C 1371.616 449.118, 1375.886 429.315, 1369.951 403 C 1368.773 397.775, 1367.400 391.509, 1366.902 389.076 C 1366.403 386.643, 1365.322 383.908, 1364.498 382.998 C 1363.674 382.087, 1363 380.584, 1363 379.658 C 1363 378.731, 1362.603 377.191, 1362.118 376.236 C 1361.633 375.281, 1360.705 372.250, 1360.056 369.500 C 1358.180 361.556, 1350.465 350.164, 1337.923 336.819 C 1323.078 321.021, 1320.330 317.796, 1315.500 310.500 C 1306.333 296.652, 1289.649 284.424, 1272.500 278.984 C 1263.300 276.066, 1246.835 275.356, 1239.024 277.542" stroke="#aa444d" fill="#aa444d" fill-opacity="0.2" fill-rule="evenodd"/>
    </svg>