<svg xmlns="http://www.w3.org/2000/svg" width="1921" height="1027" viewBox="0 0 1921 1027" version="1.1">
    <path class="svg-region-SB" d="M 911 185.931 C 897.711 187.307, 879.497 192.770, 877.517 195.973 C 877.177 196.523, 874.516 197.666, 871.604 198.513 C 862.433 201.179, 854.506 206.874, 847.960 215.500 C 845.873 218.250, 841.651 223.183, 838.576 226.463 C 835.502 229.743, 831.815 234.693, 830.384 237.463 C 828.952 240.233, 826.769 243.850, 825.532 245.500 C 824.295 247.150, 822.034 250.975, 820.507 254 C 818.980 257.025, 816.916 260.541, 815.921 261.813 C 814.926 263.086, 812.287 269.725, 810.056 276.567 C 806.076 288.774, 806 289.277, 806 303.454 C 806 318.184, 807.063 326.145, 809.746 331.500 C 812.499 336.995, 817.708 342.463, 823.510 345.948 C 828.638 349.028, 830.187 349.441, 838.028 349.816 C 845.871 350.191, 847.412 349.958, 852.491 347.633 C 859.256 344.536, 863.600 341.087, 867 336.115 C 870.094 331.589, 883.275 318.345, 888 315.014 C 892.851 311.594, 896.865 307.967, 907.658 297.250 L 916.974 288 922.237 288.002 C 925.132 288.004, 933.800 289.008, 941.500 290.234 C 963.816 293.787, 981.126 292.934, 991.389 287.773 C 1002.453 282.210, 1011.781 267.119, 1012.703 253.291 C 1013.739 237.780, 1007.345 219.416, 997.789 210.450 C 991.282 204.344, 979.284 194.678, 976.262 193.106 C 973.331 191.582, 962.932 188.471, 956 187.044 C 949.022 185.607, 920.856 184.911, 911 185.931" stroke="#d2e400" fill="#d2e400" fill-opacity="0.2" fill-rule="evenodd"/><path class="svg-region-Ol" d="M 610.500 285.563 C 606.650 286.274, 601.680 287.059, 599.455 287.307 C 593.652 287.955, 582.989 293.558, 576 299.632 C 571.642 303.420, 552.840 315.485, 543.500 320.487 C 538.550 323.138, 531.350 327.421, 527.500 330.006 C 523.650 332.591, 518.065 336.163, 515.088 337.943 C 512.112 339.724, 509.127 341.702, 508.456 342.340 C 507.784 342.978, 505.270 345.059, 502.867 346.965 C 500.465 348.871, 490.709 358.096, 481.187 367.465 C 467.706 380.730, 462.810 386.271, 459.070 392.500 C 445.629 414.882, 441.252 429.164, 443.888 442.033 C 444.504 445.040, 445.454 452.900, 445.999 459.500 C 447.021 471.876, 448.043 476.212, 452.360 486.500 C 455.962 495.084, 464.219 510.245, 466.801 513.017 C 468.010 514.315, 469.011 515.855, 469.025 516.439 C 469.107 519.857, 489.044 539.651, 498.623 545.823 C 506.146 550.671, 524.162 557.767, 539.500 561.923 C 546.100 563.711, 553.525 565.836, 556 566.644 C 562.167 568.659, 578.017 571, 585.488 571 C 592.941 571, 613.168 567.481, 616.947 565.528 C 618.444 564.753, 621.881 562.404, 624.584 560.306 C 627.288 558.208, 630.751 555.848, 632.280 555.061 C 636.132 553.078, 650.838 537.047, 656.421 528.746 C 662.145 520.234, 668 503.307, 668 495.272 C 668 493.428, 668.951 490.056, 670.114 487.777 C 671.276 485.498, 673.337 480.679, 674.694 477.067 C 676.050 473.455, 679.374 466.072, 682.080 460.659 C 684.786 455.247, 687 450.017, 687 449.037 C 687 448.057, 688.068 443.935, 689.373 439.878 C 690.678 435.820, 692.759 426.650, 693.997 419.500 C 696.069 407.531, 696.207 404.359, 695.734 379.500 C 695.262 354.686, 695.013 351.708, 692.660 342.716 C 689.641 331.187, 684.451 321.524, 674.907 309.664 C 663.086 294.976, 655.487 289.432, 642.562 286.067 C 633.474 283.701, 621.593 283.514, 610.500 285.563" stroke="#aa444d" fill="#aa444d" fill-opacity="0.2" fill-rule="evenodd"/><path class="svg-region-Or" d="M 1220 240.874 C 1209.676 243.139, 1200.872 249.872, 1191.190 262.908 C 1185.777 270.196, 1182 278.063, 1182 282.051 C 1182 283.167, 1181.158 285.749, 1180.130 287.790 C 1179.031 289.970, 1178.050 294.593, 1177.752 299 C 1177.448 303.506, 1176.380 308.471, 1175.079 311.436 C 1173.338 315.400, 1173.121 316.878, 1173.976 318.942 C 1174.718 320.733, 1174.729 323.154, 1174.014 326.925 C 1173.450 329.902, 1172.764 346.164, 1172.490 363.062 C 1172.077 388.585, 1172.261 395.116, 1173.578 401.643 C 1177.761 422.372, 1178.283 424.359, 1182.932 437.225 C 1184.069 440.374, 1185 444.914, 1185 447.315 C 1185 452.175, 1188.415 466.591, 1190.027 468.533 C 1190.597 469.219, 1191.162 471.293, 1191.282 473.141 C 1191.402 474.988, 1192.053 476.950, 1192.728 477.500 C 1193.404 478.050, 1195.057 481.553, 1196.401 485.284 C 1199.685 494.395, 1200.831 496.039, 1212.997 509.096 C 1232.324 529.837, 1253.614 541.017, 1279.937 544.248 C 1293.782 545.947, 1304.312 542.820, 1308.475 535.773 C 1309.371 534.256, 1317.563 526.825, 1326.680 519.258 C 1346.411 502.882, 1349.131 500.340, 1352.288 495.327 C 1357.731 486.684, 1367.957 448.374, 1370.526 427 C 1371.806 416.351, 1372.003 399.412, 1370.939 391.500 C 1369.635 381.810, 1365.471 366.431, 1363.222 363 C 1362.320 361.625, 1361.292 357.755, 1360.936 354.399 C 1360.580 351.043, 1359.296 346.318, 1358.082 343.899 C 1356.029 339.806, 1349.684 332, 1348.411 332 C 1346.982 332, 1335.374 322.209, 1326.827 313.795 C 1320.759 307.822, 1315.652 301.640, 1312.537 296.500 C 1302.974 280.718, 1297.021 272.410, 1291.307 266.872 C 1282.911 258.734, 1270.202 250.470, 1262.267 247.988 C 1241.693 241.554, 1227.664 239.192, 1220 240.874" stroke="#aa444d" fill="#aa444d" fill-opacity="0.2" fill-rule="evenodd"/>
    </svg>