<svg xmlns="http://www.w3.org/2000/svg" width="1921" height="1027" viewBox="0 0 1921 1027" version="1.1">
    <path class="svg-region-SB" d="M 903.500 183.569 C 899.650 184.325, 894.475 185.460, 892 186.091 C 889.525 186.723, 884.680 187.855, 881.234 188.608 C 874.230 190.137, 869.117 192.511, 861 198.002 C 857.975 200.049, 853.067 202.954, 850.093 204.458 C 843.116 207.987, 835.023 216.524, 830.505 225.123 C 828.539 228.864, 826.496 232.193, 825.965 232.522 C 825.434 232.850, 825 233.907, 825 234.872 C 825 236.494, 817.539 249.868, 816.002 251 C 815.629 251.275, 814.094 254.875, 812.592 259 C 811.089 263.125, 809.020 268.300, 807.995 270.500 C 805.086 276.741, 802.702 292.294, 802.629 305.500 C 802.566 316.964, 802.704 317.801, 805.738 324.246 C 809.025 331.231, 816.514 340.180, 821.022 342.512 C 827.384 345.801, 846.237 344.229, 852.800 339.861 C 855.165 338.288, 857.350 337, 857.656 337 C 859.748 337, 876.511 321.538, 894.719 302.814 C 900.878 296.482, 905.149 292.907, 907.058 292.487 C 908.663 292.135, 910.234 291.431, 910.548 290.923 C 911.321 289.672, 920 289.742, 920 291 C 920 291.550, 922.112 292, 924.692 292 C 927.273 292, 933.485 292.732, 938.497 293.628 C 946.985 295.144, 948.257 295.138, 957.055 293.550 C 970.195 291.178, 977.657 287.732, 984.917 280.684 C 988.211 277.485, 991.206 273.885, 991.571 272.684 C 991.936 271.483, 993.245 268.250, 994.480 265.500 C 997.949 257.774, 1000 248.138, 1000 239.570 L 1000 231.767 993.480 221.282 C 985.975 209.212, 978.226 199.905, 973.079 196.777 C 971.111 195.581, 967.925 193.363, 966 191.847 C 960.963 187.881, 953.791 184.971, 945.508 183.532 C 935.762 181.840, 912.198 181.860, 903.500 183.569" stroke="#d2e400" fill="#d2e400" fill-opacity="0.2" fill-rule="evenodd"/><path class="svg-region-Ol" d="M 608 268.028 C 603.325 269.060, 598.375 269.926, 597 269.954 C 595.625 269.981, 590.675 272.309, 586 275.126 C 581.325 277.943, 575.700 280.885, 573.500 281.663 C 571.300 282.441, 567.919 284.121, 565.987 285.396 C 564.055 286.672, 561.355 288.056, 559.987 288.472 C 558.619 288.889, 556.600 290.017, 555.500 290.979 C 554.400 291.940, 549.556 294.854, 544.735 297.453 C 539.914 300.052, 534.964 303.026, 533.735 304.061 C 528.565 308.417, 522.806 312.685, 518.388 315.435 C 515.795 317.049, 509.584 322.245, 504.586 326.981 C 499.589 331.718, 492.923 337.990, 489.773 340.920 C 482.310 347.862, 470.116 367.703, 465.810 379.913 C 458.572 400.435, 456.085 413.822, 456.032 432.564 C 456.003 442.418, 457.892 461.202, 459.595 468 C 464.806 488.808, 471.513 503.225, 483.886 520.217 C 501.533 544.451, 521.543 560.384, 542.893 567.203 C 548.177 568.891, 554.300 571.182, 556.500 572.295 C 568.407 578.318, 586.708 580.393, 602 577.453 C 606.125 576.660, 612.200 575.530, 615.500 574.944 C 628.032 572.715, 635.387 568.475, 647.565 556.462 C 652.138 551.949, 654.947 547.905, 658.676 540.462 C 661.421 534.983, 666.058 526.245, 668.982 521.045 C 676.614 507.471, 678.689 502.521, 680.528 493.500 C 681.425 489.100, 683.210 482.125, 684.495 478 C 687.740 467.582, 689.665 454.445, 692.484 423.500 C 693.236 415.250, 694.784 404.063, 695.925 398.640 C 698.245 387.615, 698.721 369.668, 696.929 360.799 C 694.869 350.606, 690.905 340.261, 686.471 333.510 C 683.562 329.081, 682 325.602, 682 323.552 C 682 321.818, 681.517 319.917, 680.926 319.326 C 680.335 318.735, 677.706 313.540, 675.083 307.782 C 672.460 302.023, 668.688 294.879, 666.701 291.906 C 660.967 283.326, 651.675 273.684, 646.375 270.814 C 637.064 265.771, 622.894 264.742, 608 268.028" stroke="#aa444d" fill="#aa444d" fill-opacity="0.2" fill-rule="evenodd"/><path class="svg-region-Or" d="M 1226.500 261.166 C 1210.285 262.330, 1195.711 268.266, 1184.472 278.283 C 1177.263 284.708, 1172.604 294.108, 1168.010 311.500 C 1166.266 318.100, 1164.094 325.525, 1163.183 328 C 1161.224 333.323, 1161.152 345.323, 1162.832 386.500 C 1164.160 419.055, 1165.010 427.458, 1168.295 440.500 C 1173.262 460.220, 1174.159 462.716, 1182.061 478.806 C 1186.466 487.774, 1190.982 497.550, 1192.097 500.530 C 1194.550 507.085, 1201.011 516.078, 1207.167 521.503 C 1209.661 523.702, 1214.431 528.875, 1217.768 533 C 1226.259 543.499, 1232.650 549.447, 1238.658 552.442 C 1249.780 557.985, 1274.171 560.477, 1287.889 557.471 C 1302.162 554.343, 1317.614 545.542, 1330.377 533.269 C 1337.533 526.389, 1348.482 511.084, 1351.676 503.500 C 1355.059 495.463, 1360.934 478.938, 1362.450 473.191 C 1363.219 470.274, 1364.284 467.350, 1364.816 466.694 C 1365.348 466.037, 1366.331 462.830, 1367 459.567 C 1367.670 456.304, 1368.889 451.804, 1369.709 449.567 C 1374.858 435.532, 1376.170 418.882, 1373.538 401 C 1372.254 392.275, 1368.849 379.912, 1367.065 377.500 C 1366.659 376.950, 1365.272 373.575, 1363.985 370 C 1360.837 361.262, 1343.970 329.985, 1339.987 325.500 C 1339.010 324.400, 1337.370 321.905, 1336.342 319.956 C 1330.332 308.559, 1311.084 287.369, 1297.681 277.395 C 1278.374 263.027, 1259.747 258.780, 1226.500 261.166" stroke="#aa444d" fill="#aa444d" fill-opacity="0.2" fill-rule="evenodd"/>
    </svg>