<svg xmlns="http://www.w3.org/2000/svg" width="1921" height="1027" viewBox="0 0 1921 1027" version="1.1">
    <path class="svg-region-SB" d="M 913.500 204 C 911.300 204.486, 907.300 204.911, 904.611 204.942 C 899.410 205.004, 883.131 209.641, 874.110 213.630 C 866.820 216.854, 855.488 224.305, 850.167 229.373 C 844.296 234.966, 834.697 248.366, 831.687 255.173 C 830.332 258.237, 828.735 261.046, 828.139 261.414 C 827.542 261.783, 826.169 264.952, 825.086 268.457 C 824.003 271.962, 821.444 278.024, 819.399 281.928 C 815.923 288.564, 815.683 289.594, 815.707 297.763 C 815.722 302.661, 816.451 309.119, 817.367 312.460 C 818.265 315.738, 819 319.725, 819 321.320 C 819 322.915, 820.449 326.938, 822.219 330.260 C 830.021 344.898, 848.885 352.041, 863.925 346.052 C 869.645 343.774, 874.652 340.197, 881.698 333.355 C 885.718 329.453, 889.334 326.874, 898.973 321.036 C 901.211 319.681, 905.103 315.947, 907.623 312.740 L 912.205 306.908 916.852 307.704 C 919.409 308.142, 927.800 308.454, 935.500 308.398 C 948.888 308.300, 949.828 308.156, 957 305.110 C 965.415 301.536, 968.531 299.084, 975.335 290.683 C 984.127 279.827, 988.959 271.590, 990.074 265.557 C 993.013 249.660, 987.191 230.588, 976.449 220.924 C 974.967 219.591, 972.788 217.533, 971.607 216.351 C 970.425 215.169, 966.452 212.186, 962.778 209.723 C 957.189 205.975, 955.070 205.146, 949.799 204.648 C 937.507 203.486, 917.442 203.127, 913.500 204" stroke="#d2e400" fill="#d2e400" fill-opacity="0.2" fill-rule="evenodd"/><path class="svg-region-Ol" d="M 636.953 248.556 C 636.294 249.350, 634.927 250, 633.915 250 C 630.353 250, 620.961 254.180, 615.786 258.068 C 612.909 260.231, 610.028 262, 609.385 262 C 608.184 262, 591.788 272.011, 589.036 274.424 C 586.790 276.395, 578.899 280.218, 559.803 288.587 C 537.827 298.217, 526.803 303.556, 520 307.864 C 514.346 311.444, 503.942 321.470, 496 330.992 C 493.525 333.960, 488.640 339.788, 485.144 343.944 C 475.417 355.506, 465.786 375.529, 456.738 403 L 452.621 415.500 452.224 435.575 C 451.833 455.355, 451.873 455.833, 454.942 468.075 C 459.280 485.377, 462.760 496.636, 465.588 502.514 C 467.043 505.540, 468 509.323, 468 512.054 C 468 518.882, 470.552 527.470, 475.650 537.801 C 480.269 547.162, 486.247 554.131, 501.553 568 C 504.285 570.475, 508.765 575.348, 511.510 578.828 C 522.379 592.612, 530.026 598.377, 541.724 601.606 C 561.989 607.201, 566.275 607.277, 588.291 602.435 C 611.510 597.329, 623.854 592.007, 640 580.141 C 647.666 574.508, 667.486 555.155, 676.545 544.458 C 689.189 529.528, 704.112 503.654, 706.473 492.567 C 707.184 489.230, 708.486 484.700, 709.366 482.500 C 710.247 480.300, 711.643 474.225, 712.468 469 C 713.294 463.775, 714.382 457.475, 714.886 455 C 715.390 452.525, 716.533 443.075, 717.424 434 C 718.316 424.925, 719.749 413.675, 720.608 409 C 721.818 402.414, 722.088 395.321, 721.805 377.500 C 721.453 355.305, 721.344 354.238, 718.675 347 C 717.154 342.875, 715.463 337.475, 714.916 335 C 712.846 325.625, 711.596 321.166, 707.909 310 C 700.019 286.110, 697.302 280.383, 689.660 271.531 C 687.003 268.454, 682.455 264.143, 679.553 261.952 C 673.739 257.562, 658.989 251.822, 648.814 249.988 C 645.341 249.362, 641.522 248.459, 640.326 247.981 C 638.796 247.369, 637.797 247.540, 636.953 248.556" stroke="#aa444d" fill="#aa444d" fill-opacity="0.2" fill-rule="evenodd"/><path class="svg-region-Or" d="M 1205.024 221.539 C 1197.254 223.718, 1191.848 227.181, 1186.843 233.185 C 1184.454 236.051, 1179.609 241.119, 1176.077 244.448 C 1165.531 254.384, 1154.769 265.224, 1150.343 270.366 L 1146.185 275.197 1145.448 286.848 C 1144.410 303.276, 1145.606 376.223, 1147.025 383 C 1147.658 386.025, 1149.997 394.350, 1152.222 401.500 C 1156.342 414.737, 1159.660 428.238, 1164.512 451.500 C 1168.498 470.614, 1170.667 477.436, 1176.108 487.982 C 1178.799 493.197, 1181 497.998, 1181 498.651 C 1181 499.304, 1181.662 501.112, 1182.471 502.669 C 1183.281 504.226, 1185.306 508.425, 1186.973 512 C 1189.683 517.816, 1192.635 522.104, 1203.734 536.349 C 1205.513 538.632, 1208.112 542.646, 1209.511 545.270 C 1211.924 549.797, 1230.076 568.399, 1235.857 572.270 C 1237.311 573.243, 1241.650 574.993, 1245.500 576.158 C 1249.350 577.324, 1252.968 578.641, 1253.539 579.086 C 1254.705 579.994, 1260.769 581.615, 1269 583.219 C 1274.390 584.270, 1289.311 583.335, 1305.427 580.936 C 1317.200 579.184, 1331.576 570.042, 1341.280 558.137 C 1363.181 531.268, 1373.563 511.135, 1377.450 488 C 1378.986 478.856, 1380.775 453.419, 1380.967 438 C 1381.093 427.897, 1378.724 400.403, 1377.034 392.337 C 1374.417 379.854, 1366.530 354.102, 1363.454 348 C 1362.207 345.525, 1358.203 337.509, 1354.557 330.186 C 1337.668 296.266, 1318.823 276.097, 1288.500 259.489 C 1262.754 245.387, 1254.147 239.701, 1244.281 230.276 C 1240.715 226.869, 1237.093 224.573, 1232.843 223.023 C 1224.794 220.088, 1212.528 219.434, 1205.024 221.539" stroke="#aa444d" fill="#aa444d" fill-opacity="0.2" fill-rule="evenodd"/>
    </svg>