<svg xmlns="http://www.w3.org/2000/svg" width="1921" height="1027" viewBox="0 0 1921 1027" version="1.1">
    <path class="svg-region-SB" d="M 906.135 228.502 C 904.285 229.326, 901.638 230, 900.254 230 C 896.271 230, 882.192 238.018, 876.547 243.500 C 869.385 250.456, 859.529 261.380, 852.531 270.118 C 849.280 274.178, 845.146 279.078, 843.345 281.006 C 841.544 282.935, 838.254 288.021, 836.035 292.310 C 830.862 302.306, 830.603 308.606, 834.865 320.782 C 837.713 328.918, 844.141 338.080, 849.435 341.549 C 856.557 346.216, 872.111 349.203, 878.213 347.076 C 879.955 346.468, 887.040 342.638, 893.957 338.563 C 900.873 334.489, 907.650 330.872, 909.016 330.525 C 910.382 330.178, 913.975 328.122, 917 325.956 C 920.025 323.789, 925.489 320.457, 929.142 318.550 C 941.262 312.225, 959.928 291.321, 959.994 284 C 960.001 283.175, 960.906 281.027, 962.004 279.226 C 963.640 276.543, 964 274.185, 964 266.167 C 964 256.734, 963.872 256.169, 960.442 250.441 C 955.953 242.944, 946.859 233.644, 942.126 231.711 C 932.878 227.932, 911.664 226.041, 906.135 228.502" stroke="#d2e400" fill="#d2e400" fill-opacity="0.2" fill-rule="evenodd"/><path class="svg-region-Ol" d="M 648.500 253.696 C 643.743 254.239, 624.345 257.822, 614.500 259.975 C 609.550 261.058, 602.125 262.441, 598 263.049 C 593.875 263.656, 586.675 265.020, 582 266.078 C 577.325 267.137, 572.375 268.007, 571 268.013 C 567.498 268.028, 559.011 270.457, 546.500 275.025 C 545.400 275.426, 540.714 277.660, 536.086 279.990 C 519.343 288.416, 505.280 301.351, 485.173 326.819 C 477.653 336.345, 470.183 346.245, 468.574 348.819 C 463.407 357.086, 453.423 378.269, 451.050 386 C 449.784 390.125, 448.344 394.400, 447.849 395.500 C 447.022 397.337, 445.728 403.964, 441.403 428.500 C 440.113 435.814, 439.904 442.838, 440.287 466 C 440.545 481.675, 441.277 497.200, 441.912 500.500 C 451.255 549.047, 455.058 563.091, 463.165 579 C 471.913 596.166, 495.944 623.408, 510.145 632.260 C 515.082 635.337, 524.468 638.050, 534.158 639.200 C 548.290 640.877, 562.861 639.161, 587 632.977 C 602.170 629.091, 614.592 623.025, 626.424 613.727 C 630.782 610.302, 642.972 598.946, 653.512 588.492 C 670.605 571.537, 672.909 568.859, 674.838 563.704 C 676.027 560.526, 677 557.498, 677 556.976 C 677 556.454, 679.425 550.885, 682.389 544.601 C 685.353 538.317, 688.768 530.099, 689.978 526.338 C 691.188 522.577, 692.812 518.082, 693.589 516.349 C 694.365 514.616, 695.002 512.816, 695.003 512.349 C 695.007 511.435, 700.126 498.519, 702.533 493.349 C 703.340 491.616, 704 489.291, 704 488.182 C 704 487.073, 704.831 484.216, 705.846 481.833 C 706.861 479.450, 709.395 471.650, 711.476 464.500 C 713.558 457.350, 716.291 448.800, 717.550 445.500 C 720.534 437.676, 723.162 427.543, 723.537 422.412 C 723.928 417.058, 725.787 410.249, 727.076 409.453 C 727.759 409.031, 727.766 408.423, 727.095 407.615 C 726.415 406.795, 726.585 404.982, 727.625 401.962 C 728.612 399.097, 729.129 394.136, 729.079 388.008 C 729.036 382.779, 729.266 375.665, 729.592 372.200 C 730.193 365.787, 728.600 350.067, 727.245 349.056 C 726.835 348.750, 726.413 345.907, 726.307 342.739 C 726.081 336.004, 722.940 325.969, 718.408 317.500 C 716.642 314.200, 714.153 308.575, 712.876 305 C 708.972 294.068, 696.364 269.409, 692.483 265.113 C 690.467 262.881, 687.621 260.451, 686.159 259.712 C 684.696 258.973, 682.600 257.883, 681.500 257.291 C 676.344 254.513, 658.429 252.562, 648.500 253.696" stroke="#aa444d" fill="#aa444d" fill-opacity="0.2" fill-rule="evenodd"/><path class="svg-region-Or" d="M 1209.500 227 C 1209.160 227.550, 1207.335 228, 1205.444 228 C 1202.919 228, 1200.977 228.930, 1198.132 231.500 C 1196.001 233.425, 1193.971 235, 1193.620 235 C 1192.175 235, 1182.184 244.628, 1177 251.016 C 1175.075 253.388, 1173.042 255.818, 1172.483 256.415 C 1170.546 258.480, 1164 268.008, 1164 268.760 C 1164 269.667, 1159.444 278.490, 1157.163 282 C 1155.150 285.098, 1153.035 290.885, 1153.015 293.349 C 1153.007 294.366, 1152.374 296.616, 1151.609 298.349 C 1148.298 305.847, 1147.136 314.403, 1146.384 336.833 C 1145.942 350.005, 1146.163 354.649, 1147.527 360.833 C 1148.457 365.050, 1149.630 369.010, 1150.134 369.633 C 1150.728 370.367, 1150.521 370.970, 1149.547 371.344 C 1148.339 371.807, 1148.136 373.317, 1148.516 379.016 C 1148.776 382.918, 1149.441 386.956, 1149.994 387.990 C 1150.548 389.023, 1151.009 393.836, 1151.020 398.684 C 1151.038 407.041, 1152.745 425.120, 1154.969 440.500 C 1155.525 444.350, 1156.697 453.800, 1157.573 461.500 C 1159.196 475.773, 1160.165 481.322, 1163.922 497.845 C 1166.274 508.186, 1167.757 511.584, 1172.506 517.500 C 1174.271 519.700, 1177.291 523.975, 1179.215 527 C 1181.140 530.025, 1186.042 536.107, 1190.107 540.516 C 1204.042 555.624, 1213.333 568.105, 1224 586.044 C 1228.707 593.959, 1235.966 600.571, 1243.500 603.804 C 1247.350 605.456, 1252.075 607.274, 1254 607.843 C 1255.925 608.412, 1259.525 609.637, 1262 610.566 C 1268.950 613.174, 1287.468 615.954, 1298 615.971 C 1309.252 615.989, 1322.303 613.175, 1328.980 609.292 C 1348.607 597.877, 1368.842 577.106, 1377.975 559 C 1384.918 545.236, 1388.634 522.859, 1388.934 493 C 1389.009 485.575, 1389.704 472.075, 1390.479 463 C 1392.503 439.279, 1393.304 408.004, 1392.155 397.492 C 1390.840 385.452, 1385.689 371.614, 1374.736 350.702 C 1373.355 348.064, 1371.552 345.139, 1370.731 344.202 C 1369.910 343.266, 1367.898 339.769, 1366.260 336.431 C 1364.622 333.093, 1361.032 327.018, 1358.283 322.931 C 1355.534 318.844, 1350.433 310.775, 1346.948 305 C 1338.395 290.826, 1330.237 279.501, 1324.367 273.649 C 1319.831 269.128, 1307.432 259.808, 1300.515 255.718 C 1295.425 252.709, 1275.044 243, 1273.818 243 C 1273.182 243, 1270.270 241.650, 1267.346 240 C 1264.422 238.350, 1261.536 237, 1260.933 237 C 1260.329 237, 1256.670 235.611, 1252.802 233.913 C 1242.100 229.216, 1228.132 226, 1218.431 226 C 1213.859 226, 1209.840 226.450, 1209.500 227" stroke="#aa444d" fill="#aa444d" fill-opacity="0.2" fill-rule="evenodd"/>
    </svg>