<svg xmlns="http://www.w3.org/2000/svg" width="1921" height="1027" viewBox="0 0 1921 1027" version="1.1">
    <path class="svg-region-Ol" d="M 642.496 244.322 C 634.980 246.534, 619.494 254.227, 616.711 257.132 C 615.727 258.160, 614.252 259, 613.433 259 C 612.613 259, 609.205 260.382, 605.858 262.072 C 598.501 265.786, 581.299 272.563, 576.774 273.531 C 574.973 273.916, 572.375 274.840, 571 275.585 C 569.625 276.330, 563.325 278.077, 557 279.467 C 532.648 284.819, 522.212 289.342, 503.921 302.469 C 498.779 306.160, 485 319.692, 485 321.052 C 485 321.402, 483.855 322.996, 482.455 324.594 C 476.852 330.992, 465.377 346.237, 463.404 349.903 C 462.251 352.046, 460.166 355.756, 458.770 358.149 C 449.781 373.557, 446.618 382.051, 442.626 401.500 C 437.735 425.325, 436.976 457.071, 439.922 514.500 C 441.782 550.756, 444.832 561.127, 459.385 580.695 C 468.124 592.444, 479.604 603.059, 494.500 613.162 C 513.157 625.816, 531.706 632, 551.006 632 C 556.918 632, 565.072 631.316, 569.127 630.479 C 584.176 627.374, 586.600 626.789, 591 625.200 C 596.084 623.364, 610.805 612.740, 618.864 605.091 C 621.814 602.291, 624.626 600, 625.114 600 C 625.601 600, 626 599.550, 626 599 C 626 596.671, 642.027 582.228, 656.500 571.516 C 663.825 566.095, 670.345 560.045, 675.500 553.888 C 680.564 547.839, 687 535.956, 687 532.654 C 687 531.259, 687.391 529.876, 687.869 529.581 C 688.346 529.286, 689.027 527.234, 689.380 525.022 C 689.734 522.810, 690.401 521, 690.862 521 C 692.052 521, 694.772 508.496, 696.518 495 C 697.337 488.675, 699.360 479, 701.015 473.500 C 702.670 468, 704.695 460.190, 705.515 456.144 C 706.336 452.098, 707.970 445.573, 709.148 441.644 C 711.170 434.899, 712.040 432.700, 717.519 420.500 C 718.754 417.750, 720.959 411.225, 722.419 406 C 723.879 400.775, 726.390 392.225, 728 387 C 735.123 363.872, 736.662 347.959, 733.508 330.035 C 731.395 318.030, 720.711 296.699, 712.453 288 C 710.626 286.075, 708.137 281.800, 706.922 278.500 C 705.083 273.503, 703.108 270.899, 695.107 262.921 C 686.658 254.496, 681.253 250.316, 672 245.048 C 668.744 243.194, 648.058 242.685, 642.496 244.322" stroke="#aa444d" fill="#aa444d" fill-opacity="0.2" fill-rule="evenodd"/><path class="svg-region-Or" d="M 1201.525 214.814 C 1198.789 214.987, 1196.089 215.490, 1195.525 215.934 C 1194.961 216.377, 1192.813 217.283, 1190.750 217.947 C 1188.688 218.612, 1187 219.487, 1187 219.893 C 1187 220.299, 1185.257 221.611, 1183.127 222.809 C 1174.455 227.683, 1150.754 257.096, 1149.382 264.688 C 1149.102 266.235, 1148.054 268.400, 1147.052 269.500 C 1145.971 270.687, 1145.004 273.736, 1144.673 277 C 1144.366 280.025, 1143.338 284.975, 1142.390 288 C 1141.441 291.025, 1140.499 296.650, 1140.296 300.500 C 1140.093 304.350, 1139.510 308.400, 1139 309.500 C 1138.491 310.600, 1137.865 313.627, 1137.610 316.227 C 1137.355 318.826, 1136.881 321.383, 1136.557 321.908 C 1136.233 322.432, 1136.410 323.136, 1136.952 323.470 C 1137.493 323.805, 1137.880 325.565, 1137.812 327.382 C 1137.744 329.199, 1138.010 331.206, 1138.403 331.843 C 1138.796 332.479, 1138.615 333, 1138 333 C 1137.374 333, 1137.214 333.538, 1137.637 334.222 C 1138.053 334.894, 1138.270 337.144, 1138.120 339.222 C 1137.970 341.300, 1138.235 343, 1138.710 343 C 1139.185 343, 1139.672 347.837, 1139.792 353.750 C 1140.214 374.392, 1144.799 413.203, 1148.033 423.500 C 1149.069 426.800, 1150.160 431.525, 1150.457 434 C 1151.592 443.445, 1154.071 459.946, 1156.017 471 C 1157.130 477.325, 1158.509 485.197, 1159.082 488.494 C 1159.654 491.791, 1161.032 496.516, 1162.145 498.994 C 1163.257 501.472, 1164.512 507.163, 1164.934 511.640 C 1165.589 518.604, 1166.299 520.819, 1169.850 526.978 C 1172.133 530.937, 1174 534.638, 1174 535.204 C 1174 536.867, 1186.075 550, 1187.603 550 C 1188.371 550, 1189 550.700, 1189 551.556 C 1189 552.411, 1191.879 555.899, 1195.397 559.306 C 1198.916 562.713, 1205.333 568.925, 1209.656 573.112 C 1213.980 577.299, 1221.339 583.262, 1226.009 586.364 C 1230.679 589.466, 1235.625 592.790, 1237 593.752 C 1238.375 594.713, 1241.075 596.571, 1243 597.880 C 1244.925 599.189, 1249.425 602.800, 1253 605.905 C 1270.471 621.076, 1272.763 622.478, 1289.807 628.412 C 1299.682 631.849, 1300.686 632, 1313.736 632 C 1321.780 632, 1328.820 631.503, 1330.929 630.787 C 1337.081 628.698, 1345.006 622.905, 1350.123 616.756 C 1360.126 604.736, 1369.515 589.005, 1367.156 588.219 C 1366.093 587.864, 1371.297 576.552, 1373.010 575.494 C 1374.469 574.592, 1375.823 571.064, 1377.996 562.500 C 1378.973 558.650, 1380.682 553.025, 1381.795 550 C 1388.278 532.370, 1392.592 491.796, 1391.576 458 C 1390.779 431.509, 1389.621 419.128, 1385.403 392 C 1383.900 382.335, 1372.550 336.151, 1370.535 331.500 C 1369.820 329.850, 1368.652 326.925, 1367.940 325 C 1366.279 320.510, 1357.942 303.521, 1355.244 299.128 C 1351.989 293.828, 1344.014 284.160, 1338 278.225 C 1319.291 259.760, 1313.970 254.977, 1309.500 252.601 C 1306.750 251.139, 1302.700 248.916, 1300.500 247.660 C 1290.335 241.859, 1282.125 237.720, 1278 236.316 C 1275.525 235.474, 1271.250 233.770, 1268.500 232.530 C 1265.750 231.289, 1262.023 229.702, 1260.217 229.002 C 1258.411 228.303, 1254.586 226.318, 1251.717 224.592 C 1242.176 218.854, 1236.824 217.119, 1224.888 215.897 C 1211.655 214.541, 1208.306 214.386, 1201.525 214.814" stroke="#aa444d" fill="#aa444d" fill-opacity="0.2" fill-rule="evenodd"/>
    </svg>