<svg xmlns="http://www.w3.org/2000/svg" width="1921" height="1027" viewBox="0 0 1921 1027" version="1.1">
    <path class="svg-region-Ol" d="M 632 246.639 C 617.341 248.786, 613.687 249.501, 608.500 251.234 C 602.786 253.143, 600.127 254.189, 592.750 257.427 C 590.962 258.211, 586.125 260.038, 582 261.487 C 577.875 262.935, 573.503 264.768, 572.285 265.560 C 571.067 266.352, 569.110 267, 567.936 267 C 566.763 267, 564.384 267.659, 562.651 268.464 C 560.918 269.269, 555.225 271.343, 550 273.073 C 544.775 274.803, 539.600 276.717, 538.500 277.327 C 537.400 277.937, 534.683 279.126, 532.462 279.968 C 510.950 288.128, 484.813 308.836, 465.523 333 C 460.092 339.803, 449 356.762, 449 358.262 C 449 358.741, 447.915 360.566, 446.589 362.317 C 442.976 367.088, 427.209 402.090, 425.467 409.209 C 425.102 410.699, 424.173 412.442, 423.402 413.081 C 422.631 413.721, 422 414.873, 422 415.641 C 422 416.408, 420.392 420.966, 418.427 425.768 C 406.423 455.100, 402.342 468.326, 401.073 482 C 399.787 495.867, 399.703 504, 400.844 504 C 401.309 504, 401.986 510.188, 402.349 517.750 C 403.010 531.516, 404.434 541.260, 407.427 552.500 C 409.113 558.827, 409.292 559.297, 413.363 568 C 416.182 574.029, 430.276 591, 432.464 591 C 433.216 591, 435.557 592.844, 437.666 595.097 C 441.854 599.573, 451.181 606.304, 454.750 607.427 C 455.988 607.816, 457 608.554, 457 609.067 C 457 609.580, 457.476 610, 458.057 610 C 458.639 610, 463.251 611.965, 468.307 614.367 C 473.363 616.769, 478.625 619.078, 480 619.498 C 481.375 619.917, 484.975 621.471, 488 622.949 C 491.025 624.428, 495.525 626.250, 498 626.999 C 500.475 627.748, 502.950 628.659, 503.500 629.025 C 504.050 629.391, 506.525 630.197, 509 630.818 C 521.117 633.856, 536.015 637.271, 540.500 638.039 C 543.250 638.509, 552.250 640.071, 560.500 641.508 C 572.990 643.685, 577.675 644.052, 588.500 643.706 L 601.500 643.290 610.500 638.553 C 619.183 633.983, 621.143 632.490, 630.583 623.250 C 632.971 620.913, 635.517 619, 636.240 619 C 637.775 619, 641.091 615.424, 640.294 614.627 C 639.996 614.329, 641.496 613.279, 643.626 612.293 C 645.757 611.307, 648.017 610.050, 648.649 609.500 C 649.281 608.950, 651.491 607.150, 653.560 605.500 C 658.852 601.281, 666.012 595.333, 669.229 592.487 C 670.729 591.159, 675.904 586.586, 680.729 582.325 C 685.553 578.065, 690.537 573.436, 691.804 572.039 C 697.778 565.455, 706 547.917, 706 541.756 C 706 540.103, 707.073 536.219, 708.384 533.125 C 709.783 529.825, 711.450 522.540, 712.417 515.500 C 713.323 508.900, 714.516 500.800, 715.067 497.500 C 716.632 488.128, 718.811 467.581, 718.328 466.758 C 718.088 466.350, 718.556 463.425, 719.368 460.258 C 720.179 457.091, 721.290 452.025, 721.837 449 C 722.384 445.975, 723.279 441.925, 723.826 440 C 724.373 438.075, 725.787 432.938, 726.968 428.584 C 728.149 424.230, 730.136 418.155, 731.385 415.084 C 736.558 402.363, 739.784 385.600, 738.510 378.059 C 738.096 375.608, 738.234 373.423, 738.850 372.681 C 739.545 371.844, 739.569 370.124, 738.923 367.466 C 738.393 365.285, 737.339 358.775, 736.581 353 C 735.132 341.966, 731.056 324.734, 729.761 324.167 C 729.342 323.983, 729 323.024, 729 322.036 C 729 320.148, 724.773 308.349, 722.549 304.026 C 719.753 298.595, 717 292.229, 717 291.197 C 717 290.601, 716.106 289.487, 715.013 288.722 C 713.920 287.956, 711.609 284.668, 709.877 281.415 C 708.145 278.162, 705.551 274.447, 704.114 273.160 C 702.676 271.873, 699.475 268.877, 697 266.502 C 692.034 261.738, 680.255 255.011, 672.500 252.511 C 669.750 251.625, 666.600 250.500, 665.500 250.011 C 662.104 248.504, 646.004 246.728, 641.427 247.355 C 638.996 247.688, 636.822 247.521, 636.484 246.975 C 636.153 246.439, 635.571 246.061, 635.191 246.136 C 634.811 246.211, 633.375 246.437, 632 246.639" stroke="#aa444d" fill="#aa444d" fill-opacity="0.2" fill-rule="evenodd"/><path class="svg-region-Or" d="M 1211.574 215.759 C 1211.242 216.091, 1208.604 216.254, 1205.713 216.120 C 1202.269 215.960, 1198.910 216.541, 1195.977 217.803 C 1190.085 220.339, 1164.649 244.855, 1158.894 253.546 C 1156.543 257.096, 1154.255 260, 1153.810 260 C 1153.364 260, 1153 260.459, 1153 261.020 C 1153 261.581, 1151.957 263.718, 1150.682 265.770 C 1149.408 267.821, 1146.851 273.325, 1145.002 278 C 1143.152 282.675, 1140.995 287.509, 1140.209 288.742 C 1139.423 289.976, 1139.068 291.734, 1139.419 292.649 C 1139.793 293.624, 1139.081 295.803, 1137.701 297.907 C 1134.760 302.390, 1133.146 313.327, 1132.597 332.500 C 1132.181 347.058, 1133.991 372.296, 1135.826 377.500 C 1136.408 379.150, 1137.326 386.125, 1137.867 393 C 1138.408 399.875, 1139.499 407.525, 1140.291 410 C 1144.911 424.431, 1146 428.229, 1146 429.899 C 1146 430.920, 1146.653 433.320, 1147.452 435.231 C 1148.251 437.142, 1149.871 443.159, 1151.054 448.603 C 1158.704 483.824, 1162.921 496.282, 1169.871 504.202 C 1171.463 506.016, 1174.413 510.499, 1176.428 514.165 C 1178.442 517.831, 1180.745 521.373, 1181.545 522.037 C 1182.345 522.701, 1183 523.839, 1183 524.564 C 1183 525.965, 1192.456 537.256, 1194.129 537.853 C 1194.673 538.047, 1197.468 540.522, 1200.341 543.353 C 1203.213 546.184, 1207.574 550.379, 1210.031 552.675 C 1212.489 554.971, 1216.603 559.246, 1219.173 562.175 C 1223.817 567.467, 1225.251 569.333, 1239.404 588.500 C 1253.815 608.017, 1261.237 611.787, 1297.442 617.979 C 1323.357 622.411, 1329.393 621.861, 1349 613.276 C 1369.209 604.427, 1376.600 600.243, 1381.264 595.009 C 1391.097 583.976, 1401.502 562.775, 1405.563 545.500 C 1410.101 526.188, 1410.450 522.290, 1410.437 491 C 1410.423 459.179, 1409.967 454.524, 1404.455 430 C 1403.652 426.425, 1402.996 422.632, 1402.997 421.571 C 1402.999 420.510, 1402.561 418.260, 1402.025 416.571 C 1401.489 414.882, 1400.100 408.550, 1398.938 402.500 C 1392.206 367.425, 1374.078 319.440, 1355.795 288.299 C 1350.242 278.840, 1334.055 261.787, 1324.500 255.329 C 1313.556 247.932, 1301.201 242.760, 1284.500 238.583 C 1275.084 236.228, 1267.827 233.393, 1258.306 228.349 C 1253.463 225.784, 1247.303 222.536, 1244.617 221.131 C 1241.159 219.323, 1237.802 218.484, 1233.117 218.256 C 1229.478 218.079, 1224.925 217.523, 1223 217.019 C 1217.897 215.684, 1212.270 215.064, 1211.574 215.759" stroke="#aa444d" fill="#aa444d" fill-opacity="0.2" fill-rule="evenodd"/>
    </svg>