<svg xmlns="http://www.w3.org/2000/svg" width="1921" height="1027" viewBox="0 0 1921 1027" version="1.1">
    <path class="svg-region-B" d="M 986 557.025 C 984.625 557.570, 982.434 559.581, 981.130 561.494 C 979.827 563.408, 977.014 566.667, 974.880 568.737 C 972.080 571.452, 970.437 574.310, 968.978 579 C 967.866 582.575, 966.474 586.850, 965.884 588.500 C 965.294 590.150, 964.374 595.100, 963.838 599.500 C 963.302 603.900, 962.625 609.394, 962.334 611.709 C 961.899 615.175, 961.022 616.561, 957.376 619.548 C 952.845 623.261, 945 634.029, 945 636.535 C 945 637.302, 943.933 639.858, 942.629 642.215 C 941.325 644.572, 939.757 649.425, 939.144 653 C 937.818 660.738, 938.557 675.331, 940.459 678.935 C 941.203 680.346, 942.549 683.590, 943.449 686.145 C 944.880 690.206, 945.701 691.055, 949.978 692.895 C 953.449 694.388, 956.967 695, 962.085 695 L 969.300 695 979.900 684 C 985.730 677.949, 991.773 671.190, 993.329 668.980 C 994.885 666.769, 998.501 663.462, 1001.364 661.630 C 1014.607 653.159, 1021.259 637.357, 1018.016 622.074 C 1016.818 616.429, 1016.873 615.942, 1019.127 612.316 C 1021.254 608.896, 1021.536 607.115, 1021.851 595.145 C 1022.295 578.222, 1021.329 574.519, 1014.584 567.294 C 1007.447 559.648, 1002.335 556.846, 994.710 556.400 C 991.295 556.199, 987.375 556.481, 986 557.025" stroke="#e23b33" fill="#e23b33" fill-opacity="0.2" fill-rule="evenodd"/><path class="svg-region-Ol" d="M 630 237.120 C 626.975 237.581, 621.902 237.943, 618.727 237.926 C 608.319 237.868, 591.426 244.061, 573.500 254.508 C 563.904 260.100, 555.748 263.924, 536.420 271.892 C 520.395 278.498, 513.029 281.758, 510 283.586 C 508.625 284.416, 505.644 285.933, 503.376 286.958 C 499.487 288.715, 495.777 291.221, 484.872 299.458 C 474.860 307.020, 457.254 335.516, 453.928 349.541 C 453.281 352.268, 451.461 357.200, 449.882 360.500 C 448.303 363.800, 445.624 370.550, 443.929 375.500 C 442.234 380.450, 439.261 389, 437.324 394.500 C 435.386 400, 433.176 406.975, 432.411 410 C 431.647 413.025, 429.449 421.575, 427.527 429 C 421.144 453.660, 420.781 457.460, 420.789 499.500 C 420.795 533.081, 421.033 538.908, 422.833 549.606 C 428.144 581.164, 434.023 593.362, 452.904 612 C 463.493 622.453, 480.022 634.521, 491.932 640.494 C 520.798 654.971, 558.880 656.878, 585.342 645.173 C 594.343 641.192, 603.659 634.161, 614 623.547 C 633.701 603.326, 636.081 601.341, 648 595.205 C 657.704 590.209, 659.937 588.876, 662.166 586.750 C 663.175 585.788, 664.576 585, 665.279 585 C 667.026 585, 677.396 574.747, 681.913 568.554 C 686.086 562.832, 690.693 555.178, 693.078 550 C 693.965 548.075, 695.894 545.074, 697.365 543.332 C 701.190 538.802, 703.775 532.406, 705.538 523.115 C 706.382 518.666, 708.444 511.982, 710.121 508.263 C 714.559 498.418, 720.512 482.481, 722.546 475 C 723.518 471.425, 724.634 468.050, 725.026 467.500 C 725.418 466.950, 726.298 464.700, 726.981 462.500 C 727.664 460.300, 728.777 457.600, 729.453 456.500 C 730.130 455.400, 731 453.217, 731.386 451.650 C 731.772 450.082, 733 447.566, 734.115 446.059 C 735.229 444.551, 736.571 441.403, 737.097 439.062 C 737.623 436.721, 740.107 430.326, 742.617 424.851 C 748.051 412.997, 749.885 403.894, 750.647 385 C 750.946 377.575, 751.151 370.600, 751.101 369.500 C 751.052 368.400, 750.781 361.433, 750.500 354.018 C 749.928 338.920, 747.990 327.026, 745.002 320.271 C 743.901 317.782, 742.997 315.240, 742.993 314.623 C 742.988 314.005, 740.922 309.900, 738.400 305.500 C 729.812 290.514, 728.834 288.632, 726.761 283.091 C 725.469 279.639, 722.768 275.511, 719.594 272.140 C 713.367 265.525, 700.482 255.792, 692.823 251.917 C 689.700 250.337, 686.850 248.566, 686.489 247.982 C 686.127 247.397, 685.023 247.175, 684.034 247.489 C 682.979 247.824, 682.014 247.480, 681.698 246.655 C 681.184 245.316, 680.035 244.932, 672 243.411 C 670.075 243.047, 668.050 242.424, 667.500 242.027 C 665.280 240.425, 656.020 238.064, 648.026 237.062 C 638.731 235.897, 638.009 235.899, 630 237.120" stroke="#aa444d" fill="#aa444d" fill-opacity="0.2" fill-rule="evenodd"/><path class="svg-region-Or" d="M 1216.877 200.429 C 1216.534 200.787, 1213.698 201.265, 1210.574 201.493 C 1207.450 201.720, 1203.499 202.603, 1201.793 203.453 C 1200.088 204.304, 1197.968 205, 1197.082 205 C 1196.195 205, 1193.777 205.907, 1191.708 207.016 C 1189.639 208.125, 1185.608 209.534, 1182.750 210.147 C 1177.632 211.245, 1174.426 213.330, 1165.659 221.265 C 1163.372 223.335, 1160.375 225.319, 1159 225.672 C 1150.828 227.774, 1133 253.085, 1133 262.586 C 1133 263.986, 1132.567 265.940, 1132.039 266.928 C 1130.801 269.241, 1129.668 274.802, 1129.784 278 C 1129.833 279.375, 1128.545 284.692, 1126.920 289.816 C 1124.358 297.894, 1123.892 301.179, 1123.412 314.547 C 1123.107 323.025, 1123.213 330.533, 1123.647 331.231 C 1124.080 331.929, 1124.524 334.750, 1124.633 337.500 C 1124.742 340.250, 1125.291 346.100, 1125.852 350.500 C 1126.414 354.900, 1127.392 363, 1128.025 368.500 C 1128.659 374, 1129.591 379.001, 1130.097 379.613 C 1130.603 380.225, 1131.486 383.375, 1132.059 386.613 C 1132.632 389.851, 1133.960 395.200, 1135.010 398.500 C 1136.060 401.800, 1137.418 407.200, 1138.027 410.500 C 1138.636 413.800, 1139.743 417.712, 1140.488 419.194 C 1141.233 420.675, 1141.615 422.755, 1141.338 423.816 C 1141.061 424.877, 1141.723 427.714, 1142.810 430.122 C 1143.897 432.530, 1145.310 437.200, 1145.951 440.500 C 1146.592 443.800, 1147.967 448.555, 1149.006 451.066 C 1151.212 456.392, 1152.683 464.541, 1153.964 478.522 C 1155.728 497.769, 1163.365 512.512, 1175.210 519.537 C 1181.786 523.437, 1184.955 526.491, 1190.219 534 C 1193.712 538.983, 1200.914 546.316, 1208.522 552.635 C 1211.260 554.910, 1215.176 558.356, 1217.223 560.293 C 1219.271 562.231, 1221.296 563.970, 1221.723 564.158 C 1222.151 564.346, 1224.283 566.750, 1226.461 569.500 C 1228.640 572.250, 1232.955 577.425, 1236.050 581 C 1239.145 584.575, 1242.321 588.464, 1243.107 589.642 C 1247.031 595.520, 1261.039 609.573, 1268.780 615.397 C 1273.576 619.005, 1278.379 622.642, 1279.453 623.479 C 1280.528 624.315, 1281.785 625, 1282.248 625 C 1282.711 625, 1287.743 627.256, 1293.431 630.013 C 1299.118 632.770, 1306.411 635.520, 1309.636 636.124 C 1318 637.691, 1330.109 636.626, 1339.106 633.532 C 1353.482 628.588, 1366.719 614.434, 1377.813 592.146 C 1383.671 580.375, 1390 565.318, 1390 563.151 C 1390 562.503, 1390.430 561.191, 1390.956 560.236 C 1393.177 556.205, 1397.169 538.981, 1399.514 523.318 C 1402.383 504.153, 1403.446 479.956, 1402.012 466.500 C 1401.484 461.550, 1400.118 447.600, 1398.976 435.500 C 1396.482 409.083, 1390.369 375.895, 1383.965 354 C 1381.993 347.257, 1373.905 315.256, 1371.960 306.500 C 1371.349 303.750, 1370.250 300.150, 1369.517 298.500 C 1368.785 296.850, 1366.951 292.125, 1365.442 288 C 1354.446 257.937, 1339.977 237.275, 1319.361 222.197 C 1305.269 211.890, 1292.610 208, 1273.160 208 C 1260.498 208, 1249.266 206.243, 1240 202.813 C 1234.592 200.811, 1218.136 199.114, 1216.877 200.429" stroke="#aa444d" fill="#aa444d" fill-opacity="0.2" fill-rule="evenodd"/>
    </svg>