<svg xmlns="http://www.w3.org/2000/svg" width="1921" height="1027" viewBox="0 0 1921 1027" version="1.1">
    <path class="svg-region-B" d="M 995.336 452.043 C 989.306 453.235, 984.724 456.499, 973.787 467.388 C 962.762 478.365, 958.305 486.064, 957 496.380 C 956.574 499.746, 955.105 505.425, 953.736 509 C 952.366 512.575, 950.047 519.542, 948.583 524.483 C 947.118 529.423, 945.263 533.833, 944.460 534.282 C 943.545 534.794, 942.996 536.667, 942.988 539.300 C 942.981 541.855, 942.057 545.106, 940.631 547.601 C 939.341 549.856, 937.297 555.031, 936.089 559.101 C 934.881 563.170, 932.456 569.200, 930.701 572.500 C 927.554 578.416, 927.508 578.702, 927.409 593 C 927.349 601.558, 926.778 609.344, 926.015 612 L 924.722 616.500 923.326 610.500 C 922.558 607.200, 921.496 601.800, 920.967 598.500 C 918.202 581.258, 917.579 577.957, 915.911 571.698 C 914.914 567.956, 913.202 563.446, 912.107 561.674 C 911.012 559.902, 909.368 554.413, 908.454 549.476 C 907.539 544.539, 905.713 536.675, 904.395 532 C 900.744 519.045, 899.037 510.086, 899.017 503.787 C 898.998 497.302, 897.186 492.092, 889.876 477.500 C 879.638 457.065, 879.007 456.512, 865.887 456.505 C 857.688 456.500, 857.026 456.668, 852.119 460 C 843.181 466.068, 831.251 486.104, 829.060 498.725 C 828.413 502.451, 827.241 508.425, 826.457 512 C 824.521 520.817, 822.502 533.816, 820.555 550 C 819.662 557.425, 817.709 568.225, 816.215 574 C 813.641 583.954, 813.507 585.618, 813.637 606 C 813.760 625.223, 814.045 628.665, 816.329 638.500 C 820.599 656.884, 827.226 675.283, 830.582 678.068 C 831.435 678.776, 834.113 682.416, 836.534 686.158 C 845.219 699.584, 856.060 707.531, 867.269 708.688 C 870.295 709.001, 879.455 708.717, 887.625 708.057 C 900.155 707.046, 903.596 706.393, 909.626 703.883 C 917.723 700.512, 918.927 699.408, 924.500 690.229 C 926.700 686.606, 928.959 683.495, 929.519 683.315 C 930.080 683.135, 931.414 684.613, 932.483 686.599 C 936.327 693.736, 948.259 701, 956.139 701 C 957.767 701, 960.421 701.684, 962.037 702.519 C 964.664 703.877, 965.358 703.877, 968.609 702.519 C 971.053 701.498, 975.582 701, 982.426 701 C 991.962 701, 992.901 700.814, 997.217 698.078 C 1000.121 696.236, 1002.831 693.370, 1004.545 690.328 C 1008.614 683.108, 1013.017 676.983, 1017.012 672.988 C 1021.257 668.743, 1028.531 654.517, 1030.048 647.494 C 1030.641 644.747, 1031.556 636.200, 1032.081 628.500 C 1032.720 619.126, 1034.065 610.204, 1036.150 601.500 L 1039.266 588.500 1038.580 565 C 1037.864 540.444, 1037.220 532.081, 1034.581 513 C 1032.254 496.180, 1031.023 489.976, 1029.541 487.608 C 1028.815 486.449, 1027.671 483.025, 1026.999 480 C 1024.923 470.659, 1022.926 466.026, 1019.542 462.699 C 1017.752 460.939, 1015.737 458.449, 1015.063 457.165 C 1013.585 454.346, 1006.639 451.011, 1002.500 451.132 C 1000.850 451.180, 997.626 451.590, 995.336 452.043" stroke="#e23b33" fill="#e23b33" fill-opacity="0.2" fill-rule="evenodd"/><path class="svg-region-Ol" d="M 634.730 198.989 C 626.333 200.760, 615.315 205.736, 610.500 209.933 C 603.888 215.697, 589.458 221.644, 576 224.152 C 553.699 228.308, 549.996 229.210, 543.360 232.102 C 541.084 233.095, 537.934 234.228, 536.360 234.622 C 533.700 235.287, 528.959 237.251, 518.102 242.186 C 509.837 245.943, 486.226 265.443, 481.277 272.600 C 480.054 274.369, 478.704 275.970, 478.277 276.158 C 476.692 276.856, 469.110 286.829, 462.051 297.500 C 453.864 309.877, 449.333 318.466, 445.961 328 C 444.697 331.575, 443.359 334.950, 442.988 335.500 C 441.897 337.116, 433.530 366.135, 429.003 384 C 426.704 393.075, 423.982 403.425, 422.956 407 C 421.929 410.575, 420.215 416.650, 419.145 420.500 C 418.076 424.350, 416.656 429.300, 415.989 431.500 C 415.312 433.736, 414.554 444.252, 414.270 455.348 C 413.776 474.668, 414.280 482.958, 417.500 508.500 C 418.262 514.550, 419.377 528.050, 419.977 538.500 C 421.124 558.494, 422.225 568.983, 424.646 583 C 425.453 587.675, 426.501 593.750, 426.974 596.500 C 428.943 607.940, 434.654 626.086, 437.981 631.469 C 439.091 633.266, 440 635.404, 440 636.220 C 440 637.036, 442.025 640.787, 444.500 644.555 C 446.975 648.323, 449 651.990, 449 652.703 C 449 653.416, 449.367 654, 449.815 654 C 450.263 654, 451.374 655.562, 452.284 657.470 C 454.278 661.650, 465.230 674.662, 472.349 681.309 C 478.721 687.258, 488.035 693.768, 492.295 695.251 C 494.058 695.864, 496.850 697.136, 498.500 698.076 C 500.150 699.017, 503.750 700.114, 506.500 700.515 C 517.554 702.125, 546.493 700.543, 554.795 697.874 C 556.607 697.292, 560.432 696.438, 563.295 695.977 C 571.746 694.615, 587.013 691.212, 594 689.133 C 602.485 686.609, 606.729 684.714, 610.944 681.569 C 612.839 680.156, 614.864 678.998, 615.444 678.995 C 617.301 678.987, 627.793 668.019, 633.006 660.640 C 635.779 656.713, 641.300 648.550, 645.274 642.500 C 649.655 635.832, 655.697 628.350, 660.618 623.500 C 669.443 614.803, 677.355 608.005, 678.670 607.991 C 679.495 607.982, 688.940 600.785, 694.408 596 C 704.587 587.091, 709.323 580.864, 715.445 568.339 C 720.840 557.299, 723.153 549.839, 728.414 526.500 C 735.456 495.262, 741.806 477.879, 751.127 464.320 C 752.707 462.021, 754 459.865, 754 459.529 C 754 459.194, 754.900 457.587, 756 455.960 C 760.854 448.777, 761.727 447.251, 763.383 443.058 C 764.348 440.614, 765.919 437.464, 766.874 436.058 C 767.829 434.651, 770.099 430.125, 771.919 426 C 773.738 421.875, 776.062 416.700, 777.082 414.500 C 779.907 408.407, 787 387.204, 787 384.852 C 787 383.709, 787.855 379.112, 788.901 374.637 C 792.590 358.842, 793.286 336.300, 790.483 323.358 C 787.747 310.727, 782.514 296.494, 778.259 290.110 C 777.017 288.246, 776 285.870, 776 284.829 C 776 283.789, 775.325 282.678, 774.500 282.362 C 773.675 282.045, 773 281.337, 773 280.787 C 773 279.766, 772.519 279.108, 763 267.098 C 750.147 250.883, 721.261 225.077, 708.144 218.092 C 706.690 217.318, 701.314 214.055, 696.198 210.842 C 691.081 207.629, 686.131 204.998, 685.198 204.996 C 684.264 204.994, 682.150 204.173, 680.500 203.172 C 676.426 200.698, 674.054 200.061, 663 198.467 C 650.517 196.667, 645.290 196.763, 634.730 198.989" stroke="#aa444d" fill="#aa444d" fill-opacity="0.2" fill-rule="evenodd"/><path class="svg-region-Or" d="M 1173.500 181.466 C 1163.595 183.516, 1151.912 187.831, 1144.746 192.084 C 1136.386 197.047, 1123.519 208.347, 1118.972 214.719 C 1117.095 217.348, 1114.708 220.400, 1113.667 221.500 C 1112.627 222.600, 1110.461 226.306, 1108.854 229.736 C 1104.989 237.982, 1094.405 253.726, 1092.226 254.468 C 1091.277 254.792, 1088.278 257.069, 1085.563 259.528 C 1082.847 261.988, 1080.260 264, 1079.813 264 C 1079.366 264, 1079 264.469, 1079 265.043 C 1079 265.616, 1077.262 268.438, 1075.138 271.313 C 1073.014 274.188, 1069.899 279.006, 1068.216 282.020 C 1065.173 287.468, 1059 304.481, 1059 307.420 C 1059 308.266, 1057.919 312.230, 1056.598 316.229 C 1055.277 320.228, 1053.846 325.075, 1053.418 327 C 1052.424 331.476, 1052.846 342.209, 1054.066 343.450 C 1054.580 343.972, 1055.003 345.322, 1055.006 346.450 C 1055.010 347.577, 1055.685 349.789, 1056.506 351.364 C 1057.328 352.940, 1058 354.595, 1058 355.043 C 1058 355.490, 1059.672 358.701, 1061.716 362.178 C 1064.098 366.229, 1070.314 373.349, 1079.023 382 C 1086.497 389.425, 1093.487 397.075, 1094.556 399 C 1095.625 400.925, 1096.747 402.725, 1097.048 403 C 1100.659 406.292, 1110.823 422.952, 1117.486 436.500 C 1129.724 461.382, 1132.873 472.883, 1136.515 506 C 1139.183 530.269, 1142.257 540.159, 1150.110 549.748 C 1155.470 556.293, 1161.011 560.420, 1177.403 570.077 C 1189.092 576.963, 1199.437 586.229, 1207.100 596.678 C 1212.315 603.787, 1217.602 610.323, 1225.461 619.377 C 1228.744 623.159, 1234.146 630.222, 1237.465 635.072 C 1240.784 639.922, 1245.075 645.040, 1247 646.443 C 1256.948 653.698, 1271.802 658.301, 1292.500 660.543 C 1293.050 660.602, 1301.514 661.011, 1311.309 661.450 C 1334.690 662.498, 1344.894 660.519, 1360.500 651.911 C 1367.944 647.804, 1381.173 635.232, 1386.711 627 C 1390.843 620.857, 1397.256 607.866, 1400.038 600 C 1401.303 596.425, 1402.697 593.022, 1403.135 592.438 C 1403.574 591.854, 1405.051 587.129, 1406.418 581.938 C 1408.757 573.050, 1408.878 571.334, 1408.485 552.500 C 1408.255 541.500, 1407.869 522.600, 1407.627 510.500 C 1407.051 481.724, 1405.502 462.104, 1401.823 437 C 1400.171 425.725, 1398.431 413.350, 1397.956 409.500 C 1397.481 405.650, 1396.162 398.225, 1395.024 393 C 1393.886 387.775, 1392.563 381.009, 1392.084 377.965 C 1391.605 374.920, 1390.229 369.125, 1389.026 365.087 C 1387.823 361.048, 1386.470 355.664, 1386.019 353.122 C 1385.569 350.580, 1384.289 344, 1383.175 338.500 C 1382.062 333, 1380.648 324.450, 1380.033 319.500 C 1377.110 295.980, 1373.665 282.151, 1368.077 271.500 C 1358.620 253.477, 1333.960 227.537, 1317.921 218.742 C 1315.403 217.361, 1312.478 215.728, 1311.421 215.114 C 1304.678 211.194, 1280.153 202.092, 1267.841 198.939 C 1262.825 197.655, 1253.897 195.415, 1246 193.460 C 1237.958 191.468, 1234.101 190.388, 1228.500 188.559 C 1223.848 187.040, 1215.145 185.110, 1210.500 184.569 C 1209.400 184.440, 1206.756 183.555, 1204.626 182.602 C 1199.660 180.381, 1181.877 179.732, 1173.500 181.466" stroke="#aa444d" fill="#aa444d" fill-opacity="0.2" fill-rule="evenodd"/>
    </svg>