<svg xmlns="http://www.w3.org/2000/svg" width="1921" height="1027" viewBox="0 0 1921 1027" version="1.1">
    <path class="svg-region-B" d="M 984.253 427.417 C 973.576 439.825, 967 448.795, 967 450.949 C 967 451.509, 964.153 455.688, 960.674 460.234 C 950.745 473.209, 941.499 493.606, 939.595 506.737 C 939.257 509.067, 938.072 512.591, 936.962 514.568 C 934.892 518.253, 927.880 537.586, 925.392 546.468 C 924.626 549.200, 924 553.308, 924 555.595 C 924 559.830, 921.478 563.759, 920.620 560.863 C 920.397 560.113, 919.304 556.800, 918.189 553.500 C 917.074 550.200, 914.989 542.776, 913.556 537.002 C 912.038 530.889, 908.925 522.327, 906.103 516.502 C 901.312 506.616, 896.654 493.192, 895.372 485.573 C 894.789 482.107, 892.487 478.316, 883.413 465.878 C 880.929 462.475, 866.049 444, 864.037 441.823 C 863.184 440.900, 859.565 438.763, 855.993 437.073 C 847.410 433.013, 841.950 432.987, 834.062 436.969 C 826.737 440.666, 823.604 445.007, 819.963 456.500 C 819.266 458.700, 817.870 462.750, 816.860 465.500 C 815.851 468.250, 814.134 477.250, 813.046 485.500 C 811.958 493.750, 809.869 509.500, 808.405 520.500 C 805.885 539.430, 805.775 541.958, 806.361 567.759 C 806.868 590.034, 807.285 595.702, 808.643 598.759 C 809.557 600.817, 810.627 604.975, 811.021 608 C 812.677 620.718, 814.233 629.777, 815.485 634 C 816.219 636.475, 818.232 643.129, 819.958 648.787 C 821.684 654.445, 823.510 662.700, 824.015 667.131 C 824.611 672.359, 825.757 676.647, 827.279 679.344 C 831.191 686.278, 831.730 687.342, 833.510 691.663 C 835.708 696.997, 840.190 701.307, 846.500 704.153 C 850.737 706.064, 853.667 706.470, 865.706 706.814 C 889.157 707.484, 896.596 704.948, 911.176 691.309 L 916.852 686 924.180 686 C 929.483 686, 933.304 686.670, 938.004 688.424 C 941.577 689.757, 946.075 691.399, 948 692.074 C 949.925 692.748, 952.589 693.794, 953.919 694.400 C 955.428 695.086, 961.533 695.379, 970.130 695.179 C 985.018 694.832, 988.674 693.777, 998.495 686.992 C 1006.992 681.123, 1008.681 678.823, 1015.011 664.500 C 1028.634 633.679, 1035.308 600.582, 1036.991 555.500 C 1037.402 544.500, 1038.073 534.269, 1038.483 532.764 C 1038.965 530.992, 1038.659 528.604, 1037.614 525.993 C 1036.481 523.163, 1035.998 518.759, 1035.994 511.230 C 1035.990 504.010, 1035.532 499.626, 1034.594 497.828 C 1033.827 496.359, 1032.251 490.734, 1031.092 485.328 C 1029.933 479.923, 1028.519 473.450, 1027.950 470.945 C 1027.381 468.440, 1026.993 463.020, 1027.089 458.900 C 1027.272 451.019, 1026.222 447.785, 1021.382 441.317 C 1019.804 439.207, 1019 436.789, 1019 434.148 C 1019 427.375, 1016.717 424.770, 1008.617 422.301 C 1004.703 421.108, 999.250 419.876, 996.500 419.563 L 991.500 418.995 984.253 427.417" stroke="#e23b33" fill="#e23b33" fill-opacity="0.2" fill-rule="evenodd"/><path class="svg-region-Ol" d="M 638.868 170.595 C 615.433 177.296, 617.647 176.501, 603 183.470 C 592.481 188.475, 586.324 192.059, 577.844 198.116 C 573.805 201.001, 563.975 206.445, 556 210.214 C 531.247 221.914, 525.546 225.005, 510.957 234.638 C 497.636 243.435, 466.791 275.371, 457.454 290.034 C 453.904 295.608, 448 307.441, 448 308.980 C 448 309.613, 447.450 311.114, 446.778 312.316 C 445.090 315.332, 443.097 322.891, 443.044 326.479 C 443.020 328.117, 440.918 336.667, 438.373 345.479 C 435.829 354.291, 433.194 363.975, 432.519 367 C 429.283 381.496, 424.450 397.452, 419.826 408.899 C 412.920 425.993, 409.039 438.928, 407.941 448.500 C 405.829 466.922, 405.280 479.247, 406.215 487.251 C 406.745 491.788, 407.551 516.200, 408.005 541.500 C 408.459 566.800, 409.271 589.975, 409.810 593 C 410.720 598.113, 411.954 602.230, 415.204 611 C 417.889 618.243, 428.259 636.376, 431.687 639.823 C 432.411 640.551, 435.117 644.151, 437.700 647.823 C 443.236 655.694, 445.445 658.467, 452.574 666.500 C 467.584 683.413, 469.486 684.880, 488.865 694.498 C 506.916 703.457, 510.758 704.282, 524.060 702.061 C 529.252 701.194, 534.400 699.981, 535.500 699.365 C 540.053 696.818, 557.788 692.899, 573.384 690.995 C 583.459 689.765, 601.268 684.893, 607.497 681.663 C 614.698 677.929, 623.314 671.802, 628.386 666.809 C 631.073 664.164, 633.660 662, 634.136 662 C 634.611 662, 635 661.345, 635 660.544 C 635 659.744, 636.151 657.393, 637.558 655.320 C 639.044 653.130, 639.903 650.737, 639.608 649.610 C 639.300 648.433, 640.065 646.523, 641.550 644.758 C 642.898 643.157, 644 641.378, 644 640.805 C 644 640.233, 645.237 638.291, 646.750 636.491 C 648.263 634.691, 652.816 629.119, 656.869 624.109 C 660.922 619.099, 664.860 615, 665.619 615 C 666.379 615, 667 614.626, 667 614.169 C 667 613.712, 668.118 612.740, 669.483 612.009 C 670.849 611.278, 672.230 609.852, 672.551 608.840 C 672.872 607.828, 673.597 607, 674.163 607 C 674.729 607, 676.413 606.130, 677.907 605.066 C 679.400 604.003, 681.832 602.829, 683.311 602.458 C 684.790 602.087, 686 601.382, 686 600.892 C 686 600.401, 686.587 600, 687.304 600 C 688.022 600, 690.834 598.556, 693.554 596.792 C 699.915 592.665, 702.983 591, 704.223 591 C 705.321 591, 717.626 581.613, 720 578.964 C 720.825 578.043, 722.299 577.009, 723.276 576.666 C 724.253 576.323, 725.885 574.120, 726.901 571.771 C 727.918 569.422, 730.341 564.120, 732.285 559.989 C 734.229 555.857, 736.134 550.682, 736.517 548.489 C 737.604 542.273, 743.565 522.019, 745.852 516.769 C 746.985 514.167, 748.422 510.148, 749.044 507.838 C 749.666 505.528, 751.215 502.257, 752.486 500.569 C 753.757 498.881, 755.494 494.742, 756.347 491.370 C 757.199 487.999, 759.045 483.549, 760.448 481.481 C 761.852 479.413, 763 477.260, 763 476.697 C 763 476.134, 765.311 470.909, 768.135 465.086 C 770.960 459.264, 773.611 453.600, 774.028 452.500 C 774.445 451.400, 775.950 448.025, 777.372 445 C 778.794 441.975, 780.689 437.250, 781.583 434.500 C 782.477 431.750, 783.752 428.825, 784.416 428 C 785.079 427.175, 786.663 422.675, 787.934 418 C 789.205 413.325, 790.814 407.700, 791.511 405.500 C 792.207 403.300, 793.327 396.550, 793.999 390.500 C 794.672 384.450, 796.105 375.774, 797.183 371.220 C 800.343 357.878, 801.850 335.565, 800.914 315.971 C 800.207 301.174, 799.759 298.054, 797.549 292.530 C 796.147 289.026, 795 285.423, 795 284.523 C 795 282.955, 789.780 271.683, 788.059 269.536 C 787.603 268.966, 786.191 266.025, 784.923 263 C 783.654 259.975, 781.578 256.108, 780.308 254.406 C 779.039 252.704, 778 250.645, 778 249.830 C 778 249.015, 776.822 247.258, 775.382 245.924 C 773.942 244.591, 770.420 240.350, 767.555 236.500 C 761.629 228.535, 759.513 226.289, 745.175 212.750 C 739.496 207.387, 734.321 202.991, 733.675 202.981 C 733.029 202.970, 730.705 201.395, 728.511 199.481 C 726.317 197.566, 723.877 196, 723.090 196 C 722.302 196, 720.947 195.380, 720.079 194.622 C 717.975 192.785, 708.809 188, 707.395 188 C 706.779 188, 704.526 186.608, 702.388 184.906 C 695.170 179.162, 684.888 175.090, 671.209 172.560 C 666.649 171.716, 662.138 170.609, 661.184 170.099 C 658.726 168.783, 644.064 169.109, 638.868 170.595" stroke="#aa444d" fill="#aa444d" fill-opacity="0.2" fill-rule="evenodd"/><path class="svg-region-Or" d="M 1147.500 159.590 C 1143.650 161.405, 1139.799 162.915, 1138.941 162.945 C 1138.084 162.975, 1134.709 164.640, 1131.441 166.645 C 1128.174 168.650, 1123.475 171.446, 1121 172.858 C 1113.754 176.992, 1108.020 181.702, 1099.677 190.371 C 1091.268 199.108, 1078.786 214.580, 1076.358 219.274 C 1075.539 220.858, 1073.436 224.051, 1071.684 226.368 C 1067.604 231.767, 1057.369 252.291, 1051.569 266.706 C 1047.585 276.606, 1045.826 283.052, 1041.804 302.500 C 1041.235 305.250, 1040.738 314.475, 1040.699 323 C 1040.637 336.438, 1040.929 339.463, 1042.894 345.741 C 1044.141 349.723, 1045.575 353.237, 1046.080 353.550 C 1046.586 353.862, 1047 354.768, 1047 355.563 C 1047 356.780, 1061.707 379.210, 1073.670 396.240 C 1075.502 398.847, 1077 401.218, 1077 401.510 C 1077 401.801, 1078.059 403.718, 1079.353 405.770 C 1080.647 407.821, 1082.404 411.750, 1083.257 414.500 C 1084.110 417.250, 1085.779 421.975, 1086.966 425 C 1088.153 428.025, 1089.816 432.750, 1090.661 435.500 C 1091.507 438.250, 1092.620 441.570, 1093.136 442.878 C 1093.652 444.186, 1096.048 451.161, 1098.461 458.378 C 1105.152 478.391, 1108.958 489.179, 1110.553 492.651 C 1111.349 494.384, 1112 496.356, 1112 497.032 C 1112 499.507, 1121.512 519.784, 1127.423 529.909 C 1132.012 537.770, 1135.948 542.808, 1143.500 550.490 C 1157.851 565.088, 1163.799 569.128, 1191.424 583.038 L 1206.393 590.576 1211.947 598.731 C 1215.001 603.216, 1220.168 611.524, 1223.428 617.193 C 1232.605 633.147, 1239.263 641.016, 1249.033 647.452 C 1256.441 652.333, 1262.488 654.134, 1277.500 655.932 C 1282.450 656.524, 1293.795 658.410, 1302.711 660.122 C 1317.366 662.935, 1320.199 663.184, 1332.211 662.712 C 1346.642 662.145, 1353.781 660.271, 1370.023 652.787 C 1384.385 646.170, 1396.493 631.419, 1406.786 608 C 1420.567 576.647, 1425.543 552.339, 1424.438 521.775 C 1424.089 512.127, 1423.277 506.324, 1421.078 497.775 C 1415.387 475.645, 1414.662 469.494, 1414.388 441 C 1414.231 424.646, 1413.358 405.799, 1412.106 391.774 C 1409.848 366.465, 1408.649 361.777, 1398.801 339.784 C 1392.843 326.475, 1386 308.672, 1386 306.478 C 1386 303.449, 1374.909 271.768, 1371.372 264.694 C 1367.493 256.937, 1359.513 244.643, 1354.694 239 C 1353.050 237.075, 1347.299 231.450, 1341.914 226.500 C 1336.529 221.550, 1329.412 214.079, 1326.099 209.897 C 1317.395 198.913, 1314.186 196.682, 1299.500 191.404 C 1277.127 183.364, 1271.017 181.069, 1264 178.068 C 1245.315 170.078, 1215.067 160.222, 1213.053 161.467 C 1212.555 161.775, 1210.202 161.376, 1207.824 160.582 C 1200.414 158.106, 1188.140 156.751, 1171 156.516 L 1154.500 156.290 1147.500 159.590" stroke="#aa444d" fill="#aa444d" fill-opacity="0.2" fill-rule="evenodd"/>
    </svg>