<svg xmlns="http://www.w3.org/2000/svg" width="1921" height="1027" viewBox="0 0 1921 1027" version="1.1">
    <path class="svg-region-B" d="M 987.993 441.358 C 983.776 444.454, 978 451.728, 978 453.943 C 978 454.484, 976.418 456.003, 974.484 457.317 C 968.690 461.254, 952.757 478.896, 946.587 488.204 C 943.397 493.019, 939.951 499.722, 938.876 503.204 C 937.807 506.667, 934.973 513.550, 932.577 518.500 C 930.181 523.450, 927.629 529.075, 926.906 531 C 924.703 536.863, 921.893 541, 920.113 541 C 918.145 541, 910 529.140, 910 526.273 C 910 525.221, 908.486 522.591, 906.636 520.430 C 903.030 516.217, 898 503.732, 898 498.996 C 898 497.410, 896.987 494.964, 895.750 493.561 C 887.687 484.423, 880.382 476.630, 872.838 469.122 C 868.074 464.380, 862.308 457.482, 860.025 453.793 C 853.876 443.855, 846.596 440.416, 837.113 442.970 C 831.027 444.608, 822.378 453.513, 818.629 462 C 817.049 465.575, 815.270 469.400, 814.675 470.500 C 814.079 471.600, 813.279 480.150, 812.896 489.500 C 812.513 498.850, 811.059 514.600, 809.665 524.500 C 806.730 545.345, 804.846 596.035, 806.754 602.788 C 807.331 604.830, 808.509 610.217, 809.373 614.759 C 811.059 623.624, 813.300 629.934, 821.181 648 C 829.203 666.388, 833.140 674.223, 836.510 678.500 C 838.243 680.700, 841.104 684.897, 842.868 687.827 C 848.317 696.875, 857.899 708.775, 861.559 711.036 C 869.278 715.807, 883.090 717.277, 890.223 714.088 C 899.983 709.724, 906.833 706.998, 908.125 706.963 C 908.881 706.942, 913.091 705.184, 917.480 703.056 C 925.115 699.353, 925.587 699.252, 928.398 700.706 C 934.430 703.825, 948.913 705.973, 964 705.986 C 977.889 705.998, 978.755 705.878, 984.543 703.140 C 991.622 699.790, 993.551 697.681, 1001.407 684.696 C 1004.634 679.363, 1007.682 675, 1008.182 675 C 1010.203 675, 1014 669.963, 1014 667.282 C 1014 664.725, 1019.928 654.431, 1022.309 652.853 C 1022.846 652.497, 1023.630 650.247, 1024.051 647.853 C 1024.472 645.459, 1025.333 640.575, 1025.963 637 C 1026.594 633.425, 1027.577 627.350, 1028.149 623.500 C 1028.745 619.484, 1030.746 613.089, 1032.844 608.500 L 1036.500 600.500 1036.500 584.500 C 1036.500 571.275, 1036.166 567.546, 1034.574 563 C 1033.180 559.020, 1032.700 555.216, 1032.836 549.233 C 1032.989 542.501, 1032.625 540.185, 1030.875 536.756 C 1029.659 534.371, 1028.350 529.172, 1027.857 524.768 C 1027.378 520.490, 1026.230 515.080, 1025.305 512.745 C 1023.467 508.108, 1023.324 496.228, 1025.030 490 C 1026.773 483.639, 1026.204 466.899, 1024.012 460.038 C 1020.830 450.076, 1017.042 443.989, 1012.054 440.823 C 1008.173 438.358, 1006.649 438.003, 1000.054 438.025 C 993.098 438.048, 992.143 438.311, 987.993 441.358" stroke="#e23b33" fill="#e23b33" fill-opacity="0.2" fill-rule="evenodd"/><path class="svg-region-Ol" d="M 624.500 169.052 C 605.988 172.548, 596.714 175.567, 587.442 181.117 C 584.110 183.112, 580.285 185.085, 578.942 185.503 C 577.599 185.920, 573.474 187.778, 569.775 189.631 C 566.076 191.484, 562.521 193, 561.875 193 C 561.228 193, 558.404 194.061, 555.600 195.359 C 548.367 198.704, 545.721 199.764, 535 203.609 C 529.775 205.484, 524.600 207.432, 523.500 207.939 C 522.400 208.445, 518.575 210.105, 515 211.627 C 502.822 216.812, 489.522 224.205, 475 233.860 C 463.368 241.593, 458.027 245.987, 448 256.070 C 435.133 269.010, 428.984 275.958, 425.500 281.494 C 424.400 283.242, 422.185 286.659, 420.577 289.086 C 415.373 296.946, 408.011 313.277, 407.994 317 C 407.991 317.825, 407.414 319.625, 406.714 321 C 405.176 324.019, 402.892 331.274, 399.473 344 C 398.070 349.225, 396.008 355.975, 394.892 359 C 390.001 372.252, 388.615 375.792, 386.471 380.500 C 379.909 394.913, 378.562 398.226, 375.894 406.500 C 368.272 430.139, 367.064 444.737, 366.753 517 C 366.507 573.777, 366.566 575.883, 368.753 588.500 C 372.654 611.015, 380.159 630.859, 390.795 646.784 C 392.833 649.835, 394.955 653.044, 395.511 653.916 C 396.067 654.787, 399.104 658.178, 402.261 661.452 C 405.417 664.725, 408 667.813, 408 668.314 C 408 669.718, 425.433 691.512, 428.844 694.373 C 429.583 694.993, 431.158 696.434, 432.344 697.575 C 447.719 712.370, 472.751 725.984, 491.799 729.908 C 499.347 731.463, 516.054 731.258, 527.074 729.474 C 539.879 727.402, 539.469 727.486, 548.481 725.088 C 552.871 723.919, 557.070 723.197, 557.813 723.482 C 558.555 723.766, 560.126 723.325, 561.304 722.500 C 562.481 721.675, 564.349 721, 565.453 721 C 567.443 721, 576.188 717.910, 581 715.507 C 582.375 714.820, 585.300 713.693, 587.500 713.003 C 589.700 712.312, 592.175 711.222, 593 710.580 C 593.825 709.939, 595.850 708.782, 597.500 708.009 C 599.150 707.236, 605.323 703.707, 611.218 700.165 C 622.247 693.540, 627.666 688.679, 653.490 662.248 C 659.534 656.062, 664.709 650.999, 664.990 650.999 C 665.270 650.998, 667.525 649.197, 670 646.996 C 672.475 644.795, 676.300 642.130, 678.500 641.075 C 680.700 640.019, 683.990 637.770, 685.812 636.077 C 687.633 634.385, 689.488 633, 689.933 633 C 692.554 633, 707.130 621.650, 717.062 611.877 C 729.182 599.950, 731.240 597.654, 737.115 589.500 C 745.272 578.179, 748.168 573.699, 750.539 568.729 C 751.911 565.853, 754.136 561.700, 755.482 559.500 C 756.828 557.300, 758.663 553.259, 759.560 550.520 C 760.457 547.782, 762.160 544.184, 763.345 542.527 C 765.462 539.565, 766.170 538.006, 769.482 529 C 771.146 524.477, 773.653 518.789, 777.127 511.655 C 778.157 509.541, 779 506.066, 779 503.932 C 779 500.350, 780.569 495.949, 785.036 487 C 785.996 485.075, 787.117 481.927, 787.525 480.004 C 787.933 478.081, 788.849 475.156, 789.560 473.504 C 791.415 469.196, 792.364 466.647, 792.537 465.500 C 792.620 464.950, 793.208 463.233, 793.844 461.685 C 794.480 460.137, 795 458.224, 795 457.435 C 795 456.646, 795.401 456, 795.891 456 C 796.380 456, 797.037 454.538, 797.349 452.750 C 798.542 445.918, 799.890 439.151, 801.977 429.507 C 803.167 424.011, 803.919 418.386, 803.648 417.007 C 803.378 415.628, 803.789 412.025, 804.561 409 C 809.802 388.474, 810.184 385.867, 810.194 370.478 C 810.200 362.060, 809.926 353.447, 809.586 351.337 C 809.245 349.226, 808.791 342.937, 808.577 337.360 C 808.363 331.783, 807.744 326.383, 807.201 325.360 C 806.658 324.337, 805.470 318.325, 804.562 312 C 803.654 305.675, 802.479 298.925, 801.951 297 C 796.493 277.082, 794.049 270.271, 790.109 264 C 789.591 263.175, 788.484 260.925, 787.649 259 C 786.815 257.075, 785.271 254.581, 784.220 253.457 C 782.322 251.429, 780.111 247.733, 778.011 243.076 C 777.409 241.744, 775.811 239.628, 774.459 238.374 C 773.106 237.121, 772 235.845, 772 235.539 C 772 234.341, 766.198 228.549, 760.246 223.805 C 756.806 221.064, 754.226 218.444, 754.511 217.983 C 754.796 217.521, 754.095 216.847, 752.952 216.485 C 751.810 216.122, 748.091 213.719, 744.688 211.143 C 737.364 205.601, 732.469 202.957, 725 200.507 C 721.975 199.515, 714.550 195.465, 708.500 191.507 C 694.084 182.074, 682.886 176.383, 667.164 170.496 C 658.374 167.204, 657.146 167.005, 646.164 167.082 C 639.278 167.130, 630.404 167.937, 624.500 169.052" stroke="#aa444d" fill="#aa444d" fill-opacity="0.2" fill-rule="evenodd"/><path class="svg-region-Or" d="M 1153.500 150.977 C 1148 152.011, 1140.688 154.014, 1137.250 155.429 C 1133.813 156.843, 1128.340 159.076, 1125.089 160.391 C 1118.450 163.076, 1111.953 167.292, 1106.435 172.496 C 1104.392 174.423, 1102.107 176, 1101.356 176 C 1099.619 176, 1065.275 210.411, 1058.991 218.447 C 1056.388 221.776, 1053.241 226.525, 1051.999 229 C 1050.756 231.475, 1048.924 234.658, 1047.928 236.073 C 1045.335 239.755, 1041.261 251.023, 1038.929 260.956 C 1037.826 265.655, 1036.302 271.975, 1035.543 275 C 1030.706 294.265, 1030.714 339.400, 1035.557 353.500 C 1036.502 356.250, 1037.359 359.175, 1037.462 360 C 1037.565 360.825, 1039.101 364.579, 1040.877 368.343 C 1042.652 372.107, 1043.936 375.692, 1043.730 376.311 C 1043.524 376.929, 1044.400 378.975, 1045.678 380.857 C 1046.955 382.739, 1048 384.897, 1048 385.653 C 1048 386.409, 1048.412 387.809, 1048.916 388.764 C 1050.942 392.604, 1053 397.884, 1053 399.239 C 1053 400.030, 1054.981 404.686, 1057.403 409.588 C 1067.788 430.606, 1077 450.025, 1077 450.897 C 1077 451.415, 1077.669 453.112, 1078.488 454.669 C 1080.513 458.523, 1085 470.373, 1085 471.868 C 1085 472.535, 1085.917 474.877, 1087.038 477.074 C 1088.159 479.271, 1088.795 481.523, 1088.452 482.078 C 1088.108 482.634, 1088.470 484.081, 1089.256 485.294 C 1090.041 486.507, 1091.480 490.200, 1092.453 493.500 C 1098.447 513.822, 1101.191 521.897, 1102.218 522.239 C 1102.859 522.453, 1104.157 525.974, 1105.102 530.064 C 1107.621 540.958, 1111.482 551.151, 1115.423 557.313 C 1122.502 568.378, 1141.680 582.306, 1169.500 596.586 C 1175.550 599.691, 1181.850 603.143, 1183.500 604.256 C 1188.022 607.306, 1197.759 617.915, 1200.705 623 C 1204.922 630.279, 1214.581 642.882, 1218.180 645.799 C 1220.013 647.284, 1222.672 649.625, 1224.090 651 C 1228.260 655.044, 1234.180 659.339, 1238.884 661.733 C 1241.298 662.961, 1245.349 665.287, 1247.886 666.901 C 1250.424 668.515, 1254.975 670.580, 1258 671.489 C 1261.025 672.399, 1264.175 673.570, 1265 674.093 C 1273.222 679.300, 1280.583 680.201, 1291.840 677.378 C 1299.595 675.433, 1316.466 675.869, 1325 678.235 C 1342.626 683.122, 1357.252 683.737, 1366 679.958 C 1380.266 673.795, 1397.633 659.644, 1410.129 644 C 1417.840 634.347, 1425.694 617.158, 1431.832 596.500 C 1434.710 586.817, 1435.527 582.842, 1438.407 564.500 C 1443.675 530.957, 1443.920 511.068, 1439.421 482 C 1437.151 467.330, 1436.573 459.324, 1435.845 432.500 C 1434.905 397.830, 1434.544 390.354, 1433.669 387.414 C 1433.356 386.361, 1432.373 378.975, 1431.484 371 C 1429.743 355.373, 1427.728 347.679, 1423.104 339 C 1415.693 325.090, 1413.558 321.260, 1412.513 320 C 1411.380 318.633, 1409.154 314.096, 1401.628 297.813 C 1400.183 294.685, 1398.994 291.535, 1398.987 290.813 C 1398.966 288.661, 1395.288 277.566, 1392.152 270.198 C 1383.977 250.986, 1365.571 226.742, 1349.251 213.688 C 1342.004 207.891, 1331.558 201, 1330.019 201 C 1329.500 201, 1325.797 199.472, 1321.788 197.605 C 1317.780 195.738, 1312.025 193.435, 1309 192.488 C 1303.002 190.611, 1284.365 183.649, 1279.395 181.430 C 1277.688 180.668, 1270.713 177.750, 1263.895 174.946 C 1252.126 170.106, 1247.014 168.186, 1232 162.962 C 1228.425 161.719, 1223.025 159.818, 1220 158.739 C 1216.975 157.660, 1210.900 155.750, 1206.500 154.495 C 1202.100 153.240, 1197.150 151.651, 1195.500 150.965 C 1190.284 148.794, 1165.069 148.801, 1153.500 150.977" stroke="#aa444d" fill="#aa444d" fill-opacity="0.2" fill-rule="evenodd"/>
    </svg>