<svg xmlns="http://www.w3.org/2000/svg" width="1921" height="1027" viewBox="0 0 1921 1027" version="1.1">
    <path class="svg-region-B" d="M 987 442.750 C 987 449.729, 986.563 451.709, 983.577 458.261 C 980.976 463.969, 979.004 466.698, 975.360 469.636 C 970.556 473.507, 962.812 481.018, 957.856 486.611 C 952.949 492.150, 949.016 499.346, 946.470 507.443 C 944.996 512.130, 942.291 517.800, 940.002 521 C 935.061 527.908, 931.390 533.304, 927.917 538.768 L 925.203 543.036 920.919 539.768 C 916.952 536.741, 907.238 524.682, 907.072 522.579 C 907.033 522.072, 906.409 520.947, 905.688 520.079 C 904.966 519.210, 903.570 516.475, 902.586 514 C 894.529 493.739, 893.229 491.367, 888.076 487.529 C 877.065 479.328, 867.820 471.168, 864.814 467 C 863.029 464.525, 860.081 461.197, 858.262 459.604 C 856.119 457.726, 854.562 455.145, 853.837 452.268 C 853.223 449.827, 852.077 447.583, 851.292 447.282 C 848.187 446.090, 840.668 452.158, 836.771 459 C 835.362 461.475, 832.521 465.289, 830.459 467.475 C 828.397 469.661, 826.071 473.036, 825.290 474.975 C 824.508 476.914, 822.819 480.750, 821.535 483.500 C 815.980 495.402, 814.870 498.601, 814.061 505.042 C 813.590 508.792, 812.911 512.336, 812.551 512.918 C 810.110 516.868, 809.247 526.157, 809.152 549.500 C 809.065 571.256, 809.293 575.279, 810.914 580.500 C 813.381 588.448, 816.556 600.193, 818.078 607 C 821.745 623.398, 831.090 646.979, 836.135 652.564 C 837.161 653.700, 838.002 655.500, 838.004 656.564 C 838.006 657.629, 838.854 659.887, 839.888 661.583 C 840.922 663.279, 842.081 666.092, 842.463 667.833 C 842.978 670.176, 843.724 671.014, 845.329 671.054 C 846.967 671.094, 848.217 672.573, 850.419 677.075 C 854.169 684.740, 866.809 699.500, 873.391 703.900 C 880.810 708.859, 890.849 712.942, 895.701 712.973 C 911.222 713.073, 923.719 705.002, 927.660 692.332 C 930.119 684.428, 933.935 680.669, 941.706 678.496 C 945.119 677.542, 949.049 677.046, 950.438 677.395 C 954.097 678.314, 959.999 683.839, 960.006 686.354 C 960.027 694.459, 966.312 702.930, 973.801 704.946 C 983.065 707.441, 991.672 702.875, 997.514 692.369 C 999.615 688.591, 1002.332 684.150, 1003.552 682.500 C 1004.773 680.850, 1006.698 677.655, 1007.830 675.399 C 1008.962 673.144, 1011.943 669.184, 1014.455 666.600 C 1016.966 664.016, 1020.379 659.210, 1022.040 655.921 C 1023.701 652.631, 1026.646 647.860, 1028.586 645.319 C 1033.630 638.711, 1035.697 634.240, 1037.579 625.864 C 1038.489 621.814, 1039.841 617.375, 1040.584 616 C 1041.326 614.625, 1043.175 607.425, 1044.693 600 C 1046.996 588.736, 1047.457 583.933, 1047.477 571 C 1047.498 556.752, 1047.267 554.733, 1044.621 546 C 1041.599 536.028, 1039.407 531.084, 1035.172 524.683 L 1032.616 520.822 1032.468 489.661 C 1032.365 468.048, 1031.941 457.319, 1031.084 454.645 C 1029.799 450.637, 1023.755 443.386, 1018.696 439.783 C 1016.362 438.122, 1013.505 437.544, 1004.634 436.942 C 998.510 436.527, 992.038 435.863, 990.250 435.468 L 987 434.750 987 442.750" stroke="#e23b33" fill="#e23b33" fill-opacity="0.2" fill-rule="evenodd"/><path class="svg-region-Ol" d="M 630.500 166.981 C 623.947 167.597, 608.953 171.735, 597.481 176.093 C 594.720 177.142, 591.947 178, 591.319 178 C 589.336 178, 575.342 184.387, 548.500 197.542 C 534.200 204.551, 519.575 211.315, 516 212.574 C 499.974 218.217, 469.879 232.327, 465 236.485 C 464.175 237.188, 462.445 238.086, 461.155 238.479 C 455.415 240.231, 430.722 262.113, 431.677 264.601 C 431.979 265.387, 431.604 266, 430.820 266 C 426.738 266, 412.715 292.508, 408.073 309 C 407.376 311.475, 405.663 316.200, 404.265 319.500 C 400.475 328.450, 400.298 328.927, 397.979 336.500 C 396.800 340.350, 394.748 346.436, 393.418 350.025 C 392.088 353.613, 391 357.107, 391 357.788 C 391 358.470, 390.573 359.809, 390.050 360.764 C 389.528 361.719, 388.421 365.200, 387.590 368.500 C 386.759 371.800, 385.441 376.525, 384.661 379 C 380.879 390.993, 378.927 398.136, 377.554 405 C 376.729 409.125, 374.902 417.900, 373.493 424.500 C 369.027 445.424, 365.466 468.688, 364.004 486.500 C 363.462 493.100, 362.587 501.200, 362.060 504.500 C 359.967 517.598, 358.817 545.171, 359.390 568.500 C 360.106 597.624, 360.350 600.916, 362.394 608.895 C 363.278 612.341, 364 615.860, 364 616.713 C 364 618.848, 375.976 643.398, 381.959 653.526 C 387.580 663.044, 388.765 664.568, 399.032 675.489 C 406.926 683.885, 412.926 691.439, 419.716 701.527 C 423.848 707.668, 432.903 717.299, 438.701 721.721 C 443.451 725.344, 456.489 732.168, 463.500 734.701 C 469.152 736.743, 484.478 738.055, 491 737.055 C 494.025 736.592, 500.325 735.681, 505 735.032 C 509.675 734.382, 514.296 733.425, 515.270 732.905 C 516.243 732.384, 522.768 730.127, 529.770 727.889 C 567.888 715.702, 577.027 712.259, 588.375 705.809 C 604.860 696.440, 621.338 681.315, 641.660 656.901 C 651.088 645.574, 663.081 633.713, 667.250 631.593 C 669.313 630.543, 671 629.087, 671 628.356 C 671 627.625, 672.520 626.392, 674.378 625.615 C 676.236 624.839, 678.055 623.720, 678.420 623.129 C 678.786 622.538, 680.803 621.592, 682.903 621.026 C 685.003 620.461, 688.246 618.428, 690.111 616.510 C 691.975 614.591, 694.020 613.017, 694.655 613.011 C 695.744 613.001, 703.010 607.623, 705.757 604.795 C 719.079 591.078, 724.708 584.699, 728.361 579.179 C 734.053 570.580, 742.813 554.299, 746.482 545.500 C 747.400 543.300, 749.691 538.280, 751.575 534.345 C 753.459 530.410, 755 526.467, 755 525.582 C 755 524.697, 755.433 523.191, 755.962 522.236 C 758.454 517.741, 762.332 508.374, 762.145 507.302 C 762.030 506.643, 762.880 505.600, 764.033 504.982 C 765.628 504.129, 765.866 503.544, 765.030 502.536 C 764.214 501.553, 764.326 500.817, 765.465 499.677 C 766.309 498.833, 767 497.462, 767 496.630 C 767 495.799, 767.392 494.876, 767.871 494.580 C 768.350 494.284, 769.023 492.637, 769.366 490.921 C 769.709 489.205, 771.053 486.537, 772.352 484.993 C 773.652 483.449, 775.009 480.344, 775.369 478.093 C 775.729 475.842, 776.420 474, 776.903 474 C 777.387 474, 778.087 472.790, 778.458 471.311 C 778.829 469.832, 780.003 467.400, 781.066 465.907 C 782.130 464.413, 783 462.732, 783 462.170 C 783 461.608, 784.800 457.427, 787 452.877 C 789.200 448.328, 791 443.340, 791 441.792 C 791 440.244, 791.936 436.986, 793.081 434.552 C 794.225 432.117, 795.301 427.735, 795.472 424.813 C 795.819 418.882, 797.611 411.174, 799.044 409.447 C 799.560 408.825, 799.711 408.044, 799.379 407.712 C 798.479 406.813, 800.969 397.310, 803.621 391.516 C 805.945 386.440, 806.500 382.325, 807.462 363.011 C 807.722 357.792, 808.400 353.367, 808.968 353.177 C 810.289 352.737, 810.293 348.901, 808.975 345.435 C 808.412 343.953, 807.469 333.011, 806.880 321.120 C 805.860 300.521, 805.672 299.199, 802.904 293.138 C 801.307 289.638, 800 286.133, 800 285.347 C 800 283.905, 792.525 269.310, 790.885 267.550 C 790.398 267.028, 790 266.015, 790 265.300 C 790 264.585, 789.212 263.168, 788.250 262.150 C 784.783 258.486, 783.175 256.159, 783.727 255.606 C 784.036 255.297, 781.976 252.672, 779.148 249.772 C 776.320 246.872, 774.005 243.938, 774.003 243.250 C 774.001 242.563, 773.550 242, 773 242 C 772.450 242, 772 241.354, 772 240.563 C 772 239.773, 768.762 236.286, 764.804 232.813 C 760.846 229.341, 756.471 225.262, 755.081 223.750 C 753.692 222.238, 752.175 221, 751.710 221 C 750.796 221, 745.204 216.666, 738.625 210.860 C 736.356 208.858, 732.475 206.175, 730 204.899 C 727.525 203.623, 722.365 200.424, 718.534 197.789 C 714.703 195.155, 711.169 193, 710.681 193 C 710.193 193, 707.666 191.088, 705.064 188.750 C 702.463 186.412, 697.672 183.420, 694.417 182.101 C 691.163 180.781, 687.790 179.094, 686.921 178.351 C 686.053 177.608, 684.691 177, 683.894 177 C 683.097 177, 681.446 176.301, 680.226 175.446 C 676.704 172.979, 661.599 168.079, 654.233 167.013 C 646.959 165.961, 641.432 165.954, 630.500 166.981" stroke="#aa444d" fill="#aa444d" fill-opacity="0.2" fill-rule="evenodd"/><path class="svg-region-Or" d="M 1168.500 151.862 C 1163.550 152.845, 1157.426 154.574, 1154.892 155.705 C 1152.358 156.836, 1147.183 158.523, 1143.392 159.453 C 1130.358 162.651, 1119.701 167.569, 1109.500 175.092 C 1104.005 179.144, 1096.544 183.065, 1090.771 184.934 C 1084.728 186.890, 1061 206.107, 1061 209.045 C 1061 209.490, 1059.987 210.675, 1058.750 211.677 C 1055.649 214.189, 1048.849 223.568, 1046.190 229 C 1043.933 233.612, 1041.683 237.589, 1038.837 242 C 1037.950 243.375, 1036.909 246.300, 1036.523 248.500 C 1036.137 250.700, 1035.476 252.950, 1035.055 253.500 C 1033.993 254.885, 1032 263.340, 1032 266.456 C 1032 267.870, 1031.580 269.809, 1031.066 270.764 C 1030.553 271.719, 1029.353 278.125, 1028.400 285 C 1026.206 300.837, 1026.465 321.914, 1029.064 338.898 C 1031.571 355.285, 1031.242 353.840, 1034.607 363.250 C 1034.952 364.212, 1035.533 365, 1035.899 365 C 1036.264 365, 1036.662 366.192, 1036.783 367.649 C 1036.904 369.106, 1037.416 370.797, 1037.923 371.407 C 1039.027 372.737, 1041.611 379.663, 1043.507 386.374 C 1044.265 389.055, 1045.754 392.205, 1046.816 393.374 C 1049.344 396.157, 1053.999 404.668, 1053.348 405.319 C 1052.795 405.871, 1055.677 410.887, 1057.474 412.500 C 1058.087 413.050, 1060.764 417.775, 1063.424 423 C 1066.083 428.225, 1069.214 433.547, 1070.380 434.826 C 1073.001 437.703, 1080.281 449.118, 1082.926 454.500 C 1084.008 456.700, 1086.041 460.050, 1087.446 461.944 C 1088.851 463.839, 1090 465.976, 1090 466.694 C 1090 467.412, 1090.398 468, 1090.883 468 C 1091.780 468, 1093.160 471.263, 1093.422 474 C 1093.880 478.792, 1096.895 488.809, 1098.539 491 C 1099.158 491.825, 1100.687 494.975, 1101.936 498 C 1103.185 501.025, 1104.611 503.928, 1105.104 504.450 C 1105.597 504.973, 1106 506.035, 1106 506.811 C 1106 508.751, 1112.998 522.753, 1114.655 524.129 C 1115.395 524.743, 1116 526.033, 1116 526.996 C 1116 531.551, 1127.210 547.681, 1136.353 556.283 C 1141.312 560.949, 1157.958 572.162, 1162.485 573.887 C 1164.970 574.834, 1187.698 586.068, 1189.458 587.219 C 1190.535 587.924, 1192.029 589.063, 1192.779 589.750 C 1193.529 590.438, 1194.579 591, 1195.111 591 C 1196.599 591, 1209 603.678, 1209 605.200 C 1209 605.938, 1211.843 609.470, 1215.317 613.049 C 1221.361 619.274, 1227.097 623.175, 1242.500 631.537 C 1246.350 633.627, 1251.300 636.370, 1253.500 637.631 C 1258.018 640.223, 1273.855 648, 1274.614 648 C 1274.887 648, 1276.998 648.858, 1279.305 649.907 C 1290.289 654.899, 1295.343 657.001, 1296.374 657.006 C 1296.993 657.010, 1298.850 657.718, 1300.500 658.580 C 1302.150 659.443, 1308.675 661.946, 1315 664.143 C 1321.325 666.340, 1331 669.702, 1336.500 671.614 C 1342 673.525, 1350.100 675.742, 1354.500 676.539 C 1358.900 677.336, 1366.325 678.880, 1371 679.970 C 1386.002 683.469, 1390.076 682.884, 1406.511 674.879 C 1413.576 671.437, 1417.107 668.894, 1423.005 663 C 1432.151 653.860, 1445.903 635.007, 1452.025 623.216 C 1461.511 604.947, 1463.728 598.269, 1470.196 568.500 C 1471.900 560.657, 1471.911 527.854, 1470.214 514 C 1468.767 502.192, 1463.840 480.069, 1460.970 472.500 C 1454.982 456.705, 1449.174 428.677, 1446.464 402.500 C 1445.287 391.133, 1442.882 377.579, 1440.697 370 C 1438.162 361.206, 1428.867 339.698, 1426.402 336.921 C 1425.631 336.053, 1425 334.859, 1425 334.267 C 1425 333.676, 1423.230 329.436, 1421.067 324.846 C 1418.903 320.256, 1414.595 310.650, 1411.493 303.500 C 1408.391 296.350, 1403.805 286, 1401.301 280.500 C 1398.798 275, 1395.641 268.025, 1394.285 265 C 1386.484 247.590, 1378.208 232.500, 1372.347 225 C 1369.983 221.975, 1366.801 217.841, 1365.275 215.814 C 1361.969 211.422, 1348.819 201.540, 1340.470 197.173 C 1326.214 189.717, 1306.120 181.995, 1281.500 174.510 C 1260.660 168.175, 1257.445 167.233, 1240.500 162.509 C 1231.150 159.902, 1218.775 156.205, 1213 154.295 C 1203.755 151.236, 1201.006 150.776, 1190 150.448 C 1180.771 150.174, 1175.145 150.544, 1168.500 151.862" stroke="#aa444d" fill="#aa444d" fill-opacity="0.2" fill-rule="evenodd"/>
    </svg>