<svg xmlns="http://www.w3.org/2000/svg" width="1921" height="1027" viewBox="0 0 1921 1027" version="1.1">
    <path class="svg-region-SF" d="M 869.253 231.930 C 863.133 234.895, 859.223 237.708, 854.093 242.838 C 845.847 251.084, 844.173 254.050, 843.356 261.866 C 842.784 267.338, 842.917 267.897, 845.119 269.312 C 846.429 270.154, 849.975 271.564, 853 272.445 C 856.025 273.327, 860.525 274.774, 863 275.661 C 870.528 278.358, 877.454 278.520, 881.567 276.093 C 884.341 274.456, 886.796 274, 892.835 274 C 897.547 274, 901.323 273.488, 902.527 272.685 C 905.496 270.706, 915.722 268.144, 922.623 267.651 C 930.382 267.096, 934.116 264.909, 939.766 257.615 C 941.384 255.526, 942 253.375, 942 249.815 C 942 243.510, 939.907 239.541, 935.229 236.971 C 933.178 235.844, 929.990 233.971, 928.145 232.808 C 922.771 229.421, 917.695 228.686, 897 228.299 L 877.500 227.934 869.253 231.930" stroke="#8c6b55" fill="#8c6b55" fill-opacity="0.2" fill-rule="evenodd"/><path class="svg-region-B" d="M 853.200 477.200 C 852.540 477.860, 852 481.026, 852 484.235 C 852 487.473, 851.384 491.056, 850.615 492.285 C 849.854 493.503, 849.220 496.593, 849.207 499.151 C 849.188 502.967, 849.691 504.288, 852.009 506.509 C 854.768 509.152, 854.802 509.311, 853.418 513.234 C 852.638 515.444, 852 517.984, 852 518.880 C 852 519.776, 850.223 523.432, 848.052 527.004 C 838.060 543.442, 836.576 548.196, 839.508 554.376 C 840.661 556.806, 840.989 558.917, 840.499 560.754 C 840.095 562.264, 839.838 565.300, 839.928 567.500 C 840.017 569.700, 840.028 578.250, 839.951 586.500 C 839.828 599.748, 839.589 601.741, 837.906 603.564 C 836.858 604.700, 836 606.860, 836 608.365 C 836 610.249, 834.831 612.176, 832.250 614.546 C 830.188 616.441, 828.275 617.999, 828 618.011 C 827.725 618.022, 826.931 618.392, 826.236 618.833 C 824.373 620.016, 827.213 625.289, 833.404 632.139 C 836.207 635.241, 839.686 639.178, 841.135 640.889 C 843.699 643.917, 843.993 643.999, 852.135 643.976 C 860.943 643.951, 863.839 643.408, 873.377 639.994 C 879.150 637.928, 879.292 637.924, 881.377 639.783 C 882.545 640.824, 885.075 642.272, 887 643 C 892.813 645.198, 894.717 647.576, 895.466 653.575 C 895.839 656.559, 896.550 659, 897.046 659 C 898.534 659, 901.127 664.921, 900.905 667.809 C 900.487 673.246, 901.083 674.845, 905.054 678.937 C 908.578 682.567, 909.593 683.074, 912.804 682.807 C 916.002 682.541, 916.543 682.129, 916.816 679.750 C 916.991 678.237, 918.035 676.516, 919.138 675.926 C 920.947 674.958, 921.076 674.223, 920.455 668.426 C 919.773 662.058, 919.790 662, 922.261 662 C 923.633 662, 925.315 661.325, 926 660.500 C 928.520 657.464, 934.827 659.884, 935.694 664.220 C 936.586 668.679, 940.666 671.309, 945.497 670.538 C 947.699 670.186, 950.497 669.247, 951.715 668.449 C 952.933 667.652, 954.665 667, 955.564 667 C 956.462 667, 958.503 665.602, 960.099 663.894 C 962.243 661.599, 963 659.800, 963 657.002 C 963 651.628, 968.390 644.854, 972.088 645.580 C 974.260 646.006, 975.114 645.426, 977.400 641.971 C 979.311 639.083, 979.825 637.493, 979.119 636.644 C 977.742 634.985, 978.525 634.131, 985.906 629.243 C 992.059 625.168, 996.533 623.986, 998.550 625.903 C 999.072 626.400, 1000.380 626.964, 1001.456 627.158 C 1002.559 627.357, 1003.670 628.599, 1004.002 630.005 C 1004.482 632.036, 1005.234 632.522, 1008.046 632.618 C 1009.946 632.683, 1013.216 633.757, 1015.314 635.004 C 1017.444 636.272, 1019.469 636.882, 1019.903 636.386 C 1020.999 635.133, 1022.995 624.985, 1022.725 622.034 C 1022.530 619.898, 1023.011 619.483, 1026.318 618.931 C 1031.957 617.988, 1033.333 616.093, 1033.333 609.267 C 1033.333 601.524, 1031.485 598.833, 1024.695 596.693 C 1020.191 595.273, 1019.016 594.366, 1017.009 590.758 C 1015.707 588.416, 1013.823 585.773, 1012.822 584.884 C 1011.229 583.469, 1010.967 581.238, 1010.710 566.884 C 1010.474 553.752, 1010.055 549.656, 1008.599 546.250 C 1007.600 543.913, 1006.382 542, 1005.891 542 C 1005.401 542, 1005 541.138, 1005 540.083 C 1005 539.029, 1004.568 538.017, 1004.041 537.833 C 1003.513 537.650, 1002.405 533.310, 1001.579 528.190 C 1000.531 521.690, 999.177 517.304, 997.093 513.663 C 993.598 507.555, 991.464 499.351, 992.914 497.604 C 993.449 496.959, 993.990 492.369, 994.118 487.403 C 994.430 475.233, 993.001 473.026, 989 479.500 C 987.123 482.537, 986.318 483, 982.918 483 C 980.521 483, 978.320 483.679, 977.248 484.750 C 973.336 488.656, 960.101 499.876, 958.212 500.886 C 957.100 501.482, 954.431 503.710, 952.281 505.839 C 950.131 507.968, 947.908 509.887, 947.343 510.105 C 946.777 510.322, 944.115 513.425, 941.427 517 C 938.740 520.575, 935.520 524.620, 934.271 525.989 C 933.022 527.359, 931.326 529.834, 930.501 531.489 C 926.296 539.928, 921.797 542.061, 920.367 536.293 C 919.986 534.757, 917.316 530.713, 914.434 527.307 C 911.551 523.901, 908.587 520.271, 907.847 519.241 C 907.106 518.211, 905.706 517.072, 904.735 516.710 C 903.764 516.348, 902.564 514.984, 902.068 513.679 C 901.572 512.374, 898.991 509.695, 896.333 507.726 C 882.343 497.360, 878.060 493.857, 873.500 489.056 C 862.850 477.843, 860.614 476.025, 857.450 476.012 C 855.773 476.006, 853.860 476.540, 853.200 477.200" stroke="#e23b33" fill="#e23b33" fill-opacity="0.2" fill-rule="evenodd"/><path class="svg-region-Ol" d="M 616 180.146 C 609.549 180.512, 602.085 181.577, 599 182.570 C 595.975 183.543, 592.575 184.243, 591.444 184.124 C 587.768 183.737, 561.905 194.344, 557.394 198.088 C 556.734 198.636, 550.188 201.108, 542.847 203.583 C 520.291 211.187, 500.955 219.858, 490.320 227.139 C 488.021 228.712, 485.433 230, 484.570 230 C 483.706 230, 483 230.348, 483 230.773 C 483 231.198, 481.538 232.337, 479.750 233.304 C 477.962 234.272, 474.977 236.399, 473.114 238.032 C 471.252 239.664, 469.340 241, 468.864 241 C 468.389 241, 467.205 241.787, 466.232 242.750 C 465.260 243.713, 462.448 246.055, 459.982 247.955 C 451.083 254.816, 436.832 269.591, 429.740 279.309 C 425.758 284.766, 420.847 291.265, 418.828 293.753 C 416.808 296.240, 413.822 301.476, 412.193 305.388 C 410.564 309.299, 406.429 318.800, 403.003 326.500 C 399.578 334.200, 395.732 343.425, 394.457 347 C 389.097 362.027, 380.404 382.770, 369.661 406.169 C 357.536 432.578, 352.550 449.185, 350.046 471.500 C 349.491 476.450, 348.084 488.375, 346.921 498 C 344.691 516.460, 344.707 538.617, 346.957 546 C 349.056 552.891, 350.536 563.898, 353.004 591 C 353.530 596.775, 354.134 602.850, 354.345 604.500 C 354.556 606.150, 355.017 609.975, 355.369 613 C 359.108 645.111, 361.430 655.938, 365.885 662.031 C 366.903 663.423, 368.737 666.524, 369.961 668.924 C 371.185 671.323, 373.626 675.359, 375.386 677.893 C 377.146 680.427, 379.776 684.556, 381.230 687.070 C 384.382 692.519, 401.618 711, 403.548 711 C 404.292 711, 405.260 711.565, 405.700 712.256 C 407.284 714.743, 421.155 723.872, 423.512 723.978 C 423.780 723.990, 424.450 724, 425 724 C 425.550 724, 426 724.645, 426 725.433 C 426 726.221, 426.979 727.176, 428.175 727.555 C 429.371 727.935, 434.433 731.830, 439.425 736.212 C 444.416 740.593, 449.175 744.475, 450 744.839 C 450.825 745.203, 453.525 746.696, 456 748.158 C 464.436 753.142, 482.632 754.995, 499.039 752.542 C 504.711 751.694, 511.428 751, 513.966 751 C 516.504 751, 521.037 750.362, 524.040 749.582 C 531.379 747.677, 542.380 746.034, 554.573 745.022 C 560.112 744.563, 566.412 743.718, 568.573 743.146 C 570.733 742.574, 576.550 741.153, 581.500 739.988 C 598.830 735.912, 611.712 728.551, 636 708.847 C 647.557 699.471, 671 676.648, 671 674.773 C 671 673.178, 677.994 666.310, 683 662.988 C 686.024 660.982, 710.590 636.777, 713.553 632.884 C 714.133 632.123, 715.933 629.025, 717.553 626 C 721.085 619.409, 721.457 618.893, 726.250 613.948 C 728.313 611.820, 730 609.666, 730 609.160 C 730 608.362, 733.868 602.937, 740.851 593.939 C 741.944 592.531, 743.150 589.715, 743.532 587.681 C 743.914 585.647, 744.974 582.974, 745.889 581.741 C 746.804 580.509, 748.145 578.150, 748.869 576.500 C 749.593 574.850, 750.820 572.223, 751.597 570.661 C 752.373 569.100, 752.743 567.393, 752.418 566.868 C 752.093 566.342, 752.265 565.370, 752.798 564.706 C 753.332 564.043, 754.082 562.038, 754.464 560.250 C 754.846 558.462, 755.501 557, 755.918 557 C 756.336 557, 756.598 555.313, 756.500 553.250 C 756.401 551.188, 756.706 548.729, 757.176 547.787 C 757.646 546.845, 758.230 544.820, 758.475 543.287 C 758.720 541.754, 759.411 538.250, 760.012 535.500 C 760.613 532.750, 761.490 527.575, 761.962 524 C 762.887 516.977, 764.652 509.422, 765.941 506.967 C 766.384 506.124, 767.056 503.874, 767.435 501.967 C 767.815 500.060, 768.495 497.375, 768.947 496 C 769.398 494.625, 770.356 491.475, 771.074 489 C 771.792 486.525, 772.969 483.612, 773.690 482.527 C 774.410 481.443, 775 479.937, 775 479.181 C 775 477.802, 781.196 463.807, 783.050 461 C 783.595 460.175, 784.753 457.925, 785.625 456 C 786.497 454.075, 789.122 449.575, 791.459 446 C 793.796 442.425, 796.419 437.250, 797.288 434.500 C 799.034 428.975, 801.055 421.444, 801.108 420.261 C 801.127 419.842, 801.748 418.825, 802.488 418 C 803.228 417.175, 803.876 415.375, 803.929 414 C 803.983 412.625, 804.287 407.900, 804.607 403.500 C 805.270 394.375, 805.288 393.419, 805.082 378.695 C 804.998 372.752, 805.221 366.339, 805.576 364.445 C 806.019 362.085, 805.847 361, 805.032 361 C 804.234 361, 804.054 360.029, 804.487 358.059 C 804.843 356.440, 804.618 354.155, 803.988 352.977 C 803.358 351.800, 802.621 346.711, 802.351 341.668 C 801.139 319.029, 801.241 320.001, 798.550 305.500 C 798.346 304.400, 797.905 302.815, 797.570 301.978 C 797.235 301.140, 796.817 297.283, 796.641 293.406 C 796.326 286.460, 795.495 283.999, 787.728 267 C 786.597 264.525, 784.621 261.228, 783.336 259.673 C 782.051 258.119, 781 256.290, 781 255.610 C 781 253.349, 775.474 249.039, 770.455 247.386 C 767.730 246.489, 762.350 244.293, 758.500 242.506 C 754.650 240.720, 749.925 238.657, 748 237.923 C 738.134 234.160, 724.135 223.722, 707.654 207.842 C 699.168 199.665, 691.107 192.890, 686.832 190.340 C 679.724 186.101, 677.727 185.575, 659 183.010 C 654.325 182.369, 648.925 181.447, 647 180.961 C 642.060 179.713, 629.456 179.381, 616 180.146 M 557 486 C 557 486.550, 557.450 487, 558 487 C 558.550 487, 559 486.550, 559 486 C 559 485.450, 558.550 485, 558 485 C 557.450 485, 557 485.450, 557 486" stroke="#aa444d" fill="#aa444d" fill-opacity="0.2" fill-rule="evenodd"/><path class="svg-region-Or" d="M 1192.710 164.032 C 1191.725 164.644, 1188.800 165.294, 1186.210 165.476 C 1168.070 166.755, 1155.726 168.144, 1151 169.437 C 1141.199 172.119, 1132.865 175.861, 1127.533 179.975 C 1124.663 182.189, 1121.809 184, 1121.191 184 C 1120.573 184, 1117.901 185.912, 1115.254 188.250 C 1112.606 190.588, 1108.091 194.280, 1105.220 196.455 C 1102.349 198.631, 1100 200.732, 1100 201.124 C 1100 201.516, 1098.313 202.856, 1096.250 204.102 C 1094.188 205.348, 1091.109 207.522, 1089.408 208.933 C 1087.707 210.345, 1085.270 212.175, 1083.993 213 C 1082.715 213.825, 1080.844 215.287, 1079.835 216.250 C 1078.826 217.213, 1077.751 218, 1077.446 218 C 1077.141 218, 1075.453 219.348, 1073.696 220.995 C 1071.938 222.643, 1070.092 223.993, 1069.594 223.995 C 1069.096 223.998, 1067.214 225.125, 1065.411 226.500 C 1063.608 227.875, 1061.717 229, 1061.208 229 C 1060.698 229, 1058.306 230.721, 1055.891 232.824 C 1053.476 234.927, 1050.708 236.939, 1049.741 237.296 C 1048.773 237.653, 1048.098 238.303, 1048.241 238.741 C 1048.383 239.180, 1047.447 240.655, 1046.161 242.019 C 1037.316 251.400, 1028.705 270.385, 1027.020 284.222 C 1025.061 300.306, 1024.099 306.597, 1022.922 311.024 C 1021.483 316.435, 1020.779 327.102, 1020.710 344.500 C 1020.670 354.832, 1021.125 359.347, 1022.930 366.500 C 1024.179 371.450, 1025.606 375.928, 1026.101 376.450 C 1026.595 376.972, 1027 379.533, 1027 382.141 C 1027 384.749, 1027.414 387.138, 1027.919 387.450 C 1028.425 387.762, 1029.330 390.311, 1029.931 393.113 C 1030.532 395.915, 1033.268 402.850, 1036.012 408.524 C 1038.755 414.198, 1041 419.120, 1041 419.462 C 1041 419.804, 1041.862 421.009, 1042.916 422.141 C 1043.970 423.272, 1045.124 425.391, 1045.480 426.849 C 1046.074 429.283, 1050.584 436.811, 1052.168 438.010 C 1052.538 438.291, 1053.151 439.753, 1053.529 441.260 C 1053.907 442.767, 1054.629 444, 1055.133 444 C 1055.637 444, 1056.438 445.012, 1056.913 446.250 C 1057.389 447.488, 1059.402 450.908, 1061.389 453.850 C 1063.375 456.793, 1065 459.649, 1065 460.196 C 1065 461.425, 1067.449 466.245, 1072.460 474.876 C 1073.857 477.283, 1075 479.870, 1075 480.626 C 1075 481.382, 1075.338 482.001, 1075.750 482.001 C 1077.615 482.005, 1085.337 499.568, 1090.631 515.850 C 1091.999 520.058, 1093.488 524.400, 1093.940 525.500 C 1094.391 526.600, 1095.598 529.525, 1096.622 532 C 1097.645 534.475, 1101.568 541.115, 1105.338 546.755 C 1113.383 558.789, 1135.590 581.624, 1146.909 589.500 C 1150.860 592.250, 1157.714 597.313, 1162.139 600.750 C 1166.563 604.188, 1170.592 607, 1171.092 607 C 1171.592 607, 1174.385 609.363, 1177.300 612.250 C 1180.215 615.138, 1184.374 619.075, 1186.541 621 C 1188.709 622.925, 1194.762 628.301, 1199.991 632.947 C 1205.221 637.592, 1210.342 642.458, 1211.372 643.759 C 1213.251 646.135, 1214.652 647.185, 1225.582 654.414 C 1228.837 656.567, 1231.725 658.627, 1232 658.993 C 1232.275 659.358, 1234.750 660.794, 1237.500 662.184 C 1243.934 665.435, 1255.822 667.829, 1274 669.534 C 1282.421 670.324, 1292.064 671.915, 1297 673.329 C 1301.675 674.668, 1307.243 676.072, 1309.373 676.450 C 1311.503 676.828, 1313.978 677.504, 1314.873 677.952 C 1318.911 679.974, 1321.820 681.040, 1326 682.027 C 1328.475 682.612, 1333.425 683.791, 1337 684.646 C 1346.160 686.839, 1366.523 687.269, 1377.105 685.494 C 1400.622 681.548, 1411.221 676.178, 1424.709 661.372 C 1439.741 644.873, 1446.864 630.008, 1457.952 592 C 1459.155 587.875, 1460.581 583.150, 1461.121 581.500 C 1465.090 569.368, 1467.577 525.878, 1465.112 511.723 C 1464.130 506.083, 1463.162 492.613, 1461.466 461 C 1461.215 456.325, 1460.784 440.800, 1460.508 426.500 C 1459.938 397.031, 1457.512 374.659, 1453.405 361 C 1452 356.325, 1450.622 351.600, 1450.345 350.500 C 1448.462 343.038, 1438.405 321.618, 1432.192 311.835 C 1428.697 306.332, 1422.714 297.412, 1420.900 295 C 1419.866 293.625, 1417.793 290.475, 1416.294 288 C 1413.727 283.762, 1406.953 274.183, 1404.244 270.960 C 1403.569 270.157, 1400.390 265.900, 1397.179 261.500 C 1391.436 253.630, 1371.766 233.133, 1364.791 227.752 C 1360.072 224.111, 1351.877 218.534, 1350 217.687 C 1349.175 217.315, 1346.250 215.703, 1343.500 214.104 C 1336.424 209.991, 1327.038 205.493, 1322.431 204.007 C 1320.269 203.310, 1318.026 202.367, 1317.447 201.911 C 1316.868 201.455, 1311.918 199.531, 1306.447 197.634 C 1300.976 195.737, 1293.800 193.068, 1290.500 191.704 C 1287.200 190.339, 1280.450 187.579, 1275.500 185.569 C 1270.550 183.559, 1265.150 181.294, 1263.500 180.534 C 1261.850 179.775, 1258.700 178.499, 1256.500 177.700 C 1254.300 176.901, 1248.225 174.580, 1243 172.543 C 1231.523 168.068, 1221.399 165.281, 1214 164.561 C 1198.850 163.086, 1194.409 162.976, 1192.710 164.032" stroke="#aa444d" fill="#aa444d" fill-opacity="0.2" fill-rule="evenodd"/>
    </svg>