<svg xmlns="http://www.w3.org/2000/svg" width="1921" height="1027" viewBox="0 0 1921 1027" version="1.1">
    <path class="svg-region-SF" d="M 894 203.988 C 889.875 204.401, 881.582 204.797, 875.570 204.869 C 864.753 204.999, 855.558 206.941, 849 210.482 C 847.625 211.225, 843.214 213.510, 839.198 215.561 C 829.906 220.306, 825.813 225.253, 816.060 243.525 C 815.172 245.189, 813.234 248.138, 811.753 250.079 C 808.565 254.259, 806 260.072, 806 263.118 C 806 264.319, 804.823 267.706, 803.385 270.645 C 798.117 281.413, 799.339 294.741, 806.117 300.445 C 809.541 303.326, 815.166 305.074, 819.497 304.604 C 821.146 304.424, 824.946 305.121, 827.942 306.152 C 834.622 308.450, 838.253 307.557, 842.714 302.519 C 845.343 299.550, 846.209 299.159, 849.127 299.630 C 851.298 299.981, 854.345 299.446, 857.677 298.131 C 860.524 297.007, 866.945 295.377, 871.946 294.509 C 888.859 291.575, 940.885 289.865, 946.643 292.055 C 948.169 292.635, 953.717 293.371, 958.972 293.691 C 967.472 294.209, 969.354 293.994, 976.013 291.744 C 993.677 285.777, 1004.247 280.799, 1006.475 277.398 C 1008.251 274.688, 1008.491 266.399, 1006.911 262.315 C 1006.312 260.767, 1005.649 258.640, 1005.438 257.589 C 1005.226 256.538, 1003.916 253.960, 1002.526 251.861 C 1001.137 249.761, 1000 247.652, 1000 247.174 C 1000 246.696, 997.188 243.749, 993.750 240.625 C 990.313 237.501, 986.150 233.664, 984.500 232.099 C 966.725 215.229, 938.922 204.425, 911 203.539 C 905.775 203.373, 898.125 203.575, 894 203.988" stroke="#8c6b55" fill="#8c6b55" fill-opacity="0.2" fill-rule="evenodd"/><path class="svg-region-IF" d="M 896 292.045 C 879.315 292.948, 865.102 295.201, 857.710 298.114 C 854.371 299.430, 851.453 299.932, 849.391 299.546 C 846.653 299.032, 845.639 299.504, 842.026 302.975 C 839.722 305.189, 837.231 307, 836.491 307 C 835.751 307, 834.283 308.096, 833.230 309.435 C 831.465 311.679, 831.329 313.537, 831.500 333.185 C 831.713 357.608, 831.844 358.145, 840.209 368.764 C 848.140 378.833, 856.510 386.734, 860.076 387.517 C 863.907 388.358, 871.545 387.287, 875.203 385.395 C 876.937 384.498, 879.958 384.124, 883.482 384.369 C 886.533 384.581, 892.286 384.190, 896.265 383.501 C 900.244 382.812, 908.900 381.487, 915.500 380.557 C 922.100 379.627, 929.975 378.463, 933 377.968 C 936.025 377.474, 940.750 376.797, 943.500 376.463 C 952.415 375.380, 957.746 372.113, 969.235 360.694 C 981.194 348.807, 983.002 345.906, 986.066 333.690 L 988.207 325.153 985.962 317.590 C 983.883 310.587, 983.319 309.726, 978.362 305.983 C 975.417 303.760, 972.252 300.788, 971.329 299.379 C 970.406 297.970, 968.492 296.368, 967.075 295.818 C 957.333 292.036, 926.461 290.398, 896 292.045" stroke="#f2823b" fill="#f2823b" fill-opacity="0.2" fill-rule="evenodd"/><path class="svg-region-B" d="M 955.465 514.952 C 954.346 515.405, 952.829 516.502, 952.093 517.388 C 951.357 518.275, 950.432 519, 950.037 519 C 949.642 519, 944.410 521.622, 938.410 524.826 C 932.409 528.030, 924.895 531.504, 921.710 532.546 C 916.170 534.360, 915.712 534.367, 911.076 532.721 C 908.412 531.774, 905.283 531, 904.125 531 C 902.966 531, 898.830 529.575, 894.935 527.833 C 889.235 525.284, 887.329 524.849, 885.176 525.604 C 882.594 526.509, 882.490 526.841, 882.206 535.016 C 882.044 539.676, 881.481 543.919, 880.956 544.444 C 880.430 544.970, 879.993 546.998, 879.985 548.950 C 879.962 554.194, 878.823 555.333, 873.601 555.333 C 867.607 555.333, 866.139 553.886, 860.472 542.391 C 856.586 534.507, 855.465 533, 853.489 533 C 850.537 533, 849.777 535.296, 851.007 540.500 C 852.473 546.702, 852.219 556.328, 850.532 558.559 C 849.649 559.726, 849.051 562.785, 849.032 566.229 C 849.014 569.380, 848.033 574.905, 846.850 578.507 L 844.701 585.055 847.877 589.479 C 852.435 595.826, 854 601.119, 854 610.191 C 854 614.558, 854.474 619.017, 855.053 620.099 C 855.805 621.504, 855.763 623.012, 854.907 625.382 C 853.009 630.630, 854.323 633.741, 858.968 634.991 C 861.139 635.576, 863.186 636.492, 863.517 637.027 C 863.847 637.562, 864.998 638, 866.073 638 C 868.433 638, 870.941 639.377, 877 644 C 881.446 647.392, 886.688 650.324, 890.218 651.393 C 893.742 652.459, 896.892 666.712, 894 668.500 C 892.347 669.521, 892.915 676.332, 894.865 678.867 C 897.438 682.214, 899.953 681.072, 905.118 674.212 C 907.483 671.070, 909.886 667.886, 910.459 667.135 C 911.435 665.855, 914.055 663.301, 921.108 656.750 C 925.411 652.754, 925.554 652.813, 932.507 661.500 C 935.149 664.800, 937.463 667.685, 937.649 667.911 C 937.836 668.137, 939.562 667.474, 941.486 666.438 C 944.869 664.616, 948 659.887, 948 656.598 C 948 654.611, 955.379 647.328, 958.326 646.406 C 959.522 646.032, 961.772 644.663, 963.327 643.363 C 964.881 642.063, 966.599 641, 967.143 641 C 969.044 641, 975.130 635.649, 976.713 632.586 C 977.591 630.889, 979.644 627.838, 981.276 625.807 C 983.743 622.736, 984.135 621.535, 983.601 618.686 C 983.229 616.701, 983.598 612.801, 984.479 609.419 C 985.316 606.208, 986 601.225, 986 598.347 C 986 593.471, 988.896 586.155, 991.217 585.167 C 991.648 584.983, 992 584.248, 992 583.532 C 992 582.816, 993.170 581.463, 994.600 580.526 C 996.985 578.964, 997.144 578.437, 996.522 574.161 C 996.149 571.598, 994.661 567.475, 993.216 565 C 991.771 562.525, 989.591 557.660, 988.370 554.190 C 986.369 548.499, 986.207 546.615, 986.724 535.004 C 987.311 521.808, 986.459 516.774, 983.445 515.617 C 981.574 514.899, 978.496 519.058, 976.041 525.621 C 974.586 529.510, 974 533.468, 974 539.415 C 974 550.043, 973.129 550.961, 966.398 547.428 C 963.704 546.014, 960.222 543.603, 958.660 542.069 L 955.819 539.281 956.835 528.890 C 957.394 523.176, 958.162 517.487, 958.542 516.250 C 959.276 513.861, 958.728 513.629, 955.465 514.952" stroke="#e23b33" fill="#e23b33" fill-opacity="0.2" fill-rule="evenodd"/><path class="svg-region-Ol" d="M 600.500 190.627 C 599.400 190.906, 595.575 191.985, 592 193.026 C 588.425 194.067, 580.578 196.107, 574.562 197.559 C 568.546 199.012, 562.686 200.815, 561.538 201.567 C 560.390 202.319, 555.412 204.247, 550.476 205.851 C 530.235 212.429, 514.389 219.610, 499.500 228.950 C 497.300 230.330, 494.384 232.058, 493.019 232.790 C 490.488 234.148, 488.431 235.631, 474.671 246.023 C 446.930 266.972, 417.363 300.625, 404.469 325.927 C 402.550 329.691, 400.310 333.328, 399.490 334.008 C 398.671 334.688, 398 335.688, 398 336.229 C 398 336.770, 396.638 338.932, 394.973 341.034 C 393.308 343.136, 391.445 346.351, 390.832 348.178 C 390.218 350.005, 389.158 352.175, 388.476 353 C 387.345 354.368, 370.739 387.825, 364.653 401 C 361.496 407.834, 349.292 430.943, 348.050 432.440 C 346.054 434.845, 339.882 453.904, 338.964 460.500 C 332.546 506.606, 331.917 525.289, 336.118 545.089 C 338.906 558.231, 339.093 573.559, 336.587 583.500 C 334.211 592.923, 333.405 610.047, 334.951 618.242 C 336.645 627.218, 346.231 645.962, 356.198 659.784 C 363.238 669.549, 390.656 698.079, 401.730 707.164 C 410.206 714.118, 427.936 723.471, 441.157 727.963 C 453.820 732.266, 471.068 733.712, 489.760 732.040 C 497.053 731.387, 507.881 730.672, 513.824 730.451 C 535.729 729.635, 551.157 727.262, 558.558 723.571 C 560.176 722.764, 563.975 721.449, 567 720.649 C 570.025 719.849, 574.543 718.307, 577.040 717.223 C 579.537 716.138, 583.019 714.935, 584.778 714.549 C 586.538 714.162, 588.234 713.431, 588.548 712.923 C 588.861 712.415, 589.776 712, 590.579 712 C 592.320 712, 606.067 705.380, 614.500 700.481 C 617.800 698.564, 622.700 695.832, 625.389 694.410 C 628.198 692.925, 635.004 687.047, 641.389 680.591 C 653.468 668.378, 660.797 661.704, 668.943 655.500 C 671.831 653.300, 677.401 648.913, 681.319 645.750 C 685.238 642.587, 688.857 640, 689.361 640 C 689.866 640, 693.254 637.625, 696.889 634.723 C 700.525 631.821, 704.625 628.718, 706 627.828 C 707.375 626.937, 709.494 625.262, 710.708 624.105 C 711.923 622.947, 713.463 622, 714.132 622 C 714.801 622, 721.952 615.298, 730.025 607.107 C 743.198 593.739, 744.982 591.512, 747.436 585.357 C 748.940 581.586, 750.977 577.150, 751.963 575.500 C 752.949 573.850, 754.758 568.225, 755.983 563 C 757.209 557.775, 759.064 551.392, 760.106 548.815 C 761.148 546.238, 762 542.863, 762 541.315 C 762 536.585, 764.786 523.700, 766.582 520.118 C 767.515 518.258, 769.069 512.408, 770.036 507.118 C 772.262 494.944, 778.857 476.826, 783.364 470.505 C 785.700 467.230, 789.919 459.011, 789.969 457.640 C 789.986 457.167, 792.218 454.353, 794.929 451.387 C 799.433 446.459, 804 437.428, 804 433.449 C 804 432.637, 804.424 431.191, 804.942 430.236 C 807.769 425.027, 809 413.171, 809.001 391.127 C 809.003 367.054, 809.170 368.489, 801.381 325.500 C 798.515 309.681, 797.468 306.012, 794.367 300.918 C 793.168 298.947, 791.732 295.797, 791.176 293.918 C 789.518 288.313, 785.943 278.790, 784.314 275.641 C 782.358 271.859, 773.913 263, 772.264 263 C 771.569 263, 771 262.528, 771 261.952 C 771 258.596, 759.035 251.731, 750.178 250.005 C 747.055 249.396, 742.377 248.483, 739.782 247.974 C 733.457 246.735, 718.882 239.847, 713.692 235.644 C 711.386 233.777, 708.034 231.505, 706.243 230.595 C 704.452 229.686, 698.888 225.017, 693.879 220.221 C 684.284 211.033, 681.589 209.225, 665.500 201.183 C 654.505 195.687, 647.592 193.553, 635.500 191.922 C 626.470 190.704, 603.543 189.855, 600.500 190.627" stroke="#aa444d" fill="#aa444d" fill-opacity="0.2" fill-rule="evenodd"/><path class="svg-region-Or" d="M 1202.331 161.057 C 1198.938 161.499, 1190.613 163.495, 1183.831 165.492 C 1146.362 176.527, 1146.909 176.324, 1133.425 184.171 C 1128.984 186.756, 1123.809 190.334, 1121.925 192.123 C 1113.468 200.155, 1096.606 214, 1095.282 214 C 1094.797 214, 1093.890 214.510, 1093.266 215.134 C 1092.072 216.328, 1078.554 222, 1076.903 222 C 1073.656 222, 1055.039 241.020, 1055.008 244.369 C 1055.004 244.847, 1053.363 247.934, 1051.361 251.228 C 1049.360 254.523, 1046.458 259.828, 1044.913 263.018 C 1043.368 266.208, 1041.578 269.143, 1040.935 269.540 C 1039.065 270.696, 1033.316 284.134, 1032.154 290.066 C 1031.568 293.055, 1030.785 298.650, 1030.412 302.500 C 1030.040 306.350, 1029.302 310.625, 1028.772 312 C 1025.427 320.678, 1022.805 335.955, 1023.108 345 C 1023.191 347.475, 1023.368 354, 1023.501 359.500 C 1023.634 365, 1024.234 371.750, 1024.834 374.500 C 1025.434 377.250, 1026.227 381.075, 1026.597 383 C 1026.967 384.925, 1027.850 386.841, 1028.560 387.258 C 1029.269 387.674, 1030.380 389.699, 1031.027 391.758 C 1031.674 393.816, 1033.733 398.654, 1035.602 402.509 C 1037.471 406.364, 1039 409.934, 1039 410.443 C 1039 411.336, 1040.259 414.246, 1045.732 426 C 1047.140 429.025, 1049.749 433.207, 1051.530 435.294 C 1053.311 437.381, 1055.027 440.383, 1055.343 441.965 C 1055.659 443.547, 1058.013 447.200, 1060.574 450.083 C 1063.135 452.966, 1066.520 458.065, 1068.097 461.413 C 1071.475 468.583, 1072.576 470.389, 1076.250 474.782 C 1077.763 476.590, 1079 478.735, 1079 479.548 C 1079 480.362, 1079.450 481.809, 1080 482.764 C 1080.549 483.719, 1081.456 485.625, 1082.014 487 C 1082.573 488.375, 1083.918 490.850, 1085.004 492.500 C 1087.553 496.374, 1087.700 496.715, 1088.978 501.708 C 1089.570 504.022, 1090.492 506.186, 1091.027 506.517 C 1091.562 506.847, 1092 508.116, 1092 509.337 C 1092 510.557, 1092.611 512.443, 1093.357 513.527 C 1094.104 514.612, 1095.299 517.975, 1096.012 521 C 1096.725 524.025, 1097.672 527.175, 1098.116 528 C 1100.068 531.631, 1104 540.783, 1104 541.696 C 1104 542.248, 1105.350 544.564, 1107 546.841 C 1108.650 549.119, 1110 551.197, 1110 551.460 C 1110 552.985, 1119.059 564.583, 1125.261 571 C 1135.238 581.322, 1138.791 584.291, 1145.791 588.161 C 1149.113 589.998, 1155.581 594.933, 1160.165 599.128 C 1168.033 606.328, 1176.935 613.720, 1190.123 624 C 1195.491 628.185, 1209.580 639.998, 1216.500 646.116 C 1228.938 657.113, 1232.961 660.371, 1236.184 662.052 C 1238.210 663.109, 1240.527 664.914, 1241.332 666.064 C 1243.243 668.792, 1255.603 676, 1258.371 676 C 1259.553 676, 1261.641 677.013, 1263.010 678.250 C 1265.754 680.730, 1268.699 682.272, 1274 684.005 C 1275.925 684.634, 1278.850 686.009, 1280.500 687.060 C 1287.609 691.587, 1297.416 693.811, 1315.500 694.998 C 1322.650 695.467, 1335.475 696.384, 1344 697.036 C 1362.650 698.463, 1389.823 697.759, 1399.500 695.599 C 1408.628 693.561, 1412.308 691.939, 1425.292 684.229 C 1445.401 672.289, 1460.692 655.008, 1474.768 628.311 C 1483.146 612.424, 1485.013 607.434, 1490.601 586 C 1495.541 567.053, 1495.893 535.890, 1492.412 425.500 C 1491.189 386.691, 1482.481 358.163, 1462.852 328.648 C 1452.211 312.650, 1446.633 303.937, 1443.715 298.761 C 1442.183 296.043, 1439.038 291.273, 1436.725 288.160 C 1434.413 285.047, 1430.633 279.575, 1428.326 276 C 1423.324 268.248, 1419.237 262.607, 1416.486 259.659 C 1415.378 258.471, 1413.892 256.360, 1413.182 254.966 C 1409.610 247.945, 1385.449 222.667, 1374.325 214.312 C 1370.021 211.080, 1363.800 206.820, 1360.500 204.845 C 1354.544 201.280, 1339.032 194, 1337.393 194 C 1336.923 194, 1334.280 193.115, 1331.519 192.034 C 1310.130 183.656, 1262.856 167.966, 1254.793 166.568 C 1252.754 166.215, 1249.152 165.070, 1246.789 164.025 C 1238.800 160.491, 1217.560 159.073, 1202.331 161.057 M 1361 213 C 1361 213.550, 1361.477 214, 1362.059 214 C 1362.641 214, 1362.840 213.550, 1362.500 213 C 1362.160 212.450, 1361.684 212, 1361.441 212 C 1361.198 212, 1361 212.450, 1361 213" stroke="#aa444d" fill="#aa444d" fill-opacity="0.2" fill-rule="evenodd"/>
    </svg>