<svg xmlns="http://www.w3.org/2000/svg" width="1921" height="1027" viewBox="0 0 1921 1027" version="1.1">
    <path class="svg-region-SF" d="M 879.593 201.417 C 877.444 202.217, 872.608 203.391, 868.847 204.026 C 865.085 204.660, 861.754 205.589, 861.445 206.090 C 861.135 206.590, 857.532 207, 853.437 207 C 846.684 207, 845.120 207.416, 836.599 211.478 C 828.275 215.447, 825.903 217.239, 815.749 227.228 C 809.448 233.428, 803.715 239.625, 803.009 241 C 802.303 242.375, 800.246 244.743, 798.437 246.262 C 796.627 247.781, 794.611 250.706, 793.955 252.762 C 793.300 254.818, 792.176 257.850, 791.457 259.500 C 789.012 265.110, 787.697 272.479, 787.281 282.909 L 786.865 293.318 791.503 302.661 C 794.053 307.800, 796.896 312.392, 797.820 312.865 C 798.744 313.339, 802.810 314.020, 806.855 314.380 C 810.900 314.739, 815.163 315.701, 816.327 316.517 C 819.941 319.048, 823.007 318.318, 827.180 313.932 C 831.066 309.846, 844.152 303, 848.075 303 C 849.156 303, 852.840 301.862, 856.261 300.472 C 861.964 298.155, 863.610 297.959, 875.992 298.130 C 883.421 298.232, 890.983 297.980, 892.794 297.569 C 894.606 297.158, 898.656 296.698, 901.794 296.547 C 904.933 296.396, 912.225 295.692, 918 294.982 C 935.146 292.874, 945.390 293.099, 953.500 295.762 C 957.350 297.027, 965 298.929, 970.500 299.989 C 976 301.050, 982.525 302.349, 985 302.878 C 987.475 303.406, 993.839 303.705, 999.143 303.542 C 1009.425 303.225, 1016.887 300.765, 1021.749 296.087 C 1026.769 291.258, 1030.877 278.920, 1028.533 275.715 C 1027.899 274.847, 1027.296 270.267, 1027.194 265.538 C 1027.054 259.032, 1026.492 255.912, 1024.885 252.719 C 1021.940 246.869, 1010.580 236.155, 1004.250 233.257 C 1001.362 231.935, 999 230.533, 999 230.142 C 999 228.939, 993.286 225.977, 987.856 224.364 C 985.016 223.521, 981.075 221.834, 979.097 220.615 C 971.254 215.782, 954.930 209.526, 947.500 208.505 C 946.400 208.354, 942.091 207.053, 937.925 205.615 C 933.758 204.177, 929.341 203, 928.109 203 C 926.877 203, 924.922 202.494, 923.766 201.875 C 922.503 201.199, 914.034 200.592, 902.581 200.355 C 887.575 200.045, 882.666 200.272, 879.593 201.417" stroke="#8c6b55" fill="#8c6b55" fill-opacity="0.2" fill-rule="evenodd"/><path class="svg-region-IF" d="M 929.932 293.401 C 929.282 294.052, 909.928 296.110, 900.239 296.559 C 896.245 296.744, 892.492 297.196, 891.898 297.563 C 891.305 297.930, 884.325 298.177, 876.388 298.111 C 863.092 298.002, 861.489 298.190, 856.009 300.496 C 852.737 301.873, 849.155 303, 848.048 303 C 846.942 303, 842.214 304.766, 837.542 306.924 C 829.841 310.482, 828.867 311.253, 827.118 315.174 C 825.176 319.531, 821.963 332.841, 821.987 336.436 C 822.022 341.651, 825.838 352.717, 831.492 364 C 834.937 370.875, 838.252 377.738, 838.857 379.250 C 840.352 382.987, 843.816 382.852, 847.563 378.911 C 850.317 376.014, 850.874 375.845, 856.512 376.193 C 861.021 376.472, 864.394 377.521, 870.012 380.393 C 882.694 386.877, 884.293 387.265, 898.940 387.403 C 911.447 387.521, 912.529 387.380, 914.528 385.381 C 916.672 383.237, 925.885 381.193, 927.870 382.420 C 928.400 382.747, 931.233 382.508, 934.166 381.889 C 938.383 380.999, 940.377 379.856, 943.686 376.431 C 947.892 372.077, 953.439 368.814, 962.249 365.510 L 966.999 363.729 969.233 366.569 C 970.462 368.131, 972.415 370.806, 973.573 372.512 C 977.040 377.621, 980.277 381, 981.705 381 C 983.216 381, 985 377.018, 985 373.646 C 985 372.423, 985.835 369.785, 986.856 367.783 C 989.629 362.343, 991.227 352.669, 990.510 345.654 C 990.070 341.356, 990.348 337.992, 991.429 334.500 C 993.399 328.141, 993.403 323.899, 991.443 319.218 C 990.390 316.701, 990.086 314.045, 990.504 310.994 L 991.120 306.489 985.310 303.738 C 982.115 302.224, 978.483 300.990, 977.239 300.993 C 974.081 301.003, 958.414 297.429, 953 295.464 C 948.694 293.902, 931.013 292.321, 929.932 293.401" stroke="#f2823b" fill="#f2823b" fill-opacity="0.2" fill-rule="evenodd"/><path class="svg-region-B" d="M 968 508.570 C 964.425 509.851, 960.609 510.922, 959.519 510.950 C 958.430 510.977, 955.280 511.846, 952.519 512.881 C 942.900 516.486, 940.459 517.217, 934 518.433 C 930.425 519.105, 923.766 521.308, 919.202 523.328 C 908.938 527.870, 906.028 527.928, 888.751 523.943 C 871.875 520.050, 866.013 518.178, 863.436 515.858 C 861.709 514.304, 859.705 514, 851.186 514 L 841 514 841 518.300 C 841 520.665, 841.547 523.147, 842.216 523.816 C 843.013 524.613, 843.339 527.698, 843.164 532.766 C 843.016 537.020, 843.590 545.675, 844.440 552 C 845.289 558.325, 845.994 565.975, 846.007 569 C 846.033 575.087, 847.339 579.555, 850.801 585.402 C 852.232 587.819, 853.326 591.687, 853.695 595.635 L 854.288 601.984 859.521 601.369 C 864.074 600.834, 865.044 601.044, 866.991 602.991 C 868.899 604.899, 869.163 606.023, 868.781 610.622 C 868.477 614.293, 867.656 616.737, 866.210 618.276 L 864.087 620.537 866.556 623.692 C 867.956 625.481, 870.390 627.146, 872.179 627.539 C 873.914 627.920, 876.721 629.078, 878.417 630.112 C 880.113 631.146, 882.241 631.994, 883.146 631.996 C 885.656 632.002, 890.595 638.238, 894.952 646.904 C 898.107 653.179, 899.522 654.965, 902.187 656.035 C 904.009 656.767, 906.579 658.188, 907.899 659.194 C 912.960 663.051, 932.085 659.227, 937.082 653.358 C 938.928 651.191, 942.621 642.639, 944.623 635.898 C 946.602 629.233, 950.328 625.675, 957.500 623.603 C 969.354 620.178, 971.829 617.327, 967.458 612.132 C 966.106 610.526, 965 608.669, 965 608.007 C 965 607.345, 966.800 603.067, 969 598.500 C 971.712 592.870, 973 588.846, 973 586.001 C 973 583.090, 974.275 579.232, 977.162 573.406 L 981.323 565.007 980.132 556.254 C 979.476 551.439, 978.279 542.939, 977.470 537.364 C 976.662 531.789, 976 522.451, 976 516.614 C 976 510.776, 975.663 506.054, 975.250 506.120 C 974.837 506.186, 971.575 507.289, 968 508.570" stroke="#e23b33" fill="#e23b33" fill-opacity="0.2" fill-rule="evenodd"/><path class="svg-region-Ol" d="M 582.500 195.498 C 578.100 196.854, 572.415 198.647, 569.866 199.482 C 567.317 200.317, 564.092 201, 562.699 201 C 561.306 201, 560.017 201.422, 559.833 201.937 C 559.650 202.452, 553.200 204.719, 545.500 206.975 C 515.484 215.767, 503.013 220.442, 485.927 229.306 C 453.569 246.094, 424.478 277.136, 403.583 317.173 C 401.094 321.944, 398.594 326.133, 398.028 326.482 C 397.463 326.832, 397 327.991, 397 329.059 C 397 330.127, 396.660 331, 396.243 331 C 395.827 331, 394.916 332.829, 394.219 335.064 C 393.521 337.299, 392.106 341.011, 391.073 343.314 C 390.041 345.616, 387.299 351.775, 384.980 357 C 382.661 362.225, 378.631 371, 376.025 376.500 C 373.419 382, 370.939 387.625, 370.512 389 C 369.667 391.725, 354.554 421.251, 350.134 428.813 C 348.627 431.391, 346.449 435.975, 345.294 439 C 344.139 442.025, 342.411 446.525, 341.453 449 C 340.495 451.475, 338.894 460.925, 337.896 470 C 336.897 479.075, 335.576 490.100, 334.961 494.500 C 334.345 498.900, 333.871 509.475, 333.908 518 C 333.963 531.023, 333.079 552.202, 331.459 576.678 C 331.270 579.526, 330.676 583.576, 330.138 585.678 C 328.264 593.004, 326.756 610.702, 327.165 620.566 C 327.562 630.113, 327.766 630.870, 332.424 640 C 337.726 650.394, 342.491 658.122, 345.989 662 C 347.229 663.375, 350.599 667.425, 353.478 671 C 356.357 674.575, 361.134 679.750, 364.095 682.500 C 367.056 685.250, 376.233 694.285, 384.489 702.578 C 392.745 710.871, 401.075 718.724, 403 720.030 C 404.925 721.335, 406.725 722.688, 407 723.035 C 407.760 723.995, 418.533 729.408, 427.500 733.335 C 431.900 735.262, 442.222 738.512, 450.437 740.556 C 465.020 744.185, 465.825 744.273, 484.437 744.298 C 509.169 744.331, 528.507 743.548, 538.500 742.110 C 554.372 739.826, 559.517 738.752, 560.514 737.518 C 561.072 736.828, 563.097 735.926, 565.014 735.515 C 579.491 732.411, 611.141 716.194, 622.891 705.861 C 625.306 703.738, 627.890 702, 628.633 702 C 629.376 702, 631.226 700.604, 632.742 698.897 C 634.259 697.191, 637.164 694.943, 639.199 693.903 C 643.076 691.920, 648.063 687.470, 647.801 686.227 C 647.717 685.827, 650.090 683.562, 653.074 681.194 C 658.336 677.019, 667.114 669.318, 675.104 661.866 C 677.247 659.868, 679 657.730, 679 657.116 C 679 656.502, 679.435 656, 679.967 656 C 680.498 656, 682.636 654.400, 684.717 652.445 C 692.643 644.997, 694.707 643.204, 701.750 637.641 C 705.737 634.492, 709 631.596, 709.001 631.207 C 709.001 630.818, 712.238 628.025, 716.194 625 C 726.977 616.754, 736.553 606.599, 742.059 597.571 C 752.427 580.570, 754.818 573.435, 761.014 541 C 763.167 529.727, 764.358 525.316, 766.586 520.349 C 767.364 518.616, 768 516.524, 768 515.702 C 768 514.879, 769.515 511.122, 771.366 507.353 C 773.217 503.584, 775.769 498.137, 777.037 495.250 C 778.305 492.363, 779.715 490, 780.171 490 C 780.627 490, 781 489.085, 781 487.967 C 781 485.795, 785.039 477.226, 788.128 472.846 C 789.158 471.386, 790 469.248, 790 468.096 C 790 466.943, 790.418 466, 790.930 466 C 791.441 466, 792.845 463.863, 794.049 461.250 C 795.253 458.637, 796.677 455.650, 797.214 454.611 C 797.751 453.573, 798.855 450.423, 799.669 447.611 C 800.482 444.800, 802.239 439.723, 803.573 436.329 C 804.908 432.936, 806 428.802, 806 427.145 C 806 425.487, 806.412 423.047, 806.915 421.723 C 807.419 420.398, 808.100 417.332, 808.430 414.907 C 808.759 412.483, 809.405 407.800, 809.866 404.500 C 810.694 398.575, 810.490 376.321, 809.555 370.500 C 808.644 364.829, 805.152 353.218, 803.197 349.361 C 802.121 347.238, 800.029 342.350, 798.548 338.500 C 797.067 334.650, 795.448 330.600, 794.949 329.500 C 793.080 325.381, 791.838 321.399, 791.425 318.200 C 791.191 316.385, 790.361 313.666, 789.582 312.158 C 787.086 307.332, 784 297.663, 784 294.669 C 784 293.074, 782.480 288.523, 780.621 284.555 C 778.763 280.586, 776.912 276.299, 776.508 275.027 C 773.012 264.009, 753.179 245.199, 742.515 242.786 C 740.323 242.290, 737.735 241.166, 736.765 240.287 C 735.794 239.409, 735 239.017, 735 239.416 C 735 239.816, 734.293 239.436, 733.429 238.571 C 732.564 237.707, 731.016 237, 729.988 237 C 728.959 237, 727.812 236.504, 727.437 235.898 C 727.062 235.292, 725.348 234.154, 723.628 233.369 C 719.133 231.317, 713.601 227.935, 712.888 226.802 C 712.552 226.267, 711.877 225.814, 711.388 225.795 C 709.341 225.716, 706 223.971, 706 222.981 C 706 222.393, 705.438 221.985, 704.750 222.075 C 702.097 222.419, 701 221.941, 701 220.441 C 701 219.584, 700.588 219.137, 700.085 219.448 C 699.581 219.759, 697.894 218.960, 696.335 217.672 C 694.776 216.385, 692.150 214.637, 690.500 213.787 C 688.850 212.938, 685.025 210.890, 682 209.236 C 672.638 204.116, 656.566 199.239, 645 198.007 C 639.225 197.392, 632.700 196.384, 630.500 195.766 C 625.600 194.391, 624.267 194.275, 605.500 193.584 C 591.517 193.070, 589.957 193.200, 582.500 195.498" stroke="#aa444d" fill="#aa444d" fill-opacity="0.2" fill-rule="evenodd"/><path class="svg-region-Or" d="M 1207 165.492 C 1205.075 166.206, 1200.800 167.582, 1197.500 168.550 C 1194.200 169.518, 1189.925 171.021, 1188 171.890 C 1186.075 172.758, 1180.450 174.017, 1175.500 174.686 C 1160.780 176.677, 1158.649 177.089, 1155.349 178.578 C 1153.616 179.360, 1151.579 180, 1150.823 180 C 1146.525 180, 1117.541 196.287, 1108.336 203.875 C 1106.251 205.594, 1104.144 207, 1103.654 207 C 1103.165 207, 1101.153 208.415, 1099.184 210.143 C 1097.215 211.872, 1092.206 214.845, 1088.052 216.750 C 1083.898 218.655, 1078.988 220.953, 1077.140 221.857 C 1070.492 225.109, 1059.104 238.930, 1053.952 250 C 1052.801 252.475, 1050.826 256.525, 1049.565 259 C 1046.047 265.901, 1039.882 283.133, 1034.001 302.500 C 1033.500 304.150, 1032.657 308.200, 1032.129 311.500 C 1031.601 314.800, 1030.459 318.850, 1029.591 320.500 C 1028.723 322.150, 1028.010 324.251, 1028.006 325.169 C 1027.998 327.320, 1025.167 338.896, 1024.011 341.500 C 1023.523 342.600, 1022.898 345.075, 1022.622 347 C 1022.346 348.925, 1021.607 353.200, 1020.981 356.500 C 1020.299 360.092, 1020.092 366.256, 1020.466 371.861 C 1021.057 380.720, 1024.129 396.318, 1025.983 399.869 C 1029.933 407.434, 1031.957 412.259, 1032.575 415.586 C 1032.975 417.739, 1034.359 420.892, 1035.651 422.594 C 1036.943 424.296, 1038.033 426.321, 1038.073 427.094 C 1038.113 427.867, 1039.008 429.850, 1040.062 431.500 C 1041.116 433.150, 1042.281 435.175, 1042.652 436 C 1043.270 437.377, 1053.965 454.118, 1057.992 460.012 C 1058.936 461.394, 1063.203 467.613, 1067.475 473.834 C 1071.746 480.054, 1076.478 487.698, 1077.990 490.822 C 1082.085 499.279, 1089.354 518.287, 1090.487 523.500 C 1091.747 529.294, 1101.007 549.152, 1106.809 558.500 C 1113.171 568.751, 1125.891 582.394, 1131.500 584.984 C 1135.022 586.611, 1142.781 593.428, 1158 608.269 C 1160.475 610.682, 1163.936 613.646, 1165.691 614.854 C 1167.446 616.063, 1169.164 617.940, 1169.508 619.026 C 1169.853 620.112, 1170.573 621, 1171.108 621 C 1172.412 621, 1177.486 624.607, 1183.062 629.498 C 1185.572 631.699, 1194.965 638.900, 1203.936 645.500 C 1212.907 652.100, 1221.878 658.713, 1223.873 660.195 C 1230.595 665.189, 1240.472 671.687, 1244.500 673.763 C 1252.042 677.651, 1257.633 680, 1259.346 680 C 1260.290 680, 1264.169 681.761, 1267.967 683.913 C 1272.884 686.699, 1276.959 688.150, 1282.118 688.950 C 1287.111 689.725, 1289.765 690.648, 1290.655 691.918 C 1292.274 694.229, 1298.079 696.589, 1304.521 697.555 C 1307.241 697.963, 1310.880 698.888, 1312.607 699.609 C 1317.262 701.554, 1342.448 702.413, 1357.163 701.129 C 1364.233 700.512, 1373.951 698.894, 1379.163 697.466 C 1384.298 696.059, 1390.300 694.428, 1392.500 693.840 C 1394.700 693.253, 1397.400 692.385, 1398.500 691.912 C 1399.600 691.440, 1404.160 689.742, 1408.632 688.139 C 1422.218 683.272, 1440.271 671.306, 1448.941 661.422 C 1461.220 647.423, 1475.650 619.149, 1483.606 593.500 C 1492.881 563.600, 1491.959 515.037, 1481.500 482.500 C 1476.181 465.953, 1475.644 459.915, 1475.498 415 C 1475.424 392.175, 1475.011 371.700, 1474.580 369.500 C 1471.288 352.678, 1467.252 340.355, 1460.384 326.161 C 1443.816 291.917, 1415.325 254.102, 1390.500 233.407 C 1381.660 226.038, 1366.613 215.329, 1363.880 214.463 C 1361.002 213.550, 1354.411 209.473, 1353.543 208.069 C 1352.439 206.284, 1316.081 189.720, 1305.340 186.110 C 1301.952 184.971, 1297.047 182.905, 1294.441 181.520 C 1291.835 180.134, 1288.959 179, 1288.051 179 C 1287.143 179, 1285.972 178.597, 1285.450 178.105 C 1284.213 176.940, 1259.148 169, 1255.082 168.485 C 1253.361 168.267, 1251.559 167.845, 1251.076 167.547 C 1250.594 167.249, 1246.546 166.794, 1242.082 166.536 C 1237.617 166.278, 1232.216 165.597, 1230.079 165.021 C 1227.537 164.337, 1225.321 164.308, 1223.665 164.937 C 1222.059 165.548, 1219.926 165.552, 1217.824 164.950 C 1213.645 163.751, 1211.391 163.864, 1207 165.492" stroke="#aa444d" fill="#aa444d" fill-opacity="0.2" fill-rule="evenodd"/><path class="svg-region-BPCl" d="M 836.500 592.098 C 830.212 599.748, 829.183 600.305, 824.390 598.646 C 821.471 597.635, 820.399 596.618, 819.795 594.289 C 818.539 589.442, 816.557 588.364, 812.477 590.309 C 807.746 592.566, 805.840 597.469, 806.211 606.432 C 806.476 612.855, 806.722 613.555, 809.197 614.941 C 811.678 616.330, 812.255 616.275, 816.428 614.247 C 818.922 613.036, 824.001 611.559, 827.715 610.966 C 834.531 609.877, 840.825 607.458, 844.500 604.515 C 847.326 602.252, 847.390 591.194, 844.595 588.105 C 843.547 586.947, 842.422 586.003, 842.095 586.007 C 841.768 586.011, 839.250 588.752, 836.500 592.098" stroke="#83385f" fill="#83385f" fill-opacity="0.2" fill-rule="evenodd"/><path class="svg-region-BPCr" d="M 1002.268 567.955 C 996.929 569.877, 992.137 572.838, 988.421 576.512 C 987.278 577.642, 984.422 579.201, 982.076 579.975 C 977.346 581.536, 973.946 585.421, 972.301 591.142 L 971.253 594.785 975.043 595.391 C 977.127 595.724, 980.108 596.640, 981.666 597.426 C 984.410 598.809, 1013.766 601.568, 1014.795 600.539 C 1016.996 598.338, 1019.913 576.775, 1018.677 571.848 C 1017.988 569.103, 1013.248 565.984, 1009.846 566.036 C 1008.556 566.056, 1005.146 566.920, 1002.268 567.955" stroke="#83385f" fill="#83385f" fill-opacity="0.2" fill-rule="evenodd"/>
    </svg>