<svg xmlns="http://www.w3.org/2000/svg" width="1921" height="1027" viewBox="0 0 1921 1027" version="1.1">
    <path class="svg-region-SF" d="M 886 207 C 884.625 207.440, 881.337 207.845, 878.693 207.900 C 876.049 207.955, 871.824 208.519, 869.304 209.154 C 865.763 210.045, 864.277 210.030, 862.765 209.085 C 861.168 208.088, 860.484 208.157, 859.042 209.462 C 857.468 210.887, 854.597 211.595, 842 213.668 C 840.075 213.984, 832.067 217.392, 824.204 221.241 L 809.907 228.238 790.873 247.152 C 773.616 264.300, 771.520 266.757, 768.420 273.467 C 762.638 285.982, 764.016 296.137, 773.206 308.720 C 775.303 311.591, 778.027 314.468, 779.259 315.114 C 780.492 315.760, 783.164 317.686, 785.197 319.394 C 791.472 324.665, 794.242 326.499, 801.698 330.315 C 810.955 335.054, 813.135 335.044, 816.640 330.250 C 825.832 317.679, 832.671 314.280, 854.500 311.432 C 860 310.714, 867.650 309.633, 871.500 309.028 C 875.350 308.424, 889.858 307.416, 903.739 306.788 C 925.071 305.824, 932.043 305.889, 948.765 307.212 C 966.800 308.638, 969.134 309.041, 975.155 311.771 C 980.085 314.006, 982.615 315.917, 985.130 319.305 C 986.984 321.802, 989.242 324.050, 990.149 324.302 C 992.842 325.050, 1001.638 322.333, 1008.288 318.698 C 1017.661 313.576, 1021.846 311.453, 1029.219 308.082 C 1035.125 305.381, 1036.430 304.253, 1040.008 298.755 C 1045.483 290.342, 1045.787 288.724, 1042.604 284.941 C 1041.172 283.239, 1040 281.261, 1040 280.546 C 1040 279.830, 1039.390 278.739, 1038.644 278.120 C 1037.841 277.453, 1037.061 273.993, 1036.732 269.634 C 1036.417 265.471, 1035.297 260.369, 1034.153 257.887 C 1032.009 253.237, 1019.025 240, 1016.607 240 C 1015.822 240, 1012.843 238.088, 1009.987 235.750 C 1002.559 229.670, 998.210 227.237, 992.505 225.971 C 989.752 225.360, 984.415 223.484, 980.644 221.803 C 976.818 220.097, 970.850 218.397, 967.144 217.957 C 963.490 217.524, 956.900 216.065, 952.500 214.715 C 944.143 212.151, 935.318 210.547, 923.500 209.443 C 919.650 209.084, 915.285 208.162, 913.800 207.395 C 910.822 205.857, 890.473 205.568, 886 207" stroke="#8c6b55" fill="#8c6b55" fill-opacity="0.2" fill-rule="evenodd"/><path class="svg-region-IF" d="M 891.500 307.081 C 884.350 307.497, 875.575 308.335, 872 308.943 C 868.425 309.552, 861.225 310.510, 856 311.072 C 845.973 312.152, 834.839 315.020, 829 318.028 C 823.361 320.932, 813 333.315, 813 337.150 C 813 337.999, 812.267 340.162, 811.371 341.958 C 809.113 346.484, 809.983 355.412, 813.136 360.063 C 814.436 361.981, 816.356 365.451, 817.402 367.775 C 819.646 372.761, 821.461 373.111, 823.797 369.006 C 824.851 367.154, 826.314 366.010, 827.635 366.006 C 831.345 365.995, 840.387 369.285, 843.384 371.737 C 844.969 373.034, 847.894 374.926, 849.884 375.942 C 851.873 376.958, 854.983 379.635, 856.795 381.892 C 860.618 386.652, 863.672 388.418, 871.699 390.512 C 881.151 392.977, 890.379 392.664, 898.398 389.607 C 904.503 387.280, 906.182 387.052, 912.988 387.619 C 922.807 388.438, 926.496 387.226, 933.799 380.781 C 936.934 378.014, 942.260 374.499, 945.633 372.969 C 949.005 371.440, 952.069 369.697, 952.440 369.096 C 952.812 368.496, 955.452 366.931, 958.308 365.619 C 972.568 359.069, 980.723 354.729, 983.648 352.131 C 984.279 351.571, 986.417 350.435, 988.400 349.606 L 992.005 348.100 991.563 339.991 C 991.320 335.531, 990.415 329.753, 989.550 327.152 C 987.293 320.355, 980.729 313.510, 974.002 310.937 C 963.298 306.843, 925.774 305.089, 891.500 307.081" stroke="#f2823b" fill="#f2823b" fill-opacity="0.2" fill-rule="evenodd"/><path class="svg-region-APB" d="M 976.408 356.611 C 973.727 358.421, 968.897 360.864, 965.673 362.039 C 960.475 363.934, 959.891 364.420, 960.501 366.338 C 960.880 367.527, 961.757 370.516, 962.451 372.980 C 963.402 376.362, 964.298 377.597, 966.106 378.019 C 967.755 378.405, 968.595 379.390, 968.806 381.186 C 968.975 382.619, 969.987 384.584, 971.056 385.551 C 972.125 386.518, 973 388.333, 973 389.584 C 973 391.864, 975.347 395, 977.054 395 C 977.555 395, 977.897 398.488, 977.813 402.750 C 977.638 411.649, 979.554 418.615, 981.689 416.843 C 982.410 416.245, 983 414.894, 983 413.842 C 983 412.790, 983.709 410.847, 984.577 409.524 C 986.145 407.129, 988.344 399.583, 989.974 391 C 991.091 385.118, 992.584 381.344, 995.020 378.247 C 997.491 375.106, 997.649 367.860, 995.397 360.975 C 993.410 354.901, 992.741 354.366, 986.391 353.787 C 981.865 353.374, 980.726 353.696, 976.408 356.611 M 824.594 367.388 C 824.282 368.550, 824.021 370.815, 824.014 372.421 C 824.006 374.028, 823.281 376.137, 822.402 377.108 C 820.668 379.024, 821.255 381, 823.559 381 C 825.599 381, 825.388 385.683, 823.296 386.854 C 821.847 387.665, 821.772 388.204, 822.796 390.451 C 823.458 391.905, 824 394.362, 824 395.912 C 824 397.462, 824.900 399.874, 826 401.273 C 827.100 402.671, 828 404.477, 828 405.285 C 828 406.094, 828.675 407.315, 829.500 408 C 830.325 408.685, 831 409.949, 831 410.810 C 831 411.938, 831.836 411.573, 834 409.500 C 835.951 407.631, 837 405.635, 837 403.793 C 837 402.235, 838.073 399.282, 839.384 397.230 C 842.152 392.899, 848.748 385.724, 851.170 384.408 C 852.089 383.908, 853.135 382.324, 853.494 380.887 C 854.084 378.531, 853.622 377.977, 848.791 375.251 C 845.845 373.588, 842.831 371.502, 842.095 370.614 C 841.358 369.726, 840.129 369, 839.364 369 C 838.599 369, 837.191 368.568, 836.236 368.040 C 835.281 367.513, 832.399 366.675, 829.830 366.179 C 825.539 365.350, 825.115 365.448, 824.594 367.388 M 932.937 381.565 C 927.845 386.818, 922.546 388.416, 912.889 387.611 C 905.578 387.001, 904.183 387.191, 898.156 389.609 C 892.888 391.723, 889.988 392.253, 884.250 392.149 C 880.041 392.074, 877 392.434, 877 393.009 C 877 393.554, 876.194 394.806, 875.208 395.792 C 871.100 399.900, 868.602 407.214, 868.192 416.337 L 867.794 425.175 873.009 421.587 C 875.878 419.614, 879.324 418, 880.667 418 C 883.158 418, 893.574 411.547, 897.886 407.332 C 899.199 406.050, 901.461 405, 902.914 405 C 904.366 405, 906.495 404.341, 907.644 403.537 C 909.333 402.354, 910.325 402.297, 912.819 403.238 C 915.208 404.139, 917.035 404.113, 920.909 403.120 C 926.550 401.674, 929.239 402.219, 933.327 405.637 C 936.719 408.473, 937.789 408.526, 940.807 406.010 C 947.332 400.571, 945.914 382.560, 938.702 379.274 C 936.516 378.278, 935.877 378.532, 932.937 381.565" stroke="#ac7444" fill="#ac7444" fill-opacity="0.2" fill-rule="evenodd"/><path class="svg-region-AVCl" d="M 851.023 622.473 C 850.307 623.336, 847.772 624.532, 845.391 625.132 C 843.009 625.732, 840.599 626.778, 840.035 627.458 C 839.471 628.137, 838.537 633.303, 837.959 638.937 L 836.907 649.180 843.602 655.340 C 847.284 658.728, 851.287 662.175, 852.498 663 C 853.708 663.825, 856.354 666.075, 858.377 668 C 862.053 671.497, 869.179 676, 871.038 676 C 874.150 676, 880.989 671.542, 882.383 668.605 C 883.231 666.817, 885.517 664.498, 887.463 663.450 C 891.072 661.507, 892.636 658.083, 889.250 659.538 C 888.288 659.952, 884.297 660.696, 880.382 661.190 C 873.578 662.050, 873.025 661.961, 867.882 659.168 C 863.301 656.681, 861.946 655.223, 858.782 649.373 C 855.525 643.353, 855.057 641.632, 855.017 635.500 C 854.991 631.650, 854.375 626.791, 853.647 624.702 C 852.494 621.388, 852.159 621.104, 851.023 622.473" stroke="#ffbab9" fill="#ffbab9" fill-opacity="0.2" fill-rule="evenodd"/><path class="svg-region-AVCr" d="M 976.775 621.398 C 975.276 623.286, 972.986 627.232, 971.686 630.166 C 970.387 633.100, 968.576 636.118, 967.662 636.872 C 966.544 637.796, 966 639.781, 966 642.937 C 966 647.324, 965.770 647.739, 962.466 649.315 C 960.522 650.242, 958.332 651, 957.599 651 C 956.238 651, 951 658.127, 951 659.979 C 951 660.561, 953.593 661, 957.031 661 C 961.470 661, 963.215 661.396, 963.638 662.500 C 964.241 664.071, 967 664.613, 967 663.161 C 967 662.045, 972.140 659.590, 973.844 659.892 C 975.747 660.230, 990.730 645.210, 991.484 642.209 C 992.350 638.758, 1000.556 624.712, 1002.996 622.504 C 1004.098 621.506, 1005 620.375, 1005 619.989 C 1005 619.603, 1000.388 619.234, 994.750 619.169 C 989.112 619.103, 983.375 618.805, 982 618.507 C 980.011 618.076, 978.942 618.667, 976.775 621.398" stroke="#ffbab9" fill="#ffbab9" fill-opacity="0.2" fill-rule="evenodd"/><path class="svg-region-B" d="M 965.500 514.862 C 964.400 515.251, 962.375 516.102, 961 516.753 C 959.625 517.405, 950.625 518.336, 941 518.824 C 923.351 519.717, 921.189 520.176, 912.500 524.877 C 910.017 526.220, 905.964 526.506, 889 526.537 C 877.725 526.557, 867.312 526.931, 865.859 527.368 C 864.208 527.864, 862.968 527.757, 862.550 527.081 C 860.278 523.405, 851 529.760, 851 534.992 C 851 536.581, 851.450 538.160, 852 538.500 C 854.479 540.032, 852.281 548.624, 848.227 553.248 C 846.847 554.821, 846.867 555.378, 848.427 558.838 C 850.026 562.384, 850.038 562.974, 848.580 566.463 C 845.789 573.142, 846.567 575.876, 855.321 590.151 C 857.423 593.579, 860.282 599.784, 861.675 603.941 C 865.137 614.272, 865.613 615, 868.909 615 C 870.471 615, 873.662 615.675, 876 616.500 C 878.338 617.325, 881.915 618, 883.948 618 C 885.980 618, 889.707 618.703, 892.229 619.562 C 895.725 620.753, 896.971 621.749, 897.474 623.751 C 898.446 627.625, 901.564 631.574, 906.828 635.600 C 910.557 638.452, 912.132 639.072, 914.631 638.669 C 916.354 638.391, 918.946 638.778, 920.393 639.529 C 922.823 640.790, 923.148 640.704, 924.648 638.414 C 925.851 636.579, 926.131 634.561, 925.728 630.650 L 925.182 625.365 931.341 620.839 C 941.552 613.336, 942.630 612.771, 944.667 613.855 C 945.675 614.392, 949.848 615.827, 953.940 617.045 C 963.919 620.016, 968.345 619.129, 968.827 614.062 C 969.007 612.171, 968.610 608.679, 967.944 606.301 C 966.801 602.219, 966.912 601.642, 969.928 595.984 C 973.940 588.457, 974.821 583.729, 976.224 562.189 C 977.107 548.641, 977.080 543.314, 976.099 537.689 C 975.409 533.735, 974.621 527.013, 974.346 522.750 C 974.027 517.780, 973.427 514.995, 972.674 514.986 C 972.028 514.979, 970.600 514.789, 969.500 514.564 C 968.400 514.339, 966.600 514.473, 965.500 514.862" stroke="#e23b33" fill="#e23b33" fill-opacity="0.2" fill-rule="evenodd"/><path class="svg-region-Ol" d="M 569.500 207.212 C 565.650 208.270, 560.925 209.480, 559 209.899 C 555.415 210.681, 553.171 211.802, 544.572 217.109 C 537.987 221.173, 514.960 233, 513.633 233 C 513.053 233, 509.636 234.431, 506.040 236.179 C 502.443 237.928, 498.600 239.712, 497.500 240.145 C 490.151 243.037, 484.156 245.939, 483.569 246.888 C 483.191 247.500, 482.012 248, 480.948 248 C 478.528 248, 471 251.206, 471 252.236 C 471 252.656, 470.204 253, 469.232 253 C 467.441 253, 460.060 257.508, 458.830 259.354 C 458.461 259.907, 457.500 260.456, 456.693 260.575 C 455.886 260.693, 452.271 262.201, 448.658 263.925 C 443.363 266.452, 440.481 268.842, 433.795 276.253 C 424.107 286.990, 418.489 292.742, 414.985 295.512 C 410.085 299.386, 399.241 313.544, 386.273 333 C 382.790 338.225, 379.504 343.044, 378.970 343.708 C 378.437 344.372, 378 345.278, 378 345.721 C 378 346.164, 376.486 348.775, 374.635 351.523 C 372.785 354.271, 370.054 358.765, 368.568 361.510 C 367.081 364.254, 364.928 368.075, 363.783 370 C 362.638 371.925, 360.137 376.650, 358.224 380.500 C 356.312 384.350, 354.466 387.725, 354.123 388 C 353.468 388.526, 349.363 396.770, 336.197 424 C 324.840 447.488, 318.784 465.547, 316.578 482.500 C 315.776 488.661, 314.510 494.329, 310.772 508.500 C 306.854 523.354, 306.369 532.595, 308.726 547.500 C 310.353 557.783, 310.510 562.003, 309.824 577 C 307.715 623.125, 307.713 625.931, 309.789 636.021 C 311.932 646.442, 315.896 655.505, 322.027 664 C 324.210 667.025, 325.997 669.873, 325.998 670.329 C 325.999 670.785, 329.262 675.656, 333.250 681.153 C 341.200 692.113, 351.876 703.363, 362.107 711.562 C 365.741 714.475, 369.341 717.480, 370.107 718.241 C 370.873 719.002, 375.721 722.522, 380.881 726.063 C 386.041 729.603, 392.116 733.771, 394.381 735.325 C 400.325 739.403, 415.573 746.628, 423.061 748.915 C 440.225 754.157, 476.123 756.618, 489.497 753.468 C 493.476 752.531, 498.705 751.979, 501.116 752.241 C 506.435 752.819, 526.953 749.694, 534.805 747.110 C 537.937 746.079, 542.975 744.671, 546 743.981 C 549.025 743.291, 558.113 740.088, 566.196 736.863 C 574.279 733.639, 581.146 731, 581.456 731 C 581.767 731, 584.153 729.527, 586.760 727.727 C 589.367 725.927, 592.737 723.912, 594.250 723.249 C 595.763 722.585, 597 721.583, 597 721.021 C 597 720.460, 597.660 720, 598.466 720 C 600.100 720, 610.415 713.545, 615.928 709.073 C 620.040 705.737, 628.002 699.676, 637.700 692.500 C 641.416 689.750, 645.598 686.375, 646.994 685 C 648.390 683.625, 651.100 681.279, 653.016 679.787 C 665.199 670.298, 672.926 663.525, 683.618 652.967 C 690.282 646.385, 696.048 641, 696.429 641 C 696.811 641, 700.808 637.248, 705.311 632.663 C 709.815 628.078, 717.894 620.818, 723.264 616.529 C 728.635 612.240, 735.385 605.762, 738.264 602.133 C 743.259 595.838, 750 583.963, 750 581.458 C 750 580.810, 751.095 578.665, 752.434 576.693 C 754.960 572.970, 759.235 557.989, 761.476 545 C 763.580 532.811, 764.895 527.017, 766.903 521.091 C 767.945 518.016, 769.364 513.475, 770.057 511 C 770.749 508.525, 771.851 505.600, 772.505 504.500 C 773.159 503.400, 774.015 500.048, 774.408 497.051 C 774.918 493.157, 776.103 490.265, 778.561 486.917 C 780.452 484.340, 782 481.892, 782 481.476 C 782 481.059, 782.843 478.870, 783.872 476.610 C 787.676 468.261, 789 464.899, 789 463.589 C 789 462.850, 789.675 461.685, 790.500 461 C 791.325 460.315, 792 458.791, 792 457.613 C 792 456.436, 792.900 453.009, 794 450 C 795.100 446.991, 796 442.192, 796 439.336 C 796 435.922, 796.545 433.598, 797.590 432.552 C 800.434 429.709, 799.714 403.208, 796.449 390.500 C 795.601 387.200, 794.294 381.575, 793.543 378 C 792.793 374.425, 791.518 369.700, 790.709 367.500 C 788.800 362.308, 787.370 357.990, 784.911 350 C 783.812 346.425, 782.426 341.925, 781.833 340 C 781.239 338.075, 779.881 334.549, 778.813 332.166 C 777.746 329.782, 776.727 325.507, 776.549 322.666 C 776.320 319.001, 774.752 314.387, 771.154 306.787 C 768.365 300.895, 764.891 291.670, 763.435 286.287 C 757.278 263.526, 751.602 256.617, 730 245.589 C 718.184 239.557, 715.446 238.492, 705.295 235.986 C 702.982 235.414, 700.507 234.389, 699.795 233.706 C 697.446 231.455, 671.665 219.218, 662.857 216.173 C 658.104 214.530, 653.291 212.691, 652.161 212.086 C 647.265 209.466, 633.847 207.752, 614.500 207.276 C 603.500 207.005, 594.032 206.405, 593.459 205.943 C 591.597 204.439, 576.721 205.226, 569.500 207.212" stroke="#aa444d" fill="#aa444d" fill-opacity="0.2" fill-rule="evenodd"/><path class="svg-region-Or" d="M 1198 159.949 C 1184.586 162.377, 1182.106 163.316, 1167.500 171.499 C 1160.350 175.505, 1153.433 179.104, 1152.129 179.497 C 1150.015 180.134, 1147.916 181.406, 1137.790 188.186 C 1136.300 189.184, 1134.828 190, 1134.519 190 C 1134.210 190, 1128.474 194.357, 1121.771 199.682 C 1115.068 205.007, 1106.123 211.681, 1101.892 214.513 C 1093.455 220.160, 1085.535 226.729, 1077.633 234.635 C 1071.285 240.986, 1070.109 242.410, 1064.294 250.792 C 1061.734 254.481, 1059.383 257.725, 1059.070 258 C 1058.143 258.813, 1056.277 262.128, 1053.300 268.250 C 1051.762 271.413, 1050.177 274, 1049.777 274 C 1048.401 274, 1046.270 279.514, 1045.590 284.837 C 1045.215 287.773, 1044.527 290.923, 1044.062 291.837 C 1043.596 292.752, 1041.540 296.875, 1039.493 301 C 1037.446 305.125, 1035.147 309.210, 1034.385 310.079 C 1033.623 310.947, 1033 313.440, 1033 315.619 C 1033 317.798, 1031.621 323.836, 1029.935 329.037 C 1026.901 338.399, 1026.870 338.708, 1026.884 359.997 C 1026.892 371.823, 1027.389 383.750, 1027.988 386.500 C 1028.587 389.250, 1029.225 393.174, 1029.405 395.221 C 1029.585 397.267, 1030.467 400.064, 1031.366 401.436 C 1032.265 402.807, 1033 405.713, 1033 407.893 C 1033 410.073, 1033.583 412.452, 1034.295 413.179 C 1035.007 413.905, 1038.269 419.797, 1041.545 426.271 C 1050.911 444.784, 1052.333 447.444, 1055.080 451.599 C 1056.499 453.744, 1058.842 457.300, 1060.286 459.500 C 1061.729 461.700, 1064.788 466.160, 1067.083 469.411 C 1069.378 472.662, 1072.092 477.215, 1073.116 479.529 C 1074.139 481.843, 1075.657 484.300, 1076.488 484.990 C 1077.320 485.680, 1078 486.884, 1078 487.664 C 1078 488.445, 1079.297 491.877, 1080.883 495.292 C 1082.468 498.706, 1084.095 503.075, 1084.497 505 C 1084.900 506.925, 1086.245 510.975, 1087.487 514 C 1088.729 517.025, 1090.068 521.300, 1090.464 523.500 C 1092.956 537.367, 1117.525 571.685, 1130.500 579.421 C 1132.150 580.404, 1135.300 583.452, 1137.500 586.193 C 1139.700 588.934, 1142.078 591.700, 1142.785 592.338 C 1143.491 592.977, 1144.697 594.063, 1145.463 594.750 C 1146.230 595.438, 1147.309 596, 1147.861 596 C 1148.413 596, 1149.144 596.880, 1149.486 597.955 C 1150.423 600.908, 1180.932 631.391, 1194 642.432 C 1200.325 647.775, 1209.901 656.020, 1215.281 660.753 C 1220.660 665.486, 1226.285 670.105, 1227.781 671.017 C 1229.276 671.930, 1231.118 673.424, 1231.872 674.338 C 1232.627 675.252, 1233.752 676.002, 1234.372 676.004 C 1234.993 676.006, 1237.695 677.122, 1240.377 678.483 C 1243.059 679.844, 1246.884 681.216, 1248.877 681.533 C 1250.870 681.850, 1253.281 682.535, 1254.236 683.055 C 1255.191 683.575, 1256.745 684, 1257.689 684 C 1258.632 684, 1263.251 685.307, 1267.952 686.904 C 1272.654 688.501, 1277.663 690.066, 1279.084 690.381 C 1280.505 690.697, 1284.557 692.892, 1288.089 695.261 C 1294.373 699.475, 1305.019 703.853, 1314 705.917 C 1320.881 707.498, 1351.242 707.257, 1359.500 705.555 C 1376.280 702.097, 1392.465 697.550, 1400.500 694.035 C 1401.600 693.554, 1407.690 690.957, 1414.033 688.265 C 1430.679 681.198, 1446.943 670.172, 1459.223 657.629 C 1472.271 644.301, 1485.196 625.440, 1490.589 611.857 C 1500.997 585.641, 1502.720 570.136, 1500.909 519 C 1500.354 503.325, 1499.897 485.325, 1499.893 479 C 1499.885 466.399, 1497.692 443.756, 1495.457 433.212 C 1494.675 429.520, 1494.027 424.430, 1494.017 421.899 C 1494.008 419.369, 1493.603 415.994, 1493.118 414.399 C 1492.633 412.805, 1491.247 406.775, 1490.037 401 C 1487.965 391.106, 1486.762 386.122, 1483.277 373 C 1480.173 361.312, 1472.492 338.073, 1468.733 329 C 1466.569 323.775, 1463.516 316.268, 1461.949 312.317 C 1460.383 308.366, 1458.643 304.316, 1458.085 303.317 C 1457.526 302.318, 1455.097 297.450, 1452.687 292.500 C 1446.323 279.426, 1433.862 260.141, 1427.750 253.905 C 1425.688 251.801, 1424 249.623, 1424 249.065 C 1424 245.894, 1399.642 220.838, 1388.054 212.088 C 1381.218 206.926, 1365.034 197, 1363.454 197 C 1363.103 197, 1361.671 196.100, 1360.273 195 C 1358.874 193.900, 1357.039 193, 1356.194 193 C 1355.349 193, 1353.947 192.370, 1353.079 191.600 C 1352.210 190.829, 1348.575 189.009, 1345 187.555 C 1341.425 186.100, 1337.600 184.526, 1336.500 184.056 C 1335.400 183.586, 1330.675 181.739, 1326 179.952 C 1321.325 178.165, 1316.082 176.095, 1314.349 175.352 C 1312.616 174.608, 1310.696 174, 1310.082 174 C 1309.468 174, 1305.036 172.701, 1300.233 171.114 C 1295.430 169.527, 1289.250 167.681, 1286.500 167.012 C 1283.750 166.342, 1279.475 165.221, 1277 164.520 C 1254.664 158.194, 1253.157 157.991, 1229.436 158.115 C 1213.474 158.199, 1204.913 158.698, 1198 159.949" stroke="#aa444d" fill="#aa444d" fill-opacity="0.2" fill-rule="evenodd"/><path class="svg-region-BPCl" d="M 808.325 582.750 C 807.685 584.263, 806.601 588.097, 805.917 591.271 C 804.685 596.982, 804.704 597.085, 807.732 601.271 C 809.415 603.597, 811.550 605.652, 812.476 605.839 C 813.402 606.025, 816.410 605.210, 819.159 604.027 C 824.970 601.527, 827.802 601.883, 833.277 605.798 C 835.355 607.284, 839.467 610.208, 842.415 612.295 C 851.982 619.066, 859.135 617.976, 853.512 610.604 L 851.031 607.352 853.942 603.394 C 858.321 597.439, 858.491 595.256, 855.004 589.750 C 852.338 585.540, 851.593 585, 848.446 585 C 845.415 585, 844.746 585.431, 843.868 587.948 C 842.428 592.079, 835.961 594.482, 828.388 593.701 C 822.188 593.061, 819 590.919, 819 587.392 C 819 586.128, 818.478 583.948, 817.839 582.547 C 816.909 580.505, 815.966 580, 813.084 580 C 810.110 580, 809.287 580.476, 808.325 582.750" stroke="#83385f" fill="#83385f" fill-opacity="0.2" fill-rule="evenodd"/><path class="svg-region-BPCr" d="M 1002.653 578 C 1000.436 579.946, 998.153 581, 996.152 581 C 993.086 581, 985.803 583.817, 985.167 585.250 C 984.611 586.501, 980.623 586.029, 978.559 584.468 C 975.502 582.156, 974.275 582.713, 973.536 586.750 C 973.158 588.813, 971.758 592.469, 970.425 594.876 C 969.091 597.283, 968 600.371, 968 601.739 C 968 604.018, 968.273 604.170, 971.250 603.549 C 978.386 602.060, 983.217 601.817, 984.292 602.892 C 985.673 604.273, 992.663 604.355, 993.500 603 C 993.840 602.450, 997.039 602, 1000.609 602 C 1007.014 602, 1011.456 600.551, 1015.250 597.224 C 1016.656 595.991, 1017 594.038, 1017 587.279 C 1017 576.460, 1016.227 575, 1010.500 575 C 1007.003 575, 1005.349 575.632, 1002.653 578" stroke="#83385f" fill="#83385f" fill-opacity="0.2" fill-rule="evenodd"/>
    </svg>