<svg xmlns="http://www.w3.org/2000/svg" width="1921" height="1027" viewBox="0 0 1921 1027" version="1.1">
    <path class="svg-region-SF" d="M 880.500 202.376 C 876.100 203.104, 869.800 204.502, 866.500 205.484 C 863.200 206.466, 857.800 207.408, 854.500 207.577 C 851.200 207.747, 846.827 208.586, 844.782 209.443 C 842.737 210.299, 840.015 211, 838.732 211 C 837.449 211, 835.972 211.381, 835.450 211.846 C 834.928 212.311, 829.910 214.601, 824.301 216.934 C 818.691 219.268, 811.266 223.157, 807.801 225.578 C 804.335 227.998, 800.982 229.983, 800.349 229.989 C 799.716 229.995, 793.641 235.029, 786.849 241.176 C 761.877 263.775, 753.981 273.202, 754.015 280.376 C 754.034 284.470, 756.093 290.237, 760.933 299.751 C 763.101 304.013, 765.596 309.075, 766.477 311 C 770.540 319.877, 772.243 322.168, 776.919 325.045 C 779.605 326.698, 782.533 329.164, 783.425 330.525 C 784.316 331.886, 785.563 333, 786.194 333 C 786.826 333, 788.118 333.702, 789.067 334.560 C 790.186 335.574, 794.353 336.478, 800.951 337.139 C 809.737 338.019, 811.443 337.940, 813.556 336.555 C 814.900 335.675, 816 334.329, 816 333.566 C 816 331.443, 821.132 327.592, 826.595 325.615 C 829.293 324.639, 834.200 322.689, 837.500 321.281 C 842.109 319.316, 846.282 318.514, 855.500 317.823 C 862.100 317.328, 868.850 316.966, 870.500 317.018 C 879.108 317.287, 886.408 316.913, 887.392 316.152 C 893.328 311.564, 927.453 308.953, 960.702 310.542 L 982.903 311.604 989.117 316.429 C 993.644 319.945, 996.968 321.637, 1001.366 322.663 C 1007.763 324.155, 1009.671 323.991, 1020 321.064 C 1023.575 320.051, 1029.021 318.760, 1032.102 318.195 C 1041.160 316.534, 1047.246 311.372, 1056.499 297.500 C 1058.210 294.934, 1058.500 292.836, 1058.500 283 C 1058.500 266.413, 1057.336 263.127, 1048.370 254.402 C 1041.368 247.589, 1040.724 247.212, 1032.288 244.993 C 1022.263 242.357, 1019.996 241.380, 1018.277 238.961 C 1017.604 238.014, 1015.354 236.498, 1013.277 235.592 C 1011.200 234.686, 1007.475 232.623, 1005 231.007 C 1002.525 229.390, 998.759 227.116, 996.632 225.953 C 992.259 223.563, 967.765 214.997, 955.132 211.440 C 950.530 210.145, 944.005 208.205, 940.632 207.131 C 937.259 206.056, 931.265 204.911, 927.312 204.587 C 923.358 204.263, 918.879 203.524, 917.357 202.945 C 912.894 201.249, 889.505 200.888, 880.500 202.376" stroke="#8c6b55" fill="#8c6b55" fill-opacity="0.2" fill-rule="evenodd"/><path class="svg-region-IF" d="M 918 310.643 C 903.783 311.673, 896.874 312.618, 892.500 314.131 C 882.619 317.548, 877.993 318.211, 873.208 316.896 C 869.976 316.008, 868.299 315.999, 866.411 316.858 C 865.033 317.486, 860.215 318.011, 855.703 318.024 C 845.910 318.052, 843.501 318.618, 830.558 323.931 C 820.856 327.913, 816 331.122, 816 333.552 C 816 334.214, 815.287 335.347, 814.415 336.071 C 813.086 337.173, 812.920 339.019, 813.387 347.443 C 814.103 360.346, 815.020 368.004, 815.847 367.985 C 817.274 367.951, 818.673 366.353, 819.873 363.384 C 821.248 359.981, 822.789 359.031, 830.865 356.609 C 838.826 354.221, 836.951 353.290, 848.250 365.250 C 850.760 367.908, 853.638 370, 854.783 370 C 855.942 370, 858.494 371.883, 860.665 374.340 C 862.774 376.727, 866.430 379.893, 868.788 381.376 C 872.521 383.724, 873.535 383.946, 876.623 383.094 C 881.076 381.864, 883.786 382.856, 888.514 387.448 C 890.526 389.402, 892.727 391, 893.406 391 C 894.084 391, 896.150 392.348, 897.996 393.996 C 901.159 396.820, 901.457 396.896, 903.198 395.321 C 904.923 393.760, 905.274 393.760, 908.556 395.325 C 912.469 397.191, 916.147 397.464, 918.764 396.083 C 919.719 395.579, 921.858 394.668, 923.519 394.058 C 925.452 393.348, 927.892 390.891, 930.304 387.224 C 937.252 376.667, 938.493 375.077, 939.826 375.039 C 941.523 374.989, 963.204 361.911, 968 358.043 C 969.375 356.934, 971.268 356.021, 972.207 356.013 C 973.146 356.006, 978.147 351.725, 983.321 346.500 C 989.169 340.595, 993.512 337, 994.797 337 C 995.935 337, 997.128 336.172, 997.449 335.160 C 997.770 334.148, 999.163 332.716, 1000.544 331.977 C 1005.597 329.272, 1004.054 322, 998.427 322 C 997.182 322, 993.781 319.967, 990.870 317.481 C 987.958 314.996, 983.984 312.560, 982.038 312.067 C 980.092 311.574, 970.625 310.882, 961 310.529 C 951.375 310.176, 942.150 309.739, 940.500 309.558 C 938.850 309.377, 928.725 309.865, 918 310.643" stroke="#f2823b" fill="#f2823b" fill-opacity="0.2" fill-rule="evenodd"/><path class="svg-region-APB" d="M 987.893 341.587 C 985.477 344.110, 981.780 347.948, 979.677 350.116 C 977.575 352.284, 973.862 354.995, 971.427 356.139 C 968.992 357.284, 967 358.566, 967 358.989 C 967 359.412, 965.668 360.309, 964.039 360.984 C 962.410 361.658, 956.713 365.088, 951.379 368.605 C 946.044 372.122, 940.964 375.017, 940.090 375.039 C 938.486 375.077, 937.123 376.770, 930.262 387.242 C 927.482 391.484, 925.586 393.279, 923 394.113 C 921.075 394.734, 919.072 395.637, 918.550 396.121 C 917.031 397.526, 912.364 397.141, 908.484 395.291 C 905.485 393.861, 904.562 393.792, 902.837 394.870 C 901.033 395.996, 900.437 395.835, 898.082 393.579 C 896.602 392.161, 894.632 391, 893.704 391 C 892.776 391, 890.776 389.721, 889.259 388.157 C 884.060 382.800, 881.630 381.753, 877.173 382.953 C 873.663 383.899, 872.743 383.755, 869.550 381.764 C 867.553 380.519, 863.838 377.363, 861.294 374.750 C 858.750 372.137, 855.822 370, 854.787 370 C 853.752 370, 850.882 367.863, 848.409 365.250 C 837.206 353.414, 838.837 354.218, 830.865 356.609 C 822.170 359.217, 821.309 359.894, 818.462 366.379 C 814.373 375.694, 813.952 387.146, 817.345 396.795 C 820.383 405.436, 826.043 415.102, 829.791 418.051 C 832.537 420.210, 834.956 420.274, 845.148 418.456 C 848.524 417.854, 848.980 418.077, 851.271 421.448 C 855.767 428.065, 861.616 432.257, 867.085 432.782 C 871.284 433.186, 872.961 432.743, 878.747 429.702 C 882.465 427.749, 890.004 424.739, 895.503 423.015 C 901.001 421.290, 908.294 419.006, 911.709 417.939 C 918.344 415.867, 926.993 415.478, 933.500 416.960 C 935.700 417.461, 942.108 418.372, 947.739 418.984 C 957.366 420.031, 958.104 419.981, 960.076 418.144 C 961.229 417.069, 963.768 415.891, 965.717 415.525 C 967.666 415.160, 970.890 413.842, 972.880 412.597 C 974.871 411.352, 979.694 408.664, 983.597 406.623 C 988.977 403.811, 991.165 402.017, 992.642 399.207 C 993.713 397.168, 995.848 394.893, 997.387 394.151 C 1000.415 392.691, 1002.987 387.730, 1003.022 383.282 C 1003.034 381.752, 1003.978 378.475, 1005.119 376 C 1008.031 369.687, 1008.850 356.545, 1006.603 352.199 C 1005.693 350.440, 1004.285 349, 1003.474 349 C 1002.394 349, 1002 347.798, 1002 344.500 C 1002 341.167, 1001.611 340, 1000.500 340 C 999.675 340, 999 339.325, 999 338.500 C 999 337.465, 997.960 337, 995.643 337 C 992.961 337, 991.404 337.921, 987.893 341.587" stroke="#ac7444" fill="#ac7444" fill-opacity="0.2" fill-rule="evenodd"/><path class="svg-region-ADCl" d="M 852.184 555.886 C 849.027 561.504, 849.363 565.364, 853.500 571 C 855.425 573.622, 857 576.616, 857 577.652 C 857 578.688, 858.125 581.191, 859.500 583.215 C 861.119 585.597, 862 588.280, 862 590.825 C 862 595.233, 863.258 596.702, 867.816 597.613 C 869.626 597.975, 871.192 599.030, 871.538 600.120 C 872.525 603.230, 875.340 604.062, 881.852 603.172 C 887.619 602.383, 895 598.341, 895 595.972 C 895 594.581, 890.946 592.290, 887.040 591.473 C 883.428 590.717, 876.249 587.330, 874.464 585.539 C 872.545 583.615, 867.495 575.535, 865.376 571 C 860.577 560.727, 858.189 555.401, 857.642 553.750 C 856.695 550.889, 854.512 551.743, 852.184 555.886" stroke="#54413e" fill="#54413e" fill-opacity="0.2" fill-rule="evenodd"/><path class="svg-region-ADCr" d="M 970.557 545.223 C 969.701 546.445, 968.990 547.907, 968.978 548.473 C 968.966 549.038, 968.076 550.625, 967 552 C 965.924 553.375, 965.034 555.557, 965.022 556.849 C 965.010 558.141, 964.377 560.616, 963.616 562.349 C 962.855 564.082, 961.252 567.694, 960.053 570.375 C 958.854 573.056, 956.983 577.505, 955.897 580.262 C 954.810 583.019, 953.264 586.213, 952.460 587.360 C 951.657 588.507, 951 590.222, 951 591.171 C 951 592.120, 949.987 593.992, 948.750 595.331 C 945.464 598.886, 938.595 613.501, 939.321 615.393 C 940.261 617.845, 941.765 617.330, 944.117 613.750 C 946.697 609.823, 951.868 607, 956.482 607 C 958.352 607, 960.160 606.550, 960.500 606 C 961.668 604.111, 965.241 605.004, 968.715 608.055 C 974.246 612.911, 975.449 611.922, 975.790 602.239 C 976.035 595.292, 975.834 594, 974.509 594 C 971.361 594, 971.757 590.870, 975.622 585.195 C 977.755 582.063, 980.287 578.628, 981.250 577.561 C 983.650 574.903, 983.528 567.651, 980.896 556.500 C 979.727 551.550, 978.382 546.487, 977.907 545.250 C 976.763 542.272, 972.634 542.257, 970.557 545.223" stroke="#54413e" fill="#54413e" fill-opacity="0.2" fill-rule="evenodd"/><path class="svg-region-AVCl" d="M 859.363 623.750 C 858.748 624.712, 856.502 626.337, 854.372 627.360 C 850.141 629.393, 849.500 629.764, 843.282 633.777 C 840.494 635.576, 839.052 637.236, 839.032 638.668 C 838.980 642.186, 837.913 644, 835.893 644 C 834.852 644, 834 644.493, 834 645.096 C 834 647.001, 838.053 651.974, 840.829 653.473 C 842.298 654.267, 846.650 657.858, 850.500 661.454 C 859.505 669.864, 865.980 673.004, 874.277 672.987 C 879.971 672.975, 881.258 672.529, 889.408 667.737 C 894.307 664.857, 899.636 660.858, 901.250 658.852 C 904.015 655.415, 904.135 654.893, 903.321 649.852 L 902.457 644.500 900.478 649.969 C 898.879 654.385, 897.729 655.873, 894.499 657.702 C 886.988 661.956, 883.153 660.495, 877.352 651.168 C 875.071 647.501, 871.884 641.575, 870.271 638 C 868.657 634.425, 866.609 630.902, 865.720 630.170 C 864.830 629.439, 863.594 627.301, 862.974 625.420 C 861.701 621.563, 860.975 621.227, 859.363 623.750" stroke="#ffbab9" fill="#ffbab9" fill-opacity="0.2" fill-rule="evenodd"/><path class="svg-region-AVCr" d="M 971.407 621.750 C 967.600 628.574, 962.040 637.001, 959.171 640.296 C 958.310 641.284, 954.258 644.374, 950.167 647.162 L 942.727 652.232 939.362 648.558 C 934.029 642.738, 932.329 645.468, 936.182 653.665 C 937.383 656.218, 938.628 659.926, 938.949 661.904 C 939.509 665.350, 939.741 665.529, 944.517 666.190 C 947.257 666.570, 951.975 667.367, 955 667.962 C 968.712 670.657, 968.563 670.672, 973.106 666.129 C 975.377 663.858, 977.690 662, 978.245 662 C 980.209 662, 995.976 644.946, 996.535 642.217 C 996.841 640.723, 998.023 637.250, 999.161 634.500 C 1002.771 625.779, 1002.638 625.543, 993.924 625.211 L 986.348 624.922 981.462 619.961 C 978.774 617.232, 976.259 615, 975.874 615 C 975.488 615, 973.478 618.038, 971.407 621.750" stroke="#ffbab9" fill="#ffbab9" fill-opacity="0.2" fill-rule="evenodd"/><path class="svg-region-B" d="M 925 522.631 C 921.975 523.470, 913.425 524.493, 906 524.905 C 892.540 525.652, 892.473 525.668, 883.389 530.267 C 872.949 535.553, 869.789 538.776, 867.574 546.392 C 865.697 552.849, 865.539 566.672, 867.269 573 C 869.759 582.103, 876.629 588.542, 885.960 590.518 C 887.863 590.921, 891.211 592.185, 893.400 593.326 C 898.018 595.733, 907.011 596.643, 912.151 595.224 C 915.312 594.351, 916.214 594.568, 920.011 597.119 C 923.791 599.657, 925.195 600, 931.813 600 C 941.643 600, 946.781 597.251, 950.009 590.264 C 951.219 587.644, 954.863 580.183, 958.105 573.684 C 963.482 562.907, 964 561.297, 964 555.368 C 964 548.254, 963.183 546.015, 958.941 541.500 C 957.391 539.850, 954.837 536.032, 953.267 533.015 C 948.065 523.023, 937.536 519.155, 925 522.631" stroke="#e23b33" fill="#e23b33" fill-opacity="0.2" fill-rule="evenodd"/><path class="svg-region-Ol" d="M 565 204.524 C 560.875 205.863, 557.050 206.865, 556.500 206.750 C 555.950 206.635, 550.550 209.066, 544.500 212.152 C 538.450 215.238, 532.375 218.096, 531 218.504 C 525.798 220.046, 513.510 226.259, 510.097 229.072 C 508.143 230.682, 506.027 232, 505.395 232 C 504.762 232, 503.704 232.651, 503.044 233.447 C 502.383 234.243, 499.740 235.686, 497.171 236.652 C 492.196 238.524, 475.737 248.120, 473.268 250.589 C 472.456 251.401, 469.926 253.002, 467.646 254.147 C 465.366 255.292, 461.981 257.368, 460.124 258.761 C 458.268 260.154, 453.993 262.618, 450.624 264.237 C 446.357 266.288, 442.075 269.654, 436.500 275.340 C 432.100 279.828, 425.343 286.425, 421.485 290 C 414.596 296.383, 402 311.860, 402 313.941 C 402 314.523, 401.594 315, 401.097 315 C 399.392 315, 388.539 334.513, 381.772 349.744 C 378.048 358.128, 375 365.446, 375 366.007 C 375 366.568, 374.572 367.809, 374.049 368.764 C 373.525 369.719, 371.682 374.550, 369.951 379.500 C 368.221 384.450, 365.997 390.300, 365.010 392.500 C 362.172 398.822, 346.874 434.285, 346.029 436.500 C 343.650 442.736, 340.773 454.432, 338.035 469 C 336.329 478.075, 334.719 486.495, 334.457 487.712 C 334.195 488.929, 333.546 496.129, 333.014 503.712 C 332.482 511.295, 331.582 522.587, 331.014 528.805 C 329.975 540.182, 327.920 582.909, 327.830 595 C 327.767 603.439, 329.510 615.155, 332.575 626.891 C 335.058 636.398, 342.381 654.413, 346.415 660.939 C 347.626 662.897, 349.439 666.300, 350.445 668.500 C 358.325 685.731, 374.539 705.456, 387.423 713.483 C 393.860 717.493, 409.797 724.722, 416 726.444 C 417.375 726.826, 422.100 728.213, 426.500 729.526 C 440.713 733.768, 453.346 736.757, 466.500 738.992 C 472.618 740.031, 486.567 744.760, 494 748.315 C 497.025 749.762, 503.608 752.074, 508.629 753.454 C 516.856 755.715, 519.129 755.920, 531.629 755.536 C 541.855 755.221, 547.208 754.572, 552 753.067 C 555.575 751.944, 559.682 751.020, 561.128 751.013 C 562.573 751.006, 564.315 750.325, 565 749.500 C 565.685 748.675, 566.977 747.992, 567.872 747.983 C 568.768 747.973, 570.462 746.950, 571.638 745.708 C 572.814 744.467, 579.901 739.412, 587.388 734.476 C 611.879 718.328, 652.203 687.487, 669 672.057 C 672.025 669.279, 677.840 663.966, 681.922 660.253 C 686.004 656.539, 690.279 652.397, 691.422 651.050 C 692.565 649.702, 696.661 645.427, 700.525 641.550 C 718.911 623.098, 735.134 603.150, 742.089 590.441 C 754.860 567.106, 759.253 554.026, 761.909 531.425 C 762.366 527.534, 763.430 522.809, 764.273 520.925 C 765.752 517.618, 767.958 509.354, 769.857 500 C 770.981 494.466, 775.227 482.621, 776.250 482.167 C 776.663 481.983, 777 481.344, 777 480.745 C 777 480.147, 777.591 478.947, 778.312 478.079 C 779.034 477.210, 780.484 474.475, 781.535 472 C 782.585 469.525, 783.682 467.275, 783.972 467 C 785.163 465.872, 787.279 459.126, 788.207 453.500 C 788.752 450.200, 789.605 447.001, 790.103 446.392 C 791.033 445.255, 794.906 431.472, 795.553 427 C 796.054 423.538, 796.128 413.123, 795.679 409.500 C 794.485 399.885, 793.666 397.107, 786.541 378.500 C 784.305 372.659, 778.284 354.905, 773.898 341.216 C 773.320 339.410, 772.734 335.810, 772.598 333.216 C 772.197 325.619, 767.450 312.183, 760.254 298.280 C 757.915 293.759, 756 289.567, 756 288.964 C 756 285.993, 748.590 272.312, 745.484 269.548 C 743.568 267.844, 742 266.011, 742 265.475 C 741.999 264.207, 732.775 254.713, 726.106 249.115 C 719.151 243.278, 715.663 240.995, 708.500 237.593 C 705.200 236.026, 699.575 233.359, 696 231.667 C 692.425 229.975, 688.446 227.929, 687.158 227.120 C 677.679 221.168, 652.755 213.186, 635.361 210.533 C 629.387 209.621, 615.700 207.328, 604.944 205.438 C 581.732 201.358, 575.214 201.208, 565 204.524" stroke="#aa444d" fill="#aa444d" fill-opacity="0.2" fill-rule="evenodd"/><path class="svg-region-Or" d="M 1225.500 176.080 C 1221.100 176.501, 1213.117 177.556, 1207.761 178.423 C 1202.404 179.290, 1196.779 179.985, 1195.261 179.968 C 1193.742 179.950, 1186.200 181.957, 1178.500 184.429 C 1170.800 186.900, 1160.675 190.045, 1156 191.419 C 1146.855 194.105, 1138.534 198.688, 1126.866 207.466 C 1122.820 210.510, 1118.945 213, 1118.255 213 C 1117.565 213, 1117 213.378, 1117 213.841 C 1117 214.304, 1114.123 216.085, 1110.608 217.799 C 1106.242 219.927, 1103.535 222.016, 1102.070 224.387 C 1100.890 226.296, 1099.564 228.003, 1099.123 228.179 C 1097.970 228.641, 1086.200 244.680, 1081.532 252.150 C 1075.199 262.285, 1064.107 284.831, 1061.404 293.060 C 1060.039 297.219, 1056.722 304.545, 1054.034 309.340 C 1051.345 314.136, 1048.849 319.509, 1048.486 321.280 C 1047.936 323.965, 1042.689 338.956, 1037.032 354 C 1034.279 361.323, 1030.110 379.003, 1030.041 383.651 C 1029.902 392.957, 1033.004 405.951, 1036.968 412.671 C 1038.086 414.565, 1039 417.402, 1039 418.976 C 1039 421.992, 1041.711 427.989, 1043.638 429.237 C 1044.264 429.643, 1045.058 431.096, 1045.402 432.467 C 1045.746 433.838, 1047.372 437.238, 1049.014 440.024 C 1050.656 442.809, 1052.001 445.406, 1052.003 445.794 C 1052.005 446.182, 1053.804 449.200, 1056 452.500 C 1058.196 455.800, 1059.999 458.950, 1060.007 459.500 C 1060.014 460.050, 1061.590 462.476, 1063.510 464.891 C 1065.429 467.306, 1067.002 469.781, 1067.004 470.391 C 1067.007 471.001, 1068.726 473.764, 1070.824 476.532 C 1072.923 479.300, 1075.280 483.012, 1076.064 484.782 C 1076.847 486.552, 1077.828 488, 1078.244 488 C 1078.660 488, 1079 488.487, 1079 489.082 C 1079 490.933, 1084.845 503.815, 1093.255 520.500 C 1097.691 529.300, 1101.989 537.850, 1102.806 539.500 C 1103.624 541.150, 1104.846 543.175, 1105.522 544 C 1106.198 544.825, 1108.324 548.497, 1110.248 552.160 C 1112.171 555.823, 1115.827 561.526, 1118.372 564.834 C 1120.917 568.142, 1123 571.137, 1123 571.491 C 1123 572.436, 1128.013 578.915, 1131.738 582.784 C 1133.519 584.633, 1135.739 587.801, 1136.672 589.823 C 1138.473 593.729, 1150.995 609.858, 1155.384 613.924 C 1156.823 615.258, 1158 617.157, 1158 618.144 C 1158 619.132, 1159.316 620.913, 1160.925 622.103 C 1162.534 623.292, 1164.095 625.244, 1164.396 626.441 C 1165.155 629.464, 1189.595 652.820, 1195.630 656.289 C 1196.789 656.955, 1200.384 659.665, 1203.618 662.311 C 1206.853 664.957, 1211.595 668.206, 1214.156 669.531 C 1216.718 670.855, 1218.968 672.328, 1219.156 672.805 C 1219.345 673.281, 1222.763 675.375, 1226.750 677.459 C 1230.737 679.543, 1234 681.642, 1234 682.124 C 1234 682.606, 1235.098 683, 1236.441 683 C 1237.784 683, 1239.160 683.450, 1239.500 684 C 1239.840 684.550, 1241.035 685, 1242.155 685 C 1243.275 685, 1245.386 685.612, 1246.846 686.360 C 1258.569 692.366, 1263.999 694.674, 1274.479 698.104 C 1281.090 700.268, 1287.850 702.662, 1289.500 703.425 C 1294.831 705.889, 1316.648 709.301, 1341 711.478 C 1349.631 712.250, 1382.708 707.588, 1391.342 704.383 C 1393.629 703.534, 1398.650 701.947, 1402.500 700.857 C 1412.082 698.143, 1437.428 685.548, 1445.980 679.250 C 1448.408 677.463, 1450.796 676, 1451.288 676 C 1454.502 676, 1481.201 649.484, 1489.206 638.341 C 1500.111 623.161, 1508.679 603.309, 1511.149 587.500 C 1512.595 578.244, 1511.774 550.617, 1509.174 521 C 1508.039 508.075, 1506.592 490.075, 1505.959 481 C 1505.326 471.925, 1504.145 458.650, 1503.336 451.500 C 1502.526 444.350, 1501.525 435.125, 1501.112 431 C 1499.516 415.084, 1493.462 388.287, 1486.424 365.993 C 1481.907 351.687, 1457.269 309.410, 1447.672 299.500 C 1445.542 297.300, 1443.061 294.375, 1442.160 293 C 1438.701 287.722, 1424.966 272.005, 1412.500 259.062 C 1405.350 251.638, 1396.022 241.928, 1391.771 237.485 C 1386.600 232.080, 1381.304 227.790, 1375.771 224.522 C 1371.222 221.835, 1366.150 218.647, 1364.500 217.437 C 1359.580 213.827, 1355.156 211.921, 1349.609 211.018 C 1346.726 210.549, 1338.562 207.653, 1331.467 204.582 C 1324.371 201.512, 1318.208 199, 1317.772 199 C 1317.335 199, 1315.071 198.113, 1312.739 197.030 C 1301.071 191.606, 1260.442 179.019, 1251.064 177.922 C 1246.424 177.380, 1242.149 176.563, 1241.564 176.107 C 1240.256 175.088, 1235.920 175.081, 1225.500 176.080" stroke="#aa444d" fill="#aa444d" fill-opacity="0.2" fill-rule="evenodd"/><path class="svg-region-BPCl" d="M 813.776 584.750 C 808.791 590.435, 807.721 597.878, 810.937 604.500 C 814.437 611.707, 816.787 617.495, 817.919 621.699 C 820.063 629.660, 821.360 631.110, 828.602 633.642 C 837.667 636.812, 839.989 636.655, 845.432 632.500 C 847.954 630.575, 850.472 629, 851.029 629 C 853.546 629, 859.799 623.890, 861.017 620.837 C 861.750 619.002, 863.155 616.328, 864.140 614.895 C 866.576 611.349, 868.454 603.917, 867.666 600.941 C 866.943 598.213, 861.010 595, 856.697 595 C 855.240 595, 852.575 594.102, 850.774 593.004 C 848.850 591.830, 845.731 591.006, 843.210 591.004 C 840.398 591.001, 837.921 590.262, 836.024 588.859 C 834.271 587.563, 831.032 586.523, 827.814 586.221 C 824.891 585.948, 821.612 585.111, 820.527 584.362 C 817.860 582.520, 815.618 582.649, 813.776 584.750" stroke="#83385f" fill="#83385f" fill-opacity="0.2" fill-rule="evenodd"/><path class="svg-region-BPCr" d="M 1005.977 560.750 C 1005.958 566.203, 1005.429 568.444, 1003.227 572.415 C 1001.727 575.119, 999.655 577.819, 998.622 578.415 C 997.589 579.012, 995.197 581.062, 993.306 582.971 C 991.415 584.880, 988.435 587.146, 986.684 588.006 C 984.933 588.866, 981.813 590.611, 979.750 591.884 L 976 594.198 976.012 604.349 L 976.025 614.500 981.109 619.750 L 986.194 625 995.910 625 C 1005.350 625, 1005.705 624.917, 1008.436 622.067 C 1011.126 619.259, 1011.283 618.548, 1012.122 605.317 C 1012.624 597.404, 1013.727 589.260, 1014.703 586.259 C 1016.116 581.915, 1016.202 580.448, 1015.204 577.688 C 1014.542 575.856, 1014.003 572.815, 1014.008 570.929 C 1014.017 566.686, 1008.955 554.008, 1007.250 554.003 C 1006.375 554.001, 1005.993 556.027, 1005.977 560.750" stroke="#83385f" fill="#83385f" fill-opacity="0.2" fill-rule="evenodd"/>
    </svg>