<svg xmlns="http://www.w3.org/2000/svg" width="1921" height="1027" viewBox="0 0 1921 1027" version="1.1">
    <path class="svg-region-V" d="M 884.928 172.400 C 884.613 172.718, 880.113 173.420, 874.928 173.959 C 869.742 174.499, 862.135 176.087, 858.022 177.488 C 853.908 178.890, 848.058 180.299, 845.022 180.620 C 841.985 180.941, 834.933 182.492, 829.352 184.066 C 823.770 185.641, 816.168 187.414, 812.457 188.007 C 808.746 188.600, 804.960 189.486, 804.043 189.977 C 803.126 190.468, 799.468 191.544, 795.913 192.368 C 790.336 193.661, 776.004 199.960, 768 204.634 C 766.625 205.437, 763.534 206.980, 761.132 208.062 C 758.730 209.145, 755.950 211.065, 754.955 212.330 C 753.960 213.596, 751.425 215.343, 749.323 216.214 C 728.665 224.772, 728.292 224.992, 724.476 230.872 C 721.642 235.237, 720.960 237.144, 721.391 239.489 C 721.696 241.145, 722.520 246.148, 723.223 250.607 C 723.925 255.065, 725.062 259.386, 725.749 260.208 C 728.204 263.146, 755.756 264.433, 770.465 262.297 C 777.030 261.344, 780.896 259.911, 792.465 254.145 C 800.184 250.298, 807.997 246.597, 809.826 245.922 C 811.655 245.247, 814.435 243.411, 816.003 241.843 C 817.572 240.274, 820.800 238.109, 823.178 237.032 C 825.555 235.954, 831.758 232.581, 836.962 229.536 C 842.167 226.491, 847.251 224, 848.262 224 C 850.978 224, 855.247 221.550, 861.724 216.274 C 865.885 212.885, 868.742 211.382, 871.994 210.873 C 874.473 210.484, 878.300 209.609, 880.500 208.927 C 882.785 208.219, 887.715 207.851, 892 208.068 C 898.878 208.416, 908.676 208.368, 914.250 207.960 C 918.131 207.676, 930.344 208.921, 934 209.974 C 945.456 213.272, 954.920 216.287, 957.784 217.551 C 959.590 218.348, 961.877 219, 962.865 219 C 963.853 219, 965.233 220.067, 965.931 221.370 C 967.103 223.561, 977.003 229, 979.817 229 C 981.154 229, 989.302 234.060, 989.821 235.212 C 990.575 236.888, 996.828 239.840, 1000.740 240.367 C 1003.072 240.681, 1006.312 241.627, 1007.940 242.469 C 1009.569 243.311, 1011.543 244, 1012.328 244 C 1013.113 244, 1014.373 244.753, 1015.128 245.672 C 1016.542 247.396, 1033.832 256, 1035.881 256 C 1036.513 256, 1039.386 257.315, 1042.265 258.921 C 1045.144 260.528, 1049.525 262.359, 1052 262.991 C 1054.475 263.623, 1059.200 265.188, 1062.500 266.469 C 1070.947 269.748, 1076.163 270.399, 1082.279 268.939 C 1087.611 267.667, 1094.884 263.750, 1096.272 261.404 C 1096.697 260.686, 1097.597 259.512, 1098.272 258.795 C 1101.237 255.648, 1102.141 253.891, 1103.636 248.369 C 1105.834 240.244, 1106.231 230.436, 1104.421 228.935 C 1103.647 228.292, 1102.538 225.996, 1101.955 223.832 C 1101.372 221.668, 1100.131 219.632, 1099.198 219.308 C 1098.264 218.984, 1094.800 217.501, 1091.500 216.014 C 1088.200 214.526, 1083.700 212.728, 1081.500 212.019 C 1076.133 210.289, 1071.018 207.647, 1068.097 205.098 C 1066.775 203.944, 1064.833 203, 1063.781 203 C 1062.729 203, 1061.035 202.554, 1060.016 202.009 C 1055.413 199.545, 1021.219 191, 1015.965 191 C 1012.838 191, 1009.429 190.128, 1006.187 188.500 C 1003.449 187.125, 1000.319 186, 999.230 186 C 998.142 186, 995.282 185.288, 992.876 184.417 C 985.782 181.851, 979.020 180.232, 970.500 179.057 C 966.100 178.451, 959.800 177.242, 956.500 176.370 C 948.114 174.156, 886.571 170.742, 884.928 172.400" stroke="#dd8a8a" fill="#dd8a8a" fill-opacity="0.2" fill-rule="evenodd"/><path class="svg-region-SF" d="M 883.500 207.947 C 878.562 209.905, 874.105 211, 871.068 211 C 868.713 211, 866.459 212.101, 863.139 214.871 C 856.002 220.828, 850.935 224, 848.559 224 C 847.370 224, 841.471 226.826, 835.449 230.280 C 829.427 233.734, 823.020 237.171, 821.210 237.918 C 819.401 238.665, 817.376 240.052, 816.710 241.001 C 815.014 243.420, 808.901 246.992, 806.450 246.996 C 805.323 246.998, 803.973 247.422, 803.450 247.938 C 802.928 248.454, 797.100 251.637, 790.500 255.011 C 780.821 259.960, 777.049 261.345, 771 262.170 C 759.713 263.710, 746.924 264.112, 741.496 263.098 C 737.414 262.336, 735.975 262.524, 732.322 264.299 L 727.989 266.404 728.557 277.452 C 729.298 291.838, 729.241 291.627, 734.033 298.016 C 737.953 303.244, 739.266 305.737, 743.504 316 C 746.951 324.345, 752.332 330.402, 757.168 331.378 C 758.635 331.675, 762.174 333.356, 765.032 335.115 C 769.041 337.582, 772.088 338.542, 778.364 339.315 L 786.500 340.318 796.130 335.659 C 801.427 333.097, 806.395 331, 807.170 331 C 807.945 331, 811.594 329.428, 815.280 327.506 C 818.965 325.585, 825.247 323.110, 829.240 322.007 C 833.233 320.904, 836.987 319.344, 837.581 318.540 C 838.974 316.658, 843.358 315, 846.943 315 C 848.490 315, 851.371 314.325, 853.346 313.500 C 855.320 312.675, 858.555 312, 860.534 312 C 862.512 312, 865.004 311.533, 866.071 310.962 C 869.350 309.207, 885.686 313.065, 887.517 316.027 C 888.567 317.726, 897.378 317.101, 901.418 315.042 C 907.948 311.713, 913.442 311.399, 918.616 314.059 C 923.774 316.713, 924.773 316.512, 938 310.175 C 944.375 307.120, 946.492 306.592, 952.109 306.656 C 957.197 306.714, 959.382 307.220, 961.609 308.860 C 965.013 311.367, 974.921 315, 978.353 315 C 979.674 315, 981.315 315.675, 982 316.500 C 982.685 317.325, 984.035 318, 985 318 C 985.965 318, 987.315 318.675, 988 319.500 C 988.685 320.325, 990 321, 990.922 321 C 991.845 321, 993.028 321.380, 993.550 321.844 C 994.072 322.308, 997.200 323.732, 1000.500 325.008 C 1003.800 326.283, 1006.965 327.678, 1007.534 328.107 C 1008.103 328.536, 1011.380 329.340, 1014.815 329.893 C 1020.412 330.794, 1032.973 336.314, 1033.833 338.250 C 1034.017 338.663, 1035.044 339, 1036.117 339 C 1037.189 339, 1040.388 340.177, 1043.226 341.615 C 1048.164 344.117, 1048.684 344.180, 1055.312 343.085 C 1059.455 342.401, 1065.646 340.292, 1070.717 337.838 C 1079.993 333.348, 1081.656 331.429, 1089.974 315.620 C 1093.553 308.818, 1093.751 307.931, 1094.409 295.747 L 1095.097 282.994 1092.549 280.633 C 1090.979 279.178, 1089.987 277.162, 1089.967 275.385 C 1089.948 273.798, 1089.081 271.478, 1088.040 270.229 C 1086.286 268.126, 1085.793 268.038, 1081.360 269.031 C 1075.667 270.307, 1070.623 269.622, 1062.500 266.469 C 1059.200 265.188, 1054.475 263.623, 1052 262.991 C 1049.525 262.359, 1045.144 260.528, 1042.265 258.921 C 1039.386 257.315, 1036.538 256, 1035.935 256 C 1033.941 256, 1016.525 247.342, 1015.128 245.656 C 1014.373 244.745, 1013.248 243.997, 1012.628 243.994 C 1012.007 243.990, 1010.226 243.323, 1008.669 242.511 C 1007.111 241.699, 1003.736 240.757, 1001.169 240.419 C 996.755 239.838, 990 236.648, 990 235.146 C 990 234.766, 988.425 233.607, 986.500 232.570 C 984.575 231.533, 983 230.306, 983 229.843 C 983 229.379, 982.113 229, 981.029 229 C 977.666 229, 968.461 224.401, 966.284 221.634 C 965.144 220.185, 963.602 218.997, 962.856 218.994 C 962.110 218.990, 960.375 218.407, 959 217.698 C 957.625 216.988, 953.350 215.581, 949.500 214.570 C 945.650 213.559, 942.073 212.343, 941.550 211.866 C 941.028 211.390, 939.430 211, 938 211 C 936.570 211, 934.969 210.569, 934.442 210.042 C 933.532 209.132, 919.032 207.645, 914.250 207.971 C 906.931 208.471, 898.623 208.416, 892.500 207.827 C 888.650 207.457, 884.600 207.511, 883.500 207.947" stroke="#8c6b55" fill="#8c6b55" fill-opacity="0.2" fill-rule="evenodd"/><path class="svg-region-IF" d="M 946 306.649 C 945.175 306.976, 941.350 308.705, 937.500 310.491 C 924.464 316.538, 923.710 316.680, 918.616 314.059 C 914.912 312.155, 913.297 311.878, 909.339 312.472 C 906.703 312.867, 902.867 314.048, 900.813 315.095 C 895.787 317.660, 889.680 317.563, 886.026 314.861 C 882.980 312.609, 874.897 310.660, 869 310.755 C 864.035 310.835, 854.629 312.593, 852.194 313.896 C 851.059 314.503, 848.781 315, 847.131 315 C 843.536 315, 838.832 316.668, 837.786 318.313 C 837.370 318.966, 837.024 320.738, 837.015 322.250 L 837 325 844.363 325 C 851.948 325, 863.531 327.440, 872.761 330.981 C 879.580 333.598, 882.609 333.508, 887.500 330.542 C 893.542 326.878, 899.699 324, 901.495 324 C 902.377 324, 904.485 324.717, 906.179 325.593 C 909.759 327.444, 914.333 327.077, 921.208 324.388 C 925.894 322.555, 925.928 322.556, 928.708 324.747 C 935.054 329.750, 939.847 331.100, 952 331.305 C 964.133 331.511, 974.565 329.298, 975.725 326.273 C 976.020 325.507, 977.998 324.184, 980.123 323.334 C 983.572 321.954, 983.916 321.506, 983.339 319.144 C 982.624 316.221, 981.340 315.038, 978.855 315.015 C 975.709 314.986, 964.260 310.992, 961.819 309.073 C 959.304 307.094, 948.896 305.499, 946 306.649" stroke="#f2823b" fill="#f2823b" fill-opacity="0.2" fill-rule="evenodd"/><path class="svg-region-AAB" d="M 983.736 318.598 C 983.407 318.927, 983.363 319.781, 983.637 320.498 C 983.951 321.313, 982.806 322.239, 980.572 322.976 C 978.611 323.624, 976.438 324.964, 975.744 325.955 C 973.216 329.564, 965.372 331.380, 952.659 331.298 C 940.779 331.221, 934.907 329.845, 931.172 326.261 C 928.061 323.276, 925.864 322.778, 921.358 324.040 C 918.933 324.719, 916.709 325.663, 916.415 326.137 C 915.576 327.494, 908.759 327.077, 906 325.500 C 904.625 324.714, 902.688 324.055, 901.695 324.035 C 899.735 323.997, 893.830 326.703, 887.500 330.542 C 882.369 333.653, 880.499 333.609, 870.089 330.129 C 857.306 325.857, 852.846 325, 843.392 325 C 835.654 325, 834.761 325.196, 834.290 327 C 834.002 328.100, 833.158 329, 832.414 329 C 831.670 329, 829.458 329.900, 827.500 331 C 825.542 332.100, 823.165 333, 822.220 333.001 C 821.274 333.001, 818.250 333.852, 815.500 334.892 C 810.198 336.897, 808.314 339.204, 802.342 351 C 800.810 354.025, 797.664 358.537, 795.351 361.027 C 791.369 365.311, 787.516 373.407, 788.613 375.183 C 789.814 377.127, 795.839 375.910, 799.528 372.977 C 801.620 371.315, 804.495 369.667, 805.916 369.315 C 807.337 368.963, 810.075 367.663, 812 366.426 C 813.925 365.189, 817.975 363.866, 821 363.486 C 828.078 362.598, 836.969 359.642, 844.334 355.731 C 850.224 352.602, 857.456 345.112, 857.485 342.112 C 857.496 340.929, 858.844 340.338, 862.571 339.882 C 865.360 339.541, 868.687 338.703, 869.964 338.019 C 871.528 337.182, 874.119 337.001, 877.893 337.465 C 903.581 340.620, 918.026 341.061, 932 339.118 C 937.225 338.391, 945.914 337.564, 951.309 337.280 C 960.354 336.803, 961.297 336.930, 963.404 338.910 C 964.662 340.091, 967.448 341.994, 969.595 343.138 C 984.539 351.098, 994.606 356, 996.011 356 C 996.914 356, 1001.444 358.066, 1006.077 360.590 C 1010.709 363.115, 1016.300 365.428, 1018.500 365.731 C 1022.520 366.284, 1028.976 369.184, 1034.438 372.892 C 1037.738 375.133, 1039.830 374.672, 1037.804 372.151 C 1035.404 369.164, 1033 364.225, 1033 362.283 C 1033 361.233, 1031.650 359.081, 1030 357.500 C 1028.350 355.919, 1027 354.081, 1027 353.414 C 1027 351.115, 1021.245 341.273, 1016.464 335.395 C 1012.746 330.825, 1010.413 328.994, 1006.084 327.250 C 1000.014 324.803, 996.466 323.258, 993.764 321.883 C 992.809 321.397, 991.401 321, 990.636 321 C 989.871 321, 988.685 320.325, 988 319.500 C 986.718 317.955, 984.787 317.546, 983.736 318.598" stroke="#7f3c1a" fill="#7f3c1a" fill-opacity="0.2" fill-rule="evenodd"/><path class="svg-region-APB" d="M 869.850 337.981 C 868.942 338.535, 865.792 339.335, 862.850 339.760 C 858.955 340.323, 857.496 340.966, 857.485 342.127 C 857.476 343.004, 855.788 345.774, 853.732 348.283 C 848.267 354.952, 832.935 362.062, 821 363.461 C 817.754 363.842, 813.972 365.109, 811.771 366.553 C 809.721 367.899, 807.306 369, 806.405 369 C 805.505 369, 802.575 370.610, 799.894 372.578 C 795.974 375.455, 794.289 376.092, 791.277 375.832 C 787.772 375.530, 787.380 375.788, 785.125 379.877 C 782.769 384.147, 782.744 384.434, 784.015 392.872 C 785.546 403.043, 789.321 411.701, 797.962 424.861 C 803.961 433.996, 808.432 437.989, 812.673 437.996 C 813.869 437.998, 816.119 439.055, 817.673 440.345 C 822.487 444.338, 833.757 446.316, 848.633 445.779 L 861.500 445.315 874.500 438.566 C 881.650 434.854, 887.950 431.456, 888.500 431.015 C 891.844 428.334, 898.328 425.649, 906.411 423.598 C 911.501 422.306, 916.611 420.743, 917.767 420.125 C 918.923 419.506, 923.221 419, 927.319 419 C 934.047 419, 934.920 419.229, 936.317 421.361 C 937.168 422.660, 939.192 423.988, 940.813 424.313 C 944.768 425.104, 962.464 433.649, 964.013 435.516 C 964.691 436.332, 965.842 437, 966.571 437 C 967.300 437, 971.585 438.165, 976.094 439.589 C 983.381 441.891, 984.968 442.070, 990.395 441.196 C 1002.028 439.322, 1011.524 436.917, 1016.551 434.571 C 1022.939 431.591, 1030.532 429, 1032.880 429 C 1035.205 429, 1036.722 427.213, 1042.377 417.820 C 1047.381 409.506, 1048.272 404.408, 1045.630 399.200 C 1044.876 397.715, 1043.937 394.250, 1043.542 391.500 C 1043.147 388.750, 1041.964 385.097, 1040.912 383.382 C 1039.860 381.667, 1039 379.566, 1039 378.713 C 1039 374.715, 1027.874 367.467, 1019.500 366.010 C 1016.750 365.532, 1010.811 363.138, 1006.302 360.692 C 1001.793 358.245, 996.843 355.936, 995.302 355.562 C 990.704 354.444, 966.414 341.738, 963.323 338.833 C 961.312 336.944, 960.248 336.812, 950.812 337.278 C 945.141 337.558, 936.225 338.383, 931 339.110 C 920.086 340.630, 906.652 340.624, 893 339.092 C 875.869 337.169, 871.522 336.961, 869.850 337.981" stroke="#ac7444" fill="#ac7444" fill-opacity="0.2" fill-rule="evenodd"/><path class="svg-region-AP" d="M 956.710 520.102 C 955.223 520.500, 951.867 522.377, 949.253 524.272 C 946.639 526.168, 943.183 528.345, 941.574 529.109 C 938.125 530.748, 937.060 532.966, 939.667 533.081 C 940.777 533.130, 939.923 533.908, 937.500 535.055 C 934.077 536.675, 931.071 536.951, 916.651 536.974 C 904.083 536.993, 899.002 536.635, 896.651 535.563 C 894.918 534.772, 888.810 533.176, 883.077 532.015 C 877.345 530.854, 872.310 529.691, 871.889 529.431 C 871.467 529.171, 864.908 528.736, 857.311 528.465 C 849.715 528.194, 842.714 527.723, 841.754 527.420 C 840.794 527.116, 838.544 527.317, 836.754 527.867 C 834.964 528.417, 830.125 529.871, 826 531.098 C 812.396 535.144, 810.370 536.104, 806.079 540.531 C 800.358 546.435, 798.896 551.650, 799.080 565.500 C 799.233 577.023, 797.871 589.613, 795.440 599.144 C 792.462 610.819, 794.279 623.492, 799.758 629.250 C 801.197 630.763, 802.627 631.999, 802.937 631.997 C 803.247 631.995, 803.510 630.019, 803.523 627.605 C 803.536 625.191, 804.072 622.155, 804.714 620.858 C 808.061 614.096, 808.805 602.039, 806.413 593.299 C 805.541 590.109, 804.392 585.925, 803.860 584 C 802.043 577.417, 802.003 577.479, 807.853 577.727 C 812.410 577.920, 813.788 578.479, 817.106 581.477 C 819.251 583.415, 821.169 585, 821.369 585 C 821.569 585, 821.510 581.888, 821.238 578.085 L 820.743 571.169 825.077 566.138 C 830.340 560.029, 834.868 558.735, 841.119 561.554 C 844.978 563.294, 845.066 563.287, 847.434 561.062 C 849.479 559.140, 850.628 558.876, 855.168 559.279 C 858.101 559.539, 863.284 560.810, 866.686 562.103 C 872.156 564.182, 873.132 564.978, 875.113 568.977 C 876.346 571.465, 878.601 575.075, 880.124 577 C 883.097 580.757, 889 595.664, 889 599.413 C 889 602.875, 885.531 605.445, 881.248 605.156 C 879.240 605.021, 877.125 604.531, 876.548 604.068 C 875.972 603.605, 873.496 602.895, 871.046 602.491 C 864.673 601.438, 859.409 598.401, 857.980 594.952 L 856.757 592 846.313 592 C 840.569 592, 834.976 592.477, 833.886 593.061 C 831.313 594.438, 831.875 596.181, 838.385 607 L 843.500 615.500 843.276 627.900 L 843.052 640.300 845.276 638.382 C 853.680 631.134, 859.309 628.660, 866.009 629.267 C 872.984 629.900, 878.859 632.797, 886 639.125 C 889.025 641.805, 892.496 644.866, 893.712 645.925 C 896.870 648.676, 897.448 652.230, 896.059 660.368 C 894.292 670.726, 892.135 677.568, 890.038 679.466 C 889.027 680.381, 887.972 682, 887.693 683.065 C 887.265 684.702, 887.718 685, 890.635 685 C 892.701 685, 894.944 685.802, 896.230 687 C 898.830 689.422, 900.160 689.486, 904.222 687.385 C 906.211 686.357, 910.385 685.685, 915.724 685.533 C 923.104 685.324, 924.291 685.030, 925.662 683.072 C 927.116 680.996, 927.704 680.895, 934.609 681.542 C 941.089 682.150, 942 682.032, 942 680.586 C 942 679.679, 941.346 678.686, 940.546 678.379 C 939.746 678.072, 938.125 676.182, 936.943 674.179 C 935.136 671.116, 934.898 669.620, 935.446 664.773 C 936.206 658.055, 938.272 652.654, 941.590 648.710 C 942.889 647.167, 944.657 644.418, 945.518 642.602 C 947.715 637.974, 960.674 625.357, 969 619.741 C 971.475 618.072, 974.748 615.552, 976.274 614.143 C 978.752 611.853, 979.372 611.702, 982.081 612.724 C 984.588 613.671, 985.213 613.608, 985.691 612.363 C 986.009 611.535, 987.783 609.252, 989.634 607.289 C 991.485 605.326, 993 603.169, 993 602.495 C 993 601.821, 993.900 600.126, 995 598.727 C 997.760 595.219, 997.541 594.351, 993.408 592.389 C 988.715 590.162, 979.009 581.262, 978.970 579.150 C 978.912 576.018, 977.250 580.163, 976.133 586.225 C 974.261 596.377, 970.433 600.968, 963.785 601.031 C 961.978 601.048, 958.700 602.171, 956.500 603.526 C 951.321 606.716, 949.590 606.637, 947.068 603.096 C 944.660 599.713, 944.463 596.965, 946.361 593.200 C 947.110 591.715, 948.005 587.318, 948.352 583.429 C 949.397 571.678, 952.218 566.525, 961.386 559.619 C 964.931 556.948, 965.655 556.784, 971.280 557.371 C 977.714 558.044, 981 560.024, 981 563.228 C 981 564.912, 981.455 564.771, 984.728 562.073 C 987.764 559.570, 989.362 559, 993.344 559 C 997.378 559, 999.086 559.627, 1003.116 562.585 C 1007.488 565.794, 1008 566.572, 1008 570.002 C 1008 572.110, 1007.100 575.934, 1006 578.500 C 1002.669 586.270, 1003.703 588.625, 1007.802 582.605 C 1011.099 577.763, 1018.956 570, 1020.560 570 C 1022.695 570, 1025 579.524, 1025 588.348 C 1025 592.740, 1025.255 596.078, 1025.567 595.766 C 1025.879 595.454, 1026.763 592.567, 1027.531 589.350 C 1030.247 577.981, 1028.702 557.607, 1024.421 548.341 C 1021.276 541.533, 1013.169 535.573, 995.260 526.902 L 979.019 519.039 969.217 519.209 C 963.826 519.302, 958.198 519.704, 956.710 520.102" stroke="#fc7143" fill="#fc7143" fill-opacity="0.2" fill-rule="evenodd"/><path class="svg-region-ADCl" d="M 847.831 560.287 C 846.278 561.511, 846.300 562.051, 848.158 568.051 C 849.256 571.598, 852.182 579.795, 854.660 586.267 C 859.668 599.346, 860.294 599.976, 870.977 602.688 C 874.014 603.459, 878.253 604.536, 880.395 605.083 C 883.819 605.955, 884.576 605.807, 886.645 603.863 C 888.008 602.583, 889 600.496, 889 598.909 C 889 595.131, 882.255 578.567, 879.511 575.607 C 878.278 574.276, 876.297 571.179, 875.109 568.725 C 873.177 564.734, 872.292 564.026, 866.724 562.018 C 859.081 559.260, 850.169 558.444, 847.831 560.287" stroke="#54413e" fill="#54413e" fill-opacity="0.2" fill-rule="evenodd"/><path class="svg-region-ADCr" d="M 961.473 559.264 C 952.534 565.867, 948.052 574.724, 947.965 585.960 C 947.945 588.457, 947.286 591.625, 946.500 593 C 944.310 596.831, 944.698 600.678, 947.602 603.938 C 950.442 607.125, 951.204 607.076, 957.230 603.323 C 959.282 602.045, 962.335 601, 964.015 601 C 970.008 601, 974.618 595.824, 976.039 587.500 C 976.414 585.300, 977.684 579.928, 978.861 575.562 C 982.780 561.017, 981.565 558.260, 970.895 557.490 C 965.410 557.095, 964.069 557.347, 961.473 559.264" stroke="#54413e" fill="#54413e" fill-opacity="0.2" fill-rule="evenodd"/><path class="svg-region-AVCl" d="M 853.500 632.438 C 850.200 634.424, 846.017 637.725, 844.206 639.774 C 842.394 641.823, 838.569 646.144, 835.706 649.376 C 832.842 652.608, 830.500 655.659, 830.500 656.156 C 830.500 657.579, 841.056 669.285, 845.750 673.067 C 848.087 674.950, 850 677.024, 850 677.676 C 850 678.327, 852.064 680.579, 854.587 682.680 C 857.109 684.781, 860.968 688.046, 863.163 689.935 C 867.294 693.492, 868.946 693.156, 868.985 688.750 C 868.998 687.263, 869.984 687, 875.550 687 C 882.089 687, 888 685.039, 888 682.869 C 888 682.275, 889.025 680.570, 890.278 679.081 C 892.757 676.135, 894.218 671.817, 895.908 662.440 C 898.087 650.346, 897.543 648.847, 887.880 640.333 C 878.949 632.463, 873.962 629.956, 866.009 629.335 C 859.882 628.857, 859.148 629.039, 853.500 632.438" stroke="#ffbab9" fill="#ffbab9" fill-opacity="0.2" fill-rule="evenodd"/><path class="svg-region-AVCr" d="M 976.913 613.605 C 976.180 614.488, 973.087 616.903, 970.040 618.973 C 958.551 626.775, 948.001 637.156, 944.422 644.179 C 943.111 646.753, 941.542 649.165, 940.936 649.539 C 939.005 650.733, 935.956 659.124, 935.353 664.907 C 934.868 669.556, 935.143 671.133, 936.984 674.250 C 938.201 676.313, 939.614 678, 940.124 678 C 940.633 678, 941.477 679.125, 942 680.500 C 942.523 681.875, 943.652 683, 944.509 683 C 945.366 683, 947.328 684.289, 948.868 685.865 C 952.669 689.754, 960.604 691.821, 964.899 690.042 C 966.605 689.335, 968 688.406, 968 687.976 C 968 687.546, 970.587 685.489, 973.750 683.405 C 976.913 681.321, 980.088 678.802, 980.807 677.808 C 981.525 676.814, 982.692 676, 983.399 676 C 985.388 676, 994.762 664.358, 995.509 660.961 C 996.068 658.414, 995.614 657.315, 992.643 654.027 C 990.674 651.847, 988.886 648.656, 988.600 646.810 C 987.885 642.196, 987.350 638.915, 985.530 628 C 984.659 622.775, 984.188 617.506, 984.482 616.290 C 985.384 612.569, 979.503 610.484, 976.913 613.605" stroke="#ffbab9" fill="#ffbab9" fill-opacity="0.2" fill-rule="evenodd"/><path class="svg-region-Ol" d="M 592.500 200.672 C 591.400 200.959, 590.072 201.600, 589.550 202.097 C 589.028 202.594, 587.367 203, 585.859 203 C 584.351 203, 582.887 203.373, 582.606 203.829 C 582.324 204.285, 579.485 205.272, 576.297 206.021 C 573.108 206.771, 569.150 208.123, 567.500 209.027 C 564.671 210.576, 561.229 211.680, 556.379 212.593 C 555.213 212.813, 551.613 214.163, 548.379 215.593 C 545.146 217.023, 541.150 218.789, 539.500 219.517 C 523.160 226.722, 503.224 237.318, 499.114 240.982 C 497.252 242.642, 495.421 244, 495.045 244 C 494.308 244, 485.086 250.547, 481 253.971 C 479.625 255.123, 475.575 258.153, 472 260.705 C 465.319 265.472, 458.869 270.675, 451.487 277.250 C 449.171 279.313, 446.764 281, 446.138 281 C 445.512 281, 445 281.418, 445 281.929 C 445 282.439, 442.775 284.299, 440.056 286.060 C 437.337 287.822, 434.877 289.879, 434.588 290.632 C 434.299 291.384, 433.443 292, 432.686 292 C 431.929 292, 430.453 292.952, 429.405 294.116 C 427.846 295.847, 419.897 302.624, 403.734 316 C 396.541 321.953, 375.120 342.015, 368.554 348.949 C 364.674 353.046, 358.552 359.346, 354.950 362.949 C 348.967 368.933, 343.745 375.306, 336.961 384.907 C 328.285 397.183, 319.145 419.679, 312.950 444 C 312.459 445.925, 311.083 451.325, 309.892 456 C 308.700 460.675, 307.307 467.200, 306.795 470.500 C 306.283 473.800, 305.674 477.513, 305.443 478.751 C 304.954 481.362, 303.677 490.687, 302.050 503.526 C 301.338 509.145, 301.081 521.603, 301.368 536.526 C 301.849 561.461, 303.195 573.274, 308.545 599.500 C 310.675 609.941, 312.071 615.585, 315.967 629.500 C 317.720 635.759, 323.746 651.682, 325.996 656 C 327.286 658.475, 328.690 661.175, 329.117 662 C 336.360 676.005, 338.618 679.257, 351.795 694.664 C 362.789 707.518, 366.167 710.700, 375.500 716.995 C 378.250 718.850, 380.725 720.662, 381 721.022 C 381.876 722.166, 395.230 728.821, 403 731.984 C 410.820 735.168, 422.297 738.356, 430 739.485 C 432.475 739.848, 437.425 741.207, 441 742.504 C 447.343 744.807, 454.419 746.427, 462.500 747.428 C 464.700 747.700, 470.100 748.432, 474.500 749.054 C 478.900 749.676, 490.600 750.333, 500.500 750.514 C 517.293 750.821, 519.472 750.643, 533 747.855 C 540.975 746.212, 549.975 744.469, 553 743.983 C 556.025 743.497, 561.425 742.447, 565 741.651 C 568.575 740.855, 573.173 739.915, 575.218 739.562 C 578.799 738.945, 599.047 729.112, 617.231 719.160 C 622.033 716.532, 629.683 711.280, 634.231 707.490 C 638.779 703.700, 643.694 700.003, 645.152 699.275 C 646.611 698.547, 648.060 697.287, 648.371 696.475 C 648.682 695.664, 649.432 695, 650.036 695 C 650.640 695, 652.639 693.538, 654.478 691.750 C 656.317 689.962, 661.720 684.900, 666.484 680.500 C 671.249 676.100, 678.878 667.775, 683.437 662 C 691.978 651.182, 701 637.907, 701 636.158 C 701 635.613, 701.353 635.017, 701.784 634.833 C 702.719 634.436, 714 611.517, 714 610.016 C 714 609.442, 714.435 608.191, 714.967 607.236 C 716.969 603.640, 722.171 588.293, 724.878 578 C 725.385 576.075, 728.265 565.950, 731.280 555.500 C 734.295 545.050, 737.549 533.125, 738.511 529 C 740.475 520.584, 746.617 499.567, 748.009 496.500 C 748.508 495.400, 749.429 492.475, 750.056 490 C 750.683 487.525, 752.019 483.684, 753.025 481.465 C 754.031 479.246, 755.172 476.096, 755.561 474.465 C 755.950 472.834, 756.826 470.825, 757.507 470 C 758.188 469.175, 759.557 466.700, 760.550 464.500 C 761.543 462.300, 763.112 459.375, 764.036 458 C 764.960 456.625, 767.133 452.932, 768.865 449.793 L 772.013 444.085 769.576 438.576 C 768.236 435.545, 766.175 432.038, 764.997 430.783 C 762.008 427.599, 754.364 413.372, 752.090 406.761 C 751.047 403.730, 749.885 397.707, 749.507 393.376 C 749.130 389.044, 747.511 381.175, 745.910 375.889 C 744.310 370.603, 742.984 364.978, 742.964 363.389 C 742.918 359.643, 740.675 350.458, 738.718 346 C 736.685 341.369, 733.132 329.092, 731.484 321 C 730.755 317.425, 728.747 311.125, 727.020 307 C 725.293 302.875, 723.292 297.700, 722.574 295.500 C 720.321 288.600, 717.815 283, 716.980 283 C 716.539 283, 713.630 277.860, 710.517 271.577 C 706.439 263.348, 703.254 258.471, 699.127 254.133 C 695.976 250.822, 691.621 245.554, 689.449 242.427 C 683.268 233.528, 676.776 227.505, 670.203 224.571 C 667.839 223.517, 665.589 222.169, 665.203 221.577 C 664.260 220.132, 642.485 209, 640.601 209 C 639.784 209, 637.556 208.081, 635.652 206.957 C 633.483 205.677, 631.310 205.135, 629.835 205.505 C 628.540 205.830, 621.635 204.895, 614.490 203.426 C 600.132 200.476, 595.485 199.894, 592.500 200.672" stroke="#aa444d" fill="#aa444d" fill-opacity="0.2" fill-rule="evenodd"/><path class="svg-region-Or" d="M 1216.418 172.132 C 1216.204 172.480, 1213.101 173.077, 1209.524 173.460 C 1205.948 173.844, 1202.765 174.572, 1202.452 175.078 C 1202.138 175.585, 1201.046 176, 1200.025 176 C 1197.736 176, 1176.614 186.491, 1172.500 189.672 C 1165.067 195.418, 1163.594 196.651, 1161.369 198.990 C 1159.885 200.550, 1159 202.680, 1159 204.694 C 1159 208.395, 1152.422 229.233, 1149.117 236 C 1148.714 236.825, 1146.448 243.575, 1144.082 251 C 1141.715 258.425, 1137.408 269.675, 1134.510 276 C 1125.796 295.020, 1124.211 299.782, 1123.523 309 C 1122.624 321.056, 1119.562 331.798, 1113.378 344.595 C 1106.795 358.219, 1104.233 361.654, 1086.811 380.210 C 1079.215 388.301, 1073 395.344, 1073 395.861 C 1073 396.379, 1070.975 399.496, 1068.500 402.788 C 1066.025 406.081, 1064.006 409.388, 1064.013 410.137 C 1064.020 410.887, 1062.811 415.479, 1061.326 420.343 C 1059.192 427.336, 1058.872 429.533, 1059.794 430.843 C 1060.435 431.754, 1062.515 435.650, 1064.416 439.500 C 1066.317 443.350, 1069.833 450.100, 1072.230 454.500 C 1082.378 473.126, 1085.645 479.873, 1093.050 497.500 C 1095.361 503, 1098.150 509.509, 1099.249 511.965 C 1100.347 514.421, 1102.050 519.146, 1103.033 522.465 C 1105.314 530.169, 1110.645 544.978, 1111.412 545.746 C 1111.736 546.069, 1112 547.201, 1112 548.262 C 1112 549.323, 1112.641 551.386, 1113.426 552.846 C 1116.407 558.398, 1121 568.707, 1121 569.849 C 1121 570.504, 1122.024 572.718, 1123.276 574.770 C 1124.528 576.821, 1126.411 580.975, 1127.460 584 C 1128.510 587.025, 1130.861 592.525, 1132.684 596.222 C 1134.508 599.920, 1136 603.245, 1136 603.612 C 1136 603.979, 1137.292 606.378, 1138.871 608.944 C 1140.450 611.510, 1142.085 614.710, 1142.506 616.055 C 1142.926 617.400, 1144.559 619.978, 1146.135 621.785 C 1147.711 623.591, 1149 625.541, 1149 626.116 C 1149 626.692, 1150.575 629.085, 1152.500 631.435 C 1154.425 633.784, 1156 636.137, 1156 636.664 C 1156 637.192, 1156.787 638.497, 1157.750 639.566 C 1158.713 640.635, 1161.975 644.417, 1165 647.970 C 1168.025 651.523, 1171.175 655.154, 1172 656.038 C 1172.825 656.922, 1174.668 658.963, 1176.095 660.573 C 1180.357 665.381, 1193.797 677.183, 1196.751 678.711 C 1198.263 679.493, 1200.400 680.913, 1201.500 681.867 C 1202.600 682.821, 1205.975 684.887, 1209 686.458 C 1212.025 688.029, 1215.625 690.085, 1217 691.026 C 1218.375 691.968, 1220.625 693.081, 1222 693.500 C 1224.214 694.175, 1229.642 697.463, 1231 698.952 C 1232.344 700.426, 1256.379 711.161, 1262 712.798 C 1263.925 713.359, 1267.643 714.076, 1270.262 714.391 C 1272.881 714.707, 1276.894 715.868, 1279.179 716.972 C 1281.464 718.076, 1286.746 719.408, 1290.917 719.931 C 1295.087 720.454, 1302.775 721.914, 1308 723.175 C 1316.357 725.192, 1319.847 725.454, 1337 725.351 C 1347.725 725.287, 1359.650 724.731, 1363.500 724.115 C 1367.350 723.499, 1375.900 722.296, 1382.500 721.442 C 1396.783 719.592, 1398.955 719.035, 1424 710.785 C 1431.099 708.447, 1440.237 704.283, 1446.500 700.533 C 1448.700 699.215, 1451.850 697.380, 1453.500 696.453 C 1465.122 689.928, 1491.126 665.604, 1496.749 656 C 1498.198 653.525, 1501.578 648.212, 1504.261 644.193 C 1506.943 640.175, 1510.487 633.650, 1512.137 629.693 C 1513.787 625.737, 1515.784 621.075, 1516.576 619.332 C 1517.368 617.590, 1519.602 609.977, 1521.540 602.415 C 1526.104 584.607, 1527.493 562.652, 1526.658 521.500 C 1526.046 491.382, 1525.228 481.376, 1521.997 464.500 C 1520.944 459, 1519.372 450.225, 1518.503 445 C 1512.823 410.853, 1493.387 355.888, 1476.245 325.500 C 1470.057 314.529, 1459.126 297.688, 1457.862 297.177 C 1457.423 297, 1455.426 294.624, 1453.425 291.897 C 1450.272 287.602, 1439.196 277.204, 1425.500 265.680 C 1423.300 263.829, 1419.362 261.264, 1416.750 259.980 C 1414.138 258.696, 1412 257.323, 1412 256.928 C 1412 256.534, 1407.414 253.576, 1401.808 250.355 C 1396.203 247.135, 1390.015 243.580, 1388.058 242.455 C 1384.966 240.678, 1376.403 235.619, 1371.186 232.488 C 1370.259 231.931, 1366.130 229.486, 1362.011 227.054 C 1357.892 224.622, 1353.650 221.820, 1352.585 220.828 C 1351.519 219.835, 1349.714 218.742, 1348.574 218.399 C 1347.433 218.056, 1345.375 216.743, 1344 215.482 C 1342.625 214.221, 1339.925 212.303, 1338 211.219 C 1336.075 210.136, 1331.575 207.420, 1328 205.184 C 1321.643 201.207, 1300.962 189.649, 1296 187.300 C 1284.280 181.751, 1277.261 179.015, 1273.238 178.428 C 1270.632 178.048, 1266.830 176.896, 1264.790 175.869 C 1262.749 174.841, 1259.821 174, 1258.283 174 C 1256.745 174, 1253.915 173.490, 1251.993 172.867 C 1248.335 171.681, 1217.096 171.035, 1216.418 172.132" stroke="#aa444d" fill="#aa444d" fill-opacity="0.2" fill-rule="evenodd"/><path class="svg-region-BPCl" d="M 802.569 577.888 C 802.191 578.500, 802.193 579.503, 802.573 580.118 C 802.953 580.733, 803.615 582.645, 804.045 584.368 C 804.475 586.091, 805.541 590.109, 806.413 593.299 C 808.860 602.241, 808.062 612.304, 804.111 622.315 C 802.395 626.662, 802.775 630.387, 805.482 635.778 C 808.826 642.436, 823.985 656, 828.081 656 C 829.971 656, 839.685 646.391, 841.758 642.470 C 842.525 641.020, 843.111 635.288, 843.258 627.795 L 843.500 615.500 839.500 608.687 C 837.300 604.940, 834.600 600.207, 833.500 598.170 C 831.611 594.672, 826.659 589.567, 817.446 581.618 C 814.435 579.021, 812.087 577.948, 808.324 577.449 C 805 577.008, 803.020 577.159, 802.569 577.888" stroke="#83385f" fill="#83385f" fill-opacity="0.2" fill-rule="evenodd"/><path class="svg-region-BPCr" d="M 1016.879 572.286 C 1013.249 575.351, 993.002 600.771, 992.991 602.275 C 992.987 602.949, 991.451 605.115, 989.579 607.090 C 984.400 612.554, 983.601 616.661, 985.512 628 C 987.265 638.398, 987.825 641.810, 988.600 646.810 C 989.238 650.927, 995.439 658.012, 998.366 657.968 C 999.540 657.951, 1001.374 657.276, 1002.441 656.468 C 1003.509 655.661, 1005.084 654.995, 1005.941 654.988 C 1006.878 654.981, 1009.195 651.688, 1011.746 646.738 C 1015.719 639.031, 1018.008 631.430, 1019.948 619.500 C 1020.396 616.750, 1021.522 612.700, 1022.451 610.500 C 1025.062 604.315, 1025.769 583.158, 1023.612 575.739 C 1022.695 572.582, 1021.394 570.016, 1020.722 570.036 C 1020.050 570.056, 1018.320 571.068, 1016.879 572.286" stroke="#83385f" fill="#83385f" fill-opacity="0.2" fill-rule="evenodd"/>
    </svg>