<svg xmlns="http://www.w3.org/2000/svg" width="1921" height="1027" viewBox="0 0 1921 1027" version="1.1">
    <path class="svg-region-V" d="M 895.500 173.945 C 889.450 174.286, 883.971 174.893, 883.325 175.295 C 882.679 175.697, 877.954 176.228, 872.825 176.476 C 863.938 176.905, 854.304 177.960, 840 180.072 C 836.425 180.600, 830.575 181.285, 827 181.595 C 823.425 181.905, 816.900 183.048, 812.500 184.134 C 808.100 185.220, 801.800 186.777, 798.500 187.595 C 795.200 188.413, 790.475 189.339, 788 189.653 C 785.525 189.967, 783.050 190.754, 782.500 191.402 C 781.950 192.049, 779.607 193.136, 777.292 193.817 C 774.978 194.498, 768.703 197.293, 763.348 200.027 C 757.992 202.762, 753.049 205, 752.362 205 C 751.675 205, 750.525 205.840, 749.807 206.866 C 749.088 207.892, 746.925 209.065, 745 209.474 C 743.075 209.882, 740.600 211.006, 739.500 211.973 C 738.400 212.939, 735.484 214.578, 733.021 215.615 C 727.038 218.133, 715.149 224.161, 711.825 226.361 C 708.799 228.364, 707 232.633, 707 237.811 C 707 241.515, 710.991 249.399, 713.319 250.292 C 714.073 250.582, 714.729 252.166, 714.776 253.813 C 714.822 255.459, 715.728 258.538, 716.788 260.653 C 717.849 262.769, 719.014 265.738, 719.377 267.250 C 719.963 269.688, 720.497 270, 724.085 270 C 726.310 270, 729.059 270.496, 730.192 271.103 C 733.482 272.863, 752.803 273.010, 757.500 271.310 C 759.700 270.514, 763.235 269.430, 765.355 268.903 C 767.475 268.375, 770.625 267.201, 772.355 266.294 C 775.620 264.582, 798.869 260.709, 805 260.856 C 806.925 260.902, 811.181 261.226, 814.459 261.575 C 820.218 262.188, 820.763 262.032, 830.739 256.925 C 836.415 254.019, 842.734 250.230, 844.780 248.505 C 846.826 246.781, 853 242.969, 858.500 240.035 C 864 237.100, 868.772 234.285, 869.104 233.777 C 870.434 231.745, 878.356 230.772, 895.500 230.535 C 905.400 230.397, 917.550 229.712, 922.500 229.012 C 934.215 227.355, 946.402 227.640, 950.313 229.662 C 951.973 230.520, 956.295 231.368, 959.916 231.546 C 964.238 231.759, 968.485 232.751, 972.279 234.435 C 975.457 235.846, 978.851 237, 979.820 237 C 980.790 237, 985.593 239.299, 990.493 242.108 C 995.393 244.918, 1001.358 247.805, 1003.749 248.525 C 1009.826 250.354, 1012.492 252.324, 1015.052 256.878 C 1018.336 262.721, 1023.076 264.495, 1035.470 264.520 C 1043.926 264.536, 1046.756 264.986, 1053.500 267.388 C 1060.762 269.974, 1062.377 270.190, 1071 269.734 C 1079.208 269.300, 1081.562 268.739, 1088.311 265.613 C 1097.962 261.143, 1099.833 261.631, 1099.833 268.622 C 1099.833 274.596, 1101.515 276.369, 1106.324 275.467 C 1109.205 274.926, 1110.444 273.918, 1112.467 270.467 C 1113.877 268.061, 1115 264.586, 1115 262.631 C 1115 260.699, 1115.433 258.850, 1115.963 258.523 C 1116.492 258.196, 1116.943 256.032, 1116.964 253.714 C 1117.018 247.751, 1117.360 245.816, 1118.815 243.229 C 1119.518 241.980, 1119.871 240.601, 1119.601 240.163 C 1119.330 239.725, 1119.025 235.229, 1118.923 230.172 C 1118.756 221.954, 1118.434 220.499, 1115.889 216.486 C 1112.567 211.248, 1107.789 208.009, 1103.375 208.004 C 1100.476 208, 1085.145 201.743, 1084.006 200.098 C 1083.728 199.696, 1079.675 198.312, 1075 197.021 C 1070.325 195.731, 1064.700 193.774, 1062.500 192.674 C 1057.812 190.329, 1048.183 188.090, 1042.500 188.023 C 1040.300 187.997, 1034 186.805, 1028.500 185.373 C 1014.999 181.858, 1009.741 181.041, 994.500 180.090 C 987.350 179.644, 979.925 178.748, 978 178.098 C 976.075 177.449, 969.775 176.464, 964 175.909 C 958.225 175.354, 949.675 174.504, 945 174.021 C 935.501 173.039, 912.205 173.003, 895.500 173.945" stroke="#dd8a8a" fill="#dd8a8a" fill-opacity="0.2" fill-rule="evenodd"/><path class="svg-region-SF" d="M 929.500 227.986 C 922.769 229.717, 900.789 231.223, 891.844 230.565 C 880.256 229.713, 872.690 231.306, 864.999 236.218 C 861.974 238.149, 856.800 241.139, 853.500 242.861 C 850.200 244.584, 845.925 247.308, 844 248.915 C 842.075 250.522, 836.106 254.123, 830.735 256.918 C 820.410 262.292, 814.182 263.407, 808.628 260.876 C 806.736 260.014, 804.222 260.119, 797.831 261.326 C 793.249 262.192, 786.575 263.185, 783 263.534 C 779.425 263.882, 774.907 264.973, 772.960 265.958 C 771.013 266.943, 767.863 268.084, 765.960 268.495 C 764.057 268.905, 761.181 269.915, 759.569 270.740 C 755.763 272.686, 737.189 273.058, 732.113 271.289 C 730.126 270.597, 727.099 270.023, 725.387 270.015 C 722.377 270.001, 722.228 270.209, 720.906 276.250 C 718.883 285.502, 719.093 291.376, 721.548 294.169 C 722.674 295.451, 724.437 298.975, 725.465 302 C 727.041 306.635, 729.516 311.930, 733.878 320 C 736.398 324.660, 737 326.135, 737 327.642 C 737 328.560, 738.038 330.704, 739.307 332.406 C 740.576 334.108, 742.398 337.598, 743.357 340.163 C 744.315 342.728, 746.307 346.034, 747.784 347.511 C 750.207 349.934, 750.944 350.132, 755.365 349.546 C 759.476 349.001, 760.611 349.225, 762.441 350.945 C 764.066 352.471, 766.545 353.156, 772.158 353.631 C 779.664 354.265, 779.721 354.251, 786.846 350.090 C 790.781 347.792, 794 345.482, 794 344.956 C 794 344.430, 794.741 344, 795.646 344 C 796.552 344, 799.666 342.425, 802.566 340.500 C 805.466 338.575, 808.602 337, 809.534 337 C 810.466 337, 815.565 335.682, 820.864 334.071 C 826.164 332.460, 834.472 329.960, 839.326 328.515 C 846.200 326.469, 847.918 325.606, 847.094 324.613 C 845.439 322.619, 849.402 319.007, 853.289 318.966 C 855.055 318.947, 858.300 318.063, 860.500 317 C 863.431 315.584, 866.697 315.059, 872.723 315.034 C 879.632 315.005, 881.859 315.433, 886.669 317.710 C 892.881 320.651, 893.996 320.718, 915.965 319.465 C 923.234 319.051, 928.166 318.297, 929.438 317.406 C 930.542 316.633, 933.257 315.994, 935.473 315.987 C 937.688 315.980, 942.353 315.080, 945.839 313.987 C 950.684 312.468, 954.997 312, 964.142 312 C 975.256 312, 976.368 312.178, 979.785 314.500 C 981.809 315.875, 984 317, 984.655 317 C 985.311 317, 987.281 318.207, 989.034 319.682 C 992.018 322.193, 992.106 322.449, 990.420 323.682 C 988.888 324.803, 990.256 325.005, 999.559 325.032 C 1007.591 325.055, 1011.016 325.454, 1012.441 326.532 C 1013.509 327.339, 1015.484 328, 1016.831 328 C 1018.177 328, 1021.473 329.350, 1024.154 331 C 1026.836 332.650, 1029.361 334.001, 1029.765 334.002 C 1030.749 334.005, 1046.146 341.923, 1047.823 343.289 C 1048.551 343.881, 1050.022 346.084, 1051.093 348.183 C 1052.540 351.018, 1053.663 352, 1055.461 352 C 1056.793 352, 1058.124 351.608, 1058.420 351.129 C 1058.716 350.650, 1063.805 350.053, 1069.729 349.801 C 1077.103 349.488, 1081.509 348.817, 1083.700 347.672 C 1085.461 346.752, 1087.837 346, 1088.982 346 C 1090.126 346, 1091.357 345.213, 1091.716 344.250 C 1092.075 343.288, 1093.171 341.922, 1094.153 341.215 C 1095.134 340.509, 1096.861 338.034, 1097.991 335.715 C 1100.371 330.831, 1102.132 327.771, 1103.663 325.857 C 1104.260 325.110, 1104.988 323.150, 1105.279 321.500 C 1105.571 319.850, 1106.508 316.639, 1107.360 314.365 C 1108.213 312.091, 1109.222 306.110, 1109.602 301.073 C 1110.388 290.665, 1109.832 288.871, 1103.847 282.500 C 1100.292 278.715, 1100.074 278.103, 1099.795 271.105 C 1099.401 261.235, 1098.383 260.609, 1089.576 264.816 C 1085.925 266.560, 1080.895 268.501, 1078.398 269.130 C 1071.689 270.819, 1058.768 269.666, 1050.969 266.681 C 1045.584 264.621, 1042.953 264.222, 1035.969 264.407 C 1031.311 264.531, 1025.930 264.214, 1024.012 263.703 C 1020.400 262.742, 1014 256.870, 1014 254.518 C 1014 253.131, 1004.697 248, 1002.183 248 C 1001.399 248, 996.875 245.759, 992.129 243.020 C 987.383 240.281, 981.060 237.316, 978.078 236.430 C 975.095 235.545, 971.645 234.158, 970.411 233.349 C 969.167 232.535, 965.119 231.732, 961.333 231.548 C 957.575 231.367, 952.700 230.529, 950.500 229.686 C 945.755 227.870, 933.737 226.897, 929.500 227.986" stroke="#8c6b55" fill="#8c6b55" fill-opacity="0.2" fill-rule="evenodd"/><path class="svg-region-IF" d="M 945.500 314 C 942.750 315.015, 938.463 315.880, 935.973 315.922 C 933.482 315.965, 930.523 316.645, 929.397 317.434 C 928.061 318.370, 923.380 319.074, 915.925 319.460 C 893.710 320.610, 892.944 320.562, 887.063 317.672 C 882.382 315.372, 880.363 315, 872.548 315 C 865.381 315, 862.685 315.421, 859.739 317 C 857.686 318.100, 854.673 319, 853.043 319 C 851.281 319, 849.251 319.888, 848.039 321.189 C 845.555 323.855, 845.530 324.278, 847.750 326.224 C 852.048 329.993, 855.869 330.969, 868.323 331.478 C 875.190 331.759, 881.516 332.261, 882.381 332.593 C 883.246 332.925, 886.327 332.922, 889.227 332.588 C 903.459 330.946, 919.061 330.113, 946 329.558 C 977.698 328.904, 982.674 328.509, 985.002 326.461 C 985.828 325.734, 987.806 324.644, 989.397 324.039 L 992.291 322.939 990.047 320.550 C 988.812 319.236, 986.384 317.592, 984.651 316.898 C 982.918 316.203, 980.427 314.817, 979.115 313.817 C 975.657 311.182, 952.800 311.306, 945.500 314" stroke="#f2823b" fill="#f2823b" fill-opacity="0.2" fill-rule="evenodd"/><path class="svg-region-AAB" d="M 984.564 326.120 C 981.374 328.623, 978.598 328.872, 946.500 329.528 C 919.123 330.087, 901.428 331.032, 888.736 332.611 C 886.116 332.937, 883.191 332.891, 882.236 332.510 C 881.281 332.128, 875.100 331.636, 868.500 331.417 C 858.117 331.072, 855.849 330.681, 851.670 328.515 L 846.839 326.012 840.670 327.998 C 826.744 332.481, 811.077 337, 809.461 337 C 807.787 337, 801.020 340.657, 799.990 342.118 C 799.709 342.516, 798.241 343.152, 796.727 343.532 C 795.213 343.912, 793.643 344.746, 793.237 345.386 C 792.832 346.025, 791.263 347.335, 789.750 348.297 C 786.680 350.249, 786.388 351.241, 788.313 353.179 C 789.035 353.905, 789.598 355.838, 789.563 357.473 C 789.468 361.954, 792.238 361.806, 797.170 357.067 C 801.834 352.585, 802.984 352.131, 803.032 354.750 C 803.069 356.801, 805.296 360, 806.686 360 C 807.860 360, 812 364.285, 812 365.500 C 812 365.979, 811.052 367.380, 809.893 368.614 C 806.502 372.224, 807.951 373.052, 814 370.961 C 817.025 369.916, 820.312 368.578, 821.305 367.988 C 822.298 367.397, 826.123 366.666, 829.805 366.362 C 837.896 365.694, 843.849 363.639, 850.335 359.275 C 853.011 357.474, 855.815 356, 856.566 356 C 857.316 356, 860.016 355.292, 862.565 354.426 C 866.623 353.049, 869.151 353, 882.850 354.034 C 903.516 355.593, 911.121 355.594, 932 354.040 C 953.560 352.435, 969.910 353.718, 982.500 358.004 C 993.210 361.650, 1003.337 363.766, 1016 365.003 C 1021.775 365.568, 1028.020 366.308, 1029.877 366.647 C 1034.753 367.538, 1033.558 365.079, 1027.768 362.303 C 1021.756 359.423, 1021.265 358.377, 1024.391 355.114 C 1025.826 353.616, 1027 351.230, 1027 349.812 C 1027 345.573, 1030.537 345.487, 1035.560 349.603 C 1037.904 351.524, 1040.073 353.749, 1040.380 354.548 C 1040.686 355.347, 1042.082 356, 1043.482 356 C 1044.882 356, 1046.861 356.521, 1047.881 357.158 C 1050.017 358.492, 1052.786 357.720, 1053.615 355.561 C 1053.928 354.745, 1052.986 351.627, 1051.522 348.634 C 1048.987 343.453, 1048.411 342.971, 1039.538 338.596 C 1034.411 336.068, 1029.958 334, 1029.643 334 C 1029.327 334, 1026.941 332.650, 1024.339 331 C 1021.737 329.350, 1018.494 328, 1017.133 328 C 1015.771 328, 1013.947 327.362, 1013.079 326.583 C 1011.944 325.565, 1008 325.072, 999.064 324.833 C 988.766 324.557, 986.273 324.778, 984.564 326.120" stroke="#7f3c1a" fill="#7f3c1a" fill-opacity="0.2" fill-rule="evenodd"/><path class="svg-region-APB" d="M 864 353.852 C 863.175 354.342, 860.892 355.032, 858.927 355.384 C 856.961 355.736, 853.186 357.399, 850.538 359.078 C 844.027 363.207, 836.788 365.680, 829.102 366.401 C 825.584 366.730, 822.209 367.356, 821.602 367.792 C 820.996 368.227, 818.700 369.177, 816.500 369.904 C 801.882 374.731, 794.601 378.756, 789.480 384.841 C 788.018 386.579, 786.440 388, 785.973 388 C 785.507 388, 782.667 389.688, 779.663 391.750 L 774.201 395.500 774.634 406.500 C 775.122 418.876, 776.861 431.796, 778.147 432.591 C 778.616 432.881, 778.999 433.879, 778.997 434.809 C 778.993 437.547, 783.366 444.997, 784.998 445.032 C 786.686 445.068, 790 447.332, 790 448.450 C 790 451.705, 800.122 454.478, 802.677 451.923 C 803.271 451.329, 808.859 450.683, 815.160 450.481 C 826.195 450.127, 828.675 449.594, 834 446.428 C 836.607 444.878, 839.754 445.016, 846.500 446.977 C 855.479 449.586, 854.390 449.778, 867.500 443.284 C 870.250 441.922, 874.975 439.893, 878 438.775 C 881.025 437.658, 885.300 435.943, 887.500 434.965 C 901.057 428.936, 902.781 428.577, 919.882 428.234 C 935.181 427.926, 936.832 428.077, 944.882 430.511 C 949.622 431.944, 954.400 433.521, 955.500 434.015 C 956.600 434.510, 963.772 436.958, 971.438 439.457 C 984.708 443.782, 985.930 444, 996.940 444 C 1005.828 444, 1010.776 444.562, 1018.320 446.430 C 1031.721 449.749, 1040.476 449.708, 1049.500 446.286 C 1058.535 442.859, 1060 441.570, 1060 437.041 C 1060 434.186, 1060.759 432.657, 1063.489 430.010 L 1066.979 426.628 1066.951 415.064 C 1066.935 408.704, 1066.393 400.462, 1065.744 396.750 L 1064.566 390 1060.717 390 C 1057.312 390, 1056.156 389.272, 1050.684 383.689 C 1047.283 380.218, 1043.263 376.767, 1041.750 376.020 C 1040.237 375.273, 1039 374.245, 1039 373.735 C 1039 373.226, 1038.124 371.578, 1037.052 370.074 C 1034.965 367.142, 1032.707 366.650, 1009.047 363.972 C 999.356 362.874, 987.564 360.101, 981.128 357.405 C 979.132 356.570, 972.325 355.190, 966 354.340 C 953.531 352.664, 933.034 353.014, 914.793 355.213 C 907.437 356.101, 903.562 356.105, 898.793 355.231 C 890.425 353.698, 865.894 352.726, 864 353.852" stroke="#ac7444" fill="#ac7444" fill-opacity="0.2" fill-rule="evenodd"/><path class="svg-region-AP" d="M 1027 507.974 C 1023.975 508.366, 1019.925 509.179, 1018 509.780 C 1010.699 512.062, 999.853 512.699, 993.525 511.218 C 989.374 510.246, 985.012 510.014, 979.500 510.471 C 975.100 510.836, 969.270 511.303, 966.544 511.509 C 963.819 511.714, 960.669 512.324, 959.544 512.863 C 958.420 513.403, 956.286 514.107, 954.802 514.428 C 953.196 514.776, 951.569 516.123, 950.784 517.756 C 949.633 520.151, 948.832 520.527, 944.483 520.709 C 934.353 521.134, 923.437 522.576, 921.316 523.771 C 918.381 525.422, 913.849 525.322, 910.391 523.528 C 908.830 522.718, 905.516 521.793, 903.027 521.473 C 894.263 520.346, 893.916 520.183, 894.584 517.521 C 895.100 515.466, 894.752 514.971, 892.347 514.341 C 889.160 513.506, 816.505 513.472, 802.500 514.300 L 793.500 514.831 793.639 533.166 L 793.779 551.500 796.889 557.352 C 799.504 562.270, 800 564.303, 800 570.102 C 800 573.896, 800.362 577, 800.804 577 C 801.246 577, 803.134 575.425, 805 573.500 C 806.866 571.575, 809.150 570, 810.075 570 C 812.204 570, 822.698 576.030, 825.989 579.145 C 827.358 580.440, 830.569 583.185, 833.124 585.243 C 836.888 588.276, 838.355 590.460, 840.852 596.743 C 842.547 601.010, 844.458 608.377, 845.100 613.117 L 846.266 621.733 850.383 619.379 C 852.744 618.029, 856.157 617.019, 858.384 617.012 C 866.203 616.988, 869.431 618.808, 878.947 628.606 C 883.926 633.732, 888 638.211, 888 638.559 C 888 638.907, 888.833 640.386, 889.850 641.846 C 895.279 649.633, 896.495 662.248, 892.620 670.570 L 890.259 675.640 894.129 677.317 C 897.791 678.904, 898 679.234, 898 683.438 C 898 685.882, 898.489 688.184, 899.086 688.553 C 899.684 688.923, 901.596 687.875, 903.336 686.224 C 910.904 679.047, 920.009 678.119, 931.548 683.350 C 938.024 686.286, 938.678 686.211, 944.881 681.815 C 946.832 680.433, 947.123 679.626, 946.505 677.315 C 944.049 668.140, 947.993 658.297, 958.851 646.500 C 962.901 642.100, 967.295 636.369, 968.617 633.765 C 971.263 628.548, 981.961 615.626, 984.965 614.019 C 986.176 613.371, 987.753 613.336, 989.297 613.923 C 991.678 614.828, 991.737 614.723, 992.318 608.498 C 993.024 600.941, 994.811 596.302, 998.661 592.038 C 1000.222 590.308, 1002.286 587.465, 1003.246 585.719 C 1005.982 580.747, 1013.768 574, 1016.770 574 C 1018.200 574, 1020.390 573.043, 1021.635 571.873 C 1022.880 570.704, 1024.498 569.977, 1025.230 570.258 C 1026.747 570.840, 1032 581.067, 1032 583.437 C 1032 584.297, 1032.675 585, 1033.500 585 C 1034.626 585, 1035 583.796, 1035 580.168 C 1035 577.511, 1035.862 572.449, 1036.915 568.918 C 1042.670 549.627, 1045.233 538.020, 1046.265 526.578 C 1047.545 512.398, 1047.473 512.187, 1040.241 508.988 C 1035.466 506.876, 1035.476 506.877, 1027 507.974 M 814 520.528 C 811.525 521.870, 808.509 524.100, 807.298 525.484 C 806.087 526.868, 804.201 528, 803.107 528 C 802.013 528, 800.870 528.401, 800.567 528.891 C 799.811 530.114, 803.408 537.997, 805.978 540.750 C 808.750 543.720, 811.148 543.589, 815.108 540.250 C 816.902 538.737, 819.745 537.050, 821.425 536.500 C 823.928 535.681, 824.964 534.326, 827.164 529 C 830.415 521.126, 830.364 521.507, 828.429 519.571 C 826.081 517.224, 819.261 517.676, 814 520.528 M 1009 522.835 C 1009 523.988, 1007.743 526.409, 1006.206 528.215 C 1002.366 532.730, 1000 536.636, 1000 538.462 C 1000 539.305, 1002.025 542.745, 1004.500 546.107 C 1006.975 549.469, 1009 553.240, 1009 554.488 C 1009 555.735, 1009.595 557.249, 1010.323 557.853 C 1012.143 559.364, 1023.842 562.275, 1025.515 561.633 C 1027.079 561.032, 1028.986 554.917, 1028.994 550.473 C 1028.997 548.807, 1029.688 546.462, 1030.530 545.261 C 1031.957 543.223, 1031.758 542.479, 1027.532 534.063 C 1022.547 524.137, 1020.208 522.003, 1013.486 521.245 C 1009.438 520.789, 1009 520.944, 1009 522.835" stroke="#fc7143" fill="#fc7143" fill-opacity="0.2" fill-rule="evenodd"/><path class="svg-region-LPl" d="M 812.733 520.955 C 810.170 522.580, 807.499 524.830, 806.796 525.955 C 806.094 527.080, 804.529 528, 803.318 528 C 799.952 528, 799.802 529.303, 802.471 535.338 C 806.126 543.603, 809.718 544.943, 815.233 540.100 C 817.050 538.505, 819.653 537.042, 821.018 536.850 C 822.946 536.578, 824.213 535.050, 826.697 530 C 830.409 522.455, 830.538 521.681, 828.429 519.571 C 825.725 516.867, 818.121 517.537, 812.733 520.955" stroke="#d2454f" fill="#d2454f" fill-opacity="0.2" fill-rule="evenodd"/><path class="svg-region-LPr" d="M 1009 522.835 C 1009 523.988, 1007.730 526.409, 1006.179 528.215 C 1001.880 533.220, 1000 536.265, 1000 538.220 C 1000 539.196, 1002.025 542.745, 1004.500 546.107 C 1006.975 549.469, 1009 553.240, 1009 554.488 C 1009 555.735, 1009.595 557.249, 1010.323 557.853 C 1012.143 559.364, 1023.842 562.275, 1025.515 561.633 C 1027.079 561.032, 1028.986 554.917, 1028.994 550.473 C 1028.997 548.807, 1029.688 546.462, 1030.530 545.261 C 1031.957 543.223, 1031.758 542.479, 1027.532 534.063 C 1022.547 524.137, 1020.208 522.003, 1013.486 521.245 C 1009.438 520.789, 1009 520.944, 1009 522.835" stroke="#d2454f" fill="#d2454f" fill-opacity="0.2" fill-rule="evenodd"/><path class="svg-region-AVCl" d="M 850.891 618.995 C 847.439 620.820, 845.833 623.390, 844.614 629.045 C 843.773 632.943, 836.155 644.147, 833.953 644.722 C 832.879 645.003, 832 645.698, 832 646.267 C 832 647.474, 847.021 663.988, 858.420 675.311 C 867.234 684.067, 866.443 683.861, 878.313 680.503 C 887.305 677.959, 890.476 675.646, 892.993 669.795 C 894.777 665.648, 895.122 663.300, 894.786 657.580 C 894.150 646.729, 890.958 640.930, 878.660 628.277 C 869.465 618.817, 866.106 616.956, 858.384 617.044 C 856.248 617.069, 852.876 617.947, 850.891 618.995" stroke="#ffbab9" fill="#ffbab9" fill-opacity="0.2" fill-rule="evenodd"/><path class="svg-region-AVCr" d="M 983.516 615.166 C 978.160 619.379, 973.050 625.584, 969.298 632.430 C 967.209 636.241, 962.680 642.187, 959.232 645.642 C 954.767 650.118, 951.820 654.292, 948.982 660.159 C 944.607 669.206, 944.307 671.098, 946.440 676.202 L 947.880 679.648 956.425 679.199 C 962.977 678.855, 965.513 679.106, 967.294 680.273 C 971.850 683.258, 974.689 681.517, 988.716 667.135 C 1003.348 652.133, 1004.928 649.305, 1000.588 645.890 C 999.100 644.720, 998 642.844, 998 641.477 C 998 640.169, 997.321 638.719, 996.491 638.255 C 994.776 637.295, 992.044 625.673, 992.017 619.225 C 992.002 615.564, 991.632 614.810, 989.435 613.975 C 986.200 612.745, 986.729 612.639, 983.516 615.166" stroke="#ffbab9" fill="#ffbab9" fill-opacity="0.2" fill-rule="evenodd"/><path class="svg-region-Ol" d="M 601.968 206.485 C 600.061 207.165, 595.575 208.657, 592 209.802 C 585.634 211.839, 580.495 213.572, 576.500 215.028 C 572.595 216.452, 550.427 226.293, 545.865 228.628 C 543.315 229.932, 540.665 231, 539.975 231 C 539.286 231, 536.527 232.350, 533.846 234 C 531.164 235.650, 528.584 237, 528.112 237 C 526.948 237, 519.687 240.438, 513 244.155 C 509.975 245.837, 506.150 247.929, 504.500 248.803 C 499.556 251.425, 473.696 268.980, 470.945 271.583 C 469.540 272.912, 468.033 274, 467.596 274 C 467.160 274, 465.552 275.238, 464.024 276.750 C 462.496 278.262, 457.075 282.650, 451.978 286.500 C 446.880 290.350, 441.537 294.783, 440.105 296.351 C 438.672 297.918, 436.239 299.855, 434.697 300.654 C 433.155 301.453, 431.010 302.990, 429.931 304.069 C 428.116 305.884, 415.498 315.275, 408.500 320.019 C 398.755 326.625, 390.716 332.753, 385 337.932 C 381.425 341.171, 376.924 345.099, 374.997 346.661 C 371.609 349.406, 362.386 359.008, 351 371.644 C 347.975 375.001, 342.575 381.861, 339 386.890 C 335.425 391.918, 331.600 397.244, 330.500 398.726 C 325.975 404.823, 311 432.272, 311 434.469 C 311 435.066, 310.213 436.662, 309.250 438.015 C 307.249 440.826, 303.547 450.604, 298.464 466.500 C 292.178 486.158, 289.242 499.359, 287.991 513.600 C 287.485 519.362, 286.881 524.397, 286.649 524.788 C 286.416 525.180, 285.928 530.417, 285.563 536.427 C 285.198 542.437, 284.670 547.726, 284.389 548.179 C 283.339 549.878, 287.367 595.111, 289.671 607.500 C 291.322 616.378, 296.042 632.802, 299.153 640.500 C 303.875 652.181, 315.497 672.949, 319.019 676 C 319.337 676.275, 320.676 678.075, 321.995 680 C 326.568 686.674, 345.634 704.476, 351.484 707.534 C 354.604 709.165, 357.911 711.202, 358.833 712.061 C 361.855 714.873, 376.471 721.970, 387.488 725.974 C 390.781 727.171, 393.968 728.559, 394.571 729.059 C 396.435 730.606, 417.810 735.956, 432.278 738.497 C 439.856 739.828, 446.453 741.162, 446.939 741.462 C 448.818 742.624, 464.006 744.857, 474.500 745.515 C 488.563 746.396, 507.199 746.133, 516.911 744.916 C 521.085 744.392, 527.087 743.685, 530.250 743.343 C 533.413 743.002, 536 742.398, 536 742.001 C 536 741.604, 538.362 740.996, 541.250 740.649 C 554.630 739.043, 566.855 735.930, 575.099 732.030 C 578.620 730.364, 582.175 728.991, 583 728.978 C 583.825 728.966, 587.200 727.625, 590.500 726 C 593.800 724.375, 597.052 723.035, 597.727 723.022 C 598.403 723.010, 601.328 721.721, 604.227 720.158 C 607.127 718.595, 610.032 717.497, 610.682 717.719 C 611.333 717.940, 612.361 717.194, 612.967 716.061 C 613.574 714.927, 614.882 714, 615.875 714 C 617.385 714, 630.568 707.589, 642.500 701.053 C 647.745 698.179, 653.809 694.117, 654.484 693.026 C 654.842 692.446, 656.991 691.025, 659.259 689.868 C 662.779 688.072, 666.535 685.162, 678.601 674.882 C 683.975 670.304, 694.889 657.894, 697.406 653.500 C 698.981 650.750, 701.397 646.985, 702.775 645.133 C 706.227 640.493, 716.560 619.488, 718.090 614 C 718.780 611.525, 719.870 608.825, 720.511 608 C 721.153 607.175, 722.448 603.800, 723.389 600.500 C 724.331 597.200, 725.753 592.311, 726.551 589.635 C 727.348 586.960, 728 584.012, 728 583.085 C 728 582.158, 728.438 580.962, 728.973 580.427 C 729.509 579.891, 730.628 576.089, 731.460 571.977 C 732.292 567.864, 733.426 562.700, 733.980 560.500 C 735.158 555.816, 739.719 528.566, 741.552 515.261 C 742.252 510.179, 743.543 502.754, 744.421 498.761 C 745.299 494.767, 747.165 486.152, 748.568 479.615 C 749.971 473.079, 752.217 464.813, 753.559 461.246 C 755.525 456.024, 756 452.900, 756 445.197 L 756 435.632 751.052 430.863 C 748.330 428.240, 744.379 425.214, 742.272 424.139 C 738.419 422.173, 735.939 418.071, 733.086 408.947 C 731.455 403.732, 725.783 395.380, 720.079 389.795 C 712.285 382.163, 698.820 359.443, 695.831 348.880 C 693.265 339.813, 693.713 328.115, 697.039 317.354 L 699.247 310.207 697.124 299.656 C 695.956 293.852, 695 285.507, 695 281.111 C 695 276.715, 694.600 272.871, 694.111 272.568 C 693.622 272.266, 692.936 270.777, 692.587 269.259 C 690.602 260.625, 686.169 248.913, 683.404 245 C 680.238 240.518, 673.069 226.982, 671.090 221.750 C 670.518 220.238, 669.552 219, 668.944 219 C 668.336 219, 665.444 217.410, 662.517 215.467 C 654.894 210.408, 647.252 208.238, 633 207.088 C 610.818 205.299, 605.579 205.197, 601.968 206.485" stroke="#aa444d" fill="#aa444d" fill-opacity="0.2" fill-rule="evenodd"/><path class="svg-region-Or" d="M 1238 185.989 C 1235.525 186.386, 1231.025 187.436, 1228 188.321 C 1215.768 191.903, 1213.176 193.036, 1191.393 204.321 C 1189.701 205.198, 1188.767 207.783, 1186.643 217.474 C 1185.189 224.108, 1183.995 231.778, 1183.989 234.518 C 1183.984 237.258, 1183.067 245.350, 1181.953 252.500 C 1180.838 259.650, 1179.499 268.801, 1178.977 272.836 C 1177.525 284.056, 1174.639 292.055, 1167.064 305.868 C 1157.771 322.812, 1154.123 328.465, 1147.819 335.687 C 1144.894 339.039, 1140.754 344.578, 1138.620 347.996 C 1134.810 354.099, 1123.702 369.082, 1119.342 374 C 1116.944 376.705, 1114.585 380.043, 1104.024 395.677 C 1095.169 408.784, 1095.329 408.458, 1092.408 419.281 C 1091.039 424.351, 1088.250 431.875, 1086.210 436 C 1082.537 443.424, 1082.503 443.606, 1082.838 454 C 1083.148 463.633, 1083.473 465.120, 1086.765 472 C 1088.738 476.125, 1090.475 480.579, 1090.624 481.898 C 1090.773 483.216, 1091.369 484.769, 1091.948 485.348 C 1092.526 485.926, 1093 489.257, 1093 492.750 C 1093 496.242, 1093.611 500.314, 1094.358 501.800 C 1095.775 504.617, 1098.992 522.418, 1099.011 527.544 C 1099.017 529.170, 1099.636 532.525, 1100.386 535 C 1101.137 537.475, 1102.080 543.663, 1102.482 548.750 C 1102.883 553.837, 1103.663 558, 1104.213 558 C 1104.764 558, 1104.976 558.620, 1104.685 559.378 C 1104.394 560.136, 1104.569 561.169, 1105.073 561.673 C 1105.578 562.178, 1106.185 564.661, 1106.422 567.191 C 1106.659 569.722, 1107.332 572.626, 1107.918 573.646 C 1108.861 575.287, 1111.348 583.988, 1114.103 595.284 C 1114.610 597.365, 1115.458 599.840, 1115.987 600.784 C 1118.281 604.874, 1119.826 609.989, 1118.936 610.540 C 1118.417 610.860, 1119.137 612.624, 1120.536 614.458 C 1121.935 616.292, 1125.024 622.902, 1127.400 629.146 C 1134.093 646.730, 1136.716 650.798, 1149.491 663.402 C 1155.724 669.552, 1159.385 672.215, 1166 675.413 C 1174.251 679.402, 1177.569 681.278, 1183.210 685.143 C 1184.700 686.165, 1186.725 687.002, 1187.710 687.005 C 1188.694 687.007, 1194.675 689.514, 1201 692.576 C 1217.885 700.749, 1223.864 703.630, 1230 706.545 C 1233.025 707.982, 1240 712.476, 1245.500 716.532 C 1259.568 726.905, 1266.837 730.887, 1275.622 733.030 C 1279.816 734.053, 1284.744 735.600, 1286.573 736.468 C 1292.484 739.272, 1308.081 741.830, 1326.134 742.956 C 1345.506 744.163, 1358.825 743.632, 1363.594 741.462 C 1365.296 740.688, 1369.346 739.743, 1372.594 739.363 C 1375.842 738.983, 1380.300 737.683, 1382.500 736.474 C 1384.700 735.265, 1388.975 733.480, 1392 732.507 C 1395.025 731.534, 1401.775 728.733, 1407 726.283 C 1412.225 723.832, 1418.822 720.949, 1421.659 719.876 C 1424.496 718.802, 1427.364 717.266, 1428.031 716.462 C 1428.699 715.658, 1430.042 715, 1431.015 715 C 1431.989 715, 1433.006 714.428, 1433.274 713.729 C 1433.542 713.029, 1436.178 711.283, 1439.131 709.847 C 1467.108 696.246, 1473.112 692.971, 1483.041 685.901 C 1486.594 683.371, 1491.062 680.446, 1492.972 679.401 C 1499.114 676.038, 1508.933 666.730, 1513.971 659.494 C 1527.485 640.084, 1538.554 603.505, 1540.491 571.850 C 1540.638 569.458, 1541.278 559.400, 1541.913 549.500 C 1543.342 527.234, 1542.519 484.415, 1540.395 470.500 C 1539.555 465, 1538.673 457.350, 1538.434 453.500 C 1538.016 446.774, 1537.182 441.689, 1534.904 432 C 1534.323 429.525, 1533.236 424.575, 1532.489 421 C 1530.153 409.823, 1523.586 389.951, 1520.042 383.340 C 1518.919 381.244, 1518 378.952, 1518 378.245 C 1518 377.538, 1516.875 375.178, 1515.500 373 C 1514.125 370.822, 1513 368.615, 1513 368.096 C 1513 364.733, 1492.108 334.154, 1483.201 324.480 C 1481.165 322.269, 1477.904 318.669, 1475.954 316.480 C 1474.004 314.291, 1468.154 308.782, 1462.954 304.239 C 1457.754 299.695, 1452.050 294.632, 1450.278 292.989 C 1448.507 291.345, 1446.675 290, 1446.208 290 C 1445.742 290, 1443.591 288.528, 1441.430 286.729 C 1435.142 281.495, 1426.896 275.439, 1421.500 272.090 C 1418.750 270.384, 1415.243 268.203, 1413.708 267.244 C 1412.172 266.285, 1407.222 262.902, 1402.708 259.727 C 1398.193 256.551, 1393.487 253.690, 1392.250 253.368 C 1391.013 253.046, 1390 252.434, 1390 252.008 C 1390 251.582, 1389.213 250.960, 1388.250 250.626 C 1387.287 250.291, 1384.250 248.604, 1381.500 246.876 C 1376.556 243.769, 1368.314 239.113, 1362.500 236.141 C 1360.850 235.297, 1358.628 233.796, 1357.561 232.804 C 1356.495 231.812, 1354.834 231, 1353.870 231 C 1352.907 231, 1351.817 230.513, 1351.449 229.917 C 1351.081 229.322, 1348.917 227.960, 1346.640 226.892 C 1344.363 225.823, 1340.250 223.641, 1337.500 222.041 C 1334.750 220.442, 1330.700 218.202, 1328.500 217.064 C 1326.300 215.925, 1322.971 213.870, 1321.102 212.497 C 1319.233 211.124, 1316.941 210, 1316.007 210 C 1315.074 210, 1313.495 209.100, 1312.500 208 C 1311.505 206.900, 1309.950 206, 1309.045 206 C 1308.140 206, 1306.971 205.571, 1306.447 205.047 C 1304.948 203.548, 1281.845 192, 1280.345 192 C 1279.605 192, 1279 191.660, 1279 191.243 C 1279 190.294, 1272.907 188.374, 1263.848 186.468 C 1256.602 184.944, 1245.768 184.743, 1238 185.989" stroke="#aa444d" fill="#aa444d" fill-opacity="0.2" fill-rule="evenodd"/><path class="svg-region-OABl" d="M 796.922 357.075 C 794.038 359.846, 792.068 360.990, 790.765 360.649 C 789.481 360.313, 787.595 361.359, 785.043 363.824 C 782.950 365.846, 779.721 368.955, 777.868 370.733 C 769.538 378.728, 768 381.279, 768 387.100 C 768 390.947, 770.683 395, 773.231 395 C 775.582 395, 788.384 386.717, 790.333 383.935 C 792.083 381.436, 798.638 376.758, 802.718 375.095 C 804.488 374.374, 807.530 371.838, 809.479 369.460 L 813.021 365.137 808.011 360.912 C 805.255 358.588, 803 355.857, 803 354.843 C 803 352.069, 801.596 352.584, 796.922 357.075" stroke="#81244d" fill="#81244d" fill-opacity="0.2" fill-rule="evenodd"/><path class="svg-region-OABr" d="M 1028.750 346.689 C 1027.760 346.948, 1026.999 348.092, 1026.999 349.323 C 1026.998 350.520, 1025.863 352.819, 1024.476 354.432 C 1023.089 356.045, 1022.110 357.845, 1022.301 358.432 C 1022.491 359.019, 1024.595 360.584, 1026.975 361.909 C 1031.538 364.447, 1037.652 370.328, 1038.497 372.990 C 1038.772 373.857, 1040.461 375.414, 1042.249 376.450 C 1044.037 377.485, 1048.014 380.989, 1051.088 384.236 C 1056.280 389.722, 1056.952 390.117, 1060.588 389.820 L 1064.500 389.500 1064.347 377.156 C 1064.198 365.227, 1064.103 364.717, 1061.513 362.014 C 1059.098 359.493, 1056.551 358.441, 1050.500 357.465 C 1044.598 356.513, 1041.992 355.242, 1036.922 350.841 C 1033.855 348.179, 1031.155 346.052, 1030.922 346.116 C 1030.690 346.180, 1029.713 346.438, 1028.750 346.689" stroke="#81244d" fill="#81244d" fill-opacity="0.2" fill-rule="evenodd"/><path class="svg-region-BPCl" d="M 809.500 569.792 C 808.400 570.009, 805.821 571.804, 803.768 573.779 C 800.353 577.065, 800.085 577.717, 800.609 581.436 C 803.337 600.764, 818.454 636.687, 826.003 641.779 C 833.319 646.713, 835.663 645.823, 841.477 635.904 C 847.257 626.042, 847.073 612.349, 840.954 596.978 C 838.309 590.335, 837.069 588.661, 830.339 582.650 C 826.147 578.906, 821.546 575.398, 820.114 574.853 C 818.681 574.308, 816.157 572.858, 814.504 571.629 C 812.852 570.401, 810.600 569.574, 809.500 569.792" stroke="#83385f" fill="#83385f" fill-opacity="0.2" fill-rule="evenodd"/><path class="svg-region-BPCr" d="M 1021.534 571.963 C 1020.520 573.083, 1018.458 574, 1016.952 574 C 1015.083 574, 1012.593 575.489, 1009.107 578.689 C 1006.298 581.269, 1004 583.883, 1004 584.499 C 1004 585.115, 1001.985 587.980, 999.522 590.865 C 996.817 594.034, 994.442 598.141, 993.522 601.237 C 990.577 611.156, 992.480 635.684, 996.419 638.564 C 997.288 639.200, 998 640.893, 998 642.325 C 998 644.008, 998.796 645.349, 1000.250 646.115 C 1001.487 646.766, 1002.766 647.705, 1003.091 648.201 C 1003.427 648.715, 1004.840 648.575, 1006.375 647.875 C 1009.537 646.434, 1021.628 628.752, 1024.068 622 C 1024.963 619.525, 1026.031 616.600, 1026.441 615.500 C 1028.585 609.755, 1029.041 607.859, 1030.047 600.500 C 1032.341 583.708, 1032.287 581.974, 1029.274 576 C 1026.202 569.909, 1024.293 568.914, 1021.534 571.963" stroke="#83385f" fill="#83385f" fill-opacity="0.2" fill-rule="evenodd"/>
    </svg>