<svg xmlns="http://www.w3.org/2000/svg" width="1921" height="1027" viewBox="0 0 1921 1027" version="1.1">
    <path class="svg-region-V" d="M 933.315 165.974 C 932.867 166.361, 929.901 167.275, 926.724 168.005 C 922 169.090, 917.631 169.111, 902.724 168.118 C 878.929 166.533, 848.287 166.849, 845.375 168.709 C 844.206 169.456, 841.506 170.005, 839.375 169.929 C 833.053 169.703, 821.177 171.984, 810.500 175.473 C 805 177.270, 797.350 179.279, 793.500 179.936 C 789.650 180.593, 784.025 182.195, 781 183.496 C 777.975 184.797, 771.795 187.022, 767.266 188.440 C 751.505 193.377, 740.760 199.471, 711.737 219.936 C 708.567 222.171, 704.934 224, 703.665 224 C 700.333 224, 692.881 226.765, 690.188 229.001 C 685.998 232.481, 684 240.559, 684 254.025 C 684 262.278, 684.434 266.954, 685.372 268.800 C 686.126 270.285, 686.957 274.953, 687.217 279.173 C 687.714 287.247, 690.455 294.410, 695.373 300.487 L 697.790 303.474 704.309 301.737 C 707.895 300.782, 712.329 299.993, 714.164 299.985 C 718.156 299.967, 723.226 298.217, 728 295.210 C 733.075 292.014, 736.279 291.699, 749.058 293.140 C 787.655 297.493, 820.993 291.399, 828.481 278.622 C 830.022 275.993, 832.303 273.703, 834.140 272.942 C 835.832 272.241, 839.305 269.587, 841.858 267.043 C 848.502 260.424, 853.955 256.402, 859.056 254.360 C 865 251.980, 889.987 251.746, 897.500 254 C 905.526 256.408, 921.098 256.004, 928.945 253.184 C 932.489 251.910, 938.862 250.362, 943.107 249.743 C 950.735 248.631, 950.874 248.651, 955.041 251.409 C 961.117 255.430, 975.678 264.209, 982.575 268.011 C 985.834 269.807, 990.368 272.305, 992.650 273.563 C 994.933 274.820, 998.637 277.008, 1000.881 278.425 C 1003.124 279.841, 1005.589 281, 1006.358 281 C 1007.126 281, 1008.315 281.675, 1009 282.500 C 1009.685 283.325, 1010.688 284, 1011.229 284 C 1011.770 284, 1014.060 285.462, 1016.318 287.250 L 1020.424 290.500 1036.462 290.419 C 1045.283 290.374, 1059.851 289.766, 1068.837 289.066 L 1085.173 287.795 1095.232 293.898 C 1107.805 301.525, 1109.622 301.637, 1116.695 295.216 C 1127.885 285.057, 1135.492 269.646, 1138.114 251.820 C 1139.698 241.052, 1139.334 237.982, 1135.459 229.480 C 1131.826 221.508, 1123.729 210, 1121.753 210 C 1121.132 210, 1110.245 204.835, 1097.562 198.523 C 1084.878 192.210, 1072.925 186.734, 1071 186.354 C 1069.075 185.974, 1064.800 184.389, 1061.500 182.832 C 1058.200 181.275, 1054.600 179.998, 1053.500 179.994 C 1052.400 179.990, 1046.775 178.678, 1041 177.079 C 1035.225 175.480, 1025.809 173.436, 1020.076 172.537 C 1014.343 171.639, 1009.350 170.716, 1008.980 170.488 C 1008.610 170.259, 1000.701 169.061, 991.404 167.826 C 974.543 165.586, 935.216 164.332, 933.315 165.974" stroke="#dd8a8a" fill="#dd8a8a" fill-opacity="0.2" fill-rule="evenodd"/><path class="svg-region-SF" d="M 1010.618 284.715 C 1009.654 285.679, 1001.084 287.901, 998.118 287.956 C 996.808 287.980, 994.202 288.948, 992.326 290.107 C 989.760 291.694, 988.123 292.038, 985.708 291.500 C 981.688 290.604, 975.712 290.456, 965.660 291.003 C 959.012 291.365, 957.674 291.169, 956.860 289.715 C 955.489 287.264, 950.859 287.550, 941.520 290.660 L 933.533 293.320 924.516 291.062 C 915.857 288.894, 915.257 288.867, 909.356 290.402 C 901.913 292.338, 881.179 292.553, 866.433 290.847 C 857.916 289.862, 854.041 289.952, 841.269 291.436 C 825.459 293.272, 822.926 293.075, 819.266 289.726 C 817.132 287.773, 816.864 287.754, 813.266 289.304 C 802.459 293.959, 772.936 295.712, 749 293.121 C 736.060 291.721, 732.659 292.072, 727.851 295.308 C 724.036 297.874, 717.557 300, 713.548 300 C 712.052 300, 707.942 300.769, 704.414 301.709 C 697.765 303.481, 696.796 304.723, 698.907 308.764 C 699.407 309.719, 701.288 314.100, 703.089 318.500 C 706.103 325.864, 709.919 330.875, 712.579 330.964 C 713.173 330.984, 714.663 333.145, 715.891 335.767 C 717.179 338.516, 719.368 341.248, 721.062 342.221 C 722.678 343.148, 724 344.619, 724 345.489 C 724 348.484, 731.175 357.998, 733.437 358.002 C 734.022 358.003, 736.975 360.212, 740 362.910 C 743.452 365.990, 748.037 368.809, 752.315 370.481 C 758.664 372.964, 759.293 373.038, 761.529 371.573 C 762.850 370.708, 764.426 369.073, 765.032 367.941 C 766.030 366.076, 781.389 358, 783.938 358 C 784.521 358, 786.852 356.200, 789.119 354 C 791.386 351.800, 793.762 350, 794.398 350 C 796.440 350, 810 337.365, 810 335.463 C 810 332.707, 812.287 329.190, 814.833 328.030 C 816.269 327.376, 818.925 325.111, 820.734 322.998 C 827.486 315.110, 843.444 312.298, 885.500 311.587 C 902.668 311.296, 922.344 310.362, 931.500 309.402 C 944.617 308.027, 949.052 307.929, 956.113 308.862 C 960.851 309.488, 966.674 310, 969.053 310 C 982.091 310, 1008.382 318.918, 1012.395 324.701 C 1013.463 326.240, 1015.551 328.850, 1017.035 330.500 C 1018.519 332.150, 1019.976 334.512, 1020.273 335.750 C 1020.744 337.712, 1020.420 338, 1017.740 338 C 1013.351 338, 1015.101 339.157, 1020.869 340.068 C 1023.968 340.558, 1027.442 342.072, 1030.288 344.172 C 1032.767 346.003, 1037.344 349.075, 1040.457 351 C 1043.571 352.925, 1047.330 355.293, 1048.809 356.262 C 1050.289 357.231, 1052.287 358.296, 1053.250 358.628 C 1054.213 358.961, 1055 359.631, 1055 360.117 C 1055 360.602, 1055.716 361, 1056.591 361 C 1057.466 361, 1060.036 362.587, 1062.302 364.526 C 1064.894 366.745, 1066.992 367.813, 1067.961 367.407 C 1069.820 366.627, 1070.829 366.649, 1073.688 367.528 C 1075.470 368.076, 1076.398 367.447, 1078.688 364.138 C 1080.235 361.904, 1081.857 360.059, 1082.294 360.038 C 1083.603 359.975, 1095.457 349.825, 1096.045 348.263 C 1096.345 347.467, 1099.223 344.188, 1102.439 340.978 C 1107.709 335.717, 1108.410 334.515, 1109.532 328.820 C 1110.217 325.344, 1111.502 319.818, 1112.389 316.540 C 1115.274 305.870, 1113.861 300.022, 1108.396 300.008 C 1106.371 300.003, 1101.793 297.878, 1095.232 293.898 L 1085.173 287.795 1068.837 289.057 C 1059.851 289.750, 1045.525 290.359, 1037 290.409 L 1021.500 290.500 1016.700 287.250 C 1011.347 283.626, 1011.602 283.732, 1010.618 284.715" stroke="#8c6b55" fill="#8c6b55" fill-opacity="0.2" fill-rule="evenodd"/><path class="svg-region-IF" d="M 867.500 323.941 C 854.812 324.628, 850.066 326.490, 850.015 330.801 C 849.988 333.111, 856.523 335.063, 862.236 334.451 C 877.721 332.794, 888.574 330.731, 889.750 329.222 C 891.373 327.139, 891.327 326.470, 889.429 324.571 C 887.762 322.905, 887.034 322.884, 867.500 323.941 M 932.012 324.977 C 931.029 326.814, 931.084 327.513, 932.310 328.739 C 934.003 330.431, 948.547 332.910, 957.101 332.965 C 960.181 332.984, 964.154 333.506, 965.929 334.125 C 970.290 335.645, 974.272 333.937, 973.818 330.740 C 973.601 329.209, 971.984 327.748, 968.713 326.126 C 964.494 324.034, 962.106 323.691, 948.573 323.236 C 933.414 322.727, 933.205 322.749, 932.012 324.977" stroke="#f2823b" fill="#f2823b" fill-opacity="0.2" fill-rule="evenodd"/><path class="svg-region-PF" d="M 939.500 250.042 C 937.300 250.495, 932.575 251.839, 929 253.030 C 919.039 256.347, 911.319 256.586, 898 253.988 C 888.411 252.117, 884.471 251.838, 874.287 252.309 C 857.734 253.074, 855.954 253.850, 842.586 266.124 C 838.618 269.767, 834.418 273.050, 833.254 273.419 C 832.089 273.789, 829.961 276.097, 828.525 278.547 C 826.880 281.354, 824.449 283.751, 821.957 285.022 C 817.533 287.279, 817.224 288.008, 819.750 290.227 C 822.943 293.030, 826.042 293.204, 841.269 291.436 C 854.041 289.952, 857.916 289.862, 866.433 290.847 C 881.442 292.583, 902.989 292.350, 909.772 290.378 C 915.146 288.816, 915.694 288.841, 924.600 291.077 L 933.848 293.399 941.674 290.688 C 950.946 287.476, 953.187 287.363, 956.790 289.929 C 959.289 291.708, 960.313 291.781, 969.957 290.863 C 977.244 290.169, 981.123 290.191, 982.754 290.934 C 986.212 292.509, 989.134 292.229, 992.500 290 C 994.150 288.907, 996.573 288.010, 997.884 288.007 C 999.914 288.001, 1003.864 287.132, 1009.886 285.365 C 1010.991 285.041, 1010.909 284.557, 1009.481 282.979 C 1008.496 281.891, 1007.063 281, 1006.297 281 C 1005.531 281, 1002.382 279.387, 999.299 277.415 C 996.216 275.443, 989.826 271.779, 985.097 269.274 C 980.369 266.768, 976.275 264.444, 976 264.109 C 975.725 263.774, 973.901 262.689, 971.947 261.699 C 969.993 260.708, 964.593 257.448, 959.947 254.456 C 950.981 248.680, 948.609 248.168, 939.500 250.042 M 929 309.496 C 923.225 310.233, 904.325 311.120, 887 311.467 C 843.215 312.343, 827.516 315.075, 820.734 322.998 C 818.925 325.111, 816.269 327.376, 814.833 328.030 C 810.505 330.002, 808.519 336.526, 811.494 338.995 C 813.457 340.625, 822.074 339.695, 838.166 336.116 C 848.755 333.761, 850.500 333.099, 850.500 331.437 C 850.500 326.824, 855.376 324.381, 865 324.172 C 868.575 324.094, 875.134 323.752, 879.575 323.412 C 886.402 322.888, 887.914 323.057, 889.359 324.502 C 890.379 325.522, 890.826 326.974, 890.467 328.105 C 889.939 329.766, 890.398 329.999, 894.183 329.988 C 896.557 329.982, 900.750 329.388, 903.500 328.669 C 906.519 327.880, 912.943 327.453, 919.711 327.592 C 929.974 327.802, 930.973 327.660, 931.528 325.913 C 932.419 323.106, 935.835 322.639, 950.596 323.306 C 961.590 323.803, 964.709 324.303, 968.672 326.203 C 972.027 327.812, 973.628 329.249, 974.020 331 C 974.503 333.156, 975.194 333.536, 979.040 333.758 C 981.493 333.900, 987.550 334.674, 992.500 335.479 C 997.450 336.283, 1005.862 337.244, 1011.194 337.614 L 1020.888 338.287 1020.310 335.894 C 1019.992 334.577, 1018.514 332.150, 1017.025 330.500 C 1015.536 328.850, 1013.364 326.105, 1012.198 324.401 C 1010.878 322.471, 1008.272 320.629, 1005.289 319.518 C 1002.655 318.537, 998.199 316.703, 995.386 315.443 C 983.327 310.040, 948.900 306.956, 929 309.496" stroke="#faaaaa" fill="#faaaaa" fill-opacity="0.2" fill-rule="evenodd"/><path class="svg-region-AAB" d="M 904.976 328.219 C 902.855 329.015, 890.117 330.796, 882 331.430 C 880.625 331.538, 878.600 331.918, 877.500 332.274 C 875.572 332.900, 862.608 334.244, 858.500 334.245 C 857.400 334.245, 855.435 333.981, 854.133 333.658 C 852.831 333.334, 845.856 334.374, 838.633 335.968 C 820.317 340.011, 814.564 340.599, 811.701 338.724 C 809.504 337.284, 809.142 337.459, 803.556 342.658 C 800.341 345.650, 796.401 348.776, 794.800 349.603 C 793.199 350.431, 790.246 352.659, 788.237 354.554 C 786.227 356.449, 784.018 358, 783.326 358 C 781.276 358, 769.410 364.862, 766.599 367.674 C 765.170 369.103, 764 371.042, 764 371.981 C 764 373.870, 767.003 377, 768.815 377 C 769.452 377, 770.619 378.546, 771.409 380.437 C 772.578 383.233, 773.651 384.083, 777.172 385.001 C 779.553 385.621, 782.882 386.550, 784.571 387.065 C 789.631 388.606, 809.236 388.228, 812.653 386.523 C 814.281 385.711, 818.738 384.308, 822.557 383.406 C 826.376 382.503, 831.750 380.957, 834.500 379.969 C 846.245 375.749, 846.903 375.652, 851.078 377.535 C 854.937 379.275, 855.012 379.268, 861.233 376.465 C 875.795 369.904, 889.687 367.840, 918.895 367.900 C 949.975 367.964, 964.343 369.253, 976.101 373.033 C 981.179 374.665, 986.552 376, 988.041 376 C 989.530 376, 992.662 376.675, 995 377.500 C 997.338 378.325, 1001.410 379, 1004.049 379 C 1007.707 379, 1009.552 379.594, 1011.818 381.500 C 1015.335 384.460, 1015.773 384.516, 1018.203 382.316 C 1019.952 380.733, 1020.327 380.760, 1024.461 382.769 C 1030.691 385.796, 1044.926 387.687, 1048.945 386.023 C 1050.625 385.327, 1052 384.362, 1052 383.879 C 1052 383.395, 1054.172 383, 1056.826 383 C 1060.663 383, 1062.126 382.495, 1063.969 380.533 C 1066.022 378.347, 1066.219 377.408, 1065.691 372.296 C 1065.180 367.345, 1064.628 366.139, 1061.798 363.790 C 1059.984 362.285, 1057.713 361.042, 1056.750 361.027 C 1055.787 361.012, 1055 360.602, 1055 360.117 C 1055 359.631, 1054.213 358.949, 1053.250 358.601 C 1052.287 358.253, 1050.600 357.407, 1049.500 356.722 C 1044.933 353.876, 1041.469 351.507, 1041 350.907 C 1040.725 350.556, 1038.648 349.330, 1036.384 348.182 C 1034.119 347.035, 1030.876 344.925, 1029.175 343.494 C 1027.429 342.025, 1023.999 340.522, 1021.292 340.041 C 1018.656 339.573, 1014.025 338.714, 1011 338.131 C 995.823 335.210, 980.492 333.715, 969.500 334.085 C 967.850 334.140, 964.250 333.909, 961.500 333.572 C 958.750 333.234, 951.775 332.462, 946 331.854 C 940.225 331.247, 934.458 330.102, 933.185 329.310 C 930.435 327.598, 908.852 326.763, 904.976 328.219" stroke="#7f3c1a" fill="#7f3c1a" fill-opacity="0.2" fill-rule="evenodd"/><path class="svg-region-APB" d="M 903 367.713 C 893.406 368.216, 880.726 370.074, 873.794 371.992 C 865.423 374.309, 855.046 378.909, 854.858 380.387 C 854.781 380.999, 854.668 382.625, 854.608 384 C 854.521 386.014, 853.917 386.559, 851.500 386.802 C 849.850 386.968, 847.082 387.755, 845.349 388.552 C 843.616 389.348, 841.644 390, 840.967 390 C 840.290 390, 838.328 390.870, 836.607 391.934 C 834.887 392.997, 830.109 394.618, 825.989 395.535 C 816.730 397.598, 801.062 405.664, 795.816 411.070 C 793.719 413.231, 791.640 415, 791.197 415 C 789.904 415, 783.513 421.229, 781.451 424.500 C 778.511 429.161, 773.802 435.136, 770.442 438.468 C 765.301 443.565, 761.538 449.175, 755.326 461 C 753.681 464.130, 753.630 468.435, 755.208 470.961 C 756.176 472.511, 756.079 473.945, 754.724 478.185 L 753.032 483.474 756.016 485.810 C 758.172 487.497, 759 488.996, 759 491.212 C 759 495.274, 761.410 496.929, 767.382 496.968 C 770.575 496.989, 773.458 497.738, 775.716 499.133 C 778.736 501, 779.640 501.125, 782.950 500.133 C 785.030 499.510, 787.877 499, 789.276 499 C 790.734 499, 793.981 497.293, 796.881 495 C 800.924 491.804, 802.767 491, 806.049 491 C 810.153 491, 825 484.767, 825 483.044 C 825 482.595, 826.525 481.504, 828.389 480.620 C 830.765 479.492, 832.275 477.770, 833.439 474.862 C 834.982 471.004, 849.960 455, 852.027 455 C 852.483 455, 853.452 454.438, 854.179 453.750 C 855.697 452.313, 860.517 450.338, 867 448.495 C 869.475 447.791, 872.625 446.758, 874 446.198 C 875.375 445.639, 879.200 444.439, 882.500 443.532 C 885.800 442.625, 889.281 441.459, 890.236 440.941 C 891.191 440.424, 892.676 440, 893.536 440 C 895.219 440, 901.179 437.184, 902 436.001 C 902.428 435.383, 920.701 432.863, 933.500 431.656 C 938.840 431.152, 946.527 433.363, 983.500 446.035 C 989.736 448.172, 1013.452 457.646, 1016.351 459.159 C 1017.533 459.775, 1020.534 462.129, 1023.019 464.390 C 1025.504 466.650, 1030.095 470.300, 1033.221 472.500 C 1036.347 474.700, 1038.926 477.111, 1038.952 477.857 C 1038.981 478.683, 1039.626 478.974, 1040.598 478.601 C 1041.477 478.263, 1044.290 478.702, 1046.848 479.574 C 1049.407 480.447, 1054.650 481.591, 1058.500 482.117 C 1077.773 484.749, 1077.288 484.735, 1081.750 482.774 C 1084.088 481.747, 1086 480.323, 1086 479.609 C 1086 478.516, 1093.389 466.539, 1095.013 465 C 1095.303 464.725, 1096.048 463.342, 1096.668 461.927 C 1097.608 459.782, 1097.507 459.173, 1096.058 458.268 C 1094.836 457.505, 1094.450 456.291, 1094.760 454.181 C 1095.144 451.568, 1094.369 450.361, 1088.768 444.840 C 1085.230 441.353, 1081.923 437.822, 1081.418 436.994 C 1080.913 436.166, 1078.769 434.197, 1076.654 432.620 C 1074.538 431.042, 1069.981 427.107, 1066.526 423.876 C 1063.072 420.644, 1059.777 418, 1059.206 418 C 1058.634 418, 1058.017 417.663, 1057.833 417.250 C 1056.723 414.753, 1026.534 397.047, 1023.327 397.013 C 1022.681 397.006, 1020.090 395.425, 1017.568 393.500 C 1015.046 391.575, 1012.574 390, 1012.075 390 C 1011.575 390, 1011.017 389.663, 1010.833 389.250 C 1010.650 388.837, 1008.700 387.615, 1006.500 386.532 C 1004.300 385.450, 1001.417 383.755, 1000.092 382.765 C 998.768 381.774, 995.289 380.268, 992.361 379.417 C 989.433 378.565, 986.777 377.448, 986.459 376.934 C 986.142 376.420, 983.771 375.955, 981.191 375.900 C 977.663 375.825, 977.110 375.631, 978.958 375.115 C 983.164 373.942, 967.827 370.166, 954.412 369.072 C 941.588 368.026, 911.961 367.243, 903 367.713" stroke="#ac7444" fill="#ac7444" fill-opacity="0.2" fill-rule="evenodd"/><path class="svg-region-AP" d="M 983.281 499.031 C 979.310 499.448, 970.085 501.433, 962.781 503.441 C 955.476 505.449, 945.900 508.007, 941.500 509.126 C 937.100 510.245, 930.279 512.250, 926.343 513.581 C 918.924 516.088, 913.534 516.673, 912.548 515.077 C 912.234 514.569, 910.632 513.858, 908.989 513.497 C 907.345 513.136, 906 512.535, 906 512.161 C 906 510.380, 900.876 508.781, 889.225 506.927 C 882.226 505.813, 875.210 504.192, 873.633 503.325 C 870.627 501.672, 861.967 501.992, 859.644 503.842 C 857.715 505.378, 847.756 506.114, 843 505.071 C 840.525 504.529, 837.150 503.826, 835.500 503.509 C 833.850 503.192, 830.206 502.442, 827.403 501.843 C 823.035 500.910, 821.925 501.003, 819.653 502.492 C 817.299 504.034, 817 504.869, 817 509.893 C 817 513.470, 817.590 516.398, 818.604 517.845 C 819.739 519.466, 819.995 521.063, 819.480 523.317 C 819.079 525.068, 818.693 529.652, 818.621 533.503 C 818.503 539.824, 818.171 540.904, 815.213 544.585 C 811.598 549.084, 805.154 553, 801.366 553 C 797.454 553, 791 556.748, 791 559.020 C 791 560.301, 790.327 561, 789.094 561 C 787.621 561, 787.312 561.512, 787.735 563.250 C 788.036 564.487, 788.840 566.175, 789.523 567 C 790.205 567.825, 791.072 569.513, 791.449 570.750 C 792.378 573.797, 794 573.601, 794 570.443 C 794 563.099, 798.219 554, 801.624 554 C 803.520 554, 811.691 559.752, 812.392 561.580 C 812.727 562.451, 813 564.015, 813 565.056 C 813 566.148, 814.270 567.605, 816 568.500 C 817.650 569.353, 819 570.435, 819 570.904 C 819 571.374, 820.402 572.338, 822.115 573.048 C 823.953 573.809, 827.798 577.600, 831.492 582.293 C 836.899 589.162, 837.840 590.983, 838.388 595.640 C 838.736 598.607, 839.612 602.748, 840.334 604.844 C 841.064 606.962, 841.312 609.509, 840.894 610.577 C 840.480 611.635, 840.109 613.940, 840.070 615.700 C 840.031 617.480, 838.448 621.473, 836.503 624.700 C 834.579 627.890, 833.004 630.915, 833.003 631.421 C 833.001 631.928, 832.235 633.188, 831.300 634.221 C 829.697 635.992, 829.705 636.297, 831.434 639.508 C 832.444 641.382, 837.146 646.905, 841.885 651.782 C 846.623 656.659, 852.829 663.204, 855.676 666.325 C 861.291 672.481, 862.490 673.059, 863.290 670 C 864.637 664.849, 881.900 670.799, 889.200 678.931 C 891.210 681.169, 893.449 683.046, 894.177 683.101 C 899.152 683.482, 902.872 682.433, 907.267 679.410 C 911.389 676.574, 913.124 676, 917.565 676 C 920.503 676, 923.940 676.403, 925.203 676.896 C 934.382 680.476, 935.494 680.489, 945.753 677.146 C 951.114 675.400, 955.837 673.977, 956.250 673.985 C 956.663 673.993, 957 675.125, 957 676.500 C 957 677.875, 957.350 679, 957.777 679 C 958.681 679, 962.885 676.183, 964.854 674.258 C 965.599 673.530, 968.074 671.985, 970.354 670.826 C 977.367 667.260, 995.550 649.182, 999.151 642.197 C 1001.201 638.220, 1001.253 637.690, 999.845 635.197 C 999.007 633.714, 997.546 629.350, 996.599 625.500 C 995.652 621.650, 994.171 616.084, 993.308 613.132 C 991.388 606.561, 992.030 598.671, 995.237 589.424 C 997.147 583.921, 998.789 581.582, 1005.750 574.455 C 1010.288 569.810, 1014 565.557, 1014 565.004 C 1014 564.452, 1012.671 564, 1011.047 564 C 1009.014 564, 1007.533 563.203, 1006.297 561.443 C 1005.309 560.036, 1002.475 556.609, 1000 553.826 C 997.525 551.043, 994.953 547.806, 994.285 546.633 C 992.523 543.537, 992.655 523.542, 994.471 518.500 C 995.264 516.300, 995.932 511.984, 995.956 508.910 C 995.998 503.614, 996.197 503.179, 999.738 500.660 L 1003.476 498 996.988 498.136 C 993.420 498.210, 987.251 498.613, 983.281 499.031 M 979.518 632.329 C 975.583 636.098, 975 637.192, 975 640.803 C 975 644.311, 974.577 645.170, 972.250 646.385 C 970.737 647.175, 968.202 649.187, 966.615 650.857 L 963.729 653.892 965.870 658.446 C 967.047 660.951, 968.262 663, 968.570 663 C 969.859 663, 979.715 658.497, 982.268 656.741 C 983.791 655.695, 987.052 651.750, 989.515 647.977 C 993.487 641.893, 993.876 640.804, 992.950 638.369 C 992.376 636.858, 990.999 634.987, 989.890 634.210 C 988.781 633.434, 987.463 631.719, 986.962 630.399 C 986.460 629.080, 985.596 628, 985.042 628 C 984.488 628, 982.002 629.948, 979.518 632.329" stroke="#fc7143" fill="#fc7143" fill-opacity="0.2" fill-rule="evenodd"/><path class="svg-region-LPl" d="M 789.500 498.942 C 786.200 499.344, 781.531 500.422, 779.124 501.337 C 776.718 502.252, 773.465 503, 771.897 503 C 768.769 503, 766.632 505.467, 765.402 510.500 C 764.999 512.150, 763.956 514.026, 763.084 514.669 C 761.667 515.715, 761.737 516.092, 763.750 518.234 C 764.987 519.551, 766 521.060, 766 521.587 C 766 522.113, 767.253 524.109, 768.785 526.022 C 771.235 529.082, 774.198 534.689, 779.870 547 C 780.757 548.925, 782.087 551.252, 782.825 552.171 C 783.562 553.089, 784.969 555.339, 785.950 557.171 C 787.979 560.959, 791 562.207, 791 559.257 C 791 556.988, 797.602 553, 801.359 553 C 805.316 553, 812.125 548.737, 815.835 543.936 C 818.834 540.057, 819.104 539.179, 818.512 535.234 C 818.135 532.715, 818.381 528.793, 819.090 526.026 C 820.153 521.877, 820.094 520.717, 818.663 517.702 C 816.536 513.221, 816.483 505.659, 818.564 503.579 C 821.032 501.110, 819.622 500.348, 811.284 499.646 C 807.003 499.285, 801.700 498.814, 799.500 498.600 C 797.300 498.386, 792.800 498.539, 789.500 498.942" stroke="#d2454f" fill="#d2454f" fill-opacity="0.2" fill-rule="evenodd"/><path class="svg-region-LPr" d="M 1038.093 492.574 C 1033.007 495.373, 1026.625 495.768, 1024.285 493.428 C 1023.244 492.387, 1021.831 492.068, 1020.106 492.484 C 1016.417 493.373, 1012 495.369, 1012 496.146 C 1012 497.008, 1006.246 499, 1003.755 499 C 1002.685 499, 1000.502 499.931, 998.904 501.068 C 996.323 502.906, 996 503.727, 996 508.442 C 996 511.361, 995.325 515.662, 994.500 518 C 993.508 520.811, 993 526.055, 993 533.478 C 993 546.026, 992.391 544.551, 1002.934 557.540 L 1008.367 564.235 1013.107 563.674 C 1018.074 563.085, 1022 561.237, 1022 559.487 C 1022 558.920, 1023.383 556.778, 1025.073 554.728 C 1027.654 551.596, 1028.764 551, 1032.014 551 C 1034.141 551, 1036.160 551.450, 1036.500 552 C 1036.840 552.550, 1038.179 553, 1039.476 553 C 1040.772 553, 1042.023 553.563, 1042.254 554.250 C 1042.946 556.306, 1045.768 553.331, 1046.564 549.707 C 1047.488 545.503, 1050.693 540.649, 1056.888 534.073 C 1059.699 531.088, 1062 528.129, 1062 527.497 C 1062 526.866, 1063.068 525.345, 1064.373 524.119 C 1067.435 521.243, 1070.436 514.578, 1069.623 512.459 C 1069.275 511.552, 1068.205 510.592, 1067.245 510.326 C 1065.245 509.771, 1061.930 505.358, 1059.025 499.382 C 1056.493 494.173, 1055.736 493.596, 1048.846 491.621 C 1042.187 489.712, 1043.506 489.595, 1038.093 492.574" stroke="#d2454f" fill="#d2454f" fill-opacity="0.2" fill-rule="evenodd"/><path class="svg-region-AVCr" d="M 979.518 632.329 C 975.684 636.002, 974.996 637.251, 974.973 640.579 C 974.950 644.011, 974.482 644.789, 971.223 646.818 C 969.175 648.093, 966.673 650.256, 965.662 651.623 C 963.949 653.940, 963.932 654.338, 965.412 657.456 C 966.285 659.296, 967 661.297, 967 661.901 C 967 663.541, 969.191 663.243, 974.623 660.864 C 983.308 657.059, 984.854 655.575, 992.381 643.808 C 993.965 641.331, 994.072 640.453, 993.058 638.227 C 992.396 636.775, 990.959 634.959, 989.864 634.192 C 988.769 633.426, 987.463 631.719, 986.962 630.399 C 986.460 629.080, 985.596 628, 985.042 628 C 984.488 628, 982.002 629.948, 979.518 632.329" stroke="#ffbab9" fill="#ffbab9" fill-opacity="0.2" fill-rule="evenodd"/><path class="svg-region-Ol" d="M 567.500 236.206 C 565.300 236.730, 561.700 237.660, 559.500 238.273 C 557.300 238.887, 554.490 239.499, 553.257 239.634 C 552.023 239.769, 549.773 240.518, 548.257 241.300 C 546.740 242.081, 542.961 243.880, 539.857 245.297 C 536.753 246.714, 532.703 249.169, 530.857 250.752 C 529.011 252.335, 525.700 254.452, 523.500 255.457 C 517.427 258.230, 498.548 274.406, 478.500 294.016 C 457.510 314.546, 455.307 316.335, 444 322.020 C 435.950 326.068, 415.800 333.758, 406 336.524 C 375.709 345.071, 353.380 362.439, 334.268 392.320 C 331.391 396.819, 328.614 401.447, 328.098 402.605 C 327.582 403.763, 325.808 406.913, 324.156 409.605 C 322.505 412.297, 320.184 416.975, 318.999 420 C 317.814 423.025, 316.261 426.850, 315.550 428.500 C 310.048 441.250, 298.631 475.105, 295.650 487.506 C 294.858 490.803, 293.007 498, 291.538 503.500 C 288.851 513.558, 286.241 526.982, 283.371 545.500 C 279.984 567.349, 283.406 602.405, 290.913 622.763 C 296.960 639.165, 307.943 657.885, 319.781 671.970 C 327.482 681.133, 343.973 696.773, 352.849 703.331 C 357.441 706.724, 363.017 710.980, 365.241 712.790 C 367.465 714.599, 372.258 717.885, 375.892 720.092 C 379.527 722.298, 383.175 724.518, 384 725.024 C 386.984 726.856, 402.804 733.913, 405.371 734.557 C 406.817 734.920, 408 735.618, 408 736.108 C 408 736.599, 408.494 737, 409.098 737 C 409.701 737, 413.864 738.744, 418.348 740.875 C 430.964 746.871, 432.838 747.635, 443 750.931 C 448.225 752.625, 453.281 754.459, 454.236 755.006 C 455.191 755.553, 456.885 756, 458 756 C 459.115 756, 460.809 756.411, 461.764 756.914 C 465.075 758.657, 479.962 760.087, 493.317 759.944 C 507.826 759.789, 518.216 758.767, 530 756.335 C 545.097 753.220, 590.101 740.595, 601 736.417 C 602.925 735.679, 606.525 734.564, 609 733.940 C 611.475 733.315, 613.986 732.407, 614.580 731.921 C 615.173 731.436, 619.223 729.847, 623.580 728.392 C 627.936 726.936, 633.975 724.508, 637 722.997 C 640.025 721.485, 643.957 719.933, 645.739 719.547 C 647.520 719.162, 649.233 718.432, 649.546 717.926 C 649.858 717.420, 652.672 715.836, 655.798 714.406 C 661.130 711.967, 674.247 704.622, 676.489 702.820 C 677.045 702.373, 680.416 699.868, 683.980 697.253 C 700.515 685.125, 713.376 670.933, 721.363 656.004 C 723.571 651.877, 725.690 648.275, 726.073 648 C 727.114 647.251, 731 640.092, 731 638.921 C 731 638.361, 731.900 636.041, 733 633.764 C 734.100 631.487, 735 628.887, 735 627.986 C 735 627.086, 736.061 625.352, 737.358 624.133 C 738.842 622.739, 739.616 621.005, 739.446 619.455 C 739.297 618.101, 740.036 614.638, 741.088 611.760 C 742.139 608.883, 743 604.189, 743 601.329 C 743 598.470, 743.487 594.863, 744.082 593.315 C 744.677 591.767, 745.367 588.475, 745.614 586 C 746.392 578.227, 747.246 565.791, 747.537 558 C 747.691 553.875, 747.877 550.500, 747.949 550.500 C 748.191 550.500, 749.026 527.665, 749.175 517 C 749.259 510.989, 749.767 506.207, 750.364 505.816 C 751.024 505.382, 750.018 502.395, 747.622 497.676 C 744.508 491.540, 742.855 489.544, 738.283 486.395 C 733.570 483.149, 731.634 482.464, 725.523 481.880 C 721.561 481.502, 714.310 480.137, 709.409 478.846 C 701.645 476.801, 698.187 476.500, 682.500 476.500 C 664.909 476.500, 664.371 476.563, 658.812 479.250 C 653.395 481.869, 652.395 482.003, 637.812 482.073 C 624.513 482.137, 622.106 482.398, 619.500 484.062 C 616.462 486.002, 615.685 486.371, 610.750 488.215 C 609.237 488.780, 608 489.617, 608 490.074 C 608 490.532, 606.388 491.671, 604.417 492.606 C 602.446 493.542, 600.456 495.250, 599.995 496.403 C 599.533 497.557, 598 499.713, 596.588 501.195 C 595.176 502.678, 593.192 505.378, 592.178 507.195 C 591.165 509.013, 589.178 511.154, 587.761 511.953 C 585.101 513.454, 584.342 513.269, 578.500 509.698 C 568.117 503.351, 567 501.966, 567 495.436 C 567 490.749, 567.348 489.885, 570.196 487.488 C 572.967 485.157, 573.173 484.676, 571.746 483.877 C 567.595 481.554, 566.776 479.776, 567.194 473.992 C 567.513 469.584, 568.197 467.701, 570.301 465.431 C 572.251 463.328, 573 461.464, 573 458.711 C 573 454.887, 575.343 449, 576.865 449 C 577.313 449, 578.203 447.849, 578.844 446.443 C 580.478 442.858, 578.791 440, 575.043 440 C 573.326 440, 570.402 438.670, 567.828 436.719 C 558.095 429.339, 557.354 411.260, 566.106 394.728 C 566.622 393.754, 567.322 390.929, 567.662 388.451 C 568.001 385.973, 568.666 383.706, 569.140 383.414 C 569.613 383.121, 570 381.559, 570 379.941 C 570 378.323, 570.433 377, 570.961 377 C 571.490 377, 572.427 375.087, 573.042 372.750 C 573.658 370.413, 575.138 367.511, 576.331 366.303 C 577.524 365.095, 580.501 361.382, 582.946 358.053 C 585.392 354.724, 587.979 352, 588.696 352 C 589.413 352, 590 351.550, 590 351 C 590 350.438, 592.793 350, 596.378 350 C 604.737 350, 608.598 348.256, 616.197 341.047 C 622.827 334.757, 624.591 334.306, 629.473 337.649 C 630.557 338.392, 632.159 339, 633.031 339 C 633.903 339, 635.903 340.688, 637.476 342.750 C 640.720 347.005, 649.281 353, 652.113 353 C 653.686 353, 654 352.242, 654 348.441 C 654 345.656, 654.389 344.122, 655 344.500 C 657.479 346.032, 655.609 342.488, 651.679 338.207 C 646.144 332.177, 636.468 318.245, 635.561 315 C 635.177 313.625, 634.266 311.150, 633.537 309.500 C 629.162 299.604, 627.196 292.038, 625.999 280.491 C 624.137 262.537, 619.194 255.867, 597.038 241.413 C 594.033 239.453, 590.041 237.208, 588.165 236.425 C 584.367 234.838, 573.717 234.725, 567.500 236.206" stroke="#aa444d" fill="#aa444d" fill-opacity="0.2" fill-rule="evenodd"/><path class="svg-region-Or" d="M 1256.500 224.402 C 1250.916 226.173, 1244.829 229.423, 1242.710 231.766 C 1239.942 234.827, 1235.054 248.401, 1232.902 259 C 1232 263.444, 1230.886 268.747, 1228.805 278.500 C 1227.214 285.960, 1224.874 293.221, 1223.260 295.706 C 1221.743 298.042, 1222.265 300, 1224.404 300 C 1226.302 300, 1228.584 302.993, 1229.966 307.295 C 1231.364 311.649, 1239.152 319.888, 1244.124 322.271 C 1247.622 323.948, 1256 332.215, 1256 333.990 C 1256 334.545, 1256.583 335, 1257.295 335 C 1259.186 335, 1265.547 343.851, 1266.998 348.500 C 1267.684 350.700, 1268.640 353.281, 1269.123 354.236 C 1269.605 355.191, 1270 356.668, 1270 357.517 C 1270 358.367, 1272.250 361.242, 1275 363.906 C 1277.750 366.571, 1280 369.482, 1280 370.375 C 1280 371.269, 1280.441 372, 1280.981 372 C 1281.520 372, 1282.258 373.238, 1282.619 374.750 C 1282.980 376.262, 1283.655 377.986, 1284.119 378.580 C 1284.583 379.173, 1285.256 383.483, 1285.615 388.157 C 1286.250 396.416, 1286.165 396.890, 1282.584 405.077 C 1277.460 416.789, 1277.768 416.399, 1273.007 417.212 C 1270.649 417.614, 1267.995 418.564, 1267.110 419.323 C 1266.224 420.082, 1263.621 421.734, 1261.324 422.994 C 1257.196 425.259, 1254.820 425.336, 1248.250 423.422 C 1246.347 422.868, 1246 423.148, 1246 425.237 C 1246 427.850, 1246.344 428.259, 1258.354 439.932 C 1264.853 446.249, 1266 447.861, 1266 450.682 L 1266 454 1258.614 454 L 1251.228 454 1249.501 457.639 C 1248.371 460.021, 1247.953 462.613, 1248.292 465.139 C 1248.913 469.769, 1248.247 470.360, 1244.564 468.449 C 1242.932 467.602, 1238.963 467, 1235.013 467 C 1227.386 467, 1215.446 463.569, 1209.075 459.547 C 1206.925 458.190, 1203.891 456.768, 1202.333 456.387 C 1200.775 456.007, 1198.427 454.864, 1197.115 453.848 C 1195.555 452.639, 1193.071 452, 1189.934 452 C 1187.297 452, 1181.468 450.791, 1176.981 449.312 C 1169.164 446.737, 1168.480 446.674, 1160.610 447.812 C 1156.092 448.466, 1151.113 449, 1149.544 449 C 1146.201 449, 1130.059 453.535, 1125 455.896 C 1119.631 458.401, 1110.746 464.564, 1105.620 469.338 C 1102.074 472.640, 1101 474.350, 1101 476.694 C 1101 478.374, 1100.332 481.642, 1099.516 483.955 C 1097.994 488.270, 1098.288 494.549, 1100.900 513.500 C 1101.430 517.350, 1102.168 527.700, 1102.539 536.500 C 1102.910 545.300, 1103.383 552.783, 1103.591 553.130 C 1103.962 553.748, 1104.642 562.263, 1105.487 576.873 C 1105.721 580.929, 1106.158 584.491, 1106.457 584.790 C 1106.755 585.089, 1107.017 586.946, 1107.037 588.917 C 1107.057 590.888, 1107.748 595.650, 1108.573 599.500 C 1109.398 603.350, 1110.538 608.750, 1111.106 611.500 C 1112.787 619.633, 1115.907 629.279, 1118.539 634.479 C 1119.893 637.152, 1121 640.108, 1121 641.047 C 1121 641.986, 1121.708 643.343, 1122.573 644.061 C 1123.438 644.779, 1124.981 647.003, 1126.002 649.005 C 1129.838 656.523, 1149.592 677.920, 1152.750 677.977 C 1153.438 677.990, 1154 678.441, 1154 678.980 C 1154 679.518, 1155.688 680.829, 1157.750 681.893 C 1159.813 682.956, 1162.423 684.699, 1163.551 685.766 C 1164.679 686.834, 1170.192 689.866, 1175.801 692.504 C 1181.410 695.143, 1186 697.654, 1186 698.083 C 1186 698.513, 1187.013 699.171, 1188.250 699.544 C 1191.266 700.453, 1195.543 702.328, 1207.741 708.085 C 1213.373 710.743, 1219.898 713.430, 1222.241 714.057 C 1224.583 714.683, 1226.950 715.526, 1227.500 715.929 C 1228.050 716.332, 1232.100 717.946, 1236.500 719.515 C 1240.900 721.085, 1247.062 723.636, 1250.194 725.184 C 1253.326 726.733, 1256.160 728, 1256.492 728 C 1256.824 728, 1259.558 729.575, 1262.567 731.500 C 1265.577 733.425, 1268.536 735, 1269.145 735 C 1269.753 735, 1274.950 737.250, 1280.693 740 C 1286.437 742.750, 1291.668 745.004, 1292.318 745.010 C 1292.968 745.015, 1295.975 746.183, 1299 747.604 C 1304.665 750.267, 1318.717 753.244, 1334.500 755.125 C 1346.836 756.596, 1378.615 755.649, 1387 753.561 C 1390.575 752.671, 1396.875 751.571, 1401 751.117 C 1409.513 750.179, 1425.982 744.946, 1429.753 741.979 C 1431.137 740.891, 1432.935 740, 1433.749 740 C 1434.562 740, 1437.089 739.043, 1439.364 737.874 C 1441.639 736.705, 1444.365 735.303, 1445.421 734.759 C 1451.988 731.376, 1457.347 728.064, 1463.500 723.585 C 1467.350 720.783, 1472.347 717.239, 1474.604 715.710 C 1480.544 711.687, 1504.591 687.606, 1510.806 679.457 C 1521.632 665.262, 1522.657 663.756, 1532.683 647.294 C 1536.634 640.807, 1540.834 633.026, 1542.016 630.002 C 1543.199 626.979, 1544.495 624.054, 1544.897 623.502 C 1545.299 622.951, 1546.811 619.575, 1548.257 616 C 1556.423 595.804, 1563.018 569.861, 1564.918 550.454 C 1567.001 529.183, 1565.544 499.684, 1561.567 482.603 C 1560.683 478.810, 1560.135 475.531, 1560.349 475.318 C 1560.563 475.104, 1560.090 472.133, 1559.298 468.715 C 1558.507 465.297, 1557.636 461.150, 1557.364 459.500 C 1556.387 453.587, 1550.669 436.316, 1546.374 426.306 C 1543.968 420.699, 1542 415.868, 1542 415.571 C 1542 414.321, 1527.463 387.956, 1523.219 381.507 C 1507.102 357.020, 1483.652 333.501, 1460.237 318.343 C 1452.322 313.219, 1439.920 307, 1437.615 307 C 1436.727 307, 1436 306.567, 1436 306.038 C 1436 305.508, 1432.513 303.456, 1428.250 301.477 C 1423.987 299.499, 1419.825 297.462, 1419 296.951 C 1418.175 296.441, 1412.325 293.362, 1406 290.109 C 1393.169 283.510, 1390.060 281.799, 1377.192 274.250 C 1372.270 271.363, 1367.766 269, 1367.184 269 C 1366.602 269, 1363.169 266.975, 1359.553 264.500 C 1355.938 262.025, 1352.476 260, 1351.858 260 C 1350.669 260, 1343.846 256.084, 1343 254.915 C 1342.725 254.535, 1340.925 253.495, 1339 252.604 C 1337.075 251.713, 1333.250 249.677, 1330.500 248.080 C 1319.923 241.938, 1304.122 233.732, 1293.688 228.961 C 1282.229 223.722, 1265.220 221.637, 1256.500 224.402" stroke="#aa444d" fill="#aa444d" fill-opacity="0.2" fill-rule="evenodd"/><path class="svg-region-Pl" d="M 616.114 341.045 C 608.409 348.335, 604.740 350, 596.378 350 C 592.793 350, 590 350.438, 590 351 C 590 351.550, 589.506 352, 588.901 352 C 587.621 352, 582 357.788, 582 359.106 C 582 359.598, 581.622 360, 581.161 360 C 580.699 360, 579.766 361.218, 579.088 362.707 C 578.409 364.196, 576.987 366.021, 575.927 366.763 C 574.867 367.506, 573.497 370.113, 572.881 372.557 C 572.266 375, 571.366 377, 570.881 377 C 570.397 377, 570 378.350, 570 380 C 570 381.650, 569.608 383, 569.129 383 C 568.650 383, 567.953 385.700, 567.580 389 C 567.206 392.300, 566.586 395.002, 566.200 395.004 C 565.815 395.006, 564.728 396.918, 563.784 399.254 C 557.916 413.777, 559.113 429.813, 566.504 435.711 C 569.701 438.262, 570.601 438.453, 579.468 438.476 C 584.709 438.489, 588.998 438.213, 588.999 437.861 C 588.999 437.510, 590.477 436.946, 592.281 436.607 C 594.086 436.268, 596.332 435.093, 597.272 433.996 C 598.211 432.898, 599.806 432, 600.816 432 C 601.825 432, 603.661 430.925, 604.896 429.611 C 606.130 428.297, 608.357 426.979, 609.844 426.681 C 611.817 426.287, 612.896 425.176, 613.838 422.570 C 614.548 420.607, 615.760 419, 616.530 419 C 619.032 419, 623.655 413.514, 624.252 409.837 C 624.568 407.886, 625.991 405.034, 627.414 403.499 C 628.836 401.964, 630 400.324, 630 399.854 C 630 399.384, 631.125 399, 632.500 399 C 633.875 399, 635 398.433, 635 397.740 C 635 397.047, 636.043 395.354, 637.319 393.979 C 639.875 391.222, 642 385.966, 642 382.400 C 642 381.135, 642.582 379.740, 643.293 379.300 C 645.801 377.749, 647.121 370.694, 646.807 360.518 C 646.501 350.581, 646.486 350.526, 643.391 348.518 C 641.681 347.408, 639.007 344.813, 637.449 342.750 C 635.891 340.688, 634.026 339, 633.305 339 C 632.583 339, 630.314 338.100, 628.261 337 C 626.209 335.900, 624.073 335.001, 623.515 335.002 C 622.957 335.002, 619.626 337.722, 616.114 341.045" stroke="#f9d3d3" fill="#f9d3d3" fill-opacity="0.2" fill-rule="evenodd"/><path class="svg-region-Pr" d="M 1216.300 301.502 C 1215.121 302.328, 1211.858 304.158, 1209.049 305.569 C 1206.241 306.980, 1201.368 310.273, 1198.221 312.887 C 1195.075 315.501, 1191.371 318.377, 1189.991 319.277 C 1187.517 320.891, 1183.235 327, 1184.577 327 C 1184.957 327, 1187.011 326.478, 1189.140 325.840 C 1194.173 324.332, 1194.849 325.193, 1191.795 329.223 C 1186.808 335.804, 1186.547 336.909, 1189.284 339.852 C 1191.100 341.804, 1191.895 344.031, 1192.309 348.326 C 1192.750 352.895, 1193.435 354.674, 1195.487 356.576 C 1196.926 357.909, 1198.530 359, 1199.052 359 C 1200.943 359, 1199.945 362.202, 1197.886 362.740 C 1196.032 363.225, 1195.834 363.837, 1196.273 367.732 C 1196.839 372.751, 1201.908 379, 1205.413 379 C 1208.392 379, 1216 382.105, 1216 383.321 C 1216 383.899, 1215.023 385.411, 1213.829 386.682 C 1212.636 387.952, 1211.848 389.125, 1212.079 389.288 C 1212.311 389.451, 1216.832 392.401, 1222.127 395.843 C 1234.664 403.994, 1237.504 406.625, 1240.100 412.492 C 1241.282 415.164, 1243.093 418.256, 1244.124 419.364 C 1245.156 420.471, 1246 421.698, 1246 422.091 C 1246 423.126, 1251.836 425, 1255.061 425 C 1256.581 425, 1260.946 423.200, 1264.762 421 C 1268.680 418.741, 1273.018 417, 1274.729 417 C 1277.221 417, 1277.980 416.425, 1279.013 413.750 C 1279.703 411.962, 1281.622 407.634, 1283.276 404.131 C 1286.145 398.054, 1286.253 397.348, 1285.642 388.734 C 1285.289 383.769, 1284.613 379.210, 1284.138 378.603 C 1283.664 377.996, 1282.980 376.262, 1282.619 374.750 C 1282.258 373.238, 1281.520 372, 1280.981 372 C 1280.441 372, 1280 371.265, 1280 370.366 C 1280 369.468, 1277.750 366.518, 1275 363.811 C 1272.250 361.104, 1270 358.233, 1270 357.431 C 1270 356.629, 1269.605 355.191, 1269.123 354.236 C 1268.640 353.281, 1267.684 350.700, 1266.998 348.500 C 1265.547 343.851, 1259.186 335, 1257.295 335 C 1256.583 335, 1256 334.507, 1256 333.905 C 1256 332.127, 1247.769 323.998, 1244.289 322.339 C 1239.380 320, 1231.328 311.537, 1229.961 307.281 C 1229.294 305.201, 1228.059 302.712, 1227.219 301.750 C 1225.317 299.573, 1219.251 299.436, 1216.300 301.502" stroke="#f9d3d3" fill="#f9d3d3" fill-opacity="0.2" fill-rule="evenodd"/><path class="svg-region-OABl" d="M 654 348.474 C 654 352.530, 653.761 353, 651.700 353 C 650.435 353, 648.860 352.460, 648.200 351.800 C 647.267 350.867, 647 352.906, 647 360.979 C 647 371.269, 645.673 377.760, 643.255 379.300 C 642.565 379.740, 642 381.135, 642 382.400 C 642 385.479, 639.965 391.168, 638.248 392.890 C 637.486 393.655, 636.166 395.342, 635.316 396.640 C 634.466 397.938, 632.922 399, 631.885 399 C 630.848 399, 630 399.384, 630 399.854 C 630 400.324, 628.836 401.964, 627.414 403.499 C 625.991 405.034, 624.574 407.848, 624.265 409.753 C 623.641 413.601, 620.630 417.367, 617.358 418.394 C 616.179 418.764, 614.630 420.514, 613.914 422.283 C 612.399 426.031, 611.298 426.964, 608.365 426.985 C 607.191 426.993, 605.493 428.125, 604.592 429.500 C 603.691 430.875, 602.060 432, 600.967 432 C 599.874 432, 598.211 432.898, 597.272 433.996 C 596.332 435.093, 594.086 436.268, 592.281 436.607 C 590.477 436.946, 589.001 437.510, 589.002 437.861 C 589.003 438.213, 585.802 438.349, 581.889 438.163 C 577.646 437.963, 574.334 438.266, 573.687 438.913 C 572.904 439.696, 573.301 440, 575.100 440 C 580.003 440, 581.574 444.265, 577.898 447.593 C 574.766 450.427, 573 454.435, 573 458.711 C 573 461.464, 572.251 463.328, 570.301 465.431 C 568.182 467.717, 567.513 469.578, 567.186 474.111 C 566.803 479.399, 567.001 480.096, 569.552 482.461 L 572.336 485.040 569.668 487.825 C 567.442 490.149, 567 491.515, 567 496.082 C 567 500.154, 567.463 501.933, 568.809 503.028 C 572.147 505.744, 576.913 509, 577.552 509 C 577.900 509, 579.329 509.900, 580.727 511 C 584.348 513.848, 587.394 513.509, 590.411 509.923 C 591.835 508.231, 593 506.463, 593 505.995 C 593 505.526, 593.565 504.548, 594.254 503.821 C 594.944 503.095, 597.461 500.137, 599.848 497.250 C 602.234 494.363, 604.624 492, 605.160 492 C 605.695 492, 607.608 490.875, 609.411 489.500 C 611.214 488.125, 613.407 487, 614.285 487 C 615.163 487, 616.164 486.543, 616.509 485.985 C 618.302 483.084, 624.492 482, 639.254 482 C 652.279 482, 654.676 481.747, 657.382 480.088 C 662.748 476.798, 671.739 475.679, 687.775 476.305 C 698.302 476.715, 704.638 477.483, 710 478.996 C 714.125 480.160, 721.019 481.484, 725.321 481.938 C 731.713 482.612, 733.935 483.333, 737.484 485.881 C 739.873 487.597, 742.268 489, 742.806 489 C 744.203 489, 745 486.443, 745 481.965 C 745 476.689, 746.716 473.338, 750.672 470.894 C 753.105 469.390, 754 468.115, 754 466.154 C 754 461.190, 763.662 445.123, 770.621 438.514 C 772.845 436.403, 778.393 429.261, 781.119 425 C 783.030 422.015, 790.116 415, 791.222 415 C 791.651 415, 793.689 413.271, 795.751 411.158 C 801.019 405.760, 816.960 397.485, 825 395.975 C 828.575 395.304, 833.004 393.901, 834.841 392.857 C 839.260 390.348, 849.304 387, 852.415 387 C 854.651 387, 854.879 386.622, 854.740 383.150 C 854.616 380.040, 854.034 378.982, 851.712 377.650 C 847.995 375.516, 847.589 375.543, 838.817 378.489 C 834.742 379.858, 827.928 381.868, 823.676 382.955 C 819.424 384.042, 814.431 385.651, 812.581 386.528 C 807.411 388.982, 782.856 387.679, 774.885 384.528 C 773.997 384.177, 772.770 382.790, 772.157 381.445 C 770.675 378.192, 769.126 378.361, 764.808 382.250 C 762.823 384.038, 759.116 386.781, 756.570 388.348 C 753.727 390.096, 751.173 392.701, 749.950 395.098 C 748.733 397.483, 747.249 399, 746.133 399 C 745.129 399, 742.776 399.788, 740.904 400.750 C 736.105 403.217, 720.986 403.202, 718.251 400.727 C 717.201 399.777, 716.031 399, 715.650 399 C 713.627 399, 705.381 392.491, 696.748 384.079 C 691.385 378.853, 686.215 374.140, 685.261 373.606 C 683.032 372.359, 680.076 368.830, 680.033 367.365 C 680.015 366.741, 678.763 365.432, 677.250 364.458 C 675.737 363.483, 674.140 362.081, 673.700 361.343 C 673.260 360.604, 672.248 360, 671.450 360 C 670.653 360, 670 359.351, 670 358.559 C 670 356.564, 661.205 347.632, 657.250 345.610 L 654 343.949 654 348.474" stroke="#81244d" fill="#81244d" fill-opacity="0.2" fill-rule="evenodd"/><path class="svg-region-OABr" d="M 1174.385 340.998 C 1171.148 343.196, 1168.050 345.012, 1167.500 345.034 C 1165.960 345.093, 1161.184 349.322, 1160.822 350.948 C 1160.645 351.744, 1157.616 354.793, 1154.091 357.724 C 1146.031 364.425, 1138.478 372.978, 1131.769 383 C 1130.481 384.925, 1127.484 387.469, 1125.109 388.654 C 1122.734 389.839, 1120.298 391.302, 1119.696 391.904 C 1118.159 393.441, 1108.430 393.271, 1104.651 391.641 C 1097.163 388.410, 1095.670 388, 1091.400 388 C 1087.514 388, 1085.885 387.254, 1079.562 382.578 C 1072.509 377.362, 1072.103 377.201, 1068.865 378.328 C 1067.014 378.973, 1064.387 380.288, 1063.027 381.250 C 1061.668 382.212, 1058.837 383, 1056.737 383 C 1054.382 383, 1051.789 383.836, 1049.969 385.181 C 1047.121 387.287, 1046.696 387.320, 1037.759 386.131 C 1032.367 385.414, 1027.119 384.085, 1025.193 382.950 C 1021.238 380.618, 1018.425 380.451, 1017.638 382.500 C 1016.791 384.709, 1014.659 384.331, 1012 381.500 C 1010.079 379.455, 1008.705 379, 1004.451 379 C 1001.591 379, 997.338 378.325, 995 377.500 C 992.662 376.675, 989.905 376, 988.874 376 C 985.308 376, 987.021 377.777, 992.230 379.480 C 995.106 380.421, 998.595 381.935, 999.984 382.845 C 1004.583 385.860, 1006.484 387.006, 1008 387.678 C 1008.825 388.044, 1012.040 390.051, 1015.145 392.138 C 1018.250 394.225, 1022.750 396.706, 1025.145 397.652 C 1032.463 400.541, 1050 410.634, 1050 411.957 C 1050 412.327, 1051.463 413.340, 1053.250 414.207 C 1055.037 415.075, 1061.662 420.109, 1067.970 425.393 C 1074.279 430.677, 1080.016 435, 1080.720 435 C 1081.424 435, 1082.007 435.337, 1082.016 435.750 C 1082.024 436.163, 1084.325 437.625, 1087.129 439 C 1090.078 440.446, 1093.944 443.548, 1096.298 446.359 C 1100.362 451.210, 1100.376 451.216, 1105.643 450.780 C 1109.430 450.466, 1111.061 450.717, 1111.427 451.671 C 1112.511 454.496, 1114.670 452.662, 1119.015 445.227 L 1123.529 437.500 1128.015 437.791 C 1130.482 437.951, 1138.125 439.414, 1145 441.042 C 1151.875 442.671, 1159.750 444.508, 1162.500 445.125 C 1165.250 445.741, 1171.444 447.541, 1176.265 449.123 C 1181.086 450.705, 1187.212 452, 1189.880 452 C 1193.216 452, 1195.524 452.624, 1197.273 454 C 1198.671 455.100, 1200.426 456, 1201.173 456 C 1202.637 456, 1210.179 459.800, 1211 460.952 C 1212.312 462.791, 1228.947 467.011, 1235 467.040 C 1238.746 467.058, 1242.559 467.676, 1244 468.500 C 1248.289 470.952, 1249.253 470.455, 1248.528 466.169 C 1248.094 463.595, 1248.429 460.969, 1249.549 458.169 L 1251.217 454 1258.609 454 L 1266 454 1266 450.495 C 1266 447.371, 1264.913 445.931, 1256 437.253 C 1246.952 428.444, 1246 427.171, 1246 423.881 C 1246 421.853, 1245.330 419.689, 1244.485 418.987 C 1243.651 418.296, 1241.827 415.455, 1240.430 412.674 C 1239.033 409.893, 1236.903 406.641, 1235.695 405.446 C 1233.046 402.826, 1214.090 390, 1212.867 390 C 1211.388 390, 1211.909 388.392, 1214 386.500 C 1215.100 385.505, 1216 384.146, 1216 383.481 C 1216 382.244, 1208.676 379, 1205.883 379 C 1205.031 379, 1202.641 377.537, 1200.572 375.748 C 1197.469 373.067, 1196.717 371.665, 1196.275 367.748 C 1195.785 363.403, 1195.920 363, 1197.870 363 C 1201.157 363, 1200.466 359.827, 1196.608 357.200 C 1193.176 354.863, 1192.016 351.958, 1191.985 345.625 C 1191.967 341.995, 1191.399 340.999, 1188.027 338.692 C 1184.201 336.074, 1180.783 336.651, 1174.385 340.998 M 978.250 375.689 C 979.212 375.941, 980.788 375.941, 981.750 375.689 C 982.712 375.438, 981.925 375.232, 980 375.232 C 978.075 375.232, 977.288 375.438, 978.250 375.689" stroke="#81244d" fill="#81244d" fill-opacity="0.2" fill-rule="evenodd"/><path class="svg-region-BPCl" d="M 798.665 555.256 C 796.526 556.819, 794.028 565.940, 794.012 572.239 C 794.005 574.846, 794.940 579.346, 796.089 582.239 C 797.237 585.133, 799.014 589.679, 800.036 592.343 C 801.694 596.661, 808.043 607.763, 817.323 622.569 C 819.070 625.357, 822.170 629.632, 824.212 632.069 C 827.282 635.734, 828.221 636.316, 829.645 635.433 C 830.592 634.846, 831.686 633.721, 832.077 632.933 C 832.468 632.145, 834.411 628.732, 836.394 625.349 C 838.482 621.788, 840.030 617.788, 840.070 615.849 C 840.109 614.007, 840.496 611.600, 840.929 610.500 C 841.387 609.341, 841.184 606.975, 840.446 604.871 C 839.747 602.875, 838.867 598.784, 838.492 595.780 C 837.903 591.070, 836.943 589.217, 831.520 582.328 C 827.804 577.608, 823.956 573.810, 822.115 573.048 C 820.402 572.338, 819 571.374, 819 570.904 C 819 570.435, 817.679 569.368, 816.064 568.533 C 813.905 567.416, 813.045 566.173, 812.814 563.833 C 812.573 561.387, 811.460 559.898, 808 557.392 C 803.034 553.796, 801.227 553.382, 798.665 555.256" stroke="#83385f" fill="#83385f" fill-opacity="0.2" fill-rule="evenodd"/><path class="svg-region-BPCr" d="M 1025.616 553.657 C 1024.155 555.118, 1022.703 557.336, 1022.389 558.586 C 1022.072 559.850, 1020.350 561.555, 1018.506 562.430 C 1016.685 563.294, 1011.135 568.291, 1006.173 573.534 C 998.384 581.764, 996.867 583.950, 995.060 589.542 C 992.002 599.009, 991.430 606.705, 993.308 613.132 C 994.171 616.084, 995.654 621.650, 996.603 625.500 C 997.552 629.350, 998.997 633.845, 999.813 635.488 C 1001.166 638.211, 1001.395 638.316, 1002.399 636.676 C 1003.004 635.686, 1005.838 631.641, 1008.696 627.688 C 1011.555 623.734, 1015.785 617.125, 1018.097 613 C 1020.410 608.875, 1022.870 604.825, 1023.565 604 C 1024.260 603.175, 1025.800 599.575, 1026.989 596 C 1028.177 592.425, 1029.747 588.570, 1030.478 587.433 C 1031.209 586.295, 1032.718 582.470, 1033.831 578.933 C 1034.944 575.395, 1037.075 570.025, 1038.566 567 C 1040.057 563.975, 1041.482 559.700, 1041.734 557.500 C 1042.183 553.568, 1042.121 553.479, 1038.111 552.250 C 1031.804 550.318, 1028.594 550.679, 1025.616 553.657" stroke="#83385f" fill="#83385f" fill-opacity="0.2" fill-rule="evenodd"/>
    </svg>