<svg xmlns="http://www.w3.org/2000/svg" width="1921" height="1027" viewBox="0 0 1921 1027" version="1.1">
    <path class="svg-region-V" d="M 846 166.142 C 827.293 167.652, 795.434 172.722, 784 176.008 C 779.875 177.193, 773.125 179.035, 769 180.100 C 760.380 182.326, 755.352 183.800, 752.500 184.937 C 751.400 185.376, 746.675 187.207, 742 189.007 C 736.647 191.068, 732.204 193.550, 730 195.712 C 728.075 197.600, 723.204 201.024, 719.174 203.322 C 715.145 205.620, 709.295 208.953, 706.174 210.729 C 703.054 212.506, 697.142 215.656, 693.038 217.729 C 683.499 222.549, 672.982 232.293, 669.387 239.642 C 666.886 244.754, 666.762 245.652, 667.400 254.095 C 668.030 262.444, 669.094 266.325, 672.627 273.154 C 673.382 274.614, 674 276.766, 674 277.936 C 674 279.106, 674.634 280.306, 675.408 280.603 C 676.183 280.900, 677.365 282.467, 678.035 284.085 C 678.794 285.917, 680.242 287.261, 681.877 287.651 C 683.319 287.994, 685.123 288.769, 685.885 289.372 C 687.883 290.954, 699.432 291.992, 724.500 292.843 C 743.542 293.489, 747.302 293.886, 752.465 295.795 C 759.924 298.552, 778.131 298.997, 781.683 296.509 C 782.854 295.689, 786.769 294.600, 790.384 294.088 C 796.657 293.199, 797.228 292.880, 802.923 287.078 C 808.224 281.678, 809.329 281, 812.831 281 C 816.194 281, 817.560 280.257, 822.136 275.939 C 829.387 269.098, 837.920 264.001, 842.131 263.996 C 843.984 263.994, 847.007 263.074, 848.849 261.951 C 850.691 260.828, 854.291 259.213, 856.849 258.362 C 859.407 257.511, 862.531 255.732, 863.791 254.407 C 867.452 250.559, 873.432 248, 878.764 248 C 883.010 248, 884.033 248.441, 887.054 251.577 C 891.350 256.035, 899.926 260.190, 906.045 260.778 C 910.709 261.227, 923.007 257.869, 929.154 254.468 C 930.792 253.562, 934.431 253.017, 938.654 253.043 C 946.795 253.095, 945.290 252.282, 978.802 274.750 C 983.930 278.188, 988.327 281, 988.574 281 C 988.821 281, 991.709 282.834, 994.992 285.075 C 1000.299 288.697, 1006.051 291.975, 1033.628 307.093 C 1041.526 311.422, 1046.493 312.059, 1051.500 309.385 C 1053.150 308.504, 1058.031 307.374, 1062.347 306.875 C 1066.663 306.375, 1071.027 305.521, 1072.044 304.976 C 1073.061 304.432, 1076.505 303.558, 1079.697 303.034 C 1082.889 302.510, 1087.833 301.530, 1090.685 300.856 C 1095.936 299.616, 1100.705 300.219, 1117.169 304.206 C 1121.177 305.177, 1122.214 305.090, 1124.501 303.591 C 1128.230 301.148, 1135 286.395, 1135 280.713 C 1135 278.331, 1135.661 275.509, 1136.468 274.441 C 1138.223 272.120, 1138.462 263.731, 1136.857 260.733 C 1136.229 259.559, 1135.666 254.659, 1135.607 249.844 C 1135.502 241.236, 1135.437 241.015, 1131.700 236.545 C 1129.610 234.045, 1127.424 232, 1126.842 232 C 1125.829 232, 1123.531 230.515, 1101.988 215.937 C 1089.940 207.783, 1090.877 208.325, 1075.500 200.627 C 1068.350 197.048, 1059.350 193.225, 1055.500 192.132 C 1051.650 191.039, 1046.025 189.232, 1043 188.115 C 1036.742 185.806, 1014.412 180.019, 1011.715 180.008 C 1010.733 180.003, 1008.888 179.317, 1007.614 178.483 C 1004.504 176.445, 971.221 169.999, 957.500 168.777 C 951.450 168.238, 930.075 167.671, 910 167.518 C 886.048 167.335, 872.532 166.854, 870.685 166.120 C 867.558 164.876, 861.619 164.881, 846 166.142" stroke="#dd8a8a" fill="#dd8a8a" fill-opacity="0.2" fill-rule="evenodd"/><path class="svg-region-SF" d="M 681.001 289.499 C 680.006 290.698, 680.024 291.650, 681.090 294.249 C 682.396 297.434, 688.310 305.413, 693.975 311.633 C 695.544 313.356, 699.421 318.531, 702.590 323.133 C 709.368 332.976, 714.684 340.073, 719.125 345.208 C 720.889 347.248, 723.495 351.019, 724.916 353.589 C 727.971 359.114, 733.363 362.487, 740.572 363.383 C 755.557 365.247, 757.560 365.228, 764.060 363.157 C 776.851 359.083, 780.714 357.369, 785.070 353.836 C 787.506 351.859, 792.092 349.028, 795.260 347.544 C 800.458 345.109, 800.999 344.564, 800.800 341.960 C 800.661 340.131, 801.389 338.215, 802.790 336.723 C 804.006 335.430, 805 333.907, 805 333.341 C 805 332.774, 805.926 331.472, 807.059 330.447 C 808.476 329.164, 809.032 327.593, 808.843 325.404 C 808.693 323.655, 809.031 321.611, 809.595 320.862 C 813.784 315.298, 814.029 314.307, 811.892 311.590 C 810.771 310.165, 809.076 309, 808.124 309 C 807.171 309, 804.954 307.516, 803.196 305.702 C 800.811 303.241, 800 301.497, 800 298.825 C 800 293.510, 798.455 292.729, 790.464 294.006 C 786.754 294.598, 782.782 295.740, 781.637 296.542 C 778.179 298.964, 760.354 298.528, 753.225 295.847 C 748.338 294.009, 744.281 293.574, 725.500 292.874 C 697.264 291.822, 688.964 291.077, 686.527 289.376 C 683.989 287.605, 682.546 287.637, 681.001 289.499 M 1012.264 298.041 C 1010.484 298.426, 1007.476 299.925, 1005.580 301.371 C 1003.685 302.817, 1001.653 304, 1001.067 304 C 1000.480 304, 1000 304.450, 1000 305 C 1000 305.550, 1000.884 306, 1001.965 306 C 1005.730 306, 1010.376 311.393, 1012.431 318.150 C 1013.494 321.643, 1016.531 327.800, 1019.181 331.834 C 1022.508 336.897, 1024 340.199, 1024 342.500 C 1024 345.192, 1024.767 346.440, 1027.993 348.995 C 1030.190 350.734, 1033.580 352.597, 1035.526 353.135 C 1037.473 353.672, 1040.964 355.371, 1043.283 356.910 C 1045.602 358.449, 1049.698 360.245, 1052.384 360.902 C 1055.071 361.559, 1058.990 362.975, 1061.095 364.048 C 1063.199 365.122, 1065.726 366.008, 1066.710 366.018 C 1067.695 366.028, 1070.934 367.378, 1073.910 369.018 C 1076.885 370.658, 1079.653 372, 1080.061 372 C 1080.468 372, 1080.757 370.410, 1080.702 368.466 C 1080.622 365.662, 1081.354 364.180, 1084.240 361.293 C 1087.319 358.214, 1088.117 357.852, 1089.429 358.941 C 1090.694 359.991, 1091.819 359.979, 1095.547 358.878 C 1101.379 357.156, 1102.353 355.900, 1103.877 348.133 C 1105.532 339.702, 1109.266 334, 1113.133 334 C 1115.552 334, 1116 333.595, 1116 331.408 C 1116 329.982, 1116.900 327.671, 1118 326.273 C 1119.100 324.874, 1120 323.141, 1120 322.422 C 1120 320.150, 1115.718 318, 1111.194 318 C 1106.200 318, 1105.965 316.567, 1110.553 314.088 C 1117.240 310.476, 1121 307.763, 1121 306.548 C 1121 305.840, 1118.862 304.725, 1116.250 304.071 C 1113.638 303.417, 1109.818 302.442, 1107.762 301.904 C 1100.314 299.957, 1091.715 299.753, 1087.124 301.415 C 1084.718 302.287, 1081.568 303.006, 1080.124 303.013 C 1078.681 303.020, 1074.647 303.920, 1071.161 305.013 C 1067.674 306.106, 1062.949 307.015, 1060.661 307.034 C 1058.372 307.053, 1054.700 307.937, 1052.500 309 C 1047.093 311.612, 1041.780 311.499, 1036.692 308.664 C 1034.387 307.380, 1029.800 304.845, 1026.500 303.032 C 1023.200 301.219, 1020.050 299.415, 1019.500 299.023 C 1017.548 297.633, 1015.459 297.349, 1012.264 298.041" stroke="#8c6b55" fill="#8c6b55" fill-opacity="0.2" fill-rule="evenodd"/><path class="svg-region-IF" d="M 862.762 320.994 C 860.707 321.372, 857.973 322.816, 856.688 324.202 C 855.403 325.589, 853.165 327.501, 851.715 328.451 C 848.468 330.579, 847.527 333.248, 849.033 336.061 C 849.996 337.862, 850.753 338.097, 853.838 337.557 C 855.852 337.204, 862.225 336.541, 868 336.083 C 883.702 334.840, 889 333.440, 889 330.536 C 889 328.448, 886.148 326.006, 884.463 326.652 C 883.650 326.965, 881.879 326.495, 880.527 325.610 C 879.176 324.724, 876.955 324, 875.592 324 C 874.229 324, 871.626 323.169, 869.807 322.153 C 867.369 320.792, 865.518 320.487, 862.762 320.994 M 934.774 326.744 C 929.093 330.266, 930.556 334.286, 938.274 336.367 C 941.148 337.141, 944.400 337.781, 945.500 337.787 C 946.600 337.794, 950.425 338.122, 954 338.518 C 959.690 339.147, 960.967 338.960, 964.250 337.019 C 966.409 335.743, 968 334.026, 968 332.973 C 968 330.948, 965.514 328.043, 963.679 327.923 C 962.373 327.839, 961.431 327.615, 955.270 325.926 C 951.815 324.979, 950.345 325.045, 947.246 326.285 C 943.978 327.592, 943.185 327.609, 941.535 326.402 C 939.094 324.617, 938.124 324.666, 934.774 326.744" stroke="#f2823b" fill="#f2823b" fill-opacity="0.2" fill-rule="evenodd"/><path class="svg-region-PF" d="M 868.250 251.030 C 865.362 252.686, 863 254.451, 863 254.953 C 863 255.455, 861.987 256.176, 860.750 256.555 C 859.513 256.934, 855.228 258.765, 851.228 260.622 C 847.229 262.480, 842.787 264, 841.359 264 C 837.880 264, 828.461 269.838, 822.004 275.997 C 817.400 280.387, 816.239 281, 812.524 281 C 808.695 281, 807.798 281.520, 803.145 286.440 C 797.933 291.951, 797.196 293.385, 799 294.500 C 799.550 294.840, 800 296.845, 800 298.956 C 800 303.505, 804.185 309, 807.650 309 C 808.863 309, 810.758 310.149, 811.863 311.553 L 813.871 314.105 811.835 317.556 C 810.715 319.454, 809.424 321.238, 808.965 321.522 C 808.507 321.805, 808.369 323.496, 808.658 325.280 C 809.058 327.742, 808.680 328.979, 807.092 330.417 C 805.941 331.458, 805 332.738, 805 333.261 C 805 333.783, 803.931 335.481, 802.625 337.034 C 800.996 338.970, 800.404 340.664, 800.742 342.428 C 801.319 345.449, 802.633 345.587, 809.500 343.348 C 812.250 342.451, 819 341.340, 824.500 340.879 C 830 340.418, 837.650 339.694, 841.500 339.271 L 848.500 338.500 848.500 334.670 C 848.500 331.582, 849.071 330.425, 851.450 328.692 C 853.072 327.510, 855.598 325.371, 857.063 323.939 C 860.242 320.831, 867.906 319.977, 869.997 322.497 C 870.683 323.323, 872.679 324, 874.431 324 C 876.184 324, 878.491 324.661, 879.559 325.468 C 880.626 326.276, 882.682 326.951, 884.128 326.968 C 887.246 327.006, 889.282 329.101, 888.410 331.373 C 888.067 332.268, 887.497 333.037, 887.143 333.082 C 882.853 333.631, 880.334 334.288, 879.550 335.062 C 877.883 336.708, 888.182 336.055, 894 334.145 C 899.031 332.494, 900.524 332.449, 911.500 333.620 C 918.100 334.323, 925.653 334.922, 928.285 334.950 C 932.707 334.996, 932.992 334.854, 932.039 333.072 C 930.572 330.332, 931.630 328.403, 935.643 326.499 C 938.707 325.045, 939.395 325.019, 941.298 326.282 C 943.184 327.534, 944.017 327.532, 947.731 326.267 C 951.561 324.961, 952.585 324.990, 957.749 326.550 C 960.912 327.505, 964.513 328.907, 965.750 329.666 C 968.371 331.273, 968.708 334.505, 966.390 335.802 C 965.129 336.508, 965.534 336.825, 968.261 337.267 C 970.175 337.578, 973.712 338.727, 976.121 339.820 C 979.241 341.237, 985.101 342.220, 996.500 343.238 C 1008.665 344.324, 1013.545 345.177, 1016.859 346.796 C 1020.582 348.613, 1021.422 348.721, 1022.609 347.534 C 1025.207 344.936, 1024.276 339.370, 1020.301 333.740 C 1016.694 328.629, 1011 316.181, 1011 313.404 C 1011 310.926, 1006.748 307.043, 1003.332 306.402 C 1000.323 305.838, 998.546 304, 1001.009 304 C 1001.563 304, 1003.881 302.650, 1006.159 301 C 1008.436 299.350, 1011.358 298, 1012.650 298 C 1016.494 298, 1015.357 296.499, 1009.250 293.510 C 1004.349 291.111, 987.618 280.768, 984.500 278.211 C 983.168 277.118, 953.927 258.107, 949.210 255.266 C 944.802 252.613, 932.816 252.059, 929.473 254.354 C 928.388 255.099, 926.375 255.957, 925 256.260 C 923.625 256.563, 919.860 257.806, 916.633 259.022 C 906.681 262.771, 897.330 260.474, 888.124 252.019 C 884.199 248.415, 883.219 248.001, 878.624 248.009 C 874.767 248.016, 872.201 248.763, 868.250 251.030" stroke="#faaaaa" fill="#faaaaa" fill-opacity="0.2" fill-rule="evenodd"/><path class="svg-region-AAB" d="M 893.500 334.239 C 891.850 334.856, 882.850 335.718, 873.500 336.155 C 854.738 337.032, 850.231 337.411, 848 338.299 C 846.465 338.910, 842.044 339.395, 824.500 340.874 C 819 341.338, 812.250 342.451, 809.500 343.348 C 806.750 344.245, 803.643 344.983, 802.596 344.989 C 799.459 345.007, 789.818 349.953, 784.821 354.109 C 782.247 356.249, 779.659 358, 779.071 358 C 778.482 358, 777.989 358.563, 777.976 359.250 C 777.963 359.938, 776.167 361.821, 773.985 363.435 C 771.803 365.050, 769.733 367.300, 769.386 368.435 C 769.038 369.571, 766.222 373.248, 763.127 376.606 C 760.032 379.965, 756.288 384.690, 754.806 387.106 L 752.112 391.500 759.231 391.797 C 763.656 391.982, 766.756 392.601, 767.424 393.433 C 768.057 394.221, 771.713 395.044, 776.309 395.433 C 780.603 395.797, 785.245 396.523, 786.624 397.047 C 790.580 398.551, 795.464 398.172, 801.569 395.888 C 806.687 393.973, 807.690 393.897, 812.356 395.069 C 818.568 396.628, 831.005 396.658, 836.500 395.126 C 838.700 394.513, 845.168 394.009, 850.872 394.006 C 859.978 394.001, 861.093 394.183, 860.001 395.499 C 858.626 397.155, 857.879 397.193, 871.500 394.915 C 875.350 394.271, 880.012 393.129, 881.860 392.377 C 888.040 389.863, 904.984 388, 921.676 388 C 930.654 388, 938 387.624, 938 387.164 C 938 386.704, 941.712 385.535, 946.250 384.567 C 950.788 383.599, 955.534 382.401, 956.797 381.904 C 962.027 379.846, 976.222 381.084, 982.236 384.123 C 983.191 384.605, 984.473 385, 985.085 385 C 985.697 385, 987.616 385.655, 989.349 386.455 C 993.734 388.480, 1011.073 392.342, 1027.916 395.046 C 1033.559 395.952, 1038.222 395.966, 1047.416 395.105 C 1054.062 394.483, 1062.973 393.859, 1067.218 393.719 C 1075.640 393.441, 1078.117 392.260, 1075.587 389.730 C 1074.739 388.881, 1073.115 385.829, 1071.979 382.946 C 1070.842 380.063, 1069.032 376.585, 1067.956 375.217 C 1066.880 373.849, 1066 372.332, 1066 371.845 C 1066 371.359, 1064.906 369.228, 1063.569 367.110 C 1061.433 363.726, 1060.312 363.041, 1054.319 361.453 C 1050.569 360.459, 1045.657 358.401, 1043.404 356.880 C 1041.150 355.359, 1038 353.803, 1036.404 353.422 C 1034.807 353.040, 1031.405 351.246, 1028.845 349.434 C 1024.883 346.630, 1023.932 346.329, 1022.453 347.411 C 1021.012 348.464, 1020.014 348.339, 1016.608 346.678 C 1013.605 345.214, 1008.196 344.284, 996.500 343.222 C 983.746 342.064, 979.391 341.268, 975.035 339.300 C 970.837 337.403, 968.636 336.976, 965.535 337.457 C 956.699 338.828, 942.224 338.184, 936.985 336.187 C 935.602 335.660, 928.627 334.942, 921.485 334.591 C 914.343 334.241, 905.800 333.766, 902.500 333.536 C 899.200 333.307, 895.150 333.623, 893.500 334.239" stroke="#7f3c1a" fill="#7f3c1a" fill-opacity="0.2" fill-rule="evenodd"/><path class="svg-region-APB" d="M 894.237 389.530 C 889.692 390.253, 884.067 391.526, 881.737 392.359 C 879.407 393.191, 874.350 394.385, 870.500 395.011 C 866.650 395.638, 860.071 397.016, 855.880 398.075 C 851.689 399.134, 846.941 400, 845.330 400 C 843.718 400, 841.972 400.395, 841.450 400.877 C 839.461 402.712, 825.476 407, 821.479 407 C 816.808 407, 811.183 408.684, 809.179 410.683 C 808.452 411.407, 807.196 412, 806.389 412 C 804.840 412, 800.496 414.176, 792.933 418.743 C 790.421 420.259, 783.770 424.143, 778.153 427.373 C 772.535 430.603, 767.487 434.090, 766.934 435.123 C 766.382 436.155, 765.256 437, 764.433 437 C 763.611 437, 762.694 437.634, 762.396 438.410 C 762.099 439.185, 760.875 440.076, 759.678 440.390 C 758.480 440.704, 755.190 443.108, 752.368 445.731 C 749.545 448.354, 744.076 453.200, 740.214 456.500 C 736.353 459.800, 732.607 463.625, 731.890 465 C 731.173 466.375, 730.044 468.175, 729.382 469 C 728.720 469.825, 727.889 472.525, 727.537 475 C 726.930 479.265, 727.166 479.866, 732.054 486.500 C 734.891 490.350, 737.610 494.531, 738.097 495.791 C 738.584 497.052, 740.333 498.852, 741.985 499.791 C 743.636 500.731, 744.990 501.837, 744.994 502.250 C 744.997 502.663, 745.527 503, 746.171 503 C 746.815 503, 748.192 503.769, 749.231 504.709 C 750.771 506.103, 753.183 506.423, 762.310 506.444 C 772.408 506.468, 773.988 506.219, 778.500 503.891 C 787.465 499.267, 790.494 497.513, 790.833 496.750 C 791.017 496.337, 791.804 496, 792.583 496 C 793.362 496, 794 495.593, 794 495.096 C 794 494.598, 797.038 492.688, 800.750 490.851 C 804.462 489.014, 807.725 487.283, 808 487.005 C 808.723 486.275, 814.573 482.190, 821.199 477.789 C 824.359 475.690, 827.372 473.173, 827.895 472.197 C 828.417 471.220, 830.042 469.780, 831.505 468.997 C 832.969 468.214, 835.316 465.611, 836.721 463.213 C 838.893 459.507, 840.534 458.263, 847.657 454.926 C 852.267 452.767, 856.615 451, 857.319 451 C 858.024 451, 859.028 450.585, 859.550 450.078 C 860.072 449.571, 867.475 446.389, 876 443.007 C 884.525 439.626, 893.970 435.702, 896.988 434.287 C 902.241 431.826, 908.133 430.734, 923.522 429.369 C 929.306 428.856, 930.782 429.033, 931.895 430.373 C 932.663 431.299, 934.728 432, 936.688 432 C 938.582 432, 941.037 432.484, 942.143 433.077 C 944.173 434.163, 948.938 435.635, 961.182 438.958 C 969.699 441.269, 988.660 451.352, 989.506 454.020 C 989.851 455.106, 991.228 456.270, 992.567 456.606 C 993.905 456.942, 995 457.618, 995 458.108 C 995 458.599, 995.605 459, 996.345 459 C 997.085 459, 998.468 459.860, 999.419 460.910 C 1000.369 461.961, 1002.127 463.098, 1003.324 463.439 C 1004.521 463.779, 1007.750 466.833, 1010.500 470.225 C 1017.995 479.471, 1022.013 483, 1025.046 483 C 1027.833 483, 1032.453 484.290, 1037.500 486.476 C 1044.202 489.380, 1048.441 490.032, 1066.861 490.993 L 1086.111 491.997 1089.788 489.498 C 1094.317 486.421, 1094.415 486.421, 1095.818 489.500 C 1096.445 490.875, 1097.357 492, 1097.846 492 C 1099.094 492, 1103.303 485.339, 1105.376 480.083 C 1106.334 477.654, 1107.991 474.556, 1109.059 473.198 C 1111.864 469.631, 1111.467 467.252, 1107.467 463.667 C 1105.523 461.925, 1100.909 457.800, 1097.212 454.500 C 1093.516 451.200, 1088.243 445.857, 1085.496 442.628 C 1080.205 436.408, 1076.223 433.342, 1066.500 427.998 C 1063.200 426.185, 1060.275 424.398, 1060 424.028 C 1059.725 423.657, 1049.600 420.079, 1037.500 416.075 C 1025.400 412.071, 1013.919 407.781, 1011.987 406.540 C 1010.055 405.300, 1007.355 403.943, 1005.987 403.524 C 1004.619 403.106, 1002.825 402.202, 1002 401.515 C 1001.175 400.829, 997.112 399.996, 992.971 399.665 C 988.792 399.331, 981.229 397.677, 975.971 395.949 C 970.762 394.236, 963.575 392.448, 960 391.975 C 956.425 391.503, 951.250 390.580, 948.500 389.925 C 941.204 388.186, 904.367 387.918, 894.237 389.530" stroke="#ac7444" fill="#ac7444" fill-opacity="0.2" fill-rule="evenodd"/><path class="svg-region-AP" d="M 831.531 501.221 C 831.845 502.037, 830.626 505.078, 828.823 507.978 C 825.278 513.680, 825.043 515.728, 826.466 528.500 C 827.162 534.749, 826.954 536.304, 824.528 543 C 820.691 553.588, 818.017 564.713, 818.008 570.125 C 818.001 574.408, 818.210 574.792, 820.840 575.318 C 824.861 576.122, 834.253 587.945, 836.077 594.500 C 837.710 600.371, 838.039 624.683, 836.500 625.785 C 834.582 627.157, 832 632.830, 832 635.672 C 832 638.780, 839.084 648.116, 844.500 652.146 C 846.150 653.374, 849.525 656.226, 852 658.483 C 858.103 664.050, 867.040 670.560, 869.765 671.425 C 870.994 671.816, 872 672.546, 872 673.048 C 872 673.551, 873.959 673.693, 876.361 673.364 C 880.235 672.833, 881.484 673.226, 887.548 676.883 C 891.302 679.147, 894.877 681, 895.493 681 C 896.108 681, 898.136 679.875, 900 678.500 C 902.936 676.334, 904.436 676, 911.226 676 C 915.931 676, 920.499 676.600, 922.654 677.500 C 927.250 679.420, 931.319 679.403, 935.100 677.448 C 936.750 676.595, 938.966 676.172, 940.024 676.508 C 942.119 677.172, 953 674.117, 953 672.864 C 953 672.440, 955.074 671.176, 957.609 670.055 C 960.144 668.934, 963.775 666.649, 965.679 664.977 C 967.583 663.306, 971.506 660.603, 974.398 658.971 C 982.106 654.621, 991.241 645.916, 994.314 639.992 C 996.912 634.985, 997.760 630.093, 996.285 628.618 C 994.404 626.737, 992.913 617.168, 992.450 604 C 991.835 586.517, 992.056 585.992, 1003.680 577.405 C 1007.981 574.228, 1012.054 571.077, 1012.732 570.403 C 1013.410 569.730, 1014.497 569.001, 1015.148 568.784 C 1016.055 568.482, 1016.059 567.609, 1015.166 565.046 C 1014.525 563.206, 1014 560.636, 1014 559.334 C 1014 558.032, 1011.417 551.912, 1008.259 545.733 L 1002.518 534.500 1002.520 523 C 1002.521 514.278, 1002.951 510.443, 1004.302 507.125 C 1005.282 504.719, 1005.865 502.532, 1005.598 502.265 C 1004.192 500.859, 991.399 500.867, 985.255 502.278 C 976.883 504.200, 973.836 504.770, 962.500 506.539 C 957.550 507.311, 951.025 508.650, 948 509.515 C 941.598 511.345, 930.706 512.958, 919.819 513.689 C 913.111 514.140, 911.867 513.954, 910.006 512.221 C 907.742 510.111, 900.928 508.524, 889.500 507.446 C 885.650 507.083, 880.530 505.934, 878.123 504.893 C 875.715 503.852, 871.665 502.993, 869.123 502.985 C 866.580 502.976, 863.829 502.545, 863.010 502.027 C 862.022 501.403, 860.842 501.527, 859.510 502.396 C 856.011 504.677, 847.450 504.952, 844.062 502.891 C 842.423 501.895, 838.806 500.778, 836.023 500.409 C 831.786 499.847, 831.055 499.979, 831.531 501.221" stroke="#fc7143" fill="#fc7143" fill-opacity="0.2" fill-rule="evenodd"/><path class="svg-region-LPl" d="M 805.500 489.202 C 800.932 490.708, 794.406 493.986, 792.283 495.840 C 791.238 496.753, 788.834 498.343, 786.941 499.373 C 785.049 500.403, 780.575 502.828, 777 504.761 C 773.425 506.694, 768.700 509.867, 766.500 511.811 C 762.402 515.433, 758.126 522.190, 758.045 525.171 C 757.935 529.239, 765.100 543.392, 770.431 549.637 C 773.494 553.224, 776 556.799, 776 557.580 C 776 558.361, 776.450 559, 777 559 C 777.550 559, 778 559.620, 778 560.378 C 778 561.135, 778.675 562.315, 779.500 563 C 780.325 563.685, 781 565.104, 781 566.154 C 781 567.204, 781.656 568.315, 782.458 568.622 C 783.714 569.104, 790.249 581.484, 792.424 587.500 C 793.113 589.408, 793.246 589.377, 795.323 586.822 C 796.520 585.350, 798.314 582.981, 799.308 581.558 C 802.099 577.564, 805.542 575.785, 811.781 575.115 C 817.465 574.504, 817.502 574.479, 817.772 571 C 818.289 564.348, 821.145 551.603, 822.961 547.845 C 826.155 541.233, 827.331 534.291, 826.472 527.115 C 825.098 515.628, 825.352 513.562, 828.826 507.973 C 833.055 501.169, 832.482 499, 826.454 499 C 822.441 499, 821.548 498.504, 816.543 493.500 C 810.800 487.757, 810.379 487.593, 805.500 489.202" stroke="#d2454f" fill="#d2454f" fill-opacity="0.2" fill-rule="evenodd"/><path class="svg-region-LPr" d="M 1029.235 486.995 C 1027.990 487.518, 1026.549 489.056, 1026.033 490.412 C 1024.732 493.836, 1022.059 495, 1015.500 495 C 1008.723 495, 1005.660 496.354, 1006.494 498.982 C 1006.819 500.005, 1006.063 503.015, 1004.814 505.671 C 1002.853 509.841, 1002.541 512.136, 1002.522 522.500 L 1002.500 534.500 1008.250 545.670 C 1011.531 552.044, 1014 558.142, 1014 559.873 C 1014 564.498, 1015.983 568.140, 1018.130 567.459 C 1019.494 567.026, 1020.295 567.771, 1021.457 570.550 C 1022.298 572.565, 1022.726 574.634, 1022.407 575.150 C 1022.089 575.666, 1022.250 576.630, 1022.766 577.294 C 1024.130 579.049, 1026.820 587.744, 1027.721 593.315 L 1028.500 598.130 1037.500 580.326 C 1046.963 561.606, 1052.787 554.054, 1057.790 554.017 C 1061.120 553.992, 1066.768 550.785, 1072.647 545.582 C 1077.446 541.333, 1077.909 540.506, 1079.503 533.344 C 1080.501 528.858, 1081.049 523.117, 1080.822 519.541 C 1080.496 514.424, 1079.887 512.742, 1077.111 509.288 C 1073.626 504.952, 1072.108 504.132, 1062.750 501.538 C 1057.477 500.076, 1057 499.709, 1057 497.109 C 1057 494.598, 1056.288 493.954, 1050.779 491.482 C 1040.707 486.961, 1033.089 485.375, 1029.235 486.995" stroke="#d2454f" fill="#d2454f" fill-opacity="0.2" fill-rule="evenodd"/><path class="svg-region-Ol" d="M 549.311 243.453 C 545.358 244.113, 541.426 245.232, 540.574 245.938 C 539.685 246.677, 537.983 246.962, 536.574 246.608 C 535.226 246.270, 533.878 246.388, 533.579 246.872 C 533.280 247.356, 530.215 249.190, 526.768 250.947 C 518.481 255.170, 511 259.990, 511 261.104 C 511 261.597, 510.546 262, 509.991 262 C 508.864 262, 506.213 264.252, 495.122 274.636 C 490.930 278.560, 484.125 284.536, 480 287.915 C 475.875 291.294, 471.449 294.946, 470.165 296.030 C 468.881 297.113, 467.341 298, 466.744 298 C 466.146 298, 464.947 298.628, 464.079 299.396 C 462.283 300.983, 453.822 304, 451.165 304 C 450.194 304, 448.973 304.374, 448.450 304.831 C 446.999 306.101, 439.646 308, 436.181 308 C 434.483 308, 432.060 308.413, 430.797 308.919 C 426.158 310.774, 424.416 311.194, 420.500 311.403 C 413.684 311.765, 393.676 318.851, 384.313 324.218 C 372.465 331.009, 357.472 343.429, 347.060 355.077 C 335.357 368.170, 331.999 372.703, 324.525 385.500 C 321.955 389.900, 319.437 394.175, 318.930 395 C 315.910 399.910, 302 429.419, 302 430.915 C 302 431.386, 300.465 435.985, 298.590 441.135 C 296.714 446.286, 294.392 453.200, 293.429 456.500 C 292.466 459.800, 291.307 463.175, 290.854 464 C 289.513 466.439, 282.505 496.238, 279.212 513.500 C 275.970 530.495, 273.978 549.254, 273.992 562.655 C 274.002 572.834, 276.521 595.374, 278.612 604 C 282.131 618.517, 293.449 644.245, 301.936 657.023 C 306.168 663.394, 310.276 669.276, 311 670 C 311.275 670.275, 314.191 673.650, 317.479 677.500 C 328.133 689.973, 336.281 698.098, 347.500 707.437 C 358.003 716.180, 373.220 727, 375.012 727 C 375.477 727, 376.536 727.679, 377.366 728.509 C 378.195 729.338, 380.815 730.908, 383.187 731.997 C 388.095 734.250, 390.393 735.569, 401.275 742.375 C 407.626 746.348, 410.543 747.497, 417.214 748.655 C 421.705 749.434, 426.827 750.966, 428.596 752.059 C 432.044 754.190, 445.209 757.139, 459 758.869 C 484.190 762.029, 485.940 762.083, 513.678 760.554 C 519.276 760.245, 524.451 759.787, 525.178 759.535 C 525.905 759.284, 531.900 758.385, 538.500 757.537 C 545.100 756.690, 555.873 754.647, 562.439 752.998 C 569.006 751.349, 575.392 750, 576.630 750 C 577.869 750, 579.136 749.589, 579.446 749.087 C 579.757 748.585, 581.921 747.884, 584.255 747.530 C 588.530 746.882, 591.123 745.997, 596.331 743.407 C 597.888 742.633, 599.941 742, 600.893 742 C 602.570 742, 616.924 737.352, 622 735.166 C 623.375 734.573, 627.650 732.889, 631.500 731.422 C 638.446 728.776, 669.375 712.052, 675.903 707.412 C 677.775 706.081, 680.760 703.757, 682.538 702.247 C 684.315 700.736, 689.456 696.358, 693.963 692.518 C 701.558 686.046, 715.745 670.705, 724 660.036 C 729.453 652.989, 740.567 630.977, 742.700 623 C 745.020 614.321, 746.992 601.076, 746.996 594.144 C 746.998 590.649, 747.660 585.240, 748.468 582.124 C 750.285 575.111, 752.063 556.679, 750.987 556 C 750.552 555.725, 750.039 550.739, 749.848 544.919 C 749.511 534.659, 749.360 534.054, 744.860 524.919 C 742.308 519.739, 739.447 512.800, 738.502 509.500 C 737.557 506.200, 735.783 500.350, 734.560 496.500 C 732.338 489.504, 732.335 489.500, 728.179 488.934 C 725.892 488.623, 723.004 487.429, 721.760 486.280 C 720.517 485.131, 717.813 483.497, 715.750 482.647 C 713.272 481.626, 712 480.457, 712 479.199 C 712 477.545, 710.989 477.217, 704.250 476.690 C 699.475 476.316, 694.108 475.108, 690.270 473.542 C 686.480 471.995, 682.092 471, 679.067 471 C 674.075 471, 669 472.593, 669 474.161 C 669 474.622, 668.137 475, 667.083 475 C 666.029 475, 662.197 476.575, 658.569 478.500 C 654.940 480.425, 651.099 482, 650.033 482 C 648.966 482, 646.950 482.521, 645.551 483.159 C 643.437 484.122, 642.675 484.016, 641.029 482.526 C 639.259 480.925, 638.208 480.842, 631.099 481.750 C 621.503 482.975, 612.472 487.860, 608.846 493.787 C 607.597 495.829, 605.996 498.095, 605.287 498.821 C 604.579 499.548, 604 500.480, 604 500.893 C 604 501.305, 601.525 504.219, 598.500 507.367 C 595.475 510.515, 593 513.509, 593 514.019 C 593 514.530, 590.917 517.030, 588.371 519.576 L 583.742 524.206 576.296 523.830 C 569.786 523.501, 568.612 523.143, 566.948 520.977 C 564.678 518.023, 564.511 514.231, 566.532 511.559 C 567.339 510.491, 568 508.804, 568 507.809 C 568 506.814, 568.450 506, 569 506 C 569.550 506, 570 503.707, 570 500.904 C 570 494.163, 567.490 490.613, 561.691 489.153 C 557.343 488.058, 552 484.645, 552 482.962 C 552 480.357, 563.835 465, 565.842 465 C 567.530 465, 570 461.283, 570 458.744 C 570 456.600, 569.081 455.698, 564.750 453.589 C 553.029 447.882, 551.538 444.711, 552.373 427.257 C 553.575 402.136, 554.246 394, 555.116 394 C 555.602 394, 556 391.744, 556 388.986 C 556 386.229, 556.402 383.191, 556.894 382.236 C 557.386 381.281, 558.802 376.225, 560.041 371 C 561.280 365.775, 563.288 360.150, 564.503 358.500 C 565.717 356.850, 567.686 353.587, 568.876 351.250 C 570.067 348.913, 571.388 347, 571.813 347 C 572.763 347, 575 338.897, 575 335.454 C 575 334.070, 575.640 332.692, 576.423 332.391 C 577.727 331.891, 581.204 325.861, 581.549 323.500 C 581.630 322.950, 581.764 321.976, 581.848 321.337 C 581.931 320.697, 583.854 318.810, 586.119 317.144 C 591.613 313.103, 598.094 312.334, 609.168 314.409 C 615.907 315.672, 618.375 315.765, 620.989 314.854 C 623.526 313.970, 624.746 313.985, 626.244 314.920 C 627.317 315.590, 628.398 315.935, 628.646 315.687 C 629.207 315.126, 619.217 301.776, 617.473 300.757 C 615.018 299.322, 606.123 284.270, 602.800 275.928 C 596.203 259.371, 590.047 251.588, 579.191 246.084 C 575.597 244.262, 561.386 241.674, 557.500 242.133 C 556.950 242.199, 553.265 242.792, 549.311 243.453" stroke="#aa444d" fill="#aa444d" fill-opacity="0.2" fill-rule="evenodd"/><path class="svg-region-Or" d="M 1259.824 232.967 C 1256.703 234.611, 1253.921 236.754, 1253.643 237.729 C 1251.740 244.398, 1250.996 252.569, 1251.022 266.500 C 1251.059 286.186, 1251.078 286, 1248.833 288.409 C 1245.730 291.741, 1246.770 297.018, 1250.463 296.678 C 1251.980 296.538, 1252.551 297.362, 1253.115 300.500 C 1254.103 306.001, 1255.426 309.176, 1257.930 312.053 C 1262.619 317.443, 1269.162 326.689, 1270.540 329.872 C 1271.343 331.727, 1272 334.968, 1272 337.075 C 1272 340.995, 1273.724 346, 1275.074 346 C 1275.489 346, 1277.554 348.974, 1279.664 352.609 C 1285.197 362.141, 1285.215 362.167, 1288.762 365.973 C 1290.543 367.883, 1292 369.772, 1292 370.171 C 1292 370.570, 1293.070 372.052, 1294.378 373.463 C 1297.301 376.616, 1298 379.900, 1298 390.470 C 1298 397.420, 1297.691 398.970, 1296 400.500 C 1294.900 401.495, 1294 402.915, 1294 403.655 C 1294 404.395, 1293.600 405, 1293.111 405 C 1292.623 405, 1291.936 406.530, 1291.585 408.400 C 1291.234 410.269, 1290.237 412.388, 1289.370 413.108 C 1287.836 414.381, 1278.530 416.182, 1274.500 415.985 C 1257.428 415.153, 1248.216 414.980, 1246.321 415.455 C 1244.298 415.963, 1244 416.651, 1244 420.820 C 1244 425.490, 1245.753 430.977, 1247.250 430.992 C 1249.427 431.015, 1247.490 434.297, 1244 436.500 L 1240 439.025 1240.024 446.763 C 1240.051 455.178, 1241.217 461.549, 1243.683 466.744 C 1244.551 468.574, 1245.090 470.232, 1244.881 470.428 C 1244.189 471.076, 1223.541 468.971, 1221.500 468.044 C 1220.400 467.545, 1218.150 466.925, 1216.500 466.668 C 1214.850 466.410, 1208.325 464.817, 1202 463.128 C 1195.675 461.439, 1189.525 460.044, 1188.333 460.028 C 1187.142 460.013, 1186.006 459.517, 1185.809 458.926 C 1185.612 458.335, 1182.537 457.626, 1178.975 457.350 C 1175.414 457.075, 1171.600 456.494, 1170.500 456.059 C 1165.165 453.951, 1154.467 452, 1148.240 452 C 1140.770 452, 1136.146 453.660, 1132.420 457.681 C 1131.238 458.956, 1129.976 460, 1129.615 460 C 1129.255 460, 1127.178 461.125, 1125 462.500 C 1122.822 463.875, 1120.356 465, 1119.520 465 C 1118.684 465, 1117.999 465.337, 1117.997 465.750 C 1117.996 466.163, 1116.622 467.400, 1114.946 468.500 C 1113.182 469.657, 1110.343 473.436, 1108.212 477.464 C 1106.185 481.295, 1102.841 486.673, 1100.780 489.416 C 1098.719 492.158, 1097.467 494.671, 1097.998 494.999 C 1098.529 495.327, 1099.194 499.213, 1099.477 503.634 C 1099.759 508.056, 1100.393 513.884, 1100.885 516.586 C 1101.378 519.289, 1101.835 529.314, 1101.902 538.865 C 1101.969 548.415, 1102.356 556.740, 1102.762 557.365 C 1103.168 557.989, 1103.550 560.075, 1103.612 562 C 1103.940 572.236, 1109.538 602.813, 1112.492 610.500 C 1113.971 614.350, 1116.298 621.031, 1117.664 625.346 C 1119.950 632.568, 1125.576 643.002, 1127.988 644.493 C 1128.545 644.837, 1129 645.935, 1129 646.933 C 1129 647.931, 1131.490 651.617, 1134.534 655.124 C 1137.577 658.631, 1140.448 661.950, 1140.913 662.500 C 1143.472 665.527, 1157.062 676, 1158.432 676 C 1158.696 676, 1161.069 677.252, 1163.706 678.782 C 1168.305 681.451, 1173.223 683.581, 1188.500 689.518 C 1196.362 692.574, 1196.972 692.776, 1209.496 696.476 C 1217.361 698.800, 1225.396 700.823, 1234 702.648 C 1239.254 703.762, 1250.745 707.280, 1256.500 709.536 C 1259.800 710.830, 1264.869 712.566, 1267.764 713.395 C 1270.660 714.223, 1275.160 716.026, 1277.764 717.402 C 1298.717 728.468, 1322.233 738.334, 1336.590 742.083 C 1347.324 744.887, 1349.921 745.189, 1362.895 745.148 C 1379.935 745.094, 1386.010 743.954, 1409 736.499 C 1435.381 727.944, 1449.395 721.427, 1465.141 710.392 C 1467.693 708.603, 1472.418 705.754, 1475.641 704.060 C 1484.613 699.346, 1490.774 694.850, 1502.998 684.096 C 1548.116 644.405, 1569.203 611.123, 1577.731 566.146 C 1579.999 554.185, 1580.318 549.906, 1580.318 531.500 C 1580.318 510.097, 1579.599 503.170, 1575.025 480.500 C 1571.610 463.572, 1569.408 456.271, 1559.343 428.500 C 1556.653 421.075, 1541.859 391.579, 1535.269 380.500 C 1518.755 352.737, 1497.755 328.070, 1481.595 317.454 C 1477.865 315.004, 1474.600 313, 1474.337 313 C 1474.075 313, 1471.979 311.732, 1469.680 310.183 C 1467.381 308.634, 1463.250 306.444, 1460.500 305.318 C 1452.897 302.203, 1430.113 295.128, 1422.670 293.571 C 1419.034 292.810, 1414.133 291.528, 1411.779 290.722 C 1409.426 289.916, 1404.800 288.440, 1401.500 287.442 C 1395.301 285.567, 1381.763 279.097, 1381.156 277.719 C 1380.968 277.290, 1378.605 275.820, 1375.906 274.453 C 1373.208 273.085, 1371 271.596, 1371 271.144 C 1371 270.691, 1369.812 269.780, 1368.361 269.119 C 1366.909 268.457, 1364.852 266.810, 1363.788 265.458 C 1362.725 264.106, 1361.374 263, 1360.785 263 C 1360.197 263, 1357.417 261.077, 1354.608 258.727 C 1347.458 252.745, 1342.296 249, 1341.202 249 C 1340.689 249, 1339.197 248.174, 1337.885 247.165 C 1335.676 245.466, 1330.631 242.772, 1322 238.681 C 1320.075 237.769, 1314.225 235.614, 1309 233.893 C 1300.177 230.986, 1298.289 230.735, 1282.500 230.369 L 1265.500 229.976 1259.824 232.967" stroke="#aa444d" fill="#aa444d" fill-opacity="0.2" fill-rule="evenodd"/><path class="svg-region-Pl" d="M 594.500 313.491 C 593.950 313.675, 592.334 314.080, 590.910 314.392 C 587.536 315.129, 581.727 320.228, 581.529 322.626 C 581.289 325.515, 578.013 331.781, 576.423 332.391 C 575.640 332.692, 575 334.234, 575 335.819 C 575 339.691, 573.150 344.848, 570.450 348.500 C 569.230 350.150, 567.925 352.512, 567.549 353.750 C 567.173 354.988, 566.548 356, 566.160 356 C 564.795 356, 562.084 362.591, 559.990 371 C 558.826 375.675, 557.452 380.281, 556.937 381.236 C 556.422 382.191, 556 385.454, 556 388.486 C 556 391.519, 555.602 394, 555.116 394 C 554.231 394, 553.501 402.972, 552.373 427.722 C 551.806 440.158, 551.902 441.168, 553.984 444.698 C 556.551 449.049, 558.573 450.671, 565.194 453.693 L 570 455.887 570.037 451.193 L 570.074 446.500 586.287 438.533 C 598.718 432.425, 603.491 429.522, 606.750 426.090 C 609.087 423.628, 611 421.266, 611 420.842 C 611 420.417, 611.788 419.649, 612.750 419.134 C 614.649 418.118, 619.309 410.034, 620.321 406 C 620.666 404.625, 623.195 401.025, 625.940 398 C 628.686 394.975, 630.947 392.026, 630.966 391.447 C 630.985 390.869, 633.180 388.168, 635.845 385.447 C 638.577 382.657, 641.247 378.755, 641.968 376.500 C 642.671 374.300, 643.640 371.719, 644.123 370.764 C 644.605 369.809, 645 366.562, 645 363.549 C 645 359.103, 645.375 357.870, 646.990 357.006 C 649.414 355.708, 651.505 351.761, 652.407 346.776 C 653.182 342.495, 652.397 340.990, 644.179 331 C 638.066 323.568, 634.157 319.880, 628.593 316.295 C 625.118 314.055, 624.283 313.898, 621.025 314.874 C 618.204 315.719, 615.771 315.634, 610.432 314.503 C 604.023 313.145, 596.894 312.693, 594.500 313.491" stroke="#f9d3d3" fill="#f9d3d3" fill-opacity="0.2" fill-rule="evenodd"/><path class="svg-region-Pr" d="M 1240.100 294.019 C 1237.679 295.659, 1234.904 297, 1233.932 297 C 1231.974 297, 1222.981 301.261, 1218.846 304.147 C 1217.386 305.166, 1215.402 306, 1214.436 306 C 1213.471 306, 1210.391 307.698, 1207.591 309.773 C 1204.791 311.848, 1199.918 315.294, 1196.761 317.431 C 1193.605 319.568, 1190.330 322.374, 1189.483 323.666 C 1188.637 324.957, 1185.529 327.924, 1182.576 330.257 C 1175.484 335.862, 1164.586 349.202, 1165.305 351.399 C 1165.626 352.378, 1175.276 355.269, 1178.500 355.351 C 1179.600 355.379, 1181.513 355.056, 1182.750 354.633 C 1184.859 353.913, 1185 354.141, 1185 358.278 C 1185 361.420, 1184.424 363.211, 1183 364.500 C 1181.900 365.495, 1181 367.016, 1181 367.880 C 1181 370.067, 1187.927 376.024, 1191.250 376.695 C 1192.763 377, 1194 377.644, 1194 378.125 C 1194 378.606, 1194.822 379, 1195.826 379 C 1198.300 379, 1202 383.114, 1202 385.865 C 1202 388.322, 1206.913 391, 1211.421 391 C 1212.788 391, 1215.052 391.522, 1216.453 392.161 C 1218.612 393.144, 1219 393.981, 1219 397.653 C 1219 405.002, 1223.077 407.697, 1240.750 412.034 C 1243.088 412.608, 1245 413.485, 1245 413.984 C 1245 414.483, 1251.188 415.112, 1258.750 415.381 C 1266.313 415.651, 1273.400 415.919, 1274.500 415.977 C 1278.489 416.188, 1287.830 414.386, 1289.370 413.108 C 1290.237 412.388, 1291.234 410.269, 1291.585 408.400 C 1291.936 406.530, 1292.623 405, 1293.111 405 C 1293.600 405, 1294 404.395, 1294 403.655 C 1294 402.915, 1294.946 401.454, 1296.102 400.408 C 1298.035 398.659, 1298.175 397.655, 1297.844 387.973 L 1297.483 377.441 1292.583 370.766 C 1289.887 367.095, 1287.078 363.860, 1286.341 363.577 C 1285.603 363.294, 1285 362.406, 1285 361.603 C 1285 360.800, 1284.438 359.529, 1283.750 358.779 C 1282.207 357.096, 1280.627 354.618, 1277.990 349.750 C 1276.873 347.688, 1275.591 346, 1275.140 346 C 1273.722 346, 1272 341.065, 1272 337 C 1272 332.022, 1270.625 328.894, 1265.293 321.739 C 1262.932 318.570, 1261 315.723, 1261 315.412 C 1261 315.101, 1259.710 313.556, 1258.133 311.979 C 1255.428 309.274, 1253 302.671, 1253 298.019 C 1253 296.342, 1252.466 295.982, 1250.317 296.212 C 1248.189 296.440, 1247.510 295.998, 1247.039 294.074 C 1246.199 290.644, 1245.096 290.635, 1240.100 294.019" stroke="#f9d3d3" fill="#f9d3d3" fill-opacity="0.2" fill-rule="evenodd"/><path class="svg-region-OABl" d="M 651.205 350.522 C 650.354 353.705, 649.256 355.382, 647.498 356.183 C 645.220 357.221, 645 357.874, 645 363.601 C 645 367.056, 644.550 370.160, 644 370.500 C 643.450 370.840, 643 371.940, 643 372.945 C 643 375.813, 640.546 379.837, 635.729 384.866 C 633.288 387.415, 630.991 390.400, 630.624 391.500 C 630.257 392.600, 627.937 395.750, 625.467 398.500 C 622.997 401.250, 620.460 405.188, 619.830 407.250 C 619.199 409.313, 618.305 411, 617.842 411 C 617.379 411, 617 411.862, 617 412.915 C 617 413.969, 615.650 416.105, 614 417.662 C 612.350 419.219, 611 420.759, 611 421.084 C 611 421.409, 609.192 423.575, 606.982 425.898 C 604.038 428.993, 598.626 432.279, 586.732 438.194 C 577.804 442.634, 570.387 446.357, 570.249 446.468 C 570.111 446.578, 569.952 450.005, 569.896 454.084 C 569.816 459.922, 569.399 461.872, 567.939 463.250 C 566.918 464.212, 565.839 465, 565.539 465 C 563.775 465, 552 480.622, 552 482.962 C 552 484.645, 557.343 488.058, 561.691 489.153 C 567.490 490.613, 570 494.163, 570 500.904 C 570 503.707, 569.550 506, 569 506 C 568.450 506, 568 506.814, 568 507.809 C 568 508.804, 567.339 510.491, 566.532 511.559 C 564.333 514.466, 564.701 518.385, 567.452 521.354 C 569.657 523.733, 570.616 524, 576.946 524 C 583.936 524, 584.022 523.967, 588.494 519.558 C 590.972 517.115, 593 514.654, 593 514.090 C 593 513.525, 595.275 510.715, 598.056 507.845 C 600.837 504.975, 604.956 499.777, 607.209 496.293 C 612.857 487.560, 620.092 483.155, 631.099 481.750 C 638.208 480.842, 639.259 480.925, 641.029 482.526 C 642.675 484.016, 643.437 484.122, 645.551 483.159 C 646.950 482.521, 648.966 482, 650.033 482 C 651.099 482, 654.940 480.425, 658.569 478.500 C 662.197 476.575, 666.029 475, 667.083 475 C 668.137 475, 669 474.622, 669 474.161 C 669 472.592, 674.076 471, 679.077 471 C 682.160 471, 686.357 471.967, 690.084 473.535 C 693.939 475.158, 698.970 476.292, 704.054 476.684 C 710.959 477.216, 712 477.544, 712 479.184 C 712 480.450, 713.399 481.675, 716.250 482.906 C 718.587 483.915, 721.357 485.699, 722.405 486.870 C 723.723 488.344, 725.495 489, 728.155 489 C 732.756 489, 733.019 487.759, 729.438 482.944 C 727.244 479.995, 726.969 478.853, 727.527 475 C 727.885 472.525, 728.720 469.825, 729.382 469 C 730.044 468.175, 731.205 466.262, 731.962 464.750 C 732.719 463.238, 733.712 462, 734.169 462 C 734.626 462, 736.750 460.313, 738.889 458.250 C 748.265 449.210, 757.213 441.425, 759.271 440.518 C 760.497 439.978, 762.095 438.965, 762.821 438.268 C 763.548 437.571, 764.733 437, 765.455 437 C 766.176 437, 766.986 436.162, 767.254 435.138 C 767.521 434.114, 769.036 432.603, 770.620 431.780 C 773.985 430.032, 788.629 421.509, 793.875 418.244 C 800.070 414.390, 804.859 412, 806.389 412 C 807.196 412, 808.452 411.407, 809.179 410.683 C 811.186 408.682, 816.810 407, 821.495 407 C 823.804 407, 829.474 405.598, 834.096 403.884 C 838.718 402.171, 844.683 400.391, 847.351 399.929 C 854.174 398.747, 858.628 397.153, 860.116 395.361 C 861.254 393.989, 860.109 393.872, 849.446 394.275 C 842.876 394.523, 834.204 395.297, 830.176 395.995 C 823.734 397.111, 821.942 397.050, 815.310 395.488 C 807.804 393.720, 807.739 393.722, 801.341 395.981 C 794.743 398.310, 792.223 398.323, 782 396.076 C 779.525 395.532, 775.620 395.068, 773.321 395.044 C 770.862 395.018, 768.480 394.337, 767.531 393.388 C 766.121 391.978, 763.945 391.865, 750.209 392.486 C 735.226 393.163, 734.378 393.100, 731.857 391.110 C 730.163 389.773, 726.571 388.653, 721.857 387.993 C 713.769 386.860, 707.818 385.197, 706.919 383.820 C 706.600 383.330, 704.575 382.677, 702.419 382.369 C 700.264 382.061, 697.082 381.177, 695.349 380.405 C 693.616 379.632, 691.741 379, 691.184 379 C 689.792 379, 686.258 376.016, 674.072 364.553 C 672.349 362.932, 670.690 360.615, 670.386 359.403 C 669.638 356.422, 656.635 346, 653.663 346 C 652.976 346, 651.871 348.035, 651.205 350.522" stroke="#81244d" fill="#81244d" fill-opacity="0.2" fill-rule="evenodd"/><path class="svg-region-OABr" d="M 1159.865 354.463 C 1145.579 362.211, 1145.036 362.384, 1134.859 362.444 C 1123.596 362.509, 1121.985 363.409, 1119.919 370.790 C 1119.197 373.369, 1117.120 378.533, 1115.303 382.266 C 1113.486 385.999, 1112 389.408, 1112 389.841 C 1112 390.275, 1110.408 391.389, 1108.463 392.316 C 1105.079 393.930, 1104.753 393.915, 1100.914 391.956 C 1098.708 390.831, 1096.651 389.255, 1096.344 388.455 C 1095.503 386.263, 1087.014 386.602, 1081.833 389.034 C 1079.450 390.153, 1076.375 391.721, 1075 392.519 C 1073.321 393.494, 1069.515 393.975, 1063.409 393.985 C 1058.409 393.993, 1050.546 394.508, 1045.937 395.128 C 1039.576 395.984, 1035.500 395.966, 1029.028 395.051 C 1013.667 392.882, 994.236 388.700, 989.500 386.545 C 978.347 381.469, 964.350 379.522, 956.571 381.964 C 954.882 382.494, 949.900 383.782, 945.500 384.826 C 937.631 386.693, 937.549 386.744, 940.500 387.948 C 943.971 389.364, 950.757 390.767, 960 391.981 C 963.575 392.450, 970.762 394.236, 975.971 395.949 C 981.214 397.672, 988.804 399.333, 992.971 399.668 C 997.112 400.001, 1000.950 400.622, 1001.500 401.048 C 1005.644 404.255, 1019.208 409.932, 1036.979 415.899 C 1048.508 419.770, 1059.745 424.076, 1061.950 425.469 C 1064.156 426.861, 1066.228 428, 1066.555 428 C 1068.216 428, 1081.008 437.166, 1082.629 439.517 C 1085.175 443.211, 1101.746 460, 1102.846 460 C 1104.203 460, 1109.654 465.225, 1110.932 467.750 C 1112.371 470.593, 1112.908 470.568, 1116.217 467.500 C 1117.699 466.125, 1119.391 465, 1119.976 465 C 1120.561 465, 1122.822 463.875, 1125 462.500 C 1127.178 461.125, 1129.198 460, 1129.489 460 C 1129.779 460, 1131.337 458.824, 1132.951 457.386 C 1134.564 455.949, 1137.086 454.149, 1138.556 453.386 C 1142.105 451.545, 1154.372 451.603, 1160.591 453.489 C 1163.291 454.308, 1166.513 454.983, 1167.750 454.989 C 1168.987 454.995, 1170 455.391, 1170 455.868 C 1170 456.346, 1173.467 456.959, 1177.704 457.231 C 1182.156 457.517, 1185.569 458.206, 1185.788 458.863 C 1185.996 459.488, 1186.981 460, 1187.977 460 C 1188.972 460, 1195.122 461.397, 1201.643 463.104 C 1208.164 464.812, 1214.850 466.417, 1216.500 466.672 C 1218.150 466.928, 1220.400 467.559, 1221.500 468.075 C 1223.499 469.014, 1244.161 471.089, 1244.881 470.424 C 1245.090 470.230, 1244.551 468.574, 1243.683 466.744 C 1241.271 461.662, 1240.051 455.225, 1240.024 447.441 C 1239.999 439.966, 1240.645 438.509, 1245.250 435.657 C 1247.779 434.091, 1249.074 431, 1247.201 431 C 1245.880 431, 1244 424.643, 1244 420.179 C 1244 417.881, 1244.466 416, 1245.035 416 C 1245.744 416, 1245.748 415.398, 1245.048 414.090 C 1244.403 412.884, 1242.456 411.936, 1239.763 411.518 C 1232.646 410.413, 1223.628 407.003, 1221.309 404.541 C 1219.813 402.953, 1219.020 400.674, 1218.809 397.357 C 1218.504 392.565, 1218.447 392.489, 1214.500 391.693 C 1205.120 389.800, 1202.513 388.597, 1202.162 386 C 1201.739 382.866, 1198.239 379, 1195.826 379 C 1194.822 379, 1194 378.550, 1194 378 C 1194 377.450, 1193.080 377, 1191.955 377 C 1190.830 377, 1188.865 375.988, 1187.588 374.750 C 1186.311 373.512, 1184.419 372.004, 1183.383 371.398 C 1180.739 369.850, 1180.544 366.723, 1182.956 364.540 C 1184.417 363.217, 1185 361.451, 1185 358.345 C 1185 353.911, 1184.251 353.260, 1181.093 354.950 C 1179.917 355.580, 1177.832 355.462, 1174.909 354.600 C 1166.048 351.986, 1164.458 351.972, 1159.865 354.463" stroke="#81244d" fill="#81244d" fill-opacity="0.2" fill-rule="evenodd"/><path class="svg-region-BPCl" d="M 806.021 576.116 C 804.657 576.660, 802.705 577.862, 801.684 578.786 C 799.484 580.777, 794 588.737, 794 589.939 C 794 590.401, 795.810 594.316, 798.022 598.639 C 802.792 607.962, 809.799 617.975, 816.233 624.664 C 818.791 627.324, 821.914 630.850, 823.171 632.500 C 828.264 639.183, 830.959 639.747, 832.060 634.359 C 832.412 632.638, 833.780 629.715, 835.100 627.865 C 837.328 624.741, 837.499 623.606, 837.484 612 C 837.461 594.172, 835.755 589.054, 826.567 579.250 C 822.594 575.011, 822.565 575, 815.542 575.063 C 811.669 575.098, 807.384 575.572, 806.021 576.116" stroke="#83385f" fill="#83385f" fill-opacity="0.2" fill-rule="evenodd"/><path class="svg-region-BPCr" d="M 1015 568.786 C 1013.625 569.710, 1012.275 570.738, 1012 571.070 C 1011.725 571.402, 1008.125 574.164, 1004 577.208 C 992.045 586.030, 992.523 585.059, 992.355 600.856 C 992.220 613.525, 993.331 621.604, 996.360 630 C 996.658 630.825, 997.391 633.413, 997.989 635.750 C 998.588 638.087, 999.622 639.999, 1000.289 639.998 C 1001.428 639.997, 1011.172 626.079, 1016.090 617.429 C 1017.318 615.268, 1020.091 611.346, 1022.253 608.713 C 1026.859 603.100, 1028.391 598.416, 1027.504 592.658 C 1026.713 587.530, 1024.066 578.918, 1022.782 577.294 C 1022.257 576.630, 1022.115 575.623, 1022.466 575.055 C 1023.307 573.694, 1020.096 566.985, 1018.636 567.052 C 1018.011 567.081, 1016.375 567.861, 1015 568.786" stroke="#83385f" fill="#83385f" fill-opacity="0.2" fill-rule="evenodd"/><path class="svg-region-OVl" d="M 773.450 359.948 C 771.548 361.847, 760.340 364.404, 754 364.386 C 745.653 364.362, 737.244 363.095, 733.750 361.334 L 731 359.949 731 368.779 C 731 376.872, 730.750 378.003, 728 382.339 C 726.350 384.941, 725 387.290, 725 387.559 C 725 387.829, 726.013 388.508, 727.250 389.068 C 728.487 389.628, 730.625 390.735, 732 391.528 C 733.573 392.436, 737.331 392.976, 742.136 392.985 C 749.643 393, 749.833 392.937, 753.386 389.279 C 755.374 387.233, 757 384.944, 757 384.193 C 757 383.441, 759.645 380.053, 762.877 376.663 C 766.109 373.274, 769.048 369.539, 769.408 368.364 C 769.768 367.190, 771.848 364.991, 774.031 363.478 C 776.214 361.966, 778 360.339, 778 359.864 C 778 358.700, 774.638 358.762, 773.450 359.948" stroke="#593939" fill="#593939" fill-opacity="0.2" fill-rule="evenodd"/>
    </svg>