<svg xmlns="http://www.w3.org/2000/svg" width="1921" height="1027" viewBox="0 0 1921 1027" version="1.1">
    <path class="svg-region-V" d="M 807 168.068 C 789.578 170.725, 781.368 172.328, 768.804 175.525 C 760.937 177.527, 753.375 179.177, 752 179.193 C 750.625 179.208, 749.050 179.559, 748.500 179.973 C 747.950 180.387, 743.450 182.871, 738.500 185.494 C 728.155 190.976, 719 196.837, 719 197.978 C 719 198.408, 715.761 200.952, 711.802 203.630 C 707.843 206.309, 699.938 212.775, 694.236 218 C 688.534 223.225, 682.152 228.850, 680.055 230.500 C 670.797 237.782, 660.809 247.782, 659.230 251.350 C 658.107 253.890, 656.268 255.843, 653.831 257.086 C 651.799 258.123, 649.903 259.348, 649.618 259.809 C 648.884 260.996, 651.665 276.264, 653.350 280.295 C 654.124 282.148, 655.989 284.633, 657.493 285.816 C 663.142 290.259, 673.318 300.137, 675.970 303.751 C 677.483 305.813, 679.910 308.762, 681.363 310.304 C 682.816 311.846, 684.741 314.546, 685.642 316.304 C 686.542 318.062, 687.560 319.725, 687.903 320 C 688.247 320.275, 690.540 322.975, 693 326 C 695.460 329.025, 697.929 331.831, 698.486 332.235 C 700.380 333.607, 708.697 333.071, 710.007 331.492 C 711.219 330.032, 710.975 324.268, 709.498 319.443 C 709.096 318.131, 709.581 316.504, 710.835 314.955 L 712.804 312.524 734.256 312.831 L 755.708 313.138 759.604 310.557 C 761.747 309.138, 764.400 307.295, 765.500 306.463 C 768.879 303.907, 777.922 298, 778.457 298 C 778.734 298, 782.311 295.750, 786.404 293 C 790.498 290.250, 794.940 288, 796.277 288 C 797.613 288, 801.808 286.875, 805.599 285.500 C 809.390 284.125, 812.606 283, 812.746 283 C 812.886 283, 813 281.875, 813 280.500 C 813 278.006, 814.358 277.152, 815.468 278.948 C 815.790 279.469, 817.954 278.633, 820.277 277.088 C 822.600 275.544, 825.845 273.957, 827.490 273.561 C 829.134 273.165, 830.709 272.510, 830.990 272.105 C 832.385 270.089, 841.693 264.651, 846.767 262.888 C 855.505 259.850, 872.010 256.780, 876.500 257.357 C 886.293 258.615, 894.072 261.872, 896.300 265.646 C 896.850 266.577, 899.259 267, 904.019 267 C 911.557 267, 915.609 265.453, 924.160 259.310 C 928.146 256.446, 929.021 256.164, 930.214 257.357 C 931.005 258.147, 934.620 258.987, 938.555 259.293 C 953.294 260.442, 961.230 263.730, 970.832 272.666 C 972.850 274.544, 977.200 277.729, 980.500 279.745 C 983.800 281.762, 987.146 284.045, 987.936 284.820 C 989.173 286.034, 989.470 285.961, 990.087 284.294 C 990.720 282.583, 995.036 279, 996.465 279 C 996.759 279, 997 280.125, 997 281.500 C 997 283.169, 997.555 284, 998.671 284 C 999.590 284, 1001.125 284.708, 1002.082 285.574 C 1003.039 286.440, 1006.253 287.478, 1009.226 287.882 C 1013.353 288.442, 1015.501 289.408, 1018.315 291.968 C 1020.342 293.812, 1022.010 295.812, 1022.022 296.411 C 1022.034 297.010, 1024.058 298.850, 1026.520 300.500 C 1028.982 302.150, 1030.997 303.823, 1030.998 304.219 C 1030.999 304.614, 1031.600 304.707, 1032.334 304.426 C 1034.096 303.749, 1049.132 306.874, 1050.817 308.267 C 1051.541 308.866, 1054.564 310.176, 1057.534 311.179 L 1062.936 313.002 1068.718 310.077 C 1071.898 308.469, 1077.875 306.256, 1082 305.160 C 1086.125 304.065, 1092.649 302.230, 1096.497 301.084 C 1104.020 298.843, 1109 298.404, 1109 299.980 C 1109 300.519, 1106.300 303.939, 1103 307.581 C 1099.700 311.222, 1097 314.853, 1097 315.649 C 1097 317.512, 1101.718 321.891, 1104.468 322.581 C 1108.858 323.683, 1124.159 317.006, 1132.192 310.484 C 1135.639 307.685, 1140 299.539, 1140 295.899 C 1140 294.232, 1140.533 291.886, 1141.184 290.684 C 1142.337 288.558, 1142.772 286.728, 1144.974 274.738 C 1145.942 269.462, 1145.784 268.239, 1143.101 260.238 C 1141.488 255.432, 1139.851 248.887, 1139.463 245.694 C 1138.848 240.649, 1138.181 239.288, 1134.378 235.319 C 1131.970 232.806, 1130 230.400, 1130 229.973 C 1130 229.545, 1128.763 228.713, 1127.250 228.123 C 1124.237 226.947, 1114.074 219.879, 1107 214.040 C 1104.525 211.997, 1100.347 209.128, 1097.716 207.664 C 1095.086 206.200, 1089.460 202.189, 1085.216 198.751 C 1075.672 191.020, 1073.869 190, 1069.760 190 C 1067.963 190, 1063.345 188.482, 1059.497 186.626 C 1048.390 181.270, 1032.674 177.601, 1007 174.372 C 983.381 171.401, 938.156 172.415, 933.500 176.020 C 932.950 176.446, 930.250 177.014, 927.500 177.283 C 895.155 180.441, 897.213 180.406, 886.500 177.971 C 881 176.721, 873.800 175.194, 870.500 174.578 C 867.200 173.961, 863.600 172.950, 862.500 172.330 C 861.400 171.710, 857.800 170.911, 854.500 170.555 C 851.200 170.199, 846.700 169.502, 844.500 169.006 C 839.327 167.840, 812.838 167.177, 807 168.068" stroke="#dd8a8a" fill="#dd8a8a" fill-opacity="0.2" fill-rule="evenodd"/><path class="svg-region-SV" d="M 818.479 278.024 C 817.230 279.404, 816.322 279.722, 815.624 279.024 C 814.033 277.433, 813.168 277.801, 812.820 280.217 C 812.412 283.043, 805.028 286.583, 797.101 287.752 C 794.120 288.192, 778.626 297.108, 772.216 302.072 C 769.567 304.124, 769.977 304.517, 775.763 305.475 C 781.968 306.502, 783.370 310.378, 779.268 315.167 C 778.134 316.491, 778.082 317.284, 779.015 319.029 C 779.662 320.236, 780.003 322.202, 779.775 323.398 C 779.378 325.472, 779.642 325.554, 785.523 325.179 C 794.829 324.587, 800 327.916, 800 334.500 C 800 335.947, 799.480 338.114, 798.845 339.316 C 797.454 341.944, 790.805 350.364, 789.750 350.833 C 789.337 351.017, 789 351.939, 789 352.883 C 789 353.828, 788.468 355.132, 787.817 355.783 C 787.166 356.434, 786.833 357.166, 787.077 357.411 C 787.611 357.945, 796.542 354.940, 799.871 353.106 C 803.129 351.312, 816.071 349.193, 830.889 348.029 C 837.702 347.494, 843.519 346.814, 843.816 346.518 C 844.112 346.222, 843.550 345.392, 842.568 344.674 C 839.798 342.648, 841.062 339.711, 845.656 337.500 C 849.734 335.537, 853.445 332.128, 855.575 328.388 C 857.468 325.065, 865.837 320.176, 871.760 318.933 C 874.917 318.271, 884.189 317.678, 892.365 317.615 C 906.261 317.507, 907.333 317.634, 908.823 319.559 L 910.416 321.617 914.458 319.598 C 920.237 316.710, 940.008 316.090, 949.091 318.512 C 952.616 319.452, 957.442 320.613, 959.815 321.093 C 964.709 322.081, 970 324.897, 970 326.514 C 970 327.110, 972.469 330.050, 975.486 333.049 C 978.503 336.047, 980.978 339.198, 980.986 340.050 C 981.005 342.178, 978.998 344, 976.633 344 C 971.983 344, 978.984 346.191, 992 348.808 C 995.025 349.416, 1002.574 351.058, 1008.776 352.457 C 1014.978 353.856, 1022.403 355.027, 1025.276 355.060 C 1030.927 355.124, 1038.300 356.249, 1041.500 357.535 C 1043.466 358.325, 1043.468 358.303, 1041.618 356.195 C 1040.583 355.016, 1038.895 353.784, 1037.867 353.458 C 1034.846 352.499, 1033.599 349.236, 1035.285 346.697 C 1036.589 344.733, 1036.483 344.297, 1034.109 341.851 C 1027.047 334.576, 1026.716 333.758, 1030.105 331.944 C 1032.730 330.539, 1038.439 331.516, 1042.618 334.084 C 1045.019 335.559, 1047.606 336, 1053.868 336 C 1058.341 336, 1062 335.743, 1062 335.429 C 1062 334.428, 1059.590 332.516, 1056.735 331.253 C 1051.475 328.925, 1050.634 321.891, 1055.178 318.217 C 1056.345 317.273, 1058.214 315.631, 1059.330 314.570 L 1061.360 312.640 1058.930 311.642 C 1057.594 311.094, 1054.250 309.648, 1051.500 308.430 C 1046.351 306.150, 1033.330 303.337, 1032.369 304.297 C 1031.626 305.040, 1027.570 301.608, 1020.916 294.604 C 1015.727 289.143, 1014.889 288.650, 1009.567 287.928 C 1006.407 287.499, 1003.039 286.440, 1002.082 285.574 C 1001.125 284.708, 999.590 284, 998.671 284 C 997.541 284, 997 283.164, 997 281.417 C 997 279.996, 996.663 278.998, 996.250 279.199 C 990.937 281.788, 989.996 282.568, 989.965 284.411 C 989.912 287.492, 987.754 290.864, 984.433 293.054 C 980.928 295.364, 976.167 295.598, 975.362 293.500 C 974.997 292.550, 973.450 291.996, 971.143 291.988 C 969.139 291.982, 965.025 291.268, 962 290.402 C 954.636 288.294, 928.498 286.664, 907.115 286.979 C 890.892 287.219, 889.189 287.427, 881.615 290.098 C 872.631 293.267, 862.359 293.914, 852.974 291.901 C 848.362 290.912, 847.426 291.027, 843.618 293.047 L 839.386 295.292 835.043 292.146 C 831.933 289.893, 829.588 289, 826.784 289 C 819.074 289, 816.773 284.936, 821.068 278.904 C 822.630 276.711, 822.790 276, 821.723 276 C 820.946 276, 819.486 276.911, 818.479 278.024 M 915.500 338 C 915.119 338.617, 916.843 339, 920 339 C 923.157 339, 924.881 338.617, 924.500 338 C 924.160 337.450, 922.135 337, 920 337 C 917.865 337, 915.840 337.450, 915.500 338 M 887.269 341.693 C 888.242 341.947, 889.592 341.930, 890.269 341.656 C 890.946 341.382, 890.150 341.175, 888.500 341.195 C 886.850 341.215, 886.296 341.439, 887.269 341.693 M 848.500 345 L 844.500 345.716 849.250 345.858 C 851.862 345.936, 854 345.550, 854 345 C 854 344.450, 853.663 344.064, 853.250 344.142 C 852.837 344.220, 850.700 344.606, 848.500 345" stroke="#c666b5" fill="#c666b5" fill-opacity="0.2" fill-rule="evenodd"/><path class="svg-region-SF" d="M 1090.500 302.596 C 1084.450 304.453, 1078.825 305.986, 1078 306.003 C 1077.175 306.020, 1073.350 307.601, 1069.500 309.516 C 1065.650 311.431, 1062.168 312.998, 1061.761 312.999 C 1060.845 313, 1057.414 315.723, 1054.329 318.896 C 1050.321 323.019, 1051.596 330.180, 1056.562 331.426 C 1058 331.787, 1060.338 333.159, 1061.758 334.476 C 1063.222 335.834, 1067.186 337.583, 1070.920 338.519 C 1074.539 339.426, 1082.225 341.898, 1088 344.012 C 1098.371 347.808, 1108.223 351, 1109.568 351 C 1109.949 351, 1109.925 348.863, 1109.515 346.250 C 1108.190 337.808, 1108.899 328.747, 1111.065 326.436 C 1114.275 323.011, 1113.575 321.652, 1108.980 322.387 C 1105.746 322.904, 1104.328 322.587, 1101.730 320.765 C 1095.415 316.337, 1095.492 315.574, 1103 308.159 C 1106.300 304.900, 1109 301.506, 1109 300.617 C 1109 298.107, 1103.057 298.743, 1090.500 302.596 M 765.327 306.315 C 756.893 313.223, 756.991 313.202, 734.023 312.835 C 713.833 312.512, 712.980 312.578, 710.958 314.598 C 708.971 316.584, 708.928 317.029, 710.141 322.902 C 711.823 331.048, 710.988 332.401, 704.025 332.806 L 698.757 333.113 699.330 336.647 C 700.207 342.048, 703.124 349, 704.513 349 C 705.196 349, 706.336 348.300, 707.045 347.445 C 709.922 343.979, 712.050 343.676, 714.852 346.331 C 717.598 348.935, 728.206 353, 732.253 353 C 733.526 353, 737.478 350.840, 741.034 348.199 C 761.964 332.660, 761.255 333.090, 768.758 331.415 C 774.156 330.211, 776.526 329.147, 778.008 327.263 C 780.189 324.490, 780.632 320.032, 778.898 318.298 C 778.095 317.495, 778.413 316.361, 780.069 314.121 C 783.417 309.592, 781.821 306.764, 775.035 305.197 C 768.330 303.650, 768.622 303.616, 765.327 306.315" stroke="#8c6b55" fill="#8c6b55" fill-opacity="0.2" fill-rule="evenodd"/><path class="svg-region-IF" d="M 868.879 332.798 C 867.585 333.704, 863.820 334.765, 860.513 335.155 C 847.882 336.646, 843.635 337.733, 841.855 339.930 C 840.049 342.161, 840.260 344.539, 842.327 345.247 C 843.707 345.720, 866.528 344.294, 869.621 343.542 C 872.748 342.782, 877.562 336.114, 876.359 334.208 C 874.720 331.609, 871.455 330.993, 868.879 332.798 M 940.200 332.200 C 937.193 335.207, 940.183 341.981, 944.728 342.456 C 945.703 342.558, 947.175 342.905, 948 343.227 C 950.979 344.391, 961.433 346, 965.917 345.985 C 971.673 345.965, 973.004 345.118, 973.506 341.154 C 974.019 337.099, 971.322 334.470, 964.603 332.475 C 958.510 330.665, 941.921 330.479, 940.200 332.200" stroke="#f2823b" fill="#f2823b" fill-opacity="0.2" fill-rule="evenodd"/><path class="svg-region-PF" d="M 925.500 258.363 C 923.850 259.650, 919.937 262.120, 916.804 263.851 C 911.967 266.525, 910.082 266.997, 904.304 266.983 C 898.366 266.968, 897.199 266.649, 895.140 264.477 C 891.637 260.784, 886.908 258.904, 877.094 257.301 C 869.784 256.107, 844.458 262.401, 837.963 267.026 C 836.439 268.112, 834.768 269, 834.251 269 C 833.733 269, 832.519 269.874, 831.551 270.943 C 830.584 272.012, 828.532 273.164, 826.990 273.502 C 823.711 274.222, 819 280.673, 819 284.443 C 819 287.449, 821.554 289, 826.504 289 C 828.908 289, 831.617 290.016, 834.500 292 C 839.698 295.576, 840.307 295.630, 844.206 292.854 C 846.946 290.902, 847.671 290.811, 852.186 291.854 C 861.318 293.961, 872.568 293.289, 881.624 290.095 C 889.178 287.430, 890.934 287.213, 906.624 286.991 C 930.521 286.654, 951.127 287.865, 959.732 290.112 C 963.709 291.150, 968.723 292, 970.875 292 C 973.429 292, 974.986 292.520, 975.362 293.500 C 976.742 297.098, 987.257 293.569, 988.860 288.971 C 989.945 285.859, 989.686 285.568, 980.500 279.579 C 977.200 277.428, 972.449 273.830, 969.942 271.584 C 967.434 269.338, 964.059 266.725, 962.442 265.779 C 960.824 264.832, 958.825 263.640, 958 263.129 C 955.616 261.653, 941.945 258.973, 936.872 258.987 C 933.966 258.995, 931.782 258.442, 931 257.500 C 929.376 255.543, 929.048 255.594, 925.500 258.363 M 879 317.947 C 868.065 319.110, 863.460 320.808, 858.704 325.430 C 853.114 330.863, 848.817 336.150, 849.464 336.797 C 849.752 337.085, 851.730 336.798, 853.860 336.160 C 855.989 335.522, 859.480 334.997, 861.616 334.993 C 863.752 334.990, 866.780 334.143, 868.344 333.112 C 871.532 331.010, 874.592 331.369, 876.006 334.011 C 876.717 335.341, 876.219 336.779, 873.968 339.886 L 870.987 344 874.929 344 C 877.096 344, 880.137 343.499, 881.685 342.886 C 883.233 342.274, 890.736 341.632, 898.357 341.460 C 910.755 341.180, 912.447 340.929, 914.422 339.073 C 917.539 336.145, 922.083 336.463, 927.661 340 C 931.434 342.393, 933.501 343, 937.870 343 L 943.349 343 941.174 340.686 C 938.789 338.146, 938.322 334.078, 940.200 332.200 C 941.692 330.708, 956.682 330.630, 962.980 332.081 C 965.444 332.649, 968.918 334.225, 970.699 335.584 C 973.445 337.678, 973.848 338.509, 973.344 341.028 C 972.810 343.701, 973.006 344, 975.293 344 C 982.779 344, 982.846 340.367, 975.500 332.722 C 972.475 329.574, 970 326.560, 970 326.025 C 970 324.406, 965.039 322.396, 954.210 319.629 C 940.649 316.164, 923.853 315.904, 915.906 319.037 C 911.103 320.930, 910.611 320.958, 908.925 319.432 C 906.755 317.468, 890.900 316.681, 879 317.947" stroke="#faaaaa" fill="#faaaaa" fill-opacity="0.2" fill-rule="evenodd"/><path class="svg-region-AAB" d="M 913.450 339.927 C 912.928 340.437, 905.300 341.372, 896.500 342.005 C 887.700 342.638, 875.325 343.526, 869 343.979 C 862.675 344.432, 853.675 345.332, 849 345.979 C 844.325 346.626, 835.775 347.524, 830 347.974 C 815.517 349.105, 802.258 351.554, 797.539 353.971 C 795.360 355.087, 792.966 356, 792.219 356 C 790.611 356, 784.103 360.490, 778.511 365.457 C 776.317 367.406, 774.190 369, 773.785 369 C 773.380 369, 771.575 370.644, 769.774 372.654 C 767.973 374.664, 765.487 377.343, 764.250 378.609 C 763.013 379.874, 762 381.301, 762 381.780 C 762 382.259, 760.875 383.708, 759.500 385 C 758.125 386.292, 757 387.673, 757 388.069 C 757 388.465, 755.683 390.198, 754.074 391.921 C 752.464 393.644, 750.854 396.387, 750.497 398.016 C 750.139 399.644, 749.431 401.234, 748.923 401.548 C 748.415 401.861, 748 403.329, 748 404.809 C 748 407.301, 748.314 407.503, 752.250 407.544 C 759.605 407.619, 777.449 410.109, 778.092 411.148 C 778.900 412.456, 794.977 411.634, 806 409.720 C 810.675 408.909, 824.175 407.723, 836 407.084 C 847.825 406.445, 861.325 405.262, 866 404.455 C 870.675 403.647, 875.625 402.987, 877 402.987 C 878.375 402.987, 880.820 402.299, 882.434 401.458 C 886.288 399.448, 888.525 400.186, 886.826 402.908 C 885.785 404.575, 885.964 405.169, 888.053 406.969 C 890.332 408.934, 891.288 409.039, 902 408.498 C 908.325 408.179, 920.925 407.599, 930 407.209 C 944.340 406.593, 947.060 406.205, 950.781 404.250 C 953.500 402.821, 956.965 401.964, 960.281 401.900 C 964.594 401.818, 965.066 401.647, 963 400.915 C 961.507 400.386, 973.561 400.235, 992.927 400.539 C 1010.762 400.820, 1025.837 401.447, 1026.427 401.932 C 1028.705 403.807, 1040.027 405, 1055.543 405 C 1071.478 405, 1071.805 405.044, 1077.586 407.960 L 1083.454 410.919 1088.184 405.801 C 1092.206 401.449, 1093.144 400.875, 1094.457 401.964 C 1095.306 402.669, 1096 402.815, 1096 402.290 C 1096 401.228, 1088.583 395.003, 1087.309 394.995 C 1086.864 394.992, 1084.714 392.517, 1082.530 389.495 C 1080.347 386.473, 1078.240 384, 1077.848 384 C 1077.456 384, 1076.881 383.212, 1076.570 382.250 C 1075.989 380.451, 1070.751 376.984, 1068.669 377.021 C 1068.026 377.032, 1064.034 375.570, 1059.798 373.771 C 1053.754 371.204, 1051.961 369.964, 1051.469 368.010 C 1051.124 366.641, 1050.540 365.291, 1050.171 365.010 C 1049.802 364.730, 1049.021 363.600, 1048.436 362.500 C 1046.442 358.752, 1038.943 356.110, 1027.335 355.067 C 1021.376 354.531, 1014.475 353.614, 1012 353.028 C 1009.525 352.443, 1004.125 351.292, 1000 350.471 C 995.875 349.649, 990.700 348.555, 988.500 348.038 C 977.527 345.459, 974.417 344.830, 973.500 345.001 C 969.075 345.830, 959.367 345.534, 954 344.407 C 950.425 343.656, 944.125 343.031, 940 343.017 C 934.296 342.998, 931.716 342.514, 929.226 340.996 C 925.735 338.868, 915.263 338.158, 913.450 339.927" stroke="#7f3c1a" fill="#7f3c1a" fill-opacity="0.2" fill-rule="evenodd"/><path class="svg-region-APB" d="M 950.500 404.317 C 947.038 406.206, 944.281 406.592, 930 407.181 C 894.425 408.650, 890 409.088, 890 411.139 C 890 412.844, 889.049 413, 878.641 413 C 867.935 413, 866.958 413.173, 861.660 416 C 856.198 418.915, 855.646 419, 842.269 419.006 C 832.010 419.011, 827.770 419.393, 825.636 420.506 C 824.060 421.328, 821.944 422, 820.933 422 C 818.554 422, 814 424.076, 814 425.161 C 814 425.622, 813.188 426, 812.196 426 C 811.204 426, 805.081 428.680, 798.590 431.955 C 792.099 435.230, 784.811 438.206, 782.394 438.568 C 779.977 438.931, 778 439.567, 778 439.982 C 778 440.397, 776.135 440.987, 773.856 441.293 C 771.577 441.598, 769.439 442.263, 769.106 442.770 C 768.773 443.277, 767.150 444.021, 765.500 444.424 C 763.850 444.826, 760.250 446.808, 757.500 448.828 C 754.750 450.847, 749.800 453.850, 746.500 455.500 C 743.200 457.150, 740.350 458.837, 740.167 459.250 C 739.983 459.663, 739.196 460, 738.417 460 C 737.637 460, 737 460.337, 736.999 460.750 C 736.998 461.163, 734.685 463.911, 731.859 466.858 C 724.192 474.850, 721.835 479.970, 721.800 488.711 C 721.769 496.339, 721.612 495.945, 729.197 507.326 C 733.618 513.960, 735.329 515, 741.818 515 C 745.926 515, 746.856 515.340, 747.290 517 C 748.134 520.230, 750.727 519.332, 755.772 514.063 C 759.004 510.688, 762.082 508.595, 765.500 507.450 C 768.250 506.528, 772.525 504.408, 775 502.739 C 782.033 497.996, 787.039 495.425, 793 493.494 C 796.025 492.513, 799.388 491.102, 800.473 490.356 C 801.557 489.610, 803.582 488.990, 804.973 488.977 C 806.363 488.965, 810.404 487.390, 813.954 485.477 C 817.503 483.565, 820.878 481.993, 821.454 481.984 C 822.029 481.976, 826.325 478.586, 831 474.451 C 842.162 464.580, 871.191 447.389, 880.750 444.990 C 883.087 444.403, 885 443.522, 885 443.032 C 885 441.989, 890.643 440.768, 908.500 437.949 C 915.650 436.820, 924.650 435.320, 928.500 434.615 C 935.530 433.329, 936.279 433.426, 943.500 436.566 C 947.780 438.426, 955.171 440.813, 965.165 443.561 C 969.930 444.872, 975.390 446.970, 977.298 448.222 C 979.206 449.475, 984.430 452.750, 988.907 455.500 C 993.384 458.250, 1001.345 464.100, 1006.599 468.500 C 1017.390 477.537, 1022.588 480.966, 1025.500 480.969 C 1029.479 480.973, 1041.584 485.408, 1045.217 488.193 C 1047.262 489.760, 1052.624 493.283, 1057.133 496.021 C 1063.837 500.093, 1066.172 501, 1069.953 501 C 1074.192 501, 1074.882 501.365, 1078.247 505.391 C 1081.716 509.541, 1088.887 514, 1092.093 514 C 1093.715 514, 1096.160 511.426, 1099.071 506.651 C 1100.383 504.499, 1100.994 501.656, 1100.996 497.684 C 1101.001 490.718, 1101.872 488.860, 1106.469 486.019 C 1111.582 482.859, 1114.064 478.784, 1114.714 472.481 L 1115.282 466.975 1109.588 461.370 C 1106.455 458.288, 1103.220 454.740, 1102.399 453.486 C 1101.577 452.232, 1099.014 449.922, 1096.703 448.353 C 1094.391 446.784, 1091.891 444.923, 1091.146 444.217 C 1089.073 442.253, 1082.218 438.957, 1076.962 437.396 C 1074.365 436.625, 1071.682 435.322, 1071 434.500 C 1070.318 433.678, 1067.677 432.354, 1065.130 431.557 C 1062.584 430.759, 1056 428.462, 1050.500 426.452 C 1045 424.441, 1038.925 422.364, 1037 421.834 C 1035.075 421.305, 1032.150 420.275, 1030.500 419.546 C 1027.289 418.127, 1022.262 416.500, 1001 409.997 C 993.575 407.726, 986.150 405.392, 984.500 404.811 C 980.297 403.332, 969.776 402.100, 961.500 402.118 C 956.214 402.130, 953.521 402.668, 950.500 404.317" stroke="#ac7444" fill="#ac7444" fill-opacity="0.2" fill-rule="evenodd"/><path class="svg-region-AP" d="M 990 496.500 C 988.590 498.199, 982.450 498.537, 981.481 496.969 C 980.670 495.658, 974.640 496.714, 970 498.980 C 968.075 499.920, 963.800 500.781, 960.500 500.894 C 956.218 501.041, 953.658 501.707, 951.560 503.220 C 949.073 505.014, 945.993 505.552, 931.560 506.713 C 912.314 508.262, 899.533 507.739, 890 505.011 C 879.286 501.945, 868.007 500.131, 859 500.026 C 854.325 499.971, 848.925 499.525, 847 499.034 C 845.075 498.543, 839.563 497.832, 834.750 497.453 C 824.869 496.674, 823.819 497.543, 828.516 502.611 C 831.442 505.769, 831.353 506.271, 825.950 517.064 C 823.381 522.198, 819.961 526.858, 815.308 531.564 C 807.288 539.678, 806 542.173, 806 549.597 C 806 555.170, 804.417 559.579, 801.566 561.945 C 799.684 563.507, 799.524 569.500, 801.271 572.952 C 802.418 575.221, 803.076 575.409, 810.025 575.452 C 816.478 575.493, 818.503 575.975, 824.377 578.866 C 830.648 581.952, 831.427 582.691, 833.738 587.739 C 836.061 592.812, 836.207 593.967, 835.596 602.373 C 834.385 619.012, 833.328 625.458, 831.153 629.461 C 829.969 631.640, 829 634.228, 829 635.211 C 829 636.195, 828.550 637, 828 637 C 827.450 637, 827 637.675, 827 638.500 C 827 639.325, 827.656 640, 828.458 640 C 829.735 640, 834.678 644.817, 849.612 660.612 C 851.750 662.874, 856.774 667.487, 860.776 670.862 L 868.051 677 875.061 677 C 882.830 677, 886.535 678.647, 888.115 682.802 C 888.936 684.962, 889.481 685.184, 892.693 684.662 C 894.698 684.337, 896.636 683.590, 896.999 683.002 C 897.363 682.413, 898.454 682.237, 899.425 682.610 C 900.396 682.982, 904.529 682.456, 908.609 681.440 C 914.897 679.874, 916.713 679.776, 920.528 680.796 C 926.068 682.278, 935.233 682.367, 936.647 680.953 C 937.222 680.378, 940.178 679.782, 943.216 679.629 C 946.516 679.464, 950.099 678.545, 952.119 677.346 C 956.003 675.043, 971.485 663.718, 977.718 658.622 C 980.038 656.725, 983.413 654.875, 985.218 654.510 C 992.508 653.038, 996.908 650.741, 999.443 647.082 C 1002.182 643.130, 1002.682 640.082, 1000.885 638.285 C 1000.271 637.671, 999.185 632.519, 998.471 626.835 C 997.757 621.151, 996.648 613.145, 996.006 609.044 C 995.364 604.943, 995.099 599.093, 995.418 596.044 C 995.736 592.995, 995.991 588.960, 995.985 587.078 C 995.972 583.099, 998.690 579.733, 1004.196 576.910 C 1006.229 575.867, 1008.254 574.448, 1008.696 573.757 C 1010.398 571.095, 1013.403 569.546, 1017.863 569.033 L 1022.500 568.500 1023.382 557.302 L 1024.264 546.105 1020.631 540.632 C 1017.832 536.415, 1016.252 535.008, 1013.749 534.505 C 1011.962 534.145, 1009.750 533.641, 1008.833 533.384 C 1007.917 533.128, 1005.057 529.224, 1002.478 524.709 C 998.154 517.139, 997.778 515.934, 997.644 509.219 C 997.553 504.594, 997.927 501.672, 998.671 501.209 C 999.315 500.808, 1000.151 499.247, 1000.529 497.740 C 1001.210 495.028, 1001.166 495, 996.231 495 C 993.019 495, 990.802 495.534, 990 496.500" stroke="#fc7143" fill="#fc7143" fill-opacity="0.2" fill-rule="evenodd"/><path class="svg-region-LPl" d="M 804.256 488.975 C 802.472 489.398, 800.447 490.193, 799.756 490.740 C 799.065 491.288, 796.025 492.532, 793 493.505 C 787.353 495.323, 779.661 499.176, 777 501.520 C 774.521 503.705, 765.354 508, 763.172 508 C 761.936 508, 759.652 509.869, 757.368 512.750 C 755.297 515.362, 753.031 517.989, 752.332 518.588 C 750.872 519.838, 744.973 532.608, 745.054 534.343 C 745.172 536.864, 752.753 546.585, 757 549.661 C 768.667 558.110, 771.242 560.412, 777.717 568.179 C 781.532 572.755, 786.359 579.875, 788.442 584 C 793.460 593.935, 794 594.365, 794 588.423 C 794 582.812, 795.696 579.726, 800.003 577.498 C 802.761 576.072, 802.824 575.889, 801.449 573.254 C 799.536 569.587, 799.598 563.578, 801.566 561.945 C 804.402 559.591, 806 555.181, 806 549.703 C 806 542.584, 807.981 538.885, 816.094 530.852 C 821.318 525.679, 823.717 522.264, 826.904 515.463 C 829.157 510.656, 831 506.239, 831 505.647 C 831 505.055, 830.112 503.655, 829.027 502.535 C 827.941 501.416, 825.743 498.925, 824.141 497 C 822.241 494.715, 819.642 493.032, 816.656 492.152 C 814.140 491.410, 811.558 490.173, 810.918 489.402 C 809.647 487.869, 809.069 487.832, 804.256 488.975" stroke="#d2454f" fill="#d2454f" fill-opacity="0.2" fill-rule="evenodd"/><path class="svg-region-LPr" d="M 1023.216 482.431 C 1021.410 483.086, 1018.935 485.028, 1017.716 486.746 C 1016.327 488.703, 1014.314 490.092, 1012.323 490.466 C 1010.575 490.795, 1009 491.387, 1008.823 491.782 C 1008.645 492.177, 1006.621 493.776, 1004.324 495.335 C 995.225 501.511, 994.666 511.307, 1002.629 525.013 C 1006.142 531.059, 1007.932 533.175, 1009.895 533.605 C 1015.763 534.889, 1017.487 535.757, 1018.957 538.170 C 1019.806 539.563, 1021.356 541.919, 1022.402 543.407 C 1024.145 545.886, 1024.228 547.075, 1023.400 557.683 C 1022.685 566.854, 1022.765 569.356, 1023.786 569.748 C 1026.230 570.686, 1027.771 575.501, 1027.708 582 C 1027.673 585.595, 1028.233 589.593, 1028.962 590.944 L 1030.278 593.389 1032.631 590.444 C 1033.926 588.825, 1037.025 583.311, 1039.518 578.191 C 1043.650 569.707, 1048.700 563, 1050.958 563 C 1051.447 563, 1053.242 561.825, 1054.948 560.390 C 1056.914 558.736, 1058.784 557.972, 1060.053 558.304 C 1063.091 559.098, 1078 548.442, 1078 545.475 C 1078 544.819, 1079.303 541.840, 1080.896 538.855 C 1086.050 529.197, 1086.448 526.566, 1084.127 517.506 C 1083.003 513.118, 1081.615 509.372, 1081.042 509.181 C 1080.469 508.990, 1080 508.333, 1080 507.721 C 1080 507.110, 1078.791 505.347, 1077.313 503.805 C 1075.124 501.519, 1073.765 501, 1069.978 501 C 1066.168 501, 1063.853 500.103, 1057.133 496.021 C 1052.624 493.283, 1047.262 489.748, 1045.217 488.165 C 1041.896 485.595, 1029.821 480.812, 1027.430 481.119 C 1026.918 481.185, 1025.022 481.775, 1023.216 482.431" stroke="#d2454f" fill="#d2454f" fill-opacity="0.2" fill-rule="evenodd"/><path class="svg-region-Ol" d="M 569 247.682 C 562.426 248.021, 553.461 249.916, 550 251.700 C 548.625 252.408, 546.812 252.990, 545.971 252.994 C 545.130 252.997, 543.793 253.900, 543 255 C 542.207 256.100, 540.828 257, 539.934 257 C 539.041 257, 537.495 257.900, 536.500 259 C 535.505 260.100, 534.163 261, 533.519 261 C 532.875 261, 531.258 262.177, 529.924 263.615 C 528.591 265.053, 523.900 269.067, 519.500 272.535 C 515.100 276.003, 510.769 279.664, 509.875 280.670 C 507.057 283.843, 502.214 288, 501.335 288 C 500.871 288, 498.918 290.011, 496.995 292.468 C 495.073 294.925, 492.760 297.190, 491.856 297.502 C 490.951 297.813, 489.151 299.624, 487.856 301.527 C 486.560 303.430, 485.046 304.989, 484.491 304.993 C 483.935 304.997, 482.892 305.944, 482.171 307.097 C 481.451 308.251, 480.630 308.963, 480.347 308.681 C 480.065 308.398, 479.048 308.917, 478.088 309.833 C 472.007 315.641, 468.409 317.234, 458.500 318.507 C 455.750 318.860, 452.825 319.406, 452 319.721 C 451.175 320.035, 448.250 320.487, 445.500 320.725 C 442.750 320.963, 440.072 321.572, 439.550 322.079 C 439.027 322.586, 436.657 323, 434.282 323 C 428.145 323, 415.294 326.653, 410 329.903 C 407.525 331.422, 404.262 332.974, 402.750 333.351 C 401.238 333.729, 400 334.480, 400 335.019 C 400 335.559, 399.508 336, 398.907 336 C 396.426 336, 377.715 351.242, 366.820 362.136 C 356.156 372.801, 352.808 376.862, 343.341 390.610 C 341.604 393.134, 338.989 396.630, 337.529 398.380 C 333.735 402.931, 322.152 425.287, 315.707 440.500 C 311.940 449.391, 303.340 475.738, 299.550 490 C 295.425 505.522, 293.740 513.966, 290.513 535.274 C 287.578 554.662, 286.218 588.847, 287.799 603.500 C 288.676 611.635, 291.833 625.350, 294.014 630.500 C 294.480 631.600, 295.401 634.300, 296.061 636.500 C 296.721 638.700, 297.592 640.950, 297.998 641.500 C 298.403 642.050, 299.727 645.410, 300.941 648.966 C 302.154 652.522, 303.956 657.247, 304.945 659.466 C 305.934 661.685, 307.732 666.200, 308.940 669.500 C 314.015 683.365, 327.767 704, 337 711.605 C 338.925 713.190, 340.950 714.999, 341.500 715.624 C 343.290 717.659, 356.748 727, 357.890 727 C 358.500 727, 359 727.386, 359 727.858 C 359 728.330, 361.138 729.841, 363.750 731.217 C 366.363 732.592, 372.775 735.999, 378 738.787 C 383.225 741.575, 389.975 744.823, 393 746.006 C 396.025 747.188, 399.850 748.764, 401.500 749.508 C 403.150 750.251, 410.575 753.199, 418 756.058 C 425.425 758.918, 432.850 761.840, 434.500 762.552 C 436.150 763.263, 438.850 764.175, 440.500 764.577 C 442.150 764.979, 443.725 765.589, 444 765.932 C 445.207 767.437, 458.125 771.800, 472.299 775.490 C 475.488 776.321, 481.563 777.009, 485.799 777.020 C 490.034 777.031, 496.397 777.459, 499.937 777.971 C 505.890 778.831, 527.385 777.116, 529.866 775.583 C 530.316 775.305, 533.118 774.646, 536.092 774.119 C 547.333 772.127, 569.492 764.787, 587.241 757.177 C 592.598 754.880, 597.220 753, 597.512 753 C 597.803 753, 601.070 751.593, 604.771 749.874 C 614.480 745.364, 614.326 745.419, 628 741.589 C 656.920 733.491, 681.757 722.183, 697 710.174 C 702.965 705.476, 716.944 690.832, 716.975 689.250 C 716.989 688.563, 717.436 688, 717.970 688 C 718.503 688, 720.350 685.075, 722.074 681.500 C 723.798 677.925, 725.612 675, 726.105 675 C 726.597 675, 727 674.326, 727 673.502 C 727 672.679, 728.621 669.748, 730.602 666.990 C 732.621 664.180, 733.954 661.322, 733.634 660.488 C 733.320 659.670, 733.454 659, 733.932 659 C 734.410 659, 735.354 656.638, 736.031 653.750 C 736.708 650.862, 737.610 648.050, 738.036 647.500 C 738.930 646.347, 741.204 638.185, 743.053 629.500 C 743.755 626.200, 744.727 622.703, 745.211 621.729 C 745.696 620.755, 745.756 619.414, 745.344 618.748 C 744.686 617.683, 744.271 607.474, 743.809 581 C 743.627 570.530, 744.061 561.260, 744.664 562.756 C 744.943 563.447, 745.553 563.776, 746.020 563.488 C 747.004 562.879, 746.305 556.748, 744.795 552.749 C 744.100 550.909, 744.088 549.585, 744.758 548.749 C 746.453 546.635, 741.609 522.914, 738.795 519.550 C 738.358 519.028, 738 517.866, 738 516.969 C 738 516.072, 736.801 514.699, 735.335 513.919 C 732.933 512.640, 729.970 508.850, 723.868 499.250 C 722.568 497.205, 720.992 496, 719.617 496 C 717.424 496, 706.810 492.695, 704 491.137 C 703.175 490.680, 700.025 489.746, 697 489.062 C 693.975 488.378, 689.830 487.343, 687.789 486.762 C 681.792 485.055, 670.796 486.546, 664.717 489.890 C 661.848 491.468, 656.575 493.296, 653 493.951 C 646.731 495.101, 631.403 502.698, 623.500 508.573 C 619.667 511.423, 613.435 514, 610.378 514 C 609.070 514, 608 514.450, 608 515 C 608 515.550, 606.902 516, 605.559 516 C 604.216 516, 602.840 516.450, 602.500 517 C 602.160 517.550, 601.059 518, 600.053 518 C 597.578 518, 588.665 524.209, 582.229 530.416 C 575.311 537.090, 569.146 539.971, 561.750 539.987 C 557.300 539.997, 556 539.661, 556 538.500 C 556 537.675, 555.550 537, 555 537 C 554.450 537, 554 536.316, 554 535.480 C 554 533.072, 549.625 526.832, 545.126 522.823 C 540.114 518.357, 539.557 514.242, 543.500 510.813 C 546.521 508.186, 546.666 506.433, 544 504.768 C 542.521 503.844, 542 502.436, 542 499.359 L 542 495.199 547.095 493.977 L 552.190 492.755 551.536 488.389 C 550.977 484.663, 551.256 483.531, 553.440 480.667 C 555.468 478.009, 556 476.170, 556 471.826 C 556 467.001, 555.520 465.690, 552.007 460.921 C 545.967 452.721, 544.768 449.534, 545.299 443.089 C 546.068 433.763, 549.004 409.618, 549.602 407.706 C 549.910 406.720, 550.539 400.420, 551 393.706 C 551.901 380.566, 553.665 368.559, 555.105 365.764 C 555.597 364.809, 556 363.222, 556 362.237 C 556 361.253, 558.025 356.446, 560.500 351.555 C 562.975 346.664, 565 341.887, 565 340.938 C 565 339.990, 565.675 338.955, 566.500 338.638 C 567.325 338.322, 568 337.551, 568 336.926 C 568 335.351, 572.721 329.862, 575.883 327.760 C 577.322 326.803, 581.650 325.061, 585.500 323.889 C 589.350 322.716, 592.928 321.362, 593.450 320.879 C 593.973 320.395, 597.469 320, 601.219 320 L 608.038 320 607.367 317.250 C 606.997 315.738, 605.414 313.422, 603.848 312.105 C 602.281 310.788, 601 309.293, 601 308.784 C 601 308.274, 600.438 307.230, 599.750 306.463 C 597.181 303.599, 596 302.071, 596 301.612 C 596 301.352, 594.558 298.071, 592.795 294.320 C 591.032 290.569, 589.699 287.110, 589.833 286.634 C 589.967 286.158, 589.374 283.908, 588.514 281.634 C 587.489 278.925, 586.873 273.486, 586.725 265.853 C 586.531 255.803, 586.226 253.901, 584.500 251.988 C 581.266 248.402, 577.162 247.262, 569 247.682" stroke="#aa444d" fill="#aa444d" fill-opacity="0.2" fill-rule="evenodd"/><path class="svg-region-Or" d="M 1299.024 253.603 C 1296.013 254.412, 1291.513 256.293, 1289.024 257.783 C 1286.536 259.272, 1283.320 261.010, 1281.878 261.643 C 1278.992 262.912, 1275.791 266.853, 1276.593 268.150 C 1276.873 268.603, 1276.162 269.983, 1275.012 271.217 C 1273.863 272.451, 1272.695 274.594, 1272.416 275.980 C 1272.137 277.366, 1271.380 280.300, 1270.734 282.500 C 1270.088 284.700, 1269.637 287.175, 1269.732 288 C 1269.827 288.825, 1270.145 294.675, 1270.439 301 C 1271.616 326.350, 1272.061 329.813, 1274.586 333.261 C 1275.890 335.042, 1277.501 337.625, 1278.165 339 C 1278.830 340.375, 1280.698 342.932, 1282.317 344.681 C 1284.750 347.312, 1285.126 348.350, 1284.486 350.681 C 1283.183 355.428, 1282.756 376.156, 1283.937 377.337 C 1284.522 377.922, 1285 379.939, 1285 381.820 C 1285 384.549, 1285.877 386.080, 1289.343 389.401 L 1293.686 393.562 1294.244 405.688 L 1294.803 417.815 1291.987 420.512 C 1290.182 422.241, 1286.537 423.915, 1281.836 425.173 C 1268.014 428.873, 1262.450 432.701, 1267.869 434.782 C 1268.897 435.177, 1270.947 436.945, 1272.425 438.711 C 1274.569 441.273, 1274.905 442.310, 1274.085 443.841 C 1273.520 444.896, 1271.963 449.115, 1270.624 453.216 C 1269.286 457.316, 1266.595 463.840, 1264.645 467.713 L 1261.099 474.754 1250.299 475.454 C 1242.678 475.948, 1238.239 476.751, 1235.214 478.183 C 1231.781 479.809, 1230.389 480.005, 1228.214 479.165 C 1226.721 478.589, 1222.892 477.565, 1219.704 476.890 C 1216.517 476.214, 1213.678 475.288, 1213.395 474.831 C 1213.113 474.374, 1208.669 474, 1203.520 474 C 1197.481 474, 1191.024 473.255, 1185.329 471.901 C 1177.533 470.047, 1174.277 469.852, 1157.500 470.230 C 1142.891 470.559, 1137.344 471.060, 1133.500 472.398 C 1125.809 475.073, 1120.211 477.809, 1119.314 479.329 C 1118.866 480.088, 1117.560 481.201, 1116.411 481.803 C 1114.271 482.925, 1109.471 486.780, 1105.328 490.705 C 1104.047 491.917, 1103 494.017, 1103 495.372 C 1103 496.726, 1102.133 499.858, 1101.072 502.331 C 1099.263 506.553, 1099.238 507.185, 1100.676 512.664 C 1101.653 516.391, 1101.982 520.307, 1101.587 523.500 C 1099.503 540.307, 1099.111 556.428, 1100.555 566 C 1103.393 584.821, 1104.074 589.713, 1104.524 594.500 C 1104.782 597.250, 1105.379 600.400, 1105.849 601.500 C 1106.320 602.600, 1107.728 607.759, 1108.978 612.964 C 1110.229 618.170, 1113.080 626.045, 1115.315 630.464 C 1120.854 641.418, 1131.049 659.175, 1132.825 660.960 C 1133.624 661.764, 1134.896 663.901, 1135.652 665.710 C 1136.408 667.520, 1137.475 669, 1138.023 669 C 1138.570 669, 1140.317 670.237, 1141.905 671.750 C 1149.103 678.608, 1151.918 680.634, 1159.012 684.065 C 1163.183 686.082, 1169.949 688.734, 1174.047 689.958 C 1178.146 691.182, 1182.496 692.576, 1183.714 693.054 C 1184.932 693.533, 1191.457 694.627, 1198.214 695.486 C 1204.971 696.345, 1213.495 697.937, 1217.155 699.024 C 1220.816 700.111, 1224.547 701, 1225.446 701 C 1227.057 701, 1234.719 703.257, 1246.500 707.201 C 1249.800 708.306, 1258.125 711.603, 1265 714.526 C 1271.875 717.450, 1282.900 721.974, 1289.500 724.580 C 1301.545 729.336, 1311.052 734.069, 1318.500 739.018 C 1320.700 740.479, 1325.875 743.144, 1330 744.939 C 1334.125 746.734, 1338.305 748.622, 1339.289 749.134 C 1344.775 751.991, 1381.898 752.706, 1382.833 749.973 C 1383.017 749.438, 1384.245 749, 1385.562 749 C 1388.249 749, 1399.654 745.644, 1405 743.281 C 1406.925 742.430, 1413.675 739.589, 1420 736.968 C 1437.306 729.795, 1448.215 724.861, 1451 722.947 C 1452.375 722.002, 1459.472 717.690, 1466.772 713.364 C 1488.127 700.710, 1495.966 695.439, 1506.122 686.905 C 1510.314 683.382, 1515.239 679.375, 1517.065 678 C 1521.401 674.736, 1534.539 661.471, 1537.864 657 C 1539.296 655.075, 1542.121 651.475, 1544.144 649 C 1550.844 640.799, 1561.312 621.234, 1565.009 610 C 1570.676 592.780, 1572.436 579.916, 1572.395 556 C 1572.363 536.943, 1569.974 510.891, 1568.042 508.541 C 1567.572 507.968, 1566.896 505.250, 1566.541 502.500 C 1564.822 489.207, 1563.446 482.119, 1559.358 465.500 C 1556.923 455.600, 1554.091 444.575, 1553.065 441 C 1552.039 437.425, 1550.986 433.375, 1550.724 432 C 1549.471 425.418, 1538.456 389.277, 1535.333 381.500 C 1534.449 379.300, 1532.888 375.592, 1531.863 373.261 C 1530.838 370.929, 1530 368.806, 1530 368.543 C 1530 367.222, 1518.827 345.799, 1514.155 338.160 C 1509.693 330.865, 1492.648 311.752, 1485.373 305.887 C 1473.208 296.078, 1461.435 289.910, 1450.370 287.546 C 1446.042 286.622, 1438.341 284.770, 1433.257 283.433 C 1428.173 282.095, 1422.673 281, 1421.034 281 C 1419.396 281, 1413.430 279.453, 1407.777 277.561 C 1402.125 275.670, 1390.612 272.734, 1382.192 271.037 C 1369.132 268.405, 1365.194 267.139, 1355.368 262.415 C 1346.659 258.229, 1341.735 256.526, 1335.175 255.433 C 1330.404 254.639, 1324.700 253.552, 1322.500 253.018 C 1316.722 251.616, 1305.364 251.899, 1299.024 253.603" stroke="#aa444d" fill="#aa444d" fill-opacity="0.2" fill-rule="evenodd"/><path class="svg-region-Pl" d="M 593.450 320.814 C 592.928 321.261, 589.800 322.410, 586.500 323.367 C 583.200 324.325, 579.375 325.638, 578 326.286 C 574.966 327.716, 568.034 335.002, 568.014 336.781 C 568.006 337.486, 567.325 338.322, 566.500 338.638 C 565.675 338.955, 565 339.885, 565 340.705 C 565 341.525, 562.975 346.359, 560.500 351.447 C 558.025 356.535, 556 361.447, 556 362.363 C 556 363.278, 555.597 364.809, 555.105 365.764 C 553.665 368.559, 551.901 380.566, 551 393.706 C 550.539 400.420, 549.910 406.720, 549.602 407.706 C 549.293 408.693, 548.311 415.800, 547.419 423.500 C 546.527 431.200, 545.571 439.430, 545.295 441.790 C 544.528 448.338, 545.628 452.056, 550.100 458.033 C 555.855 465.725, 559.485 467.438, 570 467.424 C 576.605 467.416, 580.061 466.843, 585.500 464.857 C 599.271 459.828, 604.495 455.801, 612.376 444.138 C 616.175 438.517, 616.316 438.119, 616.041 433.845 C 615.897 431.618, 616.765 430.655, 621.435 427.862 C 624.496 426.031, 627 424.003, 627 423.355 C 627 422.708, 628.251 421.125, 629.780 419.838 C 632.720 417.365, 638.144 409.863, 639.425 406.500 C 639.844 405.400, 640.825 402.093, 641.607 399.150 C 642.388 396.208, 643.693 392.849, 644.507 391.686 C 645.322 390.524, 646.275 387.408, 646.626 384.764 C 646.977 382.119, 647.654 379.714, 648.132 379.419 C 648.609 379.123, 649 374.907, 649 370.048 C 649 363.118, 648.677 361.090, 647.500 360.638 C 646.675 360.322, 646 359.235, 646 358.223 C 646 357.210, 645.339 355.509, 644.532 354.441 C 643.724 353.374, 643.037 351.825, 643.005 351 C 642.929 349.086, 629.803 337.961, 624.318 335.162 C 622.023 333.991, 619.888 332.222, 619.573 331.230 C 619.258 330.239, 616.997 327.306, 614.548 324.714 L 610.096 320 602.248 320 C 597.932 320, 593.972 320.366, 593.450 320.814" stroke="#f9d3d3" fill="#f9d3d3" fill-opacity="0.2" fill-rule="evenodd"/><path class="svg-region-Pr" d="M 1226.982 315.376 C 1222.847 316.544, 1217.897 318.686, 1215.982 320.136 C 1214.067 321.585, 1210.560 323.746, 1208.189 324.937 C 1200.851 328.623, 1187.373 337.924, 1189.290 337.978 C 1189.724 337.990, 1191.844 337.100, 1194 336 C 1198.415 333.748, 1203.008 333.408, 1204.800 335.200 C 1205.460 335.860, 1206 338.426, 1206 340.902 C 1206 344.460, 1205.406 346.044, 1203.170 348.452 C 1201.491 350.260, 1199.295 354.755, 1197.772 359.500 C 1196.359 363.900, 1194.054 370.094, 1192.650 373.265 C 1190.518 378.079, 1189.593 379.131, 1187.048 379.640 C 1184.796 380.091, 1184.001 380.805, 1184.004 382.375 C 1184.012 387.274, 1192.165 396.319, 1199.837 399.941 C 1202.793 401.337, 1205.357 403.517, 1206.841 405.897 C 1208.128 407.961, 1211.391 411.097, 1214.091 412.865 C 1216.791 414.632, 1219 416.436, 1219 416.873 C 1219 418.348, 1226.177 424.856, 1229.592 426.476 C 1231.457 427.361, 1236.636 428.502, 1241.101 429.012 C 1245.566 429.521, 1249.733 430.346, 1250.360 430.846 C 1251.355 431.639, 1263.454 435, 1265.314 435 C 1265.691 435, 1266 434.112, 1266 433.026 C 1266 430.716, 1269.044 428.997, 1277.500 426.529 C 1288.714 423.257, 1289.499 422.939, 1292.161 420.593 L 1294.823 418.248 1294.289 405.874 L 1293.755 393.500 1289.377 389.409 C 1285.840 386.103, 1285 384.655, 1285 381.859 C 1285 379.957, 1284.522 377.922, 1283.937 377.337 C 1282.799 376.199, 1283.196 355.946, 1284.465 350.446 C 1285.051 347.904, 1284.610 346.689, 1281.835 343.204 C 1275.225 334.902, 1274.191 333.384, 1272.071 328.874 C 1270.831 326.237, 1268.769 323.721, 1267.209 322.943 C 1265.719 322.199, 1263.600 320.824, 1262.500 319.886 C 1259.168 317.047, 1245.496 312.987, 1239.729 313.126 C 1236.853 313.195, 1231.117 314.207, 1226.982 315.376" stroke="#f9d3d3" fill="#f9d3d3" fill-opacity="0.2" fill-rule="evenodd"/><path class="svg-region-DLr" d="M 1191 337.638 C 1178.177 344.771, 1177.192 346.427, 1177.076 361.079 C 1177.004 370.197, 1177.150 370.884, 1180.130 375.382 C 1182.884 379.540, 1183.634 380.071, 1186.380 379.804 C 1188.897 379.559, 1189.887 378.721, 1191.500 375.470 C 1195.234 367.946, 1198.533 359.239, 1199.486 354.391 C 1199.822 352.680, 1201.425 350.009, 1203.049 348.453 C 1205.482 346.122, 1206 344.816, 1206 341.013 C 1206 338.476, 1205.460 335.860, 1204.800 335.200 C 1202.659 333.059, 1197.639 333.945, 1191 337.638" stroke="#b7d6d3" fill="#b7d6d3" fill-opacity="0.2" fill-rule="evenodd"/><path class="svg-region-OABl" d="M 643 352 C 643 353.100, 643.414 354, 643.921 354 C 644.427 354, 645.131 355.319, 645.485 356.931 C 645.839 358.543, 646.775 360.398, 647.564 361.053 C 649.173 362.388, 649.677 378.464, 648.140 379.414 C 647.666 379.706, 647.007 381.929, 646.675 384.353 C 646.343 386.777, 644.930 390.906, 643.536 393.529 C 642.141 396.152, 641 399.361, 641 400.660 C 641 406.991, 628.558 423.624, 620.010 428.722 L 615.799 431.233 616.451 436.867 C 616.992 441.550, 617.681 443.048, 620.536 445.750 C 623.791 448.830, 624.369 449, 631.561 449 C 638.574 449, 639.317 448.797, 641.326 446.333 C 642.522 444.866, 645.188 441.888, 647.250 439.715 C 649.313 437.542, 651 435.129, 651 434.351 C 651 433.573, 651.651 432.687, 652.447 432.382 C 653.247 432.075, 654.417 429.294, 655.063 426.163 C 656.072 421.280, 657.024 419.714, 661.983 414.790 C 665.146 411.650, 668.525 407.412, 669.493 405.374 C 671.100 401.988, 673.075 399.785, 681.711 391.750 C 683.337 390.238, 685.215 389, 685.884 389 C 686.554 389, 687.768 387.405, 688.583 385.456 C 689.397 383.508, 690.836 381.642, 691.782 381.312 C 694.632 380.314, 696.954 376.697, 696.978 373.219 C 696.990 371.412, 696.438 369.795, 695.750 369.621 C 695.063 369.448, 691.207 368.256, 687.183 366.974 C 681.368 365.121, 679.567 364.063, 678.407 361.821 C 677.279 359.639, 676.241 359, 673.821 359 C 670.616 359, 661.584 355.206, 656.846 351.869 C 655.018 350.583, 652.448 350, 648.596 350 C 643.667 350, 643 350.238, 643 352 M 883.374 401.026 C 882.185 402.215, 866.477 404.946, 857 405.611 C 853.425 405.862, 840.600 406.749, 828.500 407.583 C 816.400 408.416, 804.475 409.586, 802 410.181 C 795.666 411.706, 780.132 412.354, 778.687 411.155 C 777.305 410.008, 759.622 407.601, 753 407.659 C 745.928 407.720, 733.857 410, 732.285 411.572 C 731.500 412.357, 730.252 413, 729.513 413 C 728.774 413, 726.894 414.394, 725.335 416.097 C 723.776 417.801, 720.555 421.266, 718.178 423.798 C 713.188 429.112, 712 431.062, 712 433.938 C 712 435.076, 711.100 437.686, 710 439.739 C 708.900 441.791, 708 444.649, 708 446.090 C 708 447.737, 706.794 449.869, 704.750 451.834 C 699.726 456.665, 695.647 460.345, 692.906 462.517 C 688.639 465.900, 681.227 475.688, 680.531 478.861 C 679.665 482.804, 681.261 485.635, 684.722 486.294 C 693.022 487.875, 701.859 490.147, 704.500 491.380 C 709.087 493.521, 717.247 496.010, 719.658 496.005 C 721.659 496, 721.812 495.511, 721.769 489.250 C 721.709 480.729, 724.480 474.550, 731.768 466.953 C 734.644 463.954, 736.998 461.163, 736.999 460.750 C 737 460.337, 737.637 460, 738.417 460 C 739.196 460, 739.983 459.663, 740.167 459.250 C 740.350 458.837, 744.054 456.700, 748.398 454.500 C 752.742 452.300, 757.612 449.277, 759.220 447.782 C 760.828 446.287, 763.686 444.774, 765.572 444.421 C 767.457 444.067, 769 443.398, 769 442.934 C 769 442.470, 770.688 441.813, 772.750 441.473 C 774.813 441.134, 777.400 440.457, 778.500 439.970 C 779.600 439.482, 782.467 438.583, 784.871 437.971 C 787.275 437.359, 793.356 434.699, 798.386 432.060 C 803.415 429.421, 808.985 426.942, 810.765 426.552 C 812.544 426.161, 814 425.471, 814 425.018 C 814 423.970, 819.592 422, 822.566 422 C 823.813 422, 825.020 421.438, 825.249 420.750 C 825.546 419.854, 830.169 419.334, 841.582 418.913 C 856.962 418.346, 862 417.624, 862 415.990 C 862 414.367, 865.901 413.660, 878 413.089 C 889.774 412.534, 890.482 412.384, 890.193 410.500 C 890.025 409.400, 889.012 407.753, 887.943 406.840 C 885.743 404.960, 885.440 403.353, 887.177 402.774 C 888.624 402.292, 887.355 400, 885.641 400 C 884.958 400, 883.938 400.462, 883.374 401.026" stroke="#81244d" fill="#81244d" fill-opacity="0.2" fill-rule="evenodd"/><path class="svg-region-OABr" d="M 963.500 400.999 C 965.150 401.548, 969.650 402.276, 973.500 402.617 C 977.350 402.957, 981.410 403.801, 982.522 404.492 C 983.634 405.182, 986.546 406.085, 988.993 406.499 C 991.440 406.912, 997.056 408.494, 1001.471 410.014 C 1005.887 411.535, 1013.550 414.008, 1018.500 415.512 C 1023.450 417.015, 1028.850 418.836, 1030.500 419.559 C 1032.150 420.281, 1035.075 421.305, 1037 421.834 C 1038.925 422.364, 1045 424.447, 1050.500 426.463 C 1056 428.480, 1062.034 430.592, 1063.909 431.156 C 1065.783 431.720, 1068.933 433.232, 1070.909 434.516 C 1072.884 435.800, 1076.300 437.335, 1078.500 437.927 C 1080.700 438.518, 1084.151 440.014, 1086.169 441.251 C 1093.030 445.457, 1101 451.192, 1101 451.924 C 1101 452.325, 1104.150 455.834, 1108 459.723 C 1114.049 465.832, 1115 467.279, 1115 470.376 C 1115 476.691, 1112.200 481.789, 1106.364 486.101 C 1101.004 490.060, 1101 490.067, 1101 495.591 C 1101 501.923, 1102.456 502.092, 1103.292 495.857 C 1103.718 492.686, 1104.646 491.045, 1107.099 489.126 C 1108.883 487.729, 1111.441 485.569, 1112.783 484.325 C 1114.125 483.082, 1116.031 481.807, 1117.019 481.494 C 1118.007 481.180, 1119.063 480.277, 1119.367 479.486 C 1119.962 477.937, 1125.498 475.168, 1133.500 472.420 C 1141.301 469.740, 1172.945 469.213, 1183 471.596 C 1187.125 472.573, 1195.442 473.544, 1201.482 473.753 C 1207.522 473.962, 1212.697 474.501, 1212.982 474.950 C 1213.532 475.818, 1226.788 479.039, 1231 479.328 C 1233.020 479.467, 1233.559 478.986, 1233.809 476.826 C 1234.500 470.848, 1228.409 465.474, 1210.098 455.907 C 1206.315 453.931, 1201.259 450.734, 1198.860 448.802 C 1193.477 444.465, 1183.814 440.017, 1179.629 439.950 C 1172.583 439.838, 1152.951 436.410, 1151.279 435 C 1147.950 432.193, 1143.916 431, 1137.703 430.985 C 1129.970 430.966, 1124.199 429.284, 1120.039 425.838 C 1118.272 424.373, 1111.706 418.162, 1105.447 412.034 C 1092.690 399.544, 1092.978 399.622, 1086.847 406.987 L 1083.500 411.008 1078 408.044 C 1072.547 405.105, 1072.359 405.079, 1055.934 405.040 C 1040.042 405.002, 1028.706 403.808, 1026.427 401.932 C 1025.837 401.447, 1010.762 400.814, 992.927 400.525 C 970.674 400.165, 961.441 400.314, 963.500 400.999" stroke="#81244d" fill="#81244d" fill-opacity="0.2" fill-rule="evenodd"/><path class="svg-region-BPCl" d="M 802.500 576.521 C 796.382 578.795, 794 582.102, 794 588.321 C 794 594.241, 795.625 597.785, 802.749 607.405 C 812.494 620.563, 826.594 637, 828.137 637 C 828.612 637, 829 636.167, 829 635.149 C 829 634.131, 830.051 631.318, 831.335 628.899 C 834.007 623.865, 835.451 613.453, 835.481 599 C 835.506 586.647, 833.754 583.481, 824.322 578.838 C 816.645 575.059, 808.702 574.215, 802.500 576.521" stroke="#83385f" fill="#83385f" fill-opacity="0.2" fill-rule="evenodd"/><path class="svg-region-BPCr" d="M 1011.973 570.690 C 1010.613 571.619, 1009.138 572.973, 1008.695 573.699 C 1008.252 574.425, 1006.337 575.668, 1004.439 576.461 C 999.107 578.689, 995.858 582.845, 996.410 586.732 C 996.662 588.509, 996.448 590.223, 995.934 590.541 C 994.760 591.267, 994.845 603.715, 996.074 611 C 996.585 614.025, 997.629 621.079, 998.396 626.675 C 999.945 637.987, 1000.319 639, 1002.944 639 C 1004.969 639, 1007.093 636.182, 1008.781 631.253 C 1009.393 629.467, 1011.006 626.542, 1012.364 624.753 C 1013.723 622.964, 1015.739 619.109, 1016.845 616.186 C 1017.952 613.263, 1020.689 608.445, 1022.928 605.479 C 1025.168 602.513, 1027 599.601, 1027 599.008 C 1027 598.415, 1027.707 596.851, 1028.571 595.532 C 1029.867 593.554, 1029.925 592.728, 1028.902 590.817 C 1028.220 589.543, 1027.705 585.631, 1027.758 582.123 C 1027.857 575.538, 1026.753 571.099, 1024.687 569.786 C 1022.492 568.390, 1014.507 568.957, 1011.973 570.690" stroke="#83385f" fill="#83385f" fill-opacity="0.2" fill-rule="evenodd"/><path class="svg-region-OVl" d="M 778.173 327.508 C 776.534 328.887, 773.012 330.432, 770.347 330.940 C 767.681 331.449, 764.503 332.238, 763.285 332.692 C 760.811 333.615, 750.126 341.023, 740.845 348.250 C 737.432 350.908, 733.686 353, 732.341 353 C 728.280 353, 717.643 348.977, 714.945 346.421 C 711.743 343.387, 710.916 343.396, 708 346.500 C 706.708 347.875, 704.914 349, 704.013 349 C 703.112 349, 701.052 350.401, 699.437 352.113 C 697.822 353.826, 694.813 356.306, 692.750 357.626 C 690.688 358.945, 689 360.469, 689 361.013 C 689 361.556, 688.025 362.975, 686.834 364.166 L 684.667 366.333 687.084 367.299 C 688.413 367.831, 691.075 368.548, 693 368.895 C 695.939 369.423, 696.553 369.989, 696.832 372.424 C 697.251 376.081, 695.214 379.968, 692.299 381.076 C 691.066 381.545, 689.392 383.520, 688.579 385.465 C 687.767 387.409, 686.430 389, 685.608 389 C 684.786 389, 683.525 389.808, 682.807 390.796 C 682.088 391.783, 679.813 393.620, 677.750 394.877 C 675.688 396.134, 674 397.753, 674 398.475 C 674 399.196, 673.346 400.037, 672.548 400.343 C 671.749 400.650, 670.201 402.864, 669.107 405.264 C 668.014 407.664, 664.666 412.012, 661.668 414.927 C 656.915 419.546, 656.070 420.968, 655.076 426.018 C 654.423 429.339, 653.310 432.051, 652.468 432.374 C 651.661 432.684, 651 433.573, 651 434.351 C 651 435.129, 649.313 437.542, 647.250 439.715 C 645.188 441.888, 642.522 444.866, 641.326 446.333 C 639.319 448.794, 638.570 449, 631.610 449 C 624.630 449, 623.811 448.773, 620.596 445.951 C 618.672 444.261, 616.984 441.743, 616.812 440.305 C 616.522 437.891, 616.266 438.072, 613.166 442.874 C 608.837 449.580, 600.432 458.215, 596.014 460.496 C 583.034 467.197, 568.881 469.466, 560.332 466.218 L 555.253 464.288 555.726 470.394 C 556.144 475.786, 555.890 476.951, 553.555 480.360 C 551.345 483.586, 551.014 484.908, 551.537 488.400 L 552.164 492.580 547.082 493.882 L 542 495.185 542 499.352 C 542 502.436, 542.520 503.844, 544 504.768 C 546.666 506.433, 546.521 508.186, 543.500 510.813 C 539.557 514.242, 540.114 518.357, 545.126 522.823 C 549.625 526.832, 554 533.072, 554 535.480 C 554 536.316, 554.450 537, 555 537 C 555.550 537, 556 537.675, 556 538.500 C 556 539.661, 557.301 539.998, 561.750 539.990 C 569.102 539.978, 575.801 536.868, 582.500 530.359 C 588.277 524.745, 593.237 521.026, 597.500 519.113 C 599.150 518.373, 601.281 517.369, 602.236 516.883 C 603.191 516.397, 604.879 516, 605.986 516 C 607.094 516, 608 515.550, 608 515 C 608 514.450, 609.070 514, 610.378 514 C 613.413 514, 619.640 511.436, 623.500 508.596 C 626.536 506.363, 631.009 503.725, 641 498.274 C 644.025 496.623, 649.650 494.673, 653.500 493.941 C 657.350 493.208, 662.263 491.518, 664.418 490.186 C 666.573 488.853, 671.200 487.272, 674.701 486.673 C 680.905 485.610, 681.052 485.514, 680.477 482.895 C 679.205 477.104, 682.529 472.845, 704.750 451.789 C 706.725 449.917, 708 447.730, 708 446.214 C 708 444.842, 708.855 441.870, 709.900 439.610 C 710.945 437.349, 712.305 433.615, 712.922 431.310 C 713.637 428.641, 714.762 426.893, 716.022 426.493 C 717.110 426.148, 718 425.467, 718 424.979 C 718 423.283, 727.141 414.184, 730.060 412.975 C 731.677 412.305, 733 411.394, 733 410.951 C 733 410.507, 735.587 409.850, 738.750 409.490 C 746.824 408.572, 748 408.123, 748 405.961 C 748 403.229, 752.378 393.891, 754.877 391.292 C 756.045 390.077, 757 388.693, 757 388.216 C 757 387.739, 758.125 386.292, 759.500 385 C 760.875 383.708, 762 382.278, 762 381.822 C 762 381.366, 764.022 378.857, 766.494 376.246 C 768.966 373.636, 770.991 371.163, 770.994 370.750 C 770.997 370.337, 771.563 369.993, 772.250 369.984 C 772.938 369.975, 775.008 368.639, 776.850 367.015 C 778.693 365.390, 781.699 362.867, 783.530 361.407 C 785.362 359.946, 787.410 357.345, 788.082 355.626 C 788.754 353.907, 791.737 349.264, 794.712 345.309 C 799.569 338.853, 800.089 337.682, 799.810 333.842 C 799.550 330.257, 798.950 329.196, 796.102 327.283 C 791.130 323.942, 782.279 324.053, 778.173 327.508" stroke="#593939" fill="#593939" fill-opacity="0.2" fill-rule="evenodd"/><path class="svg-region-OVr" d="M 1029.250 332.116 C 1027.227 334.194, 1027.751 335.560, 1032.413 340.358 C 1036.087 344.137, 1036.590 345.095, 1035.413 346.072 C 1032.954 348.113, 1033.838 350.872, 1037.750 353.364 C 1043.262 356.875, 1048.525 362.350, 1050.636 366.769 C 1052.237 370.120, 1053.531 371.099, 1059.997 373.850 C 1064.124 375.605, 1068.026 377.032, 1068.669 377.021 C 1070.101 376.995, 1075.985 380.270, 1075.994 381.097 C 1075.997 381.425, 1076.903 382.735, 1078.006 384.007 C 1079.109 385.279, 1081.472 388.226, 1083.256 390.557 C 1085.040 392.887, 1088.441 396.025, 1090.813 397.529 C 1093.186 399.033, 1095.859 401.442, 1096.753 402.882 C 1097.647 404.322, 1099.981 407.029, 1101.939 408.897 C 1103.898 410.765, 1109.158 415.833, 1113.630 420.158 C 1122.663 428.898, 1127.154 430.970, 1137.101 430.989 C 1143.307 431.001, 1148.538 432.492, 1151.254 435.022 C 1152.919 436.573, 1159.729 437.813, 1178.500 439.980 C 1186.128 440.860, 1193.411 444.286, 1201.346 450.723 C 1202.911 451.993, 1206.736 454.262, 1209.846 455.765 C 1212.956 457.268, 1215.950 458.865, 1216.500 459.315 C 1217.050 459.764, 1219.869 461.465, 1222.764 463.094 C 1228.274 466.195, 1234 472.908, 1234 476.267 C 1234 477.848, 1234.441 478.095, 1236.250 477.530 C 1237.487 477.143, 1243.587 476.303, 1249.804 475.663 L 1261.108 474.500 1264.585 468 C 1266.497 464.425, 1269.177 457.974, 1270.541 453.664 C 1271.906 449.354, 1273.484 444.964, 1274.049 443.908 C 1275.426 441.335, 1270.559 435, 1267.206 435 C 1264.134 435, 1251.795 431.937, 1250.353 430.817 C 1249.722 430.327, 1245.871 429.552, 1241.795 429.095 C 1232.814 428.088, 1226.477 425.435, 1222.487 421.011 C 1218.992 417.138, 1217.169 415.404, 1210.788 409.889 C 1208.197 407.648, 1205.827 405.031, 1205.523 404.071 C 1205.218 403.112, 1202.765 401.295, 1200.071 400.033 C 1192.461 396.469, 1184.013 387.362, 1184.004 382.711 C 1184.002 381.726, 1182.425 378.582, 1180.500 375.724 C 1177.104 370.681, 1177 370.241, 1177 360.930 C 1177 355.652, 1176.723 351.057, 1176.385 350.719 C 1176.047 350.381, 1174.805 350.737, 1173.625 351.510 C 1172.445 352.283, 1168.160 354.284, 1164.102 355.958 C 1157.801 358.556, 1155.469 358.995, 1148.112 358.968 C 1142.365 358.947, 1138.892 358.476, 1137.673 357.552 C 1136.668 356.790, 1132.067 355.852, 1127.449 355.467 C 1122.271 355.036, 1118.612 354.237, 1117.904 353.384 C 1117.272 352.623, 1116.283 352, 1115.706 352 C 1115.129 352, 1113.807 351.230, 1112.768 350.290 C 1111.294 348.956, 1110.705 348.860, 1110.092 349.852 C 1109.472 350.854, 1108.007 350.687, 1103.184 349.062 C 1099.818 347.928, 1096.577 347, 1095.983 347 C 1095.389 347, 1093.238 346.204, 1091.202 345.230 C 1089.166 344.257, 1085.025 342.694, 1082 341.758 C 1066.511 336.961, 1061.831 336, 1053.963 336 C 1047.480 336, 1045.050 335.576, 1042.498 333.999 C 1038.328 331.422, 1030.947 330.373, 1029.250 332.116" stroke="#593939" fill="#593939" fill-opacity="0.2" fill-rule="evenodd"/>
    </svg>