<svg xmlns="http://www.w3.org/2000/svg" width="1921" height="1027" viewBox="0 0 1921 1027" version="1.1">
    <path class="svg-region-V" d="M 819.500 167.211 C 812.350 167.654, 804.475 167.986, 802 167.950 C 797.580 167.884, 789.467 169.610, 787.500 171.034 C 785.839 172.237, 765.695 178.795, 758.631 180.433 C 748.554 182.770, 739.927 185.779, 735.500 188.500 C 733.300 189.852, 730.150 191.606, 728.500 192.397 C 726.850 193.189, 724.150 195.269, 722.500 197.021 C 720.850 198.772, 714.550 204.068, 708.500 208.790 C 702.450 213.511, 694.341 220.552, 690.480 224.437 C 680.979 233.996, 668.470 245.321, 663.007 249.310 C 658.140 252.864, 649.407 263.023, 647.876 266.912 C 646.697 269.908, 647.768 277.625, 649.621 279.478 C 650.379 280.237, 651 282.479, 651 284.462 C 651 287.978, 654.946 297.230, 656.982 298.489 C 657.542 298.835, 658.506 301.125, 659.124 303.577 C 660.092 307.422, 662.474 311.373, 667.132 316.862 C 667.995 317.878, 669.710 318.048, 673.894 317.529 C 684.691 316.190, 700.618 314.952, 714.067 314.406 C 726.058 313.919, 728.348 314.096, 733.785 315.928 C 738.285 317.443, 742.473 318, 749.379 318 C 758.517 318, 759.157 317.847, 769.225 313.250 C 777.047 309.679, 780.598 307.417, 783.533 304.136 L 787.438 299.773 785.219 297.976 C 781.275 294.782, 782.614 290, 787.452 290 C 792.044 290, 794.428 287.095, 793.573 282.540 C 792.958 279.258, 793.090 279, 795.396 279 C 796.763 279, 798.160 279.450, 798.500 280 C 799.531 281.667, 802.807 281.124, 804.833 278.949 C 806.212 277.469, 807.445 277.074, 809.263 277.530 C 810.680 277.886, 812.074 277.689, 812.450 277.081 C 812.817 276.486, 813.879 275.999, 814.809 275.999 C 815.739 275.998, 819.092 274.198, 822.261 271.999 C 825.429 269.799, 828.887 268, 829.945 268 C 833.661 268, 836.727 266.127, 838.820 262.580 C 840.022 260.543, 841.723 259, 842.766 259 C 843.775 259, 845.151 258.449, 845.825 257.775 C 846.740 256.860, 847.501 256.832, 848.831 257.663 C 850.944 258.982, 856.964 257.248, 860.090 254.419 C 861.590 253.061, 862.322 252.922, 863.224 253.824 C 863.871 254.471, 865.399 255, 866.619 255 C 867.839 255, 870.112 255.657, 871.669 256.460 C 873.226 257.264, 875.688 258.160, 877.140 258.452 C 880.241 259.076, 881.113 260.730, 881.911 267.500 C 882.477 272.309, 882.634 272.519, 886 273 C 889.235 273.462, 894.126 276.078, 901.436 281.255 C 904.158 283.184, 904.777 283.243, 909.936 282.068 C 919.233 279.952, 924 279.278, 924 280.079 C 924 280.498, 925.380 281.144, 927.067 281.515 C 931.411 282.469, 934.406 279.683, 933.509 275.523 C 933.150 273.860, 932.622 270.389, 932.336 267.809 C 931.816 263.129, 931.825 263.113, 936.444 260.238 C 938.990 258.653, 942.187 255.717, 943.548 253.714 C 946.571 249.265, 949.251 249.603, 948.797 254.375 C 948.480 257.715, 948.827 257.818, 956.966 256.807 C 958.825 256.575, 959.761 257.176, 960.770 259.250 C 961.507 260.762, 962.797 262, 963.638 262 C 964.479 262, 966.618 263.495, 968.392 265.321 C 971.155 268.167, 972.151 268.581, 975.335 268.209 C 978.567 267.832, 979.487 268.237, 982.394 271.319 C 985.843 274.976, 991.643 277.976, 995.372 278.032 C 996.542 278.049, 998.324 278.688, 999.331 279.452 C 1000.339 280.215, 1003.400 281.376, 1006.135 282.032 C 1010.202 283.008, 1011.687 284.012, 1014.303 287.556 C 1017.593 292.014, 1021.898 294.637, 1024.367 293.689 C 1025.994 293.065, 1028.456 295.613, 1036.265 306 C 1045.283 317.995, 1049.412 321.473, 1058.044 324.341 L 1065.589 326.848 1074.544 323.746 C 1082.360 321.038, 1084.900 320.635, 1094.500 320.572 C 1103.875 320.511, 1106.091 320.814, 1109.500 322.622 C 1116.915 326.555, 1117.327 326.512, 1122.440 321.281 C 1128.997 314.570, 1134.389 303.396, 1138.068 288.893 C 1141.121 276.855, 1141.149 276.513, 1140.094 264.592 C 1138.282 244.136, 1138.911 245.707, 1128.153 234.750 C 1122.888 229.387, 1117.863 225, 1116.986 225 C 1116.110 225, 1113.842 223.379, 1111.946 221.398 C 1103.080 212.130, 1078.698 193.770, 1072.111 191.401 C 1069.575 190.489, 1062.775 187.567, 1057 184.907 C 1043.697 178.779, 1031.345 175.829, 1020 176.071 C 1015.325 176.170, 1009.250 175.704, 1006.500 175.035 C 1003.750 174.366, 998.919 173.185, 995.765 172.410 C 989.031 170.754, 982.196 170.595, 978.484 172.006 C 977.029 172.559, 969.152 173.157, 960.979 173.334 C 950.561 173.560, 945.644 174.050, 944.531 174.974 C 943.348 175.956, 940.617 176.142, 933.825 175.702 C 927.667 175.303, 921.814 175.608, 915.797 176.641 C 905.462 178.417, 898.820 178.060, 887 175.095 C 852.608 166.467, 845.290 165.612, 819.500 167.211" stroke="#dd8a8a" fill="#dd8a8a" fill-opacity="0.2" fill-rule="evenodd"/><path class="svg-region-SV" d="M 943.445 253.904 C 941.977 256.122, 939.964 258.194, 938.971 258.509 C 937.978 258.825, 936.003 259.997, 934.582 261.114 C 931.672 263.403, 931.151 268.009, 933.170 273.595 C 934.149 276.301, 934.063 277.255, 932.647 279.416 C 930.753 282.307, 928.426 282.687, 925.439 280.595 C 923.373 279.148, 923.046 279.178, 909.865 282.016 C 904.722 283.124, 903.980 283.056, 901.365 281.237 C 893.355 275.664, 888.718 273, 887.032 273 C 883.122 273, 882 271.872, 882 267.940 C 882 261.920, 880.317 259.360, 875.125 257.483 C 872.581 256.564, 869.003 255.576, 867.173 255.288 C 865.343 254.999, 863.598 254.117, 863.295 253.327 C 862.852 252.173, 862.298 252.311, 860.467 254.031 C 859.214 255.208, 856.459 256.769, 854.345 257.501 C 851.076 258.631, 850.259 258.615, 848.893 257.390 C 847.492 256.134, 847.125 256.145, 846.021 257.475 C 845.325 258.314, 843.895 259, 842.844 259 C 841.737 259, 840.103 260.406, 838.961 262.342 C 836.932 265.780, 833.394 268, 829.943 268 C 828.863 268, 825.737 269.576, 822.996 271.503 C 817.208 275.571, 810.791 278.020, 807.899 277.263 C 806.553 276.911, 805.374 277.449, 804.381 278.867 C 802.821 281.094, 799.564 281.721, 798.500 280 C 798.160 279.450, 796.763 279, 795.396 279 C 793.090 279, 792.958 279.258, 793.573 282.540 C 794.428 287.095, 792.044 290, 787.452 290 C 782.614 290, 781.275 294.782, 785.219 297.976 L 787.438 299.773 783.534 304.136 C 780.858 307.127, 777.092 309.673, 771.565 312.227 C 767.129 314.277, 762.879 315.964, 762.121 315.977 C 761.032 315.995, 760.881 317.227, 761.401 321.826 C 762.028 327.367, 761.937 327.708, 759.548 328.796 C 758.167 329.426, 753.991 330.204, 750.268 330.525 C 745.032 330.977, 728.217 335.233, 726.150 336.630 C 725.958 336.760, 726.347 338.522, 727.015 340.545 C 728.198 344.130, 728.323 344.204, 731.865 343.423 C 736.669 342.365, 749.127 342.453, 756 343.594 C 761.229 344.462, 761.484 344.643, 761.178 347.254 L 760.857 350 771.928 350 C 780.857 350, 783 350.276, 783 351.429 C 783 352.214, 782.438 353.452, 781.750 354.179 C 775.962 360.297, 774.008 364.886, 775.912 367.892 C 776.643 369.046, 777.280 368.946, 779.647 367.307 C 782.152 365.571, 793.836 359.733, 799.500 357.387 C 801.124 356.714, 827.587 355.027, 834.250 355.171 C 851.631 355.547, 861.216 355.188, 874.500 353.665 C 895.932 351.206, 955.399 351.624, 963.515 354.290 C 966.273 355.196, 974.373 356.402, 981.515 356.969 C 988.657 357.536, 998.527 358.900, 1003.449 360 C 1008.371 361.100, 1014.865 362, 1017.878 362 C 1020.892 362, 1024.853 362.541, 1026.681 363.201 C 1029.849 364.347, 1030.180 364.230, 1033.822 360.673 C 1038.285 356.316, 1046.051 353.057, 1054.500 351.997 C 1057.800 351.583, 1062.075 350.667, 1064 349.960 C 1065.925 349.253, 1070.477 347.576, 1074.116 346.232 C 1077.754 344.889, 1081.941 342.824, 1083.421 341.645 L 1086.110 339.500 1077.305 339.337 C 1072.462 339.248, 1067.943 339.636, 1067.263 340.199 C 1065.340 341.791, 1063.344 340.470, 1062.683 337.166 C 1062.324 335.369, 1061.271 333.903, 1060.064 333.520 C 1057.758 332.788, 1052 326.183, 1052 324.270 C 1052 323.568, 1050.127 321.308, 1047.837 319.247 C 1044.129 315.910, 1041.351 312.641, 1033.702 302.614 C 1028.191 295.391, 1025.828 293.129, 1024.376 293.686 C 1021.590 294.755, 1014.124 289.470, 1014.033 286.364 C 1013.996 285.090, 1009.052 282.530, 1004.500 281.428 C 1002.850 281.028, 1000.612 280.094, 999.527 279.351 C 998.443 278.608, 996.551 278, 995.325 278 C 991.756 278, 987.808 275.923, 983.340 271.696 C 979.690 268.243, 978.716 267.814, 975.399 268.202 C 972.140 268.582, 971.173 268.184, 968.392 265.321 C 966.618 263.495, 964.479 262, 963.638 262 C 962.797 262, 961.507 260.762, 960.770 259.250 C 959.761 257.176, 958.825 256.575, 956.966 256.807 C 948.777 257.825, 948.500 257.736, 948.500 254.093 C 948.500 249.275, 946.556 249.202, 943.445 253.904 M 831.033 336.388 C 823.266 338.460, 820.675 346.876, 827.292 348.537 C 831.017 349.472, 841.245 346.314, 843.750 343.456 C 849.586 336.797, 843.072 333.177, 831.033 336.388" stroke="#c666b5" fill="#c666b5" fill-opacity="0.2" fill-rule="evenodd"/><path class="svg-region-SF" d="M 701.603 314.730 C 701.202 315.132, 695.733 315.704, 689.450 316.002 C 680.564 316.424, 677.651 316.921, 676.334 318.238 C 674.742 319.829, 674.926 320.182, 679.368 324.093 C 686.562 330.425, 690.794 333, 694.007 333 C 695.613 333, 699.305 333.950, 702.213 335.112 C 706.812 336.949, 708.868 337.155, 718.004 336.695 C 725.186 336.332, 730.150 335.517, 733.704 334.117 C 736.561 332.990, 742.860 331.593, 747.700 331.011 C 761.852 329.310, 762.673 328.710, 761.400 321 L 760.822 317.500 750.459 317.840 C 741.832 318.122, 739.159 317.829, 734.510 316.090 C 729.874 314.355, 726.667 314, 715.629 314 C 708.316 314, 702.005 314.329, 701.603 314.730 M 1082.500 321.477 C 1079.200 322.201, 1074.065 323.725, 1071.088 324.862 L 1065.676 326.931 1059.398 324.739 C 1055.944 323.534, 1052.795 322.872, 1052.399 323.268 C 1051.091 324.576, 1055.341 330.869, 1058.770 332.701 C 1061 333.892, 1062.331 335.458, 1062.711 337.336 C 1063.342 340.459, 1065.345 341.749, 1067.263 340.268 C 1067.943 339.743, 1074.368 339.263, 1081.541 339.202 C 1094.191 339.095, 1094.845 338.981, 1103.374 335.411 C 1112.694 331.509, 1115.496 328.637, 1113.361 325.172 C 1110.572 320.646, 1094.854 318.764, 1082.500 321.477" stroke="#8c6b55" fill="#8c6b55" fill-opacity="0.2" fill-rule="evenodd"/><path class="svg-region-IF" d="M 831 336.388 C 827.357 337.352, 826.119 338.297, 824.500 341.350 L 822.500 345.121 824.965 347.145 C 827.400 349.144, 828.291 349.179, 836.626 347.605 C 839.865 346.993, 842.732 345.221, 844.449 342.770 C 848.934 336.366, 842.542 333.332, 831 336.388" stroke="#f2823b" fill="#f2823b" fill-opacity="0.2" fill-rule="evenodd"/><path class="svg-region-AAB" d="M 872.500 353.701 C 863.560 354.945, 845.035 355.663, 834.500 355.175 C 828.337 354.889, 801.027 356.809, 798.388 357.714 C 796.677 358.301, 793.527 359.689, 791.388 360.800 C 789.250 361.910, 786.150 363.422, 784.500 364.159 C 782.850 364.897, 780.920 365.950, 780.210 366.500 C 776.901 369.066, 770.233 376.604, 767.748 380.588 C 766.235 383.015, 764.577 385, 764.066 385 C 763.554 385, 762.856 385.877, 762.516 386.949 C 762.176 388.021, 759.446 392.498, 756.449 396.899 C 753.452 401.299, 751 405.335, 751 405.867 C 751 406.398, 750.663 406.983, 750.250 407.167 C 748.767 407.826, 744 415.646, 744 417.420 C 744 418.844, 744.483 419.081, 746.250 418.523 C 747.487 418.133, 749.777 417.573, 751.338 417.280 C 754.634 416.661, 768.813 418.888, 769.591 420.147 C 770.288 421.274, 788.327 421.252, 789.550 420.122 C 791.163 418.632, 805.529 417, 817.041 417 C 823.068 417, 828 416.644, 828 416.210 C 828 415.519, 831.265 414.917, 849.250 412.292 C 851.313 411.991, 853 411.402, 853 410.983 C 853 409.445, 860.355 408.917, 871.284 409.670 C 879.935 410.266, 881.585 410.589, 878.500 411.080 C 876.179 411.449, 880.272 411.776, 888.250 411.858 C 895.813 411.936, 902 411.606, 902 411.124 C 902 407.930, 959.695 407.828, 969 411.006 C 970.375 411.475, 974.151 412.157, 977.391 412.519 C 982.525 413.094, 983.204 412.975, 982.673 411.590 C 982.135 410.189, 983.549 410, 994.564 410 C 1003.413 410, 1008.113 410.438, 1010.654 411.500 C 1012.629 412.325, 1016.552 413.018, 1019.372 413.040 C 1024.953 413.083, 1035.340 414.934, 1043.968 417.423 C 1051.117 419.485, 1053.893 419.413, 1060.239 417.001 C 1065.730 414.913, 1072 414.338, 1072 415.921 C 1072 416.427, 1073.463 417.158, 1075.250 417.545 C 1077.037 417.933, 1081.744 419.993, 1085.709 422.125 C 1094.391 426.792, 1095.444 426.926, 1094.541 423.250 C 1093.381 418.532, 1091.446 416.622, 1083.855 412.699 C 1075.544 408.403, 1073.144 406.472, 1067.598 399.616 C 1065.452 396.963, 1061.852 393.479, 1059.598 391.874 C 1057.344 390.269, 1053.700 386.772, 1051.500 384.103 C 1045.843 377.240, 1031.502 364.720, 1027.701 363.326 C 1025.940 362.680, 1021.777 362.118, 1018.449 362.076 C 1015.121 362.034, 1008.371 361.088, 1003.449 359.974 C 998.527 358.859, 989.100 357.534, 982.500 357.028 C 975.900 356.522, 967.800 355.328, 964.500 354.373 C 955.929 351.895, 888.992 351.406, 872.500 353.701" stroke="#7f3c1a" fill="#7f3c1a" fill-opacity="0.2" fill-rule="evenodd"/><path class="svg-region-APB" d="M 912.500 408.925 C 911.400 409.439, 908.587 409.891, 906.250 409.930 C 903.913 409.968, 902 410.450, 902 411 C 902 411.618, 896.748 412, 888.243 412 C 880.677 412, 872.963 412.437, 871.100 412.971 C 869.237 413.505, 864.290 414.246, 860.107 414.618 C 855.923 414.989, 852.275 415.626, 852 416.032 C 851.725 416.439, 847.261 417.498, 842.080 418.385 C 836.899 419.272, 831.949 420.586, 831.080 421.306 C 828.830 423.168, 824.257 425, 821.858 425 C 820.732 425, 813.666 427.989, 806.156 431.642 C 794.103 437.505, 791.649 438.342, 785.250 438.774 C 781.263 439.043, 778 439.599, 778 440.010 C 778 440.981, 765.971 444, 762.104 444 C 760.461 444, 758.840 444.450, 758.500 445 C 758.160 445.550, 757.009 446, 755.941 446 C 754.873 446, 754 446.406, 754 446.902 C 754 447.398, 751.220 448.126, 747.822 448.521 C 741.458 449.259, 732.768 453.555, 731.628 456.526 C 731.317 457.337, 730.257 458, 729.272 458 C 728.287 458, 726.923 458.894, 726.240 459.987 C 725.558 461.079, 723.537 462.597, 721.750 463.359 C 717.846 465.024, 715.095 467.711, 709.904 474.931 C 706.250 480.014, 706 480.811, 706 487.399 C 706 493.826, 706.239 494.645, 708.750 496.844 C 710.263 498.168, 712.850 499.879, 714.500 500.647 C 720.357 503.374, 726.367 508.541, 727.171 511.541 C 727.648 513.321, 727.573 514.633, 726.982 514.833 C 725.241 515.424, 725.938 517, 727.941 517 C 729.009 517, 730.160 517.450, 730.500 518 C 731.487 519.596, 736.201 519.158, 740 517.116 C 741.925 516.082, 746.425 513.817, 750 512.083 C 753.575 510.349, 758.750 507.765, 761.500 506.342 C 764.250 504.918, 769.650 502.179, 773.500 500.254 C 777.350 498.329, 781.400 496.277, 782.500 495.694 C 783.600 495.111, 787.650 492.976, 791.500 490.949 C 802.178 485.327, 812.589 479.426, 815.701 477.234 C 817.240 476.149, 820.444 474.277, 822.819 473.075 C 825.195 471.873, 829.776 468.464, 833 465.500 C 836.224 462.536, 840.805 459.121, 843.181 457.911 C 845.556 456.701, 848.892 454.651, 850.594 453.356 C 852.296 452.060, 854.604 451, 855.722 451 C 856.840 451, 858.315 450.325, 859 449.500 C 859.685 448.675, 861.096 448, 862.136 448 C 863.176 448, 864.809 447.605, 865.764 447.122 C 866.719 446.639, 869.075 445.517, 871 444.628 C 872.925 443.739, 875.175 442.577, 876 442.045 C 876.825 441.514, 880.200 439.787, 883.500 438.209 C 886.800 436.631, 890.400 434.857, 891.500 434.268 C 896.698 431.480, 902.720 430.704, 919.925 430.604 L 937.936 430.500 940.786 433.612 C 942.353 435.324, 945.405 437.276, 947.568 437.951 C 949.731 438.625, 953.750 440.212, 956.500 441.477 C 959.250 442.742, 963.525 444.366, 966 445.087 C 970.452 446.383, 972.147 447.423, 980.102 453.750 C 982.350 455.538, 984.680 457, 985.279 457 C 987.113 457, 997.719 464.165, 1005.309 470.532 C 1012.239 476.344, 1015.529 478.024, 1022.967 479.545 C 1024.874 479.935, 1027.124 480.592, 1027.967 481.005 C 1032.752 483.348, 1037.302 485, 1038.975 485 C 1040.024 485, 1041.160 485.450, 1041.500 486 C 1041.840 486.550, 1042.936 487, 1043.937 487 C 1044.937 487, 1046.366 487.736, 1047.113 488.636 C 1050.156 492.303, 1055.860 494.842, 1063.582 495.966 C 1075.906 497.761, 1079.103 499.009, 1080.921 502.735 C 1083.061 507.120, 1085.292 507.636, 1089.235 504.660 C 1091.031 503.304, 1094.423 501.627, 1096.772 500.932 C 1100.056 499.962, 1101.183 499.072, 1101.642 497.085 C 1101.971 495.663, 1102.786 494.050, 1103.453 493.500 C 1104.120 492.950, 1107.891 488.454, 1111.833 483.509 C 1118.879 474.671, 1120.022 471.867, 1118.063 468.236 C 1117.547 467.281, 1116.111 464.350, 1114.872 461.723 C 1113.633 459.096, 1111.017 455.756, 1109.059 454.301 C 1107.102 452.845, 1104.115 450.185, 1102.422 448.389 C 1100.729 446.594, 1098.029 444.840, 1096.422 444.493 C 1094.815 444.146, 1090.800 442.766, 1087.500 441.428 C 1084.200 440.089, 1080.722 438.996, 1079.770 438.997 C 1077.441 439.001, 1069.746 435.990, 1068.500 434.588 C 1067.950 433.969, 1065.588 432.615, 1063.250 431.579 C 1060.912 430.544, 1059 429.367, 1059 428.965 C 1059 428.057, 1056.972 427.475, 1045 424.948 C 1039.775 423.845, 1032.931 421.605, 1029.791 419.971 C 1024.294 417.110, 1023.587 417, 1010.751 417 C 1001.681 417, 995.515 416.489, 991.460 415.400 C 983.005 413.130, 970.064 410.961, 959 409.959 C 943.416 408.548, 914.675 407.908, 912.500 408.925" stroke="#ac7444" fill="#ac7444" fill-opacity="0.2" fill-rule="evenodd"/><path class="svg-region-AP" d="M 992 487.711 C 990.625 487.953, 987.572 488.791, 985.215 489.575 C 982.858 490.359, 978.021 491, 974.465 491 C 970.909 491, 968 491.391, 968 491.868 C 968 492.346, 966.165 492.983, 963.922 493.284 C 961.680 493.584, 958.985 494.609, 957.933 495.560 C 956.342 497, 954.761 497.195, 948.500 496.721 C 941.762 496.212, 940.518 496.410, 936.559 498.623 C 932.417 500.938, 931.150 501.101, 916.320 501.230 C 902.335 501.351, 899.808 501.113, 894.535 499.183 C 891.254 497.982, 887.383 497, 885.934 497 C 884.484 497, 881.994 496.575, 880.399 496.055 C 878.805 495.536, 871.031 494.605, 863.125 493.986 C 855.219 493.367, 847.944 492.358, 846.959 491.743 C 845.211 490.651, 841.111 491.410, 834.203 494.104 C 832.940 494.597, 830.577 495, 828.953 495 C 825.935 495, 825.260 495.859, 826.950 497.550 C 827.537 498.138, 827.583 503.264, 827.068 511 C 826.265 523.071, 826.340 523.878, 829.228 534.500 C 832.585 546.848, 833.068 547.977, 836.441 551.350 C 839.109 554.018, 840.986 559.667, 840.994 565.054 C 840.999 567.829, 840.214 569.363, 837.413 572.054 C 829.654 579.508, 829.514 579.932, 829.836 594.973 C 830.042 604.585, 829.676 610.413, 828.573 615.110 C 826.708 623.053, 824.618 628.285, 823.683 627.350 C 822.524 626.190, 822.925 627.955, 824.526 631.050 C 825.365 632.672, 826.602 634.023, 827.276 634.052 C 827.949 634.080, 830.011 635.993, 831.858 638.302 C 835.448 642.790, 847.153 655.937, 853.133 662.197 C 855.131 664.289, 857.255 666, 857.854 666 C 858.452 666, 860.916 667.392, 863.329 669.092 C 866.400 671.257, 869.483 672.413, 873.608 672.946 C 876.848 673.365, 880.767 674.224, 882.315 674.854 C 883.863 675.484, 886.655 676, 888.518 676 C 890.381 676, 893.070 676.530, 894.493 677.179 C 896.499 678.093, 898.190 678.073, 902.026 677.090 C 904.746 676.393, 912.490 675.643, 919.236 675.423 C 925.981 675.203, 932.969 674.741, 934.764 674.396 C 936.559 674.051, 939.320 674.304, 940.899 674.958 C 943.455 676.017, 944.412 675.795, 949.635 672.935 C 961.985 666.173, 969.582 661.574, 971.706 659.576 C 972.920 658.434, 976.048 655.700, 978.657 653.500 C 983.021 649.821, 991.118 641.921, 995.180 637.378 C 996.103 636.345, 997.566 634.920, 998.430 634.211 C 1000.342 632.641, 1000.442 630.590, 998.694 628.821 C 996.316 626.415, 995.730 623.599, 995.506 613.500 C 995.384 608, 994.762 601.622, 994.124 599.326 C 993.122 595.720, 993.263 594.223, 995.162 588.326 C 997.612 580.721, 1001.859 573.794, 1005.559 571.370 C 1007.407 570.158, 1007.999 568.888, 1007.997 566.135 C 1007.991 559.356, 1004.925 544.916, 1000.895 532.684 C 995.313 515.741, 995.155 512.743, 999.198 500.515 C 1001.691 492.975, 1003.065 490.252, 1004.808 489.394 C 1006.755 488.436, 1006.859 488.160, 1005.476 487.629 C 1003.709 486.951, 996.064 486.998, 992 487.711" stroke="#fc7143" fill="#fc7143" fill-opacity="0.2" fill-rule="evenodd"/><path class="svg-region-LPl" d="M 801.145 485.611 C 799.881 486.497, 795.618 488.889, 791.673 490.928 C 787.728 492.966, 783.600 495.129, 782.500 495.733 C 779.198 497.547, 773.267 500, 772.182 500 C 771.624 500, 771.017 500.337, 770.833 500.750 C 770.219 502.132, 762.825 506.065, 752.500 510.501 C 745.573 513.477, 743.711 514.556, 739.954 517.772 C 736.350 520.856, 736 521.589, 736 526.040 C 736 534.223, 739.469 541.649, 746.409 548.318 C 749.759 551.538, 754.818 555.271, 757.652 556.613 C 762.888 559.092, 773.943 569.508, 778.577 576.328 L 781.006 579.903 783.253 577.665 C 786.979 573.953, 804.681 566.687, 808.491 567.305 C 815.643 568.465, 821.401 571.871, 824.914 577.019 C 828.022 581.573, 830 583.208, 830 581.221 C 830 580.792, 832.538 577.842, 835.639 574.665 L 841.279 568.889 840.666 562.324 C 840.189 557.222, 839.434 554.982, 837.276 552.281 C 833.025 546.956, 831.887 544.364, 829.039 533.521 C 826.613 524.284, 826.462 522.547, 827.108 511.315 C 827.954 496.608, 826.849 491.875, 822.346 490.908 C 820.781 490.571, 816.608 488.880, 813.073 487.148 C 805.733 483.553, 804.339 483.374, 801.145 485.611" stroke="#d2454f" fill="#d2454f" fill-opacity="0.2" fill-rule="evenodd"/><path class="svg-region-LPr" d="M 1010.525 479.973 C 1009.283 481.345, 1008.917 482.836, 1009.324 484.870 C 1009.862 487.562, 1009.640 487.845, 1006.525 488.429 C 1002.846 489.120, 1002.243 490.224, 998.019 504 C 995.184 513.245, 995.450 516.239, 1000.462 531.549 C 1004.745 544.632, 1008 559.553, 1008 566.107 C 1008 568.672, 1008.305 569.089, 1009.750 568.499 C 1010.712 568.106, 1014.098 566.888, 1017.273 565.792 C 1022.514 563.985, 1023.261 563.941, 1025.370 565.323 C 1026.648 566.160, 1028.298 568.342, 1029.038 570.173 C 1029.777 572.003, 1030.929 573.836, 1031.597 574.247 C 1032.370 574.723, 1032.622 576.398, 1032.291 578.867 C 1031.610 583.945, 1033.248 584.802, 1036.167 580.893 C 1037.450 579.175, 1041.875 574.172, 1046 569.775 C 1053.197 562.104, 1055.199 560.762, 1067 555.703 C 1068.925 554.878, 1073.953 550.894, 1078.173 546.851 C 1083.899 541.366, 1086.118 538.485, 1086.918 535.500 C 1088.709 528.811, 1088.228 521.764, 1085.569 515.753 C 1084.233 512.730, 1082.816 508.537, 1082.422 506.435 C 1081.496 501.502, 1078.211 498.280, 1073.362 497.554 C 1056.646 495.048, 1051.419 493.335, 1047.595 489.106 C 1046.547 487.948, 1044.886 487, 1043.904 487 C 1042.922 487, 1041.840 486.550, 1041.500 486 C 1041.160 485.450, 1040.060 485, 1039.055 485 C 1038.051 485, 1035.940 484.328, 1034.364 483.506 C 1032.789 482.685, 1030.803 482.010, 1029.950 482.006 C 1029.098 482.003, 1027.973 481.611, 1027.450 481.136 C 1026.260 480.053, 1017.919 478, 1014.712 478 C 1013.391 478, 1011.507 478.888, 1010.525 479.973" stroke="#d2454f" fill="#d2454f" fill-opacity="0.2" fill-rule="evenodd"/><path class="svg-region-Ol" d="M 514.857 295.266 C 508.081 299.421, 505.520 301.477, 497.500 309.201 C 493.100 313.439, 486.800 318.992, 483.500 321.540 C 480.200 324.088, 477.350 326.585, 477.167 327.087 C 476.983 327.589, 476.393 328, 475.855 328 C 475.317 328, 472.542 329.077, 469.688 330.393 C 464.651 332.717, 457.165 333.828, 435 335.542 C 414.127 337.156, 403.350 338.377, 391 340.529 C 381.298 342.219, 367.852 347.339, 356.129 353.808 C 349.785 357.308, 344.583 361.422, 335.652 370 C 321.428 383.663, 323.106 381.844, 316.693 390.547 C 313.837 394.423, 309.867 399.598, 307.871 402.047 C 305.875 404.496, 302.725 409.128, 300.871 412.340 C 299.017 415.552, 296.771 419.377, 295.880 420.840 C 285.435 437.985, 278.872 451.165, 275.385 462 C 274.589 464.475, 273.508 467.270, 272.984 468.211 C 270.280 473.068, 263.510 501.948, 261.898 515.500 C 260.315 528.812, 260.326 559.249, 261.921 575 C 262.979 585.449, 265.792 600.823, 268.052 608.500 C 268.537 610.150, 269.671 614.200, 270.571 617.500 C 274.490 631.877, 278.621 643.308, 283.941 654.500 C 294.240 676.166, 300.913 685.656, 317.500 702.223 C 327.857 712.567, 334.720 718, 337.430 718 C 338.294 718, 339 718.604, 339 719.343 C 339 720.081, 340.687 721.539, 342.750 722.582 C 344.813 723.625, 347.512 725.350, 348.750 726.414 C 349.988 727.478, 351 728.042, 351 727.668 C 351 727.294, 352.868 728.340, 355.150 729.994 C 357.433 731.647, 359.777 733, 360.361 733 C 360.944 733, 365.039 734.752, 369.461 736.893 C 380.367 742.175, 384.777 744, 386.633 744 C 387.494 744, 389.616 744.621, 391.349 745.381 C 397.194 747.942, 406.466 750.913, 412 751.997 C 416.919 752.961, 427.969 755.550, 444 759.493 C 459.726 763.361, 485.825 764.682, 499 762.277 C 521.543 758.163, 538.578 753.190, 550.845 747.142 C 553.234 745.964, 555.934 744.986, 556.845 744.968 C 557.755 744.951, 559.374 744.276, 560.441 743.468 C 561.509 742.661, 563.018 742, 563.794 742 C 564.570 742, 569.700 739.750, 575.193 737 C 580.687 734.250, 586.259 732, 587.576 732 C 588.893 732, 593.914 730.712, 598.735 729.139 C 608.902 725.820, 624.751 722.649, 637 721.483 C 647.728 720.462, 654.430 718.949, 664.500 715.275 C 687.323 706.948, 710.156 685.182, 721.961 660.500 C 728.399 647.039, 730.038 642.800, 731.046 637 C 731.717 633.139, 732.595 627.979, 734.619 616 C 735.273 612.131, 735.105 591.978, 734.409 590.853 C 734.069 590.302, 733.596 585.546, 733.359 580.283 C 732.905 570.221, 732.774 569.015, 731.117 559.688 C 730.081 553.854, 729.129 550.351, 726.313 542 C 723.684 534.205, 721.849 527.645, 721.073 523.271 C 720.560 520.375, 719.429 518.338, 717.485 516.809 C 712.961 513.251, 710.570 510.693, 709.132 507.871 C 708.105 505.857, 706.120 504.709, 700.646 502.966 C 696.716 501.714, 691.803 500.085, 689.730 499.345 C 684.149 497.354, 676.556 497.703, 667 500.389 C 656.129 503.445, 640.905 507, 638.688 507 C 637.745 507, 636.191 507.411, 635.236 507.914 C 626.945 512.280, 622.258 513.267, 606.020 514.066 C 588.570 514.925, 584.584 515.682, 577.391 519.507 C 567.522 524.754, 549.802 526.401, 542.206 522.776 C 539.910 521.680, 539.454 520.766, 539.195 516.742 C 539.012 513.891, 539.311 512, 539.945 512 C 540.585 512, 541 509.239, 541 504.990 C 541 499.218, 541.353 497.678, 543 496.268 C 546.422 493.338, 545.226 483, 541.465 483 C 539.131 483, 539.758 480.389, 542.924 476.922 C 545.303 474.317, 546.814 473.628, 551.041 473.222 L 556.235 472.723 552.368 471.377 C 550.240 470.636, 547.049 470.023, 545.275 470.015 C 543.501 470.007, 539.212 468.700, 535.743 467.111 C 529.642 464.317, 529.378 464.039, 527.677 458.645 C 526.710 455.578, 525.487 452.801, 524.960 452.475 C 522.486 450.946, 524.537 405.711, 527.540 395.568 C 528.343 392.856, 529 386.917, 529 382.371 C 529 375.475, 529.414 373.327, 531.500 369.404 C 532.875 366.818, 534 363.869, 534 362.851 C 534 361.833, 534.367 361, 534.815 361 C 535.263 361, 536.385 359.538, 537.309 357.750 C 541.277 350.069, 542.787 348.425, 546.656 347.575 C 548.418 347.189, 551.669 344.852, 554.376 342.027 C 558.942 337.262, 559.978 336.789, 568.750 335.466 C 573.765 334.709, 574.107 333.624, 570 331.500 C 568.350 330.647, 567 329.519, 567 328.995 C 567 328.470, 565.297 327.172, 563.215 326.109 C 558.847 323.881, 548 315.007, 548 313.661 C 548 311.882, 538.873 300, 537.506 300 C 536.740 300, 535.525 299.167, 534.807 298.149 C 531.097 292.894, 521.085 291.448, 514.857 295.266" stroke="#aa444d" fill="#aa444d" fill-opacity="0.2" fill-rule="evenodd"/><path class="svg-region-Or" d="M 1371.696 293.637 C 1371.563 293.771, 1368.539 294.109, 1364.977 294.388 C 1361.415 294.668, 1356.925 295.154, 1355 295.469 C 1353.075 295.783, 1347.501 296.261, 1342.613 296.530 C 1337.725 296.800, 1330.834 297.690, 1327.301 298.510 C 1323.767 299.329, 1319.471 300, 1317.754 300 C 1312.356 300, 1306.224 303.747, 1302.450 309.350 C 1300.553 312.168, 1299 315.267, 1299 316.237 C 1299 317.206, 1298.559 318, 1298.019 318 C 1297.480 318, 1296.760 319.107, 1296.421 320.459 C 1296.081 321.811, 1295.173 323.442, 1294.402 324.081 C 1293.631 324.721, 1293 326.333, 1293 327.663 C 1293 328.993, 1292.088 331.315, 1290.972 332.824 C 1288.158 336.630, 1287.306 342.564, 1289.257 344.773 C 1290.097 345.723, 1292.070 349.650, 1293.642 353.500 C 1296.191 359.743, 1296.516 361.798, 1296.652 372.500 C 1296.735 379.100, 1297.313 386.975, 1297.937 390 C 1300.787 403.831, 1300.949 405.116, 1300.064 406.780 C 1299.561 407.726, 1298.661 412.902, 1298.064 418.281 C 1296.888 428.877, 1295.952 431.191, 1292.047 433.169 C 1290.646 433.879, 1288.150 435.429, 1286.500 436.614 C 1284.850 437.798, 1282.600 439.044, 1281.500 439.381 C 1280.400 439.719, 1278.037 441.369, 1276.250 443.048 C 1273.673 445.470, 1273 446.900, 1273 449.960 C 1273 453.437, 1273.605 454.344, 1279.135 459.159 C 1289.235 467.952, 1291 470.004, 1291 472.951 C 1291 474.468, 1290.059 476.540, 1288.892 477.595 C 1287.012 479.294, 1285.203 479.491, 1272.142 479.421 C 1259.088 479.350, 1257.070 479.106, 1253.539 477.171 C 1249.935 475.196, 1248.117 475, 1233.414 475 C 1221.561 475, 1216.111 475.402, 1212.975 476.509 C 1210.623 477.339, 1203.704 478.464, 1197.599 479.009 L 1186.500 480 1180.735 477 C 1175.720 474.390, 1173.921 474, 1166.890 474 C 1160.398 474, 1158.254 474.395, 1155.985 476.011 C 1154.432 477.116, 1150.779 478.473, 1147.866 479.025 C 1144.953 479.578, 1142.127 480.473, 1141.585 481.015 C 1141.043 481.557, 1138.697 482, 1136.371 482 C 1134.046 482, 1131.548 482.563, 1130.821 483.250 C 1130.095 483.938, 1127.700 485.836, 1125.500 487.468 C 1123.300 489.101, 1120.375 491.489, 1119 492.775 C 1117.625 494.061, 1115.375 495.811, 1114 496.663 C 1109.178 499.652, 1103.429 515.376, 1101.996 529.500 C 1101.549 533.900, 1100.652 540.800, 1100.002 544.834 C 1099.023 550.907, 1099.102 554.346, 1100.459 564.834 C 1101.361 571.800, 1102.550 579.825, 1103.103 582.666 C 1103.655 585.507, 1104.229 588.882, 1104.378 590.166 C 1104.528 591.450, 1105.115 593.625, 1105.683 595 C 1106.251 596.375, 1107.017 599.836, 1107.385 602.691 C 1107.978 607.298, 1113.610 626.195, 1115.971 631.500 C 1116.460 632.600, 1117.413 635.300, 1118.087 637.500 C 1120.630 645.791, 1128.402 660.598, 1132.622 665.190 C 1136.534 669.449, 1143.733 676, 1144.499 676 C 1144.916 676, 1147.787 677.716, 1150.879 679.814 C 1155.902 683.222, 1161.758 686.260, 1173.141 691.359 C 1178.240 693.644, 1196.955 697.971, 1206.500 699.072 C 1225.493 701.263, 1229.935 701.967, 1237.500 703.987 C 1245.902 706.230, 1257.740 710.216, 1267 713.918 C 1270.025 715.127, 1275.650 717.236, 1279.500 718.604 C 1283.350 719.971, 1288.525 721.938, 1291 722.974 C 1293.475 724.010, 1299.680 726.536, 1304.789 728.587 C 1309.898 730.639, 1314.312 732.696, 1314.598 733.159 C 1314.884 733.621, 1315.735 734, 1316.489 734 C 1317.243 734, 1320.929 735.387, 1324.680 737.082 C 1328.431 738.777, 1333.300 740.974, 1335.500 741.963 C 1347.208 747.229, 1353.691 748.224, 1375.492 748.099 C 1387.483 748.030, 1398.890 746.469, 1413 742.967 C 1417.125 741.944, 1423.200 740.582, 1426.500 739.942 C 1429.800 739.301, 1432.950 738.436, 1433.500 738.019 C 1434.050 737.602, 1436.300 736.693, 1438.500 736 C 1440.700 735.307, 1442.954 734.383, 1443.508 733.948 C 1444.460 733.201, 1447.508 732.026, 1458 728.363 C 1460.475 727.498, 1463.210 726.163, 1464.079 725.396 C 1464.947 724.628, 1465.940 724, 1466.284 724 C 1467.628 724, 1485.150 711.942, 1493.349 705.374 C 1500.055 700.003, 1516.251 684.085, 1522.549 676.674 C 1532.041 665.505, 1544.564 646.077, 1550.057 634 C 1551.182 631.525, 1552.710 628.375, 1553.451 627 C 1557.147 620.143, 1562.594 603.526, 1565.906 589 C 1571.031 566.519, 1572.480 552.697, 1572.456 526.500 C 1572.436 504.734, 1571.260 493.550, 1566.882 473.500 C 1563.133 456.327, 1549.713 420.716, 1541.068 405 C 1540.614 404.175, 1539.532 401.925, 1538.664 400 C 1537.796 398.075, 1536.014 394.475, 1534.705 392 C 1531.515 385.967, 1524.259 370.866, 1522.325 366.233 C 1518.048 355.985, 1509.365 343.368, 1499.621 333.243 C 1490.937 324.219, 1478.109 314, 1475.466 314 C 1475.021 314, 1473.947 313.362, 1473.079 312.582 C 1472.210 311.802, 1467.900 309.741, 1463.500 308.001 C 1459.100 306.262, 1454.150 304.229, 1452.500 303.484 C 1444.230 299.748, 1422.333 295.494, 1404 294.061 C 1392.388 293.154, 1372.442 292.892, 1371.696 293.637" stroke="#aa444d" fill="#aa444d" fill-opacity="0.2" fill-rule="evenodd"/><path class="svg-region-Pl" d="M 569.454 335.074 C 569.140 335.583, 567.588 336, 566.006 336 C 561.562 336, 558.892 337.399, 553.910 342.334 C 551.386 344.835, 548.016 347.209, 546.420 347.609 C 543.712 348.289, 541 350.178, 541 351.384 C 541 351.939, 536.667 358.729, 535.130 360.584 C 534.636 361.180, 533.924 363.071, 533.547 364.787 C 533.170 366.502, 532.053 368.940, 531.064 370.203 C 529.662 371.994, 529.166 374.921, 528.811 383.500 C 528.561 389.550, 527.874 395.400, 527.284 396.500 C 524.716 401.287, 522.650 451.047, 524.960 452.475 C 525.487 452.801, 526.703 455.553, 527.660 458.590 C 529.312 463.832, 529.706 464.261, 535.435 467.056 C 538.755 468.675, 543.052 470.007, 544.985 470.015 C 548.442 470.030, 555.305 471.971, 556.648 473.315 C 557.025 473.692, 559.439 474, 562.012 474 C 565.352 474, 567.186 473.452, 568.424 472.084 C 569.377 471.030, 572.710 469.197, 575.829 468.010 C 585.607 464.288, 589.707 462.210, 594.679 458.452 C 600.390 454.136, 605 446.346, 605 441.011 C 605 436.828, 609.025 428.421, 612.323 425.713 C 613.520 424.731, 616.975 422.638, 620 421.064 C 625.657 418.120, 629.272 414.692, 631.213 410.432 C 631.822 409.094, 632.606 408, 632.955 408 C 633.304 408, 635.363 405.637, 637.531 402.750 C 639.699 399.863, 641.929 397.169, 642.487 396.765 C 643.988 395.677, 641.611 395.817, 638.498 397.001 C 636.172 397.885, 635.484 397.596, 632.565 394.501 C 630.750 392.575, 628.294 391, 627.110 391 C 625.807 391, 622.888 388.846, 619.728 385.551 C 614.446 380.046, 610.854 378, 606.470 378 C 605.150 378, 602.539 376.656, 600.669 375.014 C 597.308 372.063, 597.262 371.911, 596.718 361.764 C 596.233 352.716, 596.394 351.179, 598.084 348.790 C 599.138 347.300, 600 345.909, 600 345.699 C 600 345.489, 598.087 344.745, 595.750 344.046 C 593.413 343.347, 589.254 341.638, 586.509 340.249 C 583.764 338.859, 580.277 337.335, 578.759 336.861 C 577.242 336.388, 574.656 335.583, 573.013 335.074 C 571.181 334.505, 569.806 334.505, 569.454 335.074" stroke="#f9d3d3" fill="#f9d3d3" fill-opacity="0.2" fill-rule="evenodd"/><path class="svg-region-Pr" d="M 1231.500 320.190 C 1230.400 320.811, 1228.375 322.430, 1227 323.789 C 1225.625 325.147, 1223.487 326.927, 1222.250 327.744 C 1219.477 329.576, 1219.352 331, 1221.965 331 C 1224.940 331, 1225.906 333.911, 1225.297 341.042 C 1224.789 346.986, 1224.358 347.951, 1219.873 353.171 C 1217.193 356.290, 1215 359.463, 1215 360.221 C 1215 360.979, 1214.606 362.028, 1214.123 362.550 C 1212.769 364.018, 1209 374.814, 1209 377.226 C 1209 380.116, 1205.438 385.143, 1201.613 387.650 C 1199.432 389.080, 1198.139 391.017, 1197.310 394.097 C 1196.212 398.179, 1196.320 398.828, 1198.783 403 C 1200.244 405.475, 1202.257 409.125, 1203.256 411.111 C 1207.755 420.059, 1221.436 430.248, 1231.994 432.516 C 1233.916 432.928, 1237.305 434.755, 1239.526 436.575 C 1244.620 440.749, 1247.124 441.686, 1257.844 443.431 C 1262.605 444.206, 1267.767 445.326, 1269.315 445.920 C 1272.847 447.275, 1274 447.283, 1274 445.952 C 1274 444.651, 1279.102 440.075, 1280.600 440.032 C 1281.205 440.014, 1283.455 438.760, 1285.600 437.244 C 1287.745 435.729, 1290.646 433.901, 1292.047 433.184 C 1296.010 431.154, 1297.071 428.535, 1298.136 418.146 C 1298.680 412.841, 1299.552 407.709, 1300.075 406.743 C 1300.677 405.630, 1300.671 403.432, 1300.057 400.743 C 1299.525 398.409, 1298.880 394.152, 1298.624 391.283 C 1298.368 388.413, 1297.786 385.488, 1297.330 384.783 C 1296.874 384.077, 1296.501 378.325, 1296.501 372 C 1296.500 361.649, 1296.214 359.801, 1293.642 353.500 C 1292.070 349.650, 1290.210 345.825, 1289.509 345 C 1288.808 344.175, 1287.202 340.408, 1285.941 336.629 C 1283.144 328.246, 1279.298 325.011, 1269.248 322.587 C 1255.203 319.198, 1235.475 317.946, 1231.500 320.190" stroke="#f9d3d3" fill="#f9d3d3" fill-opacity="0.2" fill-rule="evenodd"/><path class="svg-region-DLl" d="M 598.342 348.257 C 596.385 351.199, 596.233 352.429, 596.706 361.500 C 597.201 370.975, 597.390 371.671, 600.310 374.750 C 602.385 376.937, 604.325 378, 606.246 378 C 610.423 378, 614.882 380.587, 620.228 386.113 C 623.008 388.987, 625.842 391, 627.109 391 C 628.294 391, 630.755 392.581, 632.578 394.514 L 635.891 398.027 639.696 396.473 C 645.752 393.998, 647.339 390.949, 647.821 380.855 C 648.181 373.330, 647.954 371.664, 646.182 368.811 C 642.784 363.339, 635.838 358.362, 626.908 355 C 622.284 353.259, 617.150 351.248, 615.500 350.531 C 610.420 348.323, 601.767 345, 601.117 345.007 C 600.777 345.011, 599.529 346.473, 598.342 348.257" stroke="#b7d6d3" fill="#b7d6d3" fill-opacity="0.2" fill-rule="evenodd"/><path class="svg-region-DLr" d="M 1206.750 331.162 C 1205.237 331.715, 1204 332.579, 1204 333.083 C 1204 333.587, 1203.213 334.005, 1202.250 334.012 C 1201.287 334.019, 1198.475 335.192, 1196 336.619 C 1193.525 338.046, 1188.463 340.771, 1184.750 342.675 C 1181.037 344.578, 1178 346.492, 1178 346.927 C 1178 347.362, 1176.151 349.819, 1173.891 352.387 C 1170.630 356.091, 1169.887 357.618, 1170.291 359.778 C 1170.572 361.275, 1171.281 365.137, 1171.866 368.360 C 1172.484 371.760, 1173.995 375.616, 1175.466 377.544 C 1176.859 379.371, 1178.022 381.234, 1178.049 381.683 C 1178.236 384.799, 1197 398.510, 1197 395.531 C 1197 394.689, 1197.480 394, 1198.067 394 C 1198.672 394, 1198.865 393.151, 1198.514 392.044 C 1198.047 390.573, 1198.713 389.551, 1201.201 387.920 C 1205.995 384.778, 1208.035 381.611, 1209.607 374.872 C 1210.372 371.591, 1211.899 367.043, 1212.999 364.765 C 1214.100 362.488, 1215 360.218, 1215 359.722 C 1215 359.226, 1217.190 356.363, 1219.867 353.360 C 1224.403 348.270, 1224.770 347.456, 1225.257 341.386 C 1225.943 332.845, 1225.459 331.342, 1221.786 330.607 C 1217.383 329.727, 1209.928 330.002, 1206.750 331.162" stroke="#b7d6d3" fill="#b7d6d3" fill-opacity="0.2" fill-rule="evenodd"/><path class="svg-region-OABl" d="M 855 409.729 C 854.175 410.043, 853.273 410.643, 852.995 411.063 C 852.545 411.742, 844.584 413.145, 832.250 414.718 C 829.913 415.016, 828 415.652, 828 416.130 C 828 416.609, 822.799 417, 816.443 417 C 804.734 417, 791.287 418.571, 789.550 420.141 C 788.353 421.223, 770 421.282, 770 420.204 C 770 419.244, 757.496 417, 752.152 417 C 748.581 417, 747.372 417.956, 732.921 432.205 C 717.430 447.480, 713.652 450.957, 706.521 456.500 C 704.398 458.150, 701.963 460.288, 701.109 461.250 C 700.254 462.212, 698.840 463, 697.966 463 C 697.092 463, 695.291 464.012, 693.964 465.250 C 692.637 466.488, 687.490 470.793, 682.526 474.819 C 677.561 478.844, 673.350 482.556, 673.167 483.069 C 672.983 483.581, 672.298 484, 671.645 484 C 670.991 484, 668.813 485.354, 666.804 487.010 C 664.796 488.665, 661.769 490.296, 660.077 490.635 C 658.384 490.973, 657 491.869, 657 492.625 C 657 493.402, 655.977 494, 654.649 494 C 648.662 494, 642.449 497.971, 638.417 504.374 L 636.608 507.247 640.554 506.761 C 645.033 506.209, 654.432 503.941, 667.303 500.307 C 677.523 497.421, 682.564 497.527, 694.500 500.880 C 704.064 503.567, 708.083 505.740, 709.708 509.100 C 710.982 511.734, 718.163 518, 719.907 518 C 720.471 518, 722.511 517.247, 724.442 516.326 C 727.460 514.887, 727.865 514.293, 727.337 512.076 C 727 510.659, 726.523 509.144, 726.278 508.709 C 725.745 507.765, 719.208 503.375, 713.718 500.274 C 707.161 496.571, 706 494.578, 706 487.028 C 706 480.871, 706.299 479.946, 709.904 474.931 C 715.095 467.711, 717.846 465.024, 721.750 463.359 C 723.537 462.597, 725.558 461.079, 726.240 459.987 C 726.923 458.894, 728.287 458, 729.272 458 C 730.257 458, 731.317 457.337, 731.628 456.526 C 732.740 453.629, 741.317 449.352, 747.462 448.632 C 750.741 448.247, 753.666 447.565, 753.962 447.115 C 754.258 446.666, 755.625 446.040, 757 445.725 C 758.375 445.410, 763.423 444.285, 768.218 443.225 C 773.013 442.165, 777.513 440.832, 778.218 440.263 C 778.923 439.695, 782.425 439.034, 786 438.796 C 792.233 438.381, 799.135 435.851, 810.142 429.947 C 818.356 425.541, 819.594 425.012, 821.703 425.006 C 824.242 424.999, 828.783 423.207, 831.080 421.306 C 831.949 420.586, 836.899 419.276, 842.080 418.393 C 847.261 417.510, 851.950 416.435, 852.500 416.005 C 853.050 415.574, 857.171 414.904, 861.658 414.515 C 866.145 414.126, 871.034 413.176, 872.522 412.404 C 874.011 411.632, 877.090 410.927, 879.364 410.838 C 882.059 410.733, 880.886 410.430, 876 409.969 C 866.654 409.087, 856.976 408.977, 855 409.729" stroke="#81244d" fill="#81244d" fill-opacity="0.2" fill-rule="evenodd"/><path class="svg-region-OABr" d="M 982 410.878 C 982 414.337, 994.473 417, 1010.673 417 C 1023.172 417, 1023.966 417.125, 1029.610 419.985 C 1032.849 421.627, 1039.775 423.879, 1045 424.988 C 1053.659 426.827, 1065.944 431.860, 1068.479 434.607 C 1069.833 436.075, 1077.521 439, 1080.025 439 C 1081.117 439, 1084.342 440.125, 1087.192 441.500 C 1090.042 442.875, 1093.233 444, 1094.283 444 C 1098.660 444, 1115.316 459.610, 1116.451 464.775 C 1116.837 466.536, 1117.569 468.234, 1118.077 468.548 C 1120.263 469.898, 1118.612 474.284, 1113.153 481.631 C 1109.936 485.959, 1106.119 490.625, 1104.670 492 C 1102.966 493.617, 1102.034 495.560, 1102.033 497.500 C 1102.030 501.165, 1102.723 502.199, 1106.201 503.727 C 1108.747 504.844, 1108.970 504.728, 1110.073 501.706 C 1110.716 499.943, 1112.876 497.306, 1114.872 495.847 C 1116.867 494.388, 1121.792 490.676, 1125.816 487.597 C 1132.162 482.742, 1133.720 482, 1137.566 482 C 1140.005 482, 1142 481.609, 1142 481.130 C 1142 480.652, 1144.588 479.741, 1147.750 479.107 C 1150.912 478.472, 1154.625 477.074, 1156 475.999 C 1157.994 474.440, 1160.104 474.040, 1166.421 474.022 C 1173.255 474.003, 1175.208 474.422, 1180.649 477.072 C 1184.117 478.762, 1187.978 480, 1189.228 479.822 C 1194.262 479.108, 1191.497 470.810, 1185.162 467.619 C 1183.698 466.882, 1179.108 466.005, 1174.963 465.670 C 1165.696 464.922, 1160.202 463.051, 1153.833 458.476 C 1149.386 455.280, 1142.379 452.653, 1134.551 451.245 C 1131.752 450.742, 1125.278 446.801, 1113 438.129 C 1104.659 432.238, 1095.466 426.883, 1085.500 422.111 C 1080.550 419.741, 1075.226 417.171, 1073.669 416.401 C 1069.819 414.496, 1067.020 414.635, 1059.718 417.095 C 1053.013 419.355, 1046.390 419.155, 1040.512 416.516 C 1036.856 414.874, 1025.958 413.006, 1019.918 412.985 C 1017.488 412.977, 1013.700 412.321, 1011.500 411.529 C 1007.040 409.922, 982 409.369, 982 410.878" stroke="#81244d" fill="#81244d" fill-opacity="0.2" fill-rule="evenodd"/><path class="svg-region-BPCl" d="M 801 568.389 C 794.389 570.848, 783.700 576.501, 782.730 578.052 C 781.214 580.477, 789.820 593.155, 795.990 597.588 C 798.745 599.568, 801 601.563, 801 602.021 C 801 602.479, 803.471 605.474, 806.492 608.677 C 809.512 611.880, 814.848 617.608, 818.349 621.407 L 824.715 628.314 826.235 623.907 C 829.175 615.387, 830 609.867, 830 598.729 C 830 585.561, 829.336 582.719, 824.843 576.641 C 822.426 573.372, 819.889 571.411, 815.684 569.560 C 809.214 566.712, 806.164 566.469, 801 568.389" stroke="#83385f" fill="#83385f" fill-opacity="0.2" fill-rule="evenodd"/><path class="svg-region-BPCr" d="M 1015.268 566.420 C 1004.189 570.536, 999.552 575.443, 995.150 587.711 C 992.959 593.816, 992.949 594.070, 994.550 602.618 C 995.535 607.871, 995.920 613.048, 995.524 615.691 C 994.846 620.211, 996.284 626.427, 998.526 628.669 C 1000.356 630.498, 1012.061 618.543, 1016.632 610.177 C 1020.784 602.577, 1030.572 587.382, 1031.808 586.619 C 1032.989 585.889, 1032.647 575.030, 1031.417 574.197 C 1030.850 573.814, 1029.787 572.020, 1029.055 570.210 C 1027.745 566.972, 1024.542 563.950, 1022.527 564.052 C 1021.962 564.081, 1018.696 565.146, 1015.268 566.420" stroke="#83385f" fill="#83385f" fill-opacity="0.2" fill-rule="evenodd"/><path class="svg-region-OVl" d="M 731.500 343.175 C 729.300 343.735, 726.476 344.385, 725.225 344.622 C 723.973 344.858, 721.987 346.013, 720.812 347.188 C 719.388 348.612, 716.979 349.485, 713.588 349.807 C 710.558 350.093, 707.092 351.241, 705.018 352.644 C 701.013 355.354, 698.463 355.650, 697.638 353.500 C 696.584 350.754, 694.331 351.944, 688.900 358.113 L 683.519 364.227 668.010 363.750 C 657.096 363.414, 651.203 362.788, 648.124 361.636 C 640.543 358.801, 636.156 359.906, 641.387 363.334 C 642.700 364.194, 644.778 366.523, 646.006 368.510 C 647.980 371.703, 648.190 373.136, 647.821 380.855 L 647.404 389.588 641.057 398.044 C 637.566 402.695, 634.173 406.950, 633.518 407.500 C 632.863 408.050, 631.758 409.567, 631.064 410.871 C 629.202 414.364, 624.852 419, 623.436 419 C 621.040 419, 611.084 426.549, 608.578 430.266 C 607.150 432.384, 605.625 436.601, 605.093 439.904 C 604.119 445.948, 599.701 456, 598.018 456 C 597.496 456, 595.591 457.257, 593.785 458.794 C 590.209 461.835, 584.658 464.689, 575.829 468.025 C 572.710 469.204, 569.340 471.071, 568.342 472.175 C 566.673 474.019, 565.750 474.126, 556.965 473.497 L 547.404 472.813 543.702 476.091 C 539.950 479.412, 538.788 483, 541.465 483 C 545.226 483, 546.422 493.338, 543 496.268 C 541.392 497.645, 541 499.218, 541 504.290 C 541 507.761, 540.521 511.079, 539.936 511.664 C 539.351 512.249, 539.013 514.699, 539.186 517.107 C 539.577 522.553, 541.943 523.923, 552.317 524.708 C 559.941 525.284, 572.906 522.572, 577.820 519.373 C 582.650 516.228, 589.806 514.868, 605.555 514.101 C 626.273 513.093, 633.604 510.852, 638.593 504 C 640.396 501.525, 642.721 498.784, 643.762 497.908 C 646.098 495.942, 651.509 494, 654.649 494 C 655.977 494, 657 493.402, 657 492.625 C 657 491.869, 658.395 490.971, 660.100 490.630 C 661.805 490.289, 664.907 488.658, 666.994 487.005 C 669.080 485.352, 671.286 484, 671.894 484 C 672.502 484, 673 483.657, 673 483.237 C 673 482.817, 676.416 479.780, 680.590 476.487 C 684.765 473.194, 690.052 468.825, 692.340 466.777 C 694.628 464.729, 697.187 463.041, 698.028 463.027 C 698.868 463.012, 700.266 462.212, 701.135 461.250 C 702.004 460.288, 703.579 458.825, 704.636 458 C 715.626 449.423, 717.454 447.742, 739.230 426.183 C 742.667 422.780, 743.965 420.713, 743.980 418.619 C 743.991 417.009, 745.434 413.703, 747.253 411.119 C 749.042 408.579, 751.109 405.326, 751.846 403.891 C 752.584 402.456, 754.994 398.895, 757.203 395.976 C 759.412 393.058, 761.664 389.394, 762.207 387.835 C 762.751 386.276, 763.596 385, 764.085 385 C 764.575 385, 766.159 383.087, 767.606 380.750 C 769.053 378.413, 771.579 375.082, 773.219 373.348 C 775.704 370.723, 776.088 369.678, 775.521 367.096 C 774.818 363.893, 776.477 360.215, 780.955 355.052 C 784.885 350.521, 783.955 350, 771.928 350 L 760.857 350 761.178 347.250 C 761.481 344.660, 761.210 344.454, 756.500 343.705 C 748.075 342.366, 735.714 342.104, 731.500 343.175" stroke="#593939" fill="#593939" fill-opacity="0.2" fill-rule="evenodd"/><path class="svg-region-OVr" d="M 1198 332.426 C 1195.081 334.029, 1186.999 336.386, 1178.500 338.112 C 1175.200 338.782, 1171.724 339.715, 1170.776 340.186 C 1169.828 340.657, 1163.978 341.711, 1157.776 342.528 C 1147.364 343.900, 1146.279 344.249, 1143.618 347.093 C 1141.090 349.796, 1140.294 350.092, 1137.118 349.513 C 1135.128 349.150, 1132.193 348.211, 1130.596 347.426 C 1128.999 346.642, 1126.916 346, 1125.968 346 C 1124.994 346, 1123.702 344.694, 1123 343 C 1121.765 340.018, 1121.709 340, 1113.629 339.976 C 1109.158 339.962, 1103.700 339.542, 1101.500 339.041 C 1095.730 337.729, 1085.846 339.134, 1083.145 341.650 C 1081.929 342.783, 1077.912 344.827, 1074.217 346.192 C 1070.523 347.558, 1065.925 349.253, 1064 349.960 C 1062.075 350.667, 1057.800 351.594, 1054.500 352.021 C 1044.872 353.266, 1038.574 355.824, 1034.330 360.214 L 1030.500 364.176 1038 370.965 C 1042.125 374.699, 1046.292 378.597, 1047.260 379.627 C 1049.797 382.328, 1057.703 390.223, 1063.500 395.847 C 1066.250 398.515, 1069.895 402.282, 1071.599 404.218 C 1074.535 407.553, 1077.548 409.571, 1088 415.204 C 1091.675 417.184, 1092.782 418.466, 1094.036 422.191 C 1095.498 426.531, 1096.422 427.325, 1113.036 438.499 C 1127.711 448.369, 1131.618 450.527, 1137.500 452.013 C 1146.599 454.310, 1149.270 455.402, 1154.348 458.896 C 1160.826 463.352, 1165.455 464.910, 1174.333 465.621 C 1178.825 465.981, 1183.698 466.879, 1185.162 467.618 C 1188.731 469.418, 1192 473.729, 1192 476.635 C 1192 478.851, 1192.367 479, 1197.818 479 C 1201.017 479, 1206.980 478.111, 1211.068 477.024 C 1216.926 475.466, 1221.791 475.042, 1234.039 475.024 C 1248.092 475.002, 1249.956 475.206, 1253.539 477.158 C 1257.036 479.063, 1259.151 479.327, 1271.587 479.408 C 1288.126 479.516, 1291 478.632, 1291 473.437 C 1291 469.882, 1289.351 467.889, 1279.257 459.244 C 1274.079 454.809, 1273.072 453.413, 1272.810 450.310 C 1272.452 446.062, 1271.977 445.847, 1257.680 443.449 C 1248.607 441.926, 1243.414 439.851, 1238.384 435.737 C 1236.798 434.441, 1233.475 432.793, 1231 432.076 C 1218.602 428.486, 1208.394 420.360, 1202.353 409.275 C 1200.623 406.099, 1198.221 401.669, 1197.016 399.430 C 1195.767 397.109, 1193.305 394.542, 1191.286 393.455 C 1187.561 391.448, 1178 382.941, 1178 381.632 C 1178 381.211, 1176.859 379.371, 1175.466 377.544 C 1173.995 375.616, 1172.484 371.760, 1171.866 368.360 C 1171.281 365.137, 1170.570 361.261, 1170.287 359.747 C 1169.884 357.591, 1170.537 356.148, 1173.304 353.086 C 1175.246 350.936, 1177.338 348.237, 1177.953 347.088 C 1178.567 345.940, 1179.555 345, 1180.148 345 C 1180.741 345, 1185.338 342.682, 1190.363 339.848 C 1195.388 337.014, 1200.596 334.402, 1201.935 334.043 C 1203.274 333.685, 1204.549 332.853, 1204.768 332.195 C 1205.310 330.569, 1201.122 330.711, 1198 332.426" stroke="#593939" fill="#593939" fill-opacity="0.2" fill-rule="evenodd"/>
    </svg>