<svg xmlns="http://www.w3.org/2000/svg" width="1921" height="1027" viewBox="0 0 1921 1027" version="1.1">
    <path class="svg-region-V" d="M 788.994 161.934 C 787.615 162.354, 785.068 163.431, 783.333 164.328 C 781.599 165.225, 776.292 166.636, 771.540 167.465 C 766.787 168.294, 759.884 170.287, 756.200 171.895 C 752.515 173.503, 747.633 175.315, 745.352 175.920 C 739.765 177.404, 732.902 180.503, 729.803 182.940 C 728.406 184.039, 723.091 186.969, 717.994 189.450 C 711.067 192.821, 706.601 195.924, 700.317 201.731 C 695.693 206.004, 690.599 210.056, 688.997 210.736 C 687.395 211.415, 684.169 214.565, 681.827 217.736 C 679.486 220.906, 674.378 226.915, 670.476 231.088 C 666.574 235.262, 662.566 240.437, 661.569 242.588 C 660.572 244.740, 658.682 247.456, 657.369 248.625 C 652.309 253.126, 649 258.248, 649 261.578 C 649 263.395, 648.550 265.160, 648 265.500 C 646.347 266.522, 646.785 295, 648.500 298 C 649.286 299.375, 649.956 301.400, 649.989 302.500 C 650.022 303.600, 651.500 306.362, 653.274 308.638 C 655.048 310.914, 659.551 316.837, 663.281 321.801 L 670.061 330.825 675.781 331.305 C 678.926 331.568, 683.525 332.337, 686 333.014 C 688.475 333.691, 696.246 334.450, 703.269 334.702 C 714.718 335.112, 716.483 334.945, 720.335 333.080 C 722.698 331.936, 725.127 331, 725.732 331 C 726.338 331, 726.983 330.646, 727.167 330.214 C 727.960 328.342, 734.102 324.994, 740.541 322.923 C 754.761 318.349, 757.733 315.212, 759.045 303.389 C 760.259 292.450, 760.337 292.232, 763.189 291.828 C 764.864 291.590, 765.587 290.744, 765.816 288.750 C 766.084 286.425, 766.601 286, 769.160 286 C 771.346 286, 772.333 285.444, 772.710 284 C 772.998 282.900, 773.631 282, 774.117 282 C 774.602 282, 775 281.510, 775 280.910 C 775 279.724, 778.982 276.087, 780.340 276.033 C 780.802 276.015, 781.946 275.053, 782.883 273.896 C 784.377 272.052, 785.039 271.917, 788.248 272.803 C 791.160 273.607, 792.159 273.513, 793.131 272.343 C 793.885 271.433, 795.239 271.094, 796.676 271.455 C 798.862 272.003, 799.002 271.754, 799.035 267.269 L 799.070 262.500 803.062 267.159 L 807.054 271.818 811.277 270.233 C 813.600 269.362, 816.696 267.558, 818.159 266.225 C 820.252 264.317, 821.460 263.942, 823.836 264.464 C 826.025 264.945, 828.345 264.423, 832.274 262.564 C 835.254 261.154, 838.595 260, 839.698 260 C 840.800 260, 843.818 258.875, 846.404 257.500 C 849.994 255.591, 852.604 255, 857.441 255 C 865.206 255, 865.807 255.455, 886.191 276.750 C 888.955 279.637, 891.730 282.003, 892.358 282.006 C 892.986 282.010, 894.645 282.610, 896.044 283.340 C 899.497 285.142, 904.804 286.126, 905.448 285.084 C 905.737 284.616, 908.538 283.913, 911.672 283.522 C 918.932 282.615, 921.879 281.480, 922.727 279.265 C 924.436 274.803, 931.702 266.626, 939.180 260.750 C 941.684 258.782, 948.010 258.410, 949.728 260.128 C 950.349 260.749, 954.152 261.480, 958.178 261.753 C 963.909 262.141, 967.238 263.071, 973.500 266.033 C 981.090 269.623, 982.093 269.834, 993.087 270.158 L 1004.675 270.500 1010.087 274.672 C 1013.064 276.967, 1016.850 279.168, 1018.500 279.563 C 1025.180 281.161, 1027 282.759, 1027 287.026 C 1027 290.141, 1027.378 291.002, 1028.750 291.009 C 1029.713 291.014, 1033.650 292.080, 1037.500 293.380 L 1044.500 295.742 1045.001 301.908 C 1045.276 305.299, 1045.998 308.395, 1046.606 308.787 C 1047.213 309.179, 1048.267 311.208, 1048.948 313.297 C 1049.629 315.385, 1051.832 319.015, 1053.843 321.363 C 1055.854 323.712, 1058.545 327.021, 1059.822 328.716 C 1062.269 331.964, 1070.769 336.910, 1077.500 339.003 C 1079.700 339.687, 1082.551 341.203, 1083.835 342.373 C 1085.925 344.277, 1087.346 344.500, 1097.380 344.500 C 1106.969 344.500, 1109.004 344.211, 1111.454 342.500 C 1113.030 341.400, 1116.147 339.472, 1118.381 338.216 C 1124.290 334.894, 1126.883 332.123, 1128.201 327.724 C 1128.942 325.252, 1131.843 321.227, 1136.137 316.715 C 1140.597 312.028, 1143.800 307.539, 1145.529 303.551 C 1146.972 300.223, 1148.799 296.150, 1149.589 294.500 C 1151.950 289.573, 1154.197 279.807, 1154.077 275 C 1153.906 268.212, 1153.099 265.163, 1149.445 257.500 C 1147.609 253.650, 1145.828 249.178, 1145.487 247.563 C 1144.710 243.878, 1130.846 229.801, 1125.981 227.758 C 1124.067 226.953, 1120.518 224.091, 1118.097 221.398 C 1115.675 218.704, 1110.649 214.025, 1106.929 211 C 1103.209 207.975, 1096.866 202.760, 1092.833 199.410 C 1082.068 190.470, 1073.748 185.082, 1066.724 182.502 C 1060.227 180.116, 1047.730 174.972, 1042.391 172.487 C 1040.681 171.691, 1035.956 170.763, 1031.891 170.425 C 1027.826 170.087, 1021.962 169.132, 1018.859 168.304 C 1014.287 167.083, 1008.410 166.887, 987.859 167.267 C 965.822 167.675, 961.713 168.003, 956.491 169.766 C 951.190 171.556, 946.765 171.881, 918.890 172.530 C 887.950 173.251, 887.112 173.219, 878.398 170.967 C 873.504 169.702, 868.984 168.276, 868.353 167.797 C 867.722 167.318, 863.830 166.547, 859.704 166.085 C 855.579 165.622, 851.611 164.877, 850.886 164.430 C 850.162 163.982, 846.404 163.517, 842.535 163.396 C 838.666 163.276, 834.233 162.687, 832.685 162.088 C 829.483 160.850, 792.980 160.722, 788.994 161.934" stroke="#dd8a8a" fill="#dd8a8a" fill-opacity="0.2" fill-rule="evenodd"/><path class="svg-region-SV" d="M 849.018 255.740 C 848.203 256.060, 846.951 256.906, 846.236 257.621 C 845.521 258.336, 843.263 259.212, 841.218 259.567 C 839.173 259.923, 835.127 261.309, 832.226 262.647 C 828.460 264.385, 826.020 264.907, 823.697 264.471 C 821.089 263.982, 819.900 264.364, 817.709 266.394 C 816.206 267.787, 813.124 269.482, 810.861 270.160 L 806.746 271.393 802.903 266.946 L 799.060 262.500 799.030 267.225 C 799 271.884, 798.960 271.942, 796.144 271.379 C 794.116 270.973, 793.117 271.252, 792.700 272.339 C 792.215 273.605, 791.461 273.690, 788.350 272.831 C 785.024 271.913, 784.389 272.036, 782.883 273.896 C 781.946 275.053, 780.802 276.015, 780.340 276.033 C 778.982 276.087, 775 279.724, 775 280.910 C 775 281.510, 774.580 282, 774.067 282 C 773.554 282, 772.849 282.900, 772.500 284 C 772.060 285.387, 770.987 286, 768.999 286 C 766.616 286, 766.080 286.463, 765.816 288.750 C 765.571 290.887, 764.905 291.569, 762.830 291.809 C 760.263 292.106, 760.134 292.414, 759.490 299.809 C 759.121 304.039, 758.495 308.850, 758.099 310.500 C 757.177 314.333, 749.253 320.447, 743.246 321.960 C 737.578 323.387, 730.868 326.543, 728.184 329.043 C 727.029 330.120, 725.416 331, 724.601 331 C 721.642 331, 722.096 332.854, 725.896 336.287 C 728.030 338.215, 731.288 340.109, 733.138 340.496 C 740.235 341.983, 756.257 347.038, 762.733 349.834 C 767.345 351.825, 771.889 352.933, 777 353.312 C 784.333 353.855, 792.572 356.537, 800.110 360.835 C 801.975 361.898, 805.476 363.060, 807.891 363.418 C 810.306 363.776, 817.216 366.528, 823.246 369.534 L 834.209 375 850.060 375 C 865.795 375, 865.958 374.977, 872.540 371.833 L 879.170 368.666 883.872 370.357 C 888.192 371.910, 889.222 371.924, 896.537 370.524 C 908.678 368.201, 916.877 368.563, 929.500 371.978 C 939.440 374.668, 941.986 374.957, 955.918 374.977 C 972.876 375.002, 982.279 373.839, 988.739 370.917 C 991.071 369.863, 994.082 369, 995.430 369 C 996.779 369, 998.175 368.526, 998.533 367.947 C 999.338 366.644, 1001.455 367.251, 1001.625 368.833 C 1001.694 369.475, 1001.806 370.248, 1001.875 370.551 C 1001.944 370.854, 1003.462 370.011, 1005.250 368.679 C 1007.038 367.346, 1009.625 366.010, 1011 365.710 C 1013.876 365.083, 1021.467 362.809, 1028 360.618 C 1039.181 356.868, 1052.078 353.829, 1058.499 353.430 C 1066.829 352.913, 1073.040 350.995, 1079.355 346.990 C 1086.129 342.694, 1085.775 342.015, 1074.500 337.685 C 1070.650 336.206, 1066.338 334.210, 1064.919 333.248 C 1059.585 329.636, 1048 314.078, 1048 310.527 C 1048 310.159, 1047.325 309.182, 1046.500 308.357 C 1045.537 307.394, 1045 304.923, 1045 301.454 C 1045 296.515, 1044.753 295.924, 1042.127 294.566 C 1040.547 293.748, 1039.015 293.318, 1038.724 293.609 C 1038.433 293.900, 1037.363 293.665, 1036.347 293.085 C 1035.331 292.506, 1032.925 291.662, 1031 291.209 C 1027.939 290.488, 1027.458 289.953, 1027.168 286.946 C 1026.729 282.392, 1025.836 281.491, 1020.231 279.942 C 1017.629 279.224, 1013.061 276.805, 1010.080 274.568 L 1004.660 270.500 992.580 269.955 C 981.227 269.443, 980.041 269.188, 972.865 265.705 C 967.086 262.900, 963.980 262, 960.083 262 C 957.252 262, 953.320 261.325, 951.346 260.500 C 946.578 258.508, 941.911 258.604, 939.180 260.750 C 931.702 266.626, 924.436 274.803, 922.727 279.265 C 921.857 281.536, 918.679 282.711, 911.071 283.571 C 907.707 283.952, 904.740 284.612, 904.477 285.038 C 903.902 285.967, 900.650 285.312, 896.349 283.401 C 894.616 282.630, 892.815 282, 892.347 282 C 891.181 282, 883.515 274.498, 877.687 267.653 C 875.041 264.544, 872.498 262, 872.037 262 C 871.577 262, 869.625 260.425, 867.700 258.500 C 864.358 255.158, 863.890 255.004, 857.350 255.079 C 853.582 255.122, 849.833 255.420, 849.018 255.740" stroke="#c666b5" fill="#c666b5" fill-opacity="0.2" fill-rule="evenodd"/><path class="svg-region-AAB" d="M 998 368 C 997.175 368.533, 995.708 368.976, 994.739 368.985 C 993.771 368.993, 991.071 369.863, 988.739 370.917 C 982.292 373.833, 972.894 375.001, 955.918 374.994 C 941.866 374.988, 939.570 374.725, 930 372.023 C 917.906 368.608, 908.523 368.168, 896.566 370.456 C 889.748 371.761, 888.443 371.746, 884.010 370.314 C 879.092 368.726, 879.028 368.734, 872.782 371.704 L 866.500 374.691 841.500 375.365 C 815.620 376.063, 809.482 376.911, 802.500 380.754 C 796.666 383.964, 795.114 385.390, 793.942 388.613 C 793.217 390.608, 791.440 392.181, 788.192 393.706 C 783.763 395.783, 772 406.072, 772 407.868 C 772 408.322, 771.212 409.621, 770.250 410.754 C 769.288 411.887, 767.825 413.808, 767 415.022 C 766.175 416.237, 764.712 418.263, 763.750 419.523 C 762.787 420.784, 762 422.219, 762 422.712 C 762 423.205, 760.650 425.737, 759 428.339 C 757.350 430.941, 756 433.509, 756 434.046 C 756 434.583, 755.067 437.007, 753.926 439.434 C 752.786 441.860, 751.998 445.118, 752.176 446.673 C 752.485 449.369, 752.767 449.514, 758.244 449.800 C 761.870 449.989, 765.189 449.539, 767.244 448.580 C 769.035 447.744, 773.191 446.369, 776.480 445.525 C 783.767 443.654, 791.012 441.031, 792.903 439.578 C 794.488 438.361, 803.213 437.325, 819.801 436.385 L 831.101 435.744 831.677 432.865 C 832.421 429.144, 837.399 424.827, 845.798 420.618 C 852.457 417.282, 860.788 415.111, 874.838 413.052 C 878.874 412.460, 883.149 411.432, 884.338 410.766 C 887.046 409.250, 894.772 407.103, 897.730 407.044 C 901.260 406.974, 908 403.921, 908 402.391 C 908 401.626, 908.429 401, 908.953 401 C 910.368 401, 915 403.229, 915 403.911 C 915 404.235, 916.688 404.586, 918.750 404.692 C 920.813 404.797, 928.125 405.323, 935 405.860 C 941.875 406.397, 948.400 406.874, 949.500 406.920 C 950.600 406.965, 953.525 408.819, 956 411.038 C 961.421 415.899, 967.961 418.993, 972.877 419.021 C 976.530 419.042, 985.118 420.801, 992.500 423.040 C 994.700 423.708, 1003.933 424.577, 1013.017 424.973 C 1022.101 425.368, 1030.426 426.171, 1031.517 426.756 C 1035.850 429.081, 1044.411 432, 1046.895 432 C 1048.341 432, 1053.069 433.125, 1057.401 434.500 C 1066.359 437.343, 1084.003 438.172, 1083.997 435.750 C 1083.994 434.621, 1075.339 426.701, 1062.814 416.366 C 1060.236 414.240, 1058.099 411.766, 1058.064 410.869 C 1057.975 408.595, 1052.062 403.038, 1049.021 402.369 C 1044.168 401.301, 1043.449 400.967, 1036.500 396.547 C 1025.813 389.749, 1018.530 384.096, 1012.969 378.282 C 1009.098 374.235, 1007.225 373, 1004.959 373 C 1002.338 373, 1002 372.657, 1002 370 C 1002 366.905, 1000.700 366.255, 998 368" stroke="#7f3c1a" fill="#7f3c1a" fill-opacity="0.2" fill-rule="evenodd"/><path class="svg-region-APB" d="M 1049 434.261 C 1049 436.185, 1059.524 456.740, 1065.507 466.500 C 1066.855 468.700, 1068.975 472.467, 1070.217 474.871 C 1071.459 477.275, 1075.068 482.179, 1078.238 485.769 C 1081.407 489.359, 1084.013 493.242, 1084.028 494.398 C 1084.047 495.853, 1085.355 497.154, 1088.278 498.625 C 1091.432 500.213, 1092.628 501.478, 1093.006 503.625 C 1093.728 507.723, 1096.983 507.854, 1102.348 504.002 C 1106.552 500.983, 1112.847 499.276, 1122 498.673 C 1123.925 498.546, 1126.063 498.091, 1126.750 497.662 C 1128.459 496.595, 1128.323 493.513, 1126.500 492 C 1125.675 491.315, 1125 489.532, 1125 488.037 C 1125 486.228, 1123.708 484, 1121.140 481.381 C 1119.017 479.215, 1116.531 475.994, 1115.615 474.222 C 1114.698 472.450, 1113.546 471, 1113.054 471 C 1112.561 471, 1110.378 469.237, 1108.202 467.083 C 1106.026 464.929, 1102.320 462.184, 1099.967 460.983 C 1097.614 459.783, 1093.469 457.046, 1090.755 454.900 C 1088.041 452.755, 1084.947 451, 1083.879 451 C 1082.811 451, 1081.678 450.325, 1081.362 449.500 C 1081.045 448.675, 1080.272 447.985, 1079.643 447.967 C 1078.033 447.920, 1074.931 445.134, 1071.606 440.750 C 1070.042 438.688, 1067.975 437, 1067.012 437 C 1066.049 437, 1062.443 436.100, 1059 435 C 1051.766 432.689, 1049 432.484, 1049 434.261 M 766 449 C 765.175 449.533, 762.138 449.976, 759.250 449.985 C 753.872 450, 753.547 450.189, 748.896 456 C 746.964 458.413, 746.916 458.421, 747.515 456.250 C 747.967 454.610, 747.710 454, 746.567 454 C 745.705 454, 745 454.632, 745 455.405 C 745 456.178, 743.049 457.953, 740.666 459.350 C 738.282 460.747, 734.794 463.748, 732.916 466.019 C 731.037 468.290, 727.025 472.736, 724 475.900 C 713.706 486.666, 709.959 491.357, 711.094 492.058 C 712.600 492.989, 710.125 497.407, 705.133 502.700 L 701.172 506.900 705.836 508.672 C 708.401 509.647, 712.525 511.468, 715 512.718 C 717.475 513.969, 720.486 514.994, 721.691 514.996 C 722.896 514.998, 724.139 515.415, 724.452 515.923 C 724.766 516.431, 726.365 517.141, 728.005 517.501 C 730.213 517.986, 731.671 517.617, 733.628 516.078 C 735.363 514.713, 737.731 514, 740.526 514 C 744.103 514, 744.875 513.641, 745.359 511.750 C 745.930 509.520, 755.246 498.706, 764.093 490.002 C 766.710 487.427, 769.235 483.768, 769.963 481.492 C 770.666 479.296, 771.637 477.072, 772.121 476.550 C 772.604 476.027, 773 472.498, 773 468.708 C 773 463.330, 772.561 461.257, 771 459.273 C 769.694 457.612, 769 455.216, 769 452.365 C 769 447.852, 768.552 447.350, 766 449" stroke="#ac7444" fill="#ac7444" fill-opacity="0.2" fill-rule="evenodd"/><path class="svg-region-DB" d="M 1079.425 347.070 C 1074.062 350.627, 1065.957 353.074, 1059.376 353.125 C 1055.242 353.157, 1049.848 354.188, 1043.893 356.087 C 1038.867 357.689, 1034.023 359.004, 1033.127 359.009 C 1032.232 359.014, 1027 360.580, 1021.500 362.488 C 1016 364.397, 1010.625 365.968, 1009.555 365.979 C 1007.627 366, 1002 370.623, 1002 372.187 C 1002 372.634, 1003.254 373, 1004.788 373 C 1006.821 373, 1008.917 374.375, 1012.538 378.083 C 1017.725 383.398, 1026.860 390.742, 1031.679 393.475 C 1033.231 394.354, 1036.975 396.630, 1040 398.533 C 1043.025 400.435, 1046.417 401.994, 1047.538 401.996 C 1048.659 401.998, 1051.134 403.310, 1053.038 404.912 C 1055.687 407.140, 1057.164 407.694, 1059.329 407.271 C 1061.905 406.768, 1064.255 407.129, 1077.861 410.125 C 1081.362 410.895, 1082.707 410.767, 1084.681 409.473 C 1087.963 407.323, 1095.726 405.024, 1099.750 405.011 C 1103.045 405, 1103.485 404.428, 1102.393 401.582 C 1101.921 400.351, 1100.256 400, 1094.893 400 C 1089.309 400, 1087.616 399.616, 1085.978 397.978 C 1084.154 396.154, 1084.021 395.152, 1084.613 387.728 C 1084.974 383.203, 1085.704 378.949, 1086.235 378.276 C 1086.766 377.604, 1088.731 376.766, 1090.600 376.415 C 1093.782 375.818, 1094 375.526, 1094 371.843 C 1094 369.596, 1095.042 365.952, 1096.428 363.348 C 1097.763 360.839, 1098.602 358.126, 1098.291 357.317 C 1097.593 355.496, 1093.823 354, 1089.935 354 C 1087.011 354, 1085.703 351.599, 1088.177 350.774 C 1089.822 350.226, 1088.386 348.251, 1085.112 346.558 C 1082.627 345.273, 1082.058 345.324, 1079.425 347.070 M 756.012 351.707 C 752.993 351.935, 749.843 352.699, 749.012 353.406 C 748.180 354.113, 745.397 355.684, 742.828 356.898 L 738.155 359.103 738.660 364.302 C 739.129 369.133, 738.931 369.747, 735.850 373 C 730.658 378.484, 729.878 380.451, 732.132 382.381 C 733.172 383.272, 734.411 384, 734.886 384 C 736.082 384, 737.001 389.175, 736.995 395.875 C 736.991 400.835, 736.606 401.914, 733.737 405 C 731.947 406.925, 729.137 409.625, 727.492 411 C 725.846 412.375, 722.735 415.916, 720.577 418.869 C 717.584 422.967, 716.637 425.216, 716.578 428.369 C 716.504 432.307, 716.633 432.491, 719.350 432.298 C 723.433 432.009, 740.444 426.389, 746.423 423.355 C 749.841 421.620, 753.433 420.695, 757.414 420.525 C 761.374 420.356, 763.686 419.764, 764.414 418.732 C 765.011 417.885, 766.175 416.207, 767 415.003 C 767.825 413.799, 769.288 411.887, 770.250 410.754 C 771.212 409.621, 772 408.361, 772 407.953 C 772 406.210, 783.900 395.782, 788.226 393.736 C 791.606 392.136, 793.288 390.608, 794.135 388.365 C 796.611 381.806, 810.616 376.047, 824.168 376.016 C 827.836 376.007, 831.520 375.738, 832.356 375.417 C 834.519 374.587, 813.823 364.508, 807.013 363.074 C 803.995 362.439, 800.564 361.289, 799.388 360.519 C 794.296 357.182, 783.972 353.768, 776.500 352.949 C 772.100 352.467, 766.925 351.897, 765 351.683 C 763.075 351.468, 759.030 351.479, 756.012 351.707 M 1032 386.959 C 1032 388.660, 1050.877 400, 1053.709 400 C 1054.928 400, 1058.209 400.900, 1061 402 C 1066.660 404.231, 1071 404.597, 1071 402.844 C 1071 398.680, 1058.029 389, 1052.449 389 C 1051.030 389, 1049.111 388.611, 1048.184 388.136 C 1045.840 386.934, 1032 385.928, 1032 386.959" stroke="#e8b1e4" fill="#e8b1e4" fill-opacity="0.2" fill-rule="evenodd"/><path class="svg-region-IBl" d="M 751.686 421.017 C 750.138 421.481, 748.338 422.277, 747.686 422.785 C 746.239 423.913, 735.101 427.993, 725.165 431.035 C 721.130 432.270, 717.587 433.912, 717.291 434.683 C 716.995 435.454, 715.039 436.960, 712.945 438.028 C 708.132 440.483, 707.454 441.612, 709.027 444.550 C 710.619 447.526, 709.089 450.113, 702.472 455.634 C 699.924 457.760, 696.498 460.625, 694.859 462 C 692.662 463.843, 691.376 466.341, 689.968 471.500 C 687.492 480.575, 687.527 483.925, 690.149 488.838 L 692.299 492.864 696.297 491.264 C 699.667 489.916, 701.011 489.856, 704.838 490.879 L 709.380 492.094 713.940 486.832 C 716.448 483.938, 721.087 479.110, 724.250 476.102 C 727.413 473.095, 730 470.099, 730 469.445 C 730 467.872, 737.942 460.599, 741.886 458.559 C 743.599 457.673, 745 456.285, 745 455.474 C 745 454.663, 745.705 454, 746.567 454 C 747.710 454, 747.967 454.610, 747.515 456.250 C 746.916 458.421, 746.964 458.413, 748.896 456 C 749.996 454.625, 751.579 452.729, 752.412 451.786 C 753.300 450.782, 753.529 449.827, 752.964 449.477 C 751.378 448.497, 751.868 443.648, 754 439.236 C 755.100 436.959, 756 434.655, 756 434.115 C 756 433.575, 757.405 430.872, 759.123 428.109 C 760.856 425.321, 761.983 422.398, 761.655 421.542 C 761.004 419.846, 756.396 419.603, 751.686 421.017" stroke="#b10e0e" fill="#b10e0e" fill-opacity="0.2" fill-rule="evenodd"/><path class="svg-region-IBr" d="M 1091.500 406.449 C 1089.300 407.172, 1086.150 408.452, 1084.500 409.294 C 1081.825 410.659, 1080.797 410.664, 1075 409.337 C 1054.865 404.730, 1052.150 407.374, 1065.500 418.589 C 1069.350 421.823, 1074.178 426.002, 1076.229 427.875 C 1078.280 429.749, 1080.867 431.919, 1081.979 432.698 C 1086.069 435.563, 1084.471 436.897, 1076.578 437.208 L 1069.155 437.500 1071.864 441.482 C 1073.353 443.672, 1075.906 446.147, 1077.536 446.982 C 1079.166 447.817, 1080.860 449.063, 1081.300 449.750 C 1081.740 450.438, 1082.907 451, 1083.894 451 C 1084.881 451, 1086.996 452.150, 1088.594 453.556 C 1090.193 454.962, 1094.425 457.854, 1098 459.982 C 1101.575 462.110, 1106.507 465.685, 1108.960 467.926 C 1111.413 470.167, 1113.745 472, 1114.143 472 C 1114.540 472, 1115.155 472.914, 1115.510 474.031 C 1115.864 475.148, 1118.145 478.169, 1120.577 480.744 C 1123.308 483.635, 1125 486.355, 1125 487.854 C 1125 490.897, 1131.826 500, 1134.108 500 C 1135.100 500, 1136.246 498.734, 1136.867 496.953 C 1137.451 495.277, 1138.845 492.742, 1139.964 491.318 C 1141.084 489.895, 1142 487.693, 1142 486.424 C 1142 485.156, 1142.450 483.840, 1143 483.500 C 1143.550 483.160, 1144 481.360, 1144 479.500 C 1144 477.640, 1144.357 475.898, 1144.792 475.628 C 1145.228 475.359, 1145.076 471.047, 1144.455 466.047 C 1143.191 455.879, 1140.164 450.242, 1133.957 446.500 C 1132.133 445.400, 1129.259 443.003, 1127.570 441.173 C 1118.247 431.068, 1115 427.189, 1115 426.153 C 1115 425.519, 1114.640 425, 1114.201 425 C 1113.761 425, 1112.834 423.430, 1112.140 421.510 C 1111.446 419.591, 1110.343 417.436, 1109.689 416.722 C 1108.391 415.304, 1106.410 412.041, 1104.243 407.750 C 1103.094 405.476, 1102.218 405.012, 1099.177 405.067 C 1097.155 405.104, 1093.700 405.725, 1091.500 406.449" stroke="#b10e0e" fill="#b10e0e" fill-opacity="0.2" fill-rule="evenodd"/><path class="svg-region-AP" d="M 995.500 479.623 C 989.906 480.946, 986.096 481.636, 971.953 483.889 C 968.902 484.375, 962.827 485.898, 958.453 487.274 C 954.079 488.650, 946.900 490.533, 942.500 491.459 C 938.100 492.385, 932.925 493.735, 931 494.458 C 929.075 495.182, 923.449 496.298, 918.498 496.940 C 910.791 497.938, 908.962 497.882, 905.780 496.553 C 903.736 495.699, 900.394 495, 898.353 495 C 894.195 495, 888.989 493.546, 884.500 491.131 C 882.850 490.244, 877.675 489.187, 873 488.783 C 868.325 488.379, 862.771 487.759, 860.659 487.404 C 858.291 487.007, 855.921 487.239, 854.482 488.010 C 852.479 489.082, 851.775 488.968, 849.543 487.213 C 845.900 484.347, 840.121 483.618, 832.226 485.029 L 825.469 486.236 826.749 502.368 C 828.067 518.973, 829.293 523.895, 833.472 529.374 C 835.629 532.203, 835.927 533.842, 836.491 546.006 C 837.190 561.058, 836.605 563.400, 831.486 566.040 C 823.819 569.994, 823.726 570.075, 825.351 571.329 C 826.319 572.077, 827.043 574.850, 827.354 579 C 827.623 582.575, 828.397 588.213, 829.075 591.530 C 830.195 597.006, 830.110 598.131, 828.154 603.784 C 825.497 611.461, 825.480 613.060, 828 618 C 830.424 622.752, 830.466 623.954, 828.365 628.361 C 827.442 630.296, 826.992 632.815, 827.331 634.144 C 827.965 636.629, 840.051 647.484, 848.500 653.158 C 863.487 663.224, 867.083 665.061, 874.766 666.579 C 879.020 667.419, 883.400 668.521, 884.500 669.028 C 885.600 669.536, 889.875 669.935, 894 669.916 C 898.125 669.898, 905.685 669.909, 910.801 669.941 C 917.209 669.981, 921.003 669.532, 923.001 668.499 C 924.596 667.675, 927.262 667, 928.926 667 C 930.590 667, 933.425 666.102, 935.226 665.004 C 937.027 663.906, 940.236 663.006, 942.358 663.004 C 945.910 663, 946.170 663.187, 945.627 665.352 C 944.797 668.655, 945.846 669.234, 948.887 667.152 C 952.848 664.439, 967.165 657.337, 970.021 656.668 C 974.567 655.602, 989.627 645.636, 997.043 638.786 L 1004.311 632.072 1002.104 630.285 C 1000.201 628.744, 999.869 627.404, 999.698 620.565 L 999.500 612.633 1003.502 611.567 C 1010.398 609.729, 1012.242 607.391, 1007.250 606.816 C 1004.881 606.544, 1004.204 605.669, 1002.365 600.500 C 1001.191 597.200, 999.925 591.458, 999.553 587.741 C 998.983 582.036, 999.171 580.554, 1000.761 578.241 C 1001.797 576.733, 1003.404 573.849, 1004.331 571.830 C 1005.259 569.812, 1006.576 567.973, 1007.259 567.744 C 1008.371 567.371, 1004.709 562.099, 998.895 555.700 C 995.816 552.313, 994.606 548.626, 987.597 521.265 C 984.617 509.633, 985.762 501.880, 991.400 495.500 C 992.859 493.850, 994.320 491.375, 994.649 490 C 994.977 488.625, 997.311 485.363, 999.835 482.750 C 1004.782 477.630, 1004.572 477.479, 995.500 479.623 M 1016.770 603.786 C 1013.591 606.312, 1013.372 606.788, 1014.606 608.475 C 1015.361 609.509, 1016.131 610.162, 1016.316 609.927 C 1017.966 607.835, 1021.131 601.797, 1020.768 601.434 C 1020.515 601.181, 1018.716 602.239, 1016.770 603.786" stroke="#fc7143" fill="#fc7143" fill-opacity="0.2" fill-rule="evenodd"/><path class="svg-region-LPl" d="M 780.578 482.063 C 778.421 482.600, 776.171 483.404, 775.578 483.848 C 774.985 484.292, 772.404 485.429, 769.843 486.375 C 766.907 487.459, 763.580 489.852, 760.843 492.849 C 749.744 505, 745.923 509.669, 745.375 511.750 C 744.877 513.644, 744.101 514, 740.468 514 C 735.440 514, 731.028 517.105, 728.959 522.099 C 727.855 524.764, 727.925 526.391, 729.423 532.869 C 730.393 537.066, 732.382 543.156, 733.843 546.402 C 735.964 551.114, 737.206 552.596, 740 553.748 C 741.925 554.542, 745.388 557.330, 747.695 559.944 C 750.263 562.853, 755.250 566.582, 760.555 569.560 C 765.858 572.536, 770.220 575.797, 771.794 577.962 C 775.156 582.587, 780.728 587.939, 781.440 587.227 C 781.748 586.919, 782 585.607, 782 584.312 C 782 581.765, 786.116 574.803, 789.650 571.371 C 795.726 565.470, 808.295 564.519, 819.669 569.101 C 822.394 570.198, 823.444 570.120, 827.169 568.538 C 829.551 567.526, 832.803 565.336, 834.395 563.671 L 837.291 560.643 836.633 546.571 C 836.073 534.594, 835.676 532.128, 833.968 530 C 829.398 524.309, 828.110 519.437, 826.788 502.861 C 825.801 490.482, 825.150 486.526, 824 485.919 C 816.399 481.904, 815.377 481.712, 800 481.400 C 791.475 481.227, 782.735 481.525, 780.578 482.063" stroke="#d2454f" fill="#d2454f" fill-opacity="0.2" fill-rule="evenodd"/><path class="svg-region-LPr" d="M 1011.047 475.092 C 1007.552 475.777, 1005.345 477.200, 1000.797 481.701 C 997.608 484.856, 995 487.944, 995 488.562 C 995 489.181, 993.113 492.497, 990.807 495.931 C 985.686 503.559, 984.771 510.327, 987.444 520.832 C 995.033 550.667, 995.801 552.630, 1003.223 561.163 C 1008.270 566.966, 1008.357 567.014, 1010.416 565.193 C 1013.693 562.295, 1020.223 560.688, 1026.582 561.215 C 1031.271 561.604, 1032.771 562.195, 1034.669 564.402 C 1037.610 567.821, 1037.729 573.796, 1034.978 579.859 C 1031.850 586.752, 1032.574 586.728, 1039.250 579.717 C 1048.652 569.843, 1053.515 566.235, 1060.324 564.080 C 1078.304 558.390, 1085.811 553.173, 1088.014 544.837 C 1088.644 542.452, 1090.200 537.125, 1091.472 533 C 1093.426 526.665, 1093.642 524.646, 1092.863 520 C 1092.356 516.975, 1092.060 511.454, 1092.205 507.732 C 1092.468 501, 1092.451 500.952, 1089.067 498.894 C 1087.195 497.756, 1082.927 496.235, 1079.582 495.514 C 1076.237 494.793, 1069.900 493.060, 1065.500 491.663 C 1061.100 490.266, 1052.775 487.685, 1047 485.927 C 1041.225 484.170, 1035.202 481.646, 1033.616 480.318 C 1026.523 474.380, 1021.093 473.123, 1011.047 475.092" stroke="#d2454f" fill="#d2454f" fill-opacity="0.2" fill-rule="evenodd"/><path class="svg-region-Ol" d="M 441.659 343.235 C 441.022 343.639, 438.001 343.976, 434.947 343.985 C 431.893 343.993, 425.143 345.140, 419.947 346.534 C 414.751 347.927, 408.925 349.313, 407 349.613 C 405.075 349.914, 402.600 350.540, 401.500 351.005 C 400.400 351.469, 395.225 353.286, 390 355.041 C 384.775 356.796, 375.775 360.588, 370 363.467 C 360.371 368.268, 341.068 379.844, 338.397 382.420 C 337.781 383.014, 333.629 386.356, 329.169 389.846 C 317.716 398.809, 297.860 422.213, 290.846 435.016 C 289.387 437.680, 286.882 441.804, 285.280 444.180 C 283.678 446.556, 281.204 450.769, 279.783 453.542 C 276.670 459.615, 264.269 494.071, 263.423 499 C 263.093 500.925, 261.458 508.045, 259.791 514.822 L 256.759 527.144 257.287 551.822 C 257.675 569.937, 258.261 578.361, 259.492 583.500 C 260.415 587.350, 261.771 593.200, 262.506 596.500 C 264.721 606.440, 265.752 609.995, 266.792 611.278 C 267.337 611.950, 268.486 614.525, 269.346 617 C 277.728 641.119, 287.232 658.612, 305.349 683.263 C 309.002 688.235, 311.407 690.923, 327.209 707.706 C 334.633 715.590, 347.030 726.249, 357 733.320 C 362.765 737.408, 386.304 751, 387.619 751 C 387.899 751, 390.462 752.061, 393.314 753.358 C 396.166 754.655, 400.300 756.303, 402.500 757.021 C 404.700 757.739, 409.357 759.410, 412.849 760.734 C 419.577 763.287, 429.736 765.331, 444.500 767.103 C 455.784 768.458, 487.643 767.797, 490.731 766.144 C 491.958 765.487, 496.458 764.563, 500.731 764.089 C 508.926 763.180, 528.430 759.470, 529.950 758.531 C 530.442 758.227, 533.143 757.542, 535.951 757.009 C 538.759 756.477, 543.856 754.984, 547.278 753.691 C 555.668 750.521, 572.662 745, 574.026 745 C 575.004 745, 585.660 740.346, 590.236 737.920 C 591.191 737.414, 592.541 736.997, 593.236 736.994 C 593.931 736.990, 595.719 736.352, 597.208 735.575 C 598.697 734.798, 602.522 733.630, 605.708 732.979 C 611.327 731.830, 614.546 730.771, 618.323 728.829 C 619.326 728.314, 624.276 726.830, 629.323 725.531 C 634.370 724.233, 640.975 722.504, 644 721.689 C 647.025 720.874, 651.750 719.651, 654.500 718.970 C 670.322 715.056, 680.827 711.806, 686.305 709.132 C 693.075 705.827, 701.525 698.201, 707 690.454 C 708.925 687.730, 712.003 683.928, 713.841 682.004 C 717.436 678.240, 725.986 661.654, 728.534 653.500 C 735.374 631.616, 737.511 617.941, 735.880 606.500 C 735.253 602.100, 734.603 596.025, 734.437 593 C 733.836 582.075, 732.892 573.425, 731.886 569.632 C 731.321 567.505, 730.848 564.355, 730.833 562.632 C 730.792 557.715, 726.336 545.640, 721.448 537.204 C 718.993 532.967, 716.639 528.884, 716.216 528.131 C 715.793 527.378, 712.084 525.784, 707.973 524.589 C 703.863 523.395, 699.170 521.536, 697.544 520.459 C 694.737 518.598, 692.643 518.500, 655.759 518.500 C 627.176 518.500, 616.737 518.809, 616.204 519.671 C 615.806 520.315, 614.134 521.164, 612.490 521.559 C 610.845 521.953, 609.050 522.602, 608.500 523 C 607.950 523.398, 606.150 524.037, 604.500 524.420 C 600.233 525.410, 592 529.203, 592 530.178 C 592 530.630, 591.190 531, 590.200 531 C 589.210 531, 587.906 531.494, 587.303 532.097 C 586.577 532.823, 582.874 533.007, 576.353 532.643 C 562.479 531.866, 557.797 531.053, 555.500 529.020 C 554.400 528.046, 552.487 526.728, 551.250 526.090 C 549.659 525.269, 549 524.033, 549 521.866 C 549 519.751, 548.071 517.934, 546 516 C 544.350 514.459, 543 512.754, 543 512.211 C 543 511.669, 546.101 510.208, 549.891 508.966 C 556.372 506.841, 557.003 506.361, 560.481 500.901 C 562.515 497.708, 564.814 494.569, 565.590 493.926 C 570.318 490.001, 561.601 483.657, 554.637 485.955 C 552.075 486.800, 550.059 486.723, 545.903 485.620 C 529.105 481.162, 524.407 475.308, 522.935 457 C 522.471 451.225, 521.415 441.550, 520.588 435.500 C 519.761 429.450, 518.354 419.100, 517.461 412.500 C 516.555 405.810, 516.076 397.750, 516.378 394.284 C 516.704 390.536, 516.513 387.817, 515.898 387.437 C 514.144 386.353, 512.881 381.765, 512.896 376.530 C 512.904 373.763, 512.515 370.375, 512.031 369 C 511.547 367.625, 510.890 364.908, 510.570 362.962 C 510.161 360.474, 509.133 358.919, 507.104 357.721 C 505.518 356.783, 504.241 355.450, 504.267 354.758 C 504.384 351.696, 503.882 350.409, 502.211 349.487 C 495.229 345.634, 490.563 344.116, 483.500 343.397 C 473.425 342.371, 443.208 342.254, 441.659 343.235" stroke="#aa444d" fill="#aa444d" fill-opacity="0.2" fill-rule="evenodd"/><path class="svg-region-Or" d="M 1363.500 299 C 1361.850 299.420, 1358.603 299.817, 1356.284 299.882 C 1353.965 299.947, 1350.590 300.616, 1348.784 301.369 C 1344.332 303.226, 1339.392 304.918, 1334 306.434 C 1317.511 311.069, 1306.170 324.280, 1304.445 340.860 C 1304.065 344.512, 1303.504 347.924, 1303.200 348.441 C 1302.190 350.157, 1302.059 359.919, 1303.038 360.524 C 1303.596 360.868, 1304 368.631, 1304 379 C 1304 389.843, 1304.394 397.125, 1305 397.500 C 1305.558 397.845, 1306 402.491, 1306 408 C 1306 413.509, 1305.558 418.155, 1305 418.500 C 1304.450 418.840, 1304 421.305, 1304 423.978 C 1304 426.651, 1303.367 430.112, 1302.593 431.669 C 1301.818 433.226, 1300.675 435.625, 1300.052 437 C 1298.615 440.173, 1293.305 443.664, 1288.567 444.553 C 1286.551 444.932, 1284.313 445.830, 1283.594 446.549 C 1282.874 447.269, 1280.084 448.260, 1277.393 448.752 C 1274.702 449.244, 1270.576 450.863, 1268.225 452.351 C 1263.953 455.054, 1263.951 455.059, 1265.725 457.503 C 1266.701 458.849, 1268.237 460.200, 1269.139 460.507 C 1270.040 460.813, 1271.936 462.138, 1273.352 463.450 C 1274.768 464.763, 1278.460 466.573, 1281.556 467.473 C 1285.593 468.647, 1288.263 470.243, 1290.998 473.119 C 1297.284 479.727, 1297.864 481.673, 1296.162 490.464 C 1294.752 497.742, 1294.605 498, 1291.851 498 C 1290.283 498, 1289 497.550, 1289 497 C 1289 496.450, 1287.157 496, 1284.904 496 C 1280.495 496, 1275 499.089, 1275 501.568 C 1275 502.557, 1273.839 502.999, 1271.250 502.997 C 1268.548 502.995, 1265.824 501.878, 1261.500 499 C 1258.200 496.804, 1254.669 495.005, 1253.654 495.003 C 1252.639 495.001, 1250.529 494.244, 1248.965 493.320 C 1246.379 491.793, 1244.551 491.748, 1228.810 492.829 C 1206.528 494.359, 1200.971 494.293, 1198.559 492.468 C 1195.969 490.509, 1179.589 490.444, 1175.882 492.378 C 1174.354 493.176, 1167.902 494.052, 1160.382 494.484 C 1149.040 495.136, 1146.843 495.562, 1142 498.049 C 1138.975 499.602, 1134.925 501.164, 1133 501.520 C 1125.600 502.889, 1122.685 505.122, 1119.318 512 C 1115.564 519.667, 1109.403 537.709, 1108.477 543.745 C 1108.119 546.079, 1107.415 548.243, 1106.913 548.554 C 1106.411 548.864, 1106 550.921, 1106 553.125 C 1106 555.328, 1105.509 558.050, 1104.908 559.172 C 1103.456 561.885, 1103.462 581.646, 1104.915 583.397 C 1105.528 584.136, 1106.205 587.387, 1106.419 590.620 C 1106.799 596.354, 1108.004 606.284, 1110.051 620.548 C 1110.607 624.424, 1111.298 629.547, 1111.585 631.931 C 1111.877 634.354, 1112.923 636.980, 1113.955 637.883 C 1114.971 638.772, 1117.516 642.786, 1119.611 646.803 C 1121.913 651.218, 1125.512 656.086, 1128.710 659.110 C 1131.619 661.862, 1134 664.501, 1134 664.975 C 1134 665.449, 1135.688 666.877, 1137.750 668.149 C 1139.813 669.420, 1142.540 671.692, 1143.811 673.197 C 1149.767 680.250, 1169.122 689.663, 1187.657 694.521 C 1193.071 695.939, 1199.750 697.738, 1202.500 698.518 C 1210.162 700.690, 1226.199 703.900, 1239.500 705.924 C 1246.100 706.928, 1252.850 708.203, 1254.500 708.758 C 1256.150 709.313, 1259.525 710.334, 1262 711.027 C 1268.534 712.858, 1278.746 716.484, 1284.500 719.016 C 1291.881 722.265, 1300.970 725.743, 1315 730.688 C 1337.562 738.639, 1342.100 740.021, 1348.839 740.996 C 1352.503 741.527, 1358.425 742.575, 1362 743.327 C 1369.664 744.938, 1390.732 743.967, 1400.500 741.552 C 1403.800 740.736, 1408.525 739.786, 1411 739.440 C 1416.341 738.695, 1433.901 733.197, 1446.500 728.326 C 1454.727 725.146, 1478.818 713.156, 1481.718 710.798 C 1482.388 710.254, 1485.445 708.297, 1488.512 706.451 C 1506.940 695.354, 1535.117 670.287, 1544.099 657 C 1548.328 650.744, 1556 638.136, 1556 637.442 C 1556 637.257, 1557.527 633.820, 1559.393 629.803 C 1566.513 614.478, 1572.187 593.246, 1575.081 571.093 C 1576.391 561.063, 1576.348 510.181, 1575.019 497.541 C 1573.669 484.708, 1572.223 475.717, 1570.985 472.460 C 1570.443 471.035, 1569.987 468.437, 1569.971 466.685 C 1569.955 464.933, 1569.032 460.350, 1567.921 456.500 C 1566.809 452.650, 1565.205 447.025, 1564.357 444 C 1563.508 440.975, 1561.806 436.250, 1560.575 433.500 C 1559.343 430.750, 1557.799 426.316, 1557.144 423.647 C 1554.356 412.291, 1536.601 380.500, 1527.919 371.321 C 1525.213 368.460, 1523 365.494, 1523 364.730 C 1523 363.227, 1514.540 353.492, 1506.500 345.743 C 1500.514 339.974, 1482.574 327.683, 1475.536 324.529 C 1472.766 323.287, 1468.025 321.122, 1465 319.716 C 1452.624 313.966, 1448.197 312.444, 1426.500 306.483 C 1403.714 300.223, 1373.022 296.577, 1363.500 299" stroke="#aa444d" fill="#aa444d" fill-opacity="0.2" fill-rule="evenodd"/><path class="svg-region-Pl" d="M 550.500 354.734 C 545.072 355.520, 536.506 358.002, 536.212 358.874 C 535.038 362.357, 529.746 369, 528.144 369 C 525.482 369, 523.445 371.626, 524.821 373.285 C 526.197 374.942, 521.663 381, 519.047 381 C 516.341 381, 515.466 397.849, 517.411 412.500 C 518.214 418.550, 519.795 430.475, 520.924 439 C 522.053 447.525, 522.985 456.525, 522.994 459 C 523.033 469.278, 528.040 478.389, 535.606 481.945 C 544.092 485.934, 550.400 487.153, 555.498 485.789 C 559.597 484.693, 560.214 484.782, 563.052 486.880 C 565.923 489.003, 566.497 489.080, 571.143 487.966 C 576.979 486.566, 581.203 483.051, 600.148 463.832 C 607.105 456.774, 613.423 451, 614.187 451 C 614.952 451, 617.810 447.791, 620.539 443.869 C 625.787 436.326, 626.603 435.417, 631.738 431.385 C 635.429 428.487, 639 421.233, 639 416.633 C 639 413.640, 636.030 405.008, 635 405.007 C 634.725 405.006, 633.600 406.368, 632.500 408.034 C 631.400 409.699, 629.150 411.929, 627.500 412.988 C 625.850 414.048, 623.129 416.046, 621.454 417.428 L 618.408 419.942 610.954 417.379 C 599.567 413.463, 594.542 407.560, 592.544 395.750 C 591.921 392.069, 591.827 392, 587.430 392 C 583.542 392, 582.822 391.661, 581.975 389.435 C 580.700 386.081, 580.717 376.293, 582 375.500 C 584.135 374.180, 582.854 371.378, 579.250 369.485 C 577.188 368.401, 573.258 365.319, 570.519 362.635 C 562.513 354.794, 559.178 353.477, 550.500 354.734" stroke="#f9d3d3" fill="#f9d3d3" fill-opacity="0.2" fill-rule="evenodd"/><path class="svg-region-Pr" d="M 1256.950 332.096 C 1255.290 332.706, 1253.480 334.911, 1251.760 338.416 C 1250.308 341.377, 1246.506 346.582, 1243.310 349.984 C 1240.115 353.385, 1237.050 357.158, 1236.500 358.368 C 1235.950 359.578, 1234.487 361.973, 1233.250 363.689 C 1232.013 365.405, 1231 367.264, 1231 367.821 C 1231 368.378, 1230.438 369.033, 1229.750 369.277 C 1228.870 369.589, 1229.176 370.576, 1230.783 372.610 C 1234.032 376.724, 1237.255 383.893, 1236.610 385.573 C 1236.218 386.595, 1234.316 387, 1229.899 387 C 1221.146 387, 1214.041 391.883, 1211.893 399.375 C 1210.501 404.227, 1210.726 404.893, 1215.204 409.196 L 1219.409 413.236 1217.204 417.066 C 1215.827 419.460, 1215 422.582, 1215 425.392 C 1215 429.461, 1215.392 430.200, 1219.135 433.194 C 1221.410 435.012, 1224.447 437.707, 1225.885 439.182 C 1228.725 442.095, 1241.626 451, 1243.007 451 C 1243.475 451, 1244.452 451.568, 1245.179 452.263 C 1248.851 455.773, 1252.163 457, 1257.965 457 C 1261.284 457, 1264 456.597, 1264 456.104 C 1264 454.400, 1273.517 449.239, 1277.849 448.593 C 1280.241 448.236, 1282.820 447.323, 1283.579 446.564 C 1284.339 445.804, 1286.820 444.868, 1289.094 444.484 C 1291.367 444.100, 1294.131 443.046, 1295.236 442.143 C 1299.047 439.026, 1301 436.618, 1301 435.034 C 1301 434.160, 1301.624 432.554, 1302.387 431.465 C 1305.344 427.243, 1305.821 411.976, 1304.043 378.500 C 1303.488 368.050, 1303.005 357.592, 1302.969 355.260 C 1302.899 350.578, 1301.956 349.707, 1295.752 348.587 C 1293.017 348.093, 1291.608 347.144, 1290.536 345.070 C 1288.286 340.718, 1280.810 334.697, 1275.239 332.750 C 1269.880 330.877, 1261.117 330.563, 1256.950 332.096" stroke="#f9d3d3" fill="#f9d3d3" fill-opacity="0.2" fill-rule="evenodd"/><path class="svg-region-DLl" d="M 613.500 360.894 C 610.750 361.914, 603.325 365.089, 597 367.950 C 590.675 370.810, 584.825 373.422, 584 373.753 C 583.175 374.083, 582.169 374.837, 581.765 375.427 C 580.696 376.989, 580.837 386.442, 581.975 389.435 C 582.822 391.661, 583.542 392, 587.430 392 C 591.827 392, 591.921 392.069, 592.544 395.750 C 594.633 408.100, 598.677 413.058, 609.850 416.974 L 618.199 419.899 621.850 417.554 C 625.654 415.109, 629.029 411.968, 637.598 402.897 C 646.340 393.643, 649.074 390.210, 649.511 387.943 C 649.743 386.737, 650.632 384.684, 651.487 383.380 C 653.340 380.551, 652.761 377.250, 649.368 371.298 C 647.014 367.170, 646.033 366.426, 637 361.927 C 630.818 358.848, 620.266 358.384, 613.500 360.894" stroke="#b7d6d3" fill="#b7d6d3" fill-opacity="0.2" fill-rule="evenodd"/><path class="svg-region-DLr" d="M 1181.500 346.200 C 1178.200 348.078, 1172.507 354.362, 1171.162 357.609 C 1170.469 359.282, 1169.811 364.442, 1169.701 369.076 C 1169.518 376.738, 1169.734 377.816, 1172.089 381 C 1173.514 382.925, 1175.241 387.200, 1175.927 390.500 C 1177.538 398.245, 1178.200 399.435, 1181.102 399.808 C 1182.421 399.977, 1184.918 400.765, 1186.651 401.558 C 1188.384 402.351, 1190.769 403, 1191.951 403 C 1193.132 403, 1195.495 403.722, 1197.201 404.604 C 1202.979 407.592, 1212 404.504, 1212 399.538 C 1212 396.880, 1216.239 391.634, 1220.527 388.983 C 1222.718 387.629, 1225.497 387, 1229.286 387 C 1237.858 387, 1238.223 386.686, 1235.908 381.286 C 1234.835 378.782, 1232.616 375.041, 1230.978 372.973 C 1229.340 370.904, 1228 368.793, 1228 368.280 C 1228 367.768, 1226.836 366.258, 1225.412 364.924 C 1223.989 363.591, 1221.663 360.131, 1220.243 357.234 C 1218.331 353.336, 1216.297 351.064, 1212.411 348.484 L 1207.161 345 1195.331 345.030 C 1188.378 345.048, 1182.675 345.530, 1181.500 346.200" stroke="#b7d6d3" fill="#b7d6d3" fill-opacity="0.2" fill-rule="evenodd"/><path class="svg-region-OGl" d="M 569 314 C 567.625 315.076, 565.202 315.966, 563.616 315.978 C 558.760 316.015, 553.125 318.178, 549.445 321.416 C 546.467 324.037, 545.710 325.626, 544.406 331.992 C 543.563 336.112, 542.226 340.198, 541.436 341.070 C 539.644 343.051, 539.642 345.389, 541.428 350.500 L 542.825 354.500 551.734 354.500 C 561.575 354.500, 562.177 354.783, 571.901 363.968 C 576.014 367.853, 576.570 368.080, 580.401 367.446 C 582.655 367.073, 585.344 366.324, 586.375 365.782 C 587.406 365.240, 590.643 364.825, 593.568 364.860 C 598.345 364.917, 599.157 364.602, 601.542 361.768 C 604.897 357.780, 606.335 354.117, 605.129 352.628 C 603.862 351.065, 602.845 342.769, 602.963 334.966 C 603.055 328.906, 602.814 328.143, 599.636 324.430 C 595.517 319.618, 586.962 315.235, 578.047 313.370 C 574.447 312.616, 571.501 312.010, 571.500 312.022 C 571.500 312.034, 570.375 312.924, 569 314" stroke="#d66e9d" fill="#d66e9d" fill-opacity="0.2" fill-rule="evenodd"/><path class="svg-region-OGr" d="M 1226 302.262 C 1221.267 304.625, 1219.413 306.118, 1219.180 307.754 C 1219.005 308.989, 1218.524 310, 1218.111 310 C 1217.699 310, 1215.878 313.376, 1214.065 317.502 C 1210.872 324.767, 1210.764 325.812, 1212.567 332 C 1212.968 333.375, 1212.933 334.166, 1212.490 333.759 C 1211.337 332.698, 1209 334.913, 1209 337.067 C 1209 338.069, 1210.086 340.151, 1211.414 341.694 C 1213.712 344.366, 1214.226 344.496, 1222.164 344.423 C 1228.657 344.363, 1231.431 343.866, 1234.710 342.173 C 1237.026 340.978, 1239.436 340, 1240.066 340 C 1240.697 340, 1242.964 338.612, 1245.106 336.916 C 1248.911 333.902, 1249 333.684, 1249 327.374 C 1249 322.299, 1249.428 320.457, 1251 318.770 C 1252.100 317.589, 1253 315.767, 1253 314.720 C 1253 313.673, 1249.963 309.716, 1246.250 305.926 C 1238.162 297.669, 1235.984 297.275, 1226 302.262" stroke="#d66e9d" fill="#d66e9d" fill-opacity="0.2" fill-rule="evenodd"/><path class="svg-region-VOC" d="M 698.385 377.226 C 690.898 383.004, 687.002 388.220, 686.996 392.473 C 686.994 394.138, 685.869 397.714, 684.496 400.419 C 680.202 408.884, 681.711 414.980, 688.110 415.022 C 689.975 415.034, 692.625 415.924, 694 417 C 697.083 419.412, 705.765 419.690, 709.977 417.512 C 711.560 416.693, 715.068 415.851, 717.773 415.639 C 723.045 415.228, 725.096 413.907, 732.692 406.037 C 736.879 401.699, 737 401.391, 736.986 395.037 C 736.971 387.725, 736.237 384, 734.812 384 C 734.287 384, 733.182 383.325, 732.357 382.500 C 731.314 381.457, 728.757 381, 723.959 381 C 717.453 381, 716.934 380.829, 714.842 378 C 712.830 375.279, 712.095 375, 706.947 375 C 702.608 375, 700.590 375.525, 698.385 377.226 M 1088.352 376.993 C 1085.243 378.248, 1084.974 379.038, 1084.497 388.336 C 1083.893 400.097, 1084.336 400.441, 1099.259 399.782 C 1110.767 399.274, 1116.439 397.625, 1117.665 394.432 C 1117.974 393.626, 1117.924 390.545, 1117.554 387.584 C 1116.898 382.336, 1116.788 382.183, 1113.191 381.511 C 1111.161 381.131, 1108.908 380.332, 1108.185 379.734 C 1107.462 379.136, 1105.887 378.543, 1104.685 378.416 C 1103.483 378.289, 1100.700 377.705, 1098.500 377.117 C 1093.759 375.850, 1091.262 375.819, 1088.352 376.993" stroke="#ff8f93" fill="#ff8f93" fill-opacity="0.2" fill-rule="evenodd"/><path class="svg-region-OABl" d="M 908.309 401.925 C 907.735 404.121, 901.393 407, 897.129 407 C 893.865 407, 888.673 408.509, 884.849 410.568 C 883.392 411.353, 878.667 412.491, 874.349 413.097 C 848.645 416.703, 833.956 423.943, 831.012 434.456 C 830.313 436.955, 829.349 439, 828.870 439 C 828.392 439, 828 439.627, 828 440.393 C 828 441.159, 827.325 442.045, 826.500 442.362 C 825.675 442.678, 825 443.626, 825 444.469 C 825 445.311, 825.675 446, 826.500 446 C 828.735 446, 828.315 448.356, 825.629 450.879 C 824.325 452.104, 822.445 454.615, 821.452 456.459 C 819.746 459.626, 819.741 459.955, 821.346 462.406 C 823.203 465.240, 823.750 465.359, 829.149 464.104 C 832.732 463.272, 837.043 460.335, 845.999 452.626 C 848.475 450.495, 852.481 447.894, 854.901 446.847 C 857.322 445.799, 860.796 443.630, 862.620 442.028 C 865.346 439.635, 866.551 439.215, 869.377 439.674 C 873.082 440.275, 879.549 437.706, 890 431.480 C 894.336 428.896, 897.026 428.075, 902.710 427.598 C 906.676 427.266, 911.063 426.473, 912.460 425.836 C 914.948 424.703, 915 424.462, 914.994 414.089 L 914.987 403.500 911.902 401.744 C 908.918 400.045, 908.799 400.051, 908.309 401.925 M 693.683 492.526 C 689.315 494.769, 687.700 495, 676.366 495 C 664.497 495, 663.697 495.129, 660.512 497.559 C 658.666 498.966, 655.434 500.585, 653.328 501.155 C 651.223 501.725, 648.505 503.110, 647.290 504.233 C 645.149 506.210, 638.631 509.259, 628.672 512.940 C 626.017 513.922, 622.707 515.575, 621.317 516.613 C 618.822 518.475, 619.155 518.495, 646.599 518.142 C 671.554 517.822, 674.771 517.591, 677.940 515.892 C 679.881 514.852, 682.411 514, 683.561 514 C 684.711 514, 686.691 512.894, 687.961 511.541 C 689.395 510.015, 692.394 508.608, 695.871 507.830 C 700.261 506.847, 702.295 505.703, 705.283 502.538 C 708.807 498.805, 712.580 493.080, 711.824 492.615 C 710.913 492.054, 701.736 490.003, 700.236 490.026 C 699.281 490.040, 696.332 491.165, 693.683 492.526" stroke="#81244d" fill="#81244d" fill-opacity="0.2" fill-rule="evenodd"/><path class="svg-region-OABr" d="M 915.747 404.586 C 915.336 404.997, 915 409.083, 915 413.667 C 915 421.917, 915.025 422, 917.532 422 C 918.925 422, 921.680 422.675, 923.654 423.500 C 925.629 424.325, 929.648 425, 932.587 425 C 936.505 425, 939.205 425.709, 942.715 427.660 C 945.347 429.123, 948.175 430.622, 949 430.991 C 953.747 433.114, 961.531 437.416, 967.915 441.446 C 970.140 442.851, 972.260 444, 972.627 444 C 972.994 444, 975.216 445.575, 977.565 447.500 C 980.839 450.183, 982.755 451, 985.769 451 C 988.939 451, 990.978 451.966, 996.280 455.980 C 999.898 458.719, 1003.453 461.809, 1004.179 462.846 C 1004.906 463.883, 1006.963 465.053, 1008.750 465.445 L 1012 466.159 1012 458.604 C 1012 451.128, 1011.961 451.014, 1008.262 447.774 C 1006.205 445.973, 1001.447 441.266, 997.686 437.313 C 993.397 432.804, 989.761 429.887, 987.928 429.484 C 983.410 428.492, 971.727 422.501, 969.525 420.047 C 968.439 418.836, 965.177 416.723, 962.275 415.350 C 959.374 413.978, 957 412.522, 957 412.115 C 957 411.709, 955.626 410.360, 953.946 409.118 C 951.314 407.172, 948.999 406.735, 937.196 405.953 C 929.663 405.454, 921.924 404.775, 919.997 404.443 C 918.071 404.111, 916.158 404.175, 915.747 404.586 M 1168.439 469.975 C 1163.456 470.345, 1158.740 471.043, 1157.958 471.526 C 1157.177 472.009, 1153.829 473.109, 1150.519 473.972 C 1144.729 475.480, 1144.488 475.672, 1144.179 479.020 C 1144.002 480.934, 1143.439 482.928, 1142.929 483.450 C 1142.418 483.972, 1142 485.400, 1142 486.623 C 1142 487.846, 1140.943 490.119, 1139.652 491.673 C 1138.361 493.228, 1137.002 495.738, 1136.633 497.250 C 1136.086 499.493, 1136.299 500, 1137.792 500 C 1138.799 500, 1140.696 499, 1142.009 497.777 C 1144.142 495.790, 1145.986 495.457, 1159.447 494.632 C 1167.979 494.109, 1174.799 493.247, 1175.190 492.642 C 1175.572 492.051, 1180.367 491.395, 1185.938 491.172 C 1194.010 490.847, 1196.483 491.087, 1198.463 492.384 C 1199.820 493.273, 1202.970 494, 1205.465 494 C 1209.531 494, 1210 493.762, 1210 491.699 C 1210 488.752, 1202.734 477.444, 1198.216 473.360 C 1193.281 468.899, 1189.184 468.433, 1168.439 469.975" stroke="#81244d" fill="#81244d" fill-opacity="0.2" fill-rule="evenodd"/><path class="svg-region-SOTl" d="M 696.387 449.092 C 692.599 451.892, 688.600 454.645, 687.500 455.209 C 677.761 460.200, 624 498.924, 624 500.948 C 624 501.407, 622.763 502.092, 621.250 502.470 C 617.996 503.282, 615 505.768, 615 507.655 C 615 508.700, 617.400 508.995, 625.750 508.976 C 638.658 508.947, 643.358 507.984, 646.862 504.649 C 648.313 503.267, 651.607 501.610, 654.182 500.967 C 658.876 499.794, 661.655 497, 658.128 497 C 656.986 497, 655.317 495.160, 653.607 492.020 L 650.897 487.040 656.304 482.007 C 661.422 477.244, 670.021 472.013, 672.750 472.004 C 673.438 472.002, 674 471.550, 674 471 C 674 470.450, 675.350 470, 677 470 C 678.650 470, 680 470.399, 680 470.886 C 680 471.373, 681.575 472.520, 683.500 473.433 C 685.425 474.346, 687 475.523, 687 476.047 C 687 476.571, 687.430 477, 687.955 477 C 688.480 477, 689.225 475.313, 689.612 473.250 C 690.893 466.406, 692.928 463.117, 698.362 459.102 C 705.889 453.541, 711.300 447.066, 709.864 445.336 C 707.680 442.705, 703.419 443.892, 696.387 449.092 M 686.985 486.750 C 686.977 487.163, 683.834 488.850, 680 490.500 C 676.166 492.150, 673.023 493.837, 673.015 494.250 C 672.993 495.332, 689.221 495.146, 690.963 494.044 C 692.236 493.239, 692.205 492.653, 690.730 489.559 C 689.219 486.391, 687.025 484.745, 686.985 486.750" stroke="#995b45" fill="#995b45" fill-opacity="0.2" fill-rule="evenodd"/><path class="svg-region-SOTr" d="M 1032 386.894 C 1032 387.394, 1033.463 388.760, 1035.250 389.930 C 1045.860 396.875, 1049.770 399.127, 1052 399.577 C 1053.375 399.855, 1057.200 400.968, 1060.500 402.051 C 1067.263 404.271, 1071 404.553, 1071 402.844 C 1071 398.680, 1058.029 389, 1052.449 389 C 1051.030 389, 1049.111 388.612, 1048.184 388.137 C 1045.714 386.871, 1032 385.818, 1032 386.894 M 1123.280 436.250 C 1125.267 439.375, 1128.618 442.810, 1131.559 444.735 C 1138.514 449.289, 1144 456.488, 1144 461.061 C 1144 462.457, 1145.172 462.942, 1149.750 463.437 C 1162.717 464.839, 1169 465.116, 1169 464.285 C 1169 463.801, 1167.177 461.627, 1164.950 459.453 C 1162.722 457.279, 1159.272 452.988, 1157.284 449.918 C 1154.555 445.705, 1152.509 443.804, 1148.942 442.168 C 1146.343 440.976, 1143.571 440, 1142.783 440 C 1141.994 440, 1140.355 438.942, 1139.140 437.649 C 1137.925 436.355, 1135.034 434.733, 1132.715 434.044 C 1130.397 433.355, 1127.466 432.389, 1126.203 431.896 C 1124.940 431.403, 1123.014 431, 1121.924 431 C 1120.119 431, 1120.241 431.472, 1123.280 436.250" stroke="#995b45" fill="#995b45" fill-opacity="0.2" fill-rule="evenodd"/><path class="svg-region-BPCl" d="M 796.425 567.420 C 791.732 568.977, 788.588 571.748, 784.729 577.729 C 781.017 583.481, 781.104 587.871, 785 591.342 C 786.650 592.813, 788 594.420, 788 594.913 C 788 595.407, 791.298 597.419, 795.329 599.384 C 799.360 601.349, 804.201 604.004, 806.087 605.284 C 812.802 609.841, 825.602 612.654, 826.411 609.750 C 826.603 609.063, 827.571 605.947, 828.561 602.827 C 830.145 597.837, 830.210 596.451, 829.096 591.327 C 828.399 588.122, 827.530 582.375, 827.165 578.555 L 826.500 571.610 820.500 569.247 C 813.146 566.351, 802.160 565.517, 796.425 567.420" stroke="#83385f" fill="#83385f" fill-opacity="0.2" fill-rule="evenodd"/><path class="svg-region-BPCr" d="M 1014.924 562.331 C 1010.878 564.167, 1005.642 568.988, 1004 572.392 C 1003.175 574.101, 1001.667 576.728, 1000.649 578.228 C 999.111 580.496, 998.915 582.016, 999.488 587.228 C 999.867 590.678, 1001.081 596.538, 1002.186 600.250 L 1004.195 607 1008.942 607 C 1012.445 607, 1014.172 606.467, 1015.529 604.968 C 1016.541 603.850, 1018.904 601.987, 1020.780 600.827 C 1022.790 599.584, 1024.929 597.030, 1025.986 594.609 C 1026.973 592.349, 1028.754 589.481, 1029.943 588.235 C 1033.386 584.629, 1036.979 575.928, 1036.990 571.173 C 1036.998 567.717, 1036.412 566.258, 1034.077 563.923 C 1031.395 561.241, 1030.591 561.007, 1024.327 561.081 C 1020.572 561.126, 1016.341 561.688, 1014.924 562.331" stroke="#83385f" fill="#83385f" fill-opacity="0.2" fill-rule="evenodd"/><path class="svg-region-OVl" d="M 718 334.051 C 717.095 334.668, 710.538 334.959, 701.460 334.786 L 686.419 334.500 682.460 337.549 C 677.702 341.213, 672.474 343.406, 664.750 344.975 C 661.587 345.618, 659 346.561, 659 347.072 C 659 347.582, 657.677 348, 656.059 348 C 654.441 348, 652.877 348.389, 652.583 348.865 C 652.289 349.341, 647.650 349.971, 642.274 350.264 C 633.294 350.755, 627.027 352.391, 627.008 354.250 C 627.004 354.663, 625.454 355, 623.565 355 C 619.248 355, 616.191 356.168, 613 359.035 L 610.500 361.282 614 360.409 C 615.925 359.928, 620.875 359.548, 625 359.564 C 631.754 359.590, 633.221 359.976, 639.742 363.445 C 645.280 366.390, 647.541 368.263, 649.350 371.399 C 653.004 377.731, 653.393 380.639, 651.032 383.955 C 649.914 385.525, 649 387.651, 649 388.679 C 649 389.708, 646.075 393.593, 642.500 397.311 C 635.751 404.331, 634.804 406.834, 637.532 410.441 C 641.231 415.332, 636.961 428.088, 630.071 432.731 C 628.190 433.999, 625.942 436.092, 625.075 437.383 C 618.197 447.628, 615.518 451, 614.257 451 C 613.454 451, 607.105 456.764, 600.148 463.809 C 582.172 482.013, 577.470 486.072, 572.741 487.468 C 570.462 488.142, 568.125 489.547, 567.548 490.593 C 566.972 491.638, 565.375 493.911, 564 495.644 C 562.625 497.376, 560.397 500.640, 559.049 502.897 C 557.701 505.154, 555.901 507.003, 555.049 507.006 C 554.197 507.010, 552.345 507.615, 550.933 508.352 C 549.522 509.088, 547.159 509.994, 545.683 510.365 C 542.224 511.233, 542.297 512.541, 546 516 C 548.071 517.934, 549 519.751, 549 521.866 C 549 524.033, 549.659 525.269, 551.250 526.090 C 552.487 526.728, 554.400 528.046, 555.500 529.020 C 557.768 531.027, 562.177 531.783, 576.525 532.623 C 585.523 533.150, 586.907 532.996, 590.025 531.126 C 595.166 528.042, 600.655 525.633, 608.500 523.016 C 612.350 521.731, 615.725 520.415, 616 520.090 C 616.765 519.187, 622.144 516.050, 625.500 514.550 C 627.150 513.812, 630.300 512.374, 632.500 511.354 L 636.500 509.500 626.511 509.211 C 621.017 509.052, 616.100 508.500, 615.585 507.985 C 614.230 506.630, 617.626 503.241, 621.104 502.477 C 622.697 502.127, 624 501.445, 624 500.960 C 624 500.475, 627.264 497.665, 631.253 494.715 C 635.242 491.765, 639.180 488.679, 640.003 487.859 C 640.826 487.038, 642.850 485.502, 644.500 484.445 C 646.150 483.388, 653.889 478.018, 661.698 472.511 C 669.507 467.005, 679.150 460.475, 683.126 458 C 687.103 455.525, 693.263 451.363, 696.815 448.750 C 700.367 446.137, 704.337 444, 705.637 444 C 707.007 444, 708 443.406, 708 442.586 C 708 441.808, 710.220 439.806, 712.932 438.137 C 717.672 435.220, 717.822 434.990, 716.780 432.227 C 715.411 428.601, 716.302 424.983, 719.500 421.183 C 720.875 419.548, 722 417.461, 722 416.544 C 722 415.126, 721.291 414.980, 717.250 415.562 C 714.638 415.938, 710.983 416.866, 709.128 417.623 C 703.977 419.726, 696.686 419.416, 694.500 417 C 693.313 415.688, 691.420 415, 689 415 C 681.877 415, 680.013 409.034, 684.500 400.596 C 685.875 398.010, 687 394.443, 687 392.670 C 687 389.049, 688.853 385.915, 693.604 381.500 C 700.012 375.545, 701.155 375, 707.235 375 C 711.866 375, 713.199 375.359, 713.725 376.750 C 715.034 380.206, 716.825 381, 723.310 381 C 729.519 381, 729.864 380.867, 732.454 377.471 C 733.935 375.530, 736.073 373.078, 737.205 372.023 C 738.916 370.430, 739.182 369.250, 738.779 365.053 C 738.232 359.363, 738.142 359.482, 746.273 355.107 C 749.985 353.109, 753.554 351.975, 756.273 351.930 C 758.598 351.891, 761.400 351.501, 762.500 351.064 C 764.290 350.351, 764.132 350.113, 761 348.796 C 759.075 347.987, 752.550 345.901, 746.500 344.162 C 728.810 339.077, 728.229 338.849, 725.362 335.856 C 722.483 332.851, 720.484 332.361, 718 334.051" stroke="#593939" fill="#593939" fill-opacity="0.2" fill-rule="evenodd"/><path class="svg-region-OVr" d="M 1124 335.669 C 1119.862 337.077, 1115.282 339.446, 1113.415 341.144 C 1112.268 342.186, 1108.082 343.716, 1104.112 344.544 C 1100.143 345.371, 1096.131 346.420, 1095.198 346.873 C 1085.591 351.538, 1084.659 353.476, 1091.642 354.263 C 1098.935 355.085, 1100.143 357.934, 1095.837 364.154 C 1094.723 365.765, 1094 368.571, 1094 371.289 L 1094 375.770 1099.122 377.445 C 1101.939 378.367, 1104.831 378.895, 1105.549 378.620 C 1106.267 378.344, 1107.395 378.771, 1108.057 379.568 C 1108.718 380.366, 1110.976 381.292, 1113.073 381.628 C 1116.820 382.227, 1116.897 382.329, 1117.543 387.497 C 1118.553 395.578, 1116.951 397.341, 1106.500 399.652 C 1103.099 400.404, 1102.539 400.888, 1102.759 402.886 C 1103.011 405.171, 1105.837 411.994, 1106.948 413 C 1107.812 413.782, 1109.849 417.171, 1111.756 421 C 1112.715 422.925, 1113.838 424.650, 1114.250 424.833 C 1114.662 425.017, 1115 425.621, 1115 426.176 C 1115 428.131, 1118.521 431.554, 1120.187 431.218 C 1123.151 430.620, 1136.408 435.100, 1139.055 437.593 C 1140.460 438.917, 1142.302 440, 1143.147 440 C 1147.083 440, 1153.641 444.804, 1157.548 450.548 C 1159.775 453.822, 1163.312 458.300, 1165.409 460.500 L 1169.221 464.500 1162.962 464.802 C 1159.492 464.969, 1156.235 464.635, 1155.652 464.052 C 1155.073 463.473, 1152.200 463, 1149.266 463 L 1143.931 463 1144.590 468.250 C 1144.952 471.137, 1145.622 473.907, 1146.080 474.405 C 1146.568 474.937, 1149.712 474.379, 1153.705 473.051 C 1161.343 470.510, 1181.415 468.523, 1189.593 469.498 C 1193.902 470.011, 1195.297 470.751, 1198.655 474.302 C 1204.809 480.810, 1208.532 486.527, 1210.427 492.377 C 1210.969 494.052, 1211.764 494.190, 1217.768 493.651 C 1238.532 491.790, 1246.042 491.709, 1249.285 493.309 C 1251.053 494.182, 1253.634 495.127, 1255.020 495.409 C 1256.406 495.692, 1258.444 496.728, 1259.550 497.711 C 1263.212 500.970, 1267.762 503, 1271.404 503 C 1273.417 503, 1275 502.501, 1275 501.866 C 1275 499.292, 1280.468 496.002, 1284.750 496.001 C 1287.088 496.001, 1289 496.450, 1289 497 C 1289 497.550, 1290.302 498, 1291.893 498 C 1294.644 498, 1294.847 497.693, 1296.015 491.750 C 1297.811 482.610, 1297.613 481.493, 1293.135 475.563 C 1289.860 471.225, 1287.969 469.758, 1283.493 468.083 C 1280.431 466.937, 1277.470 466, 1276.915 466 C 1276.359 466, 1274.862 464.875, 1273.588 463.500 C 1272.313 462.125, 1270.830 461, 1270.290 461 C 1269.751 461, 1268.495 460.100, 1267.500 459 C 1266.049 457.397, 1264.420 457, 1259.295 457 C 1252.884 457, 1248.522 455.539, 1246.055 452.566 C 1245.340 451.705, 1244.149 451, 1243.409 451 C 1241.425 451, 1230.665 443.377, 1227.067 439.423 C 1225.353 437.541, 1223.528 436, 1223.011 436 C 1222.493 436, 1220.479 434.603, 1218.535 432.896 C 1215.483 430.217, 1215 429.185, 1215 425.345 C 1215 422.574, 1215.838 419.441, 1217.221 417.038 L 1219.441 413.179 1214.797 408.214 C 1211.633 404.831, 1209.826 403.574, 1209.130 404.270 C 1207.709 405.691, 1199.168 405.649, 1195.250 404.201 C 1188.061 401.544, 1185.353 400.727, 1182.175 400.256 C 1178.532 399.717, 1177.993 398.833, 1175.984 390.110 C 1175.302 387.146, 1173.382 382.530, 1171.717 379.852 C 1168.697 374.993, 1168.693 374.968, 1169.733 366.742 C 1170.306 362.209, 1171.064 357.802, 1171.418 356.950 C 1171.875 355.846, 1171.033 354.909, 1168.496 353.700 C 1166.536 352.765, 1164.424 352, 1163.802 352 C 1163.181 352, 1160.973 351.250, 1158.896 350.334 C 1155.187 348.698, 1155.146 348.619, 1156.556 345.891 C 1158.382 342.360, 1157.657 341.903, 1149.154 341.220 C 1145.227 340.905, 1139.701 339.526, 1135.621 337.844 C 1128.796 335.029, 1126.913 334.677, 1124 335.669" stroke="#593939" fill="#593939" fill-opacity="0.2" fill-rule="evenodd"/><path class="svg-region-ODMl" d="M 668.309 473.421 C 663.068 476.109, 651 485.877, 651 487.431 C 651 487.699, 652.234 489.962, 653.743 492.459 C 655.910 496.047, 657.052 497, 659.184 497 C 660.668 497, 662.160 496.550, 662.500 496 C 662.840 495.450, 664.817 495, 666.894 495 C 669.172 495, 673.521 493.612, 677.861 491.500 C 681.817 489.575, 685.438 488, 685.910 488 C 686.381 488, 687.038 486.988, 687.370 485.750 C 688.845 480.245, 687.384 474, 684.620 474 C 683.899 474, 682.495 473.100, 681.500 472 C 679.042 469.284, 675.665 469.648, 668.309 473.421" stroke="#999999" fill="#999999" fill-opacity="0.2" fill-rule="evenodd"/>
    </svg>