<svg xmlns="http://www.w3.org/2000/svg" width="1921" height="1027" viewBox="0 0 1921 1027" version="1.1">
    <path class="svg-region-V" d="M 989.500 151.529 C 980.150 152.210, 965.117 153.307, 956.093 153.966 C 942.425 154.964, 938.753 155.580, 934.093 157.659 C 930.327 159.340, 925.233 160.485, 918.500 161.167 C 912.895 161.734, 906.451 163.056, 903.837 164.175 C 900.080 165.783, 897.843 166.060, 892.337 165.599 C 881.948 164.728, 874.720 163.522, 872.472 162.284 C 871.194 161.580, 860.471 160.974, 843.472 160.644 C 822.613 160.240, 815.508 159.767, 812.124 158.561 C 808.857 157.395, 803.720 157, 791.844 157 C 777.109 157, 775.501 157.185, 769.970 159.513 C 766.686 160.895, 761.637 162.644, 758.750 163.401 C 738.917 168.596, 718.065 177.888, 714.143 183.279 C 713.397 184.304, 711.936 185.458, 710.898 185.842 C 708.644 186.676, 690 203.814, 690 205.052 C 690 205.525, 688.206 207.845, 686.012 210.207 C 683.819 212.568, 682.019 214.796, 682.012 215.158 C 682.006 215.520, 679.975 218.303, 677.500 221.341 C 675.025 224.379, 673 227.257, 673 227.736 C 673 228.216, 671.387 230.158, 669.415 232.054 C 667.443 233.949, 664.661 237.525, 663.233 240 C 661.805 242.475, 660.032 245.175, 659.293 246 C 657.126 248.422, 653 255.007, 653 256.044 C 653 256.570, 652.604 257, 652.119 257 C 650.714 257, 643.703 271.973, 642.772 276.960 C 640.855 287.235, 640.683 297.813, 642.376 301.379 C 643.269 303.262, 644 305.917, 644 307.279 C 644 308.641, 644.675 310.315, 645.500 311 C 646.325 311.685, 647 312.718, 647 313.297 C 647 313.876, 649.173 316.410, 651.828 318.930 C 654.484 321.449, 657.301 324.858, 658.088 326.505 C 659.185 328.800, 660.452 329.684, 663.510 330.288 C 665.704 330.721, 670.200 331.786, 673.500 332.654 C 681.981 334.884, 685.529 334.726, 693.500 331.759 C 697.350 330.326, 703.875 328.642, 708 328.017 C 724.869 325.463, 730.971 323.814, 740.101 319.344 C 745.239 316.829, 751.480 314.482, 753.971 314.129 C 758.214 313.527, 758.520 313.277, 758.819 310.172 C 758.996 308.333, 758.440 305.794, 757.569 304.464 C 755.610 301.476, 755.550 295.321, 757.435 290.810 C 758.755 287.650, 761.298 284.820, 769.587 277.286 C 771.284 275.743, 772.898 273.810, 773.173 272.990 C 773.594 271.736, 774.055 271.703, 776.086 272.779 C 778.171 273.884, 779.378 273.713, 784.940 271.529 C 788.481 270.138, 793.319 269, 795.690 269 C 799.527 269, 800 268.746, 800 266.688 C 800 265.285, 801.165 263.514, 802.965 262.184 L 805.930 259.992 810.308 263.078 L 814.686 266.164 822.346 262.082 C 826.559 259.837, 830.532 258, 831.174 258 C 831.817 258, 833.164 257.256, 834.169 256.347 C 835.869 254.808, 836.268 254.817, 839.935 256.470 C 843.175 257.932, 845.249 258.118, 851.625 257.520 C 858.547 256.872, 859.866 257.038, 863.956 259.078 C 866.796 260.494, 869.099 262.528, 870.018 264.431 C 870.951 266.363, 872.398 267.627, 873.923 267.842 C 875.256 268.030, 877.794 269.676, 879.565 271.499 C 884.357 276.434, 886.154 277.151, 889.445 275.444 C 892.817 273.695, 895.649 273.631, 901.751 275.168 C 904.790 275.933, 906.504 275.989, 906.723 275.331 C 906.934 274.698, 908.808 274.614, 911.779 275.103 C 918.745 276.250, 920 276.158, 920 274.500 C 920 273.613, 920.920 272.997, 922.250 272.993 C 924.992 272.985, 928.743 270.582, 932.777 266.250 C 934.441 264.462, 936.473 263, 937.293 263 C 938.759 263, 942 256.415, 942 253.434 C 942 252.217, 942.756 252.048, 945.750 252.595 C 947.813 252.972, 950.542 253.667, 951.815 254.140 C 953.088 254.613, 959.946 255, 967.054 255 C 977.557 255, 980.964 255.375, 985.239 256.999 C 988.265 258.149, 992.922 258.999, 996.201 258.999 C 1003.615 259, 1012.298 261.298, 1014.966 263.966 C 1017.544 266.544, 1021.171 268, 1025.014 268 C 1028.716 268, 1033.167 273.577, 1033.946 279.193 C 1034.460 282.894, 1034.881 283.343, 1039.762 285.403 C 1042.656 286.624, 1045.558 288.158, 1046.212 288.812 C 1046.865 289.465, 1049.477 290, 1052.016 290 C 1056.338 290, 1056.771 290.248, 1058.818 293.890 C 1060.619 297.095, 1060.968 299.163, 1060.801 305.640 C 1060.650 311.450, 1061.202 315.496, 1062.915 321.153 L 1065.234 328.805 1069.867 329.962 C 1072.415 330.599, 1077.724 331.992, 1081.664 333.060 C 1090.013 335.321, 1094.199 335.473, 1100.652 333.750 C 1104.396 332.750, 1105.416 332.750, 1105.749 333.750 C 1106.312 335.435, 1109.976 335.326, 1114.364 333.492 C 1116.348 332.663, 1120.139 331.520, 1122.788 330.952 C 1129.175 329.582, 1133.567 326.791, 1135.729 322.727 C 1139.402 315.825, 1141.622 312.637, 1145.649 308.477 C 1147.932 306.121, 1150.111 302.769, 1150.494 301.029 C 1150.876 299.289, 1151.818 296.658, 1152.588 295.183 C 1153.358 293.707, 1153.990 291.938, 1153.994 291.250 C 1153.997 290.563, 1154.395 290, 1154.879 290 C 1157.097 290, 1158.455 283.021, 1158.477 271.500 C 1158.497 260.892, 1158.175 258.572, 1155.699 251.500 C 1151.948 240.785, 1151.107 238.290, 1149.464 233 C 1148.695 230.525, 1146.579 226.925, 1144.761 225 C 1142.944 223.075, 1140.140 219.700, 1138.530 217.500 C 1136.920 215.300, 1134.792 212.772, 1133.801 211.883 C 1132.811 210.993, 1132 210.004, 1132 209.684 C 1132 208.237, 1127.140 204.073, 1124.752 203.474 C 1123.296 203.109, 1121.341 201.643, 1120.407 200.218 C 1119.473 198.792, 1117.537 196.634, 1116.104 195.422 C 1111.641 191.646, 1107.635 188.030, 1104 184.494 C 1102.075 182.622, 1098.700 180.351, 1096.500 179.447 C 1094.300 178.543, 1091.150 176.807, 1089.500 175.589 C 1082.964 170.764, 1068.969 164.122, 1059 161.112 C 1053.225 159.369, 1046.415 157.281, 1043.866 156.471 C 1041.317 155.662, 1037.845 155, 1036.150 155 C 1034.455 155, 1031.590 154.373, 1029.784 153.606 C 1025.452 151.767, 1015.373 149.963, 1010.440 150.145 C 1008.273 150.225, 998.850 150.848, 989.500 151.529" stroke="#dd8a8a" fill="#dd8a8a" fill-opacity="0.2" fill-rule="evenodd"/><path class="svg-region-SV" d="M 941.216 256.482 C 940.272 260.013, 939.167 261.501, 936.009 263.495 C 933.804 264.886, 932 266.453, 932 266.976 C 932 268.391, 924.830 273, 922.628 273 C 921.579 273, 920.221 273.670, 919.610 274.490 C 918.712 275.694, 917.448 275.810, 913 275.096 C 909.975 274.611, 907.263 274.592, 906.973 275.055 C 906.683 275.518, 903.433 275.381, 899.750 274.750 C 894.040 273.772, 892.561 273.839, 889.693 275.207 C 886.433 276.761, 886.227 276.730, 882.916 274.191 C 881.037 272.751, 878.798 270.799, 877.941 269.853 C 877.083 268.908, 875.107 267.814, 873.550 267.423 C 871.729 266.966, 870.344 265.722, 869.671 263.940 C 869.009 262.186, 867.003 260.357, 864.212 258.963 C 860.337 257.028, 858.856 256.842, 852.057 257.435 C 846.049 257.959, 843.413 257.749, 840.286 256.498 L 836.258 254.886 825.735 260.355 C 815.611 265.617, 815.105 265.767, 812.359 264.342 C 810.789 263.528, 808.793 262.218, 807.923 261.431 C 807.054 260.644, 805.894 260, 805.346 260 C 803.578 260, 800 264.562, 800 266.814 C 800 268.724, 799.455 269, 795.690 269 C 793.319 269, 788.505 270.126, 784.993 271.503 C 780.722 273.176, 778.273 273.673, 777.603 273.003 C 775.673 271.073, 773.145 272.029, 771 275.500 C 769.810 277.425, 768.234 279, 767.496 279 C 765.700 279, 759.195 286.665, 757.422 290.872 C 755.544 295.327, 755.586 302.729, 757.500 304.643 C 759.073 306.216, 759.489 310.722, 758.235 312.600 C 757.831 313.205, 755.681 313.937, 753.457 314.227 C 751.233 314.517, 745.110 316.848, 739.850 319.406 C 734.591 321.965, 728.885 324.236, 727.172 324.453 C 721.927 325.117, 721.882 325.909, 726.812 330.813 C 730.520 334.501, 733.722 336.396, 741.345 339.413 C 746.723 341.541, 752.558 344.333, 754.312 345.617 C 764.282 352.919, 781.104 363.607, 787.299 366.576 C 794.595 370.073, 797 370.698, 797 369.098 C 797 367.746, 802.522 366.086, 803.993 366.996 C 804.803 367.496, 805.039 368.746, 804.637 370.394 C 804.287 371.827, 803.764 374.012, 803.476 375.250 C 803.188 376.488, 803.386 378.157, 803.915 378.960 C 804.747 380.222, 805.135 380.188, 806.768 378.710 C 811.325 374.586, 819.342 378.320, 817.432 383.677 C 816.506 386.276, 815.793 386.847, 811 388.830 L 808.500 389.865 811.142 389.932 C 813.996 390.005, 820.120 385.521, 824.024 380.500 C 826.972 376.708, 838.823 367.246, 846.008 362.948 C 857.877 355.848, 857.888 355.845, 879.448 354.654 C 904.744 353.256, 932.700 353.281, 940.500 354.709 C 943.800 355.313, 949.425 356.903, 953 358.244 C 956.575 359.584, 962.875 361.248, 967 361.940 C 971.125 362.633, 980.083 364.556, 986.906 366.213 C 999.145 369.185, 1007.377 369.571, 1008.874 367.244 C 1010.966 363.989, 1018.544 365.696, 1021.252 370.031 C 1022.187 371.529, 1023.589 372, 1027.106 372 C 1033.110 372, 1036.112 374.384, 1038.967 381.419 C 1040.189 384.430, 1042.272 387.603, 1043.595 388.470 C 1047.144 390.796, 1046.691 393.813, 1042.532 395.551 C 1038.016 397.438, 1034.088 397.390, 1031.911 395.420 C 1030.951 394.550, 1029.168 393.988, 1027.949 394.170 C 1025.871 394.480, 1026.005 394.824, 1030.117 399.732 C 1034.973 405.529, 1039 406.738, 1041 403 C 1041.799 401.506, 1043.094 401, 1046.112 401 C 1053.055 401, 1058.673 393.271, 1056.300 386.985 C 1055.491 384.840, 1055.744 383.463, 1057.602 379.911 C 1058.871 377.485, 1059.930 374.775, 1059.955 373.888 C 1060.039 370.896, 1065.969 359.087, 1067.909 358.049 C 1068.967 357.482, 1070.592 354.734, 1071.520 351.941 C 1073.419 346.222, 1073.730 346.034, 1085.500 343.476 C 1097.912 340.780, 1107.938 335.605, 1105.491 333.158 C 1105.186 332.852, 1102.919 333.142, 1100.454 333.801 C 1094.087 335.504, 1089.186 335.293, 1082.405 333.025 C 1079.157 331.938, 1075.473 331.038, 1074.218 331.025 C 1072.963 331.011, 1070.426 330.369, 1068.582 329.599 C 1065.610 328.357, 1064.969 327.363, 1062.966 320.889 C 1061.327 315.595, 1060.745 311.405, 1060.854 305.681 C 1060.977 299.225, 1060.605 297.069, 1058.818 293.890 C 1056.771 290.248, 1056.338 290, 1052.016 290 C 1049.477 290, 1046.865 289.465, 1046.212 288.812 C 1045.558 288.158, 1042.656 286.624, 1039.762 285.403 C 1034.881 283.343, 1034.460 282.894, 1033.946 279.193 C 1033.167 273.577, 1028.716 268, 1025.014 268 C 1021.091 268, 1017.528 266.531, 1014.804 263.790 C 1012.057 261.025, 1004.637 259.100, 996.500 259.042 C 993.020 259.017, 988.290 258.159, 985.239 256.999 C 981.028 255.399, 977.536 254.998, 967.739 254.988 C 960.135 254.981, 953.417 254.417, 950 253.500 C 946.975 252.688, 944.031 252.018, 943.457 252.012 C 942.884 252.005, 941.875 254.017, 941.216 256.482" stroke="#c666b5" fill="#c666b5" fill-opacity="0.2" fill-rule="evenodd"/><path class="svg-region-AAB" d="M 808 391.487 C 808 392.304, 806.444 393.623, 804.542 394.418 C 802.641 395.212, 799.036 397.911, 796.533 400.415 C 794.029 402.918, 790.824 405.257, 789.410 405.612 C 787.995 405.967, 786.600 406.987, 786.310 407.879 C 785.202 411.273, 779.860 421.586, 778.217 423.500 C 777.273 424.600, 775.312 426.112, 773.860 426.860 C 771.374 428.141, 769.918 430.195, 768.622 434.250 C 768.259 435.387, 767.045 436, 765.154 436 C 763.554 436, 761.685 436.675, 761 437.500 C 760.315 438.325, 759.172 439, 758.459 439 C 757.746 439, 755.787 439.788, 754.107 440.750 C 751.265 442.378, 749.267 446.556, 749.838 449.675 C 749.956 450.321, 749.591 451.135, 749.027 451.484 C 748.462 451.833, 748 453.010, 748 454.101 C 748 455.191, 747.155 456.991, 746.121 458.100 C 743.898 460.486, 742.645 466.867, 744.063 468.576 C 744.611 469.237, 748.158 469.953, 751.944 470.167 C 757.822 470.499, 759.226 470.954, 761.551 473.278 C 763.048 474.775, 765.310 476, 766.577 476 C 767.845 476, 769.160 476.450, 769.500 477 C 769.840 477.550, 771.462 478, 773.104 478 C 777.224 478, 781 474.063, 781 469.768 C 781 463.062, 787.415 458.403, 794.982 459.613 C 797.805 460.065, 799.671 459.791, 801.374 458.675 C 803.606 457.212, 803.906 457.239, 805.545 459.049 C 806.516 460.122, 807.915 461, 808.655 461 C 809.395 461, 810 461.450, 810 462 C 810 463.593, 812.204 463.175, 816.816 460.708 C 820.760 458.599, 840 440.491, 840 438.889 C 840 438.505, 838.200 438.432, 836 438.727 C 832.283 439.225, 832 439.091, 832 436.832 C 832 433.749, 833.734 432, 836.792 432 C 838.108 432, 840.329 431.100, 841.727 430 C 843.126 428.900, 845.364 428, 846.701 428 C 849.861 428, 853 426.292, 853 424.572 C 853 423.825, 853.675 422.955, 854.500 422.638 C 856.984 421.685, 856.274 420.651, 850 416.082 C 846.700 413.679, 844 411.323, 844 410.847 C 844 410.371, 841.862 408.665, 839.250 407.056 C 836.638 405.447, 833.650 402.689, 832.612 400.927 C 829.846 396.234, 827.422 394.110, 822.355 391.938 C 816.801 389.557, 808 389.281, 808 391.487 M 1021 406.817 C 1012.792 410.890, 1006.456 413, 1002.432 413 C 997.100 413, 993.735 414.237, 990.231 417.486 C 988.301 419.277, 986.400 420, 983.628 420 C 979.735 420, 976 422.702, 976 425.518 C 976 427.547, 980.034 432, 981.872 432 C 982.822 432, 985.502 433.233, 987.827 434.741 C 991.240 436.954, 992.171 438.215, 992.663 441.294 C 993.102 444.040, 994.213 445.823, 996.636 447.672 C 998.486 449.083, 1000 450.827, 1000 451.547 C 1000 452.268, 1001.588 454.542, 1003.529 456.600 L 1007.059 460.342 1010.429 458.735 C 1012.282 457.852, 1015.431 456.822, 1017.426 456.448 C 1019.584 456.043, 1021.503 454.928, 1022.162 453.697 C 1024.294 449.714, 1025.217 449.230, 1027.956 450.660 C 1031.418 452.467, 1034.711 452.339, 1035.822 450.353 C 1036.655 448.866, 1036.954 448.854, 1038.924 450.234 C 1040.541 451.367, 1042.725 451.631, 1047.377 451.258 C 1053.307 450.782, 1053.846 450.925, 1057.207 453.877 L 1060.764 457 1072.775 457 C 1082.160 457, 1084.904 456.693, 1085.324 455.597 C 1086.802 451.747, 1079.160 436.359, 1072.372 429.518 C 1070.652 427.784, 1067.052 425.548, 1064.372 424.549 C 1061.693 423.550, 1058.600 421.976, 1057.500 421.051 C 1056.400 420.127, 1053.620 418.558, 1051.322 417.566 C 1047.177 415.776, 1045.914 413.941, 1044.562 407.750 L 1043.962 405 1034.231 405.040 C 1027.065 405.069, 1023.578 405.537, 1021 406.817" stroke="#7f3c1a" fill="#7f3c1a" fill-opacity="0.2" fill-rule="evenodd"/><path class="svg-region-APB" d="M 1085.513 454.958 C 1084.937 456.773, 1084.038 457, 1077.433 457 C 1073.345 457, 1070 457.415, 1070 457.923 C 1070 458.431, 1071.058 460.119, 1072.351 461.673 C 1075.613 465.595, 1077 468.456, 1077 471.268 C 1077 472.587, 1077.322 473.988, 1077.715 474.382 C 1078.436 475.103, 1080.522 481.852, 1081.806 487.615 C 1082.548 490.948, 1093.535 500.661, 1103.115 506.454 C 1105.850 508.108, 1108 510.147, 1108 511.087 C 1108 512.969, 1110.765 513.966, 1116.038 513.986 C 1119.029 513.998, 1120.174 513.285, 1123.442 509.376 C 1125.577 506.822, 1129.235 503.899, 1131.612 502.847 C 1136.620 500.632, 1137.392 499.685, 1136.628 496.693 C 1136.270 495.291, 1134.511 493.866, 1131.754 492.742 C 1127.897 491.170, 1126.984 490.100, 1123.124 482.626 C 1119.395 475.408, 1118.071 473.807, 1113.416 470.884 C 1110.451 469.023, 1108.020 467.201, 1108.013 466.836 C 1108.006 466.471, 1105.188 464.584, 1101.750 462.643 C 1098.313 460.702, 1094.342 458.019, 1092.927 456.681 C 1089.143 453.102, 1086.311 452.444, 1085.513 454.958 M 732.653 474.369 C 728.337 477.327, 724.060 480.884, 723.148 482.274 C 722.236 483.664, 719.773 486.421, 717.674 488.401 L 713.858 492 717.116 492 L 720.374 492 717.848 494.750 C 716.459 496.262, 714.397 498.850, 713.268 500.500 C 712.138 502.150, 708.244 505.075, 704.615 507 C 700.986 508.925, 698.020 510.725, 698.024 511 C 698.052 513.090, 700.439 514.265, 705.130 514.498 C 708.084 514.644, 711.850 515.235, 713.500 515.810 C 717.216 517.105, 727.730 519, 731.203 519 C 733.802 519, 735 517.421, 735 513.995 C 735 511.461, 739.316 506.559, 744.865 502.789 C 747.414 501.057, 751.295 497.921, 753.490 495.820 C 755.684 493.719, 757.962 492, 758.553 492 C 762.037 492, 770.502 477.546, 767.944 475.965 C 767.249 475.536, 766.186 475.375, 765.580 475.608 C 764.974 475.840, 762.993 474.673, 761.178 473.015 C 758.400 470.478, 757.054 469.998, 752.688 469.989 C 749.835 469.983, 745.925 469.756, 744 469.485 C 741.002 469.062, 739.374 469.763, 732.653 474.369" stroke="#ac7444" fill="#ac7444" fill-opacity="0.2" fill-rule="evenodd"/><path class="svg-region-PC" d="M 900 353.568 C 899.175 353.787, 889.663 354.374, 878.863 354.874 C 860.509 355.722, 858.878 355.956, 853.894 358.459 C 842.651 364.106, 825.645 376.832, 822.433 382.002 C 821.920 382.828, 819.852 384.917, 817.838 386.644 L 814.175 389.785 816.968 390.344 C 823.460 391.642, 827.768 394.413, 831.613 399.761 C 833.751 402.736, 836.706 405.802, 838.180 406.575 C 839.655 407.347, 843.212 410.234, 846.087 412.990 C 848.961 415.745, 851.811 418, 852.421 418 C 853.031 418, 856.329 415.337, 859.749 412.083 C 863.169 408.829, 867.557 405.641, 869.501 405 C 871.446 404.358, 875.986 402.296, 879.591 400.416 L 886.145 397 908.950 397 C 928.001 397, 931.960 397.247, 933 398.500 C 933.791 399.454, 936 400, 939.063 400 C 941.714 400, 944.153 400.438, 944.483 400.973 C 944.814 401.509, 946.703 402.714, 948.682 403.653 C 950.660 404.592, 954.566 407.079, 957.362 409.180 C 960.158 411.281, 962.984 413, 963.642 413 C 964.806 413, 970.996 415.978, 971.999 417.020 C 973.498 418.578, 978.672 419.998, 982.797 419.984 C 986.581 419.971, 988.162 419.385, 990.886 416.984 C 992.748 415.343, 994.323 413.976, 994.386 413.946 C 994.448 413.916, 997.883 413.536, 1002.018 413.102 C 1007.435 412.532, 1011.690 411.289, 1017.240 408.656 C 1022.145 406.328, 1026.406 405, 1028.972 405 C 1031.226 405, 1033 404.517, 1033 403.904 C 1033 401.528, 1021.759 390.107, 1017.408 388.062 C 1012.510 385.760, 999 372.987, 999 370.659 C 999 369.721, 996.656 368.626, 992.250 367.505 C 988.538 366.561, 983.507 365.161, 981.072 364.394 C 978.636 363.627, 975.391 363, 973.861 363 C 970.116 363, 954.858 359.394, 950.226 357.414 C 948.177 356.538, 944.025 355.359, 941 354.794 C 935.556 353.777, 902.892 352.800, 900 353.568" stroke="#cda789" fill="#cda789" fill-opacity="0.2" fill-rule="evenodd"/><path class="svg-region-DB" d="M 1082.329 344.002 C 1078.384 344.983, 1074.706 346.064, 1074.155 346.404 C 1073.604 346.745, 1072.433 349.192, 1071.553 351.841 C 1070.563 354.822, 1068.818 357.498, 1066.976 358.859 C 1065.339 360.070, 1064 361.616, 1064 362.295 C 1064 362.974, 1063.100 365.209, 1062 367.261 C 1060.900 369.314, 1059.980 372.007, 1059.955 373.246 C 1059.930 374.486, 1058.871 377.485, 1057.602 379.911 C 1055.744 383.463, 1055.491 384.840, 1056.300 386.985 C 1058.642 393.188, 1053.961 399.912, 1046.733 400.727 C 1041.287 401.340, 1038.308 403.745, 1041.846 404.670 C 1043.150 405.011, 1044.251 406.294, 1044.592 407.869 C 1045.810 413.487, 1047.241 415.744, 1050.598 417.345 C 1053.735 418.841, 1054.375 418.857, 1056.992 417.504 C 1058.592 416.677, 1061.900 416, 1064.343 416 C 1067.370 416, 1068.969 415.522, 1069.362 414.500 C 1069.701 413.614, 1071.203 413, 1073.028 413 C 1074.833 413, 1075.861 413.416, 1075.500 414 C 1075.122 414.612, 1076.693 415, 1079.552 415 L 1084.223 415 1083.548 411.250 C 1083.178 409.188, 1082.227 407, 1081.437 406.390 C 1079.549 404.931, 1079.604 401.574, 1081.542 399.965 C 1082.612 399.077, 1082.766 398.366, 1082.042 397.642 C 1081.469 397.069, 1081 393.616, 1081 389.969 C 1081 384.064, 1081.246 383.225, 1083.250 382.308 C 1087.930 380.164, 1092.791 379, 1097.071 378.996 C 1101.350 378.993, 1101.557 378.849, 1103.177 374.746 C 1104.099 372.411, 1105.160 368.980, 1105.535 367.121 C 1106.374 362.957, 1114.512 352.672, 1119.675 349.253 C 1125.486 345.405, 1125.536 345.251, 1121.509 343.568 C 1116.101 341.308, 1092.097 341.574, 1082.329 344.002 M 703.029 350.971 C 701.161 352.839, 701.013 353.420, 702.143 354.445 C 703.789 355.937, 713.385 359, 716.415 359 C 717.617 359, 719.140 359.540, 719.800 360.200 C 721.663 362.063, 721.219 367.906, 719 370.727 C 717.900 372.126, 717 374.559, 717 376.135 C 717 378.954, 717.091 379, 722.750 379.015 C 728.810 379.031, 736.679 380.919, 737.822 382.631 C 738.195 383.189, 739.288 383.936, 740.250 384.292 C 741.212 384.647, 742 385.626, 742 386.469 C 742 387.311, 742.374 388, 742.831 388 C 743.288 388, 744.246 389.091, 744.959 390.424 C 746.091 392.539, 745.974 393.305, 744.042 396.432 C 742.824 398.403, 740.125 401.699, 738.044 403.758 C 735.084 406.685, 734.435 407.935, 735.060 409.500 C 735.500 410.600, 735.891 413.188, 735.930 415.250 C 735.999 418.933, 736.070 419, 739.919 419 C 742.075 419, 746.586 418.296, 749.945 417.436 C 753.695 416.475, 759.610 415.939, 765.275 416.047 C 770.349 416.143, 776.525 415.999, 779 415.727 C 783.243 415.261, 783.593 414.985, 785.122 410.898 C 786.389 407.513, 787.402 406.393, 789.746 405.786 C 792.711 405.018, 795.748 402.415, 794.793 401.460 C 794.523 401.189, 789.396 403.450, 783.401 406.483 C 777.405 409.516, 771.782 411.999, 770.905 411.999 C 770.028 412, 768.459 411.059, 767.418 409.910 C 765.562 407.858, 765.563 407.793, 767.454 406.410 C 768.515 405.634, 769.710 405, 770.110 405 C 770.510 405, 771.829 403.395, 773.041 401.433 L 775.246 397.866 772.692 395.183 C 770.505 392.884, 770.308 392.189, 771.320 390.328 C 773.021 387.196, 787.759 374, 789.555 374 C 790.388 374, 792.205 373.257, 793.592 372.348 L 796.113 370.696 788.116 366.937 C 783.718 364.870, 778.073 361.770, 775.572 360.050 L 771.025 356.921 768.015 359.147 C 764.397 361.822, 754.967 362.804, 749.672 361.057 C 746.362 359.964, 739.790 353.870, 738.836 351.008 C 738.524 350.071, 734.018 349.600, 721.841 349.231 C 705.677 348.740, 705.217 348.783, 703.029 350.971" stroke="#e8b1e4" fill="#e8b1e4" fill-opacity="0.2" fill-rule="evenodd"/><path class="svg-region-IBl" d="M 775 416.001 C 773.625 416.442, 769.105 416.565, 764.954 416.275 C 760.495 415.962, 755.178 416.259, 751.954 416.998 C 748.955 417.687, 743.352 418.531, 739.506 418.875 C 732.720 419.481, 732.461 419.605, 730.855 423 L 729.200 426.500 733.330 426.819 C 735.602 426.994, 738.032 427.612, 738.730 428.191 C 740.325 429.515, 740.357 434.635, 738.807 440.432 C 737.439 445.546, 735.742 446.667, 724.259 450.036 C 720.277 451.205, 716.763 452.575, 716.450 453.080 C 716.138 453.586, 715.043 454, 714.018 454 C 712.992 454, 710.206 455.479, 707.827 457.287 C 705.447 459.095, 701.925 461.216, 700 462 C 698.075 462.785, 694.025 464.822, 691 466.528 C 686.406 469.118, 685.551 470.030, 685.810 472.065 C 685.980 473.404, 686.363 476.407, 686.660 478.737 C 687.113 482.296, 686.783 483.469, 684.600 486.064 C 683.170 487.763, 682.006 489.456, 682.012 489.827 C 682.019 490.197, 683.588 491.512, 685.498 492.750 C 689.649 495.439, 698.206 495.816, 702.636 493.506 C 704.211 492.685, 707.457 492.010, 709.849 492.006 C 713.746 492.001, 714.708 491.479, 719.099 486.995 C 721.795 484.242, 724 481.597, 724 481.116 C 724 480.119, 740.389 469, 741.860 469 C 742.390 469, 743.136 467.087, 743.518 464.750 C 743.899 462.413, 744.971 459.600, 745.901 458.500 C 747.732 456.333, 749.460 451.542, 750.410 446 C 750.843 443.477, 751.869 442.011, 754.086 440.750 C 755.778 439.788, 757.746 439, 758.459 439 C 759.172 439, 760.315 438.325, 761 437.500 C 761.685 436.675, 763.554 436, 765.154 436 C 767.045 436, 768.259 435.387, 768.622 434.250 C 769.949 430.099, 771.491 427.950, 773.913 426.878 C 777.069 425.481, 782 419.360, 782 416.839 C 782 414.850, 779.516 414.553, 775 416.001" stroke="#b10e0e" fill="#b10e0e" fill-opacity="0.2" fill-rule="evenodd"/><path class="svg-region-IBr" d="M 1057.250 417.220 C 1056.013 417.817, 1055.014 418.574, 1055.031 418.903 C 1055.090 420.024, 1059.494 422.672, 1064.372 424.520 C 1067.052 425.535, 1070.652 427.784, 1072.372 429.518 C 1076.759 433.939, 1083.002 444.168, 1084.204 448.904 C 1085.024 452.136, 1085.761 453.008, 1088.107 453.524 C 1089.698 453.873, 1091 454.567, 1091 455.065 C 1091 455.564, 1092.912 457.211, 1095.250 458.726 C 1097.588 460.242, 1099.725 461.747, 1100 462.071 C 1100.275 462.395, 1101.963 463.297, 1103.750 464.074 C 1105.537 464.852, 1107 465.799, 1107 466.180 C 1107 466.560, 1109.925 468.763, 1113.500 471.075 C 1117.075 473.387, 1120 475.836, 1120 476.518 C 1120 477.200, 1121.575 480.373, 1123.500 483.570 C 1125.425 486.767, 1127 489.702, 1127 490.092 C 1127 490.482, 1129.040 491.634, 1131.534 492.651 C 1134.534 493.874, 1136.262 495.261, 1136.642 496.750 C 1137.308 499.355, 1137.524 499.383, 1145.029 497.833 L 1150.678 496.666 1150.221 489.539 C 1149.806 483.077, 1149.956 482.322, 1151.826 481.456 L 1153.888 480.500 1151.860 474.536 C 1150.744 471.256, 1149.051 467.431, 1148.098 466.036 C 1147.144 464.641, 1145.536 460.688, 1144.524 457.250 C 1142.728 451.150, 1142.601 451, 1139.242 451 C 1136.666 451, 1134.951 450.151, 1132.425 447.625 C 1130.278 445.478, 1127.313 443.822, 1124.275 443.074 C 1121.649 442.428, 1115.867 440.088, 1111.427 437.874 C 1105.412 434.876, 1101.355 433.602, 1095.509 432.876 C 1089.314 432.107, 1086.911 431.308, 1084.082 429.078 C 1082.112 427.524, 1079.059 425.940, 1077.297 425.557 C 1072.784 424.577, 1069 421.326, 1069 418.427 C 1069 416.189, 1068.631 416.005, 1064.250 416.068 C 1061.638 416.105, 1058.487 416.624, 1057.250 417.220 M 1044 452.259 C 1044 452.952, 1044.900 454.081, 1046 454.768 C 1047.174 455.501, 1048 457.100, 1048 458.640 C 1048 462.003, 1051.273 467.310, 1054.216 468.719 C 1055.472 469.320, 1059.414 470.581, 1062.975 471.521 C 1067.189 472.633, 1070.832 474.412, 1073.405 476.615 C 1075.580 478.477, 1077.729 480, 1078.180 480 C 1079.352 480, 1079.197 475.240, 1078 474.500 C 1077.450 474.160, 1077 472.374, 1077 470.531 C 1077 468.128, 1075.862 465.739, 1072.977 462.090 C 1069.259 457.386, 1068.628 457, 1064.664 457 C 1061.203 457, 1059.819 456.420, 1057.500 454 C 1055.013 451.404, 1053.911 451, 1049.313 451 C 1045.708 451, 1044 451.405, 1044 452.259" stroke="#b10e0e" fill="#b10e0e" fill-opacity="0.2" fill-rule="evenodd"/><path class="svg-region-AP" d="M 1007.193 474.619 C 1006.560 475.751, 1004.065 476.473, 998.894 477.023 C 994.700 477.468, 989.785 478.715, 987.539 479.904 C 984.540 481.490, 981.744 482.004, 976.039 482.015 C 967.811 482.032, 961.090 483.623, 957.973 486.291 C 956.875 487.231, 955.301 488, 954.475 488 C 953.649 488, 952.191 488.402, 951.236 488.894 C 950.281 489.386, 947.025 490.298, 944 490.921 C 931.837 493.428, 929.588 494.062, 928.076 495.412 C 925.092 498.078, 899.774 497.451, 895.157 494.597 C 894.459 494.165, 891.550 493.419, 888.694 492.939 C 878.688 491.256, 877 490.763, 877 489.524 C 877 488.658, 874 488.054, 867.250 487.560 C 861.888 487.168, 853.900 485.930, 849.500 484.809 C 845.100 483.688, 838.945 482.472, 835.822 482.106 C 832.485 481.715, 829.299 480.676, 828.096 479.587 C 826.099 477.779, 825.924 477.786, 821.088 479.867 C 818.361 481.040, 815.411 482, 814.533 482 C 812.218 482, 811.461 484.886, 813.404 486.306 C 814.923 487.417, 818.734 496.870, 825.977 517.500 C 827.522 521.900, 829.724 527.525, 830.871 530 C 833.165 534.951, 833.858 548.528, 831.995 552.010 C 831.442 553.043, 827.788 557.020, 823.876 560.848 C 816.580 567.987, 816.143 569.344, 820.593 571.036 C 822.299 571.684, 824.174 574.485, 827.081 580.724 C 831.035 589.213, 831.155 589.775, 830.756 597.904 C 830.376 605.617, 830.113 606.506, 827.550 608.711 L 824.757 611.113 826.783 613.306 C 827.897 614.513, 829.526 617.242, 830.404 619.372 C 832.173 623.665, 832.562 633.535, 831 634.500 C 828.653 635.950, 830.425 639.299, 836.779 645.427 C 840.507 649.022, 846.158 653.530, 849.337 655.444 C 852.516 657.358, 856.778 660.222, 858.808 661.808 C 860.839 663.393, 865.574 666.190, 869.331 668.023 C 874.708 670.645, 876.337 671.072, 876.982 670.029 C 877.599 669.031, 879.409 668.868, 884.303 669.370 C 890.236 669.977, 891.055 669.824, 893.677 667.618 C 895.780 665.849, 898.154 665.068, 902.525 664.707 C 905.811 664.436, 909.716 663.893, 911.203 663.500 C 913.493 662.894, 914.428 663.356, 917.337 666.531 C 920.584 670.076, 921.029 670.250, 925.634 669.787 C 928.310 669.518, 932.525 668.369, 935 667.233 C 938.128 665.797, 942.662 664.962, 949.868 664.495 C 959.993 663.839, 960.550 663.672, 973.576 657.409 C 983.932 652.430, 988.161 649.779, 992.487 645.556 C 995.551 642.564, 998.945 639.835, 1000.029 639.491 C 1002.395 638.740, 1002.680 634.809, 1000.500 633 C 999.675 632.315, 999 630.881, 999 629.812 C 999 628.743, 998.499 626.932, 997.886 625.787 C 996.563 623.315, 997.953 617.854, 1000.858 614.117 C 1002.567 611.917, 1003.154 611.789, 1008.479 612.454 L 1014.248 613.175 1013.622 617.745 C 1013.003 622.260, 1013.019 622.293, 1014.989 620.510 C 1016.705 618.957, 1022 610.848, 1022 609.773 C 1022 609.569, 1020.507 609.576, 1018.682 609.789 C 1012.572 610.502, 1007.014 603.981, 1004.393 593.023 C 1001.842 582.362, 1002.949 576.132, 1008.485 570 C 1012.442 565.618, 1012.502 562.480, 1008.741 556.665 C 1003.575 548.676, 1002.999 546.619, 1003.012 536.203 C 1003.028 523.163, 1005.500 514.613, 1011.601 506.499 L 1013.857 503.499 1010.928 499.571 C 1009.318 497.411, 1008.004 494.711, 1008.010 493.572 C 1008.022 491.078, 1012.346 481.522, 1013.897 480.564 C 1014.504 480.189, 1015 478.799, 1015 477.476 C 1015 473.576, 1009.005 471.381, 1007.193 474.619" stroke="#fc7143" fill="#fc7143" fill-opacity="0.2" fill-rule="evenodd"/><path class="svg-region-LPl" d="M 775.686 484.017 C 774.138 484.481, 772.338 485.284, 771.686 485.800 C 771.034 486.317, 768.700 487.305, 766.500 487.996 C 764.300 488.687, 761.825 489.812, 761 490.496 C 760.175 491.180, 758.993 491.910, 758.372 492.120 C 757.752 492.329, 755.052 494.382, 752.372 496.681 C 749.693 498.981, 745.517 502.356, 743.093 504.181 C 735.666 509.774, 735.096 511.084, 734.356 524.249 C 733.819 533.801, 733.991 536.699, 735.275 539.749 C 736.144 541.812, 737.125 544.753, 737.455 546.284 C 738.134 549.433, 761.485 575, 763.682 575 C 764.434 575, 767.852 577.598, 771.275 580.773 C 783.195 591.828, 787.880 594.421, 785.162 588.457 C 783.391 584.569, 783.737 575.971, 785.826 571.984 C 787.144 569.470, 789.284 567.713, 793.515 565.671 L 799.378 562.843 805.439 564.533 C 808.773 565.462, 812.595 566.791, 813.933 567.485 C 816.233 568.679, 816.787 568.323, 824.156 560.904 C 828.441 556.590, 832.232 551.926, 832.580 550.539 C 833.826 545.571, 832.489 532.681, 830.225 527.856 C 828.149 523.430, 824.614 514.039, 817.762 494.750 L 814.655 486 806.077 485.984 C 801.360 485.976, 794.800 485.317, 791.500 484.520 C 784.821 482.907, 779.903 482.751, 775.686 484.017" stroke="#d2454f" fill="#d2454f" fill-opacity="0.2" fill-rule="evenodd"/><path class="svg-region-LPr" d="M 1034.210 483.429 C 1032.123 485.315, 1029.084 487.174, 1027.458 487.560 C 1022.412 488.758, 1018.289 492.709, 1014.738 499.745 C 1012.864 503.460, 1010.088 508.645, 1008.570 511.267 C 1007.052 513.889, 1005.183 518.389, 1004.417 521.267 C 1002.772 527.446, 1002.547 544.665, 1004.058 548.685 C 1006.116 554.156, 1012.444 562.940, 1013.951 562.415 C 1014.748 562.136, 1019.521 562.211, 1024.555 562.581 C 1033.577 563.243, 1033.776 563.314, 1038.355 567.518 C 1042.611 571.426, 1043 572.175, 1043 576.457 C 1043 579.028, 1042.521 582.027, 1041.935 583.121 C 1039.557 587.566, 1041.958 587.238, 1046.601 582.485 C 1053.137 575.793, 1057.085 572.921, 1065.836 568.491 C 1071.419 565.664, 1075.757 562.234, 1083.989 554.138 C 1089.939 548.287, 1095.586 541.925, 1096.539 540 C 1098.285 536.475, 1101.105 532.989, 1110.174 523.147 C 1112.887 520.202, 1114.967 517.068, 1114.797 516.182 C 1114.626 515.296, 1113.051 514.159, 1111.296 513.656 C 1109.189 513.052, 1108.002 512.024, 1107.803 510.630 C 1107.614 509.314, 1105.970 507.762, 1103.439 506.509 C 1101.206 505.404, 1095.262 501.043, 1090.232 496.817 C 1077.926 486.481, 1076.169 485.727, 1065.830 486.353 C 1061.249 486.631, 1055.621 487.159, 1053.324 487.527 C 1049.263 488.178, 1049.078 488.084, 1046.562 484.098 C 1043.172 478.728, 1039.627 478.536, 1034.210 483.429" stroke="#d2454f" fill="#d2454f" fill-opacity="0.2" fill-rule="evenodd"/><path class="svg-region-Ol" d="M 439 325.120 C 428.815 326.718, 419.540 329.197, 413 332.069 C 409.425 333.639, 402.252 336.553, 397.060 338.544 C 391.868 340.536, 385.793 343.402, 383.560 344.914 C 381.327 346.426, 378.716 347.948, 377.759 348.297 C 376.801 348.646, 370.118 352.831, 362.909 357.598 C 323.989 383.332, 288.529 429.226, 273.742 473 C 268.348 488.970, 263.500 514.875, 262.514 533 C 262.170 539.325, 261.685 548.100, 261.437 552.500 C 261.051 559.347, 262.326 575.240, 264.605 592 C 264.941 594.475, 265.779 597.175, 266.467 598 C 267.780 599.576, 270.015 608.397, 270.394 613.500 C 270.647 616.905, 271.147 618.376, 274.564 625.772 C 275.904 628.672, 277 632.011, 277 633.193 C 277 634.375, 277.601 636.053, 278.335 636.921 C 279.070 637.790, 280.276 640.075, 281.017 642 C 283.058 647.307, 288.074 656, 289.095 656 C 289.593 656, 290 657.098, 290 658.441 C 290 659.784, 290.426 661.145, 290.947 661.467 C 291.965 662.096, 298 670.769, 298 671.603 C 298 672.286, 307.985 685.687, 311.595 689.850 C 317.702 696.893, 333.743 712.507, 339.998 717.499 C 350.484 725.865, 375.527 742, 378.027 742 C 378.501 742, 382.349 743.577, 386.577 745.503 C 390.805 747.430, 399.267 750.670, 405.382 752.702 C 418.723 757.136, 415.402 756.271, 433.500 760.032 C 465.383 766.659, 505.757 764.787, 534.660 755.341 C 536.948 754.594, 540.098 753.792, 541.660 753.559 C 545.004 753.061, 555.554 749.615, 569.500 744.465 C 575 742.434, 582.425 740.094, 586 739.264 C 589.575 738.434, 593.400 737.423, 594.500 737.016 C 600.010 734.980, 604.395 734.074, 614 732.989 C 619.775 732.337, 627.686 730.989, 631.581 729.995 C 635.475 729.001, 642.225 727.642, 646.581 726.975 C 655.444 725.618, 655.667 725.556, 669.284 720.610 C 689.626 713.221, 706.991 699.759, 718.444 682.500 C 723.789 674.444, 729 663.872, 729 661.081 C 729 660.028, 729.481 659.006, 730.069 658.810 C 730.657 658.614, 731.543 655.539, 732.039 651.977 C 732.535 648.415, 733.683 642.575, 734.589 639 C 738.288 624.412, 738.039 594.111, 734.091 578.412 C 732.146 570.679, 724.967 554.509, 720.487 547.772 C 718.019 544.060, 715.995 540.456, 715.989 539.762 C 715.971 537.608, 703.543 527, 701.038 527 C 700.436 527, 697.256 525.644, 693.971 523.986 C 689.249 521.602, 688 521.292, 688 522.505 C 688 523.671, 687.341 523.880, 685.250 523.379 C 681.767 522.543, 677.315 520.318, 676.504 519.007 C 676.162 518.453, 673.771 517.984, 671.191 517.965 C 668.611 517.945, 665.375 517.286, 664 516.500 C 661.042 514.809, 642.418 514.446, 637.086 515.975 C 635.216 516.512, 628.092 517.432, 621.256 518.021 C 614.420 518.610, 608.078 519.479, 607.163 519.953 C 604.178 521.499, 589.133 527, 587.888 527 C 587.221 527, 584.547 528.366, 581.946 530.035 C 579.272 531.751, 574.884 533.449, 571.848 533.943 C 568.896 534.424, 563.686 535.758, 560.272 536.909 C 556.857 538.059, 551.597 539, 548.582 539 C 543.701 539, 542.762 538.644, 540.002 535.750 C 538.297 533.962, 535.971 530.495, 534.832 528.044 C 531.015 519.827, 534.032 508.266, 542.182 499.880 C 544.630 497.362, 547.220 493.884, 547.938 492.151 C 548.655 490.418, 549.638 489, 550.121 489 C 551.115 489, 551.319 481.995, 550.396 479.590 C 550.064 478.724, 546.857 477.110, 543.270 476.002 C 535.033 473.458, 528.857 467.484, 526.420 459.705 C 524.572 453.807, 523.026 442.050, 523.072 434.250 C 523.089 431.363, 522.696 429, 522.199 429 C 521.702 429, 521.244 426.016, 521.182 422.370 C 521.120 418.723, 520.541 414.140, 519.896 412.186 C 519.239 410.194, 518.674 402.161, 518.612 393.917 C 518.550 385.823, 518.163 379.408, 517.750 379.660 C 517.337 379.912, 517 378.291, 517 376.059 C 517 373.827, 517.450 372, 518 372 C 519.437 372, 519.232 369.237, 517.566 366.154 C 514.235 359.988, 510.271 351.316, 509.675 348.893 C 509.322 347.459, 506.432 343.611, 503.253 340.341 C 496.598 333.498, 487.777 328.745, 477.362 326.392 C 469.431 324.599, 447.045 323.857, 439 325.120" stroke="#aa444d" fill="#aa444d" fill-opacity="0.2" fill-rule="evenodd"/><path class="svg-region-Or" d="M 1365.500 298.991 C 1354.405 299.634, 1350.277 300.382, 1349 301.980 C 1348.725 302.324, 1346.025 303.640, 1343 304.904 C 1339.975 306.169, 1335.992 308.620, 1334.149 310.352 C 1330.376 313.897, 1323.621 323.462, 1322.745 326.500 C 1321.471 330.921, 1318.009 339.337, 1316.550 341.564 C 1315.697 342.865, 1315 344.560, 1315 345.330 C 1315 346.100, 1314.100 347.874, 1313 349.273 C 1311.900 350.671, 1311 352.506, 1311 353.351 C 1311 354.195, 1310.040 356.512, 1308.868 358.500 C 1306.897 361.840, 1306.788 362.973, 1307.434 373.455 C 1307.891 380.886, 1307.744 386.237, 1307.007 388.974 C 1306.160 392.121, 1306.170 393.500, 1307.051 394.562 C 1308.605 396.434, 1307.292 417.214, 1305.390 420.860 C 1304.632 422.312, 1304.010 424.475, 1304.006 425.667 C 1304.003 426.858, 1303.662 427.983, 1303.250 428.167 C 1302.838 428.350, 1300.700 432.064, 1298.500 436.421 C 1293.915 445.500, 1289.873 450.029, 1284.070 452.589 C 1281.831 453.577, 1280 454.973, 1280 455.692 C 1280 456.412, 1279.325 457, 1278.500 457 C 1277.675 457, 1277 457.675, 1277 458.500 C 1277 459.325, 1276.594 460, 1276.098 460 C 1275.602 460, 1275.040 466.150, 1274.848 473.667 C 1274.599 483.455, 1274.145 487.452, 1273.250 487.750 C 1272.563 487.979, 1272 488.774, 1272 489.516 C 1272 491.269, 1264.995 496.922, 1257.919 500.879 C 1252.387 503.973, 1252.212 504, 1237.869 504 C 1229.584 504, 1222.974 503.574, 1222.403 503.003 C 1221.036 501.636, 1203.423 501.508, 1198.500 502.829 C 1196.300 503.420, 1191.350 504.636, 1187.500 505.532 C 1183.650 506.428, 1178.105 507.852, 1175.177 508.697 C 1171.920 509.636, 1168.326 509.988, 1165.919 509.603 C 1162.179 509.005, 1152.530 511.091, 1139 515.423 C 1136.525 516.215, 1131.924 517.579, 1128.777 518.452 C 1124.429 519.658, 1121.965 521.144, 1118.527 524.632 C 1116.037 527.157, 1114 529.593, 1114 530.045 C 1114 530.497, 1112.664 533.035, 1111.032 535.684 C 1102.985 548.743, 1102.963 568.198, 1110.960 600.500 C 1111.504 602.700, 1111.708 605.850, 1111.412 607.500 C 1111.116 609.150, 1111.304 612.300, 1111.829 614.500 C 1114.143 624.191, 1116.012 630.211, 1117.949 634.206 C 1123.258 645.157, 1127.290 652.099, 1130.075 655.080 C 1131.742 656.865, 1134.211 660.211, 1135.562 662.516 C 1136.913 664.821, 1138.914 667.517, 1140.009 668.508 C 1141.104 669.499, 1142 670.915, 1142 671.655 C 1142 672.395, 1142.413 673, 1142.917 673 C 1143.421 673, 1148.415 677.388, 1154.014 682.750 C 1159.613 688.112, 1165.875 693.513, 1167.929 694.752 C 1177.525 700.539, 1189.960 703.166, 1214 704.482 C 1219.775 704.798, 1225.850 705.453, 1227.500 705.938 C 1229.150 706.423, 1233.946 707.076, 1238.158 707.389 C 1242.370 707.703, 1246.870 708.371, 1248.158 708.875 C 1249.446 709.378, 1255 710.765, 1260.500 711.957 C 1266 713.148, 1274.550 715.261, 1279.500 716.651 C 1284.450 718.042, 1290.075 719.536, 1292 719.972 C 1293.925 720.408, 1298.200 721.699, 1301.500 722.840 C 1304.800 723.981, 1310.200 725.587, 1313.500 726.409 C 1316.800 727.231, 1324.225 729.544, 1330 731.549 C 1336.316 733.742, 1343.090 735.365, 1347 735.623 C 1350.575 735.859, 1354.625 736.490, 1356 737.026 C 1364.672 740.407, 1413.150 740.343, 1428.500 736.931 C 1448.031 732.589, 1456.273 729.794, 1470.500 722.687 C 1490.133 712.880, 1506.937 701.162, 1523.852 685.483 C 1538.230 672.157, 1556.950 646.662, 1565.100 629.310 C 1569.734 619.441, 1576 603.495, 1576 601.568 C 1576 600.875, 1576.674 598.957, 1577.497 597.307 C 1579.223 593.848, 1580.331 588.610, 1583.169 570.500 C 1585.232 557.330, 1585.358 556.156, 1586.319 541 C 1587.401 523.948, 1582.942 485.325, 1577.604 465.500 C 1568.001 429.841, 1555.359 402.181, 1535.098 372.500 C 1520.931 351.747, 1502.372 332.925, 1486.884 323.602 C 1479.569 319.199, 1464.181 312, 1462.084 312 C 1461.183 312, 1459.557 311.402, 1458.473 310.671 C 1457.388 309.940, 1452.900 308.582, 1448.500 307.652 C 1444.100 306.723, 1438.475 305.447, 1436 304.817 C 1433.525 304.187, 1429.925 303.556, 1428 303.415 C 1426.075 303.274, 1418.650 302.466, 1411.500 301.620 C 1404.350 300.775, 1394.675 299.871, 1390 299.612 C 1385.325 299.352, 1380.600 298.950, 1379.500 298.718 C 1378.400 298.486, 1372.100 298.609, 1365.500 298.991" stroke="#aa444d" fill="#aa444d" fill-opacity="0.2" fill-rule="evenodd"/><path class="svg-region-Pl" d="M 537.132 356.014 C 534.730 357.757, 532.540 360.042, 532.266 361.091 C 531.991 362.141, 531.155 363, 530.406 363 C 529.658 363, 528.261 364.238, 527.302 365.750 C 526.343 367.262, 524.335 370.075, 522.839 372 C 517.243 379.204, 516.859 388.338, 520.887 418.500 C 521.989 426.750, 523.172 437.550, 523.517 442.500 C 524.918 462.624, 530.390 472.097, 542.837 475.950 C 546.779 477.170, 550.043 478.840, 550.775 480.011 C 552.280 482.421, 554.514 482.522, 558.500 480.361 C 560.150 479.466, 565.100 478.417, 569.500 478.030 C 573.949 477.638, 579.497 476.424, 582 475.295 C 584.475 474.179, 587.717 472.977, 589.204 472.625 C 593.134 471.695, 605 464.015, 605 462.402 C 605 461.647, 606.721 459.890, 608.824 458.498 C 615.214 454.269, 616.657 451.486, 617.185 442.371 C 617.574 435.642, 618.189 433.327, 620.827 428.653 C 623.562 423.807, 625.031 418, 623.523 418 C 623.260 418, 620.550 419.350, 617.500 421 C 610.927 424.556, 611 424.545, 611 422.011 C 611 419.829, 608.157 416.004, 606.528 415.994 C 605.962 415.990, 603.362 414.155, 600.750 411.916 C 596.317 408.116, 596 407.526, 596 403.078 C 596 397.763, 593.673 394.317, 588.626 392.159 L 585.753 390.930 586.189 382.620 L 586.625 374.309 582.806 372.655 C 580.705 371.745, 578.427 370.991, 577.743 370.981 C 577.059 370.970, 573.846 367.828, 570.601 363.998 C 565.820 358.354, 564.020 356.927, 561.101 356.466 C 559.121 356.153, 555.700 355.419, 553.500 354.834 C 544.464 352.434, 541.802 352.626, 537.132 356.014" stroke="#f9d3d3" fill="#f9d3d3" fill-opacity="0.2" fill-rule="evenodd"/><path class="svg-region-Pr" d="M 1267.061 342.584 C 1264.070 343.942, 1259.737 346.966, 1257.433 349.303 C 1253.226 353.570, 1253.096 353.912, 1250.365 367.869 C 1250.111 369.172, 1248.763 371.197, 1247.370 372.369 C 1238.496 379.837, 1234.108 384.433, 1232.545 387.900 C 1231.379 390.486, 1229.696 392.298, 1227.685 393.131 C 1223.216 394.982, 1218.200 399.709, 1215.721 404.405 C 1211.299 412.783, 1213.395 426.536, 1220.003 432.500 C 1221.222 433.600, 1223.751 436.805, 1225.622 439.623 C 1229.487 445.440, 1234.426 449.214, 1241.883 452.048 C 1245.931 453.586, 1249.539 454, 1258.885 454 C 1266.874 454, 1272.137 454.490, 1275 455.500 C 1280.146 457.316, 1280 457.310, 1280 455.692 C 1280 454.973, 1281.912 453.541, 1284.249 452.510 C 1286.587 451.479, 1289.672 449.480, 1291.106 448.068 C 1294.059 445.159, 1302 431.561, 1302 429.412 C 1302 428.635, 1302.410 428, 1302.912 428 C 1303.414 428, 1304.128 426.202, 1304.499 424.005 C 1304.870 421.808, 1305.530 419.790, 1305.966 419.521 C 1307.398 418.636, 1308.339 396.113, 1307.010 394.512 C 1306.089 393.402, 1306.090 392.258, 1307.014 389.458 C 1308.497 384.965, 1307.389 364.684, 1305.459 361 C 1303.393 357.056, 1289.171 344.804, 1283.735 342.286 C 1277.526 339.409, 1273.913 339.474, 1267.061 342.584" stroke="#f9d3d3" fill="#f9d3d3" fill-opacity="0.2" fill-rule="evenodd"/><path class="svg-region-DLl" d="M 611.664 356.074 C 608.455 357.179, 604.864 358.981, 603.684 360.080 C 602.505 361.178, 600.406 362.322, 599.020 362.620 C 594.033 363.694, 591.248 365.170, 590.161 367.316 C 587.567 372.435, 586.028 378.914, 586.015 384.771 C 586.001 390.668, 586.164 391.113, 588.750 392.215 C 593.598 394.282, 595.998 397.814, 596.015 402.906 C 596.024 405.432, 596.361 407.962, 596.765 408.526 C 597.920 410.138, 605.690 416, 606.672 416 C 608.178 416, 611 419.919, 611 422.011 C 611 423.105, 611.141 424, 611.313 424 C 611.727 424, 621.085 419.250, 623 418.068 C 623.825 417.558, 626.638 416.170, 629.250 414.982 C 636.224 411.810, 643 404.883, 643 400.926 C 643 398.697, 644.212 396.330, 647.150 392.820 L 651.301 387.863 649.991 379.181 C 648.701 370.634, 648.598 370.418, 643.341 365.209 C 637.287 359.209, 626.909 353.981, 621.157 354.033 C 619.146 354.052, 614.874 354.970, 611.664 356.074" stroke="#b7d6d3" fill="#b7d6d3" fill-opacity="0.2" fill-rule="evenodd"/><path class="svg-region-DLr" d="M 1191.500 347.446 C 1189.300 348.774, 1184.843 351.341, 1181.596 353.151 C 1174.532 357.090, 1172.188 361.370, 1171.301 371.953 C 1170.706 379.041, 1172.218 387.899, 1174.234 389.145 C 1174.831 389.514, 1175.525 392.284, 1175.775 395.300 C 1176.346 402.181, 1177.824 403, 1189.681 403 C 1202.048 403, 1205.593 401.708, 1207.971 396.334 C 1209.588 392.677, 1210.335 392, 1212.753 392 C 1216.614 392, 1219.834 389.591, 1218.500 387.699 C 1217.950 386.919, 1216.641 385.062, 1215.590 383.572 C 1214.035 381.366, 1213.849 380.180, 1214.590 377.182 C 1215.415 373.843, 1215.849 373.471, 1219.250 373.190 L 1223 372.879 1223 368.074 C 1223 363.601, 1222.614 362.867, 1217.414 357.455 C 1214.342 354.258, 1210.689 350.147, 1209.296 348.321 C 1206.952 345.248, 1206.342 345.001, 1201.131 345.016 C 1196.971 345.029, 1194.455 345.663, 1191.500 347.446" stroke="#b7d6d3" fill="#b7d6d3" fill-opacity="0.2" fill-rule="evenodd"/><path class="svg-region-OGl" d="M 570.500 313.229 C 568.850 313.818, 567.275 314.595, 567 314.957 C 566.725 315.318, 565.150 316.171, 563.500 316.852 C 558.614 318.870, 555.418 322.325, 553.656 327.496 C 551.788 332.980, 551.477 343.200, 553.042 347.690 C 554.233 351.106, 559.500 354.458, 565.402 355.554 C 567.736 355.988, 570.874 357.698, 573.210 359.809 C 576.835 363.083, 577.670 363.367, 584.808 363.746 C 592.108 364.133, 592.776 363.984, 597.916 360.827 C 600.894 358.997, 603.819 356.601, 604.416 355.503 C 605.012 354.405, 606.737 352.027, 608.250 350.218 C 610.627 347.376, 611 346.054, 611 340.465 C 611 336.909, 610.587 334, 610.083 334 C 609.579 334, 608.792 332.899, 608.333 331.553 C 607.875 330.207, 603.797 325.763, 599.272 321.677 C 593.174 316.172, 589.888 313.958, 586.579 313.124 C 581.127 311.751, 574.518 311.794, 570.500 313.229" stroke="#d66e9d" fill="#d66e9d" fill-opacity="0.2" fill-rule="evenodd"/><path class="svg-region-OGr" d="M 1231.500 300.799 C 1229.300 302.303, 1225.641 304.358, 1223.369 305.365 C 1221.097 306.373, 1216.875 309.589, 1213.988 312.512 L 1208.738 317.828 1209.307 323.164 C 1210.759 336.778, 1211.900 342.051, 1214.046 345.064 C 1216.795 348.925, 1221.520 351.026, 1227.218 350.921 C 1233.665 350.802, 1244.751 348.649, 1246.158 347.242 C 1246.841 346.559, 1247.922 346, 1248.559 346 C 1250.657 346, 1258.702 338.136, 1260.034 334.784 C 1260.751 332.978, 1262.422 330.592, 1263.747 329.482 C 1265.671 327.870, 1266.014 326.904, 1265.455 324.675 C 1265.069 323.141, 1263.685 321.184, 1262.377 320.328 C 1261.070 319.471, 1260 318.105, 1260 317.293 C 1260 316.481, 1259.075 314.620, 1257.944 313.158 C 1256.813 311.696, 1254.896 308.925, 1253.685 307 C 1251.303 303.215, 1242.363 298.136, 1238 298.090 C 1236.625 298.075, 1233.700 299.294, 1231.500 300.799" stroke="#d66e9d" fill="#d66e9d" fill-opacity="0.2" fill-rule="evenodd"/><path class="svg-region-OLr" d="M 1211 348.839 C 1211 350.011, 1213.466 353.427, 1216.678 356.705 C 1221.861 361.995, 1222.395 362.957, 1222.802 367.750 C 1223.165 372.022, 1222.958 373, 1221.694 373 C 1220.466 373, 1220.309 373.590, 1220.945 375.808 C 1222.987 382.928, 1226.463 387, 1230.499 387 C 1231.395 387, 1235.722 383.430, 1240.115 379.067 C 1247.884 371.350, 1250.686 366.538, 1249.459 363.023 C 1248.497 360.268, 1241.695 356.793, 1228.500 352.314 C 1210.764 346.293, 1211 346.340, 1211 348.839" stroke="#c4875d" fill="#c4875d" fill-opacity="0.2" fill-rule="evenodd"/><path class="svg-region-VOC" d="M 1102 379.022 C 1090.552 379.665, 1087.535 380.185, 1083.250 382.252 C 1081.253 383.216, 1081 384.081, 1081 389.946 C 1081 398.845, 1082.530 401, 1088.847 401 C 1094.233 401, 1104.647 398.524, 1106.880 396.713 C 1108.112 395.713, 1108.265 395.793, 1107.750 397.167 C 1106.333 400.955, 1114.935 401.039, 1119.906 397.286 C 1125.623 392.970, 1126 392.383, 1126 387.811 C 1126 381.820, 1122.441 377.923, 1117.210 378.187 C 1115.169 378.291, 1108.325 378.666, 1102 379.022 M 710.500 379.986 C 708.850 380.430, 706.347 381.051, 704.938 381.368 C 701.177 382.213, 694.347 389.391, 691.424 395.570 C 690.021 398.535, 688.452 401.221, 687.937 401.539 C 687.422 401.857, 687 403.433, 687 405.040 C 687 408.317, 686.684 408.192, 699.583 410.037 C 706.569 411.036, 708.334 410.965, 712.583 409.519 C 715.287 408.599, 721.485 407.586, 726.356 407.268 C 735.196 406.691, 735.220 406.682, 739.477 402.365 C 741.822 399.985, 744.307 396.674, 744.997 395.006 C 746.132 392.267, 746.002 391.612, 743.658 388.237 C 740.623 383.869, 738.008 382.005, 732.500 380.282 C 728.082 378.900, 715.190 378.726, 710.500 379.986" stroke="#ff8f93" fill="#ff8f93" fill-opacity="0.2" fill-rule="evenodd"/><path class="svg-region-OABl" d="M 680.760 492.219 C 680.490 493.030, 676.535 493.649, 668.927 494.072 C 662.135 494.449, 655.675 495.392, 653 496.397 C 650.526 497.327, 646.251 498.055, 643.500 498.016 C 640.750 497.976, 634.583 498.295, 629.796 498.724 C 621.453 499.473, 620.925 499.668, 617.078 503.423 C 612.709 507.690, 610 512.522, 610 516.048 C 610 518.283, 610.060 518.291, 621.750 517.696 C 628.212 517.367, 635.211 516.599, 637.302 515.988 C 642.408 514.496, 661.575 515.199, 665.781 517.032 C 668.709 518.308, 669.569 518.268, 673.781 516.659 C 676.376 515.667, 683 513.951, 688.500 512.845 C 699.551 510.622, 710.427 505.125, 713.564 500.175 C 714.496 498.704, 716.410 496.262, 717.817 494.750 L 720.374 492 713.155 492 C 709 492, 704.412 492.637, 702.346 493.500 C 697.169 495.663, 689.089 495.416, 686 493 C 683.117 490.745, 681.340 490.480, 680.760 492.219" stroke="#81244d" fill="#81244d" fill-opacity="0.2" fill-rule="evenodd"/><path class="svg-region-OABr" d="M 1167.758 476.056 C 1160.706 476.682, 1158.153 477.380, 1154.545 479.666 C 1150.177 482.434, 1150.072 482.623, 1150.037 487.816 C 1149.991 494.413, 1150.732 495.803, 1158.490 503.677 C 1165.181 510.467, 1167.019 511.087, 1174.007 508.913 C 1177.684 507.768, 1187.727 505.437, 1194.537 504.147 C 1196.757 503.726, 1199.136 503.034, 1199.824 502.609 C 1201.672 501.467, 1221.439 501.818, 1221.833 503 C 1222.017 503.550, 1223.029 504, 1224.083 504 C 1226.707 504, 1226.657 499.105, 1224 495.727 C 1222.900 494.329, 1222 492.899, 1222 492.550 C 1222 492.202, 1221.178 491.034, 1220.173 489.955 C 1219.168 488.876, 1217.059 485.360, 1215.486 482.140 L 1212.626 476.287 1200.656 475.644 C 1186.748 474.896, 1179.838 474.982, 1167.758 476.056" stroke="#81244d" fill="#81244d" fill-opacity="0.2" fill-rule="evenodd"/><path class="svg-region-SOTl" d="M 800.301 367.080 C 799.092 367.530, 797.151 368.849, 795.989 370.011 C 794.827 371.173, 791.991 372.961, 789.688 373.983 C 785.488 375.846, 773.252 386.783, 771.250 390.464 C 770.389 392.045, 770.651 392.985, 772.597 395.298 C 774.963 398.110, 774.977 398.232, 773.257 401.177 C 772.290 402.831, 770.263 404.830, 768.750 405.618 C 767.237 406.406, 766 407.420, 766 407.871 C 766 409.125, 769.487 412, 771.009 412 C 773.050 412, 794.820 401.117, 800.362 397.326 C 803.036 395.497, 805.635 394, 806.137 394 C 806.639 394, 807.481 392.865, 808.008 391.478 C 808.645 389.805, 809.993 388.751, 812.019 388.346 C 815.205 387.709, 818 384.712, 818 381.932 C 818 377.685, 810.590 375.483, 806.559 378.532 C 803.570 380.793, 802.711 380.303, 803.434 376.750 C 805.123 368.444, 805.171 367.280, 803.843 366.774 C 803.104 366.493, 801.511 366.631, 800.301 367.080 M 721.488 425.019 C 721.142 425.579, 718.665 427.149, 715.985 428.508 C 713.305 429.866, 709.174 432.777, 706.806 434.976 C 704.438 437.176, 702.233 438.981, 701.907 438.988 C 701.581 438.994, 700.255 441.060, 698.960 443.578 C 697.665 446.096, 692.872 451.690, 688.308 456.010 C 682.584 461.428, 680.197 464.350, 680.612 465.432 C 680.943 466.294, 681.616 467, 682.107 467 C 682.598 467, 683 467.675, 683 468.500 C 683 469.325, 683.271 470, 683.603 470 C 684.650 470, 704.430 459.907, 706 458.571 C 707.319 457.449, 710.254 455.811, 716.237 452.857 C 719.162 451.413, 726.416 449.030, 727.934 449.015 C 728.723 449.007, 731.261 448.084, 733.575 446.964 C 737.157 445.230, 737.945 444.274, 738.890 440.521 C 740.338 434.772, 740.301 429.701, 738.800 428.200 C 738.140 427.540, 735.495 427, 732.922 427 C 729.985 427, 727.782 426.442, 727 425.500 C 725.576 423.784, 722.422 423.509, 721.488 425.019" stroke="#995b45" fill="#995b45" fill-opacity="0.2" fill-rule="evenodd"/><path class="svg-region-SOTr" d="M 1011 365.729 C 1010.175 366.043, 1009.218 366.731, 1008.874 367.259 C 1008.529 367.786, 1006.167 368.452, 1003.624 368.739 C 1000.497 369.091, 999 369.728, 999 370.706 C 999 372.637, 1013.316 386.651, 1016.215 387.559 C 1017.472 387.952, 1020.381 389.562, 1022.680 391.137 C 1024.979 392.712, 1027.454 394.014, 1028.180 394.032 C 1028.906 394.049, 1030.374 394.724, 1031.441 395.532 C 1035.465 398.575, 1046 396.113, 1046 392.129 C 1046 391.129, 1045.040 389.453, 1043.867 388.405 C 1042.694 387.357, 1040.416 383.666, 1038.804 380.201 C 1035.572 373.256, 1033.695 372, 1026.542 372 C 1023.625 372, 1022.027 371.513, 1021.641 370.506 C 1021.019 368.886, 1015.126 364.960, 1013.500 365.083 C 1012.950 365.124, 1011.825 365.415, 1011 365.729 M 1069 416.845 C 1069 421.356, 1070.770 423.302, 1076.816 425.435 C 1079.135 426.253, 1082.551 428.081, 1084.408 429.498 C 1086.983 431.462, 1089.623 432.279, 1095.530 432.942 C 1101.415 433.602, 1105.223 434.777, 1111.387 437.834 C 1115.849 440.048, 1121.525 442.415, 1124 443.095 C 1126.475 443.775, 1129.963 445.696, 1131.751 447.363 C 1136.038 451.360, 1144.536 452.568, 1149.051 449.823 C 1150.673 448.837, 1152 447.206, 1152 446.199 C 1152 443.822, 1145.847 440.375, 1138.970 438.900 C 1136.034 438.271, 1131.578 436.493, 1129.066 434.951 C 1126.555 433.408, 1121.125 431.006, 1117 429.614 C 1112.875 428.221, 1107.717 426.163, 1105.539 425.041 C 1103.360 423.918, 1100.885 422.999, 1100.039 422.997 C 1099.192 422.996, 1095.800 421.345, 1092.500 419.329 C 1087.960 416.555, 1085.104 415.553, 1080.765 415.212 C 1077.610 414.964, 1075.274 414.365, 1075.574 413.881 C 1075.873 413.396, 1074.516 413, 1072.559 413 C 1069.097 413, 1069 413.105, 1069 416.845" stroke="#995b45" fill="#995b45" fill-opacity="0.2" fill-rule="evenodd"/><path class="svg-region-BPCl" d="M 792.500 565.773 C 784.069 570.371, 782.084 577.456, 785.517 590.703 C 786.916 596.099, 789.746 599.413, 801.203 609.074 L 806.147 613.243 814.488 612.805 C 821.567 612.434, 823.352 611.969, 826.279 609.736 C 830.110 606.814, 831 604.017, 831 594.897 C 831 589.356, 829.500 584.808, 824.439 575 C 822.916 572.050, 815.863 567.889, 807.556 565.039 C 799.915 562.418, 798.529 562.485, 792.500 565.773" stroke="#83385f" fill="#83385f" fill-opacity="0.2" fill-rule="evenodd"/><path class="svg-region-BPCr" d="M 1012.250 563.100 C 1011.563 563.815, 1011 565.132, 1011 566.026 C 1011 566.920, 1009.817 568.742, 1008.371 570.076 C 1003.166 574.876, 1001.875 581.600, 1004.124 592.201 C 1006.425 603.041, 1011.924 610, 1018.193 610 C 1020.712 610, 1025.137 605.365, 1030.580 597.026 C 1032.186 594.565, 1034.985 591.235, 1036.801 589.627 C 1041.271 585.668, 1043 581.990, 1043 576.441 C 1043 572.166, 1042.610 571.423, 1038.250 567.402 C 1035.196 564.586, 1032.572 563.018, 1030.901 563.011 C 1029.471 563.005, 1024.971 562.730, 1020.901 562.400 C 1015.481 561.960, 1013.165 562.147, 1012.250 563.100" stroke="#83385f" fill="#83385f" fill-opacity="0.2" fill-rule="evenodd"/><path class="svg-region-OVl" d="M 715.796 326.868 C 714.081 327.269, 711.153 329.919, 707.796 334.110 C 703.323 339.692, 692.136 350, 690.549 350 C 690.285 350, 687.941 351.350, 685.339 353 C 682.737 354.650, 679.797 356, 678.804 356 C 677.812 356, 676.200 356.788, 675.222 357.750 C 671.174 361.733, 663.270 367.841, 660 369.512 C 658.075 370.496, 654.894 372.312, 652.931 373.548 L 649.362 375.796 650.362 381.840 L 651.362 387.884 647.181 392.420 C 643.906 395.973, 643 397.726, 643 400.515 C 643 403.428, 642.169 404.883, 638.423 408.523 C 635.906 410.970, 631.631 413.988, 628.923 415.230 C 624.857 417.095, 624 417.944, 624 420.102 C 624 421.540, 622.425 425.737, 620.500 429.431 C 617.477 435.230, 617 437.096, 617 443.113 C 617 451.069, 615.346 454.182, 608.824 458.498 C 606.721 459.890, 605 461.647, 605 462.402 C 605 464.015, 593.134 471.695, 589.204 472.625 C 587.717 472.977, 584.475 474.185, 582 475.309 C 579.508 476.441, 573.930 477.679, 569.500 478.084 C 558.599 479.079, 551.031 481.785, 551.013 484.693 C 551.002 486.584, 547.659 493.518, 546.045 495 C 545.745 495.275, 545.013 496.400, 544.418 497.500 C 543.823 498.600, 542.435 499.912, 541.334 500.416 C 538.723 501.610, 534.029 511.960, 533.297 518.136 C 532.571 524.268, 534.728 530.158, 539.564 535.250 C 542.824 538.682, 543.585 539, 548.532 539 C 551.590 539, 557.265 537.914, 561.597 536.500 C 565.809 535.125, 570.485 534, 571.987 534 C 573.489 534, 577.361 532.590, 580.590 530.867 C 583.820 529.143, 588.720 526.915, 591.481 525.914 C 594.241 524.914, 599.650 522.951, 603.500 521.552 C 607.350 520.153, 611.400 518.978, 612.500 518.941 C 614.336 518.879, 614.315 518.799, 612.250 517.969 C 611.013 517.471, 610 516.330, 610 515.433 C 610 512.318, 613.215 507.057, 617.573 503.040 C 621.820 499.125, 622.171 499, 628.931 499 C 637.887 499, 641 497.649, 641 493.762 C 641 491.635, 642.086 489.850, 645.010 487.172 C 648.401 484.067, 649.184 482.574, 650.082 477.500 C 651.204 471.165, 654.631 465.127, 658.570 462.546 C 659.870 461.694, 662.276 459.685, 663.916 458.082 C 665.556 456.479, 667.875 454.857, 669.068 454.478 C 671.702 453.643, 675.749 455.634, 676.551 458.160 C 676.872 459.172, 677.554 460, 678.067 460 C 678.580 460, 679 460.675, 679 461.500 C 679 463.796, 680.245 463.335, 685.068 459.250 C 691.409 453.880, 694.761 450.196, 698.488 444.500 C 702.652 438.136, 710.040 431.420, 715.918 428.655 C 718.438 427.470, 720.860 425.938, 721.300 425.250 C 722.400 423.530, 724.993 423.684, 727.103 425.593 C 728.743 427.077, 729.003 426.914, 730.889 423.217 C 732.003 421.033, 733.609 418.980, 734.457 418.655 C 736.245 417.969, 736.497 413.438, 734.972 409.426 C 733.944 406.723, 733.938 406.722, 725.722 407.260 C 721.200 407.556, 715.250 408.575, 712.500 409.525 C 708.246 410.994, 706.588 411.083, 701.385 410.126 C 698.021 409.507, 693.949 409, 692.335 409 C 690.721 409, 688.860 408.460, 688.200 407.800 C 686.775 406.375, 686.607 402.361, 687.937 401.539 C 688.452 401.221, 690.002 398.574, 691.382 395.658 C 695.773 386.377, 702.207 381.709, 713.804 379.389 C 716.362 378.878, 717 378.258, 717 376.283 C 717 374.926, 717.900 372.671, 719 371.273 C 721.235 368.431, 721.693 362.093, 719.800 360.200 C 719.140 359.540, 717.662 359, 716.515 359 C 714.225 359, 702.949 355.271, 701.746 354.116 C 701.332 353.718, 701.635 352.517, 702.421 351.446 C 703.743 349.646, 705.141 349.503, 721.104 349.537 C 734.704 349.566, 738.454 349.861, 738.810 350.929 C 739.785 353.856, 746.318 359.950, 749.665 361.054 C 754.764 362.737, 765.388 361.864, 767.943 359.551 C 769.075 358.528, 770 357.415, 770 357.079 C 770 356.743, 767.660 354.936, 764.801 353.064 C 761.942 351.192, 758.313 348.512, 756.738 347.109 C 755.162 345.705, 749.150 342.574, 743.378 340.151 C 735.737 336.944, 731.434 334.421, 727.551 330.873 C 722.276 326.051, 721.062 325.638, 715.796 326.868" stroke="#593939" fill="#593939" fill-opacity="0.2" fill-rule="evenodd"/><path class="svg-region-OVr" d="M 1122.260 347.413 C 1116.547 350.546, 1115.581 351.424, 1110.499 358.107 C 1108.016 361.372, 1105.815 365.525, 1105.424 367.686 C 1105.044 369.784, 1104.118 372.715, 1103.366 374.200 C 1100.868 379.139, 1101.221 379.331, 1111.410 378.583 C 1120.805 377.894, 1120.823 377.897, 1123.410 380.686 C 1127.303 384.884, 1127.032 390.631, 1122.750 394.684 C 1118.724 398.495, 1115.863 400, 1112.648 400 C 1108.741 400, 1107.055 399.025, 1107.750 397.167 C 1108.267 395.786, 1108.115 395.710, 1106.865 396.725 C 1104.166 398.915, 1092.996 401.186, 1086.637 400.837 C 1080.587 400.505, 1080.495 400.539, 1080.183 403.256 C 1079.982 405.003, 1080.412 406.221, 1081.358 406.584 C 1082.179 406.899, 1083.133 408.809, 1083.479 410.828 C 1084.026 414.024, 1084.911 414.978, 1090.304 418.191 C 1093.712 420.222, 1098.750 422.633, 1101.500 423.550 C 1104.250 424.467, 1106.957 425.587, 1107.517 426.038 C 1108.076 426.488, 1112.038 428.034, 1116.322 429.472 C 1120.606 430.910, 1126.223 433.373, 1128.805 434.944 C 1131.387 436.516, 1136.060 438.322, 1139.189 438.959 C 1142.318 439.596, 1145.989 440.990, 1147.347 442.058 C 1148.705 443.126, 1150.307 444, 1150.908 444 C 1152.745 444, 1152.125 446.806, 1149.811 448.961 C 1148.608 450.082, 1146.583 451, 1145.311 451 C 1144.040 451, 1143 451.268, 1143 451.596 C 1143 453.504, 1146.536 463.884, 1147.892 465.955 C 1149.587 468.545, 1151.801 473.978, 1152.698 477.750 C 1153.334 480.423, 1153.404 480.436, 1156.426 478.457 C 1159.887 476.189, 1179.879 474.781, 1197.554 475.560 L 1212.609 476.224 1215.303 481.930 C 1216.785 485.068, 1219.798 490.049, 1221.999 492.998 C 1224.453 496.288, 1226 499.451, 1226 501.181 L 1226 504 1239.428 504 L 1252.857 504 1259.178 500.264 C 1262.655 498.210, 1266.372 495.735, 1267.439 494.764 C 1268.505 493.794, 1269.709 493, 1270.115 493 C 1270.521 493, 1271.641 491.538, 1272.603 489.750 C 1273.937 487.272, 1274.452 483.354, 1274.774 473.250 C 1275.006 465.962, 1275.550 460, 1275.981 460 C 1276.413 460, 1276.992 459.139, 1277.267 458.086 C 1277.982 455.351, 1275.707 454.854, 1259 454.090 C 1246.267 453.508, 1243.830 453.110, 1239 450.826 C 1232.694 447.843, 1228.296 444.010, 1224.754 438.410 C 1223.394 436.260, 1220.909 433.034, 1219.232 431.242 C 1216.014 427.804, 1213 420.434, 1213 416.003 C 1213 410.084, 1215.947 403.384, 1220.646 398.617 L 1225.320 393.876 1223.299 391.854 C 1221.398 389.954, 1220.929 389.913, 1215.462 391.166 C 1210.187 392.376, 1209.501 392.844, 1208.074 396.204 C 1205.943 401.219, 1201.144 403, 1189.764 403 C 1177.820 403, 1176.346 402.189, 1175.775 395.300 C 1175.525 392.284, 1174.786 389.486, 1174.133 389.082 C 1173.480 388.678, 1172.377 385.682, 1171.682 382.424 C 1169.894 374.040, 1167.387 370.674, 1157.865 363.876 C 1153.264 360.592, 1147.250 356.118, 1144.500 353.935 C 1139.647 350.081, 1129.918 344.954, 1127.629 345.044 C 1127.008 345.069, 1124.592 346.135, 1122.260 347.413 M 1202.602 447.732 L 1199.703 449.251 1203.602 452.614 C 1209.542 457.739, 1214.972 460.196, 1219.533 459.823 C 1224.511 459.416, 1225.094 457.301, 1221.519 452.614 C 1216.807 446.436, 1208.944 444.407, 1202.602 447.732" stroke="#593939" fill="#593939" fill-opacity="0.2" fill-rule="evenodd"/><path class="svg-region-ODMl" d="M 667.512 455.213 C 666.418 455.847, 664.618 457.230, 663.512 458.285 C 662.405 459.340, 660.044 461.331, 658.266 462.709 C 653.828 466.146, 651.421 470.429, 649.992 477.433 C 649.021 482.196, 648.015 484.104, 644.891 487.105 C 641.791 490.083, 641 491.571, 641 494.422 C 641 497.905, 641.102 498, 644.843 498 C 646.957 498, 651.303 497.100, 654.500 496 C 658.585 494.594, 662.917 494, 669.075 494 C 678.436 494, 681 493.485, 681 491.605 C 681 490.956, 682.332 488.866, 683.959 486.962 C 688.369 481.803, 688.078 476.222, 682.996 468.500 C 681.910 466.850, 680.457 464.375, 679.768 463 C 677.352 458.182, 673.280 453.987, 671.061 454.030 C 670.203 454.047, 668.605 454.580, 667.512 455.213" stroke="#999999" fill="#999999" fill-opacity="0.2" fill-rule="evenodd"/><path class="svg-region-ODMr" d="M 1202 448.096 C 1200.183 449.587, 1199.868 450.296, 1200.847 450.690 C 1201.588 450.987, 1203.613 452.417, 1205.347 453.866 C 1210.616 458.268, 1214.586 460, 1219.404 460 C 1223.364 460, 1224 459.717, 1224 457.960 C 1224 455.243, 1220.276 450.333, 1216.397 447.936 C 1212.173 445.326, 1205.283 445.402, 1202 448.096" stroke="#999999" fill="#999999" fill-opacity="0.2" fill-rule="evenodd"/>
    </svg>