<svg xmlns="http://www.w3.org/2000/svg" width="1921" height="1027" viewBox="0 0 1921 1027" version="1.1">
    <path class="svg-region-V" d="M 763.710 163.463 C 758.325 165.319, 752.025 167.148, 749.710 167.528 C 747.394 167.907, 744.825 168.797, 744 169.505 C 742.403 170.875, 733.804 174, 731.630 174 C 730.915 174, 726.626 176.250, 722.098 179 C 717.570 181.750, 713.674 184, 713.441 184 C 712.626 184, 707.468 188.564, 697.018 198.532 C 691.233 204.049, 684.025 210.673, 681 213.250 C 677.975 215.827, 671.675 222.264, 667 227.554 C 662.325 232.844, 656.362 239.540, 653.750 242.433 C 651.138 245.326, 649 248.337, 649 249.124 C 649 249.911, 648.298 251.558, 647.439 252.784 C 646.580 254.010, 644.052 258.660, 641.821 263.118 C 638.106 270.539, 637.679 272.226, 636.749 283.114 C 635.964 292.308, 636.036 296.707, 637.066 302.503 C 637.799 306.626, 638.754 310, 639.190 310 C 639.625 310, 641.862 311.998, 644.160 314.441 C 647.291 317.768, 649.362 319.052, 652.419 319.563 C 654.664 319.938, 656.725 320.527, 657 320.872 C 658.483 322.733, 666.422 326.092, 670.644 326.645 C 673.315 326.995, 676.771 327.922, 678.325 328.705 C 679.879 329.488, 684.379 330.384, 688.325 330.697 C 692.271 331.009, 696.175 331.836, 697 332.534 C 697.867 333.268, 703.032 334.106, 709.244 334.521 C 718.294 335.125, 720.377 334.983, 722.459 333.619 C 723.818 332.729, 725.536 332, 726.278 332 C 727.019 332, 728.919 330.650, 730.500 329 C 732.081 327.350, 734.117 326, 735.026 326 C 736.864 326, 745 314.042, 745 311.340 C 745 310.406, 744.467 308.169, 743.817 306.369 C 742.808 303.581, 742.916 302.571, 744.544 299.548 C 745.595 297.597, 746.766 296, 747.147 296 C 747.528 296, 748.557 293.839, 749.434 291.198 C 750.873 286.867, 751.819 285.885, 759.091 281.185 C 763.525 278.319, 769.256 275.514, 771.826 274.952 C 774.397 274.389, 779.089 273.045, 782.254 271.965 C 785.507 270.854, 790.664 270, 794.119 270 C 798.558 270, 801.497 269.356, 804.865 267.645 C 812.355 263.839, 816.120 262.999, 825.571 263.022 C 832.891 263.040, 834.950 263.397, 837 265 C 840.221 267.519, 845.061 267.519, 850 265 C 852.156 263.900, 854.567 263, 855.357 263 C 857.272 263, 863 269.609, 863 271.819 C 863 272.781, 865.377 275.915, 868.281 278.784 C 872.396 282.847, 874.258 284, 876.708 284 C 878.438 284, 883.264 285.575, 887.431 287.500 C 894.156 290.606, 895.936 291, 903.254 290.996 C 910.041 290.992, 912.363 290.554, 916.377 288.517 C 919.059 287.156, 922.884 285.741, 924.877 285.372 C 926.870 285.002, 931.652 282.630, 935.504 280.100 C 939.357 277.570, 944.590 274.454, 947.133 273.175 C 951.621 270.920, 951.915 270.897, 957.060 272.425 C 964.238 274.557, 965.798 274.441, 966.180 271.750 C 966.477 269.659, 966.924 269.523, 972.500 269.825 C 976.407 270.037, 978.917 270.688, 979.695 271.691 C 980.578 272.829, 981.884 273.066, 984.695 272.597 C 986.788 272.248, 989.465 271.858, 990.645 271.731 C 991.825 271.604, 993.661 270.712, 994.724 269.750 C 995.787 268.787, 997.839 268, 999.283 268 C 1001.488 268, 1002.014 268.556, 1002.559 271.464 C 1002.917 273.370, 1003.905 275.507, 1004.754 276.214 C 1006.591 277.743, 1021.717 279.866, 1031.322 279.945 C 1040.376 280.018, 1046.035 283.162, 1049.530 290.059 C 1050.872 292.708, 1053.552 296.082, 1055.485 297.557 L 1059 300.237 1059 308.884 C 1059 315.242, 1059.463 318.373, 1060.750 320.710 C 1062.826 324.481, 1070.749 330.977, 1073.290 330.990 C 1074.274 330.996, 1076.899 331.928, 1079.123 333.063 C 1082.604 334.839, 1084.579 335.075, 1093.333 334.759 C 1102.529 334.428, 1118.975 331.437, 1126.230 328.775 C 1133.044 326.276, 1139.854 316.640, 1143.168 304.809 C 1144.293 300.789, 1145.823 296.810, 1146.567 295.966 C 1147.311 295.122, 1149.110 291.747, 1150.566 288.466 C 1152.890 283.230, 1153.159 281.541, 1152.767 274.658 C 1152.350 267.344, 1151.867 265.930, 1145.593 253.658 C 1138.571 239.924, 1130.344 228.328, 1121.006 219 C 1104.077 202.090, 1093.984 193.020, 1090.453 191.546 C 1088.279 190.638, 1084.250 188.357, 1081.500 186.477 C 1074.423 181.639, 1050.326 173.317, 1037.500 171.283 C 1035.850 171.021, 1032.672 169.951, 1030.438 168.905 C 1022.712 165.288, 990.037 165.529, 976 169.306 C 964.663 172.357, 935.239 175.511, 919.500 175.363 C 908.614 175.261, 887.337 172.612, 865.436 168.633 C 835.177 163.136, 817.219 161.068, 795.500 160.581 L 773.500 160.088 763.710 163.463" stroke="#dd8a8a" fill="#dd8a8a" fill-opacity="0.2" fill-rule="evenodd"/><path class="svg-region-SV" d="M 812.500 264.246 C 810.850 264.815, 807.414 266.342, 804.865 267.640 C 801.480 269.363, 798.513 270.012, 793.865 270.044 C 790.364 270.068, 785.700 270.744, 783.500 271.547 C 781.300 272.350, 776.728 273.664, 773.339 274.468 C 769.303 275.426, 764.302 277.787, 758.839 281.314 C 751.208 286.242, 750.384 287.094, 749.140 291.350 C 748.391 293.907, 747.481 296, 747.117 296 C 746.753 296, 745.595 297.597, 744.544 299.548 C 742.916 302.571, 742.808 303.581, 743.817 306.369 C 745.564 311.201, 745.252 313.072, 741.960 317.500 C 740.325 319.700, 738.706 322.310, 738.363 323.301 C 738.021 324.292, 736.499 325.350, 734.982 325.654 C 733.465 325.957, 731.240 327.536, 730.037 329.164 C 727.999 331.920, 727.957 332.286, 729.425 334.526 C 730.291 335.848, 731 338.022, 731 339.356 C 731 343.616, 757.772 369, 762.265 369 C 763.037 369, 764.794 370.238, 766.169 371.750 C 767.545 373.262, 770.700 375.904, 773.181 377.621 C 777.905 380.889, 783 389.230, 783 393.696 C 783 394.963, 783.340 396, 783.756 396 C 784.172 396, 785.076 397.238, 785.765 398.750 C 787.844 403.311, 790.617 406.354, 791.946 405.534 C 792.617 405.119, 794.713 402.361, 796.603 399.406 C 799.975 394.135, 800.012 393.963, 798.520 390.394 C 795.149 382.326, 797.340 376.129, 805.100 371.784 C 819.943 363.473, 827.395 360.036, 834.121 358.402 C 838.177 357.416, 843.698 355.240, 846.390 353.567 L 851.284 350.524 868.892 350.321 C 897.833 349.986, 917.183 349.187, 922.705 348.096 C 925.849 347.476, 934.480 347.316, 944.509 347.693 C 958.036 348.202, 961.330 348.612, 962.304 349.913 C 963.580 351.615, 969.903 354.069, 979.238 356.484 C 982.394 357.300, 988.019 359.941, 991.738 362.353 C 995.457 364.764, 1000.575 368.034, 1003.111 369.619 C 1012.509 375.492, 1017.896 379.542, 1018.292 381.032 C 1018.516 381.874, 1022.319 384.612, 1026.745 387.115 C 1034.687 391.607, 1034.822 391.643, 1037.146 389.854 C 1038.441 388.857, 1041.075 387.517, 1043 386.876 C 1044.925 386.235, 1048.834 384.651, 1051.686 383.355 C 1056.170 381.319, 1058.428 381, 1068.377 381 C 1074.705 381, 1080.122 381.388, 1080.415 381.863 C 1080.709 382.337, 1083.028 383.308, 1085.569 384.019 C 1090.614 385.432, 1091.953 384.691, 1091.985 380.466 C 1091.994 379.276, 1093.245 377.695, 1095 376.659 C 1096.650 375.684, 1098 374.322, 1098 373.632 C 1098 372.942, 1098.826 371.490, 1099.836 370.407 C 1100.845 369.323, 1103.095 366.471, 1104.836 364.068 C 1107.735 360.065, 1107.998 359.065, 1107.975 352.100 C 1107.952 345.014, 1107.715 344.179, 1104.465 339.750 L 1100.981 335 1091.950 335 C 1084.894 335, 1082.064 334.563, 1079 333 C 1076.844 331.900, 1074.274 330.996, 1073.290 330.990 C 1070.749 330.977, 1062.826 324.481, 1060.750 320.710 C 1059.460 318.367, 1059 315.239, 1059 308.816 L 1059 300.102 1055.429 297.378 C 1053.466 295.880, 1050.786 292.537, 1049.474 289.949 C 1045.852 282.801, 1040.990 280.410, 1028.500 279.637 C 1006.799 278.293, 1003 277.294, 1003 272.927 C 1003 267.919, 998.610 266.233, 994.724 269.750 C 993.660 270.712, 991.600 271.586, 990.145 271.691 C 988.690 271.796, 985.976 272.194, 984.114 272.575 C 981.520 273.105, 980.515 272.885, 979.815 271.633 C 979.229 270.587, 977.572 269.995, 975.200 269.985 C 973.165 269.976, 970.866 269.568, 970.091 269.077 C 968.127 267.834, 966 268.858, 966 271.048 C 966 273.946, 964.439 274.228, 957.798 272.527 C 951.222 270.842, 951.281 270.830, 941.339 275.907 C 940.700 276.233, 937.550 278.326, 934.339 280.557 C 930.783 283.027, 926.342 285.088, 922.982 285.826 C 919.947 286.494, 915.999 287.931, 914.208 289.020 C 911.675 290.560, 909.162 291, 902.898 291 C 895.746 291, 894.029 290.608, 887.567 287.500 C 883.565 285.575, 878.747 284, 876.861 284 C 874.047 284, 872.497 283.053, 868.216 278.719 C 865.347 275.814, 863 272.679, 863 271.753 C 863 269.346, 857.143 263, 854.921 263 C 853.891 263, 851.575 263.898, 849.774 264.996 C 845.589 267.548, 840.514 267.550, 837.273 265 C 835.104 263.294, 833.317 263.016, 825.115 263.106 C 819.827 263.165, 814.150 263.678, 812.500 264.246" stroke="#c666b5" fill="#c666b5" fill-opacity="0.2" fill-rule="evenodd"/><path class="svg-region-APB" d="M 1080.430 450.965 C 1079.291 451.426, 1077.642 452.898, 1076.765 454.236 C 1075.888 455.574, 1073.220 458.636, 1070.835 461.040 C 1068.451 463.444, 1066.050 466.193, 1065.500 467.149 C 1064.950 468.106, 1063.445 470.809, 1062.155 473.158 L 1059.809 477.427 1062.015 479.214 C 1063.229 480.196, 1064.795 481, 1065.496 481 C 1066.197 481, 1067.482 482.086, 1068.351 483.413 C 1070.249 486.310, 1078.066 493.744, 1081.812 496.214 C 1083.290 497.189, 1085.963 497.990, 1087.750 497.993 C 1089.537 497.997, 1091 498.460, 1091 499.021 C 1091 499.583, 1092.080 500.535, 1093.400 501.136 C 1094.749 501.751, 1096.545 504.041, 1097.501 506.365 C 1098.436 508.639, 1099.831 511.978, 1100.601 513.784 C 1101.370 515.590, 1102.016 517.840, 1102.035 518.784 C 1102.084 521.140, 1104.432 516.955, 1106.544 510.751 L 1108.160 506.002 1112.330 506.591 C 1117.983 507.388, 1123.189 509.046, 1124.660 510.517 C 1125.328 511.185, 1129.941 512.050, 1134.911 512.439 C 1143.765 513.132, 1144.031 513.088, 1148.109 510.263 C 1152.168 507.451, 1152.276 507.227, 1152.513 501.174 C 1152.646 497.760, 1152.360 494.723, 1151.878 494.424 C 1151.395 494.126, 1150.993 492.671, 1150.984 491.191 C 1150.961 487.566, 1147.036 480.849, 1143.979 479.205 C 1142.115 478.203, 1138.376 478.012, 1128.909 478.432 L 1116.317 478.992 1115.159 476.449 C 1114.521 475.050, 1114 473.237, 1114 472.419 C 1114 468.972, 1101.005 460.042, 1095.943 460.010 C 1093.781 459.996, 1087.947 454.991, 1086.908 452.258 C 1086.020 449.921, 1084.002 449.519, 1080.430 450.965 M 742.841 471.255 C 739.652 474.083, 726.407 482.819, 723.708 483.875 C 723.181 484.081, 721.987 484.981, 721.054 485.875 C 720.121 486.769, 717.703 488.787, 715.679 490.361 C 711.638 493.503, 710.672 496.580, 714 495.710 C 715.754 495.252, 716 495.680, 716 499.187 C 716 502.346, 716.421 503.297, 718 503.710 C 719.610 504.131, 720 505.074, 720 508.544 C 720 512.781, 719.907 512.899, 714.562 515.427 C 711.571 516.842, 707.746 518, 706.062 518 C 704.071 518, 703 518.501, 703 519.433 C 703 521.642, 706.722 522.444, 715.920 522.217 C 723.349 522.034, 724.851 522.309, 728.677 524.551 L 733.014 527.093 734.007 524.481 C 734.553 523.045, 735 521.517, 735 521.085 C 735 519.393, 740.918 511.612, 743.143 510.378 C 744.440 509.659, 747.079 509.055, 749.009 509.035 C 751.410 509.011, 752.914 508.368, 753.768 507 C 754.603 505.663, 756.100 505, 758.286 505 C 761.582 505, 764.414 503.488, 768.995 499.281 C 770.368 498.021, 773.428 496.079, 775.797 494.966 L 780.102 492.942 779.801 487.721 C 779.510 482.674, 779.357 482.428, 775.197 480.328 C 772.830 479.134, 770.355 477.741, 769.697 477.233 C 769.038 476.726, 766.250 475.722, 763.500 475.003 C 760.750 474.284, 757.790 473.089, 756.921 472.348 C 756.053 471.607, 754.871 471, 754.294 471 C 753.717 471, 752.685 470.325, 752 469.500 C 750.029 467.125, 746.799 467.744, 742.841 471.255" stroke="#ac7444" fill="#ac7444" fill-opacity="0.2" fill-rule="evenodd"/><path class="svg-region-PC" d="M 871.500 354.652 C 851.319 360.477, 850.198 361.031, 839.933 370.261 C 834.444 375.196, 828.505 379.616, 826.331 380.383 C 824.208 381.132, 820.253 383.152, 817.540 384.872 C 814.828 386.593, 811.582 388, 810.327 388 C 808.998 388, 807.363 389.043, 806.408 390.500 C 805.507 391.875, 803.809 393.015, 802.635 393.034 C 800.576 393.067, 794.204 401.613, 785.665 415.793 C 784.106 418.382, 781.068 422.317, 778.915 424.538 C 775.571 427.987, 774.995 429.226, 774.964 433.038 C 774.919 438.594, 771.711 442.903, 766.883 443.889 C 763.708 444.538, 763.460 444.886, 762.857 449.540 C 761.992 456.216, 760.843 458.778, 756.598 463.500 C 754.620 465.700, 753.001 468.185, 753.001 469.023 C 753 470.811, 757.665 473.397, 764 475.121 C 766.475 475.794, 769.175 476.848, 770 477.462 C 770.825 478.076, 773.176 479.336, 775.224 480.261 C 777.641 481.352, 779.170 482.830, 779.582 484.471 C 780.040 486.294, 780.884 487, 782.608 487 C 783.924 487, 785 486.550, 785 486 C 785 485.450, 785.563 484.998, 786.250 484.995 C 786.938 484.992, 789.261 482.552, 791.414 479.572 C 794.611 475.146, 796.110 473.958, 799.606 473.078 C 806.289 471.395, 811.846 471.734, 814.727 474 C 818.101 476.654, 819.805 476.522, 821.182 473.500 C 821.808 472.125, 822.699 471, 823.161 471 C 823.622 471, 824 470.516, 824 469.924 C 824 468.473, 832.470 457.472, 837.467 452.433 C 842.352 447.508, 848.177 442.970, 856.361 437.713 C 859.737 435.544, 867.255 428.958, 873.067 423.076 C 887.297 408.674, 890.059 406.614, 893.217 408.053 C 895.128 408.924, 896.492 408.821, 899.454 407.584 C 902.338 406.379, 906.815 406, 918.182 406 L 933.119 406 941.365 409.936 C 946.513 412.393, 952.605 416.459, 957.580 420.757 C 961.963 424.545, 968.688 429.355, 972.524 431.447 C 987.148 439.422, 1000.685 451.457, 1005.088 460.400 C 1006.414 463.094, 1008.737 466.468, 1010.250 467.896 C 1011.763 469.325, 1013 470.988, 1013 471.592 C 1013 472.196, 1013.824 473.436, 1014.832 474.348 C 1016.555 475.908, 1016.823 475.828, 1019.340 473.003 C 1020.811 471.351, 1022.574 470.006, 1023.258 470.014 C 1023.941 470.021, 1026.271 472.077, 1028.435 474.584 C 1035.330 482.567, 1036.799 482.799, 1050.405 478.058 C 1053.653 476.926, 1057.269 476, 1058.440 476 C 1060.431 476, 1061.736 474.433, 1065.346 467.712 C 1065.999 466.495, 1069.563 462.350, 1073.264 458.500 C 1076.966 454.650, 1079.996 450.750, 1079.997 449.834 C 1079.999 448.918, 1078.200 446.742, 1076 445 C 1073.800 443.258, 1072 441.302, 1072 440.655 C 1072 440.008, 1070.434 437.683, 1068.519 435.489 C 1066.605 433.295, 1065.030 431.172, 1065.019 430.770 C 1064.987 429.531, 1056.760 425.746, 1051.583 424.589 C 1046.262 423.400, 1045.087 422.012, 1041.659 412.864 C 1040.703 410.314, 1038.370 406.236, 1036.473 403.802 C 1032.895 399.208, 1030.826 393, 1032.875 393 C 1033.494 393, 1033.998 392.438, 1033.995 391.750 C 1033.988 389.794, 1017.879 382, 1013.843 382 C 1011.128 382, 1010.036 381.437, 1009 379.500 C 1007.960 377.557, 1006.865 376.995, 1004.081 376.978 C 1000.895 376.958, 996.085 374.983, 986.500 369.762 C 970.714 361.162, 957.976 357.187, 942.257 355.956 C 902.754 352.864, 879.198 352.430, 871.500 354.652" stroke="#cda789" fill="#cda789" fill-opacity="0.2" fill-rule="evenodd"/><path class="svg-region-DB" d="M 1119.500 340.080 C 1110.021 341.145, 1105.193 342.383, 1106.755 343.349 C 1107.569 343.852, 1108 346.717, 1108 351.629 C 1108 358.427, 1107.697 359.584, 1104.813 363.820 C 1103.060 366.394, 1100.810 369.228, 1099.813 370.117 C 1098.816 371.007, 1098 372.444, 1098 373.311 C 1098 374.178, 1096.690 375.661, 1095.090 376.606 C 1091.307 378.841, 1090.374 383.681, 1093.207 386.371 C 1094.746 387.833, 1095.035 389, 1094.528 391.704 C 1094.073 394.128, 1094.374 395.921, 1095.531 397.687 C 1096.675 399.433, 1096.988 401.252, 1096.547 403.599 C 1096.060 406.199, 1096.374 407.486, 1097.900 409.123 C 1099.019 410.324, 1100.548 411.004, 1101.397 410.678 C 1103.355 409.927, 1114.705 413.750, 1118.250 416.355 C 1119.763 417.467, 1121 419.326, 1121 420.487 C 1121 421.981, 1121.996 422.958, 1124.405 423.830 C 1126.278 424.507, 1129.541 426.244, 1131.655 427.689 C 1133.770 429.135, 1137.334 430.876, 1139.576 431.559 C 1145.762 433.442, 1158.109 439.921, 1160.135 442.348 C 1161.124 443.531, 1161.948 445.288, 1161.967 446.250 C 1161.992 447.555, 1162.836 448, 1165.290 448 C 1169.262 448, 1179.385 450.548, 1183.432 452.566 C 1186.283 453.988, 1187.932 453.330, 1187.985 450.750 C 1187.993 450.337, 1188.663 450, 1189.473 450 C 1191.755 450, 1199.864 445.796, 1200.431 444.319 C 1201.057 442.688, 1200.099 440, 1198.893 440 C 1198.402 440, 1197.998 439.212, 1197.996 438.250 C 1197.994 437.288, 1197.089 435.018, 1195.984 433.206 C 1194.427 430.651, 1194.213 429.471, 1195.031 427.941 C 1195.612 426.857, 1197.234 422.553, 1198.636 418.378 C 1200.481 412.886, 1200.884 410.484, 1200.093 409.693 C 1198.731 408.331, 1198.650 404, 1199.987 404 C 1200.531 404, 1202.026 402.313, 1203.311 400.250 C 1207.505 393.516, 1207.463 393.266, 1201.714 390.673 C 1198.846 389.380, 1195.375 387.793, 1194 387.147 C 1190.439 385.474, 1181.715 379.835, 1179.286 377.636 C 1178.154 376.611, 1176.051 374.719, 1174.614 373.432 C 1172.612 371.639, 1172 370.144, 1172 367.045 C 1172 363.148, 1171.881 363, 1168.748 363 C 1165.903 363, 1165.191 362.424, 1163.049 358.387 C 1159.328 351.372, 1152.154 343.981, 1146.520 341.357 C 1141.096 338.832, 1133.715 338.483, 1119.500 340.080 M 715.250 341.584 C 712.645 342.723, 712 343.588, 712 345.938 C 712 347.550, 712.442 350.032, 712.982 351.452 C 714.361 355.079, 726.701 366.847, 731.500 369.112 C 733.700 370.150, 736.231 371.570, 737.123 372.267 C 739.350 374.006, 742.992 380.137, 742.996 382.153 C 742.999 383.326, 745.001 384.413, 749.905 385.903 C 753.703 387.056, 757.492 388, 758.324 388 C 760.181 388, 765.985 391.216, 765.994 392.250 C 765.997 392.663, 766.440 393, 766.979 393 C 767.517 393, 770.240 395.307, 773.030 398.127 C 779.052 404.212, 779.098 406.817, 773.265 411.532 C 771.245 413.164, 768.537 415.515, 767.245 416.756 C 762.462 421.351, 757.089 423.294, 750.938 422.651 C 745.548 422.088, 740.027 423.401, 740.008 425.250 C 740.004 425.663, 739.309 426, 738.465 426 C 736.481 426, 732 428.933, 732 430.232 C 732 431.204, 733.037 431.063, 741 429.007 C 750.951 426.437, 773.411 422.136, 774.232 422.643 C 774.750 422.964, 774.952 424.074, 774.681 425.112 C 774.410 426.149, 774.568 427.233, 775.034 427.521 C 776.337 428.326, 783.234 420.853, 785.745 415.915 C 786.980 413.487, 788.850 410.397, 789.901 409.049 L 791.812 406.598 788.406 402.619 C 786.533 400.431, 785 398.046, 785 397.320 C 785 396.594, 784.550 396, 784 396 C 783.450 396, 782.989 394.762, 782.977 393.250 C 782.940 388.905, 777.938 380.900, 773 377.283 C 770.525 375.470, 767.375 372.910, 766 371.594 C 764.625 370.278, 762.458 368.891, 761.184 368.512 C 758.453 367.700, 747.461 358.522, 742.352 352.788 C 741.721 352.080, 738.497 348.913, 735.189 345.750 C 729.358 340.176, 729.011 340.002, 723.837 340.082 C 720.902 340.126, 717.038 340.803, 715.250 341.584" stroke="#e8b1e4" fill="#e8b1e4" fill-opacity="0.2" fill-rule="evenodd"/><path class="svg-region-IBl" d="M 748 445.021 C 738.545 445.634, 734.877 446.413, 728.500 449.161 C 726.154 450.172, 717.053 452.763, 711.880 453.893 C 709.889 454.328, 706.176 455.880, 703.630 457.342 C 701.083 458.804, 696.862 461.196, 694.250 462.658 C 691.638 464.119, 688.552 466.162, 687.393 467.198 C 686.234 468.233, 683.994 469.315, 682.415 469.601 C 678.568 470.299, 678.041 471, 681.365 471 C 683.015 471, 684.320 471.680, 684.726 472.750 C 685.090 473.712, 687.091 477.141, 689.171 480.370 C 691.252 483.598, 693.253 487.833, 693.619 489.780 C 694.215 492.960, 693.938 493.602, 690.898 496.083 C 689.036 497.603, 687.756 499.089, 688.053 499.387 C 688.351 499.684, 692.848 499.049, 698.047 497.977 C 703.246 496.904, 708.482 496.020, 709.683 496.013 C 710.929 496.006, 712.120 495.197, 712.459 494.129 C 712.785 493.101, 714.481 491.188, 716.226 489.879 C 717.971 488.571, 720.209 486.712, 721.199 485.750 C 722.190 484.788, 723.179 484, 723.398 484 C 724.361 484, 742 472.733, 742 472.117 C 742 470.713, 748.213 467.822, 750.145 468.328 C 752.017 468.817, 755.975 466.069, 756.017 464.250 C 756.027 463.837, 757.072 462.517, 758.339 461.317 C 760.989 458.806, 763 452.902, 763 447.634 C 763 444.482, 762.702 444.023, 760.750 444.170 C 759.513 444.264, 753.775 444.647, 748 445.021" stroke="#b10e0e" fill="#b10e0e" fill-opacity="0.2" fill-rule="evenodd"/><path class="svg-region-IBr" d="M 1064.998 430.510 C 1064.999 431.066, 1066.152 432.763, 1067.560 434.281 C 1068.968 435.799, 1070.774 438.607, 1071.573 440.521 C 1072.373 442.434, 1073.486 444, 1074.047 444 C 1074.608 444, 1076.387 445.350, 1078 447 C 1079.613 448.650, 1081.586 450, 1082.385 450 C 1084.867 450, 1087 451.157, 1087 452.503 C 1087 454.314, 1093.703 460, 1095.838 460 C 1098.714 460, 1107.381 464.745, 1110.554 468.056 C 1112.172 469.745, 1113.961 472.785, 1114.531 474.813 L 1115.566 478.500 1130.658 478.500 L 1145.750 478.500 1148.416 470 C 1149.883 465.325, 1151.559 460.150, 1152.142 458.500 C 1154.343 452.274, 1154.307 451.232, 1151.850 449.970 C 1150.557 449.307, 1147.925 447.263, 1146 445.429 C 1142.694 442.279, 1130.546 436, 1127.757 436 C 1127.049 436, 1124.791 435.100, 1122.739 434 C 1118.780 431.878, 1112.397 431.309, 1111.824 433.027 C 1111.470 434.090, 1102.943 436.834, 1097.257 437.715 C 1094.780 438.099, 1092.869 437.483, 1089.169 435.109 C 1086.005 433.078, 1083.055 432, 1080.662 432 C 1078.648 432, 1077 431.590, 1077 431.089 C 1077 430.588, 1074.299 430.025, 1070.998 429.839 C 1067.399 429.636, 1064.997 429.904, 1064.998 430.510" stroke="#b10e0e" fill="#b10e0e" fill-opacity="0.2" fill-rule="evenodd"/><path class="svg-region-AP" d="M 996.182 469.500 C 995.555 470.875, 994.370 472, 993.548 472 C 992.087 472, 987.831 473.749, 977.250 478.697 C 974.363 480.047, 969.413 481.553, 966.250 482.044 C 963.088 482.534, 958.700 483.432, 956.500 484.039 C 954.300 484.646, 950.312 485.542, 947.638 486.029 C 944.964 486.516, 941.012 487.834, 938.857 488.957 C 935.836 490.532, 933.057 490.999, 926.719 490.995 C 921.464 490.992, 916.771 491.610, 913.706 492.708 C 909.694 494.146, 908.574 494.215, 906.834 493.128 C 905.691 492.414, 902.223 491.593, 899.128 491.304 C 896.014 491.012, 890.651 489.460, 887.122 487.829 C 881.075 485.034, 880.036 484.878, 867.122 484.826 C 854.213 484.774, 853.187 484.620, 847.515 481.886 C 844.223 480.299, 840.791 479, 839.887 479 C 838.983 479, 836.629 478.325, 834.654 477.500 C 830.288 475.675, 816.930 475.470, 815.200 477.200 C 813.800 478.600, 813.560 488, 814.925 488 C 815.433 488, 816.519 490.283, 817.337 493.072 C 818.718 497.786, 818.686 498.455, 816.886 502.525 L 814.949 506.905 820.851 516.202 C 828.673 528.525, 830.552 535.968, 829.600 550.878 C 828.784 563.675, 827.625 568.449, 824.863 570.383 C 823.698 571.199, 823.096 572.346, 823.494 572.990 C 824.472 574.572, 827 586.911, 827 590.100 C 827 594.269, 820.778 605.302, 817.540 606.874 C 812.034 609.548, 800.126 607.377, 798.609 603.423 C 797.971 601.762, 795 601.487, 795 603.089 C 795 606.118, 816.657 625.123, 817.482 622.818 C 817.741 622.093, 818.527 619.700, 819.227 617.500 C 820.332 614.029, 821.083 613.316, 824.909 612.105 C 830.764 610.253, 832.083 611.237, 834.301 619.108 C 838.199 632.946, 838.332 633.975, 836.492 636.008 C 835.559 637.040, 834.953 638.278, 835.147 638.759 C 835.917 640.668, 854.414 656.430, 858.457 658.621 C 859.856 659.380, 862.110 660.602, 863.466 661.339 C 865.320 662.345, 872.579 662.732, 892.716 662.896 C 913.464 663.065, 920.142 663.434, 922.351 664.531 C 927.658 667.168, 931.689 667.381, 935.353 665.219 C 939.743 662.629, 947.492 661, 955.425 661 C 962.071 661, 971.236 657.830, 973.912 654.605 C 974.645 653.722, 975.822 653, 976.526 653 C 977.231 653, 982.125 649.625, 987.402 645.500 C 992.679 641.375, 997.340 638, 997.760 638 C 998.849 638, 1014.576 622.406, 1020.474 615.477 C 1025.763 609.263, 1030.952 601.992, 1030.982 600.750 C 1031.027 598.879, 1028.816 600.313, 1026.759 603.488 C 1024.889 606.375, 1023.895 606.977, 1020.984 606.988 C 1017.843 606.999, 1017.100 606.441, 1014.014 601.750 C 1007.156 591.326, 1007.193 591.483, 1005.797 567.131 C 1004.036 536.400, 1004.103 526.259, 1006.095 522.500 C 1013.517 508.493, 1016.596 503.048, 1018.664 500.272 L 1021.068 497.044 1019.034 492.834 C 1017.697 490.066, 1017 486.611, 1017 482.745 C 1017 477.944, 1016.520 476.237, 1014.381 473.433 C 1012.872 471.455, 1010.860 469.987, 1009.631 469.968 C 1008.459 469.951, 1006.626 469.276, 1005.559 468.468 C 1002.355 466.045, 997.513 466.578, 996.182 469.500 M 998.268 610.250 C 994.703 614.809, 993.977 624.977, 997 628 C 998.100 629.100, 999 630.978, 999 632.174 L 999 634.349 1001.500 632 C 1002.875 630.708, 1004 629.055, 1004 628.326 C 1004 627.597, 1004.337 626.997, 1004.750 626.993 C 1006.219 626.980, 1010 620.331, 1010 617.761 C 1010 615.958, 1008.842 614.191, 1006.272 612.073 C 1002.291 608.791, 999.844 608.234, 998.268 610.250" stroke="#fc7143" fill="#fc7143" fill-opacity="0.2" fill-rule="evenodd"/><path class="svg-region-LPl" d="M 780 489.911 C 780 492.341, 779.298 493.166, 775.750 494.910 C 773.413 496.059, 769.925 498.400, 768 500.111 C 764.103 503.577, 761.044 505, 757.492 505 C 756.184 505, 754.525 505.831, 753.807 506.848 C 752.958 508.047, 750.758 508.890, 747.532 509.249 C 741.435 509.929, 738.238 513.094, 735.019 521.639 L 732.810 527.500 735.562 532.427 C 743.953 547.449, 779.472 591, 783.333 591 C 783.819 591, 783.934 589.875, 783.589 588.500 C 783.240 587.107, 783.396 586, 783.942 586 C 784.482 586, 785.427 584.087, 786.043 581.750 C 786.659 579.413, 788.589 575.402, 790.332 572.839 C 793.034 568.862, 794.346 567.920, 799.254 566.429 C 804.336 564.885, 805.854 564.829, 812.254 565.949 C 816.678 566.724, 820.347 567.995, 821.676 569.214 C 826.158 573.325, 828.687 567.619, 829.588 551.365 C 830.443 535.954, 828.760 528.618, 821.889 517.805 C 819.200 513.573, 817 509.883, 817 509.605 C 817 509.328, 815.622 507.058, 813.938 504.563 C 811.828 501.436, 809.884 499.774, 807.688 499.219 C 805.446 498.652, 803.609 497.044, 801.500 493.803 C 797.721 487.996, 795.591 487, 786.953 487 L 780 487 780 489.911" stroke="#d2454f" fill="#d2454f" fill-opacity="0.2" fill-rule="evenodd"/><path class="svg-region-LPr" d="M 1050 478.124 C 1046.975 479.215, 1043.139 480.463, 1041.476 480.898 C 1036.667 482.154, 1033.897 483.959, 1027.635 489.918 C 1019.840 497.337, 1016.906 501.770, 1006.073 522.500 C 1004.236 526.017, 1004.034 536.829, 1005.390 559.143 L 1006.279 573.787 1008.442 569.696 C 1011.552 563.815, 1017.356 561.065, 1026.735 561.028 L 1033.970 561 1039.985 566.647 C 1045.663 571.978, 1046 572.555, 1046 576.934 C 1046 581.292, 1045.545 582.085, 1038.500 590 C 1034.375 594.634, 1031 598.780, 1031 599.213 C 1031 600.503, 1032.666 600.108, 1034 598.500 C 1034.685 597.675, 1035.628 597, 1036.097 597 C 1036.566 597, 1040.673 594.059, 1045.224 590.464 C 1055.507 582.342, 1055.168 582.630, 1057.115 580.373 C 1058.004 579.343, 1060.704 576.799, 1063.115 574.720 C 1065.527 572.642, 1071.100 567.761, 1075.500 563.875 C 1079.900 559.989, 1084.823 556.122, 1086.440 555.281 C 1091.765 552.512, 1096.933 544.379, 1096.978 538.700 C 1096.990 537.161, 1097.723 534.502, 1098.608 532.792 C 1101.059 528.051, 1100.173 510.998, 1097.176 505.250 C 1095.957 502.913, 1094.279 501, 1093.448 501 C 1092.617 501, 1091.678 500.325, 1091.362 499.500 C 1091.020 498.609, 1089.510 497.997, 1087.643 497.993 C 1083.137 497.984, 1073.923 491.160, 1069.730 484.726 C 1068.757 483.232, 1066.388 481.353, 1064.466 480.550 C 1062.544 479.747, 1060.705 478.395, 1060.379 477.545 C 1059.605 475.528, 1056.755 475.687, 1050 478.124" stroke="#d2454f" fill="#d2454f" fill-opacity="0.2" fill-rule="evenodd"/><path class="svg-region-Ol" d="M 466.979 331.334 C 466.692 331.632, 463.542 332.133, 459.979 332.448 C 445.826 333.698, 430.891 336.197, 426.500 338.049 C 425.400 338.513, 421.350 339.783, 417.500 340.872 C 400.442 345.695, 396.132 347.219, 387.496 351.476 C 382.449 353.964, 377.889 356, 377.363 356 C 376.329 356, 364.177 363.590, 359.842 366.944 C 358.380 368.075, 356.913 369, 356.583 369 C 356.252 369, 352.048 371.980, 347.241 375.621 C 334.080 385.590, 324.241 395.306, 308.974 413.406 C 306.698 416.104, 301.554 423.304, 297.543 429.406 C 268.472 473.632, 256.643 522.940, 262.425 575.803 C 264.196 592.006, 264.787 594.930, 266.669 596.812 C 267.401 597.544, 268 600.109, 268 602.512 C 268 604.916, 268.450 607.160, 269 607.500 C 269.550 607.840, 270.015 609.554, 270.033 611.309 C 270.068 614.762, 272.578 622.574, 275.301 627.700 C 276.235 629.461, 277.007 631.711, 277.015 632.700 C 277.023 633.690, 277.682 635.625, 278.479 637 C 279.276 638.375, 281.625 642.875, 283.699 647 C 306.641 692.622, 345.643 728.857, 392.914 748.467 C 413.057 756.824, 412.544 756.667, 437.500 762.083 C 454.572 765.787, 473.152 764.752, 485.784 759.393 C 487.590 758.627, 489.524 758, 490.082 758 C 490.640 758, 492.843 757.156, 494.977 756.125 C 497.111 755.094, 502.152 753.495, 506.179 752.572 C 510.205 751.649, 519.125 749.593, 526 748.003 C 532.875 746.413, 540.975 744.624, 544 744.026 C 549.337 742.971, 560.748 739.700, 572 735.999 C 577.242 734.275, 584.529 732.860, 595.500 731.438 C 598.250 731.082, 606.340 730.845, 613.478 730.911 C 627.037 731.038, 637.695 729.990, 649.500 727.366 C 659.951 725.044, 661.294 724.448, 678 714.717 C 679.925 713.595, 683.970 711.416, 686.988 709.874 C 694.803 705.880, 709.918 692.204, 715.582 684 C 716.911 682.075, 719.809 678.025, 722.022 675 C 726.020 669.535, 729.014 663.871, 729.423 661 C 729.540 660.175, 730.168 658.233, 730.818 656.685 C 731.468 655.137, 732 652.535, 732 650.903 C 732 649.271, 732.675 646.320, 733.500 644.346 C 737.312 635.223, 733.007 589.389, 726.657 571.500 C 723.367 562.228, 717.197 550.293, 713.194 545.452 C 710.963 542.755, 704.491 539.267, 699.500 538.071 C 679.807 533.356, 670 529.559, 670 526.650 C 670 523.344, 639.760 521.789, 628.246 524.504 C 624.807 525.315, 617.832 526.423, 612.746 526.966 C 599.030 528.430, 592.313 530.250, 581.698 535.379 C 576.437 537.921, 571.766 540.003, 571.317 540.006 C 570.868 540.010, 569.285 540.646, 567.801 541.420 C 562.862 543.997, 554.264 546, 548.143 546 C 542.329 546, 537 544.522, 537 542.909 C 537 541.062, 532.319 535.109, 530.480 534.617 C 526.098 533.446, 523.999 530.230, 524.015 524.711 C 524.024 521.845, 524.361 519.023, 524.765 518.439 C 525.169 517.855, 528.200 515.753, 531.500 513.766 C 537.054 510.423, 541.830 506.201, 547.073 500 C 551.019 495.332, 547.696 486.378, 540.425 482.088 C 537.981 480.646, 536.772 478.780, 535.129 473.916 C 533.958 470.448, 532.997 466.912, 532.994 466.056 C 532.990 465.200, 532.286 463.155, 531.429 461.511 C 529.674 458.144, 526 443.224, 526 439.461 C 526 438.108, 525.502 437, 524.893 437 C 524.284 437, 524.033 436.357, 524.334 435.571 C 524.636 434.785, 524.039 429.373, 523.008 423.543 C 521.976 417.713, 520.821 409.244, 520.440 404.722 C 520.059 400.200, 519.415 396.050, 519.009 395.500 C 518.603 394.950, 517.973 390.071, 517.609 384.658 C 517.185 378.354, 516.297 373.501, 515.139 371.158 C 514.145 369.146, 512.516 364.403, 511.519 360.617 C 510.485 356.691, 508.564 352.396, 507.047 350.617 C 505.585 348.903, 504.300 346.186, 504.191 344.581 C 504.083 342.975, 503.821 341.487, 503.609 341.275 C 503.397 341.063, 498.560 338.835, 492.862 336.323 C 484.456 332.619, 481.084 331.666, 475 331.275 C 470.875 331.009, 467.265 331.036, 466.979 331.334" stroke="#aa444d" fill="#aa444d" fill-opacity="0.2" fill-rule="evenodd"/><path class="svg-region-Or" d="M 1372 306.028 C 1367.875 306.383, 1362.609 307.209, 1360.298 307.863 C 1353.832 309.692, 1337.633 317.705, 1335.282 320.238 C 1334.127 321.482, 1332.052 323.281, 1330.671 324.236 C 1327.389 326.506, 1322.550 333.736, 1321.043 338.623 C 1320.386 340.755, 1319.588 343.175, 1319.271 344 C 1318.953 344.825, 1318.650 346.009, 1318.597 346.632 C 1318.543 347.255, 1317.367 348.899, 1315.982 350.287 C 1310.782 355.495, 1309.624 361.491, 1309.397 384.374 C 1309.280 396.202, 1308.685 407.253, 1308.025 409.874 C 1305.768 418.837, 1304.992 422.568, 1303.945 429.500 C 1303.364 433.350, 1302.463 436.928, 1301.944 437.450 C 1301.425 437.973, 1301 440.116, 1301 442.214 C 1301 447.469, 1296.453 455, 1293.280 455 C 1292.526 455, 1290.784 456.125, 1289.409 457.500 C 1288.034 458.875, 1286.274 460, 1285.497 460 C 1284.720 460, 1281.556 462.587, 1278.465 465.750 C 1273.273 471.062, 1272.892 471.766, 1273.461 475 C 1275.259 485.219, 1275.247 485.336, 1272.042 490.148 C 1270.251 492.838, 1267.904 495.058, 1266.473 495.417 C 1264.930 495.805, 1264 496.751, 1264 497.934 C 1264 499.568, 1262.939 499.929, 1256.306 500.550 C 1245.441 501.568, 1216.682 500.546, 1216.208 499.125 C 1216.002 498.506, 1214.997 498, 1213.976 498 C 1212.954 498, 1211.840 497.550, 1211.500 497 C 1210.171 494.849, 1201.279 496.347, 1199 499.105 C 1198.211 500.060, 1192.153 501.667, 1184 503.084 C 1179.426 503.879, 1174.744 505.463, 1172 507.143 C 1166.227 510.677, 1159.135 514, 1157.363 514 C 1156.603 514, 1152.273 516.008, 1147.740 518.461 C 1140.861 522.185, 1138.591 524.092, 1134 530.002 C 1130.975 533.897, 1127.487 537.749, 1126.250 538.564 C 1125.013 539.379, 1124 540.534, 1124 541.130 C 1124 541.726, 1122.649 545.044, 1120.999 548.503 C 1118.510 553.717, 1117.808 556.902, 1116.886 567.146 C 1115.505 582.492, 1115.531 581.144, 1116.451 589.500 C 1116.875 593.350, 1117.346 599.698, 1117.498 603.606 C 1117.839 612.389, 1118.047 613.074, 1124.299 625.938 C 1137.399 652.894, 1157.489 674.738, 1178.397 684.758 C 1186.313 688.551, 1201.952 694.457, 1206.500 695.370 C 1208.150 695.701, 1212.875 696.904, 1217 698.043 C 1221.125 699.183, 1227.875 700.707, 1232 701.432 C 1236.125 702.157, 1244.225 703.658, 1250 704.769 C 1255.775 705.880, 1264.550 707.329, 1269.500 707.991 C 1281.372 709.577, 1304.967 714.518, 1312.500 716.994 C 1318.954 719.116, 1333.600 723.053, 1346.500 726.133 C 1373.657 732.618, 1371.300 732.309, 1394 732.355 C 1414.228 732.397, 1416.180 732.234, 1427 729.598 C 1433.325 728.058, 1440.075 726.470, 1442 726.070 C 1457.120 722.927, 1489.987 706.548, 1504.756 694.797 C 1508.271 692, 1512.761 688.616, 1514.733 687.277 C 1529.082 677.540, 1550.299 652.081, 1560.390 632.491 C 1566.513 620.604, 1568.518 614.950, 1573.217 596.311 L 1576.447 583.500 1576.387 552 C 1576.342 528.136, 1575.948 518.318, 1574.762 511.500 C 1570.784 488.631, 1569.674 482.742, 1567.320 472 C 1565.933 465.675, 1564.362 458.250, 1563.828 455.500 C 1560.578 438.763, 1552.373 418.011, 1542.079 400.490 C 1533.956 386.664, 1529.887 381.630, 1514.602 366.500 C 1500.432 352.474, 1488.075 343.202, 1471 333.786 C 1462.487 329.091, 1445.652 321.562, 1438.319 319.169 C 1423.180 314.230, 1413.094 311.454, 1405 309.999 C 1402.525 309.554, 1396.900 308.482, 1392.500 307.617 C 1381.077 305.371, 1380.312 305.311, 1372 306.028" stroke="#aa444d" fill="#aa444d" fill-opacity="0.2" fill-rule="evenodd"/><path class="svg-region-Pl" d="M 539.125 362.704 C 537.125 363.498, 520.524 380.111, 519.159 382.684 C 517.817 385.213, 517.592 394.630, 518.854 395.410 C 519.323 395.700, 520.017 399.664, 520.396 404.219 C 521.077 412.397, 525.795 440.854, 528.401 452.500 C 529.139 455.800, 530.473 459.850, 531.365 461.500 C 532.258 463.150, 532.990 465.200, 532.994 466.056 C 532.997 466.912, 533.949 470.420, 535.108 473.853 C 536.566 478.171, 538.031 480.592, 539.858 481.707 C 541.311 482.594, 543.478 484.448, 544.673 485.829 C 546.921 488.426, 549.948 489.170, 564.063 490.596 C 569.550 491.150, 571.421 490.907, 575.471 489.116 C 578.135 487.938, 582.156 486.691, 584.407 486.346 C 589.720 485.532, 595.645 482.532, 597.021 479.960 C 597.620 478.841, 599.718 476.452, 601.684 474.651 C 604.652 471.931, 605.339 470.524, 605.741 466.346 C 606.209 461.476, 606.011 461.004, 599.473 451.409 C 595.760 445.959, 591.952 440.600, 591.011 439.500 C 590.071 438.400, 586.892 433.225, 583.947 428 C 581.003 422.775, 577.382 417.075, 575.901 415.333 C 574.419 413.592, 571.845 409.317, 570.180 405.833 C 567.626 400.491, 567.085 397.992, 566.722 389.866 C 566.252 379.365, 563.386 371.175, 559.857 370.252 C 558.848 369.989, 558.255 369.396, 558.540 368.935 C 558.825 368.474, 557.195 367.539, 554.918 366.857 C 552.641 366.175, 550.269 364.803, 549.648 363.808 C 548.533 362.023, 542.448 361.384, 539.125 362.704" stroke="#f9d3d3" fill="#f9d3d3" fill-opacity="0.2" fill-rule="evenodd"/><path class="svg-region-Pr" d="M 1273 366.029 C 1262.484 367.885, 1257.991 372.131, 1259.462 378.826 C 1261.020 385.921, 1252.076 396.688, 1240.485 401.671 C 1218.919 410.943, 1215 415.370, 1215 430.460 C 1215 435.157, 1215.395 439, 1215.879 439 C 1216.362 439, 1217.286 440.276, 1217.932 441.835 C 1219.536 445.709, 1224.519 451, 1226.563 451 C 1227.484 451, 1230.772 452.515, 1233.869 454.366 C 1236.966 456.217, 1242.650 458.766, 1246.500 460.031 C 1250.350 461.296, 1254.902 463.002, 1256.615 463.821 C 1259.006 464.964, 1261.955 465.177, 1269.293 464.739 C 1277.333 464.260, 1279.624 463.723, 1283.678 461.368 C 1286.330 459.828, 1289.148 457.937, 1289.940 457.166 C 1290.731 456.395, 1292.570 455.349, 1294.026 454.841 C 1297.367 453.677, 1301 447.042, 1301 442.105 C 1301 440.067, 1301.422 437.972, 1301.939 437.450 C 1302.455 436.927, 1303.573 432.450, 1304.423 427.500 C 1305.273 422.550, 1306.444 416.475, 1307.024 414 C 1309.125 405.042, 1310.191 389.816, 1309.039 385.240 C 1308.437 382.851, 1308.235 378.713, 1308.588 376.045 C 1309.150 371.811, 1308.971 371.055, 1307.182 370.097 C 1306.054 369.494, 1304.297 369, 1303.277 369 C 1302.257 369, 1299.658 368.100, 1297.500 367 C 1293.291 364.854, 1282.158 364.413, 1273 366.029 M 1280.872 439.750 C 1279.629 441.336, 1279.664 441.371, 1281.250 440.128 C 1282.916 438.821, 1283.445 438, 1282.622 438 C 1282.415 438, 1281.627 438.788, 1280.872 439.750" stroke="#f9d3d3" fill="#f9d3d3" fill-opacity="0.2" fill-rule="evenodd"/><path class="svg-region-DLl" d="M 601.850 362.933 C 592.958 368.905, 588.013 374.894, 584.882 383.483 C 581.856 391.784, 581.048 399.975, 583.250 400.033 C 584.819 400.075, 589 403.504, 589 404.750 C 589 405.261, 590.090 406.176, 591.423 406.783 C 592.756 407.390, 593.993 408.925, 594.173 410.193 C 594.629 413.410, 599.409 413.904, 602.449 411.048 C 605.418 408.259, 606.906 409.036, 610.543 415.278 C 613.492 420.338, 613.725 420.500, 618.043 420.500 L 622.500 420.500 622.187 414.401 C 621.920 409.176, 622.218 407.886, 624.267 405.401 C 625.583 403.805, 626.932 401.751, 627.265 400.836 C 627.650 399.778, 629.989 398.717, 633.686 397.924 C 639.607 396.652, 643 394.665, 643 392.467 C 643 391.795, 643.697 390.666, 644.550 389.959 C 646.541 388.306, 650 380.731, 650 378.023 C 650 376.876, 649.212 375.643, 648.250 375.283 C 647.288 374.924, 643.962 372.907, 640.860 370.802 C 631.212 364.255, 622.495 360.841, 614.030 360.295 C 606.875 359.833, 606.268 359.965, 601.850 362.933" stroke="#b7d6d3" fill="#b7d6d3" fill-opacity="0.2" fill-rule="evenodd"/><path class="svg-region-DLr" d="M 1181.798 351.812 C 1180.057 352.013, 1178.850 352.903, 1178.406 354.312 C 1178.027 355.515, 1176.431 358.065, 1174.859 359.978 C 1170.966 364.714, 1170.823 371.078, 1174.551 373.703 C 1175.954 374.691, 1178.916 377.188, 1181.133 379.250 C 1183.349 381.313, 1185.767 383, 1186.505 383 C 1187.243 383, 1189.184 384.125, 1190.818 385.500 C 1192.452 386.875, 1194.299 388, 1194.923 388 C 1195.547 388, 1198.731 389.350, 1202 391 C 1205.269 392.650, 1208.624 394, 1209.457 394 C 1210.290 394, 1212.170 392.189, 1213.635 389.975 C 1215.951 386.476, 1216.145 385.613, 1215.120 383.363 C 1214.414 381.815, 1214.298 380.319, 1214.830 379.638 C 1215.319 379.012, 1215.766 373.716, 1215.822 367.870 L 1215.925 357.239 1210.212 354.714 C 1205.635 352.691, 1202.513 352.120, 1194.500 351.844 C 1189 351.655, 1183.284 351.640, 1181.798 351.812" stroke="#b7d6d3" fill="#b7d6d3" fill-opacity="0.2" fill-rule="evenodd"/><path class="svg-region-OGl" d="M 572.937 315.576 C 572.038 316.659, 570.668 316.978, 568.564 316.596 C 565.537 316.046, 561.412 318.095, 553.944 323.858 C 550.761 326.315, 546 339.799, 546 346.357 C 546 355.469, 549.054 364.940, 552.263 365.779 C 553.481 366.098, 556.956 367.662, 559.985 369.255 C 570.001 374.524, 577.482 374.396, 584.851 368.829 C 586.145 367.852, 588.724 366.767, 590.582 366.419 C 594.784 365.630, 600.173 359.881, 603.428 352.714 C 610.670 336.770, 610.771 334.735, 604.625 328.675 C 602.219 326.303, 599.957 323.440, 599.599 322.313 C 598.426 318.616, 595.483 317.040, 586.932 315.528 C 576.232 313.636, 574.542 313.642, 572.937 315.576" stroke="#d66e9d" fill="#d66e9d" fill-opacity="0.2" fill-rule="evenodd"/><path class="svg-region-OGr" d="M 1221.776 300.090 C 1213.955 302.897, 1210.696 305.308, 1206.500 311.394 C 1202.948 316.545, 1202.504 317.840, 1202.533 322.961 C 1202.560 327.768, 1203.030 329.292, 1205.354 332.114 C 1206.887 333.976, 1209.122 337.030, 1210.321 338.901 C 1211.724 341.091, 1215.171 343.758, 1220 346.390 C 1227.452 350.451, 1227.569 350.477, 1238.248 350.489 L 1248.996 350.500 1255.998 343.071 C 1262.808 335.845, 1263.398 334.789, 1263.061 330.414 C 1262.972 329.267, 1263.597 327.749, 1264.450 327.042 C 1266.187 325.600, 1266.536 321.449, 1265 320.500 C 1264.450 320.160, 1264 319.114, 1264 318.175 C 1264 313.027, 1256.773 305.566, 1247.500 301.141 C 1241.770 298.406, 1228.031 297.845, 1221.776 300.090" stroke="#d66e9d" fill="#d66e9d" fill-opacity="0.2" fill-rule="evenodd"/><path class="svg-region-OLl" d="M 587 367.944 C 585.075 369.012, 582.302 370.391, 580.839 371.010 C 577.900 372.251, 573 378.950, 572.999 381.729 C 572.999 382.703, 571.649 386.353, 569.999 389.840 C 568.350 393.327, 567 396.959, 567 397.913 C 567 402.892, 577.365 419, 580.569 419 C 581.318 419, 584.059 417.650, 586.661 416 C 589.263 414.350, 591.978 413, 592.696 413 C 593.478 413, 594 411.800, 594 410 C 594 408.052, 593.494 407, 592.557 407 C 591.763 407, 590.525 406.184, 589.807 405.188 C 589.088 404.191, 587.038 402.306, 585.250 401 C 582.551 399.027, 582 397.967, 582 394.747 C 582 388.296, 587.732 375.345, 592.750 370.461 C 594.538 368.721, 596 367.006, 596 366.649 C 596 365.277, 590.340 366.092, 587 367.944" stroke="#c4875d" fill="#c4875d" fill-opacity="0.2" fill-rule="evenodd"/><path class="svg-region-OLr" d="M 1212.273 348.113 C 1210.498 348.626, 1208.571 349.934, 1207.990 351.019 C 1207.058 352.760, 1207.477 353.258, 1211.528 355.226 L 1216.123 357.458 1215.893 363.088 C 1215.715 367.442, 1216.135 369.380, 1217.744 371.640 C 1219.278 373.795, 1219.569 375.018, 1218.853 376.299 C 1218.318 377.254, 1217.637 381.065, 1217.339 384.768 C 1216.860 390.717, 1217.070 391.891, 1219.149 394.863 C 1220.442 396.713, 1224.041 399.789, 1227.147 401.698 L 1232.794 405.170 1239.576 402.183 C 1247.761 398.577, 1254.706 392.796, 1257.750 387.054 C 1260.601 381.678, 1260.571 380.371, 1257.463 374.526 L 1254.926 369.755 1256.963 365.847 C 1259.659 360.675, 1259.534 359.153, 1256.311 357.928 C 1254.832 357.366, 1253.033 356.065, 1252.313 355.036 C 1250.834 352.925, 1243.277 351.016, 1236.201 350.967 C 1233.615 350.949, 1229.025 350.064, 1226 349 C 1219.977 346.881, 1217.164 346.700, 1212.273 348.113" stroke="#c4875d" fill="#c4875d" fill-opacity="0.2" fill-rule="evenodd"/><path class="svg-region-VOC" d="M 715.578 385.180 C 713.330 387.806, 712 390.396, 712 392.146 C 712 394.978, 714.882 402.225, 716.250 402.833 C 716.663 403.017, 717 403.621, 717 404.176 C 717 404.731, 717.900 406.329, 719 407.727 C 722.295 411.916, 721.630 416.477, 716.951 421.793 C 713.793 425.380, 712.968 427.064, 713.201 429.446 L 713.500 432.500 720.275 432.146 C 725.806 431.857, 728.469 431.059, 734.775 427.801 C 739.024 425.607, 742.996 423.404, 743.603 422.905 C 744.209 422.407, 747.379 422.279, 750.647 422.621 C 755.799 423.159, 757.273 422.895, 761.738 420.633 C 764.570 419.197, 767.250 417.443, 767.694 416.735 C 768.137 416.026, 770.379 413.984, 772.676 412.197 C 775.250 410.196, 777.102 407.811, 777.503 405.985 C 778.079 403.364, 777.559 402.441, 773.011 398.010 C 770.181 395.255, 767.447 393, 766.933 393 C 766.420 393, 765.997 392.663, 765.994 392.250 C 765.985 391.179, 760.154 388.002, 758.169 387.987 C 757.251 387.980, 753.647 387.080, 750.161 385.987 C 746.674 384.894, 742.113 384, 740.025 384 C 737.937 384, 734.940 383.328, 733.364 382.506 C 731.789 381.685, 727.948 381.010, 724.828 381.006 C 719.404 381, 718.999 381.183, 715.578 385.180 M 1051.294 383.505 C 1048.431 384.844, 1044.831 386.245, 1043.294 386.618 C 1041.757 386.992, 1038.700 388.667, 1036.500 390.341 C 1034.300 392.016, 1032.345 393.492, 1032.155 393.621 C 1031.131 394.320, 1033.562 400.580, 1035.924 403.324 C 1039.023 406.925, 1043 414.790, 1043 417.316 C 1043 418.242, 1043.450 419, 1044 419 C 1044.550 419, 1045 419.883, 1045 420.961 C 1045 422.440, 1046.045 423.177, 1049.250 423.956 C 1053.354 424.953, 1055.514 425.677, 1063 428.563 C 1064.925 429.305, 1068.862 429.932, 1071.750 429.956 C 1074.638 429.980, 1077 430.450, 1077 431 C 1077 431.550, 1078.732 432, 1080.850 432 C 1083.541 432, 1085.947 432.903, 1088.841 435 C 1092.990 438.005, 1100.146 439.190, 1101.446 437.087 C 1101.757 436.585, 1103.863 435.861, 1106.128 435.478 C 1110.298 434.774, 1114.689 431.432, 1116.852 427.316 C 1118.562 424.061, 1118.281 423.082, 1115.250 421.736 C 1113.737 421.064, 1111.600 419.671, 1110.500 418.640 C 1109.400 417.609, 1107.145 416.182, 1105.490 415.469 C 1103.834 414.756, 1101.069 412.624, 1099.346 410.730 C 1096.575 407.685, 1096.271 406.776, 1096.713 402.854 C 1097.084 399.558, 1096.802 398.081, 1095.613 397.094 C 1094.439 396.120, 1094.172 394.779, 1094.607 392.055 C 1095.284 387.823, 1093.328 385.015, 1089.679 384.978 C 1088.480 384.966, 1085.538 384.066, 1083.141 382.978 C 1079.613 381.377, 1076.657 381.007, 1067.641 381.035 C 1057.973 381.065, 1055.812 381.392, 1051.294 383.505" stroke="#ff8f93" fill="#ff8f93" fill-opacity="0.2" fill-rule="evenodd"/><path class="svg-region-OABl" d="M 706.500 496.586 C 695.775 497.980, 683 500.866, 683 501.895 C 683 502.299, 681.313 503.446, 679.250 504.445 C 676.169 505.936, 673.316 506.226, 663.256 506.068 C 653.132 505.908, 649.841 506.247, 644.256 508.021 C 640.540 509.201, 636.825 510.585, 636 511.096 C 626.937 516.706, 625 518.342, 625 520.386 C 625 524.007, 626.614 524.840, 631.577 523.781 C 640.875 521.798, 680.593 524.820, 687.500 528.036 C 689.700 529.061, 694.082 530.657, 697.238 531.583 C 700.394 532.509, 703.487 533.881, 704.110 534.633 C 704.734 535.385, 705.915 536, 706.734 536 C 707.879 536, 708.079 535.232, 707.599 532.676 C 707.060 529.805, 707.413 528.963, 710.186 526.492 L 713.396 523.632 710.948 522.903 C 709.602 522.503, 707.231 521.894, 705.679 521.551 C 701.942 520.723, 702.769 518.653, 707.120 517.946 C 709.021 517.637, 712.696 516.357, 715.288 515.103 C 719.831 512.904, 720 512.665, 720 508.478 C 720 505.054, 719.588 504.004, 718.055 503.517 C 716.671 503.078, 716.022 501.822, 715.805 499.158 L 715.500 495.416 706.500 496.586" stroke="#81244d" fill="#81244d" fill-opacity="0.2" fill-rule="evenodd"/><path class="svg-region-OABr" d="M 1174 481.661 C 1172.625 481.947, 1170.068 483.265, 1168.317 484.590 C 1166.061 486.298, 1163.838 487, 1160.689 487 C 1155.459 487, 1154.461 487.975, 1153.529 494 C 1152.084 503.345, 1152.392 507.342, 1154.820 510.750 C 1157.601 514.652, 1158.406 514.719, 1164.093 511.524 C 1166.517 510.162, 1170.188 508.313, 1172.250 507.415 C 1174.313 506.517, 1176 505.469, 1176 505.086 C 1176 504.703, 1179.487 503.820, 1183.750 503.123 C 1193.265 501.567, 1199 499.957, 1199 498.842 C 1199 498.379, 1199.900 498, 1201 498 C 1202.100 498, 1203 497.550, 1203 497 C 1203 495.330, 1209.728 495.882, 1213.220 497.838 C 1215.024 498.849, 1218.330 499.920, 1220.566 500.218 C 1224.520 500.745, 1224.679 500.652, 1226.339 496.821 C 1227.277 494.655, 1227.809 492.501, 1227.521 492.035 C 1226.483 490.355, 1217.530 488, 1212.182 488 C 1207.818 488, 1205.703 487.373, 1201.653 484.882 C 1197.002 482.020, 1195.759 481.738, 1186.543 481.452 C 1181.019 481.281, 1175.375 481.375, 1174 481.661" stroke="#81244d" fill="#81244d" fill-opacity="0.2" fill-rule="evenodd"/><path class="svg-region-SOTl" d="M 884.500 350.125 C 877.900 350.572, 868.128 350.679, 862.785 350.364 C 853.096 349.791, 853.052 349.799, 846.785 353.280 C 843.328 355.199, 838.925 357.088, 837 357.476 C 828.622 359.167, 822.554 361.885, 804.908 371.854 C 797.291 376.156, 795.226 381.614, 798.098 389.851 C 798.985 392.396, 799.746 393, 802.063 393 C 803.834 393, 805.310 392.289, 805.924 391.141 C 806.472 390.119, 809.015 388.696, 811.576 387.979 C 814.137 387.262, 817.418 385.707, 818.866 384.525 C 820.315 383.342, 823.594 381.595, 826.153 380.641 C 830.921 378.866, 831.782 378.202, 843.034 367.636 C 848.297 362.693, 850.923 361.052, 856.534 359.199 C 872.791 353.829, 874.747 353.523, 892.295 353.602 C 906.421 353.667, 909.004 353.453, 908.545 352.258 C 908.245 351.476, 908 350.423, 908 349.918 C 908 348.885, 902.027 348.938, 884.500 350.125 M 764.500 423.653 C 760.650 424.466, 750.975 426.638, 743 428.481 C 735.025 430.323, 726.925 432.127, 725 432.490 C 723.075 432.852, 719.925 433.821, 718 434.642 C 710.811 437.709, 709.417 438.319, 706 439.890 C 704.075 440.776, 698.831 443.863, 694.346 446.750 C 689.861 449.637, 685.754 452, 685.218 452 C 684.683 452, 683.777 452.564, 683.205 453.253 C 682.633 453.942, 679.091 456.068, 675.333 457.978 C 671.575 459.887, 668.050 461.999, 667.500 462.670 C 666.950 463.341, 665.914 464.027, 665.198 464.195 C 664.482 464.363, 662.232 465.940, 660.198 467.699 C 658.164 469.458, 651.550 474.218, 645.500 478.275 C 636.425 484.361, 634.443 486.139, 634.173 488.433 C 633.848 491.205, 633.861 491.212, 638.673 490.602 C 641.328 490.266, 646.533 489.717, 650.239 489.383 C 656.873 488.785, 657.083 488.675, 663.655 482.388 C 667.328 478.874, 670.761 476, 671.284 476 C 671.808 476, 673.774 474.650, 675.653 473 C 677.532 471.350, 680.144 470, 681.458 470 C 682.772 470, 685.119 468.931, 686.673 467.624 C 688.228 466.317, 691.141 464.404, 693.147 463.374 C 695.153 462.343, 699.696 459.813, 703.243 457.750 C 706.790 455.688, 710.691 454, 711.912 454 C 713.133 454, 714.995 453.538, 716.051 452.972 C 717.107 452.407, 719.890 451.549, 722.236 451.065 C 724.581 450.581, 729.604 449.018, 733.397 447.593 C 738.503 445.673, 742.268 444.984, 747.897 444.938 C 752.079 444.904, 758.784 444.547, 762.797 444.145 C 769.228 443.501, 770.385 443.062, 772.535 440.457 C 774.704 437.828, 774.948 436.668, 774.737 430.011 C 774.462 421.330, 774.724 421.493, 764.500 423.653" stroke="#995b45" fill="#995b45" fill-opacity="0.2" fill-rule="evenodd"/><path class="svg-region-SOTr" d="M 918.010 348.661 C 913.341 349.441, 909.198 350.402, 908.802 350.798 C 906.738 352.862, 911.350 353.753, 932 355.281 C 944.375 356.196, 956.525 357.605, 959 358.411 C 971.618 362.521, 977.074 364.781, 986.500 369.799 C 996.615 375.184, 1000.860 376.958, 1003.677 376.978 C 1005.858 376.993, 1007.472 377.784, 1008.821 379.500 C 1010.269 381.341, 1011.739 382, 1014.394 382 C 1016.642 382, 1017.979 381.529, 1017.943 380.750 C 1017.875 379.236, 1009.357 372.986, 998.500 366.483 C 994.100 363.848, 989.361 360.901, 987.969 359.933 C 986.576 358.966, 981.401 356.972, 976.469 355.501 C 971.536 354.031, 966.607 352.561, 965.516 352.236 C 964.425 351.911, 962.850 350.872, 962.016 349.927 C 959.849 347.472, 930.224 346.620, 918.010 348.661 M 1100.583 410.866 C 1099.926 411.929, 1102.783 414.546, 1105.500 415.371 C 1106.600 415.705, 1108.625 416.999, 1110 418.247 C 1111.375 419.495, 1113.782 421.086, 1115.348 421.782 C 1117.472 422.725, 1118.015 423.486, 1117.485 424.773 C 1117.093 425.723, 1116.547 427.288, 1116.270 428.250 C 1115.993 429.212, 1115.369 430, 1114.883 430 C 1114.398 430, 1114 430.450, 1114 431 C 1114 431.550, 1115.127 432, 1116.504 432 C 1117.881 432, 1120.686 432.900, 1122.739 434 C 1124.791 435.100, 1126.955 436, 1127.548 436 C 1128.141 436, 1130.958 437.125, 1133.808 438.500 C 1136.658 439.875, 1139.357 441, 1139.805 441 C 1140.564 441, 1149.035 447.653, 1153.443 451.711 C 1156.820 454.820, 1159.387 455.928, 1163.292 455.965 L 1167.084 456 1164.542 451.662 C 1163.144 449.276, 1162 446.421, 1162 445.317 C 1162 444.213, 1161.213 442.602, 1160.250 441.736 C 1157.811 439.543, 1140.026 431, 1137.899 431 C 1136.939 431, 1134.827 429.884, 1133.206 428.520 C 1131.585 427.156, 1128.175 425.147, 1125.629 424.055 C 1122.510 422.718, 1121 421.468, 1121 420.224 C 1121 417.688, 1116.692 414.733, 1109.246 412.160 C 1102.283 409.755, 1101.355 409.616, 1100.583 410.866" stroke="#995b45" fill="#995b45" fill-opacity="0.2" fill-rule="evenodd"/><path class="svg-region-BPCl" d="M 798 566.605 C 792.783 568.304, 787.541 574.599, 786.435 580.494 C 786.063 582.476, 785.124 584.733, 784.349 585.508 C 783.136 586.722, 783.144 587.408, 784.406 590.429 C 786.245 594.832, 791.497 600.142, 795.750 601.899 C 797.538 602.638, 799 603.587, 799 604.007 C 799 604.428, 800.585 605.524, 802.522 606.443 C 807.016 608.576, 815.317 608.678, 818.430 606.638 C 821.484 604.637, 827.010 593.598, 826.965 589.590 C 826.918 585.445, 824.652 575.331, 822.795 570.979 C 821.367 567.631, 820.941 567.397, 814.128 566.229 C 805.319 564.718, 803.676 564.756, 798 566.605" stroke="#83385f" fill="#83385f" fill-opacity="0.2" fill-rule="evenodd"/><path class="svg-region-BPCr" d="M 1015.295 563.278 C 1012.983 564.500, 1010.058 566.840, 1008.795 568.477 C 1006.732 571.153, 1006.526 572.374, 1006.761 580.537 C 1007.039 590.226, 1007.696 592.147, 1014.014 601.750 C 1017.115 606.463, 1017.828 606.995, 1020.984 606.951 C 1024.017 606.910, 1025.118 606.141, 1029 601.359 C 1031.475 598.310, 1036.313 592.603, 1039.750 588.677 C 1045.454 582.161, 1045.999 581.143, 1045.985 577.019 C 1045.967 571.759, 1046.070 571.932, 1039.293 565.750 L 1034.086 561 1026.793 561.028 C 1021.224 561.050, 1018.506 561.582, 1015.295 563.278" stroke="#83385f" fill="#83385f" fill-opacity="0.2" fill-rule="evenodd"/><path class="svg-region-OVl" d="M 697.500 346.647 C 687.739 350.655, 673.795 358.066, 669.500 361.530 C 667.300 363.304, 664.375 365.089, 663 365.496 C 660.118 366.350, 657 368.851, 657 370.311 C 657 370.861, 655.875 372.786, 654.500 374.589 C 653.125 376.392, 652 378.192, 652 378.589 C 652 378.986, 650.875 380.786, 649.500 382.589 C 648.125 384.392, 647 386.277, 647 386.778 C 647 387.280, 646.100 388.505, 645 389.500 C 643.900 390.495, 643 391.845, 643 392.500 C 643 394.230, 639.638 397, 637.537 397 C 632.217 397, 628.106 399.356, 624.963 404.207 C 622.115 408.602, 621.832 409.676, 622.397 413.937 C 623.152 419.629, 621.806 421.299, 616.851 420.818 C 614.083 420.550, 613.099 419.686, 610.536 415.278 C 606.901 409.026, 605.624 408.364, 602.276 410.997 C 600.677 412.255, 598.200 413.005, 595.615 413.015 C 593.352 413.023, 590.375 413.686, 589 414.489 C 587.625 415.291, 584.835 416.778, 582.799 417.792 C 579.098 419.635, 579.098 419.636, 580.686 422.568 C 585.402 431.282, 588.468 436.062, 598.250 449.960 C 604.600 458.983, 605.999 461.651, 605.996 464.736 C 605.992 469.061, 603.228 474.149, 599.587 476.535 C 598.207 477.439, 596.803 479.046, 596.466 480.106 C 595.697 482.530, 589.841 485.513, 584.125 486.391 C 581.720 486.761, 577.701 487.997, 575.195 489.139 C 570.488 491.283, 570.332 491.285, 553.718 489.402 L 547.936 488.747 548.582 492.790 C 549.153 496.360, 548.836 497.335, 545.864 501.134 C 541.595 506.592, 539.972 508.006, 532 513.212 C 528.425 515.546, 525.169 517.916, 524.765 518.478 C 524.361 519.040, 524.024 521.862, 524.015 524.750 C 523.998 530.519, 525.906 533.436, 530.439 534.574 C 531.808 534.918, 533.209 536.084, 533.552 537.165 C 533.896 538.247, 535.533 540.677, 537.192 542.566 C 540.129 545.911, 540.405 546, 547.783 546 C 555.544 546, 559.407 545.153, 566.610 541.872 C 568.870 540.842, 571.037 540, 571.426 540 C 571.815 540, 576.437 537.921, 581.698 535.379 C 592.278 530.267, 599.065 528.421, 612.500 527.004 C 626.161 525.563, 626.194 525.549, 625.449 521.580 C 624.845 518.362, 625.037 518.094, 629.908 515.359 C 632.708 513.786, 634.998 512.182, 634.999 511.792 C 635 511.403, 638.150 510.147, 642 509 C 645.850 507.853, 649 506.650, 649 506.326 C 649 506.001, 648.021 504.152, 646.824 502.215 L 644.648 498.694 650.074 493.791 L 655.500 488.888 649 489.506 C 635.708 490.772, 634.527 490.688, 634.207 488.456 C 633.913 486.402, 641.093 480.684, 654.769 472.081 C 657.667 470.259, 660.822 467.771, 661.779 466.554 C 662.737 465.336, 664.036 464.512, 664.667 464.722 C 665.297 464.932, 666.425 464.231, 667.173 463.163 C 667.921 462.096, 670.132 460.554, 672.086 459.737 C 674.040 458.921, 677.633 456.964, 680.070 455.388 C 682.506 453.813, 685.781 451.959, 687.346 451.270 C 688.912 450.580, 691.883 448.677, 693.949 447.041 C 697.753 444.027, 703.416 440.978, 712.500 437.052 C 715.250 435.863, 718.400 434.498, 719.500 434.019 C 720.600 433.539, 722.175 432.901, 723 432.602 C 723.825 432.303, 722.025 432.158, 719 432.279 C 713.544 432.498, 713.498 432.476, 713.201 429.446 C 712.968 427.064, 713.793 425.380, 716.951 421.793 C 721.701 416.397, 722.172 412.666, 718.803 407.118 C 717.594 405.128, 716.334 403.275, 716.001 403 C 714.967 402.144, 712 393.539, 712 391.397 C 712 390.276, 713.610 387.479, 715.578 385.180 C 718.884 381.317, 719.532 381, 724.110 381 C 726.835 381, 730.680 381.675, 732.654 382.500 C 734.629 383.325, 737.764 384, 739.622 384 C 742.369 384, 743 383.614, 743 381.934 C 743 377.856, 737.121 370.004, 734.063 369.996 C 731.581 369.990, 726.991 366.717, 720.230 360.131 C 713.869 353.935, 712 350.825, 712 346.435 C 712 344.223, 711.612 344.008, 707.750 344.092 C 705.413 344.142, 700.800 345.292, 697.500 346.647 M 728.510 431.016 C 728.856 431.575, 729.557 431.774, 730.069 431.457 C 731.456 430.600, 731.198 430, 729.441 430 C 728.584 430, 728.165 430.457, 728.510 431.016 M 660 485.500 C 659.282 486.365, 659.185 487, 659.771 487 C 660.329 487, 661.045 486.325, 661.362 485.500 C 661.678 484.675, 661.781 484, 661.591 484 C 661.401 484, 660.685 484.675, 660 485.500" stroke="#593939" fill="#593939" fill-opacity="0.2" fill-rule="evenodd"/><path class="svg-region-OVr" d="M 1214.200 389.054 C 1212.659 391.745, 1211.009 393.248, 1209.198 393.610 C 1207.283 393.993, 1205.921 395.333, 1204.523 398.208 C 1203.438 400.439, 1201.751 402.763, 1200.775 403.373 C 1198.791 404.612, 1198.423 408.023, 1200.093 409.693 C 1201.149 410.749, 1198.343 420.889, 1194.975 428.189 C 1193.929 430.456, 1193.990 431.133, 1195.366 432.509 C 1196.263 433.406, 1197.296 435.331, 1197.661 436.786 C 1198.648 440.718, 1201.191 443.024, 1203.789 442.345 C 1205.331 441.942, 1206 441.006, 1206 439.253 C 1206 436.866, 1206.226 436.765, 1210.500 437.247 L 1215 437.754 1215 429.837 C 1215 418.415, 1219.222 411.311, 1228.250 407.540 C 1230.313 406.678, 1231.978 405.642, 1231.952 405.237 C 1231.926 404.831, 1229.396 402.925, 1226.332 401 C 1219.882 396.949, 1217.816 394.253, 1217.050 388.889 L 1216.500 385.037 1214.200 389.054 M 1163.035 448.621 C 1163.055 449.104, 1163.714 450.625, 1164.500 452 C 1165.286 453.375, 1165.945 454.769, 1165.965 455.098 C 1166.035 456.292, 1159.592 455.840, 1156.932 454.465 C 1154.301 453.104, 1154.148 453.169, 1152.684 456.277 C 1151.849 458.050, 1150.833 461.295, 1150.427 463.490 C 1150.020 465.684, 1148.868 469.284, 1147.866 471.490 C 1145.454 476.799, 1145.542 478.580, 1148.504 484.419 C 1149.877 487.125, 1151 490.111, 1151 491.055 C 1151 491.999, 1151.672 494.060, 1152.494 495.636 L 1153.988 498.500 1153.994 493.950 C 1154.001 488.301, 1155.248 487, 1160.656 487 C 1163.522 487, 1166.089 486.201, 1168.519 484.552 C 1173.013 481.502, 1179.057 480.554, 1189.077 481.326 C 1195.338 481.809, 1197.809 482.516, 1201.785 484.963 C 1205.622 487.324, 1207.879 488, 1211.923 488 C 1217.166 488, 1226.560 490.479, 1227.582 492.133 C 1227.886 492.624, 1227.436 494.424, 1226.583 496.134 C 1225.730 497.844, 1225.276 499.638, 1225.575 500.121 C 1226.197 501.127, 1250.868 501.299, 1258.750 500.352 C 1262.897 499.854, 1264 499.345, 1264 497.928 C 1264 496.940, 1265.010 495.824, 1266.250 495.443 C 1271.422 493.854, 1275.513 486.559, 1274.583 480.587 C 1274.232 478.339, 1273.791 475.453, 1273.602 474.173 C 1273.397 472.786, 1274.216 470.708, 1275.629 469.029 C 1276.933 467.479, 1278 465.770, 1278 465.231 C 1278 464.624, 1274.515 464.450, 1268.851 464.773 C 1261.963 465.165, 1258.936 464.928, 1256.601 463.813 C 1254.895 462.998, 1250.350 461.295, 1246.500 460.028 C 1242.650 458.760, 1238.825 457.198, 1238 456.555 C 1237.175 455.913, 1235.375 454.853, 1234 454.201 C 1232.625 453.548, 1230.736 452.466, 1229.803 451.796 C 1226.917 449.724, 1222.779 451.911, 1220.500 456.714 C 1219.327 459.184, 1217.796 460.943, 1216.799 460.964 C 1213.947 461.025, 1204.681 463.709, 1201.500 465.397 C 1199.850 466.272, 1197.109 466.990, 1195.409 466.994 C 1192.736 466.999, 1191.958 466.338, 1189.659 462.115 C 1188.197 459.428, 1187 456.579, 1187 455.784 C 1187 454.292, 1185.219 453.173, 1178.746 450.594 C 1174.232 448.796, 1162.986 447.384, 1163.035 448.621" stroke="#593939" fill="#593939" fill-opacity="0.2" fill-rule="evenodd"/><path class="svg-region-ODMl" d="M 676.500 472.167 C 675.400 472.802, 674.140 473.925, 673.700 474.661 C 673.260 475.398, 672.263 476, 671.484 476 C 670.705 476, 666.952 479.038, 663.144 482.750 C 659.336 486.462, 653.696 491.434, 650.610 493.797 C 647.525 496.161, 645.002 498.636, 645.005 499.297 C 645.008 499.959, 646.020 501.718, 647.255 503.207 C 649.464 505.870, 649.706 505.917, 662.500 506.133 C 677.211 506.382, 678.208 506.074, 688.345 498.134 C 693.798 493.863, 694.153 493.332, 693.647 490.213 C 693.349 488.375, 691.111 483.412, 688.673 479.185 C 684.910 472.658, 683.809 471.463, 681.371 471.255 C 679.792 471.121, 677.600 471.531, 676.500 472.167" stroke="#999999" fill="#999999" fill-opacity="0.2" fill-rule="evenodd"/><path class="svg-region-ODMr" d="M 1206 439.500 C 1206 441.049, 1205.433 442, 1204.509 442 C 1203.688 442, 1200.954 443.575, 1198.432 445.500 C 1195.910 447.425, 1192.643 449.295, 1191.173 449.654 C 1186.203 450.870, 1185.714 454.529, 1189.517 462.033 C 1191.725 466.392, 1192.416 467, 1195.157 467 C 1196.875 467, 1200.130 466.133, 1202.390 465.074 C 1204.651 464.015, 1209.243 462.587, 1212.596 461.902 C 1217.610 460.877, 1218.884 460.199, 1219.776 458.078 C 1220.372 456.660, 1221.623 454.341, 1222.556 452.924 C 1224.216 450.403, 1224.175 450.246, 1220.626 445.597 C 1218.632 442.985, 1217 440.504, 1217 440.084 C 1217 438.856, 1212.158 437, 1208.953 437 C 1206.470 437, 1206 437.398, 1206 439.500" stroke="#999999" fill="#999999" fill-opacity="0.2" fill-rule="evenodd"/>
    </svg>