<svg xmlns="http://www.w3.org/2000/svg" width="1921" height="1027" viewBox="0 0 1921 1027" version="1.1">
    <path class="svg-region-V" d="M 772.500 163.966 C 768.650 164.995, 764.283 165.874, 762.796 165.918 C 759.940 166.005, 743.756 170.990, 740.448 172.803 C 739.377 173.390, 737.150 174.314, 735.500 174.857 C 730.908 176.366, 716.977 182.410, 712.564 184.808 C 709.066 186.709, 691.889 201.951, 669.987 222.589 C 665.849 226.488, 662.022 229.863, 661.482 230.089 C 660.536 230.485, 658.015 234.654, 654.280 242 C 653.301 243.925, 652.275 245.727, 652 246.005 C 650.819 247.199, 640.996 266.977, 639.089 272 C 637.484 276.227, 637.001 279.785, 637.001 287.371 L 637 297.242 642.073 306.032 C 644.863 310.867, 647.901 315.473, 648.823 316.269 C 651.090 318.225, 661.402 323.368, 667.289 325.478 C 669.924 326.423, 673.299 328.193, 674.789 329.413 C 680.005 333.680, 684.765 336, 688.304 336 C 690.267 336, 696.514 337.125, 702.186 338.499 C 711.458 340.746, 713.106 340.880, 718.500 339.827 C 724.605 338.635, 734 333.726, 734 331.729 C 734 331.124, 734.912 329.658, 736.027 328.471 C 737.142 327.284, 738.241 325.455, 738.468 324.407 C 738.696 323.358, 739.444 321.073, 740.130 319.329 C 741.192 316.633, 741.095 315.325, 739.484 310.584 C 738.006 306.236, 737.854 304.746, 738.795 303.805 C 739.458 303.142, 740 300.697, 740 298.371 C 740 294.943, 740.638 293.466, 743.368 290.571 C 745.369 288.450, 747.688 287, 749.080 287 C 750.472 287, 753.093 285.362, 755.532 282.968 C 758.711 279.849, 760.756 278.752, 764.570 278.124 C 767.282 277.677, 771.114 276.620, 773.087 275.775 C 775.420 274.775, 777.236 274.552, 778.280 275.137 C 780.220 276.223, 787.973 274.662, 789.014 272.977 C 789.434 272.298, 793.047 271.656, 797.619 271.450 C 801.954 271.254, 807.072 270.622, 808.993 270.047 C 810.915 269.471, 816.090 269.013, 820.493 269.028 C 827.833 269.053, 828.833 269.307, 832.494 272.077 C 836.415 275.043, 836.682 275.094, 847.223 274.888 C 857.767 274.682, 857.996 274.726, 860.052 277.339 C 861.575 279.275, 863.059 280, 865.498 280 C 868.402 280, 869.161 280.563, 871.175 284.211 C 872.454 286.528, 875.075 289.470, 877 290.749 C 878.925 292.029, 881.332 294.634, 882.348 296.538 C 883.364 298.442, 884.804 300, 885.547 300 C 886.289 300, 888.066 301.083, 889.494 302.407 C 891.330 304.108, 893.792 305.012, 897.887 305.487 C 904.617 306.268, 907.928 305.174, 916.001 299.499 C 919.215 297.240, 922.925 295.562, 925.405 295.246 C 927.657 294.959, 930.715 294.111, 932.200 293.362 C 933.686 292.613, 936.753 292, 939.016 292 C 944.558 292, 946.993 290.546, 947.032 287.215 C 947.049 285.722, 947.649 283.730, 948.364 282.789 C 949.947 280.704, 957.445 279.292, 958.433 280.892 C 959.412 282.475, 963.462 282.260, 967.782 280.395 C 970.501 279.221, 975.799 278.675, 987.500 278.362 C 1002.112 277.971, 1003.844 278.110, 1007.461 279.967 C 1010.757 281.658, 1013.327 282, 1022.744 282 C 1030.544 282, 1035.181 282.466, 1037.654 283.500 C 1039.629 284.325, 1042.533 285, 1044.109 285 C 1046.437 285, 1047.247 285.655, 1048.436 288.500 C 1049.240 290.425, 1050.353 292, 1050.909 292 C 1051.465 292, 1053.585 293.800, 1055.620 296 C 1057.996 298.568, 1060.197 300, 1061.768 300 C 1063.595 300, 1064.059 300.403, 1063.603 301.593 C 1061.996 305.780, 1061.952 307.715, 1063.436 308.947 C 1065.281 310.478, 1065.429 313.471, 1063.878 317.920 C 1063.032 320.346, 1063.063 322.585, 1064.003 327.015 C 1065.104 332.204, 1065.609 333.016, 1068.310 333.958 C 1069.993 334.545, 1072.181 335.759, 1073.173 336.656 C 1074.435 337.799, 1077.751 338.470, 1084.238 338.897 C 1090.660 339.319, 1094.258 340.041, 1095.973 341.253 C 1101.105 344.880, 1105.521 343.857, 1125.500 334.415 C 1128.250 333.115, 1132.418 331.517, 1134.762 330.864 C 1139.757 329.472, 1140.520 328.700, 1144.500 321.012 C 1154.082 302.502, 1157 295.059, 1157 289.125 C 1157 283.587, 1154.505 273.940, 1151.554 268.071 C 1149.166 263.322, 1146.699 255.341, 1145.523 248.567 C 1144.824 244.538, 1139.124 232.323, 1136.797 229.869 C 1136.084 229.116, 1133.614 225.967, 1131.309 222.871 C 1123.326 212.149, 1101.293 196.126, 1082.698 187.521 C 1061.813 177.855, 1054.873 175.065, 1049.126 174.023 C 1045.650 173.393, 1041.612 172.419, 1040.153 171.859 C 1032.263 168.833, 1002.236 167.607, 992 169.894 C 989.525 170.447, 983.675 171.612, 979 172.482 C 974.325 173.352, 967.800 174.769, 964.500 175.631 C 961.200 176.492, 954.675 177.611, 950 178.117 C 936.077 179.625, 898.832 180.706, 895 179.713 C 893.075 179.214, 889.025 178.499, 886 178.123 C 882.975 177.747, 878.968 176.665, 877.096 175.720 C 875.224 174.774, 872.438 174, 870.904 174 C 869.370 174, 865.051 172.920, 861.307 171.601 C 857.563 170.281, 849.775 168.424, 844 167.474 C 838.225 166.524, 831.416 165.169, 828.868 164.462 C 826.087 163.691, 815.298 162.961, 801.868 162.636 C 782.073 162.157, 778.695 162.310, 772.500 163.966" stroke="#dd8a8a" fill="#dd8a8a" fill-opacity="0.2" fill-rule="evenodd"/><path class="svg-region-SV" d="M 808.052 270.104 C 806.706 270.642, 802.037 271.241, 797.677 271.435 C 793.316 271.630, 789.468 272.240, 789.124 272.791 C 788.004 274.589, 780.202 276.179, 778.078 275.042 C 776.625 274.264, 774.994 274.502, 771.490 276.004 C 768.930 277.102, 765.537 278, 763.950 278 C 761.950 278, 759.515 279.378, 756 282.500 C 753.213 284.975, 750.003 287, 748.867 287 C 747.730 287, 745.270 288.530, 743.400 290.400 C 740.635 293.165, 740 294.569, 740 297.914 C 740 300.176, 739.448 302.911, 738.773 303.992 C 737.795 305.559, 737.818 306.621, 738.887 309.229 C 741.132 314.702, 741.335 317.840, 739.614 320.467 C 738.726 321.821, 738 323.790, 738 324.842 C 738 325.894, 737.334 327.308, 736.521 327.983 C 735.707 328.658, 734.386 330.524, 733.585 332.129 C 732.162 334.983, 732.223 335.136, 736.314 338.951 C 738.615 341.098, 743.626 344.350, 747.449 346.177 C 751.272 348.005, 755.960 351.212, 757.866 353.305 C 761.568 357.369, 767.519 361.239, 773.008 363.153 C 774.862 363.799, 778.704 365.957, 781.546 367.947 C 784.388 369.938, 788.578 372.408, 790.857 373.435 C 794.797 375.212, 795.185 375.220, 798.772 373.603 C 802.320 372.003, 802.522 371.672, 802.174 368.027 C 801.844 364.569, 802.126 363.986, 804.795 362.606 C 806.440 361.755, 810.872 360.652, 814.643 360.156 C 818.414 359.659, 826.880 357.815, 833.455 356.059 L 845.410 352.866 897.955 353.392 C 927.016 353.683, 952.511 354.364, 955 354.915 C 957.475 355.464, 961.629 355.932, 964.231 355.956 C 966.834 355.980, 972.174 356.551, 976.098 357.223 C 982.655 358.348, 983.511 358.787, 986.673 362.646 C 989.727 366.373, 989.968 367.078, 988.816 368.922 C 988.103 370.065, 986.727 371, 985.759 371 C 983.269 371, 983.576 373.431, 986.250 374.886 C 987.487 375.559, 990.266 379.235, 992.424 383.055 C 994.583 386.875, 996.739 390, 997.217 390 C 999.717 390, 1008.396 380.022, 1011.513 373.565 C 1014.649 367.069, 1015.309 366.352, 1019.712 364.659 C 1022.345 363.647, 1027.932 361.302, 1032.127 359.448 C 1036.322 357.594, 1042.847 355.190, 1046.627 354.106 C 1063.906 349.150, 1066.747 348.218, 1070.500 346.270 C 1072.700 345.129, 1075.567 343.052, 1076.871 341.654 L 1079.241 339.114 1072.206 335.817 L 1065.171 332.520 1063.964 326.829 C 1063.059 322.564, 1063.037 320.332, 1063.878 317.920 C 1065.430 313.467, 1065.283 310.970, 1063.341 308.825 C 1061.980 307.320, 1061.890 306.536, 1062.841 304.449 C 1064.513 300.780, 1064.296 300, 1061.604 300 C 1060.130 300, 1058.057 298.690, 1056.220 296.597 C 1054.576 294.726, 1052.264 292.676, 1051.080 292.043 C 1049.897 291.409, 1048.663 289.566, 1048.339 287.946 C 1047.815 285.326, 1047.343 285, 1044.075 285 C 1042.054 285, 1039.844 284.444, 1039.165 283.765 C 1038.369 282.969, 1033.059 282.327, 1024.215 281.956 C 1014.354 281.544, 1009.431 280.897, 1006.695 279.655 C 1003.461 278.187, 1000.534 277.990, 987.195 278.343 C 975.665 278.649, 970.513 279.190, 967.782 280.380 C 963.466 282.261, 959.415 282.480, 958.429 280.886 C 957.397 279.216, 950.079 280.522, 948.454 282.665 C 947.689 283.674, 947.049 285.722, 947.032 287.215 C 946.993 290.546, 944.558 292, 939.016 292 C 936.753 292, 933.686 292.613, 932.200 293.362 C 930.715 294.111, 927.524 294.977, 925.108 295.286 C 922.378 295.635, 919.163 297.030, 916.608 298.973 C 914.349 300.693, 910.475 303.048, 908 304.208 C 903.985 306.091, 902.838 306.205, 897.358 305.267 C 893.980 304.689, 890.319 303.442, 889.222 302.495 C 886.067 299.771, 882.677 296.459, 880.404 293.879 C 879.251 292.571, 877.106 290.600, 875.638 289.500 C 874.170 288.400, 872.067 285.813, 870.964 283.750 C 869.325 280.685, 868.407 280, 865.934 280 C 863.993 280, 861.957 279.048, 860.252 277.343 C 857.678 274.769, 857.262 274.692, 846.997 274.893 C 836.554 275.097, 836.345 275.055, 832.563 272.050 C 828.900 269.139, 828.309 269.003, 819.612 269.063 C 814.601 269.098, 809.399 269.567, 808.052 270.104" stroke="#c666b5" fill="#c666b5" fill-opacity="0.2" fill-rule="evenodd"/><path class="svg-region-APB" d="M 1094 473.514 C 1094 475.996, 1094.427 478.809, 1094.949 479.764 C 1095.471 480.719, 1096.164 483.579, 1096.491 486.121 C 1096.817 488.662, 1097.965 492.470, 1099.042 494.582 C 1100.119 496.695, 1101.002 499.340, 1101.004 500.461 C 1101.006 501.583, 1101.906 503.973, 1103.004 505.774 C 1104.102 507.575, 1105 509.911, 1105 510.965 C 1105 514.156, 1106.604 514.163, 1111.698 510.997 L 1116.557 507.976 1122.023 509.599 C 1125.160 510.531, 1129.467 512.879, 1132.133 515.111 C 1137.609 519.696, 1140.652 520.005, 1144.923 516.411 C 1147.503 514.241, 1148 513.109, 1148 509.411 C 1148 505.807, 1147.666 505, 1146.174 505 C 1145.170 505, 1143.370 503.958, 1142.174 502.686 C 1140.255 500.642, 1140 499.251, 1140 490.802 C 1140 480.201, 1139.890 480.046, 1132.309 480.014 C 1130.554 480.006, 1128.856 479.576, 1128.536 479.058 C 1128.215 478.540, 1125.826 477.828, 1123.227 477.477 C 1116.447 476.561, 1112.165 475.083, 1106.900 471.843 C 1103.776 469.921, 1100.938 469, 1098.139 469 L 1094 469 1094 473.514 M 711.250 495.584 C 707.744 497.118, 707.383 498.323, 709.123 502.685 C 709.740 504.233, 710.759 509.775, 711.387 515 L 712.528 524.500 718.545 524.792 C 724.265 525.070, 724.675 524.931, 726.865 521.969 C 728.846 519.289, 729.071 518.151, 728.475 513.817 L 727.782 508.780 733.391 503.559 C 736.876 500.316, 739 497.518, 739 496.170 C 739 494.057, 738.678 494.002, 726.750 494.082 C 718.515 494.136, 713.435 494.629, 711.250 495.584" stroke="#ac7444" fill="#ac7444" fill-opacity="0.2" fill-rule="evenodd"/><path class="svg-region-PC" d="M 908 363.204 C 905.525 363.591, 896.075 364.331, 887 364.849 C 871.980 365.706, 869.513 366.122, 859.500 369.488 C 853.450 371.521, 845.575 374.775, 842 376.718 C 835.339 380.340, 824.096 388.463, 822.744 390.631 C 821.709 392.292, 816.193 393.392, 814.709 392.233 C 811.462 389.698, 809.189 390.232, 804.984 394.516 C 800.859 398.720, 800.826 398.808, 803.142 399.459 C 808.944 401.090, 816 405.293, 816 407.119 C 816 408.154, 815.650 408.887, 815.223 408.750 C 813.870 408.314, 802.484 418.945, 800.644 422.363 C 799.673 424.165, 797.623 426.382, 796.089 427.289 C 794.554 428.195, 791.376 430.863, 789.027 433.218 C 782.606 439.654, 780.121 440.985, 774.500 441.001 C 769.721 441.015, 769.399 441.192, 767.220 445.008 C 765.966 447.203, 764.504 449, 763.970 449 C 763.437 449, 763 449.461, 763 450.024 C 763 450.587, 761.425 453.338, 759.500 456.136 C 756.363 460.696, 756 461.913, 756 467.857 C 756 473.987, 756.311 474.943, 760.119 480.494 C 765.420 488.226, 773.744 495.330, 776.500 494.477 C 785.662 491.641, 785.416 491.628, 793.031 495.380 C 797.015 497.342, 800.668 498.705, 801.148 498.408 C 801.629 498.112, 801.904 495.997, 801.761 493.709 C 801.518 489.837, 801.719 489.476, 804.663 488.502 C 806.402 487.926, 810.320 485.096, 813.370 482.211 C 816.420 479.327, 820.172 476.685, 821.708 476.341 C 823.397 475.963, 826.475 473.436, 829.500 469.943 C 832.250 466.768, 839.335 459.321, 845.244 453.393 C 853.840 444.769, 857.342 441.988, 862.762 439.477 C 871.331 435.508, 875.420 430.975, 874.659 426.288 C 874.174 423.296, 874.651 422.447, 879.473 417.733 C 887 410.373, 888.397 409.294, 893.481 406.904 C 897.991 404.784, 898.775 404.768, 909.313 406.578 C 912.608 407.144, 913.653 406.810, 917.004 404.117 C 919.137 402.403, 921.772 401, 922.859 401 C 923.946 401, 930.121 403.700, 936.582 407 C 943.043 410.300, 948.942 413, 949.690 413 C 950.438 413, 951.308 414.290, 951.623 415.866 C 951.967 417.584, 954.567 421.022, 958.110 424.443 C 961.363 427.583, 963.798 430.517, 963.523 430.963 C 962.671 432.341, 965.397 433.880, 969.988 434.614 C 972.402 435, 975.930 436.370, 977.828 437.658 C 979.726 438.946, 981.864 440, 982.578 440 C 984.697 440, 1002.737 455.830, 1003.391 458.263 C 1005.124 464.712, 1027.183 482, 1033.678 482 C 1034.893 482, 1036.548 482.944, 1037.357 484.099 C 1038.165 485.253, 1040.010 486.811, 1041.457 487.562 C 1044.106 488.936, 1046.114 488.479, 1053.236 484.878 C 1054.191 484.395, 1056.543 484, 1058.461 484 C 1061.577 484, 1062.170 483.545, 1064.005 479.750 C 1065.136 477.413, 1067.137 473.700, 1068.453 471.500 C 1071.615 466.212, 1072.696 458.702, 1070.722 455.723 C 1068.451 452.294, 1062.251 446, 1061.144 446 C 1060.599 446, 1058.059 442.850, 1055.500 439 C 1052.672 434.746, 1050.156 432, 1049.086 432 C 1048.117 432, 1044.430 429.188, 1040.892 425.750 C 1033.281 418.356, 1030.522 416.595, 1021.645 413.466 C 1018.975 412.524, 1015.317 410.461, 1013.517 408.881 C 1008.361 404.354, 994.754 387.426, 992 382.113 C 988.398 375.165, 984.475 372.187, 979.689 372.770 C 976.762 373.126, 975.356 372.743, 973.632 371.124 C 972.266 369.841, 969.451 368.783, 966.443 368.422 C 963.725 368.096, 959.475 366.788, 957 365.516 C 952.823 363.368, 951.064 363.176, 932.500 362.851 C 921.500 362.658, 910.475 362.817, 908 363.204" stroke="#cda789" fill="#cda789" fill-opacity="0.2" fill-rule="evenodd"/><path class="svg-region-DB" d="M 620.250 326.584 C 617.452 328.789, 617 329.765, 617 333.604 C 617 339.223, 620.339 349.261, 623.817 354.100 C 625.716 356.741, 628.700 358.842, 634.208 361.414 C 641.076 364.621, 642.746 365.003, 649.218 364.845 C 657.744 364.637, 660.279 363.333, 663.167 357.673 C 666.150 351.825, 665.402 344.485, 661.413 340.475 C 658.244 337.290, 651.106 333.020, 648.864 332.969 C 648.114 332.951, 644.811 331.601, 641.525 329.969 C 638.239 328.336, 634.864 326.986, 634.025 326.968 C 633.186 326.951, 631.626 326.276, 630.559 325.468 C 627.681 323.291, 623.910 323.699, 620.250 326.584 M 1175 329 C 1174.175 329.533, 1171.790 329.976, 1169.700 329.985 C 1165.531 330.001, 1160.418 332.245, 1157.853 335.183 C 1156.946 336.221, 1152.446 338.516, 1147.853 340.285 L 1139.500 343.500 1119.265 343.341 C 1100.639 343.195, 1098.762 343.016, 1095.647 341.091 C 1093.160 339.554, 1090.609 339, 1086.014 339 C 1080.465 339, 1079.372 339.344, 1076.271 342.067 C 1072.022 345.797, 1067.153 348.035, 1056 351.380 C 1051.325 352.783, 1045.025 354.673, 1042 355.580 C 1038.975 356.487, 1033.800 358.484, 1030.500 360.017 C 1027.200 361.551, 1022.342 363.637, 1019.704 364.653 C 1015.331 366.337, 1014.601 367.116, 1011.415 373.500 C 1009.158 378.023, 1005.985 382.310, 1002.447 385.616 C 997.599 390.146, 997.154 390.883, 998.562 392.051 C 1000.127 393.351, 1000.635 393.065, 1002.234 389.987 C 1002.585 389.311, 1031.677 390.669, 1045 391.983 C 1065.926 394.048, 1065.959 394.055, 1067.164 396.306 C 1068.491 398.786, 1072.040 401.919, 1073.576 401.967 C 1074.167 401.985, 1075.742 403.186, 1077.076 404.636 C 1082.344 410.363, 1087.061 413, 1092.039 413 C 1095.209 413, 1097.557 413.631, 1099.131 414.905 L 1101.483 416.809 1096.664 421.296 C 1092.797 424.897, 1091.911 426.327, 1092.173 428.537 C 1092.444 430.819, 1093.235 431.508, 1096.782 432.550 C 1099.137 433.242, 1101.612 434.261, 1102.282 434.814 C 1102.980 435.391, 1112.257 435.966, 1124 436.160 C 1141.101 436.444, 1145.064 436.790, 1147.904 438.250 C 1149.776 439.212, 1151.428 440, 1151.576 440 C 1151.724 440, 1152.343 438.491, 1152.951 436.647 C 1155.269 429.624, 1162.521 425.465, 1174.098 424.518 C 1183.028 423.787, 1184.836 424.205, 1191.158 428.454 L 1194.815 430.912 1197.158 428.670 C 1198.446 427.437, 1200.725 425.897, 1202.222 425.248 C 1205.584 423.791, 1206.641 420.083, 1205.131 415.043 C 1204.509 412.967, 1204 409.659, 1204 407.693 C 1204 405.727, 1203.550 403.840, 1203 403.500 C 1202.450 403.160, 1202 401.424, 1202 399.641 C 1202 395.300, 1200.443 394, 1195.243 394 C 1191.166 394, 1190.369 393.501, 1182.850 386.250 C 1174.910 378.592, 1174.821 378.451, 1175.370 374.385 C 1175.911 370.375, 1175.824 370.224, 1171.962 368.483 C 1166.098 365.839, 1166.580 363.309, 1174.444 355.444 C 1180.802 349.087, 1180.963 349, 1186.368 349 C 1190.753 349, 1192.440 349.499, 1194.818 351.500 C 1197.950 354.135, 1201.840 354.691, 1205.066 352.965 C 1207.409 351.711, 1207.685 345.488, 1205.523 342.634 C 1204.393 341.142, 1203.349 340.900, 1200.305 341.427 C 1191.717 342.914, 1190.830 342.731, 1188.755 339.044 C 1187.337 336.524, 1186.975 334.560, 1187.417 331.794 L 1188.024 328 1182.262 328.015 C 1179.093 328.024, 1175.825 328.467, 1175 329 M 727.004 336.962 C 725.631 338.017, 722.459 339.162, 719.956 339.506 C 712.952 340.469, 711.938 341.539, 715.250 344.470 C 716.763 345.809, 718 347.154, 718 347.459 C 718 348.068, 731.233 361.211, 738.063 367.385 C 740.427 369.521, 744.838 372.365, 747.865 373.704 C 754.201 376.506, 766.635 388.386, 767.167 392.145 C 767.468 394.274, 768.171 394.573, 774.500 395.260 C 778.350 395.678, 785.159 396.691, 789.632 397.510 C 794.104 398.330, 798.286 399, 798.925 399 C 799.563 399, 802.316 396.913, 805.043 394.363 C 808.720 390.924, 810 388.997, 810 386.904 L 810 384.081 801.750 383.790 L 793.500 383.500 793.170 380.609 C 792.985 378.993, 793.427 377.305, 794.170 376.782 C 794.950 376.234, 795.086 375.664, 794.500 375.405 C 793.950 375.161, 790.125 372.940, 786 370.469 C 781.875 367.997, 777.825 365.575, 777 365.085 C 776.175 364.595, 772.520 362.800, 768.877 361.097 C 764.916 359.245, 760.643 356.252, 758.244 353.649 C 755.863 351.066, 751.573 348.053, 747.687 346.234 C 744.087 344.549, 739.146 341.332, 736.709 339.085 C 731.722 334.489, 730.555 334.234, 727.004 336.962" stroke="#e8b1e4" fill="#e8b1e4" fill-opacity="0.2" fill-rule="evenodd"/><path class="svg-region-IBl" d="M 691.656 441.133 C 689.115 442.610, 687.001 448.090, 686.994 453.218 C 686.991 455.573, 686.513 459.212, 685.932 461.304 C 685.085 464.355, 685.212 465.989, 686.574 469.554 C 687.508 471.999, 688.661 474, 689.136 474 C 689.611 474, 690.013 474.788, 690.029 475.750 C 690.060 477.607, 695.357 484, 696.865 484 C 697.356 484, 698.271 485.238, 698.899 486.750 C 699.527 488.262, 701.607 490.571, 703.521 491.879 C 705.434 493.187, 707 494.875, 707 495.629 C 707 497.317, 706.837 497.322, 712 495.500 C 714.824 494.504, 720.071 494, 727.626 494 L 739 494 739 496.510 C 739 498.300, 737.872 499.804, 735.062 501.760 C 728.894 506.051, 727.517 509.354, 728.972 516.364 C 729.895 520.811, 730.518 522.015, 731.668 521.574 C 732.491 521.258, 733.781 521, 734.535 521 C 735.289 521, 736.630 519.538, 737.514 517.750 C 739.708 513.314, 751.920 504.317, 759.748 501.371 C 763.283 500.040, 768.024 498.008, 770.284 496.855 C 773.741 495.091, 774.148 494.581, 772.855 493.630 C 768.150 490.169, 763.493 485.366, 759.975 480.343 C 756.432 475.285, 756 474.027, 756 468.768 C 756 462.071, 756.219 461.549, 763.765 450.223 C 766.798 445.671, 769.091 441.758, 768.862 441.528 C 768.632 441.299, 763.282 441.015, 756.972 440.899 C 747.896 440.732, 744.874 441.032, 742.500 442.338 C 739.049 444.236, 733.347 444.540, 732.786 442.857 C 732.504 442.013, 731.804 442.035, 730.111 442.941 C 727.453 444.363, 720.130 443.904, 709 441.619 C 700.184 439.809, 694.221 439.642, 691.656 441.133" stroke="#b10e0e" fill="#b10e0e" fill-opacity="0.2" fill-rule="evenodd"/><path class="svg-region-IBr" d="M 1086 433.146 C 1084.406 433.796, 1077.792 433.913, 1067.750 433.469 C 1057.695 433.024, 1052 433.125, 1052 433.749 C 1052 435.752, 1059.014 444.243, 1064.599 449 C 1070.837 454.314, 1072.192 456.970, 1071.442 462.419 C 1071.065 465.162, 1069.799 469.132, 1068.628 471.243 C 1063.540 480.418, 1062.142 483.420, 1062.606 484.172 C 1063.728 485.987, 1074.219 487.881, 1085.129 488.239 L 1096.759 488.619 1096.244 484.560 C 1095.960 482.327, 1095.340 479.742, 1094.864 478.816 C 1094.389 477.889, 1094 475.302, 1094 473.066 C 1094 469.032, 1094.029 469, 1097.750 469.015 C 1099.813 469.023, 1102.451 469.585, 1103.614 470.265 C 1111.557 474.905, 1115.065 476.302, 1120.821 477.117 C 1124.409 477.625, 1127.829 478.420, 1128.422 478.883 C 1129.015 479.346, 1131.821 479.986, 1134.658 480.305 L 1139.817 480.884 1143.158 475.493 C 1144.996 472.527, 1147.421 469.601, 1148.547 468.990 C 1152.624 466.778, 1153.094 464.670, 1152.370 451.855 L 1151.687 439.767 1148.093 438.170 C 1145.303 436.929, 1140.143 436.498, 1125 436.241 C 1108.409 435.960, 1104.801 435.619, 1100.815 433.955 C 1095.747 431.841, 1089.975 431.525, 1086 433.146" stroke="#b10e0e" fill="#b10e0e" fill-opacity="0.2" fill-rule="evenodd"/><path class="svg-region-AP" d="M 990.500 473.169 C 985.550 474.784, 979.700 476.914, 977.500 477.901 C 971.293 480.687, 966.661 482, 963.040 482 C 961.103 482, 957.692 483.249, 954.846 485 C 952.164 486.650, 948.649 488, 947.034 488 C 942.462 488, 933.242 490.691, 930.066 492.953 C 927.567 494.732, 925.677 495, 915.606 495 C 905.866 495, 903.024 494.624, 897.761 492.640 C 894.317 491.341, 889.356 489.766, 886.736 489.140 C 880.858 487.734, 866.342 487.638, 865.500 489 C 864.551 490.536, 861.405 490.193, 857.780 488.159 C 855.976 487.146, 852.820 485.764, 850.767 485.087 C 848.714 484.410, 846.152 482.617, 845.074 481.103 C 842.622 477.660, 837.257 476, 828.584 476 C 820.665 476, 818.152 477.152, 811.729 483.727 L 806.959 488.610 808.645 492.055 C 809.573 493.950, 811.126 496.534, 812.097 497.797 C 813.067 499.060, 814.144 501.535, 814.489 503.297 C 815.615 509.046, 818.771 515.362, 823.835 522 C 825.723 524.475, 827.691 527.400, 828.208 528.500 C 828.725 529.600, 831.473 531.850, 834.315 533.500 C 837.157 535.150, 839.631 537.286, 839.813 538.246 C 840.049 539.485, 839.688 539.818, 838.573 539.390 C 836.194 538.477, 836.645 539.749, 840.625 545.171 L 844.251 550.110 839.375 557.283 C 836.694 561.229, 833.150 565.968, 831.500 567.816 C 826.985 572.872, 826.042 575.099, 826.674 579.216 C 827.033 581.551, 826.642 584.439, 825.622 586.988 C 824.729 589.219, 823.524 593.172, 822.944 595.772 C 821.550 602.021, 819.502 605, 816.599 605 C 815.304 605, 812.629 605.675, 810.654 606.500 C 808.680 607.325, 805.909 608, 804.497 608 C 801.994 608, 797.200 605.547, 795.804 603.551 C 795.391 602.962, 794.856 603.211, 794.490 604.164 C 793.816 605.922, 797.660 610.458, 812.069 624.907 C 816.782 629.633, 822.407 635.567, 824.569 638.094 C 829.619 643.997, 841.503 652.177, 855.833 659.617 C 864.414 664.071, 868.847 667.138, 874.083 672.243 C 877.888 675.951, 881 679.712, 881 680.600 C 881 681.734, 881.520 682.008, 882.750 681.522 C 883.712 681.141, 887.418 680.210, 890.985 679.453 C 897.411 678.090, 900.328 676.018, 899.362 673.501 C 899.087 672.784, 898.031 671.980, 897.016 671.714 C 896 671.449, 895.019 670.167, 894.835 668.866 C 894.389 665.719, 890.693 665.173, 888.737 667.966 C 887.358 669.935, 884 669.941, 884 667.975 C 884 666.616, 877.419 663.002, 874.882 662.967 C 872.697 662.936, 867.200 659.400, 868.108 658.609 C 868.968 657.861, 881.805 660.587, 883.308 661.837 C 885.140 663.361, 893.487 662.971, 903.798 660.881 C 910.083 659.606, 910.100 659.609, 912.414 662.302 C 915.271 665.626, 919.083 666.033, 918.271 662.927 C 917.790 661.090, 918.114 660.890, 921.114 661.177 C 924.408 661.491, 924.491 661.609, 924.172 665.500 L 923.843 669.500 928.672 664.861 L 933.500 660.222 945 659.721 C 954.589 659.303, 957.403 658.795, 961.932 656.663 C 964.919 655.257, 967.806 654.380, 968.348 654.715 C 969.862 655.651, 963.824 659.989, 961 659.995 C 958.730 660, 958.484 660.414, 958.326 664.500 C 958.132 669.535, 959.933 670.638, 961.769 666.609 C 962.368 665.293, 964.128 663.551, 965.679 662.738 C 972.287 659.272, 976.659 657.084, 979 656.070 C 985.780 653.135, 993.756 646.988, 997.250 642.006 C 999.313 639.065, 1001 636.285, 1001 635.829 C 1001 635.373, 999.884 635, 998.519 635 C 995.342 635, 994.824 632.969, 995.205 622 C 995.485 613.937, 995.621 613.483, 997.852 613.167 C 1002.685 612.483, 1004.533 613.760, 1006.872 619.404 C 1008.118 622.410, 1009.676 625.316, 1010.335 625.863 C 1011.692 626.989, 1017.532 621.760, 1027.611 610.392 C 1037.527 599.208, 1039 597.296, 1039 595.606 C 1039 592.936, 1037.370 593.769, 1033.337 598.500 C 1029.945 602.478, 1029.024 603, 1025.399 603 C 1018.031 603, 1015.112 601.323, 1012.566 595.627 C 1010.338 590.646, 1008 580.670, 1008 576.150 C 1008 574.924, 1008.898 572.161, 1009.994 570.011 C 1012.435 565.227, 1011.427 561.493, 1007.270 559.912 C 1003.585 558.511, 1001 556.074, 1001 554 C 1001 553.070, 1000.120 551.513, 999.044 550.540 C 992.294 544.431, 998.198 528.229, 1010.171 520.003 C 1014.873 516.773, 1030.477 501.430, 1035.757 494.846 C 1036.789 493.559, 1036.568 492.272, 1034.519 487.640 C 1033.148 484.538, 1031.425 482, 1030.691 482 C 1029.957 482, 1027.589 480.663, 1025.428 479.028 C 1023.268 477.393, 1021.159 476.043, 1020.741 476.028 C 1020.324 476.013, 1018.119 474.650, 1015.841 473 C 1012.249 470.398, 1010.891 470.015, 1005.600 470.116 C 1001.842 470.187, 996.045 471.359, 990.500 473.169 M 830.217 616.561 C 827.277 618.620, 825.414 622.479, 824.693 628.003 C 824.130 632.320, 824.307 632.724, 828.955 637.753 C 832.966 642.093, 834.389 643, 837.188 643 C 839.700 643, 840.601 642.549, 840.687 641.250 C 840.750 640.288, 841.128 637.187, 841.527 634.360 C 842.344 628.569, 840.646 619.532, 838.218 616.750 C 836.325 614.582, 833.149 614.507, 830.217 616.561" stroke="#fc7143" fill="#fc7143" fill-opacity="0.2" fill-rule="evenodd"/><path class="svg-region-LPl" d="M 777.080 494.145 C 773.548 495.263, 769.723 496.781, 768.580 497.519 C 767.436 498.258, 763.455 500, 759.734 501.392 C 753.720 503.641, 748.149 506.994, 744.172 510.757 C 743.442 511.448, 741.941 512.496, 740.837 513.087 C 739.734 513.678, 738.188 515.700, 737.402 517.580 C 736.562 519.590, 735.257 521.009, 734.237 521.022 C 733.281 521.034, 730.524 521.940, 728.109 523.036 L 723.718 525.028 724.342 530.994 C 725.793 544.885, 731.212 555.020, 743.751 567.297 C 754.360 577.685, 757.946 580.627, 766.303 585.800 C 770.261 588.250, 776.200 592.580, 779.500 595.423 C 788.076 602.808, 791.082 605, 792.635 605 C 795.144 605, 794.043 602.738, 788.871 597.270 L 783.742 591.847 784.231 585.019 C 784.923 575.342, 787.227 572.047, 796.574 567.365 C 803.686 563.802, 804.238 563.683, 807.777 564.930 C 815.478 567.645, 821.542 570.871, 822.758 572.901 C 824.321 575.507, 826.407 575.600, 827.597 573.115 C 828.094 572.078, 829.960 569.491, 831.745 567.365 C 836.007 562.290, 841.501 554.800, 842.954 552.086 C 843.953 550.220, 843.622 549.254, 840.556 545.077 C 836.674 539.788, 836.204 538.480, 838.500 539.362 C 839.400 539.707, 840 539.369, 840 538.517 C 840 537.172, 832.070 531.009, 830.320 530.992 C 829.869 530.988, 828.489 529.213, 827.253 527.049 C 826.017 524.884, 822.754 520.139, 820.003 516.503 C 817.251 512.868, 815 509.476, 815 508.966 C 815 508.456, 813.763 507.733, 812.250 507.361 C 808.917 506.540, 805.933 504.741, 800 499.977 C 794.758 495.768, 787.681 491.976, 785.219 492.056 C 784.274 492.087, 780.611 493.027, 777.080 494.145" stroke="#d2454f" fill="#d2454f" fill-opacity="0.2" fill-rule="evenodd"/><path class="svg-region-LPr" d="M 1049.654 486.120 C 1043.105 488.709, 1036.722 493.233, 1031.704 498.843 C 1022.394 509.249, 1013.332 518.007, 1009.850 519.964 C 1005.752 522.268, 999.816 529.919, 997.354 536.074 C 995.361 541.054, 996.049 547.359, 998.918 550.413 C 1000.063 551.632, 1001 553.318, 1001 554.159 C 1001 556.094, 1003.684 558.549, 1007.302 559.925 C 1009.057 560.592, 1010.511 562.166, 1011.201 564.148 C 1012.192 566.990, 1012.428 567.135, 1013.555 565.594 C 1016.860 561.073, 1030.600 558.671, 1038.134 561.296 C 1043.458 563.151, 1044.483 564.340, 1046.497 570.991 C 1048.104 576.298, 1048.159 577.490, 1046.961 581.119 C 1046.214 583.381, 1044.118 587.178, 1042.302 589.556 C 1036.495 597.161, 1038.287 598.369, 1045.042 591.402 C 1050.940 585.317, 1066.935 572.447, 1069.649 571.600 C 1070.831 571.231, 1074.881 567.677, 1078.649 563.703 C 1082.417 559.728, 1087.219 555.005, 1089.320 553.207 C 1091.421 551.409, 1094.078 547.815, 1095.226 545.219 C 1096.373 542.624, 1098.586 538.913, 1100.143 536.974 C 1101.701 535.035, 1103.706 530.985, 1104.601 527.974 C 1105.988 523.303, 1106.051 521.474, 1105.031 515.500 C 1104.373 511.650, 1103.197 507.022, 1102.418 505.216 C 1101.638 503.410, 1101 500.918, 1101 499.678 C 1101 496.136, 1097.199 489.567, 1094.735 488.850 C 1093.506 488.492, 1088.101 488.155, 1082.725 488.100 C 1075.722 488.028, 1071.337 487.433, 1067.260 486 C 1060.348 483.571, 1056.029 483.600, 1049.654 486.120" stroke="#d2454f" fill="#d2454f" fill-opacity="0.2" fill-rule="evenodd"/><path class="svg-region-DMl" d="M 640.505 444.737 C 637.935 445.386, 629.968 450.850, 627.909 453.374 C 626.887 454.627, 626.530 456.293, 626.909 458.035 C 627.606 461.233, 631.002 466, 632.584 466 C 633.194 466, 635.030 466.667, 636.665 467.483 C 640.101 469.197, 658.501 468.916, 663.315 467.076 C 664.863 466.484, 667.488 466, 669.147 466 L 672.163 466 669.912 462.250 C 667.013 457.420, 661.709 451.837, 655.866 447.466 C 651.237 444.004, 646.636 443.186, 640.505 444.737" stroke="#68533d" fill="#68533d" fill-opacity="0.2" fill-rule="evenodd"/><path class="svg-region-DMr" d="M 1169 424.936 C 1161.759 426.012, 1156.151 429.809, 1153.125 435.684 C 1151.237 439.350, 1152.179 465.626, 1154.155 464.404 C 1154.634 464.108, 1156.439 464.571, 1158.166 465.433 C 1160.456 466.576, 1164.343 467, 1172.514 467 L 1183.720 467 1187.431 463.500 C 1191.540 459.625, 1194.449 459.146, 1199.141 461.573 C 1201.960 463.030, 1202.338 463.012, 1204.325 461.323 C 1209.293 457.097, 1210.478 452.336, 1207.532 448.441 C 1206.724 447.374, 1206.049 445.734, 1206.032 444.798 C 1205.985 442.283, 1190.981 427.308, 1186.728 425.531 C 1182.968 423.960, 1176.932 423.757, 1169 424.936" stroke="#68533d" fill="#68533d" fill-opacity="0.2" fill-rule="evenodd"/><path class="svg-region-Ol" d="M 443 332.434 C 428.138 334.547, 407.671 341.027, 394 347.948 C 392.075 348.923, 388.700 350.632, 386.500 351.745 C 376.717 356.698, 366.691 362.578, 364.684 364.540 C 363.483 365.714, 357.775 369.959, 352 373.974 C 337.999 383.708, 336.686 384.830, 328.180 394.327 C 314.785 409.282, 302.185 431.649, 289.494 463 C 286.934 469.325, 283.997 476.975, 282.967 480 C 281.937 483.025, 279.469 490, 277.481 495.500 C 270.419 515.046, 268.325 521.575, 267.218 527.500 C 266.601 530.800, 265.564 536.425, 264.913 540 C 262.533 553.067, 263.478 578.850, 266.856 593 C 267.446 595.475, 268.691 601.100, 269.622 605.500 C 270.553 609.900, 271.709 613.761, 272.190 614.079 C 272.671 614.398, 273.222 616.198, 273.414 618.079 C 273.606 619.961, 274.267 622.767, 274.882 624.315 C 275.497 625.863, 276.003 627.663, 276.007 628.315 C 276.010 628.967, 276.907 630.850, 278 632.500 C 279.093 634.150, 279.990 636.457, 279.993 637.628 C 279.997 638.798, 280.675 640.315, 281.500 641 C 282.325 641.685, 283 642.883, 283 643.662 C 283 645.112, 286.773 653.097, 287.884 654 C 288.589 654.573, 290.715 658.311, 294.425 665.500 C 295.843 668.250, 298.803 672.872, 301.002 675.770 C 303.201 678.669, 305 681.373, 305 681.780 C 305 682.186, 305.886 683.072, 306.969 683.748 C 308.051 684.424, 309.667 686.389, 310.559 688.115 C 312.304 691.489, 328.724 708.263, 335.899 714 C 342.277 719.100, 363.506 732.502, 368.345 734.483 C 370.630 735.419, 373.850 736.799, 375.500 737.551 C 383.318 741.114, 396.746 746.265, 407.648 749.883 C 414.254 752.076, 421.198 754.530, 423.079 755.338 C 427.925 757.418, 446.951 761.985, 457 763.482 C 465.533 764.752, 480.466 764.516, 487 763.008 C 496.430 760.830, 513.942 756.056, 517.500 754.692 C 519.700 753.849, 523.840 752.634, 526.700 751.992 C 529.561 751.350, 532.428 750.189, 533.073 749.412 C 533.718 748.635, 534.800 748, 535.478 748 C 536.156 748, 541.341 745.975, 547 743.500 C 552.659 741.025, 557.862 739, 558.562 739 C 559.262 739, 562.009 738.042, 564.667 736.871 C 573.276 733.077, 576.989 732.704, 612.500 732.064 C 646.636 731.448, 647.743 731.365, 657.346 728.689 C 662.762 727.181, 668.612 725.273, 670.346 724.451 C 677.626 720.998, 688.190 715.138, 689.860 713.626 C 690.849 712.732, 692.058 712, 692.548 712 C 695.271 712, 712.862 689.841, 721.254 675.839 C 726.557 666.992, 730.026 649.350, 729.383 634.500 C 728.174 606.592, 727.782 602.128, 725.871 594.500 C 725.320 592.300, 724.215 586.675, 723.416 582 C 722.047 573.991, 718.485 563.746, 715.032 557.892 C 713.123 554.653, 701.988 545.021, 700.140 545.009 C 699.392 545.004, 696.242 543.711, 693.140 542.136 C 690.038 540.560, 685.025 538.696, 682 537.993 C 678.975 537.290, 676.275 536.418, 676 536.056 C 675.725 535.694, 673.325 534.582, 670.668 533.585 C 668.010 532.587, 664.550 530.515, 662.978 528.979 C 661.407 527.442, 658.631 525.874, 656.810 525.494 C 654.990 525.114, 650.677 523.245, 647.228 521.340 C 640.974 517.887, 640.934 517.880, 633.728 518.918 C 623.027 520.460, 607.686 522, 603.026 522 C 599.126 522, 592.173 524.224, 591.035 525.835 C 590.007 527.290, 577.845 532, 575.116 532 C 573.602 532, 570.065 531.318, 567.257 530.484 C 562.787 529.156, 562.064 528.567, 561.445 525.748 C 560.771 522.680, 555.212 511.053, 553.915 510 C 550.866 507.524, 549.929 496.798, 552.468 493.441 C 554.585 490.642, 554.343 485.745, 551.961 483.189 C 550.840 481.985, 549.555 481, 549.107 481 C 548.659 481, 547.133 479.988, 545.716 478.750 C 544.300 477.512, 541.962 475.675, 540.520 474.666 C 538.154 473.009, 533.009 463.412, 532.994 460.626 C 532.990 460.007, 532.361 458.299, 531.596 456.832 C 530.830 455.364, 529.891 452.214, 529.510 449.832 C 528.723 444.915, 526.560 435.151, 524.438 426.934 C 523.647 423.873, 523 418.641, 523 415.307 C 523 411.972, 522.288 407.540, 521.417 405.457 C 520.381 402.976, 519.946 399.515, 520.156 395.427 C 520.394 390.801, 520.065 388.707, 518.885 387.342 C 516.713 384.829, 514.308 379.693, 513.462 375.760 C 512.690 372.170, 504.509 355.947, 500.864 350.776 C 497.555 346.082, 496.131 344.779, 490.347 341.149 C 483.184 336.654, 475.184 334.200, 465.076 333.395 C 461.543 333.114, 457.860 332.460, 456.892 331.942 C 454.815 330.831, 454.100 330.856, 443 332.434" stroke="#aa444d" fill="#aa444d" fill-opacity="0.2" fill-rule="evenodd"/><path class="svg-region-Or" d="M 1374 312.980 C 1372.625 313.477, 1368.350 314.865, 1364.500 316.064 C 1356.288 318.621, 1346.866 323.104, 1342.162 326.691 C 1338.094 329.793, 1332.589 338.196, 1330.399 344.645 C 1329.276 347.954, 1326.911 351.267, 1322.680 355.458 C 1317.522 360.568, 1310.494 371.161, 1311.557 372.224 C 1311.733 372.400, 1312.357 378.916, 1312.943 386.704 C 1313.847 398.718, 1313.772 401.822, 1312.448 407.182 C 1311.546 410.831, 1310.657 420.259, 1310.344 429.500 L 1309.800 445.500 1304.815 452.850 C 1302.073 456.893, 1298.293 461.693, 1296.415 463.517 C 1294.537 465.341, 1293 467.211, 1293 467.673 C 1293 468.134, 1291.586 469.138, 1289.858 469.903 C 1288.129 470.668, 1283.505 474.515, 1279.581 478.451 C 1273.879 484.172, 1271.047 486.168, 1265.473 488.396 C 1261.638 489.929, 1258.050 491.511, 1257.500 491.911 C 1256.950 492.312, 1254.475 493.242, 1252 493.978 C 1249.525 494.714, 1245.880 496.562, 1243.901 498.085 L 1240.301 500.852 1209.901 501.147 C 1182.891 501.409, 1178.942 501.654, 1174.500 503.344 C 1171.750 504.389, 1165.338 506.629, 1160.250 508.321 C 1155.162 510.013, 1151 511.904, 1151 512.524 C 1151 514.704, 1146.454 517.796, 1142.237 518.485 C 1139.346 518.956, 1137.605 519.876, 1136.827 521.340 C 1135.617 523.618, 1129.233 532.008, 1124.030 538.158 C 1122.328 540.169, 1119.755 544.669, 1118.312 548.158 C 1115.164 555.771, 1114.872 564.917, 1116.846 594 C 1119.005 625.819, 1119.982 629.225, 1133.759 653 C 1139.481 662.876, 1150.504 675.306, 1157 679.211 C 1158.925 680.367, 1161.850 682.550, 1163.500 684.060 C 1166.128 686.465, 1184.326 695, 1186.827 695 C 1187.337 695, 1188.315 695.675, 1189 696.500 C 1189.685 697.325, 1191.078 698, 1192.096 698 C 1193.114 698, 1195.871 698.865, 1198.223 699.921 C 1206.507 703.642, 1217.482 706.265, 1228.044 707.046 C 1233.915 707.481, 1241.595 708.539, 1245.109 709.398 C 1248.624 710.257, 1258.025 711.879, 1266 713.003 C 1273.975 714.127, 1281.625 715.438, 1283 715.916 C 1284.375 716.394, 1286.400 716.781, 1287.500 716.775 C 1288.600 716.770, 1291.525 717.260, 1294 717.865 C 1296.475 718.470, 1302.100 719.707, 1306.500 720.614 C 1310.900 721.521, 1317.388 723.104, 1320.918 724.132 C 1324.449 725.159, 1328.069 726, 1328.964 726 C 1329.858 726, 1335.070 727.189, 1340.545 728.643 C 1346.020 730.097, 1352.300 731.617, 1354.500 732.021 C 1363.249 733.628, 1375.860 736.205, 1382.500 737.742 C 1392.151 739.976, 1418.401 739.800, 1427.217 737.442 C 1440.233 733.960, 1449.347 730.891, 1451.881 729.135 C 1453.321 728.137, 1456.917 726.546, 1459.872 725.600 C 1470.119 722.319, 1480.364 715.350, 1497.509 700 C 1525.807 674.666, 1533.187 667.572, 1543.286 656 C 1553.721 644.044, 1565.190 626.959, 1565.487 622.929 C 1565.564 621.882, 1566.556 620.008, 1567.690 618.763 C 1568.825 617.518, 1570.318 614.700, 1571.007 612.500 C 1571.697 610.300, 1572.605 608.050, 1573.026 607.500 C 1574.587 605.462, 1580.027 588.667, 1579.789 586.621 C 1579.653 585.454, 1580.722 580.675, 1582.164 576 C 1588.479 555.519, 1589.294 519.972, 1584.010 495.500 C 1583.416 492.750, 1582.499 486.761, 1581.973 482.191 C 1579.554 461.184, 1570.730 433.300, 1559.351 410.705 C 1544.696 381.602, 1516.621 354.259, 1485.314 338.597 C 1478.062 334.968, 1471.628 332, 1471.016 332 C 1470.404 332, 1468.100 331.129, 1465.897 330.064 C 1463.693 329, 1457.078 326.909, 1451.195 325.419 C 1445.313 323.928, 1438.082 321.650, 1435.126 320.355 C 1432.170 319.060, 1427.895 318.001, 1425.626 318.002 C 1421.490 318.004, 1407.142 315.830, 1399.333 314.019 C 1393.226 312.602, 1376.897 311.933, 1374 312.980" stroke="#aa444d" fill="#aa444d" fill-opacity="0.2" fill-rule="evenodd"/><path class="svg-region-Pl" d="M 533.302 377.609 C 531.761 379.043, 529.825 380.731, 529 381.359 C 528.175 381.986, 525.813 384.414, 523.750 386.753 C 520.409 390.542, 520 391.592, 520 396.381 C 520 399.337, 520.675 403.371, 521.500 405.346 C 522.325 407.320, 523 411.622, 523 414.904 C 523 418.187, 524.295 426.414, 525.878 433.186 C 527.461 439.959, 529.032 447.353, 529.369 449.618 C 529.706 451.882, 530.658 455.032, 531.484 456.618 C 532.311 458.203, 532.990 460.007, 532.994 460.626 C 533.009 463.458, 538.145 472.957, 540.681 474.844 C 544.931 478.007, 548.946 481.193, 552.536 484.250 C 555.246 486.559, 556.705 487.005, 561.632 487.031 C 564.859 487.048, 570.875 487.504, 575 488.045 C 583.328 489.136, 590.470 488.463, 592.300 486.414 C 592.960 485.674, 594.007 484.491, 594.627 483.785 C 595.247 483.078, 597.022 481.600, 598.571 480.500 C 600.121 479.400, 602.088 477.675, 602.944 476.666 C 603.800 475.657, 605.288 473.901, 606.250 472.763 C 607.212 471.625, 608 470.487, 608 470.235 C 608 469.983, 605.061 464.089, 601.469 457.138 C 593.656 442.019, 589.303 435.848, 584.165 432.604 C 578.495 429.025, 572.391 421.579, 570.854 416.365 C 570.041 413.611, 567.475 409.436, 564.437 405.928 C 559.364 400.069, 555.070 390.163, 553.525 380.750 C 552.876 376.796, 552.098 376.342, 548.906 378.050 C 547.367 378.874, 546.381 378.658, 544.337 377.050 C 540.766 374.241, 536.697 374.447, 533.302 377.609" stroke="#f9d3d3" fill="#f9d3d3" fill-opacity="0.2" fill-rule="evenodd"/><path class="svg-region-Pr" d="M 1271.860 375.017 C 1268.070 379.363, 1266.941 381.623, 1265.429 387.894 C 1263.160 397.304, 1262.511 398.292, 1254.536 404.498 C 1251 407.249, 1245.637 411.667, 1242.618 414.317 C 1238.273 418.129, 1236.229 419.220, 1232.814 419.549 C 1230.441 419.777, 1226.700 420.452, 1224.500 421.049 C 1222.300 421.645, 1218.831 422.489, 1216.791 422.925 C 1212.441 423.853, 1209.708 425.524, 1204.498 430.437 L 1200.689 434.029 1202.028 438.083 C 1202.950 440.879, 1204.318 442.618, 1206.433 443.686 C 1208.120 444.537, 1210.712 446.531, 1212.194 448.117 C 1214.381 450.459, 1215.723 451, 1219.335 451 C 1223.355 451, 1223.849 451.265, 1224.469 453.750 C 1224.847 455.262, 1226.246 457.932, 1227.578 459.683 C 1228.910 461.434, 1230 463.277, 1230 463.778 C 1230 464.279, 1231.027 465.884, 1232.282 467.344 C 1234.209 469.587, 1235.375 470, 1239.773 470 C 1244.187 470, 1245.683 470.535, 1249.568 473.500 C 1252.090 475.425, 1255.159 477.253, 1256.388 477.561 C 1257.616 477.870, 1259.870 479.444, 1261.395 481.061 C 1263.758 483.564, 1264.924 484, 1269.255 484 C 1274.186 484, 1274.530 483.806, 1280.548 477.638 C 1283.963 474.139, 1288.166 470.651, 1289.890 469.888 C 1291.613 469.126, 1293.277 467.702, 1293.588 466.724 C 1293.898 465.747, 1295.171 464.279, 1296.417 463.462 C 1297.663 462.646, 1300.414 459.395, 1302.529 456.239 C 1304.645 453.082, 1307.074 449.922, 1307.927 449.215 C 1309.161 448.192, 1309.615 444.513, 1310.147 431.215 C 1310.515 422.022, 1311.511 411.606, 1312.362 408.069 C 1313.530 403.205, 1313.756 398.819, 1313.288 390.076 C 1312.714 379.368, 1312.476 378.322, 1310.067 375.913 C 1307.277 373.123, 1299.480 371.446, 1283.978 370.301 L 1276.456 369.746 1271.860 375.017" stroke="#f9d3d3" fill="#f9d3d3" fill-opacity="0.2" fill-rule="evenodd"/><path class="svg-region-DLl" d="M 617.184 361.636 C 616.681 362.535, 614.521 363.553, 612.384 363.898 C 608.953 364.451, 608.170 365.138, 605.676 369.783 C 600.762 378.929, 601.012 389.270, 606.286 395.008 C 607.545 396.378, 609.133 398.859, 609.815 400.521 C 610.496 402.183, 612.659 404.823, 614.621 406.389 C 617.894 409.001, 618.403 409.123, 620.764 407.868 C 622.180 407.116, 624.950 404.779, 626.919 402.675 C 633.602 395.537, 639.316 390, 639.999 390 C 640.683 390, 642.108 385.875, 643.952 378.559 C 645.431 372.686, 642.820 364.244, 639.246 363.347 C 637.809 362.986, 635.478 362.088, 634.067 361.352 C 630.244 359.357, 618.347 359.557, 617.184 361.636" stroke="#b7d6d3" fill="#b7d6d3" fill-opacity="0.2" fill-rule="evenodd"/><path class="svg-region-DLr" d="M 1174.250 355.484 C 1166.658 363.275, 1166.154 365.933, 1171.750 368.668 C 1175.264 370.385, 1175.480 370.752, 1175.187 374.511 C 1174.888 378.354, 1175.211 378.848, 1182.880 386.261 C 1189.867 393.016, 1191.346 394, 1194.508 394 C 1196.501 394, 1199.093 394.515, 1200.268 395.143 C 1201.750 395.937, 1202.513 395.961, 1202.759 395.223 C 1202.986 394.542, 1204.122 394.737, 1205.908 395.762 C 1208.310 397.141, 1209.151 397.180, 1211.898 396.042 C 1213.656 395.314, 1215.705 393.544, 1216.452 392.109 C 1217.199 390.674, 1218.978 388.409, 1220.405 387.076 C 1222.488 385.130, 1222.991 383.748, 1222.952 380.076 C 1222.925 377.540, 1222.051 373.939, 1220.991 372 C 1219.938 370.075, 1218.365 366.925, 1217.494 365 C 1214.347 358.045, 1213.676 357.089, 1210.201 354.616 C 1207.569 352.743, 1206.222 352.346, 1204.902 353.053 C 1201.869 354.675, 1198.273 354.101, 1195.182 351.500 C 1192.738 349.443, 1191.174 349.006, 1186.356 349.036 L 1180.500 349.071 1174.250 355.484" stroke="#b7d6d3" fill="#b7d6d3" fill-opacity="0.2" fill-rule="evenodd"/><path class="svg-region-OGl" d="M 577.200 320.050 C 575.935 320.557, 572.149 321.416, 568.785 321.957 C 558.505 323.613, 555.909 328.065, 554.270 346.861 C 553.814 352.084, 553.914 352.337, 558.151 356.656 C 563.155 361.756, 571.873 367, 575.350 367 C 576.659 367, 578.874 366.100, 580.273 365 C 581.671 363.900, 583.505 363, 584.349 363 C 585.192 363, 586.160 362.550, 586.500 362 C 586.840 361.450, 587.833 361, 588.706 361 C 591.649 361, 598.800 354.206, 599.496 350.748 C 600.690 344.813, 601.040 344.242, 603.825 343.685 C 607.605 342.929, 609.731 338.900, 608.164 335.461 C 607.524 334.056, 607 331.338, 607 329.422 C 607 326.979, 606.477 325.773, 605.250 325.388 C 604.288 325.086, 601.671 323.985, 599.435 322.941 C 597.199 321.898, 592.249 320.593, 588.435 320.042 C 580.255 318.860, 580.166 318.860, 577.200 320.050" stroke="#d66e9d" fill="#d66e9d" fill-opacity="0.2" fill-rule="evenodd"/><path class="svg-region-OGr" d="M 1204.365 309.285 C 1203.191 309.953, 1200.557 312.702, 1198.513 315.392 C 1194.838 320.229, 1190.593 324.606, 1189.006 325.196 C 1188.556 325.363, 1187.900 327.975, 1187.549 331 C 1187.020 335.565, 1187.267 337.070, 1189.005 339.856 C 1190.891 342.878, 1191.418 343.142, 1194.300 342.502 C 1196.060 342.112, 1201.181 341.582, 1205.680 341.325 C 1213.771 340.862, 1213.880 340.888, 1215.680 343.678 C 1218.146 347.501, 1220.302 350, 1221.133 350 C 1221.512 350, 1225.324 351.640, 1229.604 353.645 C 1233.885 355.649, 1239.370 357.513, 1241.793 357.786 C 1245.946 358.254, 1246.417 358.043, 1250.031 354.089 C 1252.139 351.783, 1254.168 348.457, 1254.541 346.698 C 1254.913 344.939, 1256.166 341.786, 1257.326 339.691 L 1259.434 335.883 1256.993 331.191 C 1252.343 322.256, 1241.924 312, 1237.496 312 C 1236.646 312, 1233.389 311.100, 1230.260 310 C 1223.673 307.685, 1207.941 307.251, 1204.365 309.285" stroke="#d66e9d" fill="#d66e9d" fill-opacity="0.2" fill-rule="evenodd"/><path class="svg-region-OLl" d="M 571.888 373.459 C 570.451 374.262, 568.816 376.175, 568.253 377.710 C 566.927 381.327, 564.990 391.962, 564.340 399.201 C 563.875 404.373, 564.099 405.255, 566.755 408.701 C 568.366 410.791, 570.289 414.525, 571.030 417 C 572.370 421.479, 578.175 427.964, 587.663 435.580 C 595.130 441.574, 604.122 443.540, 610.050 440.474 C 611.672 439.635, 613 438.841, 613 438.710 C 613 438.579, 613.900 436.009, 615 433 C 616.100 429.991, 617.005 425.722, 617.012 423.514 C 617.019 421.089, 618.009 417.777, 619.512 415.148 C 622.695 409.580, 622.742 407.776, 619.685 408.543 C 617.845 409.005, 616.510 408.192, 613.185 404.584 C 610.883 402.088, 609 399.360, 609 398.522 C 609 397.685, 608.622 397, 608.159 397 C 607.696 397, 606.121 394.802, 604.659 392.115 C 602.775 388.654, 602 385.755, 602 382.174 C 602 379.393, 601.479 376.796, 600.841 376.402 C 598.590 375.010, 587.417 372.742, 581 372.373 C 576.556 372.117, 573.674 372.461, 571.888 373.459" stroke="#c4875d" fill="#c4875d" fill-opacity="0.2" fill-rule="evenodd"/><path class="svg-region-OLr" d="M 1216.323 352.250 C 1212.876 356.079, 1212.921 356.456, 1218.028 366.456 C 1223.988 378.126, 1224.571 383.184, 1220.405 387.076 C 1218.978 388.409, 1217.186 390.700, 1216.422 392.167 C 1214.475 395.908, 1208.761 397.728, 1205.555 395.628 C 1203.420 394.229, 1203.126 394.228, 1202.593 395.619 C 1200.692 400.572, 1203.007 405.337, 1209.324 409.477 C 1211.264 410.747, 1212.010 412.093, 1212.036 414.365 C 1212.057 416.157, 1213.110 418.771, 1214.495 420.466 C 1216.764 423.241, 1217.130 423.356, 1220.209 422.260 C 1222.983 421.273, 1234.742 419.032, 1237.275 419.008 C 1237.702 419.003, 1240.852 416.396, 1244.275 413.213 C 1247.699 410.030, 1253.081 405.521, 1256.236 403.192 C 1263.966 397.486, 1264.057 396.965, 1260.730 377.491 C 1258.993 367.323, 1255.275 361.476, 1251.882 363.573 C 1251.367 363.891, 1248.841 362.759, 1246.270 361.056 C 1243.699 359.352, 1239.774 357.431, 1237.548 356.786 C 1235.321 356.140, 1231.127 354.349, 1228.227 352.806 C 1221.850 349.412, 1218.998 349.279, 1216.323 352.250" stroke="#c4875d" fill="#c4875d" fill-opacity="0.2" fill-rule="evenodd"/><path class="svg-region-VOC" d="M 1001.353 391.732 C 1000.652 394.524, 1003.716 399.273, 1011.054 406.767 C 1014.919 410.713, 1017.459 412.343, 1021.807 413.664 C 1024.938 414.616, 1028.694 416.206, 1030.154 417.198 C 1031.614 418.189, 1033.121 419, 1033.503 419 C 1033.884 419, 1037.190 421.971, 1040.848 425.603 L 1047.500 432.205 1065.065 433.268 C 1079.457 434.138, 1083.475 434.080, 1087.315 432.947 C 1091.507 431.709, 1092 431.256, 1092 428.650 C 1092 426.604, 1093.064 424.733, 1095.571 422.368 C 1097.535 420.516, 1099.560 419, 1100.071 419 C 1101.640 419, 1101.102 416.402, 1099.171 414.655 C 1098.006 413.600, 1095.607 413, 1092.555 413 C 1088.636 413, 1086.881 412.349, 1082.878 409.410 C 1080.188 407.436, 1077.428 405.074, 1076.744 404.160 C 1076.060 403.247, 1073.865 401.670, 1071.868 400.656 C 1069.870 399.642, 1067.770 397.790, 1067.201 396.541 C 1066.073 394.066, 1064.598 393.754, 1045.500 391.959 C 1031.477 390.641, 1023.024 390.080, 1011.718 389.718 C 1002.194 389.413, 1001.921 389.466, 1001.353 391.732 M 733.250 394.597 C 732.563 394.910, 732 396.863, 732 398.937 C 732 401.573, 731.248 403.520, 729.500 405.405 C 728.125 406.889, 727 408.513, 727 409.013 C 727 409.514, 729.025 412.007, 731.500 414.553 C 733.975 417.100, 736 420.019, 736 421.041 C 736 422.923, 730.277 428, 728.156 428 C 727.509 428, 727 429.490, 727 431.379 C 727 434.190, 727.504 434.966, 730 436 C 732.496 437.034, 733 437.810, 733 440.621 C 733 443.863, 733.153 444, 736.777 444 C 738.855 444, 741.638 443.242, 742.961 442.315 C 745.024 440.870, 747.763 440.664, 762.134 440.876 C 773.519 441.044, 779.606 440.746, 781.099 439.947 C 782.308 439.300, 786.144 436.122, 789.623 432.885 C 793.103 429.648, 796.392 427, 796.933 427 C 797.473 427, 799.049 425.087, 800.435 422.750 C 801.821 420.413, 804.404 417.375, 806.175 416 C 807.946 414.625, 810.513 412.255, 811.878 410.733 C 813.736 408.662, 814.576 408.285, 815.217 409.233 C 815.766 410.045, 815.971 409.459, 815.787 407.601 C 815.629 406.006, 814.825 404.340, 814 403.898 C 807.188 400.250, 796.786 397.776, 780.500 395.933 C 770.688 394.822, 734.973 393.812, 733.250 394.597" stroke="#ff8f93" fill="#ff8f93" fill-opacity="0.2" fill-rule="evenodd"/><path class="svg-region-SOTl" d="M 838 354.632 C 834.975 355.441, 829.350 356.963, 825.500 358.014 C 821.650 359.066, 816.067 360.192, 813.094 360.518 C 810.120 360.844, 806.364 361.795, 804.746 362.631 C 802.126 363.986, 801.845 364.579, 802.176 368.049 C 802.499 371.435, 802.218 372.085, 800.024 373.019 C 795.231 375.060, 792.840 377.750, 793.180 380.717 C 793.498 383.483, 793.550 383.502, 801.750 383.790 L 810 384.081 810 387.380 C 810 390.307, 810.424 390.819, 813.750 391.914 C 817.500 393.148, 823 392.153, 823 390.240 C 823 389.795, 824.237 388.681, 825.750 387.764 C 827.263 386.847, 829.982 384.807, 831.793 383.231 C 836.642 379.012, 850.105 372.532, 861.500 368.931 C 871.737 365.697, 883.839 364.130, 899.250 364.044 L 907 364 907.014 360.750 C 907.021 358.962, 907.299 356.488, 907.630 355.250 L 908.233 353 875.867 353.081 C 850.747 353.143, 842.269 353.491, 838 354.632" stroke="#995b45" fill="#995b45" fill-opacity="0.2" fill-rule="evenodd"/><path class="svg-region-SOTr" d="M 918.535 353.748 C 907.798 354.103, 907.041 354.487, 907.015 359.584 L 907 362.667 929.704 362.882 C 951.452 363.089, 952.600 363.198, 956.954 365.475 C 959.454 366.782, 963.606 368.133, 966.180 368.476 C 968.753 368.820, 971.974 369.979, 973.337 371.051 C 974.700 372.123, 976.764 373, 977.923 373 C 981.912 373, 987.909 370.538, 989.032 368.440 C 990 366.632, 989.646 365.768, 986.497 362.260 C 983.020 358.388, 982.426 358.130, 974.668 357.135 C 951.443 354.154, 939.823 353.020, 934.448 353.209 C 931.177 353.324, 924.016 353.567, 918.535 353.748" stroke="#995b45" fill="#995b45" fill-opacity="0.2" fill-rule="evenodd"/><path class="svg-region-BPCl" d="M 795.551 567.791 C 786.984 572.364, 784.909 575.533, 784.225 585.096 L 783.729 592.030 790.115 598.324 C 800.784 608.840, 801.922 609.195, 814 605.765 C 821.073 603.756, 820.530 604.514, 824.215 591.500 C 824.838 589.300, 825.720 587.072, 826.174 586.550 C 826.628 586.028, 826.981 583.778, 826.958 581.550 C 826.897 575.623, 822.149 570.656, 812.973 566.922 C 809.024 565.315, 805.052 564.018, 804.146 564.041 C 803.241 564.064, 799.373 565.751, 795.551 567.791" stroke="#83385f" fill="#83385f" fill-opacity="0.2" fill-rule="evenodd"/><path class="svg-region-BPCr" d="M 1019.693 561.972 C 1013.609 564.349, 1012.328 565.437, 1009.817 570.359 C 1007.722 574.465, 1007.718 576.818, 1009.784 588.041 C 1010.959 594.424, 1014.953 601.262, 1018 602.107 C 1019.375 602.489, 1022.463 602.845, 1024.862 602.900 C 1029.032 602.996, 1029.557 602.658, 1036.771 595.255 C 1047.900 583.832, 1049.680 578.721, 1046.087 568.500 C 1044.533 564.080, 1043.818 563.303, 1039.915 561.804 C 1034.101 559.571, 1025.658 559.641, 1019.693 561.972" stroke="#83385f" fill="#83385f" fill-opacity="0.2" fill-rule="evenodd"/><path class="svg-region-OVl" d="M 663.750 334.658 C 659.464 336.436, 659.072 338.072, 662.183 341.183 C 665.669 344.669, 665.915 352.762, 662.703 358.244 C 659.912 363.007, 656.825 365.098, 653 364.817 C 651.625 364.716, 648.813 364.716, 646.750 364.817 C 643.494 364.976, 643 365.320, 643 367.435 C 643 368.774, 643.422 370.979, 643.937 372.335 C 644.534 373.905, 644.503 376.197, 643.853 378.650 C 641.511 387.473, 640.641 390, 639.945 390 C 639.236 390, 635.214 393.899, 626.250 403.276 C 623.913 405.721, 621.998 408.346, 621.995 409.111 C 621.992 409.875, 620.881 412.300, 619.526 414.500 C 617.886 417.164, 617.052 420.008, 617.031 423.014 C 617.014 425.497, 616.100 429.991, 615 433 C 613.900 436.009, 613 438.579, 613 438.710 C 613 438.841, 611.672 439.635, 610.050 440.474 C 606.190 442.470, 600.928 442.410, 596.546 440.321 C 594.610 439.397, 592.742 438.925, 592.396 439.271 C 592.050 439.617, 593.057 442.061, 594.633 444.701 C 596.210 447.342, 599.750 453.883, 602.500 459.237 C 605.250 464.591, 608.063 468.977, 608.750 468.985 C 609.438 468.993, 610 468.484, 610 467.853 C 610 466.263, 616.689 458.250, 619.619 456.330 C 620.945 455.461, 623.163 454.750, 624.546 454.750 C 625.930 454.750, 627.610 454.019, 628.281 453.125 C 631.321 449.073, 639.081 444.847, 644.512 444.287 C 649.407 443.781, 650.439 444.029, 654.204 446.611 C 660.056 450.624, 667.254 457.786, 669.922 462.250 C 671.404 464.730, 672.897 466.004, 674.332 466.011 C 675.524 466.017, 678.095 466.286, 680.045 466.609 C 683.212 467.133, 683.726 466.897, 684.861 464.407 C 685.559 462.873, 686.533 458.091, 687.025 453.780 C 688.341 442.241, 689.391 440.563, 695.508 440.222 C 698.254 440.069, 704.100 440.666, 708.500 441.548 C 720.418 443.937, 726.729 444.355, 730.061 442.975 C 734.110 441.298, 734.079 437.689, 730 436 C 727.567 434.992, 727 434.164, 727 431.615 C 727 428.906, 727.550 428.233, 730.978 426.748 C 736.801 424.226, 737.222 421.197, 732.544 415.489 C 730.521 413.020, 728.446 411, 727.933 411 C 726.223 411, 726.971 408.511, 729.500 405.783 C 731.154 404, 732 401.930, 732 399.666 C 732 394.129, 733.056 393.828, 751.250 394.182 L 767.630 394.500 767.177 392.139 C 766.392 388.046, 755.588 377.524, 748.602 374.051 C 745.095 372.307, 740.713 369.509, 738.863 367.834 C 737.013 366.159, 734.528 364.136, 733.341 363.339 C 732.153 362.541, 730.128 360.342, 728.841 358.451 C 727.553 356.561, 726.195 355.011, 725.821 355.007 C 724.903 354.998, 718 348.441, 718 347.578 C 718 347.200, 716.761 345.566, 715.247 343.946 C 713.053 341.598, 710.464 340.494, 702.497 338.512 C 696.999 337.143, 689.739 336.018, 686.364 336.012 C 682.889 336.005, 678.987 335.352, 677.364 334.506 C 673.729 332.610, 668.549 332.668, 663.750 334.658 M 553.968 489.097 C 553.951 490.419, 553.276 492.374, 552.468 493.441 C 550.148 496.508, 550.575 505.074, 553.250 509.145 C 556.556 514.175, 560.842 523.091, 561.490 526.285 C 562.156 529.566, 564.840 530.820, 572.895 531.613 C 577.626 532.079, 579.280 531.763, 583.500 529.587 C 586.250 528.169, 589.025 527.006, 589.667 527.004 C 590.308 527.002, 590.983 526.663, 591.167 526.250 C 591.877 524.651, 599.258 522, 602.998 522 C 607.233 522, 624.665 520.333, 632 519.226 C 635.286 518.731, 632.702 518.406, 622.426 518.024 C 609.183 517.531, 608.106 517.337, 604.197 514.750 C 601.912 513.237, 599.812 512, 599.529 512 C 597.940 512, 593.618 506.929, 591.878 503.023 C 589.941 498.675, 589.847 495.442, 591.506 490.273 C 592.202 488.107, 592.032 488.050, 585.361 488.210 C 581.587 488.300, 572.987 487.996, 566.250 487.534 L 554 486.695 553.968 489.097" stroke="#593939" fill="#593939" fill-opacity="0.2" fill-rule="evenodd"/><path class="svg-region-OVr" d="M 1234.500 470.999 C 1233.950 471.494, 1231.025 474.207, 1228 477.028 C 1224.975 479.848, 1221.150 482.737, 1219.500 483.448 C 1217.850 484.158, 1214.169 486.992, 1211.319 489.747 C 1204.976 495.878, 1198.315 499.226, 1191.304 499.808 C 1188.387 500.050, 1186 500.584, 1186 500.996 C 1186 501.407, 1198.263 501.512, 1213.250 501.228 L 1240.500 500.713 1243.978 497.856 C 1245.891 496.285, 1248.259 495, 1249.241 495 C 1250.224 495, 1251.809 494.603, 1252.764 494.117 C 1255.300 492.826, 1258.747 491.367, 1265.428 488.753 C 1272.635 485.934, 1273.787 484, 1268.258 484 C 1265.344 484, 1263.731 483.341, 1261.924 481.413 C 1260.591 479.990, 1257.925 478.169, 1256 477.368 C 1254.075 476.566, 1250.839 474.580, 1248.809 472.955 C 1245.837 470.576, 1244.180 470.010, 1240.309 470.050 C 1237.664 470.078, 1235.050 470.505, 1234.500 470.999" stroke="#593939" fill="#593939" fill-opacity="0.2" fill-rule="evenodd"/><path class="svg-region-ODMl" d="M 622 454.706 C 621.175 455.008, 619.437 456.210, 618.139 457.377 C 615.462 459.784, 607 470.509, 607 471.495 C 607 471.852, 606.335 472.808, 605.522 473.621 C 604.709 474.434, 603.697 475.670, 603.272 476.368 C 602.847 477.066, 600.459 479.024, 597.964 480.720 C 594.220 483.263, 593.128 484.752, 591.714 489.239 C 589.536 496.149, 589.563 497.758, 591.948 503.150 C 594.390 508.669, 597.070 511.200, 604.494 514.997 C 610.266 517.949, 610.627 518, 625.722 518 C 634.168 518, 645.422 517.516, 650.731 516.924 C 660.907 515.789, 667.707 516.737, 670.103 519.625 C 670.731 520.381, 672.933 521, 674.997 521 C 677.060 521, 680.662 521.675, 683 522.500 C 685.338 523.325, 688.784 524, 690.657 524 C 692.699 524, 694.284 524.577, 694.615 525.440 C 694.919 526.232, 696.239 527.582, 697.549 528.440 C 699.766 529.893, 700.236 529.828, 704.407 527.500 C 706.870 526.125, 709.650 525, 710.586 525 C 712.103 525, 712.217 524.104, 711.640 516.750 C 711.285 512.212, 710.013 505.239, 708.815 501.254 C 707.056 495.404, 706.001 493.574, 703.339 491.754 C 701.525 490.514, 699.527 488.262, 698.899 486.750 C 698.271 485.238, 697.249 483.999, 696.629 483.997 C 696.008 483.996, 694.600 482.647, 693.500 481 C 692.400 479.353, 691.163 478.004, 690.750 478.003 C 690.337 478.001, 690.001 477.438, 690.003 476.750 C 690.004 476.063, 689.021 473.640, 687.817 471.367 C 685.791 467.543, 685.249 467.189, 680.564 466.626 C 672.925 465.708, 666.453 465.877, 663.315 467.076 C 661.767 467.668, 655.825 468.334, 650.111 468.557 C 641.953 468.875, 638.948 468.610, 636.111 467.319 C 631.150 465.061, 627 461.050, 627 458.513 C 627 457.351, 626.460 455.860, 625.800 455.200 C 624.506 453.906, 624.273 453.875, 622 454.706" stroke="#999999" fill="#999999" fill-opacity="0.2" fill-rule="evenodd"/><path class="svg-region-ODMr" d="M 1206.032 445.250 C 1206.049 445.938, 1206.724 447.374, 1207.532 448.441 C 1210.062 451.786, 1209.367 456.404, 1205.810 459.881 C 1202.142 463.468, 1202.037 463.495, 1199.441 461.532 C 1195.981 458.915, 1191.395 459.648, 1187.132 463.500 L 1183.258 467 1172.282 467 C 1164.253 467, 1160.452 466.573, 1158.119 465.410 C 1154.993 463.850, 1154.846 463.884, 1150.544 467.160 C 1148.131 468.997, 1144.771 472.772, 1143.078 475.549 C 1140.180 480.302, 1140 481.184, 1140 490.644 C 1140 498.960, 1140.301 500.954, 1141.750 502.224 C 1148.045 507.744, 1157.084 508.427, 1170.074 504.365 C 1174.708 502.915, 1182.645 501.157, 1187.710 500.456 C 1198.950 498.902, 1205.955 495.734, 1211.940 489.496 C 1214.381 486.951, 1217.775 484.285, 1219.481 483.572 C 1221.187 482.859, 1224.957 479.964, 1227.858 477.138 C 1230.760 474.312, 1233.553 472, 1234.067 472 C 1235.515 472, 1235.174 470.567, 1233.220 468.439 C 1231.351 466.404, 1226.750 458.432, 1224.741 453.750 C 1223.790 451.533, 1222.913 451, 1220.215 451 C 1216.322 451, 1214.004 449.913, 1210.568 446.477 C 1207.876 443.785, 1205.982 443.273, 1206.032 445.250" stroke="#999999" fill="#999999" fill-opacity="0.2" fill-rule="evenodd"/>
    </svg>