<svg xmlns="http://www.w3.org/2000/svg" width="1921" height="1027" viewBox="0 0 1921 1027" version="1.1">
    <path class="svg-region-V" d="M 756.500 166.084 C 752.597 166.946, 743.640 170.771, 729.500 177.614 C 725.650 179.477, 721.824 181.001, 720.997 181.001 C 720.170 181, 717.278 182.575, 714.571 184.500 C 711.863 186.425, 709.165 188.002, 708.574 188.004 C 706.050 188.014, 698.765 194.067, 692.332 201.500 C 688.524 205.900, 681.726 213.210, 677.227 217.745 C 672.727 222.280, 668.166 227.680, 667.091 229.745 C 666.016 231.810, 662.497 236.425, 659.270 240 C 650.289 249.951, 644.473 257.991, 642.271 263.500 C 634.780 282.237, 633.984 284.752, 633.992 289.667 C 634.007 299.463, 638.735 306.769, 651.770 317.142 C 657.207 321.469, 660.788 323.448, 665.979 324.994 C 669.796 326.131, 673.179 327.481, 673.496 327.994 C 673.814 328.507, 676.869 329.802, 680.287 330.870 C 683.704 331.939, 689.076 333.755, 692.225 334.907 C 700.826 338.051, 713.653 337.838, 721 334.427 C 731.940 329.349, 736.884 321.711, 737.738 308.573 C 738.202 301.445, 738.687 299.850, 741.882 294.950 C 746.896 287.260, 759.263 279.257, 770.609 276.363 C 774.399 275.396, 778.499 273.728, 779.721 272.656 C 781.551 271.049, 782.210 270.930, 783.471 271.976 C 784.312 272.674, 785 273.865, 785 274.622 C 785 276.783, 790.761 276.257, 797.500 273.481 C 804.327 270.669, 810.459 270.315, 814.636 272.494 C 816.211 273.315, 819.988 273.990, 823.028 273.994 C 827.299 273.999, 830.248 274.811, 835.992 277.563 C 842.271 280.573, 843.803 280.955, 845.843 280.026 C 847.752 279.156, 848.616 279.248, 849.958 280.462 C 850.893 281.308, 852.148 282, 852.747 282 C 853.346 282, 856.236 284.060, 859.168 286.578 C 867.312 293.571, 875.673 296.956, 877.500 294 C 878.828 291.852, 882.930 292.964, 884.438 295.880 C 885.735 298.389, 886.675 298.850, 891.714 299.451 C 894.896 299.831, 900.040 300.785, 903.144 301.571 C 916.076 304.845, 932.711 301.617, 940.102 294.400 C 943.306 291.272, 944.154 290.883, 945.444 291.954 C 947.496 293.657, 953.209 292.532, 955.529 289.968 C 957.013 288.328, 958.143 288.078, 961.916 288.559 C 965.621 289.030, 967.459 288.650, 971.500 286.575 C 975.516 284.513, 977.934 284.008, 983.790 284.004 C 989.277 284.001, 992.121 283.467, 995.290 281.846 C 1000.587 279.137, 1011.215 278.349, 1013.026 280.531 C 1013.793 281.456, 1016.052 282, 1019.122 282 C 1022.656 282, 1024 282.389, 1024 283.412 C 1024 284.994, 1029.495 286.223, 1035.011 285.874 C 1038.629 285.646, 1043.720 287.753, 1045.903 290.383 C 1046.594 291.216, 1048.709 292.409, 1050.603 293.034 C 1052.981 293.819, 1054.625 295.304, 1055.917 297.835 C 1056.945 299.851, 1058.735 302.357, 1059.894 303.405 C 1061.415 304.781, 1062 306.507, 1062 309.617 C 1062 324.739, 1076.249 339, 1091.358 339 C 1097.963 339, 1113.268 335.402, 1118.664 332.581 C 1126.676 328.391, 1135.483 318.530, 1145.500 302.531 C 1146.600 300.774, 1148.696 297.925, 1150.158 296.201 C 1152.690 293.214, 1152.790 292.674, 1152.275 284.783 C 1151.379 271.050, 1145.400 255.606, 1134.202 238.102 C 1128.940 229.876, 1099.896 201.282, 1092.178 196.729 C 1088.701 194.678, 1085.551 193.012, 1085.178 193.026 C 1084.805 193.040, 1081.350 191.518, 1077.500 189.643 C 1062.020 182.107, 1053.541 179.383, 1038.500 177.114 C 1031.224 176.017, 1013.982 174.641, 1010.500 174.880 C 988.500 176.389, 977.812 177.526, 970 179.188 C 964.775 180.300, 958.700 181.389, 956.500 181.607 C 954.300 181.826, 948.900 182.461, 944.500 183.020 C 933.926 184.361, 906.058 184.455, 898.500 183.174 C 895.200 182.615, 890.025 181.237, 887 180.111 C 883.975 178.986, 880.558 178.051, 879.407 178.033 C 878.255 178.015, 874.697 177.100, 871.500 176 C 868.303 174.900, 864.690 174, 863.471 174 C 862.252 174, 859.103 173.048, 856.473 171.885 C 851.956 169.887, 842.051 168.226, 821.500 166.020 C 810.394 164.828, 761.971 164.876, 756.500 166.084" stroke="#dd8a8a" fill="#dd8a8a" fill-opacity="0.2" fill-rule="evenodd"/><path class="svg-region-SV" d="M 779.455 272.777 C 778.380 273.772, 774.917 275.160, 771.761 275.862 C 763.468 277.707, 745.770 287.762, 743.632 291.843 C 743.155 292.754, 741.676 295.123, 740.345 297.107 C 738.392 300.019, 737.869 302.233, 737.630 308.607 C 737.411 314.408, 736.728 317.693, 735.050 321 C 732.550 325.929, 726.174 332.493, 722.867 333.542 C 720.973 334.143, 721.145 334.419, 724.634 336.369 C 729.738 339.222, 740.611 342.643, 750.420 344.483 C 760.803 346.431, 769.607 349.897, 771.058 352.609 C 772.218 354.776, 783.326 363, 785.093 363 C 785.614 363, 787.718 364.040, 789.770 365.312 C 793.654 367.719, 806.481 372.945, 813.646 375.040 C 815.926 375.706, 818.944 377.320, 820.352 378.626 C 821.760 379.932, 823.152 381, 823.445 381 C 824.706 381, 829.094 385.166, 833.674 390.711 C 835.483 392.900, 835.595 392.908, 845.500 391.545 C 860.326 389.504, 875.807 387.988, 881.758 387.994 C 884.650 387.997, 893.650 387.063, 901.758 385.917 C 914.602 384.102, 919.332 383.915, 938.500 384.463 C 950.600 384.809, 962.127 385.326, 964.116 385.612 C 967.158 386.048, 967.818 385.804, 968.270 384.077 C 968.565 382.948, 969.863 381.614, 971.153 381.112 C 972.444 380.611, 975.207 379.030, 977.294 377.600 C 979.381 376.170, 981.452 375, 981.895 375 C 982.338 375, 983.735 373.650, 985 372 C 986.576 369.943, 988.169 369, 990.066 369 C 991.588 369, 992.983 368.605, 993.167 368.122 C 993.795 366.467, 1006.097 359.138, 1009.299 358.511 C 1011.059 358.166, 1013.400 357.499, 1014.500 357.029 C 1017.122 355.908, 1042.222 350.270, 1048 349.504 C 1050.475 349.176, 1054.574 348.449, 1057.108 347.888 C 1060.353 347.170, 1064.348 347.215, 1070.608 348.040 C 1087.573 350.276, 1090.581 350.320, 1093.543 348.380 C 1095.907 346.831, 1099.005 341.664, 1098.998 339.282 C 1098.996 338.852, 1095.959 338.500, 1092.248 338.500 C 1075.699 338.500, 1063.929 327.749, 1062.266 311.114 C 1061.848 306.933, 1060.999 304.687, 1058.941 302.316 C 1057.420 300.564, 1055.891 298.233, 1055.543 297.136 C 1054.979 295.358, 1049.492 291.573, 1040.725 286.913 C 1039.084 286.041, 1036.678 285.530, 1035.379 285.778 C 1031.364 286.546, 1024 285.032, 1024 283.439 C 1024 282.384, 1022.699 282, 1019.122 282 C 1016.070 282, 1013.792 281.455, 1013.035 280.542 C 1011.197 278.328, 1000.530 279.091, 995.290 281.813 C 992.057 283.493, 989.343 284, 983.593 284 C 977.456 284, 975.240 284.465, 971.303 286.577 C 967.386 288.679, 965.654 289.045, 961.916 288.565 C 958.139 288.079, 957.015 288.326, 955.529 289.968 C 953.239 292.499, 947.497 293.658, 945.493 291.994 C 944.269 290.978, 943.324 291.378, 940.134 294.260 C 931.333 302.211, 916.123 304.536, 898 300.701 C 893.325 299.712, 888.565 298.710, 887.421 298.475 C 886.278 298.240, 884.825 296.912, 884.193 295.524 C 883.011 292.929, 878.760 291.961, 877.500 294 C 875.793 296.762, 866.970 293.130, 860.500 287.003 C 858.300 284.919, 855.375 282.888, 854 282.489 C 852.625 282.090, 850.708 281.068, 849.740 280.218 C 848.295 278.949, 847.572 278.891, 845.695 279.895 C 843.715 280.956, 842.421 280.644, 835.983 277.559 C 830.649 275.003, 827.201 274, 823.746 274 C 821.100 274, 817.320 273.325, 815.346 272.500 C 810.395 270.432, 804.106 270.623, 798.718 273.007 C 796.223 274.110, 792.228 275.277, 789.841 275.599 C 785.997 276.117, 785.385 275.923, 784.500 273.906 C 783.175 270.890, 781.823 270.588, 779.455 272.777 M 864.500 357.669 C 861.750 358.447, 856.228 359.355, 852.229 359.687 C 848.230 360.020, 845.089 360.423, 845.249 360.582 C 845.783 361.117, 868.366 364.103, 879.500 365.112 C 888.329 365.911, 892.178 365.809, 899 364.592 C 903.675 363.758, 916.050 362.876, 926.500 362.632 C 939.434 362.331, 946.759 361.734, 949.445 360.763 L 953.390 359.337 944.945 357.577 C 936.654 355.849, 925.005 355.794, 879 357.261 C 875.425 357.375, 871.825 357.196, 871 356.862 C 870.175 356.528, 867.250 356.891, 864.500 357.669" stroke="#c666b5" fill="#c666b5" fill-opacity="0.2" fill-rule="evenodd"/><path class="svg-region-PC" d="M 992 426.574 C 987.875 427.341, 981.575 428.450, 978 429.040 C 971.522 430.108, 967.523 432, 971.741 432 C 972.919 432, 974.160 432.450, 974.500 433 C 974.840 433.550, 975.883 434, 976.818 434 C 977.754 434, 979.081 434.900, 979.768 436 C 980.455 437.100, 981.666 438, 982.459 438 C 983.252 438, 990.478 444.525, 998.517 452.500 C 1006.556 460.475, 1013.359 467, 1013.636 467 C 1013.913 467, 1017.910 469.945, 1022.519 473.543 C 1027.128 477.142, 1032.946 480.785, 1035.449 481.637 C 1037.952 482.490, 1040 483.742, 1040 484.420 C 1040 488.976, 1052.166 493.567, 1061.664 492.593 C 1070.634 491.674, 1074.765 489.504, 1075.999 485.063 C 1077.271 480.483, 1077.272 477, 1076 477 C 1075.450 477, 1074.996 476.438, 1074.991 475.750 C 1074.986 475.063, 1073.634 473.435, 1071.986 472.134 C 1068.617 469.472, 1065 462.152, 1065 457.995 C 1065 454.515, 1062.534 448.567, 1059.372 444.422 C 1057.463 441.918, 1055.898 441.062, 1052.227 440.511 C 1046.299 439.622, 1042.717 437.775, 1038.498 433.430 C 1035.581 430.427, 1034.546 430, 1030.179 430 C 1027.436 430, 1021.886 428.878, 1017.846 427.507 C 1009.527 424.684, 1003.370 424.461, 992 426.574 M 856.500 434 C 854.850 434.420, 850.800 434.824, 847.500 434.898 C 839.462 435.080, 825.092 438.104, 822.027 440.261 C 818.671 442.622, 816.751 442.448, 814.235 439.556 C 811.639 436.570, 806.665 435.530, 799.164 436.406 C 789.586 437.524, 786.150 438.810, 784.568 441.869 C 783.773 443.407, 781.454 446.653, 779.414 449.082 C 777.375 451.512, 774.198 456.637, 772.353 460.472 C 769.030 467.381, 769 467.573, 769 481.741 L 769 496.038 771.750 495.415 C 773.263 495.072, 777.040 494.163, 780.144 493.396 C 787.221 491.646, 794.667 491.574, 795.321 493.250 C 795.819 494.526, 803 487.996, 803 486.268 C 803 485.131, 810.827 477, 811.922 477 C 812.388 477, 816.418 473.400, 820.878 469 C 825.337 464.600, 829.256 461, 829.585 461 C 830.182 461, 837.739 454.769, 842.951 449.980 C 844.459 448.595, 846.916 446.904, 848.411 446.222 C 850.459 445.289, 850.977 444.502, 850.509 443.029 C 850.014 441.470, 850.634 440.762, 853.566 439.537 C 857.784 437.775, 861.601 437.545, 862.500 439 C 863.603 440.785, 865 440.058, 865 437.700 C 865 433.397, 862.739 432.413, 856.500 434" stroke="#cda789" fill="#cda789" fill-opacity="0.2" fill-rule="evenodd"/><path class="svg-region-DB" d="M 1173 319.200 C 1167.775 319.709, 1156.937 319.893, 1148.917 319.609 L 1134.333 319.093 1129.417 324.131 C 1124.054 329.626, 1113.647 335.471, 1107.433 336.478 C 1099.435 337.774, 1099.373 337.810, 1098.111 342.025 C 1097.292 344.756, 1095.839 346.756, 1093.696 348.103 C 1090.249 350.268, 1088.282 350.261, 1071 348.020 C 1064.010 347.114, 1060.813 347.205, 1053 348.528 C 1041.298 350.511, 1017.214 355.814, 1014.500 357.005 C 1013.400 357.488, 1011.042 358.170, 1009.260 358.519 C 1007.478 358.869, 1002.626 361.370, 998.479 364.077 C 994.332 366.785, 989.827 369, 988.469 369 C 987.111 369, 986 369.482, 986 370.071 C 986 371.617, 983.297 374.093, 979.230 376.273 C 972.222 380.029, 968 383.049, 968 384.307 C 968 385.255, 972.490 385.888, 985.250 386.740 C 997.220 387.540, 1004.490 388.525, 1009 389.957 C 1012.575 391.092, 1018.425 392.702, 1022 393.534 C 1025.575 394.366, 1031.200 395.884, 1034.500 396.908 C 1037.800 397.931, 1043.872 399.534, 1047.993 400.469 C 1052.114 401.404, 1055.714 402.468, 1055.993 402.835 C 1056.272 403.201, 1058.810 404.287, 1061.634 405.250 C 1065.475 406.559, 1070.002 407, 1079.602 407 C 1091.958 407, 1106.024 409.251, 1111.236 412.063 C 1112.191 412.578, 1113.911 413, 1115.058 413 C 1116.205 413, 1117.818 413.675, 1118.643 414.500 C 1119.468 415.325, 1121.287 416, 1122.686 416 C 1126.408 416, 1135 420.954, 1135 423.100 C 1135 424.080, 1135.450 425.160, 1136 425.500 C 1136.550 425.840, 1137 427.891, 1137 430.059 C 1137 432.227, 1136.550 434, 1136 434 C 1135.450 434, 1135 435.054, 1135 436.343 C 1135 438.566, 1135.327 438.681, 1141.414 438.593 C 1146.910 438.513, 1148.201 438.850, 1150.433 440.942 C 1151.957 442.371, 1153.290 444.964, 1153.647 447.192 C 1153.982 449.286, 1154.492 451, 1154.781 451 C 1155.070 451, 1157.637 448.796, 1160.486 446.102 C 1169.276 437.789, 1182.200 432.485, 1191.948 433.190 C 1196.517 433.520, 1198.867 434.381, 1203.379 437.376 C 1207.907 440.381, 1209.648 441.017, 1211.962 440.508 C 1215.175 439.803, 1224 432.538, 1224 430.599 C 1224 429.922, 1222.251 428.385, 1220.114 427.184 C 1216.170 424.968, 1213 420.021, 1213 416.083 C 1213 414.106, 1210.755 410.186, 1202.191 397.208 C 1199.765 393.532, 1198.552 390.393, 1198.220 386.934 C 1197.830 382.878, 1197.207 381.572, 1194.870 379.908 C 1191.270 377.344, 1191.165 374.239, 1194.453 367.516 C 1195.802 364.757, 1197.138 361.712, 1197.422 360.750 C 1197.705 359.788, 1198.843 359, 1199.951 359 C 1201.059 359, 1204.971 357.160, 1208.646 354.911 C 1212.321 352.661, 1216.941 350.573, 1218.914 350.269 C 1223.658 349.540, 1228 347.288, 1228 345.557 C 1228 344.792, 1225.862 343.389, 1223.250 342.439 C 1220.638 341.490, 1217.753 339.878, 1216.840 338.857 C 1215.927 337.835, 1214.795 337, 1214.326 337 C 1213.390 337, 1204.280 330.806, 1195.864 324.448 C 1191.317 321.013, 1184.434 317.655, 1182.929 318.138 C 1182.693 318.213, 1178.225 318.691, 1173 319.200 M 622.958 330.609 C 620.073 338.198, 614.708 349.556, 612.956 351.783 C 609.290 356.444, 610.545 361.371, 615.838 363.097 C 617.852 363.753, 619.778 364.717, 620.117 365.239 C 620.456 365.761, 623.709 367.189, 627.345 368.413 C 634.602 370.855, 641.560 376.397, 642.607 380.570 C 643.722 385.013, 641.064 391.759, 636.473 396.134 C 630.753 401.586, 625.984 411.607, 624.604 421.078 C 623.861 426.178, 622.651 429.938, 620.903 432.578 C 616.481 439.258, 615 442.761, 615 446.546 C 615 451.656, 617.886 461.019, 619.672 461.704 C 620.492 462.019, 622.814 461.372, 624.832 460.266 C 627.029 459.062, 631.446 457.997, 635.845 457.612 C 639.885 457.258, 644.132 456.465, 645.282 455.849 C 646.431 455.234, 651.676 454.679, 656.936 454.615 C 664.746 454.521, 667.004 454.842, 669.248 456.364 C 674.073 459.636, 679.735 465.398, 681.419 468.750 C 683.524 472.940, 686 473.057, 686 468.967 C 686 464.862, 690.469 456.303, 693.038 455.488 C 694.926 454.889, 694.986 454.628, 693.690 452.649 C 692.905 451.451, 691.945 448.902, 691.557 446.985 C 691.168 445.068, 690.161 441.980, 689.318 440.123 C 687.818 436.818, 687.847 436.696, 690.643 434.404 C 692.214 433.116, 694.400 431.763, 695.500 431.397 C 696.600 431.032, 699.140 429.443, 701.144 427.866 C 703.148 426.290, 705.967 425, 707.407 425 C 708.848 425, 710.809 424.590, 711.764 424.088 C 712.719 423.587, 716.200 422.640, 719.500 421.984 C 725.876 420.718, 735.967 416.333, 737.300 414.250 C 737.740 413.563, 738.715 413, 739.466 413 C 740.218 413, 740.983 412.663, 741.167 412.250 C 741.979 410.423, 749.376 407.721, 755.653 406.958 C 759.419 406.500, 764.975 405.812, 768 405.429 C 774.277 404.634, 776.615 403.029, 777.523 398.895 C 778.416 394.831, 782.266 393.962, 785.582 397.077 C 787.978 399.328, 788.292 399.364, 795.777 398.242 C 813.601 395.572, 823.839 394.124, 829.262 393.508 L 835.024 392.853 832.320 389.091 C 828.363 383.586, 817.459 375.825, 811.536 374.297 C 806.513 373.001, 793.949 368.063, 793 367.013 C 792.451 366.405, 787.376 363.881, 785 363.035 C 781.744 361.874, 772.222 354.783, 771.097 352.681 C 770.396 351.371, 767.554 349.555, 764.202 348.274 C 758.872 346.237, 756.374 345.589, 743.500 342.898 C 737.716 341.689, 734.606 340.624, 727.023 337.254 C 722.296 335.153, 721.048 334.969, 717.907 335.910 C 711.511 337.826, 699.600 337.246, 691.676 334.633 C 684.660 332.319, 677.687 332.080, 676.432 334.110 C 675.711 335.276, 665.498 335.256, 661.571 334.082 C 657.288 332.801, 647.621 330.899, 640.500 329.937 C 622.481 327.502, 624.165 327.437, 622.958 330.609" stroke="#e8b1e4" fill="#e8b1e4" fill-opacity="0.2" fill-rule="evenodd"/><path class="svg-region-IBl" d="M 703 452.962 C 699.425 453.319, 695.225 454.237, 693.666 455.004 C 689.978 456.817, 686 464.652, 686 470.101 C 686 473.805, 686.640 474.944, 691.750 480.334 C 694.913 483.670, 698.962 487.803, 700.750 489.520 C 702.538 491.237, 704 492.967, 704 493.363 C 704 493.760, 704.459 494.628, 705.020 495.292 C 705.582 495.956, 707.792 499.200, 709.932 502.500 C 716.282 512.292, 721.305 517, 725.401 517 C 727.315 517, 729.160 517.450, 729.500 518 C 729.840 518.550, 730.689 519, 731.388 519 C 732.852 519, 740.464 514.100, 743.696 511.076 C 744.904 509.946, 748.504 507.841, 751.696 506.397 C 754.888 504.954, 760.087 502.216, 763.250 500.314 L 769 496.855 769 486.509 C 769 480.819, 768.710 475.407, 768.355 474.482 C 767.075 471.147, 744.146 457.074, 739.917 457.028 C 738.496 457.013, 737.013 456.679, 736.621 456.287 C 736.229 455.895, 733.791 454.771, 731.204 453.788 C 726.295 451.924, 716.345 451.633, 703 452.962" stroke="#b10e0e" fill="#b10e0e" fill-opacity="0.2" fill-rule="evenodd"/><path class="svg-region-IBr" d="M 1135.640 439.503 C 1133.518 440.311, 1128.347 441.397, 1124.151 441.918 C 1116.836 442.827, 1116.354 443.051, 1112.510 447.342 C 1106.134 454.459, 1101.818 460.261, 1100.491 463.500 C 1099.814 465.150, 1098.969 471.931, 1098.613 478.569 L 1097.964 490.639 1101.561 491.569 C 1103.970 492.192, 1105.711 493.492, 1106.829 495.500 C 1108.934 499.279, 1109.883 499.966, 1113.027 499.985 C 1114.418 499.993, 1116.625 500.750, 1117.934 501.666 C 1120.203 503.256, 1120.398 503.227, 1122.169 501.040 C 1123.190 499.779, 1124.310 497.567, 1124.657 496.124 C 1125.787 491.427, 1133.424 476.795, 1136.500 473.433 C 1139.205 470.476, 1142.746 466.401, 1151.377 456.310 C 1153.890 453.373, 1154.189 452.365, 1153.737 448.356 C 1152.772 439.801, 1144.935 435.967, 1135.640 439.503" stroke="#b10e0e" fill="#b10e0e" fill-opacity="0.2" fill-rule="evenodd"/><path class="svg-region-MB" d="M 765.867 405.466 C 765.610 405.723, 761.575 406.368, 756.899 406.899 C 749.275 407.765, 742.071 410.216, 741.167 412.250 C 740.983 412.663, 740.218 413, 739.466 413 C 738.715 413, 737.740 413.563, 737.300 414.250 C 735.897 416.442, 725.721 420.782, 719 422.054 C 715.425 422.730, 712.072 423.670, 711.550 424.142 C 711.028 424.614, 709.147 425, 707.371 425 C 705.596 425, 703.468 425.675, 702.643 426.500 C 701.818 427.325, 700.900 428, 700.603 428 C 700.306 428, 697.340 429.868, 694.012 432.152 C 687.925 436.330, 687.254 437.896, 690.009 441.500 C 690.430 442.050, 691.077 444.300, 691.447 446.500 C 692.616 453.452, 693.345 453.858, 703.017 452.935 C 714.522 451.838, 726.653 451.811, 728.764 452.878 C 733.438 455.241, 738.268 457, 740.084 457 C 741.192 457, 743.539 457.728, 745.300 458.618 C 750.546 461.270, 767 472.322, 767 473.193 C 767 473.637, 767.450 474, 768 474 C 768.550 474, 769 472.622, 769 470.938 C 769 466.705, 773.306 457.890, 779.657 449.125 C 782.596 445.068, 785 441.203, 785 440.535 C 785 438.321, 780.009 437, 771.644 437 C 766.292 437, 762.733 436.525, 761.538 435.652 C 759.267 433.991, 760.310 432, 763.452 432 C 764.736 432, 766.026 431.374, 766.319 430.610 C 766.926 429.030, 772.500 426.016, 774.904 425.968 C 776.938 425.928, 780 423.627, 780 422.140 C 780 421.513, 778.632 421, 776.960 421 C 772.917 421, 766.306 417.540, 765.501 415.002 C 765.146 413.885, 764.435 413.231, 763.921 413.549 C 763.407 413.867, 762.709 413.406, 762.372 412.526 C 761.693 410.757, 764.565 407, 766.596 407 C 767.303 407, 768.160 406.550, 768.500 406 C 769.106 405.020, 766.784 404.549, 765.867 405.466 M 1062.069 410.784 C 1056.496 414.028, 1055.368 415.195, 1053.623 419.514 C 1052.516 422.256, 1051.135 424.838, 1050.555 425.252 C 1049.975 425.665, 1046.463 426.922, 1042.750 428.044 C 1039.037 429.166, 1036 430.263, 1036 430.481 C 1036 430.698, 1037.237 432.202, 1038.750 433.821 C 1042.297 437.620, 1046.833 439.878, 1052.466 440.650 C 1055.956 441.129, 1057.511 441.981, 1059.392 444.447 C 1062.536 448.569, 1065 454.522, 1065 457.995 C 1065 461.966, 1068.494 469.274, 1071.736 472.082 C 1076.188 475.938, 1077.264 478.871, 1076.110 484.007 C 1075.561 486.448, 1075.316 488.649, 1075.565 488.898 C 1075.814 489.147, 1080.894 489.552, 1086.854 489.798 L 1097.690 490.244 1098.345 483.975 C 1098.705 480.528, 1099 475.283, 1099 472.321 C 1099 465.720, 1100.704 461.441, 1105.403 456.239 C 1107.381 454.049, 1109 451.841, 1109 451.332 C 1109 450.823, 1110.742 448.705, 1112.872 446.625 C 1116.335 443.244, 1117.517 442.748, 1124.080 441.924 C 1134.016 440.676, 1135 440.277, 1135 437.492 C 1135 436.186, 1135.450 434.840, 1136 434.500 C 1136.550 434.160, 1137 432.135, 1137 430 C 1137 427.865, 1136.550 425.840, 1136 425.500 C 1135.450 425.160, 1135 424.171, 1135 423.301 C 1135 420.538, 1127.199 416, 1122.449 416 C 1121.181 416, 1119.468 415.325, 1118.643 414.500 C 1117.818 413.675, 1116.205 413, 1115.058 413 C 1113.911 413, 1112.191 412.578, 1111.236 412.063 C 1106.170 409.330, 1091.961 407.001, 1080.468 407.020 L 1068.500 407.039 1062.069 410.784" stroke="#f9c6c6" fill="#f9c6c6" fill-opacity="0.2" fill-rule="evenodd"/><path class="svg-region-AP" d="M 824.576 465.195 C 823.274 467.053, 818.239 471.614, 808.458 479.792 C 807.335 480.732, 804.591 483.976, 802.360 487.001 C 800.130 490.027, 797.561 493.119, 796.652 493.874 C 795.744 494.628, 795 495.667, 795 496.183 C 795 496.698, 797.418 499.681, 800.374 502.810 C 813.754 516.977, 817.041 520.848, 818.419 524.061 C 819.230 525.953, 822.607 531.100, 825.924 535.500 C 829.240 539.900, 831.964 544.326, 831.977 545.337 C 832.012 548.148, 826.410 555.211, 821.970 557.951 C 818.690 559.976, 818 560.954, 818 563.581 C 818 566.135, 818.884 567.483, 822.500 570.446 C 826.509 573.732, 827 574.583, 827 578.257 C 827 586.203, 824.768 594.017, 821.780 596.532 C 820.251 597.818, 819 599.342, 819 599.919 C 819 600.495, 816.765 602.099, 814.033 603.483 C 810 605.527, 807.614 606, 801.333 606 C 795.318 606, 793.867 606.267, 794.800 607.200 C 795.460 607.860, 796 608.877, 796 609.459 C 796 610.797, 804.335 620.057, 818.661 634.636 C 826.141 642.247, 831.583 646.878, 835.159 648.674 C 838.095 650.148, 842.297 653.283, 844.498 655.640 C 849.316 660.800, 865.422 668.345, 875.184 670.016 C 878.658 670.610, 883.975 671.520, 887 672.037 C 890.025 672.555, 893.782 673.269, 895.349 673.625 C 897.770 674.174, 898.145 673.988, 897.841 672.386 C 897.595 671.088, 896.477 670.403, 894.255 670.188 C 892.393 670.008, 890.414 669.002, 889.581 667.812 C 888.531 666.313, 887.479 665.914, 885.730 666.353 C 884.307 666.710, 882.542 666.365, 881.412 665.510 C 879.580 664.124, 879.605 664.062, 882.009 664.032 C 883.410 664.014, 885.071 663.116, 885.768 662 C 886.681 660.538, 888.100 660, 891.042 660 C 893.353 660, 897.167 658.935, 900 657.500 C 905.518 654.704, 908.081 654.414, 911.044 656.250 C 912.458 657.126, 913.276 657.178, 913.781 656.425 C 915.181 654.332, 920.794 651.707, 922.483 652.355 C 923.422 652.715, 924.425 653.908, 924.712 655.005 C 925.262 657.111, 927.457 657.687, 928.500 656 C 929.374 654.586, 938.828 654.785, 943 656.305 C 944.925 657.006, 948.419 658.587, 950.764 659.818 C 954.992 662.036, 958.243 661.733, 959.163 659.034 C 959.348 658.490, 960.962 657.754, 962.750 657.398 C 965.254 656.899, 966 657.093, 966 658.242 C 966 659.670, 959.015 665, 957.144 665 C 956.649 665, 955.745 665.602, 955.134 666.338 C 954.524 667.074, 952.265 668.203, 950.115 668.847 C 946.407 669.958, 944.392 672.207, 945.499 673.999 C 947.206 676.760, 963.340 668.552, 971.457 660.793 C 973.083 659.238, 977.808 656.215, 981.957 654.075 C 986.106 651.935, 991.438 649.079, 993.807 647.729 C 998.538 645.034, 1023.690 620.992, 1026.599 616.385 C 1027.601 614.798, 1031.026 610.437, 1034.210 606.693 C 1041.547 598.067, 1041.937 596.402, 1035.807 599.872 C 1033.189 601.354, 1031.132 601.645, 1025.937 601.268 C 1015.821 600.533, 1015.392 599.972, 1010.461 581 C 1007.963 571.389, 1008.259 570.357, 1015.500 563.464 C 1022.446 556.851, 1023.141 554.943, 1020.707 549.155 C 1019.996 547.464, 1017.862 545.034, 1015.964 543.755 C 1014.066 542.476, 1012.375 540.545, 1012.205 539.465 C 1012.036 538.384, 1011.504 536.600, 1011.024 535.500 C 1010.022 533.206, 1009.055 529.047, 1008.350 524 C 1007.917 520.907, 1008.634 519.452, 1014.502 511.500 C 1023.683 499.058, 1024.378 498.416, 1034.169 493.359 L 1042.839 488.881 1041.169 485.954 C 1040.089 484.060, 1038.002 482.516, 1035.255 481.576 C 1031.468 480.281, 1023.907 475.091, 1017.097 469.110 C 1015.105 467.361, 1013.400 467, 1007.130 467 C 1002.970 467, 997.752 467.618, 995.533 468.373 C 993.315 469.129, 989.700 470.299, 987.500 470.975 C 985.300 471.650, 981.919 473.218, 979.987 474.459 C 978.055 475.700, 975.355 477.032, 973.987 477.420 C 972.619 477.808, 970.600 478.487, 969.500 478.929 C 968.400 479.371, 965.250 480.255, 962.500 480.894 C 959.750 481.532, 954.800 483.322, 951.500 484.871 C 948.200 486.419, 943.475 488.235, 941 488.905 C 938.525 489.575, 935.150 490.621, 933.500 491.230 C 928.316 493.141, 918.698 493.318, 914.533 491.578 C 912.456 490.710, 909.467 490, 907.892 490 C 904.543 490, 899.337 488.821, 885.258 484.872 C 877.946 482.822, 872.767 482, 867.156 482 C 860.608 482, 858.481 481.566, 854.399 479.393 C 851.705 477.959, 846.848 475.406, 843.608 473.718 C 840.367 472.030, 835.906 468.928, 833.695 466.825 C 829.114 462.467, 826.779 462.050, 824.576 465.195 M 988.607 614.582 C 988.273 615.452, 988 618.869, 988 622.175 C 988 627.357, 988.278 628.260, 990.011 628.713 C 991.150 629.011, 992.270 630.380, 992.594 631.869 C 992.909 633.316, 993.340 635.063, 993.552 635.750 C 994.088 637.488, 998.109 637.312, 1000.792 635.433 C 1003.066 633.840, 1006 628.056, 1006 625.166 C 1006 623.005, 998.008 615, 995.851 615 C 994.898 615, 993.840 614.550, 993.500 614 C 992.535 612.439, 989.281 612.826, 988.607 614.582 M 835.308 619.250 C 830.250 624.580, 828.841 628.282, 829.594 634.263 C 830.500 641.465, 832.966 644, 839.064 644 C 843.704 644, 843.815 643.925, 845.995 639.288 C 847.730 635.596, 848.118 633.305, 847.785 628.708 C 847.552 625.481, 846.932 622.539, 846.407 622.171 C 845.883 621.802, 844.666 620.263, 843.704 618.750 C 841.406 615.139, 839.078 615.278, 835.308 619.250" stroke="#fc7143" fill="#fc7143" fill-opacity="0.2" fill-rule="evenodd"/><path class="svg-region-LPl" d="M 777.500 493.928 C 773.650 494.874, 768.025 497.220, 765 499.142 C 759.575 502.588, 750.743 506.999, 749.261 507.001 C 748.842 507.002, 747.150 508.176, 745.500 509.610 C 743.850 511.045, 739.917 513.983, 736.760 516.140 C 733.603 518.296, 730.365 521.326, 729.566 522.873 C 727.547 526.777, 724.001 536.243, 724.001 537.731 C 724 538.407, 725.512 541.332, 727.361 544.231 C 729.209 547.129, 731.074 550.625, 731.505 552 C 734.139 560.409, 738.864 567.801, 746.361 575.237 C 753.251 582.072, 761.808 589, 763.360 589 C 764.196 589, 780.477 599.450, 780.818 600.205 C 780.994 600.593, 783.469 602.573, 786.318 604.605 C 789.168 606.637, 791.860 608.907, 792.300 609.650 C 793.277 611.300, 796 611.442, 796 609.842 C 796 609.206, 794.159 606.298, 791.909 603.382 C 788.465 598.918, 787.732 597.133, 787.275 592.101 C 786.882 587.766, 787.203 584.939, 788.444 581.812 C 790.263 577.227, 794.588 572, 796.565 572 C 797.219 572, 798.366 571.264, 799.113 570.364 C 799.860 569.464, 802.233 567.615, 804.388 566.255 C 807.703 564.162, 809.049 563.881, 813.152 564.426 C 817.730 565.033, 818 564.941, 818 562.771 C 818 561.168, 819.211 559.724, 822 558 C 826.467 555.240, 832 548.191, 832 545.262 C 832 544.211, 829.487 540.010, 826.416 535.926 C 823.345 531.842, 819.913 526.700, 818.791 524.500 C 816.808 520.615, 813.038 516.156, 800.868 503.301 C 796.864 499.071, 795 496.292, 795 494.551 C 795 492.127, 794.739 492.005, 789.750 492.104 C 786.862 492.161, 781.350 492.982, 777.500 493.928" stroke="#d2454f" fill="#d2454f" fill-opacity="0.2" fill-rule="evenodd"/><path class="svg-region-LPr" d="M 1033.880 493.378 C 1023.956 498.746, 1023.872 498.823, 1015.317 510.405 C 1009.260 518.604, 1008 520.962, 1008 524.096 C 1008 526.178, 1008.450 528.160, 1009 528.500 C 1009.550 528.840, 1010 530.351, 1010 531.859 C 1010 533.367, 1010.412 535.028, 1010.915 535.550 C 1011.419 536.073, 1011.981 537.618, 1012.165 538.984 C 1012.363 540.450, 1013.794 542.295, 1015.657 543.484 C 1018.967 545.598, 1022 550.664, 1022 554.079 C 1022 555.831, 1022.446 556.007, 1025.452 555.443 C 1028.059 554.954, 1029.604 555.294, 1031.763 556.831 C 1033.335 557.951, 1035.850 559.175, 1037.350 559.552 C 1041.022 560.473, 1044.635 565.455, 1046.029 571.518 C 1046.659 574.258, 1047.585 577.882, 1048.087 579.571 C 1049.601 584.665, 1049.189 586.068, 1044.507 591.755 C 1040.226 596.955, 1039.620 599, 1042.358 599 C 1043.690 599, 1051.417 592.515, 1059.468 584.641 C 1062.200 581.969, 1066.763 578.294, 1069.608 576.474 C 1072.452 574.655, 1075.076 572.687, 1075.438 572.101 C 1075.800 571.515, 1081.718 566.469, 1088.589 560.888 C 1101.778 550.176, 1105.353 545.933, 1108.721 537 C 1110.560 532.120, 1111.240 528.831, 1113.522 513.753 C 1113.834 511.693, 1115.194 508.814, 1116.545 507.357 C 1120.624 502.956, 1119.458 500.976, 1111.994 499.632 C 1109.360 499.158, 1108.157 498.252, 1107.155 495.988 C 1106.421 494.331, 1104.903 492.483, 1103.781 491.883 C 1102.659 491.283, 1095.262 490.386, 1087.343 489.891 C 1075.241 489.134, 1072.585 489.226, 1070.689 490.468 C 1069.449 491.281, 1065.299 492.218, 1061.467 492.551 C 1055.868 493.038, 1053.341 492.749, 1048.593 491.079 C 1045.345 489.935, 1042.420 489.058, 1042.093 489.128 C 1041.767 489.198, 1038.071 491.111, 1033.880 493.378" stroke="#d2454f" fill="#d2454f" fill-opacity="0.2" fill-rule="evenodd"/><path class="svg-region-DMl" d="M 650 455 C 647.525 455.470, 643.475 456.317, 641 456.883 C 638.525 457.450, 634.761 457.932, 632.636 457.956 C 630.511 457.980, 627.024 458.983, 624.886 460.184 C 620.237 462.797, 619.941 465.054, 623.148 473.434 C 624.838 477.850, 626.017 479.389, 628.683 480.654 C 630.547 481.538, 632.168 482.090, 632.286 481.881 C 632.404 481.671, 633.204 480.150, 634.065 478.500 C 635.521 475.708, 635.967 475.522, 640.485 475.818 C 646.500 476.212, 656.998 480.724, 657.005 482.919 C 657.008 483.788, 658.092 485.850, 659.414 487.500 L 661.818 490.500 673.159 490.434 C 680.377 490.392, 685.362 489.901, 686.872 489.084 C 688.176 488.377, 691.197 487.507, 693.584 487.150 L 697.926 486.500 689.463 477.715 C 684.808 472.884, 681 468.512, 681 468 C 681 466.374, 674.728 459.853, 670.746 457.339 C 666.395 454.593, 657.461 453.585, 650 455" stroke="#68533d" fill="#68533d" fill-opacity="0.2" fill-rule="evenodd"/><path class="svg-region-DMr" d="M 1180.270 434.530 C 1169.905 437.793, 1161.351 444.037, 1152.046 455.132 C 1148.227 459.686, 1148.210 461.540, 1151.970 463.485 C 1153.604 464.329, 1155.392 465.864, 1155.943 466.894 C 1156.737 468.377, 1159.002 469.030, 1166.796 470.023 C 1178.750 471.546, 1182 470.571, 1183.109 465.129 C 1183.487 463.276, 1184.737 460.819, 1185.886 459.670 C 1188.572 456.983, 1196.154 454.632, 1197.115 456.187 C 1198.101 457.781, 1205.754 456.533, 1208.120 454.391 C 1209.730 452.934, 1210.032 451.543, 1209.793 446.701 C 1209.510 440.985, 1209.368 440.711, 1205.500 438.389 C 1195.965 432.664, 1189.389 431.658, 1180.270 434.530" stroke="#68533d" fill="#68533d" fill-opacity="0.2" fill-rule="evenodd"/><path class="svg-region-Ol" d="M 436.035 341.579 C 429.949 342.806, 422.838 344.523, 420.234 345.393 C 417.630 346.264, 411.783 348.156, 407.241 349.598 C 402.699 351.040, 398.735 352.621, 398.432 353.110 C 398.129 353.600, 396.965 354, 395.845 354 C 394.725 354, 392.614 354.629, 391.154 355.397 C 389.694 356.165, 385.350 358.259, 381.500 360.049 C 377.650 361.838, 373.375 364.079, 372 365.028 C 370.625 365.977, 366.575 368.286, 363 370.159 C 344.128 380.047, 322.290 396.179, 318.971 402.685 C 318.182 404.233, 316.082 407.456, 314.304 409.846 C 312.527 412.237, 308.629 418.987, 305.642 424.846 C 300.438 435.053, 288 463.001, 288 464.485 C 288 464.877, 287.368 466.616, 286.597 468.349 C 285.825 470.082, 283.521 476.450, 281.478 482.500 C 279.434 488.550, 276.507 496.875, 274.972 501 C 267.309 521.600, 263.330 540.768, 263.868 554.500 C 264.222 563.546, 266.922 582.322, 268.027 583.427 C 268.562 583.962, 269.015 585.773, 269.033 587.450 C 269.051 589.127, 269.965 592.975, 271.066 596 C 272.166 599.025, 273.769 604.200, 274.627 607.500 C 276.834 615.979, 292.312 647.109, 299.736 658 C 301.423 660.475, 304.243 665.200, 306.003 668.500 C 311.101 678.058, 309.761 675.944, 324.395 697.500 C 330.010 705.770, 344.232 719.972, 355.172 728.233 C 366.371 736.689, 374.354 741.253, 387 746.429 C 390.575 747.892, 394.400 749.489, 395.500 749.977 C 397.317 750.784, 410.798 754.896, 423.500 758.518 C 426.250 759.303, 430.975 760.658, 434 761.531 C 437.025 762.403, 445.125 763.538, 452 764.053 C 462.711 764.855, 466.432 764.700, 478 762.968 C 485.425 761.856, 493.750 760.334, 496.500 759.585 C 499.250 758.835, 503.075 757.943, 505 757.602 C 508.201 757.034, 512.699 755.866, 540.826 748.297 C 545.956 746.917, 552.931 745.396, 556.326 744.918 C 559.722 744.440, 567.225 743.094, 573 741.928 C 578.775 740.761, 585.750 739.448, 588.500 739.010 C 594.767 738.013, 603.369 736.323, 608.200 735.140 C 610.235 734.641, 612.106 734.439, 612.357 734.690 C 612.608 734.942, 614.099 734.483, 615.670 733.670 C 617.241 732.858, 621.301 731.971, 624.692 731.700 C 628.083 731.428, 631.436 730.849, 632.142 730.412 C 632.849 729.975, 635.243 729.284, 637.463 728.876 C 657.615 725.169, 683.856 714.627, 693.090 706.526 C 705.598 695.553, 709.596 691.212, 711.592 686.433 C 712.352 684.615, 714.094 681.476, 715.465 679.457 C 723.973 666.919, 726.135 656.700, 725.503 632 C 725.047 614.155, 724.389 609.286, 720.035 591.500 C 717.932 582.913, 711.883 564.608, 710.352 562.202 C 709.548 560.938, 709.028 559.079, 709.195 558.072 C 709.557 555.900, 695.618 542.500, 694.022 543.486 C 693.460 543.834, 693 543.492, 693 542.727 C 693 540.781, 685.846 538.631, 684.832 540.271 C 684.248 541.217, 683.811 541.211, 682.842 540.242 C 682.159 539.559, 680.903 538.990, 680.050 538.978 C 679.197 538.966, 677.403 538.112, 676.062 537.081 C 674.721 536.051, 673.118 535.401, 672.500 535.638 C 671.169 536.149, 663.415 531.967, 660.284 529.050 C 659.074 527.922, 657.699 527, 657.229 527 C 656.759 527, 655.096 525.666, 653.534 524.036 C 651.972 522.405, 650.425 521.225, 650.097 521.412 C 649.769 521.600, 647.925 519.564, 646 516.888 C 644.075 514.211, 641.993 512.017, 641.372 512.011 C 640.752 512.005, 639.685 511.325, 639 510.500 C 638.315 509.675, 636.573 508.993, 635.128 508.985 C 630.785 508.960, 625.142 506.530, 621.717 503.210 L 618.489 500.082 611.494 501.077 C 598.276 502.958, 589.066 500.360, 583.159 493.086 C 579.822 488.976, 575.813 486.805, 563.500 482.438 C 560.750 481.463, 556.475 478.990, 554 476.943 C 551.525 474.896, 548.547 472.935, 547.382 472.585 C 544.092 471.597, 542.121 468.824, 539.425 461.391 C 538.058 457.623, 536.503 454.103, 535.970 453.570 C 535.436 453.036, 535 451.813, 535 450.852 C 535 449.890, 533.825 447.842, 532.389 446.302 C 528.718 442.362, 528 439.922, 528 431.378 C 528 423.636, 526.383 414.968, 524.735 413.877 C 524.165 413.500, 524.263 412.378, 524.982 411.034 C 525.635 409.813, 525.880 407.657, 525.525 406.242 C 524.759 403.191, 523.657 390.657, 523.811 386.750 C 523.892 384.705, 523.447 384, 522.075 384 C 519.881 384, 517.731 380.945, 515.157 374.171 C 514.119 371.439, 512.775 368.596, 512.170 367.852 C 511.566 367.108, 508.240 362.910, 504.779 358.523 C 498.183 350.159, 489.451 343.884, 482.722 342.672 C 480.950 342.353, 476.800 341.578, 473.500 340.951 C 462.659 338.890, 448.164 339.133, 436.035 341.579" stroke="#aa444d" fill="#aa444d" fill-opacity="0.2" fill-rule="evenodd"/><path class="svg-region-Or" d="M 1353.500 301.183 C 1339.301 305.778, 1321 319.344, 1321 325.274 C 1321 329.491, 1316.558 339.354, 1311.505 346.359 C 1309.175 349.589, 1308 352.333, 1308 354.544 C 1308 356.373, 1307.530 359.106, 1306.956 360.616 C 1306.381 362.127, 1305.517 366.769, 1305.034 370.932 C 1304.227 377.887, 1302.631 386.495, 1300.015 398 C 1299.453 400.475, 1298.533 405.200, 1297.971 408.500 C 1296.577 416.696, 1295.704 418.631, 1286.843 433.180 C 1275.471 451.853, 1274.229 453.562, 1270.607 455.512 C 1267.429 457.224, 1267.184 457.222, 1264.180 455.447 C 1261.213 453.695, 1260.878 453.688, 1257.495 455.301 C 1255.535 456.236, 1253.015 457, 1251.895 457 C 1250.774 457, 1249.126 457.731, 1248.233 458.624 C 1246.735 460.122, 1246.436 460.031, 1244.370 457.439 L 1242.130 454.630 1236.815 458.133 C 1233.892 460.060, 1230.713 461.929, 1229.750 462.287 C 1226.849 463.365, 1227.765 465.740, 1232 468.120 C 1238.949 472.026, 1236.722 473.961, 1225.250 473.986 L 1219 474 1219 477.845 C 1219 482.365, 1216.210 485.550, 1212.989 484.707 C 1211.847 484.409, 1209.694 484.800, 1208.206 485.576 C 1206.718 486.352, 1204.743 486.990, 1203.818 486.994 C 1201.972 487.001, 1196.225 492.805, 1187.661 503.311 C 1182.997 509.032, 1173.300 518, 1171.778 518 C 1170.742 518, 1156.053 526.782, 1152.451 529.555 C 1150.278 531.228, 1147.303 533.346, 1145.839 534.263 C 1144.338 535.203, 1142.655 537.579, 1141.978 539.715 C 1141.318 541.797, 1139.733 545.329, 1138.456 547.564 C 1135.223 553.223, 1134.876 556.683, 1134.304 589 C 1133.782 618.478, 1133.667 616.986, 1137.924 636 C 1139.634 643.638, 1146.136 655.422, 1151.443 660.500 C 1168.115 676.453, 1181.619 687.973, 1183.667 687.990 C 1184.308 687.996, 1184.983 688.367, 1185.167 688.816 C 1185.828 690.436, 1201.938 701, 1203.747 701 C 1204.766 701, 1206.028 701.374, 1206.550 701.832 C 1208.617 703.642, 1218.460 707, 1221.699 707 C 1223.587 707, 1225.956 707.441, 1226.964 707.981 C 1227.972 708.520, 1233.680 709.194, 1239.648 709.479 C 1245.617 709.763, 1252.975 710.445, 1256 710.994 C 1259.025 711.542, 1267.125 712.688, 1274 713.540 C 1280.875 714.391, 1290.213 715.981, 1294.750 717.071 C 1299.288 718.162, 1306.038 719.441, 1309.750 719.912 C 1313.463 720.384, 1318.075 721.453, 1320 722.289 C 1321.925 723.124, 1326.650 724.351, 1330.500 725.014 C 1334.350 725.677, 1338.850 726.884, 1340.500 727.696 C 1344.147 729.492, 1350.545 731.233, 1363.611 733.985 C 1384.660 738.419, 1392.207 739.183, 1414 739.086 C 1430.631 739.012, 1443.573 737.189, 1447 734.437 C 1449.296 732.594, 1456.751 729, 1458.280 729 C 1460.021 729, 1480.571 718.482, 1483.813 715.932 C 1485.164 714.869, 1486.829 714, 1487.514 714 C 1488.198 714, 1493.200 709.706, 1498.629 704.459 C 1504.058 699.211, 1509.625 694.286, 1511 693.515 C 1516.538 690.408, 1553.201 650.232, 1555.129 645.156 C 1555.475 644.245, 1556.849 642.375, 1558.182 641 C 1567.056 631.845, 1585.617 595.033, 1588.939 580 C 1589.365 578.075, 1590.220 574.680, 1590.840 572.455 C 1594.030 561.005, 1594.783 552.976, 1594.637 532 C 1594.487 510.441, 1594.403 509.701, 1589.675 488 C 1587.954 480.102, 1583.187 465.639, 1578.304 453.500 C 1574.699 444.537, 1564.333 423.886, 1561.009 419.044 C 1560.048 417.645, 1557.330 413.575, 1554.969 410 C 1544.317 393.871, 1523.531 370.729, 1508.996 358.815 C 1495.144 347.462, 1491.569 344.752, 1482 338.352 C 1473.101 332.400, 1458.232 324.591, 1434.500 313.404 C 1423.133 308.047, 1411.432 305.284, 1386.181 301.995 C 1369.917 299.877, 1358.420 299.591, 1353.500 301.183" stroke="#aa444d" fill="#aa444d" fill-opacity="0.2" fill-rule="evenodd"/><path class="svg-region-Pl" d="M 534.614 394.916 C 531.491 396.974, 523.281 412.905, 524.815 413.927 C 526.350 414.949, 527.144 419.288, 527.864 430.584 C 528.531 441.065, 528.745 441.890, 531.785 445.728 C 533.553 447.961, 535.004 450.173, 535.009 450.644 C 535.014 451.115, 536.125 453.750, 537.478 456.500 C 538.831 459.250, 539.953 462.175, 539.972 463 C 540.041 465.934, 543.979 470.948, 547.711 472.855 C 549.795 473.920, 553.019 476.120, 554.876 477.744 C 556.733 479.367, 560.558 481.484, 563.376 482.447 C 570.514 484.888, 579.375 489.005, 580.142 490.237 C 580.556 490.902, 582.152 490.600, 584.642 489.384 C 587.967 487.760, 588.569 486.948, 589 483.504 C 589.431 480.057, 590.050 479.223, 593.500 477.442 C 599.368 474.412, 599.252 472.023, 592.957 466.235 L 587.776 461.470 587.257 451.985 C 586.742 442.562, 586.715 442.480, 583.142 439.500 C 581.163 437.850, 577.960 434.888, 576.022 432.919 C 571.708 428.533, 565.215 423.511, 561.913 422.006 C 558.477 420.441, 554.052 411.450, 552.988 403.872 C 552.291 398.910, 551.517 397.002, 549.491 395.250 C 546.129 392.343, 538.767 392.178, 534.614 394.916" stroke="#f9d3d3" fill="#f9d3d3" fill-opacity="0.2" fill-rule="evenodd"/><path class="svg-region-Pr" d="M 1298.500 373.251 C 1297.398 373.907, 1290.889 374.679, 1284 374.971 L 1271.500 375.500 1270.966 380 C 1270.672 382.475, 1268.670 387.875, 1266.519 392 C 1264.367 396.125, 1261.605 401.527, 1260.382 404.003 C 1259.159 406.480, 1256.788 409.520, 1255.113 410.758 C 1253.438 411.996, 1250.232 415.713, 1247.989 419.017 C 1245.745 422.321, 1242.580 426.384, 1240.955 428.046 C 1239.330 429.709, 1238 431.931, 1238 432.985 C 1238 434.038, 1237.222 435.336, 1236.271 435.868 C 1234.632 436.786, 1234.632 436.936, 1236.271 438.747 C 1237.222 439.798, 1238 441.423, 1238 442.359 C 1238 444.704, 1242.850 456.107, 1244.762 458.258 C 1246.177 459.850, 1246.544 459.874, 1248.627 458.508 C 1249.894 457.679, 1251.958 456.986, 1253.215 456.968 C 1254.472 456.951, 1256.374 456.276, 1257.441 455.468 C 1259.584 453.848, 1263 453.493, 1263 454.892 C 1263 455.382, 1264.157 456.074, 1265.572 456.429 C 1271.356 457.880, 1274.592 453.924, 1293.803 421.922 C 1294.984 419.954, 1297.127 412.754, 1298.564 405.922 C 1300.001 399.090, 1301.617 391.475, 1302.156 389 C 1302.694 386.525, 1303.302 383.375, 1303.506 382 C 1303.709 380.625, 1304.191 378.215, 1304.575 376.644 C 1305.594 372.480, 1302.603 370.809, 1298.500 373.251" stroke="#f9d3d3" fill="#f9d3d3" fill-opacity="0.2" fill-rule="evenodd"/><path class="svg-region-DLl" d="M 609.219 364.750 C 607.981 367.763, 608.386 381.787, 609.750 383.150 C 610.438 383.838, 611 385.593, 611 387.052 C 611 388.511, 612.107 391.233, 613.460 393.102 C 614.813 394.971, 616.812 398.119, 617.902 400.097 C 618.993 402.076, 621.338 404.398, 623.113 405.258 C 626.013 406.662, 626.580 406.666, 628.671 405.296 C 629.952 404.457, 631 403.430, 631 403.014 C 631 402.598, 633.226 399.960, 635.947 397.152 C 642.523 390.364, 644.494 383.721, 641.569 378.200 C 639.425 374.154, 634.312 370.728, 626.500 368.104 C 622.650 366.812, 618.612 365.134, 617.527 364.377 C 614.718 362.416, 610.092 362.623, 609.219 364.750" stroke="#b7d6d3" fill="#b7d6d3" fill-opacity="0.2" fill-rule="evenodd"/><path class="svg-region-DLr" d="M 1196.872 361.938 C 1196.308 363.554, 1194.982 366.574, 1193.924 368.650 C 1191.159 374.072, 1191.427 377.456, 1194.811 379.865 C 1196.357 380.966, 1198.814 382.166, 1200.270 382.532 C 1201.726 382.897, 1203.442 383.827, 1204.081 384.598 C 1205.685 386.530, 1214.375 386.458, 1216 384.500 C 1216.685 383.675, 1217.871 383, 1218.637 383 C 1220.554 383, 1223.992 377.091, 1223.996 373.789 C 1223.998 372.299, 1223.438 370.605, 1222.750 370.025 C 1216.964 365.149, 1204.499 359.068, 1200.198 359.024 C 1198.540 359.007, 1197.610 359.821, 1196.872 361.938" stroke="#b7d6d3" fill="#b7d6d3" fill-opacity="0.2" fill-rule="evenodd"/><path class="svg-region-OLl" d="M 596.640 366.379 C 594.518 368.197, 590.623 370.460, 587.985 371.408 C 580.154 374.224, 566.006 389.609, 565.992 395.324 C 565.988 397.071, 565.092 401.425, 564 405 C 562.908 408.575, 562.012 413.786, 562.008 416.580 C 562 421.501, 562.150 421.768, 566.750 425.058 C 569.362 426.926, 574.648 431.503, 578.496 435.227 C 582.343 438.952, 585.831 442, 586.246 442 C 586.661 442, 587 443.745, 587 445.878 C 587 451.342, 588.847 452.500, 597.563 452.500 C 604.030 452.500, 605.292 452.169, 609.160 449.458 C 615.448 445.052, 616.894 441.408, 616.952 429.835 L 617 420.170 621.750 415.997 C 625.998 412.266, 628.864 408.642, 628.965 406.875 C 628.984 406.531, 627.945 406.250, 626.656 406.250 C 624.211 406.250, 619 403.347, 619 401.985 C 619 401.554, 617.396 398.818, 615.436 395.905 C 613.476 392.992, 611.612 389.234, 611.295 387.554 C 610.978 385.874, 610.219 383.867, 609.609 383.093 C 608.967 382.279, 608.521 377.750, 608.550 372.343 L 608.599 363 604.550 363.038 C 601.445 363.066, 599.599 363.846, 596.640 366.379" stroke="#c4875d" fill="#c4875d" fill-opacity="0.2" fill-rule="evenodd"/><path class="svg-region-OLr" d="M 1215 351.317 C 1209.166 354.363, 1203 358.238, 1203 358.860 C 1203 359.229, 1205.180 360.305, 1207.845 361.251 C 1210.510 362.198, 1214.397 364.328, 1216.482 365.986 C 1218.568 367.644, 1220.880 369, 1221.618 369 C 1223.608 369, 1224.353 373.401, 1223.038 377.385 C 1220.905 383.847, 1208.518 388.554, 1204.079 384.590 C 1203.210 383.815, 1201.600 383.027, 1200.500 382.840 C 1198.694 382.533, 1198.514 383.016, 1198.643 387.822 C 1198.745 391.605, 1199.364 393.773, 1200.785 395.322 C 1204.490 399.358, 1212.777 414.467, 1213.476 418.462 C 1214.144 422.277, 1219.674 429, 1222.143 429 C 1222.693 429, 1223.860 429.718, 1224.737 430.594 C 1226.001 431.858, 1227.491 432.049, 1231.916 431.514 C 1239.045 430.652, 1240.975 429.359, 1245.669 422.296 C 1247.776 419.126, 1251.525 414.513, 1254 412.045 C 1256.475 409.577, 1259.887 404.845, 1261.582 401.529 C 1264.502 395.816, 1264.589 395.317, 1263.244 392 C 1262.463 390.075, 1260.865 387.466, 1259.693 386.202 C 1258.521 384.939, 1257.506 382.464, 1257.438 380.702 C 1257.356 378.564, 1256.218 376.337, 1254.013 374 C 1249.791 369.525, 1243.775 361.403, 1241.678 357.347 C 1238.923 352.015, 1234.447 349.999, 1225.382 350.006 C 1220.855 350.010, 1216.436 350.568, 1215 351.317" stroke="#c4875d" fill="#c4875d" fill-opacity="0.2" fill-rule="evenodd"/><path class="svg-region-VOC" d="M 897 386.132 C 888.475 387.143, 875.650 388.460, 868.500 389.059 C 852.259 390.418, 824.471 393.926, 795.777 398.239 C 788.290 399.364, 787.978 399.328, 785.582 397.077 C 782.197 393.897, 778.626 394.825, 777.368 399.211 C 776.409 402.557, 774.967 403.612, 766.750 406.981 C 762.844 408.583, 762 409.380, 762 411.464 C 762 413.075, 762.559 414, 763.531 414 C 764.374 414, 765.329 414.694, 765.655 415.543 C 766.425 417.549, 773.220 421, 776.401 421 C 777.766 421, 779.179 421.480, 779.541 422.067 C 780.313 423.316, 777.215 425.922, 774.904 425.968 C 772.754 426.011, 767.501 428.692, 765.983 430.521 C 765.308 431.334, 763.685 432, 762.378 432 C 759.480 432, 759.200 434.502, 761.934 435.965 C 762.998 436.534, 767.477 437, 771.887 437 C 776.297 437, 781.052 437.522, 782.452 438.160 C 784.431 439.062, 786.278 439.008, 790.749 437.919 C 793.912 437.149, 799.732 436.514, 803.682 436.509 C 810.159 436.501, 811.145 436.770, 813.736 439.250 C 817.107 442.476, 818.863 442.668, 822.115 440.164 C 824.828 438.075, 834.141 436.180, 848 434.895 C 865.027 433.317, 868.380 432.584, 877.900 428.354 C 881.706 426.663, 887.344 425.413, 895.500 424.451 C 902.100 423.672, 909.656 422.632, 912.291 422.139 C 915.579 421.524, 919.502 421.664, 924.791 422.583 C 929.031 423.321, 935.650 424.218, 939.500 424.577 C 943.350 424.936, 950.775 426.184, 956 427.350 C 967.118 429.832, 976.746 429.942, 986.505 427.698 C 990.357 426.812, 997.107 425.798, 1001.505 425.443 C 1008.516 424.877, 1010.445 425.118, 1017.176 427.399 C 1026.509 430.561, 1033.858 430.734, 1042.892 428.002 C 1051.220 425.484, 1051.208 425.493, 1053.617 419.529 C 1055.321 415.311, 1056.523 414.033, 1061.550 411.095 L 1067.475 407.634 1063.487 405.843 C 1061.294 404.858, 1058.713 404.041, 1057.750 404.026 C 1056.787 404.012, 1056 403.603, 1056 403.117 C 1056 402.631, 1052.513 401.458, 1048.250 400.509 C 1043.987 399.561, 1037.800 397.944, 1034.500 396.916 C 1031.200 395.888, 1025.575 394.366, 1022 393.534 C 1018.425 392.702, 1012.575 391.114, 1009 390.005 C 1001.190 387.582, 987.155 386.339, 952.500 385.003 C 920.325 383.763, 916.286 383.845, 897 386.132" stroke="#ff8f93" fill="#ff8f93" fill-opacity="0.2" fill-rule="evenodd"/><path class="svg-region-SOTl" d="M 864.500 357.666 C 861.750 358.445, 856.228 359.355, 852.229 359.687 C 848.230 360.020, 845.120 360.454, 845.318 360.651 C 845.917 361.250, 866.754 363.996, 879 365.089 C 888.677 365.954, 891.887 365.850, 899.250 364.434 L 908 362.752 908 359.263 L 908 355.773 897.750 356.363 C 892.112 356.687, 884.427 357.243, 880.671 357.598 C 876.143 358.026, 873.465 357.865, 872.721 357.121 C 871.396 355.796, 871.005 355.822, 864.500 357.666" stroke="#995b45" fill="#995b45" fill-opacity="0.2" fill-rule="evenodd"/><path class="svg-region-SOTr" d="M 914.250 355.679 L 908 356.095 908 359.579 C 908 361.876, 908.555 363.276, 909.629 363.688 C 912.195 364.672, 946.829 362.076, 950.341 360.636 L 953.500 359.341 946 357.578 C 938.214 355.749, 925.039 354.961, 914.250 355.679" stroke="#995b45" fill="#995b45" fill-opacity="0.2" fill-rule="evenodd"/><path class="svg-region-BPCl" d="M 804.500 565.910 C 801.155 568.157, 798.486 570.192, 793.595 574.226 C 786.255 580.281, 784.751 594.413, 790.668 601.735 C 793.650 605.425, 793.863 605.506, 801.314 605.791 C 807.528 606.029, 809.702 605.685, 813.209 603.906 C 822.176 599.357, 826.863 590.796, 826.956 578.797 C 826.995 573.785, 826.689 572.876, 824.438 571.297 C 823.028 570.309, 820.532 568.430, 818.891 567.122 C 814.762 563.831, 808.392 563.295, 804.500 565.910" stroke="#83385f" fill="#83385f" fill-opacity="0.2" fill-rule="evenodd"/><path class="svg-region-BPCr" d="M 1024.216 555.673 C 1023.510 555.957, 1019.798 559.238, 1015.966 562.965 C 1008.235 570.484, 1007.972 571.342, 1010.432 581 C 1013.476 592.945, 1014.971 597.400, 1016.428 598.856 C 1017.312 599.740, 1020.945 600.697, 1025.106 601.142 C 1034.278 602.122, 1038.083 600.339, 1044.430 592.092 C 1048.996 586.158, 1049.961 582.731, 1048.051 579.236 C 1047.529 578.281, 1046.832 575.400, 1046.502 572.833 C 1045.764 567.093, 1041.265 560.534, 1037.399 559.564 C 1035.872 559.181, 1033.400 557.997, 1031.907 556.934 C 1029.250 555.042, 1026.791 554.639, 1024.216 555.673" stroke="#83385f" fill="#83385f" fill-opacity="0.2" fill-rule="evenodd"/><path class="svg-region-ODMl" d="M 634.623 477.127 C 633.730 478.402, 633 480.020, 633 480.723 C 633 482.250, 632.450 482.311, 630.087 481.047 C 628.923 480.424, 627.017 480.489, 624.585 481.235 C 620.128 482.603, 617 488.067, 617 494.485 C 617 497.955, 617.616 499.196, 620.962 502.463 C 624.936 506.343, 630.488 508.957, 634.817 508.985 C 636.091 508.993, 638.608 510.125, 640.411 511.500 C 642.214 512.875, 644.239 514, 644.911 514 C 645.583 514, 647.608 515.125, 649.411 516.500 C 651.214 517.875, 653.337 519, 654.129 519 C 654.921 519, 656.366 520.350, 657.341 522 C 658.541 524.031, 659.902 525, 661.557 525 C 662.900 525, 664 525.450, 664 526 C 664 526.550, 665.462 527.003, 667.250 527.006 C 669.038 527.010, 671.789 527.685, 673.364 528.506 C 674.940 529.328, 677.076 530, 678.112 530 C 679.148 530, 682.134 531.521, 684.748 533.380 C 687.361 535.239, 691.525 537.762, 694 538.985 C 696.475 540.208, 700.311 542.956, 702.523 545.090 L 706.547 548.972 708.413 546.486 C 709.440 545.119, 710.858 544, 711.563 544 C 712.269 544, 714.184 542.875, 715.818 541.500 C 717.452 540.125, 719.863 539, 721.176 539 C 723.129 539, 723.797 538.210, 724.844 534.661 C 725.549 532.275, 727.229 527.941, 728.577 525.031 C 731.433 518.866, 730.706 517, 725.446 517 C 722.770 517, 721.214 516.031, 717.318 511.935 C 712.875 507.264, 709.811 502.967, 706.846 497.250 C 706.204 496.012, 705.301 495, 704.839 495 C 704.378 495, 704 494.378, 704 493.619 C 704 491.598, 697.534 487, 694.692 487 C 693.350 487, 690.282 487.744, 687.876 488.652 C 684.872 489.787, 680.101 490.335, 672.656 490.402 L 661.812 490.500 659.411 487.500 C 658.090 485.850, 657.008 483.788, 657.005 482.919 C 656.999 480.948, 647.217 476.455, 640.858 475.501 C 636.756 474.886, 636.067 475.066, 634.623 477.127" stroke="#999999" fill="#999999" fill-opacity="0.2" fill-rule="evenodd"/><path class="svg-region-ODMr" d="M 1211.250 440.662 C 1210.448 440.986, 1210 443.281, 1210 447.060 C 1210 452.108, 1209.670 453.170, 1207.698 454.462 C 1204.531 456.537, 1199.265 457.464, 1197.752 456.213 C 1195.988 454.754, 1187.098 457.145, 1185.338 459.552 C 1184.580 460.589, 1183.515 463.086, 1182.973 465.101 C 1181.498 470.579, 1178.418 471.506, 1166.912 469.934 C 1160.185 469.015, 1157.271 468.164, 1156.101 466.780 C 1155.221 465.737, 1153.008 463.955, 1151.183 462.819 L 1147.867 460.755 1144.683 464.264 C 1142.933 466.195, 1139.529 469.962, 1137.121 472.637 C 1132.795 477.441, 1125 491.849, 1125 495.041 C 1125 495.946, 1123.181 499.396, 1120.959 502.706 C 1117.301 508.153, 1117.031 508.975, 1118.119 511.362 C 1118.780 512.813, 1119.886 514, 1120.576 514 C 1121.267 514, 1123.258 515.800, 1125 518 C 1127.789 521.521, 1128.666 522, 1132.334 521.996 C 1134.625 521.994, 1137.850 521.200, 1139.500 520.231 C 1142.435 518.508, 1144.888 517.616, 1154 514.957 C 1156.475 514.235, 1159.175 513.126, 1160 512.492 C 1165.771 508.055, 1180.201 501.103, 1183.770 501.040 C 1186.922 500.984, 1192.702 497.107, 1197.805 491.625 C 1200.173 489.081, 1202.873 486.997, 1203.805 486.994 C 1204.737 486.990, 1206.687 486.368, 1208.138 485.611 C 1209.589 484.854, 1212.022 484.473, 1213.545 484.764 C 1217.080 485.440, 1219 482.992, 1219 477.809 L 1219 474 1225.250 473.986 C 1236.422 473.962, 1239.028 471.945, 1232.457 468.407 C 1230.508 467.358, 1228.659 465.488, 1228.348 464.250 C 1228.022 462.951, 1227.016 462, 1225.969 462 C 1224.774 462, 1223.751 460.775, 1222.969 458.405 C 1220.633 451.327, 1214.917 440.001, 1213.720 440.079 C 1213.049 440.122, 1211.938 440.385, 1211.250 440.662" stroke="#999999" fill="#999999" fill-opacity="0.2" fill-rule="evenodd"/>
    </svg>