<svg xmlns="http://www.w3.org/2000/svg" width="1921" height="1027" viewBox="0 0 1921 1027" version="1.1">
    <path class="svg-region-V" d="M 788.670 163.663 C 788.306 164.028, 784.743 164.672, 780.754 165.096 C 771.233 166.106, 762.787 167.719, 758.202 169.402 C 737.297 177.077, 738.641 176.468, 726 184.002 C 722.425 186.133, 717.820 188.810, 715.766 189.950 C 701.645 197.793, 684 211.454, 684 214.543 C 684 215.281, 681.517 218.028, 678.483 220.648 C 675.448 223.268, 669.937 229.031, 666.236 233.456 C 662.534 237.880, 658.927 242.109, 658.220 242.854 C 657.513 243.599, 655.987 246.074, 654.830 248.354 C 653.672 250.634, 651.918 253.533, 650.933 254.796 C 648.688 257.670, 643 272.419, 643 275.363 C 643 276.569, 642.286 278.574, 641.414 279.820 C 640.115 281.673, 639.952 283.665, 640.516 290.792 C 641.249 300.081, 641.856 301.575, 647.127 307.071 C 648.982 309.006, 652.394 312.645, 654.709 315.157 C 657.024 317.670, 661.524 320.990, 664.709 322.535 C 667.894 324.080, 672.300 326.483, 674.500 327.874 C 676.700 329.265, 680.750 330.712, 683.500 331.088 C 689.958 331.971, 699.302 333.807, 705 335.312 C 712.375 337.259, 722.727 336.723, 728.714 334.084 C 735.538 331.075, 742.120 323.969, 744.856 316.655 C 746.812 311.429, 746.872 310.654, 745.531 308.060 C 744.721 306.493, 743.759 303.344, 743.394 301.063 C 742.856 297.698, 743.113 296.499, 744.752 294.708 C 745.864 293.493, 748.224 289.902, 749.995 286.727 C 753.657 280.165, 755.279 279, 760.753 279 C 762.889 279, 767.081 278.267, 770.068 277.372 C 774.338 276.093, 780.634 275.705, 799.500 275.560 C 812.700 275.458, 824.400 275.794, 825.500 276.307 C 826.600 276.820, 828.850 278.510, 830.500 280.063 C 832.260 281.719, 835.567 283.359, 838.500 284.030 C 847.834 286.166, 850.495 287.225, 853.500 290.003 C 858.340 294.477, 862.859 296.385, 865.627 295.124 C 868.339 293.888, 870.448 294.475, 874.103 297.482 C 877.089 299.938, 889.290 302.574, 893.635 301.702 C 897.686 300.888, 934.265 302.988, 935.628 304.112 C 936.329 304.690, 937.777 304.655, 939.445 304.021 C 940.923 303.459, 945.212 302.357, 948.975 301.572 C 955.980 300.112, 960.617 298.164, 964.013 295.257 C 965.376 294.089, 967.953 293.597, 972.920 293.553 C 977.086 293.516, 980.412 292.988, 981.154 292.246 C 981.883 291.517, 984.997 291, 988.663 291 C 992.568 291, 996.836 290.247, 1000 289 C 1002.791 287.900, 1006.526 287, 1008.301 287 C 1010.076 287, 1013.991 287.900, 1017 289 C 1020.009 290.100, 1023.914 291, 1025.677 291 C 1027.440 291, 1029.160 291.450, 1029.500 292 C 1029.840 292.550, 1033.589 293, 1037.831 293 C 1044.939 293, 1045.832 293.237, 1049.212 296.023 C 1051.229 297.686, 1054.350 301.624, 1056.148 304.773 C 1057.945 307.923, 1060.855 311.863, 1062.613 313.529 C 1064.963 315.754, 1066 317.816, 1066.522 321.298 C 1067.359 326.879, 1069.511 328.923, 1077.833 332.042 C 1082.653 333.848, 1084.920 334.087, 1093 333.641 C 1108.148 332.804, 1124.971 331.107, 1131.917 329.715 L 1138.333 328.428 1140.170 323.024 C 1141.181 320.052, 1143.706 315.568, 1145.783 313.060 C 1152.825 304.555, 1152.962 304.147, 1153.623 289.775 C 1154.218 276.833, 1154.158 276.284, 1151.231 267.919 C 1147.964 258.585, 1146.603 255.815, 1143.404 252 C 1142.251 250.625, 1138.450 244.550, 1134.957 238.500 C 1128.125 226.665, 1118.624 216.267, 1107.548 208.500 C 1104.410 206.300, 1099.162 202.475, 1095.885 200 C 1083.423 190.589, 1076.533 186.608, 1066.500 183.024 C 1038.050 172.861, 1033.936 171.982, 1015.162 172.048 C 997.925 172.110, 983.738 173.975, 978.720 176.841 C 976.640 178.029, 973.940 179, 972.720 179.001 C 971.499 179.001, 968.133 179.901, 965.239 181.001 C 962.346 182.100, 958.734 183, 957.212 183 C 955.690 183, 953.482 183.674, 952.306 184.498 C 950.868 185.506, 947.435 186.040, 941.833 186.128 C 937.250 186.201, 932.883 186.752, 932.129 187.353 C 928.392 190.332, 902.812 187.057, 893.927 182.462 C 892.372 181.658, 890.590 181, 889.967 181 C 888.332 181, 868.632 172.583, 861.834 168.980 C 859.818 167.912, 855.543 166.757, 852.334 166.415 C 849.125 166.073, 844.281 165.164, 841.568 164.396 C 837.977 163.380, 830.208 163, 812.985 163 C 799.977 163, 789.035 163.298, 788.670 163.663" stroke="#dd8a8a" fill="#dd8a8a" fill-opacity="0.2" fill-rule="evenodd"/><path class="svg-region-SV" d="M 794.500 275.131 C 791.200 275.489, 785.350 275.837, 781.500 275.902 C 777.650 275.968, 772.291 276.692, 769.591 277.511 C 766.891 278.330, 762.779 279, 760.452 279 C 755.333 279, 753.063 280.752, 749.436 287.500 C 747.957 290.250, 745.844 293.493, 744.739 294.708 C 743.114 296.494, 742.857 297.707, 743.394 301.063 C 743.759 303.344, 744.721 306.493, 745.531 308.060 C 746.869 310.648, 746.813 311.424, 744.925 316.471 C 742.565 322.779, 739.295 327.049, 733.749 331.067 L 729.926 333.836 735.367 335.418 C 738.359 336.288, 741.948 337, 743.341 337 C 746.721 337, 760.618 340.381, 765 342.269 C 774.663 346.433, 782.363 349.004, 785.270 349.036 C 789.661 349.084, 798.474 351.327, 804.333 353.888 C 806.991 355.050, 810.728 356, 812.638 356 C 814.547 356, 818.223 357.004, 820.805 358.231 C 825.094 360.269, 827.278 360.493, 846.045 360.816 C 863.404 361.114, 867.514 360.898, 872.545 359.418 C 881.650 356.741, 885.623 357.080, 891.907 361.068 C 897.030 364.319, 897.861 364.518, 907.702 364.842 C 916.855 365.144, 919.064 364.863, 926.294 362.480 C 930.807 360.993, 934.950 359.437, 935.500 359.021 C 939.393 356.082, 958.453 351.962, 979.500 349.512 C 986.100 348.743, 998.925 347.191, 1008 346.062 C 1017.075 344.933, 1028.816 344.007, 1034.091 344.005 C 1039.707 344.002, 1045.717 343.383, 1048.591 342.511 C 1055.519 340.409, 1060.137 340.637, 1066.220 343.383 C 1069.124 344.693, 1072.625 346.071, 1074 346.446 C 1075.375 346.820, 1077.400 347.510, 1078.500 347.979 C 1084.809 350.672, 1106.072 352.311, 1107.374 350.205 C 1108.436 348.486, 1120.837 342.979, 1125.737 342.050 C 1135.009 340.291, 1136.930 337.724, 1132.852 332.539 C 1131.034 330.228, 1130.229 329.916, 1127.602 330.508 C 1124.359 331.239, 1107.356 332.793, 1093.258 333.647 C 1079.052 334.508, 1068.288 329.972, 1066.782 322.489 C 1065.560 316.421, 1064.028 313.248, 1061.530 311.612 C 1060.283 310.795, 1057.557 307.211, 1055.473 303.647 C 1053.388 300.084, 1050.629 296.604, 1049.341 295.915 C 1048.054 295.226, 1047 294.288, 1047 293.831 C 1047 293.374, 1043.769 293, 1039.821 293 C 1035.873 293, 1031.260 292.590, 1029.571 292.090 C 1011.828 286.830, 1006.865 286.294, 1000.206 288.919 C 996.845 290.243, 992.650 291, 988.663 291 C 984.997 291, 981.883 291.517, 981.154 292.246 C 980.418 292.982, 977.126 293.516, 973.106 293.551 C 967.205 293.603, 965.673 294.028, 961.556 296.755 C 958.945 298.484, 954.265 300.420, 951.155 301.056 C 948.045 301.692, 943.517 302.837, 941.094 303.599 C 938.460 304.428, 936.247 304.627, 935.594 304.096 C 934.354 303.088, 917.312 301.900, 897.715 301.456 C 882.668 301.115, 876.841 300.101, 873.697 297.274 C 870.669 294.551, 868.194 293.826, 865.978 295.012 C 863.600 296.285, 858.012 293.867, 852.775 289.300 C 850.727 287.513, 848.027 285.853, 846.775 285.611 C 834.781 283.292, 833.103 282.738, 830.885 280.364 C 826.891 276.087, 824.082 275.145, 816.986 275.700 C 813.419 275.979, 808.250 275.819, 805.500 275.343 C 802.750 274.868, 797.800 274.772, 794.500 275.131" stroke="#c666b5" fill="#c666b5" fill-opacity="0.2" fill-rule="evenodd"/><path class="svg-region-DB" d="M 1153.500 316.922 C 1147.373 317.707, 1140.517 322.077, 1139.119 326.089 C 1138.303 328.429, 1137.517 329, 1135.111 329 C 1131.176 329, 1130.587 330.205, 1133.014 333.290 C 1134.106 334.679, 1135 336.481, 1135 337.294 C 1135 339.157, 1129.132 342, 1125.286 342 C 1123.684 342, 1118.352 344.064, 1113.437 346.586 L 1104.500 351.172 1095 350.720 C 1085.432 350.266, 1074.934 347.540, 1065.284 343.004 C 1060.211 340.619, 1055.089 340.463, 1048.409 342.489 C 1045.511 343.368, 1039.404 343.991, 1033.500 344.009 C 1028 344.026, 1016.075 344.959, 1007 346.084 C 997.925 347.208, 985.325 348.747, 979 349.504 C 958.295 351.982, 944.705 354.822, 936.789 358.324 C 925.533 363.304, 918.750 365, 910.092 365 C 900.668 365, 896.691 364.035, 890.721 360.302 C 885.006 356.727, 881.857 356.474, 874.113 358.964 C 867.725 361.018, 865.718 361.152, 846.363 360.820 C 827.271 360.493, 825.101 360.273, 820.805 358.231 C 818.223 357.004, 814.699 356, 812.975 356 C 811.252 356, 807.064 354.909, 803.671 353.575 C 795.377 350.316, 790.254 349.012, 785.718 349.006 C 783.638 349.003, 780.263 348.271, 778.218 347.380 C 766.164 342.127, 749.188 337.035, 743.654 337.012 C 742.089 337.005, 738.401 336.300, 735.459 335.445 C 730.620 334.038, 729.610 334.038, 724.873 335.445 C 718.372 337.376, 714.531 337.399, 706.664 335.556 C 692.659 332.274, 688.715 331.770, 671.847 331.103 C 653.492 330.377, 651 329.749, 651 325.845 C 651 323.026, 646.988 321.810, 644.500 323.875 C 639.998 327.614, 635.972 330, 634.167 330 C 629.828 330, 616.653 341.261, 610.147 350.532 C 607.233 354.684, 606.874 355.845, 607.409 359.405 C 608.226 364.838, 609.906 372.329, 611.717 378.619 L 613.192 383.739 617.080 382.752 C 620.677 381.839, 621.234 381.998, 624.519 384.882 C 626.472 386.597, 628.864 388, 629.835 388 C 634.406 388, 635.140 392.231, 631.500 397.595 C 629.704 400.241, 629 402.613, 629 406.012 C 629 408.616, 628.150 412.715, 627.111 415.123 C 626.072 417.530, 624.908 423.311, 624.523 427.970 C 623.726 437.624, 622.189 441.334, 618.110 443.443 C 611.110 447.063, 613.147 463.819, 621.368 470.252 C 623.641 472.030, 625.651 473.829, 625.835 474.249 C 626.534 475.839, 628 473.771, 628.004 471.191 C 628.008 467.807, 631.174 462.524, 634.196 460.857 C 635.463 460.158, 638.975 459.278, 642 458.903 C 645.025 458.527, 649.750 457.902, 652.500 457.512 C 656.853 456.896, 658.368 457.208, 664.203 459.921 C 667.889 461.635, 671.190 463.498, 671.537 464.059 C 672.500 465.618, 685.776 474.303, 689.818 476.019 C 691.093 476.560, 693.568 478.076, 695.318 479.387 C 697.068 480.699, 700.348 482.699, 702.606 483.832 L 706.711 485.893 709.943 482.559 C 711.720 480.726, 714.935 478.431, 717.087 477.461 C 720.788 475.792, 721 475.455, 721 471.242 C 721 467.951, 720.348 466.014, 718.500 463.818 C 716.944 461.969, 716.017 459.648, 716.044 457.673 C 716.096 453.922, 718.053 446.399, 719.778 443.316 C 720.450 442.114, 721 440.527, 721 439.788 C 721 438.152, 722.804 436.564, 730.365 431.546 C 733.566 429.421, 736.416 427.079, 736.699 426.342 C 736.982 425.604, 737.608 425, 738.090 425 C 738.571 425, 740.211 423.875, 741.733 422.501 C 754.356 411.100, 755.974 410.237, 769 407.960 C 772.575 407.335, 777.127 406.414, 779.116 405.912 C 781.105 405.410, 783.544 405, 784.537 405 C 785.530 405, 787.053 404.399, 787.921 403.665 C 790.472 401.508, 799.449 400.037, 816 399.062 C 831.304 398.161, 831.658 398.087, 844 393.205 C 861.982 386.091, 865.896 384.821, 871.500 384.278 C 874.250 384.012, 876.950 383.448, 877.500 383.025 C 878.050 382.602, 881.875 381.946, 886 381.566 C 890.125 381.187, 896.200 380.180, 899.500 379.328 C 906.404 377.547, 922.700 378.127, 934.315 380.568 C 938.064 381.356, 942.907 382, 945.079 382 C 947.250 382, 949.809 382.390, 950.764 382.866 C 957.505 386.228, 960.952 386.578, 1000.102 387.880 C 1002.163 387.949, 1005.158 389.043, 1007.102 390.436 C 1016.243 396.990, 1020.676 399, 1025.986 399 C 1029.526 399, 1032.492 399.711, 1035.122 401.189 L 1039.017 403.378 1041.758 401.184 C 1048.801 395.547, 1048.350 395.661, 1065.351 395.197 C 1080.764 394.775, 1081.842 394.874, 1088.995 397.363 C 1093.117 398.797, 1096.642 400.427, 1096.828 400.985 C 1097.014 401.543, 1097.804 402, 1098.583 402 C 1099.362 402, 1100 402.675, 1100 403.500 C 1100 404.325, 1100.450 405, 1101 405 C 1101.550 405, 1102 406.151, 1102 407.557 C 1102 411.308, 1104.096 419, 1105.119 419 C 1105.603 419, 1106 419.494, 1106 420.099 C 1106 421.294, 1109.053 428.184, 1109.948 429.008 C 1111.328 430.280, 1116 440.194, 1116 441.852 C 1116 442.869, 1117.061 445.698, 1118.358 448.138 C 1119.723 450.705, 1120.920 455.019, 1121.198 458.379 C 1121.463 461.572, 1122.089 464.480, 1122.590 464.842 C 1123.903 465.791, 1128 473.934, 1128 475.595 C 1128 476.368, 1128.450 477, 1129 477 C 1129.550 477, 1130 478.594, 1130 480.542 L 1130 484.085 1135.462 480.292 C 1139.621 477.405, 1140.933 475.890, 1140.962 473.946 C 1141.012 470.601, 1145.415 463.758, 1151.606 457.403 C 1156.405 452.477, 1165.112 447.512, 1173 445.202 C 1174.925 444.638, 1178.750 443.460, 1181.500 442.584 C 1187.841 440.563, 1201.098 440.482, 1204.886 442.441 C 1206.419 443.234, 1208.894 445.484, 1210.387 447.441 C 1212.837 450.653, 1216 452.217, 1216 450.216 C 1216 449.784, 1217.350 448.634, 1219 447.659 C 1221.366 446.261, 1222 445.192, 1222 442.597 C 1222 440.788, 1222.739 437.826, 1223.642 436.015 C 1225.982 431.326, 1224.563 425.974, 1220.500 424.162 C 1217.002 422.601, 1212.159 413.436, 1209.318 403 C 1208.345 399.425, 1205.584 393.024, 1203.183 388.777 C 1196.387 376.755, 1196.452 370.326, 1203.392 368.036 C 1206.405 367.041, 1206.788 366.521, 1206.704 363.544 C 1206.590 359.521, 1208.095 357.503, 1213.115 354.941 C 1218.047 352.425, 1218.332 351.810, 1217.530 345.395 C 1217.059 341.622, 1216.137 339.256, 1214.540 337.720 C 1213.269 336.499, 1211.086 333.700, 1209.687 331.500 C 1203.361 321.548, 1203.460 321.605, 1191.426 321.159 C 1184.023 320.885, 1180.181 320.324, 1179.237 319.379 C 1177.287 317.429, 1163.422 317.531, 1159.601 319.524 C 1158.007 320.355, 1156.486 320.820, 1156.222 320.555 C 1155.958 320.291, 1156.925 319.536, 1158.371 318.877 C 1161.081 317.642, 1161.963 315.891, 1159.750 316.141 C 1159.063 316.218, 1156.250 316.570, 1153.500 316.922" stroke="#e8b1e4" fill="#e8b1e4" fill-opacity="0.2" fill-rule="evenodd"/><path class="svg-region-IBl" d="M 728.746 470.001 C 727.231 470.456, 724.583 472.014, 722.862 473.462 C 721.141 474.911, 718.106 476.933, 716.116 477.956 C 714.127 478.980, 711.159 481.228, 709.520 482.953 L 706.541 486.089 710.204 489.544 C 712.218 491.445, 714.347 493, 714.933 493 C 715.520 493, 716 493.450, 716 494 C 716 494.550, 716.493 495, 717.094 495 C 718.787 495, 730.096 506.200, 731.143 508.913 C 731.851 510.747, 732.353 511.047, 733.237 510.163 C 733.877 509.523, 736.898 508.976, 739.950 508.947 C 749.054 508.861, 774 503.387, 774 501.475 C 774 500.823, 771.591 498.011, 768.646 495.226 C 765.701 492.441, 761.247 487.313, 758.748 483.831 C 753.050 475.892, 749.512 472.529, 744.782 470.553 C 740.819 468.897, 733.276 468.638, 728.746 470.001" stroke="#b10e0e" fill="#b10e0e" fill-opacity="0.2" fill-rule="evenodd"/><path class="svg-region-MB" d="M 1050.070 396.088 C 1047.327 396.626, 1044.452 398.108, 1042.522 399.979 C 1040.808 401.640, 1038.864 403, 1038.202 403 C 1037.541 403, 1037 404.125, 1037 405.500 C 1037 406.875, 1036.550 408, 1036 408 C 1035.450 408, 1034.999 408.563, 1034.997 409.250 C 1034.996 409.938, 1033.308 411.400, 1031.247 412.500 C 1029.043 413.677, 1027.376 415.368, 1027.199 416.608 C 1027.033 417.768, 1025.908 419.249, 1024.699 419.900 C 1023.490 420.551, 1021.746 422.865, 1020.824 425.042 C 1019.181 428.923, 1019.048 429, 1014.003 429 C 1010.798 429, 1008.300 428.443, 1007.381 427.523 C 1006.203 426.346, 1003.025 426.074, 991.702 426.181 C 983.891 426.255, 977.140 426.510, 976.700 426.748 C 976.260 426.985, 977.047 428.684, 978.450 430.523 C 979.852 432.362, 981 434.431, 981 435.121 C 981 437.627, 985.587 443.182, 989.215 445.071 C 991.258 446.135, 995.644 449.685, 998.960 452.961 C 1003.214 457.162, 1006.245 459.254, 1009.245 460.059 C 1017.041 462.151, 1017.942 462.813, 1020.368 468.230 C 1021.960 471.783, 1025.217 475.896, 1030.365 480.853 C 1035.753 486.043, 1038 488.919, 1038 490.629 C 1038 492.990, 1038.075 493.012, 1040.950 491.526 C 1042.590 490.678, 1046.451 490, 1049.640 490 C 1054.624 490, 1058.128 490.459, 1069.836 492.645 C 1073.183 493.270, 1077 497.466, 1077 500.521 L 1077 503.133 1087.250 502.531 C 1092.888 502.199, 1100.514 501.846, 1104.199 501.744 C 1110.260 501.578, 1111.021 501.320, 1112.199 499.038 C 1113.658 496.210, 1116.262 493.685, 1121.520 490 C 1129.773 484.215, 1130 483.959, 1130 480.427 C 1130 478.542, 1129.550 477, 1129 477 C 1128.450 477, 1128 476.362, 1128 475.583 C 1128 474.804, 1126.425 471.197, 1124.500 467.569 C 1122.021 462.895, 1121 459.680, 1121 456.545 C 1121 454.110, 1120.585 451.861, 1120.077 451.548 C 1119.569 451.234, 1118.858 449.632, 1118.497 447.989 C 1118.136 446.345, 1117.427 445, 1116.921 445 C 1116.414 445, 1116 443.856, 1116 442.457 C 1116 440.314, 1113.800 435.550, 1108.081 425.310 C 1105.330 420.384, 1102.659 413.059, 1102.224 409.250 C 1101.958 406.913, 1101.348 405, 1100.870 405 C 1100.391 405, 1100 404.325, 1100 403.500 C 1100 402.675, 1099.362 402, 1098.583 402 C 1097.804 402, 1097.015 401.545, 1096.830 400.990 C 1096.645 400.434, 1093.345 398.868, 1089.497 397.511 C 1083.267 395.313, 1080.964 395.052, 1068.500 395.131 C 1060.800 395.179, 1052.506 395.610, 1050.070 396.088 M 792.889 401.369 C 790.353 401.991, 787.653 403.006, 786.889 403.624 C 785.530 404.725, 783.645 405.188, 773.500 406.918 C 759.542 409.297, 754.640 411.151, 748.500 416.374 C 745.200 419.180, 741.772 422.269, 740.883 423.238 C 739.993 424.207, 738.920 425, 738.497 425 C 738.075 425, 736.708 426.012, 735.459 427.250 C 732.402 430.279, 730.220 432, 729.436 432 C 727.937 432, 721 438.290, 721 439.650 C 721 440.465, 720.450 442.114, 719.778 443.316 C 718.123 446.273, 716.098 453.865, 716.044 457.316 C 715.994 460.493, 717.624 464.105, 719.646 465.300 C 720.421 465.758, 721 467.788, 721 470.050 C 721 472.222, 721.284 474, 721.632 474 C 721.980 474, 723.749 473.082, 725.563 471.961 C 727.378 470.840, 731.031 469.666, 733.681 469.353 C 743.639 468.178, 750.890 472.341, 758.640 483.683 C 763.510 490.812, 774.853 502, 777.209 502 C 778.191 502, 781.852 500.650, 785.344 499 C 789.170 497.192, 793.317 496, 795.779 496 C 799.074 496, 799.997 495.586, 800.543 493.864 C 801.584 490.586, 807.492 483.143, 814.327 476.500 C 820.857 470.153, 827 463.042, 827 461.829 C 827 461.430, 828.125 459.890, 829.499 458.407 C 830.873 456.924, 833.656 453.188, 835.683 450.105 C 837.710 447.022, 839.668 444.275, 840.034 444 C 840.735 443.474, 843 439.433, 843 438.709 C 843 438.476, 839.513 438.013, 835.250 437.680 C 830.987 437.347, 824.220 436.766, 820.211 436.389 C 814.833 435.883, 812.247 436.065, 810.344 437.083 C 807.892 438.396, 807.602 438.269, 804.398 434.482 C 800.883 430.326, 800.261 428.139, 802.078 426.322 C 802.671 425.729, 803.009 423.951, 802.828 422.372 C 802.508 419.567, 802.347 419.493, 795.884 419.207 C 788.566 418.884, 786.210 417.294, 784.220 411.335 C 783.048 407.825, 783.429 407, 786.224 407 C 787.264 407, 792.252 405.681, 797.307 404.068 C 802.363 402.456, 807.400 400.933, 808.500 400.684 C 809.600 400.436, 807.575 400.233, 804 400.235 C 800.425 400.236, 795.425 400.747, 792.889 401.369" stroke="#f9c6c6" fill="#f9c6c6" fill-opacity="0.2" fill-rule="evenodd"/><path class="svg-region-AP" d="M 995.544 460.589 C 993.369 461.386, 990.669 462.856, 989.544 463.857 C 986.490 466.576, 981.110 469.519, 975.500 471.542 C 972.750 472.533, 970.050 473.657, 969.500 474.040 C 968.950 474.422, 966.025 475.529, 963 476.500 C 959.975 477.471, 957.028 478.635, 956.450 479.088 C 955.873 479.542, 953.398 480.219, 950.950 480.593 C 948.503 480.968, 945.600 481.744, 944.500 482.317 C 940.011 484.659, 922.408 488.272, 915.724 488.224 C 913.648 488.209, 910.151 487.477, 907.954 486.598 C 905.757 485.719, 901.606 484.990, 898.730 484.978 C 895.699 484.965, 891.667 484.124, 889.141 482.978 C 885.585 481.365, 882.602 481, 872.962 481 C 863.648 481, 860.816 480.673, 859.601 479.458 C 858.753 478.610, 856.676 477.434, 854.984 476.845 C 852.963 476.140, 851.324 474.526, 850.204 472.136 C 848.135 467.721, 842.113 464.524, 834.089 463.581 C 829.363 463.025, 828.150 463.248, 825.541 465.154 C 823.868 466.376, 821.840 468.303, 821.033 469.438 C 820.226 470.572, 817.150 473.750, 814.199 476.500 C 808.412 481.892, 799.996 492.477, 800.007 494.349 C 800.011 494.982, 801.670 496.625, 803.694 498 C 808.902 501.537, 810.246 503.178, 813.921 510.492 C 819.369 521.335, 820.899 528.063, 822.109 546.500 C 823.099 561.579, 823.466 563.764, 825.362 565.833 C 827.182 567.820, 827.499 569.380, 827.494 576.333 C 827.488 583.269, 827.069 585.329, 824.709 590 C 818.628 602.035, 812.989 604.783, 805.215 599.500 C 800.397 596.227, 795.829 596.266, 791.433 599.619 C 789.545 601.059, 788 602.797, 788 603.481 C 788 604.165, 791.750 608.325, 796.334 612.725 C 803.903 619.992, 809.944 624.612, 819.761 630.641 C 821.679 631.819, 823.529 633.207, 823.874 633.727 C 824.218 634.246, 827.650 636.527, 831.500 638.796 C 835.350 641.065, 840.701 644.922, 843.391 647.369 C 850.291 653.645, 861.947 659.145, 869.500 659.690 C 876.621 660.203, 892.519 656.173, 894.970 653.233 C 895.812 652.223, 898.236 650.123, 900.358 648.565 C 903.483 646.272, 904.390 645.996, 905.127 647.116 C 905.876 648.256, 906.218 648.192, 907.068 646.750 C 908.343 644.586, 910.614 644.487, 911.766 646.546 C 912.458 647.784, 913.177 647.883, 915.380 647.046 C 919.241 645.578, 924.777 645.745, 930.715 647.508 C 934.948 648.765, 936.435 648.805, 939.647 647.751 C 942.930 646.672, 944.245 646.736, 948.536 648.182 C 951.477 649.173, 958.757 650.165, 966.036 650.567 C 977.690 651.210, 978.962 651.093, 985.602 648.779 C 994.472 645.687, 1001.466 641.032, 1010.692 632.079 C 1014.647 628.241, 1019.822 624.126, 1022.192 622.936 C 1032.191 617.913, 1036.052 613, 1030 613 C 1027.119 613, 1027 612.825, 1027 608.577 C 1027 605.318, 1027.658 603.372, 1029.500 601.182 C 1033.368 596.586, 1032.820 596, 1024.655 596 C 1016.350 596, 1015.850 595.673, 1011.661 587.500 C 1008.517 581.366, 1007.425 573.791, 1008.919 568.475 C 1009.864 565.110, 1010.799 564.130, 1015.018 562.085 L 1020 559.670 1020 547.494 C 1020 535.112, 1020.822 530.677, 1024.726 522 C 1029.824 510.667, 1032 504.636, 1032 501.835 C 1032 499.755, 1032.942 497.922, 1035 496 C 1039.747 491.565, 1039.069 489.243, 1030.639 481.069 C 1026.591 477.144, 1022.588 472.485, 1021.744 470.716 C 1020.901 468.947, 1019.663 466.311, 1018.994 464.858 C 1018.003 462.705, 1016.551 461.919, 1011.139 460.606 C 1003.208 458.681, 1000.762 458.679, 995.544 460.589 M 812.400 609.743 C 811.795 610.159, 810.766 611.513, 810.114 612.751 C 809.060 614.753, 809.348 615.438, 812.714 618.933 C 817.515 623.917, 823.518 628, 826.044 628 C 827.120 628, 828.954 627.046, 830.120 625.880 C 831.900 624.100, 832.139 623.020, 831.614 619.130 C 831.270 616.584, 830.157 613.375, 829.141 612 C 827.523 609.810, 826.439 609.468, 820.397 609.243 C 816.604 609.101, 813.005 609.326, 812.400 609.743 M 986 612.891 C 983.712 613.524, 983.474 614.123, 983.198 619.972 C 982.963 624.932, 983.243 626.556, 984.448 627.231 C 985.301 627.708, 986 629.327, 986 630.827 C 986 634.025, 988.506 638, 990.522 638 C 991.296 638, 992.411 637.100, 993 636 C 993.589 634.900, 994.676 634, 995.416 634 C 996.942 634, 1001.545 628.328, 1002.889 624.792 C 1003.553 623.046, 1003.321 621.880, 1001.980 620.224 C 1000.990 619.001, 999.866 618, 999.484 618 C 999.101 618, 997.083 616.650, 995 615 C 991.097 611.909, 990.260 611.713, 986 612.891 M 838.250 616.055 C 835.426 618.702, 835 619.754, 835 624.083 C 835 629.215, 837.181 636, 838.831 636 C 839.345 636, 841.565 637.800, 843.765 640 L 847.765 644 856.416 644 C 864.927 644, 865.122 643.945, 868.480 640.587 C 871.055 638.012, 871.538 637.037, 870.447 636.618 C 869.651 636.313, 869 635.422, 869 634.638 C 869 633.037, 866.903 632, 863.665 632 C 861.270 632, 856 627.011, 856 624.743 C 856 622.922, 853.175 617.043, 851.199 614.750 C 848.637 611.778, 842.111 612.436, 838.250 616.055" stroke="#fc7143" fill="#fc7143" fill-opacity="0.2" fill-rule="evenodd"/><path class="svg-region-LPl" d="M 784.500 498.959 C 776.677 502.661, 755.352 507.490, 741 508.810 L 733.500 509.500 732.722 517 C 732.294 521.125, 731.691 527.632, 731.382 531.460 C 731.072 535.288, 730.227 539.265, 729.504 540.298 C 728.375 541.910, 728.550 542.875, 730.736 547.089 C 732.137 549.790, 733.686 552, 734.178 552 C 734.669 552, 735.903 553.913, 736.921 556.250 C 739.625 562.463, 751.115 576.202, 758.106 581.581 C 762.466 584.937, 764.037 586.751, 763.699 588.044 C 763.369 589.306, 763.933 590.017, 765.594 590.434 C 766.895 590.761, 770.238 592.372, 773.024 594.014 C 775.809 595.656, 778.434 597, 778.857 597 C 779.280 597, 780.919 598.350, 782.500 600 C 786.081 603.738, 787.726 603.733, 791.417 599.972 C 793.341 598.011, 795.334 597, 797.274 597 C 799.666 597, 800.087 596.674, 799.536 595.250 C 798.023 591.348, 796 582.397, 796 579.606 C 796 575.195, 799.719 568.316, 803.776 565.223 C 806.888 562.850, 808.284 562.494, 814.639 562.451 C 818.649 562.424, 822.212 562.122, 822.554 561.779 C 823.653 560.681, 821.071 530.054, 819.384 524.172 C 817.653 518.133, 811.923 505.495, 809.785 503 C 809.078 502.175, 806.843 500.262, 804.817 498.750 C 799.752 494.968, 792.782 495.040, 784.500 498.959" stroke="#d2454f" fill="#d2454f" fill-opacity="0.2" fill-rule="evenodd"/><path class="svg-region-LPr" d="M 1040 492.045 C 1033.888 495.826, 1032 498.102, 1032 501.688 C 1032 503.524, 1031.583 505.809, 1031.073 506.764 C 1030.563 507.719, 1027.995 513.675, 1025.365 520 L 1020.584 531.500 1020.195 545.280 L 1019.807 559.060 1023.387 557.352 C 1026.303 555.962, 1027.435 555.863, 1029.484 556.822 C 1030.868 557.470, 1033.207 558.563, 1034.681 559.250 C 1036.156 559.938, 1038.068 561.787, 1038.931 563.359 C 1039.794 564.932, 1041.729 568.082, 1043.232 570.359 C 1046.888 575.901, 1046.988 582.265, 1043.500 587.405 C 1040.865 591.288, 1040.406 592.485, 1041.910 591.556 C 1044.232 590.121, 1046 592.305, 1046 596.607 C 1046 600.194, 1046.335 601, 1047.826 601 C 1048.830 601, 1050.742 599.836, 1052.076 598.413 C 1053.409 596.990, 1057.200 594.286, 1060.500 592.403 C 1063.800 590.520, 1068.300 587.642, 1070.500 586.007 C 1074.372 583.130, 1075.824 582.348, 1082.750 579.411 C 1084.537 578.653, 1086 577.302, 1086 576.409 C 1086 575.363, 1085.467 575.002, 1084.500 575.393 C 1080.148 577.154, 1079.771 577.056, 1082.545 574.884 C 1084.220 573.573, 1089.339 568.900, 1093.919 564.500 C 1100.884 557.811, 1102.900 555.114, 1106.231 548.041 C 1109.646 540.791, 1110.128 538.951, 1109.608 535.156 C 1109.274 532.721, 1109.506 529.044, 1110.122 526.986 C 1111.120 523.656, 1111.010 523.010, 1109.122 521.122 C 1106.519 518.519, 1106.200 510.058, 1108.536 505.578 C 1110.576 501.666, 1109.120 500.766, 1102 501.533 C 1098.975 501.859, 1092.231 502.210, 1087.012 502.313 L 1077.525 502.500 1077.012 499.606 C 1075.974 493.740, 1069.967 491.531, 1052 490.410 C 1044.480 489.941, 1043.096 490.130, 1040 492.045" stroke="#d2454f" fill="#d2454f" fill-opacity="0.2" fill-rule="evenodd"/><path class="svg-region-DMl" d="M 648 458 C 646.625 458.440, 643.381 458.845, 640.792 458.900 C 636.766 458.986, 635.499 459.557, 632.042 462.845 L 628 466.690 628 475.723 C 628 482.459, 628.375 485.066, 629.474 485.978 C 630.284 486.651, 631.229 488.703, 631.573 490.539 C 632.607 496.047, 637.723 501.988, 643.717 504.638 C 650.071 507.448, 652.894 507.782, 651 505.500 C 649.952 504.237, 650.323 503.763, 653.346 502.500 C 655.320 501.675, 658.863 500.998, 661.218 500.996 C 665.652 500.992, 669.171 499.270, 674.500 494.496 C 680.135 489.446, 683.978 488.172, 695.834 487.422 C 701.975 487.033, 706.988 486.442, 706.974 486.108 C 706.960 485.773, 705.048 484.647, 702.724 483.605 C 700.401 482.563, 697.150 480.728, 695.500 479.527 C 693.850 478.326, 690.025 476.029, 687 474.422 C 683.975 472.815, 680.633 470.718, 679.574 469.761 C 678.514 468.805, 676.868 467.776, 675.916 467.473 C 674.964 467.171, 673.935 466.273, 673.630 465.477 C 673.324 464.682, 669.650 462.449, 665.464 460.515 C 657.861 457.003, 653.206 456.333, 648 458" stroke="#68533d" fill="#68533d" fill-opacity="0.2" fill-rule="evenodd"/><path class="svg-region-DMr" d="M 1181.500 442.487 C 1179.300 443.224, 1175.025 444.610, 1172 445.566 C 1168.975 446.522, 1164.290 448.405, 1161.589 449.750 C 1153.280 453.889, 1141 468.171, 1141 473.696 C 1141 476.031, 1143.327 476.898, 1144.500 475 C 1144.840 474.450, 1148.060 474, 1151.655 474 C 1156.573 474, 1158.882 474.492, 1160.981 475.986 C 1164.310 478.357, 1172.574 482, 1174.623 482 C 1175.425 482, 1177.306 482.906, 1178.804 484.013 C 1181.018 485.650, 1182.413 485.905, 1186.264 485.377 C 1190.547 484.790, 1190.998 484.478, 1190.977 482.114 C 1190.963 480.568, 1189.554 477.947, 1187.528 475.697 C 1185.644 473.606, 1184.337 471.287, 1184.622 470.543 C 1185.426 468.449, 1193.732 465.838, 1201.842 465.131 C 1210.289 464.394, 1212.295 462.810, 1213.381 456.016 C 1213.938 452.535, 1213.635 451.388, 1211.372 448.422 C 1206.443 441.959, 1204.202 440.992, 1194.346 441.074 C 1189.481 441.114, 1183.700 441.750, 1181.500 442.487" stroke="#68533d" fill="#68533d" fill-opacity="0.2" fill-rule="evenodd"/><path class="svg-region-VMl" d="M 812.185 609.663 C 811.462 609.964, 810.453 611.308, 809.943 612.651 C 809.149 614.739, 809.557 615.655, 812.757 618.978 C 817.519 623.921, 823.526 628, 826.044 628 C 827.120 628, 828.953 627.047, 830.117 625.883 C 831.844 624.156, 832.140 622.938, 831.727 619.269 C 831.448 616.795, 830.336 613.585, 829.257 612.136 C 827.498 609.775, 826.574 609.480, 820.397 609.309 C 816.604 609.203, 812.908 609.363, 812.185 609.663" stroke="#e59376" fill="#e59376" fill-opacity="0.2" fill-rule="evenodd"/><path class="svg-region-VMr" d="M 1040.179 593.500 C 1039.044 594.942, 1037.183 596, 1035.780 596 C 1031.336 596, 1026.177 603.888, 1026.788 609.750 C 1027.104 612.783, 1027.379 613, 1030.903 613 C 1034.072 613, 1035.591 612.156, 1040.348 607.750 C 1045.828 602.674, 1046.016 602.329, 1046.008 597.357 C 1046.002 593.595, 1045.575 592.051, 1044.418 591.607 C 1042.238 590.770, 1042.373 590.710, 1040.179 593.500" stroke="#e59376" fill="#e59376" fill-opacity="0.2" fill-rule="evenodd"/><path class="svg-region-Ol" d="M 439 335.092 C 419.125 337.109, 412.957 338.998, 392.067 349.467 C 374.960 358.039, 357.327 370.614, 345.008 383.027 C 337.675 390.415, 324.293 405.669, 320.709 410.723 C 318.457 413.900, 316.354 416.725, 316.036 417 C 315.134 417.782, 301.765 438.150, 299.956 441.500 C 299.065 443.150, 297.603 445.850, 296.707 447.500 C 288.894 461.886, 278.510 490.415, 274.504 508.500 C 273.530 512.900, 272.071 519.200, 271.261 522.500 C 268.264 534.725, 268.732 594.551, 271.855 598.330 C 272.990 599.704, 274.525 606.875, 274.120 608.909 C 273.746 610.787, 277.044 618, 278.277 618 C 278.816 618, 278.993 619.284, 278.675 620.877 C 278.323 622.633, 278.652 624.483, 279.518 625.627 C 280.298 626.657, 280.951 628.227, 280.968 629.116 C 280.997 630.569, 286.731 643.255, 289.052 647 C 289.564 647.825, 291.173 650.750, 292.628 653.500 C 297.164 662.073, 311.651 680.689, 321.790 690.973 C 332.261 701.593, 351.554 717.445, 356.629 719.598 C 358.350 720.329, 361.050 722.002, 362.629 723.318 C 368.960 728.593, 407.079 744.965, 413.096 744.993 C 413.974 744.997, 415.999 745.651, 417.596 746.446 C 423.553 749.414, 463.110 751.801, 479.841 750.202 C 512.106 747.120, 527.131 744.930, 529.535 742.960 C 530.104 742.494, 534.604 741.392, 539.535 740.511 C 544.466 739.631, 554.575 737.809, 562 736.462 C 585.388 732.221, 588.382 731.966, 614.735 731.975 C 628.906 731.980, 643.875 731.497, 648 730.902 C 658.110 729.445, 673.277 725.342, 680 722.245 C 696.973 714.427, 711.107 700.177, 719.422 682.500 C 720.457 680.300, 721.847 677.375, 722.510 676 C 723.749 673.432, 725.337 667.476, 727.156 658.565 C 728.349 652.727, 729.049 629, 728.029 629 C 727.653 629, 726.785 625.337, 726.100 620.859 C 725.414 616.382, 723.762 608.950, 722.427 604.344 C 721.092 599.738, 720 595.482, 720 594.886 C 720 594.290, 719.359 592.384, 718.576 590.651 C 716.017 584.987, 707.898 564.576, 706.912 561.330 C 706.383 559.586, 704.413 555.606, 702.534 552.486 C 700.655 549.366, 698.840 545.618, 698.501 544.157 C 697.681 540.623, 688.545 534.421, 682.835 533.522 C 677.812 532.731, 672 530.856, 672 530.027 C 672 529.712, 670.313 528.566, 668.250 527.480 C 663.969 525.225, 662.501 524.003, 661.897 522.190 C 661.663 521.490, 657.704 519.291, 653.098 517.304 C 646.264 514.355, 644.384 513.903, 642.876 514.846 C 640.187 516.525, 638.005 516.260, 637.965 514.250 C 637.906 511.380, 635.844 508.608, 629.247 502.535 C 623.168 496.939, 622.788 496.756, 615.611 495.951 C 611.550 495.495, 605.487 494.223, 602.137 493.123 C 595.953 491.093, 584.002 484.964, 580.674 482.115 C 579.669 481.255, 577.233 480.448, 575.261 480.322 C 573.289 480.196, 571.411 479.690, 571.088 479.198 C 570.764 478.706, 567.548 476.903, 563.940 475.191 C 556.639 471.728, 549.199 464.835, 546.359 458.904 C 545.336 456.769, 544.163 455.018, 543.750 455.011 C 543.337 455.005, 543 454.190, 543 453.200 C 543 452.210, 542.620 450.973, 542.156 450.450 C 541.692 449.928, 540.117 445.803, 538.656 441.285 C 536.257 433.865, 536 431.595, 536 417.840 C 536 403.227, 535.904 402.506, 533.642 400.055 C 532.345 398.650, 529.370 393.900, 527.032 389.500 C 524.693 385.100, 522.154 380.790, 521.390 379.921 C 520.625 379.053, 520 377.764, 520 377.057 C 520 375.534, 511.911 362.185, 507.558 356.524 C 502.505 349.954, 498.941 347.186, 489.500 342.499 C 473.442 334.528, 461.630 332.796, 439 335.092" stroke="#aa444d" fill="#aa444d" fill-opacity="0.2" fill-rule="evenodd"/><path class="svg-region-Or" d="M 1384.500 298.704 C 1380.100 299.531, 1375.825 300.463, 1375 300.775 C 1374.175 301.087, 1372.250 301.486, 1370.722 301.661 C 1369.194 301.837, 1366.072 302.885, 1363.784 303.990 C 1361.496 305.096, 1359.096 306, 1358.450 306 C 1357.310 306, 1351.129 310.387, 1347.916 313.477 C 1347.045 314.315, 1345.920 315.026, 1345.416 315.058 C 1344.912 315.090, 1341.365 319.251, 1337.533 324.304 C 1332.428 331.037, 1330.195 334.964, 1329.177 338.997 C 1328.414 342.023, 1327.426 344.950, 1326.982 345.500 C 1326.538 346.050, 1324.780 350.012, 1323.076 354.304 C 1321.372 358.596, 1319.499 362.646, 1318.915 363.304 C 1317.917 364.427, 1309.797 378.801, 1305.608 386.861 C 1304.568 388.862, 1303.366 393.200, 1302.937 396.500 C 1301.490 407.631, 1297.684 419.459, 1294.536 422.606 C 1293.691 423.451, 1293 425.011, 1293 426.071 C 1293 427.132, 1292.550 428, 1292 428 C 1291.450 428, 1291 428.681, 1291 429.514 C 1291 431.161, 1289.490 434.132, 1286.750 437.878 C 1285.787 439.193, 1285 441.109, 1285 442.135 C 1285 443.161, 1284.325 444, 1283.500 444 C 1282.675 444, 1281.986 444.563, 1281.968 445.250 C 1281.900 447.959, 1272.604 456, 1269.540 456 C 1268.693 456, 1268 456.450, 1268 457 C 1268 457.550, 1267.325 458, 1266.500 458 C 1265.675 458, 1265 458.450, 1265 459 C 1265 459.550, 1264.341 460, 1263.536 460 C 1262.731 460, 1258.597 463.125, 1254.351 466.944 C 1246.382 474.111, 1241.779 476.742, 1224.250 484.148 C 1218.129 486.734, 1214 489.047, 1214 489.891 C 1214 493.151, 1205.389 503.157, 1195.095 511.860 C 1190.552 515.700, 1185.871 522, 1187.561 522 C 1188.602 522, 1182.251 530.136, 1179.954 531.745 C 1178.122 533.028, 1177.645 533.049, 1176.906 531.883 C 1176.425 531.122, 1176.024 529.390, 1176.015 528.033 C 1175.992 524.213, 1172.942 516.795, 1170.138 513.740 L 1167.606 510.979 1164.053 514.346 C 1162.099 516.198, 1157.059 520.221, 1152.854 523.287 C 1143.119 530.383, 1140.412 533.972, 1139.494 541 C 1139.099 544.025, 1138.321 547.063, 1137.766 547.750 C 1137.073 548.607, 1137.146 549.472, 1138 550.500 C 1138.850 551.524, 1138.926 552.397, 1138.240 553.250 C 1137.688 553.938, 1136.075 557.400, 1134.656 560.943 C 1132.752 565.700, 1132.360 567.729, 1133.161 568.693 C 1133.855 569.530, 1133.880 570, 1133.231 570 C 1132.673 570, 1131.881 571.237, 1131.469 572.750 C 1129.994 578.178, 1131.075 605.865, 1133.021 612.500 C 1138.880 632.478, 1137.929 629.914, 1144.527 643.500 C 1150.594 655.992, 1154.477 662.122, 1160.364 668.500 C 1162.902 671.250, 1164.983 673.849, 1164.989 674.276 C 1165.005 675.443, 1173.792 684, 1174.974 684 C 1175.538 684, 1176 684.441, 1176 684.980 C 1176 685.518, 1177.822 686.889, 1180.049 688.025 C 1182.276 689.161, 1184.348 690.742, 1184.654 691.539 C 1184.959 692.336, 1185.626 692.731, 1186.135 692.417 C 1186.643 692.102, 1189.485 693.455, 1192.449 695.423 C 1195.414 697.390, 1198.974 699, 1200.360 699 C 1201.747 699, 1203.160 699.450, 1203.500 700 C 1203.840 700.550, 1205.238 701, 1206.607 701 C 1207.976 701, 1210.959 701.900, 1213.236 703 C 1215.513 704.100, 1218.390 705, 1219.629 705 C 1220.868 705, 1222.122 705.388, 1222.415 705.862 C 1222.708 706.337, 1227.347 707.034, 1232.724 707.413 C 1238.101 707.791, 1244.300 708.240, 1246.500 708.409 C 1248.700 708.579, 1259.050 708.820, 1269.500 708.945 C 1279.950 709.070, 1295.925 710.013, 1305 711.042 C 1314.075 712.070, 1327.800 713.180, 1335.500 713.508 C 1348.346 714.056, 1363.719 715.484, 1383 717.920 C 1417.536 722.283, 1450.943 718.754, 1472.500 708.467 C 1474.150 707.679, 1477.075 706.369, 1479 705.555 C 1486.345 702.450, 1495.933 696.519, 1510.437 686.109 C 1518.876 680.052, 1542.584 656.600, 1547.751 649.198 C 1549.813 646.244, 1553.094 641.954, 1555.043 639.664 C 1556.992 637.374, 1559.348 634.375, 1560.280 633 C 1561.212 631.625, 1564.405 626.887, 1567.376 622.471 C 1575.012 611.121, 1586 589.070, 1586 585.095 C 1586 584.077, 1586.656 581.674, 1587.458 579.755 C 1590.318 572.910, 1592.845 557.498, 1594.447 537.134 C 1595.295 526.354, 1590.358 493.162, 1585.280 475.500 C 1580.979 460.539, 1574.413 440.787, 1571.984 435.500 C 1570.974 433.300, 1569.101 429.054, 1567.823 426.064 C 1565.070 419.622, 1562.219 414.089, 1555.620 402.376 C 1540.301 375.187, 1517.190 349.115, 1492.352 331 C 1487.526 327.480, 1471.303 318, 1470.106 318 C 1469.753 318, 1467.897 316.942, 1465.982 315.649 C 1464.067 314.356, 1460.700 312.726, 1458.500 312.027 C 1456.300 311.328, 1452.925 309.933, 1451 308.926 C 1449.075 307.919, 1444.800 306.405, 1441.500 305.560 C 1438.200 304.715, 1432.350 303.180, 1428.500 302.148 C 1424.650 301.116, 1416.325 299.738, 1410 299.086 C 1403.675 298.434, 1397.150 297.743, 1395.500 297.551 C 1393.850 297.358, 1388.900 297.877, 1384.500 298.704" stroke="#aa444d" fill="#aa444d" fill-opacity="0.2" fill-rule="evenodd"/><path class="svg-region-Pl" d="M 537.250 405.662 C 536.335 406.032, 536 409.863, 536 419.968 C 536 433.267, 536.132 434.146, 539.632 444.134 C 541.630 449.835, 543.547 454.725, 543.892 455 C 544.237 455.275, 545.412 457.200, 546.502 459.279 C 549.621 465.221, 556.465 471.464, 563.781 475.041 C 567.476 476.847, 570.725 478.633, 571 479.009 C 571.275 479.385, 572.655 479.974, 574.066 480.319 C 579.344 481.608, 584 475.447, 584 467.175 C 584 457.528, 583.266 456.077, 573.830 447.078 C 566.332 439.926, 565 438.175, 565 435.469 C 565 433.716, 563.640 429.732, 561.977 426.616 C 560.314 423.500, 558.024 418.468, 556.889 415.433 C 553.777 407.116, 551.164 404.983, 544.205 405.079 C 541.067 405.122, 537.938 405.385, 537.250 405.662" stroke="#f9d3d3" fill="#f9d3d3" fill-opacity="0.2" fill-rule="evenodd"/><path class="svg-region-Pr" d="M 1296.484 385.750 C 1295.055 387.262, 1293.188 389.656, 1292.335 391.068 C 1291.481 392.481, 1288.516 395.181, 1285.745 397.068 C 1282.975 398.956, 1278.886 402.658, 1276.659 405.296 C 1274.432 407.933, 1271.139 410.789, 1269.340 411.643 C 1264.770 413.811, 1258.994 420.025, 1255.772 426.239 C 1252.285 432.962, 1251.885 443.917, 1254.912 449.790 C 1257.326 454.472, 1264.077 460.990, 1264.711 459.250 C 1264.962 458.563, 1265.804 458, 1266.583 458 C 1267.362 458, 1268 457.550, 1268 457 C 1268 456.450, 1268.693 456, 1269.540 456 C 1271.502 456, 1276.841 452.243, 1279.473 449.011 C 1280.588 447.641, 1282.287 445.729, 1283.250 444.761 C 1284.213 443.792, 1285 442.321, 1285 441.490 C 1285 440.660, 1285.900 439.210, 1287 438.268 C 1288.100 437.326, 1289 435.991, 1289 435.302 C 1289 434.612, 1289.898 432.575, 1290.996 430.774 C 1292.094 428.973, 1292.994 426.781, 1292.996 425.903 C 1292.998 425.025, 1293.948 423.225, 1295.106 421.903 C 1297.628 419.025, 1298.763 416.248, 1300.163 409.537 C 1300.741 406.767, 1301.616 404.072, 1302.107 403.550 C 1302.598 403.027, 1303 400.495, 1303 397.922 C 1303 395.349, 1303.697 391.575, 1304.550 389.535 C 1305.747 386.669, 1305.833 385.504, 1304.927 384.413 C 1303.065 382.169, 1299.303 382.765, 1296.484 385.750" stroke="#f9d3d3" fill="#f9d3d3" fill-opacity="0.2" fill-rule="evenodd"/><path class="svg-region-DLr" d="M 1204.241 368.986 C 1202.647 371.538, 1202.651 377.130, 1204.250 380.688 C 1206.023 384.635, 1215.714 394, 1218.025 394 C 1219.238 394, 1220.188 393.099, 1220.567 391.588 C 1220.900 390.262, 1222.484 388.009, 1224.086 386.581 C 1226.779 384.181, 1227 383.455, 1227 376.992 L 1227 370 1219.691 370 C 1214.813 370, 1211.737 369.512, 1210.441 368.532 C 1207.752 366.498, 1205.701 366.648, 1204.241 368.986" stroke="#b7d6d3" fill="#b7d6d3" fill-opacity="0.2" fill-rule="evenodd"/><path class="svg-region-OLl" d="M 597.567 377.685 C 593.758 378.734, 581.248 384.790, 580.547 385.924 C 580.154 386.560, 578.070 388.193, 575.916 389.553 C 573.271 391.222, 571.998 392.752, 571.993 394.263 C 571.990 395.493, 571.085 397.850, 569.982 399.500 C 568.880 401.150, 567.025 405.650, 565.862 409.500 C 564.066 415.440, 563.830 418.116, 564.299 427.173 C 564.961 439.939, 565.486 440.931, 575.594 448.538 L 582.962 454.084 594.731 453.481 C 610.182 452.689, 610.267 452.665, 613.388 448.162 C 614.864 446.031, 617.159 443.793, 618.488 443.187 C 622.093 441.545, 623.744 437.390, 624.535 427.970 C 624.927 423.311, 625.931 417.925, 626.768 416 C 627.605 414.075, 628.621 409.646, 629.026 406.157 C 629.484 402.201, 630.558 398.736, 631.880 396.948 C 635.204 392.452, 634.186 388, 629.835 388 C 628.864 388, 626.472 386.597, 624.519 384.882 C 621.223 381.989, 620.686 381.837, 617.038 382.762 C 613.435 383.677, 613.082 383.586, 612.804 381.667 C 612.593 380.213, 611.432 379.310, 609 378.708 C 603.913 377.448, 599.772 377.078, 597.567 377.685" stroke="#c4875d" fill="#c4875d" fill-opacity="0.2" fill-rule="evenodd"/><path class="svg-region-OLr" d="M 1219.500 362.716 C 1216.973 363.327, 1213 366.941, 1213 368.629 C 1213 369.513, 1215.086 370, 1219.750 370.204 L 1226.500 370.500 1226.795 377.218 C 1227.067 383.414, 1226.885 384.112, 1224.450 386.218 C 1222.997 387.473, 1221.166 389.738, 1220.379 391.250 C 1219.592 392.762, 1218.375 394, 1217.674 394 C 1215.536 394, 1205.347 383.435, 1204.137 379.963 C 1202.657 375.718, 1202.687 370.713, 1204.200 369.200 C 1205.133 368.267, 1205.022 368, 1203.700 368 C 1200.805 368, 1198 371.704, 1198 375.525 C 1198 378.778, 1203.443 391.324, 1206.449 395 C 1207.123 395.825, 1208.501 399.650, 1209.511 403.500 C 1210.520 407.350, 1212.394 412.590, 1213.673 415.145 C 1214.953 417.700, 1216 420.311, 1216 420.946 C 1216 421.582, 1217.479 422.720, 1219.288 423.476 C 1221.096 424.231, 1224.966 426.458, 1227.888 428.425 C 1232.812 431.738, 1233.753 432, 1240.729 432 C 1248.008 432, 1248.394 431.877, 1252.379 428.288 C 1254.645 426.246, 1257.737 422.875, 1259.250 420.796 C 1261.817 417.268, 1262 416.349, 1262 406.959 C 1262 396.644, 1261.189 393.672, 1256.859 388.115 C 1255.568 386.459, 1255 384.070, 1255 380.299 C 1255 373.121, 1253.885 371.356, 1248.233 369.583 C 1239.945 366.985, 1234.769 364.952, 1232.632 363.455 C 1230.646 362.064, 1223.789 361.678, 1219.500 362.716" stroke="#c4875d" fill="#c4875d" fill-opacity="0.2" fill-rule="evenodd"/><path class="svg-region-VOC" d="M 898.077 379.472 C 895.094 380.236, 889.350 381.171, 885.312 381.550 C 881.275 381.928, 877.726 382.634, 877.427 383.119 C 877.127 383.603, 874.861 384, 872.391 384 C 869.921 384, 866.670 384.636, 865.166 385.414 C 863.662 386.192, 860.646 387.150, 858.465 387.543 C 856.284 387.936, 853.375 388.882, 852 389.644 C 850.625 390.406, 845.450 392.635, 840.500 394.598 C 833.083 397.538, 829.829 398.251, 822 398.651 C 816.775 398.918, 811.600 399.522, 810.500 399.993 C 809.400 400.464, 807.375 401.078, 806 401.356 C 804.625 401.635, 799.450 403.076, 794.500 404.557 C 789.550 406.038, 784.962 407.396, 784.305 407.573 C 782.611 408.030, 784.370 413.700, 787.110 416.617 C 788.865 418.486, 790.504 418.969, 795.884 419.207 C 802.347 419.493, 802.508 419.567, 802.828 422.372 C 803.009 423.951, 802.671 425.729, 802.078 426.322 C 800.261 428.139, 800.883 430.326, 804.398 434.482 C 807.601 438.268, 807.892 438.396, 810.342 437.084 C 812.352 436.009, 814.740 435.899, 821.209 436.586 C 832.391 437.774, 845.913 437.728, 846.788 436.500 C 848.319 434.350, 859.074 431.056, 867.552 430.141 C 872.624 429.594, 882.190 425.984, 884 423.934 C 884.275 423.622, 888.325 422.359, 893 421.127 C 897.675 419.895, 904.425 418.006, 908 416.929 C 912.987 415.427, 917.439 414.974, 927.125 414.986 C 940.570 415.001, 940.888 415.087, 958.500 423.503 C 962.106 425.226, 986.025 426.917, 997.547 426.263 C 1004.085 425.892, 1005.843 426.106, 1006.920 427.403 C 1007.837 428.508, 1009.924 429, 1013.697 429 C 1019.096 429, 1019.165 428.962, 1020.824 425.051 C 1021.746 422.879, 1023.478 420.655, 1024.673 420.108 C 1025.868 419.561, 1026.993 418.095, 1027.173 416.850 C 1027.378 415.432, 1028.899 413.853, 1031.250 412.618 C 1033.313 411.534, 1035 410.052, 1035 409.324 C 1035 408.596, 1035.450 408, 1036 408 C 1036.550 408, 1037 406.662, 1037 405.026 C 1037 401.160, 1033.017 399, 1025.888 399 C 1020.304 399, 1014.117 396.167, 1008.697 391.129 C 1005.390 388.056, 998.562 387.229, 975 387.048 C 963.933 386.963, 960.040 386.589, 958.559 385.468 C 957.491 384.661, 955.380 384, 953.868 384 C 952.355 384, 950.840 383.550, 950.500 383 C 950.160 382.450, 948.148 382, 946.029 382 C 943.910 382, 938.694 381.334, 934.439 380.520 C 922.921 378.316, 904.644 377.789, 898.077 379.472" stroke="#ff8f93" fill="#ff8f93" fill-opacity="0.2" fill-rule="evenodd"/><path class="svg-region-BPCl" d="M 806 563.765 C 804.075 564.812, 800.988 567.880, 799.141 570.584 C 795.956 575.245, 795.812 575.832, 796.368 581.906 C 797.258 591.639, 799.344 596.018, 804.627 599.250 C 812.635 604.148, 817.380 602.548, 823.151 593.004 C 829.054 583.241, 829.803 570.349, 824.760 565.306 C 821.257 561.802, 811.137 560.971, 806 563.765" stroke="#83385f" fill="#83385f" fill-opacity="0.2" fill-rule="evenodd"/><path class="svg-region-BPCr" d="M 1022 557.967 C 1020.625 559.024, 1017.374 560.886, 1014.775 562.104 C 1011.099 563.827, 1009.795 565.090, 1008.903 567.794 C 1007.304 572.640, 1008.532 581.465, 1011.645 587.500 C 1016.060 596.060, 1015.945 596, 1027.986 596 C 1038.622 596, 1038.667 595.990, 1040.081 593.250 C 1040.861 591.737, 1042.513 588.975, 1043.750 587.110 C 1046.758 582.579, 1046.907 574.131, 1044.026 571.523 C 1042.940 570.540, 1041.756 568.783, 1041.394 567.618 C 1040.143 563.581, 1037.010 560.225, 1032.526 558.117 C 1027.007 555.523, 1025.212 555.497, 1022 557.967" stroke="#83385f" fill="#83385f" fill-opacity="0.2" fill-rule="evenodd"/><path class="svg-region-ODMl" d="M 688.500 487.913 C 683.640 488.527, 675 492.540, 675 494.184 C 675 494.633, 674.325 495, 673.500 495 C 672.675 495, 672 495.457, 672 496.015 C 672 497.891, 665.535 500.992, 661.616 500.996 C 657.252 501, 650 502.919, 650 504.070 C 650 505.748, 667.919 521, 669.891 521 C 671.334 521, 675.089 522.756, 678.500 525.026 C 680.150 526.125, 682.288 527.296, 683.250 527.628 C 684.212 527.961, 685 528.582, 685 529.008 C 685 529.434, 686.117 530.063, 687.482 530.406 C 688.847 530.749, 691.434 532.301, 693.232 533.856 C 697.747 537.763, 701.956 538.990, 713 539.623 C 718.225 539.922, 723.822 540.585, 725.437 541.096 C 729.568 542.404, 730.381 541.157, 731.233 532.202 C 731.636 527.966, 732.243 522.121, 732.582 519.213 C 732.921 516.305, 732.902 512.746, 732.540 511.305 C 731.809 508.391, 719.390 495, 717.419 495 C 716.730 495, 716.017 494.623, 715.833 494.163 C 715.650 493.702, 713.520 491.902, 711.100 490.163 C 707.147 487.321, 706.029 487.014, 700.100 487.141 C 696.470 487.218, 691.250 487.566, 688.500 487.913" stroke="#999999" fill="#999999" fill-opacity="0.2" fill-rule="evenodd"/><path class="svg-region-ODMr" d="M 1142.500 475.698 C 1139.218 477.468, 1125.279 486.997, 1120.500 490.737 C 1118.850 492.028, 1116.508 493.853, 1115.296 494.792 C 1114.084 495.732, 1113.072 496.808, 1113.046 497.184 C 1113.021 497.560, 1111.596 500.125, 1109.880 502.885 C 1107.031 507.469, 1106.797 508.477, 1107.182 514.520 C 1107.457 518.833, 1108.108 521.456, 1109.052 522.053 C 1111.361 523.514, 1124.279 523.193, 1126.527 521.619 C 1127.612 520.860, 1130.750 518.989, 1133.500 517.463 C 1136.250 515.937, 1140.476 512.958, 1142.891 510.844 C 1145.306 508.730, 1147.936 507, 1148.736 507 C 1149.537 507, 1151.581 506.010, 1153.279 504.801 C 1155.061 503.532, 1156.516 503.049, 1156.720 503.659 C 1157.851 507.052, 1159.971 508.354, 1164.856 508.652 C 1169.606 508.941, 1170.551 508.586, 1177.424 503.922 C 1186.705 497.625, 1193.244 490.733, 1192.813 487.703 C 1192.529 485.705, 1191.928 485.500, 1186.359 485.500 C 1181.915 485.500, 1179.682 485.016, 1178.280 483.750 C 1177.214 482.788, 1175.628 482, 1174.754 482 C 1172.970 482, 1163.824 478.249, 1163.020 477.187 C 1160.424 473.757, 1147.797 472.841, 1142.500 475.698" stroke="#999999" fill="#999999" fill-opacity="0.2" fill-rule="evenodd"/>
    </svg>