<svg xmlns="http://www.w3.org/2000/svg" width="1921" height="1027" viewBox="0 0 1921 1027" version="1.1">
    <path class="svg-region-V" d="M 795 153.956 C 793.625 154.420, 789.774 154.845, 786.441 154.900 C 782.804 154.960, 779.606 155.587, 778.441 156.468 C 777.317 157.319, 774.264 157.950, 771.184 157.968 C 768.261 157.986, 764.886 158.533, 763.684 159.184 C 762.483 159.836, 759.700 160.689, 757.500 161.081 C 753.400 161.811, 735.943 167.890, 732.212 169.887 C 731.068 170.499, 729.314 171.035, 728.316 171.079 C 727.317 171.122, 724.475 172.468, 722 174.071 C 719.525 175.673, 716.263 177.482, 714.750 178.090 C 713.237 178.698, 712 179.592, 712 180.078 C 712 180.563, 710.087 181.933, 707.750 183.124 C 705.413 184.314, 701.947 186.461, 700.048 187.894 C 690.713 194.942, 671.402 216.113, 663.588 227.868 C 661.020 231.730, 658.106 235.149, 657.112 235.464 C 654.896 236.168, 650.448 245.012, 648.989 251.618 C 648.396 254.303, 646.812 258.617, 645.469 261.205 C 642.246 267.417, 641.673 273.670, 642.805 290.308 C 643.701 303.493, 643.878 304.282, 646.728 307.808 C 648.955 310.563, 650.702 311.646, 653.607 312.076 C 655.748 312.393, 660.650 314.123, 664.500 315.919 C 677.226 321.858, 679.036 322.307, 694 323.235 C 719.417 324.810, 719.853 324.790, 726.500 321.692 C 733.825 318.278, 739.344 313.121, 742.705 306.549 C 744.098 303.826, 746.042 300.451, 747.025 299.049 C 748.009 297.647, 749.085 294.925, 749.418 293 C 749.858 290.457, 750.973 288.885, 753.497 287.250 C 755.408 286.012, 757.413 285, 757.952 285 C 758.491 285, 760.410 284.370, 762.216 283.601 C 773.620 278.743, 773.636 278.739, 777.236 280.041 C 780.402 281.186, 781.185 281.034, 786.774 278.194 C 791.990 275.544, 793.338 275.238, 796.181 276.064 C 798.007 276.594, 804.225 277.300, 810 277.632 C 815.775 277.965, 823.641 279.083, 827.480 280.118 C 831.319 281.153, 836.048 282, 837.990 282 C 840.378 282, 842.400 282.816, 844.240 284.521 C 847.711 287.740, 857.970 290.970, 864.775 290.987 C 869.865 291, 870.072 291.108, 870.667 294.086 C 871.007 295.783, 872.008 297.391, 872.892 297.659 C 873.776 297.927, 875.252 298.545, 876.171 299.032 C 877.090 299.520, 883.840 300.412, 891.171 301.015 C 898.502 301.618, 907.650 302.808, 911.500 303.658 C 922.243 306.031, 929.468 306.459, 933.215 304.943 C 935.022 304.212, 936.725 303.362, 937 303.054 C 939.026 300.787, 946.096 297, 948.303 297 C 949.786 297, 955.111 296.290, 960.136 295.423 C 968.780 293.932, 976.556 293.955, 986.500 295.503 C 988.853 295.869, 992.765 295.527, 996 294.671 C 1001.334 293.260, 1001.641 293.291, 1006.168 295.722 C 1010.642 298.124, 1010.970 298.161, 1014.071 296.614 C 1018.777 294.267, 1022.877 294.616, 1030.340 298 C 1033.979 299.650, 1037.826 301, 1038.889 301 C 1039.953 301, 1043.360 303.477, 1046.461 306.505 C 1049.563 309.533, 1053.990 312.957, 1056.300 314.113 C 1058.610 315.269, 1061.850 317.494, 1063.500 319.057 C 1065.150 320.619, 1068.750 322.933, 1071.500 324.199 C 1075.872 326.211, 1078.070 326.500, 1089 326.500 C 1100.592 326.500, 1101.972 326.291, 1108 323.626 C 1111.926 321.891, 1117.272 320.478, 1121.500 320.058 C 1127.924 319.421, 1137.567 316.761, 1145.784 313.359 C 1147.590 312.612, 1150.740 311.993, 1152.784 311.985 C 1159.606 311.957, 1160.113 310.573, 1156.625 301.500 C 1155.780 299.300, 1155.068 295.423, 1155.044 292.885 C 1155.017 290.033, 1154.308 287.358, 1153.190 285.885 C 1150.717 282.627, 1148.005 272.156, 1147.979 265.765 C 1147.932 254.104, 1134.496 222.973, 1123.637 209.365 C 1113.303 196.415, 1090.610 180.866, 1074.500 175.698 C 1049.373 167.636, 1042.655 166.617, 1019.441 167.346 C 995.542 168.097, 983.004 169.282, 971.071 171.917 C 965.884 173.063, 959.584 174.010, 957.071 174.022 C 952.277 174.045, 946.029 176.413, 940.684 180.234 C 934.749 184.475, 931.008 185.413, 920 185.420 C 906.374 185.429, 898.173 183.404, 885 176.776 C 874.634 171.560, 873.276 170.732, 864.308 164.162 C 858.382 159.820, 853.214 157.976, 844 156.915 C 839.875 156.440, 834.250 155.550, 831.500 154.936 C 825.244 153.540, 798.365 152.818, 795 153.956" stroke="#dd8a8a" fill="#dd8a8a" fill-opacity="0.2" fill-rule="evenodd"/><path class="svg-region-SV" d="M 786.720 278.077 C 781.457 280.795, 780.598 280.960, 777.114 279.916 C 774.030 278.992, 772.630 279.056, 769.894 280.249 C 768.027 281.063, 764.475 282.499, 762 283.440 C 752.575 287.026, 750.561 288.522, 749.500 292.725 C 748.950 294.904, 747.326 298.445, 745.892 300.594 C 744.458 302.742, 742.743 305.895, 742.083 307.600 C 740.458 311.792, 733.593 318.244, 727.500 321.304 L 722.500 323.815 725.500 324.412 C 727.150 324.740, 732.325 325.881, 737 326.948 C 741.675 328.015, 749.155 329.091, 753.623 329.340 C 758.090 329.590, 762.638 330.271, 763.728 330.854 C 764.818 331.438, 770.838 332.403, 777.105 332.999 C 790.572 334.280, 800.149 336.324, 808.809 339.767 C 817.280 343.135, 827.072 343.801, 834.046 341.485 C 838.315 340.067, 841.289 339.837, 849.174 340.318 C 856.654 340.773, 860 340.553, 863.244 339.391 C 865.585 338.553, 871.319 337.463, 875.988 336.970 C 880.656 336.477, 884.631 335.607, 884.821 335.037 C 885.396 333.313, 908.214 333.695, 910.559 335.468 C 911.626 336.276, 913.878 336.951, 915.562 336.968 C 917.246 336.986, 920.487 337.900, 922.764 339 C 928.330 341.689, 939.578 341.848, 940.458 339.250 C 941.883 335.042, 945.070 334.141, 959.697 333.813 C 968.918 333.607, 974.166 333.879, 975.093 334.613 C 978.971 337.682, 990.666 338.877, 1022.100 339.415 L 1053.699 339.956 1054.850 337.431 C 1055.482 336.042, 1056 334.082, 1056 333.075 C 1056 331.560, 1057.309 331.048, 1063.575 330.116 C 1075.144 328.396, 1077.772 326.404, 1071.476 324.127 C 1069.538 323.427, 1065.897 321.074, 1063.385 318.901 C 1060.873 316.727, 1056.997 314.019, 1054.770 312.883 C 1052.544 311.747, 1048.514 308.609, 1045.814 305.909 C 1043.114 303.209, 1040.027 301, 1038.955 301 C 1037.883 301, 1034.148 299.650, 1030.656 298 C 1024.440 295.063, 1016.744 293.986, 1015.568 295.889 C 1014.171 298.150, 1009.931 297.983, 1006.209 295.519 C 1002.436 293.023, 1002.361 293.015, 996.453 294.569 C 992.841 295.519, 988.927 295.888, 986.500 295.507 C 976.599 293.955, 968.787 293.930, 960.136 295.423 C 955.111 296.290, 949.754 297, 948.232 297 C 946.710 297, 943.857 298.092, 941.893 299.427 C 931.368 306.579, 928.574 307.131, 916.500 304.441 C 909.134 302.800, 908.300 302.691, 890 300.980 C 883.675 300.389, 877.600 299.517, 876.500 299.043 C 875.400 298.569, 873.776 297.954, 872.892 297.677 C 872.008 297.399, 871.007 295.783, 870.667 294.086 C 870.072 291.109, 869.864 290.999, 864.775 290.985 C 857.802 290.966, 848.691 288.037, 845.200 284.691 C 843.115 282.694, 841.368 282, 838.425 282 C 836.244 282, 831.212 281.100, 827.243 280 C 823.273 278.900, 817.657 277.986, 814.763 277.969 C 809.280 277.937, 796.539 276.486, 793.978 275.602 C 793.165 275.322, 789.899 276.435, 786.720 278.077" stroke="#c666b5" fill="#c666b5" fill-opacity="0.2" fill-rule="evenodd"/><path class="svg-region-DB" d="M 1162.637 307.143 C 1161.613 307.739, 1159.925 309.075, 1158.887 310.113 C 1157.651 311.349, 1155.585 312, 1152.901 312 C 1150.647 312, 1147.384 312.597, 1145.651 313.326 C 1137.571 316.725, 1127.886 319.425, 1121.500 320.058 C 1117.272 320.478, 1111.926 321.891, 1108 323.626 C 1101.978 326.289, 1100.543 326.506, 1088.487 326.588 C 1080.719 326.641, 1074.603 327.142, 1073.312 327.833 C 1072.123 328.469, 1067.742 329.497, 1063.575 330.116 C 1056.832 331.119, 1056 331.480, 1056 333.399 C 1056 334.585, 1055.308 336.543, 1054.462 337.751 L 1052.923 339.948 1022.212 339.433 C 991.674 338.920, 978.904 337.613, 975.093 334.609 C 974.169 333.881, 968.889 333.607, 959.712 333.813 C 945.032 334.142, 941.757 335.040, 940.472 339.089 C 939.968 340.677, 938.906 340.997, 934.183 340.985 C 928.933 340.971, 921.979 339.312, 920.352 337.685 C 919.975 337.308, 918.054 336.986, 916.083 336.968 C 914.113 336.951, 911.626 336.276, 910.559 335.468 C 908.183 333.671, 885.395 333.314, 884.812 335.065 C 884.617 335.650, 880.642 336.502, 875.978 336.958 C 871.315 337.414, 865.585 338.491, 863.244 339.351 C 859.953 340.561, 856.762 340.780, 849.174 340.318 C 841.277 339.837, 838.317 340.066, 834.024 341.492 C 827.215 343.754, 817.878 343.090, 808.947 339.709 C 800.343 336.452, 789.745 334.202, 777 332.926 C 771.225 332.348, 764.572 331.229, 762.215 330.438 C 759.858 329.647, 754.843 329, 751.070 329 C 746.862 329, 741.561 328.173, 737.355 326.859 C 732.676 325.398, 727.167 324.617, 720 324.400 C 701.960 323.854, 679.588 322.327, 677.500 321.498 C 675.530 320.717, 673.250 319.725, 661.626 314.593 C 658.395 313.167, 654.499 312, 652.969 312 C 650.466 312, 650.009 312.564, 648.425 317.598 C 647.206 321.474, 645.947 323.523, 644.332 324.258 C 643.050 324.843, 642 325.666, 642 326.089 C 642 326.511, 639.638 327.757, 636.750 328.858 C 627.757 332.286, 622.689 335.120, 617.250 339.762 L 612 344.243 612 352.443 C 612 357.288, 612.645 362.538, 613.577 365.273 C 615.519 370.971, 622.889 378.806, 629.338 382.026 C 632.246 383.478, 634.272 385.235, 634.615 386.601 C 634.921 387.821, 634.760 394.598, 634.257 401.660 C 633.377 414.009, 633.211 414.685, 629.921 419.338 C 628.039 421.999, 626.050 424.940, 625.500 425.874 C 624.950 426.808, 623.458 428.681, 622.184 430.036 C 620.026 432.332, 619.069 434.116, 616.141 441.297 C 614.758 444.689, 614.658 450.394, 615.940 452.764 C 616.456 453.719, 617.140 455.738, 617.459 457.250 C 617.777 458.762, 618.705 460, 619.519 460 C 620.334 460, 621 460.367, 621 460.816 C 621 462.601, 628.928 466.001, 633.136 466.020 C 637.122 466.038, 637.890 465.605, 642 461.014 C 645.870 456.692, 647.269 455.836, 652 454.894 C 655.025 454.291, 659.300 453.413, 661.500 452.943 C 670.321 451.056, 682.781 452.495, 691.500 456.406 C 696.219 458.523, 705.841 459.226, 711.224 457.846 L 716 456.622 716 447.499 C 716 435.162, 719.786 423.506, 727.532 412 C 729.198 409.525, 731.201 406.233, 731.984 404.685 C 733.956 400.785, 742.360 393.340, 747.350 391.074 C 749.632 390.037, 753.750 388.863, 756.500 388.464 C 759.250 388.066, 762.637 387.164, 764.026 386.460 C 765.609 385.658, 773.072 384.935, 784.026 384.522 C 793.637 384.159, 802.400 383.481, 803.500 383.015 C 807.163 381.462, 814.409 380.147, 823 379.477 C 831.440 378.818, 846.995 375.570, 858.500 372.063 C 864.944 370.099, 875.536 367.741, 886 365.940 C 894.106 364.545, 957.123 362.737, 974.055 363.414 C 982.550 363.754, 987.562 364.413, 989.555 365.452 C 991.175 366.297, 993.403 366.990, 994.506 366.994 C 995.609 366.997, 997.824 368.575, 999.429 370.500 L 1002.348 374 1013.424 373.999 C 1019.516 373.998, 1028.325 373.323, 1033 372.500 C 1044.945 370.396, 1069.298 370.441, 1071.429 372.571 C 1072.293 373.436, 1073 374.554, 1073 375.057 C 1073 376.559, 1084.706 382, 1087.938 382 C 1090.964 382, 1096.957 386.840, 1098.316 390.380 C 1098.658 391.271, 1099.368 392, 1099.895 392 C 1100.422 392, 1101.504 393.238, 1102.299 394.750 C 1107.865 405.341, 1111.836 412.247, 1115.159 417.115 C 1117.271 420.210, 1119 423.251, 1119 423.871 C 1119 424.492, 1119.450 425, 1120 425 C 1120.550 425, 1121.012 425.563, 1121.026 426.250 C 1121.040 426.938, 1123.341 429.054, 1126.140 430.953 C 1128.938 432.852, 1131.699 435.439, 1132.274 436.703 C 1133.645 439.710, 1135.593 439.578, 1140.674 436.134 C 1144.881 433.282, 1151.468 431.606, 1170.707 428.495 C 1181.162 426.804, 1185.423 427.682, 1195.007 433.504 L 1200.853 437.056 1203.381 434.528 C 1204.772 433.138, 1206.763 432, 1207.806 432 C 1209.951 432, 1218.558 427.660, 1221.333 425.179 C 1223.832 422.944, 1226 417.462, 1226 413.378 C 1226 410.100, 1225.881 410, 1221.973 410 C 1218.456 410, 1217.384 409.398, 1213.519 405.250 C 1210.619 402.137, 1208.881 399.242, 1208.476 396.851 C 1207.727 392.426, 1203.733 387.745, 1199 385.744 C 1195.733 384.364, 1192.574 381.716, 1189 377.361 C 1187.890 376.008, 1187.519 373.099, 1187.573 366.164 L 1187.646 356.794 1191.867 352.897 C 1194.188 350.754, 1196.974 349, 1198.058 349 C 1199.200 349, 1200.882 347.633, 1202.055 345.750 C 1204.931 341.135, 1203.923 330.155, 1200.128 324.771 C 1198.683 322.721, 1197.091 321.033, 1196.591 321.021 C 1196.091 321.010, 1193.841 319.048, 1191.591 316.662 C 1186.233 310.980, 1181.107 308, 1176.691 308 C 1174.726 308, 1172.840 307.550, 1172.500 307 C 1171.682 305.676, 1164.994 305.774, 1162.637 307.143" stroke="#e8b1e4" fill="#e8b1e4" fill-opacity="0.2" fill-rule="evenodd"/><path class="svg-region-MB" d="M 917.500 364.035 C 886.442 364.936, 883.598 365.383, 846.500 375.177 C 840.450 376.775, 831.450 378.497, 826.500 379.006 C 814.718 380.215, 803 382.230, 803 383.047 C 803 383.403, 794.835 384.011, 784.857 384.396 C 773.076 384.851, 765.799 385.561, 764.107 386.421 C 762.673 387.149, 758.963 388.054, 755.862 388.431 C 752.761 388.808, 749.386 389.751, 748.362 390.526 C 747.338 391.302, 745.917 391.951, 745.205 391.968 C 744.492 391.986, 742.839 393.012, 741.532 394.250 C 740.224 395.488, 737.770 397.730, 736.077 399.234 C 734.385 400.738, 733 402.425, 733 402.984 C 733 403.543, 732.550 404, 732 404 C 731.450 404, 731 404.706, 731 405.570 C 731 406.433, 729.541 409.246, 727.759 411.820 C 723.028 418.651, 721.573 421.608, 718.637 430.364 C 716.496 436.749, 716 440.086, 716 448.114 C 716 454.713, 716.370 458, 717.114 458 C 717.727 458, 722.692 460.925, 728.149 464.500 C 733.605 468.075, 738.391 471.008, 738.785 471.017 C 739.880 471.043, 749 479.822, 749 480.851 C 749 481.348, 749.773 483.498, 750.719 485.628 C 751.664 487.758, 752.453 490.164, 752.471 490.975 C 752.494 491.995, 754.704 492.896, 759.632 493.893 C 767.271 495.439, 767.511 495.410, 796.945 489.263 C 804.915 487.599, 805.434 487.331, 806.175 484.500 C 806.622 482.795, 808.803 479.992, 811.230 478.006 C 817.923 472.530, 823.711 466.460, 825.454 463.089 C 826.333 461.390, 827.419 460, 827.868 460 C 828.645 460, 829.869 457.779, 833.777 449.284 C 834.725 447.224, 836.760 443.744, 838.300 441.550 C 839.840 439.356, 841.933 435.679, 842.950 433.380 C 843.979 431.053, 845.732 428.903, 846.900 428.532 C 849.012 427.861, 849.533 426.866, 848.376 425.710 C 847.405 424.739, 840.646 428.592, 839.242 430.917 C 838.505 432.137, 836.947 433, 835.483 433 C 833.037 433, 832.995 432.875, 833.574 427.250 C 834.101 422.130, 834.629 421.062, 838.391 417.500 C 840.715 415.300, 844.997 410.456, 847.906 406.735 C 853.008 400.211, 862.903 392, 865.663 392 C 866.411 392, 867 390.933, 867 389.577 C 867 386.354, 870.756 382.048, 876.129 379.109 C 879.935 377.028, 883.022 376.523, 900 375.208 C 921.817 373.518, 925.285 373.430, 956.750 373.764 C 977.463 373.984, 979 374.125, 979 375.809 C 979 376.804, 979.661 378.491, 980.468 379.559 C 982.746 382.570, 982.350 382.998, 977.250 383.034 C 974.638 383.053, 970.700 383.937, 968.500 385 C 966.300 386.063, 963.600 386.961, 962.500 386.996 C 961.207 387.038, 962.622 388.283, 966.500 390.518 C 971.048 393.138, 973.663 393.978, 977.306 393.987 C 981.366 393.998, 982.540 394.467, 984.861 397.008 C 987.476 399.872, 993 413.630, 993 417.280 C 993 418.380, 993.811 419.021, 995.250 419.058 C 996.487 419.089, 999.750 420.182, 1002.500 421.486 C 1008.964 424.551, 1006.991 425.469, 995.480 424.750 L 987.113 424.228 991.057 430.472 C 993.225 433.906, 995 437.075, 995 437.514 C 995 437.952, 996.148 439.816, 997.551 441.656 C 999.371 444.042, 1000.903 445, 1002.896 445 C 1005.840 445, 1007.642 446.616, 1010.043 451.407 C 1010.844 453.007, 1013.650 456.157, 1016.278 458.407 C 1021.460 462.845, 1030 473.142, 1030 474.952 C 1030 475.568, 1031.679 474.931, 1033.732 473.536 C 1037.582 470.920, 1041.417 470.248, 1042.500 472 C 1043.961 474.364, 1045 472.636, 1045 467.844 C 1045 463.665, 1045.981 460.679, 1050.173 452.094 C 1053.018 446.267, 1055.651 441.275, 1056.023 441 C 1057.396 439.987, 1059 436.062, 1059 433.715 C 1059 429.183, 1061.150 425.070, 1064.650 422.908 C 1067.679 421.035, 1069.231 420.814, 1076.812 421.177 C 1083.529 421.498, 1086.011 422.029, 1087.750 423.518 C 1088.988 424.578, 1090 426.039, 1090 426.765 C 1090 427.491, 1092.025 430.251, 1094.500 432.897 C 1096.975 435.543, 1099 438.138, 1099 438.665 C 1099 439.192, 1101.601 442.460, 1104.779 445.927 L 1110.559 452.230 1115.029 449.222 C 1117.488 447.567, 1122.537 444.719, 1126.250 442.892 C 1129.963 441.065, 1133 438.972, 1133 438.240 C 1133 436.841, 1131.271 435.047, 1123.645 428.532 C 1121.090 426.350, 1119 424.218, 1119 423.794 C 1119 423.370, 1116.578 419.081, 1113.618 414.262 C 1110.658 409.443, 1107.620 404.321, 1106.868 402.881 C 1102.696 394.894, 1100.930 392.187, 1099.543 391.655 C 1098.694 391.329, 1098 390.614, 1098 390.065 C 1098 389.516, 1096.410 387.477, 1094.467 385.533 C 1092.018 383.085, 1090.027 382, 1087.981 382 C 1084.390 382, 1073 376.209, 1073 374.382 C 1073 373.661, 1072.130 372.605, 1071.066 372.035 C 1068.149 370.474, 1042.740 370.784, 1033 372.500 C 1028.325 373.323, 1019.649 373.998, 1013.719 373.999 L 1002.939 374 999.866 370.500 C 998.124 368.516, 995.851 367, 994.619 367 C 993.423 367, 991.356 366.237, 990.025 365.305 C 987.942 363.846, 984.473 363.590, 965.053 363.460 C 952.649 363.378, 931.250 363.636, 917.500 364.035" stroke="#f9c6c6" fill="#f9c6c6" fill-opacity="0.2" fill-rule="evenodd"/><path class="svg-region-LBr" d="M 1065 422.219 C 1062.046 423.766, 1059.004 429.367, 1059.002 433.264 C 1059 435.805, 1057.385 439.797, 1055.871 441 C 1055.525 441.275, 1052.938 446.286, 1050.121 452.135 C 1045.886 460.929, 1045 463.714, 1045 468.221 L 1045 473.673 1052.750 475.308 C 1066.056 478.116, 1073.364 478.143, 1083.500 475.424 C 1102.461 470.336, 1101.234 471.015, 1103.531 464.343 C 1104.656 461.076, 1106.612 456.949, 1107.878 455.172 L 1110.179 451.940 1106.381 447.720 C 1104.292 445.399, 1101.776 442.628, 1100.791 441.561 C 1099.806 440.495, 1099 439.125, 1099 438.517 C 1099 437.909, 1097.200 435.481, 1095 433.122 C 1092.800 430.763, 1091 428.443, 1091 427.968 C 1091 427.492, 1089.850 425.862, 1088.444 424.345 C 1086.070 421.783, 1085.237 421.564, 1076.694 421.248 C 1070.460 421.018, 1066.695 421.331, 1065 422.219" stroke="#d7b230" fill="#d7b230" fill-opacity="0.2" fill-rule="evenodd"/><path class="svg-region-PP" d="M 987.068 445.170 C 985.771 445.650, 982.432 447.715, 979.649 449.758 C 976.865 451.801, 971.868 454.853, 968.544 456.541 C 960.222 460.766, 957.975 462.152, 955.307 464.702 C 952.554 467.335, 947.156 468.971, 941 469.038 C 936.164 469.091, 931.854 469.884, 922.701 472.403 C 916.112 474.218, 909.737 474.465, 907.021 473.011 C 903.694 471.231, 877.869 465, 873.817 465 C 870.914 465, 867.947 463.841, 862.680 460.650 C 851.037 453.596, 845.687 451, 842.789 451 C 837.242 451, 829.224 456.907, 824.466 464.500 C 822.516 467.611, 820.030 470.167, 811.050 478.294 C 806.197 482.686, 805.799 483.373, 806.305 486.493 C 806.609 488.366, 807.602 491.608, 808.512 493.699 C 812.521 502.908, 813 504.124, 813 505.089 C 813 505.650, 813.885 508.053, 814.967 510.429 C 816.050 512.804, 817.409 516.863, 817.988 519.448 C 819.203 524.866, 823.118 533.023, 825.422 534.935 C 826.446 535.785, 827 537.880, 827 540.900 C 827 543.480, 827.689 546.538, 828.546 547.762 C 829.396 548.975, 830.703 553.688, 831.451 558.234 C 832.199 562.780, 833.333 567.845, 833.972 569.490 C 836.483 575.957, 831.592 584.235, 824.470 585.572 C 818.944 586.608, 821.517 588, 828.959 588 C 835.119 588, 836.316 588.348, 841 591.500 C 843.861 593.425, 847.035 595, 848.053 595 C 850.526 595, 855.237 597.138, 856.583 598.870 C 857.757 600.381, 866.540 603.998, 869.039 603.999 C 870.719 604, 875.525 606.358, 881 609.867 C 885.240 612.585, 893.483 612.453, 899 609.580 C 901.925 608.056, 905.295 607.719, 919.500 607.530 C 935.457 607.318, 936.838 607.146, 942 604.716 C 945.025 603.293, 949.975 601.492, 953 600.716 C 973.459 595.461, 979.169 593.528, 982.185 590.835 C 983.931 589.276, 985.729 588, 986.180 588 C 986.631 588, 987 587.386, 987 586.636 C 987 584.328, 991.768 580.347, 998.607 576.947 C 1002.197 575.162, 1004.734 573.431, 1004.244 573.100 C 1003.755 572.770, 1003.082 571.760, 1002.749 570.855 C 1001.875 568.481, 1003.636 545.549, 1004.868 543.246 C 1005.440 542.177, 1006.046 539.322, 1006.215 536.902 C 1006.496 532.858, 1006.805 532.408, 1010.004 531.371 C 1013.814 530.136, 1013.495 531.069, 1021.913 496.500 C 1025.589 481.406, 1025.766 480.878, 1027.916 478.589 C 1029.062 477.369, 1030 475.800, 1030 475.101 C 1030 473.139, 1021.620 462.983, 1016.105 458.261 C 1013.382 455.930, 1010.352 452.202, 1009.370 449.978 C 1008.300 447.552, 1006.769 445.770, 1005.543 445.523 C 1000.865 444.582, 989.258 444.360, 987.068 445.170" stroke="#c4743d" fill="#c4743d" fill-opacity="0.2" fill-rule="evenodd"/><path class="svg-region-LPl" d="M 795.500 489.512 C 768.270 495.295, 767.515 495.376, 758.221 493.530 L 749.562 491.811 746.404 495.256 L 743.247 498.701 743.551 517.101 C 743.867 536.249, 744.543 541.654, 747.866 551.576 C 748.958 554.834, 750.352 559.969, 750.965 562.987 C 751.579 566.005, 752.748 569.492, 753.563 570.737 C 754.740 572.534, 754.773 573, 753.723 573 C 752.995 573, 751.860 572.460, 751.200 571.800 C 750.540 571.140, 750 571.032, 750 571.559 C 750 572.954, 758.064 577.515, 769 582.306 C 770.375 582.908, 772.896 584.684, 774.601 586.253 L 777.703 589.104 784.601 587.889 C 788.396 587.221, 792.400 585.934, 793.500 585.028 C 796.905 582.225, 800.873 581, 806.547 581 C 812.578 581, 813.690 579.461, 809.976 576.250 C 801.986 569.343, 800.678 565.750, 803.481 558.409 C 805.921 552.022, 815.591 544, 820.852 544 C 822.913 544, 825.140 544.540, 825.800 545.200 C 826.733 546.133, 827 545.321, 827 541.544 C 827 537.991, 826.370 535.859, 824.648 533.594 C 821.060 528.874, 819.113 524.626, 817.866 518.800 C 817.242 515.885, 815.892 511.932, 814.866 510.015 C 813.839 508.098, 813 505.976, 813 505.299 C 813 504.622, 812.352 502.590, 811.560 500.784 C 810.768 498.978, 809.357 495.363, 808.424 492.750 C 806.502 487.368, 806.089 487.264, 795.500 489.512" stroke="#d2454f" fill="#d2454f" fill-opacity="0.2" fill-rule="evenodd"/><path class="svg-region-LPr" d="M 1098 471.171 C 1096.625 471.700, 1090.775 473.417, 1085 474.986 C 1075.247 477.636, 1073.788 477.781, 1064.500 477.020 C 1059 476.569, 1053.233 475.706, 1051.685 475.100 C 1050.137 474.495, 1047.829 474, 1046.557 474 C 1045.285 474, 1043.685 473.325, 1043 472.500 C 1040.963 470.045, 1037.653 470.765, 1031.839 474.929 C 1025.904 479.179, 1026.489 477.870, 1021.074 499 C 1018.387 509.482, 1013.960 528.670, 1013.978 529.750 C 1013.991 530.473, 1015.291 531, 1017.066 531 C 1021.085 531, 1022.944 532.073, 1029.517 538.192 L 1035 543.294 1035 549.682 C 1035 553.825, 1034.444 556.919, 1033.417 558.486 C 1032.546 559.815, 1032.107 561.761, 1032.440 562.810 C 1033.365 565.726, 1032.070 567.963, 1028.624 569.401 L 1025.500 570.705 1029.500 572.541 C 1032.359 573.853, 1036.637 574.491, 1044.500 574.780 C 1050.550 575.001, 1055.982 575.580, 1056.571 576.065 C 1057.250 576.624, 1059.447 575.311, 1062.571 572.478 C 1065.282 570.020, 1067.768 568.007, 1068.094 568.004 C 1068.421 568.002, 1069.996 566.876, 1071.594 565.501 C 1073.193 564.127, 1074.969 563.002, 1075.541 563.001 C 1076.114 563.001, 1078.306 561.087, 1080.412 558.750 C 1082.518 556.413, 1088.237 550.409, 1093.121 545.409 C 1100.800 537.546, 1101.998 535.857, 1101.985 532.909 C 1101.977 531.034, 1101.415 528.549, 1100.735 527.386 C 1094.529 516.762, 1094.694 517.485, 1095.278 503.528 C 1095.716 493.052, 1096.234 489.672, 1097.924 486.273 C 1100.671 480.745, 1102.637 472.220, 1101.427 471.082 C 1100.898 470.584, 1099.426 470.622, 1098 471.171" stroke="#d2454f" fill="#d2454f" fill-opacity="0.2" fill-rule="evenodd"/><path class="svg-region-DMl" d="M 655 454.069 C 647.120 455.922, 646.139 456.443, 641.544 461.210 C 637.784 465.111, 636.444 467.336, 635.992 470.426 C 634.948 477.575, 635.133 477.821, 653.500 493.571 C 655.150 494.986, 658.075 497.331, 660 498.784 C 661.925 500.236, 664.266 502.116, 665.202 502.962 C 666.138 503.808, 667.493 504.950, 668.212 505.500 C 674.087 509.990, 679.857 514.915, 681.686 517 C 683.488 519.055, 684.201 519.299, 685.689 518.370 C 687.140 517.465, 687.480 516.012, 687.400 511.070 C 687.346 507.677, 686.783 504.383, 686.150 503.750 C 684.465 502.065, 684.733 500.184, 687.138 496.807 C 688.946 494.267, 689.739 493.898, 692.287 494.407 C 694.574 494.865, 696.089 494.407, 698.583 492.505 C 700.389 491.127, 702.291 490, 702.811 490 C 703.330 490, 704.373 489.252, 705.128 488.337 C 707.120 485.923, 713.734 483.233, 719.575 482.460 C 723.874 481.891, 725.434 482.186, 729.781 484.389 C 736.476 487.782, 738.663 490.256, 740.713 496.757 L 742.400 502.110 744.135 498.729 C 745.089 496.869, 747.471 494.256, 749.428 492.924 C 751.385 491.591, 752.989 490.258, 752.993 489.961 C 752.997 489.665, 752.100 487.658, 751 485.500 C 749.900 483.342, 749 481.094, 749 480.504 C 749 479.156, 739.798 471.472, 733.427 467.500 C 716.057 456.670, 715.654 456.502, 710.627 458 C 705.712 459.464, 698.674 458.581, 689 455.286 C 678.757 451.796, 666.525 451.359, 655 454.069 M 741.151 533.621 C 740.410 536.304, 739.623 539.190, 739.403 540.034 C 739.183 540.877, 737.652 542.365, 736.001 543.340 C 734.351 544.315, 733 545.474, 733 545.914 C 733 546.355, 730.224 547.005, 726.831 547.360 C 723.438 547.715, 720.401 548.266, 720.082 548.585 C 718.237 550.430, 749.768 573, 754.190 573 C 754.658 573, 754.192 571.313, 753.156 569.250 C 752.119 567.188, 750.977 563.700, 750.618 561.500 C 750.260 559.300, 748.869 553.900, 747.529 549.500 C 746.188 545.100, 744.508 538.629, 743.795 535.121 L 742.500 528.742 741.151 533.621" stroke="#68533d" fill="#68533d" fill-opacity="0.2" fill-rule="evenodd"/><path class="svg-region-DMr" d="M 1172 428.136 C 1156.845 430.613, 1145.197 433.345, 1142.500 435.056 C 1140.850 436.102, 1138.375 437.447, 1137 438.043 C 1126.377 442.651, 1113.233 449.978, 1110.053 453.064 C 1105.821 457.172, 1102 465.968, 1102 471.605 C 1102 474.807, 1102.209 475.070, 1104.250 474.433 C 1105.487 474.046, 1106.725 473.412, 1107 473.022 C 1107.275 472.633, 1109.041 472.014, 1110.924 471.647 C 1112.808 471.280, 1116.717 469.860, 1119.612 468.490 C 1122.531 467.109, 1126.686 466, 1128.938 466 C 1131.172 466, 1133 465.550, 1133 465 C 1133 464.424, 1136.115 464, 1140.345 464 C 1148.360 464, 1149.560 464.687, 1151.902 470.619 C 1152.580 472.334, 1154.679 475.235, 1156.567 477.065 C 1158.455 478.895, 1160 480.979, 1160 481.696 C 1160 484.015, 1161.984 483.095, 1166.897 478.500 C 1169.543 476.025, 1171.998 474, 1172.354 474 C 1173.827 474, 1172.792 475.907, 1169.452 479.347 C 1164.367 484.583, 1166.522 483.855, 1174.901 477.508 C 1178.888 474.487, 1182.679 471.674, 1183.325 471.258 C 1183.971 470.841, 1186.288 468.250, 1188.473 465.500 C 1190.658 462.750, 1193.246 459.912, 1194.224 459.192 C 1199.111 455.599, 1205.929 448.133, 1206.537 445.708 C 1207.232 442.941, 1205.548 439.543, 1203.967 440.521 C 1203.523 440.795, 1202.111 439.726, 1200.830 438.145 C 1197.122 433.573, 1183.063 426.637, 1178.500 427.130 C 1177.950 427.189, 1175.025 427.642, 1172 428.136" stroke="#68533d" fill="#68533d" fill-opacity="0.2" fill-rule="evenodd"/><path class="svg-region-VMl" d="M 797.326 582.395 C 795.581 583.031, 793.329 584.297, 792.322 585.209 C 791.315 586.120, 788.130 587.179, 785.245 587.562 C 782.360 587.945, 780 588.646, 780 589.120 C 780 589.595, 781.580 592.053, 783.512 594.583 C 785.443 597.114, 788.226 601.280, 789.695 603.842 C 791.164 606.404, 794.046 610.361, 796.098 612.636 C 798.151 614.910, 800.541 618.145, 801.409 619.825 C 802.278 621.504, 803.782 623.468, 804.752 624.189 C 806.295 625.336, 810.864 630.639, 817.500 638.985 C 818.600 640.368, 822.200 644.249, 825.500 647.610 C 831.004 653.214, 831.940 653.770, 836.819 654.321 C 839.744 654.652, 843.526 655.615, 845.222 656.461 C 848.533 658.112, 852.206 658.467, 853.407 657.250 C 853.814 656.837, 860.302 655.990, 867.824 655.366 C 883.498 654.066, 895.165 652.002, 899.500 649.763 C 901.150 648.911, 905.650 647.435, 909.500 646.484 C 913.350 645.533, 917.063 644.305, 917.750 643.755 C 919.550 642.315, 919.231 638.856, 917.056 636.250 C 915.393 634.256, 914.257 634, 907.068 634 C 899.676 634, 898.183 633.639, 890.228 629.927 C 885.428 627.687, 880.150 625.587, 878.500 625.260 C 874.242 624.418, 863.737 618.458, 862.242 616.037 C 861.429 614.722, 859.923 614, 857.992 614 C 855.601 614, 855 613.570, 855 611.859 C 855 609.365, 847.385 601.570, 843.875 600.470 C 842.569 600.061, 840.228 598.663, 838.673 597.363 C 836.542 595.582, 834.635 595, 830.923 595 C 825.522 595, 822 592.634, 822 589.005 C 822 587.620, 820.621 586.362, 817.487 584.889 C 815.005 583.722, 812.729 582.370, 812.428 581.884 C 811.663 580.646, 801.150 581.002, 797.326 582.395" stroke="#e59376" fill="#e59376" fill-opacity="0.2" fill-rule="evenodd"/><path class="svg-region-VMr" d="M 1021 572 C 1020.175 572.533, 1018.074 572.976, 1016.332 572.985 C 1012.078 573.005, 1010.022 573.893, 1010.620 575.451 C 1010.891 576.159, 1010.300 577.032, 1009.307 577.393 C 1005.731 578.692, 1002.062 581.105, 1000.298 583.318 C 999.309 584.557, 997.548 586.231, 996.386 587.036 C 993.231 589.220, 980 601.725, 980 602.522 C 980 603.463, 975.289 607.097, 971.290 609.240 C 969.485 610.208, 966.392 611, 964.417 611 C 961.990 611, 959.316 612.053, 956.163 614.250 C 953.599 616.038, 951.350 617.837, 951.167 618.250 C 950.983 618.663, 950.394 619, 949.858 619 C 948.561 619, 941.253 624.709, 937.500 628.653 C 934.813 631.478, 933.563 631.928, 925.515 632.972 C 920.573 633.613, 916.338 634.328, 916.104 634.562 C 915.870 634.796, 916.426 635.813, 917.339 636.823 C 919.428 639.130, 919.459 641.836, 917.422 644.087 C 915.983 645.677, 915.988 646.052, 917.482 648.331 C 919.862 651.965, 921.577 652.226, 924.867 649.458 C 928.446 646.447, 930.371 646.257, 929.500 649 C 928.987 650.616, 929.320 651, 931.233 651 C 932.535 651, 934.098 650.502, 934.707 649.893 C 935.517 649.083, 937.710 649.124, 942.870 650.046 C 950.781 651.460, 953 650.664, 953 646.413 C 953 645.124, 953.788 643.655, 954.750 643.147 C 957.405 641.745, 968.491 639.034, 978 637.460 C 982.675 636.687, 988.525 635.546, 991 634.924 C 998.679 632.997, 1005.950 632.664, 1007.815 634.154 C 1011.131 636.803, 1014.153 638.086, 1015.813 637.550 C 1016.741 637.250, 1019.181 633.914, 1021.235 630.137 C 1023.289 626.361, 1025.651 622.704, 1026.485 622.013 C 1027.318 621.321, 1028 620.214, 1028 619.552 C 1028 618.890, 1029.125 617.292, 1030.500 616 C 1031.875 614.708, 1033 613.085, 1033 612.393 C 1033 611.701, 1033.944 610.835, 1035.099 610.469 C 1036.329 610.078, 1038.191 607.672, 1039.601 604.651 C 1041.951 599.614, 1045.640 593.657, 1053.306 582.521 C 1055.400 579.480, 1056.836 576.543, 1056.497 575.996 C 1056.156 575.443, 1051.473 575, 1045.978 575 C 1038.432 575, 1034.866 574.524, 1031 573 C 1025.364 570.779, 1023.222 570.564, 1021 572" stroke="#e59376" fill="#e59376" fill-opacity="0.2" fill-rule="evenodd"/><path class="svg-region-Ol" d="M 445.500 346.499 C 442.750 347.217, 438.025 348.355, 435 349.029 C 428.827 350.404, 421.264 352.673, 419 353.829 C 418.175 354.250, 414.800 355.415, 411.500 356.419 C 408.200 357.422, 403.925 358.896, 402 359.693 C 398.675 361.070, 385.061 368.843, 384 369.969 C 383.725 370.261, 380.575 372.517, 377 374.982 C 367.180 381.754, 366.536 382.325, 351.697 397.440 C 338.730 410.648, 324.797 426.717, 320.431 433.500 C 319.369 435.150, 317.037 437.978, 315.250 439.783 C 313.462 441.589, 310.824 445.414, 309.386 448.283 C 307.948 451.153, 306.194 454.175, 305.487 455 C 304.410 456.257, 302.172 460.223, 295.894 472 C 284.561 493.262, 273.020 525.025, 269.059 545.857 C 266.412 559.774, 266.269 561.067, 265.451 578.439 C 264.863 590.952, 264.972 592.507, 266.523 593.641 C 267.541 594.385, 267.996 595.567, 267.632 596.517 C 266.520 599.414, 270.905 620.074, 273.810 625.628 C 274.349 626.658, 276.974 633.531, 279.645 640.903 C 282.674 649.266, 285.534 655.416, 287.250 657.258 C 288.763 658.883, 290 660.791, 290 661.499 C 290 662.207, 290.675 663.045, 291.500 663.362 C 292.325 663.678, 293 664.990, 293 666.277 C 293 667.565, 294.575 671.233, 296.500 674.430 C 298.425 677.627, 300 680.463, 300 680.733 C 300 681.945, 319.693 710.497, 324.118 715.702 C 337.978 732, 350.161 743.428, 364 753.111 C 387.909 769.840, 411.856 777.573, 442.268 778.387 C 459.206 778.840, 493.340 776.451, 502 774.206 C 506.125 773.137, 512.875 771.707, 517 771.029 C 521.125 770.351, 525.625 769.416, 527 768.950 C 530.075 767.910, 542.938 764.665, 553 762.391 C 557.125 761.459, 561.400 760.224, 562.500 759.648 C 563.600 759.071, 566.750 758.295, 569.500 757.923 C 572.250 757.550, 575.850 756.762, 577.500 756.171 C 583.032 754.191, 591.408 752.065, 604 749.446 C 610.875 748.016, 618.364 746.453, 620.642 745.973 C 622.921 745.493, 629.896 744.381, 636.142 743.502 C 654.549 740.910, 661.300 739.049, 678.103 731.935 C 688.614 727.485, 697.822 720.469, 701.820 713.865 C 703.031 711.865, 705.817 708.266, 708.011 705.865 C 710.205 703.465, 712 701.131, 712 700.680 C 712 700.228, 714.012 697.038, 716.472 693.592 C 720.498 687.950, 722.238 684.138, 725.858 673.036 C 727.726 667.309, 729.513 643.369, 728.269 640.752 C 727.680 639.513, 726.483 634.225, 725.607 629 C 724.732 623.775, 723.084 616.350, 721.943 612.500 C 720.803 608.650, 719.205 602.867, 718.392 599.648 C 716.798 593.340, 710.247 576.106, 708.852 574.550 C 708.383 574.028, 708 572.964, 708 572.188 C 708 570.016, 696.634 547.105, 695.500 546.991 C 694.020 546.842, 686 534.369, 686 532.218 C 686 531.200, 683.188 527.209, 679.750 523.348 C 673.140 515.924, 672.659 515.371, 661.198 502.011 C 657.181 497.330, 652.266 492.264, 650.274 490.754 C 643.960 485.964, 636 477.897, 636 476.287 C 636 474.669, 626.065 465.105, 618.111 459.068 C 615.575 457.143, 612.375 454.507, 611 453.211 C 606.519 448.985, 600.187 445, 597.955 445 C 596.747 445, 594.591 443.617, 593.135 441.908 C 591.686 440.208, 587.500 435.596, 583.832 431.658 C 575.464 422.674, 571.671 417.962, 567.202 411 C 564.088 406.150, 561.161 402.943, 555.462 398.140 C 554.455 397.291, 552.720 397.006, 550.843 397.381 C 547.158 398.118, 544.851 396.952, 540.555 392.179 C 535.685 386.768, 530 379.129, 530 377.994 C 530 377.451, 528.425 375.262, 526.500 373.132 C 524.575 371.001, 523 368.780, 523 368.196 C 523 367.612, 521.087 365.594, 518.750 363.712 C 509.379 356.168, 489.368 348.059, 476.168 346.458 C 466.260 345.256, 450.180 345.278, 445.500 346.499" stroke="#aa444d" fill="#aa444d" fill-opacity="0.2" fill-rule="evenodd"/><path class="svg-region-Or" d="M 1396.978 308.356 C 1396.711 308.623, 1392.669 309.085, 1387.996 309.382 C 1377.440 310.053, 1366.897 312.144, 1361 314.736 C 1358.525 315.824, 1353.800 317.492, 1350.500 318.444 C 1338.053 322.033, 1329.211 327.784, 1315.156 341.429 C 1305.976 350.342, 1303.063 354.580, 1298.369 365.853 C 1297.143 368.797, 1294.333 373.349, 1292.124 375.968 C 1289.916 378.587, 1287.103 382.703, 1285.875 385.115 C 1284.646 387.527, 1282.454 391.075, 1281.004 393 C 1279.554 394.925, 1277.130 398.656, 1275.617 401.291 C 1274.105 403.927, 1270.892 408.307, 1268.477 411.026 C 1266.063 413.744, 1263.583 416.911, 1262.966 418.063 C 1260.663 422.366, 1257.896 425.339, 1241.613 441 C 1237.324 445.125, 1233.397 449.276, 1232.886 450.225 C 1231.706 452.415, 1219.409 462.530, 1212.965 466.612 C 1210.263 468.323, 1206.578 470.839, 1204.776 472.203 C 1202.974 473.566, 1199.837 474.946, 1197.804 475.269 C 1190.458 476.437, 1176.437 489.259, 1173.678 497.333 C 1169.552 509.406, 1166.766 519.383, 1165.526 526.525 C 1164.765 530.911, 1163.466 538.100, 1162.640 542.500 C 1158.692 563.525, 1156.446 603.973, 1158.365 619.500 C 1159.620 629.655, 1164.848 641.038, 1171.750 648.641 C 1174.177 651.313, 1176.852 654.513, 1177.696 655.750 C 1178.540 656.987, 1179.753 658, 1180.392 658 C 1181.032 658, 1182.685 659.237, 1184.067 660.750 C 1188.712 665.835, 1192.446 668.402, 1203.500 674.113 C 1209.550 677.238, 1215.850 680.514, 1217.500 681.392 C 1219.150 682.269, 1221.305 682.990, 1222.290 682.994 C 1223.274 682.997, 1225.749 683.846, 1227.790 684.880 C 1229.830 685.914, 1233.525 687.058, 1236 687.422 C 1238.475 687.786, 1243.425 688.506, 1247 689.021 C 1250.575 689.536, 1265.650 690.654, 1280.500 691.507 C 1319.744 693.759, 1326.197 694.544, 1338.657 698.580 C 1344.621 700.511, 1351.875 703.196, 1354.777 704.546 C 1357.680 705.896, 1360.830 707.002, 1361.777 707.004 C 1362.725 707.007, 1366.650 708.167, 1370.500 709.582 C 1389.506 716.569, 1404.709 719.195, 1422.363 718.542 C 1428.718 718.307, 1434.724 717.703, 1435.709 717.201 C 1436.694 716.698, 1440.425 715.740, 1444 715.071 C 1471.450 709.940, 1504.029 689.709, 1527.769 663.051 C 1549.115 639.083, 1561.552 618.756, 1572.158 590.500 C 1575.798 580.805, 1576.152 578.925, 1580.822 544.500 C 1581.195 541.750, 1581.435 533.200, 1581.355 525.500 C 1581.240 514.464, 1580.753 509.912, 1579.052 504 C 1577.866 499.875, 1576.522 494.475, 1576.067 492 C 1574.951 485.935, 1571.308 472.464, 1570.190 470.270 C 1569.694 469.297, 1568.773 466.386, 1568.143 463.803 C 1566.549 457.267, 1560.662 444.661, 1556.493 438.857 C 1554.572 436.183, 1553 433.540, 1553 432.984 C 1553 432.428, 1552.603 431.191, 1552.117 430.236 C 1551.631 429.281, 1550.632 427.150, 1549.897 425.500 C 1549.161 423.850, 1546.702 419.575, 1544.431 416 C 1542.160 412.425, 1539.056 407.250, 1537.534 404.500 C 1536.011 401.750, 1533.520 397.925, 1531.997 396 C 1530.475 394.075, 1527.647 389.800, 1525.712 386.500 C 1523.778 383.200, 1521.139 379.350, 1519.848 377.945 C 1518.556 376.540, 1514.130 371.365, 1510.012 366.445 C 1501.796 356.631, 1486.026 340.687, 1482.032 338.156 C 1480.639 337.273, 1476.794 334.515, 1473.486 332.026 C 1464.696 325.411, 1447.073 316.803, 1436 313.715 C 1425.664 310.832, 1398.264 307.069, 1396.978 308.356" stroke="#aa444d" fill="#aa444d" fill-opacity="0.2" fill-rule="evenodd"/><path class="svg-region-OLl" d="M 595.500 396.919 C 581.185 399.990, 579.414 402.277, 580.521 416.263 C 581.232 425.245, 581.238 425.262, 585.616 429.457 C 588.712 432.423, 590 434.464, 590 436.406 C 590 438.135, 591.129 440.283, 593.048 442.202 C 595.781 444.935, 596.567 445.196, 600.668 444.734 C 604.515 444.300, 606.023 443.424, 610.169 439.212 C 617.057 432.215, 618.677 427.252, 618.563 413.488 C 618.464 401.420, 617.641 398.900, 613.020 396.510 C 609.402 394.639, 605.731 394.725, 595.500 396.919" stroke="#c4875d" fill="#c4875d" fill-opacity="0.2" fill-rule="evenodd"/><path class="svg-region-OLr" d="M 1214.636 369.507 C 1213.060 370.328, 1211.187 371, 1210.472 371 C 1209.758 371, 1207.784 372.889, 1206.087 375.197 C 1202.039 380.701, 1201.735 387.539, 1205.396 390.722 C 1206.749 391.899, 1208.085 394.479, 1208.466 396.653 C 1208.895 399.096, 1210.606 402.132, 1213.153 404.971 C 1216.809 409.046, 1217.711 409.512, 1223.332 410.234 C 1226.724 410.670, 1230.400 411.027, 1231.500 411.027 C 1232.600 411.027, 1234.923 411.033, 1236.662 411.039 C 1239.191 411.049, 1240.543 410.174, 1243.412 406.672 C 1247.495 401.690, 1247.990 397.979, 1245 394.770 C 1243.572 393.237, 1243 391.241, 1243 387.789 C 1243 383.518, 1242.521 382.436, 1238.892 378.498 C 1231.939 370.956, 1220.203 366.605, 1214.636 369.507" stroke="#c4875d" fill="#c4875d" fill-opacity="0.2" fill-rule="evenodd"/><path class="svg-region-VOC" d="M 915.862 373.948 C 913.311 374.418, 904.761 375.124, 896.862 375.517 C 885.111 376.101, 881.591 376.642, 877.500 378.493 C 871.125 381.377, 867 385.479, 867 388.935 C 867 391.069, 866.307 391.849, 863.516 392.858 C 859.159 394.434, 849.883 402.827, 845.785 408.902 C 844.080 411.431, 840.767 415.300, 838.425 417.500 C 834.620 421.073, 834.103 422.113, 833.574 427.250 C 832.996 432.867, 833.040 433, 835.468 433 C 836.996 433, 838.566 432.065, 839.543 430.575 C 841.250 427.970, 846.248 425.625, 849.500 425.904 C 850.721 426.008, 851.889 425.194, 852.500 423.812 C 853.050 422.567, 854.850 420.903, 856.500 420.113 C 858.150 419.323, 860.175 418.290, 861 417.817 C 861.825 417.345, 864.564 415.938, 867.087 414.692 C 869.611 413.445, 873.436 411.062, 875.587 409.396 C 879.479 406.382, 883.042 404.865, 894.500 401.344 C 899.411 399.835, 903.858 399.500, 919 399.500 C 938.266 399.500, 945.475 400.566, 949.500 404.009 C 953.863 407.742, 965.201 414.911, 968.424 415.975 C 970.301 416.594, 972.558 418.203, 973.441 419.551 C 974.591 421.306, 975.960 422.003, 978.273 422.012 C 980.048 422.018, 983.975 422.688, 987 423.500 C 992.642 425.014, 1005.127 425.540, 1006.352 424.315 C 1007.222 423.444, 998.211 419.134, 995.359 419.058 C 993.728 419.014, 993.102 418.226, 992.728 415.750 C 991.909 410.322, 987.660 400.236, 984.840 397.027 C 982.571 394.445, 981.469 393.999, 977.340 393.991 C 973.742 393.984, 971.089 393.169, 967 390.815 L 961.500 387.648 964.943 386.745 C 966.837 386.249, 969.300 385.203, 970.416 384.421 C 971.532 383.640, 974.595 383, 977.223 383 C 982.348 383, 982.749 382.575, 980.468 379.559 C 979.661 378.491, 979 376.804, 979 375.809 C 979 374.133, 977.722 374, 961.657 374 C 952.118 374, 938.956 373.796, 932.407 373.547 C 925.858 373.298, 918.413 373.478, 915.862 373.948" stroke="#ff8f93" fill="#ff8f93" fill-opacity="0.2" fill-rule="evenodd"/><path class="svg-region-BPCl" d="M 810.754 549.274 C 804.951 554.553, 802 559.718, 802 564.600 C 802 567.999, 805.501 573.707, 808.090 574.529 C 809.185 574.876, 810.772 576.890, 811.618 579.003 C 815.385 588.418, 828.955 587.937, 833.563 578.226 C 835.031 575.132, 835.118 573.948, 834.125 570.535 C 833.480 568.316, 832.301 562.737, 831.506 558.139 C 829.577 546.981, 827.301 544.069, 820.500 544.056 C 817.072 544.050, 815.679 544.795, 810.754 549.274" stroke="#83385f" fill="#83385f" fill-opacity="0.2" fill-rule="evenodd"/><path class="svg-region-BPCr" d="M 1007.916 531.932 C 1006.941 532.536, 1006.269 534.492, 1006.171 537.013 C 1006.082 539.268, 1005.521 542.027, 1004.923 543.145 C 1003.686 545.456, 1001.775 569.249, 1002.644 571.514 C 1004.206 575.586, 1027.812 572.026, 1031.779 567.120 C 1032.484 566.248, 1032.808 564.400, 1032.500 563 C 1032.170 561.498, 1032.554 559.652, 1033.439 558.481 C 1034.408 557.199, 1034.948 554.168, 1034.968 549.890 C 1034.999 543.587, 1034.834 543.124, 1031.415 539.890 C 1029.444 538.026, 1026.753 535.390, 1025.437 534.034 C 1023.440 531.976, 1021.924 531.517, 1016.272 531.258 C 1012.547 531.088, 1008.787 531.391, 1007.916 531.932" stroke="#83385f" fill="#83385f" fill-opacity="0.2" fill-rule="evenodd"/><path class="svg-region-AMC" d="M 998.698 576.790 C 994.957 578.847, 991.042 581.423, 989.998 582.515 C 980.108 592.859, 979.465 593.255, 966.224 597.139 C 959.226 599.191, 951.802 601.166, 949.726 601.527 C 947.650 601.888, 943.825 603.329, 941.226 604.729 C 936.755 607.137, 935.583 607.286, 919.500 607.504 C 905.305 607.696, 901.926 608.034, 899.023 609.553 C 897.110 610.554, 893.247 611.564, 890.436 611.797 C 885.217 612.230, 884.461 611.963, 875.500 606.517 C 873.300 605.181, 870.600 604.067, 869.500 604.043 C 866.560 603.978, 857.837 600.484, 856.583 598.870 C 855.237 597.138, 850.526 595, 848.053 595 C 847.035 595, 843.861 593.425, 841 591.500 C 836.305 588.341, 835.127 588, 828.900 588 C 823.433 588, 822 588.312, 822 589.500 C 822 592.497, 825.804 595, 830.360 595 C 833.363 595, 835.869 595.779, 838.405 597.500 C 840.431 598.875, 842.478 600, 842.955 600 C 843.431 600, 846.127 601.823, 848.945 604.051 C 852.365 606.754, 854.267 609.084, 854.660 611.051 C 855.111 613.306, 855.800 614, 857.585 614 C 858.869 614, 860.950 615.054, 862.210 616.342 C 865.062 619.258, 875.360 625, 877.738 625 C 879.256 625, 890.871 630.044, 896.236 633.033 C 898.558 634.326, 915.641 634.262, 926.091 632.921 C 932.322 632.121, 934.943 631.327, 936.212 629.857 C 937.654 628.186, 940.295 626.049, 950.524 618.278 C 957.666 612.851, 961.210 611, 964.453 611 C 969.428 611, 980 605.242, 980 602.532 C 980 601.626, 992.355 590.093, 995.681 587.894 C 997.017 587.011, 998.790 585.317, 999.621 584.131 C 1000.452 582.944, 1002.790 581.097, 1004.816 580.025 C 1011.292 576.601, 1011.535 576.349, 1010.063 574.576 C 1008.145 572.265, 1006.257 572.633, 998.698 576.790" stroke="#9d4741" fill="#9d4741" fill-opacity="0.2" fill-rule="evenodd"/><path class="svg-region-ODMl" d="M 714.416 483.412 C 709.710 484.886, 704 488.067, 704 489.216 C 704 489.647, 703.429 490, 702.732 490 C 702.035 490, 699.847 491.099, 697.870 492.442 C 695.557 494.014, 693.496 494.681, 692.090 494.313 C 690.617 493.928, 689.104 494.493, 687.452 496.045 C 684.624 498.702, 684.489 499.999, 686.471 505.500 C 688.714 511.725, 688.399 515.726, 685.451 518.458 C 682.676 521.030, 682.579 520.870, 689.120 524.494 C 698.489 529.684, 708.818 537.633, 714.902 544.332 L 718.381 548.165 725.314 547.468 C 732.005 546.796, 733.601 546.043, 738.633 541.179 C 739.385 540.452, 740.011 539.102, 740.025 538.179 C 740.038 537.255, 740.938 533.843, 742.025 530.595 C 744.423 523.426, 744.579 513.890, 742.464 503.815 C 740.149 492.786, 737.961 489.037, 731.624 485.250 C 725.654 481.681, 721.398 481.227, 714.416 483.412" stroke="#999999" fill="#999999" fill-opacity="0.2" fill-rule="evenodd"/><path class="svg-region-ODMr" d="M 1132.500 465 C 1132.160 465.550, 1130.221 466.003, 1128.191 466.006 C 1126.161 466.010, 1123.150 466.721, 1121.500 467.588 C 1117.472 469.702, 1110.905 471.968, 1108.750 471.985 C 1107.787 471.993, 1107 472.450, 1107 473 C 1107 473.550, 1106.190 474, 1105.200 474 C 1103.051 474, 1101 475.856, 1101 477.799 C 1101 479.093, 1099.461 483.019, 1096.648 488.900 C 1095.952 490.356, 1095.500 496.849, 1095.500 505.400 L 1095.500 519.500 1098.836 524.750 C 1101.758 529.349, 1102.581 530, 1105.472 530 C 1109.073 530, 1120.277 523.220, 1122.002 519.997 C 1122.537 518.997, 1124.668 517.161, 1126.737 515.916 C 1130.196 513.837, 1136.530 508.546, 1146.352 499.534 C 1148.470 497.590, 1150.515 496, 1150.896 496 C 1151.277 496, 1153.481 494.235, 1155.794 492.078 C 1161.525 486.734, 1161.621 482.555, 1156.160 476.064 C 1154.047 473.554, 1151.521 469.813, 1150.546 467.750 L 1148.772 464 1140.945 464 C 1136.640 464, 1132.840 464.450, 1132.500 465" stroke="#999999" fill="#999999" fill-opacity="0.2" fill-rule="evenodd"/>
    </svg>