<svg xmlns="http://www.w3.org/2000/svg" width="1921" height="1027" viewBox="0 0 1921 1027" version="1.1">
    <path class="svg-region-V" d="M 813.500 156.888 C 812.400 157.347, 804.525 158.020, 796 158.384 C 774.186 159.316, 763.509 160.708, 748 164.643 C 738.782 166.981, 733.231 168.961, 730.500 170.885 C 728.300 172.434, 725.326 173.987, 723.892 174.335 C 722.457 174.682, 718.726 176.952, 715.602 179.379 C 712.477 181.805, 708.476 184.355, 706.710 185.044 C 703.133 186.442, 687 201.734, 687 203.728 C 687 204.428, 686.572 205, 686.050 205 C 684.726 205, 672.151 220.343, 668.020 227 C 666.142 230.025, 663.232 234.177, 661.553 236.228 C 654.757 244.525, 653.204 246.650, 651.483 250 C 649.405 254.044, 647.567 267.927, 647.577 279.500 C 647.583 286.601, 647.985 288.342, 651.157 295 C 653.123 299.125, 656.376 304.059, 658.385 305.965 C 660.395 307.871, 662.473 311.042, 663.003 313.012 L 663.968 316.594 670.234 316.670 C 673.680 316.713, 684.600 317.287, 694.500 317.948 C 718.979 319.581, 727 319.098, 734 315.567 C 740.975 312.049, 746.506 306.804, 749.585 300.786 C 750.912 298.193, 752.898 295.590, 753.999 295.001 C 755.126 294.397, 756 292.907, 756 291.587 C 756 288.584, 758.395 286.618, 762.365 286.363 C 764.089 286.253, 767.862 285.838, 770.750 285.442 C 775.397 284.804, 776 284.450, 776 282.361 C 776 279.872, 778.451 279.057, 779.341 281.250 C 779.722 282.191, 780.114 282.129, 780.924 281 C 781.815 279.758, 782.150 279.733, 782.873 280.853 C 783.524 281.862, 784.242 281.941, 785.699 281.161 C 786.979 280.476, 790.038 280.411, 794.576 280.974 C 809.904 282.873, 822.137 283.997, 834.498 284.642 C 845.887 285.236, 848.240 285.671, 853.498 288.159 C 856.799 289.721, 860.270 290.999, 861.211 290.999 C 862.153 291, 864.672 292.767, 866.810 294.926 C 871.302 299.464, 872.271 299.688, 890.500 300.407 C 897.650 300.689, 905.027 301.454, 906.893 302.107 C 911.347 303.667, 935.395 302.669, 943.316 300.597 C 946.515 299.760, 952.441 297.933, 956.484 296.537 C 965.015 293.593, 974.312 293.243, 980.500 295.633 C 982.700 296.482, 987.650 297.292, 991.500 297.433 C 1003.283 297.863, 1021.324 300.134, 1024.651 301.606 C 1026.384 302.373, 1029.724 303, 1032.072 303 C 1034.421 303, 1037.053 303.628, 1037.921 304.395 C 1038.790 305.162, 1045.380 308.537, 1052.568 311.895 C 1065.524 317.948, 1065.712 318, 1074.634 318 C 1085.272 318, 1093.968 316.551, 1099.498 313.858 C 1101.699 312.786, 1106.425 311.517, 1110 311.039 C 1117.683 310.012, 1128.548 307.373, 1131.833 305.736 C 1136.579 303.371, 1140.642 293.713, 1141.450 282.876 C 1141.639 280.333, 1142.233 277.408, 1142.769 276.376 C 1143.305 275.344, 1144.032 270.900, 1144.384 266.500 C 1145.187 256.471, 1143.587 250.096, 1138.642 243.618 C 1135.233 239.152, 1134.512 237.034, 1134.947 232.756 C 1135.332 228.962, 1128.507 218.818, 1118.884 208.880 C 1113.448 203.266, 1109 198.398, 1109 198.062 C 1109 196.756, 1093.543 184.375, 1089.145 182.159 C 1086.590 180.871, 1082.724 178.894, 1080.552 177.765 C 1076.078 175.439, 1073.736 175.106, 1055.296 174.170 C 1046.887 173.743, 1041.640 173.046, 1040.846 172.250 C 1040.161 171.563, 1037.924 171, 1035.876 171 C 1033.828 171, 1029.928 170.486, 1027.209 169.859 C 1023.412 168.983, 1020.434 169.012, 1014.382 169.987 C 1001.775 172.017, 994.091 172.928, 985 173.470 C 980.325 173.749, 972.225 174.304, 967 174.703 C 961.775 175.103, 956.825 175.350, 956 175.253 C 953.644 174.976, 948.514 176.875, 946.413 178.802 C 945.361 179.767, 940.789 182.724, 936.253 185.372 C 925.870 191.434, 918.942 193.020, 910.500 191.270 C 907.200 190.585, 901.648 189.598, 898.163 189.076 C 893.994 188.451, 891.086 187.398, 889.663 185.999 C 888.473 184.829, 885.391 182.438, 882.813 180.686 C 880.235 178.934, 874.813 174.955, 870.762 171.844 C 866.712 168.733, 859.225 164.008, 854.124 161.344 L 844.850 156.500 830.175 156.277 C 822.104 156.155, 814.600 156.429, 813.500 156.888" stroke="#dd8a8a" fill="#dd8a8a" fill-opacity="0.2" fill-rule="evenodd"/><path class="svg-region-SV" d="M 781.032 280.250 C 780.999 282.052, 779 282.790, 779 281 C 779 280.450, 778.325 280, 777.500 280 C 776.590 280, 776 280.929, 776 282.361 C 776 284.445, 775.386 284.810, 770.750 285.481 C 767.862 285.898, 764.173 286.197, 762.551 286.144 C 758.993 286.030, 756 288.494, 756 291.540 C 756 292.812, 754.932 294.470, 753.513 295.400 C 752.145 296.296, 750.156 298.710, 749.094 300.765 C 746.486 305.806, 738.564 313.264, 732.717 316.182 L 727.935 318.569 732.497 321.784 C 735.006 323.553, 737.973 325, 739.091 325 C 740.209 325, 743.458 326.058, 746.312 327.351 C 757.329 332.343, 767.544 333.618, 793.757 333.272 C 806.673 333.101, 811.734 332.672, 813.875 331.565 C 817.793 329.539, 822.934 329.363, 849 330.364 C 863.585 330.924, 878.888 330.847, 892.500 330.144 C 932.826 328.062, 958.967 328.543, 965.500 331.488 C 967.278 332.289, 976.237 333.327, 987.500 334.037 C 1004.896 335.133, 1013.032 335.848, 1027.808 337.579 C 1036.056 338.545, 1039.377 337.484, 1045.010 332.084 C 1047.888 329.324, 1052.074 326.524, 1054.774 325.552 C 1057.373 324.616, 1061.136 322.984, 1063.136 321.925 C 1065.136 320.866, 1067.525 320, 1068.445 320 C 1069.365 320, 1069.840 319.550, 1069.500 319 C 1069.160 318.450, 1068.120 318, 1067.188 318 C 1065.411 318, 1048.974 310.408, 1040.624 305.731 C 1037.519 303.992, 1034.250 302.998, 1031.624 302.994 C 1029.356 302.990, 1026.206 302.313, 1024.624 301.488 C 1023.043 300.663, 1017.947 299.760, 1013.301 299.482 C 1008.655 299.204, 1002.767 298.508, 1000.216 297.936 C 997.666 297.365, 993.086 296.966, 990.039 297.051 C 986.993 297.136, 982.700 296.504, 980.500 295.646 C 974.324 293.240, 965.031 293.587, 956.462 296.545 C 943.215 301.117, 938.697 301.964, 923.959 302.633 C 913.739 303.097, 908.778 302.952, 907.265 302.142 C 906.082 301.509, 898.900 300.744, 891.307 300.442 C 872.183 299.682, 871.328 299.490, 866.810 294.926 C 864.672 292.767, 862.246 291, 861.420 291 C 860.593 291, 857.123 289.709, 853.708 288.132 C 848.255 285.612, 845.920 285.185, 834.500 284.621 C 821.669 283.986, 809.464 282.850, 795.190 280.961 C 790.110 280.289, 787.263 280.324, 785.858 281.076 C 784.240 281.942, 783.559 281.793, 782.450 280.329 C 781.158 278.625, 781.061 278.620, 781.032 280.250" stroke="#c666b5" fill="#c666b5" fill-opacity="0.2" fill-rule="evenodd"/><path class="svg-region-DB" d="M 1133.141 304.561 C 1131.687 306.008, 1129 307.168, 1126.141 307.583 C 1123.588 307.953, 1120.724 308.658, 1119.776 309.149 C 1118.828 309.640, 1114.670 310.471, 1110.537 310.995 C 1106.404 311.519, 1101.271 312.841, 1099.132 313.933 C 1094.525 316.283, 1084.948 317.982, 1076.250 317.992 C 1072.755 317.997, 1070 318.441, 1070 319 C 1070 319.550, 1068.987 320.010, 1067.750 320.022 C 1066.513 320.034, 1064.375 320.924, 1063 322 C 1061.625 323.076, 1059.825 323.975, 1059 324 C 1055.802 324.094, 1049.292 327.887, 1044.760 332.295 C 1039.441 337.469, 1036.007 338.540, 1027.808 337.579 C 1013.032 335.848, 1004.896 335.133, 987.500 334.037 C 976.388 333.337, 967.254 332.284, 965.500 331.501 C 958.700 328.465, 932.672 327.974, 893 330.133 C 880.553 330.810, 865 330.888, 850 330.347 C 822.710 329.363, 818.918 329.490, 813.468 331.568 C 810.530 332.688, 804.970 333.159, 792.968 333.303 C 769.834 333.580, 758.672 332.434, 750.500 328.944 C 744.094 326.208, 740.544 325, 738.907 325 C 737.890 325, 735.133 323.661, 732.779 322.025 L 728.500 319.051 704.719 318.447 C 691.639 318.114, 679.492 317.428, 677.726 316.921 C 670.916 314.968, 669.106 315.619, 661.001 322.938 C 653.402 329.799, 647.523 332.778, 635 336.110 C 626.017 338.500, 624.428 339.318, 622.250 342.673 C 619.873 346.335, 619.062 355.302, 621 356.500 C 621.550 356.840, 622 357.991, 622 359.059 C 622 360.127, 622.834 361.834, 623.854 362.854 C 624.874 363.874, 626.754 366.569, 628.032 368.843 C 630.168 372.644, 639.797 381, 642.041 381 C 642.569 381, 643 382.800, 643 385 C 643 387.200, 642.622 389, 642.161 389 C 640.827 389, 639 393.796, 638.999 397.297 C 638.999 399.703, 637.932 401.619, 634.710 405 C 629.565 410.398, 624.646 416.754, 623.490 419.500 C 622.678 421.428, 622.634 421.419, 622.255 419.250 C 622.038 418.012, 621.486 417, 621.028 417 C 619.202 417, 617.726 424.081, 617.258 435.096 C 616.716 447.826, 617.531 451, 621.339 451 C 622.619 451, 625.086 452.525, 627 454.500 C 628.866 456.425, 631.329 458, 632.474 458 C 634.970 458, 638.987 460.638, 639.031 462.307 C 639.049 462.963, 640.176 464.310, 641.537 465.301 C 643.989 467.086, 644.020 467.077, 645.081 464.301 C 645.670 462.760, 646.210 460.765, 646.280 459.868 C 646.350 458.970, 647.891 457.436, 649.704 456.460 C 651.517 455.484, 653 454.358, 653 453.959 C 653 453.559, 655.497 452.219, 658.549 450.980 C 664.539 448.549, 668.280 448.542, 691.500 450.924 C 697 451.488, 704.298 452.197, 707.717 452.499 L 713.934 453.049 715.967 449.064 C 717.085 446.873, 718 444.344, 718 443.444 C 718 442.545, 718.600 440.614, 719.334 439.154 C 723.744 430.374, 726 425.312, 726 424.192 C 726 423.490, 726.447 422.372, 726.993 421.708 C 732.775 414.674, 735.342 411.239, 736.524 408.954 C 737.295 407.462, 738.618 405.977, 739.463 405.653 C 740.308 405.328, 741 404.462, 741 403.727 C 741 402.992, 742.505 400.748, 744.344 398.740 C 746.183 396.732, 749.651 392.482, 752.051 389.295 C 756.302 383.650, 762.814 377.058, 764.179 377.019 C 764.552 377.009, 765.452 376.411, 766.179 375.691 C 767.549 374.334, 779.076 370.266, 789.500 367.462 C 792.800 366.574, 796.400 365.462, 797.500 364.992 C 798.600 364.522, 805.350 363.842, 812.500 363.480 C 820.436 363.079, 830.843 361.719, 839.216 359.987 C 846.759 358.427, 858.234 356.652, 864.716 356.042 C 871.197 355.432, 878.525 354.498, 881 353.966 C 883.475 353.435, 890.450 352.544, 896.500 351.987 C 902.550 351.430, 909.525 350.564, 912 350.062 C 914.524 349.551, 934.501 349.368, 957.500 349.646 C 1000.136 350.162, 998.965 350.052, 1009.500 354.554 C 1011.150 355.259, 1014.525 356.622, 1017 357.584 C 1019.475 358.545, 1022.652 360.127, 1024.061 361.099 C 1025.470 362.071, 1027.945 363.182, 1029.561 363.568 C 1031.177 363.953, 1033.193 364.868, 1034.041 365.600 C 1035.596 366.944, 1049.847 368.977, 1057.820 368.992 C 1061.902 369, 1062.535 369.419, 1069.320 376.613 C 1073.269 380.800, 1076.860 384.850, 1077.300 385.613 C 1077.740 386.376, 1079.637 387, 1081.516 387 C 1085.377 387, 1092 392.207, 1092 395.243 C 1092 396.209, 1092.396 397, 1092.880 397 C 1093.972 397, 1102 407.526, 1102 408.957 C 1102 409.531, 1102.338 410.002, 1102.750 410.005 C 1103.162 410.008, 1104.914 411.470, 1106.643 413.255 C 1108.371 415.040, 1112.063 418.840, 1114.847 421.700 C 1117.631 424.561, 1120.805 428.611, 1121.899 430.700 C 1122.994 432.790, 1124.951 435.791, 1126.247 437.370 L 1128.603 440.240 1134.551 437.721 C 1137.823 436.335, 1143.293 434.022, 1146.706 432.579 C 1150.119 431.137, 1156.090 429.557, 1159.974 429.069 C 1163.859 428.582, 1168.843 427.242, 1171.049 426.091 C 1176.976 423.002, 1183.959 423.253, 1188.059 426.703 C 1192.588 430.514, 1194 434.647, 1194 444.090 L 1194 452.244 1196.250 450.764 C 1197.487 449.950, 1198.950 448.410, 1199.500 447.343 C 1200.050 446.275, 1202.862 442.219, 1205.750 438.328 C 1208.638 434.438, 1211 430.941, 1211 430.556 C 1211 430.172, 1211.736 429.121, 1212.635 428.222 C 1214.038 426.819, 1214.193 424.804, 1213.724 414.043 C 1213.249 403.143, 1212.838 400.845, 1210.593 396.500 C 1209.171 393.750, 1208.006 390.938, 1208.004 390.250 C 1208.002 389.542, 1206.758 389, 1205.135 389 C 1203.559 389, 1201.197 388.212, 1199.885 387.250 C 1194.557 383.341, 1190.129 381.648, 1188.584 382.931 C 1187.386 383.924, 1186.691 383.650, 1184.808 381.441 C 1183.539 379.952, 1181.938 378.151, 1181.250 377.438 C 1180.397 376.555, 1180 372.480, 1180 364.616 C 1180 353.969, 1180.191 352.807, 1182.500 349.405 C 1184.560 346.369, 1185 344.525, 1185 338.926 C 1185 335.188, 1184.522 330.863, 1183.937 329.315 C 1182.602 325.781, 1178.200 322.083, 1175.270 322.036 C 1172.306 321.988, 1164.999 319.115, 1162.500 317.015 C 1161.400 316.090, 1158.268 314.510, 1155.539 313.503 C 1152.520 312.390, 1148.685 309.780, 1145.742 306.837 C 1140.224 301.319, 1136.983 300.734, 1133.141 304.561" stroke="#e8b1e4" fill="#e8b1e4" fill-opacity="0.2" fill-rule="evenodd"/><path class="svg-region-MB" d="M 910.500 350.104 C 908.300 350.560, 901.775 351.403, 896 351.976 C 890.225 352.549, 883.475 353.447, 881 353.972 C 878.525 354.497, 871.325 355.416, 865 356.014 C 858.675 356.613, 846.975 358.402, 839 359.991 C 830.619 361.661, 819.225 363.147, 812 363.512 C 805.125 363.860, 798.600 364.522, 797.500 364.983 C 793.737 366.560, 785.126 369, 783.312 369.004 C 780.626 369.009, 768.109 374.159, 763.388 377.201 C 761.126 378.659, 758.201 381.247, 756.888 382.952 C 755.574 384.658, 753.487 387.232, 752.250 388.672 C 751.013 390.113, 749.998 391.564, 749.996 391.896 C 749.993 392.228, 747.968 394.731, 745.496 397.458 C 743.023 400.185, 741 402.975, 741 403.658 C 741 404.342, 740.361 405.260, 739.580 405.700 C 738.799 406.140, 735.880 409.650, 733.092 413.500 C 730.305 417.350, 727.569 421.044, 727.012 421.708 C 726.455 422.372, 726 423.490, 726 424.192 C 726 425.312, 723.744 430.374, 719.334 439.154 C 718.600 440.614, 717.997 442.639, 717.993 443.654 C 717.990 444.669, 717.093 446.850, 716 448.500 C 714.907 450.150, 714.010 453.157, 714.007 455.182 C 713.998 460.224, 717.446 462.542, 726.906 463.853 C 732.033 464.564, 734.919 465.515, 736.526 467.025 C 737.789 468.211, 739.649 469.022, 740.661 468.827 C 742.254 468.520, 742.512 467.404, 742.589 460.476 C 742.704 450.210, 744.536 446.252, 751.342 441.564 C 754.188 439.604, 757.124 438, 757.865 438 C 758.606 438, 760.917 436.650, 763 435 C 767.726 431.257, 771.004 431.207, 775.215 434.814 C 777.022 436.361, 780.075 438.717, 782 440.048 C 783.925 441.380, 786.550 443.601, 787.834 444.985 C 789.117 446.368, 792.169 449.620, 794.616 452.212 C 797.895 455.685, 799.696 458.839, 801.470 464.212 C 802.793 468.220, 804.559 473.300, 805.394 475.500 C 806.229 477.700, 806.932 481.161, 806.956 483.191 C 807.041 490.344, 808.183 489.438, 826.168 467.938 C 835.940 456.257, 836.721 455.003, 837.306 450.061 C 838.033 443.924, 840.074 440.302, 843.552 438.980 C 845.535 438.226, 846 437.353, 846 434.386 C 846 431.371, 846.974 429.612, 851.500 424.457 C 854.525 421.012, 857 417.784, 857 417.284 C 857 416.784, 852.163 416.383, 846.250 416.393 C 834.546 416.413, 823 415.189, 823 413.928 C 823 413.492, 823.936 412.838, 825.080 412.475 C 826.224 412.111, 829.361 409.625, 832.051 406.949 C 838.198 400.835, 840.496 399.397, 845.500 398.536 C 854.373 397.009, 869.748 390.699, 880.500 384.174 C 883.854 382.138, 894.061 378.971, 902.500 377.347 C 911.057 375.700, 935.005 376.038, 942 377.903 C 943.925 378.416, 949.855 379.138, 955.178 379.506 L 964.856 380.176 966.430 383.494 C 967.479 385.704, 969.888 387.875, 973.646 389.996 C 979.301 393.187, 992.904 398, 996.269 398 C 999.026 398, 999.515 400.819, 997.118 402.897 C 995.953 403.908, 995 405.227, 995 405.828 C 995 407.525, 990.833 411, 988.798 411 C 987.794 411, 986.099 410.455, 985.032 409.788 C 981.933 407.852, 981.346 409.810, 983.766 414.015 C 984.995 416.150, 986 418.801, 986 419.908 C 986 421.014, 987.037 422.950, 988.304 424.210 C 989.572 425.469, 991.932 428.525, 993.549 431 C 995.167 433.475, 998.107 437.586, 1000.083 440.134 C 1002.059 442.683, 1004.257 446.846, 1004.968 449.384 C 1005.678 451.923, 1006.684 454, 1007.201 454 C 1007.719 454, 1008.742 454.563, 1009.474 455.250 C 1010.207 455.938, 1012.875 458.226, 1015.403 460.337 C 1017.931 462.447, 1020 464.731, 1020 465.412 C 1020 466.932, 1024.200 471, 1025.769 471 C 1027.820 471, 1031.807 466.159, 1032.526 462.794 C 1032.914 460.982, 1033.560 459.050, 1033.963 458.500 C 1034.365 457.950, 1035.737 454.350, 1037.012 450.500 C 1040.853 438.896, 1048.524 424, 1050.657 424 C 1051.304 424, 1051.983 423.663, 1052.167 423.250 C 1052.350 422.837, 1053.919 421.712, 1055.654 420.750 C 1060.912 417.833, 1065.342 418.523, 1076.500 424 C 1084.482 427.918, 1087.586 430.067, 1090.843 433.929 C 1093.129 436.640, 1095 439.280, 1095 439.795 C 1095 440.310, 1098.354 443.867, 1102.453 447.698 L 1109.906 454.664 1114.703 449.751 C 1117.341 447.049, 1121.300 443.919, 1123.500 442.796 C 1125.700 441.673, 1127.675 440.597, 1127.889 440.404 C 1128.104 440.212, 1127.156 438.580, 1125.784 436.777 C 1124.411 434.975, 1122.358 431.700, 1121.221 429.500 C 1120.084 427.300, 1115.728 422.125, 1111.542 418 C 1107.356 413.875, 1101.654 407.462, 1098.871 403.750 C 1096.088 400.038, 1093.403 397, 1092.905 397 C 1092.407 397, 1092 396.147, 1092 395.104 C 1092 391.997, 1085.484 387, 1081.434 387 C 1079.388 387, 1077.718 386.429, 1077.409 385.624 C 1077.119 384.867, 1073.571 380.817, 1069.524 376.624 C 1062.589 369.436, 1061.920 369, 1057.834 368.992 C 1049.427 368.976, 1035.581 366.930, 1033.962 365.465 C 1033.071 364.659, 1031.767 364, 1031.064 364 C 1030.361 364, 1026.796 362.463, 1023.143 360.584 C 1017.006 357.429, 1013.112 355.749, 1002.500 351.679 C 999.207 350.416, 991.075 350.068, 956.500 349.709 C 933.400 349.470, 912.700 349.647, 910.500 350.104" stroke="#f9c6c6" fill="#f9c6c6" fill-opacity="0.2" fill-rule="evenodd"/><path class="svg-region-LBl" d="M 762.931 434.916 C 761.095 436.520, 758.324 438.085, 756.775 438.395 C 755.225 438.705, 752.734 440.093, 751.239 441.479 C 749.744 442.866, 748.215 444, 747.842 444 C 747.469 444, 746.160 445.624, 744.933 447.609 C 743.099 450.575, 742.693 452.730, 742.649 459.724 C 742.607 466.295, 742.948 468.489, 744.144 469.365 C 746.527 471.111, 748.653 475.998, 749.352 481.333 C 749.700 483.991, 750.235 486.571, 750.540 487.065 C 750.846 487.560, 752.866 486.847, 755.028 485.482 C 757.191 484.117, 759.982 483.004, 761.230 483.008 C 763.467 483.016, 791.875 492.497, 797.275 495.038 C 799.868 496.258, 800.279 496.122, 803.525 492.976 C 806.679 489.919, 806.998 489.094, 806.978 484.054 C 806.965 480.864, 806.182 476.797, 805.138 474.498 C 804.138 472.298, 802.344 467.348, 801.151 463.498 C 799.214 457.247, 798.156 455.672, 791.241 448.747 C 781.008 438.497, 772.363 432, 768.961 432 C 767.420 432, 764.845 433.245, 762.931 434.916" stroke="#d7b230" fill="#d7b230" fill-opacity="0.2" fill-rule="evenodd"/><path class="svg-region-LBr" d="M 1055.791 420.250 C 1055.047 420.938, 1053.125 422.246, 1051.519 423.157 C 1047.929 425.194, 1040.995 438.079, 1037.343 449.500 C 1035.936 453.900, 1034.435 457.950, 1034.008 458.500 C 1033.581 459.050, 1032.910 461.001, 1032.517 462.835 C 1032.125 464.669, 1030.390 467.521, 1028.663 469.172 L 1025.522 472.173 1032.011 478.391 C 1035.580 481.811, 1039.175 485.652, 1040 486.927 C 1040.825 488.202, 1041.997 489.767, 1042.604 490.405 C 1043.212 491.044, 1044.380 492.847, 1045.200 494.412 L 1046.691 497.259 1052.501 489.712 C 1057.316 483.457, 1058.926 482.051, 1061.905 481.501 C 1063.882 481.135, 1068.650 479.320, 1072.500 477.465 C 1083.666 472.087, 1086.942 471, 1091.985 471 C 1096.378 471, 1097.067 470.636, 1101.354 466.052 C 1103.900 463.331, 1106.765 459.463, 1107.722 457.457 L 1109.461 453.810 1102.980 447.569 C 1099.416 444.136, 1094.312 438.544, 1091.637 435.143 C 1087.336 429.673, 1085.595 428.384, 1076.553 423.979 C 1065.900 418.790, 1058.758 417.507, 1055.791 420.250" stroke="#d7b230" fill="#d7b230" fill-opacity="0.2" fill-rule="evenodd"/><path class="svg-region-PP" d="M 990.500 451.015 C 985.617 451.986, 974.723 455.541, 970.094 457.673 C 968.221 458.536, 962.371 460.776, 957.094 462.651 C 951.817 464.526, 946.995 466.729, 946.378 467.546 C 945.761 468.363, 942.836 469.736, 939.878 470.597 C 936.920 471.458, 932.824 473.304, 930.776 474.699 C 927.530 476.910, 926.246 477.182, 920.776 476.815 C 917.324 476.583, 909.775 474.916, 904 473.110 C 889.051 468.435, 873.158 463.539, 861.032 459.874 C 853.112 457.479, 849.955 456.015, 848.060 453.855 C 844.712 450.040, 838 450.060, 838 453.884 C 838 454.803, 836.763 456.667, 835.250 458.027 C 833.737 459.387, 830.044 463.425, 827.043 467 C 820.084 475.289, 818.775 476.744, 809.159 486.882 L 801.210 495.263 804.104 501.382 C 805.696 504.747, 806.999 508.201, 806.999 509.059 C 807 509.916, 807.661 511.491, 808.468 512.559 C 809.276 513.626, 809.951 516.423, 809.968 518.774 C 809.992 521.971, 810.862 524.302, 813.419 528.019 C 815.300 530.753, 817.136 534.342, 817.499 535.995 C 818.055 538.526, 818.635 539, 821.178 539 C 825.287 539, 830.652 541.693, 832.879 544.873 C 837.080 550.871, 841.061 570.176, 839.174 575.395 C 838.528 577.181, 838 578.935, 838 579.293 C 838 579.651, 840.587 580.688, 843.750 581.596 C 846.913 582.505, 851.300 584.451, 853.500 585.921 C 858.643 589.358, 860.512 590.122, 866 591.027 C 868.475 591.435, 871.919 592.353, 873.654 593.067 C 876.240 594.132, 877.784 594.131, 882.243 593.062 C 886.373 592.071, 888.191 592.032, 889.811 592.899 C 892.795 594.496, 931.066 595.541, 937.500 594.202 C 940.250 593.629, 944.975 592.411, 948 591.494 C 951.025 590.578, 956.425 589.251, 960 588.546 C 967.893 586.989, 969.587 586.333, 973.707 583.238 C 976.951 580.800, 979 580.925, 979 583.559 C 979 585.546, 979.817 585.376, 983.406 582.644 C 985.108 581.349, 988.300 579.310, 990.500 578.114 C 992.700 576.918, 996.426 574.859, 998.779 573.538 C 1001.133 572.216, 1003.717 570.992, 1004.521 570.818 C 1005.687 570.564, 1006.092 567.683, 1006.517 556.616 L 1007.050 542.732 1011.019 536.116 C 1013.203 532.477, 1014.998 529.950, 1015.010 530.500 C 1015.023 531.125, 1015.306 531.107, 1015.765 530.452 C 1017.049 528.620, 1022.750 525, 1024.350 525 C 1025.197 525, 1026.553 523.763, 1027.363 522.250 C 1028.173 520.737, 1029.586 518.064, 1030.504 516.310 C 1031.421 514.555, 1035.283 509.875, 1039.086 505.911 C 1042.889 501.946, 1046 498.065, 1046 497.285 C 1046 495.688, 1044.237 492.122, 1042.592 490.393 C 1041.991 489.762, 1040.828 488.177, 1040.007 486.873 C 1039.186 485.568, 1034.644 480.675, 1029.914 476 C 1025.183 471.325, 1020.774 466.482, 1020.114 465.237 C 1019.455 463.993, 1015.922 460.505, 1012.264 457.487 C 1007.224 453.331, 1004.824 452, 1002.364 452 C 1000.579 452, 998.840 451.550, 998.500 451 C 997.802 449.870, 996.241 449.873, 990.500 451.015" stroke="#c4743d" fill="#c4743d" fill-opacity="0.2" fill-rule="evenodd"/><path class="svg-region-LPl" d="M 754.562 485.436 C 752.395 486.792, 750.049 488.936, 749.347 490.201 C 747.585 493.375, 747.707 502.496, 749.590 508.500 C 750.460 511.272, 751.562 520.325, 752.063 528.814 C 752.580 537.570, 753.556 545.493, 754.343 547.314 C 757.601 554.858, 757.977 556.243, 757.396 558.557 C 757.016 560.071, 756.063 561, 754.892 561 C 752.403 561, 752.451 561.165, 756.250 565.614 C 760.978 571.152, 765.188 575.045, 770.664 578.942 C 773.324 580.835, 776.033 583.018, 776.683 583.792 C 778.276 585.687, 779.625 584.668, 782.129 579.682 C 786.188 571.597, 788.585 569.255, 793.982 568.097 C 796.739 567.506, 800.523 566.020, 802.392 564.795 C 805.475 562.774, 805.829 562.043, 806.199 556.927 C 806.521 552.472, 807.341 550.259, 810.101 546.393 C 812.022 543.702, 814.585 541.056, 815.797 540.513 C 817.009 539.970, 818 539.067, 818 538.506 C 818 535.601, 815.794 530.574, 813.068 527.267 C 810.759 524.465, 810 522.540, 810 519.484 C 810 516.057, 808.150 510.697, 802.380 497.403 C 802.118 496.800, 800.463 495.819, 798.702 495.224 C 796.941 494.629, 788.975 491.804, 781 488.947 C 763.167 482.559, 759.858 482.119, 754.562 485.436" stroke="#d2454f" fill="#d2454f" fill-opacity="0.2" fill-rule="evenodd"/><path class="svg-region-LPr" d="M 1081 473.385 C 1077.975 474.650, 1073.250 476.819, 1070.500 478.206 C 1067.750 479.593, 1063.913 481.015, 1061.974 481.367 C 1058.977 481.911, 1057.325 483.464, 1050.974 491.705 C 1046.863 497.040, 1040.968 504.004, 1037.873 507.182 C 1034.779 510.361, 1031.504 514.432, 1030.596 516.230 C 1029.688 518.029, 1028.397 520.288, 1027.727 521.250 C 1026.767 522.631, 1026.778 523.369, 1027.784 524.750 C 1028.484 525.713, 1029.832 527.792, 1030.779 529.371 C 1031.725 530.951, 1034.412 534.890, 1036.750 538.124 C 1039.088 541.359, 1041 544.599, 1041 545.324 C 1041 546.049, 1040.156 548.378, 1039.124 550.499 L 1037.249 554.355 1039.613 556.905 C 1042.497 560.016, 1048.766 560.427, 1051.777 557.702 C 1053.472 556.168, 1053.866 556.134, 1054.938 557.425 C 1057.136 560.074, 1066.898 565, 1069.948 565 C 1072.221 565, 1074.501 563.527, 1079.570 558.786 C 1088.292 550.627, 1092.981 543.308, 1093.060 537.731 C 1093.092 535.404, 1093.469 531.376, 1093.897 528.779 C 1094.324 526.182, 1094.352 523.932, 1093.959 523.779 C 1092.598 523.248, 1088 515.714, 1088 514.015 C 1088 513.077, 1087.100 511.495, 1086 510.500 C 1083.046 507.826, 1083.256 499.595, 1086.425 493.876 C 1087.758 491.469, 1089.158 487.700, 1089.536 485.500 C 1089.914 483.300, 1091.298 479.620, 1092.612 477.322 C 1093.925 475.024, 1095 472.661, 1095 472.072 C 1095 470.211, 1086.736 470.986, 1081 473.385" stroke="#d2454f" fill="#d2454f" fill-opacity="0.2" fill-rule="evenodd"/><path class="svg-region-DMl" d="M 659.500 450.241 C 657.850 450.868, 654.514 452.870, 652.086 454.690 C 649.658 456.511, 647.402 458, 647.073 458 C 646.043 458, 644.051 467.966, 644.719 469.778 C 645.491 471.875, 652.013 480.189, 653.762 481.306 C 654.456 481.750, 656.187 484.409, 657.610 487.217 C 660.757 493.427, 668.354 501.025, 674.290 503.898 C 676.703 505.067, 680.878 508.043, 683.567 510.511 C 686.256 512.980, 688.845 515, 689.319 515 C 689.794 515, 692.748 516.800, 695.884 519 C 699.021 521.200, 702.091 523, 702.708 523 C 703.366 523, 704.025 520.419, 704.302 516.750 C 704.563 513.313, 705.099 509.287, 705.494 507.804 C 706.020 505.830, 705.648 504.314, 704.106 502.149 C 702.948 500.522, 702 498.327, 702 497.270 C 702 494.050, 706.161 491.001, 710.564 490.994 C 712.729 490.990, 715.789 490.315, 717.364 489.494 C 719.197 488.538, 723.062 488, 728.095 488 C 736.602 488, 736.195 487.715, 737.211 494.403 C 737.370 495.449, 739.750 497.859, 742.500 499.757 L 747.500 503.208 748.344 496.854 C 749.722 486.490, 749.377 477.632, 747.449 473.872 C 745.395 469.864, 744.306 469.036, 741.064 469.015 C 739.725 469.007, 737.639 468.070, 736.430 466.934 C 734.930 465.525, 731.901 464.545, 726.906 463.853 C 718.074 462.629, 714 460.148, 714 455.993 C 714 452.741, 715.362 453.075, 693.500 450.956 C 675.492 449.210, 662.909 448.945, 659.500 450.241 M 749.186 538.962 C 745.932 543.363, 740.301 544.595, 733.384 542.420 C 727.323 540.513, 725.254 541.046, 729.730 543.360 C 731.334 544.190, 733.255 545.603, 734 546.500 C 734.746 547.398, 738.313 550.060, 741.928 552.414 C 745.542 554.769, 749.357 557.665, 750.405 558.848 C 751.453 560.032, 753.316 561, 754.547 561 C 757.997 561, 758.296 557.308, 755.475 549.529 C 754.114 545.777, 753 541.197, 753 539.353 C 753 535.221, 752.026 535.121, 749.186 538.962" stroke="#68533d" fill="#68533d" fill-opacity="0.2" fill-rule="evenodd"/><path class="svg-region-DMr" d="M 1170.805 426.040 C 1168.772 427.113, 1164.047 428.434, 1160.305 428.975 C 1156.562 429.516, 1152.150 430.383, 1150.500 430.903 C 1146.989 432.008, 1129.291 439.768, 1123.500 442.741 C 1119.393 444.849, 1107 456.983, 1107 458.895 C 1107 459.482, 1104.137 463.008, 1100.639 466.731 C 1093.928 473.872, 1091.188 478.269, 1089.898 483.964 L 1089.114 487.428 1091.801 483.964 C 1095.330 479.416, 1100.016 475.130, 1102.228 474.427 C 1103.203 474.118, 1104 473.446, 1104 472.933 C 1104 472.420, 1104.906 472, 1106.014 472 C 1107.121 472, 1108.809 471.589, 1109.764 471.086 C 1123.173 464.025, 1136.926 464.133, 1144.824 471.361 C 1146.988 473.342, 1147.129 474.142, 1146.872 482.990 C 1146.532 494.678, 1147.190 495.064, 1156.803 488.811 C 1166.270 482.653, 1167.615 482, 1170.831 482 C 1172.404 482, 1174.474 481.133, 1175.433 480.074 C 1176.392 479.015, 1180.236 476.095, 1183.977 473.585 C 1192.339 467.975, 1192.812 466.682, 1193.676 447.072 C 1194.227 434.577, 1192.623 428.960, 1187.635 425.919 C 1183.504 423.400, 1175.697 423.456, 1170.805 426.040 M 1094.673 524.750 C 1093.744 526.314, 1092.842 537.999, 1093.652 537.977 C 1094.118 537.964, 1096.188 536.433, 1098.250 534.575 C 1102.200 531.016, 1103.001 527.859, 1100.571 525.429 C 1099.055 523.912, 1095.418 523.494, 1094.673 524.750" stroke="#68533d" fill="#68533d" fill-opacity="0.2" fill-rule="evenodd"/><path class="svg-region-VMl" d="M 800.204 565.429 C 798.391 566.710, 795.215 568.030, 793.146 568.361 C 788.666 569.077, 786.343 571.426, 781.989 579.641 L 778.734 585.782 782.870 591.641 C 785.145 594.864, 787.931 598.625, 789.063 600 C 790.194 601.375, 793.777 606.100, 797.025 610.500 C 800.273 614.900, 804.859 620.557, 807.215 623.071 C 822.418 639.288, 823.308 640.475, 826.848 649.250 C 828.385 653.062, 830.890 652.729, 836.263 648 C 838.762 645.800, 841.499 644, 842.344 644 C 843.190 644, 844.128 643.602, 844.428 643.116 C 845.503 641.377, 854.041 638, 857.365 638 C 859.227 638, 863.250 636.895, 866.305 635.544 C 869.360 634.193, 874.253 632.807, 877.179 632.463 C 885.652 631.469, 885.858 631.161, 880.205 627.932 C 875.124 625.031, 873.730 622.809, 876.250 621.628 C 879.933 619.902, 885.414 616.257, 885.724 615.327 C 885.920 614.740, 884.597 612.315, 882.783 609.938 C 880.010 606.302, 878.261 605.186, 871.760 602.907 C 867.511 601.417, 862.138 598.803, 859.820 597.099 C 857.399 595.319, 854.375 594, 852.713 594 C 850.750 594, 848.973 593.035, 847.187 591 C 845.469 589.042, 843.606 588, 841.824 588 C 837.943 588, 834 585.974, 834 583.979 C 834 582.653, 832.782 582.154, 828.453 581.707 C 819.782 580.812, 810.909 574.528, 806.629 566.250 C 804.650 562.422, 804.485 562.401, 800.204 565.429" stroke="#e59376" fill="#e59376" fill-opacity="0.2" fill-rule="evenodd"/><path class="svg-region-VMr" d="M 1030.608 561.868 C 1024.523 569.305, 1018.607 574, 1015.319 574 C 1014.178 574, 1012.685 574.675, 1012 575.500 C 1011.315 576.325, 1010.309 577, 1009.765 577 C 1008.501 577, 1003.222 581.185, 996.837 587.250 C 994.087 589.862, 991.259 592, 990.553 592 C 989.847 592, 986.622 593.799, 983.385 595.998 C 978.632 599.226, 976.615 599.996, 972.902 599.998 C 968.587 600, 967.927 600.384, 962.152 606.248 C 957.571 610.901, 956 613.211, 956 615.294 C 956 619.037, 960.049 623, 963.872 623 C 965.502 623, 969.076 624.125, 971.813 625.500 C 975.454 627.329, 978.388 628, 982.740 628 C 988.607 628, 992 629.730, 992 632.722 C 992 633.621, 994.167 635, 995.582 635 C 996.408 635, 995.979 630.829, 994.957 628.919 C 993.181 625.602, 996.479 625.502, 1000.700 628.745 C 1002.790 630.352, 1006.525 632.506, 1009 633.532 C 1014.377 635.763, 1021.676 640.713, 1022.411 642.628 C 1022.700 643.383, 1023.793 644, 1024.840 644 C 1026.349 644, 1026.880 643.019, 1027.409 639.250 C 1028.277 633.067, 1033.985 622.253, 1041.500 612.555 C 1047.876 604.327, 1052.766 596.140, 1058.507 584.083 C 1060.449 580.004, 1064.078 574.486, 1066.571 571.821 C 1070.929 567.162, 1071.517 565, 1068.426 565 C 1066.572 565, 1056.557 559.376, 1054.938 557.425 C 1053.866 556.134, 1053.472 556.168, 1051.777 557.702 C 1048.898 560.307, 1042.260 560.040, 1039.983 557.227 C 1038.991 556.002, 1037.740 555, 1037.203 555 C 1036.666 555, 1033.699 558.090, 1030.608 561.868" stroke="#e59376" fill="#e59376" fill-opacity="0.2" fill-rule="evenodd"/><path class="svg-region-Ol" d="M 441.500 347.685 C 431.792 348.689, 426.400 350.584, 406.811 359.878 C 402.032 362.145, 397.732 364, 397.255 364 C 396.779 364, 394.864 365.125, 393 366.500 C 391.136 367.875, 389.086 369, 388.444 369 C 387.364 369, 373.793 377.566, 370.115 380.569 C 369.227 381.295, 365.800 383.911, 362.500 386.382 C 356.716 390.714, 339 407.272, 339 408.345 C 339 408.634, 336.625 411.261, 333.722 414.185 C 329.282 418.657, 320 431.170, 320 432.684 C 320 432.935, 318.731 435.021, 317.179 437.320 C 313.184 443.240, 301 468.737, 301 471.176 C 301 471.700, 299.828 474.687, 298.395 477.814 C 296.963 480.941, 295.114 485.300, 294.286 487.500 C 293.458 489.700, 292.155 492.918, 291.391 494.651 C 290.626 496.384, 290 499.122, 290 500.734 C 290 502.347, 289.663 504.003, 289.250 504.414 C 288.200 505.461, 285.212 521.322, 283.487 535 C 281.725 548.977, 281.336 590.185, 282.928 594.334 C 283.525 595.893, 283.787 597.536, 283.508 597.987 C 282.352 599.857, 292.022 621.738, 298.634 632.212 C 299.935 634.273, 301 636.264, 301 636.636 C 301 637.007, 302.056 638.704, 303.346 640.406 C 304.636 642.108, 306.392 645.075, 307.248 647 C 309.607 652.304, 314.917 663.888, 317.563 669.500 C 325.109 685.510, 342.201 706.761, 354.713 715.689 C 366.006 723.748, 383.386 730.768, 396.500 732.569 C 401.419 733.245, 409.316 734.877, 417.822 736.976 C 420.199 737.562, 427.399 738.482, 433.822 739.019 C 440.245 739.556, 449.508 740.432, 454.407 740.966 C 479.017 743.647, 505.720 742.988, 535.500 738.964 C 539.900 738.369, 549.350 737.225, 556.500 736.421 C 563.650 735.617, 572.200 734.507, 575.500 733.955 C 578.800 733.402, 585.325 732.542, 590 732.042 C 602.457 730.711, 612.435 729.164, 615.131 728.147 C 616.434 727.655, 620.875 726.714, 625 726.055 C 629.125 725.396, 635.875 723.779, 640 722.463 C 644.125 721.147, 649.641 719.383, 652.258 718.544 C 658.895 716.416, 676.714 707.016, 683.139 702.253 C 688.325 698.409, 694.751 691.900, 700.072 685.102 C 705.128 678.644, 713 661.427, 713.315 656.140 C 713.477 653.409, 714.214 650.447, 714.951 649.558 C 716.457 647.744, 715.958 634.400, 714.051 625.500 C 713.462 622.750, 712.341 617.350, 711.561 613.500 C 709.953 605.574, 705.992 593.669, 704.795 593.167 C 704.358 592.983, 704 591.911, 704 590.783 C 704 587.443, 701.703 580.563, 700.300 579.700 C 699.585 579.260, 699 577.663, 699 576.150 C 699 574.638, 698.554 572.954, 698.010 572.410 C 697.465 571.865, 696.754 569.187, 696.430 566.460 C 696.106 563.732, 695.429 560.600, 694.925 559.500 C 694.421 558.400, 693.147 554.800, 692.093 551.500 C 690.285 545.839, 688.036 540.380, 686.119 537 C 683.946 533.167, 680 523.804, 680 522.478 C 680 521.665, 679.594 521, 679.098 521 C 678.602 521, 677.748 519.716, 677.201 518.147 C 674.838 511.369, 658.213 492.892, 640.627 477.500 C 636.857 474.200, 633.181 470.938, 632.458 470.250 C 631.735 469.563, 630.633 469, 630.011 469 C 629.388 469, 625.193 465.445, 620.689 461.101 C 616.185 456.756, 608.908 449.934, 604.518 445.941 C 600.128 441.947, 595.708 437.627, 594.696 436.340 C 593.683 435.053, 592.301 434, 591.624 434 C 590.100 434, 585.396 429.150, 580.333 422.360 C 576.565 417.307, 556.282 397.588, 549.805 392.682 C 547.987 391.305, 543.800 388.716, 540.500 386.928 C 537.200 385.141, 531.800 381.795, 528.500 379.493 C 525.200 377.192, 521.825 374.999, 521 374.621 C 520.175 374.242, 516.800 372.155, 513.500 369.983 C 510.200 367.811, 504.575 364.617, 501 362.884 C 497.425 361.152, 491.800 358.408, 488.500 356.787 C 481.512 353.353, 472.584 350.295, 465.500 348.909 C 460.177 347.868, 446.483 347.169, 441.500 347.685" stroke="#aa444d" fill="#aa444d" fill-opacity="0.2" fill-rule="evenodd"/><path class="svg-region-Or" d="M 1400 313.981 C 1396.975 314.450, 1392.250 315.100, 1389.500 315.428 C 1385.085 315.954, 1382.668 316.424, 1374.500 318.348 C 1357.235 322.414, 1336.643 330.881, 1328.607 337.218 C 1319.584 344.334, 1316.398 347.197, 1305.318 358.150 C 1298.618 364.774, 1292.373 371.837, 1291.440 373.846 C 1290.507 375.856, 1287.974 380.124, 1285.809 383.330 C 1283.645 386.537, 1279.380 393.962, 1276.330 399.830 C 1273.281 405.699, 1269.157 412.525, 1267.168 415 C 1262.791 420.443, 1242.959 440, 1241.815 440 C 1241.367 440, 1241 440.457, 1241 441.017 C 1241 442.181, 1230.840 453.272, 1223.633 459.974 C 1220.957 462.463, 1213.979 469.225, 1208.128 475 C 1197.788 485.206, 1197.387 485.768, 1193.827 495.077 L 1190.164 504.654 1190.177 522.577 C 1190.184 532.435, 1190.207 543.650, 1190.228 547.500 C 1190.262 553.891, 1188.395 565.053, 1186.882 567.500 C 1186.075 568.805, 1184.287 577.175, 1183.464 583.500 C 1183.106 586.250, 1182.374 589.034, 1181.837 589.686 C 1180.423 591.405, 1178.972 608.614, 1179.082 622.354 C 1179.213 638.770, 1182.810 648.925, 1195.251 668 C 1200.617 676.228, 1213.579 690.367, 1219.194 694.118 C 1238.566 707.058, 1240.700 708.270, 1254.500 714.170 C 1263.181 717.882, 1266.751 718.894, 1275 719.985 C 1278.575 720.457, 1283.727 721.332, 1286.450 721.929 C 1292.726 723.305, 1299.020 723.874, 1343 727.045 C 1359.939 728.266, 1364.700 728.767, 1371.500 730.044 C 1384.076 732.406, 1433.790 732.998, 1444 730.907 C 1450.537 729.568, 1465.144 724.938, 1470.611 722.471 C 1508.809 705.237, 1524.479 695.957, 1534.910 684.390 C 1537.336 681.701, 1541.851 676.800, 1544.943 673.500 C 1552.827 665.085, 1556.276 660.426, 1559.784 653.450 C 1562.889 647.277, 1568.741 632.704, 1571.008 625.500 C 1571.701 623.300, 1572.897 620.256, 1573.666 618.736 C 1574.436 617.216, 1575.453 614.066, 1575.926 611.736 C 1576.399 609.406, 1577.991 602.100, 1579.463 595.500 C 1582.004 584.109, 1582.120 582.409, 1581.758 562 C 1581.413 542.604, 1581.068 539.032, 1578.230 525.500 C 1574.818 509.229, 1572.228 500.615, 1565.882 484.437 C 1561.348 472.878, 1548.105 446.213, 1544.558 441.500 C 1543.316 439.850, 1540.611 435.365, 1538.546 431.533 C 1536.482 427.701, 1533.909 423.426, 1532.829 422.033 C 1531.749 420.640, 1528.448 415.675, 1525.494 411 C 1518.796 400.398, 1510.885 388.724, 1504.944 380.674 C 1494.410 366.401, 1491.478 362.473, 1491 362 C 1490.723 361.725, 1487.278 357.675, 1483.345 353 C 1476.475 344.835, 1464.139 332.843, 1458.969 329.306 C 1457.611 328.376, 1456.275 327.365, 1456 327.058 C 1455.725 326.751, 1454.375 325.863, 1453 325.084 C 1436.884 315.957, 1415.790 311.538, 1400 313.981" stroke="#aa444d" fill="#aa444d" fill-opacity="0.2" fill-rule="evenodd"/><path class="svg-region-VOC" d="M 900.500 377.449 C 894.106 378.740, 882.218 382.684, 880.413 384.114 C 874.514 388.785, 853.130 397.398, 844.303 398.658 C 840.901 399.144, 838.866 400.450, 833.548 405.563 C 829.940 409.031, 826.091 412.154, 824.994 412.502 C 818.773 414.476, 829.358 416.430, 846 416.379 C 857.694 416.344, 860.805 415.279, 870.614 407.958 C 876.350 403.677, 878.909 402.484, 894.283 396.931 C 907.878 392.020, 918.414 391.074, 934.334 393.335 C 948.185 395.301, 959.294 400.445, 966.777 408.358 C 972.682 414.601, 975.400 416.490, 979.907 417.480 L 983.285 418.222 982.765 413.611 C 982.196 408.556, 982.470 408.325, 986.535 410.434 C 988.989 411.707, 989.560 411.679, 991.624 410.184 C 992.903 409.258, 994.191 407.792, 994.486 406.926 C 994.781 406.061, 995.957 404.350, 997.099 403.125 C 999.423 400.630, 998.997 398, 996.269 398 C 993.047 398, 979.630 393.241, 973.765 390.018 C 969.889 387.888, 967.525 385.802, 966.472 383.582 L 964.913 380.298 953.207 379.099 C 946.768 378.440, 938.350 377.496, 934.500 377.002 C 924.868 375.765, 907.728 375.990, 900.500 377.449" stroke="#ff8f93" fill="#ff8f93" fill-opacity="0.2" fill-rule="evenodd"/><path class="svg-region-BPCl" d="M 816.025 540.226 C 814.664 540.945, 811.852 543.966, 809.775 546.938 C 806.365 551.819, 806 552.960, 806 558.737 C 806 562.254, 806.523 566.114, 807.162 567.316 C 810.854 574.252, 822.134 582, 828.543 582 C 832.982 582, 837.948 579.259, 839.153 576.144 C 839.715 574.690, 839.920 571.475, 839.607 569 C 837.579 552.947, 834.877 545.473, 829.791 541.851 C 826.150 539.258, 819.369 538.458, 816.025 540.226" stroke="#83385f" fill="#83385f" fill-opacity="0.2" fill-rule="evenodd"/><path class="svg-region-BPCr" d="M 1017.750 528.129 C 1015.138 529.801, 1013 531.565, 1013 532.050 C 1013 532.534, 1011.700 534.981, 1010.110 537.487 C 1007.448 541.685, 1007.164 543.065, 1006.499 555.027 C 1005.883 566.089, 1006.014 568.372, 1007.381 570.458 C 1009.544 573.760, 1015.137 574.782, 1019.545 572.680 C 1025.517 569.832, 1041 550.249, 1041 545.543 C 1041 544.697, 1039.088 541.325, 1036.750 538.050 C 1034.412 534.774, 1031.594 530.610, 1030.487 528.797 C 1027.758 524.327, 1023.997 524.130, 1017.750 528.129" stroke="#83385f" fill="#83385f" fill-opacity="0.2" fill-rule="evenodd"/><path class="svg-region-AMC" d="M 998.500 573.533 C 996.300 574.878, 993.600 576.385, 992.500 576.880 C 991.400 577.376, 988.148 579.406, 985.274 581.391 C 982.400 583.376, 979.865 585, 979.641 585 C 979.417 585, 978.998 584.100, 978.710 583 C 978.032 580.406, 976.795 580.477, 973.327 583.305 C 970.395 585.696, 965.720 587.418, 958 588.952 C 955.525 589.443, 951.025 590.591, 948 591.503 C 944.975 592.415, 940.250 593.629, 937.500 594.202 C 930.717 595.614, 892.767 594.496, 890.058 592.804 C 888.490 591.825, 887.121 591.820, 883.523 592.783 C 877.660 594.351, 876.118 594.310, 872.636 592.494 C 871.060 591.672, 868.540 591, 867.035 591 C 863.186 591, 858.320 589.148, 853.343 585.789 C 849.279 583.047, 840.127 580, 835.951 580 C 834.446 580, 834 580.692, 834 583.025 C 834 586.354, 836.646 588, 841.997 588 C 844.041 588, 845.477 588.861, 847 591 C 848.634 593.295, 849.911 594, 852.433 594 C 855.224 594, 860.072 596.575, 862 599.081 C 862.275 599.438, 866.100 600.963, 870.500 602.468 C 879.687 605.612, 880.402 606.092, 883.721 611.350 C 886.468 615.701, 886.323 616.008, 879.910 619.438 C 877.213 620.881, 875.500 622.494, 875.500 623.591 C 875.500 625.383, 881.376 628.789, 894.119 634.383 C 900.225 637.064, 901.850 640.041, 899.737 644.677 C 898.282 647.871, 901.150 651, 905.533 651 C 907.305 651, 909.347 651.713, 910.071 652.585 C 911.004 653.710, 912.275 653.985, 914.443 653.533 C 916.124 653.182, 919.668 652.943, 922.318 653.002 C 926.506 653.095, 927.650 652.646, 931.056 649.568 C 933.584 647.285, 936.408 645.799, 939.010 645.382 C 941.229 645.028, 943.286 644.346, 943.581 643.869 C 943.876 643.391, 945.351 643, 946.859 643 C 950.336 643, 952 641.340, 952 637.871 C 952 634.254, 954.417 632.003, 958.321 631.986 C 963.606 631.964, 966.005 630.890, 967.581 627.844 C 969.495 624.142, 968.744 623, 964.396 623 C 962.027 623, 960.122 622.213, 958.455 620.545 C 954.704 616.795, 955.271 613.313, 960.527 607.804 C 966.801 601.229, 968.855 600, 973.575 600 C 976.404 600, 978.774 599.214, 981.102 597.503 C 982.971 596.130, 986.437 594.073, 988.804 592.933 C 991.171 591.792, 995.027 588.978, 997.372 586.679 C 999.718 584.381, 1003.317 581.375, 1005.372 580 C 1007.426 578.625, 1010.073 576.771, 1011.253 575.879 L 1013.400 574.258 1010.249 572.629 C 1005.986 570.424, 1003.237 570.636, 998.500 573.533" stroke="#9d4741" fill="#9d4741" fill-opacity="0.2" fill-rule="evenodd"/><path class="svg-region-ODMl" d="M 717 489.583 C 715.625 490.346, 712.388 490.977, 709.807 490.985 C 706.100 490.997, 704.786 491.467, 703.557 493.223 C 701.441 496.243, 701.600 498.630, 704.156 502.219 C 706.032 504.854, 706.162 505.663, 705.156 508.445 C 704.520 510.203, 704 514.913, 704 518.911 C 704 527.054, 704.517 527.838, 713 532.547 C 715.475 533.920, 719.300 536.131, 721.500 537.460 C 723.700 538.788, 728.429 540.850, 732.009 542.041 C 740.245 544.781, 745.572 543.739, 749.473 538.624 C 751.744 535.647, 751.998 534.409, 751.977 526.406 C 751.964 521.278, 751.213 514.604, 750.207 510.674 C 748.551 504.204, 748.174 503.651, 742.980 500.077 C 739.966 498.003, 737.370 495.449, 737.211 494.403 C 736.190 487.677, 736.663 487.992, 727.731 488.098 C 722.756 488.157, 718.511 488.745, 717 489.583" stroke="#999999" fill="#999999" fill-opacity="0.2" fill-rule="evenodd"/><path class="svg-region-ODMr" d="M 1116 468.191 C 1113.525 469.327, 1110.719 470.650, 1109.764 471.129 C 1108.809 471.608, 1107.121 472, 1106.014 472 C 1104.906 472, 1104 472.450, 1104 473 C 1104 473.550, 1103.500 474, 1102.889 474 C 1102.278 474, 1099.594 475.828, 1096.925 478.063 C 1087.109 486.281, 1080.599 505.612, 1086 510.500 C 1087.100 511.495, 1088 513.293, 1088 514.494 C 1088 517.875, 1093.073 523.921, 1095.945 523.964 C 1097.290 523.984, 1099.623 525.181, 1101.129 526.623 C 1103.562 528.955, 1104.376 529.171, 1108.434 528.562 C 1110.945 528.186, 1113 527.421, 1113 526.863 C 1113 523.573, 1127.175 508.654, 1138.870 499.633 C 1145.487 494.529, 1147 491.114, 1147 481.273 C 1147 472.580, 1146.155 471.080, 1139.300 467.617 C 1134.541 465.213, 1121.802 465.526, 1116 468.191" stroke="#999999" fill="#999999" fill-opacity="0.2" fill-rule="evenodd"/>
    </svg>