<svg xmlns="http://www.w3.org/2000/svg" width="1921" height="1027" viewBox="0 0 1921 1027" version="1.1">
    <path class="svg-region-V" d="M 1032.500 153.537 C 1030.748 154.338, 1025.963 154.933, 1021 154.967 C 1013.350 155.018, 1004.927 156.565, 994.007 159.925 C 992.085 160.516, 987.780 161, 984.440 161 C 977.536 161, 968.579 162.451, 962.057 164.626 C 954.543 167.132, 939.606 174.604, 937.591 176.866 C 936.541 178.044, 933.945 179.476, 931.821 180.048 C 929.697 180.620, 926.330 182.193, 924.340 183.544 C 922.349 184.895, 919.771 186.003, 918.610 186.006 C 917.450 186.010, 915.222 186.679, 913.660 187.493 C 911.619 188.558, 910.293 188.692, 908.943 187.970 C 907.910 187.417, 903.563 187.124, 899.283 187.318 C 890.299 187.726, 885.935 186.239, 879.501 180.577 C 877.300 178.641, 873.250 175.092, 870.500 172.690 C 864.773 167.689, 854.359 162.379, 848.500 161.472 C 846.300 161.132, 840.900 161.329, 836.500 161.911 C 832.100 162.493, 812.750 163.257, 793.500 163.609 C 755.952 164.295, 758.435 163.979, 740.320 170.359 C 725.753 175.490, 722.893 177.527, 703.626 196.500 C 685.780 214.074, 682.122 218.761, 668.271 241.802 C 656.493 261.395, 654.176 269.317, 655.403 285.806 C 656.188 296.364, 657.382 298.951, 665.362 307.373 L 671.874 314.246 677.687 313.477 C 680.884 313.054, 697.225 312.653, 714 312.586 L 744.500 312.463 750.255 309.133 C 753.421 307.302, 756.346 305.216, 756.755 304.499 C 757.165 303.781, 759.794 300.735, 762.598 297.730 C 767.042 292.967, 768.760 291.911, 775.977 289.508 C 783.990 286.839, 785.008 286.745, 807.379 286.601 C 820.096 286.520, 831.194 286.851, 832.042 287.337 C 833.018 287.896, 835.324 287.630, 838.327 286.610 C 844.090 284.654, 848.999 284.548, 851.433 286.327 C 852.718 287.267, 855.532 287.523, 861.055 287.203 C 867.806 286.812, 869.337 287.045, 872.380 288.926 C 874.316 290.122, 876.838 292.619, 877.985 294.475 C 880.353 298.307, 878.706 298.056, 913.500 299.883 C 922.850 300.373, 932.525 301.256, 935 301.844 C 937.475 302.432, 941.158 302.932, 943.184 302.956 C 946.471 302.995, 946.901 302.705, 947.184 300.250 C 947.410 298.284, 948.420 297.072, 950.728 296 C 952.911 294.986, 953.964 293.790, 953.978 292.309 C 953.990 291.104, 954.523 289.795, 955.163 289.399 C 957.232 288.120, 968.189 288.688, 969.074 290.119 C 969.527 290.852, 972.713 291.752, 976.197 292.130 C 984.545 293.036, 991.769 294.754, 995.714 296.772 C 998.799 298.350, 999.022 298.328, 1001.262 296.224 C 1003.415 294.201, 1004.246 294.082, 1011.998 294.679 C 1019.899 295.289, 1020.641 295.548, 1024.450 299.034 C 1029.342 303.511, 1034.738 306.326, 1046 310.278 C 1050.675 311.919, 1056.975 314.189, 1060 315.323 C 1064.520 317.018, 1067.906 317.395, 1079 317.443 L 1092.500 317.500 1102.500 312.859 C 1109.579 309.575, 1114.870 307.865, 1120.612 307.009 C 1125.558 306.271, 1130.241 304.883, 1132.612 303.451 C 1134.750 302.160, 1138.095 300.219, 1140.045 299.136 C 1147.975 294.735, 1154.462 284.714, 1156.535 273.668 C 1156.913 271.650, 1157.623 270, 1158.111 270 C 1160 270, 1158.606 263.804, 1154.833 255.434 C 1153.825 253.198, 1153 250.664, 1153 249.803 C 1153 245.499, 1142.487 221.596, 1138.133 216 C 1136.635 214.075, 1134.471 210.877, 1133.324 208.894 C 1130.518 204.044, 1127.627 200.570, 1120.809 193.854 C 1106.843 180.097, 1095.959 173.059, 1079.770 167.315 C 1075.772 165.897, 1070.250 163.910, 1067.500 162.901 C 1064.750 161.891, 1061.126 161.051, 1059.447 161.033 C 1057.705 161.014, 1054.699 159.763, 1052.447 158.121 C 1050.276 156.537, 1046.249 154.766, 1043.498 154.184 C 1040.747 153.603, 1037.822 152.910, 1036.998 152.645 C 1036.174 152.380, 1034.150 152.781, 1032.500 153.537" stroke="#dd8a8a" fill="#dd8a8a" fill-opacity="0.2" fill-rule="evenodd"/><path class="svg-region-SV" d="M 837.668 286.624 C 834.903 287.473, 832.336 287.747, 831.668 287.264 C 831.026 286.799, 820.091 286.494, 807.369 286.584 C 786.503 286.734, 783.568 286.966, 777.394 288.961 C 768.022 291.988, 767.109 292.588, 760.562 300 C 754.931 306.375, 746.688 311.837, 742.500 311.968 C 741.400 312.003, 739.844 312.445, 739.043 312.953 C 737.860 313.701, 738.236 314.448, 741.043 316.921 C 742.944 318.597, 745.014 319.975, 745.643 319.984 C 746.272 319.993, 747.055 320.701, 747.384 321.559 C 747.713 322.416, 751.024 324.461, 754.741 326.102 C 758.459 327.744, 763.136 329.967, 765.136 331.043 C 767.136 332.120, 769.292 333, 769.928 333 C 770.563 333, 773.877 334.299, 777.292 335.887 C 785.248 339.587, 799.049 340.947, 806 338.716 C 808.475 337.921, 814.325 336.486, 819 335.527 C 823.675 334.568, 828.850 333.331, 830.500 332.780 C 832.150 332.228, 845.875 331.351, 861 330.831 C 876.125 330.311, 889.343 329.423, 890.373 328.857 C 891.659 328.152, 899.183 328.175, 914.373 328.933 C 926.543 329.540, 939.955 330.177, 944.178 330.349 C 949.375 330.560, 952.607 331.204, 954.178 332.341 C 966.801 341.476, 971.656 343.007, 987.907 342.976 C 994.833 342.963, 1002.300 342.455, 1004.500 341.847 C 1006.700 341.239, 1012.642 340.462, 1017.704 340.121 C 1028.510 339.392, 1029.858 338.560, 1027.528 334.055 C 1026.615 332.290, 1026.023 329.241, 1026.193 327.190 L 1026.500 323.500 1032.542 323.208 C 1037.413 322.972, 1040.031 323.505, 1046.042 325.954 C 1054.769 329.510, 1055.349 329.567, 1058.846 327.211 C 1062.495 324.753, 1070.252 322.249, 1077.922 321.055 C 1081.454 320.506, 1084.807 319.593, 1085.372 319.028 C 1085.937 318.463, 1086.197 317.999, 1085.950 317.999 C 1075.551 317.964, 1064.597 316.862, 1061 315.489 C 1058.525 314.543, 1052.225 312.317, 1047 310.542 C 1034.937 306.442, 1029.528 303.682, 1024.446 299.030 C 1020.655 295.561, 1019.851 295.275, 1012.049 294.624 C 1004.267 293.975, 1003.543 294.080, 1001.308 296.181 C 999.322 298.046, 998.617 298.223, 997.205 297.210 C 995.051 295.665, 994.912 295.619, 986.500 293.634 C 982.650 292.726, 977.735 291.987, 975.579 291.992 C 973.373 291.996, 970.882 291.298, 969.885 290.396 C 968.699 289.323, 966.160 288.773, 962.219 288.736 C 955.591 288.674, 954 289.298, 954 291.960 C 954 293.006, 952.486 294.696, 950.500 295.867 C 947.964 297.364, 947 298.631, 947 300.466 C 947 302.735, 946.608 302.995, 943.250 302.956 C 941.188 302.932, 937.475 302.432, 935 301.844 C 932.525 301.256, 922.850 300.373, 913.500 299.883 C 878.706 298.056, 880.353 298.307, 877.985 294.475 C 876.838 292.619, 874.316 290.122, 872.380 288.926 C 869.337 287.045, 867.806 286.812, 861.055 287.203 C 855.532 287.523, 852.718 287.267, 851.433 286.327 C 849.107 284.626, 843.797 284.741, 837.668 286.624" stroke="#c666b5" fill="#c666b5" fill-opacity="0.2" fill-rule="evenodd"/><path class="svg-region-DB" d="M 1131.830 303.525 C 1129.261 304.863, 1123.861 306.455, 1119.830 307.063 C 1115.232 307.757, 1108.959 309.772, 1103 312.468 C 1097.775 314.832, 1091.925 317.096, 1090 317.498 C 1088.075 317.901, 1085.975 318.653, 1085.333 319.169 C 1084.692 319.685, 1081.146 320.577, 1077.454 321.152 C 1069.269 322.426, 1060.299 325.419, 1057.749 327.727 C 1055.956 329.349, 1055.461 329.286, 1048.179 326.510 C 1042.418 324.313, 1038.752 323.572, 1033.500 323.541 L 1026.500 323.500 1026.188 327.273 C 1026.017 329.350, 1026.597 332.490, 1027.478 334.257 C 1028.966 337.239, 1028.957 337.559, 1027.349 338.734 C 1026.329 339.480, 1022.636 340, 1018.358 340 C 1014.365 340, 1008.506 340.675, 1005.339 341.500 C 1001.817 342.417, 995.096 342.997, 988.040 342.992 C 973.681 342.983, 966.205 340.944, 958.375 334.903 C 953.152 330.874, 952.494 330.646, 945.189 330.345 C 940.960 330.171, 927.243 329.533, 914.708 328.927 C 899.850 328.209, 891.495 328.165, 890.708 328.802 C 890.043 329.340, 878.025 330.087, 864 330.462 C 848.410 330.879, 836.168 331.679, 832.500 332.520 C 829.200 333.277, 822.900 334.640, 818.500 335.550 C 814.100 336.460, 808.475 337.872, 806 338.688 C 799.254 340.912, 786.406 339.643, 777.832 335.906 C 774.165 334.308, 770.553 333, 769.805 333 C 769.057 333, 767.557 332.382, 766.473 331.627 C 765.388 330.871, 761.111 328.845, 756.969 327.125 C 752.827 325.404, 748.791 323.097, 747.999 321.998 C 747.207 320.899, 746.095 319.991, 745.529 319.981 C 744.963 319.970, 742.775 318.456, 740.667 316.616 L 736.835 313.270 720.167 312.610 C 711 312.247, 696.525 312.399, 688 312.949 C 679.475 313.498, 672.157 313.960, 671.738 313.974 C 671.319 313.988, 671.260 315.773, 671.606 317.941 C 672.082 320.916, 671.749 322.692, 670.247 325.191 C 669.152 327.011, 667.970 329.719, 667.620 331.208 C 667.269 332.698, 664.690 336.946, 661.887 340.649 C 656.809 347.358, 656.793 347.404, 657.197 353.759 C 657.421 357.267, 658.081 360.444, 658.664 360.818 C 659.247 361.193, 659.984 362.850, 660.301 364.500 C 660.619 366.150, 661.193 368.785, 661.576 370.356 C 661.960 371.927, 661.872 373.502, 661.381 373.856 C 660.890 374.210, 659.254 376.157, 657.744 378.183 C 655.499 381.197, 655 382.909, 655 387.605 C 655 391.557, 655.519 393.916, 656.667 395.184 C 658.802 397.544, 658.811 402.618, 656.682 404.746 C 655.675 405.754, 653.563 406.352, 651.266 406.281 C 645.619 406.107, 637.077 409.295, 635.618 412.121 C 632.975 417.240, 631.745 424.129, 632.203 431.254 C 632.747 439.726, 634.762 444.519, 639.834 449.404 C 652.871 461.963, 654 462.722, 654 458.934 C 654 454.065, 656.542 452.256, 666.500 450.037 C 670.295 449.191, 673.790 449.233, 681 450.211 C 687.052 451.032, 697.942 451.377, 711.003 451.162 C 730.763 450.836, 731.606 450.902, 734.253 452.985 L 737 455.145 737.022 451.823 C 737.034 449.995, 737.934 446.538, 739.022 444.141 C 740.110 441.743, 741 439.206, 741 438.503 C 741 437.064, 747.871 426.683, 749.164 426.167 C 749.624 425.983, 750.009 425.308, 750.019 424.667 C 750.051 422.761, 756.167 416.474, 761 413.380 C 763.475 411.796, 766.214 409.825, 767.087 409 C 769.164 407.038, 772.426 399.778, 774.052 393.500 C 774.764 390.750, 775.944 388.140, 776.674 387.700 C 777.403 387.260, 778 386.508, 778 386.027 C 778 382.992, 793.274 371.346, 800.236 369.074 C 802.291 368.403, 804.230 367.437, 804.545 366.927 C 804.860 366.417, 805.844 366, 806.730 366 C 807.617 366, 809.053 365.402, 809.921 364.671 C 812.171 362.778, 821.106 360.999, 828.326 361.007 C 837.255 361.016, 859.560 357.073, 866 354.346 C 872.780 351.476, 873.518 351.175, 875.500 350.470 C 879.129 349.178, 903.263 347.592, 917 347.742 C 924.425 347.823, 945.350 348.314, 963.500 348.833 L 996.500 349.776 1009.308 354.314 C 1016.352 356.809, 1022.652 359.280, 1023.308 359.805 C 1023.964 360.329, 1027.200 361.528, 1030.500 362.469 C 1033.800 363.410, 1039.778 366.165, 1043.785 368.590 C 1047.792 371.016, 1051.298 373, 1051.576 373 C 1051.854 373, 1053.300 373.832, 1054.790 374.849 C 1062.412 380.049, 1074.990 387, 1076.780 387 C 1079.265 387, 1090.975 396.353, 1093.742 400.547 C 1094.847 402.222, 1096.079 405.083, 1096.479 406.904 C 1098.023 413.935, 1106.088 422.051, 1115.122 425.665 C 1117.503 426.618, 1121.487 428.386, 1123.976 429.595 C 1128.235 431.663, 1128.705 431.701, 1132 430.234 C 1133.925 429.378, 1141.125 427.155, 1148 425.295 C 1154.875 423.435, 1162.075 421.415, 1164 420.807 C 1165.925 420.198, 1171.209 419.509, 1175.743 419.277 C 1185.560 418.773, 1188.498 420.265, 1192.024 427.549 C 1194.038 431.709, 1194.331 431.935, 1195.578 430.292 C 1196.325 429.306, 1197.226 427.038, 1197.580 425.250 C 1197.933 423.462, 1198.564 422, 1198.981 422 C 1200.935 422, 1202.144 412.634, 1201.831 399.926 C 1201.455 384.663, 1200.188 380.896, 1193.653 375.607 L 1189.948 372.608 1187.820 374.736 C 1186.531 376.025, 1185.725 378.048, 1185.777 379.867 C 1185.888 383.758, 1183.574 385.839, 1180.955 384.204 C 1179.387 383.225, 1178.628 383.441, 1176.410 385.495 C 1174.946 386.852, 1173.355 387.719, 1172.874 387.422 C 1172.393 387.125, 1172 384.384, 1172 381.331 C 1172 376.252, 1172.426 375.194, 1177 368.905 C 1179.750 365.124, 1182 361.144, 1182 360.060 C 1182 358.976, 1179.420 355.482, 1176.266 352.295 C 1173.113 349.108, 1169.986 345.600, 1169.317 344.500 C 1165.136 337.621, 1160.220 326.704, 1159.178 321.982 C 1157.637 315.001, 1154.774 310.249, 1151.853 309.828 C 1150.516 309.635, 1149.359 308.607, 1149.041 307.329 C 1148.237 304.101, 1143.685 300.993, 1139.842 301.047 C 1138.004 301.072, 1134.398 302.188, 1131.830 303.525" stroke="#e8b1e4" fill="#e8b1e4" fill-opacity="0.2" fill-rule="evenodd"/><path class="svg-region-MB" d="M 901.500 347.933 C 899.850 348.390, 894.675 348.822, 890 348.894 C 881.110 349.030, 874.610 350.404, 866.927 353.773 C 864.411 354.875, 859.911 356.263, 856.927 356.857 C 840.693 360.084, 834.283 361, 827.923 361 C 820.094 361, 812.326 362.571, 809.921 364.641 C 809.053 365.388, 807.680 366, 806.871 366 C 806.062 366, 804.973 366.382, 804.450 366.850 C 803.928 367.317, 801.525 368.463, 799.111 369.397 C 796.697 370.331, 792.872 372.374, 790.611 373.938 C 785.937 377.171, 778 384.744, 778 385.970 C 778 386.419, 777.423 387.007, 776.719 387.278 C 776.014 387.548, 774.825 390.159, 774.076 393.079 C 772.314 399.955, 769.193 407.066, 767.026 409.144 C 766.083 410.048, 763.873 411.532, 762.113 412.441 C 758.003 414.567, 750 422.440, 750 424.359 C 750 425.170, 749.663 425.983, 749.250 426.167 C 747.542 426.926, 741 436.471, 741 438.204 C 741 439.236, 740.100 441.844, 739 444 C 735.710 450.448, 736.813 458.957, 740.133 452.750 C 743.498 446.460, 757.213 435, 761.375 435 C 761.642 435, 764.891 433.597, 768.595 431.883 C 778.506 427.295, 781.724 427.123, 788.211 430.835 C 791.168 432.526, 795.648 435.857, 798.167 438.237 C 802.250 442.094, 802.978 443.477, 804.877 450.986 C 806.799 458.588, 806.951 461.172, 806.425 477.455 C 805.899 493.779, 806.028 495.966, 807.779 500.388 C 809.694 505.224, 809.721 505.245, 810.407 502.388 C 811.568 497.549, 815.442 488, 816.245 488 C 816.660 488, 817 487.525, 817 486.945 C 817 486.365, 818.800 483.240, 821 480 C 823.200 476.760, 825 473.722, 825 473.247 C 825 472.773, 828.038 469.165, 831.750 465.230 C 835.462 461.295, 839.737 456.748, 841.250 455.127 C 843.576 452.634, 844 451.311, 844 446.542 C 844 441.807, 844.561 440.027, 847.500 435.433 C 849.425 432.423, 851.001 429.632, 851.002 429.231 C 851.004 428.829, 852.353 426.925, 854 425 C 855.647 423.075, 856.996 420.860, 856.998 420.079 C 856.999 419.297, 857.588 417.947, 858.307 417.079 C 860.080 414.936, 862.131 409.992, 861.229 410.035 C 860.828 410.055, 859.375 410.714, 858 411.500 C 854.524 413.487, 851 413.407, 851 411.341 C 851 410.428, 852.951 407.841, 855.336 405.591 C 857.721 403.341, 860.717 399.981, 861.995 398.123 C 865.320 393.288, 874.818 389.085, 884.678 388.087 C 889.773 387.571, 894.243 386.416, 897.500 384.772 C 906.385 380.289, 914.985 379, 936.014 379 L 955.134 379 958.817 382.491 C 960.843 384.412, 963.140 385.987, 963.921 385.991 C 964.703 385.996, 966.053 386.601, 966.921 387.335 C 968.875 388.986, 980.457 392.747, 986.221 393.602 C 992.323 394.507, 995 396.446, 995 399.964 C 995 403.687, 994.420 403.997, 986.149 404.691 L 979.296 405.265 982.398 408.243 C 984.104 409.880, 986.632 412.183, 988.017 413.360 C 989.401 414.537, 992.098 417.684, 994.010 420.353 C 997.373 425.047, 997.618 425.187, 1001.525 424.652 C 1005.629 424.089, 1013.075 425.426, 1023 428.508 C 1026.048 429.455, 1034.296 430.561, 1041.500 430.990 C 1055.322 431.812, 1054.076 431.440, 1074 440.678 C 1077.025 442.081, 1083.325 444.571, 1088 446.211 C 1092.675 447.852, 1098.018 450.121, 1099.872 451.254 C 1102.685 452.973, 1103.376 453.079, 1104.039 451.895 C 1108.562 443.813, 1111.951 440.382, 1119.857 435.877 L 1128.215 431.117 1124.857 429.704 C 1113.013 424.720, 1110.027 423.210, 1106 420.172 C 1101.796 417, 1096.001 408.297, 1096 405.154 C 1096 402.897, 1087.150 392, 1085.317 392 C 1085.027 392, 1083.452 390.875, 1081.818 389.500 C 1080.184 388.125, 1078.142 387, 1077.281 387 C 1076.419 387, 1070.941 384.245, 1065.107 380.878 C 1059.273 377.511, 1052.925 373.865, 1051 372.776 C 1049.075 371.687, 1044.939 369.251, 1041.810 367.362 C 1038.680 365.473, 1033.730 363.240, 1030.810 362.399 C 1027.889 361.558, 1023.250 359.796, 1020.500 358.483 C 1017.750 357.170, 1011 354.636, 1005.500 352.852 L 995.500 349.608 966.500 348.914 C 950.550 348.532, 930.075 347.968, 921 347.661 C 911.925 347.354, 903.150 347.476, 901.500 347.933" stroke="#f9c6c6" fill="#f9c6c6" fill-opacity="0.2" fill-rule="evenodd"/><path class="svg-region-LBl" d="M 774 429.410 C 772.075 430.137, 767.800 431.960, 764.500 433.463 C 761.200 434.965, 757.150 436.799, 755.500 437.539 C 750.764 439.663, 739 452.507, 739 455.554 C 739 456.163, 740.090 457.245, 741.422 457.958 C 742.754 458.671, 745.267 461.236, 747.007 463.659 C 748.746 466.081, 752.719 469.957, 755.835 472.271 C 758.951 474.585, 762.175 477.184, 763 478.048 C 763.825 478.911, 767.471 481.555, 771.102 483.924 C 774.734 486.292, 778.511 489.641, 779.497 491.365 C 780.483 493.089, 782.584 496.300, 784.166 498.500 C 789.951 506.546, 793.740 512.605, 794.498 515.023 C 795.605 518.553, 798.784 522.270, 804.192 526.354 L 808.884 529.898 809.192 517.699 C 809.490 505.891, 809.022 501.961, 806.761 497.272 C 806.036 495.770, 805.908 489.146, 806.366 476.927 C 806.991 460.281, 806.871 458.146, 804.890 450.654 C 802.992 443.477, 802.181 441.983, 798.119 438.182 C 792.198 432.641, 784.056 427.988, 780.378 428.044 C 778.795 428.068, 775.925 428.683, 774 429.410" stroke="#d7b230" fill="#d7b230" fill-opacity="0.2" fill-rule="evenodd"/><path class="svg-region-LBr" d="M 1000 424.860 C 997.897 425.465, 997.450 426.275, 997.184 429.960 C 996.762 435.815, 997.497 438.312, 1000.473 441.136 C 1001.844 442.436, 1002.973 444.030, 1002.983 444.678 C 1002.992 445.325, 1005.737 447.518, 1009.083 449.550 C 1014.877 453.070, 1023 460.292, 1023 461.924 C 1023 462.345, 1023.900 463.505, 1025 464.500 C 1026.100 465.495, 1027 467.176, 1027 468.236 C 1027 470.373, 1032.847 479.646, 1035.986 482.487 C 1037.094 483.490, 1038 484.747, 1038 485.281 C 1038 486.637, 1043.901 498.175, 1045.535 500.012 C 1046.274 500.843, 1047.019 503.993, 1047.189 507.012 C 1047.432 511.303, 1047.827 512.415, 1049 512.110 C 1054.337 510.722, 1065.285 509.097, 1069.595 509.053 C 1073.341 509.014, 1075.160 508.480, 1076.466 507.038 C 1077.443 505.958, 1079.762 504.573, 1081.621 503.960 L 1085 502.845 1085.192 495.672 C 1085.415 487.332, 1085.327 485.624, 1084.446 481.325 C 1083.268 475.577, 1085.718 471.094, 1094.901 462.196 L 1103.487 453.876 1100.994 451.964 C 1099.622 450.913, 1094.675 448.666, 1090 446.972 C 1081.776 443.990, 1074.608 440.967, 1061 434.738 C 1055.311 432.134, 1052.879 431.670, 1041.500 431.013 C 1032.083 430.470, 1026.295 429.573, 1020.500 427.760 C 1011.380 424.905, 1003.645 423.811, 1000 424.860" stroke="#d7b230" fill="#d7b230" fill-opacity="0.2" fill-rule="evenodd"/><path class="svg-region-PP" d="M 992.500 446.648 C 984.483 448.733, 967.986 455.888, 964.906 458.616 C 964.029 459.393, 960.654 460.714, 957.406 461.553 C 954.158 462.391, 948.027 464.410, 943.782 466.039 C 937.424 468.479, 934.576 469, 927.609 469 C 918.451 469, 910.528 467.660, 905 465.176 C 900.834 463.305, 894.199 462.249, 880 461.197 C 870.760 460.513, 868.780 460.020, 863.500 457.089 C 860.200 455.257, 856.612 453.138, 855.527 452.379 C 851.405 449.497, 843.836 451.276, 840.340 455.950 C 839.703 456.802, 836.272 460.449, 832.717 464.054 C 829.162 467.659, 825.501 472.065, 824.580 473.845 C 823.660 475.625, 820.735 480.407, 818.081 484.473 C 811.417 494.681, 809 503.957, 809 519.318 C 809 528.292, 809.304 531, 810.312 531 C 811.034 531, 813.487 531.900, 815.764 533 C 818.041 534.100, 821.072 535, 822.501 535 C 823.930 535, 826.314 535.639, 827.800 536.420 C 831.653 538.446, 838.447 545.812, 840.787 550.500 C 843.083 555.100, 845.814 565.656, 846.221 571.500 C 846.436 574.581, 847.033 575.730, 848.819 576.500 C 850.132 577.066, 851.374 578.668, 851.682 580.192 C 852.258 583.040, 855.984 585, 860.820 585 C 862.208 585, 864.053 585.643, 864.921 586.428 C 865.867 587.283, 870.911 588.338, 877.500 589.059 C 883.550 589.720, 890.075 590.907, 892 591.695 C 896.928 593.714, 913.413 597.253, 920.217 597.754 C 925.398 598.135, 926.166 597.924, 928.407 595.506 C 930.868 592.851, 930.889 592.847, 932.600 594.846 C 934.437 596.991, 935.607 596.776, 945.500 592.478 C 947.150 591.761, 951.009 590.451, 954.075 589.567 C 957.141 588.683, 963.216 586.582, 967.575 584.897 C 971.934 583.212, 977.781 581.458, 980.568 580.999 C 983.356 580.540, 989.126 578.552, 993.391 576.582 C 997.656 574.612, 1001.550 573, 1002.043 573 C 1002.536 573, 1003.900 571.701, 1005.074 570.114 C 1006.824 567.747, 1007.245 565.634, 1007.417 558.364 C 1007.638 548.996, 1008.575 546.184, 1015.040 535.500 C 1016.704 532.750, 1018.796 529.065, 1019.689 527.310 C 1021.487 523.778, 1031.790 518, 1036.289 518 C 1037.689 518, 1039.010 517.469, 1039.227 516.819 C 1039.444 516.169, 1041.169 515.119, 1043.060 514.484 C 1046.393 513.366, 1046.509 513.150, 1046.803 507.553 C 1047.011 503.603, 1046.654 501.257, 1045.675 500.138 C 1043.823 498.019, 1039 488.839, 1039 487.432 C 1039 486.837, 1036.499 483.048, 1033.443 479.014 C 1030.386 474.979, 1027.635 470.424, 1027.328 468.890 C 1027.021 467.357, 1025.922 465.334, 1024.885 464.396 C 1023.848 463.458, 1023 462.373, 1023 461.985 C 1023 460.431, 1015.941 453.937, 1010.394 450.389 C 1004.531 446.638, 997.883 445.249, 992.500 446.648" stroke="#c4743d" fill="#c4743d" fill-opacity="0.2" fill-rule="evenodd"/><path class="svg-region-LPl" d="M 768 482.902 C 768 483.506, 766.979 484, 765.732 484 C 763.317 484, 756 488.476, 756 489.953 C 756 490.437, 756.500 491, 757.111 491.204 C 758.851 491.784, 763.171 509.535, 764.043 519.689 C 764.477 524.743, 765.264 529.649, 765.792 530.592 C 766.463 531.792, 766.222 533.540, 764.990 536.404 C 764.022 538.657, 762.934 543.425, 762.572 547 C 762.211 550.575, 761.198 555.713, 760.322 558.419 C 758.831 563.017, 758.844 563.555, 760.522 566.670 C 761.509 568.503, 765.958 573.225, 770.408 577.163 C 774.859 581.102, 779.103 585.173, 779.840 586.210 C 780.729 587.461, 781.571 587.782, 782.340 587.163 C 782.978 586.650, 784.989 585.912, 786.809 585.523 C 788.629 585.134, 793.354 583.344, 797.309 581.547 C 803.397 578.781, 811.289 575.875, 816.871 574.345 C 817.862 574.074, 817.550 573.278, 815.749 571.476 C 812.549 568.277, 810.568 561.197, 811.349 555.750 C 813.421 541.283, 814.864 537.748, 819.390 536.058 C 820.951 535.475, 820.473 534.973, 816.651 533.176 C 814.105 531.979, 811.367 531, 810.568 531 C 809.768 531, 808.525 530.205, 807.807 529.233 C 807.088 528.261, 805.150 526.608, 803.500 525.560 C 799.743 523.173, 795.037 517.943, 795.016 516.131 C 794.996 514.412, 788.442 503.339, 785.468 500 C 784.243 498.625, 781.990 495.475, 780.462 493 C 778.933 490.525, 776.770 487.825, 775.656 487 C 770.667 483.307, 768 481.879, 768 482.902" stroke="#d2454f" fill="#d2454f" fill-opacity="0.2" fill-rule="evenodd"/><path class="svg-region-LPr" d="M 1080.500 504.386 C 1078.849 505.105, 1076.882 506.437, 1076.127 507.347 C 1075.213 508.448, 1073.210 509, 1070.128 509.001 C 1063.757 509.003, 1050.526 511.507, 1044.511 513.849 C 1038.593 516.153, 1038.018 517.530, 1038.756 527.651 C 1039.199 533.729, 1038.975 535.230, 1037.270 537.651 C 1036.166 539.218, 1034.982 541.404, 1034.640 542.509 C 1034.298 543.614, 1032.439 546.916, 1030.509 549.846 C 1028.579 552.777, 1027 555.337, 1027 555.535 C 1027 555.957, 1050.196 556.944, 1067.831 557.271 C 1079.016 557.479, 1080.321 557.696, 1081.878 559.611 C 1083.592 561.718, 1083.608 561.711, 1091.548 555.364 C 1095.921 551.867, 1099.778 549.005, 1100.117 549.003 C 1101.151 548.998, 1100.272 535.425, 1098.973 531.336 C 1096.689 524.150, 1095.348 522.477, 1092.091 522.746 C 1088.521 523.041, 1087.792 522.041, 1086.807 515.500 C 1085.294 505.457, 1084.768 503.001, 1084.141 503.039 C 1083.788 503.061, 1082.150 503.667, 1080.500 504.386" stroke="#d2454f" fill="#d2454f" fill-opacity="0.2" fill-rule="evenodd"/><path class="svg-region-DMl" d="M 666.500 449.949 C 665.400 450.450, 663.242 450.891, 661.705 450.930 C 660.106 450.970, 657.807 452.102, 656.335 453.574 C 654.008 455.901, 653.825 456.642, 654.421 461.324 C 655.853 472.564, 667.670 492.046, 675.849 496.650 C 684.633 501.596, 694.507 508.304, 700.136 513.149 C 703.235 515.817, 706.273 518, 706.886 518 C 707.499 518, 708 518.460, 708 519.022 C 708 520.783, 719.397 531, 721.361 531 C 723.118 531, 723.133 530.852, 721.615 528.535 C 720.446 526.751, 720 523.705, 720 517.503 C 720 507.948, 721.790 502.129, 724.987 501.293 C 726.094 501.004, 727 500.446, 727 500.054 C 727 497.932, 743.979 493, 751.287 493 C 753.042 493, 754.525 492.128, 755.625 490.449 C 757.413 487.721, 762.015 484.817, 765.845 484 L 768.190 483.500 766.087 480.832 C 764.930 479.365, 761.063 476.079, 757.492 473.532 C 753.921 470.984, 751 468.571, 751 468.170 C 751 466.782, 739.823 456, 738.383 456 C 737.588 456, 736.694 455.366, 736.397 454.592 C 735.130 451.291, 730.399 450.686, 711.495 451.407 C 700.266 451.835, 691.633 451.725, 689.307 451.125 C 683.666 449.668, 668.800 448.902, 666.500 449.949 M 765.015 532.750 C 765.026 534.751, 765.273 535.116, 765.923 534.091 C 766.413 533.316, 766.583 532.078, 766.300 531.341 C 765.489 529.226, 764.999 529.764, 765.015 532.750 M 757.500 542.522 C 751.234 545.538, 744.613 545.724, 740.500 543 C 737.379 540.933, 733 540.312, 733 541.937 C 733 543.787, 755.822 563, 758.020 563 C 759.353 563, 761.891 554.015, 762.609 546.750 C 762.976 543.038, 763.102 540.026, 762.888 540.058 C 762.675 540.089, 760.250 541.198, 757.500 542.522" stroke="#68533d" fill="#68533d" fill-opacity="0.2" fill-rule="evenodd"/><path class="svg-region-DMr" d="M 1166.500 419.936 C 1163.366 421.191, 1154.167 423.806, 1146.500 425.620 C 1140.161 427.121, 1127.589 431.555, 1122.500 434.085 C 1114.208 438.207, 1110.188 441.833, 1105.892 449.065 C 1103.625 452.882, 1100.198 457.241, 1098.278 458.752 C 1087.916 466.906, 1083.103 474.716, 1084.438 481.208 C 1084.810 483.018, 1085.051 489.745, 1084.972 496.155 C 1084.871 504.275, 1085.233 508.521, 1086.164 510.155 C 1087.362 512.258, 1087.558 511.415, 1088.063 502 C 1088.630 491.440, 1088.859 490.664, 1094.889 478.903 C 1096.481 475.798, 1099.814 474, 1103.979 474 C 1106.047 474, 1107.472 474.855, 1109.012 477.017 C 1110.194 478.677, 1113.814 481.836, 1117.057 484.038 C 1120.299 486.240, 1123.480 489.045, 1124.126 490.271 C 1124.771 491.497, 1125.771 492.807, 1126.348 493.182 C 1126.925 493.556, 1127.582 496.777, 1127.809 500.339 L 1128.221 506.814 1122.804 512.407 C 1119.717 515.594, 1116.511 518, 1115.350 518 C 1114.230 518, 1110.697 518.900, 1107.500 520 C 1104.303 521.100, 1100.171 522, 1098.318 522 L 1094.949 522 1096.474 524.950 C 1097.313 526.573, 1098 528.491, 1098 529.213 C 1098 529.935, 1099.013 530.970, 1100.250 531.513 C 1102.636 532.560, 1103.659 536.035, 1102.401 538.823 C 1101.985 539.745, 1101.537 542.254, 1101.406 544.398 L 1101.167 548.296 1107.374 541.898 C 1113.506 535.578, 1122.982 523.672, 1123.020 522.239 C 1123.030 521.832, 1125.168 519.205, 1127.770 516.399 C 1130.371 513.594, 1134.300 508.927, 1136.500 506.029 C 1146.057 493.441, 1153.462 485.292, 1172.586 466.320 C 1186.419 452.596, 1193.125 445.237, 1193.546 443.320 C 1193.887 441.769, 1194.538 439.311, 1194.993 437.858 C 1195.632 435.817, 1195.138 433.827, 1192.817 429.108 C 1188.438 420.200, 1186.478 418.985, 1176.615 419.068 C 1172.152 419.105, 1167.600 419.496, 1166.500 419.936" stroke="#68533d" fill="#68533d" fill-opacity="0.2" fill-rule="evenodd"/><path class="svg-region-VMl" d="M 813.851 575.064 C 811.844 575.538, 805.994 577.796, 800.851 580.080 C 795.708 582.365, 789.362 584.720, 786.750 585.315 C 784.138 585.909, 782 586.774, 782 587.237 C 782 589.237, 786.627 596.925, 790.885 602 C 796.529 608.727, 800 613.615, 800 614.836 C 800 615.341, 804.307 622.212, 809.570 630.106 C 816.649 640.720, 819.403 645.765, 820.146 649.479 C 821.900 658.241, 823.054 662, 823.988 662 C 824.486 662, 826.078 659.638, 827.525 656.750 C 830.301 651.207, 833.254 647.925, 839 643.992 C 840.925 642.674, 842.725 641.335, 843 641.015 C 843.818 640.064, 853.727 633, 854.243 633 C 854.505 633, 858.269 631.338, 862.609 629.306 C 866.949 627.274, 873.172 624.686, 876.438 623.556 C 882.663 621.401, 884.953 619, 880.783 619 C 877.739 619, 876 617.250, 876 614.185 C 876 612.718, 874.663 610.539, 872.594 608.635 C 870.721 606.911, 869.034 604.421, 868.844 603.102 C 868.655 601.783, 867.602 600.208, 866.504 599.602 C 865.407 598.996, 863.162 597.600, 861.517 596.500 C 857.168 593.592, 851.104 591, 848.651 591 C 847.480 591, 844.605 590.212, 842.264 589.250 C 838.414 587.667, 838.004 587.166, 837.972 584 C 837.925 579.282, 835.064 577.361, 825.303 575.493 C 821.011 574.672, 817.500 574.045, 817.500 574.101 C 817.500 574.156, 815.858 574.589, 813.851 575.064" stroke="#e59376" fill="#e59376" fill-opacity="0.2" fill-rule="evenodd"/><path class="svg-region-VMr" d="M 1019.763 563.155 C 1016.057 567.047, 1013.246 570.589, 1013.516 571.026 C 1013.989 571.791, 995.878 588, 994.552 588 C 993.051 588, 982.195 595.548, 978.553 599.124 C 976.382 601.256, 974.212 603, 973.731 603 C 972.533 603, 970 605.628, 970 606.872 C 970 607.430, 969.090 608.524, 967.978 609.303 C 965.046 611.356, 967.185 612.621, 974.679 613.266 C 978.532 613.597, 982.672 614.760, 985.679 616.354 C 988.330 617.760, 992.975 619.656, 996 620.566 C 1010.181 624.833, 1020.892 629.872, 1026.122 634.736 L 1029.095 637.500 1028.431 648.059 C 1027.787 658.301, 1027.842 658.704, 1030.233 661.484 L 1032.699 664.351 1035.957 662.031 C 1038.933 659.912, 1039.152 659.399, 1038.489 656.105 C 1038.090 654.122, 1037.814 651.063, 1037.877 649.306 C 1037.939 647.549, 1037.588 645.863, 1037.096 645.559 C 1036.604 645.255, 1037.201 641.293, 1038.423 636.753 C 1040.057 630.679, 1042.556 625.334, 1047.889 616.506 C 1051.875 609.909, 1056.153 603.159, 1057.397 601.506 C 1058.642 599.853, 1061.236 595.350, 1063.164 591.500 C 1067.290 583.257, 1071.022 577.184, 1078.103 567.191 C 1082.129 561.508, 1083.013 559.616, 1082.078 558.691 C 1081.247 557.868, 1077.048 557.581, 1068.504 557.762 C 1060.946 557.923, 1055.890 557.631, 1055.508 557.012 C 1055.131 556.403, 1049.231 556.016, 1040.691 556.039 L 1026.500 556.079 1019.763 563.155" stroke="#e59376" fill="#e59376" fill-opacity="0.2" fill-rule="evenodd"/><path class="svg-region-Ol" d="M 446 357.910 C 432.693 360.007, 417.120 365.086, 410.671 369.434 C 408.927 370.610, 405.925 372.197, 404 372.961 C 402.075 373.724, 398.137 375.845, 395.250 377.674 C 381.144 386.610, 378.258 388.554, 375.215 391.173 C 373.409 392.728, 371.271 394, 370.465 394 C 369.659 394, 369 394.352, 369 394.781 C 369 395.211, 365.512 398.223, 361.250 401.474 C 356.988 404.725, 351.930 409.211, 350.011 411.443 C 348.093 413.674, 344.215 417.750, 341.395 420.500 C 335.573 426.176, 324.273 443.167, 320.446 452 C 319.612 453.925, 317.641 458.200, 316.066 461.500 C 310.638 472.874, 304.625 487.983, 301.341 498.500 C 300.482 501.250, 298.994 505.075, 298.034 507 C 297.074 508.925, 296.002 512.005, 295.651 513.844 C 295.300 515.683, 293.590 520.168, 291.852 523.810 C 290.114 527.451, 288.356 531.796, 287.945 533.465 C 287.533 535.134, 285.792 540.468, 284.074 545.318 C 280.235 556.160, 278.820 569.109, 279.357 588.500 C 279.846 606.136, 280.549 612.462, 283.134 622.490 C 284.270 626.895, 285.188 631.175, 285.175 632 C 285.150 633.535, 290.490 651.894, 292.010 655.500 C 296.091 665.182, 304.404 681.383, 307.156 685.017 C 309.023 687.483, 312.478 692.425, 314.834 696 C 320.744 704.969, 336.973 722.838, 346 730.316 C 368.095 748.619, 383.092 755.748, 405.287 758.495 C 419.577 760.264, 427.382 760.355, 451 759.028 C 460.625 758.487, 481.775 757.371, 498 756.548 C 575.469 752.617, 599.497 750.863, 606 748.665 C 608.684 747.757, 617.965 746.699, 629 746.042 C 645.437 745.064, 648.503 744.595, 656.500 741.836 C 661.450 740.129, 667.075 737.956, 669 737.008 C 670.925 736.060, 673.726 734.989, 675.224 734.629 C 676.722 734.269, 679.598 732.856, 681.614 731.487 C 683.630 730.119, 685.845 729, 686.537 729 C 687.229 729, 691.516 725.288, 696.064 720.750 C 707.609 709.231, 708.628 707.985, 709.964 703.764 C 710.614 701.709, 711.524 699.794, 711.986 699.509 C 712.448 699.223, 713.143 697.079, 713.531 694.745 C 713.919 692.410, 714.840 689.320, 715.578 687.877 C 716.316 686.434, 716.657 684.990, 716.335 684.668 C 716.013 684.346, 716.426 682.377, 717.252 680.291 C 720.442 672.243, 721.328 663.057, 720.133 650.419 C 718.250 630.489, 717.177 624.319, 714.014 615.225 C 712.345 610.426, 710.360 604.475, 709.603 602 C 708.845 599.525, 707.725 596.038, 707.113 594.250 C 706.501 592.463, 705.506 589.538, 704.902 587.750 C 700.769 575.516, 697.775 567.726, 696.098 564.842 C 695.029 563.004, 693.413 558.913, 692.507 555.750 C 691.600 552.587, 690.519 550, 690.105 550 C 689.692 550, 687.890 545.506, 686.103 540.013 C 684.315 534.521, 682.475 529.794, 682.014 529.509 C 681.554 529.224, 679.054 525.056, 676.460 520.246 C 668.863 506.158, 655.093 490.345, 640.543 479 C 637.369 476.525, 632.911 473.054, 630.636 471.287 C 628.361 469.520, 621.100 464.406, 614.500 459.922 C 607.900 455.438, 601.074 450.418, 599.332 448.767 C 597.589 447.116, 595.255 445.256, 594.146 444.633 C 586.712 440.458, 578.653 433.615, 562.501 417.760 C 552.370 407.815, 544.314 399.301, 544.599 398.839 C 544.885 398.378, 544.641 398, 544.059 398 C 543.477 398, 543 397.325, 543 396.500 C 543 395.675, 542.364 395, 541.586 395 C 540.809 395, 537.717 392.525, 534.717 389.500 C 531.716 386.475, 528.807 384, 528.253 384 C 527.698 384, 526.685 383.325, 526 382.500 C 525.315 381.675, 523.748 381, 522.517 381 C 521.286 381, 518.612 379.869, 516.575 378.487 C 514.538 377.104, 511.438 375.312, 509.686 374.504 C 507.934 373.696, 503.593 371.452, 500.039 369.518 C 496.486 367.583, 492.817 366, 491.885 366 C 490.954 366, 486.436 364.204, 481.846 362.010 C 473.489 358.014, 465.452 355.888, 459.614 356.128 C 457.901 356.199, 451.775 357.001, 446 357.910" stroke="#aa444d" fill="#aa444d" fill-opacity="0.2" fill-rule="evenodd"/><path class="svg-region-Or" d="M 1388.500 318.641 C 1365.815 323.280, 1348.859 328.266, 1339.757 332.973 C 1331.739 337.119, 1317.783 345.074, 1317 345.944 C 1316.725 346.250, 1313.575 348.492, 1310 350.926 C 1306.425 353.361, 1301.140 357.351, 1298.255 359.793 C 1290.293 366.535, 1256.128 400.256, 1254.049 403.425 C 1252.111 406.380, 1223.561 436.496, 1218.524 440.899 C 1204.163 453.452, 1197.371 462.259, 1192.823 474.225 C 1189.737 482.343, 1188.888 494.762, 1190.216 512.330 C 1191.291 526.537, 1191.227 529.253, 1189.599 538.830 C 1188.602 544.698, 1187.666 550.400, 1187.520 551.500 C 1187.374 552.600, 1186.705 556.425, 1186.032 560 C 1184.842 566.328, 1184.345 599.131, 1185.413 600.859 C 1185.707 601.334, 1186.394 605.659, 1186.941 610.470 C 1187.488 615.281, 1188.351 619.730, 1188.860 620.358 C 1189.369 620.986, 1190.522 624.401, 1191.422 627.947 C 1193.192 634.916, 1200.418 650.347, 1204.558 656 C 1205.968 657.925, 1209.490 661.992, 1212.384 665.038 C 1232.311 686.009, 1256.737 693.391, 1295 690.006 C 1316.350 688.117, 1342.527 687.607, 1350.483 688.925 C 1354.342 689.565, 1361.775 691.168, 1367 692.489 C 1382.394 696.379, 1390.747 697.951, 1404 699.451 C 1415.933 700.802, 1420.942 700.795, 1431 699.414 C 1433.475 699.075, 1436.637 698.652, 1438.026 698.474 C 1447.738 697.234, 1467.044 692.296, 1474.500 689.144 C 1481.591 686.147, 1494.024 679.676, 1495.037 678.456 C 1495.701 677.655, 1496.807 677, 1497.494 677 C 1499.376 677, 1512.760 667.922, 1519 662.413 C 1526.813 655.515, 1535.917 646.219, 1539.985 640.984 C 1541.901 638.518, 1544.006 636.050, 1544.661 635.500 C 1546.560 633.908, 1556.157 618.082, 1560.160 609.942 C 1568.097 593.804, 1572.588 579.029, 1575.038 561 C 1576.360 551.270, 1576.349 520.895, 1575.020 512.799 C 1573.048 500.781, 1566.872 481.513, 1560.602 467.814 C 1559.171 464.687, 1558 461.853, 1558 461.516 C 1558 461.179, 1556.355 458.338, 1554.345 455.202 C 1552.335 452.066, 1549.707 447.700, 1548.504 445.500 C 1541.154 432.059, 1539.571 429.328, 1538.234 427.783 C 1536.848 426.179, 1534.822 422.556, 1526.893 407.500 C 1520.137 394.670, 1502.497 368.539, 1496.500 362.478 C 1495.400 361.366, 1491.611 357.170, 1488.080 353.153 C 1484.481 349.058, 1477.289 342.698, 1471.710 338.675 C 1459.274 329.708, 1461.093 330.735, 1450.500 326.704 C 1427.879 318.096, 1427.305 317.981, 1407.532 318.116 C 1398.164 318.180, 1389.600 318.416, 1388.500 318.641" stroke="#aa444d" fill="#aa444d" fill-opacity="0.2" fill-rule="evenodd"/><path class="svg-region-VOC" d="M 909.293 380.562 C 905.880 381.310, 900.787 383.088, 897.975 384.513 C 894.670 386.188, 890.009 387.429, 884.789 388.024 C 874.090 389.244, 865.585 393.197, 860.950 399.104 C 857.886 403.008, 855.621 405.323, 851.196 409.074 C 850.480 409.682, 850.065 410.701, 850.275 411.339 C 851.075 413.771, 855.256 412.994, 862.491 409.069 C 866.617 406.831, 870.900 405, 872.010 405 C 873.831 405, 875.300 404.426, 880 401.875 C 880.825 401.427, 883.638 400.038, 886.250 398.786 C 888.862 397.535, 891 396.172, 891 395.756 C 891 395.340, 891.959 395, 893.132 395 C 894.305 395, 896.720 394.100, 898.499 393.001 C 903.610 389.842, 923.738 386.682, 933.769 387.463 C 945.109 388.347, 955.303 390.398, 958.106 392.362 C 959.392 393.263, 960.988 394, 961.652 394 C 962.316 394, 965.646 395.913, 969.053 398.250 C 979.295 405.277, 978.946 405.148, 986.252 404.612 C 994.352 404.017, 995 403.682, 995 400.096 C 995 396.240, 992.441 394.378, 986.025 393.565 C 983.014 393.184, 980.089 392.509, 979.525 392.067 C 978.961 391.624, 976.160 390.713, 973.300 390.043 C 970.439 389.373, 967.572 388.189, 966.927 387.412 C 966.282 386.635, 965.023 385.996, 964.128 385.991 C 963.232 385.987, 960.843 384.412, 958.817 382.491 L 955.134 379 935.317 379.100 C 922.679 379.164, 913.252 379.694, 909.293 380.562" stroke="#ff8f93" fill="#ff8f93" fill-opacity="0.2" fill-rule="evenodd"/><path class="svg-region-LBPCr" d="M 1181.640 361.750 C 1181.313 362.712, 1179.033 366.200, 1176.574 369.500 C 1172.533 374.921, 1172.097 376.049, 1172.051 381.191 C 1172.023 384.321, 1172.412 387.137, 1172.915 387.448 C 1173.419 387.759, 1175.185 386.874, 1176.840 385.481 C 1178.651 383.957, 1180.103 383.357, 1180.484 383.974 C 1181.369 385.406, 1183.275 385.253, 1185.559 383.567 C 1187.075 382.448, 1187.236 381.867, 1186.297 380.914 C 1184.730 379.324, 1186.197 376.429, 1190.391 372.836 L 1193.500 370.172 1189.894 366.836 C 1187.911 365.001, 1186.013 362.712, 1185.676 361.750 C 1185.339 360.788, 1184.426 360, 1183.648 360 C 1182.870 360, 1181.966 360.788, 1181.640 361.750" stroke="#daffff" fill="#daffff" fill-opacity="0.2" fill-rule="evenodd"/><path class="svg-region-BPCl" d="M 818.988 536.083 C 817.606 536.592, 815.904 537.924, 815.205 539.044 C 813.238 542.193, 811.571 550.826, 811.544 558 C 811.500 569.603, 815.310 573.919, 827.418 575.985 C 830.673 576.540, 834.180 577.758, 835.211 578.691 C 837.769 581.006, 843.722 582.967, 848.250 582.985 C 851.600 582.998, 852 582.730, 852 580.469 C 852 578.975, 851.283 577.668, 850.250 577.281 C 847.365 576.198, 846.065 573.738, 846.032 569.297 C 846.014 566.985, 845.608 564.060, 845.129 562.797 C 844.651 561.534, 843.429 557.843, 842.414 554.595 C 841.115 550.435, 839.113 547.097, 835.639 543.296 C 828.517 535.502, 824.863 533.920, 818.988 536.083" stroke="#83385f" fill="#83385f" fill-opacity="0.2" fill-rule="evenodd"/><path class="svg-region-BPCr" d="M 1030.500 519.401 C 1024.955 521.628, 1021.168 524.426, 1019.574 527.473 C 1018.703 529.138, 1016.652 532.750, 1015.016 535.500 C 1008.390 546.639, 1007.796 548.223, 1007.249 556.199 C 1006.753 563.439, 1006.894 564.258, 1009.029 566.531 C 1010.305 567.889, 1011.976 569, 1012.743 569 C 1015.951 569, 1031.094 551.143, 1033.955 543.987 C 1034.722 542.069, 1036.211 539.249, 1037.263 537.721 C 1038.876 535.379, 1039.109 533.649, 1038.739 526.721 C 1038.322 518.884, 1038.189 518.493, 1035.901 518.348 C 1034.580 518.264, 1032.150 518.738, 1030.500 519.401" stroke="#83385f" fill="#83385f" fill-opacity="0.2" fill-rule="evenodd"/><path class="svg-region-AMC" d="M 1004.703 570.531 C 1003.715 571.889, 1002.511 573, 1002.026 573 C 1001.542 573, 997.652 574.614, 993.382 576.586 C 989.112 578.559, 982.935 580.605, 979.656 581.133 C 976.378 581.661, 972.899 582.519, 971.926 583.040 C 970.235 583.944, 959.416 587.793, 952 590.128 C 950.075 590.734, 947.150 591.804, 945.500 592.506 C 935.321 596.834, 934.439 596.994, 932.600 594.846 C 930.889 592.847, 930.868 592.851, 928.407 595.506 C 926.166 597.924, 925.398 598.135, 920.217 597.754 C 913.168 597.236, 900.340 594.528, 893 592.009 C 889.975 590.971, 883.029 589.630, 877.565 589.030 C 872.101 588.429, 867.014 587.427, 866.262 586.802 C 864.821 585.607, 859.777 584.519, 849 583.081 C 845.425 582.604, 841.487 581.888, 840.250 581.490 C 838.209 580.834, 838 581.090, 838 584.248 C 838 587.426, 838.373 587.871, 842.283 589.364 C 844.639 590.264, 847.501 591, 848.643 591 C 850.455 591, 854.717 592.966, 865.249 598.660 C 866.761 599.477, 868.298 601.350, 868.663 602.823 C 869.029 604.295, 870.829 607.008, 872.664 608.850 C 874.499 610.693, 876 613.225, 876 614.478 C 876 617.616, 877.573 618.645, 884.254 619.874 C 890.812 621.081, 891.627 621.461, 902.334 628.298 C 909.094 632.615, 910.518 634.039, 912.719 638.687 C 915.604 644.781, 917.646 646.270, 922.544 645.848 C 924.419 645.686, 926.504 646.104, 927.177 646.777 C 927.850 647.450, 928.913 648, 929.539 648 C 930.166 648, 931.192 649.125, 931.818 650.500 C 932.445 651.875, 933.359 653, 933.850 653 C 934.341 653, 936.685 651.276, 939.059 649.170 C 943.367 645.347, 943.376 645.325, 943.559 637.920 C 943.660 633.839, 944.087 628.751, 944.508 626.613 C 945.559 621.277, 951.157 615.859, 957.285 614.247 C 963.366 612.648, 969.116 609.021, 970.924 605.642 C 971.702 604.189, 972.848 603, 973.472 603 C 974.095 603, 976.382 601.274, 978.553 599.165 C 980.724 597.055, 985.425 593.581, 989 591.443 C 994.701 588.035, 1004.716 580.334, 1011.815 573.899 C 1014.016 571.904, 1014.046 571.708, 1012.410 569.901 C 1010.060 567.304, 1006.862 567.566, 1004.703 570.531" stroke="#9d4741" fill="#9d4741" fill-opacity="0.2" fill-rule="evenodd"/><path class="svg-region-ODMl" d="M 754.588 491.857 C 754.297 492.328, 751.683 493.006, 748.779 493.362 C 735.905 494.943, 729.681 496.854, 727 500.050 C 726.725 500.378, 725.692 500.944, 724.705 501.309 C 721.708 502.416, 720 508.252, 720 517.387 C 720 523.281, 720.505 526.846, 721.669 529.169 C 722.586 531.001, 723.637 533.158, 724.003 533.961 C 724.369 534.765, 726.206 536.275, 728.085 537.317 C 729.963 538.359, 731.650 539.614, 731.833 540.106 C 732.017 540.597, 733.331 541, 734.755 541 C 736.178 541, 738.182 541.760, 739.209 542.689 C 740.346 543.718, 743.333 544.541, 746.859 544.796 C 751.635 545.142, 753.539 544.760, 757.786 542.609 C 760.614 541.175, 763.386 539.147, 763.945 538.102 C 766.179 533.928, 762.757 504.610, 758.767 493.750 C 757.786 491.079, 755.663 490.118, 754.588 491.857" stroke="#999999" fill="#999999" fill-opacity="0.2" fill-rule="evenodd"/><path class="svg-region-ODMr" d="M 1097.223 475.557 C 1096 476.413, 1095 477.675, 1095 478.362 C 1095 479.049, 1093.935 481.055, 1092.634 482.818 C 1089.730 486.755, 1088.256 494.150, 1087.549 508.325 C 1086.847 522.418, 1087.146 522.963, 1095.235 522.300 C 1098.681 522.017, 1105.325 520.714, 1110 519.403 C 1117.576 517.279, 1119.028 516.471, 1123.364 511.965 L 1128.227 506.910 1127.825 500.595 C 1127.558 496.394, 1126.850 493.707, 1125.712 492.569 C 1124.770 491.627, 1123.996 490.327, 1123.991 489.679 C 1123.986 489.030, 1121.317 486.783, 1118.060 484.684 C 1114.802 482.586, 1110.958 479.323, 1109.518 477.434 C 1107.360 474.605, 1106.242 474, 1103.172 474 C 1101.122 474, 1098.445 474.701, 1097.223 475.557" stroke="#999999" fill="#999999" fill-opacity="0.2" fill-rule="evenodd"/>
    </svg>