<svg xmlns="http://www.w3.org/2000/svg" width="1921" height="1027" viewBox="0 0 1921 1027" version="1.1">
    <path class="svg-region-V" d="M 772 183.604 C 771.175 183.808, 765.100 184.583, 758.500 185.326 C 748.078 186.499, 745.003 187.309, 735.111 191.490 C 728.848 194.138, 722.323 197.493, 720.611 198.946 C 718.900 200.399, 716.297 202.344, 714.826 203.267 C 713.355 204.191, 711.862 205.859, 711.508 206.973 C 711.155 208.088, 710.272 209, 709.547 209 C 706.560 209, 696.373 216.991, 694.018 221.181 C 692.686 223.552, 689.468 228.132, 686.868 231.358 C 684.268 234.585, 681.538 238.412, 680.801 239.863 C 678.810 243.784, 673.120 251.611, 667.744 257.826 C 661.200 265.392, 657.886 272.549, 657.248 280.494 C 656.715 287.140, 658.566 299, 660.137 299 C 660.611 299, 661 299.587, 661 300.305 C 661 301.022, 662.547 303.298, 664.438 305.363 C 666.329 307.427, 668.016 310.103, 668.188 311.308 C 668.433 313.029, 669.359 313.621, 672.500 314.061 C 674.700 314.370, 678.034 315.431, 679.908 316.419 C 682.272 317.665, 686.867 318.443, 694.908 318.960 C 705.121 319.617, 706.963 320.021, 710.397 322.357 C 715.770 326.015, 723.146 328.014, 730.932 327.924 C 740.068 327.818, 744.238 326.151, 745.387 322.147 C 746.034 319.892, 747.058 318.796, 748.900 318.389 C 750.330 318.074, 756 316.231, 761.500 314.293 C 767 312.355, 774.512 309.724, 778.194 308.446 C 786.272 305.641, 797.610 303.801, 808.735 303.487 C 813.264 303.360, 818.299 302.705, 819.923 302.032 C 822.829 300.828, 827.863 300.917, 851.438 302.587 C 858.654 303.099, 861.112 303.708, 864.196 305.749 C 867.474 307.918, 868.741 308.191, 873.123 307.672 C 878.608 307.022, 883.095 308.560, 884.847 311.690 C 886.412 314.488, 903.927 317.178, 926 318.012 C 945.350 318.743, 952.654 319.630, 956.500 321.716 C 957.600 322.312, 962.550 323.583, 967.500 324.540 C 973.665 325.731, 977.288 326.989, 979 328.532 C 980.375 329.771, 983.975 332.062, 987 333.622 C 992.342 336.378, 993.119 336.484, 1014 337.287 C 1060.387 339.072, 1077.305 338.151, 1088 333.261 C 1091.575 331.626, 1096.525 329.447, 1099 328.417 C 1101.475 327.388, 1105.975 324.254, 1109 321.453 C 1112.332 318.367, 1116.137 315.890, 1118.654 315.168 C 1123.629 313.742, 1131.939 308.289, 1133.389 305.500 C 1135.246 301.928, 1140.387 294.526, 1141.724 293.500 C 1142.441 292.950, 1143.468 289.800, 1144.008 286.500 C 1145.595 276.789, 1145.218 268.543, 1142.897 262.225 C 1141.741 259.076, 1140.561 255.477, 1140.276 254.227 C 1139.991 252.978, 1138.779 251.178, 1137.583 250.227 C 1133.401 246.907, 1122.749 233.463, 1120.866 229.127 C 1119.821 226.722, 1116.531 221.018, 1113.554 216.453 C 1108.677 208.970, 1107.372 207.702, 1100.322 203.594 C 1094.368 200.125, 1091.473 199.032, 1088.200 199.018 C 1085.836 199.008, 1082.686 198.388, 1081.200 197.639 C 1079.715 196.891, 1073.759 196.001, 1067.964 195.662 C 1062.169 195.323, 1056.094 194.622, 1054.464 194.105 C 1050.448 192.832, 998.004 191.985, 990.500 193.072 C 987.200 193.551, 979.775 194.410, 974 194.982 C 961.642 196.205, 946.299 200.905, 940.809 205.147 C 938.778 206.716, 936.681 208, 936.148 208 C 935.614 208, 934.042 209.350, 932.653 211 C 931.265 212.650, 929.632 214, 929.025 214 C 928.417 214, 926.156 214.900, 924 216 C 919.095 218.502, 915.692 218.497, 910.141 215.978 C 907.743 214.890, 904.420 214, 902.757 214 C 896.187 214, 891.971 211.776, 885.167 204.720 C 881.500 200.917, 875.575 196.101, 872 194.016 C 855.827 184.584, 860.698 185.599, 831 185.475 C 816.347 185.414, 801.371 184.851, 797.500 184.215 C 790.961 183.141, 775.375 182.767, 772 183.604" stroke="#dd8a8a" fill="#dd8a8a" fill-opacity="0.2" fill-rule="evenodd"/><path class="svg-region-SV" d="M 819.694 302.055 C 818.700 302.664, 813.750 303.298, 808.694 303.464 C 792.280 304.004, 785.180 305.588, 764.500 313.328 C 760.650 314.769, 755.025 316.638, 752 317.481 C 747.934 318.614, 746.197 319.668, 745.337 321.522 C 744.285 323.790, 744.478 324.263, 747.344 326.449 C 750.129 328.573, 751.849 328.926, 761.507 329.357 C 775.079 329.962, 790.371 331.493, 791.825 332.392 C 792.423 332.761, 802.494 333.758, 814.206 334.607 C 832.048 335.899, 837.932 335.951, 850.500 334.923 C 858.750 334.248, 867.777 333.915, 870.560 334.183 C 876.719 334.776, 884.013 338.190, 889.891 343.233 C 892.306 345.305, 894.638 347, 895.073 347 C 895.509 347, 896.142 347.872, 896.480 348.938 C 897.481 352.091, 903.300 353.465, 908.836 351.856 C 914.062 350.337, 936.277 350.132, 952.154 351.457 C 959.304 352.054, 962.676 351.927, 965.154 350.971 C 967.141 350.203, 973.731 349.598, 981.381 349.479 L 994.263 349.280 995.485 346.390 C 996.158 344.800, 998.029 342.091, 999.645 340.368 L 1002.581 337.237 997.428 336.705 C 991.876 336.132, 983.037 332.194, 979 328.494 C 977.256 326.897, 973.778 325.679, 967.500 324.469 C 962.550 323.515, 957.285 322.119, 955.800 321.367 C 954.314 320.615, 951.817 320, 950.250 320 C 948.682 320, 946.970 319.570, 946.443 319.043 C 945.917 318.517, 936.940 317.936, 926.493 317.752 C 904.663 317.368, 886.374 314.736, 885.453 311.846 C 884.560 309.044, 878.747 306.936, 873.787 307.616 C 870.264 308.099, 868.450 307.739, 864.929 305.861 C 860.285 303.385, 854.303 302.580, 832.500 301.495 C 825.275 301.135, 820.880 301.327, 819.694 302.055" stroke="#c666b5" fill="#c666b5" fill-opacity="0.2" fill-rule="evenodd"/><path class="svg-region-DB" d="M 1140.421 308.731 C 1137.394 312.356, 1137.275 312.399, 1133.413 311.242 C 1129.810 310.162, 1128.997 310.311, 1123.601 313.032 C 1120.366 314.665, 1116.954 316, 1116.020 316 C 1115.085 316, 1111.661 318.457, 1108.411 321.459 C 1105.160 324.462, 1100.925 327.588, 1099 328.406 C 1097.075 329.223, 1092.125 331.333, 1088 333.094 C 1082.096 335.614, 1078.266 336.484, 1070 337.182 C 1064.225 337.669, 1056.891 338.390, 1053.701 338.784 L 1047.902 339.500 1050.521 343 C 1051.961 344.925, 1053.760 347.962, 1054.518 349.750 C 1055.277 351.538, 1056.371 353, 1056.949 353 C 1057.527 353, 1058 353.642, 1058 354.428 C 1058 355.213, 1059.275 356.900, 1060.834 358.178 C 1062.393 359.455, 1064.722 362.300, 1066.011 364.500 C 1068.491 368.733, 1079.127 383.126, 1082.269 386.500 C 1083.294 387.600, 1084.820 389.945, 1085.661 391.710 C 1086.502 393.476, 1089.285 396.845, 1091.845 399.196 C 1098.729 405.519, 1104.519 412.983, 1105.976 417.413 C 1106.807 419.942, 1107.057 423.784, 1106.680 428.274 C 1106.101 435.184, 1106.109 435.212, 1108.108 433.403 C 1111.624 430.220, 1120 432.511, 1120 436.655 C 1120 438.863, 1124.434 438.184, 1128.089 435.417 C 1135.573 429.750, 1145.577 423.999, 1147.970 423.989 C 1149.361 423.982, 1154.961 422.632, 1160.413 420.989 C 1165.865 419.345, 1171.547 418, 1173.040 418 C 1174.533 418, 1176.333 417.304, 1177.039 416.453 C 1177.745 415.602, 1180.838 413.727, 1183.912 412.286 C 1186.985 410.845, 1189.725 409.395, 1190 409.063 C 1190.275 408.731, 1191.695 407.935, 1193.156 407.294 C 1194.846 406.552, 1196.050 405.051, 1196.463 403.168 C 1196.821 401.540, 1198.037 399.373, 1199.166 398.354 C 1200.296 397.334, 1202.097 394.475, 1203.170 392 C 1204.243 389.525, 1205.994 385.700, 1207.063 383.500 C 1210.061 377.326, 1209.634 375.643, 1204.046 371.628 C 1201.321 369.671, 1198.344 366.928, 1197.431 365.534 C 1196.517 364.140, 1195.464 363, 1195.090 363 C 1193.354 363, 1187.116 373.050, 1185.940 377.742 C 1185.002 381.483, 1184.035 383.169, 1182.563 383.630 C 1179.325 384.643, 1176.088 387.537, 1171.307 393.694 C 1166.007 400.519, 1164.902 401.598, 1154.049 410.538 C 1149.100 414.615, 1145.936 416.671, 1146.413 415.500 C 1148.252 410.983, 1148.295 409.949, 1146.621 410.592 C 1142.210 412.285, 1146.478 407.335, 1154.500 401.454 C 1160.744 396.877, 1162.589 394.228, 1167.002 383.500 C 1169.265 378, 1172.412 371.666, 1173.995 369.424 C 1175.579 367.182, 1177.178 364.137, 1177.550 362.658 C 1177.939 361.108, 1180.279 358.387, 1183.075 356.234 C 1191.104 350.053, 1190.906 347, 1182.478 347 C 1177.254 347, 1172.691 345.615, 1162.375 340.899 C 1154.196 337.160, 1151.959 333.939, 1155.500 331 C 1157.448 329.383, 1157.404 327.104, 1155.382 324.869 C 1154.492 323.886, 1153.532 321.028, 1153.249 318.518 C 1152.966 316.008, 1152.344 313.713, 1151.867 313.418 C 1151.390 313.123, 1151 312.009, 1151 310.941 C 1151 309.873, 1150.602 309, 1150.117 309 C 1149.631 309, 1148.998 308.100, 1148.710 307 C 1147.854 303.727, 1143.911 304.550, 1140.421 308.731 M 671.250 315.496 C 670.563 316.277, 670 317.923, 670 319.154 C 670 320.385, 668.799 323.125, 667.332 325.242 C 664.665 329.091, 664.664 329.096, 665.778 338.796 C 666.391 344.133, 667.188 350.158, 667.548 352.186 C 668.014 354.803, 667.740 356.534, 666.602 358.158 C 665.721 359.416, 665 361.159, 665 362.033 C 665 363.711, 659.381 370, 657.881 370 C 657.397 370, 657 371.119, 657 372.487 C 657 374.372, 656.173 375.319, 653.578 376.403 C 647.848 378.797, 646.773 381.488, 647.578 391.415 C 648.020 396.854, 647.914 400, 647.290 400 C 646.749 400, 644.894 397.307, 643.169 394.016 C 635.152 378.722, 625.905 376.917, 613.109 388.147 C 610.694 390.266, 607.826 392, 606.734 392 C 603.698 392, 605.200 397.344, 609.756 402.756 C 611.815 405.202, 614.760 408.955, 616.300 411.095 C 617.841 413.236, 620.203 415.264, 621.550 415.602 C 623.320 416.046, 624 416.900, 624 418.679 C 624 420.315, 626.267 423.651, 630.750 428.613 C 636.247 434.697, 639.171 436.949, 646.500 440.741 C 656.872 446.108, 661.258 446.820, 688.904 447.621 C 707.103 448.148, 709.044 447.901, 706.524 445.381 C 703.783 442.640, 705.037 440.535, 709.611 440.200 C 713.198 439.937, 714.076 440.323, 716.706 443.318 C 721.363 448.622, 722.833 449.126, 727.176 446.910 C 729.235 445.860, 731.951 444.986, 733.210 444.968 C 734.470 444.951, 736.374 444.276, 737.441 443.468 C 740.632 441.055, 741.292 441.791, 739.108 445.326 C 736.730 449.173, 737.682 451, 742.065 451 C 743.531 451, 745.841 451.873, 747.198 452.941 L 749.666 454.882 754.499 449.899 C 757.158 447.159, 760.496 444.230, 761.917 443.392 L 764.500 441.867 764.167 424.993 C 763.823 407.612, 764.908 398.235, 767.571 395.572 C 768.357 394.786, 769 393.709, 769 393.178 C 769 392.648, 769.650 391.965, 770.444 391.660 C 771.238 391.355, 773.923 388.016, 776.412 384.239 C 778.900 380.463, 781.962 376.842, 783.218 376.193 C 788.873 373.271, 804.598 368.751, 813.397 367.519 C 816.090 367.142, 819.015 366.466, 819.897 366.017 C 820.779 365.568, 825.550 364.690, 830.500 364.066 C 835.450 363.442, 842.875 361.885, 847 360.606 C 858.871 356.925, 863.523 356.006, 873.325 355.405 C 878.371 355.096, 883.400 354.482, 884.500 354.041 C 885.600 353.600, 888.525 352.428, 891 351.436 C 897.274 348.921, 897.601 348.430, 894.357 346.389 C 892.786 345.400, 889.871 343.163, 887.881 341.417 C 879.822 334.347, 870.705 332.885, 848.559 335.112 C 839.669 336.006, 833.117 335.907, 815.151 334.609 C 802.858 333.722, 792.300 332.685, 791.687 332.307 C 790.378 331.498, 777 330.106, 761.500 329.167 C 753.608 328.688, 749.786 328.014, 747.973 326.781 C 745.669 325.214, 745.013 325.192, 740.564 326.531 C 730.745 329.486, 718.351 327.771, 710.397 322.357 C 706.964 320.021, 705.121 319.617, 694.922 318.961 C 686.202 318.400, 682.325 317.696, 679.212 316.108 C 674.408 313.657, 672.966 313.546, 671.250 315.496 M 716 448.883 C 716 449.806, 719.418 450.986, 722 450.955 C 723.139 450.941, 723.032 450.583, 721.559 449.468 C 719.422 447.852, 716 447.492, 716 448.883 M 729.919 454.101 C 732.690 455.330, 734.690 455.710, 735.282 455.118 C 737.076 453.324, 734.864 452, 730.191 452.071 L 725.500 452.141 729.919 454.101" stroke="#e8b1e4" fill="#e8b1e4" fill-opacity="0.2" fill-rule="evenodd"/><path class="svg-region-MB" d="M 999.820 340.181 C 998.108 342.006, 996.166 344.780, 995.504 346.345 L 994.301 349.189 981.400 349.441 C 974.076 349.583, 967.090 350.235, 965.238 350.948 C 962.930 351.837, 959.420 351.992, 953.238 351.477 C 937.340 350.155, 912.876 350.375, 908.336 351.882 C 904.620 353.115, 903.623 353.065, 899.053 351.422 C 894.332 349.724, 893.683 349.703, 890.717 351.150 C 883.972 354.441, 882.236 354.859, 873 355.416 C 867.775 355.732, 860.350 356.836, 856.500 357.871 C 852.650 358.905, 845.974 360.699, 841.665 361.857 C 837.355 363.014, 830.830 364.256, 827.165 364.615 C 823.499 364.974, 820.050 365.608, 819.500 366.022 C 818.950 366.437, 816.025 367.082, 813 367.456 C 807.510 368.135, 803.662 369.136, 790.559 373.296 C 782.921 375.721, 778.338 379.456, 775.020 385.960 C 773.924 388.110, 772.165 390.471, 771.113 391.209 C 770.060 391.946, 768.145 394.336, 766.856 396.519 C 764.685 400.199, 764.488 401.779, 764.146 418.233 C 763.943 427.992, 764.071 437.147, 764.430 438.577 C 765.038 440.998, 765.234 441.078, 767.291 439.741 C 768.506 438.952, 770.625 437.674, 772 436.903 C 773.375 436.131, 776.007 434.237, 777.849 432.694 C 781.697 429.469, 790.460 425.380, 795.578 424.419 C 799.459 423.691, 803 425.894, 803 429.036 C 803 432.895, 808.314 444.681, 811.569 448.042 C 813.456 449.990, 815 451.948, 815 452.392 C 815 452.837, 817.496 457.647, 820.546 463.082 C 823.596 468.517, 826.708 474.659, 827.461 476.732 L 828.830 480.500 829.525 477.325 C 830.235 474.082, 834.224 469.184, 839.393 465.211 C 841.202 463.820, 842.926 461.024, 843.995 457.744 C 844.976 454.735, 846.300 452.500, 847.102 452.500 C 849.265 452.500, 849.778 451.190, 850.524 443.762 C 851.780 431.258, 861.376 416.690, 873.623 408.694 C 877.186 406.368, 879.460 404.284, 878.848 403.906 C 878.139 403.468, 878.559 402.163, 880.065 400.127 L 882.364 397.016 879.958 394.456 C 877.247 391.570, 877.679 390.987, 883.857 389.190 C 885.861 388.607, 891.325 386.956, 896 385.521 C 907.784 381.905, 916.559 381.021, 938 381.291 C 953.434 381.486, 957.204 381.830, 960.750 383.371 C 963.087 384.386, 965 385.520, 965 385.889 C 965 386.535, 961.738 388.158, 955.617 390.557 L 952.734 391.687 959.341 394.779 C 962.974 396.479, 967.197 399.036, 968.724 400.460 C 970.251 401.884, 973.300 404.276, 975.500 405.775 C 981.517 409.874, 994.888 423.795, 996.489 427.628 C 997.768 430.688, 1000.844 432.691, 999.748 429.750 C 999.492 429.063, 998.657 426.709, 997.891 424.519 C 997.126 422.330, 995.038 419.246, 993.250 417.666 C 991.462 416.086, 990 414.302, 990 413.701 C 990 413.101, 988.826 411.384, 987.391 409.886 C 983.431 405.753, 984.951 404.624, 993.386 405.432 C 997.299 405.807, 1006.800 406.466, 1014.500 406.898 C 1025.529 407.516, 1030.092 408.233, 1036 410.274 C 1040.125 411.700, 1045.525 413.359, 1048 413.961 C 1052.238 414.993, 1067.265 420.412, 1075 423.697 C 1081.102 426.289, 1088.431 430.329, 1090.466 432.222 C 1092.299 433.927, 1100.768 437, 1103.634 437 C 1106.559 437, 1108.050 423.342, 1105.828 416.899 C 1104.216 412.226, 1101.761 409.013, 1092.750 399.785 C 1088.487 395.420, 1085 391.288, 1085 390.604 C 1085 389.920, 1083.763 387.935, 1082.250 386.194 C 1076.186 379.212, 1073.296 375.422, 1068.847 368.617 C 1066.288 364.703, 1062.801 360.150, 1061.097 358.499 C 1059.394 356.849, 1058 355.142, 1058 354.707 C 1058 354.272, 1057.548 353.372, 1056.995 352.708 C 1056.443 352.044, 1054.181 348.725, 1051.969 345.334 L 1047.947 339.168 1041.223 338.551 C 1037.526 338.212, 1027.397 337.693, 1018.716 337.398 L 1002.932 336.861 999.820 340.181 M 947.500 390 C 947.840 390.550, 948.793 391, 949.618 391 C 950.443 391, 950.840 390.550, 950.500 390 C 950.160 389.450, 949.207 389, 948.382 389 C 947.557 389, 947.160 389.450, 947.500 390" stroke="#f9c6c6" fill="#f9c6c6" fill-opacity="0.2" fill-rule="evenodd"/><path class="svg-region-LBl" d="M 793 424.708 C 780.291 429.372, 750.168 450.926, 750.600 455.046 C 750.655 455.571, 750.768 456.573, 750.850 457.273 C 751.026 458.767, 755.670 461.328, 762 463.424 C 764.475 464.243, 767.305 465.945, 768.289 467.207 C 772.470 472.567, 780.130 485.115, 781.385 488.661 C 783.236 493.891, 786.979 501.317, 791.352 508.441 C 793.359 511.709, 795 514.982, 795 515.716 C 795 517.332, 799.072 519, 803.017 519 L 805.905 519 803.462 516.364 C 802.118 514.915, 800.609 512.243, 800.108 510.428 C 799.606 508.612, 798.252 506.114, 797.098 504.875 C 792.847 500.312, 794.733 497.414, 803.140 495.590 C 805.674 495.040, 814.128 498.780, 815.550 501.080 C 816.773 503.060, 818 501.838, 818 498.638 C 818 496.403, 819.012 494.002, 821.015 491.481 C 826.975 483.982, 828.259 481.194, 827.535 477.333 C 827.164 475.356, 825.834 472.110, 824.579 470.120 C 823.324 468.129, 820.394 462.900, 818.069 458.500 C 815.744 454.100, 812.541 449.064, 810.951 447.309 C 808.270 444.351, 804.506 435.873, 803.267 430 C 802.197 424.933, 798.118 422.830, 793 424.708" stroke="#d7b230" fill="#d7b230" fill-opacity="0.2" fill-rule="evenodd"/><path class="svg-region-LBr" d="M 985 406.194 C 985 406.996, 986.125 408.708, 987.500 410 C 988.875 411.292, 990 412.899, 990 413.571 C 990 414.243, 991.575 416.176, 993.500 417.866 C 995.425 419.556, 997 421.559, 997 422.316 C 997 423.073, 997.751 425.199, 998.670 427.040 C 999.863 429.432, 1000.006 430.498, 999.170 430.777 C 997.899 431.200, 997.504 440, 998.756 440 C 999.172 440, 1000.109 441.350, 1000.840 443 C 1001.570 444.650, 1002.789 446, 1003.549 446 C 1004.308 446, 1005.430 446.936, 1006.042 448.079 C 1006.654 449.222, 1008.439 450.606, 1010.008 451.153 C 1012.346 451.968, 1013.494 453.657, 1016.359 460.501 C 1018.282 465.096, 1020.165 470.918, 1020.543 473.440 C 1020.921 475.962, 1021.629 478.271, 1022.115 478.571 C 1022.602 478.872, 1023 480.055, 1023 481.199 C 1023 483.927, 1026.927 491.961, 1029.501 494.500 C 1033.218 498.166, 1035.966 504.008, 1038.109 512.796 C 1040.836 523.982, 1041.557 525.313, 1042.505 520.918 C 1043.549 516.081, 1047.612 509.476, 1050.795 507.444 C 1055.700 504.312, 1065 493.748, 1065 491.308 C 1065 488.023, 1061.844 488.320, 1057.653 492 C 1055.774 493.650, 1053.794 495, 1053.253 495 C 1052.712 495, 1050.984 496.012, 1049.413 497.250 C 1047.842 498.488, 1045.101 500.003, 1043.321 500.617 L 1040.086 501.735 1041.462 499.117 C 1042.218 497.678, 1044.786 494.229, 1047.169 491.453 C 1049.551 488.678, 1052.232 485.303, 1053.126 483.953 C 1054.696 481.585, 1055.112 481.507, 1065.126 481.713 L 1075.500 481.926 1078.191 476.213 C 1079.671 473.071, 1081.542 468.857, 1082.349 466.848 C 1083.156 464.839, 1085.208 462.167, 1086.908 460.910 C 1088.609 459.653, 1090 458.056, 1090 457.361 C 1090 454.463, 1097.643 441.565, 1100.244 440.073 C 1101.753 439.208, 1102.990 438.180, 1102.994 437.789 C 1102.997 437.398, 1100.721 436.401, 1097.936 435.574 C 1095.150 434.746, 1091.607 433.041, 1090.062 431.785 C 1086.664 429.022, 1081.562 426.041, 1077.500 424.445 C 1066.840 420.258, 1056.547 416.582, 1050.500 414.802 C 1046.650 413.668, 1040.125 411.603, 1036 410.212 C 1030.214 408.261, 1025.300 407.501, 1014.500 406.888 C 1006.800 406.452, 997.013 405.789, 992.750 405.416 C 986.318 404.852, 985 404.985, 985 406.194" stroke="#d7b230" fill="#d7b230" fill-opacity="0.2" fill-rule="evenodd"/><path class="svg-region-PP" d="M 988.500 447.209 C 985.750 448.346, 980.800 450.498, 977.500 451.989 C 974.200 453.481, 969.961 454.997, 968.081 455.359 C 966.200 455.722, 959.675 457.564, 953.581 459.454 C 925.852 468.054, 925.177 468.216, 919.730 467.578 C 916.853 467.241, 911.080 466.636, 906.901 466.233 C 902.721 465.830, 898.593 464.911, 897.727 464.191 C 896.622 463.272, 892.334 462.860, 883.327 462.808 C 869.362 462.728, 867.389 462.178, 862.500 457.003 C 858.295 452.553, 856.442 451.707, 854.097 453.171 C 852.563 454.130, 851.568 454.124, 849.422 453.146 C 846.237 451.695, 845.677 452.141, 843.962 457.495 C 843.122 460.121, 840.510 463.589, 836.342 467.617 C 832.844 470.996, 830 474.612, 830 475.681 C 830 477.836, 824.448 487.491, 820.533 492.143 C 818.764 494.245, 818 496.337, 818 499.077 C 818 501.235, 818.381 503, 818.847 503 C 820.746 503, 824.036 506.932, 824.633 509.914 C 825.147 512.487, 824.668 513.934, 822.135 517.462 C 820.411 519.863, 819 522.020, 819 522.256 C 819 522.492, 820.961 523.694, 823.359 524.927 C 825.756 526.160, 830.136 529.381, 833.093 532.085 C 836.049 534.788, 838.782 537, 839.166 537 C 839.551 537, 840.150 537.897, 840.498 538.994 C 840.846 540.091, 841.769 541.626, 842.549 542.406 C 843.329 543.187, 844.944 547.577, 846.138 552.162 C 847.331 556.748, 848.913 561.388, 849.654 562.473 C 851.585 565.302, 851.466 575, 849.500 575 C 844.637 575, 851.461 579.272, 858.367 580.550 C 860.494 580.944, 863.644 582.485, 865.367 583.975 C 869.969 587.954, 873.858 588.932, 882.479 588.280 C 889.370 587.759, 890.263 587.905, 892.077 589.853 C 893.246 591.107, 895.299 592, 897.013 592 C 899.205 592, 900.309 592.698, 901.372 594.752 C 902.155 596.266, 903.741 598.361, 904.898 599.407 C 906.673 601.014, 907 602.460, 907 608.712 C 907 618.929, 908.589 624.721, 911.862 626.436 C 914.148 627.633, 914.780 627.582, 916.985 626.018 C 918.368 625.036, 920.395 624.063, 921.489 623.855 C 922.582 623.647, 923.638 622.582, 923.836 621.489 C 924.033 620.395, 925.352 618.271, 926.766 616.769 C 929.028 614.367, 929.196 613.726, 928.161 611.455 C 927.204 609.355, 927.266 608.591, 928.492 607.365 C 929.322 606.536, 930 604.539, 930 602.929 C 930 600.652, 930.452 600, 932.031 600 C 934.837 600, 935.507 602.435, 933.977 607.069 C 932.704 610.928, 932.739 611.045, 936.232 614.437 C 938.184 616.332, 940.390 619.260, 941.134 620.942 C 943.502 626.290, 945.921 624.700, 947.127 617.004 C 947.516 614.527, 948.349 610.700, 948.980 608.500 C 949.610 606.300, 950.602 602.475, 951.183 600 C 952.270 595.372, 956.952 588.115, 961.254 584.391 C 963.377 582.554, 965.324 582.219, 976.347 581.794 C 986.221 581.414, 989.405 580.943, 990.830 579.653 C 991.835 578.744, 993.147 578, 993.745 578 C 994.344 578, 994.983 577.646, 995.167 577.214 C 995.350 576.781, 998.650 574.900, 1002.500 573.034 C 1011.151 568.839, 1010.705 569.236, 1008.540 567.653 C 1007.217 566.686, 1006.880 565.536, 1007.297 563.413 C 1007.612 561.811, 1008.478 557.301, 1009.223 553.392 C 1010.424 547.080, 1011.327 545.303, 1017.288 537.517 C 1020.980 532.695, 1024 528.188, 1024 527.502 C 1024 525.207, 1028.079 517, 1029.219 517 C 1029.838 517, 1032.080 516.212, 1034.200 515.250 C 1037.833 513.601, 1038.021 513.299, 1037.465 510 C 1036.809 506.109, 1032.504 497.052, 1030.572 495.500 C 1028.320 493.690, 1024.047 486.158, 1023.081 482.293 C 1019.938 469.729, 1017.887 463.009, 1016.064 459.298 C 1014.929 456.987, 1014 454.680, 1014 454.171 C 1014 452.498, 1011.438 451.073, 1007.566 450.593 C 1005.471 450.333, 1002.799 449.242, 1001.629 448.168 C 998.363 445.173, 994.162 444.866, 988.500 447.209" stroke="#c4743d" fill="#c4743d" fill-opacity="0.2" fill-rule="evenodd"/><path class="svg-region-DMl" d="M 641 439.361 C 641 441.084, 647.134 451.844, 651.056 457 C 652.745 459.221, 653.910 462.259, 654.243 465.312 C 654.561 468.224, 655.585 470.994, 656.836 472.326 C 657.974 473.537, 659.624 476.249, 660.503 478.353 C 661.382 480.457, 663.766 483.859, 665.801 485.913 C 667.835 487.967, 674.209 494.507, 679.964 500.446 C 685.719 506.386, 692.112 512.308, 694.171 513.608 C 696.230 514.908, 698.422 516.920, 699.043 518.079 C 699.663 519.239, 702.121 521.051, 704.503 522.105 C 706.886 523.159, 710.785 525.616, 713.168 527.566 C 715.551 529.515, 719.048 532.323, 720.939 533.805 C 722.831 535.287, 726.940 538.975, 730.071 542 C 745.771 557.170, 757.725 567.860, 762.670 571.151 C 767.860 574.605, 777 584.117, 777 586.063 C 777 586.559, 778.478 588.486, 780.285 590.346 C 786.834 597.090, 791.354 596.431, 800.312 587.429 L 806.711 580.998 807.290 573.351 C 807.640 568.715, 808.436 565.136, 809.309 564.263 C 810.358 563.213, 810.524 561.964, 809.921 559.661 C 809.465 557.922, 808.575 554.475, 807.944 552 C 807.313 549.525, 805.267 544.350, 803.397 540.500 C 801.528 536.650, 799.993 532.600, 799.986 531.500 C 799.956 526.531, 794.441 512.235, 790.035 505.708 C 787.110 501.374, 781 488.685, 781 486.945 C 781 485.586, 770.488 469.866, 767.161 466.250 C 762.679 461.377, 761.249 461.906, 761.751 468.250 C 762.081 472.422, 761.616 474.691, 759.486 479.301 C 758.013 482.492, 756.288 484.932, 755.653 484.724 C 755.019 484.516, 753.467 482.821, 752.204 480.957 C 750.941 479.093, 748.466 475.806, 746.704 473.653 C 741.866 467.742, 736 458.887, 736 457.495 C 736 456.300, 726.242 452.437, 717 449.972 C 714.525 449.312, 711.825 448.541, 711 448.260 C 710.175 447.978, 702.626 447.841, 694.224 447.955 C 668.995 448.295, 653.304 445.819, 647 440.502 C 644.411 438.318, 641 437.669, 641 439.361 M 725.724 497.250 C 720.995 500.814, 719.256 515.513, 723 520.273 C 724.217 521.821, 725 524.330, 725 526.685 C 725 530.859, 727.250 535, 729.518 535 C 730.291 535, 732.705 536.800, 734.883 539 C 738.196 542.346, 739.500 543, 742.863 543 C 745.073 543, 747.160 542.550, 747.500 542 C 748.531 540.331, 753.030 540.878, 755.727 543 C 758.692 545.332, 763.679 545.558, 766.420 543.484 C 769.269 541.328, 771.986 536.811, 771.993 534.217 C 772.001 531.519, 767.595 522.464, 765.711 521.306 C 764.990 520.863, 763.366 519.020, 762.104 517.210 C 759.189 513.034, 749.730 506, 747.029 506 C 745.898 506, 744.191 505.588, 743.236 505.083 C 742.281 504.579, 740.016 503.616, 738.201 502.942 C 736.387 502.268, 733.688 500.431, 732.204 498.858 C 729.205 495.681, 728.152 495.420, 725.724 497.250" stroke="#68533d" fill="#68533d" fill-opacity="0.2" fill-rule="evenodd"/><path class="svg-region-DMr" d="M 1189.910 409.051 C 1188.035 410.136, 1184.513 411.934, 1182.084 413.047 C 1179.656 414.160, 1177.181 415.676, 1176.584 416.415 C 1175.988 417.154, 1173.432 418.020, 1170.904 418.339 C 1168.377 418.658, 1162.807 420.063, 1158.527 421.460 C 1154.247 422.857, 1149.542 424, 1148.071 424 C 1146.601 424, 1142.628 425.800, 1139.242 428 C 1135.856 430.200, 1132.789 432, 1132.425 432 C 1132.061 432, 1130.226 433.350, 1128.347 435 C 1126.468 436.650, 1123.837 438, 1122.500 438 C 1121.163 438, 1118.591 439.288, 1116.785 440.861 C 1114.978 442.435, 1112.150 444.420, 1110.500 445.272 C 1108.850 446.125, 1106.395 448.868, 1105.044 451.369 C 1103.601 454.040, 1101.771 456.035, 1100.606 456.207 C 1099.417 456.383, 1097.798 458.194, 1096.562 460.733 C 1094.247 465.485, 1090.758 466.315, 1090.180 462.250 C 1090.005 461.012, 1089.257 460, 1088.519 460 C 1086.660 460, 1082.131 465.592, 1081.371 468.827 C 1081.026 470.297, 1079.952 472.850, 1078.986 474.500 C 1078.019 476.150, 1076.921 478.512, 1076.547 479.750 C 1075.903 481.875, 1076.144 482, 1080.894 482 C 1084.804 482, 1086.401 481.500, 1088.075 479.750 L 1090.227 477.500 1089.487 480 C 1087.266 487.501, 1084.269 489.971, 1075.500 491.526 C 1067.748 492.901, 1062.647 499.790, 1056.269 517.500 C 1054.882 521.350, 1051.935 528.100, 1049.719 532.500 C 1045.720 540.443, 1045.692 540.577, 1045.821 551.252 C 1045.990 565.285, 1046.782 566.794, 1056.417 571.428 C 1066.368 576.214, 1068.320 578.765, 1067.782 586.280 C 1067.433 591.158, 1067.581 591.848, 1068.730 590.698 C 1069.479 589.949, 1070.681 587.106, 1071.400 584.380 C 1072.602 579.822, 1074.162 577.007, 1080.279 568.360 C 1081.501 566.633, 1083.248 563.854, 1084.161 562.184 C 1085.075 560.514, 1090.025 556.042, 1095.161 552.246 C 1100.298 548.451, 1106.013 543.620, 1107.862 541.511 C 1110.870 538.079, 1111.176 537.188, 1110.777 533.032 L 1110.331 528.387 1114.915 526.533 C 1119.880 524.524, 1130.274 514.166, 1137.436 504.089 C 1139.621 501.015, 1145.714 493.100, 1150.975 486.500 C 1156.236 479.900, 1161.618 472.925, 1162.934 471 C 1164.250 469.075, 1166.266 466.457, 1167.414 465.182 C 1168.561 463.907, 1170.180 460.982, 1171.010 458.682 C 1172.336 455.010, 1178.290 443.304, 1182.546 436 C 1183.347 434.625, 1185.370 430.575, 1187.040 427 C 1188.711 423.425, 1191.178 418.700, 1192.523 416.500 C 1194.989 412.464, 1195.708 408.556, 1194.160 407.599 C 1193.698 407.313, 1191.786 407.967, 1189.910 409.051 M 1106 485 C 1106 485.550, 1105.172 486, 1104.161 486 C 1101.988 486, 1096 492.254, 1096 494.523 C 1096 497.512, 1087.887 510.153, 1084.658 512.195 C 1082.809 513.365, 1083.638 530.942, 1085.646 533.162 C 1087.917 535.671, 1089.397 535.492, 1095.570 531.960 C 1101.040 528.831, 1116 515.558, 1116 513.834 C 1116 513.302, 1117.178 511.322, 1118.618 509.435 L 1121.235 506.003 1118.618 500.474 C 1117.178 497.433, 1116 494.535, 1116 494.034 C 1116 493.533, 1114.763 491.085, 1113.250 488.593 C 1111.318 485.411, 1109.831 484.054, 1108.250 484.032 C 1107.013 484.014, 1106 484.450, 1106 485" stroke="#68533d" fill="#68533d" fill-opacity="0.2" fill-rule="evenodd"/><path class="svg-region-VMl" d="M 809.327 563.777 C 808.681 564.187, 807.868 567.443, 807.518 571.012 C 806.549 580.914, 806.410 581.253, 801.021 586.785 C 794.840 593.131, 790.725 595.395, 786.798 594.610 C 784.132 594.076, 783.934 594.223, 784.565 596.262 C 786.089 601.192, 791.548 610.687, 797.063 618 C 798.515 619.925, 800.030 622.850, 800.429 624.500 C 800.829 626.150, 802.182 628.850, 803.436 630.500 C 804.690 632.150, 806.877 635.792, 808.296 638.594 C 811.602 645.122, 814.495 647, 821.246 647 C 826.220 647, 827.173 646.562, 836.031 640.193 C 844.762 633.916, 845.539 633.081, 846 629.487 C 846.403 626.341, 847.335 624.952, 850.828 622.294 C 853.208 620.482, 856.159 619, 857.387 619 C 858.614 619, 860.491 618.332, 861.559 617.516 C 862.626 616.700, 865.281 615.533, 867.457 614.922 C 870.503 614.067, 871.055 613.610, 869.856 612.939 C 868.999 612.459, 867.491 609.956, 866.506 607.377 C 865.091 603.672, 864.960 602.294, 865.880 600.820 C 868.135 597.209, 863.563 593.328, 852.708 589.639 C 850.688 588.953, 847.055 581.676, 847.022 578.250 C 847.004 576.413, 846.440 576, 843.950 576 C 839.747 576, 835.827 573.773, 832.612 569.558 C 831.119 567.600, 828.592 565.323, 826.998 564.499 C 823.964 562.930, 811.461 562.419, 809.327 563.777" stroke="#e59376" fill="#e59376" fill-opacity="0.2" fill-rule="evenodd"/><path class="svg-region-VMr" d="M 1024.835 554.862 C 1017.240 560.147, 1010.793 566.671, 1009.082 570.802 C 1008.439 572.354, 1005.404 575.395, 1002.338 577.562 C 988.891 587.059, 988.859 587.093, 986.278 594.500 C 983.123 603.551, 983.152 612.123, 986.372 621.572 C 988.648 628.254, 988.844 628.495, 991.889 628.350 C 996.984 628.108, 999.640 625.682, 1001.116 619.923 C 1002.805 613.333, 1005.884 611.436, 1008.937 615.103 C 1010.035 616.421, 1010.948 618.009, 1010.967 618.631 C 1011.010 620.105, 1016.088 623.757, 1023.204 627.433 C 1026.956 629.371, 1029.488 631.491, 1030.669 633.683 C 1031.651 635.507, 1032.737 637, 1033.081 637 C 1033.426 637, 1034.949 638.150, 1036.465 639.555 C 1038.058 641.032, 1040.125 641.981, 1041.361 641.805 C 1043.130 641.553, 1043.596 640.634, 1044.054 636.500 C 1044.686 630.789, 1050.726 618.483, 1058.471 607.124 C 1066.580 595.231, 1067.111 594.066, 1067.718 586.819 L 1068.293 579.969 1064.324 576.234 C 1062.140 574.180, 1057.912 571.591, 1054.927 570.481 C 1048.239 567.992, 1046.004 564.303, 1046.002 555.750 L 1046 550 1038.750 550.112 C 1031.827 550.219, 1031.199 550.433, 1024.835 554.862" stroke="#e59376" fill="#e59376" fill-opacity="0.2" fill-rule="evenodd"/><path class="svg-region-Ol" d="M 432.500 349.178 C 423.173 350.664, 416.603 353.035, 405.108 359.063 C 398.029 362.775, 393.835 365.641, 392.500 367.677 C 391.400 369.356, 389.375 371.221, 388 371.823 C 386.625 372.425, 382.350 375.194, 378.500 377.976 C 374.650 380.759, 369.668 383.929, 367.428 385.021 C 363.141 387.111, 346 403.867, 346 405.968 C 346 406.642, 344.219 409.216, 342.043 411.688 C 339.867 414.161, 337.507 417.492, 336.799 419.092 C 336.091 420.691, 335.220 422, 334.864 422 C 334.508 422, 333.933 423.130, 333.586 424.512 C 333.240 425.893, 331.616 428.218, 329.978 429.677 C 328.340 431.137, 326.998 433.044, 326.996 433.915 C 326.994 434.787, 326.101 436.850, 325.011 438.500 C 323.921 440.150, 322.590 442.175, 322.055 443 C 316.953 450.856, 303.903 486.518, 300.465 502 C 299.549 506.125, 298.112 511.975, 297.270 515 C 295.873 520.023, 294.295 527.563, 291.983 540.267 C 291.506 542.889, 290.828 550.895, 290.478 558.058 C 290.127 565.222, 289.678 573.652, 289.480 576.791 C 288.547 591.603, 293.232 619.301, 298.429 629.693 C 299.751 632.337, 300.792 636.075, 300.742 638 C 300.644 641.740, 310.040 662.728, 314.360 668.421 C 315.645 670.114, 317.251 673.191, 317.928 675.258 C 318.606 677.324, 319.961 679.444, 320.940 679.968 C 321.919 680.492, 323.647 683.076, 324.781 685.710 C 327.150 691.214, 331.304 695.766, 342.535 705.166 C 356.655 716.984, 362.487 720.936, 376.685 728.309 C 388.001 734.186, 404.670 739.861, 420.366 743.182 C 428.672 744.939, 452.225 745.016, 465.500 743.329 C 472.100 742.491, 480.650 741.408, 484.500 740.922 C 490.919 740.113, 525.364 739.870, 536 740.559 C 538.475 740.720, 547.186 740.400, 555.358 739.848 C 563.530 739.296, 573.655 738.689, 577.858 738.499 C 589.098 737.990, 599.892 736.411, 605 734.529 C 616.314 730.359, 623.829 728.454, 635 726.926 C 640.378 726.190, 646.439 724.492, 651.500 722.303 C 661.013 718.190, 672.632 710.517, 673.317 707.894 C 673.586 706.866, 674.863 705.621, 676.153 705.128 C 679.554 703.830, 690 694.992, 690 693.413 C 690 692.674, 690.965 691.554, 692.145 690.922 C 695.125 689.327, 698.758 684.967, 699.496 682.096 C 699.837 680.775, 701.374 677.850, 702.913 675.596 C 707.504 668.875, 708.667 663.681, 709.653 645.500 C 709.952 639.981, 709.724 633.260, 709.143 630.500 C 708.564 627.750, 707.138 620.550, 705.972 614.500 C 704.807 608.450, 703.256 602.571, 702.525 601.435 C 701.794 600.299, 700.735 597.824, 700.172 595.935 C 699.608 594.046, 698.273 590.025, 697.204 587 C 696.135 583.975, 694.672 579.475, 693.953 577 C 693.233 574.525, 692.114 571.825, 691.465 571 C 690.817 570.175, 689.804 567.700, 689.214 565.500 C 688.625 563.300, 686.941 558.350, 685.473 554.500 C 684.004 550.650, 682.222 545.475, 681.512 543 C 675.622 522.466, 663.060 493.265, 656.256 484.289 C 653.933 481.225, 642.810 472.163, 626.179 459.785 C 621.955 456.642, 616.475 452.493, 614 450.565 C 604.867 443.448, 600.375 440.328, 595.250 437.539 C 592.362 435.968, 590 434.256, 590 433.734 C 590 433.213, 589.318 433.048, 588.484 433.368 C 586.730 434.041, 579.509 428.037, 564.040 413.048 C 558.287 407.473, 550.706 400.569, 547.193 397.706 C 543.681 394.843, 538.713 390.735, 536.153 388.579 C 525.604 379.689, 515.106 372.314, 508.250 368.976 C 505.913 367.838, 504 366.587, 504 366.197 C 504 365.807, 502.538 364.870, 500.750 364.115 C 498.962 363.360, 493.518 360.746, 488.650 358.307 C 481.950 354.950, 478.319 353.760, 473.700 353.410 C 470.345 353.156, 466.902 352.326, 466.050 351.566 C 465.052 350.676, 460.941 350, 454.500 349.665 C 449 349.380, 443.150 348.938, 441.500 348.684 C 439.850 348.430, 435.800 348.652, 432.500 349.178" stroke="#aa444d" fill="#aa444d" fill-opacity="0.2" fill-rule="evenodd"/><path class="svg-region-Or" d="M 1387.500 300.620 C 1367.418 304.060, 1355 307.632, 1355 309.967 C 1355 310.448, 1353.665 311.134, 1352.033 311.493 C 1350.401 311.851, 1347.569 313.124, 1345.740 314.322 C 1343.910 315.520, 1340.633 317.390, 1338.457 318.478 C 1332.854 321.280, 1307.559 338.444, 1301 343.895 C 1295.104 348.795, 1292.503 351.427, 1285.174 359.908 C 1282.603 362.882, 1278.437 367.607, 1275.915 370.408 C 1265.915 381.514, 1253.789 396.508, 1251.269 400.884 C 1247.030 408.244, 1244.178 411.709, 1232.689 423.451 C 1226.742 429.528, 1221.017 436.146, 1219.965 438.158 C 1218.914 440.170, 1217.665 441.970, 1217.191 442.158 C 1215.602 442.788, 1209 453.202, 1209 455.077 C 1209 456.096, 1208.177 457.370, 1207.171 457.908 C 1204.670 459.247, 1197.400 475.357, 1196.525 481.500 C 1196.133 484.250, 1195.454 486.950, 1195.016 487.500 C 1194.578 488.050, 1194.874 492.775, 1195.673 498 C 1196.842 505.641, 1196.932 510.667, 1196.134 523.683 C 1195.589 532.584, 1194.716 540.684, 1194.195 541.683 C 1192.174 545.558, 1190.717 564.417, 1191.390 577.979 C 1192.041 591.079, 1195.344 610.684, 1198.724 621.500 C 1201.654 630.881, 1210.648 648.488, 1215.836 655 C 1229.157 671.722, 1250.147 683.511, 1277.365 689.558 C 1297.230 693.970, 1299.221 694.223, 1309 693.572 C 1332.924 691.978, 1345.933 692.509, 1357.189 695.538 C 1360.317 696.380, 1364.030 696.780, 1365.439 696.426 C 1366.894 696.061, 1369.620 696.429, 1371.750 697.278 C 1374.366 698.321, 1381.398 698.975, 1395 699.440 C 1405.725 699.807, 1415.344 700.357, 1416.375 700.661 C 1417.406 700.965, 1418.583 700.675, 1418.990 700.015 C 1419.644 698.958, 1425.073 698.242, 1445.913 696.465 C 1448.341 696.258, 1450.591 695.704, 1450.913 695.233 C 1451.489 694.393, 1464.004 690.657, 1467.052 690.415 C 1469.459 690.224, 1485.034 685.062, 1489.500 682.974 C 1491.700 681.946, 1494.627 680.875, 1496.005 680.595 C 1498.818 680.022, 1511.962 672.828, 1519.375 667.804 C 1536.770 656.014, 1555.852 634.513, 1564.661 616.778 C 1566.498 613.080, 1568 609.243, 1568 608.250 C 1568 607.257, 1568.719 605.419, 1569.597 604.165 C 1572.335 600.256, 1576 589.794, 1576 585.886 C 1576 583.832, 1577.463 578.630, 1579.250 574.326 L 1582.500 566.500 1582.498 539.500 C 1582.496 517.008, 1582.197 511.248, 1580.704 505 C 1577.189 490.286, 1574.140 480.362, 1570.224 470.886 C 1568.039 465.598, 1565.447 458.848, 1564.464 455.886 C 1561.922 448.225, 1553.222 432.662, 1540 412.119 C 1537.684 408.522, 1529.163 396.364, 1524.500 390.005 C 1510.008 370.242, 1501.005 357.135, 1501.002 355.794 C 1500.994 352.880, 1482.022 330.677, 1476 326.534 C 1474.075 325.210, 1470.954 322.729, 1469.065 321.020 C 1462.980 315.517, 1442.697 306.039, 1430.312 302.911 C 1417.264 299.615, 1399.050 298.641, 1387.500 300.620" stroke="#aa444d" fill="#aa444d" fill-opacity="0.2" fill-rule="evenodd"/><path class="svg-region-VOC" d="M 913 381.720 C 908.420 382.102, 892.770 386.067, 891.550 387.154 C 891.027 387.619, 889.602 388, 888.383 388 C 887.164 388, 884.074 388.897, 881.518 389.992 L 876.870 391.984 879.685 394.407 L 882.500 396.829 880.250 399.874 C 879.013 401.549, 878 403.162, 878 403.460 C 878 405.760, 888.206 400.815, 893.515 395.943 C 898.287 391.562, 943.932 386.752, 949.984 389.992 C 952.870 391.536, 956.194 391.190, 959.500 389 C 961.150 387.907, 963.343 387.010, 964.372 387.007 C 967.989 386.994, 964.178 384.314, 958.131 382.617 C 953.547 381.331, 948.460 381.028, 934.398 381.204 C 924.554 381.327, 914.925 381.559, 913 381.720" stroke="#ff8f93" fill="#ff8f93" fill-opacity="0.2" fill-rule="evenodd"/><path class="svg-region-LBPCl" d="M 705.494 441.009 C 703.446 444.324, 710.670 449.716, 715.788 448.692 C 717.701 448.310, 719.732 448.767, 721.856 450.059 C 723.612 451.126, 726.801 452, 728.942 452 C 734.532 452, 736 452.822, 736 455.951 C 736 458.820, 741.446 467.636, 747.458 474.500 C 749.385 476.700, 750.985 478.950, 751.014 479.500 C 751.090 480.949, 754.642 485, 755.837 485 C 757.635 485, 762.229 473.730, 762.113 469.604 C 761.980 464.876, 761.052 463.665, 755.390 460.838 C 752.976 459.632, 751 458.134, 751 457.510 C 751 455.219, 745.424 451, 742.395 451 C 737.690 451, 736.679 449.255, 739.108 445.326 C 741.292 441.791, 740.632 441.055, 737.441 443.468 C 736.374 444.276, 734.288 444.951, 732.807 444.968 C 731.326 444.986, 728.531 445.934, 726.596 447.076 L 723.077 449.152 718.185 444.576 C 714.256 440.901, 712.586 440, 709.705 440 C 707.732 440, 705.837 440.454, 705.494 441.009 M 799.500 496.529 C 797.300 497.321, 795.388 497.977, 795.250 497.985 C 794.087 498.055, 795.439 503.094, 797.098 504.875 C 798.252 506.114, 799.625 508.678, 800.148 510.574 C 801.011 513.698, 810.294 523.996, 812.250 523.999 C 812.663 524, 813 523.100, 813 522 C 813 519.791, 815.854 519.254, 817.712 521.112 C 818.529 521.929, 819.668 521.064, 821.995 517.862 C 824.547 514.352, 825.060 512.840, 824.625 510.119 C 824.076 506.690, 823.266 505.799, 817 501.724 C 810.527 497.514, 805.894 495, 804.693 495.044 C 804.037 495.068, 801.700 495.736, 799.500 496.529" stroke="#daffff" fill="#daffff" fill-opacity="0.2" fill-rule="evenodd"/><path class="svg-region-LBPCr" d="M 1188.300 351.277 C 1187.860 351.979, 1185.573 354.053, 1183.218 355.886 C 1180.864 357.719, 1177.856 361.306, 1176.534 363.859 C 1171.476 373.629, 1166.724 383.650, 1165.410 387.316 C 1163.358 393.042, 1160.539 396.485, 1152.934 402.553 C 1145.896 408.168, 1141.622 413.343, 1145.924 411.041 C 1148.512 409.655, 1148.764 411.465, 1146.443 414.777 C 1143.764 418.603, 1146.208 417.198, 1154.782 409.985 C 1165.783 400.731, 1166.119 400.400, 1171.271 393.752 C 1176.135 387.476, 1179.314 384.647, 1182.689 383.590 C 1184.349 383.070, 1185.170 381.598, 1186.086 377.506 C 1186.955 373.623, 1188.657 370.424, 1192.147 366.110 C 1197.570 359.407, 1198.384 355.384, 1195 352 C 1192.730 349.730, 1189.488 349.380, 1188.300 351.277 M 1107.467 434.082 C 1105.835 435.811, 1102.795 438.317, 1100.712 439.650 C 1098.628 440.983, 1096.394 443.294, 1095.747 444.787 C 1095.100 446.279, 1093.519 449.216, 1092.233 451.313 C 1089.089 456.441, 1089.341 464.335, 1092.664 464.808 C 1094.197 465.027, 1095.041 464.443, 1095.559 462.808 C 1096.698 459.208, 1099.329 456.066, 1101.233 456.031 C 1102.289 456.012, 1103.942 454.075, 1105.463 451.074 C 1106.858 448.319, 1108.898 445.850, 1110.090 445.471 C 1112.834 444.600, 1120 438.141, 1120 436.539 C 1120 434.679, 1116.866 432.300, 1113.467 431.580 C 1110.926 431.041, 1109.955 431.446, 1107.467 434.082 M 1087.045 480.162 C 1084.795 481.987, 1083.353 482.125, 1069.673 481.826 C 1055.241 481.511, 1054.707 481.572, 1053.290 483.697 C 1052.485 484.906, 1050.910 486.931, 1049.791 488.197 C 1044.945 493.680, 1039.772 501.105, 1040.377 501.710 C 1040.738 502.071, 1041.566 501.834, 1042.217 501.183 C 1042.867 500.533, 1044.033 500, 1044.806 500 C 1045.579 500, 1047.548 498.875, 1049.182 497.500 C 1050.816 496.125, 1052.981 495, 1053.993 495 C 1055.005 495, 1056.658 493.870, 1057.667 492.489 C 1060.102 489.152, 1063.483 488.636, 1069.296 490.714 C 1073.900 492.360, 1074.320 492.350, 1079.796 490.464 C 1084.912 488.702, 1085.745 488.006, 1087.876 483.709 C 1089.182 481.074, 1090.082 478.750, 1089.876 478.545 C 1089.669 478.340, 1088.395 479.068, 1087.045 480.162" stroke="#daffff" fill="#daffff" fill-opacity="0.2" fill-rule="evenodd"/><path class="svg-region-BPCl" d="M 813 531.599 C 813 543.270, 813.297 544.635, 817.815 553.711 C 818.694 555.477, 821.008 558.492, 822.956 560.411 C 824.905 562.329, 828.750 566.113, 831.500 568.819 C 837.316 574.542, 839.803 576.005, 843.684 575.986 C 850.131 575.955, 851 575.197, 851 569.606 C 851 566.767, 850.394 563.557, 849.654 562.473 C 848.913 561.388, 847.336 556.766, 846.148 552.202 C 844.023 544.036, 841.277 538.836, 837.667 536.139 C 836.659 535.386, 834.468 533.435, 832.797 531.802 C 828.966 528.056, 816.468 520, 814.490 520 C 813.256 520, 813 521.991, 813 531.599" stroke="#83385f" fill="#83385f" fill-opacity="0.2" fill-rule="evenodd"/><path class="svg-region-BPCr" d="M 1033.481 515.439 C 1032.391 516.263, 1030.697 516.951, 1029.714 516.968 C 1028.024 516.998, 1024 524.342, 1024 527.396 C 1024 528.073, 1020.880 532.741, 1017.068 537.770 C 1011.414 545.228, 1010.023 547.797, 1009.526 551.707 C 1009.191 554.343, 1008.438 558.113, 1007.853 560.084 C 1005.357 568.493, 1008.191 569.784, 1014.667 563.187 C 1017.325 560.479, 1020.891 557.554, 1022.591 556.688 C 1035.598 550.061, 1044.138 530.620, 1039.585 518 C 1038.152 514.025, 1036.351 513.270, 1033.481 515.439" stroke="#83385f" fill="#83385f" fill-opacity="0.2" fill-rule="evenodd"/><path class="svg-region-AMC" d="M 1004.500 572 C 1002.342 573.100, 999.997 574, 999.289 574 C 998.580 574, 998 574.450, 998 575 C 998 575.550, 997.540 576, 996.979 576 C 996.417 576, 994.115 577.219, 991.864 578.708 C 988.085 581.210, 986.822 581.448, 975.357 581.830 L 962.942 582.243 958.479 587.346 C 952.903 593.720, 951 597.671, 951 602.875 C 951 608.418, 953.578 609.610, 967.507 610.510 C 980.833 611.371, 980.743 611.435, 985.383 597.801 C 987.124 592.686, 988.897 587.945, 989.323 587.267 C 989.748 586.589, 993.338 583.941, 997.298 581.383 C 1004.517 576.720, 1009 572.723, 1009 570.948 C 1009 569.697, 1009.031 569.690, 1004.500 572 M 847.022 578.750 C 847.067 582.308, 850.909 589.015, 853.458 589.984 C 860.022 592.480, 864.985 595.151, 865.816 596.635 C 866.378 597.640, 866.331 599.312, 865.693 601.003 C 864.863 603.200, 865.076 604.630, 866.766 608.226 L 868.874 612.709 881.187 613.419 C 889.191 613.880, 894.285 614.637, 895.742 615.582 C 896.976 616.382, 900.013 617.314, 902.492 617.654 L 907 618.272 907 609.791 C 907 602.442, 906.719 601.056, 904.898 599.407 C 903.741 598.361, 902.155 596.266, 901.372 594.752 C 900.309 592.698, 899.205 592, 897.013 592 C 895.299 592, 893.246 591.107, 892.077 589.853 C 890.258 587.900, 889.378 587.758, 882.355 588.290 C 873.948 588.925, 870.032 587.887, 865.064 583.707 C 863.547 582.431, 859.770 580.819, 856.670 580.125 C 853.570 579.432, 850.775 578.445, 850.458 577.932 C 849.467 576.328, 846.999 576.915, 847.022 578.750" stroke="#9d4741" fill="#9d4741" fill-opacity="0.2" fill-rule="evenodd"/><path class="svg-region-ODMl" d="M 725.144 497.327 C 722.654 500.326, 721 506.309, 721 512.313 C 721 517.420, 721.398 519.050, 723 520.500 C 724.384 521.752, 725 523.580, 725 526.432 C 725 530.732, 727.191 535, 729.398 535 C 730.104 535, 732.563 536.845, 734.863 539.099 C 739.303 543.451, 740.470 543.629, 750.523 541.484 C 752.849 540.988, 753.978 541.319, 755.428 542.920 C 756.704 544.331, 758.531 545, 761.107 545 C 764.162 545, 765.597 544.287, 768.452 541.347 C 770.751 538.980, 772 536.736, 772 534.974 C 772 531.438, 768.441 523.429, 766.139 521.785 C 765.149 521.078, 763.482 519.150, 762.433 517.500 C 761.384 515.850, 760.070 514.029, 759.513 513.452 C 757.449 511.318, 749.095 506, 747.806 506 C 744.604 506, 735.373 501.785, 732.520 499.020 C 729.153 495.756, 726.880 495.234, 725.144 497.327" stroke="#999999" fill="#999999" fill-opacity="0.2" fill-rule="evenodd"/><path class="svg-region-ODMr" d="M 1106 485 C 1106 485.550, 1105.185 486, 1104.189 486 C 1101.490 486, 1096 491.759, 1096 494.590 C 1096 496.117, 1092.446 502.806, 1091 504 C 1090.667 504.275, 1089.369 506.188, 1088.116 508.250 C 1086.862 510.313, 1085.476 512, 1085.035 512 C 1083.646 512, 1083.120 517.225, 1083.711 525.156 C 1084.215 531.916, 1084.563 532.963, 1086.679 534.096 C 1088.776 535.218, 1089.737 535.044, 1094.353 532.708 C 1099.561 530.070, 1116 515.747, 1116 513.847 C 1116 513.308, 1117.196 511.298, 1118.659 509.381 L 1121.318 505.895 1118.716 500.197 C 1117.285 497.064, 1115.976 494.050, 1115.807 493.500 C 1115.638 492.950, 1114.375 490.591, 1113 488.258 C 1111.241 485.273, 1109.833 484.013, 1108.250 484.008 C 1107.013 484.003, 1106 484.450, 1106 485" stroke="#999999" fill="#999999" fill-opacity="0.2" fill-rule="evenodd"/>
    </svg>