<svg xmlns="http://www.w3.org/2000/svg" width="1921" height="1027" viewBox="0 0 1921 1027" version="1.1">
    <path class="svg-region-V" d="M 999.693 177.500 C 997.049 178.227, 990.524 179.120, 985.193 179.484 C 973.384 180.290, 963.622 183.299, 948.740 190.718 C 938.655 195.745, 929.386 199, 925.151 199 C 924.188 199, 920.545 201.137, 917.055 203.750 C 913.565 206.363, 910.125 208.932, 909.410 209.460 C 907.799 210.650, 896.876 205.803, 892.500 201.955 C 887.252 197.341, 883.490 195.140, 871.856 189.880 C 860.571 184.778, 860.415 184.741, 847 183.961 C 839.575 183.530, 831.925 182.580, 830 181.851 C 827.430 180.878, 819.725 180.522, 801 180.513 C 778.783 180.502, 775.049 180.724, 772 182.237 C 770.075 183.192, 764.675 184.638, 760 185.451 C 746.386 187.818, 722.401 197.073, 716 202.428 C 715.175 203.118, 711.625 205.400, 708.111 207.498 C 700.416 212.094, 691.463 220.774, 686.849 228.115 C 683.723 233.088, 678 244.238, 678 245.356 C 678 245.621, 675.946 250.174, 673.436 255.473 C 665.183 272.900, 662.436 287.752, 666.218 294.500 C 667.143 296.150, 668.652 299.075, 669.572 301 C 673.442 309.096, 673.789 309.487, 677.682 310.152 C 679.782 310.510, 683.300 311.463, 685.500 312.269 C 688.388 313.328, 694.210 313.758, 706.446 313.815 C 715.767 313.859, 725.606 314.426, 728.312 315.075 C 733.322 316.277, 741.183 315.896, 750.500 313.999 C 753.250 313.439, 757.975 312.576, 761 312.082 C 764.025 311.588, 770.666 309.557, 775.757 307.569 C 780.849 305.582, 788.499 303.330, 792.757 302.566 C 802.447 300.826, 831.754 299.480, 851.472 299.869 L 866.445 300.164 872.472 305.070 C 879.396 310.704, 889.423 316.110, 902.928 321.488 C 911.902 325.062, 912.696 325.205, 919.428 324.452 C 935.587 322.644, 991.721 324.403, 998.315 326.924 C 1005.720 329.755, 1029.684 326.474, 1039.123 321.336 L 1043.810 318.785 1049.443 320.893 C 1053.534 322.424, 1057.380 323, 1063.503 323 C 1074.601 323, 1080.407 321.064, 1097 311.832 C 1102.869 308.567, 1107.738 307.384, 1120.516 306.117 C 1134.904 304.691, 1142.868 299.726, 1150.406 287.482 C 1153.116 283.080, 1153.317 282.047, 1153.391 272.131 C 1153.459 263.005, 1153.172 261.005, 1151.363 258 C 1148.364 253.021, 1146.614 249.592, 1142.435 240.511 C 1138.889 232.806, 1131.834 222.070, 1122.055 209.500 C 1115.938 201.637, 1109 191.358, 1109 190.160 C 1109 188.513, 1099 183.899, 1092.114 182.369 C 1079.483 179.563, 1067.174 178.177, 1059.348 178.680 C 1054.587 178.987, 1047.398 178.559, 1041.074 177.593 C 1028.560 175.681, 1006.489 175.632, 999.693 177.500" stroke="#dd8a8a" fill="#dd8a8a" fill-opacity="0.2" fill-rule="evenodd"/><path class="svg-region-SV" d="M 830 299.967 C 826.425 300.406, 818.325 300.819, 812 300.883 C 797.824 301.028, 787.747 302.888, 775.735 307.578 C 770.656 309.561, 764.025 311.588, 761 312.082 C 757.975 312.576, 753.250 313.420, 750.500 313.957 C 747.750 314.494, 743.598 315.233, 741.273 315.599 C 738.948 315.966, 737.287 316.655, 737.581 317.131 C 737.875 317.607, 740.452 319.099, 743.308 320.447 C 747.817 322.575, 750.342 322.963, 762.500 323.392 C 806.012 324.929, 817.553 325.714, 822 327.437 C 824.475 328.397, 828.750 329.554, 831.500 330.009 C 834.250 330.463, 838.946 331.378, 841.936 332.041 C 848.222 333.434, 864.932 332.873, 872.500 331.014 C 880.990 328.929, 903.477 322.743, 903.904 322.375 C 904.125 322.183, 902.550 321.326, 900.404 320.470 C 890.462 316.507, 878.946 310.073, 873.193 305.268 C 867.790 300.755, 866.285 299.999, 862.693 299.995 C 860.387 299.993, 853.550 299.805, 847.500 299.579 C 841.450 299.352, 833.575 299.527, 830 299.967" stroke="#c666b5" fill="#c666b5" fill-opacity="0.2" fill-rule="evenodd"/><path class="svg-region-DB" d="M 1130.500 304.090 C 1127.750 305.092, 1123.502 305.932, 1121.060 305.956 C 1111.675 306.049, 1100.555 309.090, 1093 313.630 C 1091.625 314.456, 1087.125 316.781, 1083 318.797 C 1075.828 322.302, 1075.041 322.463, 1065 322.481 C 1059.225 322.491, 1053.101 322.141, 1051.391 321.702 L 1048.283 320.903 1047.719 330.202 C 1047.178 339.133, 1047.281 339.765, 1050.328 346.201 C 1053.009 351.863, 1054.120 353.170, 1057.500 354.634 C 1059.700 355.586, 1063.300 357.662, 1065.500 359.247 C 1080.671 370.172, 1083.753 372.264, 1086.847 373.732 C 1091.850 376.106, 1095.668 380.204, 1096.514 384.108 C 1096.918 385.974, 1098.140 389.750, 1099.229 392.500 C 1103.487 403.253, 1106.977 416.633, 1106.989 422.250 C 1107 428.164, 1107.767 429.190, 1110.086 426.396 C 1111.473 424.725, 1112.369 424.307, 1122.876 420.436 C 1130.077 417.783, 1143.612 409.402, 1149.270 404.092 C 1151.492 402.008, 1154.914 396.729, 1157.602 391.240 C 1160.111 386.117, 1164.164 378.679, 1166.610 374.712 C 1169.056 370.746, 1171.536 365.700, 1172.122 363.500 C 1172.707 361.300, 1173.765 358.825, 1174.472 358 C 1175.180 357.175, 1176.500 355.038, 1177.405 353.250 C 1178.311 351.462, 1179.715 350, 1180.526 350 C 1182.692 350, 1182.321 348.237, 1180 347.500 C 1178.900 347.151, 1177.997 346.333, 1177.992 345.683 C 1177.975 343.096, 1170.168 340.035, 1160.582 338.857 L 1151 337.679 1151 333.889 C 1151 331.329, 1151.564 329.784, 1152.739 329.126 C 1154.109 328.359, 1154.555 326.467, 1154.839 320.203 C 1155.154 313.270, 1154.955 312.078, 1153.284 310.877 C 1152.230 310.120, 1151.090 308.752, 1150.749 307.838 C 1150.409 306.924, 1148.526 305.597, 1146.565 304.887 C 1144.604 304.178, 1143 303.239, 1143 302.799 C 1143 301.431, 1135.738 302.181, 1130.500 304.090 M 673.214 313.409 C 668.300 319.006, 666.637 325.695, 667.277 337.296 C 667.977 350.005, 666.799 352.751, 659.250 356.015 C 655.292 357.726, 654.001 358.803, 654.004 360.392 C 654.008 362.893, 657.556 368.997, 660.003 370.713 C 660.954 371.380, 662.037 373.833, 662.410 376.163 C 662.783 378.494, 663.472 380.873, 663.941 381.450 C 664.411 382.028, 666.243 385.963, 668.013 390.195 C 669.783 394.428, 673.206 400.203, 675.618 403.030 C 678.031 405.857, 680.567 408.960, 681.253 409.926 C 681.939 410.892, 683.606 412.270, 684.957 412.987 C 686.309 413.705, 690.746 416.814, 694.819 419.896 C 702.644 425.818, 709.506 429.835, 712 429.953 C 712.825 429.992, 715.525 431.191, 718 432.616 C 720.475 434.042, 724.750 435.577, 727.500 436.026 C 736.397 437.481, 740.165 438.790, 741.681 440.954 C 742.498 442.121, 745.379 444.143, 748.083 445.447 C 752.372 447.517, 752.997 447.607, 752.978 446.160 C 752.966 445.247, 752.076 443.375, 751 442 C 749.424 439.985, 749.040 437.896, 749.022 431.236 C 749.010 426.691, 748.600 422.191, 748.111 421.236 C 747.622 420.281, 746.532 415.675, 745.689 411 C 744.469 404.236, 744.331 399.641, 745.013 388.500 C 746.081 371.047, 745.874 371.884, 752.873 356.731 C 754.593 353.008, 756.012 349.408, 756.027 348.731 C 756.065 346.985, 762.298 340.498, 765.666 338.697 C 770.086 336.334, 778.709 333, 780.400 333 C 782.242 333, 791.206 328.145, 792.220 326.599 C 793.135 325.204, 783.667 324.155, 763.500 323.415 C 748.441 322.862, 743.045 321.603, 738 317.460 C 736.176 315.963, 732.107 315.306, 716.500 313.987 C 702.543 312.808, 704.130 312.838, 696.500 313.597 C 691.779 314.067, 689.328 313.747, 685 312.097 C 677.687 309.310, 676.718 309.418, 673.214 313.409 M 1186.006 368.351 C 1184.085 371.183, 1181.674 374.122, 1180.649 374.882 C 1178.352 376.585, 1174.023 385.670, 1174.010 388.816 C 1174.004 390.089, 1173.543 391.985, 1172.985 393.029 C 1171.170 396.420, 1155.049 411.932, 1151.224 413.968 C 1146.773 416.338, 1134.247 427.568, 1135.098 428.426 C 1135.427 428.758, 1137.699 427.910, 1140.147 426.541 C 1142.595 425.173, 1147.726 423.347, 1151.549 422.484 C 1160.061 420.563, 1159.263 420.651, 1166.327 420.842 C 1171.323 420.978, 1172.571 421.417, 1175.077 423.923 C 1177.638 426.484, 1178 427.569, 1178.004 432.673 L 1178.007 438.500 1180.010 435.216 C 1183.952 428.750, 1186.593 402.736, 1184.615 389.849 C 1183.806 384.576, 1183.930 383.959, 1186.456 380.646 C 1188.153 378.421, 1188.946 376.404, 1188.578 375.245 C 1188.255 374.228, 1188.653 372.519, 1189.464 371.448 C 1191.061 369.335, 1191.404 366.179, 1190.235 364.351 C 1189.772 363.627, 1188.207 365.108, 1186.006 368.351 M 639.667 386.667 C 638.473 387.860, 638.964 396.669, 640.417 400.148 C 641.197 402.014, 642.772 404.389, 643.917 405.425 C 645.063 406.462, 646 408.040, 646 408.933 C 646 411.387, 665.871 450.091, 668.606 452.964 C 669.821 454.240, 670 454.162, 670 452.360 C 670 449.529, 674.220 445.205, 677.665 444.506 C 679.224 444.189, 681.882 443.496, 683.571 442.965 C 687.743 441.654, 698.424 441.747, 703.059 443.136 C 705.144 443.760, 707.646 443.966, 708.619 443.593 C 710.864 442.731, 708.328 441.101, 690.688 432.063 C 673.278 423.144, 671.899 422.382, 668.805 419.967 C 665.570 417.441, 661 408.651, 661 404.954 C 661 401.056, 655.914 394.695, 649.096 390.065 C 643.267 386.107, 641.032 385.301, 639.667 386.667" stroke="#e8b1e4" fill="#e8b1e4" fill-opacity="0.2" fill-rule="evenodd"/><path class="svg-region-MB" d="M 1037.883 321.651 C 1028.831 326.518, 1008.446 329.363, 999.272 327.040 C 988.446 324.299, 931.636 322.411, 921.161 324.445 C 918.335 324.994, 914.434 324.837, 909.972 323.995 C 902.682 322.619, 902.437 322.657, 884.500 327.966 C 874.520 330.919, 861.922 333.010, 854.132 333.005 C 846.823 333, 832.264 330.782, 826.500 328.796 C 815.617 325.045, 795.562 323.581, 792.806 326.337 C 790.788 328.355, 782.139 333, 780.400 333 C 778.776 333, 770.500 336.168, 765.500 338.703 C 762.047 340.454, 756 346.644, 756 348.427 C 756 349.091, 754.650 352.274, 753 355.500 C 751.350 358.726, 750 362.084, 750 362.961 C 750 363.837, 749.390 365.443, 748.646 366.527 C 746.619 369.479, 746.022 373.122, 745.045 388.500 C 744.332 399.722, 744.460 404.186, 745.689 411 C 746.532 415.675, 747.622 420.281, 748.111 421.236 C 748.600 422.191, 749 426.595, 749 431.022 C 749 436.747, 749.466 439.782, 750.615 441.535 C 752.742 444.781, 753.331 444.658, 755.570 440.500 C 756.607 438.575, 757.802 437, 758.227 437 C 759.173 437, 761.334 434.793, 766.280 428.774 C 770.102 424.125, 770.558 423.878, 792.500 414.612 C 795.250 413.450, 798.885 411.512, 800.578 410.304 C 804.128 407.772, 809.063 405.876, 821 402.458 C 831.279 399.516, 835.148 399.431, 840.859 402.022 C 843.257 403.110, 846.208 404, 847.418 404 C 848.628 404, 850.491 404.661, 851.559 405.468 C 852.626 406.276, 854.288 406.951, 855.250 406.968 C 856.212 406.986, 857 407.675, 857 408.500 C 857 409.325, 857.675 410, 858.500 410 C 859.325 410, 860 409.394, 860 408.653 C 860 406.805, 866.749 400, 868.583 400 C 870.283 400, 875.154 397.090, 876.203 395.447 C 876.589 394.842, 878.727 393.525, 880.953 392.521 C 883.179 391.518, 885 390.381, 885 389.996 C 885 389.611, 888.263 387.814, 892.250 386.002 C 896.237 384.190, 901.285 381.867, 903.467 380.840 C 909.340 378.074, 923.328 375, 930.039 375 C 935.797 375, 947 377.720, 947 379.118 C 947 379.506, 948.913 380.140, 951.250 380.526 C 953.587 380.913, 958.772 382.752, 962.772 384.614 C 966.771 386.476, 970.631 388, 971.348 388 C 972.065 388, 973.708 389.125, 975 390.500 C 976.292 391.875, 977.771 393, 978.286 393 C 978.802 393, 981.536 395.549, 984.362 398.664 C 987.188 401.780, 990.517 405.450, 991.760 406.821 C 993.003 408.192, 994.128 409.130, 994.260 408.907 C 994.392 408.683, 994.994 407.600, 995.597 406.500 C 997.158 403.654, 1004.917 402.263, 1010.336 403.858 C 1012.626 404.533, 1020.720 406.391, 1028.322 407.988 C 1035.924 409.586, 1043.574 411.326, 1045.322 411.857 C 1047.070 412.387, 1050.525 413.105, 1053 413.453 C 1055.475 413.801, 1062 415.160, 1067.500 416.473 C 1073 417.786, 1081.535 419.634, 1086.466 420.580 C 1092.898 421.815, 1096.891 423.234, 1100.595 425.604 C 1103.435 427.421, 1106.038 428.628, 1106.380 428.287 C 1106.721 427.946, 1107 425.023, 1107 421.792 C 1107 416.119, 1105.110 408.513, 1100.838 397 C 1099.716 393.975, 1098.130 389.085, 1097.314 386.134 C 1095.766 380.533, 1092.559 376.592, 1087.449 374.009 C 1084.400 372.468, 1079.198 368.993, 1068 361.016 C 1064.425 358.469, 1059.700 355.604, 1057.500 354.649 C 1054.108 353.177, 1053.023 351.892, 1050.362 346.196 C 1047.365 339.781, 1047.248 339.060, 1047.756 330.138 C 1048.451 317.961, 1047.025 316.735, 1037.883 321.651" stroke="#f9c6c6" fill="#f9c6c6" fill-opacity="0.2" fill-rule="evenodd"/><path class="svg-region-LBl" d="M 819 402.915 C 807.232 406.375, 804.310 407.549, 800.504 410.345 C 798.852 411.559, 793.675 414.081, 789 415.949 C 776.882 420.791, 768 425.016, 768 425.937 C 768 426.373, 766.657 428.252, 765.016 430.114 C 763.375 431.977, 762.025 433.847, 762.016 434.271 C 762.007 434.696, 760.907 435.541, 759.571 436.150 C 758.235 436.758, 756.130 439.163, 754.894 441.494 C 752.359 446.272, 752.722 448.016, 757.973 456.296 C 760.443 460.191, 761.295 460.744, 766.607 461.896 C 776.329 464.006, 782.729 467.364, 784.632 471.355 C 785.934 474.086, 787.064 474.974, 789.895 475.493 C 794.346 476.310, 810.177 483.218, 815.244 486.555 C 817.303 487.911, 820.121 490.816, 821.506 493.010 C 824.177 497.240, 825.990 498.141, 826.015 495.250 C 826.023 494.288, 826.665 492.375, 827.442 491 C 830.667 485.291, 831.991 482.143, 833.971 475.477 C 835.180 471.405, 837.621 466.363, 839.778 463.477 C 846.558 454.410, 848.369 449.050, 849.800 433.819 C 850.360 427.857, 851.028 425.600, 852.784 423.729 C 856.696 419.566, 858.796 407, 855.581 407 C 854.801 407, 852.888 406.380, 851.331 405.622 C 845.978 403.015, 835.495 400, 832 400.061 C 830.075 400.094, 824.225 401.379, 819 402.915 M 807.607 503.582 C 804.557 511.530, 813.580 524.436, 819.844 521.084 C 820.957 520.488, 823.260 520, 824.960 520 L 828.051 520 826.526 517.050 C 825.687 515.427, 825 512.747, 825 511.095 C 825 508.409, 824.602 508.019, 821.250 507.419 C 819.188 507.049, 816.825 506.241, 816 505.623 C 813.643 503.858, 810.115 502, 809.121 502 C 808.622 502, 807.941 502.712, 807.607 503.582" stroke="#d7b230" fill="#d7b230" fill-opacity="0.2" fill-rule="evenodd"/><path class="svg-region-LBr" d="M 999.500 403.724 C 998.400 403.994, 996.938 404.672, 996.250 405.230 C 994.766 406.435, 994.560 412, 996 412 C 996.550 412, 997 413.098, 997 414.441 C 997 415.784, 997.422 417.142, 997.937 417.461 C 1000.787 419.222, 1002.982 427.520, 1001.136 429.550 C 1000.661 430.072, 999.745 432.673, 999.102 435.329 C 997.984 439.940, 998.043 440.246, 1000.407 442.105 C 1001.768 443.176, 1003.156 444.917, 1003.492 445.975 C 1003.828 447.032, 1005.092 448.196, 1006.301 448.561 C 1009.735 449.597, 1014 454.129, 1014 456.741 C 1014 458.043, 1015.356 460.547, 1017.014 462.304 C 1018.672 464.062, 1020.985 467.525, 1022.155 470 C 1025.063 476.153, 1032.386 488.933, 1033 488.928 C 1033.275 488.926, 1035.075 486.888, 1037 484.399 C 1041.537 478.532, 1047.898 473.885, 1056 470.517 C 1059.575 469.032, 1064.634 466.034, 1067.242 463.855 C 1069.850 461.677, 1074.039 458.986, 1076.551 457.874 C 1079.063 456.763, 1081.365 455.212, 1081.666 454.427 C 1082.554 452.113, 1083.843 452.790, 1084.184 455.750 C 1084.443 458.001, 1085.044 458.544, 1087.500 458.744 C 1089.279 458.889, 1091.399 458.227, 1092.709 457.117 C 1094.652 455.471, 1094.782 454.884, 1093.789 452.252 C 1092.114 447.814, 1095.967 438.040, 1101.136 433.615 C 1103.261 431.796, 1105 429.856, 1105 429.304 C 1105 426.931, 1095.162 422.292, 1086.459 420.561 C 1081.532 419.581, 1072.775 417.657, 1067 416.285 C 1061.225 414.912, 1054.250 413.407, 1051.500 412.938 C 1048.750 412.470, 1043.575 411.374, 1040 410.503 C 1036.425 409.631, 1029.225 408.092, 1024 407.082 C 1018.775 406.072, 1013.233 404.741, 1011.685 404.123 C 1008.855 402.994, 1003.219 402.809, 999.500 403.724 M 1051.204 489.254 C 1050.551 490.041, 1050.292 490.958, 1050.627 491.293 C 1050.962 491.628, 1049.945 492.187, 1048.368 492.535 C 1046.791 492.883, 1045.002 493.316, 1044.393 493.497 C 1043.784 493.679, 1042.411 495.513, 1041.342 497.572 C 1040.273 499.632, 1037.879 502.132, 1036.022 503.128 C 1031.867 505.356, 1029.157 510.739, 1031.699 511.715 C 1032.600 512.060, 1034.648 511.591, 1036.249 510.672 C 1037.851 509.752, 1039.933 509, 1040.876 509 C 1042.653 509, 1048.255 502.256, 1051.869 495.766 C 1053.282 493.228, 1053.698 491.359, 1053.169 489.928 C 1052.511 488.148, 1052.208 488.044, 1051.204 489.254" stroke="#d7b230" fill="#d7b230" fill-opacity="0.2" fill-rule="evenodd"/><path class="svg-region-PP" d="M 993.135 442.520 C 991.285 443.334, 988.979 444, 988.011 444 C 985.274 444, 967.792 451.975, 965 454.498 C 963.625 455.740, 960.208 457.289, 957.408 457.940 C 954.607 458.591, 951.007 459.841, 949.408 460.717 C 947.344 461.847, 942.814 462.443, 933.800 462.771 L 921.100 463.233 918.300 460.241 C 915.224 456.953, 906.571 454.293, 902.716 455.449 C 894.165 458.016, 874.477 458.892, 869.330 456.935 C 868.046 456.447, 864.949 454.002, 862.449 451.502 L 857.904 446.957 852.761 448.228 C 847.999 449.406, 847.429 449.879, 845.059 454.616 C 843.652 457.430, 841.178 461.449, 839.562 463.546 C 837.946 465.643, 835.331 471.208, 833.750 475.911 C 832.170 480.615, 829.951 485.962, 828.819 487.792 C 825.986 492.377, 824.868 497.816, 826.291 500.094 C 827.150 501.470, 827.131 502.748, 826.215 505.281 C 825.547 507.129, 825 509.870, 825 511.371 C 825 514.342, 827.546 520, 828.883 520 C 830.051 520, 840.530 541.361, 842.618 548 C 843.570 551.025, 845.395 555.179, 846.674 557.230 C 847.953 559.282, 849.014 561.982, 849.032 563.230 C 849.049 564.479, 849.744 566.400, 850.576 567.500 C 851.600 568.853, 851.896 570.646, 851.492 573.041 C 850.853 576.830, 852.190 578.522, 861.068 585.157 C 863.024 586.619, 865.721 589.994, 867.062 592.657 C 869.753 598.002, 876.438 605.466, 877.787 604.632 C 878.260 604.339, 879.248 602.278, 879.983 600.050 C 881.306 596.044, 881.374 596, 886.256 596 C 888.970 596, 892.386 596.620, 893.846 597.378 C 895.306 598.135, 897.850 599.158, 899.500 599.651 C 902.214 600.462, 902.562 601.052, 903.149 605.843 C 903.570 609.276, 904.887 612.787, 906.893 615.820 C 908.594 618.394, 910.923 622.439, 912.066 624.809 C 913.210 627.180, 914.714 629.337, 915.408 629.603 C 916.102 629.869, 919.083 628.463, 922.032 626.479 C 925.764 623.967, 928.018 623.065, 929.447 623.513 C 930.576 623.867, 932.943 624.250, 934.706 624.363 C 936.470 624.476, 938.945 625.510, 940.206 626.660 C 943.829 629.964, 949.674 632.299, 952.528 631.582 C 956.148 630.674, 957 627.445, 957 614.643 L 957 603.416 961.250 599.377 C 966.169 594.701, 976.539 589.805, 979.746 590.644 C 981.079 590.992, 982.346 592.519, 983.035 594.605 C 983.651 596.472, 984.460 598, 984.833 598 C 985.564 598, 987.508 592.809, 989.063 586.707 C 989.595 584.620, 991.148 581.142, 992.515 578.977 C 993.882 576.811, 995 574.758, 995 574.414 C 995 572.675, 1001.409 565.993, 1002.850 566.229 C 1004.112 566.436, 1004.575 565.560, 1004.820 562.500 C 1004.996 560.300, 1005.896 557.600, 1006.820 556.500 C 1009.734 553.030, 1011.159 549.890, 1013.131 542.591 C 1014.185 538.691, 1015.457 534.600, 1015.959 533.500 C 1016.460 532.400, 1017.822 529.256, 1018.984 526.512 C 1020.147 523.769, 1021.946 520.619, 1022.982 519.512 C 1024.019 518.406, 1025.336 516.263, 1025.909 514.750 C 1026.482 513.237, 1027.582 512, 1028.354 512 C 1030.643 512, 1032.111 506.834, 1032.441 497.619 C 1032.740 489.246, 1032.638 488.783, 1029.251 483.234 C 1027.326 480.080, 1024.659 475.073, 1023.324 472.106 C 1021.990 469.139, 1019.346 464.818, 1017.449 462.503 C 1015.552 460.188, 1014 457.412, 1014 456.334 C 1014 454.146, 1009.576 449.571, 1006.500 448.580 C 1005.400 448.225, 1003.593 446.487, 1002.484 444.718 C 1000.151 440.993, 997.841 440.450, 993.135 442.520" stroke="#c4743d" fill="#c4743d" fill-opacity="0.2" fill-rule="evenodd"/><path class="svg-region-DMl" d="M 683.541 442.934 C 683.179 443.520, 681.754 444, 680.375 444 C 675.227 444, 670.071 448.479, 670.012 453 C 669.994 454.375, 672.626 460.900, 675.860 467.500 C 679.093 474.100, 683.920 484.411, 686.584 490.414 C 689.249 496.416, 693.245 503.978, 695.465 507.218 C 697.684 510.457, 700.175 514.195, 701 515.524 C 706.163 523.839, 735.666 552.658, 745.589 559.080 C 748.840 561.184, 752.080 563.410, 752.788 564.027 C 755.949 566.782, 766.837 574.800, 770.187 576.840 C 775.129 579.849, 780.365 586.775, 787.819 600.163 C 790.165 604.377, 792.701 608.337, 793.453 608.961 C 795.562 610.711, 801.579 604.980, 802.301 600.533 C 802.613 598.612, 804.023 595.526, 805.434 593.676 C 806.845 591.825, 808 589.627, 808 588.790 C 808 586.635, 811.563 582.377, 814.775 580.694 C 816.274 579.908, 820.992 577.406, 825.259 575.133 C 830.623 572.275, 834.250 571, 837.009 571 C 839.204 571, 841 570.573, 841 570.051 C 841 569.529, 839.313 567.876, 837.250 566.378 C 830.374 561.384, 821.952 551.655, 818.940 545.225 C 816.039 539.034, 815.208 532.559, 816.630 527.250 C 817.524 523.916, 822.013 524.275, 826 528 C 827.766 529.650, 829.512 531, 829.878 531 C 830.245 531, 831.371 532.534, 832.381 534.409 C 833.391 536.284, 835.802 539.321, 837.740 541.159 L 841.264 544.500 840.553 541.510 C 840.161 539.866, 839.540 538.291, 839.171 538.010 C 838.802 537.730, 836.956 534.350, 835.069 530.500 C 833.182 526.650, 830.975 522.712, 830.164 521.750 C 828.463 519.731, 821.079 519.321, 819.256 521.144 C 817.493 522.907, 812.416 520.370, 810.205 516.623 C 808.462 513.668, 808.025 513.484, 803.614 513.834 C 797.937 514.286, 795.834 512.751, 793.401 506.380 C 791.960 502.605, 791.177 501.855, 787.705 500.921 C 782.065 499.402, 779 497.154, 779 494.537 C 779 492.890, 777.924 491.819, 774.900 490.455 C 768.493 487.566, 767.147 481.784, 771.747 476.910 C 775.529 472.903, 776.688 473.224, 776.586 478.250 C 776.512 481.927, 776.803 482.543, 778.750 482.820 C 780.667 483.092, 781 482.682, 781 480.045 C 781 477.664, 781.577 476.731, 783.500 476 C 784.875 475.477, 786 474.791, 786 474.475 C 786 472.210, 782.324 467.696, 779.169 466.086 C 775.774 464.354, 764.644 461, 762.292 461 C 761.785 461, 761.570 463.728, 761.812 467.074 C 762.059 470.493, 761.806 473.594, 761.232 474.168 C 759.737 475.663, 752.346 468.617, 749.484 462.969 C 746.622 457.321, 744.180 455.617, 735.877 453.476 C 732.370 452.571, 728.766 451.173, 727.868 450.368 C 726.971 449.563, 724.496 448.431, 722.368 447.853 C 720.241 447.274, 717.825 446.212, 717 445.491 C 714.543 443.346, 684.696 441.065, 683.541 442.934 M 744.992 517.783 L 740.697 521.671 743.037 524.836 C 744.323 526.576, 745.735 528, 746.175 528 C 746.614 528, 748.776 526.763, 750.979 525.250 C 757.168 521.002, 757.617 514.901, 751.793 514.197 C 750.024 513.984, 748.025 515.037, 744.992 517.783 M 847.070 559.691 C 847.109 560.136, 847.527 561.400, 848 562.500 C 848.829 564.428, 848.862 564.421, 848.930 562.309 C 848.968 561.104, 848.550 559.840, 848 559.500 C 847.450 559.160, 847.032 559.246, 847.070 559.691" stroke="#68533d" fill="#68533d" fill-opacity="0.2" fill-rule="evenodd"/><path class="svg-region-DMr" d="M 1158.781 420.552 C 1158.413 420.920, 1155.072 421.858, 1151.356 422.637 C 1147.639 423.416, 1142.607 425.166, 1140.173 426.527 C 1137.739 427.887, 1135.347 429, 1134.857 429 C 1132.479 429, 1116.005 439.368, 1112.328 443.177 C 1096.003 460.094, 1096.528 459.637, 1096.184 457.250 C 1095.789 454.503, 1094.844 454.410, 1092.594 456.896 C 1091.271 458.358, 1091.179 458.896, 1092.189 459.244 C 1093.975 459.859, 1089.216 469.639, 1084.660 474.717 C 1082.793 476.798, 1080.954 479.501, 1080.574 480.724 C 1079.735 483.419, 1075.815 486.296, 1070.734 487.944 C 1068.663 488.616, 1066.188 490.309, 1065.234 491.706 C 1062.530 495.667, 1054.822 504, 1053.863 504 C 1052.511 504, 1052.850 498.676, 1054.500 494 C 1056.340 488.784, 1056.345 489, 1054.393 489 C 1053.368 489, 1052.997 489.549, 1053.367 490.515 C 1054.487 493.434, 1043.863 509, 1040.751 509 C 1039.749 509, 1037.820 509.727, 1036.463 510.616 C 1035.106 511.505, 1033.097 511.997, 1031.998 511.710 C 1029.905 511.162, 1029.126 513.342, 1031 514.500 C 1031.550 514.840, 1032 517.518, 1032 520.452 C 1032 526.545, 1032.550 527, 1039.915 527 C 1042.528 527, 1044.938 527.271, 1045.269 527.603 C 1046.528 528.861, 1043.700 533.692, 1038.765 538.713 C 1033.431 544.140, 1033.433 544.153, 1039.479 545.493 C 1041.287 545.894, 1044.537 548.382, 1047.750 551.826 C 1050.662 554.947, 1055.905 560.425, 1059.402 564 C 1062.899 567.575, 1066.431 571.850, 1067.250 573.500 C 1068.798 576.616, 1070.490 585.269, 1070.118 588.161 C 1069.744 591.066, 1071.778 591.122, 1073.770 588.262 C 1074.828 586.743, 1076.904 583.025, 1078.382 580 C 1079.861 576.975, 1081.920 572.925, 1082.958 571 C 1084.936 567.333, 1092.893 559.614, 1102.547 552 C 1115.967 541.415, 1135.023 522.546, 1138.673 516.228 C 1140.175 513.628, 1142.634 509.925, 1144.138 508 C 1145.641 506.075, 1148.531 501.350, 1150.559 497.500 C 1152.587 493.650, 1155.316 489.228, 1156.623 487.673 C 1157.931 486.119, 1159 484.463, 1159 483.995 C 1159 483.526, 1159.583 482.548, 1160.296 481.821 C 1163.817 478.233, 1172.234 463.915, 1173.419 459.500 C 1175.536 451.608, 1177.133 442.117, 1177.666 434.252 C 1178.142 427.242, 1178.059 426.906, 1175.156 424.002 C 1172.752 421.598, 1171.292 420.997, 1167.827 420.986 C 1165.447 420.979, 1162.589 420.728, 1161.475 420.428 C 1160.361 420.129, 1159.148 420.185, 1158.781 420.552 M 1100.750 501.572 C 1096.274 505.814, 1096.063 507, 1099.784 507 C 1101.828 507, 1103.048 507.812, 1104.371 510.051 C 1105.761 512.405, 1106.476 512.850, 1107.499 512.001 C 1108.734 510.976, 1111.664 501.129, 1110.863 500.696 C 1110.663 500.588, 1109.494 499.938, 1108.264 499.250 C 1105.160 497.515, 1104.967 497.575, 1100.750 501.572" stroke="#68533d" fill="#68533d" fill-opacity="0.2" fill-rule="evenodd"/><path class="svg-region-VMl" d="M 831 571.799 C 831 572.239, 829.383 573.183, 827.406 573.898 C 818.149 577.245, 808 585.034, 808 588.790 C 808 589.627, 806.845 591.825, 805.434 593.676 C 804.023 595.526, 802.611 598.624, 802.297 600.560 C 801.901 602.996, 800.536 605.097, 797.863 607.385 C 795.738 609.204, 794 611.377, 794 612.214 C 794 613.050, 795.913 616.636, 798.250 620.180 C 803.904 628.756, 805.999 632.530, 806.005 634.154 C 806.008 634.894, 807.082 636.840, 808.393 638.478 L 810.776 641.456 818.576 639.514 C 827.483 637.296, 836.737 636.956, 837.879 638.804 C 838.298 639.482, 840.160 640.472, 842.016 641.005 C 846.057 642.163, 849.444 640.400, 851.250 636.197 C 851.887 634.714, 853.153 632.754, 854.063 631.843 C 854.973 630.931, 856.022 628.006, 856.393 625.343 C 857.131 620.055, 858.559 617.921, 864.250 613.606 C 868.612 610.299, 869.016 608.293, 865.500 607.411 C 863.264 606.849, 863 606.272, 863 601.939 C 863 593.688, 859.934 590, 853.075 590 C 849.631 590, 848.747 589.002, 846.162 582.190 C 844.568 577.990, 844.422 576.775, 845.463 576.376 C 846.415 576.010, 846.106 575.197, 844.344 573.435 C 842.359 571.450, 840.901 571, 836.455 571 C 833.455 571, 831 571.360, 831 571.799" stroke="#e59376" fill="#e59376" fill-opacity="0.2" fill-rule="evenodd"/><path class="svg-region-VMr" d="M 1029.339 549.227 C 1026.678 551.964, 1022.700 555.353, 1020.500 556.759 C 1018.300 558.164, 1015.726 560.256, 1014.780 561.407 C 1011.236 565.720, 1009.593 567, 1007.575 567.018 C 1006.200 567.030, 1004.404 568.711, 1002.250 572.006 C 1000.462 574.740, 999 577.454, 999 578.037 C 999 578.620, 998.100 580.959, 997 583.236 C 995.900 585.513, 995 588.116, 995 589.021 C 995 589.926, 994.678 590.988, 994.285 591.382 C 993.340 592.327, 991.100 600.890, 991.044 603.772 C 990.987 606.709, 998.460 614.855, 1001.893 615.598 C 1006.039 616.496, 1010 618.174, 1010 619.032 C 1010 619.466, 1012.099 620.838, 1014.665 622.080 C 1018.534 623.953, 1021.503 624.417, 1032.050 624.798 C 1043.889 625.225, 1045.050 625.100, 1048.813 622.985 C 1051.040 621.733, 1053.107 619.709, 1053.416 618.477 C 1053.725 617.247, 1055.970 614.025, 1058.405 611.316 C 1064.609 604.416, 1069.731 595.288, 1070.085 590.500 C 1070.464 585.369, 1069.146 577.341, 1067.293 573.500 C 1066.497 571.850, 1062.843 567.504, 1059.173 563.843 C 1055.503 560.182, 1050.933 555.286, 1049.017 552.964 C 1044.844 547.904, 1042.192 546.058, 1037.611 545.025 C 1034.404 544.302, 1033.859 544.578, 1029.339 549.227" stroke="#e59376" fill="#e59376" fill-opacity="0.2" fill-rule="evenodd"/><path class="svg-region-Ol" d="M 457 359 C 456.175 359.533, 453.842 359.976, 451.816 359.985 C 449.790 359.993, 442.815 360.898, 436.316 361.995 C 429.817 363.092, 422.960 363.992, 421.079 363.995 C 419.197 363.998, 416.853 364.728, 415.870 365.617 C 414.887 366.507, 410.802 368.667, 406.792 370.417 C 402.781 372.167, 397.250 375.270, 394.500 377.312 C 391.750 379.355, 389.050 381.361, 388.500 381.770 C 381.175 387.222, 373.817 393.632, 371 397.013 C 366.084 402.916, 356.940 413.307, 355.612 414.500 C 353.718 416.203, 345 427.787, 345 428.601 C 345 429.025, 344.164 430.300, 343.142 431.436 C 341.530 433.226, 340.204 435.581, 334.663 446.500 C 334.105 447.600, 332.161 451.425, 330.343 455 C 328.525 458.575, 327.026 462.175, 327.013 463 C 326.999 463.825, 326.281 465.850, 325.416 467.500 C 324.552 469.150, 322.502 474.100, 320.862 478.500 C 317.530 487.434, 314.225 495.613, 312.886 498.236 C 312.399 499.191, 312 500.461, 312 501.058 C 312 501.655, 311.325 502.818, 310.500 503.643 C 309.675 504.468, 309 505.945, 309 506.925 C 309 507.906, 307.792 510.011, 306.315 511.604 C 304.839 513.197, 302.333 516.968, 300.746 519.984 C 299.159 523, 297.493 525.700, 297.043 525.984 C 296.197 526.518, 292.286 535.419, 289.242 543.740 C 287.760 547.790, 287.511 552.035, 287.574 572.185 C 287.630 590.001, 287.968 596.257, 288.942 597.430 C 289.653 598.287, 290.009 600.173, 289.732 601.621 C 289.185 604.483, 291.403 616.523, 292.816 618.363 C 293.729 619.552, 295.492 626.022, 296.531 632 C 297.238 636.067, 300.655 647.150, 302.543 651.500 C 303.259 653.150, 305.490 658.325, 307.500 663 C 309.511 667.675, 311.953 672.400, 312.929 673.500 C 313.904 674.600, 315.024 676.175, 315.417 677 C 318.507 683.483, 330.658 701, 332.065 701 C 332.451 701, 332.977 701.804, 333.234 702.786 C 333.491 703.768, 338.831 708.455, 345.100 713.201 C 351.370 717.946, 357.400 722.658, 358.500 723.670 C 360.542 725.550, 374.684 731.914, 381 733.795 C 382.925 734.369, 386.750 735.128, 389.500 735.483 C 392.250 735.838, 395.850 736.531, 397.500 737.023 C 409.977 740.746, 447.137 742.492, 476 740.710 C 482.325 740.320, 506.400 739.747, 529.500 739.437 C 552.600 739.127, 575.100 738.650, 579.500 738.376 C 583.900 738.102, 590.875 737.757, 595 737.609 C 599.655 737.442, 603.638 736.712, 605.500 735.684 C 607.150 734.772, 611.862 733.278, 615.971 732.364 C 620.080 731.449, 623.984 730.159, 624.647 729.496 C 625.736 728.407, 632.319 727.361, 643.623 726.481 C 646.035 726.293, 652.225 723.972, 658.539 720.888 C 668.147 716.195, 670.457 714.510, 679.556 705.558 C 688.710 696.551, 690.429 694.264, 695.997 683.673 C 702.791 670.753, 704.465 665.357, 706.134 651 C 707.568 638.659, 707.601 636.884, 706.680 621.762 C 705.789 607.123, 703.075 592.189, 699.159 580.380 C 697.190 574.441, 695.790 568.875, 695.505 565.853 C 695.419 564.948, 694.570 563.427, 693.617 562.474 C 692.664 561.522, 692.113 560.148, 692.391 559.422 C 692.858 558.206, 688.316 544.210, 685.909 539.445 C 685.338 538.314, 684.978 536.964, 685.110 536.445 C 685.241 535.925, 684.769 534.150, 684.061 532.500 C 683.352 530.850, 682.296 528.375, 681.713 527 C 681.131 525.625, 680.752 523.938, 680.871 523.250 C 680.990 522.563, 680.701 522, 680.229 522 C 679.090 522, 676 515.443, 676 513.025 C 676 511.976, 675.525 510.824, 674.943 510.465 C 674.362 510.106, 672.801 507.439, 671.474 504.538 C 668.745 498.571, 666.598 495.763, 650.801 477.500 C 639.982 464.991, 626.440 451.919, 614.956 442.898 C 611.955 440.540, 606.076 435.608, 601.892 431.936 C 597.707 428.265, 590.732 422.630, 586.392 419.414 C 582.051 416.198, 576.859 412.132, 574.854 410.379 C 571.772 407.686, 546.841 390.949, 540.500 387.316 C 539.400 386.686, 533.331 382.889, 527.013 378.878 C 513.647 370.392, 496.481 364.020, 481.500 361.984 C 476.550 361.312, 470.281 360.140, 467.568 359.381 C 461.789 357.763, 459.066 357.665, 457 359" stroke="#aa444d" fill="#aa444d" fill-opacity="0.2" fill-rule="evenodd"/><path class="svg-region-Or" d="M 1374.655 332.614 C 1358.538 334.680, 1338.022 340.238, 1332 344.172 C 1330.625 345.070, 1325.675 346.735, 1321 347.872 C 1315.314 349.255, 1307.185 352.585, 1296.444 357.932 L 1280.387 365.924 1267.422 379.712 C 1252.775 395.289, 1236.290 413.941, 1234.617 416.830 C 1234.002 417.890, 1231.430 421.849, 1228.900 425.628 C 1226.370 429.408, 1223.737 433.567, 1223.050 434.871 C 1222.363 436.174, 1220.674 438.505, 1219.298 440.050 C 1215.953 443.804, 1206 459.165, 1206 460.573 C 1206 461.187, 1205.149 462.461, 1204.108 463.402 C 1203.067 464.344, 1200.595 468.351, 1198.613 472.307 C 1193.939 481.640, 1192.890 491.861, 1195.458 503.045 C 1196.743 508.641, 1197.014 512.744, 1196.544 519.500 C 1195.101 540.261, 1195.074 547.853, 1196.420 554.288 C 1197.176 557.902, 1198.086 561.330, 1198.442 561.906 C 1198.798 562.482, 1199.701 566.736, 1200.450 571.360 C 1201.243 576.263, 1203.148 582.629, 1205.020 586.634 C 1208.784 594.688, 1213.627 607.327, 1218.570 622 C 1221.805 631.601, 1226.096 641.621, 1229.706 648 C 1230.484 649.375, 1232.257 652.874, 1233.646 655.776 C 1238.838 666.627, 1246.573 676, 1250.335 676 C 1251.186 676, 1252.138 676.415, 1252.452 676.922 C 1252.765 677.429, 1256.054 678.851, 1259.761 680.082 C 1263.467 681.313, 1268.075 682.997, 1270 683.824 C 1273.677 685.404, 1275.570 685.849, 1280.500 686.290 C 1282.150 686.438, 1284.076 686.918, 1284.780 687.357 C 1285.484 687.796, 1292.684 688.198, 1300.780 688.249 C 1312.493 688.324, 1316.501 687.984, 1320.399 686.582 C 1323.093 685.613, 1328.268 684.770, 1331.899 684.710 C 1339.382 684.585, 1360.726 685.822, 1363 686.512 C 1369.041 688.345, 1383.351 690.014, 1388.500 689.486 C 1391.800 689.148, 1398.501 689.337, 1403.392 689.907 C 1408.283 690.476, 1412.783 690.618, 1413.392 690.222 C 1414.001 689.826, 1418.325 688.962, 1423 688.304 C 1436.082 686.460, 1450.614 681.735, 1468.752 673.426 C 1471.640 672.103, 1476.815 670.092, 1480.252 668.958 C 1483.688 667.824, 1487.850 666.299, 1489.500 665.569 C 1491.150 664.838, 1495.425 662.975, 1499 661.427 C 1508.697 657.229, 1520.858 650.143, 1526.500 645.403 C 1538.587 635.249, 1547.917 624.601, 1552.265 616 C 1553.238 614.075, 1554.682 611.375, 1555.474 610 C 1558.157 605.344, 1564 592.165, 1564 590.769 C 1564 590.006, 1564.661 588.509, 1565.468 587.441 C 1566.276 586.374, 1566.949 584.825, 1566.965 584 C 1566.990 582.722, 1570.059 574.478, 1573.107 567.500 C 1578.972 554.077, 1580.214 548.522, 1580.709 533.500 C 1581.140 520.421, 1580.925 517.357, 1579.031 509.572 C 1576.531 499.296, 1574.731 495.450, 1567.539 485.025 C 1564.683 480.886, 1561.779 475.475, 1561.086 473 C 1560.392 470.525, 1557.749 464.675, 1555.212 460 C 1552.675 455.325, 1549.782 449.925, 1548.784 448 C 1547.785 446.075, 1545.157 442.025, 1542.943 439 C 1540.730 435.975, 1538.159 432.410, 1537.231 431.077 C 1534.306 426.878, 1529.029 421.192, 1509.853 401.575 C 1499.598 391.084, 1489.436 380.250, 1487.271 377.500 C 1483.358 372.530, 1464.823 353.494, 1457.783 347.216 C 1451.620 341.720, 1433.904 334.516, 1420.566 332.083 C 1412.561 330.622, 1387.979 330.906, 1374.655 332.614" stroke="#aa444d" fill="#aa444d" fill-opacity="0.2" fill-rule="evenodd"/><path class="svg-region-LBPCl" d="M 644.601 362.250 C 642.062 364.525, 637.989 375.019, 638.014 379.218 C 638.039 383.531, 639.189 386, 641.172 386 C 644.183 386, 654.419 393.446, 657.882 398.154 C 659.653 400.563, 661 403.626, 661 405.247 C 661 410.666, 667.081 419.977, 672.448 422.775 C 674.267 423.724, 681.998 427.670, 689.628 431.545 C 697.258 435.420, 705.404 439.808, 707.730 441.295 C 710.057 442.783, 712.814 444, 713.858 444 C 714.901 444, 716.291 444.646, 716.947 445.436 C 717.602 446.225, 719.570 447.181, 721.319 447.560 C 723.069 447.939, 725.643 449.056, 727.039 450.042 C 728.436 451.029, 732.431 452.575, 735.917 453.478 C 744.184 455.621, 746.626 457.329, 749.484 462.969 C 752.044 468.021, 759.489 475.434, 761.040 474.475 C 761.568 474.149, 762 471.409, 762 468.386 C 762 463.747, 761.377 461.857, 758 456.258 C 755.800 452.611, 754 449.313, 754 448.930 C 754 448.548, 751.529 447.026, 748.508 445.548 C 745.487 444.070, 742.407 441.991, 741.663 440.929 C 740.185 438.819, 732.206 436.028, 727.601 436.011 C 724.922 436.001, 722.096 434.846, 707 427.592 C 693.538 421.123, 673.212 403.054, 669.921 394.632 C 669.248 392.909, 667.385 388.589, 665.780 385.032 C 664.176 381.475, 662.611 377.200, 662.304 375.532 C 661.996 373.864, 660.677 371.469, 659.372 370.209 C 658.067 368.949, 656.090 366.136, 654.979 363.959 C 653.322 360.710, 652.435 360, 650.035 360 C 648.414 360, 645.993 361.002, 644.601 362.250 M 772.529 475.908 C 772.196 476.957, 771.266 478.068, 770.462 478.376 C 769.658 478.685, 769 480.047, 769 481.404 C 769 486.003, 770.780 488.758, 774.937 490.592 C 777.874 491.888, 779 492.981, 779 494.537 C 779 495.721, 779.788 497.382, 780.750 498.227 C 782.457 499.726, 783.689 500.191, 789.172 501.407 C 791.163 501.848, 792.151 502.955, 793.045 505.750 C 794.948 511.691, 797.642 514, 802.674 514 L 807 514 807.015 509.250 C 807.037 502.452, 807.816 501.607, 812.323 503.491 C 814.345 504.336, 816 505.413, 816 505.886 C 816 506.358, 817.850 507.040, 820.112 507.402 C 828.115 508.682, 829.147 504.122, 822.920 494.999 C 818.129 487.982, 816.222 486.506, 804.954 481.094 C 789.744 473.790, 781 473.407, 781 480.045 C 781 482.682, 780.667 483.092, 778.750 482.820 C 776.803 482.543, 776.512 481.927, 776.586 478.250 C 776.656 474.819, 776.332 474, 774.904 474 C 773.931 474, 772.862 474.858, 772.529 475.908" stroke="#daffff" fill="#daffff" fill-opacity="0.2" fill-rule="evenodd"/><path class="svg-region-LBPCr" d="M 1175.642 355.901 C 1173.639 359.146, 1172 362.674, 1172 363.741 C 1172 364.808, 1169.724 369.465, 1166.943 374.090 C 1164.162 378.716, 1159.893 386.568, 1157.457 391.541 C 1155.021 396.513, 1151.558 402.005, 1149.762 403.746 C 1144.338 409.003, 1128.658 418.484, 1119.819 421.851 C 1114.269 423.965, 1109.354 426.766, 1105.054 430.264 C 1097.915 436.071, 1095.735 439.187, 1093.842 446.287 C 1092.785 450.251, 1092.800 451.450, 1093.928 453.256 C 1094.677 454.455, 1095.562 456.432, 1095.895 457.648 C 1096.484 459.802, 1096.598 459.769, 1100.260 456.407 C 1102.329 454.508, 1105.292 451.199, 1106.847 449.053 C 1110.068 444.606, 1120.277 435, 1121.781 435 C 1124.883 435, 1131.926 430.421, 1139.463 423.505 C 1144.175 419.181, 1149.800 414.638, 1151.962 413.409 C 1157.420 410.309, 1172.910 394.320, 1173.560 391.114 C 1175.077 383.639, 1176.474 380.430, 1179.856 376.652 C 1181.901 374.369, 1184.838 370.532, 1186.383 368.126 C 1189.088 363.915, 1189.137 363.618, 1187.691 360.126 C 1186.865 358.132, 1185.642 355.038, 1184.973 353.250 C 1183.004 347.986, 1180.001 348.839, 1175.642 355.901 M 1082 453.983 C 1082 454.524, 1079.638 456.152, 1076.750 457.601 C 1073.862 459.051, 1069.700 461.694, 1067.500 463.475 C 1065.300 465.256, 1059.579 468.582, 1054.787 470.867 C 1048.958 473.647, 1044.398 476.697, 1041.013 480.082 C 1033.927 487.168, 1033.033 488.843, 1032.333 496.339 C 1031.823 501.796, 1031.988 503.058, 1033.277 503.553 C 1035.558 504.428, 1039.580 501.405, 1041.489 497.381 C 1043.177 493.824, 1043.478 493.607, 1048.131 492.594 C 1049.620 492.270, 1050.989 491.150, 1051.287 490.011 C 1051.821 487.968, 1054.428 487.265, 1055.434 488.894 C 1055.738 489.385, 1055.314 491.692, 1054.493 494.019 C 1052.849 498.679, 1052.513 504, 1053.863 504 C 1054.605 504, 1058.473 500.007, 1066.098 491.371 C 1067.132 490.200, 1070.418 488.251, 1073.401 487.040 C 1077.619 485.328, 1079.101 484.135, 1080.070 481.670 C 1080.755 479.926, 1082.541 477.150, 1084.039 475.500 C 1087.630 471.546, 1091.759 464.808, 1092.569 461.583 C 1093.187 459.118, 1093.028 459, 1089.083 459 C 1085.291 459, 1084.901 458.753, 1084.350 456 C 1083.799 453.245, 1082 451.701, 1082 453.983" stroke="#daffff" fill="#daffff" fill-opacity="0.2" fill-rule="evenodd"/><path class="svg-region-BPCl" d="M 816.630 527.250 C 813.997 537.077, 818.178 548.146, 828.278 558.085 C 845.332 574.866, 845.767 575.210, 848.997 574.501 C 852.580 573.714, 852.928 571.276, 850.121 566.618 C 849.088 564.903, 847.689 561.769, 847.012 559.653 C 846.335 557.538, 845.158 554.613, 844.397 553.153 C 843.635 551.694, 843.010 549.922, 843.006 549.215 C 842.998 547.599, 839.960 542.759, 838.297 541.713 C 837.608 541.280, 835.592 538.805, 833.816 536.213 C 832.040 533.621, 829.552 530.678, 828.288 529.673 C 827.024 528.668, 825.349 527.206, 824.566 526.423 C 823.783 525.640, 821.813 525, 820.188 525 C 817.969 525, 817.083 525.560, 816.630 527.250" stroke="#83385f" fill="#83385f" fill-opacity="0.2" fill-rule="evenodd"/><path class="svg-region-BPCr" d="M 1023.195 518.750 C 1018.403 526.767, 1014.734 535.458, 1012.983 542.939 C 1011.749 548.211, 1009.125 553.760, 1006.262 557.152 C 1005.441 558.124, 1004.998 560.387, 1005.184 562.652 C 1005.428 565.629, 1005.960 566.566, 1007.532 566.791 C 1008.649 566.951, 1010.327 566.276, 1011.259 565.291 C 1012.191 564.306, 1014.108 562.265, 1015.518 560.755 C 1016.928 559.244, 1019.315 557.371, 1020.823 556.591 C 1024.346 554.770, 1043.655 534.038, 1044.914 530.725 C 1046.167 527.431, 1045.589 527, 1039.915 527 C 1032.571 527, 1032 526.534, 1032 520.548 C 1032 516.743, 1031.500 514.857, 1030.171 513.655 C 1029.165 512.745, 1028.092 512, 1027.786 512 C 1027.480 512, 1025.414 515.038, 1023.195 518.750" stroke="#83385f" fill="#83385f" fill-opacity="0.2" fill-rule="evenodd"/><path class="svg-region-AMC" d="M 999.382 567.354 C 998.243 568.657, 993.416 577.083, 990.705 582.500 C 989.879 584.150, 988.392 588.200, 987.399 591.500 C 986.406 594.800, 985.172 598.216, 984.656 599.091 C 983.461 601.116, 984.616 607.436, 986.460 608.966 C 988.209 610.418, 990.440 607.262, 991.384 602 C 992.332 596.716, 995.030 587.995, 997.129 583.434 C 998.158 581.198, 999 578.804, 999 578.114 C 999 577.425, 1000.326 574.933, 1001.947 572.577 C 1004.163 569.356, 1004.610 568.010, 1003.747 567.147 C 1002.275 565.675, 1000.789 565.745, 999.382 567.354 M 846.668 575.666 C 843.861 577.137, 843.460 577.986, 844.835 579.550 C 845.294 580.072, 846.456 582.638, 847.417 585.250 C 849.030 589.631, 849.427 590, 852.536 590 C 859.957 590, 863 593.472, 863 601.939 C 863 606.237, 863.274 606.852, 865.433 607.394 C 866.772 607.730, 868.167 608.952, 868.535 610.109 C 869.499 613.149, 872.185 616, 874.085 616 C 875.332 616, 875.883 614.651, 876.388 610.359 C 877.032 604.873, 876.953 604.620, 873.529 601.195 C 871.591 599.258, 868.677 595.318, 867.053 592.440 C 865.429 589.562, 862.615 586.165, 860.800 584.892 C 858.985 583.618, 855.663 580.707, 853.418 578.422 C 849.516 574.452, 849.218 574.330, 846.668 575.666" stroke="#9d4741" fill="#9d4741" fill-opacity="0.2" fill-rule="evenodd"/><path class="svg-region-ODMl" d="M 744.972 517.801 L 740.656 521.708 742.896 524.854 C 745.296 528.225, 747.067 528.755, 749.179 526.737 C 749.905 526.042, 751.763 524.665, 753.307 523.677 C 755.679 522.158, 756.066 521.308, 755.807 518.190 C 755.531 514.872, 755.186 514.469, 752.394 514.197 C 749.951 513.959, 748.366 514.729, 744.972 517.801" stroke="#999999" fill="#999999" fill-opacity="0.2" fill-rule="evenodd"/><path class="svg-region-ODMr" d="M 1100.532 501.501 C 1096.443 506.058, 1096.323 507, 1099.833 507 C 1102.204 507, 1103.111 507.629, 1104.161 510.002 C 1104.892 511.653, 1105.942 512.857, 1106.495 512.678 C 1107.893 512.225, 1109.710 508.206, 1110.531 503.750 C 1111.097 500.682, 1110.929 500, 1109.611 500 C 1108.725 500, 1108 499.550, 1108 499 C 1108 496.817, 1103.332 498.380, 1100.532 501.501" stroke="#999999" fill="#999999" fill-opacity="0.2" fill-rule="evenodd"/>
    </svg>