<svg xmlns="http://www.w3.org/2000/svg" width="1921" height="1027" viewBox="0 0 1921 1027" version="1.1">
    <path class="svg-region-V" d="M 749 196.141 C 747.075 196.669, 744.753 197.979, 743.840 199.051 C 742.927 200.123, 741.846 201, 741.439 201 C 741.032 201, 738.404 202.055, 735.600 203.345 C 725.782 207.860, 718.462 210.817, 714 212.070 C 707.579 213.874, 703.776 216.374, 701.654 220.184 C 700.639 222.008, 697.138 225.750, 693.873 228.500 C 686.835 234.429, 681.154 242.407, 678.563 250 C 677.531 253.025, 674.852 259.100, 672.609 263.500 C 668.538 271.489, 668.533 271.514, 668.748 282 C 668.909 289.811, 669.505 293.951, 671.073 298.166 C 674.188 306.537, 676.008 306.981, 702.500 305.829 L 712.500 305.395 717 309.143 C 723.531 314.583, 730.259 317.244, 738.896 317.803 C 743.987 318.133, 746.087 317.949, 745.633 317.215 C 745.221 316.549, 747.133 315.707, 750.737 314.969 C 753.907 314.319, 757.805 313.386, 759.399 312.894 C 760.994 312.402, 765.522 312, 769.461 312 C 774.933 312, 779.291 311.149, 787.917 308.395 C 798.667 304.962, 799.538 304.838, 806.076 305.809 C 810.190 306.419, 816.462 308.448, 821.721 310.869 C 827.224 313.401, 833.299 315.337, 838 316.054 C 842.125 316.684, 846.210 317.830, 847.079 318.600 C 847.947 319.370, 849.185 320, 849.829 320 C 850.473 320, 851 320.437, 851 320.972 C 851 321.507, 853.434 322.652, 856.408 323.516 C 860.972 324.843, 866.322 325.009, 890.658 324.581 C 906.521 324.301, 921.300 324.043, 923.500 324.007 C 933.283 323.846, 958.762 325.737, 961.315 326.813 C 962.863 327.466, 967.223 328, 971.003 328 C 974.783 328, 980.941 328.720, 984.688 329.601 C 990.530 330.974, 995.772 331.101, 1021.500 330.494 C 1055.905 329.683, 1061.122 328.697, 1072.851 320.784 C 1086.484 311.588, 1091.923 309, 1097.614 309 C 1100.535 309, 1105.304 308.126, 1108.212 307.059 C 1111.121 305.991, 1115.179 304.817, 1117.232 304.451 C 1121.108 303.759, 1129.055 297.613, 1131.202 293.648 C 1132.741 290.804, 1133.096 276.491, 1131.876 266.500 C 1130.668 256.614, 1127.611 245.258, 1124.205 238 C 1121.531 232.303, 1109.099 219.128, 1101.825 214.282 C 1099.804 212.935, 1097.905 211.196, 1097.606 210.417 C 1097.307 209.638, 1095.864 209, 1094.399 209 C 1092.935 209, 1090.190 208.044, 1088.300 206.877 C 1083.346 203.815, 1069.563 203.420, 1034.500 205.335 C 1018.550 206.207, 999.023 207.198, 991.107 207.537 C 981.566 207.947, 974.149 208.839, 969.107 210.184 C 964.923 211.300, 959.250 212.788, 956.500 213.491 C 947.567 215.775, 939.621 219.218, 933.628 223.401 C 922.095 231.453, 919.466 232.962, 916.950 232.981 C 913.779 233.005, 912 234.701, 912 237.700 C 912 238.965, 911.550 240, 911 240 C 910.450 240, 910 239.110, 910 238.021 C 910 236.917, 906.932 232.925, 903.057 228.988 C 899.238 225.109, 895.808 220.937, 895.435 219.717 C 894.498 216.662, 893.030 215, 891.268 215 C 890.450 215, 887.418 212.863, 884.530 210.250 C 874.809 201.455, 850.444 194.188, 840.055 196.985 C 835.998 198.078, 830.291 198.173, 799.238 197.671 C 786.831 197.470, 780.595 196.995, 779.788 196.188 C 778.336 194.736, 754.252 194.700, 749 196.141" stroke="#dd8a8a" fill="#dd8a8a" fill-opacity="0.2" fill-rule="evenodd"/><path class="svg-region-SV" d="M 788.500 308.091 C 782.466 310.169, 776.864 311.342, 771.500 311.649 C 767.100 311.902, 761.700 312.511, 759.500 313.003 C 757.300 313.495, 753.138 314.416, 750.250 315.049 C 747.362 315.682, 745 316.599, 745 317.087 C 745 318.316, 752.172 322.831, 760.300 326.720 L 767.100 329.974 807.300 329.871 C 829.410 329.815, 851.100 330.087, 855.500 330.475 C 864.677 331.284, 869 330.179, 869 327.025 C 869 325.353, 868.347 324.999, 865.250 324.994 C 859.801 324.986, 854.459 323.271, 849.688 319.999 C 846.804 318.021, 843.370 316.811, 838.660 316.115 C 834.898 315.559, 828.823 313.688, 825.160 311.957 C 816.434 307.833, 811.158 306.265, 803.656 305.565 C 798.440 305.079, 796.125 305.464, 788.500 308.091" stroke="#c666b5" fill="#c666b5" fill-opacity="0.2" fill-rule="evenodd"/><path class="svg-region-DB" d="M 1129.102 297.750 C 1129.046 298.438, 1128.570 299, 1128.044 299 C 1127.519 299, 1125.479 300.093, 1123.511 301.428 C 1121.544 302.763, 1118.486 304.160, 1116.717 304.533 C 1114.948 304.905, 1110.839 306.092, 1107.587 307.170 C 1104.335 308.249, 1099.782 309.015, 1097.469 308.872 C 1092.814 308.586, 1084.920 312.372, 1073.180 320.520 C 1063.888 326.969, 1053.389 330, 1040.339 330 C 1034.113 330, 1030 330.398, 1030 331 C 1030 331.550, 1030.447 332, 1030.993 332 C 1031.539 332, 1036.412 336.387, 1041.821 341.750 C 1051.786 351.628, 1058.826 357.969, 1059.907 358.038 C 1060.233 358.059, 1063.067 360.422, 1066.206 363.288 C 1069.344 366.155, 1073.619 369.400, 1075.706 370.500 C 1085.163 375.483, 1093 383.124, 1093 387.361 C 1093 388.415, 1094.329 393.603, 1095.952 398.889 C 1097.576 404.175, 1099.403 410.750, 1100.013 413.500 C 1100.622 416.249, 1101.920 419.399, 1102.898 420.500 C 1103.876 421.600, 1105.254 423.962, 1105.959 425.750 C 1106.665 427.538, 1107.509 429, 1107.833 429 C 1108.158 429, 1110.241 427.257, 1112.462 425.126 C 1114.683 422.996, 1118.750 420.447, 1121.500 419.462 C 1124.250 418.477, 1127.650 416.620, 1129.055 415.336 C 1130.460 414.051, 1132.133 413, 1132.774 413 C 1136.480 413, 1142.131 408.433, 1146.149 402.190 C 1148.517 398.510, 1151.027 395.140, 1151.727 394.700 C 1152.427 394.260, 1153 393.310, 1153 392.588 C 1153 391.866, 1154.327 389.605, 1155.949 387.564 C 1160.253 382.149, 1168 367.406, 1168 364.632 C 1168 363.319, 1168.652 361.704, 1169.449 361.042 C 1170.246 360.381, 1171.406 358.301, 1172.026 356.420 C 1173.235 352.756, 1176 351.727, 1176 354.941 C 1176 356.009, 1176.450 357.160, 1177 357.500 C 1178.583 358.478, 1178.165 355.449, 1176.259 352.128 C 1174.936 349.823, 1173.554 348.933, 1170.509 348.422 C 1162.557 347.088, 1153.114 335.085, 1151.546 324.320 C 1150.664 318.261, 1148.612 315, 1145.684 315 C 1142.566 315, 1130.893 303.549, 1129.936 299.552 C 1129.534 297.873, 1129.159 297.063, 1129.102 297.750 M 692.500 306.177 C 690.850 306.650, 686.823 306.916, 683.551 306.768 C 678.462 306.539, 677.450 306.789, 676.551 308.500 C 675.973 309.600, 674.036 312.609, 672.246 315.186 C 669.233 319.525, 669 320.435, 669.105 327.457 C 669.201 333.811, 669.541 335.266, 671.205 336.431 C 672.623 337.424, 672.996 338.437, 672.510 339.969 C 671.570 342.931, 673.735 351.338, 676.088 353.864 C 678.857 356.836, 680.327 361.073, 679.037 362.363 C 678.467 362.933, 678 364.210, 678 365.200 C 678 367.703, 674.452 370.999, 671.750 371.005 C 670.513 371.008, 668.189 372.059, 666.586 373.341 L 663.673 375.673 665.735 377.735 C 666.869 378.869, 668.085 381.080, 668.438 382.648 C 668.790 384.217, 670.631 387.525, 672.528 390 C 674.425 392.475, 678.290 397.875, 681.118 402 C 686.764 410.235, 693.772 418, 695.558 418 C 696.186 418, 698.628 419.462, 700.986 421.250 C 708.643 427.057, 710.446 427.989, 714.027 427.995 C 715.968 427.998, 718.527 428.681, 719.716 429.514 C 720.905 430.346, 726.210 432.771, 731.505 434.902 C 736.801 437.033, 742.145 439.727, 743.381 440.888 C 746.223 443.558, 747.161 443.537, 749.706 440.750 C 751.583 438.695, 751.686 437.850, 750.895 431 C 750.419 426.875, 749.398 422.150, 748.626 420.500 C 746.340 415.613, 744.509 402.274, 744.507 390.500 C 744.505 375.310, 746.333 371.706, 758.051 363.796 C 769.181 356.282, 777.865 349.693, 777.940 348.706 C 778.059 347.141, 786.829 335.050, 789.636 332.582 L 792.500 330.063 779.725 330.032 C 767.063 330, 766.886 329.968, 759.725 326.374 C 755.751 324.380, 751.158 321.800, 749.518 320.641 C 747.407 319.149, 744.253 318.337, 738.723 317.862 C 730.102 317.121, 723.193 314.304, 716.603 308.842 C 712.924 305.793, 712.228 305.605, 704.103 305.465 C 699.372 305.384, 694.150 305.704, 692.500 306.177 M 658.296 389.250 C 655.544 397.335, 655.701 399.657, 659.272 403.706 C 661.247 405.946, 663.608 410.469, 665.036 414.750 C 666.366 418.738, 667.948 422, 668.553 422 C 669.157 422, 670.664 420.922, 671.901 419.605 C 674.060 417.307, 674.091 417.036, 672.652 412.855 C 669.518 403.752, 661.289 386, 660.202 386 C 659.762 386, 658.904 387.462, 658.296 389.250" stroke="#e8b1e4" fill="#e8b1e4" fill-opacity="0.2" fill-rule="evenodd"/><path class="svg-region-MB" d="M 918.500 323.958 C 917.400 324.454, 906.026 324.891, 893.225 324.930 L 869.950 325 869.050 327.369 C 868.499 328.818, 867.079 329.943, 865.397 330.264 C 863.883 330.554, 852.487 330.442, 840.072 330.016 C 827.658 329.589, 811.615 329.524, 804.422 329.870 C 791.645 330.486, 791.272 330.569, 788.172 333.497 C 786.428 335.145, 785 337.057, 785 337.747 C 785 338.436, 784.655 339, 784.234 339 C 783.812 339, 781.991 341.468, 780.187 344.485 C 778.382 347.502, 775.239 351.212, 773.203 352.729 C 771.166 354.247, 769.275 355.771, 769 356.117 C 768.725 356.462, 764.670 359.235, 759.989 362.279 C 745.955 371.406, 744.585 373.863, 744.536 390 C 744.498 402.182, 746.308 415.826, 748.520 420.028 C 749.252 421.418, 750.144 425.468, 750.504 429.028 C 751.382 437.728, 751.670 438.519, 753.434 437.055 C 755.407 435.417, 765.025 432, 767.660 432 C 768.970 432, 770.782 430.716, 772.174 428.802 C 773.453 427.043, 777.892 422.205, 782.038 418.052 C 786.184 413.898, 790.834 408.834, 792.371 406.797 C 794.478 404.005, 796.475 402.713, 800.487 401.547 C 807.217 399.590, 822.076 399.566, 836 401.489 C 854.357 404.025, 853.745 403.827, 854.423 407.443 C 854.754 409.208, 855.630 411.480, 856.370 412.491 C 857.647 414.238, 857.946 414.163, 862.357 410.995 C 867.453 407.336, 867.713 406.837, 865.488 404.990 C 864.337 404.035, 864.247 403.407, 865.110 402.367 C 865.734 401.615, 866.851 401, 867.592 401 C 868.333 401, 871.476 398.639, 874.576 395.753 C 885.012 386.041, 890.636 382.880, 907.729 377.120 C 918.522 373.484, 921.032 373, 929.113 373 C 934.148 373, 940.120 373.486, 942.384 374.079 C 952.661 376.774, 954.686 377.441, 957.500 379.061 C 959.150 380.011, 962.451 381.107, 964.837 381.497 C 970.200 382.373, 986.454 393.018, 992.248 399.450 C 994.268 401.693, 994.996 402.058, 994.998 400.828 C 994.999 399.812, 996.340 398.713, 998.412 398.029 C 1000.288 397.410, 1002.074 396.250, 1002.380 395.452 C 1002.687 394.653, 1003.589 394, 1004.385 394 C 1005.182 394, 1005.984 393.547, 1006.169 392.993 C 1006.354 392.439, 1009.204 391.019, 1012.502 389.836 C 1015.801 388.654, 1021.650 385.580, 1025.500 383.005 C 1032.563 378.281, 1036.013 376.673, 1041.500 375.547 C 1043.150 375.208, 1045.850 374.313, 1047.500 373.558 C 1056.316 369.522, 1059.896 368.500, 1065.218 368.500 C 1068.398 368.500, 1071 368.320, 1071 368.101 C 1071 367.313, 1064.369 361.385, 1057.500 356.034 C 1053.650 353.034, 1045.964 345.996, 1040.419 340.395 L 1030.338 330.210 1011.419 330.744 C 996.047 331.177, 991.151 330.970, 985.303 329.639 C 981.344 328.737, 975.266 328, 971.796 328 C 968.326 328, 963.915 327.486, 961.993 326.858 C 960.072 326.230, 951.750 325.340, 943.500 324.880 C 935.250 324.420, 926.700 323.821, 924.500 323.549 C 922.300 323.278, 919.600 323.462, 918.500 323.958" stroke="#f9c6c6" fill="#f9c6c6" fill-opacity="0.2" fill-rule="evenodd"/><path class="svg-region-LBl" d="M 799.836 401.568 C 796.898 402.513, 794.306 404.219, 792.836 406.177 C 791.551 407.887, 786.900 412.966, 782.500 417.464 C 778.100 421.961, 773.453 427.071, 772.174 428.820 C 770.787 430.716, 768.964 432, 767.660 432 C 763.381 432, 754.560 436.023, 750.809 439.687 C 748.714 441.732, 747 443.730, 747 444.126 C 747 444.522, 748.165 446.231, 749.589 447.923 C 751.369 450.038, 753.072 451, 755.038 451 C 757.106 451, 758.604 451.926, 760.449 454.344 C 761.852 456.184, 763 458.223, 763 458.876 C 763 460.647, 765.575 461.298, 767.822 460.095 C 769.368 459.268, 769.931 459.377, 770.399 460.598 C 770.840 461.747, 771.773 461.989, 773.930 461.515 C 776.226 461.011, 777.088 461.296, 777.910 462.831 C 778.568 464.061, 780.920 465.258, 784.229 466.047 C 792.842 468.100, 797.167 470.426, 803.431 476.371 C 806.692 479.467, 809.677 482, 810.063 482 C 811.544 482, 822.030 495.294, 822.551 497.832 C 822.852 499.299, 823.599 502.190, 824.211 504.255 C 825.707 509.305, 824.626 509.967, 820.735 506.386 C 816.861 502.821, 810.925 500, 807.295 500 C 805.844 500, 803.831 499.252, 802.822 498.339 C 797.717 493.719, 785 488.405, 785 490.892 C 785 491.501, 785.845 492, 786.878 492 C 789.766 492, 796.021 494.890, 796.643 496.512 C 796.948 497.308, 799.966 499.840, 803.349 502.138 C 806.732 504.435, 811.564 508.157, 814.086 510.408 C 816.609 512.658, 819.984 515.151, 821.586 515.948 C 823.189 516.744, 826.458 519.219, 828.851 521.448 L 833.202 525.500 832.351 521 C 831.883 518.525, 831.546 510.616, 831.602 503.425 C 831.700 490.817, 833.181 482.186, 836.214 476.554 C 836.790 475.484, 837.489 471.782, 837.766 468.329 C 838.167 463.326, 838.652 461.928, 840.149 461.453 C 841.183 461.124, 841.771 460.439, 841.457 459.930 C 841.142 459.420, 841.986 457.990, 843.333 456.752 C 844.680 455.513, 846.307 452.475, 846.948 450 C 850.901 434.741, 852.130 430.864, 854.804 425.229 C 857.938 418.624, 857.947 417.966, 855.023 408.392 L 853.768 404.284 844.134 402.536 C 830.842 400.126, 806.009 399.583, 799.836 401.568" stroke="#d7b230" fill="#d7b230" fill-opacity="0.2" fill-rule="evenodd"/><path class="svg-region-LBr" d="M 1057 369.321 C 1055.075 370.066, 1050.800 371.817, 1047.500 373.211 C 1044.200 374.605, 1039.879 376.035, 1037.897 376.390 C 1035.916 376.745, 1030.658 379.484, 1026.214 382.476 C 1021.769 385.468, 1015.795 388.681, 1012.937 389.615 C 1010.079 390.550, 1005.835 392.769, 1003.506 394.547 C 1001.178 396.324, 998.311 398.084, 997.136 398.457 C 995.209 399.068, 995 399.856, 995 406.508 C 995 410.564, 995.389 414.123, 995.865 414.417 C 996.341 414.711, 997.256 417.550, 997.898 420.726 C 998.541 423.902, 999.726 427.374, 1000.533 428.441 C 1002.148 430.579, 1002.549 437, 1001.067 437 C 999.591 437, 998.725 440.964, 999.894 442.372 C 1000.584 443.203, 1000.612 443.988, 999.974 444.626 C 999.337 445.263, 1000.915 447.295, 1004.506 450.461 C 1007.537 453.132, 1011.494 457.609, 1013.299 460.409 C 1016.533 465.425, 1021 475.446, 1021 477.686 C 1021 478.317, 1021.337 478.983, 1021.750 479.167 C 1022.163 479.350, 1023.737 481.811, 1025.250 484.635 C 1028.612 490.914, 1028.875 497.364, 1026 503 C 1023.732 507.445, 1023.398 511.007, 1025.250 510.985 C 1026.875 510.965, 1027.760 510.258, 1032.148 505.476 C 1035.984 501.295, 1038.927 493.156, 1035.606 495.912 C 1032.493 498.496, 1032.743 496.074, 1036.379 488.417 C 1040.787 479.135, 1046.298 472.350, 1053.276 467.614 C 1065.809 459.107, 1067.447 457.806, 1069.589 454.654 C 1071.962 451.162, 1084.184 444, 1087.770 444 C 1091.175 444, 1098.323 439.275, 1102.750 434.099 C 1105.088 431.365, 1107 428.644, 1107 428.051 C 1107 426.780, 1105.097 423.240, 1103.043 420.692 C 1101.777 419.123, 1097.537 405.366, 1093.889 391 C 1091.172 380.298, 1090.339 379.339, 1076.613 371.120 C 1071.739 368.202, 1062.158 367.323, 1057 369.321 M 1046.500 490 C 1044.592 490.820, 1044.603 490.863, 1046.750 490.930 C 1047.987 490.968, 1049 490.550, 1049 490 C 1049 489.450, 1048.888 489.032, 1048.750 489.070 C 1048.612 489.109, 1047.600 489.527, 1046.500 490" stroke="#d7b230" fill="#d7b230" fill-opacity="0.2" fill-rule="evenodd"/><path class="svg-region-PP" d="M 979.619 445.034 C 978.035 445.509, 975.785 446.767, 974.619 447.831 C 971.492 450.687, 967.439 452.477, 958.500 454.954 C 954.100 456.174, 949.022 457.808, 947.216 458.586 C 945.410 459.363, 943.144 460, 942.181 460 C 941.219 460, 937.971 460.849, 934.965 461.887 C 930.443 463.449, 928.023 463.652, 920.942 463.065 C 916.235 462.675, 911.789 461.988, 911.063 461.539 C 910.336 461.090, 905.187 460.312, 899.621 459.812 C 869.310 457.085, 869.624 457.142, 861.350 452.924 C 859.275 451.866, 856.660 450.984, 855.539 450.965 C 854.417 450.945, 852.375 450.286, 851 449.500 C 847.448 447.469, 847.167 447.593, 846.431 451.518 C 846.068 453.452, 844.697 455.879, 843.385 456.911 C 842.073 457.943, 841 459.263, 841 459.844 C 841 460.425, 840.390 461.260, 839.644 461.700 C 838.850 462.169, 838.067 465.022, 837.754 468.588 C 837.460 471.937, 836.757 475.537, 836.193 476.588 C 831.391 485.531, 829.718 512.643, 833.250 524.250 C 834.212 527.413, 835.734 532.587, 836.632 535.750 C 839.055 544.288, 840.826 547.840, 843.552 549.626 C 844.898 550.508, 846.002 551.966, 846.004 552.865 C 846.006 553.764, 847.018 556.075, 848.254 558 C 850.276 561.150, 850.500 562.749, 850.500 574 C 850.500 585.734, 850.653 586.714, 853 589.996 C 854.375 591.919, 856.333 595.039, 857.351 596.930 C 860.485 602.753, 871.250 613.980, 873.710 613.990 C 874.925 613.996, 877.062 615.233, 878.460 616.740 L 881 619.480 881 615.395 C 881 612.511, 881.619 610.750, 883.106 609.405 C 884.265 608.357, 886.074 605.813, 887.127 603.750 C 888.388 601.279, 889.732 600, 891.068 600 C 894.079 600, 897.999 604.744, 898.006 608.396 C 898.015 613.499, 899.876 618.656, 902.862 621.852 C 905.030 624.173, 905.570 625.567, 905.222 627.940 C 904.344 633.921, 909.190 635.859, 914.747 631.750 C 925.391 623.878, 927.128 622.338, 927.635 620.318 C 928.332 617.541, 930.629 616.735, 934.523 617.901 C 939.652 619.436, 941 620.175, 941 621.452 C 941 623.471, 944.208 625.736, 948.798 626.958 C 952.638 627.981, 953.660 627.845, 958.390 625.679 L 963.685 623.255 964.338 614.760 C 965.121 604.582, 966.770 600.269, 971.906 594.978 C 976.199 590.554, 977.582 590.109, 978.458 592.868 C 978.784 593.896, 979.940 595.540, 981.026 596.523 C 982.111 597.506, 983 599.564, 983 601.096 C 983 602.628, 983.505 604.194, 984.122 604.575 C 985.889 605.668, 997.856 591.746, 1004.309 581.092 L 1010.118 571.500 1009.485 565 C 1009.006 560.074, 1009.232 557.773, 1010.420 555.500 C 1011.282 553.850, 1011.990 551.407, 1011.994 550.071 C 1012.001 547.061, 1014.037 540.673, 1021.578 520 C 1022.882 516.425, 1023.960 512.312, 1023.974 510.859 C 1023.988 509.407, 1024.890 506.257, 1025.978 503.859 C 1028.757 497.736, 1028.638 489.992, 1025.693 485.230 C 1023.152 481.121, 1018.676 471.764, 1017.576 468.262 C 1015.361 461.211, 1006.995 450.932, 999.391 445.919 C 996.255 443.852, 985.219 443.358, 979.619 445.034" stroke="#c4743d" fill="#c4743d" fill-opacity="0.2" fill-rule="evenodd"/><path class="svg-region-DMl" d="M 672.258 419.298 C 668.350 421.042, 668.682 423.398, 674.455 434.911 C 677.648 441.277, 680 447.295, 680 449.099 C 680 456.443, 690.809 484.484, 694.995 488 C 696.405 489.184, 707 504.335, 707 505.168 C 707 505.672, 707.442 506.628, 707.981 507.292 C 708.521 507.956, 711.627 512.100, 714.884 516.500 C 721.722 525.739, 739.975 544.066, 751.293 553.057 C 755.597 556.476, 759.927 560.871, 760.964 562.874 C 761.996 564.868, 765.385 568.975, 768.493 572 C 773.003 576.389, 775.246 579.823, 779.598 589 C 782.598 595.325, 785.565 601.400, 786.191 602.500 C 786.818 603.600, 788.799 608.241, 790.594 612.813 C 792.390 617.385, 795.077 622.723, 796.566 624.675 C 799.155 628.070, 799.496 628.206, 804.387 627.787 C 807.199 627.546, 811.750 626.305, 814.500 625.030 L 819.500 622.711 815.003 621.865 C 812.530 621.400, 810.355 620.566, 810.170 620.010 C 809.985 619.455, 809.207 619, 808.442 619 C 806.952 619, 804 614.080, 804 611.597 C 804 606.162, 808.988 602.132, 817.142 600.980 C 820.571 600.495, 823.688 599.456, 824.344 598.580 C 825.632 596.858, 835.397 593.182, 841.392 592.162 C 844.959 591.555, 845.396 591.124, 846.627 587 C 847.365 584.525, 847.976 582.426, 847.985 582.335 C 847.993 582.245, 845.638 580.449, 842.750 578.344 C 839.862 576.240, 836.495 573.529, 835.266 572.321 C 832.989 570.080, 827.820 560.504, 826.467 556.019 C 826.055 554.655, 824.898 552.405, 823.895 551.019 C 821.416 547.596, 819.788 539.960, 821.180 538.283 C 823.018 536.068, 832.305 536.665, 835.536 539.207 L 838.341 541.414 837.646 538.957 C 837.263 537.606, 836.338 534.242, 835.591 531.483 C 834.104 525.999, 828.177 519.141, 822.615 516.470 C 820.902 515.647, 816.575 512.471, 813 509.411 C 809.425 506.352, 804.577 502.709, 802.227 501.316 C 799.877 499.923, 797.498 497.931, 796.941 496.890 C 795.938 495.017, 790.039 492, 787.378 492 C 786.620 492, 785.100 491.100, 784 490 C 782.823 488.823, 780.663 487.998, 778.750 487.996 C 774.885 487.992, 769 484.665, 769 482.485 C 769 481.636, 767.200 478.664, 765 475.881 C 762.800 473.098, 761 469.992, 761 468.980 C 761 467.878, 760.157 467.011, 758.901 466.820 C 757.482 466.604, 756.369 465.236, 755.468 462.603 C 753.547 456.989, 752.247 456.125, 745.133 455.730 C 740.364 455.466, 738.222 454.854, 736.598 453.290 C 735.405 452.142, 729.945 449.089, 724.464 446.505 C 718.984 443.921, 713.306 441.176, 711.846 440.404 C 710.386 439.632, 708.286 439, 707.179 439 C 704.542 439, 696.470 435.515, 693.262 432.991 C 691.869 431.896, 689.999 431, 689.104 431 C 686.934 431, 680.622 425.158, 679.258 421.889 C 677.994 418.857, 675.399 417.896, 672.258 419.298 M 760.500 517 C 760.160 517.550, 758.559 518, 756.941 518 C 755.323 518, 754 518.398, 754 518.883 C 754 519.369, 753.100 520.002, 752 520.290 C 750.421 520.703, 750 521.654, 750 524.809 C 750 528.391, 750.326 528.918, 753.149 529.902 C 757.775 531.515, 764.586 531.272, 766.429 529.428 C 769.379 526.479, 766.238 516, 762.404 516 C 761.697 516, 760.840 516.450, 760.500 517" stroke="#68533d" fill="#68533d" fill-opacity="0.2" fill-rule="evenodd"/><path class="svg-region-DMr" d="M 1160.758 405.051 C 1159.415 407.241, 1145.509 418.164, 1143 419 C 1139.889 420.037, 1126.524 429.735, 1119.974 435.710 C 1116.229 439.125, 1110.766 443.458, 1107.833 445.340 C 1101.818 449.198, 1099.815 451.187, 1097.599 455.502 C 1095.086 460.395, 1085.696 471.730, 1083 473.124 C 1081.625 473.835, 1077.412 477.102, 1073.637 480.384 L 1066.774 486.352 1064.940 483.926 C 1063.146 481.553, 1063.034 481.536, 1059.803 483.166 C 1057.986 484.083, 1055.247 485.108, 1053.716 485.444 C 1052.099 485.799, 1050.460 487.092, 1049.805 488.528 C 1049.186 489.887, 1047.892 491, 1046.929 491 C 1043.983 491, 1036.983 496.219, 1036.305 498.921 C 1035.621 501.646, 1026.984 511, 1025.153 511 C 1024.540 511, 1023.763 512.237, 1023.426 513.750 C 1022.220 519.172, 1021.736 520.595, 1018.780 527.414 L 1015.784 534.328 1018.142 536.195 C 1019.839 537.538, 1021.508 537.916, 1024.095 537.543 C 1027.219 537.094, 1027.842 537.359, 1028.845 539.560 C 1030.449 543.080, 1030.287 548.593, 1028.466 552.431 C 1026.771 556.002, 1017.924 565.993, 1016.440 566.012 C 1015.923 566.018, 1013.956 568.831, 1012.070 572.262 C 1009.612 576.732, 1008.620 579.822, 1008.570 583.165 C 1008.486 588.781, 1009.553 590.180, 1011.818 587.424 C 1016.828 581.330, 1026.516 575.237, 1034.616 573.087 C 1036.880 572.487, 1039.805 570.934, 1041.116 569.636 C 1044.140 566.645, 1049.284 563.996, 1052.976 563.528 C 1059.884 562.654, 1061.880 573.578, 1056.750 584.188 C 1055.237 587.317, 1054 591.225, 1054 592.873 C 1054 594.521, 1053.538 597.086, 1052.973 598.572 C 1052.109 600.844, 1052.268 601.499, 1053.973 602.693 C 1055.088 603.474, 1056 604.763, 1056 605.557 C 1056 607.859, 1060.508 607.270, 1066.004 604.250 C 1070.464 601.799, 1071.512 600.522, 1075.650 592.500 C 1078.204 587.550, 1081.763 581.250, 1083.559 578.500 C 1085.356 575.750, 1087.652 571.743, 1088.663 569.596 C 1089.673 567.448, 1091.714 564.388, 1093.199 562.795 C 1094.683 561.202, 1096.176 559.021, 1096.516 557.949 C 1096.856 556.877, 1098.004 556, 1099.067 556 C 1101.876 556, 1105 552.434, 1105 549.228 C 1105 547.289, 1106.278 545.199, 1109.250 542.275 C 1128.969 522.875, 1135.284 514.979, 1142.751 500.380 C 1146.161 493.713, 1150.775 485.163, 1153.003 481.380 C 1159.972 469.548, 1164.941 458.713, 1166.008 453.023 C 1166.572 450.011, 1168.093 445.947, 1169.387 443.992 C 1172.730 438.940, 1176.832 420.390, 1175.635 415.740 C 1174.888 412.839, 1165.560 403, 1163.556 403 C 1162.710 403, 1161.451 403.923, 1160.758 405.051" stroke="#68533d" fill="#68533d" fill-opacity="0.2" fill-rule="evenodd"/><path class="svg-region-VMl" d="M 835.817 593.351 C 834.342 594.154, 831.776 595.110, 830.114 595.475 C 828.453 595.840, 825.882 597.091, 824.401 598.256 C 822.906 599.433, 819.357 600.693, 816.418 601.092 C 807.789 602.263, 803.043 607.365, 804.482 613.920 C 805.466 618.397, 810.038 621.179, 817.877 622.071 C 826.368 623.036, 831.641 624.931, 832.929 627.480 C 833.490 628.591, 834.900 632.107, 836.062 635.293 C 839.167 643.803, 844.350 647.958, 849.446 646.020 C 851.241 645.338, 852.064 644.079, 852.536 641.295 C 853.924 633.108, 857.294 622.398, 859.100 620.436 C 862.161 617.110, 861.568 615, 857.573 615 C 851.398 615, 848.102 607.944, 851.500 602 C 853.816 597.948, 853.376 595.094, 850.250 593.902 C 845.373 592.041, 838.691 591.786, 835.817 593.351" stroke="#e59376" fill="#e59376" fill-opacity="0.2" fill-rule="evenodd"/><path class="svg-region-VMr" d="M 1047.654 565 C 1045.538 566.056, 1042.700 568.027, 1041.348 569.380 C 1039.995 570.732, 1035.876 572.758, 1032.194 573.881 C 1027.805 575.220, 1023.196 577.663, 1018.810 580.973 C 1008.826 588.509, 1008 590.032, 1008 600.904 C 1008 610.687, 1007.575 609.730, 1014.849 616.315 C 1016.559 617.863, 1018.412 620.788, 1018.967 622.815 C 1019.522 624.842, 1020.874 627.962, 1021.973 629.750 C 1023.742 632.627, 1024.479 633, 1028.404 633 C 1035.875 633, 1036 632.841, 1036 623.327 C 1036 618.675, 1036.458 614.013, 1037.017 612.968 C 1038.136 610.877, 1043.440 609.139, 1050.058 608.696 C 1055.632 608.323, 1057.543 605.731, 1054.243 603.021 C 1052.337 601.456, 1052.142 600.756, 1052.993 598.519 C 1053.547 597.062, 1054 594.433, 1054 592.677 C 1054 590.921, 1055.088 587.441, 1056.417 584.944 C 1059.360 579.415, 1060.438 574.149, 1059.572 569.532 C 1058.332 562.923, 1054.632 561.516, 1047.654 565" stroke="#e59376" fill="#e59376" fill-opacity="0.2" fill-rule="evenodd"/><path class="svg-region-Ol" d="M 441.500 349.885 C 435.527 350.754, 413.500 358.410, 403 363.266 C 398.875 365.174, 391.313 369.719, 386.196 373.367 C 381.079 377.015, 376.451 380, 375.913 380 C 373.643 380, 365.205 385.094, 361.500 388.701 C 356.338 393.727, 343.755 408.418, 340.474 413.250 C 339.074 415.313, 337.562 417, 337.116 417 C 336.669 417, 335.507 418.913, 334.532 421.250 C 333.558 423.587, 330.725 429.775, 328.236 435 C 323.634 444.660, 317.226 460.753, 311.961 475.870 C 310.358 480.474, 308.679 484.749, 308.231 485.370 C 307.784 485.992, 306.809 488.300, 306.067 490.500 C 305.324 492.700, 303.697 496.750, 302.451 499.500 C 298.511 508.197, 291.864 524.383, 290.952 527.500 C 290.469 529.150, 288.885 533.875, 287.430 538 C 283.301 549.714, 281.108 563.651, 280.942 579.249 C 280.861 586.882, 281.066 593.399, 281.397 593.730 C 281.729 594.062, 282 596.183, 282 598.444 C 282 600.705, 282.722 603.585, 283.604 604.845 C 284.624 606.302, 285.021 608.291, 284.695 610.317 C 284.176 613.538, 286.667 620.321, 293.124 633.265 C 294.706 636.435, 296 639.501, 296 640.077 C 296 641.812, 300.804 651.410, 302.732 653.525 C 305.150 656.179, 310.067 664.167, 313.796 671.500 C 324.613 692.771, 334.013 706.077, 347.682 719.465 C 356.428 728.032, 358.443 729.537, 368.021 734.652 C 374.584 738.159, 376.671 738.757, 384.423 739.352 C 390.773 739.840, 393.635 740.486, 394.462 741.617 C 395.665 743.263, 396.027 743.310, 416.500 744.527 C 423.100 744.919, 431.200 745.429, 434.500 745.660 C 442.973 746.254, 501.080 746.584, 509.500 746.086 C 513.350 745.859, 523.025 745.959, 531 746.309 C 557.097 747.455, 578.398 748.141, 584 748.017 C 587.025 747.950, 593.679 747.806, 598.787 747.697 C 604.546 747.575, 608.346 747.060, 608.790 746.342 C 609.183 745.705, 611.195 744.866, 613.261 744.479 C 615.327 744.091, 618.026 742.984, 619.259 742.018 C 620.491 741.052, 623.862 739.247, 626.750 738.007 C 629.638 736.768, 632 735.469, 632 735.121 C 632 734.456, 635.910 732.643, 639.784 731.511 C 641.041 731.144, 645.091 729.476, 648.784 727.804 C 658.337 723.480, 672.365 709.366, 676.916 699.500 C 678.692 695.650, 681 690.857, 682.045 688.849 C 683.090 686.842, 684.393 683.467, 684.941 681.349 C 685.489 679.232, 686.892 674.125, 688.058 670 C 689.225 665.875, 690.254 661.600, 690.346 660.500 C 690.438 659.400, 690.938 657.835, 691.457 657.021 C 691.976 656.208, 692.580 645.183, 692.800 632.521 C 693.181 610.556, 692.555 600.602, 689.906 586.500 C 689.286 583.200, 688.790 579.825, 688.803 579 C 688.863 575.316, 684.522 553.807, 682.373 547.136 C 681.068 543.086, 680 538.789, 680 537.586 C 680 536.384, 679.623 534.972, 679.162 534.450 C 678.701 533.928, 677.072 529.900, 675.542 525.500 C 674.013 521.100, 670.641 513, 668.050 507.500 C 665.459 502, 662.289 494.350, 661.005 490.500 C 656.597 477.281, 649.596 466.517, 639.771 457.850 C 629.820 449.071, 625.910 446.086, 618.212 441.394 C 613.971 438.808, 609.150 435.865, 607.500 434.855 C 599.772 430.123, 568.802 409.514, 563.032 405.264 C 559.475 402.644, 556.139 400.325, 555.618 400.112 C 553.340 399.178, 539.195 389.050, 536.144 386.169 C 534.299 384.426, 532.199 383, 531.478 383 C 530.757 383, 530.017 382.621, 529.833 382.158 C 528.753 379.428, 494.479 360, 490.745 360 C 490.036 360, 487.891 358.736, 485.978 357.190 C 478.938 351.503, 472.727 349.715, 459 349.423 C 452.125 349.277, 444.250 349.485, 441.500 349.885" stroke="#aa444d" fill="#aa444d" fill-opacity="0.2" fill-rule="evenodd"/><path class="svg-region-Or" d="M 1372 332.684 C 1370.625 332.910, 1367.250 333.921, 1364.500 334.931 C 1361.750 335.940, 1357.475 337.361, 1355 338.088 C 1349.744 339.633, 1342.122 342.871, 1333 347.435 C 1329.425 349.223, 1324.700 351.264, 1322.500 351.970 C 1320.300 352.675, 1317.825 353.795, 1317 354.457 C 1315.358 355.775, 1307.601 359.456, 1299 362.999 C 1287.714 367.647, 1283.387 369.559, 1279.197 371.750 C 1276.830 372.988, 1274.456 374, 1273.920 374 C 1272.019 374, 1257.411 385.896, 1251.633 392.150 C 1245.702 398.569, 1222.912 432.281, 1218.271 441.500 C 1216.886 444.250, 1214.227 448.594, 1212.362 451.154 C 1202.498 464.690, 1196.620 490.683, 1200.051 505.598 C 1201.908 513.672, 1202.037 515.403, 1202.907 544 C 1203.860 575.314, 1204.441 578.307, 1210.958 585.500 C 1215.365 590.363, 1222.476 603.265, 1223.551 608.348 C 1223.917 610.081, 1225.029 613.075, 1226.021 615 C 1228.133 619.100, 1232.760 633.405, 1236.489 647.363 C 1237.938 652.788, 1239.512 657.963, 1239.986 658.863 C 1240.461 659.763, 1241.385 662.615, 1242.040 665.200 C 1242.696 667.785, 1244.080 670.667, 1245.116 671.605 C 1246.152 672.543, 1247 673.807, 1247 674.415 C 1247 676.365, 1260.836 686.146, 1265.639 687.592 C 1268.193 688.360, 1270.781 689.363, 1271.391 689.820 C 1273.589 691.466, 1280.858 693.001, 1288.603 693.456 C 1299.460 694.093, 1318.360 695.916, 1325 696.967 C 1328.025 697.445, 1333.650 698.303, 1337.500 698.872 C 1341.350 699.441, 1351.475 701.112, 1360 702.584 C 1368.525 704.056, 1377.525 705.471, 1380 705.729 C 1389.187 706.685, 1414.642 706.770, 1420.964 705.866 C 1432.808 704.172, 1458.516 696.901, 1468.500 692.421 C 1471.250 691.187, 1476.875 688.673, 1481 686.834 C 1497.159 679.629, 1509.241 671.364, 1520.852 659.574 C 1530.789 649.484, 1540 638.032, 1540 635.767 C 1540 635.272, 1541.076 633.434, 1542.392 631.683 C 1545.859 627.069, 1553.238 611.937, 1553.472 608.960 C 1553.582 607.561, 1554.832 604.410, 1556.249 601.958 C 1557.667 599.506, 1559.342 595.475, 1559.971 593 C 1560.600 590.525, 1561.739 586.250, 1562.502 583.500 C 1566.368 569.563, 1567.311 543.062, 1564.940 515 C 1563.798 501.494, 1563.062 498.296, 1559.587 491.758 C 1558.343 489.416, 1556.527 485.025, 1555.553 482 C 1551.242 468.617, 1545.183 460.733, 1533.887 453.812 C 1526.638 449.369, 1511.981 435.935, 1504.016 426.430 C 1499.900 421.519, 1489.949 410.975, 1481.903 403 C 1473.857 395.025, 1463.026 383.550, 1457.835 377.500 C 1452.644 371.450, 1444.595 362.836, 1439.948 358.358 C 1431.851 350.555, 1417.365 340.304, 1410.213 337.316 C 1401.073 333.497, 1381.485 331.122, 1372 332.684" stroke="#aa444d" fill="#aa444d" fill-opacity="0.2" fill-rule="evenodd"/><path class="svg-region-LBPCl" d="M 662.200 378.200 C 659.450 380.950, 660.568 385.577, 667.707 401 C 669.617 405.125, 671.858 410.525, 672.687 413 C 673.516 415.476, 675.500 418.545, 677.097 419.822 C 678.694 421.100, 679.997 422.675, 679.994 423.322 C 679.983 425.145, 687.066 430.855, 690.186 431.541 C 691.721 431.878, 693.265 432.619, 693.617 433.189 C 694.412 434.475, 704.508 439, 706.583 439 C 709.772 439, 731.814 449.592, 735.192 452.748 C 737.384 454.796, 739.146 455.341, 744.692 455.685 C 752.326 456.160, 753.351 456.818, 755.312 462.502 C 756.267 465.273, 757.352 466.598, 758.845 466.820 C 760.109 467.007, 761 467.863, 761 468.889 C 761 469.851, 762.800 473.051, 765 476 C 767.200 478.949, 769 481.962, 769 482.695 C 769 484.449, 774.875 487.992, 777.791 487.996 C 781.472 488.002, 793.315 492.088, 795.564 494.128 C 796.700 495.158, 798.318 496, 799.159 496 C 800.001 496, 801.505 496.900, 802.500 498 C 803.495 499.100, 805.541 500, 807.046 500 C 810.898 500, 816.975 502.931, 821.040 506.751 C 824.330 509.841, 824.517 509.895, 824.839 507.851 C 825.026 506.669, 824.721 504.756, 824.161 503.601 C 823.602 502.445, 822.858 499.772, 822.510 497.659 C 821.978 494.437, 820.071 492.040, 810.688 482.791 C 799.021 471.293, 794.596 468.491, 784.229 466.038 C 780.912 465.253, 778.569 464.064, 777.910 462.831 C 777.098 461.314, 776.218 461.013, 774.014 461.497 C 771.937 461.953, 770.916 461.672, 770.236 460.457 C 769.427 459.011, 769.005 458.970, 767.022 460.146 C 765.311 461.160, 764.631 461.203, 764.308 460.315 C 764.071 459.663, 762.552 457.300, 760.932 455.065 C 758.666 451.937, 757.325 451, 755.112 451 C 752.964 451, 751.517 450.052, 749.386 447.250 C 745.326 441.912, 741.326 438.761, 736.070 436.762 C 731.492 435.020, 727.661 433.276, 720.864 429.839 C 718.864 428.827, 715.714 427.995, 713.864 427.989 C 711.443 427.982, 708.823 426.720, 704.520 423.489 C 701.230 421.020, 698.166 419, 697.710 419 C 696.004 419, 685.606 408.283, 681.701 402.500 C 679.473 399.200, 676.196 394.700, 674.418 392.500 C 672.639 390.300, 670.043 385.913, 668.647 382.750 C 666.128 377.042, 664.504 375.896, 662.200 378.200" stroke="#daffff" fill="#daffff" fill-opacity="0.2" fill-rule="evenodd"/><path class="svg-region-LBPCr" d="M 1170.642 358.092 C 1169.189 360.893, 1167.980 364.156, 1167.956 365.342 C 1167.904 367.890, 1161.173 379.737, 1151.750 393.864 C 1142.903 407.130, 1141.346 408.864, 1136 411.414 C 1133.525 412.595, 1129.700 414.738, 1127.500 416.176 C 1125.300 417.614, 1121.700 419.357, 1119.500 420.048 C 1116.680 420.935, 1112.643 424.119, 1105.816 430.843 C 1096.304 440.211, 1091.249 443.875, 1087.721 443.958 C 1083.994 444.046, 1073.567 450.362, 1068.147 455.816 C 1065.040 458.942, 1059.229 463.696, 1055.233 466.381 C 1047.731 471.420, 1041.899 477.549, 1037.992 484.500 C 1035.649 488.669, 1032.759 496.093, 1033.278 496.612 C 1034.083 497.417, 1042.571 493.629, 1043.758 491.936 C 1044.503 490.871, 1045.585 490, 1046.162 490 C 1046.739 490, 1048.548 488.875, 1050.182 487.500 C 1051.816 486.125, 1053.950 485, 1054.923 485 C 1055.896 485, 1058.106 484.295, 1059.834 483.433 C 1063.156 481.776, 1065 482.177, 1065 484.559 C 1065 487.102, 1067.003 486.126, 1073.424 480.454 C 1076.876 477.404, 1081.080 474.142, 1082.765 473.204 C 1086.194 471.297, 1093.284 462.951, 1096.833 456.646 C 1100.045 450.939, 1101.654 449.299, 1108 445.262 C 1111.025 443.338, 1116.473 439.005, 1120.108 435.632 C 1126.387 429.804, 1139.782 420.073, 1143 419 C 1145.509 418.164, 1159.415 407.241, 1160.758 405.051 C 1162.590 402.065, 1165.423 402.536, 1167.976 406.250 C 1169.205 408.038, 1171.288 410.309, 1172.605 411.297 L 1175 413.093 1175.036 404.297 C 1175.055 399.459, 1175.723 392.800, 1176.520 389.500 C 1178.197 382.556, 1178.558 358.463, 1177 357.500 C 1176.450 357.160, 1176 356.009, 1176 354.941 C 1176 351.367, 1173.310 352.949, 1170.642 358.092" stroke="#daffff" fill="#daffff" fill-opacity="0.2" fill-rule="evenodd"/><path class="svg-region-BPCl" d="M 821.180 538.283 C 819.808 539.937, 821.397 547.547, 823.836 551 C 824.808 552.375, 826.426 555.750, 827.432 558.500 C 829.580 564.373, 832.618 569.664, 835.524 572.597 C 837.996 575.090, 847.895 582, 848.996 582 C 850.270 582, 850.972 577.910, 850.986 570.399 C 850.997 564.728, 850.497 562.351, 848.500 558.596 C 847.125 556.010, 846 553.295, 846 552.562 C 846 551.829, 844.884 550.499, 843.521 549.606 C 842.157 548.712, 840.305 546.523, 839.404 544.741 C 836.168 538.339, 834.187 537, 827.948 537 C 824.527 537, 821.819 537.513, 821.180 538.283" stroke="#83385f" fill="#83385f" fill-opacity="0.2" fill-rule="evenodd"/><path class="svg-region-BPCr" d="M 1015.272 537.722 C 1012.945 544.232, 1012 547.791, 1011.994 550.071 C 1011.990 551.407, 1011.276 553.850, 1010.406 555.500 C 1009.211 557.768, 1008.987 559.955, 1009.487 564.465 C 1009.850 567.746, 1010.371 570.792, 1010.644 571.234 C 1011.425 572.497, 1027.061 556.099, 1028.610 552.392 C 1030.316 548.308, 1030.397 542.965, 1028.805 539.472 C 1027.766 537.190, 1027.186 536.930, 1024.332 537.466 C 1022.149 537.875, 1020.252 537.556, 1018.659 536.512 C 1016.362 535.007, 1016.226 535.055, 1015.272 537.722" stroke="#83385f" fill="#83385f" fill-opacity="0.2" fill-rule="evenodd"/><path class="svg-region-ODMl" d="M 760 517 C 759.175 517.533, 757.487 517.976, 756.250 517.985 C 755.013 517.993, 754 518.450, 754 519 C 754 519.550, 753.100 520, 752 520 C 750.295 520, 750 520.667, 750 524.525 C 750 528.462, 750.333 529.176, 752.565 530.025 C 756.450 531.502, 765.556 531.239, 766.907 529.612 C 768.125 528.144, 767.470 520.951, 765.828 517.750 C 764.839 515.823, 762.323 515.499, 760 517" stroke="#999999" fill="#999999" fill-opacity="0.2" fill-rule="evenodd"/>
    </svg>