<svg xmlns="http://www.w3.org/2000/svg" width="1921" height="1027" viewBox="0 0 1921 1027" version="1.1">
    <path class="svg-region-V" d="M 845.500 199.645 C 837.693 201.519, 832.905 201.721, 813 201.014 C 793.968 200.339, 767.510 201.982, 758 204.430 C 749.019 206.742, 737.970 212.325, 732.276 217.428 C 729.649 219.783, 725.925 222.518, 724 223.506 C 719.556 225.789, 707.862 236.974, 703.098 243.500 C 701.090 246.250, 696.326 254.789, 692.510 262.475 C 685.665 276.264, 685.567 276.574, 685.165 285.763 C 684.721 295.923, 685.952 299, 690.459 299 C 691.641 299, 694.105 300.545, 695.936 302.434 C 701.397 308.068, 708.007 310.431, 718.500 310.499 C 723.450 310.532, 728.175 310.979, 729 311.494 C 730.829 312.635, 761.365 313.803, 761.833 312.750 C 762.017 312.337, 763.045 312, 764.119 312 C 765.192 312, 767.174 311.277, 768.522 310.394 C 770.250 309.262, 772.232 308.954, 775.237 309.351 C 781.455 310.172, 792.547 310.984, 809.030 311.825 C 822.015 312.487, 823.983 312.828, 827.530 315.033 C 832.758 318.282, 841.310 319.664, 865.500 321.167 C 887.193 322.516, 933.056 322.717, 944.797 321.516 C 951.466 320.833, 952.615 321.003, 958.155 323.489 C 965.223 326.661, 974.178 327.757, 979.279 326.073 C 982.548 324.994, 983.381 325.171, 989.174 328.172 C 995.072 331.228, 996.176 331.451, 1005.500 331.472 C 1015.324 331.494, 1015.623 331.425, 1022.466 327.540 C 1026.298 325.365, 1031.473 323.282, 1033.966 322.911 C 1043.086 321.554, 1063.335 316.967, 1064.510 315.992 C 1065.174 315.441, 1068.144 314.140, 1071.109 313.101 C 1074.074 312.062, 1078.975 310.044, 1082 308.616 C 1085.025 307.188, 1088.656 306.015, 1090.068 306.010 C 1095.048 305.991, 1102.589 303.015, 1110.214 298.059 C 1118.437 292.714, 1119.772 290.911, 1122.469 281.500 C 1123.415 278.200, 1124.617 274.979, 1125.140 274.343 C 1126.349 272.871, 1124.659 255.540, 1122.937 251.761 C 1122.255 250.264, 1120.931 248.796, 1119.996 248.499 C 1119.061 248.202, 1117.045 245.661, 1115.517 242.853 C 1112.990 238.211, 1112 237.407, 1104.619 234.001 C 1100.153 231.941, 1093.350 229.472, 1089.500 228.515 C 1085.650 227.559, 1079.350 225.244, 1075.500 223.371 C 1070.880 221.124, 1066.059 219.667, 1061.320 219.085 C 1057.371 218.601, 1053.711 217.940, 1053.186 217.615 C 1052.662 217.291, 1047.343 216.301, 1041.366 215.416 C 1035.390 214.531, 1028.925 213.136, 1027 212.316 C 1024.267 211.151, 1018.914 210.828, 1002.581 210.839 C 984.485 210.851, 981.541 211.068, 980.769 212.448 C 980.279 213.325, 979.514 213.817, 979.069 213.543 C 978.625 213.268, 974.715 212.976, 970.381 212.894 C 966.046 212.811, 960.378 212.366, 957.784 211.904 C 951.934 210.863, 949.302 211.694, 930.500 220.523 C 916.112 227.280, 915.914 227.300, 908.500 222.759 C 905.750 221.075, 901.925 218.816, 900 217.738 C 898.075 216.660, 896.140 215.153, 895.700 214.389 C 895.260 213.625, 894.385 213, 893.755 213 C 893.125 213, 891.460 211.927, 890.055 210.616 C 887.847 208.555, 884.525 206.591, 871 199.351 C 867.716 197.592, 853.361 197.758, 845.500 199.645" stroke="#dd8a8a" fill="#dd8a8a" fill-opacity="0.2" fill-rule="evenodd"/><path class="svg-region-SV" d="M 768.656 310.087 C 767.019 311.079, 765.062 311.688, 762.750 311.923 C 760.686 312.134, 762.592 314.328, 768.071 318.048 C 774.897 322.683, 778.221 323.386, 798.500 324.483 C 810.980 325.158, 849.692 322.708, 851.256 321.144 C 851.702 320.698, 847.440 319.728, 841.784 318.989 C 834.003 317.973, 830.560 317.031, 827.639 315.117 C 824.156 312.835, 822.391 312.514, 809.639 311.840 C 794.748 311.053, 782.502 310.201, 775 309.431 C 772.525 309.177, 769.670 309.472, 768.656 310.087" stroke="#c666b5" fill="#c666b5" fill-opacity="0.2" fill-rule="evenodd"/><path class="svg-region-DB" d="M 1109 298.587 C 1102.555 302.603, 1094.005 306, 1090.338 306 C 1088.916 306, 1084.263 307.575, 1080 309.500 C 1075.737 311.425, 1071.734 313, 1071.106 313 C 1070.477 313, 1067.834 314.070, 1065.232 315.377 C 1062.470 316.765, 1054.464 318.884, 1046 320.468 C 1034.803 322.564, 1029.523 324.112, 1022.820 327.262 L 1014.140 331.343 1017.271 335.921 C 1018.993 338.440, 1022.664 342.855, 1025.428 345.732 C 1031.117 351.656, 1032.877 356.852, 1032.969 368 C 1032.998 371.575, 1033.293 376.138, 1033.624 378.140 C 1034.221 381.747, 1034.262 381.775, 1038.363 381.282 C 1040.638 381.009, 1045.539 379.717, 1049.254 378.412 C 1052.969 377.107, 1060.169 375.535, 1065.254 374.918 C 1070.339 374.301, 1075.189 373.429, 1076.030 372.981 C 1076.872 372.532, 1080.919 371.699, 1085.024 371.131 C 1092.127 370.146, 1092.694 370.217, 1096.744 372.590 C 1099.085 373.962, 1101 375.821, 1101 376.722 C 1101 379.003, 1094.200 400.826, 1092.967 402.500 C 1090.726 405.543, 1090.912 410.120, 1093.498 415.587 C 1095.801 420.456, 1096.436 421.105, 1098.325 420.516 C 1099.521 420.144, 1101.625 419.609, 1103 419.328 C 1104.375 419.047, 1106.905 418.190, 1108.621 417.423 C 1110.338 416.656, 1114.710 415.608, 1118.337 415.094 C 1121.964 414.581, 1125.509 413.815, 1126.216 413.393 C 1132.915 409.388, 1154 389.548, 1154 387.249 C 1154 386.697, 1154.708 385.657, 1155.573 384.939 C 1156.438 384.221, 1158.022 381.916, 1159.093 379.817 C 1160.359 377.335, 1161.733 376, 1163.020 376 C 1164.765 376, 1165 375.314, 1165 370.223 C 1165 364.578, 1164.052 362.223, 1160.061 357.951 C 1159.202 357.032, 1157.178 354.635, 1155.563 352.624 C 1152.298 348.560, 1144.456 344.416, 1138.109 343.401 C 1135.825 343.036, 1133.714 342.346, 1133.419 341.869 C 1133.124 341.391, 1131.777 341, 1130.426 341 C 1128.734 341, 1127.347 339.990, 1125.965 337.750 C 1124.200 334.890, 1124.026 333.361, 1124.520 325 C 1124.829 319.775, 1125.310 313.626, 1125.589 311.335 C 1126.055 307.517, 1125.843 307.020, 1123.048 305.370 C 1121.066 304.198, 1120 302.770, 1120 301.284 C 1120 300.028, 1119.580 299, 1119.067 299 C 1118.554 299, 1117.849 298.100, 1117.500 297 C 1116.652 294.328, 1115.482 294.547, 1109 298.587 M 685.005 300.487 C 684.452 301.941, 684 304.226, 684 305.565 C 684 306.904, 683.569 308, 683.042 308 C 682.516 308, 681.116 311.251, 679.933 315.225 C 678.022 321.642, 677.905 323.200, 678.888 329.154 C 679.919 335.392, 682.509 342.850, 686.997 352.500 C 688.021 354.700, 689.144 357.931, 689.493 359.681 C 689.843 361.430, 690.775 363.398, 691.564 364.053 C 692.354 364.709, 693 365.896, 693 366.691 C 693 368.167, 684.395 377, 682.956 377 C 682.006 377, 674 384.573, 674 385.471 C 674 386.765, 676.909 391.561, 678.671 393.172 C 679.677 394.091, 682.525 397.741, 685 401.282 C 687.475 404.824, 690.193 408.121, 691.040 408.610 C 691.888 409.100, 695.038 410.742, 698.040 412.261 C 701.043 413.780, 706.650 416.827, 710.500 419.034 C 723.441 426.450, 737.403 432, 743.117 432 C 746.728 432, 752 424.768, 752 419.815 C 752 416.240, 748.595 406.047, 745.134 399.263 C 742.837 394.760, 742.294 387.187, 744.035 383.934 C 744.640 382.804, 746.122 382, 747.601 382 C 750.356 382, 754.069 380.346, 755.235 378.600 C 756.655 376.473, 755.978 367.871, 753.905 361.719 C 752.300 356.954, 751.894 353.681, 752.165 347.709 C 752.359 343.422, 753.020 339.597, 753.634 339.208 C 754.247 338.818, 755.067 337.033, 755.456 335.240 C 755.845 333.447, 756.712 331.422, 757.383 330.740 C 758.054 330.058, 760.015 326.469, 761.742 322.765 L 764.881 316.030 762.718 314.515 C 761.070 313.361, 757.570 312.994, 748.027 312.976 C 741.137 312.963, 733.700 312.472, 731.500 311.884 C 729.300 311.296, 723.450 310.732, 718.500 310.631 C 708.257 310.420, 702.012 308.163, 696 302.500 C 694.075 300.687, 691.040 298.898, 689.255 298.523 C 686.380 297.921, 685.896 298.144, 685.005 300.487" stroke="#e8b1e4" fill="#e8b1e4" fill-opacity="0.2" fill-rule="evenodd"/><path class="svg-region-MB" d="M 762.567 320.659 C 761.155 323.185, 760 325.801, 760 326.473 C 760 327.145, 759.128 328.700, 758.061 329.929 C 756.995 331.159, 755.814 333.590, 755.436 335.332 C 755.058 337.074, 754.253 338.815, 753.646 339.200 C 751.475 340.579, 751.625 354.406, 753.892 361.872 C 756.880 371.706, 756.724 377.286, 753.388 379.910 L 750.776 381.964 753.638 383.079 C 761.701 386.221, 766.613 387.288, 778.500 388.479 C 789.340 389.564, 793.660 390.541, 804.500 394.356 C 817.047 398.771, 818.023 398.954, 832.500 399.582 C 848.993 400.298, 850 400.698, 850 406.542 C 850 411.307, 851.939 416, 853.908 416 C 855.594 416, 862 410.472, 862 409.017 C 862 408.607, 863.376 406.748, 865.058 404.886 C 866.739 403.023, 869.370 399.025, 870.904 396 C 874.956 388.007, 877.398 384.014, 878.239 384.006 C 878.965 384, 881.844 381.815, 884.655 379.135 C 885.443 378.384, 887.530 377.419, 889.294 376.990 C 894.159 375.808, 902.457 372.596, 902.833 371.750 C 903.017 371.337, 903.624 371, 904.182 371 C 904.741 371, 906.616 370.370, 908.349 369.600 C 910.082 368.829, 915.904 367.218, 921.287 366.019 C 932.302 363.566, 941.617 363.663, 949 366.308 C 951.475 367.195, 956.200 368.463, 959.500 369.125 C 962.800 369.788, 966.210 370.931, 967.079 371.665 C 967.947 372.399, 969.129 373, 969.706 373 C 970.283 373, 971.297 373.652, 971.958 374.450 C 973.920 376.814, 981.379 380, 984.950 380 C 990.625 380, 995.490 382.052, 1000.310 386.477 C 1002.861 388.820, 1006.370 391.325, 1008.107 392.044 C 1011.106 393.287, 1011.395 393.199, 1013.882 390.290 C 1015.483 388.418, 1017.859 386.983, 1020 386.597 C 1021.925 386.250, 1025.836 385.002, 1028.690 383.824 L 1033.880 381.682 1033.412 373.091 C 1033.154 368.366, 1032.444 361.350, 1031.835 357.500 C 1030.823 351.107, 1030.346 350.147, 1026.325 346.432 C 1023.903 344.195, 1020.229 339.995, 1018.161 337.099 L 1014.400 331.833 1004.950 331.615 C 996.283 331.414, 995.020 331.121, 989.709 328.079 C 984.139 324.889, 983.748 324.811, 979.433 326.019 C 973.398 327.708, 965.429 326.753, 958.094 323.462 C 952.621 321.006, 951.453 320.835, 944.797 321.516 C 936.992 322.314, 897.031 322.502, 867.500 321.880 C 855.211 321.620, 843.155 322.079, 829.500 323.324 C 812.436 324.880, 807.119 324.988, 793.281 324.061 C 777.025 322.971, 773.555 322.317, 770.867 319.834 C 770.072 319.100, 768.458 317.952, 767.278 317.283 C 765.310 316.167, 764.923 316.445, 762.567 320.659" stroke="#f9c6c6" fill="#f9c6c6" fill-opacity="0.2" fill-rule="evenodd"/><path class="svg-region-LBl" d="M 744.200 383.200 C 742.211 385.189, 742.735 395.036, 745.062 399.376 C 748.233 405.294, 752 416.393, 752 419.821 C 752 421.587, 750.721 424.794, 749 427.345 C 747.350 429.790, 746 432.030, 746 432.324 C 746 432.618, 748.362 433.546, 751.250 434.386 C 754.468 435.323, 758.850 437.808, 762.571 440.809 C 768.099 445.265, 769.352 445.809, 776.568 446.883 C 787.054 448.442, 789.688 450.187, 808.060 467.750 C 812.231 471.738, 815.905 475, 816.224 475 C 817.568 475, 819 468.219, 819 461.851 C 819 457.950, 819.431 455, 820 455 C 821.145 455, 824.983 451.378, 825.033 450.250 C 825.118 448.349, 829.061 445, 831.215 445 C 832.531 445, 835.779 446.376, 838.431 448.058 C 841.083 449.740, 843.840 450.892, 844.557 450.617 C 845.274 450.342, 846.144 447.953, 846.490 445.308 C 846.837 442.664, 847.601 439.375, 848.187 438 C 849.499 434.922, 851.156 424.062, 851.237 418 C 851.303 413.100, 849.795 403.096, 848.731 401.375 C 848.339 400.739, 841.903 400.013, 832.986 399.597 C 819.682 398.978, 816.702 398.500, 807.702 395.546 C 802.091 393.704, 795.925 391.532, 794 390.719 C 792.075 389.907, 785.775 388.925, 780 388.539 C 770.008 387.869, 758.607 385.466, 754.176 383.094 C 751.458 381.639, 745.700 381.700, 744.200 383.200" stroke="#d7b230" fill="#d7b230" fill-opacity="0.2" fill-rule="evenodd"/><path class="svg-region-LBr" d="M 1084 371.136 C 1080.425 371.626, 1076.600 372.461, 1075.500 372.993 C 1074.400 373.526, 1069.675 374.415, 1065 374.971 C 1060.325 375.526, 1053.125 377.069, 1049 378.401 C 1044.875 379.733, 1038.625 381.343, 1035.111 381.979 C 1031.597 382.615, 1027.772 383.747, 1026.611 384.494 C 1025.450 385.241, 1022.714 386.179, 1020.531 386.578 C 1015.206 387.553, 1005 397.553, 1005 401.797 C 1005 403.348, 1004.339 405.491, 1003.532 406.559 C 1001.853 408.778, 1001.581 413.939, 1002.906 418.429 C 1004.894 425.161, 1007.016 435.677, 1007.008 438.750 L 1007 442 1016.923 442 C 1026.617 442, 1026.947 442.077, 1031.173 445.309 C 1039.501 451.677, 1041.939 454.671, 1044.716 461.939 L 1045.648 464.378 1048.574 460.945 C 1050.183 459.056, 1053.043 456.159, 1054.929 454.506 C 1056.815 452.853, 1061.090 448.940, 1064.429 445.811 C 1074.449 436.422, 1081.183 430.829, 1083.917 429.627 C 1088.690 427.528, 1096 422.819, 1096 421.843 C 1096 421.311, 1094.840 418.425, 1093.423 415.428 C 1090.912 410.120, 1090.749 405.512, 1092.967 402.500 C 1093.372 401.950, 1094.424 399.250, 1095.304 396.500 C 1096.184 393.750, 1097.643 389.250, 1098.546 386.500 C 1101.752 376.737, 1101.648 375.513, 1097.365 372.602 C 1095.259 371.171, 1092.853 370.056, 1092.018 370.123 C 1091.183 370.191, 1087.575 370.647, 1084 371.136" stroke="#d7b230" fill="#d7b230" fill-opacity="0.2" fill-rule="evenodd"/><path class="svg-region-PP" d="M 971.066 445.067 C 968.628 446.668, 965.028 448.267, 963.066 448.620 C 961.105 448.972, 959.050 449.600, 958.500 450.015 C 957.950 450.430, 955.925 451.102, 954 451.509 C 952.075 451.916, 948.475 453.205, 946 454.374 C 942.184 456.177, 939.751 456.488, 930 456.424 C 923.254 456.379, 917.597 455.862, 916.316 455.174 C 914.884 454.404, 908.154 454, 896.781 454 C 881.994 454, 878.590 453.705, 873.740 452 C 867.251 449.719, 861.479 449.494, 852.404 451.166 L 846.077 452.332 840.138 448.666 C 831.929 443.599, 829.386 443.807, 825.023 449.904 C 823.110 452.576, 821.020 454.561, 820.378 454.315 C 819.571 454.005, 819.044 456.431, 818.671 462.183 C 818.374 466.758, 817.841 471.858, 817.486 473.518 C 816.974 475.914, 817.369 477.106, 819.403 479.300 C 824.561 484.867, 825.275 488, 821.383 488 C 818.415 488, 818.428 488.146, 822.234 497.164 C 823.549 500.279, 826.509 505.271, 828.812 508.256 C 831.115 511.242, 833 514.249, 833 514.939 C 833 515.629, 835.458 519.964, 838.462 524.573 C 846.086 536.269, 847 538.286, 847 543.411 C 847 546.605, 847.573 548.456, 848.962 549.750 C 850.758 551.423, 850.899 552.741, 850.632 565.286 C 850.471 572.826, 850.038 579.296, 849.669 579.664 C 849.301 580.032, 849 582.332, 849 584.775 C 849 589.052, 849.096 589.193, 851.584 588.568 C 858.021 586.953, 869.998 604.513, 863.773 606.439 C 863.073 606.656, 861.263 607.104, 859.750 607.436 C 858.237 607.767, 857 608.373, 857 608.783 C 857 609.944, 865.975 613.839, 871.313 614.995 C 876.454 616.108, 880.714 618.404, 882.759 621.164 C 884.491 623.503, 894.298 629, 896.737 629 C 897.833 629, 899.874 628.100, 901.273 627 C 903.175 625.503, 905.330 625, 909.831 625 C 914.844 625, 916.359 624.568, 918.923 622.411 C 920.615 620.987, 922 619.187, 922 618.411 C 922 617.635, 922.337 616.998, 922.750 616.995 C 923.163 616.992, 925.286 614.517, 927.470 611.495 C 931.492 605.927, 934 604.513, 934 607.811 C 934 608.808, 934.810 610.495, 935.800 611.561 C 936.791 612.628, 937.913 614.316, 938.293 615.313 C 938.674 616.311, 939.407 616.867, 939.921 616.549 C 940.435 616.231, 941.144 616.877, 941.495 617.985 C 941.935 619.370, 943.006 620, 944.921 620 C 946.484 620, 948.856 621.064, 950.322 622.422 C 951.759 623.755, 953.778 625.112, 954.808 625.439 C 957.674 626.349, 959.443 630.303, 958.104 632.806 C 957.244 634.413, 957.346 635.203, 958.573 636.431 C 959.437 637.294, 960.710 638, 961.404 638 C 962.736 638, 969 630.755, 969 629.215 C 969 627.335, 977.309 616.037, 979.113 615.464 C 980.151 615.135, 981.001 614.558, 981.002 614.183 C 981.008 612.488, 986.770 607.195, 989.244 606.612 C 991.115 606.171, 992.439 604.886, 993.406 602.570 C 994.186 600.703, 995.683 598.317, 996.731 597.269 C 999.843 594.157, 1002.158 586.999, 1002.639 579 C 1003.133 570.797, 1005.240 561.768, 1008.139 555.434 C 1009.196 553.125, 1010 549.115, 1010 546.152 C 1010 543.283, 1010.640 539.404, 1011.422 537.533 C 1012.642 534.613, 1013.387 534.085, 1016.672 533.815 C 1020.448 533.504, 1020.504 533.439, 1020.774 529 C 1020.924 526.525, 1021.453 523.600, 1021.949 522.500 C 1022.445 521.400, 1023.130 518.093, 1023.473 515.151 C 1024.553 505.867, 1028.876 493.903, 1032.857 489.175 C 1041.750 478.615, 1041.773 478.579, 1039.250 479.231 C 1036.156 480.031, 1036.385 479.040, 1041.056 471.409 C 1044.404 465.938, 1044.992 464.238, 1044.424 461.656 C 1043.509 457.487, 1041.400 454.283, 1036.537 449.672 C 1028.142 441.712, 1029.482 441.999, 1001 442.082 L 975.500 442.156 971.066 445.067" stroke="#c4743d" fill="#c4743d" fill-opacity="0.2" fill-rule="evenodd"/><path class="svg-region-DMl" d="M 703.500 436.502 C 702.950 436.692, 699.973 437.131, 696.885 437.479 C 689.404 438.320, 688.446 440.209, 690.082 450.889 C 691.311 458.916, 694.331 469.638, 696.662 474.251 C 697.427 475.763, 698.460 479.138, 698.958 481.751 C 699.764 485.976, 701.862 490.320, 709.942 504.500 C 713.318 510.424, 731.848 538.011, 734.879 541.625 C 736.321 543.344, 739.722 547.558, 742.438 550.989 C 745.154 554.420, 752.316 561.497, 758.353 566.716 C 769.506 576.358, 772.917 579.982, 778.781 588.423 C 781.749 592.696, 782.342 593.084, 785.005 592.499 C 787.879 591.868, 789.198 592.133, 799.500 595.416 C 806.074 597.512, 806.263 597.473, 805.541 594.187 C 804.649 590.124, 808.231 586.701, 815.561 584.614 C 823.048 582.483, 835.397 578.701, 835.822 578.410 C 836.480 577.959, 831.126 570.376, 827.624 566.800 C 822.383 561.448, 822.616 557.791, 828.677 550.289 C 834.446 543.150, 834.616 543.034, 839.340 543.015 C 842.111 543.004, 843.702 543.626, 845.056 545.250 L 846.933 547.500 846.967 542.702 C 846.993 538.893, 846.279 536.776, 843.500 532.433 C 841.575 529.423, 840 526.520, 840 525.981 C 840 525.441, 839.630 525, 839.177 525 C 838.725 525, 836.621 521.539, 834.502 517.309 C 832.383 513.079, 829.217 508.016, 827.466 506.059 C 825.715 504.102, 823.710 500.700, 823.012 498.500 C 820.125 489.406, 815.194 485.140, 809.114 486.475 C 807.166 486.903, 805.325 486.606, 803.814 485.620 C 802.542 484.789, 797 482.711, 791.500 481.002 C 786 479.294, 780.719 477.469, 779.764 476.948 C 778.809 476.426, 777.336 476, 776.491 476 C 774.571 476, 764.142 465.374, 762.750 462 L 761.719 459.500 761.064 462 L 760.409 464.500 758.519 461.301 C 756.008 457.051, 752.358 454.474, 747.582 453.580 C 745.427 453.177, 741.152 451.141, 738.082 449.057 C 735.012 446.973, 728.346 443.183, 723.270 440.634 C 715.964 436.966, 713.046 436.016, 709.270 436.079 C 706.646 436.122, 704.050 436.313, 703.500 436.502" stroke="#68533d" fill="#68533d" fill-opacity="0.2" fill-rule="evenodd"/><path class="svg-region-DMr" d="M 1144.321 413.892 C 1141.473 415.462, 1137.995 417.035, 1136.593 417.387 C 1135.150 417.749, 1132.311 420.299, 1130.050 423.263 C 1127.853 426.144, 1120.838 432.550, 1114.461 437.500 C 1108.084 442.450, 1100.767 448.188, 1098.202 450.250 C 1095.636 452.313, 1092.966 454, 1092.268 454 C 1091.571 454, 1090.998 454.337, 1090.996 454.750 C 1090.994 455.163, 1089.982 457.051, 1088.746 458.946 C 1087.511 460.841, 1085.375 464.441, 1084 466.946 C 1081.633 471.258, 1081.288 471.489, 1077.500 471.297 C 1075.300 471.186, 1071.615 470.804, 1069.311 470.448 C 1066.261 469.977, 1064.500 470.237, 1062.838 471.401 C 1061.582 472.280, 1059.691 473, 1058.636 473 C 1057.580 473, 1053.796 474.844, 1050.228 477.098 C 1045.118 480.325, 1043.552 480.909, 1042.857 479.848 C 1041.933 478.437, 1041.296 479.032, 1032.891 489.154 C 1028.060 494.973, 1023.118 509.561, 1023.036 518.250 C 1023.016 520.313, 1022.550 522, 1022 522 C 1021.450 522, 1021 524.475, 1021 527.500 C 1021 532.837, 1021.082 533, 1023.757 533 C 1025.273 533, 1027.967 532.583, 1029.743 532.074 C 1031.520 531.564, 1033.204 531.520, 1033.485 531.976 C 1033.767 532.432, 1032.423 536.882, 1030.499 541.865 C 1028.227 547.748, 1027 552.625, 1027 555.774 C 1027 558.578, 1026.156 562.371, 1025 564.764 C 1023.900 567.041, 1023.006 569.263, 1023.012 569.702 C 1023.036 571.256, 1029.586 574.661, 1036 576.453 C 1039.959 577.559, 1046.683 578.371, 1053.201 578.529 C 1068.241 578.894, 1072.410 581.168, 1068.757 587.017 C 1067.106 589.661, 1068.798 592.392, 1072.351 592.816 C 1074.194 593.037, 1075 593.721, 1075 595.066 C 1075 601.840, 1081.691 591.199, 1084.474 580 C 1084.679 579.175, 1084.881 576.861, 1084.923 574.858 C 1084.986 571.880, 1085.437 571.107, 1087.400 570.614 C 1088.856 570.249, 1090.196 568.875, 1090.807 567.123 C 1091.361 565.533, 1093.511 562.943, 1095.585 561.367 C 1099.719 558.223, 1101.300 556.641, 1109.942 547 C 1117.245 538.852, 1124 530.316, 1124 529.234 C 1124 528.781, 1126.908 524.060, 1130.463 518.744 C 1134.018 513.428, 1137.844 506.284, 1138.965 502.869 C 1140.086 499.454, 1141.949 495.057, 1143.105 493.098 C 1144.260 491.139, 1147.198 484.353, 1149.633 478.018 C 1152.068 471.683, 1154.916 464.700, 1155.962 462.500 C 1160.409 453.143, 1161.213 449.481, 1161.721 436.276 C 1162.313 420.896, 1162.019 419.231, 1157.882 414.518 C 1154.058 410.163, 1151.313 410.037, 1144.321 413.892" stroke="#68533d" fill="#68533d" fill-opacity="0.2" fill-rule="evenodd"/><path class="svg-region-VMl" d="M 836 578.678 C 835.175 578.900, 831.575 579.928, 828 580.962 C 824.425 581.996, 819.700 583.312, 817.500 583.886 C 815.300 584.460, 812.499 585.197, 811.276 585.524 C 810.053 585.851, 808.145 587.392, 807.036 588.950 C 805.234 591.480, 805.140 592.298, 806.151 596.641 C 807.553 602.664, 807.752 610.165, 806.658 615.748 C 805.949 619.362, 806.090 620.097, 807.603 620.678 C 808.636 621.074, 809.545 620.866, 809.773 620.180 C 810.415 618.254, 831.339 618.607, 835.210 620.609 C 839.387 622.769, 849.103 622.122, 852.011 619.490 C 855.196 616.608, 854.380 611.865, 850.524 610.842 C 846.551 609.787, 844.049 606.315, 844.022 601.815 C 843.998 597.734, 845.542 592.901, 847.199 591.877 C 847.790 591.512, 848.494 588.915, 848.764 586.107 L 849.254 581 846.078 581 C 844.330 581, 841.686 580.387, 840.200 579.637 C 838.715 578.888, 836.825 578.456, 836 578.678" stroke="#e59376" fill="#e59376" fill-opacity="0.2" fill-rule="evenodd"/><path class="svg-region-VMr" d="M 1004.594 565.678 C 1003.717 568.251, 1003 572.660, 1003 575.475 C 1003 580.093, 1003.375 580.961, 1006.836 584.340 C 1008.945 586.400, 1011.983 588.433, 1013.586 588.859 C 1016.130 589.535, 1016.539 590.154, 1016.804 593.740 C 1017.072 597.368, 1016.840 597.885, 1014.814 598.173 C 1009.004 599.001, 1013.331 605.933, 1019.685 605.978 C 1021.437 605.990, 1024.095 606.466, 1025.593 607.035 C 1027.961 607.936, 1036.201 608.900, 1054.284 610.394 C 1059.696 610.841, 1062 609.358, 1062 605.429 C 1062 603.637, 1061.456 603, 1059.923 603 C 1058.781 603, 1056.563 601.717, 1054.995 600.149 C 1052.458 597.612, 1052.235 596.892, 1052.973 593.620 C 1054.073 588.743, 1055.484 587.216, 1060.022 585.994 C 1064.877 584.687, 1068.268 581.935, 1067.157 580.205 C 1066.573 579.294, 1062.634 578.797, 1053.913 578.532 C 1046.013 578.292, 1039.909 577.581, 1037.124 576.577 C 1034.718 575.710, 1032.150 575, 1031.419 575 C 1030.687 575, 1028.431 573.875, 1026.405 572.500 C 1024.379 571.125, 1021.530 570, 1020.074 570 C 1018.308 570, 1015.839 568.500, 1012.663 565.500 C 1010.042 563.025, 1007.514 561, 1007.043 561 C 1006.573 561, 1005.471 563.105, 1004.594 565.678" stroke="#e59376" fill="#e59376" fill-opacity="0.2" fill-rule="evenodd"/><path class="svg-region-Ol" d="M 442.500 370.008 C 434.846 370.693, 415.595 375.339, 413.500 377.008 C 412.950 377.446, 410.700 378.298, 408.500 378.900 C 404.398 380.024, 394.280 385.511, 383.500 392.457 C 379.283 395.175, 361.125 412.985, 359.497 416 C 358.755 417.375, 356.619 420.075, 354.751 422 C 350.232 426.655, 341.635 437.872, 339.665 441.682 C 338.797 443.360, 336.587 446.706, 334.754 449.117 C 330.547 454.651, 316.852 484.394, 309.483 504 C 300.699 527.369, 296.041 544.339, 295.484 555 C 295.268 559.125, 294.676 565.875, 294.168 570 C 292.897 580.323, 294.551 604.622, 297.096 613 C 303.224 633.180, 306.649 640.955, 314.785 653.163 C 317.378 657.055, 320.253 661.581, 321.174 663.222 C 322.095 664.863, 323.732 666.824, 324.812 667.581 C 325.893 668.338, 328.414 673.183, 330.415 678.348 C 334.707 689.425, 338.781 695.918, 343.831 699.730 C 345.849 701.254, 348.850 703.510, 350.500 704.745 C 357.864 710.257, 372.219 718.082, 377.480 719.453 C 380.647 720.278, 383.747 721.363, 384.369 721.865 C 384.991 722.368, 388.875 723.539, 393 724.469 C 397.125 725.399, 402.525 727.035, 405 728.104 C 408.726 729.714, 412.598 730.130, 427.500 730.522 C 437.400 730.783, 453.929 731.218, 464.230 731.489 C 474.532 731.760, 484.818 732.398, 487.088 732.908 C 489.488 733.448, 497.761 733.515, 506.858 733.068 C 515.461 732.646, 537.350 732.390, 555.500 732.498 C 584.204 732.670, 589.113 732.925, 593.209 734.453 C 597.826 736.176, 597.970 736.169, 600.594 734.105 C 602.065 732.947, 604.088 732, 605.088 732 C 606.088 732, 607.940 731.579, 609.203 731.064 C 610.466 730.549, 613.078 729.874, 615.007 729.564 C 617.074 729.232, 620.710 727.199, 623.865 724.611 C 627.385 721.723, 630.593 720.001, 633.239 719.578 C 635.452 719.224, 639.609 717.824, 642.478 716.467 C 645.346 715.110, 648.243 714, 648.916 714 C 653.180 714, 666.098 701.330, 668.057 695.225 C 668.715 693.176, 669.788 690.825, 670.443 690 C 672.136 687.866, 676.724 676.151, 677.493 672 C 677.849 670.075, 678.316 665.515, 678.530 661.866 C 678.744 658.217, 679.424 652.367, 680.042 648.866 C 680.660 645.365, 681.306 641.150, 681.478 639.500 C 681.968 634.791, 683.892 624.201, 685.746 616 C 688.150 605.371, 688.019 570.828, 685.527 558.320 C 684.561 553.469, 683.181 548.150, 682.460 546.500 C 681.739 544.850, 680.600 541.250, 679.929 538.500 C 679.257 535.750, 678.099 532.285, 677.354 530.800 C 676.609 529.314, 676 526.759, 676 525.121 C 676 523.483, 675.398 521.541, 674.663 520.806 C 673.928 520.071, 671.938 515.876, 670.240 511.485 C 668.543 507.093, 666.039 501.475, 664.675 499 C 663.311 496.525, 661.377 491.688, 660.376 488.250 C 659.375 484.813, 658.206 482, 657.778 482 C 657.350 482, 657 481.126, 657 480.057 C 657 477.230, 653.171 471.189, 650.927 470.477 C 649.867 470.141, 648.990 469.333, 648.978 468.683 C 648.940 466.574, 639.380 457.478, 634.550 454.955 C 631.966 453.605, 626.847 449.897, 623.175 446.715 C 619.504 443.532, 614.143 439.565, 611.263 437.898 C 608.382 436.232, 605.682 434.331, 605.263 433.674 C 604.598 432.634, 599.056 428.572, 594.110 425.500 C 593.224 424.950, 590.308 422.978, 587.629 421.119 C 584.950 419.259, 577.525 415.387, 571.129 412.515 C 556.269 405.842, 548.934 402.154, 546.816 400.291 C 545.890 399.476, 543.865 398.661, 542.316 398.479 C 539.210 398.115, 516.185 390.163, 502.048 384.572 C 497.079 382.608, 492.448 380.997, 491.757 380.994 C 491.066 380.990, 489.150 380.281, 487.500 379.417 C 480.624 375.818, 466.855 371.132, 461.377 370.526 C 458.145 370.168, 454.375 369.744, 453 369.584 C 451.625 369.424, 446.900 369.615, 442.500 370.008" stroke="#aa444d" fill="#aa444d" fill-opacity="0.2" fill-rule="evenodd"/><path class="svg-region-Or" d="M 1372.917 320.411 C 1372.688 320.637, 1370.925 321.014, 1369 321.248 C 1367.075 321.481, 1364.825 321.952, 1364 322.293 C 1363.175 322.634, 1358 324.016, 1352.500 325.364 C 1342.294 327.865, 1336.142 330.399, 1325.500 336.483 C 1322.200 338.369, 1318.600 340.333, 1317.500 340.846 C 1311.239 343.769, 1287.374 357.990, 1280.794 362.720 C 1272.850 368.429, 1264.316 376.864, 1253 390.189 C 1245.989 398.445, 1237 410.285, 1237 411.264 C 1237 411.596, 1234.525 415.158, 1231.500 419.179 C 1228.475 423.200, 1226 427.055, 1226 427.745 C 1226 428.435, 1225.662 429.004, 1225.250 429.008 C 1224.838 429.012, 1224.005 430.025, 1223.399 431.258 C 1222.037 434.031, 1217.259 442.969, 1216.053 445 C 1214.114 448.263, 1210.888 456.317, 1210.315 459.324 C 1209.982 461.071, 1208.312 465.200, 1206.605 468.500 L 1203.500 474.500 1203.065 504.500 C 1202.826 521, 1202.608 542.375, 1202.580 552 L 1202.529 569.500 1206.199 577.500 C 1208.642 582.824, 1210.811 586.077, 1212.685 587.226 C 1216.080 589.308, 1221.338 595.048, 1224.846 600.500 C 1229.451 607.658, 1242 631.909, 1242 633.651 C 1242 634.335, 1243.125 637.010, 1244.500 639.596 C 1245.875 642.182, 1247 645.399, 1247 646.745 C 1247 651.594, 1255.096 662.980, 1259.525 664.361 C 1260.639 664.708, 1263.116 666.513, 1265.029 668.371 C 1268.232 671.482, 1284.618 680, 1287.399 680 C 1288.060 680, 1289.028 680.424, 1289.550 680.942 C 1290.073 681.460, 1292.750 682.183, 1295.500 682.549 C 1298.250 682.915, 1300.828 683.412, 1301.229 683.654 C 1301.630 683.895, 1305.455 684.486, 1309.729 684.966 C 1318.061 685.903, 1328.677 684.134, 1339.500 680.005 C 1347.034 677.131, 1366.296 677.127, 1379.500 679.995 C 1393.228 682.978, 1407.547 682.445, 1417.173 678.594 C 1422.333 676.530, 1425.620 675.911, 1431.673 675.866 C 1436.212 675.833, 1440.351 675.270, 1441.526 674.528 C 1442.640 673.824, 1447.547 672.716, 1452.429 672.066 C 1463.594 670.580, 1467.233 669.318, 1476.057 663.871 C 1479.952 661.467, 1484.489 658.754, 1486.139 657.843 C 1487.788 656.931, 1489.930 655.468, 1490.898 654.593 C 1491.866 653.717, 1493.072 652.997, 1493.579 652.994 C 1494.085 652.991, 1497.650 650.454, 1501.500 647.357 C 1505.350 644.259, 1511.859 640.179, 1515.965 638.289 C 1520.071 636.400, 1525.696 633.226, 1528.465 631.235 C 1536.174 625.694, 1546.136 615.124, 1549.487 608.930 C 1551.144 605.866, 1553.933 600.950, 1555.685 598.005 C 1557.437 595.060, 1559.647 589.467, 1560.597 585.576 C 1561.547 581.684, 1563.641 575.575, 1565.251 572 C 1566.860 568.425, 1569.004 562.350, 1570.013 558.500 C 1571.023 554.650, 1572.515 549.654, 1573.328 547.398 C 1576.191 539.456, 1577.309 528.391, 1576.733 513.701 C 1576.239 501.092, 1575.819 498.491, 1572.984 490.500 C 1571.227 485.550, 1569.388 481.350, 1568.895 481.167 C 1568.403 480.983, 1568 479.915, 1568 478.792 C 1568 475.921, 1563.134 465.176, 1559.942 461 C 1558.471 459.075, 1556.927 456.409, 1556.511 455.076 C 1556.095 453.743, 1553.865 450.593, 1551.555 448.076 C 1545.259 441.215, 1531.792 425.096, 1528.170 420.086 C 1523.004 412.939, 1515.306 405.282, 1508.940 400.959 C 1505.673 398.741, 1503 396.504, 1503 395.988 C 1503 395.473, 1501.537 394.297, 1499.750 393.375 C 1496.713 391.808, 1490.479 387.033, 1479.023 377.500 C 1476.380 375.300, 1471.192 370.125, 1467.496 366 C 1463.800 361.875, 1457.789 355.894, 1454.138 352.709 C 1446.621 346.152, 1426.034 332.037, 1421.500 330.332 C 1419.850 329.711, 1416.250 328.278, 1413.500 327.148 C 1405.687 323.936, 1387.176 319.995, 1379.917 319.998 C 1376.296 319.999, 1373.146 320.185, 1372.917 320.411" stroke="#aa444d" fill="#aa444d" fill-opacity="0.2" fill-rule="evenodd"/><path class="svg-region-LBPCl" d="M 695.160 418.250 C 695.338 423.918, 694.877 426.759, 693.046 431.269 C 691.758 434.441, 690.916 437.249, 691.176 437.509 C 691.435 437.769, 696.348 437.456, 702.092 436.814 L 712.537 435.647 722.518 440.472 C 728.008 443.125, 734.793 446.992, 737.595 449.064 C 740.894 451.502, 744.301 453.073, 747.258 453.516 C 752.013 454.229, 757.311 458.255, 758.524 462.077 C 759.350 464.677, 760.773 464.506, 761.252 461.750 C 761.642 459.508, 761.647 459.509, 762.712 462 C 764.366 465.866, 774.692 476, 776.978 476 C 778.090 476, 779 476.450, 779 477 C 779 477.550, 779.806 478, 780.791 478 C 783.346 478, 801.077 483.842, 803.697 485.547 C 805.222 486.539, 807.286 486.785, 810.447 486.352 C 813.545 485.928, 815 486.091, 815 486.864 C 815 487.544, 816.808 488, 819.500 488 C 824.361 488, 824.760 487.371, 822.576 483.146 C 820.440 479.017, 792.862 452.651, 788.060 450.148 C 785.761 448.950, 780.429 447.457, 776.209 446.829 C 769.280 445.799, 767.988 445.230, 762.854 440.958 C 757.463 436.471, 747.161 432, 742.216 432 C 737.688 432, 721.751 425.532, 711.500 419.535 C 705.551 416.054, 695.945 411, 695.279 411 C 695.089 411, 695.035 414.262, 695.160 418.250" stroke="#daffff" fill="#daffff" fill-opacity="0.2" fill-rule="evenodd"/><path class="svg-region-LBPCr" d="M 1159.093 379.817 C 1158.022 381.916, 1156.438 384.221, 1155.573 384.939 C 1154.708 385.657, 1154 386.694, 1154 387.243 C 1154 388.778, 1142.324 400.539, 1134.500 406.886 C 1126.689 413.222, 1123.287 415, 1118.974 415 C 1117.361 415, 1113.220 415.874, 1109.771 416.941 C 1106.322 418.009, 1102.275 419.140, 1100.778 419.453 C 1099.280 419.767, 1097.255 420.824, 1096.278 421.801 C 1093.857 424.222, 1086.992 428.550, 1084.139 429.456 C 1081.894 430.168, 1079.392 432.239, 1063.107 446.862 C 1050.201 458.449, 1043.876 465.673, 1039.098 474.280 C 1036.740 478.529, 1036.180 482.220, 1038.200 480.200 C 1039.722 478.678, 1042.715 478.644, 1043.214 480.143 C 1043.444 480.833, 1046.198 479.643, 1050.156 477.143 C 1053.764 474.864, 1057.580 473, 1058.636 473 C 1059.691 473, 1061.582 472.280, 1062.838 471.401 C 1065.101 469.816, 1066.143 469.829, 1076.295 471.576 C 1080.739 472.341, 1083.523 470.449, 1084.500 466 C 1084.837 464.464, 1085.947 462.453, 1086.965 461.531 C 1087.984 460.610, 1089.363 458.538, 1090.030 456.928 C 1090.697 455.317, 1091.707 454, 1092.273 454 C 1093.411 454, 1099.786 449.461, 1106.448 443.908 C 1108.818 441.932, 1114.299 437.572, 1118.629 434.219 C 1122.958 430.866, 1128.190 425.853, 1130.256 423.079 C 1132.562 419.983, 1135.072 417.776, 1136.756 417.364 C 1138.265 416.994, 1141.786 415.411, 1144.581 413.846 C 1149.730 410.962, 1154.373 410.177, 1155.500 412 C 1157.242 414.818, 1157.666 412.350, 1156.278 407.471 C 1154.765 402.155, 1154.783 401.858, 1156.736 399.721 C 1159.591 396.597, 1161.496 392.454, 1163.271 385.500 C 1164.113 382.200, 1165.120 378.712, 1165.508 377.750 C 1166.072 376.352, 1165.693 376, 1163.627 376 C 1161.637 376, 1160.592 376.880, 1159.093 379.817" stroke="#daffff" fill="#daffff" fill-opacity="0.2" fill-rule="evenodd"/><path class="svg-region-BPCl" d="M 833.382 544.445 C 832.248 545.239, 829.611 548.370, 827.523 551.403 C 824.237 556.173, 823.798 557.457, 824.264 560.931 C 824.775 564.744, 826.832 568, 828.729 568 C 829.209 568, 830.885 570.031, 832.454 572.513 C 834.023 574.996, 836.753 577.921, 838.521 579.013 C 842.152 581.257, 847.253 581.624, 848.762 579.750 C 849.315 579.063, 850.089 572.359, 850.481 564.854 C 851.070 553.578, 850.947 551.060, 849.773 550.354 C 848.991 549.884, 847.288 548.038, 845.988 546.250 C 843.987 543.499, 842.997 543, 839.534 543 C 837.285 543, 834.517 543.650, 833.382 544.445" stroke="#83385f" fill="#83385f" fill-opacity="0.2" fill-rule="evenodd"/><path class="svg-region-BPCr" d="M 1029.500 531.938 C 1028.400 532.384, 1024.194 533.080, 1020.152 533.486 C 1013.018 534.201, 1012.764 534.320, 1011.402 537.579 C 1010.631 539.425, 1009.986 543.763, 1009.968 547.218 C 1009.948 551.149, 1009.387 554.226, 1008.468 555.441 C 1006.164 558.488, 1006.651 559.790, 1012.067 565.065 C 1018.849 571.671, 1021.745 571.764, 1024.801 565.473 C 1026.196 562.602, 1027.006 559.036, 1027.017 555.723 C 1027.029 552.094, 1028.092 547.905, 1030.500 542 C 1035.096 530.730, 1034.994 529.710, 1029.500 531.938" stroke="#83385f" fill="#83385f" fill-opacity="0.2" fill-rule="evenodd"/>
    </svg>