<svg xmlns="http://www.w3.org/2000/svg" width="1921" height="1027" viewBox="0 0 1921 1027" version="1.1">
    <path class="svg-region-V" d="M 849.500 212.607 C 846.200 213.325, 842.107 213.932, 840.404 213.956 C 838.701 213.980, 835.963 214.671, 834.320 215.490 C 829.973 217.659, 814.853 218.958, 792.296 219.101 C 777.706 219.194, 770.002 219.707, 763 221.052 C 757.775 222.056, 751.250 223.165, 748.500 223.517 C 745.750 223.869, 739.308 225.472, 734.183 227.079 C 729.059 228.685, 724.023 230, 722.992 230 C 721.961 230, 720.834 230.460, 720.486 231.022 C 720.139 231.585, 717.261 233.354, 714.091 234.954 C 708.308 237.874, 702.716 243.169, 701.555 246.826 C 701.213 247.903, 700.133 248.994, 699.154 249.250 C 697.919 249.573, 696.818 251.824, 695.558 256.607 C 694.560 260.398, 693.163 264.850, 692.455 266.500 C 691.747 268.150, 690.944 270.850, 690.670 272.500 C 690.396 274.150, 689.621 277.442, 688.948 279.815 C 687.794 283.882, 687.907 284.495, 690.920 290.491 C 692.678 293.989, 694.789 297.410, 695.612 298.093 C 698.613 300.584, 712.923 302.239, 717.500 300.625 C 718.953 300.113, 721.685 301.303, 727.484 304.975 C 742.183 314.284, 742.108 314.270, 776 313.690 C 792.225 313.412, 808.802 312.664, 812.838 312.028 C 819.026 311.053, 820.894 311.117, 824.766 312.436 C 827.291 313.296, 830.994 314, 832.997 314 C 834.999 314, 838.856 314.648, 841.568 315.440 C 851.595 318.368, 865.579 319.140, 893.500 318.306 C 908.350 317.863, 922.075 317.599, 924 317.719 C 952.706 319.515, 959.021 320.051, 961.993 320.947 C 967.299 322.546, 995.640 322.286, 1001.568 320.584 C 1004.281 319.805, 1008.525 318.852, 1011 318.466 C 1013.475 318.080, 1016.850 317.063, 1018.500 316.207 C 1020.803 315.012, 1025.217 314.613, 1037.500 314.488 C 1053.341 314.328, 1061.574 312.975, 1072.426 308.751 C 1074.035 308.124, 1079.660 307.560, 1084.926 307.497 C 1094.821 307.379, 1103 305.138, 1103 302.546 C 1103 301.101, 1106.077 298.145, 1109.202 296.587 C 1113.043 294.672, 1114.846 290.097, 1115.577 280.413 C 1116.058 274.038, 1115.879 270.157, 1114.979 267.413 C 1113.379 262.538, 1100.595 249.003, 1097.581 248.994 C 1096.436 248.990, 1094.150 248.249, 1092.500 247.346 C 1090.465 246.232, 1086.444 245.608, 1080 245.405 C 1071.318 245.132, 1068.455 244.651, 1059.500 241.964 C 1057.850 241.469, 1053.800 240.771, 1050.500 240.413 C 1047.027 240.036, 1041.855 238.485, 1038.220 236.729 C 1031.010 233.247, 1021.074 232.136, 1012.029 233.800 C 1007.872 234.566, 1005.712 234.487, 1003.029 233.475 C 1001.088 232.742, 995.071 231.651, 989.659 231.051 C 984.246 230.451, 977.271 229.124, 974.159 228.103 C 965.556 225.281, 964.070 225.050, 953.634 224.917 C 947.421 224.837, 943.439 225.221, 942.514 225.989 C 941.147 227.123, 933.957 228.433, 922.217 229.688 C 916.285 230.322, 907.849 228.152, 902 224.486 C 900.075 223.280, 895.911 221.069, 892.748 219.573 C 889.584 218.077, 886.357 216.214, 885.577 215.434 C 882.394 212.251, 859.410 210.450, 849.500 212.607" stroke="#dd8a8a" fill="#dd8a8a" fill-opacity="0.2" fill-rule="evenodd"/><path class="svg-region-DB" d="M 690.817 298.718 C 687.261 300.924, 687.030 302.129, 687.014 318.548 L 687 332.596 690.861 340.548 C 692.984 344.922, 694.995 349.625, 695.329 351 C 695.664 352.375, 696.971 354.625, 698.235 356 C 700.481 358.445, 706.035 372.854, 706.012 376.178 C 706.002 377.609, 705.206 377.774, 700.597 377.298 C 695.384 376.760, 695.061 376.872, 691.457 380.477 L 687.720 384.213 688.317 391.857 C 688.646 396.060, 689.551 401.300, 690.330 403.500 C 691.666 407.277, 691.949 407.483, 695.398 407.204 C 698.369 406.962, 699.491 407.429, 701.411 409.704 C 703.508 412.189, 713.627 417.973, 719.750 420.187 C 720.987 420.634, 723.013 421.444, 724.250 421.987 C 727.612 423.462, 737.983 426.199, 742.250 426.737 C 745.819 427.187, 746 427.072, 745.994 424.355 C 745.990 422.785, 745.315 420.211, 744.494 418.636 C 742.619 415.040, 742.593 411.939, 744.418 409.441 C 745.695 407.693, 747.063 407.508, 758.168 407.579 C 764.951 407.622, 776.403 408.022, 783.618 408.467 C 795.872 409.223, 796.991 409.139, 800.618 407.189 C 809.602 402.357, 814.912 400.716, 819.519 401.347 C 822.112 401.703, 825.045 401.481, 826.496 400.820 C 828.955 399.700, 829.902 398, 828.067 398 C 827.554 398, 826.877 397.188, 826.562 396.194 C 826.247 395.201, 823.966 391.310, 821.494 387.546 C 819.022 383.783, 817 379.672, 817 378.411 C 817 377.150, 816.550 375.840, 816 375.500 C 815.450 375.160, 815 373.881, 815 372.657 C 815 371.200, 813.877 369.779, 811.750 368.542 C 807.671 366.172, 804.286 362.690, 800.801 357.281 C 798.086 353.066, 793.023 350.027, 788.628 349.974 C 787.458 349.960, 784.046 348.385, 781.046 346.474 C 778.047 344.563, 775.234 343, 774.796 343 C 772.530 343, 765 330.846, 765 327.187 C 765 326.572, 764.352 324.590, 763.561 322.784 C 762.770 320.978, 761.875 318.318, 761.573 316.873 C 761.039 314.321, 760.774 314.234, 752.262 313.820 C 742.612 313.350, 734.741 310.495, 727.803 304.947 C 722.512 300.717, 719.244 299.656, 715.839 301.067 C 714.302 301.703, 711.572 301.983, 709.772 301.687 C 702.584 300.509, 696.531 298.931, 695.591 297.991 C 694.299 296.699, 693.996 296.746, 690.817 298.718 M 1100 304.925 C 1095.423 307.053, 1092.990 307.490, 1085.500 307.529 C 1079.683 307.560, 1074.113 308.266, 1069.750 309.526 C 1063.175 311.424, 1063 311.561, 1063 314.773 C 1063 316.586, 1062.218 319.292, 1061.262 320.785 C 1059.189 324.023, 1052.183 331, 1051.005 331 C 1049.932 331, 1044 339.046, 1044 340.501 C 1044 341.110, 1042.516 343.046, 1040.702 344.804 C 1038.175 347.253, 1036.522 348, 1033.625 348 C 1030.782 348, 1029.123 348.724, 1026.923 350.923 C 1025.315 352.531, 1024 354.485, 1024 355.266 C 1024 356.684, 1013.817 368, 1012.541 368 C 1012.170 368, 1010.330 369.172, 1008.452 370.605 C 1005.322 372.991, 1004.175 373.222, 994.751 373.355 C 985.062 373.492, 984.552 373.601, 985.955 375.250 C 986.774 376.212, 987.842 377, 988.328 377 C 989.477 377, 996.754 382.681, 1000.151 386.230 C 1001.609 387.754, 1003.657 389, 1004.701 389 C 1005.746 389, 1007.107 389.507, 1007.726 390.126 C 1009.949 392.349, 1020.026 390.580, 1026.549 386.821 C 1035.040 381.929, 1037.794 381.140, 1050.538 379.954 C 1056.721 379.379, 1064.185 378.029, 1067.125 376.954 C 1073.091 374.774, 1076 374.478, 1076 376.052 C 1076 376.631, 1077.332 377.568, 1078.959 378.136 C 1080.587 378.703, 1082.192 380.030, 1082.527 381.084 C 1083.362 383.716, 1085.069 383.497, 1091 380 C 1093.798 378.350, 1096.901 377, 1097.895 377 C 1100.258 377, 1109.272 372.206, 1110.300 370.403 C 1110.740 369.631, 1111.504 369, 1112 369 C 1112.495 369, 1114.900 367.650, 1117.345 366 C 1119.790 364.350, 1122.209 363, 1122.721 363 C 1123.233 363, 1124.630 361.958, 1125.826 360.686 C 1127.847 358.534, 1128 357.374, 1128 344.186 C 1128 336.383, 1127.649 330, 1127.219 330 C 1126.790 330, 1125.959 328.729, 1125.372 327.176 C 1123.801 323.011, 1116.877 314.485, 1114 313.170 C 1112.625 312.541, 1110.600 310.580, 1109.500 308.812 C 1108.400 307.044, 1107.050 304.871, 1106.500 303.983 C 1105.600 302.530, 1104.946 302.625, 1100 304.925" stroke="#e8b1e4" fill="#e8b1e4" fill-opacity="0.2" fill-rule="evenodd"/><path class="svg-region-MB" d="M 811 312.121 C 808.525 312.600, 796.287 313.283, 783.803 313.638 L 761.107 314.284 761.696 317.392 C 762.020 319.101, 762.896 321.715, 763.643 323.200 C 764.389 324.686, 765.004 326.486, 765.010 327.200 C 765.037 330.781, 772.361 343, 774.481 343 C 774.745 343, 777.423 344.575, 780.433 346.500 C 783.442 348.425, 786.996 350, 788.330 350 C 792.966 350, 798.009 352.947, 800.792 357.281 C 804.803 363.530, 808.083 366.946, 811.738 368.680 C 813.733 369.626, 815 370.966, 815 372.128 C 815 373.172, 815.423 374.809, 815.940 375.764 C 816.456 376.719, 817.118 378.652, 817.411 380.059 C 817.703 381.467, 819.062 384.167, 820.431 386.059 C 821.800 387.952, 823.898 391.300, 825.094 393.500 C 827.808 398.493, 828.538 398.966, 833.550 398.985 C 838.873 399.005, 840 400.342, 840 406.641 C 840 409.524, 840.404 412.131, 840.897 412.436 C 841.731 412.951, 851.985 407.410, 856.510 404 C 857.604 403.175, 861.171 399.410, 864.436 395.634 C 867.701 391.858, 873.516 386.683, 877.357 384.134 C 881.199 381.585, 886.545 377.174, 889.238 374.332 C 894.536 368.741, 899.233 366, 903.516 366 C 905.008 366, 908.380 364.830, 911.008 363.399 C 915.664 360.865, 916.128 360.813, 929.143 361.367 C 954.520 362.448, 966.625 364.744, 978.947 370.816 C 983.851 373.232, 985.401 373.486, 994.486 373.362 C 1003.811 373.234, 1004.929 373.001, 1009.207 370.288 C 1014.874 366.694, 1022.411 359.071, 1024.595 354.724 C 1026.867 350.205, 1029.911 348.048, 1034.054 348.022 C 1036.744 348.005, 1038.384 347.199, 1040.804 344.702 C 1042.562 342.889, 1044 341.057, 1044 340.633 C 1044 339.343, 1050.034 331, 1050.966 331 C 1052.176 331, 1059.156 324.074, 1061.262 320.785 C 1062.218 319.292, 1063 316.652, 1063 314.919 C 1063 312.124, 1062.745 311.840, 1060.750 312.416 C 1055.453 313.944, 1038.821 315.148, 1030.616 314.598 C 1022.958 314.085, 1021.301 314.267, 1018.616 315.914 C 1016.902 316.965, 1013.250 318.134, 1010.500 318.513 C 1007.750 318.891, 1003.572 319.831, 1001.215 320.600 C 996.044 322.289, 967.325 322.550, 961.993 320.956 C 956.452 319.299, 928.144 317.830, 908.500 318.180 C 873.230 318.807, 854.934 318.319, 847 316.539 C 842.875 315.614, 836.575 314.488, 833 314.037 C 829.425 313.587, 825.233 312.719, 823.685 312.109 C 820.507 310.857, 817.517 310.860, 811 312.121" stroke="#f9c6c6" fill="#f9c6c6" fill-opacity="0.2" fill-rule="evenodd"/><path class="svg-region-LBl" d="M 827 400.457 C 825.348 401.372, 822.880 401.652, 819.728 401.279 C 814.711 400.687, 811.108 401.766, 801.665 406.690 C 797.047 409.098, 796.309 409.182, 785.165 408.583 C 748.860 406.631, 747.357 406.643, 745.096 408.904 C 742.792 411.208, 742.318 415.918, 744.200 417.800 C 744.860 418.460, 746.403 419, 747.629 419 C 748.855 419, 752.569 420.800, 755.881 423 C 759.193 425.200, 762.391 427, 762.987 427 C 764.259 427, 768.098 429.357, 773 433.148 C 774.925 434.637, 779.200 437.307, 782.500 439.081 C 790.744 443.514, 801.569 451.112, 807.185 456.407 C 810.632 459.657, 812.284 462.218, 813.435 466.094 C 815.544 473.196, 815.510 473.373, 811.455 476.467 C 808.104 479.022, 807.777 479.084, 805.490 477.585 C 801.289 474.833, 800 475.492, 800 480.392 C 800 484.252, 800.305 484.860, 802.521 485.416 C 803.907 485.764, 805.949 485.563, 807.058 484.969 C 810.703 483.018, 816.712 486.337, 820.311 492.289 C 822.574 496.033, 823.785 496.964, 826.421 496.985 C 827.478 496.993, 829.165 497.745, 830.171 498.655 C 831.928 500.245, 831.999 500, 831.985 492.405 C 831.970 484.509, 831.004 480.450, 827.643 474.164 C 825.611 470.363, 825.600 462.988, 827.619 458.891 C 829.098 455.892, 832.401 454.370, 839.500 453.418 C 842.250 453.049, 845.133 452.242, 845.907 451.624 C 846.728 450.968, 851.308 450.500, 856.907 450.500 L 866.500 450.500 866.322 447.824 C 866.222 446.328, 864.134 442.681, 861.587 439.554 C 854.044 430.293, 853.512 428.814, 853.571 417.250 C 853.600 411.613, 853.335 407, 852.983 407 C 852.631 407, 850.232 408.398, 847.653 410.107 C 841.800 413.984, 840 413.036, 840 406.078 C 840 403.505, 839.460 400.860, 838.800 400.200 C 837.186 398.586, 830.097 398.740, 827 400.457" stroke="#d7b230" fill="#d7b230" fill-opacity="0.2" fill-rule="evenodd"/><path class="svg-region-LBr" d="M 1066.560 377.022 C 1063.625 378.168, 1056.781 379.371, 1049.693 379.986 C 1039.063 380.909, 1036.935 381.429, 1030.133 384.761 C 1025.935 386.817, 1022.275 388.726, 1022 389.002 C 1021.725 389.277, 1020.164 390.177, 1018.530 391.002 C 1016.897 391.826, 1013.860 394.188, 1011.780 396.250 C 1009.701 398.313, 1007.395 400, 1006.655 400 C 1005.915 400, 1004.473 400.925, 1003.450 402.055 C 1001.621 404.076, 1001.646 404.163, 1004.919 407.221 C 1008.179 410.269, 1008.236 410.467, 1007.719 416.908 C 1007.323 421.850, 1007.644 424.674, 1009.015 428.281 C 1010.389 431.899, 1010.612 433.867, 1009.919 436.283 C 1009.414 438.045, 1009 440.035, 1009 440.704 C 1009 442.465, 1012.966 445.931, 1016.858 447.572 C 1018.705 448.351, 1022.417 450.604, 1025.108 452.579 C 1028.864 455.336, 1030 456.796, 1030 458.863 C 1030 463.158, 1034.162 468.413, 1037.601 468.460 C 1040.224 468.496, 1040.872 467.761, 1044.461 460.672 C 1047.762 454.153, 1049.808 451.644, 1056.688 445.672 C 1062.107 440.968, 1065.179 437.525, 1065.617 435.666 C 1065.984 434.107, 1068.582 430.568, 1071.392 427.801 C 1074.309 424.928, 1076.379 422.041, 1076.218 421.069 C 1076.063 420.133, 1076.851 418.540, 1077.968 417.529 C 1079.086 416.517, 1080 415.053, 1080 414.275 C 1080 413.497, 1081.268 410.979, 1082.818 408.680 C 1087.886 401.164, 1090 396.093, 1090 391.453 C 1090 387.329, 1089.724 386.836, 1086.570 385.332 C 1084.651 384.417, 1082.892 382.707, 1082.576 381.448 C 1082.243 380.119, 1080.783 378.771, 1079.006 378.152 C 1077.353 377.576, 1076 376.631, 1076 376.052 C 1076 374.464, 1072.081 374.867, 1066.560 377.022" stroke="#d7b230" fill="#d7b230" fill-opacity="0.2" fill-rule="evenodd"/><path class="svg-region-PP" d="M 979 439.146 C 973.575 441.649, 968.274 443.808, 963.500 445.459 C 960.750 446.410, 957.014 447.854, 955.197 448.667 C 941.111 454.968, 928.619 456.307, 910 453.509 C 903.675 452.559, 892.425 451.636, 885 451.459 C 877.575 451.282, 866.168 450.982, 859.651 450.793 C 851.934 450.570, 847.227 450.844, 846.151 451.581 C 845.243 452.203, 842.060 453.027, 839.077 453.413 C 829.143 454.698, 826.057 457.673, 826.019 466 C 826.003 469.645, 826.728 473.017, 828.170 476 C 831.652 483.200, 831.820 483.963, 832.356 495.052 C 832.672 501.597, 833.442 506.723, 834.384 508.552 C 838.637 516.810, 840 520.997, 840 525.801 C 840 530.149, 841.671 539.450, 842.718 540.927 C 842.884 541.162, 843.659 540.487, 844.439 539.427 C 845.835 537.530, 845.867 537.532, 846.509 539.500 C 846.868 540.600, 848.025 543.349, 849.081 545.610 C 850.136 547.870, 851 551.111, 851 552.812 C 851 554.514, 851.528 557.064, 852.173 558.480 C 852.996 560.287, 853.031 561.369, 852.290 562.110 C 851.185 563.215, 854.105 579.128, 855.826 581.379 C 856.298 581.996, 857.446 584.463, 858.379 586.863 C 859.974 590.967, 859.973 591.299, 858.372 592.470 C 857.208 593.321, 856.614 595.320, 856.492 598.800 C 856.329 603.425, 856.549 603.979, 858.906 604.895 C 860.333 605.449, 864.533 606.201, 868.240 606.567 C 872.443 606.981, 877.278 608.317, 881.080 610.115 C 884.435 611.702, 887.685 613, 888.302 613 C 888.919 613, 891.311 614.851, 893.616 617.114 C 897.662 621.085, 906.562 625.673, 912.250 626.721 C 914.670 627.166, 915 626.917, 915 624.649 C 915 622.996, 915.808 621.640, 917.250 620.873 C 921.862 618.417, 924.817 613.773, 926.056 607.032 C 926.716 603.439, 927.942 599.714, 928.781 598.753 C 930.207 597.118, 930.582 597.298, 934.587 601.538 C 936.941 604.030, 939.362 607.566, 939.965 609.394 C 940.715 611.666, 942.240 613.317, 944.781 614.609 C 946.827 615.649, 948.815 616.940, 949.200 617.478 C 949.585 618.016, 953.294 618.627, 957.443 618.837 C 964.541 619.195, 965.280 619.029, 969.993 616.005 C 972.747 614.237, 975 612.421, 975 611.968 C 975 610.800, 986.991 605.280, 991.276 604.476 C 993.248 604.106, 995.071 603.258, 995.326 602.592 C 995.582 601.925, 998.538 600.548, 1001.896 599.532 C 1005.253 598.515, 1008 597.136, 1008 596.467 C 1008 595.798, 1008.279 593.853, 1008.621 592.146 C 1009.160 589.450, 1008.897 588.912, 1006.621 588.046 C 1004.617 587.284, 1004 586.361, 1004 584.121 C 1004 578.815, 1007.756 562.398, 1009.958 558.083 C 1011.698 554.671, 1011.880 553.560, 1010.891 552.368 C 1009.156 550.278, 1009.045 531.819, 1010.764 531.246 C 1011.483 531.006, 1012.675 532.372, 1013.528 534.412 C 1014.352 536.385, 1015.381 538, 1015.813 538 C 1016.246 538, 1017.428 534.513, 1018.441 530.250 C 1019.453 525.987, 1021.163 519.125, 1022.240 515 C 1023.318 510.875, 1024.555 505.925, 1024.990 504 C 1027.496 492.907, 1028.883 485.905, 1029.496 481.252 C 1029.880 478.339, 1031.260 474.423, 1032.597 472.453 L 1035.006 468.903 1032.503 465.219 C 1031.126 463.193, 1030 460.293, 1030 458.774 C 1030 455.810, 1024.973 451.374, 1018 448.185 C 1016.075 447.304, 1013.600 445.831, 1012.500 444.911 C 1006.805 440.147, 984.975 436.391, 979 439.146" stroke="#c4743d" fill="#c4743d" fill-opacity="0.2" fill-rule="evenodd"/><path class="svg-region-DMl" d="M 694 428.980 C 694 429.519, 694.658 431.656, 695.462 433.730 C 696.266 435.803, 697.625 440.650, 698.480 444.500 C 699.336 448.350, 702.238 458.475, 704.929 467 C 707.621 475.525, 711.171 486.775, 712.818 492 C 717.808 507.828, 723.624 520.884, 728.672 527.594 C 729.952 529.296, 731 531.015, 731 531.413 C 731 531.812, 733.595 535.819, 736.767 540.319 C 739.938 544.819, 743.268 549.653, 744.166 551.062 C 746.692 555.024, 765.086 574, 766.401 574 C 767.043 574, 768.418 575.462, 769.457 577.250 C 770.496 579.038, 772.618 582.065, 774.173 583.978 C 775.728 585.891, 777 588.031, 777 588.734 C 777 590.903, 786.097 599.113, 790.675 601.075 C 793.061 602.098, 795.880 603.742, 796.940 604.729 C 797.999 605.716, 800.825 607.102, 803.219 607.809 C 807.114 608.959, 808.040 608.882, 812.036 607.074 C 815.984 605.288, 817.787 605.126, 827.629 605.673 C 836.468 606.164, 840.376 605.919, 846.629 604.485 C 855.897 602.358, 857.202 601.537, 856.801 598.086 C 856.570 596.101, 855.861 595.426, 853.750 595.184 C 851.180 594.888, 851.002 594.560, 851.035 590.184 C 851.055 587.608, 851.714 584.375, 852.500 583 C 854.110 580.183, 854.496 574, 853.062 574 C 852.546 574, 852.178 572.987, 852.245 571.750 C 852.490 567.209, 851.975 564, 851 564 C 850.450 564, 850 564.895, 850 565.989 C 850 568.505, 841.336 580, 839.440 580 C 837.843 580, 834.933 577.859, 830.800 573.644 C 828.337 571.132, 828 570.037, 828 564.543 C 828 559.805, 828.602 557.165, 830.495 553.605 C 833.279 548.369, 837.623 544.080, 840.191 544.032 C 842.841 543.982, 843.067 542.676, 841.479 536.581 C 840.666 533.458, 840 528.591, 840 525.767 C 840 522.936, 839.178 518.807, 838.169 516.566 C 833.701 506.648, 833 504.828, 833 503.140 C 833 500.749, 828.893 497, 826.274 497 C 824.283 497, 819 491.871, 819 489.937 C 819 489.437, 817.170 487.817, 814.934 486.337 C 811.311 483.940, 810.519 483.772, 807.684 484.796 C 802.257 486.756, 800.148 485.515, 799.801 480.156 C 799.575 476.680, 799.062 475.435, 797.750 475.186 C 796.684 474.983, 796 475.468, 796 476.427 C 796 478.708, 789.839 478.469, 785 476 C 782.844 474.900, 780.096 474, 778.895 474 C 777.502 474, 773.953 471.229, 769.105 466.355 C 759.796 456.998, 754.461 453, 751.284 453 C 748.279 453, 745.746 451.672, 740 447.085 C 734.813 442.944, 732.846 441.658, 728 439.244 C 726.075 438.285, 723.354 436.232, 721.953 434.682 C 719.568 432.043, 718.774 431.829, 709.453 431.317 C 703.625 430.996, 698.582 430.196, 697.285 429.385 C 694.661 427.744, 694 427.663, 694 428.980" stroke="#68533d" fill="#68533d" fill-opacity="0.2" fill-rule="evenodd"/><path class="svg-region-DMr" d="M 1137.209 419.416 C 1134.766 420.073, 1131.967 421.733, 1130.709 423.270 C 1129.494 424.755, 1126.161 427.665, 1123.303 429.735 C 1113.180 437.069, 1103.481 444.686, 1102.043 446.433 C 1101.242 447.406, 1098.317 449.710, 1095.543 451.552 C 1092.770 453.394, 1088.488 456.330, 1086.028 458.077 C 1080.908 461.715, 1073.320 464.426, 1064.127 465.904 C 1060.622 466.467, 1055.789 467.679, 1053.387 468.596 C 1049.624 470.033, 1048.172 470.097, 1042.892 469.058 C 1036.880 467.876, 1036.710 467.903, 1034.003 470.497 C 1032.088 472.332, 1030.901 474.880, 1030.126 478.821 C 1026.756 495.952, 1025.593 501.179, 1021.187 519 L 1016.365 538.500 1020.601 538.801 C 1025.028 539.117, 1026.899 540.827, 1028.472 546 C 1028.890 547.375, 1030.305 549.932, 1031.616 551.683 C 1034.244 555.192, 1034.670 558.225, 1032.750 559.743 C 1032.063 560.287, 1028.503 561.025, 1024.840 561.384 C 1017.590 562.095, 1015.808 561.257, 1013.900 556.236 C 1012.607 552.836, 1010.822 554.538, 1008.493 561.390 C 1006.791 566.398, 1006.772 567.003, 1008.248 569.256 C 1009.227 570.749, 1011.635 572.198, 1014.450 572.986 C 1016.981 573.695, 1019.208 574.550, 1019.398 574.887 C 1019.589 575.224, 1020.055 577.638, 1020.434 580.250 C 1021.106 584.886, 1021.060 585, 1018.495 585 C 1014.521 585, 1009.172 589.568, 1008.414 593.609 C 1007.293 599.582, 1008.379 600, 1024.997 600 C 1035.553 600, 1040.958 600.427, 1044 601.500 C 1046.338 602.325, 1051.083 603, 1054.544 603 C 1061.791 603, 1066.861 600.876, 1079.156 592.687 C 1087.325 587.247, 1090 583.942, 1090 579.291 C 1090 576.817, 1091.879 572.926, 1096.500 565.834 C 1101.996 557.399, 1104.017 554.559, 1108.841 548.500 C 1111.905 544.650, 1117.200 538.552, 1120.607 534.950 C 1124.014 531.347, 1127.785 526.308, 1128.987 523.751 C 1130.189 521.194, 1131.809 518.574, 1132.586 517.928 C 1133.364 517.283, 1134 515.965, 1134 515 C 1134 514.035, 1134.675 512.685, 1135.500 512 C 1136.325 511.315, 1137 510.297, 1137 509.737 C 1137 508.425, 1141.260 499.677, 1142.261 498.934 C 1143.384 498.100, 1150.157 481.957, 1150.735 478.738 C 1151.007 477.219, 1151.629 475.729, 1152.115 475.429 C 1152.602 475.128, 1152.995 473.896, 1152.990 472.691 C 1152.984 471.486, 1153.850 467.800, 1154.914 464.500 C 1155.978 461.200, 1157.613 455.800, 1158.548 452.500 C 1159.484 449.200, 1160.612 445.769, 1161.055 444.875 C 1161.498 443.981, 1162.167 438.806, 1162.541 433.375 C 1163.123 424.938, 1163.024 423.757, 1161.861 425.263 C 1160.616 426.875, 1160.296 426.640, 1158.111 422.513 L 1155.722 418 1148.611 418.131 C 1144.700 418.202, 1139.569 418.781, 1137.209 419.416" stroke="#68533d" fill="#68533d" fill-opacity="0.2" fill-rule="evenodd"/><path class="svg-region-Ol" d="M 439.376 376.413 C 433.532 377.914, 420.028 382.877, 418.439 384.109 C 417.856 384.561, 414.481 386.442, 410.939 388.290 C 400.616 393.676, 394.907 396.953, 393.549 398.271 C 392.853 398.947, 390.315 400.625, 387.909 402 C 383.312 404.627, 370 417.117, 370 418.803 C 370 419.344, 369.321 420.047, 368.491 420.365 C 367.661 420.684, 367.098 421.307, 367.241 421.750 C 367.383 422.193, 365.925 424.143, 364 426.083 C 352.369 437.803, 342.820 455.494, 329.500 490 C 326.421 497.975, 323.024 506.425, 321.951 508.777 C 320.878 511.129, 320 513.985, 320 515.122 C 320 516.260, 319.261 518.611, 318.357 520.346 C 317.454 522.081, 316.251 524.400, 315.684 525.500 C 315.117 526.600, 314.281 529.188, 313.827 531.250 C 312.264 538.338, 311.181 542.515, 309.092 549.497 C 307.942 553.345, 307 557.552, 307 558.846 C 307 560.139, 306.243 562.793, 305.318 564.742 C 303.786 567.971, 303.743 570.094, 304.836 588.578 C 306.686 619.854, 309.454 628.063, 326.620 653.175 C 330.744 659.208, 334.429 664.947, 334.809 665.927 C 335.189 666.908, 336.960 669.463, 338.745 671.605 C 340.530 673.747, 344.437 678.425, 347.427 682 C 350.417 685.575, 355.440 690.750, 358.588 693.500 C 361.736 696.250, 366.131 700.150, 368.355 702.167 C 374.423 707.671, 393.129 716.674, 410.408 722.406 C 419.833 725.533, 440.598 727.677, 463.929 727.934 C 472.415 728.027, 479.675 728.299, 480.062 728.538 C 480.448 728.777, 484.080 729.012, 488.132 729.061 C 492.185 729.109, 499.550 729.580, 504.500 730.108 C 514.608 731.185, 521.558 731.262, 568.500 730.814 C 593.305 730.578, 602.493 730.157, 605.500 729.118 C 607.700 728.358, 612.200 726.810, 615.500 725.678 C 625.050 722.404, 631.197 719.342, 639.161 713.893 C 640.624 712.892, 644.374 710.691, 647.494 709.003 C 652.472 706.310, 659.902 700.744, 668 693.642 C 674.452 687.984, 680.017 678.801, 680.588 672.871 C 680.789 670.781, 681.828 665.732, 682.898 661.650 C 683.967 657.568, 685.372 648.889, 686.020 642.364 C 686.669 635.839, 687.574 629.533, 688.032 628.351 C 688.491 627.169, 688.620 625.264, 688.321 624.118 C 688.021 622.973, 688.528 618.967, 689.447 615.218 C 690.877 609.379, 690.967 606.686, 690.069 596.450 C 689.492 589.878, 689.016 578.096, 689.010 570.269 C 688.999 554.172, 687.789 544.236, 684.779 535.500 C 683.641 532.200, 682.523 527.925, 682.293 526 C 682.064 524.075, 681.502 521.600, 681.045 520.500 C 680.588 519.400, 679.227 514.919, 678.022 510.543 C 676.816 506.167, 674.922 500.767, 673.813 498.543 C 671.759 494.427, 664.240 482.532, 660.827 478 C 659.792 476.625, 657.598 473.475, 655.952 471 C 654.306 468.525, 649.406 462.450, 645.065 457.500 C 640.723 452.550, 634.770 445.377, 631.835 441.561 C 626.349 434.425, 619.944 429.481, 607.234 422.569 C 603.530 420.555, 597.800 416.642, 594.500 413.874 C 591.200 411.106, 586.475 407.809, 584 406.549 C 578.382 403.687, 559.253 397.200, 554.813 396.651 C 552.991 396.426, 550.375 395.799, 549 395.257 C 547.625 394.716, 544.268 393.944, 541.539 393.543 C 538.811 393.142, 534.311 392.027, 531.539 391.065 C 528.768 390.104, 524.025 388.581, 521 387.682 C 517.975 386.783, 513.374 385.371, 510.776 384.544 C 508.178 383.718, 499.628 381.403, 491.776 379.401 C 478.720 376.073, 476.090 375.733, 461 375.429 C 449.620 375.200, 442.910 375.505, 439.376 376.413" stroke="#aa444d" fill="#aa444d" fill-opacity="0.2" fill-rule="evenodd"/><path class="svg-region-Or" d="M 1345 337.691 C 1339.054 338.687, 1319.039 343.209, 1314 344.695 C 1310.975 345.587, 1307.600 347.103, 1306.500 348.065 C 1305.400 349.026, 1302.042 350.534, 1299.038 351.415 C 1296.034 352.297, 1292.209 354.311, 1290.538 355.892 C 1288.867 357.473, 1286.312 359.382, 1284.860 360.133 C 1283.408 360.885, 1278.980 364.538, 1275.020 368.250 C 1271.059 371.962, 1267.461 375, 1267.023 375 C 1266.585 375, 1262.758 378.938, 1258.520 383.750 C 1254.281 388.563, 1249.730 393.697, 1248.406 395.160 C 1247.083 396.623, 1246 398.122, 1246 398.491 C 1246 399.511, 1239.090 409.935, 1235.091 414.947 C 1230.571 420.612, 1227.459 425.202, 1225.374 429.278 C 1224.468 431.050, 1222.485 434.080, 1220.969 436.010 C 1219.452 437.941, 1213.670 448.585, 1208.119 459.664 C 1198.330 479.201, 1198.008 480.059, 1197.414 488.154 C 1196.929 494.755, 1197.349 499.595, 1199.419 511.300 C 1201.538 523.285, 1202.054 529.456, 1202.132 543.752 C 1202.219 559.824, 1202.614 564.818, 1204.592 574.828 C 1204.990 576.843, 1207.307 580.394, 1210.463 583.828 C 1219.899 594.093, 1222.956 599.701, 1234.100 627.185 C 1235.145 629.762, 1236 632.490, 1236 633.248 C 1236 634.005, 1236.918 636.523, 1238.039 638.845 C 1239.160 641.166, 1239.797 643.520, 1239.453 644.076 C 1239.109 644.632, 1239.276 645.630, 1239.825 646.294 C 1240.373 646.957, 1241.628 649.517, 1242.613 651.983 C 1250.945 672.840, 1272.420 688.311, 1298.322 692.115 C 1307.692 693.492, 1319.416 692.237, 1334 688.297 C 1343.017 685.861, 1345.930 685.179, 1362.500 681.624 C 1379.553 677.965, 1387.354 676.793, 1403.107 675.520 C 1412.348 674.773, 1421.392 673.707, 1423.205 673.150 C 1425.017 672.593, 1429.650 671.589, 1433.500 670.919 C 1441.418 669.541, 1447.948 667.455, 1456.313 663.628 C 1459.473 662.183, 1462.908 661, 1463.946 661 C 1464.984 661, 1465.983 660.641, 1466.167 660.202 C 1466.350 659.763, 1470.502 657.696, 1475.393 655.608 C 1480.284 653.520, 1485.234 650.915, 1486.393 649.819 C 1487.552 648.723, 1490.075 647.006, 1492 646.005 C 1493.925 645.003, 1496.822 642.792, 1498.437 641.092 C 1500.052 639.391, 1501.777 638, 1502.269 638 C 1502.761 638, 1505.085 636.425, 1507.435 634.500 C 1509.784 632.575, 1512.113 631, 1512.610 631 C 1513.874 631, 1525.096 621.318, 1533.803 612.716 C 1539.734 606.855, 1542.036 603.611, 1546.053 595.441 C 1548.774 589.909, 1551 584.873, 1551 584.250 C 1551 583.628, 1552.798 579.299, 1554.995 574.631 C 1560.113 563.757, 1561.967 555.748, 1561.985 544.426 C 1562 535.049, 1560.054 519.634, 1557.479 508.742 C 1556.667 505.309, 1555.489 500.250, 1554.861 497.500 C 1554.233 494.750, 1553.107 491.612, 1552.359 490.527 C 1551.612 489.443, 1551 487.770, 1551 486.811 C 1551 481.323, 1538.849 459.942, 1532.105 453.563 C 1530.397 451.948, 1529 450.127, 1529 449.518 C 1529 448.909, 1526.813 446.044, 1524.141 443.152 C 1521.468 440.260, 1518.655 436.719, 1517.891 435.283 C 1517.126 433.846, 1514.188 430.263, 1511.363 427.319 C 1508.538 424.376, 1504.938 420.490, 1503.363 418.684 C 1501.788 416.878, 1498.338 414.073, 1495.696 412.450 C 1493.054 410.828, 1488.760 408.094, 1486.154 406.376 C 1483.548 404.658, 1479.615 402.334, 1477.414 401.211 C 1472.840 398.878, 1459.857 387.086, 1456.552 382.263 C 1451.984 375.599, 1426.109 358.775, 1411.500 352.971 C 1387.123 343.286, 1373.882 338.792, 1367.177 337.927 C 1360.379 337.050, 1349.518 336.934, 1345 337.691" stroke="#aa444d" fill="#aa444d" fill-opacity="0.2" fill-rule="evenodd"/><path class="svg-region-LBPCl" d="M 694.250 407.662 C 693.388 408.010, 693 410.801, 693 416.660 C 693 424.604, 693.179 425.333, 695.765 427.919 C 698.332 430.486, 699.273 430.724, 708.954 431.258 C 718.856 431.803, 719.506 431.976, 721.939 434.716 C 723.348 436.302, 725.962 438.195, 727.750 438.921 C 729.538 439.648, 731 440.608, 731 441.054 C 731 441.500, 732.013 442.170, 733.250 442.543 C 734.487 442.916, 737.525 444.899, 740 446.949 C 745.630 451.613, 748.216 453, 751.284 453 C 754.461 453, 759.796 456.998, 769.105 466.355 C 773.953 471.229, 777.502 474, 778.895 474 C 780.096 474, 782.844 474.900, 785 476 C 789.805 478.451, 796 478.707, 796 476.455 C 796 475.216, 796.745 475.043, 799.750 475.581 C 801.813 475.951, 804.210 476.871, 805.079 477.627 C 807.254 479.519, 808.006 479.356, 811.863 476.157 L 815.226 473.367 813.904 467.462 C 812.789 462.480, 811.795 460.796, 807.541 456.687 C 801.908 451.245, 790.338 443.091, 782 438.686 C 778.975 437.088, 775.600 434.985, 774.500 434.014 C 771.678 431.521, 764.247 427, 762.971 427 C 762.384 427, 759.193 425.200, 755.881 423 C 752.569 420.800, 748.808 419, 747.524 419 C 745.379 419, 745.234 419.323, 745.727 423 C 746.243 426.845, 746.155 427, 743.453 427 C 740.382 427, 737.784 426.272, 725 421.830 C 713.421 417.807, 706.430 414.271, 702.241 410.321 C 698.885 407.156, 697.033 406.539, 694.250 407.662" stroke="#daffff" fill="#daffff" fill-opacity="0.2" fill-rule="evenodd"/><path class="svg-region-LBPCr" d="M 1151 392.645 C 1146.875 395.649, 1141.324 399.995, 1138.663 402.304 C 1133.364 406.901, 1123.441 412.774, 1122.523 411.856 C 1122.204 411.538, 1122.410 410.052, 1122.979 408.555 C 1124.562 404.391, 1123.458 403.668, 1116.508 404.317 C 1113.092 404.636, 1109.893 404.525, 1109.399 404.070 C 1108.664 403.394, 1100.322 400.688, 1091.829 398.371 C 1090.910 398.120, 1089.663 398.497, 1089.059 399.208 C 1086.608 402.089, 1080 413.155, 1080 414.379 C 1080 415.100, 1079.100 416.505, 1078 417.500 C 1076.900 418.495, 1076 420.054, 1076 420.964 C 1076 421.874, 1073.750 424.953, 1071 427.806 C 1068.250 430.659, 1066 433.862, 1066 434.925 C 1066 436.076, 1062.441 440.120, 1057.194 444.932 C 1050.204 451.342, 1047.591 454.555, 1044.529 460.507 C 1042.408 464.631, 1040.934 468.267, 1041.253 468.587 C 1042.978 470.312, 1050.359 470.117, 1055.731 468.204 C 1058.904 467.074, 1063.508 465.870, 1065.962 465.529 C 1070.641 464.878, 1080.442 461.904, 1083.762 460.127 C 1084.832 459.555, 1087.686 457.432, 1090.104 455.410 C 1092.522 453.388, 1095.607 451.231, 1096.960 450.617 C 1098.313 450.003, 1101.140 447.816, 1103.243 445.757 C 1107.105 441.976, 1113.798 436.632, 1123.308 429.735 C 1126.164 427.665, 1129.497 424.752, 1130.715 423.262 C 1133.325 420.072, 1140.430 418.106, 1149.582 418.042 L 1155.664 418 1158.219 422.646 C 1160.594 426.966, 1160.850 427.148, 1161.870 425.243 C 1163.286 422.598, 1163.402 420.553, 1163.183 402.250 C 1163.002 387.126, 1162.981 387.001, 1160.750 387.091 C 1159.513 387.142, 1155.125 389.641, 1151 392.645" stroke="#daffff" fill="#daffff" fill-opacity="0.2" fill-rule="evenodd"/><path class="svg-region-BPCl" d="M 843.158 541 C 841.938 542.650, 840.391 544.014, 839.720 544.032 C 837.576 544.087, 833.069 548.765, 830.495 553.605 C 828.585 557.198, 828 559.796, 828 564.686 C 828 570.962, 828.081 571.153, 832.592 575.537 C 835.117 577.992, 838.010 580, 839.020 580 C 841.105 580, 850 568.915, 850 566.318 C 850 565.405, 850.734 563.846, 851.632 562.854 C 852.933 561.416, 853.051 560.489, 852.215 558.276 C 851.638 556.749, 850.908 553.335, 850.594 550.689 C 850.279 548.044, 849.342 545.199, 848.511 544.368 C 847.680 543.537, 847 541.764, 847 540.429 C 847 537.195, 845.845 537.366, 843.158 541" stroke="#83385f" fill="#83385f" fill-opacity="0.2" fill-rule="evenodd"/><path class="svg-region-BPCr" d="M 1009.749 531.697 C 1009.510 532.139, 1009.409 536.550, 1009.524 541.500 C 1009.724 550.094, 1009.906 550.763, 1013.563 556.332 L 1017.393 562.164 1024.446 561.471 C 1028.326 561.090, 1032.063 560.323, 1032.750 559.767 C 1034.712 558.179, 1034.220 554.417, 1031.645 551.327 C 1030.350 549.772, 1028.752 546.848, 1028.094 544.830 C 1026.545 540.076, 1025.383 539.205, 1020.082 538.819 C 1017.127 538.604, 1015.427 537.931, 1014.852 536.750 C 1014.383 535.788, 1013.630 534.239, 1013.179 533.310 C 1012.240 531.378, 1010.392 530.509, 1009.749 531.697" stroke="#83385f" fill="#83385f" fill-opacity="0.2" fill-rule="evenodd"/>
    </svg>