<svg xmlns="http://www.w3.org/2000/svg" width="1921" height="1027" viewBox="0 0 1921 1027" version="1.1">
    <path class="svg-region-V" d="M 860.297 226.095 C 859.465 226.919, 826.261 231.977, 821.329 232.031 C 819.773 232.048, 816.250 233.169, 813.500 234.522 C 810.750 235.875, 806.700 236.993, 804.500 237.006 C 802.300 237.020, 796.956 237.924, 792.623 239.015 C 788.291 240.107, 782.652 241, 780.091 241 C 772.171 241, 755.627 246.601, 743.049 253.540 C 736.528 257.139, 734.939 258.614, 730.307 265.372 C 727.396 269.618, 724.749 274.309, 724.424 275.796 C 723.828 278.524, 720.961 285.075, 719.958 286 C 719.660 286.275, 718.795 288.428, 718.036 290.785 C 717.277 293.142, 715.630 296.098, 714.374 297.353 C 712.284 299.443, 710.084 305.965, 710.024 310.250 C 709.983 313.251, 715.245 312.311, 722.623 308 L 729.468 304 744.002 304 C 757.857 304, 758.708 304.117, 762.215 306.500 C 764.238 307.875, 766.122 309, 766.401 309 C 766.681 309, 768.034 310.125, 769.409 311.500 C 770.784 312.875, 772.647 314, 773.550 314 C 774.452 314, 777.541 315.290, 780.414 316.867 C 783.682 318.660, 787.858 319.964, 791.569 320.349 C 794.831 320.687, 799.975 321.405, 803 321.943 C 818.686 324.734, 819.459 324.796, 821.079 323.380 C 822.947 321.747, 827.164 321.564, 828.652 323.052 C 829.231 323.631, 836.700 324.716, 845.251 325.463 C 853.801 326.210, 861.713 327.311, 862.833 327.911 C 865.756 329.475, 874.151 329.253, 878.346 327.500 C 883.094 325.516, 889.868 325.571, 892.123 327.611 C 893.767 329.099, 894.107 329.061, 896.586 327.111 C 899.732 324.637, 906.505 324.265, 909.552 326.399 C 911.203 327.555, 912.182 327.579, 915.207 326.540 C 917.219 325.848, 923.508 324.979, 929.183 324.610 L 939.500 323.937 943.432 327.469 C 945.594 329.411, 947.999 331, 948.776 331 C 949.554 331, 953.242 331.927, 956.974 333.061 C 963.146 334.935, 965.504 335.073, 983.129 334.583 C 1015.784 333.675, 1039.389 331.617, 1045.334 329.158 C 1050.734 326.924, 1061.554 325.142, 1072.748 324.642 C 1081.920 324.232, 1084.522 323.764, 1086.848 322.108 C 1088.939 320.619, 1090.626 320.227, 1093.169 320.640 C 1096.123 321.119, 1096.890 320.817, 1098.342 318.601 C 1099.279 317.171, 1100.965 316, 1102.089 316 C 1105.239 316, 1107.827 314.235, 1109.543 310.917 C 1110.403 309.254, 1111.950 307.050, 1112.981 306.019 C 1114.012 304.988, 1115.151 302.176, 1115.512 299.771 C 1116.339 294.255, 1113.157 288, 1109.524 288 C 1108.270 288, 1106.709 287.354, 1106.053 286.564 C 1105.398 285.775, 1103.651 284.863, 1102.172 284.538 C 1100.692 284.213, 1097.029 281.469, 1094.031 278.440 C 1091.033 275.411, 1087.662 272.759, 1086.540 272.548 C 1085.418 272.336, 1081.125 271.630, 1077 270.978 C 1072.875 270.326, 1066.575 268.635, 1063 267.222 C 1056.973 264.838, 1054.469 264.116, 1046.500 262.469 C 1044.850 262.128, 1042.600 261.453, 1041.500 260.969 C 1040.400 260.484, 1036.800 259.647, 1033.500 259.109 C 1025.150 257.746, 1017.695 255.700, 1009.500 252.521 C 1003.703 250.272, 1000.008 249.652, 988 248.914 C 980.025 248.423, 971.475 247.542, 969 246.954 C 959.282 244.649, 952.203 243.878, 945.500 244.396 C 938.018 244.974, 932.380 243.675, 930.293 240.893 C 929.629 240.008, 926.929 238.751, 924.293 238.100 C 916.216 236.106, 908.549 233.689, 907.550 232.823 C 907.028 232.370, 905.592 232, 904.359 232 C 903.126 232, 901.840 231.550, 901.500 231 C 901.160 230.450, 899.585 230, 898 230 C 896.415 230, 894.882 229.617, 894.593 229.150 C 893.461 227.318, 861.900 224.508, 860.297 226.095" stroke="#dd8a8a" fill="#dd8a8a" fill-opacity="0.2" fill-rule="evenodd"/><path class="svg-region-DB" d="M 722.623 308 C 715.458 312.187, 711.332 313.029, 710.362 310.501 C 709.906 309.314, 709.368 309.533, 707.776 311.557 C 706.003 313.811, 705.815 315.234, 706.182 323.623 C 706.416 328.959, 707.078 333.434, 707.690 333.817 C 708.291 334.193, 709.489 336.750, 710.354 339.500 C 713.492 349.487, 715.253 354, 716.010 354 C 716.435 354, 717.092 355.238, 717.470 356.750 C 718.427 360.585, 720.868 363, 723.787 363 C 725.149 363, 727.667 363.849, 729.382 364.887 C 731.097 365.926, 735.035 367.498, 738.134 368.382 C 742.519 369.632, 745.008 371.209, 749.363 375.494 C 753.162 379.234, 755.766 381, 757.479 381 C 759.141 381, 760 380.445, 760 379.373 C 760 376.342, 768.386 362.526, 773.072 357.836 C 777.263 353.642, 785.103 349, 787.995 349 C 789.289 349, 795.272 346.035, 796 345.033 C 797 343.656, 814.546 330.373, 816.185 329.751 C 817.111 329.400, 818.359 328.199, 818.957 327.081 C 819.886 325.344, 819.715 324.986, 817.772 324.612 C 816.522 324.371, 813.025 323.698, 810 323.115 C 802.266 321.624, 798.320 321.028, 792 320.394 C 788.801 320.074, 784.141 318.621, 780.860 316.922 C 777.758 315.315, 774.475 314, 773.565 314 C 772.654 314, 770.784 312.875, 769.409 311.500 C 768.034 310.125, 766.675 309, 766.388 309 C 766.101 309, 764.392 307.875, 762.589 306.500 C 759.431 304.091, 758.765 304, 744.390 304 L 729.468 304 722.623 308" stroke="#e8b1e4" fill="#e8b1e4" fill-opacity="0.2" fill-rule="evenodd"/><path class="svg-region-MB" d="M 1086.253 322.535 C 1084.719 323.610, 1080.531 324.232, 1072.281 324.611 C 1061.092 325.124, 1050.755 326.889, 1045.081 329.254 C 1039.444 331.604, 1015.934 333.618, 982.935 334.577 C 964.907 335.101, 962.886 334.983, 957.216 333.073 C 953.832 331.933, 950.261 331, 949.282 330.999 C 948.302 330.999, 945.700 329.394, 943.500 327.434 L 939.500 323.869 928.530 324.577 C 922.497 324.967, 916.129 325.884, 914.379 326.615 C 911.667 327.748, 911.019 327.727, 909.977 326.472 C 908.060 324.163, 899.835 324.555, 896.586 327.111 C 894.107 329.061, 893.767 329.099, 892.123 327.611 C 889.878 325.580, 883.583 325.530, 878 327.500 C 873.130 329.218, 864.888 329.488, 863.379 327.979 C 862.817 327.417, 855.382 326.351, 846.855 325.609 C 838.329 324.866, 830.403 323.751, 829.242 323.130 C 825.460 321.105, 822.050 321.751, 820.286 324.825 C 819.394 326.379, 817.277 328.604, 815.582 329.771 C 813.887 330.938, 807.806 335.489, 802.070 339.883 C 796.333 344.278, 790.499 348.160, 789.105 348.510 C 783.483 349.921, 777.492 353.416, 773.117 357.836 C 764.412 366.630, 756.912 382, 761.325 382 C 762.198 382, 765.069 383.259, 767.706 384.799 C 780.435 392.229, 796.174 394.248, 808.260 390 C 815.995 387.281, 818.241 387.460, 824.832 391.318 C 832.409 395.754, 836.288 397, 842.518 397 L 847.737 397 848.284 401.083 C 848.585 403.328, 849.052 405.385, 849.321 405.655 C 850.079 406.413, 858.172 401.017, 861.315 397.658 C 862.863 396.003, 864.775 393.403, 865.563 391.879 C 868.079 387.013, 871.499 384.136, 879.093 380.499 C 883.167 378.547, 888.975 375.653, 892 374.066 C 895.025 372.480, 901.426 369.992, 906.223 368.538 C 911.021 367.085, 915.177 365.523, 915.458 365.068 C 915.739 364.613, 918.249 363.494, 921.036 362.583 C 926.786 360.702, 938.122 361.214, 946 363.711 C 948.475 364.496, 956.575 365.479, 964 365.895 C 979.546 366.769, 983.859 368.216, 991 374.957 C 993.475 377.293, 997.975 380.311, 1001 381.664 C 1004.025 383.016, 1007.396 384.616, 1008.491 385.220 C 1011.310 386.775, 1050.036 387.326, 1056.902 385.910 C 1059.873 385.297, 1063.824 383.941, 1065.682 382.898 C 1067.541 381.854, 1069.891 381, 1070.906 381 C 1071.921 381, 1075.227 379.905, 1078.253 378.567 C 1081.279 377.228, 1089.870 374.080, 1097.343 371.571 C 1104.816 369.061, 1114.170 365.431, 1118.130 363.504 C 1122.090 361.577, 1125.843 360, 1126.469 360 C 1128.487 360, 1133.726 353.617, 1135.012 349.590 C 1136.018 346.439, 1136.006 344.305, 1134.948 338.590 C 1132.785 326.907, 1132.226 326.095, 1124.469 323.383 C 1118.491 321.292, 1115.864 321, 1103.050 321 C 1091.538 321, 1087.981 321.325, 1086.253 322.535" stroke="#f9c6c6" fill="#f9c6c6" fill-opacity="0.2" fill-rule="evenodd"/><path class="svg-region-LBl" d="M 756 382.714 C 756 383.780, 757.089 385.674, 758.419 386.924 C 759.750 388.174, 761.827 391.515, 763.035 394.348 C 765.185 399.392, 768.329 404.717, 776.630 417.373 C 778.902 420.836, 781.073 424.656, 781.456 425.861 C 781.839 427.067, 783.243 428.768, 784.576 429.642 C 785.909 430.515, 787 431.775, 787 432.441 C 787 433.873, 791.186 438, 792.639 438 C 793.194 438, 795.415 439.792, 797.574 441.983 C 799.733 444.174, 802.028 445.974, 802.673 445.983 C 803.318 445.992, 805.118 447.260, 806.673 448.801 C 808.228 450.341, 813.010 454.652, 817.300 458.381 C 823.868 464.090, 825.341 464.962, 826.620 463.900 C 827.455 463.207, 827.942 461.885, 827.700 460.962 C 827.134 458.795, 828.705 456, 830.491 456 C 832.519 456, 833.363 454.177, 834.194 448 C 836.179 433.240, 837.277 431.399, 843.411 432.549 C 845.397 432.922, 847.269 433.626, 847.570 434.113 C 847.871 434.601, 848.541 435, 849.059 435 C 850.555 435, 850.149 431.369, 848.500 430 C 847.675 429.315, 847 427.965, 847 427 C 847 426.035, 846.374 424.725, 845.608 424.090 C 843.834 422.617, 842.911 419.173, 844.094 418.442 C 844.592 418.134, 845 416.025, 845 413.755 C 845 410.981, 845.667 408.919, 847.035 407.462 C 848.694 405.697, 848.948 404.527, 848.408 401.148 L 847.744 397 843.122 396.994 C 836.804 396.987, 831.959 395.499, 825.031 391.439 C 818.278 387.481, 815.076 387.211, 808 390 C 804.216 391.491, 800.568 392, 793.653 392 C 783.820 392, 777.396 390.187, 767.365 384.581 C 764.890 383.197, 761.320 381.776, 759.432 381.421 C 756.482 380.868, 756 381.050, 756 382.714" stroke="#d7b230" fill="#d7b230" fill-opacity="0.2" fill-rule="evenodd"/><path class="svg-region-PP" d="M 1009.662 441.972 C 1007.451 442.399, 1004.544 443.994, 1002.802 445.736 L 999.780 448.759 995.640 446.391 C 993.363 445.089, 990.600 444.021, 989.500 444.017 C 987.330 444.009, 978.979 447.296, 972.343 450.770 C 967.835 453.130, 963.584 454.769, 952 458.616 C 941.940 461.957, 925.282 463.070, 921.585 460.648 C 919.913 459.552, 916.932 459, 912.689 459 C 908.645 459, 905.060 458.371, 902.904 457.282 C 900.525 456.082, 896.791 455.523, 890.500 455.426 C 881.510 455.288, 878 454.577, 878 452.893 C 878 452.402, 877.420 452, 876.711 452 C 876.003 452, 873.640 451.040, 871.461 449.867 C 867.709 447.846, 858.841 446.078, 850.890 445.764 C 846.499 445.590, 838.351 448.500, 835.153 451.384 C 831.204 454.944, 828.863 460.769, 828.279 468.489 C 827.778 475.123, 829.004 483.805, 831.035 488 C 834.730 495.629, 836.226 499.670, 837.033 504.197 C 839.587 518.531, 845.912 535.687, 851.012 542.117 C 853.066 544.707, 854.202 547.690, 855.012 552.617 C 856.149 559.537, 857.760 577.884, 857.916 585.695 C 858.004 590.090, 858.947 591.036, 866.250 594.058 C 869.043 595.213, 869.281 595.651, 869.421 599.886 C 869.506 602.453, 870.116 602.904, 877 605.481 C 879.475 606.408, 882.625 607.783, 884 608.536 C 885.375 609.289, 888.678 611.080, 891.340 612.515 C 894.002 613.951, 898.052 616.839, 900.340 618.935 C 902.628 621.030, 907.650 625.164, 911.500 628.122 L 918.500 633.500 926.500 633.374 C 935.342 633.236, 938.527 632.187, 951.757 625.057 C 959.017 621.144, 960 620.286, 960 617.854 C 960 615.544, 960.578 614.935, 963.542 614.116 C 965.517 613.571, 969.744 610.675, 973.099 607.569 C 976.407 604.506, 979.508 602, 979.990 602 C 980.471 602, 981.151 601.101, 981.499 600.002 C 981.848 598.904, 983.341 597.714, 984.817 597.360 C 992.293 595.563, 1002 588.155, 1002 584.247 C 1002 581.455, 1003.468 578.359, 1006.233 575.320 C 1008.050 573.323, 1008.094 572.895, 1006.755 570.210 C 1005.577 567.849, 1005.491 566.039, 1006.314 560.890 C 1006.876 557.375, 1007.266 551.433, 1007.181 547.685 C 1007.059 542.346, 1007.652 539.204, 1009.916 533.185 C 1011.505 528.958, 1015.385 517.505, 1018.537 507.733 C 1024.651 488.776, 1025.045 484.855, 1021.517 478.032 C 1020.631 476.319, 1020 472.473, 1020 468.782 C 1020 463.641, 1020.480 461.758, 1022.577 458.672 C 1025.627 454.183, 1025.098 451.493, 1019.888 445.011 C 1016.557 440.866, 1016.095 440.728, 1009.662 441.972" stroke="#c4743d" fill="#c4743d" fill-opacity="0.2" fill-rule="evenodd"/><path class="svg-region-DMl" d="M 705.073 429.528 C 701.924 431.257, 699 437.341, 699 442.164 C 699 444.257, 700.514 450.589, 702.365 456.235 C 704.216 461.881, 706.983 471.900, 708.514 478.500 C 713.031 497.969, 729.259 531.982, 740.427 545.390 C 748.806 555.449, 758.541 566.691, 763.932 572.535 C 771.892 581.163, 777.197 587.722, 779.500 591.782 C 780.600 593.722, 782.175 595.668, 783 596.107 C 791.939 600.865, 801.295 602.377, 816.256 601.482 C 825.136 600.950, 828.561 600.350, 830.256 599.030 C 831.490 598.068, 834.872 597.058, 837.772 596.785 C 840.672 596.513, 843.200 596.112, 843.392 595.895 C 843.583 595.678, 844.050 592.237, 844.430 588.250 C 845.058 581.659, 844.957 581.003, 843.311 581.032 C 842.315 581.049, 839.947 582.624, 838.048 584.532 C 836.150 586.439, 833.989 588, 833.247 588 C 832.505 588, 831.191 586.313, 830.326 584.250 C 828.281 579.369, 828.926 559.391, 831.312 553.750 C 832.835 550.149, 835.200 548.896, 836.500 551 C 836.840 551.550, 840.466 552, 844.559 552 C 848.853 552, 852 552.423, 852 553 C 852 553.550, 852.715 554, 853.588 554 C 856.077 554, 854.396 546.239, 850.962 541.877 C 847.790 537.848, 840.691 521.531, 839.623 515.816 C 838.586 510.267, 826.747 498.027, 817.940 493.399 C 814.160 491.413, 810.817 488.999, 810.511 488.034 C 810.049 486.580, 800.864 481.521, 788.009 475.640 C 786.638 475.013, 781.309 470.980, 776.165 466.678 C 771.022 462.376, 764.268 457.249, 761.157 455.285 C 751.940 449.465, 740.643 442.068, 738.547 440.480 C 737.472 439.666, 736.101 439, 735.500 439 C 734.899 439, 731.503 436.531, 727.954 433.514 L 721.500 428.028 714.500 428.112 C 710.650 428.158, 706.408 428.796, 705.073 429.528" stroke="#68533d" fill="#68533d" fill-opacity="0.2" fill-rule="evenodd"/><path class="svg-region-DMr" d="M 1133.906 412.839 C 1133.317 414.528, 1131.312 416.580, 1128.958 417.903 C 1126.781 419.127, 1125 420.438, 1125 420.817 C 1125 421.759, 1108.157 439, 1107.236 439.001 C 1106.831 439.001, 1103.575 441.701, 1100 445 C 1096.425 448.299, 1092.901 450.999, 1092.168 450.999 C 1090.926 451, 1082.736 456.991, 1080.500 459.535 C 1078.552 461.752, 1075.077 463, 1070.853 463 C 1067.407 463, 1066.158 462.477, 1064.430 460.310 L 1062.285 457.619 1057.586 459.414 C 1053.086 461.133, 1052.805 461.134, 1050.926 459.433 C 1047.794 456.598, 1039.072 454, 1032.688 454 C 1027.325 454, 1026.497 454.303, 1023.400 457.400 C 1020.109 460.691, 1020 461.052, 1020 468.677 C 1020 474.084, 1020.474 477.231, 1021.510 478.711 C 1025.083 483.812, 1024.582 488.716, 1018.551 507.641 C 1015.421 517.463, 1012.398 526.710, 1011.834 528.190 C 1011.269 529.669, 1011.176 531.469, 1011.626 532.190 C 1012.076 532.910, 1012.535 534.104, 1012.647 534.842 C 1012.895 536.484, 1012.315 536.095, 1019.456 539.407 C 1022.732 540.926, 1026.704 543.256, 1028.283 544.585 C 1029.862 545.913, 1031.724 547, 1032.422 547 C 1033.119 547, 1034.488 547.882, 1035.464 548.960 C 1038.052 551.820, 1036.728 555.515, 1032.059 558.462 C 1029.913 559.818, 1027.349 562.293, 1026.363 563.963 C 1024.596 566.954, 1021.709 567.957, 1020.500 566 C 1019.363 564.161, 1018 564.973, 1018 567.489 C 1018 571.440, 1015.256 573.916, 1011.543 573.313 C 1008.850 572.876, 1007.911 573.338, 1005.191 576.435 C 1001.629 580.492, 1001.372 581.658, 1003.401 584.556 C 1004.172 585.656, 1004.960 587.669, 1005.151 589.028 C 1005.428 590.991, 1006.014 591.448, 1008 591.248 C 1018.883 590.149, 1025.672 590.877, 1048.373 595.577 C 1057.920 597.554, 1061.112 597.377, 1068.250 594.477 C 1077.707 590.634, 1081.505 587.587, 1083.560 582.193 C 1084.543 579.612, 1086.837 575.475, 1088.658 573 C 1090.479 570.525, 1093.781 564.788, 1095.994 560.250 C 1098.208 555.712, 1100.465 552, 1101.010 552 C 1102.843 552, 1109.454 544.346, 1116 534.645 C 1119.575 529.347, 1124.463 522.422, 1126.862 519.256 C 1132.298 512.084, 1144.397 487.603, 1146.993 478.523 C 1148.062 474.788, 1149.175 471.491, 1149.468 471.199 C 1150.605 470.062, 1149.920 475.878, 1148.388 480.376 C 1147.501 482.979, 1147.011 485.344, 1147.299 485.633 C 1148.444 486.777, 1153 477.169, 1153 473.612 C 1153 471.571, 1153.617 468.686, 1154.370 467.200 C 1155.124 465.715, 1156.064 462.250, 1156.459 459.500 C 1156.854 456.750, 1157.895 453.698, 1158.772 452.719 C 1160.518 450.768, 1161.707 444.654, 1162.643 432.807 L 1163.250 425.114 1157.397 418.977 C 1151.331 412.618, 1150.801 412.434, 1144.441 414.473 C 1142.859 414.980, 1142.111 414.538, 1141.212 412.567 C 1139.521 408.855, 1135.239 409.015, 1133.906 412.839" stroke="#68533d" fill="#68533d" fill-opacity="0.2" fill-rule="evenodd"/><path class="svg-region-Ol" d="M 474.500 369.090 C 469.898 370.218, 454.511 372.017, 445 372.540 C 432.714 373.215, 426.484 374.084, 419 376.169 C 404.783 380.128, 399.066 382.144, 395.788 384.355 C 393.980 385.575, 390.925 387.219, 389 388.008 C 387.075 388.798, 383.925 390.932, 382 392.751 C 376.629 397.827, 375.628 398.629, 373.885 399.254 C 372.144 399.879, 363 411.403, 363 412.973 C 363 413.496, 357.891 421.703, 351.648 431.212 C 345.404 440.720, 339.309 450.300, 338.104 452.500 C 333.640 460.652, 328.442 469.047, 326.500 471.240 C 325.400 472.483, 323.929 474.625, 323.231 476 C 321.833 478.753, 318.742 484.047, 312.182 494.923 C 307.847 502.111, 303.387 512.903, 302.439 518.500 C 302.160 520.150, 301.499 524.650, 300.970 528.500 C 299.443 539.617, 299.221 541.179, 298.336 547 C 297.436 552.922, 297.433 577.897, 298.332 589.809 C 299.280 602.388, 302.574 617.166, 305.012 619.783 C 305.906 620.742, 307.775 623.995, 309.167 627.013 C 310.559 630.031, 314.491 635.425, 317.904 639 C 325.506 646.961, 325.737 647.244, 331.075 655.134 C 333.444 658.635, 337.997 664.123, 341.191 667.330 C 344.386 670.536, 347 674.024, 347 675.080 C 347 676.136, 347.450 677, 348 677 C 348.550 677, 349 677.836, 349 678.858 C 349 680.569, 358.663 690.692, 367 697.715 C 374.628 704.141, 393.485 715.155, 399.250 716.551 C 400.762 716.917, 402 717.618, 402 718.108 C 402 718.599, 402.563 718.999, 403.250 718.998 C 403.938 718.996, 407.650 720.322, 411.500 721.945 C 415.350 723.567, 423 725.871, 428.500 727.065 C 434 728.258, 440.300 729.828, 442.500 730.552 C 462.918 737.278, 523.865 738.605, 559.979 733.111 C 563.565 732.566, 570.782 731.866, 576.016 731.556 C 593.829 730.501, 603.199 726.523, 624.303 711.057 C 626.886 709.164, 629.010 707.139, 629.021 706.557 C 629.045 705.368, 636.263 700, 637.837 700 C 639.615 700, 652.946 683.703, 655.425 678.500 C 656.735 675.750, 660.092 666.823, 662.884 658.663 C 667.633 644.785, 668.020 642.909, 668.860 629.663 C 669.420 620.829, 670.396 613.807, 671.454 611 C 677.310 595.456, 680.361 566.787, 677.893 550.500 C 677.392 547.200, 676.562 541.800, 676.047 538.500 C 675.533 535.200, 674.463 528.225, 673.670 523 C 672.338 514.221, 671.174 509.628, 668.979 504.500 C 668.509 503.400, 667.404 499.800, 666.523 496.500 C 665.643 493.200, 664.536 489.600, 664.063 488.500 C 663.591 487.400, 662.483 484.857, 661.602 482.849 C 660.721 480.841, 660 478.898, 660 478.532 C 660 478.166, 658.916 476.434, 657.591 474.683 C 656.267 472.932, 652.881 467.736, 650.067 463.137 C 644.366 453.817, 634.758 441.817, 629.942 438 C 628.207 436.625, 623.348 432.655, 619.144 429.179 C 614.940 425.702, 610.206 422.174, 608.625 421.338 C 607.044 420.503, 603.219 417.797, 600.125 415.326 C 597.031 412.855, 593.824 410.308, 592.997 409.666 C 592.170 409.025, 589.695 407.097, 587.497 405.383 C 585.299 403.669, 581.700 401.337, 579.500 400.201 C 577.300 399.065, 574.328 397.023, 572.896 395.662 C 570.133 393.039, 564.147 389.731, 560 388.537 C 557.646 387.859, 543.873 382.774, 539.500 380.970 C 538.400 380.516, 534.350 379.156, 530.500 377.949 C 526.650 376.741, 519.675 374.165, 515 372.225 C 506.847 368.840, 505.929 368.684, 492.500 368.403 C 484.800 368.242, 476.700 368.551, 474.500 369.090" stroke="#aa444d" fill="#aa444d" fill-opacity="0.2" fill-rule="evenodd"/><path class="svg-region-Or" d="M 1350.898 339.406 C 1350.679 339.609, 1346.900 340.018, 1342.500 340.315 C 1338.100 340.611, 1332.700 341.484, 1330.500 342.255 C 1328.300 343.026, 1323.125 344.222, 1319 344.913 C 1314.875 345.603, 1309.700 346.856, 1307.500 347.696 C 1305.300 348.537, 1302.150 349.736, 1300.500 350.362 C 1298.850 350.988, 1296.375 352.314, 1295 353.310 C 1293.625 354.305, 1290.091 356.635, 1287.146 358.487 C 1281.521 362.026, 1258 385.491, 1258 387.564 C 1258 388.227, 1256.875 389.507, 1255.500 390.408 C 1254.125 391.309, 1253 392.505, 1253 393.066 C 1253 394.041, 1245.939 403.983, 1243.182 406.889 C 1237.145 413.254, 1214.336 444.954, 1211.376 451.094 C 1207.552 459.028, 1206.308 461.440, 1203.688 466.006 C 1199.544 473.227, 1198 481.034, 1198 494.770 C 1198 504.148, 1198.576 509.691, 1200.392 517.810 C 1201.708 523.689, 1203.109 530.975, 1203.507 534 C 1203.904 537.025, 1205.076 541.748, 1206.112 544.495 C 1207.147 547.242, 1208.281 553.092, 1208.633 557.495 C 1208.984 561.900, 1210.296 568.198, 1211.550 571.500 C 1215.556 582.050, 1225.760 601.670, 1228.782 604.633 C 1232.390 608.171, 1236.140 614.510, 1242.312 627.500 C 1244.925 633, 1248.015 639.300, 1249.180 641.500 C 1254.728 651.985, 1260 663.184, 1260 664.487 C 1260 665.281, 1261.237 667.282, 1262.750 668.932 C 1267.494 674.110, 1272.460 680.119, 1273.500 681.940 C 1275.771 685.918, 1287.241 694.954, 1290.845 695.604 C 1292.855 695.967, 1295.400 696.738, 1296.500 697.317 C 1297.600 697.897, 1301.650 698.489, 1305.500 698.633 C 1309.350 698.777, 1313.400 698.967, 1314.500 699.057 C 1319.729 699.481, 1333.627 698.639, 1334.643 697.836 C 1335.766 696.949, 1339.051 696.422, 1348 695.695 C 1350.475 695.493, 1354.975 694.806, 1358 694.167 C 1366.469 692.378, 1370.032 691.848, 1376 691.487 C 1395.589 690.302, 1401.331 689.787, 1408.126 688.602 C 1412.320 687.870, 1416.250 686.964, 1416.859 686.587 C 1417.468 686.211, 1420.953 685.687, 1424.602 685.423 C 1428.252 685.159, 1432.027 684.521, 1432.992 684.004 C 1433.957 683.488, 1436.840 682.596, 1439.399 682.023 C 1441.958 681.449, 1446.374 679.860, 1449.213 678.490 C 1452.052 677.121, 1454.902 676, 1455.546 676 C 1456.191 676, 1459.248 674.650, 1462.340 673 C 1465.432 671.350, 1468.608 670, 1469.398 670 C 1470.187 670, 1470.983 669.555, 1471.167 669.010 C 1471.350 668.466, 1476.225 666.063, 1482 663.671 C 1502.974 654.983, 1511.454 649.473, 1526.826 634.546 C 1537.958 623.736, 1538.866 622.548, 1543.449 612.806 C 1546.115 607.138, 1550.414 598, 1553.001 592.500 C 1558.294 581.250, 1560.149 575.843, 1562.436 565 C 1564.817 553.708, 1565.393 543.226, 1563.919 538 C 1563.221 535.525, 1562.581 530.800, 1562.496 527.500 C 1562.412 524.200, 1561.871 520.375, 1561.295 519 C 1560.038 516.002, 1557.994 508.025, 1557.065 502.496 C 1556.694 500.293, 1555.207 496.243, 1553.758 493.496 C 1549.129 484.714, 1547.152 480.278, 1546.060 476.221 C 1545.215 473.085, 1541.829 469.071, 1529.747 456.880 C 1521.361 448.419, 1511.513 438.347, 1507.863 434.498 C 1501.229 427.503, 1497.096 423.620, 1486.915 414.818 C 1478.980 407.956, 1472.554 401.783, 1470.928 399.459 C 1470.143 398.337, 1468.037 396.393, 1466.250 395.141 C 1464.463 393.889, 1463 392.304, 1463 391.620 C 1463 390.936, 1461.763 389.462, 1460.250 388.345 C 1453.343 383.242, 1434.741 371, 1433.894 371 C 1433.376 371, 1430.703 369.453, 1427.953 367.562 C 1422.587 363.870, 1412.980 359.110, 1406.500 356.931 C 1404.300 356.191, 1401.790 355.004, 1400.921 354.293 C 1400.053 353.582, 1399.050 353, 1398.693 353 C 1398.336 353, 1394.771 351.482, 1390.772 349.626 C 1386.772 347.771, 1381.700 345.677, 1379.500 344.973 C 1377.300 344.269, 1374.128 343.109, 1372.451 342.395 C 1370.774 341.681, 1366.274 340.822, 1362.451 340.487 C 1358.628 340.151, 1354.554 339.688, 1353.398 339.457 C 1352.243 339.225, 1351.118 339.203, 1350.898 339.406" stroke="#aa444d" fill="#aa444d" fill-opacity="0.2" fill-rule="evenodd"/><path class="svg-region-LBPCr" d="M 1120.228 417.519 C 1109.107 423.035, 1105.241 425.983, 1099.266 433.500 C 1092.342 442.210, 1083 455.235, 1083 456.177 C 1083 456.725, 1084.889 455.784, 1087.197 454.087 C 1089.505 452.389, 1091.929 451, 1092.583 451 C 1093.237 451, 1096.186 448.700, 1099.136 445.888 C 1102.086 443.077, 1105.634 440.040, 1107.020 439.138 C 1109.084 437.797, 1114.859 432.040, 1125.723 420.496 C 1126.396 419.781, 1128.534 418.215, 1130.473 417.016 C 1133.969 414.856, 1135.223 412, 1132.677 412 C 1131.949 412, 1126.347 414.484, 1120.228 417.519" stroke="#daffff" fill="#daffff" fill-opacity="0.2" fill-rule="evenodd"/><path class="svg-region-BPCl" d="M 831.244 553.750 C 829.041 558.746, 828.755 583.787, 830.872 586.343 C 832.935 588.833, 834.367 588.398, 838.844 583.921 C 841.912 580.852, 843.429 580.001, 844.962 580.488 C 846.083 580.844, 847 581.554, 847 582.067 C 847 582.580, 847.681 583, 848.514 583 C 849.346 583, 850.861 583.521, 851.881 584.158 C 852.901 584.795, 854.470 585.034, 855.368 584.689 C 856.756 584.156, 856.988 582.304, 856.919 572.281 C 856.850 562.174, 856.530 559.932, 854.665 556.500 L 852.490 552.500 844.996 552.201 C 840.875 552.037, 837.074 551.474, 836.551 550.951 C 834.693 549.093, 832.876 550.051, 831.244 553.750" stroke="#83385f" fill="#83385f" fill-opacity="0.2" fill-rule="evenodd"/><path class="svg-region-BPCr" d="M 1009.071 534.312 C 1007.339 538.869, 1006.769 543.975, 1007.471 548.654 C 1008.065 552.613, 1009.145 554.299, 1014.833 560.140 C 1018.500 563.905, 1022.175 566.985, 1023 566.986 C 1023.825 566.986, 1025.559 565.432, 1026.853 563.531 C 1028.147 561.631, 1030.720 559.183, 1032.570 558.091 C 1034.421 556.999, 1036.213 554.999, 1036.553 553.646 C 1037.332 550.540, 1035.494 547, 1033.102 547 C 1032.097 547, 1029.717 545.763, 1027.812 544.250 C 1025.907 542.737, 1021.908 540.393, 1018.924 539.040 C 1015.941 537.686, 1013.354 536.490, 1013.175 536.381 C 1012.996 536.272, 1012.732 535.379, 1012.588 534.396 C 1012.180 531.618, 1010.115 531.568, 1009.071 534.312" stroke="#83385f" fill="#83385f" fill-opacity="0.2" fill-rule="evenodd"/>
    </svg>