<svg xmlns="http://www.w3.org/2000/svg" width="1921" height="1027" viewBox="0 0 1921 1027" version="1.1">
    <path class="svg-region-V" d="M 935.664 226.828 C 932.069 230.581, 927.118 231.460, 911.145 231.181 C 901.168 231.007, 897.857 230.564, 893.939 228.879 C 890.201 227.270, 887.989 226.940, 884.294 227.437 C 881.657 227.792, 866.900 228.527, 851.500 229.071 C 822.669 230.088, 820.252 230.238, 816 231.270 C 814.625 231.603, 810.125 232.647, 806 233.588 C 801.875 234.529, 796.143 236.368, 793.263 237.673 C 790.382 238.979, 785.882 240.481, 783.263 241.011 C 775.524 242.577, 771.846 243.692, 765.500 246.396 C 762.200 247.802, 758.715 248.963, 757.755 248.976 C 755.832 249.002, 745.812 259.135, 742.782 264.117 C 741.727 265.853, 739.958 269.570, 738.851 272.377 C 737.745 275.184, 736.366 277.774, 735.788 278.131 C 734.470 278.946, 735.587 285.430, 737.276 286.769 C 737.949 287.303, 740.188 288.043, 742.250 288.415 C 744.313 288.787, 746 289.443, 746 289.874 C 746 290.869, 755.125 293, 759.385 293 C 761.296 293, 764.958 294.409, 768.343 296.448 C 775.540 300.781, 778.226 301.591, 790 302.975 C 815.354 305.956, 833.034 308.738, 834 309.899 C 834.275 310.230, 836.975 311.562, 840 312.860 C 847.840 316.224, 869.309 317.216, 916.611 316.402 C 941.324 315.977, 959.430 316.132, 968.111 316.843 C 975.475 317.446, 991.400 318.455, 1003.500 319.085 C 1023.691 320.137, 1025.844 320.428, 1029.678 322.616 C 1033.488 324.790, 1034.996 325, 1046.806 325 C 1057.096 325, 1060.011 324.692, 1061 323.500 C 1061.997 322.299, 1065.007 322, 1076.122 322 C 1087.791 322, 1090 322.239, 1090 323.500 C 1090 324.325, 1090.787 325.006, 1091.750 325.014 C 1092.713 325.021, 1094.483 325.291, 1095.685 325.613 C 1097.578 326.121, 1098.029 325.618, 1099.066 321.850 C 1100.200 317.727, 1101.244 311.103, 1102.635 299.216 C 1103.246 293.991, 1103.205 293.885, 1098.950 289.838 C 1095.089 286.165, 1086.107 281.035, 1083.493 281.010 C 1082.939 281.004, 1079.650 278.527, 1076.184 275.504 C 1072.718 272.482, 1068.896 269.782, 1067.691 269.505 C 1066.486 269.228, 1061.900 268.342, 1057.500 267.536 C 1047.307 265.669, 1040.669 263.800, 1038.840 262.282 C 1038.048 261.625, 1035.501 260.784, 1033.178 260.413 C 1030.856 260.041, 1028.714 259.346, 1028.419 258.869 C 1028.124 258.391, 1026.784 258, 1025.441 258 C 1024.098 258, 1023 257.600, 1023 257.111 C 1023 256.623, 1021.313 255.906, 1019.250 255.520 C 1017.188 255.133, 1013.925 254.111, 1012 253.250 C 1010.075 252.388, 1005.800 250.898, 1002.500 249.940 C 994.539 247.629, 989.650 245.708, 988.830 244.571 C 988.462 244.059, 985.762 243.029, 982.830 242.282 C 977.075 240.814, 971.967 237.847, 968 233.668 C 966.407 231.990, 964.412 231.023, 962.500 231.002 C 959.173 230.966, 952.979 229.027, 950.866 227.360 C 950.115 226.767, 948.090 226.015, 946.367 225.689 C 944.643 225.363, 942.161 224.828, 940.851 224.499 C 939.055 224.048, 937.779 224.621, 935.664 226.828" stroke="#dd8a8a" fill="#dd8a8a" fill-opacity="0.2" fill-rule="evenodd"/><path class="svg-region-DB" d="M 722.744 289.987 C 720.485 291.764, 720 292.933, 720 296.604 C 720 299.645, 719.523 301.246, 718.500 301.638 C 717.675 301.955, 717 302.693, 717 303.278 C 717 303.864, 716.402 305.053, 715.671 305.921 C 714.105 307.782, 712 316.726, 712 321.519 C 712 327.096, 718.873 337.144, 727.227 343.779 L 731.356 347.059 732.719 343.779 C 734.515 339.461, 737.743 337.050, 741.764 337.022 C 743.559 337.010, 745.809 336.599, 746.764 336.108 C 747.719 335.618, 752.798 334.043, 758.051 332.608 C 766.446 330.316, 769.493 330, 783.242 330 C 792.590 330, 799.131 329.598, 799.500 329 C 799.840 328.450, 801.260 328, 802.655 328 C 804.050 328, 806.386 327.383, 807.846 326.629 C 809.306 325.875, 813.200 324.443, 816.500 323.446 C 819.800 322.450, 823.068 321.207, 823.762 320.685 C 825.389 319.460, 830.593 316.601, 834.822 314.608 C 838.033 313.094, 838.392 311, 835.441 311 C 834.648 311, 834 310.601, 834 310.113 C 834 309.626, 832.538 308.953, 830.750 308.618 C 826.337 307.791, 801.676 304.356, 790 302.941 C 780.336 301.770, 772.968 299.753, 770.713 297.660 C 768.079 295.215, 763.068 293, 760.172 293 C 755.846 293, 746.627 290.789, 745.788 289.551 C 745.396 288.973, 740.668 288.349, 735.282 288.164 C 726.474 287.862, 725.213 288.045, 722.744 289.987" stroke="#e8b1e4" fill="#e8b1e4" fill-opacity="0.2" fill-rule="evenodd"/><path class="svg-region-MB" d="M 834.500 314.589 C 832.300 315.893, 829.375 317.506, 828 318.174 C 826.625 318.841, 824.825 319.894, 824 320.513 C 823.175 321.132, 819.800 322.453, 816.500 323.449 C 813.200 324.444, 809.306 325.875, 807.846 326.629 C 806.386 327.383, 804.050 328, 802.655 328 C 801.260 328, 799.840 328.450, 799.500 329 C 799.131 329.598, 792.590 330, 783.242 330 C 769.493 330, 766.446 330.316, 758.051 332.608 C 752.798 334.043, 747.719 335.618, 746.764 336.108 C 745.809 336.599, 743.559 337.010, 741.764 337.022 C 736.332 337.059, 732 341.862, 732 347.848 C 732 350.093, 733.170 351.954, 736.750 355.402 C 739.362 357.918, 742.030 359.982, 742.679 359.988 C 743.327 359.995, 744.452 360.570, 745.179 361.268 C 745.905 361.965, 748.415 363.384, 750.756 364.422 C 753.096 365.460, 755.514 366.914, 756.128 367.654 C 756.742 368.395, 757.987 369, 758.895 369 C 759.802 369, 762.109 370.271, 764.022 371.825 C 768.108 375.145, 769.514 375.747, 777.500 377.601 C 780.800 378.368, 786.875 379.882, 791 380.966 C 796.290 382.357, 803.508 383.124, 815.500 383.570 C 824.850 383.918, 835.340 384.832, 838.812 385.601 C 842.284 386.371, 846.173 387, 847.455 387 C 848.737 387, 850.045 387.675, 850.362 388.500 C 851.229 390.761, 856.726 390.412, 858.232 388 C 858.919 386.900, 860.003 386, 860.641 386 C 861.278 386, 863.308 384.517, 865.150 382.705 C 870.153 377.784, 873.963 375.380, 879.770 373.480 C 882.647 372.540, 885 371.372, 885 370.885 C 885 370.398, 885.426 370, 885.947 370 C 886.468 370, 890.180 368.463, 894.197 366.585 C 898.214 364.707, 903.413 362.371, 905.750 361.393 C 908.087 360.415, 910 359.252, 910 358.808 C 910 358.363, 910.800 358, 911.777 358 C 912.755 358, 914.443 357.422, 915.527 356.715 C 921.247 352.987, 928.059 351.703, 939.043 352.283 C 946.387 352.670, 950.616 353.358, 952.253 354.430 C 953.577 355.297, 958.899 356.641, 964.080 357.416 C 972.192 358.630, 973.719 358.629, 975.079 357.413 C 977.242 355.477, 977.908 355.628, 978.918 358.285 C 979.396 359.542, 981.511 361.455, 983.618 362.535 C 985.725 363.616, 988.585 365.520, 989.974 366.767 C 994.136 370.503, 1002.793 373.282, 1008 372.553 C 1019.589 370.931, 1022.281 370.805, 1024.316 371.785 C 1025.517 372.363, 1032.525 373.346, 1039.889 373.968 L 1053.277 375.100 1058.889 372.373 C 1061.975 370.873, 1065.585 369.163, 1066.910 368.573 C 1070.171 367.122, 1080 357.273, 1080 355.457 C 1080 354.656, 1080.464 354, 1081.031 354 C 1081.599 354, 1082.341 353.212, 1082.681 352.250 C 1083.021 351.288, 1086.185 346.093, 1089.712 340.706 C 1096.948 329.654, 1097.711 325.754, 1092.750 325.184 C 1091.176 325.002, 1090 324.254, 1090 323.434 C 1090 321.317, 1063.369 321.406, 1060.559 323.532 C 1059.101 324.634, 1055.613 325, 1046.551 325 C 1035.779 325, 1034.002 324.745, 1029.992 322.626 C 1025.914 320.471, 1023.472 320.146, 1003.500 319.096 C 991.400 318.460, 975.650 317.507, 968.500 316.979 C 961.350 316.450, 931.650 316.100, 902.500 316.203 C 856.567 316.363, 848.967 316.180, 845.500 314.829 C 843.300 313.971, 840.825 313.033, 840 312.743 C 839.175 312.454, 836.700 313.285, 834.500 314.589" stroke="#f9c6c6" fill="#f9c6c6" fill-opacity="0.2" fill-rule="evenodd"/><path class="svg-region-PP" d="M 835.500 446.024 C 823.375 447.957, 821.019 448.659, 820.960 450.357 C 820.938 450.986, 820.741 453.831, 820.523 456.679 C 820.240 460.354, 820.542 462.205, 821.562 463.052 C 822.353 463.708, 823 464.670, 823 465.189 C 823 466.079, 827.201 472.116, 829.593 474.665 C 830.195 475.305, 831.248 477.330, 831.934 479.165 C 832.620 480.999, 833.996 484.300, 834.993 486.500 C 835.989 488.700, 837.109 491.962, 837.481 493.750 C 837.854 495.538, 838.543 497, 839.012 497 C 839.481 497, 840.159 497.926, 840.519 499.059 C 840.878 500.191, 843.026 503.904, 845.293 507.309 C 852.696 518.432, 853.949 522.751, 853.976 537.231 L 854 549.962 856.509 550.592 C 859.447 551.329, 860.763 555.097, 859.211 558.327 C 858.637 559.522, 857.650 562.750, 857.019 565.500 C 856.387 568.250, 855.029 571.939, 854 573.697 C 852.170 576.825, 852.171 576.979, 854.046 580.859 C 855.100 583.040, 856.247 587.250, 856.595 590.214 L 857.229 595.603 864.364 597.380 C 872.670 599.448, 879.128 600.622, 887.500 601.585 C 890.800 601.964, 894.013 602.677, 894.640 603.169 C 895.267 603.660, 899.317 604.488, 903.640 605.008 C 907.963 605.528, 913.525 606.696, 916 607.604 C 919.112 608.745, 923.894 609.273, 931.500 609.316 C 940.614 609.366, 943.529 608.987, 948.500 607.104 C 951.800 605.854, 955.850 604.582, 957.500 604.277 C 959.150 603.973, 960.725 603.448, 961 603.112 C 962.480 601.301, 978.247 594, 980.679 594 C 982.247 594, 985.098 593.187, 987.015 592.194 C 988.932 591.200, 993.087 589.532, 996.250 588.487 L 1002 586.586 1002 579.949 C 1002 576.048, 1002.778 571.051, 1003.888 567.825 C 1005.551 562.993, 1005.625 561.749, 1004.510 557.418 C 1003.814 554.713, 1003.403 551.635, 1003.598 550.579 C 1003.792 549.522, 1004.208 546.407, 1004.523 543.656 C 1004.837 540.906, 1005.292 538.336, 1005.534 537.945 C 1006.347 536.629, 1006.947 530.573, 1007.427 518.849 C 1007.913 506.971, 1010.070 499.049, 1014.718 492.069 C 1015.659 490.656, 1017.621 487.025, 1019.079 484 C 1020.536 480.975, 1023.132 476.925, 1024.848 475 C 1027.841 471.643, 1027.969 471.138, 1027.984 462.619 L 1028 453.738 1024.500 454.306 C 1021.371 454.814, 1021 454.636, 1021 452.630 C 1021 449.675, 1015.062 447.008, 1008.414 446.976 C 1005.711 446.963, 1001.700 446.482, 999.500 445.907 C 997.300 445.331, 994.469 444.611, 993.210 444.306 C 990.575 443.668, 980.914 446.478, 976.500 449.166 C 974.719 450.250, 971.584 450.994, 968.785 450.996 C 966.192 450.998, 962.142 451.625, 959.785 452.389 C 957.428 453.154, 953.325 454.050, 950.668 454.382 C 948.010 454.713, 944.336 455.696, 942.504 456.565 C 937.053 459.152, 923.156 458.093, 915 454.470 C 908.878 451.751, 907.556 451.560, 892.285 451.189 C 878.047 450.844, 876.004 450.587, 875.525 449.078 C 875.225 448.134, 873.470 446.641, 871.624 445.761 C 868.777 444.403, 868.059 444.369, 866.884 445.535 C 865.857 446.555, 864.468 446.692, 861.500 446.065 C 853.285 444.330, 846.193 444.319, 835.500 446.024" stroke="#c4743d" fill="#c4743d" fill-opacity="0.2" fill-rule="evenodd"/><path class="svg-region-DMl" d="M 718.500 428.569 C 713.834 430.991, 710.056 435.079, 708.899 438.958 C 706.311 447.634, 709.719 469.524, 716.125 485.380 C 718.624 491.565, 719.833 494.793, 724.037 506.500 C 727.670 516.620, 740.359 542.684, 745.125 549.817 C 748.295 554.563, 753.733 559.924, 755.426 559.973 C 756.902 560.016, 770.946 574.834, 775.014 580.641 C 777.053 583.552, 779.304 588.087, 780.016 590.717 C 781.728 597.045, 782.337 597.689, 787.288 598.415 C 798.515 600.062, 805.808 600.124, 817.253 598.670 C 835.953 596.294, 848.085 595.145, 852.500 595.331 C 856.191 595.487, 856.525 595.282, 856.823 592.685 C 857.216 589.253, 854.257 579.458, 852.348 577.874 C 851.285 576.992, 850.559 577.087, 849.231 578.284 C 848.279 579.142, 846.150 580.176, 844.500 580.581 C 842.850 580.986, 840.108 582.371, 838.406 583.659 C 834.761 586.416, 831.476 586.684, 830.560 584.297 C 830.201 583.360, 830.203 580.225, 830.564 577.331 C 831.114 572.936, 831.766 571.653, 834.520 569.553 C 836.915 567.726, 838.004 565.937, 838.497 563.020 C 839.426 557.521, 846.627 550, 850.963 550 L 854 550 854 537.678 C 854 524.932, 852.653 518.323, 848.971 513 C 845.522 508.014, 838.161 495.080, 837.485 492.818 C 837.104 491.543, 835.988 488.700, 835.005 486.500 C 834.022 484.300, 832.426 480.587, 831.457 478.250 C 830.489 475.913, 829.385 474, 829.006 474 C 828.626 474, 827.467 472.425, 826.430 470.500 C 825.393 468.575, 824.307 467, 824.017 467 C 822.782 467, 820.500 460.185, 820.500 456.500 C 820.500 453.177, 820.139 452.448, 818.364 452.195 C 817.189 452.028, 814.714 452.814, 812.864 453.942 C 811.014 455.070, 808.338 455.994, 806.917 455.996 C 805.496 455.998, 804.042 456.291, 803.686 456.648 C 803.330 457.004, 800.329 457.427, 797.018 457.589 C 793.707 457.751, 790.549 458.161, 789.999 458.501 C 788.041 459.711, 789.048 461.821, 792.090 462.882 C 796.710 464.492, 795.204 466.450, 789.072 466.806 C 785.167 467.032, 783.503 466.703, 782.650 465.536 C 782.016 464.669, 780.162 463.603, 778.529 463.166 C 776.553 462.638, 775.365 461.557, 774.977 459.936 C 774.459 457.770, 773.939 457.536, 770.278 457.828 C 766.622 458.119, 762.426 456.871, 761 455.069 C 760.725 454.721, 756.675 451.578, 752 448.083 C 739.679 438.874, 736 435.129, 736 431.797 C 736 429.806, 736.504 428.996, 737.750 428.985 C 739.246 428.972, 739.282 428.828, 738 428 C 735.541 426.411, 721.891 426.809, 718.500 428.569" stroke="#68533d" fill="#68533d" fill-opacity="0.2" fill-rule="evenodd"/><path class="svg-region-DMr" d="M 1128 418.836 C 1128 419.297, 1124.859 422.334, 1121.019 425.586 C 1117.180 428.839, 1112.642 433.426, 1110.935 435.781 C 1109.228 438.135, 1105.507 441.787, 1102.666 443.896 C 1099.825 446.005, 1095.475 449.620, 1093 451.929 C 1086.724 457.784, 1082.055 460, 1075.990 460 C 1073.191 460, 1069.532 460.708, 1067.860 461.572 C 1063.817 463.663, 1062.389 462.926, 1061.573 458.330 C 1060.106 450.065, 1058.453 448.975, 1054.195 453.465 C 1051.658 456.141, 1049 455.849, 1049 452.893 C 1049 450.857, 1046.550 450.301, 1045.447 452.086 C 1045.066 452.702, 1042.337 453.082, 1039.138 452.966 C 1036.037 452.853, 1032.263 452.815, 1030.750 452.881 L 1028 453 1028 462.313 C 1028 471.286, 1027.894 471.727, 1025.097 474.407 C 1023.500 475.937, 1018.981 483.611, 1015.054 491.461 L 1007.913 505.734 1007.454 516.617 C 1006.940 528.792, 1006.228 536.170, 1005.317 538.762 C 1004.818 540.180, 1004.953 540.270, 1006.053 539.250 C 1008.696 536.798, 1011.702 537.985, 1018.082 544 C 1023.364 548.979, 1025.047 550.003, 1027.973 550.015 C 1033.105 550.038, 1034.347 551.143, 1033.513 554.942 C 1032.997 557.290, 1033.265 558.636, 1034.527 560.030 C 1037.964 563.827, 1035.876 565, 1025.679 565 C 1013.051 565, 1010.572 563.419, 1006.813 552.970 C 1005.335 548.861, 1004.063 546.400, 1003.986 547.500 C 1003.910 548.600, 1003.690 550.328, 1003.499 551.341 C 1003.307 552.353, 1003.754 555.188, 1004.493 557.641 C 1005.694 561.632, 1005.628 562.713, 1003.869 567.923 C 1002.482 572.028, 1001.991 575.768, 1002.201 580.608 L 1002.500 587.472 1019 587.543 C 1028.075 587.582, 1040.496 588.221, 1046.603 588.963 C 1057.539 590.291, 1057.825 590.274, 1065.603 587.795 C 1069.946 586.411, 1075.304 584.730, 1077.509 584.059 C 1082.812 582.445, 1091.648 576.385, 1095.225 571.907 C 1096.804 569.931, 1099.167 565.656, 1100.477 562.407 C 1102.550 557.263, 1103.558 556.086, 1108.276 553.295 C 1114.337 549.710, 1118.671 544.633, 1120.700 538.745 C 1121.446 536.579, 1123.951 532.038, 1126.267 528.653 C 1132.799 519.108, 1140.852 502.645, 1145.176 490 C 1147.338 483.675, 1149.983 476.670, 1151.054 474.434 C 1152.124 472.198, 1153 469.018, 1153 467.368 C 1153 464.402, 1153.942 458.164, 1156.150 446.500 C 1156.775 443.200, 1158.382 438.132, 1159.722 435.238 C 1161.901 430.529, 1162.018 429.661, 1160.834 426.988 C 1160.107 425.344, 1159.256 424, 1158.944 424 C 1158.632 424, 1157.476 423.161, 1156.376 422.135 C 1155.275 421.110, 1153.419 419.760, 1152.253 419.135 C 1149.808 417.827, 1128 417.558, 1128 418.836" stroke="#68533d" fill="#68533d" fill-opacity="0.2" fill-rule="evenodd"/><path class="svg-region-Ol" d="M 477.917 369.985 C 473.196 370.365, 468.862 370.967, 468.287 371.323 C 466.700 372.303, 446.349 375, 440.536 375 C 434.073 375, 414.386 377.569, 406.500 379.442 C 383.184 384.978, 373.597 388.516, 367.901 393.687 C 357.682 402.965, 350 410.927, 350 412.241 C 350 413.074, 349.304 414.333, 348.454 415.039 C 347.603 415.744, 345.342 418.993, 343.428 422.258 C 341.515 425.522, 339.286 428.857, 338.475 429.668 C 337.664 430.479, 337 431.638, 337 432.243 C 337 432.848, 336.390 434.053, 335.646 434.921 C 334.901 435.790, 332.999 438.975, 331.419 442 C 329.839 445.025, 326.145 450.797, 323.210 454.826 C 316.832 463.581, 305.268 486.991, 304.580 492.539 C 304.311 494.710, 303.429 499.189, 302.621 502.493 C 301.812 505.797, 300.381 512.100, 299.440 516.500 C 298.499 520.900, 297.095 526.589, 296.320 529.142 C 294.887 533.864, 294.272 555.330, 294.848 580.500 C 295.156 593.924, 298.881 615.279, 301.913 621 C 302.933 622.925, 305.999 628.830, 308.727 634.122 C 317.350 650.853, 323.495 657.551, 339.385 667.542 C 343.722 670.269, 348.290 673.447, 349.535 674.605 C 350.781 675.762, 352.593 677.014, 353.562 677.385 C 354.530 677.757, 358.350 680.074, 362.050 682.533 C 365.750 684.993, 370.290 687.290, 372.139 687.638 C 373.987 687.986, 377.793 689.335, 380.596 690.635 C 383.400 691.936, 386.347 693, 387.146 693 C 387.946 693, 389.028 693.408, 389.550 693.906 C 394.021 698.168, 409.933 704.138, 423 706.456 C 427.675 707.285, 434.875 708.810, 439 709.844 C 443.125 710.879, 450.550 712.487, 455.500 713.418 C 460.450 714.349, 465.850 715.500, 467.500 715.977 C 471.717 717.193, 483.893 718.361, 494.500 718.566 C 499.450 718.662, 507.100 719.302, 511.500 719.988 C 520.326 721.365, 520.378 721.367, 527.500 720.449 C 530.652 720.043, 535.350 720.395, 540.208 721.402 C 549.380 723.303, 581.331 723.620, 590.583 721.901 C 596.966 720.715, 612.717 713.605, 620 708.621 C 632.637 699.974, 643.566 687.753, 648.364 676.902 C 652.011 668.656, 654.999 656.990, 655.013 650.936 C 655.020 647.946, 655.942 641.225, 657.061 636 C 658.180 630.775, 660.140 621.524, 661.416 615.443 C 662.692 609.361, 664.620 602.386, 665.700 599.943 C 666.781 597.499, 669.139 590.550, 670.940 584.500 C 672.741 578.450, 674.890 571.475, 675.715 569 C 677.764 562.859, 678.444 548.978, 677.111 540.500 C 675.237 528.574, 673.006 518.606, 671.981 517.581 C 671.441 517.041, 671 515.528, 671 514.218 C 671 512.908, 669.914 508.610, 668.586 504.668 C 667.258 500.726, 665.457 494.952, 664.583 491.838 C 662.370 483.947, 655.093 468.970, 651.593 465.102 C 650.717 464.134, 650 462.857, 650 462.264 C 650 461.021, 640.899 452.622, 637.529 450.756 C 636.282 450.065, 633.516 448.535, 631.381 447.356 C 629.246 446.177, 626.688 444.314, 625.695 443.216 C 624.702 442.118, 620.989 439.792, 617.445 438.047 C 613.900 436.302, 611 434.525, 611 434.098 C 611 433.671, 609.763 432.766, 608.250 432.087 C 599.759 428.277, 585.433 415.552, 581.831 408.619 C 579.508 404.150, 574.152 398.841, 562.212 389.172 C 549.123 378.572, 540.466 374.532, 523.140 370.940 C 513.327 368.906, 495.902 368.538, 477.917 369.985" stroke="#aa444d" fill="#aa444d" fill-opacity="0.2" fill-rule="evenodd"/><path class="svg-region-LBPCl" d="M 736 431.855 C 736 435.103, 742.166 441.318, 752.989 448.980 C 756.469 451.444, 759.818 453.960, 760.429 454.572 C 762.635 456.778, 766.194 458.138, 769.317 457.970 C 774.374 457.696, 774.842 457.873, 775.180 460.191 C 775.403 461.713, 776.506 462.641, 778.797 463.232 C 780.610 463.699, 782.346 464.738, 782.654 465.541 C 783.058 466.594, 784.873 467, 789.180 467 C 794.212 467, 795.096 466.739, 794.823 465.333 C 794.641 464.394, 792.643 463.047, 790.250 462.250 C 787.913 461.471, 786 460.421, 786 459.917 C 786 459.413, 785.410 459, 784.689 459 C 783.967 459, 782.411 458.100, 781.230 457 C 780.050 455.900, 778.390 455, 777.542 455 C 776.694 455, 776 454.550, 776 454 C 776 453.450, 775.212 452.997, 774.250 452.994 C 772.780 452.988, 764.594 447.264, 750.331 436.267 C 742.609 430.313, 740.436 429, 738.306 429 C 736.437 429, 736 429.540, 736 431.855" stroke="#daffff" fill="#daffff" fill-opacity="0.2" fill-rule="evenodd"/><path class="svg-region-LBPCr" d="M 1118.837 422.761 C 1115.723 424.817, 1109.622 429.431, 1105.281 433.013 C 1097.444 439.479, 1092.181 442.062, 1077.623 446.585 C 1070.746 448.722, 1067.646 448.790, 1055.500 447.072 C 1050.550 446.372, 1044.250 445.725, 1041.500 445.634 C 1038.750 445.544, 1034.968 444.689, 1033.096 443.735 C 1027.272 440.766, 1025.049 441.843, 1025.875 447.231 C 1025.937 447.633, 1024.865 448.697, 1023.494 449.596 C 1020.573 451.510, 1019.998 455.417, 1022.750 454.642 C 1027.922 453.186, 1032.132 452.688, 1037.752 452.868 C 1041.190 452.979, 1044.936 452.570, 1046.076 451.960 C 1047.820 451.026, 1048.231 451.168, 1048.673 452.856 C 1049.473 455.918, 1051.642 456.157, 1054.195 453.465 C 1058.453 448.975, 1060.106 450.065, 1061.573 458.330 C 1062.398 462.977, 1063.955 463.724, 1068.409 461.610 C 1070.275 460.725, 1073.817 460, 1076.279 460 C 1082.299 460, 1086.478 458.023, 1092.778 452.193 C 1095.682 449.506, 1100.513 445.552, 1103.514 443.404 C 1106.515 441.257, 1109.239 438.693, 1109.567 437.707 C 1110.296 435.511, 1121.466 424.476, 1125.250 422.213 C 1126.763 421.309, 1128 420.216, 1128 419.784 C 1128 418, 1124.154 419.249, 1118.837 422.761" stroke="#daffff" fill="#daffff" fill-opacity="0.2" fill-rule="evenodd"/><path class="svg-region-BPCl" d="M 846.232 551.331 C 843.069 553.087, 839.286 558.959, 838.451 563.407 C 837.945 566.105, 836.837 567.744, 834.468 569.297 C 831.508 571.237, 831.119 572.064, 830.516 577.696 C 830.148 581.132, 830.133 584.406, 830.482 584.972 C 831.588 586.760, 836.015 586.088, 839.317 583.631 C 841.068 582.329, 843.647 580.993, 845.050 580.662 C 846.452 580.332, 849.409 578.361, 851.621 576.281 C 854.911 573.187, 855.866 571.410, 856.875 566.500 C 857.554 563.200, 858.592 559.522, 859.182 558.327 C 860.693 555.269, 859.461 551.357, 856.761 550.633 C 853.164 549.669, 848.689 549.966, 846.232 551.331" stroke="#83385f" fill="#83385f" fill-opacity="0.2" fill-rule="evenodd"/><path class="svg-region-BPCr" d="M 1005.917 539.600 C 1004.312 541.533, 1004.532 545.552, 1006.648 552.954 C 1009.472 562.834, 1012.949 565, 1025.982 565 C 1033.165 565, 1035.184 564.684, 1035.643 563.487 C 1035.963 562.655, 1035.628 561.257, 1034.900 560.379 C 1034.172 559.502, 1033.559 556.920, 1033.538 554.642 L 1033.500 550.500 1028.759 550 C 1024.642 549.566, 1023.238 548.744, 1018.076 543.750 C 1011.851 537.726, 1008.439 536.561, 1005.917 539.600" stroke="#83385f" fill="#83385f" fill-opacity="0.2" fill-rule="evenodd"/>
    </svg>