<svg xmlns="http://www.w3.org/2000/svg" width="1921" height="1027" viewBox="0 0 1921 1027" version="1.1">
    <path class="svg-region-V" d="M 847.500 237.141 C 832.650 237.529, 818.700 238.050, 816.500 238.297 C 814.300 238.545, 808.450 239.076, 803.500 239.478 C 794.519 240.206, 778.776 243.850, 772.051 246.757 C 752.238 255.322, 750 257.802, 750 271.196 C 750 274.337, 749.459 278.094, 748.797 279.546 C 747.723 281.904, 747.856 282.384, 750.047 284.045 C 751.396 285.068, 754.525 286.681, 757 287.629 C 759.475 288.576, 763.685 290.639, 766.355 292.212 C 771.590 295.296, 781.226 297.961, 787.225 297.985 C 789.274 297.993, 793.999 299.402, 797.725 301.116 C 801.451 302.830, 806.750 304.901, 809.500 305.718 C 812.250 306.535, 815.075 307.674, 815.778 308.248 C 816.481 308.821, 822.106 309.645, 828.278 310.077 C 840.252 310.916, 843.346 311.524, 846.473 313.655 C 849.272 315.564, 875.670 315.532, 880.216 313.615 C 888.312 310.201, 892.709 309.536, 906.174 309.686 C 917.165 309.809, 919.954 309.561, 920.392 308.420 C 921.357 305.906, 932.994 306.567, 939.406 309.500 C 943.191 311.231, 946.660 312.009, 950.686 312.031 C 960.432 312.083, 971.192 313.846, 973.430 315.758 C 977.188 318.968, 981.759 321, 985.223 321 C 990.981 321, 999.303 318.054, 1002.259 314.969 C 1003.776 313.385, 1005.696 311.710, 1006.525 311.246 C 1007.585 310.653, 1008.220 307.959, 1008.667 302.164 C 1009.292 294.061, 1009.254 293.875, 1006.401 290.869 C 1004.806 289.188, 1001.025 286.188, 998 284.201 C 994.975 282.215, 990.700 279.162, 988.500 277.417 C 986.300 275.672, 983.375 273.902, 982 273.485 C 980.625 273.068, 978.329 271.748, 976.897 270.551 C 975.253 269.178, 971.568 267.907, 966.897 267.103 C 962.829 266.402, 956.350 264.901, 952.500 263.766 C 944.132 261.300, 924.043 251.962, 922.119 249.644 C 921.369 248.740, 919.973 248, 919.017 248 C 918.061 248, 915.560 246.833, 913.459 245.407 C 904.074 239.039, 892.762 235.830, 881.066 236.218 C 877.455 236.338, 862.350 236.753, 847.500 237.141" stroke="#dd8a8a" fill="#dd8a8a" fill-opacity="0.2" fill-rule="evenodd"/><path class="svg-region-DB" d="M 734.041 283.258 C 727.181 286.701, 722.096 292.443, 722.033 296.817 C 722.006 298.685, 722.388 299.012, 724 298.500 C 725.445 298.041, 726 298.320, 726 299.504 C 726 300.700, 725.264 301.056, 723.279 300.822 C 721.101 300.564, 720.373 301.025, 719.627 303.133 C 718.702 305.750, 719.756 310.778, 720.700 308.250 C 720.957 307.563, 722.001 307, 723.020 307 C 725.810 307, 724.516 313.850, 721.211 316.578 L 718.694 318.656 721.145 325.077 C 723.082 330.149, 724.112 331.602, 726.049 331.999 C 730.449 332.899, 732.254 334.628, 732.892 338.554 C 733.406 341.712, 734.294 342.863, 738.007 345.178 C 740.478 346.718, 744.413 348.868, 746.750 349.954 C 749.087 351.040, 751 352.395, 751 352.964 C 751 353.534, 752.365 354, 754.034 354 C 757.060 354, 757.067 353.986, 756.554 349.250 C 756.060 344.685, 756.197 344.367, 760.076 341.083 C 763.673 338.038, 765.005 337.580, 772.306 336.871 C 791.731 334.985, 796.976 332.969, 799.473 326.430 C 801.320 321.595, 804.128 318.404, 811.295 312.999 C 813.846 311.074, 815.816 309.102, 815.672 308.615 C 815.528 308.129, 812.055 306.511, 807.955 305.020 C 803.855 303.529, 798.325 301.340, 795.667 300.155 C 793.009 298.970, 789.184 297.993, 787.167 297.985 C 781.443 297.962, 771.376 295.262, 767.211 292.633 C 765.130 291.320, 761.194 289.271, 758.464 288.081 C 755.734 286.891, 752.306 285.261, 750.846 284.459 C 749.386 283.656, 747.459 283, 746.564 283 C 745.669 283, 744.678 282.325, 744.362 281.500 C 743.506 279.270, 741.205 279.662, 734.041 283.258" stroke="#e8b1e4" fill="#e8b1e4" fill-opacity="0.2" fill-rule="evenodd"/><path class="svg-region-MB" d="M 812.772 311.641 C 805.203 317.163, 800.991 321.502, 799.896 324.906 C 799.260 326.883, 798.268 329.092, 797.693 329.816 C 794.894 333.334, 787.494 335.395, 772.389 336.864 C 765.228 337.561, 763.787 338.054, 760.080 341.076 C 756.024 344.384, 755.899 344.659, 756.387 349.197 C 756.966 354.568, 759.544 357.759, 764.031 358.656 C 765.664 358.983, 767 359.644, 767 360.125 C 767 360.606, 768.935 361, 771.300 361 C 773.665 361, 776.161 361.563, 776.846 362.250 C 777.574 362.981, 782.331 363.782, 788.296 364.178 C 806.972 365.418, 810.943 366.080, 812.430 368.204 C 814.464 371.108, 821.443 371.812, 824.138 369.385 C 825.934 367.767, 827.589 367.539, 835.816 367.777 C 843.058 367.986, 845.851 368.460, 847.237 369.715 C 848.788 371.118, 849.582 371.191, 852.357 370.188 C 854.164 369.535, 856.821 369, 858.262 369 C 859.703 369, 861.155 368.558, 861.490 368.017 C 861.857 367.423, 865.011 367.280, 869.456 367.656 C 875.857 368.197, 877.258 368.004, 880.223 366.171 C 882.098 365.013, 884.502 363.092, 885.566 361.903 C 890.053 356.886, 899.280 352.986, 918.671 347.907 C 925.731 346.058, 926.927 345.427, 927.469 343.266 C 928.266 340.091, 927.704 339.553, 925.065 340.965 C 922.972 342.086, 921 341.641, 921 340.050 C 921 339.592, 922.741 338.520, 924.870 337.669 C 928.579 336.185, 930.763 333.589, 929.144 332.589 C 928.721 332.328, 927.053 332.985, 925.438 334.050 C 921.623 336.565, 918 336.620, 918 334.164 C 918 332.777, 919.431 331.930, 923.845 330.703 C 931.151 328.672, 933.017 326.782, 930.483 323.981 C 929.497 322.892, 927.635 322, 926.345 322 C 925.055 322, 924 321.540, 924 320.979 C 924 320.417, 922.763 319.410, 921.250 318.740 C 916.688 316.721, 915.918 315.562, 917.573 313.199 C 918.489 311.891, 918.652 310.903, 918.016 310.510 C 917.463 310.168, 912.270 309.620, 906.476 309.292 C 895.664 308.680, 895.699 308.674, 880 313.598 C 873.919 315.506, 850.950 315.531, 847.200 313.634 C 843.050 311.535, 835.421 310.161, 825.272 309.686 C 816.762 309.287, 815.790 309.439, 812.772 311.641" stroke="#f9c6c6" fill="#f9c6c6" fill-opacity="0.2" fill-rule="evenodd"/><path class="svg-region-PP" d="M 1010 433.677 C 997.745 434.361, 988.680 436.146, 985.098 438.580 C 983.139 439.911, 980.755 441, 979.802 441 C 978.848 441, 976.365 441.737, 974.284 442.639 C 969.164 444.856, 967.555 445.450, 960 447.914 C 956.425 449.081, 951.250 450.781, 948.500 451.693 C 945.750 452.605, 940.125 453.384, 936 453.425 C 928.846 453.497, 927.969 453.240, 917 447.860 C 900.274 439.658, 898.156 439.153, 891.698 441.829 C 885.749 444.295, 877.826 444.700, 876.105 442.627 C 875.478 441.871, 872.625 440.943, 869.765 440.563 C 865.508 439.998, 864.342 440.179, 863.331 441.562 C 862.508 442.687, 861.496 443, 860.298 442.498 C 858.108 441.582, 836.371 440.778, 833.293 441.499 C 831.860 441.835, 830.338 443.678, 828.951 446.758 C 827.039 451.005, 826.940 452.022, 828 456.500 C 829.706 463.706, 832.936 473.017, 834.959 476.557 C 835.919 478.239, 837.028 481.334, 837.422 483.436 C 838.540 489.398, 842.300 497.063, 846.585 502.119 C 848.738 504.660, 851.258 507.668, 852.184 508.804 C 853.111 509.940, 855.069 514.611, 856.535 519.185 C 858.002 523.758, 859.607 528.281, 860.101 529.236 C 860.596 530.191, 861 531.824, 861 532.864 C 861 533.905, 861.761 536.498, 862.692 538.628 C 863.817 541.204, 864.645 547.018, 865.166 556 C 865.596 563.425, 866.237 571.215, 866.591 573.311 C 867.123 576.466, 866.826 577.561, 864.867 579.668 C 863.565 581.067, 861.407 582.634, 860.071 583.149 L 857.642 584.087 859.848 586.293 C 861.576 588.021, 863.079 588.458, 866.777 588.309 C 869.506 588.199, 872.435 588.727, 873.715 589.559 C 874.933 590.352, 877.775 591, 880.031 591 C 882.286 591, 885.114 591.546, 886.316 592.213 C 887.517 592.881, 891.693 593.456, 895.596 593.492 C 902.348 593.555, 903.954 593.991, 914.801 598.707 C 916.617 599.496, 919.767 600.407, 921.801 600.730 C 923.835 601.053, 926.558 602.002, 927.851 602.840 C 931.178 604.994, 940.656 606.079, 946 604.917 C 952.316 603.544, 976.568 591.395, 982.139 586.815 C 985.928 583.698, 987.576 582.997, 991.139 582.984 C 1002.048 582.945, 1012.260 578.473, 1013.327 573.267 C 1014.130 569.354, 1011.856 552.763, 1010.300 551.180 C 1008.317 549.162, 1007.647 545.211, 1008.690 541.683 C 1009.414 539.233, 1010.134 538.555, 1011.815 538.738 C 1013.769 538.951, 1014 538.507, 1014 534.547 C 1014 532.111, 1014.450 529.840, 1015 529.500 C 1015.550 529.160, 1016 527.055, 1016 524.822 C 1016 522.589, 1016.884 518.003, 1017.965 514.631 C 1019.046 511.259, 1020.699 505.800, 1021.638 502.500 C 1022.577 499.200, 1024.618 494.074, 1026.173 491.109 C 1028.137 487.364, 1029 484.250, 1029 480.906 C 1029 478.260, 1029.506 474.835, 1030.125 473.297 C 1033.479 464.953, 1035 459.769, 1035 456.679 C 1035 455.206, 1035.403 454, 1035.895 454 C 1036.387 454, 1037.026 452.313, 1037.314 450.250 C 1037.603 448.188, 1038.153 445.262, 1038.536 443.750 C 1039.173 441.238, 1038.990 441, 1036.431 441 C 1034.890 441, 1032.694 441.879, 1031.550 442.953 C 1029.444 444.931, 1023.361 445.959, 1021.299 444.685 C 1020.680 444.302, 1019.859 442.079, 1019.474 439.745 C 1018.788 435.586, 1017.375 432.817, 1016.128 433.185 C 1015.782 433.287, 1013.025 433.508, 1010 433.677" stroke="#c4743d" fill="#c4743d" fill-opacity="0.2" fill-rule="evenodd"/><path class="svg-region-DMl" d="M 723.106 439.370 C 718.758 440.532, 718.692 440.616, 716.682 447.522 C 714.293 455.734, 714.308 455.708, 712.783 454.183 C 710.451 451.851, 709.725 452.978, 710.484 457.750 C 710.900 460.363, 711.569 464.750, 711.970 467.500 C 712.958 474.280, 716.212 485.911, 721.480 501.500 C 723.897 508.650, 726.195 516.300, 726.587 518.500 C 726.979 520.700, 728.808 525.350, 730.650 528.833 C 732.493 532.316, 734 535.942, 734 536.890 C 734 537.839, 736.721 541.289, 740.047 544.557 C 743.372 547.826, 748.144 553.200, 750.652 556.500 C 753.159 559.800, 758.234 564.751, 761.930 567.503 C 770.855 574.149, 772 575.393, 772 578.450 C 772 581.136, 773.619 582.241, 779.369 583.480 C 780.947 583.820, 783.197 585.248, 784.369 586.654 C 790.128 593.562, 788.598 593.125, 805.797 592.775 C 816.808 592.550, 823.293 591.942, 827.500 590.738 C 830.800 589.794, 838.140 588.631, 843.811 588.153 C 851.865 587.476, 854.757 586.816, 857.021 585.143 C 858.615 583.964, 860.303 583, 860.772 583 C 861.242 583, 862.925 581.643, 864.514 579.985 L 867.402 576.971 866.201 569.967 C 865.540 566.115, 864.980 558.809, 864.956 553.731 C 864.928 547.835, 864.348 543.055, 863.351 540.500 C 862.492 538.300, 861.562 535.033, 861.284 533.241 C 861.006 531.448, 860.379 529.734, 859.890 529.432 C 859.400 529.129, 859 527.777, 859 526.427 C 859 525.077, 858.590 523.191, 858.089 522.236 C 857.587 521.281, 856.399 518.293, 855.447 515.596 C 853.729 510.727, 853.269 510.003, 847.500 503.093 C 842.369 496.948, 838.759 489.860, 837.592 483.641 C 837.201 481.555, 836.074 478.413, 835.088 476.657 C 832.984 472.910, 829.693 463.590, 827.957 456.461 C 826.902 452.129, 826.960 450.979, 828.365 448.261 C 829.264 446.522, 830 444.454, 830 443.666 C 830 441.865, 825.356 440.914, 822.278 442.085 C 820.458 442.776, 820.083 443.483, 820.549 445.340 C 821.065 447.394, 820.532 448, 816.583 449.856 C 814.074 451.035, 811.229 452.010, 810.261 452.022 C 807.077 452.062, 800.562 455.690, 797.054 459.378 C 793.984 462.604, 793.055 463.001, 788.554 463.009 C 784.458 463.017, 781.224 461.934, 771.500 457.300 C 758.221 450.971, 743.256 441.830, 742.363 439.503 C 741.651 437.648, 729.855 437.567, 723.106 439.370 M 847.188 552.960 C 844.588 556.476, 844.530 557.191, 846.531 561.060 C 847.983 563.868, 848.345 564.005, 853.540 563.701 C 861.023 563.264, 861.614 562.386, 858.541 556.268 C 854.935 549.089, 850.916 547.918, 847.188 552.960" stroke="#68533d" fill="#68533d" fill-opacity="0.2" fill-rule="evenodd"/><path class="svg-region-DMr" d="M 1134 429.117 C 1132.075 429.618, 1128.925 430.067, 1127 430.114 C 1122.798 430.216, 1120.766 431.202, 1115.500 435.695 C 1098.617 450.098, 1092.479 455, 1091.329 455 C 1090.598 455, 1090 455.450, 1090 456 C 1090 456.550, 1089.555 457, 1089.011 457 C 1087.645 457, 1084.009 453.783, 1083.957 452.528 C 1083.934 451.962, 1081.726 449.813, 1079.050 447.750 C 1074.642 444.352, 1073.609 444, 1068.047 444 C 1062.852 444, 1061.529 444.380, 1059.438 446.472 C 1057.532 448.378, 1056.301 448.810, 1054.060 448.362 C 1051.850 447.920, 1050.286 448.443, 1047.531 450.544 C 1042.606 454.300, 1041.174 452.871, 1043.379 446.401 C 1045.974 438.786, 1045.206 436.319, 1041.058 438.943 C 1039.402 439.991, 1037.038 447.189, 1037.015 451.250 C 1037.007 452.762, 1036.599 454, 1036.109 454 C 1035.620 454, 1034.977 455.462, 1034.681 457.250 C 1033.817 462.467, 1032.908 466.354, 1032.049 468.500 C 1031.609 469.600, 1030.743 471.759, 1030.125 473.297 C 1029.506 474.835, 1029 478.260, 1029 480.906 C 1029 484.250, 1028.137 487.364, 1026.173 491.109 C 1024.618 494.074, 1022.556 499.200, 1021.590 502.500 C 1020.624 505.800, 1018.971 511.294, 1017.917 514.709 C 1016.863 518.124, 1016 522.737, 1016 524.959 C 1016 527.182, 1015.550 529, 1015 529 C 1014.450 529, 1014 531.475, 1014 534.500 C 1014 539.657, 1014.152 540, 1016.429 540 C 1017.764 540, 1019.536 539.322, 1020.365 538.492 C 1022.337 536.520, 1022.659 537.212, 1023.515 545.250 L 1024.233 552 1018.116 552 C 1012.106 552, 1012 552.048, 1012.020 554.750 C 1012.031 556.263, 1012.469 560.468, 1012.994 564.097 C 1013.548 567.926, 1013.585 571.960, 1013.082 573.713 C 1012.606 575.373, 1012.505 577.130, 1012.858 577.616 C 1013.211 578.102, 1018.900 578.527, 1025.500 578.561 C 1032.100 578.594, 1038.625 578.941, 1040 579.331 C 1045.705 580.952, 1052.251 581.498, 1065.500 581.459 L 1079.500 581.419 1089 576.646 C 1110.539 565.826, 1109.346 566.643, 1113.956 559.568 C 1116.327 555.928, 1118.780 552.623, 1119.407 552.225 C 1120.814 551.330, 1133.521 535.187, 1137.832 528.820 C 1139.574 526.246, 1141 523.523, 1141 522.770 C 1141 522.016, 1141.489 520.911, 1142.086 520.314 C 1143.627 518.773, 1150.132 504.042, 1150.730 500.738 C 1151.005 499.219, 1151.629 497.729, 1152.115 497.429 C 1152.602 497.128, 1153 495.397, 1153 493.582 C 1153 491.767, 1154.344 487.631, 1155.987 484.391 C 1157.630 481.151, 1158.980 477.094, 1158.987 475.376 C 1158.994 473.657, 1159.684 470.314, 1160.519 467.945 C 1162.269 462.987, 1162.531 450.930, 1161.125 440.166 C 1160.598 436.133, 1160.016 432.726, 1159.833 432.596 C 1158.936 431.956, 1148.497 430, 1145.983 430 C 1144.407 430, 1142.840 429.550, 1142.500 429 C 1141.769 427.817, 1138.832 427.858, 1134 429.117" stroke="#68533d" fill="#68533d" fill-opacity="0.2" fill-rule="evenodd"/><path class="svg-region-Ol" d="M 428.500 378.194 C 415.029 381.966, 408.964 384.138, 403.705 387.071 C 402.718 387.622, 399.433 389.413, 396.405 391.052 C 386.614 396.349, 374.552 404.948, 365.968 412.750 C 363.397 415.087, 360.889 417.012, 360.396 417.026 C 359.227 417.059, 352.214 424.278, 342.478 435.472 C 338.185 440.406, 333.889 445.131, 332.931 445.972 C 331.973 446.812, 329.736 450.200, 327.961 453.500 C 326.186 456.800, 324.485 459.930, 324.181 460.455 C 323.877 460.980, 323.490 462.679, 323.320 464.232 C 323.150 465.784, 322.378 468.054, 321.604 469.277 C 320.830 470.500, 319.893 472.957, 319.521 474.739 C 319.150 476.520, 318.443 478.226, 317.950 478.531 C 314.264 480.809, 309.126 501.211, 305.282 528.838 C 304.925 531.402, 304.603 541.600, 304.566 551.500 C 304.482 574.255, 305.410 579.038, 315.181 606.249 C 322.251 625.939, 331.480 643.685, 339.959 653.895 C 341.605 655.878, 344.718 659.750, 346.876 662.500 C 349.034 665.250, 352.688 668.850, 354.996 670.500 C 357.304 672.150, 360.612 674.645, 362.346 676.044 C 364.081 677.443, 366.625 679.342, 368 680.263 C 369.375 681.185, 372.300 683.282, 374.500 684.924 C 376.700 686.566, 381.200 689.552, 384.500 691.559 C 387.800 693.566, 390.843 695.807, 391.262 696.537 C 391.681 697.268, 394.530 698.803, 397.593 699.949 C 400.657 701.095, 404.540 702.745, 406.223 703.615 C 407.906 704.486, 412.707 706.251, 416.892 707.537 C 425.961 710.326, 439.703 714.875, 442.500 716.015 C 447.297 717.969, 454.217 719.251, 464 719.999 C 477.705 721.047, 492.728 722.912, 496.500 724.034 C 498.150 724.525, 522.757 725.151, 551.181 725.426 C 610.032 725.996, 608.740 726.116, 622.219 718.796 C 625.077 717.244, 632 710.177, 632 708.811 C 632 708.372, 633.816 706.697, 636.035 705.090 C 638.254 703.482, 641.179 700.104, 642.535 697.583 C 643.891 695.063, 646.098 690.958, 647.440 688.463 C 648.782 685.968, 651.903 681.677, 654.375 678.927 C 656.848 676.178, 658.889 673.157, 658.911 672.214 C 658.934 671.271, 659.163 669.150, 659.421 667.500 C 660.832 658.461, 662.001 650.581, 663.056 643 C 664.994 629.067, 668.940 611.325, 673.396 596.500 C 675.033 591.052, 675.497 586.839, 675.488 577.500 C 675.476 565.042, 673.764 546.436, 671.993 539.500 C 670.846 535.010, 669.315 528.475, 668.011 522.500 C 667.531 520.300, 666.169 515.350, 664.984 511.500 C 661.236 499.318, 660.822 497.632, 660.105 491.634 C 659.640 487.740, 658.799 485.326, 657.602 484.451 C 656.611 483.726, 656.119 482.617, 656.509 481.985 C 656.899 481.354, 656.136 479.637, 654.814 478.169 C 653.491 476.701, 649.836 472.067, 646.691 467.871 C 641.126 460.445, 631.622 451, 629.715 451 C 628.093 451, 617.023 442.662, 608.359 434.914 C 607.182 433.862, 605.989 433, 605.709 433 C 605.169 433, 599.534 427.997, 594.445 423 C 592.764 421.350, 591.022 420, 590.572 420 C 590.123 420, 587.130 417.300, 583.921 414 C 580.712 410.700, 577.709 408, 577.247 408 C 576.189 408, 572.920 405.500, 568.092 401 C 566.027 399.075, 562.124 396.419, 559.419 395.097 C 556.714 393.776, 553.795 391.976, 552.933 391.097 C 552.071 390.219, 548.696 388.665, 545.433 387.645 C 542.170 386.625, 538.243 385.126, 536.707 384.313 C 535.171 383.501, 531.121 382.419, 527.707 381.908 C 504.562 378.450, 500.172 378.123, 477 378.124 C 463.525 378.125, 449.125 377.661, 445 377.093 C 436 375.855, 437.120 375.781, 428.500 378.194" stroke="#aa444d" fill="#aa444d" fill-opacity="0.2" fill-rule="evenodd"/><path class="svg-region-LBPCl" d="M 745.100 404.201 C 738.162 404.972, 735.494 405.819, 729.761 409.067 C 725.944 411.230, 722.593 413, 722.314 413 C 722.035 413, 719.713 414.838, 717.153 417.085 C 711.856 421.736, 711.272 423.626, 710.351 439.087 C 709.891 446.821, 710.097 449.286, 711.416 451.837 C 712.315 453.577, 713.377 455, 713.776 455 C 714.353 455, 716.870 447.799, 718.514 441.446 C 719.311 438.365, 739.734 436.770, 742.087 439.605 C 744.721 442.779, 755.330 449.253, 769.059 456.064 C 781.030 462.003, 783.797 463, 788.316 463 C 793.142 463, 793.923 462.663, 797.439 459.063 C 801.426 454.979, 802.793 454.271, 812 451.512 C 824.803 447.677, 824.126 445.374, 806.215 431.801 C 780.344 412.196, 776.487 409.418, 773.500 408.241 C 769.438 406.641, 755.788 402.967, 754.520 403.134 C 753.959 403.207, 749.720 403.688, 745.100 404.201" stroke="#daffff" fill="#daffff" fill-opacity="0.2" fill-rule="evenodd"/><path class="svg-region-LBPCr" d="M 1109 389.161 C 1105.975 390.312, 1101.444 391.999, 1098.931 392.911 C 1096.418 393.824, 1093.095 395.567, 1091.546 396.785 C 1089.997 398.003, 1088.173 399, 1087.492 399 C 1086.811 399, 1080.729 404.428, 1073.977 411.063 C 1061.025 423.790, 1051.499 430, 1044.933 430 C 1043.218 430, 1040.678 430.895, 1039.287 431.989 C 1037.679 433.253, 1035.935 433.771, 1034.495 433.409 C 1030.473 432.400, 1020.141 438.986, 1020.033 442.628 C 1020.015 443.248, 1020.563 444.221, 1021.250 444.790 C 1022.993 446.234, 1031.072 444.623, 1032.200 442.607 C 1032.695 441.723, 1034.090 440.984, 1035.300 440.965 C 1036.510 440.945, 1038.625 440.286, 1040 439.500 C 1045.326 436.455, 1046.176 438.191, 1043.379 446.401 C 1041.194 452.815, 1042.502 454.019, 1047.828 450.495 C 1050.855 448.492, 1052.600 447.973, 1054.733 448.441 C 1056.981 448.935, 1058.093 448.530, 1059.968 446.534 C 1061.996 444.376, 1063.226 444, 1068.267 444 C 1073.574 444, 1074.687 444.387, 1079.050 447.750 C 1081.726 449.813, 1083.934 451.962, 1083.957 452.528 C 1083.981 453.093, 1084.958 454.376, 1086.128 455.378 C 1088.733 457.608, 1090.585 456.804, 1098.455 450.029 C 1101.348 447.538, 1105.155 444.375, 1106.915 443 C 1108.674 441.625, 1112.331 438.607, 1115.041 436.294 C 1120.922 431.273, 1123.494 429.801, 1125.789 430.141 C 1126.730 430.280, 1130.542 429.804, 1134.259 429.082 C 1138.711 428.218, 1141.442 428.104, 1142.259 428.748 C 1142.942 429.285, 1145.750 430.015, 1148.500 430.369 C 1151.250 430.723, 1154.737 431.287, 1156.250 431.623 C 1158.893 432.209, 1159 432.077, 1159 428.242 C 1159 426.047, 1158.307 422.288, 1157.461 419.889 C 1156.614 417.490, 1155.015 411.977, 1153.908 407.639 C 1152.800 403.301, 1151.355 399.206, 1150.697 398.541 C 1150.039 397.875, 1148.606 396.131, 1147.513 394.665 C 1146.420 393.199, 1144.898 392, 1144.131 392 C 1143.364 392, 1141.333 391.157, 1139.618 390.127 C 1137.298 388.733, 1133.685 388.102, 1125.500 387.661 C 1115.859 387.143, 1113.820 387.328, 1109 389.161" stroke="#daffff" fill="#daffff" fill-opacity="0.2" fill-rule="evenodd"/><path class="svg-region-BPCl" d="M 847.188 552.960 C 844.665 556.373, 844.527 557.593, 846.250 561.265 C 847.427 563.775, 847.870 563.919, 853.866 563.744 C 857.448 563.639, 860.419 563.072, 860.659 562.446 C 861.283 560.821, 856.275 551.319, 854.420 550.608 C 851.299 549.410, 849.342 550.046, 847.188 552.960" stroke="#83385f" fill="#83385f" fill-opacity="0.2" fill-rule="evenodd"/><path class="svg-region-BPCr" d="M 1019.929 538.585 C 1018.646 540.131, 1016.400 540.110, 1011.353 538.504 C 1009.453 537.899, 1009.125 538.298, 1008.505 541.968 C 1008.071 544.541, 1008.267 547.231, 1009.024 549.057 C 1010.209 551.919, 1010.436 552, 1017.261 552 L 1024.279 552 1023.648 546.750 C 1023.301 543.862, 1023.013 540.487, 1023.009 539.250 C 1022.999 536.616, 1021.782 536.353, 1019.929 538.585" stroke="#83385f" fill="#83385f" fill-opacity="0.2" fill-rule="evenodd"/>
    </svg>