<svg xmlns="http://www.w3.org/2000/svg" width="1921" height="1027" viewBox="0 0 1921 1027" version="1.1">
    <path class="svg-region-V" d="M 762.848 260.485 C 762.581 260.752, 759.719 261.159, 756.488 261.389 C 752.646 261.663, 750.210 262.359, 749.447 263.404 C 748.805 264.282, 747.603 265, 746.777 265 C 745.819 265, 744.629 267.088, 743.499 270.750 C 742.523 273.913, 741.372 276.954, 740.941 277.508 C 739.436 279.443, 737.029 287.525, 737.015 290.693 C 736.994 295.181, 739.979 297, 747.365 297 C 751.823 297, 755.286 297.834, 761.392 300.378 C 765.852 302.236, 771.075 304.346, 773 305.067 C 774.925 305.787, 778.179 307.417, 780.230 308.689 C 784.688 311.451, 787.933 311.625, 790.561 309.243 C 795.267 304.978, 804.108 303.649, 809 306.472 C 810.375 307.265, 812.433 308.342, 813.572 308.865 C 814.712 309.388, 817.561 311.657, 819.904 313.908 C 822.433 316.338, 825.122 318, 826.523 318 C 827.820 318, 829.141 318.420, 829.458 318.933 C 829.775 319.446, 831.398 319.826, 833.064 319.779 C 834.730 319.732, 836.612 320.212, 837.246 320.846 C 839.080 322.680, 842 322.236, 842 320.125 C 842 318.838, 842.949 318.060, 845.026 317.645 C 854.693 315.711, 857.645 301.351, 851.835 284.511 C 850.197 279.763, 848.702 277.161, 847.174 276.400 C 845.937 275.783, 843.929 274.368, 842.713 273.256 C 839.140 269.991, 834.541 268.074, 827.808 267.041 C 824.338 266.509, 817.675 265.369, 813 264.506 C 808.325 263.644, 800 262.734, 794.500 262.483 C 789 262.232, 781.800 261.574, 778.500 261.019 C 772.173 259.957, 763.667 259.666, 762.848 260.485" stroke="#dd8a8a" fill="#dd8a8a" fill-opacity="0.2" fill-rule="evenodd"/><path class="svg-region-DB" d="M 725.792 300.114 C 720.864 304.838, 715.244 307.199, 710.965 306.343 C 708.225 305.795, 708.002 305.968, 708.024 308.625 C 708.053 312.210, 713.077 321.954, 719 329.913 C 722.295 334.340, 724.638 336.403, 727.750 337.616 C 730.087 338.526, 732 339.607, 732 340.017 C 732 340.427, 734.138 341.581, 736.750 342.581 C 743.783 345.272, 785.530 345.850, 798.500 343.435 C 803.450 342.513, 808.402 341.200, 809.504 340.518 C 811.572 339.236, 812.955 338.952, 826.500 337.027 C 835.748 335.713, 839 334.009, 839 330.477 C 839 329.115, 839.062 327.663, 839.139 327.250 C 839.215 326.837, 838.065 325.901, 836.584 325.169 C 834.456 324.118, 834.129 323.549, 835.031 322.463 C 836.663 320.497, 835.281 318.891, 832.548 319.577 C 831.267 319.899, 829.918 319.676, 829.550 319.081 C 829.183 318.486, 827.831 318, 826.546 318 C 825.150 318, 822.293 316.190, 819.446 313.500 C 816.826 311.025, 814.336 309, 813.912 309 C 813.489 309, 812.463 308.320, 811.632 307.489 C 809.780 305.637, 802.364 304.522, 797.707 305.395 C 795.813 305.751, 792.966 307.156, 791.382 308.519 C 787.595 311.775, 786.138 311.661, 778.432 307.500 C 774.867 305.575, 771.293 304, 770.491 304 C 769.688 304, 766.212 302.615, 762.766 300.921 C 757.889 298.525, 754.394 297.646, 747 296.957 C 730.859 295.452, 730.618 295.488, 725.792 300.114" stroke="#e8b1e4" fill="#e8b1e4" fill-opacity="0.2" fill-rule="evenodd"/><path class="svg-region-PP" d="M 815.374 437.204 C 814.003 439.422, 816.597 443.146, 821.401 445.857 C 830.608 451.053, 836.932 462.325, 836.976 473.615 C 836.993 478.012, 837.520 480.400, 838.851 482.115 C 842.827 487.240, 851.006 503.864, 852.579 510.018 C 854.666 518.181, 860.959 530.217, 866.018 535.722 C 868.231 538.129, 870.177 541.428, 870.546 543.395 C 870.902 545.292, 872.275 548.981, 873.597 551.592 C 874.919 554.203, 876 557.546, 876 559.020 C 876 562.284, 874.101 568, 873.017 568 C 872.584 568, 871.501 569.113, 870.609 570.474 L 868.989 572.947 878.744 572.369 C 884.110 572.051, 890.975 571.205, 894 570.488 C 897.516 569.655, 903.467 569.339, 910.500 569.613 C 925.568 570.199, 928.530 569.237, 924.440 565.084 C 919.920 560.495, 915.114 552.631, 914.472 548.771 C 913.752 544.452, 910.839 537.753, 908.483 535 C 907.777 534.175, 906.238 530.125, 905.063 526 C 903.888 521.875, 901.974 515.350, 900.810 511.500 C 898.421 503.600, 888.502 484.030, 883.087 476.533 C 879.128 471.052, 876.575 465.848, 875.032 460.117 C 873.655 455.003, 867.922 449.548, 860.045 445.855 C 856.445 444.167, 851.770 441.934, 849.655 440.893 C 843.476 437.850, 834.156 436.149, 824.655 436.331 C 819.790 436.424, 815.613 436.817, 815.374 437.204 M 984.500 440.068 C 980.650 441.066, 975.025 442.976, 972 444.312 C 963.839 447.917, 957.053 450.178, 952 450.976 C 947.524 451.682, 941.985 453.797, 940.967 455.188 C 940.673 455.589, 936.823 456.218, 932.411 456.586 C 926.356 457.091, 923.017 456.856, 918.791 455.628 C 915.431 454.651, 909.535 454, 904.046 454 C 897.715 454, 893.972 453.520, 891.883 452.439 C 886.673 449.745, 884.784 450.760, 883.126 457.144 C 881.816 462.188, 881.832 463.484, 883.275 469.333 C 884.755 475.327, 888.215 481.965, 892 486.072 C 894.791 489.100, 896.492 491.594, 898.979 496.305 C 900.343 498.887, 901.725 501, 902.051 501 C 902.574 501, 903.696 503.262, 908.003 513 C 908.611 514.375, 909.963 517.075, 911.006 519 C 912.050 520.925, 912.926 523.208, 912.952 524.073 C 913.011 525.990, 918.064 536.557, 921.606 542.168 C 923.460 545.105, 924.035 547.077, 923.629 549.107 C 923.309 550.706, 923.680 553.157, 924.479 554.722 C 925.260 556.250, 926.134 558.294, 926.423 559.265 C 927.268 562.101, 931.383 563, 943.526 563 C 954.054 563, 955.082 563.171, 957.027 565.250 C 959.059 567.423, 959.801 567.506, 978.816 567.669 C 989.642 567.763, 1002.550 568.074, 1007.500 568.361 C 1012.686 568.663, 1014.973 568.562, 1012.898 568.124 C 1010.719 567.663, 1008.064 566.007, 1006.177 563.931 C 1003.610 561.107, 1003.053 559.651, 1003.029 555.700 C 1003.013 553.061, 1003.734 549.482, 1004.631 547.747 C 1005.528 546.013, 1006.405 542.548, 1006.580 540.047 C 1007.479 527.242, 1008.402 522.139, 1010.610 517.782 C 1014.673 509.766, 1021.622 499.697, 1025.989 495.500 C 1032.311 489.424, 1034.559 482.639, 1035.518 466.729 C 1036.064 457.693, 1038.928 451.026, 1044.287 446.321 C 1046.165 444.672, 1048.003 442.125, 1048.370 440.661 C 1048.984 438.215, 1048.791 438, 1045.987 438 C 1044.309 438, 1041.320 438.675, 1039.346 439.500 C 1034.613 441.477, 1017.513 441.480, 1004.413 439.506 C 992.811 437.757, 993.488 437.738, 984.500 440.068" stroke="#c4743d" fill="#c4743d" fill-opacity="0.2" fill-rule="evenodd"/><path class="svg-region-DMl" d="M 737 442.061 C 735.075 442.505, 729.767 443.334, 725.205 443.903 C 720.642 444.472, 716.488 445.198, 715.973 445.517 C 714.243 446.586, 715.651 475.708, 717.857 484.500 C 722.596 503.389, 726.164 513.638, 731.435 523.508 C 737.894 535.605, 753.224 557.616, 755.755 558.428 C 756.715 558.736, 760.595 561.911, 764.378 565.482 C 770.627 571.383, 775.345 573.976, 779.865 573.994 C 780.615 573.997, 783.315 575.088, 785.865 576.419 C 792.888 580.084, 795.229 580.438, 812 580.375 C 823.158 580.333, 831.422 579.676, 841.500 578.031 C 849.200 576.774, 858.099 575.447, 861.274 575.083 C 866.321 574.505, 867.582 573.889, 871.274 570.196 C 875.338 566.132, 875.500 565.732, 875.500 559.735 C 875.500 555.004, 874.991 552.776, 873.389 550.500 C 872.227 548.850, 870.967 545.800, 870.588 543.722 C 870.161 541.381, 868.424 538.339, 866.021 535.722 C 861.030 530.286, 855.334 519.388, 852.840 510.500 C 850.940 503.726, 842.417 486.417, 839.130 482.655 C 838.084 481.457, 837.316 478.067, 836.944 473.001 C 835.988 459.993, 829.531 449.432, 819.565 444.578 C 816.516 443.093, 816.498 443.101, 816.187 446.042 C 815.902 448.728, 815.534 449, 812.187 449.001 C 807.399 449.002, 795.400 451.517, 790.585 453.529 C 787.263 454.917, 786.887 455.414, 787.453 457.670 C 788.889 463.392, 789.210 466, 788.479 466 C 788.054 466, 785.324 464.418, 782.410 462.484 C 777.287 459.084, 773 454.351, 773 452.096 C 773 451.493, 771.722 451, 770.159 451 C 765.442 451, 758.317 448.405, 752.582 444.598 C 746.962 440.868, 744.151 440.410, 737 442.061" stroke="#68533d" fill="#68533d" fill-opacity="0.2" fill-rule="evenodd"/><path class="svg-region-DMr" d="M 1131.500 434.536 C 1129.850 435.292, 1125.947 435.930, 1122.827 435.955 C 1118.195 435.992, 1116.578 436.484, 1114.020 438.637 C 1109.396 442.528, 1103.863 445.108, 1100.803 444.802 C 1098.707 444.593, 1097.086 445.596, 1093.542 449.295 C 1088.992 454.043, 1085.605 456, 1081.935 456 C 1079.755 456, 1079.207 452.193, 1081.113 450.287 C 1082.751 448.649, 1081.272 447, 1078.163 447 C 1076.668 447, 1074.437 446.294, 1073.204 445.430 C 1070.145 443.288, 1060.706 444.466, 1056.137 447.560 C 1053.693 449.216, 1051.885 449.693, 1049.514 449.309 C 1047.638 449.004, 1045.963 449.251, 1045.568 449.890 C 1045.191 450.500, 1044.248 451, 1043.472 451 C 1041.450 451, 1042.755 448.297, 1045.069 447.692 C 1046.131 447.414, 1047 446.382, 1047 445.397 C 1047 443.984, 1046.262 444.323, 1043.489 447.011 C 1038.226 452.111, 1036.124 457.333, 1035.461 466.947 C 1034.329 483.387, 1032.343 489.384, 1026.007 495.500 C 1021.074 500.262, 1015.276 508.529, 1011.182 516.639 C 1008.361 522.228, 1007.536 526.423, 1006.580 540.047 C 1006.405 542.548, 1005.528 546.013, 1004.631 547.747 C 1003.734 549.482, 1003 553.110, 1003 555.810 C 1003 560, 1003.488 561.238, 1006.330 564.251 L 1009.660 567.781 1021.580 568.430 C 1037.766 569.311, 1054.132 570.817, 1062.137 572.163 C 1065.788 572.776, 1073.213 573.041, 1078.637 572.752 C 1088.702 572.214, 1092.293 571.084, 1098.500 566.499 C 1100.150 565.281, 1103.940 563.048, 1106.922 561.538 C 1117.207 556.329, 1134 541.566, 1134 537.733 C 1134 537.126, 1134.856 535.700, 1135.901 534.564 C 1138.138 532.136, 1142.304 525.149, 1144.892 519.486 C 1145.901 517.278, 1147.463 514.860, 1148.363 514.113 C 1149.264 513.366, 1150 512.342, 1150 511.837 C 1150 511.332, 1150.884 509.700, 1151.965 508.210 C 1155.637 503.145, 1159.134 486.779, 1159.728 471.882 C 1160.253 458.691, 1160.188 458.090, 1157.635 452.694 C 1156.186 449.630, 1155 446.291, 1155 445.274 C 1155 441.835, 1149.781 437.177, 1143.535 435.040 C 1136.690 432.699, 1135.610 432.654, 1131.500 434.536" stroke="#68533d" fill="#68533d" fill-opacity="0.2" fill-rule="evenodd"/><path class="svg-region-Ol" d="M 469.898 372.435 C 469.659 372.675, 463.846 373.109, 456.981 373.400 C 433.388 374.400, 417.180 377.898, 407 384.185 C 404.525 385.713, 401.600 387.388, 400.500 387.905 C 399.400 388.423, 395.321 392.144, 391.435 396.173 C 387.549 400.203, 374.817 413.175, 363.143 425 C 351.469 436.825, 340.846 448.300, 339.537 450.500 C 333.998 459.811, 328.080 473.116, 327.086 478.494 C 326.498 481.673, 325.451 484.994, 324.759 485.874 C 324.066 486.754, 323.129 487.930, 322.675 488.487 C 321.465 489.972, 317.533 496.686, 314.077 503.167 C 309.715 511.346, 307.126 518.591, 305.943 525.924 C 305.359 529.543, 304.229 532.843, 303.356 533.482 C 302.127 534.381, 301.693 537.635, 301.259 549.225 C 300.748 562.887, 300.889 564.507, 303.432 574.168 C 306.833 587.085, 312.417 603.638, 316.026 611.500 C 317.541 614.800, 319.082 618.501, 319.449 619.724 C 319.817 620.946, 321.594 624.096, 323.398 626.724 C 325.202 629.351, 327.430 633.088, 328.348 635.030 C 329.267 636.971, 331.877 640.796, 334.147 643.530 C 336.418 646.263, 340.610 652.100, 343.464 656.500 C 348.111 663.666, 352.646 668.337, 364 677.654 C 369.979 682.559, 391.595 695.948, 393.675 696.034 C 394.129 696.053, 396.300 696.937, 398.500 698 C 400.700 699.063, 403.114 699.947, 403.865 699.966 C 404.616 699.985, 408.623 701.589, 412.769 703.530 C 416.915 705.472, 422.376 707.504, 424.904 708.046 C 436.620 710.560, 455.841 715.335, 459 716.517 C 462.276 717.742, 464.637 718.348, 476 720.879 C 478.867 721.517, 489.038 721.601, 504.030 721.108 C 516.971 720.683, 530.921 720.720, 535.030 721.191 C 542.382 722.033, 580.293 721.513, 593 720.396 C 606.140 719.240, 620.598 709.597, 632.684 693.925 C 637.089 688.213, 643 677.675, 643 675.533 C 643 674.838, 643.824 673.197, 644.832 671.885 C 647.586 668.299, 653.751 652.281, 654.991 645.487 C 655.593 642.194, 656.489 637.700, 656.984 635.500 C 659.874 622.656, 660.768 617.279, 662.639 601.500 C 662.900 599.300, 663.488 596.600, 663.946 595.500 C 664.940 593.115, 667.242 584.330, 669.581 574 C 671.984 563.385, 671.853 551.492, 669.066 527.151 C 667.912 517.066, 667.253 514.981, 665.903 517.143 C 665.404 517.943, 665.301 516.982, 665.651 514.801 C 666.088 512.080, 665.801 510.658, 664.565 509.422 C 663.641 508.498, 663.116 507.140, 663.399 506.403 C 663.681 505.667, 663.482 504.798, 662.956 504.473 C 662.430 504.148, 662 502.839, 662 501.563 C 662 500.288, 661.325 498.685, 660.500 498 C 659.675 497.315, 659 496.190, 659 495.500 C 659 494.810, 658.352 493.707, 657.559 493.049 C 656.767 492.392, 656.367 491.208, 656.669 490.419 C 656.972 489.630, 656.554 487.969, 655.741 486.728 C 654.928 485.486, 653.930 482.902, 653.523 480.985 C 653.117 479.068, 651.989 476.600, 651.016 475.500 C 650.044 474.400, 648.436 471.700, 647.443 469.500 C 645.938 466.165, 641.182 459.851, 636.899 455.500 C 636.357 454.950, 632.941 451.462, 629.306 447.750 C 625.672 444.038, 622.364 441, 621.955 441 C 621.546 441, 619.731 439.617, 617.921 437.926 C 616.111 436.235, 612.994 434.017, 610.995 432.998 C 608.997 431.978, 605.532 429.649, 603.297 427.822 C 601.062 425.995, 597.967 423.600, 596.418 422.500 C 594.870 421.400, 591.925 419.150, 589.874 417.500 C 576.533 406.765, 574.073 404.633, 573.596 403.390 C 573.303 402.625, 572.414 402, 571.620 402 C 570.827 402, 568.981 400.578, 567.519 398.840 C 566.056 397.102, 563.095 394.806, 560.938 393.739 C 558.781 392.672, 556 390.727, 554.758 389.417 C 553.516 388.107, 551.596 387.027, 550.491 387.017 C 549.385 387.008, 547.919 386.100, 547.232 385 C 546.455 383.755, 544.900 383, 543.114 383 C 541.536 383, 539.668 382.305, 538.962 381.454 C 538.257 380.604, 537.060 380.147, 536.302 380.438 C 535.544 380.728, 534.658 380.273, 534.333 379.426 C 534.008 378.578, 533.107 378.129, 532.331 378.426 C 531.556 378.724, 530.151 378.546, 529.210 378.030 C 526.895 376.761, 516.048 374.270, 507.500 373.044 C 500.644 372.060, 470.757 371.577, 469.898 372.435" stroke="#aa444d" fill="#aa444d" fill-opacity="0.2" fill-rule="evenodd"/><path class="svg-region-LBPCl" d="M 726.555 399.774 C 717.339 404.854, 716.526 406.091, 716.312 415.350 C 716.051 426.658, 715.628 431.302, 714.733 432.682 C 714.312 433.332, 714.266 436.416, 714.633 439.535 L 715.300 445.208 719.400 444.531 C 721.655 444.159, 727.100 443.404, 731.500 442.854 C 735.900 442.303, 741.137 441.619, 743.137 441.332 C 746.153 440.900, 747.664 441.424, 751.985 444.396 C 757.109 447.920, 765.283 451, 769.514 451 C 770.894 451, 772.531 452.329, 774.082 454.709 C 776.517 458.445, 787.538 466.795, 788.614 465.720 C 788.932 465.401, 788.761 463.122, 788.235 460.655 C 787.709 458.187, 787.553 455.783, 787.889 455.314 C 789.572 452.960, 804.844 449.002, 812.250 449.001 C 815.997 449, 816 448.997, 815.985 444.750 C 815.966 439.692, 815.317 438.514, 812 437.521 C 807.561 436.191, 799.870 430.858, 792.136 423.745 C 789.863 421.655, 787.181 419.881, 784 418.363 C 783.175 417.969, 781.150 416.713, 779.500 415.571 C 771.072 409.739, 765.719 407.239, 758.856 405.931 C 755.360 405.265, 751.731 404.055, 750.791 403.242 C 748.736 401.465, 736.313 397.001, 733.500 397.029 C 732.400 397.040, 729.275 398.275, 726.555 399.774" stroke="#daffff" fill="#daffff" fill-opacity="0.2" fill-rule="evenodd"/><path class="svg-region-LBPCr" d="M 1112 388.473 C 1103.729 390.061, 1102.632 390.533, 1096.126 395.305 C 1089.310 400.304, 1086.900 402.932, 1076.480 416.730 C 1070.764 424.299, 1066.676 428.700, 1063.940 430.230 C 1061.708 431.478, 1058.053 433.493, 1055.818 434.706 C 1050.377 437.660, 1048 439.928, 1048 442.164 C 1048 443.184, 1046.617 445.466, 1044.926 447.235 C 1041.987 450.310, 1042.477 452.509, 1045.536 449.970 C 1046.395 449.257, 1048.247 448.999, 1049.997 449.349 C 1052.188 449.788, 1053.916 449.318, 1056.457 447.594 C 1061.106 444.439, 1070.125 443.274, 1073.204 445.430 C 1074.437 446.294, 1076.668 447, 1078.163 447 C 1081.272 447, 1082.751 448.649, 1081.113 450.287 C 1080.501 450.899, 1080 452.612, 1080 454.094 C 1080 456.750, 1080.057 456.773, 1084.099 455.747 C 1086.873 455.043, 1089.839 453.066, 1093.273 449.632 C 1097.105 445.800, 1098.978 444.621, 1100.923 444.815 C 1103.875 445.109, 1109.456 442.477, 1114.020 438.637 C 1116.560 436.500, 1118.177 436, 1122.556 436 C 1125.528 436, 1129.805 435.261, 1132.061 434.359 C 1135.922 432.814, 1136.517 432.829, 1142.191 434.609 C 1149.914 437.032, 1154.557 441.559, 1155.454 447.541 C 1155.808 449.904, 1156.707 452.342, 1157.451 452.959 C 1158.195 453.577, 1159.081 455.189, 1159.421 456.541 C 1160.288 459.995, 1162 459.607, 1162 455.957 C 1162 448.858, 1158.847 424.218, 1157.527 421 C 1156.738 419.075, 1155.324 414.575, 1154.386 411 C 1151.473 399.896, 1143.460 390.333, 1135.130 388.019 C 1130.396 386.705, 1120.162 386.905, 1112 388.473" stroke="#daffff" fill="#daffff" fill-opacity="0.2" fill-rule="evenodd"/>
    </svg>