<svg xmlns="http://www.w3.org/2000/svg" width="1921" height="1027" viewBox="0 0 1921 1027" version="1.1">
    <path class="svg-region-PP" d="M 794 436.980 C 794 440.205, 797.182 447.333, 799.679 449.702 C 800.956 450.913, 802 452.601, 802 453.452 C 802 454.511, 802.964 455, 805.055 455 C 809.817 455, 816.152 458.405, 822.165 464.198 C 828.966 470.748, 836.840 481.330, 837.542 484.861 C 837.830 486.312, 840.402 492.225, 843.257 498 C 846.994 505.559, 850.062 510.159, 854.209 514.422 C 857.378 517.679, 861.157 522.614, 862.608 525.388 C 864.058 528.162, 866.939 532.472, 869.010 534.966 C 873.636 540.536, 876 545.094, 876 548.442 C 876 549.924, 876.852 551.507, 878.045 552.242 C 881.656 554.465, 886.274 562.679, 885.785 566.012 L 885.346 569 892.108 569 C 895.827 569, 900.137 568.508, 901.685 567.906 C 904.881 566.663, 908.043 566.008, 912.756 565.613 C 914.976 565.426, 917.257 564.102, 919.928 561.447 C 922.081 559.307, 923.656 557.252, 923.427 556.882 C 923.199 556.512, 923.684 555.952, 924.506 555.636 C 928.561 554.080, 923.828 541.087, 915.540 531.026 C 910.835 525.314, 904.075 512.425, 900.841 503 C 897.436 493.078, 882.708 470.474, 876.274 465.296 C 873.680 463.208, 867.677 457.629, 862.934 452.897 C 858.191 448.166, 853.128 443.998, 851.681 443.635 C 850.235 443.272, 847.504 441.924, 845.612 440.640 C 842.783 438.721, 840.321 438.186, 831.758 437.632 C 826.030 437.262, 819.807 436.518, 817.929 435.980 C 816.050 435.441, 809.898 435, 804.257 435 C 794.702 435, 794 435.135, 794 436.980 M 994.500 450.729 C 992.850 450.965, 989.514 452.698, 987.086 454.579 C 984.658 456.461, 981.908 458, 980.975 458 C 980.042 458, 977.754 459.026, 975.890 460.280 C 967.983 465.597, 962.157 468.807, 959.250 469.445 C 957.543 469.820, 954.946 471.327, 953.479 472.793 C 950.213 476.060, 950.521 479.545, 954.867 488.500 C 956.469 491.800, 958.545 496.646, 959.479 499.268 C 960.414 501.891, 961.814 504.671, 962.590 505.447 C 963.365 506.222, 964 507.329, 964 507.906 C 964 508.482, 965.125 509.691, 966.500 510.592 C 968.081 511.628, 969 513.164, 969 514.770 C 969 517.167, 969.103 517.217, 970.829 515.655 C 971.835 514.745, 973.638 514, 974.837 514 C 976.891 514, 976.980 513.682, 976.371 508.504 C 975.924 504.698, 976.189 501.699, 977.234 498.754 C 978.064 496.414, 979.763 491.125, 981.010 487 C 982.256 482.875, 983.931 477.575, 984.732 475.221 C 986.176 470.977, 990.331 465.121, 999.031 455.070 C 1003.497 449.910, 1003.072 449.502, 994.500 450.729" stroke="#c4743d" fill="#c4743d" fill-opacity="0.2" fill-rule="evenodd"/><path class="svg-region-DMl" d="M 736.500 455.500 C 733.750 456.276, 730.091 456.932, 728.369 456.956 C 726.005 456.989, 724.596 457.841, 722.619 460.433 C 720.195 463.610, 720 464.616, 720 473.914 C 720 482.025, 720.593 486.134, 723.076 495.231 C 724.769 501.429, 726.560 508.525, 727.058 511 C 728.004 515.706, 731.880 526.591, 735.109 533.610 C 736.149 535.870, 737 538.123, 737 538.617 C 737 539.977, 741.880 548.924, 745.389 553.998 C 749.289 559.636, 756.591 566.739, 759.382 567.609 C 760.547 567.972, 761.725 568.546, 762 568.885 C 762.275 569.223, 764.975 570.319, 768 571.320 C 771.025 572.321, 776.869 574.775, 780.986 576.774 C 790.213 581.252, 791.470 581.346, 827.561 580.285 L 855.622 579.461 862.561 576.010 C 868.274 573.169, 870.411 572.613, 874.655 572.866 C 879.622 573.161, 883.697 571.904, 885.235 569.600 C 887.609 566.045, 883.535 556.165, 878.136 552.382 C 876.926 551.535, 876 549.806, 876 548.394 C 876 545.144, 873.714 540.790, 868.441 534 C 866.093 530.975, 863.221 526.653, 862.061 524.396 C 860.900 522.139, 857.373 517.567, 854.224 514.237 C 848.578 508.267, 838.684 490.869, 837.534 484.891 C 836.809 481.121, 826.021 467.019, 820.349 462.426 C 811.902 455.587, 810.080 454.921, 800.552 455.187 C 795.848 455.319, 792 455.781, 792 456.213 C 792 457.312, 787.243 457.202, 786.554 456.087 C 786.243 455.585, 784.237 454.878, 782.094 454.516 C 779.143 454.017, 777.186 454.375, 774.018 455.991 C 770.316 457.880, 769.589 457.962, 767.669 456.712 C 764.341 454.545, 742.841 453.710, 736.500 455.500" stroke="#68533d" fill="#68533d" fill-opacity="0.2" fill-rule="evenodd"/><path class="svg-region-DMr" d="M 1066.047 435.171 C 1061.437 436.495, 1052.966 442.203, 1050.338 445.757 C 1045.471 452.340, 1036 475.983, 1036 481.551 C 1036 484.261, 1024.803 516.415, 1022.938 519.061 C 1021.945 520.470, 1020.806 522.923, 1020.407 524.514 C 1020.008 526.105, 1018.133 530.272, 1016.241 533.776 C 1013.434 538.973, 1012.708 541.558, 1012.294 547.823 C 1011.794 555.408, 1011.828 555.546, 1015.144 559.320 C 1018.808 563.492, 1020.934 564.180, 1031.076 564.476 C 1034.693 564.581, 1038.293 565.078, 1039.076 565.580 C 1039.859 566.082, 1049.275 566.563, 1060 566.650 C 1070.725 566.737, 1082.223 567.131, 1085.551 567.526 C 1090.598 568.124, 1092.264 567.906, 1095.583 566.213 C 1097.772 565.096, 1102.166 563.701, 1105.347 563.113 C 1112.303 561.827, 1114.135 560.512, 1127.842 546.971 C 1148.771 526.295, 1153.643 518.039, 1162.939 487.500 C 1166.526 475.714, 1166.535 455.523, 1162.953 455.483 C 1162.103 455.473, 1160.198 454.514, 1158.721 453.352 C 1156.714 451.774, 1153.935 451.065, 1147.733 450.548 C 1143.167 450.168, 1138.916 450.001, 1138.286 450.178 C 1137.656 450.355, 1136.513 449.658, 1135.745 448.628 C 1134.438 446.876, 1133.813 446.837, 1125.925 448.015 C 1121.291 448.706, 1114.575 449.565, 1111 449.923 C 1107.425 450.282, 1103.037 451.357, 1101.250 452.313 C 1098.105 453.995, 1098 453.989, 1098 452.119 C 1098 449.670, 1094.706 450.319, 1090.821 453.534 C 1087.372 456.388, 1081.195 457.626, 1079.399 455.822 C 1078.310 454.728, 1078.577 453.707, 1080.946 449.907 C 1083.302 446.126, 1084.622 445.086, 1088.404 444.027 C 1090.932 443.319, 1093 442.357, 1093 441.889 C 1093 439.245, 1076.680 439.710, 1072.746 442.465 C 1069.720 444.585, 1069 444.399, 1069 441.500 C 1069 440.125, 1069.450 439, 1070 439 C 1070.550 439, 1071 437.875, 1071 436.500 C 1071 433.752, 1070.996 433.751, 1066.047 435.171" stroke="#68533d" fill="#68533d" fill-opacity="0.2" fill-rule="evenodd"/><path class="svg-region-PV" d="M 870.238 425.024 C 868.994 425.530, 867.015 426.839, 865.841 427.933 C 863.952 429.694, 863.780 430.618, 864.342 435.999 C 864.691 439.342, 865.932 444.296, 867.099 447.008 C 868.959 451.332, 870.192 452.527, 877.124 456.719 C 890.630 464.888, 896.425 467.942, 898.500 467.986 C 900.985 468.039, 907.773 470.273, 915 473.415 C 918.025 474.730, 922.460 476.388, 924.856 477.098 C 927.252 477.809, 929.440 478.982, 929.717 479.705 C 929.995 480.429, 929.047 482.561, 927.611 484.443 C 924.167 488.959, 924.140 493.287, 927.547 494.839 C 934.239 497.889, 938.313 494.351, 939.554 484.410 C 940.371 477.873, 943.197 473, 946.171 473 C 947.381 473, 949.300 472.163, 950.436 471.140 C 952.315 469.447, 958.007 466.379, 971.348 459.866 C 974.014 458.565, 976.714 456.784, 977.348 455.909 C 977.982 455.033, 979.625 453.723, 981 452.996 C 983.464 451.694, 987.100 448.545, 995.649 440.308 C 998.042 438.002, 1000 435.190, 1000 434.058 C 1000 432.286, 999.376 432, 995.500 432 C 991.118 432, 987 429.577, 987 427 C 987 425.443, 975.661 425.823, 972.315 427.493 C 970.670 428.313, 968.521 429.871, 967.541 430.954 C 966.561 432.037, 964.126 433.780, 962.130 434.827 C 960.133 435.874, 955.912 438.136, 952.749 439.854 C 945.858 443.596, 940.200 444.704, 936.883 442.960 C 935.572 442.271, 932.430 439.988, 929.900 437.886 C 924.585 433.471, 921.233 432, 916.488 432 C 914.418 432, 910.755 430.622, 907.043 428.446 L 900.979 424.892 889.740 425.196 C 883.558 425.363, 877.150 425.186, 875.500 424.802 C 873.850 424.418, 871.482 424.518, 870.238 425.024 M 1053.500 435.458 C 1042.467 438.275, 1030.313 441, 1028.781 441 C 1027.888 441, 1023.424 442.575, 1018.860 444.500 C 1014.295 446.425, 1009.737 448, 1008.731 448 C 1006.476 448, 1001 450.748, 1001 451.880 C 1001 452.335, 999.862 454.011, 998.472 455.604 C 997.081 457.197, 995.600 458.950, 995.180 459.500 C 994.760 460.050, 992.565 462.850, 990.302 465.721 C 986.023 471.151, 984.585 474.419, 980.939 487 C 979.743 491.125, 978.080 496.416, 977.244 498.757 C 976.225 501.610, 975.922 504.696, 976.327 508.114 C 976.796 512.075, 976.492 514.075, 974.966 517.067 C 973.885 519.187, 973 522.912, 973 525.346 C 973 527.780, 972.328 531.060, 971.506 532.636 C 969.241 536.979, 969.665 539.963, 973 543.150 C 974.650 544.727, 976 546.231, 976 546.491 C 976 546.752, 977.913 548.947, 980.250 551.370 C 983.787 555.036, 985.507 555.984, 990.500 557.018 C 993.800 557.702, 998.300 559.070, 1000.500 560.058 C 1002.700 561.046, 1007.624 562.174, 1011.443 562.564 L 1018.385 563.274 1015.062 559.079 C 1011.852 555.025, 1011.757 554.645, 1012.244 547.835 C 1012.628 542.472, 1013.590 539.080, 1016.270 533.644 C 1023.856 518.257, 1026.056 512.958, 1030.938 498.313 C 1033.722 489.960, 1036 482.556, 1036 481.860 C 1036 481.163, 1037.408 476.072, 1039.128 470.547 C 1044.949 451.854, 1051.439 441.988, 1060.898 437.455 C 1063.141 436.380, 1064.982 435.163, 1064.989 434.750 C 1065.005 433.643, 1059.210 434, 1053.500 435.458" stroke="#b09658" fill="#b09658" fill-opacity="0.2" fill-rule="evenodd"/><path class="svg-region-Ol" d="M 459.951 398.366 C 459.649 398.677, 452.224 399.369, 443.451 399.903 C 430.306 400.705, 425.776 401.411, 417.696 403.917 C 403.365 408.362, 392.817 413.752, 380.343 423.006 C 370.824 430.067, 347.283 452.605, 345.483 456.381 C 344.665 458.096, 342.194 461.876, 339.991 464.779 C 330.516 477.270, 322.878 491.133, 319.099 502.697 C 317.459 507.715, 314.108 516.248, 311.651 521.660 C 309.195 527.072, 306.871 533.525, 306.486 536 C 306.101 538.475, 304.983 542.075, 304 544 C 300.221 551.403, 297.158 570.730, 299.087 575 C 300.038 577.104, 303.685 586.999, 304.617 590 C 305.043 591.375, 305.287 593.048, 305.160 593.718 C 305.032 594.388, 305.843 596.733, 306.963 598.928 C 308.084 601.124, 308.993 603.501, 308.984 604.210 C 308.954 606.678, 320.922 630.657, 323.750 633.795 C 324.988 635.169, 326 636.580, 326 636.933 C 326 637.285, 327.991 639.682, 330.425 642.258 C 332.858 644.834, 335.424 648.530, 336.126 650.471 C 336.828 652.412, 337.996 654, 338.722 654 C 339.449 654, 340.578 655.237, 341.233 656.750 C 341.887 658.263, 343.452 660.772, 344.711 662.327 C 345.970 663.881, 347 665.764, 347 666.509 C 347 667.255, 347.853 668.136, 348.895 668.467 C 349.937 668.797, 352.880 671.303, 355.435 674.034 C 357.990 676.765, 360.675 679, 361.403 679 C 362.130 679, 364.402 680.333, 366.451 681.961 C 368.501 683.590, 372.673 685.856, 375.722 686.997 C 378.771 688.138, 383.118 690.148, 385.383 691.465 C 390.777 694.601, 410.368 702.924, 414.123 703.675 C 415.739 703.998, 417.859 705.276, 418.833 706.515 C 420.031 708.037, 421.462 708.674, 423.246 708.478 C 424.698 708.319, 428.274 709.002, 431.193 709.996 C 437.951 712.297, 442.645 713.550, 452 715.548 C 456.125 716.429, 460.268 717.557, 461.206 718.056 C 462.145 718.554, 464.845 719.229, 467.206 719.555 C 469.568 719.880, 474.425 720.767, 478 721.526 C 483.020 722.590, 491.104 722.791, 513.500 722.406 C 529.450 722.131, 543.175 721.866, 544 721.816 C 544.825 721.766, 548.445 722.231, 552.045 722.849 C 555.645 723.467, 562.395 723.735, 567.045 723.445 C 571.695 723.155, 577.525 722.787, 580 722.627 C 590.936 721.922, 619.387 709.146, 625.814 702.054 C 627.086 700.649, 628.999 698.537, 630.064 697.359 C 631.129 696.182, 632 694.759, 632 694.198 C 632 692.170, 639.360 677.414, 642.147 673.856 C 643.716 671.852, 645 669.095, 645 667.729 C 645 666.363, 645.652 664.704, 646.449 664.042 C 647.246 663.381, 648.406 661.301, 649.026 659.420 C 649.647 657.539, 650.521 656, 650.968 656 C 651.415 656, 652.014 654.538, 652.298 652.750 C 652.582 650.962, 653.372 647.475, 654.054 645 C 654.735 642.525, 655.199 636.679, 655.086 632.009 C 654.972 627.339, 655.356 620.701, 655.939 617.259 C 656.523 613.816, 657.482 607.962, 658.072 604.250 C 658.661 600.538, 659.505 596.600, 659.947 595.500 C 662.115 590.104, 663.849 581.982, 663.811 577.400 C 663.788 574.595, 664.235 571.430, 664.804 570.366 C 665.373 569.303, 665.653 565.298, 665.426 561.466 C 665.199 557.635, 664.831 551.575, 664.607 548 C 664.384 544.425, 663.664 540.150, 663.009 538.500 C 662.353 536.850, 661.409 532.683, 660.911 529.241 C 660.413 525.798, 659.583 522.198, 659.067 521.241 C 658.551 520.283, 655.788 514.325, 652.928 508 C 650.068 501.675, 647.399 496.275, 646.998 496 C 646.597 495.725, 645.257 493.475, 644.020 491 C 642.783 488.525, 640.771 485.150, 639.548 483.500 C 638.325 481.850, 635.599 478.025, 633.490 475 C 627.297 466.117, 620.324 459.445, 608.036 450.644 C 573.810 426.130, 552.898 413.994, 535.500 408.546 C 532.200 407.512, 525.450 405.315, 520.500 403.662 C 515.550 402.009, 507.675 400.282, 503 399.823 C 491.602 398.705, 460.639 397.657, 459.951 398.366" stroke="#aa444d" fill="#aa444d" fill-opacity="0.2" fill-rule="evenodd"/><path class="svg-region-LBPCl" d="M 739.217 400.547 C 734.087 401.484, 730.983 402.677, 728.717 404.581 C 724.097 408.462, 723.561 409.470, 720.573 419.896 C 717.774 429.664, 717.729 430.868, 719.195 456.910 C 719.549 463.191, 720.853 464.211, 723.278 460.106 C 724.703 457.694, 725.816 457.111, 729.750 456.714 C 732.362 456.450, 736.300 455.742, 738.500 455.140 C 743.650 453.730, 763.520 454.782, 767.245 456.661 C 769.695 457.897, 770.431 457.821, 774.094 455.952 C 777.189 454.373, 779.157 454.020, 782.094 454.516 C 784.237 454.878, 786.243 455.585, 786.554 456.087 C 787.360 457.392, 792 457.219, 792 455.883 C 792 455.233, 792.898 455.002, 794.149 455.329 C 797.277 456.147, 802 454.972, 802 453.375 C 802 452.619, 800.987 450.997, 799.750 449.771 C 797.361 447.404, 794.002 439.739, 794.001 436.650 C 794 435.632, 791.080 431.537, 787.512 427.549 C 783.943 423.562, 780.380 418.770, 779.594 416.900 C 777.523 411.975, 768.486 404, 764.975 404 C 763.429 404, 759.924 402.875, 757.187 401.500 C 751.656 398.722, 749.757 398.621, 739.217 400.547" stroke="#daffff" fill="#daffff" fill-opacity="0.2" fill-rule="evenodd"/><path class="svg-region-LBPCr" d="M 1133.036 379.174 C 1131.131 379.721, 1128.078 381.480, 1126.252 383.084 C 1124.425 384.688, 1122.467 386, 1121.901 386 C 1119.590 386, 1110.267 391.116, 1106.961 394.200 C 1102.627 398.242, 1099.498 403.250, 1095.343 412.799 C 1090.197 424.622, 1088.564 426.283, 1075.777 432.706 C 1072.531 434.336, 1071 435.729, 1071 437.053 C 1071 438.124, 1070.550 439, 1070 439 C 1069.450 439, 1069 440.125, 1069 441.500 C 1069 444.399, 1069.720 444.585, 1072.746 442.465 C 1076.691 439.702, 1093 439.247, 1093 441.900 C 1093 442.375, 1091.058 443.252, 1088.684 443.849 C 1084.144 444.993, 1082.499 446.401, 1079.407 451.792 C 1077.758 454.667, 1077.708 455.211, 1079.009 456.079 C 1081.128 457.491, 1086.948 456.415, 1090.203 454.008 C 1091.725 452.883, 1094.103 451.531, 1095.486 451.005 C 1097.652 450.182, 1098 450.326, 1098 452.050 C 1098 453.999, 1098.085 454.006, 1101.250 452.308 C 1103.037 451.349, 1107.650 450.259, 1111.500 449.887 C 1115.350 449.515, 1122.024 448.665, 1126.331 447.999 C 1133.875 446.832, 1134.217 446.865, 1135.650 448.910 C 1136.468 450.078, 1137.576 450.762, 1138.112 450.431 C 1138.649 450.099, 1142.925 450.147, 1147.615 450.538 C 1154.611 451.121, 1156.671 451.694, 1159.091 453.730 C 1161.609 455.848, 1162.276 456.016, 1163.649 454.877 C 1165.036 453.725, 1165.188 451.550, 1164.753 439.021 C 1164.417 429.356, 1163.710 422.995, 1162.639 420 C 1161.753 417.525, 1161.023 413.700, 1161.015 411.500 C 1160.996 406.431, 1158.740 395.642, 1156.671 390.727 C 1152.425 380.640, 1143.364 376.211, 1133.036 379.174" stroke="#daffff" fill="#daffff" fill-opacity="0.2" fill-rule="evenodd"/>
    </svg>