<svg xmlns="http://www.w3.org/2000/svg" width="1921" height="1027" viewBox="0 0 1921 1027" version="1.1">
    <path class="svg-region-DMl" d="M 791 466 C 791 466.550, 790.052 467, 788.893 467 C 787.237 467, 786.963 467.375, 787.614 468.750 C 788.915 471.499, 789.319 516.932, 788.079 521 C 787.492 522.925, 786.579 529.450, 786.051 535.500 C 785.522 541.550, 784.540 550.212, 783.868 554.750 C 782.850 561.619, 782.341 563, 780.823 563 C 779.820 563, 779 563.440, 779 563.977 C 779 565.663, 783.285 567.857, 790.014 569.615 C 795.892 571.151, 798.845 571.200, 821.500 570.140 C 835.250 569.496, 852.913 568.976, 860.750 568.985 C 874.085 568.999, 875.141 568.859, 877.188 566.813 C 878.595 565.405, 878.952 564.484, 878.188 564.229 C 877.534 564.011, 876.989 562.183, 876.976 560.167 C 876.913 550.404, 873.576 544.833, 866.560 542.777 C 862.421 541.563, 852.652 535.865, 851.491 533.985 C 851.138 533.414, 847.951 531.534, 844.408 529.806 C 840.307 527.807, 836.684 525.099, 834.433 522.353 C 832.489 519.980, 828.334 516.359, 825.199 514.305 C 822.065 512.251, 818.486 509.430, 817.246 508.035 C 814.356 504.786, 807.101 492.235, 803.642 484.500 C 800.713 477.952, 799.971 476.603, 795.500 469.697 C 792.606 465.227, 791 463.908, 791 466" stroke="#68533d" fill="#68533d" fill-opacity="0.2" fill-rule="evenodd"/><path class="svg-region-DMr" d="M 1082 454.486 C 1075.635 457.875, 1070.232 458.542, 1065.426 456.531 L 1061.500 454.889 1059.168 457.694 C 1057.886 459.237, 1055.839 461.625, 1054.619 463 C 1047.129 471.447, 1040.818 480.531, 1037.597 487.500 C 1035.564 491.900, 1033.247 496.694, 1032.450 498.154 C 1031.652 499.614, 1030.980 501.864, 1030.957 503.154 C 1030.915 505.430, 1029.321 508.455, 1023.882 516.586 C 1022.442 518.739, 1017.604 524.245, 1013.132 528.823 C 1008.659 533.400, 1005 537.508, 1005 537.950 C 1005 538.393, 1004.325 539.315, 1003.500 540 C 1002.439 540.881, 1002 543.212, 1002 547.972 L 1002 554.700 1008.250 558.528 L 1014.500 562.357 1038 563.102 C 1062.183 563.870, 1086.606 565.325, 1095.622 566.536 C 1100.933 567.249, 1103.387 565.987, 1101.113 563.713 C 1100.501 563.101, 1100 561.859, 1100 560.954 C 1100 560.048, 1099.262 557.828, 1098.361 556.021 C 1096.327 551.945, 1097.005 536.701, 1099.436 531.827 C 1100.655 529.384, 1101 525.230, 1101 513.003 C 1101 495.131, 1099.683 489.472, 1093.385 480.290 C 1090.166 475.597, 1089.882 474.653, 1090.524 470.790 C 1091.508 464.864, 1093.572 461.058, 1097.852 457.275 C 1100.894 454.586, 1101.251 453.883, 1100 453.041 C 1097.100 451.088, 1086.834 451.912, 1082 454.486" stroke="#68533d" fill="#68533d" fill-opacity="0.2" fill-rule="evenodd"/><path class="svg-region-PMl" d="M 743.022 451.947 C 740.009 453.003, 737.391 454.327, 737.204 454.889 C 737.016 455.451, 735.173 458.068, 733.107 460.705 C 731.041 463.342, 728.194 467.611, 726.779 470.191 C 724.305 474.703, 724.224 475.375, 724.676 487.691 C 724.934 494.736, 725.497 501.400, 725.928 502.500 C 726.643 504.326, 728.760 512.127, 730.947 521 C 733.706 532.188, 735.976 537.979, 739.304 542.327 C 741.337 544.981, 743 547.681, 743 548.327 C 743.001 550.460, 752.885 558.057, 757.735 559.651 C 760.356 560.512, 763.774 561.843, 765.331 562.609 C 768.335 564.085, 773.196 564.359, 779.087 563.385 L 782.673 562.791 783.882 554.646 C 784.546 550.166, 785.522 541.550, 786.051 535.500 C 786.579 529.450, 787.488 522.925, 788.071 521 C 789.315 516.886, 788.934 471.441, 787.633 468.750 C 786.965 467.369, 787.231 467, 788.893 467 C 790.567 467, 791 466.384, 791 464 C 791 458.688, 788.535 457.396, 777.073 456.697 C 768.609 456.182, 766.013 455.618, 762.162 453.463 C 755.987 450.006, 749.928 449.526, 743.022 451.947" stroke="#90cf92" fill="#90cf92" fill-opacity="0.2" fill-rule="evenodd"/><path class="svg-region-PMr" d="M 1129 450 C 1128.175 450.533, 1125.842 450.976, 1123.815 450.985 C 1121.788 450.993, 1118.863 451.518, 1117.315 452.152 C 1115.767 452.785, 1111.922 453.392, 1108.772 453.501 C 1098.771 453.845, 1091.718 460.408, 1090.451 470.547 C 1089.847 475.382, 1090.034 476.028, 1093.284 480.285 C 1099.404 488.303, 1101 495.077, 1101 513.041 C 1101 525.234, 1100.654 529.385, 1099.436 531.827 C 1097.005 536.701, 1096.327 551.945, 1098.361 556.021 C 1099.262 557.828, 1100.014 560.026, 1100.032 560.904 C 1100.088 563.715, 1102.392 565.651, 1106.463 566.306 C 1114.248 567.558, 1129.785 557.624, 1135.091 548 C 1136.153 546.075, 1138.817 541.642, 1141.011 538.150 C 1143.205 534.657, 1145 531.248, 1145 530.574 C 1145 529.900, 1146.125 528.292, 1147.500 527 C 1148.875 525.708, 1150 524.116, 1150 523.461 C 1150 522.807, 1151.367 520.748, 1153.037 518.886 C 1157.417 514.002, 1159.021 509.578, 1159.696 500.508 C 1160.024 496.104, 1161.352 489.224, 1162.646 485.219 C 1165.998 474.850, 1165.889 465.404, 1162.341 458.885 C 1160.606 455.698, 1159.025 454, 1157.791 454 C 1156.752 454, 1154.686 453.382, 1153.200 452.627 C 1147.633 449.796, 1131.950 448.094, 1129 450" stroke="#90cf92" fill="#90cf92" fill-opacity="0.2" fill-rule="evenodd"/><path class="svg-region-PV" d="M 863.365 419.750 C 861.493 424.689, 850.185 436.819, 844.911 439.546 C 843.463 440.295, 838.206 441.215, 833.227 441.590 C 828.248 441.966, 823.634 442.608, 822.972 443.017 C 822.039 443.594, 822.028 446.413, 822.923 455.581 C 824.166 468.306, 823.509 466.691, 833.714 482.126 C 836.031 485.632, 838.461 489.116, 839.114 489.869 C 839.767 490.622, 840.642 494.975, 841.058 499.541 C 841.673 506.284, 842.470 509.034, 845.298 514.172 C 847.214 517.652, 849.787 523.955, 851.015 528.178 C 853.104 535.360, 853.547 536.040, 857.874 538.711 C 860.418 540.281, 864.327 542.106, 866.560 542.766 C 868.793 543.426, 871.562 544.986, 872.714 546.233 C 875.088 548.802, 876.971 554.816, 877.026 560 C 877.073 564.501, 880.796 567.583, 884.824 566.456 C 886.296 566.045, 892.287 565.811, 898.139 565.937 C 906.310 566.113, 909.500 565.793, 911.892 564.556 C 914.273 563.325, 916.493 563.097, 921.311 563.591 C 926.591 564.132, 928.291 563.892, 931.768 562.118 C 934.052 560.953, 937.477 560, 939.379 560 C 941.281 560, 944.247 559.212, 945.969 558.250 C 948.950 556.583, 949.162 556.583, 950.410 558.250 C 952.100 560.506, 953.116 560.454, 957.463 557.889 C 961.530 555.490, 962.789 555.626, 979.167 560.233 C 981.183 560.801, 984.108 560.932, 985.667 560.524 C 989.500 559.523, 993.297 559.622, 1000.929 560.924 C 1011.294 562.693, 1013.593 560.874, 1005.932 556.965 C 1002.008 554.963, 1002 554.948, 1002 548.884 C 1002 541.812, 1003.686 538.199, 1009.399 533.029 C 1011.544 531.088, 1013.794 528.906, 1014.399 528.181 C 1015.005 527.455, 1016.537 525.890, 1017.804 524.703 C 1019.071 523.516, 1021.428 520.510, 1023.041 518.023 C 1024.653 515.535, 1027.078 511.925, 1028.429 510 C 1029.780 508.075, 1030.911 505.219, 1030.942 503.653 C 1030.974 502.087, 1032.726 497.362, 1034.836 493.153 C 1036.946 488.944, 1039.364 483.925, 1040.210 482 C 1041.056 480.075, 1044.842 474.898, 1048.624 470.495 C 1052.406 466.093, 1056.745 460.825, 1058.267 458.790 C 1060.942 455.212, 1060.969 455.054, 1059.083 454.044 C 1058.010 453.470, 1056.239 453, 1055.148 453 C 1054.057 453, 1050.990 451.918, 1048.332 450.595 C 1045.674 449.273, 1041.596 447.629, 1039.269 446.943 C 1033.378 445.205, 1032.967 442.983, 1037.467 437.207 C 1039.468 434.638, 1040.745 432.463, 1040.303 432.374 C 1039.861 432.285, 1036.278 431.681, 1032.340 431.031 C 1026.169 430.014, 1025.099 429.531, 1024.598 427.536 C 1024.247 426.135, 1022.995 424.964, 1021.427 424.571 C 1020.002 424.213, 1017.796 422.712, 1016.525 421.234 C 1014.404 418.768, 1014.007 418.659, 1011.691 419.898 C 1010.304 420.640, 1008.948 422.092, 1008.678 423.124 C 1008.267 424.696, 1007.214 425, 1002.177 425 C 998.288 425, 996.021 424.563, 995.754 423.762 C 995.426 422.777, 994.784 422.777, 992.624 423.762 C 991.129 424.443, 988.950 425, 987.782 425 C 986.613 425, 984.788 425.788, 983.724 426.750 C 982.399 427.950, 979.991 428.536, 976.064 428.614 C 972.914 428.677, 967.559 429.689, 964.164 430.864 C 960.770 432.039, 957.334 433, 956.530 433 C 953.468 433, 948.126 436.362, 947.551 438.652 C 947.054 440.632, 946.328 441, 942.915 441 C 940.690 441, 937.956 441.489, 936.840 442.086 C 935.204 442.961, 934.382 442.768, 932.591 441.086 C 931.370 439.939, 929.838 439, 929.186 439 C 928.533 439, 928 438.558, 928 438.017 C 928 436.235, 918.194 432, 914.067 432 C 910.829 432, 909.400 431.333, 906.567 428.500 C 904.212 426.145, 902.139 425, 900.230 425 C 896.765 425, 877.914 418.754, 874.804 416.575 C 873.567 415.709, 870.892 415, 868.860 415 C 865.372 415, 865.065 415.265, 863.365 419.750" stroke="#b09658" fill="#b09658" fill-opacity="0.2" fill-rule="evenodd"/><path class="svg-region-LPVl" d="M 800.625 441.798 C 800.316 442.297, 800.710 443.559, 801.500 444.603 C 802.290 445.646, 802.951 447.443, 802.968 448.595 C 803.001 450.784, 800.166 454, 798.203 454 C 797.576 454, 797.309 454.640, 797.609 455.423 C 798.231 457.044, 795.189 459, 792.047 459 C 790.273 459, 790.064 459.411, 790.645 461.750 C 791.020 463.262, 792.989 466.756, 795.020 469.513 C 797.051 472.271, 801.034 479.246, 803.871 485.013 C 809.032 495.509, 812.826 502.559, 815.549 506.716 C 816.348 507.934, 820.114 510.963, 823.918 513.446 C 827.722 515.930, 832.428 519.906, 834.375 522.283 C 836.323 524.659, 840.072 527.663, 842.708 528.958 C 845.344 530.253, 848.820 532.232, 850.433 533.355 C 853.280 535.337, 853.344 535.339, 852.612 533.449 C 852.197 532.377, 851.265 529.237, 850.541 526.472 C 849.817 523.707, 847.511 518.082, 845.417 513.972 C 842.302 507.861, 841.504 505.079, 841.035 498.702 C 840.720 494.413, 840.011 490.588, 839.460 490.202 C 838.910 489.816, 837.898 488.375, 837.212 487 C 836.527 485.625, 834.608 482.700, 832.949 480.500 C 824.560 469.379, 823.704 467.021, 822.505 451.734 L 821.818 442.968 814.072 443.614 C 807.732 444.143, 805.861 443.955, 803.756 442.576 C 802.342 441.649, 800.933 441.299, 800.625 441.798" stroke="#494949" fill="#494949" fill-opacity="0.2" fill-rule="evenodd"/><path class="svg-region-Fl" d="M 774.200 422.200 C 772.816 423.584, 772.636 427.878, 773.881 429.841 C 775.287 432.060, 771.531 438.297, 767.002 441.263 C 764.702 442.768, 762.481 444, 762.065 444 C 761.650 444, 760.495 444.900, 759.500 446 C 758.505 447.100, 756.886 448, 755.904 448 C 753.401 448, 752.496 449.901, 754.687 450.556 C 755.684 450.854, 758.750 452.211, 761.500 453.573 C 765.229 455.419, 769.296 456.307, 777.500 457.069 C 796.167 458.801, 796.372 458.792, 797.491 456.241 C 798.036 454.998, 799.273 453.731, 800.239 453.424 C 802.916 452.574, 803.459 448.490, 801.459 444.242 C 798.532 438.027, 791.071 429.057, 787.633 427.620 C 785.860 426.879, 783.631 425.086, 782.681 423.636 C 780.810 420.780, 776.371 420.029, 774.200 422.200" stroke="#5ca7a9" fill="#5ca7a9" fill-opacity="0.2" fill-rule="evenodd"/><path class="svg-region-Fr" d="M 1097.473 421.326 C 1093.339 424.105, 1083.317 427.504, 1079 427.591 C 1076.525 427.642, 1072.475 428.465, 1070.001 429.422 C 1066.972 430.593, 1064.113 430.972, 1061.251 430.581 C 1058.913 430.261, 1055.036 429.735, 1052.636 429.410 C 1047.934 428.775, 1041.932 431.090, 1039 434.669 C 1033.375 441.538, 1032.988 445.294, 1037.786 446.461 C 1039.279 446.824, 1043.425 448.370, 1047 449.896 C 1055.934 453.710, 1069.101 458, 1071.872 458 C 1073.133 458, 1077.241 456.650, 1081 455 C 1088.407 451.749, 1094.981 451.141, 1100.630 453.183 C 1103.122 454.084, 1104.508 454.089, 1106.451 453.204 C 1108.647 452.204, 1109 451.404, 1109 447.426 C 1109 440.289, 1111.133 437.605, 1118.019 436.077 C 1122.290 435.130, 1123.956 434.275, 1124.332 432.840 C 1124.694 431.453, 1124.171 430.635, 1122.518 430.007 C 1121.240 429.521, 1119.899 428.646, 1119.538 428.062 C 1119.177 427.478, 1117.260 427, 1115.277 427 C 1110.671 427, 1104.184 424.156, 1103.440 421.811 C 1102.762 419.675, 1100.234 419.470, 1097.473 421.326" stroke="#5ca7a9" fill="#5ca7a9" fill-opacity="0.2" fill-rule="evenodd"/><path class="svg-region-PCr" d="M 1118.776 435.845 C 1109.951 438.043, 1108.773 439.316, 1108.860 446.555 C 1108.897 449.730, 1109.373 452.773, 1109.916 453.316 C 1110.567 453.967, 1112.787 453.712, 1116.415 452.570 C 1119.447 451.617, 1122.362 451.106, 1122.894 451.435 C 1123.426 451.764, 1124.144 451.575, 1124.490 451.016 C 1124.835 450.457, 1124.218 450, 1123.118 450 C 1119.837 450, 1119.726 448.193, 1122.907 446.548 C 1124.541 445.703, 1126.468 444.180, 1127.189 443.164 C 1129.088 440.487, 1131.115 440.080, 1134.365 441.722 C 1136.525 442.814, 1137.509 442.887, 1138.365 442.018 C 1139.215 441.155, 1138.754 440.318, 1136.526 438.683 C 1133.899 436.754, 1127.364 433.909, 1126 434.100 C 1125.725 434.139, 1122.474 434.924, 1118.776 435.845 M 1146.792 444.961 C 1145.776 446.588, 1144.469 447, 1140.318 447 C 1132.146 447, 1133.208 448.654, 1142.228 449.973 C 1146.741 450.633, 1151.664 451.809, 1153.167 452.586 C 1154.671 453.364, 1156.796 454, 1157.891 454 C 1160.162 454, 1161.958 451.819, 1160.177 451.226 C 1159.530 451.010, 1158.990 450.308, 1158.978 449.667 C 1158.931 447.232, 1155.358 444.208, 1151.783 443.577 C 1148.704 443.034, 1147.847 443.272, 1146.792 444.961" stroke="#465ee0" fill="#465ee0" fill-opacity="0.2" fill-rule="evenodd"/><path class="svg-region-Ol" d="M 437.065 391.944 C 436.276 392.441, 432.901 393.148, 429.565 393.517 C 426.229 393.885, 422.193 394.820, 420.596 395.593 C 418.999 396.367, 417.184 397, 416.563 397 C 414.989 397, 406.232 402.799, 401.468 406.996 C 393.416 414.089, 364 443.896, 364 444.961 C 364 445.567, 363.325 446.322, 362.499 446.639 C 358.833 448.045, 347 473.315, 347 479.737 C 347 481.494, 346.358 484.410, 345.572 486.216 C 337.632 504.481, 335.809 510.897, 334.334 525.787 C 334.030 528.864, 332.583 533.374, 330.873 536.579 C 329.257 539.607, 328.185 542.490, 328.491 542.985 C 329.553 544.704, 329.722 551.926, 328.707 552.264 C 327.135 552.788, 327.604 572.643, 329.338 579 C 333.441 594.038, 334.230 596.571, 335.080 597.450 C 335.586 597.972, 336 599.734, 336 601.364 C 336 602.994, 337.979 608.192, 340.398 612.914 C 342.816 617.636, 345.309 623.413, 345.936 625.750 C 346.564 628.087, 347.498 630, 348.013 630 C 348.528 630, 349.690 631.433, 350.596 633.185 C 352.479 636.827, 360.780 647.875, 365.389 652.874 C 372.191 660.251, 385.598 671.187, 392.360 674.875 C 407.579 683.176, 422.674 690.753, 426.500 692.013 C 430.296 693.262, 439.973 695.492, 446.500 696.621 C 448.150 696.907, 451.300 697.998, 453.500 699.047 C 456.950 700.691, 462.399 702.995, 464 703.486 C 473.183 706.302, 473.955 706.404, 505.344 708.954 C 512.408 709.528, 518.708 710.336, 519.344 710.749 C 519.980 711.162, 528.150 711.566, 537.500 711.647 C 546.850 711.728, 559 712.211, 564.500 712.719 C 572.147 713.425, 575.599 713.328, 579.172 712.306 C 581.742 711.570, 585.792 710.555, 588.172 710.049 C 600.448 707.439, 606.167 704.957, 613.633 699 C 615.356 697.625, 618.154 695.449, 619.849 694.165 C 626.740 688.944, 645.324 654.998, 646.555 645.382 C 646.824 643.277, 647.485 641.115, 648.022 640.578 C 648.560 640.040, 649 637.397, 649 634.704 C 649 629.993, 651.173 620.185, 652.937 616.935 C 653.419 616.047, 653.376 614.637, 652.839 613.677 C 652.318 612.746, 652.247 611.425, 652.682 610.742 C 653.389 609.631, 654.721 599.469, 655.401 590 C 655.717 585.607, 657.700 576.042, 659.652 569.500 C 661.392 563.669, 663.194 532.642, 661.971 529.579 C 661.515 528.435, 659.713 522.775, 657.968 517 C 656.223 511.225, 653.716 504.326, 652.397 501.668 C 651.079 499.010, 650 495.763, 650 494.453 C 650 493.143, 649.212 491.643, 648.250 491.121 C 645.988 489.894, 643.556 485.015, 641.476 477.530 C 639.215 469.397, 637.005 465.352, 631.731 459.691 C 629.267 457.046, 626.426 453.053, 625.418 450.818 C 622.655 444.690, 613.276 435.753, 605.688 432.018 C 602.071 430.237, 598.341 427.930, 597.400 426.890 C 596.460 425.851, 594.886 425, 593.904 425 C 592.922 425, 591.824 424.525, 591.465 423.943 C 590.105 421.744, 560.597 410, 556.429 410 C 555.313 410, 553.973 409.601, 553.450 409.114 C 552.928 408.626, 550.250 407.549, 547.500 406.719 C 544.750 405.889, 538.217 403.643, 532.981 401.728 C 518.734 396.515, 508.031 394.199, 492.500 392.965 C 473.633 391.467, 438.844 390.826, 437.065 391.944" stroke="#aa444d" fill="#aa444d" fill-opacity="0.2" fill-rule="evenodd"/><path class="svg-region-LBPCl" d="M 732.346 385.765 C 731.712 386.169, 729.734 390.550, 727.951 395.500 C 724.749 404.390, 724.698 404.811, 723.809 430 C 722.902 455.716, 723.444 474.462, 725.067 473.459 C 725.551 473.160, 726.714 471.297, 727.653 469.318 C 728.592 467.340, 731.079 463.434, 733.180 460.638 C 735.281 457.842, 737 455.259, 737 454.898 C 737 454.037, 740.816 452.586, 750 449.956 C 754.125 448.774, 758.400 447.008, 759.500 446.031 C 760.600 445.054, 761.950 444.078, 762.500 443.861 C 770.074 440.884, 775.449 433.619, 773.651 428.790 C 772.216 424.937, 774.151 421, 777.479 421 C 783.193 421, 780.303 416.862, 760.293 396.395 C 754.603 390.575, 751.365 388, 749.734 388 C 748.441 388, 746.509 387.339, 745.441 386.532 C 743.417 385.001, 734.378 384.472, 732.346 385.765" stroke="#daffff" fill="#daffff" fill-opacity="0.2" fill-rule="evenodd"/><path class="svg-region-LBPCr" d="M 1140.939 376.573 C 1140.221 377.438, 1137.804 379.066, 1135.567 380.190 C 1130.423 382.774, 1128 384.897, 1128 386.818 C 1128 387.647, 1125.386 391.515, 1122.192 395.413 C 1118.997 399.311, 1115.424 404.075, 1114.251 406 C 1113.077 407.925, 1109.895 411.681, 1107.177 414.346 C 1103.554 417.900, 1102.378 419.729, 1102.765 421.210 C 1103.401 423.641, 1110.245 426.947, 1114.706 426.978 C 1118.787 427.006, 1124.651 430.880, 1124.193 433.246 C 1123.978 434.357, 1124.336 434.816, 1125.177 434.507 C 1126.979 433.845, 1132.908 436.027, 1136.526 438.683 C 1138.766 440.327, 1139.218 441.152, 1138.357 442.026 C 1137.491 442.905, 1136.638 442.809, 1134.834 441.627 C 1132.476 440.082, 1128 440.394, 1128 442.104 C 1128 442.583, 1126.200 444.111, 1124 445.500 C 1121.800 446.889, 1120 448.411, 1120 448.882 C 1120 450.827, 1127.148 450.865, 1131.629 448.945 C 1134.124 447.875, 1138.379 447, 1141.083 447 C 1143.787 447, 1146 446.566, 1146 446.035 C 1146 444.049, 1149.649 443.064, 1153.285 444.068 C 1155.787 444.759, 1157.251 445.945, 1158.172 448.027 C 1158.896 449.662, 1159.794 451, 1160.167 451 C 1160.541 451, 1162.250 452.181, 1163.966 453.624 C 1165.681 455.068, 1167.235 456.080, 1167.419 455.874 C 1168.846 454.279, 1171.998 446.634, 1171.989 444.790 C 1171.983 443.530, 1171.228 440.250, 1170.310 437.500 C 1169.393 434.750, 1168.336 427.775, 1167.962 422 C 1166.971 406.725, 1165.391 398.008, 1161.765 387.813 C 1161.240 386.336, 1159.053 383.223, 1156.905 380.897 C 1154.757 378.571, 1153 376.292, 1153 375.834 C 1153 374.245, 1142.328 374.899, 1140.939 376.573" stroke="#daffff" fill="#daffff" fill-opacity="0.2" fill-rule="evenodd"/>
    </svg>