<svg xmlns="http://www.w3.org/2000/svg" width="1921" height="1027" viewBox="0 0 1921 1027" version="1.1">
    <path class="svg-region-PMl" d="M 746.128 453.150 C 744.274 453.684, 741.493 455.054, 739.949 456.195 C 738.269 457.438, 736.312 458.053, 735.071 457.729 C 733.864 457.413, 732.989 457.670, 732.973 458.344 C 732.959 458.980, 730.243 462.859, 726.938 466.965 C 723.634 471.071, 720.676 475.441, 720.366 476.677 C 719.454 480.310, 721.638 501.067, 723.503 506.500 C 725.818 513.240, 731.200 525.729, 733.571 529.860 C 738.976 539.276, 750.954 553.773, 754 554.585 C 755.375 554.951, 758.152 556.826, 760.172 558.752 L 763.844 562.253 770.671 561.377 C 777.489 560.501, 777.500 560.495, 778.890 556.500 C 779.656 554.300, 780.587 548.675, 780.958 544 C 781.380 538.693, 783.769 527.519, 787.317 514.257 C 792.501 494.880, 793 492.102, 793 482.618 C 793 472.261, 792.987 472.207, 789.750 468.775 C 785.497 464.267, 779.549 460, 777.517 460 C 776.628 460, 774.686 459.378, 773.200 458.618 C 771.715 457.858, 768.614 456.923, 766.308 456.540 C 764.003 456.157, 760.420 454.979, 758.347 453.922 C 754.251 451.834, 751.343 451.650, 746.128 453.150" stroke="#90cf92" fill="#90cf92" fill-opacity="0.2" fill-rule="evenodd"/><path class="svg-region-PMr" d="M 1123.500 455.569 C 1120.750 456.334, 1117.089 456.703, 1115.364 456.390 C 1112.754 455.916, 1111.917 456.269, 1110.364 458.501 C 1109.339 459.975, 1107.445 462.153, 1106.155 463.341 C 1104.865 464.528, 1103.180 466.709, 1102.412 468.187 C 1101.643 469.664, 1099.438 472.589, 1097.512 474.687 C 1093.567 478.982, 1093.122 482.022, 1095.597 487.782 C 1097.516 492.247, 1099.079 505.870, 1099.675 523.319 C 1100.030 533.693, 1099.792 536.977, 1098.431 540.543 C 1096.807 544.795, 1096.830 545.261, 1099.095 553.943 C 1100.641 559.868, 1101.964 563.044, 1102.971 563.249 C 1105.099 563.682, 1115.542 561.540, 1121.285 559.494 C 1125.182 558.105, 1125.855 557.530, 1124.912 556.394 C 1124.173 555.503, 1124.131 555, 1124.796 555 C 1126.290 555, 1135.080 545.950, 1138.547 540.842 C 1140.168 538.454, 1141.721 536.275, 1141.997 536 C 1142.274 535.725, 1143.368 533.925, 1144.429 532 C 1145.964 529.213, 1158.326 511.006, 1161.742 506.500 C 1162.952 504.904, 1165 498.541, 1165 496.379 C 1165 495.291, 1165.484 493.916, 1166.076 493.324 C 1166.668 492.732, 1167.410 487.014, 1167.725 480.617 C 1168.232 470.323, 1168.091 468.758, 1166.497 466.997 C 1165.215 465.580, 1164.342 465.302, 1163.465 466.029 C 1162.595 466.751, 1162.068 466.619, 1161.668 465.578 C 1161.357 464.768, 1159.321 463.625, 1157.143 463.039 C 1154.965 462.452, 1152.129 460.834, 1150.842 459.442 C 1149.554 458.050, 1147.285 456.256, 1145.800 455.456 C 1142.378 453.611, 1130.321 453.673, 1123.500 455.569" stroke="#90cf92" fill="#90cf92" fill-opacity="0.2" fill-rule="evenodd"/><path class="svg-region-PV" d="M 1006.500 413.558 C 995.317 416.149, 991.532 416.389, 989.760 414.617 C 987.444 412.301, 981.888 412.621, 975.762 415.423 C 972.849 416.755, 967.998 418.816, 964.983 420.001 C 958.693 422.473, 956.321 423.480, 946.123 428.003 C 942.065 429.802, 936.830 431.490, 934.489 431.754 C 930.391 432.216, 930.250 432.141, 930.712 429.726 C 931.172 427.318, 930.939 427.190, 924.846 426.493 C 918.734 425.793, 913.007 423.731, 912.993 422.224 C 912.976 420.455, 906.118 417, 902.622 417 C 896.842 417, 895 418.429, 895 422.916 C 895 426.081, 894.424 427.201, 891.750 429.237 C 889.962 430.599, 887.375 432.057, 886 432.479 C 884.625 432.900, 883.050 433.561, 882.500 433.947 C 881.950 434.333, 878.575 435.495, 875 436.530 C 868.089 438.530, 859.659 442.668, 854.145 446.767 C 851.681 448.599, 827.527 458, 825.283 458 C 824.238 458, 825.353 460.313, 827.096 461.760 C 828.248 462.717, 830.244 465.750, 831.531 468.500 C 832.892 471.408, 837.282 477.004, 842.025 481.875 C 850.065 490.134, 853.218 495.314, 854.560 502.470 C 854.927 504.424, 855.626 506.269, 856.113 506.570 C 856.601 506.871, 857 508.604, 857 510.419 C 857 512.328, 858.100 515.341, 859.605 517.560 C 861.844 520.859, 862.288 522.801, 862.759 531.354 C 863.196 539.286, 863.691 541.691, 865.194 543.194 C 867.676 545.676, 869.096 549.549, 868.327 551.741 C 867.988 552.709, 866.475 554.850, 864.966 556.500 C 859.721 562.232, 860.107 563.215, 868.620 565.805 C 872.788 567.073, 879.803 568.521, 884.208 569.024 C 889.729 569.653, 893.559 570.724, 896.537 572.469 C 899.765 574.361, 902.269 575, 906.449 575 C 911.596 575, 925.150 578.040, 929.222 580.108 C 930.286 580.648, 931.939 580.529, 933.544 579.798 C 935.628 578.848, 936.310 578.884, 936.986 579.978 C 937.686 581.110, 938.257 581.062, 940.340 579.697 C 942.371 578.366, 943.447 578.260, 945.975 579.141 C 949.955 580.529, 954.462 579.622, 959.212 576.478 C 961.272 575.115, 964.092 574, 965.479 574 C 966.865 574, 968.830 573.170, 969.844 572.156 C 971.158 570.842, 973.816 570.141, 979.094 569.716 C 983.167 569.388, 989.425 568.456, 993 567.645 C 996.575 566.834, 1001.750 565.732, 1004.500 565.196 C 1016.211 562.916, 1024.643 560.886, 1026.653 559.863 C 1028.601 558.870, 1028.687 558.486, 1027.562 555.810 C 1026.878 554.184, 1025.675 552.099, 1024.888 551.177 C 1020.839 546.434, 1020 544.349, 1020.001 539.027 C 1020.002 535.987, 1019.478 529.745, 1018.837 525.156 C 1017.547 515.930, 1018.565 507.901, 1022.215 498.500 C 1025.964 488.843, 1027.166 487.102, 1032.343 483.828 C 1041.112 478.283, 1061.317 460.322, 1060.419 458.869 C 1060.124 458.391, 1059.121 457.984, 1058.191 457.964 C 1057.261 457.944, 1052.913 455.795, 1048.529 453.187 C 1041.326 448.904, 1040.169 447.770, 1036.529 441.426 C 1031.921 433.398, 1015.133 411.958, 1013.552 412.084 C 1012.974 412.130, 1009.800 412.793, 1006.500 413.558" stroke="#b09658" fill="#b09658" fill-opacity="0.2" fill-rule="evenodd"/><path class="svg-region-LPVl" d="M 819.141 461.022 C 816.743 462.110, 814.304 463, 813.719 463 C 812.170 463, 799.730 468.039, 798.177 469.296 C 794.893 471.952, 793 477.916, 793 485.604 C 793 493.244, 792.771 494.293, 783.893 527.234 C 782.302 533.137, 781 540.203, 781 542.935 C 781 547.534, 778.907 557.723, 777.493 560.012 C 777.157 560.555, 775.671 561.014, 774.191 561.030 C 771.880 561.057, 771.747 561.205, 773.250 562.080 C 774.212 562.641, 775 563.752, 775 564.550 C 775 565.464, 776.017 566.002, 777.750 566.006 C 779.263 566.010, 781.850 566.717, 783.500 567.579 C 785.857 568.810, 788.428 569.023, 795.500 568.572 C 800.450 568.256, 809.450 567.765, 815.500 567.481 C 822.037 567.173, 829.484 566.126, 833.853 564.900 C 839.889 563.207, 842.686 562.961, 849.469 563.526 C 857.728 564.214, 862 563.297, 862 560.836 C 862 560.235, 863.575 557.999, 865.500 555.868 C 867.425 553.738, 869 551.291, 869 550.431 C 869 548.494, 867.308 545.139, 865.002 542.500 C 863.698 541.008, 863.115 538.032, 862.709 530.792 C 862.252 522.628, 861.782 520.559, 859.757 517.792 C 858.432 515.981, 857.272 513.233, 857.180 511.685 C 856.970 508.168, 852.320 494.334, 850.247 491.058 C 849.397 489.714, 845.366 485.214, 841.288 481.058 C 837.195 476.885, 832.983 471.485, 831.884 469 C 830.064 464.887, 825.425 458.969, 824.063 459.022 C 823.753 459.034, 821.538 459.934, 819.141 461.022" stroke="#494949" fill="#494949" fill-opacity="0.2" fill-rule="evenodd"/><path class="svg-region-LPVr" d="M 1104.829 451.504 C 1104.552 451.781, 1101.665 452.490, 1098.413 453.080 C 1095.161 453.670, 1091.150 454.923, 1089.500 455.866 C 1087.850 456.808, 1083.649 458.432, 1080.164 459.474 C 1074.765 461.088, 1073.173 461.194, 1069.400 460.184 C 1066.964 459.533, 1064.291 459, 1063.460 459 C 1062.629 459, 1059.095 461.587, 1055.606 464.750 C 1046.470 473.031, 1037.814 480.421, 1036.573 481 C 1031.730 483.258, 1026.977 487.700, 1025.025 491.794 C 1023.791 494.382, 1022.440 497.186, 1022.023 498.024 C 1021.606 498.862, 1020.456 503.295, 1019.466 507.875 C 1017.901 515.117, 1017.819 517.345, 1018.833 524.965 C 1019.475 529.784, 1020 536.197, 1020 539.215 C 1020 543.459, 1020.558 545.475, 1022.460 548.102 C 1023.813 549.971, 1025.814 553.124, 1026.908 555.108 L 1028.896 558.717 1037.698 559.332 C 1042.539 559.670, 1051.450 560.619, 1057.500 561.441 C 1063.550 562.263, 1075.539 562.950, 1084.143 562.967 C 1097.528 562.995, 1099.874 562.771, 1100.395 561.412 C 1100.730 560.539, 1100.061 556.717, 1098.907 552.919 C 1096.895 546.295, 1096.877 545.800, 1098.465 540.749 C 1099.764 536.621, 1100.026 532.787, 1099.678 522.992 C 1099.065 505.748, 1097.495 492.198, 1095.597 487.782 C 1093.771 483.531, 1093.536 479.467, 1095.016 477.708 C 1095.574 477.044, 1097.082 475.312, 1098.366 473.860 C 1099.651 472.407, 1101.705 469.595, 1102.932 467.610 C 1104.159 465.624, 1105.517 464, 1105.949 464 C 1106.381 464, 1107.965 462.141, 1109.468 459.868 L 1112.203 455.737 1109.351 453.404 C 1106.371 450.966, 1105.664 450.669, 1104.829 451.504" stroke="#494949" fill="#494949" fill-opacity="0.2" fill-rule="evenodd"/><path class="svg-region-Fl" d="M 809 379.041 C 795.758 383.544, 785.774 385.651, 766.500 388.007 C 752.893 389.671, 749.194 390.491, 751.589 391.314 C 753.425 391.946, 753.818 393.329, 754.840 402.766 C 756.601 419.026, 756.407 421.720, 753.007 428.170 C 749.413 434.988, 749.745 439.068, 754.239 443.289 C 756.728 445.626, 757.110 446.600, 756.602 449.310 C 756.058 452.209, 756.330 452.714, 759.248 454.207 C 761.036 455.123, 764.075 456.180, 766 456.557 C 767.925 456.933, 770.715 457.862, 772.200 458.620 C 773.686 459.379, 775.871 460, 777.057 460 C 779.326 460, 788.376 466.664, 790.793 470.114 C 791.572 471.227, 792.545 473.344, 792.956 474.819 L 793.701 477.500 795.267 473.828 C 797.168 469.370, 799.285 467.959, 809.048 464.645 C 813.199 463.236, 819.799 460.720, 823.715 459.053 C 827.631 457.387, 834.961 454.686, 840.004 453.052 C 845.047 451.417, 851.573 448.487, 854.506 446.540 C 857.439 444.593, 860.293 443, 860.848 443 C 861.403 443, 862.516 442.341, 863.322 441.536 C 864.127 440.730, 869.973 438.305, 876.313 436.147 C 890.227 431.411, 895 428.184, 895 423.514 C 895 419.854, 891.979 417.379, 881.930 412.809 C 878.128 411.080, 875.117 408.723, 872.447 405.388 C 867.879 399.681, 854.149 386, 852.991 386 C 852.553 386, 851.705 384.591, 851.104 382.869 C 850.030 379.788, 849.938 379.750, 845.256 380.491 C 838.225 381.603, 832.313 381.280, 829.231 379.615 C 826.094 377.921, 820.220 375.965, 818.601 376.075 C 817.995 376.116, 813.675 377.451, 809 379.041" stroke="#5ca7a9" fill="#5ca7a9" fill-opacity="0.2" fill-rule="evenodd"/><path class="svg-region-Fr" d="M 1054.601 370.113 C 1053.387 370.850, 1050.114 371.070, 1045.530 370.724 C 1038.592 370.199, 1038.233 370.285, 1034.576 373.341 C 1032.497 375.078, 1029.604 377.818, 1028.148 379.429 C 1026.692 381.040, 1022.991 384.865, 1019.924 387.929 C 1016.858 390.993, 1013.092 395.402, 1011.557 397.726 C 1008.857 401.814, 1008.810 402.106, 1010.133 406.595 C 1010.983 409.482, 1012.256 411.529, 1013.500 412.009 C 1015.546 412.799, 1020 418.173, 1020 419.853 C 1020 420.366, 1020.571 421.005, 1021.270 421.273 C 1023.109 421.979, 1033.305 435.550, 1037.199 442.476 C 1040.073 447.589, 1041.615 449.053, 1048.427 453.141 C 1052.770 455.747, 1058.163 458.155, 1060.411 458.492 C 1062.660 458.829, 1066.613 459.610, 1069.195 460.227 C 1073.144 461.172, 1074.892 461.050, 1080.195 459.465 C 1083.663 458.428, 1087.850 456.808, 1089.500 455.866 C 1091.150 454.923, 1095.179 453.666, 1098.454 453.072 C 1101.728 452.478, 1104.828 451.572, 1105.342 451.058 C 1106.328 450.072, 1102.461 445.743, 1098.059 442.907 C 1095.748 441.418, 1095.691 441.153, 1096.977 437.917 C 1098.783 433.373, 1099.918 432.001, 1101.872 431.996 C 1102.768 431.993, 1105.872 430.193, 1108.770 427.996 C 1111.669 425.798, 1114.494 424, 1115.049 424 C 1115.603 424, 1118.685 422.674, 1121.896 421.052 C 1127.628 418.159, 1127.744 418.016, 1128.208 413.302 C 1128.504 410.298, 1129.864 406.587, 1131.840 403.389 C 1133.578 400.579, 1135 397.562, 1135 396.686 C 1135 391.647, 1130.476 388.032, 1124.101 387.978 C 1120.745 387.949, 1117.658 385.358, 1116.015 381.194 C 1114.217 376.635, 1107.632 373.474, 1098.173 372.627 C 1094.143 372.267, 1089.553 371.303, 1087.973 370.486 C 1084.207 368.538, 1072.990 368.560, 1068.291 370.523 C 1065.816 371.557, 1064.436 371.706, 1063.992 370.987 C 1063.003 369.387, 1056.755 368.806, 1054.601 370.113" stroke="#5ca7a9" fill="#5ca7a9" fill-opacity="0.2" fill-rule="evenodd"/><path class="svg-region-PCl" d="M 742.510 442.750 C 739.745 445.707, 734 455.317, 734 456.985 C 734 458.706, 736.945 458.116, 741.403 455.504 C 743.745 454.131, 747.875 452.712, 750.581 452.350 C 757.998 451.358, 759.180 447.879, 753.777 442.944 C 749.651 439.175, 745.913 439.110, 742.510 442.750" stroke="#465ee0" fill="#465ee0" fill-opacity="0.2" fill-rule="evenodd"/><path class="svg-region-PCr" d="M 1122 421 C 1118.975 422.598, 1115.854 423.927, 1115.064 423.953 C 1114.275 423.979, 1112.646 424.923, 1111.445 426.051 C 1110.244 427.179, 1106.846 429.351, 1103.894 430.876 C 1099.645 433.072, 1098.222 434.449, 1097.067 437.483 C 1095.669 441.156, 1095.704 441.382, 1097.909 442.908 C 1099.175 443.783, 1102.782 447.022, 1105.925 450.105 C 1112.682 456.732, 1115.939 457.688, 1124.326 455.503 C 1131.713 453.579, 1142.275 453.556, 1145.800 455.456 C 1147.285 456.256, 1149.554 458.050, 1150.842 459.442 C 1152.129 460.834, 1154.927 462.442, 1157.058 463.016 C 1159.190 463.590, 1161.368 464.833, 1161.900 465.780 C 1162.804 467.390, 1162.910 467.384, 1163.566 465.683 C 1163.951 464.683, 1163.643 462.702, 1162.883 461.281 C 1162.122 459.859, 1161.593 456.559, 1161.707 453.947 C 1161.898 449.553, 1161.655 449.023, 1158.455 446.849 C 1156.553 445.557, 1154.770 443.798, 1154.492 442.940 C 1154.214 442.083, 1151.402 439.158, 1148.243 436.440 C 1145.084 433.723, 1139.397 428.462, 1135.605 424.750 C 1131.813 421.038, 1128.438 418.021, 1128.105 418.047 C 1127.772 418.073, 1125.025 419.402, 1122 421" stroke="#465ee0" fill="#465ee0" fill-opacity="0.2" fill-rule="evenodd"/><path class="svg-region-Ol" d="M 460 410.662 C 452.763 411.607, 443.332 414.169, 438.009 416.636 C 427.209 421.640, 415.879 427.524, 414.199 429 C 413.260 429.825, 409.998 432.397, 406.949 434.715 C 401.954 438.513, 398.199 442.263, 381.889 459.739 C 379.200 462.620, 377 465.412, 377 465.944 C 377 467.056, 372.875 473.659, 370.562 476.250 C 369.703 477.212, 369 478.605, 369 479.345 C 369 480.085, 368.086 481.517, 366.968 482.529 C 365.851 483.540, 365.040 485.072, 365.166 485.934 C 365.581 488.759, 362.556 496.697, 355.417 511.516 C 354.087 514.275, 353 517.089, 353 517.771 C 353 518.452, 351.886 521.319, 350.525 524.141 C 349.163 526.963, 348.281 529.645, 348.563 530.101 C 348.845 530.558, 348.367 533.370, 347.500 536.351 C 345.244 544.112, 346.159 557.584, 350.056 574 C 350.644 576.475, 351.584 581.425, 352.144 585 C 352.705 588.575, 353.778 592.868, 354.529 594.540 C 355.280 596.211, 355.992 599.586, 356.111 602.040 C 356.230 604.493, 356.626 606.950, 356.991 607.500 C 357.356 608.050, 359.166 613.164, 361.013 618.865 C 362.860 624.565, 364.893 629.750, 365.530 630.387 C 366.537 631.394, 370.375 636.931, 373.500 641.884 C 374.050 642.756, 375.288 644.064, 376.250 644.791 C 377.212 645.519, 378 646.691, 378 647.396 C 378 648.102, 379.228 649.238, 380.729 649.922 C 383.170 651.035, 389.842 657.147, 403.865 671.118 C 406.414 673.658, 410.750 676.964, 413.500 678.464 C 416.250 679.964, 419.400 682.020, 420.500 683.034 C 421.600 684.048, 427.666 687.179, 433.980 689.992 C 440.294 692.805, 446.179 695.757, 447.059 696.553 C 447.938 697.349, 449.072 697.999, 449.579 697.997 C 450.085 697.995, 456.575 700.912, 464 704.479 C 483.129 713.669, 485.372 714.020, 524.865 714.023 C 542.814 714.024, 560.650 714.364, 564.500 714.778 C 568.350 715.193, 573.750 715.189, 576.500 714.769 C 584.668 713.524, 592.058 711.716, 592.606 710.829 C 592.887 710.373, 593.879 709.997, 594.809 709.994 C 595.739 709.990, 597.775 709.323, 599.333 708.510 C 600.891 707.697, 603.934 706.556, 606.095 705.974 C 608.255 705.393, 611.996 703.585, 614.407 701.958 C 616.818 700.331, 619.277 699, 619.872 699 C 620.467 699, 621.744 697.762, 622.709 696.250 C 623.674 694.737, 625.597 692.350, 626.982 690.945 C 632.228 685.620, 637 678.281, 637 675.536 C 637 674.856, 638.350 672.436, 640 670.159 C 641.650 667.881, 643 665.390, 643 664.623 C 643 663.856, 643.672 661.940, 644.494 660.364 C 645.315 658.789, 645.990 656.487, 645.994 655.250 C 645.997 654.013, 646.378 653, 646.840 653 C 647.588 653, 650.144 641.679, 650.565 636.500 C 650.654 635.400, 651.547 632.700, 652.549 630.500 C 653.552 628.300, 654.259 626.075, 654.121 625.555 C 653.983 625.036, 654.322 623.686, 654.873 622.555 C 655.425 621.425, 657.081 616.900, 658.554 612.500 C 661.224 604.526, 661.231 604.426, 660.688 582 C 660.388 569.625, 659.934 557.700, 659.680 555.500 C 659.426 553.300, 658.911 547.450, 658.535 542.500 C 657.383 527.332, 651.913 513.601, 639.625 495.030 C 635.065 488.138, 629.470 479.350, 627.192 475.500 C 621.915 466.584, 617.674 461.892, 611.939 458.628 C 609.431 457.200, 606.281 454.862, 604.939 453.433 C 600.332 448.525, 581.168 439.341, 567.500 435.491 C 554.013 431.691, 552.214 431.085, 540 426.221 C 535.875 424.578, 530.189 422.747, 527.364 422.152 C 524.540 421.557, 518.690 419.640, 514.364 417.891 C 499.375 411.832, 494.661 410.864, 478.500 410.522 C 470.250 410.348, 461.925 410.411, 460 410.662" stroke="#aa444d" fill="#aa444d" fill-opacity="0.2" fill-rule="evenodd"/><path class="svg-region-LBPCl" d="M 726.656 390.426 C 725.441 391.737, 723.415 395.440, 722.154 398.655 C 720.893 401.870, 719.442 405.281, 718.931 406.236 C 718.419 407.191, 717.997 409.216, 717.994 410.736 C 717.991 412.256, 717.494 415.284, 716.888 417.464 C 715.477 422.549, 717.758 471.554, 719.473 472.977 C 721.626 474.764, 730.252 464.248, 736.025 452.798 C 740.507 443.909, 744.218 440, 748.176 440 C 751.029 440, 751.209 439.793, 750.675 437.123 C 750.269 435.094, 750.960 432.516, 753.018 428.373 C 754.970 424.447, 755.948 420.937, 755.969 417.786 C 756.021 409.942, 753.767 392.549, 752.597 391.765 C 751.993 391.361, 748.294 391.024, 744.376 391.015 C 740.457 391.007, 735.365 390.334, 733.059 389.521 C 729.008 388.092, 728.791 388.122, 726.656 390.426" stroke="#daffff" fill="#daffff" fill-opacity="0.2" fill-rule="evenodd"/><path class="svg-region-LBPCr" d="M 1138.756 367.787 C 1134.232 371.065, 1132.538 376.091, 1133.488 383.422 C 1135.016 395.219, 1134.641 399.230, 1131.563 404 C 1129.832 406.683, 1128.487 410.317, 1128.233 413 C 1127.761 417.984, 1125.882 415.745, 1148.513 437.166 C 1151.806 440.283, 1155.240 443.658, 1156.145 444.666 C 1157.050 445.675, 1158.850 447.474, 1160.145 448.665 C 1161.440 449.856, 1164.300 452.665, 1166.500 454.908 C 1168.700 457.151, 1170.889 458.989, 1171.363 458.993 C 1172.580 459.003, 1171.468 418.248, 1170.135 414 C 1169.531 412.075, 1168.551 407.935, 1167.958 404.801 C 1167.365 401.666, 1165.788 397.493, 1164.454 395.528 C 1162.028 391.952, 1159.282 383.020, 1158.298 375.500 C 1157.645 370.508, 1156.969 369.676, 1151.460 367.086 C 1145.673 364.366, 1143.296 364.497, 1138.756 367.787" stroke="#daffff" fill="#daffff" fill-opacity="0.2" fill-rule="evenodd"/>
    </svg>