<svg xmlns="http://www.w3.org/2000/svg" width="1921" height="1027" viewBox="0 0 1921 1027" version="1.1">
    <path class="svg-region-PMl" d="M 753.965 460.894 C 752.404 461.875, 740.958 463.999, 735.500 464.321 C 732.112 464.520, 731.154 465.114, 726.525 469.883 C 724.708 471.756, 722.740 472.958, 722.120 472.574 C 721.393 472.125, 721 472.885, 721 474.741 C 721 476.313, 720.579 478.028, 720.064 478.550 C 719.489 479.135, 719.482 481.039, 720.046 483.500 C 724.488 502.878, 725.580 506.171, 731.056 516.680 C 738.251 530.486, 739.673 532.627, 748.835 543.433 C 757.746 553.943, 762.391 557.274, 767.688 556.952 C 774.306 556.550, 775.644 556.923, 776.818 559.500 C 778.026 562.151, 780.825 562.775, 782.773 560.827 C 783.670 559.930, 784.551 559.930, 786.520 560.827 C 793.588 564.048, 795.458 560.984, 793.887 548.754 C 792.483 537.822, 792.484 535.913, 793.912 504.744 L 795.138 477.988 791.319 471.917 C 789.218 468.577, 787.081 465.038, 786.568 464.051 C 785.825 462.620, 783.902 462.134, 777.068 461.651 C 772.356 461.318, 765.575 460.794, 762 460.487 C 758.425 460.180, 754.809 460.363, 753.965 460.894" stroke="#90cf92" fill="#90cf92" fill-opacity="0.2" fill-rule="evenodd"/><path class="svg-region-PMr" d="M 1106.642 460.851 C 1104.102 463.503, 1101.059 470.532, 1097.301 482.432 C 1095.917 486.814, 1095.897 488.989, 1097.121 501.932 C 1097.930 510.476, 1098.361 524.179, 1098.163 535.070 L 1097.826 553.640 1101.448 556.820 C 1103.470 558.596, 1106.184 560, 1107.592 560 C 1108.979 560, 1112.188 560.522, 1114.723 561.160 C 1118.864 562.203, 1119.745 562.096, 1123.416 560.105 C 1127.102 558.105, 1132 552.300, 1132 549.931 C 1132 549.419, 1132.436 549, 1132.968 549 C 1134.013 549, 1141.615 539.398, 1143.891 535.203 C 1144.656 533.793, 1147.693 529.278, 1150.641 525.171 C 1153.588 521.063, 1156 517.154, 1156 516.486 C 1156 515.817, 1156.851 514.188, 1157.891 512.866 C 1165.536 503.146, 1172.115 480.676, 1169.393 473.582 C 1169.059 472.712, 1167.916 472, 1166.853 472 C 1165.789 472, 1163.700 471.106, 1162.210 470.014 C 1156.679 465.960, 1145.236 462.915, 1130.546 461.587 C 1122.795 460.886, 1115.481 459.792, 1114.292 459.156 C 1111.038 457.415, 1109.638 457.725, 1106.642 460.851" stroke="#90cf92" fill="#90cf92" fill-opacity="0.2" fill-rule="evenodd"/><path class="svg-region-PV" d="M 992.801 408.927 C 988.846 412.059, 979.446 415.986, 973.086 417.161 C 970.033 417.726, 964.572 419.720, 960.952 421.594 C 954.851 424.751, 953.692 425, 945.089 425 C 936.554 425, 935.215 424.719, 928.432 421.500 C 924.376 419.575, 920.436 418, 919.677 418 C 918.919 418, 916.182 416.875, 913.596 415.500 C 910.618 413.916, 907.269 413, 904.461 413 C 902.023 413, 898.008 412.459, 895.538 411.799 C 889.616 410.215, 886.030 411.472, 884.587 415.638 C 883.989 417.364, 881.988 420.064, 880.140 421.638 C 878.292 423.212, 874.917 426.225, 872.640 428.333 C 870.363 430.442, 865.856 433.514, 862.625 435.161 C 859.394 436.808, 855.794 439.064, 854.625 440.176 C 852.438 442.255, 843.346 448.602, 839.607 450.659 C 833.816 453.846, 826.881 456.173, 817.750 457.995 C 814.587 458.626, 812 459.260, 812 459.405 C 812 460.649, 831.247 472, 833.358 472 C 834.066 472, 838.662 473.979, 843.573 476.397 C 850.039 479.582, 853.086 481.718, 854.627 484.147 C 857.702 488.996, 861.765 501.542, 862.514 508.500 C 862.869 511.800, 864.068 519.225, 865.177 525 C 866.453 531.643, 867.154 539.174, 867.085 545.500 C 866.983 554.828, 866.808 555.648, 864.488 557.702 C 863.119 558.913, 862 560.107, 862 560.354 C 862 561.164, 868.235 563, 870.983 563 C 872.459 563, 873.940 563.273, 874.274 563.608 C 874.609 563.942, 878.719 565.505, 883.408 567.080 C 892.141 570.015, 901.896 574.965, 904.041 577.550 C 904.703 578.347, 905.772 579, 906.416 579 C 907.061 579, 909.236 580.739, 911.251 582.865 C 913.927 585.689, 916.037 586.910, 919.083 587.397 C 921.377 587.764, 924.197 588.725, 925.349 589.532 C 926.502 590.339, 928.605 591, 930.023 591 C 931.440 591, 933.107 591.507, 933.726 592.126 C 934.484 592.884, 938.729 593.114, 946.730 592.828 C 956.831 592.468, 959.152 592.069, 962.234 590.165 C 964.227 588.932, 966.003 587.601, 966.179 587.206 C 966.782 585.854, 978.653 576, 979.678 576 C 980.240 576, 982.486 574.706, 984.669 573.125 C 986.852 571.543, 989.732 569.917, 991.069 569.510 C 992.406 569.103, 994.400 567.982, 995.500 567.019 C 996.600 566.056, 998.962 564.994, 1000.750 564.659 C 1002.537 564.324, 1005.918 563.176, 1008.263 562.108 C 1010.607 561.040, 1015.819 559.371, 1019.845 558.399 C 1026.718 556.741, 1027.049 556.537, 1025.273 555.066 C 1024.232 554.205, 1022.335 550.210, 1021.058 546.190 C 1018.532 538.238, 1018.621 531.881, 1021.336 526.456 C 1023.843 521.446, 1024.725 518.775, 1026.442 511 C 1029.788 495.844, 1032.338 490.889, 1041.829 481.103 C 1046.598 476.186, 1051.400 470.438, 1052.500 468.331 C 1053.600 466.224, 1055.502 463.391, 1056.727 462.035 C 1057.952 460.679, 1059.358 458.411, 1059.852 456.995 C 1060.718 454.510, 1060.536 454.357, 1054.625 452.616 C 1045.671 449.979, 1041.043 447.677, 1036.116 443.411 L 1031.732 439.615 1032.370 430.536 L 1033.008 421.457 1026.653 418.228 C 1023.157 416.453, 1019.582 415, 1018.708 415 C 1017.833 415, 1016.840 414.550, 1016.500 414 C 1016.160 413.450, 1014.762 413, 1013.393 413 C 1012.006 413, 1009.852 411.865, 1008.528 410.436 C 1005.090 406.726, 996.608 405.912, 992.801 408.927" stroke="#b09658" fill="#b09658" fill-opacity="0.2" fill-rule="evenodd"/><path class="svg-region-LPVl" d="M 791.914 459.604 C 791.181 460.486, 789.551 461.600, 788.291 462.079 C 785.413 463.174, 785.417 464.135, 788.315 467.673 C 795.107 475.966, 795.129 476.068, 794.501 496.678 C 794.186 507.030, 793.440 520.564, 792.844 526.754 C 792.058 534.922, 792.063 538.760, 792.863 540.754 C 793.469 542.264, 794.130 547.325, 794.331 552 L 794.696 560.500 799.005 561.894 C 802.599 563.057, 806.646 563.099, 823.407 562.147 C 858.096 560.177, 863.523 559.620, 865.296 557.847 C 867.770 555.373, 867.710 538.213, 865.181 525 C 864.076 519.225, 862.893 511.755, 862.553 508.399 C 861.866 501.624, 856.989 486.824, 854.214 483.093 C 852.268 480.477, 839.439 473.475, 834.676 472.429 C 831.245 471.675, 822.217 466.875, 816.600 462.817 C 812.764 460.046, 808 459.039, 808 461 C 808 462.597, 804.743 462.163, 800.500 460 C 795.755 457.581, 793.672 457.485, 791.914 459.604" stroke="#494949" fill="#494949" fill-opacity="0.2" fill-rule="evenodd"/><path class="svg-region-LPVr" d="M 1094.308 450.941 C 1091.453 451.969, 1088.696 453.070, 1088.181 453.388 C 1087.667 453.706, 1081.228 454.210, 1073.873 454.508 C 1066.518 454.805, 1060.386 455.376, 1060.246 455.775 C 1060.106 456.174, 1059.100 457.850, 1058.010 459.500 C 1054.267 465.167, 1053.494 466.379, 1050.853 470.718 C 1049.397 473.109, 1046.213 476.820, 1043.778 478.964 C 1034.156 487.434, 1029.151 496.887, 1026.025 512.500 C 1025.364 515.800, 1024.413 519.281, 1023.912 520.236 C 1023.410 521.191, 1023 522.506, 1023 523.158 C 1023 523.809, 1022.212 525.213, 1021.250 526.278 C 1018.858 528.922, 1018.912 543.124, 1021.330 547.500 C 1022.242 549.150, 1022.990 551.232, 1022.994 552.128 C 1023.007 555.636, 1025.743 556.345, 1039.813 556.486 C 1049.056 556.579, 1054.398 557.064, 1056.266 557.980 C 1058.490 559.070, 1060.025 559.107, 1064.093 558.168 C 1072.617 556.200, 1088.047 556.673, 1095.114 559.119 C 1100.154 560.863, 1101.384 560.997, 1102.075 559.879 C 1102.631 558.979, 1102.059 557.627, 1100.379 555.874 L 1097.843 553.227 1098.172 534.863 C 1098.364 524.111, 1097.924 510.447, 1097.109 501.895 C 1095.590 485.946, 1095.238 488.607, 1101.070 472 C 1104.055 463.500, 1107.872 458, 1110.786 458 C 1113.004 458, 1106.961 451.343, 1103.601 450.085 C 1100.019 448.745, 1100.544 448.696, 1094.308 450.941" stroke="#494949" fill="#494949" fill-opacity="0.2" fill-rule="evenodd"/><path class="svg-region-Fl" d="M 799.500 366.549 C 795.650 367.842, 791.253 368.922, 789.728 368.950 C 786.511 369.008, 771.121 376.487, 769.294 378.879 C 768.613 379.770, 768.278 381.123, 768.548 381.884 C 768.819 382.646, 768.748 384.827, 768.391 386.731 C 767.904 389.323, 767.047 390.436, 764.982 391.156 C 762.403 392.055, 762.179 392.601, 761.528 399.549 C 760.888 406.373, 760.680 406.899, 758.981 405.990 C 756.398 404.607, 756.467 404.555, 754.995 409.014 C 754.267 411.222, 753.070 413.527, 752.335 414.137 C 751.601 414.746, 751 415.731, 751 416.325 C 751 416.919, 749.700 418.776, 748.110 420.452 C 746.521 422.129, 744.916 424.512, 744.543 425.750 C 743.956 427.697, 744.231 428, 746.579 428 C 748.373 428, 750.872 429.439, 753.955 432.250 C 756.519 434.587, 760.066 437.274, 761.838 438.220 C 763.610 439.167, 765.833 441.356, 766.780 443.085 C 767.726 444.814, 769.513 447.772, 770.750 449.659 C 771.987 451.545, 773 453.723, 773 454.497 C 773 455.272, 774.554 456.644, 776.454 457.545 C 778.354 458.447, 780.434 459.818, 781.076 460.592 C 782.858 462.739, 789.355 462.370, 791.500 460 C 793.605 457.674, 796.556 457.413, 798.522 459.380 C 800.262 461.119, 807.090 462.456, 807.896 461.215 C 808.228 460.704, 810.975 459.716, 814 459.021 C 824.479 456.613, 830.513 454.870, 833.331 453.438 C 834.888 452.647, 836.700 452, 837.358 452 C 838.481 452, 843.497 448.583, 854 440.663 C 856.475 438.797, 860.750 436.121, 863.500 434.717 C 866.250 433.313, 870.349 430.440, 872.609 428.332 C 874.869 426.225, 878.343 423.164, 880.328 421.532 C 887.213 415.869, 886.875 415.060, 870.801 398.733 C 859.347 387.098, 855.234 383.588, 850.140 381.100 C 846.642 379.391, 842.445 376.869, 840.813 375.496 C 839.182 374.123, 837.200 373, 836.410 373 C 835.619 373, 834.191 372.550, 833.236 372 C 832.281 371.450, 829.475 370.084, 827 368.966 C 824.525 367.847, 821.375 366.279, 820 365.481 C 816.372 363.375, 807.594 363.832, 799.500 366.549" stroke="#5ca7a9" fill="#5ca7a9" fill-opacity="0.2" fill-rule="evenodd"/><path class="svg-region-Fr" d="M 1052.369 358.424 C 1044.242 360.282, 1041.065 362.037, 1035.311 367.845 C 1032.665 370.516, 1028.700 373.859, 1026.500 375.274 C 1021.488 378.498, 1016.647 383.229, 1011.500 389.935 C 1009.300 392.801, 1005.516 397.078, 1003.092 399.439 C 997.967 404.429, 998.109 406.117, 1003.792 407.820 C 1005.993 408.479, 1008.032 409.642, 1008.325 410.404 C 1008.617 411.166, 1012.147 412.808, 1016.170 414.053 C 1020.193 415.298, 1025.618 417.629, 1028.226 419.234 L 1032.967 422.152 1032.435 430.826 C 1031.979 438.246, 1032.163 439.791, 1033.701 441.513 C 1036.304 444.425, 1045.038 449.988, 1047.980 450.608 C 1049.366 450.900, 1052.525 451.895, 1055 452.819 C 1061.827 455.369, 1084.703 454.922, 1091.250 452.111 C 1095.740 450.183, 1096 449.861, 1096 446.223 C 1096 443.222, 1096.681 441.727, 1099.089 439.437 C 1100.788 437.822, 1102.862 435.150, 1103.696 433.500 C 1105.453 430.029, 1112.234 423.448, 1116.131 421.432 C 1117.605 420.670, 1123.010 419.699, 1128.144 419.273 C 1136.934 418.545, 1137.552 418.344, 1138.755 415.831 C 1139.819 413.605, 1139.765 412.360, 1138.427 408.331 C 1136.349 402.073, 1128.023 384.735, 1126.599 383.702 C 1125.995 383.263, 1123.475 383.115, 1121 383.373 C 1116.692 383.821, 1116.249 383.609, 1110.618 378.405 C 1107.383 375.415, 1103.201 372.240, 1101.325 371.350 C 1099.306 370.392, 1097.380 368.461, 1096.604 366.616 C 1095.436 363.841, 1094.311 363.198, 1086.312 360.734 C 1075.189 357.309, 1061.363 356.368, 1052.369 358.424" stroke="#5ca7a9" fill="#5ca7a9" fill-opacity="0.2" fill-rule="evenodd"/><path class="svg-region-PCl" d="M 743.186 430.896 C 742.631 432.488, 740.597 436.088, 738.666 438.895 C 736.736 441.701, 734.612 445.686, 733.948 447.749 C 733.283 449.812, 732.388 451.950, 731.959 452.500 C 731.530 453.050, 730.872 455.145, 730.496 457.156 C 729.603 461.937, 732.719 465.560, 736.848 464.542 C 738.307 464.183, 742.200 463.458, 745.500 462.931 C 748.800 462.405, 753.032 461.472, 754.905 460.858 C 757.458 460.022, 760.907 460.063, 768.701 461.025 C 780.780 462.515, 783.367 461.626, 777.500 458 C 775.495 456.761, 773.421 454.791, 772.891 453.623 C 769.534 446.219, 765.005 440.217, 760.591 437.323 C 757.926 435.575, 754.319 432.763, 752.575 431.073 C 748.379 427.005, 744.567 426.934, 743.186 430.896" stroke="#465ee0" fill="#465ee0" fill-opacity="0.2" fill-rule="evenodd"/><path class="svg-region-PCr" d="M 1127.903 419.102 C 1123.175 419.559, 1118.225 420.355, 1116.903 420.870 C 1113.261 422.291, 1106.147 428.804, 1104.364 432.350 C 1103.492 434.083, 1101.221 437.128, 1099.317 439.117 C 1096.516 442.042, 1095.915 443.382, 1096.177 446.117 C 1096.479 449.280, 1096.744 449.507, 1100.251 449.606 C 1103.316 449.693, 1104.983 450.640, 1109.367 454.786 C 1115.288 460.385, 1115.194 460.357, 1133 461.909 C 1145.081 462.962, 1157.165 466.315, 1162.210 470.013 C 1165.780 472.632, 1169.620 472.579, 1171.057 469.893 C 1171.873 468.369, 1171.883 467.483, 1171.093 466.693 C 1170.492 466.092, 1170 463.868, 1170 461.750 C 1170 457.671, 1167.637 452.032, 1165.370 450.703 C 1164.623 450.265, 1162.184 447.216, 1159.951 443.928 C 1157.718 440.639, 1155.015 437.402, 1153.945 436.734 C 1152.764 435.996, 1152 434.409, 1152 432.694 C 1152 428.375, 1150.297 425.901, 1147.710 426.459 C 1146.008 426.826, 1144.695 425.923, 1142 422.529 C 1140.075 420.105, 1138.050 418.155, 1137.500 418.196 C 1136.950 418.237, 1132.632 418.644, 1127.903 419.102" stroke="#465ee0" fill="#465ee0" fill-opacity="0.2" fill-rule="evenodd"/><path class="svg-region-Ol" d="M 492.693 423.641 C 492.568 423.765, 486.624 424.378, 479.483 425.002 C 459.144 426.781, 446.214 430.237, 437.846 436.131 C 436.386 437.159, 434.674 438, 434.041 438 C 433.409 438, 431.453 439.376, 429.696 441.059 C 427.938 442.741, 424.813 445, 422.750 446.079 C 420.688 447.158, 419 448.707, 419 449.520 C 419 450.334, 418.638 451, 418.195 451 C 416.289 451, 399.162 468.757, 397.941 472 C 397.216 473.925, 395.621 476.850, 394.396 478.500 C 393.172 480.150, 390.282 485.775, 387.975 491 C 385.667 496.225, 382.668 502.907, 381.310 505.849 C 379.952 508.791, 378.241 512.841, 377.507 514.849 C 376.773 516.857, 374.739 521.411, 372.988 524.969 C 371.236 528.527, 369.560 533.027, 369.262 534.969 C 368.965 536.911, 368.368 539.195, 367.936 540.044 C 366.496 542.874, 366.793 557.399, 368.457 565.500 C 369.361 569.900, 371.681 579.575, 373.612 587 C 375.544 594.425, 377.807 603.200, 378.641 606.500 C 381.661 618.451, 387.404 627.694, 403.656 646.759 C 426.750 673.851, 449.024 692.030, 464 696.011 C 466.475 696.669, 468.725 697.499, 469 697.856 C 471.323 700.873, 479.109 704.358, 489.334 706.958 C 495.815 708.606, 501.506 710.194, 501.981 710.488 C 503.537 711.450, 513.322 713.154, 522.500 714.062 C 527.450 714.552, 531.950 715.022, 532.500 715.108 C 535.126 715.516, 567.978 712.777, 571.445 711.860 C 573.615 711.287, 577.440 710.454, 579.945 710.010 C 588.541 708.487, 595.979 706.029, 601.736 702.810 C 608.024 699.295, 622.939 685.467, 625.068 681.179 C 625.800 679.705, 627.543 676.925, 628.943 675 C 631.891 670.945, 636.879 661.632, 638.049 658 C 639.239 654.302, 643.870 641.806, 644.903 639.500 C 646.302 636.381, 648.891 627.041, 649.985 621.173 C 650.531 618.243, 651.267 615.377, 651.621 614.805 C 652.372 613.588, 653.521 609.222, 655.647 599.500 C 658.553 586.211, 658.735 585, 657.831 585 C 657.335 585, 657.451 584.027, 658.087 582.837 C 658.951 581.223, 658.964 579.381, 658.137 575.587 C 656.767 569.296, 655.002 550.602, 655.001 542.372 C 655 539.002, 654.325 534.629, 653.500 532.654 C 652.675 530.680, 651.997 527.812, 651.994 526.282 C 651.990 524.752, 649.965 519.512, 647.494 514.637 C 645.022 509.762, 643 505.150, 643 504.387 C 643 503.624, 642.636 503, 642.190 503 C 641.745 503, 639.392 499.962, 636.963 496.250 C 634.533 492.538, 632.309 489.275, 632.021 489 C 631.431 488.437, 630.301 485.982, 626.958 478 C 624.919 473.131, 622.557 470.174, 611.784 459 C 610.459 457.625, 607.843 455.600, 605.972 454.500 C 604.101 453.400, 601.429 451.739, 600.035 450.810 C 597.479 449.105, 587.167 444, 586.280 444 C 586.017 444, 584.384 443.364, 582.651 442.586 C 577.805 440.412, 573.027 439.139, 567 438.415 C 561.713 437.780, 546.288 433.380, 539 430.427 C 527.320 425.696, 511.235 422.738, 499.536 423.170 C 495.897 423.304, 492.817 423.516, 492.693 423.641" stroke="#aa444d" fill="#aa444d" fill-opacity="0.2" fill-rule="evenodd"/><path class="svg-region-LBPCl" d="M 747.500 381.727 C 735.796 381.949, 731.804 382.380, 729.331 383.690 C 725.605 385.663, 722.138 391.395, 720.401 398.454 C 718.383 406.657, 716.223 414.304, 715.074 417.315 C 713.318 421.917, 713.707 450.648, 715.612 457.068 C 716.995 461.730, 721.342 471.523, 722.667 472.964 C 722.902 473.219, 724.565 471.821, 726.364 469.858 C 728.162 467.895, 730.255 466.082, 731.014 465.829 C 732.157 465.448, 732.178 464.845, 731.139 462.334 C 730.042 459.688, 730.196 458.402, 732.343 452.256 C 733.697 448.382, 736.407 442.831, 738.367 439.921 C 740.327 437.011, 742.700 432.126, 743.641 429.065 C 744.581 426.004, 746.826 421.835, 748.628 419.799 C 751.983 416.012, 756 408.662, 756 406.312 C 756 404.767, 757.613 404.565, 758.500 406 C 759.926 408.308, 760.809 406.606, 761.482 400.250 C 762.248 393.012, 763.230 391, 765.992 391 C 767.233 391, 767.918 389.916, 768.358 387.250 C 769.358 381.204, 769.262 380.982, 765.750 381.221 C 763.962 381.343, 755.750 381.570, 747.500 381.727" stroke="#daffff" fill="#daffff" fill-opacity="0.2" fill-rule="evenodd"/><path class="svg-region-LBPCr" d="M 1097.316 364.084 C 1095.367 366.033, 1097.133 368.910, 1102.187 372.020 C 1104.916 373.699, 1109.224 377.062, 1111.761 379.492 C 1116.064 383.616, 1116.650 383.873, 1120.536 383.340 C 1124.831 382.751, 1129 384.165, 1129 386.210 C 1129 386.837, 1130.754 390.984, 1132.898 395.425 C 1137.883 405.752, 1139.374 410.522, 1139.173 415.500 C 1139.039 418.825, 1139.615 420.145, 1142.588 423.325 C 1144.629 425.508, 1146.761 426.922, 1147.554 426.618 C 1149.635 425.819, 1152 428.749, 1152 432.128 C 1152 434.112, 1152.955 436.016, 1154.848 437.806 C 1156.414 439.288, 1159.124 442.621, 1160.870 445.213 C 1162.616 447.805, 1164.649 450.280, 1165.387 450.713 C 1167.667 452.050, 1170 457.704, 1170 461.891 C 1170 466.102, 1171.627 468.198, 1173.096 465.878 C 1173.577 465.120, 1173.976 462.421, 1173.985 459.880 C 1173.993 457.338, 1174.983 449.913, 1176.185 443.380 C 1178.944 428.376, 1178.826 415.538, 1175.874 409.584 C 1171.431 400.620, 1168.558 396.622, 1162 390.281 C 1158.782 387.170, 1148.129 381.113, 1143.925 380.004 C 1141.491 379.362, 1138.522 378.211, 1137.327 377.446 C 1136.132 376.681, 1131.407 374.735, 1126.827 373.123 C 1122.247 371.511, 1114.030 368.574, 1108.568 366.596 C 1096.931 362.383, 1098.636 362.764, 1097.316 364.084" stroke="#daffff" fill="#daffff" fill-opacity="0.2" fill-rule="evenodd"/>
    </svg>