<svg xmlns="http://www.w3.org/2000/svg" width="1921" height="1027" viewBox="0 0 1921 1027" version="1.1">
    <path class="svg-region-PMl" d="M 758.500 466.639 C 755.750 467.466, 750.350 468.835, 746.500 469.681 C 742.650 470.527, 738.552 472.088, 737.393 473.149 C 736.235 474.211, 733.535 475.341, 731.393 475.661 C 729.252 475.981, 726.938 476.949, 726.250 477.813 C 722.668 482.311, 727.127 502.870, 734.641 516.500 C 743.352 532.301, 759.064 553.091, 766.384 558.500 C 770.090 561.239, 771.097 561.491, 777.972 561.401 C 782.112 561.347, 788.619 560.897, 792.430 560.401 C 798.978 559.550, 799.407 559.334, 800.203 556.500 C 801.535 551.755, 800.011 494.480, 798.382 488.040 C 797.622 485.037, 797 481.188, 797 479.486 C 797 475.559, 792.237 470.762, 785.017 467.416 C 780.789 465.457, 778.259 465.013, 771.651 465.067 C 767.168 465.105, 761.250 465.812, 758.500 466.639" stroke="#90cf92" fill="#90cf92" fill-opacity="0.2" fill-rule="evenodd"/><path class="svg-region-PMr" d="M 1109.684 462.563 C 1106.464 467.532, 1104.114 472.730, 1102.593 478.248 C 1101.342 482.786, 1099.488 488.075, 1098.472 490 C 1097.013 492.765, 1096.462 496.966, 1095.849 510 C 1095.422 519.075, 1094.626 528.525, 1094.080 531 C 1093.534 533.475, 1093.068 538.737, 1093.044 542.693 C 1092.961 556.322, 1097.855 559.878, 1115.019 558.659 C 1122.514 558.127, 1124.697 557.553, 1128.788 555.035 C 1135.980 550.610, 1147.486 536.264, 1152.265 525.765 C 1153.701 522.610, 1155.997 518.560, 1157.367 516.763 C 1158.737 514.967, 1160.972 510.085, 1162.334 505.913 C 1163.695 501.742, 1166.453 495.064, 1168.462 491.075 C 1170.561 486.907, 1172.363 481.625, 1172.698 478.660 C 1173.018 475.822, 1173.915 472.240, 1174.691 470.700 C 1176.122 467.863, 1175.666 464, 1173.901 464 C 1173.371 464, 1172.685 464.658, 1172.376 465.462 C 1171.457 467.858, 1166.870 468.814, 1154.750 469.137 C 1145.729 469.377, 1123 463.437, 1123 460.839 C 1123 460.378, 1122.438 459.992, 1121.750 459.983 C 1121.063 459.973, 1119.440 458.848, 1118.145 457.483 C 1116.850 456.117, 1115.500 455.029, 1115.145 455.065 C 1114.790 455.101, 1112.333 458.475, 1109.684 462.563" stroke="#90cf92" fill="#90cf92" fill-opacity="0.2" fill-rule="evenodd"/><path class="svg-region-PV" d="M 988.500 394.039 C 985.200 395.101, 981.574 395.977, 980.441 395.985 C 979.309 395.993, 975.767 397.575, 972.570 399.500 C 969.373 401.425, 966.431 403, 966.032 403 C 965.634 403, 963.835 403.734, 962.036 404.632 C 951.038 410.118, 932.024 411.296, 915.669 407.503 C 911.914 406.632, 903.644 403.264, 897.290 400.019 C 887.512 395.024, 885.529 394.328, 884.370 395.488 C 882.436 397.422, 882.668 398.760, 885.069 399.522 C 887.956 400.438, 890.992 405.822, 890.996 410.034 C 890.999 412.368, 889.825 415.391, 887.539 418.939 C 882.277 427.107, 876.396 431.225, 866 434.021 C 863.525 434.687, 859.025 436.462, 856 437.966 C 852.975 439.469, 848.700 441.278, 846.500 441.985 C 841.562 443.571, 834 447.872, 834 449.095 C 834 449.593, 833.484 450, 832.854 450 C 832.223 450, 829.608 451.964, 827.042 454.364 C 824.476 456.764, 820.042 459.799, 817.188 461.108 C 814.335 462.417, 812 463.719, 812 464 C 812 464.757, 816.997 466.728, 821 467.550 C 822.924 467.945, 826.524 469.161, 829 470.253 C 838.170 474.296, 839.554 474.846, 842 475.417 C 843.375 475.739, 846.583 477.914, 849.129 480.251 C 853.243 484.027, 854.954 486.407, 861.055 496.841 C 864.656 502.999, 870 520.989, 870 526.954 C 870 529.234, 870.730 532.511, 871.622 534.236 C 872.890 536.689, 873.091 538.803, 872.543 543.936 C 872.157 547.546, 871.739 553.558, 871.614 557.295 L 871.385 564.089 874.943 565.647 C 881.750 568.627, 882.532 568.887, 887.872 569.956 C 896.226 571.628, 907.385 577.413, 923.144 588.242 C 932.230 594.485, 939.688 596.829, 944.567 594.974 C 945.977 594.439, 949.566 594, 952.542 594 C 957.116 594, 958.192 593.637, 959.491 591.654 C 960.336 590.364, 962.237 588.757, 963.715 588.084 C 965.192 587.411, 970.023 584.466, 974.451 581.540 C 984.284 575.040, 991.856 571.232, 1003 567.183 C 1011.805 563.983, 1024.462 561.002, 1029.250 561.001 C 1032.618 561, 1032.810 559.690, 1029.653 558.252 C 1027.383 557.218, 1023 549.525, 1023 546.576 C 1023 545.781, 1022.493 543.863, 1021.873 542.315 C 1021.254 540.767, 1020.619 535, 1020.462 529.500 C 1020.223 521.079, 1020.546 518.474, 1022.510 513 C 1023.793 509.425, 1025.530 502.450, 1026.370 497.500 C 1030.636 472.375, 1033.897 464.567, 1041.414 461.475 C 1043.661 460.551, 1046.281 459.391, 1047.236 458.897 C 1048.191 458.404, 1049.627 458, 1050.427 458 C 1052.690 458, 1053.349 456.048, 1051.714 454.187 C 1050.900 453.259, 1049.271 450.587, 1048.096 448.250 C 1046.921 445.913, 1045.508 444, 1044.956 444 C 1044.403 444, 1040.621 440.691, 1036.551 436.647 C 1029.587 429.728, 1022.328 424.312, 1015.530 420.963 C 1012.117 419.281, 1011.302 418.664, 1004.500 412.597 L 999.500 408.137 999.500 400.071 C 999.500 392.119, 999.464 392.005, 997 392.056 C 995.625 392.084, 991.800 392.977, 988.500 394.039" stroke="#b09658" fill="#b09658" fill-opacity="0.2" fill-rule="evenodd"/><path class="svg-region-LPVl" d="M 800.769 464.918 C 795.567 465.446, 790.992 467.706, 791.005 469.740 C 791.007 470.158, 792.357 471.938, 794.005 473.696 C 795.881 475.697, 797 477.954, 797 479.736 C 797 481.300, 797.645 485.057, 798.434 488.085 C 799.477 492.090, 800.006 502.568, 800.375 526.545 L 800.882 559.500 808.191 560.323 C 812.211 560.775, 825.175 561.278, 837 561.440 C 848.825 561.602, 861.313 562.073, 864.750 562.487 C 871.704 563.325, 871.233 563.809, 871.550 555.500 C 871.655 552.750, 872.084 547.715, 872.504 544.312 C 873.092 539.537, 872.893 537.191, 871.633 534.042 C 870.735 531.796, 870 528.399, 870 526.491 C 870 522.741, 867.197 511.738, 864.053 503.141 C 859.859 491.674, 848.052 476.832, 842 475.417 C 840.625 475.096, 838.150 474.228, 836.500 473.488 C 827.007 469.233, 823.978 468.086, 820.522 467.438 C 818.412 467.042, 815.519 466.110, 814.093 465.365 C 811.416 463.968, 810.445 463.936, 800.769 464.918" stroke="#494949" fill="#494949" fill-opacity="0.2" fill-rule="evenodd"/><path class="svg-region-LPVr" d="M 1098.112 460.894 C 1094.615 464.221, 1090.831 467.236, 1089.704 467.594 C 1088.576 467.952, 1086.747 469.090, 1085.638 470.122 C 1082.546 473.003, 1076.698 472.546, 1070.379 468.931 C 1065.305 466.028, 1063.337 464.574, 1057.271 459.250 C 1055.861 458.012, 1053.986 457.012, 1053.104 457.027 C 1050.328 457.074, 1037.914 462.793, 1036.134 464.845 C 1032.024 469.584, 1029.763 477.127, 1026.045 498.500 C 1025.088 504, 1023.371 510.792, 1022.229 513.594 C 1020.479 517.885, 1020.197 520.417, 1020.439 529.655 C 1020.597 535.686, 1021.238 541.577, 1021.863 542.745 C 1022.489 543.913, 1023 545.756, 1023 546.840 C 1023 549.925, 1027.261 557.155, 1029.750 558.293 C 1030.987 558.858, 1032 559.763, 1032 560.303 C 1032 560.918, 1034.899 561.041, 1039.750 560.633 C 1057.678 559.122, 1065.911 558.173, 1067.016 557.490 C 1067.662 557.091, 1074.447 556.830, 1082.095 556.910 C 1095.153 557.046, 1096 556.939, 1096 555.150 C 1096 554.102, 1095.325 552.685, 1094.500 552 C 1092.509 550.348, 1092.509 539.301, 1094.500 528 C 1095.323 523.325, 1095.998 514.402, 1095.999 508.171 C 1096 498.545, 1096.365 495.913, 1098.425 490.671 C 1099.758 487.277, 1101.779 481.350, 1102.916 477.500 C 1104.054 473.650, 1106.787 467.669, 1108.992 464.210 C 1113.306 457.439, 1113.768 456, 1111.625 456 C 1110.869 456, 1108.949 455.740, 1107.360 455.422 C 1104.847 454.919, 1103.640 455.633, 1098.112 460.894" stroke="#494949" fill="#494949" fill-opacity="0.2" fill-rule="evenodd"/><path class="svg-region-Fl" d="M 804.500 364.953 C 802.850 365.364, 798.531 367.118, 794.903 368.850 C 791.275 370.583, 787.900 372, 787.403 372 C 786.906 372, 782.355 374.084, 777.289 376.632 C 770.397 380.098, 766.998 382.529, 763.789 386.286 C 761.430 389.047, 757.532 393.375, 755.126 395.903 L 750.753 400.500 751.366 407.780 C 752.089 416.364, 753.069 418.461, 761.419 429.303 C 764.892 433.811, 768.623 439.300, 769.710 441.500 C 774.110 450.401, 775.397 451.987, 778.231 451.994 C 780.307 451.998, 781.112 452.599, 781.589 454.500 C 781.934 455.875, 782.688 457, 783.264 457 C 783.840 457, 785.704 458.056, 787.406 459.346 C 789.108 460.636, 792.212 462.499, 794.304 463.485 C 802.587 467.392, 819.039 462.665, 827.570 453.928 C 829.680 451.768, 831.990 450, 832.703 450 C 833.416 450, 834 449.594, 834 449.099 C 834 447.703, 840.757 444.045, 848.477 441.260 C 852.325 439.872, 856.384 438.139, 857.498 437.409 C 858.612 436.679, 862.597 435.133, 866.353 433.973 C 878.027 430.367, 881.992 427.549, 887.565 418.898 C 892.035 411.962, 892.257 406.556, 888.250 402.271 C 886.737 400.653, 884.825 399.087, 884 398.790 C 882.794 398.356, 882.745 397.990, 883.750 396.925 C 885.841 394.709, 885.193 393.237, 880.615 389.796 C 872.193 383.466, 867.490 380.598, 858 376.002 C 854.425 374.271, 849.925 372.048, 848 371.062 C 846.075 370.076, 842.310 368.949, 839.634 368.556 C 836.958 368.164, 832.062 366.978, 828.754 365.921 C 822.563 363.944, 810.482 363.461, 804.500 364.953" stroke="#5ca7a9" fill="#5ca7a9" fill-opacity="0.2" fill-rule="evenodd"/><path class="svg-region-Fr" d="M 1061.500 356.554 C 1059.300 357.432, 1055.475 358.592, 1053 359.133 C 1050.525 359.674, 1047.375 360.642, 1046 361.284 C 1042.927 362.720, 1028.265 372.602, 1025.436 375.145 C 1024.300 376.165, 1022.946 377, 1022.426 377 C 1021.906 377, 1020.919 377.900, 1020.232 379 C 1019.295 380.500, 1017.900 381, 1014.647 381 C 1011.464 381, 1009.538 381.665, 1007.406 383.499 C 1005.807 384.873, 1004.163 385.998, 1003.750 385.999 C 1003.337 385.999, 1003 386.468, 1003 387.040 C 1003 387.613, 1002.047 389.370, 1000.882 390.946 C 999.092 393.366, 998.824 394.874, 999.151 400.661 C 999.597 408.566, 1001.247 411.428, 1007.750 415.578 C 1010.087 417.070, 1012 418.565, 1012 418.901 C 1012 419.237, 1013.462 420.142, 1015.250 420.913 C 1021.164 423.463, 1029.431 429.426, 1034.325 434.673 C 1036.979 437.518, 1040.723 440.893, 1042.646 442.173 C 1044.568 443.453, 1047.189 446.534, 1048.470 449.020 C 1050.460 452.879, 1054.311 456.917, 1063.325 464.595 C 1067.360 468.032, 1075.966 472, 1079.385 472 C 1081.768 472, 1084.799 470.824, 1088.469 468.477 C 1094.989 464.306, 1105.975 453.816, 1108.544 449.307 C 1110.304 446.219, 1110.304 445.938, 1108.536 440.739 C 1106.206 433.882, 1107.038 428.701, 1111.077 424.928 C 1112.685 423.426, 1114 421.779, 1114 421.268 C 1114 420.756, 1115.189 419.702, 1116.642 418.924 C 1118.095 418.146, 1120.373 415.786, 1121.703 413.679 C 1123.033 411.571, 1125.557 409.240, 1127.311 408.499 C 1131.756 406.619, 1140.550 397.060, 1140.177 394.513 C 1140.014 393.406, 1138.780 389.558, 1137.435 385.963 C 1135.562 380.961, 1133.639 378.110, 1129.244 373.826 C 1123.468 368.196, 1119.299 365.368, 1118.279 366.388 C 1117.977 366.690, 1119.137 367.739, 1120.858 368.719 C 1124.970 371.060, 1124.347 372.427, 1118.990 372.816 C 1115.096 373.099, 1114.294 372.759, 1111.394 369.594 C 1108.091 365.988, 1106.341 362.325, 1107.412 361.255 C 1107.738 360.928, 1106.317 359.656, 1104.253 358.428 C 1100.890 356.427, 1098.682 356.131, 1083 355.577 C 1068.293 355.057, 1064.862 355.213, 1061.500 356.554" stroke="#5ca7a9" fill="#5ca7a9" fill-opacity="0.2" fill-rule="evenodd"/><path class="svg-region-PCl" d="M 743.750 419.603 C 740.038 422.622, 737 425.691, 737 426.424 C 737 427.156, 736.348 428.296, 735.551 428.958 C 734.754 429.619, 733.571 431.811, 732.921 433.830 C 732.272 435.848, 730.455 440.121, 728.884 443.325 C 726.883 447.404, 726.059 450.550, 726.132 453.825 C 726.189 456.396, 725.795 461.650, 725.258 465.500 C 723.960 474.785, 724.777 476.398, 730.451 475.758 C 732.790 475.495, 736.014 474.310, 737.617 473.125 C 739.219 471.941, 742.998 470.562, 746.015 470.060 C 749.032 469.559, 753.288 468.393, 755.473 467.468 C 757.790 466.487, 763.417 465.570, 768.973 465.267 C 777.576 464.798, 779.078 464.992, 784.455 467.266 C 790.061 469.636, 790.543 469.687, 792.663 468.142 C 796.047 465.675, 796.281 464.058, 793.413 462.967 C 792.010 462.434, 789.432 460.908, 787.682 459.576 C 784.800 457.382, 784.264 457.285, 782 458.542 C 776.925 461.358, 775 459.421, 775 451.497 C 775 450.259, 774.364 448.717, 773.586 448.072 C 772.809 447.426, 771.203 444.835, 770.018 442.314 C 768.183 438.412, 762.481 430.109, 756.408 422.500 C 755.530 421.400, 754.096 419.038, 753.221 417.250 C 752.346 415.462, 751.375 414.026, 751.065 414.057 C 750.754 414.088, 747.462 416.584, 743.750 419.603" stroke="#465ee0" fill="#465ee0" fill-opacity="0.2" fill-rule="evenodd"/><path class="svg-region-PCr" d="M 1134.535 402.522 C 1132.497 405.009, 1129.320 407.675, 1127.476 408.446 C 1125.605 409.228, 1123.052 411.541, 1121.703 413.679 C 1120.373 415.786, 1118.095 418.146, 1116.642 418.924 C 1115.189 419.702, 1114 420.645, 1114 421.021 C 1114 421.396, 1112.676 423.088, 1111.059 424.781 C 1107.147 428.875, 1106.218 434.121, 1108.346 440.112 C 1109.256 442.673, 1110 445.665, 1110 446.762 C 1110 447.858, 1110.675 449.315, 1111.500 450 C 1112.325 450.685, 1113.008 451.752, 1113.018 452.372 C 1113.040 453.736, 1119.379 459.108, 1124.651 462.230 C 1129.734 465.240, 1147.089 469.352, 1154 469.184 C 1171.274 468.764, 1173.324 467.671, 1176.861 457 C 1177.855 454, 1177.778 453.321, 1176.319 452.250 C 1175.384 451.563, 1174.112 451, 1173.494 451 C 1172.148 451, 1170.134 446.916, 1165.434 434.660 C 1159.060 418.034, 1158.292 416.400, 1154.519 411.428 C 1149.068 404.244, 1142.050 398, 1139.426 398 C 1138.774 398, 1136.573 400.035, 1134.535 402.522" stroke="#465ee0" fill="#465ee0" fill-opacity="0.2" fill-rule="evenodd"/><path class="svg-region-Ol" d="M 492.500 435.056 C 481.500 435.463, 468.980 436.291, 464.678 436.898 C 460.375 437.504, 454.439 438, 451.485 438 C 448.056 438, 442.389 439.233, 435.807 441.410 C 418.948 446.989, 419.412 446.725, 407.288 457.615 C 401.910 462.446, 388 478.403, 388 479.742 C 388 480.434, 387.640 481, 387.199 481 C 385.578 481, 375.795 499.279, 371.945 509.500 C 365.453 526.734, 365.539 554.377, 372.153 576.500 C 373.304 580.350, 374.863 586.413, 375.617 589.973 C 377.533 599.016, 384.760 613.211, 391.667 621.500 C 394.875 625.350, 399.300 631.142, 401.500 634.372 C 408.078 644.028, 427.591 662.407, 436.898 667.713 C 439.429 669.156, 444.555 672.332, 448.288 674.770 C 452.022 677.209, 458.547 680.518, 462.788 682.124 C 467.030 683.729, 471.400 685.483, 472.500 686.021 C 475.043 687.264, 485.006 690.728, 491.500 692.626 C 494.250 693.429, 502.125 694.754, 509 695.570 C 515.875 696.385, 522.175 697.250, 523 697.492 C 525.851 698.327, 545.529 700.866, 554 701.492 C 562.403 702.113, 580.561 700.540, 582.500 699.024 C 583.050 698.593, 586.767 696.819, 590.760 695.080 C 601.374 690.458, 606.340 686.840, 617.513 675.586 C 629.370 663.643, 634.505 656.121, 640.073 642.542 C 642.338 637.019, 644.564 631.600, 645.020 630.500 C 645.476 629.400, 646.126 627.150, 646.464 625.500 C 646.802 623.850, 647.738 619.575, 648.544 616 C 649.351 612.425, 650.212 608.375, 650.459 607 C 650.706 605.625, 651.411 602.250, 652.025 599.500 C 652.640 596.750, 653.374 586.676, 653.656 577.114 C 654.072 562.995, 653.889 559.142, 652.680 556.614 C 651.862 554.901, 650.739 551.250, 650.185 548.500 C 648.791 541.575, 646.376 534.736, 642.392 526.425 C 640.526 522.534, 639 518.774, 639 518.069 C 639 517.364, 637.581 514.997, 635.848 512.807 C 634.114 510.618, 631.522 506.436, 630.089 503.513 C 628.656 500.590, 625.912 496.295, 623.991 493.969 C 618.412 487.211, 599.704 468, 598.702 468 C 598.199 468, 596.148 466.746, 594.144 465.213 C 589.625 461.756, 578.503 455, 577.331 455 C 576.854 455, 574.867 453.914, 572.914 452.588 C 570.961 451.261, 567.369 449.642, 564.932 448.990 C 562.494 448.338, 560.050 447.460, 559.500 447.040 C 556.332 444.616, 524.573 436, 518.809 436 C 517.329 436, 515.840 435.550, 515.500 435 C 515.160 434.450, 514.346 434.071, 513.691 434.159 C 513.036 434.246, 503.500 434.650, 492.500 435.056" stroke="#aa444d" fill="#aa444d" fill-opacity="0.2" fill-rule="evenodd"/><path class="svg-region-LBPCr" d="M 1107 361.941 C 1107 363.750, 1109.032 367.190, 1111.909 370.250 C 1113.931 372.402, 1115.406 373, 1118.688 373 C 1123.372 373, 1125.363 371.206, 1122.504 369.562 C 1121.489 368.978, 1118.994 367.038, 1116.959 365.251 C 1113.058 361.825, 1107 359.811, 1107 361.941 M 1137 383.841 C 1137 384.304, 1137.670 386.891, 1138.489 389.591 C 1139.308 392.291, 1139.983 395.482, 1139.989 396.683 C 1139.995 397.883, 1140.787 399.118, 1141.750 399.426 C 1144.840 400.417, 1154.724 410.355, 1157.239 415 C 1158.579 417.475, 1160.841 422.650, 1162.266 426.500 C 1170.888 449.801, 1172.046 452, 1175.691 452 C 1177.536 452, 1177.345 450.814, 1174.500 444.594 C 1173.125 441.588, 1172 438.429, 1172 437.575 C 1172 434.301, 1168.047 425.825, 1165.635 423.928 C 1163.195 422.008, 1162.141 420.132, 1156.515 407.694 C 1155.071 404.501, 1152.114 400.114, 1149.944 397.944 C 1147.742 395.742, 1145.986 393.006, 1145.968 391.750 C 1145.930 389.072, 1144.466 387.090, 1140.785 384.736 C 1137.745 382.792, 1137 382.616, 1137 383.841" stroke="#daffff" fill="#daffff" fill-opacity="0.2" fill-rule="evenodd"/>
    </svg>