<svg xmlns="http://www.w3.org/2000/svg" width="1921" height="1027" viewBox="0 0 1921 1027" version="1.1">
    <path class="svg-region-PMl" d="M 771.750 468.083 C 770.494 469.459, 768.656 470, 765.235 470 C 762.517 470, 758.973 470.796, 756.985 471.853 C 755.068 472.872, 751.065 474.284, 748.088 474.991 C 745.112 475.699, 740.228 477.565, 737.237 479.139 C 734.245 480.712, 731.185 482, 730.437 482 C 728.525 482, 726.689 489.627, 727.438 494.458 C 727.783 496.681, 729.137 500.750, 730.447 503.500 C 731.757 506.250, 733.867 510.975, 735.136 514 C 736.405 517.025, 740.156 523.494, 743.472 528.375 C 746.787 533.256, 750.269 538.722, 751.209 540.522 C 752.150 542.322, 754.334 545.078, 756.063 546.647 C 757.793 548.216, 760.763 550.945, 762.664 552.711 C 767.287 557.004, 773.882 558.193, 786.720 557.050 C 792.099 556.571, 797.198 555.900, 798.051 555.559 C 798.904 555.218, 801.067 550.889, 802.859 545.938 C 806.032 537.171, 806.121 536.479, 806.308 519.219 L 806.500 501.500 802.384 494.500 C 800.120 490.650, 797.713 485.783, 797.034 483.684 C 795.341 478.443, 790.341 473.754, 781.960 469.548 C 778.071 467.597, 774.577 466.038, 774.195 466.083 C 773.813 466.129, 772.712 467.029, 771.750 468.083" stroke="#90cf92" fill="#90cf92" fill-opacity="0.2" fill-rule="evenodd"/><path class="svg-region-PMr" d="M 1117.500 471.536 C 1115.850 472.292, 1113.356 472.930, 1111.958 472.955 C 1108.914 473.009, 1101.926 479.823, 1099.607 485 C 1098.745 486.925, 1096.343 491.205, 1094.270 494.512 C 1092.196 497.818, 1089.896 502.093, 1089.157 504.012 C 1088.419 505.930, 1086.918 509.750, 1085.822 512.500 C 1081.155 524.217, 1079.756 528.812, 1079.277 534 C 1078.787 539.318, 1078.925 539.707, 1083.460 545.738 C 1086.040 549.168, 1088.679 552.315, 1089.325 552.730 C 1092.829 554.979, 1098.596 555.971, 1108.248 555.985 C 1118.915 556, 1119.031 555.974, 1123.794 552.553 C 1126.433 550.657, 1129.785 548.652, 1131.244 548.098 C 1132.702 547.543, 1134.700 545.832, 1135.683 544.295 C 1136.666 542.758, 1140.883 536.775, 1145.054 531 C 1152.661 520.468, 1159 508.027, 1159 503.631 C 1159 502.337, 1160.079 499.689, 1161.398 497.745 C 1163.356 494.860, 1167 485.005, 1167 482.596 C 1167 482.268, 1165.313 481.995, 1163.250 481.988 C 1161.097 481.981, 1157.628 480.906, 1155.104 479.463 C 1151.976 477.675, 1147.557 476.510, 1139.794 475.427 C 1128.367 473.834, 1124.631 472.830, 1123.538 471.062 C 1122.701 469.707, 1121.244 469.822, 1117.500 471.536" stroke="#90cf92" fill="#90cf92" fill-opacity="0.2" fill-rule="evenodd"/><path class="svg-region-PV" d="M 887.328 400.826 C 887.287 411.791, 885.893 417.843, 882.037 423.793 C 880.182 426.657, 878.380 429, 878.035 429 C 877.689 429, 876.528 429.680, 875.453 430.512 C 869.496 435.122, 863.681 438.068, 857 439.863 C 849.030 442.003, 841.728 444.597, 836 447.321 C 834.075 448.237, 830.623 449.552, 828.329 450.243 C 825.097 451.217, 823.117 452.846, 819.538 457.477 L 814.919 463.454 818.209 466.333 C 820.019 467.916, 823.525 470.247, 826 471.514 C 830.256 473.691, 840.179 481.115, 846.275 486.682 C 849.407 489.543, 858 500.461, 858 501.580 C 858 501.982, 859.125 503.786, 860.500 505.589 C 861.875 507.392, 863 509.114, 863 509.416 C 863 509.718, 864.766 512.850, 866.924 516.376 C 870.957 522.965, 874 530.561, 874 534.039 C 874 535.121, 874.900 537.686, 876 539.739 C 877.100 541.791, 878 544.041, 878 544.738 C 878 546.779, 865.232 559.023, 861.887 560.189 C 859.259 561.106, 859.025 561.454, 860.233 562.661 C 861.006 563.435, 863.407 564.320, 865.569 564.629 C 867.731 564.938, 870.942 565.834, 872.705 566.621 C 874.468 567.408, 878.518 568.507, 881.705 569.064 C 888.121 570.185, 887.678 570.019, 901 576.281 C 906.225 578.737, 911.591 581.929, 912.924 583.373 C 914.258 584.818, 915.698 586, 916.124 586 C 917.808 586, 926.693 592.535, 930 596.205 C 935.535 602.348, 945.107 602.695, 951.341 596.978 C 961.190 587.946, 965.445 584.502, 970.556 581.424 C 973.683 579.541, 976.570 578, 976.971 578 C 977.372 578, 979.668 576.575, 982.073 574.832 C 988.012 570.530, 995.362 568.003, 1001.986 567.985 C 1005.019 567.977, 1008.625 567.314, 1010 566.512 C 1011.375 565.710, 1013.969 564.358, 1015.764 563.507 C 1018.588 562.170, 1018.946 561.593, 1018.415 559.231 C 1018.077 557.729, 1016.496 554.333, 1014.901 551.684 C 1012.954 548.451, 1012 545.518, 1012 542.765 C 1012 535.873, 1014.035 525.773, 1016.513 520.363 C 1017.808 517.538, 1019.155 513.691, 1019.507 511.814 C 1019.891 509.765, 1023.322 504.223, 1028.088 497.950 C 1032.456 492.203, 1037.204 485.700, 1038.640 483.500 C 1040.077 481.300, 1043.895 476.275, 1047.126 472.334 C 1050.357 468.392, 1053 464.727, 1053 464.189 C 1053 463.065, 1031.208 442.304, 1026.086 438.548 C 1024.208 437.171, 1019.918 433.222, 1016.553 429.772 C 1013.187 426.322, 1006.026 419.692, 1000.639 415.038 C 995.251 410.384, 990.429 405.801, 989.922 404.854 C 989.415 403.907, 989 401.026, 989 398.452 L 989 393.773 984.250 394.481 C 981.638 394.870, 977.700 395.998, 975.500 396.987 C 973.300 397.976, 969.340 399.511, 966.700 400.398 C 964.061 401.284, 960.148 402.904, 958.005 403.997 C 949.264 408.457, 918.294 407.571, 909.414 402.608 C 907.016 401.267, 903.579 399.851, 901.777 399.461 C 899.975 399.071, 895.993 397.492, 892.928 395.951 L 887.356 393.151 887.328 400.826" stroke="#b09658" fill="#b09658" fill-opacity="0.2" fill-rule="evenodd"/><path class="svg-region-LPVl" d="M 780.669 465.814 C 779.403 467.213, 779.299 467.899, 780.214 468.814 C 780.866 469.466, 781.796 470, 782.281 470 C 782.765 470, 785.524 471.569, 788.413 473.486 C 792.012 475.875, 794.268 478.287, 795.582 481.151 C 797.403 485.118, 801.369 492.936, 804.890 499.500 C 806.219 501.977, 806.462 505.513, 806.284 519.784 C 806.087 535.559, 805.842 537.698, 803.474 544.284 C 802.048 548.253, 800.232 552.497, 799.440 553.715 C 798.648 554.933, 798 556.170, 798 556.465 C 798 556.759, 803.075 557, 809.277 557 C 817.589 557, 821.108 557.387, 822.657 558.472 C 827.483 561.852, 854.796 562.976, 862.266 560.102 C 865.894 558.706, 878.002 546.504, 877.993 544.253 C 877.990 543.289, 877.093 541.150, 876 539.500 C 874.907 537.850, 874.010 535.503, 874.007 534.285 C 873.996 530.563, 871.052 523.121, 866.924 516.376 C 864.766 512.850, 863 509.718, 863 509.416 C 863 509.114, 861.875 507.392, 860.500 505.589 C 859.125 503.786, 858 501.945, 858 501.496 C 858 500.201, 849.895 489.771, 846.547 486.757 C 840.438 481.259, 830.403 473.744, 826.520 471.759 C 824.331 470.640, 820.884 468.394, 818.859 466.767 L 815.178 463.808 812.066 466.109 C 809.465 468.032, 807.400 468.478, 799.478 468.824 C 790.481 469.218, 789.828 469.106, 786.567 466.619 C 782.482 463.503, 782.729 463.537, 780.669 465.814" stroke="#494949" fill="#494949" fill-opacity="0.2" fill-rule="evenodd"/><path class="svg-region-LPVr" d="M 1045.918 473.750 C 1042.312 478.563, 1038.718 483.455, 1037.931 484.623 C 1037.144 485.791, 1032.825 491.598, 1028.332 497.528 C 1023.349 504.106, 1019.912 509.658, 1019.516 511.768 C 1019.159 513.670, 1017.808 517.538, 1016.513 520.363 C 1014.019 525.808, 1012 535.881, 1012 542.885 C 1012 545.753, 1012.808 548.291, 1014.522 550.803 C 1015.909 552.836, 1017.495 556.165, 1018.047 558.200 L 1019.050 561.900 1024.275 561.365 C 1027.149 561.070, 1031.750 560.381, 1034.500 559.833 C 1037.250 559.285, 1044.900 558.431, 1051.500 557.936 C 1058.100 557.441, 1067.606 556.353, 1072.624 555.518 C 1077.642 554.683, 1083.379 554, 1085.374 554 C 1087.368 554, 1089 553.551, 1089 553.003 C 1089 552.454, 1087.505 550.317, 1085.677 548.253 C 1080.331 542.216, 1078.999 539.774, 1079.012 536.027 C 1079.027 531.578, 1081.070 523.884, 1083.852 517.805 C 1085.033 515.223, 1086 512.644, 1086 512.074 C 1086 510.312, 1093.695 494.745, 1096.913 490 C 1098.591 487.525, 1099.972 484.918, 1099.982 484.207 C 1099.992 483.496, 1102.051 480.722, 1104.557 478.043 C 1108.729 473.583, 1108.942 473.116, 1107.083 472.526 C 1105.966 472.172, 1104.184 470.778, 1103.123 469.429 C 1101.474 467.333, 1100.811 467.121, 1098.569 467.974 C 1094.508 469.518, 1055.961 468.061, 1055.300 466.338 C 1054.269 463.653, 1052.343 465.175, 1045.918 473.750" stroke="#494949" fill="#494949" fill-opacity="0.2" fill-rule="evenodd"/><path class="svg-region-Fl" d="M 793.500 363.997 C 785.185 364.457, 779.590 365.327, 775.282 366.830 C 771.861 368.024, 767.506 369, 765.603 369 C 763.700 369, 761.468 369.675, 760.643 370.500 C 759.818 371.325, 758.745 372, 758.259 372 C 756.017 372, 748.205 382.725, 747.356 386.968 C 747.028 388.611, 746.138 390.470, 745.379 391.100 C 744.621 391.730, 744 393.990, 744 396.122 C 744 399.974, 744.027 400, 747.965 400 C 753.851 400, 758.122 404.178, 760.975 412.729 C 762.217 416.453, 763.885 420.242, 764.680 421.149 C 767.723 424.617, 772.273 438.676, 773.693 448.997 C 775.151 459.595, 776.675 463, 779.958 463 C 780.864 463, 783.512 464.402, 785.841 466.115 C 790.036 469.200, 790.173 469.226, 800.152 468.825 C 810.217 468.421, 810.230 468.417, 813.363 464.903 C 819.759 457.730, 821.827 455.191, 822.892 453.202 C 823.492 452.080, 825.450 450.851, 827.242 450.470 C 829.034 450.089, 832.936 448.675, 835.914 447.327 C 843.228 444.017, 848.120 442.287, 856.929 439.896 C 865.802 437.487, 870.676 434.994, 875.794 430.250 C 876.536 429.563, 877.485 429, 877.903 429 C 879.700 429, 885.550 418.178, 886.282 413.500 C 888.886 396.860, 888.674 395.767, 882.257 392.725 C 879.676 391.501, 875.327 388.363, 872.592 385.750 C 869.856 383.137, 867.052 381, 866.359 381 C 865.666 381, 864.740 380.438, 864.300 379.750 C 862.006 376.164, 845.897 369.001, 840.112 368.994 C 834.924 368.988, 828 367.328, 828 366.091 C 828 364.830, 817.304 362.981, 811.083 363.167 C 808.012 363.259, 800.100 363.633, 793.500 363.997" stroke="#5ca7a9" fill="#5ca7a9" fill-opacity="0.2" fill-rule="evenodd"/><path class="svg-region-Fr" d="M 1059 361.827 C 1058.175 362.326, 1053.746 363.476, 1049.157 364.382 C 1044.568 365.288, 1040.068 366.421, 1039.157 366.899 C 1038.246 367.377, 1035.613 368.080, 1033.308 368.462 C 1031.002 368.844, 1028.615 369.760, 1028.003 370.497 C 1027.391 371.234, 1023.427 373.099, 1019.195 374.641 C 1014.757 376.257, 1010.193 378.726, 1008.411 380.472 C 1006.712 382.137, 1003.112 384.374, 1000.411 385.441 C 997.710 386.509, 994.038 388.880, 992.250 390.709 C 989.446 393.580, 989 394.734, 989 399.119 C 989 403.820, 989.356 404.572, 993.750 409.153 C 996.362 411.876, 1000.300 415.377, 1002.500 416.932 C 1004.700 418.486, 1010.100 423.443, 1014.500 427.947 C 1018.900 432.451, 1024.367 437.446, 1026.650 439.047 C 1028.932 440.648, 1036.761 447.781, 1044.047 454.897 L 1057.295 467.836 1078.559 468.168 C 1090.254 468.351, 1100.163 468.162, 1100.579 467.748 C 1100.996 467.335, 1100.844 465.985, 1100.241 464.748 C 1097.467 459.052, 1097.236 456.583, 1099.125 452.818 C 1100.140 450.793, 1101.428 448.854, 1101.986 448.509 C 1102.544 448.164, 1103 446.371, 1103 444.524 C 1103 441.265, 1109.265 427.859, 1111.111 427.167 C 1111.600 426.983, 1112 426.389, 1112 425.847 C 1112 423.401, 1118.511 415.685, 1121.698 414.353 C 1124.821 413.048, 1130.389 413.055, 1131.700 414.366 C 1131.981 414.647, 1133.820 412.767, 1135.787 410.189 C 1140.374 404.175, 1141.573 403, 1143.120 403 C 1143.840 403, 1143.580 402.413, 1142.513 401.633 C 1140.980 400.512, 1140.522 398.378, 1139.974 389.784 C 1139.606 384.019, 1138.995 378.802, 1138.617 378.190 C 1138.239 377.578, 1136.354 376.782, 1134.429 376.421 C 1131.672 375.904, 1130.627 375.042, 1129.509 372.368 C 1128.729 370.500, 1127.395 368.705, 1126.545 368.379 C 1125.695 368.053, 1125 367.175, 1125 366.428 C 1125 363.123, 1120.849 362.502, 1098 362.390 C 1085.625 362.329, 1072.125 361.973, 1068 361.599 C 1063.875 361.225, 1059.825 361.327, 1059 361.827" stroke="#5ca7a9" fill="#5ca7a9" fill-opacity="0.2" fill-rule="evenodd"/><path class="svg-region-PCl" d="M 741.003 402.750 C 739.221 404.368, 737.123 407.954, 735.904 411.463 C 734.765 414.743, 733.027 418.568, 732.042 419.963 C 729.940 422.941, 725.795 436.268, 723.569 447.208 C 721.764 456.077, 721.613 462.026, 722.978 470.500 C 723.749 475.281, 724.582 477.075, 727.080 479.332 C 730.548 482.465, 733.244 482.386, 737.978 479.016 C 739.408 477.997, 743.459 476.418, 746.979 475.505 C 750.500 474.593, 755.077 472.981, 757.150 471.923 C 759.390 470.781, 762.960 470, 765.946 470 C 770.686 470, 771.119 469.777, 773.572 466.071 C 775.993 462.412, 776.100 461.778, 775.129 456.821 C 774.555 453.895, 773.783 448.800, 773.414 445.500 C 773.044 442.200, 771.955 437.925, 770.993 436 C 770.031 434.075, 768.932 431.052, 768.550 429.283 C 768.168 427.514, 766.804 424.517, 765.519 422.623 C 764.233 420.729, 762.167 416.174, 760.926 412.502 C 757.920 403.601, 754.323 400, 748.439 400 C 745.032 400, 743.344 400.624, 741.003 402.750" stroke="#465ee0" fill="#465ee0" fill-opacity="0.2" fill-rule="evenodd"/><path class="svg-region-PCr" d="M 1136.910 408.500 C 1132.866 413.568, 1132.270 413.954, 1129.326 413.401 C 1124.613 412.517, 1119.449 414.642, 1116.163 418.817 C 1110.394 426.146, 1103 440.429, 1103 444.243 C 1103 446.244, 1102.544 448.164, 1101.986 448.509 C 1101.428 448.854, 1100.106 450.832, 1099.048 452.906 C 1096.975 456.969, 1097.365 459.376, 1101.281 466.689 C 1104.661 473.002, 1111.215 474.772, 1118.444 471.325 C 1121.596 469.822, 1122.138 469.806, 1123.728 471.173 C 1126.318 473.399, 1128.356 473.959, 1139.653 475.544 C 1146.445 476.498, 1151.425 477.814, 1154.573 479.488 C 1162.526 483.717, 1170 482.178, 1170 476.312 C 1170 475.195, 1171.344 471.631, 1172.987 468.391 C 1176.942 460.592, 1176.968 455.157, 1173.089 447.338 C 1171.488 444.111, 1169.241 440.623, 1168.095 439.586 C 1165.786 437.496, 1164.014 432.187, 1164.006 427.333 C 1163.995 421.313, 1160.613 415.706, 1153.060 409.190 C 1148.769 405.488, 1144.964 403, 1143.592 403 C 1142.011 403, 1139.936 404.708, 1136.910 408.500" stroke="#465ee0" fill="#465ee0" fill-opacity="0.2" fill-rule="evenodd"/><path class="svg-region-Ol" d="M 477.202 453.180 C 476.266 453.554, 474.019 453.891, 472.208 453.930 C 462.075 454.146, 440.305 461.471, 433.202 467.054 C 425.164 473.372, 405.165 494.174, 402.007 499.500 C 399.773 503.267, 392.372 512.875, 390.816 514.027 C 390.424 514.317, 388.618 517.692, 386.802 521.527 L 383.500 528.500 383.197 550.737 C 383.030 562.991, 383.350 575.439, 383.909 578.465 C 386.729 593.721, 400.802 621.043, 410.968 631 C 412.372 632.375, 416.216 636.645, 419.510 640.490 C 422.805 644.334, 426.052 648.069, 426.728 648.789 C 427.403 649.509, 428.529 650.864, 429.231 651.799 C 432.156 655.700, 449.005 667.256, 460.500 673.247 C 478.075 682.406, 523.825 688.996, 549.500 686.066 C 578.879 682.714, 593.517 678.623, 606.541 670.125 C 613.671 665.473, 623.587 655.321, 627.422 648.745 C 628.948 646.129, 630.714 643.654, 631.348 643.245 C 632.763 642.330, 636.439 631.602, 638.112 623.500 C 638.794 620.200, 639.499 616.825, 639.679 616 C 639.859 615.175, 640.609 605.500, 641.345 594.500 C 642.654 574.924, 642.179 564.059, 639.507 552.500 C 637.728 544.802, 632.596 530.073, 630.334 526.171 C 628.953 523.791, 628.089 521.577, 628.414 521.253 C 628.739 520.928, 628.404 519.951, 627.669 519.081 C 626.935 518.212, 624.852 515.025, 623.041 512 C 621.229 508.975, 619.129 506.140, 618.374 505.700 C 617.618 505.260, 617 504.294, 617 503.552 C 617 500.220, 595.788 480.135, 584.107 472.407 C 573.480 465.375, 559.826 460.602, 547 459.436 C 538.066 458.624, 512.837 455.052, 511 454.338 C 508.662 453.431, 479.110 452.418, 477.202 453.180" stroke="#aa444d" fill="#aa444d" fill-opacity="0.2" fill-rule="evenodd"/>
    </svg>