<svg xmlns="http://www.w3.org/2000/svg" width="1921" height="1027" viewBox="0 0 1921 1027" version="1.1">
    <path class="svg-region-PMl" d="M 778 469.953 C 772.050 470.343, 767.316 471.210, 765.332 472.272 C 763.589 473.204, 758.651 475.113, 754.359 476.515 C 750.066 477.916, 745.424 479.836, 744.043 480.781 C 742.662 481.727, 739.275 483.662, 736.516 485.082 C 730.508 488.175, 730.462 488.650, 734.926 501.500 C 738.319 511.268, 741.599 517.979, 746.412 525 C 748.109 527.475, 750.222 531.075, 751.107 533 C 753.290 537.750, 759.207 543.991, 761.571 544.039 C 762.632 544.060, 764.406 545.518, 765.514 547.278 C 767.172 549.913, 768.409 550.619, 772.514 551.271 C 779.538 552.386, 806.054 551.088, 807.589 549.554 C 811.217 545.926, 807.319 504.225, 802.903 499.436 C 801.755 498.190, 801 495.919, 801 493.711 C 801 489.201, 790.338 468.695, 788.237 469.165 C 787.832 469.256, 783.225 469.610, 778 469.953" stroke="#90cf92" fill="#90cf92" fill-opacity="0.2" fill-rule="evenodd"/><path class="svg-region-PMr" d="M 1117.500 478.126 C 1114.750 478.616, 1111.095 478.778, 1109.379 478.487 C 1106.829 478.055, 1105.956 478.418, 1104.610 480.472 C 1102.352 483.918, 1096.137 490.789, 1085.768 501.302 C 1075.518 511.693, 1074.525 514.140, 1075.256 527.202 C 1075.752 536.050, 1076.073 536.998, 1082.569 548.750 L 1085.470 554 1096.985 554.235 C 1118.865 554.682, 1118.650 554.703, 1121.709 551.849 C 1125.569 548.247, 1128.709 546.720, 1129.528 548.045 C 1130.442 549.524, 1134.434 545.299, 1136.263 540.917 C 1137.086 538.946, 1139.430 535.144, 1141.473 532.467 C 1143.516 529.790, 1146.181 525.553, 1147.394 523.050 C 1148.607 520.548, 1150.825 516.418, 1152.322 513.874 C 1155.056 509.229, 1157.623 501.244, 1158.981 493.163 C 1159.574 489.634, 1159.410 488.734, 1158.105 488.331 C 1156.051 487.699, 1152.917 486.271, 1151 485.093 C 1150.175 484.587, 1146.800 482.980, 1143.500 481.522 C 1140.200 480.065, 1136.719 478.451, 1135.764 477.936 C 1133.667 476.806, 1124.367 476.903, 1117.500 478.126" stroke="#90cf92" fill="#90cf92" fill-opacity="0.2" fill-rule="evenodd"/><path class="svg-region-PV" d="M 887.326 394.364 C 887.466 397.967, 887.900 401.234, 888.290 401.624 C 888.681 402.014, 889 405.158, 889 408.610 C 889 414.690, 886.248 422, 883.958 422 C 883.493 422, 882.300 423.379, 881.307 425.065 C 880.313 426.751, 877.266 429.507, 874.536 431.188 C 871.806 432.869, 866.856 436.797, 863.536 439.917 C 856.715 446.326, 849.902 450.984, 847.271 451.034 C 845.142 451.075, 840.030 453.522, 834.270 457.257 C 831.943 458.766, 829.835 460, 829.585 460 C 829.335 460, 827.929 460.457, 826.460 461.015 L 823.789 462.031 829.645 467.843 C 832.865 471.040, 835.950 474.306, 836.500 475.102 C 837.050 475.897, 839.041 478.787, 840.925 481.524 C 842.808 484.261, 845.111 487.249, 846.041 488.164 C 847.982 490.074, 856.081 502.276, 865.456 517.414 C 866.449 519.016, 868.992 522.206, 871.108 524.502 C 874.490 528.171, 874.979 529.330, 875.152 534.088 C 875.451 542.309, 872.893 560.104, 871.326 560.705 C 869.397 561.446, 869.703 563, 871.777 563 C 872.755 563, 874.551 563.697, 875.767 564.550 C 876.984 565.402, 880.797 567.164, 884.240 568.466 C 896.840 573.230, 903.579 576.318, 907 578.898 C 908.925 580.349, 913.062 583.253, 916.194 585.351 C 919.325 587.449, 923.280 590.816, 924.981 592.833 C 942.414 613.492, 941.541 612.626, 943.387 611.093 C 944.274 610.357, 945 609.173, 945 608.461 C 945 607.749, 945.378 607.017, 945.841 606.833 C 946.303 606.650, 948.264 604.412, 950.199 601.860 C 956.029 594.167, 969 582.135, 977.612 576.429 C 987.315 570.002, 988.404 569.555, 998.018 568.070 C 1008.079 566.516, 1017 563.221, 1017 561.060 C 1017 560.141, 1015.875 557.864, 1014.500 556 C 1013.125 554.136, 1012 551.899, 1012 551.028 C 1012 550.157, 1011.292 548.434, 1010.426 547.197 C 1007.058 542.390, 1011.515 527.803, 1020.623 513.824 C 1023.015 510.153, 1025.911 504.640, 1027.058 501.574 C 1028.205 498.508, 1029.561 496, 1030.072 496 C 1030.582 496, 1031 495.520, 1031 494.933 C 1031 493.549, 1035.214 487.881, 1041.262 481.129 C 1043.909 478.175, 1046.724 474.501, 1047.518 472.965 C 1048.894 470.305, 1048.771 469.884, 1044.928 464.130 C 1042.709 460.807, 1039.455 456.878, 1037.698 455.399 C 1035.940 453.920, 1033.779 451.538, 1032.896 450.105 C 1032.013 448.672, 1030.202 446.375, 1028.872 445 C 1027.542 443.625, 1024.013 439.238, 1021.031 435.250 C 1018.048 431.262, 1015.264 428, 1014.843 428 C 1014.422 428, 1013.273 427.172, 1012.289 426.159 C 1011.305 425.147, 1007.970 422.475, 1004.879 420.223 C 999.180 416.071, 996.856 413.543, 992.447 406.706 C 989.340 401.887, 989.350 398.827, 992.483 395.855 C 995.414 393.074, 995.885 390.414, 993.250 391.522 C 992.288 391.926, 990.375 392.494, 989 392.783 C 987.625 393.072, 985.600 393.878, 984.500 394.574 C 982.376 395.917, 975.649 396.936, 965 397.528 C 961.425 397.726, 953.550 398.365, 947.500 398.948 C 940.023 399.667, 935.562 399.682, 933.570 398.993 C 931.959 398.435, 928.584 398.247, 926.070 398.574 C 922.873 398.990, 920.599 398.695, 918.500 397.591 C 916.850 396.723, 914.989 396.010, 914.365 396.006 C 913.160 396, 903.860 393.313, 900.500 392.001 C 899.400 391.572, 896.541 390.689, 894.146 390.039 C 891.751 389.389, 889.180 388.622, 888.431 388.335 C 887.354 387.922, 887.124 389.178, 887.326 394.364 M 900.568 401.585 C 900.028 403.735, 900.515 405.271, 902.734 408.429 C 905.331 412.123, 906.008 412.506, 910.048 412.569 C 912.497 412.607, 915.856 413.351, 917.514 414.223 C 919.544 415.290, 922.004 415.641, 925.046 415.298 C 928.377 414.923, 930.475 415.299, 933.032 416.729 C 934.939 417.797, 937.709 418.971, 939.186 419.338 C 940.796 419.738, 943.012 421.704, 944.719 424.246 C 946.285 426.578, 948.398 428.646, 949.415 428.841 C 952.108 429.360, 955.956 426.986, 957.611 423.785 C 958.403 422.253, 959.792 421, 960.697 421 C 961.602 421, 963.214 420.212, 964.279 419.250 C 965.742 417.928, 967.960 417.500, 973.347 417.500 L 980.478 417.500 982.247 413.750 C 983.220 411.688, 984.615 410, 985.347 410 C 987.755 410, 988.932 405.719, 987.353 402.705 C 985.705 399.559, 983.559 399.320, 976.409 401.489 C 973.684 402.316, 967.601 402.983, 962.735 402.989 C 957.612 402.996, 951.450 403.701, 947.905 404.686 C 942.629 406.153, 941.233 406.199, 937.170 405.040 C 932.638 403.747, 929.036 403.070, 916.500 401.154 C 913.200 400.650, 908.422 399.917, 905.882 399.525 C 901.432 398.838, 901.239 398.913, 900.568 401.585" stroke="#b09658" fill="#b09658" fill-opacity="0.2" fill-rule="evenodd"/><path class="svg-region-LPVl" d="M 819.500 462.724 C 818.400 462.994, 816.950 463.661, 816.278 464.207 C 815.606 464.752, 809.676 465.296, 803.101 465.416 C 788.456 465.684, 786.989 466.439, 790.673 471.812 C 792.063 473.841, 793.609 476.400, 794.108 477.500 C 794.608 478.600, 796.333 481.750, 797.942 484.500 C 799.762 487.611, 800.892 490.987, 800.934 493.436 C 800.974 495.830, 801.742 498.179, 802.895 499.436 C 804.259 500.921, 805.269 504.852, 806.495 513.447 C 807.432 520.018, 808.567 526.361, 809.016 527.542 C 810.084 530.350, 809.163 545.858, 807.757 548.748 C 806.314 551.716, 807.151 552.363, 812.788 552.640 C 815.379 552.768, 819.975 553.384, 823 554.008 C 826.025 554.633, 832.775 555.516, 838 555.970 C 850.092 557.022, 853.933 557.695, 862.225 560.217 C 868.507 562.128, 869.114 562.155, 871.443 560.629 C 872.814 559.731, 873.720 558.433, 873.455 557.744 C 873.191 557.056, 873.615 552.219, 874.397 546.996 C 876.076 535.780, 875.507 528.074, 872.861 526.203 C 871.852 525.489, 865.671 516.877, 859.125 507.064 C 852.579 497.251, 846.481 488.385, 845.575 487.361 C 841.885 483.194, 839 479.150, 839 478.146 C 839 476.566, 824.223 461.981, 822.758 462.116 C 822.066 462.180, 820.600 462.453, 819.500 462.724" stroke="#494949" fill="#494949" fill-opacity="0.2" fill-rule="evenodd"/><path class="svg-region-LPVr" d="M 1097.500 467.710 C 1096.400 467.967, 1089.200 469.664, 1081.500 471.483 C 1067.909 474.694, 1067.281 474.752, 1060 473.476 C 1055.875 472.753, 1051.598 471.877, 1050.496 471.529 C 1048.951 471.041, 1048.047 471.651, 1046.547 474.198 C 1045.476 476.014, 1042.742 479.525, 1040.470 482 C 1034.544 488.457, 1027.530 498.910, 1026.326 503.080 C 1025.757 505.049, 1023.157 509.930, 1020.548 513.926 C 1011.419 527.911, 1007.028 542.346, 1010.426 547.197 C 1011.292 548.434, 1012 550.157, 1012 551.028 C 1012 551.899, 1013.125 554.136, 1014.500 556 C 1015.875 557.864, 1017 560.201, 1017 561.194 C 1017 562.543, 1017.777 563, 1020.066 563 C 1021.752 563, 1023.894 562.592, 1024.825 562.093 C 1027.835 560.483, 1051.958 556.001, 1057.816 555.964 C 1060.942 555.945, 1066.200 555.277, 1069.500 554.480 C 1072.800 553.683, 1077.412 553.024, 1079.750 553.016 C 1084.933 552.997, 1085.068 552.070, 1080.852 545.446 C 1076.960 539.331, 1075.020 532.344, 1075.036 524.500 C 1075.057 513.608, 1076.107 511.266, 1084.698 502.933 C 1088.989 498.770, 1093.832 493.595, 1095.459 491.433 C 1097.087 489.270, 1098.987 487.050, 1099.681 486.500 C 1100.375 485.950, 1102.253 483.729, 1103.853 481.564 C 1106.715 477.692, 1106.730 477.602, 1104.801 476.040 C 1103.722 475.167, 1102.527 472.921, 1102.144 471.051 C 1101.409 467.454, 1100.721 466.960, 1097.500 467.710" stroke="#494949" fill="#494949" fill-opacity="0.2" fill-rule="evenodd"/><path class="svg-region-Fl" d="M 778 357.500 C 775.525 358.189, 769.675 360.614, 765 362.890 C 750.816 369.796, 738.434 384.573, 739.186 393.697 C 739.511 397.632, 740.012 397.883, 744.701 396.460 C 747.195 395.703, 750.093 398.326, 755.376 406.122 C 757.099 408.664, 760.529 412.285, 762.999 414.168 C 765.468 416.052, 768.484 419.372, 769.701 421.547 C 773.697 428.687, 775.299 430.560, 781.732 435.610 C 785.257 438.377, 785.856 440.090, 788.570 455.170 L 790.310 464.840 796.046 465.505 C 799.201 465.872, 804.419 465.882, 807.641 465.528 C 815.596 464.654, 829.618 460.253, 834.500 457.099 C 840.067 453.501, 845.178 451.074, 847.271 451.034 C 849.833 450.985, 856.533 446.420, 864 439.636 C 867.575 436.388, 872.555 432.454, 875.066 430.893 C 877.578 429.332, 880.242 426.917, 880.985 425.527 C 881.729 424.137, 882.706 423, 883.156 423 C 883.607 423, 885.106 421.209, 886.487 419.020 C 888.490 415.848, 889 413.749, 889 408.687 C 889 405.192, 888.674 402.008, 888.276 401.610 C 887.878 401.211, 887.476 398.413, 887.383 395.390 C 887.214 389.898, 885.174 386, 882.467 386 C 881.795 386, 880.692 385.334, 880.017 384.521 C 878.677 382.906, 877.639 382.303, 864.895 375.732 C 860.162 373.292, 854.302 369.928, 851.872 368.256 C 849.442 366.584, 845.439 364.669, 842.977 364.001 C 840.515 363.332, 836.250 361.776, 833.500 360.544 C 830.750 359.311, 826.356 357.785, 823.736 357.151 C 817.317 355.600, 783.914 355.855, 778 357.500" stroke="#5ca7a9" fill="#5ca7a9" fill-opacity="0.2" fill-rule="evenodd"/><path class="svg-region-Fr" d="M 1054 362.126 C 1048.523 363.014, 1037.077 367.912, 1033.754 370.791 C 1031.782 372.498, 1022.281 376.652, 1017 378.116 C 1011.956 379.513, 1006 382.182, 1006 383.043 C 1006 383.450, 1004.933 384.051, 1003.629 384.378 C 1002.325 384.706, 1000.064 386.538, 998.606 388.450 C 997.147 390.363, 994.614 393.394, 992.977 395.186 C 989.151 399.376, 989.227 401.763, 993.396 408.231 C 997.149 414.053, 1000.148 417.036, 1007.250 422.011 C 1009.862 423.842, 1012 425.682, 1012 426.102 C 1012 426.522, 1012.814 427.124, 1013.809 427.439 C 1014.804 427.755, 1018.056 431.273, 1021.036 435.257 C 1024.015 439.241, 1027.542 443.625, 1028.872 445 C 1030.202 446.375, 1032.012 448.659, 1032.895 450.075 C 1033.778 451.491, 1036.214 454.148, 1038.309 455.980 C 1040.404 457.812, 1042.950 460.928, 1043.967 462.905 C 1047.460 469.693, 1051.087 472.146, 1059.699 473.541 C 1068.006 474.887, 1066.512 475.096, 1093 468.863 C 1100.687 467.055, 1100.525 467.187, 1098.150 464.659 C 1095.594 461.938, 1095.471 458.699, 1097.492 447.271 C 1098.992 438.793, 1102.314 431.973, 1105.871 430.069 C 1106.916 429.510, 1109.402 426.594, 1111.396 423.590 C 1115.796 416.962, 1119.374 414, 1122.981 414 C 1124.641 414, 1127.080 412.739, 1129.267 410.750 C 1131.232 408.962, 1134.211 406.466, 1135.887 405.202 L 1138.933 402.904 1136.966 397.915 C 1135.885 395.171, 1135 390.978, 1135 388.598 C 1135 384.507, 1134.516 383.771, 1126.169 375.174 C 1121.313 370.172, 1116.048 365.589, 1114.470 364.989 C 1105.851 361.712, 1067.693 359.905, 1054 362.126" stroke="#5ca7a9" fill="#5ca7a9" fill-opacity="0.2" fill-rule="evenodd"/><path class="svg-region-PCl" d="M 736.661 397.166 C 735.838 398.450, 733.947 402.200, 732.458 405.500 C 730.970 408.800, 728.934 413.300, 727.934 415.500 C 726.934 417.700, 725.678 421.525, 725.143 424 C 723.601 431.132, 721.722 453.188, 722.242 458.062 C 722.836 463.630, 726.908 479.179, 728.105 480.450 C 728.597 480.973, 729 482.885, 729 484.700 C 729 487.262, 729.420 488, 730.878 488 C 731.910 488, 733.315 487.325, 734 486.500 C 734.685 485.675, 735.767 485, 736.406 485 C 737.045 485, 739.974 483.450, 742.915 481.555 C 745.856 479.660, 750.361 477.659, 752.926 477.109 C 755.491 476.559, 760.495 474.735, 764.045 473.055 C 769.613 470.421, 771.631 470.001, 778.727 470.001 C 786.455 470, 787.056 469.844, 788.635 467.434 C 790.206 465.037, 790.208 464.265, 788.663 455.684 C 787.755 450.633, 786.764 444.817, 786.462 442.760 C 785.921 439.074, 780.897 433.015, 778.373 433.005 C 777.753 433.002, 775.503 430.229, 773.373 426.842 C 769.648 420.921, 765.250 415.849, 759.985 411.402 C 758.618 410.248, 755.532 406.548, 753.127 403.180 C 748.369 396.517, 746.255 395.258, 742.867 397.071 C 741.039 398.049, 740.443 397.958, 739.407 396.542 C 738.252 394.963, 738.042 395.011, 736.661 397.166" stroke="#465ee0" fill="#465ee0" fill-opacity="0.2" fill-rule="evenodd"/><path class="svg-region-PCr" d="M 1135.683 405.286 C 1134.134 406.504, 1131.252 408.962, 1129.280 410.750 C 1127.088 412.736, 1124.639 414, 1122.981 414 C 1119.391 414, 1115.799 416.957, 1111.474 423.473 C 1109.523 426.413, 1106.869 429.511, 1105.576 430.358 C 1101.663 432.922, 1099.079 438.296, 1097.519 447.116 C 1095.289 459.728, 1095.483 462.130, 1099 465.500 C 1100.650 467.081, 1102 469.315, 1102 470.465 C 1102 473.430, 1104.428 476.520, 1107.882 477.951 C 1110.144 478.888, 1112.505 478.921, 1117.864 478.089 C 1130.619 476.110, 1135.394 476.941, 1146.236 483.025 C 1147.191 483.561, 1148.584 484, 1149.331 484 C 1150.079 484, 1151.505 484.900, 1152.500 486 C 1153.633 487.252, 1155.580 488, 1157.706 488 C 1160.655 488, 1161.298 487.530, 1162.595 484.427 C 1163.416 482.462, 1164.544 478.750, 1165.102 476.177 C 1165.659 473.605, 1166.601 469.475, 1167.195 467 C 1167.788 464.525, 1168.262 459.350, 1168.248 455.500 C 1168.132 423.880, 1149.189 394.671, 1135.683 405.286" stroke="#465ee0" fill="#465ee0" fill-opacity="0.2" fill-rule="evenodd"/><path class="svg-region-DV" d="M 900.598 401.466 C 900.121 403.365, 900.576 405.214, 902.160 407.822 C 905.072 412.616, 905.904 413.146, 909.530 412.517 C 911.464 412.182, 913.957 412.704, 916.418 413.958 C 919.305 415.430, 921.379 415.773, 924.670 415.322 C 927.952 414.872, 930.133 415.229, 933.283 416.733 C 935.602 417.841, 938.750 419.250, 940.278 419.865 C 941.806 420.480, 943.336 421.774, 943.677 422.741 C 944.767 425.827, 948.275 429, 950.597 429 C 952.788 429, 959 423.768, 959 421.923 C 959 421.415, 959.752 421, 960.671 421 C 961.590 421, 963.214 420.212, 964.279 419.250 C 965.742 417.928, 967.960 417.500, 973.347 417.500 L 980.478 417.500 982.247 413.750 C 983.220 411.688, 984.579 410, 985.267 410 C 985.956 410, 987.111 409.051, 987.836 407.891 C 988.882 406.216, 988.906 405.188, 987.955 402.891 C 986.550 399.501, 984.387 399.249, 976 401.500 C 972.975 402.312, 966.781 402.982, 962.235 402.988 C 957.586 402.995, 951.317 403.737, 947.907 404.686 C 942.750 406.119, 941.220 406.182, 937.672 405.105 C 933.385 403.804, 928.690 402.924, 916.500 401.137 C 912.650 400.572, 907.648 399.813, 905.385 399.449 C 901.526 398.829, 901.228 398.954, 900.598 401.466" stroke="#45567a" fill="#45567a" fill-opacity="0.2" fill-rule="evenodd"/><path class="svg-region-Ol" d="M 489 466.576 C 474.883 468.744, 467.205 470.972, 458.649 475.381 C 448.213 480.759, 446.579 481.794, 442.153 485.834 C 440.144 487.668, 436.925 489.989, 435 490.993 C 428.101 494.590, 420.016 504.203, 415.111 514.640 C 414.041 516.917, 412.660 519.092, 412.042 519.474 C 411.424 519.856, 411.184 521.003, 411.507 522.023 C 411.903 523.269, 411.424 524.238, 410.048 524.974 C 408.834 525.624, 408 527.075, 408 528.535 C 408 529.891, 407.550 531, 407 531 C 406.450 531, 406 531.691, 406 532.535 C 406 533.380, 405.333 535.088, 404.518 536.332 C 402.861 538.861, 400.536 553.439, 401.532 555.051 C 401.884 555.621, 401.684 556.675, 401.088 557.393 C 398.146 560.938, 405.933 601.454, 411.006 609 C 411.931 610.375, 413.874 613.311, 415.324 615.525 C 418.863 620.928, 426.954 628.534, 434.975 634 C 436.186 634.825, 438.172 636.400, 439.389 637.500 C 440.605 638.600, 444.390 640.850, 447.798 642.500 C 451.207 644.150, 453.996 646.014, 453.998 646.642 C 453.999 647.269, 455.205 648.086, 456.678 648.455 C 459.650 649.201, 468.581 653.393, 477 657.994 C 480.025 659.647, 483.202 661, 484.060 661 C 484.917 661, 489.417 661.962, 494.060 663.137 C 501.484 665.017, 504.125 665.195, 516 664.615 C 523.425 664.252, 538.500 663.546, 549.500 663.045 C 570.476 662.090, 585.170 659.601, 596 655.171 C 599.651 653.677, 615.700 637.117, 616.880 633.625 C 617.090 633.006, 617.829 631.825, 618.522 631 C 620.180 629.028, 625 616.830, 625 614.606 C 625 613.650, 625.454 612.019, 626.010 610.982 C 626.565 609.944, 627.149 606.929, 627.306 604.281 C 627.464 601.634, 627.946 598.897, 628.376 598.200 C 629.050 597.110, 629.471 573.271, 628.919 567.500 C 628.516 563.287, 626.113 552.834, 625.286 551.694 C 624.809 551.037, 623.587 547.800, 622.569 544.500 C 620.051 536.338, 618.654 533, 617.756 533 C 617.340 533, 617 532.116, 617 531.035 C 617 529.954, 615.650 527.532, 614 525.653 C 612.350 523.774, 611 521.948, 611 521.597 C 611 520.694, 605.809 512.869, 603.964 510.992 C 603.120 510.132, 601.097 507.645, 599.470 505.464 C 597.842 503.284, 592.189 497.199, 586.907 491.942 C 577.061 482.142, 571.087 478.317, 561.324 475.566 C 558.671 474.818, 553.684 473.015, 550.242 471.560 C 537.879 466.333, 530.101 464.988, 513.090 465.135 C 504.516 465.209, 493.675 465.858, 489 466.576" stroke="#aa444d" fill="#aa444d" fill-opacity="0.2" fill-rule="evenodd"/>
    </svg>