<svg xmlns="http://www.w3.org/2000/svg" width="1921" height="1027" viewBox="0 0 1921 1027" version="1.1">
    <path class="svg-region-PMl" d="M 776.570 488.887 C 776.269 489.374, 774.386 490.080, 772.386 490.455 C 769.054 491.080, 758.061 496.013, 752 499.602 C 750.358 500.574, 748.042 500.903, 745.250 500.560 C 741.154 500.057, 741.001 500.137, 741.033 502.769 C 741.070 505.889, 744.113 515.223, 745.733 517.186 C 746.329 517.909, 748.069 521.650, 749.600 525.500 C 758.283 547.344, 769.195 554.471, 799.369 558.006 C 809.839 559.233, 812.575 558.603, 810.040 555.548 C 808.975 554.265, 809.155 553.686, 811.132 552.039 C 812.440 550.949, 815.066 550.037, 817 550.001 C 822.752 549.895, 823.981 548.181, 826.087 537.323 C 828.283 526.006, 828.411 522.344, 826.715 519.374 C 824.835 516.083, 819.921 512.382, 813.891 509.715 C 810.870 508.379, 805.590 505.085, 802.156 502.393 C 786.452 490.084, 778.443 485.856, 776.570 488.887" stroke="#90cf92" fill="#90cf92" fill-opacity="0.2" fill-rule="evenodd"/><path class="svg-region-PMr" d="M 1117 491.849 C 1111.531 492.697, 1102.695 498.372, 1097.086 504.639 C 1094.007 508.080, 1092.099 509.319, 1089.257 509.723 C 1086.267 510.148, 1084.683 511.265, 1081.500 515.191 C 1069.884 529.519, 1071 527.201, 1071 536.996 C 1071 541.858, 1070.727 546.548, 1070.393 547.418 C 1069.890 548.730, 1070.635 549, 1074.757 549 C 1085.941 549, 1097.468 552.796, 1097.537 556.501 C 1097.558 557.602, 1097.922 559.064, 1098.346 559.751 C 1099.451 561.539, 1113.770 561.347, 1117 559.500 C 1118.375 558.714, 1120.893 558.055, 1122.595 558.035 C 1126.455 557.991, 1129.077 555.281, 1127.951 552.500 C 1126.581 549.119, 1126.885 548.448, 1130.236 547.457 C 1132.015 546.931, 1133.928 545.582, 1134.486 544.461 C 1135.044 543.339, 1137.145 540.414, 1139.155 537.961 C 1143.792 532.303, 1157.502 502.751, 1156.592 500.379 C 1156.118 499.143, 1155.631 498.969, 1154.845 499.755 C 1153.543 501.057, 1152.890 500.852, 1142.081 495.731 C 1133.129 491.490, 1126.215 490.420, 1117 491.849" stroke="#90cf92" fill="#90cf92" fill-opacity="0.2" fill-rule="evenodd"/><path class="svg-region-PV" d="M 979.500 428 C 979.160 428.550, 977.671 429.020, 976.191 429.044 C 971.664 429.118, 956.171 435.602, 954.193 438.250 C 952.876 440.014, 947.036 440.703, 945.598 439.264 C 945.193 438.860, 939.606 438.489, 933.181 438.440 C 926.757 438.390, 920.731 438.005, 919.791 437.584 C 918.822 437.149, 917.728 435.017, 917.265 432.659 C 916.496 428.746, 916.225 428.482, 912.694 428.188 C 910.629 428.016, 906.366 428.633, 903.220 429.558 C 897.882 431.128, 892.417 432.119, 880.707 433.640 C 876.889 434.136, 875.263 434.990, 872.707 437.843 C 870.943 439.812, 867.957 442.790, 866.072 444.461 C 864.187 446.133, 860.601 449.437, 858.103 451.803 C 855.606 454.170, 850.847 457.403, 847.527 458.987 C 838.008 463.530, 821.005 476.618, 821.001 479.405 C 821.001 479.902, 822.819 482.040, 825.042 484.155 C 827.745 486.726, 830.006 488, 831.868 488 C 836.294 488, 839 491.680, 839 497.700 C 839 503.861, 834.098 518.190, 830.723 521.895 C 828.984 523.805, 827.887 527.034, 826.614 534 C 825.658 539.225, 824.646 544.452, 824.364 545.616 C 823.908 547.493, 824.394 547.800, 828.675 548.339 C 844.067 550.280, 846.428 551.473, 845.700 556.944 C 845.440 558.900, 844.898 561.513, 844.497 562.750 C 843.851 564.741, 844.107 565, 846.730 565 C 848.359 565, 851.103 565.703, 852.826 566.563 C 854.549 567.423, 859.006 568.579, 862.730 569.132 C 866.453 569.686, 870.679 570.978, 872.121 572.004 C 873.563 573.030, 877.388 574.628, 880.621 575.555 C 883.854 576.483, 886.950 577.564, 887.500 577.957 C 888.050 578.351, 891.200 579.729, 894.500 581.020 C 897.800 582.310, 901.494 583.998, 902.709 584.771 C 904.766 586.080, 904.965 585.988, 905.605 583.437 C 905.998 581.873, 905.801 579.911, 905.146 578.863 C 902.784 575.079, 905.038 562, 908.053 562 C 908.617 562, 910.811 560.233, 912.928 558.074 C 916.798 554.126, 918.795 553.311, 930.500 550.910 C 933.800 550.233, 938.075 548.514, 940 547.089 C 943.080 544.811, 944.461 544.500, 951.500 544.500 C 957.156 544.500, 960.497 545.013, 962.904 546.250 C 964.776 547.212, 967.112 548, 968.095 548 C 969.078 548, 970.160 548.450, 970.500 549 C 970.840 549.550, 972.904 550, 975.088 550 C 978.970 550, 979.113 550.128, 981.580 555.818 C 983.708 560.724, 984.683 561.843, 987.802 562.959 C 989.836 563.686, 991.831 564.781, 992.235 565.391 C 993.523 567.335, 993.055 573.477, 991.443 575.777 C 990.032 577.793, 990.034 578, 991.465 578 C 992.334 578, 996.049 576.637, 999.723 574.972 C 1006.031 572.112, 1016.308 570.398, 1027.625 570.321 C 1029.343 570.309, 1032.865 569.276, 1035.451 568.024 C 1039.381 566.121, 1040.568 565.938, 1042.688 566.904 C 1044.335 567.654, 1045.631 567.721, 1046.387 567.094 C 1047.027 566.563, 1049.901 565.817, 1052.775 565.435 C 1055.954 565.014, 1058 564.247, 1058 563.478 C 1058 562.783, 1058.787 561.904, 1059.750 561.524 C 1061.259 560.930, 1061.034 560.442, 1058.117 557.984 C 1052.750 553.460, 1055.927 550, 1065.448 550 C 1070.553 550, 1070.965 549.160, 1070.986 538.719 C 1070.998 533.119, 1070.695 531.846, 1069.250 531.414 C 1064.892 530.110, 1055.489 523.676, 1053.495 520.633 C 1052.640 519.327, 1051.025 515.657, 1049.908 512.477 C 1046.585 503.024, 1047.545 500.410, 1058.223 489.833 C 1063.176 484.926, 1068.589 480.357, 1070.251 479.679 L 1073.273 478.446 1067.386 474.021 C 1061.956 469.939, 1059.928 468.188, 1050 459.009 C 1045.330 454.692, 1034.937 447.923, 1027.294 444.220 C 1023.881 442.567, 1019.866 440.253, 1018.372 439.078 C 1016.878 437.903, 1013.601 436.032, 1011.090 434.922 C 1008.579 433.811, 1005.619 432.086, 1004.512 431.089 C 1003.406 430.092, 1000.388 428.764, 997.807 428.138 C 992.013 426.733, 980.337 426.645, 979.500 428" stroke="#b09658" fill="#b09658" fill-opacity="0.2" fill-rule="evenodd"/><path class="svg-region-LPVl" d="M 819 480.020 C 818.175 480.542, 810.570 480.976, 802.101 480.985 L 786.702 481 783.413 484.387 L 780.124 487.773 786.212 491.387 C 789.560 493.374, 792.627 495, 793.027 495 C 793.428 495, 794.337 495.701, 795.049 496.559 C 797.767 499.834, 808.578 507.345, 814.411 510.011 C 821.448 513.227, 826.637 517.706, 827.552 521.353 C 828.100 523.535, 828.454 523.733, 830.035 522.746 C 831.655 521.734, 832.841 519.512, 836.037 511.500 C 838.178 506.134, 839 502.256, 839 497.525 C 839 493.407, 838.527 491.904, 836.686 490.174 C 835.413 488.978, 833.590 488, 832.636 488 C 829.849 488, 825.362 485.277, 822.838 482.055 C 821.088 479.820, 820.123 479.309, 819 480.020" stroke="#494949" fill="#494949" fill-opacity="0.2" fill-rule="evenodd"/><path class="svg-region-LPVr" d="M 1068.500 480.314 C 1067.400 480.967, 1062.590 485.401, 1057.811 490.167 C 1047.838 500.111, 1046.849 502.577, 1049.383 511.166 C 1051.381 517.934, 1054.143 522.412, 1057.702 524.653 C 1059.241 525.622, 1061.772 527.446, 1063.327 528.707 C 1067.349 531.970, 1070.208 531.687, 1071.902 527.858 C 1072.667 526.130, 1075.927 521.810, 1079.147 518.257 C 1082.366 514.705, 1085 511.453, 1085 511.031 C 1085 510.609, 1086.842 510.016, 1089.093 509.714 C 1092.422 509.268, 1094.148 508.143, 1098.343 503.687 C 1101.179 500.674, 1105.862 496.773, 1108.750 495.018 C 1111.638 493.264, 1114 491.687, 1114 491.515 C 1114 491.343, 1112.088 490.210, 1109.750 488.997 C 1107.412 487.784, 1105.140 486.163, 1104.700 485.396 C 1104.255 484.618, 1102.345 484, 1100.385 484 C 1098.451 484, 1096.001 483.535, 1094.940 482.968 C 1093.879 482.400, 1089.071 481.516, 1084.255 481.004 C 1079.440 480.492, 1074.375 479.859, 1073 479.599 C 1071.625 479.338, 1069.600 479.660, 1068.500 480.314" stroke="#494949" fill="#494949" fill-opacity="0.2" fill-rule="evenodd"/><path class="svg-region-Fl" d="M 794.940 360.393 C 794.635 360.699, 790.136 361.820, 784.942 362.885 C 769.851 365.980, 764.058 367.638, 762.080 369.427 C 760.032 371.281, 756 381.500, 756 384.838 C 756 386.011, 755.466 388.968, 754.813 391.408 C 753.359 396.845, 754.670 399, 759.431 399 C 763.523 399, 765.161 400.359, 768.469 406.500 C 769.951 409.250, 772.464 413.146, 774.055 415.158 C 775.652 417.178, 777.251 420.718, 777.626 423.061 C 778.110 426.089, 779.377 428.377, 782.050 431.050 C 784.111 433.111, 787.080 436.980, 788.648 439.648 C 791.251 444.076, 791.489 445.287, 791.376 453.500 C 791.293 459.546, 790.596 464.469, 789.252 468.500 C 788.152 471.800, 786.982 475.962, 786.651 477.750 L 786.050 481 802.107 481 L 818.164 481 822.332 477.017 C 829.734 469.945, 843.248 460.399, 849.257 458 C 853.576 456.276, 867.541 444.133, 873.605 436.830 C 874.212 436.099, 875.795 434.600, 877.121 433.500 C 878.448 432.400, 880.565 429.373, 881.825 426.773 C 883.086 424.173, 884.529 421.791, 885.032 421.480 C 885.535 421.169, 886.663 419.404, 887.539 417.558 C 888.416 415.712, 891.055 412.399, 893.405 410.197 C 901.318 402.780, 902.005 395.565, 894.988 393.583 C 893.070 393.041, 885.118 389.300, 877.319 385.270 C 864.217 378.501, 856.129 375.087, 848.476 373.099 C 846.814 372.666, 844.481 371.792, 843.292 371.156 C 840.561 369.695, 835.525 369.683, 829.282 371.124 C 824.090 372.323, 823.588 372.131, 810.338 363.886 C 808.600 362.804, 806.125 361.658, 804.838 361.339 C 800.724 360.317, 795.514 359.820, 794.940 360.393" stroke="#5ca7a9" fill="#5ca7a9" fill-opacity="0.2" fill-rule="evenodd"/><path class="svg-region-Fr" d="M 1079 369.794 C 1071.852 371.940, 1067.716 372.442, 1053 372.954 C 1036.151 373.539, 1030.605 374.555, 1025.500 377.989 C 1024.950 378.359, 1020.900 379.926, 1016.500 381.470 C 1004.830 385.565, 999.181 391.640, 997.627 401.764 C 997.104 405.168, 997.578 407.586, 999.981 413.764 C 1001.637 418.019, 1002.993 421.801, 1002.995 422.168 C 1002.998 422.536, 1004.683 424.786, 1006.740 427.168 C 1014.280 435.902, 1020.313 441.250, 1024.852 443.224 C 1033.841 447.134, 1045.582 454.951, 1053.500 462.298 C 1057.900 466.380, 1064.650 472.101, 1068.500 475.011 C 1075.309 480.158, 1075.743 480.327, 1084.400 481.196 C 1089.295 481.688, 1094.103 482.520, 1095.084 483.045 C 1097.287 484.224, 1104 484.309, 1104 483.158 C 1104 482.330, 1102.180 480.422, 1096.750 475.555 C 1092.868 472.076, 1092.852 464.316, 1096.712 457.376 C 1099.652 452.092, 1099.494 452.312, 1104.447 446.593 C 1106.307 444.444, 1108.279 441.744, 1108.827 440.593 C 1109.375 439.442, 1111.723 434.450, 1114.043 429.500 C 1116.364 424.550, 1118.879 420.140, 1119.632 419.700 C 1120.384 419.260, 1121 418.300, 1121 417.565 C 1121 416.831, 1123.813 413.893, 1127.250 411.037 L 1133.500 405.844 1141.355 406.454 L 1149.210 407.064 1144.409 401.282 C 1136.164 391.350, 1131.657 386.932, 1127 384.216 C 1124.525 382.772, 1119.575 379.257, 1116 376.404 C 1105.593 368.099, 1103.032 366.982, 1094.720 367.121 C 1090.185 367.198, 1084.339 368.192, 1079 369.794" stroke="#5ca7a9" fill="#5ca7a9" fill-opacity="0.2" fill-rule="evenodd"/><path class="svg-region-PCl" d="M 746.500 399.798 C 742.625 402.245, 735.632 409.876, 733.517 413.968 C 732.573 415.792, 731.189 423.029, 730.292 430.832 C 728.015 450.624, 729.969 469.060, 736.690 491.199 L 739.330 499.897 744.665 500.564 C 748.941 501.098, 750.545 500.867, 752.750 499.401 C 756.609 496.833, 765.762 492.547, 770.504 491.087 C 781.086 487.828, 785.455 484.218, 786.652 477.746 C 786.982 475.961, 788.080 471.973, 789.091 468.884 C 790.103 465.796, 791.234 459.629, 791.605 455.180 C 792.230 447.695, 792.079 446.681, 789.582 441.579 C 788.099 438.546, 784.951 434.075, 782.588 431.644 C 779.373 428.336, 778.117 426.125, 777.601 422.861 C 777.218 420.444, 775.673 416.940, 774.134 415 C 772.607 413.075, 770.063 409.106, 768.482 406.180 C 766.900 403.253, 764.907 400.487, 764.053 400.033 C 763.199 399.578, 759.575 398.913, 756 398.555 C 750.597 398.014, 748.994 398.224, 746.500 399.798" stroke="#465ee0" fill="#465ee0" fill-opacity="0.2" fill-rule="evenodd"/><path class="svg-region-PCr" d="M 1129.278 409.368 C 1127.067 411.365, 1124.787 413, 1124.213 413 C 1123.638 413, 1122.570 414.350, 1121.840 416 C 1121.109 417.650, 1120.217 419, 1119.857 419 C 1119.497 419, 1118.281 420.767, 1117.155 422.927 C 1116.030 425.086, 1114.667 427.674, 1114.127 428.677 C 1113.588 429.679, 1111.820 433.425, 1110.199 437 C 1108.579 440.575, 1105.860 445.075, 1104.157 447 C 1099.629 452.120, 1099.660 452.077, 1096.712 457.376 C 1094.696 461.001, 1094 463.643, 1094 467.671 C 1094 473.329, 1093.803 473.004, 1101.364 479.820 C 1102.389 480.744, 1103.646 482.625, 1104.157 484 C 1104.667 485.375, 1107.196 487.785, 1109.775 489.356 C 1114.142 492.016, 1114.937 492.166, 1121.322 491.537 C 1128.129 490.866, 1138 492.436, 1138 494.189 C 1138 494.635, 1138.498 495, 1139.107 495 C 1139.716 495, 1143.073 496.365, 1146.568 498.033 C 1151.667 500.466, 1153.276 500.842, 1154.711 499.934 C 1157.251 498.328, 1162.218 487.497, 1163.395 481 C 1164.879 472.808, 1164.698 447.954, 1163.068 436 C 1161.752 426.351, 1161.286 424.988, 1157.318 419.187 C 1154.943 415.715, 1153 412.483, 1153 412.005 C 1153 409.649, 1146.713 406.860, 1140.165 406.311 C 1133.352 405.739, 1133.268 405.763, 1129.278 409.368" stroke="#465ee0" fill="#465ee0" fill-opacity="0.2" fill-rule="evenodd"/><path class="svg-region-DV" d="M 995.559 392.532 C 994.454 393.367, 991.437 394.006, 988.559 394.015 C 985.776 394.023, 982.375 394.671, 981 395.455 C 974.628 399.087, 970.827 400.226, 962 401.146 C 947.308 402.678, 929.745 402.732, 928.179 401.250 C 927.452 400.563, 925.202 399.995, 923.179 399.989 C 921.155 399.983, 917.291 399.308, 914.591 398.489 C 911.891 397.670, 907.597 397, 905.048 397 L 900.415 397 899.232 401.422 C 898.415 404.475, 896.670 407.136, 893.591 410.022 C 891.139 412.321, 888.416 415.712, 887.539 417.558 C 886.663 419.404, 885.500 421.191, 884.954 421.528 C 884.149 422.026, 879.735 429.689, 878.131 433.374 C 877.922 433.855, 879.269 434.004, 881.125 433.706 C 882.981 433.408, 887.425 432.716, 891 432.169 C 894.575 431.621, 900.320 430.431, 903.767 429.525 C 907.213 428.618, 911.453 428.016, 913.188 428.188 C 916.021 428.468, 916.453 428.959, 917.421 432.992 C 918.481 437.406, 918.588 437.499, 923.500 438.284 C 926.250 438.723, 932.186 438.838, 936.690 438.540 C 941.682 438.209, 945.122 438.388, 945.499 438.999 C 946.547 440.693, 952.769 440.157, 954.193 438.250 C 956.171 435.602, 971.664 429.118, 976.191 429.044 C 977.671 429.020, 979.160 428.550, 979.500 428 C 980.337 426.645, 992.013 426.733, 997.807 428.138 C 1000.388 428.764, 1003.400 430.061, 1004.500 431.021 C 1006.903 433.118, 1013.026 436.307, 1013.582 435.751 C 1014.053 435.280, 1005.147 424.649, 1003.877 424.167 C 1003.395 423.983, 1002.998 423.308, 1002.995 422.667 C 1002.993 422.025, 1001.637 418.019, 999.981 413.764 C 996.779 405.532, 996.691 400.649, 999.639 394.800 C 1000.388 393.314, 1001 391.852, 1001 391.550 C 1001 390.457, 997.456 391.097, 995.559 392.532" stroke="#45567a" fill="#45567a" fill-opacity="0.2" fill-rule="evenodd"/><path class="svg-region-VV" d="M 944.532 544.731 C 943.450 545.006, 941.157 546.304, 939.438 547.615 C 937.718 548.927, 935.486 550, 934.477 550 C 933.468 550, 931.260 550.411, 929.571 550.913 C 927.882 551.415, 924.250 552.338, 921.500 552.963 C 917.762 553.813, 915.582 555.098, 912.866 558.050 C 910.867 560.223, 908.735 562, 908.129 562 C 905.162 562, 902.444 576.920, 905.110 578.568 C 905.724 578.947, 906.007 580.651, 905.744 582.377 C 905.181 586.070, 905.723 587.995, 907.333 588.014 C 907.975 588.021, 911.404 590.496, 914.954 593.514 C 918.503 596.531, 921.958 599, 922.632 599 C 923.306 599, 924.452 599.563, 925.179 600.252 C 925.905 600.940, 928.300 602.753, 930.500 604.280 C 932.700 605.807, 936.029 608.169, 937.898 609.528 C 939.767 610.888, 942.193 612, 943.290 612 C 944.387 612, 947.758 609.862, 950.781 607.250 C 953.804 604.638, 958.578 600.747, 961.389 598.604 C 964.200 596.461, 966.860 594.099, 967.300 593.354 C 967.740 592.609, 968.640 592, 969.300 591.999 C 969.960 591.999, 972.205 590.536, 974.290 588.749 C 981.550 582.525, 983.829 581, 985.872 581 C 988.758 581, 993.004 574.444, 992.985 570.018 C 992.965 565.485, 992.302 564.559, 987.710 562.647 C 984.628 561.363, 983.463 560.035, 981.473 555.534 C 979.352 550.738, 978.655 550, 976.248 550 C 974.721 550, 971.003 549.061, 967.986 547.914 C 958.161 544.177, 950.705 543.165, 944.532 544.731" stroke="#7699d1" fill="#7699d1" fill-opacity="0.2" fill-rule="evenodd"/><path class="svg-region-Ol" d="M 502 511.962 C 491.749 513.666, 480.627 517.177, 479.451 519.080 C 479.128 519.603, 477.432 520.647, 475.682 521.401 C 471.889 523.035, 464 530.499, 464 532.454 C 464 533.213, 463.663 533.983, 463.250 534.167 C 461.964 534.738, 457.884 544.105, 454.830 553.500 C 452.203 561.579, 451.945 563.523, 452.310 572.500 C 453.057 590.833, 457.243 604.230, 464.588 611.793 C 466.464 613.726, 468.012 615.800, 468.027 616.403 C 468.079 618.520, 473.554 624.022, 479 627.431 C 485.918 631.761, 498.587 638, 500.463 638 C 501.243 638, 502.160 638.450, 502.500 639 C 502.840 639.550, 504.111 640, 505.324 640 C 506.537 640, 509.209 640.900, 511.261 642 C 513.314 643.100, 516.232 644.005, 517.746 644.012 C 519.261 644.018, 522.787 644.633, 525.583 645.377 C 530.726 646.747, 539.808 647.459, 547.952 647.131 C 555.033 646.846, 573.015 643.340, 579.127 641.054 C 591.935 636.262, 601.041 625.220, 603.912 611 C 605.689 602.199, 606.779 584.197, 605.839 579.168 C 605.365 576.629, 604.768 572.740, 604.512 570.526 C 603.758 563.987, 602.288 558.975, 600.565 557.072 C 599.678 556.091, 599.218 554.595, 599.544 553.746 C 599.870 552.897, 599.656 551.905, 599.068 551.542 C 598.481 551.179, 597.996 550.121, 597.990 549.191 C 597.959 543.712, 587.912 528.821, 582.338 525.991 C 580.777 525.199, 578.241 523.537, 576.702 522.299 C 575.163 521.061, 572.238 519.325, 570.202 518.440 C 568.166 517.556, 565.620 516.358, 564.545 515.780 C 563.470 515.201, 559.870 514.100, 556.545 513.332 C 553.220 512.565, 548.700 511.521, 546.500 511.012 C 539.860 509.477, 513.575 510.038, 502 511.962" stroke="#aa444d" fill="#aa444d" fill-opacity="0.2" fill-rule="evenodd"/>
    </svg>