<svg xmlns="http://www.w3.org/2000/svg" width="1921" height="1027" viewBox="0 0 1921 1027" version="1.1">
    <path class="svg-region-PMl" d="M 792 490.851 C 779.115 497.070, 769.179 506.293, 770.612 510.707 C 771.596 513.740, 776.201 522.394, 777.896 524.395 C 779.419 526.196, 779.360 526.265, 776.726 525.780 C 773.050 525.102, 772.596 526.147, 774.009 532.036 C 775.661 538.924, 778.297 542, 782.547 542 C 785.280 542, 786.240 541.437, 787.431 539.134 L 788.913 536.267 811.707 536.429 C 833.695 536.585, 834.655 536.510, 838.899 534.295 C 841.318 533.033, 844.116 532, 845.115 532 C 848.619 532, 853.527 528.819, 856.410 524.679 C 858.011 522.380, 861.098 518.143, 863.272 515.263 C 867.802 509.258, 867.668 507.003, 862.781 506.995 C 860.977 506.992, 854.325 505.857, 848 504.473 C 841.675 503.089, 833.858 501.498, 830.629 500.937 C 824.716 499.910, 817.702 496.946, 816.471 494.953 C 815.508 493.395, 811.585 492.078, 803.030 490.441 C 798.888 489.649, 795.500 489.037, 795.500 489.081 C 795.500 489.126, 793.925 489.922, 792 490.851" stroke="#90cf92" fill="#90cf92" fill-opacity="0.2" fill-rule="evenodd"/><path class="svg-region-PMr" d="M 1104.991 492.967 C 1105.459 494.600, 1106.134 496.408, 1106.491 496.986 C 1107.131 498.021, 1096.699 509, 1095.076 509 C 1094.618 509, 1091.694 510.535, 1088.579 512.410 C 1085.464 514.286, 1080.572 516.367, 1077.708 517.034 C 1069.949 518.842, 1065 524.258, 1065 530.938 C 1065 533.370, 1065.747 534.436, 1068.750 536.287 C 1074.605 539.896, 1084.112 543.834, 1088.765 544.578 C 1091.094 544.951, 1093 545.589, 1093 545.997 C 1093 546.405, 1094.463 547.016, 1096.250 547.356 C 1098.037 547.696, 1101.961 548.655, 1104.968 549.487 C 1107.975 550.319, 1113.157 551, 1116.483 551 C 1123.475 551, 1133.643 555.281, 1136.307 559.346 C 1138.646 562.916, 1141.558 563.243, 1145.026 560.324 C 1147.613 558.148, 1148.001 557.151, 1148.011 552.661 C 1148.026 545.489, 1151.843 533.520, 1154.688 531.723 C 1155.365 531.296, 1157.963 527.021, 1160.462 522.223 L 1165.005 513.500 1161.752 510.777 C 1159.964 509.279, 1158.016 508.042, 1157.424 508.027 C 1156.833 508.012, 1155.326 506.911, 1154.076 505.580 C 1152.825 504.250, 1150.583 502.656, 1149.092 502.038 C 1147.601 501.420, 1145.611 499.612, 1144.670 498.018 C 1142.671 494.635, 1139.513 493.330, 1137.456 495.037 C 1136.462 495.861, 1133.101 496.095, 1126.754 495.781 C 1119.547 495.424, 1116.201 494.734, 1111.626 492.661 C 1108.395 491.198, 1105.389 490, 1104.945 490 C 1104.502 490, 1104.523 491.335, 1104.991 492.967" stroke="#90cf92" fill="#90cf92" fill-opacity="0.2" fill-rule="evenodd"/><path class="svg-region-PV" d="M 877.836 436.255 C 876.370 437.490, 874.480 439.897, 873.635 441.604 C 871.515 445.889, 862.058 454.317, 856.286 457.066 C 853.654 458.319, 848.175 461.517, 844.111 464.172 C 840.048 466.828, 836.110 469, 835.361 469 C 833.160 469, 833.803 470.714, 836.250 471.370 C 837.487 471.701, 844.436 471.979, 851.691 471.986 C 865.638 472.001, 867.142 472.497, 865.058 476.393 C 862.937 480.354, 859.999 481.335, 849 481.751 C 839.693 482.103, 837.656 481.856, 831.075 479.574 C 826.991 478.158, 822.716 476.998, 821.575 476.995 C 816.220 476.982, 799.575 484.057, 797.990 487.019 C 796.761 489.315, 797.242 489.622, 803.500 490.534 C 809.237 491.369, 816 493.819, 816 495.062 C 816 496.372, 824.453 499.798, 830.398 500.896 C 833.343 501.441, 840.870 503.018, 847.126 504.402 C 853.382 505.785, 860.296 507.048, 862.492 507.209 C 867.418 507.568, 867.982 509.404, 864.421 513.500 C 862.987 515.150, 859.996 519.257, 857.775 522.628 C 853.890 528.522, 849.255 532, 845.282 532 C 842.917 532, 835 535.990, 835 537.181 C 835 537.733, 835.900 539.329, 837 540.727 C 838.100 542.126, 839 544.273, 839 545.498 C 839 546.724, 840.146 548.873, 841.546 550.274 C 843.948 552.675, 845.495 553.160, 861 556.364 C 870.419 558.310, 874.568 559.690, 882.736 563.590 C 887.815 566.015, 892.428 568, 892.986 568 C 893.544 568, 894 566.937, 894 565.637 C 894 564.104, 895.669 561.721, 898.750 558.857 C 906.836 551.337, 910.372 549.023, 912.802 549.659 C 914.059 549.987, 917.152 549.321, 919.945 548.119 C 922.654 546.954, 926.243 546, 927.921 546 C 929.599 546, 932.967 545.466, 935.406 544.814 C 939.003 543.852, 940.660 543.899, 944.171 545.064 C 950.858 547.282, 958.356 546.953, 961.169 544.317 C 964.909 540.813, 967.831 540.191, 975.933 541.175 C 981.517 541.853, 984.750 542.906, 988.933 545.409 C 994.118 548.511, 995.290 548.783, 1006 549.360 C 1017.364 549.973, 1017.537 550.019, 1020.586 553.250 C 1022.284 555.048, 1024.196 557.498, 1024.836 558.694 C 1026.263 561.360, 1026.358 565, 1025 565 C 1024.450 565, 1024 565.675, 1024 566.500 C 1024 568.333, 1023.517 568.343, 1031.169 566.356 C 1046.978 562.251, 1060.473 560.123, 1074.500 559.525 C 1089.557 558.883, 1090.191 558.684, 1089.809 554.717 C 1089.565 552.176, 1089.972 551.294, 1091.750 550.513 C 1093.069 549.935, 1094 548.645, 1094 547.399 C 1094 545.658, 1093.229 545.163, 1089.750 544.670 C 1085.685 544.095, 1076.147 540.382, 1069.264 536.696 C 1063.782 533.760, 1063.663 527.731, 1068.969 521.688 C 1071.208 519.138, 1073.294 518.029, 1077.701 517.042 C 1080.887 516.330, 1085.866 514.228, 1088.766 512.373 C 1091.666 510.518, 1094.460 509, 1094.975 509 C 1095.489 509, 1098.376 506.593, 1101.389 503.651 L 1106.868 498.302 1105.532 494.401 C 1104.242 490.636, 1104.022 490.490, 1099.209 490.202 C 1095.812 489.998, 1093.659 489.281, 1092.456 487.952 C 1090.270 485.536, 1088.356 485.543, 1079.500 488 C 1075.650 489.068, 1071.347 489.955, 1069.939 489.971 C 1067.570 489.998, 1063 486.859, 1063 485.206 C 1063 484.400, 1068.707 482.263, 1074 481.085 C 1076.767 480.470, 1077.132 480.147, 1075.745 479.544 C 1074.779 479.125, 1071.225 475.569, 1067.846 471.641 C 1057.281 459.359, 1048.716 449.804, 1042.729 443.620 C 1037.545 438.267, 1036.373 437.556, 1031.229 436.645 C 1028.078 436.088, 1020.775 435.713, 1015 435.812 C 1009.225 435.911, 1001.350 435.901, 997.500 435.788 C 993.650 435.675, 984.875 435.635, 978 435.698 C 971.125 435.762, 961.450 435.845, 956.500 435.884 C 951.550 435.924, 944.575 435.986, 941 436.024 C 902.827 436.424, 893.330 436.674, 892.313 437.304 C 891.660 437.709, 888.735 437.131, 885.813 436.020 C 882.891 434.910, 880.500 434.003, 880.500 434.005 C 880.500 434.008, 879.301 435.020, 877.836 436.255" stroke="#b09658" fill="#b09658" fill-opacity="0.2" fill-rule="evenodd"/><path class="svg-region-Fl" d="M 789.317 360.860 C 782.579 363.737, 776.059 369.040, 775.899 371.774 C 775.843 372.723, 775.877 374.962, 775.975 376.750 C 776.073 378.538, 775.669 380, 775.077 380 C 774.484 380, 774 381.302, 774 382.893 C 774 386.682, 771.380 387.705, 768.530 385.028 C 765.274 381.969, 764.204 382.494, 761.457 388.500 C 760.073 391.525, 758.505 394, 757.971 394 C 757.437 394, 757 395.125, 757 396.500 C 757 397.875, 757.419 399, 757.930 399 C 758.442 399, 759.005 400.012, 759.180 401.250 C 759.428 402.991, 760.258 403.573, 762.850 403.821 C 764.693 403.997, 768.342 405.460, 770.961 407.071 C 773.579 408.682, 776.571 410.018, 777.611 410.041 C 778.650 410.063, 782.425 411.111, 786 412.370 C 791.199 414.201, 793.100 415.482, 795.500 418.772 C 797.150 421.035, 799.321 423.178, 800.325 423.534 C 802.291 424.233, 805.328 430.449, 806.433 436.040 C 807.344 440.652, 809.053 444.113, 811.493 446.291 C 817.265 451.440, 819.613 453.266, 822.165 454.585 C 823.775 455.418, 825.251 457.201, 825.629 458.768 C 825.991 460.271, 826.907 462.175, 827.665 463 C 828.423 463.825, 829.962 465.732, 831.084 467.237 C 833.086 469.923, 833.194 469.946, 836.759 468.456 C 838.757 467.621, 841.767 465.901, 843.446 464.634 C 845.126 463.367, 849.821 460.595, 853.879 458.474 C 861.827 454.319, 871.215 446.418, 873.536 441.930 C 874.326 440.402, 878.399 435.630, 882.586 431.326 C 886.773 427.022, 891.012 421.925, 892.006 420 C 892.999 418.075, 896.261 414.396, 899.255 411.823 C 904.461 407.349, 905.273 406.039, 907.860 397.929 C 909.409 393.076, 909.265 390.893, 907.228 388.311 C 905.460 386.071, 896.362 382, 893.124 382 C 891.114 382, 872.130 372.941, 868.047 370.033 C 866.606 369.007, 861.618 366.994, 856.963 365.558 C 852.309 364.123, 846.284 362.212, 843.575 361.311 C 837.955 359.442, 821.228 359, 806.116 360.320 C 797.793 361.047, 796.800 360.962, 797.335 359.570 C 798.140 357.472, 796.719 357.700, 789.317 360.860" stroke="#5ca7a9" fill="#5ca7a9" fill-opacity="0.2" fill-rule="evenodd"/><path class="svg-region-Fr" d="M 1080.500 370.135 C 1078.300 370.632, 1071.775 371.712, 1066 372.533 C 1060.225 373.355, 1053.475 374.681, 1051 375.481 C 1048.525 376.280, 1044.700 377.365, 1042.500 377.890 C 1040.300 378.416, 1034.675 380.255, 1030 381.978 C 1025.325 383.700, 1019.432 385.864, 1016.905 386.788 C 1011.621 388.719, 1011.475 389.321, 1013.259 401.807 L 1014.302 409.114 1021.081 415.307 C 1028.585 422.163, 1032.806 427.778, 1033.658 432.039 C 1033.977 433.637, 1037.081 437.827, 1040.860 441.762 C 1048.356 449.568, 1058.741 461.068, 1067.843 471.641 C 1074.573 479.460, 1075.433 480.012, 1080.832 479.976 C 1084.051 479.954, 1086.809 479.493, 1095.618 477.506 C 1097.279 477.131, 1097.844 476.075, 1098.234 472.614 C 1098.508 470.186, 1100.592 464.357, 1102.866 459.659 C 1105.140 454.962, 1107 450.620, 1107 450.011 C 1107 448.209, 1113.380 438.779, 1117.155 435 C 1119.079 433.075, 1122.559 429.925, 1124.890 428 C 1127.221 426.075, 1130.160 423.492, 1131.420 422.259 C 1132.681 421.026, 1135.303 419.354, 1137.247 418.541 C 1139.190 417.729, 1142.231 415.233, 1144.004 412.995 C 1145.777 410.756, 1149 408.020, 1151.166 406.915 C 1154.464 405.233, 1154.994 404.547, 1154.426 402.703 C 1152.998 398.073, 1150.797 394.863, 1147.214 392.184 C 1143.606 389.488, 1135.608 382.432, 1129.618 376.663 C 1125.511 372.707, 1123.075 372, 1113.561 372 C 1108.731 372, 1103.471 371.372, 1101 370.500 C 1096.377 368.869, 1086.847 368.699, 1080.500 370.135" stroke="#5ca7a9" fill="#5ca7a9" fill-opacity="0.2" fill-rule="evenodd"/><path class="svg-region-PCl" d="M 752.029 407.559 C 749.696 412.514, 748 417.608, 748 419.655 C 748 421.601, 747.295 425.617, 746.433 428.582 C 744.554 435.046, 744.922 448.900, 747.333 462.500 C 748.211 467.450, 748.945 472.967, 748.965 474.761 C 748.984 476.554, 749.857 479.929, 750.905 482.261 C 751.953 484.592, 753.079 487.708, 753.407 489.184 C 754.206 492.771, 759.185 496.154, 764.559 496.760 C 767.726 497.117, 769.365 497.909, 770.491 499.626 C 771.346 500.932, 772.472 502, 772.992 502 C 773.512 502, 777.214 499.870, 781.219 497.267 C 785.223 494.663, 790.602 491.551, 793.170 490.349 C 797.729 488.218, 800.654 484.867, 799.535 483.056 C 799.228 482.560, 797.612 481.854, 795.944 481.488 C 791.623 480.539, 789 477.322, 789 472.972 C 789 468.539, 791.091 467.323, 800.898 466.053 C 804.529 465.583, 808.767 464.704, 810.315 464.099 C 811.863 463.495, 816.026 463, 819.565 463 C 825.762 463, 826 462.908, 826 460.500 C 826 458.066, 822.924 454, 821.083 454 C 820.578 454, 817.474 451.413, 814.185 448.250 C 809.641 443.881, 807.926 441.420, 807.042 438 C 804.897 429.703, 802.667 424.806, 800.576 423.797 C 799.434 423.246, 797.150 420.965, 795.500 418.727 C 793.120 415.499, 791.157 414.186, 786 412.370 C 782.425 411.111, 778.514 410.063, 777.309 410.041 C 776.104 410.018, 774.836 409.543, 774.491 408.985 C 773.563 407.484, 767.010 404.665, 763 404.043 C 760.337 403.630, 759.424 402.962, 759.180 401.250 C 758.556 396.851, 756.013 399.094, 752.029 407.559" stroke="#465ee0" fill="#465ee0" fill-opacity="0.2" fill-rule="evenodd"/><path class="svg-region-PCr" d="M 1150.198 407.343 C 1147.281 409.079, 1144.033 411.951, 1142.978 413.724 C 1141.905 415.528, 1139.437 417.626, 1137.372 418.489 C 1135.343 419.337, 1132.741 420.940, 1131.591 422.050 C 1125.918 427.530, 1120.574 432, 1119.697 432 C 1118.537 432, 1117.432 433.365, 1111.493 442.134 C 1109.022 445.783, 1107 449.298, 1107 449.944 C 1107 450.590, 1105.156 454.929, 1102.901 459.586 C 1100.647 464.244, 1098.571 469.782, 1098.287 471.894 L 1097.772 475.733 1107.353 475.232 C 1115.556 474.803, 1117.775 475.046, 1122.797 476.924 C 1126.023 478.130, 1130.874 479.434, 1133.577 479.821 C 1137.909 480.440, 1138.695 480.938, 1140.198 484.012 C 1142.354 488.421, 1142.489 492, 1140.500 492 C 1138.311 492, 1138.666 493.759, 1141.004 494.501 C 1142.106 494.851, 1143.575 496.220, 1144.269 497.544 C 1144.962 498.867, 1147.661 501.301, 1150.265 502.953 C 1152.869 504.605, 1155 506.416, 1155 506.978 C 1155 507.540, 1155.693 508, 1156.540 508 C 1157.388 508, 1159.325 508.920, 1160.845 510.044 C 1162.507 511.273, 1164.296 511.824, 1165.331 511.426 C 1167.931 510.429, 1171.465 501.723, 1174.027 490 C 1175.976 481.084, 1176.315 476.708, 1176.270 461 L 1176.218 442.500 1172.078 432 C 1169.801 426.225, 1167.052 420.281, 1165.969 418.790 C 1164.886 417.300, 1164 414.908, 1164 413.474 C 1164 410.285, 1159.373 403.965, 1157.131 404.093 C 1156.234 404.143, 1153.114 405.606, 1150.198 407.343" stroke="#465ee0" fill="#465ee0" fill-opacity="0.2" fill-rule="evenodd"/><path class="svg-region-DV" d="M 909.310 390.523 C 909.657 392.659, 909.330 395.118, 908.480 396.772 C 907.710 398.273, 906.802 400.841, 906.463 402.479 C 906.067 404.395, 903.376 407.819, 898.923 412.073 C 895.116 415.711, 892 419.179, 892 419.780 C 892 420.381, 889.549 423.683, 886.553 427.118 C 883.557 430.553, 881.308 433.689, 881.554 434.088 C 882.354 435.381, 891.216 437.984, 892.375 437.266 C 893.338 436.668, 902.971 436.422, 941 436.024 C 948.175 435.949, 959.050 435.860, 978 435.723 C 984.875 435.673, 993.875 435.701, 998 435.786 C 1002.125 435.870, 1010 435.887, 1015.500 435.823 C 1021 435.760, 1027.828 436.052, 1030.674 436.474 L 1035.849 437.240 1034.386 432.994 C 1032.325 427.014, 1027.964 421.026, 1022.330 416.444 C 1019.673 414.283, 1016.758 411.619, 1015.851 410.524 C 1014.173 408.496, 1011.863 396.537, 1012.274 392 C 1012.473 389.796, 1012.068 389.464, 1008.853 389.196 C 1006.848 389.028, 1002.508 389.591, 999.209 390.446 C 995.910 391.301, 989.226 392.011, 984.356 392.024 C 979.485 392.038, 973.545 392.500, 971.156 393.051 C 967.697 393.848, 966.168 393.730, 963.656 392.472 C 961.565 391.426, 958.137 390.941, 953.500 391.037 C 946.172 391.189, 922.586 389.519, 920 388.665 C 919.175 388.393, 916.304 387.907, 913.619 387.586 L 908.739 387.002 909.310 390.523" stroke="#45567a" fill="#45567a" fill-opacity="0.2" fill-rule="evenodd"/><path class="svg-region-VV" d="M 966.001 541.148 C 964.626 541.683, 962.452 543.106, 961.170 544.310 C 958.357 546.953, 950.867 547.285, 944.171 545.064 C 940.660 543.899, 939.003 543.852, 935.406 544.814 C 932.967 545.466, 929.599 546, 927.921 546 C 926.243 546, 922.660 546.951, 919.957 548.114 C 916.907 549.426, 914.101 549.991, 912.559 549.604 C 910.519 549.092, 908.769 550.094, 902.787 555.198 C 894.044 562.658, 894.035 562.671, 894.015 566.677 C 894.002 569.475, 894.665 570.249, 899.580 573.177 C 902.649 575.004, 906.362 577.116, 907.830 577.868 C 910.546 579.259, 918.145 584.078, 925.656 589.171 C 927.942 590.721, 934.394 594.062, 939.995 596.595 C 949.063 600.696, 950.690 601.127, 954.839 600.532 C 965.788 598.962, 970.956 596.738, 984.261 587.869 C 993.148 581.945, 999.265 578.813, 1013.280 573.010 C 1026.514 567.530, 1029.049 561.355, 1021.206 553.705 C 1017.509 550.099, 1017.471 550.089, 1005.500 549.211 C 994.550 548.409, 993.075 548.060, 988.647 545.225 C 985.333 543.103, 982.005 541.924, 978.147 541.507 C 975.041 541.170, 971.600 540.733, 970.500 540.535 C 969.400 540.338, 967.375 540.613, 966.001 541.148" stroke="#7699d1" fill="#7699d1" fill-opacity="0.2" fill-rule="evenodd"/><path class="svg-region-PNl" d="M 810 464.159 C 808.625 464.727, 804.168 465.620, 800.096 466.143 C 790.260 467.407, 789 468.168, 789 472.847 C 789 476.663, 791.807 480.994, 794.289 481.006 C 794.955 481.010, 796.823 481.702, 798.439 482.545 C 801.138 483.952, 801.710 483.921, 805.439 482.157 C 810.582 479.724, 819.178 477, 821.709 477 C 822.776 477, 826.991 478.158, 831.075 479.574 C 837.656 481.856, 839.693 482.103, 849 481.751 C 859.999 481.335, 862.937 480.354, 865.058 476.393 C 867.148 472.486, 865.647 472, 851.506 472 C 844.149 472, 836.965 471.557, 835.540 471.015 C 834.116 470.474, 832.017 468.449, 830.877 466.515 L 828.802 463 820.651 463.063 C 816.168 463.098, 811.375 463.591, 810 464.159" stroke="#bbc0d1" fill="#bbc0d1" fill-opacity="0.2" fill-rule="evenodd"/><path class="svg-region-PNr" d="M 1098.980 476.439 C 1097.043 477.152, 1092.318 478.239, 1088.480 478.855 C 1069.007 481.974, 1063 483.572, 1063 485.630 C 1063 486.257, 1064.174 487.539, 1065.609 488.480 C 1068.544 490.402, 1072.149 490.208, 1081.299 487.632 C 1088.670 485.557, 1089.636 485.583, 1092.144 487.919 C 1093.556 489.235, 1096.135 489.978, 1100.352 490.283 C 1103.733 490.527, 1109.650 491.894, 1113.500 493.321 C 1122.820 496.775, 1136.269 497.144, 1138.232 494 C 1138.919 492.900, 1140.107 492, 1140.871 492 C 1141.910 492, 1142.113 491.087, 1141.677 488.394 C 1140.797 482.973, 1138.458 480, 1135.073 480 C 1133.488 480, 1128.886 478.878, 1124.846 477.507 C 1116.546 474.690, 1105.015 474.214, 1098.980 476.439" stroke="#bbc0d1" fill="#bbc0d1" fill-opacity="0.2" fill-rule="evenodd"/>
    </svg>