<svg xmlns="http://www.w3.org/2000/svg" width="1921" height="1027" viewBox="0 0 1921 1027" version="1.1">
    <path class="svg-region-PMl" d="M 769.033 515.715 C 769.051 516.697, 769.936 519.975, 771 523 C 774.743 533.642, 773.266 537.319, 763.203 542.404 C 757.676 545.197, 755.969 547.369, 757.835 549.235 C 758.636 550.036, 760.647 549.818, 765.218 548.432 C 771.215 546.614, 780.346 546.146, 789.014 547.212 C 793.488 547.763, 797.698 550.515, 799.554 554.104 C 801.164 557.218, 804.518 558.234, 812 557.876 C 814.475 557.757, 819.028 558.017, 822.117 558.452 C 831.241 559.739, 843.839 557.465, 853.002 552.879 C 857.265 550.745, 861.197 549, 861.741 549 C 862.285 549, 863.901 548.079, 865.332 546.954 C 870.782 542.667, 897.139 530, 900.610 530 C 902.495 530, 907.258 528.875, 911.193 527.500 C 917.313 525.362, 920.112 525, 930.525 525 C 937.222 525, 944.006 525.415, 945.601 525.922 C 947.195 526.429, 950.638 527.049, 953.250 527.299 L 958 527.754 958 521.896 C 958 516.649, 957.765 515.981, 955.750 515.494 C 951.017 514.349, 897.268 514.558, 870.500 515.826 C 848.195 516.882, 839.754 516.906, 829 515.945 C 821.575 515.281, 805.038 514.556, 792.250 514.334 C 770.439 513.955, 769.002 514.040, 769.033 515.715" stroke="#90cf92" fill="#90cf92" fill-opacity="0.2" fill-rule="evenodd"/><path class="svg-region-PMr" d="M 1088.007 510.604 C 1084.986 511.459, 1081.896 512.671, 1081.141 513.298 C 1077.982 515.920, 1072.245 517.366, 1065.750 517.178 C 1053.090 516.811, 1042.511 516.916, 1029.154 517.539 C 1019.162 518.006, 1013.475 517.765, 1006.530 516.581 C 996.523 514.876, 986.938 514.638, 969.250 515.657 L 958 516.306 958 521.998 L 958 527.689 973.704 528.367 C 992.862 529.193, 1009.144 531.578, 1014.500 534.342 C 1018.441 536.377, 1021.484 536.935, 1039.719 538.965 C 1045.680 539.629, 1050.097 540.698, 1052.219 541.992 C 1054.147 543.168, 1057.265 543.994, 1059.781 543.996 C 1062.807 543.999, 1064.246 544.476, 1064.686 545.623 C 1065.270 547.145, 1074.756 552, 1077.146 552 C 1077.746 552, 1079.724 553.307, 1081.543 554.904 C 1084.437 557.445, 1085.924 557.897, 1093.430 558.523 C 1099.763 559.050, 1102.408 558.906, 1103.532 557.973 C 1105.232 556.562, 1119.648 557.084, 1128.500 558.876 C 1137.392 560.676, 1142.450 561.815, 1144.825 562.552 L 1147.150 563.272 1145.075 559.401 C 1143.934 557.272, 1143 554.986, 1143 554.321 C 1143 553.657, 1141.711 552.352, 1140.136 551.421 C 1138.560 550.490, 1136.538 548.488, 1135.642 546.971 C 1134.173 544.484, 1134.160 543.799, 1135.507 539.981 C 1138.125 532.559, 1137.567 529.970, 1132.250 524.865 C 1129.638 522.357, 1125.700 519.248, 1123.500 517.955 C 1121.300 516.663, 1119.275 515.308, 1119 514.945 C 1118.725 514.581, 1116.255 513.298, 1113.510 512.092 C 1106.892 509.185, 1095.392 508.514, 1088.007 510.604" stroke="#90cf92" fill="#90cf92" fill-opacity="0.2" fill-rule="evenodd"/><path class="svg-region-PV" d="M 864 461 C 864 461.550, 864.450 462, 865 462 C 865.550 462, 866 461.550, 866 461 C 866 460.450, 865.550 460, 865 460 C 864.450 460, 864 460.450, 864 461 M 866.290 465 C 866.002 466.100, 865.418 467, 864.992 467 C 864.566 467, 863.942 468.096, 863.606 469.435 C 863.269 470.775, 860.859 473.587, 858.249 475.685 C 855.638 477.783, 852.907 480.063, 852.180 480.750 C 851.452 481.438, 850.214 482, 849.429 482 C 848.643 482, 848 482.388, 848 482.863 C 848 483.338, 845.413 484.507, 842.250 485.462 C 839.087 486.417, 835.307 488.034, 833.850 489.055 C 830.547 491.370, 820.373 495, 817.189 495 C 815.881 495, 812.490 496.244, 809.655 497.764 C 806.820 499.284, 801.895 501.388, 798.711 502.440 C 793.600 504.128, 792.195 504.211, 786.711 503.152 C 783.295 502.493, 776.545 501.568, 771.712 501.097 C 765.613 500.503, 762.321 499.696, 760.956 498.460 C 758.521 496.256, 757.092 497.333, 759.253 499.744 C 760.118 500.710, 761.770 504.200, 762.924 507.500 C 764.078 510.800, 765.467 513.650, 766.011 513.833 C 766.555 514.017, 767 514.759, 767 515.484 C 767 516.209, 768.121 519.209, 769.490 522.151 C 772.172 527.911, 772.975 527.270, 770.500 521.346 C 767.230 513.520, 766.117 513.879, 792.250 514.334 C 805.038 514.556, 821.575 515.281, 829 515.944 C 839.749 516.904, 848.206 516.880, 870.500 515.825 C 885.900 515.096, 906.600 514.544, 916.500 514.598 C 991.384 515.006, 996.761 515.128, 1006.294 516.640 C 1013.618 517.802, 1019.546 518.027, 1029.794 517.533 C 1047.200 516.693, 1056.998 516.690, 1064.228 517.523 C 1070.025 518.191, 1077.402 516.389, 1081 513.426 C 1084.065 510.902, 1095.982 508.722, 1102.861 509.427 C 1106.465 509.796, 1109.883 510.471, 1110.457 510.927 C 1111.030 511.382, 1112.600 512.093, 1113.944 512.506 C 1115.287 512.920, 1118.545 514.775, 1121.183 516.629 C 1123.821 518.483, 1126.255 520, 1126.591 520 C 1128.069 520, 1136.928 529.495, 1137.200 531.370 C 1137.463 533.190, 1138.135 532.832, 1142.644 528.473 C 1145.474 525.738, 1149.483 520.800, 1151.555 517.500 C 1153.626 514.200, 1155.865 511.173, 1156.529 510.774 C 1157.194 510.374, 1158.321 508.574, 1159.034 506.774 C 1159.746 504.973, 1160.961 502.756, 1161.733 501.846 C 1162.900 500.470, 1162.916 499.838, 1161.828 498.096 C 1160.265 495.594, 1159.176 495.488, 1156.229 497.552 C 1152.551 500.128, 1143.889 502.269, 1137 502.305 C 1129.931 502.342, 1116.937 500.697, 1115.041 499.526 C 1114.391 499.124, 1110.743 498.404, 1106.934 497.926 C 1099.231 496.958, 1095.932 495.556, 1091.500 491.364 C 1089.850 489.803, 1087.600 488.030, 1086.500 487.423 C 1085.400 486.817, 1080.900 484.399, 1076.500 482.049 C 1072.100 479.699, 1068.050 477.440, 1067.500 477.029 C 1066.950 476.618, 1064.332 475.470, 1061.683 474.479 C 1059.033 473.488, 1055.498 471.400, 1053.827 469.839 C 1050.763 466.976, 1049 466.260, 1049 467.879 C 1049 469.724, 1040.630 477.275, 1036.656 479.015 C 1034.370 480.016, 1030.257 481.164, 1027.517 481.566 C 1024.776 481.968, 1021.078 482.905, 1019.299 483.649 C 1014.964 485.460, 998.225 485.477, 996.079 483.673 C 994.057 481.974, 983.025 479, 978.742 479 C 976.934 479, 970.964 480.164, 965.477 481.587 C 950.903 485.366, 940.085 485.833, 931.397 483.058 C 927.604 481.847, 923.600 480.457, 922.500 479.968 C 911.748 475.198, 892.141 470, 884.900 470 C 879.084 470, 874.171 468.340, 871.114 465.341 C 868.192 462.475, 866.972 462.389, 866.290 465 M 912.668 526.981 C 910.010 528.020, 905.057 529.302, 901.661 529.830 C 897.234 530.520, 891.553 532.799, 881.584 537.885 C 873.938 541.786, 866.930 545.658, 866.012 546.489 C 865.094 547.320, 863.957 548, 863.486 548 C 863.015 548, 859.451 549.645, 855.565 551.656 C 848.163 555.487, 840.399 557.968, 835.750 557.988 C 834.237 557.995, 833 558.450, 833 559 C 833 559.550, 835.189 560, 837.865 560 C 841.216 560, 843.522 560.622, 845.273 562 C 846.671 563.100, 848.748 564, 849.887 564 C 852.246 564, 858.679 566.263, 864.345 569.085 C 871.993 572.895, 872.649 572.037, 873.969 556.517 L 874.733 547.534 880.886 541.875 C 888.904 534.500, 894.887 533.329, 901.772 537.787 C 903.709 539.042, 905.693 539.087, 915.272 538.093 C 921.447 537.451, 929.425 536.156, 933 535.213 C 940.371 533.270, 951.155 533.166, 964 534.915 C 984.101 537.651, 1015.069 538.316, 1016.475 536.041 C 1017.383 534.571, 1009.400 532.058, 999 530.541 C 993.225 529.699, 979.432 528.563, 968.348 528.018 C 957.265 527.472, 946.998 526.570, 945.533 526.013 C 944.068 525.456, 937.162 525.021, 930.185 525.047 C 920.206 525.084, 916.469 525.496, 912.668 526.981 M 1030 540.403 C 1030 542.804, 1028.622 546.613, 1024.537 555.500 C 1023.273 558.250, 1021.901 561.625, 1021.488 563 C 1021.075 564.375, 1019.985 566.625, 1019.065 568 C 1018.145 569.375, 1016.546 572.445, 1015.511 574.823 C 1014.477 577.200, 1012.728 579.777, 1011.626 580.550 C 1008.091 583.026, 1010.478 583.058, 1016.577 580.616 C 1023.391 577.889, 1030.821 574.466, 1033 573.051 C 1035.510 571.421, 1048.248 566.256, 1052.500 565.144 C 1066.098 561.588, 1073.426 560.098, 1080.488 559.451 C 1086.978 558.858, 1088.010 558.548, 1085.988 557.803 C 1084.620 557.298, 1082.375 555.840, 1081 554.563 C 1079.625 553.286, 1076.700 551.688, 1074.500 551.011 C 1072.300 550.335, 1068.839 548.481, 1066.809 546.891 C 1064.326 544.947, 1061.962 544, 1059.589 544 C 1057.649 544, 1054.483 543.114, 1052.554 542.030 C 1050.527 540.892, 1046.189 539.817, 1042.273 539.484 C 1038.548 539.167, 1034.263 538.715, 1032.750 538.479 C 1030.408 538.114, 1030 538.399, 1030 540.403" stroke="#b09658" fill="#b09658" fill-opacity="0.2" fill-rule="evenodd"/><path class="svg-region-Fl" d="M 816 384.672 C 811.875 386.050, 804.450 388.229, 799.500 389.513 C 785.434 393.163, 784.048 393.900, 774.673 402.716 L 770.845 406.315 773.700 407.516 C 775.271 408.176, 780.040 411.678, 784.300 415.298 C 788.559 418.918, 793.046 422.195, 794.272 422.582 C 795.497 422.968, 798.354 424.913, 800.619 426.903 C 802.885 428.894, 806.029 431.192, 807.605 432.011 C 809.182 432.830, 811.228 434.130, 812.151 434.900 C 813.871 436.333, 819.159 438.497, 824.500 439.954 C 826.150 440.404, 830.116 441.994, 833.314 443.489 C 838.632 445.973, 839.516 446.108, 843.673 445.061 C 847.136 444.189, 849.084 444.202, 851.859 445.116 C 856.933 446.787, 857.906 448.513, 857.266 454.710 C 856.930 457.965, 857.159 460.487, 857.868 461.341 C 859.571 463.392, 863.573 462.185, 865.113 459.156 C 865.856 457.695, 868.817 453.770, 871.693 450.434 C 876.405 444.967, 881.965 435.232, 881.990 432.405 C 881.996 431.803, 882.949 430.453, 884.109 429.405 C 887.704 426.159, 892 416.498, 892 411.662 C 892 406.746, 888.605 397.453, 885.803 394.697 C 883.288 392.223, 874.034 388.022, 871.075 388.010 C 869.742 388.004, 865.467 386.926, 861.575 385.613 C 855.758 383.650, 851.745 383.132, 839 382.696 C 824.362 382.196, 823.083 382.306, 816 384.672" stroke="#5ca7a9" fill="#5ca7a9" fill-opacity="0.2" fill-rule="evenodd"/><path class="svg-region-Fr" d="M 1059.500 387.137 C 1057.300 387.681, 1051.900 389.206, 1047.500 390.526 C 1032.451 395.041, 1022.500 397.928, 1019.824 398.554 C 1016.654 399.295, 1013.530 402.431, 1014.461 403.937 C 1014.822 404.522, 1016.666 405, 1018.559 405 C 1022.347 405, 1022.756 406.054, 1020.500 410 C 1019.714 411.375, 1019.055 414.856, 1019.035 417.737 C 1018.995 423.731, 1022.130 429.178, 1027.750 432.878 C 1030.619 434.768, 1031 435.546, 1031 439.524 C 1031 443.534, 1031.357 444.247, 1034.250 446.011 C 1036.037 447.101, 1038.197 447.994, 1039.049 447.996 C 1039.930 447.998, 1041.183 449.618, 1041.954 451.750 C 1043.776 456.789, 1047.003 461, 1049.043 461 C 1049.960 461, 1055.388 458.914, 1061.105 456.365 C 1070.595 452.134, 1072.632 451.615, 1084.500 450.410 C 1091.650 449.685, 1098.287 449.071, 1099.250 449.046 C 1102.388 448.964, 1101.100 447.055, 1096.014 444.250 C 1093.272 442.737, 1091.022 441, 1091.014 440.389 C 1091.006 439.778, 1092.944 437.190, 1095.320 434.639 C 1098.241 431.502, 1100.452 430, 1102.147 430 C 1103.527 430, 1107.545 428.822, 1111.078 427.382 C 1116.600 425.131, 1118.481 424.840, 1124.500 425.307 C 1128.350 425.606, 1133.075 426.648, 1134.999 427.623 C 1137.401 428.839, 1140.908 429.414, 1146.174 429.454 C 1152.543 429.503, 1154.376 429.902, 1156.940 431.798 C 1159.590 433.757, 1160.116 433.860, 1160.629 432.525 C 1161.012 431.527, 1160.197 430.192, 1158.363 428.814 C 1156.789 427.630, 1151.281 422.575, 1146.125 417.581 C 1140.969 412.586, 1135.030 406.836, 1132.927 404.803 C 1130.825 402.769, 1127.685 400.371, 1125.950 399.474 C 1122.689 397.788, 1122.359 395.707, 1124.537 390.563 C 1125.215 388.962, 1124.730 389.104, 1121.752 391.376 C 1118.290 394.016, 1118.024 394.064, 1115.122 392.563 C 1113.460 391.703, 1111.486 391, 1110.737 391 C 1109.988 391, 1107.379 389.988, 1104.938 388.750 C 1100.858 386.682, 1099.007 386.486, 1082 386.324 C 1071.825 386.226, 1061.700 386.592, 1059.500 387.137 M 1117.500 396 C 1117.160 396.550, 1117.359 397, 1117.941 397 C 1118.523 397, 1119 396.550, 1119 396 C 1119 395.450, 1118.802 395, 1118.559 395 C 1118.316 395, 1117.840 395.450, 1117.500 396" stroke="#5ca7a9" fill="#5ca7a9" fill-opacity="0.2" fill-rule="evenodd"/><path class="svg-region-PCl" d="M 768.500 407.721 C 765.792 408.383, 755.379 419.205, 750.463 426.466 C 747.707 430.537, 744.786 438, 745.949 438 C 746.462 438, 747.160 437.550, 747.500 437 C 748.558 435.289, 757.396 435.889, 761.690 437.964 C 763.927 439.045, 769.974 441.329, 775.128 443.040 C 784.477 446.142, 791.053 448.855, 792 450 C 793.069 451.291, 800.739 454.422, 805.495 455.508 C 809.730 456.475, 811.227 456.379, 815.344 454.874 C 822.871 452.123, 825 450.382, 825 446.977 C 825 444.487, 825.400 444, 827.441 444 C 828.784 444, 830.160 444.450, 830.500 445 C 830.840 445.550, 833.004 445.989, 835.309 445.976 L 839.500 445.953 833.500 443.408 C 830.200 442.008, 826.375 440.469, 825 439.988 C 823.625 439.506, 820.700 438.396, 818.500 437.520 C 816.300 436.645, 813.712 435.667, 812.750 435.347 C 811.788 435.028, 811 434.479, 811 434.127 C 811 433.776, 809.691 432.909, 808.092 432.201 C 806.492 431.493, 803.230 429.199, 800.842 427.103 C 798.454 425.008, 794.925 422.490, 793 421.507 C 791.075 420.525, 787.025 417.615, 784 415.040 C 774.461 406.921, 773.544 406.488, 768.500 407.721" stroke="#465ee0" fill="#465ee0" fill-opacity="0.2" fill-rule="evenodd"/><path class="svg-region-PCr" d="M 1110.683 427.456 C 1108.033 428.855, 1104.474 430, 1102.774 430 C 1100.366 430, 1098.721 431.046, 1095.341 434.728 C 1091.228 439.208, 1089.907 442, 1091.900 442 C 1092.394 442, 1095.180 443.602, 1098.089 445.560 L 1103.380 449.120 1111.940 448.090 C 1116.648 447.523, 1124.550 446.760, 1129.500 446.395 C 1136.949 445.846, 1139.640 445.152, 1145.117 442.366 C 1149.028 440.376, 1153.219 439, 1155.367 439 C 1159.722 439, 1159.871 438.312, 1156.250 434.909 C 1152.323 431.218, 1150.269 430.360, 1143.535 429.603 C 1140.254 429.234, 1136.204 428.231, 1134.535 427.375 C 1132.866 426.518, 1127.900 425.614, 1123.500 425.365 C 1116.362 424.961, 1114.981 425.186, 1110.683 427.456" stroke="#465ee0" fill="#465ee0" fill-opacity="0.2" fill-rule="evenodd"/><path class="svg-region-DV" d="M 888.001 396.141 C 888.001 396.888, 888.901 399.867, 890.001 402.761 C 891.100 405.654, 892 409.829, 892 412.039 C 892 416.492, 887.540 426.306, 884.109 429.405 C 882.949 430.453, 881.996 431.803, 881.990 432.405 C 881.964 435.379, 876.347 444.962, 870.996 451.164 C 867.698 454.987, 865 458.491, 865 458.952 C 865 459.413, 866.160 460.850, 867.577 462.145 C 868.994 463.440, 870.951 465.299, 871.926 466.277 C 874.220 468.577, 879.288 470, 885.181 470 C 891.226 470, 899.980 472.106, 912.500 476.573 C 935.115 484.641, 937.819 485.281, 947 484.727 C 951.675 484.445, 959.100 483.214, 963.500 481.991 C 976.107 478.489, 990.684 479.253, 996.079 483.699 C 998.067 485.337, 1014.686 485.471, 1018.685 483.881 C 1020.233 483.265, 1024.589 482.153, 1028.364 481.409 C 1036.822 479.743, 1043.162 476.140, 1047.028 470.802 C 1050.453 466.075, 1050.231 463.471, 1046.007 458.847 C 1044.502 457.199, 1042.688 454.084, 1041.975 451.925 C 1041.192 449.551, 1040.052 447.999, 1039.090 447.996 C 1038.215 447.994, 1036.063 447.116, 1034.307 446.046 C 1031.533 444.354, 1031.073 443.470, 1030.807 439.313 C 1030.546 435.242, 1030.044 434.230, 1027.440 432.530 C 1022.352 429.206, 1019 423.616, 1019 418.456 C 1019 414.546, 1018.530 413.526, 1015.500 410.866 C 1012.312 408.067, 1010.882 405.012, 1012.750 404.992 C 1013.163 404.988, 1014.020 403.863, 1014.656 402.492 C 1015.762 400.107, 1015.671 400, 1012.528 400 C 1010.722 400, 1008.738 400.610, 1008.119 401.356 C 1007.336 402.300, 1004.031 402.772, 997.247 402.909 C 991.886 403.017, 983.454 403.419, 978.510 403.803 C 969.985 404.464, 969.452 404.642, 968.205 407.250 C 967.482 408.762, 966.492 410, 966.004 410 C 964.193 410, 963.855 407.817, 965.402 406.108 C 966.281 405.137, 967 404.083, 967 403.766 C 967 402.986, 958.754 404.078, 957.500 405.025 C 956.410 405.849, 935.315 405.312, 933.878 404.425 C 933.392 404.124, 930.858 403.499, 928.247 403.035 C 925.636 402.570, 920.350 401.459, 916.500 400.565 C 908.573 398.724, 896.100 396.136, 891.250 395.325 C 888.911 394.933, 888 395.162, 888.001 396.141" stroke="#45567a" fill="#45567a" fill-opacity="0.2" fill-rule="evenodd"/><path class="svg-region-VV" d="M 934.500 535.030 C 931.200 536.098, 926.925 536.978, 925 536.985 C 923.075 536.992, 917.864 537.505, 913.420 538.126 C 906.151 539.142, 904.947 539.067, 901.420 537.378 C 899.192 536.310, 895.480 535.531, 892.818 535.572 C 888.765 535.634, 887.354 536.282, 882.318 540.398 C 875.491 545.977, 874.115 548.565, 874.021 556 C 873.982 559.025, 873.496 563.472, 872.941 565.883 C 871.782 570.910, 873.150 573.322, 877.824 574.488 C 879.296 574.855, 882.750 576.877, 885.500 578.981 C 891.755 583.767, 914.896 595.460, 921.267 597.054 C 923.889 597.709, 926.278 598.641, 926.576 599.123 C 926.874 599.605, 929.090 600, 931.500 600 C 933.910 600, 936.172 600.469, 936.526 601.042 C 936.880 601.615, 939.044 602.046, 941.335 602.001 C 943.626 601.956, 947.629 602.220, 950.230 602.588 C 953.643 603.069, 955.593 602.844, 957.230 601.778 C 958.555 600.915, 963.040 600.080, 968 599.771 C 973.940 599.401, 977.554 598.635, 980 597.226 C 981.925 596.118, 988.648 593.060, 994.939 590.432 C 1007.635 585.128, 1012.706 581.274, 1015.528 574.785 C 1016.553 572.428, 1018.145 569.375, 1019.065 568 C 1019.985 566.625, 1021.086 564.375, 1021.511 563 C 1021.936 561.625, 1023.876 557.141, 1025.822 553.036 C 1027.947 548.551, 1029.387 543.962, 1029.429 541.536 L 1029.500 537.500 1024 536.896 C 1020.975 536.564, 1016.101 536.659, 1013.169 537.107 C 1006.798 538.080, 975.346 537.210, 972.500 535.981 C 970.406 535.077, 961.997 534.210, 948.500 533.504 C 942.420 533.187, 939.060 533.553, 934.500 535.030" stroke="#7699d1" fill="#7699d1" fill-opacity="0.2" fill-rule="evenodd"/><path class="svg-region-PNl" d="M 746.988 437.282 C 743.938 439.739, 743 444.052, 743 455.626 C 743 465.745, 743.324 467.977, 745.643 473.829 C 747.097 477.498, 749.011 481.625, 749.897 483 C 750.783 484.375, 752.340 487.141, 753.356 489.146 C 754.372 491.152, 756.922 494.471, 759.022 496.522 C 762.710 500.123, 763.181 500.283, 772.671 501.168 C 778.077 501.673, 783.805 502.516, 785.399 503.043 C 791.298 504.991, 798.469 503.450, 809.195 497.931 C 812.327 496.319, 816.054 495, 817.477 495 C 818.900 495, 821.680 494.325, 823.654 493.500 C 825.629 492.675, 828.020 492, 828.967 492 C 829.915 492, 831.436 491.176, 832.348 490.168 C 833.260 489.160, 837.155 487.284, 841.003 485.999 C 844.851 484.714, 848 483.288, 848 482.831 C 848 482.374, 848.614 482, 849.364 482 C 850.115 482, 852.252 480.654, 854.114 479.010 C 855.977 477.365, 858.222 475.780, 859.104 475.489 C 859.986 475.197, 861.561 473.280, 862.604 471.229 C 863.647 469.178, 864.777 467.275, 865.115 467 C 865.454 466.725, 866.058 465.450, 866.459 464.167 C 867.145 461.971, 866.959 461.850, 863.316 462.113 C 861.187 462.267, 858.894 462.053, 858.222 461.637 C 856.795 460.755, 856.567 452.842, 857.929 451.450 C 859.235 450.114, 856.207 446.724, 852.254 445.097 C 849.713 444.051, 848.042 444.004, 844.561 444.880 C 839.042 446.270, 831.326 446.336, 830.500 445 C 830.160 444.450, 828.784 444, 827.441 444 C 825.398 444, 825 444.487, 825 446.987 C 825 449.373, 824.213 450.471, 821.094 452.441 C 813.315 457.351, 802.335 456.534, 792.956 450.346 C 791.008 449.060, 783.623 445.978, 776.545 443.497 C 769.468 441.016, 762.331 438.314, 760.685 437.493 C 757.099 435.704, 749.099 435.581, 746.988 437.282" stroke="#bbc0d1" fill="#bbc0d1" fill-opacity="0.2" fill-rule="evenodd"/><path class="svg-region-PNr" d="M 1155.500 438.922 C 1152.750 439.274, 1147.575 440.979, 1144 442.711 C 1138.777 445.241, 1135.732 445.982, 1128.500 446.487 C 1123.550 446.832, 1115.900 447.506, 1111.500 447.986 C 1107.100 448.466, 1096.525 449.430, 1088 450.128 C 1072.683 451.384, 1072.364 451.459, 1061.004 456.499 C 1053.097 460.008, 1049.397 462.176, 1049.153 463.446 C 1048.752 465.524, 1057.382 473.978, 1059.958 474.032 C 1060.806 474.050, 1065.100 476.040, 1069.500 478.453 C 1073.900 480.867, 1079.930 484.069, 1082.901 485.568 C 1085.871 487.068, 1090.061 490.002, 1092.211 492.089 C 1095.233 495.021, 1097.414 496.136, 1101.811 496.994 C 1104.940 497.605, 1109.525 498.570, 1112 499.139 C 1132.111 503.764, 1144.798 503.358, 1155.730 497.738 C 1159.842 495.624, 1159.999 495.616, 1161.328 497.435 C 1162.081 498.464, 1163.202 498.993, 1163.820 498.611 C 1164.992 497.887, 1169 489.482, 1169 487.748 C 1169 487.199, 1170.166 484.153, 1171.590 480.978 C 1173.658 476.371, 1173.960 474.794, 1173.088 473.164 C 1172.366 471.816, 1172.335 470.911, 1172.997 470.502 C 1174.296 469.699, 1174.298 465.302, 1173 464.500 C 1172.450 464.160, 1172 461.218, 1172 457.961 C 1172 454.705, 1171.258 450.119, 1170.350 447.770 C 1168.408 442.744, 1164.275 437.941, 1162.063 438.141 C 1161.203 438.218, 1158.250 438.570, 1155.500 438.922" stroke="#bbc0d1" fill="#bbc0d1" fill-opacity="0.2" fill-rule="evenodd"/>
    </svg>