<svg xmlns="http://www.w3.org/2000/svg" width="1921" height="1027" viewBox="0 0 1921 1027" version="1.1">
    <path class="svg-region-PMl" d="M 827.252 513.723 C 825.919 513.969, 824.762 515.098, 824.412 516.496 C 824.086 517.792, 822.961 519.631, 821.910 520.581 C 819.433 522.823, 819.467 525, 821.980 525 C 824.349 525, 832 527.947, 832 528.860 C 832 529.687, 838.952 533.296, 846 536.128 C 851.872 538.488, 863.011 540.185, 872 540.088 C 887.279 539.923, 931.905 536.643, 942.048 534.939 C 948.399 533.873, 957.287 533, 961.798 533 L 970 533 970 524.131 L 970 515.262 966.250 514.642 C 959.509 513.528, 917.334 513.919, 914.315 515.123 C 910.660 516.582, 858.770 516.600, 850.500 515.146 C 843.519 513.918, 830.504 513.122, 827.252 513.723" stroke="#90cf92" fill="#90cf92" fill-opacity="0.2" fill-rule="evenodd"/><path class="svg-region-PMr" d="M 1101.500 510.513 C 1099.850 511.281, 1096.967 511.930, 1095.094 511.955 C 1093.145 511.981, 1090.365 512.993, 1088.594 514.322 C 1085.523 516.626, 1085.306 516.642, 1059.500 516.429 C 1043.892 516.300, 1032.104 515.771, 1030.007 515.107 C 1028.085 514.498, 1023.113 514, 1018.957 514 C 1014.800 514, 1010.913 513.513, 1010.318 512.918 C 1009.219 511.819, 988.349 512.202, 979 513.492 C 970.447 514.673, 970 515.225, 970 524.610 L 970 532.882 982.250 533.424 C 988.987 533.722, 996.929 533.961, 999.899 533.955 C 1002.868 533.948, 1006.812 534.443, 1008.663 535.054 C 1010.514 535.665, 1015.285 536.542, 1019.264 537.002 C 1023.244 537.463, 1029.200 538.608, 1032.500 539.546 C 1040.269 541.755, 1050.581 542.839, 1071.119 543.605 C 1089.964 544.308, 1100.704 543.090, 1103.569 539.924 C 1104.526 538.866, 1105.806 538, 1106.412 538 C 1107.018 538, 1109.760 535.982, 1112.507 533.516 C 1115.253 531.049, 1117.838 529.024, 1118.250 529.016 C 1119.673 528.986, 1118.987 519.487, 1117.203 514.500 L 1115.414 509.500 1109.957 509.308 C 1106.956 509.203, 1103.150 509.745, 1101.500 510.513" stroke="#90cf92" fill="#90cf92" fill-opacity="0.2" fill-rule="evenodd"/><path class="svg-region-PV" d="M 1013.379 466.233 C 1012.602 467.736, 1010.646 469.649, 1009.033 470.483 C 1005.699 472.207, 1000.423 472.493, 999.500 471 C 999.160 470.450, 995.750 470, 991.921 470 C 986.717 470, 983.388 470.651, 978.730 472.579 C 963.993 478.679, 954.333 479.690, 946.702 475.930 C 935.901 470.608, 931.821 469.591, 921.500 469.648 C 916 469.679, 909.185 469.883, 906.356 470.102 C 902.457 470.404, 900.745 470.077, 899.278 468.750 C 897.875 467.481, 895.645 467, 891.171 467 C 887.777 467, 885 467.394, 885 467.874 C 885 468.355, 881.063 468.531, 876.250 468.264 C 867.814 467.797, 867.413 467.873, 865.076 470.390 C 863.742 471.825, 862.057 473, 861.331 473 C 860.606 473, 857.958 475.025, 855.447 477.500 C 852.936 479.975, 850.496 482, 850.025 482 C 849.553 482, 849.017 482.337, 848.833 482.750 C 848.650 483.163, 845.575 484.967, 842 486.760 C 833.800 490.872, 828.769 493.887, 825.236 496.805 C 820.564 500.664, 819.703 500.969, 813.432 500.985 C 810.094 500.993, 804.919 501.727, 801.932 502.615 C 796.292 504.291, 785.311 504.061, 784.110 502.240 C 783.774 501.732, 781.329 500.496, 778.675 499.494 C 776.022 498.491, 771.747 495.797, 769.175 493.507 C 763.052 488.052, 755 484.138, 755 486.616 C 755 488.230, 764.565 501.358, 767.115 503.243 C 768.705 504.419, 770.955 507.340, 772.114 509.736 C 773.274 512.132, 776.423 516.725, 779.111 519.942 C 781.800 523.160, 784 526.091, 784 526.455 C 784 526.819, 785.899 529.144, 788.220 531.620 C 790.542 534.097, 793.133 537.108, 793.980 538.312 C 794.826 539.515, 797.172 542.188, 799.192 544.250 C 802.464 547.590, 803.410 548, 807.849 548 C 812.053 548, 813.127 548.404, 814.710 550.577 C 816.205 552.628, 818.108 553.444, 824.044 554.576 C 828.145 555.358, 833.413 555.998, 835.750 555.999 L 840 556 840 552.217 C 840 548.316, 841.978 544.985, 847.255 540.001 L 850.009 537.398 844.755 535.534 C 841.865 534.508, 836.805 531.931, 833.510 529.808 C 830.216 527.684, 825.829 525.676, 823.760 525.346 C 819.597 524.680, 819.021 523.196, 821.910 520.581 C 822.961 519.631, 824.080 517.818, 824.397 516.554 C 825.167 513.488, 828.315 512.986, 840 514.069 C 862.399 516.144, 887.700 516.878, 901.500 515.854 C 921.801 514.347, 961.640 513.761, 966.944 514.892 C 969.432 515.423, 971.925 515.496, 972.484 515.055 C 976.795 511.653, 1005.378 511.982, 1037.500 515.805 C 1042.450 516.394, 1055.315 516.761, 1066.089 516.621 C 1084.401 516.382, 1085.878 516.223, 1088.743 514.183 C 1090.429 512.982, 1093.193 512, 1094.884 512 C 1096.576 512, 1099.714 511.298, 1101.858 510.440 C 1104.089 509.548, 1107.822 509.013, 1110.586 509.190 C 1115.398 509.499, 1115.422 509.518, 1117.204 514.500 C 1118.987 519.486, 1119.673 528.996, 1118.250 529.005 C 1117.838 529.007, 1115.820 530.553, 1113.766 532.439 C 1111.712 534.325, 1107.636 537.302, 1104.707 539.054 C 1101.633 540.893, 1098.948 543.350, 1098.354 544.869 C 1096.907 548.569, 1095 554.513, 1095 555.321 C 1095 556.458, 1097.338 556.073, 1100.500 554.414 C 1102.150 553.549, 1107.492 551.511, 1112.370 549.885 C 1122.377 546.551, 1128.582 543.354, 1134.668 538.396 C 1136.961 536.528, 1139.323 535, 1139.918 535 C 1140.513 535, 1141 534.594, 1141 534.098 C 1141 533.602, 1142.350 532.725, 1144 532.150 C 1145.650 531.575, 1147 530.694, 1147 530.192 C 1147 528.893, 1153.661 521.994, 1154.299 522.632 C 1155.312 523.645, 1159 520.918, 1159 519.156 C 1159 518.180, 1159.661 516.509, 1160.468 515.441 C 1163.100 511.961, 1162.087 511.844, 1157.377 515.085 C 1153.270 517.910, 1151.775 518.321, 1143.987 518.765 C 1135.808 519.231, 1135.175 519.128, 1134.570 517.221 C 1133.713 514.519, 1127.890 510.158, 1122.132 507.906 C 1119.584 506.910, 1115.286 504.948, 1112.581 503.547 C 1109.875 502.146, 1107.175 500.989, 1106.581 500.976 C 1105.986 500.963, 1104.253 499.276, 1102.729 497.226 C 1101.204 495.177, 1097.739 491.700, 1095.028 489.500 C 1092.318 487.300, 1090.077 485.026, 1090.050 484.446 C 1089.962 482.579, 1083.646 477.283, 1078.357 474.643 C 1074.279 472.607, 1072.754 471.123, 1070.988 467.476 C 1069.318 464.025, 1068.355 463.038, 1067.131 463.521 C 1066.234 463.875, 1063.124 464.417, 1060.221 464.725 C 1057.317 465.034, 1054.703 465.672, 1054.412 466.143 C 1053.591 467.470, 1051.175 467.161, 1048.457 465.380 C 1046.469 464.077, 1042.923 463.734, 1030.388 463.630 L 1014.792 463.500 1013.379 466.233" stroke="#b09658" fill="#b09658" fill-opacity="0.2" fill-rule="evenodd"/><path class="svg-region-Fl" d="M 835 387.687 C 833.625 387.914, 829.575 389.026, 826 390.158 C 822.425 391.289, 817.025 392.865, 814.001 393.659 C 810.304 394.631, 806.208 396.869, 801.501 400.489 C 794.006 406.254, 782.950 417, 784.515 417 C 785.035 417, 787.797 416.032, 790.652 414.849 C 795.542 412.822, 796.037 412.790, 799.207 414.294 C 801.058 415.172, 804.463 417.908, 806.775 420.374 C 809.086 422.840, 811.995 425.174, 813.238 425.560 C 814.482 425.946, 816.638 427.063, 818.028 428.042 C 823.696 432.030, 830.875 435.201, 837.316 436.561 C 841.065 437.353, 844.973 438.450, 846 439 C 847.028 439.550, 851.171 440, 855.206 440 C 861.896 440, 862.868 440.267, 866.210 443.022 C 868.804 445.159, 869.968 446.989, 870.188 449.272 C 870.472 452.206, 870.791 452.487, 873.695 452.359 C 881.579 452.009, 890.502 443.241, 893.285 433.108 C 894.176 429.862, 895.406 428.133, 897.995 426.487 C 904.725 422.209, 907.871 416.462, 907.956 408.290 C 907.991 404.964, 907.423 403.534, 905.250 401.473 C 900.873 397.321, 895.449 394.981, 885.640 393.013 C 880.613 392.004, 872.941 390.238, 868.590 389.089 C 862.517 387.485, 857.989 387.032, 849.090 387.136 C 842.716 387.211, 836.375 387.459, 835 387.687" stroke="#5ca7a9" fill="#5ca7a9" fill-opacity="0.2" fill-rule="evenodd"/><path class="svg-region-Fr" d="M 1066.500 395.062 C 1064.850 395.599, 1057.200 396.485, 1049.500 397.032 C 1029.528 398.450, 1029.797 398.368, 1030.599 402.836 C 1031.592 408.370, 1032.469 409.397, 1037.177 410.540 L 1041.500 411.590 1042.636 424.545 C 1043.261 431.670, 1043.824 437.576, 1043.886 437.668 C 1044.651 438.800, 1051.303 441.933, 1054 442.431 C 1057.009 442.986, 1059.840 444.160, 1070.236 449.164 C 1071.191 449.624, 1072.670 450, 1073.522 450 C 1074.373 450, 1076.196 450.737, 1077.571 451.639 C 1081.572 454.260, 1091.513 452.847, 1095.459 449.097 C 1097.132 447.507, 1101.200 444.836, 1104.500 443.160 C 1107.800 441.485, 1112.035 438.504, 1113.911 436.536 C 1118.566 431.654, 1120.948 431.265, 1127.790 434.272 C 1130.931 435.652, 1135.975 437.349, 1139 438.042 C 1142.025 438.736, 1146.525 439.949, 1149 440.738 C 1151.475 441.527, 1155.820 442.417, 1158.656 442.716 C 1163.461 443.223, 1164.025 443.043, 1166.924 440.078 C 1168.635 438.328, 1170.140 436.440, 1170.267 435.883 C 1170.546 434.671, 1161.466 431.002, 1158.184 431.001 C 1155.453 431, 1152.564 429.588, 1148.673 426.351 C 1147.119 425.058, 1144.963 424, 1143.883 424 C 1141.543 424, 1137.725 421.321, 1130.120 414.342 C 1120.136 405.179, 1114.740 402.073, 1105.183 399.987 C 1100.399 398.943, 1094.913 397.281, 1092.992 396.294 C 1088.966 394.225, 1071.558 393.416, 1066.500 395.062" stroke="#5ca7a9" fill="#5ca7a9" fill-opacity="0.2" fill-rule="evenodd"/><path class="svg-region-PCl" d="M 785.296 416.419 C 777.396 419.229, 765.924 425.697, 764.365 428.219 C 764.099 428.648, 765.203 429, 766.819 429 C 768.434 429, 770.315 429.675, 771 430.500 C 771.685 431.325, 772.823 432, 773.529 432 C 775.597 432, 787.770 437.727, 791.279 440.351 C 795.678 443.639, 801.916 446.203, 812 448.865 C 816.675 450.099, 822.525 451.762, 825 452.560 C 830.791 454.426, 838.104 454.401, 842.654 452.500 C 847.311 450.554, 856.752 450.581, 861.471 452.552 C 863.514 453.406, 866.255 455.318, 867.561 456.802 L 869.937 459.500 869.968 452.823 C 869.999 446.315, 869.905 446.068, 866.272 443.073 C 862.837 440.241, 861.950 440, 854.972 440 C 850.807 440, 846.962 439.562, 846.427 439.027 C 845.891 438.491, 842.049 437.402, 837.890 436.606 C 832.436 435.562, 828.208 433.906, 822.731 430.668 C 818.553 428.198, 814.200 425.881, 813.056 425.518 C 811.913 425.155, 809.103 422.858, 806.812 420.414 C 802.803 416.137, 797.889 412.921, 795.596 413.073 C 794.993 413.113, 790.358 414.619, 785.296 416.419" stroke="#465ee0" fill="#465ee0" fill-opacity="0.2" fill-rule="evenodd"/><path class="svg-region-PCr" d="M 1113.402 436.471 C 1110.706 438.930, 1106.020 442.274, 1102.989 443.902 C 1099.958 445.530, 1096.438 447.969, 1095.167 449.322 L 1092.857 451.781 1109.536 452.517 C 1121.027 453.023, 1127.384 452.902, 1129.973 452.126 C 1132.041 451.507, 1134.636 451, 1135.742 451 C 1137.602 451, 1147.224 447.266, 1151.236 444.986 C 1152.191 444.444, 1154.666 443.959, 1156.736 443.910 C 1160.095 443.829, 1159.747 443.609, 1153.500 441.866 C 1149.650 440.792, 1143.004 439.037, 1138.731 437.967 C 1134.458 436.897, 1129.188 435.116, 1127.021 434.011 C 1121.178 431.030, 1118.922 431.437, 1113.402 436.471" stroke="#465ee0" fill="#465ee0" fill-opacity="0.2" fill-rule="evenodd"/><path class="svg-region-DV" d="M 902.447 397.086 C 902.077 397.684, 903.241 399.685, 905.032 401.533 C 908.151 404.751, 908.260 405.129, 907.625 410.532 C 907.261 413.634, 906.296 417.460, 905.482 419.034 C 904.016 421.870, 898.991 426.183, 895.892 427.266 C 894.964 427.590, 894.022 429.458, 893.668 431.675 C 893.063 435.460, 886.739 446.312, 883.639 448.884 C 882.768 449.608, 879.455 451.002, 876.277 451.982 L 870.500 453.765 870 460.769 L 869.500 467.773 877 468.264 C 881.125 468.535, 884.650 468.361, 884.833 467.878 C 885.017 467.395, 887.906 467, 891.255 467 C 895.649 467, 897.881 467.487, 899.278 468.750 C 900.745 470.077, 902.457 470.404, 906.356 470.102 C 909.185 469.883, 916.029 469.664, 921.564 469.616 C 932.015 469.525, 931.548 469.408, 945.780 475.675 C 949.482 477.306, 952.946 478, 957.374 478 C 963.393 478, 966.377 477.232, 980.225 472.115 C 986.290 469.874, 998.372 469.175, 999.500 471 C 1000.423 472.493, 1005.699 472.207, 1009.033 470.483 C 1010.646 469.649, 1012.602 467.736, 1013.379 466.233 L 1014.792 463.500 1030.388 463.630 C 1042.923 463.734, 1046.469 464.077, 1048.457 465.380 C 1051.271 467.224, 1053.596 467.463, 1054.500 466 C 1054.840 465.450, 1056.467 465, 1058.116 465 C 1063.828 465, 1070 462.901, 1070 460.958 C 1070 458.285, 1074.856 453, 1077.311 453 C 1079.408 453, 1079.410 452.977, 1077.473 451.690 C 1076.388 450.969, 1073.475 449.774, 1071 449.033 C 1068.525 448.293, 1064.700 446.694, 1062.500 445.479 C 1060.300 444.264, 1056.700 442.946, 1054.500 442.551 C 1049.253 441.608, 1044.113 438.382, 1043.534 435.667 C 1043.280 434.475, 1042.874 431.250, 1042.632 428.500 C 1042.389 425.750, 1041.866 422.150, 1041.468 420.500 C 1040.678 417.224, 1037.323 413, 1035.511 413 C 1034.047 413, 1031 406.644, 1031 403.589 C 1031 399.036, 1030.983 399.034, 1005 400.504 C 995.470 401.042, 990.393 400.836, 983.630 399.634 C 974.674 398.043, 972.658 398.297, 970.136 401.336 C 969.134 402.544, 965.436 402.701, 947.718 402.288 C 933.504 401.957, 925.085 401.333, 922.215 400.397 C 919.858 399.629, 916.422 399, 914.579 399 C 912.736 399, 909.940 398.328, 908.364 397.506 C 904.956 395.729, 903.356 395.615, 902.447 397.086" stroke="#45567a" fill="#45567a" fill-opacity="0.2" fill-rule="evenodd"/><path class="svg-region-VV" d="M 945 534.528 C 938.340 535.932, 887.471 539.838, 874 539.981 C 869.875 540.025, 862.900 539.668, 858.500 539.189 C 852.333 538.517, 849.870 538.631, 847.750 539.685 C 846.237 540.436, 844.999 541.377, 844.999 541.776 C 844.998 542.174, 843.873 543.807, 842.499 545.406 C 840.771 547.415, 840 549.497, 840 552.156 C 840 554.270, 839.982 556.337, 839.960 556.750 C 839.939 557.163, 840.951 557.642, 842.210 557.816 C 844.850 558.181, 855.985 561.876, 864 565.048 C 867.025 566.245, 871.975 568.074, 875 569.113 C 881.709 571.416, 880.517 570.876, 902.500 581.568 C 912.400 586.383, 923.613 592.315, 927.418 594.750 C 935.950 600.210, 937.287 600.739, 948.500 603.088 C 959.495 605.392, 964.418 605.465, 972.229 603.441 C 975.539 602.583, 978.777 602.084, 979.424 602.333 C 980.071 602.581, 981.703 602.174, 983.050 601.427 C 984.398 600.681, 986.936 600.055, 988.691 600.035 C 990.446 600.016, 992.124 599.608, 992.420 599.129 C 992.716 598.650, 994.305 597.989, 995.950 597.660 C 997.596 597.331, 1000.724 595.937, 1002.903 594.561 C 1005.081 593.186, 1011.076 590.308, 1016.225 588.165 C 1021.375 586.022, 1028.741 582.520, 1032.595 580.384 C 1038.571 577.071, 1043.909 574.348, 1051.036 570.977 C 1055.648 568.795, 1074.355 563.027, 1079.668 562.149 C 1089.550 560.515, 1097 554.480, 1097 548.109 C 1097 547.014, 1097.450 545.840, 1098 545.500 C 1098.550 545.160, 1099 544.302, 1099 543.592 C 1099 542.581, 1097.758 542.504, 1093.250 543.233 C 1087.204 544.211, 1060.099 543.577, 1046.500 542.139 C 1042.100 541.674, 1036.025 540.535, 1033 539.609 C 1029.975 538.682, 1023.993 537.520, 1019.707 537.026 C 1015.421 536.531, 1010.426 535.636, 1008.606 535.035 C 1006.786 534.434, 1002.868 533.937, 999.899 533.929 C 996.929 533.921, 984.825 533.744, 973 533.537 C 957.359 533.262, 949.729 533.532, 945 534.528" stroke="#7699d1" fill="#7699d1" fill-opacity="0.2" fill-rule="evenodd"/><path class="svg-region-PNl" d="M 756.663 432.368 C 752.241 434.822, 750.001 436.927, 747.421 441.053 C 742.143 449.493, 741.552 452.804, 743.523 462.898 C 744.448 467.629, 745.608 471.927, 746.102 472.450 C 746.596 472.972, 747 474.354, 747 475.520 C 747 478.315, 753.635 486, 756.048 486 C 758.647 486, 764.582 489.462, 769.689 493.958 C 772.034 496.021, 776.100 498.521, 778.726 499.513 C 781.352 500.505, 783.802 501.777, 784.171 502.339 C 785.361 504.154, 796.198 504.316, 801.961 502.604 C 804.932 501.722, 810.370 501, 814.045 501 C 819.648 501, 821.113 500.630, 823.114 498.710 C 825.304 496.608, 828.283 494.485, 833.500 491.306 C 834.600 490.635, 838.425 488.605, 842 486.794 C 845.575 484.982, 848.650 483.163, 848.833 482.750 C 849.017 482.337, 849.532 482, 849.978 482 C 850.425 482, 852.934 479.975, 855.554 477.500 C 858.174 475.025, 860.809 472.991, 861.409 472.981 C 862.009 472.970, 864.188 471.488, 866.250 469.687 C 868.966 467.316, 870 465.615, 870 463.518 C 870 459.413, 866.149 454.288, 861.730 452.514 C 856.904 450.576, 847.275 450.569, 842.654 452.500 C 838.441 454.261, 830.314 454.461, 826.315 452.903 C 824.767 452.300, 819.225 450.729, 814 449.412 C 802.872 446.607, 796.617 443.957, 788.879 438.769 C 785.787 436.696, 782.743 435, 782.115 435 C 781.487 435, 780.191 434.582, 779.236 434.072 C 773.514 431.012, 767.990 429.008, 765.434 429.065 C 763.820 429.101, 759.873 430.587, 756.663 432.368" stroke="#bbc0d1" fill="#bbc0d1" fill-opacity="0.2" fill-rule="evenodd"/><path class="svg-region-PNr" d="M 1172.500 435.731 C 1171.400 436.006, 1169.053 437.641, 1167.285 439.365 C 1163.855 442.710, 1161.374 443.741, 1156.375 443.900 C 1154.656 443.955, 1149.931 445.505, 1145.875 447.344 C 1141.819 449.183, 1136.250 451.061, 1133.500 451.518 C 1130.750 451.974, 1116.717 452.382, 1102.316 452.424 L 1076.131 452.500 1073.066 455.437 C 1070.622 457.779, 1070.003 459.198, 1070.015 462.437 C 1070.037 468.437, 1071.884 471.154, 1078.246 474.543 C 1083.692 477.444, 1090 482.566, 1090 484.087 C 1090 485.057, 1097.004 492, 1097.983 492 C 1098.414 492, 1100.281 494.011, 1102.133 496.469 C 1103.985 498.927, 1105.862 500.952, 1106.305 500.969 C 1107.134 501.001, 1114.338 504.342, 1117 505.930 C 1117.825 506.422, 1120.576 507.553, 1123.114 508.443 C 1127.487 509.977, 1135 516.211, 1135 518.305 C 1135 518.901, 1138.508 519.077, 1144.067 518.760 C 1152.187 518.297, 1153.584 517.920, 1157.456 515.139 C 1159.833 513.432, 1162.841 511.621, 1164.139 511.116 C 1165.830 510.459, 1167.334 508.112, 1169.437 502.849 C 1171.053 498.807, 1173.328 493.925, 1174.493 492 C 1175.657 490.075, 1177.187 486.520, 1177.890 484.100 C 1179.459 478.707, 1183.364 472.647, 1186.663 470.485 C 1189.449 468.660, 1193.003 461.182, 1192.994 457.167 C 1192.990 455.700, 1192.252 453.150, 1191.352 451.500 C 1190.453 449.850, 1188.702 446.475, 1187.462 444 C 1183.150 435.390, 1180.260 433.794, 1172.500 435.731" stroke="#bbc0d1" fill="#bbc0d1" fill-opacity="0.2" fill-rule="evenodd"/>
    </svg>