<svg xmlns="http://www.w3.org/2000/svg" width="1921" height="1027" viewBox="0 0 1921 1027" version="1.1">
    <path class="svg-region-PV" d="M 1104.656 486.678 C 1104.313 487.020, 1101.888 487.839, 1099.266 488.497 C 1095.781 489.372, 1094.154 490.396, 1093.214 492.308 C 1092.284 494.200, 1090.901 495.084, 1088.214 495.506 C 1079.966 496.800, 1069.914 501.271, 1065.179 505.750 C 1063.363 507.468, 1054.706 507.322, 1050.346 505.500 C 1048.371 504.675, 1044.517 504, 1041.782 504 C 1036.872 504, 1027.140 501.816, 1023.763 499.956 C 1017.002 496.232, 1002.416 494.636, 997.787 497.114 C 996.181 497.974, 994.374 497.824, 989.863 496.458 C 984.593 494.863, 983.650 494.834, 980.257 496.167 C 977.044 497.429, 976.009 497.446, 973.166 496.286 C 970.144 495.053, 969.264 495.157, 963.613 497.418 C 951.345 502.326, 938.981 504.390, 921.500 504.447 C 909.855 504.486, 904.547 504.112, 902 503.075 C 899.408 502.020, 892.144 501.549, 874 501.259 C 851.967 500.907, 849.072 500.664, 845.254 498.847 C 841.344 496.986, 837.824 493.649, 836.659 490.700 C 836.385 490.005, 833.725 492.059, 830.343 495.576 C 822.988 503.225, 819.838 505.386, 812.980 507.490 C 809.966 508.414, 805.050 510.314, 802.056 511.711 C 797.231 513.963, 795.814 514.177, 789.578 513.597 C 780.157 512.722, 780.056 512.626, 801.506 524.891 C 805.729 527.306, 809.931 530.023, 810.843 530.929 C 813.319 533.389, 819.747 538, 820.701 538 C 821.160 538, 823.191 539.125, 825.215 540.500 C 830.426 544.041, 831.632 543.746, 832.354 538.750 C 834.337 525.029, 835.820 521.128, 839.990 518.665 C 844.324 516.105, 847.790 516.644, 854.997 520.998 C 858.961 523.393, 863.889 525.417, 867.286 526.045 C 870.405 526.622, 874.968 527.983, 877.425 529.070 C 881.604 530.918, 882.873 530.981, 896.995 530.033 C 905.301 529.475, 912.945 528.565, 913.982 528.009 C 915.020 527.454, 921.861 526.976, 929.184 526.946 C 946.911 526.874, 956.566 525.756, 961.938 523.151 C 965.894 521.234, 968.011 521.005, 981.438 521.044 C 992.794 521.077, 997.484 521.480, 1000.500 522.681 C 1007.043 525.286, 1014.462 525.515, 1018.333 523.231 C 1029.638 516.561, 1042.342 515.111, 1050.672 519.540 C 1056.516 522.648, 1058.968 522.404, 1060.967 518.517 C 1061.810 516.876, 1063.175 514.978, 1064 514.298 C 1066.302 512.404, 1079.560 512.748, 1090.653 514.991 C 1096.069 516.085, 1101.464 516.985, 1102.643 516.991 C 1106.699 517.008, 1107.117 523.344, 1103.468 529.500 C 1098.473 537.926, 1098.490 537.866, 1100.315 540.957 C 1103.032 545.555, 1102.392 547.379, 1095.964 553.373 C 1092.644 556.468, 1090.160 559, 1090.444 559 C 1090.727 559, 1092.656 558.362, 1094.730 557.583 C 1096.803 556.804, 1102.721 555.883, 1107.879 555.537 C 1118.011 554.858, 1120.168 554.054, 1131.751 546.636 C 1135.463 544.259, 1140.991 541.113, 1144.035 539.645 C 1150.387 536.582, 1159 529.108, 1159 526.659 C 1159 525.395, 1158.064 525, 1155.071 525 C 1151.049 525, 1148 523.029, 1148 520.429 C 1148 519.643, 1147.581 519, 1147.070 519 C 1146.558 519, 1145.995 517.987, 1145.820 516.750 C 1145.543 514.800, 1144.834 514.467, 1140.500 514.253 C 1135.001 513.981, 1128 512.114, 1128 510.919 C 1128 510.501, 1126.742 509.883, 1125.203 509.545 C 1121.761 508.789, 1113.997 502.591, 1111.210 498.374 C 1110.073 496.654, 1108.649 493.411, 1108.045 491.166 C 1106.934 487.042, 1105.797 485.536, 1104.656 486.678" stroke="#b09658" fill="#b09658" fill-opacity="0.2" fill-rule="evenodd"/><path class="svg-region-Fl" d="M 848.493 403.362 C 847.015 406.900, 844.163 407.963, 836.079 407.989 C 834.197 407.995, 831.947 408.634, 831.079 409.408 C 828.500 411.708, 814.055 419, 812.078 419 C 811.073 419, 808.282 419.733, 805.876 420.628 C 803.469 421.524, 797.450 422.645, 792.500 423.121 C 777.908 424.521, 771.741 425.589, 767.571 427.436 C 763.759 429.125, 760.330 429.131, 753.744 427.463 C 752.029 427.028, 750.415 427.241, 749.469 428.026 C 748.112 429.152, 748.120 429.475, 749.540 431.044 C 750.415 432.011, 752.670 433.091, 754.552 433.444 C 756.433 433.797, 759.891 434.956, 762.236 436.021 C 764.581 437.085, 768.750 437.986, 771.500 438.022 C 774.250 438.058, 778.300 438.499, 780.500 439.002 C 782.700 439.506, 788.512 440.833, 793.415 441.952 C 798.319 443.071, 803.269 444.662, 804.415 445.486 C 805.562 446.311, 807.599 447.777, 808.941 448.743 C 810.508 449.871, 814.270 450.747, 819.441 451.188 C 823.874 451.567, 829.525 452.386, 832 453.008 C 834.475 453.630, 838.939 454.478, 841.919 454.891 C 846.389 455.511, 847.834 456.236, 850.169 459.034 C 851.789 460.974, 853 463.617, 853 465.212 C 853 466.746, 853.232 468, 853.515 468 C 854.983 468, 865.944 461.271, 868.841 458.591 C 870.679 456.891, 873.679 452.575, 875.507 449 C 877.335 445.425, 881.155 440.250, 883.996 437.500 C 889.116 432.544, 892.154 427.821, 893.322 423 C 893.719 421.361, 895.477 419.684, 898.426 418.131 C 905.434 414.441, 906.677 407.604, 901.231 402.700 C 899.529 401.168, 896.645 400.811, 881.866 400.307 C 865.327 399.742, 864.333 399.816, 861 401.853 C 856.727 404.465, 856.839 404.462, 854 402 C 850.860 399.277, 850.124 399.459, 848.493 403.362" stroke="#5ca7a9" fill="#5ca7a9" fill-opacity="0.2" fill-rule="evenodd"/><path class="svg-region-Fr" d="M 1069.773 401.690 C 1069.543 402.136, 1068.794 404.300, 1068.110 406.500 C 1066.977 410.144, 1067.098 411.022, 1069.473 416.369 C 1070.907 419.598, 1073.187 423.690, 1074.540 425.464 C 1075.893 427.238, 1077 429.681, 1077 430.894 C 1077 433.924, 1079.534 438.560, 1082.217 440.439 C 1083.614 441.418, 1086.608 442, 1090.247 442 C 1096.034 442, 1096.056 442.012, 1098.704 446.396 C 1102.023 451.890, 1106.766 453.684, 1113.860 452.130 C 1116.412 451.571, 1123.627 450.149, 1129.894 448.970 C 1140.353 447.002, 1142.641 446.379, 1148.500 443.907 C 1154.041 441.569, 1161.680 439.001, 1163.095 439.001 C 1165.335 439, 1168.464 435.405, 1167.009 434.505 C 1166.392 434.124, 1161.288 433.958, 1155.668 434.137 C 1146.787 434.420, 1144.993 434.193, 1141.960 432.404 C 1140.041 431.272, 1136.386 429.549, 1133.838 428.576 C 1131.290 427.603, 1127.696 425.236, 1125.852 423.317 C 1122.773 420.113, 1111.387 414, 1108.497 414 C 1107.822 414, 1106.175 413.139, 1104.838 412.087 C 1103.500 411.035, 1099.847 409.430, 1096.721 408.521 C 1093.595 407.612, 1090.777 406.448, 1090.459 405.934 C 1090.142 405.420, 1089.121 404.997, 1088.191 404.994 C 1087.261 404.990, 1085.326 404.375, 1083.892 403.627 C 1080.738 401.981, 1070.359 400.557, 1069.773 401.690" stroke="#5ca7a9" fill="#5ca7a9" fill-opacity="0.2" fill-rule="evenodd"/><path class="svg-region-DV" d="M 902.192 400.860 C 901.156 401.517, 901.329 402.444, 903.027 405.322 C 906.144 410.603, 904.526 415.083, 898.439 418.030 C 895.318 419.541, 893.802 420.975, 893.354 422.841 C 892.163 427.807, 889.175 432.487, 883.996 437.500 C 881.155 440.250, 877.335 445.425, 875.507 449 C 871.499 456.838, 867.539 460.733, 859.250 464.992 C 854.883 467.235, 853 468.779, 853 470.114 C 853 471.933, 847.299 478.718, 840.250 485.291 C 836.454 488.830, 836.216 490.734, 839.109 494.411 C 843.632 500.161, 847.183 500.869, 873.500 501.262 C 892.826 501.550, 898.766 501.974, 904 503.436 C 916.934 507.049, 947.242 504.017, 963.399 497.494 C 968.860 495.289, 969.598 495.216, 973.353 496.509 C 975.583 497.278, 977.878 497.540, 978.454 497.091 C 980.914 495.174, 985.406 494.974, 990.207 496.569 C 994.105 497.863, 995.741 497.983, 997.649 497.114 C 1002.973 494.688, 1016.963 496.211, 1023.763 499.956 C 1027.048 501.765, 1036.814 504, 1041.436 504 C 1043.982 504, 1047.680 504.675, 1049.654 505.500 C 1054.974 507.723, 1063.148 507.458, 1066.323 504.961 C 1070.719 501.503, 1082.339 496.042, 1085.500 495.948 C 1089.848 495.819, 1091.935 494.764, 1093.315 491.995 C 1094.202 490.216, 1095.692 489.352, 1098.783 488.824 C 1101.119 488.425, 1103.474 487.825, 1104.015 487.491 C 1106.040 486.239, 1104.878 482.752, 1101.082 478.691 C 1095.167 472.364, 1093.191 469.611, 1092.451 466.662 C 1092.081 465.187, 1091.378 463.734, 1090.889 463.432 C 1090.400 463.129, 1090 461.784, 1090 460.441 C 1090 459.098, 1089.550 458, 1089 458 C 1087.327 458, 1087.883 454.416, 1089.829 452.655 C 1090.981 451.612, 1093.385 451, 1096.329 451 C 1098.898 451, 1101 450.766, 1101 450.480 C 1101 450.194, 1099.869 448.169, 1098.487 445.980 C 1096.032 442.091, 1095.843 442, 1090.210 442 C 1086.604 442, 1083.610 441.415, 1082.217 440.439 C 1079.534 438.560, 1077 433.924, 1077 430.894 C 1077 429.681, 1075.945 427.296, 1074.656 425.594 C 1073.367 423.892, 1071.059 419.695, 1069.527 416.268 C 1067.057 410.739, 1066.883 409.697, 1067.985 407.036 C 1070.077 401.985, 1068.815 400.638, 1062.733 401.432 C 1059.855 401.808, 1053.225 402.499, 1048 402.967 C 1042.775 403.435, 1035.125 404.562, 1031 405.473 C 1023.144 407.207, 1018.059 407.089, 1005 404.868 C 997.371 403.571, 995.204 403.526, 963.500 404.001 C 942.961 404.309, 928.034 403.418, 919.856 401.396 C 913.622 399.854, 904.227 399.569, 902.192 400.860" stroke="#45567a" fill="#45567a" fill-opacity="0.2" fill-rule="evenodd"/><path class="svg-region-VV" d="M 1063.750 514.392 C 1062.787 515.123, 1062 516.155, 1062 516.686 C 1062 517.217, 1060.913 518.672, 1059.585 519.920 C 1056.903 522.440, 1054.884 522.216, 1049.185 518.764 C 1046.381 517.066, 1044.603 516.823, 1037.657 517.187 C 1030.634 517.556, 1028.347 518.168, 1021.865 521.415 C 1015.356 524.676, 1013.593 525.145, 1009.392 524.736 C 1006.702 524.475, 1002.700 523.547, 1000.500 522.674 C 997.471 521.473, 992.716 521.077, 980.917 521.044 C 972.346 521.020, 965.013 521.321, 964.621 521.713 C 964.229 522.105, 961.791 523.252, 959.204 524.262 C 955.457 525.725, 950.534 526.217, 935 526.682 C 924.275 527.003, 914.777 527.637, 913.894 528.091 C 913.011 528.545, 905.710 529.383, 897.671 529.954 C 884.266 530.906, 882.659 530.837, 878.277 529.114 C 875.650 528.082, 870.800 526.679, 867.500 525.998 C 864.089 525.293, 858.723 523.085, 855.063 520.879 C 847.801 516.503, 844.230 516.077, 839.467 519.020 C 835.683 521.359, 835.472 521.802, 833.439 531.640 C 831.084 543.041, 832.516 547.351, 840 551.388 C 841.925 552.426, 845.101 554.795, 847.057 556.652 C 851.168 560.555, 855.383 562, 862.658 562 C 867.020 562, 869.762 562.979, 880.165 568.250 C 894.371 575.448, 894.400 575.461, 911 582.129 C 917.875 584.891, 924.850 587.753, 926.500 588.489 C 930.704 590.365, 935.738 591.754, 941 592.490 C 943.475 592.836, 948.772 593.815, 952.771 594.665 C 962.505 596.734, 1002.977 596.046, 1013.412 593.634 C 1019.236 592.288, 1027.687 588.820, 1034 585.186 C 1034.825 584.711, 1037.975 583.172, 1041 581.766 C 1044.025 580.359, 1050.100 577.538, 1054.500 575.495 C 1058.900 573.453, 1066.924 570.376, 1072.331 568.659 C 1082.583 565.403, 1086.433 562.866, 1097.250 552.237 C 1102.344 547.231, 1102.893 545.320, 1100.431 541.152 C 1098.708 538.235, 1099.029 537.003, 1103.471 529.500 C 1106.044 525.154, 1106.794 518.164, 1104.750 517.580 C 1104.063 517.383, 1098.318 516.272, 1091.984 515.111 C 1078.844 512.702, 1066.394 512.385, 1063.750 514.392" stroke="#7699d1" fill="#7699d1" fill-opacity="0.2" fill-rule="evenodd"/><path class="svg-region-PNl" d="M 730 426.268 C 725.380 428.362, 720 433.140, 720 435.150 C 720 436.240, 719.561 437.951, 719.025 438.953 C 717.835 441.176, 719.967 450.100, 722.962 455.432 C 724.083 457.428, 725 459.527, 725 460.097 C 725 463.582, 736.711 473, 741.044 473 C 743.147 473, 753 480.943, 753 482.638 C 753 483.504, 754.090 485.070, 755.423 486.118 C 756.756 487.167, 758.164 489.469, 758.552 491.236 C 759.447 495.311, 763.236 501.349, 766.208 503.439 C 767.469 504.325, 770.300 505.535, 772.500 506.127 C 774.700 506.720, 778.468 508.531, 780.873 510.152 C 787.306 514.486, 795.865 515.140, 802 511.766 C 804.475 510.404, 808.004 509.003, 809.841 508.652 C 816.994 507.285, 823.220 502.991, 833.654 492.227 C 854.322 470.904, 853 472.631, 853 466.959 C 853 459.867, 849.332 455.914, 841.820 454.909 C 838.894 454.518, 833.800 453.494, 830.500 452.635 C 827.200 451.775, 822.192 451.055, 819.372 451.036 C 813.875 450.997, 808.136 449.074, 806.062 446.575 C 804.799 445.053, 799.237 443.185, 789.500 441.014 C 786.750 440.401, 782.700 439.491, 780.500 438.993 C 778.300 438.495, 774.250 438.058, 771.500 438.022 C 768.750 437.986, 764.648 437.115, 762.384 436.087 C 760.120 435.059, 756.760 433.887, 754.917 433.482 C 753.074 433.077, 749.977 431.522, 748.033 430.027 C 744.513 427.318, 737.966 424.939, 734.384 425.068 C 733.348 425.105, 731.375 425.645, 730 426.268" stroke="#bbc0d1" fill="#bbc0d1" fill-opacity="0.2" fill-rule="evenodd"/><path class="svg-region-PNr" d="M 1191 427.932 C 1187.425 430.128, 1183.514 431.941, 1182.309 431.962 C 1181.104 431.983, 1179.810 432.498, 1179.433 433.108 C 1179.011 433.791, 1177.281 433.981, 1174.915 433.602 C 1171.614 433.075, 1170.606 433.407, 1167.659 435.995 C 1165.776 437.648, 1163.719 439, 1163.086 439 C 1161.556 439, 1149.770 442.981, 1148.500 443.927 C 1146.900 445.119, 1137.060 447.853, 1130 449.068 C 1126.425 449.683, 1121.025 450.651, 1118 451.219 C 1111.874 452.368, 1109.740 452.393, 1099.206 451.433 C 1093.024 450.871, 1091.614 451.039, 1089.956 452.540 C 1087.909 454.392, 1087.278 458, 1089 458 C 1089.550 458, 1090 459.098, 1090 460.441 C 1090 461.784, 1090.415 463.139, 1090.923 463.452 C 1091.431 463.766, 1092.143 465.374, 1092.505 467.025 C 1092.868 468.676, 1095.265 472.318, 1097.832 475.118 C 1103.635 481.448, 1106.702 486.331, 1108.114 491.491 C 1109.217 495.520, 1111.511 499.296, 1115.386 503.463 C 1117.702 505.954, 1124.727 510, 1126.735 510 C 1127.431 510, 1128 510.378, 1128 510.840 C 1128 512.099, 1134.840 513.972, 1140.460 514.253 C 1144.454 514.452, 1145.525 514.889, 1145.963 516.500 C 1146.262 517.600, 1147.304 519.962, 1148.279 521.750 C 1149.994 524.894, 1150.260 525, 1156.460 525 L 1162.869 525 1179.685 508.101 C 1197.350 490.348, 1203 483.461, 1203 479.681 C 1203 476.454, 1204.844 475.001, 1208.950 474.994 C 1213.857 474.985, 1222 468.135, 1222 464.017 C 1222 461.483, 1223.256 458.321, 1227.630 449.846 C 1229.591 446.046, 1229.467 445.438, 1224.755 435.786 C 1221.977 430.097, 1219.921 427.059, 1218.833 427.036 C 1217.917 427.016, 1217.017 426.582, 1216.833 426.071 C 1216.650 425.561, 1212.225 424.872, 1207 424.542 L 1197.500 423.940 1191 427.932" stroke="#bbc0d1" fill="#bbc0d1" fill-opacity="0.2" fill-rule="evenodd"/>
    </svg>