<svg xmlns="http://www.w3.org/2000/svg" width="1785" height="1131" viewBox="0 0 1785 1131" version="1.1">
    <path class="svg-region-SB" d="M 876.500 734.672 C 862.984 737.646, 851.988 750.016, 852.009 762.221 C 852.026 771.575, 859.225 780.999, 871 787.084 C 877.482 790.434, 885.376 790.259, 894.950 786.555 C 908.073 781.477, 916.780 770.466, 915.793 760.195 C 915.128 753.277, 909.443 742.308, 905.057 739.479 C 899.059 735.612, 883.858 733.053, 876.500 734.672" stroke="#d2e400" fill="#d2e400" fill-opacity="0.2" fill-rule="evenodd"/><path class="svg-region-Ol" d="M 1185.500 509.044 C 1169.942 511.724, 1167.737 512.651, 1152.687 522.850 C 1147.290 526.508, 1141.025 530.516, 1138.764 531.759 C 1129.540 536.826, 1101.156 564.442, 1098.027 571.393 C 1089.997 589.231, 1091.154 602.331, 1102.289 619.650 C 1106.633 626.407, 1117.479 637.938, 1121.702 640.291 C 1122.895 640.956, 1126.311 643.168, 1129.292 645.208 C 1132.273 647.247, 1136.914 649.785, 1139.606 650.848 C 1142.298 651.910, 1148.260 654.619, 1152.856 656.867 C 1166.503 663.541, 1180.539 664.433, 1192.601 659.393 C 1198.145 657.077, 1213.934 646.395, 1219.417 641.251 C 1222.213 638.628, 1226.238 635.187, 1228.362 633.604 C 1232.018 630.881, 1253.231 610.072, 1255.615 606.871 C 1259.051 602.256, 1263.009 590.570, 1262.982 585.120 C 1262.962 581.348, 1260.361 565.393, 1259.551 564.083 C 1259.296 563.670, 1258.834 561.898, 1258.525 560.145 C 1257.776 555.889, 1252.818 545.788, 1249.320 541.388 C 1244.016 534.716, 1232.502 522.787, 1230.500 521.889 C 1229.400 521.396, 1226.475 519.410, 1224 517.477 C 1212.107 508.187, 1202.585 506.102, 1185.500 509.044" stroke="#aa444d" fill="#aa444d" fill-opacity="0.2" fill-rule="evenodd"/><path class="svg-region-Or" d="M 554.826 482.641 C 547.587 485.071, 546.615 485.769, 537.713 494.933 C 526.493 506.483, 523.989 511.666, 524.017 523.288 C 524.043 534.084, 526.302 542.780, 532.371 555.451 C 538.902 569.086, 543.817 575.991, 552.098 583.161 C 555.489 586.097, 560.567 590.635, 563.382 593.244 C 569.696 599.097, 580.440 604.480, 588.817 605.989 C 603.224 608.584, 621.309 603.216, 636.871 591.724 C 644.490 586.098, 648.991 581.052, 656.248 570 C 662.578 560.360, 664.192 555.489, 664.216 545.957 C 664.236 538.397, 663.887 536.720, 661.187 531.371 C 657.580 524.225, 653.022 519.933, 646.355 517.404 C 643.685 516.391, 639.700 514.360, 637.500 512.891 C 635.300 511.422, 628.791 508.366, 623.037 506.101 C 617.282 503.836, 610.879 500.862, 608.808 499.492 C 606.737 498.121, 604.696 496.999, 604.271 496.999 C 603.847 496.998, 601.475 495.183, 599 492.965 C 585.379 480.761, 570.669 477.323, 554.826 482.641" stroke="#aa444d" fill="#aa444d" fill-opacity="0.2" fill-rule="evenodd"/>
    </svg>