<svg xmlns="http://www.w3.org/2000/svg" width="1785" height="1131" viewBox="0 0 1785 1131" version="1.1">
    <path class="svg-region-V" d="M 728.500 288.769 C 721.444 290.343, 718.279 301.250, 718.134 324.500 C 718.086 332.200, 717.519 345.475, 716.873 354 L 715.698 369.500 718.822 376.790 C 721.879 383.927, 725.980 389.614, 738.928 404.670 C 745.456 412.261, 763.978 428, 766.384 428 C 770.228 428, 791.938 448.078, 793.535 453.110 C 794.894 457.393, 801.118 464.867, 805.785 467.821 C 808.378 469.463, 813.016 471.355, 816.091 472.026 C 823.295 473.599, 852.494 472.944, 855.799 471.136 C 857.063 470.444, 862.688 469.474, 868.299 468.980 C 873.909 468.486, 880.075 467.808, 882 467.473 C 883.925 467.139, 893.280 466.835, 902.788 466.799 L 920.076 466.734 926.052 469.867 C 929.340 471.590, 932.796 473, 933.733 473 C 934.670 473, 936.392 474.112, 937.560 475.471 C 940.972 479.442, 951.942 486.465, 959.326 489.406 L 966.152 492.124 972.820 489.970 C 977.733 488.383, 981.108 486.393, 985.648 482.408 C 989.035 479.434, 992.250 477, 992.790 477 C 993.330 477, 996.112 474.804, 998.972 472.119 C 1003.777 467.608, 1004.384 467.319, 1006.989 468.302 C 1012.615 470.426, 1035.263 463.577, 1060 452.271 C 1069.301 448.021, 1090.737 434.896, 1097.527 429.295 C 1105.335 422.855, 1108 418.094, 1108 410.587 C 1108 405.784, 1107.671 404.867, 1105.381 403.297 C 1103.940 402.309, 1101.751 400.488, 1100.516 399.250 C 1099.281 398.012, 1097.258 397, 1096.020 397 C 1094.781 397, 1091.683 396.332, 1089.134 395.515 C 1086.585 394.698, 1081.800 393.301, 1078.500 392.410 C 1075.200 391.519, 1071.825 390.532, 1071 390.216 C 1070.175 389.900, 1066.125 389.091, 1062 388.419 C 1053.898 387.099, 1046.222 387.822, 1038 390.680 C 1030.669 393.228, 1015.694 398.601, 1013 399.650 C 1011.625 400.185, 1007.210 400.570, 1003.190 400.504 C 999.169 400.439, 995.655 400.749, 995.381 401.193 C 995.107 401.637, 992.321 402.009, 989.191 402.021 C 986.061 402.032, 980.575 402.757, 977 403.630 C 973.425 404.504, 968.700 405.175, 966.500 405.122 C 964.300 405.069, 958.675 405.523, 954 406.132 C 949.325 406.740, 944.825 407.212, 944 407.180 C 939.903 407.022, 921.967 410.432, 918.123 412.100 C 915.690 413.156, 911.452 414, 908.581 414 C 903.801 414, 903.118 413.684, 899.407 409.750 C 897.202 407.413, 892.860 402.125, 889.757 398 C 882.371 388.182, 879.630 385.287, 872.944 380.244 C 866.568 375.434, 858.436 366.571, 855.461 361.189 C 854.339 359.160, 852.202 355.708, 850.711 353.518 C 849.220 351.328, 848 349.222, 848 348.839 C 848 346.636, 835.281 329.780, 824.945 318.284 C 819.810 312.572, 804.976 302.145, 800.797 301.309 C 799.259 301.002, 798 300.409, 798 299.992 C 798 299.574, 796.987 298.992, 795.750 298.698 C 791.728 297.741, 785.964 295.364, 784.768 294.168 C 784.126 293.526, 782.535 293, 781.234 293 C 779.933 293, 778.065 292.570, 777.083 292.044 C 772.302 289.486, 760.020 287.969, 745.500 288.143 C 737.250 288.242, 729.600 288.524, 728.500 288.769" stroke="#dd8a8a" fill="#dd8a8a" fill-opacity="0.2" fill-rule="evenodd"/><path class="svg-region-SB" d="M 862 721.862 C 861.175 722.382, 858.775 723.079, 856.668 723.411 C 849.123 724.601, 837.744 730.524, 830.682 736.940 C 826.284 740.935, 821.118 749.239, 819.366 755.132 C 817.188 762.456, 817.260 778.970, 819.495 785 C 820.413 787.475, 821.414 790.562, 821.720 791.861 C 822.025 793.159, 824.946 797.076, 828.211 800.566 C 834.967 807.789, 839.412 809.888, 853.554 812.538 C 863.827 814.463, 878.559 814.066, 887 811.636 C 893.568 809.746, 909.086 802.231, 917.673 796.782 C 926.394 791.249, 930.433 784.347, 931.344 773.424 C 932.382 760.981, 927.853 747.182, 921.102 742.220 C 919.396 740.966, 918 739.279, 918 738.470 C 918 737.662, 917.492 737, 916.871 737 C 916.250 737, 914.003 735.429, 911.877 733.508 C 907.611 729.654, 902.801 727.213, 893 723.927 C 885.863 721.535, 864.751 720.128, 862 721.862" stroke="#d2e400" fill="#d2e400" fill-opacity="0.2" fill-rule="evenodd"/><path class="svg-region-Ol" d="M 1178.500 500.710 C 1175.200 501.501, 1170.925 502.764, 1169 503.516 C 1162.490 506.059, 1146.839 508.651, 1125.500 510.721 C 1122.750 510.987, 1120.050 511.551, 1119.500 511.972 C 1118.950 512.394, 1116.700 513.064, 1114.500 513.462 C 1108.242 514.592, 1100.749 518.734, 1095.742 523.832 C 1093.221 526.400, 1084.710 535.048, 1076.829 543.052 C 1068.948 551.055, 1061.150 559.605, 1059.500 562.052 C 1057.850 564.498, 1055.938 567.095, 1055.250 567.821 C 1054.563 568.548, 1053.980 569.448, 1053.956 569.821 C 1053.932 570.195, 1053.509 572.525, 1053.016 575 C 1051.708 581.556, 1054.235 588.678, 1061.883 600 C 1065.413 605.225, 1069.292 610.625, 1070.503 612 C 1071.715 613.375, 1074.435 617.425, 1076.549 621 C 1078.663 624.575, 1081.205 628.429, 1082.197 629.564 C 1083.188 630.700, 1084 632.162, 1084 632.814 C 1084 633.467, 1084.390 634, 1084.867 634 C 1085.344 634, 1086.902 635.765, 1088.329 637.922 C 1092.525 644.262, 1107.435 661.631, 1113.187 666.880 C 1118.938 672.128, 1129.524 679.253, 1137.500 683.243 C 1144.038 686.514, 1151.531 688.610, 1162 690.098 C 1169.317 691.137, 1171.683 691.070, 1179 689.611 C 1195.778 686.266, 1210.219 677.390, 1229.022 658.866 C 1251.157 637.060, 1259.459 626.077, 1264.073 612.500 C 1267.442 602.584, 1267.495 584.279, 1264.190 572 C 1255.346 539.143, 1228.602 505.789, 1206.500 500.050 C 1200.978 498.616, 1185.734 498.975, 1178.500 500.710" stroke="#aa444d" fill="#aa444d" fill-opacity="0.2" fill-rule="evenodd"/><path class="svg-region-Or" d="M 526 450.338 C 516.832 452.763, 510.229 457.884, 502.134 468.843 C 492.383 482.047, 488 496.316, 488 514.860 C 488 529.565, 491.680 545.659, 496.948 554 C 498.164 555.925, 501.001 560.650, 503.253 564.500 C 508.116 572.815, 522.131 589.405, 528.195 594.024 C 530.563 595.828, 533.175 598.026, 534 598.910 C 539.541 604.844, 556.830 614.590, 570.446 619.456 C 588.858 626.035, 607.242 627.802, 623.646 624.568 C 639.056 621.531, 642.343 620.244, 654.500 612.487 C 661.697 607.895, 679 590.771, 679 588.240 C 679 587.253, 679.610 585.557, 680.355 584.473 C 685.153 577.488, 689.122 557.986, 687.983 546.996 C 687.079 538.273, 682.523 528.639, 676.823 523.396 C 674.369 521.138, 668.567 517.551, 663.930 515.423 C 644.802 506.647, 625.784 496.632, 618.865 491.692 C 614.814 488.800, 608.248 484.423, 604.274 481.967 C 600.300 479.510, 593.775 474.451, 589.774 470.725 C 585.747 466.975, 577.165 460.724, 570.550 456.725 L 558.601 449.500 544.550 449.324 C 536.275 449.220, 528.650 449.637, 526 450.338" stroke="#aa444d" fill="#aa444d" fill-opacity="0.2" fill-rule="evenodd"/>
    </svg>