<svg xmlns="http://www.w3.org/2000/svg" width="1785" height="1131" viewBox="0 0 1785 1131" version="1.1">
    <path class="svg-region-V" d="M 735.500 291.701 C 726.986 292.184, 718.776 294.177, 712 297.404 C 708.425 299.107, 705.375 300.764, 705.221 301.086 C 705.068 301.408, 703.333 303.429, 701.367 305.576 C 697.734 309.542, 693.490 317.031, 691.780 322.491 C 690.675 326.021, 689.389 334.755, 688.023 348 C 687.485 353.225, 686.673 359.525, 686.218 362 C 685.639 365.154, 685.778 367.248, 686.681 369 C 687.390 370.375, 687.977 372.317, 687.985 373.316 C 687.993 374.314, 688.479 376.026, 689.064 377.120 C 689.650 378.214, 690.573 381.867, 691.116 385.237 C 692.628 394.628, 696.630 400.567, 706.213 407.638 C 708.805 409.551, 713.054 414.014, 715.655 417.558 C 718.257 421.101, 720.732 424, 721.156 424 C 722.033 424, 730 435.456, 730 436.717 C 730 437.172, 731.365 439.200, 733.033 441.224 C 734.702 443.249, 737.258 447.514, 738.714 450.702 C 740.170 453.891, 742.871 458.866, 744.716 461.757 C 748.229 467.263, 760.270 477.996, 762.945 478.006 C 764.469 478.012, 765.943 478.693, 773 482.648 C 778.244 485.587, 793.882 490.342, 799 490.553 C 801.475 490.656, 805.155 490.798, 807.179 490.870 C 809.202 490.941, 811.512 491.655, 812.313 492.456 C 813.587 493.730, 814.511 493.169, 819.724 487.956 C 824.933 482.747, 826.162 482, 829.524 482 C 831.639 482, 835.198 481.175, 837.434 480.167 C 845.267 476.636, 848.581 475.890, 851.501 477 C 853.538 477.775, 854.637 477.716, 855.775 476.771 C 856.778 475.939, 860.890 475.466, 867.672 475.401 C 877.754 475.305, 878.054 475.366, 878.627 477.651 C 879.246 480.118, 880.458 480.687, 881.500 479 C 882.563 477.280, 893.118 477.797, 895.188 479.670 C 896.543 480.896, 899.758 481.503, 907.267 481.951 C 916.812 482.520, 924 484.592, 924 486.776 C 924 487.174, 925.237 487.569, 926.750 487.652 C 931.559 487.919, 937.999 489.691, 939.779 491.238 C 941.595 492.816, 954.264 494.402, 955.466 493.201 C 955.852 492.816, 962.093 492.442, 969.334 492.372 C 988.509 492.185, 1006.819 490.502, 1011.500 488.495 C 1024.665 482.853, 1044.822 461.078, 1047.597 449.500 C 1048.826 444.375, 1055.884 435, 1058.514 435 C 1059.131 435, 1062.305 432.448, 1065.568 429.330 C 1068.830 426.211, 1071.939 423.624, 1072.475 423.580 C 1073.011 423.536, 1075.633 419.225, 1078.302 414 C 1083.771 403.291, 1085.553 401.057, 1090.759 398.379 C 1094.778 396.312, 1100 391.520, 1100 389.899 C 1100 389.331, 1101.043 387.434, 1102.318 385.683 C 1103.592 383.932, 1105.730 380.250, 1107.068 377.500 C 1108.405 374.750, 1110.068 372.137, 1110.762 371.694 C 1111.456 371.250, 1113.143 368.678, 1114.512 365.977 C 1118.949 357.220, 1117.679 341.436, 1111.760 331.781 C 1106.866 323.798, 1099.655 319.085, 1089.311 317.107 C 1080.298 315.383, 1052.655 315.560, 1037.500 317.437 C 1030.350 318.323, 1020.066 319.481, 1014.646 320.010 C 1006.559 320.800, 1003.832 321.521, 999.448 324.030 C 994.344 326.950, 989 332.096, 989 334.091 C 989 335.834, 982.525 338.992, 978.946 338.996 C 976.706 338.999, 973.634 337.885, 970.637 335.985 C 959.915 329.185, 954.375 327, 947.857 327 C 941.786 327, 941.565 327.097, 937.208 331.643 L 932.760 336.286 933.357 343.893 C 933.685 348.077, 934.213 352.850, 934.530 354.500 C 935.037 357.144, 934.104 358.728, 926.671 367.838 C 922.032 373.523, 916.553 381.053, 914.496 384.571 C 912.439 388.089, 910.355 390.720, 909.866 390.417 C 909.377 390.115, 907.447 387.476, 905.577 384.553 C 902.822 380.245, 900.734 378.441, 894.565 375.036 C 890.329 372.698, 885.743 369.262, 884.226 367.290 C 882.727 365.341, 880.216 362.566, 878.647 361.123 C 874.822 357.606, 872.404 352.639, 871.110 345.639 C 869.701 338.017, 865.634 330.730, 860.034 325.792 C 854.033 320.502, 849.373 318.223, 838.722 315.373 C 833.854 314.070, 826.637 311.666, 822.685 310.032 C 813.012 306.030, 804.387 304.102, 793 303.397 C 783.937 302.835, 780.501 301.958, 768 297.018 C 758.495 293.262, 745.487 291.134, 735.500 291.701" stroke="#dd8a8a" fill="#dd8a8a" fill-opacity="0.2" fill-rule="evenodd"/><path class="svg-region-SF" d="M 855.628 476.530 C 854.310 477.494, 853.084 477.602, 851.276 476.915 C 848.623 475.906, 844.139 476.883, 838.500 479.698 C 836.850 480.521, 833.146 481.438, 830.268 481.736 C 825.886 482.188, 824.382 482.918, 821.003 486.230 C 818.785 488.404, 815.596 492.180, 813.917 494.621 C 811.067 498.763, 810.944 499.305, 812.066 502.779 C 814.361 509.887, 815.760 511.746, 819.217 512.287 C 826.188 513.377, 835.578 516.553, 837.250 518.387 C 838.212 519.442, 839 521.087, 839 522.042 C 839 525.025, 842.287 527.739, 848 529.473 C 851.025 530.392, 854.400 531.527, 855.500 531.996 C 856.600 532.465, 858.625 533.084, 860 533.371 C 866.638 534.757, 872.789 536.215, 875.571 537.064 C 877.260 537.579, 884.693 538, 892.089 538 C 904.813 538, 905.735 537.865, 909.245 535.480 C 913.855 532.347, 918.087 531.441, 920.950 532.973 C 923.596 534.389, 930.770 532.956, 938.500 529.466 C 941.250 528.225, 945.262 526.599, 947.415 525.854 C 949.568 525.109, 952.844 523.032, 954.695 521.238 C 957.940 518.093, 958.040 517.769, 957.468 512.238 C 957.142 509.082, 956.473 504.925, 955.983 503 C 955.492 501.075, 954.850 498.316, 954.556 496.869 C 953.962 493.945, 951.803 493.035, 945.405 493.014 C 942.664 493.005, 940.741 492.371, 939.589 491.099 C 938.011 489.355, 933.825 488.250, 926.750 487.710 C 925.237 487.594, 924 487.174, 924 486.776 C 924 484.592, 916.812 482.520, 907.267 481.951 C 899.758 481.503, 896.543 480.896, 895.188 479.670 C 893.109 477.788, 884.087 477.348, 881.038 478.980 C 879.547 479.778, 879.098 479.528, 878.624 477.637 C 878.062 475.400, 877.659 475.312, 867.752 475.251 C 860.637 475.207, 856.898 475.602, 855.628 476.530" stroke="#8c6b55" fill="#8c6b55" fill-opacity="0.2" fill-rule="evenodd"/><path class="svg-region-SB" d="M 873.500 727.664 C 870.200 728.467, 866.150 729.351, 864.500 729.630 C 862.850 729.908, 860.600 730.534, 859.500 731.021 C 858.400 731.508, 854.347 732.813, 850.493 733.923 C 829.682 739.914, 821.595 753.801, 820.748 785 C 820.332 800.330, 825.660 809.178, 840.637 818.024 C 845.270 820.761, 849.277 823, 849.542 823 C 849.806 823, 851.929 823.855, 854.261 824.900 C 864.321 829.409, 873.213 830.239, 883.201 827.600 C 892.012 825.273, 912.640 816.068, 920.298 811.048 C 927.556 806.290, 934 800.454, 934 798.639 C 934 798.099, 934.617 796.947, 935.371 796.079 C 937.574 793.543, 940.867 782.759, 941.588 775.721 C 942.231 769.438, 941.245 762.368, 938.766 755.500 C 936.963 750.503, 930.301 742.301, 925.258 738.870 C 922.641 737.089, 920.275 735.356, 920 735.019 C 918.615 733.322, 905.833 727.905, 901.114 727.015 C 893.671 725.612, 880.681 725.918, 873.500 727.664" stroke="#d2e400" fill="#d2e400" fill-opacity="0.2" fill-rule="evenodd"/><path class="svg-region-Ol" d="M 1122 481.937 C 1121.175 482.349, 1118.263 483.769, 1115.528 485.093 C 1110.198 487.673, 1105.486 491.322, 1094.673 501.239 C 1087.283 508.015, 1085.085 511.459, 1082.523 520.271 C 1079.740 529.846, 1074.123 538.720, 1064.779 548.304 C 1056.526 556.770, 1051.159 564.830, 1052.418 566.868 C 1052.732 567.375, 1052.386 568.021, 1051.651 568.304 C 1049.463 569.143, 1047.911 579.257, 1049.049 585.256 C 1050.625 593.566, 1056.709 603.891, 1065.987 614 C 1067.754 615.925, 1070.617 619.115, 1072.350 621.089 C 1074.082 623.062, 1078.116 626.337, 1081.313 628.366 C 1087.585 632.347, 1088.618 634.036, 1091.487 645 C 1092.422 648.575, 1093.541 652.400, 1093.974 653.500 C 1099.723 668.118, 1101.950 671.262, 1109 674.705 C 1112.025 676.183, 1115.850 678.369, 1117.500 679.564 C 1121.846 682.712, 1149.470 696.080, 1152.238 696.375 C 1153.529 696.513, 1155.194 697.002, 1155.940 697.463 C 1157.971 698.718, 1172.819 698.471, 1179.040 697.078 C 1186.364 695.438, 1203.702 691.323, 1213.262 688.956 C 1227.217 685.500, 1249.576 673.440, 1262 662.666 C 1267.167 658.186, 1275.781 647.366, 1278.583 641.837 C 1279.931 639.177, 1281.476 637, 1282.017 637 C 1282.558 637, 1283 636.155, 1283 635.122 C 1283 634.090, 1283.675 632.685, 1284.500 632 C 1285.325 631.315, 1286 630.319, 1286 629.785 C 1286 629.252, 1286.900 627.671, 1288 626.273 C 1289.100 624.874, 1290 622.946, 1290 621.988 C 1290 621.029, 1290.654 619.702, 1291.453 619.039 C 1294.978 616.114, 1298.252 597.961, 1296.765 589.593 C 1295.729 583.763, 1289.149 570.945, 1281.573 560 C 1274.188 549.330, 1271.315 543.792, 1268.934 535.643 C 1267.787 531.714, 1265.593 526.025, 1264.060 523 C 1262.527 519.975, 1260.704 515.700, 1260.010 513.500 C 1258.418 508.458, 1257.178 507.064, 1248.415 500.468 C 1239.628 493.855, 1232.748 492, 1217.014 492 C 1211.040 492, 1203.981 491.561, 1201.326 491.024 C 1193.900 489.522, 1177.179 486.799, 1170.500 486.005 C 1167.200 485.612, 1161.125 484.528, 1157 483.596 C 1149.109 481.813, 1124.579 480.651, 1122 481.937" stroke="#aa444d" fill="#aa444d" fill-opacity="0.2" fill-rule="evenodd"/><path class="svg-region-Or" d="M 541 434.321 C 537.975 435.028, 534.060 436.370, 532.300 437.303 C 530.539 438.237, 528.380 439, 527.501 439 C 525.980 439, 522.792 440.444, 515 444.661 C 496.661 454.588, 482.046 471.659, 477.897 488 C 475.549 497.244, 476.344 515.201, 479.798 531 C 483.343 547.210, 487.713 561.790, 492.256 572.562 C 496.223 581.967, 505.291 596.033, 510.670 601.125 C 514.937 605.163, 524.695 612, 526.192 612 C 528.911 612, 540.928 617.740, 545.399 621.175 C 563.904 635.391, 593.995 642.180, 618 637.555 C 649.118 631.559, 670.521 621.649, 686.057 606.045 C 697.175 594.878, 702.692 585.289, 704.956 573.194 C 706.086 567.161, 704.197 545.619, 701.125 529.500 C 700.601 526.750, 699.690 521.499, 699.101 517.831 C 698.513 514.162, 697.398 509.212, 696.625 506.831 C 695.852 504.449, 694.908 501.150, 694.528 499.500 C 693.206 493.762, 683.602 476.088, 677.860 468.829 C 674.151 464.139, 665.948 460, 660.363 460 C 658.028 460, 655.808 460.501, 655.430 461.113 C 655.052 461.726, 652.887 463.122, 650.621 464.216 C 648.354 465.309, 644.925 467.058, 643 468.101 C 636.836 471.440, 618.748 470.032, 610 465.533 C 608.075 464.543, 601.401 459.855, 595.169 455.116 C 574.670 439.527, 569.542 435.983, 566 434.957 C 560.173 433.268, 546.942 432.932, 541 434.321" stroke="#aa444d" fill="#aa444d" fill-opacity="0.2" fill-rule="evenodd"/>
    </svg>