<svg xmlns="http://www.w3.org/2000/svg" width="1785" height="1131" viewBox="0 0 1785 1131" version="1.1">
    <path class="svg-region-V" d="M 712 295.969 C 708.975 296.369, 704.101 298.002, 701.169 299.598 C 698.237 301.194, 694.333 303.308, 692.494 304.297 C 682.067 309.898, 674.654 321.566, 673.402 334.346 C 673.135 337.063, 672.535 340.009, 672.067 340.893 C 670.186 344.447, 669.099 356.555, 670.017 363.736 C 670.525 367.715, 670.910 375.444, 670.871 380.912 C 670.817 388.682, 671.265 392.125, 672.926 396.676 C 679.036 413.420, 681.097 416.657, 692.234 427 C 708.068 441.706, 710.218 444.058, 714.425 451.281 C 719.603 460.169, 736.733 476, 741.173 476 C 741.986 476, 745.118 477.913, 748.135 480.250 C 751.151 482.587, 755.167 485.276, 757.060 486.225 C 762.111 488.756, 773.428 493, 775.128 493 C 775.938 493, 777.027 493.358, 777.550 493.796 C 778.907 494.932, 784.559 496.660, 791.374 498.020 L 797.247 499.193 807.874 493.701 C 835.298 479.527, 845.871 477.558, 890 478.406 C 904.575 478.686, 919.875 479.335, 924 479.849 C 928.125 480.363, 935.977 481.317, 941.449 481.969 C 952.068 483.234, 955.180 484.410, 961.500 489.546 C 963.700 491.333, 969.100 495.161, 973.500 498.051 C 977.900 500.941, 981.840 503.876, 982.255 504.574 C 982.856 505.582, 983.624 505.535, 986.005 504.347 C 987.652 503.526, 989 502.509, 989 502.087 C 989 500.680, 996.403 499.104, 1005.500 498.576 C 1018.287 497.833, 1030.340 494.264, 1035.643 489.651 C 1040.083 485.788, 1047.760 475.438, 1050.810 469.203 C 1051.806 467.166, 1053.156 464.600, 1053.810 463.500 C 1054.464 462.400, 1055.448 460.375, 1055.997 459 C 1056.546 457.625, 1057.447 455.825, 1057.998 455 C 1058.550 454.175, 1059.470 452.375, 1060.044 451 C 1062.626 444.807, 1071.032 435.369, 1082 426.349 C 1085.025 423.861, 1092 417.439, 1097.500 412.077 C 1106.682 403.125, 1107.962 401.394, 1113.145 390.914 C 1120.017 377.017, 1121.399 369.993, 1119.970 356.208 C 1118.459 341.617, 1115.435 331.923, 1109.840 323.734 C 1106.596 318.985, 1098.438 312.129, 1095.195 311.428 C 1093.713 311.107, 1091.576 310.401, 1090.446 309.858 C 1087.561 308.473, 1061.500 309.501, 1061.500 311 C 1061.500 311.085, 1060.150 311.300, 1058.500 311.480 C 1056.850 311.659, 1052.575 312.547, 1049 313.454 C 1045.425 314.360, 1038.330 315.507, 1033.233 316.003 C 1028.136 316.498, 1023.632 317.109, 1023.225 317.361 C 1018.697 320.159, 969.084 325.952, 966.500 323.985 C 964.110 322.165, 950.933 319.260, 946.435 319.561 C 936.647 320.215, 927.938 326.919, 923.131 337.500 C 922.382 339.150, 921.357 341.175, 920.855 342 C 920.353 342.825, 919.168 344.794, 918.221 346.376 C 917.275 347.958, 915.476 350.512, 914.224 352.051 C 912.972 353.591, 911.446 356.347, 910.832 358.175 C 910.219 360.004, 909.047 362.275, 908.229 363.221 C 906.844 364.825, 906.444 364.681, 902.391 361.113 C 898.928 358.065, 896.966 357.156, 892.772 356.659 C 889.251 356.242, 886.085 355.035, 883.223 353.018 C 880.868 351.358, 878.555 350, 878.082 350 C 877.259 350, 871.103 340.603, 868.030 334.655 C 867.222 333.090, 863.913 329.195, 860.677 325.999 C 855.273 320.661, 854.251 320.088, 848.146 318.966 C 844.491 318.294, 839.925 317.069, 838 316.243 C 836.075 315.418, 829.775 314.370, 824 313.916 C 812.318 312.996, 805.346 312.014, 793.500 309.620 C 781.326 307.159, 777.940 306.352, 772.500 304.617 C 769.750 303.739, 766.015 303.017, 764.200 303.011 C 762.386 303.005, 759.479 302.265, 757.742 301.366 C 754.453 299.666, 748.391 298.554, 734 297.011 C 729.325 296.510, 723.700 295.906, 721.500 295.671 C 719.300 295.435, 715.025 295.569, 712 295.969" stroke="#dd8a8a" fill="#dd8a8a" fill-opacity="0.2" fill-rule="evenodd"/><path class="svg-region-SF" d="M 848.500 479.406 C 839.373 480.459, 835.292 481.552, 824.538 485.826 C 817.409 488.659, 809.070 492.524, 806.007 494.415 C 802.945 496.305, 799.215 498.159, 797.719 498.534 C 796.224 498.910, 795 499.548, 795 499.952 C 795 501.768, 816.059 517, 818.570 517 C 821.263 517, 834.916 524.521, 835.819 526.501 C 837.576 530.358, 853.459 538.437, 867.500 542.614 C 873.176 544.303, 899.105 545.812, 906.576 544.888 C 909.298 544.552, 913.516 543.314, 915.950 542.138 C 918.384 540.962, 920.874 540, 921.482 540 C 922.091 540, 924.519 538.200, 926.878 536 C 929.237 533.800, 931.940 532, 932.884 532 C 933.828 532, 935.041 531.559, 935.580 531.020 C 937.374 529.226, 954.414 523.774, 960.500 523.047 C 969.970 521.916, 975.871 519.980, 977.965 517.317 C 980.485 514.113, 983.381 506.436, 982.720 504.712 C 982.432 503.962, 979.086 501.469, 975.284 499.172 C 971.483 496.875, 967.473 494.158, 966.374 493.133 C 965.274 492.109, 961.687 489.437, 958.403 487.195 C 952.851 483.405, 951.695 483.037, 941.965 481.967 C 936.209 481.333, 928.350 480.387, 924.500 479.863 C 912.871 478.281, 860.956 477.969, 848.500 479.406" stroke="#8c6b55" fill="#8c6b55" fill-opacity="0.2" fill-rule="evenodd"/><path class="svg-region-SB" d="M 886.500 732.092 C 874.030 733.148, 866.554 735.388, 851.215 742.668 C 839.203 748.367, 830.661 757.481, 822.784 773 C 820.728 777.050, 820.500 778.900, 820.500 791.500 C 820.500 804.008, 820.759 806.140, 822.928 811.500 C 828.129 824.357, 835.991 834.313, 844.500 838.822 C 848.781 841.091, 850.723 841.471, 858 841.465 C 865.205 841.460, 868.634 840.797, 880.500 837.113 C 888.200 834.722, 898.100 831.713, 902.500 830.426 C 923.443 824.299, 926.862 823.154, 931.881 820.586 C 947.230 812.734, 954.128 797.233, 950.549 778.631 C 947.601 763.307, 938.860 748.137, 928.394 740.181 C 923.070 736.134, 921.083 735.431, 909.853 733.619 C 897.163 731.572, 894.614 731.406, 886.500 732.092" stroke="#d2e400" fill="#d2e400" fill-opacity="0.2" fill-rule="evenodd"/><path class="svg-region-Ol" d="M 1127.500 489.611 C 1119.681 491.913, 1107.841 497.090, 1104.076 499.854 C 1097.504 504.678, 1086.689 516.539, 1084.337 521.500 C 1083.034 524.250, 1079.970 530.100, 1077.529 534.500 C 1075.087 538.900, 1071.409 546.325, 1069.354 551 C 1067.299 555.675, 1065.030 560.209, 1064.311 561.076 C 1063.592 561.944, 1061.975 564.644, 1060.718 567.076 C 1059.461 569.509, 1057.901 572.400, 1057.251 573.500 C 1055.330 576.753, 1052.454 584.008, 1050.059 591.644 C 1048.180 597.632, 1047.873 600.549, 1048.159 609.673 C 1048.495 620.408, 1048.551 620.628, 1052.158 625.529 C 1054.170 628.263, 1057.689 631.625, 1059.979 633 C 1071.684 640.029, 1079.489 645.405, 1082.178 648.291 C 1085.230 651.565, 1088.965 658.938, 1091.656 667 C 1092.927 670.808, 1099.446 685.833, 1103.281 693.796 C 1104.668 696.674, 1119.307 710.747, 1123.999 713.712 C 1132.702 719.211, 1149.674 726, 1154.721 726 C 1155.799 726, 1160.199 726.900, 1164.500 728 C 1172.669 730.089, 1180.386 730.441, 1188 729.071 C 1210.744 724.979, 1230.188 719.286, 1244.614 712.496 C 1267.960 701.506, 1289.481 681.267, 1302.028 658.500 C 1303.846 655.200, 1305.870 651.825, 1306.524 651 C 1309.450 647.311, 1319.481 623.525, 1322.127 614 C 1330.252 584.757, 1330.021 566.727, 1321.318 551.057 C 1313.266 536.559, 1291.377 514.055, 1273.458 501.851 C 1269.130 498.904, 1266.250 497.870, 1258.477 496.470 C 1247.961 494.577, 1239.434 494.887, 1226 497.651 C 1221.875 498.500, 1216.700 498.949, 1214.500 498.649 C 1202.668 497.037, 1195.393 495.745, 1194.024 495.013 C 1193.179 494.561, 1187.316 493.443, 1180.994 492.529 C 1174.672 491.614, 1167.281 490.221, 1164.568 489.433 C 1157.887 487.491, 1134.317 487.605, 1127.500 489.611" stroke="#aa444d" fill="#aa444d" fill-opacity="0.2" fill-rule="evenodd"/><path class="svg-region-Or" d="M 527 437.837 C 520.403 440.071, 518.603 441.268, 512.048 447.778 C 507.226 452.567, 502.268 456.351, 497.998 458.501 C 489.055 463.005, 483.576 467.797, 476.774 477.063 C 470.515 485.590, 466.675 494.228, 465.048 503.434 C 463.444 512.517, 463.767 518.219, 466.605 530.880 C 469.151 542.241, 471.971 549.623, 483.455 575 C 486.567 581.875, 490.926 591.902, 493.144 597.282 C 496.879 606.345, 505.793 621.897, 509.788 626.323 C 513.077 629.966, 521.543 634.768, 526.858 636.004 C 536.451 638.237, 541.629 640.640, 551.357 647.375 C 561.075 654.104, 572.903 658.978, 579.500 658.972 C 583.729 658.968, 597.198 655.448, 603.873 652.603 C 626.152 643.104, 638.836 639, 645.916 639 C 651.589 639, 666.441 636.004, 672 633.738 C 683.687 628.976, 694.277 621.860, 703.310 612.702 C 708.156 607.789, 713.230 602.133, 714.585 600.134 C 715.940 598.135, 718.326 594.737, 719.888 592.581 C 727.062 582.676, 733.077 566.577, 733.272 556.755 C 733.490 545.800, 732.280 540.248, 728.664 535.609 C 724.326 530.043, 723.300 529, 722.160 529 C 720.633 529, 715.878 522.938, 713.881 518.445 C 712.406 515.126, 712.061 511.491, 711.981 498.445 C 711.889 483.613, 711.671 481.830, 708.849 472.901 C 704.748 459.922, 699.515 454.327, 684.280 446.633 C 673.399 441.138, 670.644 440.606, 653.500 440.688 C 636.379 440.771, 632.113 441.582, 621 446.865 C 616.254 449.121, 613.923 449.525, 604 449.809 C 592.803 450.129, 592.253 450.042, 583.139 446.511 C 577.991 444.517, 572.098 441.824, 570.043 440.527 C 560.196 434.311, 540.958 433.108, 527 437.837" stroke="#aa444d" fill="#aa444d" fill-opacity="0.2" fill-rule="evenodd"/>
    </svg>