<svg xmlns="http://www.w3.org/2000/svg" width="1785" height="1131" viewBox="0 0 1785 1131" version="1.1">
    <path class="svg-region-V" d="M 721.500 279.992 C 711.121 282.381, 707.384 283.364, 706 284.070 C 705.175 284.491, 701.125 286.376, 697 288.260 C 685.347 293.582, 673.544 302.568, 665.821 311.996 C 661.403 317.390, 653.353 334.861, 650.616 345 C 642.010 376.868, 647.505 423.261, 660.591 429.224 C 661.916 429.827, 663 430.614, 663 430.971 C 663 431.329, 665.656 432.417, 668.903 433.390 C 674.339 435.018, 682.486 439.608, 692.493 446.679 C 694.689 448.230, 698.964 450.993, 701.993 452.817 C 705.022 454.642, 708.625 457.183, 710 458.465 C 711.375 459.747, 714.259 461.973, 716.409 463.412 C 718.560 464.850, 723.650 469.171, 727.720 473.014 C 731.791 476.856, 735.363 480, 735.657 480 C 735.952 480, 739.013 482.476, 742.459 485.502 L 748.725 491.003 751.310 485.245 C 753.454 480.466, 754.803 478.936, 759.245 476.244 C 762.189 474.460, 765.925 473, 767.549 472.999 C 769.172 472.999, 773.875 472.289, 778 471.422 C 783.985 470.164, 788.834 469.981, 802 470.514 C 816.621 471.105, 819.577 470.943, 827.953 469.091 C 839.124 466.620, 846.707 466.433, 851.668 468.506 C 853.650 469.334, 858.473 470.286, 862.386 470.622 C 866.602 470.984, 871.835 472.256, 875.234 473.746 L 880.968 476.259 901.371 475.174 C 921.326 474.114, 921.892 474.138, 927.137 476.276 C 931.701 478.136, 934.459 478.464, 945.640 478.481 C 956.277 478.496, 959.135 478.807, 960.640 480.114 C 961.713 481.044, 966.944 482.442, 973 483.416 C 985.384 485.408, 999.046 490.075, 1004.113 494.044 C 1006.100 495.601, 1010.600 497.619, 1014.113 498.529 C 1021.712 500.497, 1026 502.839, 1026 505.019 C 1026 505.893, 1027.536 508.096, 1029.412 509.915 C 1032.975 513.368, 1034.453 516.602, 1032.906 517.558 C 1031.219 518.600, 1031.987 519.816, 1034 519.290 C 1035.100 519.002, 1036 518.369, 1036 517.883 C 1036 517.398, 1036.640 517, 1037.423 517 C 1038.206 517, 1040.119 515.959, 1041.673 514.686 C 1043.228 513.414, 1046.300 511.569, 1048.500 510.588 C 1054.526 507.900, 1083.620 493.802, 1099.900 485.682 C 1115.771 477.766, 1123.085 472.013, 1129.818 462.149 C 1133.948 456.098, 1140 443.804, 1140 441.464 C 1140 440.696, 1140.632 438.590, 1141.404 436.784 C 1142.176 434.978, 1143.366 431.475, 1144.048 429 C 1144.730 426.525, 1145.859 422.687, 1146.558 420.470 C 1147.256 418.254, 1148.149 414.654, 1148.544 412.470 C 1148.938 410.287, 1149.737 407.901, 1150.320 407.169 C 1150.948 406.380, 1151.355 400.677, 1151.319 393.169 C 1151.272 383.206, 1150.781 378.805, 1149.018 372.565 C 1144.394 356.193, 1134.339 336.608, 1126.546 328.792 C 1124.371 326.611, 1120.321 323.682, 1117.546 322.282 C 1114.771 320.883, 1112.275 319.459, 1112 319.119 C 1109.125 315.560, 1091.601 306.729, 1082.972 304.491 C 1073.324 301.988, 1055.376 302.797, 1043.500 306.270 C 1038.550 307.718, 1032.475 309.104, 1030 309.351 C 1027.525 309.599, 1024.235 310.295, 1022.688 310.899 C 1021.142 311.503, 1016.642 312.244, 1012.688 312.546 C 1008.735 312.847, 1002.650 313.808, 999.166 314.681 C 990.457 316.863, 978.071 315.995, 967 312.428 C 958.031 309.538, 956.884 309.415, 947.772 310.367 C 941.492 311.024, 930.788 314.977, 927.554 317.834 C 923.880 321.082, 917.875 322.268, 907.269 321.842 L 897.302 321.441 890.901 315.590 C 879.851 305.490, 871.313 302.507, 849 300.951 C 829.485 299.591, 823.873 298.474, 814.778 294.140 C 801.988 288.046, 793.828 286.212, 776.500 285.538 C 770.100 285.289, 762.900 284.213, 756.500 282.549 C 745.503 279.691, 728.278 278.432, 721.500 279.992" stroke="#dd8a8a" fill="#dd8a8a" fill-opacity="0.2" fill-rule="evenodd"/><path class="svg-region-SF" d="M 827.500 469.122 C 820.677 470.731, 816.998 470.927, 802.500 470.453 C 791.603 470.096, 783.526 470.301, 780 471.024 C 776.975 471.643, 771.755 472.515, 768.401 472.960 C 760.347 474.028, 754.435 478.216, 751.275 485.092 C 749.060 489.912, 749.041 490.180, 750.738 492.478 C 751.707 493.790, 753.400 495.284, 754.500 495.799 C 756.450 496.711, 760.047 499.618, 766.261 505.303 C 767.947 506.845, 771.390 509.290, 773.913 510.736 C 776.436 512.183, 780.323 514.972, 782.552 516.933 C 784.780 518.895, 790.114 522.975, 794.404 526 C 798.694 529.025, 804.638 533.638, 807.613 536.250 C 810.587 538.862, 813.466 541, 814.011 541 C 814.555 541, 815.806 541.788, 816.790 542.750 C 818.920 544.832, 827.427 549, 829.547 549 C 830.368 549, 832.835 550.133, 835.029 551.518 C 837.222 552.903, 841.151 554.894, 843.759 555.943 C 846.366 556.991, 851.320 559.233, 854.766 560.925 C 858.212 562.616, 861.688 564, 862.489 564 C 863.291 564, 865.871 564.868, 868.223 565.928 C 870.629 567.013, 877.093 568.350, 883 568.984 C 888.775 569.604, 896.650 570.586, 900.500 571.166 C 914.745 573.311, 915.613 573.292, 923.705 570.635 C 927.992 569.228, 934.645 567.544, 938.490 566.894 C 942.424 566.228, 947.021 564.691, 949.006 563.377 C 950.946 562.094, 954.100 560.755, 956.016 560.403 C 963.984 558.939, 971.702 555.721, 979.389 550.659 C 983.878 547.702, 988.889 544.539, 990.525 543.629 C 995.470 540.879, 1001.781 536.841, 1012.771 529.397 C 1016.220 527.061, 1020.387 524.854, 1022.031 524.493 C 1028.967 522.970, 1033.888 518.760, 1033.111 515.012 C 1032.942 514.194, 1031.272 511.830, 1029.402 509.759 C 1027.531 507.689, 1025.986 505.433, 1025.969 504.747 C 1025.915 502.631, 1021.806 500.410, 1014.644 498.630 C 1010.494 497.597, 1006.351 495.769, 1004.144 493.997 C 997.930 489.004, 985.064 485.012, 966.500 482.318 C 964.300 481.998, 961.663 481.009, 960.639 480.119 C 959.131 478.807, 956.286 478.495, 945.639 478.474 C 934.437 478.451, 931.698 478.122, 927.057 476.239 C 921.719 474.074, 921.226 474.053, 901.325 475.129 C 881.436 476.205, 880.952 476.184, 876.768 474.074 C 874.332 472.845, 868.924 471.500, 864.171 470.941 C 859.589 470.401, 854.247 469.294, 852.298 468.480 C 847.587 466.512, 837.452 466.774, 827.500 469.122" stroke="#8c6b55" fill="#8c6b55" fill-opacity="0.2" fill-rule="evenodd"/><path class="svg-region-SB" d="M 879.820 725.584 C 877.118 727.054, 870 735.898, 870 737.784 C 870 739.785, 859.077 748.763, 855.802 749.454 C 853.986 749.837, 847.550 750.527, 841.500 750.986 C 830.022 751.858, 826.173 753.211, 815.460 760.145 C 803.677 767.772, 794.652 783.611, 789.049 806.500 C 787.281 813.726, 786.539 825.736, 787.768 827.240 C 788.335 827.933, 788.654 829.781, 788.477 831.348 C 787.765 837.643, 795.835 850.060, 803.500 854.466 C 819.665 863.756, 836.163 860.806, 851.566 845.870 C 855.593 841.966, 860.877 835.785, 863.308 832.136 C 869.129 823.398, 876.834 807.142, 877.963 801.219 C 879.531 792.985, 880.426 792.005, 886.500 791.865 C 889.509 791.796, 900.553 793.881, 905.306 795.416 C 918.376 799.636, 931.844 799.633, 940.180 795.409 C 945.053 792.940, 951.383 785.541, 953.854 779.427 C 955.624 775.047, 955.666 763.068, 953.921 760 C 945.259 744.764, 930.969 734.354, 913.500 730.554 C 909.100 729.597, 902.350 727.905, 898.500 726.794 C 889.345 724.152, 883.184 723.753, 879.820 725.584" stroke="#d2e400" fill="#d2e400" fill-opacity="0.2" fill-rule="evenodd"/><path class="svg-region-Ol" d="M 1256.500 452.607 C 1255.400 452.878, 1252.250 454.148, 1249.500 455.428 C 1246.750 456.709, 1242.700 458.531, 1240.500 459.477 C 1238.300 460.423, 1232.450 463.158, 1227.500 465.555 C 1222.550 467.952, 1214.263 471.306, 1209.084 473.007 C 1203.905 474.709, 1198.505 476.925, 1197.084 477.932 C 1192.231 481.372, 1184.620 483.396, 1174 484.072 C 1163.877 484.717, 1159.802 485.639, 1139 491.993 C 1133.775 493.589, 1124.550 495.858, 1118.500 497.035 C 1112.450 498.212, 1106.600 499.553, 1105.500 500.015 C 1104.400 500.478, 1101.700 501.152, 1099.500 501.515 C 1097.300 501.877, 1091.900 504.022, 1087.500 506.281 C 1079.436 510.422, 1075.733 512.721, 1056.544 525.500 C 1050.762 529.350, 1043.612 533.850, 1040.656 535.500 C 1034.638 538.858, 1024.943 545.237, 1022.862 547.208 C 1022.112 547.919, 1019.721 550.028, 1017.549 551.896 C 1006.545 561.355, 1003.103 569.617, 1002.298 588.500 C 1001.752 601.320, 1003.112 614.529, 1005.424 618.853 C 1006.202 620.309, 1007.550 623.421, 1008.419 625.769 C 1009.288 628.117, 1011.092 631.769, 1012.427 633.885 C 1014.777 637.608, 1027.719 647.966, 1039 655.154 C 1046.076 659.662, 1057.648 672.120, 1058.542 676.192 C 1058.916 677.895, 1060.522 681.494, 1062.111 684.189 C 1063.700 686.883, 1065 689.451, 1065 689.895 C 1065 691.314, 1075.950 706.019, 1080.300 710.442 C 1082.610 712.790, 1086.300 716.631, 1088.500 718.977 C 1093.604 724.419, 1109.993 737.641, 1116.500 741.567 C 1128.725 748.942, 1139.251 753.336, 1157 758.472 C 1171.404 762.639, 1180.341 763.319, 1204.500 762.084 C 1225.750 760.998, 1233.810 759.362, 1246.203 753.618 C 1253.272 750.341, 1255.581 748.382, 1274.302 729.774 C 1285.520 718.623, 1295.508 707.925, 1296.497 706 C 1297.485 704.075, 1300.409 699.350, 1302.993 695.500 C 1307.087 689.403, 1323.574 657.032, 1329.988 642.500 C 1331.202 639.750, 1333.026 635.700, 1334.043 633.500 C 1340.109 620.367, 1347.336 601.281, 1348.999 594 C 1349.690 590.975, 1350.918 586.700, 1351.728 584.500 C 1353.168 580.589, 1354.476 571.075, 1355.647 555.985 C 1356.127 549.797, 1355.771 546.746, 1353.629 538.697 C 1351.038 528.965, 1348.339 524.077, 1338.611 511.500 C 1336.910 509.300, 1335.187 507.050, 1334.784 506.500 C 1323.828 491.578, 1302.761 470, 1299.148 470 C 1298.689 470, 1295.206 467.836, 1291.407 465.190 C 1278.402 456.133, 1271.360 452.780, 1264.612 452.431 C 1261.250 452.257, 1257.600 452.336, 1256.500 452.607" stroke="#aa444d" fill="#aa444d" fill-opacity="0.2" fill-rule="evenodd"/><path class="svg-region-Or" d="M 485.500 431.603 C 478.121 433.834, 471.411 437.267, 462.996 443.119 C 458.873 445.986, 452.833 450.124, 449.573 452.316 C 437.363 460.523, 425.095 474.845, 420.291 486.500 C 415.849 497.277, 415.538 504.503, 418.462 529 C 422.086 559.364, 425.967 577.425, 434.362 603 C 438.586 615.867, 439.508 618.390, 442.641 625.651 C 443.388 627.384, 444 629.115, 444 629.497 C 444 630.251, 453.169 652.608, 455.484 657.500 C 468.610 685.232, 476.278 698.899, 484.079 708.470 C 490.446 716.280, 501.018 725.734, 506.420 728.448 C 509.647 730.069, 515.936 733.791, 520.394 736.718 C 524.852 739.646, 530.750 742.721, 533.500 743.553 C 540.035 745.528, 553.702 747.876, 562.500 748.535 C 566.350 748.823, 571.211 749.322, 573.303 749.645 C 579.138 750.545, 590.999 745.193, 596.148 739.337 C 598.101 737.115, 600.582 727.425, 602.116 716.023 C 602.789 711.025, 604.159 705.966, 605.493 703.556 C 608.461 698.193, 618.349 690.189, 622.938 689.434 C 624.897 689.112, 627.625 688.425, 629 687.908 C 631.763 686.868, 639.782 686.560, 656.672 686.843 C 668.760 687.046, 675.357 685.412, 682.777 680.377 C 684.703 679.070, 686.724 678, 687.268 678 C 689.981 678, 701.572 668.470, 712.379 657.354 C 719.025 650.517, 724.817 644.291, 725.251 643.517 C 725.684 642.742, 729.047 638.902, 732.723 634.983 C 736.400 631.064, 740.169 626.652, 741.099 625.179 C 742.028 623.705, 744.865 619.800, 747.403 616.500 C 758.365 602.248, 760.429 597.873, 764.430 580.409 C 765.920 573.909, 765.924 572.494, 764.477 563.409 C 762.719 552.364, 759.694 541.297, 756.986 536 C 753.768 529.706, 740.579 517.904, 728.452 510.466 C 726.628 509.348, 724.318 507.742, 723.318 506.897 C 722.318 506.053, 718.327 503.514, 714.449 501.254 C 710.571 498.995, 704.956 495.539, 701.972 493.573 C 698.987 491.608, 696.182 490, 695.738 490 C 695.293 490, 693.729 489.212, 692.262 488.250 C 690.795 487.288, 687.030 485.975, 683.896 485.333 C 680.763 484.691, 672.866 481.621, 666.349 478.510 C 650.448 470.919, 631.768 465.373, 615.691 463.471 C 608.111 462.574, 600.526 460.813, 599 459.595 C 598.175 458.937, 595.282 457.839, 592.571 457.155 C 589.860 456.471, 583.969 454.334, 579.480 452.406 C 574.992 450.477, 570.235 448.867, 568.910 448.828 C 563.148 448.655, 541.607 440.085, 534 434.940 C 529.542 431.924, 521.806 430.663, 506 430.375 C 494.373 430.163, 489.251 430.470, 485.500 431.603" stroke="#aa444d" fill="#aa444d" fill-opacity="0.2" fill-rule="evenodd"/>
    </svg>