<svg xmlns="http://www.w3.org/2000/svg" width="1785" height="1131" viewBox="0 0 1785 1131" version="1.1">
    <path class="svg-region-V" d="M 723.717 282.602 C 709.068 287.901, 697.557 294.818, 686.756 304.814 C 682.765 308.507, 678.021 312.577, 676.214 313.858 C 674.406 315.140, 672.156 317.685, 671.214 319.514 C 670.271 321.344, 667.460 325.464, 664.967 328.670 C 658.577 336.888, 651.658 353.951, 650.437 364.500 C 650.119 367.250, 649.153 372.650, 648.291 376.500 C 647.246 381.164, 646.750 388.152, 646.804 397.440 C 646.884 411.365, 646.888 411.389, 650.489 418.676 C 654.308 426.401, 660.038 432.279, 668.354 437 C 674.228 440.335, 686.818 448.897, 687.522 450.035 C 687.830 450.535, 689.977 451.797, 692.291 452.842 C 694.606 453.886, 697.850 456.195, 699.500 457.974 C 702.224 460.909, 709.989 466.616, 715.482 469.718 C 716.668 470.388, 718.868 472.075, 720.371 473.468 C 724.034 476.863, 724.823 476.670, 725.190 472.289 C 725.477 468.849, 725.791 468.516, 729.500 467.720 C 735.553 466.420, 741.740 467.407, 744.641 470.134 C 746.887 472.246, 748.249 472.534, 757.328 472.821 C 764.011 473.031, 767.843 473.576, 768.500 474.409 C 769.050 475.107, 771.300 475.941, 773.500 476.264 C 775.700 476.586, 781.325 477.509, 786 478.314 C 807.316 481.984, 811.135 482.424, 821 482.347 C 842.178 482.181, 863.641 481.211, 869 480.179 C 889.659 476.198, 890.188 476.202, 909 480.441 C 926.074 484.289, 929.749 485.134, 933 485.958 C 941.441 488.100, 945.212 489.765, 946.800 492.051 C 948.174 494.031, 949.441 494.534, 953.415 494.676 C 956.118 494.773, 960.843 495.731, 963.915 496.806 C 973.396 500.124, 988.504 501.450, 1013.345 501.144 C 1036.454 500.860, 1046.852 499.693, 1052.535 496.746 C 1057.818 494.005, 1062.814 493.522, 1065.040 495.536 C 1067.959 498.178, 1067.549 500.297, 1062.533 508.500 C 1059.225 513.909, 1059.396 514.693, 1063.250 511.786 C 1065.037 510.438, 1071.976 506.514, 1078.669 503.067 C 1085.363 499.619, 1091.726 495.972, 1092.810 494.962 C 1094.383 493.497, 1109.902 485.362, 1123.648 478.797 C 1127.957 476.739, 1135.871 468.893, 1138.812 463.762 C 1140.472 460.868, 1142.830 457.290, 1144.052 455.810 C 1146.473 452.881, 1151.738 438.563, 1151.769 434.823 C 1151.780 433.545, 1152.773 428.680, 1153.976 424.012 C 1155.758 417.098, 1156.084 413.573, 1155.732 405.012 C 1155.494 399.230, 1154.965 393.375, 1154.555 392 C 1154.146 390.625, 1153.475 387.590, 1153.065 385.255 C 1152.654 382.920, 1151.649 380.220, 1150.831 379.255 C 1150.012 378.290, 1148.116 374.800, 1146.616 371.500 C 1141.885 361.087, 1139.719 357.261, 1134.323 349.781 C 1124.218 335.772, 1116.519 326.710, 1112.526 324.125 C 1110.312 322.692, 1108.275 321.279, 1108 320.986 C 1106.305 319.181, 1101.368 316.809, 1097.735 316.053 C 1095.406 315.568, 1090.575 313.914, 1087 312.377 C 1081.078 309.831, 1079.522 309.596, 1069.500 309.743 C 1059.073 309.896, 1040.043 311.892, 1028 314.096 C 1024.975 314.649, 1017.325 315.471, 1011 315.922 C 1004.675 316.373, 997.928 317.250, 996.007 317.871 C 989.099 320.103, 982.199 319.287, 961.500 313.789 C 951.245 311.065, 930.848 314.209, 925 319.415 C 919.938 323.922, 914.644 326.348, 911.314 325.688 C 898.983 323.242, 895 321.543, 895 318.729 C 895 318.200, 893.391 315.576, 891.425 312.897 C 887.512 307.568, 882.354 304.700, 873.922 303.168 C 869.123 302.295, 868.784 302.389, 865.214 305.568 C 863.171 307.388, 859.687 309.385, 857.471 310.006 C 853.904 311.007, 852.413 310.796, 844.471 308.174 C 839.537 306.545, 832.800 304.688, 829.500 304.046 C 826.200 303.405, 821.025 302.392, 818 301.795 C 814.975 301.199, 809.125 299.698, 805 298.460 C 800.875 297.222, 794.800 295.542, 791.500 294.726 C 785.522 293.249, 769.059 287.758, 757.329 283.330 C 752.043 281.334, 749.465 281.017, 739.329 281.117 C 732.119 281.188, 726.023 281.768, 723.717 282.602 M 841 426.581 C 830.853 428.292, 828.129 429.256, 825.401 432.104 C 823.014 434.595, 822.500 435.991, 822.500 439.985 C 822.500 445.412, 824.806 448.744, 830.371 451.356 C 833.894 453.009, 861.551 455.461, 864.578 454.388 C 867.939 453.197, 871.956 448.755, 872.547 445.575 C 873.297 441.540, 870.881 435.919, 866.989 432.644 C 861.968 428.419, 848.598 425.300, 841 426.581 M 933.326 446.395 C 929.653 447.734, 926 450.778, 926 452.500 C 926 456.466, 932.720 458.034, 940.500 455.883 C 945.054 454.624, 945.963 453.614, 945.985 449.785 C 946.010 445.251, 940.509 443.778, 933.326 446.395" stroke="#dd8a8a" fill="#dd8a8a" fill-opacity="0.2" fill-rule="evenodd"/><path class="svg-region-SV" d="M 841 426.582 C 830.867 428.287, 828.129 429.256, 825.401 432.104 C 821.448 436.229, 821.260 443.495, 825 447.548 C 828.879 451.752, 832.509 452.775, 847.838 453.987 C 863.413 455.218, 865.203 454.989, 869.201 451.247 C 876.390 444.520, 872.394 434.073, 860.726 429.090 C 855.993 427.068, 845.807 425.773, 841 426.582 M 933.276 446.326 C 926.101 448.938, 923.863 455.175, 929.585 456.611 C 933.220 457.523, 942.779 456.079, 944.501 454.357 C 946.299 452.558, 946.472 447.872, 944.800 446.200 C 943.307 444.707, 937.550 444.770, 933.276 446.326" stroke="#c666b5" fill="#c666b5" fill-opacity="0.2" fill-rule="evenodd"/><path class="svg-region-SF" d="M 728.500 467.821 C 725.823 468.435, 725.467 468.962, 725.195 472.705 C 724.903 476.714, 725.192 477.193, 731.695 483.522 C 735.438 487.164, 740.300 491.647, 742.500 493.484 C 744.700 495.322, 748.898 499.138, 751.829 501.965 C 754.759 504.792, 759.709 509.165, 762.829 511.684 C 765.948 514.202, 771.650 519.678, 775.500 523.853 C 779.350 528.027, 783.828 532.581, 785.452 533.972 C 789.356 537.316, 793.701 541.644, 798.050 546.520 C 803.978 553.168, 811.245 558.841, 818.554 562.530 C 822.374 564.458, 828.129 567.599, 831.341 569.509 C 838.625 573.841, 844.729 575.944, 851.919 576.601 C 854.989 576.882, 858.117 577.318, 858.871 577.570 C 859.625 577.823, 865.250 578.289, 871.371 578.605 C 887.417 579.435, 896.503 580.478, 913.955 583.495 C 922.456 584.964, 930.556 585.957, 931.955 585.701 C 935.874 584.985, 953.435 579.572, 963.927 575.847 C 971.139 573.286, 974.546 571.421, 978.427 567.906 C 981.217 565.379, 986.200 561.418, 989.500 559.103 C 992.800 556.788, 998.141 552.697, 1001.369 550.012 C 1004.597 547.328, 1010.897 543.250, 1015.369 540.951 C 1025.019 535.988, 1040.984 526.283, 1043.926 523.589 C 1046.159 521.545, 1047.992 520.404, 1054.851 516.794 C 1058.170 515.047, 1060.127 512.920, 1063.101 507.827 C 1067.295 500.646, 1067.757 498.418, 1065.652 495.539 C 1064.549 494.030, 1063.532 493.819, 1060.047 494.376 C 1057.706 494.751, 1054.375 495.791, 1052.645 496.688 C 1046.749 499.747, 1036.540 500.881, 1012.787 501.118 C 987.476 501.371, 973.169 500.094, 964 496.766 C 959.120 494.994, 951.459 494.301, 945.500 495.091 C 944.400 495.237, 939.822 495.276, 935.327 495.178 C 928.266 495.024, 926.758 494.667, 924.250 492.557 C 921.407 490.165, 920.965 490.113, 903.106 490.077 C 886.103 490.043, 877 488.946, 877 486.931 C 877 486.517, 875.070 485.244, 872.711 484.102 C 868.238 481.937, 865.704 481.848, 820.500 482.261 C 809.196 482.364, 770.220 476.437, 768.500 474.352 C 767.872 473.592, 763.713 473.022, 757.328 472.821 C 748.184 472.532, 746.897 472.256, 744.586 470.083 C 741.831 467.492, 734.455 466.455, 728.500 467.821" stroke="#8c6b55" fill="#8c6b55" fill-opacity="0.2" fill-rule="evenodd"/><path class="svg-region-PF" d="M 879.500 478.084 C 877.300 478.542, 872.871 479.353, 869.657 479.885 C 866.443 480.417, 863.610 481.057, 863.361 481.306 C 863.112 481.555, 864.951 482.066, 867.449 482.440 C 869.972 482.818, 873.264 484.193, 874.856 485.532 C 879.662 489.576, 882.451 490.045, 902.032 490.097 C 920.302 490.146, 920.901 490.213, 924.100 492.574 C 926.869 494.616, 928.534 495, 934.635 495 C 938.621 495, 942.150 495.433, 942.477 495.962 C 943.121 497.005, 948 495.228, 948 493.950 C 948 491.996, 943.948 489.213, 939 487.770 C 929.221 484.918, 925.585 483.960, 921 483.025 C 910.146 480.812, 902.249 479.026, 899.007 478.051 C 895.001 476.846, 885.363 476.862, 879.500 478.084" stroke="#faaaaa" fill="#faaaaa" fill-opacity="0.2" fill-rule="evenodd"/><path class="svg-region-SB" d="M 841 738.891 C 831.041 740.970, 815.145 753.681, 806.497 766.480 C 804.631 769.241, 801.295 773.750, 799.082 776.500 C 793.967 782.857, 788.426 793.382, 786.897 799.643 C 786.245 802.314, 785.312 805.014, 784.823 805.642 C 784.334 806.270, 783.331 810.252, 782.594 814.491 C 779.362 833.079, 786.330 856.175, 797.074 862.487 C 802.100 865.440, 817.246 865.305, 825.244 862.236 C 841.996 855.809, 854.605 843, 866.637 820.186 C 874.556 805.172, 879.181 777.030, 875.894 763.868 C 874.692 759.057, 866.302 746.330, 861.642 742.250 C 858.835 739.792, 856.995 739, 854.090 739 C 851.978 739, 848.956 738.811, 847.375 738.580 C 845.794 738.349, 842.925 738.489, 841 738.891" stroke="#d2e400" fill="#d2e400" fill-opacity="0.2" fill-rule="evenodd"/><path class="svg-region-Ol" d="M 1246 466.378 C 1235.919 468.703, 1229.640 471.260, 1223.228 475.650 C 1219.733 478.042, 1216.157 480, 1215.281 480 C 1214.405 480, 1212.214 481.125, 1210.411 482.500 C 1208.608 483.875, 1206.892 485, 1206.596 485 C 1205.633 485, 1197 491.366, 1197 492.076 C 1197 492.970, 1193.748 493.991, 1187.500 495.057 C 1184.750 495.526, 1180.925 496.177, 1179 496.503 C 1171.800 497.723, 1166.419 499.381, 1163.819 501.181 C 1162.345 502.202, 1158.070 504.225, 1154.319 505.676 C 1148.612 507.885, 1145.461 508.385, 1135 508.744 C 1126.993 509.019, 1120.882 508.736, 1118 507.958 C 1111.739 506.268, 1102.165 505.624, 1100.712 506.796 C 1100.045 507.334, 1097.590 508.089, 1095.255 508.474 C 1092.921 508.859, 1090.777 509.552, 1090.491 510.014 C 1090.206 510.476, 1088.376 511.381, 1086.425 512.025 C 1084.474 512.669, 1080.553 514.726, 1077.712 516.598 C 1074.870 518.469, 1071.973 520, 1071.273 520 C 1070.573 520, 1070 520.395, 1070 520.879 C 1070 521.362, 1068.537 522.336, 1066.750 523.043 C 1064.963 523.751, 1062.825 524.885, 1062 525.563 C 1058.481 528.457, 1042.961 536.380, 1038.938 537.335 C 1034.598 538.366, 1018.880 549.598, 1011.360 557.043 C 1004.261 564.071, 998 574.273, 998 578.814 C 998 579.951, 997.550 581.160, 997 581.500 C 996.434 581.850, 996 586.772, 996 592.844 C 996 601.010, 996.486 604.993, 998.035 609.535 C 1005.381 631.067, 1013.726 643.132, 1029.489 655.009 C 1043.626 665.661, 1057.199 679.626, 1063.010 689.500 C 1070.353 701.976, 1094.396 727.435, 1105.981 735 C 1107.245 735.825, 1109.453 737.443, 1110.889 738.596 C 1119.927 745.851, 1131.699 752.533, 1139.804 755.010 C 1141.837 755.631, 1144.400 756.535, 1145.500 757.019 C 1151.581 759.695, 1158.492 761.349, 1166.500 762.046 C 1218.105 766.539, 1226.590 766.032, 1244.592 757.376 C 1253.206 753.234, 1271.323 734.459, 1285.965 714.500 C 1288.386 711.200, 1290.647 708.275, 1290.991 708 C 1291.334 707.725, 1294.447 703.225, 1297.908 698 C 1301.369 692.775, 1304.794 687.825, 1305.518 687 C 1306.243 686.175, 1308.618 681.900, 1310.797 677.500 C 1323.227 652.392, 1338.796 621.225, 1340.698 617.641 C 1341.907 615.364, 1343.836 611.077, 1344.984 608.115 C 1346.133 605.154, 1347.959 600.785, 1349.043 598.406 C 1353.085 589.534, 1355.333 574.757, 1355.420 556.500 C 1355.498 539.832, 1355.446 539.393, 1352.726 534 C 1347.774 524.181, 1344.790 519.809, 1338.460 513.096 C 1335.039 509.468, 1330.273 504.250, 1327.870 501.499 C 1316.063 487.987, 1304.280 478.580, 1292 472.860 C 1289.525 471.707, 1285.025 469.602, 1282 468.181 C 1277.135 465.897, 1275.057 465.570, 1264 465.354 C 1256.548 465.208, 1249.279 465.622, 1246 466.378" stroke="#aa444d" fill="#aa444d" fill-opacity="0.2" fill-rule="evenodd"/><path class="svg-region-Or" d="M 501.500 428.836 C 498.749 429.206, 495.084 430.516, 493.354 431.748 C 491.625 432.979, 489.375 434.327, 488.355 434.743 C 483.839 436.586, 461.718 454.338, 453.154 462.994 C 441.728 474.541, 437.243 480.337, 432.643 489.500 C 425.154 504.416, 424.811 506.629, 425.234 537.204 C 425.533 558.799, 425.942 565.440, 427.195 569 C 429.259 574.870, 433.426 588.733, 435.685 597.250 C 436.669 600.962, 437.755 604, 438.098 604 C 438.440 604, 439.960 608.388, 441.474 613.750 C 442.988 619.112, 444.629 624.400, 445.120 625.500 C 445.610 626.600, 448.222 634.025, 450.923 642 C 462.244 675.428, 476.526 707.890, 483.622 716.327 C 484.930 717.881, 486 719.537, 486 720.006 C 486 720.475, 488.587 723.552, 491.750 726.843 C 499.593 735.006, 522.059 748.694, 533.285 752.149 C 543.843 755.399, 552.685 757.117, 561.500 757.633 C 569.811 758.119, 572.911 757.853, 579.855 756.061 C 595.249 752.087, 606.074 746.996, 611.220 741.310 C 616.128 735.887, 618.816 725.911, 620.560 706.651 C 621.133 700.324, 621.498 699.477, 625.340 695.548 C 627.645 693.191, 631.937 690.283, 634.965 689.027 C 639.911 686.975, 641.905 686.773, 655.965 686.901 C 672.756 687.055, 678.252 685.876, 685.372 680.596 C 687.093 679.320, 691.425 676.752, 695 674.888 C 698.575 673.025, 705.905 667.900, 711.289 663.500 C 716.673 659.100, 722.748 654.301, 724.789 652.837 C 726.830 651.372, 730.750 647.799, 733.500 644.897 C 736.250 641.995, 740.548 637.568, 743.052 635.060 C 758.252 619.831, 769.613 603.392, 771.775 593.500 C 773.583 585.229, 774.025 577.673, 772.931 573.713 C 772.363 571.656, 771.290 565.047, 770.546 559.027 C 768.609 543.338, 765.973 537.038, 757.998 529.029 C 748.431 519.422, 742.333 514, 741.095 514 C 740.493 514, 740 513.657, 740 513.237 C 740 512.156, 730.438 504.926, 724.500 501.517 C 721.750 499.938, 719.050 498.121, 718.500 497.478 C 717.950 496.836, 715.925 495.250, 714 493.953 C 712.075 492.657, 710.275 491.347, 710 491.042 C 706.439 487.098, 692.645 479.951, 686.105 478.661 C 684.238 478.293, 679.871 478.486, 676.401 479.091 C 670.453 480.126, 669.762 480.035, 664.296 477.488 C 661.108 476.002, 656.250 474.201, 653.500 473.486 C 650.750 472.771, 644.743 470.796, 640.152 469.099 C 633.526 466.648, 630.061 465.979, 623.358 465.854 C 616.103 465.718, 614.320 465.322, 610.706 463.044 C 608.393 461.586, 604.362 459.364, 601.750 458.107 C 599.138 456.850, 597 455.484, 597 455.071 C 597 453.769, 592.045 452, 588.396 452 C 581.972 452, 570.914 448.667, 567 445.551 C 566.175 444.894, 562.597 443.085, 559.048 441.532 C 555.500 439.978, 550.498 437.199, 547.933 435.357 C 540.242 429.831, 536.075 428.783, 520.500 428.456 C 512.800 428.295, 504.250 428.466, 501.500 428.836" stroke="#aa444d" fill="#aa444d" fill-opacity="0.2" fill-rule="evenodd"/>
    </svg>