<svg xmlns="http://www.w3.org/2000/svg" width="1785" height="1131" viewBox="0 0 1785 1131" version="1.1">
    <path class="svg-region-V" d="M 874.500 260.015 C 870.650 260.472, 864.800 261.329, 861.500 261.919 C 858.200 262.508, 851 263.436, 845.500 263.980 C 835.295 264.989, 830.681 265.898, 825.685 267.882 C 824.137 268.497, 821.697 269, 820.264 269 C 818.830 269, 816.947 269.626, 816.079 270.391 C 815.210 271.156, 812.925 272.622, 811 273.650 C 807.753 275.383, 804.849 277.213, 789.912 286.935 C 784.373 290.541, 784.263 290.565, 777.412 289.736 C 773.610 289.275, 763.318 288.655, 754.540 288.358 C 738.087 287.800, 735.349 288.150, 720.500 292.708 C 711.724 295.401, 695.869 302.240, 693.139 304.509 C 691.688 305.716, 688.700 307.833, 686.500 309.214 C 679.446 313.642, 672 320.985, 672 323.514 C 672 324.987, 669.611 328.445, 665.500 332.925 C 661.925 336.821, 658.999 340.569, 658.999 341.254 C 658.998 341.939, 657.198 345.092, 654.999 348.260 C 649.118 356.732, 642.983 370.856, 643.738 374.183 C 643.949 375.108, 643.478 377.133, 642.691 378.683 C 640.157 383.678, 641.590 409.856, 644.657 414.580 C 645.399 415.724, 645.735 416.931, 645.403 417.263 C 645.071 417.595, 645.154 418.440, 645.587 419.141 C 646.020 419.842, 646.484 421.437, 646.617 422.685 C 646.856 424.925, 652.799 437.020, 654.147 438.010 C 654.529 438.291, 656.019 440.864, 657.458 443.729 C 660.598 449.980, 662.508 451.441, 670.975 454.066 C 674.536 455.170, 678.465 457.028, 679.706 458.193 C 681.977 460.327, 694.342 466, 696.721 466 C 697.425 466, 698 465.132, 698 464.071 C 698 460.513, 700.728 459, 707.143 459 C 712.670 459, 717.939 460.357, 736.500 466.562 C 738.700 467.298, 744.380 469.044, 749.123 470.443 C 753.866 471.842, 759.041 473.662, 760.623 474.487 C 762.205 475.312, 764.625 476.002, 766 476.020 C 767.375 476.038, 771.800 477.146, 775.834 478.483 L 783.168 480.914 786.819 478.957 C 788.827 477.881, 791.351 477, 792.427 477 C 793.503 477, 797.405 475.205, 801.099 473.011 C 804.792 470.816, 808.868 468.550, 810.157 467.973 C 811.446 467.397, 814.300 465.792, 816.500 464.406 L 820.500 461.887 816.224 462.536 C 812.533 463.096, 810.823 462.635, 803.724 459.171 C 799.201 456.963, 794.307 454.859, 792.849 454.495 C 791.391 454.131, 789.316 453.012, 788.239 452.008 C 787.162 451.005, 784.530 449.276, 782.391 448.166 C 778.293 446.040, 775.080 443.106, 768.500 435.483 C 766.300 432.934, 762.309 428.520, 759.630 425.674 C 751.741 417.293, 747.438 410.114, 746.489 403.755 C 745.914 399.896, 746.147 399.221, 748.993 396.500 L 752.130 393.500 768.815 393.500 C 778.823 393.500, 786.701 393.954, 788.500 394.634 C 790.150 395.258, 793.525 396.331, 796 397.019 C 804.896 399.491, 815.516 403.248, 817.462 404.611 C 818.553 405.375, 820.063 406, 820.819 406 C 821.574 406, 825.511 407.575, 829.568 409.500 C 833.624 411.425, 837.442 413, 838.051 413 C 840.891 413, 857.967 422.551, 861.827 426.299 C 867.146 431.464, 868.185 433.273, 869.119 439 C 869.523 441.475, 870.403 445.316, 871.076 447.535 C 872.126 450.999, 872.050 452.093, 870.539 455.277 C 868.062 460.497, 868.914 461.720, 875.609 462.557 C 881.129 463.247, 900.615 462.522, 908.140 461.348 C 911.694 460.793, 911.768 460.691, 911.278 457.034 C 910.907 454.274, 911.517 451.674, 913.596 447.144 C 915.147 443.765, 916.773 441, 917.208 441 C 917.644 441, 918 440.401, 918 439.669 C 918 437.707, 921.724 436.237, 928.500 435.522 C 945.573 433.721, 948.971 433.161, 952.005 431.647 C 955.459 429.924, 966 429.349, 966 430.883 C 966 431.369, 966.900 432.002, 968 432.290 C 971.245 433.138, 970.637 437.731, 967.006 439.797 C 964.659 441.132, 964.011 442.194, 964.006 444.715 C 963.999 448.633, 966.134 450, 972.265 450 C 975.850 450, 976.893 450.432, 977.913 452.338 C 979.910 456.068, 978.956 460.394, 976 461.021 C 971.365 462.003, 966 465.311, 966 467.185 C 966 468.183, 966.441 469, 966.981 469 C 967.520 469, 968.220 470.030, 968.536 471.288 C 968.897 472.724, 970.580 474.213, 973.055 475.285 C 975.225 476.225, 977 477.653, 977 478.458 C 977 480.190, 980.849 484, 982.599 484 C 983.271 484, 987.053 485.831, 991.003 488.070 C 997.979 492.023, 998.376 492.121, 1004.842 491.487 C 1008.504 491.128, 1014.988 490.156, 1019.252 489.326 C 1024.115 488.380, 1030.823 487.945, 1037.252 488.159 C 1046.199 488.457, 1048.262 488.876, 1053.500 491.463 C 1062.738 496.025, 1064.157 499.284, 1059.376 504.965 L 1056.753 508.083 1061.126 506.372 C 1065.254 504.757, 1071.530 500.989, 1091.839 487.931 C 1096.602 484.868, 1102.075 481.758, 1104 481.019 C 1105.925 480.281, 1108.400 478.907, 1109.500 477.966 C 1110.600 477.026, 1113.412 475.014, 1115.750 473.495 C 1118.088 471.977, 1120 470.141, 1120 469.417 C 1120 468.692, 1120.607 467.740, 1121.349 467.300 C 1123.054 466.289, 1129.877 456.209, 1133.735 449 C 1137.403 442.148, 1142.412 427.525, 1143.938 419.217 C 1146.014 407.914, 1145.178 390.970, 1141.915 378.239 C 1139.005 366.882, 1135.764 359, 1134.005 359 C 1133.481 359, 1132.363 357.668, 1131.521 356.041 C 1130.680 354.413, 1128.868 351.959, 1127.495 350.586 C 1126.123 349.214, 1124.993 347.733, 1124.984 347.295 C 1124.976 346.858, 1122.662 345.375, 1119.843 344 C 1117.024 342.625, 1113.318 340.013, 1111.609 338.195 C 1109.899 336.377, 1106.250 333.591, 1103.500 332.004 C 1100.750 330.417, 1095.173 325.716, 1091.108 321.559 C 1087.042 317.402, 1083.127 314, 1082.408 314 C 1081.689 314, 1076.615 311.758, 1071.134 309.019 C 1059.922 303.415, 1053.716 302.197, 1044.807 303.853 C 1035.272 305.625, 1027.898 308.097, 1026.189 310.092 C 1025.296 311.135, 1022.976 312.500, 1021.033 313.124 C 1019.090 313.749, 1016.868 314.765, 1016.096 315.380 C 1015.323 315.996, 1010.823 316.561, 1006.096 316.635 C 1001.368 316.710, 995.374 316.969, 992.777 317.211 C 990.179 317.453, 987.632 317.391, 987.117 317.073 C 985.134 315.847, 983.147 308.130, 982.625 299.626 C 982.201 292.719, 981.494 289.615, 979.439 285.626 C 972.777 272.697, 963.233 267.167, 938.500 261.906 C 930.263 260.154, 924.358 259.727, 905 259.481 C 892.075 259.317, 878.350 259.557, 874.500 260.015 M 825 460.956 C 822.198 461.510, 823.096 461.733, 829.500 462.074 C 841.341 462.705, 860.515 461.940, 858.878 460.903 C 857.278 459.890, 830.176 459.932, 825 460.956" stroke="#dd8a8a" fill="#dd8a8a" fill-opacity="0.2" fill-rule="evenodd"/><path class="svg-region-SV" d="M 754.500 393.727 C 752.850 393.962, 750.222 395.357, 748.660 396.827 C 746.193 399.149, 745.891 400.031, 746.363 403.545 C 747.166 409.532, 751.705 417.226, 759.130 425.184 C 761.533 427.760, 765.525 432.192, 768 435.034 C 776.034 444.256, 777.722 445.817, 782.034 448.017 C 784.370 449.209, 787.191 451.032, 788.304 452.068 C 789.416 453.105, 791.940 454.459, 793.913 455.078 C 795.886 455.697, 800.775 457.793, 804.777 459.735 C 811.938 463.209, 812.146 463.245, 817.777 462.030 C 826.363 460.177, 855.244 459.444, 858.964 460.985 C 862.900 462.615, 868.988 461.539, 869.032 459.205 C 869.049 458.267, 869.724 456.626, 870.532 455.559 C 872.379 453.117, 872.364 448.261, 870.500 445 C 869.714 443.625, 869.053 440.925, 869.032 439 C 868.951 431.775, 862.050 424.275, 849.944 418.255 C 841.527 414.069, 824.748 406.924, 820 405.503 C 818.625 405.092, 817.050 404.402, 816.500 403.970 C 815.181 402.933, 804.433 399.023, 800 397.967 C 798.075 397.508, 794.700 396.623, 792.500 396 C 783.810 393.539, 780.063 393.091, 769 393.193 C 762.675 393.252, 756.150 393.492, 754.500 393.727 M 951.545 431.759 C 948.815 433.188, 943.639 434.017, 927.234 435.652 C 922.007 436.173, 920.472 436.783, 917.984 439.328 C 916.343 441.006, 915 442.874, 915 443.478 C 915 444.083, 914.100 446.342, 913 448.500 C 910.030 454.326, 910.373 458.312, 914.147 461.840 C 918.096 465.530, 923.480 466.306, 935 464.846 C 946.753 463.356, 955.686 463.541, 961 465.384 C 963.677 466.312, 965.635 466.551, 965.833 465.972 C 966.017 465.438, 966.622 465, 967.179 465 C 967.736 465, 969.392 464.145, 970.859 463.101 C 972.326 462.056, 974.645 461.043, 976.013 460.851 C 977.989 460.572, 978.564 459.842, 978.810 457.296 C 979.327 451.952, 977.612 450, 972.399 450 C 966.135 450, 963.999 448.655, 964.006 444.715 C 964.011 442.194, 964.659 441.132, 967.006 439.797 C 970.794 437.641, 971.036 433.909, 967.535 431.615 C 964.414 429.570, 955.575 429.649, 951.545 431.759" stroke="#c666b5" fill="#c666b5" fill-opacity="0.2" fill-rule="evenodd"/><path class="svg-region-SF" d="M 699.571 460.571 C 698.707 461.436, 698 463.011, 698 464.071 C 698 466.414, 695.933 466.534, 691.857 464.426 C 687.388 462.115, 687.264 463.391, 691.697 466.068 C 693.789 467.331, 697.721 470.195, 700.437 472.432 C 703.152 474.670, 706.140 476.950, 707.076 477.500 C 713.551 481.302, 729.351 492.615, 733.500 496.420 C 736.250 498.943, 741.366 502.687, 744.868 504.742 C 754.405 510.336, 777.501 532.368, 778.684 537 C 779.705 540.997, 792.882 554.907, 798.201 557.602 C 802.565 559.813, 804.085 559.999, 817.717 559.988 C 827.566 559.980, 834.335 559.484, 838 558.500 C 846.205 556.298, 850.750 556.572, 854.589 559.500 C 856.392 560.875, 859.162 562, 860.745 562 C 862.328 562, 864.495 562.800, 865.561 563.777 C 871.083 568.839, 873.765 570, 879.938 570 C 884.493 570, 887.333 570.642, 891 572.500 C 893.713 573.875, 897.298 575, 898.967 575 C 900.635 575, 902 575.499, 902 576.109 C 902 578.473, 917.473 573.936, 923.118 569.916 C 926.588 567.445, 927.657 567.502, 931.406 570.356 C 933.108 571.652, 935.400 572.982, 936.500 573.312 C 939.429 574.190, 969.070 571.507, 972 570.098 C 978.786 566.835, 980.953 565.332, 986.500 560.042 C 995.831 551.143, 1001.792 546.706, 1003.527 547.372 C 1004.414 547.712, 1005.319 547.333, 1005.645 546.483 C 1005.958 545.667, 1006.803 545, 1007.524 545 C 1008.244 545, 1008.983 544.577, 1009.167 544.060 C 1009.350 543.543, 1010.948 542.081, 1012.718 540.810 C 1014.487 539.540, 1020.277 535.125, 1025.583 531 C 1030.890 526.875, 1036.933 522.375, 1039.013 521 C 1041.093 519.625, 1044.834 517.038, 1047.327 515.250 C 1049.820 513.462, 1052.185 512, 1052.582 512 C 1052.979 512, 1055.041 510.087, 1057.165 507.750 C 1064.304 499.891, 1063.653 496.397, 1054.190 491.783 C 1048.239 488.881, 1046.383 488.482, 1037.391 488.173 C 1030.643 487.941, 1024.327 488.395, 1018.391 489.538 C 1013.501 490.480, 1004.050 491.380, 997.389 491.538 C 989.671 491.722, 983.583 492.402, 980.604 493.413 C 974.777 495.392, 970.949 495.429, 968.441 493.532 C 967.131 492.541, 963.971 492.053, 958.724 492.032 C 951.475 492.002, 950.358 492.300, 942.224 496.433 C 926.045 504.653, 906.667 505.741, 888.500 499.449 C 885.750 498.497, 879 497.407, 873.500 497.028 C 860.816 496.153, 829.453 491.238, 825.500 489.505 C 820.375 487.259, 814.705 486.012, 809.500 485.986 C 802.034 485.948, 790.773 483.592, 779 479.604 C 773.225 477.648, 767.375 476.034, 766 476.018 C 764.625 476.001, 762.162 475.290, 760.528 474.438 C 758.013 473.127, 742.014 467.938, 731.500 465.024 C 729.850 464.567, 725.246 463.024, 721.269 461.596 C 712.682 458.513, 702.128 458.015, 699.571 460.571" stroke="#8c6b55" fill="#8c6b55" fill-opacity="0.2" fill-rule="evenodd"/><path class="svg-region-IF" d="M 792.079 553.445 C 791.970 554.755, 797.118 560, 798.513 560 C 799.139 560, 800.718 561.136, 802.023 562.524 C 807.446 568.297, 827.567 577.573, 842.059 580.981 C 847.251 582.202, 853.975 583.901, 857 584.756 C 867.037 587.594, 870.387 588.165, 884.500 589.442 C 899.876 590.833, 920.807 590.593, 922.392 589.008 C 922.947 588.453, 924.773 588.005, 926.450 588.012 C 929.236 588.022, 934.799 586.409, 951.500 580.747 C 959.292 578.105, 971 572.835, 971 571.970 C 971 571.598, 968.862 571.462, 966.250 571.669 C 963.638 571.875, 956.325 572.460, 950 572.968 C 939.395 573.821, 938.169 573.735, 934.250 571.857 C 931.913 570.738, 930 569.412, 930 568.911 C 930 567.327, 925.915 567.924, 923.118 569.916 C 920.237 571.967, 910.202 575.921, 905.868 576.712 C 904.421 576.976, 902.932 576.699, 902.559 576.096 C 902.187 575.493, 900.446 574.995, 898.691 574.988 C 896.936 574.981, 893.542 573.856, 891.148 572.488 C 887.720 570.528, 885.385 569.998, 880.148 569.989 C 873.909 569.979, 873.192 569.734, 868.500 566 C 865.362 563.503, 862.451 562.017, 860.683 562.011 C 859.134 562.005, 856.392 560.875, 854.589 559.500 C 850.742 556.566, 843.928 556.155, 837.500 558.471 C 834.701 559.479, 828.909 559.925, 818.217 559.956 C 803.901 559.997, 802.625 559.844, 798.060 557.531 C 795.380 556.172, 792.955 554.485, 792.672 553.781 C 792.389 553.076, 792.122 552.925, 792.079 553.445" stroke="#f2823b" fill="#f2823b" fill-opacity="0.2" fill-rule="evenodd"/><path class="svg-region-PF" d="M 865.883 461.451 C 865.557 461.777, 855.212 462.080, 842.895 462.125 C 817.690 462.217, 820.587 461.522, 803.282 471.628 C 798.452 474.449, 792.925 477.051, 791 477.410 C 789.075 477.769, 786.646 478.710, 785.602 479.500 C 783.786 480.875, 783.829 480.988, 786.602 482.105 C 790.816 483.805, 797.176 484.904, 808.500 485.893 C 814 486.372, 819.850 487.324, 821.500 488.007 C 823.150 488.690, 825.400 489.598, 826.500 490.024 C 830.271 491.486, 868.497 497.052, 874.585 497.026 C 878.226 497.010, 883.246 497.865, 887.085 499.153 C 897.564 502.670, 901.965 503.371, 912.653 503.226 C 925.616 503.051, 933.818 501.121, 943.095 496.064 C 950.011 492.295, 951.029 492.029, 958.500 492.046 C 963.963 492.058, 967.116 492.529, 968.441 493.532 C 970.983 495.454, 974.824 495.388, 980.715 493.321 C 983.347 492.397, 988.194 491.681, 991.486 491.730 C 996.911 491.810, 997.289 491.684, 995.517 490.389 C 994.442 489.602, 990.074 487.307, 985.812 485.288 C 980.106 482.585, 977.826 480.940, 977.167 479.048 C 976.604 477.435, 974.920 475.949, 972.636 475.053 C 970.331 474.149, 969 472.968, 969 471.828 C 969 466.895, 950.806 461.222, 943.481 463.871 C 941.659 464.529, 935.212 465.160, 929.153 465.273 C 918.919 465.462, 917.965 465.315, 915.713 463.200 C 913.300 460.933, 913.233 460.929, 899.395 462.084 C 886.682 463.146, 875.416 462.905, 868.988 461.433 C 867.606 461.117, 866.209 461.125, 865.883 461.451" stroke="#faaaaa" fill="#faaaaa" fill-opacity="0.2" fill-rule="evenodd"/><path class="svg-region-SB" d="M 835.522 745.964 C 835.170 746.534, 834.185 747, 833.333 747 C 828.365 747, 803.705 770.887, 798.748 780.500 C 797.897 782.150, 796.144 784.672, 794.851 786.105 C 785.846 796.086, 782.079 814.953, 784.890 836 C 787.616 856.406, 788.872 859.669, 795.501 863.554 C 799.643 865.981, 800.815 866.212, 806.323 865.685 C 814.309 864.922, 822.174 862.155, 830.985 857.009 C 842.713 850.159, 847.287 844.460, 857.481 824 C 865.525 807.853, 868.138 799.488, 868.728 788 C 869.317 776.506, 867.441 768.157, 862.552 760.513 C 859.131 755.166, 854.702 751, 852.437 751 C 851.725 751, 850.531 750.438, 849.783 749.750 C 846.060 746.328, 836.814 743.874, 835.522 745.964" stroke="#d2e400" fill="#d2e400" fill-opacity="0.2" fill-rule="evenodd"/><path class="svg-region-Ol" d="M 1250.063 454.028 C 1236.200 456.939, 1213.206 467.240, 1208.500 472.647 C 1201.145 481.097, 1176.058 495, 1168.166 495 C 1167.123 495, 1165.103 495.918, 1163.677 497.039 C 1158.383 501.204, 1150.388 503.031, 1135.511 503.475 C 1121.211 503.902, 1099.277 506.741, 1088.500 509.558 C 1085.200 510.421, 1080.700 511.509, 1078.500 511.975 C 1073.235 513.091, 1058.811 519.053, 1050.294 523.634 C 1042.847 527.640, 1032.789 533.866, 1032 534.958 C 1031.725 535.339, 1029.944 536.517, 1028.042 537.575 C 1023.058 540.350, 1003.874 559.616, 1000.236 565.500 C 994.038 575.526, 990.880 589.559, 992.961 597.837 C 999.318 623.135, 1001.225 627.755, 1009.705 638.406 C 1013.167 642.754, 1016 646.647, 1016 647.057 C 1016 647.467, 1017.462 648.718, 1019.250 649.838 C 1021.038 650.957, 1025.650 654.157, 1029.500 656.948 C 1033.350 659.739, 1037.175 662.355, 1038 662.761 C 1043.404 665.423, 1048.582 670.185, 1053.189 676.731 C 1058.615 684.440, 1059.660 685.853, 1068.685 697.696 C 1071.537 701.438, 1076.037 707.362, 1078.685 710.859 C 1093.866 730.910, 1106.007 745, 1108.104 745 C 1108.597 745, 1109 745.645, 1109 746.433 C 1109 747.221, 1109.787 748.122, 1110.750 748.436 C 1111.713 748.751, 1114.300 750.696, 1116.500 752.759 C 1120.144 756.176, 1124.178 759.077, 1131 763.185 C 1134.488 765.286, 1144.223 768.825, 1151.432 770.613 C 1154.769 771.441, 1159.975 772.750, 1163 773.523 C 1175.392 776.690, 1228.412 774.167, 1237.303 769.988 C 1239.830 768.800, 1242.426 767.191, 1243.072 766.414 C 1243.717 765.636, 1244.683 765, 1245.218 765 C 1245.753 765, 1247.386 764.181, 1248.846 763.179 C 1250.306 762.177, 1253.707 760.539, 1256.404 759.538 C 1264.540 756.517, 1272.984 747.314, 1283.998 729.460 C 1289.397 720.706, 1291.552 717.289, 1297.352 708.282 C 1299.908 704.313, 1302 700.839, 1302 700.563 C 1302 700.288, 1303.952 697.011, 1306.337 693.281 C 1308.722 689.552, 1315.103 677.500, 1320.517 666.500 C 1325.930 655.500, 1332.134 643.800, 1334.303 640.500 C 1340.810 630.597, 1352.365 610.002, 1355.902 602 C 1362.678 586.673, 1363.311 583.333, 1363.197 563.500 C 1363.104 547.434, 1362.829 544.627, 1360.636 537.371 C 1357.724 527.739, 1355.478 523.994, 1345.219 511.663 C 1340.973 506.560, 1334.677 498.754, 1331.228 494.316 C 1327.778 489.878, 1322.234 483.604, 1318.907 480.374 C 1315.581 477.143, 1312.328 473.909, 1311.680 473.187 C 1298.056 458.016, 1289.050 453.989, 1267.500 453.432 C 1260.350 453.247, 1252.503 453.515, 1250.063 454.028" stroke="#aa444d" fill="#aa444d" fill-opacity="0.2" fill-rule="evenodd"/><path class="svg-region-Or" d="M 497.892 430.984 C 486.898 432.399, 473.896 436.205, 469.146 439.399 C 466.591 441.117, 462.277 443.824, 459.559 445.415 C 454.543 448.352, 446.784 455.026, 434.946 466.586 C 427.470 473.887, 421.414 484.299, 417.472 496.630 C 413.795 508.131, 412.851 516.724, 413.476 533 C 414.370 556.285, 415.616 563.874, 421.158 579.788 C 422.171 582.696, 423 586.624, 423 588.517 C 423 590.411, 423.625 593.656, 424.390 595.730 C 425.154 597.803, 426.988 603.325, 428.466 608 C 431.786 618.503, 435.147 627.337, 436.075 628 C 437.222 628.819, 439.633 635.211, 440.415 639.500 C 440.816 641.700, 442.393 645.750, 443.920 648.500 C 445.447 651.250, 447.862 656.425, 449.287 660 C 460.292 687.616, 478.823 723.548, 486.439 732.039 C 488.185 733.986, 491.096 737.733, 492.908 740.366 C 495.714 744.444, 502.499 749.830, 508 752.346 C 510.252 753.376, 517.058 757.915, 524.458 763.321 C 528.087 765.972, 534.307 769.347, 538.279 770.821 C 545.186 773.384, 546.326 773.499, 564.500 773.474 C 583.038 773.449, 583.658 773.381, 590 770.662 C 593.575 769.129, 599.200 766.991, 602.500 765.910 C 609.960 763.467, 613.727 761.392, 616.721 758.077 C 620.580 753.805, 627.608 738.078, 629.938 728.500 C 631.142 723.550, 632.837 718.150, 633.705 716.500 C 635.581 712.933, 643.668 705.280, 646.500 704.391 C 647.600 704.046, 649.175 703.181, 650 702.469 C 650.825 701.758, 656.475 700.682, 662.556 700.079 C 670.951 699.247, 675.643 698.176, 682.056 695.630 C 686.700 693.786, 693.987 691.044, 698.250 689.537 C 702.513 688.030, 706 686.430, 706 685.981 C 706 685.533, 707.983 684.408, 710.407 683.482 C 712.831 682.557, 715.782 680.685, 716.966 679.324 C 718.150 677.962, 720.779 676.155, 722.809 675.308 C 727.393 673.395, 733.958 668.278, 734.840 665.932 C 735.203 664.966, 738.278 661.098, 741.673 657.337 C 748.834 649.404, 753.555 640.949, 757.495 629 C 759.037 624.325, 760.681 620.350, 761.149 620.167 C 761.617 619.983, 762 619.392, 762 618.853 C 762 617.428, 766.582 607.633, 769.296 603.256 C 775.717 592.899, 775.972 572.315, 769.912 553.500 C 768.849 550.200, 767.984 546.975, 767.990 546.333 C 768.007 544.407, 753.175 530.781, 742.049 522.500 C 739.832 520.850, 736.884 518.582, 735.499 517.459 C 734.113 516.337, 730.403 514.087, 727.253 512.459 C 724.103 510.832, 720.170 508.524, 718.513 507.332 C 713.428 503.673, 695.889 494.856, 689.525 492.758 C 686.211 491.666, 679.675 489.966, 675 488.981 C 670.325 487.995, 662.225 486.210, 657 485.012 C 651.775 483.815, 645.475 482.733, 643 482.608 C 640.525 482.483, 636.925 481.640, 635 480.734 C 633.075 479.828, 629.250 478.538, 626.500 477.867 C 623.750 477.196, 616.716 474.072, 610.870 470.923 C 598.535 464.282, 591.375 461, 589.220 461 C 586.960 461, 570.277 452.559, 568.500 450.516 C 567.950 449.883, 565.025 447.412, 562 445.023 C 558.975 442.634, 555.809 439.964, 554.965 439.090 C 551.486 435.486, 546.438 432.687, 541.131 431.418 C 535.078 429.970, 507.886 429.698, 497.892 430.984" stroke="#aa444d" fill="#aa444d" fill-opacity="0.2" fill-rule="evenodd"/>
    </svg>