<svg xmlns="http://www.w3.org/2000/svg" width="1785" height="1131" viewBox="0 0 1785 1131" version="1.1">
    <path class="svg-region-V" d="M 800 272.601 C 799.175 272.920, 796.592 274.041, 794.261 275.091 C 791.929 276.141, 789.604 277, 789.094 277 C 788.584 277, 788.017 277.337, 787.833 277.750 C 787.650 278.163, 785.025 279.682, 782 281.128 C 777.228 283.407, 776.334 284.299, 775.250 287.862 C 773.069 295.026, 773.580 298.443, 777.250 301.239 C 780.972 304.076, 791.530 309.103, 794.500 309.453 C 797.442 309.800, 808.975 314.150, 809.590 315.145 C 809.880 315.615, 811.554 316.027, 813.309 316.059 C 815.064 316.091, 818.404 317.104, 820.730 318.309 C 835.115 325.759, 846.394 330.958, 852.500 332.951 C 856.350 334.208, 860.790 335.915, 862.367 336.744 C 866.045 338.678, 886.383 339.807, 887.417 338.135 C 887.802 337.511, 890.454 336.993, 893.309 336.984 C 898.224 336.970, 902.219 336.181, 915 332.705 C 918.025 331.882, 922.525 330.882, 925 330.482 C 930.365 329.616, 936.675 327.220, 947.508 321.934 C 952.053 319.716, 959.452 317.186, 964.622 316.081 C 984.219 311.893, 994.721 307.383, 996.319 302.470 C 996.851 300.836, 998.234 298.159, 999.393 296.521 C 1004.881 288.761, 1006.379 285.091, 1005.317 282 C 1004.494 279.604, 1004.001 279.469, 993.479 278.757 C 987.441 278.349, 964.725 278.349, 943 278.757 C 884.648 279.855, 873.625 279.483, 855.500 275.807 C 842.556 273.182, 837.827 272.714, 821 272.393 C 810.275 272.188, 800.825 272.281, 800 272.601" stroke="#dd8a8a" fill="#dd8a8a" fill-opacity="0.2" fill-rule="evenodd"/><path class="svg-region-SV" d="M 958.500 336.458 C 949.739 338.100, 935.315 343.187, 918.579 350.537 C 903.022 357.369, 896.657 358.486, 878.544 357.564 C 867.176 356.986, 864.171 356.431, 854.044 353.042 C 827.223 344.069, 826.022 343.805, 811.719 343.764 C 800.075 343.730, 798.028 343.980, 794.539 345.863 C 792.360 347.038, 789.349 348, 787.848 348 C 786.346 348, 784.840 348.450, 784.500 349 C 784.160 349.550, 783.180 350, 782.321 350 C 781.463 350, 776.569 352.025, 771.447 354.500 C 766.325 356.975, 761.192 359, 760.042 359 C 755.843 359, 746.672 363.033, 733.484 370.679 C 726.065 374.980, 718.139 379.445, 715.870 380.601 C 713.602 381.756, 711.305 383.490, 710.766 384.453 C 710.227 385.416, 707.472 387.235, 704.643 388.494 C 698.779 391.105, 697.116 392.753, 690.503 402.500 C 685.020 410.583, 680.424 414.935, 677.331 414.973 C 676.138 414.988, 673.778 415.788, 672.087 416.750 C 669.369 418.297, 669.012 419.023, 669.006 423.016 C 668.998 429.150, 671.397 433.078, 678.500 438.558 C 681.800 441.105, 685.762 445.209, 687.305 447.680 L 690.111 452.172 696.305 451.582 C 711.736 450.112, 721.566 449.859, 724.924 450.843 C 726.891 451.420, 733.095 453.307, 738.711 455.038 C 748.455 458.042, 749.067 458.113, 752.114 456.593 C 756.350 454.480, 770.374 454.425, 774.364 456.506 C 775.940 457.328, 778.280 458, 779.566 458 C 785.138 458, 800.920 463.444, 802.430 465.887 C 803.429 467.504, 808.198 467.250, 810.777 465.443 C 812 464.587, 813 462.860, 813 461.606 C 813 455.705, 825.743 443.068, 833.327 441.447 C 835.072 441.074, 837.135 440.259, 837.910 439.635 C 838.826 438.898, 844.091 438.544, 852.910 438.626 C 864.167 438.730, 868.765 439.272, 879.697 441.783 C 890.024 444.155, 893.720 444.622, 896.697 443.931 C 903.760 442.291, 923.918 442.838, 930.529 444.849 C 937.716 447.035, 946.561 452.891, 953.694 460.187 C 959.769 466.401, 961.219 469.665, 960.865 476.328 C 960.682 479.778, 961.035 481.440, 962.073 482.021 C 962.880 482.473, 968.256 482.394, 974.020 481.846 C 991.740 480.161, 1005.815 479.825, 1014.452 480.882 C 1020.916 481.673, 1024.861 481.560, 1032.605 480.365 C 1038.047 479.526, 1045.271 478.487, 1048.658 478.058 C 1052.044 477.629, 1056.384 476.308, 1058.300 475.123 C 1061.496 473.149, 1062.940 472.991, 1075.643 473.235 L 1089.500 473.500 1095.865 470.049 C 1104.595 465.316, 1111.038 459.255, 1114.399 452.611 C 1117.789 445.912, 1117.453 442.103, 1112.974 436.468 C 1111.339 434.409, 1110 431.955, 1110 431.013 C 1110 427.920, 1104.657 421.440, 1094.654 412.399 C 1086.835 405.332, 1083.738 403.191, 1079.614 402 C 1076.757 401.175, 1072.863 399.570, 1070.960 398.433 C 1065.843 395.377, 1061.263 394.003, 1056.101 393.976 C 1051.790 393.953, 1051.028 393.508, 1044 386.901 C 1039.875 383.022, 1032.818 376.463, 1028.319 372.325 C 1023.488 367.882, 1019.530 363.306, 1018.654 361.150 C 1017.838 359.143, 1015.148 355.149, 1012.677 352.276 C 1010.206 349.403, 1008.030 346.692, 1007.842 346.252 C 1007.654 345.812, 1004.630 343.213, 1001.123 340.476 L 994.747 335.500 980.123 335.323 C 971.491 335.219, 962.632 335.684, 958.500 336.458" stroke="#c666b5" fill="#c666b5" fill-opacity="0.2" fill-rule="evenodd"/><path class="svg-region-SF" d="M 713 474.271 C 713 475.094, 714.816 477.408, 717.035 479.412 C 719.254 481.417, 722.640 485.915, 724.560 489.407 C 728.858 497.226, 737.605 505.463, 750.410 513.750 C 754.071 516.119, 756.585 517, 759.681 517 C 764.895 517, 765.503 516.018, 766.377 506.173 C 767.042 498.696, 768.704 494.176, 772.193 490.354 C 773.429 489.001, 774.032 487.154, 773.826 485.354 L 773.500 482.500 757.500 481.871 C 741.061 481.224, 740.369 481.068, 730.500 475.777 C 725.370 473.027, 713 471.962, 713 474.271 M 1066.436 490.380 C 1063.218 494.336, 1055.464 499, 1052.105 499 C 1050.397 499, 1049 498.550, 1049 498 C 1049 496.401, 1039.608 496.845, 1035.372 498.645 C 1031.711 500.200, 1022.746 502.349, 1015 503.527 C 999.622 505.866, 998.196 506.274, 997.120 508.636 C 996.227 510.596, 996.625 512.136, 999.516 517.895 C 1004.159 527.148, 1010.399 533.023, 1017.445 534.778 C 1022.637 536.070, 1023.008 536.026, 1026.677 533.664 C 1028.780 532.310, 1032.300 530.618, 1034.500 529.903 C 1036.700 529.189, 1040.843 526.893, 1043.707 524.802 C 1046.571 522.711, 1049.295 521, 1049.761 521 C 1050.822 521, 1056.081 515.249, 1057.750 512.264 C 1058.438 511.034, 1059 509.209, 1059 508.209 C 1059 507.210, 1060.267 504.391, 1061.815 501.946 C 1067.538 492.909, 1070.166 488, 1069.281 488 C 1068.781 488, 1067.501 489.071, 1066.436 490.380" stroke="#8c6b55" fill="#8c6b55" fill-opacity="0.2" fill-rule="evenodd"/><path class="svg-region-IF" d="M 855 552.506 C 854.175 552.685, 848.100 553.405, 841.500 554.106 C 834.900 554.807, 828.375 555.967, 827 556.684 C 825.481 557.476, 820.918 557.990, 815.372 557.994 C 802.056 558.003, 795.812 561.336, 794.754 569 C 794.334 572.048, 794.867 573.192, 798.886 577.866 C 801.424 580.818, 804.895 584.643, 806.600 586.366 C 809.838 589.640, 822.509 596.443, 827.250 597.452 C 828.763 597.775, 830 598.506, 830 599.078 C 830 599.650, 830.470 599.828, 831.044 599.473 C 831.618 599.118, 832.630 599.263, 833.294 599.795 C 834.640 600.875, 835.381 601.010, 856.500 604.011 C 877.915 607.055, 916.667 607.121, 926.290 604.131 C 928.056 603.583, 931.300 602.899, 933.500 602.612 C 939.688 601.804, 944.401 600.787, 945.500 600.023 C 946.050 599.640, 949.052 598.316, 952.171 597.079 C 955.290 595.843, 958.623 593.970, 959.576 592.916 C 960.530 591.862, 961.860 591, 962.533 591 C 964.289 591, 966.571 587.991, 965.434 587.174 C 964.919 586.803, 963.877 585.297, 963.120 583.826 C 962.363 582.356, 960.776 580.910, 959.593 580.613 C 958.410 580.316, 955.205 577.812, 952.471 575.048 C 949.737 572.284, 946.970 570.018, 946.323 570.012 C 945.675 570.005, 944.304 568.930, 943.275 567.623 C 940.212 563.729, 931.110 559.370, 923.500 558.153 C 919.650 557.537, 913.538 556.576, 909.918 556.017 C 906.298 555.458, 897.298 554.997, 889.918 554.994 C 882.538 554.991, 874.925 554.579, 873 554.079 C 869.018 553.044, 857.256 552.016, 855 552.506" stroke="#f2823b" fill="#f2823b" fill-opacity="0.2" fill-rule="evenodd"/><path class="svg-region-PF" d="M 751.519 456.561 C 750.430 457.384, 747.842 458.566, 745.769 459.187 C 743.696 459.808, 742 460.663, 742 461.086 C 742 461.510, 744.362 462.766, 747.250 463.879 C 760.565 469.008, 764.790 471.086, 768.654 474.405 C 772.169 477.424, 772.915 478.745, 773.498 482.987 C 773.877 485.744, 774.393 488, 774.643 488 C 774.894 488, 776.513 487.269, 778.241 486.375 C 786.907 481.894, 794.211 480.327, 804.271 480.790 C 817.039 481.378, 846.356 479.983, 843 478.947 C 841.625 478.523, 836.169 476.786, 830.876 475.088 C 825.582 473.389, 820.146 472, 818.795 472 C 817.444 472, 814.125 470.877, 811.419 469.504 C 808.714 468.131, 805.919 467.006, 805.210 467.004 C 804.500 467.002, 802.700 466.103, 801.210 465.006 C 797.745 462.456, 788.257 459.126, 782.202 458.334 C 779.616 457.996, 776.285 457.107, 774.800 456.359 C 770.947 454.420, 754.160 454.565, 751.519 456.561 M 983.393 480.978 C 982.234 481.446, 976.384 482.063, 970.393 482.348 C 964.402 482.633, 954.550 483.545, 948.500 484.374 C 942.450 485.204, 933 486.216, 927.500 486.624 C 917.049 487.399, 917.119 487.552, 929 489.891 C 936.736 491.415, 943.469 493.460, 950.899 496.544 C 954.419 498.005, 960.944 499.809, 965.399 500.554 C 969.855 501.298, 974.850 502.344, 976.500 502.879 C 981.628 504.539, 990.227 507.894, 990.785 508.451 C 991.940 509.607, 994.004 506.582, 994.076 503.628 C 994.175 499.578, 995.919 495.090, 998.793 491.492 C 1000.754 489.037, 1001.947 488.559, 1007.043 488.191 L 1013 487.760 1013 484.487 C 1013 482.425, 1012.415 480.989, 1011.418 480.607 C 1009.038 479.693, 985.811 480.001, 983.393 480.978" stroke="#faaaaa" fill="#faaaaa" fill-opacity="0.2" fill-rule="evenodd"/><path class="svg-region-AAB" d="M 827.500 537.496 C 824.750 538.315, 821.150 539.250, 819.500 539.574 C 815.871 540.285, 812.796 541.496, 807.500 544.298 C 805.300 545.462, 800.575 547.145, 797 548.037 L 790.500 549.659 790.561 555.579 C 790.626 562.007, 793.894 571.297, 794.754 567.500 C 796.148 561.342, 803.248 558, 814.940 558 C 820.253 558, 825.509 557.420, 827.730 556.590 C 836.638 553.258, 862.664 551.666, 872 553.883 C 874.475 554.470, 882.538 554.962, 889.918 554.976 C 902.553 554.999, 906.176 555.344, 923.500 558.179 C 932.117 559.589, 939.472 563.148, 943.282 567.750 C 944.307 568.987, 945.467 570, 945.861 570 C 946.254 570, 948.950 572.229, 951.851 574.953 C 954.753 577.677, 958.111 580.212, 959.313 580.587 C 960.516 580.963, 961.803 581.742, 962.174 582.320 C 963.325 584.116, 965.948 581.058, 969.689 573.558 C 971.625 569.676, 974.327 565.308, 975.694 563.852 C 977.773 561.636, 977.996 560.860, 977.054 559.102 C 976.134 557.382, 974.982 556.997, 970.715 556.985 C 965.138 556.970, 959.411 555.325, 953.907 552.157 C 952.033 551.079, 948.056 549.689, 945.068 549.070 C 942.081 548.450, 939.156 547.574, 938.568 547.123 C 937.981 546.671, 934.321 545.280, 930.435 544.030 C 923.653 541.848, 923.239 541.825, 920.078 543.460 C 917.491 544.797, 913.236 545.256, 900.239 545.598 C 881.834 546.081, 874.648 545.177, 865.513 541.225 C 856.180 537.187, 835.383 535.147, 827.500 537.496" stroke="#7f3c1a" fill="#7f3c1a" fill-opacity="0.2" fill-rule="evenodd"/><path class="svg-region-APB" d="M 787.767 482.558 C 771.884 487.772, 767.764 492.168, 766.491 505.254 C 766.157 508.690, 765.698 512.427, 765.471 513.559 C 765.201 514.904, 766.204 516.811, 768.365 519.059 C 773.209 524.099, 777 531.163, 777 535.147 C 777 539.149, 777.876 540.408, 783.854 544.993 C 789.868 549.606, 796.996 549.698, 805.570 545.273 C 813.354 541.255, 814.948 540.664, 825 538.065 C 829.675 536.857, 835.075 535.458, 837 534.958 C 843.108 533.370, 853.098 533.848, 858.761 536.001 C 861.654 537.100, 865.535 538, 867.385 538 C 869.235 538, 872.625 538.662, 874.919 539.472 C 882.038 541.983, 888.684 542.333, 903.970 541.003 L 918.721 539.718 926.110 542.427 C 930.175 543.917, 935.525 545.974, 938 546.999 C 940.475 548.023, 944.054 549.124, 945.953 549.446 C 947.852 549.768, 952.352 551.473, 955.953 553.235 C 971.776 560.979, 988.668 556.201, 993.904 542.500 C 994.954 539.750, 996.399 536.054, 997.113 534.286 C 998.165 531.681, 998.177 529.451, 997.174 522.513 C 995.783 512.895, 994.510 509.401, 992.128 508.669 C 991.233 508.394, 988.025 507.201, 985 506.019 C 976.252 502.600, 971.111 501.156, 965.103 500.431 C 962.021 500.059, 955.675 498.277, 951 496.472 C 937.450 491.239, 928.225 488.958, 914.500 487.445 C 912.300 487.202, 906.225 486.524, 901 485.937 C 895.775 485.351, 884.525 484.501, 876 484.048 C 867.475 483.596, 858.700 482.652, 856.500 481.952 C 853.670 481.051, 843.953 480.653, 823.267 480.590 C 796.318 480.507, 793.545 480.661, 787.767 482.558" stroke="#ac7444" fill="#ac7444" fill-opacity="0.2" fill-rule="evenodd"/><path class="svg-region-PC" d="M 841 438.652 C 840.175 438.924, 838.600 439.532, 837.500 440.003 C 836.400 440.475, 833.700 441.410, 831.500 442.082 C 823.932 444.392, 813 455.918, 813 461.588 C 813 462.873, 811.849 464.671, 810.310 465.793 L 807.620 467.752 810.705 469.348 C 812.402 470.225, 816.650 471.575, 820.145 472.347 C 823.640 473.120, 830.325 474.947, 835 476.409 C 852.590 481.907, 864.413 484, 877.884 484.001 C 884.823 484.002, 894.325 484.677, 899 485.500 C 912.353 487.852, 926.748 487.431, 952.612 483.930 L 960.723 482.833 960.843 476.166 C 960.977 468.721, 960.333 467.201, 954.277 460.662 C 948.054 453.944, 939.348 447.878, 932.208 445.286 C 926.840 443.338, 923.957 443, 912.698 443 C 905.432 443, 898.105 443.396, 896.416 443.881 C 894.255 444.501, 890.852 444.198, 884.923 442.860 C 866.326 438.663, 846.681 436.781, 841 438.652" stroke="#cda789" fill="#cda789" fill-opacity="0.2" fill-rule="evenodd"/><path class="svg-region-DB" d="M 722.601 272.454 C 719.275 273.415, 716.214 275.334, 713.067 278.434 C 710.517 280.945, 707.971 283, 707.408 283 C 705.416 283, 693.165 297.651, 683.158 312 C 679.514 317.225, 675.400 322.813, 674.016 324.419 C 659.967 340.714, 656.694 343.573, 648.300 346.882 C 640.774 349.848, 628.271 357.054, 625.186 360.203 C 623.709 361.711, 622.026 362.957, 621.447 362.972 C 619.838 363.015, 608.311 375.676, 606.825 379.034 C 606.103 380.665, 605.172 382, 604.756 382 C 604.340 382, 604 383.921, 604 386.269 C 604 390.350, 604.441 390.975, 614.071 400.519 C 619.610 406.008, 624.833 411.850, 625.678 413.500 C 627.652 417.354, 635.706 425.739, 639.200 427.578 C 643.601 429.895, 649.399 429.314, 656.521 425.841 C 660.084 424.104, 663 422.390, 663 422.034 C 663 421.165, 675.788 415.266, 679.250 414.539 C 681.808 414.002, 690.162 404.953, 691.750 401 C 693.335 397.056, 699.835 390.571, 703.981 388.798 C 706.466 387.735, 709.517 385.913, 710.761 384.748 C 713.217 382.448, 718.477 379.073, 724 376.253 C 725.925 375.271, 728.625 373.726, 730 372.822 C 740.219 366.100, 752.059 360.469, 758 359.507 C 760.475 359.106, 766.550 356.874, 771.500 354.546 C 776.450 352.219, 782.525 349.756, 785 349.072 C 787.475 348.388, 791.975 346.856, 795 345.668 C 799.710 343.817, 802.273 343.534, 812.841 343.694 C 826.162 343.895, 828.939 344.535, 854.500 353.289 L 866.500 357.399 883.500 357.449 C 900.905 357.501, 906.947 356.601, 913.500 352.981 C 915.150 352.069, 919.195 350.317, 922.488 349.087 C 925.781 347.857, 928.974 346.437, 929.582 345.932 C 932.031 343.899, 952.057 337.675, 960.500 336.321 C 965.979 335.443, 974.390 335, 982 335.189 L 994.500 335.500 999.500 339.290 C 1006.036 344.245, 1015.441 354.964, 1018.433 360.869 C 1020.730 365.400, 1022.321 367.125, 1033.883 377.616 C 1036.844 380.302, 1041.958 385.087, 1045.247 388.250 C 1050.763 393.553, 1051.588 394.001, 1055.864 394.015 C 1060.996 394.032, 1065.824 395.529, 1070.753 398.634 C 1072.542 399.760, 1076.463 401.271, 1079.464 401.991 C 1084.422 403.181, 1086.022 404.365, 1096.912 414.900 C 1106.531 424.207, 1109.106 427.291, 1109.937 430.500 C 1111.225 435.471, 1116.256 441, 1119.492 441 C 1120.806 441, 1122.160 441.450, 1122.500 442 C 1123.815 444.127, 1131.902 443.030, 1138.352 439.849 C 1144.228 436.951, 1145.045 436.137, 1148.505 429.732 C 1150.574 425.900, 1154.232 420.553, 1156.634 417.849 C 1162.835 410.867, 1165.719 404.618, 1166.528 396.414 C 1167.510 386.445, 1164.213 379.686, 1156.702 376.271 C 1155.216 375.596, 1154 374.594, 1154 374.045 C 1154 371.722, 1138.914 366.001, 1127.154 363.865 C 1119.012 362.386, 1118.565 361.942, 1115.701 352.500 C 1113.253 344.428, 1105.599 327.664, 1101.134 320.595 C 1098.860 316.995, 1097 313.694, 1097 313.261 C 1097 311.291, 1081.795 296.819, 1075.500 292.799 C 1066.166 286.837, 1052.318 281.516, 1042.500 280.120 C 1038.100 279.494, 1027.833 279.013, 1019.684 279.052 L 1004.868 279.121 1005.523 282.103 C 1006.052 284.515, 1005.361 286.437, 1001.911 292.147 C 999.564 296.031, 996.937 300.625, 996.072 302.355 C 993.344 307.813, 984.202 311.772, 964.835 315.881 C 959.664 316.978, 952.404 319.544, 946.835 322.244 C 936.389 327.308, 930.949 329.196, 920 331.557 C 915.875 332.446, 910.484 333.840, 908.021 334.653 C 905.558 335.466, 899.708 336.572, 895.021 337.111 C 890.334 337.649, 884.311 338.342, 881.636 338.649 C 875.022 339.410, 864.299 338.156, 862.562 336.419 C 861.782 335.639, 860.514 335, 859.746 335 C 856.570 335, 843.087 329.534, 830.109 322.985 C 822.495 319.143, 815.361 316, 814.254 316 C 813.147 316, 809.825 314.896, 806.871 313.547 C 803.917 312.198, 798.929 310.427, 795.786 309.611 C 788.911 307.827, 783.938 305.603, 778.250 301.769 C 774.618 299.320, 774 298.400, 774 295.436 C 774 293.529, 774.563 290.159, 775.250 287.947 C 776.424 284.172, 777.126 283.615, 786.750 278.831 C 792.388 276.028, 797 273.641, 797 273.526 C 797 273.411, 795.009 273.287, 792.575 273.250 C 790.141 273.213, 787.371 272.747, 786.420 272.215 C 785.443 271.668, 783.343 271.587, 781.595 272.028 C 778.170 272.892, 754.314 272.709, 738 271.692 C 730.262 271.211, 726.211 271.411, 722.601 272.454" stroke="#e8b1e4" fill="#e8b1e4" fill-opacity="0.2" fill-rule="evenodd"/><path class="svg-region-Ol" d="M 1316.500 352.884 C 1312.650 353.276, 1307.968 354.363, 1306.096 355.299 C 1304.224 356.234, 1301.663 357, 1300.404 357 C 1294.176 357, 1283.634 366.314, 1278.420 376.424 C 1275.232 382.604, 1269.977 391.403, 1258.450 409.858 C 1252.992 418.597, 1243.337 430, 1241.396 430 C 1240.628 430, 1239.988 430.337, 1239.973 430.750 C 1239.959 431.163, 1238.134 433.478, 1235.920 435.895 C 1233.705 438.312, 1231.054 441.912, 1230.028 443.895 C 1229.002 445.878, 1225.045 450.751, 1221.234 454.725 C 1217.423 458.699, 1212.846 464.689, 1211.062 468.034 C 1209.115 471.688, 1206.255 475.251, 1203.903 476.956 C 1196.006 482.676, 1177.748 488.678, 1164 490.074 C 1159.325 490.548, 1153.475 491.381, 1151 491.925 C 1148.525 492.468, 1143.929 492.932, 1140.788 492.956 C 1134.246 493.006, 1125.343 495.999, 1121.090 499.578 C 1119.507 500.910, 1117.754 502, 1117.196 502 C 1116.637 502, 1113.167 504.807, 1109.484 508.238 C 1105.801 511.669, 1101.309 515.381, 1099.501 516.488 C 1093.744 520.012, 1090.690 522.323, 1082.538 529.323 C 1078.158 533.083, 1071.633 537.889, 1068.038 540.002 C 1064.442 542.116, 1058.940 546.141, 1055.811 548.948 C 1052.682 551.755, 1048.422 554.762, 1046.343 555.630 C 1044.265 556.498, 1041.264 558.175, 1039.676 559.355 C 1034.254 563.383, 1022.806 574.495, 1021.498 577 C 1020.779 578.375, 1018.782 580.850, 1017.060 582.500 C 1006.029 593.066, 1002.239 606.620, 1005.519 623.765 C 1007.067 631.855, 1012.260 642.602, 1018.500 650.629 C 1025.266 659.334, 1039.586 674.807, 1045.183 679.463 C 1048.108 681.895, 1053.609 687.061, 1057.410 690.942 C 1061.210 694.824, 1064.777 698, 1065.336 698 C 1066.485 698, 1069.742 700.998, 1084.894 716.001 C 1095.731 726.732, 1107.441 736.394, 1116.680 742.229 C 1125.655 747.897, 1133.216 754.079, 1142.247 763.131 C 1155.343 776.260, 1161.330 779.939, 1178.962 785.699 C 1198.850 792.196, 1209.838 793.350, 1252 793.369 C 1273.075 793.379, 1279.728 793.056, 1284.500 791.791 C 1287.800 790.916, 1293.018 789.523, 1296.096 788.695 C 1302.370 787.007, 1310.271 783.231, 1317 778.703 C 1323.113 774.590, 1334.998 762.091, 1341.310 753.138 C 1344.164 749.089, 1347.737 744.305, 1349.250 742.506 C 1350.763 740.708, 1352 738.926, 1352 738.548 C 1352 738.170, 1353.369 735.871, 1355.042 733.439 C 1356.715 731.008, 1359.083 726.877, 1360.304 724.259 C 1361.525 721.642, 1363.981 717.394, 1365.762 714.820 C 1367.543 712.246, 1369 709.818, 1369 709.425 C 1369 709.032, 1370.982 704.387, 1373.404 699.102 C 1381.076 682.366, 1386.717 664.037, 1389.011 648.396 C 1390.076 641.127, 1390.565 637.695, 1392.978 620.500 C 1394.156 612.110, 1398.809 589.909, 1399.896 587.500 C 1401.432 584.091, 1407.189 563.973, 1412.008 545.171 C 1413.041 541.140, 1414.310 537.315, 1414.828 536.671 C 1416.655 534.398, 1418.562 518.404, 1419.738 495.500 C 1421.305 464.975, 1418.107 434.298, 1411.889 420.223 C 1410.850 417.871, 1410 415.211, 1410 414.311 C 1410 412.554, 1400.647 393.620, 1396.362 386.702 C 1392.063 379.762, 1388.544 376.456, 1379.118 370.500 C 1378.248 369.950, 1375.759 368.038, 1373.588 366.250 C 1371.416 364.462, 1369.159 362.986, 1368.570 362.969 C 1367.982 362.951, 1364.811 361.601, 1361.525 359.969 C 1358.239 358.336, 1354.746 357, 1353.762 357 C 1352.778 357, 1351.191 356.605, 1350.236 356.123 C 1344.078 353.011, 1329.226 351.585, 1316.500 352.884" stroke="#aa444d" fill="#aa444d" fill-opacity="0.2" fill-rule="evenodd"/><path class="svg-region-Or" d="M 442 385.114 C 433.375 387.406, 428.608 389.681, 422.233 394.548 C 419.747 396.447, 417.102 398, 416.356 398 C 415.610 398, 415 398.637, 415 399.417 C 415 400.196, 414.556 400.983, 414.012 401.167 C 412.072 401.822, 400.072 411.519, 399.988 412.500 C 399.919 413.312, 391.842 420.466, 388.248 422.899 C 387.099 423.677, 378.846 434.858, 377.374 437.631 C 374.318 443.386, 371.921 453.543, 370.915 465 C 368.096 497.090, 367.923 511.220, 370.039 536.500 C 371.177 550.085, 375.598 583.409, 376.607 586 C 376.928 586.825, 377.569 591.325, 378.031 596 C 380.622 622.183, 385.838 643.167, 397.049 672.500 C 398.100 675.250, 399.815 679.975, 400.860 683 C 405.761 697.187, 409.498 706.022, 415.162 716.805 C 424.624 734.817, 434.613 751.516, 442.410 762.356 C 446.310 767.777, 451.300 774.790, 453.500 777.941 C 455.700 781.092, 460.761 787.231, 464.747 791.585 C 468.732 795.938, 471.995 799.837, 471.997 800.250 C 471.998 800.663, 472.788 801.810, 473.750 802.801 C 474.712 803.791, 476.556 806.010, 477.847 807.732 C 479.137 809.453, 482.062 812.131, 484.347 813.681 C 486.631 815.231, 489.095 817.063, 489.821 817.750 C 490.548 818.437, 491.543 819, 492.032 819 C 492.522 819, 493.727 819.830, 494.711 820.844 C 496.850 823.048, 500.019 824.742, 510 829.015 C 526.500 836.078, 530.873 837.232, 541 837.197 C 553.898 837.153, 568.885 835.995, 569.504 834.994 C 569.937 834.292, 576.396 832.684, 579.500 832.505 C 580.050 832.473, 580.950 832.201, 581.500 831.901 C 582.050 831.600, 584.525 830.767, 587 830.049 C 589.475 829.331, 593.875 827.677, 596.777 826.372 C 599.680 825.067, 602.412 824, 602.850 824 C 604.110 824, 615.464 817.715, 615.833 816.814 C 616.017 816.366, 616.597 816, 617.124 816 C 619.551 816, 635.949 802.758, 646.500 792.278 C 663.395 775.497, 668.152 770.056, 667.561 768.191 C 667.177 766.981, 668.494 764.610, 671.586 760.946 C 674.113 757.951, 677.017 754.512, 678.037 753.304 C 679.058 752.096, 680.603 749.734, 681.472 748.054 C 682.341 746.374, 683.425 745, 683.881 745 C 684.337 745, 686.587 742.325, 688.880 739.056 C 691.173 735.787, 695.128 731.174, 697.669 728.806 C 700.210 726.438, 704.611 722.250, 707.450 719.500 C 710.288 716.750, 715.171 712.110, 718.301 709.189 C 721.430 706.268, 725.230 702.218, 726.745 700.189 C 728.260 698.160, 731.075 694.773, 733 692.662 C 734.925 690.551, 736.896 688.076, 737.380 687.162 C 737.864 686.248, 739.714 683.925, 741.491 682 C 744.891 678.317, 754.323 662.990, 759.954 652 C 761.785 648.425, 763.833 644.825, 764.505 644 C 765.177 643.175, 766.541 640.250, 767.536 637.500 C 768.531 634.750, 770.386 630.672, 771.658 628.437 C 772.930 626.202, 775.062 621.477, 776.396 617.937 C 777.729 614.397, 779.810 609.025, 781.019 606 C 782.894 601.310, 783.137 599.248, 782.669 592 C 781.798 578.501, 775.981 563.663, 768.525 555.916 C 767.686 555.045, 767 553.898, 767 553.368 C 767 552.837, 765.313 550.591, 763.250 548.375 C 761.188 546.160, 758.756 543.482, 757.847 542.424 C 755.039 539.156, 749.728 534.614, 744.500 531.010 C 741.750 529.115, 738.375 526.601, 737 525.423 C 734.144 522.979, 731.688 521.629, 720.500 516.357 C 716.100 514.284, 709.800 511.043, 706.500 509.155 C 703.200 507.267, 699.594 505.222, 698.486 504.611 C 697.378 504, 695.059 502.488, 693.332 501.250 C 691.604 500.012, 689.726 499, 689.157 499 C 687.866 499, 677.055 493.198, 674.921 491.360 C 674.053 490.612, 672.798 490, 672.131 490 C 669.852 490, 663.502 486.169, 658.138 481.557 C 648.153 472.974, 638.218 469.978, 627.771 472.401 C 620.440 474.101, 615.131 476.830, 610 481.535 C 606.637 484.619, 606.207 484.734, 599 484.485 C 586.627 484.058, 577.363 481.863, 570 477.614 C 564.083 474.199, 547.472 461.349, 544.670 458.020 C 543.212 456.287, 541.606 455.125, 541.101 455.438 C 540.177 456.009, 535 450.563, 535 449.020 C 535 447.870, 517.754 433, 516.420 433 C 514.753 433, 509.632 426.158, 506.311 419.494 C 504.668 416.197, 501.676 410.934, 499.662 407.798 C 497.648 404.662, 496 401.624, 496 401.048 C 496 400.472, 495.655 400, 495.234 400 C 494.812 400, 493.004 397.553, 491.215 394.563 C 488.816 390.552, 486.559 388.322, 482.610 386.063 C 477.325 383.039, 477.080 383.001, 463.378 383.061 C 452.844 383.107, 447.693 383.602, 442 385.114" stroke="#aa444d" fill="#aa444d" fill-opacity="0.2" fill-rule="evenodd"/><path class="svg-region-Pl" d="M 1194.500 451.055 C 1192.850 451.534, 1187.556 452.209, 1182.736 452.554 L 1173.973 453.182 1171.481 458.449 C 1170.109 461.348, 1166.632 465.940, 1163.745 468.665 C 1160.860 471.388, 1157.047 475.727, 1155.271 478.308 C 1153.494 480.888, 1151.469 483.025, 1150.771 483.055 C 1150.072 483.086, 1148.443 484.448, 1147.151 486.083 C 1145.170 488.589, 1145.007 489.304, 1146.111 490.634 C 1147.123 491.853, 1148.456 492.061, 1151.961 491.549 C 1154.457 491.184, 1160.100 490.514, 1164.500 490.061 C 1174.510 489.028, 1187.244 485.406, 1197 480.817 C 1205.137 476.989, 1207.417 474.926, 1211.259 467.921 C 1212.639 465.403, 1214.362 462.393, 1215.087 461.233 C 1216.187 459.472, 1216.166 458.678, 1214.961 456.427 C 1214.167 454.944, 1212.614 453.166, 1211.509 452.477 C 1208.871 450.832, 1198.307 449.949, 1194.500 451.055" stroke="#f9d3d3" fill="#f9d3d3" fill-opacity="0.2" fill-rule="evenodd"/><path class="svg-region-Pr" d="M 549.241 432.250 C 543.688 438.178, 543.740 444.156, 549.442 455.332 C 554.942 466.111, 557.068 468.844, 563.919 473.947 C 572.848 480.597, 584.308 484.009, 599.530 484.550 C 606.467 484.797, 606.617 484.748, 610.780 480.864 C 617.219 474.858, 616.567 472.040, 607.109 465 C 602.219 461.360, 600.348 459.098, 597.319 453.166 C 593.283 445.259, 588.577 440.704, 583.250 439.547 C 581.462 439.159, 580 438.512, 580 438.110 C 580 437.707, 577.862 436.822, 575.250 436.141 C 572.638 435.461, 568.250 433.805, 565.500 432.462 C 558.888 429.231, 552.152 429.143, 549.241 432.250" stroke="#f9d3d3" fill="#f9d3d3" fill-opacity="0.2" fill-rule="evenodd"/><path class="svg-region-DLl" d="M 1154.500 448.488 C 1152.300 449.284, 1149.294 450.175, 1147.820 450.469 C 1146.346 450.763, 1144.466 451.677, 1143.641 452.502 C 1142.817 453.326, 1141.747 454, 1141.263 454 C 1140.778 454, 1139.622 454.563, 1138.692 455.250 C 1137.129 456.406, 1137.113 457.177, 1138.483 465.500 C 1139.298 470.450, 1139.973 476.442, 1139.983 478.816 C 1140 483.090, 1141.353 486.884, 1143.316 488.162 C 1144.807 489.132, 1153.584 481.251, 1157.139 475.750 C 1158.827 473.137, 1160.512 471, 1160.883 471 C 1162.520 471, 1168.899 463.647, 1171.333 458.956 C 1174.294 453.248, 1174.560 452, 1172.814 452 C 1172.162 452, 1170.615 451.048, 1169.377 449.884 C 1166.518 447.198, 1159.806 446.568, 1154.500 448.488" stroke="#b7d6d3" fill="#b7d6d3" fill-opacity="0.2" fill-rule="evenodd"/><path class="svg-region-DLr" d="M 623.116 423.723 C 621.804 423.971, 618.654 425.627, 616.116 427.403 C 610.379 431.415, 605.228 434, 602.969 434 C 602.021 434, 600.663 434.701, 599.952 435.558 C 599.241 436.414, 596.733 438.244, 594.379 439.624 L 590.098 442.132 593.395 446.816 C 595.208 449.392, 597.666 453.565, 598.857 456.088 C 600.251 459.043, 602.709 461.885, 605.761 464.070 C 612.256 468.722, 615 471.862, 615 474.646 C 615 477.385, 615.753 477.562, 618.677 475.513 C 619.845 474.696, 624.453 473.176, 628.919 472.136 C 633.384 471.097, 638.717 469.167, 640.769 467.848 C 642.821 466.529, 645.390 464.969, 646.477 464.381 C 647.565 463.792, 648.757 462.228, 649.128 460.905 C 650.162 457.207, 650.112 447.425, 649.044 444.615 C 647.968 441.786, 641.491 435.014, 635.543 430.500 C 633.369 428.850, 630.537 426.488, 629.250 425.250 C 627.962 424.012, 626.592 423.061, 626.205 423.136 C 625.817 423.211, 624.427 423.475, 623.116 423.723" stroke="#b7d6d3" fill="#b7d6d3" fill-opacity="0.2" fill-rule="evenodd"/><path class="svg-region-OGl" d="M 1181.500 402.442 C 1176.242 404.831, 1173.176 408.690, 1171.039 415.610 C 1169.917 419.240, 1169 422.968, 1169 423.894 C 1169 424.820, 1168.153 427.239, 1167.118 429.269 C 1166.082 431.300, 1164.918 435.499, 1164.531 438.600 C 1163.837 444.150, 1163.885 444.298, 1167.607 448.110 C 1172.228 452.841, 1174.743 453.337, 1187 451.927 C 1201.111 450.304, 1208.945 450.644, 1212.204 453.020 L 1214.908 454.992 1215.906 451.378 C 1216.455 449.390, 1217.542 447.029, 1218.323 446.132 C 1219.103 445.234, 1220.688 441.575, 1221.844 438 C 1224.238 430.600, 1223.836 427.118, 1219.574 418.321 C 1213.651 406.100, 1205.658 401.001, 1192.500 401.049 C 1187.943 401.066, 1183.209 401.665, 1181.500 402.442" stroke="#d66e9d" fill="#d66e9d" fill-opacity="0.2" fill-rule="evenodd"/><path class="svg-region-OGr" d="M 577 391.160 C 575.075 391.686, 571.305 392.522, 568.623 393.018 C 562.651 394.122, 561.351 395.256, 556.285 403.778 C 550.230 413.961, 549.360 416.992, 550.998 422.191 C 552.765 427.801, 554.707 429.999, 557.905 430.006 C 559.332 430.010, 561.850 430.742, 563.500 431.633 C 567.787 433.949, 576.163 437, 578.236 437 C 579.206 437, 580 437.414, 580 437.921 C 580 438.427, 581.345 439.136, 582.989 439.497 C 584.632 439.858, 586.234 440.569, 586.548 441.077 C 587.673 442.898, 590.870 441.935, 596.762 438 C 600.057 435.800, 603.456 434, 604.317 434 C 605.178 434, 606.139 433.585, 606.452 433.077 C 606.766 432.569, 608.330 431.867, 609.928 431.516 C 611.526 431.165, 613.106 430.166, 613.440 429.296 C 614.156 427.430, 614.487 427.717, 609.511 425.890 C 606.614 424.826, 605.247 423.614, 604.517 421.463 C 603.964 419.833, 602.946 417.905, 602.255 417.178 C 601.554 416.440, 601.259 414.818, 601.587 413.509 C 602.119 411.389, 599.298 400.693, 596.813 395.406 C 596.200 394.101, 593.848 392.687, 590.576 391.656 C 584.781 389.829, 582.219 389.735, 577 391.160" stroke="#d66e9d" fill="#d66e9d" fill-opacity="0.2" fill-rule="evenodd"/><path class="svg-region-OLr" d="M 596.656 392.750 C 596.402 393.163, 597.501 397.533, 599.097 402.463 C 600.693 407.393, 601.746 412.225, 601.436 413.201 C 601.126 414.177, 601.541 416.219, 602.358 417.738 C 603.175 419.257, 604.094 421.299, 604.400 422.276 C 605.099 424.505, 613.630 428.252, 616.170 427.446 C 621.178 425.856, 625.252 417.510, 622 415.500 C 621.450 415.160, 621 413.761, 621 412.391 C 621 410.898, 619.598 408.458, 617.500 406.297 C 615.575 404.315, 614 402.132, 614 401.445 C 614 400.258, 610.268 397.523, 603.563 393.798 C 600.277 391.972, 597.404 391.536, 596.656 392.750" stroke="#c4875d" fill="#c4875d" fill-opacity="0.2" fill-rule="evenodd"/><path class="svg-region-OABl" d="M 903 541.042 C 899.975 541.460, 894.462 541.847, 890.750 541.901 C 884.682 541.990, 884 542.204, 884 544.016 C 884 545.976, 884.471 546.018, 901.090 545.572 C 914.495 545.211, 918.707 544.767, 920.622 543.512 C 921.965 542.632, 922.798 541.482, 922.473 540.956 C 921.799 539.866, 911.168 539.913, 903 541.042 M 978.515 556.366 C 977.391 557.187, 976.921 558.351, 977.306 559.355 C 978.243 561.796, 979.874 561.349, 980.601 558.453 C 981.409 555.232, 980.841 554.664, 978.515 556.366" stroke="#81244d" fill="#81244d" fill-opacity="0.2" fill-rule="evenodd"/><path class="svg-region-OABr" d="M 839.558 533.906 C 839.186 534.508, 837.934 535, 836.774 535 C 835.615 535, 834.929 535.262, 835.250 535.583 C 835.833 536.166, 846.278 537.705, 855.261 538.533 C 857.880 538.774, 861.728 539.841, 863.811 540.904 C 868.879 543.489, 883.010 546.390, 884.291 545.109 C 885.976 543.424, 884.285 541.259, 880.827 540.675 C 874.401 539.589, 866.433 537.747, 859.500 535.744 C 851.085 533.312, 840.527 532.339, 839.558 533.906" stroke="#81244d" fill="#81244d" fill-opacity="0.2" fill-rule="evenodd"/><path class="svg-region-OVl" d="M 1116.648 443.992 C 1118.088 451.190, 1108.276 463.452, 1095.796 470.053 L 1089.500 473.383 1075.220 473.184 C 1062.313 473.004, 1060.679 473.177, 1058.220 474.991 C 1056.614 476.176, 1052.633 477.397, 1048.500 477.972 C 1044.650 478.508, 1037.450 479.589, 1032.500 480.375 C 1027.550 481.160, 1021.138 481.559, 1018.250 481.262 L 1013 480.720 1013 484.360 L 1013 488 1007.452 488 C 1002.688 488, 1001.542 488.388, 999.341 490.750 C 994.551 495.890, 992.160 506.345, 994.653 511.250 C 996.123 514.141, 997.629 515.082, 996.634 512.488 C 996.315 511.657, 996.535 509.921, 997.122 508.631 C 998.176 506.318, 1001.113 505.472, 1014.500 503.625 C 1021.326 502.683, 1033.211 499.939, 1036.607 498.520 C 1040.730 496.797, 1047.572 496.498, 1048.500 498 C 1050.426 501.116, 1063.390 495.555, 1066.661 490.209 C 1067.427 488.958, 1069.985 487.876, 1074.161 487.037 C 1077.648 486.336, 1083.425 484.518, 1087 482.998 C 1090.575 481.477, 1095.402 479.442, 1097.728 478.475 C 1100.053 477.508, 1102.200 475.993, 1102.499 475.108 C 1102.797 474.224, 1104.662 472.375, 1106.641 471 C 1113.193 466.449, 1118.147 460.590, 1121.595 453.316 C 1123.468 449.364, 1125 445.684, 1125 445.137 C 1125 443.184, 1121.808 441, 1118.954 441 C 1116.262 441, 1116.094 441.219, 1116.648 443.992" stroke="#593939" fill="#593939" fill-opacity="0.2" fill-rule="evenodd"/><path class="svg-region-OVr" d="M 662.362 422.284 C 656.849 426.009, 650.685 428.789, 647 429.212 C 642.722 429.705, 643.352 433.080, 648.940 439.609 C 653.477 444.910, 653.983 445.983, 653.991 450.316 C 653.996 452.964, 653.519 456.031, 652.931 457.130 C 651.579 459.655, 653.293 462, 656.492 462 C 662.187 462, 675.800 467.698, 686.582 474.595 C 691.730 477.889, 692.334 478.045, 695.660 476.947 C 699.057 475.826, 705.869 476.080, 712.500 477.575 C 714.967 478.131, 715.278 478.015, 714.250 476.925 C 711.646 474.165, 712.833 473, 718.250 473.001 C 723.639 473.002, 730.484 475.146, 735.123 478.288 C 738.769 480.756, 747.449 481.987, 761.250 481.994 C 772.162 482, 773 481.863, 773 480.085 C 773 478.102, 764.609 470, 762.556 470 C 761.916 470, 759.167 468.921, 756.446 467.601 C 753.726 466.282, 749.848 464.684, 747.830 464.050 C 745.811 463.416, 743.652 462.286, 743.032 461.539 C 742.134 460.456, 742.544 460.039, 745.051 459.489 C 746.782 459.109, 747.816 458.467, 747.349 458.064 C 746.618 457.432, 737.294 454.427, 725 450.863 C 723.007 450.285, 717.194 450.096, 711.500 450.424 C 706 450.741, 698.812 451.113, 695.526 451.250 L 689.551 451.500 687.329 447.500 C 686.106 445.300, 682.492 441.531, 679.298 439.125 C 671.468 433.228, 669.720 430.666, 669.193 424.320 C 668.951 421.394, 668.409 419, 667.988 419 C 667.568 419, 665.036 420.478, 662.362 422.284" stroke="#593939" fill="#593939" fill-opacity="0.2" fill-rule="evenodd"/>
    </svg>