<svg xmlns="http://www.w3.org/2000/svg" width="1785" height="1131" viewBox="0 0 1785 1131" version="1.1">
    <path class="svg-region-IF" d="M 851.500 556.235 C 840.985 557.939, 825.879 561.920, 821.355 564.180 C 816.730 566.489, 817.032 565.885, 812.411 582.113 C 810.726 588.033, 849.215 603.197, 869.421 604.573 C 873.778 604.870, 878.140 605.540, 879.115 606.062 C 883.680 608.505, 921.081 603.645, 925.461 600.040 C 926.032 599.569, 928.975 598.315, 932 597.254 C 939.913 594.476, 959 580.887, 959 578.031 C 959 577.464, 957.987 576.998, 956.750 576.995 C 953.872 576.989, 949.638 573.456, 947.273 569.087 C 945.790 566.348, 944.149 565.207, 938.963 563.311 C 935.408 562.012, 931.600 560.576, 930.500 560.121 C 919.122 555.417, 919.920 555.506, 888 555.381 C 871.225 555.316, 854.800 555.700, 851.500 556.235" stroke="#f2823b" fill="#f2823b" fill-opacity="0.2" fill-rule="evenodd"/><path class="svg-region-PF" d="M 982.218 452.022 C 979.128 453.291, 973.217 459.762, 971.498 463.756 C 970.727 465.547, 969.011 467.425, 967.685 467.930 C 965.500 468.760, 964 470.817, 964 472.983 C 964 474.937, 971.776 478.106, 979.804 479.424 C 984.587 480.209, 990.525 481.315, 993 481.882 C 999.641 483.403, 1006.241 483.220, 1008.777 481.443 C 1010.570 480.188, 1011 478.920, 1011 474.891 C 1011 471.588, 1011.736 468.617, 1013.175 466.118 C 1015.331 462.371, 1015.333 462.317, 1013.425 459.701 C 1012.366 458.250, 1011.144 457.049, 1010.710 457.031 C 1010.275 457.014, 1008.549 455.988, 1006.875 454.750 C 1004.411 452.928, 1002.468 452.489, 996.666 452.440 C 992.725 452.407, 988.375 452.089, 987 451.732 C 985.625 451.375, 983.473 451.506, 982.218 452.022 M 735.859 457.087 C 733.907 458.293, 736.058 464.978, 738.868 466.440 C 742.613 468.389, 745.769 472.088, 746.162 474.990 C 746.635 478.478, 749.349 478.656, 755.396 475.597 C 761.842 472.336, 767.556 463.807, 766.504 459.018 L 765.862 456.094 751.362 456.280 C 743.388 456.383, 736.411 456.746, 735.859 457.087" stroke="#faaaaa" fill="#faaaaa" fill-opacity="0.2" fill-rule="evenodd"/><path class="svg-region-AAB" d="M 816 533.652 C 815.175 533.924, 813.600 534.528, 812.500 534.995 C 811.400 535.462, 803.950 536.087, 795.944 536.384 C 775.068 537.159, 769.420 539.636, 775.166 545.495 C 776.450 546.804, 780.200 551.361, 783.500 555.622 C 798.151 574.536, 813 587.209, 813 580.799 C 813 580.203, 813.891 576.724, 814.980 573.067 C 816.852 566.780, 817.218 566.293, 821.695 564.117 C 827.314 561.387, 842.145 557.674, 854 556.028 C 859.423 555.275, 872.635 554.966, 890.500 555.174 C 919.497 555.512, 919.550 555.518, 930.500 560.138 C 931.600 560.602, 935.425 562.059, 939 563.375 C 944.762 565.497, 945.777 566.284, 947.937 570.309 C 950.362 574.826, 953.321 577, 957.047 577 C 958.121 577, 959 577.471, 959 578.046 C 959 578.621, 960.919 577.609, 963.264 575.796 C 967.491 572.528, 969.617 570.604, 981.811 559.004 C 985.282 555.702, 988.461 553, 988.874 553 C 989.288 553, 990.919 551.650, 992.500 550 L 995.374 547 992.211 547 C 990.472 547, 987.575 547.898, 985.774 548.996 C 983.973 550.094, 981.578 550.994, 980.450 550.996 C 979.323 550.998, 977.933 551.467, 977.363 552.037 C 975.937 553.463, 971.421 551.655, 970.061 549.114 C 969.477 548.023, 969 546.067, 969 544.766 C 969 541.642, 967.225 540, 963.849 540 C 962.336 540, 958.488 539.306, 955.299 538.458 C 940.865 534.618, 907.766 533.630, 891.500 536.552 C 882.412 538.185, 869.357 537.328, 862.500 534.650 C 859.324 533.410, 854.276 533.095, 838 533.123 C 826.725 533.142, 816.825 533.380, 816 533.652" stroke="#7f3c1a" fill="#7f3c1a" fill-opacity="0.2" fill-rule="evenodd"/><path class="svg-region-APB" d="M 766.250 453.220 C 764.026 454.293, 763.181 456, 764.875 456 C 765.356 456, 766.028 457.388, 766.367 459.085 C 766.826 461.380, 766.321 463.303, 764.395 466.589 C 760.387 473.428, 753.340 478, 746.806 478 C 745.184 478, 741.856 479.172, 739.412 480.604 C 736.400 482.369, 734.187 483.013, 732.545 482.601 C 731.213 482.266, 729.843 482.444, 729.502 482.996 C 729.161 483.548, 728.030 484, 726.988 484 C 724.110 484, 720 486.153, 720 487.661 C 720 488.407, 721.060 489, 722.393 489 C 723.709 489, 725.040 489.661, 725.350 490.468 C 725.659 491.276, 727.468 492.587, 729.369 493.381 C 733.655 495.171, 752.681 514.033, 754.544 518.338 C 756.575 523.031, 769.750 536, 772.487 536 C 773.260 536, 780.078 534.401, 787.637 532.447 C 813.692 525.710, 823.367 525.300, 894 527.936 C 934.793 529.459, 943.302 530.492, 956.500 535.525 C 960.350 536.993, 965.278 538.854, 967.450 539.661 C 972.103 541.389, 978.792 540.930, 984.470 538.493 C 987.035 537.392, 989.949 536.960, 992.705 537.270 L 996.970 537.751 1009.396 525.625 C 1016.231 518.956, 1022.651 512.129, 1023.662 510.453 C 1024.673 508.777, 1028.987 504.080, 1033.250 500.014 C 1040.773 492.839, 1042.337 490.327, 1039.750 489.573 C 1028.892 486.412, 1026.619 485.421, 1023.341 482.418 C 1018.834 478.290, 1014.005 477.884, 1008.443 481.166 C 1005.013 483.190, 1004.268 483.259, 997.136 482.217 C 979.058 479.577, 971.941 478.004, 967.194 475.598 C 962.333 473.135, 961.827 473.079, 953.821 474.107 C 949.244 474.694, 942.575 474.894, 939 474.551 C 933.157 473.990, 929.233 473.169, 916.680 469.879 C 914.579 469.328, 904.904 468.971, 895.180 469.085 C 883.923 469.217, 875.683 468.848, 872.500 468.069 C 869.439 467.320, 860.325 466.859, 849 466.881 C 838.825 466.901, 827.800 466.484, 824.500 465.955 C 811.603 463.888, 806.382 462.653, 803.500 460.989 C 801.850 460.037, 798.475 458.999, 796 458.682 C 793.525 458.365, 787.297 456.732, 782.160 455.053 C 772.173 451.789, 769.788 451.514, 766.250 453.220" stroke="#ac7444" fill="#ac7444" fill-opacity="0.2" fill-rule="evenodd"/><path class="svg-region-PC" d="M 844.500 414.057 C 842.300 414.512, 838.123 414.911, 835.218 414.942 C 832.313 414.974, 828.263 415.712, 826.218 416.583 C 824.173 417.453, 819.663 419.054, 816.196 420.140 C 812.728 421.226, 807.146 423.888, 803.791 426.057 C 800.435 428.226, 797.262 430, 796.739 430 C 794.717 430, 788.299 436.040, 786.454 439.679 C 785.389 441.781, 784.010 444.175, 783.389 445 C 781.395 447.652, 781.150 451.972, 782.879 453.978 C 784.677 456.063, 792.685 459, 796.575 459 C 797.952 459, 800.749 459.835, 802.790 460.856 C 804.830 461.876, 808.075 463.022, 810 463.401 C 824.913 466.342, 831.112 466.904, 848.500 466.888 C 861.334 466.876, 869.772 467.344, 874.500 468.328 C 879.593 469.389, 885.587 469.653, 896.500 469.297 C 910.249 468.850, 912.417 469.030, 922.500 471.454 C 942.975 476.378, 950.083 475.979, 963.791 469.138 C 971.607 465.238, 973.141 463.026, 970.933 458.843 C 969.743 456.590, 968.814 455.616, 962.408 449.910 C 960.809 448.485, 955.610 443.310, 950.855 438.410 C 940.305 427.535, 937.564 425.199, 933.028 423.207 C 931.088 422.355, 927.274 420.610, 924.554 419.329 C 918.610 416.530, 913.696 416.398, 899.743 418.662 C 883.164 421.353, 879.224 420.882, 864.216 414.415 C 860.683 412.893, 850.982 412.717, 844.500 414.057" stroke="#cda789" fill="#cda789" fill-opacity="0.2" fill-rule="evenodd"/><path class="svg-region-DB" d="M 760.366 272.217 C 760.100 272.648, 755.211 273, 749.503 273 C 743.795 273, 736.275 273.661, 732.792 274.468 C 724.416 276.411, 712.733 282.184, 707.067 287.179 C 704.555 289.393, 700.890 292.029, 698.923 293.035 C 695.795 294.635, 685.991 302.385, 676.445 310.805 C 674.764 312.287, 670.748 315.750, 667.519 318.500 C 664.290 321.250, 660.297 324.971, 658.647 326.769 C 656.996 328.566, 653.672 331.022, 651.261 332.226 C 645.382 335.163, 637.527 342.949, 625.261 358 C 616.342 368.944, 613.100 372.343, 604.685 379.571 C 602.293 381.626, 603.178 386.088, 607.084 391.663 C 610.050 395.898, 610.806 399.384, 609 400.500 C 608.450 400.840, 608 402.415, 608 404 C 608 405.585, 608.450 407.160, 609 407.500 C 609.550 407.840, 610 410.844, 610 414.176 L 610 420.233 612.750 419.532 C 614.263 419.147, 618.921 418.599, 623.102 418.316 C 630.456 417.819, 630.816 417.900, 634.102 420.802 C 635.971 422.452, 639.525 427.784, 642 432.651 C 646.365 441.235, 646.499 441.769, 646.452 450.500 C 646.415 457.229, 645.848 460.990, 644.202 465.405 C 642.991 468.653, 642 471.466, 642 471.655 C 642 472.835, 646.126 471.341, 656.127 466.540 C 664.150 462.689, 669.562 460.775, 674.500 460.042 C 683.507 458.706, 724.046 458.229, 730.250 459.386 C 734.342 460.149, 735 460.045, 735 458.636 C 735 457.736, 735.563 456.958, 736.250 456.907 C 736.938 456.855, 742.832 456.669, 749.349 456.493 C 759.396 456.221, 761.857 455.823, 765.524 453.878 C 769.600 451.716, 770.157 451.661, 775.175 452.934 C 778.104 453.677, 781.125 454.518, 781.890 454.803 C 782.969 455.206, 783.051 454.914, 782.257 453.495 C 779.494 448.557, 788.577 433.932, 796.730 430.190 C 798.804 429.239, 802.343 427.218, 804.596 425.699 C 806.849 424.180, 812.317 421.656, 816.746 420.090 C 821.176 418.523, 825.381 416.882, 826.092 416.443 C 826.803 416.004, 831.235 415.295, 835.942 414.868 C 862.791 412.433, 860.175 412.231, 871.500 417.609 C 877.812 420.606, 885.152 420.983, 897.674 418.953 C 915.806 416.014, 917.682 416.191, 929.416 421.944 C 939.135 426.710, 940.106 427.501, 956.250 443.815 L 973.001 460.742 976.368 457.015 C 980.642 452.284, 984.676 450.796, 989.567 452.146 C 991.580 452.702, 995.313 452.870, 997.863 452.520 C 1002.109 451.938, 1002.956 452.206, 1007.909 455.692 C 1015.012 460.694, 1015.967 462.274, 1013.519 464.979 C 1012.252 466.379, 1011.479 469.055, 1011.191 473.037 L 1010.760 479 1015.130 478.968 C 1019.170 478.939, 1019.355 478.827, 1017.578 477.482 C 1015.782 476.123, 1016.139 475.806, 1023.078 472.612 C 1035.421 466.930, 1053.893 461.625, 1066.953 460.013 C 1071.460 459.457, 1073.882 458.629, 1074.984 457.269 C 1076.125 455.859, 1078.396 455.133, 1083.207 454.640 C 1086.862 454.266, 1091.412 453.308, 1093.318 452.511 C 1096.974 450.984, 1096.779 451.477, 1098.589 439.172 L 1099.225 434.845 1105.862 435.293 C 1112.449 435.738, 1114.559 436.040, 1120.680 437.414 C 1123.290 438, 1124.058 437.761, 1124.956 436.083 C 1125.558 434.958, 1127.118 433.467, 1128.422 432.769 C 1130.953 431.416, 1138.355 425.489, 1140.623 423 C 1141.375 422.175, 1143.905 419.313, 1146.245 416.640 C 1148.585 413.968, 1151.995 411.136, 1153.821 410.347 C 1155.648 409.559, 1157.894 407.605, 1158.812 406.005 C 1159.730 404.405, 1161.386 402.869, 1162.491 402.591 C 1170.491 400.582, 1170.671 393.431, 1162.989 382.826 C 1159.693 378.276, 1139.108 358.388, 1130.500 351.437 C 1127.200 348.772, 1123.380 345.559, 1122.010 344.296 C 1120.641 343.033, 1119.195 342, 1118.796 342 C 1118.398 342, 1116.975 340.386, 1115.635 338.413 C 1113.404 335.130, 1105.935 326.765, 1092.250 312.222 C 1089.362 309.153, 1087 306.027, 1087 305.274 C 1087 304.521, 1084.861 301.789, 1082.247 299.202 C 1076.052 293.073, 1052.904 281.344, 1035.537 275.535 C 1022.773 271.265, 1015.695 270.817, 999 273.222 C 994.325 273.896, 985.212 274.409, 978.750 274.364 C 967.019 274.281, 964.557 274.941, 969.750 276.776 C 973.630 278.147, 978.732 283.352, 984.183 291.500 C 986.759 295.350, 991.819 301.650, 995.427 305.500 C 999.036 309.350, 1001.991 313.197, 1001.994 314.050 C 1001.997 314.902, 1002.487 316.087, 1003.082 316.682 C 1003.858 317.458, 1003.814 318.434, 1002.927 320.132 C 1002.246 321.434, 1001.377 323.169, 1000.995 323.986 C 1000.613 324.803, 997.420 327.606, 993.900 330.214 C 990.380 332.823, 986.236 335.923, 984.691 337.104 C 977.618 342.508, 947.827 347.748, 939.604 345.034 C 937.874 344.463, 928.143 342.935, 917.980 341.638 C 905.736 340.076, 897.981 338.589, 895 337.233 C 886.478 333.356, 870.307 332.667, 836.500 334.739 C 826.050 335.379, 813 336.593, 807.500 337.437 C 802 338.280, 794.398 339.442, 790.607 340.018 C 781.115 341.461, 773.907 339.066, 765.250 331.594 C 763.135 329.768, 763 328.883, 763 316.857 C 763 304.076, 763.004 304.054, 767.148 294.393 C 772.638 281.594, 775.711 276.236, 778.674 274.294 C 780.528 273.079, 780.803 272.490, 779.810 271.855 C 778.188 270.820, 761.032 271.139, 760.366 272.217" stroke="#e8b1e4" fill="#e8b1e4" fill-opacity="0.2" fill-rule="evenodd"/><path class="svg-region-MB" d="M 793.500 271.018 C 784.239 272.166, 778.865 273.681, 776.976 275.677 C 774.726 278.056, 770.124 286.721, 766.450 295.500 C 763.843 301.728, 763.464 303.988, 763.010 316 L 762.500 329.500 765.632 332.250 C 767.355 333.762, 769.212 335, 769.760 335 C 770.307 335, 771.266 335.615, 771.890 336.367 C 772.513 337.119, 775.427 338.490, 778.365 339.414 C 783.542 341.042, 784.253 341.011, 801.603 338.406 C 811.446 336.928, 822.650 335.561, 826.500 335.368 C 830.350 335.175, 841.226 334.493, 850.670 333.851 C 870.757 332.487, 885.691 333.688, 895.500 337.457 C 900.935 339.546, 908.060 340.759, 925.500 342.565 C 928.800 342.907, 934.087 343.832, 937.248 344.620 C 949.018 347.556, 977.755 343.032, 984.441 337.191 C 985.574 336.202, 989.761 333.252, 993.746 330.635 C 998.900 327.252, 1001.178 325.102, 1001.634 323.189 C 1001.987 321.710, 1002.667 320, 1003.145 319.389 C 1005.022 316.989, 1000.898 310.806, 989.447 298.855 C 988.580 297.950, 985.976 294.350, 983.660 290.855 C 974.539 277.090, 966.757 272.794, 951.500 273.102 C 940.093 273.333, 932.528 274.445, 917.500 278.099 C 901.035 282.102, 889.177 281.996, 856.500 277.553 C 850.450 276.730, 839.144 275.669, 831.375 275.195 C 819.970 274.498, 816.450 273.915, 813.094 272.166 C 808.715 269.883, 804.596 269.642, 793.500 271.018" stroke="#f9c6c6" fill="#f9c6c6" fill-opacity="0.2" fill-rule="evenodd"/><path class="svg-region-Ol" d="M 1310.500 335.995 C 1302.408 337.502, 1285.617 345.865, 1281.663 350.357 C 1275.015 357.910, 1272.492 361.814, 1268.876 370.138 C 1260.539 389.332, 1259.112 393.073, 1258.454 397.461 C 1258.083 399.933, 1256.479 404.007, 1254.890 406.513 C 1253.300 409.019, 1251.999 411.391, 1251.998 411.785 C 1251.994 412.852, 1244.505 423.674, 1240.235 428.781 C 1238.181 431.239, 1232.333 437.356, 1227.239 442.375 C 1219.171 450.325, 1217.979 451.935, 1217.989 454.877 C 1218.004 459.600, 1208.696 477.629, 1204.114 481.751 C 1199.348 486.039, 1186.925 492.089, 1181.677 492.680 C 1179.380 492.938, 1175.154 494.286, 1172.288 495.675 C 1164.041 499.670, 1154.729 499.873, 1141.331 496.349 C 1131.421 493.742, 1129.055 493.503, 1113.500 493.537 C 1093.865 493.580, 1088.937 494.753, 1075.985 502.462 C 1071.868 504.913, 1065.380 508.503, 1061.567 510.440 C 1057.753 512.378, 1053.253 515.251, 1051.567 516.825 C 1049.880 518.398, 1046.700 520.755, 1044.500 522.061 C 1040.226 524.599, 1031.828 530.764, 1031 531.972 C 1030.725 532.373, 1028.475 533.958, 1026 535.494 C 1019.901 539.279, 1005.209 550.580, 1001.423 554.397 C 999.731 556.104, 995.867 559.610, 992.837 562.190 C 981.114 572.168, 977.044 581.654, 977.016 599.068 C 976.991 613.869, 980.953 624.218, 993.834 643 C 997.418 648.225, 1001.429 654.075, 1002.749 656 C 1004.068 657.925, 1005.747 659.836, 1006.480 660.247 C 1007.213 660.658, 1010.396 664.933, 1013.554 669.747 C 1016.711 674.561, 1020.466 679.660, 1021.897 681.079 C 1025.139 684.291, 1029 689.608, 1029 690.861 C 1029 691.379, 1030.575 692.732, 1032.500 693.867 C 1035.006 695.346, 1036 696.638, 1036 698.417 C 1036 699.783, 1036.633 701.260, 1037.407 701.700 C 1038.181 702.140, 1040.368 704.814, 1042.267 707.642 C 1044.166 710.470, 1046.259 713.395, 1046.919 714.142 C 1047.579 714.889, 1053.285 722.475, 1059.599 731 C 1065.913 739.525, 1071.848 747.197, 1072.789 748.049 C 1073.730 748.901, 1074.950 750.322, 1075.500 751.207 C 1077.622 754.621, 1088.028 768.622, 1090.211 771 C 1091.474 772.375, 1094.755 775.300, 1097.503 777.500 C 1100.251 779.700, 1102.660 781.867, 1102.855 782.315 C 1103.050 782.763, 1104.175 783.556, 1105.355 784.077 C 1109.280 785.811, 1113.881 788.876, 1122.231 795.317 C 1131.309 802.320, 1136.501 805.348, 1138.318 804.699 C 1138.968 804.466, 1141.075 804.885, 1143 805.630 C 1146.384 806.939, 1153.284 808.851, 1169 812.834 C 1185.611 817.044, 1191.911 818.255, 1200.827 818.952 C 1230.928 821.306, 1250.920 812.929, 1280.346 785.633 C 1288.622 777.955, 1292.581 773.623, 1298.741 765.499 C 1303.266 759.532, 1305.115 756.762, 1307.420 752.500 C 1310.377 747.031, 1313.563 741.423, 1316.796 736 C 1320.713 729.430, 1331 710.016, 1330.967 709.257 C 1330.949 708.841, 1333.169 704, 1335.899 698.500 C 1345.405 679.355, 1354.854 659.403, 1356.517 654.966 C 1358.804 648.863, 1361.957 642.285, 1364.890 637.500 C 1368.077 632.301, 1374.060 617.571, 1379.094 602.528 C 1381.298 595.943, 1383.440 590.318, 1383.854 590.028 C 1384.268 589.738, 1385.109 587.475, 1385.722 585 C 1386.335 582.525, 1387.487 577.922, 1388.282 574.771 C 1389.077 571.620, 1391.339 566.670, 1393.307 563.771 C 1395.276 560.872, 1397.819 555.575, 1398.959 552 C 1400.098 548.425, 1401.416 544.810, 1401.888 543.967 C 1402.360 543.124, 1403.080 540.874, 1403.488 538.967 C 1403.897 537.060, 1404.666 534.960, 1405.197 534.299 C 1406.254 532.985, 1412.694 515.177, 1416.696 502.500 C 1419.045 495.059, 1419.231 492.998, 1419.361 473 C 1419.451 459.027, 1419.102 450.450, 1418.363 448.500 C 1417.737 446.850, 1416.457 442.575, 1415.519 439 C 1414.580 435.425, 1413.441 431.778, 1412.988 430.894 C 1412.534 430.011, 1410.795 424.554, 1409.123 418.766 C 1407.451 412.978, 1404.939 405.657, 1403.541 402.497 C 1402.144 399.337, 1401 396.217, 1401 395.563 C 1401 393.646, 1396.930 385.738, 1394.365 382.673 C 1393.064 381.119, 1392 379.058, 1392 378.095 C 1392 375.006, 1386.037 367.211, 1378.665 360.663 C 1369.476 352.500, 1362.492 347.774, 1353.059 343.332 C 1348.901 341.375, 1343.274 338.700, 1340.554 337.387 C 1336.228 335.299, 1334.283 335.016, 1325.054 335.125 C 1319.249 335.194, 1312.700 335.586, 1310.500 335.995" stroke="#aa444d" fill="#aa444d" fill-opacity="0.2" fill-rule="evenodd"/><path class="svg-region-Or" d="M 448 351.498 C 442.939 352.876, 439.398 354.453, 418.138 364.795 C 410.287 368.613, 402.629 373.386, 399.756 376.250 C 398.790 377.212, 397.542 378, 396.981 378 C 395.283 378, 378.772 395.351, 374.500 401.626 C 372.300 404.857, 369.770 408.311, 368.877 409.303 C 366.055 412.435, 360 425.094, 360 427.859 C 360 429.319, 359.578 431.986, 359.061 433.786 C 358.190 436.825, 357.511 443.856, 356.529 460 C 356.122 466.694, 356.941 474.309, 359.381 486.500 C 360.151 490.350, 361.083 495.075, 361.450 497 C 364.812 514.589, 376.471 558.964, 382.865 578.506 C 387.217 591.807, 396.528 613.173, 410.968 643 C 427.741 677.643, 428.949 680.497, 439.540 710.500 C 447.419 732.822, 447.545 733.133, 453.929 745.939 C 459.681 757.478, 466.020 768.311, 470.697 774.594 C 471.964 776.296, 473 778.137, 473 778.684 C 473 779.231, 474.462 781.044, 476.250 782.714 C 478.038 784.383, 481.075 787.629, 483 789.927 C 486.979 794.677, 501.691 807.599, 510.222 813.838 C 515.807 817.921, 521.871 820.477, 536.890 825.077 C 543.505 827.104, 546.334 827.339, 563.890 827.324 C 580.888 827.310, 584.673 827.010, 592.306 825.066 C 597.149 823.832, 602.324 822.191, 603.806 821.418 C 605.288 820.645, 607.132 820.010, 607.904 820.006 C 613.652 819.981, 637.622 802.145, 651.290 787.721 C 665.151 773.095, 682 754.244, 682.003 753.361 C 682.007 752.425, 702.237 731.510, 713.500 720.799 C 724.510 710.328, 734.973 698.715, 737.857 693.766 C 740.828 688.666, 748.012 678.586, 752.425 673.325 C 755.601 669.538, 763.529 656.073, 764.609 652.632 C 764.977 651.459, 767.826 645.550, 770.939 639.500 C 774.053 633.450, 777.210 626.925, 777.956 625 C 778.701 623.075, 780.929 618.125, 782.906 614 C 786.332 606.851, 786.495 606.032, 786.386 596.500 C 786.195 579.771, 782.898 568.467, 776.030 561 C 774.259 559.075, 772.065 556.596, 771.155 555.490 C 769.212 553.130, 759.401 546, 758.098 546 C 757.371 546, 750.240 541.074, 745.499 537.297 C 738.071 531.380, 721.880 521.927, 715.036 519.513 C 712.755 518.708, 708.326 516.317, 705.194 514.200 C 692.808 505.829, 681.418 498.466, 679.852 497.820 C 678.946 497.446, 677.907 496.659, 677.543 496.070 C 677.180 495.482, 675.221 494.993, 673.191 494.985 C 671.161 494.977, 667.475 494.263, 665 493.397 C 662.260 492.439, 655.338 491.605, 647.300 491.264 C 635.516 490.765, 633.799 490.905, 631.300 492.569 C 629.251 493.934, 626.622 494.443, 621.500 494.467 C 612.358 494.510, 596.636 492.448, 593.533 490.799 C 592.188 490.085, 587.693 487.721, 583.544 485.547 C 579.395 483.373, 576 481.235, 576 480.797 C 576 480.359, 575.212 480, 574.250 479.999 C 573.288 479.999, 569.780 478.711, 566.455 477.138 C 562.019 475.040, 558.823 472.467, 554.455 467.478 C 551.180 463.738, 546.768 458.978, 544.650 456.900 C 542.533 454.823, 539.279 450.761, 537.418 447.873 C 535.558 444.985, 533.426 442.533, 532.680 442.424 C 531.002 442.177, 521.250 432.735, 517.782 428 C 515.052 424.272, 514.271 421.585, 513.512 413.310 C 513.250 410.456, 511.938 404.831, 510.597 400.810 C 509.255 396.790, 507.895 391.907, 507.573 389.959 C 506.479 383.338, 500.470 372.731, 493.875 365.782 C 484.421 355.819, 474.976 351.362, 461.500 350.508 C 456.064 350.163, 451.737 350.480, 448 351.498" stroke="#aa444d" fill="#aa444d" fill-opacity="0.2" fill-rule="evenodd"/><path class="svg-region-Pl" d="M 1204.500 448.323 C 1200.144 450.591, 1197.267 451.413, 1194 451.322 C 1188.004 451.154, 1181.790 449.996, 1180.250 448.759 C 1179.297 447.994, 1179 448.584, 1179 451.243 C 1179 455.284, 1176.190 459.333, 1171.817 461.595 C 1170.163 462.450, 1166.265 465.096, 1163.155 467.475 C 1160.045 469.855, 1154.679 473.246, 1151.232 475.011 C 1144.982 478.212, 1144.224 478.288, 1136.783 476.450 C 1134.591 475.909, 1133.481 476.365, 1131.033 478.813 C 1128.578 481.268, 1128 482.681, 1128 486.232 C 1128 488.644, 1128.563 491.327, 1129.250 492.193 C 1131.002 494.401, 1150.648 499.146, 1157.154 498.932 C 1164.125 498.704, 1170.876 497.123, 1174 494.987 C 1175.375 494.047, 1178.550 493.055, 1181.056 492.783 C 1186.763 492.165, 1199.311 486.222, 1204.194 481.826 C 1206.341 479.893, 1210.041 474.344, 1213.026 468.580 C 1217.692 459.569, 1218.133 458.149, 1217.840 453.080 C 1217.591 448.780, 1217.056 447.222, 1215.508 446.285 C 1212.642 444.552, 1211.243 444.811, 1204.500 448.323" stroke="#f9d3d3" fill="#f9d3d3" fill-opacity="0.2" fill-rule="evenodd"/><path class="svg-region-Pr" d="M 542.843 423.750 C 540.496 426.548, 538.189 433.074, 537.534 438.763 C 536.690 446.092, 538.522 451.522, 543.073 455.179 C 545.105 456.812, 548.123 460.027, 549.781 462.324 C 556.343 471.416, 561.280 475.100, 574 480.393 C 574.825 480.736, 576.892 481.865, 578.593 482.901 C 588.791 489.110, 596.104 492.112, 603.134 492.975 C 607.185 493.472, 612.819 494.189, 615.654 494.567 C 624.845 495.795, 629.470 494.480, 634.528 489.202 C 637.213 486.400, 639 483.602, 639 482.202 C 639 480.918, 639.489 478.956, 640.086 477.840 C 640.969 476.189, 640.750 475.363, 638.911 473.406 C 637.668 472.083, 635.811 471, 634.784 471 C 633.757 471, 631.950 470.100, 630.770 469 C 629.589 467.900, 627.834 467, 626.870 467 C 625.907 467, 624.861 466.585, 624.548 466.077 C 624.234 465.569, 622.520 464.845, 620.739 464.467 C 614.193 463.079, 595.190 451.982, 595.055 449.469 C 595.025 448.902, 593.763 447.969, 592.250 447.394 C 590.737 446.820, 588.834 445.034, 588.021 443.425 C 584.954 437.360, 571.969 428.375, 559.893 423.961 C 553.016 421.447, 544.858 421.346, 542.843 423.750" stroke="#f9d3d3" fill="#f9d3d3" fill-opacity="0.2" fill-rule="evenodd"/><path class="svg-region-DLl" d="M 1125.100 435.599 C 1123.945 437.068, 1123 438.902, 1123 439.675 C 1123 440.447, 1122.162 442.749, 1121.137 444.790 C 1120.113 446.830, 1119.034 451.277, 1118.739 454.671 C 1118.250 460.313, 1118.418 461.043, 1120.697 463.171 C 1123.671 465.949, 1126 470.176, 1126 472.795 C 1126 473.837, 1126.889 475.494, 1127.974 476.477 C 1129.692 478.031, 1130.348 478.098, 1133.020 476.992 C 1135.366 476.020, 1136.680 475.989, 1138.592 476.860 C 1139.968 477.487, 1142.130 478, 1143.396 478 C 1146.467 478, 1158.392 471.631, 1164 466.996 C 1166.475 464.950, 1169.923 462.549, 1171.662 461.658 C 1178.524 458.146, 1181.587 449.455, 1176.856 446.923 C 1175.676 446.292, 1172.691 443.913, 1170.222 441.638 L 1165.733 437.500 1151.616 437.454 C 1140.767 437.418, 1136.806 437.042, 1134.500 435.830 C 1128.671 432.766, 1127.354 432.734, 1125.100 435.599" stroke="#b7d6d3" fill="#b7d6d3" fill-opacity="0.2" fill-rule="evenodd"/><path class="svg-region-DLr" d="M 612.589 420.031 C 610.438 421.105, 605.681 424.799, 602.018 428.242 C 598.355 431.684, 593.477 435.603, 591.179 436.951 C 588.670 438.422, 587 440.139, 587 441.246 C 587 443.486, 591.314 448, 593.455 448 C 594.305 448, 595 448.498, 595 449.106 C 595 452.053, 613.709 463.154, 621.271 464.694 C 622.795 465.004, 624.284 465.650, 624.580 466.129 C 624.876 466.608, 625.922 467, 626.904 467 C 627.886 467, 629.505 467.900, 630.500 469 C 631.495 470.100, 633.217 471, 634.326 471 C 635.435 471, 637.168 471.747, 638.177 472.661 C 639.187 473.574, 640.286 474.048, 640.620 473.714 C 640.954 473.380, 642.406 470.045, 643.848 466.303 C 646.019 460.666, 646.466 457.872, 646.456 450 C 646.443 440.707, 646.349 440.326, 642.117 432.500 C 639.738 428.100, 636.270 423.038, 634.410 421.250 C 631.218 418.181, 630.625 418.002, 623.765 418.040 C 618.626 418.068, 615.355 418.651, 612.589 420.031" stroke="#b7d6d3" fill="#b7d6d3" fill-opacity="0.2" fill-rule="evenodd"/><path class="svg-region-OGl" d="M 1183 415.752 C 1180.755 416.873, 1177.989 419.830, 1175.286 424 C 1172.968 427.575, 1170.155 431.696, 1169.036 433.158 C 1167.916 434.620, 1167 436.494, 1167 437.323 C 1167 439.045, 1175.647 447, 1177.518 447 C 1178.199 447, 1179.276 447.628, 1179.913 448.395 C 1181.029 449.740, 1183.948 450.487, 1192.547 451.631 C 1195.807 452.064, 1198.083 451.472, 1204.243 448.589 C 1210.585 445.619, 1212.338 445.178, 1214.510 446.004 C 1215.951 446.552, 1217.261 447, 1217.421 447 C 1218.493 447, 1226.001 435.532, 1225.521 434.628 C 1218.036 420.542, 1213.189 416.666, 1201.091 415.093 C 1189.709 413.614, 1187.089 413.709, 1183 415.752" stroke="#d66e9d" fill="#d66e9d" fill-opacity="0.2" fill-rule="evenodd"/><path class="svg-region-OGr" d="M 564.500 394.546 C 561.750 396.505, 557.636 400.108, 555.358 402.554 C 552.740 405.365, 550.349 407.006, 548.858 407.015 C 544.519 407.043, 543.990 408.088, 544.663 415.297 L 545.289 422 549.895 422.015 C 556.372 422.035, 566.110 425.685, 574.219 431.132 C 575.749 432.159, 578.299 433.876, 579.887 434.946 C 582.851 436.945, 584.778 436.642, 582.969 434.463 C 582.074 433.384, 581.721 427.068, 581.936 416 C 581.974 414.075, 581.917 409.575, 581.810 406 C 581.663 401.124, 582.075 398.800, 583.456 396.699 C 585.986 392.850, 584.615 391.825, 576.322 391.364 C 569.831 391.003, 569.257 391.157, 564.500 394.546" stroke="#d66e9d" fill="#d66e9d" fill-opacity="0.2" fill-rule="evenodd"/><path class="svg-region-OLl" d="M 1162.831 402.271 C 1161.363 402.853, 1159.578 404.421, 1158.863 405.755 C 1158.149 407.090, 1155.955 409.003, 1153.988 410.006 C 1152.020 411.010, 1148.513 414.007, 1146.195 416.666 C 1141.566 421.974, 1141.756 421.781, 1134.226 428.797 L 1128.953 433.710 1133.726 435.573 C 1137.568 437.072, 1141.282 437.441, 1152.750 437.468 C 1160.587 437.485, 1167 437.121, 1167 436.658 C 1167 436.195, 1167.938 434.620, 1169.085 433.158 C 1170.232 431.696, 1172.868 427.849, 1174.945 424.609 C 1178.298 419.375, 1178.599 418.398, 1177.641 415.859 C 1177.047 414.286, 1176.259 413, 1175.889 413 C 1175.519 413, 1174.937 411.883, 1174.594 410.518 C 1173.852 407.560, 1168.274 400.955, 1166.646 401.106 C 1166.016 401.165, 1164.299 401.689, 1162.831 402.271" stroke="#c4875d" fill="#c4875d" fill-opacity="0.2" fill-rule="evenodd"/><path class="svg-region-OLr" d="M 598 390 C 596.625 390.440, 593.408 390.845, 590.851 390.900 C 586.439 390.995, 586.087 391.217, 583.941 395.250 C 581.752 399.364, 581.358 402.802, 581.734 414.500 C 581.804 416.700, 581.881 421.782, 581.904 425.792 C 581.944 432.658, 584.050 440, 585.979 440 C 586.392 440, 587.803 439.164, 589.115 438.141 C 590.427 437.119, 593.008 435.509, 594.851 434.563 C 596.695 433.618, 600.927 430.066, 604.257 426.672 L 610.312 420.500 610.080 414.614 C 609.952 411.377, 609.347 407.928, 608.736 406.949 C 607.906 405.620, 607.961 404.147, 608.953 401.142 C 610.108 397.642, 610.068 396.663, 608.646 393.666 C 606.441 389.020, 603.848 388.127, 598 390" stroke="#c4875d" fill="#c4875d" fill-opacity="0.2" fill-rule="evenodd"/><path class="svg-region-OABl" d="M 884.909 528.390 C 884.584 528.734, 884.595 530.700, 884.935 532.758 C 885.648 537.079, 883.038 536.818, 908.339 535.103 C 918.666 534.404, 925.627 534.364, 928.339 534.991 C 930.628 535.519, 934.975 535.970, 938 535.993 C 941.025 536.016, 946.650 536.731, 950.500 537.583 C 961.259 539.961, 965 540.387, 965 539.230 C 965 538.234, 953.753 534.002, 945.500 531.893 C 937.320 529.802, 886.358 526.856, 884.909 528.390 M 999.645 534.849 C 997.215 537.385, 996.389 537.648, 992.123 537.238 C 988.730 536.912, 986.334 537.301, 983.916 538.572 C 981.629 539.774, 978.271 540.374, 973.756 540.389 C 969.286 540.404, 967.347 540.747, 968.006 541.406 C 968.553 541.953, 969 543.465, 969 544.766 C 969 551.422, 973.515 553.736, 981.097 550.965 C 983.991 549.907, 986.818 548.582, 987.379 548.021 C 987.941 547.459, 989.703 547, 991.296 547 C 997.071 547, 1001.796 542.232, 1003.436 534.750 C 1004.205 531.237, 1003.077 531.267, 999.645 534.849" stroke="#81244d" fill="#81244d" fill-opacity="0.2" fill-rule="evenodd"/><path class="svg-region-OABr" d="M 813.874 527.491 C 803.165 528.656, 777.853 534.237, 774.845 536.096 C 772.118 537.781, 775.162 538.092, 784.360 537.066 C 789.619 536.480, 797.920 536, 802.807 536 C 808.878 536, 812.689 535.503, 814.840 534.430 C 819.392 532.159, 859.996 532.765, 864.500 535.171 C 866.254 536.109, 871.377 537.046, 876.839 537.430 L 886.178 538.085 885.514 534.793 C 885.149 532.982, 884.655 530.795, 884.416 529.933 C 883.432 526.386, 838.376 524.826, 813.874 527.491" stroke="#81244d" fill="#81244d" fill-opacity="0.2" fill-rule="evenodd"/><path class="svg-region-OVl" d="M 1098.629 438.750 C 1098.309 440.813, 1097.763 444.427, 1097.416 446.782 C 1096.871 450.476, 1096.308 451.262, 1093.318 452.511 C 1091.412 453.308, 1086.862 454.266, 1083.207 454.640 C 1078.365 455.136, 1076.127 455.856, 1074.966 457.291 C 1073.811 458.717, 1071.458 459.483, 1066.435 460.067 C 1053.386 461.585, 1033.066 467.540, 1021.775 473.156 L 1016.049 476.004 1020.775 480.252 C 1023.374 482.588, 1025.725 484.766, 1026 485.091 C 1026.758 485.985, 1036.110 489, 1038.128 489 C 1039.103 489, 1040.260 489.608, 1040.700 490.352 C 1041.747 492.121, 1067.064 493.536, 1068.684 491.916 C 1070.286 490.314, 1076.351 489.043, 1087.391 487.997 C 1097.016 487.085, 1097.358 487.124, 1100.113 489.442 C 1103.003 491.874, 1107.906 492.698, 1123.701 493.408 C 1129.376 493.663, 1129.822 493.536, 1128.951 491.909 C 1127.598 489.381, 1127.836 483.924, 1129.424 481.056 C 1130.645 478.853, 1130.556 478.439, 1128.525 476.841 C 1127.240 475.830, 1126.015 473.478, 1125.671 471.363 C 1125.302 469.084, 1123.757 466.278, 1121.662 464.078 C 1118.272 460.518, 1118.259 460.467, 1118.996 453.776 C 1119.403 450.077, 1120.471 445.930, 1121.368 444.561 C 1123.878 440.731, 1123.468 438.134, 1120.250 437.474 C 1118.737 437.163, 1115.873 436.480, 1113.884 435.955 C 1111.895 435.430, 1107.780 435, 1104.739 435 L 1099.210 435 1098.629 438.750" stroke="#593939" fill="#593939" fill-opacity="0.2" fill-rule="evenodd"/><path class="svg-region-OVr" d="M 686 459.063 C 670.078 459.888, 668.220 460.379, 653.545 467.642 C 645.864 471.443, 643.214 473.312, 641.364 476.230 C 640.064 478.282, 639 480.835, 639 481.903 C 639 482.972, 637.875 485.184, 636.500 486.818 C 635.125 488.452, 634 490.061, 634 490.394 C 634 490.727, 637.938 491.003, 642.750 491.008 C 652.215 491.016, 662.827 492.382, 667.305 494.169 C 669.749 495.144, 670.303 495.012, 671.612 493.144 C 672.721 491.561, 674.158 491, 677.106 491 C 679.302 491, 682.413 490.321, 684.019 489.490 C 688.030 487.416, 700.365 488.493, 704.322 491.264 C 710.425 495.535, 723.487 497.529, 725.947 494.564 C 727.712 492.437, 725.562 489, 722.465 489 C 719.117 489, 719.308 486.490, 722.750 485.261 C 728.933 483.053, 732.745 482, 734.571 481.994 C 735.632 481.990, 737.271 480.753, 738.213 479.244 C 739.155 477.735, 740.955 475.227, 742.213 473.672 L 744.500 470.843 740.347 467.172 C 738.063 465.152, 736.010 462.855, 735.786 462.067 C 734.760 458.463, 717.584 457.426, 686 459.063" stroke="#593939" fill="#593939" fill-opacity="0.2" fill-rule="evenodd"/>
    </svg>