<svg xmlns="http://www.w3.org/2000/svg" width="1785" height="1131" viewBox="0 0 1785 1131" version="1.1">
    <path class="svg-region-IF" d="M 868.832 559.521 C 866.815 560.843, 864.876 562.392, 864.523 562.963 C 864.139 563.585, 859.130 564, 852.006 564 C 845.474 564, 838.874 564.478, 837.338 565.062 C 835.802 565.645, 832.279 568.458, 829.508 571.312 C 826.736 574.165, 822.379 578.300, 819.824 580.500 C 816.920 583, 814.952 585.625, 814.576 587.500 C 814.014 590.298, 814.403 590.788, 820.365 594.780 C 824.074 597.264, 829.849 599.958, 834.128 601.200 C 841.193 603.251, 843.413 603.339, 887.500 603.313 C 931.433 603.286, 933.816 603.190, 940.525 601.167 C 949.722 598.394, 951.619 597.025, 950.127 594.237 C 949.507 593.079, 949 591.232, 949 590.133 C 949 589.034, 948.137 587.861, 947.083 587.526 C 945.957 587.169, 943.677 583.825, 941.561 579.426 C 937.856 571.725, 935.324 569.579, 931.210 570.655 C 930.107 570.944, 928.158 570.620, 926.879 569.935 C 925.600 569.251, 921.297 568.372, 917.316 567.982 C 913.033 567.563, 907.920 566.266, 904.790 564.805 C 891.741 558.714, 886.081 556.999, 879.230 557.059 C 873.872 557.106, 871.752 557.608, 868.832 559.521" stroke="#f2823b" fill="#f2823b" fill-opacity="0.2" fill-rule="evenodd"/><path class="svg-region-AAB" d="M 748 521.977 C 748 522.652, 752.136 527.096, 757.191 531.852 C 770.318 544.203, 779.448 553.458, 787.636 562.716 C 791.561 567.154, 799.211 574.995, 804.636 580.142 C 813.438 588.492, 814.535 589.249, 814.830 587.173 C 815.165 584.807, 821.459 578.145, 826 575.351 C 827.375 574.505, 829.713 572.082, 831.197 569.968 C 834.662 565.028, 838.320 564.013, 852.691 564.006 C 859.357 564.002, 864.142 563.579, 864.525 562.959 C 864.879 562.387, 867.006 560.759, 869.252 559.341 C 872.971 556.993, 874.015 556.809, 880.918 557.277 C 886.670 557.668, 890.551 558.680, 897 561.471 C 909.920 567.064, 912.874 568, 917.605 568 C 920 568, 923.768 568.723, 925.978 569.608 C 928.188 570.492, 930.676 570.955, 931.507 570.636 C 934.946 569.316, 937.807 571.858, 941.570 579.576 C 943.633 583.808, 946.097 587.474, 947.046 587.722 C 948.148 588.010, 948.995 589.569, 949.389 592.029 C 950.115 596.571, 951.271 597.587, 953.348 595.509 C 954.178 594.679, 955.227 593.999, 955.679 593.999 C 958.423 593.995, 986.241 567.199, 994.454 556.648 C 997.728 552.442, 1000.760 549, 1001.191 549 C 1003.020 549, 1007.107 540.762, 1006.808 537.678 L 1006.500 534.500 999.756 534.204 C 994.041 533.954, 992.360 534.291, 988.742 536.411 C 984.737 538.758, 983.379 538.944, 966.771 539.417 C 956.147 539.719, 948.836 539.543, 948.485 538.976 C 948.164 538.456, 943.086 538.063, 937.200 538.102 C 931.253 538.142, 925.168 537.656, 923.500 537.008 C 921.427 536.203, 906.588 535.734, 875.500 535.489 C 845.884 535.257, 828.962 534.741, 826 533.981 C 819.582 532.335, 801.486 530.971, 794.961 531.641 C 789.486 532.204, 781.056 530.307, 772.663 526.623 C 767.195 524.223, 763.644 523.183, 759 522.622 C 756.525 522.323, 753.038 521.780, 751.250 521.414 C 748.988 520.952, 748 521.123, 748 521.977" stroke="#7f3c1a" fill="#7f3c1a" fill-opacity="0.2" fill-rule="evenodd"/><path class="svg-region-APB" d="M 777 447.089 C 772.294 448.466, 754.713 456.771, 743.959 462.696 C 740.912 464.375, 736.862 466.064, 734.959 466.449 C 733.057 466.834, 730.772 467.352, 729.881 467.600 C 728.991 467.848, 726.591 471.527, 724.547 475.776 C 722.503 480.024, 720.392 484.325, 719.855 485.333 C 719.148 486.661, 719.344 487.876, 720.564 489.739 C 722.675 492.960, 727.122 496.927, 728.670 496.968 C 729.314 496.986, 734.939 499.437, 741.170 502.415 C 756.900 509.933, 776.264 518.333, 784 520.996 C 787.575 522.227, 792.975 524.516, 796 526.083 C 804.241 530.351, 806.838 531.187, 814.500 532.041 C 818.350 532.469, 824.650 533.474, 828.500 534.274 C 834.302 535.479, 845.593 535.659, 894.500 535.322 C 987.504 534.683, 986.092 534.719, 989.500 532.885 C 991.150 531.997, 994.809 530.517, 997.631 529.595 C 1005.993 526.863, 1016.018 520.239, 1023.698 512.373 C 1027.657 508.318, 1031.331 505, 1031.864 505 C 1032.396 505, 1034.266 503.189, 1036.019 500.976 C 1038.622 497.689, 1038.981 496.683, 1037.980 495.476 C 1037.306 494.664, 1035.954 494, 1034.975 494 C 1033.874 494, 1032.772 492.786, 1032.086 490.815 C 1030.918 487.466, 1024.249 479.622, 1012.401 467.665 L 1005.303 460.500 995.053 458.145 C 985.024 455.841, 984.617 455.825, 976.151 457.403 C 962.569 459.935, 953.675 461.268, 951.500 461.098 C 950.400 461.012, 944.747 461.474, 938.939 462.125 C 929.939 463.133, 927.352 463.076, 921.439 461.739 C 912.916 459.812, 905.020 458.339, 898.745 457.507 C 896.129 457.160, 892.754 456.232, 891.245 455.444 C 889.034 454.291, 882.403 454.011, 857.180 454.006 C 823.930 454, 815.225 453.162, 802.500 448.743 C 795.674 446.373, 782.391 445.511, 777 447.089" stroke="#ac7444" fill="#ac7444" fill-opacity="0.2" fill-rule="evenodd"/><path class="svg-region-PC" d="M 838.500 407.067 C 836.850 407.560, 832.575 408.378, 829 408.886 C 817.902 410.461, 809.334 415.163, 799.198 425.240 C 785.390 438.969, 783.549 445.105, 792.820 446.496 C 795.351 446.875, 799.689 448.012, 802.461 449.021 C 812.153 452.550, 820.983 453.359, 856.098 453.934 C 879.394 454.315, 891.155 454.867, 892.098 455.623 C 892.869 456.241, 898.225 457.492, 904 458.403 C 909.775 459.314, 917.622 460.790, 921.439 461.684 C 927.418 463.083, 929.838 463.144, 938.939 462.125 C 944.747 461.474, 950.400 461.010, 951.500 461.093 C 953.791 461.265, 964.930 459.596, 976.244 457.384 C 980.504 456.552, 985.454 456.012, 987.244 456.185 C 990.320 456.483, 990.483 456.335, 990.194 453.500 C 989.787 449.505, 986.537 443.343, 982.444 438.810 C 980.612 436.780, 978.364 433.630, 977.448 431.810 C 973.451 423.866, 958.855 412.911, 945.720 407.997 C 939.511 405.673, 939.753 405.674, 910.148 407.860 C 898.200 408.742, 895.102 408.678, 891.648 407.475 C 888.469 406.367, 882.128 406.046, 864.500 406.101 C 851.850 406.140, 840.150 406.575, 838.500 407.067" stroke="#cda789" fill="#cda789" fill-opacity="0.2" fill-rule="evenodd"/><path class="svg-region-DB" d="M 729.500 285.944 C 712.522 290.155, 696.912 301.547, 690.399 314.482 C 689.009 317.242, 687.265 320.576, 686.523 321.892 C 685.639 323.459, 685.357 326.060, 685.705 329.430 C 686.178 334.017, 685.789 335.463, 682.118 342.765 C 679.853 347.270, 678 351.449, 678 352.052 C 678 352.656, 675.467 356.515, 672.371 360.628 C 666.394 368.569, 657.802 376.620, 653.251 378.542 C 649.240 380.236, 642.525 387.536, 638.019 395.102 L 634.086 401.704 635.138 408.460 C 635.848 413.016, 637.298 417.052, 639.592 420.858 C 641.464 423.961, 642.996 426.975, 642.997 427.556 C 642.999 428.136, 644.125 430.136, 645.500 432 C 646.875 433.864, 648 436.244, 648 437.290 C 648 438.821, 649.847 443.018, 651.833 446 C 652.155 446.483, 671.548 447.728, 690.910 448.508 L 700.319 448.887 701.558 452.490 C 703.017 456.735, 707.593 460.997, 710.693 460.999 C 713.103 461, 718.903 464.078, 723.362 467.721 C 725.250 469.263, 726.611 469.740, 727.362 469.122 C 727.988 468.606, 731.074 467.514, 734.220 466.695 C 737.366 465.876, 742.991 463.472, 746.720 461.353 C 750.449 459.234, 753.950 457.331, 754.500 457.124 C 755.050 456.916, 760.225 454.571, 766 451.912 C 772.597 448.874, 778.618 446.827, 782.199 446.406 C 787.679 445.762, 787.879 445.636, 787.411 443.118 C 786.241 436.812, 801.871 420.183, 815.943 412.763 C 818.594 411.365, 818.863 411.031, 817 411.450 C 809.594 413.117, 783.762 417.769, 776.655 418.716 C 773.310 419.161, 772.856 418.987, 773.166 417.375 C 773.428 416.017, 774.751 415.346, 778.111 414.865 C 780.635 414.504, 784.901 413.037, 787.592 411.604 C 790.283 410.172, 793.164 409, 793.995 409 C 794.825 409, 800.229 407.189, 806.003 404.975 C 821.121 399.179, 831.371 397.785, 855.067 398.301 C 865.755 398.534, 880.800 399.431, 888.500 400.295 C 898.555 401.422, 904.472 401.613, 909.500 400.971 C 923.188 399.225, 956.299 397.967, 962.347 398.963 C 970.204 400.258, 971.491 400.724, 976.450 404.071 C 981.241 407.304, 986.205 409.590, 1000 414.916 C 1010.757 419.069, 1021 425.216, 1021 427.519 C 1021 430.502, 1017.899 430.222, 1012.215 426.727 C 1005.064 422.330, 999.829 420.127, 993.777 418.967 C 991.180 418.469, 984.430 416.237, 978.777 414.005 C 973.125 411.774, 966.700 409.674, 964.500 409.338 C 962.300 409.002, 960.037 408.366, 959.472 407.925 C 957.818 406.635, 942.581 405.514, 943.338 406.737 C 943.692 407.310, 945.223 408.084, 946.741 408.458 C 950.939 409.491, 964.964 417.964, 969.761 422.366 C 972.105 424.516, 975.673 429.026, 977.691 432.388 C 979.708 435.749, 982.448 439.619, 983.780 440.987 C 987.023 444.318, 989.902 450.132, 990.192 453.936 C 990.441 457.207, 991.178 457.594, 1001.190 459.717 C 1005.627 460.658, 1015.143 468.586, 1018.879 474.455 C 1020.321 476.718, 1023.386 480.271, 1025.691 482.349 L 1029.883 486.127 1031.377 483.238 C 1033.705 478.736, 1040.442 473.234, 1045.188 471.958 C 1047.560 471.321, 1050.534 470.394, 1051.797 469.900 C 1053.060 469.405, 1056.976 469, 1060.498 469 C 1074.250 469, 1083.595 464.559, 1089.886 455.034 C 1093.194 450.026, 1093.919 449.472, 1097.520 449.207 C 1100.165 449.012, 1103.010 449.683, 1106 451.207 C 1109.822 453.155, 1111.135 453.359, 1114.718 452.565 C 1118.842 451.650, 1118.960 451.508, 1120.076 446.133 C 1120.723 443.015, 1122.686 438.501, 1124.609 435.706 C 1127.364 431.700, 1128 429.829, 1128 425.732 C 1128 421.901, 1128.597 419.905, 1130.486 417.429 C 1133.082 414.026, 1143.851 408, 1147.339 408 C 1149.711 408, 1154.895 406.380, 1160.500 403.886 C 1162.700 402.907, 1167.800 400.790, 1171.833 399.180 L 1179.166 396.254 1176.333 394.290 C 1174.775 393.209, 1172.772 392.064, 1171.882 391.745 C 1170.991 391.425, 1166.105 387.639, 1161.024 383.332 C 1155.942 379.024, 1150.090 374.150, 1148.018 372.500 C 1128.558 357.003, 1103.888 334.004, 1100.411 328.118 C 1099.398 326.403, 1098.274 325, 1097.913 325 C 1097.552 325, 1093.091 319.801, 1088 313.447 C 1079.373 302.680, 1078.209 301.625, 1070.894 297.947 C 1066.577 295.776, 1062.465 294, 1061.757 294 C 1061.050 294, 1058.902 293.163, 1056.985 292.140 C 1049.167 287.967, 1049.218 287.931, 1049.897 297.229 C 1051.001 312.367, 1050.334 325.479, 1048.114 332.252 C 1045.456 340.363, 1043.828 352.246, 1043.092 368.897 C 1042.260 387.723, 1044.455 386.541, 1010.678 386.360 C 996.280 386.282, 980 385.717, 974.500 385.103 C 969 384.490, 960 383.727, 954.500 383.409 C 949 383.091, 944.073 382.419, 943.550 381.916 C 943.028 381.412, 938.932 381, 934.449 381 C 929.966 381, 924.994 380.562, 923.399 380.027 C 919.624 378.760, 901.025 377.231, 873.106 375.893 C 850.025 374.787, 843.354 375.161, 827 378.482 C 822.875 379.320, 817.025 380.408, 814 380.901 C 810.975 381.393, 805.800 382.496, 802.500 383.352 C 796.843 384.820, 765.160 387.817, 745.624 388.732 L 736.748 389.148 733.374 385.878 C 730.261 382.860, 730.003 382.140, 730.039 376.554 C 730.061 373.224, 730.983 366.450, 732.088 361.500 C 735.312 347.059, 736.020 336.032, 735.341 310.781 C 734.846 292.313, 734.986 286.722, 735.975 285.531 C 736.673 284.689, 737.077 284.047, 736.872 284.104 C 736.668 284.161, 733.350 284.989, 729.500 285.944" stroke="#e8b1e4" fill="#e8b1e4" fill-opacity="0.2" fill-rule="evenodd"/><path class="svg-region-MB" d="M 797.845 280.488 C 797.587 280.746, 785.254 281.043, 770.438 281.147 C 743.213 281.339, 739.034 281.844, 736.177 285.287 C 735.337 286.299, 735.073 295.032, 735.229 316.595 C 735.442 345.876, 735.389 346.756, 732.723 358.766 C 731.225 365.512, 730 373.671, 730 376.897 C 730 382.196, 730.314 383.070, 733.250 385.943 C 736.496 389.119, 736.511 389.122, 745.500 388.716 C 764.780 387.846, 796.566 384.908, 802.033 383.491 C 805.194 382.672, 810.417 381.573, 813.640 381.048 C 816.863 380.524, 822.875 379.389, 827 378.527 C 842.779 375.229, 849.783 374.824, 872.500 375.897 C 901.470 377.265, 919.963 378.775, 922.797 380.004 C 924.060 380.552, 929.033 381, 933.847 381 C 938.661 381, 943.028 381.420, 943.550 381.934 C 944.072 382.447, 948.775 383.105, 954 383.396 C 959.225 383.687, 968 384.424, 973.500 385.035 C 979 385.645, 994.922 386.332, 1008.881 386.561 C 1032.100 386.942, 1034.625 386.817, 1038.517 385.095 L 1042.772 383.213 1043.295 368.857 C 1043.908 352.020, 1045.168 342.511, 1048.083 332.721 C 1051.323 321.843, 1051.214 291.785, 1047.923 288.495 C 1045.990 286.561, 1034.021 283.557, 1021.500 281.863 C 1007.885 280.020, 960.928 280.084, 952 281.957 C 948.425 282.707, 944.612 283.923, 943.527 284.660 C 942.443 285.397, 940.618 286, 939.474 286 C 936.416 286, 917.273 292.443, 911.062 295.563 C 901.032 300.601, 877.144 301.280, 865.147 296.869 C 832.388 284.823, 827.865 283.410, 818 282.140 C 805.629 280.548, 798.379 279.954, 797.845 280.488" stroke="#f9c6c6" fill="#f9c6c6" fill-opacity="0.2" fill-rule="evenodd"/><path class="svg-region-LBr" d="M 666.381 322.689 C 665.216 322.917, 661.313 325.537, 657.708 328.511 C 652.185 333.066, 650.447 335.330, 646.656 342.902 C 642.065 352.073, 641.567 354.322, 640.627 370.129 C 640.190 377.463, 640.268 377.801, 642.633 378.879 C 646.411 380.600, 651.138 380.212, 655 377.865 C 661.603 373.852, 678 355.486, 678 352.103 C 678 351.666, 679.800 347.624, 682 343.122 C 686.376 334.167, 687.160 328.102, 684.443 324.223 C 683.062 322.250, 682.076 322.015, 675.693 322.136 C 671.737 322.211, 667.546 322.460, 666.381 322.689" stroke="#79495c" fill="#79495c" fill-opacity="0.2" fill-rule="evenodd"/><path class="svg-region-Ol" d="M 1311 339.570 C 1295.427 341.431, 1279.821 349.565, 1265.124 363.480 C 1256.957 371.213, 1256.600 372.563, 1257.339 392.963 L 1257.974 410.500 1254.480 419 C 1252.558 423.675, 1250.110 428.625, 1249.041 430 C 1247.971 431.375, 1245.657 435.198, 1243.898 438.496 C 1242.140 441.794, 1238.736 446.519, 1236.335 448.996 C 1233.933 451.473, 1231.730 454.625, 1231.439 456 C 1229.895 463.285, 1228.513 466.145, 1223.256 472.926 C 1213.528 485.477, 1200.208 498.370, 1193.448 501.778 C 1180.577 508.267, 1171.874 509.170, 1153 505.976 C 1149.425 505.372, 1139.246 504.642, 1130.380 504.354 C 1113.648 503.813, 1110.019 504.353, 1101.777 508.615 C 1099.446 509.821, 1097.227 510.043, 1092.542 509.541 C 1086.775 508.924, 1085.795 509.145, 1077.437 512.948 C 1072.522 515.185, 1067.636 517.514, 1066.580 518.123 C 1065.524 518.731, 1058.999 522.095, 1052.080 525.598 C 1031.495 536.021, 1020 542.619, 1020 544.013 C 1020 544.461, 1017.862 546.149, 1015.250 547.763 C 1010.159 550.908, 1005.304 555.193, 1002.953 558.615 C 1002.154 559.779, 999.362 562.173, 996.750 563.936 C 994.138 565.699, 991.987 567.447, 991.972 567.821 C 991.956 568.194, 990.165 570.498, 987.992 572.940 C 980.680 581.158, 979.558 584.675, 979.187 600.542 L 978.859 614.583 982.551 623.042 C 984.582 627.694, 988.326 634.584, 990.872 638.353 C 993.417 642.122, 996.175 646.250, 997 647.527 C 998.464 649.792, 1000.038 651.736, 1008.750 662.040 C 1011.087 664.805, 1013 667.508, 1013 668.048 C 1013 668.587, 1014.913 671.469, 1017.250 674.453 C 1024.555 683.776, 1029.395 690.274, 1032.344 694.716 C 1033.909 697.072, 1035.596 699, 1036.094 699 C 1036.592 699, 1037 699.584, 1037 700.298 C 1037 701.011, 1038.688 703.956, 1040.750 706.842 C 1042.813 709.728, 1046.645 715.107, 1049.267 718.795 C 1056.487 728.949, 1056.698 729.244, 1059.412 733 C 1060.804 734.925, 1063.018 738.075, 1064.334 740 C 1080.778 764.066, 1112.995 798.638, 1127.873 808.186 C 1137.159 814.144, 1140.347 815.182, 1152 816.039 C 1158.325 816.504, 1166.650 817.593, 1170.500 818.460 C 1197.702 824.582, 1203.462 825.437, 1217 825.361 C 1234.834 825.261, 1243.107 823.008, 1258.371 814.096 C 1267.072 809.015, 1283.404 795.653, 1292.162 786.450 C 1300.032 778.179, 1311.746 763.429, 1318.607 753.151 C 1321.783 748.393, 1325.147 743.600, 1326.083 742.500 C 1327.018 741.400, 1329.031 738.025, 1330.554 735 C 1332.078 731.975, 1334.377 728.068, 1335.663 726.317 C 1336.948 724.566, 1338 722.834, 1338 722.468 C 1338 722.101, 1340.564 717.459, 1343.697 712.151 C 1349.059 703.068, 1361.396 678.844, 1367.454 665.500 C 1372.536 654.308, 1376.215 646.521, 1379.977 639 C 1382.041 634.875, 1384.966 628.350, 1386.477 624.500 C 1387.989 620.650, 1389.566 617.050, 1389.982 616.500 C 1390.399 615.950, 1391.304 613.700, 1391.994 611.500 C 1392.685 609.300, 1394.266 605.475, 1395.508 603 C 1403.757 586.564, 1406.507 579.366, 1412.697 558 C 1413.573 554.975, 1415.133 549.901, 1416.164 546.725 C 1417.195 543.548, 1418.272 538.373, 1418.558 535.225 C 1418.844 532.076, 1419.491 527.925, 1419.995 526 C 1423.027 514.419, 1424.458 467.652, 1422.110 456.869 C 1421.587 454.466, 1420.855 449.350, 1420.484 445.500 C 1420.113 441.650, 1418.323 433.550, 1416.508 427.500 C 1414.692 421.450, 1412.692 414.314, 1412.062 411.643 C 1411.102 407.571, 1406.728 398.150, 1402.464 390.969 C 1400.766 388.110, 1395.552 380.539, 1394.910 380 C 1394.582 379.725, 1392.617 377.250, 1390.542 374.500 C 1387.184 370.050, 1382.719 365.605, 1371 355.046 C 1365.574 350.158, 1344.541 340.270, 1338 339.533 C 1328.032 338.410, 1320.627 338.420, 1311 339.570" stroke="#aa444d" fill="#aa444d" fill-opacity="0.2" fill-rule="evenodd"/><path class="svg-region-Or" d="M 428.233 320.098 C 418.093 323.310, 411.216 328.028, 401.175 338.662 C 396.065 344.073, 390.680 349.625, 389.207 351 C 370.819 368.168, 357.638 381.597, 354.179 386.687 C 352.857 388.633, 351.038 390.973, 350.138 391.887 C 349.237 392.801, 347.764 395.113, 346.864 397.024 C 345.963 398.936, 344.251 402.502, 343.058 404.948 C 338.836 413.608, 337 424.773, 337 441.789 C 337 465.769, 339.494 479.639, 349.534 511.500 C 351.960 519.200, 355.062 529.775, 356.426 535 C 361.072 552.787, 361.834 555.499, 363.417 559.876 C 364.288 562.282, 365 565.230, 365 566.426 C 365 567.622, 365.408 569.028, 365.906 569.550 C 366.405 570.073, 367.724 573.425, 368.838 577 C 372.400 588.436, 375.938 597.858, 380.405 607.806 C 391.321 632.120, 394.354 638.602, 395.467 640 C 396.124 640.825, 397.929 643.750, 399.477 646.500 C 401.026 649.250, 404.806 655.325, 407.878 660 C 413.930 669.212, 415.839 672.357, 419.106 678.500 C 420.276 680.700, 421.839 683.192, 422.579 684.038 C 423.320 684.883, 428.668 695.233, 434.464 707.038 C 440.260 718.842, 445.905 730.075, 447.010 732 C 448.114 733.925, 450.870 739.100, 453.133 743.500 C 469.093 774.531, 487.928 798.742, 504.479 809.500 C 517.650 818.062, 540.593 825.497, 551.441 824.719 C 559.259 824.159, 578.798 820.462, 586.500 818.086 C 599.919 813.946, 603.294 813, 604.646 813 C 607.101 813, 620.149 805.116, 629.504 797.979 C 638.618 791.026, 669.846 762.640, 673.470 758.015 C 675.192 755.817, 678.789 751.833, 695.506 733.612 C 697.468 731.473, 701.628 726.748, 704.750 723.112 C 707.873 719.475, 713.369 713.350, 716.964 709.500 C 726.186 699.626, 732.932 691.865, 737 686.452 C 738.925 683.890, 741.028 681.233, 741.673 680.546 C 744.145 677.913, 757 659.177, 757 658.206 C 757 657.756, 758.153 655.839, 759.562 653.944 C 760.971 652.050, 763.838 647.125, 765.932 643 C 768.026 638.875, 771.372 632.800, 773.367 629.500 C 775.362 626.200, 776.996 622.970, 776.997 622.322 C 776.999 621.674, 778.546 618.524, 780.436 615.322 C 786.434 605.157, 788.576 584.538, 784.962 571.741 C 783.738 567.405, 776.446 556.273, 771.138 550.636 C 765.453 544.599, 725.342 519, 721.568 519 C 720.921 519, 718.391 517.744, 715.946 516.209 C 713.501 514.675, 709.025 512.140, 706 510.578 C 702.975 509.015, 697.339 505.534, 693.476 502.842 C 686.958 498.301, 685.840 497.882, 677.976 497.030 C 673.314 496.526, 664.830 495.589, 659.123 494.948 C 651.091 494.047, 646.458 494.061, 638.623 495.009 C 625.773 496.565, 626.140 496.570, 609.500 494.613 C 590.553 492.384, 584.377 491.205, 581.133 489.198 C 576.621 486.407, 562.033 474.867, 556.067 469.369 C 553.005 466.547, 547.679 461.987, 544.230 459.235 C 538.364 454.554, 531.032 446.496, 531.010 444.707 C 530.994 443.401, 522.947 432.891, 517.431 426.971 C 507.494 416.305, 505 407.896, 505 385.050 C 505 371.161, 504.720 368.326, 502.854 363.339 C 500.536 357.143, 500.687 357.395, 495.752 351.500 C 493.910 349.300, 490.492 345.025, 488.157 342 C 480.343 331.877, 467.342 323.882, 456.205 322.350 C 454.167 322.070, 451.600 321.448, 450.500 320.967 C 442.809 317.610, 436.824 317.376, 428.233 320.098" stroke="#aa444d" fill="#aa444d" fill-opacity="0.2" fill-rule="evenodd"/><path class="svg-region-Pl" d="M 1204 438.500 C 1202.708 439.875, 1201.146 441, 1200.529 441 C 1199.912 441, 1196.953 442.563, 1193.954 444.474 C 1190.954 446.385, 1187.240 447.960, 1185.700 447.974 C 1184.161 447.988, 1181.529 448.709, 1179.853 449.576 C 1177.041 451.030, 1176.851 451.456, 1177.402 455.076 C 1177.731 457.234, 1178.274 460.817, 1178.609 463.037 C 1179.110 466.361, 1178.744 467.788, 1176.536 471.125 C 1173.155 476.234, 1167.645 481.615, 1163.711 483.650 C 1162.041 484.513, 1158.088 485.454, 1154.926 485.740 C 1150.133 486.175, 1148.679 485.907, 1146.184 484.131 C 1142.386 481.427, 1136.114 481.300, 1133.153 483.867 C 1128.949 487.514, 1130.274 490.455, 1139.485 497.923 C 1145.874 503.103, 1147.801 504.077, 1155.620 506.076 C 1175.944 511.271, 1191.143 506.838, 1207.104 491.058 C 1215.403 482.854, 1225.040 471.261, 1229.108 464.590 C 1231.788 460.196, 1231.638 451.908, 1228.788 446.837 C 1226.101 442.055, 1222.273 439.567, 1214.482 437.537 C 1206.850 435.550, 1206.764 435.557, 1204 438.500" stroke="#f9d3d3" fill="#f9d3d3" fill-opacity="0.2" fill-rule="evenodd"/><path class="svg-region-Pr" d="M 539.758 412.818 C 537.150 414.860, 534.365 417.461, 533.569 418.598 C 531.873 421.020, 529 432.744, 529 437.246 C 529 444.143, 534.777 452.015, 547 461.775 C 550.575 464.630, 555.288 468.773, 557.473 470.983 C 559.658 473.192, 561.751 475, 562.123 475 C 562.495 475, 566.333 477.824, 570.650 481.275 C 583.627 491.649, 583.996 491.783, 605.823 494.086 C 616.534 495.216, 617.292 495.175, 619.823 493.319 C 621.296 492.241, 623.235 489.918, 624.134 488.158 C 625.033 486.398, 627.886 482.985, 630.475 480.574 L 635.181 476.191 634.067 470.820 C 632.959 465.484, 632.899 465.418, 624.726 460.476 C 620.202 457.740, 614.475 454.657, 612 453.623 C 603.212 449.955, 592.471 444.495, 590.500 442.695 C 589.400 441.690, 587.084 439.990, 585.354 438.916 C 583.624 437.843, 581.929 435.853, 581.588 434.493 C 581.246 433.133, 578.612 429.830, 575.734 427.152 C 572.855 424.474, 567.314 419.294, 563.420 415.641 L 556.340 409 550.420 409.052 C 545.146 409.098, 543.982 409.509, 539.758 412.818" stroke="#f9d3d3" fill="#f9d3d3" fill-opacity="0.2" fill-rule="evenodd"/><path class="svg-region-DLl" d="M 1131.245 429.820 C 1127.484 431.827, 1122.529 437.503, 1120.926 441.642 C 1120.317 443.214, 1119.614 449, 1119.363 454.500 C 1119.112 460, 1118.401 466.201, 1117.783 468.280 C 1116.938 471.125, 1116.949 472.349, 1117.830 473.230 C 1118.474 473.874, 1119 475.457, 1119 476.750 C 1119 480.567, 1121.783 484.838, 1126.009 487.505 C 1130.549 490.372, 1132.191 490.662, 1131.342 488.449 C 1130.999 487.555, 1131.721 485.861, 1133.048 484.449 C 1135.971 481.337, 1142.315 481.117, 1146 484 C 1147.673 485.309, 1150.082 485.963, 1153.282 485.978 C 1161.923 486.018, 1169.658 481.399, 1175.516 472.700 C 1179.210 467.215, 1179.801 463.596, 1177.896 458.132 C 1176.474 454.051, 1177.372 450.586, 1180.178 449.334 C 1182.330 448.374, 1182.276 448.260, 1178.467 445.671 C 1176.305 444.202, 1173.935 443, 1173.201 443 C 1171.739 443, 1166.204 439.165, 1161.500 434.893 C 1154.970 428.962, 1138.142 426.141, 1131.245 429.820" stroke="#b7d6d3" fill="#b7d6d3" fill-opacity="0.2" fill-rule="evenodd"/><path class="svg-region-DLr" d="M 611 399.201 C 608.424 399.766, 604.260 401.906, 601.259 404.208 C 596.823 407.612, 595.517 408.136, 592.759 407.619 C 590.966 407.283, 586.671 406.598, 583.214 406.096 C 579.757 405.595, 576.289 404.655, 575.508 404.006 C 573.698 402.505, 572 403.533, 572 406.130 C 572 407.237, 571.325 408.818, 570.500 409.643 C 569.611 410.532, 569 412.977, 569 415.646 C 569 419.720, 569.512 420.689, 574.372 425.824 C 577.327 428.946, 580.446 432.880, 581.303 434.566 C 582.160 436.252, 584.805 438.951, 587.180 440.563 C 589.556 442.175, 591.727 443.794, 592.005 444.160 C 592.541 444.866, 607.122 451.745, 613 454.064 C 614.925 454.824, 619.340 457.349, 622.811 459.675 C 626.281 462.001, 629.967 464.172, 631 464.500 C 633.538 465.306, 635.910 475.809, 633.848 477.115 C 632.842 477.753, 633.008 477.972, 634.500 477.978 C 637.314 477.990, 641 472.181, 641 467.735 C 641 463.929, 642.755 459, 644.110 459 C 644.544 459, 646.269 457.538, 647.945 455.750 C 650.421 453.108, 650.986 451.658, 650.964 448 C 650.949 445.525, 650.276 442.626, 649.468 441.559 C 648.661 440.491, 648 438.679, 648 437.531 C 648 436.384, 647.235 434.353, 646.301 433.019 C 642.284 427.284, 635.856 413.178, 635.364 409.018 C 635.070 406.533, 634.091 403.038, 633.188 401.250 L 631.545 398 623.523 398.107 C 619.110 398.166, 613.475 398.658, 611 399.201" stroke="#b7d6d3" fill="#b7d6d3" fill-opacity="0.2" fill-rule="evenodd"/><path class="svg-region-OGl" d="M 1190.524 425.810 C 1190.236 426.098, 1190 427.056, 1190 427.939 C 1190 428.823, 1188.371 432.010, 1186.380 435.023 C 1178.562 446.850, 1182.676 450.049, 1196.686 443.037 C 1201.146 440.805, 1205.060 438.285, 1205.386 437.437 C 1205.980 435.890, 1203.424 431, 1202.021 431 C 1201.610 431, 1200.199 429.941, 1198.886 428.647 C 1196.604 426.397, 1191.626 424.708, 1190.524 425.810" stroke="#d66e9d" fill="#d66e9d" fill-opacity="0.2" fill-rule="evenodd"/><path class="svg-region-OLl" d="M 1165.559 401.557 C 1162.291 402.891, 1159.163 404.437, 1158.609 404.991 C 1158.054 405.546, 1156.367 406, 1154.859 406 C 1153.351 406, 1151.840 406.450, 1151.500 407 C 1151.160 407.550, 1149.630 408, 1148.101 408 C 1143.974 408, 1133.334 413.696, 1130.486 417.429 C 1128.581 419.927, 1128 421.894, 1128 425.844 C 1128 431.426, 1128.243 431.648, 1132 429.500 C 1137.964 426.091, 1155.297 429.259, 1161.500 434.893 C 1166.310 439.261, 1171.751 443, 1173.298 443 C 1174.086 443, 1175.932 443.945, 1177.400 445.100 C 1178.868 446.255, 1181.966 447.363, 1184.285 447.563 C 1187.727 447.861, 1187.950 447.790, 1185.500 447.178 C 1183.007 446.556, 1182.532 445.967, 1182.691 443.692 C 1182.797 442.187, 1184.438 438.377, 1186.338 435.227 C 1188.238 432.077, 1189.979 428.600, 1190.206 427.500 C 1190.433 426.400, 1191.155 425.612, 1191.809 425.750 C 1193.774 426.163, 1193.230 417.103, 1191.017 412.566 C 1185.219 400.676, 1176.719 397, 1165.559 401.557" stroke="#c4875d" fill="#c4875d" fill-opacity="0.2" fill-rule="evenodd"/><path class="svg-region-OLr" d="M 602.822 383.401 C 600.799 384.124, 596.394 384.754, 593.033 384.801 C 588.059 384.872, 586.372 385.351, 583.966 387.375 C 582.341 388.743, 580.130 390.141, 579.052 390.483 C 576.679 391.237, 574 396.299, 574 400.031 C 574 403.777, 576.271 405.334, 582.874 406.117 C 585.968 406.483, 590.183 407.115, 592.240 407.521 C 595.616 408.187, 596.494 407.862, 601.250 404.193 C 604.918 401.363, 608.034 399.873, 611.501 399.292 C 616.920 398.383, 618.391 396.252, 615.722 393.176 C 614.923 392.254, 613.972 390.251, 613.609 388.725 C 612.873 385.630, 609.669 381.977, 607.750 382.044 C 607.063 382.068, 604.845 382.679, 602.822 383.401" stroke="#c4875d" fill="#c4875d" fill-opacity="0.2" fill-rule="evenodd"/><path class="svg-region-OABl" d="M 1041 495.737 C 1040.175 496.055, 1038.834 497.257, 1038.019 498.408 C 1037.205 499.559, 1034.997 501.850, 1033.113 503.500 C 1031.228 505.150, 1026.720 509.480, 1023.093 513.122 C 1019.467 516.764, 1015.825 520.044, 1015 520.411 C 1014.175 520.778, 1012.600 521.629, 1011.500 522.302 C 1003.851 526.981, 999.812 528.993, 995 530.520 C 991.975 531.479, 988.989 532.667, 988.365 533.159 C 986.534 534.602, 975.106 535.211, 967 534.296 C 962.875 533.831, 957.700 533.777, 955.500 534.176 C 953.300 534.576, 944.784 535.223, 936.576 535.615 C 919.154 536.447, 919.597 538.207, 937.200 538.097 C 943.086 538.060, 948.159 538.448, 948.474 538.958 C 949.102 539.974, 981.967 539.456, 985.419 538.376 C 986.564 538.018, 988.573 536.887, 989.885 535.862 C 991.681 534.459, 993.959 534, 999.116 534 C 1005.530 534, 1006 534.153, 1006.571 536.428 C 1006.906 537.763, 1006.885 539.788, 1006.523 540.928 C 1006.161 542.068, 1006.149 543, 1006.496 543 C 1006.843 543, 1011.486 539.951, 1016.814 536.224 C 1022.141 532.497, 1027.728 528.827, 1029.228 528.067 C 1030.728 527.307, 1032.753 525.578, 1033.728 524.223 C 1035.727 521.445, 1040.917 515.849, 1051.297 505.277 C 1055.197 501.305, 1058.112 497.778, 1057.773 497.440 C 1055.946 495.612, 1044.368 494.437, 1041 495.737" stroke="#81244d" fill="#81244d" fill-opacity="0.2" fill-rule="evenodd"/><path class="svg-region-OABr" d="M 715.571 491.571 C 713.490 493.653, 713.590 495.209, 716 498.273 C 717.100 499.671, 718 501.260, 718 501.803 C 718 502.346, 719.688 503.649, 721.750 504.697 C 726.751 507.240, 737.635 514.210, 742.081 517.717 C 744.767 519.836, 747.642 520.859, 753.581 521.811 C 757.937 522.510, 764.200 523.997, 767.500 525.117 C 786.884 531.695, 787.921 531.919, 798.011 531.706 C 803.396 531.593, 807.595 531.163, 807.342 530.750 C 807.089 530.337, 806.150 530, 805.256 530 C 804.362 530, 800.676 528.474, 797.065 526.610 C 793.454 524.745, 786.675 521.850, 782 520.175 C 774.019 517.317, 743.593 503.910, 734.290 499.153 C 731.974 497.969, 729.478 497, 728.742 497 C 728.006 497, 725.850 495.439, 723.952 493.532 C 720.147 489.709, 717.948 489.195, 715.571 491.571" stroke="#81244d" fill="#81244d" fill-opacity="0.2" fill-rule="evenodd"/><path class="svg-region-SOTl" d="M 933.500 399.083 C 916.876 400.066, 901.029 401.638, 900.290 402.377 C 900.026 402.641, 900.088 404.127, 900.429 405.678 L 901.048 408.500 913.274 407.558 C 930.532 406.229, 957.410 406.277, 959.120 407.639 C 959.879 408.244, 962.122 409.031, 964.105 409.388 C 966.088 409.744, 973.164 412.053, 979.831 414.518 C 986.498 416.983, 993.089 419, 994.478 419 C 995.867 419, 1001.815 421.490, 1007.696 424.532 C 1018.403 430.072, 1021.011 430.612, 1020.988 427.281 C 1020.973 425.173, 1009.547 418.346, 1000.500 415.040 C 990.482 411.378, 980.730 406.906, 976.283 403.932 C 968.386 398.652, 958.922 397.579, 933.500 399.083" stroke="#995b45" fill="#995b45" fill-opacity="0.2" fill-rule="evenodd"/><path class="svg-region-SOTr" d="M 824.500 399.498 C 820.100 400.257, 813.350 402.070, 809.500 403.527 C 805.650 404.984, 799.800 407.039, 796.500 408.095 C 793.200 409.151, 788.792 410.952, 786.705 412.097 C 784.618 413.242, 780.798 414.481, 778.216 414.850 C 774.891 415.326, 773.426 416.028, 773.188 417.261 C 772.930 418.602, 773.542 419, 775.862 419 C 777.516 419, 780.049 418.552, 781.491 418.003 C 782.933 417.455, 788.167 416.548, 793.122 415.986 C 798.077 415.425, 807.614 413.675, 814.316 412.097 C 837.245 406.700, 843.204 406, 866.214 406 C 883.100 406, 888.532 406.324, 891.346 407.500 C 895.366 409.180, 899.597 409.460, 900.437 408.103 C 900.742 407.609, 900.723 405.864, 900.395 404.224 L 899.799 401.243 890.149 400.514 C 884.842 400.112, 879.600 399.547, 878.500 399.257 C 873.615 397.970, 832.285 398.154, 824.500 399.498" stroke="#995b45" fill="#995b45" fill-opacity="0.2" fill-rule="evenodd"/><path class="svg-region-OVl" d="M 1092.915 450.639 C 1092.043 451.662, 1090.358 454.125, 1089.169 456.111 C 1084.702 463.578, 1075.451 467.908, 1061.500 469.062 C 1046.194 470.329, 1041.374 472.025, 1034.856 478.438 C 1030.948 482.282, 1029.231 486.631, 1030.945 488.345 C 1031.525 488.925, 1032 490.221, 1032 491.225 C 1032 493.925, 1036.360 495.218, 1046.308 495.467 C 1052.598 495.624, 1055.548 496.119, 1056.627 497.198 C 1057.974 498.546, 1057.644 499.143, 1053.569 502.731 C 1051.056 504.942, 1049 506.975, 1049 507.247 C 1049 507.519, 1050.912 507.385, 1053.250 506.948 C 1058.345 505.996, 1080.800 507.315, 1090.279 509.123 C 1095.865 510.189, 1097.626 510.184, 1100.279 509.094 C 1112.403 504.119, 1113.886 503.883, 1130 504.373 C 1138.525 504.633, 1147.525 505.100, 1150 505.411 C 1154.616 505.991, 1154.550 505.625, 1149.853 504.594 C 1148.397 504.275, 1145.247 502.431, 1142.853 500.497 C 1140.459 498.563, 1136.086 495.072, 1133.136 492.740 C 1123.144 484.841, 1119 480.426, 1119 477.679 C 1119 476.257, 1118.472 473.936, 1117.827 472.520 C 1116.930 470.551, 1116.930 469.670, 1117.827 468.773 C 1118.527 468.073, 1119 464.406, 1119 459.686 L 1119 451.773 1114.433 452.458 C 1110.989 452.974, 1109.247 452.736, 1107.344 451.490 C 1105.957 450.581, 1102.499 449.599, 1099.661 449.307 C 1095.440 448.874, 1094.211 449.117, 1092.915 450.639" stroke="#593939" fill="#593939" fill-opacity="0.2" fill-rule="evenodd"/><path class="svg-region-OVr" d="M 651.414 446.917 C 651.186 447.146, 651 448.556, 651 450.050 C 651 451.943, 649.808 453.844, 647.071 456.317 C 642.151 460.761, 641 462.900, 641 467.590 C 641 471.341, 637.062 478, 634.843 478 C 632.741 478, 625.903 484.296, 624.589 487.442 C 623.848 489.214, 622.036 491.614, 620.560 492.774 L 617.879 494.883 621.939 496.100 C 624.966 497.007, 626.955 497.038, 629.750 496.224 C 635.990 494.407, 650.956 493.785, 660 494.968 C 680.077 497.595, 685.954 498.212, 693.670 498.505 C 699.944 498.743, 702.987 499.391, 706.785 501.298 C 709.505 502.664, 713.141 504.092, 714.865 504.470 C 717.572 505.065, 718 504.883, 718 503.137 C 718 502.024, 717.091 499.574, 715.980 497.691 C 713.635 493.717, 714.208 491.237, 717.670 490.368 C 719.192 489.986, 719.922 489.238, 719.597 488.392 C 719.089 487.070, 719.489 486.045, 723.899 477.364 C 725.055 475.089, 726 472.454, 726 471.508 C 726 468.624, 714.865 461.001, 710.648 460.999 C 707.557 460.997, 703.004 456.696, 701.518 452.375 L 700.240 448.658 693.700 448.895 C 690.103 449.025, 684.536 448.656, 681.330 448.073 C 675.538 447.021, 652.207 446.119, 651.414 446.917" stroke="#593939" fill="#593939" fill-opacity="0.2" fill-rule="evenodd"/>
    </svg>