<svg xmlns="http://www.w3.org/2000/svg" width="1785" height="1131" viewBox="0 0 1785 1131" version="1.1">
    <path class="svg-region-IF" d="M 827 584.567 C 819.430 587.385, 815.647 589.948, 815.134 592.606 C 814.933 593.648, 814.276 594.810, 813.674 595.189 C 811.735 596.409, 816.149 600.147, 823.500 603.511 C 832.755 607.745, 847.602 609.736, 852.373 607.381 C 859.476 603.876, 867.799 591.720, 865.567 588.109 C 865.276 587.638, 862.542 586.070, 859.492 584.626 C 854.583 582.302, 852.771 582.008, 843.723 582.073 C 835.489 582.132, 832.235 582.617, 827 584.567 M 911.844 583.686 C 906.473 585.539, 905 587.901, 905 594.657 C 905 598.771, 905.464 599.678, 909.704 603.860 C 912.906 607.018, 915.860 608.885, 918.954 609.706 C 924.506 611.179, 931.506 611.335, 933.926 610.039 C 934.913 609.511, 937.921 608.932, 940.611 608.752 C 946.417 608.365, 953.771 605.297, 954.515 602.952 C 955.402 600.159, 954.220 598.670, 947.810 594.500 C 930.187 583.036, 921.392 580.392, 911.844 583.686" stroke="#f2823b" fill="#f2823b" fill-opacity="0.2" fill-rule="evenodd"/><path class="svg-region-AAB" d="M 867 527.031 C 858.673 528.938, 848.776 531.920, 844.796 533.721 C 837.003 537.248, 833.455 538, 824.609 538 C 816.580 538, 815.512 538.240, 811.623 540.916 C 809.292 542.519, 806.793 544.544, 806.070 545.416 C 803.328 548.719, 793.568 546.323, 790.463 541.584 C 789.114 539.525, 787.965 539, 784.808 539 C 781.668 539, 780.188 538.332, 777.673 535.776 C 773.980 532.023, 767.185 529.346, 759.001 528.421 L 753.210 527.765 752.544 530.799 C 751.466 535.706, 752.864 540.523, 756.048 542.877 C 757.627 544.045, 759.182 545, 759.503 545 C 760.647 545, 771.660 554.670, 782 564.754 C 787.775 570.386, 795.313 577.734, 798.750 581.082 C 802.188 584.431, 805 587.567, 805 588.052 C 805 588.537, 806.576 590.509, 808.501 592.435 C 812.235 596.169, 814.675 596.265, 815.192 592.700 C 815.533 590.338, 820.971 586.254, 824.941 585.377 C 826.348 585.067, 828.918 584.180, 830.651 583.406 C 832.686 582.498, 837.388 582, 843.930 582 C 853.206 582, 854.559 582.253, 860.029 585.014 C 863.377 586.705, 866 588.696, 866 589.547 C 866 592.777, 862.916 598.180, 858.535 602.624 L 853.961 607.263 859.231 606.599 C 862.129 606.234, 868.626 605.249, 873.668 604.410 C 882.044 603.016, 893.478 602.943, 895.627 604.269 C 896.107 604.565, 899.089 605.286, 902.254 605.870 C 905.418 606.455, 908.915 607.419, 910.024 608.013 C 914.238 610.268, 914.243 607.691, 910.032 604.028 C 906.479 600.938, 905.709 599.598, 905.276 595.754 C 904.455 588.471, 906.319 585.523, 913.030 583.491 C 917.734 582.067, 919.548 581.972, 924.085 582.914 C 927.071 583.534, 930.860 584.929, 932.507 586.014 C 934.153 587.099, 936.049 587.990, 936.720 587.993 C 938.244 588.002, 953.212 597.990, 954.300 599.725 C 955.557 601.730, 956.696 601.283, 961.243 597 C 963.578 594.800, 965.838 593, 966.265 593 C 966.691 593, 969.019 589.962, 971.437 586.250 C 976.395 578.640, 989.574 563.035, 994.347 559.124 C 996.081 557.703, 998.175 555.839, 999 554.982 C 1001.218 552.677, 1014.690 543.098, 1017.538 541.801 C 1020.028 540.666, 1020.641 538.558, 1019.159 536.223 C 1018.149 534.632, 1014.304 534.388, 1006.250 535.406 C 1001.898 535.956, 1000 535.863, 1000 535.098 C 1000 534.362, 996.055 534, 988.023 534 C 977.716 534, 975.128 534.345, 969.468 536.476 C 960.588 539.818, 949.547 541.083, 938.390 540.037 C 930.824 539.327, 928.019 538.533, 921.413 535.230 C 906.552 527.800, 880.672 523.901, 867 527.031" stroke="#7f3c1a" fill="#7f3c1a" fill-opacity="0.2" fill-rule="evenodd"/><path class="svg-region-APB" d="M 782 455.737 C 770.359 458.573, 765.087 460.706, 759.235 464.945 C 754.007 468.732, 749.514 471, 747.238 471 C 746.215 471, 744.463 471.851, 743.346 472.892 C 740.485 475.558, 725.462 482, 722.107 482 C 718.939 482, 715.984 484.715, 716.033 487.579 C 716.106 491.765, 719.620 494.190, 726.754 494.977 C 732.707 495.633, 747.522 500.384, 756.682 504.574 C 761.399 506.731, 774.942 509.967, 779.329 509.985 C 781.436 509.993, 786.161 511.202, 789.829 512.671 C 798.188 516.019, 814.641 520.995, 817.413 521.015 C 818.561 521.023, 821.485 521.720, 823.910 522.565 C 826.336 523.410, 831.874 524.721, 836.218 525.479 C 840.561 526.238, 845.911 527.794, 848.107 528.939 L 852.098 531.019 861.754 528.510 C 877.768 524.347, 892.766 525.274, 913.658 531.717 C 918.592 533.238, 919.048 533.214, 924.158 531.162 C 931.610 528.171, 949.130 523.377, 957.587 522.015 C 961.485 521.388, 968.795 520.790, 973.832 520.687 C 978.868 520.584, 982.992 520.163, 982.995 519.750 C 982.998 519.337, 985.175 519, 987.833 519 C 992.660 519, 1000.189 517.897, 1009.354 515.847 C 1012.023 515.250, 1017.648 512.827, 1021.854 510.462 C 1026.059 508.098, 1030.850 505.839, 1032.500 505.444 C 1034.150 505.048, 1035.950 504.400, 1036.500 504.004 C 1038.535 502.538, 1047.469 499.997, 1050.928 499.900 C 1052.893 499.845, 1055.607 499.492, 1056.960 499.115 L 1059.420 498.429 1055.960 494.719 C 1053.106 491.659, 1050.271 490.234, 1039.774 486.582 C 1032.775 484.147, 1024.675 481.614, 1021.774 480.954 C 1018.873 480.293, 1013.708 478.346, 1010.296 476.626 C 979.960 461.339, 976.932 460, 972.705 460 C 970.689 460, 967.344 460.629, 965.270 461.399 C 954.897 465.247, 924.445 465.829, 914.624 462.366 C 912.096 461.475, 906.142 461, 897.496 461 C 887.979 461, 883.233 460.577, 880.654 459.500 C 877.730 458.278, 871.424 458, 846.660 458 C 817.524 458, 815.845 457.896, 806.401 455.500 C 800.981 454.125, 795.636 453.040, 794.523 453.089 C 793.410 453.138, 787.775 454.330, 782 455.737" stroke="#ac7444" fill="#ac7444" fill-opacity="0.2" fill-rule="evenodd"/><path class="svg-region-PC" d="M 853 422.627 C 843.554 424.380, 829.389 428.469, 826.396 430.307 C 824.432 431.513, 820.052 434.860, 816.662 437.745 C 813.273 440.630, 807.448 445.203, 803.718 447.907 L 796.937 452.824 800.218 453.886 C 811.414 457.508, 816.586 457.971, 846.500 458.029 C 869.987 458.075, 877.368 458.401, 880.500 459.529 C 883.205 460.503, 888.748 460.975, 897.624 460.985 C 906.125 460.995, 912.114 461.481, 914.624 462.366 C 923.463 465.482, 958.885 465.161, 964.134 461.917 C 965.810 460.881, 963.266 457.173, 957.795 452.681 C 955.433 450.742, 949.302 444.451, 944.171 438.701 C 937.491 431.216, 933.374 427.508, 929.671 425.643 L 924.500 423.038 890 422.601 C 871.025 422.360, 854.375 422.372, 853 422.627" stroke="#cda789" fill="#cda789" fill-opacity="0.2" fill-rule="evenodd"/><path class="svg-region-DB" d="M 880.500 392.048 C 873.900 392.450, 857.829 393.280, 844.787 393.894 C 831.745 394.507, 816.895 395.475, 811.787 396.046 C 806.679 396.616, 799.800 397.324, 796.500 397.618 C 790.299 398.171, 775.768 401.256, 770.500 403.138 C 767.245 404.301, 750.054 412.239, 746 414.450 C 731.413 422.408, 722.810 427.682, 719.362 430.781 C 717.085 432.826, 713.823 435.267, 712.112 436.203 C 710.400 437.140, 709.014 438.265, 709.032 438.703 C 709.104 440.526, 714.153 445.069, 719.392 448.026 C 722.477 449.767, 725 451.523, 725 451.928 C 725 452.334, 720.612 454.774, 715.250 457.350 C 709.888 459.926, 704.825 462.411, 704 462.871 C 701.835 464.079, 700.552 471.228, 701.608 476.208 C 702.344 479.678, 703.543 481.256, 708.450 485.208 C 711.723 487.843, 714.668 490, 714.994 490 C 715.320 490, 716.017 488.542, 716.543 486.761 C 717.243 484.392, 718.306 483.294, 720.500 482.675 C 728.002 480.558, 730.861 479.552, 735.936 477.244 C 738.925 475.884, 741.983 474.160, 742.731 473.412 C 743.478 472.665, 745.825 471.586, 747.946 471.014 C 750.067 470.443, 754.659 468.069, 758.151 465.738 C 767.339 459.605, 770.064 458.529, 784.449 455.356 C 798.766 452.199, 801.296 450.899, 812.583 440.912 C 816.388 437.547, 821.184 433.827, 823.242 432.646 C 830.890 428.260, 826.153 428.261, 816.126 432.649 C 813.170 433.942, 809.570 434.998, 808.126 434.995 C 806.682 434.992, 803.475 435.647, 801 436.449 C 790.987 439.695, 786 441, 783.609 441 C 782.226 441, 779.835 441.506, 778.297 442.125 C 776.759 442.743, 774.600 443.607, 773.500 444.045 C 772.400 444.482, 768.853 446.004, 765.618 447.426 C 761.992 449.019, 757.004 450.231, 752.618 450.585 L 745.500 451.158 748 449.129 C 749.375 448.014, 751.501 446.847, 752.724 446.538 C 753.947 446.228, 756.647 444.818, 758.724 443.405 C 760.801 441.991, 767.225 438.575, 773 435.813 C 798.779 423.485, 827.718 415, 843.983 415 C 848.274 415, 850.309 417.100, 849.398 420.588 C 848.915 422.440, 849.875 422.501, 879.950 422.517 C 897.027 422.527, 911 422.250, 911 421.902 C 911 421.554, 910.100 420.126, 909 418.727 C 907.900 417.329, 907 415.918, 907 415.592 C 907 415.267, 909.587 414.989, 912.750 414.976 C 915.913 414.963, 920.089 414.583, 922.031 414.131 C 927.761 412.798, 952.064 416.587, 960.500 420.129 C 961.600 420.591, 966.550 422.356, 971.500 424.053 C 990.037 430.405, 1010.131 439.992, 1026 450.056 C 1030.125 452.671, 1037.325 456.302, 1042 458.123 C 1046.675 459.945, 1051.078 461.995, 1051.784 462.680 C 1052.696 463.565, 1053.800 463.646, 1055.599 462.962 C 1056.991 462.433, 1060.071 462, 1062.443 462 C 1068.394 462, 1070.056 459.919, 1067.195 456.050 C 1065.473 453.721, 1065.344 453.082, 1066.505 452.636 C 1069.421 451.517, 1083.914 456.996, 1088.500 460.950 C 1089.600 461.899, 1093.108 463.275, 1096.297 464.008 C 1099.485 464.742, 1102.324 465.715, 1102.606 466.171 C 1102.887 466.627, 1104.981 467, 1107.259 467 C 1110.480 467, 1111.133 466.733, 1110.200 465.800 C 1109.540 465.140, 1109 462.315, 1109 459.523 C 1109 454.583, 1110.609 450.866, 1113.795 448.447 C 1114.795 447.687, 1113.327 447.512, 1108.530 447.817 C 1104.530 448.072, 1099.211 447.621, 1095.189 446.685 C 1086.007 444.550, 1083.655 444.127, 1074.840 443.028 C 1066.393 441.974, 1057.086 438.039, 1051.557 433.184 C 1045.202 427.605, 1024.772 418.648, 1003 411.896 C 997.225 410.106, 987.325 406.639, 981 404.193 C 950.487 392.393, 925.135 389.329, 880.500 392.048 M 935 428.504 C 935 429.530, 951.630 447.264, 960.176 455.350 C 965.746 460.621, 965.944 460.712, 970.830 460.242 C 976.195 459.727, 979.148 460.805, 995.500 469.247 C 1010.229 476.852, 1016.465 479.656, 1021.500 480.938 C 1024.250 481.639, 1031.311 483.825, 1037.191 485.798 L 1047.882 489.384 1052.898 484.692 C 1055.657 482.111, 1058.823 480, 1059.934 480 C 1061.045 480, 1062.727 478.820, 1063.672 477.377 C 1065.381 474.770, 1065.366 474.732, 1061.234 470.877 C 1058.948 468.745, 1056.245 467, 1055.227 467 C 1054.209 467, 1051.604 466.162, 1049.438 465.138 C 1047.272 464.114, 1043.835 463.021, 1041.801 462.709 C 1039.767 462.397, 1036.617 461.484, 1034.801 460.679 C 1029.771 458.449, 1022.607 456.167, 1010.500 452.938 C 1004.450 451.324, 995.900 448.476, 991.500 446.609 C 978.362 441.034, 973.655 439.191, 965.889 436.581 C 961.825 435.215, 954.675 432.745, 950 431.091 C 942.411 428.407, 935 427.129, 935 428.504" stroke="#e8b1e4" fill="#e8b1e4" fill-opacity="0.2" fill-rule="evenodd"/><path class="svg-region-MB" d="M 767.650 296.049 C 764.982 296.497, 762.057 297.161, 761.150 297.525 C 760.242 297.889, 751.175 298.567, 741 299.031 C 728.324 299.610, 720.078 300.493, 714.806 301.839 C 704.966 304.350, 697 306.995, 697 307.752 C 697 308.077, 697.683 309.097, 698.517 310.019 C 700.730 312.464, 701.553 328.608, 700.078 340.638 C 698.062 357.087, 692.013 382.502, 687.927 391.698 C 684.565 399.262, 674.871 409.319, 664 416.517 C 659.875 419.249, 656.275 421.756, 656 422.088 C 654.213 424.244, 642.859 431, 641.022 431 C 639.252 431, 638.954 431.365, 639.593 432.750 C 640.036 433.712, 640.572 437.566, 640.784 441.314 C 641.031 445.677, 641.636 448.307, 642.467 448.626 C 643.876 449.166, 654.840 446.284, 656.550 444.923 C 657.127 444.464, 659.489 443.785, 661.800 443.416 C 664.110 443.047, 666 442.389, 666 441.954 C 666 441.107, 675.393 437.913, 683.343 436.056 C 686.006 435.434, 689.177 434.275, 690.390 433.480 C 691.602 432.686, 696.172 431.540, 700.547 430.933 C 704.921 430.326, 712.483 428.293, 717.350 426.415 C 722.218 424.537, 726.450 423, 726.755 423 C 727.060 423, 726.475 423.922, 725.455 425.050 C 724.435 426.177, 729.202 424.005, 736.050 420.223 C 748.586 413.299, 764.941 405.201, 770.500 403.165 C 775.615 401.292, 790.204 398.179, 796.500 397.618 C 799.800 397.324, 806.669 396.617, 811.764 396.048 C 816.859 395.479, 831.034 394.559, 843.264 394.004 C 855.494 393.448, 872.700 392.559, 881.500 392.028 C 913.356 390.106, 932.093 391.036, 952.500 395.552 C 956.350 396.404, 961.300 397.497, 963.500 397.980 C 965.700 398.464, 971.325 400.407, 976 402.298 C 986.964 406.734, 996.624 410.172, 1006 412.977 C 1023.692 418.268, 1046.710 428.569, 1052.036 433.579 C 1057.141 438.381, 1066.457 441.934, 1078.254 443.579 C 1084.404 444.437, 1091.907 445.783, 1094.928 446.569 C 1101.104 448.178, 1111.666 448.458, 1115.221 447.106 C 1116.514 446.614, 1119.661 444.252, 1122.213 441.856 L 1126.855 437.500 1126.069 430.500 C 1125.637 426.650, 1125.220 424.747, 1125.142 426.271 C 1124.681 435.270, 1108.384 429.877, 1096.410 416.763 C 1087.852 407.391, 1075.737 387.501, 1072.758 377.935 C 1066.590 358.121, 1064.998 349.663, 1064.999 336.705 C 1065 324.211, 1065.062 323.847, 1067.638 321.271 L 1070.277 318.632 1067.511 316.427 C 1065.990 315.214, 1062.665 313.522, 1060.122 312.667 C 1057.580 311.812, 1053.025 310.243, 1050 309.180 C 1037.133 304.658, 1019.242 302.311, 995.500 302.032 C 990.550 301.973, 984.700 301.805, 982.500 301.656 C 973.082 301.022, 955.812 303.120, 947.189 305.946 C 934.925 309.965, 919.776 317.960, 911.053 325.017 C 902.998 331.533, 894.482 335, 886.532 335 C 879.502 335, 860.413 326.082, 852.419 319.063 C 847.630 314.858, 822.885 303.203, 814.239 301.080 C 791.093 295.396, 779.198 294.111, 767.650 296.049" stroke="#f9c6c6" fill="#f9c6c6" fill-opacity="0.2" fill-rule="evenodd"/><path class="svg-region-LBl" d="M 1068.898 320.288 L 1065.500 322.576 1065.222 336.299 C 1065.013 346.585, 1065.348 351.460, 1066.558 355.761 C 1067.445 358.917, 1069.074 365.100, 1070.176 369.500 C 1072.232 377.703, 1077.327 389.780, 1081.356 396 C 1089.284 408.238, 1092.107 412.073, 1097.149 417.463 C 1104.594 425.419, 1112.398 430.112, 1118.548 430.333 C 1121.815 430.449, 1123.468 430.047, 1124.028 429 C 1124.469 428.175, 1125.552 421.425, 1126.435 414 C 1127.317 406.575, 1128.522 398.250, 1129.112 395.500 C 1129.701 392.750, 1130.029 384.650, 1129.841 377.500 L 1129.498 364.500 1125.199 358 C 1119.467 349.335, 1108.600 338.338, 1102.929 335.464 C 1100.406 334.186, 1095.678 330.919, 1092.421 328.204 C 1086.100 322.936, 1077.278 318, 1074.181 318 C 1073.144 318, 1070.767 319.030, 1068.898 320.288" stroke="#79495c" fill="#79495c" fill-opacity="0.2" fill-rule="evenodd"/><path class="svg-region-LBr" d="M 689.500 308.955 C 683.315 310.044, 678.851 312.317, 670.338 318.714 C 666.027 321.953, 661.266 325.376, 659.757 326.320 C 656.515 328.349, 642.784 344.208, 638.500 350.871 C 636.850 353.438, 634.325 357.104, 632.888 359.019 C 631.452 360.933, 629.764 364.030, 629.138 365.899 C 627.768 369.991, 627.618 395.917, 628.925 402.701 C 632.829 422.970, 633.492 425.431, 635.776 428.145 C 639.087 432.080, 642.271 431.748, 649.608 426.701 C 652.968 424.391, 659.268 420.064, 663.608 417.087 C 667.949 414.111, 674.683 408.463, 678.574 404.536 C 686.350 396.689, 690.255 389.002, 693.322 375.500 C 700.195 345.252, 701.521 335.585, 700.683 321.836 C 700.230 314.406, 699.620 311.238, 698.379 309.866 C 696.598 307.899, 695.903 307.827, 689.500 308.955" stroke="#79495c" fill="#79495c" fill-opacity="0.2" fill-rule="evenodd"/><path class="svg-region-Fr" d="M 756.302 247.012 C 754.891 247.580, 753.715 249.344, 753.016 251.942 C 752.241 254.818, 751.070 256.429, 748.963 257.519 C 747.333 258.362, 746 259.294, 746 259.591 C 746 261.145, 748.253 264, 749.479 264 C 750.253 264, 751.695 265.369, 752.683 267.041 C 754.416 269.974, 756.254 270.857, 760.500 270.794 C 762.466 270.765, 767.822 272.431, 771.236 274.134 C 775.330 276.176, 785.377 274.744, 791.684 271.220 C 792.886 270.549, 794.536 270, 795.351 270 C 798.551 270, 797.747 266.020, 793.688 261.772 C 792.691 260.729, 789.991 259.058, 787.688 258.058 C 785.385 257.059, 782.409 255.062, 781.076 253.621 C 779.742 252.179, 777.811 251, 776.784 251 C 775.757 251, 774.004 250.150, 772.889 249.111 C 769.705 246.145, 761.145 245.062, 756.302 247.012" stroke="#5ca7a9" fill="#5ca7a9" fill-opacity="0.2" fill-rule="evenodd"/><path class="svg-region-Ol" d="M 1286.992 336.862 C 1278.786 340.199, 1266.449 347.586, 1262.179 351.721 C 1261.452 352.424, 1260.542 353, 1260.157 353 C 1259.011 353, 1250.662 361.203, 1247.616 365.320 C 1243.520 370.860, 1243.160 375.736, 1246.327 382.794 C 1250.159 391.334, 1251.993 403.390, 1250.893 412.809 C 1249.906 421.258, 1247.453 430.403, 1245.351 433.473 C 1244.608 434.557, 1244 436.089, 1244 436.876 C 1244 438.303, 1242.135 442.492, 1234.884 457.349 C 1232.777 461.666, 1230.754 466.841, 1230.388 468.849 C 1229.328 474.658, 1218.617 490.054, 1207.232 502.131 C 1199.263 510.586, 1185.461 519.969, 1179.175 521.206 C 1172.976 522.427, 1159.014 522.390, 1151.288 521.134 C 1147.642 520.541, 1143.518 519.065, 1141.306 517.562 C 1139.232 516.153, 1136.965 515, 1136.268 515 C 1135.571 515, 1135 514.550, 1135 514 C 1135 512.240, 1119.793 512.838, 1113.907 514.829 C 1110.933 515.835, 1104.639 517.245, 1099.920 517.963 C 1092.098 519.154, 1091.105 519.115, 1088.672 517.521 C 1085.572 515.490, 1077.989 516.103, 1075.959 518.549 C 1075.297 519.347, 1074.094 520, 1073.286 520 C 1072.478 520, 1070.620 520.924, 1069.158 522.053 C 1063.609 526.340, 1058.832 529, 1056.683 529 C 1055.458 529, 1052.891 530.287, 1050.978 531.861 C 1049.065 533.434, 1045.250 535.865, 1042.500 537.262 C 1039.750 538.659, 1036.375 540.768, 1035 541.948 C 1031.354 545.079, 1026.126 548.260, 1021 550.467 C 1011.933 554.371, 1001.967 561.628, 990.057 573 C 981.819 580.865, 976.967 592.412, 975.456 607.748 C 974.921 613.175, 975.232 616.452, 976.908 623.076 C 978.923 631.042, 979.968 634.010, 984.093 643.500 C 986.034 647.965, 993.962 660.152, 997.429 664 C 998.668 665.375, 1000.724 668.300, 1001.998 670.500 C 1003.272 672.700, 1005.553 675.850, 1007.067 677.500 C 1008.581 679.150, 1010.648 681.926, 1011.660 683.669 C 1017.349 693.468, 1024.307 704.364, 1027.901 709.099 C 1030.154 712.070, 1033.584 717.425, 1035.521 721 C 1037.458 724.575, 1039.886 728.625, 1040.916 730 C 1041.945 731.375, 1045.806 737.225, 1049.494 743 C 1053.182 748.775, 1057.505 755.426, 1059.100 757.779 C 1060.695 760.133, 1062 762.217, 1062 762.411 C 1062 762.605, 1064.045 764.954, 1066.544 767.632 C 1069.043 770.309, 1071.677 773.860, 1072.398 775.523 C 1075.490 782.657, 1097.579 805.766, 1110.902 815.805 C 1128.029 828.711, 1151.091 837.483, 1170.500 838.474 C 1174.900 838.699, 1180.975 839.421, 1184 840.079 C 1197.442 843.004, 1227.288 838.487, 1247.207 830.513 C 1280.546 817.166, 1298.086 799.067, 1320.853 754.515 C 1324.784 746.823, 1328 740.202, 1328 739.801 C 1328 739.400, 1330.661 733.543, 1333.913 726.786 C 1345.281 703.165, 1349.699 691.338, 1351.019 681 C 1352.380 670.339, 1355.812 662.672, 1364.458 650.978 C 1367.092 647.415, 1369.698 643.228, 1370.248 641.674 C 1371.276 638.770, 1371.719 637.891, 1381.161 620 C 1387.848 607.329, 1393.398 597.048, 1398.973 587 C 1409.231 568.514, 1417.723 548.618, 1421.596 534 C 1424.836 521.768, 1427.075 498.336, 1427.030 477.137 C 1427.005 465.787, 1426.794 455.150, 1426.561 453.500 C 1424.071 435.874, 1421.119 421.192, 1419.916 420.448 C 1419.394 420.126, 1419.212 419.466, 1419.511 418.982 C 1420.134 417.974, 1416.748 407.452, 1413.911 401.580 C 1412.860 399.404, 1412 397.086, 1412 396.428 C 1412 395.770, 1410.212 391.692, 1408.027 387.366 C 1403.538 378.477, 1393.839 367.614, 1380 355.975 C 1370.469 347.958, 1368.632 346.895, 1354.500 341.221 C 1336.259 333.897, 1332.476 333.145, 1313.500 333.066 L 1296.500 332.996 1286.992 336.862" stroke="#aa444d" fill="#aa444d" fill-opacity="0.2" fill-rule="evenodd"/><path class="svg-region-Or" d="M 465.111 331.092 C 463.797 331.612, 461.306 331.773, 459.576 331.448 C 452.966 330.208, 425.053 339.367, 422.716 343.543 C 422.267 344.344, 421.135 345.033, 420.200 345.073 C 419.265 345.113, 417.150 346.019, 415.500 347.085 C 413.850 348.151, 411.712 349.296, 410.750 349.628 C 409.788 349.961, 409 350.587, 409 351.019 C 409 351.452, 406.413 353.507, 403.250 355.587 C 400.087 357.667, 397.275 359.668, 397 360.035 C 396.725 360.401, 394.700 361.867, 392.500 363.291 C 390.300 364.716, 385.350 368.626, 381.500 371.980 C 377.650 375.334, 371.238 380.825, 367.250 384.182 C 363.262 387.539, 360 390.581, 360 390.941 C 360 391.302, 358.313 393.448, 356.250 395.711 C 349.552 403.059, 344 410.683, 344 412.534 C 344 413.529, 343.376 415.053, 342.614 415.921 C 340.787 418.002, 338.106 430.103, 338.738 433.411 C 339.012 434.841, 338.737 436.612, 338.127 437.347 C 337.518 438.081, 336.960 441.791, 336.888 445.591 C 336.561 462.905, 336.715 468.786, 337.541 470.575 C 338.030 471.634, 338.496 475.425, 338.577 479 C 338.748 486.578, 339.800 494.015, 340.906 495.476 C 341.332 496.039, 342.262 499.875, 342.973 504 C 343.709 508.278, 345.675 514.293, 347.548 518 C 349.353 521.575, 351.323 526.364, 351.925 528.642 C 352.527 530.921, 355.189 538.121, 357.842 544.642 C 360.495 551.164, 363.462 559.200, 364.436 562.500 C 365.410 565.800, 367.285 571.277, 368.603 574.671 C 369.922 578.064, 371 581.347, 371 581.964 C 371 584.210, 378.311 602.564, 380.131 604.885 C 381.159 606.197, 382 608.334, 382 609.635 C 382 610.936, 382.450 612, 383 612 C 383.550 612, 384 612.745, 384 613.656 C 384 614.566, 385.169 616.844, 386.597 618.717 C 388.026 620.590, 389.639 623.782, 390.182 625.811 C 390.725 627.840, 392.304 631.975, 393.690 635 C 395.076 638.025, 396.588 641.400, 397.050 642.500 C 403.011 656.683, 407.116 665.771, 410.147 671.498 C 416.636 683.759, 421.124 693.636, 422.576 698.855 C 427.135 715.240, 431.142 726.470, 440.110 748 C 442.744 754.325, 446.242 763.100, 447.882 767.500 C 452.377 779.558, 458.713 794.717, 462.299 801.994 C 466.697 810.918, 486.608 831.126, 496.241 836.442 C 499.949 838.488, 503.216 840.541, 503.503 841.004 C 503.789 841.467, 505.480 842.145, 507.261 842.511 C 509.043 842.877, 514.100 844.447, 518.500 845.999 C 531.696 850.655, 548.483 853.423, 558.240 852.552 C 562.783 852.147, 568.688 851.640, 571.363 851.426 C 577.647 850.924, 590.991 847.321, 598 844.235 C 601.025 842.903, 605.300 841.013, 607.500 840.036 C 609.700 839.059, 611.950 838.088, 612.500 837.879 C 615.612 836.696, 635.740 822.520, 643 816.398 C 655.589 805.783, 686.968 773.057, 697.045 760.034 C 698.945 757.578, 702.008 753.978, 703.851 752.034 C 707.968 747.692, 725.714 725.796, 729.003 721 C 730.323 719.075, 731.650 717.275, 731.952 717 C 733.174 715.885, 746.725 695.255, 748.374 692 C 750.433 687.934, 751.536 686.057, 755.270 680.270 C 756.772 677.943, 758 675.758, 758 675.414 C 758 675.069, 759.350 673.083, 761 671 C 762.650 668.917, 764 666.817, 764 666.333 C 764 665.850, 765.623 662.990, 767.608 659.977 C 772.355 652.769, 787 623.448, 787 621.151 C 787 620.164, 787.701 617.299, 788.558 614.784 C 789.968 610.645, 789.968 609.860, 788.558 606.484 C 787.701 604.434, 787.002 600.673, 787.005 598.128 C 787.010 593.701, 785.315 587.269, 782.290 580.225 C 781.083 577.417, 770.206 565.621, 765.910 562.463 C 765.135 561.893, 761.522 559.309, 757.883 556.720 C 751.080 551.882, 741.904 543.074, 741.006 540.521 C 740.315 538.556, 730.399 531.786, 712.500 521.059 C 704.250 516.114, 696.621 511.379, 695.547 510.535 C 694.306 509.560, 691.497 509, 687.848 509 C 683.148 509, 681.593 509.452, 679.302 511.484 C 675.253 515.075, 674.885 515.322, 670.716 517.250 C 665.831 519.509, 652.293 519.689, 649.441 517.532 C 648.374 516.724, 646.712 516.049, 645.750 516.032 C 644.788 516.014, 644 515.550, 644 515 C 644 514.450, 643.394 514, 642.654 514 C 641.913 514, 639.776 513.222, 637.904 512.271 C 633.549 510.059, 620.189 509.293, 616.876 511.066 C 613.953 512.631, 605.279 513.408, 593.726 513.142 C 586.849 512.983, 584.147 512.477, 581.226 510.801 C 579.177 509.625, 575.613 507.688, 573.307 506.496 C 569.265 504.408, 557.863 491.910, 550.183 481.148 C 544.305 472.912, 540.934 469, 539.703 468.987 C 538.004 468.970, 531 458.117, 531 455.503 C 531 454.310, 530.663 452.997, 530.250 452.585 C 529.837 452.173, 529.015 450.186, 528.422 448.168 C 527.830 446.151, 526.826 444.610, 526.191 444.744 C 525.557 444.878, 524.267 443.811, 523.324 442.372 C 520.429 437.953, 519.311 429.440, 520.083 417.676 C 520.661 408.859, 521.275 405.923, 523.396 401.834 C 524.828 399.074, 526 395.597, 526 394.108 C 526 392.618, 526.425 390.973, 526.944 390.450 C 528.087 389.300, 524.872 378.791, 523.209 378.236 C 522.591 378.030, 519.782 373.168, 516.966 367.431 C 514.150 361.694, 511.533 357, 511.151 357 C 510.511 357, 509.611 355.393, 505.964 347.736 C 504.223 344.081, 491.557 333.975, 486.500 332.205 C 481.596 330.489, 468.369 329.800, 465.111 331.092" stroke="#aa444d" fill="#aa444d" fill-opacity="0.2" fill-rule="evenodd"/><path class="svg-region-Pl" d="M 1210.500 438.738 C 1201.410 440.066, 1186.303 450.228, 1187.368 454.299 C 1187.628 455.295, 1186.787 458.493, 1185.499 461.407 C 1183.341 466.286, 1182.696 466.886, 1177.328 469.001 C 1174.123 470.264, 1169.130 472.618, 1166.233 474.232 C 1157.607 479.038, 1140.656 484.052, 1135.447 483.338 C 1131.299 482.769, 1130.990 482.897, 1129.962 485.600 C 1129.281 487.391, 1129.132 491.230, 1129.564 495.843 C 1130.140 501.988, 1130.736 503.769, 1133.128 506.493 C 1134.708 508.292, 1136 510.713, 1136 511.872 C 1136 513.310, 1137.667 515.073, 1141.250 517.424 C 1145.921 520.489, 1147.548 520.956, 1156 521.665 C 1161.225 522.103, 1166.400 522.391, 1167.500 522.304 C 1181.937 521.162, 1182.898 520.899, 1190.242 516.087 C 1203.017 507.716, 1208.102 502.679, 1220.626 485.996 C 1226.862 477.689, 1229.671 472.812, 1230.430 468.973 C 1230.807 467.063, 1231.503 464.600, 1231.976 463.500 C 1235.313 455.734, 1236.011 447.153, 1233.509 444.652 C 1232.689 443.832, 1230.327 442.611, 1228.259 441.938 C 1226.192 441.266, 1223.612 440.104, 1222.527 439.358 C 1220.613 438.040, 1216.668 437.837, 1210.500 438.738" stroke="#f9d3d3" fill="#f9d3d3" fill-opacity="0.2" fill-rule="evenodd"/><path class="svg-region-Pr" d="M 544 423.146 C 534.700 427.260, 534.451 427.533, 530.864 437.500 C 528.650 443.654, 528.588 446.320, 530.487 453.613 C 532.001 459.426, 537.623 468.927, 539.576 468.974 C 540.962 469.007, 545 473.293, 545 474.731 C 545 475.337, 545.412 475.983, 545.915 476.167 C 546.419 476.350, 548.331 478.591, 550.165 481.148 C 558.409 492.638, 569.257 504.405, 573.807 506.792 C 584.185 512.236, 585.768 512.799, 592.580 513.471 C 605.544 514.749, 623 507.839, 623 501.429 C 623 498.988, 616.894 493, 614.404 493 C 612.646 493, 597.271 485.730, 594.938 483.795 C 592.955 482.151, 589.294 475.271, 588.663 472 C 588.397 470.625, 586.805 465.675, 585.124 461 C 583.444 456.325, 582.053 451.573, 582.034 450.440 C 582.015 449.307, 580.087 446.051, 577.750 443.204 C 575.413 440.357, 572.525 436.757, 571.332 435.205 C 568.543 431.573, 554.076 423.016, 549.793 422.464 C 547.982 422.231, 545.375 422.538, 544 423.146" stroke="#f9d3d3" fill="#f9d3d3" fill-opacity="0.2" fill-rule="evenodd"/><path class="svg-region-DLl" d="M 1129.250 438.946 C 1127.463 439.387, 1126 439.574, 1126 439.362 C 1126 439.150, 1123.557 440.967, 1120.571 443.399 C 1117.584 445.832, 1114.520 448.199, 1113.760 448.661 C 1110.770 450.478, 1109 454.521, 1109 459.535 C 1109 463.816, 1109.437 465.023, 1111.750 467.124 C 1113.263 468.498, 1115.737 470.148, 1117.250 470.790 C 1119.465 471.730, 1120 472.604, 1120 475.283 C 1120 477.690, 1120.967 479.665, 1123.500 482.430 C 1125.425 484.532, 1127 486.645, 1127 487.126 C 1127 488.702, 1129.048 488.040, 1129.708 486.250 C 1130.701 483.560, 1132.182 482.928, 1136.051 483.544 C 1140.018 484.175, 1162.067 477.558, 1166.799 474.317 C 1168.258 473.318, 1172.566 471.150, 1176.372 469.500 C 1180.179 467.850, 1183.623 465.825, 1184.025 465 C 1190.040 452.676, 1189.438 452.036, 1171.807 452.014 C 1161.898 452.001, 1160.999 451.837, 1159.557 449.777 C 1158.701 448.555, 1158 446.821, 1158 445.924 C 1158 445.026, 1156.935 443.143, 1155.633 441.738 C 1153.529 439.468, 1152.460 439.176, 1146.020 439.116 C 1142.035 439.079, 1137.363 438.845, 1135.637 438.596 C 1133.912 438.347, 1131.037 438.505, 1129.250 438.946" stroke="#b7d6d3" fill="#b7d6d3" fill-opacity="0.2" fill-rule="evenodd"/><path class="svg-region-DLr" d="M 620.385 406.238 C 618.798 407.469, 616.012 409.832, 614.194 411.488 C 612.375 413.145, 609.630 415.195, 608.094 416.044 C 603.576 418.541, 596.487 425.211, 594.098 429.213 C 592.783 431.417, 589.518 434.363, 586.067 436.459 C 577.803 441.479, 577.192 442.416, 579.843 446.001 C 581.029 447.606, 582 449.768, 582 450.806 C 582 451.843, 583.412 456.474, 585.138 461.096 C 586.863 465.718, 588.498 471.055, 588.771 472.955 C 589.044 474.855, 589.882 477.024, 590.633 477.776 C 591.385 478.528, 592 479.743, 592 480.477 C 592 481.956, 600.574 488, 602.671 488 C 603.402 488, 604 488.408, 604 488.907 C 604 489.406, 607.019 490.761, 610.708 491.919 C 617.722 494.121, 623 498.100, 623 501.187 C 623 504.002, 624.538 503.357, 628.295 498.969 C 631.782 494.895, 631.995 494.175, 634.014 479.673 C 634.620 475.324, 636.150 470.616, 638.232 466.698 C 641.461 460.624, 641.497 460.403, 641.280 448.284 C 641.052 435.519, 640.749 434.407, 635.558 427.252 C 634.262 425.465, 632.430 420.537, 631.488 416.301 C 630.545 412.065, 629.303 407.564, 628.727 406.299 C 627.384 403.353, 624.134 403.329, 620.385 406.238" stroke="#b7d6d3" fill="#b7d6d3" fill-opacity="0.2" fill-rule="evenodd"/><path class="svg-region-OLl" d="M 1140.500 402.309 C 1133.960 405.453, 1130.253 409.314, 1128.905 414.387 C 1128.304 416.649, 1127.381 419.320, 1126.853 420.322 C 1126.325 421.325, 1126.018 426.092, 1126.171 430.916 L 1126.450 439.686 1130.340 438.812 C 1132.479 438.332, 1135.036 438.194, 1136.021 438.507 C 1137.006 438.819, 1141.225 439.115, 1145.396 439.164 C 1151.991 439.240, 1153.290 439.563, 1155.367 441.640 C 1156.681 442.954, 1158.023 445.260, 1158.351 446.764 C 1159.416 451.660, 1159.812 451.798, 1173.758 452.114 C 1190.656 452.498, 1190.535 452.588, 1190.413 439.709 C 1190.341 431.986, 1189.878 429.451, 1187.547 424 C 1183.226 413.895, 1177.208 406.672, 1170 402.939 C 1166.373 401.060, 1163.560 400.540, 1155.500 400.257 C 1146.574 399.943, 1144.963 400.163, 1140.500 402.309" stroke="#c4875d" fill="#c4875d" fill-opacity="0.2" fill-rule="evenodd"/><path class="svg-region-OLr" d="M 590.681 387.873 C 575.282 395.158, 566.870 407.620, 566.602 423.544 C 566.503 429.402, 566.664 429.794, 571.836 436.294 C 577.364 443.241, 578.410 443.979, 579.331 441.581 C 579.630 440.801, 582.491 438.639, 585.688 436.778 C 589.424 434.603, 592.571 431.779, 594.500 428.870 C 597.682 424.072, 601.958 420.088, 608.500 415.828 C 610.700 414.396, 613.934 411.936, 615.687 410.362 C 617.440 408.788, 620.061 406.624, 621.512 405.554 C 623.796 403.869, 624.060 403.132, 623.486 400.054 C 623.122 398.099, 622.185 396.138, 621.405 395.696 C 620.624 395.254, 619.104 393.164, 618.026 391.051 C 614.729 384.588, 613.669 383.990, 605.679 384.087 C 599.581 384.160, 597.323 384.730, 590.681 387.873" stroke="#c4875d" fill="#c4875d" fill-opacity="0.2" fill-rule="evenodd"/><path class="svg-region-VOC" d="M 722 424.605 C 714.959 427.675, 706.908 430.020, 700.088 430.988 C 696.247 431.532, 691.393 432.847, 689.302 433.908 C 687.211 434.970, 682.800 436.373, 679.500 437.027 C 676.200 437.680, 671.250 439.247, 668.500 440.508 C 665.750 441.770, 662.375 443.118, 661 443.503 C 652.803 445.800, 643.798 449.513, 643.073 450.895 C 642.609 451.778, 641.911 454.863, 641.521 457.750 L 640.812 463 646.861 463 C 651 463, 655.054 462.171, 659.705 460.372 C 663.442 458.927, 670.550 456.355, 675.500 454.658 C 680.450 452.960, 684.725 451.306, 685 450.982 C 685.275 450.658, 689.550 448.426, 694.500 446.021 C 707.328 439.790, 714.278 435.323, 721.333 428.778 C 727.754 422.821, 727.879 422.041, 722 424.605 M 1066.236 452.677 C 1065.366 453.021, 1065.989 454.464, 1068.236 457.306 C 1074.032 464.638, 1080.263 471, 1081.649 471 C 1082.392 471, 1083 471.415, 1083 471.922 C 1083 473.938, 1090.360 475.258, 1098.029 474.618 C 1105.696 473.979, 1105.755 473.992, 1108.796 477.102 C 1111.101 479.460, 1113.018 480.360, 1116.590 480.763 C 1120.785 481.236, 1121.252 481.099, 1120.664 479.567 C 1120.299 478.615, 1120 476.562, 1120 475.004 C 1120 472.674, 1119.178 471.712, 1115.374 469.585 C 1112.830 468.163, 1109.661 467, 1108.333 467 C 1105.335 467, 1093.371 463.416, 1090 461.508 C 1082.377 457.192, 1076.153 454.208, 1073.500 453.596 C 1071.850 453.216, 1069.825 452.741, 1069 452.541 C 1068.175 452.342, 1066.931 452.403, 1066.236 452.677" stroke="#ff8f93" fill="#ff8f93" fill-opacity="0.2" fill-rule="evenodd"/><path class="svg-region-OABl" d="M 1073 498.057 C 1052.635 498.946, 1039.928 501.066, 1036.550 504.136 C 1036.028 504.611, 1034.788 505, 1033.795 505 C 1031.737 505, 1024.400 508.421, 1018.500 512.132 C 1012.164 516.117, 1001.881 518.093, 977.500 520.013 C 954.121 521.854, 943.099 524.141, 925.125 530.882 L 917.750 533.647 923.608 536.421 C 935.015 541.822, 955.457 541.822, 969.807 536.421 C 975.291 534.356, 977.988 534, 988.119 534 C 996.081 534, 1000 534.362, 1000 535.098 C 1000 535.863, 1001.898 535.956, 1006.250 535.406 C 1016.667 534.090, 1018.950 534.591, 1020.315 538.495 C 1020.507 539.042, 1023.186 538.254, 1026.269 536.745 C 1029.352 535.235, 1033.538 534, 1035.571 534 C 1039.373 534, 1046.706 532.239, 1048.525 530.889 C 1049.089 530.471, 1051.905 529.816, 1054.784 529.434 C 1058.643 528.922, 1061.659 527.594, 1066.259 524.381 C 1069.692 521.983, 1073.007 520.017, 1073.628 520.011 C 1074.248 520.005, 1075.275 519.374, 1075.910 518.609 C 1077.803 516.328, 1085.722 515.588, 1088.532 517.429 C 1089.850 518.293, 1091.931 519, 1093.155 519 C 1096.705 519, 1106.987 516.909, 1113.444 514.874 C 1120.198 512.745, 1132.933 512.333, 1134.783 514.183 C 1136.342 515.742, 1137.053 514.920, 1136.379 512.341 C 1136.081 511.202, 1134.140 509.422, 1132.065 508.385 C 1120.251 502.481, 1117.049 501.110, 1112.736 500.107 C 1110.115 499.498, 1106.178 499, 1103.986 499 C 1101.794 499, 1100 498.550, 1100 498 C 1100 496.946, 1098.339 496.950, 1073 498.057" stroke="#81244d" fill="#81244d" fill-opacity="0.2" fill-rule="evenodd"/><path class="svg-region-OABr" d="M 704.750 485.689 C 703.788 485.941, 703 486.515, 703 486.965 C 703 487.415, 701.793 488.086, 700.317 488.457 C 698.842 488.827, 696.338 490.220, 694.755 491.553 C 693.171 492.886, 689.090 495.272, 685.687 496.855 C 678.158 500.359, 675.739 502.852, 676.175 506.662 L 676.500 509.500 687.643 509.137 C 698.651 508.779, 705.271 509.852, 707.523 512.360 C 708.870 513.861, 709.518 514.253, 730.445 526.230 C 752.721 538.979, 751.996 538.677, 752.014 535.218 C 752.021 533.723, 752.310 531.444, 752.656 530.153 C 753.249 527.935, 753.595 527.842, 758.892 528.470 C 767.661 529.510, 774.569 532.126, 776.625 535.186 C 778.576 538.090, 780.670 538.965, 785.715 538.986 C 787.925 538.996, 789.273 539.642, 790.029 541.054 C 791.618 544.024, 796.983 546.992, 800.769 546.996 C 803.130 546.999, 805.628 545.751, 809.769 542.501 L 815.500 538.001 824.601 538.001 C 833.810 538, 837.075 537.335, 844.739 533.900 C 847.071 532.855, 849.433 532, 849.989 532 C 850.545 532, 851 531.527, 851 530.949 C 851 529.333, 844.323 526.901, 835.787 525.407 C 831.544 524.665, 826.427 523.370, 824.414 522.529 C 822.402 521.688, 819.573 520.991, 818.128 520.979 C 814.796 520.952, 801.028 516.927, 790.875 513.012 C 786.579 511.355, 781.813 510, 780.282 509.999 C 775.151 509.998, 762.631 506.910, 756.035 504.020 C 752.441 502.445, 748.150 500.825, 746.500 500.420 C 744.850 500.016, 741.498 498.833, 739.051 497.793 C 736.604 496.752, 731.248 495.475, 727.149 494.955 C 721.520 494.242, 719.352 493.520, 718.291 492.005 C 717.519 490.902, 716.392 490, 715.788 490 C 715.183 490, 713.214 488.875, 711.411 487.500 C 708.075 484.956, 707.822 484.887, 704.750 485.689" stroke="#81244d" fill="#81244d" fill-opacity="0.2" fill-rule="evenodd"/><path class="svg-region-SOTl" d="M 922 413.969 C 920.625 414.427, 916.688 414.845, 913.250 414.900 C 906.920 415.001, 905.782 415.744, 908.500 418 C 909.325 418.685, 910 419.856, 910 420.603 C 910 422.170, 912.064 422.697, 920.707 423.341 C 924.827 423.647, 927.905 424.508, 929.861 425.901 C 931.638 427.166, 934.351 428, 936.689 428 C 938.824 428, 943.704 429.072, 947.535 430.383 C 964.916 436.328, 977.744 440.856, 980.500 442.017 C 982.150 442.712, 985.075 443.937, 987 444.739 C 988.925 445.542, 992.300 447.028, 994.500 448.042 C 996.700 449.057, 1001.200 450.561, 1004.500 451.384 C 1018.221 454.808, 1029.145 458.136, 1033.212 460.130 C 1034.154 460.592, 1038.419 461.906, 1042.689 463.051 C 1046.959 464.195, 1051.037 465.616, 1051.751 466.208 C 1052.464 466.800, 1053.359 466.974, 1053.739 466.595 C 1054.577 465.756, 1052.905 462.928, 1050.933 461.851 C 1048.680 460.620, 1040.744 457.313, 1038.116 456.509 C 1035.998 455.862, 1028.645 451.665, 1021.120 446.810 C 1019.679 445.880, 1016.250 443.953, 1013.500 442.528 C 1010.750 441.103, 1007.150 439.189, 1005.500 438.275 C 1001.881 436.270, 983.504 428.131, 980 426.981 C 978.625 426.530, 973.675 424.761, 969 423.051 C 958.237 419.114, 944.245 415.468, 936.500 414.581 C 933.200 414.203, 929.150 413.724, 927.500 413.516 C 925.850 413.308, 923.375 413.512, 922 413.969" stroke="#995b45" fill="#995b45" fill-opacity="0.2" fill-rule="evenodd"/><path class="svg-region-SOTr" d="M 834 416 C 832.625 416.440, 829.591 416.845, 827.258 416.900 C 817.466 417.130, 770.595 435.195, 758.933 443.233 C 756.971 444.585, 754.216 445.980, 752.809 446.333 C 751.403 446.686, 749.183 447.910, 747.876 449.054 L 745.500 451.133 753.398 450.511 C 758.208 450.133, 762.703 449.139, 764.898 447.970 C 768.182 446.219, 772.176 444.472, 777.500 442.457 C 778.600 442.041, 781.750 441.379, 784.500 440.986 C 787.250 440.593, 793.444 439.085, 798.265 437.636 C 803.086 436.186, 807.894 435, 808.949 435 C 810.005 435, 813.485 433.930, 816.684 432.621 C 822.182 430.373, 845.196 423.951, 847.633 423.984 C 849.171 424.006, 850.039 418.942, 848.872 416.761 C 848.130 415.374, 846.714 415.021, 842.215 415.100 C 839.072 415.155, 835.375 415.560, 834 416" stroke="#995b45" fill="#995b45" fill-opacity="0.2" fill-rule="evenodd"/><path class="svg-region-OVl" d="M 1068.080 460.403 C 1067.204 461.459, 1065.131 462, 1061.959 462 C 1053.741 462, 1051.291 464.533, 1056.750 467.385 C 1058.263 468.175, 1060.778 470.166, 1062.340 471.809 C 1064.698 474.290, 1064.996 475.139, 1064.097 476.818 C 1063.502 477.930, 1061.438 479.360, 1059.510 479.997 C 1057.582 480.633, 1054.231 483.017, 1052.065 485.294 L 1048.126 489.434 1050.863 490.584 C 1052.368 491.217, 1054.844 493.214, 1056.366 495.023 L 1059.132 498.311 1079.566 497.702 C 1092.287 497.322, 1100 497.452, 1100 498.046 C 1100 498.571, 1101.463 499, 1103.250 499 C 1109.303 499, 1120.015 501.818, 1124.769 504.662 C 1129.307 507.376, 1134.690 510, 1135.718 510 C 1135.987 510, 1134.881 508.490, 1133.261 506.644 C 1130.793 503.833, 1130.204 502.106, 1129.638 496.014 C 1129.083 490.048, 1128.428 488.066, 1125.996 484.995 C 1123.334 481.634, 1122.459 481.203, 1117.461 480.788 C 1112.755 480.398, 1111.431 479.823, 1108.926 477.080 L 1105.960 473.833 1098.671 474.516 C 1091.199 475.216, 1085.497 474.280, 1082.420 471.848 C 1081.482 471.107, 1078.170 467.869, 1075.060 464.653 C 1070.044 459.467, 1069.256 458.987, 1068.080 460.403" stroke="#593939" fill="#593939" fill-opacity="0.2" fill-rule="evenodd"/><path class="svg-region-OVr" d="M 694.055 446.102 C 686.660 449.896, 679.958 453, 679.163 453 C 677.937 453, 672.713 455.025, 658 461.203 C 656.625 461.780, 651.905 462.533, 647.510 462.876 L 639.520 463.500 637.345 468 C 636.148 470.475, 634.897 474.300, 634.564 476.500 C 631.504 496.721, 632.155 494.949, 625.358 501.529 C 621.195 505.559, 617.450 508.162, 614.065 509.380 C 611.279 510.381, 609 511.606, 609 512.100 C 609 513.444, 611.479 513.192, 615.981 511.391 C 623.032 508.570, 632.857 509.794, 643.269 514.791 C 651.152 518.574, 652.792 519, 659.485 519 C 666.773 519, 672.587 517.309, 675.821 514.250 C 676.548 513.563, 677.561 513, 678.071 513 C 679.590 513, 679.125 510.262, 677.500 509.638 C 676.637 509.307, 676 507.813, 676 506.120 C 676 502.715, 680.606 498.229, 685.004 497.349 C 686.503 497.049, 690.037 495.058, 692.857 492.923 C 695.678 490.788, 699.114 488.759, 700.493 488.412 C 701.872 488.066, 703 487.434, 703 487.008 C 703 486.582, 704 485.972, 705.221 485.652 L 707.443 485.071 704.773 482.285 C 701.685 479.062, 700.487 473.310, 701.713 467.593 C 702.648 463.235, 702.269 463.527, 714 458.106 C 718.675 455.946, 723.378 453.516, 724.451 452.705 C 726.300 451.310, 726.088 451.072, 720.451 448.211 C 717.178 446.549, 713.178 443.796, 711.563 442.094 C 709.948 440.393, 708.373 439.046, 708.063 439.102 C 707.753 439.158, 701.450 442.308, 694.055 446.102" stroke="#593939" fill="#593939" fill-opacity="0.2" fill-rule="evenodd"/>
    </svg>