<svg xmlns="http://www.w3.org/2000/svg" width="1785" height="1131" viewBox="0 0 1785 1131" version="1.1">
    <path class="svg-region-AAB" d="M 862.500 488.462 C 860.202 489.257, 854.207 489.879, 848.409 489.923 C 842.561 489.968, 836.254 490.626, 833.409 491.489 C 830.709 492.308, 827.064 492.983, 825.309 492.989 C 823.554 492.995, 821.840 493.450, 821.500 494 C 821.124 494.609, 813.555 495, 802.136 495 L 783.390 495 778.177 500.500 C 775.310 503.525, 772.488 506, 771.907 506 C 771.192 506, 771.073 508.858, 771.541 514.836 L 772.232 523.672 767.456 529.086 C 761.279 536.087, 761.514 535.962, 754.500 536.015 C 749.522 536.053, 748.841 536.253, 750.500 537.186 C 751.600 537.805, 754.075 539.501, 756 540.955 C 757.925 542.409, 761.525 544.446, 764 545.480 C 766.475 546.515, 768.960 547.843, 769.523 548.431 C 770.940 549.912, 773.214 551.229, 782.892 556.179 C 789.473 559.544, 792.093 561.554, 795.026 565.485 C 797.084 568.243, 800.079 571.735, 801.682 573.243 C 805.945 577.257, 815.881 583, 818.562 583 C 819.838 583, 821.179 583.481, 821.542 584.068 C 821.905 584.656, 822.850 584.888, 823.641 584.584 C 824.432 584.281, 825.849 584.428, 826.790 584.911 C 828.266 585.669, 831.590 586.319, 845 588.471 C 846.375 588.692, 854.025 588.947, 862 589.039 C 869.975 589.130, 878.975 589.629, 882 590.147 C 892.216 591.895, 894.464 592.040, 911.577 592.061 C 921.048 592.073, 929.873 591.619, 931.392 591.041 C 932.898 590.469, 935.865 590, 937.984 590 C 944.918 590, 956.918 586.290, 967.306 580.936 C 971.734 578.653, 973.406 577.171, 978.650 570.881 C 983.064 565.586, 992.177 557.981, 997.125 555.463 C 998.981 554.519, 1000.611 553.655, 1000.746 553.543 C 1000.882 553.432, 999.532 550.677, 997.746 547.421 C 994.588 541.660, 994.500 541.172, 994.500 529.354 C 994.500 515.202, 994.246 515.683, 1005.598 508.299 C 1012.335 503.916, 1015.521 500.678, 1011.250 502.555 C 1010.288 502.978, 1001.850 503.653, 992.500 504.056 C 982.962 504.467, 972.245 505.526, 968.085 506.470 C 963.484 507.513, 958.172 507.988, 954.085 507.721 C 945.090 507.133, 924.225 501.352, 921 498.554 C 920.175 497.838, 917.700 496.685, 915.500 495.991 C 913.300 495.297, 909.854 493.902, 907.843 492.892 C 899.317 488.608, 895.621 487.861, 881 487.467 C 870.376 487.182, 865.431 487.447, 862.500 488.462" stroke="#7f3c1a" fill="#7f3c1a" fill-opacity="0.2" fill-rule="evenodd"/><path class="svg-region-APB" d="M 867 448.100 C 848.571 454.933, 831.327 457.058, 810 455.124 C 803.125 454.500, 794.575 453.978, 791 453.963 C 786.870 453.946, 783.792 453.401, 782.559 452.468 C 780.123 450.625, 777.978 450.622, 772.134 452.450 C 769.585 453.247, 763 455.287, 757.500 456.982 C 745.113 460.800, 743 461.850, 743 464.190 C 743 466.320, 741.846 466.846, 729.302 470.432 C 720.866 472.844, 716.269 475.070, 705.415 482 L 701.500 484.500 710 485.171 C 714.675 485.540, 721.200 486.360, 724.500 486.993 C 727.800 487.625, 736.575 488.533, 744 489.010 C 751.425 489.487, 760.650 490.379, 764.500 490.991 C 782.526 493.859, 786.614 494.249, 802.904 494.656 C 814.256 494.940, 820.672 494.728, 821.354 494.046 C 821.929 493.471, 823.775 493, 825.457 493 C 827.138 493, 830.085 492.506, 832.007 491.902 C 833.928 491.299, 841.590 490.466, 849.034 490.053 C 856.661 489.630, 863.613 488.742, 864.964 488.019 C 866.740 487.069, 871.005 486.878, 881.430 487.284 C 895.636 487.837, 902.313 489.354, 908.564 493.450 C 909.865 494.303, 911.575 495, 912.363 495 C 913.152 495, 916.407 496.373, 919.598 498.051 C 922.788 499.730, 929.696 502.247, 934.949 503.645 C 940.202 505.043, 945.458 506.642, 946.629 507.197 C 949.145 508.392, 964.273 507.668, 971.500 506.007 C 974.250 505.375, 983.925 504.534, 993 504.138 C 1009.858 503.402, 1011.304 503.079, 1020 498.118 C 1029.596 492.642, 1038.331 490.588, 1049.318 491.225 L 1057.442 491.695 1053.471 489.955 C 1051.287 488.998, 1047.250 487.529, 1044.500 486.691 C 1037.770 484.640, 1029.482 481.031, 1023.931 477.735 C 1021.418 476.243, 1017.887 474.508, 1016.083 473.879 C 1010.368 471.887, 1001.779 466.166, 999.924 463.116 C 998.323 460.483, 997.426 460.098, 991.395 459.452 C 982.722 458.523, 978.953 458.530, 965.215 459.504 C 959.009 459.944, 953.695 460.685, 953.406 461.152 C 952.649 462.377, 936.287 462.196, 932.071 460.916 C 930.107 460.319, 927.150 459.375, 925.500 458.817 C 923.850 458.258, 920.371 457.377, 917.768 456.859 C 915.165 456.340, 910.374 454.595, 907.120 452.981 C 901.008 449.948, 887.614 446.907, 878 446.368 C 874.282 446.160, 870.718 446.721, 867 448.100" stroke="#ac7444" fill="#ac7444" fill-opacity="0.2" fill-rule="evenodd"/><path class="svg-region-PC" d="M 826.500 429.472 C 825.950 429.650, 820.775 430.330, 815 430.983 C 800.378 432.634, 797.065 434.009, 790.668 441.077 C 787.720 444.335, 784.973 447, 784.562 447 C 784.151 447, 782.773 447.820, 781.499 448.822 L 779.183 450.644 782.342 452.238 C 788.343 455.267, 839.811 456.620, 848.780 453.984 C 850.826 453.383, 854.949 452.224, 857.943 451.408 C 860.936 450.592, 863.861 449.562, 864.443 449.118 C 866.659 447.425, 875.016 445.805, 879.169 446.263 C 889.334 447.384, 901.665 450.304, 906.402 452.713 C 910.862 454.980, 920.174 457.958, 928 459.620 C 929.375 459.912, 931.432 460.600, 932.570 461.148 C 935.665 462.639, 975.236 460.086, 978.651 458.176 C 979.924 457.463, 979.493 456.866, 976.359 455.001 C 974.237 453.738, 968.900 449.258, 964.500 445.045 C 956.240 437.137, 953.912 435.916, 943.566 434.063 C 936.287 432.759, 908.626 432.653, 906.236 433.921 C 905.281 434.427, 900.605 435.393, 895.843 436.067 C 888.245 437.143, 886.412 437.083, 880.843 435.572 C 863.212 430.788, 860.045 430.285, 844 429.724 C 834.925 429.406, 827.050 429.293, 826.500 429.472" stroke="#cda789" fill="#cda789" fill-opacity="0.2" fill-rule="evenodd"/><path class="svg-region-DB" d="M 729 428.126 C 724.875 428.583, 714.525 429.408, 706 429.959 C 677.975 431.769, 675.609 432.034, 664 434.655 C 657.675 436.083, 649.683 438.320, 646.239 439.626 C 638.201 442.674, 633.953 442.673, 630.327 439.621 L 627.500 437.241 627.419 442.871 C 627.343 448.176, 626.900 451.124, 624.039 465.348 C 623.392 468.564, 623.089 471.423, 623.366 471.700 C 624.099 472.432, 634.221 468.986, 636.079 467.372 C 636.947 466.617, 637.937 466, 638.279 466 C 638.620 466, 640.900 464.650, 643.345 463 C 645.790 461.350, 648.175 459.998, 648.645 459.995 C 650.616 459.984, 655.363 455.122, 656.391 452.062 C 657.251 449.500, 658.800 448.086, 663.299 445.751 C 668.236 443.189, 670.762 442.617, 680.299 441.902 C 686.459 441.440, 694.200 440.427, 697.500 439.651 C 700.800 438.875, 707.943 437.267, 713.374 436.077 C 718.805 434.887, 724.975 433.033, 727.084 431.957 C 729.194 430.881, 731.752 430, 732.769 430 C 733.786 430, 735.491 429.339, 736.559 428.532 C 737.626 427.724, 738.050 427.115, 737.500 427.178 C 736.950 427.242, 733.125 427.668, 729 428.126 M 792 434.682 C 786.433 435.093, 779 437, 779 438.016 C 779 439.392, 772.622 440.272, 764 440.085 C 759.325 439.984, 749.200 439.845, 741.500 439.776 L 727.500 439.651 715.737 445.442 C 709.267 448.627, 703.728 451.631, 703.428 452.117 C 703.128 452.602, 701.854 453, 700.598 453 C 699.341 453, 695.697 453.900, 692.500 455 C 689.303 456.100, 685.229 457, 683.447 457 C 680.993 457, 679.458 457.854, 677.118 460.518 C 673.185 464.997, 672.851 466.484, 673.207 477.894 C 673.442 485.441, 673.835 487.499, 675.202 488.359 C 676.584 489.228, 677.606 488.727, 680.633 485.701 C 682.700 483.633, 686.174 481.456, 688.431 480.814 C 690.669 480.178, 694.525 478.252, 697 476.535 C 710.457 467.199, 738.452 457.640, 742.499 460.999 C 743.374 461.725, 744.482 461.792, 745.672 461.189 C 748.452 459.781, 756.750 456.976, 764 454.993 C 775.100 451.958, 780.880 449.850, 782.085 448.397 C 782.723 447.629, 783.644 447, 784.131 447 C 784.618 447, 787.885 444.075, 791.390 440.500 C 794.895 436.925, 797.479 434.079, 797.132 434.175 C 796.784 434.271, 794.475 434.499, 792 434.682 M 1119.247 436.946 C 1118.008 437.979, 1115.083 439.122, 1112.747 439.485 C 1110.411 439.849, 1106.963 440.844, 1105.085 441.698 C 1102.330 442.950, 1099.621 443.117, 1091.085 442.557 C 1085.263 442.176, 1078.700 441.470, 1076.500 440.989 C 1074.300 440.508, 1068.900 439.622, 1064.500 439.019 C 1060.100 438.416, 1054.974 437.655, 1053.108 437.327 C 1050.714 436.907, 1049.922 437.065, 1050.417 437.866 C 1050.803 438.490, 1052.329 439.002, 1053.809 439.005 C 1056.200 439.009, 1062.143 443.307, 1063.153 445.763 C 1063.344 446.226, 1066.286 448.286, 1069.692 450.340 C 1073.450 452.606, 1077.298 456.001, 1079.481 458.974 L 1083.077 463.872 1107.208 463.677 C 1125.316 463.530, 1131.442 463.173, 1131.751 462.246 C 1131.977 461.568, 1130.982 460.564, 1129.540 460.015 C 1128.098 459.467, 1126.148 457.613, 1125.209 455.895 C 1124.269 454.177, 1122.487 451.228, 1121.250 449.341 C 1119.001 445.913, 1118.142 439, 1119.965 439 C 1120.495 439, 1121.411 438.100, 1122 437 C 1123.334 434.507, 1122.197 434.485, 1119.247 436.946 M 957 437.458 C 957 438.725, 973.934 453.862, 977.859 456.104 C 982.180 458.572, 984.168 458.985, 994.631 459.587 L 1006.500 460.271 1023.008 468.385 C 1041.506 477.478, 1041.498 477.475, 1055.910 482.419 C 1061.635 484.382, 1068.722 487.346, 1071.660 489.003 C 1074.597 490.661, 1077 491.789, 1077 491.511 C 1077 491.232, 1075.425 488.812, 1073.500 486.133 C 1071.575 483.453, 1070 480.383, 1070 479.309 C 1070 476.771, 1067.072 468.114, 1065.267 465.317 C 1064.492 464.117, 1063.103 463.187, 1062.179 463.250 C 1061.256 463.313, 1057.498 462.157, 1053.829 460.682 C 1050.161 459.207, 1046.211 458, 1045.053 458 C 1043.172 458, 1032.829 455.655, 1022.884 452.975 C 1020.895 452.439, 1017.141 452, 1014.542 452 C 1011.398 452, 1008.999 451.358, 1007.378 450.083 C 1006.038 449.029, 1003.154 447.864, 1000.971 447.495 C 998.787 447.126, 997 446.414, 997 445.912 C 997 445.410, 994.608 445, 991.684 445 C 986.384 445, 975.848 443.469, 973 442.285 C 972.175 441.942, 969.700 441.113, 967.500 440.442 C 965.300 439.771, 962.038 438.753, 960.250 438.181 C 958.462 437.608, 957 437.283, 957 437.458" stroke="#e8b1e4" fill="#e8b1e4" fill-opacity="0.2" fill-rule="evenodd"/><path class="svg-region-MB" d="M 756.500 310.060 C 748.511 311.678, 744.395 312.723, 739 314.502 C 735.975 315.499, 732.938 316.455, 732.250 316.626 C 731.516 316.809, 731 318.553, 731 320.854 C 731 323.008, 730.359 326.960, 729.575 329.635 C 728.790 332.311, 727.360 337.650, 726.396 341.500 C 722.515 357, 703.478 389.315, 690.165 403 C 688.293 404.925, 685.746 408.089, 684.506 410.030 C 680.836 415.779, 667.179 427.263, 657.250 432.950 C 652.163 435.864, 648 438.376, 648 438.531 C 648 438.686, 649.462 438.425, 651.250 437.951 C 672.657 432.272, 674.494 432.003, 705.500 430.007 C 734.258 428.156, 738.268 427.601, 741.812 424.981 C 744.536 422.967, 746.662 422.502, 755.763 421.928 C 761.668 421.556, 771 420.750, 776.500 420.137 C 808.684 416.551, 863.462 413.822, 871.800 415.390 C 877.842 416.526, 883.837 416.538, 912.207 415.470 L 929.913 414.804 939.707 417.820 C 949.197 420.742, 950.972 421.199, 959.500 422.910 C 961.700 423.352, 965.975 424.724, 969 425.961 C 974.120 428.053, 975.434 428.161, 988 427.531 C 995.425 427.158, 1003.431 426.430, 1005.791 425.913 C 1008.544 425.310, 1010.740 425.326, 1011.920 425.957 C 1012.931 426.498, 1017.525 427.801, 1022.129 428.852 C 1033.785 431.513, 1046.257 434.983, 1047.477 435.905 C 1048.039 436.330, 1051.650 437.190, 1055.500 437.816 C 1086.584 442.869, 1100.127 444.018, 1104.970 442.012 C 1108.611 440.504, 1108.823 439.423, 1105.635 438.623 C 1102.066 437.727, 1090.850 425.245, 1087.058 417.948 C 1085.215 414.402, 1081.917 408.575, 1079.729 405 C 1073.039 394.069, 1071.886 391.879, 1066.929 380.703 C 1064.066 374.250, 1061.463 366.404, 1060.459 361.203 C 1059.355 355.485, 1057.238 349.358, 1054.286 343.338 C 1049.837 334.262, 1049.798 334.091, 1050.147 325.288 L 1050.500 316.401 1039.108 316.553 C 1031.033 316.661, 1026.892 316.294, 1024.883 315.292 C 1021.174 313.441, 1001.887 314.057, 993.500 316.294 C 990.200 317.174, 985.598 318.116, 983.274 318.388 C 980.950 318.660, 976.450 319.549, 973.274 320.363 C 970.098 321.177, 964.800 322.351, 961.500 322.971 C 949.714 325.188, 946.847 327.062, 929.784 343.708 C 924.990 348.385, 920.797 353.063, 920.467 354.105 C 920.136 355.147, 919.460 356, 918.965 356 C 918.469 356, 917.487 357.081, 916.782 358.402 C 916.077 359.723, 911.349 365.269, 906.275 370.725 C 897.909 379.721, 896.574 380.755, 891.948 381.823 C 889.143 382.470, 884.898 383, 882.515 383 C 877.622 383, 877.434 382.841, 855.916 360.500 C 848.308 352.601, 843.441 346.620, 841.673 343 C 838.774 337.060, 830.126 329.446, 819.974 323.895 C 817.102 322.324, 814.187 320.571, 813.497 319.998 C 811.381 318.242, 793.440 312.172, 785.545 310.541 C 777.716 308.924, 763.291 308.685, 756.500 310.060" stroke="#f9c6c6" fill="#f9c6c6" fill-opacity="0.2" fill-rule="evenodd"/><path class="svg-region-LBl" d="M 1060.016 310.024 C 1058.025 310.492, 1055.132 312.371, 1053.266 314.407 C 1050.108 317.852, 1050 318.255, 1050 326.556 C 1050 334.086, 1050.360 335.840, 1052.926 340.821 C 1058.026 350.723, 1058.952 353.302, 1060.517 361.982 C 1061.358 366.647, 1062.908 372.272, 1063.962 374.482 C 1065.016 376.692, 1067.404 381.875, 1069.269 386 C 1071.133 390.125, 1075.098 397.563, 1078.079 402.529 C 1081.061 407.494, 1084.850 414.208, 1086.500 417.449 C 1090.539 425.379, 1102.117 437.655, 1106.914 439.092 C 1111.643 440.509, 1118.180 438.858, 1120.743 435.600 C 1121.760 434.307, 1124.147 432.919, 1126.046 432.516 C 1129.663 431.749, 1133.442 428.876, 1135.251 425.518 C 1141.161 414.545, 1141.608 382.250, 1136.052 367.637 C 1133.846 361.834, 1121.422 343.742, 1116.659 339.397 C 1113.822 336.808, 1107.376 330.674, 1102.336 325.765 C 1097.296 320.856, 1091.506 315.947, 1089.471 314.857 C 1080.123 309.846, 1068.724 307.976, 1060.016 310.024" stroke="#79495c" fill="#79495c" fill-opacity="0.2" fill-rule="evenodd"/><path class="svg-region-LBr" d="M 691 302.939 C 683.445 303.867, 681.904 304.426, 676.500 308.198 C 667.188 314.698, 659.046 323.480, 653.503 333 C 646.632 344.802, 636.521 364.548, 634.439 370.232 C 632.023 376.827, 628.344 392.590, 627.024 402 C 626.369 406.675, 625.363 412.300, 624.789 414.500 C 622.352 423.838, 622.618 428.353, 625.950 434.258 C 629.518 440.580, 632.940 442.540, 638.992 441.728 C 643.501 441.123, 664.558 429.457, 670.113 424.486 C 672.100 422.708, 674.350 420.858, 675.113 420.376 C 676.635 419.414, 683.067 412.203, 687 407.047 C 688.375 405.245, 690.472 402.810, 691.661 401.635 C 698.201 395.173, 711.131 375.751, 717.899 362.224 C 724.400 349.232, 726.441 343.994, 727.534 337.500 C 727.905 335.300, 728.836 331.572, 729.604 329.215 C 732.746 319.573, 730.502 307.668, 724.883 304.159 C 722.444 302.636, 700.040 301.830, 691 302.939" stroke="#79495c" fill="#79495c" fill-opacity="0.2" fill-rule="evenodd"/><path class="svg-region-Fl" d="M 978.500 181.635 C 963.955 183.027, 953.335 186.909, 947.547 192.951 C 943.156 197.534, 940.852 214.918, 943.288 225.089 C 944.132 228.615, 945.112 238.070, 945.464 246.101 C 945.817 254.131, 946.757 262.865, 947.553 265.510 C 948.349 268.154, 949 272.265, 949 274.645 C 949 282.581, 951.134 288.058, 956.310 293.409 L 961.120 298.381 965.310 297.137 C 972.242 295.079, 987.648 291.468, 996 289.944 C 1006.593 288.012, 1005.988 288.226, 1020.311 281.334 C 1022.406 280.325, 1026.103 277.925, 1028.525 276 C 1030.947 274.075, 1035.909 270.250, 1039.551 267.500 C 1046.204 262.477, 1052.817 254.345, 1057.012 246.028 C 1060.592 238.930, 1061.066 236.153, 1059.911 229.049 C 1057.932 216.868, 1055.926 212.263, 1049.160 204.365 C 1043.581 197.852, 1041.667 196.396, 1033.402 192.375 C 1028.227 189.858, 1023.743 187.394, 1023.438 186.899 C 1023.132 186.405, 1021.446 185.987, 1019.691 185.971 C 1017.936 185.955, 1013.350 184.999, 1009.500 183.847 C 1002.640 181.794, 987.862 180.739, 978.500 181.635" stroke="#5ca7a9" fill="#5ca7a9" fill-opacity="0.2" fill-rule="evenodd"/><path class="svg-region-Fr" d="M 776 169.975 C 774.625 170.429, 771.700 170.850, 769.500 170.911 C 762.181 171.113, 752.901 175.039, 742 182.544 C 737.689 185.512, 738.076 185.099, 732.086 193.121 C 726.165 201.051, 723.001 206.747, 722.997 209.485 C 722.995 210.593, 721.420 214.624, 719.497 218.443 C 716.349 224.693, 716.004 226.189, 716.035 233.443 C 716.079 243.600, 717.732 251.102, 722.434 262.500 C 725.718 270.460, 726.969 272.268, 733.257 278.145 C 739.413 283.900, 741.009 284.876, 745.166 285.428 C 747.806 285.778, 752.957 285.544, 756.612 284.907 C 765.157 283.419, 775.351 284.167, 782.139 286.781 C 789.869 289.757, 800.092 293.134, 803.052 293.690 C 806.278 294.295, 817.120 288.139, 818.667 284.825 C 821.358 279.056, 822 276.583, 822 271.990 C 822 269.287, 822.849 264.696, 823.887 261.788 C 826.414 254.705, 827.727 249.075, 829.077 239.526 C 829.697 235.140, 831.252 228.615, 832.532 225.026 C 834.445 219.661, 835.046 215.059, 835.912 199.166 C 837.146 176.487, 836.853 175.232, 829.853 173.289 C 819.071 170.298, 781.943 168.012, 776 169.975" stroke="#5ca7a9" fill="#5ca7a9" fill-opacity="0.2" fill-rule="evenodd"/><path class="svg-region-Ol" d="M 1298 300.031 C 1284.871 300.745, 1278.217 302.472, 1269.227 307.497 C 1266.764 308.874, 1264.319 310, 1263.796 310 C 1263.272 310, 1261.007 311.800, 1258.762 314 C 1256.518 316.200, 1254.064 318, 1253.309 318 C 1252.555 318, 1251.646 318.760, 1251.289 319.689 C 1250.933 320.618, 1248.697 323.240, 1246.321 325.517 C 1243.944 327.794, 1242 330.007, 1242 330.435 C 1242 330.862, 1240.716 332.852, 1239.146 334.856 C 1235.203 339.890, 1231.476 346.827, 1227.321 356.864 C 1224.272 364.231, 1223.882 366.071, 1224.445 370.443 C 1225.613 379.498, 1226.966 382.784, 1232.014 388.825 C 1235.857 393.425, 1237.334 396.215, 1238.531 401.136 C 1239.383 404.636, 1241.009 410.509, 1242.145 414.187 C 1243.803 419.556, 1244.104 422.513, 1243.672 429.187 C 1242.682 444.471, 1241.775 448.013, 1234.249 466 C 1228.199 480.458, 1224.715 485.391, 1208 503.161 C 1199.689 511.997, 1192.332 517.785, 1186.685 519.930 C 1185.137 520.519, 1179.737 520.998, 1174.685 520.996 C 1163.884 520.992, 1161.467 519.759, 1146.585 506.668 C 1140.259 501.102, 1138.581 501.115, 1135.347 506.749 C 1132.720 511.327, 1128.343 513.650, 1120.736 514.502 C 1115.527 515.085, 1114.733 515.500, 1112.486 518.806 C 1111.119 520.818, 1110 523.035, 1110 523.732 C 1110 525.299, 1102.331 525.456, 1098.421 523.970 C 1096.931 523.404, 1093.981 521.569, 1091.866 519.894 C 1088.579 517.291, 1086.909 516.763, 1080.395 516.271 C 1073.345 515.737, 1072.351 515.912, 1067.183 518.597 C 1064.110 520.194, 1061.124 521.839, 1060.548 522.252 C 1058.679 523.594, 1049.642 529.888, 1043.911 533.839 C 1040.837 535.958, 1036.936 538.175, 1035.241 538.766 C 1033.546 539.357, 1029.536 542.464, 1026.329 545.670 C 1019.854 552.145, 1010.143 559.864, 1005.414 562.295 C 1000.986 564.571, 988.365 577.364, 986.029 581.942 C 984.939 584.080, 983.579 588.004, 983.006 590.664 C 982.434 593.324, 981.585 596.400, 981.121 597.500 C 979.712 600.840, 978.212 606.203, 977.033 612.117 C 974.029 627.188, 981.527 642.163, 1014.189 686.330 C 1016.560 689.536, 1019.790 694.261, 1021.367 696.830 C 1022.944 699.398, 1025.596 703.052, 1027.261 704.949 C 1028.926 706.846, 1031.143 710.221, 1032.188 712.449 C 1035.446 719.397, 1048.029 737.884, 1063.760 758.835 C 1079.939 780.382, 1087.946 790.028, 1097.961 800.032 C 1106.566 808.629, 1115.938 816, 1118.263 816 C 1119.133 816, 1121.342 817.740, 1123.172 819.866 C 1131.705 829.778, 1157.951 841.650, 1180.190 845.657 C 1194.469 848.230, 1213.952 847.791, 1226.020 844.624 C 1246.100 839.355, 1262.801 829.871, 1280 813.971 C 1291.140 803.672, 1297.035 797.571, 1299.500 793.790 C 1300.050 792.947, 1302.525 789.451, 1305 786.023 C 1311.707 776.732, 1316.704 768.384, 1320.578 760 C 1322.483 755.875, 1324.512 751.672, 1325.085 750.661 C 1326.908 747.446, 1333.993 725.400, 1336.949 713.743 C 1342.077 693.521, 1349.212 670.500, 1354.225 658 C 1357.150 650.705, 1365.585 633.511, 1367.225 631.500 C 1368.591 629.826, 1376 617.965, 1376 617.454 C 1376 617.191, 1377.968 613.944, 1380.374 610.238 C 1390.457 594.704, 1411.204 560.557, 1413.327 556 C 1413.712 555.175, 1415.366 552.250, 1417.004 549.500 C 1419.714 544.951, 1424.356 535.736, 1432.117 519.500 C 1436.405 510.529, 1443.885 482.988, 1445.153 471.500 C 1446.746 457.068, 1445.748 435.091, 1443.151 427.418 C 1442.019 424.073, 1440.598 418.241, 1439.993 414.457 C 1439.389 410.673, 1438.470 407.066, 1437.951 406.441 C 1437.433 405.817, 1435.940 401.974, 1434.633 397.903 C 1433.326 393.831, 1431.572 389.150, 1430.735 387.500 C 1429.897 385.850, 1428.255 382.330, 1427.084 379.678 C 1425.045 375.057, 1419.005 366.272, 1414.250 361.010 C 1413.013 359.641, 1412 358.018, 1412 357.403 C 1412 355.787, 1397.630 341.423, 1393.231 338.643 C 1391.179 337.345, 1387.024 333.846, 1383.998 330.865 C 1378.775 325.721, 1371.355 320.708, 1362.500 316.343 C 1360.300 315.258, 1355.517 312.701, 1351.871 310.660 C 1344.277 306.409, 1338.773 304.705, 1323.983 302.023 C 1318.198 300.974, 1312.798 299.944, 1311.983 299.734 C 1311.167 299.524, 1304.875 299.658, 1298 300.031" stroke="#aa444d" fill="#aa444d" fill-opacity="0.2" fill-rule="evenodd"/><path class="svg-region-Or" d="M 494.917 309.407 C 494.688 309.631, 488.875 309.949, 482 310.114 C 474.641 310.290, 466.416 311.136, 462 312.172 C 457.875 313.140, 452.842 313.947, 450.815 313.966 C 448.788 313.985, 445.863 314.484, 444.315 315.075 C 442.767 315.667, 439.118 316.593, 436.207 317.134 C 425.463 319.130, 403.148 327.318, 388.500 334.639 C 380.250 338.763, 372.600 342.938, 371.500 343.917 C 370.400 344.897, 364.775 348.775, 359 352.536 C 353.225 356.297, 346.475 361.448, 344 363.983 C 328.205 380.157, 320.171 390.098, 316.878 397.542 C 315.814 399.948, 314.563 402.152, 314.098 402.439 C 313.185 403.004, 309.521 410.484, 306.232 418.500 C 305.103 421.250, 303.866 425.750, 303.482 428.500 C 303.097 431.250, 302.146 434.514, 301.366 435.754 C 300.226 437.567, 300.040 441.766, 300.412 457.254 C 300.667 467.839, 301.318 478.075, 301.858 480 C 302.398 481.925, 303.981 488, 305.375 493.500 C 309.662 510.412, 320.470 540.876, 334.295 575.016 C 337.298 582.432, 340.097 589.625, 340.514 591 C 343.727 601.584, 364.317 645.809, 368.255 650.585 C 370.496 653.303, 376.282 665.986, 379.734 675.750 C 380.561 678.087, 381.634 680, 382.119 680 C 382.603 680, 383 680.745, 383 681.656 C 383 683.663, 385.915 687.546, 393.394 695.500 C 400.485 703.043, 409 715.204, 409 717.791 C 409 718.871, 409.675 720.315, 410.500 721 C 411.325 721.685, 412 723.063, 412 724.063 C 412 725.064, 412.450 726.160, 413 726.500 C 413.550 726.840, 414 727.936, 414 728.937 C 414 729.937, 414.675 731.315, 415.500 732 C 416.325 732.685, 417 734.090, 417 735.122 C 417 736.155, 417.450 737, 418 737 C 418.550 737, 419.004 737.788, 419.010 738.750 C 419.015 739.712, 421.981 743.587, 425.601 747.360 C 430.423 752.385, 432.993 756.129, 435.213 761.360 C 439.335 771.071, 442.609 775.907, 455.263 790.973 C 472.961 812.043, 488.641 828.074, 497.122 833.768 C 508.811 841.615, 511.094 843, 512.343 843 C 513.535 843, 517.272 844.324, 526.500 848.015 C 533.428 850.786, 538.633 851.205, 559.189 850.649 C 584.104 849.976, 592.079 849.062, 598.101 846.194 C 600.520 845.041, 605.875 842.700, 610 840.990 C 626.697 834.071, 634.863 828.577, 652.144 812.631 C 655.798 809.259, 659.848 805.585, 661.144 804.468 C 668.570 798.062, 690 773.618, 690 771.553 C 690 771.249, 690.788 770.159, 691.750 769.130 C 695.790 764.814, 698.729 761.303, 700.890 758.213 C 702.155 756.405, 705.171 752.915, 707.594 750.457 C 710.017 747.999, 712 745.146, 712 744.117 C 712 743.087, 712.742 741.629, 713.648 740.877 C 714.555 740.124, 717.835 735.650, 720.937 730.934 C 724.038 726.218, 727.122 722.541, 727.788 722.763 C 728.455 722.985, 729 722.440, 729 721.552 C 729 720.664, 731.025 716.919, 733.500 713.229 C 735.975 709.540, 738 705.761, 738 704.832 C 738 703.903, 738.568 702.548, 739.263 701.821 C 741.250 699.742, 744 695.181, 744 693.964 C 744 693.355, 744.675 692.182, 745.500 691.357 C 746.325 690.532, 747.010 688.877, 747.022 687.679 C 747.034 686.480, 747.924 684.375, 749 683 C 750.076 681.625, 750.966 679.739, 750.978 678.809 C 750.990 677.879, 751.487 676.817, 752.083 676.449 C 752.678 676.081, 754.023 673.917, 755.070 671.640 C 756.118 669.363, 757.404 666.825, 757.928 666 C 758.452 665.175, 759.123 663.375, 759.419 662 C 759.715 660.625, 761.747 657.155, 763.934 654.288 C 766.122 651.422, 768.862 646.697, 770.023 643.788 C 771.184 640.880, 772.738 637.375, 773.477 636 C 780.381 623.149, 781.150 620.686, 781.609 609.974 C 781.981 601.285, 781.706 598.339, 780.030 593.094 C 778.913 589.599, 778 586.198, 778 585.537 C 778 582.461, 769.212 568.554, 764.533 564.224 C 756.722 556.998, 753.502 554.343, 749.328 551.691 C 747.223 550.354, 744.643 548.301, 743.595 547.130 C 742.547 545.958, 741.299 545, 740.821 545 C 739.327 545, 727 536.871, 727 535.886 C 727 535.371, 725.987 534.512, 724.750 533.977 C 722.288 532.911, 713.535 527.017, 710.750 524.550 C 709.788 523.698, 708.311 523, 707.469 523 C 706.626 523, 705.715 522.420, 705.443 521.711 C 705.170 521.002, 704.147 520.361, 703.167 520.288 C 702.188 520.214, 698.712 519.167, 695.443 517.962 C 681.738 512.910, 673.868 511.845, 666.899 514.100 C 662.228 515.612, 654.607 519.075, 654 519.962 C 653.321 520.954, 640.267 530, 639.515 530 C 638.861 530, 637.874 530.777, 633.009 535.123 C 631.238 536.705, 629.386 538, 628.894 538 C 628.402 538, 628 538.645, 628 539.433 C 628 540.221, 627.029 541.174, 625.841 541.550 C 624.654 541.927, 621.261 544.208, 618.302 546.618 C 615.343 549.028, 612.375 551, 611.705 551 C 611.036 551, 609.896 549.663, 609.173 548.029 C 608.450 546.395, 606.315 543.515, 604.429 541.629 C 601.230 538.430, 601 537.766, 601 531.725 C 601 518.993, 599.693 517.098, 590.443 516.416 C 586.027 516.090, 567.231 512.410, 564.363 511.309 C 563.386 510.934, 561.480 509.699, 560.128 508.564 C 552.753 502.374, 551 500.709, 551 499.896 C 551 499.403, 550.212 498.168, 549.250 497.150 C 544.705 492.346, 542 487.766, 542 484.874 C 542 482.354, 537.552 474.823, 533.340 470.211 C 525.685 461.830, 519.195 447.605, 517.215 434.868 C 515.715 425.218, 519.279 415.815, 529.104 403.500 C 531.298 400.750, 533.724 397.038, 534.496 395.250 C 535.267 393.462, 536.318 392, 536.832 392 C 538.016 392, 538.935 388.367, 539.994 379.500 C 540.454 375.650, 541.362 369.575, 542.012 366 C 542.762 361.876, 542.929 356.393, 542.471 351 C 542.073 346.325, 541.673 341.150, 541.582 339.500 C 541.194 332.454, 530.759 321.509, 519 315.814 C 510.890 311.887, 496.340 308.016, 494.917 309.407" stroke="#aa444d" fill="#aa444d" fill-opacity="0.2" fill-rule="evenodd"/><path class="svg-region-Pl" d="M 1216.500 418.672 C 1211.869 419.691, 1208.821 421.442, 1206.843 424.221 C 1205.685 425.847, 1202.946 428.476, 1200.756 430.062 C 1198.566 431.648, 1193.179 436.221, 1188.786 440.223 C 1184.392 444.225, 1178.939 448.762, 1176.667 450.304 C 1174.396 451.846, 1171.819 453.759, 1170.940 454.554 C 1169.939 455.461, 1167.209 456, 1163.623 456 C 1158.165 456, 1155.993 456.721, 1147.500 461.352 C 1145.638 462.367, 1142.138 462.990, 1138.270 462.994 L 1132.041 463 1130.020 466.960 C 1128.909 469.138, 1128.005 472.626, 1128.011 474.710 C 1128.034 482.768, 1133.101 494.465, 1138.898 499.841 C 1147.799 508.096, 1154.465 513.667, 1159.659 517.192 C 1165.174 520.935, 1165.431 521, 1174.667 521 C 1190.200 521, 1195.650 517.568, 1215.040 495.576 C 1216.943 493.419, 1219.650 490.494, 1221.055 489.076 C 1224.449 485.655, 1230.583 475.523, 1232.388 470.358 C 1233.184 468.080, 1235.181 463.355, 1236.826 459.858 C 1243.717 445.211, 1243.410 439.802, 1235.061 428.773 C 1228.027 419.482, 1223.648 417.099, 1216.500 418.672" stroke="#f9d3d3" fill="#f9d3d3" fill-opacity="0.2" fill-rule="evenodd"/><path class="svg-region-Pr" d="M 532.833 414.849 C 523.290 419.785, 520.967 423.016, 519.016 434.067 C 517.973 439.972, 518.069 441.269, 519.974 446.923 C 522.355 453.990, 522.971 455.048, 531.739 467.121 C 535.183 471.862, 538 476.194, 538 476.748 C 538 477.302, 538.646 478.291, 539.436 478.947 C 540.225 479.602, 541.159 481.570, 541.510 483.319 C 542.468 488.090, 544.547 492.123, 547.947 495.812 C 549.626 497.633, 551 499.498, 551 499.957 C 551 501.229, 561.184 510.056, 563.869 511.110 C 568.160 512.796, 591.287 517.044, 593.077 516.475 C 594.042 516.169, 595.121 516.387, 595.475 516.959 C 597.073 519.544, 599.907 517.713, 603.925 511.500 C 606.237 507.925, 608.550 505, 609.064 505 C 609.579 505, 610 504.363, 610 503.583 C 610 502.804, 610.383 502.017, 610.851 501.833 C 612.480 501.195, 617 493.024, 616.971 490.770 C 616.943 488.605, 615.788 487.481, 600.266 474.509 C 598.298 472.864, 595.460 468.923, 593.960 465.752 C 592.461 462.581, 590.676 459.314, 589.994 458.493 C 588.540 456.740, 583.584 456.552, 579.195 458.082 C 576.587 458.991, 575.771 458.865, 574.083 457.292 C 570.701 454.141, 569 448.574, 569 440.659 C 569 431.764, 566.486 425.206, 561.713 421.654 C 551.551 414.090, 539.699 411.297, 532.833 414.849" stroke="#f9d3d3" fill="#f9d3d3" fill-opacity="0.2" fill-rule="evenodd"/><path class="svg-region-DLl" d="M 1134.168 427.440 C 1131.236 429.948, 1128.272 432, 1127.582 432 C 1126.893 432, 1124.679 433.837, 1122.664 436.082 C 1118.341 440.897, 1117.973 444.346, 1121.250 449.341 C 1122.487 451.228, 1124.250 454.145, 1125.168 455.824 C 1128.928 462.705, 1142.018 465.361, 1149.018 460.663 C 1153.927 457.368, 1158.476 456, 1164.527 456 C 1167.954 456, 1170.184 455.483, 1171 454.500 C 1172.038 453.249, 1171.902 453, 1170.179 453 C 1169.043 453, 1167.444 452.044, 1166.626 450.876 C 1165.460 449.211, 1164.421 448.862, 1161.819 449.257 C 1157.996 449.837, 1155 448.598, 1155 446.437 C 1155 445.615, 1152.481 442.599, 1149.403 439.734 C 1143.453 434.196, 1140.812 430.251, 1140 425.690 L 1139.500 422.879 1134.168 427.440" stroke="#b7d6d3" fill="#b7d6d3" fill-opacity="0.2" fill-rule="evenodd"/><path class="svg-region-DLr" d="M 580.944 431.061 C 578.371 433.844, 574.744 436.882, 572.883 437.811 C 569.851 439.325, 569.469 439.986, 569.198 444.187 C 568.992 447.374, 569.529 450.117, 570.875 452.754 C 573.780 458.450, 575.305 459.438, 579.128 458.105 C 583.795 456.478, 588.471 456.750, 590.222 458.750 C 591.065 459.712, 592.372 462.295, 593.127 464.488 C 595.100 470.219, 614.444 488.534, 617.348 487.420 C 619.624 486.546, 622.997 479.009, 623.060 474.655 C 623.092 472.370, 623.540 468.250, 624.055 465.500 C 624.570 462.750, 625.449 458.025, 626.008 455 C 626.567 451.975, 627.295 448.040, 627.625 446.257 C 628.445 441.826, 627.351 436.711, 625.007 434.009 C 623.110 431.821, 622.948 431.804, 619.008 433.380 C 611.296 436.466, 606.460 435.306, 599.966 428.813 C 597.533 426.379, 596.376 426, 591.387 426 C 585.741 426, 585.523 426.106, 580.944 431.061" stroke="#b7d6d3" fill="#b7d6d3" fill-opacity="0.2" fill-rule="evenodd"/><path class="svg-region-OLl" d="M 1158 391.899 C 1152.951 392.926, 1151.599 393.915, 1147.605 399.500 C 1141.567 407.942, 1140.887 409.747, 1140.294 418.892 C 1139.769 426.989, 1139.908 427.892, 1142.233 431.555 C 1143.610 433.725, 1147.046 437.618, 1149.869 440.207 C 1152.691 442.796, 1155 445.785, 1155 446.850 C 1155 449.270, 1156.928 450.048, 1161.204 449.354 C 1163.750 448.941, 1164.964 449.303, 1166.417 450.908 C 1170.073 454.948, 1175.071 452.859, 1186.099 442.682 C 1192.296 436.962, 1192.423 436.740, 1193.511 429.682 C 1194.196 425.241, 1194.288 420.973, 1193.753 418.500 C 1192.841 414.291, 1187.595 405.701, 1182.631 400.291 C 1176.994 394.146, 1165.763 390.321, 1158 391.899" stroke="#c4875d" fill="#c4875d" fill-opacity="0.2" fill-rule="evenodd"/><path class="svg-region-OLr" d="M 585.064 384.938 C 582.810 387.104, 579.961 389.181, 578.733 389.554 C 577.505 389.927, 575.067 391.642, 573.315 393.366 C 571.564 395.090, 568.526 398.001, 566.565 399.835 C 562.848 403.311, 562.093 406.436, 564.074 410.138 C 564.854 411.595, 564.804 413.487, 563.892 417.043 C 562.801 421.300, 562.847 422.174, 564.241 423.721 C 565.123 424.699, 566.154 426.742, 566.533 428.259 C 566.912 429.777, 567.622 431.266, 568.111 431.568 C 568.600 431.871, 569 433.943, 569 436.174 L 569 440.230 571.465 438.615 C 572.820 437.727, 574.508 436.982, 575.215 436.960 C 575.922 436.938, 578.271 434.675, 580.436 431.932 C 582.601 429.189, 585.440 426.677, 586.746 426.349 C 591.255 425.217, 598.307 426.657, 600.474 429.152 C 605.324 434.737, 611.003 436.289, 617.851 433.902 C 620.777 432.882, 620.999 432.475, 620.989 428.152 C 620.983 425.593, 620.305 421.279, 619.481 418.565 C 618.397 414.991, 618.163 411.485, 618.632 405.856 C 619.237 398.608, 619.086 397.698, 616.390 392.363 C 612.133 383.938, 607.091 381, 596.886 381 C 589.257 381, 589.113 381.048, 585.064 384.938" stroke="#c4875d" fill="#c4875d" fill-opacity="0.2" fill-rule="evenodd"/><path class="svg-region-VOC" d="M 838 415.502 C 811.673 416.857, 793.818 418.204, 776.500 420.142 C 771 420.758, 761.550 421.560, 755.500 421.925 C 744.776 422.571, 744.379 422.681, 739.673 426.294 C 737.019 428.332, 734.026 430, 733.023 430 C 732.019 430, 728.791 431.121, 725.849 432.490 C 722.907 433.860, 719.493 434.985, 718.263 434.990 C 717.032 434.996, 711.857 436.068, 706.763 437.374 C 701.668 438.679, 695.736 440.064, 693.579 440.451 C 691.347 440.852, 688.534 442.306, 687.049 443.827 C 685.614 445.297, 683.328 447.481, 681.970 448.681 C 678.690 451.576, 677 453.696, 677 454.912 C 677 456.695, 684.214 457.361, 688.961 456.017 C 691.458 455.310, 695.300 454.257, 697.500 453.677 C 699.700 453.097, 707.350 449.713, 714.500 446.157 L 727.500 439.691 741 439.712 C 748.425 439.724, 758.253 440.068, 762.840 440.477 C 768.547 440.985, 771.531 440.869, 772.290 440.110 C 772.901 439.499, 774.660 439, 776.200 439 C 777.740 439, 779 438.601, 779 438.113 C 779 437.179, 781.875 436.461, 791.150 435.082 C 794.258 434.620, 797.233 433.974, 797.762 433.647 C 798.291 433.320, 802.498 432.593, 807.112 432.030 C 811.725 431.468, 818.906 430.553, 823.069 429.998 C 832.862 428.692, 861.426 430.238, 869 432.484 C 883.068 436.656, 888.683 437.466, 894.790 436.204 C 897.997 435.542, 901.804 435, 903.251 435 C 904.698 435, 906.160 434.550, 906.500 434 C 907.471 432.429, 936.349 432.765, 944.500 434.443 C 954.554 436.512, 967.861 440.145, 972.500 442.087 C 975.628 443.396, 985.882 445, 991.125 445 C 993.741 445, 996.129 445.399, 996.430 445.887 C 996.731 446.374, 998.655 447.088, 1000.705 447.473 C 1002.755 447.857, 1005.642 449.033, 1007.121 450.086 C 1008.866 451.329, 1011.483 452, 1014.583 452 C 1017.209 452, 1020.740 452.431, 1022.429 452.959 C 1026.940 454.367, 1038.709 457.037, 1044.864 458.050 C 1047.815 458.535, 1052.090 459.816, 1054.364 460.897 C 1059.769 463.464, 1060.917 463.585, 1064.500 461.961 C 1066.264 461.161, 1070.306 460.677, 1074.309 460.787 L 1081.118 460.974 1078.904 457.865 C 1076.859 454.993, 1065.781 447, 1063.845 447 C 1063.380 447, 1063 446.438, 1063 445.750 C 1063 443.799, 1056.379 439, 1053.688 439 C 1052.358 439, 1050.151 438.120, 1048.784 437.045 C 1046.268 435.066, 1037.375 432.332, 1022.129 428.852 C 1017.525 427.801, 1012.951 426.509, 1011.963 425.980 C 1010.845 425.382, 1008.347 425.362, 1005.334 425.928 C 1002.675 426.427, 994.875 427.133, 988 427.497 C 976.645 428.098, 974.950 427.957, 969.500 425.961 C 966.200 424.753, 961.700 423.393, 959.500 422.940 C 949.794 420.940, 946.013 419.958, 938.500 417.484 C 930.747 414.932, 929.959 414.868, 913 415.400 C 903.375 415.703, 892.575 416.232, 889 416.577 C 885.425 416.922, 880.250 416.728, 877.500 416.145 C 868.550 414.247, 863.864 414.171, 838 415.502" stroke="#ff8f93" fill="#ff8f93" fill-opacity="0.2" fill-rule="evenodd"/><path class="svg-region-OABl" d="M 1033.500 492.449 C 1024.335 495.171, 1018.089 498.424, 1010.058 504.658 C 1007.001 507.031, 1002.476 510.464, 1000.001 512.287 C 994.799 516.118, 994.288 517.685, 994.118 530.315 C 993.998 539.304, 996.040 546.799, 999.823 551.250 C 1002.111 553.943, 1007.265 553.428, 1012.345 550 C 1014.790 548.350, 1017.403 547, 1018.153 547 C 1020.152 547, 1028.912 542.256, 1033.351 538.769 C 1035.469 537.105, 1039.191 535.145, 1041.623 534.413 C 1044.054 533.681, 1048.171 531.333, 1050.772 529.195 C 1053.372 527.057, 1059.192 523.214, 1063.703 520.654 C 1070.622 516.729, 1072.736 516.001, 1077.203 516.006 C 1084.099 516.013, 1088.898 517.405, 1092.011 520.301 C 1095.198 523.267, 1100.158 525.003, 1105.399 524.989 C 1109.206 524.978, 1109.640 524.685, 1111.452 520.904 C 1112.526 518.663, 1114.326 516.163, 1115.452 515.348 C 1117.449 513.902, 1117.378 513.756, 1112.561 509.462 C 1109.845 507.041, 1105.795 504.405, 1103.561 503.606 C 1101.327 502.806, 1094.657 500.145, 1088.737 497.692 C 1082.817 495.240, 1077.728 493.631, 1077.428 494.116 C 1076.594 495.467, 1072.418 495.164, 1062 493 C 1051.569 490.833, 1039.714 490.604, 1033.500 492.449" stroke="#81244d" fill="#81244d" fill-opacity="0.2" fill-rule="evenodd"/><path class="svg-region-OABr" d="M 698.827 485.497 C 697.547 486.049, 694.337 487.796, 691.693 489.379 C 688.498 491.292, 685.394 492.298, 682.438 492.379 C 678.696 492.481, 677.325 493.135, 673.802 496.500 C 668.719 501.356, 666.187 502.918, 663.323 502.965 C 661.016 503.002, 659.370 505.554, 655.990 514.332 C 654.290 518.748, 654.275 519.105, 655.815 518.480 C 668.822 513.201, 670.546 512.790, 677.500 513.308 C 681.350 513.595, 686.525 514.476, 689 515.265 C 696.815 517.758, 713.322 522.793, 718 524.111 C 720.475 524.808, 725.425 526.834, 729 528.613 C 740.556 534.365, 745.992 536, 753.500 535.984 C 757.350 535.976, 760.990 535.639, 761.590 535.235 C 762.189 534.831, 764.829 532.064, 767.456 529.086 L 772.232 523.672 771.541 514.836 C 771.093 509.114, 771.205 506, 771.857 506 C 772.777 506, 785 494.469, 785 493.601 C 785 493.395, 781.962 492.964, 778.250 492.645 C 774.538 492.325, 768.800 491.614, 765.500 491.065 C 762.200 490.515, 752.750 489.606, 744.500 489.045 C 736.250 488.483, 727.250 487.528, 724.500 486.922 C 716.702 485.204, 701.466 484.359, 698.827 485.497" stroke="#81244d" fill="#81244d" fill-opacity="0.2" fill-rule="evenodd"/><path class="svg-region-SOTl" d="M 1001.040 461.452 C 998.471 464.547, 1000.996 466.583, 1017.752 474.930 C 1045.063 488.534, 1074.932 498.155, 1077.410 494.145 C 1079.042 491.506, 1064.923 484.403, 1049 479.853 C 1043.270 478.215, 1040.290 476.892, 1022.870 468.250 C 1013.724 463.712, 1005.342 460, 1004.243 460 C 1003.144 460, 1001.703 460.653, 1001.040 461.452" stroke="#995b45" fill="#995b45" fill-opacity="0.2" fill-rule="evenodd"/><path class="svg-region-SOTr" d="M 735 460.676 C 729.644 461.630, 715.300 466.294, 711.500 468.319 C 709.300 469.491, 703.852 472.598, 699.394 475.225 C 694.935 477.851, 690.625 480, 689.815 480 C 687.461 480, 679.155 485.935, 678.465 488.111 C 676.986 492.770, 682.754 494.554, 687.423 490.882 C 688.904 489.717, 692.404 487.894, 695.200 486.832 C 697.997 485.769, 702.319 483.501, 704.804 481.791 C 712.222 476.687, 722.485 472.145, 731.766 469.858 C 741.940 467.352, 743.206 466.575, 742.801 463.086 C 742.485 460.369, 740.379 459.719, 735 460.676" stroke="#995b45" fill="#995b45" fill-opacity="0.2" fill-rule="evenodd"/><path class="svg-region-OVl" d="M 1067.037 461.089 C 1063.641 462.474, 1063.674 462.309, 1065.906 466.630 C 1067.005 468.758, 1068.436 472.750, 1069.086 475.500 C 1070.602 481.916, 1071.956 484.898, 1074.761 488 C 1076.005 489.375, 1077.241 491.187, 1077.508 492.027 C 1077.775 492.867, 1081.707 494.990, 1086.247 496.745 C 1105.900 504.345, 1108.385 505.577, 1113.224 510.119 C 1117.916 514.523, 1118.360 514.714, 1122.774 514.216 C 1128.943 513.521, 1133.663 510.581, 1136.016 505.968 C 1137.078 503.887, 1138.478 502.007, 1139.127 501.791 C 1139.854 501.549, 1139.322 500.413, 1137.742 498.833 C 1132.852 493.943, 1128.032 481.993, 1128.011 474.710 C 1128.005 472.626, 1128.858 469.239, 1129.906 467.184 L 1131.812 463.448 1107.666 463.662 C 1088.866 463.829, 1083.186 463.584, 1082.010 462.558 C 1079.995 460.798, 1070.125 459.830, 1067.037 461.089" stroke="#593939" fill="#593939" fill-opacity="0.2" fill-rule="evenodd"/><path class="svg-region-OVr" d="M 678.500 442.085 C 665.492 442.909, 659.056 445.929, 655.711 452.777 C 653.989 456.301, 652.282 457.965, 648 460.289 C 644.975 461.932, 640.700 464.461, 638.500 465.910 C 636.300 467.359, 631.913 469.415, 628.750 470.479 C 623.352 472.296, 623 472.610, 623 475.613 C 623 478.868, 619.297 487, 617.814 487 C 617.367 487, 617 488.366, 617 490.035 C 617 492.595, 614.978 497.146, 613.017 499 C 612.029 499.935, 604.472 510.483, 601.913 514.500 C 600.046 517.430, 599.556 519.169, 600.083 521 C 600.477 522.375, 600.845 526.808, 600.900 530.850 C 600.995 537.830, 601.173 538.373, 604.429 541.629 C 606.315 543.515, 608.450 546.395, 609.173 548.029 C 609.896 549.663, 611.036 551, 611.705 551 C 612.375 551, 615.343 549.028, 618.302 546.618 C 621.261 544.208, 624.654 541.927, 625.841 541.550 C 627.029 541.174, 628 540.221, 628 539.433 C 628 538.645, 628.430 538, 628.955 538 C 629.480 538, 630.959 536.987, 632.241 535.750 C 635.085 533.006, 646.818 525, 647.995 525 C 649.360 525, 655.998 516.790, 656.023 515.070 C 656.036 514.207, 657.274 511.307, 658.773 508.627 C 660.853 504.909, 662.379 503.459, 665.205 502.510 C 667.243 501.826, 671.223 499.002, 674.050 496.233 L 679.190 491.200 676.095 488.912 C 673.019 486.638, 673 486.566, 673 477.280 C 673 467.324, 674.237 462.825, 677.862 459.595 C 680.365 457.364, 680.608 456, 678.500 456 C 675.720 456, 676.969 453.810, 683.141 447.864 C 686.518 444.610, 689.106 441.836, 688.891 441.700 C 688.676 441.563, 684 441.736, 678.500 442.085" stroke="#593939" fill="#593939" fill-opacity="0.2" fill-rule="evenodd"/>
    </svg>