<svg xmlns="http://www.w3.org/2000/svg" width="1785" height="1131" viewBox="0 0 1785 1131" version="1.1">
    <path class="svg-region-AAB" d="M 743.816 493.738 C 743.554 496.013, 742.902 496.573, 739.966 497.046 C 735.170 497.818, 734 498.696, 734 501.524 C 734 502.906, 733.149 504.385, 732 505 C 729.510 506.332, 729.306 511.565, 731.616 514.862 C 732.762 516.499, 732.921 517.479, 732.163 518.237 C 731.471 518.929, 731.423 519.922, 732.028 521.053 C 732.726 522.357, 732.524 522.972, 731.232 523.480 C 729.891 524.006, 730.740 524.816, 735 527.070 C 738.025 528.672, 742.075 530.674, 744 531.520 C 751.524 534.828, 763.698 540.651, 769.457 543.696 C 772.780 545.454, 780.112 549.172, 785.750 551.959 C 791.388 554.746, 796 557.401, 796 557.858 C 796 559.665, 804.756 567.363, 809 569.288 C 816.708 572.784, 829.450 574.118, 844.382 572.994 C 851.597 572.451, 859.281 571.581, 861.459 571.062 C 863.636 570.542, 871.061 570.055, 877.959 569.979 C 889.150 569.857, 891.792 570.186, 902.500 573.038 C 909.100 574.796, 917.425 576.665, 921 577.191 C 930.061 578.526, 948.727 579.051, 951.333 578.045 C 952.525 577.585, 955.525 576.631, 958 575.925 C 966.047 573.630, 970.288 570.879, 978.125 562.873 C 982.362 558.543, 986.473 555, 987.260 555 C 988.046 555, 989.505 554.100, 990.500 553 C 991.495 551.900, 992.878 551, 993.572 551 C 994.266 551, 994.983 550.646, 995.167 550.214 C 995.350 549.781, 1000.519 546.887, 1006.654 543.782 C 1012.788 540.678, 1018.638 537.683, 1019.654 537.127 C 1020.669 536.571, 1024.650 534.642, 1028.500 532.840 C 1032.350 531.038, 1035.725 529.284, 1036 528.943 C 1036.275 528.601, 1038.412 527.488, 1040.750 526.469 C 1045.470 524.410, 1046.556 522.609, 1042.250 523.979 C 1040.737 524.461, 1036.012 525.045, 1031.748 525.277 C 1025.785 525.602, 1023.717 525.363, 1022.786 524.242 C 1021.812 523.069, 1021.955 522.506, 1023.516 521.365 C 1025.757 519.726, 1024.787 517.253, 1021.185 515.424 C 1020.019 514.833, 1017.107 512.245, 1014.713 509.674 L 1010.360 505 994.930 504.956 C 984.109 504.925, 978.305 504.482, 975.500 503.471 C 973.300 502.679, 968.800 502.013, 965.500 501.991 C 962.200 501.970, 957.700 501.507, 955.500 500.963 C 945.497 498.488, 926.359 497.319, 905 497.879 C 893.310 498.185, 848.765 496.347, 837 495.073 C 825.968 493.878, 809.279 494.024, 774.763 495.617 C 762.337 496.191, 761.917 496.141, 757.585 493.602 C 754.580 491.841, 751.687 491, 748.638 491 C 744.472 491, 744.109 491.206, 743.816 493.738" stroke="#7f3c1a" fill="#7f3c1a" fill-opacity="0.2" fill-rule="evenodd"/><path class="svg-region-APB" d="M 859.500 446.150 C 856.804 447.075, 853.412 448.446, 847.500 450.999 C 846.400 451.474, 843.256 452.162, 840.513 452.528 C 837.770 452.894, 834.395 453.763, 833.013 454.459 C 831.631 455.156, 825.100 456.019, 818.500 456.377 C 811.900 456.736, 803.575 457.501, 800.001 458.077 C 792.171 459.338, 771.090 457.716, 763.615 455.276 C 760.563 454.280, 758.272 454.023, 757.510 454.591 C 753.331 457.710, 740.183 466.371, 737.599 467.708 C 733.199 469.983, 728 474.296, 728 475.670 C 728 476.377, 730.669 477.127, 734.737 477.562 C 743.191 478.468, 748.777 481.478, 757.575 489.869 L 764.253 496.237 776.377 495.603 C 806.716 494.017, 825.831 493.845, 836.500 495.063 C 847.459 496.315, 892.640 498.206, 905 497.931 C 927.772 497.424, 943.004 498.340, 955 500.938 C 957.475 501.474, 962.319 501.932, 965.764 501.956 C 969.209 501.980, 972.921 502.558, 974.014 503.241 C 975.597 504.230, 976.408 504.226, 978.012 503.225 C 979.118 502.534, 982.156 501.274, 984.762 500.425 C 987.368 499.577, 992.200 497.591, 995.500 496.012 C 1008.004 490.032, 1022.133 486.088, 1031.250 486.034 C 1037.914 485.995, 1038.357 485.104, 1034.638 479.230 C 1031.590 474.417, 1010.529 461.021, 1002.746 458.945 C 1000.411 458.322, 997.719 457.405, 996.764 456.906 C 995.809 456.408, 993.784 456.007, 992.264 456.015 C 989.415 456.031, 982.565 458.102, 981.352 459.315 C 980.975 459.692, 978.963 460, 976.880 460 C 974.798 460, 971.954 460.519, 970.561 461.154 C 964.926 463.722, 923.979 457.626, 911.648 452.383 C 898.244 446.686, 896.177 446.261, 879 445.679 C 868.771 445.333, 861.360 445.512, 859.500 446.150" stroke="#ac7444" fill="#ac7444" fill-opacity="0.2" fill-rule="evenodd"/><path class="svg-region-PC" d="M 778.750 429.965 C 773.937 431.530, 768.004 433.980, 765.564 435.410 C 761.423 437.836, 761.164 438.236, 761.677 441.397 C 762.358 445.591, 760.479 451.594, 758.202 452.501 C 755.132 453.723, 767.479 456.767, 780.517 458.002 C 789.414 458.844, 794.791 458.878, 799.691 458.122 C 803.436 457.545, 812.125 456.769, 819 456.399 C 826.314 456.005, 832.634 455.153, 834.233 454.346 C 835.736 453.587, 839.111 452.687, 841.733 452.345 C 844.355 452.003, 846.950 451.400, 847.500 451.004 C 848.050 450.608, 851.538 449.211, 855.250 447.901 C 858.962 446.590, 862 445.160, 862 444.723 C 862 444.286, 860.087 443.066, 857.750 442.012 C 855.413 440.957, 852.375 439.444, 851 438.649 C 847.249 436.481, 833.953 432.492, 820.787 429.586 C 804.189 425.922, 790.812 426.042, 778.750 429.965 M 925 433.466 C 923.625 434.243, 918.450 436.768, 913.500 439.077 C 908.550 441.386, 903.515 444.166, 902.311 445.254 L 900.122 447.234 904.811 449.613 C 915.227 454.899, 933.383 459.044, 955.321 461.143 C 964.140 461.987, 968.105 461.986, 970.937 461.137 C 973.024 460.512, 975.805 460, 977.116 459.999 C 978.427 459.999, 981.867 459.099, 984.761 457.999 C 987.654 456.900, 990.917 456, 992.011 456 C 994.526 456, 994.506 455.762, 991.614 451.181 C 990.302 449.102, 988.238 445.100, 987.028 442.288 C 984.693 436.859, 984.328 436.644, 975.500 435.490 C 972.750 435.131, 967.256 434.198, 963.292 433.418 C 953.551 431.501, 928.421 431.533, 925 433.466" stroke="#cda789" fill="#cda789" fill-opacity="0.2" fill-rule="evenodd"/><path class="svg-region-DB" d="M 752.065 438.569 C 748.966 439.913, 741.072 441.725, 730.719 443.466 C 728.640 443.816, 723.313 445.654, 718.881 447.551 C 714.449 449.448, 710.311 451, 709.686 451 C 706.896 451, 695.254 456.364, 694.127 458.168 C 692.280 461.125, 693.648 465.723, 696.825 467.239 C 699.088 468.319, 699.547 469.248, 699.805 473.271 C 700.041 476.938, 700.641 478.374, 702.425 479.543 C 704.739 481.059, 707.111 480.929, 722.770 478.425 C 724.768 478.105, 727.242 476.582, 729.127 474.511 C 730.824 472.646, 736.437 468.598, 741.601 465.517 C 752.044 459.285, 759.326 452.946, 760.936 448.685 C 762.462 444.648, 762.248 440.391, 760.429 438.571 C 758.496 436.639, 756.514 436.638, 752.065 438.569 M 985.546 439.250 C 986.748 443.223, 992.213 452.940, 994.572 455.299 C 995.829 456.557, 999.197 458.185, 1002.056 458.918 C 1008.986 460.694, 1027.442 471.951, 1032.750 477.639 C 1035.088 480.144, 1037.007 483.162, 1037.015 484.347 C 1037.048 488.911, 1037.972 489.208, 1051.100 488.869 C 1063.168 488.558, 1063.494 488.606, 1064.617 490.859 C 1066.505 494.647, 1067.281 494.970, 1071.756 493.834 L 1076 492.757 1076 487.365 C 1076 484.399, 1075.550 481.079, 1075 479.986 C 1074.450 478.894, 1073.550 477.106, 1073 476.014 C 1072.450 474.921, 1071.997 473.009, 1071.993 471.764 C 1071.990 470.519, 1071.071 468.150, 1069.951 466.500 C 1068.831 464.850, 1067.286 462.047, 1066.517 460.272 C 1064.918 456.577, 1060.099 453.283, 1055 452.400 C 1053.075 452.067, 1047.344 449.815, 1042.264 447.397 C 1037.185 444.979, 1032.287 443, 1031.380 443 C 1030.474 443, 1028.105 442.561, 1026.116 442.025 C 1010.714 437.873, 1005.386 437, 995.459 437 C 984.938 437, 984.870 437.015, 985.546 439.250" stroke="#e8b1e4" fill="#e8b1e4" fill-opacity="0.2" fill-rule="evenodd"/><path class="svg-region-MB" d="M 1040 313.999 C 1037.525 314.420, 1033.879 315.441, 1031.897 316.269 C 1028.948 317.502, 1026.588 317.603, 1018.897 316.830 C 1009.752 315.910, 999.446 316.622, 988 318.966 C 985.525 319.473, 980.350 320.421, 976.500 321.074 C 972.650 321.727, 969.050 322.612, 968.500 323.041 C 967.950 323.470, 965.700 324.142, 963.500 324.535 C 952.781 326.448, 938.815 339.438, 931.285 354.500 C 928.810 359.450, 925.776 364.850, 924.542 366.500 C 920.913 371.353, 914.288 384.210, 912.130 390.589 C 910.210 396.264, 906.014 405.858, 904.079 409 C 901.197 413.678, 897 421.098, 897 421.515 C 897 422.448, 901.888 421.991, 902.500 421 C 902.840 420.450, 903.920 420, 904.899 420 C 905.879 420, 909.340 418.704, 912.590 417.120 C 920.661 413.186, 935.641 411.413, 949.500 412.751 C 955 413.283, 964.998 413.501, 971.718 413.237 L 983.935 412.756 1004.718 422.992 C 1029.309 435.104, 1041.111 439.399, 1047.868 438.694 C 1056.741 437.768, 1057.517 437.371, 1061.163 431.882 C 1062.299 430.172, 1063.928 429.791, 1072 429.350 C 1079.977 428.914, 1082.451 429.166, 1087.430 430.923 C 1090.692 432.075, 1094.067 433.629, 1094.930 434.379 C 1095.794 435.128, 1099.611 436.761, 1103.413 438.007 C 1109.227 439.911, 1111.303 441.263, 1116.470 446.507 C 1119.850 449.937, 1123.714 453.088, 1125.057 453.510 C 1126.401 453.933, 1128.457 455.228, 1129.628 456.389 C 1135.263 461.980, 1140.626 465.708, 1141.614 464.720 C 1141.857 464.476, 1141.569 462.997, 1140.974 461.432 C 1140.379 459.866, 1139.748 455.511, 1139.573 451.753 C 1139.397 447.995, 1138.971 444.638, 1138.627 444.293 C 1138.282 443.949, 1138 437.953, 1138 430.970 C 1138 416.798, 1137.188 411.203, 1133.863 402.466 L 1131.593 396.500 1130.847 401.500 C 1130.225 405.663, 1129.348 407.212, 1125.608 410.750 C 1121.228 414.894, 1120.947 415, 1114.308 414.999 C 1107.059 414.999, 1101.820 413.419, 1091.243 408.044 C 1084.568 404.652, 1070.379 390.624, 1067.078 384.152 C 1066.053 382.144, 1063.611 378.066, 1061.652 375.091 C 1058.480 370.275, 1055.585 363.993, 1051.470 353 C 1050.749 351.075, 1048.575 345.675, 1046.638 341 C 1041.975 329.748, 1041.035 322.810, 1043.680 319.182 C 1046.373 315.488, 1047.219 312.973, 1045.719 313.118 C 1045.048 313.182, 1042.475 313.579, 1040 313.999 M 757 318.097 C 750.675 318.507, 742.802 319.304, 739.504 319.869 C 736.206 320.433, 731.594 320.632, 729.254 320.311 C 725.276 319.766, 724.999 319.883, 724.989 322.114 C 724.950 330.703, 714.503 350.024, 696.666 374.496 C 689.505 384.320, 675.463 398.846, 672.379 399.620 C 671.128 399.934, 669.386 401.289, 668.506 402.631 C 666.222 406.116, 658.937 409.452, 655.495 408.588 C 651.123 407.491, 647.335 402.985, 646.548 397.948 C 644.909 387.449, 644.167 387.641, 628.952 402.478 C 625.389 405.953, 624.017 408.276, 622.616 413.207 C 619.898 422.772, 618.963 425.083, 615.677 430.360 C 612.849 434.901, 612.716 435.542, 613.652 440.110 C 614.203 442.800, 614.281 445, 613.827 445 C 612.428 445, 612.906 447.065, 614.889 449.586 L 616.778 451.988 618.482 449.387 C 619.728 447.486, 620.484 447.084, 621.293 447.893 C 623.039 449.639, 624.631 449.214, 627.673 446.192 C 631.489 442.401, 635.037 440.549, 644.500 437.410 C 648.900 435.950, 653.130 434.249, 653.901 433.630 C 655.724 432.166, 672.242 432.147, 674.095 433.608 C 674.868 434.217, 678.532 435.520, 682.237 436.503 C 687.488 437.896, 690.575 438.122, 696.237 437.531 C 700.232 437.114, 704.522 436.819, 705.772 436.877 C 707.021 436.934, 709.901 435.635, 712.172 433.991 C 716.040 431.188, 716.877 431, 725.450 431 C 730.483 431, 735.028 430.606, 735.550 430.123 C 736.073 429.641, 739.148 428.275, 742.385 427.087 C 745.621 425.899, 750.137 424.077, 752.419 423.037 C 754.702 421.997, 757.679 420.898, 759.035 420.594 C 774.575 417.116, 780.260 415.769, 784.500 414.562 C 792.466 412.296, 798.763 411.142, 809.952 409.901 C 829.225 407.763, 842.051 410.199, 850.178 417.541 C 853.226 420.296, 859.790 424, 861.622 424 C 861.830 424, 862 421.950, 862 419.444 C 862 414.623, 858.635 406.714, 853.202 398.765 C 851.598 396.419, 848.807 390.225, 846.999 385 C 844.052 376.482, 842.187 372.278, 834.655 357.182 C 832.539 352.941, 811.999 333, 809.747 333 C 809.165 333, 807.296 331.942, 805.594 330.648 C 803.892 329.355, 800.925 327.502, 799 326.531 C 797.075 325.560, 794.584 323.931, 793.464 322.910 C 790.427 320.140, 779.472 316.975, 773.620 317.175 C 770.804 317.272, 763.325 317.686, 757 318.097" stroke="#f9c6c6" fill="#f9c6c6" fill-opacity="0.2" fill-rule="evenodd"/><path class="svg-region-LBl" d="M 1048.884 312.183 C 1047.446 313.458, 1045.254 316.216, 1044.014 318.313 C 1041.263 322.966, 1041.745 328.996, 1045.621 338.405 C 1047.001 341.757, 1049.908 349.191, 1052.080 354.925 C 1066.007 391.689, 1090.184 414.998, 1114.393 414.999 L 1121.286 415 1126.143 410.143 L 1131 405.286 1131.005 397.893 C 1131.013 386.104, 1125.782 372.193, 1116.942 360.495 C 1113.619 356.098, 1110.313 351.140, 1109.596 349.477 C 1107.669 345.010, 1098.645 334.551, 1092.700 329.895 C 1089.840 327.655, 1085.473 323.899, 1082.995 321.549 C 1076.063 314.973, 1066.938 310.775, 1058.500 310.279 C 1052.276 309.912, 1051.210 310.124, 1048.884 312.183" stroke="#79495c" fill="#79495c" fill-opacity="0.2" fill-rule="evenodd"/><path class="svg-region-LBr" d="M 704.834 313.595 C 703.956 314.472, 700.597 315.541, 697.369 315.969 C 689.704 316.987, 677.179 321.614, 673.945 324.623 C 672.540 325.930, 671.048 327, 670.629 327 C 669.615 327, 664.236 331.035, 654.500 339.101 C 642.248 349.251, 642.596 348.667, 643.380 357.739 C 643.748 362.008, 644.456 372.748, 644.952 381.607 C 645.523 391.816, 646.408 399.040, 647.367 401.335 C 648.997 405.237, 654.094 408.990, 657.770 408.996 C 660.569 409.001, 667.553 404.704, 668.931 402.130 C 669.490 401.085, 671.059 399.951, 672.417 399.610 C 681.911 397.227, 717.930 347.750, 723.873 328.929 C 725.304 324.396, 725.297 321.746, 723.846 318.562 C 721.451 313.305, 708.505 309.923, 704.834 313.595" stroke="#79495c" fill="#79495c" fill-opacity="0.2" fill-rule="evenodd"/><path class="svg-region-DMr" d="M 640 361.848 C 638.625 363.162, 635.925 365.263, 634 366.516 C 630.852 368.566, 619.148 379.647, 616.415 383.165 C 614.693 385.382, 613.993 395.887, 615.064 403.445 C 615.604 407.259, 616.232 410.565, 616.460 410.794 C 617.743 412.076, 622.904 408.545, 630.215 401.382 C 634.772 396.917, 640.027 392.484, 641.894 391.532 L 645.289 389.799 644.742 375.985 C 644.106 359.929, 643.597 358.411, 640 361.848" stroke="#68533d" fill="#68533d" fill-opacity="0.2" fill-rule="evenodd"/><path class="svg-region-Fl" d="M 948.500 169.035 C 931.685 170.499, 920 173.526, 920 176.417 C 920 177.011, 918.125 181.195, 915.834 185.714 L 911.667 193.931 911.584 206.716 C 911.509 218.096, 911.734 219.884, 913.635 223 C 918.007 230.168, 922.790 239.624, 924.003 243.500 C 924.691 245.700, 926.381 250.200, 927.757 253.500 C 931.126 261.578, 933 270.978, 933 279.797 C 933 286.298, 933.273 287.349, 935.500 289.412 C 936.875 290.687, 938 292.171, 938 292.711 C 938 293.251, 939.551 295.290, 941.447 297.242 L 944.893 300.791 956.666 300.888 C 963.141 300.942, 971.023 301.494, 974.182 302.116 C 979.893 303.239, 986.941 302.922, 996.500 301.112 C 1004.004 299.691, 1010.294 297.995, 1011.461 297.078 C 1012.032 296.628, 1014.300 295.685, 1016.500 294.981 C 1021.021 293.535, 1029.743 287.182, 1038.229 279.154 C 1050.096 267.930, 1057.727 244.682, 1053.631 232.231 C 1052.775 229.629, 1051.111 223.353, 1049.934 218.284 C 1048.756 213.214, 1046.920 208.061, 1045.854 206.831 C 1044.787 205.602, 1043.092 202.774, 1042.087 200.548 C 1041.082 198.322, 1038.964 195.307, 1037.380 193.849 C 1033.797 190.550, 1021.285 184.003, 1018.539 183.990 C 1016.117 183.979, 998.765 178.476, 987.500 174.146 C 972.145 168.244, 966.331 167.482, 948.500 169.035" stroke="#5ca7a9" fill="#5ca7a9" fill-opacity="0.2" fill-rule="evenodd"/><path class="svg-region-Fr" d="M 782 166.168 C 778.425 167.170, 774.150 168.474, 772.500 169.064 C 770.850 169.655, 766.125 171.209, 762 172.519 C 738.192 180.076, 725.960 186.739, 719.754 195.528 C 711.317 207.476, 709.246 211.044, 707.580 216.500 C 706.573 219.800, 704.635 224.633, 703.274 227.241 C 701.037 231.528, 700.848 232.818, 701.302 240.741 C 702.211 256.608, 705.122 265.066, 712.326 272.774 C 720.619 281.645, 721.502 282.502, 724.500 284.571 C 730.867 288.965, 736.702 289.990, 754.153 289.780 L 770.500 289.583 779 293.714 C 792.668 300.357, 799.373 302.343, 805.888 301.680 C 810.818 301.178, 811.900 300.646, 814.795 297.304 C 819.592 291.764, 821.648 287.270, 822.471 280.523 C 822.874 277.222, 824.490 271.992, 826.080 268.842 C 827.663 265.705, 829.376 261.420, 829.886 259.319 C 830.396 257.219, 832.629 251.138, 834.848 245.808 L 838.884 236.115 839.088 214.308 C 839.321 189.391, 838.802 174.063, 837.666 172.250 C 837.235 171.563, 834.940 171, 832.567 171 C 830.193 171, 826.338 170.325, 824 169.500 C 821.662 168.675, 818.510 168, 816.996 168 C 815.483 168, 812.727 167.380, 810.872 166.622 C 805.192 164.302, 789.535 164.056, 782 166.168" stroke="#5ca7a9" fill="#5ca7a9" fill-opacity="0.2" fill-rule="evenodd"/><path class="svg-region-Ol" d="M 1281 293.100 C 1274.125 294.783, 1267.600 296.526, 1266.500 296.974 C 1265.400 297.422, 1262.345 298.555, 1259.711 299.492 C 1257.076 300.429, 1253.701 302.175, 1252.211 303.373 C 1250.720 304.570, 1248.375 306.117, 1247 306.810 C 1245.625 307.504, 1242.686 309.742, 1240.469 311.785 C 1238.252 313.828, 1234.587 316.963, 1232.325 318.750 C 1228.223 321.992, 1217 335.786, 1217 337.587 C 1217 338.109, 1215.843 340.239, 1214.428 342.321 C 1210.195 348.551, 1207.941 356.605, 1207.384 367.500 C 1207.103 373, 1207.239 377.950, 1207.686 378.500 C 1208.134 379.050, 1210.750 381.275, 1213.500 383.445 C 1221.073 389.419, 1229.998 398.770, 1230.013 400.744 C 1230.032 403.383, 1233.786 414.894, 1236.291 420 C 1238.295 424.082, 1238.480 425.821, 1238.281 438.736 C 1238.028 455.165, 1236.941 460.271, 1230.571 474.945 C 1221.833 495.076, 1213.203 505.601, 1201.250 510.703 C 1196.178 512.867, 1170.809 512.758, 1163.500 510.539 C 1160.750 509.705, 1158.388 509.017, 1158.250 509.011 C 1157.399 508.974, 1158.307 512.822, 1159.532 514.441 C 1161.341 516.834, 1161.397 518.857, 1159.710 520.921 C 1159 521.790, 1157.101 525.425, 1155.490 529 C 1151.347 538.190, 1147.105 543.906, 1142.795 546.104 C 1136.474 549.329, 1129.940 548.266, 1127.955 543.689 C 1125.465 537.951, 1114.702 526.941, 1109.250 524.556 C 1106.912 523.533, 1105 522.315, 1105 521.848 C 1105 521.382, 1104.355 521, 1103.567 521 C 1102.779 521, 1100.475 518.975, 1098.446 516.500 L 1094.759 512 1087.880 512 C 1083.960 512, 1081 512.430, 1081 513 C 1081 513.550, 1080.146 514, 1079.102 514 C 1076.206 514, 1065.589 519.914, 1064.829 521.950 C 1064.448 522.969, 1062.703 524.021, 1060.797 524.378 C 1058.949 524.725, 1056.668 525.907, 1055.728 527.004 C 1054.789 528.102, 1053.195 529, 1052.187 529 C 1049.699 529, 1039.332 534.634, 1034.855 538.418 C 1030.996 541.680, 1027.619 544.072, 1019.506 549.289 C 1011.920 554.166, 999.891 566.715, 996.776 573.002 C 988.578 589.545, 986.653 595.250, 986.846 602.436 C 986.948 606.250, 987.447 610.975, 987.956 612.936 C 988.464 614.896, 989.612 619.425, 990.507 623 C 995.375 642.454, 1000.271 650.878, 1022.472 678 C 1034.723 692.966, 1035.432 693.881, 1039.138 699.500 C 1040.589 701.700, 1043.102 704.850, 1044.722 706.500 C 1046.343 708.150, 1050.734 713.550, 1054.481 718.500 C 1058.228 723.450, 1061.600 727.725, 1061.975 728 C 1063.164 728.873, 1078.553 748.513, 1083.237 755.135 C 1085.713 758.636, 1090.993 766.900, 1094.969 773.500 C 1103.631 787.876, 1109.426 795.630, 1112.919 797.520 C 1114.339 798.288, 1117.544 800.847, 1120.042 803.208 C 1122.539 805.569, 1126.589 808.850, 1129.042 810.500 C 1131.494 812.150, 1134.372 814.288, 1135.439 815.250 C 1136.505 816.212, 1137.912 817, 1138.566 817 C 1139.220 817, 1140.315 817.675, 1141 818.500 C 1141.685 819.325, 1143.246 820, 1144.469 820 C 1145.692 820, 1147.999 820.651, 1149.596 821.446 C 1151.362 822.326, 1158.573 823.320, 1168 823.984 C 1186.473 825.284, 1193.199 826.589, 1197.382 829.686 C 1208.141 837.652, 1219.205 839.631, 1233.022 836.061 C 1254.929 830.401, 1277.800 814.117, 1300.397 788.089 C 1307.231 780.216, 1317 765.603, 1317 763.252 C 1317 762.939, 1318.624 759.267, 1320.608 755.091 C 1326.591 742.502, 1326.984 741.614, 1327.940 738.500 C 1328.446 736.850, 1330.288 732.125, 1332.032 728 C 1333.776 723.875, 1336.524 716.675, 1338.139 712 C 1341.053 703.563, 1342.549 699.497, 1347.335 687 C 1354.996 667.002, 1359.274 656.602, 1362.967 649 C 1369.387 635.788, 1392.172 595.451, 1396.719 589.250 C 1398.030 587.462, 1399.769 584.537, 1400.583 582.750 C 1401.397 580.962, 1402.923 578.150, 1403.972 576.500 C 1407.327 571.227, 1414.156 558.767, 1418.578 549.850 C 1420.938 545.092, 1423.348 540.903, 1423.934 540.541 C 1424.520 540.178, 1425 538.991, 1425 537.901 C 1425 536.812, 1425.845 534.251, 1426.878 532.210 C 1431.296 523.481, 1442.659 489.321, 1443.579 482 C 1443.752 480.625, 1444.349 476.881, 1444.906 473.679 C 1447.021 461.519, 1447.245 448.855, 1445.558 436.868 C 1444.658 430.471, 1444.050 424.846, 1444.207 424.368 C 1444.473 423.560, 1442.740 417.096, 1441.026 412.500 C 1440.616 411.400, 1439.457 407.800, 1438.451 404.500 C 1437.445 401.200, 1435.357 395.676, 1433.811 392.225 C 1432.265 388.774, 1431 385.511, 1431 384.975 C 1431 384.439, 1430.660 384, 1430.244 384 C 1429.828 384, 1428.853 382.538, 1428.076 380.750 C 1427.300 378.962, 1424.715 374.690, 1422.332 371.255 C 1419.949 367.820, 1418 364.764, 1418 364.464 C 1418 362.249, 1396.885 337.405, 1390.054 331.584 C 1388.709 330.438, 1386.551 328.488, 1385.259 327.250 C 1383.966 326.012, 1382.647 325, 1382.326 325 C 1382.005 325, 1380.001 323.538, 1377.872 321.750 C 1375.743 319.962, 1372.258 317.038, 1370.129 315.250 C 1367.999 313.462, 1365.943 312, 1365.559 312 C 1365.175 312, 1362.979 310.724, 1360.680 309.165 C 1353.357 304.199, 1336.749 296.186, 1329.162 293.959 C 1319.299 291.063, 1318.253 290.911, 1305 290.446 C 1294.746 290.085, 1292.145 290.373, 1281 293.100" stroke="#aa444d" fill="#aa444d" fill-opacity="0.2" fill-rule="evenodd"/><path class="svg-region-Or" d="M 495 294.694 C 487.629 295.346, 479.184 297.261, 471 300.137 C 466.325 301.780, 459.575 304.047, 456 305.175 C 436.179 311.428, 392.072 332.305, 385.800 338.403 C 383.764 340.381, 381.794 342, 381.421 342 C 381.048 342, 379.088 343.462, 377.067 345.250 C 375.045 347.038, 370.971 350.525, 368.014 353 C 365.056 355.475, 359.906 360.394, 356.568 363.931 C 353.231 367.467, 349.713 371.180, 348.750 372.181 C 347.788 373.181, 347 374.413, 347 374.917 C 347 375.421, 346.615 375.983, 346.143 376.167 C 344.733 376.715, 336 390.007, 336 391.605 C 336 392.418, 335.100 394.050, 334 395.230 C 332.900 396.411, 332 397.967, 332 398.689 C 332 399.410, 331.602 400, 331.116 400 C 330.630 400, 329.195 402.587, 327.927 405.750 C 326.659 408.913, 324.845 412.907, 323.897 414.626 C 321.537 418.906, 316.374 435.275, 314.457 444.553 C 312.360 454.709, 312.360 483.333, 314.458 493.349 C 317.833 509.464, 322.296 522.079, 330.431 538.500 C 340.660 559.148, 348.757 576.480, 354.723 590.500 C 357.765 597.650, 361.697 606.425, 363.460 610 C 365.223 613.575, 367.683 619.200, 368.928 622.500 C 370.172 625.800, 372.321 630.975, 373.702 634 C 375.084 637.025, 376.567 640.400, 376.998 641.500 C 377.430 642.600, 379.566 647.325, 381.745 652 C 388.798 667.131, 391 672.043, 391 672.645 C 391 673.621, 407.798 706.896, 409.759 709.805 C 410.758 711.287, 412.908 715.415, 414.538 718.979 C 419.847 730.590, 429.179 748.492, 430.100 748.833 C 430.595 749.017, 431 749.600, 431 750.130 C 431 751.702, 442.604 771.740, 446.270 776.500 C 446.694 777.050, 448.804 780.200, 450.959 783.500 C 464.059 803.563, 479.545 821.506, 494.399 833.837 C 499.469 838.045, 511.361 844.784, 518.500 847.495 C 526.125 850.390, 543.498 852.922, 556 852.961 C 565.204 852.989, 585.074 850.498, 590.500 848.636 C 592.700 847.881, 597.200 846.453, 600.500 845.463 C 607.828 843.265, 622.557 836.013, 630 830.938 C 639.772 824.276, 668.020 795.319, 683.442 776.155 C 689.399 768.753, 694.552 762.142, 696.500 759.405 C 697.600 757.859, 699.635 755.223, 701.023 753.547 C 702.411 751.871, 705.518 747.575, 707.928 744 C 710.339 740.425, 713.516 736.150, 714.989 734.500 C 716.462 732.850, 721.205 726.100, 725.529 719.500 C 729.853 712.900, 733.641 707.275, 733.948 707 C 734.935 706.115, 741.639 695.599, 743.454 692.089 C 744.421 690.218, 746.011 687.831, 746.988 686.783 C 747.964 685.735, 750.270 681.867, 752.112 678.189 C 753.954 674.510, 756.707 669.745, 758.231 667.600 C 759.754 665.455, 761 663.144, 761 662.464 C 761 661.784, 762.837 658.476, 765.083 655.114 C 769.629 648.306, 778.120 627.154, 780.494 616.724 C 781.752 611.196, 781.852 608.010, 781.038 599.418 C 780.073 589.234, 779.340 586.636, 774.716 577 C 770.601 568.426, 756.811 556.068, 734.620 541.067 C 733.454 540.279, 730.925 538.205, 729 536.460 C 722.412 530.486, 710.228 523.508, 703 521.568 C 701.625 521.199, 698.475 520.060, 696 519.038 C 690.077 516.590, 678.557 513.226, 673.325 512.415 C 668.011 511.592, 656.961 513.494, 652.497 516.001 C 642.820 521.437, 638.758 524.851, 632.500 532.807 C 630.445 535.420, 628.144 537.731, 625.822 539.516 C 625.095 540.074, 623.202 541.537, 621.615 542.766 C 620.028 543.995, 617.511 545, 616.020 545 C 613.382 545, 610 542.374, 610 540.325 C 610 538.152, 606.836 533.123, 604.512 531.600 C 603.169 530.720, 600.971 530, 599.627 530 C 597.108 530, 587 534.764, 587 535.952 C 587 536.320, 585.597 538.056, 583.881 539.810 C 580.605 543.161, 577 544.046, 577 541.500 C 577 540.675, 576.550 540, 576 540 C 575.450 540, 574.990 538.763, 574.978 537.250 C 574.966 535.737, 574.066 532.538, 572.978 530.141 C 571.890 527.743, 571 524.706, 571 523.391 C 571 521.641, 570.446 521, 568.933 521 C 567.797 521, 565.209 519.792, 563.183 518.315 C 549.860 508.604, 535.654 489.149, 528.281 470.517 L 523.935 459.535 525.034 445.017 C 526.201 429.598, 527.181 425.509, 530.076 423.959 C 531.232 423.340, 532.122 421.293, 532.559 418.247 C 532.934 415.636, 534.311 412.068, 535.620 410.317 C 536.929 408.566, 538 406.635, 538 406.026 C 538 404.672, 541.230 399.999, 546.313 394 C 551.669 387.677, 552 387.214, 552 386.029 C 552 385.448, 552.415 384.191, 552.923 383.236 C 553.431 382.281, 554.610 376.846, 555.543 371.157 C 556.476 365.469, 558.086 358.500, 559.120 355.672 C 561.129 350.176, 561.550 343.542, 560.128 339.797 C 559.648 338.534, 558.716 335.700, 558.057 333.500 C 555.808 325.996, 550.817 317.223, 546.405 313.018 C 543.982 310.709, 542 308.459, 542 308.019 C 542 307.578, 538.532 304.865, 534.294 301.989 C 527.674 297.498, 525.596 296.626, 519.544 295.802 C 511.705 294.734, 500.346 294.221, 495 294.694" stroke="#aa444d" fill="#aa444d" fill-opacity="0.2" fill-rule="evenodd"/><path class="svg-region-Pl" d="M 1218.352 413.376 C 1215.520 414.717, 1212.820 416.470, 1212.352 417.271 C 1211.364 418.962, 1205.772 422, 1203.648 422 C 1202.850 422, 1197.727 426.249, 1192.265 431.443 C 1185.263 438.101, 1181.109 441.268, 1178.181 442.182 C 1175.307 443.079, 1173.746 444.251, 1173.109 445.989 C 1171.179 451.257, 1163.364 457.109, 1154.500 459.925 C 1141.384 464.092, 1139.559 466.707, 1140.203 480.417 C 1140.521 487.181, 1141.186 490.571, 1142.807 493.695 C 1145.923 499.699, 1154.980 509.082, 1158 509.435 C 1159.375 509.596, 1162.407 510.255, 1164.738 510.899 C 1170.412 512.468, 1196.627 512.606, 1200.424 511.087 C 1211.601 506.616, 1219.741 497.607, 1228.061 480.500 C 1236.264 463.634, 1238.005 456.540, 1238.278 438.869 C 1238.484 425.537, 1238.329 424.153, 1236.136 419.698 C 1232.069 411.439, 1226.572 409.485, 1218.352 413.376" stroke="#f9d3d3" fill="#f9d3d3" fill-opacity="0.2" fill-rule="evenodd"/><path class="svg-region-Pr" d="M 537 418.944 C 535.075 419.965, 531.902 422.355, 529.948 424.255 L 526.397 427.711 525.165 443.416 L 523.934 459.122 527.671 469.311 C 529.726 474.915, 533.566 482.796, 536.204 486.823 C 538.842 490.851, 541.013 494.451, 541.028 494.823 C 541.079 496.074, 547.040 503.452, 552.724 509.301 C 562.055 518.902, 569.223 522.862, 573 520.501 C 573.825 519.985, 578.325 517.613, 583 515.229 C 587.675 512.845, 593.075 509.429, 595 507.637 C 596.925 505.845, 600.122 503.196, 602.103 501.750 C 604.085 500.305, 606.267 497.632, 606.952 495.811 C 607.637 493.990, 609.254 490.250, 610.546 487.500 C 613.508 481.197, 616.190 465.363, 615.799 456.488 C 615.531 450.415, 615.211 449.490, 612.739 447.650 C 610.826 446.225, 607.986 445.467, 603.489 445.180 C 597.595 444.805, 596.656 444.427, 593.250 441.057 C 591.187 439.016, 588.219 435.526, 586.654 433.301 C 584.168 429.766, 583.204 429.184, 579.013 428.688 C 576.375 428.375, 572.487 427.193, 570.373 426.060 C 568.259 424.927, 565.083 424, 563.315 424 C 561.414 424, 557.730 422.571, 554.300 420.503 C 547.610 416.469, 542.532 416.011, 537 418.944" stroke="#f9d3d3" fill="#f9d3d3" fill-opacity="0.2" fill-rule="evenodd"/><path class="svg-region-DLl" d="M 1139.602 446.238 C 1138.779 450.357, 1139.898 460.478, 1141.404 462.538 C 1142.433 463.945, 1143.530 463.784, 1151.789 461.017 C 1161.571 457.740, 1167.089 454.582, 1170.714 450.185 C 1172.771 447.691, 1173.687 445, 1172.480 445 C 1172.194 445, 1170.100 446.174, 1167.827 447.609 C 1164.175 449.915, 1163.274 450.096, 1160.097 449.161 C 1158.118 448.579, 1154.808 447.883, 1152.740 447.613 C 1150.673 447.343, 1147.678 446.195, 1146.086 445.061 C 1142.006 442.156, 1140.359 442.455, 1139.602 446.238" stroke="#b7d6d3" fill="#b7d6d3" fill-opacity="0.2" fill-rule="evenodd"/><path class="svg-region-OLl" d="M 1145.274 390.575 C 1143.251 391.460, 1141.277 393.497, 1139.981 396.036 C 1138.066 399.791, 1137.945 401.415, 1138.317 418.293 C 1138.755 438.120, 1139.425 443, 1141.709 443 C 1142.524 443, 1144.494 443.928, 1146.086 445.061 C 1147.678 446.195, 1150.673 447.343, 1152.740 447.613 C 1154.808 447.883, 1158.130 448.583, 1160.121 449.169 C 1163.346 450.118, 1164.277 449.925, 1168.621 447.405 C 1171.305 445.848, 1173.650 444.220, 1173.833 443.787 C 1174.017 443.354, 1175.052 443, 1176.133 443 C 1179.448 443, 1183.218 440.436, 1189.925 433.621 L 1196.351 427.092 1195.051 423.156 C 1194.246 420.714, 1191.477 416.994, 1187.761 413.360 C 1184.465 410.137, 1180.584 406.338, 1179.135 404.917 C 1174.588 400.459, 1164.239 393.010, 1159.780 390.986 C 1154.800 388.726, 1149.822 388.585, 1145.274 390.575" stroke="#c4875d" fill="#c4875d" fill-opacity="0.2" fill-rule="evenodd"/><path class="svg-region-OLr" d="M 601.732 381.432 C 599.659 382.172, 596.960 384.065, 595.734 385.638 C 591.783 390.711, 589.358 392.464, 583.570 394.432 C 580.449 395.492, 577.656 396.748, 577.364 397.221 C 577.071 397.694, 575.029 399.219, 572.825 400.610 C 569.497 402.711, 568.919 403.542, 569.414 405.515 C 569.891 407.412, 569.303 408.430, 566.495 410.571 C 563.162 413.114, 562.993 413.531, 563.240 418.620 C 563.434 422.629, 563.883 423.988, 565.015 423.993 C 565.848 423.997, 568.230 424.911, 570.308 426.025 C 572.386 427.139, 576.095 428.325, 578.551 428.662 C 582.170 429.158, 583.630 430.022, 586.258 433.223 C 588.041 435.394, 591.206 438.933, 593.292 441.086 C 596.712 444.615, 597.578 445, 602.108 445 C 604.871 445, 608.093 445.515, 609.268 446.143 C 610.871 447.001, 611.500 447.001, 611.786 446.143 C 611.995 445.515, 612.768 445, 613.503 445 C 614.563 445, 614.626 444.229, 613.808 441.266 C 612.546 436.696, 613.335 429.204, 615.575 424.483 C 617.314 420.819, 617.257 418.291, 615.105 403.500 C 614.545 399.650, 614.343 394.235, 614.656 391.466 C 615.097 387.557, 614.864 386.132, 613.612 385.093 C 612.726 384.357, 612 383.188, 612 382.494 C 612 381.341, 608.936 379.984, 606.500 380.058 C 605.950 380.074, 603.804 380.693, 601.732 381.432" stroke="#c4875d" fill="#c4875d" fill-opacity="0.2" fill-rule="evenodd"/><path class="svg-region-VOC" d="M 804.500 410.576 C 792.480 412.318, 785.256 413.724, 783.844 414.596 C 783.205 414.991, 780.167 415.870, 777.091 416.550 C 774.016 417.229, 768.181 418.514, 764.124 419.405 C 760.068 420.296, 755.343 421.658, 753.624 422.431 C 738.612 429.185, 732.468 431, 724.622 431 C 717.524 431, 716.183 431.316, 712.070 433.955 C 709.537 435.581, 706.572 436.880, 705.482 436.843 C 704.392 436.806, 700.232 437.116, 696.237 437.533 C 690.554 438.125, 687.507 437.897, 682.237 436.485 C 678.532 435.493, 675.179 434.190, 674.786 433.590 C 673.815 432.107, 655.742 432.148, 653.904 433.638 C 653.132 434.264, 648.675 436.027, 644 437.557 C 634.683 440.604, 631.976 442.030, 627.560 446.214 C 624.384 449.224, 623.002 449.602, 621.323 447.923 C 620.554 447.154, 619.678 447.653, 618.259 449.673 C 616.749 451.821, 616.149 454.722, 615.761 461.750 L 615.251 471 622.384 471 C 628.166 471, 630.460 470.500, 634.508 468.359 C 637.254 466.906, 639.725 465.394, 640 464.998 C 642.668 461.160, 655.971 458.770, 677.497 458.263 C 689.176 457.988, 694.965 457.468, 695.997 456.603 C 697.781 455.109, 707.716 451, 709.545 451 C 710.248 451, 714.350 449.502, 718.661 447.672 C 722.973 445.841, 730.775 443.567, 736 442.619 C 741.225 441.670, 748.133 439.977, 751.350 438.857 C 754.568 437.736, 758.128 437.062, 759.261 437.358 C 760.465 437.673, 763.019 436.904, 765.410 435.508 C 767.660 434.194, 773.757 431.742, 778.959 430.060 C 787.034 427.448, 789.944 427, 798.835 427 C 810.060 427, 826.332 430.060, 839.307 434.612 C 843.051 435.925, 846.904 437, 847.869 437 C 848.833 437, 850.589 437.900, 851.770 439 C 852.950 440.100, 854.243 441, 854.642 441 C 855.042 441, 857.198 441.875, 859.434 442.945 C 864.843 445.532, 899.564 447.615, 902 445.499 C 902.825 444.782, 909.056 441.452, 915.847 438.098 L 928.195 432 942.347 432.044 C 950.131 432.068, 958.525 432.527, 961 433.064 C 970.953 435.225, 979.237 436.161, 994.500 436.846 C 1003.300 437.241, 1011.078 437.924, 1011.786 438.363 C 1012.493 438.803, 1015.643 439.568, 1018.786 440.064 C 1026.359 441.259, 1034.399 443.535, 1038.320 445.592 C 1046.856 450.071, 1049.267 451.078, 1053.754 452.041 C 1060.285 453.441, 1064.830 456.372, 1066.517 460.272 C 1067.286 462.047, 1068.831 464.850, 1069.951 466.500 C 1071.071 468.150, 1071.990 470.711, 1071.993 472.191 C 1071.997 473.671, 1072.450 475.160, 1073 475.500 C 1073.550 475.840, 1074 477.243, 1074 478.618 C 1074 480.030, 1074.435 480.849, 1075 480.500 C 1075.550 480.160, 1076 478.839, 1076 477.563 C 1076 476.288, 1076.631 474.721, 1077.402 474.081 C 1078.173 473.442, 1079.070 471.858, 1079.395 470.562 C 1080.681 465.437, 1091.199 461.516, 1101.015 462.501 C 1108.121 463.215, 1113 466.011, 1113 469.369 C 1113 470.174, 1113.367 470.983, 1113.815 471.167 C 1114.263 471.350, 1115.337 473.300, 1116.202 475.500 L 1117.774 479.500 1128.887 479.783 L 1140 480.066 1140 475.483 C 1140 472.963, 1140.666 469.614, 1141.479 468.041 C 1142.927 465.240, 1142.893 465.158, 1139.850 464.098 C 1138.141 463.502, 1135.731 461.999, 1134.494 460.757 C 1129.971 456.218, 1127.449 454.269, 1125.163 453.548 C 1123.877 453.142, 1120.277 450.217, 1117.163 447.047 C 1110.826 440.599, 1109.080 439.503, 1101.671 437.325 C 1098.827 436.489, 1095.777 435.163, 1094.893 434.377 C 1094.010 433.592, 1090.635 432.009, 1087.393 430.859 C 1082.418 429.095, 1080.022 428.855, 1072.013 429.319 C 1062.078 429.894, 1062.206 429.834, 1058.083 435.800 C 1057.304 436.928, 1055.954 437.872, 1055.083 437.899 C 1054.212 437.925, 1051.337 438.216, 1048.694 438.545 C 1041.957 439.383, 1030.366 435.582, 1012.154 426.562 C 981.719 411.489, 985.846 412.796, 969.684 413.114 C 961.883 413.267, 951.661 413.034, 946.970 412.596 C 934.942 411.474, 920.302 413.385, 912.357 417.116 C 908.978 418.702, 905.517 420, 904.666 420 C 903.815 420, 902.840 420.450, 902.500 421 C 902.160 421.550, 900.640 422, 899.121 422 C 897.455 422, 894.801 423.312, 892.430 425.307 C 890.268 427.126, 886.857 429.376, 884.849 430.307 C 880.776 432.195, 874.462 432.557, 873.475 430.959 C 872.385 429.196, 865.496 425.218, 858.868 422.524 C 855.394 421.113, 851.190 418.671, 849.526 417.098 C 841.369 409.390, 827.025 407.312, 804.500 410.576" stroke="#ff8f93" fill="#ff8f93" fill-opacity="0.2" fill-rule="evenodd"/><path class="svg-region-OABl" d="M 1017 488.016 C 1008.216 490.498, 1002.553 492.579, 996 495.735 C 992.975 497.192, 987.800 499.310, 984.500 500.442 C 981.200 501.574, 978.500 502.950, 978.500 503.500 C 978.500 504.106, 984.953 504.697, 994.859 505 L 1011.217 505.500 1015.359 510.088 C 1017.636 512.611, 1020.737 515.434, 1022.250 516.361 C 1025.272 518.213, 1025.835 520.466, 1023.500 521.362 C 1021.633 522.078, 1021.537 524.608, 1023.350 525.304 C 1024.092 525.589, 1028.930 525.382, 1034.100 524.845 C 1039.270 524.307, 1047.263 523.624, 1051.863 523.327 C 1059.222 522.850, 1061.249 522.259, 1068.763 518.393 C 1073.459 515.977, 1078.107 514, 1079.091 514 C 1080.076 514, 1081.160 513.550, 1081.500 513 C 1081.840 512.450, 1084.751 512, 1087.969 512 C 1093.601 512, 1093.980 512.168, 1098.109 516.500 C 1100.467 518.975, 1102.983 521, 1103.699 521 C 1104.414 521, 1105 521.382, 1105 521.848 C 1105 522.315, 1106.862 523.536, 1109.138 524.562 C 1114.775 527.104, 1125.480 537.986, 1127.955 543.689 C 1130.756 550.146, 1141.967 548.995, 1148.858 541.544 C 1152.758 537.326, 1151.394 534.571, 1141.437 526.555 C 1137.764 523.598, 1134.604 519.261, 1130.187 511.117 C 1128.880 508.707, 1125.580 504.539, 1122.854 501.856 C 1118.320 497.393, 1117.327 496.895, 1111.199 496.008 C 1107.514 495.476, 1101.800 495.016, 1098.500 494.987 C 1093.699 494.945, 1091.501 494.342, 1087.500 491.968 C 1084.750 490.337, 1081.150 488.362, 1079.500 487.579 C 1076.501 486.156, 1076.500 486.157, 1076.196 489.470 C 1075.923 492.444, 1075.462 492.893, 1071.702 493.848 C 1067.281 494.970, 1066.503 494.642, 1064.617 490.859 C 1063.496 488.611, 1063.150 488.558, 1051.427 488.861 C 1041.396 489.120, 1039.168 488.907, 1038.071 487.586 C 1036.262 485.406, 1025.462 485.626, 1017 488.016" stroke="#81244d" fill="#81244d" fill-opacity="0.2" fill-rule="evenodd"/><path class="svg-region-OABr" d="M 693.207 480.379 C 687.354 485.824, 674.195 492.505, 664.130 495.142 C 658.338 496.659, 654.794 496.997, 649.418 496.544 C 643.327 496.031, 641.987 496.222, 639.834 497.916 C 638.457 498.999, 634.334 501.316, 630.672 503.066 C 624.153 506.179, 619.539 510.020, 611.500 519.021 C 609.300 521.484, 605.851 524.815, 603.837 526.422 L 600.173 529.344 603.314 531.029 C 606.525 532.751, 609.796 537.236, 609.927 540.095 C 610.040 542.569, 613.350 545, 616.606 545 C 618.485 545, 620.745 543.912, 622.839 542 C 624.645 540.350, 626.445 539, 626.839 539 C 627.232 539, 630.461 535.461, 634.014 531.136 C 637.567 526.810, 642.260 522.198, 644.442 520.886 C 646.625 519.574, 650.141 517.481, 652.256 516.236 C 658.273 512.695, 669.541 511.395, 677.785 513.291 C 681.478 514.140, 687.019 515.093, 690.099 515.408 C 693.178 515.724, 697.678 516.692, 700.099 517.559 C 703.269 518.695, 706.219 518.958, 710.643 518.500 C 716.208 517.924, 717.369 518.157, 722.958 520.979 C 726.352 522.692, 729.887 523.852, 730.814 523.556 C 732.914 522.885, 733.289 516.146, 731.335 514.192 C 729.259 512.116, 729.662 506.692, 732 505.232 C 733.110 504.539, 734 502.900, 734 501.551 C 734 498.696, 735.161 497.820, 739.966 497.046 C 742.902 496.573, 743.554 496.013, 743.816 493.738 C 744.112 491.184, 744.451 491, 748.872 491 C 752.357 491, 754.508 491.662, 757 493.500 C 760.212 495.870, 763.554 496.872, 762.833 495.250 C 761.875 493.093, 748.909 481.946, 745.163 480.057 C 738.623 476.760, 726.988 476.919, 707.471 480.573 C 705.117 481.013, 703.825 480.567, 701.670 478.570 C 700.145 477.156, 698.676 476, 698.406 476 C 698.135 476, 695.796 477.971, 693.207 480.379" stroke="#81244d" fill="#81244d" fill-opacity="0.2" fill-rule="evenodd"/><path class="svg-region-OVl" d="M 1090 462.940 C 1081.404 465.579, 1076 472.742, 1076 481.494 C 1076 486.375, 1076.203 486.834, 1078.637 487.445 C 1080.087 487.809, 1082.674 489.136, 1084.387 490.394 C 1089.142 493.886, 1092.595 494.789, 1103.818 495.472 C 1109.492 495.818, 1115.117 496.480, 1116.318 496.943 C 1120.134 498.417, 1127.648 506.372, 1130.455 511.911 C 1133.471 517.863, 1133.412 517.777, 1138.625 523.815 C 1140.673 526.188, 1143.613 528.783, 1145.158 529.582 C 1146.702 530.380, 1148.687 532.428, 1149.568 534.132 C 1151.437 537.747, 1151.645 537.568, 1155.543 529 C 1157.169 525.425, 1159.126 522.010, 1159.891 521.410 C 1161.448 520.191, 1160.647 513, 1158.955 513 C 1158.430 513, 1158 512.528, 1158 511.952 C 1158 511.375, 1154.951 507.888, 1151.224 504.202 C 1144.194 497.250, 1140 489.306, 1140 482.944 L 1140 480.066 1128.905 479.783 L 1117.810 479.500 1116.441 475.512 C 1115.688 473.319, 1114.606 471.369, 1114.036 471.179 C 1113.466 470.989, 1113 470.177, 1113 469.375 C 1113 466.757, 1109.212 463.771, 1104.811 462.920 C 1099.545 461.903, 1093.351 461.911, 1090 462.940" stroke="#593939" fill="#593939" fill-opacity="0.2" fill-rule="evenodd"/><path class="svg-region-OVr" d="M 660.773 458.560 C 660.465 458.869, 657.214 459.545, 653.549 460.064 C 647.583 460.909, 641.367 463.144, 640 464.934 C 639.725 465.295, 637.700 466.665, 635.500 467.980 C 632.450 469.802, 629.483 470.504, 623.010 470.935 L 614.520 471.500 613.737 476.969 C 613.062 481.677, 611.341 486.146, 605.699 497.834 C 605.079 499.118, 603.206 501.101, 601.536 502.241 C 599.866 503.381, 596.925 505.794, 595 507.604 C 593.075 509.414, 587.524 512.920, 582.665 515.395 C 569.549 522.077, 569.413 522.284, 572.978 530.141 C 574.066 532.538, 574.966 535.737, 574.978 537.250 C 574.990 538.763, 575.450 540, 576 540 C 576.550 540, 577 540.675, 577 541.500 C 577 544.514, 581.088 542.880, 585.654 538.043 C 588.227 535.317, 591.608 532.806, 593.166 532.463 C 594.725 532.121, 596 531.483, 596 531.046 C 596 530.608, 597.237 529.990, 598.750 529.673 C 601.498 529.096, 607.656 523.639, 617.977 512.636 C 621.618 508.754, 625.808 505.620, 630.477 503.287 C 634.340 501.357, 638.335 499.040, 639.355 498.139 C 640.813 496.851, 643.383 496.499, 651.355 496.494 C 659.450 496.489, 662.914 496.002, 668.500 494.083 C 678.065 490.797, 687.570 485.504, 693.207 480.325 C 695.796 477.946, 698.384 476, 698.957 476 C 699.531 476, 700 474.456, 700 472.568 C 700 469.906, 699.336 468.663, 697.038 467.027 C 695.130 465.668, 693.844 463.686, 693.426 461.459 L 692.777 458 677.055 458 C 668.408 458, 661.081 458.252, 660.773 458.560" stroke="#593939" fill="#593939" fill-opacity="0.2" fill-rule="evenodd"/>
    </svg>