<svg xmlns="http://www.w3.org/2000/svg" width="1785" height="1131" viewBox="0 0 1785 1131" version="1.1">
    <path class="svg-region-AAB" d="M 809.500 483.095 C 807.850 483.603, 800.650 484.469, 793.500 485.021 C 786.350 485.572, 778.700 486.453, 776.500 486.977 C 772.048 488.039, 761.633 490.236, 752.500 492.039 C 733.974 495.698, 730.656 497.833, 724.952 509.769 C 722.778 514.317, 721 518.973, 721 520.115 C 721 521.257, 720.112 523.439, 719.026 524.964 C 717.164 527.578, 717.150 527.818, 718.776 529.162 C 719.724 529.946, 723.875 531.386, 728 532.363 C 732.125 533.339, 737.750 534.947, 740.500 535.935 C 743.250 536.924, 749.100 538.891, 753.500 540.308 C 768.600 545.168, 777.352 548.889, 790.869 556.191 C 800.122 561.190, 807.613 561.964, 823 559.511 C 828.775 558.590, 836.425 557.649, 840 557.420 C 848.468 556.877, 863.227 554.921, 864.486 554.175 C 865.028 553.854, 866.885 553.713, 868.612 553.861 C 871.445 554.105, 871.799 553.823, 872.215 550.988 C 872.469 549.258, 872.321 545.594, 871.886 542.845 C 871.452 540.096, 871.511 535.519, 872.017 532.673 C 872.524 529.828, 872.753 524.350, 872.527 520.500 C 871.892 509.692, 870.257 494.686, 869.511 492.820 C 868.723 490.849, 863.967 489, 859.683 489 C 858.023 489, 850.454 487.425, 842.863 485.500 C 828.553 481.871, 816.339 480.991, 809.500 483.095 M 971.500 485.542 C 953.043 487.083, 920.908 487.769, 915.500 486.737 C 911.644 486.001, 911.284 486.172, 905.500 491.485 L 899.500 496.997 899.520 517.248 C 899.541 538.059, 901.037 549.758, 904.586 556.872 C 906.552 560.813, 912.701 566.252, 917.007 567.861 C 918.928 568.579, 922.075 569.888, 924 570.771 C 929.431 573.263, 949.462 573.679, 958.973 571.497 C 972.740 568.339, 989.492 561.741, 993.450 557.918 C 993.973 557.413, 995.548 556.992, 996.950 556.982 C 998.353 556.972, 1001.934 555.622, 1004.910 553.982 C 1007.885 552.342, 1010.690 551, 1011.142 551 C 1011.595 551, 1014.945 549.176, 1018.587 546.947 C 1022.229 544.718, 1027.524 542.022, 1030.354 540.957 C 1037.252 538.360, 1039.101 535.213, 1037.322 529.101 C 1036.617 526.682, 1035.391 523.982, 1034.596 523.101 C 1033.657 522.061, 1032.979 518.347, 1032.661 512.500 C 1032.393 507.550, 1031.796 501.250, 1031.336 498.500 L 1030.500 493.500 1022.500 491.936 C 1013.732 490.223, 1005.384 487.406, 1002.921 485.331 C 1001.014 483.723, 992.609 483.780, 971.500 485.542" stroke="#7f3c1a" fill="#7f3c1a" fill-opacity="0.2" fill-rule="evenodd"/><path class="svg-region-APB" d="M 908.838 457.788 C 904.580 462.863, 899.921 473.362, 899.313 479.256 C 898.761 484.602, 898.855 484.920, 901.116 485.386 C 912.628 487.757, 944.707 487.788, 973.483 485.457 C 995.881 483.642, 1000.919 483.630, 1002.921 485.382 C 1005.131 487.317, 1018.474 491.676, 1024.672 492.488 C 1029.495 493.121, 1029.960 492.990, 1031.554 490.557 C 1033.926 486.938, 1038.654 483.763, 1042.913 482.931 C 1046.034 482.321, 1045.720 482.213, 1040.500 482.103 C 1030.431 481.889, 1012.353 472.533, 1006.130 464.315 C 1004.186 461.748, 1003.905 461.655, 1002.946 463.257 C 1002.367 464.223, 1000.135 465.911, 997.986 467.007 C 993.403 469.345, 986.068 469.571, 967 467.961 C 947.257 466.294, 942.343 465.198, 933.500 460.493 C 927.015 457.042, 924.144 456.119, 918.338 455.619 C 911.393 455.021, 911.105 455.087, 908.838 457.788 M 847.545 457.785 C 847.151 458.178, 842.929 458.513, 838.164 458.528 C 830.749 458.553, 827.986 459.094, 819 462.285 C 803.237 467.882, 802.816 467.995, 793.319 469.183 C 777.690 471.139, 764.471 470.769, 756.397 468.149 C 747.839 465.371, 743.527 466.104, 736.792 471.481 C 734.431 473.365, 731.038 475.654, 729.250 476.567 C 724.663 478.911, 725.208 480, 730.969 480 C 736.887 480, 744 483.282, 744 486.012 C 744 488.520, 749.849 493.285, 751.890 492.440 C 752.776 492.073, 756.650 491.170, 760.500 490.433 C 764.350 489.695, 770.641 488.398, 774.481 487.550 C 778.320 486.702, 785.745 485.748, 790.981 485.430 C 796.216 485.113, 803.811 484.211, 807.857 483.426 C 819.356 481.197, 826.798 481.626, 842.420 485.418 C 850.164 487.297, 858.663 489.045, 861.307 489.301 L 866.115 489.767 865.487 484.134 C 864.660 476.709, 863.414 473.602, 858.613 467 C 853.467 459.924, 849.072 456.264, 847.545 457.785" stroke="#ac7444" fill="#ac7444" fill-opacity="0.2" fill-rule="evenodd"/><path class="svg-region-PC" d="M 785 433.067 C 779.775 433.485, 773.250 434.482, 770.500 435.284 C 760.212 438.281, 754.470 440.404, 753.500 441.568 C 752.950 442.228, 751.375 443.001, 750 443.285 C 743.097 444.714, 737.030 446.828, 735.530 448.327 C 734.610 449.247, 733.079 450, 732.129 450 C 730.396 450, 728 451.794, 728 453.092 C 728 453.472, 729.237 454.088, 730.750 454.461 C 735.072 455.526, 742 459.238, 742 460.489 C 742 462.697, 746.099 466, 748.839 466 C 750.358 466, 752.039 466.439, 752.576 466.976 C 754.555 468.955, 768.916 471.158, 776.763 470.686 C 794.612 469.613, 802.643 468.114, 816.102 463.347 C 828.187 459.067, 830.382 458.597, 838.500 458.551 L 847.500 458.500 847.804 454.314 C 848.136 449.747, 845.710 443.480, 841.721 438.602 C 839.577 435.979, 838.550 435.628, 830.926 434.910 C 826.292 434.474, 819.350 433.656, 815.500 433.091 C 807.685 431.946, 799.109 431.939, 785 433.067 M 934.500 436.995 C 929.691 437.749, 924.113 440.542, 923.327 442.589 C 923.014 443.406, 921.498 444.726, 919.958 445.522 C 918.418 446.318, 916.180 448.342, 914.986 450.020 C 912.028 454.173, 913.584 456, 920.080 456 C 923.850 456, 926.740 456.959, 933.207 460.356 C 942.380 465.175, 947.410 466.307, 967 467.961 C 990.194 469.920, 996.432 469.323, 1001.750 464.635 C 1004.100 462.563, 1004.713 459.558, 1003 458.500 C 1002.450 458.160, 1002 456.533, 1002 454.885 C 1002 450.887, 996.766 446, 992.485 446 C 990.798 446, 983.585 444.045, 976.458 441.655 C 964.606 437.681, 962.433 437.270, 951 436.839 C 944.125 436.580, 936.700 436.650, 934.500 436.995" stroke="#cda789" fill="#cda789" fill-opacity="0.2" fill-rule="evenodd"/><path class="svg-region-IBl" d="M 1003.200 449.200 C 1000.220 452.180, 1003.605 462.560, 1009.225 467.675 C 1013.626 471.682, 1023.563 477.687, 1029.339 479.832 C 1037.615 482.905, 1043.192 482.720, 1046.933 479.250 C 1049.711 476.674, 1050.433 474.270, 1050.106 468.694 C 1049.961 466.218, 1044.437 461.302, 1039 458.811 C 1036.525 457.676, 1033.355 455.940, 1031.956 454.952 C 1024.712 449.840, 1006.253 446.147, 1003.200 449.200" stroke="#b10e0e" fill="#b10e0e" fill-opacity="0.2" fill-rule="evenodd"/><path class="svg-region-IBr" d="M 723 455 C 722.175 455.533, 720.708 455.976, 719.739 455.985 C 718.771 455.993, 716.071 456.847, 713.739 457.882 C 711.408 458.917, 707.925 460.360, 706 461.089 C 704.075 461.819, 700.138 464.637, 697.250 467.353 C 692.368 471.944, 692 472.618, 692 476.971 C 692 480.570, 692.535 482.154, 694.314 483.826 C 698.865 488.101, 713.794 485.879, 724.921 479.270 C 727.439 477.774, 730.713 475.864, 732.196 475.025 C 736.411 472.641, 743 466.306, 743 464.638 C 743 460.431, 740.997 458.143, 735.523 456.095 C 729.467 453.829, 725.367 453.470, 723 455" stroke="#b10e0e" fill="#b10e0e" fill-opacity="0.2" fill-rule="evenodd"/><path class="svg-region-MB" d="M 1027.500 324.924 C 1026.400 325.362, 1016.725 325.987, 1006 326.312 C 983.470 326.994, 977.255 328.205, 965.861 334.133 C 956.501 339.003, 949.146 346.498, 944.946 355.447 C 941.707 362.350, 937.317 376.084, 936.363 382.300 C 936.009 384.610, 934.859 388.215, 933.808 390.311 C 932.757 392.407, 930.973 397.132, 929.844 400.811 C 928.715 404.490, 927.413 407.966, 926.951 408.536 C 926.489 409.105, 924.736 412.343, 923.055 415.730 C 919.479 422.938, 918.739 430.736, 921.750 429.490 C 922.712 429.091, 925.975 427.973, 929 427.005 C 932.025 426.037, 935.850 424.518, 937.500 423.629 C 941.606 421.416, 962.777 421.386, 972.500 423.578 C 976.350 424.446, 984 425.528, 989.500 425.983 C 995 426.437, 1002.200 427.484, 1005.500 428.309 C 1008.800 429.134, 1013.537 430.090, 1016.027 430.432 C 1018.516 430.775, 1021.776 431.690, 1023.271 432.466 C 1024.766 433.241, 1028.129 434.192, 1030.745 434.579 C 1033.360 434.965, 1038.475 436.792, 1042.111 438.638 C 1045.747 440.484, 1050.144 442.279, 1051.882 442.626 C 1053.620 442.974, 1055.284 443.650, 1055.580 444.129 C 1055.876 444.608, 1059.293 445, 1063.175 445 C 1069.885 445, 1070.556 444.780, 1076.866 440.507 C 1085.848 434.424, 1086.216 434.076, 1088.502 429.500 C 1090.979 424.541, 1091.661 424.034, 1095.884 424.015 C 1101.069 423.992, 1106.524 425.972, 1109.988 429.136 C 1111.712 430.711, 1114.024 432, 1115.125 432 C 1117.673 432, 1127.799 436.775, 1130.746 439.366 C 1131.981 440.453, 1133.311 441.022, 1133.701 440.632 C 1134.791 439.543, 1135.314 427.669, 1134.544 421.506 C 1133.894 416.302, 1133.722 416.032, 1131.437 416.605 C 1129.842 417.006, 1128.890 416.751, 1128.640 415.856 C 1128.432 415.110, 1127.451 410.900, 1126.459 406.500 C 1125.467 402.100, 1124.095 397.375, 1123.410 396 C 1121.758 392.683, 1115.698 386.951, 1109.389 382.737 C 1104.922 379.753, 1104.048 379.491, 1102.448 380.661 C 1101.313 381.492, 1097.831 382, 1093.280 382 C 1087.103 382, 1084.996 381.522, 1079.955 378.977 C 1073.608 375.774, 1065.419 368.077, 1056.413 356.853 C 1053.480 353.198, 1048.403 347.879, 1045.132 345.034 C 1036.427 337.462, 1034.979 331.895, 1040.248 326.250 L 1042.349 324 1035.924 324.063 C 1032.391 324.098, 1028.600 324.485, 1027.500 324.924 M 765 326.247 C 763.075 326.760, 757.900 328.248, 753.500 329.552 C 748.948 330.902, 740.646 332.305, 734.238 332.807 C 728.044 333.293, 722.748 333.919, 722.470 334.197 C 722.192 334.475, 722.645 336.007, 723.476 337.601 C 726.860 344.091, 726.171 345.315, 710.250 361.114 C 699.886 371.398, 693.864 376.571, 690 378.510 C 686.975 380.028, 683.427 382.109, 682.115 383.135 C 679.567 385.128, 672.550 385.700, 671.500 384 C 670.218 381.925, 669.043 383.176, 666.992 388.801 C 664.523 395.572, 657.976 403.694, 653.468 405.578 C 651.734 406.303, 648.401 408.494, 646.063 410.448 C 643.724 412.401, 641.359 414, 640.807 414 C 639.087 414, 634 407.890, 634 405.824 C 634 403.900, 628.401 394.824, 626.808 394.167 C 626.364 393.983, 626 393.096, 626 392.194 C 626 389.344, 623.093 394.400, 620.797 401.243 C 617.075 412.334, 618.159 432.954, 622.931 441.871 C 623.963 443.799, 624.250 443.828, 628.758 442.461 C 631.366 441.669, 635.202 441.017, 637.283 441.011 C 639.364 441.005, 643.374 439.831, 646.194 438.402 C 651.040 435.946, 651.986 435.824, 663.411 436.185 C 676.695 436.604, 679.615 437.557, 684.879 443.188 L 687.860 446.379 694.180 444.939 C 702.277 443.095, 727.998 443.320, 733.701 445.285 C 737.230 446.501, 738.488 446.419, 745.574 444.515 C 752.251 442.720, 753.552 442.030, 753.828 440.131 C 754.008 438.892, 754.908 437.649, 755.828 437.370 C 758.988 436.411, 772.503 430.804, 776 429.001 C 787.606 423.017, 810.911 420.849, 824.835 424.457 C 828.110 425.306, 832.636 426, 834.894 426 L 839 426 839 421.736 C 839 419.391, 838.100 415.009, 837 412 C 835.900 408.991, 835 405.547, 835 404.347 C 835 403.148, 833.267 397.291, 831.150 391.333 C 827.544 381.188, 825.944 375.462, 822.951 362 C 821.132 353.819, 818.249 348.191, 812.431 341.466 C 806.424 334.524, 799.160 330.162, 791.692 329.013 C 788.836 328.574, 784.025 327.754, 781 327.191 C 771.688 325.458, 768.633 325.278, 765 326.247 M 1049.782 470.384 C 1050.191 475.322, 1049.968 476.123, 1047.492 478.599 C 1044.893 481.198, 1044.844 481.413, 1046.565 482.671 C 1047.565 483.402, 1049.858 484, 1051.661 484 C 1056.240 484, 1061.450 487.201, 1068.094 494.097 C 1072.972 499.160, 1074.294 500, 1077.390 500 C 1080.408 500, 1081 499.650, 1081 497.868 C 1081 496.695, 1080.149 494.333, 1079.108 492.618 C 1078.067 490.903, 1076.913 488.069, 1076.544 486.319 C 1075.794 482.771, 1074.669 481.591, 1071 480.504 C 1067.182 479.373, 1065.296 477.265, 1063.409 472.017 C 1061.741 467.378, 1061.538 467.209, 1057.093 466.733 C 1054.567 466.463, 1051.786 465.943, 1050.914 465.577 C 1049.549 465.005, 1049.391 465.674, 1049.782 470.384" stroke="#f9c6c6" fill="#f9c6c6" fill-opacity="0.2" fill-rule="evenodd"/><path class="svg-region-LBl" d="M 1049.409 320.500 C 1048.034 321.875, 1046.210 323, 1045.355 323 C 1044.500 323, 1042.270 324.530, 1040.400 326.400 C 1037.737 329.063, 1037 330.616, 1037 333.566 C 1037 336.991, 1037.803 338.111, 1045.849 345.916 C 1050.715 350.637, 1056.003 356.278, 1057.599 358.450 C 1063.611 366.637, 1073.485 375.756, 1079.721 378.882 C 1085.067 381.561, 1087.023 382, 1093.614 382 L 1101.286 382 1106.030 377.250 C 1111.330 371.944, 1112.782 368.183, 1113.672 357.462 C 1114.724 344.790, 1110.983 340.525, 1087.717 327.871 C 1072.335 319.504, 1068.022 318, 1059.421 318 C 1052.742 318, 1051.632 318.277, 1049.409 320.500" stroke="#79495c" fill="#79495c" fill-opacity="0.2" fill-rule="evenodd"/><path class="svg-region-LBr" d="M 690.527 332.114 C 682.776 333.243, 674.979 337.110, 671.039 341.780 C 659.812 355.088, 660 354.766, 660 360.709 C 660 365.451, 660.689 367.561, 664.547 374.638 C 667.048 379.226, 669.943 383.434, 670.981 383.990 C 673.917 385.561, 680.574 385.218, 682.068 383.418 C 682.790 382.549, 685.882 380.562, 688.940 379.005 C 691.998 377.447, 696.975 374.044, 700 371.443 C 707.350 365.123, 722.581 349.651, 723.925 347.140 C 726.750 341.862, 723.714 335.032, 717.364 332.379 C 713.683 330.841, 700.184 330.707, 690.527 332.114" stroke="#79495c" fill="#79495c" fill-opacity="0.2" fill-rule="evenodd"/><path class="svg-region-DMl" d="M 1115.035 354.934 C 1114.466 355.998, 1113.997 358.586, 1113.994 360.684 C 1113.985 366.985, 1112.011 372.220, 1108.395 375.533 C 1106.528 377.243, 1105 378.953, 1105 379.333 C 1105 379.714, 1107.366 381.539, 1110.259 383.389 C 1116.822 387.587, 1123.734 394.987, 1124.553 398.691 C 1124.895 400.236, 1125.810 403.819, 1126.587 406.654 C 1127.364 409.489, 1128 412.765, 1128 413.935 C 1128 415.105, 1128.634 416.306, 1129.410 416.604 C 1130.958 417.198, 1137 414.437, 1137 413.135 C 1137 412.687, 1138.037 411.848, 1139.305 411.271 C 1141.001 410.498, 1142.079 408.538, 1143.379 403.860 C 1144.351 400.362, 1146.029 396.073, 1147.106 394.329 C 1149.058 391.170, 1149.058 391.143, 1147.021 387.829 C 1145.896 385.998, 1144.507 382.786, 1143.933 380.691 C 1143.159 377.862, 1141.701 376.061, 1138.263 373.691 C 1133.330 370.290, 1132.460 369.467, 1127 363.027 C 1117.750 352.118, 1116.863 351.519, 1115.035 354.934" stroke="#68533d" fill="#68533d" fill-opacity="0.2" fill-rule="evenodd"/><path class="svg-region-DMr" d="M 655.080 358.475 C 653.199 359.155, 649.920 361.576, 647.794 363.855 C 645.667 366.135, 643.457 368, 642.882 368 C 641.511 368, 632.596 377.362, 628.903 382.680 C 624.869 388.489, 625.108 391.904, 630 398.384 C 632.200 401.298, 634 404.339, 634 405.142 C 634 407.856, 636.487 411.899, 638.807 412.957 C 641.308 414.097, 643.696 413.276, 646.019 410.477 C 646.765 409.579, 649.564 407.734, 652.240 406.378 C 658.459 403.227, 662.229 399.080, 665.994 391.247 C 669.453 384.053, 669.561 382.616, 666.954 378.500 C 661.904 370.528, 660 365.882, 660 361.533 C 660 359.040, 659.663 357.054, 659.250 357.119 C 658.837 357.185, 656.961 357.795, 655.080 358.475" stroke="#68533d" fill="#68533d" fill-opacity="0.2" fill-rule="evenodd"/><path class="svg-region-PV" d="M 880.411 172.359 C 878.162 173.093, 871.131 176.463, 864.787 179.847 C 855.749 184.668, 852.304 186.003, 848.876 186.014 C 846.469 186.021, 843.525 186.289, 842.333 186.609 C 840.250 187.167, 840.221 187.351, 841.584 191.345 C 846.715 206.378, 849 214.630, 849 218.123 C 849 220.328, 849.480 223.029, 850.067 224.125 C 850.654 225.221, 851.561 230.245, 852.082 235.289 C 853.296 247.016, 854.396 248.327, 859.945 244.655 C 862.168 243.184, 865.070 240.297, 866.392 238.240 C 872.720 228.396, 879.064 226.128, 891.939 229.110 C 898.813 230.702, 901.061 231.699, 903.346 234.169 C 908.162 239.376, 917.676 246.881, 920.295 247.538 C 923.681 248.388, 924.370 246.977, 925.202 237.500 C 926.613 221.403, 930.159 204.857, 934.405 194.550 C 935.976 190.737, 936.556 188.044, 936.020 187.050 C 933.973 183.256, 930.142 181.002, 923.288 179.561 C 919.355 178.733, 913.348 176.595, 909.940 174.808 C 904.378 171.893, 902.760 171.533, 894.122 171.292 C 888.090 171.123, 882.975 171.521, 880.411 172.359" stroke="#b09658" fill="#b09658" fill-opacity="0.2" fill-rule="evenodd"/><path class="svg-region-Fl" d="M 959.500 162 C 958.400 162.473, 955.250 162.893, 952.500 162.933 C 946.630 163.020, 941.413 165.783, 939.975 169.566 C 939.439 170.976, 938.990 174.238, 938.979 176.815 C 938.967 179.458, 937.630 185.205, 935.913 190 C 928.046 211.961, 925.747 224.115, 925.605 244.500 L 925.500 259.500 929.750 266.108 C 932.087 269.742, 934 273.365, 934 274.158 C 934 274.951, 934.376 276.027, 934.835 276.550 C 935.294 277.072, 936.442 279.602, 937.387 282.171 C 938.332 284.740, 939.757 287.383, 940.553 288.044 C 941.349 288.704, 942 290.216, 942 291.404 C 942 292.711, 944.317 295.856, 947.873 299.375 C 952.750 304.201, 954.829 305.496, 960.123 307.010 C 963.631 308.012, 968.300 309.525, 970.500 310.372 C 976.263 312.591, 994.982 312.578, 999.285 310.352 C 1007.023 306.351, 1021.027 302.273, 1031.500 300.970 C 1042.324 299.623, 1046.560 298.492, 1049.533 296.153 C 1051.038 294.969, 1052.899 294, 1053.668 294 C 1057.073 294, 1065.928 288.408, 1070.779 283.194 C 1074.917 278.747, 1076.472 276.114, 1077.972 271.010 C 1081.405 259.329, 1081.442 259, 1079.296 259 C 1076.912 259, 1073.651 254.703, 1071.737 249.040 C 1070.934 246.666, 1068.208 242.597, 1065.642 239.944 C 1061.893 236.067, 1061 234.461, 1061 231.595 C 1061 228.913, 1061.611 227.646, 1063.500 226.408 C 1065.649 225, 1066 224.022, 1066 219.444 C 1066 216.515, 1066.436 213.848, 1066.969 213.519 C 1068.084 212.830, 1062.852 205.316, 1057.290 199.618 C 1049.645 191.788, 1030.481 180.835, 1016 176.019 C 1012.425 174.830, 1007.165 172.764, 1004.312 171.429 C 1001.458 170.093, 998.045 169, 996.727 169 C 995.409 169, 991.567 168.093, 988.190 166.984 C 984.813 165.876, 979.901 164.687, 977.275 164.344 C 974.649 164, 971.285 163.107, 969.800 162.359 C 966.792 160.845, 962.534 160.696, 959.500 162" stroke="#5ca7a9" fill="#5ca7a9" fill-opacity="0.2" fill-rule="evenodd"/><path class="svg-region-Fr" d="M 810.500 162.700 C 802.809 163.727, 785.094 167.271, 781.500 168.501 C 775.218 170.652, 758.674 177.926, 757.585 179.015 C 757.043 179.557, 755.790 180, 754.800 180 C 753.810 180, 753 180.353, 753 180.784 C 753 181.216, 751.674 182.352, 750.053 183.310 C 748.432 184.267, 744.662 187.284, 741.675 190.014 C 738.689 192.743, 734.463 195.995, 732.285 197.238 C 730.108 198.482, 725.954 201.637, 723.055 204.250 C 718.836 208.052, 718.201 209, 719.873 209 C 723.285 209, 723.798 213.540, 720.754 216.815 C 716.062 221.864, 715.219 224.250, 714.507 234.500 C 713.927 242.855, 713.367 245.240, 711.103 249 C 709.612 251.475, 707.802 254.959, 707.079 256.741 C 705.495 260.648, 699.888 264.417, 697.015 263.505 C 693.928 262.525, 694.492 264.904, 699 271.879 C 701.200 275.283, 703 278.310, 703 278.607 C 703 278.904, 705.577 281.477, 708.726 284.324 C 711.876 287.171, 716.003 291.025, 717.898 292.888 C 722.361 297.278, 739.212 305.699, 745 306.433 C 747.475 306.746, 756.817 307.477, 765.760 308.057 C 782.200 309.122, 784.093 309.559, 794.915 314.782 C 798.084 316.312, 802.673 317.566, 805.978 317.805 L 811.627 318.213 817.997 311.857 C 823.929 305.937, 842.906 281.767, 845.774 276.477 C 847.122 273.991, 849.052 266.006, 851.062 254.594 C 852.644 245.614, 852.462 230.061, 850.724 225.812 C 849.979 223.990, 849.262 220.481, 849.131 218.014 C 848.999 215.547, 847.736 210.147, 846.325 206.014 C 844.914 201.881, 843.394 197.150, 842.948 195.500 C 842.502 193.850, 840.550 187.854, 838.609 182.176 C 834.741 170.857, 833.714 169.628, 824.123 164.859 C 818.671 162.148, 816.826 161.856, 810.500 162.700" stroke="#5ca7a9" fill="#5ca7a9" fill-opacity="0.2" fill-rule="evenodd"/><path class="svg-region-PCl" d="M 1066.667 213.667 C 1066.300 214.033, 1066 216.682, 1066 219.552 C 1066 224.014, 1065.638 225.007, 1063.500 226.408 C 1061.563 227.677, 1061 228.897, 1061 231.828 C 1061 235.034, 1061.724 236.305, 1065.750 240.167 C 1069.065 243.347, 1070.921 246.159, 1071.893 249.473 C 1073.786 255.924, 1077.248 259.886, 1079.689 258.393 C 1081.244 257.443, 1081.542 255.602, 1081.796 245.393 C 1082.101 233.159, 1081.206 227.563, 1077.871 220.845 C 1075.041 215.145, 1069.035 211.298, 1066.667 213.667" stroke="#465ee0" fill="#465ee0" fill-opacity="0.2" fill-rule="evenodd"/><path class="svg-region-PCr" d="M 715.500 210.475 C 702.567 216.665, 694.479 234.516, 695.210 255.259 C 695.478 262.889, 695.664 263.523, 697.704 263.814 C 701.125 264.300, 705.653 260.241, 708.549 254.094 C 709.998 251.017, 711.777 247.825, 712.503 247 C 713.294 246.101, 714.117 241.291, 714.556 235 C 715.316 224.108, 716.333 221.244, 720.784 217.474 C 722.531 215.994, 723.085 214.646, 722.838 212.474 C 722.438 208.958, 720.036 208.304, 715.500 210.475" stroke="#465ee0" fill="#465ee0" fill-opacity="0.2" fill-rule="evenodd"/><path class="svg-region-Ol" d="M 1294.500 273.709 C 1283.022 276.300, 1270.809 280.537, 1265.770 283.676 C 1263.718 284.954, 1261.655 286, 1261.186 286 C 1259.311 286, 1246.887 295.356, 1242.711 299.912 C 1241.495 301.239, 1237.549 305.514, 1233.943 309.412 C 1225.548 318.488, 1216.980 334.955, 1213.606 348.500 C 1212.921 351.250, 1211.885 354.400, 1211.304 355.500 C 1210.723 356.600, 1209.937 360.483, 1209.557 364.129 L 1208.867 370.757 1218.748 380.629 C 1227.380 389.253, 1229.204 391.702, 1233.180 400.009 C 1235.683 405.240, 1238.242 411.899, 1238.866 414.809 C 1240.471 422.297, 1240.272 438.571, 1238.468 447.185 C 1236.918 454.591, 1231.588 469.706, 1229.913 471.450 C 1229.411 471.972, 1229 473.110, 1229 473.977 C 1229 475.501, 1225.579 480.432, 1217.451 490.625 C 1212.430 496.923, 1210.886 498.456, 1208.022 499.988 C 1206.729 500.680, 1203.062 503.167, 1199.873 505.515 C 1196.493 508.003, 1191.975 510.286, 1189.038 510.991 C 1186.121 511.691, 1184 512.759, 1184 513.528 C 1184 514.787, 1184.713 515.623, 1188.579 518.896 C 1190.880 520.843, 1189.983 527.486, 1186.784 532.186 C 1185.405 534.214, 1183.998 537.589, 1183.657 539.686 C 1183.149 542.820, 1182.189 544.075, 1178.269 546.725 C 1175.646 548.498, 1171.869 550.523, 1169.877 551.225 C 1167.884 551.926, 1164.284 554.184, 1161.877 556.242 C 1159.469 558.300, 1156.956 560.437, 1156.292 560.992 C 1154.324 562.635, 1149.453 562.144, 1146.768 560.032 C 1145.392 558.950, 1142.424 554.964, 1140.173 551.175 C 1136.057 544.247, 1130.486 536.786, 1127.347 534 C 1126.418 533.175, 1123.784 530.824, 1121.494 528.775 C 1115.203 523.147, 1109.739 521.048, 1101.309 521.022 C 1097.354 521.010, 1093.840 520.550, 1093.500 520 C 1092.756 518.796, 1081.335 518.649, 1080.603 519.833 C 1080.320 520.292, 1078.718 520.465, 1077.044 520.220 C 1074.852 519.898, 1074 520.177, 1074 521.216 C 1074 522.009, 1071.798 523.689, 1069.107 524.950 C 1066.417 526.210, 1062.078 529.444, 1059.465 532.137 C 1056.853 534.830, 1053.544 537.327, 1052.111 537.687 C 1047.991 538.721, 1039.337 544.678, 1036.287 548.579 C 1034.754 550.540, 1031.813 553.021, 1029.750 554.092 C 1027.688 555.164, 1026 556.707, 1026 557.520 C 1026 558.334, 1025.573 559, 1025.052 559 C 1023.231 559, 1012.271 568.863, 1008.760 573.662 C 1002.070 582.806, 995.662 595.473, 993.434 603.960 C 988.846 621.431, 995.038 641.757, 1013.588 670.118 C 1017.048 675.408, 1020.485 680.358, 1021.227 681.118 C 1021.968 681.878, 1023.653 684.300, 1024.971 686.500 C 1026.289 688.700, 1028.650 692.075, 1030.218 694 C 1034.666 699.460, 1034.702 699.508, 1038.468 705.158 C 1044.135 713.660, 1048.441 719.378, 1062.915 737.627 C 1070.387 747.047, 1080.100 759.383, 1084.500 765.042 C 1109.893 797.698, 1114.728 803.063, 1124.916 809.896 C 1127.987 811.955, 1133.200 814.426, 1136.500 815.386 C 1139.800 816.346, 1144.975 817.948, 1148 818.945 C 1173.593 827.383, 1212.887 831.421, 1231.535 827.531 C 1257.413 822.132, 1274.593 808.656, 1296.379 776.665 C 1304.262 765.089, 1333 709.972, 1333 706.428 C 1333 706.004, 1333.601 704.947, 1334.335 704.079 C 1335.069 703.210, 1337.332 698.567, 1339.364 693.759 C 1343.357 684.311, 1350.792 668.233, 1354.512 661 C 1355.786 658.525, 1358.216 653.812, 1359.914 650.528 C 1361.611 647.243, 1363 644.237, 1363 643.849 C 1363 643.148, 1367.514 635.092, 1373.281 625.500 C 1374.934 622.750, 1377.643 618.025, 1379.301 615 C 1380.959 611.975, 1384.607 606.097, 1387.408 601.939 C 1390.209 597.780, 1392.950 593.677, 1393.500 592.820 C 1394.050 591.964, 1400.350 582.463, 1407.500 571.707 C 1424.278 546.468, 1423.970 546.962, 1429.112 537 C 1431.526 532.325, 1433.838 528.350, 1434.250 528.167 C 1434.662 527.983, 1435 527.268, 1435 526.576 C 1435 525.885, 1436.303 522.660, 1437.897 519.410 C 1445.071 504.772, 1449.516 493.212, 1452.089 482.500 C 1454.564 472.195, 1456.754 454.845, 1456.505 447.500 C 1455.878 428.936, 1452.601 402.773, 1449.991 395.501 C 1449.005 392.750, 1447.909 388.503, 1447.557 386.063 C 1447.205 383.623, 1446.274 380.248, 1445.488 378.563 C 1443.837 375.023, 1439.070 361.565, 1438.294 358.250 C 1438.004 357.012, 1437.369 356, 1436.883 356 C 1436.398 356, 1436 355.436, 1436 354.748 C 1436 352.500, 1424.314 335.603, 1419.853 331.399 C 1396.830 309.706, 1379.654 294.743, 1374.875 292.215 C 1372.469 290.943, 1369.375 289.144, 1368 288.218 C 1364.726 286.012, 1359.225 283.509, 1350 280.027 C 1336.840 275.060, 1331.711 273.822, 1322.500 273.388 C 1317.550 273.154, 1310.575 272.826, 1307 272.659 C 1303.425 272.491, 1297.800 272.964, 1294.500 273.709" stroke="#aa444d" fill="#aa444d" fill-opacity="0.2" fill-rule="evenodd"/><path class="svg-region-Or" d="M 491 304 C 490.175 304.533, 487.925 304.977, 486 304.986 C 479.180 305.017, 461.080 309.400, 447 314.429 C 441.775 316.295, 436.587 318.086, 435.470 318.408 C 434.354 318.731, 430.994 320.571, 428.004 322.498 C 425.014 324.424, 421.652 326.005, 420.534 326.011 C 416.902 326.031, 385.130 347.254, 385.043 349.718 C 385.019 350.388, 382.930 352.413, 380.399 354.218 C 373.678 359.013, 363.007 368.787, 359.116 373.715 C 357.255 376.072, 355.118 378, 354.366 378 C 353.615 378, 353 378.342, 353 378.760 C 353 379.178, 351.832 380.780, 350.404 382.320 C 346.465 386.568, 332 408.838, 332 410.655 C 332 411.193, 330.624 414.304, 328.942 417.567 C 327.261 420.830, 325.484 425.300, 324.995 427.500 C 324.505 429.700, 323.400 434.200, 322.538 437.500 C 320.412 445.641, 320.340 465.071, 322.394 476.221 C 324.184 485.942, 330.669 506.493, 334.502 514.595 C 335.876 517.500, 337 520.343, 337 520.913 C 337 521.483, 338.403 524.999, 340.117 528.725 C 341.831 532.451, 344.563 538.875, 346.188 543 C 347.812 547.125, 349.773 551.894, 350.545 553.597 C 351.317 555.301, 353.512 560.790, 355.422 565.796 C 362.179 583.502, 364.336 588.533, 366.444 591.500 C 368.586 594.515, 369.956 597.676, 372.729 606 C 373.554 608.475, 375.583 613.875, 377.239 618 C 378.894 622.125, 381.717 629.325, 383.510 634 C 385.304 638.675, 388.207 645.573, 389.963 649.329 C 391.718 653.084, 393.841 658.484, 394.679 661.329 C 396.234 666.605, 399.631 674.616, 403.078 681.136 C 404.135 683.136, 405 685.461, 405 686.303 C 405 687.145, 405.358 687.983, 405.795 688.167 C 406.232 688.350, 407.536 691.200, 408.692 694.500 C 409.848 697.800, 413.808 707.700, 417.492 716.500 C 421.176 725.300, 428.410 742.942, 433.568 755.704 C 438.726 768.467, 443.822 780.842, 444.891 783.204 C 457.619 811.317, 464.302 824.445, 467.953 828.500 C 468.943 829.600, 470.873 832.300, 472.243 834.500 C 475.803 840.220, 487.681 852.764, 492.447 855.837 C 501.146 861.446, 507.327 863.380, 521.500 864.927 C 533.899 866.281, 538.135 866.282, 548.948 864.933 C 563.620 863.102, 580.803 856.722, 588 850.432 C 589.375 849.231, 593.425 846.282, 597 843.879 C 612.003 833.794, 632.233 815.543, 668.135 779.701 C 686.350 761.516, 695.818 751.269, 715.907 728 C 723.991 718.636, 741.927 694.080, 744.645 688.656 C 746.066 685.820, 747.893 682.744, 748.707 681.819 C 751.394 678.763, 761 660.043, 761 657.860 C 761 657.128, 762.183 654.047, 763.629 651.014 C 769.900 637.863, 772 629.504, 772 617.689 C 772 612.412, 771.597 607.060, 771.104 605.797 C 770.611 604.534, 769.639 601.587, 768.944 599.250 C 768.249 596.913, 767.302 595, 766.840 595 C 766.378 595, 766 594.306, 766 593.458 C 766 592.610, 765.542 591.372, 764.982 590.708 C 764.421 590.044, 761.100 585.650, 757.601 580.944 C 750.706 571.670, 744.691 565.201, 732.945 554.429 C 728.789 550.618, 722.573 544.913, 719.131 541.750 C 715.689 538.587, 712.433 536, 711.896 536 C 710.985 536, 705.114 532.219, 704 530.915 C 703.725 530.593, 700.812 529.109, 697.527 527.618 C 694.242 526.127, 690.742 524.171, 689.749 523.273 C 688.490 522.134, 685.443 521.507, 679.697 521.206 C 671.498 520.775, 671.424 520.793, 666.738 524.370 C 664.146 526.349, 659.733 529.166, 656.932 530.631 C 654.131 532.096, 651.472 534.259, 651.024 535.438 C 649.958 538.241, 648.324 539.474, 643.703 540.963 C 641.615 541.635, 637.941 543.832, 635.539 545.843 C 622.263 556.959, 623.183 556.471, 614.805 556.854 L 607.070 557.209 601.027 551.445 C 597.190 547.784, 594.584 544.343, 593.886 542.015 C 592.792 538.364, 593.181 523.727, 594.543 517.250 C 595.413 513.115, 594.644 513.149, 587.371 517.565 C 581.574 521.084, 581.380 521.125, 572 520.793 C 563.502 520.492, 562.078 520.161, 558.501 517.654 C 553.981 514.486, 550.931 510.956, 545.840 503 C 538.352 491.298, 535.046 484.043, 535.015 479.250 C 535.007 478.012, 534.550 477, 534 477 C 533.450 477, 533 474.975, 533 472.500 C 533 470.025, 532.550 468, 532 468 C 531.398 468, 531 463.871, 531 457.612 C 531 444.637, 534.270 432.222, 539.818 424.136 C 544.648 417.094, 544.620 417.142, 546.682 412.500 C 547.659 410.300, 550.268 406.678, 552.479 404.452 C 558.234 398.658, 561.365 394.168, 563.343 388.872 C 564.294 386.327, 565.956 383.445, 567.036 382.467 C 568.116 381.490, 569 379.842, 569 378.805 C 569 377.769, 569.989 375.026, 571.198 372.710 C 572.840 369.565, 573.403 366.729, 573.423 361.500 C 573.476 347.142, 568.454 335.591, 557.009 323.750 C 552.889 319.488, 549.199 316, 548.809 316 C 548.419 316, 546.100 314.650, 543.655 313 C 541.210 311.350, 538.782 310, 538.259 310 C 537.735 310, 535.881 309.288, 534.137 308.419 C 525.817 304.268, 495.406 301.153, 491 304" stroke="#aa444d" fill="#aa444d" fill-opacity="0.2" fill-rule="evenodd"/><path class="svg-region-Pl" d="M 1210 403.675 C 1204.225 406.761, 1197.304 411.022, 1194.619 413.143 C 1191.935 415.264, 1188.738 417, 1187.515 417 C 1186.293 417, 1184.170 418.040, 1182.798 419.312 C 1181.426 420.583, 1177.873 422.658, 1174.902 423.924 C 1161.477 429.641, 1148.883 439.610, 1147.359 445.725 C 1146.979 447.251, 1145.852 450.300, 1144.856 452.500 C 1143.664 455.132, 1143.036 458.925, 1143.022 463.589 C 1143 470.522, 1143.084 470.756, 1146.789 474.184 C 1149.107 476.329, 1151.093 479.399, 1151.905 482.095 C 1155.548 494.186, 1159.044 499.554, 1167.092 505.410 C 1178.874 513.983, 1188.477 513.837, 1200.739 504.898 C 1204.434 502.204, 1208.011 500, 1208.689 500 C 1209.366 500, 1212.871 496.288, 1216.477 491.750 C 1220.082 487.212, 1224.375 481.843, 1226.016 479.817 C 1227.657 477.792, 1229 475.294, 1229 474.267 C 1229 473.240, 1229.411 471.972, 1229.913 471.450 C 1231.588 469.706, 1236.918 454.591, 1238.468 447.185 C 1241.326 433.538, 1240.165 413.365, 1236.166 407.166 C 1233.768 403.450, 1225.971 397.997, 1223.106 398.032 C 1221.673 398.050, 1215.775 400.589, 1210 403.675" stroke="#f9d3d3" fill="#f9d3d3" fill-opacity="0.2" fill-rule="evenodd"/><path class="svg-region-Pr" d="M 541.500 424.433 C 537.919 426.487, 537.192 427.605, 534.564 435.113 C 532.094 442.166, 531.561 445.449, 531.211 455.750 C 530.921 464.263, 531.131 468, 531.897 468 C 532.535 468, 533 469.871, 533 472.441 C 533 474.884, 533.450 477.160, 534 477.500 C 534.550 477.840, 535 479.223, 535 480.573 C 535 481.923, 535.403 483.809, 535.895 484.764 C 536.387 485.719, 538.236 489.425, 540.005 493 C 545.716 504.548, 552.174 513.290, 558 517.358 C 562.118 520.233, 563.283 520.529, 571.732 520.846 C 580.819 521.186, 581.072 521.132, 587.732 517.429 C 596.818 512.378, 600.804 509.445, 605.139 504.620 C 607.141 502.392, 611.416 499.204, 614.639 497.535 L 620.500 494.500 620.787 484.038 C 620.945 478.283, 620.609 471.403, 620.039 468.748 C 618.994 463.876, 613.769 455.668, 611 454.551 C 610.175 454.218, 607.925 453.079, 606 452.021 C 604.075 450.962, 601.375 450.072, 600 450.042 C 595.393 449.944, 590.372 448.025, 587.937 445.433 L 585.523 442.864 588.163 437.914 C 591.323 431.987, 590.910 431.562, 581.176 430.722 C 577.483 430.403, 574.122 429.516, 573.097 428.588 C 571.128 426.806, 567.441 426.478, 566.500 428 C 565.300 429.942, 562.353 428.959, 559 425.500 C 555.975 422.379, 555.060 422.008, 550.554 422.069 C 547.214 422.115, 544.143 422.917, 541.500 424.433" stroke="#f9d3d3" fill="#f9d3d3" fill-opacity="0.2" fill-rule="evenodd"/><path class="svg-region-OLl" d="M 1150.375 391.638 C 1143.606 400.436, 1143.581 400.519, 1143.539 414 C 1143.499 426.770, 1145.252 438.275, 1147.643 440.929 C 1148.742 442.150, 1149.242 441.962, 1151.064 439.646 C 1153.858 436.093, 1163.573 429.657, 1173.204 424.978 C 1177.441 422.920, 1181.624 420.519, 1182.499 419.644 C 1183.374 418.769, 1185.870 417.574, 1188.045 416.988 C 1191.314 416.108, 1192 415.489, 1192 413.421 C 1192 410.505, 1185.279 403.622, 1180.279 401.417 C 1178.507 400.636, 1176.032 398.610, 1174.779 396.914 C 1172.168 393.382, 1163.769 389.204, 1157.571 388.355 C 1153.574 387.807, 1153.186 387.984, 1150.375 391.638" stroke="#c4875d" fill="#c4875d" fill-opacity="0.2" fill-rule="evenodd"/><path class="svg-region-OLr" d="M 605 397.034 C 600.883 399.550, 592.353 403, 590.248 403 C 588.848 403, 586.859 404.202, 585.408 405.926 C 584.054 407.536, 581.639 409.140, 580.043 409.491 C 576.247 410.324, 567.995 420.182, 568.011 423.865 C 568.027 427.332, 573.451 429.994, 582.382 430.919 C 585.983 431.292, 589.247 431.914, 589.635 432.301 C 590.022 432.689, 589.288 435.249, 588.004 437.991 C 585.698 442.915, 585.693 443.003, 587.585 445.126 C 590.052 447.896, 595.055 449.997, 599.218 450.012 C 601.023 450.019, 604.458 451.144, 606.852 452.512 C 610.548 454.625, 613.901 455.669, 614.037 454.750 C 614.756 449.912, 616.945 418.234, 616.956 412.500 C 616.977 402.252, 616.563 400.970, 612.348 398.250 C 608.586 395.822, 607.325 395.614, 605 397.034" stroke="#c4875d" fill="#c4875d" fill-opacity="0.2" fill-rule="evenodd"/><path class="svg-region-VOC" d="M 797 422.883 C 795.625 423.354, 791.710 424.262, 788.301 424.899 C 784.892 425.536, 779.042 427.442, 775.301 429.135 C 771.560 430.828, 766.125 433.290, 763.223 434.606 C 760.320 435.923, 757.309 437, 756.532 437 C 754.975 437, 753.485 438.818, 754.341 439.674 C 754.638 439.971, 758.621 439.059, 763.191 437.647 C 767.761 436.234, 773.525 434.655, 776 434.137 C 783.728 432.521, 805.998 431.876, 814.500 433.022 C 818.900 433.615, 826.281 434.461, 830.903 434.900 C 838.835 435.655, 839.462 435.890, 842.076 439.093 C 843.600 440.960, 845.179 442.155, 845.585 441.749 C 846.568 440.766, 844.053 433.289, 842.231 431.777 C 841.439 431.120, 840.400 429.551, 839.921 428.291 C 839.196 426.386, 838.314 426, 834.684 426 C 832.282 426, 828.138 425.344, 825.473 424.542 C 819.662 422.793, 800.514 421.677, 797 422.883 M 937.869 423.385 C 936.423 424.140, 932.205 425.767, 928.497 427.001 C 920.639 429.616, 918 431.864, 918 435.941 C 918 437.559, 917.550 439.160, 917 439.500 C 916.450 439.840, 916 441.943, 916 444.174 L 916 448.230 918.750 446.453 C 920.263 445.476, 922.512 443.601, 923.749 442.288 C 928.224 437.534, 932.275 436.622, 947.888 436.849 C 961.879 437.052, 962.650 437.179, 975.888 441.441 C 988.811 445.602, 1001.566 448, 1010.779 448 C 1013.075 448, 1017.777 449.070, 1021.227 450.379 C 1028.324 453.070, 1042.523 460.272, 1044.915 462.395 C 1047.363 464.566, 1053.909 467, 1057.301 467 C 1060.354 467, 1065.956 465.534, 1069.236 463.877 C 1071.446 462.761, 1098.281 462.721, 1099.550 463.831 C 1102.717 466.603, 1112.991 467.688, 1120.236 466.016 C 1122.581 465.475, 1125.724 464.794, 1127.220 464.504 C 1128.717 464.214, 1131.602 462.182, 1133.631 459.988 C 1135.661 457.795, 1137.945 456, 1138.708 456 C 1140.206 456, 1145 451.283, 1145 449.809 C 1145 449.314, 1143.430 449.204, 1141.511 449.564 C 1138.144 450.196, 1137.957 450.067, 1136.141 445.859 C 1135.106 443.462, 1133.413 440.769, 1132.380 439.876 C 1129.581 437.459, 1117.840 432, 1115.439 432 C 1114.289 432, 1112.313 430.898, 1111.048 429.551 C 1106.025 424.205, 1090 421.849, 1090 426.457 C 1090 429.231, 1083.781 435.992, 1077.211 440.360 C 1070.685 444.699, 1069.805 445, 1063.675 445 C 1060.068 445, 1056.877 444.611, 1056.583 444.135 C 1056.289 443.659, 1054.456 443.011, 1052.509 442.695 C 1050.563 442.379, 1045.940 440.582, 1042.235 438.701 C 1038.531 436.820, 1033.382 434.969, 1030.794 434.586 C 1028.206 434.204, 1024.831 433.265, 1023.294 432.501 C 1021.757 431.737, 1017.575 430.642, 1014 430.067 C 1010.425 429.493, 1005.925 428.542, 1004 427.953 C 1002.075 427.365, 995.775 426.489, 990 426.006 C 984.225 425.524, 976.575 424.441, 973 423.600 C 964.451 421.588, 941.581 421.448, 937.869 423.385 M 645.151 438.459 C 642.209 439.857, 638.159 441.007, 636.151 441.015 C 632.080 441.032, 625.558 443.042, 623.768 444.832 C 623.126 445.474, 622.015 446, 621.300 446 C 618.990 446, 619.719 455.044, 622.474 460.573 C 626.660 468.972, 628.013 469.391, 653.500 470.187 C 665.600 470.565, 679.158 471.173, 683.629 471.537 L 691.757 472.201 697.389 467.100 C 700.487 464.295, 703.471 462, 704.021 462 C 704.572 462, 706.929 461.138, 709.261 460.084 C 711.592 459.030, 716.425 457.175, 720 455.961 C 723.575 454.748, 727.322 453.035, 728.326 452.154 C 729.331 451.272, 731.547 450.090, 733.251 449.526 C 737.876 447.995, 737.729 446.273, 732.862 444.963 C 726.418 443.228, 701.730 443.220, 694.116 444.951 L 687.733 446.403 685.616 443.874 C 684.452 442.483, 681.925 440.255, 680 438.923 C 676.804 436.711, 675.370 436.475, 663.500 436.209 C 651.329 435.937, 650.159 436.081, 645.151 438.459" stroke="#ff8f93" fill="#ff8f93" fill-opacity="0.2" fill-rule="evenodd"/><path class="svg-region-OABl" d="M 1067.452 478.923 C 1067.766 479.431, 1069.337 480.135, 1070.942 480.487 C 1074.540 481.277, 1075.499 482.403, 1076.918 487.500 C 1077.531 489.700, 1078.700 492.374, 1079.516 493.441 C 1080.332 494.509, 1081 496.421, 1081 497.691 C 1081 499.639, 1080.481 500, 1077.680 500 C 1074.122 500, 1066.626 494.548, 1065.558 491.183 C 1064.633 488.269, 1055.209 484.156, 1047.798 483.432 C 1041.965 482.862, 1040.639 483.060, 1037.566 484.959 C 1031.529 488.690, 1030.111 491.594, 1031.197 498 C 1031.709 501.025, 1032.373 507.541, 1032.672 512.480 C 1033.064 518.946, 1033.714 522.092, 1034.995 523.721 C 1035.974 524.965, 1037.070 527.562, 1037.432 529.491 C 1038.214 533.660, 1038.956 533.782, 1043.743 530.529 C 1046.005 528.992, 1048.187 528.260, 1049.514 528.593 C 1050.786 528.912, 1052.173 528.497, 1052.947 527.564 C 1053.661 526.704, 1054.907 526, 1055.717 526 C 1057.941 526, 1071.321 521.864, 1072.758 520.732 C 1073.451 520.187, 1075.588 519.996, 1077.508 520.308 C 1079.429 520.619, 1081 520.453, 1081 519.937 C 1081 518.675, 1092.717 518.734, 1093.500 520 C 1093.840 520.550, 1097.204 521, 1100.976 521 C 1109.178 521, 1115.472 523.389, 1121.515 528.794 C 1123.793 530.832, 1126.418 533.175, 1127.347 534 C 1130.108 536.451, 1135.260 543.292, 1139 549.472 C 1145.094 559.543, 1147.664 562, 1152.104 562 C 1154.247 562, 1156 561.550, 1156 561 C 1156 560.450, 1156.563 559.985, 1157.250 559.967 C 1157.938 559.949, 1160.288 558.149, 1162.473 555.967 C 1164.658 553.785, 1166.908 551.996, 1167.473 551.990 C 1169.644 551.970, 1179.399 546.846, 1181.182 544.790 C 1182.212 543.603, 1183.280 541.477, 1183.556 540.066 C 1183.832 538.655, 1185.395 534.944, 1187.029 531.821 C 1190.897 524.426, 1190.890 520.809, 1187 517.342 C 1185.350 515.872, 1184 514.154, 1184 513.524 C 1184 512.894, 1181.638 511.800, 1178.750 511.093 C 1175.862 510.386, 1171.523 508.427, 1169.107 506.739 C 1165.180 503.996, 1164.410 503.793, 1161.857 504.835 C 1160.285 505.476, 1157.537 506.510, 1155.750 507.134 C 1153.963 507.758, 1151.719 508.658, 1150.764 509.134 C 1148.452 510.287, 1138.270 510.246, 1137.550 509.080 C 1137.237 508.574, 1134.855 506.972, 1132.257 505.520 C 1128.234 503.272, 1126.417 502.898, 1120.016 503.001 C 1110.238 503.160, 1102.582 500.946, 1098.046 496.647 C 1096.096 494.798, 1092.475 491.920, 1090 490.249 C 1087.525 488.579, 1084.375 485.999, 1083 484.515 C 1081.625 483.031, 1078.728 480.959, 1076.562 479.909 C 1072.505 477.942, 1066.441 477.286, 1067.452 478.923" stroke="#81244d" fill="#81244d" fill-opacity="0.2" fill-rule="evenodd"/><path class="svg-region-OABr" d="M 721.838 481.031 C 718.057 483.238, 707.136 485.975, 702.064 485.987 C 697.846 485.997, 696.110 485.512, 694.312 483.823 L 691.995 481.646 688.447 485.791 C 684.985 489.835, 672.032 499.912, 661 507.142 C 655.052 511.041, 647.110 513.463, 643.657 512.432 C 640.655 511.535, 632.210 503.216, 630.022 499 C 627.939 494.986, 623.560 490, 622.117 490 C 621.579 490, 620.995 491.009, 620.820 492.242 C 620.588 493.867, 618.688 495.405, 613.911 497.834 C 609.916 499.865, 606.650 502.322, 605.614 504.077 C 604.674 505.667, 601.901 508.348, 599.453 510.033 C 597.004 511.718, 594.966 513.637, 594.923 514.298 C 594.881 514.959, 594.615 516.400, 594.331 517.500 C 593.063 522.415, 592.820 540.151, 593.982 542.957 C 594.648 544.564, 597.816 548.381, 601.022 551.440 L 606.852 557 613.492 557 C 621.221 557, 621.777 556.748, 632.734 548.291 C 637.299 544.767, 642.489 541.396, 644.267 540.800 C 648.127 539.507, 651 537.190, 651 535.371 C 651 534.645, 652.462 533.301, 654.250 532.383 C 656.038 531.466, 660.825 528.529, 664.889 525.857 C 671.466 521.533, 672.880 521, 677.773 521 C 680.795 521, 684.895 521.434, 686.884 521.964 C 688.873 522.495, 693.064 523.199, 696.198 523.530 C 699.820 523.912, 702.906 524.925, 704.665 526.309 C 707.413 528.470, 711.651 529.330, 715.510 528.510 C 717.813 528.020, 721 523.169, 721 520.154 C 721 516.340, 728.810 501.614, 732.300 498.849 C 734.140 497.391, 738.745 495.332, 742.533 494.275 L 749.421 492.352 746.710 489.996 C 745.220 488.700, 744 486.866, 744 485.921 C 744 482.981, 736.763 479.996, 729.719 480.030 C 726.299 480.047, 722.752 480.497, 721.838 481.031" stroke="#81244d" fill="#81244d" fill-opacity="0.2" fill-rule="evenodd"/><path class="svg-region-OVl" d="M 1143.545 452.291 C 1142.719 453.551, 1140.571 455.119, 1138.772 455.775 C 1136.972 456.432, 1134.600 458.320, 1133.500 459.973 C 1130.881 463.907, 1129.924 464.266, 1115.736 466.638 C 1111.803 467.295, 1100.329 465.341, 1099.412 463.857 C 1098.690 462.690, 1071.409 462.764, 1069.236 463.940 C 1068.281 464.456, 1066.263 465.140, 1064.750 465.459 C 1061.462 466.152, 1061.301 467.864, 1063.973 473.750 C 1065.589 477.310, 1066.367 478, 1068.763 478 C 1072.926 478, 1079.814 481.613, 1085.207 486.625 C 1087.796 489.031, 1090.306 491, 1090.784 491 C 1091.262 491, 1093.869 493.041, 1096.577 495.535 C 1099.285 498.029, 1102.625 500.320, 1104 500.625 C 1105.375 500.930, 1108.075 501.674, 1110 502.278 C 1111.925 502.883, 1116.650 503.259, 1120.500 503.114 C 1126.510 502.889, 1128.172 503.228, 1132.250 505.511 C 1134.862 506.974, 1137 508.583, 1137 509.085 C 1137 510.333, 1149.726 510.252, 1150.500 509 C 1150.840 508.450, 1152.009 508, 1153.099 508 C 1155.207 508, 1163 504.359, 1163 503.374 C 1163 503.051, 1161.695 501.140, 1160.100 499.126 C 1156.794 494.952, 1153.693 488.454, 1152.047 482.248 C 1151.346 479.608, 1149.419 476.512, 1146.959 474.077 C 1143.142 470.297, 1143 469.921, 1143 463.546 C 1143 459.911, 1143.652 455.375, 1144.449 453.468 C 1146.115 449.480, 1145.722 448.968, 1143.545 452.291" stroke="#593939" fill="#593939" fill-opacity="0.2" fill-rule="evenodd"/><path class="svg-region-OVr" d="M 614.316 451.250 C 613.284 456.275, 613.360 456.654, 616.079 460.093 C 619.589 464.532, 620.944 470.152, 620.976 480.399 C 620.999 488.103, 621.087 488.382, 624.508 491.705 C 626.438 493.579, 628.877 496.775, 629.928 498.806 C 632.233 503.262, 640.611 511.521, 643.794 512.475 C 646.748 513.360, 655.913 511.139, 658.500 508.910 C 659.600 507.963, 662.577 505.908, 665.115 504.344 C 673.056 499.450, 684.606 490.278, 688.379 485.870 C 691.430 482.306, 692 480.898, 692 476.926 L 692 472.212 683.750 471.543 C 679.212 471.175, 665.600 470.565, 653.500 470.187 C 633.974 469.577, 631.135 469.275, 628.256 467.500 C 626.472 466.400, 625.010 464.938, 625.006 464.250 C 625.003 463.563, 624.599 463, 624.109 463 C 622.572 463, 620 455.162, 620 450.480 C 620 446.470, 619.758 446, 617.697 446 C 615.723 446, 615.241 446.749, 614.316 451.250" stroke="#593939" fill="#593939" fill-opacity="0.2" fill-rule="evenodd"/>
    </svg>