<svg xmlns="http://www.w3.org/2000/svg" width="1785" height="1131" viewBox="0 0 1785 1131" version="1.1">
    <path class="svg-region-AAB" d="M 817 460.972 C 805.127 468.447, 804.899 468.510, 790 468.402 C 782.575 468.348, 772.714 467.949, 768.087 467.514 C 761.107 466.859, 759.487 466.981, 758.573 468.231 C 757.967 469.060, 755.903 470.077, 753.986 470.492 C 752.069 470.907, 748.435 472.287, 745.912 473.558 C 737.994 477.547, 729.324 480, 723.141 480 L 717.219 480 716.833 487.646 C 716.502 494.200, 716.129 495.502, 714.223 496.768 C 712.294 498.048, 712 499.129, 712 504.931 C 712 508.778, 712.531 512.283, 713.250 513.184 C 713.938 514.046, 717.183 516.194, 720.462 517.958 C 726.556 521.236, 735.199 527.745, 742.710 534.714 C 745.026 536.862, 748.176 539.256, 749.710 540.033 C 751.245 540.811, 753.573 542.247, 754.885 543.224 C 756.197 544.201, 758.152 545, 759.230 545 C 760.309 545, 762.386 545.822, 763.846 546.826 C 768.283 549.877, 789.543 553.482, 793.631 551.875 C 794.659 551.471, 797.196 551.109, 799.268 551.070 C 803.987 550.982, 816.192 547.752, 822.059 545.039 C 828.382 542.115, 836.899 537.387, 838.843 535.723 C 839.754 534.943, 841.192 534.061, 842.038 533.765 C 844.802 532.796, 851.049 521.402, 851.625 516.278 C 852.164 511.492, 851.086 503.125, 849.205 497.500 C 848.653 495.850, 846.929 490.450, 845.372 485.500 C 843.816 480.550, 841.072 473.575, 839.274 470 C 837.477 466.425, 836.005 462.262, 836.003 460.750 C 836 458.294, 835.639 458, 832.625 458 C 830.769 458, 827.956 457.748, 826.375 457.439 C 824.147 457.005, 822.037 457.800, 817 460.972 M 924 460.731 C 921.104 461.838, 918.084 466.043, 917.521 469.753 C 917.209 471.814, 916.484 475.750, 915.910 478.500 C 910.590 503.983, 908.776 527.138, 911.404 535.989 C 913.522 543.120, 917.629 549.909, 920.484 550.994 C 928.331 553.977, 940.874 555.998, 951.329 555.962 C 969.148 555.901, 996.877 549.730, 1009 543.128 C 1010.679 542.213, 1013.989 540.506, 1017 539 C 1018.100 538.450, 1019.894 537.550, 1020.986 537 C 1022.079 536.450, 1023.654 536, 1024.486 536 C 1025.340 536, 1026 535.116, 1026 533.975 C 1026 532.785, 1026.944 531.592, 1028.291 531.079 C 1032.333 529.543, 1033.440 527.092, 1034.136 518.134 C 1034.709 510.770, 1034.529 508.997, 1032.882 505.769 C 1031.825 503.696, 1030.287 502, 1029.465 502 C 1027.440 502, 1024.372 496.726, 1023.604 491.926 C 1023.110 488.836, 1022.539 488, 1020.922 488 C 1018.414 488, 1015.246 486.429, 1012.250 483.701 C 1010.511 482.116, 1010 480.556, 1010 476.826 C 1010 471.652, 1009.578 471.248, 1006.559 473.532 C 1004.019 475.453, 1001.666 475.345, 995 473 C 990.612 471.456, 986.671 471.053, 975.500 471.006 C 964.146 470.959, 959.610 470.483, 951.500 468.488 C 946 467.135, 939.834 466.022, 937.797 466.014 C 933.082 465.996, 929.308 464.284, 928.678 461.878 C 928.186 459.997, 926.807 459.659, 924 460.731" stroke="#7f3c1a" fill="#7f3c1a" fill-opacity="0.2" fill-rule="evenodd"/><path class="svg-region-PC" d="M 799.604 424.832 C 799.321 425.289, 795.132 426.257, 790.295 426.981 C 785.458 427.706, 781.072 428.681, 780.550 429.149 C 780.028 429.617, 778.144 430, 776.365 430 C 768.711 430, 747.113 436.499, 742.267 440.260 C 741.589 440.786, 740.282 443.603, 739.362 446.519 L 737.691 451.821 741.292 456.028 C 743.272 458.342, 745.178 461.532, 745.526 463.117 C 745.978 465.177, 746.778 466.022, 748.329 466.076 C 749.523 466.118, 755.900 466.588, 762.500 467.122 C 769.100 467.656, 780.575 468.334, 788 468.628 C 800.296 469.116, 801.946 468.971, 806.500 467.010 C 809.250 465.826, 812.175 464.259, 813 463.528 C 813.825 462.797, 816.525 461.081, 819 459.716 C 822.678 457.686, 824.439 457.324, 828.640 457.733 L 833.781 458.233 833.242 453.458 C 832.946 450.832, 831.651 446.842, 830.364 444.592 C 829.077 442.341, 828.019 439.465, 828.012 438.200 C 827.998 435.513, 825.772 430.886, 823.644 429.119 C 819.119 425.364, 801.245 422.176, 799.604 424.832 M 950 431.375 C 947.525 432.056, 943.143 433.708, 940.262 435.046 C 935.594 437.213, 934.674 438.185, 931.796 443.988 C 929.228 449.168, 928.561 451.768, 928.534 456.700 C 928.515 460.110, 929.017 463.417, 929.649 464.049 C 930.281 464.681, 934.106 465.579, 938.149 466.045 C 942.192 466.510, 949.100 467.809, 953.500 468.930 C 959.622 470.491, 964.734 470.973, 975.275 470.985 C 986.459 470.997, 990.120 471.376, 994.740 473 C 1002.180 475.615, 1004.568 475.523, 1007.586 472.505 C 1008.959 471.132, 1011.347 469.355, 1012.894 468.555 C 1014.930 467.502, 1017.230 464.088, 1021.236 456.172 L 1026.766 445.243 1022.633 443.948 C 1020.360 443.235, 1018.072 442.280, 1017.550 441.826 C 1017.028 441.372, 1015.547 441, 1014.260 441 C 1012.973 441, 1010.051 440.047, 1007.767 438.881 C 1005.483 437.716, 998.063 435.241, 991.278 433.381 C 980.267 430.363, 977.629 430.007, 966.721 430.067 C 959.999 430.105, 952.475 430.693, 950 431.375" stroke="#cda789" fill="#cda789" fill-opacity="0.2" fill-rule="evenodd"/><path class="svg-region-IBl" d="M 1030.500 449.840 C 1027.750 450.223, 1024.980 450.866, 1024.344 451.269 C 1023.708 451.672, 1021.521 455.420, 1019.485 459.598 C 1016.452 465.819, 1015.152 467.456, 1012.303 468.647 C 1009.869 469.664, 1009.001 470.560, 1009.412 471.632 C 1009.736 472.474, 1010 475.340, 1010 478 C 1010 482.505, 1010.255 482.995, 1013.728 485.141 C 1015.778 486.408, 1019.941 487.834, 1022.978 488.310 C 1029.977 489.407, 1059.350 489.145, 1064.035 487.945 C 1068.692 486.751, 1073.589 481.476, 1074.426 476.750 C 1074.792 474.688, 1075.486 473, 1075.969 473 C 1077.740 473, 1083 467.768, 1083 466.005 C 1083 464.935, 1081.048 462.928, 1078.250 461.121 C 1075.638 459.433, 1072.956 457.591, 1072.292 457.026 C 1071.628 456.462, 1070.615 456, 1070.042 456 C 1069.469 456, 1069 455.633, 1069 455.185 C 1069 454.737, 1066.188 453.383, 1062.750 452.178 C 1055.914 449.780, 1039.492 448.590, 1030.500 449.840" stroke="#b10e0e" fill="#b10e0e" fill-opacity="0.2" fill-rule="evenodd"/><path class="svg-region-IBr" d="M 718.141 447.331 C 707.010 451.268, 700.049 459.308, 701.586 466.455 C 702.656 471.429, 704.922 475.010, 707.798 476.273 C 709.284 476.925, 710.746 477.796, 711.046 478.208 C 711.346 478.620, 715.396 479.242, 720.046 479.591 C 729.002 480.262, 735.744 478.722, 745.395 473.798 C 747.616 472.666, 751.438 471.235, 753.889 470.619 C 756.341 470.004, 758.511 468.997, 758.712 468.383 C 759.114 467.157, 754.618 466, 749.454 466 C 746.579 466, 746.072 465.603, 745.475 462.888 C 745.099 461.176, 743.211 458.026, 741.279 455.887 C 737.868 452.112, 737.681 451.153, 739.494 446.750 C 740.144 445.169, 739.456 445.004, 732.357 445.041 C 726.846 445.069, 722.601 445.753, 718.141 447.331" stroke="#b10e0e" fill="#b10e0e" fill-opacity="0.2" fill-rule="evenodd"/><path class="svg-region-MB" d="M 759.500 323.962 C 757.300 324.448, 752.125 326.372, 748 328.239 C 743.875 330.106, 737.051 332.872, 732.837 334.386 C 726.403 336.698, 724.758 337.767, 722.587 341.048 C 721.164 343.198, 720 346.272, 720 347.879 C 720 349.983, 718.174 353.061, 713.469 358.889 C 706.496 367.525, 703.863 369.014, 699.071 367.030 C 695.127 365.396, 692 367.079, 692 370.835 C 692 372.356, 691.604 374.027, 691.121 374.550 C 690.637 375.072, 689.672 377.300, 688.976 379.500 C 687.020 385.683, 678.503 397, 675.806 397 C 675.194 397, 671.950 398.287, 668.597 399.859 C 665.244 401.432, 660.700 403.300, 658.500 404.011 C 653.293 405.693, 650.622 407.476, 644.653 413.250 C 641.952 415.863, 639.404 418, 638.990 418 C 638.576 418, 637.055 419.550, 635.609 421.445 L 632.982 424.891 635.536 427.445 C 637.881 429.790, 638.801 430, 646.708 430 C 654.488 430, 655.771 430.281, 659.912 432.893 C 662.436 434.484, 665.625 436.109, 667 436.504 C 672.767 438.161, 681.465 442.274, 685 445.016 L 687.500 446.955 684.500 449.457 C 682.850 450.834, 679.865 452.422, 677.866 452.987 C 671.842 454.690, 671.223 456.288, 674.251 462.316 C 677.347 468.479, 678.273 475.723, 676.397 479.108 C 674.536 482.465, 674.691 485.410, 676.829 487.345 C 679.281 489.565, 682.183 489.430, 685.335 486.951 C 687.822 484.995, 690.665 484.028, 704.750 480.346 C 708.188 479.448, 711 478.437, 711 478.100 C 711 477.764, 709.763 476.939, 708.250 476.268 C 705.066 474.855, 702.988 471.880, 701.940 467.235 C 699.397 455.958, 712.404 446.119, 731.034 445.226 C 739.022 444.843, 739.667 444.647, 741.112 442.159 C 743.621 437.836, 766.296 430.075, 776.583 430.017 C 778.279 430.008, 779.994 429.673, 780.393 429.273 C 781.247 428.420, 798.284 425.102, 805.500 424.385 C 809.029 424.034, 812.247 424.495, 816.439 425.955 C 820.308 427.302, 822.718 427.682, 823.356 427.044 C 823.993 426.407, 823.876 423.643, 823.021 419.110 C 822.107 414.265, 821.973 410.234, 822.580 405.827 C 823.059 402.347, 823.441 390.275, 823.428 379 C 823.394 349.230, 820.757 341.608, 807.306 332.403 C 797.313 325.565, 791.528 323.884, 776.500 323.452 C 769.350 323.246, 761.700 323.476, 759.500 323.962 M 984 328.533 C 979.325 329.255, 972.083 331.159, 967.908 332.763 C 959.200 336.109, 948.297 343.805, 944.950 348.969 C 943.691 350.911, 941.640 354.075, 940.391 356 C 936.977 361.263, 935.585 368.129, 936.578 374.810 C 937.043 377.939, 937.441 386.125, 937.462 393 C 937.492 402.995, 937.142 406.246, 935.716 409.223 C 934.275 412.229, 933.986 415.021, 934.216 423.723 C 934.492 434.184, 934.569 434.510, 936.854 434.833 C 938.148 435.016, 941.973 434.116, 945.354 432.833 C 950.800 430.766, 953.209 430.500, 966.500 430.500 C 978.182 430.500, 982.827 430.905, 987.500 432.330 C 990.800 433.336, 995.750 434.724, 998.500 435.414 C 1001.250 436.105, 1005.293 437.644, 1007.485 438.835 C 1009.677 440.026, 1012.158 441, 1012.999 441 C 1014.699 441, 1024.920 444.586, 1025.839 445.506 C 1026.161 445.828, 1025.848 447.014, 1025.143 448.143 C 1024.438 449.271, 1024.005 450.314, 1024.181 450.460 C 1024.356 450.606, 1027.875 450.320, 1032 449.825 C 1041.829 448.645, 1055.607 449.663, 1062.146 452.054 C 1065.020 453.104, 1067.523 453.811, 1067.709 453.625 C 1068.318 453.015, 1066.808 450, 1065.893 450 C 1065.402 450, 1065 449.100, 1065 448 C 1065 446.452, 1065.667 446, 1067.953 446 C 1070.731 446, 1072.071 445.588, 1079.500 442.453 C 1083.176 440.901, 1103.465 439, 1116.353 439 C 1127.156 439, 1130.348 440.380, 1135.598 447.318 L 1138.487 451.137 1141.794 447.528 C 1144.766 444.284, 1145.071 443.401, 1144.801 438.812 C 1144.604 435.479, 1143.979 433.464, 1143 433.008 C 1142.175 432.625, 1140.494 431.791, 1139.264 431.155 C 1138.034 430.520, 1134.884 429.997, 1132.264 429.994 C 1129.644 429.991, 1125.813 429.520, 1123.750 428.947 L 1120 427.906 1119.926 417.703 C 1119.885 412.091, 1119.548 405.585, 1119.176 403.244 C 1118.337 397.963, 1113.604 391.897, 1106.111 386.500 C 1103.057 384.300, 1098.705 380.822, 1096.441 378.772 L 1092.323 375.043 1090.072 377.632 C 1088.422 379.530, 1087.525 379.925, 1086.711 379.111 C 1086.100 378.500, 1083.453 378, 1080.829 378 C 1075.711 378, 1066.464 374.490, 1064.128 371.662 C 1063.373 370.748, 1061.981 370, 1061.035 370 C 1057.198 370, 1050.853 365.199, 1045.177 358 C 1037.930 348.810, 1035 343.195, 1035 338.498 C 1035 334.767, 1033.005 331.889, 1029.500 330.564 C 1026.150 329.299, 1005.909 327.012, 999 327.119 C 995.425 327.174, 988.675 327.810, 984 328.533" stroke="#f9c6c6" fill="#f9c6c6" fill-opacity="0.2" fill-rule="evenodd"/><path class="svg-region-LBl" d="M 1038.077 330.589 C 1035.490 332.766, 1035 333.886, 1035 337.629 C 1035 343.167, 1037.495 348.159, 1045.283 358.208 C 1051.043 365.639, 1056.928 370, 1061.193 370 C 1062.052 370, 1063.373 370.748, 1064.128 371.662 C 1066.584 374.635, 1075.708 378, 1081.316 378 C 1085.616 378, 1087.156 377.498, 1089.757 375.250 C 1093.275 372.209, 1097.002 363.696, 1096.996 358.713 C 1096.992 355.343, 1093.746 349, 1092.025 349 C 1091.473 349, 1088.607 346.813, 1085.656 344.141 C 1079.924 338.950, 1068.691 333.042, 1064.218 332.865 C 1061.650 332.763, 1054.268 330.801, 1049.203 328.874 C 1045.121 327.321, 1041.252 327.917, 1038.077 330.589" stroke="#79495c" fill="#79495c" fill-opacity="0.2" fill-rule="evenodd"/><path class="svg-region-LBr" d="M 707.930 345.250 C 695.364 359.162, 694.004 362.004, 698 366 C 701.628 369.628, 704.798 368.611, 711.234 361.750 C 714.459 358.313, 717.778 354.233, 718.609 352.684 C 720.635 348.908, 720.078 344.624, 717.500 344.147 C 716.400 343.944, 715.140 343.152, 714.700 342.389 C 713.409 340.147, 712.002 340.742, 707.930 345.250" stroke="#79495c" fill="#79495c" fill-opacity="0.2" fill-rule="evenodd"/><path class="svg-region-DMl" d="M 1100.031 357.750 C 1098.073 359.545, 1096.521 362.410, 1095.561 366 C 1094.753 369.025, 1093.816 372.427, 1093.479 373.561 C 1093.007 375.145, 1093.903 376.532, 1097.351 379.561 C 1101.431 383.143, 1107.925 388.212, 1110.534 389.851 C 1111.103 390.208, 1113.282 392.622, 1115.377 395.216 L 1119.186 399.933 1119.741 413.960 L 1120.296 427.988 1123.898 428.988 C 1125.879 429.539, 1129.773 429.991, 1132.550 429.994 C 1135.327 429.997, 1138.088 430.488, 1138.685 431.085 C 1139.281 431.681, 1140.834 432.019, 1142.135 431.835 C 1144.352 431.521, 1144.518 431.030, 1144.782 424 C 1145.108 415.311, 1144.610 412.621, 1142.225 410.195 C 1138.055 405.956, 1132 398.644, 1132 397.849 C 1132 397.371, 1132.900 396.210, 1134 395.268 C 1135.100 394.326, 1135.988 392.418, 1135.974 391.028 C 1135.950 388.598, 1132.031 381.647, 1127.194 375.453 C 1125.925 373.829, 1123.900 371.068, 1122.694 369.317 C 1121.487 367.567, 1118.573 363.629, 1116.218 360.567 C 1112.156 355.285, 1111.709 355, 1107.484 355 C 1104.021 355, 1102.365 355.611, 1100.031 357.750" stroke="#68533d" fill="#68533d" fill-opacity="0.2" fill-rule="evenodd"/><path class="svg-region-DMr" d="M 672 340 C 671.175 340.533, 669.755 340.976, 668.844 340.985 C 665.975 341.011, 650.714 350.711, 645.500 355.822 C 637.266 363.893, 627.102 378.066, 618.651 393.260 C 613.322 402.841, 608.536 416.921, 609.561 420 C 609.836 420.825, 611.695 422.738, 613.692 424.250 C 616.706 426.533, 618.329 427, 623.257 427 C 628.840 427, 635 424.801, 635 422.809 C 635 422.391, 636.646 420.575, 638.657 418.774 C 640.669 416.973, 644.348 413.603, 646.834 411.284 C 649.813 408.506, 654.277 405.890, 659.927 403.614 C 673.188 398.270, 680 395.098, 680.005 394.263 C 680.007 393.843, 681.245 392.150, 682.755 390.500 C 684.265 388.850, 686.033 386.375, 686.685 385 C 692.243 373.278, 693.498 367.428, 690.250 368.376 C 689.288 368.656, 686.421 369.179, 683.881 369.537 C 679.356 370.175, 679.238 370.121, 678.131 366.945 C 677.509 365.161, 677 362.396, 677 360.801 C 677 359.206, 676.277 356.503, 675.393 354.794 C 674.248 352.579, 673.903 349.866, 674.191 345.344 C 674.611 338.740, 674.473 338.402, 672 340" stroke="#68533d" fill="#68533d" fill-opacity="0.2" fill-rule="evenodd"/><path class="svg-region-PV" d="M 856.500 159.479 C 850.023 161.175, 841.231 164.563, 839.429 166.059 C 838.651 166.705, 837.626 168.868, 837.152 170.866 C 836.678 172.865, 836.381 196.325, 836.492 223 C 836.669 265.616, 836.902 272.197, 838.415 277.241 C 840.006 282.546, 842.799 286, 845.498 286 C 847.942 286, 866.390 270.689, 871.563 264.367 C 874.653 260.590, 877.928 257.194, 878.841 256.820 C 882.100 255.485, 888.527 256.024, 891.586 257.889 C 894.228 259.500, 899 267.168, 899 269.802 C 899 270.255, 900.350 271.919, 902 273.500 C 903.650 275.081, 905 277.120, 905 278.032 C 905 282.160, 913.242 284.824, 915.943 281.568 C 916.597 280.781, 917.550 277.180, 918.062 273.566 C 919.296 264.852, 920.495 259.716, 922.958 252.593 C 924.081 249.345, 925 245.434, 925 243.902 C 925 242.371, 925.476 240.824, 926.058 240.464 C 927.164 239.780, 926.716 211.991, 925.450 202.761 C 924.750 197.654, 927.057 181.733, 929.523 174.655 C 930.319 172.370, 930.977 169.781, 930.985 168.903 C 930.993 168.025, 931.891 166.279, 932.979 165.024 C 934.068 163.769, 934.753 162.410, 934.502 162.004 C 934.252 161.598, 930.773 161.004, 926.773 160.684 C 922.773 160.364, 916.350 159.643, 912.500 159.084 C 902.219 157.588, 862.655 157.868, 856.500 159.479" stroke="#b09658" fill="#b09658" fill-opacity="0.2" fill-rule="evenodd"/><path class="svg-region-Fl" d="M 933.747 163.910 C 932.236 165.511, 931 167.706, 931 168.788 C 931 169.870, 930.346 172.322, 929.546 174.237 C 927.087 180.120, 924.733 196.438, 925.505 202.244 C 926.629 210.697, 926.441 239.054, 925.226 244.500 C 924.612 247.250, 923.250 251.790, 922.200 254.589 C 921.150 257.387, 919.742 263.462, 919.072 268.089 C 918.402 272.715, 917.436 278.127, 916.927 280.116 C 915.513 285.632, 915.804 288.388, 918 290.268 C 919.100 291.210, 920 292.864, 920 293.943 C 920 297.802, 922.297 300.809, 928.127 304.582 C 933.687 308.180, 938 313.380, 938 316.486 C 938 321.158, 946.598 322.407, 956.148 319.121 C 959.972 317.806, 964.590 317.220, 971.554 317.168 C 981.332 317.095, 993.622 315.782, 1001.500 313.969 C 1003.700 313.463, 1009.550 313.031, 1014.500 313.010 C 1020.295 312.984, 1024.390 312.472, 1026 311.569 C 1027.375 310.799, 1031.650 308.573, 1035.500 306.624 C 1039.350 304.675, 1044.157 301.487, 1046.183 299.540 C 1048.209 297.593, 1050.120 296, 1050.431 296 C 1051.716 296, 1060.850 288.832, 1061.404 287.389 C 1061.790 286.384, 1060.247 283.854, 1057.089 280.310 C 1052.878 275.586, 1052.100 274.057, 1051.664 269.648 C 1050.860 261.508, 1049.932 258.248, 1047.895 256.405 C 1046.581 255.215, 1046 253.339, 1046 250.279 C 1046 244.033, 1042.295 237.869, 1037.403 235.977 C 1036.250 235.531, 1034.563 233.598, 1033.653 231.682 C 1029.565 223.066, 1033.688 213.323, 1042.345 211.143 C 1044.842 210.514, 1047.867 210, 1049.067 210 C 1052.402 210, 1032.677 194.260, 1019.500 186.406 C 1006.313 178.547, 1005.308 178, 1004.043 178 C 1003.502 178, 1000.683 176.939, 997.780 175.643 C 989.900 172.125, 982.269 169.426, 975 167.584 C 971.425 166.678, 966.925 165.503, 965 164.973 C 956.458 162.622, 947.073 161.002, 941.997 161.001 C 937.215 161, 936.133 161.382, 933.747 163.910" stroke="#5ca7a9" fill="#5ca7a9" fill-opacity="0.2" fill-rule="evenodd"/><path class="svg-region-Fr" d="M 797.553 161.914 C 797.184 162.512, 795.026 163, 792.758 163 C 790.489 163, 786.128 163.854, 783.067 164.898 C 780.005 165.941, 776.001 167.062, 774.169 167.389 C 770.288 168.080, 743.779 180.866, 737.672 184.992 C 733.984 187.483, 733.466 188.312, 733.209 192.134 C 733.049 194.512, 732.237 197.817, 731.405 199.479 C 728.999 204.283, 729.709 215.701, 732.657 219.594 C 735.529 223.387, 735.542 224.016, 732.867 229.260 C 731.002 232.916, 730.871 234.009, 731.816 237.970 C 732.411 240.462, 733.186 246.563, 733.538 251.528 L 734.177 260.557 729.407 262.939 C 725.233 265.024, 723.161 265.333, 712.821 265.411 C 700.055 265.507, 699.706 265.688, 702.449 270.800 C 704.363 274.368, 710.389 279.071, 728.500 291.131 C 736.750 296.625, 745.300 302.428, 747.500 304.027 L 751.500 306.934 773.500 307.004 L 795.500 307.075 801.388 312.537 C 804.627 315.542, 807.783 318, 808.401 318 C 809.020 318, 809.970 317.027, 810.513 315.839 C 811.167 314.408, 813.067 313.287, 816.138 312.522 C 824.492 310.440, 839.902 298.440, 840.044 293.906 C 840.068 293.133, 840.667 290.880, 841.375 288.900 C 842.512 285.718, 842.449 285.037, 840.831 283.039 C 839.824 281.796, 839 279.906, 839 278.840 C 839 277.773, 838.384 275.686, 837.630 274.200 C 836.518 272.008, 836.317 263.243, 836.561 227.593 C 836.911 176.635, 837.424 179.586, 826.202 168.080 L 819.785 161.500 809.004 161.164 C 801.982 160.946, 797.990 161.207, 797.553 161.914" stroke="#5ca7a9" fill="#5ca7a9" fill-opacity="0.2" fill-rule="evenodd"/><path class="svg-region-PCl" d="M 1040.500 211.625 C 1032.659 214.500, 1029.423 225.094, 1034.082 232.632 C 1035.226 234.484, 1036.556 236, 1037.036 236 C 1038.074 236, 1042.192 240.008, 1044.417 243.185 C 1045.288 244.428, 1046 247.447, 1046 249.894 C 1046 252.699, 1046.636 255.045, 1047.721 256.245 C 1049.686 258.416, 1051.891 265.954, 1051.956 270.726 C 1051.980 272.500, 1052.787 275.234, 1053.750 276.801 C 1055.643 279.882, 1062.218 286, 1063.636 286 C 1065.379 286, 1079.039 271.844, 1080.993 268.013 C 1083.501 263.097, 1083.538 257.376, 1081.117 248.909 C 1078.162 238.575, 1073.678 231.861, 1061 218.788 C 1053.038 210.577, 1052.247 210.027, 1048.500 210.090 C 1046.300 210.128, 1042.700 210.818, 1040.500 211.625" stroke="#465ee0" fill="#465ee0" fill-opacity="0.2" fill-rule="evenodd"/><path class="svg-region-PCr" d="M 722.045 194.539 C 718.631 197.585, 714.187 201.127, 712.169 202.411 C 706.379 206.093, 695.364 217.640, 691.371 224.213 L 687.724 230.216 688.243 240.358 C 688.828 251.796, 690.202 255.952, 695.128 261.175 C 698.010 264.230, 699.449 264.912, 704.284 265.516 C 712.183 266.503, 724.623 265.198, 729.838 262.835 L 734.177 260.869 733.503 251.185 C 733.133 245.858, 732.379 239.732, 731.828 237.571 C 730.978 234.237, 731.173 232.900, 733.114 228.757 C 735.127 224.459, 735.236 223.610, 734.023 221.686 C 730.729 216.460, 730.012 214.173, 730.006 208.872 C 730.003 205.777, 730.615 201.727, 731.366 199.872 C 732.117 198.017, 732.989 194.813, 733.303 192.750 C 733.848 189.171, 733.746 189, 731.063 189 C 729.067 189, 726.452 190.606, 722.045 194.539" stroke="#465ee0" fill="#465ee0" fill-opacity="0.2" fill-rule="evenodd"/><path class="svg-region-DV" d="M 925.583 213.866 C 925.152 214.563, 925.070 215.403, 925.400 215.733 C 926.295 216.628, 927.271 215.312, 926.787 213.862 C 926.449 212.846, 926.213 212.846, 925.583 213.866" stroke="#45567a" fill="#45567a" fill-opacity="0.2" fill-rule="evenodd"/><path class="svg-region-Ol" d="M 1289.500 269.662 C 1288.400 269.899, 1283.675 270.798, 1279 271.661 C 1268.175 273.659, 1248.197 281.254, 1246.487 284.021 C 1246.141 284.580, 1243.540 286.213, 1240.707 287.649 C 1234.672 290.707, 1219.879 305.296, 1214.228 313.763 C 1208.773 321.936, 1201.717 338.750, 1198.601 351 C 1196.299 360.052, 1195.981 363.073, 1196.293 372.901 L 1196.655 384.302 1200.445 387.342 C 1202.529 389.014, 1206.018 392.096, 1208.199 394.191 C 1210.379 396.286, 1212.689 398.009, 1213.332 398.020 C 1214.497 398.041, 1216.658 402.236, 1222.336 415.500 C 1224.878 421.439, 1225.403 424.151, 1225.800 433.394 C 1226.227 443.314, 1224.857 456.750, 1223.138 459.500 C 1222.795 460.050, 1222 462.300, 1221.372 464.500 C 1220.744 466.700, 1219.278 470.969, 1218.115 473.986 C 1216.952 477.003, 1216 480.385, 1216 481.501 C 1216 485.261, 1210.107 495.646, 1205.634 499.769 C 1203.006 502.192, 1199.421 504.336, 1196.848 505.024 C 1194.456 505.664, 1191.719 506.595, 1190.764 507.094 C 1188.825 508.106, 1175.679 508.346, 1174.720 507.386 C 1174.027 506.694, 1160.944 502.011, 1159.683 502.004 C 1158.241 501.997, 1160.188 506.418, 1162.763 509 C 1169.840 516.096, 1173 524.128, 1173 535.022 C 1173 539.983, 1172.686 540.852, 1170.250 542.617 C 1168.737 543.714, 1165.945 545.241, 1164.045 546.012 C 1162.144 546.782, 1157.419 550.490, 1153.545 554.251 C 1145.150 562.399, 1135.758 568, 1130.489 568 C 1125.843 568, 1120.124 565.336, 1118.888 562.597 C 1118.368 561.443, 1116.145 557.575, 1113.948 554 C 1111.751 550.425, 1109.254 545.925, 1108.399 544 C 1101.031 527.416, 1100.988 527.348, 1096.243 524.979 C 1092.011 522.865, 1090.345 522.687, 1074.579 522.661 C 1055.650 522.629, 1054.953 522.814, 1045 530.518 C 1042.525 532.434, 1039.375 534.539, 1038 535.196 C 1034.567 536.835, 1027.829 542.225, 1019.500 549.994 C 1015.650 553.585, 1009.350 558.843, 1005.500 561.679 C 998.478 566.850, 982.919 582.757, 979.946 587.804 C 979.073 589.287, 976.726 593.231, 974.730 596.568 C 968.019 607.793, 966.346 626.520, 970.357 645.507 C 973.230 659.105, 978.905 677.894, 982.547 685.871 C 983.896 688.825, 985 691.667, 985 692.188 C 985 693.319, 1000.816 725.141, 1005.328 733.087 C 1013.208 746.964, 1026.389 764.562, 1036.649 774.900 C 1040.142 778.421, 1043 781.607, 1043 781.981 C 1043 783.339, 1057.692 796.784, 1065.499 802.571 C 1069.899 805.832, 1074.294 809.216, 1075.266 810.090 C 1076.238 810.965, 1078.264 812.292, 1079.767 813.039 C 1081.270 813.787, 1083.852 815.373, 1085.505 816.563 C 1091.178 820.650, 1104.638 826.875, 1119 832.053 C 1127.140 834.988, 1158.435 841.176, 1164.250 840.999 C 1169.733 840.833, 1171.060 840.873, 1184.339 841.602 C 1205.879 842.783, 1240.366 833.704, 1260.048 821.669 C 1268.066 816.766, 1283.520 804.254, 1289.173 798.088 C 1298.332 788.098, 1309.243 770.804, 1318.439 751.700 C 1322.993 742.240, 1327.066 733.375, 1327.490 732 C 1327.914 730.625, 1329.045 727.700, 1330.002 725.500 C 1330.960 723.300, 1334.114 715.650, 1337.012 708.500 C 1345.279 688.098, 1348.193 681.526, 1349.130 681.167 C 1349.609 680.983, 1350.010 680.083, 1350.023 679.167 C 1350.054 676.877, 1375.697 625.802, 1380.288 618.885 C 1382.330 615.809, 1384 613.022, 1384 612.691 C 1384 612.359, 1385.428 609.706, 1387.173 606.794 C 1388.917 603.882, 1392.729 596.775, 1395.642 591 C 1398.555 585.225, 1402.190 578.387, 1403.719 575.803 C 1412.080 561.682, 1414.619 557.748, 1420.371 550 C 1426.731 541.432, 1438 521.447, 1438 518.733 C 1438 517.928, 1438.833 516.197, 1439.851 514.885 C 1440.870 513.573, 1441.954 511.375, 1442.262 510 C 1442.570 508.625, 1444.584 502.325, 1446.739 496 C 1452.322 479.612, 1453.864 473.448, 1455.624 460.500 C 1455.998 457.750, 1456.473 454.600, 1456.680 453.500 C 1457.702 448.072, 1456.974 421.771, 1455.601 414.500 C 1450.460 387.277, 1442.052 367.496, 1427.552 348.500 C 1426.241 346.783, 1420.104 338.580, 1417.826 335.500 C 1410.695 325.858, 1392.596 306.842, 1384.409 300.388 C 1361.922 282.663, 1345.916 274.907, 1322.760 270.514 C 1315.440 269.125, 1294.491 268.589, 1289.500 269.662" stroke="#aa444d" fill="#aa444d" fill-opacity="0.2" fill-rule="evenodd"/><path class="svg-region-Or" d="M 504 282.167 C 489.298 284.434, 475.212 287.776, 472.527 289.635 C 471.443 290.386, 469.712 291, 468.682 291 C 467.652 291, 465.614 291.635, 464.154 292.410 C 462.694 293.186, 459.700 294.587, 457.500 295.524 C 450.979 298.300, 440.539 303.389, 440 304.054 C 439.725 304.393, 436.125 306.614, 432 308.989 C 422.459 314.483, 402.398 330.371, 401.717 332.973 C 401.433 334.061, 399.935 335.525, 398.389 336.226 C 394.051 338.192, 372.057 360.941, 360.419 375.500 C 357.341 379.350, 353.851 383.619, 352.662 384.987 C 349.750 388.337, 348.697 389.842, 340 403.102 C 329.866 418.552, 327.093 424.320, 324.044 436.295 C 321.377 446.768, 319.710 463.814, 320.454 473 C 322.091 493.199, 324.619 503.220, 334.452 528.500 C 336.385 533.467, 346.695 553.512, 354.513 567.500 C 358.214 574.122, 387.060 620.394, 391.112 626.210 C 392.150 627.700, 393 629.122, 393 629.370 C 393 629.618, 394.803 633.002, 397.006 636.890 C 402.532 646.642, 420 680.914, 420 682.005 C 420 682.494, 421.554 686.180, 423.454 690.197 C 425.354 694.214, 428.455 702, 430.346 707.500 C 432.236 713, 436.590 725.600, 440.020 735.500 C 443.450 745.400, 447.513 757.775, 449.049 763 C 451.640 771.818, 453.238 776.697, 458.218 791 C 461.102 799.284, 472.707 821.765, 477.317 828 C 490.784 846.211, 503.873 855.804, 526.500 864.043 C 534.738 867.043, 556.639 868.067, 560.138 865.616 C 561.407 864.727, 563.910 864, 565.701 864 C 569.150 864, 582.127 859.964, 588 857.066 C 606.412 847.978, 631.880 831.436, 645.067 820 C 654.370 811.933, 657.726 808.415, 669.114 794.796 C 674.769 788.033, 679.869 782.017, 680.448 781.426 C 681.026 780.836, 683.075 778.221, 685 775.616 C 686.925 773.010, 690.176 768.768, 692.225 766.189 C 698.310 758.528, 707.188 745.998, 711.999 738.278 C 714.475 734.306, 720.901 724.181, 726.280 715.778 C 731.658 707.375, 736.608 699.617, 737.280 698.538 C 739.359 695.195, 743.419 688.806, 745.189 686.090 C 748.455 681.079, 754 670.920, 754 669.946 C 754 669.404, 755.125 667.178, 756.500 665 C 757.875 662.822, 759.003 660.693, 759.006 660.270 C 759.010 659.846, 759.723 658.150, 760.591 656.500 C 761.459 654.850, 762.858 651.488, 763.699 649.029 C 764.541 646.569, 766.257 642.294, 767.513 639.529 C 772.420 628.725, 773.141 620.972, 770.382 608.697 C 766.415 591.048, 749.119 561.841, 734 547.259 C 728.387 541.846, 728.908 542.370, 723.790 536.988 C 715.586 528.360, 705.850 520.958, 698.293 517.603 C 694.742 516.026, 692.638 515.836, 684.793 516.379 C 670.736 517.352, 656 519.310, 656 520.204 C 656 520.642, 655.163 521, 654.141 521 C 653.118 521, 646.951 526.175, 640.435 532.500 C 633.920 538.825, 628.301 544, 627.950 544 C 627.599 544, 626.004 545.124, 624.406 546.499 C 619.762 550.493, 615.335 549.936, 610.208 544.712 C 606.299 540.729, 606 540.036, 606.004 534.962 C 606.008 530.265, 603.073 506.152, 602.375 505.149 C 602.241 504.956, 600.639 505.915, 598.816 507.281 C 592.876 511.729, 588.832 513.201, 581.096 513.730 C 570.326 514.468, 559.012 511.998, 552.407 507.466 C 545.456 502.698, 537 490.152, 537 484.609 C 537 483.239, 536.550 481.840, 536 481.500 C 535.450 481.160, 535 480.009, 535 478.941 C 535 477.873, 534.550 477, 534 477 C 533.374 477, 533 470.833, 533 460.500 C 533 450.167, 533.374 444, 534 444 C 534.550 444, 535 442.912, 535 441.583 C 535 440.254, 535.376 439.017, 535.835 438.833 C 536.294 438.650, 538.523 434.563, 540.789 429.750 C 543.054 424.938, 545.378 421, 545.954 421 C 546.529 421, 547 420.489, 547 419.865 C 547 418.195, 552.034 413.818, 554.808 413.076 C 556.429 412.643, 557.629 411.212, 558.502 408.672 C 559.213 406.603, 562.016 402.562, 564.730 399.692 C 572.605 391.365, 576.719 384.367, 578.362 376.500 C 583.549 351.668, 583.961 348.029, 582.962 335.898 C 581.337 316.150, 570.909 300.014, 553.696 290.612 C 541.269 283.824, 518.427 279.943, 504 282.167" stroke="#aa444d" fill="#aa444d" fill-opacity="0.2" fill-rule="evenodd"/><path class="svg-region-Pl" d="M 1201 401.966 C 1199.075 403.025, 1195.506 406.165, 1193.069 408.945 C 1190.632 411.725, 1188.081 414, 1187.400 414 C 1185.753 414, 1180.014 417.299, 1180.006 418.250 C 1180.003 418.663, 1178.646 419, 1176.991 419 C 1173.799 419, 1166.235 423.813, 1164.500 426.948 C 1162.725 430.156, 1151.821 438.766, 1150.103 438.317 C 1149.036 438.038, 1147.248 439.518, 1144.982 442.554 C 1143.067 445.120, 1140.267 448.857, 1138.759 450.860 C 1133.126 458.342, 1131.817 469.522, 1135.092 482.192 C 1136.301 486.870, 1142.387 492.270, 1150.725 496.062 C 1154.149 497.620, 1158.606 500.019, 1160.629 501.394 C 1162.653 502.769, 1166.489 504.453, 1169.154 505.136 C 1171.819 505.819, 1174 506.743, 1174 507.189 C 1174 508.367, 1189.767 508.187, 1190.500 507 C 1190.840 506.450, 1192.234 506, 1193.599 506 C 1197.227 506, 1202.993 502.716, 1207.056 498.335 C 1211.468 493.577, 1216 485.098, 1216 481.601 C 1216 480.156, 1216.390 478.191, 1216.866 477.236 C 1217.802 475.360, 1218.797 472.581, 1222.680 461 C 1226.816 448.663, 1227.001 423.849, 1223.014 416.113 C 1222.557 415.226, 1220.635 411.350, 1218.742 407.500 L 1215.300 400.500 1209.900 400.271 C 1206.107 400.109, 1203.459 400.614, 1201 401.966" stroke="#f9d3d3" fill="#f9d3d3" fill-opacity="0.2" fill-rule="evenodd"/><path class="svg-region-Pr" d="M 550.180 415.839 C 548.431 417.401, 547 419.153, 547 419.732 C 547 420.312, 546.438 421.010, 545.750 421.283 C 544.514 421.775, 543.396 423.750, 538.838 433.500 C 537.552 436.250, 536.163 438.650, 535.750 438.833 C 535.337 439.017, 535 440.254, 535 441.583 C 535 442.913, 534.550 444, 534 444 C 533.374 444, 533 450.167, 533 460.500 C 533 470.833, 533.374 477, 534 477 C 534.550 477, 535 477.873, 535 478.941 C 535 480.009, 535.450 481.160, 536 481.500 C 536.550 481.840, 537 483.195, 537 484.512 C 537 490.404, 545.740 503.341, 552.767 507.851 C 562.667 514.203, 583.847 515.888, 593.110 511.060 C 603.430 505.680, 607.010 501.011, 608.104 491.500 C 608.962 484.039, 610.095 479.816, 612.849 473.805 C 614.085 471.108, 615 467.099, 615 464.383 C 615 459.963, 614.645 459.315, 609.515 454.386 C 606.498 451.488, 603.279 448.696, 602.362 448.183 C 601.142 447.500, 600.528 445.266, 600.078 439.875 C 599.381 431.529, 598.729 430, 595.867 430 C 594.759 430, 590.623 428.916, 586.676 427.592 C 582.729 426.267, 577.883 424.880, 575.906 424.510 C 573.930 424.139, 570.093 422.156, 567.381 420.103 C 562.151 416.145, 556.460 413, 554.526 413 C 553.885 413, 551.929 414.278, 550.180 415.839" stroke="#f9d3d3" fill="#f9d3d3" fill-opacity="0.2" fill-rule="evenodd"/><path class="svg-region-OLl" d="M 1146.110 402.083 C 1143.845 402.989, 1143.753 403.362, 1144.360 409.166 C 1144.712 412.536, 1145 421.387, 1145 428.835 L 1145 442.377 1147.007 440.223 C 1148.111 439.038, 1149.583 438.286, 1150.278 438.553 C 1151.720 439.107, 1162.747 430.125, 1164.820 426.707 C 1166.553 423.852, 1172.423 419.961, 1175.870 419.383 C 1182.639 418.248, 1182.734 415.920, 1176.250 410.086 C 1170.283 404.716, 1170.008 404.579, 1161.303 402.620 C 1153.246 400.807, 1149.620 400.679, 1146.110 402.083" stroke="#c4875d" fill="#c4875d" fill-opacity="0.2" fill-rule="evenodd"/><path class="svg-region-VOC" d="M 606 423.500 C 605.315 424.325, 604.248 425.002, 603.628 425.004 C 603.007 425.006, 600.986 425.931, 599.135 427.059 C 596.039 428.946, 595.911 429.214, 597.535 430.402 C 598.843 431.358, 599.466 433.703, 599.935 439.436 C 600.428 445.470, 600.972 447.405, 602.397 448.202 C 603.403 448.765, 605.030 450.120, 606.013 451.213 C 608.031 453.457, 608.540 453.958, 613.113 458.197 L 616.387 461.233 620.748 456.616 C 623.147 454.077, 625.873 452.007, 626.805 452.015 C 628.994 452.035, 634.558 454.064, 639 456.464 C 641.916 458.039, 644.753 458.367, 656 458.427 C 669.059 458.498, 669.614 458.415, 673 455.881 C 674.925 454.441, 677.716 452.975, 679.203 452.624 C 680.689 452.273, 683.164 450.880, 684.703 449.528 L 687.500 447.070 684.500 444.585 C 682.850 443.218, 680.150 441.587, 678.500 440.961 C 676.850 440.335, 674.375 439.239, 673 438.527 C 671.625 437.814, 669.064 436.924, 667.308 436.549 C 665.552 436.174, 662.294 434.547, 660.067 432.933 C 656.321 430.220, 655.360 430, 647.248 430 C 639.140 430, 638.264 429.800, 635.611 427.340 C 633.226 425.129, 632.429 424.876, 630.885 425.840 C 629.863 426.478, 626.356 427, 623.090 427 C 618.217 427, 616.621 426.552, 614.182 424.500 C 610.813 421.665, 607.826 421.300, 606 423.500 M 1092.500 440.153 C 1087 440.635, 1081.375 441.555, 1080 442.197 C 1074.635 444.701, 1070.364 445.971, 1067.250 445.985 C 1065.463 445.993, 1064 446.290, 1064 446.645 C 1064 448.207, 1069.622 455.997, 1070.750 455.998 C 1071.438 455.999, 1072 456.395, 1072 456.879 C 1072 457.362, 1073.237 458.282, 1074.750 458.924 C 1078.542 460.533, 1082.727 464.354, 1083.176 466.617 C 1083.597 468.737, 1083.024 468.724, 1101.500 467.021 C 1108.100 466.413, 1118 465.525, 1123.500 465.049 C 1129 464.573, 1133.573 464.142, 1133.662 464.091 C 1133.751 464.041, 1134.121 462.242, 1134.484 460.092 C 1134.848 457.943, 1135.773 455.355, 1136.541 454.342 C 1137.308 453.329, 1137.951 451.890, 1137.968 451.144 C 1138.013 449.254, 1133.607 444.222, 1129.420 441.381 C 1126.182 439.183, 1125.009 439.011, 1114.206 439.138 C 1107.768 439.214, 1098 439.671, 1092.500 440.153" stroke="#ff8f93" fill="#ff8f93" fill-opacity="0.2" fill-rule="evenodd"/><path class="svg-region-OABl" d="M 1122 465.103 C 1117.325 465.536, 1108.100 466.401, 1101.500 467.025 C 1094.900 467.649, 1087.665 468.271, 1085.422 468.408 C 1082.818 468.567, 1080.558 469.442, 1079.172 470.828 C 1077.977 472.023, 1076.570 473, 1076.045 473 C 1075.520 473, 1074.785 474.628, 1074.412 476.617 C 1073.504 481.455, 1068.702 486.745, 1064.159 487.911 C 1059.592 489.084, 1029.522 489.532, 1025.612 488.487 L 1022.724 487.714 1023.448 491.572 C 1024.432 496.820, 1026.406 500.381, 1029.428 502.361 C 1033.884 505.281, 1034.829 508.523, 1034.041 518.197 C 1033.298 527.334, 1032.266 529.568, 1028.053 531.170 L 1025.523 532.132 1028.012 534.044 C 1032.287 537.329, 1036.779 536.578, 1043.520 531.453 C 1054.956 522.757, 1055.362 522.641, 1074.244 522.647 C 1089.592 522.652, 1091.395 522.843, 1095.871 524.939 C 1101.074 527.377, 1100.678 526.757, 1108.542 544.750 C 1110.044 548.188, 1111.662 551, 1112.137 551 C 1112.611 551, 1113 551.418, 1113 551.928 C 1113 552.439, 1114.606 555.552, 1116.568 558.847 C 1118.922 562.798, 1121.271 565.375, 1123.469 566.418 C 1127.440 568.303, 1133.675 568.453, 1136.614 566.735 C 1137.777 566.056, 1140.477 564.515, 1142.614 563.311 C 1144.751 562.107, 1149.640 558.102, 1153.477 554.411 C 1157.314 550.719, 1162.039 546.972, 1163.977 546.083 C 1172.274 542.276, 1173 541.350, 1173 534.566 C 1173 523.903, 1169.897 516.153, 1162.763 509 C 1159.742 505.970, 1158.268 502, 1160.165 502 C 1162.164 502, 1155.051 497.584, 1150 495.689 C 1143.550 493.270, 1136.605 486.982, 1135.242 482.327 C 1134.626 480.222, 1133.811 475.238, 1133.432 471.250 C 1133.009 466.808, 1132.307 464.061, 1131.621 464.158 C 1131.004 464.246, 1126.675 464.671, 1122 465.103" stroke="#81244d" fill="#81244d" fill-opacity="0.2" fill-rule="evenodd"/><path class="svg-region-OABr" d="M 619.750 456.970 C 615.764 460.887, 615 462.239, 615 465.374 C 615 467.429, 614.032 471.223, 612.849 473.805 C 610.143 479.712, 609.023 483.875, 608.049 491.658 C 607.624 495.044, 606.315 499.372, 605.139 501.276 C 602.636 505.325, 602.518 508.614, 604.485 519.500 C 605.280 523.900, 605.946 530.444, 605.965 534.042 C 605.999 540.408, 606.115 540.696, 610.288 544.792 C 617.979 552.340, 621.986 550.695, 640.736 532.289 C 647.062 526.080, 652.994 521, 653.918 521 C 654.843 521, 656.027 520.617, 656.550 520.148 C 657.754 519.069, 671.495 517.248, 684.560 516.436 C 693.964 515.852, 694.962 515.977, 699.886 518.352 C 705.417 521.020, 710 520.694, 710 517.632 C 710 516.852, 710.603 515.983, 711.340 515.700 C 712.365 515.306, 712.568 513.252, 712.203 506.950 C 711.753 499.176, 711.860 498.615, 714.103 496.922 C 716.193 495.346, 716.523 494.158, 716.846 487.065 L 717.212 479 712.644 479 C 710.132 479, 704.572 480.119, 700.288 481.487 C 696.005 482.855, 691.773 483.980, 690.885 483.987 C 689.997 483.994, 688.121 484.904, 686.716 486.009 C 680.650 490.780, 673.837 488.520, 675.494 482.285 C 675.901 480.753, 676.422 476.575, 676.653 473 C 677.011 467.460, 676.722 465.930, 674.696 462.642 L 672.319 458.784 657.909 458.558 C 643.148 458.327, 642.277 458.137, 631.764 452.870 C 628.099 451.034, 624.562 452.241, 619.750 456.970" stroke="#81244d" fill="#81244d" fill-opacity="0.2" fill-rule="evenodd"/>
    </svg>