<svg xmlns="http://www.w3.org/2000/svg" width="1785" height="1131" viewBox="0 0 1785 1131" version="1.1">
    <path class="svg-region-AAB" d="M 730.436 467.295 C 724.432 471.472, 720.737 475.666, 717.806 481.637 C 714.565 488.236, 711.654 490.549, 707.572 489.769 C 705.326 489.340, 705 489.618, 705 491.961 C 705 493.436, 705.624 496.636, 706.386 499.072 C 707.149 501.507, 708.292 505.414, 708.928 507.754 C 709.936 511.467, 710.746 512.340, 715.291 514.617 C 720.301 517.127, 733.895 527.456, 737 531.114 C 739.190 533.693, 748.069 537.869, 756.084 540.091 C 761.870 541.694, 766.543 542.041, 783.285 542.108 C 801.340 542.181, 804.073 541.972, 808.862 540.148 C 814.538 537.988, 818 535.469, 818 533.500 C 818 532.845, 818.829 531.560, 819.842 530.643 C 822.939 527.840, 824.438 516.756, 823.405 504.302 C 822.912 498.361, 822.646 488.271, 822.814 481.880 C 823.163 468.618, 822.705 467.848, 816.305 470.950 C 811.398 473.329, 806.941 474.851, 799.500 476.689 C 791.133 478.756, 760.656 478.139, 753.500 475.757 C 750.750 474.842, 746.481 473.572, 744.013 472.936 C 741.268 472.227, 738.333 470.512, 736.450 468.515 L 733.373 465.253 730.436 467.295 M 940.434 468.079 C 938.783 469.908, 938.540 471.486, 938.774 478.861 C 938.924 483.612, 939.658 489.750, 940.403 492.500 C 942.516 500.292, 944.502 520.677, 943.298 522.208 C 941.230 524.837, 940.936 529.969, 942.770 531.461 C 951.276 538.383, 959.407 543.165, 967.500 546.004 C 968.600 546.390, 971.750 547.498, 974.500 548.466 C 981.644 550.982, 987.134 551.946, 997.977 552.591 C 1013.953 553.540, 1027.257 550.100, 1045 540.430 C 1051.422 536.930, 1060.332 528.823, 1058.799 527.876 C 1057.882 527.309, 1058.004 526.653, 1059.290 525.232 C 1061.839 522.416, 1061.598 514.030, 1058.869 510.560 C 1057.697 509.070, 1056.517 505.898, 1056.248 503.511 C 1055.893 500.355, 1055.246 499.036, 1053.880 498.679 C 1052.319 498.271, 1052 497.225, 1052 492.526 C 1052 487.381, 1051.823 486.921, 1050.063 487.480 C 1048.997 487.818, 1047.309 487.658, 1046.313 487.123 C 1045.316 486.588, 1042.560 485.434, 1040.189 484.559 C 1037.817 483.683, 1034.667 481.805, 1033.189 480.385 C 1028.218 475.610, 1024.865 474.783, 1015.688 476.068 C 1007.627 477.198, 976.270 479.087, 966.500 479.033 C 959.791 478.995, 952.484 475.761, 946.934 470.371 L 942.367 465.937 940.434 468.079" stroke="#7f3c1a" fill="#7f3c1a" fill-opacity="0.2" fill-rule="evenodd"/><path class="svg-region-PC" d="M 943.454 441.602 C 939.880 444.690, 939.820 444.865, 940.314 450.626 C 941.711 466.915, 944.469 471.525, 955.847 476.594 C 962.016 479.342, 964.124 479.435, 990 478.100 C 1012.328 476.948, 1021.598 475.777, 1025.869 473.568 C 1031.462 470.675, 1032.621 463.442, 1028.592 456.567 C 1025.639 451.528, 1013.531 444.520, 1000.844 440.507 C 992.697 437.930, 991.963 437.875, 969.799 438.161 L 947.097 438.453 943.454 441.602 M 777.500 441.106 C 761.884 442.524, 754.807 443.755, 749.969 445.897 C 745.032 448.082, 738.865 453.273, 737.089 456.738 C 736.458 457.969, 734.860 459.248, 733.538 459.580 L 731.133 460.183 733.466 464.342 C 736.628 469.976, 739.572 471.952, 748.185 474.221 C 761.242 477.660, 763.294 477.912, 778.583 477.956 C 793.937 478.001, 803.926 476.750, 807.473 474.340 C 808.557 473.603, 810.357 472.998, 811.473 472.996 C 818.251 472.984, 824 464.315, 824 454.104 C 824 449.156, 823.625 448.016, 821.250 445.751 C 819.737 444.308, 817.150 442.592, 815.500 441.939 C 811.630 440.406, 790.343 439.939, 777.500 441.106" stroke="#cda789" fill="#cda789" fill-opacity="0.2" fill-rule="evenodd"/><path class="svg-region-IBl" d="M 1046.319 451.867 C 1036.126 454.856, 1032.672 458.060, 1030.837 466.230 C 1030.310 468.578, 1028.893 471.574, 1027.689 472.887 C 1026.252 474.455, 1025.907 475.420, 1026.685 475.699 C 1027.337 475.932, 1029.362 477.476, 1031.185 479.129 C 1038.237 485.524, 1041.823 486.455, 1059.500 486.479 C 1072.545 486.496, 1076.058 486.194, 1078.521 484.843 C 1081.138 483.407, 1081.875 483.369, 1084.021 484.557 C 1088.781 487.192, 1089.557 486.550, 1089.826 479.752 C 1090.012 475.026, 1090.668 472.643, 1092.516 469.977 C 1093.860 468.037, 1095.231 465.095, 1095.562 463.438 C 1096.217 460.165, 1096.536 460.431, 1086.750 456.095 C 1084.138 454.937, 1082 453.585, 1082 453.091 C 1082 452.022, 1075.018 451.119, 1062 450.503 C 1054.731 450.159, 1051.049 450.479, 1046.319 451.867" stroke="#b10e0e" fill="#b10e0e" fill-opacity="0.2" fill-rule="evenodd"/><path class="svg-region-IBr" d="M 694.519 439.561 C 693.430 440.384, 690.808 441.577, 688.693 442.210 C 686.022 443.011, 683.986 444.605, 682.030 447.431 C 680.480 449.669, 678.040 452.591, 676.606 453.924 C 675.173 455.258, 674 456.926, 674 457.631 C 674 458.337, 676.075 462.871, 678.612 467.707 C 684.820 479.545, 692.366 486.635, 700.336 488.118 C 702.626 488.544, 705.770 489.200, 707.322 489.577 C 711.581 490.609, 714.700 488.337, 717.618 482.076 C 720.467 475.962, 724.728 470.967, 729.750 467.852 C 733.352 465.619, 733.939 462.802, 731.218 460.807 C 730.238 460.088, 728.498 457.992, 727.352 456.148 C 726.206 454.304, 721.982 449.467, 717.966 445.398 L 710.663 438 703.581 438.032 C 698.884 438.053, 695.833 438.568, 694.519 439.561" stroke="#b10e0e" fill="#b10e0e" fill-opacity="0.2" fill-rule="evenodd"/><path class="svg-region-MB" d="M 972 335.165 C 966.042 337.047, 953.859 344.723, 952.567 347.409 C 952.278 348.009, 950.903 350.300, 949.510 352.500 C 942.918 362.915, 940.543 369.250, 940.138 377.500 C 939.520 390.087, 943.586 428.412, 946.043 433.157 C 949.024 438.911, 948.308 438.766, 970.895 438.223 C 990.380 437.755, 992.204 437.867, 999.060 439.950 C 1008.325 442.764, 1022.649 449.919, 1026.270 453.542 C 1027.794 455.066, 1029.305 457.368, 1029.629 458.657 C 1030.411 461.772, 1031.175 461.625, 1035.220 457.580 C 1041.600 451.200, 1055.921 449.069, 1076.108 451.495 C 1081.217 452.109, 1081.960 451.942, 1084.469 449.616 C 1085.984 448.213, 1088.073 446.794, 1089.111 446.465 C 1090.150 446.135, 1091 445.446, 1091 444.933 C 1091 443.559, 1093.381 443.796, 1096.636 445.494 C 1098.211 446.315, 1100.625 447, 1102 447.016 C 1103.375 447.031, 1106.525 447.981, 1109 449.127 C 1115.864 452.303, 1125.982 455.001, 1130.997 454.991 C 1134.780 454.984, 1136.099 454.415, 1139.250 451.428 L 1143 447.874 1143 439.143 L 1143 430.413 1136.967 429.074 C 1133.649 428.338, 1129.878 426.905, 1128.588 425.890 C 1127.297 424.875, 1122.490 422.231, 1117.906 420.014 C 1113.321 417.797, 1109.258 415.424, 1108.877 414.741 C 1108.496 414.059, 1107.177 410.378, 1105.945 406.561 C 1104.364 401.665, 1102.793 398.868, 1100.607 397.061 C 1098.903 395.653, 1094.706 391.913, 1091.280 388.750 C 1087.222 385.005, 1084.195 383, 1082.597 383 C 1081.247 383, 1079.454 382.311, 1078.612 381.469 C 1077.266 380.124, 1076.670 380.111, 1073.663 381.367 C 1071.783 382.153, 1069.938 383.292, 1069.563 383.898 C 1068.251 386.022, 1067.061 384.928, 1060.907 375.944 C 1053.075 364.508, 1041.542 353.007, 1037.904 353.003 C 1034.346 352.999, 1029.520 350.443, 1027.633 347.563 C 1026.764 346.236, 1024.608 344.872, 1022.784 344.495 C 1019.080 343.730, 1013 340.040, 1008.512 335.833 C 1005.508 333.016, 1005.466 333.009, 992 333.061 C 981.266 333.102, 977.168 333.533, 972 335.165 M 762.135 337.721 C 760.834 337.967, 758.359 339.029, 756.635 340.081 C 754.911 341.132, 752.556 341.994, 751.403 341.996 C 750.250 341.998, 748.268 342.900, 747 344 C 745.732 345.100, 744.409 346, 744.061 346 C 743.712 346, 741.419 347.775, 738.964 349.944 C 736.509 352.113, 732.158 355.043, 729.295 356.453 C 725.176 358.483, 723.901 359.699, 723.188 362.282 C 721.674 367.765, 716.832 374.515, 709.787 380.964 C 703.968 386.291, 702.804 386.965, 701.049 386.026 C 699.935 385.430, 698.745 383.830, 698.403 382.471 C 698.062 381.112, 697.494 380.016, 697.142 380.036 C 694.461 380.186, 682 395.073, 682 398.125 C 682 399.102, 681.363 400.260, 680.584 400.700 C 679.806 401.140, 677.845 403.169, 676.226 405.209 C 671.123 411.641, 663.520 417, 659.497 417 C 653.921 417, 650.112 419.184, 641.569 427.281 C 635.608 432.931, 632.300 435.253, 628.250 436.630 C 621.641 438.876, 621.081 439.522, 620.343 445.752 C 619.461 453.198, 621.096 454, 637.163 454 C 644.564 454, 650.140 454.418, 650.500 455 C 650.856 455.576, 656.149 456, 662.974 456 L 674.830 456 678.915 451.359 C 681.162 448.807, 683 446.338, 683 445.873 C 683 445.408, 686.332 443.446, 690.404 441.514 C 696.462 438.639, 698.962 438.001, 704.154 438.005 C 710.110 438.010, 710.715 438.230, 714 441.586 C 715.925 443.553, 719.413 447.046, 721.750 449.350 C 724.087 451.654, 726.015 453.980, 726.033 454.519 C 726.100 456.481, 729.873 460, 731.910 460 C 733.060 460, 734.693 459.212, 735.540 458.250 C 736.387 457.288, 738.862 454.551, 741.040 452.168 C 743.218 449.786, 745 447.475, 745 447.032 C 745 446.590, 746.688 445.404, 748.750 444.396 C 751.543 443.032, 756.074 442.383, 766.500 441.855 C 774.200 441.465, 785.900 440.837, 792.500 440.459 C 799.301 440.070, 806.758 440.193, 809.710 440.743 L 814.921 441.713 815.990 436.606 C 816.578 433.798, 817.502 425.650, 818.043 418.500 C 818.585 411.350, 819.482 402.800, 820.036 399.500 C 820.591 396.200, 821.311 388.078, 821.637 381.450 C 822.179 370.399, 822.039 368.950, 819.944 363.950 C 816.370 355.422, 808.290 345.906, 801.587 342.333 C 793.870 338.219, 787.879 336.998, 776.093 337.136 C 769.717 337.211, 763.436 337.474, 762.135 337.721" stroke="#f9c6c6" fill="#f9c6c6" fill-opacity="0.2" fill-rule="evenodd"/><path class="svg-region-DMl" d="M 1075.447 310.533 C 1072.176 313.542, 1066.426 318.087, 1062.668 320.633 C 1056.348 324.916, 1054.042 327.375, 1055.232 328.565 C 1055.495 328.828, 1058.691 329.668, 1062.335 330.430 C 1065.978 331.192, 1069.675 332.532, 1070.551 333.408 C 1071.426 334.284, 1072.538 335, 1073.020 335 C 1073.502 335, 1075.118 336.131, 1076.610 337.514 C 1078.976 339.707, 1079.355 340.890, 1079.571 346.764 C 1079.768 352.098, 1079.388 354.229, 1077.745 357 C 1076.216 359.578, 1075.549 362.788, 1075.215 369.187 C 1074.773 377.652, 1074.832 377.940, 1077.527 380.437 C 1079.048 381.847, 1081.390 383, 1082.733 383 C 1084.338 383, 1087.282 384.999, 1091.337 388.841 C 1094.726 392.054, 1098.948 395.941, 1100.717 397.478 C 1102.487 399.015, 1104.439 401.899, 1105.055 403.886 C 1108.788 415.928, 1108.632 415.731, 1117.894 420.115 C 1122.627 422.355, 1127.208 424.818, 1128.073 425.589 C 1129.981 427.288, 1138.527 429.974, 1142.072 429.989 C 1145.944 430.005, 1150.103 423.297, 1149.008 418.803 C 1147.167 411.247, 1142.928 401.648, 1139.821 398.002 C 1134.186 391.390, 1132.338 388.610, 1131.611 385.650 C 1130.691 381.900, 1128.016 378.194, 1119.250 368.522 C 1115.263 364.123, 1112 360.015, 1112 359.395 C 1112 358.774, 1108.400 352.802, 1104 346.123 C 1099.600 339.444, 1096 333.550, 1096 333.026 C 1096 332.502, 1093.367 329.244, 1090.149 325.787 C 1082.823 317.916, 1081.791 315.944, 1082.128 310.465 C 1082.277 308.045, 1082.173 305.839, 1081.897 305.563 C 1081.621 305.287, 1078.719 307.524, 1075.447 310.533" stroke="#68533d" fill="#68533d" fill-opacity="0.2" fill-rule="evenodd"/><path class="svg-region-DMr" d="M 677 301.967 C 677 307.252, 656.040 343.691, 647.895 352.564 C 646.853 353.700, 646 354.982, 646 355.413 C 646 355.845, 643.271 359.820, 639.935 364.247 C 636.599 368.674, 631.683 376.617, 629.011 381.898 C 624.562 390.691, 619.311 397.313, 613.500 401.459 C 611.522 402.870, 611.532 402.947, 614.386 408.469 C 617.619 414.723, 617.589 415.657, 613.353 439.750 C 612.835 442.695, 613.013 443, 615.256 443 C 616.617 443, 618.873 442.101, 620.270 441.002 C 621.666 439.904, 625.242 438.074, 628.215 436.936 C 632.008 435.485, 635.991 432.625, 641.561 427.354 C 650.200 419.178, 653.990 417, 659.575 417 C 663.635 417, 669.996 412.563, 676.062 405.500 C 677.951 403.300, 680.060 401.140, 680.748 400.700 C 681.437 400.260, 682 399.120, 682 398.166 C 682 397.211, 685.204 392.211, 689.120 387.053 C 696.203 377.723, 696.231 377.661, 694.620 374.933 C 693.729 373.425, 693 370.525, 693 368.489 C 693 364.084, 695.632 351.782, 697.519 347.364 C 698.256 345.639, 700.525 339.214, 702.560 333.087 C 706.960 319.841, 707.844 321.742, 691.759 309.866 C 685.841 305.498, 681 301.491, 681 300.962 C 681 300.433, 680.100 300, 679 300 C 677.678 300, 677 300.667, 677 301.967 M 745.856 306.718 C 746.384 307.698, 748.022 309.625, 749.495 311 C 752.326 313.642, 759 324.829, 759 326.933 C 759 327.615, 760.426 330.159, 762.170 332.587 L 765.339 337 772.670 337 C 776.701 337, 780 336.826, 780 336.614 C 780 336.402, 779.328 334.940, 778.506 333.364 C 775.953 328.469, 776.553 324.019, 780.174 320.996 C 784.784 317.147, 783.593 315, 776.847 315 C 773.884 315, 769.876 314.196, 767.566 313.139 C 765.330 312.115, 761.475 310.726, 759 310.052 C 756.525 309.379, 753.600 308.262, 752.500 307.572 C 751.400 306.881, 749.239 306.006, 747.698 305.626 C 745.226 305.017, 745.009 305.146, 745.856 306.718" stroke="#68533d" fill="#68533d" fill-opacity="0.2" fill-rule="evenodd"/><path class="svg-region-PV" d="M 925 182.060 C 922.525 182.497, 918.475 183.325, 916 183.901 C 907.318 185.923, 890.578 188, 882.969 188 C 872.459 188, 850.398 186.224, 839.500 184.501 C 834.550 183.719, 828.991 182.907, 827.146 182.697 L 823.792 182.316 824.412 189.408 C 826.294 210.959, 826.284 216.637, 824.359 219.575 C 822.914 221.780, 822.518 224.204, 822.580 230.456 C 822.665 239.110, 822.613 238.936, 831.559 260.500 C 832.244 262.150, 834.271 267.782, 836.064 273.015 L 839.324 282.530 835.560 294.515 C 833.490 301.107, 830.924 308.019, 829.857 309.876 C 828.791 311.733, 828.050 313.337, 828.209 313.440 C 830.907 315.187, 838.092 316.079, 846.500 315.711 C 858.608 315.182, 861.985 314.406, 864.178 311.649 C 865.754 309.667, 866.739 309.546, 880.496 309.638 C 889.933 309.702, 895.539 310.139, 896.268 310.868 C 896.891 311.491, 898.713 312, 900.318 312 C 904.819 312, 928.866 307.467, 929.912 306.421 C 930.169 306.164, 929.411 305.276, 928.229 304.448 C 927.046 303.619, 925.670 301.466, 925.173 299.663 C 924.079 295.704, 924.925 263.164, 926.141 262.413 C 926.613 262.121, 927 247.374, 927 229.641 C 927 208.085, 927.354 197.046, 928.069 196.331 C 928.658 195.742, 929.253 192.052, 929.392 188.131 C 929.531 184.209, 929.613 181.060, 929.573 181.134 C 929.533 181.207, 927.475 181.624, 925 182.060" stroke="#b09658" fill="#b09658" fill-opacity="0.2" fill-rule="evenodd"/><path class="svg-region-Fl" d="M 943.382 157.909 C 941.148 159.271, 938.970 162.459, 935.699 169.155 C 930.038 180.745, 928.922 184.356, 929.148 190.348 C 929.247 192.947, 928.803 195.597, 928.164 196.236 C 927.327 197.073, 927 206.460, 927 229.641 C 927 247.374, 926.619 262.117, 926.154 262.405 C 925.688 262.693, 925.045 270.685, 924.724 280.165 C 924.079 299.223, 924.649 302.230, 929.511 305.416 C 931.923 306.996, 933.380 307.133, 940.398 306.442 C 944.854 306.004, 956.150 305.539, 965.500 305.410 C 1003.660 304.883, 1022.408 301.075, 1030.297 292.249 C 1031.814 290.552, 1031.882 290.024, 1030.734 288.869 C 1029.655 287.784, 1029.383 282.308, 1029.425 262.500 C 1029.480 236.393, 1028.870 227.449, 1026.610 221.221 C 1023.505 212.664, 1022.001 206.004, 1022.025 200.912 C 1022.048 195.730, 1022.198 195.426, 1025.566 193.750 C 1027.500 192.787, 1029.990 192, 1031.100 192 C 1032.210 192, 1032.838 191.546, 1032.495 190.992 C 1031.297 189.054, 1002.548 172.582, 997.396 170.883 C 994.536 169.939, 987.540 167.363, 981.848 165.158 C 958.269 156.022, 949.261 154.324, 943.382 157.909" stroke="#5ca7a9" fill="#5ca7a9" fill-opacity="0.2" fill-rule="evenodd"/><path class="svg-region-Fr" d="M 777.500 164.501 C 764.032 166.973, 753.695 171.046, 746.140 176.859 C 744.037 178.477, 743.926 178.909, 745.122 180.824 C 746.275 182.670, 746.146 184.211, 744.206 191.737 C 742.964 196.557, 741.960 203.258, 741.974 206.628 C 741.989 210.191, 741.302 214.376, 740.332 216.628 C 737.609 222.948, 736.800 229.483, 736.323 248.975 C 736.043 260.435, 735.448 267.960, 734.756 268.794 C 734.143 269.533, 733.371 275.453, 733.041 281.950 C 732.665 289.362, 731.957 294.347, 731.140 295.331 C 730.003 296.701, 730.955 297.453, 738.669 301.285 C 745.773 304.813, 749.646 306.013, 758.472 307.419 C 764.506 308.380, 770.214 309.579, 771.156 310.083 C 772.098 310.588, 777.061 311.003, 782.184 311.008 C 792.992 311.016, 803.595 312.523, 806.593 314.477 C 807.745 315.227, 811.267 316.318, 814.421 316.901 C 819.401 317.821, 820.641 317.714, 823.836 316.084 C 828.540 313.684, 830.860 309.445, 835.593 294.605 L 839.386 282.710 836.095 273.105 C 834.285 267.822, 832.244 262.150, 831.559 260.500 C 822.760 239.289, 822.692 239.065, 822.603 231 C 822.543 225.577, 823.034 222.460, 824.376 219.745 C 825.948 216.567, 826.144 214.496, 825.658 206.245 C 824.646 189.090, 823.370 179.151, 821.962 177.454 C 819.555 174.553, 808.668 166.561, 804.657 164.750 C 800.022 162.657, 788.141 162.548, 777.500 164.501" stroke="#5ca7a9" fill="#5ca7a9" fill-opacity="0.2" fill-rule="evenodd"/><path class="svg-region-PCl" d="M 1025.250 193.648 C 1022.151 195.175, 1022 195.515, 1022 200.947 C 1022 206.221, 1022.538 208.608, 1026.519 221 C 1028.923 228.483, 1029.276 233.398, 1029.390 261 C 1029.498 287.025, 1029.542 287.558, 1031.818 290.750 C 1035.370 295.730, 1038.621 295.214, 1045.164 288.632 C 1048.099 285.679, 1052.082 282.192, 1054.015 280.882 C 1065.699 272.965, 1078.589 260.361, 1081.984 253.532 C 1085.944 245.566, 1085.087 243.529, 1069.894 224.790 C 1063.380 216.755, 1045.540 199.428, 1037.937 193.750 C 1035.029 191.578, 1029.537 191.534, 1025.250 193.648" stroke="#465ee0" fill="#465ee0" fill-opacity="0.2" fill-rule="evenodd"/><path class="svg-region-PCr" d="M 741 179.992 C 738.876 180.594, 726.235 188.483, 716.790 195.101 C 715.300 196.146, 713.843 197, 713.552 197 C 711.779 197, 694.392 214.241, 689.126 221.220 C 684.855 226.880, 682.339 233.135, 681.021 241.364 C 680.059 247.372, 682.540 256.208, 686.786 261.893 C 691.327 267.974, 705.802 281.486, 711.575 285.034 C 714.677 286.940, 719.811 290.188, 722.984 292.250 C 726.156 294.313, 729.231 296, 729.817 296 C 731.861 296, 732.447 293.420, 733.042 281.819 C 733.372 275.394, 734.143 269.533, 734.756 268.794 C 735.448 267.960, 736.043 260.435, 736.323 248.975 C 736.800 229.483, 737.609 222.948, 740.332 216.628 C 741.293 214.397, 742 210.130, 742 206.560 C 742 203.153, 742.889 197.020, 743.976 192.932 C 747.029 181.455, 746.344 178.478, 741 179.992" stroke="#465ee0" fill="#465ee0" fill-opacity="0.2" fill-rule="evenodd"/><path class="svg-region-DV" d="M 888 152.979 C 874.501 154.990, 863.616 156, 855.387 156.004 C 845.524 156.009, 816.504 158.479, 813.722 159.550 C 811.919 160.245, 810 163.009, 810 164.910 C 810 165.483, 812.780 168.681, 816.178 172.016 C 819.575 175.351, 822.848 179.074, 823.451 180.290 C 824.152 181.705, 825.617 182.593, 827.523 182.760 C 829.160 182.902, 834.550 183.673, 839.500 184.472 C 850.560 186.257, 872.400 188, 883.702 188 C 892.561 188, 901.558 186.903, 914 184.307 C 918.125 183.446, 923.417 182.421, 925.760 182.028 C 928.102 181.635, 930.155 181.131, 930.320 180.907 C 930.486 180.683, 932.330 176.675, 934.418 172 C 936.507 167.325, 938.842 162.790, 939.608 161.921 C 940.373 161.053, 941 160.056, 941 159.706 C 941 158.237, 936.068 156.515, 930 155.868 C 926.425 155.487, 921.475 154.636, 919 153.977 C 913.355 152.474, 895.287 151.893, 888 152.979" stroke="#45567a" fill="#45567a" fill-opacity="0.2" fill-rule="evenodd"/><path class="svg-region-B" d="M 978.682 657.409 C 973.921 660.336, 969 664.989, 969 666.565 C 969 667.219, 968.357 668.289, 967.570 668.942 C 965.658 670.529, 962 681.550, 962 685.726 C 962 692.835, 967.870 700.917, 975.772 704.687 C 981.675 707.504, 992.054 704.418, 996.564 698.505 C 1000.419 693.451, 1000.717 688.115, 997.656 679 C 990.778 658.524, 988.837 654.967, 984.576 655.031 C 983.434 655.048, 980.782 656.118, 978.682 657.409 M 787.083 668.412 C 784.897 670.739, 784.829 671.364, 785.159 686.209 C 785.543 703.528, 786.044 705.015, 793.049 709.651 C 798.573 713.306, 805.475 713.899, 810.048 711.112 C 811.947 709.954, 814.272 709.006, 815.215 709.004 C 817.416 708.999, 820.954 702.530, 822.677 695.360 C 823.529 691.812, 818.877 685.539, 813.225 682.617 C 811.528 681.739, 808.654 678.953, 806.839 676.426 C 802.879 670.912, 795.947 666, 792.124 666 C 790.484 666, 788.422 666.986, 787.083 668.412" stroke="#e23b33" fill="#e23b33" fill-opacity="0.2" fill-rule="evenodd"/><path class="svg-region-Ol" d="M 1270 266.929 C 1259.123 269.092, 1245.263 273.594, 1243.235 275.622 C 1242.477 276.380, 1241.429 277, 1240.906 277 C 1239.368 277, 1224 286.190, 1224 287.109 C 1224 287.571, 1222.546 288.701, 1220.768 289.620 C 1210.103 295.135, 1192.278 319.354, 1189.468 332.146 C 1189.071 333.954, 1188.367 336.124, 1187.905 336.967 C 1186.319 339.856, 1185.348 353.119, 1185.592 368.537 C 1185.873 386.312, 1186.191 387.123, 1195.595 394.070 C 1201.771 398.632, 1222.288 418.763, 1226.100 424 C 1230.105 429.502, 1232.358 436.992, 1233.471 448.500 C 1234.081 454.800, 1233.847 456.282, 1231.132 463.326 C 1229.474 467.630, 1226.586 473.030, 1224.716 475.326 C 1222.846 477.622, 1221.015 480.625, 1220.647 482 C 1220.279 483.375, 1217.667 486.300, 1214.842 488.500 C 1212.017 490.700, 1209.139 493.052, 1208.447 493.728 C 1207.754 494.403, 1204.783 495.916, 1201.844 497.090 C 1197.181 498.952, 1195.195 499.153, 1186.250 498.668 C 1180.612 498.362, 1176 498.338, 1176 498.615 C 1176 498.891, 1177.366 500.818, 1179.036 502.896 C 1182.823 507.607, 1183.869 513.025, 1181.647 516.417 C 1180.253 518.544, 1171.744 523.243, 1162.750 526.853 C 1161.188 527.480, 1160 528.729, 1160 529.743 C 1160 533.811, 1152.732 544, 1149.831 544 C 1149.244 544, 1146.905 542.113, 1144.632 539.808 C 1140.098 535.207, 1132.714 529.904, 1126.500 526.783 C 1124.300 525.678, 1121.512 523.869, 1120.303 522.763 C 1117.932 520.591, 1115.617 520.609, 1099 522.931 C 1094.875 523.507, 1087.810 524.274, 1083.299 524.634 L 1075.099 525.290 1069.299 531.892 C 1066.110 535.523, 1062.211 539.592, 1060.635 540.933 C 1059.059 542.274, 1056.928 545.336, 1055.899 547.737 C 1053.407 553.548, 1045.945 562.051, 1039.895 565.971 C 1032.423 570.813, 1025.757 579.259, 1020.932 590 C 1019.820 592.475, 1017.190 597.875, 1015.087 602 C 1012.985 606.125, 1010.293 612.263, 1009.106 615.640 C 1007.154 621.193, 1007.053 622.484, 1008.046 629.140 C 1009.215 636.980, 1012.004 645.999, 1015.247 652.436 C 1016.338 654.601, 1018.122 659.087, 1019.211 662.403 C 1021.464 669.268, 1025.084 676.698, 1031.299 687.220 C 1033.664 691.224, 1035.884 695.244, 1036.232 696.154 C 1036.579 697.064, 1039.594 701.863, 1042.932 706.819 C 1046.269 711.774, 1049 716.121, 1049 716.478 C 1049 716.834, 1052.786 722.886, 1057.414 729.926 C 1062.041 736.965, 1067.002 744.925, 1068.438 747.613 C 1069.874 750.301, 1071.865 753.850, 1072.863 755.500 C 1073.861 757.150, 1076.235 761.425, 1078.139 765 C 1082.946 774.029, 1085.224 777.599, 1098.432 796.787 C 1103.434 804.054, 1124.229 824.713, 1129.850 828 C 1132.201 829.375, 1135.784 831.581, 1137.813 832.903 C 1144.188 837.058, 1157.371 843.810, 1162.523 845.559 C 1168.030 847.429, 1190.917 847.742, 1195.473 846.010 C 1198.161 844.988, 1207.863 845.377, 1223.387 847.128 C 1242.555 849.290, 1251.570 846.140, 1271 830.489 C 1284.986 819.224, 1303.219 798.160, 1315.306 779.303 C 1319.742 772.382, 1326.883 758.230, 1329.526 751.122 C 1331.973 744.539, 1336.914 732.985, 1340.832 724.682 C 1342.955 720.182, 1345.724 714.025, 1346.985 711 C 1348.245 707.975, 1350.533 702.800, 1352.068 699.500 C 1353.603 696.200, 1355.811 690.946, 1356.973 687.825 C 1358.136 684.704, 1360.193 680.521, 1361.544 678.531 C 1362.895 676.540, 1364 674.565, 1364 674.143 C 1364 673.720, 1365.065 671.153, 1366.367 668.437 C 1374.759 650.932, 1377 645.992, 1377 644.994 C 1377 644.375, 1377.541 642.886, 1378.202 641.684 C 1378.863 640.483, 1379.508 638.870, 1379.635 638.100 C 1379.763 637.330, 1380.252 636.430, 1380.723 636.100 C 1381.194 635.770, 1382.868 632.575, 1384.444 629 C 1386.019 625.425, 1392.526 611.907, 1398.904 598.959 C 1405.282 586.012, 1411.272 573.637, 1412.217 571.459 C 1413.161 569.282, 1414.325 566.825, 1414.805 566 C 1417.180 561.914, 1419.424 557.609, 1424.183 548.010 C 1427.043 542.241, 1432.960 531.216, 1437.331 523.510 C 1448.298 504.176, 1454 493.761, 1454 493.062 C 1454 492.737, 1454.969 490.677, 1456.153 488.485 C 1458.420 484.289, 1460.754 477.432, 1464.147 465 C 1465.831 458.832, 1466.183 454.658, 1466.129 441.500 C 1466.093 432.700, 1465.865 424.375, 1465.622 423 C 1465.379 421.625, 1464.866 418.250, 1464.481 415.500 C 1462.775 403.307, 1456.459 384.784, 1449.138 370.500 C 1446.037 364.450, 1443.162 359.350, 1442.750 359.167 C 1442.338 358.983, 1442 358.422, 1442 357.919 C 1442 357.084, 1438.478 351.934, 1429.770 340.032 C 1424.446 332.757, 1413.933 321.596, 1407.500 316.391 C 1401.016 311.144, 1395.861 306.709, 1392.431 303.429 C 1388.908 300.058, 1376.096 291.618, 1367.500 287.006 C 1355.046 280.324, 1344.056 275, 1342.718 275.001 C 1342.048 275.001, 1336.550 273.484, 1330.500 271.629 C 1313.618 266.452, 1310.932 265.992, 1294.658 265.499 C 1282.437 265.129, 1277.660 265.406, 1270 266.929" stroke="#aa444d" fill="#aa444d" fill-opacity="0.2" fill-rule="evenodd"/><path class="svg-region-Or" d="M 523.909 280.402 C 523.584 280.739, 520.209 281.447, 516.409 281.976 C 503.378 283.788, 500.499 284.301, 500 284.900 C 499.526 285.469, 494.037 287.567, 480.500 292.354 C 477.200 293.521, 474.275 294.752, 474 295.090 C 473.725 295.428, 471.813 296.446, 469.750 297.352 C 467.688 298.258, 464.313 299.743, 462.250 300.651 C 452.523 304.934, 435.344 313.336, 434 314.468 C 433.175 315.163, 431.340 316.006, 429.922 316.342 C 426.277 317.204, 404.897 330.221, 396.165 336.895 C 392.130 339.978, 387.322 343.501, 385.479 344.724 C 383.636 345.947, 381.762 347.557, 381.314 348.302 C 380.866 349.047, 379.150 350.463, 377.500 351.449 C 375.850 352.435, 373.150 355.059, 371.500 357.280 C 369.850 359.501, 367.600 361.809, 366.500 362.409 C 360.226 365.832, 333.472 398.555, 328 409.500 C 327.725 410.050, 326.339 412.300, 324.921 414.500 C 321.156 420.339, 313.430 438.481, 311.505 446 C 310.590 449.575, 309.436 454.075, 308.941 456 C 308.446 457.925, 308.045 464.450, 308.049 470.500 C 308.058 483.688, 308.262 486.596, 309.250 487.584 C 309.663 487.996, 310 489.552, 310 491.042 C 310 492.532, 311.080 496.193, 312.400 499.178 C 313.720 502.162, 315.273 508.406, 315.852 513.052 C 317.254 524.295, 323.711 543.175, 329.807 553.853 C 332.522 558.609, 335.054 563.850, 335.434 565.500 C 336.098 568.388, 345.281 585.622, 349.132 591.210 C 350.160 592.700, 351 594.149, 351 594.430 C 351 594.711, 352.293 596.867, 353.874 599.221 C 359.368 607.401, 363.757 614.529, 366.362 619.500 C 367.803 622.250, 370.997 627.650, 373.459 631.500 C 377.767 638.235, 387.555 655.409, 394.832 669 C 396.746 672.575, 399.083 676.625, 400.025 678 C 400.967 679.375, 407.066 691.075, 413.578 704 C 428.662 733.939, 439.755 754.545, 443.220 759.064 C 444.716 761.014, 446.886 764.835, 448.043 767.555 C 450.040 772.251, 459.352 791.061, 461.513 794.764 C 462.071 795.719, 464.226 799.425, 466.304 803 C 474.115 816.442, 482.212 828.864, 485.403 832.304 C 486.834 833.846, 488.654 836.321, 489.447 837.804 C 491.220 841.116, 504.340 854.769, 508.654 857.791 C 510.389 859.006, 512.385 860, 513.090 860 C 513.795 860, 515.384 860.952, 516.622 862.115 C 520.001 865.289, 542.678 867.290, 568 866.646 C 589.303 866.105, 588.742 866.205, 607.500 859.653 C 614.650 857.155, 622.596 854.594, 625.158 853.960 C 627.720 853.327, 631.095 851.581, 632.658 850.080 C 634.221 848.580, 639.805 844.148, 645.067 840.233 C 654.672 833.085, 679.312 809.697, 684.479 802.823 C 692.616 791.998, 698.356 783.788, 702.007 777.750 C 704.252 774.038, 706.682 771, 707.408 771 C 708.134 771, 709.529 768.862, 710.508 766.250 C 711.487 763.638, 713.804 759.407, 715.656 756.849 C 717.509 754.291, 719.940 750.129, 721.059 747.599 C 722.178 745.070, 723.459 743, 723.905 743 C 726.220 743, 745.385 706.102, 753.251 686.500 C 757.867 674.999, 761 666.658, 761 665.872 C 761 665.387, 762.171 662.630, 763.602 659.745 C 772.122 642.572, 771.653 587.899, 762.909 578.947 C 762.034 578.051, 759.692 574.868, 757.705 571.875 C 751.890 563.114, 733.774 545.966, 723.850 539.828 C 718.765 536.682, 714.460 531.680, 713.480 527.777 C 712.881 525.389, 706.104 521, 703.016 521 C 702.320 521, 699.219 519.937, 696.125 518.638 C 683.359 513.278, 680.135 512.959, 669.500 516 C 665.654 517.100, 660.030 518.014, 657.003 518.032 C 653.758 518.051, 650.703 518.666, 649.559 519.532 C 648.491 520.339, 646.798 521, 645.795 521 C 644.793 521, 643.079 521.450, 641.986 522 C 640.894 522.550, 639.106 523.450, 638.014 524 C 636.921 524.550, 635.221 525, 634.236 525 C 633.251 525, 631.557 525.614, 630.473 526.365 C 629.388 527.116, 627.410 528.071, 626.077 528.488 C 623.438 529.312, 622.256 530.154, 618.185 534.107 C 616.708 535.540, 613.882 537.010, 611.904 537.373 C 607.124 538.250, 601.150 541.261, 597.686 544.538 C 595.885 546.242, 594.167 547.015, 592.913 546.687 C 591.490 546.315, 589.975 547.346, 587.379 550.451 C 585.413 552.803, 581.132 557.080, 577.865 559.955 C 569.664 567.174, 569 566.475, 569 550.620 C 569 539.594, 568.771 538.055, 566.500 533.788 C 563.674 528.479, 563.281 524.490, 565.500 523.638 C 566.325 523.322, 567 522.389, 567 521.567 C 567 520.744, 567.900 519.589, 569 519 C 572.739 516.999, 571.288 515.264, 564.938 514.146 C 557.209 512.784, 551.352 509.846, 545.975 504.631 C 538.842 497.714, 537.310 494.632, 535.342 483.241 C 535.032 481.448, 534.379 479.734, 533.890 479.432 C 532.639 478.659, 532.745 458, 534 458 C 534.550 458, 535 456.644, 535 454.986 C 535 453.329, 535.404 451.191, 535.897 450.236 C 536.391 449.281, 537.601 446.551, 538.586 444.169 C 540.372 439.850, 550.602 429.400, 558 424.337 C 565.945 418.900, 568.707 416.681, 572.750 412.484 C 575.087 410.058, 577 407.256, 577 406.259 C 577 405.261, 577.703 403.441, 578.563 402.214 C 579.799 400.449, 580.060 397.738, 579.813 389.241 L 579.500 378.500 582.887 373.500 C 584.750 370.750, 587.425 365.575, 588.832 362 C 591.053 356.357, 591.390 353.984, 591.384 344 C 591.376 328.565, 590.481 324.051, 585.379 313.717 C 577.120 296.993, 569.713 289.833, 554.500 283.869 C 547.758 281.226, 544.770 280.659, 535.500 280.261 C 529.450 280.002, 524.234 280.065, 523.909 280.402" stroke="#aa444d" fill="#aa444d" fill-opacity="0.2" fill-rule="evenodd"/><path class="svg-region-Pl" d="M 1204.833 403.894 C 1204.124 405.799, 1180.822 417.985, 1177.872 417.995 C 1176.977 417.998, 1175.695 418.663, 1175.022 419.474 C 1174.349 420.284, 1172.269 421.234, 1170.400 421.585 C 1168.530 421.936, 1167 422.560, 1167 422.972 C 1167 423.385, 1165.088 424.742, 1162.750 425.989 C 1158.504 428.253, 1154.300 433.592, 1151.612 440.133 C 1150.837 442.019, 1149.916 449.487, 1149.519 457.115 C 1148.912 468.761, 1149.049 471.193, 1150.461 473.925 C 1152.879 478.600, 1158.474 484.483, 1167.244 491.570 C 1174.833 497.704, 1175.138 497.842, 1182.607 498.542 C 1194.795 499.684, 1203.793 497.964, 1208.674 493.559 C 1209.320 492.977, 1212.123 490.700, 1214.902 488.500 C 1217.682 486.300, 1220.268 483.378, 1220.648 482.006 C 1221.028 480.634, 1222.983 477.432, 1224.993 474.890 C 1227.002 472.348, 1229.213 468.745, 1229.906 466.884 C 1230.599 465.023, 1231.837 461.952, 1232.657 460.061 C 1234.638 455.492, 1233.566 441.947, 1230.505 432.851 C 1228.006 425.425, 1227.886 425.246, 1219.500 416.417 C 1216.200 412.943, 1212.101 408.502, 1210.391 406.550 C 1207.316 403.038, 1205.479 402.161, 1204.833 403.894" stroke="#f9d3d3" fill="#f9d3d3" fill-opacity="0.2" fill-rule="evenodd"/><path class="svg-region-Pr" d="M 567.500 417.713 C 566.400 417.978, 564.375 419.189, 563 420.404 C 561.625 421.619, 558.769 423.882, 556.654 425.431 C 545.641 433.499, 537 443.463, 537 448.095 C 537 449.078, 536.550 450.160, 536 450.500 C 535.450 450.840, 535 452.666, 535 454.559 C 535 456.452, 534.550 458, 534 458 C 532.745 458, 532.639 478.659, 533.890 479.432 C 534.379 479.734, 535.021 481.448, 535.317 483.241 C 537.302 495.260, 538.629 497.945, 546.161 505.185 C 551.311 510.135, 558.050 513.237, 566.250 514.431 C 568.862 514.811, 571 515.557, 571 516.087 C 571 516.617, 572.328 516.365, 573.950 515.526 C 575.573 514.687, 577.638 514, 578.540 514 C 579.441 514, 582.146 511.975, 584.552 509.500 C 586.957 507.025, 589.309 505, 589.779 505 C 590.248 505, 591.643 503.200, 592.880 501 C 594.116 498.800, 595.469 497, 595.886 497 C 596.688 497, 599.492 491.097, 603.011 482 C 604.181 478.975, 606.232 474.620, 607.569 472.322 C 608.975 469.905, 610.007 466.533, 610.016 464.322 C 610.024 462.220, 610.683 457.800, 611.480 454.500 C 612.990 448.247, 613.555 430.991, 612.250 431.012 C 611.837 431.018, 609.025 431.688, 606 432.500 C 597.089 434.892, 594.724 434.522, 589.380 429.896 C 586.772 427.639, 583.482 425.284, 582.069 424.662 C 580.656 424.040, 578.910 422.734, 578.189 421.760 C 576.834 419.929, 571.708 416.912, 570.300 417.116 C 569.860 417.180, 568.600 417.449, 567.500 417.713" stroke="#f9d3d3" fill="#f9d3d3" fill-opacity="0.2" fill-rule="evenodd"/><path class="svg-region-OLl" d="M 1152 407.839 C 1148.647 409.710, 1148.509 410.007, 1148.721 414.933 C 1148.981 420.978, 1149.330 421.676, 1154.202 425.908 L 1157.904 429.123 1163.435 425.585 C 1166.477 423.639, 1170.080 421.767, 1171.442 421.425 C 1172.804 421.083, 1174.442 420.173, 1175.081 419.402 C 1175.721 418.631, 1177.139 418, 1178.231 418 C 1179.897 418, 1180.106 417.558, 1179.528 415.256 C 1178.093 409.536, 1174.292 407.533, 1163 406.544 C 1156.629 405.986, 1154.973 406.181, 1152 407.839" stroke="#c4875d" fill="#c4875d" fill-opacity="0.2" fill-rule="evenodd"/><path class="svg-region-VOC" d="M 1143.698 430.636 C 1143.314 431.019, 1143 435.055, 1143 439.604 C 1143 447.862, 1142.995 447.879, 1139.250 451.428 C 1136.231 454.290, 1134.712 454.984, 1131.460 454.991 C 1126.440 455.002, 1117.862 452.809, 1110.030 449.513 C 1106.747 448.131, 1103.034 446.997, 1101.780 446.994 C 1100.526 446.990, 1098.211 446.315, 1096.636 445.494 C 1093.341 443.775, 1091 443.562, 1091 444.981 C 1091 445.520, 1089.925 446.232, 1088.610 446.562 C 1085.994 447.218, 1082 451.275, 1082 453.275 C 1082 453.968, 1085.938 456.100, 1090.750 458.013 C 1095.563 459.927, 1099.650 461.831, 1099.833 462.246 C 1100.017 462.661, 1101.254 463, 1102.583 463 C 1103.912 463, 1105 463.399, 1105 463.887 C 1105 464.374, 1109.612 464.963, 1115.250 465.196 C 1126.743 465.670, 1131.795 467.310, 1140.322 473.340 C 1143.961 475.914, 1151 476.804, 1151 474.691 C 1151 473.826, 1150.502 472.810, 1149.894 472.434 C 1147.988 471.257, 1149.789 444.432, 1152.137 439.034 L 1154.079 434.568 1151.789 432.806 C 1150.530 431.837, 1148.974 431.034, 1148.332 431.022 C 1147.689 431.010, 1146.541 430.761, 1145.780 430.469 C 1145.018 430.177, 1144.082 430.252, 1143.698 430.636" stroke="#ff8f93" fill="#ff8f93" fill-opacity="0.2" fill-rule="evenodd"/><path class="svg-region-OABl" d="M 1095.379 464.635 C 1094.544 466.634, 1093.001 469.447, 1091.951 470.885 C 1090.642 472.678, 1089.969 475.464, 1089.810 479.750 C 1089.558 486.551, 1088.784 487.194, 1084.021 484.557 C 1081.885 483.374, 1081.126 483.405, 1078.521 484.775 C 1076.443 485.869, 1071.831 486.503, 1063.750 486.806 L 1052 487.247 1052 492.615 C 1052 496.900, 1052.403 498.235, 1054 499.232 C 1055.100 499.919, 1056 501.469, 1056 502.675 C 1056 505.506, 1057.813 510.266, 1059.223 511.138 C 1059.826 511.511, 1060.531 514.355, 1060.788 517.457 C 1061.186 522.254, 1060.931 523.445, 1059.085 525.409 L 1056.915 527.719 1063.689 528.263 C 1069.148 528.701, 1070.951 528.466, 1072.981 527.048 C 1074.579 525.932, 1078.427 525.040, 1083.500 524.608 C 1087.900 524.233, 1094.875 523.489, 1099 522.955 C 1117.008 520.622, 1117.952 520.612, 1120.303 522.731 C 1121.512 523.819, 1124.525 525.787, 1127 527.105 C 1129.475 528.422, 1131.725 529.764, 1132 530.087 C 1132.275 530.409, 1134.637 531.914, 1137.249 533.431 C 1139.862 534.948, 1142.748 537.458, 1143.665 539.009 C 1145.029 541.320, 1148.698 544, 1150.496 544 C 1152.584 544, 1159.989 533.793, 1159.996 530.905 C 1160.001 528.913, 1162.717 526.468, 1166 525.499 C 1171.255 523.949, 1176.816 520.974, 1179.975 518.024 C 1182.918 515.274, 1183.201 514.535, 1182.709 510.871 C 1182.381 508.422, 1180.927 505.248, 1179.081 502.951 C 1177.386 500.842, 1175.999 498.753, 1175.998 498.309 C 1175.997 497.864, 1173.860 496.152, 1171.248 494.504 C 1168.637 492.857, 1163.020 488.078, 1158.767 483.885 C 1152.352 477.561, 1150.321 476.147, 1146.846 475.591 C 1144.543 475.223, 1140.847 473.589, 1138.632 471.961 C 1136.418 470.332, 1134.089 469, 1133.457 469 C 1132.824 469, 1130.776 468.232, 1128.904 467.293 C 1126.655 466.165, 1122.275 465.451, 1116 465.189 C 1110.775 464.971, 1106.072 464.390, 1105.550 463.897 C 1105.027 463.403, 1103.565 463, 1102.300 463 C 1101.035 463, 1100 462.550, 1100 462 C 1100 459.507, 1096.747 461.362, 1095.379 464.635" stroke="#81244d" fill="#81244d" fill-opacity="0.2" fill-rule="evenodd"/><path class="svg-region-OABr" d="M 619 442 C 618.175 442.533, 616.600 442.977, 615.500 442.987 C 613.774 443.001, 613.258 444.272, 611.735 452.252 C 610.764 457.338, 609.977 462.943, 609.985 464.706 C 609.993 466.469, 608.756 470.069, 607.235 472.706 C 605.715 475.343, 603.608 479.975, 602.554 483 C 599.932 490.527, 592.043 503.984, 589.732 504.873 C 589.198 505.078, 586.764 507.216, 584.322 509.623 C 581.880 512.030, 579.097 514, 578.137 514 C 575.505 514, 567 519.735, 567 521.509 C 567 522.364, 566.325 523.322, 565.500 523.638 C 563.281 524.490, 563.674 528.479, 566.500 533.788 C 568.771 538.055, 569 539.594, 569 550.620 C 569 566.613, 569.642 567.243, 578.228 559.691 C 581.678 556.657, 585.924 552.560, 587.665 550.587 C 589.667 548.318, 591.725 547, 593.266 547 C 594.607 547, 597.031 545.763, 598.654 544.250 C 602.203 540.942, 607.248 538.371, 612 537.447 C 613.925 537.073, 616.223 536.032, 617.107 535.134 C 620.556 531.627, 623.882 529.173, 626.140 528.468 C 627.438 528.062, 629.388 527.116, 630.473 526.365 C 631.557 525.614, 633.185 525, 634.089 525 C 635.862 525, 644.729 521.761, 649.331 519.432 C 650.888 518.645, 654.490 518, 657.334 518 C 660.179 518, 665.654 517.100, 669.500 516 C 677.016 513.851, 682.532 513.478, 686.203 514.872 C 690.961 516.679, 695.661 517.861, 700.588 518.492 C 705.114 519.071, 706.016 518.857, 708.753 516.554 C 711.704 514.071, 711.770 513.847, 710.380 511.060 C 708.671 507.635, 705.982 498.156, 705.114 492.500 C 704.534 488.723, 704.277 488.470, 700.500 487.965 C 698.300 487.671, 695.825 487.023, 695 486.526 C 691.203 484.239, 680.967 474.456, 680.415 472.586 C 680.077 471.439, 678.495 467.841, 676.900 464.590 C 675.305 461.340, 674 458.077, 674 457.340 C 674 456.298, 671.456 456, 662.559 456 C 656.010 456, 650.854 455.572, 650.500 455 C 650.144 454.423, 644.723 453.994, 637.691 453.985 C 623.483 453.968, 620.655 453.045, 620.190 448.273 C 620.020 446.524, 620.373 444.172, 620.975 443.046 C 622.154 440.844, 621.404 440.447, 619 442" stroke="#81244d" fill="#81244d" fill-opacity="0.2" fill-rule="evenodd"/><path class="svg-region-HRl" d="M 1081.923 253.250 C 1080.484 256.375, 1077.004 260.929, 1073.327 264.500 C 1065.414 272.185, 1057.381 279, 1056.235 279 C 1055.743 279, 1051.798 282.375, 1047.467 286.500 C 1039.406 294.178, 1036.962 295.242, 1033.029 292.786 C 1031.405 291.772, 1030.708 291.916, 1028.792 293.661 C 1020.116 301.568, 998.752 305.409, 965.750 304.996 L 949 304.786 949 308.295 C 949 311.332, 949.424 311.952, 952.149 312.902 C 953.881 313.506, 956.379 314, 957.699 314 C 962.265 314, 965.709 316.635, 966.474 320.715 C 967.415 325.734, 969.655 329.365, 973.046 331.368 C 975.302 332.701, 978.567 332.989, 990.515 332.908 L 1005.209 332.810 1008.354 335.746 C 1010.084 337.361, 1012.876 339.623, 1014.557 340.772 C 1018.572 343.516, 1028.263 347.173, 1029.037 346.235 C 1032.862 341.605, 1036.786 336.110, 1038 333.684 C 1039.267 331.154, 1040.674 330.351, 1047.046 328.524 C 1051.197 327.334, 1055.922 325.444, 1057.546 324.324 C 1059.171 323.203, 1061.625 321.601, 1063 320.764 C 1064.375 319.926, 1069.384 315.825, 1074.130 311.650 L 1082.760 304.060 1085.004 294.280 C 1086.238 288.901, 1088.092 281.927, 1089.124 278.782 C 1091.509 271.510, 1091.502 265.471, 1089.099 258.788 C 1088.054 255.879, 1086.920 252.262, 1086.580 250.750 C 1085.686 246.772, 1084.652 247.328, 1081.923 253.250" stroke="#d9dba1" fill="#d9dba1" fill-opacity="0.2" fill-rule="evenodd"/><path class="svg-region-HRr" d="M 605.736 203.692 C 601.533 204.788, 599.454 215.347, 602.566 219.791 C 603.427 221.021, 606.015 222.984, 608.316 224.153 C 610.617 225.323, 614.975 228.210, 618 230.569 C 621.025 232.928, 626.650 236.518, 630.500 238.548 C 634.350 240.577, 639.975 243.938, 643 246.016 C 646.025 248.094, 650.300 250.917, 652.500 252.290 C 654.700 253.662, 657.405 255.651, 658.512 256.709 C 659.618 257.768, 661.275 259.055, 662.194 259.569 C 663.113 260.083, 666.547 264.219, 669.826 268.759 C 675.974 277.272, 677.940 282.652, 679.765 295.948 C 680.463 301.033, 680.878 301.683, 686.006 305.716 C 689.028 308.093, 694.089 311.846, 697.252 314.058 C 704.670 319.242, 706.405 321.805, 704.999 325.504 C 704.419 327.029, 704.069 328.327, 704.222 328.389 C 712.423 331.673, 718.201 337.741, 720.431 345.411 C 721.332 348.510, 723.372 352.498, 724.964 354.273 L 727.859 357.500 731.204 355.714 C 733.043 354.732, 735.887 352.691, 737.524 351.179 C 741.950 347.090, 749.863 342.001, 751.800 341.996 C 752.735 341.994, 754.973 341.094, 756.774 339.996 C 758.575 338.898, 760.911 338, 761.965 338 C 765.056 338, 765.111 336.554, 762.175 332.401 C 760.659 330.255, 758.813 326.700, 758.073 324.500 C 755.223 316.023, 745.524 304.833, 737.500 300.764 C 734.200 299.090, 728.350 295.600, 724.500 293.008 C 720.650 290.415, 715.981 287.512, 714.125 286.557 C 709.574 284.214, 699.961 276.337, 697.529 272.958 C 696.445 271.452, 694.306 269.382, 692.776 268.360 C 689.262 266.010, 684.633 259.572, 683.127 254.941 C 681.985 251.425, 680.701 250.388, 662.653 238.407 C 660.919 237.255, 655.450 234.141, 650.500 231.486 C 635.411 223.392, 628.765 218.801, 622.574 212.194 C 614.724 203.815, 611.502 202.188, 605.736 203.692" stroke="#d9dba1" fill="#d9dba1" fill-opacity="0.2" fill-rule="evenodd"/>
    </svg>