<svg xmlns="http://www.w3.org/2000/svg" width="1785" height="1131" viewBox="0 0 1785 1131" version="1.1">
    <path class="svg-region-AAB" d="M 712.197 462.652 C 708.716 466.028, 706.813 468.866, 705.929 472 C 705.231 474.475, 703.837 477.429, 702.830 478.564 C 701.824 479.700, 701 481.162, 701 481.814 C 701 482.467, 700.550 483, 700 483 C 698.624 483, 698.727 495.602, 700.125 498.316 C 700.744 499.517, 702.172 501.512, 703.299 502.750 L 705.349 505 703.174 505 C 700.028 505, 700.504 506.296, 704.250 507.926 C 706.038 508.703, 707.725 509.627, 708 509.979 C 708.275 510.330, 711.650 512.341, 715.500 514.448 C 719.350 516.554, 725.108 520.032, 728.295 522.177 C 731.483 524.322, 735.983 526.491, 738.295 526.996 C 740.608 527.501, 743.783 528.220, 745.350 528.593 C 748.206 529.273, 757.976 527.624, 761.236 525.912 C 762.191 525.410, 763.705 525, 764.600 525 C 766.744 525, 782.722 521.127, 784.844 520.093 C 785.755 519.649, 787.919 518.546, 789.654 517.643 C 791.389 516.739, 793.349 516, 794.010 516 C 795.637 516, 801.098 511.338, 803.243 508.117 C 806.636 503.024, 804.522 488.030, 800.407 488.006 C 799.806 488.003, 797.331 486.897, 794.907 485.549 C 792.483 484.201, 788.543 482.181, 786.151 481.061 C 783.759 479.941, 779.648 477.444, 777.017 475.512 C 774.385 473.581, 771.499 472, 770.602 472 C 769.706 472, 768.191 471.596, 767.236 471.103 C 766.281 470.609, 763.475 469.422, 761 468.466 C 758.525 467.509, 754.605 465.894, 752.289 464.876 C 749.973 463.859, 745.473 462.734, 742.289 462.377 C 739.105 462.020, 736.050 461.392, 735.500 460.982 C 734.950 460.572, 731.800 459.985, 728.500 459.677 C 725.200 459.370, 721.307 458.822, 719.848 458.461 C 717.610 457.907, 716.417 458.560, 712.197 462.652 M 1031.273 466.113 C 1026.572 468.774, 1024.863 469.133, 1014.273 469.685 C 1003.534 470.245, 1001.919 470.593, 995.883 473.649 C 992.244 475.492, 988.783 477, 988.191 477 C 986.734 477, 980.448 480.730, 975.173 484.724 C 971.048 487.847, 970.438 488, 962.078 488 C 954.992 488, 953.009 488.336, 951.740 489.750 C 949.735 491.984, 948.472 498.638, 949.745 500.261 C 950.279 500.942, 951.441 503.675, 952.326 506.333 C 953.424 509.630, 956.665 514.318, 962.526 521.087 C 972.763 532.908, 975.390 535.100, 986.226 540.860 C 993.333 544.637, 995.557 545.324, 1002 545.735 C 1012.324 546.393, 1016.068 544.683, 1035.343 530.500 C 1038.333 528.300, 1041.569 525.340, 1042.533 523.921 C 1043.497 522.503, 1045.877 520.253, 1047.821 518.921 C 1053.107 515.301, 1053.906 514.258, 1055.134 509.383 C 1055.962 506.093, 1057.010 504.529, 1059.112 503.442 C 1062.701 501.586, 1065 497.224, 1065 492.272 C 1065 487.432, 1062.325 483.354, 1054.085 475.636 C 1051.657 473.361, 1048.738 470.458, 1047.598 469.185 C 1045.020 466.305, 1039.722 462.974, 1037.882 463.078 C 1037.122 463.121, 1034.148 464.487, 1031.273 466.113" stroke="#7f3c1a" fill="#7f3c1a" fill-opacity="0.2" fill-rule="evenodd"/><path class="svg-region-PC" d="M 1007.500 438.373 C 1000.262 442.145, 996.544 445.268, 993.376 450.235 C 991.878 452.583, 989.047 454.955, 985.747 456.625 C 982.861 458.086, 979.912 460.118, 979.193 461.141 C 978.475 462.163, 977.217 463, 976.398 463 C 975.579 463, 973.805 464.105, 972.455 465.455 C 970.594 467.315, 970 468.971, 970 472.300 C 970 482.535, 978.668 482.623, 998 472.583 C 1001.684 470.670, 1004.586 470.148, 1014 469.706 C 1027.624 469.067, 1029.518 468.397, 1039.731 460.608 C 1043.851 457.465, 1045.052 455.850, 1045.966 452.220 C 1047.703 445.322, 1045.452 436.624, 1041.668 435.609 C 1040.476 435.289, 1033.650 435.076, 1026.500 435.136 C 1013.984 435.241, 1013.277 435.362, 1007.500 438.373 M 745.500 437.965 C 744.400 438.422, 741.700 439.277, 739.500 439.866 C 735.288 440.995, 730.503 444.776, 727.513 449.341 C 725.797 451.958, 725.798 452.225, 727.515 456.033 C 728.979 459.280, 729.810 460, 732.093 460 C 733.627 460, 735.160 460.450, 735.500 461 C 735.840 461.550, 737.615 462, 739.444 462 C 742.640 462, 752.966 464.807, 754 465.957 C 754.649 466.680, 766.758 471.083, 770 471.776 C 771.375 472.070, 775.094 474.134, 778.265 476.363 C 783.962 480.367, 784.051 480.392, 785.867 478.457 C 786.878 477.381, 788.716 473.930, 789.952 470.789 C 791.189 467.648, 792.826 464.559, 793.591 463.925 C 797.375 460.784, 789.390 450.657, 779.500 446.053 C 772.571 442.828, 769.476 441.786, 758.590 439.014 C 750.003 436.828, 748.527 436.709, 745.500 437.965" stroke="#cda789" fill="#cda789" fill-opacity="0.2" fill-rule="evenodd"/><path class="svg-region-IBl" d="M 1069.500 409.377 C 1065.650 412.315, 1059.688 417.963, 1056.250 421.930 L 1050 429.142 1050 438.272 C 1050 446.705, 1049.765 447.789, 1046.926 452.451 C 1045.235 455.228, 1042.363 458.620, 1040.543 459.989 L 1037.234 462.479 1040.090 463.680 C 1041.660 464.340, 1045.986 467.832, 1049.702 471.440 C 1055.824 477.385, 1060 479.639, 1060 477 C 1060 476.450, 1060.607 476, 1061.349 476 C 1062.751 476, 1075.783 469.429, 1077.450 467.882 C 1077.973 467.397, 1079.408 467, 1080.641 467 C 1081.874 467, 1083.191 466.500, 1083.568 465.890 C 1083.967 465.245, 1085.646 465.005, 1087.573 465.318 C 1090.684 465.823, 1090.965 465.626, 1092.061 462.178 C 1093.648 457.181, 1098.958 446.661, 1100.324 445.807 C 1100.993 445.389, 1100.410 444.726, 1098.853 444.134 C 1095.623 442.906, 1095.244 441.890, 1094.432 432.285 C 1093.555 421.905, 1090.107 414.039, 1084.831 410.383 C 1082.658 408.877, 1080.442 406.825, 1079.905 405.823 C 1078.446 403.096, 1077.155 403.537, 1069.500 409.377" stroke="#b10e0e" fill="#b10e0e" fill-opacity="0.2" fill-rule="evenodd"/><path class="svg-region-IBr" d="M 685.424 420.853 C 683.466 422.066, 680.740 425.749, 677.924 430.985 C 671.573 442.794, 671.362 443.139, 668.720 445.950 C 665.918 448.932, 664.524 451.464, 663.635 455.186 C 663.048 457.644, 663.271 457.900, 666.247 458.186 C 668.950 458.447, 669.685 459.073, 670.596 461.891 C 671.204 463.771, 672.824 465.876, 674.230 466.613 C 675.626 467.344, 677.658 469.449, 678.744 471.291 C 680.721 474.641, 686.173 477.997, 689.651 478.004 C 691.955 478.008, 698 481.615, 698 482.985 C 698 487.025, 703.895 478.933, 705.857 472.200 C 706.721 469.234, 708.778 466.301, 712.483 462.749 C 716.835 458.577, 717.675 457.261, 716.904 455.820 C 715.773 453.708, 716.648 449.537, 718.553 447.956 C 719.568 447.114, 719.755 445.153, 719.298 440.165 C 718.760 434.284, 718.236 432.984, 714.849 429.115 C 710.100 423.690, 703.377 420.480, 694.948 419.611 C 689.579 419.058, 687.985 419.266, 685.424 420.853" stroke="#b10e0e" fill="#b10e0e" fill-opacity="0.2" fill-rule="evenodd"/><path class="svg-region-MB" d="M 978.728 332.127 C 973.349 332.931, 963.078 338.218, 955.273 344.201 C 951.300 347.246, 949.292 349.801, 946.900 354.854 C 944.074 360.822, 943.704 362.694, 943.275 373.196 C 942.755 385.936, 944.512 398.157, 947.920 405.500 C 951.690 413.624, 955.554 432.902, 955.903 445.332 C 956.326 460.379, 958.077 463.503, 967.449 465.927 C 970.696 466.767, 971.721 466.658, 973.206 465.313 C 974.200 464.414, 975.830 463.188, 976.828 462.589 C 985.554 457.351, 988.741 455.152, 990.720 453 C 991.985 451.625, 994.703 448.643, 996.760 446.372 C 998.880 444.033, 1003.630 440.675, 1007.725 438.622 C 1014.861 435.045, 1015.102 435, 1027.225 435.014 C 1033.976 435.021, 1040.476 435.289, 1041.668 435.609 C 1044.520 436.374, 1046.259 440.801, 1046.357 447.542 C 1046.400 450.544, 1046.551 453, 1046.692 453 C 1046.833 453, 1047.693 451.561, 1048.602 449.803 C 1049.820 447.448, 1050.209 444.316, 1050.079 437.906 L 1049.903 429.205 1055.855 422.500 C 1059.129 418.812, 1063.254 414.603, 1065.021 413.147 C 1074.572 405.280, 1074.343 405.591, 1074.424 400.400 C 1074.494 395.891, 1074.050 394.942, 1068.856 388.500 C 1059.638 377.068, 1051.030 369.803, 1039.177 363.454 C 1036.163 361.840, 1031.685 358.099, 1028.855 354.833 C 1025.168 350.576, 1022.955 348.895, 1020.415 348.418 C 1018.308 348.023, 1014.252 345.494, 1009.959 341.898 C 1006.101 338.666, 1001.720 335.397, 1000.222 334.632 C 994.869 331.896, 986.665 330.940, 978.728 332.127 M 772.259 338.776 C 769.927 339.755, 765.877 342.635, 763.259 345.175 C 758.443 349.848, 749.433 355.945, 738.523 361.912 C 735.235 363.711, 731.461 366.266, 730.136 367.591 C 728.811 368.916, 727.399 370, 726.998 370 C 726.598 370, 725 370.998, 723.449 372.219 C 721.898 373.439, 720.040 374.524, 719.320 374.629 C 716.729 375.010, 708.171 382.089, 703.620 387.618 C 701.065 390.721, 697.293 396.349, 695.237 400.123 C 693.182 403.898, 690.947 406.990, 690.270 406.993 C 688.812 407.001, 685.534 413.158, 684.543 417.750 C 683.992 420.299, 684.169 421, 685.362 421 C 686.198 421, 687.166 420.541, 687.513 419.979 C 688.512 418.363, 700.897 420.046, 706.255 422.528 C 708.870 423.739, 712.739 426.703, 714.853 429.115 C 718.229 432.967, 718.767 434.290, 719.276 440 C 719.698 444.727, 719.488 446.909, 718.506 448 C 716.394 450.347, 715.766 454.309, 717.205 456.209 C 718.567 458.007, 727.502 460.831, 728.542 459.792 C 728.875 459.459, 728.441 457.819, 727.577 456.149 C 725.620 452.365, 726.488 449.859, 731.518 444.761 C 733.759 442.489, 736.835 440.606, 739.354 439.964 C 741.634 439.382, 744.728 438.427, 746.229 437.840 C 748.307 437.029, 750.695 437.181, 756.229 438.475 C 774.635 442.780, 783.568 446.882, 790.966 454.426 C 797.290 460.875, 799.682 461.355, 803.411 456.923 C 807.249 452.362, 807.675 449.337, 805.151 444.571 C 802.913 440.346, 802.297 434.103, 803.954 432.446 C 805.181 431.219, 810.682 409.921, 811.590 402.886 C 811.972 399.924, 812.676 396.443, 813.155 395.150 C 815.373 389.169, 817.998 373.870, 817.978 367.047 C 817.950 357.510, 815.965 352.952, 809.181 346.853 C 801.343 339.805, 796.144 337.714, 785.500 337.325 C 778.561 337.071, 775.529 337.404, 772.259 338.776" stroke="#f9c6c6" fill="#f9c6c6" fill-opacity="0.2" fill-rule="evenodd"/><path class="svg-region-PP" d="M 817.657 303.707 C 816.326 304.050, 815.975 304.782, 816.394 306.341 C 816.712 307.529, 816.979 309.812, 816.986 311.415 C 816.997 313.631, 818.250 315.498, 822.209 319.195 C 827.175 323.833, 827.420 324.302, 827.459 329.257 C 827.498 334.260, 827.388 334.473, 824.500 334.977 C 819.131 335.913, 818.003 340.005, 818.002 358.551 C 818 371.303, 817.571 376.441, 815.911 383.551 C 813.980 391.823, 813.027 396.154, 809.871 411 C 809.228 414.025, 808.049 418.975, 807.251 422 C 806.453 425.025, 805.567 428.519, 805.281 429.765 C 804.995 431.010, 804.365 432.274, 803.881 432.574 C 802.324 433.536, 802.935 440.378, 804.945 444.500 C 806.017 446.700, 807.130 449.288, 807.416 450.250 C 807.778 451.466, 808.962 452, 811.294 452 C 814.978 452, 817.745 449.582, 819.877 444.500 C 820.569 442.850, 822.212 439.925, 823.529 438 C 825.041 435.789, 826.355 431.737, 827.097 427 C 827.743 422.875, 828.886 418.082, 829.636 416.349 C 830.386 414.616, 831 412.472, 831 411.585 C 831 410.698, 831.404 409.191, 831.897 408.236 C 832.391 407.281, 833.270 402.815, 833.851 398.311 C 834.432 393.807, 835.349 389.307, 835.889 388.311 C 838.214 384.023, 840.460 374.770, 842.883 359.500 C 843.319 356.750, 844.649 352.025, 845.838 349 C 847.580 344.566, 847.999 341.405, 847.999 332.692 L 848 321.884 843.520 317.692 C 830.968 305.946, 823.866 302.106, 817.657 303.707 M 922.309 376.867 C 922.895 383.816, 924.394 390.547, 925.732 392.232 C 926.285 392.929, 927.008 395.525, 927.337 398 C 927.666 400.475, 928.428 404.525, 929.031 407 C 929.634 409.475, 930.501 413.975, 930.958 417 C 931.757 422.292, 933.812 431.068, 937.983 447 C 939.063 451.125, 940.437 456.454, 941.037 458.842 C 942.050 462.880, 942.315 463.140, 944.813 462.547 C 948.721 461.619, 950.487 458.409, 950.588 452.052 C 950.637 448.945, 951.662 443.883, 952.915 440.558 C 954.963 435.121, 955.054 434.057, 953.986 428.058 C 952.276 418.455, 950.035 410.075, 947.889 405.261 C 946.850 402.929, 946 400.645, 946 400.185 C 946 398.802, 941.483 395, 939.841 395 C 938.999 395, 937.495 395.900, 936.500 397 C 932.375 401.558, 930.065 397.428, 930.779 386.771 C 931.027 383.070, 930.950 378.549, 930.608 376.725 C 930.073 373.871, 929.418 373.258, 925.910 372.322 L 921.834 371.234 922.309 376.867" stroke="#c4743d" fill="#c4743d" fill-opacity="0.2" fill-rule="evenodd"/><path class="svg-region-DMl" d="M 1090.182 292.500 C 1089.555 293.875, 1088.588 295, 1088.032 295 C 1087.476 295, 1084.585 297.206, 1081.607 299.903 C 1078.630 302.599, 1073.285 306.194, 1069.729 307.891 C 1066.174 309.587, 1062.741 311.608, 1062.099 312.380 C 1061.458 313.153, 1059.577 314.347, 1057.920 315.033 C 1054.186 316.580, 1051.541 321.212, 1052.951 323.735 C 1054.389 326.309, 1057 334.777, 1057 336.868 C 1057 337.857, 1056.674 338.993, 1056.276 339.391 C 1054.995 340.671, 1056.076 371.248, 1057.499 373.993 C 1058.214 375.372, 1060.541 378.525, 1062.670 381 C 1069.684 389.154, 1075.289 397.030, 1077.549 401.909 C 1078.995 405.030, 1081.344 407.841, 1084.250 409.928 C 1090.283 414.261, 1092.914 420.158, 1094.356 432.583 C 1095.393 441.527, 1095.733 442.567, 1098 443.752 C 1099.537 444.555, 1101.848 444.811, 1104 444.415 C 1105.925 444.062, 1110.425 443.855, 1114 443.957 C 1132.423 444.480, 1143.087 444.197, 1148.500 443.040 C 1155.740 441.494, 1157.162 440.493, 1156.405 437.479 C 1156.089 436.218, 1156.256 434.357, 1156.777 433.343 C 1157.945 431.072, 1156.402 415.611, 1154.694 412.466 C 1154.037 411.257, 1150.499 407.736, 1146.832 404.641 C 1140.328 399.152, 1129.777 385.284, 1125.423 376.500 C 1124.332 374.300, 1122.248 370.475, 1120.791 368 C 1119.334 365.525, 1116.809 359.630, 1115.179 354.901 C 1113.549 350.171, 1111.022 344.412, 1109.564 342.102 C 1106.448 337.165, 1105.316 334.419, 1103.368 327.064 C 1102.576 324.074, 1099.869 317.324, 1097.351 312.064 C 1093.485 303.987, 1092.762 301.528, 1092.700 296.250 C 1092.621 289.518, 1091.977 288.559, 1090.182 292.500 M 987.740 301.872 C 985.121 303.421, 982.646 305.019, 982.240 305.424 C 981.833 305.830, 981.206 309.837, 980.846 314.331 C 980.486 318.824, 979.872 324.578, 979.481 327.117 L 978.770 331.734 985.315 331.777 C 988.914 331.801, 992.678 332.050, 993.680 332.331 C 994.681 332.612, 996.513 333.132, 997.750 333.488 C 999.930 334.115, 1000 333.918, 1000 327.151 C 1000 323.309, 1000.382 320.017, 1000.849 319.833 C 1002.483 319.192, 1007.116 305.859, 1006.808 302.683 L 1006.500 299.500 999.500 299.278 C 993.393 299.085, 991.893 299.416, 987.740 301.872" stroke="#68533d" fill="#68533d" fill-opacity="0.2" fill-rule="evenodd"/><path class="svg-region-DMr" d="M 675.495 300.750 C 674.396 307.665, 671.822 316.436, 668.526 324.500 C 666.728 328.900, 664.931 333.625, 664.532 335 C 663.458 338.710, 657.985 349.891, 656.922 350.548 C 656.415 350.862, 656 351.710, 656 352.433 C 656 353.679, 652.568 360.039, 648.761 365.847 C 647.805 367.306, 646.707 369.175, 646.321 370 C 645.935 370.825, 643.905 373.259, 641.810 375.409 C 639.714 377.559, 638 379.681, 638 380.124 C 638 380.568, 636.704 382.409, 635.119 384.215 C 631.566 388.266, 626.771 396.325, 625.132 401 C 623.426 405.866, 621.044 426.768, 621.020 437.076 C 620.992 449.178, 621.452 449.533, 638.950 450.928 C 659.849 452.594, 663.822 452.421, 666.085 449.750 C 669.268 445.993, 674.482 437.888, 678.470 430.500 C 680.549 426.650, 682.591 423.050, 683.009 422.500 C 683.427 421.950, 684.098 419.963, 684.501 418.083 C 684.903 416.204, 687.288 410.645, 689.801 405.729 C 693.305 398.872, 696.251 394.894, 702.449 388.645 C 706.893 384.165, 711.809 379.496, 713.374 378.270 L 716.220 376.039 717.169 351.770 C 718.178 325.936, 717.812 319, 715.439 319 C 714.426 319, 714 317.810, 714 314.978 C 714 311.157, 713.699 310.762, 707.951 307.047 C 699.777 301.764, 696.950 301.246, 692.247 304.170 C 688.784 306.323, 682.513 308.950, 680.750 308.985 C 680.337 308.993, 680 306.840, 680 304.200 C 680 296.890, 676.530 294.233, 675.495 300.750 M 784.500 302.171 C 771.459 303.280, 759.928 304.979, 757.816 306.103 C 756.889 306.597, 752.727 307, 748.566 307 C 744.405 307, 741 307.146, 741 307.324 C 741 308.447, 753.352 320.819, 757.493 323.843 C 760.247 325.854, 763.554 328.739, 764.841 330.253 C 766.129 331.767, 767.637 332.724, 768.192 332.381 C 768.748 332.038, 771.519 331.474, 774.351 331.128 L 779.500 330.500 780.050 323.440 C 780.522 317.390, 781.072 315.793, 783.892 312.284 C 785.702 310.031, 789.392 307.140, 792.092 305.858 C 796.531 303.750, 798.859 300.761, 795.750 301.161 C 795.063 301.249, 790 301.704, 784.500 302.171" stroke="#68533d" fill="#68533d" fill-opacity="0.2" fill-rule="evenodd"/><path class="svg-region-PV" d="M 926.500 174.955 C 908.186 184.888, 907.353 185.180, 884.500 189.674 C 869.618 192.601, 847.454 189.765, 831.317 182.871 C 826.188 180.680, 821.544 179.164, 820.996 179.502 C 820.448 179.841, 820 180.998, 820 182.073 C 820 183.148, 819.591 184.809, 819.092 185.764 C 818.593 186.719, 816.118 192.468, 813.592 198.540 C 809.513 208.347, 809 210.425, 809 217.149 C 809 223.698, 809.420 225.512, 812.120 230.609 C 818.934 243.475, 819.979 245.948, 823.072 256.526 C 826.946 269.776, 828.912 273.864, 834.136 279.532 C 837.501 283.183, 838.220 284.735, 838.700 289.386 C 839.476 296.897, 837.235 307, 834.794 307 C 830.970 307, 833.475 309.870, 842.208 315.495 C 848.014 319.234, 856.090 320.335, 873.267 319.730 C 884.643 319.329, 890.399 318.646, 896 317.031 C 900.125 315.842, 905.525 314.445, 908 313.926 C 910.475 313.407, 915.234 311.796, 918.575 310.345 C 924.314 307.853, 924.644 307.523, 924.540 304.390 C 924.480 302.566, 923.433 299.725, 922.215 298.077 C 920.241 295.407, 920 293.872, 920 283.977 L 920 272.873 925.080 262.236 C 930.151 251.617, 931.214 248.813, 934.459 237.500 C 935.405 234.200, 937.460 229.017, 939.024 225.983 C 940.589 222.948, 942.183 218.104, 942.565 215.219 C 943.156 210.765, 942.859 209.078, 940.599 204.040 C 937.349 196.799, 935.655 180.120, 937.686 175.365 C 940.627 168.481, 938.574 168.405, 926.500 174.955" stroke="#b09658" fill="#b09658" fill-opacity="0.2" fill-rule="evenodd"/><path class="svg-region-Fl" d="M 950 146.956 C 949.175 147.513, 947.271 147.976, 945.769 147.985 C 943.748 147.996, 942.917 148.585, 942.573 150.250 C 941.765 154.163, 940.937 159.304, 940.099 165.609 C 939.653 168.968, 938.639 173.018, 937.847 174.609 C 935.593 179.131, 937.146 196.031, 940.560 204.143 C 943.878 212.025, 943.375 217.446, 938.444 226.974 C 936.550 230.635, 935 234.367, 935 235.268 C 935 236.169, 934.608 237.940, 934.128 239.203 C 933.648 240.466, 932.721 243.300, 932.067 245.500 C 930.454 250.927, 927.869 257.178, 926.485 259 C 925.858 259.825, 924.143 263.342, 922.673 266.816 C 920.278 272.475, 920 274.372, 920 285.066 C 920 291.630, 920.367 297, 920.815 297 C 922.053 297, 925.021 303.781, 924.443 305.289 C 924.163 306.017, 924.988 307.839, 926.276 309.337 L 928.617 312.062 931.558 309.512 C 941.462 300.928, 948.896 298.519, 962.500 299.485 C 974.678 300.349, 1004.929 298.381, 1008.748 296.476 C 1010.368 295.668, 1014.125 294.569, 1017.097 294.034 C 1020.069 293.500, 1025.098 292.261, 1028.272 291.281 C 1033.901 289.544, 1034.029 289.425, 1033.407 286.500 C 1033.056 284.850, 1032.415 283.050, 1031.982 282.500 C 1030.253 280.305, 1026.002 262.164, 1026.005 257 C 1026.007 253.975, 1024.865 247.675, 1023.466 243 C 1022.067 238.325, 1020.184 232.025, 1019.282 229 C 1017.179 221.954, 1013.036 211.313, 1009.097 202.838 C 1007.394 199.174, 1006 195.082, 1006 193.745 C 1006 190.669, 1002.596 180.689, 1000.551 177.770 C 999.668 176.509, 999 173.469, 999 170.712 C 999 168.048, 998.467 164.886, 997.815 163.684 C 997.163 162.483, 996.376 160.012, 996.065 158.193 C 995.539 155.115, 995.016 154.727, 988.500 152.575 C 980.420 149.907, 976.563 149.134, 965.500 147.970 C 961.100 147.507, 956.150 146.861, 954.500 146.535 C 952.850 146.209, 950.825 146.399, 950 146.956" stroke="#5ca7a9" fill="#5ca7a9" fill-opacity="0.2" fill-rule="evenodd"/><path class="svg-region-Fr" d="M 775 147.500 C 773.075 148.241, 769.753 148.882, 767.618 148.924 C 763.754 149, 758.536 151.502, 754.250 155.336 C 751.373 157.909, 751.397 158.838, 754.324 158.278 C 757.414 157.688, 763.228 164.045, 762.568 167.294 C 762.322 168.507, 761.840 171.964, 761.496 174.975 C 761.153 177.986, 760.512 180.911, 760.074 181.475 C 759.635 182.039, 758.977 183.749, 758.612 185.276 C 757.953 188.035, 755.463 193.261, 746.596 210.500 C 740.796 221.777, 739.312 226.680, 737.469 240.650 C 736.379 248.909, 735.230 253.347, 733.035 257.771 C 730.087 263.713, 729.061 269.492, 727.574 288.543 L 727.024 295.587 732.864 301.365 L 738.704 307.144 748.102 306.689 C 753.271 306.438, 761.550 305.517, 766.500 304.642 C 780.662 302.136, 803.079 300.510, 803.953 301.924 C 804.405 302.655, 808.433 303.205, 814.699 303.393 C 822.026 303.612, 825.358 304.138, 827.084 305.346 C 828.383 306.256, 831.094 307, 833.109 307 C 836.419 307, 836.847 306.686, 837.540 303.750 C 837.962 301.962, 838.351 296.872, 838.404 292.437 L 838.500 284.374 834.147 279.437 C 828.578 273.120, 826.754 269.469, 823.938 259 C 820.969 247.968, 817.630 239.516, 814.394 234.847 C 810.573 229.334, 809.093 224.323, 809.044 216.734 C 809.005 210.802, 809.631 208.459, 814.115 197.734 C 816.928 191.005, 819.926 183.347, 820.778 180.716 L 822.326 175.931 818.913 172.351 C 814.544 167.768, 798.952 156, 797.249 156 C 796.535 156, 795.550 154.946, 795.060 153.657 C 794.072 151.060, 784.408 145.950, 780.723 146.076 C 779.500 146.118, 776.925 146.759, 775 147.500" stroke="#5ca7a9" fill="#5ca7a9" fill-opacity="0.2" fill-rule="evenodd"/><path class="svg-region-PCl" d="M 996 158.032 C 996 159.150, 996.675 161.680, 997.500 163.654 C 998.325 165.629, 999 169.114, 999 171.400 C 999 173.685, 999.610 176.443, 1000.355 177.527 C 1002.416 180.527, 1006 190.749, 1006 193.626 C 1006 195.029, 1007.402 199.174, 1009.115 202.838 C 1017.111 219.940, 1026.011 248.493, 1026.004 257.020 C 1026 262.453, 1028.083 271.464, 1032.179 283.736 C 1034.144 289.624, 1034.407 289.937, 1036.880 289.342 C 1040.090 288.569, 1052.653 282.371, 1053.373 281.205 C 1053.660 280.741, 1056.486 279.492, 1059.653 278.430 C 1066.108 276.266, 1074.731 268.450, 1080.537 259.500 C 1082.321 256.750, 1084.955 253.409, 1086.390 252.076 C 1087.826 250.742, 1089 248.992, 1089 248.187 C 1089 246.722, 1080.992 234.477, 1074.491 226 C 1072.593 223.525, 1069.585 219.475, 1067.808 217 C 1061.320 207.967, 1052.815 198.526, 1047.719 194.700 C 1044.849 192.546, 1040.595 189.144, 1038.267 187.141 C 1035.938 185.139, 1032.205 182.150, 1029.971 180.500 C 1022.331 174.858, 1013.622 167.613, 1010.031 163.913 C 1006.210 159.975, 999.899 156, 997.470 156 C 996.659 156, 996 156.911, 996 158.032" stroke="#465ee0" fill="#465ee0" fill-opacity="0.2" fill-rule="evenodd"/><path class="svg-region-PCr" d="M 740.651 163.903 C 735.091 170.578, 731.857 173.088, 720.515 179.529 C 717.774 181.086, 714.624 183.208, 713.515 184.246 C 712.407 185.284, 710.150 186.971, 708.500 187.996 C 706.850 189.021, 703.960 192.478, 702.078 195.680 C 697.505 203.458, 694.514 208.171, 688.253 217.461 C 685.367 221.743, 682.589 226.879, 682.079 228.873 C 676.168 251.992, 675.753 249.723, 689.753 270.771 C 696.237 280.518, 701.163 286, 703.440 286 C 703.787 286, 705.262 286.788, 706.718 287.750 C 708.175 288.712, 712.547 290.670, 716.433 292.100 C 720.320 293.530, 724.255 295.028, 725.177 295.429 C 727.054 296.245, 727.062 296.202, 728.913 276.088 C 729.768 266.791, 730.538 263.455, 733.064 258.088 C 735.270 253.401, 736.462 248.903, 737.193 242.500 C 738.575 230.409, 741.281 221.297, 746.700 210.500 C 749.184 205.550, 752.558 198.824, 754.196 195.553 C 758.885 186.194, 760.936 179.942, 761.948 171.929 L 762.887 164.500 759.762 161.265 C 757.490 158.914, 755.798 158.058, 753.568 158.133 C 751.881 158.190, 749.598 157.935, 748.495 157.566 C 746.876 157.024, 745.364 158.245, 740.651 163.903" stroke="#465ee0" fill="#465ee0" fill-opacity="0.2" fill-rule="evenodd"/><path class="svg-region-DV" d="M 801.651 145.816 C 797.806 146.132, 797.803 146.136, 798.442 149.816 C 799.565 156.287, 801.116 158.878, 805.358 161.369 C 811.269 164.841, 821.816 174.721, 822.186 177.134 C 822.601 179.835, 838.016 186.455, 848.722 188.531 C 861.606 191.028, 876.332 191.461, 885.500 189.612 C 907.368 185.203, 908.649 184.746, 926.500 174.982 C 931.450 172.274, 936.471 170.045, 937.657 170.029 C 939.522 170.004, 939.886 169.288, 940.336 164.750 C 940.842 159.640, 942.293 150.909, 943.100 148.113 C 943.345 147.265, 942.336 146.374, 940.500 145.818 C 937.824 145.007, 811.517 145.006, 801.651 145.816" stroke="#45567a" fill="#45567a" fill-opacity="0.2" fill-rule="evenodd"/><path class="svg-region-B" d="M 968.252 653.046 C 961.842 657.760, 949.659 673.366, 944.706 683.208 C 942.291 688.007, 942.018 689.710, 941.772 701.500 C 941.519 713.575, 941.667 714.791, 943.844 718.590 C 947.305 724.628, 950.312 726, 960.089 726 C 966.345 726, 969.362 725.511, 972.434 724.001 C 977.792 721.367, 983.941 715.682, 988.120 709.500 L 991.500 704.500 991.831 690 C 992.049 680.409, 991.742 674.146, 990.924 671.500 C 990.244 669.300, 989.790 665.843, 989.915 663.818 C 990.172 659.668, 988.931 656.760, 985.191 652.750 C 983.039 650.443, 981.802 650, 977.510 650 C 973.382 650, 971.594 650.588, 968.252 653.046 M 789.741 666.989 C 788.148 668.242, 787.002 670.370, 786.645 672.739 C 786.333 674.808, 785.606 679.200, 785.029 682.500 C 782.798 695.264, 782.716 698.628, 784.504 704.013 C 790.072 720.776, 797.805 731.331, 808.257 736.432 C 813.164 738.827, 815.628 739.318, 824.969 739.760 C 834.049 740.191, 836.353 739.999, 838.427 738.640 C 842.854 735.739, 843.226 733.944, 841.992 721.421 C 840.882 710.153, 838.974 703.801, 834.956 698 C 834.003 696.625, 831.555 692.913, 829.516 689.751 C 827.237 686.219, 824.517 683.390, 822.462 682.415 C 820.622 681.542, 818.405 679.741, 817.536 678.414 C 816.666 677.086, 815.509 676, 814.966 676 C 814.422 676, 811.395 674.255, 808.239 672.122 C 796.941 664.486, 793.971 663.662, 789.741 666.989" stroke="#e23b33" fill="#e23b33" fill-opacity="0.2" fill-rule="evenodd"/><path class="svg-region-Ol" d="M 1296.500 273.947 C 1295.400 274.449, 1288.200 274.891, 1280.500 274.930 C 1265.368 275.006, 1259.220 275.992, 1243 280.947 C 1229.878 284.955, 1220.292 288.685, 1216.846 291.122 C 1215.386 292.155, 1213.852 293, 1213.436 293 C 1211.741 293, 1202.313 301.008, 1199.754 304.622 C 1191.684 316.016, 1187.866 322.532, 1185.936 328.202 C 1182.658 337.831, 1181.111 345.900, 1181.969 348.894 C 1182.629 351.193, 1183.411 363.039, 1184.435 386.261 C 1184.575 389.430, 1184.984 392.317, 1185.345 392.678 C 1185.705 393.038, 1186 394.049, 1186 394.924 C 1186 395.798, 1188.025 398.983, 1190.500 402 C 1192.975 405.017, 1195 407.827, 1195 408.243 C 1195 408.659, 1195.942 409, 1197.094 409 C 1198.297 409, 1199.395 409.794, 1199.676 410.869 C 1200.045 412.282, 1201.424 412.880, 1205.332 413.324 C 1215.396 414.466, 1218.113 415.814, 1225.573 423.370 C 1234.196 432.106, 1235 434.625, 1235 452.924 L 1235 465.961 1229.949 473.481 C 1227.170 477.616, 1224.400 481, 1223.793 481 C 1223.186 481, 1221.214 482.125, 1219.411 483.500 C 1216.439 485.767, 1215.236 486, 1206.491 486 L 1196.848 486 1197.356 493.750 C 1197.636 498.012, 1198.167 503.409, 1198.537 505.741 C 1199.067 509.087, 1198.879 510.109, 1197.650 510.581 C 1195.566 511.381, 1192 517.556, 1192 520.366 C 1192 521.604, 1191.339 523.491, 1190.532 524.559 C 1189.724 525.626, 1189.049 527.443, 1189.032 528.595 C 1189.014 529.747, 1188.100 531.505, 1187 532.500 C 1185.900 533.495, 1185 534.815, 1185 535.433 C 1185 536.050, 1184.095 537.331, 1182.989 538.278 C 1181.456 539.590, 1179.111 540, 1173.142 540 C 1163.539 540, 1160.719 538.715, 1155.605 532.009 C 1151.568 526.716, 1146.813 523.464, 1138.750 520.484 C 1136.138 519.518, 1134 518.404, 1134 518.007 C 1134 517.610, 1131.412 517.012, 1128.250 516.679 C 1125.088 516.345, 1120.533 515.119, 1118.128 513.954 C 1114.092 511.998, 1112.442 511.863, 1096.628 512.188 C 1077.094 512.590, 1073.559 513.604, 1069.899 519.856 C 1068.726 521.860, 1065.745 525.332, 1063.274 527.571 C 1059.960 530.574, 1058.471 532.866, 1057.598 536.305 C 1056.419 540.949, 1053.755 544.313, 1038.165 560.843 C 1034.575 564.649, 1031.145 569.935, 1027.680 577 C 1024.848 582.775, 1021.102 589.394, 1019.355 591.710 C 1013.753 599.134, 1011.594 614.744, 1014.065 629.971 C 1014.653 633.593, 1016.903 640.197, 1019.177 644.971 C 1022.075 651.055, 1023.504 655.650, 1024.162 661 C 1025.095 668.583, 1027.543 674.729, 1034.195 686.196 C 1038.458 693.544, 1048.042 707.648, 1051.390 711.500 C 1052.824 713.150, 1053.998 714.844, 1053.999 715.263 C 1054 716.308, 1058.006 721.574, 1075.500 743.528 C 1089.375 760.941, 1094.363 766.874, 1105.376 779.064 C 1107.644 781.574, 1111.223 786.424, 1113.328 789.841 C 1118.065 797.529, 1133.768 814.071, 1139.925 817.858 C 1145.574 821.333, 1155.118 824.430, 1165 825.995 C 1172.709 827.216, 1215.334 826.920, 1229.500 825.548 C 1238.265 824.698, 1253.153 821.525, 1261.858 818.651 C 1278.452 813.173, 1300.679 796.859, 1312.536 781.456 C 1315.058 778.180, 1318.331 773.977, 1319.811 772.115 C 1321.290 770.253, 1322.898 768.003, 1323.385 767.115 C 1323.872 766.227, 1326.661 761.900, 1329.583 757.500 C 1332.505 753.100, 1336.534 745.900, 1338.537 741.500 C 1350.392 715.451, 1354.510 706.002, 1357.492 698 C 1359.030 693.875, 1361.375 687.575, 1362.703 684 C 1364.031 680.425, 1365.723 676.150, 1366.464 674.500 C 1369.915 666.810, 1375.015 654.425, 1375.008 653.753 C 1374.987 651.815, 1387.742 625.846, 1394.043 615 C 1398.715 606.956, 1406.562 595.173, 1409.027 592.500 C 1410.041 591.400, 1412.230 586.812, 1413.890 582.304 C 1417.062 573.694, 1420.297 568.547, 1430.261 556.258 C 1433.588 552.154, 1437.808 545.671, 1439.639 541.849 C 1441.471 538.028, 1445.993 531.344, 1449.689 526.996 C 1457.467 517.844, 1462.427 507.420, 1465.929 492.862 C 1467.167 487.713, 1468.703 481.700, 1469.340 479.500 C 1470.039 477.091, 1470.480 468.342, 1470.449 457.500 C 1470.406 442.284, 1470.051 438.108, 1468.150 430.500 C 1466.913 425.550, 1465.391 419.250, 1464.768 416.500 C 1464.145 413.750, 1463.267 411.072, 1462.817 410.550 C 1462.368 410.027, 1462 408.439, 1462 407.021 C 1462 401.470, 1452.983 376.907, 1444.958 360.597 C 1436.687 343.785, 1431.343 336.046, 1425.951 333.068 C 1424.389 332.206, 1421.200 329.700, 1418.863 327.500 C 1416.527 325.300, 1413.404 322.600, 1411.923 321.500 C 1404.833 316.233, 1393.030 306.663, 1388.861 302.799 C 1384.741 298.981, 1375.370 293.922, 1359 286.676 C 1356.525 285.581, 1353.719 284.306, 1352.764 283.842 C 1351.809 283.379, 1349.896 283, 1348.514 283 C 1347.131 283, 1346 282.550, 1346 282 C 1346 281.450, 1345.040 281, 1343.866 281 C 1342.692 281, 1339.992 280.550, 1337.866 280 C 1335.740 279.450, 1332.313 278.567, 1330.250 278.037 C 1326.162 276.987, 1308.903 274.140, 1302.500 273.459 C 1300.300 273.226, 1297.600 273.445, 1296.500 273.947" stroke="#aa444d" fill="#aa444d" fill-opacity="0.2" fill-rule="evenodd"/><path class="svg-region-Or" d="M 512.500 279.140 C 501.566 279.953, 483.868 283.961, 481.189 286.232 C 478.643 288.391, 470.398 291.531, 462 293.541 C 457.875 294.528, 452.410 296.385, 449.855 297.668 C 447.300 298.951, 444.520 300, 443.676 300 C 442.833 300, 441.469 300.674, 440.646 301.497 C 439.823 302.320, 435.628 304.827, 431.325 307.069 C 417.632 314.200, 413.434 316.554, 409.946 319.057 C 408.073 320.401, 405.804 321.950, 404.903 322.500 C 401.529 324.559, 397.262 327.674, 389.155 333.994 C 384.566 337.572, 379.575 341.400, 378.064 342.500 C 376.553 343.600, 372.740 347.021, 369.590 350.102 C 366.440 353.183, 361.531 357.657, 358.681 360.044 C 355.832 362.431, 351.025 367.264, 348 370.785 C 344.975 374.305, 341.576 378.156, 340.447 379.342 C 329.454 390.892, 316.593 412.966, 310.934 430 C 309.198 435.225, 307.173 440.676, 306.433 442.114 C 305.694 443.552, 304.351 449.058, 303.449 454.351 C 301.295 466.989, 301.836 497.487, 304.373 506.398 C 307.245 516.486, 311.831 526.916, 317.339 535.882 C 320.251 540.622, 323.278 545.625, 324.066 547 C 324.855 548.375, 325.808 549.733, 326.184 550.018 C 327.454 550.980, 337.898 567.103, 338.519 569.059 C 338.858 570.127, 339.671 571, 340.326 571 C 340.981 571, 342.760 573.587, 344.280 576.750 C 345.799 579.913, 347.911 583.850, 348.973 585.500 C 351.222 588.994, 351.141 588.856, 361.250 606.468 C 365.512 613.893, 369 620.356, 369 620.830 C 369 621.303, 369.868 622.475, 370.929 623.435 C 371.989 624.395, 375.118 629.753, 377.882 635.340 C 380.646 640.928, 383.539 646.625, 384.310 648 C 385.082 649.375, 386.560 652.075, 387.595 654 C 388.630 655.925, 390.937 660.200, 392.722 663.500 C 394.507 666.800, 396.373 670.406, 396.869 671.512 C 397.364 672.619, 400.567 679.369, 403.985 686.512 C 414.812 709.137, 417.303 714.363, 419.934 719.971 C 421.345 722.980, 423.063 726.049, 423.750 726.792 C 424.438 727.535, 425 728.766, 425 729.527 C 425 730.289, 426.330 733.168, 427.955 735.924 C 429.648 738.796, 430.495 741.194, 429.937 741.539 C 429.365 741.892, 429.733 743.245, 430.830 744.820 C 431.856 746.294, 432.964 748.400, 433.292 749.500 C 435.010 755.257, 438.070 763.213, 440.792 769 C 442.474 772.575, 444.655 777.525, 445.638 780 C 447.866 785.607, 459.769 808.969, 461.433 811 C 462.109 811.825, 463.936 814.750, 465.494 817.500 C 467.052 820.250, 468.592 822.725, 468.916 823 C 469.240 823.275, 471.503 826.129, 473.946 829.343 C 481.107 838.765, 493.390 849.506, 502.176 854.030 C 506.501 856.257, 510.593 857.962, 511.270 857.820 C 511.946 857.678, 513.815 858.438, 515.423 859.509 C 518.089 861.286, 520.191 861.455, 539.423 861.445 C 558.586 861.435, 561.079 861.233, 566.880 859.217 C 570.389 857.998, 573.789 857, 574.434 857 C 575.080 857, 577.746 855.645, 580.358 853.988 C 582.971 852.331, 588.121 849.328, 591.804 847.313 C 601.428 842.049, 606.467 838.434, 617.621 828.791 C 629.570 818.461, 642.740 804.746, 651.510 793.500 C 653.655 790.750, 656.165 787.825, 657.089 787 C 658.013 786.175, 661.823 781.681, 665.555 777.013 C 669.288 772.345, 673.374 767.395, 674.636 766.013 C 675.897 764.631, 680.110 759.675, 683.998 755 C 687.885 750.325, 692.633 744.644, 694.548 742.375 C 696.464 740.106, 699.036 736.874, 700.265 735.193 C 714.647 715.515, 720.197 707.759, 724 702.021 C 726.475 698.288, 730.544 692.143, 733.042 688.366 C 738.531 680.069, 742.788 671.870, 746.473 662.500 C 747.987 658.650, 749.561 655.050, 749.970 654.500 C 751.414 652.561, 756.889 630.394, 758.013 621.937 C 760.794 601.018, 752.790 572.948, 740.555 560.713 C 738.050 558.208, 736 555.739, 736 555.226 C 736 553.997, 726.546 545.234, 720.659 541.007 C 718.097 539.167, 716 537.257, 716 536.764 C 716 534.999, 710.620 528.855, 707.797 527.395 C 706.215 526.577, 701.751 522.775, 697.877 518.947 C 694.002 515.118, 690.466 512.212, 690.018 512.489 C 689.569 512.766, 688.145 511.877, 686.851 510.514 C 684.648 508.190, 683.853 508.033, 674.204 508.017 C 665.841 508.003, 662.418 508.482, 655.970 510.570 C 651.604 511.983, 647.773 513.558, 647.457 514.070 C 647.141 514.581, 646.209 515, 645.386 515 C 643.954 515, 636.408 518.010, 632.764 520.035 C 631.809 520.566, 630.346 521, 629.514 521 C 628.681 521, 628 521.450, 628 522 C 628 522.550, 627.332 523, 626.516 523 C 624.885 523, 610 537.435, 610 539.016 C 610 539.557, 609.325 540, 608.500 540 C 607.675 540, 607 540.450, 607 541 C 607 541.550, 606.372 542, 605.604 542 C 604.836 542, 602.921 543.465, 601.348 545.257 C 594.542 553.009, 585.260 558, 577.651 558 C 573.205 558, 570.746 556.832, 566.891 552.888 C 565.338 551.300, 563.678 550, 563.203 550 C 562.727 550, 561.731 548.866, 560.989 547.480 C 559.953 545.544, 559.914 544.686, 560.820 543.780 C 562.274 542.326, 562.431 526.384, 561 525.500 C 560.450 525.160, 560 521.084, 560 516.441 C 560 511.480, 559.588 508, 559 508 C 558.450 508, 557.993 506.762, 557.985 505.250 C 557.965 501.713, 557.331 500.923, 552.569 498.500 C 548.695 496.529, 538 484.731, 538 482.428 C 538 481.777, 537.325 480.685, 536.500 480 C 535.675 479.315, 535 477.460, 535 475.878 C 535 474.295, 534.550 473, 534 473 C 533.436 473, 533 470.162, 533 466.486 C 533 462.904, 533.450 459.079, 534 457.986 C 534.550 456.894, 535.450 455.106, 536 454.014 C 536.550 452.921, 537 451.391, 537 450.614 C 537 449.837, 538.575 446.861, 540.500 444 C 542.425 441.139, 544 438.556, 544 438.258 C 544 436.662, 551.967 427.626, 555.346 425.390 C 558.453 423.334, 560.921 422.679, 567.187 422.250 C 576.138 421.636, 580.557 419.331, 579.453 415.852 C 579.113 414.780, 579.295 413.350, 579.857 412.673 C 580.419 411.995, 580.865 410.104, 580.848 408.471 C 580.831 406.837, 581.758 402.842, 582.908 399.593 C 584.059 396.345, 585.010 392.070, 585.022 390.093 C 585.049 385.659, 587.369 380.543, 593.376 371.672 C 595.919 367.916, 598 364.069, 598 363.122 C 598 362.175, 598.440 360.960, 598.978 360.422 C 599.516 359.884, 600.060 355.631, 600.187 350.972 C 600.505 339.272, 599.021 329.427, 596.351 325.527 C 595.608 324.443, 595 322.981, 595 322.280 C 595 321.578, 593.425 318.812, 591.500 316.133 C 589.575 313.453, 588 310.978, 588 310.633 C 588 308.718, 580.532 300.049, 577.967 298.986 C 576.309 298.300, 574.626 297.227, 574.226 296.603 C 573.240 295.063, 557.665 285, 556.268 285 C 555.654 285, 551.855 283.684, 547.826 282.076 C 539.432 278.727, 529.349 277.889, 512.500 279.140" stroke="#aa444d" fill="#aa444d" fill-opacity="0.2" fill-rule="evenodd"/><path class="svg-region-Pl" d="M 1192 415.854 L 1184.500 418.570 1182.379 424.535 C 1180.597 429.545, 1179.556 430.928, 1175.879 433.173 C 1171.832 435.642, 1170.912 435.802, 1163.750 435.279 C 1156.921 434.780, 1156 434.913, 1156 436.400 C 1156 437.328, 1157.036 439.204, 1158.302 440.570 C 1159.568 441.935, 1161.450 445.628, 1162.485 448.776 C 1165.055 456.591, 1169.349 465.110, 1171.865 467.382 C 1173.012 468.417, 1174.892 471.212, 1176.045 473.593 C 1177.789 477.196, 1179.180 478.413, 1184.337 480.849 C 1193.254 485.062, 1197.389 485.988, 1207.317 485.994 C 1215.185 485.999, 1216.486 485.731, 1219.411 483.500 C 1221.214 482.125, 1223.169 481, 1223.755 481 C 1225.188 481, 1230 475.200, 1230 473.473 C 1230 472.717, 1230.563 471.740, 1231.250 471.300 C 1234.293 469.353, 1235 465.847, 1235 452.695 C 1235 434.539, 1233.973 431.391, 1225.208 422.700 C 1219.203 416.746, 1217.613 415.725, 1212.425 414.486 C 1204.134 412.506, 1200.593 412.743, 1192 415.854" stroke="#f9d3d3" fill="#f9d3d3" fill-opacity="0.2" fill-rule="evenodd"/><path class="svg-region-Pr" d="M 560.675 422.723 C 555.608 423.484, 549.892 429.118, 542.354 440.785 C 539.409 445.341, 537 449.702, 537 450.476 C 537 451.249, 536.550 452.160, 536 452.500 C 535.450 452.840, 535 454.190, 535 455.500 C 535 456.810, 534.550 458.160, 534 458.500 C 533.450 458.840, 533 462.241, 533 466.059 C 533 470.020, 533.429 473, 534 473 C 534.550 473, 535 474.295, 535 475.878 C 535 477.460, 535.675 479.315, 536.500 480 C 537.325 480.685, 538 481.759, 538 482.387 C 538 484.644, 548.133 495.993, 552.359 498.470 C 560.985 503.525, 574.673 500.931, 581.370 492.972 C 582.816 491.253, 584 489.450, 584 488.966 C 584 487.800, 594.439 477.642, 598.490 474.867 C 600.245 473.664, 602.719 471.165, 603.988 469.312 C 607.544 464.123, 612.979 448.908, 612.316 446 C 611.661 443.128, 606.227 437, 604.335 437 C 602.472 437, 579.325 425.096, 577.937 423.424 C 576.780 422.031, 567.739 421.664, 560.675 422.723" stroke="#f9d3d3" fill="#f9d3d3" fill-opacity="0.2" fill-rule="evenodd"/><path class="svg-region-OABl" d="M 1102.809 444.723 C 1099.823 445.165, 1096.612 449.893, 1093.453 458.500 C 1092.444 461.250, 1090.997 464.482, 1090.238 465.683 C 1088.568 468.324, 1089.556 470.607, 1093.977 474.328 C 1095.640 475.726, 1097 477.301, 1097 477.827 C 1097 479.498, 1091.973 480.120, 1088.529 478.874 C 1085.968 477.948, 1083.591 477.940, 1078.161 478.836 C 1069.516 480.264, 1060 480.350, 1060 479 C 1060 478.450, 1059.550 478, 1059 478 C 1057.212 478, 1057.934 479.731, 1061.500 484 C 1064.380 487.447, 1065 489, 1065 492.766 C 1065 496.865, 1064.544 497.780, 1060.626 501.534 C 1057.727 504.312, 1055.677 507.457, 1054.546 510.862 C 1053.607 513.688, 1052.487 516, 1052.057 516 C 1049.163 516, 1039.883 526.216, 1041.399 527.733 C 1042.512 528.845, 1051.406 524.628, 1055.227 521.176 C 1058.773 517.973, 1068.745 513.016, 1071.667 513.005 C 1072.308 513.002, 1072.997 513.491, 1073.197 514.092 C 1073.448 514.843, 1075.115 514.693, 1078.531 513.614 C 1085.981 511.259, 1114.092 511.761, 1119 514.336 C 1120.925 515.347, 1125.088 516.422, 1128.250 516.725 C 1131.412 517.029, 1134 517.604, 1134 518.003 C 1134 518.402, 1136.138 519.518, 1138.750 520.484 C 1146.813 523.464, 1151.568 526.716, 1155.605 532.009 C 1160.784 538.800, 1163.493 540, 1173.644 540 L 1181.981 540 1185.465 535.250 C 1187.382 532.638, 1188.976 529.600, 1189.007 528.500 C 1189.038 527.400, 1189.724 525.626, 1190.532 524.559 C 1191.339 523.491, 1192 521.563, 1192 520.274 C 1192 517.593, 1194.590 513.145, 1197.326 511.128 C 1198.840 510.011, 1199.063 508.987, 1198.522 505.628 C 1198.157 503.358, 1197.631 497.900, 1197.355 493.500 L 1196.851 485.500 1191.336 483.729 L 1185.821 481.958 1183.838 484.479 C 1182.041 486.764, 1181.168 487, 1174.531 487 C 1167.444 487, 1167.110 486.889, 1164.202 483.577 C 1162.549 481.694, 1158.023 478.432, 1154.145 476.327 C 1149.891 474.018, 1143.803 469.316, 1138.797 464.473 C 1134.234 460.059, 1128.025 455.147, 1125 453.558 C 1121.975 451.969, 1118.427 449.844, 1117.115 448.835 C 1115.803 447.826, 1113.981 447, 1113.065 447 C 1112.149 447, 1110.973 446.601, 1110.450 446.112 C 1109.087 444.839, 1105.921 444.263, 1102.809 444.723" stroke="#81244d" fill="#81244d" fill-opacity="0.2" fill-rule="evenodd"/><path class="svg-region-OABr" d="M 612.667 445.667 C 612.300 446.033, 612 447.398, 612 448.699 C 612 450, 610.582 454.763, 608.849 459.282 C 605.579 467.813, 604.585 469.032, 591.559 480.500 C 588.436 483.250, 585.245 486.690, 584.469 488.144 C 580.449 495.679, 571.746 500.942, 563.250 500.978 L 558 501 558 504.500 C 558 506.425, 558.450 508, 559 508 C 559.588 508, 560 511.480, 560 516.441 C 560 521.084, 560.450 525.160, 561 525.500 C 562.431 526.384, 562.274 542.326, 560.820 543.780 C 559.914 544.686, 559.953 545.544, 560.989 547.480 C 561.731 548.866, 562.727 550, 563.203 550 C 563.678 550, 565.338 551.300, 566.891 552.888 C 570.746 556.832, 573.205 558, 577.651 558 C 584.999 558, 592.790 554.025, 600.857 546.160 C 602.921 544.147, 605.823 541.861, 607.305 541.081 C 608.787 540.301, 610 539.304, 610 538.867 C 610 537.447, 625.078 523, 626.561 523 C 627.352 523, 628 522.550, 628 522 C 628 521.450, 628.606 521, 629.346 521 C 630.601 521, 635.207 519.107, 639.236 516.936 C 640.191 516.421, 641.541 515.986, 642.236 515.969 C 642.931 515.952, 645.750 514.824, 648.500 513.463 C 651.250 512.101, 655.197 510.706, 657.272 510.363 C 659.347 510.019, 661.286 509.346, 661.581 508.869 C 661.876 508.391, 667.154 508.008, 673.309 508.017 C 684.103 508.034, 684.589 508.128, 687 510.680 L 689.500 513.325 689.806 510.267 C 690.242 505.899, 692.992 503.666, 696.360 504.947 C 697.811 505.499, 700.371 505.676, 702.047 505.341 C 705.085 504.733, 705.089 504.723, 703.173 502.615 C 699.879 498.992, 699 496.339, 699 490.020 C 699 482.709, 696.774 479.787, 689.865 478.028 C 683.312 476.360, 680.949 474.880, 678.407 470.853 C 677.137 468.841, 674.815 466.555, 673.246 465.772 C 670.052 464.179, 668.735 464.636, 663.218 469.250 C 660.368 471.634, 659.060 472, 653.399 472 C 646.445 472, 643 470.836, 643 468.485 C 643 464.638, 639.719 459.210, 636.197 457.231 C 634.155 456.083, 631.397 453.987, 630.068 452.572 C 628.739 451.157, 627.077 450, 626.375 450 C 625.674 450, 624.740 449.391, 624.300 448.646 C 622.577 445.729, 614.638 443.695, 612.667 445.667" stroke="#81244d" fill="#81244d" fill-opacity="0.2" fill-rule="evenodd"/><path class="svg-region-LBPCl" d="M 1048.536 323.960 C 1046.263 326.472, 1046.967 329.101, 1051.590 335.360 C 1054.269 338.988, 1055.468 339.932, 1056.315 339.085 C 1057.163 338.237, 1057.010 336.265, 1055.709 331.307 C 1053.246 321.915, 1051.762 320.395, 1048.536 323.960" stroke="#daffff" fill="#daffff" fill-opacity="0.2" fill-rule="evenodd"/><path class="svg-region-LBPCr" d="M 715.356 300.233 C 714.937 300.912, 714.405 305.412, 714.175 310.233 L 713.755 319 716.357 319 C 721.705 319, 725.492 304.565, 721.171 300.655 C 719.008 298.697, 716.421 298.509, 715.356 300.233" stroke="#daffff" fill="#daffff" fill-opacity="0.2" fill-rule="evenodd"/><path class="svg-region-PNl" d="M 1082.531 39.657 C 1077.598 40.420, 1071.973 41.906, 1070.031 42.959 C 1055.579 50.795, 1053.574 51.257, 1048.218 47.992 C 1045.074 46.075, 1044.649 46.056, 1038.114 47.542 C 1032.298 48.865, 1030.717 49.720, 1027.396 53.335 C 1019.521 61.908, 1014 70.842, 1014 75.010 C 1014 76.159, 1013.269 78.513, 1012.376 80.241 C 1009.822 85.180, 1010.880 101.322, 1014.176 107.695 C 1027.360 133.188, 1030.300 138.156, 1034.478 142 C 1035.972 143.375, 1038.010 146.090, 1039.007 148.033 C 1041.482 152.857, 1043.859 153.758, 1055.758 154.381 C 1065.217 154.876, 1066.774 154.680, 1075.758 151.869 C 1081.116 150.192, 1087.975 147.762, 1091 146.467 C 1094.025 145.173, 1100.413 142.784, 1105.195 141.158 C 1112.773 138.582, 1114.604 137.471, 1119.445 132.512 C 1124.019 127.827, 1125 126.211, 1125 123.362 C 1125 121.458, 1125.744 118.462, 1126.653 116.704 C 1127.562 114.946, 1129.981 108.628, 1132.028 102.665 C 1135.509 92.526, 1135.669 91.550, 1134.489 87.630 C 1133.795 85.324, 1131.767 81.274, 1129.983 78.630 C 1128.198 75.986, 1125.542 71.050, 1124.080 67.661 C 1118.508 54.747, 1116.065 51.316, 1106.459 42.912 C 1100.243 37.474, 1098.325 37.213, 1082.531 39.657" stroke="#bbc0d1" fill="#bbc0d1" fill-opacity="0.2" fill-rule="evenodd"/><path class="svg-region-PNr" d="M 639.207 68.639 C 632.730 74.068, 630 80.259, 630 89.516 C 630 94.093, 630.560 98.183, 631.413 99.831 C 633.388 103.652, 641.231 110.756, 649.500 116.216 C 653.350 118.758, 658.023 122.224, 659.886 123.919 C 661.748 125.614, 663.600 127, 664.003 127 C 664.405 127, 665.978 128.879, 667.497 131.175 C 670.403 135.566, 675.836 141, 677.320 141 C 677.801 141, 682.774 145.697, 688.371 151.439 C 693.969 157.180, 699.887 162.419, 701.524 163.080 C 703.161 163.742, 709.450 164.625, 715.500 165.042 C 722.910 165.554, 728.008 166.457, 731.120 167.810 L 735.740 169.818 740.870 163.678 C 746.300 157.179, 746.869 156, 744.573 156 C 743.787 156, 742.308 154.936, 741.285 153.635 C 740.261 152.334, 738.488 150.972, 737.344 150.609 C 736.200 150.246, 734.566 149.173, 733.712 148.224 C 730.340 144.476, 724.591 133.058, 721.928 124.818 C 717.936 112.468, 717.128 111.211, 705.389 99.071 C 693.425 86.697, 681.562 77.799, 669.066 71.826 C 652.556 63.934, 645.693 63.201, 639.207 68.639" stroke="#bbc0d1" fill="#bbc0d1" fill-opacity="0.2" fill-rule="evenodd"/><path class="svg-region-ODMl" d="M 1155 440.940 C 1149.731 444.028, 1129.887 445.260, 1113.750 443.502 C 1110.037 443.098, 1107.004 443.157, 1107.008 443.634 C 1107.013 444.110, 1109.600 445.724, 1112.758 447.219 C 1126.797 453.867, 1130.154 456.192, 1142.177 467.598 C 1146.673 471.864, 1151.897 475.761, 1154.785 477.003 C 1157.496 478.169, 1161.445 480.896, 1163.560 483.062 C 1167.327 486.920, 1167.552 487, 1174.548 487 C 1180.197 487, 1182.036 486.618, 1183.345 485.171 C 1185.527 482.761, 1185.436 481.273, 1183.062 480.520 C 1180.726 479.778, 1175 473.457, 1175 471.620 C 1175 470.900, 1174.053 469.453, 1172.896 468.406 C 1169.751 465.560, 1166.484 459.489, 1163.001 450.023 C 1159.436 440.330, 1158.280 439.018, 1155 440.940" stroke="#999999" fill="#999999" fill-opacity="0.2" fill-rule="evenodd"/><path class="svg-region-ODMr" d="M 628 450.858 C 628 451.470, 629.913 453.203, 632.250 454.709 C 638.608 458.804, 641.806 462.448, 642.558 466.457 C 643.416 471.030, 645.313 472, 653.399 472 C 659.060 472, 660.368 471.634, 663.218 469.250 C 665.027 467.738, 667.405 466.002, 668.503 465.393 C 672.756 463.035, 670.984 458, 665.903 458 C 663.301 458, 663.100 457.750, 663.619 455.154 L 664.189 452.307 649.844 451.611 C 641.955 451.228, 633.813 450.652, 631.750 450.330 C 629.311 449.949, 628 450.134, 628 450.858" stroke="#999999" fill="#999999" fill-opacity="0.2" fill-rule="evenodd"/><path class="svg-region-COl" d="M 1111.500 141.730 C 1110.400 142.004, 1105 143.703, 1099.500 145.505 C 1094 147.307, 1087.925 149.088, 1086 149.464 C 1084.075 149.840, 1079.800 151.069, 1076.500 152.195 C 1071.398 153.937, 1067.658 154.275, 1051.500 154.456 C 1033.096 154.663, 1023.571 155.470, 1021.500 157 C 1020.950 157.407, 1017.505 158.322, 1013.844 159.034 C 1007.533 160.262, 1007.249 160.437, 1008.344 162.415 C 1008.980 163.562, 1010.054 164.855, 1010.731 165.289 C 1011.408 165.723, 1014.780 168.536, 1018.224 171.539 C 1021.668 174.543, 1024.922 177, 1025.455 177 C 1025.988 177, 1028.241 175.219, 1030.462 173.041 C 1036.572 167.051, 1046.394 165.234, 1084.500 163.042 C 1096.863 162.331, 1099.354 161.877, 1105.805 159.153 C 1109.823 157.456, 1115.898 155.564, 1119.305 154.949 C 1122.712 154.333, 1128.650 152.676, 1132.500 151.266 C 1136.350 149.856, 1141.975 148.432, 1145 148.101 C 1150.010 147.554, 1150.500 147.281, 1150.500 145.045 C 1150.500 143.279, 1149.799 142.395, 1148 141.895 C 1145.164 141.106, 1114.560 140.968, 1111.500 141.730" stroke="#906d99" fill="#906d99" fill-opacity="0.2" fill-rule="evenodd"/><path class="svg-region-COr" d="M 597.085 127.915 C 594.373 130.627, 594.454 131.590, 597.646 134.548 C 599.850 136.590, 601.312 137.002, 606.396 137.012 C 609.753 137.018, 614.935 137.672, 617.912 138.464 C 623.817 140.036, 649.500 152.736, 654.797 156.704 C 656.611 158.062, 661.336 160.711, 665.297 162.591 C 673.376 166.423, 675.435 167.658, 689.846 177.316 C 695.952 181.408, 700.624 185.305, 701.534 187.066 C 702.369 188.680, 703.602 189.998, 704.276 189.996 C 705.845 189.991, 710.848 186.866, 713.763 184.070 C 715.007 182.875, 718.993 180.324, 722.620 178.400 C 729.736 174.625, 735 171.031, 735 169.948 C 735 168.180, 724.658 165.606, 715.028 164.978 C 709.237 164.600, 703.188 163.759, 701.585 163.107 C 699.981 162.456, 694.131 157.247, 688.585 151.531 C 679.659 142.333, 677.926 141, 673.500 139.924 C 670.750 139.255, 667.172 138.040, 665.548 137.224 C 662.074 135.477, 653.112 133.541, 644 132.569 C 640.425 132.188, 635.250 131.244, 632.500 130.472 C 627.595 129.095, 616.058 127.376, 604.835 126.349 C 600.010 125.908, 598.860 126.140, 597.085 127.915" stroke="#906d99" fill="#906d99" fill-opacity="0.2" fill-rule="evenodd"/><path class="svg-region-HRl" d="M 1158.078 193.137 C 1156.110 195.412, 1152.700 198.876, 1150.500 200.836 C 1148.300 202.795, 1142.225 208.756, 1137 214.082 C 1129.460 221.768, 1124.611 225.584, 1113.500 232.577 C 1105.800 237.423, 1097.752 242.763, 1095.617 244.444 C 1089.752 249.060, 1079 260.024, 1079 261.389 C 1079 262.051, 1075.941 265.722, 1072.202 269.547 C 1067.185 274.679, 1064.107 276.946, 1060.452 278.203 C 1057.729 279.140, 1051.996 281.904, 1047.714 284.345 C 1043.273 286.877, 1037.903 289.087, 1035.214 289.491 C 1032.621 289.879, 1029.770 290.588, 1028.878 291.065 C 1027.986 291.543, 1024.161 292.637, 1020.378 293.496 C 1006.274 296.700, 1007.574 295.807, 1006.906 302.751 C 1006.526 306.694, 1005.171 311.242, 1003.156 315.336 C 1000.581 320.566, 1000 322.960, 1000 328.347 C 1000 334.536, 1000.172 335.038, 1002.750 336.378 C 1004.263 337.164, 1007.693 339.883, 1010.372 342.420 C 1013.550 345.428, 1016.739 347.409, 1019.540 348.114 C 1021.903 348.709, 1024.804 350.227, 1025.987 351.486 C 1028.407 354.062, 1030.211 353.944, 1036.695 350.785 C 1041.853 348.273, 1052 339.377, 1052 337.367 C 1052 336.557, 1050.875 334.238, 1049.500 332.215 C 1046.238 327.414, 1046.343 326.002, 1050.250 322.228 C 1052.037 320.501, 1054.175 318.366, 1055 317.482 C 1057.175 315.153, 1063.487 311.203, 1071.500 307.156 C 1080.171 302.777, 1089.502 293.597, 1094.131 284.889 C 1097.952 277.705, 1106.335 268.663, 1113 264.539 C 1120.106 260.142, 1149.822 229.625, 1155.395 221 C 1158.061 216.875, 1162.372 211.250, 1164.975 208.500 C 1167.579 205.750, 1170.450 202.387, 1171.355 201.027 C 1175.169 195.296, 1172.015 189, 1165.328 189 C 1162.267 189, 1161.061 189.688, 1158.078 193.137" stroke="#d9dba1" fill="#d9dba1" fill-opacity="0.2" fill-rule="evenodd"/><path class="svg-region-HRr" d="M 609.174 216.314 C 607.978 217.587, 607 219.601, 607 220.789 C 607 224.060, 628.189 243.907, 636.021 247.971 C 641.707 250.922, 657.904 262.085, 660.276 264.689 C 674.129 279.895, 677 284.556, 677 291.838 C 677 294.989, 677.539 297.202, 678.500 298 C 679.418 298.762, 680 300.955, 680 303.654 C 680 306.592, 680.486 308.249, 681.456 308.622 C 682.257 308.929, 686.094 307.559, 689.982 305.578 C 698.076 301.453, 699.276 301.523, 707.138 306.589 C 710.050 308.465, 712.703 310, 713.034 310 C 713.364 310, 714.055 307.639, 714.568 304.753 C 715.607 298.901, 717.727 297.538, 721.074 300.567 C 723.793 303.028, 723.657 310.181, 720.803 314.882 C 719.594 316.872, 718.357 318.725, 718.053 319 C 717.749 319.275, 717.725 325.575, 718 333 C 718.457 345.332, 718.730 346.889, 721.155 351 C 725.057 357.614, 727.945 359.894, 733.366 360.637 C 737.197 361.162, 738.641 360.908, 740.809 359.330 C 742.289 358.252, 745.525 356.575, 748 355.602 C 752.874 353.686, 757.111 350.739, 763.750 344.646 C 767.204 341.475, 768 340.087, 768 337.230 C 768 333.440, 769.226 334.810, 749.306 316.331 C 727.044 295.679, 727.094 295.715, 713 290.494 C 703.664 287.036, 697.381 282.304, 692.720 275.221 C 682.076 259.045, 678.887 253.684, 678.369 251.095 C 678.005 249.273, 676.742 247.822, 674.658 246.831 C 669.816 244.528, 660.355 238.949, 650.980 232.869 C 638.487 224.766, 617.506 214, 614.209 214 C 612.512 214, 610.464 214.941, 609.174 216.314" stroke="#d9dba1" fill="#d9dba1" fill-opacity="0.2" fill-rule="evenodd"/>
    </svg>