<svg xmlns="http://www.w3.org/2000/svg" width="1785" height="1131" viewBox="0 0 1785 1131" version="1.1">
    <path class="svg-region-AAB" d="M 734.500 474.100 C 722.325 474.830, 709.320 477.400, 706.951 479.544 C 704.756 481.531, 695.779 483.966, 690.500 484.007 C 688.300 484.025, 684.277 484.615, 681.560 485.319 L 676.620 486.600 680.017 488.007 C 684.324 489.791, 686.795 492.265, 688.610 496.610 C 690.348 500.770, 696.700 508, 698.616 508 C 699.377 508, 700 508.427, 700 508.949 C 700 509.977, 712.191 518.987, 713.627 519.020 C 714.469 519.040, 719.680 522.938, 735.472 535.358 L 742.920 541.216 750.210 541.299 C 758.093 541.388, 763.074 539.600, 765.008 535.985 C 765.595 534.888, 768.646 532.693, 771.788 531.107 C 781.040 526.437, 787.289 516.390, 787.419 505.979 C 787.499 499.534, 787.447 499.405, 782.983 494.979 C 776.097 488.150, 760.161 478.135, 756 478.022 C 755.175 477.999, 752.250 476.972, 749.500 475.740 C 745.017 473.732, 743.466 473.562, 734.500 474.100 M 1026 475.740 C 1024.075 475.971, 1020.025 476.858, 1017 477.712 C 1013.975 478.565, 1010.388 479.246, 1009.028 479.224 C 1007.669 479.202, 1003.289 481.168, 999.296 483.592 C 995.302 486.016, 991.762 488, 991.430 488 C 991.099 488, 988.921 489.368, 986.592 491.041 C 983.405 493.330, 980.768 494.257, 975.929 494.791 L 969.500 495.500 969.605 502 C 969.791 513.470, 973.060 531.645, 975.691 535.834 C 977.557 538.806, 984.431 541.950, 989.128 541.978 C 991.123 541.990, 994.309 542.649, 996.208 543.443 C 998.107 544.236, 1004.192 545.197, 1009.731 545.579 C 1018.259 546.166, 1020.604 545.984, 1025.042 544.388 C 1030.499 542.426, 1039 535.800, 1039 533.510 C 1039 531.467, 1045.053 524.699, 1052.109 518.852 C 1063.407 509.490, 1070.701 501.406, 1071.450 497.416 C 1072.339 492.678, 1071.544 492.047, 1069.548 495.907 C 1067.608 499.659, 1066.728 499.759, 1064.577 496.477 C 1063.667 495.089, 1061.253 493.258, 1059.212 492.408 C 1056.969 491.474, 1053.547 488.465, 1050.564 484.803 C 1042.765 475.230, 1039.694 474.097, 1026 475.740" stroke="#7f3c1a" fill="#7f3c1a" fill-opacity="0.2" fill-rule="evenodd"/><path class="svg-region-PC" d="M 1012 444.497 C 1009.114 446.150, 1004 446.472, 1004 445 C 1004 444.450, 1002.557 444, 1000.792 444 C 998.099 444, 996.506 445.158, 990.855 451.227 C 984.697 457.841, 983.790 458.455, 980.176 458.455 C 976.873 458.455, 975.875 458.968, 974.076 461.594 C 972.893 463.320, 971.051 467.124, 969.983 470.046 C 968.915 472.968, 967.582 475.818, 967.021 476.379 C 966.459 476.941, 966 480.855, 966 485.078 C 966 494.761, 966.693 495.459, 975.601 494.744 C 980.851 494.323, 983.040 493.592, 986.499 491.108 C 988.879 489.399, 991.099 488, 991.430 488 C 991.762 488, 995.431 485.938, 999.582 483.418 C 1003.734 480.898, 1007.732 479.067, 1008.468 479.349 C 1009.204 479.632, 1011.987 479.200, 1014.653 478.389 C 1017.319 477.579, 1023.325 476.365, 1028 475.691 L 1036.500 474.467 1037.206 468.983 C 1037.594 465.968, 1038.197 461.890, 1038.545 459.921 C 1039.019 457.243, 1038.654 455.481, 1037.093 452.921 C 1035.946 451.040, 1035.006 448.496, 1035.004 447.269 C 1035 445.204, 1034.669 445.084, 1030.544 445.649 C 1026.722 446.173, 1020.998 445.354, 1015.879 443.550 C 1015.120 443.283, 1013.375 443.709, 1012 444.497 M 751 452.123 C 751 453.156, 750.550 454, 750 454 C 749.450 454, 749 454.498, 749 455.106 C 749 455.714, 747.875 457.548, 746.500 459.182 C 744.598 461.443, 744.008 463.271, 744.032 466.827 C 744.049 469.397, 744.636 472.253, 745.336 473.173 C 746.036 474.094, 749.477 475.813, 752.983 476.994 C 763.984 480.700, 776.043 487.791, 781.622 493.835 C 783.936 496.341, 785.269 497.049, 786.775 496.571 C 789.262 495.782, 792 490.294, 792 486.099 C 792 484.394, 792.450 483, 793 483 C 793.603 483, 794 478.833, 794 472.500 C 794 466.167, 793.603 462, 793 462 C 792.450 462, 792 461.100, 792 460 C 792 458.900, 790.200 456.200, 788 454 C 784.534 450.534, 783.407 450, 779.559 450 C 777.116 450, 774.808 450.502, 774.429 451.115 C 773.971 451.857, 772.190 451.982, 769.120 451.488 C 766.579 451.080, 761.462 450.633, 757.750 450.496 C 751.726 450.274, 751 450.449, 751 452.123" stroke="#cda789" fill="#cda789" fill-opacity="0.2" fill-rule="evenodd"/><path class="svg-region-IBl" d="M 1058.090 425.134 C 1056.941 426.368, 1056 427.702, 1056 428.099 C 1056 428.497, 1053.862 429.845, 1051.250 431.095 C 1048.638 432.345, 1045.772 434.186, 1044.883 435.184 C 1043.993 436.183, 1042.786 437, 1042.200 437 C 1041.614 437, 1040.872 437.828, 1040.551 438.840 C 1040.230 439.852, 1038.849 441.278, 1037.483 442.009 C 1034.330 443.697, 1034.171 448.128, 1037.093 452.921 C 1038.666 455.501, 1039.018 457.223, 1038.524 459.921 C 1038.165 461.890, 1037.640 465.985, 1037.358 469.021 L 1036.845 474.542 1040.438 475.841 C 1042.784 476.690, 1046.020 479.513, 1049.765 483.978 C 1053.172 488.040, 1056.971 491.439, 1059.124 492.350 C 1061.117 493.193, 1063.705 495.147, 1064.875 496.691 L 1067.002 499.500 1069.001 497.139 C 1070.100 495.841, 1071 494.237, 1071 493.576 C 1071 491.087, 1076.786 487.142, 1085 484.031 C 1089.675 482.260, 1094.218 480.172, 1095.097 479.390 C 1097.549 477.206, 1099 471.032, 1099 462.783 C 1099 458.667, 1099.502 453.858, 1100.116 452.098 C 1101.513 448.088, 1100.742 447.281, 1096.898 448.732 C 1094.282 449.720, 1093.645 449.608, 1092.186 447.908 C 1091.259 446.827, 1090.005 444.492, 1089.400 442.721 C 1088.333 439.598, 1088.146 439.510, 1083.293 439.829 C 1078.292 440.158, 1078.282 440.152, 1074.393 434.913 C 1072.252 432.028, 1069.824 428.280, 1068.997 426.584 C 1066.993 422.473, 1061.277 421.713, 1058.090 425.134" stroke="#b10e0e" fill="#b10e0e" fill-opacity="0.2" fill-rule="evenodd"/><path class="svg-region-IBr" d="M 686.968 432.447 C 679.088 437.139, 674.935 440.752, 668.680 448.356 C 666.564 450.929, 664.008 453, 662.949 453 C 660.234 453, 659.488 457.099, 660.854 464.513 C 661.484 467.933, 662 473.871, 662 477.710 C 662 483.202, 662.390 485.043, 663.829 486.345 C 665.874 488.196, 668.769 488.452, 672.203 487.087 C 673.466 486.585, 678.550 485.658, 683.500 485.027 C 698.043 483.175, 703.949 481.828, 706.571 479.766 C 709.471 477.484, 721.230 475.014, 732.500 474.319 C 741.604 473.757, 743.938 472.092, 743.978 466.134 C 743.992 463.907, 745.150 461.200, 747.398 458.134 C 752.062 451.772, 752.486 447, 748.386 447 C 746.980 447, 739.481 444.022, 735.864 442.028 C 734.964 441.532, 731.364 440.601, 727.864 439.959 C 712.520 437.146, 707.817 435.682, 701.948 431.888 C 698.639 429.749, 695.596 428, 695.185 428 C 694.773 428, 691.076 430.001, 686.968 432.447" stroke="#b10e0e" fill="#b10e0e" fill-opacity="0.2" fill-rule="evenodd"/><path class="svg-region-MB" d="M 804.500 345.037 C 800.680 346.884, 796.865 347.949, 794 347.970 C 790.385 347.997, 788.419 348.780, 784 351.953 C 780.975 354.125, 775.800 357.792, 772.500 360.101 C 769.200 362.411, 766.174 364.847, 765.776 365.515 C 765.378 366.183, 759.440 369.586, 752.581 373.078 C 744.065 377.413, 739.937 380.073, 739.564 381.463 C 739.264 382.584, 736.304 386.575, 732.986 390.334 C 729.669 394.092, 725.452 399.492, 723.617 402.334 C 719.187 409.189, 714.010 414.339, 708.233 417.637 C 700.285 422.175, 693.842 430, 698.054 430 C 698.542 430, 700.867 431.340, 703.221 432.978 C 706.114 434.991, 710.092 436.467, 715.500 437.533 C 731.643 440.716, 734.589 441.474, 739 443.575 C 741.475 444.755, 745.152 446.256, 747.170 446.911 C 749.189 447.566, 751.378 448.750, 752.034 449.541 C 752.802 450.467, 754.123 450.756, 755.733 450.352 C 757.110 450.007, 761.378 450.317, 765.217 451.041 C 770.613 452.059, 772.626 452.090, 774.085 451.179 C 775.123 450.531, 777.554 450, 779.486 450 C 782.899 450, 783 449.889, 783 446.129 C 783 442.645, 783.724 441.548, 790.250 435.142 C 797.760 427.771, 798.842 425.767, 803.558 410.500 C 804.577 407.200, 805.768 404.073, 806.205 403.550 C 806.642 403.028, 807 401.350, 807 399.823 C 807 398.295, 808.316 393.098, 809.923 388.273 C 811.531 383.448, 813.402 376.359, 814.080 372.521 C 814.758 368.682, 816.371 363.436, 817.663 360.862 C 821.219 353.783, 821.696 348.135, 819.025 344.750 C 816.190 341.158, 812.367 341.233, 804.500 345.037 M 965.932 347.838 C 960.374 349.668, 954 353.616, 954 355.229 C 954 355.697, 953.063 357.348, 951.918 358.897 C 948.694 363.257, 948.245 372.269, 950.874 379.864 C 952.043 383.243, 953 387.005, 953 388.225 C 953 391.652, 955.362 401, 956.227 401 C 956.652 401, 957 401.894, 957 402.986 C 957 405.817, 959.288 414, 960.080 414 C 960.445 414, 961.047 415.688, 961.417 417.750 C 961.786 419.813, 963.082 423.320, 964.295 425.545 C 965.508 427.770, 968.235 433.052, 970.356 437.284 C 974.675 445.904, 979.042 450.333, 984.969 452.109 L 988.972 453.308 993.306 448.654 C 996.709 445, 998.323 444, 1000.820 444 C 1002.569 444, 1004 444.450, 1004 445 C 1004 446.479, 1008.687 446.213, 1011.899 444.552 C 1014.342 443.289, 1015.310 443.289, 1019.508 444.552 C 1029.426 447.537, 1033.485 446.182, 1043.357 436.587 C 1045.953 434.064, 1048.924 432, 1049.959 432 C 1051.234 432, 1052.052 431.040, 1052.495 429.022 C 1053.299 425.363, 1052.336 422, 1050.484 422 C 1048.463 422, 1044.945 416.759, 1039.744 406 C 1034.741 395.650, 1033.014 390.311, 1033.006 385.163 C 1033.001 382.446, 1031.875 380.655, 1026.935 375.510 C 1021.013 369.344, 1017.683 367.481, 1008.227 365.044 C 1003.494 363.824, 1000.355 361.493, 997.370 356.982 C 995.925 354.800, 992.438 351.573, 989.622 349.812 C 983.136 345.758, 974.449 345.034, 965.932 347.838" stroke="#f9c6c6" fill="#f9c6c6" fill-opacity="0.2" fill-rule="evenodd"/><path class="svg-region-PP" d="M 805.888 310.445 C 805.643 310.690, 802.305 311.364, 798.471 311.943 C 786.138 313.805, 784.620 314.146, 785.648 314.829 C 788.489 316.718, 790 322.564, 790 331.667 C 790 336.815, 790.417 341.809, 790.927 342.764 C 791.437 343.719, 792.098 345.288, 792.396 346.250 C 793.206 348.870, 797.589 348.429, 804.840 344.999 C 814.492 340.433, 818.799 341.313, 820.518 348.202 C 821.236 351.076, 818.693 360.377, 816.473 363 C 815.775 363.825, 814.506 368.550, 813.653 373.500 C 812.800 378.450, 810.954 385.754, 809.551 389.731 C 808.148 393.708, 807 397.725, 807 398.658 C 807 399.591, 804.943 406.462, 802.430 413.927 L 797.860 427.500 790.430 434.749 C 783.924 441.097, 783 442.444, 783 445.578 C 783 448.487, 783.843 450.001, 787.500 453.658 C 789.975 456.133, 792 459.022, 792 460.079 C 792 461.136, 792.450 462, 793 462 C 793.600 462, 794 465.980, 794 471.941 C 794 477.490, 793.558 482.155, 793 482.500 C 792.450 482.840, 792 483.599, 792 484.187 C 792 486.027, 800.127 484.112, 805.735 480.951 C 808.614 479.328, 812.349 478, 814.034 478 C 816.669 478, 817.368 477.406, 819.027 473.750 C 820.088 471.413, 820.966 468.661, 820.978 467.635 C 820.990 466.609, 822.575 462.406, 824.500 458.296 C 826.425 454.185, 828 449.988, 828 448.970 C 828 447.951, 828.392 446.876, 828.871 446.580 C 829.350 446.284, 830.014 444.681, 830.346 443.018 C 830.849 440.503, 835.185 431.045, 839.772 422.453 C 843.249 415.942, 848 405.484, 848 404.343 C 848 403.604, 848.373 403, 848.829 403 C 849.285 403, 850.677 400.637, 851.923 397.750 C 856.043 388.202, 862.475 377.201, 865.398 374.705 C 869.359 371.323, 881.548 362.501, 884.679 360.750 C 886.400 359.788, 888.720 359, 889.833 359 C 891.782 359, 899 364.917, 899 366.515 C 899 366.943, 900.491 369.140, 902.314 371.397 C 907.966 378.395, 917.633 407.367, 916.667 414.413 C 916.346 416.755, 916.640 420.107, 917.336 422.045 C 918.914 426.438, 924.889 438.294, 925.870 438.980 C 927.726 440.277, 931 453.472, 931 459.653 C 931 464.774, 931.507 467.076, 933.250 469.868 C 934.487 471.850, 935.950 474.345, 936.500 475.412 C 937.895 478.119, 953.737 486, 957.783 486 C 962.481 486, 966 483.407, 966 479.944 C 966 478.390, 966.395 476.874, 966.877 476.576 C 967.359 476.278, 968.786 473.439, 970.048 470.267 C 971.309 467.095, 973.235 463.207, 974.327 461.626 C 976.030 459.162, 976.148 458.297, 975.156 455.555 C 974.520 453.797, 974 450.466, 974 448.154 C 974 444.165, 973.215 442.317, 964.841 426.611 C 963.929 424.900, 962.633 421.700, 961.962 419.500 C 961.290 417.300, 960.120 414.073, 959.361 412.330 C 958.603 410.586, 957.725 407.661, 957.410 405.830 C 957.095 403.998, 956.461 401.600, 956.001 400.500 C 954.176 396.136, 953 391.562, 953 388.826 C 953 387.244, 952.100 383.389, 951 380.260 C 948.218 372.346, 948.418 366.561, 951.698 359.978 C 955.019 353.314, 958.222 350.338, 963.750 348.782 C 968.469 347.453, 969.081 346.478, 965.841 345.450 C 963.647 344.753, 957.014 338.174, 957.005 336.685 C 956.994 334.923, 946.181 327, 943.787 327 C 942.731 327, 941.139 328.387, 932.025 337.250 C 928.047 341.119, 925.053 340.791, 920.620 336 C 918.585 333.800, 916.547 332, 916.093 332 C 915.638 332, 914.048 330.160, 912.559 327.910 L 909.853 323.821 903.770 324.527 C 900.424 324.915, 893.820 326.547, 889.093 328.153 C 877.015 332.258, 866.677 332.968, 860.114 330.144 C 857.372 328.965, 854.260 328, 853.198 328 C 851.312 328, 842.388 324.826, 838.599 322.807 C 837.553 322.250, 831.835 319.140, 825.892 315.897 C 817.368 311.245, 814.163 310, 810.710 310 C 808.303 310, 806.133 310.200, 805.888 310.445" stroke="#c4743d" fill="#c4743d" fill-opacity="0.2" fill-rule="evenodd"/><path class="svg-region-DMl" d="M 1056 305.139 C 1053.525 306.301, 1050.825 307.558, 1050 307.933 C 1047.697 308.980, 1044.082 316.965, 1042.923 323.566 C 1042.186 327.762, 1042.207 332.430, 1042.996 339.500 C 1044.298 351.172, 1044.340 353.257, 1043.448 362.127 C 1042.796 368.622, 1042.700 368.800, 1038.641 371.052 C 1036.364 372.317, 1034.169 373.834, 1033.765 374.425 C 1032.657 376.046, 1032.866 387.956, 1034.082 392.500 C 1035.274 396.957, 1043.319 413.972, 1046.267 418.271 C 1049.035 422.309, 1054.117 424.121, 1060.552 423.365 C 1066.096 422.713, 1067.853 423.496, 1069.276 427.253 C 1069.641 428.217, 1071.846 431.531, 1074.176 434.618 L 1078.414 440.230 1083.016 439.684 L 1087.619 439.139 1090.127 444.320 C 1092.034 448.259, 1093.097 449.423, 1094.567 449.178 C 1095.630 449.001, 1099.337 448.710, 1102.805 448.533 C 1106.535 448.342, 1109.802 447.604, 1110.805 446.726 C 1111.737 445.909, 1113.963 444.500, 1115.750 443.595 C 1120.761 441.057, 1119.940 436.483, 1112.165 423.621 C 1110.130 420.255, 1107.235 414.744, 1105.733 411.375 C 1103.137 405.557, 1103.073 405.046, 1104.442 401.163 C 1105.575 397.954, 1105.757 393.662, 1105.293 381.187 C 1104.759 366.815, 1104.920 364.418, 1106.982 356.072 C 1109.258 346.860, 1109.259 346.841, 1107.289 344.173 C 1106.204 342.703, 1104.737 339.700, 1104.029 337.500 C 1103.321 335.300, 1102.154 332.375, 1101.436 331 C 1099.939 328.135, 1097.407 320.758, 1096.570 316.827 C 1095.696 312.723, 1091.114 307.962, 1085.541 305.367 C 1078.509 302.093, 1062.752 301.971, 1056 305.139 M 966.324 312.197 C 962.879 315.413, 965.294 319.155, 972.250 321.378 C 974.885 322.220, 974.359 323.679, 971 324.850 C 969.350 325.425, 968 326.366, 968 326.940 C 968 329.224, 963.568 333, 960.887 333 C 956.780 333, 956.184 336.234, 959.547 340.269 C 963.790 345.359, 967.416 346.817, 974.435 346.253 C 978.663 345.914, 981.657 346.248, 984.303 347.353 L 988.102 348.940 992.801 344.220 C 998.098 338.899, 998.773 338.441, 1008.500 333.548 C 1012.577 331.498, 1016.215 328.873, 1017.213 327.264 C 1018.155 325.744, 1019.915 323.283, 1021.124 321.796 C 1023.034 319.446, 1023.140 318.873, 1021.929 317.414 C 1020.727 315.966, 1019.097 315.815, 1010.018 316.313 C 1001.141 316.799, 997.628 316.498, 987.500 314.379 C 980.900 312.999, 974.719 311.449, 973.764 310.935 C 971.152 309.529, 968.744 309.938, 966.324 312.197" stroke="#68533d" fill="#68533d" fill-opacity="0.2" fill-rule="evenodd"/><path class="svg-region-DMr" d="M 677.130 296.750 C 675.745 297.909, 673.817 302.724, 671.424 311 C 666.974 326.388, 667.398 325.102, 660.394 344.500 C 655.307 358.591, 654.648 361.266, 654.872 366.921 C 655.011 370.453, 655.759 374.568, 656.534 376.066 C 658.717 380.288, 659.371 386.588, 658.110 391.255 C 657.480 393.590, 656.551 398.875, 656.048 403 C 655.544 407.125, 654.619 412.525, 653.992 415 C 653.365 417.475, 652.614 422.464, 652.323 426.087 C 651.887 431.506, 652.166 433.404, 653.896 436.797 C 655.053 439.065, 656.022 441.951, 656.048 443.210 C 656.138 447.505, 659.298 452.476, 662.149 452.806 C 664.285 453.054, 665.628 452.113, 669.146 447.901 C 676.738 438.814, 682.093 434.564, 692.902 429.050 C 695.115 427.921, 698.691 425.311, 700.849 423.249 C 703.007 421.187, 707.434 417.839, 710.686 415.808 C 714.463 413.450, 718.027 410.103, 720.550 406.546 C 722.722 403.483, 727.987 396.680, 732.250 391.429 C 740.630 381.105, 741.939 377.340, 737.789 375.487 C 733.802 373.707, 731.523 368.248, 731.532 360.500 C 731.544 349.800, 733.466 340.389, 736.434 336.497 C 737.846 334.647, 739 332.653, 739 332.067 C 739 331.480, 739.675 331, 740.500 331 C 741.325 331, 742 331.418, 742 331.929 C 742 333.863, 745.198 335.916, 750.707 337.517 C 753.845 338.430, 757.320 339.811, 758.429 340.588 C 759.538 341.365, 762.759 342, 765.588 342 C 771.588 342, 776.498 344.987, 775.675 348.136 C 775.084 350.395, 777.317 350.544, 786.469 348.858 C 792.221 347.798, 792.636 347.544, 792.215 345.343 C 791.965 344.038, 791.365 342.726, 790.881 342.426 C 790.396 342.127, 790 337.402, 790 331.927 C 790 326.452, 789.583 321.191, 789.073 320.236 C 788.563 319.281, 787.881 317.658, 787.558 316.628 C 786.996 314.840, 785.904 314.789, 763.249 315.497 C 750.203 315.905, 738.640 316.567, 737.553 316.970 C 735.443 317.750, 727.272 314.667, 725.500 312.421 C 724.950 311.724, 722.250 310.487, 719.500 309.672 C 716.750 308.858, 712.025 307.073, 709 305.706 C 702.072 302.575, 696.935 301.284, 698.750 303.129 C 700.498 304.907, 700.307 306.002, 698.250 305.988 C 697.288 305.981, 694.621 304.230, 692.324 302.096 C 684.149 294.502, 681.099 293.429, 677.130 296.750" stroke="#68533d" fill="#68533d" fill-opacity="0.2" fill-rule="evenodd"/><path class="svg-region-PV" d="M 792.500 151 C 790.850 151.420, 787.372 151.817, 784.772 151.882 L 780.044 152 784.035 158.176 C 789.618 166.813, 791 172.269, 791 185.668 L 791 196.973 794.369 198.381 C 797.756 199.796, 801 203.372, 801 205.691 C 801 206.376, 799.885 207.520, 798.522 208.234 C 796.166 209.469, 796.117 209.672, 797.522 212.381 C 798.335 213.947, 799 215.757, 799 216.403 C 799 217.049, 799.880 219.304, 800.957 221.415 C 802.033 223.525, 803.415 227.783, 804.029 230.876 C 804.643 233.969, 805.542 238.075, 806.027 240 C 806.512 241.925, 807.134 245.525, 807.410 248 C 807.685 250.475, 808.410 255.875, 809.020 260 C 809.741 264.882, 809.897 274.917, 809.467 288.750 L 808.805 310 811.550 310 C 813.060 310, 819.412 312.701, 825.665 316.002 C 831.918 319.303, 837.814 322.415, 838.767 322.916 C 842.994 325.141, 851.065 328, 853.120 328 C 854.357 328, 857.353 328.961, 859.779 330.135 C 865.926 333.111, 877.266 332.381, 889 328.254 C 893.675 326.610, 900.116 324.944, 903.313 324.552 C 908.524 323.914, 909.322 324.065, 911.011 326.013 C 912.047 327.207, 913.086 328.706, 913.319 329.342 C 913.636 330.207, 914.218 330.191, 915.621 329.278 C 916.655 328.605, 918.962 327.317, 920.750 326.414 C 922.538 325.511, 924 324.423, 924 323.997 C 924 323.571, 924.563 323.273, 925.250 323.336 C 927.831 323.571, 935 321.789, 935 320.912 C 935 320.410, 935.719 320, 936.599 320 C 937.478 320, 939.503 318.602, 941.099 316.894 C 943.979 313.811, 944 313.697, 944 301.342 C 944 289.498, 945.790 276.844, 948.042 272.764 C 948.569 271.809, 949 263.295, 949 253.845 C 949 229.820, 949.867 225.704, 957.392 214 L 963.500 204.500 964.061 190.500 L 964.623 176.500 970.811 167.393 C 974.215 162.384, 977 157.384, 977 156.281 C 977 154.037, 974.928 153.647, 956.478 152.415 C 945.458 151.679, 944.724 151.971, 943.690 157.500 C 942.001 166.537, 940.805 170.464, 938.472 174.642 C 935.127 180.635, 932.715 183.929, 931.645 183.969 C 931.175 183.986, 928.700 185.420, 926.145 187.155 C 911.662 196.991, 905.868 199.096, 896.500 197.921 C 893.200 197.507, 885.758 197.131, 879.961 197.084 C 871.549 197.017, 868.688 197.375, 865.781 198.857 C 861.923 200.824, 860.877 200.697, 836.774 195.330 C 832.815 194.448, 814 180.637, 814 178.613 C 814 177.985, 813.052 175.701, 811.892 173.538 C 810.295 170.558, 805 152.760, 805 150.372 C 805 149.730, 795.642 150.200, 792.500 151" stroke="#b09658" fill="#b09658" fill-opacity="0.2" fill-rule="evenodd"/><path class="svg-region-Fl" d="M 976.580 157.462 C 975.795 159.341, 972.767 164.393, 969.851 168.689 L 964.549 176.500 964.196 189.840 C 963.857 202.592, 963.708 203.408, 960.806 208.340 C 959.137 211.178, 957.441 213.725, 957.037 214 C 955.153 215.283, 951.234 224.088, 950.175 229.417 C 949.529 232.671, 949 243.365, 949 253.180 C 949 262.996, 948.569 271.809, 948.042 272.764 C 945.772 276.876, 944 289.500, 944 301.561 L 944 314.227 947.250 313.584 C 949.038 313.230, 954.325 312.680, 959 312.362 C 963.675 312.043, 967.927 311.381, 968.450 310.891 C 969.739 309.682, 973 309.760, 973 311 C 973 311.550, 974.013 312.004, 975.250 312.009 C 976.487 312.014, 982.384 313.126, 988.352 314.480 C 997.742 316.610, 1000.673 316.857, 1010.102 316.318 C 1017.889 315.872, 1021 315.334, 1021 314.431 C 1021 313.735, 1021.337 313.017, 1021.750 312.833 C 1022.163 312.650, 1023.564 310.986, 1024.864 309.137 C 1026.859 306.297, 1027.128 305.026, 1026.592 300.978 C 1026.242 298.341, 1025.064 293.592, 1023.974 290.425 C 1022.257 285.435, 1022.182 284.454, 1023.409 283.083 C 1027.485 278.526, 1023.380 235.465, 1017.560 221.741 C 1016.683 219.674, 1012.582 214.499, 1008.446 210.241 C 1000.903 202.475, 995.359 193.964, 992.983 186.500 C 992.283 184.300, 991.230 182.189, 990.643 181.810 C 990.053 181.428, 989.397 176.684, 989.177 171.205 C 988.787 161.488, 988.826 161.278, 991.140 160.629 C 993.435 159.985, 993.447 159.926, 991.576 158.496 C 990.518 157.687, 988.043 156.766, 986.076 156.449 C 984.109 156.132, 981.489 155.462, 980.254 154.959 C 978.289 154.161, 977.829 154.475, 976.580 157.462" stroke="#5ca7a9" fill="#5ca7a9" fill-opacity="0.2" fill-rule="evenodd"/><path class="svg-region-Fr" d="M 745.730 152.131 C 743.398 153.436, 743.549 154.675, 746.460 158.135 C 747.813 159.743, 749.217 162.733, 749.579 164.779 C 750.923 172.374, 752.910 175.023, 759.577 178.109 C 763.013 179.699, 766.928 181, 768.277 181 C 771.715 181, 775.626 184.379, 776.344 187.969 C 776.878 190.640, 777.359 191, 780.398 191 C 782.617 191, 784.906 191.891, 786.818 193.500 C 788.452 194.875, 790.113 196, 790.510 196 C 790.907 196, 791.040 190.037, 790.807 182.750 C 790.348 168.436, 789.327 165.170, 782.306 155.555 L 779.426 151.610 763.443 151.387 C 754.530 151.262, 746.695 151.591, 745.730 152.131 M 773.500 209.054 C 771.850 209.596, 767.054 209.965, 762.843 209.874 C 756.372 209.735, 754.763 210.042, 752.458 211.855 C 750.958 213.035, 749.138 214, 748.414 214 C 746.221 214, 740.257 226.021, 738.492 234 C 733.797 255.225, 733.151 260.915, 733.961 273.913 C 734.638 284.762, 734.530 286.673, 733.182 287.750 C 732.322 288.438, 730.888 289, 729.996 289 C 729.104 289, 727.165 290.262, 725.687 291.805 C 723.493 294.095, 723 295.540, 723 299.682 C 723 303.086, 723.520 305.187, 724.580 306.067 C 725.494 306.825, 725.977 308.342, 725.724 309.664 C 725.209 312.359, 727.004 314.183, 732.340 316.387 C 734.766 317.389, 736.793 317.658, 737.840 317.118 C 738.753 316.647, 748.950 315.949, 760.500 315.565 C 778.844 314.956, 796.060 313.031, 806.420 310.431 C 808.777 309.839, 808.791 309.747, 809.537 290.168 C 810.070 276.173, 809.921 267.616, 809.021 260.500 C 806.307 239.039, 803.794 226.714, 801.079 221.539 C 799.935 219.360, 799 216.547, 799 215.289 C 799 214.030, 798.550 213, 798 213 C 797.450 213, 797 212.277, 797 211.393 C 797 210.334, 796.457 209.994, 795.407 210.397 C 790.875 212.136, 788.836 212.161, 787 210.500 C 784.713 208.430, 777.689 207.678, 773.500 209.054" stroke="#5ca7a9" fill="#5ca7a9" fill-opacity="0.2" fill-rule="evenodd"/><path class="svg-region-PCl" d="M 994.902 159.598 C 993.581 160.330, 991.660 160.945, 990.634 160.965 C 988.911 160.997, 988.798 161.772, 989.171 171.060 C 989.395 176.636, 990.051 181.427, 990.643 181.810 C 991.230 182.189, 992.283 184.300, 992.983 186.500 C 995.321 193.844, 1000.873 202.424, 1008.513 210.500 C 1012.675 214.900, 1016.779 220.075, 1017.633 222 C 1019.217 225.573, 1020.835 233.109, 1023.644 250 C 1025.588 261.691, 1025.472 280.776, 1023.443 283.045 C 1022.337 284.282, 1022.288 285.329, 1023.198 288.295 C 1023.824 290.333, 1024.726 292, 1025.203 292 C 1025.680 292, 1025.561 291.048, 1024.938 289.883 C 1024.040 288.207, 1024.125 287.446, 1025.345 286.226 C 1026.733 284.839, 1027.218 285.024, 1030.225 288.093 C 1033.291 291.221, 1038.841 301.337, 1040.461 306.750 C 1041.113 308.927, 1045 310.052, 1045 308.063 C 1045 307.548, 1048.037 305.084, 1051.750 302.588 C 1058.908 297.774, 1062.105 294.131, 1069.925 281.881 C 1072.601 277.690, 1075.624 273.639, 1076.645 272.879 C 1078.370 271.594, 1085 262.534, 1085 261.462 C 1085 261.198, 1086.338 259.135, 1087.974 256.877 C 1091.156 252.484, 1090.925 250.100, 1087.117 248.063 C 1086.107 247.522, 1084.295 244.788, 1083.090 241.987 C 1081.885 239.185, 1079.278 235.100, 1077.298 232.908 C 1075.317 230.715, 1072.527 227.158, 1071.098 225.003 C 1069.669 222.848, 1065.350 216.521, 1061.500 210.944 C 1057.650 205.366, 1053.373 198.982, 1051.995 196.756 C 1048.632 191.321, 1044.839 188.672, 1040.096 188.442 C 1037.932 188.337, 1034.887 187.368, 1033.330 186.288 C 1031.774 185.209, 1029.747 184.055, 1028.828 183.724 C 1027.735 183.331, 1027.338 182.423, 1027.682 181.107 C 1028.096 179.526, 1027.593 178.939, 1025.355 178.388 C 1019.780 177.015, 1013.737 173.935, 1011.810 171.485 C 1010.734 170.118, 1009.294 169, 1008.608 169 C 1007.055 169, 1003.195 164.644, 1002.028 161.573 C 1000.928 158.680, 998.015 157.873, 994.902 159.598" stroke="#465ee0" fill="#465ee0" fill-opacity="0.2" fill-rule="evenodd"/><path class="svg-region-PCr" d="M 692.682 193.750 C 692.304 196.767, 689.881 202.696, 686.043 209.998 C 682.719 216.322, 680 221.911, 680 222.419 C 680 222.927, 679.383 224.053, 678.629 224.921 C 675.848 228.125, 672.794 239.797, 673.303 245.278 C 674.331 256.343, 675.787 260.329, 685.367 278.323 C 687.365 282.075, 689 285.824, 689 286.654 C 689 288.438, 695.711 300.161, 697.360 301.259 C 697.987 301.676, 699.625 302.292, 701 302.626 C 702.375 302.961, 706.875 304.723, 711 306.542 C 715.125 308.360, 720.188 310.158, 722.250 310.535 C 725.557 311.141, 726 310.987, 726 309.234 C 726 308.140, 725.325 306.685, 724.500 306 C 722.373 304.235, 722.489 295.222, 724.669 292.813 C 726.233 291.085, 726.219 290.880, 724.444 289.583 C 721.996 287.793, 721.277 276.214, 722.985 266.086 C 724.292 258.339, 725.514 257.410, 729.750 260.944 C 731.839 262.686, 732 263.626, 732 274.082 C 732 283.157, 731.679 285.697, 730.345 287.171 C 728.971 288.690, 728.938 289, 730.154 289 C 730.959 289, 732.313 288.438, 733.164 287.750 C 734.483 286.683, 734.603 284.665, 733.985 274 C 733.130 259.264, 733.817 253.737, 739.203 232 C 741.182 224.012, 745.967 215.256, 749.053 213.978 C 752.712 212.463, 755.978 208.875, 754.250 208.271 C 753.515 208.013, 753 206.084, 753 203.586 C 753 197.516, 751.576 196.966, 731 195.090 C 725.775 194.613, 719.925 193.714, 718 193.092 C 714.461 191.948, 697.859 189.011, 694.889 189.004 C 693.717 189.001, 693.116 190.293, 692.682 193.750" stroke="#465ee0" fill="#465ee0" fill-opacity="0.2" fill-rule="evenodd"/><path class="svg-region-DV" d="M 839.250 149.695 C 820.413 149.877, 805 150.275, 805 150.579 C 805 152.843, 810.477 171.810, 811.474 173 C 812.166 173.825, 813.009 175.671, 813.348 177.103 C 813.759 178.838, 817.134 182.187, 823.468 187.144 C 831.566 193.481, 833.897 194.777, 839.236 195.907 C 842.681 196.637, 849.213 198.032, 853.751 199.008 C 861.782 200.736, 862.102 200.732, 865.751 198.865 C 869.145 197.127, 870.968 197.003, 885 197.554 C 893.525 197.889, 902.075 198.126, 904 198.080 C 907.674 197.994, 916.726 193.689, 926 187.618 C 933.135 182.947, 935.102 180.935, 938.271 175.068 C 940.480 170.977, 941.676 167.132, 945.133 153 C 945.449 151.707, 941.907 151.416, 919.500 150.892 C 905.200 150.557, 889 150.076, 883.500 149.823 C 878 149.570, 858.087 149.512, 839.250 149.695" stroke="#45567a" fill="#45567a" fill-opacity="0.2" fill-rule="evenodd"/><path class="svg-region-B" d="M 964.351 662.972 C 959.563 665.718, 941 683.219, 941 684.988 C 941 685.422, 939.200 688.858, 937 692.623 L 933 699.468 933 710.512 C 933 718.296, 933.408 722.138, 934.383 723.530 C 935.144 724.616, 936.694 728.506, 937.826 732.173 C 939.525 737.674, 939.685 739.375, 938.737 741.885 C 935.105 751.507, 946.842 756.299, 961.824 751.310 C 967.981 749.260, 977.866 741.499, 978.548 738.180 C 979.959 731.315, 981.666 727.544, 986.137 721.411 C 993.573 711.211, 995.293 703.479, 993.879 686.609 C 992.991 676.008, 992.847 675.539, 988.486 668.979 C 984.521 663.015, 983.493 662.110, 979.560 661.119 C 972.779 659.412, 969.959 659.755, 964.351 662.972 M 785.580 676.697 C 780.306 682.385, 778.500 690.751, 778.500 709.500 C 778.500 723.647, 778.755 726.137, 780.698 731 C 781.908 734.025, 783.157 737.749, 783.474 739.275 C 784.241 742.968, 790.381 749.634, 795.432 752.259 C 801.264 755.291, 815.136 755.259, 823.465 752.194 C 826.746 750.988, 830.258 750, 831.268 750 C 833.857 750, 839.661 745.849, 842.554 741.927 C 844.580 739.180, 845 737.452, 845 731.855 C 845 725.042, 843.182 716.106, 840.923 711.821 C 836.750 703.902, 828.552 694.335, 822 689.737 C 820.625 688.772, 817.475 686.412, 815 684.492 C 807.807 678.915, 796.865 674, 791.639 674 C 789.059 674, 787.393 674.741, 785.580 676.697" stroke="#e23b33" fill="#e23b33" fill-opacity="0.2" fill-rule="evenodd"/><path class="svg-region-Ol" d="M 1273.563 252.834 C 1270.407 253.194, 1256.734 256.259, 1251 257.892 C 1249.075 258.440, 1243.853 259.853, 1239.396 261.032 C 1234.855 262.232, 1230.238 264.148, 1228.896 265.389 C 1227.578 266.606, 1225.825 267.926, 1225 268.321 C 1221.011 270.232, 1208.245 278.612, 1206.186 280.671 C 1205.438 281.419, 1203.201 283.261, 1201.213 284.765 C 1199.226 286.269, 1196.227 288.995, 1194.550 290.822 C 1192.872 292.649, 1189.939 295.799, 1188.032 297.822 C 1186.124 299.845, 1183.482 303.525, 1182.160 306 C 1180.838 308.475, 1179.187 311.175, 1178.492 312 C 1176.311 314.587, 1171 325.202, 1171 326.974 C 1171 327.905, 1170.691 328.976, 1170.313 329.354 C 1169.935 329.732, 1169.548 330.819, 1169.453 331.770 C 1169.358 332.722, 1168.502 336.422, 1167.550 339.993 C 1166.242 344.900, 1166.002 348.077, 1166.569 352.993 C 1166.982 356.572, 1167.218 360.693, 1167.095 362.151 C 1166.971 363.609, 1167.349 365.098, 1167.935 365.460 C 1168.521 365.822, 1169 366.811, 1169 367.657 C 1169 368.901, 1174.284 381.020, 1177.869 388 C 1178.293 388.825, 1178.316 390.625, 1177.919 392 C 1177.523 393.375, 1177.155 396.575, 1177.100 399.111 C 1177.014 403.073, 1177.598 404.507, 1181.250 409.293 C 1183.588 412.357, 1186.243 415.065, 1187.152 415.312 C 1188.060 415.559, 1193.747 415.547, 1199.789 415.285 C 1213.359 414.697, 1213.537 414.772, 1224.679 425.700 L 1231 431.899 1231 439.129 C 1231 446.829, 1228.280 456.780, 1225.123 460.627 C 1224.164 461.797, 1220.267 464.885, 1216.463 467.489 L 1209.548 472.223 1200.774 471.804 C 1195.948 471.573, 1192 471.694, 1192 472.074 C 1192 472.453, 1194.020 474.954, 1196.489 477.632 C 1200.854 482.365, 1200.979 482.682, 1200.989 489.063 C 1200.999 495.043, 1201.266 495.881, 1204 498.500 C 1207.342 501.701, 1207.708 504.119, 1205.494 508.364 C 1204.672 509.940, 1204 512.077, 1204 513.114 C 1204 514.151, 1203.662 515.001, 1203.250 515.001 C 1202.838 515.002, 1201.193 516.127, 1199.594 517.501 C 1197.996 518.876, 1195.664 520, 1194.412 520 C 1193.160 520, 1186.817 521.388, 1180.318 523.085 C 1168.019 526.296, 1167.434 526.317, 1150.803 524.149 C 1147.670 523.741, 1144.295 522.708, 1143.303 521.855 C 1142.311 521.002, 1140.713 520.025, 1139.750 519.683 C 1138.787 519.342, 1138 518.619, 1138 518.077 C 1138 517.534, 1136.425 516.795, 1134.500 516.434 C 1132.575 516.073, 1131 515.396, 1131 514.931 C 1131 514.465, 1128.862 512.849, 1126.250 511.338 C 1123.638 509.828, 1118.970 506.884, 1115.879 504.796 C 1110.455 501.133, 1109.956 501, 1101.679 501 C 1093.841 501, 1092.724 501.254, 1088.746 503.939 C 1086.351 505.555, 1082.233 509.624, 1079.596 512.981 C 1076.959 516.338, 1073.608 519.841, 1072.151 520.766 C 1066.849 524.130, 1060.800 529.562, 1059.416 532.200 C 1058.637 533.686, 1057.993 537.511, 1057.985 540.700 C 1057.963 549.273, 1056.025 553.488, 1047.861 562.726 C 1032.110 580.547, 1030.512 582.815, 1026.383 593.218 C 1023.788 599.756, 1020.043 615.577, 1020.016 620.119 C 1020.007 621.560, 1021.139 626.060, 1022.531 630.119 C 1026.437 641.509, 1031.020 656.966, 1032.132 662.500 C 1033.579 669.700, 1036.036 678.106, 1037.539 681 C 1038.253 682.375, 1041.178 688.225, 1044.039 694 C 1050.743 707.535, 1065.917 730.464, 1075.263 741.184 C 1084.647 751.946, 1089.403 757.763, 1091.494 761.035 C 1094.766 766.153, 1140.450 811.489, 1144.814 813.947 C 1157.731 821.223, 1156.877 821.070, 1182.828 820.772 C 1205.677 820.509, 1206.967 820.600, 1219.926 823.384 C 1231.272 825.821, 1234.650 826.168, 1241.739 825.623 C 1260.831 824.156, 1280.549 813.552, 1298.027 795.355 C 1307.441 785.553, 1313.546 777.358, 1324.747 759.489 C 1326.561 756.594, 1335 739.240, 1335 738.404 C 1335 738.013, 1336.074 735.400, 1337.386 732.596 C 1342.431 721.819, 1343.207 719.877, 1353.210 693 C 1354.336 689.975, 1356.285 685.025, 1357.541 682 C 1358.797 678.975, 1361.266 672.900, 1363.028 668.500 C 1367.123 658.275, 1376.408 639.662, 1379.431 635.618 C 1380.713 633.903, 1382.842 630.475, 1384.163 628 C 1387.294 622.131, 1391.256 615.992, 1395.500 610.433 C 1400.055 604.465, 1403.869 596.711, 1405.121 590.871 C 1406.337 585.199, 1410.854 578.609, 1415.336 575.964 C 1419.682 573.400, 1425.528 564.786, 1431.939 551.500 C 1437.889 539.171, 1439.316 537.191, 1450.145 526.235 C 1454.349 521.981, 1458.446 517.150, 1459.248 515.500 C 1460.573 512.776, 1465.302 498.073, 1469.379 484 C 1472.645 472.727, 1475 453.873, 1474.998 439 C 1474.997 425.184, 1474.447 420.471, 1470.388 399.500 C 1469.537 395.100, 1468.501 389.611, 1468.087 387.303 C 1467.672 384.995, 1466.863 382.520, 1466.287 381.803 C 1465.712 381.086, 1464.492 377.800, 1463.577 374.500 C 1461.342 366.443, 1459.935 363, 1458.879 363 C 1458.395 363, 1458 362.127, 1458 361.059 C 1458 359.991, 1457.550 358.840, 1457 358.500 C 1456.450 358.160, 1456 357.240, 1456 356.456 C 1456 354.868, 1450.028 344.690, 1448.789 344.167 C 1448.355 343.983, 1448 343.224, 1448 342.478 C 1448 340.834, 1442.976 331.453, 1438.183 324.149 C 1434.622 318.723, 1415.316 298.702, 1408.966 293.852 C 1407.060 292.396, 1404.515 290.266, 1403.312 289.121 C 1399.578 285.565, 1390.065 278, 1389.329 278 C 1388.944 278, 1387.700 277.134, 1386.564 276.075 C 1385.429 275.016, 1382.025 272.922, 1379 271.421 C 1375.975 269.921, 1373.140 268.087, 1372.700 267.346 C 1372.260 266.606, 1371.230 266, 1370.410 266 C 1369.591 266, 1367.151 265.098, 1364.989 263.994 C 1359.526 261.207, 1343.880 256.237, 1338.212 255.489 C 1335.620 255.146, 1331.250 254.439, 1328.500 253.917 C 1323.713 253.008, 1279.663 252.140, 1273.563 252.834" stroke="#aa444d" fill="#aa444d" fill-opacity="0.2" fill-rule="evenodd"/><path class="svg-region-Or" d="M 523.500 280.015 C 521.850 280.544, 517.350 281.049, 513.500 281.137 C 509.650 281.225, 505.285 281.905, 503.800 282.649 C 502.314 283.392, 499.979 284, 498.609 284 C 497.239 284, 495.840 284.450, 495.500 285 C 495.160 285.550, 494.128 286, 493.207 286 C 491.716 286, 477.885 291.948, 470.846 295.617 C 469.386 296.378, 467.586 297.014, 466.846 297.031 C 465.376 297.065, 459.818 299.761, 450.500 304.960 C 447.200 306.801, 442.757 309.251, 440.627 310.404 C 438.497 311.557, 435.712 313.465, 434.439 314.645 C 433.165 315.825, 431.896 316.563, 431.619 316.286 C 431.341 316.008, 429.041 317.180, 426.507 318.891 C 423.973 320.601, 421.498 322, 421.007 322 C 420.515 322, 419.523 322.788, 418.802 323.750 C 417.049 326.090, 412.712 328.985, 405.779 332.444 C 402.632 334.014, 399.249 336.019, 398.262 336.899 C 397.274 337.780, 393.834 340.279, 390.616 342.452 C 387.399 344.626, 383.131 347.878, 381.133 349.679 C 379.135 351.480, 377.132 352.964, 376.683 352.977 C 375.854 353, 369.926 357.263, 366.917 360 C 366.009 360.825, 362.009 364.425, 358.027 368 C 346.234 378.588, 333.360 393.694, 325.291 406.411 C 303.123 441.352, 293.779 475.411, 298.517 504 C 299.474 509.775, 300.746 515.400, 301.343 516.500 C 301.940 517.600, 302.465 518.725, 302.510 519 C 303.371 524.345, 305.116 529.082, 310.375 540.348 C 313.851 547.794, 317.375 554.925, 318.206 556.193 C 319.036 557.462, 320.890 560.819, 322.325 563.653 C 323.761 566.487, 326.318 570.312, 328.008 572.153 C 329.697 573.994, 332.750 578.071, 334.790 581.214 C 336.831 584.357, 339.470 587.448, 340.657 588.083 C 341.843 588.718, 343.631 590.872, 344.630 592.869 C 346.357 596.320, 349.091 599.699, 355.250 605.992 C 356.763 607.538, 358 609.131, 358 609.532 C 358 609.933, 359.542 612.407, 361.426 615.030 C 364.783 619.702, 367.991 627.381, 368.009 630.785 C 368.024 633.525, 372.031 640.994, 378.500 650.339 C 381.800 655.106, 385.850 661.191, 387.500 663.861 C 389.150 666.531, 392.240 671.367, 394.366 674.608 C 396.492 677.849, 399.257 682.075, 400.511 684 C 401.764 685.925, 406.304 694.700, 410.600 703.500 C 417.252 717.129, 424.239 730.194, 427.982 736 C 442.806 759, 454.960 781.745, 461.379 798.500 C 469.858 820.633, 477.854 834.457, 490.474 848.803 C 494.350 853.209, 504.067 860.156, 511.759 864.020 C 531.873 874.124, 552.055 874.707, 578.162 865.940 C 585.230 863.566, 601.341 856.521, 606 853.766 C 609.421 851.744, 627.247 839.934, 631.241 837.044 C 636.574 833.185, 645.934 822.883, 648.564 817.978 C 650.179 814.965, 651.837 812.350, 652.250 812.167 C 652.663 811.983, 653 811.408, 653 810.887 C 653 810.367, 654.858 807.592, 657.129 804.721 C 659.400 801.849, 662.369 797.156, 663.727 794.292 C 665.084 791.427, 666.826 788.559, 667.597 787.919 C 668.369 787.279, 669 786.173, 669 785.461 C 669 784.749, 669.337 784.017, 669.750 783.833 C 670.163 783.650, 675.550 777.875, 681.723 771 C 687.896 764.125, 693.988 757.600, 695.262 756.500 C 698.681 753.548, 709.643 740.686, 716.865 731.153 C 727.960 716.509, 737.338 696.601, 740.491 681 C 741.436 676.325, 742.566 672.050, 743.003 671.500 C 743.439 670.950, 744.471 668.250, 745.297 665.500 C 746.122 662.750, 747.792 658.250, 749.008 655.500 C 750.224 652.750, 752.632 646.225, 754.359 641 C 757.221 632.343, 757.496 630.391, 757.460 619 C 757.418 606.099, 756.236 600.958, 750.416 588.362 C 746.230 579.303, 733.624 561.416, 725.142 552.500 C 718.615 545.638, 715 540.186, 715 537.202 C 715 536.043, 712.983 533.247, 710.396 530.820 C 707.863 528.444, 703.701 524.481, 701.146 522.014 C 694.705 515.795, 688.334 513, 680.601 513 C 677.190 513, 673.973 513.414, 673.450 513.919 C 672.928 514.425, 669.575 515.054, 666 515.317 C 657.306 515.958, 649.368 517.566, 644.500 519.672 C 640.471 521.415, 633.280 525.924, 630.825 528.246 C 630.096 528.936, 627.172 531.054, 624.327 532.953 C 619.660 536.068, 617.603 538.704, 613.602 546.697 C 612.997 547.905, 610.599 549.844, 608.274 551.006 C 605.948 552.167, 603.784 553.541, 603.464 554.059 C 603.144 554.576, 602.009 555, 600.941 555 C 599.873 555, 599 555.395, 599 555.879 C 599 556.362, 597.671 557.308, 596.047 557.980 C 593.471 559.048, 592.719 558.936, 590.143 557.102 C 588.519 555.946, 586.432 555, 585.503 555 C 584.575 555, 582.671 554.100, 581.273 553 C 579.529 551.628, 577.216 551, 573.910 551 C 569.250 551, 569.070 550.891, 568.472 547.703 C 568.077 545.595, 568.480 542.840, 569.592 540.061 C 571.272 535.862, 571.267 535.668, 569.416 534.302 C 568.164 533.378, 565.594 532.995, 562 533.194 L 556.500 533.500 556.207 526.268 C 555.904 518.801, 557.351 511, 559.039 511 C 559.567 511, 560 510.325, 560 509.500 C 560 508.675, 560.450 508, 561 508 C 562.334 508, 562.276 502.699, 560.909 499.699 C 560.309 498.382, 558.030 496.516, 555.846 495.552 C 549.524 492.763, 544.455 487.249, 542.468 481 C 540.440 474.621, 539.268 453.907, 540.750 450.642 C 541.285 449.464, 542.415 446.892, 543.261 444.927 C 545.413 439.928, 552.449 432.019, 557.676 428.723 C 560.099 427.196, 564.358 425.421, 567.141 424.778 C 571.707 423.724, 572.606 423.821, 576.351 425.771 C 578.633 426.959, 581.748 428.390, 583.274 428.950 C 585.878 429.906, 586.145 429.741, 587.645 426.234 C 588.524 424.180, 589.639 421.825, 590.124 421 C 592.866 416.331, 593.184 413.908, 592.683 401.500 C 592.191 389.320, 592.308 388.179, 594.532 383.412 C 595.837 380.613, 597.646 377.708, 598.551 376.957 C 599.457 376.206, 602.233 372.473, 604.720 368.662 L 609.244 361.733 609.760 349.011 C 610.122 340.077, 609.937 336.079, 609.138 335.585 C 608.512 335.198, 608 333.868, 608 332.629 C 608 330.528, 605.162 323.414, 602.962 320 C 602.430 319.175, 601.571 317.524, 601.053 316.331 C 600.535 315.138, 599.461 313.788, 598.667 313.331 C 597.873 312.874, 597.060 311.738, 596.861 310.808 C 595.833 305.991, 574.087 286, 569.877 286 C 569.289 286, 567.614 285.163, 566.154 284.139 C 562.557 281.617, 554.851 279.995, 547 280.107 C 543.425 280.158, 537.350 279.942, 533.500 279.626 C 529.650 279.310, 525.150 279.485, 523.500 280.015" stroke="#aa444d" fill="#aa444d" fill-opacity="0.2" fill-rule="evenodd"/><path class="svg-region-Pl" d="M 1188.358 416.187 C 1184.069 417.299, 1180.013 422.845, 1179.952 427.683 C 1179.908 431.190, 1179.469 431.775, 1174.549 434.889 C 1167.281 439.490, 1166.415 441.661, 1168.613 449.781 C 1169.569 453.310, 1170.946 456.426, 1171.675 456.706 C 1172.404 456.985, 1173 457.926, 1173 458.797 C 1173 461.114, 1183.002 470.118, 1186.500 470.949 C 1188.150 471.342, 1194.017 471.760, 1199.538 471.880 L 1209.576 472.097 1217.264 467.028 C 1221.492 464.240, 1225.370 461.176, 1225.883 460.219 C 1228.867 454.643, 1231 445.991, 1231 439.465 C 1231 432.752, 1230.801 432.128, 1227.398 428.152 C 1225.417 425.837, 1221.302 421.912, 1218.253 419.429 L 1212.711 414.914 1202.093 415.147 C 1196.253 415.275, 1190.073 415.743, 1188.358 416.187" stroke="#f9d3d3" fill="#f9d3d3" fill-opacity="0.2" fill-rule="evenodd"/><path class="svg-region-Pr" d="M 563.994 425.342 C 556.344 428.079, 546.481 437.403, 543.277 444.927 C 542.440 446.892, 541.361 449.281, 540.878 450.236 C 539.438 453.085, 539.882 470.232, 541.592 477.805 C 544.310 489.839, 552.720 497.016, 564.066 496.985 C 573.236 496.960, 581.445 492.942, 586.046 486.229 C 589.260 481.538, 593.954 469.618, 594.683 464.293 C 595.524 458.161, 593.126 442.496, 590.386 436.216 C 588.508 431.913, 587.376 430.651, 584.290 429.424 C 582.205 428.595, 578.864 427.035, 576.864 425.958 C 572.708 423.720, 569.021 423.544, 563.994 425.342" stroke="#f9d3d3" fill="#f9d3d3" fill-opacity="0.2" fill-rule="evenodd"/><path class="svg-region-OABl" d="M 1105.871 448.204 C 1100.047 449.422, 1099.002 451.488, 1098.994 461.797 C 1098.988 471.134, 1097.610 476.539, 1094.514 479.373 C 1093.235 480.543, 1088.659 482.750, 1084.345 484.277 C 1074.017 487.934, 1071.982 489.709, 1071.512 495.474 C 1071.217 499.100, 1070.294 501.002, 1067.004 504.767 C 1062.731 509.657, 1049.011 521.989, 1047.835 521.996 C 1046.693 522.003, 1039 532.185, 1039 533.689 C 1039 534.744, 1040.505 534.330, 1044.750 532.110 C 1047.912 530.457, 1053.060 528.381, 1056.189 527.499 C 1059.318 526.616, 1063.500 524.793, 1065.483 523.447 C 1067.466 522.101, 1069.858 521, 1070.798 521 C 1072.592 521, 1075.375 518.306, 1080.838 511.280 C 1082.643 508.960, 1086.141 505.697, 1088.610 504.030 C 1092.734 501.247, 1093.793 501, 1101.585 501 C 1110.399 501, 1111.945 501.529, 1118.371 506.744 C 1119.950 508.026, 1122.723 509.693, 1124.533 510.449 C 1126.343 511.206, 1128.718 512.718, 1129.811 513.811 C 1130.903 514.903, 1133.192 516.103, 1134.898 516.478 C 1136.604 516.852, 1138 517.530, 1138 517.984 C 1138 518.438, 1139.912 519.914, 1142.250 521.264 C 1148.919 525.115, 1166.544 526.670, 1176 524.242 C 1178.475 523.607, 1184.429 522.208, 1189.230 521.135 C 1194.032 520.061, 1198.666 518.476, 1199.529 517.613 C 1200.393 516.750, 1201.643 515.697, 1202.308 515.272 C 1203.610 514.440, 1207.013 505.505, 1207.005 502.937 C 1207.002 502.077, 1205.650 500.081, 1204 498.500 C 1201.244 495.860, 1201 495.074, 1201 488.846 C 1201 482.431, 1200.812 481.878, 1197.500 478.567 C 1195.575 476.642, 1194 474.692, 1194 474.234 C 1194 473.306, 1188.193 471, 1185.858 471 C 1183.757 471, 1173 460.453, 1173 458.393 C 1173 456.832, 1171.086 456.742, 1148.689 457.245 C 1132.980 457.598, 1123.693 457.429, 1122.439 456.768 C 1121.373 456.206, 1118.572 453.778, 1116.215 451.373 C 1113.858 448.968, 1111.608 447.053, 1111.215 447.118 C 1110.822 447.183, 1108.417 447.672, 1105.871 448.204" stroke="#81244d" fill="#81244d" fill-opacity="0.2" fill-rule="evenodd"/><path class="svg-region-OABr" d="M 610.512 443.213 C 609.419 443.847, 605.369 445.366, 601.512 446.589 L 594.500 448.813 594.495 458.657 C 594.490 467.881, 594.251 469.035, 590.701 477 C 588.618 481.675, 586.145 486.411, 585.207 487.525 C 580.303 493.344, 572.131 497, 564.027 497 C 560.365 497, 559.890 497.239, 560.545 498.750 C 562.380 502.979, 562.208 506.860, 560.084 509.140 C 557.112 512.330, 555.865 517.841, 556.207 526.268 L 556.500 533.500 562 533.194 C 565.638 532.992, 568.161 533.377, 569.454 534.330 C 571.364 535.739, 571.367 535.859, 569.580 539.822 C 568.304 542.653, 567.955 544.946, 568.422 547.436 C 569.079 550.936, 569.177 551, 573.910 551 C 577.216 551, 579.529 551.628, 581.273 553 C 582.671 554.100, 584.575 555, 585.503 555 C 586.432 555, 588.550 555.968, 590.211 557.150 L 593.231 559.301 598.366 556.576 C 609.744 550.538, 612.891 548.547, 613.406 547.058 C 615.367 541.392, 620.584 535.029, 625.983 531.719 C 629.674 529.457, 629.775 529.383, 634.402 525.568 C 635.998 524.252, 638.473 522.634, 639.902 521.971 C 641.331 521.309, 643.400 520.285, 644.500 519.696 C 647.393 518.148, 658.535 515.838, 665.500 515.343 C 668.800 515.109, 672.501 514.415, 673.725 513.803 C 677.198 512.064, 701.262 513.470, 704.515 515.602 C 707.768 517.733, 709.172 516.509, 706.013 514.296 C 698.351 508.930, 690.297 500.647, 688.456 496.240 C 686.638 491.891, 684.793 490.098, 679.716 487.750 C 675.470 485.786, 672.422 485.508, 671.500 487 C 670.164 489.162, 665.179 488.043, 662.822 485.051 L 660.500 482.103 655.055 483.886 C 652.061 484.866, 649.436 486.193, 649.222 486.834 C 648.642 488.573, 645.904 488.242, 644.392 486.250 C 643.661 485.288, 643.049 482.432, 643.032 479.905 C 642.999 475.097, 640.917 472, 637.718 472 C 635.133 472, 630.918 469.765, 627.999 466.845 C 624.213 463.059, 622.652 458.766, 623.426 454.272 C 625.333 443.212, 625.339 443.323, 622.842 442.654 C 619.135 441.662, 612.684 441.954, 610.512 443.213" stroke="#81244d" fill="#81244d" fill-opacity="0.2" fill-rule="evenodd"/><path class="svg-region-LBPCl" d="M 1025.144 286.327 C 1024.410 287.211, 1024.348 288.627, 1024.960 290.577 C 1025.464 292.184, 1026.402 295.525, 1027.044 298 C 1027.687 300.475, 1030.332 307.225, 1032.924 313 C 1036.552 321.085, 1038.080 323.500, 1039.568 323.500 C 1042.762 323.500, 1043.733 317.214, 1041.617 310.239 C 1039.150 302.108, 1034.184 292.149, 1030.674 288.292 C 1027.339 284.627, 1026.733 284.411, 1025.144 286.327" stroke="#daffff" fill="#daffff" fill-opacity="0.2" fill-rule="evenodd"/><path class="svg-region-LBPCr" d="M 723.138 264.667 C 721.743 271.612, 721.655 283.962, 722.975 287.435 C 724.194 290.641, 726.954 290.742, 729.826 287.686 C 731.799 285.585, 732 284.304, 732 273.801 C 732 262.606, 731.920 262.178, 729.535 260.615 C 725.391 257.899, 724.367 258.548, 723.138 264.667" stroke="#daffff" fill="#daffff" fill-opacity="0.2" fill-rule="evenodd"/><path class="svg-region-PNl" d="M 1071 49 C 1070.175 49.533, 1068.513 49.976, 1067.307 49.985 C 1065.156 50, 1060.848 52.200, 1054.110 56.724 C 1052.246 57.976, 1049.910 59, 1048.919 59 C 1044.822 59, 1033.380 71.051, 1029.948 78.980 C 1029.358 80.343, 1028.545 81.693, 1028.142 81.980 C 1027.739 82.266, 1025.709 86.352, 1023.631 91.059 L 1019.854 99.618 1020.389 115.059 C 1020.684 123.552, 1021.203 133.251, 1021.544 136.612 C 1022.114 142.229, 1021.882 143.285, 1018.684 149.634 C 1015.762 155.437, 1014.491 156.900, 1010.743 158.772 C 1008.289 159.997, 1005.569 161, 1004.699 161 C 1003.830 161, 1002.863 161.412, 1002.552 161.915 C 1001.851 163.050, 1006.736 169, 1008.369 169 C 1009.024 169, 1010.983 170.508, 1012.721 172.352 C 1014.930 174.693, 1017.724 176.220, 1021.993 177.418 C 1026.541 178.694, 1028.061 179.563, 1027.936 180.816 C 1027.548 184.742, 1026.351 185.259, 1043.473 174.108 C 1052.570 168.183, 1057.428 165.581, 1077 156.156 C 1083.390 153.078, 1091.895 149.701, 1103.250 145.731 L 1109 143.720 1109 139.472 C 1109 135.730, 1112.324 126.580, 1116.257 119.500 C 1119.783 113.151, 1120.483 110.806, 1120.838 104.146 C 1121.443 92.778, 1117.107 76.823, 1112.336 72.864 C 1111.452 72.130, 1109.612 69.762, 1108.248 67.602 C 1101.160 56.373, 1088.212 47.989, 1078 48.016 C 1074.975 48.024, 1071.825 48.467, 1071 49" stroke="#bbc0d1" fill="#bbc0d1" fill-opacity="0.2" fill-rule="evenodd"/><path class="svg-region-PNr" d="M 631.500 43.203 C 630.400 43.832, 628.912 45.168, 628.193 46.173 C 627.231 47.518, 625.588 48, 621.959 48 C 617.160 48, 616.837 48.195, 609.516 55.516 C 602.501 62.532, 602.002 63.314, 602.032 67.266 C 602.062 71.285, 602.573 72.007, 612.104 81.500 C 617.626 87, 625.234 95.775, 629.011 101 C 632.788 106.225, 639.103 113.650, 643.044 117.500 C 646.986 121.350, 652.751 127.024, 655.855 130.108 C 658.960 133.193, 663.975 137.521, 667 139.727 C 670.025 141.932, 675.187 146.567, 678.471 150.025 C 683.651 155.482, 685.700 156.826, 693.953 160.184 C 702.789 163.780, 715.620 166.714, 732.500 168.998 C 738.147 169.763, 746.393 171.435, 750.201 172.588 C 751.762 173.061, 751.737 172.506, 749.897 165.802 C 748.719 161.513, 747.069 157.864, 745.897 156.959 C 743.952 155.456, 744.099 152, 746.107 152 C 748.094 152, 746.816 148.023, 744.093 145.732 C 742.495 144.387, 740.279 141.534, 739.171 139.393 C 738.062 137.252, 734.889 132.843, 732.121 129.595 C 729.352 126.347, 725.955 121.397, 724.572 118.595 C 723.189 115.793, 720.015 111.025, 717.519 108 C 715.022 104.975, 710.049 98.225, 706.467 93 C 702.885 87.775, 697.296 79.630, 694.047 74.900 C 690.435 69.642, 687.044 65.831, 685.320 65.093 C 683.769 64.429, 680.745 61.669, 678.600 58.960 C 675.627 55.205, 673.845 53.883, 671.100 53.398 C 669.120 53.048, 666.150 51.495, 664.500 49.946 C 658.197 44.032, 637.466 39.795, 631.500 43.203" stroke="#bbc0d1" fill="#bbc0d1" fill-opacity="0.2" fill-rule="evenodd"/><path class="svg-region-ODMl" d="M 1107.731 352.510 C 1105.132 361.808, 1104.744 366.406, 1105.298 381.314 C 1105.772 394.056, 1105.596 397.968, 1104.418 400.914 C 1102.721 405.154, 1103.677 409.011, 1108.404 417 C 1113.458 425.540, 1119 437.401, 1119 439.677 C 1119 441.341, 1117.893 442.524, 1114.915 444.043 L 1110.831 446.127 1116.763 452.004 L 1122.695 457.881 1146.597 457.304 C 1159.744 456.987, 1170.581 456.670, 1170.681 456.599 C 1170.781 456.529, 1169.940 453.624, 1168.813 450.143 C 1167.176 445.088, 1166.989 443.321, 1167.882 441.359 C 1168.929 439.061, 1168.728 438.779, 1164.751 436.973 C 1162.413 435.912, 1159.974 435.034, 1159.331 435.022 C 1157.333 434.984, 1152.020 431.577, 1151.502 430 C 1151.231 429.175, 1148.082 425.431, 1144.505 421.681 C 1140.927 417.931, 1138 413.993, 1138 412.931 C 1138 411.869, 1137.550 411, 1137 411 C 1136.450 411, 1136 409.855, 1136 408.455 C 1136 407.055, 1133.753 402.580, 1131.008 398.511 C 1128.262 394.442, 1125.088 388.761, 1123.956 385.887 C 1122.823 383.013, 1120.966 378.600, 1119.830 376.081 C 1118.693 373.561, 1116.453 368.575, 1114.851 365 C 1108.172 350.095, 1108.329 350.370, 1107.731 352.510" stroke="#999999" fill="#999999" fill-opacity="0.2" fill-rule="evenodd"/><path class="svg-region-ODMr" d="M 652.452 364.816 C 651.929 365.193, 648.831 370.666, 645.569 376.979 C 642.306 383.293, 638.155 390.399, 636.344 392.772 C 632.041 398.410, 626.074 404, 624.360 404 C 623.612 404, 623 404.408, 623 404.908 C 623 405.407, 620.779 406.384, 618.065 407.080 C 614.199 408.071, 612.999 408.870, 612.522 410.768 C 612.188 412.101, 612.313 413.711, 612.802 414.346 C 614.869 417.033, 616.193 425.299, 615.856 433.415 C 615.500 441.998, 615.501 442, 618 442.014 C 619.375 442.021, 621.554 442.309, 622.842 442.654 C 625.339 443.323, 625.333 443.212, 623.426 454.272 C 623.034 456.548, 623.284 459.272, 624.058 461.139 C 626.069 465.995, 631.787 470.942, 636.206 471.649 C 641.017 472.418, 643 475.087, 643 480.794 C 643 485.227, 644.663 488, 647.322 488 C 648.127 488, 649.029 487.367, 649.325 486.594 C 649.622 485.821, 651.358 484.893, 653.182 484.532 C 655.007 484.171, 657.795 483.375, 659.377 482.763 L 662.254 481.652 661.517 472.076 C 661.112 466.809, 660.684 460.475, 660.567 458 C 660.450 455.525, 659.374 451.605, 658.177 449.290 C 656.980 446.974, 656 444.140, 656 442.992 C 656 441.843, 655.100 439.041, 654 436.764 C 651.584 431.764, 651.479 426.787, 653.593 417.500 C 654.469 413.650, 655.571 407.421, 656.042 403.658 C 656.513 399.894, 657.442 394.382, 658.108 391.408 C 659.059 387.161, 659.055 384.823, 658.091 380.517 C 657.416 377.501, 656.445 374.775, 655.932 374.458 C 655.419 374.141, 655 371.910, 655 369.500 C 655 365.065, 654.187 363.570, 652.452 364.816" stroke="#999999" fill="#999999" fill-opacity="0.2" fill-rule="evenodd"/><path class="svg-region-COl" d="M 1119.500 140.892 C 1103.650 144.004, 1068.343 158.817, 1049.500 170.260 C 1044 173.601, 1038.600 177.106, 1037.500 178.050 C 1036.400 178.994, 1033.988 180.531, 1032.140 181.466 L 1028.779 183.165 1032.640 185.815 C 1034.763 187.272, 1037.625 188.498, 1039 188.539 C 1040.375 188.579, 1042.993 188.968, 1044.819 189.401 C 1047.694 190.084, 1048.211 189.909, 1048.686 188.094 C 1048.992 186.923, 1052.382 183.951, 1056.367 181.360 C 1060.290 178.809, 1066.638 174.647, 1070.474 172.111 C 1077.501 167.464, 1083.729 164.097, 1085.410 164.034 C 1085.910 164.015, 1090.635 161.931, 1095.910 159.401 C 1111.386 151.981, 1113.939 151.143, 1123.495 150.355 C 1130.209 149.802, 1150.487 152.094, 1155.401 153.962 C 1156.597 154.417, 1159.011 154.274, 1161.001 153.631 C 1163.636 152.779, 1164.573 151.870, 1164.797 149.948 C 1165.209 146.415, 1162.339 144.140, 1155.346 142.458 C 1148.412 140.789, 1125.189 139.775, 1119.500 140.892" stroke="#906d99" fill="#906d99" fill-opacity="0.2" fill-rule="evenodd"/><path class="svg-region-COr" d="M 627.187 133.545 C 623.641 136.085, 622.751 139.468, 624.517 143.695 C 626.342 148.064, 628.619 149.926, 632.187 149.968 C 635.009 150.002, 648.035 153.005, 654 154.997 C 667.402 159.474, 677.939 168.029, 689.272 183.635 C 692.836 188.542, 693.256 188.800, 698.751 189.448 C 701.913 189.821, 708.325 191.054, 713 192.188 C 717.675 193.321, 725.550 194.610, 730.500 195.052 C 751.346 196.914, 753 197.545, 753 203.634 C 753 206.858, 753.483 208.188, 754.934 208.965 C 757.521 210.349, 768.035 210.278, 775.054 208.828 C 780.266 207.751, 781.077 207.838, 785.025 209.896 C 787.650 211.264, 790.216 211.912, 791.618 211.560 C 794.882 210.740, 801 206.988, 801 205.806 C 801 203.365, 797.471 199.211, 794.480 198.129 C 792.679 197.478, 789.523 195.607, 787.465 193.972 C 785.250 192.212, 782.537 191, 780.811 191 C 778.438 191, 777.632 190.364, 776.463 187.567 C 774.811 183.612, 771.556 181, 768.280 181 C 765.640 181, 753 175.246, 753 174.045 C 753 173.127, 737.833 169.416, 731 168.662 C 708.969 166.231, 686.540 158.972, 680.805 152.417 C 676.406 147.390, 670.335 141.785, 667.663 140.286 C 664.940 138.758, 657.152 136.483, 650 135.125 C 639.085 133.054, 637.439 132.776, 633.500 132.335 C 630.785 132.032, 628.757 132.420, 627.187 133.545" stroke="#906d99" fill="#906d99" fill-opacity="0.2" fill-rule="evenodd"/><path class="svg-region-HRl" d="M 1130.381 221.909 C 1128.665 222.955, 1124.390 225.913, 1120.881 228.481 C 1117.371 231.050, 1113.406 233.905, 1112.070 234.826 C 1110.733 235.747, 1106.646 239.258, 1102.988 242.629 C 1099.330 246, 1095.391 249.058, 1094.236 249.425 C 1093.081 249.792, 1090.868 252.157, 1089.318 254.681 C 1087.768 257.205, 1085.825 260.268, 1085 261.486 C 1084.175 262.705, 1082.616 265.006, 1081.536 266.601 C 1080.456 268.195, 1077.756 271.566, 1075.536 274.092 C 1073.316 276.617, 1069.808 281.567, 1067.741 285.092 C 1063.857 291.714, 1056.375 299.481, 1049.317 304.219 C 1045.810 306.574, 1045.342 307.312, 1045.833 309.719 C 1046.168 311.358, 1046.542 311.841, 1046.746 310.895 C 1047.111 309.194, 1048.290 308.512, 1056.888 305.016 C 1061.479 303.150, 1063.785 302.876, 1072.481 303.163 C 1081.939 303.475, 1083.063 303.735, 1087.843 306.709 L 1093 309.917 1093 299.987 L 1093 290.058 1097.500 282.446 C 1099.975 278.260, 1102 274.510, 1102 274.114 C 1102 273.186, 1107.456 267.924, 1112.164 264.311 C 1122.474 256.400, 1134.995 245.795, 1137.399 242.937 C 1140.779 238.920, 1145 230.703, 1145 228.139 C 1145 227.079, 1143.694 224.814, 1142.099 223.106 C 1138.689 219.456, 1135.019 219.081, 1130.381 221.909 M 1017.058 326.926 C 1014.940 329.600, 1011.243 332.199, 1005.464 335.075 C 997.846 338.867, 989 346.221, 989 348.762 C 989 349.206, 990.310 350.342, 991.910 351.288 C 993.511 352.234, 996.075 354.990, 997.608 357.413 C 1000.210 361.525, 1005.198 365, 1008.500 365 C 1009.780 365, 1013.032 366.242, 1019.680 369.270 C 1021.581 370.136, 1022.886 369.331, 1029.889 362.978 C 1040.248 353.578, 1042.823 348.334, 1039.851 342.684 C 1038.003 339.170, 1022.908 323, 1021.476 323 C 1020.757 323, 1018.769 324.767, 1017.058 326.926" stroke="#d9dba1" fill="#d9dba1" fill-opacity="0.2" fill-rule="evenodd"/><path class="svg-region-HRr" d="M 589.667 199.667 C 589.300 200.033, 589 201.614, 589 203.179 C 589 205.529, 589.941 206.627, 594.407 209.484 C 597.381 211.386, 599.969 213.354, 600.157 213.857 C 600.911 215.868, 625.409 235.237, 633.160 239.951 C 634.835 240.970, 643.174 248.669, 651.690 257.060 C 663.352 268.549, 667.743 273.573, 669.472 277.408 C 672.762 284.703, 673.773 287.885, 674.474 293.150 L 675.093 297.801 678.093 296.304 C 682.210 294.250, 684.598 295.108, 691 300.940 C 696.037 305.529, 701 307.544, 701 305 C 701 304.450, 700.541 304, 699.980 304 C 698.465 304, 689.944 290.396, 688.807 286.163 C 688.267 284.148, 686.179 279.575, 684.169 276 C 678.901 266.631, 675 257.244, 675 253.936 C 675 252.021, 674.282 250.686, 672.835 249.912 C 669.830 248.304, 661.598 242.141, 647.500 230.945 C 621.949 210.654, 593.867 195.466, 589.667 199.667 M 736.631 335.782 C 733.628 340.721, 732.228 346.779, 731.382 358.500 C 730.950 364.479, 731.213 366.147, 733.188 369.937 C 736.597 376.478, 737.670 376.820, 746.200 374.087 C 763.460 368.557, 773.697 359.916, 775.633 349.241 C 776.411 344.947, 772.658 342, 766.408 342 C 762.809 342, 759.603 341.216, 756.187 339.500 C 753.449 338.125, 750.509 337, 749.652 337 C 746.937 337, 743.060 334.765, 742.452 332.848 C 741.499 329.845, 739.685 330.759, 736.631 335.782" stroke="#d9dba1" fill="#d9dba1" fill-opacity="0.2" fill-rule="evenodd"/>
    </svg>