<svg xmlns="http://www.w3.org/2000/svg" width="1785" height="1131" viewBox="0 0 1785 1131" version="1.1">
    <path class="svg-region-AAB" d="M 739.158 477 C 737.577 479.139, 736.104 480, 734.027 480 C 730.220 480, 712.209 485.996, 704.234 489.918 C 697.208 493.374, 694.247 493.696, 689.950 491.474 C 687.006 489.952, 687 489.954, 687 492.893 C 687 497.432, 687.975 499, 690.799 499 C 692.535 499, 694.634 500.341, 697.192 503.084 C 699.286 505.330, 701 507.520, 701 507.951 C 701 508.382, 702.688 509.862, 704.750 511.240 C 706.813 512.619, 710.165 515.378, 712.200 517.373 C 714.236 519.368, 716.373 521, 716.950 521 C 717.528 521, 718 521.352, 718 521.781 C 718 522.211, 721.487 525.324, 725.750 528.700 C 730.013 532.076, 734.408 535.662, 735.517 536.669 C 741.349 541.965, 748.648 545.475, 746.457 541.931 C 746.141 541.419, 746.769 541, 747.853 541 C 750.326 541, 756.992 531.456, 759.328 524.572 C 760.410 521.383, 761 516.414, 761 510.490 L 761 501.337 755.976 498.081 C 750.798 494.726, 747.865 490.375, 746.489 484.004 C 745.623 480.001, 742.933 474, 742.003 474 C 741.658 474, 740.378 475.350, 739.158 477 M 1004.608 481.150 C 1002.485 485.885, 1000.934 487.529, 997.500 488.685 C 994.227 489.787, 993.827 491.854, 995.793 497.500 C 1000.011 509.614, 1000.708 517.293, 998.067 522.581 C 996.034 526.650, 995.928 527.990, 996.344 544.209 C 996.777 561.086, 997.842 567.048, 1000.411 566.965 C 1001.949 566.915, 1012.733 564.396, 1017.500 562.973 C 1025.259 560.657, 1037.233 550.904, 1045.084 540.505 C 1047.338 537.520, 1050.050 534.801, 1051.112 534.465 C 1052.173 534.128, 1054.210 531.523, 1055.639 528.676 C 1057.067 525.829, 1059.788 521.587, 1061.685 519.250 C 1063.975 516.428, 1064.936 514.373, 1064.544 513.137 C 1064.123 511.811, 1065.069 510.267, 1067.835 507.768 C 1069.970 505.839, 1072.118 504.090, 1072.608 503.881 C 1074.055 503.263, 1081 495.083, 1081 493.997 C 1081 493.423, 1077.819 493, 1073.500 493 L 1066 493 1066 489.956 C 1066 488.079, 1065.521 486.991, 1064.750 487.117 C 1064.063 487.229, 1062.150 486.751, 1060.500 486.054 C 1058.850 485.358, 1052.970 484.665, 1047.433 484.514 C 1040.309 484.321, 1036.394 483.738, 1034.043 482.522 C 1032.215 481.577, 1027.070 480.390, 1022.610 479.883 C 1018.149 479.377, 1012.612 478.702, 1010.305 478.382 C 1006.298 477.826, 1006.043 477.950, 1004.608 481.150" stroke="#7f3c1a" fill="#7f3c1a" fill-opacity="0.2" fill-rule="evenodd"/><path class="svg-region-PC" d="M 777.421 448.232 C 775.814 449.546, 771.247 452.604, 767.272 455.027 C 759.598 459.705, 757 463.514, 757 470.086 C 757 474.416, 758.185 476.144, 764.340 480.792 C 767.331 483.050, 771.827 486.917, 774.331 489.386 C 778.473 493.469, 783.808 496.036, 788 495.963 C 790.003 495.928, 791.888 494.324, 795.765 489.356 L 799 485.212 799 469.280 C 799 454.009, 798.907 453.267, 796.750 451.379 C 794.352 449.280, 789.750 447.523, 783.921 446.481 C 781.037 445.966, 779.774 446.306, 777.421 448.232 M 979 452.917 C 978.175 453.356, 975.925 454.537, 974 455.541 C 970.443 457.395, 969.629 458.256, 964.750 465.320 C 962.366 468.771, 962 470.271, 962 476.585 C 962 491.119, 964.264 492.965, 984.157 494.651 C 990.290 495.171, 990.907 495.042, 991.993 493.014 C 992.641 491.803, 995.104 489.957, 997.467 488.912 C 1003.828 486.098, 1005 483.659, 1005 473.231 C 1005 464.557, 1004.940 464.335, 1001.750 461.317 C 999.962 459.625, 996.204 457.498, 993.399 456.590 C 990.593 455.681, 987.443 454.291, 986.399 453.501 C 984.308 451.919, 981.317 451.682, 979 452.917" stroke="#cda789" fill="#cda789" fill-opacity="0.2" fill-rule="evenodd"/><path class="svg-region-IBl" d="M 1042.750 417.882 C 1041.237 419.334, 1040 421.079, 1040 421.761 C 1040 422.442, 1039.639 423, 1039.197 423 C 1037.940 423, 1019.545 437.928, 1019.127 439.287 C 1018.922 439.954, 1017.496 441.850, 1015.957 443.500 C 1014.418 445.150, 1011.323 450.067, 1009.080 454.426 C 1005.298 461.773, 1005 462.942, 1005 470.426 L 1005 478.500 1009.250 478.632 C 1017.707 478.896, 1030.324 480.926, 1033.822 482.586 C 1036.268 483.747, 1040.640 484.382, 1047.668 484.600 C 1054.579 484.813, 1058.949 485.439, 1061.025 486.513 C 1064.036 488.070, 1064.196 488.035, 1067.543 485.097 C 1069.430 483.440, 1072.885 481.570, 1075.220 480.941 C 1077.556 480.312, 1080.893 478.545, 1082.637 477.014 C 1084.380 475.484, 1086.369 474.044, 1087.056 473.815 C 1088.008 473.497, 1087.929 472.812, 1086.727 470.949 C 1085.859 469.602, 1084.845 466.844, 1084.476 464.819 C 1084.106 462.795, 1083.174 460.897, 1082.404 460.602 C 1081.634 460.306, 1079.889 457.688, 1078.525 454.782 C 1076.538 450.547, 1075.992 447.636, 1075.773 440.100 L 1075.500 430.700 1070.456 429.058 C 1067.682 428.155, 1063.857 426.268, 1061.956 424.864 C 1060.055 423.460, 1055.575 420.722, 1052 418.777 L 1045.500 415.243 1042.750 417.882" stroke="#b10e0e" fill="#b10e0e" fill-opacity="0.2" fill-rule="evenodd"/><path class="svg-region-IBr" d="M 723.881 413.652 C 719.293 418.426, 715.959 420, 710.433 420 C 705.974 420, 705.464 420.310, 698.932 427 C 695.172 430.850, 691.512 434, 690.798 434 C 688.774 434, 684.372 440.139, 682.552 445.498 C 680.229 452.341, 678.170 455.766, 672.934 461.500 C 665.792 469.320, 664.518 471.646, 665.815 474.493 C 666.419 475.819, 668.395 477.635, 670.207 478.528 C 672.018 479.422, 674.879 481.729, 676.565 483.654 C 679.663 487.193, 688.881 491.834, 694.534 492.703 C 696.637 493.025, 699.861 492.095, 705.034 489.673 C 714.044 485.454, 730.351 480, 733.953 480 C 735.643 480, 737.735 478.754, 739.900 476.459 C 743.535 472.605, 748.714 469.629, 753.635 468.568 C 756.184 468.018, 757.085 467.066, 758.458 463.470 L 760.147 459.049 757.077 455.774 C 755.378 453.962, 753.043 449.607, 751.846 446.019 C 750.656 442.455, 748.713 438.775, 747.526 437.842 C 746.340 436.909, 744.536 434.200, 743.517 431.823 C 740.778 425.430, 733.446 414.706, 730.147 412.267 L 727.262 410.134 723.881 413.652" stroke="#b10e0e" fill="#b10e0e" fill-opacity="0.2" fill-rule="evenodd"/><path class="svg-region-MB" d="M 950.258 339.660 C 949.416 340, 949.311 340.712, 949.931 341.872 C 951.023 343.911, 949.394 352.566, 947.372 355.473 C 946.519 356.699, 946 360.167, 946 364.636 C 946 370.512, 946.522 372.896, 948.851 377.664 C 950.419 380.874, 952.556 385.407, 953.601 387.739 C 954.645 390.070, 955.837 391.982, 956.250 391.989 C 956.663 391.995, 957 392.906, 957 394.014 C 957 396.916, 958.862 399.842, 964.218 405.361 C 966.812 408.034, 969.228 411.184, 969.586 412.361 C 969.944 413.537, 970.807 415.175, 971.505 416 C 973.475 418.331, 979 429.122, 979 430.641 C 979 431.388, 979.450 432, 980 432 C 980.550 432, 981 432.800, 981 433.777 C 981 434.755, 981.758 436.637, 982.685 437.960 C 983.631 439.311, 984.617 443.239, 984.935 446.919 L 985.500 453.472 992.500 456.248 C 996.350 457.775, 1000.488 460.140, 1001.696 461.505 C 1004.202 464.336, 1003.737 464.795, 1009.297 454 C 1011.421 449.875, 1014.473 445.129, 1016.080 443.452 C 1017.686 441.776, 1019 439.967, 1019 439.433 C 1019 438.898, 1021.287 436.669, 1024.083 434.480 C 1026.879 432.291, 1030.038 429.764, 1031.104 428.865 C 1032.170 427.965, 1034.604 426.165, 1036.514 424.865 C 1038.424 423.564, 1039.989 421.970, 1039.993 421.323 C 1039.997 420.675, 1041.125 419.260, 1042.500 418.179 C 1045.011 416.204, 1045.764 413.590, 1044.116 412.571 C 1043.629 412.271, 1042.661 409.005, 1041.965 405.314 C 1041.269 401.624, 1039.831 397.133, 1038.771 395.336 C 1036.791 391.981, 1032.122 389, 1028.846 389 C 1027.831 389, 1027 388.590, 1027 388.088 C 1027 387.165, 1024.176 386.609, 1013.740 385.478 C 1009.676 385.037, 1007.099 384.113, 1004.990 382.338 C 1003.345 380.954, 1002 380.166, 1002 380.585 C 1002 381.984, 996.833 376.545, 995.269 373.500 C 992.278 367.679, 980.629 355.001, 978.266 354.996 C 974.606 354.989, 970.133 351.228, 969.450 347.583 C 968.615 343.132, 967.707 342.419, 960.483 340.537 C 954.420 338.958, 952.419 338.787, 950.258 339.660 M 797.348 354.882 C 793.863 355.565, 785 365.312, 785 368.460 C 785 371.098, 774.881 380.694, 769.805 382.869 C 767.356 383.919, 762.686 385.315, 759.427 385.972 C 756.167 386.629, 750.125 388.016, 746 389.053 C 741.875 390.091, 737.271 391.185, 735.768 391.485 C 732.303 392.175, 730.082 396.349, 728.962 404.270 L 728.114 410.271 732.341 414.498 C 734.665 416.823, 738.577 422.664, 741.034 427.478 C 743.490 432.292, 746.462 436.991, 747.638 437.921 C 748.813 438.850, 750.594 442.286, 751.594 445.555 C 754.320 454.464, 760.161 460.647, 763.305 457.952 C 763.962 457.388, 767.306 455.135, 770.735 452.946 C 774.164 450.756, 778.521 447.413, 780.417 445.516 C 783.524 442.410, 788.756 432.916, 790.422 427.363 C 790.774 426.188, 793.211 421.688, 795.837 417.363 C 802.543 406.320, 813.660 383.413, 815.062 377.750 C 815.708 375.137, 816.606 373, 817.056 373 C 818.635 373, 815.412 355.967, 813.605 354.765 C 812.317 353.909, 801.928 353.983, 797.348 354.882" stroke="#f9c6c6" fill="#f9c6c6" fill-opacity="0.2" fill-rule="evenodd"/><path class="svg-region-AP" d="M 956.231 481.948 C 952.495 484.654, 951.438 484.904, 943.331 484.999 C 938.474 485.056, 933.487 484.803, 932.250 484.435 C 931.013 484.067, 930 484.065, 930 484.429 C 930 485.799, 939.428 502.771, 943.926 509.500 C 946.500 513.350, 949.688 518.750, 951.010 521.500 C 952.332 524.250, 954.783 528.461, 956.457 530.857 C 958.131 533.254, 960.175 536.248, 961 537.512 C 961.825 538.776, 963.539 541.090, 964.810 542.655 C 966.080 544.220, 969.354 548.762, 972.085 552.748 C 976.220 558.786, 978.042 560.497, 982.996 562.998 C 987.254 565.148, 990.371 566, 993.971 566 C 999.405 566, 999.545 565.887, 997.907 562.826 C 997.306 561.703, 996.615 553.822, 996.371 545.314 C 995.943 530.361, 995.828 529.665, 992.931 524.531 C 990.203 519.698, 985.005 505.861, 983.182 498.581 C 982.355 495.280, 978.060 493.205, 971.789 493.076 C 966.383 492.965, 962 487.753, 962 481.435 C 962 478.294, 961.173 478.367, 956.231 481.948 M 792.946 492.569 C 789.790 495.838, 789.153 496.087, 785.383 495.528 C 781.391 494.936, 781.247 495.013, 780.636 498.072 C 780.289 499.807, 777.820 504.007, 775.149 507.405 C 770.193 513.711, 767.619 517.714, 767.370 519.500 C 767.293 520.050, 767.179 521.111, 767.115 521.857 C 767.049 522.638, 766.360 522.968, 765.491 522.635 C 762.903 521.642, 759.292 523.702, 758.568 526.586 C 757.545 530.660, 750.214 540.419, 747.697 541.057 C 745.588 541.592, 745.638 541.741, 748.941 544.778 C 753.561 549.025, 759.840 551, 768.728 551 C 777.051 551, 780.264 549.744, 784.602 544.796 C 787.504 541.485, 797.666 526.890, 801.584 520.405 C 802.730 518.508, 804.815 515.728, 806.216 514.228 C 807.617 512.728, 810.656 508.015, 812.969 503.755 C 815.283 499.495, 817.586 495.756, 818.088 495.446 C 820.284 494.089, 818.544 493.497, 812.250 493.463 C 807.271 493.436, 804.395 492.845, 801.290 491.213 C 798.974 489.996, 796.925 489, 796.736 489 C 796.547 489, 794.842 490.606, 792.946 492.569" stroke="#fc7143" fill="#fc7143" fill-opacity="0.2" fill-rule="evenodd"/><path class="svg-region-PP" d="M 794.250 324.706 C 791.384 325.258, 791.422 326.688, 794.500 334 C 795.875 337.267, 797 340.802, 797 341.855 C 797 342.908, 797.743 346.072, 798.652 348.885 L 800.304 354 806.402 354.015 C 809.756 354.024, 812.998 354.361, 813.606 354.765 C 814.214 355.169, 815.314 358.562, 816.050 362.305 C 817.241 368.361, 817.195 369.848, 815.631 375.805 C 813.856 382.564, 802.670 406.461, 798.233 412.975 C 796.912 414.914, 794.022 420.230, 791.811 424.790 C 788.080 432.481, 787.882 433.311, 789.060 436.290 C 789.758 438.055, 790.930 440.210, 791.665 441.079 C 792.399 441.947, 793 443.889, 793 445.393 C 793 447.205, 794.013 448.981, 796 450.653 L 799 453.178 799 469.030 C 799 478.519, 798.599 485.130, 798 485.500 C 793.666 488.178, 802.619 493.368, 811.709 493.446 C 817.837 493.499, 817.985 493.434, 822.959 488.538 C 825.732 485.808, 828 483.058, 828 482.427 C 828 481.403, 837.176 466.784, 845.076 455.221 C 846.684 452.867, 848 450.700, 848 450.404 C 848 450.108, 849.086 448.434, 850.413 446.683 C 853.686 442.366, 862.993 426.127, 863.028 424.671 C 863.063 423.233, 869.559 413.162, 874.548 406.809 C 877.789 402.682, 883.047 399, 885.697 399 C 886.733 399, 898.657 410.530, 901.250 414.039 C 902.212 415.341, 903.020 417.553, 903.044 418.953 C 903.100 422.180, 905.180 429.828, 906.778 432.684 C 907.450 433.886, 908 435.743, 908 436.812 C 908 437.881, 908.675 439.315, 909.500 440 C 910.325 440.685, 911 441.770, 911 442.411 C 911 443.052, 911.930 445.360, 913.067 447.539 C 914.204 449.717, 915.292 452.232, 915.486 453.127 C 915.679 454.021, 916.774 456.809, 917.919 459.322 C 919.063 461.834, 920 464.394, 920 465.010 C 920 467.691, 929.296 483.554, 931.328 484.340 C 932.523 484.802, 937.638 485.122, 942.696 485.051 C 951.235 484.931, 952.248 484.692, 956.888 481.711 C 961.669 478.638, 961.886 478.302, 961.942 473.900 C 961.998 469.497, 963.447 466.523, 969 459.419 C 970.809 457.104, 976.196 454, 978.404 454 C 979.282 454, 980 453.550, 980 453 C 980 452.450, 981.125 452, 982.500 452 C 984.850 452, 985 451.685, 984.993 446.750 C 984.989 443.194, 984.346 440.532, 983 438.500 C 981.907 436.850, 981.010 434.712, 981.007 433.750 C 981.003 432.788, 980.550 432, 980 432 C 979.450 432, 979 430.875, 979 429.500 C 979 428.125, 978.580 427, 978.067 427 C 977.554 427, 976.819 425.988, 976.434 424.750 C 975.260 420.984, 968.254 409.685, 965.117 406.500 C 961.014 402.334, 957 396.083, 957 393.860 C 957 392.837, 956.550 392, 956 392 C 955.450 392, 955 391.100, 955 390 C 955 388.900, 954.559 388, 954.019 388 C 953.480 388, 952.730 386.762, 952.353 385.250 C 951.976 383.738, 950.392 380.037, 948.834 377.028 C 945.289 370.181, 944.880 360.301, 947.892 354.281 C 951.086 347.898, 951.257 343.459, 948.437 340.107 C 947.097 338.515, 946 336.954, 946 336.639 C 946 335.479, 938.874 328.986, 935.931 327.464 C 932.639 325.762, 927.393 326.084, 918.846 328.513 C 916.286 329.240, 912.461 329.621, 910.346 329.359 C 907.606 329.020, 905.493 329.475, 903 330.942 C 892.160 337.320, 888.999 338.224, 879.500 337.664 C 871.121 337.170, 866.409 336.187, 861.500 333.906 C 858.573 332.547, 849.694 330.106, 840 327.996 C 835.325 326.978, 830.233 325.663, 828.685 325.073 C 826.005 324.052, 799.134 323.765, 794.250 324.706" stroke="#c4743d" fill="#c4743d" fill-opacity="0.2" fill-rule="evenodd"/><path class="svg-region-LPl" d="M 991.362 493.500 C 990.988 494.472, 989.438 495, 986.952 495 C 984.843 495, 982.911 495.337, 982.659 495.750 C 981.943 496.919, 989.345 518.025, 992.510 523.842 C 995.250 528.876, 996.943 529.266, 996.985 524.872 C 996.993 523.977, 997.711 522.655, 998.579 521.934 C 1000.446 520.385, 1000.119 513.085, 997.755 503.500 C 995.307 493.575, 992.823 489.691, 991.362 493.500" stroke="#d2454f" fill="#d2454f" fill-opacity="0.2" fill-rule="evenodd"/><path class="svg-region-LPr" d="M 786.040 437.379 C 785.427 439.238, 784.042 441.557, 782.962 442.534 C 780.114 445.112, 780.511 445.898, 785.022 446.620 C 787.234 446.973, 789.286 447.654, 789.581 448.131 C 789.876 448.609, 790.766 449, 791.559 449 C 793.487 449, 793.492 442.653, 791.564 441.053 C 790.775 440.398, 789.839 438.543, 789.485 436.931 C 788.636 433.064, 787.411 433.224, 786.040 437.379 M 749.280 469.826 C 742.911 472.414, 742.375 473.266, 744.319 477.717 C 745.228 479.798, 746.382 483.422, 746.884 485.770 C 748.092 491.421, 749.871 493.958, 755.129 497.527 C 757.533 499.159, 759.852 500.946, 760.283 501.497 C 760.714 502.049, 760.939 507.113, 760.783 512.751 C 760.627 518.389, 760.879 523.002, 761.342 523.001 C 762.941 522.999, 767.506 518.850, 769.500 515.587 C 770.600 513.787, 773.638 509.454, 776.250 505.957 C 781.469 498.972, 782.436 494.591, 778.999 493.500 C 777.898 493.150, 776.544 492.016, 775.988 490.978 C 775.433 489.941, 771.207 486.147, 766.597 482.547 C 757.985 475.822, 757 474.578, 757 470.418 C 757 467.515, 755.291 467.384, 749.280 469.826" stroke="#d2454f" fill="#d2454f" fill-opacity="0.2" fill-rule="evenodd"/><path class="svg-region-DMl" d="M 1082.468 307.290 C 1079.700 308.506, 1076.089 310.471, 1074.443 311.658 C 1072.797 312.844, 1068.987 314.273, 1065.975 314.831 C 1062.964 315.390, 1058.325 316.782, 1055.667 317.924 C 1053.009 319.066, 1049.836 320, 1048.617 320 C 1047.398 320, 1045.972 320.404, 1045.450 320.898 C 1044.020 322.248, 1037.523 322.748, 1015.419 323.206 C 996.525 323.597, 995.077 323.764, 990.919 326.024 C 987.323 327.979, 985.009 328.434, 978.500 328.464 C 969.659 328.504, 968 329.101, 968 332.245 C 968 333.414, 967.042 335.391, 965.871 336.638 L 963.741 338.904 966.286 341.928 C 967.686 343.591, 969.133 346.328, 969.502 348.010 C 970.272 351.513, 972.442 353.163, 979.500 355.607 C 987.086 358.233, 998.353 357.644, 1008.945 354.067 C 1022.953 349.337, 1023.590 349.303, 1025.581 353.184 C 1026.516 355.008, 1028.301 357.722, 1029.547 359.215 C 1030.793 360.709, 1032.120 363.859, 1032.496 366.215 C 1032.871 368.572, 1033.855 372.525, 1034.682 375 C 1035.509 377.475, 1036.604 382.425, 1037.115 386 C 1037.627 389.575, 1038.690 394.300, 1039.478 396.500 C 1040.265 398.700, 1041.401 402.975, 1042.001 406 C 1042.601 409.025, 1043.858 412.400, 1044.796 413.500 C 1046.486 415.483, 1054.403 421, 1055.559 421 C 1055.890 421, 1058.539 422.578, 1061.444 424.507 C 1064.350 426.436, 1068.701 428.613, 1071.114 429.345 C 1073.526 430.077, 1078.059 432.320, 1081.187 434.329 C 1087.507 438.387, 1093.259 440.713, 1106.265 444.469 C 1117.249 447.641, 1117.299 447.639, 1116.539 444.177 C 1116.140 442.359, 1116.645 439.661, 1117.960 436.594 C 1120.719 430.156, 1120.575 426.078, 1117.483 423.145 C 1115.821 421.569, 1115 419.704, 1115 417.506 C 1115 415.699, 1113.949 410.176, 1112.665 405.233 C 1110.387 396.459, 1110.374 396.161, 1112.127 392.744 C 1113.115 390.819, 1114.615 388.978, 1115.461 388.653 C 1117.513 387.866, 1117.445 382.753, 1115.330 378.700 C 1113.099 374.427, 1109.494 364.402, 1106.448 354 C 1105.079 349.325, 1103.544 344.600, 1103.037 343.500 C 1101.656 340.500, 1100.073 332.836, 1098.132 319.753 C 1095.828 304.220, 1093.563 302.418, 1082.468 307.290" stroke="#68533d" fill="#68533d" fill-opacity="0.2" fill-rule="evenodd"/><path class="svg-region-DMr" d="M 674.458 312.489 C 674.035 315.872, 673.228 318.082, 672.284 318.445 C 671.188 318.865, 670.943 319.898, 671.378 322.261 C 671.706 324.042, 671.310 327.975, 670.499 331 C 668.641 337.928, 668.635 338.865, 670.467 336.441 C 671.274 335.374, 672.463 331.883, 673.110 328.684 C 673.757 325.485, 675.009 321.977, 675.893 320.888 C 677.293 319.163, 677.740 319.084, 679.368 320.277 C 680.855 321.367, 681.407 323.667, 682.078 331.573 C 682.541 337.033, 683.406 346, 684 351.500 C 685.223 362.833, 684.884 365.133, 681.294 369.852 C 679.891 371.695, 678.166 375.070, 677.461 377.352 C 674.017 388.495, 670.318 394.269, 664.816 397.087 C 661.086 398.997, 648 414.181, 648 416.599 C 648 418.183, 651.868 421, 654.042 421 C 654.921 421, 657.111 422.313, 658.909 423.918 C 664.001 428.465, 673.212 428.912, 683.241 425.099 C 686.731 423.772, 708.192 420, 712.253 420 C 719.288 420, 729 410.727, 729 404.008 C 729 401.990, 730.063 398.239, 731.362 395.673 C 732.661 393.107, 733.539 389.993, 733.313 388.754 C 732.798 385.928, 741.197 374.021, 746.001 370.766 C 750.232 367.900, 750.527 366.914, 748.023 364.027 C 745.132 360.693, 745.437 359.516, 750.637 353.957 C 754.888 349.412, 758 347.689, 758 349.879 C 758 350.363, 759.800 352.613, 761.999 354.879 C 765.780 358.776, 766.314 359, 771.811 359 C 775.578 359, 779.082 358.296, 781.764 357 C 784.721 355.571, 787.950 355, 793.068 355 C 800.005 355, 800.215 354.928, 799.649 352.750 C 799.328 351.512, 798.551 348.025, 797.923 345 C 796.535 338.314, 793.254 330.245, 790.765 327.397 C 789.275 325.692, 787.282 325.163, 780.214 324.597 C 770.910 323.853, 760.608 321.941, 759.401 320.734 C 758.997 320.330, 756.807 320, 754.533 320 C 752.260 320, 749.887 319.487, 749.259 318.859 C 748.411 318.011, 745.942 317.999, 739.640 318.813 C 733.990 319.542, 730.051 319.581, 727.831 318.930 C 725.999 318.393, 720.450 317.749, 715.500 317.499 C 704.692 316.953, 700.109 315.926, 696.269 313.191 C 692.197 310.292, 686.356 308.260, 680.315 307.641 L 675.130 307.110 674.458 312.489" stroke="#68533d" fill="#68533d" fill-opacity="0.2" fill-rule="evenodd"/><path class="svg-region-PMl" d="M 1062 297.518 C 1057.550 299.259, 1053.753 299.348, 1052.130 297.750 C 1051.112 296.747, 1050.381 297.054, 1048.430 299.306 C 1047.094 300.849, 1046 302.761, 1046 303.556 C 1046 305.452, 1044.373 305.414, 1043.638 303.500 C 1042.761 301.214, 1041.002 301.712, 1040.987 304.250 C 1040.979 305.488, 1039.703 310.149, 1038.150 314.609 L 1035.328 322.717 1039.914 322.237 C 1042.436 321.973, 1044.928 321.361, 1045.450 320.878 C 1045.972 320.395, 1047.449 320, 1048.730 320 C 1050.012 320, 1053.634 318.935, 1056.780 317.633 C 1059.926 316.331, 1064.478 314.965, 1066.895 314.598 C 1072.878 313.689, 1076.630 310.757, 1079.546 304.712 C 1082.974 297.607, 1082.825 297.121, 1077.250 297.242 C 1074.638 297.298, 1070.925 297.075, 1069 296.746 C 1066.967 296.399, 1064.033 296.722, 1062 297.518" stroke="#90cf92" fill="#90cf92" fill-opacity="0.2" fill-rule="evenodd"/><path class="svg-region-PMr" d="M 699.337 289.285 C 698.147 289.953, 695.447 292.075, 693.337 294 C 688.365 298.535, 681.978 301.583, 680.946 299.912 C 679.386 297.389, 677 299.843, 677 303.969 C 677 307.979, 677.020 308, 680.851 308 C 685.765 308, 690.428 309.584, 695.591 313.006 C 700.403 316.196, 704.759 317.212, 715.051 317.549 C 719.204 317.685, 724.368 318.284, 726.528 318.880 C 728.687 319.476, 732.850 319.682, 735.779 319.338 C 740.167 318.823, 740.982 318.430, 740.411 317.106 C 740.030 316.223, 739.156 313.475, 738.469 311 C 736.472 303.812, 733.101 294.701, 732.048 293.648 C 731.516 293.116, 729.824 292.603, 728.290 292.510 C 726.755 292.416, 720.839 291.363, 715.142 290.170 C 703.278 287.685, 702.287 287.629, 699.337 289.285" stroke="#90cf92" fill="#90cf92" fill-opacity="0.2" fill-rule="evenodd"/><path class="svg-region-PV" d="M 753 153.691 C 753 154.346, 753.450 155.160, 754 155.500 C 754.550 155.840, 755.003 156.879, 755.006 157.809 C 755.010 158.739, 756.247 160.275, 757.756 161.221 C 759.265 162.168, 761.379 163.518, 762.453 164.221 C 766.778 167.053, 777.400 178.601, 781.430 184.854 C 783.787 188.509, 786.700 192.376, 787.904 193.448 C 789.109 194.519, 791.056 197.106, 792.231 199.198 C 793.407 201.289, 794.891 203, 795.529 203 C 797.709 203, 800 206.653, 800 210.129 C 800 212.038, 800.376 214.028, 800.835 214.550 C 802.696 216.668, 805.161 225.221, 804.579 227.541 C 804.067 229.583, 803.352 230, 800.364 230 C 796.328 230, 796.343 229.662, 799.964 239 C 803.513 248.153, 807.023 258.829, 807.949 263.287 C 808.430 265.604, 809.566 270.650, 810.473 274.500 C 811.380 278.350, 812.934 285.325, 813.926 290 C 814.918 294.675, 817.204 304.150, 819.006 311.055 L 822.283 323.611 826.892 324.792 C 829.426 325.441, 834.650 326.629, 838.500 327.432 C 842.350 328.234, 847.469 329.590, 849.876 330.445 C 852.282 331.300, 854.982 332.003, 855.876 332.006 C 856.769 332.010, 858.850 332.725, 860.500 333.595 C 864.841 335.886, 875.490 337.963, 883 337.983 C 888.667 337.998, 890.653 337.437, 898.500 333.607 C 907.176 329.372, 917.835 326.172, 919.633 327.263 C 920.110 327.553, 923.094 327.380, 926.265 326.879 C 931.105 326.114, 932.650 326.267, 935.901 327.838 C 939.433 329.544, 940.329 329.591, 946.136 328.375 C 949.636 327.642, 953.565 327.032, 954.867 327.021 C 956.939 327.003, 957.151 326.658, 956.572 324.250 C 956.208 322.738, 955.557 319.899, 955.125 317.943 C 954.693 315.987, 953.588 312.880, 952.670 311.040 C 951.751 309.199, 951 307.065, 951 306.298 C 951 305.531, 950.100 303.041, 949 300.764 C 946.483 295.555, 946.465 291.591, 948.935 286.500 C 952.878 278.372, 954.304 274.432, 959.069 258.500 C 960.221 254.650, 962.211 248.800, 963.491 245.500 C 967.875 234.206, 974 216.585, 974 215.269 C 974 214.272, 973.389 214.354, 971.474 215.609 C 969.109 217.158, 968.823 217.150, 966.974 215.477 C 961.363 210.399, 969.398 198.736, 983.510 191.477 C 987.355 189.500, 995 185.546, 1000.500 182.691 L 1010.500 177.500 1010.195 173.658 C 1010.015 171.391, 1010.528 168.844, 1011.445 167.443 C 1013.682 164.029, 1013.435 163.388, 1009.250 161.744 C 1000.517 158.312, 990.964 157.140, 964.879 156.299 L 949.258 155.796 948.541 160.648 C 945.387 182.009, 936.193 205.807, 927.884 214.116 C 924.492 217.508, 923.390 218.063, 921.163 217.499 C 914.459 215.802, 900.651 214.770, 879 214.349 C 848.619 213.758, 848.889 213.864, 835.569 197.427 C 828.763 189.029, 825.672 177.968, 826.163 163.767 L 826.500 154.033 821.500 153.025 C 814.144 151.542, 753 152.136, 753 153.691" stroke="#b09658" fill="#b09658" fill-opacity="0.2" fill-rule="evenodd"/><path class="svg-region-LPVl" d="M 1023.308 272.970 C 1018.184 277.464, 1014.768 279.535, 1009.500 281.341 C 991.326 287.571, 991.097 287.755, 987.944 298.656 C 987.283 300.941, 984.912 305.216, 982.675 308.156 C 977.870 314.471, 970.744 327.077, 971.533 327.866 C 971.837 328.170, 975.348 328.437, 979.335 328.459 C 984.668 328.489, 987.308 328.027, 989.317 326.711 C 993.112 324.225, 1006.805 322.739, 1022.085 323.154 L 1034.840 323.500 1036.868 318.500 C 1039.322 312.448, 1042 302.132, 1042 298.728 C 1042 297.362, 1041.354 295.709, 1040.564 295.053 C 1039.775 294.398, 1038.819 292.430, 1038.442 290.681 C 1038.064 288.931, 1036.460 284.226, 1034.877 280.224 C 1033.295 276.222, 1032 271.610, 1032 269.974 C 1032 268.338, 1031.576 267, 1031.058 267 C 1030.539 267, 1027.052 269.687, 1023.308 272.970" stroke="#494949" fill="#494949" fill-opacity="0.2" fill-rule="evenodd"/><path class="svg-region-LPVr" d="M 756.433 284.599 C 752.400 286.563, 746.039 288.618, 741.616 289.387 C 737.353 290.128, 733.364 291.236, 732.752 291.848 C 731.935 292.665, 732.204 294.228, 733.762 297.730 C 734.929 300.354, 736.387 304.300, 737.003 306.500 C 737.619 308.700, 738.769 312.312, 739.559 314.527 C 740.952 318.432, 741.115 318.542, 744.997 318.172 C 747.274 317.955, 749 318.225, 749 318.798 C 749 319.353, 751.138 320.028, 753.750 320.298 C 756.362 320.568, 761.425 321.499, 765 322.366 C 768.575 323.233, 775.325 324.242, 780 324.608 C 784.675 324.973, 789.097 325.745, 789.826 326.322 C 790.777 327.074, 791.386 326.994, 791.976 326.038 C 792.539 325.128, 796.002 324.551, 802.900 324.219 C 808.455 323.951, 813 323.613, 813 323.466 C 813 323.320, 811.538 321.679, 809.750 319.820 C 807.962 317.962, 804.599 313.754, 802.275 310.470 C 796.611 302.467, 782.570 287.793, 777 284.056 C 770.848 279.928, 765.752 280.063, 756.433 284.599" stroke="#494949" fill="#494949" fill-opacity="0.2" fill-rule="evenodd"/><path class="svg-region-Fl" d="M 980 212.382 L 974.500 214.795 970.164 227.148 C 967.779 233.941, 965.254 240.850, 964.552 242.500 C 962.980 246.195, 957.906 261.406, 955.545 269.500 C 953.683 275.886, 952.062 280.053, 948.935 286.500 C 946.465 291.591, 946.483 295.555, 949 300.764 C 950.100 303.041, 951 305.799, 951 306.893 C 951 307.987, 951.388 309.122, 951.863 309.415 C 952.337 309.709, 953.293 312.098, 953.988 314.724 C 957.423 327.724, 957.226 327.437, 963.144 328.095 C 966.090 328.423, 969.175 328.354, 970 327.942 C 970.825 327.530, 973.075 324.114, 975 320.351 C 976.925 316.588, 979.645 312.157, 981.044 310.505 C 985.212 305.582, 987.073 302.141, 989.345 295.159 C 990.937 290.270, 992.154 288.227, 994 287.345 C 1000.802 284.095, 1008.960 281, 1010.725 281 C 1013.145 281, 1019.050 277.041, 1025.896 270.827 L 1031.045 266.154 1029.933 261.827 C 1029.322 259.447, 1028.225 252.238, 1027.496 245.806 C 1026.767 239.375, 1025.878 233.075, 1025.520 231.806 C 1024.734 229.015, 1020.426 218.645, 1018.332 214.500 L 1016.817 211.500 1006.658 211.396 C 1001.071 211.339, 994.025 210.995, 991 210.631 C 986.432 210.081, 984.568 210.378, 980 212.382" stroke="#5ca7a9" fill="#5ca7a9" fill-opacity="0.2" fill-rule="evenodd"/><path class="svg-region-Fr" d="M 761 213.188 C 755.478 214.952, 753.493 215.128, 747.808 214.357 C 739.886 213.284, 740.035 213.073, 740.014 225.385 C 740 233.485, 738.179 246.106, 736.895 247.005 C 736.498 247.283, 734.785 251.007, 733.087 255.281 C 729.087 265.349, 728.859 273.230, 732.414 278.469 C 733.742 280.426, 735.132 283.821, 735.502 286.013 C 735.873 288.206, 736.729 290, 737.404 290 C 742.018 290, 751.556 287.335, 757.330 284.433 C 765.788 280.181, 769.652 280.082, 776.401 283.944 C 782.336 287.339, 805 311.360, 805 314.254 C 805 314.689, 806.857 317.060, 809.127 319.522 C 812.837 323.547, 813.708 324, 817.741 324 C 823.009 324, 822.973 324.739, 818.488 308.500 C 816.970 303, 814.914 294.675, 813.921 290 C 812.928 285.325, 811.423 278.575, 810.576 275 C 809.730 271.425, 808.562 266.025, 807.980 263 C 807.399 259.975, 806.520 256.600, 806.027 255.500 C 805.534 254.400, 803.941 249.900, 802.487 245.500 C 798.856 234.513, 796.738 230.025, 795.176 230.011 C 794.447 230.005, 791.297 227.582, 788.176 224.628 C 785.054 221.673, 780.925 218.470, 779 217.509 C 777.075 216.549, 774.068 214.692, 772.317 213.382 C 768.553 210.566, 769.178 210.576, 761 213.188" stroke="#5ca7a9" fill="#5ca7a9" fill-opacity="0.2" fill-rule="evenodd"/><path class="svg-region-PCl" d="M 1059.500 193.834 C 1049.074 199.042, 1049.174 199, 1047.121 199 C 1046.072 199, 1044.955 199.675, 1044.638 200.500 C 1044.322 201.325, 1043.149 202, 1042.031 202 C 1040.914 202, 1040 202.399, 1040 202.887 C 1040 203.374, 1038.763 203.996, 1037.250 204.269 C 1029.421 205.680, 1020.295 208.480, 1018.718 209.953 C 1017.013 211.547, 1017.050 211.876, 1019.565 217.560 C 1026.141 232.420, 1025.826 231.296, 1027.463 245.744 C 1028.195 252.210, 1029.301 259.300, 1029.920 261.500 C 1030.539 263.700, 1031.449 267.750, 1031.943 270.500 C 1032.436 273.250, 1033.744 277.525, 1034.849 280 L 1036.859 284.500 1036.929 277.219 C 1037.004 269.484, 1038.429 267.286, 1041.426 270.284 C 1043.362 272.219, 1044.869 294.345, 1043.138 295.415 C 1041.717 296.293, 1041.661 300.498, 1043.035 303.066 C 1044.251 305.337, 1046 305.626, 1046 303.556 C 1046 302.761, 1047.094 300.849, 1048.430 299.306 C 1050.381 297.054, 1051.112 296.747, 1052.130 297.750 C 1053.836 299.429, 1057.827 299.325, 1063.099 297.465 C 1066.725 296.186, 1068.237 296.132, 1072.184 297.144 C 1075.897 298.095, 1077.495 298.095, 1079.583 297.144 C 1082.070 296.011, 1082.139 295.811, 1080.623 294.136 C 1079.731 293.150, 1079 291.693, 1079 290.898 C 1079 288.518, 1084.532 274.894, 1090.056 263.671 L 1095.237 253.144 1091.551 249.349 C 1087.664 245.348, 1079.040 231.732, 1076.421 225.465 C 1075.569 223.425, 1073.698 219.899, 1072.264 217.628 C 1070.830 215.358, 1068.668 210.976, 1067.458 207.890 C 1065.571 203.078, 1065.387 201.460, 1066.164 196.508 C 1066.662 193.333, 1066.941 190.646, 1066.785 190.536 C 1066.628 190.427, 1063.350 191.911, 1059.500 193.834" stroke="#465ee0" fill="#465ee0" fill-opacity="0.2" fill-rule="evenodd"/><path class="svg-region-PCr" d="M 683.035 169.911 C 689.977 184.243, 692.578 200.494, 689.610 211 C 684.856 227.825, 682.845 233.424, 679.912 238 C 679.383 238.825, 677.655 242.200, 676.072 245.500 C 673.301 251.276, 673.229 251.799, 674.133 259.500 C 674.803 265.203, 676.067 269.550, 678.537 274.639 C 682.027 281.835, 682.904 286, 680.929 286 C 679.544 286, 677 283.456, 677 282.071 C 677 281.482, 676.498 281, 675.883 281 C 675.168 281, 675.010 281.989, 675.442 283.750 C 675.814 285.262, 676.373 289.123, 676.685 292.330 C 677.084 296.434, 677.733 298.336, 678.876 298.757 C 679.769 299.085, 680.768 299.750, 681.095 300.235 C 681.422 300.719, 683.447 300.302, 685.595 299.308 C 690.185 297.183, 691.264 296.410, 694.699 292.783 C 699.868 287.325, 703.135 287.205, 722.240 291.770 C 728.529 293.273, 729.221 293.265, 732.595 291.656 C 736.033 290.017, 736.177 289.750, 735.530 286.216 C 735.157 284.172, 733.760 280.620, 732.426 278.322 C 729.081 272.561, 729.158 265.167, 732.654 256.261 C 734.113 252.542, 735.843 248.825, 736.497 248 C 738.174 245.886, 739.893 234.191, 740.173 223 C 740.473 210.985, 739.010 207.618, 732.756 205.934 C 730.308 205.275, 726.131 205.066, 722.841 205.439 C 717.521 206.040, 717.037 205.916, 715.328 203.503 C 714.322 202.084, 709.788 197.057, 705.250 192.331 C 700.712 187.605, 697 183.206, 697 182.556 C 697 181.906, 695.610 180.052, 693.911 178.437 C 692.212 176.822, 690.138 174.150, 689.303 172.500 C 687.820 169.572, 685.183 166.915, 681.843 164.986 C 680.596 164.266, 680.891 165.485, 683.035 169.911" stroke="#465ee0" fill="#465ee0" fill-opacity="0.2" fill-rule="evenodd"/><path class="svg-region-DV" d="M 826.596 154.737 C 826.268 155.065, 826 159.736, 826 165.118 C 826 179.206, 828.981 189.360, 835.433 197.250 C 843.774 207.450, 845.774 209.369, 850.390 211.595 C 855.132 213.883, 856.324 214, 874.937 213.999 C 892.990 213.998, 901.858 214.632, 917.383 217.036 C 922.529 217.833, 923.613 217.700, 926.034 215.976 C 934.124 210.215, 945.386 183.135, 948.496 161.969 L 949.161 157.438 927.331 157.401 C 907.988 157.369, 862.091 155.965, 836.346 154.619 C 831.312 154.356, 826.924 154.409, 826.596 154.737" stroke="#45567a" fill="#45567a" fill-opacity="0.2" fill-rule="evenodd"/><path class="svg-region-B" d="M 963.354 664.397 C 961.784 666.265, 959.375 669.700, 958 672.029 C 956.625 674.358, 952.534 678.641, 948.910 681.547 C 941.473 687.509, 934.782 694.752, 932.433 699.383 C 930.353 703.483, 928 715.790, 928 722.569 C 928 726.809, 928.852 729.728, 931.989 736.231 C 934.184 740.779, 937.221 745.882, 938.739 747.570 C 942.794 752.080, 953.573 758.197, 958.426 758.745 C 963.571 759.324, 974.187 756.715, 978.144 753.898 C 982.573 750.744, 988.331 742.176, 990.172 736 C 994.672 720.907, 995.919 715.815, 997.037 707.974 C 998.477 697.871, 998.183 694.798, 994.469 681.192 C 991.673 670.950, 991.617 670.853, 985.740 665.942 C 979.924 661.082, 979.712 661, 973.016 661 C 966.500 661, 966.084 661.146, 963.354 664.397 M 786.559 682.250 C 783.974 684.529, 782.604 690.202, 781.425 703.500 C 781.181 706.250, 780.463 713.558, 779.830 719.741 C 778.070 736.913, 778.820 739.173, 790.269 751.181 C 801.927 763.407, 805.222 765.001, 818.833 764.998 C 830.544 764.997, 834.155 763.513, 838.587 756.881 C 842.202 751.472, 844.546 740.881, 845.576 725.305 L 846.250 715.110 842.712 710.976 C 840.766 708.703, 838.572 705.607, 837.837 704.096 C 837.102 702.585, 834.956 699.113, 833.069 696.381 C 830.044 691.999, 828.610 690.979, 820.927 687.743 C 816.136 685.724, 809.177 683.587, 805.463 682.994 C 801.749 682.401, 797.905 681.484, 796.921 680.958 C 793.850 679.314, 789.237 679.889, 786.559 682.250" stroke="#e23b33" fill="#e23b33" fill-opacity="0.2" fill-rule="evenodd"/><path class="svg-region-Ol" d="M 1269 245.691 C 1267.625 245.921, 1264.475 246.720, 1262 247.466 C 1259.525 248.212, 1255.663 249.081, 1253.417 249.397 C 1245.163 250.556, 1216 261.172, 1216 263.016 C 1216 263.325, 1213.592 264.837, 1210.649 266.377 C 1202.398 270.694, 1190.006 280.488, 1185.449 286.294 C 1183.188 289.175, 1180.180 292.782, 1178.766 294.308 C 1177.352 295.834, 1174.997 299.530, 1173.533 302.522 C 1172.070 305.513, 1170.485 308.200, 1170.013 308.492 C 1169.540 308.784, 1168.842 310.480, 1168.461 312.261 C 1168.081 314.043, 1167.424 315.950, 1167.001 316.500 C 1166.579 317.050, 1164.748 322.153, 1162.933 327.840 L 1159.632 338.181 1160.741 356.983 C 1161.661 372.588, 1162.202 376.476, 1163.925 379.852 C 1165.950 383.821, 1166.580 390.234, 1165.385 394.693 C 1165.011 396.087, 1163.719 397.122, 1161.838 397.536 C 1157.410 398.508, 1155.033 406.337, 1158.750 407.708 C 1161.465 408.710, 1162.043 410.295, 1160.370 412.144 C 1159.225 413.409, 1159.100 414.318, 1159.873 415.762 C 1161.319 418.464, 1158.956 421.533, 1154.247 423.069 C 1152.186 423.741, 1149.427 425.125, 1148.115 426.145 C 1146.803 427.165, 1145.186 428, 1144.520 428 C 1143.855 428, 1142.522 428.871, 1141.558 429.936 C 1139.870 431.801, 1139.964 432.035, 1144.153 436.403 C 1146.544 438.895, 1151.200 442.239, 1154.500 443.834 C 1160.761 446.860, 1172.703 450, 1177.947 450 C 1180.999 450, 1181 449.999, 1181 444.212 C 1181 438.628, 1181.167 438.261, 1185.750 433.769 C 1191.220 428.408, 1194.322 427, 1200.665 427 C 1204.489 427, 1205.733 427.533, 1208.600 430.400 C 1212.475 434.275, 1213.005 438.107, 1210.386 443.300 C 1206.689 450.629, 1200.265 455.252, 1194.164 454.973 C 1188.904 454.733, 1188.268 454.926, 1190.344 456.133 C 1191.358 456.722, 1192.823 458.726, 1193.600 460.585 C 1195.205 464.426, 1200.723 467.732, 1207.344 468.819 C 1211.049 469.427, 1211.752 470.009, 1213.822 474.179 C 1215.331 477.221, 1216.340 481.460, 1216.706 486.294 C 1217.196 492.777, 1217.019 493.981, 1215.327 495.673 C 1213.319 497.681, 1198.275 503.280, 1191.851 504.411 C 1189.844 504.764, 1186.746 505.779, 1184.966 506.667 C 1183.187 507.554, 1178.642 508.767, 1174.866 509.362 C 1171.090 509.956, 1168 510.793, 1168 511.221 C 1168 512.324, 1145.238 512.194, 1144.554 511.087 C 1144.243 510.585, 1142.192 509.870, 1139.995 509.499 C 1137.798 509.128, 1136 508.463, 1136 508.021 C 1136 507.578, 1134.979 506.960, 1133.730 506.647 C 1132.482 506.334, 1130.569 505.272, 1129.480 504.289 C 1125.428 500.628, 1118.123 498.990, 1105.875 498.995 C 1092.625 499.001, 1088.918 499.542, 1086.260 501.861 C 1083.189 504.542, 1078.006 507, 1075.427 507 C 1071.753 507, 1068.089 511.910, 1062.111 524.842 C 1055.614 538.899, 1054.809 542.453, 1056.135 551.244 C 1057.075 557.477, 1056.966 558.386, 1054.698 563.244 C 1053.348 566.135, 1049.727 571.650, 1046.651 575.500 C 1033.885 591.477, 1028.795 600.660, 1024.555 615.362 C 1022.403 622.827, 1022 626.264, 1022 637.174 C 1022 651.490, 1023.029 656.062, 1028.634 666.663 C 1031.516 672.114, 1031.761 673.172, 1030.758 675.829 C 1029.896 678.114, 1029.927 679.989, 1030.890 683.666 C 1031.585 686.325, 1032.394 689.967, 1032.688 691.759 C 1032.981 693.552, 1033.621 695.266, 1034.110 695.568 C 1034.600 695.871, 1035 697.688, 1035 699.606 C 1035 702.211, 1037.630 707.650, 1045.395 721.100 C 1051.112 731.004, 1057.524 741.092, 1059.645 743.518 C 1061.765 745.943, 1064.744 749.632, 1066.264 751.714 C 1081.359 772.388, 1097.999 790.342, 1106.986 795.651 C 1108.644 796.630, 1110 797.784, 1110 798.216 C 1110 798.647, 1110.675 799, 1111.500 799 C 1112.325 799, 1113 799.406, 1113 799.901 C 1113 801.943, 1138.231 816.142, 1150 820.723 C 1155.307 822.788, 1166.620 825.958, 1175 827.726 C 1180.180 828.820, 1187.914 829.314, 1200 829.325 C 1215.681 829.338, 1218.591 829.064, 1228 826.679 C 1238.605 823.992, 1249.743 820.004, 1258 815.938 C 1270.887 809.593, 1290.452 793.248, 1299.822 781 C 1301.295 779.075, 1303.016 777.050, 1303.648 776.500 C 1305.341 775.024, 1321.083 751.455, 1325.020 744.500 C 1326.889 741.200, 1329.421 737.015, 1330.647 735.201 C 1331.874 733.386, 1333.415 730.236, 1334.072 728.201 C 1334.729 726.165, 1337.635 719.491, 1340.529 713.368 C 1343.422 707.246, 1346.121 701.171, 1346.525 699.868 C 1346.929 698.566, 1348.483 695.250, 1349.979 692.500 C 1351.476 689.750, 1353.951 683.900, 1355.480 679.500 C 1357.010 675.100, 1359.527 669.025, 1361.075 666 C 1362.623 662.975, 1365.152 657.576, 1366.695 654.002 C 1370.362 645.506, 1382.830 620.925, 1384.448 619 C 1385.141 618.175, 1387.003 615.025, 1388.584 612 C 1391.188 607.020, 1396.022 599.457, 1411.912 575.500 C 1414.831 571.100, 1418.069 566.375, 1419.109 565 C 1420.148 563.625, 1423.069 559.350, 1425.601 555.500 C 1428.132 551.650, 1431.103 547.219, 1432.203 545.654 C 1434.758 542.016, 1444 526.032, 1444 525.250 C 1444 524.924, 1444.622 523.947, 1445.382 523.079 C 1446.899 521.345, 1451.025 513.340, 1455.989 502.500 C 1457.753 498.650, 1459.601 494.719, 1460.098 493.764 C 1460.594 492.809, 1461 491.528, 1461 490.918 C 1461 490.308, 1461.826 488.614, 1462.836 487.154 C 1465.598 483.160, 1469.526 472.460, 1471.448 463.698 C 1474.406 450.215, 1473.305 414.843, 1469.463 399.899 C 1467.949 394.011, 1466.343 389.760, 1462.513 381.500 C 1461.238 378.750, 1458.978 373.215, 1457.491 369.200 C 1456.004 365.185, 1453.765 360.685, 1452.516 359.200 C 1451.267 357.715, 1449.117 354.250, 1447.739 351.500 C 1438.146 332.360, 1423.840 313.103, 1416.250 309.113 C 1415.013 308.462, 1414 307.362, 1414 306.668 C 1414 305.974, 1412.636 304.302, 1410.969 302.953 C 1406.589 299.409, 1406.370 299.192, 1396.543 288.628 C 1391.617 283.333, 1387.286 279, 1386.919 279 C 1386.552 279, 1384.518 277.412, 1382.400 275.472 C 1378.372 271.783, 1345.823 254.997, 1342.700 254.999 C 1341.711 254.999, 1339.587 254.320, 1337.981 253.490 C 1336.374 252.659, 1334.709 252.080, 1334.280 252.202 C 1333.851 252.325, 1332.545 251.894, 1331.377 251.245 C 1325.633 248.054, 1302.217 244.964, 1285.076 245.136 C 1277.609 245.211, 1270.375 245.461, 1269 245.691" stroke="#aa444d" fill="#aa444d" fill-opacity="0.2" fill-rule="evenodd"/><path class="svg-region-Or" d="M 508.666 266.645 C 508.575 266.725, 503.681 267.305, 497.791 267.933 C 487.648 269.015, 483.070 269.998, 478.500 272.073 C 476.506 272.979, 452.299 280.721, 448.500 281.668 C 442.075 283.270, 426.686 291.332, 419.938 296.632 C 416.879 299.034, 413.841 301, 413.188 301 C 412.534 301, 412 301.450, 412 302 C 412 302.550, 411.170 303, 410.155 303 C 408.181 303, 405 305.938, 405 307.761 C 405 308.368, 403.988 309.186, 402.750 309.577 C 400.552 310.272, 385.992 318.758, 385 319.921 C 384.725 320.244, 381.462 322.823, 377.750 325.652 C 361.379 338.129, 344.983 354.136, 338.471 364 C 336.110 367.575, 332.820 371.904, 331.160 373.620 C 329.500 375.336, 326.689 379.161, 324.915 382.120 C 323.140 385.079, 320.234 389.750, 318.457 392.500 C 313.125 400.752, 308.748 410.319, 301.986 428.500 C 300.964 431.250, 299.139 437.775, 297.931 443 C 296.723 448.225, 295.270 453.400, 294.701 454.500 C 294.132 455.600, 293.456 465.614, 293.198 476.754 C 292.817 493.216, 293.053 498.739, 294.460 506.254 C 296.713 518.288, 298.679 525.532, 301.067 530.610 C 302.130 532.870, 303 535.351, 303 536.124 C 303 537.826, 308.737 549.901, 310.543 552 C 311.253 552.825, 312.884 555.359, 314.167 557.631 C 317.047 562.731, 322.060 570.327, 322.989 571 C 323.369 571.275, 324.989 573.325, 326.590 575.555 C 328.190 577.785, 332.099 582.285, 335.275 585.555 C 338.451 588.825, 343.851 595.584, 347.275 600.575 C 350.699 605.566, 356.125 612.766, 359.332 616.575 C 362.540 620.384, 366.311 625.750, 367.711 628.500 C 369.112 631.250, 371.696 635.750, 373.454 638.500 C 380.833 650.045, 384.969 656.846, 388.048 662.500 C 389.845 665.800, 392.444 670.297, 393.824 672.494 C 397.309 678.041, 412.307 708.421, 414.562 714.500 C 415.582 717.250, 417.200 720.850, 418.158 722.500 C 419.116 724.150, 421.446 729.775, 423.337 735 C 441.828 786.098, 457.525 814.918, 482.419 843.476 C 494.157 856.942, 508.504 867.646, 519.119 870.856 C 520.978 871.419, 524.300 872.561, 526.500 873.396 C 531.661 875.352, 545.299 875.436, 552.765 873.556 C 555.919 872.762, 563 871.151, 568.500 869.976 C 593.659 864.601, 609.177 856.772, 629.901 839 C 639.735 830.567, 647.108 819.354, 662.286 789.750 C 663.344 787.688, 664.552 786, 664.972 786 C 665.391 786, 666.858 784.312, 668.232 782.250 C 669.606 780.188, 676.303 772.868, 683.115 765.985 C 700.532 748.384, 703.585 744.694, 712.469 730.500 C 714.534 727.200, 717.108 723.234, 718.189 721.686 C 727.055 708.991, 741.614 671.232, 749.944 639.329 C 751.404 633.737, 751.611 609.388, 750.236 605 C 749.633 603.075, 748.384 598.800, 747.461 595.500 C 745.544 588.647, 739.800 575.890, 737.451 573.266 C 736.581 572.295, 734.806 569.925, 733.508 568 C 732.209 566.075, 728.188 560.149, 724.573 554.831 C 720.958 549.514, 718 544.733, 718 544.208 C 718 542.510, 714.025 534.208, 709.647 526.764 C 707.297 522.769, 704.130 516.350, 702.610 512.500 C 699.533 504.710, 694.777 499, 691.363 499 C 690.128 499, 688.840 498.550, 688.500 498 C 687.688 496.686, 667.312 496.686, 666.500 498 C 666.160 498.550, 663.905 499, 661.488 499 C 655.679 499, 653.023 500.266, 643.500 507.573 C 634.214 514.699, 632.782 515.506, 627.819 516.401 C 622.637 517.335, 612.803 522.579, 603.967 529.119 C 586.528 542.024, 582.084 542.845, 579.072 533.717 C 578.395 531.667, 576.119 527.698, 574.014 524.897 C 568.290 517.278, 566.256 507.684, 567.791 495.537 C 568.428 490.493, 569.677 484.624, 570.567 482.494 C 571.754 479.652, 572.094 476.307, 571.842 469.923 C 571.533 462.069, 571.258 461.027, 569.009 459.207 C 566.630 457.282, 566.596 457.104, 568.249 455.278 C 572.796 450.252, 583.907 447, 596.526 447 C 603.399 447, 603.981 446.818, 607.640 443.523 C 609.763 441.611, 611.772 440.036, 612.104 440.023 C 612.436 440.010, 613.922 438.875, 615.405 437.500 C 616.889 436.125, 618.676 435, 619.377 435 C 620.078 435, 621.691 433.893, 622.962 432.541 L 625.272 430.081 622.886 429.132 C 621.574 428.610, 618.978 427.612, 617.117 426.915 C 615.257 426.218, 612.557 424.656, 611.117 423.445 C 609.678 422.234, 607.600 421.074, 606.500 420.869 C 602.549 420.129, 601.043 414.719, 601.691 403.597 L 602.281 393.500 607.890 385.201 C 616.645 372.251, 617.626 370.320, 619.504 362.344 C 622.193 350.926, 621.270 338.312, 617.093 329.385 C 615.335 325.628, 613.529 322.317, 613.079 322.027 C 612.630 321.737, 611.024 319.046, 609.511 316.046 C 606.535 310.147, 597.360 297.915, 593.124 294.198 C 584.881 286.967, 573.160 279.037, 563.522 274.171 C 553.835 269.281, 551.752 268.601, 545.798 268.390 C 542.088 268.258, 538.621 267.884, 538.094 267.558 C 537.298 267.066, 509.180 266.194, 508.666 266.645" stroke="#aa444d" fill="#aa444d" fill-opacity="0.2" fill-rule="evenodd"/><path class="svg-region-Pl" d="M 1191.500 428.867 C 1189.850 429.890, 1186.813 432.385, 1184.750 434.412 C 1181.249 437.851, 1181 438.492, 1181 444.048 C 1181 451.904, 1182.654 453.590, 1191.265 454.512 C 1198.502 455.287, 1201.622 454.201, 1206.136 449.339 C 1212.893 442.061, 1213.741 435.541, 1208.600 430.400 C 1205.579 427.379, 1204.603 427, 1199.850 427.004 C 1196.382 427.006, 1193.445 427.662, 1191.500 428.867" stroke="#f9d3d3" fill="#f9d3d3" fill-opacity="0.2" fill-rule="evenodd"/><path class="svg-region-OABl" d="M 1120 429.770 C 1120 430.857, 1119.069 433.850, 1117.931 436.422 C 1116.494 439.672, 1116.070 442.041, 1116.541 444.187 C 1117.198 447.178, 1117.130 447.253, 1114.360 446.577 C 1112.787 446.193, 1110.263 445.630, 1108.750 445.326 L 1106 444.773 1105.968 457.137 C 1105.928 472.905, 1105.864 473, 1095.320 473 C 1087.668 473, 1087.202 473.136, 1083.271 476.500 C 1081.022 478.425, 1078.554 480, 1077.787 480 C 1077.020 480, 1074.054 481.165, 1071.196 482.589 C 1066.262 485.048, 1066 485.376, 1066 489.089 L 1066 493 1073.500 493 C 1077.625 493, 1080.998 493.337, 1080.995 493.750 C 1080.993 494.163, 1079.406 496.300, 1077.469 498.500 C 1072.336 504.331, 1072.433 504.237, 1068.088 507.500 C 1063.734 510.769, 1063.206 512.096, 1065.500 514 C 1066.325 514.685, 1067.002 514.852, 1067.005 514.372 C 1067.014 512.550, 1073.194 507, 1075.215 507 C 1077.808 507, 1085 503.918, 1085 502.808 C 1085 502.363, 1085.638 502, 1086.417 502 C 1087.196 502, 1088.021 501.438, 1088.251 500.750 C 1088.562 499.818, 1092.722 499.507, 1104.584 499.526 C 1121.676 499.554, 1121.876 499.600, 1132 505.848 C 1139.525 510.492, 1145.761 512, 1157.438 512 C 1163.247 512, 1168 511.650, 1168 511.221 C 1168 510.793, 1171.090 509.956, 1174.866 509.362 C 1178.642 508.767, 1183.254 507.519, 1185.116 506.589 C 1186.977 505.659, 1190.525 504.634, 1193 504.311 C 1195.475 503.988, 1197.950 503.396, 1198.500 502.995 C 1199.050 502.594, 1202.447 501.300, 1206.048 500.119 C 1216.999 496.528, 1217.360 496.078, 1216.725 486.822 C 1216.356 481.430, 1215.446 477.454, 1213.843 474.223 C 1211.740 469.986, 1211.066 469.430, 1207.274 468.807 C 1202.226 467.977, 1194 463.385, 1194 461.396 C 1194 457.893, 1182.571 450, 1177.499 450 C 1172.990 450, 1160.632 446.861, 1157.382 444.891 C 1155.667 443.851, 1153.565 443, 1152.710 443 C 1151.855 443, 1147.858 439.757, 1143.828 435.792 L 1136.500 428.585 1128.250 428.190 C 1120.567 427.822, 1120 427.931, 1120 429.770" stroke="#81244d" fill="#81244d" fill-opacity="0.2" fill-rule="evenodd"/><path class="svg-region-OABr" d="M 632 428 C 631.175 428.533, 629.458 428.976, 628.185 428.985 C 626.855 428.993, 624.798 430.275, 623.347 432 C 621.958 433.650, 620.210 435, 619.463 435 C 618.715 435, 616.889 436.125, 615.405 437.500 C 613.922 438.875, 612.390 440, 612.002 440 C 611.614 440, 609.767 441.462, 607.898 443.250 C 604.593 446.411, 604.198 446.517, 593.473 447.105 C 583.608 447.646, 576.380 449.137, 573.500 451.225 C 572.950 451.624, 571.173 453.028, 569.551 454.345 L 566.602 456.739 569.301 459.946 C 571.728 462.830, 572 463.939, 572 470.955 C 572 475.621, 571.398 480.196, 570.502 482.340 C 569.679 484.312, 568.471 490.151, 567.818 495.316 C 566.770 503.619, 566.845 505.623, 568.470 512.604 C 569.732 518.032, 571.191 521.520, 573.134 523.763 C 574.690 525.558, 576.886 529.158, 578.015 531.763 C 581.169 539.040, 581.514 539.478, 584.361 539.817 C 587.693 540.215, 601.219 532.296, 609.500 525.100 C 612.317 522.652, 624.087 517.126, 628.121 516.358 C 633.066 515.416, 636.414 513.498, 644.377 507.045 C 652.021 500.849, 656.093 499, 662.090 499 C 664.176 499, 666.160 498.550, 666.500 498 C 666.845 497.442, 671.510 497, 677.059 497 L 687 497 687 493.475 C 687 490.533, 686.546 489.789, 684.250 488.976 C 679.803 487.400, 678.576 486.471, 677.178 483.621 C 676.398 482.032, 674.233 480.277, 671.901 479.344 C 669.726 478.473, 667.302 476.842, 666.515 475.718 C 665.085 473.676, 665.083 473.676, 663.208 475.991 C 661.769 477.768, 660.035 478.416, 655.765 478.770 C 650.750 479.185, 650.045 478.997, 648.664 476.866 C 647.821 475.565, 646.552 470.788, 645.845 466.250 C 645.137 461.712, 644.135 458, 643.618 458 C 642.135 458, 636.988 451.800, 636.345 449.239 C 635.719 446.745, 637.715 438.294, 639.137 437.415 C 639.612 437.122, 640 435.359, 640 433.498 C 640 428.671, 635.619 425.661, 632 428" stroke="#81244d" fill="#81244d" fill-opacity="0.2" fill-rule="evenodd"/><path class="svg-region-LBPCl" d="M 1037.149 279.808 C 1037.432 288.085, 1037.941 291.261, 1039.323 293.370 C 1042.636 298.427, 1043.520 296.222, 1043.247 283.575 C 1042.985 271.450, 1042.181 269, 1038.461 269 C 1036.966 269, 1036.820 270.201, 1037.149 279.808" stroke="#daffff" fill="#daffff" fill-opacity="0.2" fill-rule="evenodd"/><path class="svg-region-PNl" d="M 1044.500 53.715 C 1043.400 53.980, 1041.150 54.817, 1039.500 55.574 C 1037.850 56.330, 1034.700 57.580, 1032.500 58.350 C 1024.583 61.121, 1015.045 72.566, 1012.496 82.355 C 1010.268 90.907, 1011.368 103.549, 1014.646 107.075 C 1018.027 110.713, 1019.042 115.095, 1017.995 121.529 C 1017.440 124.940, 1017.493 129.324, 1018.138 133.240 C 1020.083 145.070, 1018.293 153.970, 1011.284 167.320 C 1010.338 169.124, 1010.031 171.353, 1010.434 173.502 C 1010.925 176.115, 1010.670 177.085, 1009.291 177.857 C 1005.430 180.018, 1009.064 179.828, 1017.560 177.426 C 1032.971 173.068, 1037.177 172.074, 1049 169.991 C 1055.325 168.878, 1064.550 167.081, 1069.500 166 C 1074.450 164.919, 1079.547 164.027, 1080.826 164.017 C 1082.105 164.008, 1084.130 162.818, 1085.326 161.373 C 1086.522 159.928, 1089.209 156.890, 1091.299 154.623 C 1093.388 152.355, 1096.763 148.033, 1098.799 145.017 C 1100.834 142.001, 1103.287 138.654, 1104.250 137.578 C 1105.213 136.503, 1106 134.863, 1106 133.934 C 1106 133.005, 1106.708 131.657, 1107.573 130.939 C 1108.438 130.221, 1110.565 126.679, 1112.299 123.067 C 1115.293 116.833, 1115.454 115.889, 1115.476 104.455 C 1115.495 94.770, 1115.167 91.901, 1113.798 89.814 C 1112.863 88.386, 1111.146 84.275, 1109.984 80.677 C 1108.357 75.641, 1106.854 73.199, 1103.457 70.068 C 1101.030 67.830, 1098.627 66, 1098.117 66 C 1097.607 66, 1095.304 64.425, 1093 62.500 C 1089.728 59.766, 1087.924 59, 1084.763 59 C 1080.519 59, 1067.182 55.465, 1065.550 53.907 C 1064.584 52.984, 1048.148 52.834, 1044.500 53.715" stroke="#bbc0d1" fill="#bbc0d1" fill-opacity="0.2" fill-rule="evenodd"/><path class="svg-region-PNr" d="M 653 40.476 C 651.075 41.231, 648.375 41.888, 647 41.937 C 644.820 42.015, 633.674 45.701, 624.500 49.378 C 617.160 52.320, 612.841 55.292, 610.487 59.021 C 609.105 61.209, 607.575 63, 607.086 63 C 606.597 63, 605.220 64.656, 604.026 66.680 C 601.313 71.278, 602.321 73.671, 608.722 77.835 C 616.267 82.743, 625.756 92.785, 628.597 98.869 C 630.043 101.966, 632.014 105.400, 632.977 106.500 C 633.940 107.600, 636.553 111.650, 638.785 115.500 C 641.040 119.392, 646.902 126.718, 651.987 132 C 658.010 138.257, 662.279 143.746, 664.492 148.079 C 666.341 151.697, 669.280 155.747, 671.025 157.079 C 672.769 158.410, 675.390 160.415, 676.848 161.532 C 678.307 162.650, 681.218 164.675, 683.318 166.032 C 685.418 167.390, 687.979 170.075, 689.010 172 C 690.040 173.925, 692.259 176.938, 693.941 178.696 C 695.624 180.453, 697 182.351, 697 182.912 C 697 183.473, 700.712 187.746, 705.250 192.406 C 709.788 197.067, 714.322 202.051, 715.328 203.481 C 717.041 205.920, 717.509 206.042, 722.841 205.439 C 730.639 204.556, 736.563 206.255, 738.456 209.916 C 740.196 213.280, 741.519 213.878, 748.917 214.644 C 753.112 215.078, 756.319 214.668, 761.812 212.995 L 769.124 210.768 771.312 212.791 C 772.515 213.904, 775.525 215.855, 778 217.127 C 780.475 218.399, 784.962 221.835, 787.971 224.763 C 793.382 230.028, 793.503 230.083, 798.971 229.793 C 803.864 229.534, 804.537 229.237, 804.824 227.215 C 805.002 225.959, 803.990 221.899, 802.574 218.194 C 801.158 214.489, 800 210.299, 800 208.884 C 800 206.362, 797.332 203, 795.332 203 C 794.776 203, 793.809 201.876, 793.183 200.502 C 792.557 199.128, 790.303 196.090, 788.175 193.752 C 786.047 191.413, 782.736 187.025, 780.818 184 C 778.900 180.975, 776.582 177.882, 775.666 177.128 C 774.749 176.373, 774 175.214, 774 174.552 C 774 173.066, 769.783 169, 768.242 169 C 767.621 169, 766.525 168.212, 765.807 167.250 C 765.088 166.287, 762.536 164.165, 760.135 162.534 C 757.103 160.474, 754.992 157.926, 753.224 154.191 C 751.823 151.233, 750.075 148.582, 749.339 148.300 C 748.602 148.017, 748 146.555, 748 145.050 C 748 141.136, 744.856 132.580, 740.544 124.760 C 738.500 121.053, 736.202 115.340, 735.438 112.064 C 734.069 106.195, 731.675 101.682, 723.270 89.118 C 720.921 85.607, 719 82.455, 719 82.112 C 719 81.769, 717.616 80.875, 715.923 80.126 C 714.231 79.377, 712.582 78.030, 712.259 77.132 C 710.750 72.946, 690.984 52.233, 686.943 50.605 C 684.987 49.816, 682.773 48.431, 682.023 47.528 C 680.200 45.331, 675.046 43.259, 667.070 41.515 C 663.456 40.726, 659.600 39.860, 658.500 39.592 C 657.400 39.324, 654.925 39.722, 653 40.476" stroke="#bbc0d1" fill="#bbc0d1" fill-opacity="0.2" fill-rule="evenodd"/><path class="svg-region-ODMl" d="M 1117 385.462 C 1117 386.892, 1116.334 388.318, 1115.520 388.631 C 1114.706 388.943, 1113.163 390.618, 1112.090 392.354 C 1110.142 395.507, 1110.142 395.518, 1112.570 404.865 C 1113.906 410.011, 1115 415.768, 1115 417.658 C 1115 420.040, 1115.768 421.807, 1117.500 423.412 C 1118.875 424.687, 1120 426.174, 1120 426.718 C 1120 427.261, 1124.329 427.964, 1129.619 428.280 C 1137.285 428.737, 1139.925 428.527, 1142.619 427.242 C 1144.479 426.355, 1146 425.022, 1146 424.280 C 1146 423.537, 1146.640 421.933, 1147.422 420.715 C 1148.204 419.497, 1149.155 416.363, 1149.536 413.750 L 1150.227 409 1146.963 409 C 1141.273 409, 1133.848 404.429, 1130.159 398.656 C 1128.347 395.820, 1124.645 391.106, 1121.932 388.180 C 1117.317 383.202, 1117 383.028, 1117 385.462 M 1076 440.349 C 1076 448.098, 1076.396 450.447, 1078.405 454.612 C 1079.728 457.354, 1081.499 460.170, 1082.341 460.868 C 1083.183 461.567, 1084.170 463.570, 1084.534 465.319 C 1085.958 472.156, 1087.216 473, 1095.988 473 C 1102.816 473, 1104.075 472.729, 1104.965 471.066 C 1105.534 470.002, 1105.999 463.589, 1105.998 456.816 L 1105.997 444.500 1097.248 441.654 C 1092.437 440.089, 1085.688 437.068, 1082.250 434.940 L 1076 431.072 1076 440.349" stroke="#999999" fill="#999999" fill-opacity="0.2" fill-rule="evenodd"/><path class="svg-region-ODMr" d="M 675.510 320.720 C 675.111 321.699, 674.170 324.750, 673.421 327.500 C 672.672 330.250, 670.225 337.900, 667.985 344.500 C 665.744 351.100, 663.082 359.425, 662.068 363 C 661.055 366.575, 658.553 374, 656.508 379.500 C 653.135 388.576, 651.770 393.007, 648.897 404.205 C 648.374 406.243, 646.901 409.168, 645.623 410.705 C 644.345 412.242, 642.063 415.750, 640.550 418.500 C 639.038 421.250, 637.058 424.353, 636.151 425.396 C 634.905 426.827, 634.811 427.401, 635.768 427.735 C 637.933 428.492, 640 431.058, 640 432.989 C 640 434.004, 639.100 436.934, 638 439.500 C 636.900 442.066, 636 445.412, 636 446.935 C 636 450.313, 639.742 456.142, 642.775 457.487 C 644.337 458.180, 645.019 459.372, 645.064 461.487 C 645.167 466.328, 647.382 475.552, 648.872 477.347 C 651.517 480.533, 662.138 478.889, 664.036 475 C 664.439 474.175, 665.383 472.176, 666.134 470.557 C 666.885 468.938, 669.800 465.113, 672.612 462.057 C 677.996 456.204, 680.993 451.125, 682.973 444.498 C 684.066 440.836, 689.055 434, 690.633 434 C 691.893 434, 699.912 426.932, 702.037 423.948 L 704.173 420.949 699.836 421.593 C 694.052 422.451, 684.752 424.541, 678 426.499 C 670.288 428.735, 663.246 427.791, 658.936 423.942 C 657.123 422.324, 654.921 421, 654.042 421 C 651.784 421, 648 418.157, 648 416.461 C 648 415.676, 649.110 413.789, 650.466 412.267 C 651.823 410.745, 654.791 407.097, 657.061 404.159 C 659.332 401.222, 662.695 398.190, 664.535 397.421 C 669.580 395.313, 675.307 386.504, 677.425 377.596 C 677.805 376, 679.413 372.806, 681 370.500 C 684.958 364.747, 685.239 362.969, 683.995 351.500 C 683.399 346, 682.545 336.876, 682.097 331.224 C 681.649 325.573, 681.106 320.791, 680.891 320.599 C 680.676 320.406, 679.541 319.954, 678.368 319.594 C 676.852 319.129, 676.027 319.454, 675.510 320.720" stroke="#999999" fill="#999999" fill-opacity="0.2" fill-rule="evenodd"/><path class="svg-region-COl" d="M 1076 164.484 C 1072.425 165.176, 1065.225 166.670, 1060 167.802 C 1054.775 168.934, 1046 170.635, 1040.500 171.582 C 1035 172.528, 1028.925 173.939, 1027 174.716 C 1025.075 175.494, 1019.225 177.182, 1014 178.467 C 1004.490 180.805, 997.925 183.541, 984.130 190.915 C 969.121 198.939, 961.250 210.296, 967.056 215.551 C 968.747 217.081, 969.454 217.198, 971.037 216.209 C 972.095 215.548, 976.361 213.833, 980.516 212.398 C 986.150 210.453, 989.015 209.967, 991.785 210.486 C 993.828 210.870, 999.689 211.399, 1004.809 211.662 C 1012.833 212.074, 1014.661 211.857, 1018.046 210.093 C 1021.569 208.257, 1029.693 205.813, 1037.250 204.317 C 1038.763 204.018, 1040 203.374, 1040 202.887 C 1040 202.399, 1040.752 202, 1041.671 202 C 1042.590 202, 1044.053 201.405, 1044.921 200.678 C 1045.790 199.950, 1048.525 198.736, 1051 197.978 C 1053.475 197.221, 1057.092 195.678, 1059.038 194.550 C 1060.984 193.423, 1063.459 192.015, 1064.538 191.422 C 1065.617 190.829, 1068.525 186.996, 1071 182.905 C 1073.475 178.814, 1077.412 172.958, 1079.750 169.893 C 1082.088 166.827, 1084 164.022, 1084 163.659 C 1084 162.896, 1084.413 162.854, 1076 164.484" stroke="#906d99" fill="#906d99" fill-opacity="0.2" fill-rule="evenodd"/><path class="svg-region-HRl" d="M 1146.500 213.247 C 1140.199 214.887, 1132.315 220.600, 1113.066 237.476 C 1106.777 242.989, 1100.321 248.480, 1098.719 249.678 C 1097.118 250.875, 1093.996 255.375, 1091.782 259.678 C 1087.086 268.803, 1079 288.212, 1079 290.359 C 1079 291.172, 1079.779 293.195, 1080.731 294.854 C 1082.402 297.766, 1082.384 298.029, 1080.212 302.500 C 1078.975 305.047, 1078.209 307.529, 1078.511 308.017 C 1078.812 308.505, 1081.108 308.025, 1083.612 306.952 C 1088.828 304.716, 1092.077 304.477, 1093.800 306.200 C 1094.733 307.133, 1095 306.237, 1095 302.168 C 1095 296.593, 1097.637 287.599, 1101.474 280.088 C 1103.874 275.390, 1116.787 262.066, 1127.500 253.234 C 1132.573 249.051, 1136.741 244.737, 1148 232.015 C 1148.825 231.082, 1150.691 229.010, 1152.147 227.410 C 1153.653 225.755, 1155.086 222.700, 1155.472 220.325 C 1156.033 216.872, 1155.792 215.792, 1154.075 214.075 C 1151.772 211.772, 1152.054 211.802, 1146.500 213.247 M 1018 351.018 C 1016.075 351.451, 1011.278 352.976, 1007.339 354.406 C 1002.003 356.345, 997.991 357.054, 991.589 357.192 C 986.865 357.293, 983 357.613, 983 357.903 C 983 358.193, 983.894 359.345, 984.986 360.465 C 988.864 364.439, 995 372.135, 995 373.026 C 995 374.295, 1001.007 381, 1002.144 381 C 1002.659 381, 1004.328 381.922, 1005.852 383.049 C 1007.766 384.464, 1011.088 385.346, 1016.588 385.901 C 1020.968 386.342, 1025.440 387.162, 1026.526 387.722 C 1027.612 388.282, 1030.641 389.694, 1033.258 390.861 L 1038.015 392.981 1037.393 387.241 C 1037.050 384.083, 1035.977 379.008, 1035.009 375.961 C 1034.040 372.915, 1032.930 368.543, 1032.541 366.246 C 1032.153 363.948, 1030.513 360.403, 1028.895 358.368 C 1027.278 356.333, 1025.691 353.618, 1025.369 352.334 C 1024.752 349.877, 1023.812 349.709, 1018 351.018" stroke="#d9dba1" fill="#d9dba1" fill-opacity="0.2" fill-rule="evenodd"/><path class="svg-region-HRr" d="M 569.223 174.557 C 565.878 176.900, 566.479 179.811, 572.286 189.375 C 579.824 201.793, 590.791 212.463, 608.188 224.308 C 628.515 238.147, 635.148 242.706, 639.500 245.827 C 650.771 253.911, 669.199 271.594, 674.513 279.424 C 677.710 284.135, 679.529 286, 680.929 286 C 682.917 286, 681.982 281.538, 678.591 274.847 C 676.348 270.422, 674.997 266.069, 674.557 261.847 C 673.355 250.321, 673.719 250.894, 663.211 244.014 C 657.870 240.516, 651.925 236.169, 650 234.354 C 644.288 228.967, 624.003 211.628, 621.414 209.919 C 620.097 209.050, 617.327 206.796, 615.259 204.910 C 611.533 201.512, 609.278 199.830, 601.968 195 C 598.424 192.658, 586.103 183.253, 585 182.047 C 582.917 179.769, 573.031 173, 571.788 173 C 571.599 173, 570.445 173.701, 569.223 174.557 M 750.576 353.625 C 745.839 358.503, 745.317 360.585, 747.942 364.136 C 750.361 367.408, 750.056 368.387, 745.812 370.968 C 741.993 373.291, 733 385.752, 733 388.723 C 733 391.857, 735.600 391.737, 751.500 387.868 C 769.729 383.432, 772.837 382.164, 778.239 376.957 C 782.523 372.827, 783 371.921, 783 367.906 C 783 360.886, 781.072 359, 773.894 359 C 766.988 359, 763.436 357.467, 760.220 353.097 C 757.247 349.059, 754.885 349.188, 750.576 353.625" stroke="#d9dba1" fill="#d9dba1" fill-opacity="0.2" fill-rule="evenodd"/>
    </svg>