<svg xmlns="http://www.w3.org/2000/svg" width="1785" height="1131" viewBox="0 0 1785 1131" version="1.1">
    <path class="svg-region-AAB" d="M 751.232 464.168 C 749.111 466.289, 742.593 467.970, 736.430 467.985 C 731.174 467.998, 729.930 468.384, 727.150 470.866 C 722.550 474.973, 717 483.110, 717 485.747 C 717 487.806, 716.535 488, 711.607 488 C 705.878 488, 705 488.742, 705 493.582 C 705 495.333, 704.449 496, 703 496 C 701.900 496, 701 496.390, 701 496.866 C 701 498.169, 713.823 509.389, 721.629 514.915 C 725.408 517.591, 730.954 522.530, 733.954 525.890 C 736.954 529.251, 739.913 532, 740.530 532 C 741.147 532, 742.708 533.125, 744 534.500 C 746.888 537.574, 747.992 537.687, 747.246 534.831 C 746.766 532.998, 746.974 532.789, 748.589 533.484 C 752.008 534.953, 756.725 535.217, 758.886 534.061 C 760.500 533.197, 761 531.978, 761 528.908 C 761 526.696, 761.511 522.857, 762.135 520.378 C 762.982 517.015, 762.982 515.582, 762.135 514.735 C 761.511 514.111, 760.996 512.228, 760.990 510.550 C 760.985 508.873, 759.816 505.025, 758.393 502 C 754.903 494.582, 753.703 487.641, 753.592 474.249 C 753.542 468.061, 753.252 462.999, 752.950 462.999 C 752.648 463, 751.874 463.526, 751.232 464.168 M 1013 478.144 C 1009.425 484.805, 1005.375 492.320, 1004 494.844 C 1001.860 498.773, 1001.451 500.990, 1001.160 510.256 C 1000.794 521.940, 1001.740 525.034, 1006.302 527.070 C 1009.369 528.439, 1015.003 532.634, 1016.600 534.739 C 1017.335 535.708, 1017.951 538.638, 1017.968 541.250 C 1018.004 546.526, 1017.838 546.443, 1025.137 544.877 C 1035.404 542.675, 1045.192 532.694, 1053.844 515.603 C 1056.100 511.146, 1060.435 503.682, 1063.478 499.014 C 1066.520 494.347, 1068.860 490.072, 1068.677 489.514 C 1068.494 488.957, 1066.355 488.359, 1063.922 488.187 C 1061.490 488.015, 1059.072 487.452, 1058.550 486.937 C 1058.027 486.422, 1056.777 486, 1055.771 486 C 1050.376 486, 1038 477.166, 1038 473.314 C 1038 471.300, 1031.869 469, 1026.501 469 C 1023.367 469, 1021.757 468.530, 1021.362 467.500 C 1021.045 466.675, 1020.497 466.007, 1020.143 466.016 C 1019.789 466.025, 1016.575 471.482, 1013 478.144" stroke="#7f3c1a" fill="#7f3c1a" fill-opacity="0.2" fill-rule="evenodd"/><path class="svg-region-IBl" d="M 1039 412.312 C 1039 413.034, 1038.100 415.487, 1037 417.764 C 1035.900 420.041, 1035 422.361, 1035 422.921 C 1035 425.745, 1030.136 432.648, 1026.210 435.395 C 1023.770 437.103, 1018.819 441.538, 1015.208 445.250 C 1011.597 448.962, 1008.048 452, 1007.321 452 C 1004.771 452, 1006.041 454.001, 1010.250 456.611 C 1016.162 460.278, 1019.051 463.026, 1020.473 466.334 C 1021.589 468.933, 1022.223 469.210, 1028.095 469.671 C 1031.618 469.947, 1037.886 470.246, 1042.025 470.336 C 1049.479 470.496, 1049.598 470.459, 1054.525 466.343 C 1062.094 460.022, 1072.088 456.090, 1080.750 456.024 C 1082.537 456.011, 1084 455.590, 1084 455.090 C 1084 454.589, 1082.188 451.887, 1079.973 449.086 C 1075.837 443.852, 1071.599 440.702, 1063.703 436.990 C 1059.960 435.231, 1058.443 433.596, 1054.843 427.439 C 1052.455 423.353, 1050.001 420.008, 1049.391 420.005 C 1048.781 420.002, 1046.555 417.975, 1044.446 415.500 C 1040.514 410.888, 1039 410.002, 1039 412.312" stroke="#b10e0e" fill="#b10e0e" fill-opacity="0.2" fill-rule="evenodd"/><path class="svg-region-IBr" d="M 713.832 427.149 C 707.129 434.216, 697.468 445.369, 696.285 447.407 C 695.617 448.558, 695.055 451.840, 695.035 454.699 C 695.003 459.433, 695.298 460.125, 698.327 462.435 C 700.966 464.449, 703.598 465.200, 711.077 466.075 C 733.894 468.743, 746.690 468.239, 751 464.502 C 751.825 463.787, 755.650 461.517, 759.500 459.458 C 770.323 453.672, 780.995 446.030, 781.002 444.063 C 781.003 443.753, 778.247 443.655, 774.877 443.845 C 768.709 444.193, 766.549 443.776, 751 439.247 C 746.325 437.885, 741.375 436.558, 740 436.299 C 738.625 436.040, 734.667 434.517, 731.205 432.914 C 727.743 431.311, 724.288 430, 723.528 430 C 722.767 430, 721.024 428.568, 719.655 426.818 L 717.164 423.636 713.832 427.149" stroke="#b10e0e" fill="#b10e0e" fill-opacity="0.2" fill-rule="evenodd"/><path class="svg-region-MB" d="M 817.056 348.078 C 814.062 349.141, 811.352 350.430, 811.036 350.943 C 809.922 352.744, 804.826 353.996, 801.058 353.393 C 798.894 353.047, 796.983 353.218, 796.630 353.790 C 796.288 354.342, 795.741 358.553, 795.413 363.147 C 795.086 367.741, 794.184 372.807, 793.409 374.404 C 792.634 376.001, 792 377.872, 792 378.563 C 792 380.441, 781.943 390.424, 778.500 391.963 C 774.179 393.894, 752.438 394.873, 743.990 393.518 C 741.388 393.100, 737.791 393.256, 735.490 393.887 C 731.710 394.922, 731.230 395.520, 726.378 405.240 C 717.736 422.553, 717.432 423.484, 719.421 426.520 C 720.354 427.943, 721.878 429.364, 722.808 429.678 C 723.739 429.992, 726.975 431.358, 730 432.714 C 735.045 434.975, 741.275 436.888, 760.500 442.077 C 768.958 444.359, 778.440 444.540, 782.364 442.494 C 783.940 441.672, 786.264 441, 787.530 441 C 790.331 441, 794.572 435.873, 798.574 427.652 C 800.140 424.435, 803.013 419.934, 804.960 417.650 C 810.405 411.260, 812.574 407.859, 813.984 403.500 C 814.695 401.300, 815.640 398.600, 816.083 397.500 C 816.526 396.400, 817.056 392.350, 817.262 388.500 C 817.492 384.192, 818.440 379.769, 819.728 377 C 820.879 374.525, 822.109 369.690, 822.460 366.254 C 823.112 359.874, 825.167 353.633, 826.985 352.509 C 827.543 352.164, 828 350.559, 828 348.941 C 828 346.382, 827.643 346.009, 825.250 346.073 C 823.737 346.113, 820.050 347.016, 817.056 348.078 M 964.607 360.582 C 964.273 361.452, 963.999 371.239, 963.997 382.332 C 963.993 402.379, 964.800 408.895, 969.100 423.571 C 969.595 425.260, 970 427.653, 970 428.888 C 970 430.123, 971.125 432.608, 972.500 434.411 C 973.875 436.214, 975 438.227, 975 438.884 C 975 440.402, 978.851 447.993, 980.413 449.555 C 981.062 450.205, 982.585 451.051, 983.797 451.435 C 985.008 451.820, 986 452.554, 986 453.067 C 986 453.580, 990.275 454, 995.500 454 C 1001.167 454, 1005 453.596, 1005 453 C 1005 452.450, 1005.859 452, 1006.909 452 C 1007.959 452, 1011.447 449.245, 1014.659 445.878 C 1017.872 442.510, 1022.801 438.042, 1025.613 435.948 C 1030.123 432.588, 1035 425.821, 1035 422.921 C 1035 422.361, 1035.900 420.041, 1037 417.764 C 1039.543 412.501, 1039.515 411.881, 1036.532 407.294 C 1031.612 399.729, 1026.931 395.202, 1021.243 392.505 C 1015.862 389.955, 1015.216 389.864, 1011 391.070 C 1008.525 391.778, 1003.223 392.380, 999.219 392.409 C 992.162 392.460, 991.838 392.354, 988.710 388.981 C 986.936 387.066, 984.082 384.340, 982.369 382.921 C 978.499 379.717, 977.424 377.710, 976.520 372 C 976.128 369.525, 974.707 365.587, 973.362 363.250 C 971.385 359.816, 970.368 359, 968.065 359 C 966.388 359, 964.964 359.651, 964.607 360.582" stroke="#f9c6c6" fill="#f9c6c6" fill-opacity="0.2" fill-rule="evenodd"/><path class="svg-region-AP" d="M 779.559 445.599 L 775.024 450.199 776.656 455.187 C 778.715 461.481, 778.109 486.866, 775.787 491.586 C 774.999 493.189, 773.778 498.094, 773.072 502.486 C 771.647 511.367, 767.471 520.698, 763.537 523.792 C 761.667 525.263, 761 526.727, 761 529.359 C 761 531.866, 760.424 533.238, 759.066 533.965 C 756.473 535.353, 752.410 535.273, 750.032 533.788 C 744.243 530.173, 747.495 539.124, 754.801 546.915 C 757.935 550.258, 763.174 554.570, 766.441 556.497 C 771.908 559.720, 773.026 560, 780.441 559.999 C 787.296 559.999, 789.436 559.556, 794.761 557.036 C 804.538 552.411, 814.849 541.373, 825.266 524.380 C 826.237 522.796, 829.069 518.575, 831.560 515 C 834.051 511.425, 840.053 500.400, 844.898 490.500 C 851.395 477.224, 855.123 470.885, 859.103 466.346 C 865.736 458.782, 871 452.289, 871 451.673 C 871 451.418, 869.313 451.596, 867.250 452.066 C 861.117 453.465, 813.588 452.123, 805.750 450.329 C 802.038 449.480, 799 448.383, 799 447.892 C 799 447.402, 798.467 447, 797.816 447 C 796.204 447, 788.148 443.048, 787.447 441.913 C 786.290 440.042, 783.968 441.127, 779.559 445.599 M 957.500 446.122 C 954.200 446.606, 948.995 447.458, 945.933 448.016 C 937.480 449.554, 909.567 451.975, 900.129 451.988 L 891.758 452 899.976 460.219 C 905.553 465.796, 909.258 470.548, 911.502 475.003 C 913.320 478.615, 917.265 485.604, 920.267 490.535 C 923.269 495.466, 927.889 503.775, 930.533 509 C 933.177 514.225, 937.904 522.325, 941.038 527 C 946.624 535.333, 960.841 551, 962.818 551 C 963.369 551, 965.741 553.016, 968.088 555.479 C 973.418 561.071, 980.003 563.523, 987.147 562.575 C 992.619 561.849, 1006.834 555.953, 1011.500 552.473 C 1013.150 551.243, 1016.075 549.418, 1018 548.418 C 1020.618 547.059, 1021.059 546.506, 1019.750 546.227 C 1018.390 545.937, 1017.995 544.811, 1017.978 541.177 C 1017.964 538.231, 1017.316 535.741, 1016.228 534.449 C 1014.051 531.864, 1007.460 527, 1006.135 527 C 1003.851 527, 1001 521.138, 1001 516.440 C 1001 512.999, 1000.352 510.835, 998.652 508.594 C 994.938 503.701, 993.984 499.296, 993.079 482.873 C 992.064 464.455, 989.278 454.583, 984.366 452 C 982.797 451.175, 980.835 449.788, 980.007 448.917 C 978.284 447.107, 970.470 444.942, 966.307 445.121 C 964.763 445.187, 960.800 445.638, 957.500 446.122" stroke="#fc7143" fill="#fc7143" fill-opacity="0.2" fill-rule="evenodd"/><path class="svg-region-PP" d="M 794.024 322.173 C 794.061 328.560, 795.683 334.611, 799.552 342.788 C 801.448 346.797, 803 351.015, 803 352.163 C 803 353.982, 803.418 354.168, 806.250 353.612 C 808.038 353.260, 810.002 352.301, 810.616 351.479 C 811.907 349.750, 822.203 346, 825.657 346 C 827.583 346, 828 346.523, 828 348.941 C 828 350.559, 827.543 352.164, 826.985 352.509 C 825.229 353.594, 823.008 360.061, 822.388 365.891 C 822.061 368.976, 820.714 374.277, 819.396 377.671 C 817.805 381.767, 817 385.889, 817 389.934 C 817 393.285, 816.605 396.809, 816.123 397.764 C 815.640 398.719, 814.695 401.232, 814.022 403.349 C 812.591 407.852, 808.303 414.453, 804.504 418 C 803.032 419.375, 800.436 423.425, 798.736 427 C 795.105 434.638, 790.415 441, 788.416 441 C 785.347 441, 787.391 442.662, 794.775 446.170 C 799.024 448.189, 804.750 450.323, 807.500 450.912 C 810.275 451.506, 825.849 452.077, 842.500 452.194 C 868.703 452.378, 873.054 452.189, 876.876 450.702 C 882.193 448.634, 885.860 448.579, 888.441 450.532 C 889.806 451.564, 892.992 452, 899.175 452 C 907.716 452, 940.294 449.409, 942.693 448.539 C 943.349 448.301, 949.506 447.382, 956.375 446.497 C 966.142 445.238, 969.774 445.131, 973.033 446.009 C 975.326 446.626, 977.428 446.905, 977.705 446.628 C 977.982 446.351, 977.487 444.677, 976.604 442.909 C 975.722 441.140, 975 439.242, 975 438.691 C 975 438.140, 973.875 436.214, 972.500 434.411 C 970.931 432.355, 970 429.827, 970 427.626 C 970 425.697, 969.550 423.840, 969 423.500 C 968.450 423.160, 968 421.662, 968 420.171 C 968 418.680, 967.100 414.212, 966 410.243 C 964.301 404.111, 964 399.953, 964 382.594 C 964 371.357, 964.273 361.452, 964.607 360.582 C 964.941 359.712, 965.980 359, 966.917 359 C 969.634 359, 979.238 350.193, 982.343 344.854 C 988.025 335.081, 990.528 325.107, 987.750 323.309 C 987.063 322.864, 980.090 322.480, 972.255 322.455 C 962.528 322.425, 957.629 322.029, 956.805 321.205 C 956.050 320.450, 952.359 320, 946.918 320 L 938.235 320 934.235 324 C 931.686 326.549, 929.322 328, 927.717 328 C 926.332 328, 922.791 329.121, 919.849 330.490 C 915.973 332.295, 912.793 332.983, 908.299 332.990 C 904.888 332.996, 899.713 333.580, 896.799 334.290 C 893.184 335.170, 887.516 335.408, 878.961 335.040 L 866.422 334.500 855.628 329.250 C 849.691 326.363, 844.174 324, 843.367 324 C 842.561 324, 840.461 323.248, 838.700 322.329 C 834.807 320.296, 824.845 319.038, 807.250 318.358 L 794 317.845 794.024 322.173" stroke="#c4743d" fill="#c4743d" fill-opacity="0.2" fill-rule="evenodd"/><path class="svg-region-LPl" d="M 996.250 453.744 C 990.006 453.999, 988 454.421, 988 455.481 C 988 456.251, 989.076 459.945, 990.392 463.690 C 992.289 469.093, 992.900 473.338, 993.347 484.235 C 993.964 499.276, 995.045 504.307, 998.590 508.641 L 1000.928 511.500 1000.964 506.876 C 1001.005 501.670, 1003.025 495.188, 1005.855 491.184 C 1006.898 489.708, 1010.534 483.237, 1013.935 476.805 C 1019.865 465.591, 1020.054 465.012, 1018.542 462.705 C 1017.675 461.382, 1014.738 459.087, 1012.014 457.604 C 1009.290 456.122, 1006.796 454.479, 1006.472 453.954 C 1006.147 453.429, 1005.571 453.092, 1005.191 453.204 C 1004.811 453.315, 1000.788 453.559, 996.250 453.744" stroke="#d2454f" fill="#d2454f" fill-opacity="0.2" fill-rule="evenodd"/><path class="svg-region-LPr" d="M 768.439 454.276 C 765.655 456.049, 761.505 458.400, 759.217 459.500 C 753.582 462.208, 752.701 464.773, 753.312 476.688 C 753.948 489.063, 755.154 495.062, 758.404 502 C 759.821 505.025, 760.985 508.744, 760.990 510.264 C 760.996 511.784, 761.517 513.855, 762.149 514.867 C 763.010 516.246, 763.013 517.524, 762.161 519.968 C 759.625 527.244, 763.969 525.301, 768.591 517.093 C 770.013 514.567, 771.994 508.450, 772.992 503.500 C 773.990 498.550, 775.413 492.925, 776.153 491 C 778.075 486.006, 778.054 454.977, 776.128 452.655 C 774.345 450.506, 774.361 450.503, 768.439 454.276" stroke="#d2454f" fill="#d2454f" fill-opacity="0.2" fill-rule="evenodd"/><path class="svg-region-DMl" d="M 1088.203 314.114 C 1087.267 315.827, 1085.487 318.772, 1084.250 320.659 C 1083.013 322.545, 1082 324.428, 1082 324.841 C 1082 325.255, 1080.313 327.241, 1078.250 329.254 L 1074.500 332.914 1061 331.962 C 1053.575 331.439, 1042.325 330.558, 1036 330.005 C 1029.675 329.451, 1018.650 328.714, 1011.500 328.368 C 1004.329 328.020, 996.988 327.124, 995.128 326.369 C 990.406 324.452, 989.002 324.654, 988.985 327.250 C 988.977 328.488, 988.273 331.505, 987.420 333.955 C 985.655 339.022, 979.167 350.988, 978.164 351.023 C 977.799 351.036, 975.784 352.592, 973.686 354.482 L 969.872 357.918 972.406 361.648 C 973.800 363.699, 975.476 367.880, 976.129 370.939 C 977.725 378.411, 978.999 379.524, 979.004 373.450 C 979.011 364.325, 985.633 357.528, 993.475 358.597 C 1000.590 359.566, 1004.379 361.766, 1006.803 366.334 C 1008.465 369.468, 1010.554 371.393, 1014.862 373.761 C 1022.105 377.743, 1030 384.984, 1030 387.646 C 1030 388.749, 1028.903 390.682, 1027.562 391.942 L 1025.123 394.233 1027.883 396.555 C 1029.401 397.832, 1031.954 400.818, 1033.557 403.189 C 1035.159 405.560, 1039.177 410.219, 1042.485 413.543 L 1048.500 419.585 1057.152 419.801 L 1065.804 420.017 1070.101 415.508 C 1073.154 412.304, 1075.191 411, 1077.140 411 C 1078.648 411, 1080.176 410.524, 1080.536 409.941 C 1081.521 408.348, 1086.508 409.733, 1095.535 414.107 C 1099.954 416.248, 1104.047 418, 1104.630 418 C 1105.213 418, 1106.505 418.900, 1107.500 420 C 1109.821 422.565, 1113.035 422.547, 1115.819 419.954 C 1117.411 418.471, 1117.845 417.231, 1117.397 415.447 C 1117.018 413.935, 1117.400 412.038, 1118.390 410.528 C 1119.275 409.176, 1120 407.057, 1120 405.819 C 1120 403.034, 1117.005 395, 1115.967 395 C 1114.495 395, 1107.982 376.303, 1107.065 369.442 C 1106.554 365.624, 1105.426 360.025, 1104.559 357 C 1103.691 353.975, 1102.691 347.225, 1102.337 342 C 1101.983 336.775, 1101.140 331.600, 1100.463 330.500 C 1099.786 329.400, 1098.936 325.397, 1098.573 321.604 C 1097.735 312.836, 1096.757 311, 1092.918 311 C 1090.579 311, 1089.527 311.695, 1088.203 314.114" stroke="#68533d" fill="#68533d" fill-opacity="0.2" fill-rule="evenodd"/><path class="svg-region-DMr" d="M 674.485 315.024 C 673.954 315.884, 673.449 319.027, 671.040 336.500 C 669.979 344.197, 666.918 355.617, 664.946 359.236 C 664.426 360.191, 664 362.098, 664 363.472 C 664 364.847, 663.560 367.890, 663.023 370.236 C 662.486 372.581, 661.136 378.421, 660.023 383.214 C 658.910 388.006, 658 394.589, 658 397.842 C 658 401.094, 657.380 405.273, 656.623 407.128 C 655.866 408.983, 654.925 412.724, 654.533 415.441 C 654.141 418.159, 652.961 422.563, 651.910 425.228 C 649.465 431.431, 649.495 431.813, 652.542 433.201 C 654.907 434.278, 655.516 433.938, 661.292 428.312 C 664.706 424.986, 668.950 421.440, 670.723 420.433 C 673.889 418.633, 674.014 418.640, 677.859 420.801 C 683.013 423.697, 684.843 423.580, 690.100 420.018 C 694.550 417.003, 700.280 416.026, 701.542 418.068 C 701.905 418.655, 704.519 419.051, 707.351 418.947 C 710.183 418.843, 713.310 419.094, 714.301 419.505 C 717.106 420.670, 720.193 417.007, 726.145 405.450 L 731.500 395.051 736.750 393.867 C 741.536 392.786, 742 392.437, 742 389.909 C 742 386.712, 746.366 383.007, 750.154 382.989 C 756.294 382.960, 760.171 381.679, 761.041 379.393 C 761.526 378.118, 763.627 375.949, 765.711 374.573 C 767.795 373.198, 771.456 370.687, 773.847 368.994 C 776.716 366.962, 778.586 366.231, 779.347 366.843 C 779.981 367.352, 781.916 368.072, 783.646 368.441 C 787.110 369.181, 789.399 371.304, 790.449 374.750 C 792.312 380.862, 794.973 374.820, 795.515 363.251 C 795.729 358.694, 796.177 354.523, 796.511 353.983 C 796.845 353.442, 798.441 353, 800.059 353 C 803.919 353, 803.883 351.165, 799.864 342.927 C 796.092 335.198, 794.028 327.954, 794.012 322.387 L 794 318.274 784.750 317.647 C 779.663 317.302, 771.450 317.465, 766.500 318.008 C 761.550 318.551, 753.900 319.255, 749.500 319.572 C 745.100 319.889, 740.600 320.531, 739.500 320.998 C 738.400 321.465, 735.700 322.095, 733.500 322.399 C 731.300 322.703, 727.351 323.401, 724.724 323.951 C 720.252 324.886, 719.618 324.747, 714.769 321.763 C 709.703 318.645, 709.317 318.574, 697.045 318.475 C 686.556 318.390, 683.724 318.026, 679.769 316.251 C 677.167 315.084, 674.789 314.532, 674.485 315.024" stroke="#68533d" fill="#68533d" fill-opacity="0.2" fill-rule="evenodd"/><path class="svg-region-PMl" d="M 1034.953 279.622 L 1028.500 286.086 1028.180 307.409 C 1027.892 326.630, 1028.026 328.796, 1029.539 329.377 C 1030.463 329.731, 1038.932 330.470, 1048.359 331.019 C 1057.787 331.568, 1067.446 332.294, 1069.824 332.633 C 1073.765 333.195, 1074.459 332.951, 1077.671 329.875 C 1079.608 328.019, 1081.616 325.600, 1082.133 324.500 C 1082.649 323.400, 1084.544 320.025, 1086.343 317 C 1089.520 311.659, 1089.739 311.503, 1093.896 311.593 L 1098.176 311.686 1097.578 307.093 C 1097.248 304.567, 1096.727 299.125, 1096.420 295 C 1096.040 289.906, 1095.031 285.761, 1093.273 282.079 L 1090.685 276.657 1088.555 279.329 C 1086.581 281.805, 1085.866 282, 1078.789 282 C 1068.552 282, 1051.881 278.376, 1043.953 274.427 C 1041.534 273.222, 1041.079 273.485, 1034.953 279.622" stroke="#90cf92" fill="#90cf92" fill-opacity="0.2" fill-rule="evenodd"/><path class="svg-region-PMr" d="M 702.500 277 C 700.342 278.100, 697.722 279, 696.677 279 C 695.631 279, 692.504 281.481, 689.726 284.514 C 685.801 288.800, 683.824 290.164, 680.857 290.639 C 678.756 290.975, 676.629 291.756, 676.130 292.375 C 675.630 292.994, 675.044 298.099, 674.827 303.720 L 674.432 313.939 679.466 316.157 C 683.692 318.019, 686.427 318.391, 696.500 318.474 C 708.039 318.569, 708.729 318.697, 714.460 321.804 L 720.421 325.035 728.960 323.391 C 743.181 320.654, 742 322.648, 742 301.362 C 742 286.637, 741.743 283.161, 740.683 283.568 C 739.959 283.846, 735.233 282.032, 730.182 279.537 C 721.828 275.410, 720.341 275, 713.711 275 C 708.397 275, 705.360 275.542, 702.500 277" stroke="#90cf92" fill="#90cf92" fill-opacity="0.2" fill-rule="evenodd"/><path class="svg-region-PV" d="M 784.500 149.057 C 782.300 149.512, 776.900 149.915, 772.500 149.951 C 761.375 150.043, 754 151.045, 754 152.464 C 754 153.117, 756.498 155.416, 759.552 157.575 C 772.202 166.517, 777.776 170.967, 778.478 172.683 C 779.861 176.061, 783 191.376, 783 194.745 C 783 198.104, 784.534 200.219, 790.098 204.534 C 791.527 205.642, 794.028 209.013, 795.655 212.024 C 801.274 222.423, 803.197 224.983, 806.991 227.115 C 809.085 228.292, 811.390 230.361, 812.114 231.712 C 813.272 233.877, 813.136 234.719, 810.964 238.793 C 806.195 247.741, 798.047 251.508, 780.500 252.876 C 771.700 253.562, 772.073 253.097, 773.983 261 C 775.924 269.031, 782.366 281.966, 790.169 293.500 C 793.146 297.900, 796.386 303.217, 797.369 305.315 C 798.352 307.414, 800.470 311.079, 802.077 313.459 L 804.999 317.788 812.749 318.368 C 826.854 319.423, 835.456 320.686, 839 322.222 C 843.370 324.116, 846.588 325.293, 861 330.270 C 870.581 333.579, 874.186 334.320, 882.601 334.711 C 892.253 335.161, 893.055 335.036, 900.601 331.918 C 904.946 330.123, 909.983 327.538, 911.796 326.173 C 915.057 323.718, 915.180 323.706, 923.343 324.976 L 931.593 326.259 935.019 323.129 C 938.309 320.125, 938.793 320, 947.164 320 C 951.959 320, 956.135 320.410, 956.445 320.911 C 957.170 322.083, 973.153 323.429, 976.470 322.597 C 978.882 321.992, 979 321.628, 979 314.802 C 979 306.317, 980.072 302.838, 985.563 293.500 C 991.016 284.228, 990.973 284.381, 991.994 270.528 C 992.482 263.913, 993.196 254.600, 993.582 249.832 L 994.282 241.165 989.629 240.467 C 987.069 240.083, 984.729 239.371, 984.429 238.885 C 984.128 238.398, 977.834 238, 970.441 238 C 960.370 238, 956.993 237.687, 956.972 236.750 C 956.957 236.063, 955.607 234.188, 953.972 232.583 C 952.338 230.979, 951 229.097, 951 228.400 C 951 226.649, 961.254 206.894, 963.563 204.197 C 964.598 202.989, 966.270 202, 967.279 202 C 968.602 202, 970.082 199.839, 972.586 194.250 C 974.495 189.988, 976.476 185.600, 976.987 184.500 C 977.498 183.400, 978.380 180.700, 978.947 178.500 C 980.593 172.113, 986.846 163.290, 990.947 161.568 C 996.037 159.430, 999.720 156.313, 998.500 155.175 C 996.894 153.677, 976.723 151.174, 960.882 150.508 L 946.265 149.892 945.161 154.274 C 944.554 156.684, 943.757 161.320, 943.388 164.578 C 942.025 176.629, 934.918 192.113, 927.201 199.844 L 922.864 204.188 904.682 203.653 C 894.682 203.359, 883.575 202.885, 880 202.599 C 876.425 202.313, 870.125 201.833, 866 201.533 C 861.875 201.232, 856.925 200.592, 855 200.110 C 853.075 199.628, 848.243 198.660, 844.262 197.958 C 840.281 197.257, 836.389 195.967, 835.613 195.092 C 833.291 192.470, 828.031 182.164, 823.319 171 C 820.881 165.225, 817.470 157.688, 815.739 154.250 L 812.591 148 800.545 148.115 C 793.920 148.178, 786.700 148.602, 784.500 149.057" stroke="#b09658" fill="#b09658" fill-opacity="0.2" fill-rule="evenodd"/><path class="svg-region-LPVl" d="M 1017.250 265.756 C 1007.311 274.034, 1007 274.417, 1006.990 278.396 C 1006.979 283.053, 1003.340 291.560, 1000.142 294.405 C 998.964 295.453, 998 297.029, 998 297.909 C 998 300.111, 991.204 319.196, 989.987 320.413 C 988.451 321.949, 988.826 325, 990.550 325 C 991.402 325, 993.314 325.616, 994.800 326.370 C 996.501 327.233, 1003.141 328, 1012.750 328.444 L 1028 329.149 1028 310.318 C 1028 299.961, 1028.448 289.923, 1028.997 288.012 C 1029.601 285.906, 1032.192 282.441, 1035.577 279.214 L 1041.161 273.891 1036.620 269.663 C 1034.123 267.337, 1031.393 263.792, 1030.555 261.785 C 1029.716 259.779, 1028.686 257.931, 1028.265 257.678 C 1027.844 257.426, 1022.888 261.061, 1017.250 265.756" stroke="#494949" fill="#494949" fill-opacity="0.2" fill-rule="evenodd"/><path class="svg-region-LPVr" d="M 748.250 253.662 C 747.563 253.940, 747 255.142, 746.999 256.333 C 746.999 257.525, 746.069 260.947, 744.932 263.938 C 743.795 266.929, 743.078 270.191, 743.339 271.187 C 743.599 272.183, 743.404 273.250, 742.906 273.558 C 742.407 273.866, 742 284.472, 742 297.168 L 742 320.219 749.250 319.697 C 753.237 319.411, 761.225 318.679, 767 318.072 C 772.775 317.465, 780.319 317.253, 783.764 317.602 C 789.316 318.164, 789.956 318.049, 789.396 316.590 C 789.049 315.685, 787.987 314.528, 787.037 314.020 C 786.087 313.511, 783.557 310.486, 781.416 307.297 C 779.275 304.109, 774.931 298.085, 771.762 293.912 C 767.229 287.942, 765.639 284.858, 764.304 279.449 C 763.038 274.318, 761.234 270.664, 757.191 265.037 C 754.212 260.892, 751.386 256.488, 750.912 255.250 C 750.438 254.012, 749.926 253.036, 749.775 253.079 C 749.624 253.122, 748.938 253.385, 748.250 253.662" stroke="#494949" fill="#494949" fill-opacity="0.2" fill-rule="evenodd"/><path class="svg-region-Fl" d="M 1018.236 216.750 C 1017.190 218.262, 1013.971 223.671, 1011.081 228.770 L 1005.827 238.040 1000.035 239.650 L 994.244 241.260 993.049 257.380 C 991.162 282.831, 990.735 284.925, 985.739 293.197 C 980.294 302.212, 979.884 303.486, 979.117 313.751 L 978.500 322.002 982.691 322.001 C 984.996 322.001, 987.200 322.514, 987.588 323.143 C 988.035 323.866, 988.862 323.224, 989.841 321.393 C 991.935 317.475, 998 300.077, 998 297.988 C 998 297.065, 998.964 295.453, 1000.142 294.405 C 1003.341 291.559, 1006.979 283.053, 1006.990 278.392 C 1007 274.400, 1007.295 274.040, 1017.484 265.583 L 1027.969 256.882 1026.234 254.234 C 1024.783 252.017, 1024.500 249.133, 1024.500 236.543 C 1024.500 222.100, 1023.239 214, 1020.991 214 C 1020.521 214, 1019.281 215.238, 1018.236 216.750" stroke="#5ca7a9" fill="#5ca7a9" fill-opacity="0.2" fill-rule="evenodd"/><path class="svg-region-Fr" d="M 758.063 251.424 C 757.344 252.291, 755.460 253, 753.878 253 C 749.186 253, 749.616 254.110, 760.643 270.442 C 761.822 272.187, 763.523 276.493, 764.424 280.009 C 765.668 284.867, 767.461 288.216, 771.887 293.951 C 775.091 298.103, 778.420 302.878, 779.285 304.563 C 780.150 306.247, 782.956 309.960, 785.521 312.813 L 790.185 318 797.093 318 C 800.892 318, 804 317.613, 804 317.140 C 804 316.666, 802.920 314.688, 801.600 312.743 C 800.280 310.798, 798.907 308.281, 798.548 307.150 C 798.189 306.019, 794.961 300.686, 791.376 295.297 C 781.402 280.309, 777.166 271.569, 772.936 257.250 C 772.120 254.488, 771.106 253, 770.040 253 C 769.138 253, 767.972 252.585, 767.450 252.078 C 766.928 251.571, 764.896 250.861, 762.936 250.501 C 760.310 250.019, 759.027 250.262, 758.063 251.424" stroke="#5ca7a9" fill="#5ca7a9" fill-opacity="0.2" fill-rule="evenodd"/><path class="svg-region-PCl" d="M 1066.008 193.491 C 1064.721 194.861, 1061.830 196.881, 1059.584 197.979 C 1057.198 199.146, 1053.513 202.476, 1050.722 205.988 L 1045.944 212 1035.663 212 C 1023.366 212, 1021.207 212.952, 1023.130 217.530 C 1023.941 219.460, 1024.399 226.101, 1024.439 236.500 C 1024.500 252.374, 1024.522 252.528, 1027.250 256.094 C 1028.763 258.071, 1030 260.141, 1030 260.694 C 1030 263.163, 1036.431 270.206, 1041.143 272.897 C 1050.623 278.311, 1066.245 282, 1079.694 282 C 1086.486 282, 1087.862 281.722, 1088.369 280.250 C 1088.701 279.288, 1089.793 277.150, 1090.797 275.500 C 1091.904 273.679, 1093.057 268.696, 1093.731 262.823 C 1094.829 253.245, 1094.811 253.070, 1091.906 245.823 C 1087.860 235.727, 1084.113 228.317, 1080.353 222.981 C 1078.601 220.495, 1076.386 216.445, 1075.429 213.981 C 1074.472 211.516, 1072.979 208.673, 1072.110 207.662 C 1071.074 206.456, 1070.401 203.271, 1070.156 198.412 C 1069.950 194.335, 1069.459 191, 1069.065 191 C 1068.671 191, 1067.295 192.121, 1066.008 193.491" stroke="#465ee0" fill="#465ee0" fill-opacity="0.2" fill-rule="evenodd"/><path class="svg-region-PCr" d="M 683.005 175.062 C 683.002 176.471, 683.974 179.621, 685.164 182.062 C 687.720 187.305, 688.939 192.297, 689.668 200.511 C 690.181 206.280, 689.984 206.946, 684.790 217.011 C 679.369 227.515, 678.410 230.282, 675.540 243.697 C 673.918 251.277, 673.578 265.977, 674.650 282.164 L 675.290 291.827 678.895 291.277 C 682.461 290.732, 688 288.118, 688 286.980 C 688 286.656, 689.523 284.728, 691.385 282.695 C 693.736 280.129, 695.621 279, 697.556 279 C 699.089 279, 701.211 278.214, 702.273 277.253 C 703.677 275.983, 706.368 275.407, 712.128 275.146 C 719.872 274.794, 720.270 274.893, 729.541 279.494 C 734.759 282.084, 739.697 283.946, 740.514 283.633 C 741.515 283.249, 742 281.637, 742 278.698 C 742 276.297, 742.284 274.049, 742.631 273.702 C 742.979 273.355, 743.354 271.563, 743.466 269.720 C 743.578 267.877, 744.419 264.867, 745.335 263.031 C 746.251 261.195, 747 258.460, 747 256.953 C 747 253.920, 748.485 253, 753.382 253 C 756.340 253, 759 251.550, 759 249.937 C 759 248.806, 747.263 246.717, 744.627 247.379 C 742.846 247.826, 742.042 248.791, 741.816 250.752 C 741.122 256.785, 732.120 253.118, 730.314 246.067 C 729.972 244.728, 729.088 242.478, 728.352 241.067 C 727.615 239.655, 727.010 238.152, 727.006 237.726 C 727.003 237.300, 725.453 234.703, 723.562 231.953 C 719.785 226.463, 714 214.779, 714 212.641 C 714 211.402, 708.731 203.871, 705.033 199.822 C 704.190 198.899, 700.575 194.533, 697 190.120 C 693.425 185.706, 689.938 182.074, 689.250 182.048 C 688.563 182.022, 687.984 181.213, 687.964 180.250 C 687.944 179.287, 686.821 177.150, 685.469 175.500 L 683.010 172.500 683.005 175.062" stroke="#465ee0" fill="#465ee0" fill-opacity="0.2" fill-rule="evenodd"/><path class="svg-region-DV" d="M 819.250 149.802 C 816.362 149.969, 814 150.349, 814 150.648 C 814 150.947, 814.663 152.386, 815.474 153.846 C 817.622 157.713, 826 176.858, 826 177.898 C 826 179.270, 834.805 194.601, 836.233 195.715 C 837.978 197.078, 856.972 200.839, 865.500 201.511 C 883.103 202.899, 887.626 203.145, 904.852 203.653 L 923.204 204.194 926.658 200.847 C 934.720 193.034, 941.248 178.741, 943.435 164.113 C 944.226 158.822, 945.171 153.717, 945.535 152.769 C 946.157 151.149, 942.901 151.057, 891.348 151.239 C 859.827 151.350, 833.948 151.021, 830.500 150.466 C 827.200 149.935, 822.138 149.636, 819.250 149.802" stroke="#45567a" fill="#45567a" fill-opacity="0.2" fill-rule="evenodd"/><path class="svg-region-B" d="M 972.500 656.391 C 964.288 658.680, 957.921 663.948, 955.081 670.804 C 954.353 672.562, 953.314 674, 952.772 674 C 950.112 674, 938.632 680.525, 934.060 684.636 C 925.971 691.909, 924.853 694.959, 923.958 712.194 C 923.537 720.295, 923.550 728.503, 923.985 730.433 C 925.961 739.193, 938.394 753.413, 948.525 758.500 C 956.239 762.373, 962.750 762.294, 976.782 758.156 C 990.047 754.244, 993.172 752.226, 997.674 744.669 C 1000.617 739.728, 1001.440 737.206, 1001.809 732 C 1002.245 725.852, 1001.079 709.260, 998.962 691.500 C 995.744 664.502, 996.296 666.888, 992.322 662.817 C 986.267 656.617, 979.528 654.432, 972.500 656.391 M 793.500 671.954 C 790.848 673.051, 787.364 676.892, 786.176 680.026 C 785.650 681.415, 784.670 687.715, 783.999 694.026 C 783.327 700.337, 781.928 708.754, 780.889 712.732 C 778.564 721.633, 778.301 741.125, 780.412 748.081 C 781.725 752.408, 787.653 762, 789.014 762 C 789.360 762, 790.672 764.276, 791.929 767.057 C 794.499 772.743, 799.528 776.725, 805.329 777.666 C 808.214 778.134, 810.399 777.521, 816.219 774.608 C 830.908 767.257, 838.564 762.704, 841.221 759.740 C 852.805 746.818, 858.134 725.252, 852.645 713.500 C 845.908 699.074, 838.007 690.953, 825.925 686.036 C 820.899 683.991, 817.309 681.700, 814.443 678.709 C 812.149 676.316, 808.681 673.602, 806.735 672.679 C 803 670.906, 796.848 670.569, 793.500 671.954" stroke="#e23b33" fill="#e23b33" fill-opacity="0.2" fill-rule="evenodd"/><path class="svg-region-Ol" d="M 1250.500 246.927 C 1246.650 247.349, 1242.375 248.185, 1241 248.785 C 1239.625 249.385, 1234.900 250.627, 1230.500 251.544 C 1225.959 252.490, 1219.812 254.679, 1216.282 256.606 C 1212.862 258.473, 1209.555 260, 1208.933 260 C 1207.111 260, 1200.671 263.274, 1198.500 265.304 C 1197.400 266.333, 1194.806 268.047, 1192.736 269.115 C 1188.990 271.046, 1180.203 278.650, 1172.416 286.700 C 1164.849 294.522, 1153.646 315.374, 1149.959 328.500 C 1146.205 341.865, 1147.109 366.727, 1151.893 381.676 C 1153.906 387.967, 1153.987 392.144, 1152.452 410.571 C 1151.972 416.334, 1152.159 417.887, 1153.465 418.971 C 1154.917 420.176, 1154.861 420.519, 1152.859 422.650 C 1151.645 423.943, 1150.066 425, 1149.351 425 C 1148.435 425, 1148.216 425.962, 1148.609 428.250 C 1150.410 438.713, 1153.501 441, 1165.845 441 C 1170.815 441, 1175.123 441.389, 1175.417 441.865 C 1175.711 442.341, 1177.654 442.959, 1179.736 443.238 C 1183.874 443.793, 1200 450.806, 1200 452.051 C 1200 452.476, 1201.794 453.127, 1203.986 453.498 C 1209.059 454.355, 1214 458.814, 1214 462.537 C 1214 464.168, 1212.992 466.205, 1211.500 467.588 C 1210.125 468.862, 1209 470.799, 1209 471.893 C 1209 472.987, 1208.550 474.160, 1208 474.500 C 1207.400 474.871, 1207 481.562, 1207 491.213 L 1207 507.307 1203.250 510.952 C 1201.188 512.956, 1198.825 515.489, 1198 516.579 C 1196.091 519.102, 1191.757 521, 1187.907 521 C 1183.960 521, 1171.890 515.236, 1165.069 510.094 C 1162.083 507.842, 1159.086 506, 1158.411 506 C 1157.736 506, 1154.780 504.045, 1151.842 501.656 C 1148.904 499.266, 1144.744 496.734, 1142.598 496.028 C 1140.452 495.322, 1136.833 493.431, 1134.555 491.826 C 1131.696 489.810, 1128.414 488.618, 1123.957 487.973 C 1115.361 486.731, 1100.274 486.748, 1099.500 488 C 1099.160 488.550, 1097.810 489, 1096.500 489 C 1095.190 489, 1093.840 489.450, 1093.500 490 C 1093.160 490.550, 1091.639 491, 1090.119 491 C 1088.600 491, 1085.589 492.337, 1083.428 493.972 C 1081.268 495.607, 1079.128 496.957, 1078.673 496.972 C 1077.189 497.022, 1072.042 502.763, 1070.878 505.666 C 1070.253 507.225, 1069.597 510.755, 1069.420 513.512 C 1069.243 516.268, 1068.106 520.767, 1066.893 523.508 C 1064.860 528.104, 1064.681 530.134, 1064.592 549.522 L 1064.496 570.551 1061.185 577.275 C 1059.364 580.974, 1057.459 584, 1056.950 584 C 1055.813 584, 1051.861 590.263, 1050.008 595 C 1049.256 596.925, 1047.371 600.381, 1045.820 602.680 C 1044.269 604.979, 1043 607.194, 1043 607.601 C 1043 608.009, 1042.367 609.053, 1041.594 609.921 C 1040.204 611.482, 1036.217 622.059, 1033.560 631.233 C 1032.030 636.518, 1032.725 645.268, 1035.289 653 C 1037.325 659.141, 1038.100 662.702, 1038.556 668 C 1038.769 670.475, 1039.404 676.100, 1039.967 680.500 C 1040.531 684.900, 1041.447 692.308, 1042.003 696.961 C 1042.708 702.860, 1043.717 706.495, 1045.336 708.961 C 1046.613 710.908, 1048.851 714.975, 1050.310 718 C 1054.542 726.778, 1058.714 731.679, 1080.738 753.746 C 1101.220 774.266, 1110.686 784.448, 1114.049 789.574 C 1118.475 796.322, 1139.522 816, 1142.313 816 C 1142.895 816, 1144.300 816.843, 1145.436 817.873 C 1148.978 821.086, 1160.433 824.979, 1168.190 825.607 C 1173.840 826.064, 1177.771 825.680, 1185.500 823.915 C 1198.193 821.017, 1205.091 821.198, 1215.916 824.713 C 1223.393 827.141, 1225.983 827.488, 1236 827.407 C 1248.171 827.309, 1250.956 826.667, 1263.276 821.114 C 1278.737 814.146, 1296.047 799.250, 1306.860 783.608 C 1309.677 779.533, 1315.639 769.067, 1320.108 760.350 C 1324.578 751.632, 1328.788 743.825, 1329.463 743 C 1330.139 742.175, 1331.746 739.250, 1333.034 736.500 C 1334.322 733.750, 1337.092 728.680, 1339.188 725.232 C 1341.285 721.785, 1343 718.665, 1343 718.299 C 1343 717.933, 1345.415 713.553, 1348.367 708.567 C 1355.947 695.760, 1363 682.892, 1363 681.869 C 1363 681.391, 1363.406 681, 1363.902 681 C 1364.398 681, 1365.248 679.729, 1365.789 678.175 C 1366.331 676.621, 1368.850 672.317, 1371.387 668.611 C 1373.924 664.906, 1376 661.672, 1376 661.425 C 1376 661.179, 1377.912 658.239, 1380.250 654.892 C 1382.588 651.544, 1385.400 647.293, 1386.500 645.445 C 1388.359 642.321, 1396.429 631.012, 1403.549 621.551 C 1407.687 616.053, 1409.458 612.560, 1411.645 605.585 C 1413.679 599.100, 1417.124 594.998, 1423.095 591.952 C 1427.730 589.587, 1430.729 584.456, 1434.173 573 C 1435.271 569.351, 1439.941 560.417, 1443.142 555.846 C 1444.164 554.386, 1445 552.834, 1445 552.396 C 1445 551.959, 1446.380 550.229, 1448.068 548.551 C 1450.045 546.584, 1454.688 537.697, 1461.134 523.538 C 1469.780 504.547, 1472.641 497.242, 1478.018 480.429 C 1478.558 478.740, 1479 475.307, 1479 472.801 C 1479 470.295, 1479.722 466.516, 1480.604 464.404 C 1482.081 460.870, 1482.421 454.456, 1481.554 446.500 C 1481.374 444.850, 1480.686 438.325, 1480.025 432 C 1479.364 425.675, 1478.430 418.925, 1477.951 417 C 1475.810 408.403, 1473.728 401.420, 1473.032 400.500 C 1472.616 399.950, 1471.958 398.150, 1471.570 396.500 C 1470.160 390.510, 1453.454 356.535, 1447.529 347.609 C 1445.588 344.685, 1444 341.810, 1444 341.219 C 1444 340.628, 1442.987 339.325, 1441.750 338.323 C 1440.513 337.320, 1438.329 334.700, 1436.898 332.500 C 1432.286 325.411, 1425.606 318.262, 1419.984 314.400 C 1416.968 312.328, 1412.925 308.926, 1411 306.841 C 1393.127 287.481, 1374.310 271.363, 1364 266.581 C 1362.625 265.943, 1359.706 264.320, 1357.514 262.973 C 1348.265 257.290, 1328.654 249.655, 1319 247.977 C 1311.205 246.622, 1260.397 245.844, 1250.500 246.927" stroke="#aa444d" fill="#aa444d" fill-opacity="0.2" fill-rule="evenodd"/><path class="svg-region-Or" d="M 509.994 266.322 C 509.715 266.610, 505.665 267.315, 500.994 267.889 C 496.322 268.463, 490.025 269.659, 487 270.547 C 483.975 271.435, 480.825 272.269, 480 272.401 C 479.175 272.533, 477.600 273.006, 476.500 273.451 C 475.400 273.896, 469.325 276.298, 463 278.789 C 456.675 281.280, 451.050 283.651, 450.500 284.057 C 447.309 286.415, 428.169 295.290, 421.430 297.537 C 411.622 300.806, 396.923 307.121, 387 312.327 C 366.772 322.941, 361.621 326.387, 351.120 336.326 C 345.279 341.855, 339.872 347.306, 339.104 348.439 C 338.336 349.573, 337.211 350.954, 336.604 351.510 C 335.997 352.065, 333.521 354.990, 331.102 358.010 C 328.683 361.029, 325.413 364.850, 323.834 366.500 C 320.847 369.621, 309.736 385.925, 306.832 391.447 C 305.914 393.192, 304.452 395.210, 303.582 395.932 C 302.712 396.654, 302 397.820, 302 398.523 C 302 399.990, 297.820 409.278, 296.291 411.209 C 295.728 411.919, 295.032 413.625, 294.743 415 C 294.453 416.375, 293.204 419.975, 291.966 423 C 288.390 431.741, 288.159 432.363, 287.512 435 C 287.174 436.375, 286.063 440.425, 285.041 444 C 280.937 458.369, 280 464.765, 280.039 478.143 C 280.077 491.017, 280.590 494.617, 285.072 513.500 C 286.617 520.010, 290.097 527.827, 293.932 533.402 C 295.620 535.854, 297 538.150, 297 538.505 C 297 538.860, 298.915 542.154, 301.255 545.825 C 303.595 549.496, 306.163 553.769, 306.961 555.320 C 307.760 556.871, 309.366 559.121, 310.531 560.320 C 313.289 563.158, 320 573.400, 320 574.770 C 320 575.355, 320.341 575.983, 320.757 576.167 C 322.007 576.717, 327.320 584.075, 331.468 591 C 333.609 594.575, 337.254 600.425, 339.569 604 C 341.884 607.575, 346.335 615.447, 349.460 621.494 C 354.340 630.937, 356.328 635.228, 361.967 648.500 C 363.518 652.149, 368.936 663.476, 369.859 665 C 370.359 665.825, 373.999 673.071, 377.948 681.103 C 382.588 690.541, 387.757 699.187, 392.563 705.551 C 396.654 710.966, 400 715.655, 400 715.970 C 400 716.285, 401.971 718.691, 404.380 721.315 C 406.789 723.939, 409.864 728.204, 411.214 730.793 C 417.895 743.612, 430.387 765.815, 432.694 768.971 C 433.687 770.330, 435.884 773.709, 437.575 776.480 C 439.266 779.251, 442.755 784.379, 445.329 787.875 C 447.903 791.372, 450.875 796.190, 451.934 798.583 C 460.145 817.146, 493.515 850.587, 512 858.778 C 522.240 863.316, 524.183 864.005, 525.112 863.430 C 525.649 863.099, 526.630 863.275, 527.294 863.822 C 531.289 867.114, 562.011 869.187, 573.174 866.917 C 598.021 861.865, 609.018 857.562, 621.505 848.006 C 627.846 843.152, 643.595 826.232, 647.807 819.746 C 648.738 818.312, 652.010 813.395, 655.077 808.819 C 660.938 800.077, 667 790.272, 667 789.535 C 667 788.676, 673.460 779.389, 677.935 773.814 C 680.446 770.686, 683.625 766.505, 685 764.523 C 688.003 760.192, 692.188 754.421, 694.806 751 C 701.290 742.526, 720.469 712.845, 725.176 704 C 744.162 668.323, 749.377 616.838, 737.494 582.384 C 734.224 572.903, 732.670 570.559, 723.673 561.540 L 716.730 554.581 715.423 546.040 C 714.704 541.343, 713.174 535.700, 712.023 533.500 C 710.871 531.300, 709.438 527.574, 708.838 525.220 C 708.008 521.961, 706.355 519.679, 701.913 515.659 C 695.717 510.052, 693.016 505.965, 693.006 502.179 C 693 499.813, 690.921 497, 689.178 497 C 688.648 497, 687.955 496.325, 687.638 495.500 C 687.322 494.675, 686.374 494, 685.531 494 C 684.689 494, 684 493.637, 684 493.192 C 684 490.444, 668.928 487.594, 666.450 489.874 C 665.928 490.355, 660.888 491.776, 655.250 493.032 C 649.612 494.289, 645 495.695, 645 496.158 C 645 496.621, 644.121 497, 643.047 497 C 641.973 497, 640.060 497.402, 638.797 497.893 C 637.534 498.384, 633.688 499.622, 630.250 500.643 C 626.813 501.664, 624 502.837, 624 503.250 C 624 503.662, 623.503 504, 622.895 504 C 619.650 504, 596 518.432, 596 520.412 C 596 522.614, 587.563 530, 585.042 530.006 C 583.644 530.010, 581.211 530.685, 579.636 531.506 C 575.894 533.457, 574.758 533.392, 572.080 531.070 C 570.230 529.465, 570.043 528.787, 570.974 527.049 C 572.424 524.340, 571.538 523.022, 568.191 522.909 C 566.711 522.860, 563.254 521.604, 560.508 520.119 C 555.699 517.518, 555.487 517.219, 554.732 511.969 C 554.285 508.869, 552.818 504.812, 551.328 502.561 C 545.685 494.034, 547.699 483.504, 556.750 474.212 C 559.638 471.248, 562 468.406, 562 467.898 C 562 467.389, 562.395 466.191, 562.878 465.236 C 566.807 457.465, 568.363 448.961, 566.111 447.568 C 565.622 447.266, 564.912 445.777, 564.533 444.259 C 564.154 442.742, 563.160 440.741, 562.324 439.813 C 559.103 436.238, 563.697 434.581, 567.359 437.997 C 577.899 447.828, 580.018 448.751, 588.351 447.133 C 591.733 446.477, 597.425 446.039, 601 446.161 C 607.157 446.370, 616.917 443.813, 617.833 441.750 C 618.017 441.337, 618.804 441, 619.583 441 C 621.397 441, 621.414 436.129, 619.608 433.750 C 618.877 432.788, 617.092 432, 615.640 432 C 613.483 432, 613 431.537, 613 429.474 C 613 427.083, 619.596 417, 621.160 417 C 621.563 417, 621.870 412.837, 621.841 407.750 C 621.810 402.123, 622.432 396.150, 623.429 392.500 C 626.418 381.566, 627.283 374.635, 627.298 361.500 C 627.320 342.890, 626.588 339.100, 620.521 326.396 C 615.907 316.736, 601.795 295.029, 600.099 294.984 C 599.769 294.975, 597.925 293.567, 596 291.854 C 589.512 286.082, 582.329 281, 580.660 281 C 579.747 281, 576.863 279.910, 574.251 278.577 C 568.866 275.831, 566.938 275.041, 558.500 272.115 C 550.197 269.237, 544.433 268.100, 535.315 267.543 C 531.017 267.280, 523.675 266.780, 519 266.432 C 514.325 266.083, 510.272 266.034, 509.994 266.322" stroke="#aa444d" fill="#aa444d" fill-opacity="0.2" fill-rule="evenodd"/><path class="svg-region-OABl" d="M 1143.056 435.085 C 1140.061 436.668, 1137.215 438.095, 1136.731 438.256 C 1136.246 438.418, 1135.202 441.689, 1134.411 445.525 C 1133.619 449.361, 1132.668 453.175, 1132.297 454 C 1131.926 454.825, 1131.145 457.478, 1130.561 459.895 C 1129.977 462.313, 1128.825 464.647, 1128 465.082 C 1122.098 468.195, 1118.715 469.261, 1113.222 469.736 C 1108.100 470.178, 1105.821 469.838, 1100.856 467.889 C 1097.507 466.575, 1094.547 464.938, 1094.277 464.250 C 1094.007 463.563, 1093.247 463, 1092.589 463 C 1091.931 463, 1089.866 461.425, 1088 459.500 C 1085.215 456.626, 1083.882 456.002, 1080.554 456.012 C 1071.798 456.038, 1062.561 459.680, 1054.714 466.202 C 1050.578 469.639, 1049.150 470.228, 1044.214 470.529 C 1041.071 470.721, 1038.174 470.906, 1037.775 470.939 C 1036.593 471.038, 1038.958 476.313, 1041.317 478.836 C 1045.034 482.813, 1058.022 488, 1064.262 488 C 1066.253 488, 1068.160 488.449, 1068.499 488.999 C 1068.839 489.548, 1066.228 494.610, 1062.698 500.249 C 1054.847 512.788, 1052.654 516.987, 1053.508 517.841 C 1053.869 518.202, 1054.838 517.598, 1055.663 516.498 C 1058.622 512.555, 1059.605 511.458, 1062.743 508.598 C 1065.363 506.210, 1066.193 505.915, 1067.420 506.934 C 1069.036 508.275, 1070.978 507.607, 1071.036 505.691 C 1071.094 503.776, 1075.163 499.483, 1079.750 496.499 C 1082.088 494.978, 1084 493.364, 1084 492.912 C 1084 492.460, 1085.688 491.821, 1087.750 491.491 C 1089.813 491.161, 1092.281 490.465, 1093.236 489.945 C 1094.191 489.425, 1095.852 489, 1096.927 489 C 1098.002 489, 1099.160 488.550, 1099.500 488 C 1100.265 486.761, 1115.327 486.726, 1123.740 487.943 C 1127.906 488.545, 1131.438 489.829, 1134.364 491.803 C 1136.774 493.430, 1140.491 495.330, 1142.623 496.026 C 1144.755 496.721, 1146.725 497.574, 1147 497.921 C 1148.301 499.562, 1155.946 505.013, 1158.564 506.166 C 1160.179 506.877, 1161.725 507.693, 1162 507.980 C 1163.683 509.731, 1172.444 515.193, 1177.853 517.864 C 1186.656 522.210, 1193.944 521.779, 1198 516.673 C 1198.825 515.634, 1201.187 513.146, 1203.248 511.142 L 1206.997 507.500 1206.998 491.309 C 1206.999 482.404, 1207.415 474.861, 1207.923 474.548 C 1208.431 474.234, 1209.142 472.628, 1209.504 470.980 C 1209.866 469.332, 1211.026 467.521, 1212.081 466.956 C 1217.423 464.098, 1211.846 454.826, 1203.986 453.498 C 1201.794 453.127, 1200 452.461, 1200 452.017 C 1200 450.783, 1187.869 445.205, 1182.374 443.911 C 1179.693 443.280, 1176.719 442.367, 1175.764 441.882 C 1174.809 441.397, 1170.038 441, 1165.162 441 C 1156.762 441, 1156.145 440.851, 1153.398 438.152 C 1151.804 436.585, 1150.050 434.607, 1149.500 433.755 C 1148.625 432.400, 1147.820 432.566, 1143.056 435.085" stroke="#81244d" fill="#81244d" fill-opacity="0.2" fill-rule="evenodd"/><path class="svg-region-OABr" d="M 617 430.845 C 617 431.310, 617.900 432.505, 619 433.500 C 621.510 435.771, 621.663 440.555, 619.250 441.325 C 618.288 441.632, 614.800 443.042, 611.500 444.459 C 606.556 446.581, 604.580 446.923, 600.271 446.404 C 597.262 446.042, 592.247 446.330, 588.459 447.083 C 582.130 448.341, 581.707 448.298, 577.439 445.967 C 574.997 444.633, 573 443.220, 573 442.827 C 573 442.435, 571.650 441.316, 570 440.341 C 568.350 439.366, 567 437.991, 567 437.284 C 567 435.740, 562.393 435.556, 561.461 437.063 C 561.100 437.648, 561.488 438.885, 562.324 439.813 C 563.160 440.741, 564.154 442.742, 564.533 444.259 C 564.912 445.777, 565.622 447.266, 566.111 447.568 C 567.485 448.418, 567.162 455.557, 565.583 459.216 C 564.804 461.022, 563.480 464.075, 562.641 466 C 561.801 467.925, 559.084 471.638, 556.603 474.252 C 550.498 480.683, 548.500 485.183, 548.500 492.500 C 548.500 497.428, 549.002 499.240, 551.311 502.641 C 553.220 505.454, 554.308 508.588, 554.703 512.408 C 555.203 517.251, 555.611 518.115, 557.642 518.625 C 558.939 518.950, 560 519.618, 560 520.108 C 560 520.599, 560.873 521, 561.941 521 C 563.009 521, 564.160 521.450, 564.500 522 C 564.840 522.550, 566.415 523, 568 523 C 571.487 523, 572.466 524.281, 570.899 526.790 C 569.953 528.304, 570.085 529.076, 571.587 530.831 C 573.773 533.384, 575.722 533.547, 579.636 531.506 C 581.211 530.685, 583.608 530.010, 584.962 530.006 C 587.420 530, 595.967 522.693, 596.031 520.542 C 596.049 519.969, 597.168 518.695, 598.520 517.712 C 602.967 514.476, 617.127 506, 618.087 506 C 619.057 506, 623.115 503.915, 624 502.962 C 624.275 502.665, 627.200 501.595, 630.500 500.582 C 633.800 499.570, 637.534 498.349, 638.797 497.871 C 640.060 497.392, 641.973 497, 643.047 497 C 644.121 497, 645 496.630, 645 496.178 C 645 495.726, 649.752 494.290, 655.559 492.987 C 661.367 491.683, 666.344 490.253, 666.618 489.809 C 666.893 489.364, 669.350 489, 672.079 489 C 675.648 489, 678.151 489.701, 681 491.500 C 683.178 492.875, 685.397 494, 685.930 494 C 686.464 494, 687.314 494.739, 687.819 495.642 C 688.523 496.898, 689.413 497.097, 691.619 496.490 C 693.204 496.054, 696.862 495.689, 699.750 495.679 C 704.748 495.662, 705 495.536, 705 493.031 C 705 489.252, 706.761 488, 712.075 488 C 716.485 488, 716.785 487.827, 717.359 484.954 C 718.074 481.381, 722.079 475.727, 726.891 471.500 L 730.306 468.500 724.903 467.734 C 721.931 467.312, 715.809 466.547, 711.297 466.034 C 697.704 464.486, 694.544 461.977, 695.177 453.230 L 695.595 447.455 690.047 453.097 C 683.603 459.651, 679.703 461, 667.206 461 C 653.970 461, 649 458.387, 649 451.428 C 649 449.084, 649.337 447.017, 649.750 446.833 C 650.617 446.448, 654.003 436.898, 653.994 434.866 C 653.990 434.115, 652.604 432.712, 650.913 431.750 C 648.351 430.292, 645.266 430, 632.419 430 C 623.939 430, 617 430.380, 617 430.845" stroke="#81244d" fill="#81244d" fill-opacity="0.2" fill-rule="evenodd"/><path class="svg-region-PNl" d="M 1038 57.022 C 1036.075 57.457, 1031.850 58.292, 1028.612 58.877 C 1025.373 59.462, 1021.998 60.520, 1021.112 61.229 C 1020.225 61.937, 1017.813 63.372, 1015.750 64.416 C 1013.688 65.460, 1012 66.634, 1012 67.025 C 1012 67.415, 1010.182 68.937, 1007.961 70.407 C 1005.739 71.877, 1003.041 74.525, 1001.965 76.290 C 998.718 81.614, 999.602 92.757, 1003.923 101 C 1004.933 102.925, 1006.311 106.750, 1006.985 109.500 C 1008.111 114.089, 1008.005 115.046, 1005.689 121.148 C 1003.606 126.637, 1003.324 128.496, 1004.069 131.812 C 1004.730 134.752, 1004.573 136.957, 1003.486 140.040 C 1002.669 142.356, 1002 145.265, 1002 146.504 C 1002 149.569, 999.163 156.137, 997.147 157.739 C 996.241 158.459, 993.387 160.157, 990.805 161.513 C 987.089 163.464, 985.384 165.283, 982.624 170.239 C 980.707 173.683, 978.835 177.850, 978.464 179.500 C 976.776 186.999, 970.064 200.140, 967.181 201.589 C 964.113 203.130, 961.394 206.510, 958.482 212.402 C 957.097 215.206, 955.550 218.175, 955.045 219 C 953.392 221.701, 951 227.284, 951.016 228.404 C 951.025 229.007, 952.375 231.023, 954.016 232.886 C 955.657 234.748, 957 236.636, 957 237.081 C 957 237.527, 962.962 238.081, 970.250 238.311 C 977.538 238.542, 985.996 239.300, 989.046 239.996 C 993.803 241.081, 995.392 241.028, 1000.214 239.626 L 1005.835 237.992 1012.275 226.746 C 1020.276 212.773, 1021.322 212.116, 1035.670 212.048 L 1045.841 212 1050.670 206.053 C 1053.327 202.783, 1057.162 199.252, 1059.193 198.207 C 1065.617 194.903, 1069.813 190.525, 1070.574 186.334 C 1071.515 181.154, 1076.626 171.225, 1084.671 158.946 C 1085.952 156.992, 1087.006 154.742, 1087.012 153.946 C 1087.019 153.151, 1088.723 150.673, 1090.797 148.440 C 1092.872 146.206, 1095.744 141.931, 1097.178 138.940 C 1098.613 135.948, 1101.596 129.675, 1103.807 125 L 1107.827 116.500 1108.485 100.618 L 1109.142 84.735 1103.946 79.857 C 1101.067 77.154, 1095.128 73.206, 1090.625 71.002 C 1086.156 68.815, 1081.150 66.133, 1079.500 65.043 C 1073.393 61.008, 1070.722 59.849, 1065.425 58.935 C 1062.441 58.421, 1057.412 57.553, 1054.250 57.006 C 1047.708 55.875, 1043.051 55.879, 1038 57.022" stroke="#bbc0d1" fill="#bbc0d1" fill-opacity="0.2" fill-rule="evenodd"/><path class="svg-region-PNr" d="M 652.500 40.328 C 650.300 41.559, 646.676 43.739, 644.446 45.172 C 642.216 46.605, 639.516 47.945, 638.446 48.149 C 637.353 48.358, 636.362 49.490, 636.184 50.731 C 635.835 53.173, 631.203 54.955, 625 55.033 C 620.582 55.089, 604.760 61.204, 604.155 63.089 C 603.906 63.865, 602.656 65.758, 601.377 67.295 C 600.099 68.833, 598.600 71.772, 598.047 73.827 C 596.468 79.691, 598.188 83.903, 604.689 90.091 C 607.815 93.066, 614.901 100.071, 620.436 105.659 C 625.971 111.246, 635.203 120.246, 640.952 125.659 C 656.881 140.657, 667 151.751, 667 154.215 C 667 157.003, 670.342 161.850, 674.371 164.904 C 676.115 166.226, 678.633 169.035, 679.967 171.146 C 681.375 173.375, 682.672 174.531, 683.060 173.903 C 683.749 172.789, 688 178.782, 688 180.868 C 688 181.491, 688.675 182, 689.500 182 C 690.325 182, 691.004 182.338, 691.009 182.750 C 691.014 183.162, 693.305 186.200, 696.100 189.500 C 704.403 199.302, 704.645 199.592, 709.416 205.450 C 711.937 208.545, 714 211.908, 714 212.923 C 714 215.020, 721.592 230.630, 723.050 231.531 C 723.939 232.080, 725.720 235.644, 730.031 245.500 C 732.550 251.259, 735.646 254.177, 738.843 253.807 C 740.903 253.569, 741.571 252.883, 741.816 250.752 C 742.042 248.791, 742.846 247.826, 744.627 247.379 C 747.551 246.645, 757.385 248.509, 764.500 251.146 C 770.734 253.456, 781.736 253.575, 791.960 251.442 C 801.165 249.522, 807.490 245.312, 810.964 238.793 C 813.149 234.694, 813.277 233.887, 812.095 231.678 C 811.362 230.308, 809.228 228.361, 807.354 227.351 C 803.781 225.427, 800.487 221.130, 795.660 212.097 C 792.919 206.968, 789.899 203.475, 785.554 200.410 C 784.158 199.425, 783.398 197.265, 782.865 192.768 C 781.796 183.745, 779.264 173.023, 777.780 171.235 C 776.526 169.724, 767.105 162.468, 763.842 160.500 C 762.930 159.950, 760.338 158.150, 758.080 156.500 C 754.280 153.722, 754.019 153.232, 754.555 149.875 C 755.048 146.787, 754.745 145.944, 752.507 144.184 C 749.526 141.840, 746.060 137.286, 742.975 131.662 C 741.817 129.551, 738.923 125.951, 736.544 123.662 C 734.165 121.373, 730.673 116.575, 728.784 113 C 726.896 109.425, 724.858 105.600, 724.257 104.500 C 723.655 103.400, 722.181 100.250, 720.980 97.500 C 719.779 94.750, 718.221 91.825, 717.519 91 C 716.817 90.175, 714.276 85.734, 711.871 81.132 C 708.534 74.744, 705.165 70.365, 697.632 62.632 C 686.410 51.110, 680.481 46.487, 670.528 41.496 C 662.401 37.421, 658.182 37.147, 652.500 40.328" stroke="#bbc0d1" fill="#bbc0d1" fill-opacity="0.2" fill-rule="evenodd"/><path class="svg-region-ODMl" d="M 1120 406.476 C 1120 407.353, 1119.275 409.176, 1118.390 410.528 C 1117.400 412.038, 1117.018 413.935, 1117.397 415.447 C 1117.845 417.231, 1117.411 418.471, 1115.819 419.954 C 1113.035 422.547, 1109.821 422.565, 1107.500 420 C 1106.505 418.900, 1104.947 418, 1104.039 418 C 1103.131 418, 1100.864 416.875, 1099 415.500 C 1097.136 414.125, 1094.825 413, 1093.865 413 C 1092.904 413, 1091.874 412.605, 1091.576 412.123 C 1090.598 410.540, 1081.810 408.790, 1080.652 409.948 C 1080.073 410.527, 1078.429 411, 1076.999 411 C 1075.207 411, 1073.024 412.441, 1069.986 415.629 L 1065.574 420.257 1058.287 419.641 C 1053.422 419.230, 1051 419.379, 1051 420.088 C 1051 420.673, 1052.823 424.272, 1055.051 428.087 C 1058.800 434.506, 1059.638 435.288, 1066.301 438.577 C 1074.445 442.598, 1077.176 444.833, 1080.704 450.364 C 1084.139 455.749, 1090.981 463, 1092.627 463 C 1093.382 463, 1094 463.410, 1094 463.911 C 1094 464.412, 1096.138 465.874, 1098.750 467.161 C 1104.852 470.166, 1116.431 470.430, 1122.500 467.702 C 1129.200 464.692, 1129.465 464.435, 1130.561 459.895 C 1131.145 457.478, 1131.926 454.825, 1132.297 454 C 1132.668 453.175, 1133.619 449.361, 1134.411 445.525 C 1135.202 441.689, 1136.246 438.418, 1136.731 438.256 C 1137.215 438.095, 1140.061 436.697, 1143.056 435.150 C 1147.729 432.735, 1148.500 431.930, 1148.500 429.468 C 1148.500 426.896, 1147.983 426.441, 1143.500 425.071 C 1138.684 423.599, 1133.960 419.582, 1124.917 409.270 C 1121.472 405.342, 1120 404.506, 1120 406.476" stroke="#999999" fill="#999999" fill-opacity="0.2" fill-rule="evenodd"/><path class="svg-region-ODMr" d="M 690.703 419.473 C 686.439 423.303, 683.344 423.679, 678.269 420.987 C 673.905 418.671, 673.889 418.671, 670.550 420.583 C 668.711 421.637, 664.310 425.240, 660.771 428.589 C 655.359 433.712, 654.033 435.656, 652.419 440.831 C 651.363 444.215, 650.163 446.987, 649.750 446.991 C 648.519 447.005, 648.964 455.377, 650.282 457 C 652.358 459.557, 658.298 461, 666.745 461 C 679.737 461, 684.224 459.539, 689.772 453.501 C 698.771 443.709, 701 441.170, 701 440.716 C 701 440.465, 704.825 436.382, 709.500 431.644 C 718.047 422.981, 719.711 420, 716 420 C 714.900 420, 714 419.663, 714 419.250 C 714.001 418.837, 711.413 418.425, 708.250 418.333 C 705.088 418.241, 700.475 417.895, 698 417.563 C 694.126 417.045, 693.111 417.311, 690.703 419.473" stroke="#999999" fill="#999999" fill-opacity="0.2" fill-rule="evenodd"/><path class="svg-region-HRl" d="M 988 358.695 C 982.696 360.674, 979 367.044, 979.001 374.200 C 979.002 379.416, 979.108 379.603, 985.638 385.985 L 992.275 392.470 999.387 392.434 C 1003.299 392.414, 1008.413 391.803, 1010.752 391.076 C 1014.618 389.876, 1015.468 389.955, 1020.109 391.952 L 1025.214 394.148 1027.607 391.900 C 1028.923 390.663, 1030 388.744, 1030 387.636 C 1030 384.989, 1021.107 376.825, 1014.399 373.313 C 1010.531 371.288, 1008.597 369.486, 1007.118 366.528 C 1005.924 364.139, 1003.760 361.818, 1001.802 360.824 C 998.213 359.003, 990.403 357.798, 988 358.695" stroke="#d9dba1" fill="#d9dba1" fill-opacity="0.2" fill-rule="evenodd"/><path class="svg-region-HRr" d="M 770.522 371.016 C 766.685 373.692, 762.410 377.251, 761.022 378.923 C 758.926 381.451, 757.521 382.076, 752.703 382.625 C 745.667 383.428, 741.752 386.090, 742.195 389.772 C 742.695 393.935, 748.493 395.426, 758.774 394.036 C 763.324 393.421, 768.597 393.209, 770.491 393.564 C 775.289 394.464, 781.449 391.276, 787.370 384.828 C 791.262 380.589, 792.017 379.178, 791.519 377.073 C 790.483 372.699, 787.708 369.875, 782.500 367.899 C 779.750 366.855, 777.500 366.035, 777.500 366.075 C 777.500 366.116, 774.360 368.339, 770.522 371.016" stroke="#d9dba1" fill="#d9dba1" fill-opacity="0.2" fill-rule="evenodd"/>
    </svg>