<svg xmlns="http://www.w3.org/2000/svg" width="1785" height="1131" viewBox="0 0 1785 1131" version="1.1">
    <path class="svg-region-AAB" d="M 749.444 465.746 C 743.293 471.303, 740.593 473, 737.903 473 C 736.285 473, 733.134 474.153, 730.901 475.562 C 726.154 478.559, 722.738 478.264, 716.653 474.330 C 710.981 470.663, 706.782 470.244, 704.140 473.080 C 701.655 475.748, 701.261 480, 703.500 480 C 704.325 480, 705 480.420, 705 480.933 C 705 481.446, 705.866 482.140, 706.924 482.476 C 709.074 483.158, 715.550 489.328, 730.831 505.250 L 741.148 516 746.435 516 C 749.342 516, 753.809 515.714, 756.360 515.364 L 761 514.728 761 510.499 C 761 507.756, 760.283 505.358, 758.959 503.675 C 754.319 497.777, 749.705 473.937, 752.159 468.550 C 753.752 465.054, 752.099 463.347, 749.444 465.746 M 1029.334 476.750 C 1028.302 478.813, 1025.587 483.875, 1023.300 488 C 1021.013 492.125, 1018.357 498.425, 1017.398 502 C 1016.439 505.575, 1015.037 509.232, 1014.284 510.126 C 1013.531 511.020, 1012.662 513.311, 1012.352 515.217 C 1011.800 518.620, 1011.872 518.704, 1016.421 519.978 C 1018.968 520.691, 1021.291 521.663, 1021.585 522.137 C 1021.878 522.612, 1023.409 523, 1024.988 523 C 1028.281 523, 1031 525.277, 1031 528.036 C 1031 529.078, 1031.868 530.394, 1032.928 530.961 C 1034.542 531.825, 1035.521 531.302, 1038.945 527.747 C 1041.194 525.411, 1045.121 520.125, 1047.672 516 C 1050.222 511.875, 1053.420 506.995, 1054.777 505.156 C 1056.135 503.317, 1057.448 500.304, 1057.697 498.461 C 1058.107 495.420, 1057.579 494.575, 1051.976 489.305 C 1048.581 486.112, 1044.497 482.668, 1042.901 481.652 C 1041.306 480.635, 1040 479.414, 1040 478.938 C 1040 478.056, 1033.080 473, 1031.872 473 C 1031.508 473, 1030.365 474.688, 1029.334 476.750" stroke="#7f3c1a" fill="#7f3c1a" fill-opacity="0.2" fill-rule="evenodd"/><path class="svg-region-IBl" d="M 1050.867 434.099 C 1048.393 437.307, 1048.215 437.360, 1037.799 438.025 C 1028.855 438.596, 1026.266 439.172, 1020.870 441.793 C 1017.366 443.495, 1013.268 445.937, 1011.762 447.222 L 1009.023 449.557 1018.029 457.862 C 1022.983 462.430, 1027.687 467.429, 1028.484 468.969 C 1029.281 470.510, 1031.973 472.966, 1034.466 474.427 C 1036.960 475.889, 1039 477.499, 1039 478.006 C 1039 478.513, 1040.630 480.035, 1042.622 481.389 C 1044.614 482.743, 1048.889 486.409, 1052.122 489.536 C 1055.355 492.663, 1058 494.661, 1058 493.976 C 1058 493.290, 1059.115 491.696, 1060.477 490.434 C 1061.929 489.088, 1063.216 486.499, 1063.587 484.179 C 1064.028 481.420, 1064.945 479.832, 1066.610 478.941 C 1068.615 477.868, 1069 476.897, 1069 472.913 C 1069 465.830, 1069.572 465, 1074.451 465 C 1077.591 465, 1079.442 464.331, 1081.594 462.417 C 1083.193 460.996, 1085.737 459.377, 1087.250 458.819 C 1088.763 458.261, 1090 457.414, 1090 456.937 C 1090 455.466, 1086.307 454, 1082.601 454 C 1073.313 454, 1062.872 447.929, 1059.468 440.550 C 1058.187 437.773, 1056.292 434.453, 1055.257 433.173 L 1053.375 430.846 1050.867 434.099" stroke="#b10e0e" fill="#b10e0e" fill-opacity="0.2" fill-rule="evenodd"/><path class="svg-region-IBr" d="M 725 427.318 C 725 428.594, 724.283 432.081, 723.407 435.068 C 722.063 439.650, 720.536 441.753, 713.657 448.503 C 708.750 453.316, 702.212 458.429, 697.250 461.334 C 692.712 463.990, 689 466.480, 689 466.867 C 689 467.487, 699.740 469.828, 710.075 471.460 C 712.041 471.771, 714.605 472.915, 715.772 474.002 C 716.939 475.090, 719.845 476.501, 722.230 477.139 C 726.240 478.212, 726.882 478.100, 730.763 475.649 C 733.075 474.190, 736.429 472.996, 738.230 472.991 C 740.598 472.985, 742.532 472.004, 745.241 469.437 C 749.927 464.995, 767.803 456, 771.944 456 C 777.643 456, 788.596 447.346, 787.599 443.630 C 787.285 442.459, 787.021 439.587, 787.014 437.250 C 787.004 434.145, 786.596 433, 785.500 433 C 784.675 433, 784 433.357, 784 433.793 C 784 435.018, 775.513 436.999, 770.236 437.007 C 767.193 437.011, 764.428 437.723, 762.500 439 C 758.564 441.607, 755.569 441.516, 750.588 438.639 C 748.224 437.274, 744.068 436.039, 740.733 435.710 C 736.296 435.272, 734.047 434.413, 730.983 431.986 C 728.792 430.251, 727 427.970, 727 426.916 C 727 425.862, 726.550 425, 726 425 C 725.450 425, 725 426.043, 725 427.318" stroke="#b10e0e" fill="#b10e0e" fill-opacity="0.2" fill-rule="evenodd"/><path class="svg-region-MB" d="M 1017.872 401.666 C 1016.770 401.960, 1016.031 403.712, 1015.582 407.097 C 1015.217 409.845, 1014.347 412.313, 1013.648 412.582 C 1011.708 413.326, 995.030 410.396, 990.196 408.462 C 987.843 407.520, 985.664 407.002, 985.356 407.311 C 985.047 407.620, 985.751 410.746, 986.920 414.259 C 989.825 422.989, 990.279 437.901, 987.726 440.739 C 983.955 444.930, 989.833 449.022, 1000.692 449.764 C 1007.664 450.241, 1008.031 450.149, 1012.692 446.764 C 1017.096 443.565, 1021.262 441.373, 1026.500 439.498 C 1027.600 439.105, 1032.950 438.457, 1038.390 438.058 C 1048.072 437.349, 1048.338 437.262, 1051.113 433.917 C 1052.671 432.038, 1053.958 429.878, 1053.973 429.118 C 1054.002 427.610, 1050.394 421.339, 1048.206 419.097 C 1047.453 418.326, 1045.134 415.401, 1043.052 412.597 C 1038.520 406.495, 1036.476 404.683, 1032.500 403.243 C 1029.016 401.981, 1020.241 401.035, 1017.872 401.666 M 739.776 407.371 C 738.278 408.035, 735.633 410.720, 733.900 413.337 C 731.205 417.406, 730.739 419.035, 730.687 424.583 C 730.608 432.993, 732.288 434.878, 740.583 435.687 C 743.837 436.004, 747.175 436.793, 748 437.439 C 750.239 439.192, 754.833 441, 757.051 441 C 758.127 441, 760.686 440.100, 762.739 439 C 764.850 437.869, 768.381 437, 770.869 437 C 775.956 437, 782.906 435.150, 784.821 433.286 C 785.548 432.579, 786.754 432, 787.501 432 C 788.247 432, 790.247 429.942, 791.944 427.427 L 795.031 422.854 793.265 417.861 C 791.772 413.638, 790.722 412.422, 786.457 409.979 C 779.833 406.184, 774.257 405.299, 770.201 407.396 C 766.372 409.376, 757.382 409.434, 754 407.500 C 750.983 405.776, 743.525 405.708, 739.776 407.371" stroke="#f9c6c6" fill="#f9c6c6" fill-opacity="0.2" fill-rule="evenodd"/><path class="svg-region-AP" d="M 788.883 447.750 C 788.688 452.346, 788.757 463.390, 789.130 487.500 C 789.513 512.241, 788.457 523.436, 784.971 531.569 C 783.887 534.097, 783 537.190, 783 538.442 C 783 541.386, 777.476 551.958, 774.688 554.350 L 772.531 556.200 775.217 558.510 C 782.575 564.840, 799.033 567.432, 809.017 563.834 C 811.483 562.945, 815.619 561.666, 818.208 560.991 C 820.798 560.316, 824.714 558.225, 826.912 556.344 C 832.435 551.615, 857.314 518.745, 864 507.340 C 868.704 499.317, 878.456 487.839, 882.210 485.908 C 889.337 482.243, 889.264 482.197, 907.011 501.500 C 909.972 504.720, 913 510.109, 913 512.159 C 913 513.791, 930.543 544.500, 933.916 548.772 C 939.987 556.461, 943 559.655, 945.180 560.713 C 960.088 567.947, 966.608 569.393, 981.666 568.802 C 993.864 568.324, 998.326 566.732, 1005.731 560.221 L 1009.961 556.500 1006.622 551.271 C 1004.786 548.395, 1002.040 542.545, 1000.522 538.271 C 999.003 533.997, 995.998 526.599, 993.845 521.831 C 991.691 517.064, 989.238 510.764, 988.392 507.831 C 982.604 487.749, 982.689 488.337, 981.347 459.250 L 980.689 445 977.595 445.017 C 972.363 445.047, 957.133 447.828, 951.162 449.844 C 939.202 453.882, 931.178 455.887, 922.500 457.004 C 917.550 457.641, 911.250 458.658, 908.500 459.264 C 897.882 461.602, 833.876 459.218, 824.500 456.135 C 822.850 455.592, 817 453.920, 811.500 452.419 C 806 450.918, 800.612 449.085, 799.527 448.345 C 798.443 447.605, 796.557 447, 795.337 447 C 794.116 447, 792.840 446.550, 792.500 446 C 791.227 443.941, 788.999 445.019, 788.883 447.750" stroke="#fc7143" fill="#fc7143" fill-opacity="0.2" fill-rule="evenodd"/><path class="svg-region-PP" d="M 825.693 316.648 C 823.787 317.197, 822.264 320.201, 820.952 326 C 820.516 327.925, 818.823 333.100, 817.189 337.500 C 815.555 341.900, 812.907 349.100, 811.304 353.500 C 809.701 357.900, 807.852 362.483, 807.195 363.684 C 806.538 364.886, 806 366.804, 806 367.948 C 806 369.091, 805.596 370.809, 805.103 371.764 C 800.300 381.057, 799.833 385.642, 802.927 393.122 L 805.152 398.500 803.129 403.209 C 802.016 405.800, 800.786 409.625, 800.395 411.709 C 799.645 415.709, 796.958 421.158, 794.087 424.500 C 793.142 425.600, 791.601 427.738, 790.662 429.250 C 789.722 430.762, 788.396 432, 787.715 432 C 786.815 432, 786.616 433.553, 786.988 437.674 C 787.439 442.673, 787.857 443.557, 790.500 445.101 C 792.150 446.065, 794.412 446.887, 795.527 446.927 C 796.643 446.967, 798.443 447.577, 799.527 448.282 C 804.356 451.421, 826.278 456.979, 838.500 458.163 C 858.754 460.125, 889.959 461.093, 900 460.070 C 923.235 457.703, 935.539 455.268, 951 449.975 C 956.722 448.017, 973.723 445, 979.039 445 C 983.840 445, 987.687 442.478, 989.013 438.462 C 991.408 431.204, 988.123 414.073, 982.116 402.500 C 979.894 398.218, 979.467 395.939, 979.146 386.630 L 978.771 375.760 974.942 371.696 C 972.347 368.941, 970.898 366.321, 970.444 363.566 C 970.075 361.330, 969.302 358.916, 968.725 358.203 C 968.126 357.461, 967.424 348.680, 967.088 337.703 L 966.500 318.500 954.500 318.624 C 947.900 318.692, 939.350 319.277, 935.500 319.923 C 931.650 320.570, 924.900 321.500, 920.500 321.989 C 908.988 323.269, 901.857 324.702, 890.351 328.048 C 884.769 329.672, 878.954 331, 877.429 331 C 874.380 331, 862.378 326.530, 860 324.508 C 856.554 321.578, 849.109 318.553, 843.500 317.803 C 833.677 316.489, 827.612 316.096, 825.693 316.648" stroke="#c4743d" fill="#c4743d" fill-opacity="0.2" fill-rule="evenodd"/><path class="svg-region-LPl" d="M 982.503 444.374 C 980.699 445.694, 980.671 446.625, 981.812 467.624 C 982.929 488.188, 983.804 493.984, 987.372 504.464 C 988.128 506.684, 989.302 510.300, 989.981 512.500 C 990.660 514.700, 992.742 519.598, 994.608 523.384 C 996.474 527.171, 998 530.908, 998 531.689 C 998 533.933, 1003.822 547.038, 1007.070 552.104 L 1010.021 556.708 1022.010 544.704 C 1033.345 533.355, 1035.247 531, 1033.078 531 C 1032.570 531, 1031.642 529.447, 1031.016 527.548 C 1030.309 525.407, 1029.045 523.873, 1027.688 523.509 C 1026.485 523.187, 1022.462 521.938, 1018.750 520.735 C 1011.175 518.279, 1010.672 517.276, 1013.929 511.136 C 1014.990 509.136, 1016.827 504.350, 1018.012 500.500 C 1019.197 496.650, 1021.444 491.250, 1023.007 488.500 C 1024.570 485.750, 1027.045 481.188, 1028.508 478.363 L 1031.167 473.225 1028.675 469.277 C 1027.305 467.106, 1022.493 461.935, 1017.983 457.785 L 1009.783 450.239 1001.642 449.810 C 993.637 449.387, 988.781 447.588, 986.700 444.274 C 985.680 442.649, 984.834 442.670, 982.503 444.374" stroke="#d2454f" fill="#d2454f" fill-opacity="0.2" fill-rule="evenodd"/><path class="svg-region-LPr" d="M 787.300 446.354 C 786.860 447.099, 784.025 449.572, 781 451.850 C 777.079 454.802, 774.528 455.993, 772.113 455.996 C 767.370 456.002, 751.677 463.716, 752.428 465.672 C 752.739 466.482, 752.534 468.002, 751.973 469.050 C 751.276 470.353, 751.303 473.887, 752.059 480.228 C 753.323 490.831, 755.993 499.905, 758.959 503.675 C 760.283 505.358, 761 507.756, 761 510.499 L 761 514.728 756.360 515.364 C 753.809 515.714, 749.534 516, 746.860 516 C 744.187 516, 742 516.431, 742 516.959 C 742 517.486, 744.587 521.022, 747.750 524.816 C 750.913 528.610, 755.300 534.305, 757.500 537.471 C 763.909 546.695, 771.222 554.500, 773.457 554.500 C 775.925 554.500, 781.695 545.356, 782.567 540.061 C 782.890 538.102, 784.071 534.138, 785.193 531.251 C 788.440 522.891, 789.399 513.007, 789.195 490 C 789.090 478.175, 788.961 463.212, 788.909 456.750 C 788.856 450.288, 788.653 445, 788.456 445 C 788.260 445, 787.740 445.609, 787.300 446.354" stroke="#d2454f" fill="#d2454f" fill-opacity="0.2" fill-rule="evenodd"/><path class="svg-region-DMl" d="M 1093.352 318.993 C 1092.171 319.470, 1090.925 320.312, 1090.584 320.864 C 1090.242 321.417, 1087.597 322.557, 1084.706 323.397 C 1080.314 324.674, 1079.042 325.604, 1076.975 329.057 C 1072.342 336.790, 1062.707 345.107, 1060.702 343.102 C 1060.096 342.496, 1058.678 341.998, 1057.550 341.995 C 1056.422 341.992, 1053.700 340.881, 1051.500 339.526 C 1049.116 338.058, 1045.946 337.050, 1043.654 337.031 C 1041.539 337.014, 1038.614 336.162, 1037.154 335.139 C 1033.604 332.649, 1028.838 331.305, 1021 330.581 C 1017.425 330.251, 1011.575 328.901, 1008 327.580 C 994.453 322.577, 984.412 320.123, 975.621 319.666 L 966.743 319.205 967.194 338.036 C 967.460 349.164, 968.080 357.406, 968.709 358.183 C 969.295 358.908, 970.073 361.300, 970.440 363.500 C 971.293 368.627, 976.827 375.119, 979.703 374.367 C 982.122 373.735, 997.028 380.628, 1000.284 383.884 C 1002.269 385.869, 1008.109 385.154, 1011.589 382.500 C 1013.392 381.125, 1015.303 380, 1015.836 380 C 1017.439 380, 1024 390.656, 1024 393.259 C 1024 395.656, 1020.764 398, 1017.453 398 C 1016.654 398, 1016 398.795, 1016 399.766 C 1016 401.243, 1016.985 401.554, 1022.013 401.670 C 1025.320 401.746, 1030.157 402.524, 1032.763 403.398 C 1035.368 404.272, 1042.575 405.401, 1048.778 405.907 C 1056.888 406.569, 1061.180 407.413, 1064.059 408.913 C 1071.135 412.602, 1075 411.556, 1075 405.952 C 1075 403.843, 1075.416 401.861, 1075.925 401.546 C 1078.116 400.192, 1092.059 408.640, 1093.747 412.344 C 1094.424 413.830, 1096.016 414.953, 1098.010 415.352 C 1099.761 415.702, 1103.197 417.341, 1105.647 418.994 C 1111.226 422.760, 1112 422.750, 1112 418.913 C 1112 414.179, 1107.997 391.881, 1106.540 388.500 C 1104.290 383.276, 1102.001 367.688, 1101.976 357.414 C 1101.963 351.961, 1101.474 345.700, 1100.889 343.500 C 1100.304 341.300, 1099.449 336.524, 1098.989 332.888 C 1098.231 326.908, 1096.241 317.905, 1095.711 318.063 C 1095.595 318.098, 1094.534 318.517, 1093.352 318.993" stroke="#68533d" fill="#68533d" fill-opacity="0.2" fill-rule="evenodd"/><path class="svg-region-DMr" d="M 799 317.164 C 791.387 318.237, 768.713 325.395, 765.038 327.885 C 763.642 328.831, 759.800 330.424, 756.500 331.424 C 753.200 332.425, 750.230 333.669, 749.900 334.188 C 748.139 336.960, 719.315 335.822, 708.500 332.552 C 705.750 331.721, 699.675 328.772, 695 325.999 C 684.056 319.507, 682.733 319.657, 681.751 327.500 C 679.942 341.941, 678.706 353.934, 678.453 359.500 C 678.303 362.800, 677.723 369.325, 677.164 374 C 676.605 378.675, 675.686 386.325, 675.122 391 C 673.807 401.890, 671.756 408.613, 666.817 418.223 C 664.634 422.470, 663.134 426.408, 663.483 426.973 C 663.832 427.538, 666.679 427.998, 669.809 427.996 C 677.494 427.991, 681.491 425.491, 684.186 419.005 C 686.670 413.029, 691.809 410.013, 699.566 409.978 C 702.301 409.966, 706.443 409.074, 708.859 407.978 C 711.257 406.890, 714.407 405.990, 715.859 405.978 C 717.312 405.966, 720.462 405.066, 722.859 403.978 C 729.266 401.071, 733.422 401.369, 736.625 404.964 C 738.708 407.301, 739.647 407.724, 741.067 406.964 C 742.058 406.434, 744.232 406, 745.899 406 C 749.722 406, 751.787 402.851, 750.080 399.625 C 749.203 397.969, 749.346 396.286, 750.727 392.003 C 752.303 387.117, 753.056 386.197, 757.500 383.729 C 761.860 381.308, 763.197 381.032, 767.943 381.573 C 771.226 381.946, 774.598 383.087, 776.443 384.448 C 778.124 385.690, 780.023 386.999, 780.663 387.358 C 781.303 387.717, 783.660 386.249, 785.901 384.095 C 788.621 381.482, 791.270 379.961, 793.867 379.523 C 797.588 378.894, 797.809 379.010, 798.946 382.183 L 800.134 385.500 802.330 378.821 C 803.537 375.147, 804.857 371.809, 805.263 371.404 C 805.668 370.998, 806 369.797, 806 368.734 C 806 367.672, 806.642 365.384, 807.427 363.651 C 808.211 361.918, 810.082 357.125, 811.584 353 C 813.085 348.875, 815.632 341.900, 817.243 337.500 C 818.855 333.100, 820.521 327.925, 820.947 326 C 822.078 320.885, 824.053 317.153, 825.889 316.662 C 829.036 315.822, 805.392 316.262, 799 317.164" stroke="#68533d" fill="#68533d" fill-opacity="0.2" fill-rule="evenodd"/><path class="svg-region-PMl" d="M 1030.750 250.162 L 1028 251.167 1028 261.518 C 1028 267.212, 1027.546 273.063, 1026.992 274.522 C 1025.478 278.502, 1025.296 300.785, 1026.738 305.500 C 1027.411 307.700, 1031.683 315.438, 1036.231 322.696 C 1043.946 335.007, 1044.884 336.096, 1050.231 338.946 C 1053.383 340.626, 1056.781 342, 1057.781 342 C 1058.781 342, 1060.105 342.505, 1060.723 343.123 C 1062.769 345.169, 1072.213 337.008, 1076.942 329.108 C 1078.666 326.228, 1080.430 324.709, 1082.942 323.943 C 1084.899 323.346, 1089.081 321.653, 1092.235 320.179 C 1096.946 317.978, 1097.876 317.143, 1097.445 315.500 C 1097.156 314.400, 1096.717 307.650, 1096.469 300.500 C 1095.987 286.597, 1095.077 275, 1094.467 275 C 1094.262 275, 1092.970 275.512, 1091.597 276.138 C 1089.607 277.044, 1088.400 276.943, 1085.649 275.638 C 1083.751 274.737, 1080.760 274, 1079.003 274 C 1077.246 274, 1074.614 273.365, 1073.154 272.589 C 1071.694 271.814, 1067.350 270.184, 1063.500 268.968 C 1059.650 267.752, 1055.927 266.298, 1055.226 265.736 C 1054.471 265.132, 1051.357 264.958, 1047.588 265.310 C 1042.337 265.800, 1040.971 265.606, 1039.781 264.202 C 1037.920 262.005, 1035 254.075, 1035 251.217 C 1035 248.771, 1034.737 248.706, 1030.750 250.162" stroke="#90cf92" fill="#90cf92" fill-opacity="0.2" fill-rule="evenodd"/><path class="svg-region-PMr" d="M 721.891 259.864 C 718.926 261.439, 715.410 263.069, 714.077 263.486 C 711.475 264.301, 711.354 264.382, 705.868 268.965 C 703.870 270.634, 701.967 272, 701.637 272 C 701.308 272, 698.443 273.688, 695.269 275.750 C 692.096 277.813, 688.600 279.736, 687.500 280.024 C 683.821 280.987, 681.482 287.589, 681.662 296.500 C 681.982 312.312, 683.056 321, 684.689 321 C 685.519 321, 690.416 323.482, 695.571 326.516 C 707.092 333.296, 714.637 335.066, 733.102 335.320 L 746.236 335.500 748.224 329.500 C 750.756 321.855, 751.777 300.824, 750.112 290.622 C 746.694 269.689, 745.644 265.494, 743.138 262.750 C 741.756 261.238, 739.865 260, 738.935 260 C 738.006 260, 736.685 259.325, 736 258.500 C 734.013 256.105, 727.843 256.702, 721.891 259.864" stroke="#90cf92" fill="#90cf92" fill-opacity="0.2" fill-rule="evenodd"/><path class="svg-region-PV" d="M 796.500 143.162 C 794.300 143.675, 791.150 144.353, 789.500 144.669 C 787.850 144.985, 785.825 145.809, 785 146.499 C 784.175 147.190, 781.475 148.076, 779 148.468 C 776.525 148.859, 772.852 149.702, 770.838 150.340 L 767.176 151.500 770.553 159.500 C 772.410 163.900, 773.946 168.752, 773.965 170.282 C 773.984 171.812, 774.675 174.680, 775.500 176.654 C 776.325 178.629, 777 182.576, 777 185.426 C 777 189.440, 777.661 191.651, 779.934 195.234 C 781.547 197.779, 783.345 201.579, 783.928 203.680 C 785.508 209.371, 785.240 222.078, 783.433 227.124 C 781.295 233.096, 782.139 237.200, 787.498 246.888 C 792.985 256.808, 795.204 261.647, 797.868 269.500 C 800.609 277.580, 806.628 299.539, 807.462 304.500 C 807.832 306.700, 809.211 310.150, 810.527 312.168 L 812.919 315.835 825.210 316.341 C 839.947 316.947, 847.141 318.033, 852.500 320.463 C 854.700 321.460, 858.525 322.634, 861 323.070 C 863.475 323.507, 868.650 325.009, 872.500 326.407 C 881.955 329.840, 886.585 329.678, 898.429 325.500 C 903.886 323.575, 909.284 321.994, 910.425 321.987 C 911.566 321.980, 915.425 321.048, 919 319.915 C 924.440 318.192, 927.783 317.887, 939.500 318.043 C 963.062 318.358, 964.994 318.225, 965.595 316.250 C 966.174 314.344, 971.229 300.913, 973.780 294.500 C 974.655 292.300, 976.863 288.361, 978.685 285.748 C 980.508 283.134, 982 280.631, 982 280.185 C 982 279.739, 983.138 277.016, 984.528 274.134 C 985.919 271.251, 988.229 264.755, 989.662 259.697 C 991.095 254.638, 993.067 248.813, 994.043 246.750 C 995.434 243.811, 995.526 243, 994.468 243 C 993.726 243, 992.840 243.450, 992.500 244 C 991.457 245.687, 987.498 245.112, 985.161 242.935 C 983.942 241.800, 980.773 240.527, 978.119 240.108 C 972.919 239.286, 967 235.742, 967 233.451 C 967 232.674, 965.763 231.767, 964.250 231.436 C 959.302 230.351, 959 230.096, 959 227.003 C 959 223.909, 963.923 212.976, 966.771 209.746 C 967.622 208.781, 969.934 207.549, 971.909 207.009 C 973.884 206.469, 977.188 204.468, 979.250 202.564 C 982.963 199.137, 983 199.024, 983.019 191.301 C 983.038 183.355, 986.524 167.337, 989.148 163.134 C 989.870 161.979, 992.044 160.363, 993.980 159.543 C 995.916 158.724, 998.400 157.339, 999.500 156.465 C 1001.476 154.895, 1001.477 154.859, 999.559 153.438 C 998.370 152.557, 994.882 151.933, 990.559 151.826 C 977.788 151.511, 974.558 151.240, 969.500 150.058 C 966.750 149.416, 962.250 148.644, 959.500 148.342 L 954.500 147.794 954.327 152.388 C 954.231 154.918, 952.995 159.431, 951.577 162.429 C 950.160 165.425, 949 168.616, 949 169.520 C 949 170.988, 944.197 183.167, 942.113 186.983 C 941.582 187.956, 939.515 188.531, 936.105 188.655 C 933.246 188.758, 926.765 189.385, 921.703 190.047 C 916.641 190.710, 908.225 191.358, 903 191.489 C 897.775 191.619, 890.749 192.070, 887.387 192.491 C 880.284 193.380, 860.189 191.569, 852 189.301 C 848.975 188.463, 841.970 186.893, 836.433 185.811 L 826.366 183.845 821.983 176.860 C 819.573 173.019, 817.103 169.566, 816.495 169.188 C 812.803 166.890, 805 149.610, 805 143.732 C 805 141.795, 802.956 141.658, 796.500 143.162" stroke="#b09658" fill="#b09658" fill-opacity="0.2" fill-rule="evenodd"/><path class="svg-region-LPVl" d="M 998.759 239.075 C 996.415 240.441, 992.859 248.523, 989.656 259.768 C 988.203 264.866, 985.887 271.264, 984.508 273.985 C 983.128 276.707, 982 279.397, 982 279.964 C 982 280.531, 980.465 283.134, 978.589 285.748 C 976.713 288.361, 974.422 292.525, 973.496 295 C 972.571 297.475, 971.418 300.400, 970.935 301.500 C 966.627 311.297, 964.806 318.931, 966.750 319.044 C 983.027 319.990, 993.476 321.970, 1003.500 326.008 C 1010.830 328.961, 1014.461 329.941, 1020.105 330.486 C 1027.296 331.181, 1035 332.940, 1035 333.886 C 1035 334.981, 1040.873 337.158, 1042.924 336.823 C 1044.647 336.541, 1043.786 334.699, 1036.149 322.335 C 1025.374 304.889, 1024.364 301.090, 1026.090 284.500 C 1026.719 278.450, 1027.432 268.531, 1027.674 262.458 C 1028.103 251.686, 1028.052 251.355, 1025.581 248.958 C 1018.769 242.347, 1017.122 241.833, 1010.872 244.367 C 1004.616 246.903, 1002.346 247.132, 1002.352 245.226 C 1002.373 237.974, 1001.935 237.225, 998.759 239.075" stroke="#494949" fill="#494949" fill-opacity="0.2" fill-rule="evenodd"/><path class="svg-region-LPVr" d="M 749.210 232.753 C 745.358 236.118, 744.818 237.151, 743.917 242.883 C 743.365 246.394, 742.258 250.534, 741.457 252.084 C 739.269 256.315, 739.684 259.323, 742.878 262.383 C 744.618 264.050, 745.978 266.595, 746.318 268.820 C 746.628 270.844, 747.808 277.817, 748.941 284.316 C 752.148 302.719, 751.585 320.338, 747.440 331.250 C 746.090 334.805, 746.120 335, 748.008 335 C 749.104 335, 750 334.609, 750 334.132 C 750 333.654, 752.799 332.478, 756.220 331.518 C 759.641 330.558, 764.021 328.699, 765.952 327.387 C 767.884 326.074, 770.053 325, 770.772 325 C 771.492 325, 776.675 323.449, 782.290 321.554 C 787.906 319.658, 796.517 317.611, 801.426 317.004 C 806.336 316.397, 810.714 315.677, 811.154 315.405 C 811.595 315.132, 811.066 313.251, 809.980 311.223 C 808.893 309.195, 807.729 305.953, 807.394 304.018 C 806.591 299.390, 799.186 272.613, 797.294 267.500 C 794.741 260.599, 793.892 258.614, 791.735 254.500 C 790.582 252.300, 787.885 247.125, 785.743 243 C 782.768 237.270, 781.409 235.571, 779.983 235.803 C 778.309 236.075, 773.690 234.472, 764.349 230.380 C 758.591 227.858, 753.987 228.580, 749.210 232.753" stroke="#494949" fill="#494949" fill-opacity="0.2" fill-rule="evenodd"/><path class="svg-region-PCl" d="M 1064.779 180.250 C 1063.981 181.488, 1062.771 184.750, 1062.089 187.500 C 1061.407 190.250, 1060.266 193.175, 1059.552 194 C 1058.838 194.825, 1055.497 200.942, 1052.127 207.594 C 1046.924 217.865, 1045.993 220.504, 1045.956 225.094 C 1045.932 228.067, 1045.353 233.200, 1044.669 236.500 C 1043.608 241.620, 1043.077 242.550, 1041.050 242.841 C 1035.456 243.644, 1033.668 249.817, 1036.669 257.967 C 1039.415 265.421, 1040.457 266.161, 1047.149 265.404 C 1051.863 264.870, 1053.758 265.136, 1057.378 266.838 C 1059.822 267.986, 1063.999 269.463, 1066.661 270.118 C 1069.322 270.774, 1072.388 271.916, 1073.473 272.655 C 1074.557 273.395, 1076.942 274, 1078.772 274 C 1080.602 274, 1083.457 274.702, 1085.117 275.561 C 1092.296 279.273, 1095.876 274.850, 1094.073 264.497 C 1092.549 255.746, 1085.292 238.642, 1078.317 227.361 C 1067.535 209.924, 1067.924 210.867, 1067.346 200.775 C 1067.054 195.674, 1066.876 188.463, 1066.951 184.750 C 1067.027 181.037, 1066.895 178, 1066.659 178 C 1066.423 178, 1065.577 179.012, 1064.779 180.250" stroke="#465ee0" fill="#465ee0" fill-opacity="0.2" fill-rule="evenodd"/><path class="svg-region-PCr" d="M 695 182.427 C 695 182.797, 695.725 184.502, 696.612 186.216 C 697.977 188.856, 698.113 191.394, 697.502 202.807 C 696.817 215.583, 696.222 218.364, 692.368 226.798 C 691.539 228.612, 689.764 234.420, 688.423 239.704 C 687.083 244.989, 685.469 249.935, 684.838 250.695 C 684.169 251.501, 683.521 257.172, 683.285 264.289 L 682.879 276.500 685.583 278.405 C 687.686 279.886, 688.643 280.059, 689.893 279.182 C 690.777 278.562, 692.942 277.326, 694.704 276.436 C 696.466 275.545, 698.434 274.182, 699.076 273.408 C 699.719 272.634, 700.688 272, 701.229 272 C 702.048 272, 709.319 266.807, 711 265.021 C 711.275 264.728, 713.300 263.859, 715.500 263.090 C 717.700 262.320, 720.635 260.851, 722.023 259.825 C 723.411 258.799, 726.889 257.682, 729.752 257.343 C 734.023 256.837, 735.071 257.020, 735.586 258.363 C 736.510 260.772, 740 260.460, 740 257.968 C 740 256.850, 740.673 254.324, 741.496 252.354 C 742.320 250.384, 743.430 246.057, 743.965 242.738 L 744.936 236.704 740.967 232.852 C 738.784 230.733, 736.661 228.999, 736.249 228.997 C 735.837 228.995, 732.350 226.088, 728.500 222.538 C 724.650 218.987, 721.203 216.063, 720.841 216.041 C 719.499 215.958, 703 196.516, 703 195.018 C 703 194.164, 701.875 191.809, 700.500 189.785 C 699.125 187.762, 698 185.687, 698 185.175 C 698 184.664, 697.325 183.685, 696.500 183 C 695.675 182.315, 695 182.058, 695 182.427" stroke="#465ee0" fill="#465ee0" fill-opacity="0.2" fill-rule="evenodd"/><path class="svg-region-DV" d="M 807.750 141.716 C 804.284 142.241, 804.267 143.553, 807.597 153.636 C 810.034 161.019, 814.390 169, 815.982 169 C 816.373 169, 818.872 172.332, 821.536 176.404 L 826.380 183.807 832.440 184.969 C 835.773 185.608, 843 187.218, 848.500 188.549 C 861.398 191.668, 878.694 193.442, 887 192.498 C 890.575 192.091, 898.030 191.637, 903.567 191.488 C 909.105 191.339, 917.655 190.698, 922.567 190.064 C 927.480 189.429, 933.701 188.818, 936.391 188.705 C 939.565 188.572, 941.554 187.973, 942.055 187 C 945.122 181.047, 948.084 173.798, 948.627 170.918 C 948.981 169.038, 950.283 165.250, 951.520 162.500 C 952.757 159.750, 954.034 156.042, 954.357 154.261 C 955.522 147.848, 956.124 148.009, 930.643 147.916 C 917.914 147.869, 904.800 147.423, 901.500 146.924 C 898.200 146.425, 881.100 145.590, 863.500 145.068 C 844.422 144.503, 827.462 143.492, 821.500 142.566 C 816 141.711, 811.275 141.077, 811 141.156 C 810.725 141.235, 809.263 141.487, 807.750 141.716" stroke="#45567a" fill="#45567a" fill-opacity="0.2" fill-rule="evenodd"/><path class="svg-region-B" d="M 812.939 638.354 C 808.371 639.597, 803.466 642.528, 801.017 645.480 C 800.299 646.345, 795.904 649.128, 791.251 651.664 C 775.904 660.030, 771.509 666.823, 769.835 684.769 C 768.752 696.374, 766.893 726.335, 766.743 734.608 C 766.619 741.426, 770.390 751.286, 774.925 755.999 C 776.972 758.127, 781.065 760.738, 784.500 762.108 C 789.783 764.214, 792.054 764.494, 803.500 764.448 C 820.037 764.381, 825.485 762.531, 833.401 754.293 C 842.502 744.821, 856 713.003, 856 701.021 C 856 694.819, 852.213 676.236, 848.926 666.310 C 845.044 654.583, 836.416 643.799, 828 640.153 C 821.545 637.356, 818.115 636.946, 812.939 638.354 M 953.500 642.912 C 946.488 644.858, 935.178 651.252, 930.758 655.769 C 922.744 663.960, 915.219 682.760, 911.630 703.554 C 909.410 716.418, 911.763 727.603, 919.321 740.106 C 922.605 745.539, 923.957 746.913, 929.457 750.404 C 943.558 759.355, 955.439 760.845, 969.096 755.376 C 978.719 751.522, 990.575 743.607, 993.584 739.028 C 997.205 733.516, 997.949 727.994, 997.976 706.425 C 998.002 684.399, 995.810 667.455, 991.876 659.272 C 989.004 653.300, 980.939 646.363, 974.653 644.459 C 968.401 642.565, 957.596 641.775, 953.500 642.912" stroke="#e23b33" fill="#e23b33" fill-opacity="0.2" fill-rule="evenodd"/><path class="svg-region-Ol" d="M 1258.500 252.523 C 1232.069 256.423, 1211.874 263.660, 1200.891 273.167 C 1193.037 279.966, 1186.699 285.117, 1182.263 288.306 C 1180.117 289.850, 1177.717 292.041, 1176.930 293.176 C 1173.323 298.380, 1165.542 308.206, 1162.337 311.604 C 1157.131 317.124, 1154.360 321.950, 1149.873 333.312 C 1145.436 344.549, 1144.401 352.094, 1143.539 379.500 C 1143.239 389.028, 1142.447 396.056, 1141.061 401.500 C 1139.832 406.327, 1139.019 412.772, 1139.012 417.750 C 1139.005 422.307, 1138.573 426, 1138.047 426 C 1137.522 426, 1137.718 427.238, 1138.481 428.750 C 1139.244 430.262, 1141.094 434.082, 1142.591 437.237 C 1147.604 447.799, 1149.298 448.310, 1175.009 447.012 C 1206.772 445.407, 1207.699 445.462, 1213.511 449.259 C 1218.292 452.383, 1220.492 456.335, 1218.314 457.887 C 1215.456 459.923, 1214 464.329, 1214 470.939 L 1214 477.948 1206.500 482.065 C 1202.375 484.328, 1199 486.834, 1199 487.632 C 1199 491.618, 1191.111 496.004, 1182.588 496.757 C 1179.240 497.052, 1176.206 497.747, 1175.846 498.301 C 1175.486 498.855, 1170.990 499.439, 1165.855 499.598 C 1157.318 499.864, 1156.004 499.643, 1150.509 497.021 C 1147.204 495.443, 1139.100 491.598, 1132.500 488.476 C 1125.900 485.353, 1120.275 482.471, 1120 482.071 C 1118.210 479.467, 1112.115 478, 1103.096 478.004 C 1092.013 478.008, 1090.711 478.571, 1081.423 487.374 C 1078.165 490.461, 1074.713 492.990, 1073.750 492.994 C 1071.373 493.002, 1071.489 496.437, 1074.004 500.506 C 1075.772 503.367, 1075.831 503.895, 1074.504 504.997 C 1073.677 505.683, 1073 506.864, 1073 507.620 C 1073 508.377, 1071.501 511.134, 1069.669 513.748 C 1067.836 516.361, 1065.590 520.530, 1064.677 523.010 C 1062.552 528.786, 1059.048 544.597, 1059.028 548.500 C 1058.994 555.328, 1055.653 569.531, 1053.500 572 C 1052.301 573.375, 1050.398 576.329, 1049.272 578.565 C 1048.146 580.801, 1045.778 584.176, 1044.009 586.065 C 1037.867 592.627, 1031.013 610.661, 1029.402 624.500 C 1027.938 637.076, 1030.122 662.623, 1033.145 668.271 C 1033.726 669.356, 1033.928 671.609, 1033.594 673.278 C 1032.857 676.964, 1034.581 691.292, 1036.750 699.500 C 1038.569 706.386, 1044.325 719.050, 1047.701 723.594 C 1048.965 725.296, 1050 727.050, 1050 727.491 C 1050 729.216, 1058.145 738.184, 1073.624 753.500 C 1082.517 762.300, 1093.484 773.775, 1097.994 779 C 1114.033 797.579, 1118.563 802.327, 1126.980 809.381 C 1142.298 822.219, 1144.402 822.992, 1169.500 825.001 C 1181.652 825.973, 1187.295 826.570, 1212.500 829.551 C 1230.219 831.646, 1238.553 831.497, 1246.993 828.933 C 1261.462 824.539, 1272.874 817.235, 1291.710 800.316 C 1299.469 793.346, 1313 777.973, 1313 776.127 C 1313 775.507, 1313.381 775, 1313.847 775 C 1314.312 775, 1316.675 771.830, 1319.097 767.956 C 1321.518 764.082, 1324.936 758.732, 1326.690 756.067 C 1328.445 753.403, 1330.587 749.710, 1331.450 747.861 C 1334.739 740.819, 1340.973 729.652, 1342.749 727.619 C 1343.768 726.454, 1345.892 723.025, 1347.469 720 C 1349.046 716.975, 1351.386 712.933, 1352.668 711.018 C 1353.951 709.103, 1355 706.740, 1355 705.768 C 1355 704.796, 1355.348 704, 1355.773 704 C 1356.198 704, 1357.419 702.313, 1358.486 700.250 C 1359.553 698.188, 1361.681 694.860, 1363.213 692.856 C 1364.746 690.852, 1366 688.908, 1366 688.536 C 1366 688.165, 1367.350 685.898, 1369 683.500 C 1370.650 681.102, 1372 678.943, 1372 678.702 C 1372 678.036, 1382.400 662.279, 1387.314 655.500 C 1389.706 652.200, 1393.307 647.025, 1395.317 644 C 1401.596 634.550, 1405.948 628.681, 1410.559 623.443 C 1413.007 620.662, 1417.038 615.599, 1419.517 612.193 C 1421.995 608.787, 1424.461 606, 1424.997 606 C 1425.533 606, 1426.990 604.487, 1428.235 602.637 C 1431.035 598.480, 1445.034 579.992, 1446.773 578.155 C 1447.474 577.416, 1448.665 575.615, 1449.421 574.153 C 1450.177 572.691, 1451.741 570.639, 1452.898 569.593 C 1454.054 568.546, 1455 567.291, 1455 566.802 C 1455 566.314, 1456.800 563.478, 1459 560.500 C 1461.200 557.522, 1463 554.610, 1463 554.029 C 1463 553.447, 1464.912 550.540, 1467.250 547.567 C 1469.588 544.595, 1472.467 540.663, 1473.650 538.831 C 1477.485 532.887, 1491 505.147, 1491 503.218 C 1491 502.717, 1491.648 501.001, 1492.440 499.404 C 1497.044 490.117, 1503 455.295, 1503 437.657 C 1503 430.064, 1502.411 426.628, 1499.461 417.023 C 1493.899 398.911, 1488.679 385.026, 1486.500 382.546 C 1485.400 381.294, 1484.351 379.647, 1484.168 378.885 C 1483.985 378.123, 1482.973 376.695, 1481.918 375.711 C 1480.863 374.727, 1480 373.489, 1480 372.959 C 1480 372.156, 1464.921 354.731, 1461.430 351.500 C 1458.950 349.205, 1450.979 338.977, 1446.087 331.814 C 1443.200 327.586, 1437.725 321.235, 1433.919 317.700 C 1430.114 314.166, 1427 310.776, 1427 310.168 C 1427 309.560, 1426.374 309.303, 1425.609 309.597 C 1424.750 309.926, 1422.963 308.383, 1420.939 305.565 C 1419.136 303.054, 1417.296 301, 1416.849 301 C 1416.402 301, 1412.790 297.633, 1408.821 293.518 C 1403.466 287.966, 1398.810 284.419, 1390.768 279.768 C 1384.807 276.321, 1377.197 271.791, 1373.856 269.702 C 1370.317 267.488, 1364.178 264.922, 1359.141 263.551 C 1354.389 262.257, 1348.475 260.300, 1346 259.202 C 1341.847 257.361, 1335.792 256.142, 1313 252.558 C 1301.980 250.826, 1270.143 250.805, 1258.500 252.523" stroke="#aa444d" fill="#aa444d" fill-opacity="0.2" fill-rule="evenodd"/><path class="svg-region-Or" d="M 512 269.701 C 509.525 269.894, 505.025 270.574, 502 271.211 C 498.975 271.848, 496.075 272.257, 495.556 272.120 C 495.037 271.983, 493.012 272.523, 491.056 273.320 C 489.100 274.116, 485.025 275.319, 482 275.993 C 478.975 276.667, 475.113 278.009, 473.419 278.976 C 471.724 279.943, 468.574 281.305, 466.419 282.004 C 464.263 282.703, 460.009 284.521, 456.965 286.043 C 453.920 287.566, 448.070 289.823, 443.965 291.058 C 439.859 292.293, 434.250 294.307, 431.500 295.534 C 428.750 296.761, 425.375 298.096, 424 298.501 C 422.625 298.906, 420.825 299.774, 420 300.431 C 419.175 301.087, 416.475 302.479, 414 303.523 C 407.738 306.164, 386.694 319.478, 385.028 321.853 C 384.738 322.267, 382.707 323.932, 380.515 325.553 C 378.323 327.174, 375.554 329.638, 374.362 331.029 C 373.169 332.420, 371.025 334.184, 369.597 334.948 C 368.169 335.713, 367 336.747, 367 337.246 C 367 338.481, 362 343.394, 359.241 344.871 C 358.009 345.531, 357 346.697, 357 347.462 C 357 348.227, 356.402 348.999, 355.671 349.177 C 353.265 349.762, 327 380.170, 327 382.371 C 327 382.714, 325.485 385.134, 323.633 387.748 C 315.988 398.539, 305.903 417.609, 301.306 429.967 C 295.038 446.815, 288.969 467.652, 289.319 471.123 C 289.395 471.880, 288.847 476.517, 288.101 481.426 C 286.404 492.584, 287.143 512.558, 289.489 518.940 C 290.386 521.381, 292.219 525.700, 293.560 528.536 C 294.902 531.372, 296 534.223, 296 534.871 C 296 535.518, 297.462 538.186, 299.250 540.799 C 301.038 543.412, 303.145 547.222, 303.933 549.266 C 304.721 551.309, 306.184 553.241, 307.183 553.558 C 308.182 553.875, 309 554.695, 309 555.380 C 309 556.065, 310.350 557.919, 312 559.500 C 313.650 561.081, 315 563.241, 315 564.300 C 315 565.359, 317.025 568.919, 319.500 572.212 C 321.975 575.504, 324 578.581, 324 579.049 C 324 579.517, 325.289 581.835, 326.865 584.200 C 337.145 599.628, 341.568 606.685, 343.033 609.996 C 343.640 611.368, 345.165 613.843, 346.420 615.496 C 347.676 617.148, 349.507 620.075, 350.489 622 C 351.471 623.925, 353.491 627.075, 354.979 629 C 359.493 634.839, 368.515 653.358, 367.582 654.868 C 367.268 655.375, 367.684 656.048, 368.506 656.364 C 369.328 656.679, 370 657.651, 370 658.523 C 370 659.395, 372.869 664.696, 376.375 670.304 C 379.881 675.912, 383.719 682.300, 384.903 684.500 C 386.087 686.700, 387.831 689.670, 388.778 691.101 C 392.096 696.113, 394.458 699.504, 394.977 700 C 395.694 700.685, 397.862 704.174, 398.706 706 C 399.680 708.107, 401.075 709.828, 404.250 712.838 C 405.762 714.272, 407 716.190, 407 717.100 C 407 718.010, 407.667 719.309, 408.483 719.986 C 410.019 721.260, 424 743.496, 424 744.664 C 424 745.323, 427.348 750.866, 433.668 760.669 C 435.500 763.513, 437 766.325, 437 766.919 C 437 767.514, 437.450 768, 438 768 C 438.550 768, 439 768.679, 439 769.509 C 439 770.338, 440.288 772.795, 441.862 774.968 C 443.436 777.141, 445.310 780.399, 446.027 782.209 C 446.743 784.019, 447.883 786.175, 448.559 787 C 449.235 787.825, 451.787 792.100, 454.230 796.500 C 461.913 810.340, 463.165 812.457, 464.669 814.153 C 465.475 815.062, 467.567 818.071, 469.317 820.838 C 476.113 831.582, 496.059 849.673, 509 856.830 C 530.649 868.804, 567.335 870.950, 594.500 861.833 C 607.217 857.565, 621.584 848.766, 629.500 840.395 C 639.236 830.101, 642.121 826.764, 647.137 820 C 654.234 810.429, 661.273 799.410, 662.926 795.283 C 663.635 793.514, 664.887 791.508, 665.709 790.826 C 666.531 790.144, 669.646 785.967, 672.633 781.543 C 681.833 767.913, 688.302 758.711, 693.066 752.476 C 695.577 749.189, 700.220 742.675, 703.384 738 C 706.548 733.325, 710.406 727.700, 711.956 725.500 C 719.375 714.974, 730.074 693.598, 734.228 681 C 743.437 653.075, 746.251 630.131, 744.101 600.500 C 742.476 578.101, 740.464 572.525, 730.301 562.261 L 723.671 555.566 721.884 545.616 C 720.901 540.143, 719.137 533.154, 717.965 530.083 C 715.200 522.842, 709.702 512.019, 708.783 512.008 C 707.828 511.997, 701 505.138, 701 504.189 C 701 503.780, 700.245 502.368, 699.323 501.051 C 698 499.162, 697.526 498.971, 697.073 500.145 C 696.574 501.440, 695.399 501.468, 688 500.359 C 676.078 498.572, 644.132 498.626, 634.603 500.449 C 626.791 501.944, 620.757 504.860, 615.442 509.710 C 613.760 511.244, 610.413 513.850, 608.003 515.500 C 602.959 518.954, 599 522.688, 599 523.990 C 599 524.485, 596.862 527.158, 594.250 529.931 C 591.638 532.704, 588.372 536.249, 586.993 537.809 C 584.066 541.122, 570.947 545.340, 570.233 543.198 C 570.013 542.539, 569.175 542, 568.370 542 C 567.565 542, 566.140 540.653, 565.203 539.006 C 564.267 537.360, 563.163 536.010, 562.750 536.006 C 562.337 536.003, 562 534.698, 562 533.107 C 562 529.424, 560.492 528.754, 550.633 528.057 L 542.765 527.500 540.997 521.771 C 539.353 516.441, 539.343 515.843, 540.865 513.192 C 543.913 507.880, 544.496 507.244, 548.037 505.361 C 553.553 502.428, 556.304 499.888, 559.523 494.752 C 561.161 492.140, 562.837 490.003, 563.250 490.002 C 565.621 489.996, 562.394 485.951, 548.750 471.823 C 543.786 466.683, 542.984 465, 545.500 465 C 546.325 465, 547 464.550, 547 464 C 547 463.450, 547.788 462.993, 548.750 462.985 C 551.231 462.964, 557.845 460.555, 559.232 459.168 C 559.874 458.526, 560.916 458, 561.546 458 C 563.232 458, 569.034 455.060, 572.683 452.358 C 575.177 450.510, 577.137 450, 581.733 450 C 584.960 450, 588.027 450.414, 588.550 450.919 C 590.043 452.364, 600.666 454, 608.549 454 C 613.980 454, 616.312 453.553, 618.115 452.166 C 619.427 451.157, 622.838 449.245, 625.696 447.916 C 629.726 446.042, 630.773 445.097, 630.363 443.702 C 630.073 442.713, 630.270 441.363, 630.802 440.702 C 631.334 440.041, 632.075 438.070, 632.448 436.323 C 633.175 432.919, 637.409 428, 639.612 428 C 640.685 428, 640.821 426.058, 640.294 418.250 C 639.932 412.887, 639.693 407.600, 639.763 406.500 C 641.200 383.909, 641.134 369.376, 639.557 360.814 C 638.613 355.691, 637.436 350.600, 636.941 349.500 C 636.446 348.400, 635.593 346.262, 635.045 344.750 C 634.498 343.238, 633.588 342, 633.025 342 C 632.461 342, 632 341.180, 632 340.178 C 632 337.386, 628.928 329, 627.906 329 C 627.408 329, 627.070 328.663, 627.156 328.250 C 627.513 326.531, 622.493 317.166, 618.885 312.821 C 616.748 310.247, 615 307.686, 615 307.130 C 615 306.573, 612.213 303.729, 608.808 300.809 C 605.402 297.889, 600.339 293.295, 597.558 290.600 C 594.776 287.905, 590.925 285.041, 589 284.236 C 587.075 283.430, 584.375 281.999, 583 281.055 C 581.483 280.014, 574.796 278.450, 566 277.081 C 558.025 275.839, 549.709 274.150, 547.520 273.327 C 542.607 271.482, 526.114 268.938, 520.587 269.175 C 518.339 269.271, 514.475 269.508, 512 269.701" stroke="#aa444d" fill="#aa444d" fill-opacity="0.2" fill-rule="evenodd"/><path class="svg-region-OABl" d="M 1138.331 444.388 C 1135.487 445, 1132.825 445.837, 1132.414 446.250 C 1132.003 446.663, 1129.935 447, 1127.818 447 C 1125.702 447, 1121.389 447.646, 1118.235 448.436 C 1115.081 449.226, 1109.800 450.378, 1106.500 450.996 C 1103.200 451.614, 1099.118 452.543, 1097.429 453.060 C 1095.740 453.577, 1093.122 454, 1091.612 454 C 1089.373 454, 1088.976 454.350, 1089.465 455.891 C 1089.919 457.321, 1089.387 458.025, 1087.283 458.782 C 1085.752 459.333, 1083.389 460.841, 1082.031 462.134 C 1080.351 463.734, 1077.955 464.648, 1074.531 464.993 L 1069.500 465.500 1069.222 471 C 1069.004 475.296, 1068.436 476.938, 1066.626 478.500 C 1065.352 479.600, 1063.726 482.656, 1063.014 485.290 C 1062.301 487.925, 1060.929 490.503, 1059.966 491.018 C 1058.870 491.605, 1058.071 493.461, 1057.831 495.978 C 1057.487 499.582, 1057.678 500, 1059.668 500 C 1060.889 500, 1063.601 498.427, 1065.694 496.505 C 1068.312 494.101, 1070.459 493.008, 1072.571 493.005 C 1074.847 493.001, 1076.865 491.829, 1080.366 488.474 C 1082.964 485.984, 1086.937 482.609, 1089.195 480.974 C 1093.125 478.127, 1093.730 478.003, 1103.400 478.073 C 1111.567 478.132, 1114.074 478.514, 1116.500 480.066 C 1118.150 481.122, 1122.875 483.661, 1127 485.708 C 1131.125 487.755, 1134.725 489.723, 1135 490.080 C 1135.275 490.438, 1136.625 491.070, 1138 491.486 C 1139.375 491.901, 1144.131 493.961, 1148.570 496.063 C 1156.347 499.746, 1156.974 499.874, 1165.864 499.598 C 1171.124 499.434, 1175.585 498.815, 1176.244 498.156 C 1176.880 497.520, 1179.479 497, 1182.021 497 C 1188.043 497, 1196.824 492.615, 1199.044 488.500 C 1200.020 486.690, 1203.308 483.980, 1207.331 481.668 L 1214 477.837 1214 470.883 C 1214 464.330, 1215.465 459.917, 1218.314 457.887 C 1220.492 456.335, 1218.292 452.383, 1213.511 449.259 C 1207.701 445.463, 1206.763 445.408, 1175.095 447.007 C 1155.213 448.011, 1149.463 447.468, 1146.866 444.338 C 1145.622 442.840, 1145.525 442.841, 1138.331 444.388" stroke="#81244d" fill="#81244d" fill-opacity="0.2" fill-rule="evenodd"/><path class="svg-region-OABr" d="M 626 447.634 C 622.975 449.137, 620.275 450.667, 620 451.034 C 618.561 452.953, 614.412 454, 608.249 454 C 600.621 454, 590.021 452.342, 588.550 450.919 C 587.045 449.463, 574.302 449.771, 573.724 451.277 C 573.008 453.143, 552.589 462.974, 549.312 463.032 C 547.434 463.065, 544 465.227, 544 466.377 C 544 466.975, 550.630 474.194, 560.250 484.071 C 562.313 486.188, 564 488.158, 564 488.449 C 564 488.980, 561.573 492.093, 559.250 494.540 C 558.563 495.265, 558 496.251, 558 496.732 C 558 498.121, 551.843 503.437, 547.898 505.454 C 544.450 507.217, 543.095 508.732, 540.444 513.793 C 539.472 515.649, 539.578 517.173, 541.004 521.793 L 542.765 527.500 550.735 528 C 559.374 528.542, 562 529.853, 562 533.622 C 562 534.930, 562.337 536.003, 562.750 536.006 C 563.163 536.010, 564.267 537.360, 565.203 539.006 C 566.140 540.653, 567.565 542, 568.370 542 C 569.175 542, 570.013 542.539, 570.233 543.198 C 570.947 545.340, 584.066 541.122, 586.993 537.809 C 588.372 536.249, 591.638 532.704, 594.250 529.931 C 596.862 527.158, 599 524.270, 599 523.512 C 599 522.755, 599.900 521.849, 601 521.500 C 602.100 521.151, 603.012 520.333, 603.027 519.683 C 603.042 519.032, 604.908 517.375, 607.174 516 C 609.439 514.625, 613.140 511.825, 615.397 509.777 C 617.654 507.729, 619.856 506.041, 620.290 506.027 C 620.725 506.012, 622.300 505.099, 623.790 503.998 C 628.405 500.590, 640.319 498.996, 660.838 499.042 C 671.102 499.066, 683.325 499.658, 688 500.358 C 695.800 501.526, 696.556 501.490, 697.180 499.918 C 697.554 498.976, 698.310 497.927, 698.860 497.587 C 699.410 497.247, 700.170 494.488, 700.549 491.456 C 701.036 487.558, 701.788 485.648, 703.119 484.936 C 705.356 483.739, 705.645 480, 703.500 480 C 701.545 480, 701.573 476.581, 703.553 473.560 C 705.058 471.263, 705.004 471.158, 701.803 470.166 C 699.986 469.604, 696.925 468.852, 695 468.497 C 693.075 468.142, 690.071 467.204, 688.324 466.414 C 682.598 463.823, 674.673 462.557, 664 462.528 C 658.225 462.513, 652.972 462.157, 652.327 461.739 C 651.682 461.320, 650.845 459.520, 650.468 457.739 C 650.091 455.957, 648.871 452.852, 647.756 450.837 C 645.971 447.611, 645.180 447.116, 641.115 446.683 C 638.577 446.412, 635.375 445.901, 634 445.546 C 632.286 445.103, 629.770 445.760, 626 447.634" stroke="#81244d" fill="#81244d" fill-opacity="0.2" fill-rule="evenodd"/><path class="svg-region-PNl" d="M 1039.825 63.811 C 1036.154 65.299, 1032.816 66.850, 1032.408 67.258 C 1032 67.666, 1029.379 68.003, 1026.583 68.006 C 1015.338 68.018, 1008.972 72.366, 1003.156 84.004 C 999.081 92.158, 998.947 98.005, 1002.666 105.283 C 1005.472 110.773, 1005.373 109.635, 1005.157 133.856 C 1005.118 138.220, 1004.539 142.084, 1003.734 143.356 C 1002.988 144.535, 1002.313 147.508, 1002.233 149.962 C 1002.073 154.916, 1000.544 156.637, 993.427 159.877 C 988.984 161.899, 988.530 162.734, 985.109 175.164 C 983.789 179.961, 983 185.780, 983 190.723 C 983 195.550, 982.514 199.217, 981.750 200.160 C 979.698 202.691, 973.424 207, 971.790 207 C 965.800 207, 955.048 228.845, 960.250 230.448 C 960.938 230.660, 962.737 231.104, 964.250 231.436 C 965.763 231.767, 967 232.626, 967 233.345 C 967 235.911, 971.710 239.075, 976.707 239.865 C 979.457 240.299, 983.080 241.633, 984.758 242.827 C 988.913 245.786, 990.767 245.563, 995.891 241.490 C 998.306 239.571, 1000.668 238, 1001.141 238 C 1001.927 238, 1002.376 240.718, 1002.344 245.293 C 1002.337 246.330, 1002.865 246.882, 1003.595 246.602 C 1004.290 246.335, 1006.470 245.815, 1008.440 245.445 C 1010.410 245.076, 1012.269 244.374, 1012.570 243.887 C 1014.146 241.337, 1023.994 245.462, 1026.347 249.658 C 1027.592 251.879, 1031.831 250.503, 1036 246.526 C 1037.925 244.690, 1040.366 243.033, 1041.425 242.844 C 1043.768 242.425, 1045.894 234.417, 1045.958 225.770 C 1045.994 220.801, 1046.813 218.410, 1052.121 207.770 C 1055.488 201.021, 1058.823 194.825, 1059.532 194 C 1060.241 193.175, 1061.589 189.839, 1062.529 186.586 C 1063.469 183.333, 1065.309 179.600, 1066.619 178.290 C 1067.928 176.981, 1069 175.306, 1069 174.569 C 1069 171.613, 1075.931 160.953, 1079.684 158.135 C 1081.233 156.973, 1083.044 155.567, 1083.708 155.011 C 1084.372 154.455, 1085.345 154, 1085.869 154 C 1087.366 154, 1091.859 148.208, 1093.898 143.647 C 1099.060 132.108, 1100 129.513, 1100 126.814 C 1100 123.183, 1105.356 107.104, 1108.023 102.731 C 1109.106 100.954, 1109.994 97.820, 1109.996 95.767 C 1110 92.297, 1109.652 91.857, 1105.071 89.536 C 1102.360 88.162, 1099.857 86.577, 1099.509 86.014 C 1099.160 85.451, 1094.637 81.615, 1089.456 77.490 C 1083.551 72.790, 1079.801 69.054, 1079.406 67.480 C 1077.807 61.111, 1069.524 59.148, 1062.500 63.474 C 1057.453 66.582, 1056.182 66.585, 1052 63.500 C 1050.136 62.125, 1048.136 61.024, 1047.556 61.052 C 1046.975 61.081, 1043.496 62.322, 1039.825 63.811" stroke="#bbc0d1" fill="#bbc0d1" fill-opacity="0.2" fill-rule="evenodd"/><path class="svg-region-PNr" d="M 652 46.237 C 645.379 48.714, 641.518 51.085, 633.073 57.863 C 629.553 60.688, 625.859 63, 624.865 63 C 623.870 63, 620.521 64.122, 617.421 65.493 C 614.321 66.863, 611.444 67.774, 611.027 67.517 C 610.610 67.259, 608.296 68.877, 605.885 71.112 C 603.473 73.347, 600.300 76.252, 598.834 77.568 C 595.789 80.300, 594.538 84.619, 595.510 89.044 C 595.977 91.172, 597.430 92.855, 600.339 94.639 C 602.628 96.042, 609.450 102.210, 615.500 108.345 C 625.232 118.215, 641.347 131.614, 654.171 140.500 C 660.315 144.758, 680.187 164.211, 686.835 172.477 C 689.922 176.314, 693.893 180.723, 695.661 182.275 C 697.560 183.943, 699.820 187.574, 701.187 191.153 C 702.731 195.196, 705.677 199.690, 710.049 204.671 C 717.175 212.788, 732.995 227.350, 737 229.477 C 738.375 230.207, 740.533 232.208, 741.796 233.924 L 744.091 237.042 748.860 233.021 C 754.404 228.347, 758.515 227.819, 765.305 230.910 C 771.452 233.709, 780.330 237.003, 780.708 236.625 C 781.962 235.371, 784.279 224.097, 784.701 217.195 C 785.294 207.520, 783.973 201.093, 780.291 195.732 C 778.498 193.121, 777.460 189.895, 776.912 185.232 C 775.018 169.108, 768.817 151.906, 762.210 144.451 C 760.170 142.148, 756.700 137.919, 754.500 135.053 C 752.300 132.188, 749.150 128.347, 747.500 126.519 C 745.850 124.690, 742.700 120.963, 740.500 118.236 C 738.300 115.510, 735.090 112.346, 733.366 111.206 C 731.642 110.066, 727.599 105.391, 724.381 100.817 C 721.163 96.243, 716.161 89.916, 713.265 86.759 C 710.369 83.601, 708 80.374, 708 79.587 C 708 78.800, 706.200 76.615, 704 74.732 C 701.800 72.849, 700 70.789, 700 70.154 C 700 69.519, 699.516 69, 698.925 69 C 697.321 69, 682.110 54.921, 681.442 52.818 C 681.125 51.818, 680.191 51, 679.366 51 C 678.541 51, 676.434 49.923, 674.683 48.607 C 672.932 47.291, 669.475 45.917, 667 45.554 C 664.525 45.190, 661.375 44.732, 660 44.536 C 658.625 44.340, 655.025 45.105, 652 46.237" stroke="#bbc0d1" fill="#bbc0d1" fill-opacity="0.2" fill-rule="evenodd"/><path class="svg-region-ODMl" d="M 1075 405.393 C 1075 411.569, 1071.405 412.742, 1064.119 408.945 C 1060.546 407.083, 1041.496 404.170, 1040.355 405.312 C 1040.130 405.536, 1041.421 408.013, 1043.223 410.815 C 1045.026 413.617, 1048.188 418.547, 1050.250 421.771 C 1052.313 424.994, 1054 428.419, 1054 429.381 C 1054 431.382, 1055.700 434.843, 1057.631 436.774 C 1058.355 437.497, 1059.457 439.757, 1060.081 441.795 C 1062.549 449.855, 1080.831 456.566, 1093 453.879 C 1095.475 453.332, 1099.750 452.480, 1102.500 451.986 C 1105.250 451.491, 1110.650 450.338, 1114.500 449.423 C 1118.350 448.508, 1123.975 447.399, 1127 446.959 C 1135.618 445.705, 1142.166 444.107, 1143.616 442.904 C 1144.708 441.997, 1144.601 441.151, 1143.011 438.150 C 1141.947 436.143, 1140.049 432.301, 1138.793 429.614 C 1135.175 421.873, 1131.931 420, 1122.142 420 C 1117.649 420, 1113.186 420.491, 1112.224 421.092 C 1110.815 421.972, 1109.438 421.486, 1105.137 418.592 C 1102.201 416.616, 1098.795 415, 1097.568 415 C 1096.232 415, 1094.819 414.029, 1094.042 412.578 C 1091.942 408.654, 1080.036 401, 1076.032 401 C 1075.464 401, 1075 402.977, 1075 405.393" stroke="#999999" fill="#999999" fill-opacity="0.2" fill-rule="evenodd"/><path class="svg-region-ODMr" d="M 722.500 404.055 C 720.300 405.096, 717.312 405.959, 715.859 405.974 C 714.407 405.988, 711.257 406.890, 708.859 407.978 C 706.462 409.066, 702.250 410, 699.500 410.054 C 690.743 410.226, 687.888 411.844, 684.500 418.557 C 680.667 426.150, 677.024 428.249, 668.500 427.774 L 662.500 427.441 659.447 431.918 C 657.768 434.380, 654.292 437.768, 651.722 439.447 C 645.963 443.210, 644.951 446.116, 647.716 450.948 C 648.834 452.902, 650.060 455.931, 650.439 457.681 C 651.533 462.725, 652.963 463.319, 662.245 462.584 C 668.146 462.116, 672.497 462.373, 677.500 463.485 C 681.350 464.340, 685.625 465.285, 687 465.585 C 690.580 466.365, 704.763 457.537, 713.365 449.174 C 720.457 442.279, 723.366 437.400, 724.499 430.500 C 725.277 425.762, 729.316 417.511, 732.577 414 C 739.525 406.517, 739.141 407.444, 736.478 404.570 C 733.567 401.430, 728.446 401.241, 722.500 404.055" stroke="#999999" fill="#999999" fill-opacity="0.2" fill-rule="evenodd"/><path class="svg-region-HRl" d="M 979.171 386.386 C 979.547 397.696, 979.810 399.115, 982.193 402.716 C 984.255 405.831, 986.033 407.091, 990.652 408.708 C 996.740 410.840, 1013.697 413.636, 1014.666 412.668 C 1014.971 412.362, 1015.460 409.133, 1015.753 405.491 C 1016.281 398.904, 1016.304 398.862, 1020.142 397.326 C 1023.144 396.125, 1024 395.241, 1024 393.342 C 1024 389.198, 1018.318 380, 1015.759 380 C 1015.268 380, 1013.392 381.125, 1011.589 382.500 C 1007.485 385.630, 1003.641 385.616, 998.500 382.451 C 991.900 378.387, 982.624 374.002, 980.629 374.001 C 978.880 374, 978.785 374.805, 979.171 386.386" stroke="#d9dba1" fill="#d9dba1" fill-opacity="0.2" fill-rule="evenodd"/><path class="svg-region-HRr" d="M 791.610 379.716 C 790.570 379.983, 787.955 381.948, 785.798 384.083 C 781.927 387.915, 781.842 387.944, 779.188 386.295 C 777.710 385.377, 775.825 384.089, 775 383.435 C 772.530 381.475, 764.164 380.695, 760.644 382.097 C 754.627 384.493, 752.195 386.896, 750.440 392.182 C 749.101 396.213, 748.980 397.739, 749.887 399.190 C 750.740 400.557, 750.755 401.589, 749.942 403.109 C 749.335 404.243, 748.987 405.259, 749.169 405.365 C 755.757 409.226, 764.687 410.070, 770.355 407.368 C 774.596 405.345, 778.900 406.026, 786.060 409.852 C 790.386 412.163, 791.567 413.406, 792.921 417.072 C 793.821 419.507, 794.986 421.446, 795.510 421.379 C 796.962 421.195, 799.599 415.952, 800.408 411.637 C 800.806 409.517, 802.088 405.815, 803.257 403.409 L 805.382 399.034 803.191 393.748 C 801.986 390.840, 801 388.059, 801 387.567 C 801 387.075, 800.238 384.946, 799.308 382.836 C 797.605 378.978, 796.399 378.489, 791.610 379.716" stroke="#d9dba1" fill="#d9dba1" fill-opacity="0.2" fill-rule="evenodd"/>
    </svg>