<svg xmlns="http://www.w3.org/2000/svg" width="1785" height="1131" viewBox="0 0 1785 1131" version="1.1">
    <path class="svg-region-AP" d="M 858 451.187 C 852.775 452.189, 847.375 453.240, 846 453.522 C 844.625 453.805, 840.350 454.464, 836.500 454.988 C 829.054 456.001, 824.569 457.125, 821.432 458.766 C 819.708 459.668, 814.913 460.795, 804 462.863 C 800.562 463.514, 800.488 463.631, 799.846 469.513 C 798.877 478.386, 796.231 489.305, 791.591 503.570 C 789.732 509.286, 788.024 512.528, 785.733 514.684 C 781.099 519.047, 768.527 525, 763.949 525 C 761.851 525, 759.985 525.546, 759.758 526.226 C 759.353 527.440, 763.725 539.706, 766.626 545.500 C 768.970 550.180, 772 559.212, 772 561.519 C 772 562.668, 773.074 565.833, 774.387 568.554 C 778.936 577.977, 781.800 584.811, 782.459 587.815 C 782.824 589.475, 783.757 591.076, 784.533 591.374 C 786.089 591.971, 793.180 584.968, 797.564 578.503 C 804.083 568.890, 805.043 568, 808.889 568 C 813.831 568, 825.953 571.450, 830.558 574.167 C 838.591 578.906, 842.765 585.067, 848.284 600.327 C 850.350 606.040, 854.759 607.085, 868.500 605.121 C 879.539 603.543, 895.719 604.460, 899 606.850 C 903.951 610.457, 910.983 611.094, 916.178 608.408 C 922.049 605.372, 931.283 592.626, 943.114 571.231 C 944.852 568.088, 951.625 565.543, 954.153 567.083 C 956.932 568.776, 960.283 571.621, 963.979 575.426 C 966.076 577.585, 969.285 580.060, 971.111 580.926 C 972.937 581.792, 975.761 584.482, 977.386 586.905 L 980.341 591.310 982.757 588.405 C 985.364 585.270, 990.998 574.261, 990.999 572.300 C 991 571.640, 991.624 570.740, 992.387 570.300 C 993.149 569.860, 994.457 567.475, 995.293 565 C 996.128 562.525, 998.664 556.792, 1000.927 552.260 C 1003.190 547.728, 1005.474 542.882, 1006.003 541.491 L 1006.965 538.962 997.574 539.622 L 988.182 540.282 983.737 535.891 C 973.868 526.143, 966.686 502.581, 965.489 476.022 C 965.130 468.059, 964.622 461.197, 964.359 460.772 C 964.097 460.347, 961.045 460, 957.577 460 C 951.250 460, 947.481 459.427, 934.500 456.490 C 930.650 455.619, 922.775 454.257, 917 453.464 C 885.470 449.132, 871.525 448.593, 858 451.187" stroke="#fc7143" fill="#fc7143" fill-opacity="0.2" fill-rule="evenodd"/><path class="svg-region-PP" d="M 830.659 324.122 C 830.452 324.880, 829.769 327.107, 829.141 329.071 C 828.514 331.035, 828 333.908, 828 335.455 C 828 340.367, 825.719 346.337, 821.781 351.734 C 817.704 357.319, 813 365.654, 813 367.290 C 813 367.836, 810.975 370.250, 808.500 372.656 C 803.557 377.460, 803.597 377.379, 804.939 379.886 C 805.529 380.988, 805.496 385.148, 804.852 391.070 C 804.288 396.257, 803.740 402.236, 803.635 404.357 C 803.488 407.327, 802.681 408.895, 800.129 411.176 C 797.167 413.823, 796.926 414.423, 797.863 416.819 C 800.368 423.225, 801.252 432.515, 800.793 447.606 L 800.320 463.180 803.910 462.724 C 810.749 461.855, 819.511 459.841, 822 458.565 C 824.707 457.177, 833.466 454.854, 834.725 455.190 C 835.379 455.365, 843.206 454.203, 846.500 453.442 C 858.275 450.724, 866.192 449.817, 877.500 449.893 C 889.417 449.972, 918.607 452.961, 927 454.961 C 928.925 455.420, 933.624 456.550, 937.443 457.472 C 941.262 458.394, 947.562 459.358, 951.443 459.613 C 955.324 459.869, 959.962 460.257, 961.750 460.476 C 964.860 460.857, 965 460.728, 965 457.456 C 965 455.575, 965.546 450.852, 966.214 446.960 C 967.002 442.361, 967.083 439.640, 966.444 439.191 C 965.020 438.191, 964.768 406.534, 966.136 400.614 C 967.156 396.197, 967.084 395.628, 965.382 394.685 C 961.649 392.616, 958.337 388.069, 953.852 378.854 C 951.340 373.693, 948.541 366.502, 947.631 362.874 C 946.114 356.825, 943.730 330.306, 944.577 328.894 C 945.252 327.768, 917.675 326.579, 889 326.497 C 872.323 326.449, 857.804 325.937, 854 325.263 C 841.846 323.110, 831.079 322.584, 830.659 324.122" stroke="#c4743d" fill="#c4743d" fill-opacity="0.2" fill-rule="evenodd"/><path class="svg-region-LPl" d="M 992 413.112 C 988.515 414.486, 978.826 424.161, 972.585 432.500 C 967.823 438.862, 967.228 440.253, 966.052 447.763 C 963.333 465.127, 966.838 503.342, 972.324 516.148 C 977.378 527.946, 980.367 533.099, 984.127 536.496 L 988.299 540.265 996.400 539.711 C 1003.937 539.196, 1004.681 538.941, 1007.102 536.043 C 1008.534 534.331, 1010.206 531.257, 1010.818 529.213 C 1011.431 527.168, 1013.495 522.900, 1015.405 519.728 C 1017.315 516.556, 1019.182 512.957, 1019.554 511.730 C 1020.218 509.538, 1025.983 496.327, 1030.563 486.500 C 1031.845 483.750, 1033.761 478.800, 1034.820 475.500 C 1035.880 472.200, 1037.654 467.250, 1038.762 464.500 C 1045.787 447.068, 1046.255 443.175, 1042.070 437 C 1040.393 434.525, 1037.679 430.446, 1036.039 427.936 C 1032.131 421.954, 1023.591 416.172, 1015.241 413.857 C 1008.056 411.865, 996.135 411.483, 992 413.112" stroke="#d2454f" fill="#d2454f" fill-opacity="0.2" fill-rule="evenodd"/><path class="svg-region-LPr" d="M 768.633 402.125 C 766.437 403.425, 747.275 408.929, 744.797 408.971 C 740.897 409.037, 737.550 411.838, 731.691 419.936 C 721.618 433.859, 720.768 435.851, 721.301 444.275 C 721.552 448.249, 722.108 452.832, 722.536 454.459 C 723.293 457.341, 733.046 471.989, 737.544 477 C 741.084 480.943, 745.356 490.347, 750.492 505.500 C 753.533 514.471, 756.183 520.523, 757.869 522.348 C 760.285 524.963, 760.932 525.153, 765.776 524.668 C 769.215 524.323, 772.791 523.070, 776.041 521.070 C 778.785 519.381, 781.361 517.986, 781.765 517.968 C 783.189 517.907, 787.836 513.218, 789.289 510.376 C 790.097 508.794, 791.090 505.925, 791.495 504 C 791.900 502.075, 792.577 500.050, 793 499.500 C 793.423 498.950, 794.306 496.250, 794.961 493.500 C 795.617 490.750, 796.835 485.800, 797.668 482.500 C 799.444 475.464, 800.817 458.296, 800.924 441.799 C 800.997 430.550, 800.003 422.450, 797.865 416.871 C 796.945 414.470, 796.551 414.312, 793.308 415.043 C 787.085 416.447, 785.638 414.603, 786.204 405.998 L 786.500 401.500 778.500 401.260 C 773.993 401.124, 769.685 401.502, 768.633 402.125" stroke="#d2454f" fill="#d2454f" fill-opacity="0.2" fill-rule="evenodd"/><path class="svg-region-ADCl" d="M 948.530 567.350 C 945.055 568.398, 944.032 569.478, 940.313 576.023 C 937.977 580.136, 936.051 584.063, 936.033 584.750 C 935.989 586.415, 938.202 586.330, 941.669 584.532 C 945.761 582.409, 958.165 578.994, 960.446 579.361 C 961.517 579.534, 962.867 580.534, 963.446 581.583 C 964.026 582.633, 965.346 584.770, 966.380 586.333 C 968.779 589.958, 968.215 599.443, 965.208 606.044 C 962.111 612.841, 961.653 615.467, 963.320 616.850 C 964.526 617.851, 964.880 617.453, 965.440 614.466 C 965.810 612.494, 967.663 609.165, 969.557 607.069 C 971.450 604.973, 973 602.970, 973 602.619 C 973 602.267, 974.575 599.739, 976.500 597 C 978.425 594.261, 980 591.764, 980 591.450 C 980 589.572, 973.250 581, 971.771 581 C 970.803 581, 967.746 578.862, 964.978 576.250 C 956.116 567.884, 953.934 565.998, 953.209 566.077 C 952.819 566.119, 950.714 566.692, 948.530 567.350 M 930.259 593.250 C 928.606 596.754, 919.106 606.894, 915.944 608.529 C 914.379 609.338, 911.952 610, 910.550 610 C 909.037 610, 908 610.567, 908 611.393 C 908 613.038, 910.133 613.996, 913.832 614.011 C 915.299 614.017, 918.558 614.646, 921.073 615.410 C 925.319 616.699, 925.730 616.662, 926.831 614.899 C 927.483 613.854, 928.710 613, 929.558 613 C 932.732 613, 937.201 609.763, 938.579 606.466 C 940.442 602.008, 940.476 595, 938.635 595 C 937.884 595, 936.126 594.100, 934.727 593 C 931.565 590.513, 931.550 590.514, 930.259 593.250" stroke="#54413e" fill="#54413e" fill-opacity="0.2" fill-rule="evenodd"/><path class="svg-region-ADCr" d="M 802.665 570.991 C 801.199 572.637, 800 574.215, 800 574.500 C 800 576.883, 786.297 592.302, 784.930 591.457 C 782.219 589.781, 787.022 598.818, 792.324 605.369 C 794.621 608.207, 797.268 611.648, 798.206 613.015 C 799.654 615.124, 800.068 615.273, 800.941 614 C 802.673 611.473, 802.125 601.873, 799.978 597.141 C 798.890 594.743, 798 591.536, 798 590.013 C 798 586.155, 800.761 579.951, 803.683 577.243 C 806.427 574.700, 806.579 574.728, 820.940 580.439 C 824.658 581.918, 829.377 583, 832.108 583 C 834.709 583, 837.548 583.273, 838.418 583.607 C 840.024 584.223, 840.454 587.706, 839.406 591.611 C 838.680 594.318, 832.153 598, 828.082 598 C 823.854 598, 823.079 600.399, 826.206 603.810 C 827.563 605.289, 829.890 608.638, 831.379 611.250 C 832.867 613.862, 834.526 616, 835.067 616 C 835.607 616, 839.012 614.129, 842.633 611.842 C 848.017 608.442, 850.017 607.714, 853.608 607.850 C 856.024 607.941, 858 607.563, 858 607.008 C 858 606.454, 856.941 606, 855.646 606 C 852.208 606, 848.300 601.859, 847.022 596.861 C 845.086 589.292, 843.702 586.692, 838.621 581.081 C 832.948 574.817, 829.311 572.699, 819.520 569.955 C 809.434 567.130, 805.913 567.346, 802.665 570.991" stroke="#54413e" fill="#54413e" fill-opacity="0.2" fill-rule="evenodd"/><path class="svg-region-DMl" d="M 956.488 326.083 C 955.395 326.510, 952.643 326.891, 950.372 326.930 C 948.102 326.968, 945.787 327.563, 945.227 328.250 C 943.784 330.021, 945.614 355.951, 947.714 363.500 C 949.773 370.901, 956.350 385.398, 959.596 389.688 C 960.922 391.442, 963.806 393.887, 966.004 395.122 C 968.202 396.358, 970 397.735, 970 398.184 C 970 398.633, 971.124 399, 972.497 399 C 973.923 399, 976.605 400.445, 978.747 402.367 C 980.811 404.219, 983.625 406.081, 985 406.505 C 986.375 406.929, 989.834 408.339, 992.686 409.638 C 996.113 411.199, 999.723 412, 1003.331 412 C 1010.418 412, 1020.049 415.031, 1027.188 419.509 C 1032.699 422.966, 1033.859 424.363, 1042.639 438.122 L 1045.778 443.041 1047.756 439.689 C 1048.844 437.845, 1050.302 434.574, 1050.996 432.419 C 1051.691 430.263, 1053.834 424.900, 1055.760 420.500 C 1057.685 416.100, 1059.853 411.131, 1060.578 409.458 C 1061.303 407.785, 1062.409 404.185, 1063.035 401.458 C 1063.662 398.731, 1064.544 395.150, 1064.997 393.500 C 1065.449 391.850, 1067.036 385.325, 1068.523 379 C 1070.010 372.675, 1072.525 364.027, 1074.113 359.782 C 1075.701 355.538, 1077 351.600, 1077 351.032 C 1077 350.404, 1073.695 350, 1068.557 350 C 1061.819 350, 1058.293 349.390, 1051.096 346.979 C 1046.136 345.317, 1034.073 342.130, 1024.289 339.897 C 1014.505 337.664, 1004.466 334.963, 1001.981 333.895 C 996.673 331.613, 989.900 330.264, 977.500 329.019 C 972.550 328.522, 966.245 327.484, 963.488 326.711 C 960.619 325.907, 957.626 325.639, 956.488 326.083" stroke="#68533d" fill="#68533d" fill-opacity="0.2" fill-rule="evenodd"/><path class="svg-region-DMr" d="M 794 321.971 C 788.775 322.384, 779.775 323.042, 774 323.435 C 762.436 324.220, 746.892 328.760, 738.162 333.902 C 731.708 337.702, 724.485 340.003, 719.072 339.983 C 716.557 339.973, 710.976 340.753, 706.669 341.715 L 698.838 343.465 699.311 347.983 C 700.280 357.233, 702.004 367.261, 703.408 371.810 C 706.928 383.212, 713.084 412.063, 714.998 426.126 C 715.715 431.397, 716.985 436.065, 718.264 438.126 L 720.356 441.500 721.015 438.500 C 722.416 432.116, 736.733 411.698, 740.880 410.168 C 742.321 409.637, 747.094 408.404, 751.486 407.429 C 755.878 406.453, 761.728 404.730, 764.486 403.599 C 768.212 402.071, 771.750 401.537, 778.256 401.521 L 787.012 401.500 788.094 398 C 791.027 388.519, 799.415 376.305, 802.328 377.276 C 803.476 377.659, 813 368.755, 813 367.299 C 813 365.550, 817.821 357.151, 822.009 351.604 C 824.938 347.724, 826.355 344.627, 827.145 340.374 C 827.745 337.143, 828.849 331.829, 829.598 328.564 C 830.347 325.299, 830.719 322.386, 830.424 322.091 C 829.566 321.233, 804.396 321.150, 794 321.971" stroke="#68533d" fill="#68533d" fill-opacity="0.2" fill-rule="evenodd"/><path class="svg-region-PMl" d="M 931 173.997 C 896.002 175.307, 880 176.298, 880 177.157 C 880 177.620, 880.450 178, 881 178 C 881.615 178, 882 182.987, 882 190.961 L 882 203.921 902.250 204.309 C 923.440 204.714, 928.257 205.334, 936.500 208.714 C 939.250 209.842, 943.525 211.349, 946 212.063 C 950.039 213.229, 966.378 221.263, 971.510 224.606 C 973.553 225.937, 985.232 232.352, 992.500 236.135 C 995.062 237.469, 999.447 241.863, 1004.697 248.359 C 1009.205 253.936, 1015.534 261.650, 1018.762 265.500 C 1024.047 271.804, 1025.156 273.992, 1029.911 287.500 C 1035.398 303.087, 1044.752 331.822, 1047.164 340.500 C 1049.149 347.644, 1053.047 349.464, 1066.402 349.485 L 1076.303 349.500 1079.226 342 C 1080.834 337.875, 1082.550 333.600, 1083.039 332.500 C 1086.568 324.572, 1088.154 317.325, 1089.055 305 C 1090.069 291.131, 1089.835 287.228, 1087.318 276 C 1083.888 260.695, 1080.851 253.750, 1075.050 247.949 C 1072.548 245.445, 1069.337 242.070, 1067.916 240.449 C 1063.122 234.979, 1050.541 223.442, 1044.575 219.045 C 1040.988 216.401, 1035.296 213.530, 1030.149 211.768 C 1012.894 205.861, 985.092 191.090, 970.500 180.076 C 968.300 178.416, 965.433 176.282, 964.128 175.334 C 961.222 173.222, 956.639 173.037, 931 173.997" stroke="#90cf92" fill="#90cf92" fill-opacity="0.2" fill-rule="evenodd"/><path class="svg-region-PMr" d="M 807 179.430 C 798.475 181.258, 789.700 183.234, 787.500 183.821 C 785.300 184.408, 781.700 185.343, 779.500 185.900 C 766.282 189.247, 736 201.013, 736 202.803 C 736 204.122, 731.596 209, 730.405 209 C 729.838 209, 728.109 210.321, 726.562 211.935 C 725.016 213.549, 720.994 216.567, 717.625 218.642 C 709.137 223.871, 700.190 230.780, 698.431 233.465 C 697.620 234.703, 696.319 239.340, 695.540 243.770 C 694.762 248.200, 693.634 253.646, 693.035 255.871 C 691.526 261.474, 691.430 308.238, 692.916 313.717 C 693.545 316.037, 694.499 321.887, 695.035 326.717 C 696.783 342.453, 696.937 343, 699.595 343 C 700.902 343, 703.918 342.479, 706.297 341.843 C 710.504 340.718, 710.745 340.425, 715.062 331.220 C 717.503 326.013, 721.631 318.771, 724.236 315.127 C 726.840 311.482, 730.665 306.025, 732.736 303 C 734.806 299.975, 737.038 296.930, 737.696 296.232 C 739.107 294.737, 749 277.344, 749 276.358 C 749 275.986, 750.701 273.391, 752.780 270.591 C 760.713 259.904, 769 247.094, 769 245.516 C 769 244.611, 769.950 241.663, 771.110 238.965 C 772.967 234.648, 774.399 233.275, 783.029 227.530 C 788.424 223.938, 793.066 221, 793.345 221 C 793.625 221, 797.599 218.687, 802.177 215.860 C 814.766 208.086, 817.113 207.298, 831.448 206.024 C 838.570 205.391, 844.808 204.618, 845.312 204.307 C 845.816 203.996, 854.277 203.789, 864.114 203.848 L 882 203.956 882 191.145 C 882 184.098, 881.814 178.146, 881.587 177.917 C 881.360 177.688, 873.822 177.725, 864.837 178 C 855.852 178.275, 846.964 178.193, 845.087 177.819 C 843.210 177.444, 837.360 176.905, 832.087 176.622 C 823.777 176.175, 820.435 176.549, 807 179.430" stroke="#90cf92" fill="#90cf92" fill-opacity="0.2" fill-rule="evenodd"/><path class="svg-region-PV" d="M 802.500 144 C 778.956 149.987, 769.245 153.624, 756.353 161.283 C 746.709 167.012, 734.708 175.627, 729.583 180.500 C 718.234 191.291, 703.375 215.039, 702.302 224.099 C 701.983 226.795, 702.057 229, 702.467 229 C 702.877 229, 704.852 227.726, 706.856 226.170 C 708.860 224.613, 713.200 221.600, 716.500 219.475 C 719.800 217.349, 724.164 214.235, 726.197 212.555 C 728.231 210.875, 731.268 208.453, 732.947 207.174 C 734.626 205.895, 736 204.182, 736 203.369 C 736 199.472, 774.029 186.492, 803 180.501 C 809.875 179.080, 816.053 177.728, 816.728 177.498 C 817.564 177.213, 816.834 175.073, 814.438 170.790 C 808.632 160.410, 807.645 157.703, 807.950 153 C 808.075 151.075, 808.812 148.790, 809.589 147.921 C 811.060 146.276, 811.556 141.919, 810.250 142.110 C 809.837 142.170, 806.350 143.021, 802.500 144 M 966.423 151.724 C 965.748 152.397, 964.889 155.322, 964.515 158.224 C 964.141 161.126, 962.747 165.629, 961.417 168.232 C 958.542 173.861, 958.524 174, 960.686 174 C 961.613 174, 963.417 174.983, 964.696 176.184 C 965.975 177.386, 968.553 179.298, 970.425 180.434 C 972.297 181.570, 975.780 183.906, 978.164 185.625 C 987.916 192.652, 1017.155 207.407, 1029.500 211.530 C 1039.225 214.778, 1046.637 219.907, 1059.687 232.420 C 1067.187 239.611, 1069.572 241.400, 1069.807 240.009 C 1070.205 237.654, 1065.697 221.124, 1062.414 212.897 C 1061.010 209.379, 1058.625 203.063, 1057.114 198.862 C 1052.210 185.231, 1041.739 171.906, 1029.798 164.104 C 1020.897 158.289, 1003.802 151.661, 997 151.388 C 993.975 151.267, 991.275 151.092, 991 150.999 C 990.725 150.907, 985.359 150.756, 979.076 150.665 C 971.205 150.551, 967.270 150.881, 966.423 151.724 M 1043.500 180 C 1043.160 180.550, 1043.359 181, 1043.941 181 C 1044.523 181, 1045 180.550, 1045 180 C 1045 179.450, 1044.802 179, 1044.559 179 C 1044.316 179, 1043.840 179.450, 1043.500 180 M 855.500 203.574 C 854.400 203.723, 848.100 204.369, 841.500 205.009 C 814.620 207.617, 816.049 207.231, 802.125 215.627 C 777.682 230.365, 773.434 233.564, 771.100 238.990 C 769.945 241.674, 769 244.850, 769 246.047 C 769 247.948, 769.410 248.153, 772.250 247.672 C 774.554 247.282, 776.810 247.817, 780 249.509 C 782.475 250.821, 785.461 252.338, 786.637 252.880 C 790.346 254.589, 794.970 261.168, 799.650 271.396 L 804.179 281.292 803.089 292.449 C 802.490 298.585, 802 307.632, 802 312.553 L 802 321.500 814.250 321.526 C 825.672 321.550, 852.620 324.223, 856 325.668 C 857.454 326.289, 915.665 327.383, 941 327.265 C 947.875 327.233, 954.607 326.778, 955.961 326.253 C 957.659 325.595, 960.097 325.737, 963.828 326.712 C 971.904 328.821, 972 328.702, 972 316.535 C 972 308.355, 971.520 304.622, 969.849 299.794 C 968.085 294.695, 967.887 292.944, 968.745 290.040 C 969.321 288.093, 970.893 282.666, 972.238 277.980 C 975.155 267.820, 978.427 262.350, 985.920 255.106 C 992.171 249.065, 996.645 246.009, 999.250 246.004 C 1003.479 245.995, 999.238 240.065, 992 235.869 C 989.525 234.434, 984.350 231.552, 980.500 229.465 C 976.650 227.377, 968.958 223.103, 963.408 219.967 C 957.857 216.830, 949.982 213.246, 945.908 212.001 C 941.833 210.757, 938.050 209.441, 937.500 209.078 C 936.181 208.207, 929.507 205.950, 926.157 205.242 C 924.696 204.933, 912.475 204.566, 899 204.426 C 885.525 204.285, 870.675 203.975, 866 203.736 C 861.325 203.497, 856.600 203.424, 855.500 203.574" stroke="#b09658" fill="#b09658" fill-opacity="0.2" fill-rule="evenodd"/><path class="svg-region-LPVl" d="M 994.429 247.880 C 989.705 250.761, 978.182 262.707, 976.159 266.822 C 975.164 268.845, 973.544 273.425, 972.559 277 C 971.573 280.575, 970.145 285.197, 969.384 287.270 C 967.544 292.284, 967.627 293.957, 970.083 301.246 C 971.800 306.343, 972.107 309.322, 971.833 318.215 L 971.500 329.002 976.400 329.001 C 983.027 329, 996.178 331.667, 1003.500 334.499 C 1006.800 335.775, 1014 337.793, 1019.500 338.984 C 1025 340.175, 1032.425 341.787, 1036 342.567 C 1039.575 343.346, 1043.752 344.498, 1045.282 345.126 C 1046.812 345.755, 1048.224 346.096, 1048.419 345.885 C 1048.895 345.369, 1047.098 339.389, 1038.991 314.500 C 1026.223 275.302, 1025.431 273.376, 1018.666 265.038 C 1015.302 260.892, 1012.065 257.050, 1011.474 256.500 C 1010.882 255.950, 1008.703 253.363, 1006.632 250.750 C 1002.379 245.385, 999.594 244.730, 994.429 247.880" stroke="#494949" fill="#494949" fill-opacity="0.2" fill-rule="evenodd"/><path class="svg-region-LPVr" d="M 770.139 248.798 C 766.485 250.614, 753.509 268.280, 747.222 280 C 743.657 286.647, 731.250 306.098, 730 307 C 727.891 308.522, 719.301 322.281, 715.476 330.262 L 711.048 339.500 717.115 339.800 C 724.010 340.141, 730.850 338.216, 738.255 333.849 C 740.913 332.282, 743.524 331, 744.058 331 C 744.591 331, 745.809 330.562, 746.764 330.026 C 747.719 329.490, 751.875 327.958, 756 326.621 C 763.181 324.293, 766.469 323.900, 791.750 322.344 L 802 321.713 802 312.659 C 802 307.680, 802.497 298.514, 803.105 292.290 L 804.210 280.974 799.917 271.737 C 793.653 258.259, 790.400 254.378, 782.001 250.366 C 773.945 246.518, 774.564 246.599, 770.139 248.798" stroke="#494949" fill="#494949" fill-opacity="0.2" fill-rule="evenodd"/><path class="svg-region-VV" d="M 903 127.621 C 901.625 127.889, 897.800 128.931, 894.500 129.935 C 876.570 135.395, 877.275 135.303, 862.722 134.091 C 846.470 132.737, 832.217 134.322, 817.250 139.148 C 812.093 140.811, 811 141.547, 811 143.359 C 811 144.567, 810.347 146.487, 809.549 147.626 C 806.516 151.957, 807.286 157.288, 812.379 167.213 L 817.144 176.500 827.322 176.570 C 832.920 176.608, 839.300 176.981, 841.500 177.400 L 845.500 178.160 842.218 174.750 C 840.414 172.874, 838.108 169.126, 837.095 166.420 C 835.314 161.666, 835.313 161.359, 837.060 157.310 C 839.122 152.530, 843.119 149.969, 848.879 149.739 C 853.635 149.550, 856.073 151.733, 859.526 159.276 C 862.659 166.119, 862.304 167.926, 856.684 173.750 L 852.584 178 865.733 178 C 872.965 178, 879.121 177.613, 879.413 177.141 C 879.962 176.253, 890.936 175.633, 933.175 174.104 C 946.746 173.613, 958.221 172.975, 958.675 172.687 C 961.667 170.788, 966 156.317, 966 148.225 C 966 143.860, 961.123 138.556, 955.203 136.482 C 952.617 135.576, 948.475 133.920, 946 132.801 C 937.218 128.833, 932.518 127.914, 919 127.523 C 911.575 127.309, 904.375 127.352, 903 127.621 M 914.750 145.105 C 911.710 146.832, 910 151.583, 910 158.301 C 910 165.726, 911.445 170.632, 914.039 172.021 C 917.776 174.021, 921.391 173.080, 926.371 168.812 C 931.225 164.652, 931.240 164.619, 930.717 159.569 C 930.428 156.781, 929.621 153.251, 928.924 151.725 C 926.779 147.029, 918.320 143.078, 914.750 145.105" stroke="#7699d1" fill="#7699d1" fill-opacity="0.2" fill-rule="evenodd"/><path class="svg-region-B" d="M 883.417 608.492 C 880.003 611.906, 871.586 614.611, 868.688 613.226 C 854.557 606.472, 851.868 606.240, 843.699 611.070 C 840.508 612.957, 837.021 614.944, 835.949 615.487 C 834.424 616.259, 834 617.521, 834 621.283 C 834 627.566, 830.903 633.314, 823.566 640.651 C 813.073 651.144, 807 662.787, 807 672.411 C 807 677.210, 806.616 678.409, 804.478 680.286 C 803.092 681.504, 799.891 684.443, 797.366 686.817 C 793.547 690.408, 792.206 691.085, 789.389 690.842 C 786.326 690.578, 785.609 691.072, 781.877 696.025 C 777.351 702.031, 774.829 707.114, 772.962 714 C 772.290 716.475, 771.022 720.075, 770.143 722 C 767.194 728.458, 768.866 744.775, 773.474 754.500 C 777.786 763.602, 787.248 771.886, 797.639 775.658 C 802.746 777.512, 806.121 778, 813.824 778 C 822.884 778, 824.060 777.759, 830.841 774.509 C 840.086 770.078, 851.481 761.472, 856 755.508 C 857.925 752.967, 861.692 748.326, 864.370 745.194 C 869.560 739.127, 871.286 736.596, 877.865 725.411 C 880.831 720.369, 882.468 716.055, 883.538 710.468 C 884.994 702.854, 887.009 699, 889.534 699 C 891.104 699, 892.529 702.837, 893.990 711 C 895.137 717.406, 900.650 733.444, 903.859 739.712 C 906.172 744.227, 916.438 755.706, 923.190 761.324 C 932.410 768.997, 938.369 770.855, 959.500 772.646 C 969.767 773.516, 979.666 769.804, 991 760.832 C 998.426 754.954, 999.109 753.978, 1004.174 742 C 1006.219 737.164, 1006.487 734.990, 1006.390 724 C 1006.300 713.844, 1005.842 710.141, 1003.943 704.250 C 1002.658 700.263, 1001.245 697, 1000.803 697 C 1000.361 697, 1000 699.007, 1000 701.460 L 1000 705.921 996.112 702.110 C 993.877 699.919, 991.911 696.855, 991.487 694.900 C 991.081 693.030, 989.343 689.893, 987.625 687.930 C 985.906 685.966, 982.722 682.271, 980.549 679.718 C 978.377 677.165, 975.227 674.513, 973.549 673.823 C 967.876 671.492, 961.859 666.775, 960.546 663.629 C 958.447 658.599, 957 653.524, 957 651.186 C 957 648.869, 947.720 638.784, 942.500 635.429 C 938.013 632.544, 936 630.685, 936 629.426 C 936 628.805, 934.763 626.964, 933.250 625.335 C 931.737 623.705, 929.340 621.029, 927.921 619.387 C 925.316 616.371, 924.424 616.074, 908.594 612.952 C 905.139 612.270, 901.031 610.586, 898.694 608.893 C 893.370 605.036, 887.039 604.870, 883.417 608.492" stroke="#e23b33" fill="#e23b33" fill-opacity="0.2" fill-rule="evenodd"/><path class="svg-region-Ol" d="M 1282.500 253.574 C 1281.950 253.803, 1274.300 255.067, 1265.500 256.384 C 1249.624 258.759, 1238.188 261.344, 1230.500 264.294 C 1228.300 265.139, 1225.166 266.126, 1223.535 266.488 C 1220.155 267.238, 1199.758 277.246, 1193 281.471 C 1167.068 297.679, 1158.170 305.394, 1153.412 315.793 C 1151.576 319.804, 1149.794 324.754, 1149.451 326.793 C 1149.108 328.832, 1146.422 338.150, 1143.482 347.500 C 1140.542 356.850, 1137.175 370.125, 1136 377 C 1127.663 425.769, 1125.907 431.658, 1115.604 445.385 C 1105.250 459.181, 1103.053 462.343, 1100.587 467 C 1099.276 469.475, 1095.560 474.488, 1092.329 478.141 C 1089.098 481.793, 1085.799 486.068, 1084.998 487.641 C 1084.196 489.213, 1082.575 491.850, 1081.396 493.500 C 1080.216 495.150, 1078 500.325, 1076.471 505 C 1074.942 509.675, 1073.306 514.289, 1072.835 515.254 C 1072.364 516.218, 1071.555 522.200, 1071.038 528.546 C 1070.118 539.833, 1070.499 546.189, 1073.072 562.500 C 1074.013 568.466, 1074.200 579.738, 1073.553 591.500 C 1073.462 593.150, 1072.851 595.767, 1072.194 597.315 C 1071.537 598.863, 1071 600.721, 1071 601.443 C 1071 602.165, 1070.278 603.354, 1069.396 604.086 C 1067.478 605.678, 1066.643 607.762, 1063.881 617.843 C 1061.472 626.635, 1060.165 632.794, 1059.495 638.500 C 1059.237 640.700, 1058.599 644.750, 1058.078 647.500 C 1055.388 661.688, 1056.548 679.162, 1061.140 693.608 C 1063.867 702.185, 1071.108 713.437, 1083.273 728 C 1094.159 741.032, 1102.502 748.654, 1106.911 749.596 C 1111.216 750.517, 1121.338 754.264, 1124 755.922 C 1127.329 757.997, 1135.371 764.056, 1136 764.964 C 1136.275 765.361, 1138.750 767.386, 1141.500 769.464 C 1144.250 771.542, 1146.725 773.527, 1147 773.875 C 1147.275 774.223, 1150.650 776.864, 1154.500 779.744 C 1158.350 782.624, 1161.952 785.322, 1162.504 785.740 C 1171.928 792.872, 1175.141 795.110, 1178.500 796.879 C 1180.700 798.037, 1184.750 800.354, 1187.500 802.027 C 1197.482 808.098, 1214.780 815.399, 1221.500 816.376 C 1223.700 816.696, 1227.525 817.398, 1230 817.936 C 1238.358 819.751, 1247.950 819.197, 1256.528 816.404 C 1260.912 814.977, 1265.353 812.901, 1266.395 811.791 C 1268.340 809.719, 1275.531 806.061, 1277.735 806.022 C 1279.311 805.994, 1288.343 800.514, 1293.349 796.549 C 1295.466 794.872, 1301.766 788.938, 1307.349 783.363 C 1322.133 768.598, 1331.137 757.526, 1365.375 712 C 1377.991 695.225, 1388.917 681.140, 1389.656 680.700 C 1390.395 680.260, 1391 679.266, 1391 678.489 C 1391 677.713, 1391.816 676.273, 1392.814 675.289 C 1395.587 672.554, 1406.435 658.881, 1408.514 655.500 C 1409.529 653.850, 1411.291 651.481, 1412.430 650.235 C 1417.797 644.362, 1437 620.325, 1437 619.480 C 1437 619.177, 1439.846 615.008, 1443.325 610.215 C 1446.803 605.422, 1450.516 600.080, 1451.575 598.344 C 1454.194 594.050, 1465.279 578.198, 1468.248 574.500 C 1469.573 572.850, 1474.653 563.625, 1479.537 554 C 1492.654 528.150, 1492.851 527.718, 1494.397 521.361 C 1495.181 518.138, 1496.958 512.330, 1498.347 508.454 C 1502.363 497.242, 1503.263 489.310, 1503.386 464.060 C 1503.497 441.110, 1501.984 421.685, 1499.919 419.550 C 1499.413 419.028, 1499 417.637, 1499 416.460 C 1499 414.144, 1493.163 401.713, 1491.820 401.167 C 1491.369 400.983, 1491 400.266, 1491 399.573 C 1491 397.469, 1481.395 384.489, 1478.372 382.508 C 1476.815 381.488, 1471.772 376.794, 1467.167 372.076 C 1458.996 363.707, 1456.822 361.173, 1440.082 340.500 C 1431.162 329.483, 1429.191 327.332, 1419.862 318.429 C 1416.363 315.090, 1407.425 306.078, 1400 298.402 C 1392.575 290.727, 1383.350 282.224, 1379.500 279.507 C 1375.650 276.790, 1370.601 272.703, 1368.280 270.424 C 1365.960 268.145, 1361.010 264.711, 1357.280 262.792 C 1346.471 257.230, 1335.720 255.367, 1306.500 253.992 C 1284.123 252.938, 1284.032 252.937, 1282.500 253.574" stroke="#aa444d" fill="#aa444d" fill-opacity="0.2" fill-rule="evenodd"/><path class="svg-region-Or" d="M 488 253.657 C 486.075 253.910, 480.332 255.441, 475.238 257.059 C 470.144 258.676, 465.513 260, 464.948 260 C 464.382 260, 462.700 260.848, 461.210 261.884 C 459.719 262.919, 456.250 264.302, 453.500 264.956 C 442.216 267.638, 437.831 269.364, 427.908 275.027 C 422.184 278.294, 417.074 280.974, 416.554 280.983 C 415.627 281, 414.140 281.915, 402.991 289.334 C 399.962 291.350, 397.114 293, 396.663 293 C 395.033 293, 381.184 300.073, 379.985 301.518 C 379.309 302.333, 378.429 303, 378.031 303 C 376.982 303, 362.342 312.906, 351.446 320.988 C 345.267 325.573, 341.402 329.233, 340.113 331.722 C 339.037 333.800, 335.970 338.200, 333.298 341.500 C 330.626 344.800, 327.030 350.220, 325.306 353.544 C 322.487 358.981, 320.251 365.410, 308.459 402 C 304.532 414.183, 301.597 421.728, 296.983 431.500 C 295.166 435.350, 293.123 439.850, 292.444 441.500 C 291.766 443.150, 290.745 445.625, 290.175 447 C 288.465 451.131, 285.821 464.901, 286.520 466.033 C 286.879 466.613, 286.747 467.630, 286.227 468.294 C 284.985 469.878, 286.482 490.602, 288.409 498.500 C 291.391 510.720, 291.961 512.590, 293.959 516.702 C 295.081 519.013, 296 521.426, 296 522.066 C 296 522.705, 296.855 524.864, 297.901 526.864 C 298.946 528.864, 300.574 532.300, 301.519 534.500 C 305.787 544.436, 319.265 566.202, 327.527 576.500 C 329.292 578.700, 331.226 581.447, 331.825 582.605 C 332.858 584.600, 336.045 588.772, 353.518 611 C 365.855 626.695, 378.349 644.156, 381.422 650 C 383.013 653.025, 385.067 656.625, 385.986 658 C 388 661.014, 394.760 675.124, 396.527 680 C 397.692 683.215, 398.984 686.132, 406.271 702 C 407.660 705.025, 409.508 709.075, 410.378 711 C 411.248 712.925, 412.346 715.175, 412.818 716 C 413.781 717.682, 414.287 718.652, 422.987 735.500 C 438.580 765.696, 453.150 789.429, 467.680 808.298 C 480.222 824.586, 481.582 825.560, 500.764 831.987 C 507.219 834.150, 516.550 837.322, 521.500 839.035 C 529.799 841.907, 531.552 842.154, 544 842.200 C 573.005 842.306, 601.206 831.264, 623.558 811.047 C 627.539 807.446, 634.289 801.575, 638.558 798 C 661.190 779.048, 661.824 778.401, 674.973 760.818 C 677.983 756.793, 686.825 746.975, 694.622 739 C 702.418 731.025, 710.012 723.198, 711.496 721.607 C 715.353 717.473, 720.496 707.643, 723.063 699.500 C 724.277 695.650, 725.600 692.050, 726.004 691.500 C 726.799 690.417, 727.907 683.196, 728.382 676 C 728.545 673.525, 729.457 668.423, 730.408 664.662 C 731.359 660.901, 732.164 656.851, 732.195 655.662 C 732.227 654.473, 733.096 648.275, 734.127 641.889 C 736.460 627.426, 736.455 623.158, 734.090 610 C 730.847 591.951, 729.332 589.212, 714.303 574.220 C 708.857 568.787, 705 564.123, 705 562.970 C 705 560.638, 708.024 542.772, 708.568 541.891 C 708.775 541.555, 708.999 536.605, 709.066 530.891 C 709.202 519.323, 707.712 512.810, 701.772 499 C 700.944 497.075, 698.631 493.545, 696.633 491.155 C 694.635 488.766, 693 486.324, 693 485.729 C 693 483.210, 675.481 459.365, 672.749 458.164 C 672.328 457.979, 670.151 456.067, 667.911 453.914 C 665.670 451.761, 663.458 450, 662.995 450 C 661.058 450, 655.812 444.477, 654.026 440.557 C 650.445 432.696, 645.880 409.636, 643.523 387.500 C 642.548 378.337, 640.808 369.181, 638.490 361 C 636.541 354.125, 634.052 344.232, 632.958 339.017 C 631.864 333.801, 630.076 327.146, 628.985 324.229 C 627.893 321.312, 626.999 318.154, 626.998 317.212 C 626.996 315.406, 621.816 305.033, 619.491 302.179 C 609.601 290.040, 607 286.634, 607 285.822 C 607 284.852, 588.411 271, 587.110 271 C 586.562 271, 584.577 270.093, 582.698 268.984 C 576.149 265.120, 555.911 258.990, 538 255.445 C 529.670 253.796, 496.071 252.595, 488 253.657" stroke="#aa444d" fill="#aa444d" fill-opacity="0.2" fill-rule="evenodd"/><path class="svg-region-BPCl" d="M 797.655 380.547 C 791.850 386.185, 787.418 396.463, 786.366 406.729 C 785.587 414.336, 786.773 416.393, 791.409 415.481 C 799.109 413.965, 803.213 410.117, 803.653 404 C 803.791 402.075, 804.336 396.270, 804.863 391.100 C 805.823 381.685, 805.577 379.138, 803.573 377.765 C 801.890 376.613, 801.532 376.781, 797.655 380.547 M 966.096 400.250 C 964.561 404.956, 965.020 439, 966.617 439 C 967.284 439, 969.526 436.637, 971.600 433.750 C 976.408 427.056, 987.765 415.276, 990.926 413.705 C 994.032 412.162, 994.682 410.172, 992.333 409.393 C 991.325 409.059, 989.082 408.159, 987.349 407.393 C 985.616 406.627, 983.792 406, 983.295 406 C 982.799 406, 980.866 404.425, 979 402.500 C 977.107 400.547, 974.616 399, 973.363 399 C 972.128 399, 970.840 398.550, 970.500 398 C 969.259 395.992, 967.129 397.080, 966.096 400.250 M 955.500 579.647 C 954.400 579.898, 952.600 580.489, 951.500 580.960 C 947.399 582.717, 939.421 585.195, 937.125 585.426 C 934.172 585.722, 931.656 589.880, 933.260 591.813 C 933.862 592.538, 935.625 593.789, 937.177 594.592 C 939.475 595.780, 940 596.716, 940 599.625 C 940 606.233, 934.798 613, 929.718 613 C 928.908 613, 927.712 613.643, 927.060 614.428 C 925.508 616.297, 927.513 620.235, 932.415 624.946 C 934.387 626.842, 936 628.912, 936 629.547 C 936 630.181, 937.462 631.781, 939.250 633.100 C 941.038 634.420, 945.717 638.569, 949.649 642.321 C 955.221 647.638, 956.937 649.953, 957.428 652.821 C 957.775 654.844, 958.326 658.018, 958.653 659.874 C 959.411 664.176, 964.875 669.653, 972.023 673.277 C 978.472 676.547, 989.600 688.968, 991.168 694.647 C 991.713 696.620, 993.923 699.964, 996.079 702.078 L 1000 705.921 1000 701.507 C 1000 699.080, 1000.477 696.048, 1001.060 694.769 C 1002.424 691.774, 1002.314 691.526, 990.750 671.628 C 988.688 668.079, 987 664.667, 987 664.046 C 987 663.425, 986.044 661.923, 984.874 660.708 C 981.859 657.576, 970.002 633.019, 970.001 629.905 C 970 628.478, 969.100 626.495, 968 625.500 C 966.900 624.505, 966 622.920, 966 621.980 C 966 621.039, 965.099 619.124, 963.997 617.724 C 961.855 615, 961.840 615.114, 965.618 605.329 C 968.880 596.881, 968.715 589.938, 965.113 584 C 962.360 579.463, 960.332 578.544, 955.500 579.647" stroke="#83385f" fill="#83385f" fill-opacity="0.2" fill-rule="evenodd"/><path class="svg-region-BPCr" d="M 803.397 577.267 C 797.756 583.257, 796.764 589.245, 800.001 597.761 C 801.100 600.654, 801.989 604.929, 801.975 607.261 C 801.937 613.836, 796.893 627.586, 792.670 632.629 C 791.347 634.208, 788.153 639.752, 785.571 644.949 C 782.989 650.146, 778.977 657.121, 776.657 660.449 C 771.235 668.225, 768.152 674.781, 765.847 683.432 C 762.677 695.330, 763.522 724.856, 767.136 728.469 C 767.702 729.035, 771.041 720.889, 773.066 714 C 775.322 706.326, 777.584 701.708, 781.872 696.025 C 785.641 691.030, 786.307 690.577, 789.473 690.849 C 792.441 691.105, 793.617 690.485, 797.584 686.574 C 800.136 684.058, 802.686 682, 803.252 682 C 805.459 682, 806.938 678.269, 806.968 672.625 C 807.022 662.741, 813.007 651.210, 823.566 640.651 C 836.536 627.682, 837.463 616.921, 826.712 604.156 C 825.163 602.317, 824.069 600.292, 824.279 599.656 C 824.490 599.020, 826.426 598.247, 828.581 597.939 C 833.386 597.251, 838.544 594.631, 839.379 592.455 C 839.720 591.565, 840 589.346, 840 587.525 C 840 583.740, 838.817 583.007, 832.668 582.985 C 828.423 582.971, 824.319 581.795, 813.329 577.443 C 805.866 574.488, 806.012 574.491, 803.397 577.267" stroke="#83385f" fill="#83385f" fill-opacity="0.2" fill-rule="evenodd"/><path class="svg-region-VSl" d="M 913.310 146.409 C 910.679 148.671, 910.481 149.389, 910.202 157.663 C 909.949 165.146, 910.215 166.998, 911.937 169.750 C 913.662 172.507, 914.558 173, 917.845 173 C 923.131 173, 931 166.335, 931 161.858 C 931 155.132, 928.864 149.935, 925.112 147.535 C 919.396 143.879, 916.567 143.609, 913.310 146.409" stroke="#959faf" fill="#959faf" fill-opacity="0.2" fill-rule="evenodd"/><path class="svg-region-VSr" d="M 846.500 149.976 C 839.709 151.722, 838.257 152.797, 836.772 157.181 C 835.470 161.025, 835.485 162.014, 836.905 166.182 C 838.643 171.284, 841.994 175.406, 846.168 177.578 C 848.464 178.773, 849.336 178.758, 852.423 177.468 C 856.115 175.925, 862.001 168.939, 861.999 166.100 C 861.998 163.226, 856.264 152.298, 853.881 150.629 C 851.356 148.860, 850.972 148.826, 846.500 149.976" stroke="#959faf" fill="#959faf" fill-opacity="0.2" fill-rule="evenodd"/>
    </svg>