<svg xmlns="http://www.w3.org/2000/svg" width="1785" height="1131" viewBox="0 0 1785 1131" version="1.1">
    <path class="svg-region-AP" d="M 878.581 461.650 C 872.734 463.169, 857.126 465, 850.026 465 C 847.247 465, 844.191 465.418, 843.236 465.928 C 841.301 466.963, 826.477 469.003, 820.910 469.001 C 817.349 469, 817.309 469.048, 816.078 474.750 C 815.396 477.913, 814.446 482.300, 813.967 484.500 C 812.642 490.584, 811.966 494.827, 811.098 502.500 C 809.320 518.220, 802.305 524.203, 794.116 516.985 C 790.761 514.028, 790.736 513.941, 791.227 507.066 C 791.666 500.929, 790.786 494.959, 788.711 490 C 788.152 488.665, 786 474.308, 786 471.914 C 786 471.397, 784.313 471.682, 782.250 472.547 C 777.154 474.686, 768.518 475.013, 762.651 473.289 C 759.985 472.505, 757.679 472.007, 757.528 472.182 C 757.376 472.357, 758.031 474.975, 758.983 478 C 759.935 481.025, 761.687 487.550, 762.876 492.500 C 764.066 497.450, 766.321 506.225, 767.888 512 C 771.799 526.418, 773.442 533.037, 777.523 550.829 C 780.987 565.931, 783.515 573.818, 784.558 572.775 C 784.851 572.483, 784.647 570.276, 784.105 567.872 C 783.563 565.467, 782.878 561.376, 782.583 558.779 C 782.089 554.434, 782.303 553.817, 785.273 551.026 C 787.048 549.359, 789.400 547.718, 790.500 547.379 C 791.600 547.040, 793.175 546.233, 794 545.585 C 794.825 544.936, 798.152 543.345, 801.393 542.048 C 809.560 538.781, 810.319 539.442, 811.210 550.604 C 811.600 555.497, 812.292 562.020, 812.746 565.099 C 814.045 573.901, 818.907 579.426, 820.359 573.750 C 820.676 572.513, 822.749 569.314, 824.967 566.641 C 827.185 563.969, 829 561.337, 829 560.792 C 829 558.480, 832.669 552.119, 836.924 547.053 C 839.441 544.058, 841.960 540.683, 842.523 539.553 C 843.727 537.137, 848.877 536.200, 850.126 538.170 C 852.057 541.215, 850.349 548.486, 846.224 554.780 C 844.246 557.800, 841.185 566.687, 840.072 572.642 C 839.306 576.744, 839.439 577.176, 842.030 579.021 C 843.558 580.109, 845.256 581, 845.802 581 C 847.974 581, 855.331 585.949, 857.161 588.642 C 858.230 590.214, 860.433 594.078, 862.056 597.230 C 863.680 600.381, 866.169 603.720, 867.588 604.650 C 869.463 605.878, 870.046 606.977, 869.723 608.670 L 869.277 611 885.014 611 C 893.669 611, 902.269 611.234, 904.125 611.519 C 906.467 611.879, 906.910 611.780, 905.573 611.194 C 903.824 610.427, 903.803 610.290, 905.350 609.696 C 906.286 609.337, 907.883 607.106, 908.897 604.740 C 912.298 596.805, 928.061 585.156, 938.173 583.104 C 941.225 582.484, 941.525 582.088, 941.803 578.308 C 941.989 575.779, 941.087 571.159, 939.466 566.344 C 938.015 562.030, 936.466 555.140, 936.025 551.032 L 935.223 543.565 939.362 536.610 L 943.500 529.656 944.076 535.578 C 944.730 542.305, 945.519 544.631, 948.137 547.552 C 950.213 549.868, 952.973 558.159, 952.989 562.129 C 952.995 563.575, 954.143 567.255, 955.540 570.305 C 956.936 573.356, 958.405 577.763, 958.804 580.098 C 959.459 583.938, 962 586.961, 962 583.901 C 962 583.205, 964.410 579.005, 967.356 574.568 C 970.302 570.131, 973.431 565.099, 974.311 563.388 C 976.852 558.439, 988.159 546.995, 990.465 547.038 C 991.684 547.061, 993.603 548.670, 995.250 551.051 C 997.513 554.323, 998 556.104, 998 561.113 C 998 566.157, 997.306 568.661, 993.953 575.719 C 991.726 580.405, 990.087 584.421, 990.310 584.643 C 991.011 585.345, 992.619 582.760, 996.928 574 C 999.228 569.325, 1001.740 564.375, 1002.510 563 C 1012.810 544.603, 1031.379 498.690, 1035.419 481.629 C 1036.046 478.982, 1035.972 478.885, 1034.478 480.379 C 1033.184 481.673, 1030.705 481.997, 1022.179 481.985 C 1012.073 481.972, 1011.125 481.788, 1004.510 478.558 C 1000.666 476.682, 997.314 475.352, 997.062 475.605 C 996.810 475.857, 997.176 477.961, 997.875 480.282 C 998.575 482.602, 999.689 486.379, 1000.352 488.677 C 1001.015 490.974, 1002.332 493.709, 1003.279 494.755 C 1005.921 497.675, 1005.436 500.723, 1002.050 502.474 C 1000.427 503.313, 998.396 504, 997.537 504 C 996.155 504, 993.151 509.186, 991.599 514.250 C 990.919 516.469, 986.267 516.576, 983.223 514.443 C 981.396 513.164, 981 511.932, 981 507.525 C 981 501.146, 980.314 499, 978.276 499 C 977.161 499, 976.958 498.413, 977.499 496.750 C 977.902 495.512, 978.181 493.600, 978.120 492.500 C 977.713 485.175, 976.737 478.820, 975.355 474.500 L 973.757 469.500 965.128 469.485 C 960.383 469.477, 952.450 468.657, 947.500 467.663 C 942.550 466.669, 936.025 465.440, 933 464.932 C 929.975 464.425, 926.437 463.798, 925.137 463.540 C 923.838 463.283, 917.763 462.829, 911.637 462.532 C 896.394 461.792, 884.852 461.008, 884.114 460.661 C 883.776 460.502, 881.286 460.947, 878.581 461.650" stroke="#fc7143" fill="#fc7143" fill-opacity="0.2" fill-rule="evenodd"/><path class="svg-region-PP" d="M 827.507 324.919 C 825.675 325.634, 825.764 325.827, 828.608 327.297 C 830.310 328.178, 832.466 330.062, 833.398 331.484 C 835.005 333.937, 834.983 334.444, 832.981 341.285 C 831.820 345.253, 830.184 350.525, 829.345 353 C 825.061 365.642, 824.083 373.803, 825.570 384.500 C 826.497 391.165, 824.266 422.950, 822.341 430.500 C 821.500 433.800, 820.625 438.075, 820.397 440 C 820.169 441.925, 819.547 447.100, 819.016 451.500 C 818.484 455.900, 817.821 461.637, 817.543 464.250 L 817.038 469 821.269 469.007 C 826.568 469.015, 840.831 467.070, 843.500 465.975 C 844.600 465.524, 850.644 464.882, 856.931 464.549 C 863.219 464.215, 871.693 463.255, 875.763 462.414 C 881.219 461.287, 885.441 461.084, 891.832 461.640 C 896.599 462.055, 902.075 462.315, 904 462.218 C 911.561 461.837, 939.753 465.620, 954.764 469.031 C 959.575 470.124, 968.326 470.287, 971.831 469.349 C 973.644 468.863, 974.020 468.256, 973.524 466.612 C 973.174 465.451, 972.003 460, 970.922 454.500 C 969.842 449, 968.427 443.150, 967.777 441.500 C 967.045 439.639, 966.334 428.249, 965.905 411.500 C 965.524 396.650, 964.686 380.900, 964.042 376.500 C 963.398 372.100, 962.548 366.025, 962.152 363 C 961.756 359.975, 960.602 356.253, 959.587 354.729 C 958.272 352.754, 957.891 350.851, 958.259 348.103 C 958.582 345.697, 958.079 342.227, 956.921 338.874 C 955.900 335.918, 955.051 332.669, 955.033 331.653 C 955.004 330.048, 954.379 329.874, 950.250 330.320 C 947.638 330.602, 942.800 331.347, 939.500 331.976 C 932.384 333.333, 879.560 332.735, 871 331.201 C 856.830 328.661, 854.204 328.023, 850 326.101 C 846.610 324.551, 843.526 324.056, 837.500 324.092 C 833.100 324.119, 828.603 324.491, 827.507 324.919" stroke="#c4743d" fill="#c4743d" fill-opacity="0.2" fill-rule="evenodd"/><path class="svg-region-ADCl" d="M 941.613 581.816 C 941.211 582.467, 939.883 583, 938.663 583 C 931.145 583, 911.406 597.163, 908.946 604.322 C 908.223 606.424, 906.807 608.722, 905.797 609.429 C 904.154 610.580, 904.564 610.894, 909.731 612.437 C 918.089 614.933, 921.306 616.172, 923 617.547 C 923.825 618.216, 927.984 620.595, 932.243 622.833 L 939.986 626.903 938.375 623.201 C 934.633 614.606, 934.582 614.321, 935.828 608.927 C 936.554 605.778, 938.027 602.778, 939.528 601.387 C 940.899 600.116, 942.466 597.905, 943.010 596.473 C 944.840 591.660, 943.597 578.608, 941.613 581.816" stroke="#54413e" fill="#54413e" fill-opacity="0.2" fill-rule="evenodd"/><path class="svg-region-ADCr" d="M 839.640 578.693 C 838.202 580.132, 838.998 596.689, 840.667 600.034 C 842.129 602.964, 842.176 604.061, 841.050 608.938 C 838.734 618.978, 838.617 621, 840.354 621 C 841.218 621, 844.305 620.054, 847.213 618.897 C 850.121 617.741, 854.975 616.157, 858 615.378 C 866.611 613.161, 868.977 611.939, 869.621 609.375 C 870.075 607.566, 869.477 606.314, 867.100 604.093 C 865.386 602.492, 863.191 599.454, 862.222 597.341 C 858.816 589.916, 855.136 585.542, 850.276 583.144 C 847.649 581.848, 844.326 580.172, 842.890 579.420 C 841.455 578.668, 839.992 578.341, 839.640 578.693" stroke="#54413e" fill="#54413e" fill-opacity="0.2" fill-rule="evenodd"/><path class="svg-region-DMl" d="M 979.965 329.208 C 979.198 333.758, 978.996 339.934, 979.418 345.958 C 979.786 351.206, 980.455 361.350, 980.905 368.500 C 981.354 375.650, 982.472 383.975, 983.388 387 C 984.304 390.025, 985.997 395.650, 987.150 399.500 C 988.304 403.350, 989.583 406.950, 989.993 407.500 C 990.404 408.050, 991.036 410.075, 991.399 412 C 992.113 415.791, 997.085 422, 999.407 422 C 1000.196 422, 1004.815 421.052, 1009.671 419.894 C 1024.308 416.402, 1035.371 418.126, 1043.763 425.209 C 1047.850 428.657, 1052.742 431.230, 1053.342 430.246 C 1053.592 429.836, 1054.321 427.475, 1054.962 425 C 1056.203 420.201, 1058.827 411.395, 1065.242 390.500 C 1072.528 366.765, 1073.935 362.730, 1075.540 360.955 C 1077.005 359.337, 1076.931 358.797, 1074.609 354.216 C 1071.693 348.461, 1065.325 343.301, 1060.068 342.434 C 1055.963 341.756, 1046.994 338.940, 1045.461 337.847 C 1044.890 337.439, 1041.290 336.610, 1037.461 336.005 C 1030.921 334.970, 1019.986 332.045, 1015.500 330.131 C 1014.400 329.661, 1011.700 328.722, 1009.500 328.045 C 1007.300 327.367, 1002.723 325.729, 999.329 324.406 C 995.260 322.819, 991.119 322, 987.170 322 L 981.181 322 979.965 329.208" stroke="#68533d" fill="#68533d" fill-opacity="0.2" fill-rule="evenodd"/><path class="svg-region-DMr" d="M 792 321 C 790.625 321.440, 783.425 321.856, 776 321.924 C 764.095 322.033, 761.791 322.339, 756.500 324.519 C 753.200 325.879, 749.704 326.993, 748.730 326.995 C 747.757 326.998, 745.213 328.103, 743.078 329.450 C 737.029 333.270, 726.050 335.577, 720.247 334.249 C 717.194 333.551, 715.301 333.513, 714.912 334.143 C 714.231 335.244, 719.297 358.624, 721.381 364 C 722.127 365.925, 723.047 369.620, 723.425 372.212 C 723.802 374.804, 725.385 380.879, 726.942 385.712 C 728.499 390.545, 730.099 396.525, 730.499 399 C 730.898 401.475, 732.300 406.074, 733.613 409.220 C 734.926 412.366, 736.020 415.741, 736.045 416.720 C 736.070 417.699, 736.690 419.850, 737.422 421.500 L 738.755 424.500 739.760 421.993 C 740.392 420.418, 742.202 418.970, 744.633 418.095 C 746.760 417.330, 750.374 415.172, 752.665 413.301 C 756.355 410.286, 758.524 409.552, 771.665 406.873 C 789.061 403.326, 793.162 403.475, 799.139 407.871 C 801.479 409.592, 803.812 411, 804.322 411 C 804.855 411, 805.056 407.487, 804.794 402.750 C 804.400 395.623, 803.907 393.827, 801.169 389.554 C 798.079 384.731, 798 384.322, 798 373.054 C 798 357.093, 799.723 349.664, 805.435 340.993 C 812.117 330.851, 812.562 329.640, 810.620 326.867 C 809.729 325.596, 809 323.530, 809 322.277 C 809 320.108, 808.657 320.005, 801.750 320.100 C 797.763 320.155, 793.375 320.560, 792 321" stroke="#68533d" fill="#68533d" fill-opacity="0.2" fill-rule="evenodd"/><path class="svg-region-VMl" d="M 1008.500 419.944 C 1004.650 421.012, 1000.487 421.911, 999.250 421.942 C 997.091 421.998, 996.991 422.394, 996.767 431.750 C 996.638 437.113, 996.682 448.700, 996.865 457.500 C 997.246 475.882, 997.299 476, 1006.883 479.842 C 1011.180 481.564, 1014.345 482, 1022.562 482 C 1033.769 482, 1035.447 481.304, 1036.600 476.180 C 1037.455 472.387, 1046.718 447.345, 1049.158 442.233 C 1050.278 439.886, 1051.434 436.184, 1051.726 434.007 C 1052.194 430.520, 1051.974 429.939, 1049.878 429.135 C 1048.570 428.633, 1046.322 427.123, 1044.881 425.780 C 1043.441 424.437, 1040.291 422.286, 1037.881 420.999 C 1031.725 417.711, 1018.294 417.229, 1008.500 419.944" stroke="#e59376" fill="#e59376" fill-opacity="0.2" fill-rule="evenodd"/><path class="svg-region-VMr" d="M 779 405.146 C 759.672 409.147, 756.568 410.113, 752.575 413.372 C 750.334 415.201, 746.785 417.260, 744.688 417.947 C 738.556 419.956, 738.063 424.601, 742.638 437.270 C 743.387 439.344, 744 441.784, 744 442.692 C 744 444.476, 748.241 455.928, 750.410 460 C 751.143 461.375, 752.288 464.195, 752.954 466.267 C 753.709 468.613, 755.173 470.539, 756.833 471.371 C 764.025 474.976, 775.415 475.580, 782.185 472.715 C 785.747 471.208, 785.865 470.994, 785.718 466.328 C 785.635 463.673, 786.383 458.125, 787.382 454 C 788.380 449.875, 789.520 444.700, 789.914 442.500 C 790.746 437.863, 798.705 421.121, 802.512 416 L 805.114 412.500 801.881 409.781 C 795.137 404.107, 789.518 402.969, 779 405.146" stroke="#e59376" fill="#e59376" fill-opacity="0.2" fill-rule="evenodd"/><path class="svg-region-PMl" d="M 980.685 196.181 C 971.161 201.392, 966.372 206.191, 965.701 211.196 C 965.105 215.635, 965.917 216.956, 969.258 216.985 C 971.653 217.006, 987.591 224.278, 990.363 226.615 C 991.593 227.652, 993.702 229.899, 995.050 231.610 C 996.397 233.320, 1000.733 238.545, 1004.684 243.221 C 1008.635 247.897, 1016.867 259.237, 1022.978 268.422 C 1033.540 284.298, 1034.312 285.818, 1038.666 299.310 C 1041.185 307.115, 1044.316 316.435, 1045.623 320.021 C 1046.930 323.608, 1048 327.286, 1048 328.195 C 1048 329.104, 1048.525 332.122, 1049.167 334.901 C 1050.418 340.322, 1051.364 340.973, 1060.138 342.440 C 1064.768 343.214, 1072.319 348.941, 1073.972 352.932 C 1074.671 354.619, 1075.578 356, 1075.989 356 C 1076.399 356, 1077.199 353.863, 1077.765 351.250 C 1078.332 348.637, 1079.460 344.250, 1080.271 341.500 C 1084.863 325.932, 1087.056 316.523, 1087.965 308.500 C 1089.242 297.216, 1089.307 276.714, 1088.070 275.450 C 1087.558 274.928, 1086.448 271.502, 1085.604 267.838 C 1084.241 261.918, 1082.531 257.867, 1075.968 245 C 1074.986 243.075, 1073.129 240.558, 1071.841 239.406 C 1068.473 236.394, 1053.203 224.946, 1048.500 221.906 C 1046.300 220.484, 1043.195 218.461, 1041.601 217.410 C 1040.006 216.360, 1037.531 214.739, 1036.101 213.809 C 1027.817 208.423, 1003.693 197.065, 997.500 195.634 C 993.650 194.745, 989.600 193.788, 988.500 193.508 C 987.333 193.211, 984.077 194.325, 980.685 196.181" stroke="#90cf92" fill="#90cf92" fill-opacity="0.2" fill-rule="evenodd"/><path class="svg-region-PMr" d="M 718.131 233.079 C 714.628 233.533, 711.561 234.106, 711.315 234.352 C 709.264 236.403, 708.323 280.262, 709.907 300 C 710.958 313.109, 712.778 328.726, 713.530 331.094 C 714.075 332.811, 720.103 335, 724.285 335 C 728.288 335, 738.807 332.046, 742.442 329.902 C 745.868 327.880, 748.177 322.522, 749.510 313.500 C 752.283 294.725, 756.052 281.542, 760.323 275.677 C 761.596 273.930, 763.460 270.593, 764.465 268.262 C 765.536 265.779, 767.579 263.266, 769.401 262.191 C 771.964 260.679, 772.910 259.026, 774.786 252.780 L 777.061 245.204 774.214 240.352 L 771.367 235.500 762.862 234.846 C 758.184 234.487, 752.589 233.702, 750.428 233.102 C 745.957 231.860, 727.633 231.848, 718.131 233.079" stroke="#90cf92" fill="#90cf92" fill-opacity="0.2" fill-rule="evenodd"/><path class="svg-region-PV" d="M 952.127 136.503 C 957.228 139.160, 964.030 146.308, 967.350 152.500 C 969.111 155.784, 969.495 158.200, 969.497 166 C 969.500 174.365, 969.155 176.246, 966.615 181.747 C 963.295 188.935, 957.614 194.642, 949.874 198.564 C 944.980 201.044, 943.879 201.213, 935.697 200.747 L 926.826 200.241 924.831 204.871 C 918.259 220.128, 915.680 223.668, 911.991 222.497 C 909.127 221.588, 907.879 217.908, 909.050 213.824 C 909.573 212.003, 910 208.389, 910 205.792 C 910 199.212, 908.565 198.619, 892.500 198.564 C 880.310 198.522, 879.151 198.690, 873.904 201.259 C 870.825 202.767, 867.746 204, 867.060 204 C 866.104 204, 865.975 206.163, 866.509 213.276 L 867.204 222.553 864.537 223.980 C 860.958 225.896, 859.438 224.823, 854.500 216.898 C 847.602 205.826, 848.127 206.260, 840.327 205.179 C 825.886 203.178, 820.255 196.641, 815.394 176.235 C 812.580 164.424, 812.687 159.758, 815.937 152.409 C 818.406 146.828, 817.495 146.796, 808.484 152.149 C 804.643 154.431, 799.250 157.401, 796.500 158.749 C 793.750 160.098, 789.209 162.955, 786.408 165.100 C 783.608 167.244, 778.883 169.838, 775.908 170.865 C 772.934 171.891, 766.450 174.877, 761.500 177.501 C 744.735 186.388, 740.492 188.265, 726.018 193.197 C 713.637 197.416, 710 201.546, 710 211.385 C 710 214.402, 710.480 218.131, 711.066 219.673 C 711.652 221.214, 712.452 224.956, 712.844 227.988 C 713.454 232.703, 713.842 233.461, 715.529 233.232 C 716.613 233.084, 723.575 232.694, 731 232.366 C 741.428 231.904, 746.254 232.136, 752.208 233.384 C 756.447 234.273, 762.167 235, 764.919 235 C 768.778 235, 770.388 235.500, 771.961 237.189 C 773.082 238.392, 774 239.819, 774 240.360 C 774 240.900, 774.713 242.130, 775.585 243.094 C 777.036 244.697, 776.978 245.483, 774.896 252.414 C 772.887 259.102, 772.150 260.297, 768.574 262.663 C 763.870 265.776, 765.079 266.835, 770.657 264.488 C 776.177 262.165, 797.159 260.599, 803.234 262.056 C 809.293 263.510, 812.192 267.273, 812.788 274.458 C 813.119 278.448, 812.743 280.372, 811.111 283.050 C 807.550 288.892, 808.210 295.057, 813.500 305.336 C 815.975 310.146, 818.012 314.851, 818.027 315.791 C 818.042 316.731, 819.349 319.062, 820.932 320.972 L 823.811 324.444 835.655 324.472 C 845.729 324.496, 848.173 324.825, 852 326.673 C 854.475 327.867, 859.875 329.352, 864 329.971 C 868.125 330.590, 873.672 331.525, 876.326 332.048 C 882.676 333.301, 934.079 333.165, 940.500 331.879 C 943.250 331.329, 950.450 330.558, 956.500 330.167 C 962.550 329.776, 968.109 329.073, 968.854 328.605 C 969.599 328.137, 971.052 325.896, 972.082 323.627 C 973.699 320.067, 973.959 316.912, 973.978 300.673 L 974 281.846 976.750 279.111 C 979.705 276.173, 983.955 274.564, 999.280 270.582 C 1008.942 268.072, 1009.145 268.061, 1016.009 269.709 C 1019.830 270.626, 1023.225 271.109, 1023.552 270.781 C 1024.165 270.168, 1011.873 250.881, 1009.073 248.063 C 1008.208 247.192, 1004.731 243.085, 1001.346 238.935 C 990.087 225.135, 988.686 224.188, 967.305 215.940 C 965.430 215.217, 965.188 214.541, 965.641 211.297 C 966.282 206.703, 972.355 200.689, 981.009 196.076 L 986.693 193.047 996.174 195.394 C 1002.535 196.969, 1009.745 199.823, 1018.078 204.063 C 1029.993 210.125, 1051.613 223.674, 1059.995 230.331 C 1072.040 239.898, 1073.301 240.524, 1072.090 236.340 C 1070.864 232.101, 1059.187 208.950, 1056.535 205.500 C 1055.267 203.850, 1050.545 198.675, 1046.042 194 C 1041.540 189.325, 1037.203 184.265, 1036.405 182.755 C 1034.252 178.682, 1025.769 172.411, 1019.770 170.459 C 1016.872 169.515, 1013.748 168.089, 1012.830 167.289 C 1010.978 165.676, 1003.874 161.563, 1000 159.859 C 988.998 155.023, 980.402 150.255, 974.178 145.539 C 968.843 141.496, 964.451 139.179, 957.987 136.996 C 947.355 133.405, 945.952 133.287, 952.127 136.503" stroke="#b09658" fill="#b09658" fill-opacity="0.2" fill-rule="evenodd"/><path class="svg-region-LPVl" d="M 1000.500 270.087 C 985.515 274.164, 979.650 276.340, 976.810 278.878 L 973.857 281.517 973.952 300.280 C 974.015 312.673, 973.655 319.800, 972.894 321.272 C 971.882 323.227, 972.101 323.163, 974.675 320.750 C 978.160 317.484, 981 317.147, 981 320 C 981 321.764, 981.678 322.004, 986.750 322.033 C 989.913 322.051, 994.975 322.962, 998 324.057 C 1001.025 325.153, 1005.750 326.765, 1008.500 327.640 C 1011.250 328.514, 1014.850 329.809, 1016.500 330.516 C 1021.175 332.521, 1029.861 334.811, 1037.138 335.957 C 1040.789 336.532, 1045.044 337.660, 1046.593 338.464 C 1048.141 339.267, 1049.582 339.752, 1049.793 339.540 C 1050.692 338.642, 1047.359 326.096, 1040.883 306 C 1035.315 288.719, 1033.096 283.234, 1029.578 278.049 C 1025.374 271.854, 1024.969 271.547, 1019.350 270.312 C 1009.468 268.140, 1007.735 268.119, 1000.500 270.087" stroke="#494949" fill="#494949" fill-opacity="0.2" fill-rule="evenodd"/><path class="svg-region-LPVr" d="M 784 261.943 C 779.325 262.287, 773.198 263.408, 770.385 264.433 C 765.955 266.048, 764.911 266.980, 762.582 271.399 C 761.103 274.205, 759.051 278.075, 758.023 280 C 754.770 286.092, 753.204 291.215, 751.453 301.500 C 749.212 314.668, 747.468 323.095, 746.540 325.250 C 745.455 327.768, 749.496 327.565, 755.623 324.794 C 759.628 322.982, 763.272 322.449, 776 321.811 C 803.270 320.443, 808.851 319.885, 810.084 318.399 C 810.722 317.630, 812.765 317, 814.622 317 C 819.082 317, 818.984 315.963, 813.500 305.106 C 808.235 294.684, 807.599 288.810, 811.111 283.050 C 813.744 278.730, 813.366 270.307, 810.359 266.279 C 806.702 261.382, 802.040 260.614, 784 261.943" stroke="#494949" fill="#494949" fill-opacity="0.2" fill-rule="evenodd"/><path class="svg-region-VV" d="M 885.707 125.011 C 884.171 125.472, 879.992 126.163, 876.420 126.545 C 867.631 127.487, 866.498 129.508, 867.293 142.836 C 867.941 153.702, 867.242 156.274, 862.923 158.901 C 860.400 160.435, 859.189 160.610, 856.648 159.807 C 854.917 159.261, 852.068 158.727, 850.318 158.623 C 841.605 158.102, 839.681 146.453, 846.620 136.228 C 847.996 134.200, 848.674 132.391, 848.126 132.209 C 846.438 131.646, 832.728 136.043, 828.500 138.502 C 820.481 143.168, 814.936 151.296, 813.455 160.554 C 812.730 165.087, 814.956 177.364, 818.204 186.744 C 822.079 197.936, 829.510 204.222, 840.250 205.391 C 843.413 205.736, 846 205.868, 846 205.685 C 846 205.502, 844.389 201.635, 842.421 197.093 L 838.841 188.833 841.536 180.666 C 845.006 170.148, 845.502 169.275, 849.314 166.950 C 853.308 164.515, 857.122 164.468, 860.025 166.819 C 861.809 168.264, 862.342 169.875, 862.612 174.639 C 862.799 177.939, 863.637 182.281, 864.476 184.288 C 865.384 186.461, 866 190.982, 866 195.468 C 866 204.223, 866.334 204.420, 875.213 200.910 C 881.855 198.283, 892.297 197.477, 901.968 198.842 C 906.076 199.422, 909.676 199.657, 909.968 199.364 C 910.261 199.072, 910.520 195.383, 910.545 191.166 C 910.598 182.044, 912.640 172.635, 915.038 170.465 C 915.987 169.606, 918.628 168.829, 920.906 168.738 C 924.604 168.591, 925.551 169.077, 929.757 173.283 C 933.916 177.442, 934.454 178.474, 934.359 182.105 C 934.290 184.706, 932.949 188.709, 930.708 193 L 927.165 199.783 930.207 200.391 C 936.311 201.612, 944.809 201.011, 949.426 199.032 C 954.952 196.663, 963.517 188.888, 965.959 184.025 C 970.756 174.469, 971.247 158.902, 966.984 151.500 C 963.915 146.172, 956.227 138.214, 952.500 136.509 C 950.850 135.754, 946.291 133.799, 942.369 132.164 L 935.238 129.190 934.694 133.248 C 934.336 135.913, 934.763 138.882, 935.938 141.903 C 940.272 153.045, 939.007 159.186, 932.017 160.943 C 913.575 165.578, 912.242 164.573, 909.943 144.293 C 908.861 134.743, 909.747 127.892, 912.267 126.335 C 914.376 125.032, 909.051 124.200, 898.500 124.186 C 893 124.178, 887.243 124.549, 885.707 125.011" stroke="#7699d1" fill="#7699d1" fill-opacity="0.2" fill-rule="evenodd"/><path class="svg-region-B" d="M 862 613.795 C 835.212 622.849, 837.476 621.799, 835.002 626.326 C 831.680 632.403, 825.960 641.040, 823.875 643.125 C 822.881 644.119, 820.913 646.762, 819.501 648.998 C 818.089 651.235, 815.042 654.738, 812.730 656.782 C 806.958 661.887, 801 668.233, 801 669.275 C 801 669.750, 799.987 669.995, 798.750 669.820 C 797.139 669.591, 796.410 668.719, 796.184 666.750 C 795.706 662.596, 793.626 663.433, 790.597 669 C 788.983 671.964, 787.188 673.996, 786.188 673.991 C 785.259 673.986, 783.339 675.394, 781.920 677.121 C 780.170 679.250, 778.118 680.459, 775.544 680.880 C 771.770 681.496, 771.737 681.544, 769.796 689 C 768.228 695.027, 767.948 698.562, 768.371 707 C 769.104 721.593, 770.446 731.711, 772.350 737 C 773.242 739.475, 773.977 742.531, 773.985 743.791 C 773.993 745.051, 774.912 748.905, 776.027 752.356 C 778.351 759.549, 787.178 771.054, 791.712 772.799 C 799.117 775.650, 821.838 779.243, 833 779.329 C 836.571 779.356, 838.875 778.509, 844.162 775.224 C 847.826 772.947, 851.906 770.053, 853.229 768.792 C 854.551 767.532, 858.327 763.986, 861.620 760.912 C 865.207 757.564, 868.691 753.108, 870.312 749.795 C 871.800 746.753, 874.589 742.207, 876.509 739.692 C 878.429 737.177, 880 734.738, 880 734.272 C 880 733.806, 881.302 731.866, 882.892 729.962 L 885.785 726.500 887.970 728.475 C 889.172 729.562, 890.974 732.262, 891.974 734.475 C 895.112 741.419, 898.695 750.342, 900.015 754.500 C 903.160 764.404, 912.252 771.051, 933.726 779.145 C 943.473 782.819, 945.171 783.164, 951.545 782.766 C 957.392 782.401, 959.689 781.693, 965.045 778.604 C 977.494 771.425, 992 757.095, 992 751.975 C 992 751.028, 993.127 748.236, 994.504 745.772 C 995.881 743.308, 997.676 739.089, 998.493 736.396 C 1000.432 730.005, 1000.394 714.983, 998.410 703.500 C 997.555 698.550, 996.592 692.475, 996.270 690 C 995.948 687.525, 994.785 683.925, 993.685 682 C 990.100 675.722, 989.013 673.516, 989.001 672.500 C 988.995 671.950, 987.883 670.150, 986.531 668.500 C 984.510 666.034, 984.066 665.834, 984.036 667.375 C 984.016 668.406, 985.074 671.781, 986.386 674.875 C 987.699 677.969, 989.181 683.291, 989.680 686.701 C 990.465 692.066, 990.392 692.741, 989.140 691.701 C 988.344 691.041, 986.435 687.800, 984.899 684.500 C 983.362 681.200, 981.432 677.375, 980.610 676 C 979.787 674.625, 977.459 670.435, 975.437 666.689 L 971.759 659.877 969.603 661.903 C 968.213 663.209, 966.679 663.729, 965.288 663.365 C 962.223 662.563, 954.546 655.142, 952.497 651 C 951.545 649.075, 949.534 646.347, 948.027 644.938 C 946.456 643.469, 944.368 639.610, 943.130 635.890 C 940.200 627.086, 939.016 625.666, 931.764 622.257 C 928.319 620.637, 923.821 618.165, 921.769 616.763 C 916.094 612.888, 903.581 610.970, 885 611.128 C 871.257 611.245, 868.650 611.547, 862 613.795" stroke="#e23b33" fill="#e23b33" fill-opacity="0.2" fill-rule="evenodd"/><path class="svg-region-Ol" d="M 1274 258.037 C 1271.525 258.461, 1266.426 259.304, 1262.669 259.911 C 1255.935 260.999, 1244.356 263.878, 1238.500 265.920 C 1236.850 266.496, 1231.450 268.353, 1226.500 270.048 C 1215.410 273.845, 1196.280 283.199, 1189.293 288.242 C 1186.429 290.309, 1183.811 292, 1183.475 292 C 1182.326 292, 1174.646 298.499, 1168.703 304.500 C 1160.292 312.993, 1151.394 326.238, 1143.125 342.575 C 1139.206 350.316, 1136 357.033, 1136 357.502 C 1136 357.970, 1133.340 365.812, 1130.088 374.927 C 1126.837 384.042, 1123.880 393.300, 1123.518 395.500 C 1122.808 399.809, 1118.981 412.408, 1115.923 420.500 C 1114.884 423.250, 1113.726 427.075, 1113.349 429 C 1112.190 434.915, 1102.301 453.079, 1094.827 463.018 C 1090.924 468.209, 1086.864 474.040, 1085.805 475.978 C 1084.746 477.915, 1082.336 481.525, 1080.449 484 C 1078.562 486.475, 1076.287 489.514, 1075.393 490.752 C 1073.634 493.189, 1066.646 511.608, 1065.625 516.500 C 1064.200 523.324, 1061.383 548.791, 1061.643 552.500 C 1061.797 554.700, 1062.223 560.209, 1062.590 564.743 C 1063.048 570.413, 1062.895 573.421, 1062.100 574.379 C 1061.464 575.146, 1060.722 579.761, 1060.451 584.636 C 1059.800 596.347, 1059.368 598.163, 1055.389 605.915 C 1053.530 609.537, 1051.998 613.400, 1051.984 614.500 C 1051.970 615.600, 1051.300 619.425, 1050.496 623 C 1046.682 639.952, 1044.003 657.694, 1044.036 665.778 C 1044.094 680.098, 1048.182 692.536, 1055.590 700.931 C 1057.741 703.368, 1061.530 707.643, 1064.011 710.431 C 1066.492 713.219, 1069.867 717.267, 1071.511 719.426 C 1073.155 721.586, 1078.550 726.657, 1083.500 730.696 C 1088.450 734.735, 1095.105 740.168, 1098.290 742.770 C 1101.474 745.371, 1107.179 751.325, 1110.967 756 C 1131.115 780.868, 1157.758 800.601, 1185.500 811.203 C 1192.865 814.018, 1194.532 814.268, 1206.500 814.353 C 1218.748 814.440, 1220.079 814.250, 1229.500 811.071 C 1235 809.215, 1242.875 805.905, 1247 803.716 C 1251.125 801.526, 1255.850 799.045, 1257.500 798.202 C 1259.150 797.359, 1264.100 794.358, 1268.500 791.533 C 1279.334 784.578, 1282.801 782.457, 1287.500 779.907 C 1293.711 776.536, 1309.614 761.798, 1321.500 748.397 C 1335.357 732.775, 1338.229 729.812, 1353.386 715.500 C 1371.226 698.655, 1373.418 696.563, 1387.963 682.500 C 1393.651 677, 1399.069 672.050, 1400.003 671.500 C 1401.489 670.626, 1410.833 660.929, 1426.075 644.447 C 1428.590 641.726, 1433.194 636.125, 1436.304 632 C 1439.414 627.875, 1442.767 623.600, 1443.754 622.500 C 1444.741 621.400, 1446.639 618.700, 1447.972 616.500 C 1449.306 614.300, 1452.025 610.475, 1454.015 608 C 1456.006 605.525, 1460.262 599.225, 1463.475 594 C 1466.687 588.775, 1470.301 583.150, 1471.505 581.500 C 1472.710 579.850, 1476.533 573.100, 1480.001 566.500 C 1483.469 559.900, 1486.649 554.050, 1487.068 553.500 C 1487.487 552.950, 1490.104 548, 1492.885 542.500 C 1495.665 537, 1498.588 531.375, 1499.381 530 C 1500.173 528.625, 1501.567 525.381, 1502.478 522.790 C 1503.389 520.200, 1505.137 516.600, 1506.363 514.790 C 1511.001 507.942, 1513.334 482.895, 1510.954 465.500 C 1509.050 451.578, 1508.333 448.362, 1505.273 440 C 1503.562 435.325, 1501.411 429.025, 1500.493 426 C 1499.576 422.975, 1498.255 419.150, 1497.559 417.500 C 1493.050 406.811, 1491.026 402.787, 1487.252 397.007 C 1484.916 393.428, 1483.003 389.929, 1483.002 389.230 C 1483.001 388.532, 1481.875 386.178, 1480.500 384 C 1479.125 381.822, 1478 379.788, 1478 379.479 C 1478 379.171, 1477.180 377.700, 1476.177 376.210 C 1475.174 374.719, 1472.150 370.125, 1469.456 366 C 1461.701 354.122, 1454.718 345.781, 1445.894 337.856 C 1441.390 333.810, 1436.533 329.172, 1435.102 327.549 C 1433.671 325.925, 1431.448 323.603, 1430.161 322.387 C 1426.963 319.365, 1426.389 318.800, 1424.175 316.500 C 1423.117 315.400, 1418.746 311.350, 1414.463 307.500 C 1410.180 303.650, 1405.736 299.566, 1404.588 298.425 C 1403.439 297.285, 1401.713 296.061, 1400.750 295.707 C 1399.787 295.353, 1399 294.646, 1399 294.136 C 1399 293.627, 1396.638 291.978, 1393.750 290.472 C 1386.808 286.852, 1380 282.138, 1380 280.952 C 1380 280.428, 1379.256 280, 1378.347 280 C 1377.438 280, 1373.765 278.616, 1370.185 276.925 C 1358.596 271.449, 1343.566 266.432, 1329 263.178 C 1326.525 262.625, 1322.505 261.432, 1320.068 260.528 C 1312.196 257.609, 1285.075 256.142, 1274 258.037" stroke="#aa444d" fill="#aa444d" fill-opacity="0.2" fill-rule="evenodd"/><path class="svg-region-Or" d="M 502.581 260.868 C 502.286 261.346, 499.897 262.036, 497.272 262.401 C 494.648 262.767, 491.626 263.726, 490.559 264.533 C 489.491 265.340, 488.039 266, 487.331 266 C 486.623 266, 482.680 267.575, 478.568 269.500 C 474.457 271.425, 470.624 273, 470.052 273 C 469.479 273, 465.155 275, 460.444 277.445 C 455.732 279.890, 451.287 281.664, 450.567 281.387 C 449.847 281.111, 448.569 281.573, 447.728 282.415 C 446.887 283.256, 444.241 284.241, 441.849 284.602 C 439.457 284.964, 436.600 286.047, 435.500 287.009 C 434.400 287.972, 429.675 289.973, 425 291.457 C 419.187 293.303, 413.785 295.996, 407.911 299.976 C 403.186 303.177, 397.561 306.743, 395.411 307.901 C 386.401 312.751, 374.789 321.840, 364 332.487 C 340.392 355.785, 333.286 364.169, 328.323 374.579 C 326.770 377.836, 325.260 380.725, 324.966 381 C 324.178 381.738, 319 400.680, 319 402.825 C 319 403.836, 318.142 407.551, 317.093 411.082 C 316.044 414.612, 314.428 420.806, 313.503 424.847 C 312.577 428.888, 310.573 436.088, 309.049 440.847 C 302.619 460.917, 300.522 473.743, 301.445 487.338 C 301.825 492.927, 302.516 499.075, 302.981 501 C 303.446 502.925, 304.376 506.975, 305.047 510 C 305.719 513.025, 307.108 517.170, 308.134 519.210 C 309.160 521.251, 310 523.891, 310 525.077 C 310 526.264, 312.396 531.794, 315.324 537.367 C 322.287 550.617, 330.526 562.731, 340.580 574.500 C 343.399 577.800, 350.638 587.026, 356.667 595.003 C 368.089 610.113, 377.488 627.222, 383.860 644.500 C 390.171 661.613, 393.853 671.817, 396.488 679.500 C 409.538 717.543, 417.617 733.054, 433.469 750.500 C 434.968 752.150, 437.862 755.300, 439.900 757.500 C 461.029 780.307, 468.713 788.916, 475.316 797.179 C 488.591 813.789, 493.410 816.790, 515 821.892 C 521.875 823.517, 531.550 826.279, 536.500 828.030 C 564.629 837.980, 583.259 832.632, 615 805.493 C 638.690 785.238, 650.947 772.996, 657.544 763 C 671.559 741.766, 674.361 738.775, 700.180 717.500 C 711.609 708.082, 719.451 697.569, 724.796 684.500 C 735.347 658.700, 736.453 653.468, 736.318 630 C 736.229 614.520, 735.776 608.394, 734.124 600.287 C 731.627 588.031, 728.719 579.412, 726.125 576.582 C 725.075 575.437, 723.907 573.038, 723.529 571.250 C 723.150 569.462, 722.461 568, 721.997 568 C 720.163 568, 719.364 557.623, 720.803 552.500 C 724.532 539.223, 724.383 530.060, 720.086 508.500 C 718.159 498.831, 709.535 477.067, 707.013 475.508 C 706.411 475.136, 706.165 474.056, 706.466 473.108 C 706.986 471.467, 701.558 461.402, 697.828 457.091 C 696.908 456.028, 695.603 454.110, 694.928 452.829 C 694.253 451.548, 690.843 447.766, 687.350 444.424 C 683.858 441.082, 681 437.982, 681 437.535 C 681 437.087, 679.751 434.646, 678.224 432.111 C 674.584 426.065, 667.824 405.188, 664.590 390 C 663.829 386.425, 661.786 379.675, 660.050 375 C 658.315 370.325, 656.775 365.825, 656.629 365 C 656.483 364.175, 655.832 362.233, 655.182 360.685 C 654.532 359.137, 654 357.516, 654 357.083 C 654 353.990, 638.853 321.881, 630.014 306.237 C 626.821 300.585, 615.079 286, 613.723 286 C 613.271 286, 611.238 284.385, 609.205 282.411 C 605.062 278.387, 600.857 276.365, 593.500 274.858 C 590.750 274.294, 585.125 272.717, 581 271.351 C 572.564 268.560, 551.774 264.700, 536 262.997 C 530.225 262.374, 524.118 261.444, 522.429 260.932 C 518.554 259.756, 503.299 259.707, 502.581 260.868" stroke="#aa444d" fill="#aa444d" fill-opacity="0.2" fill-rule="evenodd"/><path class="svg-region-BPCl" d="M 974.073 321.728 C 972.383 323.778, 971 325.792, 971 326.202 C 971 327.659, 965.043 330, 961.300 330.015 C 954.920 330.041, 954.378 330.912, 956.545 337.661 C 957.577 340.872, 958.305 345.459, 958.163 347.854 C 957.995 350.695, 958.516 353.127, 959.662 354.854 C 960.627 356.309, 961.773 360.313, 962.209 363.750 C 962.644 367.188, 963.477 373.038, 964.060 376.750 C 964.643 380.462, 965.361 395.845, 965.657 410.933 C 966.045 430.775, 966.550 438.938, 967.482 440.433 C 968.190 441.570, 969.067 444.975, 969.429 448 C 970.071 453.362, 972.590 464.325, 975.538 474.588 C 976.342 477.386, 977 481.578, 977 483.904 C 977 486.229, 977.442 488.957, 977.982 489.967 C 978.634 491.185, 978.610 492.822, 977.910 494.829 C 977.012 497.405, 977.163 498.163, 978.927 499.927 C 980.517 501.517, 981 503.270, 981 507.443 C 981 511.935, 981.389 513.159, 983.223 514.443 C 986.265 516.574, 990.915 516.467, 991.616 514.250 C 994.008 506.686, 995.287 505.065, 1000.136 503.455 C 1004.392 502.041, 1005 501.494, 1005 499.075 C 1005 497.554, 1004.154 495.545, 1003.120 494.609 C 1002.087 493.673, 1000.970 491.215, 1000.639 489.145 C 1000.308 487.076, 999.318 483.941, 998.440 482.179 C 997.088 479.469, 996.834 474.414, 996.790 449.319 C 996.739 420.074, 996.708 419.633, 994.534 417.581 C 993.322 416.436, 991.829 413.700, 991.217 411.500 C 990.605 409.300, 989.215 405.025, 988.128 402 C 983.565 389.302, 981.677 380.167, 980.687 366 C 979.426 347.961, 979.340 333.536, 980.442 324.750 C 981.250 318.316, 981.192 318, 979.217 318 C 978.042 318, 975.817 319.612, 974.073 321.728 M 939.254 536.213 C 935.122 542.612, 935.024 542.958, 935.580 549.144 C 935.895 552.640, 937.441 559.775, 939.016 565 C 941.818 574.295, 942.383 577.081, 943.632 587.745 C 944.329 593.693, 942.883 598.267, 939.235 601.654 C 934.810 605.762, 933.734 614.669, 936.922 620.802 C 937.979 622.836, 939.513 626.300, 940.331 628.500 C 945.080 641.277, 946.492 644.286, 948.234 645.336 C 949.297 645.976, 951.079 648.300, 952.195 650.500 C 954.667 655.374, 961.933 662.515, 965.272 663.353 C 967.006 663.789, 968.251 663.380, 969.542 661.954 C 971.349 659.957, 971.387 659.977, 974.018 664.220 C 975.478 666.574, 979.325 673.779, 982.568 680.232 C 985.811 686.685, 989.085 692.202, 989.843 692.493 C 990.825 692.870, 991.026 692.515, 990.540 691.261 C 990.165 690.293, 989.614 687.250, 989.316 684.500 C 989.018 681.750, 987.700 677.165, 986.387 674.312 C 985.074 671.458, 984 668.577, 984 667.908 C 984 667.240, 982.791 664.175, 981.313 661.096 C 978.820 655.904, 978.622 654.526, 978.563 642 C 978.501 628.674, 979.401 622.980, 982.567 616.684 C 983.791 614.250, 983.788 613.490, 982.546 611.089 C 980.182 606.518, 982.497 599.746, 996.082 571.500 C 999.046 565.336, 998.723 556.049, 995.367 550.979 C 993.853 548.690, 991.937 547, 990.858 547 C 987.289 547, 977.629 557.457, 971.500 567.957 C 969.850 570.783, 967.722 574.032, 966.771 575.177 C 965.819 576.322, 964.244 578.988, 963.271 581.101 C 961.079 585.858, 959.741 585.585, 958.820 580.191 C 958.430 577.908, 957.146 573.893, 955.966 571.270 C 954.786 568.646, 953.436 564.250, 952.967 561.500 C 951.485 552.823, 950.793 550.554, 948.997 548.500 C 945.942 545.004, 944.671 541.662, 944.078 535.569 L 943.500 529.638 939.254 536.213" stroke="#83385f" fill="#83385f" fill-opacity="0.2" fill-rule="evenodd"/><path class="svg-region-BPCr" d="M 809.607 318.582 C 808.578 321.263, 808.927 324.068, 810.655 326.992 C 812.296 329.770, 812.261 329.870, 806.405 339.129 C 799.402 350.201, 798.151 355.162, 798.062 372.236 C 798.001 383.833, 798.042 384.051, 801.591 390.736 C 804.989 397.137, 805.163 397.930, 804.841 405.500 C 804.547 412.397, 804.121 413.996, 801.750 417.094 C 800.237 419.071, 799 421.109, 799 421.622 C 799 422.135, 798.212 423.668, 797.250 425.027 C 794.870 428.390, 790 440.004, 790 442.317 C 790 443.348, 789.383 446.511, 788.629 449.346 C 785.033 462.859, 784.935 464.073, 786.467 476.238 C 787.279 482.694, 788.803 490.593, 789.853 493.790 C 791.300 498.198, 791.637 501.337, 791.248 506.777 C 790.742 513.847, 790.781 513.993, 793.973 516.975 C 797.651 520.411, 800.861 520.786, 805.111 518.276 C 808.426 516.317, 809.869 512.615, 811.064 503 C 811.509 499.425, 812.387 493.800, 813.016 490.500 C 813.645 487.200, 814.591 482.250, 815.119 479.500 C 815.647 476.750, 816.516 471.125, 817.051 467 C 817.586 462.875, 818.468 456.748, 819.012 453.385 C 819.555 450.021, 820 445.390, 820 443.094 C 820 440.797, 820.850 436.124, 821.890 432.709 C 823.069 428.832, 824.202 420.303, 824.904 410 C 826.308 389.408, 826.302 383.164, 824.871 379.061 C 823.671 375.618, 825.062 367.396, 829.025 354.500 C 835.159 334.543, 835.214 334.257, 833.461 331.580 C 832.563 330.210, 829.913 327.967, 827.571 326.594 C 825.229 325.222, 822.095 322.502, 820.606 320.550 C 818.332 317.569, 817.282 317, 814.056 317 C 811.475 317, 810.015 317.519, 809.607 318.582 M 842.422 539.246 C 842.030 540.482, 839.597 543.969, 837.016 546.996 C 832.876 551.852, 828 560.418, 828 562.834 C 828 563.305, 827.053 564.547, 825.896 565.594 C 824.739 566.641, 822.672 569.411, 821.301 571.749 C 819.931 574.087, 818.413 576, 817.928 576 C 816.142 576, 813.549 570.542, 812.748 565.099 C 812.295 562.020, 811.698 556.125, 811.422 552 C 810.711 541.394, 810.303 540, 807.915 540 C 805.481 540, 802.516 541.484, 800.076 543.924 C 799.102 544.898, 796.430 545.995, 794.140 546.362 C 791.395 546.801, 788.634 548.239, 786.043 550.580 C 782.222 554.032, 782.126 554.281, 782.658 559.317 C 782.960 562.167, 783.865 566.975, 784.670 570 C 785.476 573.025, 786.552 577.168, 787.063 579.207 C 787.573 581.246, 790.084 586.362, 792.643 590.577 L 797.296 598.241 796.654 610.920 C 796.105 621.776, 795.633 624.384, 793.378 629.050 C 791.929 632.048, 790.132 636.229, 789.384 638.342 C 788.636 640.455, 785.727 646.259, 782.919 651.240 C 778.839 658.478, 772.069 676.484, 772.011 680.250 C 772.005 680.663, 773.394 681, 775.099 681 C 777.248 681, 779.051 680.087, 780.981 678.020 C 782.513 676.381, 784.951 674.589, 786.401 674.038 C 787.850 673.487, 789.509 671.791, 790.088 670.270 C 791.409 666.795, 793.996 663.879, 795.134 664.583 C 795.610 664.877, 796 666.216, 796 667.559 C 796 669.496, 796.516 670, 798.500 670 C 799.875 670, 801.009 669.663, 801.019 669.250 C 801.044 668.283, 807.390 661, 808.208 661 C 809.265 661, 820 649.622, 820 648.502 C 820 647.921, 821.430 645.883, 823.178 643.973 C 826.486 640.357, 835 627.704, 835 626.404 C 835 625.993, 835.695 624.889, 836.545 623.950 C 838.107 622.224, 842 607.743, 842 603.659 C 842 602.441, 841.267 600.398, 840.371 599.119 C 838.999 597.160, 838.825 594.799, 839.268 584.147 C 839.840 570.397, 841.758 563.167, 847.886 551.648 C 852.631 542.732, 852.073 537, 846.460 537 C 843.891 537, 842.973 537.511, 842.422 539.246" stroke="#83385f" fill="#83385f" fill-opacity="0.2" fill-rule="evenodd"/><path class="svg-region-VSl" d="M 913.315 125.250 C 909.319 129.471, 908.613 133.886, 910.034 145.781 C 911.335 156.684, 913.316 162.588, 915.898 163.263 C 917.691 163.732, 925.488 162.593, 932.244 160.875 C 939.135 159.123, 940.391 152.709, 935.961 141.903 C 934.728 138.897, 934.274 136.089, 934.647 133.790 C 935.755 126.962, 930.209 122.010, 921.446 122.004 C 917.040 122, 915.998 122.416, 913.315 125.250 M 918.854 168.719 C 912.989 169.592, 910.911 176.370, 910.337 196.500 C 910.117 204.200, 909.474 212.225, 908.908 214.333 C 908.075 217.432, 908.189 218.640, 909.502 220.643 C 911.319 223.416, 915.777 223.629, 916.991 221 C 917.373 220.175, 918.217 218.600, 918.867 217.500 C 919.518 216.400, 920.965 213.475, 922.083 211 C 923.202 208.525, 926.355 201.969, 929.092 196.431 C 931.828 190.893, 934.332 184.729, 934.656 182.734 C 935.195 179.411, 934.836 178.691, 930.372 174.131 C 925.327 168.979, 923.351 168.050, 918.854 168.719" stroke="#959faf" fill="#959faf" fill-opacity="0.2" fill-rule="evenodd"/><path class="svg-region-VSr" d="M 863 121.654 C 856.578 123.780, 852.906 126.660, 848.725 132.852 C 843.231 140.991, 841.725 145.428, 842.600 150.898 C 843.335 155.495, 847.187 159.446, 850.172 158.665 C 851.134 158.414, 853.576 158.778, 855.601 159.474 C 860.094 161.018, 862.126 160.560, 865.164 157.320 C 867.358 154.979, 867.481 154.178, 867.195 144.135 C 866.961 135.960, 867.254 132.742, 868.439 130.471 C 870.470 126.575, 870.401 125.401, 868 123 C 865.930 120.930, 865.521 120.820, 863 121.654 M 850.388 165.980 C 846.934 167.376, 844.616 171.189, 841.614 180.417 L 838.775 189.138 842.414 197.212 C 844.416 201.653, 847.209 206.684, 848.622 208.393 C 850.035 210.102, 853.061 214.425, 855.346 218 C 859.607 224.668, 862.581 226.422, 865.507 223.994 C 867.364 222.453, 866.507 190.699, 864.426 184 C 863.658 181.525, 862.852 177.051, 862.636 174.058 C 862.339 169.933, 861.703 168.178, 860.011 166.808 C 857.646 164.893, 853.881 164.569, 850.388 165.980" stroke="#959faf" fill="#959faf" fill-opacity="0.2" fill-rule="evenodd"/>
    </svg>