<svg xmlns="http://www.w3.org/2000/svg" width="1785" height="1131" viewBox="0 0 1785 1131" version="1.1">
    <path class="svg-region-AP" d="M 940.917 450.402 C 940.026 451.261, 902.370 454.144, 889.783 454.317 C 873.503 454.541, 851.720 453.365, 847.007 452.006 C 845.085 451.453, 842.026 451, 840.208 451 C 837.464 451, 836.684 451.522, 835.608 454.081 C 834.168 457.505, 829.004 460.842, 821.057 463.481 C 816.933 464.851, 816.036 465.537, 816.491 466.972 C 816.803 467.955, 816.386 470.739, 815.564 473.159 C 813.874 478.137, 814.673 492.421, 817.512 508 C 818.364 512.675, 819.475 519.200, 819.981 522.500 C 820.947 528.801, 821.367 531.183, 825.363 553 C 826.723 560.425, 828.313 570.325, 828.896 575 C 833.716 613.666, 833.543 612.839, 837.751 617.250 C 840.757 620.401, 842.204 620.664, 844.084 618.399 C 845.105 617.168, 846.475 616.938, 849.994 617.405 C 854.302 617.976, 854.826 617.778, 858.788 614.084 C 861.104 611.924, 863 609.486, 863 608.667 C 863 607.848, 864.421 605.982, 866.158 604.520 C 868.528 602.526, 869.964 602.021, 871.908 602.496 C 875.633 603.407, 883.696 611.688, 886.155 617.128 C 887.968 621.140, 888.755 621.864, 891.879 622.393 C 896.997 623.259, 900 619.805, 900 613.051 C 900 608.021, 900.877 607, 905.196 607 C 906.313 607, 908.985 606.012, 911.133 604.805 L 915.039 602.610 916.728 605.055 C 919.696 609.349, 928.246 618, 929.523 618 C 930.200 618, 931.269 618.619, 931.897 619.376 C 933.043 620.757, 943.571 621.001, 945.683 619.696 C 947.797 618.389, 955.336 589.875, 957.897 573.500 C 958.413 570.200, 959.347 562.325, 959.971 556 C 960.596 549.675, 961.746 540.900, 962.527 536.500 C 963.309 532.100, 964.903 522.200, 966.070 514.500 C 967.603 504.380, 968.996 498.785, 971.096 494.313 C 974.162 487.780, 974.965 479.417, 973.103 473.399 C 972.609 471.805, 971.638 467.125, 970.944 463 C 969.640 455.250, 968.498 452.032, 966.600 450.765 C 965.474 450.013, 941.669 449.676, 940.917 450.402 M 1019 475.757 C 1019 476.356, 1017.804 478.268, 1016.342 480.005 C 1014.040 482.742, 1013.240 483.080, 1010.359 482.540 C 1007.080 481.924, 1007.042 481.960, 1007.655 485.027 C 1008.272 488.112, 1007.675 489.858, 1001.339 503.500 C 997.600 511.550, 993.016 533.426, 993.006 543.265 C 993.001 547.871, 992.370 550.147, 989.865 554.585 C 987 559.661, 986.687 561.108, 986.235 571.357 C 985.765 582.012, 985.876 582.862, 988.462 588.328 C 991.145 593.999, 991.160 594.144, 989.509 598.291 C 988.587 600.606, 986.700 603.992, 985.316 605.816 C 983.931 607.639, 983.015 609.349, 983.281 609.614 C 984.280 610.613, 988.661 608.778, 993.250 605.438 C 997.500 602.344, 998 601.574, 998 598.117 C 998 595.993, 997.061 592.132, 995.914 589.538 C 994.122 585.488, 993.896 583.456, 994.312 575.161 C 994.740 566.642, 996.883 551.033, 999.963 534 C 1000.510 530.975, 1001.939 525.575, 1003.138 522 C 1008.901 504.813, 1010.110 501.355, 1011.001 499.500 C 1013.098 495.133, 1019.892 475.559, 1019.460 475.127 C 1019.207 474.874, 1019 475.157, 1019 475.757 M 777.139 476.909 C 776.391 477.374, 774.928 477.533, 773.889 477.261 C 772.850 476.989, 772 476.932, 772 477.133 C 772.001 478.691, 775.320 494.022, 777.059 500.500 C 780.174 512.101, 782.904 526.782, 782.956 532.201 C 782.980 534.787, 783.707 539.512, 784.570 542.701 C 789.016 559.121, 789.457 576.744, 785.655 586.052 C 784.880 587.948, 783.963 591.525, 783.617 594 C 783.019 598.277, 783.224 598.784, 787.744 604.236 C 790.360 607.391, 793.505 611.278, 794.733 612.873 C 796.728 615.466, 801.553 617.780, 802.658 616.675 C 803.583 615.751, 799.219 598.076, 797.689 596.546 C 794.848 593.705, 793.723 587.819, 794.411 579.390 C 796.298 556.269, 796.279 554.350, 794.100 547.799 C 792.277 542.318, 792.037 539.488, 792.252 526 C 792.484 511.488, 792.362 510.306, 790.333 507.462 C 788.956 505.532, 787.781 501.663, 787.113 496.856 C 785.858 487.834, 784.990 485.340, 781.747 481.444 C 780.400 479.825, 779.118 477.952, 778.899 477.282 C 778.651 476.526, 777.984 476.385, 777.139 476.909" stroke="#fc7143" fill="#fc7143" fill-opacity="0.2" fill-rule="evenodd"/><path class="svg-region-PP" d="M 824.750 343.016 C 822.541 344.384, 822.495 348.698, 824.633 354.040 C 825.899 357.204, 826.020 358.661, 825.172 360.523 C 823.301 364.629, 828.434 375.618, 832.500 376.209 C 834.018 376.430, 834.574 377.392, 834.807 380.198 C 835.089 383.592, 834.760 384.123, 830.807 386.656 C 828.438 388.175, 826.327 389.534, 826.115 389.676 C 825.158 390.322, 828.782 396.876, 832.101 400.500 C 836.480 405.283, 845.006 420.968, 844.985 424.204 C 844.977 425.467, 844.260 428.525, 843.392 431 C 842.524 433.475, 840.809 438.948, 839.582 443.163 L 837.350 450.826 841.425 451.299 C 843.666 451.559, 849.775 452.316, 855 452.981 C 869.261 454.798, 901.716 454.569, 921.500 452.512 C 945.657 450.001, 964.600 449.431, 966.716 451.151 C 968.180 452.342, 968.285 452.265, 967.616 450.500 C 967.199 449.400, 966.487 446.530, 966.034 444.121 C 965.529 441.439, 964.254 438.921, 962.743 437.621 C 959.569 434.893, 954 424.732, 954 421.670 C 954 419.098, 955.997 417.026, 960.202 415.237 C 961.688 414.604, 963.664 412.605, 964.593 410.793 C 965.521 408.982, 967.382 406.182, 968.727 404.570 C 970.829 402.053, 971.079 401.011, 970.502 397.167 C 970.133 394.706, 968.706 390.911, 967.331 388.732 C 965.956 386.554, 964.182 382.933, 963.389 380.685 C 962.596 378.438, 961.318 375.902, 960.549 375.050 C 957.862 372.073, 956.686 364.216, 957.302 353.353 L 957.893 342.913 951.696 343.503 C 948.288 343.828, 942.800 344.499, 939.500 344.995 C 929.886 346.438, 898.469 346.970, 886.500 345.893 C 880.450 345.349, 868.075 344.492, 859 343.989 C 849.925 343.487, 838.900 342.818, 834.500 342.504 C 829.492 342.146, 825.846 342.337, 824.750 343.016" stroke="#c4743d" fill="#c4743d" fill-opacity="0.2" fill-rule="evenodd"/><path class="svg-region-AVCl" d="M 911.576 604.519 C 910.518 605.320, 908.043 606.265, 906.076 606.619 C 900.057 607.703, 899.060 608.594, 899.669 612.347 C 900.010 614.450, 899.603 616.867, 898.571 618.863 C 897.293 621.335, 897.214 622.120, 898.215 622.417 C 898.922 622.626, 904 623.792, 909.500 625.006 C 915 626.220, 920.850 627.564, 922.500 627.992 C 929.453 629.796, 937.029 631.293, 937.266 630.911 C 937.406 630.685, 939.003 628.584, 940.814 626.242 C 944.858 621.013, 944.238 619.558, 938.312 620.371 C 934.732 620.861, 933.279 620.554, 930.694 618.762 C 925.698 615.298, 920.066 609.809, 917.855 606.250 C 915.631 602.669, 914.451 602.344, 911.576 604.519" stroke="#ffbab9" fill="#ffbab9" fill-opacity="0.2" fill-rule="evenodd"/><path class="svg-region-AVCr" d="M 866.182 604.500 C 864.432 605.973, 863 607.846, 863 608.662 C 863 609.478, 861.150 611.801, 858.890 613.823 C 855.312 617.024, 854.130 617.500, 849.765 617.500 C 846.137 617.500, 844.450 617.971, 843.661 619.202 C 842.112 621.621, 842.937 622.054, 851.041 623.071 C 855.006 623.569, 860.669 624.739, 863.625 625.671 C 868.612 627.243, 869.379 627.248, 874.250 625.747 C 877.138 624.857, 881.638 623.824, 884.250 623.451 C 886.862 623.078, 888.996 622.487, 888.992 622.136 C 888.971 620.494, 883.058 611.686, 879.196 607.544 C 873.716 601.666, 870.456 600.904, 866.182 604.500" stroke="#ffbab9" fill="#ffbab9" fill-opacity="0.2" fill-rule="evenodd"/><path class="svg-region-DMl" d="M 1011.586 324.862 C 1011.217 325.458, 1009.022 326.429, 1006.708 327.019 C 1004.394 327.610, 997.550 330.145, 991.500 332.652 C 985.450 335.159, 979.600 337.560, 978.500 337.986 C 977.400 338.412, 974.700 339.459, 972.500 340.313 C 970.300 341.167, 966.925 342.135, 965 342.465 C 958.539 343.569, 957.665 344.969, 957.186 354.989 C 956.720 364.743, 957.996 371.781, 960.993 375.990 C 962.024 377.438, 963.174 379.945, 963.549 381.561 C 963.924 383.177, 965.359 386.179, 966.737 388.230 C 968.116 390.282, 969.552 393.432, 969.929 395.230 C 970.548 398.187, 970.917 398.470, 973.786 398.189 C 975.531 398.018, 977.740 398.315, 978.695 398.849 C 979.941 399.547, 981.487 399.282, 984.176 397.910 C 991.239 394.307, 1007.353 396.088, 1016.577 401.493 C 1018.819 402.806, 1023.769 404.419, 1027.577 405.076 C 1032.669 405.954, 1035.369 407.028, 1037.785 409.135 C 1041.900 412.724, 1043.600 412.753, 1044.453 409.250 C 1044.822 407.738, 1046.502 403.650, 1048.186 400.166 C 1053.578 389.013, 1056.077 378.035, 1056.646 363 C 1057.077 351.619, 1056.866 348.604, 1055.303 343.791 C 1053.666 338.751, 1052.749 337.587, 1047.474 333.860 C 1036.667 326.224, 1032.603 324.691, 1021.878 324.210 C 1015.597 323.928, 1012.023 324.154, 1011.586 324.862 M 973.217 368.945 C 972.287 370.565, 970.738 372.097, 969.775 372.349 C 967.637 372.908, 965.695 377.649, 966.420 380.539 C 967.244 383.820, 971.646 388, 974.278 388 C 977.605 388, 980.546 384.367, 981.969 378.500 C 982.998 374.258, 982.939 372.932, 981.578 369.750 C 979.498 364.889, 975.751 364.529, 973.217 368.945" stroke="#68533d" fill="#68533d" fill-opacity="0.2" fill-rule="evenodd"/><path class="svg-region-DMr" d="M 741.973 334.692 C 740.613 335.623, 739.169 336.860, 738.765 337.442 C 737.713 338.958, 737.833 345.265, 739.009 350.236 C 739.564 352.581, 741.146 360.250, 742.523 367.277 C 743.901 374.304, 745.727 381.954, 746.581 384.277 C 748.084 388.364, 750.105 395.466, 751.444 401.362 C 752.037 403.972, 752.244 404.091, 753.797 402.712 C 756.143 400.627, 762.096 399.012, 771.125 398.008 C 776.171 397.447, 780.567 396.228, 784.125 394.401 C 789.161 391.815, 790.536 391.605, 805.919 391.070 C 815.484 390.738, 822.466 390.083, 822.645 389.500 C 822.813 388.950, 821.521 387.795, 819.773 386.933 C 815.500 384.826, 811.675 377.984, 812.928 374.689 C 814.291 371.105, 818.781 368, 822.603 368 C 825.637 368, 825.861 367.799, 825.105 365.755 C 824.634 364.481, 824.698 362.297, 825.253 360.703 C 825.973 358.640, 825.824 356.783, 824.692 353.698 C 823.845 351.389, 822.854 348.022, 822.489 346.216 C 821.475 341.193, 818.893 340.138, 806.116 339.524 C 799.878 339.224, 794.386 338.739, 793.911 338.445 C 793.436 338.151, 786.849 337.490, 779.273 336.975 C 771.698 336.461, 761.450 335.365, 756.500 334.541 C 745.152 332.652, 744.950 332.655, 741.973 334.692" stroke="#68533d" fill="#68533d" fill-opacity="0.2" fill-rule="evenodd"/><path class="svg-region-VMl" d="M 983.500 398.054 L 979.500 400.009 979.359 407.278 C 979.282 411.276, 978.722 416.337, 978.115 418.524 C 976.384 424.760, 976.735 434.784, 978.847 439.434 C 979.862 441.670, 981.486 446.169, 982.455 449.431 C 983.833 454.072, 985.475 456.680, 990.011 461.431 C 996 467.704, 1002.214 475.017, 1005.234 479.348 C 1006.188 480.715, 1008.362 482.140, 1010.066 482.514 C 1014.853 483.566, 1017.290 480.405, 1023.116 465.591 C 1025.947 458.391, 1030.709 446.875, 1033.698 440 C 1036.687 433.125, 1040.227 424.969, 1041.566 421.875 C 1042.905 418.781, 1044 415.545, 1044 414.684 C 1044 413.823, 1044.450 412.840, 1045 412.500 C 1045.550 412.160, 1045.953 410.221, 1045.897 408.191 L 1045.793 404.500 1044.797 408.250 C 1043.602 412.749, 1042.140 412.934, 1037.785 409.135 C 1035.378 407.036, 1032.670 405.954, 1027.653 405.089 C 1023.887 404.439, 1018.487 402.622, 1015.653 401.050 C 1006.150 395.780, 991.036 394.372, 983.500 398.054" stroke="#e59376" fill="#e59376" fill-opacity="0.2" fill-rule="evenodd"/><path class="svg-region-VMr" d="M 822 389.920 C 821.175 390.393, 813.282 390.956, 804.459 391.172 C 789.147 391.547, 788.207 391.689, 783.765 394.292 C 780.636 396.125, 777.045 397.215, 772.806 397.618 C 765.701 398.294, 756.181 400.695, 754.155 402.322 C 752.513 403.642, 753.470 415.208, 755.489 418.437 C 756.199 419.572, 757.278 422.750, 757.888 425.500 C 758.498 428.250, 760.836 437.925, 763.082 447 C 765.329 456.075, 767.562 465.695, 768.043 468.377 C 769.357 475.688, 774.157 479.820, 777.822 476.795 C 779.493 475.415, 786.888 472.742, 792.394 471.528 C 793.986 471.177, 798.074 468.214, 801.479 464.945 C 804.884 461.675, 808.408 459, 809.309 459 C 810.211 459, 811.647 460.350, 812.500 462 C 813.353 463.650, 814.635 465, 815.348 465 C 817.542 465, 826.107 461.823, 830.237 459.477 C 834.845 456.860, 836.337 454.281, 839.481 443.500 C 840.764 439.100, 842.524 433.475, 843.392 431 C 844.260 428.525, 844.977 425.440, 844.985 424.146 C 845.003 421.233, 835.389 402.965, 832.932 401.241 C 831.944 400.549, 829.723 397.511, 827.995 394.491 C 824.706 388.742, 824.427 388.530, 822 389.920" stroke="#e59376" fill="#e59376" fill-opacity="0.2" fill-rule="evenodd"/><path class="svg-region-PV" d="M 795.500 194.072 C 779.274 198.298, 770.402 199.191, 749.500 198.702 C 730.499 198.257, 725.569 197.720, 714.893 194.932 C 710.906 193.890, 709.735 193.972, 706.180 195.541 C 701.699 197.518, 699.730 201.037, 701.073 204.669 C 702.842 209.451, 750.183 255.092, 760.066 261.543 C 769.145 267.470, 781.551 273.678, 787 275.022 C 789.475 275.632, 793.300 276.577, 795.500 277.121 C 797.700 277.664, 801.300 278.501, 803.500 278.979 C 813.275 281.103, 816.922 283.188, 826.230 291.969 C 847.636 312.163, 854.702 317.600, 865.134 321.909 C 871.506 324.541, 878.834 326.625, 886.202 327.900 C 904.604 331.086, 908.611 331.273, 922.179 329.579 C 936.530 327.787, 947.175 324.145, 955.613 318.139 C 968.033 309.299, 970.764 307.176, 976.579 301.844 C 984.323 294.743, 992.766 289.099, 997.417 287.913 C 999.388 287.411, 1002.541 286.605, 1004.424 286.123 C 1006.306 285.640, 1009.188 284.290, 1010.828 283.123 C 1012.467 281.955, 1014.194 281, 1014.666 281 C 1018.280 281, 1047.685 266.179, 1056 260.166 C 1062.336 255.584, 1074.109 243.598, 1077.663 238.111 C 1085.352 226.239, 1089.294 209.437, 1085.322 205.465 C 1083.861 204.004, 1082.274 203.883, 1073.072 204.529 C 1067.257 204.938, 1052.375 205.324, 1040 205.386 L 1017.500 205.500 1009 201.373 C 1004.325 199.103, 999.409 196.065, 998.076 194.623 C 994.973 191.266, 994.017 191.324, 990.437 195.089 C 986.413 199.322, 982.485 201.239, 976 202.133 C 965.661 203.558, 952.453 206.841, 944.761 209.896 C 940.534 211.576, 934.245 213.380, 930.787 213.906 C 923.790 214.969, 846.208 214.569, 841.478 213.445 C 833.787 211.617, 819.854 203.122, 810.815 194.750 C 807.381 191.569, 805.440 191.483, 795.500 194.072" stroke="#b09658" fill="#b09658" fill-opacity="0.2" fill-rule="evenodd"/><path class="svg-region-VV" d="M 889.657 176.677 C 888.915 177.419, 877.858 179.032, 860.500 180.930 C 855.550 181.472, 850.150 182.338, 848.500 182.855 C 846.850 183.373, 841.900 184.555, 837.500 185.483 C 833.100 186.411, 828.195 187.582, 826.601 188.085 C 825.006 188.588, 822.306 189.020, 820.601 189.044 C 818.895 189.068, 815.250 189.691, 812.500 190.427 L 807.500 191.767 812 196.021 C 818.196 201.878, 829.942 209.460, 836.785 212.021 C 842.209 214.050, 844.517 214.170, 884.492 214.494 C 907.597 214.681, 928.750 214.424, 931.500 213.921 C 934.250 213.419, 940.775 211.475, 946 209.603 C 951.225 207.730, 958.200 205.654, 961.500 204.991 C 964.800 204.327, 968.805 203.383, 970.399 202.892 C 971.994 202.401, 974.777 202, 976.584 202 C 978.391 202, 981.001 201.570, 982.383 201.045 C 985.106 200.009, 993 193.266, 993 191.974 C 993 191.538, 989.261 189.160, 984.691 186.689 C 977.244 182.662, 974.989 181.982, 962.941 180.127 C 955.549 178.989, 945.900 177.755, 941.500 177.385 C 929.294 176.359, 890.504 175.829, 889.657 176.677" stroke="#7699d1" fill="#7699d1" fill-opacity="0.2" fill-rule="evenodd"/><path class="svg-region-B" d="M 798.672 630.707 C 798.069 643.637, 796.525 653.830, 793.930 662 C 793.318 663.925, 792.423 669.325, 791.940 674 C 791.456 678.675, 790.188 689.808, 789.122 698.741 C 788.055 707.673, 787.366 715.773, 787.591 716.741 C 788.037 718.660, 789.145 743.052, 789.079 749.500 C 789.028 754.579, 791.734 771.982, 793.572 778.389 C 795.359 784.617, 798.940 789.301, 804.284 792.400 C 808.953 795.108, 820.631 796.843, 836.627 797.206 L 845.753 797.413 853.854 792.707 C 858.309 790.118, 862.447 788, 863.049 788 C 864.534 788, 872.435 783.368, 878.326 779.043 C 882.849 775.722, 887.022 770.210, 895.060 756.939 L 898.428 751.379 903.964 755.067 C 910.365 759.332, 912.185 761.272, 913.936 765.700 C 915.384 769.362, 925.391 778.998, 930.694 781.836 C 933.612 783.398, 940.645 785.704, 946.394 786.983 C 949.085 787.583, 953.810 789.231, 956.894 790.646 C 961.678 792.842, 963.452 793.142, 969 792.694 C 977.692 791.993, 989.382 787.959, 992.512 784.581 C 993.881 783.105, 995 781.573, 995 781.176 C 995 780.780, 996.381 778.780, 998.069 776.732 C 1004.451 768.990, 1006.361 754.933, 1003.605 736 C 1002.845 730.775, 1001.693 722, 1001.045 716.500 C 1000.397 711, 998.547 700.973, 996.933 694.217 C 995.320 687.462, 994 681.043, 994 679.954 C 994 678.865, 992.460 673.273, 990.578 667.528 C 987.385 657.783, 984.517 652.105, 982.750 652.031 C 981.205 651.967, 982.073 656.756, 983.908 658.416 C 988.767 662.814, 993.109 680.060, 990.575 684.899 C 989.825 686.330, 988.152 689.684, 986.856 692.352 C 985.560 695.021, 983.907 697.443, 983.183 697.735 C 980.772 698.706, 977.065 695.738, 975.470 691.559 C 974.031 687.793, 970.722 683.796, 964 677.706 C 962.625 676.461, 960.328 673.753, 958.896 671.689 C 957.465 669.624, 954.341 666.938, 951.955 665.718 C 946.155 662.753, 943.987 659.488, 942.398 651.329 C 941.666 647.573, 940.470 641.591, 939.739 638.035 L 938.411 631.569 932.455 630.208 C 929.180 629.459, 921.060 627.549, 914.411 625.964 C 895.164 621.374, 890.101 621.339, 874.760 625.684 C 869.417 627.198, 868.657 627.192, 863.760 625.603 C 860.867 624.663, 855.704 623.630, 852.286 623.306 L 846.072 622.717 847.786 626.109 C 849.003 628.517, 849.500 631.957, 849.500 637.977 C 849.500 646.324, 849.453 646.484, 846.447 648.457 C 841.475 651.720, 837.800 658.569, 837.036 666 C 835.966 676.408, 829.463 687, 824.143 687 C 823.207 687, 820.941 688.589, 819.109 690.532 C 817.276 692.474, 814.545 694.701, 813.038 695.480 C 810.462 696.813, 810.182 696.737, 808.307 694.198 C 807.211 692.714, 805.995 689.800, 805.606 687.722 C 805.217 685.644, 804.481 684.203, 803.970 684.518 C 801.900 685.798, 799.112 682.765, 797.424 677.396 C 795.244 670.465, 796.316 665.132, 801.425 657.500 C 806.605 649.763, 807 648.609, 807 641.221 C 807 635.631, 806.626 633.972, 805.043 632.539 C 803.550 631.188, 803.017 629.198, 802.793 624.144 C 802.567 619.033, 802.136 617.451, 800.908 617.217 C 799.538 616.956, 799.225 618.841, 798.672 630.707" stroke="#e23b33" fill="#e23b33" fill-opacity="0.2" fill-rule="evenodd"/><path class="svg-region-Ol" d="M 1265 255.743 C 1253.270 256.559, 1239.911 259.341, 1232.500 262.510 C 1230.850 263.216, 1226.800 264.827, 1223.500 266.092 C 1215.922 268.995, 1195.315 279.539, 1187.726 284.396 C 1180.191 289.220, 1160.888 308.566, 1155.820 316.374 C 1148.641 327.436, 1143.215 340.129, 1140.983 351.085 C 1137.675 367.316, 1136.087 373.718, 1132.324 386 C 1130.386 392.325, 1128.409 398.800, 1127.930 400.388 C 1127.452 401.976, 1126.442 404.001, 1125.687 404.888 C 1124.931 405.775, 1123.545 410.550, 1122.607 415.500 C 1120.946 424.257, 1112.001 447.456, 1108.148 453 C 1107.192 454.375, 1105.163 458.001, 1103.639 461.057 C 1102.115 464.114, 1099.335 468.288, 1097.461 470.334 C 1095.586 472.380, 1092.839 476.179, 1091.355 478.777 C 1089.871 481.375, 1087.238 485.300, 1085.504 487.500 C 1082.295 491.571, 1081.783 492.794, 1074.821 513 C 1070.731 524.869, 1068.658 538.057, 1070.077 543.178 C 1070.485 544.651, 1070.596 550.276, 1070.324 555.678 C 1069.854 565, 1071.201 579.359, 1074.247 597.500 C 1076.132 608.719, 1075.793 627.309, 1073.557 635.374 C 1071.325 643.426, 1071.815 647.752, 1077.567 670.790 C 1084.562 698.804, 1095.720 714.565, 1117.921 727.792 C 1123.653 731.206, 1128.828 734.010, 1129.421 734.022 C 1130.015 734.034, 1131.625 734.924, 1133 736 C 1134.375 737.076, 1135.849 737.966, 1136.275 737.978 C 1136.702 737.990, 1141.410 740.135, 1146.738 742.745 C 1157.792 748.159, 1167.878 757.195, 1171.782 765.181 C 1173.875 769.461, 1182.543 781.068, 1184.207 781.819 C 1184.595 781.994, 1187.781 784.255, 1191.287 786.842 C 1203.845 796.113, 1216.030 800.213, 1235 801.552 C 1253.280 802.843, 1271.988 798.745, 1290 789.506 C 1293.575 787.672, 1297.823 785.571, 1299.439 784.836 C 1307.193 781.311, 1332 759.717, 1332 756.493 C 1332 755.806, 1332.866 754.627, 1333.924 753.872 C 1334.983 753.117, 1338.695 748.965, 1342.174 744.645 C 1356.414 726.963, 1359.837 722.782, 1368.030 713.061 C 1371.071 709.452, 1374.446 705.310, 1375.530 703.856 C 1376.613 702.401, 1381.309 696.551, 1385.963 690.856 C 1393.284 681.899, 1398.520 675.416, 1415.307 654.527 C 1417.063 652.342, 1419.175 649.836, 1420 648.958 C 1420.825 648.081, 1422.585 645.818, 1423.911 643.931 C 1425.238 642.044, 1426.933 639.825, 1427.679 639 C 1428.425 638.175, 1432.143 633.450, 1435.941 628.500 C 1439.739 623.550, 1444.221 617.925, 1445.901 616 C 1468.067 590.598, 1492.007 546.889, 1501.512 514.466 C 1511.498 480.405, 1511.918 441.460, 1502.644 409.500 C 1500.682 402.738, 1499.104 398.801, 1497.633 397.002 C 1496.958 396.176, 1495.345 392.800, 1494.049 389.500 C 1491.913 384.063, 1490.066 380.831, 1484.222 372.310 C 1483.162 370.765, 1479.668 365.450, 1476.458 360.500 C 1469.558 349.859, 1459.787 339.401, 1451.636 333.934 C 1448.411 331.770, 1445.625 330, 1445.446 330 C 1445.267 330, 1440.931 325.928, 1435.810 320.950 C 1430.690 315.973, 1424.475 310.711, 1422 309.256 C 1419.525 307.802, 1414.800 304.030, 1411.500 300.874 C 1402.912 292.660, 1401.526 291.542, 1393.609 286.436 C 1375.025 274.452, 1367.476 270.709, 1350.223 264.922 C 1340.721 261.736, 1332.171 259.151, 1331.223 259.178 C 1328.195 259.264, 1315.337 257.079, 1312.477 255.991 C 1310.092 255.085, 1276.956 254.912, 1265 255.743" stroke="#aa444d" fill="#aa444d" fill-opacity="0.2" fill-rule="evenodd"/><path class="svg-region-Or" d="M 512 276.696 C 503.105 277.651, 486.630 281.537, 478 284.715 C 465.810 289.205, 459.773 292.099, 447.738 299.222 C 442.369 302.400, 437.732 305, 437.433 305 C 437.135 305, 435.002 305.859, 432.695 306.910 C 430.388 307.960, 422.200 311.123, 414.500 313.938 C 400.117 319.196, 398.466 319.826, 386.500 324.625 C 380.256 327.130, 378.081 328.840, 366.362 340.466 C 359.135 347.635, 348.785 357.652, 343.362 362.726 C 327.496 377.570, 322.139 387.103, 314.546 414 C 313.071 419.225, 310.343 428.450, 308.485 434.500 C 301.101 458.536, 298.963 470.750, 298.814 489.745 C 298.714 502.502, 300.454 516.608, 302.421 519 C 303.100 519.825, 303.721 522.600, 303.802 525.166 C 304.029 532.345, 312.175 551.689, 324.999 575.500 C 332.093 588.671, 336.761 598.177, 338.996 604 C 340.157 607.025, 341.513 610.400, 342.009 611.500 C 342.505 612.600, 344.068 616.327, 345.482 619.783 C 346.896 623.238, 349.391 628.987, 351.026 632.558 C 352.662 636.129, 354 639.292, 354 639.587 C 354 641.210, 372.625 679.650, 373.747 680.344 C 374.931 681.076, 382.477 696.245, 383.524 700 C 385.112 705.691, 391.988 718.769, 395.098 722.015 C 396.934 723.932, 399.248 727.075, 400.239 729 C 403.623 735.575, 406.734 740.161, 412.617 747.250 C 415.853 751.149, 419.175 755.565, 420 757.064 C 421.774 760.287, 429.953 769.881, 435.250 774.953 C 437.313 776.928, 439 778.889, 439 779.311 C 439 779.732, 440.800 781.951, 443 784.240 C 445.200 786.530, 447 788.717, 447 789.101 C 447 789.486, 448.462 791.321, 450.250 793.179 C 452.037 795.037, 457.011 800.576, 461.303 805.487 C 475.033 821.196, 481.426 824.573, 511.500 831.997 C 526.742 835.760, 529.431 836.147, 537.500 835.745 C 542.450 835.497, 548.689 834.518, 551.365 833.569 C 564.607 828.870, 583.495 813.427, 599.002 794.618 C 613.503 777.031, 617.597 772.240, 622.925 766.630 C 629.309 759.908, 641.525 751.502, 654.324 745.024 C 659.177 742.567, 665.997 738.207, 669.480 735.334 C 675.327 730.511, 691.995 711.460, 696.436 704.526 C 697.483 702.890, 699.184 700.646, 700.215 699.539 C 702.489 697.098, 706.212 690.208, 710.774 680 C 714.628 671.376, 716.158 665.444, 716.710 656.986 C 717.175 649.858, 716.942 647.743, 715.280 643.986 C 712.382 637.438, 712.147 636.976, 708.934 631.500 C 701.513 618.855, 699.871 614.203, 699.752 605.489 C 699.663 599.018, 700.343 594.664, 702.893 585.366 C 704.683 578.840, 706.621 572.150, 707.199 570.500 C 709.394 564.237, 709.332 542.203, 707.066 523.398 C 704.168 499.345, 704.203 499.532, 702.123 496.851 C 701.119 495.558, 698.807 491.800, 696.984 488.500 C 695.162 485.200, 692.849 481.150, 691.844 479.500 C 690.839 477.850, 689.713 475.825, 689.340 475 C 688.968 474.175, 687.455 471.700, 685.979 469.500 C 684.502 467.300, 682.268 462.350, 681.014 458.500 C 679.760 454.650, 678.330 450.987, 677.836 450.360 C 677.342 449.734, 676.251 445.923, 675.410 441.892 C 674.570 437.861, 673.511 434.099, 673.058 433.531 C 672.186 432.439, 667.508 417.570, 666.441 412.500 C 666.094 410.850, 665.007 407.700, 664.025 405.500 C 663.044 403.300, 661.468 398.125, 660.524 394 C 659.580 389.875, 658.203 384.475, 657.464 382 C 656.724 379.525, 655.590 374.800, 654.944 371.500 C 653.630 364.789, 648.510 348.838, 646.439 345 C 645.697 343.625, 643.936 339.964, 642.526 336.864 C 641.116 333.764, 638.618 329.489, 636.975 327.364 C 635.332 325.239, 633.019 322.150, 631.835 320.500 C 628.536 315.901, 609.317 297.398, 604.579 294.260 C 599.286 290.754, 571.192 284.143, 554.500 282.476 C 548.677 281.894, 539.909 280.246, 527.436 277.389 C 521.517 276.033, 519.159 275.927, 512 276.696" stroke="#aa444d" fill="#aa444d" fill-opacity="0.2" fill-rule="evenodd"/><path class="svg-region-BPCl" d="M 970.107 402.250 C 968.443 404.587, 966.145 408.205, 965 410.290 C 963.855 412.374, 961.699 414.599, 960.209 415.233 C 956.002 417.025, 954 419.096, 954 421.659 C 954 424.780, 961.064 438, 962.732 438 C 964.260 438, 965.289 440.391, 967.040 448 C 967.736 451.025, 968.663 454.175, 969.100 455 C 970.356 457.373, 973.297 473.856, 973.741 481.022 C 974.088 486.600, 973.755 488.323, 971.445 492.923 C 969.534 496.727, 968.048 502.576, 966.370 512.901 C 965.065 520.930, 963.334 531.550, 962.524 536.500 C 961.713 541.450, 960.556 550.225, 959.951 556 C 958.531 569.562, 957.075 579.731, 956.012 583.500 C 955.546 585.150, 953.931 591.900, 952.421 598.500 C 949.139 612.853, 947.133 617.846, 941.948 624.567 L 938.039 629.634 939.460 637.067 C 942.737 654.218, 943.992 659.114, 945.690 661.364 C 947.646 663.957, 952.390 667, 954.477 667 C 955.200 667, 957.165 669.138, 958.845 671.750 C 960.524 674.362, 962.872 677.175, 964.063 678 C 968.534 681.097, 973.840 687.486, 975.092 691.280 C 976.473 695.462, 979.812 698.380, 982.590 697.833 C 983.522 697.649, 985.993 694.139, 988.106 690 C 992.163 682.050, 992.204 681.570, 989.788 670.500 C 988.696 665.495, 987.113 662.249, 983.936 658.500 C 982.687 657.025, 982.057 653.613, 981.537 645.502 C 981.150 639.453, 980.308 633.871, 979.666 633.099 C 979.003 632.300, 978.500 628.415, 978.500 624.097 C 978.500 615.962, 980.169 610.964, 984.061 607.447 C 986.316 605.410, 991 596.926, 991 594.880 C 991 594.227, 989.821 591.200, 988.379 588.154 C 985.947 583.013, 985.790 581.855, 986.194 572.057 C 986.574 562.825, 987.019 560.683, 989.730 555 C 992.248 549.722, 992.931 546.808, 993.361 539.500 C 993.938 529.705, 998.414 510.319, 1001.846 502.750 C 1008.950 487.083, 1008.992 486.892, 1006.447 481.529 C 1004.730 477.912, 998.827 470.664, 990.134 461.500 C 985.802 456.933, 983.991 454.067, 982.552 449.500 C 981.513 446.200, 979.790 441.571, 978.724 439.212 C 976.574 434.458, 976.654 427.992, 979.060 411.786 C 980.575 401.584, 979.673 398, 975.588 398 C 973.840 398, 972.260 399.225, 970.107 402.250" stroke="#83385f" fill="#83385f" fill-opacity="0.2" fill-rule="evenodd"/><path class="svg-region-BPCr" d="M 801.155 465.006 C 797.665 468.308, 793.615 471.264, 792.155 471.575 C 785.865 472.914, 779.483 475.806, 779.156 477.465 C 778.967 478.426, 780.140 480.626, 781.762 482.356 C 785.366 486.198, 785.865 487.546, 787 496.498 C 787.564 500.946, 788.886 505.333, 790.572 508.350 C 793.235 513.114, 793.245 513.215, 792.533 527.040 C 791.874 539.833, 791.994 541.471, 794.037 547.612 C 796.013 553.549, 796.170 555.343, 795.466 563.892 C 795.031 569.176, 794.635 577.796, 794.587 583.046 C 794.514 591.068, 794.819 593.046, 796.500 595.436 C 797.600 597.001, 798.785 598.780, 799.133 599.390 C 800.726 602.185, 802.286 611.379, 802.750 620.712 C 803.163 628.997, 803.612 631.244, 805.129 632.617 C 806.612 633.959, 807 635.739, 807 641.205 C 807 648.518, 805.832 651.762, 800.954 658 C 799.448 659.925, 797.643 663.821, 796.943 666.659 C 795.833 671.154, 795.896 672.539, 797.433 677.426 C 799.113 682.767, 801.904 685.795, 803.970 684.518 C 804.481 684.203, 805.209 685.644, 805.588 687.722 C 805.967 689.800, 807.142 692.733, 808.199 694.239 L 810.121 696.979 813.811 695.023 C 815.840 693.947, 818.813 691.702, 820.417 690.034 C 822.021 688.365, 823.899 687, 824.590 687 C 826.932 687, 831.763 682.035, 834.071 677.256 C 835.334 674.640, 836.668 669.575, 837.036 666 C 837.800 658.571, 841.473 651.724, 846.447 648.453 C 849.415 646.502, 849.502 646.223, 849.576 638.473 C 849.672 628.287, 847.611 623.274, 842.040 620.143 C 834.639 615.983, 833.450 612.949, 831.013 592 C 829.208 576.483, 827.143 562.169, 825.098 551 C 822.808 538.492, 820.486 525.117, 818.935 515.500 C 818.315 511.650, 817.210 505.125, 816.481 501 C 814.704 490.948, 813.810 476.607, 814.888 475.441 C 815.366 474.924, 816.046 472.875, 816.398 470.888 C 816.870 468.226, 816.622 466.931, 815.453 465.961 C 814.581 465.238, 813.211 463.375, 812.408 461.823 C 811.606 460.270, 810.173 459.001, 809.224 459.002 C 808.276 459.002, 804.645 461.704, 801.155 465.006" stroke="#83385f" fill="#83385f" fill-opacity="0.2" fill-rule="evenodd"/><path class="svg-region-AMC" d="M 973.508 367.974 C 973.164 369.060, 971.593 370.866, 970.017 371.988 C 966.053 374.811, 965.274 379.089, 967.940 383.403 C 972.873 391.385, 979.455 389.107, 981.990 378.541 C 983.133 373.777, 983.086 372.701, 981.597 369.564 C 980.235 366.693, 979.345 366, 977.020 366 C 975.026 366, 973.941 366.609, 973.508 367.974 M 818 368.741 C 816.159 369.457, 814.241 371.760, 812.987 374.760 C 812.276 376.460, 812.560 378.012, 814.134 381.032 C 818.020 388.488, 824.255 390.671, 830.937 386.915 C 834.586 384.864, 835 384.240, 835 380.791 C 835 377.701, 834.550 376.779, 832.694 376.074 C 831.425 375.591, 829.152 373.578, 827.643 371.598 C 824.925 368.035, 822.025 367.176, 818 368.741" stroke="#9d4741" fill="#9d4741" fill-opacity="0.2" fill-rule="evenodd"/>
    </svg>