<svg xmlns="http://www.w3.org/2000/svg" width="1785" height="1131" viewBox="0 0 1785 1131" version="1.1">
    <path class="svg-region-AP" d="M 920.208 418.192 C 918.547 419.853, 903.388 421.855, 891.885 421.934 C 883.578 421.991, 881.907 421.715, 879.606 419.905 C 877.318 418.105, 876.138 417.905, 871.222 418.486 C 868.075 418.857, 864.087 419.913, 862.360 420.831 C 860.633 421.749, 852.235 429.278, 843.697 437.562 C 835.159 445.846, 825.614 454.598, 822.486 457.011 C 819.358 459.424, 816.422 462.390, 815.961 463.602 C 815.500 464.814, 814.688 466.075, 814.157 466.403 C 811.996 467.739, 815.548 488.968, 819.533 498.534 C 822.271 505.105, 823.067 508.724, 823.909 518.412 C 824.551 525.802, 825.513 531.134, 826.469 532.593 C 827.311 533.878, 828.017 536.858, 828.038 539.215 C 828.060 541.572, 829.079 548.450, 830.303 554.500 L 832.529 565.500 838.066 566.097 C 841.112 566.425, 844.705 567.380, 846.052 568.218 C 847.398 569.056, 851.983 571.598, 856.239 573.867 L 863.979 577.992 867.463 571.246 C 873.313 559.919, 876.988 557.208, 879.070 562.684 C 880.072 565.319, 879.095 572.082, 876.887 577.797 C 875.215 582.125, 875.911 587.596, 878.750 592.447 C 880.263 595.032, 882.056 598.126, 882.735 599.323 C 883.415 600.521, 883.977 603.166, 883.985 605.203 C 883.997 608.162, 885.186 612.535, 886.599 614.814 C 886.706 614.986, 891.331 614.561, 896.876 613.869 C 906.459 612.673, 906.878 612.522, 905.341 610.824 C 904.022 609.367, 903.957 608.757, 904.986 607.516 C 906.158 606.105, 905.986 602.684, 904.559 598.999 C 904.172 598.002, 904.938 597.073, 906.841 596.231 C 908.416 595.533, 910.523 593.444, 911.522 591.588 C 913.276 588.332, 913.276 588.009, 911.535 582.357 C 907.872 570.462, 908.393 566.466, 914.516 559.508 C 916.891 556.809, 917.245 556.686, 918.124 558.258 C 918.661 559.216, 919.668 560, 920.363 560 C 921.057 560, 922.948 561.389, 924.563 563.087 C 927.188 565.847, 927.925 566.107, 931.500 565.534 C 937.009 564.651, 936.620 564.629, 945 566.315 C 956.701 568.670, 957.610 567.862, 959.983 553 C 960.642 548.875, 961.624 544.391, 962.166 543.036 C 963.591 539.475, 966.947 518.374, 967.023 512.500 C 967.059 509.750, 967.702 505.925, 968.453 504 C 973.392 491.334, 976.208 481.101, 977.578 470.839 C 978.119 466.786, 977.929 466.032, 976.119 465.063 C 974.974 464.451, 972.885 461.598, 971.477 458.725 C 970.069 455.851, 967.585 451.977, 965.958 450.114 C 964.331 448.252, 963 446.412, 963 446.024 C 963 445.636, 959.766 442.065, 955.813 438.088 C 940.152 422.334, 924.700 413.700, 920.208 418.192 M 1011.169 473.986 C 1009.954 475.628, 1007.956 477.224, 1006.728 477.532 C 1004.824 478.010, 1004.245 479.343, 1002.797 486.585 C 1001.837 491.391, 999.559 498.157, 997.550 502.173 C 995.014 507.243, 994 510.593, 994 513.907 C 994 517.617, 993.380 519.296, 990.902 522.302 C 988.361 525.386, 987.724 527.176, 987.356 532.280 C 987.110 535.701, 985.962 543.391, 984.805 549.370 L 982.702 560.239 984.845 566.482 C 989.001 578.592, 991.423 583.154, 990.828 577.750 C 990.692 576.513, 990.919 572.350, 991.332 568.500 C 993.985 543.825, 995.192 533.965, 996.046 530 C 996.579 527.525, 997.280 523.925, 997.604 522 C 997.928 520.075, 999.050 516.592, 1000.097 514.261 C 1001.143 511.929, 1002 509.576, 1002 509.032 C 1002 507.716, 1005.904 495.291, 1007.508 491.500 C 1008.206 489.850, 1009.108 487.375, 1009.511 486 C 1009.915 484.625, 1010.576 483.050, 1010.981 482.500 C 1011.615 481.638, 1015 472.224, 1015 471.322 C 1015 470.103, 1013.023 471.478, 1011.169 473.986 M 788.323 474.696 C 785.249 475.295, 783.197 477.885, 784.942 478.964 C 785.664 479.411, 786.430 481.713, 786.643 484.081 C 787.154 489.751, 787.667 492.462, 788.988 496.464 C 789.589 498.285, 790.195 501.745, 790.335 504.151 C 790.475 506.558, 790.915 509.054, 791.313 509.697 C 791.711 510.341, 792.231 513.485, 792.469 516.684 C 794.851 548.691, 796.819 565.628, 800.172 583 C 800.863 586.575, 801.444 592.538, 801.464 596.251 C 801.484 599.964, 801.802 603.001, 802.170 603.001 C 802.539 603, 803.125 599.962, 803.473 596.250 C 803.821 592.538, 804.757 588.306, 805.553 586.846 C 807.978 582.397, 807.568 539.796, 804.958 525 C 803.842 518.675, 802.249 509.225, 801.418 504 C 800.587 498.775, 799.024 491.800, 797.944 488.500 C 796.864 485.200, 795.984 480.861, 795.990 478.857 C 796.003 474.285, 794.533 473.487, 788.323 474.696" stroke="#fc7143" fill="#fc7143" fill-opacity="0.2" fill-rule="evenodd"/><path class="svg-region-PP" d="M 807.500 338.529 C 805.300 339.321, 802.967 339.977, 802.315 339.985 C 801.663 339.993, 799.863 340.515, 798.315 341.144 L 795.500 342.288 800.500 343.974 C 808.473 346.662, 812.707 348.798, 815.400 351.490 C 816.780 352.871, 818.343 354, 818.873 354 C 819.403 354, 820.787 355.538, 821.949 357.417 C 823.538 359.989, 824.981 360.993, 827.780 361.477 C 835.408 362.794, 838.077 367.517, 835.359 374.891 C 833.252 380.610, 831.283 383, 828.678 383 C 825.945 383, 826.964 383.835, 835.389 388.500 C 842.717 392.558, 850.932 398.121, 854.116 401.183 C 855.079 402.109, 857.134 403.679, 858.683 404.672 C 863.064 407.480, 872.411 415.136, 873.300 416.643 C 873.740 417.389, 874.794 418, 875.642 418 C 876.490 418, 878.329 418.900, 879.727 420 C 884.872 424.047, 914.113 421.827, 923 416.714 C 925.475 415.291, 929.150 413.208, 931.166 412.085 C 933.183 410.963, 937.401 407.798, 940.539 405.051 C 943.678 402.304, 947.091 399.788, 948.123 399.461 C 949.155 399.133, 950 398.466, 950 397.978 C 950 397.490, 951.688 396.815, 953.750 396.478 C 955.813 396.142, 959.075 395.254, 961 394.505 C 962.925 393.757, 966.605 392.388, 969.178 391.464 C 975.400 389.229, 978.534 386.348, 976.893 384.371 C 976.055 383.361, 975.366 383.234, 974.642 383.958 C 974.069 384.531, 971.440 385, 968.800 385 L 964 385 964 378.821 C 964 372.627, 965.613 366.141, 967.495 364.765 C 968.048 364.361, 969.480 364.024, 970.677 364.015 C 973.358 363.996, 979 357.425, 979 354.322 C 979 351.463, 984.173 343.797, 988.296 340.547 L 991.500 338.021 985.585 338.146 C 982.332 338.214, 972.882 339.361, 964.585 340.694 C 956.288 342.026, 945.675 343.383, 941 343.707 C 926.992 344.680, 885.413 344.298, 878.729 343.134 C 872.761 342.096, 867.908 341.569, 854.294 340.485 C 850.881 340.213, 844.889 339.318, 840.979 338.496 C 831.822 336.569, 812.886 336.588, 807.500 338.529" stroke="#c4743d" fill="#c4743d" fill-opacity="0.2" fill-rule="evenodd"/><path class="svg-region-AVCl" d="M 920 560.386 C 920 560.598, 920.672 562.060, 921.494 563.636 C 922.315 565.211, 922.990 568.357, 922.994 570.628 C 922.997 572.988, 923.615 575.265, 924.436 575.947 C 925.225 576.602, 926.153 578.570, 926.497 580.319 C 927.544 585.636, 930.293 594.380, 931.585 596.500 C 932.255 597.600, 933.119 600.008, 933.504 601.852 C 933.889 603.695, 935.058 606.058, 936.102 607.102 C 938.267 609.267, 938.556 612.044, 936.800 613.800 C 936.113 614.487, 936.033 615, 936.613 615 C 938.296 615, 942.766 609.754, 944.708 605.500 C 945.712 603.300, 947.285 600.375, 948.204 599 C 949.835 596.560, 951.625 591.581, 953.777 583.500 C 956.636 572.761, 957 571.085, 957 568.659 C 957 566.308, 956.759 566.141, 954.568 566.974 C 953.055 567.549, 950.880 567.532, 948.818 566.928 C 946.993 566.393, 943.787 565.733, 941.693 565.459 C 939.600 565.186, 937.575 564.880, 937.193 564.779 C 936.812 564.678, 934.757 564.942, 932.627 565.366 C 929.202 566.048, 928.312 565.782, 924.936 563.068 C 921.369 560.203, 920 559.458, 920 560.386 M 909.022 594.476 C 907.718 595.864, 906.046 597, 905.307 597 C 904.329 597, 904.161 597.751, 904.693 599.750 C 905.594 603.143, 905.558 605.979, 904.585 608.176 C 903.472 610.688, 907.449 612.683, 914.788 613.294 C 920.874 613.800, 921.055 613.748, 920.403 611.659 C 920.033 610.471, 918.441 608.022, 916.865 606.215 C 915.289 604.409, 913.980 602.609, 913.956 602.215 C 913.932 601.822, 913.345 599.352, 912.653 596.726 L 911.394 591.952 909.022 594.476" stroke="#ffbab9" fill="#ffbab9" fill-opacity="0.2" fill-rule="evenodd"/><path class="svg-region-AVCr" d="M 833.476 568.750 C 833.711 570.263, 834.133 574.200, 834.415 577.500 C 834.972 584.029, 837.155 589.255, 842.935 597.906 C 844.991 600.983, 847.982 605.562, 849.582 608.083 C 853.387 614.081, 856.512 615, 873.101 615 L 886.233 615 885.573 612.750 C 885.211 611.513, 884.511 607.866, 884.018 604.647 C 883.526 601.427, 882.487 598.052, 881.710 597.147 C 880.933 596.241, 879.218 593.533, 877.899 591.128 L 875.500 586.757 874.123 592.128 C 873.366 595.083, 872.466 600.875, 872.123 605 L 871.500 612.500 867.894 612.802 C 863.894 613.137, 853.415 608.658, 851.678 605.871 C 850.919 604.654, 851.365 602.888, 853.444 598.871 C 854.973 595.917, 856.848 592.790, 857.612 591.921 C 858.375 591.053, 859.014 589.703, 859.031 588.921 C 859.048 588.140, 860.109 585.364, 861.388 582.754 C 863.035 579.394, 863.391 577.752, 862.607 577.131 C 861.998 576.649, 857.050 573.947, 851.610 571.127 C 844.164 567.267, 840.649 566, 837.385 566 C 833.219 566, 833.067 566.107, 833.476 568.750" stroke="#ffbab9" fill="#ffbab9" fill-opacity="0.2" fill-rule="evenodd"/><path class="svg-region-DMl" d="M 1012 332.617 C 1008.975 333.434, 1003.471 334.486, 999.769 334.955 C 994.191 335.662, 992.508 336.338, 989.942 338.904 C 988.239 340.607, 986.507 342, 986.091 342 C 984.764 342, 979 351.698, 979 353.932 C 979 355.116, 978.557 356.628, 978.015 357.292 C 971.520 365.257, 971.654 365, 973.988 365 C 975.179 365, 977.469 366.315, 979.077 367.923 C 981.460 370.306, 982 371.695, 982 375.445 C 982 379.379, 981.639 380.207, 979.500 381.182 C 976.998 382.322, 976.214 384.396, 977.894 385.434 C 978.385 385.738, 980.692 385.314, 983.019 384.493 C 987.847 382.790, 994 382.514, 994 384 C 994 384.550, 995.493 385, 997.318 385 C 1002.431 385, 1010.720 387.811, 1013.343 390.434 C 1016.015 393.106, 1020.233 395.416, 1024.152 396.354 C 1026.770 396.981, 1035 405.732, 1035 407.889 C 1035 409.748, 1037.531 409.133, 1039.688 406.750 C 1043.227 402.839, 1049.062 388.717, 1050.451 380.697 C 1050.814 378.606, 1051.756 376.647, 1052.544 376.345 C 1055.328 375.276, 1056.250 368.400, 1054.840 359.211 C 1053.737 352.017, 1053.082 350.261, 1050.647 347.962 C 1046.914 344.438, 1046.750 344.264, 1042.429 339.250 C 1039.815 336.215, 1038 335, 1036.084 335 C 1034.608 335, 1032.973 334.626, 1032.450 334.169 C 1030.989 332.890, 1023.608 330.992, 1020.384 331.066 C 1018.798 331.102, 1015.025 331.800, 1012 332.617" stroke="#68533d" fill="#68533d" fill-opacity="0.2" fill-rule="evenodd"/><path class="svg-region-DMr" d="M 756 337.936 C 750.996 338.946, 746.243 341.660, 745.526 343.917 C 745.188 344.983, 745.380 350.422, 745.952 356.003 C 746.715 363.439, 747.796 367.979, 749.997 372.993 C 751.649 376.756, 753.004 380.885, 753.010 382.168 C 753.015 383.450, 754.148 386.925, 755.528 389.889 C 757.848 394.873, 758.166 395.161, 759.768 393.734 C 761.947 391.792, 781.315 383.512, 786 382.519 C 787.925 382.111, 790.267 381.101, 791.205 380.274 C 793.213 378.504, 803.735 376.085, 809.643 376.035 C 813.613 376.001, 815.840 374.168, 814.515 372.025 C 813.398 370.218, 816.364 364.983, 819.580 363.085 C 823.576 360.728, 823.850 359.117, 820.750 356.197 C 819.513 355.032, 817.082 352.710, 815.349 351.039 C 813.616 349.367, 811.884 348, 811.500 348 C 811.116 348, 809.384 347.369, 807.651 346.599 C 799.937 343.168, 793.202 341.641, 778.500 339.989 C 774.100 339.495, 768.700 338.631, 766.500 338.069 C 762.048 336.932, 761.039 336.920, 756 337.936" stroke="#68533d" fill="#68533d" fill-opacity="0.2" fill-rule="evenodd"/><path class="svg-region-VMl" d="M 987.855 389.273 C 985.300 391.598, 981.041 394.850, 978.390 396.500 C 970.862 401.185, 969.500 404.403, 969.500 417.500 C 969.500 425.190, 970.209 431.903, 971.857 439.810 C 973.153 446.030, 973.924 451.410, 973.569 451.764 C 973.214 452.119, 971.591 451.907, 969.962 451.292 C 968.333 450.677, 967 450.417, 967 450.715 C 967 451.621, 973.209 462.382, 974.810 464.250 C 976.920 466.712, 978.676 466.425, 979.411 463.500 C 979.961 461.307, 980.579 461, 984.437 461 C 988.204 461, 989.595 461.647, 994.109 465.500 C 997.008 467.975, 1000.105 470, 1000.990 470 C 1003.408 470, 1005 472.065, 1005 475.200 C 1005 479.070, 1007.213 478.778, 1010.793 474.435 C 1014.426 470.028, 1014.195 470.488, 1024.062 448 C 1031.043 432.091, 1040 409.171, 1040 407.217 C 1040 406.878, 1039.460 407.140, 1038.800 407.800 C 1037.161 409.439, 1035 409.312, 1035 407.577 C 1035 404.757, 1026.340 396.546, 1021.943 395.198 C 1019.607 394.481, 1015.977 392.424, 1013.876 390.626 C 1009.898 387.221, 1002.821 384.981, 996.174 385.023 C 993.272 385.041, 991.524 385.934, 987.855 389.273" stroke="#e59376" fill="#e59376" fill-opacity="0.2" fill-rule="evenodd"/><path class="svg-region-VMr" d="M 798.727 377.468 C 795.553 378.163, 792.178 379.416, 791.227 380.254 C 790.277 381.092, 787.925 382.106, 786 382.508 C 781.206 383.508, 764.199 390.622, 760.400 393.216 C 757.737 395.035, 757.418 395.698, 758.138 397.917 C 759.150 401.034, 767.370 424.506, 769.898 431.500 C 770.893 434.250, 773.152 440.152, 774.918 444.615 C 777.717 451.686, 779.822 458.521, 782.932 470.632 C 784.220 475.650, 784.578 475.894, 788.995 474.773 C 791.738 474.077, 793.395 474.083, 794.251 474.792 C 796.122 476.345, 801.031 471.835, 800.341 469.197 C 799.716 466.804, 803.106 463, 805.865 463 C 806.891 463, 808.911 463.929, 810.354 465.064 L 812.978 467.128 819.344 460.814 C 822.846 457.341, 832.788 447.762, 841.438 439.527 C 850.088 431.293, 856.662 424.387, 856.048 424.183 C 854.592 423.697, 847.362 426.606, 843.903 429.069 C 842.412 430.131, 840.586 430.992, 839.846 430.983 C 839.106 430.974, 836.737 427.711, 834.583 423.733 C 830.618 416.410, 828.162 407.796, 827.959 400.500 C 827.795 394.589, 826.003 390.621, 821.250 385.642 C 818.913 383.193, 817 380.797, 817 380.317 C 817 379.837, 816.095 378.669, 814.989 377.722 C 812.629 375.702, 807.189 375.617, 798.727 377.468" stroke="#e59376" fill="#e59376" fill-opacity="0.2" fill-rule="evenodd"/><path class="svg-region-PV" d="M 870.500 162.703 C 837.164 163.986, 823.447 167.313, 812.451 176.783 C 804.067 184.003, 802 187.892, 802 196.447 C 802 201.620, 802.830 205.182, 806.004 213.632 C 808.206 219.494, 811.271 226.363, 812.816 228.895 C 814.361 231.428, 816.423 235.525, 817.398 238 C 818.374 240.475, 820.709 245.034, 822.586 248.131 C 824.464 251.228, 826 254.041, 826 254.383 C 826 255.647, 838.489 276.660, 841.934 281.191 C 843.895 283.771, 847.075 288.030, 849 290.655 C 850.925 293.280, 855.410 298.527, 858.966 302.315 C 872.778 317.025, 877.744 318.614, 912.500 319.451 C 937.253 320.047, 937.539 320.030, 941.460 317.767 C 950.409 312.601, 960.154 297.624, 969.525 274.635 C 971.064 270.859, 973.375 266.519, 974.661 264.990 C 975.948 263.462, 977 261.926, 977 261.576 C 977 261.227, 978.802 258.662, 981.004 255.875 C 983.207 253.089, 986.659 247.815, 988.676 244.155 C 990.693 240.495, 993.170 236.301, 994.179 234.835 C 995.189 233.369, 997.360 228.869, 999.004 224.835 C 1001.538 218.617, 1001.994 216.162, 1001.997 208.710 C 1002.001 198.001, 1000.335 194.175, 992.072 185.912 C 983.971 177.811, 978.508 175.323, 961.500 171.985 C 958.200 171.338, 953.475 170.397, 951 169.895 C 940.939 167.856, 926.118 165.100, 920 164.132 C 913.384 163.086, 883.206 162.214, 870.500 162.703" stroke="#b09658" fill="#b09658" fill-opacity="0.2" fill-rule="evenodd"/><path class="svg-region-B" d="M 851.999 618.625 C 851.997 626.325, 849.670 638.328, 847.553 641.560 C 844.945 645.540, 838.997 650.798, 833.500 653.983 C 828.140 657.089, 822.214 661.747, 817.760 666.356 C 815.332 668.868, 815 669.981, 815 675.606 C 815 679.175, 814.561 682, 814.006 682 C 813.460 682, 811.697 683.816, 810.089 686.036 C 807.251 689.953, 807.122 690.013, 805.743 688.044 C 804.359 686.067, 804.247 686.111, 801.364 689.758 C 798.426 693.474, 794 703.015, 794 705.633 C 794 706.385, 793.150 707, 792.111 707 C 790.724 707, 790.030 707.996, 789.498 710.750 C 788.253 717.188, 788.920 745.959, 790.512 754.500 C 791.332 758.900, 792.260 765.093, 792.575 768.262 C 793.083 773.384, 793.478 774.196, 796.123 775.564 C 798.025 776.547, 801.519 777.061, 805.800 776.987 C 809.485 776.923, 816.550 777.440, 821.500 778.135 C 833.944 779.882, 839.182 779.698, 848.813 777.177 C 853.386 775.979, 858.229 775, 859.577 775 C 860.925 775, 862.809 774.577, 863.764 774.060 C 864.719 773.544, 866.634 772.886, 868.020 772.599 C 873.181 771.530, 879.925 765.831, 886.541 756.945 C 892.209 749.332, 893.626 748, 896.054 748 C 898.330 748, 899.241 748.706, 900.565 751.496 C 902.813 756.234, 912.649 765.156, 920.260 769.362 C 932.319 776.025, 950.340 782, 958.380 782 C 963.495 782, 964.120 781.723, 968.204 777.638 C 970.604 775.238, 973.974 772.548, 975.693 771.659 C 981.492 768.660, 986.837 760.588, 990.466 749.351 C 993.373 740.346, 991.268 711.590, 986.322 692.764 C 983.707 682.809, 982 680.978, 982 688.126 C 982 691.817, 981.822 692.081, 979.750 691.457 C 978.513 691.084, 976.005 689.367, 974.177 687.640 C 971.149 684.778, 970.915 684.146, 971.541 680.500 C 972.974 672.158, 972.405 662.707, 970.181 657.915 C 968.307 653.878, 967.167 652.892, 960.637 649.665 C 954.225 646.496, 952.270 646, 946.192 646 C 937.624 646, 936.335 645.549, 934.439 641.883 C 933.073 639.240, 933.157 638.385, 935.476 631.282 C 936.864 627.032, 938 621.722, 938 619.481 L 938 615.407 931.750 615.389 C 928.313 615.378, 923.475 614.794, 921 614.090 C 917.725 613.159, 913.233 613.015, 904.500 613.563 C 887.673 614.618, 859.130 614.648, 855.250 613.615 L 852 612.750 851.999 618.625" stroke="#e23b33" fill="#e23b33" fill-opacity="0.2" fill-rule="evenodd"/><path class="svg-region-Ol" d="M 1280 243.465 C 1260.273 245.778, 1244.859 248.894, 1237 252.159 C 1232.875 253.873, 1228.240 255.638, 1226.699 256.082 C 1223.947 256.875, 1206.843 266.391, 1198 272.049 C 1195.525 273.632, 1192.150 275.688, 1190.500 276.616 C 1187.607 278.244, 1180.417 284.096, 1171 292.487 C 1165.918 297.015, 1156 310.335, 1156 312.632 C 1156 313.463, 1155.325 314.818, 1154.500 315.643 C 1153.675 316.468, 1153 318.007, 1153 319.063 C 1153 320.119, 1151.686 324.024, 1150.080 327.741 C 1147.199 334.412, 1145.514 339.781, 1145.838 341.258 C 1146.465 344.106, 1140.100 365.340, 1135.361 376.211 C 1133.513 380.452, 1132 384.542, 1132 385.300 C 1132 389.245, 1110.969 427.483, 1104.783 434.785 C 1103.252 436.591, 1102 438.659, 1102 439.380 C 1102 440.100, 1101.054 441.546, 1099.898 442.593 C 1098.741 443.639, 1097.173 445.699, 1096.412 447.170 C 1095.651 448.641, 1093.726 451.271, 1092.134 453.014 C 1090.543 454.757, 1088.624 457.379, 1087.870 458.841 C 1087.117 460.304, 1085.712 462.088, 1084.749 462.808 C 1082.862 464.216, 1080.766 468.475, 1076.535 479.500 C 1069.680 497.361, 1068.941 502.322, 1069.388 527.500 C 1069.594 539.050, 1070.040 549.288, 1070.381 550.250 C 1070.721 551.212, 1071.269 552.788, 1071.598 553.750 C 1071.927 554.712, 1072.582 558.200, 1073.053 561.500 C 1073.523 564.800, 1074.668 572.225, 1075.596 578 C 1077.234 588.190, 1077.591 598.710, 1077.070 621.500 C 1076.864 630.553, 1077.288 634.447, 1079.465 643.500 C 1083.978 662.262, 1086.039 668.037, 1089.645 672.029 C 1091.490 674.071, 1093 676.240, 1093 676.848 C 1093 677.456, 1094.237 678.750, 1095.750 679.723 C 1097.263 680.696, 1102.017 684.121, 1106.316 687.334 C 1113.918 693.016, 1128.304 702, 1129.801 702 C 1130.210 702, 1132.109 703.282, 1134.022 704.848 C 1135.935 706.415, 1139.163 708.479, 1141.195 709.436 C 1145.287 711.362, 1155.659 720.072, 1158 723.546 C 1161.062 728.091, 1170.388 739, 1171.212 739 C 1171.681 739, 1172.387 739.802, 1172.782 740.781 C 1174.014 743.837, 1189.470 757.531, 1194.195 759.751 C 1201.636 763.249, 1209.296 763.577, 1222.483 760.961 L 1234.028 758.670 1241.764 761.487 C 1246.242 763.118, 1252.338 764.485, 1256.239 764.734 C 1265.896 765.349, 1271.451 763.292, 1294.452 750.578 C 1300.151 747.429, 1316.612 734.434, 1322.500 728.436 C 1327.684 723.156, 1340.539 708.770, 1350 697.661 C 1358.508 687.671, 1370.010 674.953, 1380 664.488 C 1397.754 645.889, 1403.056 640.150, 1410.474 631.500 C 1414.247 627.100, 1418.052 623.141, 1418.930 622.703 C 1419.808 622.265, 1421.645 620.272, 1423.013 618.275 C 1424.381 616.278, 1425.952 614.162, 1426.504 613.572 C 1427.057 612.982, 1429.510 610.025, 1431.956 607 C 1434.402 603.975, 1437.427 600.375, 1438.678 599 C 1442.399 594.909, 1460 571.117, 1460 570.177 C 1460 569.700, 1460.900 568.495, 1462 567.500 C 1463.100 566.505, 1464 565.122, 1464 564.428 C 1464 563.734, 1464.348 563.017, 1464.773 562.833 C 1467.306 561.741, 1485.215 528.280, 1489.571 516.500 C 1490.792 513.200, 1493.214 506.675, 1494.953 502 C 1505.977 472.376, 1508.037 434.868, 1499.869 412.500 C 1498.180 407.875, 1492.266 396.170, 1488.182 389.370 C 1486.157 385.998, 1483.150 380.902, 1481.500 378.045 C 1479.850 375.188, 1477.150 370.781, 1475.500 368.250 C 1473.850 365.720, 1471.994 362.799, 1471.375 361.759 C 1469.924 359.321, 1456.325 344.160, 1444.639 331.953 C 1430.263 316.936, 1417.093 302.462, 1414.175 298.472 C 1405.383 286.449, 1388.231 271.205, 1375.399 264.009 C 1372.155 262.190, 1368.375 259.716, 1367 258.512 C 1362.894 254.916, 1354.802 250.435, 1350 249.098 C 1329.602 243.417, 1300.436 241.070, 1280 243.465" stroke="#aa444d" fill="#aa444d" fill-opacity="0.2" fill-rule="evenodd"/><path class="svg-region-Or" d="M 518.500 285.080 C 515.750 285.608, 510.350 286.499, 506.500 287.059 C 496.082 288.573, 486.859 291.821, 478.500 296.919 C 476.850 297.926, 472.125 300.669, 468 303.016 C 463.875 305.364, 460.275 307.567, 460 307.912 C 459.725 308.258, 458.262 309.084, 456.750 309.749 C 455.238 310.413, 454 311.417, 454 311.979 C 454 312.540, 453.554 313, 453.009 313 C 452.463 313, 449.954 314.575, 447.432 316.500 C 444.806 318.504, 441.693 320, 440.146 320 C 438.660 320, 436.353 320.788, 435.018 321.750 C 431.665 324.168, 421.389 329.940, 409.500 336.084 C 398.310 341.866, 393.817 345.130, 387.101 352.353 C 381.699 358.163, 382.882 357.012, 370.002 369 C 356.563 381.509, 352.119 386.053, 348.500 390.980 C 346.850 393.227, 344.534 396.298, 343.353 397.805 C 337.044 405.854, 320 446.609, 320 453.645 C 320 454.499, 319.374 456.616, 318.609 458.349 C 313.760 469.336, 310.315 503.572, 312.556 518.500 C 313.689 526.050, 319.947 544.606, 324.472 553.834 C 326.962 558.913, 329 563.321, 329 563.630 C 329 563.939, 329.855 565.391, 330.899 566.858 C 334.015 571.235, 346.301 595.863, 349.926 605 C 351.780 609.675, 354.318 615.750, 355.564 618.500 C 356.811 621.250, 358.376 625.300, 359.042 627.500 C 359.708 629.700, 360.840 632.176, 361.557 633.002 C 362.274 633.828, 363.344 635.628, 363.935 637.002 C 364.525 638.376, 368.212 645.575, 372.127 653 C 376.042 660.425, 383.900 675.802, 389.590 687.171 C 395.280 698.540, 400.400 708.129, 400.968 708.480 C 401.535 708.831, 402 709.798, 402 710.629 C 402 713.769, 413.639 731.549, 428.428 751 C 446.757 775.107, 449.558 778.696, 453.191 782.728 C 455.286 785.053, 457 787.559, 457 788.297 C 457 790.287, 480.192 812, 482.318 812 C 482.881 812, 484.053 812.636, 484.921 813.413 C 490.911 818.774, 525.622 830.596, 542.061 832.874 C 560.841 835.477, 578.319 826.068, 597.500 803.030 C 600.800 799.066, 605.098 793.950, 607.052 791.661 C 609.005 789.373, 612.131 785.475, 613.998 783 C 618.233 777.386, 627.828 766.476, 636.153 757.811 C 641.848 751.883, 658.194 737.889, 660.588 736.892 C 661.106 736.677, 666.895 732.900, 673.451 728.500 C 690.727 716.906, 702.306 705.013, 711.236 689.691 C 718.271 677.618, 721.223 669.292, 721.762 660 C 722.148 653.339, 721.930 652.108, 719.814 649 C 714.070 640.560, 707.962 626.979, 706.520 619.441 C 705.705 615.181, 705.232 610.752, 705.469 609.598 C 707.655 598.947, 709.954 591.801, 714.346 582 L 719.500 570.500 719.822 550 C 720.252 522.588, 717.223 505.113, 710.452 495.936 C 709.161 494.185, 707.799 491.346, 707.426 489.627 C 707.053 487.907, 704.507 482.027, 701.769 476.559 C 696.883 466.804, 695.067 462.056, 688.934 443 C 687.252 437.775, 684.808 430.800, 683.502 427.500 C 681.340 422.035, 679.159 415.815, 672.280 395.500 C 670.246 389.493, 668.958 384.694, 667.585 378 C 667.416 377.175, 667.018 375.825, 666.700 375 C 666.382 374.175, 664.730 369.355, 663.029 364.288 C 660.111 355.597, 657.264 349.105, 651.281 337.500 C 649.864 334.750, 648.208 331.491, 647.602 330.258 C 646.996 329.025, 646.179 328.012, 645.786 328.008 C 645.393 328.004, 644.043 326.490, 642.786 324.644 C 637.009 316.164, 625.237 303.691, 620.888 301.442 C 619.300 300.621, 618 299.582, 618 299.135 C 618 297.824, 613.664 296.210, 604.278 294.027 C 599.450 292.904, 593.925 291.560, 592 291.038 C 585.570 289.298, 575.610 288.082, 563.500 287.560 C 556.900 287.275, 548.125 286.568, 544 285.989 C 532.210 284.334, 523.920 284.038, 518.500 285.080" stroke="#aa444d" fill="#aa444d" fill-opacity="0.2" fill-rule="evenodd"/><path class="svg-region-BPCl" d="M 979.182 463.750 C 978.599 465.262, 977.838 468.525, 977.490 471 C 976.243 479.873, 971.798 496.561, 969.827 499.765 C 968.408 502.071, 967.568 505.922, 966.963 512.884 C 966.016 523.786, 963.416 539.843, 962.041 543.283 C 961.553 544.502, 960.210 550.900, 959.055 557.500 C 955.267 579.157, 952.541 590.167, 949.397 596.500 C 945.182 604.989, 942.279 609.920, 940.250 612.033 C 938.556 613.798, 938 615.561, 938 619.168 C 938 621.803, 937.389 625.656, 936.643 627.730 C 934.435 633.866, 933 638.572, 933 639.675 C 933 640.243, 934.104 641.899, 935.452 643.354 C 937.697 645.776, 938.559 646, 945.643 646 C 952.616 646, 954.098 646.369, 960.627 649.730 C 967.009 653.015, 968.145 654.039, 970.143 658.305 C 972.549 663.442, 973.049 671.157, 971.553 680.038 C 970.808 684.456, 970.896 684.674, 974.897 688.288 C 979.057 692.046, 981.933 693.032, 982.081 690.750 C 982.232 688.429, 982.704 684.536, 983.867 676 C 985.344 665.169, 984.196 656.823, 978.914 640 C 974.873 627.130, 974.170 621.158, 976.125 616.297 C 978.637 610.048, 979.605 608.330, 982.732 604.569 C 987.604 598.711, 991 591.238, 991 586.374 C 991 583.781, 989.424 578.144, 986.930 571.821 L 982.860 561.500 984.034 554.500 C 984.679 550.650, 985.424 546.825, 985.688 546 C 985.952 545.175, 986.552 540.496, 987.020 535.603 C 987.745 528.028, 988.327 526.072, 990.936 522.440 C 993.162 519.340, 994 517.053, 994 514.074 C 994 511.444, 995.252 507.374, 997.494 502.713 C 1001.772 493.820, 1006.053 474.899, 1004.387 472.242 C 1003.787 471.284, 1002.345 470.358, 1001.184 470.185 C 1000.022 470.012, 996.852 467.875, 994.139 465.435 C 989.853 461.582, 988.618 461, 984.724 461 C 980.759 461, 980.120 461.317, 979.182 463.750 M 913.500 560.669 C 911.850 562.661, 910.194 565.013, 909.820 565.896 C 908.487 569.042, 909.044 574.600, 911.351 581.189 C 912.753 585.194, 913.360 588.404, 912.862 589.189 C 912.405 589.910, 912.024 591.721, 912.015 593.212 C 911.994 597.054, 915.783 606.703, 917.585 607.394 C 918.415 607.713, 919.538 609.244, 920.079 610.797 C 921.187 613.976, 925.501 616, 931.166 616 C 937.134 616, 940.498 609.577, 936 606.768 C 934.900 606.081, 934 604.714, 934 603.729 C 934 602.745, 932.815 599.141, 931.367 595.720 C 929.918 592.299, 928.114 586.869, 927.356 583.653 C 926.598 580.438, 925.308 576.850, 924.489 575.681 C 923.670 574.512, 923 571.790, 923 569.632 C 923 566.159, 918.620 556.956, 917 557.025 C 916.725 557.036, 915.150 558.676, 913.500 560.669" stroke="#83385f" fill="#83385f" fill-opacity="0.2" fill-rule="evenodd"/><path class="svg-region-BPCr" d="M 802.129 464.622 C 800.420 465.819, 799.942 466.916, 800.304 468.809 C 800.664 470.692, 800.157 471.875, 798.397 473.260 C 795.392 475.623, 795.214 480.708, 797.874 488.212 C 798.904 491.121, 800.297 497.325, 800.969 502 C 801.641 506.675, 803.115 514.775, 804.243 520 C 807.014 532.823, 808.096 582.678, 805.684 586.359 C 804.747 587.789, 803.787 593.574, 803.077 602.062 C 801.650 619.127, 801.529 620.084, 798.959 634.500 C 797.783 641.100, 796.450 651.675, 795.997 658 C 795.014 671.730, 793.750 679.912, 791.052 690 C 789.949 694.125, 789.036 699.638, 789.024 702.250 C 789.002 706.656, 789.181 707, 791.500 707 C 792.875 707, 794.002 706.438, 794.005 705.750 C 794.014 703.192, 798.600 693.376, 801.450 689.813 C 804.294 686.258, 804.449 686.196, 805.782 688.099 C 807.108 689.993, 807.284 689.908, 810.089 686.036 C 811.697 683.816, 813.460 682, 814.006 682 C 814.559 682, 815 679.224, 815 675.751 L 815 669.503 822.058 662.879 C 825.940 659.236, 831.002 655.275, 833.308 654.078 C 838.203 651.536, 844.981 645.649, 847.433 641.811 C 849.879 637.980, 852 626.804, 852 617.741 C 852 611.218, 851.681 609.707, 850 608.268 C 848.900 607.326, 848 606.181, 848 605.723 C 848 605.265, 846.202 602.243, 844.005 599.007 C 836.533 588.004, 834.968 584.171, 834.004 574.510 C 833.509 569.554, 832.628 563.925, 832.046 562 C 830.502 556.891, 828.007 542.065, 828.003 537.973 C 828.001 536.032, 827.336 533.497, 826.525 532.339 C 825.631 531.063, 824.616 525.571, 823.949 518.407 C 822.916 507.299, 822.193 504.583, 817.061 492.500 C 815.849 489.646, 814 477.997, 814 473.211 C 814 470.305, 813.266 468.281, 811.411 466.077 C 808.524 462.645, 805.605 462.188, 802.129 464.622 M 872.409 562.805 C 869.848 566.105, 859 586.811, 859 588.400 C 859 589.030, 857.466 591.875, 855.590 594.723 C 851.194 601.398, 850.328 605.125, 852.712 607.110 C 856.244 610.050, 864.583 613.158, 868.052 612.828 L 871.500 612.500 871.765 606 C 871.911 602.425, 872.443 598.600, 872.947 597.500 C 873.451 596.400, 874.538 591.900, 875.363 587.500 C 876.188 583.100, 877.604 576.157, 878.510 572.070 C 879.734 566.550, 879.886 564.044, 879.100 562.320 C 877.709 559.268, 875.002 559.464, 872.409 562.805" stroke="#83385f" fill="#83385f" fill-opacity="0.2" fill-rule="evenodd"/><path class="svg-region-AMC" d="M 818.750 363.515 C 816.688 364.898, 814.944 366.585, 814.876 367.265 C 814.052 375.487, 814.208 378.143, 815.546 378.656 C 816.346 378.963, 817 379.753, 817 380.411 C 817 381.069, 818.630 383.158, 820.622 385.054 C 825.105 389.319, 827.938 395.240, 828.013 400.500 C 828.097 406.354, 830.423 416.288, 832.738 420.676 C 838.854 432.269, 839.265 432.535, 845.018 428.646 C 846.933 427.351, 850.300 425.700, 852.500 424.976 C 854.700 424.253, 858.726 422.612, 861.446 421.330 C 864.167 420.049, 867.542 418.993, 868.946 418.985 C 872.288 418.965, 874.808 417.390, 873.492 416.145 C 872.197 414.920, 861.429 406.458, 855.493 402 C 852.930 400.075, 849.183 397.118, 847.166 395.430 C 843.823 392.631, 840.498 390.697, 831.250 386.173 C 827.389 384.284, 827.173 383.424, 830.360 382.624 C 833.732 381.778, 837.677 371.050, 836.056 367.135 C 834.620 363.668, 831.989 362.072, 826.728 361.478 C 823.364 361.099, 821.734 361.515, 818.750 363.515 M 967.495 364.739 C 965.605 366.169, 964 372.637, 964 378.821 L 964 385 968.374 385 C 971.219 385, 974.365 384.096, 977.374 382.415 C 981.782 379.951, 982 379.622, 982 375.430 C 982 369.669, 978.266 365.396, 972.500 364.559 C 970.300 364.240, 968.048 364.321, 967.495 364.739 M 981.531 384.663 C 979.347 385.449, 977.322 386.419, 977.031 386.819 C 975.195 389.334, 963.123 394.430, 955.055 396.095 C 952.611 396.600, 950.361 397.371, 950.055 397.809 C 949.750 398.247, 947.917 399.566, 945.983 400.740 C 944.049 401.915, 941.349 404.070, 939.983 405.531 C 938.617 406.992, 934.350 410.042, 930.500 412.310 C 925.358 415.338, 924.011 416.536, 925.425 416.823 C 930.907 417.936, 945.901 428.171, 954.500 436.670 C 959.323 441.437, 964 446.995, 964 447.960 C 964 449.146, 969.803 452, 972.215 452 C 973.916 452, 974.052 451.486, 973.466 447.250 C 973.105 444.637, 972.116 439.800, 971.268 436.500 C 969.627 430.108, 968.975 410.372, 970.255 405.806 C 971.258 402.228, 975.476 397.862, 981 394.684 C 983.475 393.261, 987.506 390.049, 989.958 387.548 L 994.416 383 989.958 383.117 C 987.506 383.181, 983.714 383.876, 981.531 384.663" stroke="#9d4741" fill="#9d4741" fill-opacity="0.2" fill-rule="evenodd"/>
    </svg>