<svg xmlns="http://www.w3.org/2000/svg" width="1785" height="1131" viewBox="0 0 1785 1131" version="1.1">
    <path class="svg-region-AP" d="M 889.500 456.021 C 887.300 456.432, 882.891 457.496, 879.701 458.384 C 876.512 459.273, 873.061 460, 872.033 460 C 871.005 460, 867.924 461.125, 865.187 462.500 C 862.449 463.875, 859.749 465, 859.186 465 C 858.623 465, 854.876 466.575, 850.860 468.500 C 846.843 470.425, 842.831 472, 841.944 472 C 836.006 472, 828.030 491.202, 828.029 505.500 C 828.028 511.380, 825.084 525.997, 823.900 525.999 C 822.837 526.001, 816.834 506.898, 815.964 500.748 C 815.501 497.473, 814.418 494.015, 813.558 493.064 C 812.042 491.389, 812.032 488.428, 813.510 478.819 C 813.905 476.251, 813.767 476.159, 810.211 476.634 C 801.717 477.768, 801.751 477.746, 802.316 481.794 C 803.039 486.969, 805.836 497.106, 807.202 499.500 C 808.408 501.615, 808.428 501.727, 809.973 515 C 810.518 519.675, 811.225 525.075, 811.546 527 C 811.866 528.925, 812.016 532.975, 811.879 536 C 811.430 545.930, 811.628 549.435, 812.924 554.500 C 813.627 557.250, 814.556 564.900, 814.988 571.500 C 815.873 585.031, 817.646 596.869, 819.039 598.547 C 820.840 600.717, 825.266 618.572, 825.720 625.500 C 826.345 635.035, 828.038 636.849, 832.855 633.144 C 835.209 631.334, 835.209 631.331, 833.672 624.417 C 832.827 620.612, 830.998 613.675, 829.607 609 C 824.889 593.133, 823.604 584.580, 824.970 578.142 C 826.087 572.876, 826.682 572.015, 832.518 567.213 C 836.002 564.346, 839.535 562, 840.368 562 C 841.201 562, 842.191 561.500, 842.568 560.890 C 844.809 557.264, 856.115 564.328, 866.365 575.758 C 868.490 578.128, 871.640 580.788, 873.365 581.669 C 875.089 582.549, 878.834 584.809, 881.687 586.691 L 886.875 590.111 886.457 595.085 C 886.227 597.821, 885.539 600.993, 884.928 602.135 C 884.300 603.309, 884.101 605.723, 884.470 607.691 C 885.426 612.787, 884.083 622, 882.385 622 C 881.623 622, 881 622.616, 881 623.370 C 881 625.443, 889.802 626.192, 893.404 624.425 C 897.038 622.641, 898.449 622.632, 899.900 624.379 C 901.806 626.676, 906.878 627.152, 910.607 625.382 C 914.432 623.567, 914.713 622.837, 912.345 620.872 C 909.081 618.165, 908 613.359, 908 601.548 L 908 590.031 914.403 583.942 C 917.925 580.592, 923.213 576.198, 926.153 574.176 C 929.094 572.154, 931.725 570.275, 932 570 C 938.612 563.388, 941.125 562, 946.485 562 C 951.585 562, 952.278 562.300, 956.482 566.329 C 958.967 568.709, 961 571.418, 961 572.347 C 961 574.717, 957.255 588.698, 955.333 593.500 C 954.453 595.700, 953.328 601.100, 952.835 605.500 C 952.342 609.900, 951.671 615.862, 951.345 618.750 C 950.816 623.434, 950.955 623.996, 952.626 623.967 C 957.445 623.881, 962.133 615.816, 964.956 602.757 C 967.260 592.099, 968.805 585.923, 971.023 578.500 C 972.010 575.200, 973.370 570.025, 974.047 567 C 974.724 563.975, 976.115 559.592, 977.139 557.261 C 978.162 554.929, 979 552.229, 979 551.261 C 979 550.292, 979.713 546.349, 980.584 542.500 C 981.456 538.650, 982.543 533.250, 983 530.500 C 983.458 527.750, 984.545 523.531, 985.416 521.124 C 986.295 518.697, 987 513.626, 987 509.738 C 987 502.320, 988.386 488.397, 990.096 478.644 C 990.660 475.424, 990.921 472.588, 990.675 472.342 C 990.429 472.096, 989.254 473.471, 988.064 475.397 C 986.873 477.323, 984.306 479.884, 982.359 481.087 C 979.329 482.960, 978.916 483.651, 979.489 485.887 C 979.857 487.324, 980.397 491.766, 980.689 495.759 C 981.107 501.483, 980.840 503.808, 979.425 506.759 C 978.217 509.279, 977.389 514.301, 976.888 522.148 C 976.479 528.554, 975.663 534.629, 975.073 535.648 C 974.483 536.666, 973.495 538.850, 972.878 540.500 L 971.754 543.500 969.903 539.500 C 968.885 537.300, 968.038 533.250, 968.021 530.500 C 968.003 527.750, 967.528 523.841, 966.965 521.814 C 966.402 519.787, 965.786 513.240, 965.595 507.265 C 965.138 492.920, 963.180 488.775, 950.764 475.872 C 941.216 465.950, 937.124 463.341, 923 458.177 C 916.943 455.962, 896.760 454.663, 889.500 456.021" stroke="#fc7143" fill="#fc7143" fill-opacity="0.2" fill-rule="evenodd"/><path class="svg-region-PP" d="M 899.500 350.089 C 888.644 351.366, 869.368 358.303, 863.752 362.954 C 852.005 372.682, 849.724 375.875, 845.507 388.500 C 844.037 392.900, 842.412 397.297, 841.895 398.272 C 841.378 399.246, 840.681 402.051, 840.344 404.504 C 839.812 408.386, 840.042 409.222, 842.117 410.958 C 847.339 415.330, 854.295 417, 867.288 417.001 C 874.004 417.002, 883.255 416.478, 887.845 415.836 C 896.770 414.589, 899.830 415.004, 912.665 419.198 C 917.643 420.825, 920.434 421.105, 927.165 420.654 C 945.163 419.449, 950.829 417.664, 953.205 412.450 C 955.433 407.560, 952.788 402.838, 941.453 391.476 C 935.704 385.713, 931 380.478, 931 379.843 C 931 379.208, 929.831 377.156, 928.403 375.283 C 926.974 373.410, 925.394 370.390, 924.892 368.571 C 924.390 366.753, 922.878 363.743, 921.533 361.882 C 920.188 360.022, 918.462 357.150, 917.698 355.500 C 916.935 353.850, 915.678 351.986, 914.905 351.357 C 913.129 349.913, 905.989 349.325, 899.500 350.089" stroke="#c4743d" fill="#c4743d" fill-opacity="0.2" fill-rule="evenodd"/><path class="svg-region-AVCl" d="M 935.972 566.250 C 933.500 568.587, 929.194 572.075, 926.402 574 C 923.610 575.925, 918.333 580.200, 914.676 583.500 L 908.026 589.500 908.019 601 C 908.011 613.277, 909.126 619.451, 911.520 620.369 C 913.467 621.116, 913.433 618.738, 911.441 614.887 C 910.584 613.229, 910.022 610.442, 910.191 608.695 C 910.740 603.041, 915.717 604.334, 919.974 611.236 C 920.902 612.741, 923.609 615.441, 925.990 617.236 C 938.164 626.414, 946.351 631.803, 947.470 631.373 C 949.550 630.575, 950.853 626.841, 951.440 620 C 952.800 604.145, 953.706 597.362, 954.714 595.500 C 956.064 593.004, 960.998 575.129, 960.999 572.728 C 961 571.753, 959.143 568.940, 956.873 566.478 C 952.845 562.108, 952.597 562, 946.605 562 C 940.753 562, 940.254 562.199, 935.972 566.250" stroke="#ffbab9" fill="#ffbab9" fill-opacity="0.2" fill-rule="evenodd"/><path class="svg-region-AVCr" d="M 839.349 562.229 C 837.066 563.478, 833.198 566.300, 830.753 568.500 C 822.660 575.785, 822.325 584.157, 829.196 607.500 C 833.281 621.379, 835.064 629.669, 834.359 631.506 C 833.843 632.853, 834.123 632.901, 836.404 631.862 C 837.858 631.199, 839.288 629.701, 839.581 628.533 C 840.481 624.946, 846.758 620.651, 858 615.927 C 861.025 614.656, 864.146 612.760, 864.936 611.712 C 867.436 608.396, 875.202 603, 877.475 603 C 880.731 603, 882.412 607.108, 882.412 615.069 C 882.412 618.881, 882.733 622, 883.126 622 C 884.149 622, 885.336 609.633, 884.550 607.158 C 884.188 606.018, 884.591 603.025, 885.446 600.507 C 888.271 592.186, 887.768 590.575, 880.929 586.032 C 877.590 583.815, 874.378 582, 873.791 582 C 873.204 582, 869.974 579.166, 866.612 575.703 C 857.527 566.343, 850.535 560.952, 846.795 560.423 C 844.560 560.108, 842.164 560.689, 839.349 562.229" stroke="#ffbab9" fill="#ffbab9" fill-opacity="0.2" fill-rule="evenodd"/><path class="svg-region-VMl" d="M 979.139 386.147 C 977.291 386.679, 974.004 388.235, 971.835 389.604 C 968.023 392.010, 967.913 392.235, 968.524 396.312 C 969.351 401.825, 966.946 404.978, 959.660 407.935 C 956.324 409.289, 953.859 411.013, 953.205 412.450 C 952.094 414.887, 940.188 423.302, 936.159 424.498 C 933.178 425.383, 929.023 434.040, 929.010 439.396 C 929.003 442.190, 929.991 444.786, 932.500 448.566 C 934.425 451.466, 936 454.308, 936 454.882 C 936 456.716, 944.325 463.999, 946.451 464.026 C 947.578 464.040, 951.859 465.165, 955.965 466.526 C 960.071 467.887, 964.488 469, 965.781 469 C 969.764 469, 971.979 470.894, 974.539 476.492 C 975.893 479.451, 977 482.388, 977 483.019 C 977 483.650, 977.337 484.005, 977.750 483.807 C 984.416 480.613, 985.850 479.240, 990.443 471.661 C 993.162 467.174, 998.112 460.204, 1001.443 456.171 C 1004.774 452.138, 1008.175 447.862, 1009 446.669 C 1009.825 445.476, 1011.937 442.555, 1013.694 440.178 C 1018.613 433.520, 1020.367 427.033, 1020.367 415.500 C 1020.367 402.692, 1018.897 397.552, 1013.860 392.756 C 1007.263 386.474, 1003.034 384.987, 992.062 385.090 C 986.803 385.140, 980.988 385.616, 979.139 386.147" stroke="#e59376" fill="#e59376" fill-opacity="0.2" fill-rule="evenodd"/><path class="svg-region-VMr" d="M 790.791 387.988 C 789.302 388.437, 786.757 389.749, 785.137 390.902 C 783.517 392.056, 781.811 393.013, 781.346 393.029 C 780.087 393.073, 774.325 398.524, 773.082 400.847 C 772.487 401.959, 772.009 406.836, 772.021 411.684 C 772.049 423.270, 775.373 434.863, 780.947 442.808 C 783.176 445.987, 785 448.882, 785 449.243 C 785 449.604, 786.350 451.900, 788 454.345 C 789.650 456.790, 791 459.227, 791 459.760 C 791 460.294, 791.822 461.803, 792.827 463.115 C 793.831 464.427, 795.444 467.525, 796.411 470 C 799.177 477.086, 800.374 477.969, 806.351 477.340 C 809.183 477.042, 812.677 475.975, 814.116 474.968 C 817.464 472.626, 828.423 468, 830.624 468 C 832.733 468, 844.251 461.665, 849.273 457.743 C 855.125 453.171, 859.117 444.209, 859.328 435.163 C 859.492 428.148, 859.370 427.721, 856.552 425.467 C 854.930 424.170, 851.906 422.822, 849.831 422.471 C 847.756 422.121, 845.033 421.038, 843.779 420.064 C 841.048 417.944, 833.252 415.396, 826.865 414.536 C 819.845 413.591, 818.666 411.677, 818.174 400.426 C 817.780 391.430, 817.623 390.868, 814.976 388.983 C 812.650 387.327, 810.650 387.014, 802.846 387.086 C 797.706 387.133, 792.281 387.539, 790.791 387.988" stroke="#e59376" fill="#e59376" fill-opacity="0.2" fill-rule="evenodd"/><path class="svg-region-PV" d="M 862.675 182.893 C 856.373 185.920, 850.365 192.625, 847.417 199.921 C 844.896 206.161, 844.789 207.119, 845.346 218.506 C 845.669 225.109, 846.472 232.084, 847.131 234.006 C 848.475 237.929, 856.379 251.924, 863.223 262.500 C 865.715 266.350, 869.860 274.225, 872.435 280 C 879.233 295.245, 879.237 295.251, 885.115 298.218 C 891.798 301.591, 899.003 301.905, 903.720 299.029 C 906.781 297.163, 913 289.667, 913 287.843 C 913 284.905, 920.924 267.681, 924.154 263.600 C 927.866 258.908, 929.176 255.462, 931.981 243 C 932.662 239.975, 934.745 234.068, 936.610 229.874 C 940.701 220.671, 941.036 213.828, 937.955 202.332 C 935.429 192.905, 934.787 191.690, 930.737 188.661 C 925.969 185.096, 922.144 184.243, 905 182.923 C 877.491 180.804, 867.040 180.796, 862.675 182.893" stroke="#b09658" fill="#b09658" fill-opacity="0.2" fill-rule="evenodd"/><path class="svg-region-B" d="M 960.495 616.149 C 960.108 617.442, 957.926 620.319, 955.646 622.542 C 947.827 630.164, 946.982 631.530, 948.630 633.883 C 950.366 636.360, 952.974 644.620, 952.989 647.685 C 952.996 649.075, 954.428 650.895, 956.921 652.685 C 960.864 655.516, 966.157 664.325, 967.625 670.500 C 968.017 672.150, 969.161 674.850, 970.165 676.500 C 971.375 678.486, 971.994 681.449, 971.996 685.266 C 972 690.873, 971.903 691.079, 968.500 692.701 C 965.274 694.240, 965 694.719, 965 698.823 L 965 703.276 958.250 702.603 C 951.062 701.887, 949 700.485, 949 696.317 C 949 695.020, 947.690 692.848, 946 691.342 C 944.350 689.872, 943 687.869, 943 686.891 C 943 685.913, 941.652 684.317, 940.005 683.344 C 935.655 680.774, 935.110 676.777, 937.610 665.750 C 938.132 663.447, 937.902 663, 936.200 663 C 935.082 663, 933.918 663.563, 933.614 664.250 C 933.226 665.127, 932.679 664.915, 931.780 663.539 C 931.076 662.460, 928.813 659.855, 926.750 657.750 C 923.703 654.640, 923 653.186, 923 649.997 C 923 647.190, 922.469 645.786, 921.137 645.073 C 918.585 643.708, 917.203 639.662, 916.751 632.235 C 916.268 624.286, 915.256 623.176, 910.533 625.418 C 906.833 627.173, 904.181 626.894, 900.527 624.365 C 898.021 622.631, 895.018 622.671, 892.641 624.472 C 891.332 625.464, 889.307 625.705, 885.793 625.289 C 879.524 624.547, 879.044 625.232, 878.987 635 C 878.952 641.031, 878.385 643.748, 876.091 648.871 C 872.166 657.634, 870.814 659, 866.069 659 C 863.896 659, 861.893 659.364, 861.618 659.810 C 861.343 660.255, 862.872 662.617, 865.016 665.060 C 869.519 670.189, 870.167 672.601, 866.750 671.523 C 859.373 669.195, 857.104 669.975, 861 673.500 C 863.333 675.612, 863.448 676.648, 861.750 680.258 C 860.133 683.696, 854.110 686, 846.742 686 C 841.452 686, 840.944 685.792, 839.526 683.050 C 838.687 681.427, 838 678.977, 838 677.606 C 838 675.889, 837.053 674.554, 834.959 673.317 C 831.251 671.127, 830.675 669.073, 831.153 659.747 C 831.409 654.753, 832.220 651.169, 833.762 648.219 C 834.993 645.865, 836 643.180, 836 642.253 C 836 641.325, 836.740 638.629, 837.644 636.261 C 838.549 633.893, 839.041 631.707, 838.737 631.404 C 837.793 630.460, 832.640 633.673, 829.500 637.165 C 825.476 641.638, 824.433 643.639, 820.816 653.814 C 818.210 661.143, 817.682 664.218, 817.435 673.500 C 817.100 686.046, 815.166 695.554, 812.062 699.913 C 808.265 705.245, 806.204 711.260, 804.081 723.203 C 801.493 737.760, 801.326 755.214, 803.668 766.477 C 805.556 775.558, 807.119 778, 811.041 778 C 812.543 778, 815.060 778.672, 816.636 779.494 C 818.739 780.591, 822.955 780.995, 832.500 781.014 C 846.113 781.041, 852.862 781.827, 871.755 785.582 C 876.310 786.487, 885.094 782.745, 889.273 778.119 C 891.093 776.105, 893.650 771.766, 894.955 768.478 C 898.648 759.172, 900.135 757.999, 902.271 762.709 C 902.947 764.199, 905.436 767.462, 907.803 769.959 C 910.169 772.457, 912.959 776.418, 914.002 778.762 C 915.045 781.106, 916.708 783.267, 917.699 783.564 C 918.690 783.862, 921.300 784.941, 923.500 785.963 C 930.114 789.036, 940.053 790.175, 962 790.376 C 970.617 790.455, 977.150 790.020, 980.061 789.173 C 984.311 787.936, 984.873 787.358, 988.311 780.673 C 992.551 772.432, 993.013 766.915, 990.601 753.360 C 989.832 749.037, 988.668 740.100, 988.016 733.500 C 986.831 721.511, 986.315 718.847, 981.723 701 C 980.378 695.775, 978.733 688.125, 978.066 684 C 977.400 679.875, 976.055 674.250, 975.078 671.500 C 972.587 664.491, 970.454 657.723, 967.989 649 C 966.823 644.875, 965.063 639.700, 964.077 637.500 C 962.637 634.287, 962.380 631.764, 962.771 624.679 C 963.068 619.294, 962.857 615.457, 962.228 614.828 C 961.522 614.122, 960.978 614.537, 960.495 616.149" stroke="#e23b33" fill="#e23b33" fill-opacity="0.2" fill-rule="evenodd"/><path class="svg-region-Ol" d="M 1269.500 242.489 C 1258.872 244.720, 1255.254 245.593, 1238.882 249.877 C 1228.881 252.494, 1210.701 259.658, 1207.904 262.083 C 1206.688 263.138, 1205.125 264, 1204.428 264 C 1203.732 264, 1199.876 265.575, 1195.860 267.500 C 1191.843 269.425, 1188.013 271, 1187.350 271 C 1186.686 271, 1185.548 271.580, 1184.821 272.289 C 1184.095 272.998, 1181.455 275.135, 1178.956 277.039 C 1159.787 291.641, 1143.284 309.082, 1134.700 323.814 C 1123.587 342.885, 1117.848 353.914, 1114.570 362.500 C 1109.823 374.935, 1109.662 375.403, 1109.841 376.250 C 1109.929 376.663, 1109.600 377, 1109.111 377 C 1108.623 377, 1107.946 378.477, 1107.607 380.282 C 1106.767 384.758, 1095.863 406.130, 1092.073 410.728 C 1090.383 412.778, 1089 414.821, 1089 415.268 C 1089 415.715, 1088.157 417.300, 1087.127 418.790 C 1086.098 420.281, 1083.502 424.200, 1081.360 427.500 C 1079.218 430.800, 1075.614 435.975, 1073.351 439 C 1071.089 442.025, 1068.660 446.300, 1067.954 448.500 C 1063.934 461.032, 1062.709 464.699, 1061.943 466.500 C 1061.475 467.600, 1060.565 470.525, 1059.921 473 C 1059.276 475.475, 1058.147 478.884, 1057.411 480.575 C 1056.675 482.266, 1055.608 486.991, 1055.039 491.075 C 1054.471 495.159, 1053.489 502.171, 1052.856 506.657 C 1051.510 516.212, 1052.113 529.034, 1054.307 537.500 C 1055.162 540.800, 1056.407 545.658, 1057.074 548.296 C 1057.740 550.934, 1059.841 555.659, 1061.742 558.796 C 1071.272 574.521, 1074.736 583.708, 1080.110 607.500 C 1081.352 613, 1083.431 620.200, 1084.728 623.500 C 1086.026 626.800, 1088.671 634.868, 1090.607 641.429 C 1092.542 647.990, 1095.299 655.415, 1096.734 657.929 C 1103.531 669.838, 1117.518 683.606, 1135.189 695.781 C 1147.465 704.239, 1152.856 709.089, 1160.777 718.806 C 1171.264 731.668, 1176.089 736.283, 1184.291 741.293 C 1190.304 744.966, 1210.127 752, 1214.465 752 C 1215.639 752, 1217.034 752.434, 1217.564 752.964 C 1218.959 754.359, 1232.305 757, 1237.958 757 C 1244.279 757, 1256.724 754.391, 1264.671 751.399 C 1279.418 745.849, 1307.057 730.371, 1315.205 723.101 C 1321.740 717.269, 1329.976 708.415, 1342.736 693.500 C 1349.324 685.800, 1361.367 672.975, 1369.499 665 C 1409.784 625.490, 1417.607 617.327, 1435.531 596.091 C 1444.946 584.937, 1455.364 569.079, 1463.511 553.500 C 1466.675 547.450, 1470.288 540.691, 1471.540 538.479 C 1477.077 528.698, 1488.799 497.455, 1492.961 481.388 C 1496.431 467.990, 1497.940 455.395, 1497.500 443.500 C 1497.028 430.745, 1495.800 420.561, 1494.305 417 C 1492.704 413.186, 1491.003 407.525, 1490.978 405.929 C 1490.965 405.143, 1489.625 401.800, 1488 398.500 C 1486.375 395.200, 1485.035 392.015, 1485.022 391.422 C 1484.959 388.364, 1473.198 363.104, 1464.573 347.500 C 1462.445 343.650, 1458.571 338.250, 1455.965 335.500 C 1453.358 332.750, 1450.071 328.630, 1448.660 326.345 C 1447.249 324.060, 1443.903 319.998, 1441.224 317.319 C 1437.833 313.928, 1435.920 310.968, 1434.927 307.576 C 1434.114 304.801, 1432.208 301.485, 1430.500 299.875 C 1426.861 296.445, 1416.979 290.061, 1415.253 290.026 C 1414.567 290.012, 1412.317 288.508, 1410.253 286.684 C 1405.336 282.340, 1401.707 279.865, 1394.460 275.913 C 1385.212 270.870, 1368.099 259.987, 1367.257 258.612 C 1366.375 257.172, 1352.890 248.963, 1348.500 247.193 C 1346.850 246.527, 1341.900 245.280, 1337.500 244.421 C 1311.092 239.265, 1287.986 238.609, 1269.500 242.489" stroke="#aa444d" fill="#aa444d" fill-opacity="0.2" fill-rule="evenodd"/><path class="svg-region-Or" d="M 504.508 252.731 C 499.562 252.926, 495.084 253.516, 494.558 254.042 C 494.031 254.569, 491.426 255, 488.768 255 C 486.110 255, 482.263 255.707, 480.218 256.571 C 478.173 257.435, 473.800 259.070, 470.500 260.204 C 467.200 261.338, 464.050 262.580, 463.500 262.964 C 462.950 263.348, 459.575 264.691, 456 265.948 C 452.425 267.205, 448.825 268.748, 448 269.378 C 447.175 270.007, 444.925 271.370, 443 272.405 C 441.075 273.441, 438.600 275.056, 437.500 275.994 C 435.183 277.970, 420.171 288, 419.531 288 C 419.294 288, 417.100 289.350, 414.655 291 C 412.210 292.650, 409.502 294, 408.637 294 C 407.772 294, 404.741 296.250, 401.903 299 C 399.065 301.750, 396.356 304, 395.882 304 C 395.409 304, 392.654 306.144, 389.761 308.764 C 386.867 311.384, 382.813 314.571, 380.750 315.846 C 378.688 317.120, 377 318.517, 377 318.949 C 377 319.381, 375.159 320.952, 372.909 322.441 C 367.567 325.977, 349 344.047, 349 345.711 C 349 346.420, 348.541 347, 347.980 347 C 346.480 347, 332.593 361.283, 327.850 367.703 C 322.368 375.123, 315.924 388.989, 311.446 403 C 309.425 409.325, 307.375 415.400, 306.891 416.500 C 306.408 417.600, 304.198 423.900, 301.981 430.500 C 293.469 455.837, 290.618 487.430, 294.972 508.174 C 297.888 522.068, 299.829 529.305, 302.664 536.858 C 306.537 547.173, 322.919 578.878, 326.765 583.500 C 327.223 584.050, 329.450 587.200, 331.715 590.500 C 336.236 597.087, 345.230 608.002, 357.381 621.649 C 361.716 626.517, 366.320 632.075, 367.613 634 C 376.581 647.351, 379.965 652.578, 379.981 653.101 C 380.013 654.136, 391.010 674.036, 397.332 684.500 C 404.089 695.685, 417.758 715.565, 426.641 727.126 C 440.784 745.535, 470.775 776, 474.754 776 C 475.330 776, 478.434 777.968, 481.651 780.373 C 488.474 785.474, 502.881 793.176, 508.554 794.756 C 510.724 795.360, 514.975 796.558, 518 797.419 C 526.560 799.853, 544.624 799.673, 554.500 797.054 C 563.189 794.751, 568.038 793.017, 575 789.723 C 580.576 787.086, 591.046 780.933, 592.821 779.252 C 593.548 778.563, 594.535 778, 595.015 778 C 596.240 778, 608.657 767.401, 613.753 762.004 C 616.093 759.527, 620.818 753.940, 624.253 749.589 C 636.655 733.882, 644.907 725.631, 654.143 719.703 C 658.968 716.606, 672.420 706.568, 681.154 699.546 C 684.264 697.046, 687.228 695, 687.741 695 C 688.942 695, 697.562 682.425, 699.051 678.500 C 699.678 676.850, 701.326 671.225, 702.713 666 C 705.358 656.041, 705.393 654.255, 703.689 615.500 C 703.463 610.365, 704.372 602.553, 706.713 589.500 C 707.009 587.850, 707.583 586.050, 707.988 585.500 C 708.393 584.950, 709.021 583.259, 709.383 581.743 C 709.745 580.227, 712.644 573.702, 715.825 567.243 C 719.006 560.784, 722.363 553.600, 723.285 551.278 C 724.207 548.956, 726.658 543.556, 728.731 539.278 L 732.500 531.500 732.687 514 C 732.828 500.830, 732.518 495.567, 731.437 492.730 C 730.647 490.656, 730 487.461, 730 485.629 C 730 479.839, 728.232 475.603, 716.417 453.082 C 713.987 448.452, 712 444.119, 712 443.454 C 712 442.789, 711.294 441.659, 710.430 440.942 C 709.567 440.226, 709.068 438.846, 709.322 437.877 C 709.833 435.921, 706.781 432.561, 705.571 433.748 C 705.149 434.162, 704.953 433.600, 705.135 432.500 C 705.317 431.400, 704.686 429.387, 703.733 428.027 C 702.780 426.668, 702 425.035, 702 424.400 C 702 423.765, 701.354 422.709, 700.564 422.053 C 699.775 421.398, 698.839 419.543, 698.485 417.931 C 698.131 416.319, 697.433 415, 696.934 415 C 696.435 415, 695.369 413.425, 694.564 411.500 C 693.760 409.575, 692.709 408, 692.228 408 C 691.748 408, 690.301 405.863, 689.013 403.250 C 687.725 400.637, 685.171 396.129, 683.336 393.231 C 681.501 390.332, 680 387.785, 680 387.570 C 680 387.355, 678.261 384.101, 676.135 380.340 C 670.015 369.507, 664 357.675, 664 356.466 C 664 354.308, 652.594 332.392, 647.624 325 C 638.283 311.108, 620.148 290.244, 609.933 281.636 C 604.516 277.071, 585.184 266.403, 577 263.462 C 555.342 255.679, 528.935 251.770, 504.508 252.731" stroke="#aa444d" fill="#aa444d" fill-opacity="0.2" fill-rule="evenodd"/><path class="svg-region-BPCl" d="M 944.667 464.667 C 944.300 465.033, 944 465.947, 944 466.697 C 944 468.079, 953.283 479.525, 957.538 483.391 C 958.815 484.551, 961.042 487.822, 962.487 490.659 C 964.734 495.072, 965.170 497.386, 965.496 506.659 C 965.706 512.622, 966.344 519.526, 966.914 522 C 967.485 524.475, 967.981 528.750, 968.017 531.500 C 968.055 534.341, 968.889 538.011, 969.948 540 L 971.813 543.500 973.014 540.500 C 973.675 538.850, 974.675 536.625, 975.238 535.555 C 975.801 534.485, 976.568 528.410, 976.944 522.055 C 977.404 514.272, 978.177 509.455, 979.313 507.300 C 980.432 505.178, 981 501.733, 981 497.076 C 981 491.086, 980.485 488.995, 977.500 482.861 C 975.575 478.906, 974 475.101, 974 474.407 C 974 472.358, 968.960 469, 965.885 469 C 964.321 469, 961.344 468.389, 959.270 467.643 C 949.063 463.970, 945.990 463.344, 944.667 464.667 M 910.667 605.667 C 908.853 607.480, 910.817 616.139, 914.666 623.299 C 915.494 624.839, 916.485 629.381, 916.868 633.393 C 917.532 640.347, 919.844 646, 922.023 646 C 922.560 646, 923 647.783, 923 649.961 C 923 653.192, 923.692 654.629, 926.750 657.750 C 928.813 659.855, 930.968 662.410, 931.540 663.429 C 932.451 665.053, 932.845 665.114, 934.744 663.928 C 937.748 662.051, 938.523 663.312, 937.160 667.860 C 934.869 675.507, 935.828 680.699, 940.057 683.532 C 941.672 684.614, 942.996 686.150, 942.997 686.945 C 942.999 687.740, 944.100 689.540, 945.445 690.945 C 946.790 692.350, 948.478 695.296, 949.196 697.490 C 950.618 701.833, 952.366 702.648, 960.750 702.882 L 965 703 965.022 698.750 C 965.041 694.946, 965.382 694.342, 968.272 693 C 971.298 691.594, 971.519 691.138, 971.801 685.726 C 972.023 681.451, 971.586 678.985, 970.118 676.226 C 969.026 674.177, 967.598 670.700, 966.942 668.500 C 964.976 661.900, 960.972 655.601, 956.868 652.651 C 954.152 650.699, 953 649.126, 953 647.373 C 953 644.329, 950.340 636.060, 948.697 633.998 C 948.039 633.172, 943.900 630.031, 939.500 627.019 C 928.998 619.830, 927.584 618.657, 920.499 611.263 C 914.943 605.464, 912.347 603.987, 910.667 605.667" stroke="#83385f" fill="#83385f" fill-opacity="0.2" fill-rule="evenodd"/><path class="svg-region-BPCr" d="M 835 466.500 C 833.625 467.286, 831.448 467.945, 830.162 467.965 C 826.759 468.016, 815.298 473.562, 814.206 475.685 C 813.693 476.683, 813.006 480.840, 812.680 484.922 C 812.206 490.857, 812.388 492.563, 813.586 493.439 C 814.447 494.069, 815.488 497.381, 816.032 501.221 C 816.552 504.898, 817.603 509.615, 818.367 511.703 C 819.131 513.791, 820.575 518.074, 821.575 521.220 C 822.575 524.366, 823.627 526.706, 823.912 526.421 C 825.284 525.050, 827.147 515.453, 827.887 505.939 C 828.900 492.935, 832.649 480.882, 837.310 475.643 C 839.092 473.639, 841.300 472, 842.216 472 C 844.983 472, 845.098 470.398, 842.529 467.626 C 839.773 464.652, 838.552 464.469, 835 466.500 M 868.955 608.137 C 865.286 611.593, 860.912 614.386, 855.596 616.669 C 844.358 621.495, 841.002 624.739, 838.269 633.416 C 837.042 637.312, 836.029 641.087, 836.019 641.805 C 836.009 642.523, 835.012 645.223, 833.804 647.805 C 831.580 652.561, 830.196 664.659, 831.350 669.257 C 831.662 670.502, 833.286 672.329, 834.959 673.317 C 836.941 674.488, 838 675.912, 838 677.407 C 838 678.669, 838.494 681.119, 839.098 682.851 C 840.168 685.920, 840.350 686, 846.314 686 C 854.078 686, 860.103 683.759, 861.750 680.258 C 863.448 676.648, 863.333 675.612, 861 673.500 C 857.104 669.975, 859.373 669.195, 866.750 671.523 C 870.167 672.601, 869.519 670.189, 865.016 665.060 C 862.872 662.617, 861.343 660.255, 861.618 659.810 C 861.893 659.364, 863.859 659, 865.988 659 C 870.789 659, 872.272 657.561, 876.041 649.249 C 878.355 644.146, 879.003 641.282, 879.013 636.112 C 879.020 632.239, 879.880 626.807, 881.087 623 C 883.193 616.357, 883.120 608.961, 880.907 604.827 C 879.079 601.410, 874.856 602.580, 868.955 608.137" stroke="#83385f" fill="#83385f" fill-opacity="0.2" fill-rule="evenodd"/><path class="svg-region-AMC" d="M 842 415.772 C 842 419.357, 842.327 419.877, 845.250 420.950 C 859.845 426.308, 860.419 426.954, 859.437 436.922 C 858.598 445.436, 854.175 453.906, 848.300 458.251 C 838.715 465.339, 839.443 464.160, 842.498 467.641 L 845.189 470.707 855.344 466.727 C 860.930 464.538, 866.388 462.129, 867.473 461.373 C 868.557 460.618, 870.591 460, 871.993 460 C 873.394 460, 877.906 459.029, 882.020 457.843 C 893.887 454.421, 920.679 455.346, 924.648 459.315 C 925.025 459.692, 926.112 460, 927.064 460 C 929.130 460, 940.615 465.568, 941.499 466.998 C 942.633 468.834, 944 468.031, 944 465.530 C 944 463.952, 942.930 462.269, 941.038 460.870 C 939.409 459.666, 937.328 457.065, 936.413 455.090 C 935.499 453.116, 933.635 450.006, 932.271 448.180 C 925.989 439.768, 929.484 427.534, 939.426 423.136 C 945.935 420.257, 946.349 418.637, 940.378 419.410 C 923.989 421.533, 919.520 421.333, 909.029 418.009 C 900.737 415.382, 897.944 414.919, 893.228 415.392 C 890.078 415.708, 880.300 416.245, 871.500 416.585 C 854.802 417.231, 855.053 417.267, 843.750 412.521 C 842.253 411.892, 842 412.363, 842 415.772" stroke="#9d4741" fill="#9d4741" fill-opacity="0.2" fill-rule="evenodd"/>
    </svg>