<svg xmlns="http://www.w3.org/2000/svg" width="1785" height="1131" viewBox="0 0 1785 1131" version="1.1">
    <path class="svg-region-B" d="M 858.815 713.902 C 856.298 715.498, 853.942 717.285, 853.579 717.872 C 853.216 718.459, 852.500 722.616, 851.987 727.110 C 851.475 731.604, 850.413 736.005, 849.627 736.891 C 847.542 739.240, 846.012 745.689, 846.006 752.155 L 846 757.810 850.636 760.527 C 856.980 764.245, 863.859 763.528, 871.686 758.333 C 878.101 754.075, 879.137 752.638, 882.020 744.001 C 885.213 734.434, 884.558 724.134, 880.375 718.128 C 875.204 710.703, 866.539 709.004, 858.815 713.902 M 925.636 717.462 C 924.175 718.816, 922.534 721.095, 921.990 722.527 C 920.423 726.647, 920.791 735.242, 922.652 738.027 C 924.875 741.352, 935.768 751.745, 939.500 754.099 C 943.362 756.536, 945.108 756.489, 948.454 753.857 C 950.928 751.911, 951.122 751.291, 950.558 747.107 C 950.217 744.573, 949.614 738.900, 949.219 734.500 C 948.614 727.772, 947.987 725.762, 945.275 721.857 C 940.289 714.676, 930.907 712.577, 925.636 717.462" stroke="#e23b33" fill="#e23b33" fill-opacity="0.2" fill-rule="evenodd"/><path class="svg-region-Or" d="M 466.500 353.081 C 461.550 353.531, 451.875 354.840, 445 355.990 C 438.125 357.139, 431.600 358.221, 430.500 358.394 C 418.237 360.323, 384.001 370.424, 380.564 373.129 C 379.255 374.158, 377.684 375, 377.072 375 C 374.862 375, 367.667 380.283, 361.328 386.560 C 354.687 393.135, 350.513 395.470, 318.736 410.376 C 313.365 412.896, 306.390 416.606, 303.236 418.620 C 274.831 436.763, 258.689 468.508, 253.973 515.500 C 252.749 527.693, 253.759 552.719, 256.010 566 C 256.523 569.025, 257.856 577.194, 258.972 584.153 C 263.652 613.332, 278.831 667.384, 287.919 687.228 C 289.613 690.928, 291 694.641, 291 695.478 C 291 696.315, 291.856 697.856, 292.901 698.901 C 293.947 699.947, 295.138 701.859, 295.547 703.151 C 295.957 704.443, 297.351 707.179, 298.646 709.230 C 299.941 711.282, 301 713.644, 301 714.480 C 301 715.316, 301.367 716, 301.815 716 C 302.263 716, 303.434 717.688, 304.417 719.750 C 306.461 724.040, 319.029 742.612, 325.882 751.469 C 336.234 764.851, 353.819 780.061, 365.775 785.976 C 391.568 798.737, 424.114 797.075, 455 781.421 C 476.467 770.541, 497.162 755.071, 515.150 736.455 C 530.151 720.932, 538.874 709.079, 546.912 693.298 C 552.586 682.158, 559.251 673.921, 564.887 671.080 C 566.874 670.078, 573.785 667.412, 580.244 665.154 C 600.182 658.187, 614.077 649.884, 626.526 637.500 C 635.029 629.042, 636.628 625.229, 641.623 601.500 C 642.434 597.650, 643.614 592.761, 644.246 590.635 C 644.879 588.509, 645.391 581.309, 645.386 574.635 C 645.378 565.018, 644.825 560.170, 642.722 551.267 C 638.989 535.465, 633.295 519.071, 626.473 504.480 C 624.668 500.619, 622.664 494.544, 622.021 490.980 C 621.377 487.416, 620.379 483.375, 619.803 482 C 619.227 480.625, 617.740 475.450, 616.498 470.500 C 614.339 461.892, 608.864 444.718, 606.934 440.500 C 606.431 439.400, 604.863 435.350, 603.450 431.500 C 595.730 410.460, 578.514 382.951, 567.023 373.292 C 557.961 365.675, 544.063 359.202, 531.135 356.577 C 515.592 353.422, 482.459 351.630, 466.500 353.081" stroke="#aa444d" fill="#aa444d" fill-opacity="0.2" fill-rule="evenodd"/>
    </svg>