<svg xmlns="http://www.w3.org/2000/svg" width="1078" height="1151" viewBox="0 0 1078 1151" version="1.1">
    <path class="svg-region-V" d="M 459.500 272.069 C 455.756 274.099, 443.507 281.227, 439.874 283.488 C 438.980 284.045, 435.830 286.411, 432.874 288.746 C 429.918 291.081, 424.261 295.495, 420.302 298.555 C 413.681 303.673, 413.050 304.483, 412.420 308.683 C 412.044 311.193, 412.015 316.250, 412.356 319.919 C 412.830 325.020, 412.508 328.227, 410.988 333.542 C 407.747 344.873, 408.688 355.258, 413.900 365.698 C 416.397 370.698, 420.601 374.095, 427.787 376.921 C 436.109 380.193, 451.893 379.805, 462.500 376.068 C 478.557 370.411, 483.019 368.349, 489.694 363.497 C 493.437 360.776, 498.975 357.242, 502 355.645 C 509.926 351.459, 515.594 346.555, 518.711 341.188 C 520.208 338.609, 521.997 335.919, 522.686 335.209 C 524.721 333.113, 528.138 320.245, 528.691 312.594 C 529.257 304.757, 526.886 288.774, 524.781 286.235 C 522.870 283.931, 517.571 282, 513.158 282 C 508.343 282, 503.012 280.163, 492 274.709 C 483.964 270.730, 482.954 270.484, 473.500 270.199 C 464.786 269.937, 462.986 270.178, 459.500 272.069" stroke="#dd8a8a" fill="#dd8a8a" fill-opacity="0.2" fill-rule="evenodd"/><path class="svg-region-DB" d="M 477.500 411.719 C 476.400 411.987, 474.794 412.831, 473.930 413.595 C 471.632 415.629, 462.354 418.607, 455.766 419.427 C 452.612 419.819, 449.804 420.509, 449.525 420.959 C 449.247 421.410, 447.777 422.088, 446.259 422.466 C 444.742 422.844, 441.135 424.935, 438.244 427.113 C 434.246 430.126, 432.132 432.773, 429.413 438.172 L 425.839 445.270 426.169 457.025 C 426.534 469.992, 426.891 470.724, 434.750 474.618 C 438.258 476.356, 438.557 477.091, 436.965 480.066 C 436.307 481.295, 434.873 482, 433.033 482 C 428.432 482, 426 486.301, 426 494.436 C 426 498.865, 426.414 501.190, 427.250 501.448 C 427.938 501.660, 429.735 502.103, 431.245 502.434 C 434.970 503.250, 440 513.021, 440 519.442 C 440 523.510, 439.330 524.781, 433 532.711 C 426.515 540.836, 426 541.836, 426 546.301 C 426 550.227, 426.641 551.989, 429.458 555.810 C 431.360 558.389, 433.701 561.175, 434.660 562 C 435.618 562.825, 438.761 565.990, 441.644 569.034 C 444.527 572.077, 448.669 575.570, 450.849 576.795 L 454.813 579.023 454.307 575.252 C 453.833 571.717, 454.116 571.216, 458.830 567.240 C 462.790 563.901, 464.656 563, 467.609 563 C 471.339 563, 483 558.230, 483 556.704 C 483 556.264, 484.688 553.369, 486.750 550.270 C 493.378 540.311, 493.711 539.536, 494.392 532.463 C 495.501 520.940, 496.059 518.317, 497.818 516.360 C 498.743 515.331, 500.599 512.466, 501.942 509.994 C 503.285 507.522, 505.876 504.041, 507.701 502.258 C 511.696 498.356, 514.991 493.151, 514.996 490.736 C 514.998 489.766, 515.450 488.079, 516 486.986 C 516.550 485.894, 517.450 484.106, 518 483.014 C 520.403 478.240, 518.445 474.541, 509.500 466.956 C 507.850 465.557, 504.942 462.407, 503.037 459.956 C 501.132 457.505, 499.220 455.350, 498.787 455.167 C 498.354 454.983, 498 451.072, 498 446.476 C 498 441.879, 497.627 437.887, 497.171 437.606 C 496.715 437.324, 495.766 434.485, 495.063 431.297 C 492.978 421.845, 492.289 420.227, 488.342 415.505 C 484.566 410.987, 482.897 410.404, 477.500 411.719" stroke="#e8b1e4" fill="#e8b1e4" fill-opacity="0.2" fill-rule="evenodd"/><path class="svg-region-DMl" d="M 476 560.526 C 473.525 561.841, 469.762 562.936, 467.639 562.959 C 464.616 562.991, 462.716 563.889, 458.889 567.093 C 451.898 572.946, 452.085 575.595, 460.004 582.935 C 463.307 585.996, 466.007 589.084, 466.004 589.798 C 466.002 590.511, 468.137 593.230, 470.750 595.839 C 474.641 599.724, 477.164 601.162, 484.700 603.791 C 489.760 605.556, 495.745 607, 498 607 C 503.120 607, 508 604.583, 508 602.047 C 508 601.001, 509.125 599.260, 510.500 598.179 C 513.959 595.458, 513.779 591.255, 510 586.500 C 506.450 582.033, 506.396 581.584, 509 578.273 C 510.242 576.694, 511 574.216, 511 571.734 C 511 568.348, 510.332 567.069, 506.632 563.368 C 503.147 559.884, 501.559 559, 498.782 559 C 496.868 559, 491.971 558.805, 487.901 558.567 C 481.514 558.194, 479.883 558.463, 476 560.526" stroke="#68533d" fill="#68533d" fill-opacity="0.2" fill-rule="evenodd"/><path class="svg-region-Ol" d="M 686 190.974 C 680.566 193.968, 673.931 196.981, 669.036 198.677 C 663.227 200.691, 659.338 203.621, 649 213.773 C 643.534 219.141, 638.064 223.406, 633.677 225.723 C 629.917 227.708, 624.453 231.784, 621.506 234.802 C 618.564 237.815, 614.166 241.454, 611.731 242.890 C 609.297 244.325, 603.642 248.912, 599.166 253.083 C 592.210 259.563, 590.407 261.963, 586.763 269.583 L 582.500 278.500 582.500 294.500 C 582.500 305.502, 583.039 313.311, 584.225 319.500 C 585.173 324.450, 586.869 334.350, 587.994 341.500 C 590.222 355.658, 592.406 368.372, 594.101 377.038 C 596.098 387.255, 593.900 425.867, 591.271 426.743 C 590.677 426.941, 589.599 429.105, 588.877 431.552 C 588.154 433.998, 587.212 436, 586.782 436 C 585.624 436, 585.832 450.778, 587 451.500 C 587.550 451.840, 588.003 453.554, 588.006 455.309 C 588.010 457.064, 588.753 459.850, 589.659 461.500 C 590.565 463.150, 592.060 465.905, 592.980 467.623 C 593.901 469.340, 595.632 471.988, 596.827 473.508 C 598.022 475.027, 599 477.019, 599 477.935 C 599 478.851, 599.408 480.028, 599.906 480.550 C 600.935 481.627, 603 494.138, 603 499.288 C 603 501.161, 603.680 504.056, 604.511 505.721 C 607.434 511.582, 608.251 519.991, 607.645 538 C 607.050 555.664, 605.794 565.221, 603.985 565.833 C 603.443 566.017, 603 567.730, 603 569.641 C 603 573.439, 601.149 581.909, 599.971 583.500 C 599.564 584.050, 598.898 586.075, 598.491 588 C 598.084 589.925, 597.015 592.625, 596.115 594 C 595.215 595.375, 593.133 599.200, 591.489 602.500 C 589.845 605.800, 588.166 608.649, 587.759 608.830 C 587.351 609.012, 586.288 610.698, 585.397 612.576 C 583.012 617.601, 572.680 626.680, 565.907 629.702 C 562.658 631.152, 560 632.712, 560 633.169 C 560 634.359, 548.242 634.200, 547.500 633 C 547.160 632.450, 543.591 632, 539.568 632 C 534.540 632, 530.886 631.400, 527.877 630.079 C 525.470 629.022, 521.777 627.841, 519.670 627.453 C 517.564 627.065, 515.603 626.129, 515.313 625.374 C 514.402 623, 511.186 623.876, 509.341 627 C 507.615 629.923, 507.369 630, 499.824 630 C 488.534 630, 472.182 631.888, 467 633.791 C 464.525 634.699, 459.800 636.924, 456.500 638.734 C 453.200 640.544, 446.369 644.042, 441.320 646.506 C 432.866 650.633, 431.356 651.851, 422.213 661.912 C 416.753 667.920, 411.031 675.011, 409.496 677.668 C 407.962 680.326, 405.243 684.525, 403.454 687 C 400.117 691.616, 399.599 692.994, 393.534 713.377 C 390.004 725.241, 390 725.275, 390 745.196 L 390 765.140 394.927 785.820 C 397.637 797.194, 400.616 809.862, 401.547 813.970 C 403.551 822.815, 419.522 854.912, 428.183 867.500 C 435.889 878.701, 458.069 897.942, 472.673 906.097 L 483.245 911.999 507.498 916 C 529.314 919.598, 533.497 919.998, 549.126 919.976 C 558.682 919.963, 568.300 919.509, 570.500 918.968 C 572.700 918.426, 582.375 917.743, 592 917.449 C 601.625 917.155, 614.225 916.242, 620 915.422 C 627.451 914.363, 637.033 914.013, 653 914.215 C 673.424 914.474, 676.515 914.284, 686.500 912.164 C 692.550 910.880, 699.750 908.917, 702.500 907.803 C 716.381 902.180, 731.029 896.059, 735.460 894.030 C 742.842 890.650, 767.704 871.340, 772.167 865.520 C 774.284 862.759, 776.519 859.897, 777.132 859.159 C 777.746 858.422, 780.975 854.372, 784.308 850.159 C 787.641 845.947, 791.137 841.946, 792.077 841.268 C 794.780 839.320, 812.137 822.901, 828.626 806.697 C 839.917 795.599, 845.464 789.254, 850.509 781.665 C 854.226 776.074, 858.486 769.700, 859.975 767.500 C 866.043 758.538, 870.194 750.355, 873.019 741.782 C 874.658 736.806, 876 732.331, 876 731.838 C 876 731.344, 878.516 725.845, 881.592 719.617 C 885.546 711.610, 887.389 706.566, 887.885 702.397 C 888.358 698.417, 889.829 694.224, 892.409 689.500 C 898.480 678.385, 899.639 675.809, 900.906 670.616 C 901.561 667.929, 903.059 663.879, 904.236 661.616 C 905.413 659.352, 907.356 654.800, 908.555 651.500 C 912.937 639.437, 914.952 634.710, 916.391 633.121 C 918.328 630.981, 923.380 619.647, 926.644 610.119 C 928.080 605.929, 930.263 600.700, 931.496 598.500 C 932.729 596.300, 934.672 591.575, 935.814 588 C 936.955 584.425, 940.357 574.075, 943.373 565 C 948.984 548.116, 950.072 543.326, 954.612 515.500 C 958.386 492.370, 958.628 484.309, 956.096 466 C 953.922 450.281, 951.496 438.950, 945.282 415.500 C 942.263 404.109, 940.160 399.158, 928.288 375.500 C 920.836 360.650, 912.854 346.025, 910.550 343 C 908.246 339.975, 905.042 335.759, 903.431 333.630 C 901.819 331.502, 899.375 328.302, 898 326.519 C 896.625 324.737, 892.479 319.238, 888.787 314.299 C 882.067 305.310, 852.921 276.030, 838.930 264.213 C 834.844 260.762, 829.566 256.264, 827.203 254.219 C 824.840 252.173, 822.249 249.998, 821.446 249.384 C 820.642 248.771, 818.076 246.672, 815.743 244.720 C 796.512 228.635, 791.390 224.603, 783.500 219.338 C 778.550 216.034, 769.706 210.135, 763.847 206.229 C 757.543 202.026, 751.624 198.848, 749.347 198.443 C 747.231 198.067, 740.325 196.427, 734 194.800 C 723.893 192.200, 701.092 189.037, 692.500 189.044 C 690.850 189.045, 687.925 189.914, 686 190.974" stroke="#aa444d" fill="#aa444d" fill-opacity="0.2" fill-rule="evenodd"/><path class="svg-region-DLl" d="M 527 442.173 C 524.525 442.698, 516.987 442.921, 510.250 442.669 L 498 442.211 498 448.147 C 498 452.835, 498.446 454.548, 500.120 456.292 C 501.287 457.506, 502.974 459.659, 503.870 461.075 C 504.767 462.491, 507.139 465.083, 509.143 466.834 C 513.480 470.626, 514.904 470.337, 520.308 464.566 C 525.208 459.335, 528 453.616, 528 448.812 C 528 445.773, 528.374 445, 529.845 445 C 530.860 445, 532.505 444.100, 533.500 443 C 535.250 441.066, 535.247 441.004, 533.405 441.110 C 532.357 441.170, 529.475 441.648, 527 442.173" stroke="#b7d6d3" fill="#b7d6d3" fill-opacity="0.2" fill-rule="evenodd"/><path class="svg-region-OABl" d="M 561.352 582.065 C 558.133 583.751, 554.129 586.451, 552.452 588.065 C 550.687 589.766, 548.320 591, 546.825 591 C 545.406 591, 543.685 591.675, 543 592.500 C 541.150 594.729, 534.691 594.421, 532.500 592 C 529.479 588.662, 524.254 589.382, 516.160 594.250 C 511.178 597.246, 508.781 599.366, 508.034 601.437 C 506.756 604.978, 507.115 605.345, 513.500 607.007 C 516.250 607.723, 518.790 608.461, 519.145 608.648 C 519.956 609.076, 516.416 616.125, 514.929 617.044 C 514.184 617.504, 514.102 619.112, 514.676 622.013 C 515.509 626.226, 515.630 626.332, 521.512 627.960 C 524.805 628.872, 528.483 630.154, 529.684 630.809 C 530.886 631.464, 535.273 632, 539.434 632 C 543.811 632, 547 632.421, 547 633 C 547 634.175, 559.672 634.381, 560.167 633.213 C 560.350 632.781, 563.109 631.162, 566.298 629.616 C 573.182 626.279, 583.108 617.400, 585.435 612.496 C 586.347 610.573, 587.502 609, 588.002 609 C 589.349 609, 590.296 602.626, 589.492 598.966 C 588.741 595.544, 582.574 588, 580.529 588 C 579.848 588, 577.207 585.975, 574.660 583.500 C 572.114 581.025, 569.394 579, 568.617 579 C 567.839 579, 564.570 580.379, 561.352 582.065" stroke="#81244d" fill="#81244d" fill-opacity="0.2" fill-rule="evenodd"/><path class="svg-region-OVl" d="M 559 419.089 C 556.525 421.777, 553.658 425.576, 552.629 427.533 C 551.600 429.489, 549.650 431.857, 548.296 432.795 C 546.942 433.733, 544.350 435.738, 542.535 437.250 C 540.721 438.762, 538.460 440, 537.512 440 C 536.564 440, 534.903 441.125, 533.821 442.500 C 532.740 443.875, 530.988 445, 529.927 445 C 528.400 445, 528 445.710, 528 448.417 C 528 450.296, 527.126 453.784, 526.057 456.167 C 524.020 460.709, 516.926 469, 515.078 469 C 513.544 469, 513.745 470.602, 515.500 472.357 C 516.325 473.182, 517 474.339, 517 474.929 C 517 475.518, 517.450 476, 518 476 C 518.550 476, 519 477.131, 519 478.514 C 519 479.896, 518.550 481.921, 518 483.014 C 517.450 484.106, 516.550 485.894, 516 486.986 C 515.450 488.079, 514.984 489.766, 514.965 490.736 C 514.913 493.287, 512.834 496.680, 508.118 501.907 C 505.839 504.433, 502.112 509.359, 499.835 512.854 C 495.981 518.770, 495.629 519.904, 494.730 529.336 C 493.782 539.269, 493.661 539.620, 488.382 547.636 C 485.422 552.131, 483 556.239, 483 556.765 C 483 557.802, 490.856 558.977, 497.882 558.991 C 501.716 558.999, 502.808 559.545, 506.632 563.368 C 511.979 568.716, 512.510 573.052, 508.413 577.921 L 505.826 580.995 509.413 585.882 C 511.386 588.569, 513 591.937, 513 593.367 L 513 595.966 516.750 593.889 C 518.813 592.746, 520.928 591.404, 521.450 590.906 C 523.284 589.157, 530.581 589.879, 532.500 592 C 534.691 594.421, 541.150 594.729, 543 592.500 C 543.685 591.675, 545.461 591, 546.948 591 C 548.555 591, 550.626 589.963, 552.054 588.443 C 554.859 585.457, 563.322 580.446, 567.184 579.484 C 569.462 578.917, 570.565 579.513, 574.461 583.408 C 576.986 585.934, 579.490 588, 580.025 588 C 582.357 588, 588.863 595.751, 589.534 599.329 C 590.091 602.299, 590.505 602.826, 591.577 601.936 C 592.317 601.322, 593.224 599.848, 593.592 598.660 C 593.961 597.472, 595.047 595.375, 596.007 594 C 596.966 592.625, 598.084 589.925, 598.491 588 C 598.898 586.075, 599.564 584.050, 599.971 583.500 C 601.022 582.081, 603 573.604, 603 570.522 C 603 569.096, 603.636 566.933, 604.414 565.715 C 609.204 558.211, 608.658 504, 603.793 504 C 603.357 504, 602.997 502.087, 602.992 499.750 C 602.983 494.588, 601.283 483.249, 600.106 480.500 C 597.694 474.870, 596.688 472.985, 592.894 467 C 590.580 463.349, 588.546 458.747, 588.252 456.500 C 587.965 454.300, 587.310 451.967, 586.798 451.317 C 586.285 450.666, 585.962 446.823, 586.080 442.777 C 586.279 435.960, 586.091 435.205, 583.508 432.461 C 581.976 430.832, 579.863 427.587, 578.814 425.250 C 577.765 422.913, 576.477 421, 575.953 421 C 575.429 421, 575 420.489, 575 419.865 C 575 417.517, 569.933 413.999, 566.698 414.101 C 564.217 414.180, 562.492 415.298, 559 419.089" stroke="#593939" fill="#593939" fill-opacity="0.2" fill-rule="evenodd"/>
    </svg>