<svg xmlns="http://www.w3.org/2000/svg" width="1078" height="1151" viewBox="0 0 1078 1151" version="1.1">
    <path class="svg-region-V" d="M 479 245.371 C 477.075 246.114, 473.700 247.195, 471.500 247.771 C 464.998 249.476, 459.583 251.708, 454.082 254.952 C 451.238 256.628, 447.755 258, 446.341 258 C 443.041 258, 427.348 264.953, 421.783 268.882 C 419.427 270.545, 414.447 274.757, 410.715 278.242 C 401.707 286.655, 400.926 289.339, 400.026 315 C 399.494 330.152, 398.944 335.503, 397.557 339 C 395.206 344.927, 394.224 364.071, 395.988 369.584 C 397.696 374.923, 403.398 383.435, 406.970 385.979 C 408.587 387.130, 414.747 390.365, 420.659 393.167 C 430.101 397.644, 432.570 398.377, 440.954 399.200 C 460.173 401.086, 466.796 401.186, 470.236 399.644 C 472.031 398.839, 477.200 397.740, 481.722 397.202 C 492.708 395.894, 498.142 392.808, 499.922 386.865 C 501.695 380.947, 505.006 376.954, 514.798 368.926 C 520.817 363.992, 524.057 362, 526.067 362 C 528.158 362, 529.741 360.947, 532.194 357.924 C 534.012 355.682, 537.419 351.539, 539.764 348.717 C 542.468 345.463, 544.593 341.559, 545.572 338.043 C 546.421 334.994, 547.957 329.800, 548.986 326.500 C 550.014 323.200, 550.827 318.677, 550.792 316.449 C 550.756 314.221, 551.400 311.114, 552.223 309.545 C 553.358 307.378, 553.480 305.915, 552.728 303.466 C 551.963 300.974, 552.166 298.905, 553.617 294.370 C 557.371 282.642, 555.245 274.699, 545.548 264.225 C 542.378 260.801, 539.440 258, 539.019 258 C 538.598 258, 534.884 255.975, 530.766 253.500 C 526.649 251.025, 522.784 249, 522.179 249 C 521.573 249, 520.135 247.988, 518.984 246.750 C 516.988 244.606, 516.082 244.489, 499.695 244.259 C 487.143 244.084, 481.555 244.384, 479 245.371" stroke="#dd8a8a" fill="#dd8a8a" fill-opacity="0.2" fill-rule="evenodd"/><path class="svg-region-DB" d="M 463.500 421.536 C 461.850 422.292, 458.445 422.930, 455.932 422.955 C 450.254 423.011, 437.212 426.360, 435.326 428.246 C 434.554 429.018, 433.442 432.766, 432.856 436.575 C 432.270 440.384, 431.396 443.986, 430.914 444.579 C 430.433 445.172, 430.095 452.147, 430.164 460.079 C 430.280 473.380, 430.113 474.811, 428.010 478.500 C 426.135 481.791, 425.642 484.476, 425.231 493.645 C 424.955 499.774, 425 505.865, 425.330 507.181 C 425.661 508.496, 428.739 512.398, 432.172 515.852 C 438.345 522.063, 438.418 522.203, 438.822 528.541 C 439.425 538.012, 438.763 539.695, 434.124 540.479 C 429.552 541.251, 424 546.182, 424 549.469 C 424 550.697, 424.530 553.231, 425.177 555.101 C 426.523 558.988, 434.270 571.431, 436.017 572.510 C 436.688 572.926, 438.728 571.751, 440.840 569.733 C 445.716 565.075, 448.037 564, 453.220 564 C 455.613 564, 462.696 563.064, 468.961 561.920 C 477.526 560.355, 480.928 560.102, 482.676 560.898 C 484.421 561.693, 485.005 561.651, 485.021 560.729 C 485.033 560.053, 486.833 558.233, 489.021 556.685 C 491.277 555.089, 493 553.047, 493 551.969 C 493 550.923, 493.651 548.590, 494.448 546.784 C 495.244 544.978, 496.171 541.368, 496.507 538.762 C 496.844 536.156, 497.655 533.456, 498.309 532.762 C 499.737 531.249, 501.479 527.628, 502.812 523.405 C 503.866 520.062, 503.157 514.853, 500.782 508.500 C 497.999 501.055, 497 497.368, 497 494.539 C 497 490.482, 493.143 483.347, 489.413 480.501 C 485.945 477.856, 483 470.920, 483 465.399 C 483 462.069, 487.088 456.004, 489.339 455.995 C 489.978 455.993, 491.938 454.643, 493.696 452.995 C 495.453 451.348, 497.278 450, 497.750 450 C 498.223 450, 500.272 448.477, 502.305 446.615 C 505.499 443.689, 506 442.630, 506 438.802 C 506 435.256, 505.441 433.839, 503.195 431.687 C 501.653 430.209, 499.676 429, 498.802 429 C 497.929 429, 496.984 428.401, 496.703 427.669 C 495.987 425.803, 485.855 422.360, 477.308 421.079 C 468.511 419.759, 467.292 419.800, 463.500 421.536" stroke="#e8b1e4" fill="#e8b1e4" fill-opacity="0.2" fill-rule="evenodd"/><path class="svg-region-DMl" d="M 468 562.050 C 462.775 563.067, 456.340 563.922, 453.700 563.950 C 451.061 563.977, 447.652 564.646, 446.125 565.435 C 442.820 567.144, 436 574.464, 436 576.301 C 436 577.694, 448.557 589.541, 456.110 595.274 C 458.645 597.198, 464.600 601.108, 469.343 603.963 C 476.446 608.238, 479.686 609.504, 487.716 611.145 C 493.079 612.240, 497.746 613.589, 498.088 614.142 C 498.430 614.696, 500.232 615.002, 502.093 614.824 C 505.140 614.532, 505.536 614.131, 506.073 610.802 C 506.400 608.769, 507.233 606.424, 507.924 605.592 C 508.814 604.519, 509.080 600.853, 508.840 592.993 L 508.500 581.906 500.451 574.203 C 491.936 566.055, 482.844 559.933, 479.506 560.101 C 478.403 560.156, 473.225 561.034, 468 562.050" stroke="#68533d" fill="#68533d" fill-opacity="0.2" fill-rule="evenodd"/><path class="svg-region-Ol" d="M 723 208.008 C 714.571 208.583, 712.120 209.240, 701.258 213.828 C 694.525 216.673, 688.774 219, 688.477 219 C 688.180 219, 682.214 223.235, 675.219 228.411 C 662.909 237.519, 658.714 240.539, 646.954 248.759 C 643.904 250.891, 638.577 253.505, 635.116 254.568 C 628.417 256.625, 627.289 257.667, 611.591 276.302 L 605.861 283.103 602.355 301.802 C 597.453 327.940, 597.506 326.807, 600.304 345.572 C 601.692 354.883, 603.368 369.250, 604.029 377.500 C 604.689 385.750, 605.588 394.509, 606.025 396.964 C 606.548 399.894, 606.325 404.018, 605.376 408.964 C 604.581 413.109, 603.493 419.568, 602.959 423.318 C 602.425 427.068, 601.120 432.042, 600.059 434.371 C 598.998 436.699, 597.349 442.406, 596.395 447.052 C 594.791 454.863, 594.782 455.764, 596.271 459 C 597.158 460.925, 598.186 465.088, 598.557 468.250 C 598.927 471.413, 599.611 474, 600.075 474 C 600.540 474, 601.478 475.913, 602.161 478.250 C 602.844 480.587, 603.869 482.818, 604.439 483.206 C 605.036 483.613, 605.731 490.618, 606.075 499.706 C 606.405 508.393, 607.226 516.916, 607.899 518.646 C 608.767 520.876, 609.005 527.284, 608.719 540.646 C 608.328 558.865, 607.495 564.807, 604.396 571.500 C 603.632 573.150, 602.711 576.075, 602.349 578 C 601.986 579.925, 600.860 582.573, 599.845 583.885 C 598.830 585.197, 598 586.858, 598 587.578 C 598 588.297, 597.143 590.374, 596.095 592.193 C 595.047 594.012, 593.889 597.372, 593.522 599.661 C 593.155 601.949, 591.987 604.607, 590.927 605.566 C 589.867 606.525, 589 607.899, 589 608.620 C 589 609.340, 588.100 610.411, 587 611 C 585.900 611.589, 585 612.546, 585 613.126 C 585 615.864, 577.679 622.756, 565.574 631.414 C 560.313 635.177, 552.041 636.921, 539.250 636.965 C 533.612 636.984, 529 637.373, 529 637.830 C 529 638.553, 517.443 641.323, 492.465 646.587 C 488.596 647.402, 480.180 648.497, 473.765 649.020 L 462.099 649.971 443.659 659.055 C 425.865 667.821, 424.942 668.425, 417.304 676.319 L 409.388 684.500 404.775 704 C 401.702 716.989, 399.760 728.007, 398.957 737 C 398.295 744.425, 397.423 753.425, 397.020 757 C 396.285 763.516, 396.771 767.411, 402.065 797.500 C 403.130 803.550, 405.313 811.875, 406.917 816 C 412.932 831.467, 419.948 850.592, 420.547 853.151 C 420.888 854.609, 421.931 856.634, 422.864 857.651 C 423.797 858.668, 425.897 861.290, 427.530 863.477 C 429.164 865.664, 434.027 871.964, 438.337 877.477 C 442.648 882.990, 447.871 889.750, 449.945 892.500 C 452.019 895.250, 457.942 901.509, 463.108 906.408 C 473.722 916.475, 471.984 915.789, 496.252 919.486 C 505.189 920.847, 517.450 922.899, 523.500 924.046 C 551.993 929.448, 559.619 930.423, 571.500 930.186 C 577.550 930.065, 602.300 929.731, 626.500 929.444 C 666.912 928.965, 670.949 929.068, 676 930.711 C 680.059 932.031, 684.643 932.495, 693.500 932.479 C 707.615 932.455, 713.441 930.865, 719.500 925.382 C 721.700 923.392, 725.535 920.491, 728.021 918.936 C 730.508 917.382, 733.638 914.623, 734.977 912.805 C 736.316 910.987, 737.774 909.050, 738.217 908.500 C 739.794 906.545, 744.538 900.027, 747 896.432 C 748.375 894.425, 750.749 891.403, 752.275 889.717 C 753.801 888.031, 755.298 885.663, 755.601 884.454 C 755.904 883.245, 757.251 881.668, 758.593 880.950 C 759.936 880.231, 762.165 878.161, 763.547 876.349 C 764.929 874.537, 768.184 871.611, 770.780 869.846 C 773.376 868.081, 775.861 866.043, 776.301 865.316 C 777.090 864.014, 802.777 842.312, 810.421 836.489 C 812.577 834.846, 819.391 827.984, 825.563 821.239 C 834.332 811.655, 838.635 805.867, 845.260 794.738 C 854.333 779.499, 882.770 722.742, 887.967 709.500 C 889.694 705.100, 892.403 698.575, 893.987 695 C 896.731 688.808, 905.355 668.360, 910.647 655.500 C 912.005 652.200, 913.972 647.475, 915.017 645 C 923.393 625.176, 928 614.046, 928 613.636 C 928 613.369, 930.284 608.280, 933.075 602.326 C 944.579 577.789, 944.857 576.828, 950.928 540.500 C 952.031 533.900, 954.077 521.719, 955.475 513.431 L 958.016 498.361 954.985 481.431 C 953.318 472.119, 951.328 461.575, 950.561 458 C 949.795 454.425, 948.403 447.953, 947.467 443.618 C 946.532 439.283, 944.725 433.658, 943.451 431.118 C 942.177 428.578, 937.692 419.161, 933.483 410.191 C 929.274 401.221, 924.013 390.646, 921.790 386.691 C 911.925 369.134, 908.020 362.031, 904.553 355.336 C 901.822 350.063, 896.441 343.320, 884.171 329.794 C 875.002 319.687, 864.800 308.311, 861.500 304.515 C 841.300 281.277, 841.024 281.003, 820.606 263.944 C 805.997 251.739, 801.540 248.080, 791.500 240.056 C 788.750 237.858, 781.775 232.222, 776 227.532 C 770.225 222.842, 765.003 219.004, 764.395 219.003 C 763.787 219.001, 757.487 216.585, 750.395 213.633 C 743.303 210.681, 736.375 208.062, 735 207.813 C 733.625 207.563, 728.225 207.651, 723 208.008" stroke="#aa444d" fill="#aa444d" fill-opacity="0.2" fill-rule="evenodd"/><path class="svg-region-OABl" d="M 576 568.870 C 576 571.786, 567.137 582, 564.607 582 C 563.788 582, 562.876 582.392, 562.580 582.871 C 562.284 583.350, 560.795 584.004, 559.271 584.325 C 557.747 584.646, 555.150 586.088, 553.500 587.528 C 551.850 588.969, 549.130 591.352, 547.456 592.824 C 543.791 596.046, 538.304 600, 537.499 600 C 537.178 600, 535.923 600.953, 534.708 602.118 C 529.517 607.096, 521.753 608.356, 517.166 604.965 C 514.600 603.068, 514.169 603.031, 510.828 604.427 C 505.459 606.671, 504.331 611.847, 508.068 617.096 C 510.435 620.419, 513 620.920, 513 618.059 C 513 616.991, 513.401 615.870, 513.891 615.568 C 514.936 614.921, 518 619.267, 518 621.397 C 518 622.204, 519.462 623.852, 521.250 625.059 C 524.771 627.437, 532 634.938, 532 636.214 C 532 637.474, 548.937 637.052, 555.500 635.629 C 561.177 634.398, 563.636 633.016, 573.984 625.242 C 578.750 621.663, 585 614.788, 585 613.126 C 585 612.546, 585.900 611.589, 587 611 C 588.100 610.411, 589 609.340, 589 608.620 C 589 607.899, 589.867 606.525, 590.927 605.566 C 591.987 604.607, 593.160 601.949, 593.533 599.661 C 593.906 597.372, 595.064 594.097, 596.106 592.382 C 598.589 588.295, 598.617 580.700, 596.163 577.154 C 595.152 575.694, 594.051 573.739, 593.716 572.808 C 592.672 569.906, 588.312 567.839, 582.036 567.270 C 576.359 566.755, 576 566.850, 576 568.870" stroke="#81244d" fill="#81244d" fill-opacity="0.2" fill-rule="evenodd"/><path class="svg-region-OVl" d="M 512.594 433.774 C 509.387 434.203, 506.085 437.495, 506.033 440.316 C 505.978 443.327, 504.226 445.698, 500.263 448.128 C 498.193 449.396, 495.375 451.483, 494 452.764 C 492.625 454.045, 490.100 455.770, 488.389 456.595 C 480.740 460.286, 481.507 473.070, 489.859 481.095 C 494.295 485.358, 497 490.569, 497 494.854 C 497 496.533, 497.396 498.940, 497.881 500.203 C 499.165 503.551, 502.751 515.119, 503.341 517.818 C 504.058 521.095, 501.140 529.762, 498.309 532.762 C 497.655 533.456, 496.844 536.156, 496.507 538.762 C 496.171 541.368, 495.244 544.978, 494.448 546.784 C 493.651 548.590, 493 550.923, 493 551.969 C 493 553.051, 491.277 555.084, 489.003 556.685 C 484.297 560, 484.285 561.747, 488.951 564.487 C 493.412 567.106, 506.583 579.790, 507.944 582.776 C 508.525 584.051, 509 589.573, 509 595.047 C 509 600.521, 509.196 605, 509.435 605 C 509.674 605, 510.993 604.573, 512.365 604.051 C 514.336 603.302, 515.414 603.538, 517.494 605.174 C 521.259 608.135, 527.799 607.239, 533.868 602.930 C 536.415 601.121, 540.300 598.411, 542.500 596.906 C 544.700 595.402, 548.709 592.136, 551.410 589.649 C 554.315 586.972, 558.327 584.469, 561.238 583.517 C 563.944 582.632, 567.360 580.648, 568.829 579.109 C 574.265 573.413, 576 570.932, 576 568.854 C 576 566.853, 576.372 566.756, 582.036 567.270 C 585.355 567.571, 589.117 568.502, 590.395 569.339 C 593.295 571.240, 598 580.072, 598 583.616 L 598 586.270 599.918 583.832 C 600.973 582.491, 602.156 579.618, 602.548 577.447 C 602.940 575.276, 603.654 573.001, 604.135 572.392 C 604.616 571.783, 605.907 567.773, 607.005 563.482 C 608.620 557.164, 609 552.394, 609 538.405 C 609 527.385, 608.573 520.111, 607.820 518.315 C 607.170 516.767, 606.378 508.393, 606.058 499.706 C 605.722 490.598, 605.037 483.613, 604.439 483.206 C 603.869 482.818, 602.844 480.587, 602.161 478.250 C 601.478 475.913, 600.540 474, 600.075 474 C 599.611 474, 598.921 471.413, 598.542 468.250 C 598.163 465.087, 597.125 460.813, 596.234 458.750 C 594.725 455.254, 594.325 455, 590.343 455 C 586.930 455, 585.832 454.547, 584.885 452.750 C 583.331 449.798, 582.076 449.034, 578.750 449.015 C 576.672 449.004, 576 448.511, 576 447 C 576 445.472, 575.333 445, 573.174 445 C 571.453 445, 569.431 444.023, 568 442.500 C 566.583 440.992, 564.544 440, 562.861 440 C 561.094 440, 559.678 439.266, 559 438 C 558.043 436.212, 556.898 435.998, 548.215 435.985 C 542.872 435.977, 535.800 435.348, 532.500 434.588 C 526.761 433.265, 518.815 432.940, 512.594 433.774" stroke="#593939" fill="#593939" fill-opacity="0.2" fill-rule="evenodd"/>
    </svg>