<svg xmlns="http://www.w3.org/2000/svg" width="1078" height="1151" viewBox="0 0 1078 1151" version="1.1">
    <path class="svg-region-V" d="M 473 238.092 C 470.525 238.555, 465.992 239.139, 462.926 239.389 C 459.120 239.700, 455.722 240.806, 452.215 242.873 C 449.390 244.539, 445.313 246.377, 443.156 246.958 C 440.998 247.539, 438.723 248.629, 438.100 249.379 C 437.477 250.130, 433.487 252.183, 429.234 253.942 C 413.756 260.342, 409.102 263.237, 400.458 271.840 C 395.849 276.426, 391.829 280.963, 391.525 281.921 C 391.221 282.879, 389.294 284.546, 387.242 285.627 C 382.039 288.367, 379.625 293.284, 378.120 304.212 C 377.416 309.320, 375.687 317.550, 374.277 322.500 C 367.801 345.239, 367.852 344.951, 368.664 354.500 C 369.085 359.450, 369.459 367.550, 369.496 372.500 C 369.558 380.802, 369.865 382.142, 373.454 389.782 C 377.555 398.509, 383.025 404.649, 388.500 406.669 C 390.150 407.278, 395.325 409.195, 400 410.930 C 409.716 414.537, 424.966 417.265, 436.181 417.405 C 443.130 417.491, 444.135 417.762, 446.735 420.250 C 449.364 422.765, 450.270 423, 457.340 423 C 462.805 423, 465.800 423.478, 467.561 424.632 C 469.864 426.141, 470.187 426.141, 471.854 424.632 C 472.846 423.734, 473.969 423, 474.350 423 C 474.731 423, 476.856 421.800, 479.072 420.333 C 482.241 418.236, 484.106 417.722, 487.801 417.926 C 499.490 418.570, 501.015 418.337, 504.710 415.347 C 506.679 413.754, 509.028 411.111, 509.931 409.475 C 513.309 403.351, 514.672 401.822, 521.546 396.434 C 525.422 393.396, 529.430 389.356, 530.454 387.456 C 531.477 385.555, 532.694 384, 533.157 384 C 533.621 384, 534 383.363, 534 382.583 C 534 381.804, 534.356 381.017, 534.790 380.833 C 536.562 380.086, 541.880 371.264, 542.526 368 C 542.907 366.075, 544.337 363.012, 545.703 361.194 C 547.232 359.159, 548.474 355.779, 548.931 352.409 C 549.340 349.397, 550.628 345.642, 551.794 344.065 C 554.064 340.995, 556 329.380, 556 318.835 C 556 315.691, 556.468 312.829, 557.041 312.475 C 557.613 312.121, 557.805 310.961, 557.467 309.896 C 556.849 307.950, 559.487 298.322, 561.123 296.550 C 561.605 296.028, 562 289.901, 562 282.935 C 562 271.784, 561.761 269.966, 560 267.727 C 558.900 266.329, 558 264.791, 558 264.311 C 558 263.830, 555.862 262.814, 553.250 262.054 C 550.638 261.293, 545.350 259.366, 541.500 257.773 C 537.650 256.179, 532.391 254.219, 529.814 253.418 C 524.624 251.804, 516.669 247.802, 510.411 243.656 C 508.064 242.102, 503.836 240.543, 500.485 239.998 C 497.274 239.475, 494.187 238.587, 493.624 238.024 C 492.429 236.829, 479.522 236.872, 473 238.092" stroke="#dd8a8a" fill="#dd8a8a" fill-opacity="0.2" fill-rule="evenodd"/><path class="svg-region-DB" d="M 406.589 419.250 C 406.210 422.137, 405.784 425.743, 405.642 427.261 C 405.497 428.807, 403.810 431.669, 401.810 433.761 C 394.857 441.036, 394.490 443.987, 399.503 452.300 C 401.426 455.490, 403 458.458, 403 458.895 C 403 459.332, 403.900 460.505, 405 461.500 C 406.100 462.495, 407 463.883, 407 464.584 C 407 465.284, 407.617 466.474, 408.370 467.227 C 410.651 469.508, 412.905 474.551, 413.608 478.948 C 414.194 482.618, 413.941 483.452, 411.449 486.053 C 409.896 487.674, 408.026 489, 407.293 489 C 405.216 489, 398.338 493.662, 393.966 498.034 C 389.189 502.811, 388.707 505.983, 392.750 506.037 C 397.118 506.095, 402.795 515.980, 403.914 525.477 C 404.468 530.184, 404.800 530.653, 410.021 534.103 C 414.211 536.872, 416.112 538.969, 417.907 542.802 C 420.333 547.981, 420.417 552.129, 418.390 566.628 C 417.855 570.457, 418.066 570.948, 421.304 573.418 C 426.966 577.737, 430.229 578.216, 438.635 575.964 C 444.490 574.395, 446.872 574.191, 450.250 574.971 C 456.153 576.332, 461.667 576.233, 467.753 574.654 C 472.742 573.360, 474.271 573.437, 485.176 575.532 C 488.406 576.152, 489.343 575.829, 492.908 572.869 C 495.139 571.016, 496.972 568.931, 496.982 568.236 C 497.009 566.314, 499.143 562.886, 502.772 558.934 L 506.046 555.368 504.633 548.934 C 503.245 542.615, 501.481 535.407, 498.411 523.500 C 496.365 515.564, 492.514 507.776, 489.739 505.963 C 486.056 503.557, 480.276 497.080, 478.946 493.871 C 478.262 492.219, 475.520 488.696, 472.851 486.042 C 468.240 481.455, 468 480.948, 468 475.796 C 468 469.474, 470.659 463.200, 474.680 460.037 C 477.661 457.692, 486 442.899, 486 439.955 C 486 437.029, 479.913 431.172, 476.500 430.815 C 473.911 430.543, 473.456 430.045, 473.182 427.184 C 472.918 424.441, 472.617 424.073, 471.437 425.053 C 470.322 425.978, 469.471 425.883, 467.540 424.618 C 465.803 423.480, 462.778 423, 457.340 423 C 450.271 423, 449.364 422.765, 446.734 420.250 C 444.145 417.775, 443.089 417.485, 436.179 417.352 C 431.955 417.271, 424 416.500, 418.500 415.638 C 413 414.777, 408.225 414.056, 407.889 414.036 C 407.553 414.016, 406.968 416.363, 406.589 419.250" stroke="#e8b1e4" fill="#e8b1e4" fill-opacity="0.2" fill-rule="evenodd"/><path class="svg-region-IBl" d="M 524.832 550.344 C 522.814 550.980, 520.827 551.837, 520.415 552.250 C 520.003 552.663, 518.401 553, 516.854 553 C 512.856 553, 505.981 555.856, 502.712 558.874 C 500.083 561.300, 497 566.302, 497 568.140 C 497 568.598, 495.377 570.461, 493.393 572.279 L 489.785 575.585 493.231 579.043 C 496.489 582.311, 496.715 582.987, 497.356 591.393 C 498.128 601.520, 498.831 605, 500.106 605 C 500.594 605, 502.683 603.486, 504.747 601.636 C 506.811 599.786, 509.883 597.566, 511.573 596.702 C 513.263 595.839, 515.234 594.423, 515.954 593.556 C 516.673 592.689, 519.756 591.255, 522.805 590.368 C 528.056 588.842, 528.419 588.853, 529.678 590.575 C 531.281 592.766, 532.128 591.978, 534.350 586.230 C 535.548 583.129, 536 578.737, 536 570.192 C 536 559.977, 535.703 557.835, 533.750 553.962 C 531.275 549.054, 530.248 548.637, 524.832 550.344" stroke="#b10e0e" fill="#b10e0e" fill-opacity="0.2" fill-rule="evenodd"/><path class="svg-region-DMl" d="M 468 574.604 C 462.315 576.164, 455.592 576.292, 450.701 574.934 C 446.035 573.638, 437.619 575.234, 431.008 578.667 C 428.537 579.950, 425.781 581, 424.884 581 C 421.411 581, 414.361 584.227, 411.254 587.239 C 408.552 589.857, 408 591.140, 408 594.796 C 408 598.456, 408.565 599.765, 411.341 602.541 C 413.179 604.379, 415.991 606.161, 417.591 606.502 C 419.191 606.843, 421.990 607.775, 423.810 608.574 C 425.631 609.372, 429.906 610.420, 433.310 610.902 C 436.715 611.385, 442.390 612.954, 445.922 614.390 C 449.455 615.825, 453.192 617, 454.228 617 C 455.263 617, 459.079 618.575, 462.706 620.500 C 466.333 622.425, 469.727 624, 470.246 624 C 470.766 624, 472.411 624.869, 473.903 625.931 C 477.891 628.771, 486.986 631.999, 491 631.999 C 493.816 632, 495.058 631.301, 497.352 628.425 C 500.322 624.703, 500.386 623.408, 497.900 617.298 C 496.862 614.746, 496.840 613.120, 497.792 609.298 C 498.647 605.864, 498.709 602.651, 498.013 598 C 497.478 594.425, 497.031 589.543, 497.020 587.150 C 497.003 583.550, 496.413 582.213, 493.600 579.400 C 491.583 577.383, 489.203 576, 487.749 576 C 486.401 576, 483.994 575.588, 482.399 575.084 C 477.346 573.489, 472.639 573.332, 468 574.604" stroke="#68533d" fill="#68533d" fill-opacity="0.2" fill-rule="evenodd"/><path class="svg-region-Ol" d="M 698.777 218.804 C 696.179 220.287, 689.243 224.875, 683.363 229 C 677.484 233.125, 669.484 238.621, 665.587 241.214 C 657.569 246.548, 656.444 247.433, 655.308 249.295 C 654.864 250.024, 651.125 252.797, 647 255.458 C 642.875 258.120, 636.350 262.348, 632.500 264.856 C 625.881 269.167, 616.655 277.863, 611.657 284.500 C 608.867 288.206, 603.637 300.784, 602.091 307.506 C 600.876 312.790, 600.233 394.951, 601.392 396.826 C 602.782 399.074, 603.640 423.811, 602.959 442 C 602.210 461.995, 601.401 466.982, 595.493 488 C 593.651 494.556, 592.869 500.846, 592.078 515.500 C 591.317 529.576, 590.116 539.554, 587.443 554 C 585.459 564.725, 583.436 576.650, 582.948 580.500 C 582.460 584.350, 581.560 590.425, 580.947 594 C 579.686 601.360, 572.203 625, 571.134 625 C 570.386 625, 566.668 627.783, 561.449 632.250 C 557.586 635.556, 557.398 635.565, 548.978 632.854 L 542.314 630.708 539.149 633.048 C 536.021 635.360, 535.992 635.463, 536.636 641.753 C 537.205 647.303, 537.014 648.490, 535.144 651.019 C 533.965 652.614, 533 654.299, 533 654.764 C 533 657.529, 518.937 669.355, 510.518 673.671 C 506.938 675.506, 500.969 678.925, 497.254 681.268 C 493.539 683.611, 488.700 686.151, 486.500 686.912 C 481.280 688.717, 469.436 694.424, 465.017 697.262 C 458.214 701.633, 450.167 710.893, 445.449 719.779 C 439.556 730.877, 435.031 749.211, 435.013 762.064 C 435 770.438, 437.032 789.036, 438.938 798 C 440.282 804.323, 442.713 816.411, 444.066 823.500 C 445.309 830.019, 448.769 839, 450.036 839 C 450.471 839, 452.648 842.377, 454.874 846.505 C 457.101 850.632, 461.527 857.256, 464.711 861.225 C 467.895 865.194, 471.903 870.394, 473.617 872.781 C 475.331 875.167, 480.731 881.628, 485.617 887.138 C 492.946 895.404, 495.725 897.778, 501.500 900.704 C 505.350 902.655, 509.630 905.048, 511.010 906.023 C 512.391 906.997, 516.421 908.747, 519.966 909.911 C 523.510 911.074, 530.706 913.595, 535.955 915.512 C 545.710 919.074, 552.008 920.374, 567 921.922 C 571.675 922.404, 577.586 923.335, 580.136 923.990 C 584.435 925.093, 589.863 925.061, 622.500 923.737 C 625.250 923.625, 633.125 923.736, 640 923.984 C 654.596 924.510, 676.151 921.393, 681.460 917.990 C 685.540 915.375, 687.754 914.400, 692.500 913.132 C 694.700 912.543, 698.975 910.484, 702 908.555 C 705.025 906.626, 709.401 904.121, 711.725 902.988 C 718.787 899.546, 729.192 892.416, 735 887.040 C 738.025 884.240, 748.150 874.642, 757.500 865.712 C 766.850 856.781, 778.753 845.655, 783.952 840.987 C 796.337 829.866, 797.378 828.742, 802.935 820.500 C 815.272 802.201, 817.172 799.374, 818.295 797.635 C 818.958 796.610, 820.875 793.910, 822.555 791.635 C 824.235 789.361, 826.485 786.089, 827.555 784.364 C 828.625 782.640, 833.100 775.976, 837.500 769.556 C 854.748 744.389, 868.601 720.403, 870.453 712.500 C 870.839 710.850, 872.275 708.029, 873.644 706.230 C 875.013 704.432, 876.373 701.474, 876.668 699.659 C 876.963 697.843, 878.705 693.689, 880.540 690.428 C 885.634 681.376, 893.648 664.192, 897.063 655 C 897.778 653.075, 899.635 649.207, 901.189 646.405 C 902.744 643.603, 904.706 638.985, 905.551 636.141 C 906.395 633.298, 908.334 629.516, 909.860 627.736 C 915.754 620.863, 920.586 601.608, 927.111 559 C 927.658 555.425, 928.745 548.450, 929.526 543.500 C 931.281 532.377, 932.197 486.935, 930.870 476.827 C 930.342 472.797, 929.288 464.775, 928.530 459 C 926.305 442.068, 924.068 433.869, 918.127 420.875 C 915.323 414.741, 913.288 409.708, 909.994 400.755 C 908.426 396.495, 906.211 391.701, 905.072 390.101 C 903.932 388.501, 903 386.835, 903 386.399 C 903 385.192, 898.103 378.126, 893.108 372.126 C 890.647 369.171, 887.704 365.472, 886.567 363.906 C 884.739 361.390, 874.292 347.831, 862.489 332.657 C 860.283 329.821, 857.726 326.326, 856.808 324.890 C 855.889 323.455, 854.524 321.655, 853.773 320.890 C 853.023 320.126, 849.770 315.900, 846.546 311.500 C 841.045 303.994, 822.020 281.702, 819.236 279.500 C 818.540 278.950, 817.190 277.310, 816.236 275.855 C 811.742 269.007, 795.552 252.332, 790.905 249.765 C 788.161 248.249, 783.203 245.206, 779.887 243.004 C 776.571 240.802, 773.579 239, 773.237 239 C 772.896 239, 769.215 236.773, 765.058 234.051 C 760.901 231.330, 755.700 228.665, 753.500 228.130 C 748.728 226.969, 737.302 222.295, 734.527 220.369 C 733.443 219.616, 730.965 219, 729.021 219 C 727.077 219, 724.105 218.604, 722.416 218.119 C 720.727 217.635, 715.780 216.984, 711.423 216.673 C 704.107 216.151, 703.138 216.314, 698.777 218.804" stroke="#aa444d" fill="#aa444d" fill-opacity="0.2" fill-rule="evenodd"/><path class="svg-region-VOC" d="M 537.250 548.720 C 534.611 549.663, 535.921 554.833, 539.845 558.958 C 544.014 563.341, 547.492 564.177, 548.488 561.038 C 549.186 558.839, 547.508 555, 545.850 555 C 545.256 555, 543.359 553.487, 541.635 551.637 C 539.911 549.787, 537.938 548.474, 537.250 548.720" stroke="#ff8f93" fill="#ff8f93" fill-opacity="0.2" fill-rule="evenodd"/><path class="svg-region-OABl" d="M 582.500 451.295 L 578.500 453.558 578 469.034 L 577.500 484.511 573.283 490.820 C 570.964 494.289, 568.807 498.787, 568.490 500.814 C 567.360 508.044, 561.753 523.984, 558.558 529.052 C 555.222 534.343, 553.960 536.021, 545.707 546.140 L 540.913 552.016 544.367 554.054 C 548.394 556.430, 549.397 558.389, 547.961 561.072 C 546.450 563.896, 544.244 563.444, 540.300 559.500 C 538.375 557.575, 536.508 556, 536.150 556 C 535.793 556, 535.660 561.409, 535.856 568.020 C 536.165 578.444, 535.909 580.964, 533.931 586.998 C 531.864 593.301, 531.795 594.122, 533.192 595.728 C 534.214 596.903, 534.940 600.575, 535.347 606.627 C 535.950 615.602, 535.911 615.823, 532.980 619.868 C 531.341 622.131, 530 624.838, 530 625.884 C 530 626.930, 529.325 628.045, 528.500 628.362 C 526.068 629.295, 526.776 630.705, 530 631.350 C 531.669 631.684, 533 632.590, 533 633.392 C 533 635.880, 535.375 635.838, 538.794 633.288 L 542.087 630.832 548.949 632.916 C 557.663 635.563, 557.949 635.548, 561.594 632.250 C 564.625 629.508, 568.354 626.617, 570.777 625.132 C 574.023 623.141, 580.899 598.046, 582.974 580.621 C 583.440 576.704, 585.448 564.725, 587.436 554 C 590.079 539.743, 591.339 529.391, 592.122 515.500 C 592.999 499.936, 593.712 494.601, 596.066 486 C 602.224 463.503, 602.766 459.092, 598.952 462.543 C 597.202 464.127, 597.005 464.054, 595.301 461.188 C 594.311 459.522, 592.274 456.098, 590.775 453.580 C 589.276 451.061, 587.701 449.007, 587.275 449.016 C 586.849 449.025, 584.700 450.051, 582.500 451.295" stroke="#81244d" fill="#81244d" fill-opacity="0.2" fill-rule="evenodd"/><path class="svg-region-LBPCl" d="M 388.034 507.277 C 386.502 508.053, 385.245 509.847, 384.716 512.013 C 384.248 513.931, 383.230 517.975, 382.455 521 C 380.199 529.796, 379.831 546.179, 381.663 556.250 C 382.742 562.185, 383.692 565, 384.615 565 C 385.430 565, 386.233 566.606, 386.616 569 C 386.968 571.200, 387.761 573.011, 388.378 573.024 C 388.995 573.037, 390.502 575.326, 391.726 578.111 C 393.083 581.200, 394.741 583.381, 395.976 583.704 C 397.089 583.995, 398 584.792, 398 585.476 C 398 586.975, 405.790 596, 407.085 596 C 407.588 596, 408 594.702, 408 593.116 C 408 588.865, 414.227 583.605, 421.104 582.048 C 429.509 580.144, 430 579.950, 430 578.541 C 430 577.813, 428.813 576.919, 427.363 576.555 C 425.913 576.191, 423.174 574.709, 421.276 573.261 C 418.086 570.828, 417.870 570.322, 418.415 566.565 C 418.740 564.329, 419.265 558.675, 419.581 554 C 420.138 545.786, 420.056 545.342, 417.130 540.797 C 415.288 537.934, 412.531 535.291, 410.085 534.043 C 405.537 531.723, 404 529.472, 404 525.131 C 404 521.289, 402.674 517.792, 398.737 511.250 C 395.333 505.593, 393.042 504.743, 388.034 507.277" stroke="#daffff" fill="#daffff" fill-opacity="0.2" fill-rule="evenodd"/><path class="svg-region-OVl" d="M 508 429.672 C 508 431.727, 507.665 432.063, 506.250 431.424 C 505.288 430.989, 501.649 430.713, 498.164 430.810 C 489.756 431.045, 486 433.526, 486 438.846 C 486 440.886, 485.368 443.458, 484.595 444.562 C 483.821 445.665, 481.780 449.340, 480.059 452.728 C 478.337 456.116, 476.102 459.150, 475.092 459.471 C 471.881 460.490, 467.999 469.465, 468.011 475.842 C 468.020 480.984, 468.339 481.809, 471.511 484.890 C 473.430 486.755, 475 488.668, 475 489.140 C 475 489.613, 475.585 490, 476.299 490 C 477.014 490, 478.206 491.681, 478.949 493.735 C 480.160 497.083, 489.101 507, 490.910 507 C 493.214 507, 497.596 518.621, 500.525 532.500 C 501.221 535.800, 502.262 539.850, 502.837 541.500 C 503.412 543.150, 504.398 547.121, 505.028 550.324 C 505.831 554.409, 506.564 555.998, 507.482 555.645 C 508.202 555.369, 510.751 554.629, 513.146 554 C 515.541 553.372, 520.317 551.939, 523.761 550.816 C 528.795 549.173, 530.313 549.015, 531.511 550.009 C 532.330 550.689, 533 551.810, 533 552.500 C 533 553.190, 533.675 554.315, 534.500 555 C 535.775 556.058, 536 555.807, 536 553.322 C 536 549.274, 537.853 547.557, 540.063 549.557 C 541.611 550.958, 542.182 550.557, 546.836 544.794 C 549.631 541.332, 552.498 537.821, 553.209 536.992 C 558.781 530.482, 565.028 517.044, 567.031 507.259 C 568.737 498.926, 569.896 496.102, 573.914 490.500 L 577.500 485.500 578 469.516 L 578.500 453.533 582.750 451.192 C 585.732 449.549, 586.999 448.201, 586.998 446.675 C 586.995 444.058, 582.052 438, 579.920 438 C 579.084 438, 577.843 437.443, 577.162 436.762 C 576.287 435.887, 571.437 435.520, 560.616 435.512 C 550.073 435.504, 544.851 435.121, 543.840 434.283 C 542.928 433.526, 540.955 433.295, 538.623 433.674 C 535.291 434.214, 534.462 433.887, 531.187 430.733 L 527.500 427.184 517.750 427.157 L 508 427.130 508 429.672" stroke="#593939" fill="#593939" fill-opacity="0.2" fill-rule="evenodd"/><path class="svg-region-ODMl" d="M 521.684 590.449 C 519.585 591.197, 516.967 592.625, 515.866 593.621 C 514.765 594.618, 512.374 596.348, 510.551 597.466 C 504.710 601.052, 498.520 606.085, 497.820 607.817 C 496.659 610.693, 497.005 616.384, 498.500 619 C 500.313 622.171, 500.364 624.494, 498.658 626.199 C 497.920 626.937, 496.803 628.499, 496.177 629.670 C 495.141 631.605, 495.407 631.945, 499.110 633.427 C 503.113 635.029, 509.405 634.772, 510.525 632.960 C 510.801 632.513, 512.337 632.523, 513.939 632.982 C 519.305 634.522, 529.908 629.488, 529.969 625.372 C 529.986 624.202, 530.705 622.660, 531.566 621.945 C 535.114 619, 535.942 615.557, 535.297 606.425 C 534.756 598.757, 534.276 597.032, 531.645 593.298 C 528.365 588.646, 527.463 588.388, 521.684 590.449" stroke="#999999" fill="#999999" fill-opacity="0.2" fill-rule="evenodd"/>
    </svg>