<svg xmlns="http://www.w3.org/2000/svg" width="1078" height="1151" viewBox="0 0 1078 1151" version="1.1">
    <path class="svg-region-V" d="M 501.500 228.170 C 499.300 228.687, 493 229.489, 487.500 229.952 C 482 230.415, 475.535 231.531, 473.134 232.432 C 470.733 233.333, 466.683 234.340, 464.134 234.669 C 461.241 235.043, 456.870 236.865, 452.500 239.517 C 448.650 241.854, 444.295 244.381, 442.821 245.133 C 441.348 245.885, 436.209 248.750, 431.402 251.500 C 426.594 254.250, 421.279 257.289, 419.590 258.253 C 415.342 260.679, 411.248 263.964, 408.134 267.446 C 406.685 269.066, 402.890 273.142, 399.701 276.504 C 391.706 284.932, 388.236 290.505, 386.952 296.981 C 386.350 300.017, 384.717 305.650, 383.322 309.500 C 381.927 313.350, 380.125 318.637, 379.318 321.250 C 378.510 323.863, 377.516 326, 377.108 326 C 376.701 326, 375.794 329.038, 375.095 332.750 C 374.395 336.462, 372.939 341.458, 371.859 343.850 C 370.779 346.243, 369.445 351.868, 368.893 356.350 C 368.342 360.833, 367.466 366.419, 366.946 368.764 C 366.426 371.110, 366 376.537, 366 380.826 C 366 389.472, 367.865 393, 372.435 393 C 375.031 393, 378.793 396.835, 383.353 404.131 C 385.768 407.994, 386.968 408.902, 391.175 410.048 C 394.036 410.827, 396.581 412.216, 397.173 413.323 C 398.142 415.135, 399.021 415.205, 412.351 414.537 C 420.133 414.147, 430.100 413.200, 434.500 412.432 C 438.900 411.665, 444.621 411.029, 447.213 411.018 C 449.805 411.008, 454.209 410.100, 457 409 C 461.309 407.301, 464.517 406.992, 478.287 406.945 C 506.295 406.851, 521.385 405.542, 530.463 402.417 C 537.367 400.041, 539.310 398.800, 545.077 393.088 C 551.541 386.685, 551.747 386.324, 552.418 380.205 C 552.798 376.743, 554.026 371.793, 555.146 369.205 C 557.754 363.180, 560.378 354.720, 562.963 344 C 564.091 339.325, 565.710 333.025, 566.561 330 C 567.412 326.975, 569.159 319.530, 570.443 313.456 C 571.728 307.383, 573.726 300.858, 574.885 298.956 C 576.044 297.055, 576.994 294.008, 576.996 292.184 C 576.998 290.361, 577.460 288.008, 578.023 286.957 C 579.427 284.334, 577.474 272.238, 575.129 269.026 C 573.040 266.164, 560.304 258.068, 557.827 258.028 C 556.906 258.012, 554.881 256.936, 553.327 255.637 C 551.772 254.337, 548.475 252.247, 546 250.992 C 543.525 249.738, 540.150 247.719, 538.500 246.507 C 536.850 245.294, 533.475 243.517, 531 242.559 C 527.120 241.057, 522.110 237.194, 513.395 228.983 C 511.141 226.860, 507.992 226.645, 501.500 228.170" stroke="#dd8a8a" fill="#dd8a8a" fill-opacity="0.2" fill-rule="evenodd"/><path class="svg-region-DB" d="M 543.167 394.923 C 533.092 404.308, 519.509 406.826, 478.287 406.951 C 464.509 406.993, 461.312 407.300, 457 409 C 454.209 410.100, 449.805 411.008, 447.213 411.018 C 444.621 411.029, 438.900 411.663, 434.500 412.427 C 430.100 413.192, 420.316 414.138, 412.758 414.529 C 399.938 415.193, 398.897 415.110, 397.258 413.306 C 395.388 411.248, 388.234 408.433, 387.285 409.382 C 386.797 409.870, 386.592 421.537, 386.967 427.500 C 387.036 428.600, 386.790 431.866, 386.419 434.757 C 385.219 444.109, 391.627 461.206, 400.256 471.675 C 402.375 474.246, 404.707 478.624, 405.608 481.722 L 407.204 487.212 404.223 491.356 C 402.584 493.635, 400.194 496.038, 398.913 496.696 C 397.632 497.354, 396.249 498.797, 395.840 499.903 C 395.431 501.009, 393.275 503.064, 391.048 504.470 C 386.336 507.445, 385.816 509.731, 389.750 510.184 C 391.817 510.421, 392.584 511.121, 392.839 513 C 393.389 517.061, 396.789 526.523, 399.185 530.659 C 400.409 532.771, 403.455 536.540, 405.955 539.033 C 408.455 541.527, 411.351 544.789, 412.390 546.283 C 413.430 547.778, 414.861 549, 415.572 549 C 416.282 549, 417.849 550.384, 419.053 552.074 C 422.066 556.305, 422.822 566.140, 420.629 572.576 C 418.323 579.344, 418.448 584, 420.935 584 C 424.550 584, 442.469 580.888, 450.068 578.940 C 454.231 577.873, 460.531 576.981, 464.068 576.957 L 470.500 576.915 474.500 571.765 C 476.700 568.933, 479.290 565.337, 480.256 563.774 C 481.221 562.211, 482.796 560.657, 483.756 560.320 C 486.206 559.459, 491 554.872, 491 553.390 C 491 552.710, 492.165 550.769, 493.589 549.077 C 497.988 543.849, 504.921 545.106, 511.936 552.404 C 513.868 554.414, 516.766 556.241, 518.556 556.576 C 521.169 557.067, 522.155 558.060, 524.056 562.119 C 527.124 568.671, 528.391 569.664, 531.534 567.982 C 533.228 567.075, 534 565.810, 534 563.940 C 534 562.238, 535.498 559.404, 538 556.377 C 540.721 553.084, 541.998 550.572, 541.994 548.518 C 541.987 544.640, 540.150 538, 539.085 538 C 538.633 538, 537.988 536.313, 537.653 534.250 C 537.317 532.188, 536.547 528.475, 535.943 526 C 535.339 523.525, 534.536 516.550, 534.158 510.500 C 533.617 501.832, 532.975 498.546, 531.131 495 C 529.845 492.525, 528.163 490.140, 527.396 489.700 C 526.628 489.260, 526 488.248, 526 487.450 C 526 486.653, 525.438 486.003, 524.750 486.006 C 524.063 486.010, 522.038 484.327, 520.250 482.267 C 517.401 478.984, 517 477.818, 517 472.820 C 517 469.684, 517.450 466.840, 518 466.500 C 518.550 466.160, 519 463.434, 519 460.441 C 519 457.448, 519.450 455, 520 455 C 520.550 455, 521 454.155, 521 453.122 C 521 452.090, 521.650 450.705, 522.445 450.046 C 523.240 449.386, 525.362 446.518, 527.161 443.673 C 528.960 440.828, 531.010 438.140, 531.716 437.700 C 532.422 437.260, 533 436.457, 533 435.915 C 533 435.372, 533.898 433.932, 534.995 432.714 C 536.093 431.496, 538.048 429.272, 539.341 427.771 C 540.633 426.270, 542.955 424.386, 544.501 423.584 C 547.236 422.165, 547.305 421.927, 547.092 414.629 C 546.972 410.506, 547.391 404.500, 548.024 401.283 C 548.657 398.066, 549.023 394.202, 548.837 392.695 L 548.500 389.956 543.167 394.923" stroke="#e8b1e4" fill="#e8b1e4" fill-opacity="0.2" fill-rule="evenodd"/><path class="svg-region-IBl" d="M 493.250 549.319 C 492.012 551.136, 491 553.074, 491 553.625 C 491 554.961, 485.686 560, 484.277 560 C 483.025 560, 471 575.374, 471 576.973 C 471 577.538, 471.943 578, 473.096 578 C 477.018 578, 486.492 581.219, 488.879 583.363 C 492.253 586.394, 493.998 591.101, 494.014 597.218 C 494.028 602.832, 494.823 607.016, 495.867 606.976 C 496.215 606.963, 500.443 600.957, 505.263 593.630 C 514.379 579.772, 516.346 578, 522.613 578 C 529.686 578, 532.122 573.967, 528.121 568.880 C 527.087 567.566, 525.258 564.400, 524.057 561.845 C 522.249 557.997, 521.293 557.090, 518.497 556.565 C 516.434 556.178, 514.073 554.681, 512.428 552.716 C 508.312 547.800, 504.998 546.013, 500 546.013 C 496.028 546.014, 495.236 546.402, 493.250 549.319" stroke="#b10e0e" fill="#b10e0e" fill-opacity="0.2" fill-rule="evenodd"/><path class="svg-region-DMl" d="M 451.500 578.572 C 444.190 580.812, 430.261 582.911, 415.845 583.944 C 408.318 584.483, 402.037 585.450, 400.345 586.330 C 395.145 589.035, 392.942 592.311, 392.422 598.115 C 392.157 601.077, 391.681 605.927, 391.364 608.893 C 390.501 616.968, 392.574 625.211, 396.370 628.799 C 399.848 632.087, 406.729 634.534, 414.876 635.378 C 417.834 635.685, 421.305 636.625, 422.591 637.468 C 424.219 638.534, 427.462 639, 433.265 639 C 437.849 639, 442.027 639.419, 442.550 639.931 C 443.072 640.444, 449.350 641.119, 456.500 641.431 C 463.650 641.743, 471.525 642.429, 474 642.956 C 476.475 643.482, 482.947 643.932, 488.383 643.956 C 497.284 643.996, 498.451 643.786, 500.133 641.847 C 502.641 638.955, 502.485 636.396, 499.454 630.702 C 496.905 625.912, 496.745 624.917, 494.119 597.500 C 493.294 588.886, 492.475 586.689, 488.842 583.344 C 483.368 578.304, 461.494 575.509, 451.500 578.572" stroke="#68533d" fill="#68533d" fill-opacity="0.2" fill-rule="evenodd"/><path class="svg-region-Ol" d="M 717.500 226.600 C 714.750 227.449, 710.925 228.515, 709 228.970 C 705.542 229.786, 691.845 235.506, 687 238.156 C 685.625 238.908, 681.601 241.467, 678.059 243.842 C 674.516 246.217, 669.538 249.214, 666.996 250.502 C 664.454 251.790, 661.755 253.591, 660.997 254.504 C 659.242 256.618, 643.922 264, 641.289 264 C 640.195 264, 637.320 265.403, 634.900 267.118 C 623.715 275.045, 617.650 284.857, 614.574 300 C 613.625 304.675, 612.067 312.145, 611.112 316.599 C 609.553 323.872, 609.513 325.759, 610.719 335.099 C 611.458 340.820, 612.479 351.350, 612.988 358.500 C 613.497 365.650, 614.398 375.325, 614.989 380 C 617.042 396.232, 617.243 400.663, 617.303 431 L 617.362 461.500 614.280 471 C 612.585 476.225, 610.435 481.984, 609.502 483.797 C 606.471 489.691, 599.313 521.791, 597.974 535.500 C 597.544 539.900, 595.639 552.725, 593.741 564 C 590.365 584.049, 590.167 584.742, 584.727 595.508 C 581.668 601.563, 577.646 609.213, 575.790 612.508 C 573.934 615.804, 571.153 621.650, 569.610 625.500 C 564.372 638.564, 564.127 639, 561.995 639 C 560.703 639, 559.558 640.006, 558.867 641.750 C 555.090 651.284, 553.050 654.308, 544.163 663.543 C 538.849 669.066, 532.710 674.905, 530.522 676.517 C 528.334 678.130, 525.220 680.958, 523.601 682.801 C 521.925 684.711, 516.465 688.258, 510.913 691.044 C 505.553 693.734, 499.332 697.187, 497.089 698.717 C 493.839 700.934, 486.564 709.345, 478.246 720.501 C 477.836 721.051, 476.240 723.189, 474.699 725.251 C 471.167 729.979, 466.005 740.313, 465.985 742.694 C 465.977 743.687, 465.241 746.525, 464.349 749 C 463.060 752.577, 462.628 759.039, 462.244 780.500 L 461.760 807.500 465.015 820 C 471.853 846.265, 490.728 876.464, 504.039 882.437 C 507.185 883.849, 510.318 885.678, 511.001 886.502 C 511.685 887.326, 512.711 888, 513.281 888 C 513.850 888, 518.183 889.776, 522.908 891.947 C 527.634 894.117, 533.750 896.421, 536.500 897.067 C 539.250 897.712, 544.650 899.313, 548.500 900.625 C 552.350 901.937, 556.881 903.007, 558.568 903.005 C 560.256 903.002, 563.856 903.637, 566.568 904.416 C 569.281 905.195, 573.525 906.117, 576 906.466 C 578.475 906.815, 584.775 907.830, 590 908.720 C 597.151 909.939, 605.929 910.327, 625.500 910.290 C 649.949 910.245, 652.167 910.085, 662.678 907.621 C 668.826 906.179, 674.959 905, 676.307 905 C 677.655 905, 681.175 903.926, 684.129 902.614 C 687.083 901.302, 692.650 899.052, 696.500 897.614 C 700.374 896.168, 705.805 893.103, 708.661 890.750 C 720.848 880.715, 734.247 868.496, 744.500 858.067 C 750.550 851.914, 757.329 845.444, 759.564 843.689 C 769.154 836.164, 792.705 813.686, 797.866 807.133 C 801.081 803.050, 810.536 795.118, 820.267 788.340 C 822.762 786.602, 826.608 782.552, 828.814 779.340 C 831.020 776.128, 834.346 771.925, 836.205 770 C 838.065 768.075, 841.293 764.138, 843.378 761.250 C 845.464 758.363, 847.552 756, 848.018 756 C 848.484 756, 849.145 755.120, 849.486 754.044 C 849.827 752.969, 851.883 749.940, 854.053 747.313 C 856.224 744.686, 858 742.132, 858 741.638 C 858 741.143, 859.486 738.660, 861.302 736.119 C 863.118 733.579, 865.970 728.575, 867.640 725 C 869.310 721.425, 872.243 716.925, 874.158 715 C 876.234 712.913, 878.952 708.270, 880.889 703.500 C 882.675 699.100, 885.171 693.250, 886.436 690.500 C 887.700 687.750, 889.076 683.925, 889.494 682 C 889.912 680.075, 891.268 676.475, 892.508 674 C 897.938 663.156, 900.553 658.296, 902.523 655.382 C 903.683 653.667, 905.422 649.167, 906.388 645.382 C 907.354 641.597, 910.102 632.200, 912.493 624.500 C 918.971 603.645, 919.881 599.339, 924.535 567.500 C 925.420 561.450, 926.541 553.800, 927.027 550.500 C 927.513 547.200, 928.370 532.575, 928.930 518 C 930.174 485.615, 929.009 470.532, 923.673 450 C 918.274 429.221, 915.833 422.634, 907.927 407.500 C 903.904 399.800, 899.101 390.575, 897.253 387 C 881.296 356.128, 880.116 354.301, 862.771 333.596 C 860.972 331.448, 858.026 327.511, 856.223 324.846 C 854.421 322.181, 852.569 320, 852.106 320 C 851.644 320, 850.111 318.256, 848.700 316.124 C 847.290 313.992, 838.808 305.104, 829.852 296.374 C 820.896 287.643, 806.128 273.122, 797.034 264.105 C 777.283 244.519, 773.234 241.374, 756 232.231 C 747.124 227.521, 742.220 226.185, 731.585 225.577 C 724.978 225.199, 721.136 225.478, 717.500 226.600" stroke="#aa444d" fill="#aa444d" fill-opacity="0.2" fill-rule="evenodd"/><path class="svg-region-VOC" d="M 542.294 550.250 C 541.728 551.487, 539.631 554.455, 537.633 556.845 C 533.055 562.319, 532.920 565.315, 537.154 567.427 C 538.888 568.292, 541.007 569, 541.863 569 C 543.603 569, 552 560.301, 552 558.498 C 552 556.599, 545.911 548, 544.566 548 C 543.881 548, 542.859 549.013, 542.294 550.250" stroke="#ff8f93" fill="#ff8f93" fill-opacity="0.2" fill-rule="evenodd"/><path class="svg-region-OABl" d="M 586.375 472.267 C 584.371 473.642, 582.703 476.039, 581.723 478.955 C 578.389 488.875, 573.082 500.305, 570.615 502.880 C 567.937 505.675, 561 516.616, 561 518.044 C 561 518.486, 559.919 520.131, 558.599 521.700 C 556.679 523.981, 551 535.987, 551 537.763 C 551 537.994, 553.379 535.666, 556.287 532.591 C 560.487 528.149, 562.209 527, 564.665 527 C 567.528 527, 567.922 527.444, 570.004 533.011 C 572.827 540.560, 572.391 546.950, 568.615 553.394 C 566.251 557.428, 565.496 558, 562.535 558 C 560.387 558, 558.069 557.088, 556.182 555.500 C 554.548 554.125, 552.489 553, 551.606 553 C 549.707 553, 549.722 552.904, 551.027 556.648 C 551.970 559.352, 551.699 559.981, 547.737 564.297 C 543.028 569.426, 541.860 569.775, 537.197 567.448 C 534.362 566.034, 533.863 566.044, 531.552 567.558 C 529.532 568.882, 529.143 569.755, 529.638 571.859 C 530.506 575.555, 531.476 576.337, 532.965 574.542 C 533.669 573.694, 534.794 573, 535.464 573 C 536.842 573, 539 579.356, 539 583.416 C 539 586.497, 541.581 592, 543.026 592 C 544.312 592, 544.289 599.704, 543 600.500 C 542.450 600.840, 542 602.219, 542 603.564 C 542 604.909, 540.875 608.342, 539.500 611.192 C 537.655 615.016, 537 618.008, 537 622.605 C 537 630.159, 537.618 632, 540.157 632 C 541.225 632, 543.466 632.707, 545.136 633.570 C 546.806 634.434, 550.946 635.737, 554.336 636.466 C 557.726 637.195, 561.274 638.107, 562.221 638.492 C 563.893 639.172, 565.161 637.205, 568.019 629.500 C 570.321 623.292, 572.865 617.775, 576.088 612 C 589.714 587.587, 589.876 587.153, 593.638 565 C 595.553 553.725, 597.498 540.900, 597.960 536.500 C 598.798 528.534, 599.808 522.467, 602.038 512 C 603.941 503.068, 606.084 493.635, 606.660 491.651 C 607.092 490.166, 606.802 489.928, 605.183 490.442 C 604.075 490.794, 602.879 490.613, 602.525 490.041 C 601.461 488.319, 600.558 488.843, 599.164 491.992 C 598.020 494.577, 597.565 494.837, 595.824 493.906 C 593.991 492.925, 593.836 491.998, 594.116 483.664 C 594.425 474.430, 593.300 469.930, 590.715 470.062 C 590.047 470.096, 588.094 471.088, 586.375 472.267" stroke="#81244d" fill="#81244d" fill-opacity="0.2" fill-rule="evenodd"/><path class="svg-region-SOTl" d="M 555.516 533.435 C 552.207 536.974, 548.263 540.338, 546.750 540.910 C 544.716 541.679, 544 542.632, 544 544.565 C 544 547.420, 548.593 553, 550.943 553 C 551.740 553, 554.062 554.157, 556.102 555.570 C 558.696 557.368, 560.816 558.045, 563.155 557.820 C 566.086 557.540, 566.840 556.829, 569.250 552.071 C 572.606 545.445, 572.771 540.192, 569.861 532.589 C 567.902 527.468, 567.463 527, 564.627 527 C 562.110 527, 560.407 528.203, 555.516 533.435" stroke="#995b45" fill="#995b45" fill-opacity="0.2" fill-rule="evenodd"/><path class="svg-region-LBPCl" d="M 382.170 514.252 C 380.520 516.652, 378.459 519.204, 377.592 519.924 C 376.724 520.644, 375.542 522.986, 374.965 525.130 C 374.388 527.273, 372.585 530.542, 370.958 532.395 C 369.331 534.248, 368 536.492, 368 537.382 C 368 538.272, 367.578 539, 367.063 539 C 366.547 539, 366.369 540.500, 366.667 542.334 C 367.151 545.316, 366.777 546.008, 363.125 548.901 C 358.414 552.632, 349.031 556.271, 347.467 554.973 C 346.891 554.494, 343.963 554.312, 340.960 554.566 C 337.957 554.821, 332.307 555.201, 328.405 555.410 C 324.502 555.619, 320.352 556.388, 319.182 557.119 C 316.152 559.011, 313.021 566.966, 312.310 574.581 C 311.780 580.258, 311.980 581.482, 313.851 584.012 C 315.033 585.611, 316 587.578, 316 588.384 C 316 590.132, 323.961 597.974, 325.750 597.989 C 326.438 597.995, 327 598.473, 327 599.051 C 327 599.629, 328.688 600.774, 330.750 601.596 C 332.813 602.417, 335.400 603.456, 336.500 603.904 C 337.600 604.351, 340.670 604.801, 343.321 604.904 C 347.636 605.070, 349.001 604.518, 356.321 599.645 C 360.820 596.650, 365.804 592.734, 367.398 590.942 C 370.002 588.016, 370.419 587.853, 371.508 589.342 C 372.175 590.254, 372.984 591, 373.305 591 C 373.627 591, 375.951 593.138, 378.471 595.750 C 382.699 600.134, 383.011 600.808, 382.529 604.500 C 381.737 610.556, 386.402 620.897, 391.310 623.962 C 393.055 625.051, 393.129 624.899, 392.344 621.817 C 391.417 618.173, 391.435 607.838, 392.385 598.500 C 392.907 593.370, 393.483 592.045, 396.360 589.362 C 399.983 585.985, 406.715 584, 414.549 584 C 418.924 584, 419 583.943, 419 580.678 C 419 578.851, 419.733 575.205, 420.629 572.576 C 422.822 566.140, 422.066 556.305, 419.053 552.074 C 417.849 550.384, 416.282 549, 415.572 549 C 414.861 549, 413.430 547.798, 412.390 546.328 C 411.351 544.859, 408.301 541.371, 405.613 538.578 C 400.309 533.066, 395.870 524.672, 393.676 516 C 392.341 510.727, 392.137 510.487, 388.728 510.195 C 385.518 509.919, 384.880 510.314, 382.170 514.252" stroke="#daffff" fill="#daffff" fill-opacity="0.2" fill-rule="evenodd"/><path class="svg-region-OVl" d="M 542.150 425.006 C 539.868 426.660, 538 428.379, 538 428.826 C 538 429.274, 536.664 431.183, 535.031 433.070 C 530.950 437.785, 530.965 437.765, 526.483 444.373 C 519.384 454.839, 519.148 455.359, 519.073 460.691 C 519.033 463.546, 518.550 466.160, 518 466.500 C 517.450 466.840, 517 469.737, 517 472.938 C 517 478.680, 517.079 478.840, 522.996 485.078 C 526.294 488.554, 529.249 492.209, 529.563 493.199 C 529.878 494.190, 530.502 495, 530.951 495 C 532.376 495, 533.215 499.202, 533.944 510 C 534.747 521.880, 537.691 536.833, 539.604 538.747 C 540.306 539.449, 541.183 542.039, 541.553 544.502 C 542.282 549.369, 544 549.687, 544 544.954 C 544 542.600, 544.636 541.758, 547.250 540.653 C 549.917 539.526, 550.932 538.134, 552.910 532.890 C 554.236 529.376, 556.599 524.839, 558.160 522.809 C 559.722 520.778, 561 518.695, 561 518.180 C 561 516.506, 567.679 506.098, 571.387 501.993 C 573.374 499.794, 575 497.398, 575 496.670 C 575 495.941, 576.800 491.195, 579 486.122 C 581.200 481.050, 583 476.247, 583 475.450 C 583 474.652, 583.354 474, 583.788 474 C 584.221 474, 585.997 472.762, 587.733 471.250 C 590.692 468.673, 590.934 467.948, 591.564 459.750 C 592.146 452.177, 592.025 451, 590.665 451 C 589.790 451, 588.045 448.897, 586.726 446.250 C 585.423 443.637, 583.265 440.976, 581.929 440.335 C 580.593 439.695, 576.540 437.754, 572.923 436.024 C 569.306 434.293, 565.163 431.779, 563.717 430.438 C 562.271 429.097, 560.393 428, 559.544 428 C 558.695 428, 558 427.550, 558 427 C 558 426.450, 556.650 426, 555 426 C 553.333 426, 551.111 425.111, 550 424 C 547.404 421.404, 547.062 421.448, 542.150 425.006" stroke="#593939" fill="#593939" fill-opacity="0.2" fill-rule="evenodd"/><path class="svg-region-ODMl" d="M 532.964 574.369 C 531.013 576.192, 525.437 577.992, 521.601 578.035 C 519.895 578.055, 517.473 578.641, 516.217 579.338 C 514.961 580.036, 509.773 586.792, 504.688 594.352 L 495.443 608.099 496.151 616.963 C 496.682 623.603, 497.505 627.039, 499.430 630.656 C 502.463 636.354, 502.540 637.277, 500.303 641.065 C 499.369 642.645, 498.919 644.253, 499.303 644.637 C 500.474 645.807, 511.361 646.945, 512.483 646.014 C 513.082 645.517, 515.465 645.555, 518.037 646.103 C 524.534 647.489, 530.269 646.100, 531.006 642.963 C 531.418 641.209, 532.697 640.133, 535.451 639.224 C 541.123 637.352, 543.847 633.296, 540.092 632.314 C 536.083 631.266, 535.729 618.845, 539.496 611.419 C 540.869 608.714, 541.994 605.289, 541.996 603.809 C 541.998 602.329, 542.450 600.840, 543 600.500 C 544.289 599.704, 544.312 592, 543.026 592 C 541.581 592, 539 586.497, 539 583.416 C 539 579.476, 536.859 573, 535.556 573 C 534.936 573, 533.770 573.616, 532.964 574.369" stroke="#999999" fill="#999999" fill-opacity="0.2" fill-rule="evenodd"/>
    </svg>