<svg xmlns="http://www.w3.org/2000/svg" width="1078" height="1151" viewBox="0 0 1078 1151" version="1.1">
    <path class="svg-region-V" d="M 499.777 224.543 C 497.729 225.306, 492.534 226.372, 488.234 226.911 C 483.933 227.451, 479.167 228.366, 477.642 228.946 C 476.117 229.526, 472.929 230, 470.557 230 C 464.628 230, 460.549 231.908, 447.985 240.555 C 442.036 244.650, 436.507 248, 435.700 248 C 434.892 248, 430.506 249.865, 425.953 252.144 C 419.435 255.406, 415.689 258.253, 408.337 265.534 C 403.202 270.619, 399 275.420, 399 276.202 C 399 276.983, 398.193 278.495, 397.206 279.561 C 393.595 283.464, 388.091 293.667, 386.181 300 C 385.102 303.575, 383.090 309.279, 381.710 312.675 C 380.330 316.071, 378.892 320.681, 378.514 322.920 C 378.135 325.158, 377.415 327.243, 376.913 327.554 C 376.411 327.864, 376 329.235, 376 330.600 C 376 331.964, 375.113 334.300, 374.030 335.790 C 372.408 338.020, 371.963 340.714, 371.514 351 C 371.214 357.875, 370.268 366.200, 369.413 369.500 C 366.149 382.099, 366.281 383.928, 370.836 389.232 C 374.627 393.646, 379 401.766, 379 404.390 C 379 405.930, 380.122 407.014, 383.007 408.264 C 385.211 409.219, 387.798 410.018, 388.757 410.041 C 389.716 410.063, 392.058 411.413, 393.962 413.041 C 396.432 415.152, 398.475 416, 401.090 416 C 403.106 416, 406.273 416.616, 408.128 417.368 C 410.874 418.483, 418.642 418.622, 450 418.118 L 488.500 417.500 492.106 415.059 C 495.276 412.913, 502.148 403.653, 507.180 394.744 C 509.266 391.051, 515.698 385.071, 518.894 383.852 C 521.738 382.768, 525.819 383.955, 533.873 388.207 C 538.232 390.509, 540.364 391.065, 543.333 390.673 C 545.441 390.395, 547.434 389.900, 547.762 389.572 C 548.090 389.243, 547.603 387.390, 546.679 385.454 C 543.629 379.057, 544.741 376, 550.117 376 C 552.173 376, 556 368.758, 556 364.867 C 556 360.577, 560.441 355, 563.858 355 C 564.401 355, 566.174 356.117, 567.797 357.482 L 570.747 359.965 571.421 354.732 C 572.077 349.638, 577.402 332.503, 578.950 330.500 C 579.376 329.950, 579.993 327.426, 580.323 324.892 C 580.653 322.358, 582.740 314.809, 584.961 308.116 C 590.391 291.757, 590.472 285.747, 585.388 276.498 C 582.686 271.583, 580.804 269.431, 577.921 267.960 C 575.801 266.878, 573.586 265.095, 572.998 263.997 C 572.411 262.899, 571.126 262, 570.143 262 C 569.160 262, 564.813 259.054, 560.483 255.454 C 556.153 251.854, 550.896 247.945, 548.801 246.768 C 544.937 244.596, 537 233.853, 537 230.795 C 537 228.676, 532.342 225.757, 530.098 226.469 C 529.102 226.785, 525.410 226.294, 521.893 225.378 C 513.404 223.167, 504.383 222.826, 499.777 224.543" stroke="#dd8a8a" fill="#dd8a8a" fill-opacity="0.2" fill-rule="evenodd"/><path class="svg-region-SF" d="M 559.783 356.750 C 557.498 359.370, 556 362.615, 556 364.945 C 556 368.558, 551.942 376, 549.972 376 C 544.521 376, 543.723 378.858, 547.064 386.412 L 549.128 391.079 546.314 394.314 C 544.766 396.094, 541.415 399.191, 538.867 401.198 C 536.319 403.204, 533.163 406.788, 531.854 409.162 C 530.545 411.536, 528.579 413.647, 527.487 413.855 C 526.394 414.062, 525.169 414.742, 524.765 415.366 C 523.585 417.188, 523.890 422.814, 525.213 423.632 C 527.421 424.997, 535.353 426.199, 546.500 426.858 C 555.120 427.368, 558.411 427.995, 561.710 429.754 C 567.085 432.621, 569.123 432.579, 574.001 429.499 C 578.265 426.808, 579.657 423.649, 578.528 419.232 C 578.144 417.729, 577.854 415.207, 577.884 413.627 C 577.914 412.047, 577.529 409.988, 577.028 409.052 C 576.527 408.116, 575.825 401.313, 575.468 393.934 C 575.112 386.555, 574.611 380.180, 574.356 379.767 C 574.101 379.355, 573.697 376.467, 573.458 373.350 C 573.219 370.233, 572.343 366.931, 571.511 366.013 C 570.680 365.094, 570 363.173, 570 361.744 C 570 358.921, 565.942 355, 563.020 355 C 562.080 355, 560.623 355.788, 559.783 356.750" stroke="#8c6b55" fill="#8c6b55" fill-opacity="0.2" fill-rule="evenodd"/><path class="svg-region-DB" d="M 378.051 412.250 C 378.128 420.047, 379.544 429.561, 381.885 438 C 383.029 442.125, 383.973 447.358, 383.983 449.628 C 384.002 454.228, 386.255 460.461, 388.344 461.695 C 391.175 463.366, 398.757 482.080, 399.637 489.568 C 400.219 494.522, 399.908 495.562, 394.522 506.671 C 391.368 513.177, 388.385 519.282, 387.893 520.237 C 386.828 522.307, 384 530.382, 384.294 530.514 C 387.339 531.871, 390.444 534.896, 391.774 537.799 C 392.707 539.835, 394.939 543.477, 396.735 545.894 C 398.531 548.310, 400 550.843, 400 551.522 C 400 552.202, 401.368 553.324, 403.041 554.017 C 407.981 556.063, 413.777 560.709, 417.060 565.254 C 420.375 569.843, 421.267 570.131, 436.856 571.634 C 442.743 572.201, 443.360 572.495, 445.197 575.610 L 447.181 578.973 450.168 575.986 C 453.504 572.650, 455.165 572.289, 457 574.500 C 457.732 575.382, 459.947 576.009, 462.372 576.022 C 468.302 576.054, 474.127 579.074, 478.605 584.438 L 482.500 589.103 483.705 586.302 C 484.368 584.761, 484.930 581.669, 484.955 579.432 C 485.036 572.111, 491.743 552.266, 494.777 550.371 C 500.103 547.045, 506.172 547.964, 511.500 552.904 C 514.736 555.904, 518.139 557.443, 524.624 558.842 L 528.748 559.731 528.268 553.615 L 527.787 547.500 531.870 544.500 C 534.116 542.850, 535.963 541.163, 535.976 540.750 C 535.989 540.337, 536.672 540, 537.494 540 C 540.236 540, 538.627 535.538, 535.760 535.194 C 530.512 534.564, 529.589 532.082, 529.161 517.451 C 528.946 510.082, 529.041 502.974, 529.372 501.655 C 530.374 497.663, 543.885 492.798, 547.941 494.969 C 550.608 496.396, 550.819 493.961, 548.250 491.395 C 546.306 489.453, 545.272 481.867, 544.381 463 C 543.960 454.082, 543.448 451.051, 542.103 449.500 C 537.849 444.593, 537 442.110, 537 434.570 C 537 426.312, 536.076 425, 530.257 425 C 525.608 425, 523.671 422.946, 524.183 418.560 L 524.624 414.782 520.562 415.315 C 518.328 415.607, 514.012 416.404, 510.970 417.084 C 506.198 418.151, 505.034 418.100, 502.470 416.709 C 500.837 415.823, 498.523 414.570, 497.329 413.924 C 495.505 412.938, 494.627 413.130, 491.829 415.126 C 488.503 417.498, 488.467 417.501, 450 418.108 C 418.799 418.601, 410.861 418.459, 408.128 417.358 C 406.273 416.611, 403.106 416, 401.090 416 C 398.475 416, 396.432 415.152, 393.962 413.041 C 392.058 411.413, 389.600 410.060, 388.500 410.034 C 387.400 410.009, 385.211 409.315, 383.636 408.494 C 378.739 405.940, 377.995 406.441, 378.051 412.250" stroke="#e8b1e4" fill="#e8b1e4" fill-opacity="0.2" fill-rule="evenodd"/><path class="svg-region-IBl" d="M 496.464 549.401 C 494.497 550.258, 492.848 552.092, 491.780 554.612 C 488.078 563.344, 485.982 570.349, 485.449 575.771 C 485.139 578.922, 484.443 583.300, 483.902 585.500 C 483.080 588.840, 483.254 590.154, 484.959 593.461 C 486.081 595.640, 487 598.488, 487 599.791 C 487 601.924, 487.322 602.097, 490.250 601.532 C 500.410 599.571, 502.886 598.652, 506.380 595.544 C 508.450 593.703, 511.799 591.889, 513.822 591.513 C 515.845 591.138, 518.234 590.173, 519.131 589.368 C 520.027 588.564, 522.393 587.074, 524.388 586.057 L 528.014 584.208 528.626 586.648 C 528.963 587.989, 529.569 588.955, 529.972 588.794 C 531.220 588.294, 539.438 577.640, 540.611 575 C 542.833 570.003, 544.110 564.987, 543.437 563.898 C 543.006 563.201, 541.277 563.020, 538.810 563.414 C 535.732 563.907, 534.232 563.589, 531.946 561.962 C 530.338 560.817, 526.115 559.073, 522.562 558.088 C 519.009 557.103, 515.067 555.540, 513.801 554.615 C 512.535 553.690, 509.971 551.824, 508.102 550.467 C 504.326 547.725, 501.008 547.421, 496.464 549.401" stroke="#b10e0e" fill="#b10e0e" fill-opacity="0.2" fill-rule="evenodd"/><path class="svg-region-DMl" d="M 447.469 578.403 C 443.909 581.690, 440.027 584.260, 437.559 584.965 C 435.326 585.603, 431.475 586.838, 429 587.710 C 422.466 590.013, 406.893 591.922, 399.070 591.378 L 392.307 590.908 387.785 595.204 C 382.762 599.978, 378.699 607.052, 379.614 609.435 C 379.941 610.289, 379.262 612.804, 378.104 615.024 C 374.884 621.203, 375.790 628.091, 380.317 631.848 C 381.114 632.510, 383.463 635.952, 385.537 639.499 C 390.131 647.353, 392.309 648.304, 406.500 648.651 C 431.612 649.263, 467.186 648.946, 474 648.049 C 478.125 647.506, 481.792 647.048, 482.149 647.031 C 483.614 646.961, 487.407 638.099, 488.369 632.500 C 489.637 625.112, 489.492 608.077, 488.124 603.719 C 487.568 601.949, 486.621 598.591, 486.020 596.258 C 484.556 590.574, 475.970 580.344, 470.627 577.918 C 468.357 576.887, 464.643 576.034, 462.372 576.022 C 459.947 576.009, 457.732 575.382, 457 574.500 C 455.021 572.115, 453.689 572.660, 447.469 578.403" stroke="#68533d" fill="#68533d" fill-opacity="0.2" fill-rule="evenodd"/><path class="svg-region-PMl" d="M 368.132 622.166 C 366.279 623.902, 364.089 626.938, 363.265 628.911 C 362.442 630.885, 360.423 634.199, 358.780 636.275 C 356.078 639.689, 348.461 657.567, 347.606 662.500 C 347.153 665.111, 349.498 669.661, 351.982 670.990 C 353.495 671.800, 355.337 671.473, 360.046 669.559 C 366.944 666.756, 382.567 655.490, 383.572 652.594 C 383.936 651.546, 385.383 649.623, 386.788 648.321 L 389.342 645.954 387.013 641.727 C 385.732 639.402, 382.730 634.868, 380.342 631.651 C 377.651 628.026, 376 624.739, 376 623.008 C 376 620.552, 374.503 618.988, 372.168 619.005 C 371.801 619.007, 369.984 620.430, 368.132 622.166" stroke="#90cf92" fill="#90cf92" fill-opacity="0.2" fill-rule="evenodd"/><path class="svg-region-PCl" d="M 289.694 574.532 C 288.151 575.889, 285.984 577, 284.878 577 C 280.903 577, 279.288 578.768, 278.613 583.858 C 278.253 586.570, 277.319 589.321, 276.536 589.970 C 273.948 592.118, 270.884 603.499, 270.687 611.693 C 270.535 618.022, 270.923 620.346, 272.732 623.968 C 274.194 626.892, 274.625 628.775, 273.982 629.418 C 272.306 631.094, 272.895 634.160, 275 634.710 C 276.100 634.998, 277 635.596, 277 636.040 C 277 636.484, 278.112 638.169, 279.472 639.784 C 280.832 641.400, 281.693 642.973, 281.387 643.280 C 280.254 644.413, 284.388 651.197, 286.762 652.100 C 288.703 652.838, 288.978 653.322, 288.074 654.411 C 287.198 655.466, 287.309 656.166, 288.546 657.403 C 289.434 658.292, 290.595 658.750, 291.125 658.423 C 291.654 658.096, 293.212 658.564, 294.585 659.464 C 296.708 660.855, 297.597 660.913, 300.521 659.856 C 303.612 658.738, 304.188 658.827, 306.230 660.732 C 307.478 661.898, 309.669 663.142, 311.098 663.496 C 313.161 664.008, 313.604 664.620, 313.250 666.471 C 312.850 668.567, 313.392 668.962, 318.652 670.398 C 321.869 671.276, 325.850 672.417, 327.500 672.933 C 329.150 673.449, 333.227 674.392, 336.560 675.029 C 341.677 676.005, 343.213 675.938, 346.427 674.595 C 349.893 673.147, 350.167 672.758, 349.485 670.252 C 348.082 665.094, 348.616 658.526, 350.889 653 C 352.132 649.975, 353.556 646.189, 354.052 644.587 C 354.548 642.985, 356.145 639.956, 357.600 637.856 C 360.172 634.144, 360.201 633.942, 358.623 630.618 C 357.730 628.737, 357 626.456, 357 625.549 C 357 623.298, 359.825 618, 361.026 618 C 361.562 618, 362 617.362, 362 616.582 C 362 614.964, 356.076 611, 353.658 611 C 352.774 611, 351.403 609.747, 350.611 608.215 C 348.850 604.810, 345.907 603.257, 340 602.617 C 332.010 601.751, 329.249 600.854, 325.854 598.019 C 323.051 595.679, 322.363 594.239, 321.512 588.925 C 320.405 582.019, 321.193 582.806, 307.124 574.564 C 301.126 571.050, 293.667 571.036, 289.694 574.532" stroke="#465ee0" fill="#465ee0" fill-opacity="0.2" fill-rule="evenodd"/><path class="svg-region-Ol" d="M 701.298 228.105 C 698.565 228.695, 689.490 234.366, 685.500 237.976 C 684.400 238.971, 678.067 242.535, 671.427 245.896 C 664.787 249.256, 656.943 253.804, 653.996 256.003 C 651.050 258.201, 648.293 260, 647.870 260 C 646.734 260, 637.159 267.031, 633.500 270.553 C 631.754 272.233, 629.180 276.112, 627.778 279.173 C 626.377 282.235, 623.656 286.486, 621.732 288.620 C 617.626 293.176, 613.907 304.047, 612.022 317 C 611.342 321.675, 609.936 330.675, 608.897 337 C 607.859 343.325, 607.251 350.525, 607.546 353 C 607.841 355.475, 608.516 366.275, 609.046 377 C 609.576 387.725, 610.556 402.125, 611.223 409 C 611.891 415.875, 612.443 431.175, 612.450 443 L 612.464 464.500 607.232 487.282 C 604.354 499.812, 602 511.012, 602 512.172 C 602 513.331, 601.392 514.779, 600.650 515.390 C 598.057 517.521, 595.071 527.580, 593.939 538 C 592.864 547.885, 586.358 570.871, 583.904 573.450 C 583.407 573.973, 583 575.173, 583 576.117 C 583 577.061, 582.067 580.009, 580.927 582.667 C 577.332 591.052, 573.675 607.037, 573.818 613.750 C 573.891 617.234, 573.518 620, 572.975 620 C 572.439 620, 572 621.155, 572 622.566 C 572 623.977, 571.495 626.114, 570.877 627.316 C 569.564 629.870, 561.080 638, 559.728 638 C 559.219 638, 557.307 638.710, 555.478 639.577 C 551.731 641.356, 549.540 645.314, 548.586 652.033 C 547.745 657.956, 544.968 662.377, 538.263 668.470 C 534.380 671.998, 531.665 675.724, 528.907 681.310 C 526.769 685.638, 523.175 691.727, 520.918 694.840 C 515.289 702.606, 500.653 727.947, 498.761 733.203 C 496.287 740.074, 492.133 754.109, 491.126 759 C 488.243 772.997, 489.329 800.253, 493.345 814.696 C 495.400 822.084, 505.089 846, 506.027 846 C 506.459 846, 507.501 848.023, 508.344 850.495 C 510.982 858.238, 527.859 877.815, 535.120 881.555 C 536.979 882.513, 539.850 884.287, 541.500 885.499 C 543.150 886.710, 546.750 888.711, 549.500 889.945 C 552.250 891.180, 557.200 893.447, 560.500 894.983 C 565.668 897.389, 568.581 897.931, 581.500 898.895 C 600.554 900.317, 607.424 900.262, 623.500 898.559 C 634.972 897.344, 637.558 896.704, 645.500 893.107 C 650.450 890.865, 655.006 889.024, 655.625 889.015 C 658.352 888.978, 674.392 880.677, 685.500 873.556 C 688.250 871.793, 694.246 868.134, 698.825 865.425 C 703.404 862.716, 710.604 857.633, 714.825 854.129 C 719.046 850.625, 724.300 846.636, 726.500 845.264 C 728.700 843.892, 732.300 841.062, 734.500 838.974 C 736.700 836.887, 740.384 833.676, 742.686 831.839 C 744.988 830.003, 750.305 825.688, 754.501 822.250 C 758.698 818.813, 762.566 816, 763.098 816 C 764.344 816, 779.333 805.509, 781.060 803.428 C 781.783 802.557, 784.428 800.793, 786.937 799.508 C 793.329 796.236, 805.043 785.885, 812.512 776.910 C 814.156 774.935, 817.865 771.629, 820.755 769.563 C 823.645 767.496, 826.345 765.209, 826.755 764.479 C 827.165 763.749, 829.434 760.980, 831.797 758.326 C 836.384 753.175, 857.001 722.253, 856.998 720.529 C 856.998 719.963, 859.219 713.875, 861.935 707 C 864.650 700.125, 868.085 691.350, 869.566 687.500 C 872.586 679.653, 881.344 662.505, 885.311 656.674 C 886.742 654.570, 888.217 651.870, 888.588 650.674 C 888.959 649.478, 890.045 647.375, 891.001 646 C 891.958 644.625, 893.779 640.575, 895.049 637 C 896.319 633.425, 897.953 629.612, 898.679 628.527 C 899.406 627.443, 900 624.380, 900 621.723 C 900 618.939, 900.893 614.930, 902.107 612.265 C 904.211 607.647, 904.797 604.215, 907.018 583.500 C 907.667 577.450, 909.719 561.741, 911.578 548.591 L 914.959 524.683 913.962 501.091 C 913.414 488.116, 912.739 476.600, 912.462 475.500 C 912.184 474.400, 910.384 466.075, 908.461 457 C 905.183 441.526, 903.560 435.080, 897.641 414 C 894.706 403.550, 882.345 379.991, 873.392 367.785 C 869.876 362.992, 867 358.782, 867 358.429 C 867 357.611, 860.757 349.608, 859.782 349.175 C 859.378 348.996, 856.164 345.171, 852.638 340.675 C 849.112 336.179, 845.214 331.375, 843.976 330 C 842.738 328.625, 840.543 325.667, 839.099 323.427 C 837.655 321.187, 834.858 317.936, 832.884 316.203 C 830.910 314.470, 826.983 309.553, 824.158 305.276 C 813.013 288.407, 804.413 277.887, 790.264 263.813 C 774.958 248.588, 768.445 243.510, 759.032 239.464 C 755.989 238.156, 751.286 235.942, 748.581 234.543 C 745.875 233.144, 742.874 232, 741.911 232 C 740.949 232, 737.349 231.279, 733.910 230.399 C 727.056 228.643, 705.746 227.144, 701.298 228.105" stroke="#aa444d" fill="#aa444d" fill-opacity="0.2" fill-rule="evenodd"/><path class="svg-region-VOC" d="M 538.596 538.389 C 538.974 539.376, 538.688 540.016, 537.857 540.041 C 537.111 540.064, 534.587 541.812, 532.250 543.927 C 528.577 547.250, 528 548.324, 528 551.839 C 528 560.121, 532.147 564.480, 538.986 563.386 C 541.678 562.956, 543 563.116, 543 563.872 C 543 566.773, 544.725 564.422, 546.759 558.750 C 549.374 551.457, 549.825 542, 547.557 542 C 546.763 542, 545.505 541.132, 544.762 540.071 C 544.019 539.009, 542.188 537.834, 540.694 537.459 C 538.458 536.898, 538.087 537.063, 538.596 538.389" stroke="#ff8f93" fill="#ff8f93" fill-opacity="0.2" fill-rule="evenodd"/><path class="svg-region-OABl" d="M 582.100 470.250 C 581.632 471.488, 579.993 476.296, 578.456 480.935 C 576.055 488.188, 574.683 490.482, 568.661 497.315 C 564.810 501.686, 559.953 506.440, 557.868 507.881 C 555.782 509.321, 554.059 510.775, 554.038 511.110 C 554.017 511.446, 555.067 513.293, 556.371 515.214 C 558.113 517.782, 559.029 521.141, 559.827 527.887 C 560.424 532.935, 560.687 537.652, 560.412 538.368 C 559.794 539.978, 553.632 543, 550.966 543 C 549.275 543, 549 543.695, 549 547.963 C 549 552.509, 547.232 558.467, 543.455 566.651 C 542.655 568.384, 542 570.538, 542 571.436 C 542 573.441, 539.781 577.045, 534.795 583.139 C 530.333 588.592, 530.157 589.572, 533.485 590.407 C 535.047 590.799, 536.209 591.984, 536.614 593.599 C 537.512 597.175, 536.260 608.133, 534.464 612.433 C 533.641 614.401, 532.680 618.822, 532.327 622.256 C 531.974 625.690, 531.042 629.494, 530.255 630.709 C 529.344 632.115, 529.061 634.001, 529.477 635.894 C 530.103 638.743, 530.339 638.861, 535.045 638.651 C 539.062 638.472, 540.565 637.845, 543.277 635.216 C 545.102 633.447, 547.526 632, 548.663 632 C 549.800 632, 551.874 631.100, 553.273 630 C 554.671 628.900, 557.048 628, 558.555 628 C 560.182 628, 562.960 626.637, 565.397 624.643 C 567.654 622.797, 570.569 620.949, 571.877 620.536 C 574.044 619.851, 574.205 619.377, 573.711 615.142 C 573.084 609.766, 577.627 590.920, 582.906 577 C 590.075 558.094, 592.805 548.394, 594.023 537.500 C 595.207 526.904, 598.244 517.203, 600.888 515.569 C 602.816 514.378, 602.177 508.470, 599.898 506.407 C 597.273 504.032, 595 499.723, 595 497.121 C 595 496.033, 594.278 494.421, 593.395 493.538 C 592.390 492.533, 591.727 489.983, 591.622 486.716 C 591.530 483.847, 590.677 480.060, 589.727 478.300 C 588.777 476.539, 588 474.042, 588 472.750 C 588 468.159, 583.596 466.293, 582.100 470.250" stroke="#81244d" fill="#81244d" fill-opacity="0.2" fill-rule="evenodd"/><path class="svg-region-SOTl" d="M 541.500 494.718 C 535.610 496.149, 529.940 499.393, 529.372 501.655 C 529.041 502.974, 528.946 510.082, 529.161 517.451 C 529.493 528.807, 529.839 531.165, 531.431 532.924 C 532.465 534.066, 534.149 535, 535.175 535 C 537.098 535, 544.371 539.173, 545.427 540.883 C 545.755 541.413, 547.416 542.152, 549.119 542.526 C 552.625 543.296, 559.515 540.707, 560.451 538.268 C 560.763 537.453, 560.499 532.672, 559.863 527.643 C 558.949 520.424, 558.106 517.620, 555.853 514.320 C 554.102 511.754, 553 508.833, 553 506.758 C 553 502.694, 549.705 495.485, 547.453 494.620 C 545.703 493.949, 544.590 493.967, 541.500 494.718" stroke="#995b45" fill="#995b45" fill-opacity="0.2" fill-rule="evenodd"/><path class="svg-region-LBPCl" d="M 380.311 534.250 C 378.617 536.038, 376.616 539.258, 375.865 541.406 C 375.114 543.555, 373.712 545.520, 372.750 545.773 C 371.788 546.026, 371 546.575, 371 546.993 C 371 547.412, 368.863 548.644, 366.250 549.732 C 361.005 551.917, 354.089 551.760, 350.446 549.373 C 348.581 548.150, 348.111 548.253, 346.186 550.302 C 344.996 551.569, 342.168 556.182, 339.901 560.553 C 336.026 568.027, 335.809 568.887, 336.270 575 C 337.114 586.196, 342.362 599.651, 348.057 605.221 L 351.862 608.941 361.133 608.752 L 370.404 608.563 371.452 614.024 C 372.797 621.034, 374.854 621.613, 377.711 615.786 C 378.867 613.429, 379.798 610.286, 379.781 608.801 C 379.738 605.033, 384.179 597.865, 388.700 594.406 C 392.344 591.620, 392.973 591.493, 404 591.319 C 415.820 591.133, 421.172 590.357, 429 587.698 C 431.475 586.857, 435.300 585.627, 437.500 584.965 C 442.079 583.587, 446 580.395, 446 578.048 C 446 574.197, 443.210 572.252, 436.776 571.616 C 422.253 570.181, 420.547 569.798, 419.038 567.630 C 415.299 562.257, 409.680 557.192, 405.053 555.025 C 402.274 553.723, 400 552.125, 400 551.473 C 400 550.821, 398.511 548.310, 396.691 545.894 C 394.871 543.477, 392.785 540.022, 392.056 538.216 C 390.706 534.876, 386.681 531, 384.561 531 C 383.918 531, 382.006 532.462, 380.311 534.250" stroke="#daffff" fill="#daffff" fill-opacity="0.2" fill-rule="evenodd"/><path class="svg-region-PNl" d="M 159.327 603.881 C 156.521 606.224, 154 612.300, 154 616.718 C 154 620.922, 156.721 630.638, 158.778 633.781 C 159.599 635.036, 160.097 636.224, 159.885 636.422 C 159.673 636.620, 156.350 638.904, 152.500 641.499 C 148.650 644.093, 143.250 648.317, 140.500 650.885 C 137.750 653.453, 133.925 656.640, 132 657.966 C 128.163 660.610, 122.729 665.053, 111.110 675.045 C 106.925 678.645, 101.877 682.579, 99.894 683.788 C 93.256 687.833, 87.546 695.229, 79.658 710 C 75.399 717.975, 70.976 726.075, 69.831 728 C 65.762 734.835, 64.649 739.493, 63.739 753.500 C 62.393 774.224, 62.604 786.907, 64.415 793.974 C 65.287 797.377, 66 801.751, 66 803.695 C 66 805.638, 66.845 808.864, 67.878 810.864 C 68.911 812.864, 70.255 815.747, 70.865 817.270 C 72.356 820.990, 76.092 822.321, 81.189 820.949 C 84.100 820.165, 88.283 817.015, 96.601 809.343 C 102.880 803.551, 108.577 798.021, 109.259 797.055 C 109.942 796.089, 111.850 794.583, 113.500 793.709 C 116.860 791.930, 141.450 767.944, 147.247 760.791 C 149.307 758.248, 155.567 752.643, 161.157 748.334 C 166.747 744.025, 172.936 739.098, 174.910 737.384 C 176.885 735.671, 181.650 732.235, 185.500 729.749 C 189.350 727.263, 195.952 721.855, 200.172 717.730 C 206.711 711.340, 208.579 708.699, 212.813 699.866 C 215.545 694.165, 218.341 687.700, 219.024 685.500 C 220.751 679.946, 222.831 675.935, 225.510 673 C 230.299 667.752, 239.364 653.271, 241.633 647.244 C 246.169 635.192, 243.866 624.906, 235.896 621.626 C 233.478 620.631, 228.125 618.232, 224 616.294 C 219.875 614.356, 215.150 612.224, 213.500 611.555 C 211.850 610.886, 208.925 609.583, 207 608.659 C 205.075 607.735, 199.900 605.865, 195.500 604.504 C 188.705 602.403, 185.542 602.033, 174.500 602.048 C 163.425 602.064, 161.178 602.335, 159.327 603.881" stroke="#bbc0d1" fill="#bbc0d1" fill-opacity="0.2" fill-rule="evenodd"/><path class="svg-region-OVl" d="M 518.756 383.831 C 516.222 384.835, 508 392.170, 507.999 393.429 C 507.998 394.018, 506.962 395.704, 505.696 397.176 C 504.431 398.647, 502.529 401.460, 501.470 403.426 C 500.411 405.392, 499.198 407, 498.773 407 C 498.348 407, 498 407.450, 498 408 C 498 408.550, 499.295 409, 500.878 409 C 502.460 409, 504.315 409.675, 505 410.500 C 505.791 411.454, 508 412, 511.063 412 C 513.714 412, 516.160 412.450, 516.500 413 C 516.840 413.550, 519.796 414, 523.068 414 L 529.018 414 532.157 408.899 C 533.883 406.094, 536.949 402.601, 538.970 401.137 C 542.707 398.430, 549 391.792, 549 390.557 C 549 390.183, 546.981 390.180, 544.513 390.550 C 540.559 391.143, 539.029 390.736, 531.611 387.112 C 523.038 382.923, 521.829 382.614, 518.756 383.831 M 537 434.923 C 537 442.399, 537.193 443.099, 540.411 447.316 C 543.719 451.650, 543.839 452.129, 544.373 463.142 C 545.219 480.584, 546.369 489.992, 547.759 490.851 C 549.137 491.702, 551.772 500.009, 552.829 506.829 L 553.500 511.157 557.613 508.172 C 559.875 506.530, 564.864 501.625, 568.699 497.273 C 575.321 489.758, 575.862 488.760, 579.462 477.430 C 581.547 470.869, 583.656 464.702, 584.149 463.727 C 584.699 462.640, 584.650 461.214, 584.023 460.043 C 583.460 458.992, 583 456.505, 583 454.516 C 583 449.888, 580.488 445, 578.109 445 C 575.477 445, 570.987 441.197, 571.633 439.515 C 572.324 437.715, 568.992 432, 567.251 432 C 566.526 432, 563.713 430.875, 561 429.500 C 556.763 427.353, 554.720 427, 546.533 427 L 537 427 537 434.923" stroke="#593939" fill="#593939" fill-opacity="0.2" fill-rule="evenodd"/><path class="svg-region-ODMl" d="M 524.500 585.679 C 522.850 586.539, 520.600 588.052, 519.500 589.041 C 518.400 590.029, 515.841 591.144, 513.814 591.518 C 511.787 591.892, 508.343 593.727, 506.161 595.594 C 503.260 598.077, 500.405 599.365, 495.540 600.385 C 491.881 601.152, 488.736 601.942, 488.550 602.140 C 488.365 602.338, 488.692 606.949, 489.278 612.386 C 490.069 619.734, 490.042 623.395, 489.171 626.650 C 488.527 629.058, 488 632.423, 488 634.128 C 488 635.833, 487.015 638.981, 485.810 641.124 C 484.142 644.092, 483.898 645.298, 484.787 646.187 C 485.675 647.075, 486.394 646.953, 487.805 645.676 C 489.032 644.566, 491.391 644, 494.791 644 C 497.614 644, 504.498 643.026, 510.089 641.835 C 517.223 640.316, 520.729 639.970, 521.844 640.674 C 522.998 641.401, 524.333 641.146, 526.712 639.742 C 529.393 638.161, 529.880 637.369, 529.385 635.397 C 529.019 633.940, 529.417 632.013, 530.390 630.528 C 531.275 629.176, 532 626.520, 532 624.624 C 532 622.729, 532.894 618.326, 533.986 614.839 C 536.270 607.549, 537.547 597.316, 536.630 593.662 C 536.207 591.975, 534.918 590.798, 532.688 590.062 C 530.717 589.412, 528.995 587.985, 528.438 586.542 C 527.531 584.194, 527.402 584.166, 524.500 585.679" stroke="#999999" fill="#999999" fill-opacity="0.2" fill-rule="evenodd"/>
    </svg>