<svg xmlns="http://www.w3.org/2000/svg" width="1078" height="1151" viewBox="0 0 1078 1151" version="1.1">
    <path class="svg-region-V" d="M 504.500 224.559 C 502.300 225.435, 498.025 226.741, 495 227.461 C 491.975 228.181, 486.679 229.678, 483.230 230.787 C 479.782 231.895, 476.024 232.557, 474.878 232.258 C 473.733 231.958, 472.504 232.180, 472.148 232.751 C 471.791 233.321, 467.675 235.621, 463 237.861 C 458.325 240.101, 452.925 242.939, 451 244.168 C 439.874 251.273, 436.130 253.382, 432.850 254.391 C 429.369 255.462, 416.836 266.230, 402.807 280.202 C 395.913 287.069, 392.006 294.296, 391.985 300.217 C 391.969 305.040, 390.645 309.237, 384.827 322.907 C 382.605 328.128, 380.145 334.897, 379.361 337.950 C 378.578 341.002, 376.858 346.425, 375.541 350 C 367.146 372.785, 365.333 384.519, 368.542 395.312 C 370.912 403.282, 376.618 414.014, 381.138 419 L 385.216 423.500 404.363 423.479 C 419.426 423.463, 424.469 423.114, 428.005 421.844 C 430.477 420.956, 436.100 419.476, 440.500 418.555 C 454.397 415.648, 457.304 414.758, 465.500 410.902 C 475.281 406.300, 479.924 405.013, 486.764 405.006 C 489.659 405.003, 492.809 404.601, 493.764 404.114 C 497.711 402.100, 517.855 394.513, 530 390.466 C 534.036 389.121, 536.629 387.380, 539.742 383.928 C 546.375 376.572, 556.223 373.949, 560.022 378.526 C 561.700 380.549, 563 380.374, 563 378.126 C 563 373.907, 566.123 367.910, 570.570 363.588 C 575.818 358.487, 576.488 358.229, 577.931 360.750 C 580.506 365.248, 580.563 365.277, 583.620 363.697 C 585.206 362.876, 587.226 361.371, 588.107 360.352 C 589.668 358.547, 592 347.062, 592 341.180 C 592 339.566, 592.626 337.725, 593.391 337.090 C 594.156 336.455, 595.090 333.888, 595.465 331.386 C 595.840 328.883, 597.486 324.285, 599.122 321.168 C 600.759 318.051, 602.730 313.250, 603.503 310.500 C 604.276 307.750, 605.217 304.449, 605.593 303.164 C 606.392 300.441, 604.295 290.623, 602.142 287 C 599.891 283.213, 586.873 270.050, 583.745 268.398 C 582.229 267.598, 579.861 265.156, 578.482 262.972 C 577.103 260.787, 575.524 259, 574.973 259 C 574.038 259, 563.719 251.250, 561.500 248.881 C 553.761 240.620, 549.620 237.075, 547.047 236.510 C 545.370 236.142, 542.168 234.311, 539.931 232.442 C 535.236 228.520, 522.408 224.043, 514 223.392 C 510.405 223.113, 507.115 223.518, 504.500 224.559" stroke="#dd8a8a" fill="#dd8a8a" fill-opacity="0.2" fill-rule="evenodd"/><path class="svg-region-SF" d="M 570.397 363.409 C 565.103 368.688, 564.308 370.311, 562.998 378.513 C 562.400 382.255, 561.106 386.482, 560.121 387.908 C 559.137 389.334, 557.543 392.525, 556.579 395 C 555.616 397.475, 553.209 402.169, 551.231 405.432 C 548.661 409.670, 547.509 412.876, 547.195 416.660 C 546.782 421.643, 546.965 422.165, 550.284 425.484 C 552.225 427.425, 555.258 429.302, 557.025 429.655 C 559.135 430.077, 562.685 432.672, 567.369 437.216 C 571.291 441.022, 576.525 445.196, 579 446.492 C 581.475 447.788, 585.075 450.926, 587 453.466 C 592.005 460.067, 592.955 461, 594.678 461 C 595.695 461, 596 460.442, 595.581 459.350 C 595.232 458.442, 594.792 447.529, 594.603 435.100 C 594.414 422.670, 593.795 410.700, 593.229 408.500 C 592.010 403.766, 590.472 378.548, 590.778 368.307 C 590.896 364.350, 590.552 360.841, 590.014 360.509 C 589.476 360.176, 587.364 361.040, 585.320 362.428 C 581.863 364.777, 581.480 364.839, 579.803 363.321 C 578.811 362.424, 578 361.085, 578 360.345 C 578 357.880, 574.547 359.271, 570.397 363.409" stroke="#8c6b55" fill="#8c6b55" fill-opacity="0.2" fill-rule="evenodd"/><path class="svg-region-AAB" d="M 549.666 608.750 C 549.418 609.163, 548.919 611.709, 548.558 614.408 C 548.196 617.108, 547.473 620.116, 546.950 621.093 C 546.428 622.069, 546 624.037, 546 625.466 C 546 626.894, 545.325 628.322, 544.500 628.638 C 540.975 629.991, 543.602 633.570, 548.898 634.630 C 551.896 635.229, 552.592 634.762, 559.553 627.478 C 563.649 623.191, 567 619.101, 567 618.389 C 567 617.063, 565.851 616.117, 558 610.981 C 553.571 608.083, 550.554 607.275, 549.666 608.750" stroke="#7f3c1a" fill="#7f3c1a" fill-opacity="0.2" fill-rule="evenodd"/><path class="svg-region-DB" d="M 508 398.174 C 506.625 398.746, 503.250 400.117, 500.500 401.221 C 497.750 402.325, 494.719 403.627, 493.764 404.114 C 492.809 404.601, 489.659 405.003, 486.764 405.006 C 479.041 405.014, 475.003 406.226, 461.946 412.457 C 457.181 414.731, 453.438 415.805, 441 418.467 C 436.875 419.350, 431.025 420.827, 428 421.750 C 423.712 423.059, 418.374 423.437, 403.779 423.464 L 385.059 423.500 384.029 428.299 C 383.463 430.939, 383 434.499, 383 436.210 C 383 440.076, 377.934 445, 373.956 445 C 371.205 445, 366 449.240, 366 451.481 C 366 453.900, 369.658 456, 373.871 456 C 378.022 456, 378.126 456.087, 380.820 461.783 C 384.064 468.642, 387.420 473.678, 390.762 476.700 C 392.913 478.645, 393.242 479.923, 393.600 487.700 C 393.822 492.540, 394.190 499.743, 394.418 503.706 C 394.799 510.344, 394.602 511.258, 391.917 515.311 C 388.679 520.200, 387 527.301, 387 536.105 C 387 540.826, 387.280 541.830, 388.471 541.373 C 389.471 540.989, 390.503 542.037, 391.698 544.654 C 392.665 546.769, 394.366 549.653, 395.478 551.062 C 396.590 552.471, 399.300 556.858, 401.500 560.810 C 405.010 567.116, 405.976 568.129, 409.386 569.073 C 416.363 571.007, 425.730 577.811, 428.070 582.645 C 429.227 585.034, 430.601 587.254, 431.125 587.577 C 431.648 587.901, 434.336 587.586, 437.097 586.879 C 441.175 585.833, 442.501 585.832, 444.165 586.871 C 445.917 587.965, 446.478 587.864, 448.058 586.168 C 451.148 582.851, 456.480 581.595, 461.500 583 C 464.897 583.951, 466.624 583.949, 469.531 582.990 C 471.567 582.318, 475.456 581.982, 478.174 582.243 L 483.114 582.717 485.973 577.054 C 491.808 565.494, 501.785 556.794, 510.786 555.418 C 514.409 554.864, 515.283 554.259, 516.431 551.512 C 517.178 549.724, 518.642 547.640, 519.685 546.881 C 520.728 546.121, 522.628 544.008, 523.906 542.184 L 526.230 538.868 535.115 539.563 C 541.887 540.093, 544 539.963, 544 539.019 C 544 538.338, 541.710 535.275, 538.912 532.213 C 534.108 526.957, 533.858 526.418, 534.442 522.573 C 534.782 520.333, 535.390 515.442, 535.793 511.705 C 536.197 507.968, 537.070 504.575, 537.734 504.164 C 539.521 503.060, 541.996 495.330, 542.691 488.682 C 543.221 483.607, 543.738 482.496, 546.651 480.172 C 549.356 478.014, 550 476.794, 550 473.831 C 550 469.437, 547.784 460.109, 544.440 450.427 L 541.996 443.354 544.498 437.197 C 547.380 430.104, 547.641 425.470, 545.452 420.232 C 543.133 414.681, 540.314 412.183, 531.500 407.865 C 518.414 401.456, 514.221 399.166, 513.533 398.053 C 512.742 396.773, 511.295 396.805, 508 398.174" stroke="#e8b1e4" fill="#e8b1e4" fill-opacity="0.2" fill-rule="evenodd"/><path class="svg-region-IBl" d="M 508 555.869 C 503.349 557.047, 495.099 563.096, 491.715 567.811 C 487.802 573.262, 483 581.474, 483 582.712 C 483 583.183, 484.299 584.336, 485.887 585.274 C 489.230 587.249, 492.246 593.885, 491.865 598.424 C 491.522 602.508, 494.536 607, 497.619 607 C 498.932 607, 501.686 607.900, 503.739 609 C 508.195 611.388, 509.594 611.460, 513.364 609.494 C 516.595 607.809, 521.732 607.554, 525.185 608.907 C 530.098 610.833, 535.428 617.352, 537.358 623.797 C 538.531 627.714, 539.753 630, 540.674 630 C 543.420 630, 546 627.930, 546.015 625.715 C 546.023 624.497, 546.679 621.700, 547.471 619.500 C 548.264 617.300, 548.932 614.068, 548.956 612.317 C 549.014 608.137, 552.125 606.977, 555.864 609.741 C 559.761 612.622, 565.103 615.230, 565.761 614.572 C 566.525 613.809, 564.373 609.881, 561.484 606.766 C 560.206 605.388, 556.605 599.814, 553.482 594.380 C 550.360 588.946, 546.979 583.600, 545.969 582.500 C 543.531 579.844, 542 575.622, 542 571.554 C 542 567.496, 538.372 564.447, 529.500 561.051 C 526.200 559.788, 521.651 557.909, 519.390 556.877 C 515.218 554.971, 512.499 554.731, 508 555.869" stroke="#b10e0e" fill="#b10e0e" fill-opacity="0.2" fill-rule="evenodd"/><path class="svg-region-DMl" d="M 452.302 583.423 C 450.543 584.213, 446.943 587.145, 444.302 589.938 C 439.417 595.103, 436.585 596.329, 424.637 598.448 C 422.512 598.825, 419.840 600.003, 418.698 601.067 C 416.213 603.382, 414.148 603.550, 413.362 601.500 C 412.692 599.756, 408.899 599.501, 407.307 601.093 C 406.517 601.883, 405.610 601.862, 404.029 601.016 C 402.827 600.372, 401.233 600.081, 400.486 600.367 C 399.739 600.654, 397.958 599.969, 396.529 598.844 C 393.211 596.234, 390.211 596.926, 383.618 601.823 C 380.896 603.845, 377.280 606.192, 375.584 607.038 C 373.474 608.091, 372.588 609.197, 372.777 610.538 C 373.237 613.795, 373.147 616.336, 372.451 619.693 C 371.846 622.616, 372.073 623.005, 375.145 624.297 C 377.053 625.099, 383.029 630.594, 389 637.035 C 394.775 643.265, 400.327 649.069, 401.337 649.931 C 402.348 650.794, 405.063 655.330, 407.370 660.012 L 411.566 668.523 415.280 667.920 C 417.322 667.588, 419.818 666.570, 420.825 665.658 C 421.833 664.746, 423.320 664, 424.129 664 C 424.938 664, 426.041 663.559, 426.579 663.021 C 428.858 660.742, 452.614 660.148, 461.389 662.150 C 467.009 663.433, 495.309 662.440, 498.269 660.856 C 500.870 659.464, 500.052 652.756, 496.848 649.207 C 492.045 643.886, 491.451 641.585, 493.335 635.605 C 494.265 632.655, 495.047 627.375, 495.072 623.871 C 495.194 606.986, 495.087 605.754, 493.331 603.813 C 492.198 602.562, 491.671 600.585, 491.833 598.191 C 492.178 593.067, 488.420 586.143, 484 583.763 C 481.199 582.254, 479.302 582.001, 474.500 582.494 C 465.802 583.388, 463.951 583.408, 459.500 582.659 C 456.853 582.213, 454.418 582.472, 452.302 583.423" stroke="#68533d" fill="#68533d" fill-opacity="0.2" fill-rule="evenodd"/><path class="svg-region-PMl" d="M 362.810 623.813 C 359.621 626.497, 355 634.810, 355 637.863 C 355 638.924, 353.313 641.221, 351.250 642.966 C 349.188 644.711, 345.839 647.683, 343.809 649.569 C 341.778 651.456, 339.663 653, 339.109 653 C 338.555 653, 335.956 656.038, 333.335 659.750 C 330.713 663.462, 328.206 666.757, 327.763 667.072 C 326.199 668.183, 323.340 677.596, 323.165 682.206 C 323.030 685.780, 323.518 687.491, 325.247 689.500 C 327.204 691.776, 328.705 692.263, 336.502 693.154 C 358.243 695.638, 360.158 695.652, 365.309 693.360 C 367.954 692.183, 370.654 690.537, 371.309 689.703 C 373.501 686.910, 384.301 680.726, 389.997 679.001 C 393.097 678.062, 398.505 675.428, 402.015 673.147 C 405.526 670.866, 408.983 669, 409.699 669 C 411.711 669, 411.293 667.309, 407.380 659.617 C 405.389 655.702, 401.183 649.800, 398.034 646.500 C 394.884 643.200, 389.426 637.411, 385.904 633.635 C 374.931 621.871, 368.412 619.099, 362.810 623.813" stroke="#90cf92" fill="#90cf92" fill-opacity="0.2" fill-rule="evenodd"/><path class="svg-region-PCl" d="M 305 571 C 304.175 571.533, 299.675 571.981, 295 571.994 C 287.967 572.015, 285.637 572.451, 281.500 574.518 C 273.333 578.599, 268.471 582.636, 265.913 587.458 C 264.588 589.956, 263.165 592, 262.752 592 C 262.338 592, 262 592.678, 262 593.507 C 262 594.336, 260.933 597.149, 259.629 599.757 C 253.169 612.680, 253 613.184, 253 619.472 C 253 623.837, 253.458 626.135, 254.500 627 C 255.401 627.748, 256 629.935, 256 632.475 C 256 635.380, 256.770 637.768, 258.460 640.102 C 259.813 641.971, 261.797 645.075, 262.868 647 C 263.940 648.925, 266.208 651.822, 267.908 653.437 C 270.579 655.974, 271 657.071, 271 661.496 C 271 664.313, 271.592 667.428, 272.316 668.418 C 273.513 670.054, 274.171 670.106, 279.541 668.992 C 282.790 668.317, 285.913 667.587, 286.481 667.369 C 287.049 667.151, 287.961 667.989, 288.507 669.230 C 289.053 670.472, 290.400 671.634, 291.500 671.813 C 293.797 672.185, 303.820 676.765, 305.891 678.388 C 307.381 679.557, 310.818 680.114, 317.991 680.351 L 322.482 680.500 324.610 674.309 C 325.781 670.905, 327.360 667.471, 328.119 666.679 C 328.879 665.886, 331.477 662.485, 333.894 659.119 C 336.310 655.754, 338.699 653, 339.202 653 C 339.705 653, 341.778 651.456, 343.809 649.569 C 345.839 647.683, 349.188 644.711, 351.250 642.966 C 353.313 641.221, 355 638.922, 355 637.857 C 355 635.214, 358.678 628.079, 361.707 624.844 C 363.583 622.841, 364.014 621.611, 363.462 619.844 C 362.494 616.745, 357.354 610.852, 354.098 609.109 C 352.669 608.344, 349.890 606.278, 347.922 604.518 C 345.955 602.757, 342.888 600.458, 341.107 599.408 C 339.326 598.359, 336.278 595.106, 334.334 592.180 C 332.391 589.255, 330.173 586.620, 329.405 586.325 C 328.405 585.941, 328.175 584.757, 328.594 582.139 C 329.171 578.529, 329.128 578.474, 324.659 577.155 C 322.174 576.421, 319.262 576.099, 318.189 576.440 C 316.981 576.823, 316.034 576.532, 315.706 575.676 C 315.414 574.916, 313.322 573.327, 311.057 572.147 C 306.282 569.658, 306.897 569.774, 305 571" stroke="#465ee0" fill="#465ee0" fill-opacity="0.2" fill-rule="evenodd"/><path class="svg-region-Ol" d="M 710.139 242.963 C 708.841 244.083, 706.749 245, 705.491 245 C 704.233 245, 700.570 246.394, 697.352 248.099 C 694.133 249.803, 688.575 252.239, 685 253.512 C 681.425 254.785, 675.800 256.925, 672.500 258.267 C 669.200 259.608, 664.411 261.466, 661.858 262.394 C 657.153 264.106, 650.380 269.392, 639.500 279.842 C 634.644 284.507, 632.311 287.979, 627.263 298.053 C 619.757 313.032, 618.025 318.449, 618.010 327 C 618.004 330.575, 617.279 336.875, 616.399 341 C 615.035 347.396, 614.901 353.009, 615.489 379.132 C 616.172 409.512, 616.400 412.917, 619.487 439 C 621.999 460.221, 619.625 490.207, 614.460 502.500 C 613.766 504.150, 612.675 507.750, 612.034 510.500 C 611.394 513.250, 609.276 519.772, 607.327 524.994 C 603.918 534.131, 601.545 544.945, 598.990 563 C 597.754 571.738, 597.027 574.647, 592.583 588.630 C 591.163 593.102, 590 598.055, 590 599.637 C 590 601.219, 589.514 604.085, 588.921 606.007 C 588.328 607.928, 587.457 612.875, 586.986 617 C 585.862 626.845, 579.892 638.764, 571.711 647.500 C 569.650 649.700, 566.285 654.308, 564.232 657.740 C 562.180 661.173, 559.825 664.212, 559 664.494 C 558.175 664.777, 555.726 667.567, 553.557 670.694 L 549.614 676.381 549.410 692.940 C 548.674 752.547, 548.695 754.124, 550.264 755.692 C 551.097 756.526, 553.291 757.515, 555.139 757.891 C 558.386 758.551, 558.517 758.762, 559 764.133 C 559.275 767.191, 560.024 770.324, 560.665 771.096 C 561.306 771.868, 562.149 775.875, 562.539 780 C 562.971 784.564, 563.875 788.215, 564.849 789.327 C 566.302 790.986, 566.306 791.402, 564.891 793.867 C 564.034 795.360, 563.654 797.238, 564.045 798.041 C 567.553 805.231, 568.002 807.369, 567.455 814.307 C 567.143 818.263, 566.463 821.650, 565.944 821.833 C 565.425 822.017, 564.986 823.592, 564.968 825.333 C 564.932 828.976, 562.995 832, 560.699 832 C 559.829 832, 558.840 832.450, 558.500 833 C 558.160 833.550, 556.109 834, 553.941 834 C 551.773 834, 550 834.284, 550 834.632 C 550 834.980, 550.895 836.711, 551.988 838.480 C 554.079 841.865, 557 855.018, 557 861.056 C 557 867.238, 560.834 876.771, 564.419 879.506 C 571.289 884.746, 574.551 885.274, 601.500 885.509 C 615.250 885.629, 631.450 886.055, 637.500 886.457 C 647.191 887.100, 649.393 886.928, 656 885.012 C 660.125 883.816, 665.695 882.225, 668.378 881.476 C 671.060 880.727, 675.745 878.401, 678.788 876.307 C 681.831 874.213, 686.386 871.104, 688.910 869.397 C 693.136 866.540, 707.987 852.408, 714.078 845.446 C 715.496 843.826, 719.516 840.025, 723.012 837 C 726.507 833.975, 730.297 830.556, 731.433 829.402 C 732.570 828.248, 735.335 826.154, 737.579 824.748 C 739.822 823.341, 743.735 820.461, 746.273 818.346 C 753.624 812.221, 766.826 801.706, 770.307 799.204 C 772.063 797.942, 774.935 795.776, 776.689 794.392 C 783.357 789.130, 795.715 779.816, 801 776.068 C 808.789 770.544, 813.851 765.605, 829.605 748.160 L 843.457 732.821 855.347 709.160 C 861.886 696.147, 868.083 683.834, 869.118 681.798 C 870.153 679.762, 871 677.600, 871 676.993 C 871 676.387, 871.888 673.941, 872.974 671.558 C 874.059 669.175, 875.465 665.037, 876.097 662.362 C 876.729 659.688, 877.671 656.402, 878.189 655.059 C 878.707 653.717, 879.534 649.088, 880.026 644.773 C 880.518 640.458, 881.585 634.581, 882.396 631.714 C 885.488 620.790, 886.393 605.251, 886.169 566.942 C 886.048 546.286, 885.530 524.911, 885.018 519.442 C 881.771 484.765, 880.872 477.487, 879.019 470.873 C 868.096 431.885, 868.190 432.147, 856.847 409.131 C 850.784 396.828, 844.324 384.420, 842.493 381.556 C 840.661 378.693, 838.295 374.809, 837.235 372.925 C 825.617 352.284, 816.557 337.522, 812.360 332.397 C 810.512 330.140, 809 327.890, 808.999 327.397 C 808.999 326.904, 806.719 322.675, 803.933 318 C 801.146 313.325, 797.549 306.800, 795.939 303.500 C 788.301 287.846, 770.210 266.848, 757 258.305 C 753.975 256.348, 749.574 253.455, 747.221 251.874 C 744.867 250.293, 742.687 249, 742.375 249 C 742.064 249, 740.392 247.988, 738.661 246.750 C 735.627 244.581, 727.982 242.682, 717.500 241.493 C 713.387 241.026, 712.081 241.287, 710.139 242.963" stroke="#aa444d" fill="#aa444d" fill-opacity="0.2" fill-rule="evenodd"/><path class="svg-region-VOC" d="M 523.906 542.146 C 522.598 543.991, 520.284 546.553, 518.764 547.839 C 514.922 551.090, 515.054 554.955, 519.087 557.250 C 520.778 558.212, 522.830 559, 523.646 559 C 525.956 559, 535.269 563.125, 537.564 565.165 C 542.816 569.833, 545 565.825, 545 551.520 C 545 539.594, 545.839 540.505, 533.892 539.458 L 526.285 538.792 523.906 542.146" stroke="#ff8f93" fill="#ff8f93" fill-opacity="0.2" fill-rule="evenodd"/><path class="svg-region-OABl" d="M 588.180 473.970 C 586.939 475.649, 584.028 478.250, 581.712 479.752 C 579.395 481.253, 577.229 482.855, 576.897 483.312 C 576.565 483.769, 576.009 488.499, 575.662 493.822 C 574.938 504.909, 572.427 513.877, 568.922 517.887 C 566.825 520.286, 566.498 521.664, 566.486 528.144 C 566.476 533.722, 566.002 536.348, 564.625 538.449 C 562.781 541.265, 562.765 541.268, 554.693 540.595 C 550.247 540.224, 546.135 539.527, 545.555 539.045 C 544.822 538.437, 544.609 541.811, 544.856 550.099 C 545.154 560.099, 544.934 562.452, 543.493 564.651 C 541.274 568.037, 541.863 576.695, 544.575 580.559 C 547.933 585.343, 554.131 595.367, 556.067 599.146 C 557.094 601.151, 558.512 603.401, 559.217 604.146 C 564.794 610.033, 566.253 613.231, 566.314 619.699 L 566.375 626.201 569.831 625.640 C 571.732 625.332, 574.256 624.168, 575.441 623.055 C 576.627 621.942, 579.037 620.743, 580.798 620.390 C 583.223 619.905, 584 619.222, 584 617.575 C 584 616.379, 584.382 614.973, 584.850 614.450 C 586.682 612.401, 590.027 598.913, 591.532 587.500 C 592.403 580.900, 593.755 573.599, 594.537 571.276 C 595.572 568.202, 595.719 565.753, 595.078 562.276 C 593.505 553.736, 597.189 532.655, 601.301 526.675 C 604.045 522.684, 603.334 509.623, 599.986 502.500 C 598.503 499.346, 597.503 495.100, 597.276 491 C 597.079 487.425, 596.239 482.202, 595.411 479.394 C 594.582 476.585, 594.038 473.671, 594.202 472.917 C 594.813 470.110, 590.473 470.868, 588.180 473.970" stroke="#81244d" fill="#81244d" fill-opacity="0.2" fill-rule="evenodd"/><path class="svg-region-SOTl" d="M 546.077 480.589 C 544.174 482.190, 543 484.118, 543 485.641 C 543 490.422, 539.797 502.112, 538.025 503.795 C 536.822 504.938, 536.037 507.641, 535.640 512 C 535.315 515.575, 534.763 520.192, 534.414 522.261 C 533.717 526.387, 535.857 530.040, 542.818 536.606 C 545.827 539.444, 547.177 539.940, 553.509 540.533 C 557.495 540.907, 561.670 540.922, 562.788 540.567 C 565.717 539.638, 567.482 531.510, 566.465 523.632 C 566.030 520.259, 565.635 514.125, 565.587 510 C 565.480 500.794, 562.716 491.421, 558.776 486.909 C 557.169 485.068, 555.115 482.311, 554.212 480.781 C 552.165 477.317, 550.025 477.267, 546.077 480.589" stroke="#995b45" fill="#995b45" fill-opacity="0.2" fill-rule="evenodd"/><path class="svg-region-LBPCl" d="M 383.925 545.250 C 381.727 547.587, 379.664 550.737, 379.340 552.250 C 378.747 555.015, 375.789 556.085, 374.500 554 C 373.399 552.218, 370.839 552.934, 367.347 556 C 365.468 557.650, 363.541 559, 363.064 559 C 362.587 559, 361.284 560.548, 360.168 562.440 C 359.051 564.332, 356.195 567.101, 353.819 568.593 C 351.444 570.085, 348.283 572.136, 346.795 573.150 C 342.998 575.738, 335.358 578.184, 332.231 577.813 C 329.885 577.534, 329.507 577.935, 328.765 581.489 C 328.104 584.656, 328.259 585.716, 329.520 586.638 C 330.393 587.277, 332.546 589.817, 334.304 592.283 C 337.304 596.492, 344.899 603.028, 353.083 608.443 C 357.030 611.055, 361.674 616.190, 363.284 619.723 C 364.323 622.005, 368.297 622.835, 370.520 621.235 C 372.714 619.655, 373.976 615.068, 372.955 612.382 C 371.882 609.559, 373.113 607, 375.546 607 C 376.261 607, 378.871 605.455, 381.346 603.566 C 386.284 599.796, 391.266 597, 393.043 597 C 393.671 597, 395.321 597.894, 396.710 598.986 C 398.099 600.079, 399.675 600.701, 400.213 600.368 C 400.751 600.036, 402.282 600.348, 403.616 601.062 C 405.478 602.059, 406.314 602.086, 407.220 601.180 C 408.929 599.471, 413 599.696, 413 601.500 C 413 603.633, 416.639 603.361, 418.944 601.056 C 420.014 599.986, 422.601 598.808, 424.694 598.437 C 434.434 596.711, 439.611 594.851, 442.379 592.082 C 446.561 587.901, 445.428 585.494, 439.732 586.456 C 431.012 587.928, 430.845 587.874, 428.194 582.756 C 426.349 579.196, 424.186 577.033, 419.517 574.085 C 416.097 571.925, 411.544 569.682, 409.399 569.101 C 405.885 568.148, 405.075 567.255, 401.196 560.048 C 398.828 555.649, 396.457 551.783, 395.927 551.455 C 395.396 551.127, 393.838 548.640, 392.464 545.929 C 391.090 543.218, 389.506 541, 388.943 541 C 388.380 541, 386.122 542.913, 383.925 545.250" stroke="#daffff" fill="#daffff" fill-opacity="0.2" fill-rule="evenodd"/><path class="svg-region-PNl" d="M 250.060 616.343 C 249.197 618.612, 248.857 618.677, 239.334 618.383 C 227.819 618.027, 215.997 616.763, 214.319 615.709 C 213.670 615.301, 212.891 615.367, 212.590 615.855 C 212.288 616.342, 210.755 616.999, 209.183 617.313 C 207.611 617.628, 203.867 619.887, 200.863 622.334 C 194.571 627.459, 184.751 631.899, 174 634.479 C 169.875 635.468, 164.565 637.565, 162.200 639.139 C 159.835 640.713, 157.527 642, 157.072 642 C 156.617 642, 155.697 642.661, 155.026 643.468 C 153.551 645.246, 145.214 650, 143.571 650 C 142.924 650, 140.618 651.296, 138.447 652.879 C 136.276 654.463, 130.450 657.933, 125.500 660.590 C 116.254 665.554, 103.573 674.244, 96.500 680.463 C 94.300 682.397, 91.487 684.824, 90.250 685.857 C 89.013 686.890, 88 688.175, 88 688.712 C 88 690.543, 84.105 693.254, 82.410 692.604 C 79.955 691.662, 78 693.807, 78 697.442 C 78 699.582, 77.007 701.752, 75 704 C 73.350 705.848, 72 708.007, 72 708.798 C 72 709.589, 70.763 711.725, 69.250 713.546 C 65.189 718.434, 62 723.892, 62 725.955 C 62 726.954, 61.359 729.007, 60.575 730.517 C 59.165 733.236, 57.218 740.372, 54.986 751 C 53.851 756.407, 54.035 773.053, 55.327 781.974 C 55.684 784.435, 57.134 792.310, 58.551 799.474 C 61.519 814.490, 63.382 817.485, 70.407 818.538 C 74.637 819.173, 83.580 816.555, 89 813.096 C 91.827 811.291, 97.988 804.891, 97.995 803.750 C 97.998 803.337, 98.694 803, 99.543 803 C 100.391 803, 103.251 800.975, 105.897 798.500 C 108.543 796.025, 111.017 794, 111.396 794 C 114.051 794, 127.539 781.598, 130.111 776.792 C 130.893 775.332, 131.459 775.136, 132.470 775.975 C 133.494 776.825, 135.195 775.919, 139.857 772.040 C 143.187 769.268, 146.325 767, 146.829 767 C 147.333 767, 149.600 764.988, 151.867 762.529 C 154.134 760.070, 157.261 757.399, 158.817 756.595 C 160.373 755.790, 162.239 754.417, 162.964 753.543 C 163.689 752.670, 165.055 752.200, 166 752.500 C 166.945 752.800, 168.325 752.313, 169.068 751.418 C 169.810 750.524, 171.448 749.400, 172.707 748.921 C 174.047 748.412, 175.670 746.365, 176.624 743.981 C 177.787 741.074, 179.340 739.357, 182.058 737.970 C 184.152 736.902, 186.124 735.609, 186.441 735.095 C 186.758 734.582, 189.959 732.517, 193.554 730.507 C 197.148 728.497, 203.018 724.635, 206.598 721.926 C 210.177 719.217, 213.479 717, 213.934 717 C 215.402 717, 220 710.202, 220 708.032 C 220 702.296, 231.607 690.868, 243.169 685.219 C 247.919 682.898, 252.374 681, 253.069 681 C 253.765 681, 257.230 679.408, 260.769 677.463 C 265.664 674.772, 267.525 674.191, 268.542 675.035 C 270.474 676.638, 275.421 675.824, 275.797 673.841 C 275.970 672.928, 275.112 671.250, 273.890 670.112 C 272.235 668.570, 271.555 666.570, 271.225 662.271 C 270.854 657.453, 270.239 655.922, 267.501 653 C 265.697 651.075, 263.477 648.150, 262.568 646.500 C 261.659 644.850, 259.809 641.971, 258.457 640.102 C 256.770 637.769, 256 635.378, 256 632.475 C 256 629.935, 255.401 627.748, 254.500 627 C 253.478 626.152, 253 623.882, 253 619.878 C 253 613.798, 251.646 612.171, 250.060 616.343" stroke="#bbc0d1" fill="#bbc0d1" fill-opacity="0.2" fill-rule="evenodd"/><path class="svg-region-OVl" d="M 547.461 377.830 C 545.240 378.866, 541.640 381.724, 539.461 384.182 C 536.580 387.433, 534.001 389.148, 530 390.478 C 518.773 394.208, 513 396.511, 513 397.260 C 513 398.358, 518.003 401.301, 529.560 407.004 C 540.474 412.388, 543.082 414.559, 545.452 420.232 C 547.641 425.469, 547.380 430.104, 544.500 437.193 L 541.999 443.347 544.409 450.424 C 547.874 460.599, 550 469.576, 550 474.031 C 550 476.229, 550.586 478.246, 551.357 478.700 C 552.103 479.140, 554.715 481.975, 557.162 485 C 563.155 492.410, 565.422 499.282, 565.466 510.164 C 565.485 514.930, 565.857 519.187, 566.294 519.625 C 567.694 521.029, 571.776 514.690, 573.457 508.500 C 574.353 505.200, 575.426 498.258, 575.840 493.073 C 576.554 484.141, 576.748 483.538, 579.547 481.573 C 581.171 480.433, 584.405 477.587, 586.733 475.250 C 589.061 472.913, 591.408 471, 591.948 471 C 593.272 471, 595 467.620, 595 465.028 C 595 461.886, 583.256 448.325, 579.044 446.605 C 577.095 445.808, 572.350 441.959, 568.500 438.050 C 563.629 433.105, 560.347 430.633, 557.711 429.923 C 555.627 429.361, 552.477 427.611, 550.711 426.033 C 547.779 423.413, 547.503 422.657, 547.539 417.332 C 547.572 412.307, 548.160 410.518, 551.788 404.401 C 554.104 400.497, 556.518 395.772, 557.152 393.901 C 557.787 392.030, 559.071 389.375, 560.007 388 C 563.157 383.372, 563.283 380.415, 560.411 378.534 C 556.477 375.956, 552.003 375.713, 547.461 377.830" stroke="#593939" fill="#593939" fill-opacity="0.2" fill-rule="evenodd"/><path class="svg-region-ODMl" d="M 495.058 612.250 C 495.063 627.901, 494.847 630.907, 493.394 635.298 C 491.508 641.001, 492.052 643.840, 495.872 648.232 C 497.435 650.029, 499.031 653.222, 499.417 655.326 C 500.008 658.545, 500.704 659.381, 503.810 660.600 C 505.839 661.397, 508.175 662.433, 509 662.903 C 510.993 664.038, 515.672 661.609, 516.497 659.011 C 516.902 657.732, 518.009 657, 519.536 657 C 521.260 657, 521.775 657.423, 521.362 658.500 C 520.905 659.689, 521.670 660, 525.049 660 C 530.210 660, 536.105 656.118, 535.347 653.218 C 535.085 652.219, 535.569 649.398, 536.421 646.951 C 537.274 644.503, 537.993 641.600, 538.021 640.500 C 538.090 637.753, 540.202 634.500, 541.917 634.500 C 544.389 634.500, 544.217 632.188, 541.617 630.485 C 539.965 629.402, 538.386 626.664, 536.983 622.449 C 535.197 617.081, 534.044 615.409, 529.797 612.027 C 525.471 608.583, 524.042 608, 519.928 608 C 517.283 608, 514.861 608.415, 514.548 608.923 C 513.237 611.043, 508.137 611.111, 504.121 609.062 C 501.898 607.928, 498.949 607, 497.568 607 C 495.204 607, 495.056 607.309, 495.058 612.250" stroke="#999999" fill="#999999" fill-opacity="0.2" fill-rule="evenodd"/>
    </svg>