<svg xmlns="http://www.w3.org/2000/svg" width="1078" height="1151" viewBox="0 0 1078 1151" version="1.1">
    <path class="svg-region-V" d="M 492.146 222.157 C 489.775 223.164, 485.136 224.687, 481.837 225.542 C 478.538 226.397, 473.327 228.207, 470.258 229.565 C 467.189 230.922, 463.865 231.775, 462.873 231.460 C 461.699 231.087, 459.062 232.368, 455.336 235.121 C 450.462 238.722, 445.039 241.812, 422.820 253.649 C 421.346 254.434, 418.871 256.577, 417.320 258.410 C 415.769 260.243, 411.575 265.250, 408 269.536 C 404.425 273.821, 399.637 279.392, 397.360 281.914 C 391.495 288.411, 385.039 299.393, 385.194 302.609 C 385.324 305.313, 381.310 316.322, 377.212 324.500 C 375.282 328.350, 372.700 335.775, 371.472 341 C 370.244 346.225, 367.759 354.550, 365.948 359.500 C 362.828 368.033, 362.663 369.166, 362.773 381.323 C 362.894 394.642, 364.362 404.363, 366.662 407.079 C 367.398 407.947, 368 409.030, 368 409.484 C 368 409.939, 369.119 411.778, 370.486 413.571 C 371.854 415.363, 373.782 419.006, 374.771 421.665 L 376.570 426.500 383.035 426.571 C 386.947 426.613, 392.067 427.523, 396 428.874 C 404.902 431.932, 410.939 432.534, 416.430 430.913 C 418.944 430.171, 421 429.242, 421 428.849 C 421 428.456, 421.951 427.833, 423.113 427.464 C 424.275 427.095, 428.852 424.325, 433.283 421.307 C 437.714 418.290, 442.294 415.458, 443.461 415.015 C 444.628 414.571, 446.181 413.486, 446.914 412.604 C 447.646 411.722, 448.865 411, 449.622 411 C 450.380 411, 451 410.582, 451 410.072 C 451 408.017, 462.726 404.719, 473 403.884 C 483.681 403.016, 492.105 401.504, 495.236 399.893 C 496.191 399.402, 501.734 399, 507.554 399 L 518.134 399 521.317 395.674 C 523.068 393.844, 525.850 391.671, 527.500 390.844 C 540.560 384.299, 540.383 384.441, 544 377.630 C 548.959 368.291, 550.983 366.521, 556.432 366.758 C 560.851 366.950, 567.295 364.950, 568.491 363.015 C 568.836 362.457, 570.104 361.992, 571.309 361.982 C 572.514 361.972, 575.950 360.613, 578.945 358.962 C 581.940 357.312, 586.078 355.691, 588.139 355.362 C 591.750 354.784, 591.964 354.520, 593.944 348.213 C 595.075 344.610, 596 340.814, 596 339.777 C 596 338.056, 597.904 333.231, 601.596 325.596 C 602.368 323.999, 603 321.737, 603 320.569 C 603 319.401, 603.719 317.419, 604.597 316.164 C 606.022 314.130, 606.067 312.190, 605.011 298.224 C 603.842 282.769, 602.841 278.773, 599.430 275.942 C 598.494 275.165, 596.663 272.842, 595.361 270.779 C 594.058 268.716, 589.884 264.885, 586.084 262.264 C 581.236 258.921, 577.949 255.653, 575.064 251.307 C 570.007 243.690, 562.152 236.841, 554.684 233.539 C 551.583 232.167, 548.023 230.023, 546.774 228.773 C 539.635 221.629, 503.649 217.272, 492.146 222.157" stroke="#dd8a8a" fill="#dd8a8a" fill-opacity="0.2" fill-rule="evenodd"/><path class="svg-region-SF" d="M 584.500 355.732 C 583.400 356.007, 582.275 356.569, 582 356.981 C 581.104 358.325, 573.131 362, 571.111 362 C 570.029 362, 568.548 362.588, 567.821 363.306 C 567.095 364.024, 565.712 364.910, 564.750 365.275 C 563.311 365.819, 563 367.192, 563 372.994 C 563 379.071, 562.513 381.017, 559.491 387.018 C 557.561 390.850, 555.476 396.352, 554.858 399.243 C 553.898 403.733, 552.830 405.375, 547.534 410.500 C 541.414 416.423, 539.920 418.451, 538.046 423.379 C 537.189 425.633, 537.472 426.123, 540.795 428.122 C 542.833 429.348, 547.425 432.620, 551 435.393 C 560.793 442.988, 580.969 456, 582.953 456 C 585.840 456, 590.277 452.581, 591.647 449.302 C 592.467 447.341, 594.681 444.280, 596.568 442.500 C 600.432 438.856, 600.717 437.287, 598.345 432.700 C 597.435 430.940, 596.351 426.800, 595.936 423.500 C 594.563 412.578, 590.867 392.545, 590.035 391.514 C 589.585 390.956, 588.678 387.876, 588.021 384.669 C 587.007 379.728, 587.084 377.779, 588.522 371.910 C 589.456 368.100, 590.620 364.735, 591.110 364.432 C 591.599 364.130, 592 361.884, 592 359.441 C 592 355.235, 591.855 355.006, 589.250 355.116 C 587.737 355.180, 585.600 355.457, 584.500 355.732" stroke="#8c6b55" fill="#8c6b55" fill-opacity="0.2" fill-rule="evenodd"/><path class="svg-region-AAB" d="M 549.468 610.312 C 545.678 614.225, 544.151 616.662, 543.672 619.562 C 542.535 626.449, 542.904 629.904, 545 632 C 546.100 633.100, 547 634.450, 547 635 C 547 635.550, 547.900 636, 549 636 C 550.434 636, 551 636.667, 551 638.356 C 551 640.240, 551.552 640.730, 553.750 640.799 C 555.263 640.846, 559.269 641.187, 562.654 641.556 C 568.258 642.167, 568.909 642.038, 569.939 640.113 C 570.561 638.951, 571.901 638, 572.916 638 C 574.213 638, 575.839 635.819, 578.388 630.661 C 581.299 624.771, 581.884 622.648, 581.352 619.911 C 580.543 615.739, 577.269 611.658, 571.703 607.886 C 568.170 605.491, 566.473 605.033, 561.057 605.018 L 554.613 605 549.468 610.312" stroke="#7f3c1a" fill="#7f3c1a" fill-opacity="0.2" fill-rule="evenodd"/><path class="svg-region-APB" d="M 584.388 460.980 C 581.589 462.111, 578 466.767, 578 469.267 C 578 471.983, 574.478 477.482, 571.195 479.891 C 568.557 481.827, 568.536 481.928, 570.183 484.684 C 571.109 486.233, 572.551 487.935, 573.388 488.467 C 575.810 490.005, 580.524 484.957, 587.708 473.134 C 590.552 468.452, 593.612 466, 596.611 466 C 599.947 466, 599.588 464.329, 595.750 461.989 C 592.354 459.919, 587.977 459.530, 584.388 460.980" stroke="#ac7444" fill="#ac7444" fill-opacity="0.2" fill-rule="evenodd"/><path class="svg-region-DB" d="M 495 399.941 C 492.087 401.541, 484.052 402.955, 474.333 403.579 C 462.904 404.313, 454.581 406.910, 448.302 411.703 C 445.926 413.516, 443.617 415, 443.169 415 C 442.722 415, 439.013 417.305, 434.928 420.123 C 424.306 427.449, 414.960 432, 410.537 432 C 406.746 432, 398.900 430.084, 391.293 427.301 C 385.285 425.102, 382.286 426.156, 379.957 431.285 C 378.905 433.603, 378.034 436.560, 378.022 437.856 C 378.010 439.152, 376.619 441.956, 374.930 444.088 C 371.323 448.643, 370.944 452.528, 373.477 459 C 375.367 463.831, 375.970 474.973, 374.680 481.250 C 373.926 484.921, 373.972 485, 376.909 485 C 379.537 485, 379.990 485.428, 380.555 488.444 C 380.911 490.338, 380.639 495.039, 379.950 498.890 C 378.873 504.920, 378.910 506.214, 380.218 508.211 C 381.054 509.486, 382.074 512.098, 382.484 514.015 C 382.895 515.932, 383.680 518.058, 384.229 518.739 C 384.778 519.421, 384.931 521.552, 384.571 523.475 C 384.210 525.398, 384.386 527.852, 384.961 528.928 C 385.766 530.431, 385.318 533.013, 383.020 540.100 L 380.033 549.317 382.034 552.555 C 383.134 554.335, 385.039 556.046, 386.267 556.356 C 387.567 556.684, 389.835 559.131, 391.694 562.210 C 395.386 568.326, 405.317 579, 407.315 579 C 408.063 579, 412.422 580.882, 417.002 583.181 C 425.600 587.499, 435.014 589.404, 436.430 587.113 C 438.447 583.850, 447 589.613, 447 594.235 C 447 597.881, 447.748 598.071, 453.359 595.850 C 457.689 594.136, 460.235 593.871, 469.500 594.168 C 479.195 594.479, 481.064 594.837, 485.250 597.190 C 490.266 600.009, 490.542 599.777, 489.045 594 C 484.778 577.534, 484.024 574.004, 484.027 570.500 C 484.032 564.634, 484.928 563.856, 492.357 563.259 C 498.814 562.741, 499.084 562.604, 504.087 557.315 C 508.224 552.940, 509.067 551.478, 508.475 549.700 C 508.072 548.490, 507.537 545.435, 507.286 542.911 C 506.869 538.729, 507.109 538.086, 509.991 535.661 C 513.516 532.695, 515.425 532.448, 521.277 534.201 C 525.238 535.388, 525.322 535.358, 528.393 531.701 C 530.102 529.665, 532.063 528, 532.750 528 C 534.271 528, 534.322 526.573, 532.964 521.993 C 532.395 520.072, 531.749 514.419, 531.529 509.431 C 531.309 504.443, 530.831 499.176, 530.468 497.727 C 529.631 494.393, 533.360 482.697, 536.677 478.250 C 538.895 475.278, 539.567 475, 544.551 475 C 550.970 475, 551.364 474.019, 547.369 467.981 C 545.279 464.823, 544.859 463.254, 545.329 460.359 C 545.878 456.975, 545.564 456.377, 540.960 452.055 L 536 447.398 536 437.758 C 536 432.456, 536.424 427.856, 536.942 427.536 C 537.460 427.215, 538.178 424.994, 538.537 422.599 C 539.089 418.919, 538.781 417.626, 536.548 414.252 C 533.337 409.400, 528.162 405.129, 521.249 401.626 C 516.669 399.305, 514.929 399.007, 506.283 399.059 C 500.902 399.091, 495.825 399.488, 495 399.941" stroke="#e8b1e4" fill="#e8b1e4" fill-opacity="0.2" fill-rule="evenodd"/><path class="svg-region-IBl" d="M 503.756 557.358 C 499.212 562.621, 499.016 562.725, 492.669 563.234 C 489.116 563.520, 485.712 564.060, 485.104 564.435 C 483.374 565.505, 483.827 573.740, 486.097 582.500 C 487.238 586.900, 488.627 592.750, 489.185 595.500 C 490.521 602.091, 494.191 610.033, 497.556 613.616 C 499.046 615.202, 500.897 617.988, 501.669 619.806 C 502.658 622.134, 503.580 622.974, 504.787 622.648 C 505.729 622.393, 509.046 621.419, 512.158 620.484 C 519.434 618.298, 523.522 619.509, 529.448 625.607 C 531.797 628.023, 534.090 630, 534.545 630 C 534.999 630, 536.365 630.934, 537.580 632.075 C 539.504 633.883, 540.062 633.979, 541.916 632.825 C 543.570 631.796, 543.909 630.877, 543.434 628.710 C 543.098 627.175, 543.126 623.722, 543.495 621.036 C 544.027 617.171, 545.098 615.114, 548.629 611.173 C 551.084 608.434, 554.196 605.917, 555.546 605.578 C 559.912 604.482, 558.512 596.948, 552.665 590.073 C 547.523 584.027, 546.772 580.701, 548.423 571.292 C 549.389 565.788, 548.521 563.348, 545.312 562.542 C 543.873 562.181, 541.507 560.614, 540.055 559.059 L 537.415 556.233 528.647 557.319 C 521.956 558.148, 519.422 558.120, 517.953 557.203 C 516.894 556.541, 515.416 556, 514.669 556 C 513.921 556, 512.495 555.100, 511.500 554 C 510.505 552.900, 509.396 552, 509.036 552 C 508.676 552, 506.300 554.411, 503.756 557.358" stroke="#b10e0e" fill="#b10e0e" fill-opacity="0.2" fill-rule="evenodd"/><path class="svg-region-DMl" d="M 453 595.729 C 450.525 596.593, 446.250 598.726, 443.500 600.468 C 428.255 610.125, 421.805 611.840, 398.273 612.492 C 389.688 612.730, 385.099 613.303, 382.869 614.415 C 381.122 615.287, 379.090 616, 378.354 616 C 377.618 616, 375.813 617.350, 374.342 619 C 372.816 620.713, 370.668 622, 369.335 622 C 366.092 622, 366.027 626.642, 369.250 627.991 C 372.606 629.394, 374.133 630.944, 378.127 637 C 384.483 646.638, 387.276 652.068, 388.594 657.353 C 389.300 660.184, 390.561 664.300, 391.395 666.500 C 392.230 668.700, 392.932 671.502, 392.956 672.726 C 392.980 673.952, 394.556 676.367, 396.465 678.105 C 400.845 682.091, 402.338 686.336, 400.999 691.005 C 400.449 692.920, 400 694.889, 400 695.380 C 400 695.872, 403.013 696.032, 406.695 695.736 C 412.728 695.252, 413.650 694.880, 416.025 691.969 C 418.280 689.207, 419.446 688.675, 424.081 688.300 C 427.061 688.059, 430.400 687.437, 431.500 686.919 C 432.600 686.401, 440.700 684.097, 449.500 681.801 C 462.653 678.368, 467.197 677.614, 475.037 677.562 C 484.896 677.498, 490 675.793, 490 672.566 C 490 671.802, 491.310 670.076, 492.911 668.729 C 495.250 666.760, 495.960 665.165, 496.530 660.603 C 496.921 657.480, 498.202 653.480, 499.379 651.713 C 503.245 645.907, 504 643.020, 504 634.036 C 504 623.846, 501.923 617.622, 496.722 612.229 C 494.987 610.431, 492.869 607.068, 492.016 604.757 C 490.315 600.155, 486.053 596.665, 480.118 595.016 C 474.580 593.478, 458.215 593.908, 453 595.729" stroke="#68533d" fill="#68533d" fill-opacity="0.2" fill-rule="evenodd"/><path class="svg-region-PMl" d="M 365.939 628.573 C 365.288 629.358, 364.124 630, 363.353 630 C 362.582 630, 361.547 631.062, 361.053 632.359 C 360.504 633.804, 359.060 634.941, 357.328 635.293 C 355.355 635.694, 354.066 636.871, 353.063 639.184 C 351.228 643.421, 338.889 655.596, 332.474 659.500 C 326.843 662.927, 323.402 667.516, 321.854 673.667 C 321.106 676.637, 319.720 678.739, 317.284 680.597 C 312.979 683.880, 311 688.392, 311 694.921 C 311 701.377, 312.419 704.325, 317.081 707.556 C 322.100 711.034, 326.492 711.811, 338.500 711.343 C 356.747 710.632, 374.290 708.996, 375.450 707.899 C 375.972 707.404, 377.220 707, 378.222 707 C 379.225 707, 381.997 705.200, 384.384 703 C 387.108 700.489, 389.684 699, 391.303 699 C 392.721 699, 394.160 698.550, 394.500 698 C 394.840 697.450, 396.123 697, 397.352 697 C 399.150 697, 399.817 696.133, 400.777 692.545 C 402.404 686.461, 401.399 682.557, 397.271 678.933 C 394.564 676.556, 393.479 674.526, 392.366 669.755 C 391.580 666.385, 390.559 663.150, 390.099 662.564 C 389.638 661.979, 388.940 659.721, 388.547 657.547 C 387.702 652.869, 385.115 647.541, 380.026 640 C 377.985 636.975, 375.593 633.315, 374.711 631.866 C 372.627 628.446, 367.608 626.562, 365.939 628.573" stroke="#90cf92" fill="#90cf92" fill-opacity="0.2" fill-rule="evenodd"/><path class="svg-region-Fl" d="M 307.520 547.883 C 306.556 553.586, 314.935 570.062, 323.362 579.036 C 326.738 582.631, 330.730 587.906, 332.234 590.758 C 334.273 594.626, 336.051 596.487, 339.234 598.086 C 341.580 599.264, 344.935 601.304, 346.689 602.618 C 348.442 603.933, 350.137 604.587, 350.455 604.073 C 350.773 603.559, 350.669 602.913, 350.224 602.638 C 349.778 602.363, 349.476 596.917, 349.552 590.536 C 349.684 579.386, 349.794 578.824, 352.384 576.121 C 354.834 573.564, 354.995 572.935, 354.157 569.204 C 352.844 563.359, 349.336 559.493, 343.635 557.608 C 340.960 556.724, 338.162 556, 337.419 556 C 335.584 556, 328.840 552.824, 327.040 551.111 C 324.749 548.932, 319.390 547, 315.639 547 C 313.517 547, 311.995 546.429, 311.638 545.500 C 310.515 542.573, 308.190 543.919, 307.520 547.883" stroke="#5ca7a9" fill="#5ca7a9" fill-opacity="0.2" fill-rule="evenodd"/><path class="svg-region-PCl" d="M 299 545.476 C 297.075 546.801, 294.998 547.911, 294.385 547.942 C 292.434 548.043, 287.949 552.120, 285.471 556.045 C 284.153 558.133, 282.158 560.132, 281.038 560.488 C 279.917 560.844, 279 561.722, 279 562.440 C 279 564.107, 270.486 572, 268.689 572 C 267.943 572, 265.383 573.800, 263 576 C 260.617 578.200, 258.357 580, 257.979 580 C 257.600 580, 255.506 582.587, 253.326 585.750 C 248.613 592.585, 246.975 599.104, 247.710 608.095 C 248.136 613.313, 247.888 615.241, 246.522 617.326 C 244.394 620.574, 244.825 625.862, 247.965 635 C 251.819 646.214, 253.251 649.014, 256.674 652.019 C 258.503 653.625, 260 655.314, 260 655.773 C 260 656.232, 261.610 658.158, 263.578 660.054 C 267.694 664.018, 270.208 669.248, 269.490 672.355 C 268.650 675.989, 271.367 684.191, 274.047 686.114 C 276.112 687.596, 277.371 687.729, 282 686.958 C 289.162 685.765, 299.008 687.334, 304.482 690.542 C 306.788 691.894, 309.145 693, 309.719 693 C 310.293 693, 311.267 690.995, 311.884 688.545 C 312.696 685.321, 314.072 683.233, 316.861 680.992 C 319.372 678.974, 321.144 676.463, 321.945 673.788 C 323.890 667.297, 327.741 662.069, 332.711 659.174 C 339.241 655.369, 347.600 647.451, 352.161 640.750 C 354.793 636.883, 356.748 635, 358.131 635 C 359.372 635, 360.403 634.176, 360.730 632.923 C 361.029 631.781, 362.337 630.442, 363.637 629.948 C 364.937 629.454, 365.998 628.251, 365.995 627.275 C 365.980 622.265, 349.796 604.150, 340.445 598.677 C 335.616 595.850, 333.814 594.057, 331.544 589.816 C 329.978 586.892, 326.145 581.800, 323.025 578.500 C 315.802 570.859, 306.914 553.277, 307.270 547.336 C 307.476 543.899, 307.240 543.477, 305 543.283 C 303.625 543.164, 300.925 544.151, 299 545.476" stroke="#465ee0" fill="#465ee0" fill-opacity="0.2" fill-rule="evenodd"/><path class="svg-region-Ol" d="M 708.500 252.647 C 701.683 253.438, 694.202 255.344, 689.500 257.488 C 686.750 258.743, 682.925 260.486, 681 261.363 C 668.394 267.104, 657.923 274.525, 645.862 286.266 C 640.516 291.471, 638.003 294.711, 637.486 297.063 C 637.080 298.911, 635.727 302.016, 634.480 303.962 C 633.232 305.908, 631.917 309.300, 631.557 311.500 C 631.197 313.700, 630.075 318.200, 629.062 321.500 C 628.050 324.800, 626.287 333.125, 625.146 340 C 624.005 346.875, 622.769 354.075, 622.399 356 C 621.171 362.403, 621.535 406.086, 622.903 416.500 C 624.444 428.223, 624.915 490.861, 623.583 506.876 C 622.755 516.831, 620.773 522.645, 615.196 531.468 C 614.837 532.036, 613.708 534.975, 612.685 538 C 611.663 541.025, 610.257 544.175, 609.562 545 C 606.854 548.211, 604.011 554.804, 602.445 561.500 C 601.545 565.350, 599.735 572.100, 598.424 576.500 C 597.112 580.900, 594.719 589.450, 593.106 595.500 C 587.041 618.248, 585.944 621.488, 583.624 623.500 C 582.355 624.600, 579.806 628.200, 577.957 631.500 C 576.109 634.800, 574.013 638.095, 573.299 638.821 C 572.584 639.548, 572 640.569, 572 641.091 C 572 641.612, 569.699 646.643, 566.887 652.270 L 561.775 662.500 562.937 670.500 C 563.775 676.272, 565.318 681.007, 568.475 687.500 C 575.764 702.487, 580 713.388, 580 717.156 C 580 719.232, 580.850 721.811, 582.027 723.307 C 584.938 727.008, 587.024 732.459, 588.110 739.203 C 588.630 742.434, 590.453 747.743, 592.160 751 C 596.473 759.227, 598.293 770.946, 596.774 780.713 C 596.151 784.721, 595.246 788, 594.762 788 C 594.278 788, 594.149 788.432, 594.475 788.959 C 595.050 789.889, 593.703 792.927, 591.353 796 C 590.141 797.585, 589.435 802.283, 588.391 815.713 C 587.900 822.035, 588.117 824.835, 589.334 827.876 C 591.343 832.899, 590.255 849.436, 587.653 853.406 C 585.989 855.946, 585.326 864, 586.782 864 C 587.212 864, 588.175 866.138, 588.924 868.750 C 589.672 871.363, 591 874.327, 591.875 875.337 C 594.820 878.735, 602.077 883, 604.915 883 C 606.464 883, 608.964 883.971, 610.473 885.157 C 615.489 889.103, 620.951 888.753, 635.500 883.556 C 642.650 881.002, 651.200 877.952, 654.500 876.778 C 676.385 868.993, 699.985 854.909, 704.500 846.940 C 705.050 845.969, 706.860 843.673, 708.523 841.837 C 710.186 840.002, 712.636 836.925, 713.968 835 C 715.300 833.075, 717.990 829.641, 719.945 827.369 C 721.900 825.098, 725.268 819.923, 727.428 815.869 C 734.779 802.080, 748.702 785.229, 755.717 781.632 C 757.486 780.725, 760.857 778.153, 763.209 775.916 C 767.989 771.369, 786.991 761.224, 795.707 758.566 C 796.921 758.196, 802.171 754.809, 807.375 751.040 C 812.579 747.270, 817.790 743.884, 818.955 743.514 C 821.345 742.756, 827.768 736.578, 839.500 723.757 C 847.402 715.121, 848.003 714.139, 862.230 686.648 C 865.521 680.288, 869.921 665.367, 869.970 660.402 C 869.986 658.697, 871.531 653.072, 873.403 647.902 C 876.154 640.303, 876.927 636.435, 877.436 627.728 C 877.782 621.804, 878.587 615.729, 879.224 614.228 C 880.802 610.507, 881.482 557.951, 880.080 548 C 879.499 543.875, 878.554 535.100, 877.981 528.500 C 877.407 521.900, 876.518 515.375, 876.005 514 C 875.492 512.625, 874.383 505.048, 873.541 497.162 C 872.698 489.276, 871.788 482.466, 871.517 482.028 C 871.247 481.591, 870.567 477.999, 870.007 474.047 C 869.446 470.095, 867.693 463.819, 866.110 460.100 C 864.528 456.381, 862.912 451.800, 862.519 449.919 C 861.391 444.525, 854.111 427.846, 840.945 400.500 C 839.357 397.200, 835.965 389.775, 833.409 384 C 824.873 364.719, 811.594 338.403, 800.157 318.102 C 797.865 314.033, 795.337 308.507, 794.540 305.822 C 791.776 296.517, 772.330 272.434, 762.191 265.761 C 760.161 264.425, 755.999 261.667, 752.943 259.633 C 744.349 253.912, 736.646 251.989, 723 252.157 C 716.675 252.236, 710.150 252.456, 708.500 252.647" stroke="#aa444d" fill="#aa444d" fill-opacity="0.2" fill-rule="evenodd"/><path class="svg-region-VOC" d="M 528.279 531.630 C 525.723 534.501, 524.587 535.109, 522.779 534.572 C 516.013 532.564, 513.450 532.750, 510.201 535.484 C 507.617 537.659, 507 538.922, 507 542.042 C 507 548.150, 511.324 556, 514.688 556 C 515.424 556, 516.844 556.510, 517.842 557.134 C 519.711 558.301, 533.565 557.560, 535.615 556.184 C 536.175 555.808, 537.768 553.250, 539.155 550.500 C 540.542 547.750, 542.531 544.062, 543.575 542.305 C 545.465 539.124, 545.463 539.099, 543.199 536.305 C 541.949 534.762, 540.155 532.265, 539.213 530.756 C 536.657 526.663, 532.397 527.003, 528.279 531.630" stroke="#ff8f93" fill="#ff8f93" fill-opacity="0.2" fill-rule="evenodd"/><path class="svg-region-OABl" d="M 591.077 468.589 C 589.385 470.013, 588 471.740, 588 472.428 C 588 474.213, 583.262 480.606, 577.918 486.031 C 575.398 488.590, 573.001 491.542, 572.591 492.591 C 571.602 495.129, 569 512.476, 569 516.536 C 569 522.233, 565.250 535.105, 562.844 537.666 C 560.677 539.973, 560.156 540.064, 552.803 539.422 C 545.302 538.768, 545.012 538.824, 543.980 541.123 C 543.393 542.430, 541.608 545.750, 540.014 548.500 C 538.419 551.250, 537.089 554.048, 537.057 554.717 C 536.968 556.609, 543.842 563, 545.966 563 C 548.449 563, 549.347 566.066, 548.394 571.292 C 546.867 579.664, 547.558 583.754, 551.265 588.291 C 555.857 593.911, 558 598.256, 558 601.950 C 558 604.919, 558.126 605, 562.750 605.018 C 566.302 605.032, 568.560 605.755, 571.703 607.886 C 577.196 611.609, 580.996 616.204, 581.015 619.144 C 581.024 620.440, 581.439 622.146, 581.939 622.936 C 583.329 625.132, 585.771 622.606, 587.067 617.631 C 587.658 615.359, 589.196 609.900, 590.484 605.500 C 592.966 597.022, 599.144 573.547, 600.880 566 C 603.939 552.701, 605.598 548.094, 608.011 546.201 C 609.392 545.118, 611.343 541.816, 612.346 538.865 C 614.620 532.176, 615.644 529.960, 619.804 522.726 C 623.070 517.045, 623.115 516.801, 622.565 507.726 C 622.257 502.653, 621.560 498.353, 621.016 498.172 C 617.932 497.144, 615.829 493.839, 614.222 487.500 C 611.798 477.930, 608.631 472.746, 602.970 469.077 C 597.181 465.326, 595.058 465.239, 591.077 468.589" stroke="#81244d" fill="#81244d" fill-opacity="0.2" fill-rule="evenodd"/><path class="svg-region-SOTl" d="M 536.677 478.250 C 533.022 483.149, 529.662 494.268, 530.635 498.246 C 531.072 500.036, 531.293 503.007, 531.125 504.848 C 530.958 506.689, 531.363 512.014, 532.026 516.681 C 533 523.544, 533.734 525.684, 535.865 527.871 C 537.314 529.359, 540.075 532.412, 542 534.656 C 545.365 538.578, 545.792 538.762, 553.056 539.435 C 563.004 540.356, 564.204 539.378, 566.953 528.113 C 568.079 523.500, 569 518.220, 569 516.381 C 569 511.738, 570.956 499.393, 572.538 494.053 C 573.745 489.979, 573.685 489.366, 571.820 486.748 C 567.556 480.759, 554.389 475, 544.962 475 C 539.514 475, 538.931 475.229, 536.677 478.250" stroke="#995b45" fill="#995b45" fill-opacity="0.2" fill-rule="evenodd"/><path class="svg-region-LBPCl" d="M 379.649 559.516 C 378.803 562, 377.523 564.604, 376.805 565.302 C 375.417 566.651, 365.670 569.827, 360.239 570.698 C 357.049 571.210, 350.137 576.978, 349.871 579.350 C 349.353 583.977, 349.622 602.266, 350.213 602.632 C 350.619 602.883, 352.544 605.488, 354.491 608.421 C 356.438 611.354, 359.797 615.760, 361.956 618.212 C 365.286 621.996, 366.333 622.605, 368.866 622.233 C 370.509 621.992, 373.014 620.491, 374.434 618.897 C 375.854 617.304, 377.618 616, 378.354 616 C 379.090 616, 381.122 615.287, 382.869 614.415 C 385.110 613.298, 389.646 612.738, 398.273 612.516 C 413.656 612.119, 427.751 610.158, 431 607.963 C 432.375 607.034, 436.530 604.524, 440.233 602.387 C 446.417 598.817, 446.966 598.227, 446.983 595.151 C 447.007 590.520, 441.794 585.506, 438.059 586.567 C 431.520 588.425, 425.626 587.579, 417.481 583.615 C 413.092 581.479, 408.109 579.084, 406.409 578.294 C 403 576.709, 391.686 563.815, 390.566 560.239 C 389.856 557.970, 385.365 555, 382.644 555 C 381.811 555, 380.529 556.934, 379.649 559.516" stroke="#daffff" fill="#daffff" fill-opacity="0.2" fill-rule="evenodd"/><path class="svg-region-PNl" d="M 240.750 623.080 C 239.787 623.641, 239 624.732, 239 625.504 C 239 626.334, 237.478 627.195, 235.284 627.607 C 230.923 628.425, 223.344 631.635, 222.482 633.028 C 222.152 633.563, 220.931 634, 219.770 634 C 218.608 634, 216.844 634.736, 215.851 635.635 C 214.857 636.534, 212.902 637.396, 211.507 637.549 C 210.112 637.702, 207.021 638.970, 204.638 640.366 C 202.255 641.763, 199.224 643.114, 197.902 643.368 C 196.581 643.623, 193.827 644.544, 191.782 645.416 C 189.737 646.287, 186.916 647, 185.512 647 C 184.109 647, 180.157 648.150, 176.730 649.556 C 169.930 652.345, 165.102 653.538, 154.686 655.003 C 149.283 655.763, 144.442 657.664, 131.324 664.177 C 117.334 671.123, 114.416 672.965, 112.438 676.099 C 111.151 678.137, 108.214 681.311, 105.911 683.152 C 100.828 687.217, 89.686 698.322, 86.337 702.662 C 84.995 704.401, 81.670 710.862, 78.948 717.018 L 74 728.212 74 744.856 C 73.999 761.441, 74.010 761.523, 77.122 768 C 78.839 771.575, 80.910 775.915, 81.723 777.645 C 82.549 779.401, 82.907 781.719, 82.533 782.895 C 82 784.576, 82.285 785, 83.954 785 C 85.212 785, 86.496 785.995, 87.182 787.500 C 87.808 788.875, 88.699 790, 89.161 790 C 89.622 790, 90.900 790.900, 92 792 C 94.775 794.775, 99.562 794.495, 105.225 791.227 C 118.448 783.596, 133.710 773.547, 137.564 769.935 C 138.700 768.871, 140.189 768, 140.874 768 C 141.559 768, 144.543 765.708, 147.505 762.907 C 150.467 760.106, 153.314 758.076, 153.832 758.396 C 154.350 758.716, 155.359 758.273, 156.074 757.411 C 156.789 756.549, 159.508 754.763, 162.116 753.441 C 164.725 752.119, 167.168 750.537, 167.547 749.925 C 167.925 749.312, 171.018 747.562, 174.419 746.036 C 177.820 744.510, 182.380 741.597, 184.551 739.561 C 188.470 735.889, 206.366 723.665, 215.002 718.762 C 217.478 717.356, 221.456 714.472, 223.841 712.353 C 228.500 708.213, 238.127 702.407, 247 698.387 C 250.025 697.016, 254.300 695.027, 256.500 693.965 C 263.495 690.591, 268.162 689, 271.063 689 C 274.753 689, 275.540 687.540, 273.142 685.142 C 271.099 683.099, 268.675 674.010, 269.559 671.707 C 270.783 668.517, 267.807 664.070, 255.972 651.408 C 253.334 648.586, 251.647 645.483, 250.534 641.408 C 249.646 638.159, 248.038 633.575, 246.960 631.223 C 245.882 628.871, 245 625.834, 245 624.473 C 245 621.854, 243.627 621.404, 240.750 623.080" stroke="#bbc0d1" fill="#bbc0d1" fill-opacity="0.2" fill-rule="evenodd"/><path class="svg-region-OVl" d="M 549.909 368.816 C 548.272 370.292, 545.486 374.354, 543.717 377.841 C 540.398 384.383, 539.820 384.855, 528.597 390.176 C 525.901 391.454, 522.779 393.738, 521.659 395.250 C 520.540 396.762, 519.034 398, 518.312 398 C 515.677 398, 517.111 399.656, 521.662 401.866 C 528.033 404.962, 534.005 410.033, 537 414.891 C 539.560 419.044, 541 420.039, 541 417.657 C 541 416.918, 543.297 414.376, 546.104 412.009 C 551.984 407.051, 554.991 402.617, 554.996 398.895 C 554.998 397.463, 556.798 392.738, 558.996 388.395 C 562.526 381.419, 562.991 379.685, 562.988 373.500 L 562.984 366.500 557.934 366.316 C 553.713 366.162, 552.395 366.573, 549.909 368.816 M 536.667 427.667 C 536.300 428.033, 536 432.393, 536 437.355 C 536 447.354, 537.566 451.066, 543.129 454.259 C 545.745 455.761, 545.929 456.243, 545.397 460.197 C 544.918 463.761, 545.263 465.152, 547.409 468.294 C 548.834 470.381, 550 472.639, 550 473.310 C 550 473.982, 554.034 476.237, 558.964 478.321 C 566.299 481.421, 568.303 481.908, 569.995 481.003 C 572.916 479.439, 578 472.124, 578 469.485 C 578 466.511, 581.250 462.553, 584.949 461.021 C 589.902 458.969, 593.982 460.437, 600.197 466.505 C 607.208 473.350, 608.345 473.486, 607.428 467.367 C 606.651 462.184, 600.611 441.277, 599.598 440.265 C 598.653 439.319, 593.192 445.604, 591.556 449.520 C 590.224 452.708, 585.718 456, 582.687 456 C 581.910 456, 579.660 454.762, 577.686 453.250 C 575.712 451.738, 571.288 448.925, 567.855 447 C 564.422 445.075, 557.987 440.639, 553.556 437.143 C 549.125 433.647, 544.487 430.312, 543.250 429.733 C 542.013 429.153, 541 428.301, 541 427.839 C 541 426.844, 537.624 426.709, 536.667 427.667" stroke="#593939" fill="#593939" fill-opacity="0.2" fill-rule="evenodd"/><path class="svg-region-ODMl" d="M 513.450 619.912 C 512.928 620.413, 510.528 621.204, 508.117 621.670 L 503.734 622.517 503.921 632.593 C 504.116 643.115, 503.342 646.316, 499.428 651.161 C 498.026 652.897, 497.034 655.980, 496.576 660.029 C 495.990 665.214, 495.391 666.642, 492.937 668.706 C 491.322 670.066, 490 671.827, 490 672.620 C 490 673.414, 489.325 674.322, 488.500 674.638 C 487.675 674.955, 487 675.521, 487 675.897 C 487 676.643, 501.951 676.275, 508.750 675.361 C 511.293 675.019, 513 675.191, 513 675.788 C 513 677.372, 515.969 678.087, 518.009 676.995 C 519.105 676.409, 520.003 674.658, 520.187 672.749 C 520.473 669.783, 520.827 669.473, 524.250 669.190 C 528.372 668.848, 529.177 670.248, 526 672.232 C 524.113 673.411, 523.205 676, 524.679 676 C 526.165 676, 532.780 673.596, 537.714 671.263 C 541.567 669.441, 543.591 667.668, 545.464 664.471 C 548.479 659.327, 548.488 659.259, 546.250 658.743 C 544.850 658.420, 545.055 658.071, 547.280 656.996 C 550.091 655.637, 554.518 647.647, 553.433 645.891 C 553.130 645.401, 551.784 645, 550.441 645 C 547.688 645, 547.197 642.911, 549.500 641 C 551.721 639.157, 551.405 636, 549 636 C 547.900 636, 547 635.355, 547 634.567 C 547 632.678, 543.259 631.540, 541.593 632.923 C 540.619 633.731, 539.629 633.496, 537.734 632.005 C 536.332 630.902, 534.832 630, 534.400 630 C 533.969 630, 531.991 628.257, 530.005 626.128 C 524.322 620.033, 516.417 617.065, 513.450 619.912" stroke="#999999" fill="#999999" fill-opacity="0.2" fill-rule="evenodd"/>
    </svg>