<svg xmlns="http://www.w3.org/2000/svg" width="1078" height="1151" viewBox="0 0 1078 1151" version="1.1">
    <path class="svg-region-V" d="M 497.500 221.117 C 494.750 222.107, 490.883 222.936, 488.907 222.958 C 480.843 223.052, 469.569 228.295, 459.159 236.793 C 455.122 240.090, 450.426 243.065, 448.725 243.405 C 447.023 243.745, 444.927 244.609, 444.066 245.324 C 443.205 246.040, 440.475 247.475, 438 248.514 C 431.081 251.418, 412.138 267.014, 407.500 273.625 C 405.300 276.761, 401.556 281.760, 399.181 284.734 C 396.805 287.709, 394.211 291.984, 393.417 294.235 C 392.623 296.486, 391.588 298.816, 391.117 299.414 C 390.646 300.011, 389.694 302.300, 389.001 304.500 C 388.309 306.700, 387.157 309.625, 386.441 311 C 385.725 312.375, 383.697 316.875, 381.934 321 C 380.171 325.125, 377.851 330.489, 376.779 332.920 C 374.146 338.892, 369.127 354.351, 367.825 360.500 C 367.243 363.250, 366.301 366.077, 365.733 366.783 C 364.336 368.518, 362.155 381.452, 361.360 392.711 C 360.768 401.111, 361.006 403.681, 363.588 416.732 C 363.830 417.960, 365.482 420.547, 367.258 422.482 C 369.937 425.402, 371.179 426, 374.559 426 C 377.984 426, 379.143 426.577, 381.844 429.628 C 384.868 433.043, 385.303 433.214, 389.278 432.544 C 391.600 432.152, 395.750 431.695, 398.500 431.528 C 401.473 431.348, 407.553 429.558, 413.500 427.112 C 419 424.851, 424.007 423, 424.626 423 C 427.204 423, 436.972 417.921, 437.966 416.064 C 439.040 414.057, 446.494 395.964, 450.146 386.500 C 453.426 377.999, 459.082 364.809, 462.365 358 C 465.476 351.550, 465.573 351.463, 474.970 346.743 L 484.441 341.986 490.470 343.140 C 493.787 343.774, 496.646 344.410, 496.824 344.554 C 497.002 344.698, 498.229 350.140, 499.551 356.648 L 501.953 368.480 499.429 380.947 C 496.995 392.966, 496.964 393.594, 498.548 398.456 C 500.911 405.713, 501.451 406.125, 508.258 405.879 C 513.584 405.687, 514.982 405.134, 521.847 400.507 C 540.173 388.157, 544.074 385.098, 545.936 381.619 C 546.688 380.214, 549.060 377.902, 551.208 376.481 C 553.356 375.060, 560.185 368.773, 566.383 362.511 C 573.580 355.241, 578.710 350.867, 580.577 350.410 C 582.185 350.017, 584.772 348.639, 586.327 347.348 C 588.634 345.432, 590.312 345, 595.455 345 C 598.920 345, 603.325 344.344, 605.243 343.543 C 608.414 342.218, 608.793 341.619, 609.412 336.956 C 609.786 334.134, 610.462 331.077, 610.914 330.163 C 616.026 319.827, 617.567 307.795, 615.545 294.003 C 614.695 288.210, 614 282.222, 614 280.696 C 614 277.236, 611.218 271.723, 604.676 262.218 C 600.057 255.508, 596.027 252, 592.933 252 C 592.292 252, 588.782 249.392, 585.134 246.204 C 574.706 237.094, 570.502 234.088, 565.927 232.474 C 563.587 231.649, 561.162 230.550, 560.538 230.032 C 559.915 229.514, 555.601 227.885, 550.952 226.411 C 546.303 224.937, 542.072 223.342, 541.550 222.866 C 541.027 222.390, 539.002 221.997, 537.050 221.994 C 535.097 221.991, 531.909 221.547, 529.964 221.006 C 528.019 220.466, 521.044 219.865, 514.464 219.671 C 504.816 219.386, 501.532 219.666, 497.500 221.117" stroke="#dd8a8a" fill="#dd8a8a" fill-opacity="0.2" fill-rule="evenodd"/><path class="svg-region-SV" d="M 474.500 346.632 C 464.948 351.526, 464.730 351.740, 461.381 359.500 C 455.076 374.111, 451 383.881, 451 384.380 C 451 384.688, 449.954 387.317, 448.675 390.220 C 447.396 393.124, 445.640 397.300, 444.772 399.500 C 437.170 418.766, 437.570 418.192, 429.825 420.964 C 426.346 422.210, 421.587 423.913, 419.250 424.750 C 414.332 426.511, 414.030 427.237, 417.547 428.839 C 421.002 430.414, 427.651 430.276, 432.500 428.529 C 434.700 427.736, 438.210 427.068, 440.300 427.044 C 442.389 427.020, 445.398 426.328, 446.986 425.507 C 448.574 424.686, 450.477 424.246, 451.214 424.529 C 453.840 425.536, 462.473 425.708, 465.700 424.817 C 467.505 424.319, 471.061 422.111, 473.603 419.911 C 477.995 416.110, 478.454 415.946, 482.862 416.623 C 491.436 417.940, 496.248 417.419, 501.874 414.566 C 506.496 412.222, 508.415 411.849, 515.601 411.902 L 523.955 411.964 523.762 407.519 C 523.620 404.267, 524.170 402.261, 525.814 400.038 C 528.583 396.292, 528.091 396.244, 522.846 399.750 C 520.583 401.262, 517.554 403.285, 516.116 404.245 C 512.991 406.329, 502.781 406.676, 501.255 404.750 C 500.710 404.063, 499.515 401.200, 498.598 398.390 C 496.985 393.441, 497.012 392.884, 499.453 380.826 C 501.867 368.906, 501.912 368.045, 500.512 360.727 C 497.470 344.825, 497.241 344.294, 493.160 343.640 C 491.147 343.317, 488.150 342.821, 486.500 342.537 C 484.242 342.149, 481.273 343.162, 474.500 346.632" stroke="#c666b5" fill="#c666b5" fill-opacity="0.2" fill-rule="evenodd"/><path class="svg-region-SF" d="M 604 344 C 603.175 344.533, 599.497 344.976, 595.827 344.985 C 590.298 344.997, 588.669 345.404, 586.327 347.356 C 584.772 348.651, 581.813 350.022, 579.750 350.401 C 577.688 350.780, 576 351.517, 576 352.038 C 576 353.352, 556.643 372.522, 551.704 376.099 C 549.485 377.707, 546.659 380.480, 545.424 382.261 C 543.064 385.665, 540.206 388.145, 533.365 392.729 C 524.644 398.572, 521.561 405.575, 524.934 411.877 C 526.554 414.904, 534.089 418, 539.836 418 C 545.447 418, 550.203 421.079, 560.124 431.134 C 564.388 435.456, 567.792 438.015, 569.888 438.475 C 571.943 438.927, 575.182 441.317, 578.852 445.091 C 584.055 450.442, 584.992 451, 588.773 451 C 592.312 451, 593.168 450.581, 594.389 448.250 C 596.142 444.904, 601.358 439.931, 605.734 437.433 C 609.221 435.443, 612 430.696, 612 426.729 C 612 425.371, 611.100 421.443, 610 418 C 608.760 414.119, 608 408.986, 608 404.495 C 608 400.511, 607.354 395.419, 606.563 393.180 C 605.773 390.940, 604.842 383.796, 604.494 377.304 C 603.989 367.889, 604.192 364.387, 605.496 360 C 606.395 356.975, 607.381 351.913, 607.686 348.750 C 608.264 342.758, 607.481 341.750, 604 344" stroke="#8c6b55" fill="#8c6b55" fill-opacity="0.2" fill-rule="evenodd"/><path class="svg-region-AAB" d="M 577.715 572.700 C 575.543 575.594, 574.978 577.352, 575.150 580.673 C 575.422 585.930, 574.681 586.799, 561.888 596.232 C 556.503 600.202, 551.580 604.416, 550.949 605.595 C 549.633 608.055, 549.104 631.832, 550.323 633.750 C 550.860 634.594, 553.956 635, 559.856 635 C 568.505 635, 568.662 634.955, 575.316 630.585 C 579.014 628.156, 583.878 625.859, 586.125 625.479 C 589.856 624.849, 591.284 623.884, 594.651 619.719 C 595.285 618.936, 597.419 614.797, 599.395 610.521 L 602.987 602.747 602.002 591.624 C 601.460 585.506, 601.013 579.767, 601.009 578.872 C 600.994 576.140, 591.141 570.231, 585.500 569.572 C 580.635 569.004, 580.425 569.088, 577.715 572.700" stroke="#7f3c1a" fill="#7f3c1a" fill-opacity="0.2" fill-rule="evenodd"/><path class="svg-region-APB" d="M 588.500 466.420 C 586.850 467.158, 583.138 470.282, 580.250 473.362 C 575.282 478.661, 575.001 479.245, 575.014 484.231 C 575.037 493.098, 577.001 497.115, 578.464 491.286 C 579.346 487.772, 584.951 476.148, 586.108 475.433 C 586.599 475.130, 587 473.993, 587 472.907 C 587 471.711, 588.378 470.119, 590.499 468.868 C 592.423 467.733, 593.746 466.398, 593.439 465.902 C 592.719 464.737, 592.124 464.799, 588.500 466.420" stroke="#ac7444" fill="#ac7444" fill-opacity="0.2" fill-rule="evenodd"/><path class="svg-region-PC" d="M 537.214 603.786 C 530.820 610.180, 527.792 616.839, 530.044 619.553 C 530.741 620.393, 531.672 623.361, 532.113 626.148 C 532.943 631.404, 534.570 633.385, 538.990 634.519 C 540.359 634.871, 541.709 635.515, 541.990 635.951 C 542.270 636.387, 544.233 638.653, 546.351 640.987 C 549.866 644.859, 550.404 645.122, 552.506 643.997 C 553.773 643.319, 555.302 643.069, 555.905 643.441 C 556.507 643.813, 557.563 643.754, 558.250 643.309 C 558.938 642.864, 560.400 642.500, 561.500 642.500 C 562.992 642.500, 563.437 641.916, 563.253 640.200 C 563.065 638.451, 563.782 637.563, 566.253 636.490 C 569.362 635.138, 569.111 635.077, 560.357 635.039 C 553.371 635.009, 551.084 634.662, 550.664 633.568 C 549.578 630.737, 548.767 620.052, 549.505 618.295 C 549.919 617.308, 550.168 614.618, 550.058 612.318 C 549.948 610.017, 550.318 607.274, 550.882 606.221 C 552.434 603.320, 550.376 602, 544.300 602 C 540.546 602, 538.479 602.521, 537.214 603.786" stroke="#cda789" fill="#cda789" fill-opacity="0.2" fill-rule="evenodd"/><path class="svg-region-DB" d="M 508.500 411.949 C 506.850 412.252, 503.585 413.523, 501.245 414.773 C 496.779 417.159, 488.983 417.856, 481.854 416.506 C 478.631 415.896, 477.763 416.216, 474.354 419.264 C 468.369 424.618, 466.725 425.156, 457.192 424.889 C 451.957 424.742, 447.631 425.113, 446.316 425.822 C 445.114 426.470, 442.598 427, 440.725 427 C 438.851 427, 435.109 427.670, 432.409 428.489 C 426.055 430.417, 420.663 430.394, 416.852 428.424 C 414 426.948, 413.456 426.988, 408.390 429.045 C 403.441 431.053, 396.604 432.087, 386.750 432.316 C 384.688 432.363, 382.986 432.874, 382.969 433.451 C 382.952 434.028, 381.831 436.750, 380.478 439.500 C 379.125 442.250, 378.014 445.227, 378.009 446.115 C 378.004 447.003, 377.100 448.874, 376 450.273 C 373.824 453.039, 373.425 455.526, 375 456.500 C 375.550 456.840, 376 459.090, 376 461.500 C 376 463.910, 376.384 466.119, 376.852 466.409 C 377.321 466.699, 377.984 469.930, 378.326 473.591 C 378.669 477.263, 379.790 481.674, 380.826 483.430 C 381.860 485.182, 383.029 488.342, 383.425 490.453 C 383.821 492.565, 384.746 495.239, 385.481 496.396 C 386.215 497.553, 387.596 502.100, 388.550 506.500 C 389.504 510.900, 390.578 514.725, 390.937 515 C 391.296 515.275, 392.019 517.300, 392.545 519.500 C 393.070 521.700, 393.948 523.500, 394.496 523.500 C 395.044 523.500, 396.624 521.404, 398.008 518.842 C 401.435 512.495, 403.686 510.197, 409.217 507.392 C 416.284 503.808, 419.126 504.196, 424.661 509.500 C 427.244 511.975, 429.883 514, 430.524 514 C 431.165 514, 432.480 514.873, 433.446 515.941 C 435.993 518.755, 444.887 519.702, 449.086 517.607 C 453.151 515.579, 457.881 515.526, 458.638 517.500 C 459.610 520.032, 472.773 519.515, 479.777 516.669 C 484.312 514.826, 486.120 514.540, 488.407 515.302 C 491.805 516.435, 540.002 514.359, 541.363 513.022 C 542.738 511.670, 539.270 493.410, 537.088 490.512 C 536.669 489.955, 535.309 486.575, 534.065 483 C 532.822 479.425, 531.362 475.561, 530.821 474.413 C 530.102 472.889, 530.303 471.271, 531.564 468.413 C 532.514 466.261, 533.610 462.250, 533.999 459.500 C 534.750 454.199, 536.651 446.237, 538.209 441.865 C 538.725 440.415, 541.604 435.465, 544.605 430.865 L 550.063 422.500 547.476 420.250 C 545.702 418.707, 543.606 418, 540.810 418 C 535.575 418, 529.592 416.200, 527.096 413.875 C 525.025 411.946, 514.471 410.853, 508.500 411.949" stroke="#e8b1e4" fill="#e8b1e4" fill-opacity="0.2" fill-rule="evenodd"/><path class="svg-region-IBl" d="M 548.500 549 C 547.400 549.473, 544.587 549.891, 542.250 549.930 C 538.461 549.992, 538 550.258, 538 552.378 C 538 555.811, 535.345 561.654, 533.455 562.379 C 531.027 563.311, 526.196 563.126, 525.548 562.077 C 525.234 561.569, 523.740 560.882, 522.229 560.550 C 520.717 560.218, 518.652 558.721, 517.640 557.223 C 516.628 555.725, 514.674 553.656, 513.296 552.625 C 510.800 550.756, 510.763 550.763, 502.146 554.866 C 490.337 560.487, 487.310 563.130, 486.703 568.346 C 486.438 570.631, 485.203 575.200, 483.960 578.500 L 481.700 584.500 484.458 593.312 C 486.920 601.179, 489.857 606, 492.186 606 C 493.633 606, 501.091 613.276, 502.565 616.125 C 503.354 617.652, 504 620.048, 504 621.450 C 504 623.741, 504.390 624, 507.843 624 C 509.957 624, 514.345 624.915, 517.593 626.034 C 520.842 627.152, 525.604 628.693, 528.175 629.458 L 532.850 630.848 532.350 627.174 C 532.076 625.153, 531.169 621.874, 530.335 619.887 C 528.927 616.529, 528.963 616, 530.851 612.387 C 531.968 610.249, 534.282 607.038, 535.992 605.250 C 538.602 602.522, 539.827 602, 543.616 602 C 546.100 602, 548.920 602.422, 549.884 602.938 C 551.273 603.681, 553.854 602.221, 562.314 595.909 C 573.533 587.538, 576.457 584.353, 575.415 581.639 C 574.465 579.162, 575.691 575.520, 578.667 571.984 L 581.335 568.813 578.053 566.244 C 576.140 564.747, 573.617 561.103, 572.004 557.508 C 569.839 552.683, 568.470 550.976, 565.717 549.670 C 561.967 547.891, 551.986 547.502, 548.500 549" stroke="#b10e0e" fill="#b10e0e" fill-opacity="0.2" fill-rule="evenodd"/><path class="svg-region-MB" d="M 480 516.607 C 476.012 518.275, 472.477 518.920, 467.142 518.953 L 459.783 519 460.590 521.750 C 461.034 523.263, 461.420 535.625, 461.449 549.222 C 461.508 577.849, 461.013 576.396, 472.057 580.386 C 475.601 581.667, 479.201 583.019, 480.059 583.391 C 481.263 583.913, 482.230 582.576, 484.309 577.514 C 485.789 573.909, 487 569.598, 487 567.932 C 487 563.824, 490.369 560.957, 502.058 555.119 L 511.616 550.345 510.466 545.238 C 509.834 542.429, 508.637 539.089, 507.808 537.816 C 504.988 533.486, 503.475 525.342, 504.806 521.660 C 506.810 516.119, 506.668 516, 498.065 516 C 493.701 516, 489.088 515.619, 487.815 515.154 C 486.162 514.550, 483.927 514.965, 480 516.607" stroke="#f9c6c6" fill="#f9c6c6" fill-opacity="0.2" fill-rule="evenodd"/><path class="svg-region-LBl" d="M 409.557 507.047 C 403.876 509.881, 401.469 512.472, 397.116 520.435 C 393.701 526.681, 393.199 528.485, 392.786 536 C 392.447 542.151, 391.748 545.467, 390.256 548 C 386.941 553.627, 386.511 557.511, 388.935 559.935 C 390.071 561.071, 391 562.900, 391 564 C 391 565.612, 391.667 566, 394.433 566 C 396.987 566, 398.028 566.512, 398.500 568 C 398.849 569.100, 399.468 570, 399.875 570 C 401.031 570, 406.963 574.943, 413.062 580.988 C 420.872 588.728, 428.431 593.984, 430.137 592.860 C 431.983 591.644, 440.592 592.722, 445.500 594.782 C 450.173 596.745, 451.924 598.631, 451.968 601.750 C 452.009 604.644, 453.052 604.584, 457.706 601.421 C 460.590 599.461, 462.339 598.962, 465 599.339 C 466.925 599.611, 471.875 600.290, 476 600.846 C 480.125 601.403, 484.288 602.163, 485.250 602.536 C 487.622 603.455, 487.510 602.076, 484.423 592.364 C 481.599 583.478, 480.251 582.209, 471.266 579.981 C 468.937 579.404, 465.787 577.861, 464.266 576.552 L 461.500 574.173 461.500 548.336 C 461.500 525.475, 461.296 522.126, 459.724 519.250 C 457.667 515.485, 454.357 514.978, 449.066 517.617 C 444.961 519.665, 436.748 518.774, 433.720 515.953 C 432.566 514.879, 430.838 514, 429.879 514 C 428.920 514, 427.866 513.212, 427.537 512.250 C 426.538 509.327, 419.962 504.996, 416.589 505.040 C 414.890 505.062, 411.726 505.965, 409.557 507.047" stroke="#d7b230" fill="#d7b230" fill-opacity="0.2" fill-rule="evenodd"/><path class="svg-region-DMl" d="M 457 601.423 C 449.656 605.472, 439.747 609.769, 436 610.530 C 434.075 610.921, 431.305 611.851, 429.845 612.597 C 424.376 615.391, 409.198 618, 398.261 618.026 C 389.566 618.047, 386.080 618.523, 380.103 620.504 C 372.654 622.973, 368.593 625.532, 369.583 627.134 C 369.877 627.610, 370.922 628, 371.906 628 C 372.889 628, 375.261 629.462, 377.178 631.250 C 379.094 633.038, 382.723 636.379, 385.242 638.675 C 388.051 641.237, 391.452 645.986, 394.041 650.963 C 396.363 655.424, 400.115 661.196, 402.381 663.787 C 404.646 666.379, 408.731 671.875, 411.458 676 C 414.184 680.125, 418.122 685.118, 420.208 687.096 C 422.293 689.074, 424 691.607, 424 692.724 C 424 693.841, 424.675 695.315, 425.500 696 C 426.325 696.685, 427 697.913, 427 698.729 C 427 699.677, 427.577 699.993, 428.593 699.603 C 429.469 699.267, 431.381 698.708, 432.843 698.361 C 434.304 698.015, 436.175 697.167, 437 696.477 C 437.825 695.787, 440.525 694.742, 443 694.154 C 445.475 693.566, 452.225 691.473, 458 689.502 C 463.775 687.532, 470.940 685.450, 473.922 684.877 C 481.753 683.372, 491.534 678.463, 494.222 674.689 C 496.312 671.755, 496.534 670.134, 497.002 654.410 L 497.511 637.321 500.756 633.626 C 503.576 630.413, 504 629.210, 504 624.416 C 504 618.090, 502.551 614.791, 497.835 610.380 C 492.017 604.938, 485.761 601.997, 477.848 600.984 C 460.833 598.806, 461.783 598.786, 457 601.423" stroke="#68533d" fill="#68533d" fill-opacity="0.2" fill-rule="evenodd"/><path class="svg-region-PMl" d="M 364.389 629.491 C 358.311 632.409, 351.359 638.502, 344.500 646.921 C 341.750 650.297, 335.788 656.018, 331.250 659.633 C 326.712 663.249, 323 666.530, 323 666.925 C 323 667.319, 321.087 669.722, 318.750 672.264 C 309.943 681.841, 306.390 687.365, 304.171 694.931 C 302.002 702.329, 302.001 702.372, 303.962 704.460 C 306.212 706.855, 309 714.121, 309 717.591 C 309 721.659, 312.028 722.275, 334.526 722.780 C 352.507 723.183, 356.064 723.018, 358.694 721.658 C 360.391 720.781, 365.316 719.349, 369.639 718.476 C 373.963 717.604, 380.650 715.739, 384.500 714.333 C 388.350 712.927, 393.750 711.191, 396.500 710.475 C 399.250 709.758, 405.325 707.957, 410 706.472 C 414.675 704.986, 420.174 703.283, 422.219 702.687 C 424.265 702.091, 426.184 700.963, 426.484 700.180 C 427.254 698.174, 422.441 688.422, 419.750 686.538 C 417.445 684.923, 411.313 676.821, 408.369 671.500 C 407.456 669.850, 404.840 666.415, 402.556 663.866 C 400.271 661.317, 396.226 655.134, 393.567 650.126 C 390.120 643.635, 387.406 639.948, 384.116 637.283 C 381.577 635.227, 379.050 633.075, 378.500 632.499 C 373.389 627.150, 370.533 626.542, 364.389 629.491" stroke="#90cf92" fill="#90cf92" fill-opacity="0.2" fill-rule="evenodd"/><path class="svg-region-Fl" d="M 304.764 535.664 C 303.423 537.005, 302.812 537.089, 301.614 536.095 C 299.959 534.721, 296.199 536.108, 294.700 538.646 C 293.622 540.471, 287.551 540.369, 286 538.500 C 284.595 536.807, 281 536.461, 281 538.019 C 281 538.598, 279.954 538.776, 278.579 538.431 C 276.097 537.807, 272.499 539.780, 266.750 544.917 C 264.265 547.138, 264 548.023, 264 554.121 C 264 560.737, 264.053 560.873, 266.750 561.184 C 268.927 561.434, 269.567 562.086, 269.822 564.310 C 269.999 565.856, 269.636 567.733, 269.015 568.482 C 268.169 569.501, 268.211 570.365, 269.183 571.922 C 270.756 574.439, 271.768 574.520, 274.200 572.319 C 275.950 570.735, 276.146 570.763, 277.565 572.790 C 278.394 573.973, 280.861 575.477, 283.048 576.133 C 285.235 576.788, 287.524 577.926, 288.134 578.662 C 290.174 581.120, 294.006 580.282, 295.102 577.138 C 296.099 574.278, 299.535 572, 302.851 572 C 303.857 572, 306.506 574.640, 309.054 578.183 C 313.300 584.087, 327.714 598.961, 329.215 598.988 C 329.609 598.994, 331.409 600.289, 333.215 601.865 C 335.712 604.042, 337.940 604.895, 342.500 605.418 C 353.709 606.703, 354.863 607.059, 355.252 609.351 C 355.594 611.360, 355.706 611.319, 356.982 608.722 C 358.186 606.272, 358.088 605.151, 356.159 599.222 C 354.955 595.525, 353.978 590.603, 353.986 588.285 C 353.997 585.085, 353.519 583.813, 352 583 C 349.198 581.500, 349.180 573.841, 351.974 571.239 C 353.937 569.410, 353.937 569.379, 351.825 565.112 C 350.658 562.753, 348.983 560.571, 348.102 560.263 C 346.053 559.545, 342 555.914, 342 554.796 C 342 554.041, 336.573 547.211, 328.058 537.250 C 325.288 534.010, 325.252 534, 315.854 534 C 308.396 534, 306.081 534.347, 304.764 535.664" stroke="#5ca7a9" fill="#5ca7a9" fill-opacity="0.2" fill-rule="evenodd"/><path class="svg-region-PCl" d="M 249.199 559.527 C 247.555 562.911, 247 565.876, 246.999 571.277 C 246.998 575.250, 246.323 582.325, 245.500 587 C 244.677 591.675, 244.002 598.451, 244.001 602.059 C 244 606.276, 243.476 609.311, 242.532 610.559 C 240.327 613.473, 240.587 618.709, 243 620 C 244.100 620.589, 245 621.641, 245 622.339 C 245 623.037, 246.528 625.089, 248.396 626.899 C 250.264 628.709, 253.180 633.203, 254.877 636.885 C 257.403 642.364, 259.045 644.388, 263.928 648.039 C 269.104 651.911, 270.560 653.803, 274.946 662.365 C 277.726 667.790, 280 673.092, 280 674.147 C 280 675.201, 280.626 677.563, 281.391 679.395 C 282.659 682.428, 282.538 683.560, 280.033 692.112 C 278.521 697.276, 276.235 703.628, 274.953 706.228 C 273.672 708.828, 272.830 711.164, 273.084 711.417 C 273.679 712.012, 286.978 714.896, 293.685 715.884 C 296.537 716.304, 299.462 717.114, 300.185 717.685 C 300.908 718.255, 303.188 718.770, 305.250 718.830 C 308.267 718.918, 309 718.579, 309 717.095 C 309 714.039, 306.064 706.697, 303.936 704.432 L 301.941 702.308 304.512 694.335 C 307.019 686.564, 308.202 684.729, 318.822 672.141 C 324.458 665.461, 327.149 662.849, 332.878 658.500 C 340.606 652.634, 350.973 640.162, 350.988 636.715 C 350.995 635.183, 351.622 632.933, 352.383 631.715 C 353.216 630.380, 354.016 625.062, 354.395 618.332 L 355.026 607.165 352.263 606.635 C 350.743 606.344, 346.575 605.801, 343 605.428 C 336.192 604.719, 334.917 603.998, 325.727 595.668 C 323.402 593.560, 320.462 591.129, 319.193 590.266 C 317.925 589.402, 315.477 586.627, 313.754 584.098 C 308.439 576.296, 304.575 572.037, 302.797 572.018 C 299.558 571.984, 296.096 574.287, 295.102 577.138 C 294.006 580.280, 290.175 581.120, 288.137 578.665 C 287.527 577.930, 285.194 576.724, 282.952 575.984 C 280.591 575.205, 278.352 573.642, 277.635 572.272 L 276.395 569.906 274.542 571.953 C 273.524 573.079, 272.197 573.996, 271.595 573.992 C 269.971 573.981, 268.059 569.341, 269.206 568.194 C 269.729 567.671, 270.009 566.010, 269.828 564.502 C 269.543 562.118, 268.742 561.528, 263.671 559.965 C 260.466 558.976, 257.055 557.455, 256.093 556.584 C 253.240 554.003, 251.528 554.734, 249.199 559.527" stroke="#465ee0" fill="#465ee0" fill-opacity="0.2" fill-rule="evenodd"/><path class="svg-region-Ol" d="M 703 255 C 702.175 255.533, 699.732 255.976, 697.571 255.985 C 695.410 255.993, 692.260 256.420, 690.571 256.932 C 688.882 257.445, 685.475 258.449, 683 259.164 C 676.307 261.097, 665.996 268.622, 659.630 276.220 C 656.534 279.916, 654 283.421, 654 284.010 C 654 284.598, 653.164 286.749, 652.143 288.790 C 651.121 290.830, 650.028 294.165, 649.714 296.199 C 649.399 298.233, 648.447 301.383, 647.596 303.199 C 646.746 305.015, 645.347 308.518, 644.487 310.984 C 643.627 313.450, 642.157 316.600, 641.219 317.984 C 639.724 320.192, 636.820 328.995, 633.958 340 C 633.457 341.925, 633.030 345.525, 633.009 348 C 632.988 350.475, 632.215 354.525, 631.292 357 C 629.871 360.810, 629.633 365.336, 629.738 386.500 C 629.809 400.570, 630.392 414.779, 631.072 419 C 631.737 423.125, 632.477 430.280, 632.718 434.899 C 633.084 441.920, 632.853 443.725, 631.312 445.899 C 629.638 448.259, 629.533 449.841, 630.169 463 C 630.555 470.975, 631.401 481.100, 632.048 485.500 C 633.515 495.467, 633.584 499.392, 632.746 525.500 C 632.019 548.151, 631.222 552.188, 625.139 564 C 623.581 567.025, 621.708 571.075, 620.976 573 C 618.542 579.401, 606.702 599.265, 605.065 599.693 C 603.278 600.161, 602.649 601.755, 596.855 620.500 C 591.516 637.772, 591.070 638.557, 578.462 652.905 C 573.325 658.751, 569.755 663.758, 568.246 667.231 C 563.663 677.785, 560.569 703.775, 562.858 712.500 C 563.435 714.700, 565.287 721.675, 566.974 728 C 568.788 734.804, 570.644 745.422, 571.519 754 C 572.332 761.975, 573.428 770.525, 573.955 773 C 575.395 779.766, 575.194 792.515, 573.506 801.500 C 569.305 823.863, 569.038 826.516, 570.479 831.632 C 571.232 834.309, 572.606 839.200, 573.530 842.500 C 575.964 851.187, 584.178 862.907, 590.408 866.583 C 593.127 868.187, 597.341 870.993, 599.772 872.817 L 604.192 876.133 626.846 875.817 L 649.500 875.500 657.353 869 C 661.672 865.425, 667.972 860.798, 671.353 858.717 C 677.465 854.957, 680.640 851.947, 688.733 842.243 C 693.192 836.898, 704 821.477, 704 820.462 C 704 819.317, 709.550 812.422, 718.240 802.770 C 723.058 797.419, 727 792.577, 727 792.009 C 727 789.956, 742.257 775.070, 748.304 771.222 C 753.611 767.845, 786.294 748.602, 791.147 745.996 C 803.478 739.376, 813.294 733.428, 825.168 725.382 C 846.991 710.594, 853.591 705.362, 856.930 700.205 C 858.606 697.617, 861.088 693.925, 862.446 692 C 864.112 689.638, 865.267 686.062, 865.997 681 C 866.592 676.875, 867.728 669.450, 868.522 664.500 C 872.875 637.349, 873.402 610.183, 870.170 579.500 C 868.954 567.950, 867.510 551.300, 866.961 542.500 C 866.166 529.743, 865.073 522.547, 861.569 507 C 859.152 496.275, 856.462 483.900, 855.591 479.500 C 854.720 475.100, 852.484 466.550, 850.623 460.500 C 848.762 454.450, 845.979 445, 844.440 439.500 C 842.901 434, 840.655 427.475, 839.450 425 C 838.245 422.525, 836.910 419.376, 836.484 418.002 C 836.057 416.629, 833.751 411.454, 831.359 406.502 C 828.968 401.551, 827.008 396.942, 827.005 396.259 C 826.994 393.662, 818.967 374.137, 814.565 366 C 808.571 354.920, 803.096 343.290, 802.357 340.065 C 801.345 335.649, 794.325 323.552, 785.749 311.445 C 781.212 305.040, 776.935 298.767, 776.245 297.503 C 772.756 291.117, 745.007 266.809, 737.500 263.562 C 735.300 262.610, 732.719 261.420, 731.764 260.916 C 730.809 260.412, 729.234 259.988, 728.264 259.973 C 727.294 259.958, 723.363 258.608, 719.529 256.973 C 712.506 253.978, 705.817 253.179, 703 255" stroke="#aa444d" fill="#aa444d" fill-opacity="0.2" fill-rule="evenodd"/><path class="svg-region-VOC" d="M 517.859 514.746 L 506.218 515.062 505.482 518.281 C 503.995 524.783, 504.564 531.553, 506.980 536.108 C 508.262 538.524, 509.881 542.888, 510.579 545.808 C 513.117 556.435, 525.524 565.422, 533.455 562.379 C 535.196 561.711, 538 555.900, 538 552.960 C 538 551.972, 539.223 548.765, 540.718 545.832 C 543.920 539.549, 544.112 534.820, 541.602 524.139 C 540.650 520.091, 540.111 516.153, 540.404 515.389 C 540.826 514.289, 539.747 514.045, 535.219 514.215 C 532.073 514.333, 524.262 514.572, 517.859 514.746" stroke="#ff8f93" fill="#ff8f93" fill-opacity="0.2" fill-rule="evenodd"/><path class="svg-region-OABl" d="M 605.500 455.954 C 604.400 456.409, 602.375 458.003, 601 459.497 C 599.625 460.990, 597.487 462.603, 596.250 463.081 C 595.013 463.559, 594 464.660, 594 465.526 C 594 466.393, 592.425 467.760, 590.500 468.564 C 587.302 469.901, 586.491 470.985, 586.917 473.355 C 587.001 473.826, 586.651 474.726, 586.140 475.355 C 583.890 478.122, 580.149 486.015, 578.249 492 C 574.684 503.232, 570.045 524.455, 570.649 526.767 C 570.985 528.050, 570.339 530.876, 569.114 533.480 C 565.941 540.231, 566.361 545.343, 570.892 555.110 C 573.032 559.725, 575.856 564.496, 577.167 565.713 C 578.478 566.930, 582.413 568.660, 585.912 569.556 C 589.411 570.452, 594.125 572.523, 596.387 574.156 C 600.858 577.386, 601.705 580.113, 601.928 592 C 602.043 598.157, 603.084 600.565, 605.269 599.727 C 606.829 599.129, 618.718 578.913, 620.989 573 C 621.728 571.075, 623.786 566.575, 625.563 563 C 631.208 551.644, 633.658 541.832, 631.950 537.424 C 629.692 531.597, 627.031 519.254, 625.569 507.831 C 624.748 501.413, 622.990 491.738, 621.662 486.331 C 620.335 480.924, 618.657 472.477, 617.934 467.559 C 617.062 461.633, 616.008 458.008, 614.809 456.809 C 612.916 454.916, 608.901 454.547, 605.500 455.954" stroke="#81244d" fill="#81244d" fill-opacity="0.2" fill-rule="evenodd"/><path class="svg-region-SOTl" d="M 536.557 448.250 C 536.347 448.938, 535.687 451.030, 535.088 452.899 C 534.490 454.769, 534 457.824, 534 459.689 C 534 461.554, 533.100 464.844, 532 467 C 529.964 470.991, 529.359 475, 530.793 475 C 531.229 475, 532.128 477.028, 532.790 479.506 C 533.453 481.985, 534.928 485.997, 536.069 488.422 C 537.982 492.494, 540.348 500.445, 541.698 507.348 C 542.005 508.914, 541.711 511.847, 541.045 513.865 C 540.016 516.981, 540.148 518.796, 541.917 525.905 C 544.533 536.417, 544.525 536.755, 541.500 543.596 C 540.125 546.705, 539 549.463, 539 549.725 C 539 549.987, 541.138 549.929, 543.750 549.596 C 557.647 547.825, 561.862 547.785, 565.082 549.391 C 569.157 551.424, 569.289 551.409, 568.035 549.066 C 566.361 545.938, 566.842 539.239, 569.119 533.945 C 570.285 531.236, 570.994 528.083, 570.695 526.940 C 570.396 525.796, 571.470 519.605, 573.082 513.180 C 576.284 500.424, 576.626 496.542, 575.348 487.512 C 574.545 481.842, 574.257 481.364, 569.915 478.512 C 562.710 473.778, 559.940 470.158, 555.441 459.597 C 551.884 451.248, 546.953 447, 540.819 447 C 538.583 447, 536.776 447.530, 536.557 448.250" stroke="#995b45" fill="#995b45" fill-opacity="0.2" fill-rule="evenodd"/><path class="svg-region-LBPCl" d="M 382.748 562.321 C 380.134 564.070, 377.296 566.513, 376.441 567.750 C 375.361 569.313, 373.881 570, 371.592 570 C 369.193 570, 366.529 571.339, 361.782 574.933 C 358.198 577.646, 354.981 580.608, 354.633 581.515 C 353.388 584.759, 354.034 592.786, 356 598.500 C 357.100 601.697, 358 605.058, 358 605.969 C 358 606.879, 357.100 609.487, 356 611.764 C 354.600 614.662, 354 617.950, 354 622.729 C 354 627.291, 353.483 630.293, 352.442 631.779 C 350.917 633.956, 351.206 636, 353.040 636 C 353.546 636, 356.446 634.410, 359.483 632.468 C 362.520 630.525, 365.791 628.636, 366.753 628.271 C 367.714 627.905, 369.284 626.616, 370.242 625.406 C 371.280 624.094, 375.240 622.156, 380.053 620.603 C 386.659 618.472, 390.063 617.997, 398.812 617.983 C 410.746 617.964, 421.489 615.934, 435 611.146 C 451.126 605.431, 453.363 603.717, 451.393 598.581 C 449.982 594.905, 434.298 590.700, 430.192 592.897 C 428.657 593.719, 427.908 593.593, 426.870 592.343 C 426.133 591.455, 423.723 589.602, 421.515 588.227 C 419.307 586.851, 415.250 583.409, 412.500 580.578 C 407.171 575.092, 401.093 570, 399.875 570 C 399.468 570, 398.849 569.100, 398.500 568 C 398.028 566.512, 396.987 566, 394.433 566 C 391.517 566, 391 565.653, 391 563.700 C 391 561.560, 389.310 558.908, 388.050 559.071 C 387.748 559.110, 385.361 560.573, 382.748 562.321" stroke="#daffff" fill="#daffff" fill-opacity="0.2" fill-rule="evenodd"/><path class="svg-region-PNl" d="M 236.053 619.835 C 233.279 622.473, 229.922 624.466, 226.623 625.431 C 221.644 626.888, 218.498 628.665, 203.142 638.694 C 199.095 641.337, 195.270 643.783, 194.642 644.130 C 192.117 645.523, 183.345 648.010, 180.973 648.005 C 179.582 648.002, 177.557 648.611, 176.473 649.358 C 175.388 650.104, 172.700 651.278, 170.500 651.965 C 168.300 652.653, 164.061 654.564, 161.080 656.212 C 158.100 657.860, 153.518 659.845, 150.900 660.622 C 148.281 661.400, 143.663 664.053, 140.637 666.518 C 137.611 668.983, 134.609 671, 133.967 671 C 133.325 671, 130.762 673.009, 128.271 675.465 C 125.780 677.920, 121.559 681.408, 118.890 683.215 C 116.221 685.022, 113.774 687.288, 113.451 688.250 C 113.129 689.212, 111.996 690, 110.933 690 C 109.870 690, 109 690.671, 109 691.491 C 109 692.312, 107.431 695.124, 105.514 697.741 C 103.597 700.359, 101.377 703.400, 100.580 704.500 C 99.142 706.486, 99.120 706.484, 97.509 704.250 C 96.617 703.013, 94.956 702, 93.818 702 C 92.041 702, 91.837 702.434, 92.367 705.086 C 93.469 710.597, 87.905 723.295, 85.137 721.585 C 84.512 721.198, 83.986 719.896, 83.968 718.691 C 83.937 716.549, 83.903 716.544, 82.468 718.441 C 80.691 720.791, 80.535 727.135, 82.214 728.814 C 84.011 730.611, 83.501 745.587, 81.542 748.577 C 79.306 751.988, 79.514 762.948, 81.926 768.815 C 82.986 771.392, 84.140 775.649, 84.491 778.276 C 84.988 781.986, 86.009 783.977, 89.065 787.189 C 91.229 789.464, 93 791.702, 93 792.163 C 93 794.470, 107.014 792.105, 111.056 789.117 C 112.631 787.952, 114.500 786.995, 115.210 786.989 C 115.919 786.984, 119.066 785.071, 122.202 782.739 C 128.045 778.394, 130.438 776.879, 140 771.468 C 143.025 769.756, 149.246 766.025, 153.823 763.178 C 158.401 760.330, 162.754 758, 163.497 758 C 164.239 758, 166.119 756.954, 167.673 755.675 C 171.770 752.305, 181.451 747, 183.504 747 C 186.118 747, 198.172 739.100, 202.500 734.551 C 206.585 730.258, 211.131 728, 215.693 728 C 219.436 728, 220.799 727.551, 221.768 726 C 222.479 724.861, 224.100 724, 225.533 724 C 227.544 724, 228.174 723.381, 228.666 720.922 C 229.557 716.465, 236.153 714.296, 239.286 717.429 C 240.524 718.667, 241.433 718.519, 246.107 716.321 C 251.702 713.690, 262.422 711, 267.315 711 C 268.864 711, 270.901 710.588, 271.841 710.085 C 274.024 708.917, 278.194 699.606, 280.781 690.126 C 282.572 683.565, 282.640 682.382, 281.397 679.408 C 280.629 677.569, 280 675.234, 280 674.219 C 280 672.096, 270.249 652.014, 269.198 651.972 C 268.814 651.956, 266.491 650.156, 264.036 647.972 C 261.581 645.787, 259.254 644, 258.865 644 C 258.475 644, 256.725 640.893, 254.974 637.095 C 253.224 633.298, 250.264 628.709, 248.396 626.899 C 246.528 625.089, 245 623.007, 245 622.272 C 245 621.538, 244.287 620.664, 243.416 620.330 C 242.545 619.995, 241.501 618.826, 241.096 617.730 C 240.416 615.893, 240.025 616.057, 236.053 619.835" stroke="#bbc0d1" fill="#bbc0d1" fill-opacity="0.2" fill-rule="evenodd"/><path class="svg-region-OVl" d="M 545.298 429.760 C 535.635 444.653, 535.019 447, 540.777 447 C 547.224 447, 550.238 449.825, 555.950 461.219 C 561.300 471.892, 563.249 474.366, 569.173 478.011 C 574.011 480.988, 574.382 481.068, 575.341 479.339 C 577.520 475.411, 588.170 465.916, 591.040 465.342 C 594.566 464.637, 594.782 462.929, 592 457.739 C 590.900 455.686, 590 453.331, 590 452.504 C 590 451.537, 589.036 451, 587.299 451 C 585.318 451, 583.068 449.426, 578.852 445.091 C 575.394 441.535, 571.909 438.919, 570.101 438.522 C 568.306 438.128, 564.350 435.175, 560.268 431.181 C 549.642 420.785, 551.035 420.918, 545.298 429.760" stroke="#593939" fill="#593939" fill-opacity="0.2" fill-rule="evenodd"/><path class="svg-region-ODMl" d="M 503.668 627.656 C 503.342 629.668, 501.821 632.620, 500.288 634.220 C 497.508 637.119, 497.499 637.176, 496.982 654.314 C 496.544 668.856, 496.178 671.927, 494.602 674.273 C 493.578 675.798, 492.011 677.472, 491.120 677.993 C 488.961 679.254, 490.749 679.224, 516.088 677.580 C 527.860 676.816, 537.709 675.711, 539.088 675 C 542.735 673.118, 545.338 669.765, 549.093 662.107 C 550.967 658.287, 553.288 654.941, 554.250 654.674 C 555.212 654.406, 556 653.423, 556 652.488 C 556 651.553, 557.125 649.452, 558.500 647.818 C 560.768 645.122, 561.820 642, 560.460 642 C 560.162 642, 558.523 643.013, 556.816 644.250 C 554.716 645.773, 553.577 646.114, 553.292 645.306 C 553.060 644.650, 552.303 644.330, 551.610 644.596 C 550.916 644.862, 548.306 642.925, 545.809 640.290 C 543.311 637.656, 538.846 634.283, 535.884 632.795 C 528.673 629.171, 512.146 624, 507.777 624 C 504.506 624, 504.221 624.254, 503.668 627.656" stroke="#999999" fill="#999999" fill-opacity="0.2" fill-rule="evenodd"/>
    </svg>