<svg xmlns="http://www.w3.org/2000/svg" width="1078" height="1151" viewBox="0 0 1078 1151" version="1.1">
    <path class="svg-region-V" d="M 488 220.957 C 486.625 221.437, 480.349 223.452, 474.053 225.435 C 467.758 227.418, 460.750 230.129, 458.481 231.458 C 456.212 232.788, 453.036 233.839, 451.424 233.793 C 446.677 233.658, 429.918 244.700, 418.478 255.500 C 417.313 256.600, 413.803 259.672, 410.679 262.328 C 407.555 264.983, 404.726 268.245, 404.391 269.578 C 404.057 270.910, 403.454 272, 403.052 272 C 402.650 272, 401.856 273.021, 401.288 274.268 C 400.719 275.516, 397.315 280.389, 393.722 285.097 C 388.343 292.147, 379 308.134, 379 310.289 C 379 310.596, 375.127 318.869, 370.394 328.673 C 358.062 354.219, 357.848 354.820, 354.028 374.500 C 353.601 376.700, 352.520 381.182, 351.626 384.460 C 349.678 391.599, 349.633 393.858, 351.218 404.819 C 352.259 412.019, 352.769 413.393, 354.736 414.289 C 357.324 415.468, 362.521 423.378, 364.318 428.872 C 365.158 431.440, 366.925 433.449, 370.366 435.750 C 375.186 438.973, 375.326 439, 387.422 439 L 399.617 439 409.559 431.964 C 421.044 423.835, 421.962 422.284, 426.929 402.614 C 429.669 391.766, 430.152 390.763, 437.397 380.871 C 441.574 375.167, 445.351 370.050, 445.790 369.500 C 446.230 368.950, 447.692 366.925, 449.039 365 C 451.675 361.234, 459.512 352.017, 465.684 345.424 C 468.992 341.890, 470.499 341.130, 477 339.713 C 482.528 338.508, 486.578 338.265, 492.404 338.789 L 500.309 339.500 502.082 347 C 503.611 353.471, 503.737 356.613, 502.996 369.895 C 502.157 384.937, 502.187 385.331, 504.278 387.024 C 509.022 390.866, 520.654 395.976, 526 396.567 L 531.500 397.176 543.500 386.631 C 557.848 374.023, 558.789 373.120, 562 368.875 C 571.082 356.870, 586.890 343.714, 596.169 340.440 C 601.204 338.664, 609 338.518, 609 340.200 C 609 340.943, 609.333 341.038, 609.875 340.450 C 611.138 339.079, 613.114 311.145, 612.356 305.376 C 612.004 302.694, 610.908 298.885, 609.920 296.912 C 608.933 294.938, 608.165 291.888, 608.215 290.132 C 608.265 288.377, 607.849 285.941, 607.290 284.720 C 598.748 266.051, 596.749 262.323, 594.525 260.920 C 593.148 260.051, 586.906 254.499, 580.656 248.583 C 574.405 242.666, 567.315 236.703, 564.899 235.331 C 562.484 233.959, 559.891 232.325, 559.138 231.699 C 557.385 230.244, 551.906 228.192, 545.331 226.527 C 542.488 225.807, 539.752 224.965, 539.252 224.655 C 536.962 223.241, 523.258 221.753, 510.500 221.535 C 502.800 221.403, 495.150 221.023, 493.500 220.690 C 491.850 220.356, 489.375 220.477, 488 220.957" stroke="#dd8a8a" fill="#dd8a8a" fill-opacity="0.2" fill-rule="evenodd"/><path class="svg-region-SV" d="M 475.791 339.869 C 470.945 341.047, 468.292 342.333, 466.235 344.500 C 460.587 350.450, 450 363.007, 450 363.755 C 450 364.176, 448.890 365.717, 447.534 367.179 C 446.178 368.642, 444.266 371.130, 443.284 372.709 C 442.303 374.288, 438.879 379.041, 435.676 383.271 C 430.355 390.297, 429.600 391.952, 426.941 402.401 C 421.926 422.118, 420.883 424.189, 413.582 428.947 C 405.351 434.309, 403.034 436.777, 405.040 438.046 C 408.352 440.141, 414.498 439.413, 418.928 436.403 C 420.873 435.081, 423.372 433.980, 424.482 433.956 C 425.592 433.932, 428.090 433.344, 430.033 432.649 C 433.104 431.550, 433.952 431.620, 436.533 433.187 C 440.186 435.406, 446.574 435.584, 447.741 433.499 C 448.202 432.674, 450.198 431.174, 452.174 430.166 C 454.151 429.158, 457.279 426.612, 459.127 424.509 C 460.974 422.405, 464.739 419.634, 467.493 418.351 C 472.064 416.223, 473.866 416.019, 488.183 416.010 C 502.845 416.001, 503.905 415.873, 504.484 414.051 C 504.824 412.979, 505.979 411.824, 507.051 411.484 C 508.123 411.144, 509 410.495, 509 410.042 C 509 409.116, 513.521 408.233, 522.750 407.359 C 528.870 406.779, 529 406.706, 529 403.818 C 529 402.196, 529.439 400.049, 529.975 399.046 C 530.847 397.417, 530.374 397.152, 525.506 396.544 C 522.173 396.128, 517.410 394.436, 513.222 392.182 C 501.035 385.622, 502.002 387.724, 502.993 369.952 C 503.727 356.788, 503.602 353.435, 502.151 347.307 C 501.213 343.350, 500.234 339.925, 499.973 339.696 C 498.365 338.276, 481.855 338.394, 475.791 339.869" stroke="#c666b5" fill="#c666b5" fill-opacity="0.2" fill-rule="evenodd"/><path class="svg-region-SF" d="M 595.125 340.635 C 584.828 345.127, 564.645 362.949, 558.755 372.750 C 557.681 374.538, 556.399 376, 555.906 376 C 555.178 376, 539.012 389.860, 531.716 396.739 C 529.537 398.794, 528.589 402.228, 529.358 405.289 C 529.960 407.690, 530.800 408.658, 537.795 415.021 C 541.724 418.594, 542.202 419.566, 543.391 426.403 C 544.105 430.515, 545.419 434.991, 546.310 436.350 C 548.787 440.132, 553.665 441.330, 561.092 439.983 L 567.316 438.855 570.096 442.113 C 571.625 443.904, 572.851 445.625, 572.820 445.935 C 572.330 450.813, 576.939 457, 581.062 457 C 582.320 457, 585.961 454.644, 589.481 451.554 C 592.892 448.559, 597.533 445.531, 599.793 444.826 C 603.230 443.754, 604.159 442.873, 605.466 439.450 C 606.326 437.199, 607.203 431.564, 607.416 426.928 C 607.726 420.158, 607.441 417.811, 605.967 415 C 603.235 409.792, 603.095 406.438, 604.671 384 C 605.841 367.338, 606.591 362.042, 608.675 355.713 C 610.998 348.655, 611.122 347.507, 609.990 343.463 L 608.740 339 603.620 339.082 C 600.804 339.126, 596.981 339.826, 595.125 340.635" stroke="#8c6b55" fill="#8c6b55" fill-opacity="0.2" fill-rule="evenodd"/><path class="svg-region-AAB" d="M 601.500 552.851 C 599.850 553.864, 595.454 557.463, 591.730 560.847 C 586.744 565.378, 584.205 567, 582.094 567 C 580.415 567, 576.746 568.657, 573.238 571 C 569.943 573.200, 566.785 575, 566.219 575 C 564.150 575, 556.414 582.342, 553.250 587.307 C 550.426 591.739, 550 593.273, 550 599.017 C 550 605.102, 549.755 605.859, 546.911 608.563 C 542.204 613.038, 541 616.157, 541 623.874 C 541 629.852, 541.356 631.270, 543.500 633.818 C 544.875 635.452, 546 637.500, 546 638.369 C 546 639.238, 547.323 640.633, 548.939 641.469 C 550.556 642.305, 552.552 643.949, 553.374 645.124 C 554.788 647.142, 555.120 647.185, 559.435 645.911 C 561.946 645.170, 564 644.212, 564 643.782 C 564 642.638, 567.427 642.827, 568.637 644.037 C 569.828 645.228, 575 643.663, 575 642.113 C 575 641.597, 576.798 640.872, 578.995 640.501 C 581.192 640.130, 583.243 639.415, 583.554 638.913 C 583.864 638.411, 585.009 638, 586.099 638 C 587.188 638, 589.844 637.100, 592 636 C 594.156 634.900, 596.777 634, 597.824 634 C 600.596 634, 604.658 629.494, 605.267 625.743 C 605.557 623.960, 607.189 619.454, 608.894 615.732 C 611.444 610.164, 612.014 607.598, 612.110 601.265 C 612.173 597.031, 612.796 591.369, 613.492 588.682 C 614.568 584.535, 614.527 583.205, 613.218 579.874 C 611.804 576.272, 611.830 575.340, 613.536 568.488 C 615.683 559.866, 614.952 555.713, 611.192 555.175 C 609.944 554.997, 608.383 553.984, 607.721 552.925 C 606.229 550.535, 605.287 550.524, 601.500 552.851" stroke="#7f3c1a" fill="#7f3c1a" fill-opacity="0.2" fill-rule="evenodd"/><path class="svg-region-APB" d="M 572.920 463.234 C 567.173 468.981, 566.008 471.790, 566.004 479.905 C 566.001 485.499, 566.550 488.484, 568.250 492.114 C 569.487 494.756, 570.755 496.936, 571.067 496.959 C 571.379 496.982, 572.439 494.413, 573.422 491.250 C 574.405 488.087, 576.004 484.150, 576.976 482.500 C 577.948 480.850, 579.054 478.184, 579.434 476.576 C 580.081 473.841, 583.698 469.056, 585.148 469.017 C 585.504 469.008, 587.675 467.932, 589.972 466.628 L 594.149 464.255 590.707 462.128 C 588.277 460.626, 585.630 460, 581.709 460 C 576.781 460, 575.789 460.365, 572.920 463.234" stroke="#ac7444" fill="#ac7444" fill-opacity="0.2" fill-rule="evenodd"/><path class="svg-region-PC" d="M 533.229 584.573 C 530.048 586.158, 526.915 588.750, 525.069 591.323 C 520.564 597.603, 520.484 597.667, 516.242 598.345 C 507.480 599.746, 504.341 608.166, 509.474 616.500 C 511.271 619.419, 511.946 621.951, 511.969 625.868 C 511.995 630.382, 512.477 631.780, 515 634.653 C 516.650 636.532, 518 638.685, 518 639.437 C 518 640.189, 519.360 641.278, 521.022 641.858 C 522.683 642.437, 526.254 645.181, 528.957 647.956 C 533.810 652.938, 536.277 653.888, 539.764 652.119 C 540.719 651.634, 544.200 650.347, 547.500 649.259 C 550.984 648.111, 553.500 646.703, 553.500 645.900 C 553.500 645.140, 551.813 643.426, 549.750 642.092 C 547.688 640.757, 546 639.035, 546 638.266 C 546 637.496, 544.875 635.392, 543.500 633.589 C 541.389 630.821, 541 629.233, 541 623.378 C 541 616.103, 541.721 614.327, 547.041 608.500 C 549.452 605.859, 549.833 604.515, 550.223 597.275 C 550.649 589.370, 550.554 588.914, 547.760 585.525 C 544.152 581.148, 540.572 580.914, 533.229 584.573" stroke="#cda789" fill="#cda789" fill-opacity="0.2" fill-rule="evenodd"/><path class="svg-region-DB" d="M 516.500 408 C 515.400 408.473, 513.263 408.891, 511.750 408.930 C 510.238 408.968, 509 409.420, 509 409.933 C 509 410.446, 508.123 411.144, 507.051 411.484 C 505.979 411.824, 504.824 412.979, 504.484 414.051 C 503.905 415.873, 502.845 416.001, 488.183 416.010 C 473.866 416.019, 472.064 416.223, 467.493 418.351 C 464.739 419.634, 460.963 422.417, 459.102 424.537 C 457.241 426.656, 453.942 429.269, 451.771 430.343 C 449.600 431.417, 447.590 432.905, 447.305 433.648 C 446.555 435.601, 440.049 435.323, 436.533 433.187 C 433.952 431.620, 433.104 431.550, 430.033 432.649 C 428.090 433.344, 425.592 433.932, 424.482 433.956 C 423.372 433.980, 420.767 435.153, 418.692 436.563 C 414.580 439.357, 408.756 440.010, 405.151 438.081 C 403.636 437.270, 402.428 437.236, 401.066 437.965 C 397.965 439.624, 377.031 439.265, 373.636 437.494 C 369.837 435.513, 369.675 435.569, 370.436 438.602 C 370.795 440.033, 370.346 445.647, 369.438 451.078 C 368.163 458.707, 368.039 461.673, 368.894 464.125 C 369.502 465.870, 370.002 471.169, 370.005 475.899 C 370.010 483.285, 370.358 485.065, 372.474 488.500 C 373.829 490.700, 374.952 494.031, 374.969 495.903 C 374.986 497.775, 376.280 502.050, 377.844 505.403 C 379.408 508.756, 381.478 513.975, 382.445 517 C 386.029 528.212, 388.146 530.090, 392.546 525.957 C 394.368 524.245, 395.628 523.876, 398.013 524.353 C 400.037 524.757, 401.932 524.436, 403.473 523.425 C 406.290 521.580, 411.855 522.315, 415.259 524.983 C 416.491 525.949, 418.931 527.052, 420.681 527.434 C 422.430 527.816, 424.374 528.745, 424.999 529.499 C 425.624 530.252, 428.001 531.841, 430.279 533.028 C 433.805 534.866, 435.395 535.090, 440.961 534.530 C 444.557 534.168, 450.078 533.170, 453.228 532.311 C 460.832 530.237, 468.521 530.948, 475.033 534.327 C 481.719 537.796, 491.807 538.034, 500.014 534.916 C 503.031 533.769, 506.297 532.589, 507.271 532.294 C 508.650 531.875, 508.789 531.450, 507.899 530.378 C 506.943 529.227, 508.098 529, 514.923 529 C 522.262 529, 523.340 528.751, 525.545 526.545 C 528.676 523.414, 528.932 515.748, 526.092 510.180 C 522.587 503.311, 521.179 495.724, 520.657 480.904 L 520.143 466.308 524.636 463.469 C 527.106 461.907, 529.973 459.443, 531.005 457.993 C 532.037 456.543, 534.709 454.533, 536.941 453.527 C 540.475 451.933, 541 451.277, 541 448.455 C 541 446.497, 541.594 444.986, 542.500 444.638 C 543.325 444.322, 544 443.522, 544 442.860 C 544 442.199, 544.711 440.872, 545.580 439.912 C 546.899 438.455, 546.951 437.781, 545.900 435.833 C 545.208 434.550, 544.055 430.149, 543.338 426.053 C 542.142 419.221, 541.690 418.312, 537.868 415.053 C 535.577 413.099, 532.705 410.488, 531.486 409.250 C 529.709 407.445, 528.205 407.014, 523.885 407.070 C 520.923 407.109, 517.600 407.527, 516.500 408" stroke="#e8b1e4" fill="#e8b1e4" fill-opacity="0.2" fill-rule="evenodd"/><path class="svg-region-IBl" d="M 481.329 572.938 C 476.228 575.254, 472.826 578.456, 466.053 587.317 C 459.105 596.407, 458 599.376, 458 608.968 C 458 613.386, 458.170 617, 458.378 617 C 458.586 617, 460.371 616.325, 462.346 615.500 C 464.320 614.675, 467.950 614, 470.411 614 C 475.995 614, 478 616.413, 478 623.134 C 478 627.126, 478.450 628.201, 481.029 630.371 C 482.696 631.773, 485.508 633.164, 487.279 633.463 C 489.051 633.761, 493.453 634.449, 497.062 634.991 C 500.671 635.534, 506.296 636.872, 509.562 637.965 C 519.054 641.140, 520.124 640.488, 515 634.653 C 512.434 631.730, 512 630.429, 512 625.662 C 512 621.366, 511.427 619.244, 509.500 616.405 C 504.255 608.677, 507.133 601.180, 516.376 598.493 C 520.725 597.229, 522.081 596.245, 524.310 592.734 C 525.789 590.405, 528.575 587.429, 530.500 586.121 C 532.425 584.813, 534 583.366, 534 582.906 C 534 581.647, 530.977 580.347, 526.441 579.656 C 522.777 579.098, 518.604 577.544, 513.764 574.936 C 512.809 574.421, 510.334 573.993, 508.264 573.984 C 506.194 573.976, 501.800 573.317, 498.500 572.520 C 490.450 570.576, 486.308 570.677, 481.329 572.938" stroke="#b10e0e" fill="#b10e0e" fill-opacity="0.2" fill-rule="evenodd"/><path class="svg-region-MB" d="M 546.660 527.745 C 539.680 528.050, 538.909 528.275, 539.633 529.794 C 540.081 530.732, 540.601 536.136, 540.789 541.802 L 541.131 552.105 537.037 556.198 L 532.943 560.292 525.177 559.693 C 520.905 559.364, 516.080 558.401, 514.455 557.553 C 512.830 556.706, 510.970 556.010, 510.323 556.006 C 509.675 556.003, 507.735 554.313, 506.011 552.250 C 503.350 549.066, 502.963 547.937, 503.447 544.770 C 503.761 542.719, 505.153 539.006, 506.541 536.520 C 507.929 534.034, 508.591 532, 508.012 532 C 507.434 532, 504.192 533.125, 500.808 534.500 C 492.088 538.043, 482.698 537.978, 475.226 534.322 C 468.345 530.955, 460.746 530.261, 453.228 532.311 C 450.078 533.170, 444.491 534.175, 440.814 534.546 L 434.128 535.219 436.314 537.436 C 437.516 538.656, 439.493 540.969, 440.707 542.577 C 444.826 548.031, 445.497 548.591, 449.500 549.924 C 456.185 552.148, 466.391 557.160, 467.738 558.879 C 468.437 559.771, 469.689 561.871, 470.522 563.548 C 471.355 565.224, 473.623 568.230, 475.564 570.227 C 479.036 573.802, 479.146 573.837, 482.514 572.430 C 486.851 570.618, 491.058 570.637, 498 572.500 C 501.025 573.312, 505.343 573.982, 507.596 573.988 C 511.220 573.999, 514.742 575.125, 520.127 577.996 C 521.022 578.473, 523.497 579.169, 525.627 579.544 C 527.757 579.918, 530.504 580.854, 531.731 581.623 C 533.311 582.613, 535.532 582.837, 539.337 582.390 C 544.697 581.760, 544.721 581.770, 547.992 585.841 L 551.273 589.923 554.297 585.712 C 555.960 583.395, 557.811 581.169, 558.410 580.765 C 559.018 580.356, 558.394 580.018, 557 580.002 C 555.625 579.986, 553.445 579.690, 552.156 579.345 C 549.886 578.737, 549.824 578.446, 550.210 570.109 C 550.538 563.020, 551.172 560.304, 553.804 554.725 C 555.562 550.999, 557.029 546.274, 557.064 544.225 C 557.139 539.904, 559.138 530.074, 560.313 528.250 C 560.907 527.328, 560.249 527.053, 557.809 527.201 C 555.989 527.312, 550.972 527.557, 546.660 527.745" stroke="#f9c6c6" fill="#f9c6c6" fill-opacity="0.2" fill-rule="evenodd"/><path class="svg-region-LBl" d="M 403.500 523.406 C 402.194 524.382, 400.280 524.714, 397.986 524.361 C 395.249 523.939, 394.055 524.281, 392.581 525.910 C 391.541 527.059, 389.968 528, 389.086 528 C 386.662 528, 384.782 531.729, 385.517 535.078 C 385.956 537.077, 385.663 538.480, 384.578 539.565 C 382.789 541.354, 382.512 543, 384 543 C 384.550 543, 385 543.623, 385 544.383 C 385 545.144, 385.837 545.986, 386.860 546.253 C 388.733 546.743, 390.019 550.980, 393.024 566.562 C 393.923 571.223, 395.092 573.649, 398.081 577.062 C 400.219 579.503, 401.976 581.807, 401.984 582.182 C 402.011 583.331, 411.931 592.370, 415.651 594.635 C 417.580 595.809, 420.810 597.036, 422.829 597.362 C 425.019 597.715, 428.461 599.577, 431.359 601.977 C 435.225 605.178, 437.026 606, 440.175 606 C 442.351 606, 444.933 605.571, 445.912 605.047 C 448.915 603.440, 452 608.716, 452 615.460 C 452 618.507, 452.241 621, 452.535 621 C 452.830 621, 454.180 620.273, 455.535 619.385 C 457.832 617.880, 458 617.196, 458 609.353 C 458 604.290, 458.574 599.563, 459.440 597.490 C 461.082 593.560, 470.090 581.964, 475.370 576.984 L 478.919 573.636 475.210 569.453 C 473.169 567.152, 470.443 563.482, 469.152 561.298 C 466.756 557.245, 461.327 554.082, 449.789 550.017 C 446.098 548.716, 444.174 547.136, 440.903 542.721 C 437.377 537.963, 430.468 532, 428.480 532 C 428.170 532, 426.974 531.122, 425.823 530.050 C 424.672 528.977, 422.462 527.821, 420.912 527.481 C 419.362 527.140, 417.060 526.050, 415.797 525.059 C 412.440 522.423, 405.976 521.555, 403.500 523.406" stroke="#d7b230" fill="#d7b230" fill-opacity="0.2" fill-rule="evenodd"/><path class="svg-region-DMl" d="M 461.028 616.072 C 458.569 617.188, 455.112 619.203, 453.345 620.550 C 450.836 622.464, 448.929 623, 444.632 623 C 441.606 623, 437.905 623.466, 436.408 624.035 C 433.829 625.016, 422.248 626.161, 397.500 627.885 C 389.558 628.438, 385.195 629.255, 381.805 630.825 C 379.223 632.021, 376.889 633, 376.620 633 C 376.351 633, 374.906 633.465, 373.411 634.034 L 370.691 635.068 373.224 637.784 C 374.618 639.278, 376.072 642.263, 376.456 644.417 C 376.839 646.572, 378.244 649.764, 379.577 651.512 C 381.463 653.985, 382 655.909, 382 660.195 C 382 665.589, 382.112 665.804, 387.473 670.714 C 393.365 676.111, 395.348 679.764, 394.412 683.495 C 394.018 685.063, 395.089 688.635, 397.613 694.175 C 400.987 701.580, 401.416 703.422, 401.499 710.846 C 401.574 717.606, 401.916 719.373, 403.296 720.146 C 404.233 720.670, 405 721.950, 405 722.991 C 405 725.930, 406.282 726.095, 412.102 723.906 C 415.071 722.789, 419.750 721.199, 422.500 720.373 C 425.250 719.546, 430.259 717.999, 433.631 716.935 C 437.003 715.871, 440.421 715, 441.226 715 C 442.031 715, 443.449 714.161, 444.377 713.136 C 445.523 711.870, 448.001 711.096, 452.106 710.724 C 455.528 710.414, 458.909 709.488, 459.903 708.588 C 460.868 707.715, 462.383 707, 463.270 707 C 464.156 707, 465.137 706.587, 465.449 706.083 C 466.256 704.778, 480.205 698, 482.085 698 C 487.158 698, 490.534 687.851, 487.667 681.215 C 484.133 673.034, 482.498 661.941, 482.552 646.500 C 482.603 632.007, 482.527 631.438, 480.302 629.677 C 478.484 628.238, 478 626.866, 478 623.150 C 478 616.312, 476.018 613.995, 470.193 614.022 C 467.612 614.034, 463.488 614.957, 461.028 616.072" stroke="#68533d" fill="#68533d" fill-opacity="0.2" fill-rule="evenodd"/><path class="svg-region-PMl" d="M 358.139 636.033 C 356.841 637.115, 354.975 638, 353.993 638 C 353.011 638, 350.830 639.688, 349.148 641.750 C 342.029 650.476, 340.316 652.184, 336.855 654.010 C 334.851 655.068, 330.351 659.158, 326.855 663.100 C 323.360 667.042, 318.479 671.816, 316.008 673.709 C 313.538 675.601, 308.689 680.604, 305.234 684.825 C 301.778 689.046, 298.061 693.552, 296.972 694.838 C 295.884 696.125, 294.722 698.260, 294.390 699.583 C 294.058 700.906, 292.263 703.904, 290.403 706.245 C 286.860 710.701, 286.147 714.456, 288.112 718.316 C 289.535 721.113, 298.036 729, 299.627 729 C 300.294 729, 303.238 731.180, 306.169 733.844 C 311.712 738.881, 316.112 740.508, 323 740.069 C 327.623 739.774, 332.112 739.794, 340 740.144 C 346.144 740.417, 352.731 738.834, 370 732.935 C 371.375 732.466, 374.300 731.779, 376.500 731.410 C 378.700 731.041, 380.950 730.407, 381.500 730 C 382.050 729.593, 384.300 728.969, 386.500 728.612 C 395.178 727.205, 404.262 724.482, 404.779 723.132 C 405.079 722.350, 404.485 721.096, 403.458 720.345 C 401.917 719.219, 401.568 717.537, 401.462 710.740 C 401.336 702.653, 399.748 696.793, 396.162 691.182 C 395.348 689.907, 394.747 687.207, 394.827 685.182 C 395.065 679.188, 393.197 675.381, 387.436 670.116 C 382.116 665.254, 382 665.030, 382 659.650 C 382 655.297, 381.497 653.556, 379.584 651.282 C 378.255 649.703, 376.851 646.631, 376.465 644.455 C 376.048 642.112, 374.508 639.176, 372.685 637.250 C 370.075 634.494, 368.916 634.005, 365.054 634.033 C 362.031 634.055, 359.707 634.728, 358.139 636.033" stroke="#90cf92" fill="#90cf92" fill-opacity="0.2" fill-rule="evenodd"/><path class="svg-region-Fl" d="M 300.500 531.565 C 298.300 532.381, 294.700 533.450, 292.500 533.939 C 286.936 535.176, 276.974 539.473, 270.202 543.557 C 267.066 545.448, 264.008 546.996, 263.407 546.997 C 262.806 546.999, 259.206 549.922, 255.407 553.493 C 251.608 557.064, 248.172 559.989, 247.770 559.993 C 246.206 560.008, 242.657 568.800, 241.915 574.500 C 241.484 577.800, 240.331 583.290, 239.351 586.701 C 237.585 592.845, 237.935 595.465, 240.217 593.183 C 240.982 592.418, 245.216 592, 252.192 592 C 261.900 592, 263.108 591.799, 264.232 590 C 265.159 588.516, 266.564 588, 269.682 588 C 271.992 588, 274.160 588.450, 274.500 589 C 274.840 589.550, 276.126 590, 277.359 590 C 278.592 590, 280.121 590.521, 280.758 591.158 C 281.570 591.970, 282.300 592.004, 283.208 591.270 C 283.918 590.695, 287.111 589.409, 290.303 588.413 C 295.274 586.861, 296.564 586.787, 299.303 587.897 C 301.061 588.610, 303.850 589.502, 305.500 589.881 C 307.413 590.320, 309.359 591.890, 310.872 594.214 C 312.176 596.218, 314.500 598.379, 316.036 599.015 C 318.006 599.831, 319.516 601.767, 321.164 605.589 C 323.002 609.851, 324.198 611.263, 326.777 612.213 C 329.232 613.118, 330.657 614.685, 332.457 618.461 C 333.779 621.232, 335.838 624.096, 337.034 624.824 C 338.947 625.988, 339.383 625.898, 340.661 624.074 C 341.460 622.933, 342.933 622, 343.934 622 C 344.936 622, 346.315 621.325, 347 620.500 C 347.685 619.675, 349.652 618.995, 351.372 618.989 C 357.228 618.968, 362 617.777, 362 616.336 C 362 615.565, 360.771 612.586, 359.269 609.717 C 356.953 605.292, 356.536 603.264, 356.519 596.355 C 356.504 589.756, 356.858 587.814, 358.388 586.124 C 360.673 583.599, 359.502 581.654, 354.417 579.530 C 352.634 578.785, 350.182 577.182, 348.968 575.968 C 345.186 572.186, 337.844 558.826, 336.364 553.033 C 334.706 546.543, 329.082 537.929, 323.670 533.591 C 320.226 530.830, 319.066 530.498, 312.170 530.301 C 307.338 530.163, 303.020 530.631, 300.500 531.565" stroke="#5ca7a9" fill="#5ca7a9" fill-opacity="0.2" fill-rule="evenodd"/><path class="svg-region-PCl" d="M 289.500 588.552 C 287.300 589.328, 284.733 590.412, 283.796 590.961 C 282.688 591.610, 281.881 591.617, 281.487 590.980 C 281.154 590.441, 279.585 590, 278 590 C 276.415 590, 274.840 589.550, 274.500 589 C 274.160 588.450, 271.899 588, 269.476 588 C 266.094 588, 264.822 588.465, 264 590 C 263.030 591.813, 261.906 592, 251.965 592 C 238.304 592, 238.120 592.148, 235.746 605.002 C 234.781 610.226, 233.456 616.853, 232.802 619.730 C 231.687 624.636, 231.753 625.108, 233.877 627.369 C 235.122 628.694, 237.542 630.058, 239.254 630.401 C 242.415 631.033, 246 633.581, 246 635.195 C 246 637.090, 250.514 642.038, 255.094 645.163 C 258.523 647.503, 260.357 649.646, 261.507 652.657 C 263.348 657.479, 268.410 662.282, 275.810 666.229 C 283.285 670.216, 284.336 672.382, 285.123 685.421 L 285.792 696.500 279.192 702.834 C 271.291 710.416, 266.923 712.802, 257.080 714.910 C 246.450 717.188, 246.699 718.494, 258.500 722.368 C 261.250 723.271, 264.239 724.008, 265.143 724.005 C 266.047 724.002, 267.057 724.706, 267.388 725.569 C 267.792 726.622, 268.660 726.925, 270.029 726.491 C 271.382 726.061, 274.495 727.101, 279.284 729.580 C 286.193 733.157, 299.677 737.308, 301.250 736.342 C 303.143 735.180, 301.562 732.652, 296.501 728.745 C 290.813 724.354, 288.262 720.391, 287.297 714.446 C 286.825 711.533, 287.316 710.252, 290.440 706.247 C 292.477 703.636, 294.393 700.263, 294.697 698.750 C 295.001 697.237, 295.532 696, 295.877 696 C 296.222 696, 299.843 691.768, 303.924 686.596 C 308.006 681.424, 313.855 675.281, 316.922 672.946 C 319.990 670.611, 324.466 666.253, 326.869 663.261 C 329.272 660.270, 333.547 656.342, 336.369 654.531 C 344.826 649.106, 345.271 648.298, 344.854 639.124 C 344.495 631.226, 344.451 631.111, 340.545 627.822 C 334.253 622.527, 333.002 621.112, 332.967 619.250 C 332.922 616.900, 330.127 613.779, 326.692 612.245 C 324.787 611.393, 323.072 609.215, 321.354 605.462 C 319.584 601.596, 317.961 599.568, 315.956 598.717 C 314.380 598.048, 312.041 595.928, 310.760 594.007 C 309.478 592.086, 307.545 590.368, 306.465 590.189 C 305.384 590.010, 303.082 589.220, 301.349 588.432 C 297.500 586.683, 294.719 586.711, 289.500 588.552" stroke="#465ee0" fill="#465ee0" fill-opacity="0.2" fill-rule="evenodd"/><path class="svg-region-Ol" d="M 686.225 282.464 C 675.198 284.961, 668.922 289.101, 659.842 299.870 C 656.538 303.790, 654 310.162, 654 314.542 C 654 315.453, 653.335 317.616, 652.523 319.349 C 651.710 321.082, 649.730 326.775, 648.121 332 C 646.512 337.225, 644.445 343.525, 643.527 346 C 640.034 355.418, 637 367.180, 637 371.303 C 637 373.298, 636.221 377.083, 635.270 379.715 C 633.871 383.583, 633.546 387.854, 633.575 402 C 633.631 429.219, 634.918 445.971, 637.191 449.044 C 638.756 451.161, 639.071 453.358, 639.057 462.046 C 639.047 467.795, 638.592 474.300, 638.044 476.500 C 637.496 478.700, 637.037 482.105, 637.024 484.068 C 637.011 486.030, 636.117 490.980, 635.038 495.068 C 633.484 500.955, 633.203 504.302, 633.682 511.168 C 634.149 517.852, 633.871 521.445, 632.466 526.862 C 630.807 533.256, 630.757 535.005, 631.908 546.371 L 633.173 558.856 628.743 566.178 C 626.284 570.243, 624.005 575.459, 623.620 577.904 C 623.239 580.326, 621.369 585.548, 619.464 589.509 C 617.559 593.469, 616 597.177, 616 597.748 C 616 598.319, 615.381 599.023, 614.625 599.313 C 613.869 599.604, 612.931 601.974, 612.540 604.582 C 612.149 607.190, 610.458 612.288, 608.781 615.912 C 607.105 619.535, 605.681 624.075, 605.617 626 C 605.516 629.010, 605.938 629.693, 608.631 630.879 C 610.352 631.638, 612.827 634.018, 614.131 636.168 C 615.434 638.319, 617.850 642.151, 619.500 644.685 C 621.150 647.219, 623.412 650.764, 624.526 652.564 C 625.640 654.364, 628.565 658.033, 631.026 660.717 C 633.487 663.401, 637.499 668.275, 639.942 671.549 C 649.976 684.992, 671.306 702.284, 685.605 708.568 C 694.534 712.493, 696.007 713.232, 701.934 716.758 C 713.999 723.938, 736.281 727.524, 763 726.587 C 772.075 726.268, 783.969 726.044, 789.431 726.087 C 798.652 726.161, 800.048 725.897, 808.931 722.399 C 819.991 718.044, 828.205 712.259, 836.478 703 C 842.998 695.702, 845.991 691.268, 845.996 688.897 C 845.998 688.016, 848.201 682.616, 850.891 676.897 C 855.171 667.801, 855.922 665.212, 856.891 656.211 C 859.071 635.980, 857.781 620.016, 852.148 597.500 C 851.047 593.100, 849.855 586.575, 849.499 583 C 849.144 579.425, 847.576 572, 846.017 566.500 C 842.050 552.512, 837.947 535.594, 836.801 528.500 C 835.192 518.543, 833.116 508.295, 829.405 492 C 828.083 486.196, 825.661 477.617, 821.501 464 C 820.745 461.525, 819.822 457.475, 819.451 455 C 819.080 452.525, 817.671 446.225, 816.320 441 C 814.970 435.775, 813.448 429.250, 812.939 426.500 C 812.430 423.750, 811.388 419.925, 810.624 418 C 809.861 416.075, 808.471 411.800, 807.535 408.500 C 802.038 389.109, 779.601 336, 776.905 336 C 776.407 336, 776 335.484, 776 334.854 C 776 334.223, 774.087 331.586, 771.750 328.993 C 769.413 326.401, 765.700 322.097, 763.500 319.429 C 757.593 312.266, 739.858 295, 738.408 295 C 737.718 295, 735.855 293.907, 734.268 292.572 C 724.573 284.414, 700.230 279.292, 686.225 282.464" stroke="#aa444d" fill="#aa444d" fill-opacity="0.2" fill-rule="evenodd"/><path class="svg-region-VOC" d="M 526.540 524.922 C 524.649 528.579, 523.385 529, 514.296 529 C 507.838 529, 506.927 529.207, 507.953 530.443 C 508.908 531.594, 508.643 532.761, 506.650 536.193 C 505.274 538.562, 503.839 542.197, 503.459 544.270 C 501.964 552.444, 510.722 558.604, 525.421 559.715 L 532.950 560.285 536.975 556.260 L 541 552.235 541 542.568 C 541 530.655, 539.830 528.024, 533.006 524.597 L 528.007 522.086 526.540 524.922" stroke="#ff8f93" fill="#ff8f93" fill-opacity="0.2" fill-rule="evenodd"/><path class="svg-region-OABl" d="M 589.500 466.703 C 581.513 470.761, 579.749 473.452, 573.575 491 C 572.317 494.575, 570.110 499.825, 568.669 502.667 C 567.229 505.509, 565.757 509.784, 565.398 512.167 C 565.040 514.550, 563.857 518.750, 562.770 521.500 C 561.683 524.250, 560.440 527.400, 560.007 528.500 C 558.708 531.803, 557 540.922, 557 544.551 C 557 546.421, 555.562 550.999, 553.804 554.725 C 551.172 560.304, 550.538 563.020, 550.210 570.109 C 549.824 578.446, 549.886 578.737, 552.156 579.345 C 555.601 580.267, 559.799 580.134, 560.450 579.081 C 560.762 578.576, 564.051 576.479, 567.759 574.421 C 571.467 572.364, 575.573 569.852, 576.885 568.840 C 578.197 567.828, 580.569 567, 582.157 567 C 584.914 567, 586.182 566.074, 596.973 556.185 C 598.363 554.911, 600.783 553.188, 602.352 552.356 C 605.001 550.951, 605.362 550.991, 607.416 552.922 C 608.633 554.065, 610.399 555, 611.339 555 C 614.570 555, 615.340 559.785, 613.453 568.128 C 611.887 575.054, 611.868 576.165, 613.247 580.212 C 614.152 582.866, 614.427 585.272, 613.929 586.162 C 613.469 586.984, 612.960 590.080, 612.797 593.042 C 612.557 597.400, 612.816 598.493, 614.154 598.769 C 615.317 599.008, 616.175 597.979, 617.040 595.305 C 617.718 593.212, 619.301 589.633, 620.559 587.352 C 621.818 585.070, 623.171 581.042, 623.567 578.400 C 624.011 575.438, 625.994 570.786, 628.741 566.261 L 633.195 558.925 632.508 551.712 C 632.130 547.746, 631.410 542.594, 630.909 540.265 C 630.194 536.938, 630.454 534.368, 632.121 528.291 C 633.971 521.548, 634.155 519.068, 633.549 509.026 C 632.220 487.010, 625.320 474.030, 611.500 467.545 C 602.562 463.350, 596.551 463.120, 589.500 466.703" stroke="#81244d" fill="#81244d" fill-opacity="0.2" fill-rule="evenodd"/><path class="svg-region-SOTl" d="M 535.668 453.959 C 534.111 454.956, 531.636 457.183, 530.168 458.909 C 528.701 460.634, 525.925 462.880, 524 463.899 L 520.500 465.753 520.841 481.126 C 521.182 496.490, 523.101 507.006, 526.256 510.808 C 526.924 511.613, 527.702 514.572, 527.985 517.383 C 528.492 522.418, 528.582 522.536, 533.956 525.247 C 539.677 528.133, 545.543 528.710, 555.416 527.356 C 559.774 526.759, 560.277 526.382, 562.413 522.106 C 563.678 519.573, 564.989 515.401, 565.326 512.835 C 565.663 510.269, 567.129 505.743, 568.583 502.777 L 571.228 497.384 568.614 492.225 C 566.680 488.408, 566 485.543, 566 481.208 C 566 476.171, 565.632 475.008, 563.381 472.924 C 561.941 471.591, 559.804 469.107, 558.631 467.405 C 552.688 458.773, 548.816 454.237, 546.485 453.175 C 542.899 451.541, 539.004 451.824, 535.668 453.959" stroke="#995b45" fill="#995b45" fill-opacity="0.2" fill-rule="evenodd"/><path class="svg-region-LBPCl" d="M 386 547.509 C 386 548.431, 385.100 550.329, 384 551.727 C 382.900 553.126, 381.998 554.772, 381.997 555.385 C 381.995 555.998, 380.629 559.875, 378.961 564 C 375.778 571.870, 370.044 578.422, 361.762 583.650 C 359.650 584.983, 357.447 587.295, 356.866 588.787 C 355.139 593.225, 356.388 604.013, 359.356 610.286 C 360.810 613.361, 362 616.295, 362 616.807 C 362 617.818, 356.380 618.971, 351.372 618.989 C 349.652 618.995, 347.685 619.675, 347 620.500 C 346.315 621.325, 345 622, 344.078 622 C 342.034 622, 340 623.898, 340 625.806 C 340 626.579, 341.125 628.548, 342.500 630.182 C 344.649 632.737, 345.004 634.159, 345.030 640.327 C 345.055 646.110, 345.275 647.112, 346.164 645.500 C 348.266 641.691, 352.384 638, 354.532 638 C 355.719 638, 357.510 637.094, 358.513 635.986 C 360.043 634.294, 361.471 633.996, 367.418 634.124 C 373.303 634.250, 375.514 633.799, 380.500 631.453 C 385.421 629.137, 388.479 628.499, 397.500 627.903 C 417.861 626.557, 434.126 625.040, 435.180 624.389 C 435.756 624.033, 439.663 623.462, 443.863 623.121 L 451.500 622.500 451.770 616 C 452.004 610.362, 451.715 609.102, 449.594 606.500 C 447.630 604.090, 446.899 603.746, 445.875 604.750 C 443.810 606.774, 436.643 606.289, 433.903 603.939 C 432.581 602.806, 430.538 601.053, 429.362 600.043 C 428.186 599.034, 425.711 597.889, 423.862 597.498 C 415.984 595.835, 407.756 589.432, 398.591 577.833 C 395.064 573.370, 393.859 570.822, 392.918 565.833 C 390.763 554.413, 388.522 546.667, 387.250 546.247 C 386.563 546.019, 386 546.587, 386 547.509" stroke="#daffff" fill="#daffff" fill-opacity="0.2" fill-rule="evenodd"/><path class="svg-region-PNl" d="M 229.578 626.750 C 229.163 627.163, 228.257 628.850, 227.563 630.500 C 224.485 637.827, 216.613 643.371, 205.500 646.037 C 191.730 649.340, 174.532 652.251, 169.555 652.120 C 167.082 652.055, 164.844 652.682, 163.555 653.801 C 162.425 654.782, 158.575 656.903, 155 658.515 C 151.425 660.126, 147.720 662.218, 146.766 663.163 C 144.635 665.276, 136.387 671, 135.474 671 C 135.109 671, 131.026 673.518, 126.401 676.594 C 115.823 683.633, 110.360 690.009, 104.471 702.189 C 100.088 711.256, 99.783 712.432, 99.090 722.924 C 98.333 734.402, 99.175 742.501, 101.611 747.154 C 102.375 748.614, 103.003 750.639, 103.007 751.654 C 103.010 752.669, 103.907 754.850, 105 756.500 C 106.093 758.150, 106.990 760.071, 106.993 760.770 C 106.997 761.468, 108.125 763.822, 109.500 766 C 110.875 768.178, 112 770.630, 112 771.449 C 112 772.303, 112.588 772.712, 113.380 772.408 C 114.138 772.117, 115.630 772.985, 116.694 774.338 C 118.541 776.687, 118.851 776.745, 123.564 775.634 C 128.214 774.538, 129.793 773.514, 137.260 766.750 C 138.930 765.237, 140.728 764, 141.254 764 C 141.781 764, 143.093 762.880, 144.170 761.511 C 145.247 760.142, 148.575 757.398, 151.566 755.412 C 154.557 753.427, 157.934 750.497, 159.070 748.901 C 160.207 747.306, 162.017 746, 163.093 746 C 164.260 746, 165.433 744.991, 166 743.500 C 166.523 742.125, 167.354 741, 167.846 741 C 168.339 741, 172.063 738.390, 176.121 735.201 C 184.934 728.275, 192.695 724.100, 203.500 720.473 C 207.900 718.995, 214.277 716.710, 217.671 715.393 C 224.226 712.851, 230 712.259, 230 714.131 C 230 714.864, 231.227 715.063, 233.493 714.695 C 235.691 714.338, 237.460 714.602, 238.266 715.408 C 239.745 716.888, 248.794 718.143, 249.519 716.969 C 249.787 716.535, 253.208 715.608, 257.122 714.909 C 265.371 713.435, 273.486 708.967, 280.844 701.849 L 285.652 697.198 285.287 688.349 C 284.613 671.978, 283.579 669.836, 274.032 665.016 C 267.594 661.766, 263.614 657.597, 260.896 651.258 C 259.892 648.916, 258.641 647, 258.116 647 C 256.634 647, 246 636.955, 246 635.555 C 246 633.712, 242.986 631.409, 238.830 630.075 C 236.811 629.428, 234.619 628.246, 233.958 627.449 C 232.647 625.869, 230.767 625.569, 229.578 626.750" stroke="#bbc0d1" fill="#bbc0d1" fill-opacity="0.2" fill-rule="evenodd"/><path class="svg-region-OVl" d="M 545.689 439.880 C 544.927 440.771, 544.025 442.288, 543.683 443.250 C 543.342 444.212, 542.599 445, 542.031 445 C 541.464 445, 541 446.519, 541 448.375 C 541 451.265, 541.399 451.830, 543.779 452.306 C 546.947 452.939, 549.976 455.709, 555 462.567 C 559.092 468.153, 564.873 474.500, 565.333 473.910 C 565.509 473.685, 566.601 471.925, 567.760 470 C 571.196 464.294, 576.117 460.175, 579.923 459.820 C 584.059 459.433, 585.426 457, 581.506 457 C 577.892 457, 573.001 452.014, 572.998 448.327 C 572.996 446.671, 571.819 444.124, 570.155 442.177 L 567.316 438.855 561.251 439.955 C 556.421 440.830, 554.360 440.770, 551.130 439.657 C 547.523 438.414, 546.922 438.439, 545.689 439.880" stroke="#593939" fill="#593939" fill-opacity="0.2" fill-rule="evenodd"/><path class="svg-region-ODMl" d="M 482.473 639.406 C 481.159 651.679, 483.462 670.690, 487.545 681.270 C 489.405 686.090, 489.386 689.354, 487.474 693.050 C 485.464 696.938, 487.192 696.917, 491.653 693 C 493.532 691.350, 495.932 690, 496.985 690 C 498.039 690, 499.260 689.437, 499.700 688.748 C 500.140 688.060, 501.750 686.852, 503.277 686.065 C 504.805 685.277, 510.430 680.456, 515.777 675.350 C 521.125 670.245, 527.638 664.060, 530.250 661.605 C 532.862 659.151, 535 656.411, 535 655.516 C 535 654.621, 532.310 651.249, 529.022 648.021 C 523.675 642.773, 522.049 641.830, 513.634 639.095 C 506.511 636.779, 487.880 633, 483.586 633 C 483.351 633, 482.850 635.883, 482.473 639.406" stroke="#999999" fill="#999999" fill-opacity="0.2" fill-rule="evenodd"/>
    </svg>