<svg xmlns="http://www.w3.org/2000/svg" width="1078" height="1151" viewBox="0 0 1078 1151" version="1.1">
    <path class="svg-region-V" d="M 492 216.151 C 490.075 216.682, 487.046 217.077, 485.268 217.028 C 483.491 216.980, 478.643 218.528, 474.496 220.470 C 470.349 222.411, 466.710 224, 466.408 224 C 466.107 224, 463.977 225.296, 461.674 226.880 C 455.135 231.380, 446.828 235.610, 443.094 236.343 C 439.378 237.073, 430.681 242.465, 427.500 246.010 C 426.400 247.236, 423.025 249.804, 420 251.717 C 413.261 255.978, 402 266.843, 402 269.084 C 402 269.986, 400.650 272.424, 399 274.500 C 397.350 276.576, 396 278.654, 396 279.117 C 396 279.580, 394.200 282.331, 392.001 285.230 C 389.801 288.128, 387.056 292.525, 385.900 295 C 384.744 297.475, 382.796 300.850, 381.571 302.500 C 377.752 307.641, 369.168 325.235, 367.666 331 C 366.095 337.030, 364.459 341.885, 362.445 346.500 C 361.725 348.150, 359.556 353.232, 357.626 357.793 C 355.695 362.354, 353.253 366.854, 352.199 367.793 C 351.144 368.732, 349.318 371.833, 348.141 374.685 C 345.599 380.843, 345.216 394.120, 347.396 400.500 C 348.148 402.700, 349.063 407.650, 349.430 411.500 C 350.304 420.662, 351.457 423.380, 355.231 425.167 C 357.427 426.207, 359.435 428.685, 362.032 433.559 L 365.716 440.476 373.108 442.194 C 380.238 443.851, 380.713 443.843, 386.500 441.979 C 389.800 440.916, 394.779 439.566, 397.563 438.980 C 402.790 437.880, 410.647 433.007, 413.876 428.863 C 416.485 425.515, 420 415.051, 420 410.634 C 420 406.708, 422.379 401.024, 424.557 399.744 C 425.264 399.329, 426.623 396.629, 427.577 393.744 C 428.531 390.860, 430.264 386.925, 431.428 385 C 434.335 380.195, 435.582 377.375, 437.509 371.251 C 438.417 368.363, 439.919 365.438, 440.846 364.751 C 441.772 364.063, 443.089 362.235, 443.772 360.689 C 445.171 357.521, 454.633 345.438, 460.121 339.814 C 462.112 337.773, 465.037 335.824, 466.621 335.483 C 468.204 335.143, 471.903 333.994, 474.839 332.932 C 482.440 330.181, 493.509 330.301, 499.473 333.199 C 501.963 334.409, 504 335.724, 504 336.123 C 504 336.521, 505.050 338.119, 506.332 339.673 C 510.541 344.775, 514.335 353.139, 516.038 361.070 C 517.124 366.133, 517.785 367.088, 523.303 371.570 C 531.769 378.445, 536.725 381, 541.595 381 C 545.498 381, 546.095 380.573, 552.611 373.124 C 556.400 368.791, 560.721 363.661, 562.213 361.723 C 564.899 358.234, 576.251 349, 577.853 349 C 578.310 349, 582.468 345.267, 587.092 340.704 C 599 328.955, 601.163 327.569, 605.408 328.970 C 607.273 329.585, 609.860 329.822, 611.157 329.497 C 613.493 328.910, 613.513 328.787, 613.317 316.202 C 613.097 302.104, 612.269 293.987, 610.903 292.550 C 610.406 292.028, 610 290.585, 610 289.345 C 610 284.946, 598.401 260.407, 593.868 255.215 C 592.291 253.409, 591 251.257, 591 250.434 C 591 249.611, 590.212 248.660, 589.250 248.322 C 588.288 247.984, 586.258 246.559, 584.739 245.156 C 580.611 241.341, 563.074 229.281, 558.500 227.110 C 546.671 221.497, 540.481 219, 538.397 219 C 537.117 219, 534.142 218.374, 531.785 217.608 C 526.460 215.878, 496.909 214.795, 492 216.151" stroke="#dd8a8a" fill="#dd8a8a" fill-opacity="0.2" fill-rule="evenodd"/><path class="svg-region-SV" d="M 474.500 333.041 C 471.750 334.040, 468.221 335.134, 466.657 335.471 C 465.093 335.809, 462.338 337.528, 460.534 339.292 C 456.148 343.584, 445.571 356.995, 443.662 360.687 C 442.820 362.314, 441.435 364.224, 440.583 364.931 C 439.731 365.638, 438.247 368.756, 437.285 371.858 C 436.324 374.961, 434.119 380.037, 432.386 383.138 C 430.653 386.239, 428.471 391.077, 427.537 393.888 C 426.603 396.700, 425.435 399, 424.940 399 C 423.336 399, 420 406.819, 420 410.579 C 420 412.591, 418.995 417.167, 417.766 420.747 C 415.941 426.064, 414.536 428.144, 410.102 432.097 C 404.320 437.250, 404.377 437.479, 411.645 438.308 C 414.212 438.601, 416.306 438.301, 417.145 437.520 C 417.890 436.826, 421.115 434.850, 424.312 433.129 C 428.943 430.635, 431.320 430, 436.015 430 C 442.145 430, 444.958 429.128, 451.230 425.285 C 453.436 423.934, 456.553 423, 458.858 423 C 463.064 423, 464.375 421.964, 465.351 417.869 C 466.085 414.789, 468.213 414.033, 476.193 414.014 C 479.946 414.005, 483.012 413.351, 485.193 412.095 C 489.658 409.523, 496.990 408.365, 498.041 410.067 C 498.682 411.104, 500.439 411.043, 507.168 409.748 C 511.750 408.867, 517.300 407.673, 519.500 407.097 C 521.700 406.520, 525.826 406.037, 528.668 406.024 C 536.497 405.988, 536.979 405.615, 536.325 400.094 C 535.673 394.590, 537.549 390.091, 542.093 386.269 C 543.679 384.934, 545.967 382.415, 547.177 380.671 L 549.378 377.500 547.204 379.391 C 545.436 380.930, 544.076 381.169, 539.909 380.676 C 537.093 380.342, 534.113 379.509, 533.287 378.824 C 532.462 378.139, 530.994 377.111, 530.024 376.539 C 529.055 375.968, 525.984 373.700, 523.199 371.500 C 518.147 367.509, 515 361.737, 515 356.463 C 515 353.941, 509.789 343.763, 506.462 339.787 C 505.213 338.295, 504.036 336.705, 503.846 336.254 C 503.656 335.803, 501.787 334.436, 499.693 333.217 C 496.542 331.382, 494.472 331.019, 487.693 331.112 C 482.533 331.182, 477.649 331.896, 474.500 333.041" stroke="#c666b5" fill="#c666b5" fill-opacity="0.2" fill-rule="evenodd"/><path class="svg-region-SF" d="M 598.429 330.206 C 596.740 331.468, 592.110 335.740, 588.140 339.699 C 584.171 343.658, 577.793 348.978, 573.968 351.521 C 570.144 354.064, 565.323 358.186, 563.257 360.681 C 561.191 363.176, 557.685 367.306, 555.466 369.859 C 553.247 372.412, 550.156 376.400, 548.598 378.723 C 547.040 381.045, 544.330 384.195, 542.576 385.723 C 537.579 390.074, 536 393.021, 536 398 C 536 401.937, 537.658 406.087, 539.995 408 C 540.331 408.275, 541.811 410.106, 543.284 412.069 C 544.757 414.032, 548.881 417.346, 552.450 419.433 C 560.530 424.159, 571.458 434.952, 576.535 443.221 C 581.827 451.843, 582.351 452.175, 589.722 451.581 C 597.047 450.992, 602 448.754, 602 446.033 C 602 444.980, 602.450 443.840, 603 443.500 C 603.550 443.160, 604 442.007, 604 440.938 C 604 438.205, 613.111 429, 615.816 429 C 617.017 429, 617.985 428.663, 617.967 428.250 C 617.732 422.847, 615.861 413.480, 614.757 412.176 C 613.977 411.254, 612.528 408.303, 611.537 405.619 C 610.037 401.557, 609.871 399.375, 610.549 392.619 C 610.997 388.153, 611.428 381.125, 611.508 377 C 611.588 372.875, 612.237 361.542, 612.952 351.816 C 614.496 330.779, 614.292 329.338, 609.775 329.373 C 607.974 329.388, 605.375 329.065, 604 328.656 C 602.147 328.105, 600.705 328.506, 598.429 330.206" stroke="#8c6b55" fill="#8c6b55" fill-opacity="0.2" fill-rule="evenodd"/><path class="svg-region-AAB" d="M 593.156 545.969 C 589.855 549.047, 588.024 550, 585.416 550 C 583.163 550, 582 550.474, 582 551.393 C 582 554.021, 579.888 554.175, 566.339 552.537 C 563.698 552.218, 563.081 552.542, 562.588 554.507 C 562.263 555.801, 561.420 557.454, 560.716 558.180 C 558.353 560.614, 555.118 565.630, 551.421 572.592 L 547.752 579.500 546.609 603.500 L 545.466 627.500 547.733 630.890 C 548.980 632.754, 550 635.121, 550 636.149 C 550 637.178, 550.900 638.790, 552 639.732 C 553.100 640.674, 554 642.293, 554 643.329 C 554 644.743, 554.437 645.027, 555.750 644.465 C 556.712 644.052, 559.525 643.391, 562 642.996 C 564.475 642.600, 567.850 641.588, 569.500 640.747 C 571.150 639.906, 574.300 638.454, 576.500 637.520 C 578.700 636.585, 581.694 635.186, 583.154 634.410 C 584.614 633.635, 587.111 633, 588.702 633 C 591.941 633, 604.290 627.015, 607.741 623.774 C 608.974 622.616, 610.920 619.730, 612.067 617.362 C 613.213 614.994, 615.187 611.530, 616.452 609.665 C 617.718 607.800, 619.807 603.625, 621.094 600.387 C 623.229 595.017, 623.433 593.008, 623.415 577.500 C 623.398 563.431, 623.074 559.638, 621.537 555.500 C 618.850 548.265, 617.963 547.591, 611.531 547.889 C 607.643 548.069, 606 547.775, 606 546.898 C 606 546.175, 605.013 546.579, 603.650 547.859 C 601.025 550.325, 599.977 549.702, 598.374 544.719 L 597.479 541.937 593.156 545.969" stroke="#7f3c1a" fill="#7f3c1a" fill-opacity="0.2" fill-rule="evenodd"/><path class="svg-region-APB" d="M 587.500 451.935 C 578.631 453.095, 574.185 456.557, 570.578 465.114 C 569.561 467.526, 568.095 470.959, 567.321 472.741 C 566.548 474.524, 565.514 479.474, 565.025 483.741 C 564.444 488.805, 562.983 494.105, 560.817 499 C 557.526 506.441, 557.500 506.622, 557.500 522 C 557.500 535.880, 557.722 537.918, 559.624 541.500 C 560.792 543.700, 562.550 547.128, 563.530 549.117 C 565.296 552.703, 565.379 552.740, 572.906 553.312 C 577.083 553.629, 580.849 553.543, 581.276 553.119 C 581.702 552.695, 581.648 548.744, 581.155 544.338 C 580.402 537.609, 579.691 535.502, 576.710 531.169 C 574.758 528.331, 572.876 524.713, 572.528 523.129 C 571.701 519.363, 574.914 509.829, 580.501 499.466 C 582.884 495.047, 585.582 488.542, 586.497 485.010 C 588.519 477.210, 590.609 472.978, 593.399 471.041 C 594.555 470.239, 597.900 467.326, 600.833 464.568 C 605.841 459.858, 606.038 459.496, 604.065 458.616 C 602.910 458.100, 601.036 456.176, 599.901 454.339 C 597.684 450.753, 597.226 450.664, 587.500 451.935" stroke="#ac7444" fill="#ac7444" fill-opacity="0.2" fill-rule="evenodd"/><path class="svg-region-PC" d="M 515.500 587.487 C 513.850 588.215, 511.375 590.316, 510 592.155 C 507.928 594.928, 507.500 596.620, 507.502 602.047 C 507.505 609.773, 509.440 613.498, 513.966 614.493 C 516.419 615.031, 517.001 615.671, 517.006 617.829 C 517.013 621.453, 518.917 628.164, 520.458 630 C 521.150 630.825, 522.236 633.046, 522.871 634.935 C 524.708 640.404, 526.789 642.130, 530.668 641.403 C 532.500 641.059, 534 641.059, 534 641.403 C 534 642.411, 527.660 647.898, 525.750 648.544 C 523.425 649.329, 523.541 652.736, 526.033 656.822 C 527.147 658.649, 528.331 662.136, 528.665 664.572 C 528.999 667.007, 529.789 669, 530.420 669 C 532.117 669, 541.524 659.023, 543.461 655.170 C 544.381 653.338, 547.115 650.638, 549.536 649.170 C 552.966 647.089, 553.944 645.905, 553.968 643.800 C 553.986 642.315, 553.389 640.740, 552.641 640.300 C 551.894 639.860, 550.714 637.700, 550.018 635.500 C 549.323 633.300, 547.862 630.521, 546.772 629.324 C 545.682 628.127, 545.006 626.777, 545.269 626.324 C 545.533 625.871, 546.067 617.288, 546.457 607.250 L 547.167 589 542.774 589 C 540.359 589, 537.509 588.339, 536.441 587.532 C 533.955 585.651, 519.730 585.621, 515.500 587.487" stroke="#cda789" fill="#cda789" fill-opacity="0.2" fill-rule="evenodd"/><path class="svg-region-DB" d="M 526.468 405.992 C 522.050 406.379, 517.550 407.149, 516.468 407.702 C 515.386 408.255, 510.970 409.294, 506.656 410.011 C 500.334 411.062, 498.661 411.069, 498.030 410.049 C 496.990 408.365, 489.631 409.538, 485.193 412.095 C 483.012 413.351, 479.946 414.005, 476.193 414.014 C 468.213 414.033, 466.085 414.789, 465.351 417.869 C 464.370 421.987, 463.068 422.994, 458.628 423.073 C 456.357 423.113, 453.150 423.999, 451.500 425.041 C 445.623 428.754, 441.675 430, 435.790 430 C 430.806 430, 428.772 430.589, 423.421 433.581 C 419.899 435.551, 416.807 437.503, 416.550 437.919 C 416.293 438.336, 413.487 438.324, 410.316 437.894 C 405.476 437.237, 402.710 437.592, 393.100 440.104 C 386.803 441.751, 381.356 443.280, 380.995 443.503 C 380.634 443.726, 377.900 443.259, 374.920 442.466 C 366.561 440.242, 365.546 440.463, 363.521 444.953 C 361.558 449.307, 362.043 452.918, 366.050 463.788 C 367.123 466.696, 368 470.189, 368 471.551 C 368 472.913, 368.441 474.809, 368.979 475.764 C 369.517 476.719, 371.821 482, 374.099 487.500 C 376.377 493, 378.636 497.928, 379.120 498.450 C 379.604 498.973, 380 500.198, 380 501.173 C 380 502.149, 380.875 504.871, 381.944 507.223 C 383.013 509.575, 384.134 512.625, 384.435 514 C 384.736 515.375, 385.440 517.175, 385.999 518 C 386.873 519.291, 387.258 519.202, 388.757 517.366 C 389.716 516.192, 392.300 514.673, 394.500 513.989 C 396.700 513.306, 399.175 512.183, 400 511.494 C 402.492 509.412, 407.778 507, 409.848 507 C 410.919 507, 414.428 508.304, 417.647 509.898 C 423.255 512.674, 433.097 515.094, 439.542 515.280 C 441.215 515.328, 443.915 514.411, 445.542 513.242 C 447.169 512.073, 450.975 510.398, 454 509.520 C 457.025 508.641, 460.850 507.452, 462.500 506.876 C 464.150 506.300, 471.951 505.579, 479.836 505.274 L 494.171 504.718 500.486 511.223 C 505.994 516.895, 506.954 518.463, 507.996 523.482 L 509.191 529.236 514.345 528.525 C 517.180 528.134, 521.525 527.743, 524 527.657 L 528.500 527.500 528.815 531.326 C 529.019 533.801, 530.343 536.742, 532.565 539.653 C 534.454 542.128, 536 545.244, 536 546.577 C 536 548.922, 536.238 549, 543.367 549 C 552.255 549, 561.560 545.777, 560.413 543.097 C 557.938 537.312, 557.082 533.923, 557.044 529.750 C 557.020 527.138, 556.820 525, 556.599 525 C 556.379 525, 553.791 526.121, 550.849 527.490 C 547.907 528.860, 544.791 529.985, 543.924 529.990 C 541.147 530.007, 538.072 525.581, 534.982 517.114 C 531.623 507.910, 529.385 503.253, 524.987 496.318 C 522.739 492.774, 522 490.420, 522 486.804 C 522 483.234, 521.621 482, 520.523 482 C 517.979 482, 516.079 477.699, 515.402 470.410 C 514.896 464.974, 515.105 462.721, 516.323 460.443 C 521.049 451.605, 536.273 444.399, 542.816 447.902 C 544.342 448.719, 544.470 448.038, 544.179 440.652 C 543.861 432.548, 543.879 432.479, 547.276 429 C 550.658 425.537, 553 421.956, 553 420.250 C 553 419.765, 551.252 418.386, 549.116 417.185 C 546.979 415.984, 544.430 413.764, 543.451 412.251 C 540.617 407.874, 537.623 405.024, 536 405.161 C 535.175 405.231, 530.886 405.604, 526.468 405.992" stroke="#e8b1e4" fill="#e8b1e4" fill-opacity="0.2" fill-rule="evenodd"/><path class="svg-region-IBl" d="M 514.500 578 C 512.850 578.420, 508.058 578.817, 503.852 578.882 C 497.382 578.982, 495.301 579.474, 490.352 582.075 C 482.157 586.382, 478.712 589.210, 475.201 594.510 C 471.583 599.972, 470.571 604.993, 471.490 612.914 C 472.028 617.551, 472.614 618.962, 474.334 619.758 C 477.292 621.128, 488.512 630.062, 494 635.419 C 498.950 640.249, 505.623 644, 509.269 644 C 510.561 644, 514.172 645.538, 517.294 647.418 L 522.970 650.836 528.485 646.750 C 531.518 644.503, 534 642.276, 534 641.801 C 534 641.326, 532.386 641.046, 530.413 641.179 C 526.511 641.442, 523.705 638.905, 522.472 634 C 522.127 632.625, 521.249 630.825, 520.521 630 C 518.950 628.217, 517.013 621.555, 517.006 617.902 C 517.001 615.808, 516.236 615.003, 513.067 613.759 C 509.710 612.440, 508.964 611.578, 507.964 607.867 C 505.333 598.096, 509.310 589.293, 517.375 587.035 C 519.754 586.369, 524.918 585.976, 528.852 586.162 C 533.302 586.372, 536.004 586.112, 536.002 585.473 C 535.999 584.147, 533.039 579.852, 531.046 578.282 C 529.356 576.950, 519.299 576.779, 514.500 578" stroke="#b10e0e" fill="#b10e0e" fill-opacity="0.2" fill-rule="evenodd"/><path class="svg-region-MB" d="M 467 506.049 C 465.075 506.499, 461.250 507.381, 458.500 508.009 C 452.981 509.270, 442.673 513.994, 440.331 516.336 C 439.982 516.684, 441.913 519.151, 444.622 521.817 C 447.330 524.483, 451.501 529.665, 453.891 533.332 C 456.280 536.999, 458.520 540.003, 458.867 540.007 C 459.215 540.011, 460.592 541.617, 461.927 543.577 C 463.261 545.536, 465.961 547.962, 467.927 548.967 C 469.892 549.972, 472.666 551.878, 474.091 553.202 C 475.516 554.526, 479.228 556.856, 482.341 558.378 C 485.453 559.901, 488 561.564, 488 562.074 C 488 562.583, 489.096 563, 490.435 563 C 491.774 563, 493.912 563.402, 495.185 563.893 C 498.639 565.226, 504.998 572.034, 505.015 574.417 C 505.049 579.001, 506.291 579.529, 513.960 578.214 C 522.861 576.687, 529.049 576.712, 531.063 578.282 C 532.676 579.539, 535.428 584.173, 536.390 587.250 C 536.814 588.605, 538.046 589, 541.855 589 L 546.773 589 547.476 584.314 C 548.324 578.658, 552.821 568.858, 557.312 562.879 C 559.121 560.470, 561.609 556.756, 562.841 554.624 C 564.870 551.113, 564.936 550.587, 563.541 549.045 C 562.693 548.109, 562 546.815, 562 546.171 C 562 544.550, 560.885 544.692, 555.500 547 C 552.282 548.379, 548.610 549, 543.667 549.001 L 536.500 549.002 536.467 554.887 C 536.448 558.288, 535.868 561.454, 535.094 562.386 C 533.104 564.785, 520.437 564.612, 515.345 562.116 C 513.230 561.080, 510.279 559.747, 508.787 559.154 C 507.294 558.561, 504.975 556.336, 503.632 554.209 C 502.290 552.082, 499.398 548.271, 497.207 545.739 L 493.222 541.135 494.844 535.650 C 496.272 530.822, 496.828 530.100, 499.483 529.630 C 509.512 527.852, 509.107 528.102, 508.392 524.133 C 507.437 518.838, 506.389 517.132, 500.168 510.750 L 494.563 505 482.531 505.115 C 475.914 505.178, 468.925 505.598, 467 506.049" stroke="#f9c6c6" fill="#f9c6c6" fill-opacity="0.2" fill-rule="evenodd"/><path class="svg-region-LBl" d="M 404.500 508.665 C 402.850 509.537, 400.825 510.825, 400 511.527 C 399.175 512.228, 396.594 513.366, 394.264 514.055 C 387.988 515.912, 386.433 518.842, 387.979 525.903 C 388.653 528.981, 390.059 533.136, 391.102 535.136 C 392.146 537.136, 393 540.309, 393 542.186 C 393 544.064, 393.456 546.056, 394.014 546.614 C 394.815 547.415, 397.993 562.218, 397.999 565.179 C 397.999 565.552, 398.576 566.452, 399.280 567.179 C 399.984 567.905, 401.950 571.434, 403.649 575.020 C 408.009 584.224, 425.945 606, 429.166 606 C 429.977 606, 432.409 607.505, 434.570 609.345 C 436.732 611.185, 439.483 613.210, 440.684 613.845 C 443.293 615.224, 456.635 615.399, 457.460 614.065 C 457.784 613.541, 461.155 614.414, 465.119 616.049 L 472.200 618.969 471.516 612.155 C 471.109 608.104, 471.271 603.708, 471.915 601.314 C 474.684 591.032, 488.342 580.323, 500.040 579.263 C 505.656 578.753, 506.111 578.536, 505.592 576.604 C 505.281 575.447, 505.019 574.050, 505.009 573.500 C 504.977 571.780, 498.213 565.032, 495.478 563.992 C 494.044 563.446, 491.774 563, 490.435 563 C 489.096 563, 488 562.613, 488 562.139 C 488 561.665, 485.875 560.203, 483.279 558.889 C 480.682 557.575, 476.404 554.842, 473.771 552.815 C 471.139 550.788, 468.140 548.862, 467.107 548.534 C 466.074 548.206, 463.991 546.152, 462.478 543.969 C 460.966 541.786, 459.351 540, 458.890 540 C 458.429 540, 457.300 538.538, 456.381 536.750 C 454.128 532.366, 451.479 528.964, 445.303 522.525 C 439.111 516.069, 436.268 514.498, 429.119 513.584 C 426.159 513.206, 421.109 511.570, 417.897 509.948 C 411.314 506.625, 408.815 506.385, 404.500 508.665" stroke="#d7b230" fill="#d7b230" fill-opacity="0.2" fill-rule="evenodd"/><path class="svg-region-DMl" d="M 377 630.674 C 371.535 632.748, 368.865 634.598, 366.679 637.824 C 364.412 641.169, 364.263 642.025, 365.020 647.339 C 365.522 650.862, 366.857 654.631, 368.385 656.839 C 369.778 658.853, 371.617 662.486, 372.472 664.914 C 373.327 667.341, 374.490 669.886, 375.056 670.568 C 375.623 671.250, 375.816 672.884, 375.487 674.198 C 375.085 675.796, 375.569 677.454, 376.949 679.208 C 379.982 683.064, 388 698.999, 388 701.172 C 388 702.201, 389.156 704.789, 390.569 706.924 C 392.968 710.550, 393.116 711.465, 392.819 720.828 L 392.500 730.851 395.500 731.464 C 401.746 732.739, 404.649 732.814, 409.500 731.823 C 412.250 731.261, 416.975 730.662, 420 730.492 C 425.633 730.177, 432.939 728.858, 436.500 727.514 C 441.036 725.802, 447.026 722.767, 447.553 721.913 C 447.864 721.411, 449.016 721, 450.114 721 C 452.100 721, 459.095 718.239, 464.154 715.459 C 465.614 714.656, 467.450 714, 468.233 714 C 469.764 714, 478.221 708.711, 481.500 705.703 C 484.965 702.524, 489.921 699.833, 491.039 700.524 C 491.631 700.890, 493.808 700.070, 495.876 698.701 C 497.944 697.332, 502.337 694.849, 505.639 693.182 C 510.419 690.770, 513.226 688.251, 519.414 680.826 C 528.053 670.460, 529.414 667.882, 528.562 663.500 C 527.824 659.707, 523.972 651.919, 522 650.234 C 518.878 647.565, 510.952 644, 508.142 644 C 506.534 644, 503.257 643.110, 500.859 642.022 C 497.356 640.433, 494.241 640.033, 485 639.990 C 471.884 639.929, 457.699 638.016, 447.500 634.933 C 442.384 633.386, 435.654 632.548, 422.500 631.819 C 398.159 630.470, 378.820 629.983, 377 630.674" stroke="#68533d" fill="#68533d" fill-opacity="0.2" fill-rule="evenodd"/><path class="svg-region-PMl" d="M 357.696 644.475 C 353.265 646.786, 349.126 650.057, 342.819 656.232 C 339.599 659.384, 333.508 664.295, 329.285 667.145 C 319.670 673.633, 306.746 685.627, 301.500 692.931 C 299.300 695.994, 296.150 699.894, 294.500 701.598 C 292.850 703.301, 290.150 706.607, 288.500 708.943 C 286.850 711.279, 284.262 713.834, 282.750 714.621 C 281.238 715.408, 280 716.861, 280 717.851 C 280 720.261, 276.347 723.462, 271.750 725.081 C 269.279 725.951, 268 727.021, 268 728.217 C 268 730.875, 270.362 738, 271.243 738 C 272.949 738, 276 742.169, 276 744.500 C 276 746.056, 276.567 747, 277.500 747 C 278.622 747, 279.001 748.197, 279.006 751.750 C 279.014 758.902, 280.696 764, 283.047 764 C 284.121 764, 285 763.585, 285 763.077 C 285 761.012, 290.434 755.902, 294.579 754.068 C 297.010 752.993, 299 751.658, 299 751.102 C 299 750.546, 300.602 749.790, 302.561 749.423 C 304.778 749.007, 306.893 747.712, 308.165 745.990 C 309.289 744.470, 313.934 741.275, 318.487 738.889 L 326.766 734.553 334.133 735.957 C 345.464 738.116, 354.410 738.324, 363.358 736.636 C 367.836 735.791, 374.294 734.810, 377.709 734.456 C 381.124 734.103, 385.849 733.244, 388.209 732.548 L 392.500 731.283 392.787 720.996 C 393.054 711.409, 392.901 710.448, 390.537 706.876 C 389.141 704.768, 388 702.209, 388 701.190 C 388 698.928, 380.229 683.378, 377.130 679.438 C 375.619 677.517, 375.079 675.823, 375.474 674.249 C 375.796 672.963, 375.395 670.693, 374.582 669.205 C 373.768 667.717, 372.157 664.475, 371.002 662 C 369.846 659.525, 368.024 655.925, 366.952 654 C 365.880 652.075, 365.002 648.813, 365.002 646.750 C 365 643.526, 364.684 643.001, 362.750 643.006 C 361.512 643.010, 359.238 643.671, 357.696 644.475" stroke="#90cf92" fill="#90cf92" fill-opacity="0.2" fill-rule="evenodd"/><path class="svg-region-Fl" d="M 306.500 528.200 C 304.703 529.315, 299.318 530.986, 287.500 534.099 C 279.665 536.162, 267.387 538.309, 260.036 538.900 C 252.621 539.496, 252.553 539.528, 249.536 543.789 C 247.866 546.148, 243.912 551.031, 240.750 554.640 C 234.432 561.850, 234.565 561.333, 234.968 577.098 C 235.172 585.068, 234.962 586.097, 232.094 591.179 C 227.960 598.505, 227.698 607.902, 231.742 603.858 C 232.597 603.003, 233.838 603.170, 236.692 604.527 C 242.653 607.360, 249.266 607.631, 253.371 605.208 C 258.331 602.282, 282.635 601.606, 288.133 604.241 C 292.450 606.311, 309.631 608.656, 327 609.548 C 346.017 610.524, 349.122 611.846, 352.071 620.221 C 353.524 624.349, 354.672 624.467, 362.259 621.272 C 365.421 619.939, 366.669 619.884, 370.132 620.921 C 376.427 622.807, 376.671 621.078, 371.021 614.621 C 368.259 611.465, 366 608.319, 366 607.630 C 366 606.940, 365.069 604.448, 363.930 602.091 C 362.792 599.735, 362.097 597.190, 362.386 596.436 C 362.676 595.681, 362.491 594.804, 361.976 594.485 C 360.402 593.512, 351.497 579.721, 350.041 576 C 349.287 574.075, 348.087 571.809, 347.374 570.963 C 346.660 570.118, 345.104 567.193, 343.915 564.463 C 339.913 555.274, 338.323 551.517, 336.945 548 C 336.191 546.075, 334.770 543.628, 333.787 542.561 C 332.804 541.495, 332 540.249, 332 539.792 C 332 537.794, 326.768 530.932, 324.255 529.634 C 320.262 527.571, 308.984 526.660, 306.500 528.200" stroke="#5ca7a9" fill="#5ca7a9" fill-opacity="0.2" fill-rule="evenodd"/><path class="svg-region-PCl" d="M 266.714 602.693 C 259.240 602.983, 256.169 603.536, 253.714 605.033 C 249.552 607.571, 243.724 607.529, 238.339 604.922 C 233.177 602.423, 230.907 602.698, 229.336 606.012 C 228.124 608.568, 225.305 624.374, 224.789 631.500 C 224.537 634.994, 224.753 635.469, 226.500 635.259 C 240.915 633.520, 243.780 633.676, 249.178 636.487 C 252.105 638.013, 255.914 640.496, 257.643 642.006 C 261.939 645.758, 271.447 652, 272.867 652 C 273.505 652, 274.809 652.410, 275.764 652.911 C 276.719 653.413, 279.641 654.576, 282.258 655.497 C 284.875 656.418, 288.855 658.708, 291.103 660.586 C 293.350 662.464, 296.239 664, 297.522 664 C 301.215 664, 303.990 668.410, 304.058 674.385 C 304.089 677.198, 304.430 681.272, 304.814 683.438 L 305.514 687.376 313.507 679.928 C 317.903 675.831, 325.453 669.831, 330.285 666.594 C 335.117 663.358, 339.982 659.429, 341.096 657.865 C 343.189 654.926, 356.158 644.800, 359.250 643.691 C 360.212 643.345, 361 642.399, 361 641.589 C 361 640.031, 357.353 633.319, 355.419 631.316 C 354.790 630.665, 353.986 627.965, 353.633 625.316 C 353.280 622.667, 352.114 619.062, 351.043 617.304 C 347.471 611.444, 345.556 610.848, 325.721 609.425 C 302.534 607.761, 292.539 606.420, 288.619 604.444 C 284.919 602.579, 279.918 602.180, 266.714 602.693 M 339.261 624.926 C 337.480 625.922, 335.455 627.195, 334.761 627.755 C 334.068 628.315, 331.582 629.090, 329.237 629.477 C 324.729 630.221, 323 632.101, 323 636.260 C 323 638.731, 326.702 643, 328.845 643 C 331.428 643, 344.221 634.472, 345.580 631.845 C 347.316 628.489, 347.393 625.793, 345.800 624.200 C 344.228 622.628, 343.158 622.747, 339.261 624.926" stroke="#465ee0" fill="#465ee0" fill-opacity="0.2" fill-rule="evenodd"/><path class="svg-region-Ol" d="M 686.500 293.796 C 685.950 294.325, 683.807 295.299, 681.738 295.961 C 679.360 296.721, 675.679 299.539, 671.738 303.617 C 668.307 307.167, 663.824 311.233, 661.776 312.654 C 659.727 314.074, 656.843 317.321, 655.367 319.868 C 653.890 322.416, 651.702 325.685, 650.503 327.134 C 647.927 330.248, 646.566 335.269, 644.980 347.500 C 644.338 352.450, 643.186 359.875, 642.419 364 C 641.652 368.125, 640.556 375.325, 639.983 380 C 639.409 384.675, 638.497 391.200, 637.954 394.500 C 636.802 401.514, 635.533 450.462, 635.557 487 C 635.571 508.382, 635.924 514.639, 637.744 525.743 C 640.195 540.694, 641.742 546.783, 643.673 549.079 C 644.491 550.052, 645 553.266, 645 557.460 C 645 564.289, 649.360 579.748, 652.626 584.500 C 655.772 589.077, 659.765 593.634, 663.973 597.447 C 666.434 599.676, 673.184 606.291, 678.973 612.146 C 693.620 626.960, 704.515 636.716, 708.833 638.888 C 720.737 644.875, 745.082 645.670, 757 640.462 C 767.725 635.775, 776.469 629.446, 783.404 621.351 C 790.875 612.630, 793.578 606.592, 797.440 590 C 801.655 571.890, 803.208 563.399, 804.487 551.458 C 804.793 548.605, 805.811 540.787, 807.931 525 C 809.391 514.125, 809.176 502.350, 807.060 477.500 C 805.452 458.620, 804.617 453.372, 801.174 440.500 C 798.968 432.250, 796.180 423.025, 794.979 420 C 793.778 416.975, 791.692 410.900, 790.344 406.500 C 788.996 402.100, 787.052 396.700, 786.024 394.500 C 782.463 386.874, 780.202 381.194, 779.557 378.262 C 779.201 376.641, 777.130 372.269, 774.955 368.546 C 772.780 364.824, 770.998 361.491, 770.996 361.139 C 770.993 360.788, 769.629 358.475, 767.963 356 C 766.298 353.525, 763.169 347.768, 761.012 343.206 C 757.675 336.151, 755.327 333.092, 745.294 322.723 C 732.113 309.101, 724.663 302.653, 718 299.101 C 715.525 297.782, 712.667 295.984, 711.649 295.105 C 710.254 293.901, 707.056 293.425, 698.649 293.171 C 692.362 292.980, 687.064 293.253, 686.500 293.796" stroke="#aa444d" fill="#aa444d" fill-opacity="0.2" fill-rule="evenodd"/><path class="svg-region-VOC" d="M 518.053 528.104 C 516.707 528.642, 512.882 529.028, 509.553 528.963 C 506.224 528.899, 501.925 529.144, 500 529.510 C 496.811 530.115, 496.343 530.661, 494.735 535.659 L 492.969 541.145 497.985 546.772 C 500.743 549.867, 503.015 552.872, 503.033 553.450 C 503.097 555.461, 506.756 558.901, 509.588 559.612 C 511.157 560.005, 513.874 561.173, 515.627 562.207 C 518.166 563.705, 520.405 564.028, 526.647 563.794 C 534.139 563.513, 534.539 563.377, 535.833 560.669 C 536.812 558.622, 536.993 555.905, 536.485 550.854 C 535.903 545.055, 535.209 543.116, 532.392 539.426 C 529.845 536.089, 529 533.989, 529 530.991 L 529 527 524.750 527.063 C 522.413 527.098, 519.399 527.567, 518.053 528.104" stroke="#ff8f93" fill="#ff8f93" fill-opacity="0.2" fill-rule="evenodd"/><path class="svg-region-OABl" d="M 611.958 430.632 C 609.695 432.038, 608.065 434.051, 605.184 439 C 601.562 445.222, 601.509 447, 604.945 447 C 606.348 447, 606.932 448.060, 607.457 451.561 C 608.093 455.804, 607.881 456.439, 604.418 460.666 C 602.370 463.165, 598.554 466.850, 595.939 468.855 C 590.761 472.824, 588.958 475.990, 586.074 486.174 C 585.035 489.845, 582.652 495.470, 580.778 498.674 C 578.905 501.878, 576.118 507.946, 574.586 512.157 C 571.297 521.197, 571.573 523.700, 576.674 531.117 C 579.491 535.212, 580.317 537.538, 580.843 542.862 L 581.500 549.500 585.500 549.791 C 588.969 550.043, 589.942 549.612, 592.831 546.541 C 596.726 542.401, 597.620 542.200, 598.555 545.250 C 599.906 549.657, 601.091 550.264, 603.650 547.859 C 605.013 546.579, 606 546.175, 606 546.898 C 606 547.775, 607.643 548.069, 611.531 547.889 C 618.032 547.588, 618.830 548.233, 621.472 555.940 C 622.961 560.282, 623.354 564.521, 623.419 576.940 C 623.513 594.956, 622.640 598.726, 615.518 611.074 C 613.033 615.382, 611 619.153, 611 619.453 C 611 622.129, 619.944 614.754, 628.831 604.750 C 630.663 602.688, 632.526 601, 632.971 601 C 633.416 601, 634.717 599.087, 635.863 596.750 C 639.741 588.838, 642.322 587, 649.549 587 C 654.193 587, 654.218 586.982, 652.735 584.718 C 651.913 583.464, 649.836 578.348, 648.120 573.350 C 645.777 566.527, 645 562.501, 645 557.190 C 645 553.301, 644.562 549.847, 644.026 549.516 C 642.367 548.491, 639.983 539.060, 638.044 525.858 C 636.967 518.526, 635.476 512.130, 634.494 510.631 C 633.562 509.209, 632.409 506.572, 631.931 504.773 C 631.453 502.973, 630.213 498.322, 629.175 494.437 C 628.137 490.552, 626.299 479.752, 625.091 470.437 C 623.883 461.122, 622.285 451.250, 621.540 448.500 C 620.795 445.750, 619.654 440.580, 619.004 437.011 C 618.355 433.443, 617.611 430.180, 617.352 429.761 C 616.630 428.592, 614.755 428.895, 611.958 430.632" stroke="#81244d" fill="#81244d" fill-opacity="0.2" fill-rule="evenodd"/><path class="svg-region-SOTl" d="M 532 448.500 C 530.625 449.286, 528.728 449.945, 527.784 449.965 C 525.563 450.010, 518.282 456.650, 516.292 460.443 C 515.110 462.698, 514.901 465.029, 515.402 470.410 C 516.079 477.699, 517.979 482, 520.523 482 C 521.631 482, 522 483.265, 522 487.070 C 522 491.009, 522.638 493.072, 524.863 496.320 C 529.078 502.474, 531.730 508.051, 534.967 517.568 C 537.921 526.253, 540.750 529.925, 544.500 529.943 C 545.600 529.949, 548.750 528.726, 551.500 527.227 L 556.500 524.500 557.086 515.500 C 557.549 508.388, 558.345 504.974, 560.882 499.227 C 562.991 494.448, 564.408 489.190, 565.011 483.900 C 565.517 479.471, 566.564 474.575, 567.340 473.020 C 568.574 470.547, 568.549 469.778, 567.138 466.866 C 565.399 463.274, 558.420 456, 556.713 456 C 556.138 456, 552.419 453.975, 548.448 451.500 C 540.705 446.674, 536.527 445.912, 532 448.500" stroke="#995b45" fill="#995b45" fill-opacity="0.2" fill-rule="evenodd"/><path class="svg-region-LBPCl" d="M 397.106 571.071 C 395.857 572.760, 392.856 574.990, 390.436 576.028 C 385.317 578.222, 381.691 580.785, 375.335 586.705 C 370.871 590.862, 367.560 593.584, 363.515 596.423 C 361.545 597.807, 361.546 597.845, 363.765 602.003 C 364.994 604.305, 366 606.785, 366 607.514 C 366 608.242, 368.234 611.456, 370.964 614.655 C 373.694 617.855, 375.549 620.851, 375.087 621.313 C 374.624 621.776, 372.395 621.599, 370.132 620.921 C 366.657 619.880, 365.433 619.939, 362.259 621.297 C 360.191 622.182, 357.600 623.043, 356.500 623.211 C 354.065 623.583, 353.190 629.025, 355.227 631.125 C 357.296 633.256, 361 639.950, 361 641.557 C 361 642.351, 361.675 643, 362.500 643 C 363.325 643, 364 642.613, 364 642.141 C 364 641.668, 365.812 639.223, 368.027 636.706 C 374.512 629.339, 375.731 629.229, 422 631.834 C 434.411 632.533, 441.827 633.460, 447.500 635.021 C 459.897 638.432, 464.304 639.068, 481.500 639.928 C 490.300 640.367, 498.625 641.058, 500 641.462 C 502.226 642.116, 502.167 641.983, 499.457 640.239 C 497.784 639.163, 495.228 636.871, 493.777 635.147 C 488.652 629.056, 475.329 619.994, 466.270 616.438 C 461.367 614.513, 457.354 613.437, 457.167 613.998 C 456.705 615.385, 443.363 615.261, 440.684 613.845 C 439.483 613.210, 436.732 611.185, 434.570 609.345 C 432.409 607.505, 429.934 605.966, 429.070 605.925 C 427.433 605.848, 414.333 591.671, 408.971 584.173 C 407.269 581.794, 404.720 577.181, 403.307 573.923 C 401.895 570.665, 400.432 568, 400.057 568 C 399.683 568, 398.354 569.382, 397.106 571.071 M 337.167 626.023 C 334.235 627.628, 330.285 629.231, 328.390 629.587 C 322.761 630.643, 321.067 636.835, 325.314 640.826 C 328.241 643.575, 329.882 643.559, 334.110 640.741 C 335.975 639.498, 338.739 637.932, 340.252 637.261 C 345.248 635.046, 348.646 627.046, 345.800 624.200 C 344.122 622.522, 343.218 622.713, 337.167 626.023 M 503.733 643.124 C 504.412 643.808, 505.219 644.115, 505.526 643.807 C 505.834 643.499, 505.279 642.940, 504.293 642.564 C 502.868 642.022, 502.753 642.136, 503.733 643.124" stroke="#daffff" fill="#daffff" fill-opacity="0.2" fill-rule="evenodd"/><path class="svg-region-PNl" d="M 236.455 633.618 C 235.930 633.759, 232.940 634.378, 229.811 634.995 C 224.213 636.099, 224.097 636.191, 222.559 640.808 C 219.947 648.646, 217.534 651.604, 210.576 655.494 C 206.969 657.512, 203.784 659.541, 203.497 660.005 C 203.211 660.468, 200.619 661.614, 197.738 662.552 C 194.857 663.490, 191.790 664.874, 190.921 665.628 C 190.053 666.383, 188.556 667, 187.594 667 C 186.633 667, 184.419 668.427, 182.675 670.171 C 180.931 671.915, 177.028 674.915, 174.002 676.838 C 170.976 678.761, 168.350 680.709, 168.167 681.167 C 167.983 681.625, 167.397 682, 166.863 682 C 164.499 682, 151.945 691.361, 146.250 697.371 C 142.813 700.999, 140 704.183, 140 704.448 C 140 704.712, 137.412 707.566, 134.250 710.790 C 122.682 722.581, 121 724.603, 121 726.713 C 121 727.930, 120.195 729.121, 119.148 729.453 C 117.255 730.054, 112 738.656, 112 741.153 C 112 741.914, 110.779 744.328, 109.286 746.518 C 106.317 750.875, 102.011 762.212, 102.004 765.691 C 102.002 766.896, 101.506 768.187, 100.902 768.561 C 100.191 769, 99.963 771.980, 100.254 777.004 C 100.780 786.092, 102.502 788.576, 110.245 791.419 C 116.419 793.686, 122.569 792.354, 129 787.356 C 132.209 784.862, 145.673 778.193, 148.889 777.505 C 150.753 777.106, 155.331 774.805, 159.064 772.390 C 162.796 769.976, 166.158 768, 166.533 768 C 167.440 768, 179.785 758.157, 180.747 756.666 C 181.635 755.291, 183.244 754.275, 192.210 749.424 C 195.946 747.403, 200.150 744.178, 201.696 742.147 C 206.566 735.751, 209.458 733.201, 213.825 731.454 C 217.949 729.803, 220.924 730.193, 218 732 C 217.207 732.490, 216.859 733.192, 217.226 733.560 C 217.594 733.927, 219.461 733.260, 221.376 732.077 C 224.334 730.248, 226.333 729.931, 234.679 729.961 C 240.080 729.981, 246.300 730.437, 248.500 730.975 C 250.700 731.512, 254.525 731.966, 257 731.982 C 259.475 731.999, 262.789 732.685, 264.364 733.506 C 268.319 735.569, 270.409 735.464, 269.478 733.250 C 267.251 727.950, 267.569 727.257, 273.593 724.286 C 278.261 721.984, 279.551 720.812, 280.208 718.277 C 280.657 716.544, 281.880 714.855, 282.926 714.523 C 283.972 714.191, 286.329 711.860, 288.164 709.343 C 289.999 706.826, 293.089 703.132, 295.032 701.133 C 296.975 699.135, 300.023 695.379, 301.805 692.787 L 305.046 688.073 304.371 678.479 C 303.607 667.614, 302.113 664.673, 296.817 663.613 C 295.032 663.256, 292.382 661.824, 290.928 660.431 C 288.580 658.181, 275.317 652, 272.839 652 C 271.863 652, 260.099 644.111, 256.500 641.043 C 251.197 636.522, 240.467 632.547, 236.455 633.618" stroke="#bbc0d1" fill="#bbc0d1" fill-opacity="0.2" fill-rule="evenodd"/><path class="svg-region-OVl" d="M 551.882 423.250 C 551.229 424.488, 549.188 427.062, 547.347 428.971 C 544.195 432.239, 544 432.853, 544 439.498 C 544 448.196, 544.971 449.722, 553.794 454.894 C 560.708 458.947, 564.825 462.697, 567.013 466.936 L 568.270 469.372 570.394 465.208 C 572.919 460.259, 578.264 454.369, 581.025 453.492 C 583.166 452.812, 583.595 451.486, 581.994 450.496 C 581.440 450.154, 578.905 446.684, 576.360 442.785 C 570.040 433.103, 557.798 421.026, 554.285 421.007 C 553.617 421.003, 552.536 422.012, 551.882 423.250" stroke="#593939" fill="#593939" fill-opacity="0.2" fill-rule="evenodd"/>
    </svg>