<svg xmlns="http://www.w3.org/2000/svg" width="1078" height="1151" viewBox="0 0 1078 1151" version="1.1">
    <path class="svg-region-V" d="M 486.014 217.087 C 482.446 218.259, 478.634 219.844, 477.541 220.609 C 476.449 221.374, 474.177 222, 472.494 222 C 469.370 222, 461.349 226.443, 455.098 231.636 C 451.146 234.920, 446.137 237.019, 440.534 237.741 C 437.545 238.125, 435.206 239.505, 431.034 243.346 C 419.917 253.579, 407.864 266.668, 403.267 273.500 C 400.676 277.350, 397.791 281.400, 396.855 282.500 C 395.920 283.600, 393.489 287.650, 391.453 291.500 C 389.417 295.350, 386.528 300.300, 385.033 302.500 C 381.616 307.528, 375.552 319.239, 373.641 324.500 C 370.978 331.830, 363.167 350.094, 362.176 351.305 C 361.638 351.962, 360.011 356.049, 358.561 360.386 C 357.110 364.724, 354.591 370.799, 352.963 373.886 C 350.673 378.231, 350.004 380.809, 350.002 385.290 C 350.001 389.147, 349.317 392.419, 347.953 395.091 L 345.907 399.103 347.991 406.801 C 349.137 411.036, 350.898 415.639, 351.905 417.031 C 355.329 421.765, 358 427.912, 358.065 431.210 C 358.119 433.936, 359.089 435.314, 363.727 439.250 C 366.805 441.863, 370.231 444, 371.340 444 C 373.811 444, 379.161 442.371, 384.500 439.993 C 391.894 436.700, 393.485 436.119, 397 435.428 C 402.697 434.308, 408.322 429.643, 415.251 420.293 C 422.868 410.016, 427.460 401.275, 428.494 395.085 C 428.900 392.657, 430.304 388.653, 431.616 386.186 C 433.407 382.818, 434 380.123, 434 375.354 C 434 369.526, 434.348 368.500, 438.250 362.806 C 440.587 359.395, 445.762 353.346, 449.750 349.362 C 453.738 345.379, 457 341.657, 457 341.090 C 457 339.807, 465.544 335.825, 478 331.303 C 487.810 327.742, 492.796 326.549, 501.653 325.644 C 506.694 325.129, 506.834 325.186, 508.111 328.309 C 508.828 330.064, 513.058 335.156, 517.510 339.624 C 526.926 349.073, 528.428 351.161, 529.993 356.975 C 532.489 366.243, 538.978 372.535, 548.575 374.990 C 555.596 376.786, 559.881 375.755, 564.147 371.241 C 569.966 365.084, 577 355.909, 577 354.476 C 577 353.739, 578.462 352.101, 580.250 350.836 C 582.038 349.572, 585.300 346.560, 587.500 344.145 C 589.700 341.729, 593.670 337.470, 596.322 334.680 C 598.974 331.890, 602.015 328.384, 603.079 326.889 C 604.898 324.334, 612.256 320, 614.775 320 C 617.065 320, 622.951 316.462, 622.975 315.071 C 622.989 314.285, 622.570 312.260, 622.044 310.571 C 619.462 302.282, 617.049 292.866, 616.003 287 C 614.544 278.820, 612.698 274.622, 605.883 263.990 C 602.889 259.321, 599.783 254.202, 598.979 252.615 C 597.090 248.885, 587.506 240.344, 584.310 239.542 C 582.950 239.200, 579.642 237.476, 576.959 235.710 C 567.407 229.423, 564.810 227.987, 558.238 225.358 C 554.579 223.894, 547.908 221.685, 543.414 220.449 C 538.920 219.212, 534.293 217.692, 533.131 217.070 C 531.875 216.398, 523.202 215.740, 511.759 215.447 C 494.030 214.995, 491.985 215.125, 486.014 217.087" stroke="#dd8a8a" fill="#dd8a8a" fill-opacity="0.2" fill-rule="evenodd"/><path class="svg-region-SV" d="M 497 326.122 C 492.875 326.596, 487.250 327.824, 484.500 328.851 C 481.750 329.878, 477.700 331.302, 475.500 332.014 C 467.101 334.734, 457.905 339.740, 455.621 342.836 C 454.342 344.569, 451.262 347.778, 448.775 349.967 C 446.289 352.155, 442.012 357.252, 439.270 361.292 C 434.600 368.176, 434.256 369.117, 433.797 376.259 C 433.481 381.185, 432.679 384.841, 431.529 386.596 C 430.551 388.089, 429.121 392.007, 428.352 395.302 C 426.797 401.968, 421.426 412.795, 417.236 417.708 C 415.731 419.473, 413.154 422.765, 411.509 425.024 C 407.886 429.999, 401.004 434.731, 396.106 435.613 C 394.123 435.971, 391.375 436.861, 390 437.592 C 387.796 438.762, 387.737 438.925, 389.500 438.960 C 390.600 438.982, 394.273 439.994, 397.663 441.210 C 403.676 443.366, 403.959 443.378, 409.251 441.710 C 412.235 440.769, 416.461 440, 418.644 440 C 421.306 440, 423.727 439.177, 426 437.500 C 429.061 435.242, 430.318 435, 438.998 435 C 448.539 435, 448.630 434.977, 451.699 431.750 C 453.399 429.962, 455.954 426.169, 457.376 423.320 C 461.109 415.845, 462.756 415, 473.588 415 C 482.930 415, 484.385 414.491, 489.741 409.352 C 492.415 406.786, 497.827 405.797, 503.059 406.919 C 510.999 408.622, 518.500 408.272, 522.739 406 C 527.074 403.677, 533.421 403.454, 537 405.500 C 538.375 406.286, 540.561 406.945, 541.857 406.965 C 543.754 406.993, 544.053 406.658, 543.390 405.250 C 542.052 402.407, 542.428 395.394, 544.023 393.471 C 544.835 392.492, 547.055 391.040, 548.955 390.246 C 552.804 388.637, 556.813 384.455, 560.083 378.639 L 562.253 374.778 557.377 375.433 C 551.738 376.190, 544.626 374.372, 539.507 370.864 C 535.812 368.333, 531.216 361.855, 530.380 358 C 529.128 352.232, 527.320 349.586, 518.606 340.774 C 513.562 335.674, 508.832 330.038, 508.096 328.250 C 507.360 326.462, 506.249 325.058, 505.629 325.130 C 505.008 325.201, 501.125 325.647, 497 326.122" stroke="#c666b5" fill="#c666b5" fill-opacity="0.2" fill-rule="evenodd"/><path class="svg-region-SF" d="M 618.750 318.143 C 617.788 319.164, 616.114 320, 615.031 320 C 611.800 320, 605.146 323.985, 602.752 327.354 C 601.523 329.084, 595.364 335.675, 589.066 342 C 582.768 348.325, 577.067 354.486, 576.398 355.690 C 575.728 356.895, 572.553 361.097, 569.340 365.029 C 566.128 368.961, 562.268 374.471, 560.762 377.272 C 557.371 383.581, 553.610 387.612, 548.816 390.078 C 542.433 393.362, 540.440 398.483, 543.195 404.528 C 544.431 407.241, 548.654 410, 551.571 410 C 553.388 410, 568 424.359, 568 426.145 C 568 426.747, 570.587 429.933, 573.750 433.224 C 576.913 436.515, 580.703 440.511, 582.173 442.104 C 584.515 444.641, 585.546 445, 590.489 445 C 596.722 445, 598.613 444.259, 604.500 439.507 C 606.700 437.732, 611.239 434.897, 614.587 433.208 C 623.021 428.952, 626.695 424.533, 627.393 417.805 C 627.696 414.887, 628.406 408.148, 628.972 402.830 C 629.537 397.511, 630 391.069, 630 388.514 C 630 385.959, 630.393 383.111, 630.874 382.184 C 631.379 381.212, 631.351 378.173, 630.810 375 C 630.294 371.975, 629.703 360.784, 629.496 350.131 C 629.150 332.249, 628.966 330.617, 627.100 328.879 C 625.989 327.843, 624.538 325.084, 623.876 322.748 C 622.233 316.948, 620.957 315.801, 618.750 318.143" stroke="#8c6b55" fill="#8c6b55" fill-opacity="0.2" fill-rule="evenodd"/><path class="svg-region-AAB" d="M 626.575 518.059 C 625.359 519.286, 623.284 520, 620.940 520 C 618.048 520, 616.854 520.573, 615.526 522.600 C 613.993 524.940, 613.394 525.136, 609.549 524.560 C 605.501 523.953, 605.211 524.076, 604.035 526.915 C 601.719 532.506, 591.810 541.725, 583.549 545.975 L 575.794 549.964 571.349 547.359 C 565.962 544.202, 560.949 544.598, 557.054 548.489 C 554.841 550.699, 554.415 552.206, 553.861 559.770 C 553.510 564.571, 552.497 570.961, 551.611 573.968 C 549.851 579.941, 549.346 601.173, 550.837 606.507 C 551.305 608.182, 551.244 613.426, 550.697 618.414 C 549.847 626.179, 549.945 627.742, 551.455 630.546 C 553.277 633.930, 556.603 635.988, 560.297 636.018 C 561.509 636.028, 564.934 637.378, 567.910 639.018 C 573.080 641.868, 573.855 641.999, 585.410 641.985 C 592.059 641.976, 597.959 641.639, 598.520 641.235 C 599.082 640.831, 600.084 639.263, 600.749 637.750 C 601.621 635.765, 602.680 635, 604.557 635 C 607.591 635, 615 627.906, 615 625.002 C 615 623.992, 615.337 623.017, 615.750 622.833 C 617.006 622.275, 620.671 616.616, 621.483 613.981 C 621.904 612.616, 623.036 610.747, 623.999 609.828 C 625.757 608.149, 627.598 599.777, 626.574 598.120 C 626.273 597.634, 626.854 596.170, 627.864 594.868 C 630.533 591.427, 631.716 581.121, 632.385 555.500 C 632.615 546.681, 632.358 537.734, 631.813 535.565 C 631.268 533.400, 630.808 528.112, 630.789 523.815 C 630.753 515.526, 630.046 514.561, 626.575 518.059" stroke="#7f3c1a" fill="#7f3c1a" fill-opacity="0.2" fill-rule="evenodd"/><path class="svg-region-APB" d="M 622.623 427.864 C 621.695 428.889, 618.160 431.183, 614.767 432.962 C 611.374 434.740, 606.776 437.667, 604.549 439.465 C 599.440 443.592, 596.743 444.991, 593.816 445.034 C 592.127 445.058, 589.387 447.629, 583.696 454.528 C 579.342 459.807, 574.870 464.245, 573.582 464.569 C 571.286 465.145, 569 470.182, 569 474.666 C 569 475.730, 568.592 477.027, 568.094 477.550 C 565.796 479.960, 562.809 486.735, 561.572 492.342 C 558.839 504.736, 556.786 512.679, 554.281 520.552 C 552.131 527.311, 551.800 529.880, 552.220 536.552 C 552.495 540.923, 553.283 545.690, 553.972 547.144 L 555.224 549.788 558.752 547.394 C 563.245 544.344, 566.256 544.374, 571.623 547.519 L 575.922 550.039 583.211 546.340 C 591.212 542.281, 595.226 538.989, 601.113 531.660 C 605.672 525.984, 606.043 523.479, 602.459 522.579 C 599.827 521.918, 594 513.970, 594 511.039 C 594 510.176, 593.100 507.791, 592 505.739 C 589.025 500.189, 589.422 496.065, 593.500 490.136 C 595.425 487.338, 597 484.581, 597 484.009 C 597 483.437, 598.350 480.578, 600 477.654 C 601.650 474.730, 603 471.421, 603 470.300 C 603 469.179, 604.714 466.065, 606.809 463.381 C 611.365 457.543, 613.936 450.536, 612.170 448.770 C 610.497 447.097, 610.726 442.417, 612.571 440.571 C 614.781 438.362, 620.242 438.616, 623.365 441.073 L 626 443.145 626 434.573 C 626 429.858, 625.620 426, 625.155 426 C 624.690 426, 623.551 426.839, 622.623 427.864 M 625.199 454.500 C 625.171 456.150, 625.509 459.525, 625.949 462 C 626.540 465.319, 626.763 465.713, 626.801 463.500 C 626.829 461.850, 626.491 458.475, 626.051 456 C 625.460 452.681, 625.237 452.287, 625.199 454.500 M 628.771 491.226 C 629.199 510.697, 629.714 512.595, 629.794 495 C 629.830 487.025, 629.544 479.701, 629.158 478.726 C 628.772 477.750, 628.598 483.375, 628.771 491.226" stroke="#ac7444" fill="#ac7444" fill-opacity="0.2" fill-rule="evenodd"/><path class="svg-region-PC" d="M 546.522 555.733 C 545.435 556.009, 542.134 558.294, 539.187 560.811 C 534.484 564.829, 533.884 565.760, 534.276 568.430 C 534.645 570.941, 533.067 574.095, 525.239 586.486 C 520.022 594.744, 514.715 603.075, 513.445 605 C 508.654 612.261, 508.376 613.733, 511.223 616.769 C 512.632 618.271, 514.910 621.750, 516.284 624.500 C 519.272 630.476, 521.824 632.948, 526.793 634.679 C 532.019 636.499, 533.036 636.371, 540.160 633.001 C 543.647 631.351, 547.203 630.001, 548.062 630.001 C 549.317 630, 549.829 627.884, 550.665 619.250 C 551.349 612.188, 551.371 607.531, 550.730 605.676 C 549.190 601.225, 550.410 575.247, 552.369 570.782 C 553.286 568.692, 554 564.423, 554 561.032 C 554 555.090, 553.959 555.002, 551.250 555.116 C 549.737 555.180, 547.610 555.458, 546.522 555.733" stroke="#cda789" fill="#cda789" fill-opacity="0.2" fill-rule="evenodd"/><path class="svg-region-DB" d="M 522.754 405.952 C 518.471 408.293, 510.532 408.666, 503.371 406.863 C 498.576 405.656, 492.438 406.757, 489.795 409.298 C 484.381 414.502, 482.958 415, 473.500 415 C 462.651 415, 460.309 416.247, 456.971 423.805 C 455.831 426.387, 453.482 429.962, 451.753 431.750 C 448.635 434.971, 448.523 435, 439.036 435 C 430.474 435, 429.076 435.264, 425.785 437.500 C 423.493 439.058, 420.706 440, 418.391 440 C 416.348 440, 412.234 440.770, 409.250 441.710 C 404.084 443.339, 403.600 443.334, 399.162 441.605 C 391.580 438.653, 388.924 438.624, 380.850 441.411 C 372.557 444.274, 369.968 444.568, 368.242 442.842 C 366.395 440.995, 364.341 443.436, 363.679 448.265 C 362.977 453.395, 365.801 462.805, 373.504 481 C 376.415 487.875, 379.132 494.621, 379.542 495.991 C 379.952 497.361, 381.573 501.259, 383.144 504.653 C 384.715 508.047, 386 511.512, 386 512.353 C 386 515.032, 387.806 515.121, 390.189 512.561 C 393.761 508.723, 399.941 506.976, 407.461 507.679 C 412.426 508.142, 414.722 507.885, 417.536 506.550 C 422.558 504.167, 459.634 503.120, 474.034 504.955 C 483.084 506.109, 488 508.018, 488 510.379 C 488 511.770, 494.586 520.978, 495.973 521.526 C 496.871 521.881, 498.213 521.055, 499.413 519.408 C 504.607 512.278, 506.711 510.734, 511.920 510.234 C 516.445 509.799, 517.529 510.110, 521.972 513.123 C 527.274 516.719, 528.821 519.615, 529.116 526.500 C 529.211 528.721, 530.335 532.158, 531.644 534.229 C 534.263 538.373, 534.537 542.099, 532.945 551.911 C 531.826 558.804, 532.079 559.374, 536.815 560.634 C 538.512 561.085, 539.894 560.518, 541.989 558.510 C 543.962 556.621, 546.271 555.611, 549.438 555.254 C 553.306 554.818, 554.127 554.341, 554.659 552.222 C 555.015 550.804, 554.571 547.702, 553.640 545.104 C 551.625 539.481, 551.571 528.936, 553.529 523.500 C 555.442 518.191, 555.405 518, 552.480 518 C 549.005 518, 542.334 513.589, 539.949 509.715 C 537.159 505.180, 532 488.689, 532 484.304 C 532 482.284, 532.855 478.802, 533.899 476.566 C 534.944 474.330, 536.084 470.925, 536.432 469 C 537.214 464.682, 540.156 461, 542.823 461 C 544.759 461, 551.459 464.933, 559.279 470.660 C 562.890 473.304, 563.030 473.619, 562.416 477.714 C 561.972 480.670, 562.133 482, 562.934 482 C 564.849 482, 569 476.870, 569 474.503 C 569 470.162, 571.181 466.091, 574.580 464.085 C 578.778 461.608, 578.905 460.358, 575.043 459.509 C 573.416 459.152, 570.288 457.991, 568.091 456.930 C 565.894 455.868, 563.625 455, 563.048 455 C 562.472 455, 562 454.599, 562 454.109 C 562 453.618, 560.145 452.475, 557.879 451.568 C 553.769 449.924, 553.759 449.907, 554.430 445.710 C 554.800 443.394, 555.529 441.072, 556.051 440.550 C 557.599 439, 557.189 430.402, 555.500 429 C 553.641 427.457, 553.583 425.056, 555.345 422.473 C 557.868 418.770, 557.990 415.905, 555.751 412.877 C 554.581 411.294, 552.765 410, 551.716 410 C 550.667 410, 548.614 409.380, 547.154 408.622 C 543.565 406.759, 536.467 404.880, 531 404.344 C 527.720 404.023, 525.484 404.459, 522.754 405.952" stroke="#e8b1e4" fill="#e8b1e4" fill-opacity="0.2" fill-rule="evenodd"/><path class="svg-region-IBl" d="M 492.500 587.029 C 488.100 588.616, 482.873 589.933, 480.885 589.957 C 476.244 590.012, 472.832 592.736, 470.584 598.177 C 469.602 600.555, 468.169 603.978, 467.399 605.784 C 465.338 610.622, 465.654 616.852, 468.233 622.211 C 469.836 625.541, 471.107 626.934, 472.572 626.961 C 473.711 626.983, 476.861 627.687, 479.572 628.526 C 482.282 629.366, 487.650 630.981, 491.500 632.116 C 495.350 633.251, 499.850 634.641, 501.500 635.204 C 503.150 635.768, 505.850 636.459, 507.500 636.740 C 509.150 637.021, 510.989 637.639, 511.587 638.113 C 512.262 638.647, 513.563 638.030, 515.012 636.488 C 516.297 635.119, 518.395 634, 519.674 634 C 522.375 634, 522.668 632.799, 520.422 630.935 C 519.554 630.215, 517.706 627.347, 516.315 624.563 C 514.923 621.778, 512.679 618.319, 511.326 616.876 C 509.003 614.397, 508.947 614.066, 510.300 610.876 C 511.088 609.019, 513.345 605.069, 515.316 602.099 C 518.834 596.796, 518.873 596.631, 517.399 593.099 C 514.916 587.149, 513.295 585.309, 509.943 584.639 C 504.460 583.542, 500.764 584.049, 492.500 587.029" stroke="#b10e0e" fill="#b10e0e" fill-opacity="0.2" fill-rule="evenodd"/><path class="svg-region-MB" d="M 431.694 504.640 C 431.342 504.992, 432.504 506.004, 434.277 506.890 C 436.449 507.975, 438.406 510.294, 440.278 514 C 444.140 521.646, 462.027 539.595, 466.649 540.462 C 469.958 541.083, 470 541.158, 470 546.480 C 470 554.293, 471.270 557, 474.936 557 C 480.263 557, 482 560.126, 482 569.708 C 482 576.689, 482.377 578.645, 484.323 581.770 C 485.601 583.821, 486.917 586.237, 487.248 587.137 C 487.789 588.608, 488.589 588.519, 495.124 586.255 C 501.383 584.087, 503.170 583.859, 507.948 584.618 C 513.390 585.483, 513.550 585.603, 516 590.705 C 517.375 593.567, 518.725 595.909, 519 595.910 C 519.275 595.910, 523.004 590.335, 527.286 583.522 C 533.238 574.051, 534.932 570.578, 534.479 568.774 C 534.088 567.213, 534.578 565.536, 535.926 563.821 L 537.966 561.228 534.944 559.977 C 532.213 558.845, 531.677 558.955, 529.380 561.112 C 524.513 565.685, 512.601 563.165, 509.227 556.849 C 508.277 555.070, 506.124 552.146, 504.441 550.351 C 501.703 547.429, 500.174 544.535, 495.388 533.216 C 493.560 528.892, 493.613 524.362, 495.500 523.638 C 497.315 522.942, 497.497 521.007, 495.750 520.982 C 494.656 520.966, 488 511.938, 488 510.470 C 488 510.165, 487.212 509.104, 486.250 508.110 C 485.073 506.895, 481.719 505.927, 476 505.151 C 467.061 503.938, 432.791 503.542, 431.694 504.640" stroke="#f9c6c6" fill="#f9c6c6" fill-opacity="0.2" fill-rule="evenodd"/><path class="svg-region-LBl" d="M 417 506.631 C 414.507 507.736, 411.734 508.027, 407.366 507.640 C 399.722 506.963, 394.935 508.240, 390.492 512.141 C 387.147 515.078, 387.085 515.264, 388.519 518.037 C 389.334 519.612, 390 522.428, 390 524.295 C 390 526.162, 390.950 530.347, 392.111 533.595 C 393.272 536.843, 394.574 542.425, 395.003 546 C 395.433 549.575, 396.294 554.451, 396.917 556.836 C 397.539 559.221, 397.936 562.146, 397.798 563.336 C 397.660 564.526, 398.151 569.481, 398.890 574.347 C 399.997 581.636, 400.004 583.623, 398.930 585.632 C 397.789 587.762, 397.869 588.297, 399.562 589.874 C 400.628 590.866, 403.392 592.213, 405.705 592.866 C 408.718 593.717, 410.980 595.359, 413.685 598.661 C 415.771 601.206, 419.271 604.045, 421.506 605.002 C 423.730 605.956, 428.077 609.045, 431.165 611.868 C 434.254 614.691, 436.995 617, 437.258 617 C 437.520 617, 440.755 619.025, 444.446 621.500 L 451.157 626 460.578 626 C 465.760 626, 469.997 625.663, 469.993 625.250 C 469.990 624.837, 469.093 623.150, 468 621.500 C 465.459 617.664, 465.471 612.508, 468.037 604.890 C 471.282 595.258, 474.288 591.208, 478.732 590.481 C 486.244 589.253, 488 588.831, 488 588.251 C 488 587.927, 486.650 585.270, 485 582.346 C 482.322 577.601, 482 576.122, 482 568.572 C 482 560.965, 481.776 559.957, 479.777 558.557 C 478.555 557.701, 476.294 557, 474.753 557 C 471.295 557, 470 554.151, 470 546.542 C 470 541.093, 469.190 540, 465.150 540 C 462.360 540, 443.400 520.180, 440.278 514 C 438.315 510.113, 436.474 507.987, 434 506.752 C 429.687 504.597, 421.713 504.540, 417 506.631" stroke="#d7b230" fill="#d7b230" fill-opacity="0.2" fill-rule="evenodd"/><path class="svg-region-LPl" d="M 548.500 629.789 C 547.400 630.006, 543.089 631.708, 538.920 633.571 L 531.341 636.958 527.554 635.027 C 525.028 633.740, 522.723 633.292, 520.633 633.683 C 517.023 634.358, 513.013 637.624, 512.971 639.924 C 512.955 640.791, 511.658 642.909, 510.090 644.632 C 507.246 647.757, 507.217 647.764, 497.869 647.528 C 489.336 647.312, 484.755 646.376, 479.672 643.809 C 477.636 642.781, 475 644.340, 475 646.571 C 475 647.301, 481.056 654.024, 488.457 661.511 C 497.877 671.041, 502.654 676.689, 504.380 680.338 C 507.225 686.351, 509.490 688.678, 512.968 689.159 C 514.958 689.434, 515.441 690.080, 515.468 692.500 C 515.500 695.475, 515.550 695.502, 521.500 695.688 C 531.201 695.993, 538.291 697.410, 541.500 699.686 C 543.150 700.856, 546.243 702.111, 548.373 702.475 C 551.728 703.048, 552.757 702.726, 556.064 700.068 C 558.165 698.381, 560.247 697, 560.691 696.999 C 561.860 696.998, 569 689.460, 569 688.227 C 569 687.655, 569.788 687.376, 570.750 687.606 C 573.382 688.236, 577.083 685.882, 578.937 682.401 C 579.844 680.696, 582.142 677.928, 584.043 676.250 C 585.945 674.572, 589.045 670.566, 590.934 667.349 C 592.823 664.132, 596.423 658.446, 598.934 654.713 C 603.889 647.348, 608.420 639.417, 610.657 634.195 C 612.019 631.016, 611.997 630.931, 610.092 631.951 C 609.003 632.534, 607.835 633.458, 607.497 634.005 C 607.159 634.552, 605.795 635, 604.467 635 C 602.817 635, 601.579 635.913, 600.563 637.879 C 599.744 639.462, 598.346 641.037, 597.455 641.379 C 596.565 641.720, 590.910 642, 584.890 642 C 574.714 642, 573.524 641.789, 568 639 C 564.731 637.350, 561.165 636, 560.076 636 C 557.063 636, 553.535 634.102, 551.936 631.621 C 551.026 630.211, 549.767 629.539, 548.500 629.789" stroke="#d2454f" fill="#d2454f" fill-opacity="0.2" fill-rule="evenodd"/><path class="svg-region-DMl" d="M 375 635.867 C 368.166 638.561, 366.326 639.983, 361.243 646.500 C 358.670 649.800, 355.731 653.110, 354.712 653.855 C 353.004 655.106, 353.240 655.386, 357.775 657.487 C 364.652 660.673, 366 664.345, 366 679.885 C 366 692.935, 365.945 692.788, 374.050 701.500 C 379.704 707.578, 383.995 716.557, 383.998 722.316 C 384 727.470, 382.990 730.140, 379.651 733.803 C 377.060 736.645, 378 737.428, 386 739.089 C 391.725 740.278, 398.998 743.485, 400.190 745.346 C 401.023 746.647, 408.230 747.290, 412.823 746.473 C 415.355 746.023, 416.391 745.178, 417.178 742.920 C 417.746 741.291, 419.063 739.501, 420.105 738.944 C 421.147 738.386, 422 737.090, 422 736.065 C 422 734.654, 423.157 733.943, 426.750 733.147 C 436.367 731.017, 437.637 730.961, 441.909 732.468 C 446.935 734.241, 461.432 734.491, 467.500 732.910 C 474.357 731.122, 479.393 729.898, 482.250 729.325 C 483.762 729.021, 485 728.244, 485 727.598 C 485 726.952, 485.900 724.658, 487 722.500 C 488.100 720.342, 489 717.954, 489 717.193 C 489 715.602, 492.183 710.740, 495.813 706.786 C 497.335 705.129, 500.874 703.272, 504.903 702.017 C 513.625 699.299, 514.099 698.929, 514.973 694.149 C 515.816 689.536, 515.560 689, 512.508 689 C 509.754 689, 507.059 685.952, 503.596 678.924 C 498.638 668.861, 475.118 649.058, 468.066 649.010 C 467.277 649.004, 464.802 648.150, 462.566 647.112 C 454.835 643.522, 451.433 642.880, 435.500 642.003 C 416.836 640.975, 409.927 639.805, 402.733 636.456 C 398.379 634.429, 395.989 634.026, 388.500 634.057 C 382.315 634.082, 378.093 634.648, 375 635.867" stroke="#68533d" fill="#68533d" fill-opacity="0.2" fill-rule="evenodd"/><path class="svg-region-PMl" d="M 345.500 658.167 C 343.300 659.311, 339.528 661.844, 337.118 663.798 C 334.708 665.752, 331.333 668.081, 329.618 668.973 C 327.903 669.866, 325.600 671.059, 324.500 671.624 C 323.400 672.189, 320.835 673.517, 318.799 674.576 C 313.668 677.244, 297.549 692.261, 296.124 695.701 C 294.912 698.627, 290.416 701.394, 281.764 704.539 C 279.159 705.486, 276.517 706.877, 275.892 707.630 C 275.267 708.384, 273.796 709, 272.624 709 C 271.452 709, 268.316 710.548, 265.654 712.441 C 262.992 714.334, 259.445 716.183, 257.772 716.550 C 256.099 716.918, 252.428 718.407, 249.615 719.859 C 246.802 721.312, 242.960 722.725, 241.078 723 C 236.349 723.691, 236.226 725.366, 240.703 728.082 C 242.792 729.348, 246.464 732.087, 248.865 734.170 C 253.463 738.156, 272.021 747.595, 280.500 750.258 C 283.899 751.325, 291.589 752.028, 304.515 752.453 L 323.529 753.079 334.256 749.602 C 340.156 747.689, 345.987 745.422, 347.214 744.562 C 348.441 743.703, 350.825 743, 352.511 743 C 354.197 743, 357.342 742.100, 359.500 741 C 361.658 739.900, 365.071 739, 367.085 739 C 371.818 739, 379.650 734.622, 382.097 730.608 C 386.417 723.525, 382.950 710.923, 374.090 701.500 C 365.925 692.816, 366 693.022, 366 679.325 C 366 664.845, 364.498 660.413, 358.649 657.638 C 354.104 655.481, 350.380 655.631, 345.500 658.167" stroke="#90cf92" fill="#90cf92" fill-opacity="0.2" fill-rule="evenodd"/><path class="svg-region-Fl" d="M 285.500 532.975 C 281.100 534.009, 275.925 535.322, 274 535.894 C 272.075 536.465, 266.586 537.900, 261.802 539.081 C 255.498 540.638, 252.412 541.955, 250.590 543.865 C 246.308 548.354, 239 557.342, 239 558.119 C 239 558.525, 238.415 559.452, 237.700 560.179 C 236.986 560.905, 234.969 565.550, 233.219 570.500 C 230.114 579.282, 229.565 585.461, 231.471 590.160 C 231.842 591.073, 231.491 593.098, 230.693 594.660 C 229.894 596.222, 228.937 598.910, 228.566 600.634 C 227.919 603.642, 228.046 603.796, 231.696 604.448 C 233.788 604.821, 240.225 605.480, 246 605.911 C 255.437 606.615, 257.614 607.178, 267.500 611.469 C 278.340 616.175, 289.725 619.873, 301.515 622.520 C 304.823 623.263, 308.873 624.413, 310.515 625.077 C 312.241 625.774, 318.350 626.285, 325 626.287 C 334.585 626.291, 337.487 625.911, 342.425 624.008 C 347.705 621.974, 348.740 621.866, 351.925 623.017 C 353.891 623.727, 357.911 626.152, 360.857 628.404 C 371.296 636.385, 371.331 636.398, 378.041 634.910 C 385.160 633.330, 385.579 631.918, 380.401 626.952 C 369.152 616.165, 367.933 614.377, 364.065 603 C 362.849 599.425, 360.151 593.533, 358.068 589.906 C 355.985 586.279, 353.991 581.763, 353.635 579.870 C 352.966 576.303, 351.665 574.231, 343.891 564.355 C 341.356 561.135, 337.862 555.125, 336.127 551 C 331.042 538.914, 329.553 536.666, 324.880 534.024 C 320.893 531.771, 319.288 531.528, 307 531.322 C 296.664 531.148, 291.625 531.535, 285.500 532.975" stroke="#5ca7a9" fill="#5ca7a9" fill-opacity="0.2" fill-rule="evenodd"/><path class="svg-region-PCl" d="M 227.582 605.142 C 227.342 605.889, 225.952 612.350, 224.493 619.500 C 218.451 649.129, 217.655 651.970, 214.224 656.151 C 212.185 658.635, 214.563 659.487, 216.714 657.042 C 221.346 651.777, 232.440 641.360, 234.686 640.167 C 236.812 639.037, 237.934 639.075, 242.036 640.417 C 244.698 641.288, 247.845 642, 249.030 642 C 250.215 642, 252.329 642.900, 253.727 644 C 255.126 645.100, 257.082 646, 258.076 646 C 259.069 646, 260.156 646.443, 260.491 646.985 C 260.825 647.526, 262.099 647.887, 263.322 647.785 C 265.622 647.595, 267.950 648.563, 284 656.382 C 301.159 664.741, 304.515 667.139, 310.500 675.317 L 312.500 678.050 319.500 674.376 C 323.350 672.355, 327.850 670.005, 329.500 669.155 C 331.150 668.305, 334.750 665.785, 337.500 663.555 C 340.250 661.325, 344.525 658.666, 347 657.647 C 354.498 654.559, 355.564 653.745, 360.937 647.015 C 363.784 643.449, 367.510 639.647, 369.216 638.567 C 372.026 636.787, 372.150 636.504, 370.534 635.551 C 369.554 634.973, 366.895 632.967, 364.626 631.092 C 358.592 626.109, 351.876 622, 349.763 622 C 348.748 622, 344.899 622.987, 341.209 624.194 C 331.959 627.219, 319.541 627.190, 307.500 624.115 C 289.313 619.471, 280.401 616.856, 276.261 614.951 C 273.929 613.878, 271.755 613, 271.429 613 C 271.102 613, 267.610 611.542, 263.668 609.761 C 257.657 607.044, 254.805 606.411, 246 605.835 C 240.225 605.458, 233.817 604.842, 231.760 604.466 C 229.023 603.967, 227.903 604.148, 227.582 605.142 M 351.667 629.667 C 351.300 630.033, 351 631.432, 351 632.775 C 351 634.870, 350.650 635.129, 348.540 634.599 C 346.639 634.122, 345.811 634.495, 344.895 636.241 C 344.244 637.483, 342.426 640.140, 340.855 642.144 C 336.043 648.285, 338.175 650.539, 343.583 645.028 C 346.980 641.566, 349.726 641.147, 350.180 644.019 C 350.487 645.956, 350.653 645.929, 354.250 643.359 C 357.946 640.719, 359.018 638.506, 356.935 637.812 C 356.350 637.617, 355.616 635.554, 355.304 633.228 C 354.785 629.362, 353.364 627.970, 351.667 629.667" stroke="#465ee0" fill="#465ee0" fill-opacity="0.2" fill-rule="evenodd"/><path class="svg-region-Ol" d="M 689.384 327.857 C 687.120 328.916, 683.857 330.092, 682.132 330.471 C 680.408 330.850, 677.033 333.036, 674.633 335.330 C 666.735 342.879, 654.854 365.128, 651.314 379 C 650.543 382.025, 649.478 386.075, 648.949 388 C 645.776 399.536, 646.071 448.292, 649.421 466 C 652.401 481.755, 654.012 491.468, 654.644 497.500 C 654.990 500.800, 655.604 503.950, 656.010 504.500 C 656.415 505.050, 656.994 507.750, 657.295 510.500 C 658.644 522.806, 661.365 535.563, 663.585 539.982 C 664.913 542.627, 666.003 545.625, 666.006 546.645 C 666.010 547.665, 666.622 549.625, 667.367 551 C 672.466 560.409, 676.440 566.541, 682.060 573.674 C 685.602 578.169, 689.746 583.653, 691.269 585.859 C 694.860 591.064, 705.117 598.193, 712.878 600.879 C 716.250 602.045, 719.624 603, 720.377 603 C 721.130 603, 723.761 603.891, 726.224 604.981 L 730.702 606.962 740.171 604.002 C 750.827 600.671, 752.519 599.261, 760.825 586.797 C 764.232 581.685, 766.799 576.056, 769.399 568 C 771.441 561.675, 773.924 555.365, 774.917 553.978 C 775.910 552.591, 777.966 547.416, 779.487 542.478 C 781.822 534.892, 782.367 530.864, 783.001 516.500 C 783.414 507.150, 784.314 496.800, 785.001 493.500 C 787.142 483.219, 784.327 445.034, 780.136 427.500 C 778.369 420.106, 773.749 405.732, 771.889 401.840 C 771.452 400.927, 770.179 396.497, 769.058 391.995 C 766.316 380.977, 756.795 362.039, 750.889 355.857 C 748.354 353.203, 745.212 349.474, 743.909 347.572 C 742.605 345.669, 740.855 343.861, 740.019 343.554 C 739.184 343.247, 735.125 340.750, 731 338.006 C 717.952 329.326, 714.638 328.148, 698.500 326.456 C 694.808 326.069, 692.423 326.436, 689.384 327.857" stroke="#aa444d" fill="#aa444d" fill-opacity="0.2" fill-rule="evenodd"/><path class="svg-region-VOC" d="M 507.500 510.976 C 506.400 511.443, 504.150 513.539, 502.500 515.634 C 500.850 517.728, 498.262 520.727, 496.750 522.298 C 493.698 525.467, 493.307 528.614, 495.378 533.349 C 496.136 535.082, 497.630 538.638, 498.699 541.251 C 499.767 543.864, 501.798 547.464, 503.210 549.251 C 504.623 551.038, 507.291 554.466, 509.140 556.869 C 514.080 563.293, 522.878 565.875, 527.883 562.369 C 531.191 560.052, 532.835 555.417, 533.599 546.251 C 534.226 538.742, 534.112 538.059, 531.632 534.409 C 529.842 531.775, 529 529.218, 529 526.417 C 529 519.950, 527.354 516.789, 522.144 513.250 C 517.233 509.914, 511.938 509.092, 507.500 510.976" stroke="#ff8f93" fill="#ff8f93" fill-opacity="0.2" fill-rule="evenodd"/><path class="svg-region-OABl" d="M 612.571 440.571 C 610.686 442.457, 610.536 446.283, 612.241 449.014 C 613.228 450.595, 613.228 451.405, 612.241 452.986 C 611.558 454.079, 611 455.712, 611 456.615 C 611 457.519, 609.436 459.988, 607.525 462.104 C 605.614 464.219, 603.801 467.198, 603.496 468.725 C 603.190 470.251, 601.591 474.200, 599.942 477.500 C 598.293 480.800, 596.956 483.890, 596.972 484.366 C 596.987 484.842, 595.425 487.378, 593.500 490 C 589.416 495.563, 589.006 499.702, 591.894 506.223 C 592.935 508.575, 594.784 512.802, 596.002 515.616 C 598.456 521.284, 601.927 523.617, 609.442 524.647 C 613.171 525.158, 613.921 524.916, 615.732 522.614 C 617.205 520.741, 618.740 519.991, 621.144 519.968 C 623.182 519.949, 625.519 519.039, 627.096 517.649 L 629.691 515.361 628.933 495.431 C 628.516 484.469, 627.416 470.613, 626.489 464.639 C 624.882 454.281, 624.887 453.624, 626.600 450.444 C 628.120 447.621, 628.200 446.742, 627.120 444.724 C 624.414 439.668, 615.904 437.239, 612.571 440.571" stroke="#81244d" fill="#81244d" fill-opacity="0.2" fill-rule="evenodd"/><path class="svg-region-SOTl" d="M 538.683 463.559 C 537.683 464.932, 536.607 467.647, 536.291 469.594 C 535.975 471.540, 534.881 474.773, 533.858 476.778 C 531.352 481.694, 531.518 486.333, 534.556 496.198 C 537.394 505.418, 539.711 510.582, 542.065 512.935 C 544.831 515.700, 549.724 518, 552.837 518 C 556.164 518, 556.417 517.541, 557.515 509.500 C 557.890 506.750, 558.606 503.737, 559.105 502.803 C 560.685 499.851, 562.675 486.755, 562.586 479.896 C 562.489 472.477, 562.219 472.127, 550.831 464.698 C 544.209 460.379, 541.203 460.097, 538.683 463.559" stroke="#995b45" fill="#995b45" fill-opacity="0.2" fill-rule="evenodd"/><path class="svg-region-LBPCl" d="M 393.500 589.192 C 392.400 589.814, 391.140 590.925, 390.700 591.661 C 390.240 592.432, 388.160 593, 385.795 593 C 381.764 593, 375.745 596.351, 373.669 599.750 C 373.028 600.800, 372.517 600.844, 371.432 599.944 C 370.658 599.302, 369.287 599.060, 368.385 599.406 C 367.111 599.895, 366.877 600.857, 367.339 603.704 C 367.667 605.722, 367.473 607.931, 366.907 608.612 C 365.434 610.387, 369.520 616.455, 377.013 623.615 C 380.399 626.852, 383.571 630.513, 384.060 631.750 C 384.851 633.748, 385.653 634.001, 391.225 634.010 C 395.761 634.017, 398.951 634.695, 402.733 636.456 C 409.957 639.819, 416.866 640.980, 435.676 641.991 C 449.728 642.746, 452.682 643.208, 458.176 645.508 C 461.654 646.965, 466.300 648.597, 468.500 649.136 C 470.700 649.675, 474.413 651.183, 476.750 652.488 C 481.735 655.269, 482.202 654.526, 478 650.500 C 476.350 648.919, 475 647.090, 475 646.435 C 475 644.321, 477.691 642.808, 479.672 643.809 C 484.760 646.378, 489.348 647.302, 498 647.500 L 507.500 647.717 510.354 644.352 C 513.171 641.031, 513.341 638.295, 510.773 637.620 C 505.859 636.328, 485.853 630.299, 480 628.347 C 477.525 627.521, 470.100 626.598, 463.500 626.296 L 451.500 625.747 444.200 621.124 C 440.186 618.581, 434.336 614.309, 431.200 611.631 C 428.065 608.954, 423.691 605.977, 421.481 605.016 C 419.270 604.055, 415.762 601.195, 413.685 598.661 C 410.987 595.367, 408.710 593.712, 405.705 592.857 C 403.392 592.199, 400.571 590.837, 399.436 589.830 C 397.057 587.721, 396.253 587.635, 393.500 589.192 M 351.667 629.667 C 351.300 630.033, 351 631.372, 351 632.642 C 351 634.673, 350.640 634.878, 348 634.350 C 345.956 633.941, 345 634.145, 345 634.991 C 345 635.674, 343.425 638.378, 341.500 641 C 339.575 643.622, 338 646.270, 338 646.884 C 338 648.916, 340.624 648.043, 343.583 645.028 C 346.982 641.565, 349.726 641.146, 350.180 644.022 C 350.490 645.980, 350.620 645.963, 354.250 643.486 C 357.695 641.136, 359.302 638, 357.061 638 C 356.545 638, 355.819 635.975, 355.448 633.500 C 354.831 629.385, 353.399 627.934, 351.667 629.667" stroke="#daffff" fill="#daffff" fill-opacity="0.2" fill-rule="evenodd"/><path class="svg-region-PNl" d="M 227.309 646.179 C 223.014 650.127, 219.074 654.222, 218.553 655.279 C 218.032 656.335, 215.332 658.209, 212.553 659.443 C 206.168 662.277, 193.914 672.611, 194.653 674.538 C 195.013 675.476, 193.833 676.483, 191.083 677.584 C 188.823 678.488, 186.072 680.495, 184.969 682.043 C 183.866 683.592, 181.285 685.881, 179.232 687.130 C 174.251 690.161, 156.626 704.166, 151 709.564 C 144 716.279, 139.630 720, 138.742 720 C 137.986 720, 134 728.299, 134 729.872 C 134 730.261, 135.238 730.561, 136.750 730.539 C 138.802 730.510, 139.576 731.036, 139.801 732.612 C 140.030 734.212, 139.182 735.155, 136.301 736.506 C 134.211 737.486, 132.140 738.898, 131.700 739.644 C 131.260 740.390, 130.101 741, 129.125 741 C 126.536 741, 122.982 745.226, 121.847 749.653 C 119.472 758.916, 119.392 758.292, 122.862 757.530 C 125.912 756.860, 126 756.939, 126 760.337 C 126 762.260, 125.438 764.034, 124.750 764.280 C 122.539 765.069, 124.956 766.400, 128.601 766.400 C 130.592 766.400, 132.542 765.767, 133.067 764.950 C 133.878 763.689, 134.127 763.696, 134.972 765 C 135.768 766.230, 136.263 766.274, 137.722 765.244 C 138.700 764.553, 140.175 763.733, 141 763.421 C 141.825 763.110, 143.175 762.452, 144 761.958 C 146.798 760.285, 154.249 757, 155.247 757 C 157.315 757, 165.489 751.252, 172.667 744.750 C 176.765 741.038, 180.457 738, 180.870 738 C 181.283 738, 184.294 734.407, 187.560 730.016 C 190.827 725.625, 194.400 721.738, 195.500 721.379 C 196.600 721.020, 198.678 719.742, 200.117 718.540 C 205.785 713.803, 208.246 713.486, 216.962 716.366 C 221.324 717.808, 226.601 720.147, 228.689 721.564 C 232.107 723.883, 233.076 724.071, 238.411 723.452 C 241.670 723.074, 246.251 721.747, 248.591 720.503 C 250.931 719.259, 254.918 717.534, 257.453 716.671 C 259.987 715.807, 264.095 713.728, 266.581 712.050 C 269.066 710.373, 271.923 709, 272.928 709 C 273.933 709, 275.267 708.384, 275.892 707.630 C 276.517 706.877, 279.159 705.486, 281.764 704.539 C 290.512 701.360, 294.775 698.695, 296.328 695.438 C 297.157 693.700, 301.202 689.228, 305.317 685.501 L 312.799 678.725 309.450 674.063 C 305.319 668.313, 303.584 666.721, 297.941 663.503 C 287.865 657.757, 264.810 647, 263.846 647.595 C 262.911 648.173, 260.998 647.532, 255.750 644.883 C 254.787 644.397, 253.213 643.604, 252.250 643.119 C 250.418 642.197, 237.920 639, 236.145 639 C 235.581 639, 231.605 642.230, 227.309 646.179" stroke="#bbc0d1" fill="#bbc0d1" fill-opacity="0.2" fill-rule="evenodd"/><path class="svg-region-OVl" d="M 557.667 416.667 C 557.300 417.033, 557 418.103, 557 419.044 C 557 419.985, 556.325 421.315, 555.500 422 C 553.609 423.569, 553.623 426.918, 555.532 429.441 C 557.423 431.941, 557.408 437.779, 555.500 442.346 C 553.115 448.054, 553.531 449.777, 557.715 451.525 C 559.758 452.379, 561.671 453.446, 561.965 453.897 C 562.865 455.275, 572.098 458.997, 575.907 459.517 C 579.291 459.979, 579.792 459.658, 584.500 454.010 C 590.581 446.716, 591.139 445, 587.433 445 C 585.547 445, 583.772 443.889, 581.610 441.355 C 579.900 439.350, 576.794 435.920, 574.709 433.733 C 572.623 431.547, 569.725 428.125, 568.267 426.129 C 564.967 421.609, 559.819 416, 558.970 416 C 558.620 416, 558.033 416.300, 557.667 416.667" stroke="#593939" fill="#593939" fill-opacity="0.2" fill-rule="evenodd"/>
    </svg>