<svg xmlns="http://www.w3.org/2000/svg" width="1078" height="1151" viewBox="0 0 1078 1151" version="1.1">
    <path class="svg-region-V" d="M 500.334 205.970 C 484.314 206.601, 484.106 206.639, 477.334 210.149 C 472.730 212.536, 467.890 214.098, 462.500 214.937 C 449.121 217.019, 446.674 218.341, 438.883 227.696 C 437.443 229.424, 433.743 232.184, 430.661 233.829 C 420.644 239.174, 404.986 253.414, 398.152 263.393 C 396.228 266.202, 392.700 270.525, 390.312 273 C 387.925 275.475, 384.842 279.750, 383.461 282.500 C 382.080 285.250, 379.183 290.650, 377.023 294.500 C 369.097 308.625, 365.141 316.787, 360.058 329.500 C 354.956 342.262, 352.089 349.032, 345.449 364 C 342.378 370.924, 339.536 379.732, 338.313 386.118 C 338.037 387.559, 338.556 390.174, 339.467 391.937 C 341.381 395.638, 344 408.400, 344 414.026 C 344 417.421, 354.394 444.728, 356.481 446.814 C 356.858 447.191, 359.558 447.500, 362.481 447.500 C 366.979 447.500, 368.415 447.002, 371.839 444.250 C 374.545 442.075, 376.977 440.993, 379.191 440.978 C 383.860 440.947, 390.896 437.504, 394.638 433.419 C 398.730 428.952, 408.492 411.691, 409.863 406.500 C 410.444 404.300, 410.865 400.250, 410.799 397.500 C 410.672 392.192, 412.183 388.385, 416.321 383.595 C 419.762 379.611, 424.102 370.794, 425.412 365.124 C 426.209 361.678, 429.443 356.386, 437.500 345.342 L 448.500 330.266 457 326.160 C 461.675 323.901, 469.550 320.899, 474.500 319.487 C 482.466 317.215, 484.049 317.052, 488.285 318.068 C 490.917 318.700, 494.518 319.001, 496.286 318.738 C 500.330 318.135, 510.373 321.274, 514.424 324.407 C 517.705 326.944, 525.096 336.977, 530.320 345.983 C 532.517 349.771, 535.298 352.702, 539.310 355.460 C 544.878 359.287, 545.438 359.450, 552.757 359.386 C 557.691 359.343, 560.533 358.901, 560.788 358.137 C 561.004 357.487, 562.728 354.827, 564.617 352.227 C 566.506 349.627, 569.579 344.292, 571.445 340.372 C 573.949 335.112, 577.198 330.787, 583.838 323.872 C 588.788 318.717, 593.733 313.356, 594.827 311.959 C 597.913 308.018, 606.438 303.797, 610.787 304.057 C 612.829 304.180, 614.962 304.217, 615.526 304.140 C 616.923 303.950, 616.136 295.760, 614.600 294.500 C 612.088 292.440, 603.611 269.079, 602.535 261.252 C 602.134 258.341, 600.790 254.749, 599.393 252.855 C 598.050 251.034, 596.679 247.847, 596.348 245.772 C 596.016 243.698, 595.456 242, 595.104 242 C 594.752 242, 592.318 240.227, 589.696 238.061 C 586.948 235.790, 582.636 233.455, 579.515 232.547 C 576.538 231.682, 573.836 230.544, 573.512 230.019 C 572.807 228.879, 560.708 223, 559.067 223 C 558.435 223, 556.700 222.161, 555.210 221.135 C 547.265 215.665, 540.208 211.492, 537.051 210.396 C 535.098 209.718, 531.325 208.227, 528.667 207.082 C 526.009 205.937, 522.184 205.075, 520.167 205.167 C 518.150 205.259, 509.225 205.620, 500.334 205.970" stroke="#dd8a8a" fill="#dd8a8a" fill-opacity="0.2" fill-rule="evenodd"/><path class="svg-region-SV" d="M 473 319.862 C 467.775 321.417, 460.125 324.420, 455.999 326.536 C 448.965 330.144, 448 331.062, 440.499 341.283 C 436.100 347.278, 431.071 354.095, 429.325 356.433 C 427.579 358.771, 425.821 362.438, 425.419 364.582 C 424.319 370.442, 419.046 380.965, 415.264 384.845 C 412.410 387.773, 410.683 392.667, 410.799 397.500 C 410.974 404.774, 409.475 409.318, 403.288 420.268 C 397.647 430.251, 394.708 433.980, 389.616 437.613 C 386.882 439.564, 386.804 439.819, 388.116 442.548 C 391.029 448.605, 399.532 451.649, 406.324 449.067 C 407.674 448.554, 410.734 445.629, 413.126 442.567 C 416.086 438.777, 418.185 437, 419.702 437 C 420.928 437, 423.548 435.580, 425.525 433.844 C 429.105 430.701, 429.135 430.694, 432.594 432.344 C 437.374 434.623, 441.240 434.421, 446.783 431.601 C 452.969 428.455, 466.497 417.732, 468.678 414.245 C 469.622 412.735, 470.488 411.355, 470.603 411.178 C 470.717 411.001, 472.878 411.558, 475.405 412.416 C 479.408 413.775, 480.548 413.797, 484.250 412.589 C 486.588 411.825, 490.750 410.888, 493.500 410.505 C 501.198 409.434, 504.977 407.430, 511.556 400.928 L 517.611 394.943 530.247 394.567 C 537.197 394.359, 543.360 393.896, 543.942 393.536 C 544.524 393.176, 545 392.076, 545 391.091 C 545 390.106, 546.255 387.545, 547.790 385.400 C 552.934 378.208, 556.182 371.858, 558.042 365.352 L 559.889 358.894 555.623 359.534 C 550.242 360.341, 543.769 358.625, 538.490 354.993 C 534.487 352.239, 532.028 349.132, 526.627 340 C 516.959 323.655, 510.512 319.220, 495.500 318.583 C 491.650 318.420, 487.150 318.005, 485.500 317.661 C 483.540 317.253, 479.208 318.015, 473 319.862" stroke="#c666b5" fill="#c666b5" fill-opacity="0.2" fill-rule="evenodd"/><path class="svg-region-SF" d="M 603.068 305.750 C 599.236 307.621, 596.697 310.013, 582.999 324.653 C 575.932 332.207, 573.046 336.099, 571.726 339.855 C 570.750 342.632, 568.892 346.163, 567.597 347.702 C 563.665 352.376, 559.451 360.220, 558.037 365.500 C 556.703 370.482, 552.044 379.440, 547.429 385.898 C 543.440 391.479, 544.421 397.402, 550.705 405.669 C 553.569 409.437, 567.724 420.616, 573.452 423.632 C 575.678 424.805, 580.151 427.168, 583.391 428.882 C 587.787 431.209, 590.578 431.996, 594.391 431.985 C 602.824 431.961, 614 426.999, 614 423.278 C 614 422.406, 615.205 419.175, 616.679 416.096 C 618.301 412.708, 619.539 408.134, 619.817 404.502 C 620.143 400.244, 620.961 397.606, 622.638 395.408 C 623.937 393.705, 625.007 391.679, 625.015 390.906 C 625.024 390.133, 625.960 385.900, 627.096 381.500 C 629.216 373.286, 630.440 366.120, 631.962 353 C 632.648 347.088, 632.533 345.031, 631.416 343.285 C 630.563 341.951, 630 338.459, 630 334.503 C 630 330.891, 629.325 326.320, 628.500 324.346 C 627.675 322.371, 627 319.774, 627 318.574 C 627 316.254, 621.815 307.272, 619.369 305.357 C 617.113 303.590, 606.993 303.834, 603.068 305.750" stroke="#8c6b55" fill="#8c6b55" fill-opacity="0.2" fill-rule="evenodd"/><path class="svg-region-AAB" d="M 619.681 496.750 C 619.441 497.163, 618.519 500.029, 617.633 503.119 C 615.510 510.517, 614.329 511.396, 607.635 510.560 L 602.255 509.888 597.733 516.225 C 595.246 519.710, 592.628 524.509, 591.915 526.889 C 591.086 529.655, 589.785 531.596, 588.309 532.269 C 587.039 532.848, 586 533.699, 586 534.161 C 586 535.389, 582.229 535.188, 581.812 533.937 C 581.470 532.910, 573.463 540.616, 563.042 552 C 560.273 555.025, 556.768 559.975, 555.254 563 C 552.764 567.972, 552.511 569.460, 552.614 578.500 C 552.677 584, 553.149 594.350, 553.664 601.500 C 555.252 623.567, 557.821 626, 579.531 626 C 594.576 626, 598.326 624.632, 606.717 616.085 C 610.086 612.653, 612.386 610.982, 612.683 611.750 C 613.479 613.806, 617 613.251, 617 611.069 C 617 608.385, 621.181 602.094, 623 602.041 C 624.145 602.008, 624.518 600.637, 624.578 596.249 C 624.621 593.087, 625.479 587.575, 626.485 584 C 628.814 575.720, 629.551 561.985, 628.013 555.500 C 626.967 551.091, 627.061 549.959, 628.803 545.925 C 630.354 542.334, 630.712 539.610, 630.466 533.262 C 630.243 527.492, 630.552 524.647, 631.545 523.337 C 632.354 522.268, 632.950 519.055, 632.968 515.654 C 633.002 509.377, 632.182 507.707, 625.287 500.027 C 621.684 496.014, 620.510 495.327, 619.681 496.750" stroke="#7f3c1a" fill="#7f3c1a" fill-opacity="0.2" fill-rule="evenodd"/><path class="svg-region-APB" d="M 579.774 431.870 C 578.368 433.448, 576.392 436.035, 575.384 437.620 C 568.874 447.852, 561.970 452.660, 557.342 450.183 C 555.712 449.311, 554.970 449.664, 552.846 452.326 C 546.833 459.862, 546.506 461.220, 546.422 479 C 546.347 494.842, 546.217 495.865, 543.172 504.648 C 540.241 513.100, 540.002 514.771, 540.022 526.648 C 540.040 536.927, 540.410 540.305, 541.871 543.522 C 545.207 550.866, 553.967 557.794, 558.358 556.561 C 559.536 556.230, 562.525 553.468, 565 550.424 C 570.563 543.580, 576.191 537.680, 579.098 535.644 C 580.481 534.675, 581.677 532.312, 582.309 529.300 C 583.216 524.980, 583.506 504.790, 582.810 494.486 C 582.604 491.431, 583.166 489.638, 585.162 486.986 C 587.320 484.118, 591.422 477.056, 599.010 463.147 C 600.126 461.102, 604.199 452.046, 604.947 449.949 C 605.251 449.095, 607.355 446.733, 609.621 444.699 C 612.809 441.838, 614.584 441, 617.455 441 L 621.168 441 618 437 C 616.258 434.800, 614.336 433, 613.730 433 C 613.125 433, 611.600 432.034, 610.344 430.853 C 608.127 428.771, 607.929 428.756, 603.746 430.353 C 598.373 432.405, 591.357 432.465, 586.654 430.500 C 582.161 428.623, 582.776 428.500, 579.774 431.870 M 628.494 453 C 628.824 454.925, 629.341 457.903, 629.641 459.618 C 630.196 462.781, 628.306 467.736, 625.193 471.285 C 623.073 473.701, 619 486.451, 619 490.671 C 619 493.302, 619.868 494.927, 622.804 497.790 C 624.897 499.831, 627.603 502.806, 628.818 504.403 C 630.034 505.999, 631.359 506.969, 631.764 506.557 C 632.969 505.333, 632.261 463.270, 630.940 457.622 C 629.481 451.382, 627.608 447.843, 628.494 453" stroke="#ac7444" fill="#ac7444" fill-opacity="0.2" fill-rule="evenodd"/><path class="svg-region-PC" d="M 517.258 498.436 C 514.536 500.727, 514.384 501.249, 514.720 507.186 C 515.318 517.771, 515.790 519.357, 518.974 521.489 C 522.067 523.561, 528.442 532.032, 531.328 537.904 C 533.620 542.569, 533.537 550.204, 531.171 552.345 C 530.165 553.255, 528.658 554, 527.822 554 C 526.985 554, 524.321 555.342, 521.900 556.982 C 519.480 558.622, 516.938 559.972, 516.250 559.982 C 514.351 560.009, 514.752 564.553, 517.144 570.112 C 519.023 574.480, 519.121 575.406, 517.940 577.613 C 516.876 579.599, 516.847 580.485, 517.803 581.815 C 518.468 582.742, 519.188 583.950, 519.403 584.500 C 520.485 587.274, 523.328 603.408, 523.895 610 C 524.250 614.125, 525.093 618.481, 525.768 619.680 C 528.284 624.149, 536.798 628.007, 544.116 627.994 C 547.841 627.987, 552.305 625.987, 555.707 622.800 C 557.833 620.808, 557.853 620.620, 556.247 617.616 C 555.126 615.522, 554.335 610.566, 553.834 602.500 C 553.423 595.900, 552.795 586.675, 552.437 582 C 551.757 573.110, 553.367 564.537, 556.494 560.406 C 558.493 557.764, 558.368 557.309, 555.441 556.575 C 551.965 555.702, 544.604 548.753, 542.345 544.210 C 540.914 541.332, 540.388 537.360, 540 526.500 C 539.518 512.990, 539.426 512.507, 537.388 512.714 C 534.348 513.022, 527.354 506.632, 524.443 500.888 C 523.081 498.200, 521.558 496, 521.060 496 C 520.561 496, 518.851 497.096, 517.258 498.436" stroke="#cda789" fill="#cda789" fill-opacity="0.2" fill-rule="evenodd"/><path class="svg-region-DB" d="M 519.500 394.827 C 518.400 395.040, 514.800 397.793, 511.500 400.943 C 504.070 408.037, 502.498 408.881, 493.617 410.551 C 489.703 411.287, 484.871 412.304, 482.879 412.810 C 480.307 413.464, 478.136 413.337, 475.379 412.370 L 471.500 411.010 468 414.968 C 462.865 420.775, 452.272 428.921, 446.184 431.743 C 440.689 434.290, 438.163 434.324, 432.342 431.930 C 429.368 430.707, 428.973 430.816, 425.557 433.816 C 423.563 435.567, 420.859 437, 419.550 437 C 417.849 437, 416.118 438.433, 413.478 442.030 C 409.189 447.873, 405.645 450, 400.198 450 C 395.581 450, 390.099 446.671, 388.194 442.710 C 386.937 440.097, 386.676 440.020, 381.194 440.644 C 376.972 441.126, 374.477 442.095, 371.540 444.397 C 368.247 446.978, 366.691 447.500, 362.290 447.500 L 357 447.500 357 450.929 C 357 454.668, 357.121 455.145, 362.335 472 C 364.292 478.325, 366.402 485.188, 367.024 487.250 C 367.646 489.313, 368.547 491, 369.026 491 C 369.506 491, 370.681 493.587, 371.639 496.750 C 374.619 506.595, 375.933 507.134, 388 503.466 C 390.475 502.713, 396.212 501.792, 400.750 501.420 C 405.288 501.047, 409 500.380, 409 499.938 C 409 497.555, 413.499 498.162, 420.159 501.443 C 427.119 504.871, 427.781 505, 438.472 505 C 445.464 505, 451.586 504.428, 455.032 503.452 C 458.039 502.600, 462.525 501.659, 465 501.361 C 468.987 500.880, 470.001 501.199, 473.890 504.159 C 478.365 507.564, 483.890 510.865, 485.260 510.952 C 485.678 510.978, 489.417 507.850, 493.569 504 C 500.774 497.319, 501.342 497, 506.003 497 C 509.838 497, 511.204 497.453, 512.365 499.111 L 513.843 501.221 517.291 498.592 L 520.739 495.962 519.161 492.481 C 518.293 490.566, 517.050 489, 516.399 489 C 514.957 489, 514 486.715, 514 483.273 C 514 479.901, 518.780 472.436, 521.974 470.820 C 525.029 469.274, 529.673 464.455, 531.535 460.898 C 533.245 457.634, 539.582 452, 541.545 452 C 542.974 452, 544.402 453.339, 547.406 457.500 C 548.827 459.467, 548.868 459.459, 549.891 457 C 551.979 451.979, 554.294 450.290, 558.939 450.398 C 561.336 450.454, 563.471 450.003, 563.683 449.397 C 563.895 448.790, 562.028 446.023, 559.534 443.250 C 555.248 438.482, 555 437.886, 554.995 432.353 C 554.991 427.888, 554.406 425.551, 552.526 422.500 C 550.579 419.338, 550.059 417.138, 550.045 412 C 550.031 406.952, 549.410 404.242, 547.263 399.866 L 544.500 394.233 533 394.336 C 526.675 394.392, 520.600 394.613, 519.500 394.827" stroke="#e8b1e4" fill="#e8b1e4" fill-opacity="0.2" fill-rule="evenodd"/><path class="svg-region-IBl" d="M 508.232 586.977 C 505.885 590.201, 503.255 594.539, 502.388 596.614 C 501.520 598.690, 498.238 603.564, 495.094 607.444 C 486.579 617.953, 486.001 619.004, 485.994 623.973 C 485.987 628.943, 489.793 638.956, 491.698 638.983 C 492.358 638.992, 494.091 637.894, 495.550 636.542 C 499.744 632.654, 507.278 631, 520.787 631 L 532.767 631 533.252 628.465 C 533.609 626.595, 533.180 625.636, 531.618 624.812 C 529.944 623.930, 525.274 619.661, 524.929 618.698 C 524.890 618.589, 524.454 614.675, 523.961 610 C 522.742 598.461, 519.800 584.665, 518.128 582.652 C 515.561 579.563, 512.727 580.802, 508.232 586.977" stroke="#b10e0e" fill="#b10e0e" fill-opacity="0.2" fill-rule="evenodd"/><path class="svg-region-MB" d="M 458 502.743 C 455.659 503.799, 450.047 504.517, 441.056 504.911 L 427.613 505.500 433.548 508.399 C 439.880 511.492, 450.467 521.360, 452.968 526.500 C 455.793 532.306, 458.240 535.101, 466.636 542.114 C 471.297 546.007, 477.655 551.598, 480.764 554.538 C 485.627 559.137, 491.256 562.596, 499.500 566.052 C 500.600 566.513, 503.696 567.853, 506.379 569.029 C 509.063 570.205, 512.777 571.414, 514.633 571.715 L 518.008 572.263 516.504 568.664 C 515.677 566.684, 515 563.700, 515 562.032 C 515 560.275, 514.474 558.998, 513.750 558.996 C 511.113 558.988, 500.333 552.885, 496.802 549.401 C 494.769 547.394, 492.816 544.441, 492.464 542.838 C 492.112 541.234, 490.289 537.911, 488.412 535.453 C 485.053 531.052, 485 530.828, 485 520.940 L 485 510.898 481.730 509.532 C 479.931 508.780, 477.570 507.182, 476.482 505.980 C 471.920 500.939, 464.772 499.687, 458 502.743" stroke="#f9c6c6" fill="#f9c6c6" fill-opacity="0.2" fill-rule="evenodd"/><path class="svg-region-LBl" d="M 409.791 499.352 C 409.021 500.122, 404.866 501.015, 400.128 501.428 C 395.557 501.827, 390.001 502.794, 387.783 503.577 C 385.564 504.360, 382.777 505, 381.590 505 C 379.082 505, 376 509.556, 376 513.264 C 376 514.614, 377.285 518.144, 378.856 521.109 C 380.979 525.117, 381.888 528.552, 382.399 534.500 C 382.992 541.404, 383.423 542.751, 385.543 544.333 C 386.975 545.402, 388 547.180, 388 548.597 C 388 549.934, 388.426 551.809, 388.947 552.764 C 391.038 556.599, 393.893 566.951, 394.539 573.043 C 394.916 576.594, 395.915 580.598, 396.759 581.939 C 397.604 583.281, 398.509 587.389, 398.773 591.068 C 399.243 597.647, 399.318 597.796, 403.290 600.128 C 405.511 601.433, 408.555 603.653, 410.054 605.063 C 413.777 608.563, 417.627 611, 419.435 611 C 420.796 611, 429.248 614.697, 433 616.934 C 433.825 617.426, 436.975 618.943, 440 620.306 C 443.025 621.670, 447.199 623.565, 449.275 624.518 C 453.795 626.594, 462 634.648, 462 637.010 C 462 637.934, 462.823 639.435, 463.829 640.346 C 464.835 641.256, 466.712 644.251, 468 647.001 C 469.288 649.750, 470.672 652, 471.076 652 C 471.480 652, 472.995 649.978, 474.444 647.506 C 477.433 642.406, 481.281 640, 486.450 640 C 490.652 640, 490.930 638.744, 488 633 C 486.823 630.692, 486 627.106, 486 624.283 C 486 619.992, 486.601 618.695, 491.695 611.993 C 494.828 607.872, 498.014 603.870, 498.775 603.099 C 499.536 602.329, 501.187 599.404, 502.443 596.599 C 505.308 590.206, 512.625 581, 514.841 581 C 516.706 581, 519.475 575.679, 518.683 573.617 C 518.403 572.887, 516.583 572.032, 514.638 571.716 C 512.693 571.401, 509.617 570.469, 507.801 569.646 C 498.280 565.330, 492.885 563, 492.410 563 C 490.938 563, 482 556.360, 482 555.266 C 482 554.570, 481.645 554, 481.211 554 C 480.778 554, 477.456 551.413, 473.829 548.250 C 470.203 545.087, 464.989 540.611, 462.243 538.302 C 458.240 534.936, 452.443 526.970, 450.140 521.669 C 449.289 519.710, 440.488 512.291, 436.182 509.903 C 423.455 502.844, 413.843 498, 412.564 498 C 411.782 498, 410.535 498.608, 409.791 499.352" stroke="#d7b230" fill="#d7b230" fill-opacity="0.2" fill-rule="evenodd"/><path class="svg-region-LPl" d="M 617.667 607.667 C 617.300 608.033, 617 609.383, 617 610.667 C 617 612.333, 616.429 613, 615 613 C 613.900 613, 613 612.550, 613 612 C 613 609.837, 610.353 611.285, 607.500 615.008 C 600.580 624.039, 594.063 626.351, 576.920 625.857 C 566.560 625.559, 563.920 625.156, 561 623.426 L 557.500 621.352 553.647 624.426 C 550.226 627.156, 549.106 627.486, 543.647 627.374 C 540.266 627.305, 536.600 627.080, 535.500 626.874 C 534.045 626.602, 533.414 627.113, 533.181 628.750 C 532.869 630.943, 532.553 631, 520.612 631 C 506.864 631, 499.081 632.691, 494.964 636.573 C 493.569 637.888, 491.094 639.179, 489.464 639.440 C 487.834 639.702, 484.838 640.176, 482.807 640.493 C 478.787 641.120, 473.692 646.394, 472.494 651.168 C 471.923 653.443, 472.370 653.975, 476.646 656.109 C 481.216 658.389, 481.603 658.918, 485.003 667.524 C 492.190 685.718, 493.825 691.373, 494.407 700.056 C 494.898 707.358, 494.690 709.185, 492.991 712.518 C 491.896 714.666, 491 718.128, 491 720.211 C 491 723.765, 491.188 724, 494.040 724 C 495.712 724, 498.869 723.087, 501.057 721.971 C 505.794 719.554, 513.531 719.116, 520.500 720.871 C 529.782 723.207, 530.561 723.214, 535.574 721 C 543.934 717.309, 546.370 715.849, 550.145 712.262 C 552.796 709.743, 554.342 708.974, 555.811 709.440 C 556.922 709.793, 558.121 709.613, 558.475 709.041 C 558.829 708.468, 559.976 708, 561.024 708 C 562.072 708, 563.395 707.130, 563.964 706.068 C 565.490 703.216, 568.474 702.679, 572.200 704.585 L 575.500 706.274 573.652 704.200 C 571.953 702.293, 572.072 700, 573.869 700 C 574.282 700, 576.068 701.415, 577.838 703.145 L 581.055 706.291 589.534 705.639 C 597.103 705.057, 598.535 704.612, 602.876 701.494 C 605.551 699.572, 608.023 698, 608.369 698 C 608.948 698, 610.467 696.736, 615.279 692.248 C 616.257 691.336, 619.023 687.194, 621.425 683.045 C 623.827 678.895, 626.695 674.592, 627.800 673.483 C 631.224 670.042, 638.893 653.654, 639.065 649.409 C 639.625 635.575, 639.296 632.442, 636.705 626.908 C 635.264 623.833, 633.440 620.780, 632.651 620.125 C 631.861 619.470, 630.662 617.599, 629.986 615.967 C 629.310 614.335, 628.137 613, 627.379 613 C 626.620 613, 626 612.550, 626 612 C 626 611.450, 625.433 611, 624.741 611 C 624.048 611, 622.919 610.100, 622.232 609 C 620.986 607.005, 618.929 606.404, 617.667 607.667" stroke="#d2454f" fill="#d2454f" fill-opacity="0.2" fill-rule="evenodd"/><path class="svg-region-DMl" d="M 392.396 637.750 C 391.261 641.424, 390.205 642.478, 387.005 643.133 C 385.040 643.535, 382.724 645.057, 381.290 646.889 C 379.964 648.583, 375.755 653.226, 371.936 657.207 L 364.994 664.445 368.046 666.024 C 372.189 668.166, 374.985 672.711, 374.993 677.316 C 375.001 681.891, 373.687 684.761, 370.259 687.654 C 367.726 689.793, 367.719 689.844, 369.246 694.654 C 370.092 697.319, 371.098 701.750, 371.481 704.500 C 371.864 707.250, 372.756 710.175, 373.462 711 C 375.809 713.740, 382 731.982, 382 736.155 C 382 738.565, 381.144 741.649, 379.930 743.614 C 378.791 745.456, 378.116 747.379, 378.430 747.887 C 378.755 748.412, 383.262 748.576, 388.869 748.267 C 394.935 747.933, 401.294 748.206, 405.377 748.977 C 412.589 750.338, 415 749.573, 415 745.923 C 415 743.877, 420.410 742.351, 424.174 743.335 C 425.356 743.644, 427.089 743.488, 428.024 742.987 C 429.243 742.335, 431.455 742.949, 435.843 745.158 C 441.781 748.149, 442.175 748.210, 449.231 747.250 C 453.229 746.706, 458.750 745.319, 461.500 744.168 C 464.250 743.017, 468.690 741.798, 471.367 741.459 C 475.270 740.964, 476.985 740.076, 480.027 736.972 C 482.114 734.843, 485.324 732.473, 487.161 731.705 C 490.870 730.155, 494.406 724.977, 492.250 724.253 C 490.334 723.610, 490.695 715.995, 492.750 713.720 C 494.220 712.093, 494.457 710.138, 494.231 701.482 C 493.991 692.302, 493.526 689.999, 489.960 680.340 C 483.292 662.276, 480.826 657.173, 478.480 656.584 C 477.311 656.291, 474.679 654.914, 472.632 653.525 C 469.609 651.474, 467.707 651, 462.494 651 C 456.403 651, 440.798 648.034, 436.500 646.058 C 430.670 643.379, 426.459 642.823, 417.085 643.494 L 407.321 644.193 404.076 640.096 C 401.260 636.541, 400.311 636, 396.885 636 C 393.998 636, 392.792 636.470, 392.396 637.750" stroke="#68533d" fill="#68533d" fill-opacity="0.2" fill-rule="evenodd"/><path class="svg-region-PMl" d="M 353.143 667.734 C 348.929 670.185, 348.672 670.214, 345.359 668.634 C 343.474 667.735, 340.660 667, 339.104 667 C 335.334 667, 324.140 672.117, 315.500 677.790 C 311.650 680.318, 306.905 683.421, 304.956 684.687 C 303.006 685.952, 299.572 688.902, 297.324 691.244 C 295.075 693.585, 292.161 696.625, 290.848 698 C 289.534 699.375, 286.578 702.003, 284.278 703.841 C 281.978 705.678, 279.101 708.045, 277.885 709.100 C 276.669 710.154, 273.835 711.501, 271.587 712.093 C 269.339 712.685, 264.910 714.513, 261.745 716.155 C 256.155 719.055, 255.827 719.105, 250.331 717.875 C 244.913 716.662, 244.610 716.702, 243.214 718.804 C 242.210 720.316, 240.743 721, 238.503 721 C 235.651 721, 235.172 721.390, 234.617 724.163 C 234.180 726.348, 234.469 727.860, 235.551 729.056 C 237.036 730.697, 247.840 734, 251.723 734 C 252.720 734, 255.191 735.125, 257.215 736.500 C 259.238 737.875, 261.712 739, 262.712 739 C 263.712 739, 266.098 739.819, 268.015 740.819 C 269.932 741.820, 275.325 743.460, 280 744.463 C 284.675 745.467, 292.325 747.196, 297 748.305 C 303.853 749.932, 309.800 750.390, 327.686 750.670 C 341.905 750.893, 350.095 750.655, 350.495 750.009 C 350.855 749.425, 355.955 749, 362.594 749 C 375.213 749, 377.863 748.100, 380.551 742.901 C 382.963 738.237, 382.317 731.897, 378.450 722.306 C 376.498 717.463, 374.292 712.570, 373.547 711.433 C 372.803 710.296, 371.735 706.696, 371.174 703.433 C 370.612 700.170, 369.719 695.823, 369.187 693.773 C 368.289 690.306, 368.458 689.794, 371.610 686.452 C 374.424 683.469, 375 682.096, 375 678.379 C 375 675.916, 374.317 672.581, 373.483 670.967 C 370.241 664.698, 360.913 663.215, 353.143 667.734" stroke="#90cf92" fill="#90cf92" fill-opacity="0.2" fill-rule="evenodd"/><path class="svg-region-LPVl" d="M 372.677 624.750 C 370.867 627.825, 370.993 632.181, 372.973 634.961 C 374.748 637.454, 374.906 638.323, 373.932 640.224 C 372.487 643.045, 368.994 645.948, 367.011 645.978 C 364.279 646.019, 347.123 655.422, 346.678 657.122 C 346.438 658.043, 343.207 660.832, 339.498 663.319 L 332.756 667.842 336.913 667.285 C 339.729 666.907, 342.302 667.283, 344.894 668.452 C 348.658 670.149, 348.798 670.136, 353.826 667.588 C 356.635 666.165, 360.220 665, 361.793 665 C 364.060 665, 366.194 663.383, 372.077 657.211 C 376.159 652.927, 380.697 647.977, 382.160 646.211 C 383.823 644.204, 385.732 643, 387.255 643 C 388.594 643, 390.404 642.211, 391.277 641.246 C 392.742 639.627, 392.619 639.225, 389.663 635.996 C 382.087 627.721, 374.057 622.405, 372.677 624.750" stroke="#494949" fill="#494949" fill-opacity="0.2" fill-rule="evenodd"/><path class="svg-region-Fl" d="M 299.755 531.674 C 298.768 532.661, 295.450 533.665, 291.670 534.120 C 288.144 534.544, 282.515 535.816, 279.161 536.946 C 275.807 538.076, 271.586 539.020, 269.782 539.044 C 260.611 539.167, 254.514 542.504, 247.963 550.982 C 246.058 553.448, 243.713 556.260, 242.750 557.232 C 241.787 558.205, 241 559.589, 241 560.309 C 241 561.029, 239.369 564.291, 237.375 567.559 C 233.770 573.468, 231.833 578.681, 231.823 582.500 C 231.817 585.175, 229.887 594.122, 228.912 596 C 227.999 597.757, 225.773 607.157, 226.205 607.430 C 227.691 608.368, 239.262 610.314, 246.500 610.843 C 256.573 611.578, 257.382 611.903, 259.543 616.084 L 261.072 619.041 268.786 618.411 L 276.500 617.782 283.479 622.891 C 287.796 626.052, 291.487 628, 293.157 628 C 297.222 628, 299.310 630.632, 298.649 634.922 C 298.138 638.230, 298.361 638.633, 301.602 640.256 C 304.177 641.547, 305.607 641.746, 306.988 641.006 C 309.813 639.495, 321.268 639.796, 325.319 641.489 C 329.079 643.060, 335.411 642.807, 342.161 640.818 C 350.238 638.437, 353.887 642.486, 350.074 649.600 C 348.934 651.729, 348 653.835, 348 654.280 C 348 654.725, 351.908 653.044, 356.685 650.544 C 361.461 648.045, 365.977 646, 366.720 646 C 369.098 646, 372.761 642.991, 373.987 640.030 C 375.022 637.533, 374.890 636.770, 372.977 634.183 C 371.014 631.528, 370.905 630.818, 371.966 627.603 C 372.620 625.622, 373.570 624, 374.078 624 C 374.585 624, 375 621.900, 375 619.334 C 375 614.245, 374.974 614.205, 365.467 604.597 C 362.149 601.244, 358.687 597.318, 357.775 595.874 C 354.484 590.663, 349 579.805, 349 578.498 C 349 577.764, 347.425 573.876, 345.500 569.860 C 343.575 565.843, 342 561.970, 342 561.253 C 342 559.579, 335.940 547.594, 332.696 542.853 C 331.323 540.847, 329.907 538.283, 329.549 537.154 C 329.191 536.026, 328.080 534.843, 327.081 534.526 C 326.081 534.208, 324.460 533.060, 323.477 531.974 C 321.922 530.256, 320.376 530, 311.559 530 C 303.420 530, 301.100 530.329, 299.755 531.674" stroke="#5ca7a9" fill="#5ca7a9" fill-opacity="0.2" fill-rule="evenodd"/><path class="svg-region-PCl" d="M 225.669 608.750 C 224.342 610.970, 221.791 623.480, 221.337 630 C 221.049 634.125, 220.154 639.322, 219.348 641.549 C 218.520 643.836, 218.016 647.971, 218.191 651.049 C 218.464 655.861, 218.734 656.462, 220.500 656.175 C 221.600 655.996, 223.175 655.036, 224 654.041 C 224.825 653.046, 227.188 651.695, 229.250 651.038 C 231.313 650.382, 233 649.496, 233 649.068 C 233 648.641, 234.104 647.101, 235.452 645.646 C 237.282 643.671, 238.868 643.004, 241.702 643.015 C 245.898 643.032, 252.418 645.018, 254.232 646.832 C 255.870 648.470, 266.545 648.268, 272.409 646.489 C 275.138 645.661, 281.175 645, 286.004 645 C 296.284 645, 297.424 644.198, 298.490 636.220 C 299.336 629.895, 298.178 628, 293.467 628 C 291.164 628, 288.724 626.849, 285.319 624.158 C 277.573 618.035, 276.518 617.677, 268.381 618.415 L 261.090 619.075 259.535 616.067 C 257.362 611.865, 255.203 611.002, 246.816 610.985 C 242.792 610.977, 237.700 610.321, 235.500 609.529 C 231.116 607.949, 226.373 607.574, 225.669 608.750 M 305.635 642.073 C 303.640 643.642, 303.001 645.038, 303.004 647.823 C 303.009 652.583, 305.571 656.676, 311.871 661.989 C 314.666 664.345, 317.241 667.224, 317.594 668.386 C 317.947 669.549, 318.881 671.235, 319.669 672.134 C 320.993 673.646, 321.440 673.640, 325.607 672.058 C 328.086 671.117, 330.918 669.658, 331.902 668.816 C 332.885 667.974, 336.437 665.419, 339.796 663.139 C 344.963 659.630, 346.391 657.968, 349.084 652.325 C 351.620 647.011, 352.080 645.134, 351.350 643.079 C 350.311 640.153, 348.148 639.990, 335.653 641.900 C 330.103 642.748, 328.139 642.667, 325.281 641.473 C 319.818 639.190, 308.875 639.524, 305.635 642.073" stroke="#465ee0" fill="#465ee0" fill-opacity="0.2" fill-rule="evenodd"/><path class="svg-region-Ol" d="M 707.764 339.996 C 701.041 342.020, 691.658 350.455, 688.303 357.490 C 687.383 359.421, 686.263 361, 685.815 361 C 685.367 361, 685 361.800, 685 362.777 C 685 363.755, 684.312 365.537, 683.471 366.737 C 682.631 367.938, 680.832 372.324, 679.474 376.484 C 678.116 380.644, 675.653 386.725, 674.002 389.996 C 672.351 393.267, 671 396.647, 671 397.507 C 671 398.367, 670.366 400.067, 669.592 401.285 C 668.817 402.503, 667.640 406.200, 666.976 409.500 C 666.312 412.800, 664.971 417.750, 663.995 420.500 C 658.757 435.264, 658.720 435.526, 658.885 457 C 659.040 477.359, 660.853 492.120, 663.895 497.804 C 664.503 498.940, 665 501.023, 665 502.434 C 665 503.845, 665.400 505, 665.889 505 C 666.377 505, 667.069 506.556, 667.426 508.457 C 668.019 511.616, 669.894 516.564, 673.507 524.500 C 674.258 526.150, 676.207 530.493, 677.838 534.152 C 680.670 540.505, 681.088 540.938, 687.152 543.784 C 693.117 546.584, 704.938 549.477, 708.084 548.907 C 708.863 548.766, 713.056 549.014, 717.402 549.457 C 726.847 550.421, 737.798 548.770, 743 545.597 C 744.925 544.423, 747.810 542.796, 749.411 541.981 C 751.012 541.167, 754.672 537.350, 757.545 533.500 C 762.999 526.190, 767.960 513.319, 769.488 502.513 C 769.876 499.770, 770.825 496.305, 771.597 494.813 C 772.589 492.895, 773 488.313, 773 479.186 C 773 472.084, 773.439 463.958, 773.976 461.128 C 775.544 452.860, 772.844 428.633, 769.003 416.500 C 767.958 413.200, 766.565 407.654, 765.907 404.177 C 765.249 400.699, 763.707 396.374, 762.481 394.567 C 761.254 392.759, 759.559 388.630, 758.715 385.390 C 757.870 382.151, 756.015 377.250, 754.594 374.500 C 753.172 371.750, 752.006 369.107, 752.004 368.626 C 751.998 367.310, 744.837 356.852, 740.077 351.207 C 737.337 347.957, 734.333 345.635, 731.438 344.530 C 728.997 343.597, 727 342.475, 727 342.036 C 727 339.777, 713.313 338.325, 707.764 339.996" stroke="#aa444d" fill="#aa444d" fill-opacity="0.2" fill-rule="evenodd"/><path class="svg-region-VOC" d="M 493.050 504.250 L 485.140 511.500 485.070 521.711 C 485.009 530.579, 485.255 532.160, 486.938 533.727 C 488.004 534.720, 490.003 537.965, 491.380 540.938 C 494.807 548.335, 499.102 552.577, 506.899 556.267 C 514.723 559.970, 518.769 560.231, 521.775 557.225 C 522.971 556.029, 525.198 554.754, 526.725 554.391 C 531.436 553.271, 533 551.172, 533 545.967 C 533 543.370, 532.352 539.727, 531.561 537.872 C 529.610 533.302, 522.425 523.966, 518.968 521.511 C 515.890 519.324, 515.002 516.443, 514.996 508.625 C 514.994 505.281, 514.304 502.370, 513.011 500.250 C 511.198 497.276, 510.602 497, 505.995 497 C 501.139 497, 500.680 497.258, 493.050 504.250" stroke="#ff8f93" fill="#ff8f93" fill-opacity="0.2" fill-rule="evenodd"/><path class="svg-region-OABl" d="M 609.443 444.751 C 607.211 446.813, 604.511 450.507, 603.443 452.961 C 599.639 461.694, 590.641 478.605, 586.249 485.275 C 582.278 491.304, 581.865 492.459, 582.497 495.775 C 583.786 502.538, 584.194 523.206, 583.061 524.339 C 582.477 524.923, 582 527.560, 582 530.200 C 582 534.118, 582.321 534.993, 583.750 534.964 C 586.623 534.905, 590.661 530.772, 592.020 526.500 C 592.720 524.300, 595.284 519.698, 597.718 516.273 L 602.143 510.046 608.168 510.675 C 612.770 511.156, 614.409 510.974, 615.106 509.903 C 617.111 506.819, 619.214 497.401, 619.406 490.644 C 619.531 486.202, 620.249 482.289, 621.304 480.300 C 622.237 478.539, 623 476.247, 623 475.205 C 623 474.163, 623.946 472.454, 625.102 471.407 C 628.550 468.287, 630.238 464.092, 629.644 460.120 C 628.070 449.609, 627.238 446.251, 625.586 443.750 C 623.996 441.342, 623.131 441, 618.635 441.001 C 614.091 441.003, 613.033 441.434, 609.443 444.751" stroke="#81244d" fill="#81244d" fill-opacity="0.2" fill-rule="evenodd"/><path class="svg-region-SOTl" d="M 536.767 454.750 C 534.812 456.262, 532.421 458.958, 531.454 460.741 C 529.371 464.579, 525.295 469.065, 522.500 470.595 C 521.400 471.197, 519.038 473.594, 517.250 475.922 C 513.317 481.045, 512.623 487.827, 515.943 488.695 C 517.055 488.986, 518.150 490.407, 518.504 492.018 C 518.844 493.566, 519.751 495.074, 520.520 495.369 C 521.289 495.665, 523.022 498.065, 524.370 500.703 C 527.760 507.337, 533.046 512.203, 537.223 512.534 C 541.008 512.835, 541.266 512.355, 545.063 498 C 546.715 491.752, 546.938 488.721, 546.401 479.845 C 545.975 472.820, 546.165 467.482, 546.957 464.178 C 548.213 458.942, 547.718 456.861, 544.435 453.578 C 542.235 451.378, 540.854 451.589, 536.767 454.750" stroke="#995b45" fill="#995b45" fill-opacity="0.2" fill-rule="evenodd"/><path class="svg-region-LBPCl" d="M 396 598.906 C 395.175 599.371, 392.344 600.063, 389.708 600.443 C 381.172 601.676, 374.974 608.964, 375.032 617.700 C 375.068 623.130, 375.701 624.154, 382 628.974 C 384.475 630.868, 387.341 633.410, 388.368 634.624 C 389.989 636.539, 390.929 636.760, 395.462 636.292 C 400.509 635.771, 400.768 635.868, 403.046 639.126 C 404.343 640.982, 405.875 642.861, 406.452 643.303 C 407.028 643.745, 411.634 643.833, 416.686 643.498 C 425.385 642.921, 431.507 643.697, 436.500 646.010 C 445.403 650.133, 469 652.653, 469 649.480 C 469 647.781, 464.655 640.523, 463.041 639.525 C 462.468 639.171, 462 638.083, 462 637.106 C 462 634.665, 453.880 626.633, 449.275 624.518 C 447.199 623.565, 443.025 621.670, 440 620.306 C 436.975 618.943, 433.825 617.438, 433 616.962 C 427.449 613.757, 421.330 611, 419.768 611 C 417.384 611, 413.114 608.222, 410.161 604.750 C 408.875 603.237, 407.248 602, 406.546 602 C 405.844 602, 404.126 601.100, 402.727 600 C 399.986 597.844, 398.356 597.579, 396 598.906" stroke="#daffff" fill="#daffff" fill-opacity="0.2" fill-rule="evenodd"/><path class="svg-region-PNl" d="M 298 640.345 C 298 643.647, 294.508 645, 285.921 645.024 C 281.290 645.037, 275.700 645.547, 273.500 646.158 C 266.991 647.965, 257.462 648.324, 254.837 646.861 C 250.609 644.506, 245.561 643.030, 241.677 643.015 C 238.486 643.002, 237.272 643.648, 234.341 646.913 C 232.409 649.065, 229.659 651.120, 228.231 651.478 C 226.803 651.837, 224.332 653.226, 222.740 654.565 C 221.149 655.904, 219.467 657, 219.003 657 C 218.539 657, 217.843 658.462, 217.457 660.250 C 216.361 665.327, 213.233 670.791, 211.019 671.494 C 209.911 671.846, 208.727 673.241, 208.387 674.595 C 208.047 675.949, 206.783 677.607, 205.578 678.279 C 197.548 682.756, 164 713.159, 164 715.958 C 164 716.833, 161.313 719.505, 158.028 721.897 C 154.744 724.289, 151.789 727.091, 151.461 728.124 C 151.133 729.157, 149.883 730.517, 148.682 731.147 C 144.391 733.399, 130.947 747.595, 128.264 752.708 C 125.743 757.511, 125.635 758.172, 126.879 761.208 C 127.621 763.019, 128.439 765.638, 128.695 767.028 C 129.424 770.979, 133.847 772.944, 140.704 772.363 C 143.892 772.093, 146.650 771.451, 146.833 770.936 C 147.017 770.421, 148.422 770, 149.955 770 C 152.175 770, 155.103 767.653, 164.303 758.505 C 170.660 752.183, 176.117 746.208, 176.428 745.227 C 176.739 744.246, 179.519 741.657, 182.606 739.472 C 185.693 737.287, 190.899 733.475, 194.175 731 C 197.450 728.525, 201.507 725.639, 203.189 724.586 C 204.871 723.533, 207.764 721.283, 209.617 719.586 C 211.471 717.889, 215.093 715.384, 217.667 714.019 C 221.410 712.035, 222.440 711.821, 222.817 712.950 C 223.483 714.948, 228.073 719.058, 230.815 720.111 C 232.088 720.600, 235.071 721, 237.443 721 C 240.756 721, 242.089 720.498, 243.194 718.835 C 244.529 716.824, 244.958 716.752, 249.218 717.825 C 252.955 718.766, 254.596 718.701, 258.066 717.477 C 260.410 716.650, 262.816 715.584, 263.414 715.107 C 264.011 714.631, 267.147 713.482, 270.381 712.555 C 276.754 710.727, 282.689 706.114, 297.166 691.739 C 301.382 687.552, 306.782 683.138, 309.166 681.930 C 311.550 680.722, 315.208 678.390, 317.296 676.746 C 320.666 674.094, 320.932 673.576, 319.664 672.130 C 318.879 671.233, 317.960 669.589, 317.623 668.476 C 317.285 667.363, 314.489 664.213, 311.409 661.476 C 308.328 658.739, 305.177 655.285, 304.404 653.800 C 302.781 650.678, 302.535 644.406, 304 643.500 C 305.651 642.480, 305.145 641.387, 302.453 640.161 C 299.134 638.648, 298 638.695, 298 640.345" stroke="#bbc0d1" fill="#bbc0d1" fill-opacity="0.2" fill-rule="evenodd"/><path class="svg-region-OVl" d="M 550.031 412.284 C 550.055 417.104, 550.616 419.398, 552.526 422.500 C 554.407 425.554, 554.999 427.919, 555.029 432.500 C 555.066 438.229, 555.282 438.737, 559.806 443.750 C 562.412 446.637, 565.002 449, 565.561 449 C 566.647 449, 573.008 441.724, 576.807 436.137 C 578.076 434.270, 579.763 432.094, 580.557 431.300 C 581.351 430.506, 582 429.451, 582 428.954 C 582 428.458, 578.724 426.254, 574.721 424.057 C 570.718 421.860, 563.518 416.913, 558.721 413.065 L 550 406.068 550.031 412.284" stroke="#593939" fill="#593939" fill-opacity="0.2" fill-rule="evenodd"/>
    </svg>