<svg xmlns="http://www.w3.org/2000/svg" width="1078" height="1151" viewBox="0 0 1078 1151" version="1.1">
    <path class="svg-region-V" d="M 496.500 211.114 C 492.740 212.396, 485.158 214.643, 478 216.596 C 474.975 217.422, 468.389 220.292, 463.365 222.974 C 458.341 225.656, 452.385 228.404, 450.130 229.079 C 447.875 229.755, 443.886 232.248, 441.265 234.620 C 438.644 236.992, 435.963 238.948, 435.307 238.967 C 434.650 238.985, 433.474 239.913, 432.692 241.029 C 431.910 242.145, 427.066 247.567, 421.927 253.078 C 416.788 258.590, 411.439 264.798, 410.041 266.874 C 408.644 268.950, 405.813 272.687, 403.750 275.178 C 401.688 277.668, 400 280.044, 400 280.458 C 400 280.872, 398.584 283.300, 396.853 285.855 C 395.123 288.410, 392.929 291.850, 391.978 293.500 C 373.971 324.749, 374.360 324.002, 358.140 358.500 C 352.804 369.850, 350.717 375.568, 349.564 382 C 348.726 386.675, 347.765 391.467, 347.430 392.648 C 347.070 393.916, 347.516 395.859, 348.520 397.391 C 349.653 399.120, 350.066 401.239, 349.759 403.743 C 349.465 406.132, 350.188 410.231, 351.745 415 C 353.091 419.125, 354.830 424.975, 355.609 428 C 356.388 431.025, 357.552 434.524, 358.195 435.775 C 359.695 438.693, 372.184 446.703, 377.441 448.119 C 385.386 450.258, 394.772 447.245, 401.130 440.515 C 404.873 436.553, 413.966 422.163, 415.673 417.500 C 416.729 414.613, 423.178 394.137, 426.462 383.240 C 427.334 380.347, 431.178 373.324, 435.004 367.633 C 438.830 361.941, 443.290 354.633, 444.916 351.392 C 446.541 348.152, 449.510 344.215, 451.514 342.644 C 453.518 341.074, 455.946 338.493, 456.909 336.908 C 459.411 332.794, 472.346 323.465, 483.391 317.808 C 487.102 315.908, 487.544 315.889, 492.957 317.408 C 496.078 318.283, 501.372 319, 504.722 319 C 511.776 319, 521.262 322.821, 526.886 327.926 C 528.748 329.617, 530.564 331, 530.922 331 C 533.024 331, 540.634 339.516, 543.850 345.468 C 546.973 351.249, 548.712 353.178, 554.057 356.792 C 557.601 359.188, 561.625 362.052, 563 363.156 C 567.254 366.571, 569.984 367.240, 572.621 365.513 C 576.109 363.227, 577.726 360.263, 581.005 350.147 C 582.634 345.121, 586.440 335.925, 589.462 329.710 L 594.956 318.410 604.949 311.455 L 614.941 304.500 617.085 297.510 C 618.840 291.784, 619.026 289.962, 618.114 287.439 C 617.501 285.744, 616.994 282.365, 616.987 279.929 C 616.979 277.493, 615.687 271.805, 614.115 267.288 C 612.543 262.772, 611.461 258.872, 611.712 258.622 C 611.962 258.371, 611.441 257.342, 610.553 256.333 C 604.822 249.820, 602.530 247.118, 600.244 244.183 C 597.640 240.839, 586.555 235, 582.812 235 C 580.765 235, 575.460 232.566, 573 230.498 C 572.175 229.804, 570.375 228.906, 569 228.502 C 567.625 228.098, 565.150 226.784, 563.500 225.581 C 558.738 222.110, 553.016 219, 551.393 219 C 550.572 219, 548.534 218.293, 546.864 217.430 C 542.498 215.172, 532.031 212.989, 520.500 211.930 C 501.203 210.158, 499.476 210.100, 496.500 211.114" stroke="#dd8a8a" fill="#dd8a8a" fill-opacity="0.2" fill-rule="evenodd"/><path class="svg-region-SV" d="M 486 316.308 C 477.106 320.059, 459.600 332.485, 456.858 336.993 C 455.929 338.520, 453.342 341.238, 451.109 343.032 C 448.614 345.038, 445.771 348.840, 443.734 352.898 C 441.911 356.529, 437.433 364, 433.783 369.500 C 429.011 376.692, 426.691 381.325, 425.522 386 C 424.628 389.575, 422.815 395.425, 421.492 399 C 420.170 402.575, 418.564 407.750, 417.923 410.500 C 416.815 415.257, 410.859 427.455, 406.862 433.154 C 404.445 436.600, 404.513 437.632, 407.376 441.035 C 408.687 442.593, 410.059 445.905, 410.436 448.424 C 412.087 459.429, 425.142 464.885, 430.038 456.615 C 433.023 451.572, 433.894 450.873, 435.875 451.933 C 437.164 452.623, 439.091 452.220, 442.872 450.468 C 449.106 447.580, 454.793 447.934, 462.281 451.676 C 467.088 454.078, 475.326 455.021, 479.556 453.653 C 480.688 453.287, 484.913 449.297, 488.946 444.787 C 495.526 437.429, 496.659 436.575, 499.961 436.493 C 502.010 436.441, 505.683 435.204, 508.249 433.700 C 514.647 429.950, 520.415 430.043, 526.846 434 C 530.559 436.285, 532.915 437, 536.730 437 C 539.485 437, 544.575 437.906, 548.041 439.013 C 552.202 440.343, 555.513 440.807, 557.788 440.380 C 563.511 439.306, 571 431.379, 571 426.395 C 571 424.807, 570.875 424.803, 569.171 426.345 C 562.821 432.092, 555.478 419.971, 559.492 410.365 C 560.366 408.273, 561.532 403.173, 562.083 399.031 C 562.635 394.889, 563.684 389.925, 564.414 388 C 566.215 383.255, 567.041 374.462, 566.196 369.030 C 565.530 364.751, 565.120 364.304, 556.567 358.517 C 548.603 353.129, 547.237 351.739, 543.967 345.698 C 539.717 337.845, 535.923 333.550, 531 331.015 C 529.075 330.024, 526.600 328.203, 525.500 326.970 C 521.751 322.764, 512.224 319.317, 502.961 318.812 C 498.160 318.551, 493.202 317.682, 491.500 316.803 C 489.204 315.617, 487.913 315.501, 486 316.308" stroke="#c666b5" fill="#c666b5" fill-opacity="0.2" fill-rule="evenodd"/><path class="svg-region-SF" d="M 617.611 295.841 C 616.644 299.569, 615.549 303.059, 615.177 303.596 C 614.804 304.133, 610.090 307.706, 604.700 311.536 L 594.900 318.500 589.049 330.500 C 585.832 337.100, 582.029 346.350, 580.598 351.056 C 577.479 361.316, 572.744 367.476, 568.746 366.472 C 566.335 365.867, 566.333 365.873, 566.281 374.683 C 566.248 380.252, 565.670 384.789, 564.712 387 C 562.154 392.901, 561.555 401.238, 563.428 404.861 C 564.321 406.587, 565.387 408, 565.797 408 C 566.208 408, 568.784 410.072, 571.522 412.603 C 585.018 425.084, 589.111 428.229, 593.617 429.585 C 598.925 431.183, 605.736 431.423, 609.185 430.135 C 610.514 429.639, 614.604 429.677, 618.790 430.225 C 626.400 431.221, 629 430.471, 629 427.279 C 629 426.467, 629.641 424.384, 630.425 422.651 C 631.209 420.918, 632.293 417.475, 632.833 415 C 633.374 412.525, 635.654 406.119, 637.900 400.764 C 642.715 389.287, 644.082 380.977, 644.702 359.397 C 645.096 345.687, 644.900 343.335, 642.569 333.897 C 641.157 328.179, 640.002 322.318, 640.001 320.872 C 640 319.427, 639.325 317.685, 638.500 317 C 637.675 316.315, 637 314.765, 637 313.554 C 637 312.259, 633.911 307.747, 629.500 302.599 C 625.375 297.784, 622 293.260, 622 292.545 C 622 291.830, 621.408 290.754, 620.685 290.153 C 619.640 289.286, 619.008 290.456, 617.611 295.841" stroke="#8c6b55" fill="#8c6b55" fill-opacity="0.2" fill-rule="evenodd"/><path class="svg-region-PF" d="M 559.679 409.040 C 557.563 414.999, 558.175 421.681, 561.188 425.512 C 563.673 428.671, 566.707 428.668, 571 425.500 C 573.274 423.822, 575.723 422.990, 578.444 422.971 L 582.500 422.941 572.500 413.491 C 567 408.294, 562.268 404.032, 561.985 404.021 C 561.701 404.009, 560.664 406.268, 559.679 409.040" stroke="#faaaaa" fill="#faaaaa" fill-opacity="0.2" fill-rule="evenodd"/><path class="svg-region-AAB" d="M 629.993 476.250 C 629.990 476.938, 627.749 480.425, 625.014 484 C 622.279 487.575, 619.593 492.075, 619.044 494 C 618.496 495.925, 616.200 499.731, 613.942 502.458 C 611.684 505.185, 609.187 508.672, 608.392 510.208 C 607.598 511.744, 606.119 513, 605.104 513 C 603.396 513, 596.375 522.401, 591.899 530.680 C 590.832 532.655, 586.834 535.669, 579.899 539.728 C 565.350 548.243, 562.261 551.984, 560.869 562.776 C 560.392 566.474, 559.724 571.585, 559.385 574.133 C 559.045 576.682, 559.256 580.282, 559.853 582.133 C 561.057 585.872, 561.198 590.612, 560.365 599.311 C 559.585 607.442, 560.938 610.028, 568.069 614.039 C 571.345 615.881, 574.659 618.357, 575.435 619.541 C 576.210 620.725, 578.170 622.242, 579.789 622.913 C 581.408 623.583, 583.339 625.266, 584.081 626.651 C 585.744 629.759, 589.895 632, 593.990 632 C 596.990 632, 603.957 629.060, 607 626.510 C 607.825 625.819, 610.075 624.736, 612 624.105 C 615.561 622.937, 623.759 615.824, 626.676 611.371 C 628.009 609.337, 628.259 606.051, 628.133 592.162 C 628.012 578.757, 628.277 575.016, 629.459 573.454 C 630.272 572.379, 630.951 570.582, 630.968 569.460 C 631.030 565.518, 634.080 555.471, 636.030 552.790 C 637.462 550.821, 638 548.468, 638 544.175 C 638 539.841, 638.517 537.612, 639.944 535.798 C 641.013 534.439, 642.037 532.241, 642.219 530.914 C 642.401 529.586, 642.821 528.050, 643.152 527.500 C 643.483 526.950, 644.070 523.466, 644.456 519.757 C 645.020 514.341, 644.854 512.712, 643.616 511.473 C 642.382 510.239, 642.299 509.438, 643.198 507.466 C 643.997 505.711, 644.017 504.333, 643.267 502.686 C 642.576 501.170, 642.546 499.776, 643.179 498.644 C 643.837 497.469, 643.643 494.910, 642.573 490.644 C 641.708 487.195, 641 483.778, 641 483.051 C 641 480.784, 633.863 475, 631.066 475 C 630.480 475, 629.997 475.563, 629.993 476.250" stroke="#7f3c1a" fill="#7f3c1a" fill-opacity="0.2" fill-rule="evenodd"/><path class="svg-region-APB" d="M 609.500 430.010 C 608.400 430.477, 606.215 430.891, 604.644 430.930 C 602.884 430.973, 601.067 431.916, 599.910 433.388 C 598.877 434.701, 596.868 436.067, 595.447 436.424 C 593.251 436.975, 579.018 445.339, 575.599 448.086 C 574.995 448.572, 573.021 450.155, 571.214 451.604 C 569.407 453.053, 567.208 455.647, 566.327 457.369 C 565.446 459.091, 563.433 462.146, 561.852 464.158 C 556.873 470.495, 550.260 484.175, 547.910 493 C 546.665 497.675, 544.291 504.425, 542.635 508 C 539.881 513.943, 539.618 515.443, 539.561 525.500 C 539.505 535.541, 539.731 536.936, 542.151 541.500 C 543.609 544.250, 545.859 547.463, 547.151 548.640 C 549.561 550.835, 559.190 556, 560.873 556 C 561.390 556, 563.388 553.807, 565.314 551.126 C 567.584 547.967, 570.871 545.101, 574.658 542.981 C 587.532 535.771, 590.768 533.151, 594.101 527.242 C 595.883 524.084, 598.614 519.860, 600.170 517.856 C 601.727 515.852, 603 513.978, 603 513.692 C 603 512.544, 595.946 506, 594.709 506 C 593.979 506, 592.587 505.419, 591.615 504.708 C 590.091 503.593, 589.962 502.599, 590.679 497.469 C 591.388 492.392, 591.904 491.333, 594.207 490.230 C 597.989 488.417, 601.379 483.676, 606.527 473 C 607.721 470.525, 610.051 467.059, 611.706 465.298 C 615.295 461.476, 617.462 454.484, 616.736 449.069 C 616.100 444.326, 618.067 441, 621.509 441 C 623.228 441, 624.792 442.290, 627.048 445.570 C 629.790 449.555, 630.160 450.866, 629.943 455.820 C 629.806 458.944, 629.762 464.489, 629.847 468.142 C 629.989 474.315, 630.174 474.827, 632.472 475.404 C 633.832 475.745, 635.842 476.988, 636.939 478.165 L 638.933 480.306 640.217 477.403 C 641.062 475.491, 641.500 469.719, 641.500 460.500 C 641.500 446.948, 641.410 446.347, 638.683 441.708 C 634.498 434.588, 629.359 431.291, 621.203 430.494 C 617.516 430.134, 613.825 429.686, 613 429.500 C 612.175 429.313, 610.600 429.542, 609.500 430.010" stroke="#ac7444" fill="#ac7444" fill-opacity="0.2" fill-rule="evenodd"/><path class="svg-region-PC" d="M 515.250 467.220 C 512.443 468.575, 512.218 473.423, 514.750 478.003 L 516.500 481.167 527.026 480.514 C 536.711 479.913, 537.763 480.026, 540.184 481.930 C 541.871 483.257, 544.284 484, 546.908 484 L 551 484 551 479.934 C 551 475.319, 549.873 472.698, 546.191 468.750 C 542.899 465.221, 537.277 464.996, 532.917 468.220 C 529.918 470.437, 529.909 470.437, 524.707 468.591 C 521.843 467.574, 519.050 466.606, 518.500 466.438 C 517.950 466.271, 516.487 466.623, 515.250 467.220 M 522.271 508.796 C 521.044 511.383, 520.482 513.650, 521.021 513.833 C 521.559 514.017, 522.016 517.842, 522.035 522.333 C 522.058 527.520, 522.592 531.412, 523.500 533 C 524.367 534.516, 524.943 538.363, 524.965 542.772 C 524.999 549.860, 524.901 550.152, 521.091 554.272 C 517.346 558.324, 511.746 561, 507.016 561 C 504.047 561, 504.530 563.504, 508.500 568.704 C 510.425 571.225, 512.008 574.460, 512.017 575.894 C 512.035 578.553, 515.226 591.088, 518.917 602.993 C 519.513 604.915, 520 608.108, 520 610.090 C 520 612.259, 520.797 614.612, 522 616 C 523.342 617.547, 524.023 619.818, 524.070 622.903 C 524.160 628.770, 525.154 631.259, 527.574 631.679 C 539.217 633.699, 542.712 632.557, 546.279 625.566 C 547.501 623.171, 551.087 618.039, 554.250 614.160 C 559.771 607.388, 560.001 606.875, 560.015 601.303 C 560.024 598.112, 560.392 594.930, 560.834 594.234 C 561.577 593.063, 561.376 590.899, 559.433 579.175 C 559.034 576.765, 559.207 572.558, 559.823 569.675 C 560.432 566.829, 561.122 562.630, 561.357 560.345 C 561.777 556.258, 561.715 556.163, 557.568 554.579 C 550.832 552.007, 545.153 547.218, 542.213 541.632 C 539.818 537.081, 539.499 535.335, 539.400 526.213 L 539.289 515.927 535.894 513.436 C 534.028 512.066, 531.060 509.382, 529.301 507.473 C 527.542 505.563, 525.742 504.021, 525.301 504.046 C 524.860 504.071, 523.497 506.208, 522.271 508.796" stroke="#cda789" fill="#cda789" fill-opacity="0.2" fill-rule="evenodd"/><path class="svg-region-DB" d="M 507 434.160 C 503.410 436.109, 500.625 436.972, 498.980 436.644 C 496.886 436.227, 495.616 437.103, 491.480 441.817 C 481.054 453.699, 480.607 454, 473.396 454 C 468.602 454, 465.715 453.390, 462.217 451.639 C 459.623 450.340, 455.150 448.976, 452.278 448.608 C 447.875 448.044, 446.288 448.327, 442.171 450.413 C 438.993 452.024, 436.947 452.547, 436.311 451.911 C 434.759 450.359, 432.660 451.729, 430.500 455.703 C 425.457 464.981, 412.529 460.009, 410.502 448.011 C 410.135 445.842, 408.589 442.500, 407.066 440.583 L 404.297 437.099 400.898 440.637 C 394.446 447.356, 385.355 450.250, 377.418 448.113 C 375.185 447.511, 370.248 445.019, 366.448 442.574 C 359.795 438.293, 357.617 437.535, 359.702 440.226 C 361.219 442.183, 362.833 449.704, 363.518 458 C 363.859 462.125, 364.565 467.443, 365.088 469.819 C 365.611 472.194, 366.515 477.594, 367.096 481.819 C 368.246 490.172, 370.481 496.093, 373.959 500 C 375.182 501.375, 377.012 503.625, 378.025 505 C 379.501 507.005, 380.117 507.253, 381.133 506.250 C 381.830 505.563, 383.899 505, 385.730 505 C 387.562 505, 391.733 503.875, 395 502.500 C 404.744 498.399, 408.733 499.343, 418.785 508.129 C 422.163 511.082, 422.899 511.351, 426.746 511.040 C 427.982 510.940, 432.257 511.837, 436.246 513.033 C 440.236 514.230, 447.325 516.323, 452 517.685 C 456.675 519.047, 462.300 520.767, 464.500 521.508 C 466.700 522.248, 471.764 523.157, 475.754 523.529 C 479.744 523.900, 483.258 524.608, 483.563 525.102 C 483.868 525.596, 485.181 526, 486.480 526 C 488.305 526, 488.995 525.299, 489.519 522.915 C 490.429 518.772, 497.940 511.009, 501.079 510.968 C 502.410 510.951, 504.374 510.276, 505.441 509.468 C 508.298 507.308, 512.241 507.674, 516.384 510.486 L 520.047 512.971 522.020 509.736 C 524.698 505.343, 524.506 503.317, 521.250 501.608 C 516.135 498.924, 511.145 492.804, 510.436 488.347 C 509.830 484.535, 510.011 484.046, 512.638 482.399 C 514.212 481.413, 515.673 480.483, 515.885 480.334 C 516.097 480.185, 515.535 478.939, 514.635 477.566 C 512.084 473.673, 512.483 468.556, 515.443 467.208 C 517.411 466.311, 519.053 466.519, 523.884 468.279 L 529.882 470.463 532.901 468.232 C 534.821 466.812, 537.351 466, 539.856 466 C 543.099 466, 544.331 466.613, 546.847 469.479 C 548.527 471.392, 550.199 474.542, 550.562 476.479 C 550.925 478.415, 551.510 479.999, 551.861 479.998 C 552.213 479.996, 553.850 477.410, 555.500 474.249 C 557.150 471.089, 559.862 466.703, 561.526 464.502 C 567.189 457.013, 568.852 453.491, 567.711 451.404 C 567.139 450.357, 566.382 449.275, 566.029 449 C 565.442 448.543, 564.004 445.061, 562.650 440.815 C 562.195 439.387, 561.559 439.283, 558.478 440.134 C 555.568 440.937, 553.530 440.725, 548.253 439.069 C 544.629 437.931, 539.426 437, 536.692 437 C 532.919 437, 530.546 436.277, 526.846 434 C 520.336 429.995, 514.587 430.041, 507 434.160" stroke="#e8b1e4" fill="#e8b1e4" fill-opacity="0.2" fill-rule="evenodd"/><path class="svg-region-MB" d="M 425 512 C 425 512.550, 425.337 513, 425.750 513 C 426.814 513, 435.327 524.714, 437.791 529.569 C 438.927 531.808, 441.464 535.563, 443.428 537.914 C 445.393 540.265, 447 542.579, 447 543.055 C 447 544.458, 459.982 556.964, 464.205 559.630 C 466.340 560.977, 471.330 565.384, 475.294 569.422 C 484.855 579.161, 493.918 585, 499.477 585 C 501.769 585, 505.773 585.726, 508.376 586.612 C 510.979 587.499, 513.335 587.999, 513.611 587.722 C 513.888 587.446, 513.472 583.822, 512.688 579.670 C 511.635 574.093, 510.445 571.087, 508.131 568.166 C 506.409 565.991, 505 563.264, 505 562.106 C 505 560.917, 504.358 560, 503.526 560 C 501.707 560, 499.377 555.645, 498.065 549.791 C 497.521 547.365, 495.034 542.333, 492.538 538.611 C 489.734 534.429, 488 530.727, 488 528.922 C 488 526.696, 487.537 526, 486.059 526 C 484.991 526, 483.868 525.596, 483.563 525.102 C 483.258 524.608, 479.744 523.900, 475.754 523.529 C 471.764 523.157, 466.700 522.241, 464.500 521.493 C 462.300 520.745, 456.675 519.018, 452 517.656 C 447.325 516.295, 440.337 514.240, 436.472 513.090 C 428.798 510.808, 425 510.447, 425 512" stroke="#f9c6c6" fill="#f9c6c6" fill-opacity="0.2" fill-rule="evenodd"/><path class="svg-region-LBl" d="M 396 502.127 C 393.525 503.272, 389.250 504.507, 386.500 504.871 C 380.940 505.606, 381.065 505.276, 382.755 514.710 C 383.269 517.575, 384.288 520.642, 385.021 521.526 C 386.146 522.881, 386.053 523.628, 384.427 526.316 C 381.835 530.599, 381.748 542.959, 384.290 545.768 C 385.231 546.807, 386 548.565, 386 549.674 C 386 550.783, 386.891 552.497, 387.980 553.482 C 389.070 554.468, 390.249 556.900, 390.602 558.887 C 390.955 560.874, 392.089 563.903, 393.122 565.618 C 394.155 567.333, 395 569.689, 395 570.854 C 395 573.543, 396.960 581.957, 398.118 584.236 C 398.603 585.191, 399 586.879, 399 587.986 C 399 589.094, 399.572 590, 400.271 590 C 401.668 590, 405.028 595.911, 407.750 603.157 C 410.332 610.028, 414.244 614, 418.431 614 C 421.883 614, 426.462 616.985, 430.323 621.750 C 431.325 622.987, 432.733 624, 433.452 624 C 434.171 624, 436.341 625.930, 438.274 628.290 C 441.810 632.605, 449.157 636.842, 460.397 641.047 C 463.329 642.144, 466.534 643.932, 467.519 645.021 C 469.768 647.506, 470.834 647.505, 473.488 645.012 C 477.316 641.415, 491.881 640.124, 495.535 643.057 C 496.104 643.514, 499.029 643.779, 502.035 643.647 C 507.859 643.390, 517.907 639.175, 523.466 634.655 C 526.176 632.452, 526.327 632.013, 525.216 629.575 C 524.547 628.107, 524 624.971, 524 622.606 C 524 619.741, 523.332 617.536, 522 616 C 520.807 614.625, 520 612.259, 520 610.137 C 520 608.181, 518.829 602.455, 517.398 597.411 L 514.796 588.241 508.648 586.684 C 505.266 585.828, 500.521 584.908, 498.102 584.639 C 492.694 584.038, 481.846 576.921, 475.711 569.948 C 473.395 567.315, 467.450 561.939, 462.500 558.001 C 454.187 551.388, 447.065 544.415, 447.019 542.845 C 447.009 542.484, 445.401 540.275, 443.447 537.936 C 441.493 535.597, 439.078 531.995, 438.080 529.930 C 435.436 524.458, 426.057 512.153, 424.042 511.513 C 423.090 511.211, 419.216 508.497, 415.432 505.482 C 407.517 499.174, 403.775 498.528, 396 502.127" stroke="#d7b230" fill="#d7b230" fill-opacity="0.2" fill-rule="evenodd"/><path class="svg-region-LPl" d="M 556.293 611.614 C 554.757 613.602, 552.241 616.640, 550.702 618.364 C 549.162 620.089, 547.064 623.381, 546.039 625.679 C 543.245 631.943, 535.507 634.947, 529.897 631.945 C 528.297 631.088, 527.229 631.434, 524.213 633.788 C 517.846 638.756, 508.308 643.266, 503.750 643.463 C 501.412 643.565, 497.062 642.998, 494.082 642.204 C 489.765 641.054, 487.324 640.980, 482.082 641.841 C 473.345 643.275, 470 646.645, 470 654.016 L 470 659 475.918 659 C 483.605 659, 485 659.608, 485 662.957 C 485 664.504, 486.417 667.571, 488.250 669.993 C 500.313 685.929, 501.566 689.247, 502.423 707.532 C 503.132 722.661, 502.659 726.295, 498.323 739 C 498.041 739.825, 495.302 742.496, 492.236 744.935 C 487.136 748.992, 486.835 749.447, 488.704 750.281 C 491.037 751.322, 503.255 748.550, 517 743.861 C 521.675 742.266, 527.758 740.798, 530.518 740.598 C 534.013 740.344, 537.956 738.943, 543.518 735.979 C 547.908 733.638, 553.075 730.908, 555 729.911 C 556.925 728.915, 561.338 725.399, 564.807 722.099 C 568.276 718.799, 571.942 715.836, 572.954 715.515 C 574.194 715.121, 574.627 714.289, 574.281 712.965 C 573.545 710.153, 576.167 710.438, 581.270 713.725 C 584.798 715.997, 586.828 716.504, 593.500 716.779 C 601.345 717.101, 601.626 717.030, 608 713.073 C 611.575 710.854, 616.638 708.070, 619.250 706.886 C 621.862 705.702, 624 704.153, 624 703.444 C 624 702.735, 626.389 700.113, 629.310 697.618 C 632.587 694.819, 635.524 691.152, 636.981 688.041 C 638.279 685.268, 639.715 683, 640.171 683 C 640.627 683, 641 682.386, 641 681.635 C 641 680.884, 641.824 679.197, 642.830 677.885 C 647.106 672.314, 649.732 661.365, 650.620 645.402 C 651.179 635.359, 651.025 632.812, 649.712 630.402 C 648.843 628.806, 647.876 626.292, 647.563 624.817 C 647.247 623.320, 646.094 621.847, 644.957 621.486 C 643.835 621.130, 641.154 619.188, 638.998 617.170 C 636.843 615.151, 634.161 612.712, 633.039 611.750 C 630.915 609.927, 627 609.358, 627 610.872 C 627 612.527, 615.492 623.049, 613 623.671 C 611.625 624.015, 607.603 626.029, 604.063 628.148 C 599.957 630.605, 596.392 632, 594.217 632 C 590.226 632, 585.241 629.336, 584.426 626.767 C 584.112 625.777, 582.065 624.054, 579.879 622.938 C 577.692 621.822, 575.648 620.246, 575.337 619.436 C 575.026 618.625, 572.010 616.348, 568.636 614.376 C 565.261 612.405, 562.140 610.163, 561.700 609.396 C 560.461 607.232, 559.316 607.702, 556.293 611.614" stroke="#d2454f" fill="#d2454f" fill-opacity="0.2" fill-rule="evenodd"/><path class="svg-region-DMl" d="M 415.211 643.538 C 414.501 644.342, 412.296 645, 410.310 645 L 406.699 645 407.349 654.918 C 407.936 663.872, 407.782 665.306, 405.766 669.668 C 403.844 673.826, 403.516 676.315, 403.412 687.500 C 403.346 694.650, 402.718 702.525, 402.016 705 C 400.994 708.599, 400.976 712.502, 401.924 724.500 C 402.576 732.750, 403.063 742.689, 403.006 746.588 C 402.938 751.297, 403.339 754.030, 404.202 754.732 C 404.916 755.313, 409.281 755.949, 413.902 756.145 L 422.303 756.500 423.983 753.500 C 426.161 749.608, 428.055 749.334, 431.685 752.388 C 434.393 754.667, 435.743 754.928, 448.068 755.553 C 458.881 756.101, 462.572 755.925, 467 754.650 C 470.025 753.778, 475.300 752.628, 478.722 752.093 C 484.065 751.258, 485.829 750.387, 491.222 745.922 C 494.675 743.063, 497.787 740.224, 498.138 739.612 C 498.489 739, 499.761 734.900, 500.963 730.500 C 502.940 723.267, 503.086 721.061, 502.488 707.500 C 501.894 694.040, 501.543 691.884, 499.072 686.500 C 497.558 683.200, 493.910 677.366, 490.967 673.535 C 487.779 669.386, 485.379 665.142, 485.032 663.035 L 484.448 659.500 473.974 659.500 C 465.923 659.500, 462.806 659.104, 460.500 657.788 C 458.850 656.847, 454.685 655.393, 451.244 654.557 C 445.737 653.220, 430.978 647.477, 422.596 643.409 C 418.946 641.638, 416.855 641.674, 415.211 643.538" stroke="#68533d" fill="#68533d" fill-opacity="0.2" fill-rule="evenodd"/><path class="svg-region-PMl" d="M 343.421 676.205 C 342.315 677.467, 340.774 679.769, 339.998 681.320 C 339.222 682.871, 336.767 685.683, 334.543 687.568 C 332.320 689.454, 329.712 691.672, 328.750 692.498 C 327.403 693.654, 324.226 694, 314.960 694 C 304.643 694, 302.322 694.305, 298.739 696.133 C 292.211 699.464, 289.221 700.079, 287.573 698.430 C 285.449 696.306, 283.443 696.675, 279.785 699.861 C 275.744 703.381, 272.119 705.269, 264.028 708.069 C 258.147 710.105, 256.680 710.191, 239.559 709.516 C 223.264 708.873, 221.170 708.973, 219.673 710.470 C 217.615 712.528, 217.605 713.118, 219.550 717.782 C 221.245 721.849, 229.369 730.152, 233.743 732.288 C 235.259 733.028, 239.875 734.705, 244 736.014 C 253.383 738.992, 259.021 742.726, 262.665 748.374 C 264.224 750.792, 267.416 753.990, 269.758 755.482 C 273.581 757.917, 274.606 758.126, 279.770 757.527 C 284.779 756.945, 285.795 756.448, 287.634 753.680 C 289.654 750.638, 292.977 748.449, 299.500 745.864 C 303.308 744.355, 323.087 743.861, 328.935 745.129 C 332.585 745.921, 333.522 745.818, 334.234 744.546 C 335.469 742.339, 339.782 740.344, 345 739.565 C 354.833 738.097, 354.897 738.066, 355.565 734.506 C 356.529 729.367, 355.143 725.115, 351.034 720.608 C 347.583 716.821, 347.241 715.900, 346.664 708.822 C 346.083 701.702, 346.255 700.679, 349.033 694.743 C 351.815 688.799, 351.974 687.848, 351.264 681.421 C 350.555 674.996, 350.318 674.479, 347.967 674.205 C 346.314 674.012, 344.735 674.707, 343.421 676.205" stroke="#90cf92" fill="#90cf92" fill-opacity="0.2" fill-rule="evenodd"/><path class="svg-region-LPVl" d="M 375.909 634.250 C 374.798 635.487, 372.901 637.744, 371.694 639.264 C 369.577 641.931, 369.148 642.034, 359.500 642.176 C 351.662 642.291, 348.805 642.733, 346.285 644.221 C 344.518 645.265, 341.696 646.513, 340.017 646.995 C 337.444 647.733, 336.578 647.487, 334.527 645.436 C 332.272 643.181, 331.352 643, 322.127 643 C 316.647 643, 311.380 642.699, 310.423 642.332 C 308.925 641.757, 308.771 642.105, 309.316 644.832 C 309.838 647.442, 309.636 648, 308.166 648 C 307.185 648, 305.509 647.339, 304.441 646.532 C 303.374 645.724, 302.163 645.049, 301.750 645.032 C 301.337 645.014, 301 648.408, 301 652.573 L 301 660.145 303.635 658.073 C 306.632 655.715, 308.592 655.584, 315.110 657.306 C 320.827 658.815, 322.691 660.316, 323.515 664.069 C 325.135 671.445, 320.385 676.950, 313.618 675.537 C 306.359 674.022, 303 673.815, 303 674.882 C 303 675.483, 301.229 677.093, 299.066 678.459 C 296.003 680.392, 295.061 681.662, 294.816 684.189 C 294.581 686.601, 293.599 688.041, 291 689.786 C 287.308 692.264, 285.702 695.059, 286.609 697.424 C 287.636 700.101, 290.170 699.998, 297 697 C 303.305 694.233, 304.734 694, 315.418 694 C 324.993 694, 327.359 693.697, 329.071 692.250 C 334.376 687.768, 340.686 681.049, 342.516 677.933 C 344.705 674.205, 347.972 673.056, 349.872 675.346 C 350.530 676.139, 351.162 679.873, 351.276 683.644 C 351.455 689.568, 351.102 691.151, 348.676 695.289 C 346.010 699.839, 345.903 700.490, 346.550 708.289 C 347.136 715.364, 347.614 716.915, 350.003 719.500 C 354.415 724.273, 356.290 728.802, 355.694 733.245 C 355.405 735.401, 354.950 737.383, 354.684 737.650 C 354.417 737.916, 351.044 738.603, 347.187 739.175 C 343.330 739.747, 338.785 741.061, 337.087 742.093 C 334.322 743.775, 334.003 744.468, 334.032 748.735 C 334.049 751.356, 334.698 754.338, 335.474 755.362 C 336.778 757.084, 337.505 757.138, 345.192 756.089 C 350.045 755.427, 363.548 755.069, 377.664 755.228 C 390.954 755.377, 402.071 755.258, 402.368 754.963 C 403.345 753.991, 403.156 739.777, 401.954 723.654 C 400.923 709.837, 400.969 707.306, 402.315 703.880 C 403.511 700.836, 403.736 697.534, 403.316 689.225 C 402.819 679.377, 402.986 677.944, 405.361 671.701 C 407.771 665.366, 407.906 664.136, 407.333 653.701 L 406.719 642.500 403.160 639.500 C 400.708 637.433, 396.943 635.822, 391.051 634.319 C 380.095 631.524, 378.363 631.516, 375.909 634.250 M 384.500 673 C 384.840 673.550, 385.541 674, 386.059 674 C 386.577 674, 387 673.550, 387 673 C 387 672.450, 386.298 672, 385.441 672 C 384.584 672, 384.160 672.450, 384.500 673" stroke="#494949" fill="#494949" fill-opacity="0.2" fill-rule="evenodd"/><path class="svg-region-Fl" d="M 310.500 528.970 C 303.837 529.613, 294.101 533.409, 292.510 535.984 C 291.743 537.225, 283.645 541, 281.749 541 C 281.001 541, 276.483 542.575, 271.709 544.500 C 266.935 546.425, 261.845 548, 260.398 548 C 257.536 548, 250.897 552.425, 241.500 560.595 C 235.576 565.745, 233.401 569.169, 226.564 584.100 C 224.656 588.267, 224 591.349, 224 596.150 C 224 599.906, 223.488 603.112, 222.775 603.825 C 221.808 604.792, 221.808 605.464, 222.775 607.011 C 224.403 609.619, 224.320 612.842, 222.489 618.030 C 221.658 620.385, 221.096 622.410, 221.239 622.530 C 221.736 622.947, 231.515 621.226, 234.500 620.196 C 239.179 618.583, 246.753 617, 249.764 617.005 C 253.128 617.011, 260 623.016, 260 625.949 C 260 627.403, 260.655 628.006, 262.250 628.022 C 266.493 628.063, 272.886 631.697, 273.580 634.462 C 274.470 638.008, 276.762 639.008, 288.796 641.097 C 298.468 642.775, 300.357 643.486, 303.818 646.750 C 304.546 647.438, 306.224 648, 307.546 648 C 309.712 648, 309.887 647.686, 309.316 644.832 C 308.771 642.105, 308.925 641.757, 310.423 642.332 C 311.380 642.699, 316.647 643, 322.127 643 C 331.283 643, 332.283 643.193, 334.467 645.376 C 337.233 648.142, 340.781 647.920, 345.383 644.695 C 347.734 643.047, 350.215 642.610, 358.811 642.331 C 370.030 641.966, 372.241 641.084, 374.097 636.232 C 375.573 632.371, 379.549 631.557, 387.285 633.532 C 391.016 634.484, 394.305 635.028, 394.592 634.741 C 394.880 634.453, 393.767 633.258, 392.119 632.084 C 390.470 630.911, 387.936 627.599, 386.488 624.725 C 381.690 615.209, 380.964 614.123, 378.973 613.491 C 377.887 613.147, 376.590 612.108, 376.091 611.182 C 375.592 610.257, 372.892 606.401, 370.092 602.613 C 367.291 598.826, 365 595.197, 365 594.550 C 365 593.903, 363.650 592.081, 362 590.500 C 360.350 588.919, 359 587.250, 359 586.791 C 359 586.333, 356.562 583.480, 353.582 580.451 C 348.085 574.866, 344.516 568.447, 338.875 554 C 337.265 549.875, 335.204 544.925, 334.295 543 C 332.225 538.616, 321.343 527.950, 319.141 528.147 C 318.238 528.227, 314.350 528.598, 310.500 528.970" stroke="#5ca7a9" fill="#5ca7a9" fill-opacity="0.2" fill-rule="evenodd"/><path class="svg-region-PCl" d="M 243 618 C 242.175 618.533, 240.218 618.976, 238.651 618.985 C 237.084 618.993, 234.384 619.655, 232.651 620.457 C 230.918 621.258, 227.768 622.045, 225.651 622.207 C 222.149 622.474, 221.676 622.861, 220.418 626.500 C 219.658 628.700, 218.575 632.750, 218.012 635.500 C 217.450 638.250, 216.714 641.737, 216.378 643.250 C 215.907 645.368, 216.138 646, 217.383 646 C 218.273 646, 219 646.429, 219 646.953 C 219 647.477, 220.472 648.605, 222.271 649.458 C 225.203 650.850, 226.138 650.855, 231.319 649.505 C 238.636 647.599, 246.902 647.611, 249.441 649.532 C 251.942 651.424, 255.416 651.409, 257 649.500 C 257.685 648.675, 258.795 648, 259.467 648 C 260.140 648, 261.505 647.100, 262.500 646 C 263.589 644.796, 265.580 644, 267.500 644 C 271.892 644, 274.216 641.203, 273.816 636.397 C 273.559 633.303, 272.880 632.237, 270.160 630.654 C 268.323 629.585, 265.398 628.421, 263.660 628.068 C 261.484 627.626, 260.406 626.776, 260.197 625.338 C 259.695 621.878, 252.722 616.998, 248.309 617.015 C 246.214 617.024, 243.825 617.467, 243 618 M 304.743 657.027 C 302.875 658.176, 299 665.048, 299 667.213 C 299 669.411, 304.321 673.663, 308.001 674.407 C 317.712 676.368, 318.784 676.307, 321.446 673.645 C 324.234 670.857, 324.690 667.278, 322.910 662.171 C 322.085 659.806, 320.928 658.790, 318.160 658 C 312.129 656.280, 306.609 655.880, 304.743 657.027" stroke="#465ee0" fill="#465ee0" fill-opacity="0.2" fill-rule="evenodd"/><path class="svg-region-Ol" d="M 701.036 381.664 C 696.931 383.041, 692.273 385.094, 690.684 386.225 C 686.882 388.932, 681.466 397.500, 680.041 403.063 C 679.415 405.503, 678.077 409.750, 677.067 412.500 C 676.057 415.250, 674.483 423.800, 673.570 431.500 C 672.658 439.200, 671.243 450.675, 670.428 457 C 669.612 463.325, 668.863 473.900, 668.763 480.500 C 668.590 491.866, 668.728 492.785, 671.376 497.886 C 672.914 500.849, 675.284 504.449, 676.643 505.886 C 678.002 507.324, 679.853 509.726, 680.757 511.224 C 682.840 514.676, 689.446 517, 697.178 517 C 705.341 517, 720.706 514.191, 725.265 511.865 C 730.920 508.980, 740.855 501.172, 742.728 498.142 C 743.626 496.689, 745.607 494.150, 747.130 492.500 C 748.710 490.788, 750.534 487.062, 751.377 483.821 C 752.189 480.698, 753.449 477.098, 754.177 475.821 C 756.018 472.591, 755.707 447.741, 753.710 438.500 C 750.928 425.631, 741.709 402.491, 735.338 392.387 C 727.174 379.439, 717.077 376.283, 701.036 381.664" stroke="#aa444d" fill="#aa444d" fill-opacity="0.2" fill-rule="evenodd"/><path class="svg-region-VOC" d="M 505.441 509.468 C 504.374 510.276, 502.375 510.965, 501 511 C 495.346 511.143, 488.625 520.600, 488.549 528.518 C 488.506 533.057, 489 534.314, 492.821 539.377 C 495.338 542.712, 497.381 546.647, 497.714 548.801 C 498.692 555.133, 501.579 559.749, 505.037 560.508 C 510.078 561.615, 516.705 559.043, 521.102 554.274 C 524.898 550.155, 524.999 549.855, 524.965 542.772 C 524.943 538.363, 524.367 534.516, 523.500 533 C 522.606 531.435, 522.058 527.561, 522.035 522.644 C 522.003 515.356, 521.807 514.633, 519.333 512.644 C 513.214 507.725, 509.015 506.765, 505.441 509.468" stroke="#ff8f93" fill="#ff8f93" fill-opacity="0.2" fill-rule="evenodd"/><path class="svg-region-OABl" d="M 617.718 442.759 C 616.557 444.042, 616.280 445.666, 616.694 448.755 C 617.463 454.487, 615.358 461.417, 611.669 465.298 C 609.995 467.059, 606.658 472.325, 604.253 476.999 C 599.748 485.756, 596.547 490, 594.448 490 C 592.339 490, 591.212 492.344, 590.481 498.253 L 589.769 504.005 593.146 505.416 C 595.003 506.193, 597.976 508.216, 599.752 509.914 C 604.466 514.419, 605.711 514.133, 610.265 507.500 C 611.776 505.300, 614.359 501.746, 616.006 499.601 C 617.653 497.457, 619 494.908, 619 493.937 C 619 492.965, 621.463 488.920, 624.473 484.946 L 629.947 477.722 629.875 463.213 C 629.835 455.233, 629.392 448.208, 628.890 447.602 C 628.389 446.996, 627.050 445.262, 625.917 443.750 C 623.545 440.586, 620.065 440.166, 617.718 442.759" stroke="#81244d" fill="#81244d" fill-opacity="0.2" fill-rule="evenodd"/><path class="svg-region-SOTl" d="M 520.898 480.916 C 511.352 481.650, 509.574 482.932, 510.454 488.452 C 511.158 492.864, 515.043 497.642, 521.071 501.509 C 523.035 502.769, 527.532 506.320, 531.064 509.400 C 534.596 512.480, 537.970 515, 538.562 515 C 540.565 515, 550 490.461, 550 485.253 C 550 484.466, 548.570 484, 546.155 484 C 543.580 484, 541.712 483.339, 540.500 482 C 538.558 479.854, 536.321 479.730, 520.898 480.916" stroke="#995b45" fill="#995b45" fill-opacity="0.2" fill-rule="evenodd"/><path class="svg-region-LBPCl" d="M 397.328 593.342 C 395.584 595.113, 393.599 597.786, 392.918 599.281 C 392.138 600.993, 390.895 602, 389.562 602 C 388.398 602, 386.445 602.701, 385.223 603.557 C 383.406 604.829, 383 606.072, 383 610.366 C 383 613.436, 383.610 616.424, 384.468 617.559 C 385.276 618.626, 385.951 620.804, 385.968 622.397 C 386.009 626.130, 391.813 633.288, 396.201 635.017 C 399.410 636.281, 401.793 638.123, 406.212 642.750 C 408.684 645.339, 413.152 645.705, 415.357 643.500 C 417.082 641.775, 419.275 641.588, 421.764 642.952 C 424.922 644.684, 442.428 652.129, 446.500 653.473 C 448.700 654.199, 452.285 655.103, 454.466 655.482 C 456.648 655.861, 459.642 657.033, 461.121 658.086 C 462.599 659.139, 465.148 660, 466.784 660 C 469.716 660, 469.766 659.910, 470.208 653.804 C 470.619 648.115, 470.445 647.425, 468.078 645.363 C 466.660 644.128, 463.700 642.368, 461.500 641.452 C 450.011 636.670, 447.188 635.349, 443.785 633.165 C 441.742 631.854, 438.906 629.255, 437.484 627.390 C 436.062 625.526, 434.272 624, 433.506 624 C 432.740 624, 431.493 623.115, 430.736 622.033 C 427.969 618.082, 421.780 614, 418.559 614 C 414.991 614, 409.735 609.295, 408.504 605 C 407.464 601.370, 401.833 589.989, 401.113 590.061 C 400.776 590.095, 399.073 591.571, 397.328 593.342" stroke="#daffff" fill="#daffff" fill-opacity="0.2" fill-rule="evenodd"/><path class="svg-region-PNl" d="M 274 638.819 C 274 641.399, 270.866 644, 267.759 644 C 266.337 644, 262.783 645.575, 259.860 647.500 C 253.818 651.479, 253.544 651.532, 249.636 649.494 C 245.974 647.584, 238.678 647.588, 231.319 649.505 C 226.138 650.855, 225.203 650.850, 222.271 649.458 C 220.472 648.605, 219 647.477, 219 646.953 C 219 646.429, 218.362 646, 217.583 646 C 216.686 646, 215.743 647.928, 215.015 651.250 C 213.538 657.984, 211.032 680.998, 211.067 687.500 C 211.094 692.611, 214.586 706.917, 216.675 710.479 C 217.799 712.395, 217.900 712.400, 219.842 710.643 C 221.690 708.971, 223.267 708.884, 239.768 709.545 C 256.622 710.221, 258.062 710.134, 263.986 708.084 C 271.937 705.333, 275.600 703.447, 279.978 699.854 C 281.891 698.284, 284.020 697, 284.709 697 C 285.398 697, 286.228 695.987, 286.554 694.750 C 286.880 693.513, 288.883 691.288, 291.006 689.808 C 293.953 687.752, 294.940 686.334, 295.182 683.808 C 295.436 681.167, 296.244 680.102, 299.193 678.523 C 304.060 675.917, 304.746 673.170, 301.230 670.366 C 298.686 668.338, 298.598 668.002, 299.762 664.783 C 300.443 662.899, 301 657.441, 301 652.654 C 301 642.471, 301.496 642.914, 287.868 640.907 C 283.266 640.228, 278.262 639.061, 276.750 638.311 C 274.244 637.070, 274 637.115, 274 638.819" stroke="#bbc0d1" fill="#bbc0d1" fill-opacity="0.2" fill-rule="evenodd"/><path class="svg-region-OVl" d="M 573.362 423.765 C 572.737 424.169, 571.477 426.300, 570.564 428.500 C 569.650 430.700, 567.381 434.075, 565.522 436 L 562.142 439.500 563.821 444.056 C 564.744 446.562, 566.257 449.656, 567.182 450.932 C 568.845 453.224, 568.893 453.230, 571.317 451.376 C 578.713 445.717, 592.289 437.372, 596.162 436.103 C 599.187 435.112, 601 433.388, 601 431.501 C 601 431.317, 598.638 430.661, 595.750 430.044 C 592.748 429.402, 588.919 427.653, 586.809 425.961 C 583.989 423.699, 582.100 423.004, 578.809 423.015 C 576.439 423.024, 573.988 423.361, 573.362 423.765" stroke="#593939" fill="#593939" fill-opacity="0.2" fill-rule="evenodd"/>
    </svg>