<svg xmlns="http://www.w3.org/2000/svg" width="1078" height="1151" viewBox="0 0 1078 1151" version="1.1">
    <path class="svg-region-V" d="M 514.368 208.213 C 514.101 208.646, 512.356 209, 510.490 209 C 505.946 209, 489.498 214.269, 478.984 219.093 C 474.300 221.242, 469.800 223, 468.984 223.001 C 463.376 223.004, 441.631 237.706, 429.627 249.610 C 422.191 256.985, 417 263.021, 417 264.294 C 417 265.106, 415.878 266.505, 414.508 267.403 C 413.137 268.301, 410.922 271.194, 409.586 273.831 C 408.249 276.468, 406.434 279.225, 405.552 279.957 C 404.669 280.689, 401.866 285.161, 399.322 289.894 C 396.778 294.627, 393.545 300.056, 392.139 301.958 C 390.732 303.860, 384.158 316.236, 377.529 329.462 C 370.901 342.687, 364.282 355.081, 362.822 357.004 C 358.777 362.329, 355.788 370.687, 354.955 379 C 354.542 383.125, 353.633 388.632, 352.936 391.238 C 351.823 395.400, 351.871 396.200, 353.334 397.817 C 354.250 398.829, 355 400.932, 355 402.491 C 355 404.049, 355.654 407.614, 356.453 410.412 C 357.253 413.210, 358.437 418.301, 359.085 421.724 C 359.932 426.201, 360.773 428.111, 362.080 428.525 C 363.080 428.843, 364.193 430.092, 364.553 431.301 C 365.683 435.088, 371.408 442.844, 373.500 443.421 C 374.600 443.724, 381.085 443.979, 387.912 443.986 C 399.415 443.999, 400.642 443.814, 404.662 441.458 C 407.048 440.060, 409 438.486, 409 437.961 C 409 437.435, 410.350 434.148, 412 430.656 C 413.650 427.164, 415 423.599, 415 422.735 C 415 420.691, 420.807 408.674, 424.381 403.322 C 425.916 401.023, 427.430 397.198, 427.747 394.822 C 428.347 390.317, 432.717 381.782, 438.469 373.881 C 442.955 367.720, 449.837 354.388, 450.582 350.416 C 451.252 346.842, 455.872 341.483, 461.060 338.262 C 462.952 337.087, 466.300 334.262, 468.500 331.983 C 474.088 326.196, 487.589 317.545, 493.193 316.160 C 500.278 314.409, 519.116 314.687, 525.841 316.642 C 534.838 319.258, 545.226 327.339, 550.081 335.500 C 552.572 339.686, 554.351 342.085, 557.209 345.109 C 558.148 346.103, 559.823 348.693, 560.931 350.864 C 563.716 356.325, 567.417 359, 572.185 359 C 579.554 359, 584 354.998, 584 348.366 C 584 345.655, 590.022 326.673, 592.673 321.030 C 593.569 319.122, 596.521 315.214, 599.233 312.347 C 602.485 308.908, 605.145 304.722, 607.046 300.050 C 608.632 296.155, 611.267 291.536, 612.903 289.785 C 615.522 286.983, 616.636 286.554, 622.231 286.198 C 627.193 285.882, 628.875 286.144, 629.914 287.397 C 631.570 289.391, 635 289.501, 635 287.559 C 635 286.766, 634.521 285.822, 633.935 285.460 C 633.349 285.098, 632.984 283.609, 633.123 282.151 C 633.868 274.341, 622.716 255, 617.468 255 C 616.643 255, 611.171 250.220, 605.307 244.377 C 599.443 238.535, 593.488 233.245, 592.073 232.623 C 590.658 232, 587.475 230.300, 585 228.844 C 582.525 227.387, 579.095 225.904, 577.378 225.547 C 575.660 225.189, 570.710 222.656, 566.378 219.917 C 562.045 217.178, 556.475 214.317, 554 213.560 C 551.525 212.802, 548.034 211.431, 546.242 210.514 C 544.450 209.596, 541.525 208.967, 539.742 209.116 C 537.959 209.265, 534.925 209.090, 533 208.726 C 527.508 207.689, 514.906 207.342, 514.368 208.213" stroke="#dd8a8a" fill="#dd8a8a" fill-opacity="0.2" fill-rule="evenodd"/><path class="svg-region-SV" d="M 492.500 316.403 C 486.900 318.091, 481 320.875, 481 321.829 C 481 322.271, 479.267 323.606, 477.148 324.797 C 475.030 325.987, 471.542 328.788, 469.398 331.020 C 467.254 333.252, 463.166 336.641, 460.314 338.550 C 454.113 342.701, 451.368 345.980, 450.478 350.297 C 449.617 354.472, 442.645 368.150, 438.422 373.948 C 433.112 381.238, 428 390.861, 428 393.567 C 428 396.551, 425.838 402.007, 423.849 404.040 C 421.939 405.992, 415 420.767, 415 422.881 C 415 423.802, 414.395 425.443, 413.656 426.527 C 412.917 427.612, 411.838 429.850, 411.259 431.500 C 410.679 433.150, 409.885 435.288, 409.495 436.250 C 408.871 437.790, 409.443 438, 414.266 438 C 417.678 438, 421.557 437.199, 424.546 435.877 C 428.296 434.218, 430.565 433.872, 434.923 434.296 C 445.849 435.358, 451.106 437.039, 454.681 440.615 L 458.067 444 469.133 444 L 480.200 444 483.350 447.386 C 488.466 452.886, 494.987 460.370, 496.289 462.237 C 496.955 463.192, 498.898 464.247, 500.606 464.583 C 503.422 465.135, 503.765 464.923, 504.289 462.307 C 504.725 460.123, 505.994 458.858, 509.506 457.104 C 514.135 454.792, 521 448.762, 521 447.009 C 521 446.500, 522.940 444.947, 525.311 443.558 C 527.682 442.169, 530.655 439.932, 531.917 438.588 C 533.180 437.244, 534.784 436.364, 535.483 436.632 C 536.218 436.914, 536.969 436.146, 537.264 434.810 C 537.545 433.539, 538.365 429.704, 539.086 426.286 C 540.263 420.704, 540.686 420.008, 543.239 419.448 C 547.512 418.509, 550.406 420.980, 552.379 427.253 C 554.596 434.304, 556.562 437, 559.485 437 C 562.677 437, 565 439.523, 565 442.990 C 565 449.096, 565.894 449.366, 570.910 444.777 C 573.481 442.425, 576.893 439.569, 578.492 438.430 L 581.398 436.360 579.072 428.524 C 577.793 424.214, 576.797 418.419, 576.859 415.645 C 576.928 412.610, 576.481 410.298, 575.738 409.838 C 574.896 409.318, 574.593 406.746, 574.786 401.740 C 574.981 396.658, 574.564 393.200, 573.427 390.480 C 572.071 387.234, 571.975 385.685, 572.875 381.528 C 573.473 378.762, 574.642 373.350, 575.472 369.500 C 576.303 365.650, 577.236 361.595, 577.546 360.488 C 578.059 358.653, 577.714 358.508, 573.595 358.836 C 568.134 359.270, 563.924 356.696, 561.050 351.166 C 559.248 347.700, 557.483 345.288, 552.251 339.142 C 551.014 337.689, 550.002 335.918, 550.001 335.206 C 550 333.482, 540.062 323.695, 535.188 320.618 C 528.468 316.377, 521.784 314.991, 508.568 315.098 C 501.931 315.152, 494.700 315.739, 492.500 316.403" stroke="#c666b5" fill="#c666b5" fill-opacity="0.2" fill-rule="evenodd"/><path class="svg-region-SF" d="M 613.686 288.971 C 611.519 290.873, 609.137 294.742, 607.065 299.721 C 605.135 304.357, 602.390 308.914, 600.271 311 C 598.314 312.925, 595.600 316.262, 594.239 318.416 C 591.380 322.941, 584 344.634, 584 348.512 C 584 351.543, 582.311 355.144, 580.344 356.305 C 578.199 357.572, 576.574 362.552, 574.037 375.636 C 571.688 387.748, 571.687 387.780, 573.636 391.136 C 574.709 392.986, 577.354 395.400, 579.512 396.500 C 581.671 397.600, 584.199 399.420, 585.129 400.545 C 586.060 401.669, 588.440 403.460, 590.417 404.525 C 592.394 405.590, 594.258 407.238, 594.559 408.187 C 594.860 409.136, 596.320 410.944, 597.803 412.206 C 599.287 413.468, 600.956 415.836, 601.513 417.469 C 602.699 420.945, 608.225 425, 611.776 425 C 613.140 425, 616.744 423.577, 619.785 421.837 C 628.445 416.882, 632.273 416.573, 638.867 420.294 C 644.079 423.236, 644.405 423.297, 645.426 421.524 C 646.017 420.498, 647.880 418.048, 649.566 416.079 C 657.189 407.179, 658.318 403.930, 655.500 399 C 652.950 394.539, 653.639 391.201, 658 386.883 C 660.200 384.705, 662.016 382.828, 662.035 382.711 C 662.054 382.595, 662.720 378.900, 663.515 374.500 C 665.376 364.203, 665.374 353.853, 663.510 341.384 C 660.820 323.395, 653.880 304.722, 648.129 300 C 646.455 298.625, 645.066 296.975, 645.042 296.334 C 644.961 294.088, 636.792 288.543, 633.997 288.836 C 632.513 288.992, 630.770 288.427, 630.048 287.558 C 629.147 286.473, 626.982 286, 622.912 286 C 617.859 286, 616.612 286.401, 613.686 288.971" stroke="#8c6b55" fill="#8c6b55" fill-opacity="0.2" fill-rule="evenodd"/><path class="svg-region-PF" d="M 575 397.958 C 575 400.044, 574.716 403.170, 574.369 404.905 C 573.814 407.680, 574.240 408.538, 577.911 412.030 C 581.450 415.397, 582.739 416, 586.393 416 C 589.860 416, 596.383 414.561, 597.780 413.488 C 598.736 412.754, 592.220 404.920, 589.831 403.930 C 588.237 403.270, 586.141 401.778, 585.175 400.615 C 584.208 399.452, 581.523 397.525, 579.208 396.333 L 575 394.166 575 397.958" stroke="#faaaaa" fill="#faaaaa" fill-opacity="0.2" fill-rule="evenodd"/><path class="svg-region-AAB" d="M 645 447.891 C 642.590 448.558, 642.482 448.945, 642 458.687 C 641.447 469.870, 639.945 472.987, 635.095 473.015 C 630.884 473.040, 630.010 474.274, 629.151 481.406 C 628.322 488.299, 627.245 489.937, 623.500 490.007 C 620.486 490.063, 613.588 493.461, 609.995 496.660 C 607.118 499.221, 597.005 511.752, 594.500 515.860 C 592.656 518.884, 582.571 531.911, 578.500 536.527 C 577.400 537.774, 575.552 539.895, 574.393 541.240 C 573.234 542.586, 571.395 544.319, 570.305 545.093 C 566.587 547.733, 557.647 561.478, 555.731 567.500 C 552.696 577.037, 553.703 587.700, 558.583 597.694 C 560.680 601.987, 563.457 606.927, 564.756 608.672 C 566.998 611.682, 567.381 611.817, 572.309 611.318 C 575.578 610.988, 579.891 611.417, 583.961 612.479 C 587.895 613.505, 592.001 613.930, 594.461 613.567 C 597.979 613.047, 599.135 613.423, 603.426 616.485 C 607.032 619.058, 609.394 620, 612.242 620 C 619.194 620, 619.362 619.790, 628.496 599.657 C 629.954 596.443, 630.931 593.598, 630.667 593.334 C 630.059 592.725, 640.715 570.400, 643.326 566.813 C 644.745 564.865, 645.128 563.178, 644.722 560.673 C 644.413 558.773, 644.596 555.482, 645.126 553.359 C 645.657 551.237, 646.254 547.475, 646.452 545 C 646.651 542.525, 648.293 536.675, 650.102 532 C 653.384 523.517, 653.391 523.462, 653.512 504.500 C 653.591 492.013, 654.207 482, 655.307 475.291 C 656.499 468.025, 656.696 464.330, 655.991 462.475 C 655.446 461.042, 655 458.814, 655 457.525 C 655 454.807, 650.157 446.952, 648.572 447.100 C 647.983 447.155, 646.375 447.511, 645 447.891" stroke="#7f3c1a" fill="#7f3c1a" fill-opacity="0.2" fill-rule="evenodd"/><path class="svg-region-APB" d="M 629.177 417.729 C 627.350 417.954, 623.579 419.480, 620.797 421.120 C 618.015 422.760, 614.452 424.360, 612.879 424.674 C 611.306 424.989, 608.443 426.732, 606.518 428.548 C 601.824 432.975, 592.900 436.391, 586.036 436.388 C 581.995 436.387, 579.920 436.922, 578.071 438.443 C 565.782 448.553, 552.826 464.218, 550.930 471.260 C 550.319 473.530, 549.969 479.767, 550.153 485.120 C 550.455 493.912, 550.281 495.077, 548.360 497.176 C 542.716 503.344, 540.840 511.992, 543.445 519.835 C 544.671 523.525, 547.320 527.303, 553.172 533.703 C 557.595 538.542, 562.110 543.962, 563.206 545.750 C 564.301 547.538, 565.491 548.992, 565.849 548.982 C 566.833 548.956, 576.157 539.835, 579 536.117 C 581.815 532.436, 584.058 529.724, 587.494 525.846 C 588.787 524.386, 591.106 521.236, 592.648 518.846 C 594.189 516.455, 598.098 511.212, 601.335 507.194 C 604.572 503.175, 607.058 499.765, 606.860 499.616 C 606.662 499.467, 605.038 498.763, 603.250 498.051 C 601.308 497.278, 600 496.050, 600 495.001 C 600 491.422, 602.965 486.339, 607.418 482.287 C 610.525 479.460, 612 477.313, 612 475.619 C 612 474.163, 613.683 471.115, 616.034 468.311 C 618.253 465.665, 621.412 461.901, 623.053 459.946 C 624.694 457.992, 626.729 455.404, 627.575 454.196 C 628.421 452.988, 630.100 451.997, 631.307 451.993 C 632.513 451.990, 634.850 451.093, 636.500 450 C 638.289 448.815, 641.192 448.011, 643.691 448.007 C 645.996 448.003, 648.162 447.547, 648.504 446.994 C 648.846 446.440, 648.237 443.403, 647.151 440.244 C 646.065 437.085, 644.883 431.939, 644.524 428.809 C 643.877 423.170, 643.821 423.090, 638.451 420.059 C 635.469 418.377, 632.911 417.072, 632.765 417.160 C 632.619 417.248, 631.005 417.504, 629.177 417.729" stroke="#ac7444" fill="#ac7444" fill-opacity="0.2" fill-rule="evenodd"/><path class="svg-region-PC" d="M 541.867 419.667 C 540.715 419.973, 539.708 422.607, 538.451 428.594 C 537.227 434.428, 536.281 436.938, 535.429 436.611 C 534.746 436.349, 533.406 436.999, 532.449 438.056 C 531.493 439.113, 528.638 441.319, 526.105 442.959 C 523.572 444.598, 520.464 447.479, 519.197 449.359 C 517.867 451.333, 514.354 454.132, 510.880 455.983 C 507.571 457.747, 504.609 459.854, 504.298 460.667 C 503.986 461.479, 504.261 465.358, 504.910 469.287 C 506.147 476.776, 508.006 480.063, 515.059 487.234 C 517.431 489.645, 518.958 492.302, 519.370 494.734 C 519.720 496.805, 520.280 499.952, 520.614 501.727 C 520.947 503.502, 522.746 506.571, 524.610 508.548 C 527.988 512.130, 529.192 517.145, 527 518.500 C 526.450 518.840, 526 521.244, 526 523.843 C 526 528.033, 526.340 528.770, 529 530.341 C 531.617 531.887, 532 532.680, 532 536.554 C 532 540.224, 531.393 541.666, 528.500 544.868 C 526.575 546.999, 524.994 549.138, 524.986 549.621 C 524.963 551.067, 517.405 559, 516.051 559 C 514.291 559, 515.234 565.993, 518.008 573.500 C 520.669 580.702, 522.711 591.134, 523.978 604 C 524.967 614.039, 527.009 622.121, 530.077 628.146 C 533.216 634.309, 534.420 635, 542.015 635 C 548.470 635, 548.987 634.831, 550.530 632.219 C 551.434 630.689, 553.423 628.720, 554.952 627.842 C 556.857 626.749, 557.942 625.122, 558.402 622.670 C 558.865 620.203, 560.337 618.011, 563.147 615.606 L 567.221 612.119 565.287 609.310 C 564.224 607.764, 561.466 602.757, 559.158 598.182 C 555.827 591.578, 554.838 588.385, 554.358 582.682 C 553.547 573.057, 555.807 564.312, 561.038 556.841 C 563.217 553.729, 565 550.327, 565 549.281 C 565 547.359, 559.914 540.690, 551.401 531.448 C 545.400 524.934, 542.968 520.091, 542.262 513.247 C 541.780 508.576, 541.271 507.489, 538.945 506.153 C 537.433 505.286, 534.294 501.770, 531.968 498.341 C 529.314 494.427, 526.684 491.737, 524.905 491.117 C 521.570 489.954, 520.482 486.788, 521.739 481.906 C 522.542 478.791, 522.995 478.457, 527.058 478 C 530.719 477.588, 531.556 477.104, 531.820 475.250 C 532.060 473.555, 532.801 473, 534.821 473 C 536.988 473, 537.972 473.883, 539.940 477.593 C 542.074 481.616, 547.457 487, 549.344 487 C 549.705 487, 550 484.155, 550 480.678 C 550 471.637, 552.198 466.321, 559.635 457.376 C 565.230 450.646, 566.074 449.121, 565.578 446.641 C 565.260 445.051, 565 442.938, 565 441.946 C 565 439.411, 562.296 437, 559.452 437 C 556.547 437, 554.542 434.188, 552.469 427.208 C 550.452 420.417, 547.347 418.208, 541.867 419.667" stroke="#cda789" fill="#cda789" fill-opacity="0.2" fill-rule="evenodd"/><path class="svg-region-DB" d="M 425.322 435.265 C 423.574 435.944, 421.811 436.837, 421.405 437.250 C 420.999 437.663, 417.817 438, 414.333 438 C 410.850 438, 408 438.367, 408 438.816 C 408 439.265, 406.191 440.648, 403.980 441.891 C 400.244 443.991, 398.972 444.128, 385.967 443.825 C 373.829 443.543, 372.060 443.699, 372.622 445 C 374.630 449.649, 375.917 453.753, 375.956 455.628 C 375.980 456.798, 376.675 459.371, 377.500 461.346 C 378.325 463.320, 379 465.895, 379 467.067 C 379 468.239, 379.626 470.616, 380.391 472.349 C 381.157 474.082, 382.330 477.750, 382.998 480.500 C 383.667 483.250, 384.421 486.288, 384.674 487.250 C 384.928 488.212, 385.769 489, 386.544 489 C 387.320 489, 388.656 490.072, 389.514 491.381 C 390.372 492.691, 393.870 495.728, 397.287 498.131 L 403.500 502.500 413.500 502.792 C 419 502.952, 424.400 503.506, 425.500 504.023 C 426.600 504.540, 436.577 505.084, 447.672 505.231 C 466.579 505.483, 467.990 505.632, 470.172 507.607 C 473.074 510.233, 478.708 513, 481.154 513 C 482.169 513, 483 513.450, 483 514 C 483 514.550, 484.107 515, 485.461 515 C 488.377 515, 491.983 518.529, 492.041 521.439 C 492.090 523.948, 497.453 530.456, 498.790 529.630 C 499.318 529.304, 499.946 526.666, 500.187 523.768 C 500.612 518.658, 505.825 506.220, 508.458 504.035 C 509.246 503.381, 510.824 503.376, 513.071 504.020 C 514.950 504.559, 517.560 505, 518.871 505 C 521.070 505, 521.207 504.708, 520.637 501.250 C 519.258 492.896, 517.767 489.803, 512.428 484.214 C 507.435 478.987, 505.021 474.309, 505.006 469.832 C 504.995 466.810, 503.816 465, 501.856 465 C 499.829 465, 490.571 456.168, 485.553 449.447 C 483.932 447.276, 482.132 445.169, 481.553 444.765 C 480.974 444.361, 475.452 444.024, 469.283 444.015 L 458.067 444 454.681 440.615 C 452.294 438.227, 449.705 436.874, 445.898 436.025 C 437.736 434.203, 428.894 433.877, 425.322 435.265" stroke="#e8b1e4" fill="#e8b1e4" fill-opacity="0.2" fill-rule="evenodd"/><path class="svg-region-MB" d="M 385.581 493.750 C 386.418 499.402, 388.480 505.557, 390.641 508.855 C 391.501 510.168, 392.308 513.520, 392.433 516.303 C 392.609 520.231, 393.145 521.684, 394.830 522.803 C 396.023 523.596, 397 524.834, 397 525.555 C 397 528.413, 400.992 528.179, 405.215 525.073 C 407.898 523.100, 410.581 522, 412.711 522 C 414.535 522, 416.857 521.482, 417.872 520.848 C 419.378 519.907, 420.982 520.307, 426.618 523.028 C 433.895 526.540, 440.556 533.198, 441.599 538 C 442.946 544.202, 445.368 550.703, 447.345 553.426 C 448.530 555.058, 451.075 559.162, 453 562.546 C 455.244 566.492, 458.744 570.562, 462.752 573.888 C 466.190 576.741, 469.686 580.117, 470.520 581.390 C 471.354 582.663, 473.605 584.549, 475.521 585.581 C 477.437 586.613, 480.242 589.030, 481.753 590.952 C 488.135 599.071, 500.593 609.951, 505.404 611.608 C 507.657 612.384, 511.300 613.848, 513.500 614.862 C 523.587 619.508, 527 620.942, 527 620.536 C 527 620.295, 526.325 617.506, 525.500 614.339 C 524.675 611.171, 523.996 606.312, 523.991 603.540 C 523.979 597.160, 520.715 580.887, 517.926 573.305 C 516.752 570.112, 515.568 565.587, 515.295 563.250 C 514.914 559.984, 514.376 559, 512.974 559 C 511.937 559, 508.276 555.654, 504.494 551.250 C 495.582 540.871, 493.156 534.987, 496.436 531.707 C 497.684 530.459, 497.493 529.828, 494.977 526.885 C 493.384 525.023, 492.063 522.572, 492.041 521.439 C 491.983 518.529, 488.377 515, 485.461 515 C 484.107 515, 483 514.550, 483 514 C 483 513.450, 482.114 513, 481.030 513 C 478.880 513, 472.589 509.766, 469.648 507.149 C 468.117 505.786, 464.217 505.376, 447.148 504.785 C 410.937 503.532, 405.201 502.912, 399.653 499.651 C 396.986 498.084, 393.102 495.046, 391.020 492.901 C 385.889 487.614, 384.700 487.799, 385.581 493.750" stroke="#f9c6c6" fill="#f9c6c6" fill-opacity="0.2" fill-rule="evenodd"/><path class="svg-region-LBl" d="M 417.500 521 C 417.160 521.550, 415.169 522, 413.076 522 C 410.898 522, 408.250 522.792, 406.885 523.851 C 401.064 528.368, 397.685 528.726, 396.692 524.931 C 395.967 522.157, 394.124 522.553, 392.882 525.750 C 390.951 530.718, 392.563 538.774, 397.442 548.539 C 401.322 556.304, 402.043 558.706, 402.405 565.062 C 402.861 573.084, 404.488 584.363, 405.402 585.842 C 405.713 586.344, 406.137 592.202, 406.346 598.860 C 406.755 611.901, 407.327 613.474, 412.039 614.509 C 413.635 614.859, 418.891 617.362, 423.720 620.071 C 428.549 622.779, 433.084 624.996, 433.797 624.998 C 434.511 624.999, 437.149 627.025, 439.659 629.500 C 442.170 631.975, 444.909 634, 445.746 634 C 447.141 634, 462.770 641.369, 467.521 644.267 C 476.374 649.668, 478.285 653.017, 475.349 657.987 C 473.679 660.813, 473.696 660.934, 476.048 662.838 C 478.458 664.790, 478.462 664.789, 481.454 662.272 C 484.174 659.983, 485.023 659.806, 490.737 660.340 C 494.196 660.663, 499.383 660.507, 502.263 659.992 C 505.143 659.478, 510.340 658.847, 513.812 658.590 C 527.359 657.586, 539.479 651.449, 545.897 642.344 C 550.583 635.696, 550.220 635, 542.071 635 C 534.062 635, 533.393 634.546, 529.409 626.403 C 526.897 621.269, 526.113 620.545, 520.083 617.790 C 510.186 613.269, 509.790 613.102, 505.778 611.748 C 502.346 610.589, 485.234 596.510, 485.071 594.711 C 484.966 593.543, 477.309 586, 476.229 586 C 475.718 586, 471.923 582.737, 467.796 578.750 C 463.669 574.763, 459.214 570.573, 457.896 569.440 C 455.818 567.654, 450.430 559.066, 444.831 548.615 C 443.913 546.902, 442.865 543.410, 442.502 540.856 C 442.018 537.457, 440.724 534.870, 437.671 531.202 C 435.377 528.446, 432.825 525.936, 432 525.624 C 431.175 525.313, 429.825 524.671, 429 524.198 C 421.860 520.102, 418.613 519.199, 417.500 521" stroke="#d7b230" fill="#d7b230" fill-opacity="0.2" fill-rule="evenodd"/><path class="svg-region-LPl" d="M 631.500 603.164 C 627.953 605.121, 623.870 609.418, 622.528 612.608 C 619.028 620.928, 612.018 622.356, 603.769 616.429 C 599.442 613.321, 598.302 612.942, 594.970 613.505 C 592.646 613.898, 588.724 613.532, 584.990 612.576 C 581.607 611.709, 577.057 611, 574.879 611 C 567.487 611, 559.383 616.885, 558.098 623.185 C 557.642 625.423, 556.541 626.924, 554.708 627.806 C 552.033 629.093, 549 633.593, 549 636.274 C 549 638.447, 542.820 646.567, 538.636 649.892 C 536.538 651.559, 532.275 653.892, 529.161 655.077 C 521.964 657.815, 504.039 660.315, 492.885 660.137 C 485.481 660.019, 483.890 660.299, 481.561 662.131 C 476.732 665.929, 476.564 668.328, 480.694 674.461 C 485.484 681.574, 496.671 688.786, 503.177 688.956 C 505.512 689.017, 509 693.746, 509 696.851 C 509 698.271, 509.754 701.407, 510.676 703.821 C 512.112 707.582, 512.156 708.514, 510.986 710.354 C 510.235 711.534, 508.831 714.075, 507.866 716 C 506.901 717.925, 504.961 720.807, 503.556 722.406 C 502.150 724.004, 500.955 725.579, 500.900 725.906 C 500.844 726.232, 500.682 729.230, 500.538 732.566 C 500.394 735.902, 499.724 740.306, 499.048 742.354 C 498.009 745.501, 498.065 746.451, 499.410 748.503 C 500.284 749.838, 501 752.295, 501 753.965 C 501 756.641, 501.340 757, 503.876 757 C 505.457 757, 509.231 755.903, 512.263 754.562 C 515.295 753.222, 520.638 751.849, 524.137 751.512 C 546.408 749.366, 553.515 745.987, 557.292 735.750 C 557.647 734.788, 558.632 734, 559.482 734 C 561.244 734, 564.571 732.272, 567.500 729.837 C 571.458 726.546, 579.366 723, 582.748 723 C 584.645 723, 587.719 722.278, 589.579 721.395 C 592.286 720.111, 593.593 720.011, 596.130 720.895 C 597.872 721.503, 603.181 722, 607.927 722 C 616.049 722, 617.023 721.761, 624.528 717.925 C 628.912 715.684, 633.343 713.097, 634.373 712.175 C 636.557 710.222, 644 699.027, 644 697.695 C 644 697.196, 645.282 695.148, 646.850 693.144 C 652.454 685.978, 655.075 679.276, 654.891 672.583 C 654.710 666.010, 655.466 662.397, 657.525 660 C 660.478 656.560, 661.881 634.043, 659.496 628.337 C 656.604 621.415, 645.677 609, 642.477 609 C 642.018 609, 640.199 607.425, 638.436 605.500 C 634.941 601.685, 634.470 601.526, 631.500 603.164" stroke="#d2454f" fill="#d2454f" fill-opacity="0.2" fill-rule="evenodd"/><path class="svg-region-DMl" d="M 399.422 633.562 C 399.065 635.465, 398.374 637.269, 397.887 637.570 C 395.195 639.234, 398.569 660.058, 402.299 664.794 C 402.859 665.505, 403.664 672.480, 404.088 680.294 C 404.512 688.107, 405.341 695.767, 405.929 697.315 C 407.496 701.434, 407.254 704.848, 404.924 711.477 C 403.096 716.678, 402.995 717.910, 404.080 721.786 C 405.021 725.147, 405.035 726.360, 404.138 726.915 C 401.688 728.429, 399.862 740.179, 401.883 741.428 C 402.369 741.728, 403.078 744.469, 403.459 747.519 C 404.266 753.978, 406.576 756.706, 411.925 757.517 C 413.891 757.816, 416.850 758.467, 418.500 758.966 C 420.150 759.464, 423.750 760.181, 426.500 760.558 C 429.250 760.936, 432.175 761.807, 433 762.495 C 433.825 763.183, 438.491 764.056, 443.370 764.435 C 451.631 765.076, 452.400 764.973, 454.577 762.928 C 456.644 760.985, 457.594 760.809, 462.807 761.399 C 468.516 762.045, 468.800 761.963, 471.945 758.783 C 473.731 756.977, 476.467 753.665, 478.025 751.423 C 479.584 749.180, 482.372 746.191, 484.222 744.780 C 489.116 741.047, 494.998 734.981, 495.014 733.650 C 495.021 733.018, 497.529 729.575, 500.587 726 C 503.645 722.425, 506.928 717.925, 507.884 716 C 508.839 714.075, 510.235 711.534, 510.986 710.354 C 512.156 708.514, 512.112 707.582, 510.676 703.821 C 509.754 701.407, 509 698.271, 509 696.851 C 509 692.686, 505.597 689.343, 499.989 687.997 C 493.280 686.388, 484.714 680.421, 480.947 674.734 C 478.457 670.974, 475.886 668.997, 467.185 664.148 C 461.300 660.868, 453.563 657.213, 449.993 656.025 C 435.569 651.226, 414.853 640.538, 411 635.906 C 410.175 634.915, 407.379 633.203, 404.786 632.103 L 400.072 630.102 399.422 633.562" stroke="#68533d" fill="#68533d" fill-opacity="0.2" fill-rule="evenodd"/><path class="svg-region-PMl" d="M 313.525 701.031 C 310.239 702.664, 306.955 704, 306.226 704 C 305.497 704, 303.597 704.674, 302.005 705.498 C 299.432 706.828, 298.312 706.828, 291.989 705.498 C 281.763 703.347, 280.627 703.510, 270.784 708.557 L 261.896 713.113 252.198 712.431 C 246.864 712.056, 240.983 711.130, 239.128 710.374 C 234.118 708.332, 228.148 708.718, 222.250 711.464 C 214.802 714.931, 215.018 717.002, 224.250 730.612 C 228.238 736.491, 232.398 741.795, 233.496 742.400 C 234.593 743.005, 236.750 744.332, 238.288 745.348 C 240.080 746.532, 241.962 746.975, 243.529 746.582 C 247.485 745.589, 254.810 751.154, 259.838 758.970 C 262.196 762.637, 265.657 767.357, 267.528 769.460 C 270.886 773.235, 271 773.275, 276.443 772.636 C 281.839 772.001, 291.596 768.740, 293.417 766.962 C 293.970 766.421, 293.638 764.524, 292.579 762.175 C 290.156 756.801, 290.796 754.043, 295 751.754 C 296.925 750.705, 299.064 749.119, 299.753 748.228 C 300.482 747.286, 302.577 746.569, 304.759 746.514 C 306.823 746.463, 309.183 745.988, 310.005 745.460 C 310.827 744.932, 315.631 744.261, 320.680 743.968 C 332.435 743.288, 334 742.112, 334 733.967 C 334 728.596, 332.551 723.744, 329.767 719.792 C 328.822 718.451, 328.855 717.052, 329.920 713.292 C 332.413 704.487, 332.416 703.071, 329.947 700.444 C 326.742 697.032, 321.174 697.231, 313.525 701.031" stroke="#90cf92" fill="#90cf92" fill-opacity="0.2" fill-rule="evenodd"/><path class="svg-region-LPVl" d="M 380.010 638.250 C 379.493 639.487, 378.176 641.535, 377.083 642.801 C 375.209 644.972, 374.932 645.016, 372.163 643.585 C 369.848 642.387, 368.043 642.261, 363.596 642.984 C 360.497 643.489, 355.691 643.632, 352.915 643.304 C 348.777 642.814, 347.128 643.122, 343.761 645.014 C 340.852 646.649, 337.460 647.463, 332.135 647.805 C 326.096 648.193, 323.719 648.853, 320.058 651.161 C 315.133 654.266, 304.439 665.052, 303.555 667.807 C 303.256 668.738, 301.706 670.372, 300.110 671.438 C 296.249 674.017, 294 678.027, 294 682.331 C 294 685.116, 293.288 686.446, 290.604 688.677 C 288.737 690.230, 286.548 693.096, 285.740 695.047 C 284.933 696.997, 282.933 699.720, 281.297 701.097 L 278.321 703.601 286.911 704.926 C 291.635 705.656, 296.625 706.249, 298 706.246 C 301.155 706.239, 309.107 703.526, 315.135 700.402 C 325.138 695.218, 331.892 698.178, 331.716 707.669 C 331.661 710.640, 332.187 713.520, 332.953 714.443 C 334.900 716.789, 333.356 717.632, 331.006 715.506 C 329.048 713.733, 329 713.751, 329 716.243 C 329 717.647, 330.120 720.754, 331.488 723.148 C 333.384 726.465, 333.979 728.950, 333.988 733.595 C 334.002 740.481, 332.600 742.530, 327.130 743.624 C 324.857 744.079, 324.056 744.703, 324.445 745.718 C 324.750 746.513, 325 747.352, 325 747.582 C 325 747.812, 328.290 748, 332.312 748 C 339.141 748, 339.759 748.183, 341.671 750.769 C 342.797 752.292, 344.019 754.483, 344.385 755.637 C 345.906 760.430, 348.125 761.211, 359.181 760.841 C 368.530 760.529, 369.887 760.234, 373.620 757.701 C 377.288 755.213, 378.607 754.910, 385.620 754.946 C 399.900 755.019, 404.365 754.969, 404.583 754.733 C 404.921 754.368, 402.324 741.705, 401.508 739.738 C 400.448 737.182, 401.854 729.289, 403.698 727.445 C 405.002 726.141, 405.086 725.225, 404.180 722.183 C 403.081 718.489, 403.589 714.460, 405.882 708.685 C 407.293 705.132, 407.321 699.468, 405.940 696.888 C 405.357 695.799, 404.529 688.423, 404.099 680.497 C 403.669 672.572, 402.856 665.505, 402.293 664.794 C 400.161 662.099, 397 649.851, 397 644.284 L 397 638.487 393.016 637.243 C 390.824 636.560, 387.213 636, 384.991 636 C 381.746 636, 380.765 636.443, 380.010 638.250" stroke="#494949" fill="#494949" fill-opacity="0.2" fill-rule="evenodd"/><path class="svg-region-Fl" d="M 298 529.106 C 293.875 530.197, 285.687 533.545, 279.804 536.545 C 273.922 539.545, 268.184 542, 267.054 542 C 265.925 542, 265 542.388, 265 542.861 C 265 543.785, 251.897 554.014, 248.387 555.830 C 243.966 558.118, 224.152 578.768, 221.730 583.611 C 218.058 590.957, 217.715 593.133, 217.502 610.500 C 217.393 619.300, 216.963 627.288, 216.545 628.250 C 215.916 629.700, 216.309 630, 218.834 630 C 220.510 630, 222.129 630.400, 222.432 630.890 C 222.734 631.379, 224.448 632.017, 226.241 632.308 C 228.033 632.599, 230.383 632.986, 231.462 633.169 C 232.780 633.391, 233.551 632.844, 233.812 631.500 C 234.286 629.053, 237.892 625, 239.593 625 C 240.278 625, 242.112 625.649, 243.669 626.442 C 245.226 627.236, 249.088 628.863, 252.250 630.058 C 257.575 632.072, 259.756 634, 256.708 634 C 255.083 634, 247.836 641.612, 246.070 645.173 C 245.321 646.683, 245.026 648.967, 245.391 650.423 C 245.996 652.833, 246.426 653, 252.019 653 C 256.694 653, 258.443 652.557, 260.028 650.972 C 261.143 649.857, 264.344 648.359, 267.142 647.643 C 269.940 646.927, 272.680 645.536, 273.230 644.553 C 274.099 643.001, 275.117 642.852, 280.915 643.423 C 286.438 643.967, 288.373 643.731, 292.050 642.063 C 296.760 639.926, 311.326 639.100, 312.442 640.906 C 312.750 641.405, 316.039 643.247, 319.751 644.999 C 325.714 647.815, 327.257 648.134, 333 647.743 C 337.033 647.468, 341.184 646.440, 343.937 645.034 C 347.548 643.190, 349.341 642.882, 353.574 643.380 C 356.434 643.716, 361.123 643.546, 363.993 643.001 C 368.368 642.172, 369.688 642.294, 372.163 643.755 C 375.065 645.470, 375.148 645.457, 377.103 643 C 378.196 641.625, 379.530 639.433, 380.067 638.128 C 380.985 635.898, 381.385 635.796, 386.772 636.432 C 398.693 637.840, 398.398 637.902, 399.415 633.791 C 400.133 630.888, 400.781 630.128, 402.397 630.291 C 403.960 630.449, 404.493 629.893, 404.590 628 C 404.661 626.625, 405.055 624.712, 405.466 623.750 C 406.064 622.350, 405.713 622, 403.709 622 C 400.585 622, 390.837 616.942, 386.323 612.978 C 384.192 611.107, 381.829 610, 379.968 610 C 377.396 610, 376.683 609.332, 374.565 604.943 C 371.914 599.448, 368.380 596.130, 363.315 594.380 C 357.028 592.209, 349.066 583.239, 347.438 576.493 C 346.352 571.992, 338.954 553.988, 336.552 550 C 335.392 548.075, 333.612 544.897, 332.595 542.937 C 331.578 540.977, 330.241 538.714, 329.623 537.908 C 328.050 535.856, 309.930 526.961, 307.500 527.049 C 306.400 527.089, 302.125 528.014, 298 529.106" stroke="#5ca7a9" fill="#5ca7a9" fill-opacity="0.2" fill-rule="evenodd"/><path class="svg-region-PCl" d="M 236.174 627.314 C 234.978 628.587, 234 630.312, 234 631.148 C 234 633.635, 233.220 633.770, 227.734 632.227 C 216.429 629.049, 216.732 628.949, 214.250 636.667 C 211.848 644.134, 208 661.876, 208 665.483 C 208 668.137, 216.029 676.003, 218.728 675.994 C 219.702 675.990, 221.289 674.600, 222.254 672.905 C 223.219 671.210, 225.357 669.314, 227.004 668.692 C 229.644 667.696, 230.522 666.303, 230.118 663.750 C 230.053 663.337, 230.849 662.151, 231.887 661.113 C 232.925 660.075, 234.163 658.592, 234.637 657.816 C 236.014 655.567, 242.857 652.008, 244.553 652.659 C 245.805 653.139, 245.972 652.735, 245.423 650.549 C 245.023 648.955, 245.289 646.749, 246.071 645.173 C 247.986 641.315, 254.087 634.976, 257 633.818 C 259.350 632.884, 259.110 632.675, 253 630.333 C 249.425 628.963, 245.306 627.202, 243.846 626.421 C 240.179 624.458, 238.695 624.631, 236.174 627.314" stroke="#465ee0" fill="#465ee0" fill-opacity="0.2" fill-rule="evenodd"/><path class="svg-region-SB" d="M 889.904 143.933 C 887.926 144.319, 884.218 145.617, 881.665 146.818 C 879.111 148.018, 876.143 149, 875.070 149 C 873.996 149, 872.873 149.396, 872.574 149.881 C 872.274 150.366, 868.622 152.468, 864.458 154.554 C 860.294 156.639, 855.872 159.552, 854.631 161.027 C 853.390 162.502, 851.914 163.887, 851.350 164.104 C 848.547 165.188, 836.143 180.572, 835.020 184.359 C 834.344 186.637, 833.399 189.510, 832.920 190.745 C 831.827 193.557, 832.774 198.568, 834.701 200.167 C 835.798 201.077, 836.885 201.104, 839.081 200.276 C 842.600 198.947, 844.351 199.426, 853.795 204.303 C 862.383 208.738, 867.674 209.487, 869.324 206.500 C 869.931 205.400, 871.682 202.626, 873.214 200.337 C 874.746 198.047, 876 195.897, 876 195.559 C 876 195.222, 877.372 193.496, 879.050 191.723 C 880.727 189.950, 883.098 186.700, 884.318 184.500 C 886.443 180.669, 886.915 180.406, 895.518 178.261 C 900.458 177.030, 905.524 175.486, 906.775 174.829 C 910.314 172.972, 918 160.266, 918 156.273 C 918 151.697, 915.558 147.311, 911.701 144.960 C 909.218 143.445, 906.818 143.032, 901 143.119 C 896.875 143.180, 891.882 143.546, 889.904 143.933" stroke="#d2e400" fill="#d2e400" fill-opacity="0.2" fill-rule="evenodd"/><path class="svg-region-VOC" d="M 508.109 504.369 C 504.699 508.478, 500 520.080, 500 524.391 C 500 528.155, 499.562 529.241, 497.500 530.592 C 493.108 533.470, 494.945 540.486, 502.249 548.728 C 504.587 551.366, 507.465 554.757, 508.644 556.262 C 512.021 560.575, 516.357 560.050, 521.138 554.750 C 523.247 552.413, 524.978 550.205, 524.986 549.845 C 524.994 549.484, 526.575 547.304, 528.500 545 C 531.285 541.667, 532 539.949, 532 536.593 C 532 533.039, 531.514 532.017, 528.907 530.089 C 525.643 527.676, 525.483 526.081, 527.532 516.363 C 528 514.147, 527.658 512.385, 526.370 510.363 C 523.946 506.558, 523.405 506.242, 517.026 504.909 C 514.015 504.280, 511.049 503.572, 510.436 503.337 C 509.822 503.102, 508.775 503.566, 508.109 504.369" stroke="#ff8f93" fill="#ff8f93" fill-opacity="0.2" fill-rule="evenodd"/><path class="svg-region-OABl" d="M 637.750 448.689 C 636.788 448.941, 636 449.543, 636 450.028 C 636 450.513, 634.476 451.195, 632.613 451.545 C 630.044 452.027, 628.052 453.632, 624.363 458.195 C 621.688 461.503, 617.813 466.215, 615.750 468.666 C 613.688 471.117, 612 474.179, 612 475.471 C 612 476.962, 610.328 479.405, 607.422 482.160 C 600.155 489.050, 598.058 495.794, 602.547 497.839 C 606.131 499.472, 606.196 499.454, 612.755 494.928 C 616.422 492.397, 620.249 490.642, 622.866 490.291 C 627.812 489.628, 628.526 488.553, 629.308 480.594 C 629.922 474.339, 630.914 473.040, 635.095 473.015 C 640.045 472.986, 641.463 469.913, 641.841 458.398 C 642.198 447.508, 642.205 447.525, 637.750 448.689" stroke="#81244d" fill="#81244d" fill-opacity="0.2" fill-rule="evenodd"/><path class="svg-region-SOTl" d="M 531.820 475.250 C 531.556 477.103, 530.719 477.588, 527.067 478 C 523.168 478.440, 522.532 478.862, 521.793 481.500 C 521.332 483.150, 521.199 485.908, 521.500 487.630 C 521.923 490.055, 522.667 490.883, 524.811 491.312 C 526.802 491.710, 528.785 493.647, 531.887 498.221 C 537.954 507.168, 543.908 510.173, 543.985 504.327 C 543.993 503.681, 545.581 501.082, 547.513 498.551 C 551.852 492.866, 551.489 490.222, 545.582 484.481 C 543.308 482.271, 540.650 478.783, 539.677 476.731 C 538.236 473.695, 537.369 473, 535.023 473 C 532.794 473, 532.067 473.511, 531.820 475.250" stroke="#995b45" fill="#995b45" fill-opacity="0.2" fill-rule="evenodd"/><path class="svg-region-LBPCl" d="M 406.603 616.130 C 404.268 627.313, 404.242 631.140, 406.491 632.465 C 407.457 633.034, 409.864 634.995, 411.840 636.822 C 417.838 642.369, 429.529 648.254, 451.782 656.928 C 456.336 658.704, 463.649 662.173, 468.031 664.638 C 472.414 667.102, 476.449 668.840, 477 668.500 C 478.695 667.453, 478.107 664.084, 476 662.768 C 473.569 661.250, 473.495 660.215, 475.647 657.837 C 476.937 656.412, 477.095 655.311, 476.377 652.759 C 475.197 648.570, 465.439 642.015, 451.606 636.120 C 446.040 633.748, 440.878 630.843, 439.804 629.478 C 438.755 628.144, 434.894 625.620, 431.224 623.868 C 427.555 622.117, 422.388 619.408, 419.743 617.849 C 417.098 616.289, 413.171 614.731, 411.016 614.387 C 407.468 613.819, 407.052 613.984, 406.603 616.130" stroke="#daffff" fill="#daffff" fill-opacity="0.2" fill-rule="evenodd"/><path class="svg-region-PNl" d="M 292 642.034 C 289.078 643.662, 287.319 643.885, 281.352 643.384 C 274.824 642.836, 274.149 642.956, 273.575 644.764 C 273.127 646.174, 271.759 646.903, 268.820 647.297 C 266.550 647.602, 263.300 648.897, 261.596 650.175 C 258.978 652.141, 257.217 652.519, 250.194 652.623 C 240.796 652.762, 236.299 654.530, 233.563 659.163 C 232.641 660.723, 231.462 662, 230.943 662 C 230.425 662, 230 663.350, 230 665 C 230 667.287, 229.546 668, 228.089 668 C 226.171 668, 221 673.247, 221 675.193 C 221 675.765, 220.100 675.998, 219 675.710 C 217.347 675.278, 217 675.680, 217 678.029 C 217 682.477, 218.739 685.987, 222.880 689.895 C 224.981 691.878, 227.482 695.016, 228.437 696.869 C 232.120 704.011, 237.093 709.876, 240.300 710.859 C 242.060 711.398, 247.611 712.130, 252.635 712.486 C 261.541 713.116, 261.941 713.049, 268.536 709.834 C 276.716 705.845, 284.483 699.096, 285.930 694.717 C 286.515 692.948, 288.570 690.243, 290.497 688.707 C 293.480 686.330, 294 685.304, 294 681.806 C 294 678.148, 294.604 677.103, 299.500 672.284 C 302.525 669.307, 305 666.481, 305 666.003 C 305 664.498, 315.317 654.437, 319.666 651.701 C 321.957 650.260, 324.086 648.670, 324.396 648.168 C 324.706 647.666, 322.284 646.054, 319.014 644.587 C 315.743 643.119, 312.801 641.487, 312.475 640.959 C 312.149 640.432, 308.196 640.019, 303.691 640.042 C 297.490 640.074, 294.650 640.558, 292 642.034" stroke="#bbc0d1" fill="#bbc0d1" fill-opacity="0.2" fill-rule="evenodd"/><path class="svg-region-OVl" d="M 576.889 414.682 C 576.585 422.435, 580.026 434.408, 583.019 436.010 C 585.621 437.403, 589.729 437.120, 595.186 435.172 C 600.780 433.176, 609.016 427.555, 608.961 425.771 C 608.940 425.072, 607.511 423.600, 605.786 422.500 C 604.061 421.400, 602.166 419.070, 601.575 417.322 C 600.040 412.784, 599.550 412.563, 595.021 414.375 C 589.388 416.629, 583.448 416.455, 579.904 413.932 L 577 411.864 576.889 414.682" stroke="#593939" fill="#593939" fill-opacity="0.2" fill-rule="evenodd"/>
    </svg>