<svg xmlns="http://www.w3.org/2000/svg" width="1078" height="1151" viewBox="0 0 1078 1151" version="1.1">
    <path class="svg-region-V" d="M 502.500 202.948 C 497.947 203.406, 493.428 205.052, 483.763 209.776 C 476.006 213.566, 469.739 216, 467.735 216 C 465.926 216, 463.557 216.615, 462.473 217.367 C 461.388 218.119, 457.935 219.475, 454.801 220.380 C 451.666 221.286, 448.835 222.458, 448.509 222.986 C 448.182 223.514, 446.247 224.396, 444.208 224.948 C 438.665 226.445, 426.026 236.362, 425.980 239.250 C 425.969 239.938, 423.242 243.425, 419.920 247 C 416.599 250.575, 412.671 255.300, 411.192 257.500 C 409.712 259.700, 406.701 263.825, 404.501 266.666 C 397.123 276.193, 394.294 280.466, 391.702 286 C 390.285 289.025, 387.085 294.650, 384.590 298.500 C 382.096 302.350, 377.577 310.450, 374.548 316.500 C 371.518 322.550, 367.236 330.650, 365.032 334.500 C 359.229 344.636, 351.432 360.712, 349.512 366.500 C 347.365 372.972, 345.770 387.121, 346.531 392.942 C 348.236 405.994, 351.012 413.953, 360.235 432.250 L 366.159 444 375.007 444 C 383.195 444, 384.364 443.735, 390.677 440.450 C 398.676 436.288, 404.079 431.339, 406.880 425.610 C 411.290 416.592, 423.941 390.147, 426.547 384.500 C 428.911 379.377, 436.265 367.575, 438.075 366 C 438.682 365.472, 441.801 359.534, 444.117 354.500 C 447.514 347.113, 453.555 337.240, 456.396 334.430 C 458.103 332.742, 461.911 328.554, 464.858 325.125 C 467.805 321.695, 471.906 317.822, 473.973 316.517 C 476.039 315.213, 479.478 312.495, 481.615 310.477 C 487.759 304.675, 493.054 302.748, 504.355 302.200 C 510.024 301.925, 514.484 302.125, 514.855 302.670 C 515.571 303.722, 527.813 310.752, 532.493 312.799 C 534.139 313.519, 536.389 314.915, 537.493 315.902 C 538.597 316.889, 543.442 320.048, 548.261 322.922 C 553.079 325.796, 558.338 329.255, 559.947 330.609 C 562.189 332.495, 563.530 332.915, 565.686 332.408 C 570.334 331.314, 577.694 326.957, 578.782 324.656 C 581.143 319.659, 583.790 313.330, 584.493 311 C 584.908 309.625, 587.601 305.120, 590.478 300.989 C 594.746 294.862, 595.843 292.415, 596.431 287.707 C 597.253 281.124, 599.351 278.521, 605.076 276.979 C 607.091 276.437, 609.976 275.020, 611.489 273.830 C 614.018 271.841, 614.192 271.265, 613.648 266.678 C 613.318 263.891, 612.219 260.766, 611.158 259.595 C 610.113 258.443, 607.548 255.025, 605.459 252 C 598.320 241.663, 588.820 231.952, 583 229.040 C 579.975 227.526, 576.375 226.013, 575 225.677 C 573.625 225.341, 570.177 223.026, 567.339 220.533 C 564.500 218.040, 561.554 216, 560.793 216 C 560.031 216, 556.054 213.913, 551.954 211.363 C 538.971 203.285, 534.489 201.973, 520.560 202.173 C 513.927 202.268, 505.800 202.617, 502.500 202.948" stroke="#dd8a8a" fill="#dd8a8a" fill-opacity="0.2" fill-rule="evenodd"/><path class="svg-region-SV" d="M 494.718 303.092 C 489.526 304.314, 486.274 306.200, 481 311.046 C 478.525 313.320, 475.361 315.776, 473.969 316.503 C 470.597 318.264, 454.239 336.207, 450.268 342.500 C 448.533 345.250, 445.546 350.939, 443.631 355.142 C 441.716 359.345, 437.961 365.870, 435.287 369.642 C 429.272 378.129, 425 385.423, 425 387.209 C 425 387.953, 421.400 395.706, 417 404.438 C 412.600 413.170, 409 420.812, 409 421.420 C 409 422.029, 407.425 424.865, 405.500 427.724 C 403.575 430.582, 402 433.341, 402 433.854 C 402 436.698, 413.631 436.805, 418.226 434.004 C 420.615 432.547, 423.256 432.009, 428 432.013 C 433.915 432.019, 434.895 432.333, 438.891 435.510 C 442.946 438.733, 443.807 439, 450.163 439 C 459.445 439, 467.872 442.811, 476.290 450.816 C 479.706 454.064, 483.696 457.007, 485.157 457.356 C 486.619 457.706, 488.521 458.263, 489.384 458.594 C 490.423 458.992, 491.324 458.382, 492.050 456.789 C 492.654 455.464, 494.914 453.289, 497.074 451.954 C 499.618 450.382, 501 448.791, 501 447.435 C 501 443.120, 510.962 430, 514.238 430 C 515.263 430, 517.542 428.502, 519.301 426.672 C 527.798 417.832, 533.939 417.913, 544.263 427 C 546.634 429.087, 550.150 431.454, 552.077 432.259 C 554.003 433.064, 556.349 434.492, 557.290 435.433 C 558.230 436.373, 559 436.767, 559 436.307 C 559 434.289, 554.835 424.349, 552.529 420.864 C 549.015 415.555, 548.928 405.547, 552.343 399.588 C 553.631 397.340, 555.273 393.250, 555.992 390.500 C 557.288 385.540, 560.357 381.005, 562.424 380.995 C 563.016 380.992, 564.691 379.980, 566.146 378.745 C 568.594 376.667, 568.837 375.737, 569.401 366.250 L 570.010 356 564.994 356 C 561.985 356, 558.193 355.161, 555.516 353.903 C 551.881 352.194, 550.939 351.190, 550.432 348.490 C 549.475 343.390, 550.633 341.398, 556.463 338.108 C 559.417 336.440, 562.080 334.680, 562.379 334.196 C 563.282 332.734, 556.997 327.650, 548 322.567 C 543.325 319.925, 538.600 316.967, 537.500 315.993 C 536.400 315.019, 533.700 313.329, 531.500 312.238 C 524.246 308.641, 516.048 303.886, 515.460 302.935 C 514.742 301.773, 499.840 301.885, 494.718 303.092" stroke="#c666b5" fill="#c666b5" fill-opacity="0.2" fill-rule="evenodd"/><path class="svg-region-SF" d="M 614 269.845 C 614 272.398, 611.152 274.729, 605.805 276.551 C 599.070 278.845, 597.263 281.005, 596.460 287.718 C 595.922 292.215, 594.924 294.632, 591.970 298.593 C 588.173 303.684, 584 310.815, 584 312.210 C 584 312.976, 578.692 324.357, 577.102 327 C 576.605 327.825, 575.692 331.875, 575.073 336 C 574.453 340.125, 573.289 345.403, 572.486 347.728 C 570.102 354.628, 568.791 365.583, 569.157 375.549 C 569.483 384.434, 569.653 385.054, 572.629 388.196 C 574.350 390.013, 576.520 393.849, 577.450 396.720 C 579.295 402.417, 582.095 405.294, 589.955 409.572 C 593.237 411.358, 595.448 413.424, 596.539 415.724 C 598.097 419.006, 598.399 419.162, 602.341 418.706 C 604.629 418.441, 609.872 417.014, 613.993 415.535 C 619.524 413.550, 622.534 413.001, 625.493 413.440 C 628.506 413.887, 630.368 413.527, 633 411.990 C 634.925 410.865, 637.256 409.688, 638.181 409.374 C 639.105 409.060, 640.142 408.072, 640.485 407.179 C 641.782 403.798, 647.606 397.049, 650.164 395.961 C 651.630 395.338, 653.367 393.529, 654.024 391.942 C 654.682 390.354, 656.301 387.888, 657.623 386.462 C 658.944 385.036, 661.431 380.224, 663.150 375.767 C 666.120 368.067, 666.239 367.216, 665.565 358.583 C 665.174 353.587, 664.877 348.600, 664.904 347.500 C 664.931 346.400, 664.251 343.051, 663.393 340.059 C 662.535 337.066, 661.424 332.341, 660.924 329.559 C 657.793 312.136, 652.396 301.595, 639 286.738 C 631.481 278.400, 617.847 268, 614.435 268 C 614.196 268, 614 268.830, 614 269.845" stroke="#8c6b55" fill="#8c6b55" fill-opacity="0.2" fill-rule="evenodd"/><path class="svg-region-PF" d="M 571.500 330.028 C 569.300 331.001, 566.375 332.296, 565 332.905 C 559.583 335.304, 550.482 341.760, 550.157 343.432 C 549.969 344.404, 550.109 346.767, 550.468 348.683 C 551.016 351.603, 551.841 352.485, 555.572 354.135 C 558.602 355.475, 561.677 356.007, 565.201 355.802 L 570.378 355.500 571.743 350.500 C 574.974 338.666, 576.072 333.349, 575.795 330.886 L 575.500 328.259 571.500 330.028 M 564.818 379.491 C 558.960 382.794, 557.475 384.615, 556.061 390.229 C 555.331 393.128, 553.668 397.340, 552.367 399.588 C 548.725 405.878, 548.996 415.347, 552.997 421.657 C 554.646 424.256, 556.756 428.948, 557.687 432.084 C 559.258 437.377, 559.535 437.713, 561.563 436.789 C 563.054 436.110, 564.401 436.144, 565.808 436.897 C 570.232 439.265, 575.040 438.195, 586.500 432.292 C 593.019 428.935, 595.703 426.431, 597.001 422.497 C 598.647 417.510, 595.642 411.861, 590 409.334 C 588.625 408.719, 585.609 406.829, 583.297 405.135 C 579.982 402.707, 578.765 400.948, 577.538 396.816 C 576.682 393.934, 574.627 390.178, 572.970 388.469 C 571.193 386.635, 569.658 383.731, 569.229 381.388 L 568.500 377.414 564.818 379.491" stroke="#faaaaa" fill="#faaaaa" fill-opacity="0.2" fill-rule="evenodd"/><path class="svg-region-AAB" d="M 643.667 440.175 C 640.075 442.854, 634 455.209, 634 459.837 C 634 462.652, 633.162 464.151, 629.750 467.443 C 625.635 471.412, 619 482.986, 619 486.195 C 619 487.061, 618.257 490.072, 617.348 492.885 C 615.902 497.363, 615.361 498, 613.003 498 C 610.022 498, 607 495.288, 607 492.612 C 607 489.945, 605.206 491.661, 602.584 496.834 C 601.276 499.414, 596.223 505.677, 591.353 510.750 C 586.484 515.823, 580.700 521.864, 578.500 524.175 C 574.158 528.735, 568.108 536.726, 565.383 541.500 C 564.344 543.320, 563.346 548.237, 562.846 554 C 562.393 559.225, 561.758 565.750, 561.436 568.500 C 560.946 572.677, 561.234 574.076, 563.183 577 C 564.466 578.925, 567.401 581.453, 569.704 582.619 C 572.007 583.784, 575.321 586.167, 577.068 587.914 C 585.148 595.994, 594.763 597.808, 607.366 593.630 C 612.958 591.776, 614.471 590.811, 615.520 588.427 C 616.229 586.817, 619.071 583.147, 621.836 580.272 C 626.254 575.677, 631.088 568.055, 641.306 549.575 C 642.849 546.784, 644.537 544.072, 645.056 543.550 C 645.575 543.027, 646 541.144, 646 539.365 C 646 534.747, 647.524 531.358, 649.878 530.742 C 651.088 530.426, 652.163 529.057, 652.537 527.356 C 652.883 525.785, 654.028 522.392, 655.083 519.815 C 656.309 516.819, 657 512.738, 657 508.499 C 657 504.852, 657.555 500.886, 658.234 499.684 C 660.558 495.570, 663.294 479.502, 663.544 468.500 C 663.812 456.693, 662.661 450.424, 659.960 448.979 C 659.032 448.482, 656.544 445.809, 654.431 443.038 C 650.147 437.421, 648.094 436.875, 643.667 440.175" stroke="#7f3c1a" fill="#7f3c1a" fill-opacity="0.2" fill-rule="evenodd"/><path class="svg-region-APB" d="M 633.500 411.552 C 630.344 413.516, 628.706 413.913, 625.739 413.431 C 622.015 412.827, 614.151 414.589, 607.216 417.583 C 605.410 418.362, 602.666 419, 601.118 419 C 598.769 419, 598.047 419.653, 596.753 422.948 C 595.016 427.368, 588.772 431.851, 578.724 435.891 C 573.108 438.148, 569.855 438.280, 564.215 436.478 C 559.143 434.858, 550.990 447.790, 551.007 457.428 C 551.012 460.353, 549.544 464.427, 545.797 471.885 C 540.835 481.764, 540.561 482.722, 540.176 491.524 C 539.922 497.332, 540.239 502.214, 541.029 504.638 C 543.144 511.135, 550.465 525.282, 554.336 530.353 C 556.351 532.993, 558 535.698, 558 536.364 C 558 537.031, 559.265 539.090, 560.810 540.942 L 563.621 544.308 565.794 540.904 C 571.078 532.627, 573.790 529.054, 578 524.818 C 591.590 511.145, 600.272 501.381, 602.134 497.676 C 603.289 495.379, 604.895 492.746, 605.704 491.824 C 607.766 489.476, 606.949 486.695, 603.995 486.004 C 600.024 485.076, 600.216 481.128, 604.480 476.025 C 606.450 473.666, 609.135 469.392, 610.446 466.525 C 612.139 462.824, 613.698 460.953, 615.826 460.072 C 617.475 459.389, 621.451 456.169, 624.662 452.917 C 627.873 449.664, 631.063 447.003, 631.750 447.002 C 632.565 447.001, 633 448.566, 633 451.500 C 633 453.975, 633.337 455.991, 633.750 455.980 C 634.163 455.969, 635.985 452.799, 637.801 448.935 C 641.030 442.062, 645.185 438.007, 649 438.008 C 649.825 438.008, 652.410 440.481, 654.745 443.504 C 657.079 446.527, 659.442 449, 659.995 449 C 660.548 449, 661 446.750, 661 444 C 661 441.250, 660.550 439, 660 439 C 659.450 439, 659 438.328, 659 437.506 C 659 436.685, 655.833 432.419, 651.963 428.027 C 648.076 423.616, 644.265 418.167, 643.449 415.857 C 640.760 408.233, 639.623 407.741, 633.500 411.552" stroke="#ac7444" fill="#ac7444" fill-opacity="0.2" fill-rule="evenodd"/><path class="svg-region-PC" d="M 524.500 421.805 C 522.850 422.858, 520.259 425.133, 518.742 426.860 C 517.226 428.587, 515.172 430, 514.179 430 C 511.964 430, 508.212 433.889, 504.101 440.446 C 500.117 446.800, 500.076 448.362, 503.916 447.518 C 508.580 446.494, 513.858 448, 517.424 451.372 C 520.345 454.134, 520.785 455.245, 521.188 460.865 L 521.644 467.229 530.322 475.526 C 535.095 480.088, 539 484.312, 539 484.911 C 539 485.510, 539.450 486, 540 486 C 540.550 486, 541 484.949, 541 483.665 C 541 482.381, 543.177 477.092, 545.839 471.912 C 549.506 464.775, 550.811 461.025, 551.228 456.425 C 551.754 450.621, 554.572 443.392, 557.696 439.833 C 559.818 437.416, 557.958 434.600, 552.900 432.577 C 550.613 431.662, 546.102 428.617, 542.875 425.810 C 537.939 421.517, 536.254 420.642, 532.254 420.298 C 528.755 419.997, 526.708 420.394, 524.500 421.805 M 513.567 489.946 C 508.769 493.110, 506.297 499, 509.768 499 C 510.740 499, 513.215 500.141, 515.268 501.536 L 519 504.072 519 514.381 C 519 523.420, 519.246 524.913, 521 526.500 C 523.430 528.699, 523.539 532.561, 521.380 540 C 518.118 551.240, 516.728 563.073, 518.032 568.500 C 519.456 574.425, 521.580 579.392, 524.428 583.461 C 525.567 585.089, 527.625 588.689, 529 591.461 C 531.078 595.649, 532.478 597.007, 537.289 599.500 L 543.078 602.500 544.789 600.349 C 545.730 599.166, 547.941 597.897, 549.703 597.530 C 551.465 597.162, 554.024 595.983, 555.390 594.908 C 558.297 592.622, 561.952 583.553, 561.879 578.806 C 561.741 569.706, 561.970 563.624, 562.793 554.500 C 563.594 545.632, 563.500 544.274, 561.961 542.500 C 561.007 541.400, 559.253 538.563, 558.065 536.196 C 556.876 533.829, 554.463 529.993, 552.702 527.672 C 547.735 521.127, 540.758 505.533, 540.200 499.732 L 539.712 494.653 537.337 499.326 C 536.031 501.897, 534.498 504, 533.931 504 C 531.117 504, 526.796 500.495, 524.370 496.244 C 519.294 487.352, 518.344 486.798, 513.567 489.946" stroke="#cda789" fill="#cda789" fill-opacity="0.2" fill-rule="evenodd"/><path class="svg-region-DB" d="M 418.226 434.004 C 414.573 436.231, 406.140 436.729, 403.198 434.891 C 401.765 433.996, 400.541 434.377, 396.855 436.865 C 388.924 442.218, 383.569 444, 375.417 444 C 366.526 444, 366.526 444, 371.582 454.828 C 373.552 459.048, 375.994 464.300, 377.008 466.500 C 379.517 471.944, 384.576 488.853, 386.432 498 C 387.270 502.125, 388.415 507.072, 388.977 508.993 C 389.540 510.915, 390 513.746, 390 515.285 C 390 520.804, 392.128 521.695, 407.188 522.482 C 419.697 523.137, 421.203 523.028, 424.688 521.219 C 430.507 518.197, 438.525 516.700, 449 516.679 C 460 516.657, 480.481 519.562, 483.715 521.602 C 486.967 523.655, 487.999 523.329, 488.006 520.250 C 488.018 514.248, 490.190 509.731, 495.879 503.881 C 500.383 499.250, 502.244 498, 504.639 498 C 506.926 498, 507.966 497.369, 508.839 495.453 C 510.410 492.006, 510.310 491.314, 508.161 490.752 C 505.833 490.144, 501 481.602, 501 478.097 C 501 476.638, 501.720 474.417, 502.600 473.161 C 504.077 471.052, 504.063 470.728, 502.426 468.918 C 501.451 467.841, 498.594 466.360, 496.077 465.626 C 492.258 464.514, 491.417 463.821, 490.998 461.444 C 490.582 459.080, 489.788 458.417, 486.335 457.547 C 483.447 456.821, 480.313 454.722, 476.102 450.695 C 467.985 442.931, 459.388 439, 450.524 439 C 444.668 439, 443.509 438.644, 439.133 435.500 C 434.780 432.373, 433.581 432, 427.881 432.004 C 423.269 432.006, 420.592 432.561, 418.226 434.004" stroke="#e8b1e4" fill="#e8b1e4" fill-opacity="0.2" fill-rule="evenodd"/><path class="svg-region-MB" d="M 438.575 516.878 C 438.233 517.432, 435.826 518.150, 433.227 518.475 C 430.627 518.800, 426.654 519.978, 424.398 521.093 C 420.776 522.884, 418.727 523.085, 406.898 522.811 L 393.500 522.500 393.151 526.500 C 392.689 531.804, 394.872 553.647, 396.270 557.713 C 397.729 561.954, 399.633 562.203, 404.680 558.810 C 407.259 557.077, 410.186 556, 412.321 556 C 414.224 556, 417.743 555.110, 420.141 554.022 C 426.438 551.165, 431.700 551.419, 437.054 554.841 C 441.012 557.369, 450.777 567.381, 454.576 572.805 C 455.862 574.641, 464.169 582.837, 470.990 589 C 472.512 590.375, 477.330 594.875, 481.696 599 C 492.423 609.132, 500.620 616.269, 505.849 620.029 C 508.241 621.749, 511.550 624.696, 513.203 626.578 C 514.855 628.460, 516.772 630, 517.463 630 C 518.153 630, 520.694 631.571, 523.109 633.490 C 527.722 637.157, 530 637.883, 530 635.687 C 530 634.965, 531.884 631.252, 534.187 627.437 C 537.647 621.704, 540.152 615.199, 543.143 604.185 C 543.350 603.420, 541.028 601.534, 537.602 599.685 C 532.466 596.911, 531.278 595.678, 528.401 590.132 C 526.584 586.630, 524.476 583.030, 523.716 582.132 C 521.879 579.960, 519 573.581, 519 571.681 C 519 568.496, 517.804 567.011, 515.646 567.517 C 513.027 568.131, 512.083 567.489, 509 563 C 507.678 561.075, 506.339 559.275, 506.025 559 C 503.836 557.084, 493 536.754, 493 534.563 C 493 533.857, 491.875 531.621, 490.500 529.595 C 489.125 527.569, 487.995 525.369, 487.989 524.706 C 487.968 522.566, 480.769 520.105, 469.500 518.386 C 455.836 516.302, 439.426 515.501, 438.575 516.878" stroke="#f9c6c6" fill="#f9c6c6" fill-opacity="0.2" fill-rule="evenodd"/><path class="svg-region-LBl" d="M 420.141 554.022 C 417.743 555.110, 414.119 556, 412.088 556 C 409.542 556, 407.103 556.950, 404.238 559.056 C 401.953 560.737, 399.726 562.063, 399.291 562.003 C 397.728 561.788, 397.981 564.626, 400.050 570.512 C 402.182 576.577, 403.405 581.838, 404.582 590 C 404.939 592.475, 406.351 596.975, 407.720 600 C 409.089 603.025, 410.584 606.400, 411.041 607.500 C 411.499 608.600, 412.340 613.747, 412.911 618.939 C 413.623 625.411, 414.473 628.868, 415.615 629.939 C 416.532 630.797, 416.967 630.938, 416.582 630.250 C 416.197 629.563, 416.304 629, 416.819 629 C 418.688 629, 425.592 632.300, 429.500 635.062 C 432.972 637.516, 443.379 641.010, 452.262 642.704 C 453.781 642.994, 455.271 643.629, 455.571 644.115 C 455.872 644.602, 457.334 645, 458.819 645 C 460.325 645, 462.731 646.122, 464.255 647.536 C 466.668 649.773, 483.659 658.371, 492.804 661.983 C 495.925 663.215, 496.286 663.122, 499.304 660.308 C 504.150 655.790, 509.064 653.353, 517.157 651.456 C 527.735 648.975, 529.008 647.979, 528.962 642.227 C 528.927 637.833, 528.628 637.289, 524.719 634.500 C 522.406 632.850, 519.386 630.871, 518.007 630.102 C 516.628 629.332, 514.410 627.532, 513.078 626.102 C 511.746 624.671, 508.371 621.793, 505.578 619.706 C 499.693 615.308, 490.032 606.865, 481.885 599 C 478.751 595.975, 474.233 591.748, 471.844 589.607 C 461.782 580.588, 456.255 575.018, 452.307 569.917 C 439.387 553.228, 431.012 549.089, 420.141 554.022" stroke="#d7b230" fill="#d7b230" fill-opacity="0.2" fill-rule="evenodd"/><path class="svg-region-LPl" d="M 562 579.462 C 562 583.596, 558.024 592.836, 555.335 594.951 C 553.939 596.049, 551.227 597.242, 549.308 597.602 C 545.449 598.326, 543.962 600.885, 540.650 612.500 C 538.924 618.554, 537.550 621.568, 532.548 630.270 C 530.752 633.396, 529.620 637.098, 529.265 641.012 C 528.967 644.297, 528.169 647.445, 527.491 648.008 C 526.812 648.571, 522.487 649.973, 517.879 651.123 C 508.274 653.522, 504.324 655.590, 498 661.536 C 495.350 664.027, 491.444 666.441, 488.500 667.408 C 485.750 668.311, 481.320 670.649, 478.655 672.604 L 473.809 676.158 481.155 683.030 C 485.195 686.809, 490.325 690.785, 492.556 691.865 C 497.825 694.415, 498.603 695.500, 499.469 701.500 C 499.866 704.250, 500.871 707.655, 501.703 709.066 C 503.117 711.468, 503.012 712.033, 500.065 717.870 C 497.537 722.878, 496.552 723.993, 495.068 723.521 C 492.816 722.807, 491 727.176, 491 733.305 C 491 736.038, 490.205 738.353, 488.500 740.589 C 486.701 742.948, 486 745.111, 486 748.308 C 486 750.750, 485.325 754.662, 484.500 757 C 481.290 766.099, 483.788 774.019, 490.448 775.858 C 495.344 777.210, 499.876 775.755, 503.991 771.510 C 506.253 769.175, 508.312 768, 510.137 768 C 511.647 768, 513.161 767.549, 513.501 766.998 C 514.453 765.459, 525.945 760, 528.235 760 C 529.351 760, 531.709 759.107, 533.476 758.015 C 537.680 755.417, 552.171 750.086, 558.450 748.828 C 561.172 748.283, 564.997 747.031, 566.950 746.046 C 568.902 745.060, 573.531 743.937, 577.234 743.549 C 581.047 743.150, 585.979 741.827, 588.602 740.499 C 591.150 739.208, 593.826 738.380, 594.548 738.657 C 596.121 739.260, 607.630 735.926, 618 731.862 C 630.285 727.047, 637.846 721.829, 647.880 711.242 C 661.246 697.138, 661 697.429, 661 695.739 C 661 694.887, 661.857 692.459, 662.905 690.345 C 667.476 681.119, 669 674.557, 669 664.107 C 669 655.894, 668.613 653.161, 667 650 C 665.900 647.844, 664.996 644.149, 664.990 641.790 C 664.977 635.765, 661.125 628.160, 655.644 623.336 C 653.090 621.087, 651 618.813, 651 618.282 C 651 617.750, 648.011 614.657, 644.358 611.408 C 639.758 607.317, 636.060 604.974, 632.332 603.789 C 629.371 602.847, 625.960 601.385, 624.752 600.539 C 623.543 599.692, 621.388 599, 619.963 599 C 617.978 599, 616.974 598.169, 615.680 595.456 C 614.072 592.083, 613.809 591.945, 610.245 592.613 C 608.185 592.998, 605.052 593.918, 603.282 594.657 C 595.289 597.993, 584.127 595.058, 576.813 587.696 C 574.991 585.862, 572.022 583.770, 570.216 583.046 C 568.410 582.322, 566.095 580.665, 565.072 579.365 C 562.709 576.360, 562 576.382, 562 579.462" stroke="#d2454f" fill="#d2454f" fill-opacity="0.2" fill-rule="evenodd"/><path class="svg-region-DMl" d="M 365.358 617.750 C 365.699 619.813, 365.983 622.897, 365.989 624.604 C 365.996 626.517, 366.959 628.743, 368.500 630.405 C 370.150 632.186, 371 634.262, 371 636.512 C 371 638.387, 371.563 640.373, 372.250 640.926 C 378.600 646.029, 381.247 648.673, 383.159 651.820 C 384.388 653.844, 385.649 655.725, 385.961 656 C 386.971 656.892, 394.637 666.460, 395.439 667.831 C 395.868 668.564, 397.283 673.514, 398.583 678.831 C 400.597 687.068, 400.951 691.063, 400.974 705.803 C 400.999 722.591, 401.074 723.216, 403.500 726.785 C 405.206 729.296, 406 731.826, 406 734.754 C 406 740.115, 401.265 750.860, 397.649 753.704 C 396.017 754.988, 395 756.770, 395 758.347 C 395 760.453, 395.664 761.089, 398.750 761.943 C 401.204 762.621, 402.615 762.637, 402.833 761.990 C 403.017 761.445, 403.917 760.998, 404.833 760.996 C 405.750 760.994, 407.996 760.081, 409.824 758.966 C 412.811 757.145, 413.928 757.032, 420.824 757.847 C 425.046 758.347, 431.875 759.717, 436 760.892 C 452.462 765.580, 452.690 765.604, 454.861 762.923 L 456.805 760.522 460.906 762.827 C 466.439 765.937, 469.923 765.431, 471.375 761.307 C 471.994 759.552, 476.663 753.537, 481.750 747.941 C 490.230 738.615, 491 737.429, 491 733.705 C 491 731.470, 491.536 728.160, 492.190 726.350 C 493.124 723.769, 493.826 723.162, 495.440 723.539 C 497.165 723.942, 497.961 722.982, 500.337 717.629 C 503.055 711.506, 503.107 711.107, 501.570 708.136 C 500.688 706.430, 499.685 702.984, 499.342 700.479 C 498.744 696.112, 495.523 692, 492.701 692 C 491.410 692, 478.586 680.938, 474.281 676.110 C 472.510 674.124, 470.793 671.294, 470.466 669.819 C 470.139 668.345, 469.338 666.714, 468.686 666.195 C 467.120 664.949, 453.440 660.338, 449.016 659.565 C 446.919 659.199, 443.932 657.434, 441.516 655.134 C 437.696 651.499, 427.862 645, 426.181 645 C 424.484 645, 419 638.283, 419 636.205 C 419 633.104, 412.514 626.272, 408.793 625.454 C 407.090 625.080, 402.502 623.304, 398.598 621.507 C 394.617 619.674, 388.938 617.959, 385.664 617.601 C 382.454 617.250, 378.539 616.296, 376.964 615.481 C 375.388 614.667, 371.993 614, 369.419 614 L 364.738 614 365.358 617.750" stroke="#68533d" fill="#68533d" fill-opacity="0.2" fill-rule="evenodd"/><path class="svg-region-PMl" d="M 264.944 711.562 C 262.060 713.708, 260.816 714.024, 257.293 713.507 C 252.005 712.732, 245.843 715.927, 244.192 720.301 C 243.238 722.831, 243.485 724.019, 246.012 729.024 C 250.044 737.011, 253.226 739.046, 262.998 739.886 C 267.343 740.259, 271.163 740.830, 271.488 741.154 C 271.812 741.479, 269.698 742.520, 266.789 743.468 C 263.880 744.415, 260.938 745.653, 260.250 746.218 C 258.450 747.697, 258.706 751.180, 261.054 757.138 C 264.272 765.301, 267.934 769.223, 274.385 771.416 C 279.371 773.111, 280.612 773.181, 285.655 772.053 C 289.680 771.152, 292.332 769.803, 294.814 767.392 C 297.372 764.907, 299.202 764, 301.653 764 C 303.494 764, 305 763.535, 305 762.968 C 305 762.400, 305.788 761.602, 306.750 761.194 C 310.199 759.731, 316 755.785, 316 754.901 C 316 754.406, 315.100 754, 314 754 C 312.900 754, 312 753.403, 312 752.674 C 312 750.851, 316.262 747, 318.281 747 C 320.498 747, 327.033 743.922, 329.452 741.738 C 331.236 740.127, 331.267 739.838, 329.814 738.386 C 328.473 737.044, 328.424 736.412, 329.502 734.334 C 330.915 731.610, 330.493 728.654, 328.448 726.957 C 326.495 725.336, 317.563 723.072, 309.196 722.077 C 302.471 721.277, 301.637 720.913, 298.669 717.480 C 295.174 713.437, 290.477 711.931, 280.243 711.570 C 277.351 711.469, 274.449 710.849, 273.793 710.193 C 271.895 708.295, 268.663 708.796, 264.944 711.562" stroke="#90cf92" fill="#90cf92" fill-opacity="0.2" fill-rule="evenodd"/><path class="svg-region-LPVl" d="M 371.669 644.421 C 371.369 645.203, 368.644 647.714, 365.613 650.002 C 361.534 653.082, 357.298 655.021, 349.301 657.467 C 343.361 659.285, 336.925 661.589, 335 662.587 C 333.075 663.586, 328.800 664.581, 325.500 664.798 C 318.489 665.260, 310.518 668.827, 301.500 675.539 C 298.200 677.995, 293.551 681.241, 291.170 682.753 C 288.788 684.264, 284.288 687.123, 281.170 689.106 C 276.128 692.313, 271.594 694.141, 261.500 697.038 C 259.850 697.512, 254.608 698.205, 249.852 698.579 C 241.224 699.257, 241.195 699.251, 237.293 696.115 C 234.439 693.822, 232.450 693.013, 229.940 693.125 C 228.048 693.210, 225.038 692.668, 223.250 691.920 C 220.515 690.777, 219.485 690.776, 216.750 691.915 C 214.963 692.660, 212.488 693.256, 211.250 693.240 C 209.107 693.213, 209 693.581, 209 701.005 C 209 707.548, 209.577 710.301, 212.591 718.150 C 216.810 729.135, 221.176 733.949, 226.950 733.981 C 229.633 733.996, 230.133 733.733, 229.200 732.800 C 226.850 730.450, 228.055 730.100, 231.500 732.133 C 234.853 734.111, 235.566 735.721, 235.149 740.369 C 235.024 741.764, 235.478 742.108, 236.940 741.726 C 238.760 741.250, 251.112 746.712, 253.407 749.007 C 255.173 750.773, 257.575 750.066, 259.734 747.145 C 261.393 744.903, 263.201 744.013, 268.172 742.994 C 273.504 741.901, 274.107 741.579, 272 740.948 C 270.625 740.536, 267.008 740.155, 263.962 740.100 C 255.157 739.941, 250.191 736.875, 246.347 729.224 C 243.621 723.799, 243.341 722.556, 244.284 720.057 C 245.845 715.923, 252.534 712.742, 257.873 713.596 C 261.319 714.147, 262.386 713.853, 265.038 711.622 C 268.373 708.816, 271.852 708.252, 273.802 710.202 C 274.464 710.864, 277.141 711.465, 279.752 711.538 C 289.947 711.823, 294.860 713.438, 298.984 717.860 C 302.356 721.477, 303.391 722.001, 307.172 722.008 C 313.675 722.020, 327.183 725.529, 328.697 727.601 C 330.328 729.831, 330.385 734.215, 328.804 735.796 C 327.875 736.725, 328.043 737.329, 329.554 738.496 C 331.474 739.980, 331.475 740.020, 329.573 741.490 C 326.985 743.490, 327.812 744.043, 334.144 744.545 C 341.014 745.090, 348.112 747.147, 347.695 748.471 C 347.517 749.037, 346.376 749.949, 345.160 750.498 C 340.741 752.493, 343.106 754.453, 351.012 755.349 C 359.888 756.356, 361.355 756.344, 370.500 755.191 C 378.316 754.205, 380.965 755.197, 377.250 757.717 C 373.657 760.155, 374.594 761.123, 379.872 760.423 C 383.029 760.004, 384.986 760.168, 385.431 760.888 C 385.809 761.500, 388.116 762, 390.559 762 C 394.860 762, 395 761.902, 395 758.894 C 395 756.725, 395.799 755.159, 397.649 753.704 C 401.291 750.840, 406.008 740.106, 405.969 734.772 C 405.949 732.024, 405.058 729.073, 403.474 726.500 C 401.110 722.662, 401.010 721.813, 401.005 705.498 C 401.001 690.853, 400.662 687.132, 398.565 678.662 C 397.226 673.254, 395.538 667.989, 394.815 666.964 C 391.031 661.599, 381.251 649.089, 378.619 646.250 C 375.434 642.812, 372.575 642.060, 371.669 644.421" stroke="#494949" fill="#494949" fill-opacity="0.2" fill-rule="evenodd"/><path class="svg-region-Fl" d="M 305.956 532.457 C 300.815 535.715, 298.618 536.876, 290.750 540.495 C 282.856 544.125, 273.664 550.338, 271.659 553.398 C 270.721 554.829, 269.527 556, 269.006 556 C 268.485 556, 266.128 557.361, 263.768 559.024 C 261.408 560.687, 257.683 562.323, 255.489 562.659 C 248.337 563.754, 234.974 573.402, 231.635 579.881 C 230.609 581.872, 228.490 584.695, 226.927 586.155 C 225.363 587.616, 223.177 591.392, 222.067 594.548 C 220.958 597.704, 219.426 601.010, 218.662 601.893 C 216.379 604.536, 214.120 611.998, 213.029 620.500 C 212.464 624.900, 211.571 630.525, 211.044 633 C 210.517 635.475, 209.328 644.700, 208.402 653.500 C 206.564 670.968, 207.078 689.357, 209.497 692.665 C 210.749 694.377, 210.979 694.381, 214.439 692.730 C 218.936 690.586, 221.896 690.539, 224.788 692.564 C 227.056 694.153, 231 693.720, 231 691.883 C 231 691.343, 230.338 689.620, 229.529 688.055 C 228.719 686.490, 227.763 683.367, 227.402 681.115 C 226.849 677.654, 227.152 676.489, 229.360 673.595 C 230.797 671.711, 232.779 667.994, 233.765 665.335 C 235.084 661.780, 236.808 659.574, 240.279 657.002 C 244.776 653.670, 246.177 650.845, 244 649.500 C 242.004 648.266, 243.075 644.247, 246.421 640.417 C 249.408 636.996, 250.074 636.659, 251.671 637.756 C 255.170 640.160, 256.239 640.290, 259.016 638.650 C 262.900 636.355, 266.711 636.513, 267.500 639.001 C 267.849 640.101, 269.641 642.150, 271.482 643.554 C 274.516 645.868, 274.746 646.398, 273.939 649.214 C 273.449 650.922, 272.063 653.368, 270.859 654.650 C 268.823 656.817, 268.785 657.105, 270.306 658.785 C 272.454 661.159, 286.178 663.677, 289.862 662.374 C 291.665 661.736, 296.617 662.020, 305.500 663.270 C 321.712 665.552, 329.715 665.197, 337 661.875 C 340.025 660.496, 345.425 658.577, 349 657.611 C 357.937 655.195, 363.246 652.443, 368.612 647.447 C 372.561 643.769, 373.029 642.923, 372.088 641.164 C 371.490 640.046, 371 637.907, 371 636.410 C 371 634.913, 369.946 632.296, 368.657 630.594 C 366.972 628.369, 366.140 625.604, 365.695 620.750 C 365.121 614.499, 365.220 614, 367.038 614 C 368.117 614, 369 613.753, 369 613.450 C 369 612.250, 365.559 606.249, 362.309 601.782 C 360.421 599.187, 357.785 594.280, 356.452 590.877 C 355.118 587.475, 353.423 583.748, 352.683 582.595 C 351.944 581.443, 350.065 576.900, 348.508 572.500 C 346.951 568.100, 344.625 563.068, 343.339 561.317 C 342.052 559.566, 341 557.679, 341 557.123 C 341 556.568, 340.166 555.525, 339.146 554.807 C 338.127 554.088, 335.842 550.489, 334.070 546.810 C 332.298 543.130, 330.256 539.627, 329.532 539.026 C 328.808 538.425, 327.706 536.711, 327.083 535.217 C 326.235 533.181, 324.619 532.061, 320.639 530.750 C 313.376 528.357, 312.212 528.493, 305.956 532.457" stroke="#5ca7a9" fill="#5ca7a9" fill-opacity="0.2" fill-rule="evenodd"/><path class="svg-region-PCl" d="M 246.104 640.535 C 242.628 644.494, 242.430 645.776, 244.419 651.490 C 245.548 654.736, 246.403 655.603, 248.996 656.133 C 250.750 656.492, 252.684 657.284, 253.293 657.893 C 253.902 658.502, 257.150 659, 260.510 659 C 266.004 659, 266.943 658.685, 269.813 655.879 C 271.569 654.162, 273.383 651.349, 273.843 649.629 C 274.599 646.807, 274.304 646.147, 270.841 642.904 C 268.728 640.926, 267 638.788, 267 638.154 C 267 636.459, 260.459 636.742, 259 638.500 C 258.315 639.325, 256.965 640, 256 640 C 255.035 640, 253.685 639.325, 253 638.500 C 251.094 636.203, 249.492 636.676, 246.104 640.535" stroke="#465ee0" fill="#465ee0" fill-opacity="0.2" fill-rule="evenodd"/><path class="svg-region-SB" d="M 899.500 132.472 C 885.898 134.637, 872.263 140.410, 856.143 150.829 C 842.810 159.447, 830.027 171.371, 826.649 178.342 C 823.468 184.908, 821.725 198.267, 822.632 209.137 C 823.456 219.016, 825.467 221.682, 834.198 224.470 C 839.071 226.026, 840.524 226.113, 844.245 225.071 C 847.935 224.038, 849.226 224.106, 852.762 225.521 C 855.699 226.697, 858.491 227.021, 862.215 226.619 C 865.122 226.306, 871.564 225.686, 876.532 225.241 C 886.791 224.323, 890.982 222.336, 895.987 216.016 C 897.797 213.731, 900.264 211.881, 902.014 211.497 C 903.644 211.139, 905.217 210.458, 905.510 209.984 C 906.865 207.791, 917.140 203.038, 923 201.893 C 926.575 201.195, 930.116 200.146, 930.869 199.562 C 931.622 198.978, 937.247 196.025, 943.369 193 C 954.153 187.672, 954.588 187.328, 957.330 182 C 959.991 176.830, 960.124 175.990, 959.540 168 C 958.564 154.635, 956.178 149.325, 949.071 144.700 C 947.107 143.422, 943.025 140.758, 940 138.780 C 933.292 134.394, 921.435 130.966, 913.436 131.099 C 910.171 131.153, 903.900 131.771, 899.500 132.472" stroke="#d2e400" fill="#d2e400" fill-opacity="0.2" fill-rule="evenodd"/><path class="svg-region-VOC" d="M 496.067 503.630 C 489.852 509.863, 488.016 513.980, 488.006 521.706 C 488.002 524.549, 488.810 527.104, 490.500 529.595 C 491.875 531.621, 493 533.925, 493 534.714 C 493 535.503, 494.800 539.566, 497 543.742 C 499.200 547.917, 501 551.834, 501 552.445 C 501 553.056, 501.788 554.271, 502.750 555.145 C 503.712 556.020, 506.299 559.287, 508.497 562.405 C 511.401 566.524, 513.041 567.996, 514.497 567.787 C 516.227 567.539, 516.663 566.263, 517.700 558.419 C 518.359 553.425, 519.822 546.009, 520.950 541.939 C 523.545 532.572, 523.558 528.815, 521 526.500 C 519.246 524.913, 519 523.420, 519 514.359 L 519 504.028 515.250 501.585 C 513.188 500.242, 509.344 498.832, 506.710 498.452 L 501.919 497.761 496.067 503.630" stroke="#ff8f93" fill="#ff8f93" fill-opacity="0.2" fill-rule="evenodd"/><path class="svg-region-OABl" d="M 625.021 452.478 C 622.046 455.491, 618.106 458.671, 616.266 459.544 C 613.805 460.712, 612.155 462.712, 610.024 467.111 C 608.431 470.399, 605.724 474.690, 604.007 476.645 C 600.169 481.016, 600.166 485.112, 604 486 C 606.137 486.495, 606.546 487.225, 606.819 491.020 C 607.218 496.585, 608.379 498, 612.545 498 C 616.137 498, 616.745 496.943, 618.938 486.897 C 620.299 480.659, 626.323 470.173, 630.679 466.459 L 634.245 463.417 633.518 455.209 C 633.055 449.978, 632.364 447, 631.612 447 C 630.963 447, 627.997 449.465, 625.021 452.478" stroke="#81244d" fill="#81244d" fill-opacity="0.2" fill-rule="evenodd"/><path class="svg-region-SOTl" d="M 498.738 450.761 C 494.292 453.646, 492.719 455.339, 491.852 458.175 C 490.379 462.992, 491.126 464.612, 495.170 465.378 C 497.002 465.725, 499.848 467.087, 501.495 468.405 C 504.369 470.706, 504.419 470.879, 502.745 472.730 C 500.252 475.484, 500.706 480.756, 503.887 486 C 506.948 491.046, 510.397 492.237, 514.210 489.565 C 515.439 488.704, 517.023 488, 517.729 488 C 518.435 488, 520.984 491.074, 523.392 494.831 C 527.730 501.600, 532.981 505.489, 534.953 503.394 C 537.285 500.918, 540 494.096, 540 490.715 C 540 485.458, 537.965 481.994, 531.884 476.903 C 523.899 470.217, 521 465.655, 521 459.773 C 521 455.664, 520.516 454.362, 518.084 451.930 C 512.050 445.896, 506.732 445.575, 498.738 450.761" stroke="#995b45" fill="#995b45" fill-opacity="0.2" fill-rule="evenodd"/><path class="svg-region-LBPCl" d="M 417.474 631.950 C 418.313 633.573, 419 635.762, 419 636.814 C 419 639.605, 423.232 643.395, 431.352 647.876 C 435.283 650.045, 440.046 653.431, 441.936 655.400 C 444.148 657.704, 446.642 659.184, 448.936 659.554 C 452.722 660.164, 459.140 662.224, 465.158 664.761 C 467.843 665.893, 469.218 667.328, 470.328 670.152 C 471.159 672.269, 472.526 674.265, 473.365 674.586 C 474.221 674.915, 476.904 673.786, 479.481 672.013 C 482.007 670.275, 486.194 668.148, 488.786 667.285 C 495.387 665.089, 496.662 663.957, 494.399 662.303 C 493.419 661.586, 492.005 661, 491.256 661 C 488.784 661, 467.553 650.248, 464.794 647.599 C 463.175 646.044, 460.945 645, 459.244 645 C 457.680 645, 455.973 644.622, 455.450 644.160 C 454.928 643.698, 450.900 642.337, 446.500 641.135 C 433.800 637.667, 431.625 636.874, 429.500 634.942 C 427.301 632.943, 419.243 629.057, 417.224 629.022 C 416.248 629.005, 416.307 629.692, 417.474 631.950" stroke="#daffff" fill="#daffff" fill-opacity="0.2" fill-rule="evenodd"/><path class="svg-region-PNl" d="M 239.911 657.238 C 237.125 659.362, 234.975 662.058, 234.013 664.632 C 233.181 666.860, 231.214 670.618, 229.642 672.983 C 227.393 676.368, 226.903 678.017, 227.344 680.732 C 228.181 685.890, 231.116 693, 232.408 693 C 233.033 693, 235.254 694.409, 237.344 696.132 C 241.143 699.263, 241.143 699.263, 249.792 698.562 C 254.548 698.176, 260.704 697.266, 263.470 696.541 C 272.099 694.279, 279 691.804, 279 690.971 C 279 690.532, 282.223 688.315, 286.161 686.044 C 290.100 683.773, 294.712 680.783, 296.411 679.400 C 301.594 675.178, 309.265 670.180, 313.892 668.010 C 316.307 666.877, 317.982 665.649, 317.614 665.281 C 316.176 663.843, 292.543 661.274, 290.250 662.307 C 287.255 663.657, 274.436 661.402, 270.803 658.886 C 269.180 657.762, 267.863 657.413, 267.494 658.009 C 266.525 659.577, 254.785 659.152, 252.559 657.468 C 251.491 656.661, 249.669 656, 248.509 656 C 247.349 656, 245.926 655.526, 245.347 654.947 C 244.610 654.210, 242.980 654.897, 239.911 657.238" stroke="#bbc0d1" fill="#bbc0d1" fill-opacity="0.2" fill-rule="evenodd"/>
    </svg>