<svg xmlns="http://www.w3.org/2000/svg" width="1078" height="1151" viewBox="0 0 1078 1151" version="1.1">
    <path class="svg-region-V" d="M 494.267 207.505 C 480.885 209.210, 473.726 210.974, 463.850 214.998 C 459.808 216.645, 455.473 217.995, 454.218 217.997 C 449.327 218.004, 444.958 221.241, 430.463 235.602 C 414.960 250.962, 409.485 257.188, 406.662 262.673 C 405.763 264.419, 402.322 269.211, 399.014 273.322 C 395.706 277.434, 393 281.078, 393 281.419 C 393 281.760, 391.772 283.943, 390.270 286.270 C 388.769 288.596, 387.082 291.224, 386.520 292.109 C 385.959 292.994, 384.003 296.537, 382.172 299.984 C 380.342 303.431, 378.424 306.757, 377.909 307.375 C 377.394 307.994, 374.181 312.775, 370.769 318 C 367.356 323.225, 363.745 328.391, 362.743 329.481 C 361.027 331.346, 359.757 333.831, 353.018 348.500 C 351.502 351.800, 349.692 357.425, 348.996 361 C 348.301 364.575, 346.667 371.263, 345.366 375.862 C 342.862 384.712, 342.183 397.613, 343.914 403.429 C 345.930 410.199, 349.330 422.808, 350.538 428 C 352.633 436.997, 353.581 439.386, 357.636 445.882 C 361.371 451.866, 361.616 452.054, 365 451.547 C 366.925 451.258, 369.833 451.017, 371.463 451.011 C 373.727 451.003, 375.614 449.758, 379.463 445.731 C 383.314 441.703, 385.809 440.057, 390.060 438.740 C 397.011 436.587, 403.146 431.421, 406.083 425.247 C 407.325 422.636, 409.559 418.700, 411.047 416.500 C 414.986 410.675, 416.997 403.847, 417.022 396.215 C 417.048 388.216, 418.761 384.049, 425.628 375.276 C 432.825 366.080, 438.329 358.251, 442.340 351.500 C 448.470 341.183, 468.685 321.787, 486.080 309.533 C 490.248 306.597, 494.850 302.779, 496.305 301.049 C 498.509 298.430, 499.279 298.079, 500.907 298.950 C 501.983 299.526, 505.912 300.704, 509.639 301.569 C 517.080 303.294, 528.532 309.950, 529.544 313.137 C 529.875 314.181, 531.693 315.681, 533.585 316.471 C 535.477 317.262, 539.157 320.118, 541.762 322.818 C 546.766 328.003, 549.982 329.999, 557.390 332.514 C 560.526 333.579, 562.488 333.757, 563.718 333.089 C 564.698 332.557, 566.706 331.868, 568.179 331.559 C 570.490 331.075, 571.012 330.257, 571.974 325.624 C 572.588 322.668, 574.397 318.189, 575.994 315.670 C 577.592 313.151, 579.376 309.319, 579.959 307.153 C 580.631 304.658, 582.515 301.864, 585.101 299.527 C 587.346 297.499, 590.020 293.947, 591.043 291.635 C 594.296 284.282, 603.558 277.096, 614.250 273.630 C 616.846 272.789, 616.648 266.982, 614 266.290 C 612.857 265.991, 612 264.926, 612 263.805 C 612 262.726, 609.398 258.616, 606.218 254.671 C 603.038 250.727, 599.898 246.262, 599.239 244.750 C 598.581 243.238, 597.284 242, 596.356 242 C 595.429 242, 591.827 239.412, 588.353 236.250 C 573.348 222.592, 566.530 217.900, 557.500 215.019 C 555.300 214.316, 552.375 213.131, 551 212.385 C 542.506 207.774, 537.713 206.808, 521.500 206.439 C 511.351 206.207, 501.393 206.597, 494.267 207.505" stroke="#dd8a8a" fill="#dd8a8a" fill-opacity="0.2" fill-rule="evenodd"/><path class="svg-region-SV" d="M 494.420 302.394 C 492.176 304.652, 487.478 308.513, 483.982 310.973 C 467.883 322.299, 447.970 341.778, 441.946 352.093 C 439.778 355.804, 436.954 360.114, 435.670 361.671 C 434.386 363.227, 431.450 367.200, 429.146 370.500 C 426.842 373.800, 423.298 378.709, 421.270 381.409 C 417.808 386.020, 417.542 386.902, 416.888 395.909 C 416.056 407.380, 415.608 409.023, 411.544 415.500 C 409.818 418.250, 407.373 422.525, 406.111 425 C 403.330 430.451, 400.491 433.649, 396.500 435.828 L 393.500 437.466 399.500 438.284 C 407.492 439.374, 411.408 439.422, 418.086 438.514 C 424.538 437.636, 427.588 438.787, 429.058 442.653 L 430.021 445.185 439.365 444.484 L 448.710 443.784 451.004 447.005 C 452.265 448.777, 454.729 450.824, 456.478 451.555 C 458.228 452.286, 460.241 453.585, 460.952 454.442 C 461.663 455.299, 462.928 456, 463.762 456 C 464.597 456, 465.805 456.719, 466.448 457.598 C 467.456 458.976, 468.179 459.027, 471.717 457.967 C 476.876 456.421, 479.450 457.069, 485.044 461.324 C 492.098 466.688, 492.693 466.660, 493.930 460.892 C 494.518 458.147, 495 455.064, 495 454.040 C 495 451.783, 500.435 447, 503 447 C 504.016 447, 506.184 445.875, 507.818 444.500 C 509.452 443.125, 511.690 442, 512.791 442 C 515.388 442, 520.617 436.021, 521.488 432.057 C 521.861 430.356, 523.749 425.935, 525.684 422.232 C 527.618 418.530, 530.051 413.238, 531.089 410.472 C 533.269 404.667, 536.867 402, 542.519 402 C 547.018 402, 550.439 398.704, 552.896 392 C 554.219 388.391, 555.071 387.439, 557.200 387.191 C 561.534 386.685, 562.487 384.675, 560.613 379.991 C 558.474 374.646, 558.607 368.462, 560.973 363.250 C 562.976 358.836, 562.912 358.667, 559.332 358.950 C 556.097 359.206, 549.304 357.161, 547.545 355.402 C 545.234 353.092, 545.513 345.487, 548 343 C 549.100 341.900, 550.571 341, 551.268 341 C 553.354 341, 560 336.040, 560 334.483 C 560 333.688, 558.763 332.741, 557.250 332.377 C 551.993 331.114, 546.472 327.708, 541.762 322.823 C 539.157 320.120, 535.452 317.251, 533.530 316.448 C 531.282 315.509, 529.812 314.098, 529.409 312.494 C 529.065 311.122, 528.351 310, 527.822 310 C 527.293 310, 524.754 308.538, 522.180 306.750 C 519.397 304.818, 514.257 302.656, 509.500 301.418 C 505.100 300.273, 500.825 299.100, 500 298.811 C 499.104 298.498, 496.857 299.941, 494.420 302.394" stroke="#c666b5" fill="#c666b5" fill-opacity="0.2" fill-rule="evenodd"/><path class="svg-region-SF" d="M 615 273.058 C 614.175 273.510, 610.800 275.055, 607.500 276.491 C 600.529 279.524, 593.665 285.793, 591.067 291.500 C 590.066 293.700, 587.381 297.288, 585.101 299.474 C 582.625 301.849, 580.542 304.987, 579.927 307.270 C 579.362 309.371, 577.622 313.103, 576.062 315.564 C 572.841 320.643, 570.249 331.190, 569.684 341.514 C 569.344 347.740, 568.756 349.465, 564.457 356.865 C 554.750 373.570, 557.140 381.531, 578.248 402.800 C 588.007 412.634, 591.582 414.372, 602.989 414.831 C 609.393 415.088, 614.181 414.739, 617.520 413.772 C 620.259 412.979, 624.369 412.524, 626.654 412.761 C 629.904 413.098, 631.261 412.739, 632.890 411.110 C 634.035 409.965, 636.830 408.731, 639.101 408.368 C 642.612 407.806, 643.661 407.028, 646.115 403.158 C 647.702 400.656, 649 397.857, 649 396.939 C 649 396.021, 649.808 394.197, 650.796 392.885 C 653.947 388.702, 658.999 376.461, 659.035 372.920 C 659.055 371.039, 659.714 368.375, 660.500 367 C 662.156 364.103, 662.465 352.519, 661.078 345.299 C 660.571 342.660, 659.589 336.900, 658.895 332.500 C 657.620 324.410, 654.260 316.509, 644.635 298.960 C 638.818 288.354, 634.891 283.028, 630.001 279.110 C 624.919 275.039, 617.124 271.894, 615 273.058" stroke="#8c6b55" fill="#8c6b55" fill-opacity="0.2" fill-rule="evenodd"/><path class="svg-region-IF" d="M 635.250 409.491 C 631.431 411.151, 631.147 412.897, 634.250 415.641 C 637.309 418.346, 642.078 421.255, 642.599 420.734 C 642.833 420.500, 643.268 417.539, 643.565 414.154 L 644.106 408 641.303 408.039 C 639.761 408.061, 637.038 408.714, 635.250 409.491" stroke="#f2823b" fill="#f2823b" fill-opacity="0.2" fill-rule="evenodd"/><path class="svg-region-PF" d="M 567 331.652 C 563.633 332.761, 560.455 334.646, 557.629 337.210 C 555.986 338.700, 553.373 340.198, 551.822 340.539 C 548.022 341.374, 546 344.563, 546 349.723 C 546 355.477, 548.315 357.646, 555.402 358.531 C 558.463 358.913, 561.584 358.990, 562.337 358.701 C 563.091 358.412, 564.987 355.998, 566.551 353.338 C 568.943 349.269, 569.462 347.109, 569.820 339.750 C 570.053 334.938, 569.852 331.036, 569.372 331.079 C 568.893 331.122, 567.825 331.380, 567 331.652 M 560.500 386 C 560.160 386.550, 558.788 387, 557.451 387 C 555.428 387, 554.526 388.090, 552.077 393.491 C 550.107 397.834, 548.284 400.369, 546.567 401.152 C 539.050 404.576, 548.665 426.217, 560.353 432.180 C 562.618 433.335, 567.268 434.493, 570.777 434.774 C 576.478 435.232, 577.165 435.085, 577.631 433.305 C 577.915 432.217, 580.027 430.383, 582.324 429.230 C 589.460 425.648, 599.460 418.568, 599.787 416.865 C 600.015 415.684, 599.064 415.052, 596.300 414.546 C 594.210 414.164, 590.642 412.773, 588.371 411.454 C 584.036 408.938, 568.080 392.637, 565.231 387.814 C 563.536 384.944, 561.609 384.205, 560.500 386" stroke="#faaaaa" fill="#faaaaa" fill-opacity="0.2" fill-rule="evenodd"/><path class="svg-region-AAB" d="M 640.305 437.499 C 639.128 438.324, 636.063 442.936, 633.495 447.749 C 629.381 455.460, 628.907 456.976, 629.511 460.500 C 630.898 468.601, 630.664 470.332, 628 471.668 C 624.384 473.482, 622.115 476.656, 620.854 481.667 C 619.517 486.977, 616.919 489, 611.438 489 C 607.997 489, 607.131 489.418, 606.161 491.547 C 605.522 492.948, 605 494.705, 605 495.451 C 605 496.627, 590.219 512.976, 584.500 518.128 C 573.052 528.438, 566.904 535.671, 563.360 543 C 561.897 546.025, 559.418 551.032, 557.850 554.127 C 554.443 560.854, 553.851 570.915, 556.631 574.883 C 558.518 577.577, 563.703 579.986, 567.718 580.033 C 569.248 580.051, 572.975 580.936, 576 582 C 582.511 584.290, 588.539 584.479, 592 582.500 C 593.375 581.714, 595.901 581.055, 597.612 581.035 C 599.561 581.013, 602.178 579.834, 604.612 577.880 C 606.751 576.164, 610.439 573.918, 612.808 572.890 C 618.006 570.635, 630.574 558.340, 634.422 551.745 C 635.948 549.129, 637.714 546.654, 638.348 546.245 C 638.982 545.835, 641.013 541.900, 642.862 537.500 C 644.712 533.100, 647.670 526.056, 649.436 521.847 C 651.386 517.200, 653.120 510.718, 653.851 505.347 C 654.513 500.481, 655.482 494.025, 656.005 491 C 659.316 471.831, 659.485 453.417, 656.404 447.478 C 655.632 445.989, 655 443.902, 655 442.840 C 655 441.778, 653.895 439.805, 652.545 438.455 C 649.674 435.583, 643.706 435.117, 640.305 437.499" stroke="#7f3c1a" fill="#7f3c1a" fill-opacity="0.2" fill-rule="evenodd"/><path class="svg-region-APB" d="M 617.500 413.586 C 614.750 414.342, 609.943 414.970, 606.818 414.981 C 601.781 414.998, 600.910 415.312, 599.142 417.750 C 598.045 419.262, 592.850 422.975, 587.596 426 C 582.343 429.025, 578.035 431.984, 578.022 432.576 C 577.986 434.327, 573.528 438, 571.436 438.003 C 570.289 438.004, 564.317 443.204, 556.793 450.753 C 545.689 461.891, 543.613 464.510, 540.344 471.500 C 535.807 481.199, 534.782 490.673, 537.476 498 C 538.386 500.475, 539.972 505.650, 541.001 509.500 C 542.030 513.350, 543.788 519.120, 544.907 522.323 C 547.429 529.538, 556.264 546.024, 558.875 548.387 C 560.741 550.076, 560.834 550.037, 561.472 547.319 C 562.785 541.723, 575.289 525.273, 581.455 521.031 C 583.914 519.339, 586.280 517.327, 586.713 516.560 C 587.146 515.793, 591.325 511.158, 596 506.260 C 601.741 500.245, 604.885 496.079, 605.686 493.427 C 606.485 490.783, 606.535 489.381, 605.839 489.134 C 603.813 488.417, 598 482.770, 598 481.519 C 598 480.818, 598.621 479.730, 599.379 479.100 C 600.138 478.470, 601.037 476.563, 601.378 474.862 C 601.718 473.160, 603.347 470.230, 604.998 468.349 C 606.649 466.469, 608 464.529, 608 464.038 C 608 463.547, 610.813 461.445, 614.250 459.367 C 617.688 457.289, 622.853 453.094, 625.728 450.044 C 630.100 445.408, 630.960 444.858, 630.978 446.685 C 630.990 447.887, 630.536 450.091, 629.968 451.584 C 628.002 456.756, 631.770 452.213, 635.163 445.321 C 638.843 437.845, 641.024 436, 646.178 436 L 649.911 436 648.572 432.250 C 646.044 425.173, 643.490 421.937, 637 417.591 C 629.494 412.564, 624.752 411.590, 617.500 413.586" stroke="#ac7444" fill="#ac7444" fill-opacity="0.2" fill-rule="evenodd"/><path class="svg-region-PC" d="M 535.930 403.478 C 534.517 404.246, 532.540 406.816, 531.538 409.188 C 530.536 411.559, 527.753 417.550, 525.353 422.500 C 522.953 427.450, 520.992 432.272, 520.995 433.215 C 520.998 434.159, 519.592 436.534, 517.871 438.494 C 514.839 441.947, 514.798 442.119, 516.535 444.039 C 517.660 445.282, 518.800 449.211, 519.594 454.581 C 521.163 465.192, 525.529 474.624, 531.537 480.381 L 535.931 484.591 536.586 481.545 C 536.947 479.870, 538.820 475.159, 540.749 471.076 C 543.764 464.693, 546.085 461.852, 557.291 450.826 C 564.460 443.772, 570.891 438, 571.581 438 C 573.486 438, 576 436.880, 576 436.032 C 576 435.617, 573.380 435.040, 570.178 434.750 C 562.558 434.059, 557.207 431.220, 552.158 425.188 C 547 419.028, 544 412.125, 544 406.417 C 544 402.255, 543.841 402.002, 541.250 402.040 C 539.737 402.062, 537.344 402.709, 535.930 403.478 M 534.716 491.297 C 534.357 492.234, 533.436 493, 532.669 493 C 531.902 493, 529.591 494.339, 527.532 495.974 C 525.474 497.610, 522.232 499.241, 520.328 499.598 C 517.418 500.144, 516.407 499.806, 513.968 497.469 L 511.068 494.691 510.034 497.411 C 508.276 502.035, 508.851 504.358, 512.289 506.516 C 516.892 509.406, 518.881 515.482, 517.105 521.229 C 514.623 529.260, 514.584 534.518, 516.982 537.762 C 519.060 540.573, 519.087 540.904, 517.650 546.095 C 516.826 549.068, 515.848 554.200, 515.475 557.500 C 514.626 565.017, 513.580 567, 510.465 567 C 508.441 567, 508.001 567.493, 508.005 569.750 C 508.010 572.671, 510.917 580.257, 515.197 588.517 C 516.627 591.276, 518.304 595.415, 518.923 597.714 C 520.127 602.187, 524.792 607.590, 528.747 609.094 C 530.612 609.803, 531.744 609.560, 533.685 608.033 C 535.070 606.944, 537.728 605.766, 539.592 605.417 C 542.550 604.862, 543.118 604.253, 544.047 600.640 C 546.369 591.617, 546.985 590.529, 550.774 588.769 C 553.095 587.691, 555.360 585.523, 556.780 583.019 C 558.034 580.809, 559.544 579, 560.136 579 C 560.727 579, 559.814 577.694, 558.106 576.099 C 555.228 573.410, 555 572.705, 555 566.484 C 555 561.104, 555.529 558.798, 557.665 554.875 L 560.329 549.979 558.283 547.740 C 554.703 543.823, 546.341 526.683, 543.495 517.432 C 541.985 512.519, 540.096 506.475, 539.298 504 C 538.501 501.525, 537.291 497.271, 536.609 494.547 C 535.751 491.118, 535.169 490.118, 534.716 491.297" stroke="#cda789" fill="#cda789" fill-opacity="0.2" fill-rule="evenodd"/><path class="svg-region-DB" d="M 387.257 439.303 C 384.783 439.932, 382.785 441.103, 382.464 442.113 C 382.162 443.065, 380.133 445.454, 377.954 447.422 C 374.804 450.269, 373.177 451, 369.997 451 C 366.258 451, 366 451.186, 366 453.886 C 366 455.473, 366.672 458.060, 367.494 459.636 C 368.315 461.211, 369.005 463.175, 369.027 464 C 369.064 465.453, 382.450 475.149, 386.500 476.658 C 387.600 477.068, 390.025 478.437, 391.890 479.702 C 394.342 481.365, 396.706 482, 400.440 482 C 403.278 482, 406.027 482.391, 406.550 482.869 C 407.072 483.347, 410.222 484.637, 413.548 485.735 C 417.101 486.909, 421.217 489.217, 423.523 491.330 C 429.388 496.702, 435.681 499.666, 442.676 500.350 C 448.195 500.890, 456.180 503.753, 459.828 506.500 C 463.823 509.508, 466.812 512.765, 467.448 514.801 C 468.454 518.020, 473.553 523, 475.844 523 C 476.895 523, 478.315 523.675, 479 524.500 C 480.806 526.677, 482 526.341, 482 523.657 C 482 522.369, 483.048 519.331, 484.330 516.907 C 486.047 513.659, 487.400 512.368, 489.473 512 C 491.020 511.725, 492.672 510.712, 493.143 509.750 C 495.808 504.308, 495.478 504.490, 502.279 504.711 L 508.785 504.922 509.450 500.484 C 509.816 498.044, 510.541 495.784, 511.060 495.463 C 511.620 495.117, 511.648 494.189, 511.131 493.189 C 510.649 492.260, 509.931 489.263, 509.533 486.528 C 509.076 483.379, 508.112 481.067, 506.905 480.221 C 505.857 479.487, 505 478.202, 505 477.366 C 505 474.619, 499.405 470, 496.077 470 C 493.677 470, 493 469.564, 493 468.020 C 493 466.766, 491.627 465.286, 489.250 463.980 C 487.188 462.847, 483.971 460.813, 482.102 459.460 C 478.331 456.730, 475.897 456.443, 470.996 458.151 C 468.205 459.124, 467.507 459.047, 466.487 457.651 C 465.823 456.743, 464.611 456, 463.795 456 C 462.978 456, 461.532 455.140, 460.581 454.090 C 459.631 453.039, 457.819 451.920, 456.555 451.603 C 455.292 451.286, 453.014 449.397, 451.495 447.404 L 448.732 443.782 439.376 444.484 L 430.021 445.185 429.058 442.653 C 427.588 438.787, 424.538 437.636, 418.086 438.514 C 412.343 439.295, 410.505 439.305, 398.500 438.623 C 394.650 438.404, 389.591 438.710, 387.257 439.303" stroke="#e8b1e4" fill="#e8b1e4" fill-opacity="0.2" fill-rule="evenodd"/><path class="svg-region-MB" d="M 372 468.606 C 372 468.939, 373.125 470.548, 374.500 472.182 C 375.875 473.816, 377 475.984, 377 477 C 377 478.016, 378.139 480.200, 379.531 481.854 C 381.133 483.758, 382.790 487.914, 384.046 493.181 C 385.138 497.756, 386.474 502.882, 387.016 504.571 C 387.557 506.260, 388.014 508.510, 388.032 509.571 C 388.049 510.632, 388.724 512.374, 389.532 513.441 C 390.339 514.509, 391 516.655, 391 518.210 C 391 519.765, 391.939 524.516, 393.086 528.768 C 394.233 533.021, 395.580 540.747, 396.078 545.937 C 397.415 559.868, 397.021 559.344, 403.794 556.199 C 412.895 551.973, 420.792 552.636, 431 558.486 C 432.375 559.274, 438.013 564.324, 443.529 569.709 C 449.046 575.094, 455.571 581.300, 458.029 583.500 C 463.283 588.200, 466.512 592.596, 470.149 600 C 472.015 603.797, 478.711 609.645, 486.500 614.280 C 490.350 616.572, 494.094 619.254, 494.820 620.241 C 495.545 621.229, 498.384 623.174, 501.128 624.565 C 505.162 626.609, 507.287 627.036, 512.240 626.796 C 518.080 626.514, 518.400 626.363, 519.149 623.551 C 519.602 621.849, 522.347 618.444, 525.640 615.498 L 531.347 610.394 526.804 607.731 C 522.756 605.358, 519 600.312, 519 597.245 C 519 596.721, 516.525 591.086, 513.500 584.722 C 510.475 578.358, 507.998 571.879, 507.996 570.325 C 507.993 567.676, 504.791 561.167, 502.895 559.954 C 502.010 559.388, 494.317 548.496, 486.497 536.740 C 484.024 533.022, 482 529.394, 482 528.678 C 482 526.543, 478.296 523.224, 475.140 522.531 C 472.444 521.939, 467 515.910, 467 513.517 C 467 511.744, 459.654 505.988, 454.209 503.495 C 451.124 502.083, 445.878 500.655, 442.550 500.322 C 435.413 499.609, 431.296 497.712, 423.929 491.744 C 420.943 489.326, 416.025 486.503, 413 485.472 C 409.975 484.440, 407.072 483.237, 406.550 482.798 C 406.027 482.359, 403.283 482, 400.450 482 C 396.386 482, 394.373 481.372, 390.900 479.018 C 388.480 477.378, 386.105 476.028, 385.621 476.018 C 385.138 476.008, 382.106 474.200, 378.883 472 C 372.991 467.978, 372 467.490, 372 468.606" stroke="#f9c6c6" fill="#f9c6c6" fill-opacity="0.2" fill-rule="evenodd"/><path class="svg-region-LBl" d="M 406 555.261 L 399.500 557.583 399.206 565.386 C 399.045 569.678, 399.342 573.709, 399.868 574.345 C 400.848 575.530, 402.559 583.830, 403.557 592.238 C 403.866 594.844, 404.780 597.637, 405.588 598.445 C 406.589 599.446, 407.002 601.758, 406.887 605.707 C 406.766 609.822, 407.362 612.948, 408.944 616.500 C 410.169 619.250, 411.410 623.750, 411.702 626.500 C 412.170 630.923, 412.654 631.767, 415.895 633.812 C 417.910 635.083, 421.346 638.645, 423.530 641.727 C 427.876 647.861, 430.966 651.368, 431.528 650.805 C 431.727 650.606, 431.511 648.766, 431.048 646.715 C 430.270 643.265, 430.393 642.939, 432.695 642.362 C 434.876 641.814, 441.538 643.375, 448.817 646.139 C 450.092 646.622, 456.761 647.536, 463.638 648.169 L 476.142 649.319 478.821 652.834 C 482.581 657.768, 492.002 661.828, 502.736 663.141 C 510.373 664.075, 511.416 664.008, 512.244 662.529 C 512.755 661.615, 516.521 656.846, 520.611 651.931 L 528.049 642.995 526.386 639.747 C 525.471 637.961, 523.435 635.022, 521.861 633.215 C 520.288 631.409, 519 629.271, 519 628.465 C 519 627.337, 517.563 626.995, 512.750 626.978 C 505.875 626.954, 500.101 624.850, 495.385 620.649 C 493.798 619.236, 488.450 615.382, 483.500 612.085 C 478.550 608.788, 473.946 605.282, 473.268 604.295 C 470.335 600.019, 467.398 595.302, 466.081 592.750 C 465.301 591.237, 464.288 590, 463.831 590 C 463.374 590, 463 589.354, 463 588.564 C 463 587.775, 459.738 584.438, 455.750 581.150 C 451.762 577.862, 445.198 571.764, 441.163 567.599 C 437.128 563.434, 432.628 559.361, 431.163 558.549 C 420.594 552.688, 415.181 551.980, 406 555.261" stroke="#d7b230" fill="#d7b230" fill-opacity="0.2" fill-rule="evenodd"/><path class="svg-region-LPl" d="M 605.877 577 C 602.593 579.468, 599.471 581, 597.727 581 C 596.173 581, 593.490 581.729, 591.766 582.621 C 588.119 584.507, 580.138 584.058, 574.818 581.668 C 572.993 580.848, 568.782 579.900, 565.461 579.563 L 559.421 578.948 556.155 583.582 C 554.359 586.130, 551.553 588.720, 549.919 589.337 C 547.383 590.294, 546.651 591.457, 544.916 597.283 C 543.644 601.553, 542.250 604.310, 541.192 604.648 C 535.854 606.351, 533.783 607.741, 526.750 614.334 C 519.511 621.121, 519 621.872, 519 625.723 C 519 628.590, 519.719 630.708, 521.359 632.673 C 523.972 635.804, 527 641.322, 527 642.953 C 527 643.532, 523.849 647.860, 519.999 652.571 C 516.148 657.282, 512.590 661.898, 512.092 662.829 C 509.797 667.116, 507.001 676.814, 507.006 680.465 C 507.017 688.786, 508.512 691.391, 518.619 700.701 C 529.534 710.755, 531.379 711.919, 537.185 712.411 C 541.288 712.759, 552.507 710.525, 554.500 708.963 C 557.062 706.954, 568.546 705, 577.784 705 C 583.281 705, 591.316 704.358, 595.640 703.574 C 614.060 700.231, 629.240 700.633, 636.973 704.669 C 638.363 705.394, 640.232 705.990, 641.128 705.994 C 642.023 705.997, 643.297 706.652, 643.958 707.450 C 645.755 709.615, 652.804 712.680, 658.834 713.919 L 664.167 715.015 669.281 710.007 C 672.161 707.187, 675.319 705, 676.510 705 C 679.444 705, 683.576 700.314, 685.044 695.322 C 685.984 692.127, 686.006 690.081, 685.137 686.629 C 684.512 684.146, 684 680.570, 684 678.683 C 684 676.796, 683.300 673.282, 682.445 670.876 C 681.590 668.469, 680.254 663.195, 679.475 659.156 C 677.699 649.935, 674.426 642.740, 667.972 633.867 C 661.151 624.488, 659.381 622.838, 653.599 620.467 C 649.850 618.929, 648.108 617.468, 646.447 614.467 C 645.239 612.285, 642.813 609.799, 641.055 608.942 C 639.297 608.084, 636.428 605.949, 634.680 604.197 C 630.484 599.992, 623.997 594.919, 620.068 592.769 C 616.239 590.674, 612.723 583.375, 612.591 577.250 C 612.541 574.913, 612.208 573, 611.850 573 C 611.493 573, 608.805 574.800, 605.877 577" stroke="#d2454f" fill="#d2454f" fill-opacity="0.2" fill-rule="evenodd"/><path class="svg-region-DMl" d="M 376.250 624.639 C 374.401 625.420, 374.731 630.190, 376.978 635.141 C 378.066 637.538, 378.977 640.850, 379.002 642.500 C 379.027 644.150, 380.160 648.200, 381.519 651.500 C 382.879 654.800, 383.993 658.336, 383.995 659.357 C 384.002 662.157, 389.607 673.331, 393.682 678.670 C 399.370 686.122, 401.228 691.379, 402.104 702.500 C 404.607 734.244, 405.644 740.490, 409.741 748.500 C 412.612 754.112, 414.463 755.427, 423 757.920 C 432.207 760.609, 447.800 767.283, 453.877 771.137 C 460.744 775.492, 462.995 774.806, 458.904 769.605 C 457.752 768.140, 457.063 766.279, 457.373 765.471 C 458.497 762.541, 462.338 763.936, 467.092 769 C 472.153 774.390, 473 774.170, 473 767.466 C 473 764.068, 486.508 736.275, 494.341 723.559 C 496.353 720.291, 498 716.512, 498 715.160 C 498 713.734, 496.162 710.469, 493.619 707.381 C 490.019 703.008, 489.016 700.850, 487.996 695.279 C 487.313 691.551, 485.893 687.071, 484.841 685.324 C 483.789 683.578, 482.117 679.753, 481.124 676.824 C 479.692 672.600, 478.822 671.429, 476.910 671.154 C 475.584 670.964, 474.050 670.443, 473.500 669.997 C 472.950 669.550, 470.025 668.724, 467 668.161 C 460.552 666.960, 453.882 664.132, 449.056 660.554 C 447.161 659.149, 444.911 657.974, 444.056 657.943 C 443.200 657.911, 439.478 655.999, 435.784 653.693 C 430.876 650.628, 427.905 647.821, 424.742 643.260 C 419.299 635.410, 415.217 632.386, 408.111 630.938 C 405.025 630.309, 401.600 629.438, 400.500 629.002 C 398.489 628.205, 390.080 626.428, 384.500 625.621 C 382.850 625.382, 380.600 624.945, 379.500 624.649 C 378.400 624.353, 376.938 624.349, 376.250 624.639" stroke="#68533d" fill="#68533d" fill-opacity="0.2" fill-rule="evenodd"/><path class="svg-region-VMl" d="M 525.951 718.969 C 522.678 722.252, 520 725.354, 520 725.861 C 520 726.368, 518.972 727.041, 517.716 727.356 C 516.250 727.724, 514.605 729.642, 513.120 732.715 C 511.847 735.347, 509.125 739.975, 507.071 743 C 505.016 746.025, 502.188 750.525, 500.787 753 C 499.385 755.475, 496.642 760.120, 494.691 763.322 C 491.927 767.858, 491.006 770.619, 490.519 775.822 C 488.981 792.278, 489.980 796.682, 493.758 790.098 C 495.482 787.095, 504.154 780.805, 512 776.867 C 514.475 775.625, 516.725 774.329, 517 773.988 C 518.718 771.858, 530.660 766.408, 544 761.665 C 552.525 758.635, 560.288 755.847, 561.250 755.471 C 563.097 754.748, 563.620 751.056, 562.102 749.450 C 561.609 748.928, 560.985 746.700, 560.717 744.500 C 559.978 738.431, 557.699 733.322, 553.900 729.212 C 552.013 727.170, 549.604 723.787, 548.546 721.693 C 545.047 714.765, 542.703 713, 536.999 713 C 532.103 713, 531.666 713.236, 525.951 718.969" stroke="#e59376" fill="#e59376" fill-opacity="0.2" fill-rule="evenodd"/><path class="svg-region-PMl" d="M 310 716 C 309.175 716.533, 304.900 716.990, 300.500 717.016 C 294.087 717.053, 291.508 717.550, 287.500 719.522 C 284.750 720.875, 280.768 721.986, 278.651 721.991 C 273.448 722.003, 269.147 724.306, 265.250 729.164 C 262.693 732.352, 262 734.152, 262 737.603 C 262 741.821, 262.173 742.071, 266.493 744.102 C 272.033 746.706, 271.371 748.424, 265.122 747.656 C 261.016 747.151, 251.996 748.670, 250.558 750.108 C 250.262 750.404, 253.060 753.989, 256.776 758.073 C 260.491 762.158, 264.773 767.173, 266.292 769.218 C 270.112 774.362, 275.090 775.790, 283.333 774.106 C 286.725 773.413, 289.928 772.431, 290.450 771.923 C 290.973 771.415, 292.574 771, 294.009 771 C 295.444 771, 297.491 770.339, 298.559 769.532 C 299.626 768.724, 302.557 768.049, 305.072 768.032 C 310.163 767.996, 318.298 765.551, 319.950 763.560 C 320.736 762.614, 320.618 761.928, 319.512 761.010 C 317.831 759.615, 317.490 753.821, 318.930 751.130 C 319.447 750.164, 319.486 748.786, 319.017 748.028 C 318.501 747.193, 318.767 745.759, 319.704 744.329 C 322.492 740.074, 319.727 719.817, 315.939 716.750 C 313.496 714.771, 312.162 714.603, 310 716" stroke="#90cf92" fill="#90cf92" fill-opacity="0.2" fill-rule="evenodd"/><path class="svg-region-LPVl" d="M 377.832 654.075 C 375.815 655.113, 371.540 656.264, 368.332 656.632 C 365.125 657, 359.052 658.808, 354.838 660.651 C 350.624 662.493, 346.663 664, 346.036 664 C 345.409 664, 341.289 665.800, 336.880 668 C 329.257 671.804, 328.408 672, 319.581 672 C 310.505 672, 304 670.707, 304 668.902 C 304 668.406, 301.758 668, 299.018 668 C 294.991 668, 292.826 668.740, 287.727 671.861 C 284.257 673.985, 279.005 678.073, 276.056 680.945 C 267.852 688.936, 264.631 690.704, 255 692.500 C 253.625 692.756, 251.253 693.237, 249.728 693.567 C 244.031 694.803, 239.375 693.102, 234.019 687.830 C 230.201 684.071, 228.607 683.082, 227.650 683.876 C 226.943 684.463, 224.752 684.672, 222.738 684.345 C 220.305 683.950, 218.658 684.209, 217.760 685.127 C 211.281 691.753, 211.223 698.489, 217.533 711.282 C 220.025 716.337, 223.319 721.828, 224.852 723.486 C 226.385 725.144, 228.406 727.737, 229.343 729.250 C 230.280 730.763, 231.688 732, 232.473 732 C 233.258 732, 237.138 735.876, 241.095 740.613 L 248.289 749.227 253.394 748.491 C 256.203 748.087, 261.061 747.810, 264.191 747.877 C 271.121 748.025, 272.472 746.511, 267.322 744.367 C 262.674 742.431, 262.035 741.527, 262.015 736.858 C 262.004 734.232, 262.907 732.086, 265.250 729.164 C 269.147 724.306, 273.448 722.003, 278.651 721.990 C 280.768 721.985, 284.907 720.860, 287.849 719.490 C 292.019 717.549, 294.816 717, 300.534 717 C 304.569 717, 309.054 716.550, 310.500 716 C 313.493 714.862, 316.377 715.968, 317.916 718.842 C 318.444 719.830, 319.431 725.407, 320.109 731.235 C 321.192 740.550, 321.151 742.121, 319.773 744.224 C 318.717 745.835, 318.503 747.147, 319.115 748.241 C 319.683 749.257, 319.645 750.101, 319.012 750.492 C 318.456 750.836, 318 752.099, 318 753.299 C 318 755.427, 318.058 755.418, 320.398 752.894 C 322.362 750.776, 324.033 750.193, 329.648 749.668 C 333.479 749.309, 339.146 749.518, 342.500 750.140 C 350.985 751.714, 351.991 752.146, 349 752.933 C 347.625 753.294, 346.500 754.245, 346.500 755.045 C 346.500 756.147, 348.442 756.646, 354.500 757.103 C 358.900 757.435, 363.258 757.323, 364.184 756.853 C 367.231 755.310, 383.797 755.844, 387.183 757.595 C 391.008 759.572, 408.067 759.300, 408.750 757.250 C 408.979 756.563, 409.778 756, 410.524 756 C 412.927 756, 413.094 754.202, 411.005 750.810 C 406.137 742.905, 404.656 734.866, 402.104 702.500 C 401.302 692.319, 398.896 684.759, 395.106 680.512 C 391.454 676.419, 386.020 666.176, 384.591 660.689 C 382.339 652.043, 382.146 651.854, 377.832 654.075" stroke="#494949" fill="#494949" fill-opacity="0.2" fill-rule="evenodd"/><path class="svg-region-Fl" d="M 319 535.603 C 317.075 536.460, 311 539.359, 305.500 542.045 C 300 544.731, 293.250 547.416, 290.500 548.011 C 285.101 549.180, 276.328 552.397, 266 556.998 C 262.425 558.591, 256.125 561.103, 252 562.581 C 244.712 565.193, 242.731 566.364, 235.446 572.369 C 230.763 576.229, 225.228 586.400, 223.899 593.586 C 223.303 596.812, 221.954 600.661, 220.900 602.140 C 219.847 603.619, 218.708 607.006, 218.369 609.665 C 218.029 612.324, 216.948 616.975, 215.966 620 C 214.983 623.025, 213.681 629.655, 213.071 634.733 C 212.462 639.812, 211.472 645.212, 210.872 646.733 C 210.272 648.255, 209.544 658.752, 209.253 670.060 C 208.774 688.733, 208.897 690.981, 210.596 694.560 L 212.466 698.500 213.048 695 C 214.350 687.166, 217.725 683.540, 222.937 684.374 C 226.192 684.894, 227.001 684.646, 228.243 682.744 C 229.743 680.446, 231.079 675.067, 231.036 671.500 C 230.971 666.188, 237.331 658.621, 244.243 655.785 C 245.838 655.130, 245.775 654.757, 243.493 651.395 C 240.607 647.141, 240.261 642.057, 242.615 638.465 C 244.509 635.575, 247.989 635.262, 253.346 637.500 C 255.320 638.325, 258.297 639, 259.961 639 C 264.439 639, 270.573 642.007, 272.398 645.096 C 273.279 646.588, 274 649.382, 274 651.305 C 274 654.502, 273.618 654.960, 269.541 656.646 L 265.082 658.490 267.791 660.709 C 269.281 661.930, 270.974 662.944, 271.554 662.964 C 272.133 662.984, 274.114 664.554, 275.955 666.454 C 280.084 670.714, 283.905 671.693, 288.145 669.578 C 292.661 667.325, 301.187 667.534, 305.226 669.996 C 307.936 671.648, 310.271 671.993, 318.772 671.996 C 328.767 672, 329.259 671.892, 337 668 C 341.376 665.800, 345.455 664, 346.066 664 C 346.676 664, 350.624 662.493, 354.838 660.651 C 359.052 658.808, 365.126 657, 368.336 656.632 C 373.033 656.093, 378.865 654.151, 380.812 652.477 C 381.454 651.925, 377.879 636.667, 376.468 633.939 C 375.661 632.377, 375 629.743, 375 628.085 C 375 625.999, 374.320 624.706, 372.791 623.888 C 369.397 622.072, 367.122 618.853, 366.509 615 C 366.202 613.075, 365.237 609.475, 364.363 607 C 363.489 604.525, 362.181 600.025, 361.457 597 C 360.733 593.975, 359.444 588.575, 358.594 585 C 354.325 567.068, 350.782 558.121, 345.129 551 C 335.266 538.576, 329.913 534.071, 325 534.054 C 323.625 534.049, 320.925 534.746, 319 535.603" stroke="#5ca7a9" fill="#5ca7a9" fill-opacity="0.2" fill-rule="evenodd"/><path class="svg-region-PCl" d="M 242.615 638.465 C 239.506 643.209, 241.436 651.521, 246.260 654.171 C 247.492 654.847, 250.750 655.714, 253.500 656.098 C 256.250 656.482, 260.203 657.128, 262.284 657.534 C 265.061 658.076, 267.153 657.784, 270.142 656.436 C 274.195 654.608, 274.214 654.575, 273.763 649.883 C 273.514 647.289, 272.677 644.550, 271.905 643.795 C 269.554 641.501, 263.381 639, 260.067 639 C 258.345 639, 255.320 638.325, 253.346 637.500 C 247.989 635.262, 244.509 635.575, 242.615 638.465" stroke="#465ee0" fill="#465ee0" fill-opacity="0.2" fill-rule="evenodd"/><path class="svg-region-VOC" d="M 495.328 505.132 C 494.716 505.884, 494.049 507.400, 493.845 508.500 C 493.614 509.752, 492.171 510.915, 489.988 511.609 C 485.383 513.074, 482.190 518.688, 482.081 525.514 C 482.011 529.849, 482.575 531.359, 486.250 536.671 C 488.587 540.049, 493.155 546.681, 496.401 551.407 C 499.646 556.133, 502.613 560, 502.993 560 C 503.374 560, 504.512 561.536, 505.523 563.413 C 506.788 565.763, 508.225 566.953, 510.134 567.233 C 513.562 567.736, 514.545 565.690, 516.010 555 C 516.575 550.875, 517.530 545.991, 518.131 544.147 C 519.071 541.260, 518.930 540.396, 517.112 537.937 C 514.596 534.534, 514.350 528.800, 516.500 523.654 C 518.398 519.112, 518.394 516.025, 516.484 511.251 C 514.479 506.242, 512.596 505.228, 503.814 504.432 C 498.152 503.919, 496.182 504.082, 495.328 505.132" stroke="#ff8f93" fill="#ff8f93" fill-opacity="0.2" fill-rule="evenodd"/><path class="svg-region-OABl" d="M 626.500 449.048 C 624.850 451.223, 620.013 455.310, 615.750 458.131 C 611.487 460.951, 608 463.635, 608 464.095 C 608 464.554, 606.649 466.469, 604.998 468.349 C 603.347 470.230, 601.718 473.160, 601.378 474.862 C 601.037 476.563, 600.138 478.470, 599.379 479.100 C 597.206 480.904, 597.730 482.556, 601.535 485.896 C 604.574 488.565, 605.842 489, 610.580 489 C 615.098 489, 616.533 488.558, 618.545 486.545 C 619.895 485.195, 621.003 483.058, 621.007 481.795 C 621.016 478.632, 624.118 474.215, 627.980 471.866 C 630.958 470.055, 631.154 469.617, 630.515 466.202 C 629.568 461.143, 629.557 454.348, 630.488 449.250 C 631.450 443.979, 630.385 443.925, 626.500 449.048" stroke="#81244d" fill="#81244d" fill-opacity="0.2" fill-rule="evenodd"/><path class="svg-region-SOTl" d="M 508.496 444.004 C 507.499 445.107, 505.037 446.451, 503.026 446.993 C 501.015 447.534, 498.451 448.995, 497.328 450.239 C 495.327 452.454, 493 461.556, 493 467.167 C 493 469.619, 493.386 470, 495.865 470 C 499.098 470, 504 473.385, 504 475.618 C 504 476.428, 505.068 478.159, 506.374 479.465 C 507.865 480.956, 509.018 483.632, 509.471 486.657 C 510.302 492.194, 511.919 495.712, 514.858 498.371 C 517.458 500.725, 522.705 499.947, 526.721 496.612 C 528.249 495.343, 530.850 493.670, 532.500 492.895 C 534.795 491.817, 535.574 490.716, 535.816 488.210 C 536.081 485.457, 535.400 484.191, 531.555 480.291 C 525.346 473.993, 521 464.525, 519.717 454.500 C 519.154 450.100, 517.974 445.502, 517.096 444.281 C 515.083 441.484, 510.899 441.349, 508.496 444.004" stroke="#995b45" fill="#995b45" fill-opacity="0.2" fill-rule="evenodd"/><path class="svg-region-LBPCl" d="M 430.597 642.844 C 429.718 644.265, 431.899 650.599, 433.886 652.397 C 435.837 654.162, 442.875 658, 444.161 658 C 444.567 658, 446.857 659.321, 449.249 660.936 C 455.261 664.993, 464.959 668.584, 472.167 669.422 C 472.533 669.465, 473.171 669.837, 473.583 670.250 C 473.996 670.663, 475.383 671, 476.667 671 C 477.950 671, 479 671.450, 479 672 C 479 674.908, 495.176 670.839, 500.490 666.594 L 503.479 664.206 498.990 663.058 C 490.328 660.843, 482.550 656.928, 479 652.997 L 475.500 649.122 463.992 648.065 C 457.662 647.484, 451.137 646.602, 449.492 646.105 C 447.846 645.608, 444.190 644.481, 441.366 643.601 C 435.722 641.841, 431.404 641.538, 430.597 642.844" stroke="#daffff" fill="#daffff" fill-opacity="0.2" fill-rule="evenodd"/><path class="svg-region-BPCl" d="M 606.500 701.992 C 602.100 702.449, 596.076 703.312, 593.114 703.911 C 590.151 704.510, 583.241 705, 577.758 705 C 568.659 705, 557.200 706.929, 554.500 708.914 C 553.045 709.985, 545.621 712, 543.134 712 C 541.960 712, 541 712.450, 541 713 C 541 713.550, 541.628 714, 542.396 714 C 543.758 714, 550 722.729, 550 724.635 C 550 725.162, 551.800 727.352, 554 729.500 C 556.200 731.648, 558 734.163, 558 735.089 C 558 736.014, 558.672 738.060, 559.494 739.636 C 560.315 741.211, 560.990 743.513, 560.994 744.750 C 561.003 748.226, 563.450 747.410, 564.880 743.454 L 566.162 739.909 572.331 740.204 L 578.500 740.500 578.172 744.250 C 577.924 747.082, 578.216 748, 579.363 748 C 580.198 748, 581.160 747.550, 581.500 747 C 581.840 746.450, 583.779 745.995, 585.809 745.988 C 587.889 745.981, 591.400 744.890, 593.852 743.488 C 597.302 741.516, 599.598 741, 604.925 741 C 610.853 741, 612.735 740.470, 620.891 736.500 C 625.976 734.025, 630.494 732, 630.930 732 C 633.788 732, 659.868 717.987, 661.097 715.791 C 661.818 714.503, 661.178 714.104, 657.510 713.554 C 655.054 713.185, 651.122 711.767, 648.772 710.402 C 646.423 709.036, 643.825 707.526, 643 707.045 C 634.251 701.942, 622.571 700.325, 606.500 701.992" stroke="#83385f" fill="#83385f" fill-opacity="0.2" fill-rule="evenodd"/><path class="svg-region-PNl" d="M 243.811 655.808 C 232.602 663.280, 231.635 664.657, 230.504 674.752 C 230.118 678.190, 229.371 681.270, 228.844 681.597 C 228.316 681.923, 230.349 684.576, 233.360 687.493 C 240.700 694.602, 244.885 695.301, 259 691.773 C 264.809 690.321, 269.089 687.587, 276.500 680.596 C 279.800 677.483, 284.950 673.517, 287.945 671.783 C 293.686 668.459, 293.345 666.659, 287.501 669.433 C 283.362 671.397, 280.025 670.731, 276.845 667.306 C 271.102 661.121, 260.417 656.018, 253.184 656.006 C 251.361 656.003, 249.077 655.576, 248.109 655.058 C 246.866 654.393, 245.604 654.613, 243.811 655.808" stroke="#bbc0d1" fill="#bbc0d1" fill-opacity="0.2" fill-rule="evenodd"/>
    </svg>