<svg xmlns="http://www.w3.org/2000/svg" width="1078" height="1151" viewBox="0 0 1078 1151" version="1.1">
    <path class="svg-region-V" d="M 501.878 200.032 C 494.622 200.842, 477.209 204.671, 461.048 209.011 C 456.768 210.161, 452.512 212.025, 451.048 213.392 C 449.647 214.701, 446.968 216.545, 445.096 217.491 C 443.224 218.437, 439.894 220.513, 437.696 222.105 C 435.498 223.697, 433.106 225, 432.381 225 C 430.298 225, 418.880 239.328, 414.716 247.168 C 412.635 251.087, 409.850 255.578, 408.528 257.149 C 405.869 260.309, 396 277.431, 396 278.883 C 396 280.219, 392.035 288.448, 387.513 296.500 C 383.501 303.641, 376.417 314.147, 368.970 324 C 362.226 332.923, 356.055 343.210, 354.873 347.500 C 354.267 349.700, 352.897 354.200, 351.827 357.500 C 349.322 365.231, 348.398 385.519, 349.858 400.731 C 350.875 411.323, 351.283 412.717, 357.027 425.231 C 360.661 433.148, 364.304 439.586, 366.059 441.194 C 367.676 442.675, 369 444.813, 369 445.944 C 369 450.707, 381.178 446.438, 397 436.128 C 413.327 425.489, 414.790 424.204, 418.208 417.514 L 421.267 411.529 420.577 396.458 L 419.888 381.387 423.564 375.944 C 425.585 372.950, 429.803 367.800, 432.936 364.500 C 436.069 361.200, 439.938 356.700, 441.533 354.500 C 453.043 338.630, 482.511 307.331, 491.494 301.434 C 496.637 298.058, 502.898 290.807, 504.299 286.602 C 504.589 285.734, 509.211 287.331, 522.500 292.887 C 525.250 294.037, 529.413 295.450, 531.750 296.027 C 534.183 296.628, 536 297.666, 536 298.454 C 536 300.824, 544.930 307.816, 550.189 309.563 C 556.416 311.631, 563.070 311.113, 569.355 308.070 C 572.550 306.523, 574.208 305.021, 574.646 303.273 C 574.998 301.873, 577.155 298.426, 579.441 295.614 C 581.726 292.801, 585.647 287.350, 588.153 283.500 C 595.719 271.878, 599.855 268.461, 611.250 264.415 C 613.862 263.487, 616 262.193, 616 261.538 C 616 260.884, 614.831 259.258, 613.402 257.924 C 611.972 256.591, 610.117 253.795, 609.278 251.712 C 608.360 249.432, 606.559 247.306, 604.758 246.375 C 603.111 245.523, 598.766 241.828, 595.101 238.163 C 582.308 225.369, 571.527 215.919, 569.023 215.306 C 564.875 214.289, 552.277 208.309, 548.770 205.692 C 543.240 201.565, 536.427 199.981, 522.415 199.565 C 515.312 199.355, 506.070 199.565, 501.878 200.032" stroke="#dd8a8a" fill="#dd8a8a" fill-opacity="0.2" fill-rule="evenodd"/><path class="svg-region-SV" d="M 503.292 287.750 C 501.486 292.645, 497.349 297.394, 491.435 301.362 C 482.363 307.448, 449.565 342.367, 441.055 355 C 439.758 356.925, 436.119 361.200, 432.968 364.500 C 429.817 367.800, 425.585 372.950, 423.564 375.944 L 419.888 381.387 420.577 396.458 L 421.267 411.529 418.138 417.727 C 416.417 421.136, 413.995 424.465, 412.755 425.126 C 411.515 425.786, 410.050 426.854, 409.500 427.499 C 408.950 428.144, 405.198 430.806, 401.162 433.415 C 397.127 436.024, 393.989 438.322, 394.189 438.522 C 394.491 438.824, 427.593 439.762, 459 440.358 C 465.083 440.473, 467.252 440.968, 470.483 442.976 C 472.674 444.337, 475.095 445.543, 475.864 445.656 C 476.633 445.769, 478.665 447.198, 480.381 448.831 C 482.866 451.198, 484.739 451.939, 489.595 452.481 L 495.691 453.160 496.986 450.033 C 498.321 446.810, 502.439 444, 505.828 444 C 506.888 444, 509.371 444.675, 511.346 445.500 C 513.320 446.325, 515.383 447, 515.929 447 C 517.358 447, 520 437.412, 520 432.225 C 520 428.682, 520.387 427.712, 521.963 427.299 C 523.042 427.017, 526.163 423.888, 528.898 420.345 C 533.253 414.704, 534.019 412.984, 535.068 406.480 C 536.501 397.598, 537.940 396.285, 547.952 394.736 L 554.620 393.704 557.972 383.102 C 559.815 377.271, 561.701 372.072, 562.162 371.550 C 563.769 369.729, 562.982 368, 560.547 368 C 556.929 368, 553.392 366.102, 551.934 363.377 C 551.227 362.056, 548.242 359.158, 545.301 356.938 L 539.954 352.901 540.615 339.200 C 541.007 331.056, 541.817 324.426, 542.611 322.851 C 543.346 321.393, 546.291 318.151, 549.156 315.645 L 554.364 311.089 551.432 310.018 C 545.762 307.947, 541.782 305.468, 538.905 302.215 C 537.307 300.409, 536 298.528, 536 298.036 C 536 297.544, 533.413 296.427, 530.250 295.554 C 527.087 294.680, 522.475 292.990, 520 291.799 C 515.086 289.433, 506.063 286, 504.757 286 C 504.306 286, 503.647 286.788, 503.292 287.750" stroke="#c666b5" fill="#c666b5" fill-opacity="0.2" fill-rule="evenodd"/><path class="svg-region-SF" d="M 611.500 264.196 C 608.750 265.304, 605.240 266.677, 603.701 267.247 C 599.847 268.674, 591.513 277.388, 587.785 283.888 C 586.085 286.852, 582.786 291.426, 580.453 294.053 C 573.455 301.932, 573.206 304.004, 575.610 334.432 C 576.239 342.383, 574.863 352.158, 572.748 354.772 C 571.163 356.730, 570.594 373.850, 571.948 378.841 C 573.624 385.018, 580.103 391.665, 587.843 395.147 C 591.332 396.716, 594.768 398, 595.478 398 C 596.189 398, 597.530 399.160, 598.459 400.577 C 600.809 404.164, 611.401 408.998, 616.912 408.999 C 625.241 409.001, 631.956 406.086, 638 399.846 C 641.025 396.723, 646.157 392.584, 649.404 390.648 C 655.424 387.058, 657.625 384.207, 663.407 372.500 C 666.722 365.789, 668.048 349.824, 665.756 344.222 C 664.918 342.175, 663.500 335.100, 662.603 328.500 C 661.150 317.799, 660.424 315.376, 655.906 306.121 C 651.767 297.643, 649.303 294.122, 642.461 286.901 C 637.853 282.040, 633.419 276.778, 632.608 275.209 C 630.901 271.909, 621.443 263.545, 618.500 262.734 C 617.400 262.431, 614.250 263.089, 611.500 264.196" stroke="#8c6b55" fill="#8c6b55" fill-opacity="0.2" fill-rule="evenodd"/><path class="svg-region-IF" d="M 646.896 391.930 C 641.660 395.219, 636 401.600, 636 404.214 C 636 406.564, 642.589 409.301, 646.500 408.576 C 648.150 408.270, 650.592 407.843, 651.927 407.628 C 654.585 407.199, 657.020 404.507, 656.965 402.059 C 656.945 401.201, 656.286 399.375, 655.500 398 C 654.714 396.625, 654.055 394.038, 654.035 392.250 C 653.992 388.240, 652.852 388.189, 646.896 391.930" stroke="#f2823b" fill="#f2823b" fill-opacity="0.2" fill-rule="evenodd"/><path class="svg-region-PF" d="M 568.723 308.179 C 566.645 309.304, 562.315 310.535, 559.100 310.914 C 555.763 311.307, 552.535 312.323, 551.578 313.279 C 550.656 314.201, 549.338 315.303, 548.649 315.728 C 547.960 316.153, 546.007 318.300, 544.308 320.500 C 541.275 324.429, 541.209 324.759, 540.557 339.111 L 539.893 353.723 544.989 356.993 C 547.791 358.791, 550.745 361.540, 551.553 363.102 C 553.326 366.531, 555.839 368, 559.934 368 C 562.973 368, 563.946 369.584, 562.115 371.550 C 561.628 372.073, 559.828 376.862, 558.115 382.193 C 555.011 391.850, 554.179 398.374, 555.913 399.446 C 556.415 399.757, 557.145 401.921, 557.534 404.255 C 559.124 413.789, 565.252 421.743, 572.616 423.832 C 579.474 425.778, 581.776 425.254, 590.845 419.688 C 609.690 408.122, 609.824 407.971, 603.982 404.991 C 601.808 403.882, 599.296 401.855, 598.400 400.487 C 597.503 399.119, 596.259 398, 595.635 397.999 C 592.961 397.997, 581.195 391.579, 577.769 388.253 C 572.367 383.009, 570.616 376.913, 571.265 365.605 C 571.611 359.584, 572.408 355.314, 573.619 353 C 575.072 350.222, 575.434 347.334, 575.378 339 C 575.288 325.692, 573.937 305.979, 573.122 306.067 C 572.780 306.104, 570.800 307.054, 568.723 308.179" stroke="#faaaaa" fill="#faaaaa" fill-opacity="0.2" fill-rule="evenodd"/><path class="svg-region-AAB" d="M 655.872 405.047 C 655.117 406.172, 653.277 407.185, 651.782 407.297 C 650.284 407.409, 647.478 408.996, 645.532 410.831 C 642.596 413.601, 641.997 414.865, 641.985 418.331 C 641.967 423.090, 638.763 436.596, 636.671 440.728 C 635.899 442.252, 634.963 445.300, 634.592 447.500 C 633.596 453.394, 630.106 461.882, 626.573 467 C 624.864 469.475, 622.879 472.831, 622.160 474.457 C 621.442 476.083, 620.019 477.999, 618.997 478.715 C 617.975 479.430, 616.008 482.487, 614.625 485.508 C 612.290 490.609, 611.866 491, 608.678 491 C 606.790 491, 604.685 490.325, 604 489.500 C 603.315 488.675, 602.454 488, 602.085 488 C 601.717 488, 599.758 490.813, 597.733 494.250 C 595.707 497.688, 591.339 503.618, 588.025 507.428 C 584.711 511.238, 582 514.733, 582 515.194 C 582 515.655, 580.492 516.752, 578.648 517.631 C 576.804 518.510, 574.501 520.574, 573.530 522.218 C 572.560 523.861, 570.261 526.093, 568.423 527.178 C 564.015 529.779, 559 539.632, 559 545.693 C 559 554.959, 569.014 567.120, 577.793 568.514 C 579.832 568.838, 583.300 569.587, 585.500 570.179 C 592.789 572.140, 599.852 572.327, 602.446 570.627 C 603.757 569.768, 607.849 568.583, 611.540 567.994 C 615.231 567.404, 619.432 566.294, 620.876 565.528 C 625.363 563.146, 633.623 554.773, 637.674 548.500 C 639.805 545.200, 642.992 540.531, 644.756 538.125 C 647.491 534.394, 647.934 532.994, 647.759 528.625 C 647.534 523.012, 650.898 514.563, 655.972 508 C 657.460 506.075, 659.360 503.150, 660.196 501.500 C 666.853 488.349, 668.810 484.993, 671.936 481.367 C 677.166 475.301, 682.639 465.148, 683.455 460 C 683.847 457.525, 684.805 453.281, 685.584 450.568 C 689.087 438.367, 686.070 423.454, 678.499 415.552 C 676.100 413.049, 673.565 411, 672.867 411 C 671.195 411, 661 404.805, 661 403.789 C 661 402.150, 657.187 403.085, 655.872 405.047" stroke="#7f3c1a" fill="#7f3c1a" fill-opacity="0.2" fill-rule="evenodd"/><path class="svg-region-APB" d="M 628 406.581 C 622.216 409.060, 616.538 409.588, 611.427 408.122 C 608.911 407.401, 607.995 407.623, 606.278 409.372 C 603.363 412.341, 584.027 423.890, 579.357 425.452 C 576.467 426.419, 574.321 428.340, 570.793 433.121 C 568.204 436.629, 563.966 441.900, 561.373 444.834 C 554.035 453.140, 551.018 457.705, 546.079 467.978 L 541.500 477.500 541.500 490.500 C 541.500 503.493, 541.502 503.506, 545.764 514 C 548.110 519.775, 551.485 526.922, 553.264 529.883 C 555.044 532.843, 557.126 536.412, 557.891 537.813 L 559.282 540.360 561.595 535.807 C 562.868 533.303, 565.392 530.068, 567.205 528.618 C 569.017 527.167, 570.871 525.569, 571.325 525.065 C 572.236 524.055, 578.378 517.974, 580.634 515.850 C 585.890 510.900, 593.506 501.533, 596.686 496.105 C 598.747 492.587, 601.124 489.019, 601.967 488.176 C 603.019 487.124, 603.610 484.111, 603.851 478.571 C 604.046 474.094, 604.759 469.832, 605.452 469 C 607.430 466.627, 610.794 459.759, 611.436 456.780 C 612.242 453.045, 616.552 449.310, 622.231 447.423 C 624.886 446.541, 628.409 444.334, 630.212 442.422 C 633.991 438.416, 634.985 438.175, 635.040 441.250 C 635.078 443.371, 635.165 443.343, 636.571 440.751 C 638.516 437.166, 641.965 423.426, 641.985 419.184 C 642.002 415.515, 643.490 412.142, 645.913 410.282 C 647.312 409.208, 647.248 409.060, 645.372 409.032 C 642.462 408.988, 636 406.199, 636 404.987 C 636 403.562, 634.212 403.918, 628 406.581" stroke="#ac7444" fill="#ac7444" fill-opacity="0.2" fill-rule="evenodd"/><path class="svg-region-PC" d="M 545 394.922 C 538.118 396.281, 536.466 398.236, 534.725 407.074 C 533.335 414.131, 532.566 415.792, 528.483 420.572 C 525.921 423.570, 522.965 426.484, 521.913 427.047 C 520.511 427.797, 520 429.155, 520 432.131 C 520 434.365, 519.274 438.690, 518.386 441.743 C 516.902 446.850, 516.902 447.365, 518.386 448.196 C 519.524 448.833, 520 450.525, 520 453.927 C 520 459.091, 520.883 460.338, 525.285 461.390 C 528.621 462.187, 530.012 465.282, 529.971 471.815 C 529.934 477.653, 525.743 483, 521.202 483 C 519.207 483, 517.708 483.903, 516.105 486.071 C 514.070 488.825, 513.940 489.627, 514.851 493.821 C 515.409 496.395, 516.118 501.348, 516.426 504.828 C 516.734 508.308, 517.715 513.933, 518.608 517.328 C 519.500 520.723, 520.290 527.850, 520.365 533.168 C 520.489 542.054, 520.309 543.039, 518.135 545.355 C 515.833 547.806, 515.781 548.246, 516.212 561.687 C 516.600 573.823, 516.965 576.183, 519.215 581.122 C 520.624 584.214, 522.277 587.053, 522.888 587.431 C 523.500 587.809, 524 590.341, 524 593.059 C 524 595.777, 524.119 598, 524.264 598 C 524.409 598, 526.968 597.108, 529.951 596.018 C 533.583 594.690, 536.598 594.232, 539.084 594.629 C 548.397 596.119, 554.083 590.765, 555.151 579.504 C 555.516 575.652, 556.638 569.125, 557.643 565 C 559.688 556.613, 559.711 541.024, 557.684 537.361 C 557.033 536.185, 555.164 533.053, 553.532 530.402 C 551.900 527.750, 548.525 520.613, 546.032 514.540 L 541.500 503.500 541.500 490.500 L 541.500 477.500 546.684 467 C 549.536 461.225, 554.143 453.800, 556.922 450.500 C 559.701 447.200, 565.130 440.337, 568.986 435.250 C 574.013 428.617, 576.633 425.972, 578.248 425.901 C 579.487 425.846, 577.840 425.105, 574.588 424.253 C 571.337 423.402, 567.576 421.759, 566.231 420.603 C 562.979 417.806, 558.021 409.092, 558.009 406.151 C 558.004 404.859, 557.373 402.384, 556.607 400.651 C 555.841 398.918, 554.955 396.712, 554.638 395.750 C 554.027 393.892, 551.367 393.663, 545 394.922" stroke="#cda789" fill="#cda789" fill-opacity="0.2" fill-rule="evenodd"/><path class="svg-region-DB" d="M 390.300 440.607 C 387.054 442.925, 374.150 448, 371.503 448 C 368.716 448, 368 449.662, 368 456.130 C 368 460.093, 368.704 462.197, 371.488 466.548 C 373.817 470.189, 375.644 472, 376.988 472 C 378.094 472, 379 471.622, 379 471.161 C 379 468.927, 384.015 468.330, 395.943 469.144 C 403.746 469.677, 408.607 469.637, 408.977 469.037 C 409.722 467.832, 419.180 469.977, 424 472.444 C 427.798 474.388, 438.293 482.034, 438.833 483.250 C 439.017 483.663, 439.874 484, 440.739 484 C 442.736 484, 448.324 488.246, 452.696 493.085 C 454.557 495.145, 458.649 498.722, 461.790 501.033 C 464.930 503.345, 468.408 506.643, 469.517 508.363 C 470.627 510.083, 473.552 512.451, 476.017 513.627 C 480.086 515.567, 480.580 515.614, 481.364 514.132 C 481.840 513.235, 484.090 510.692, 486.364 508.482 C 488.639 506.272, 491.850 502.716, 493.500 500.581 C 500.127 492.004, 504.624 488, 507.609 488.015 C 509.199 488.024, 511.129 488.429, 511.898 488.916 C 512.882 489.539, 513.994 488.972, 515.648 487.006 C 516.942 485.469, 518 483.954, 518 483.640 C 518 483.326, 516.704 481.591, 515.120 479.785 C 513.536 477.978, 511.565 474.475, 510.741 472 C 509.783 469.120, 508.346 467.052, 506.750 466.257 C 503.606 464.689, 502.016 462.795, 499.500 457.616 C 497.526 453.554, 497.408 453.488, 490.530 452.606 C 484.633 451.849, 483.017 451.196, 480.030 448.364 C 478.089 446.523, 475.963 445.013, 475.307 445.009 C 474.651 445.004, 472.401 443.988, 470.307 442.750 C 467.362 441.009, 464.802 440.467, 459 440.355 C 454.875 440.275, 438.225 439.945, 422 439.623 C 396.162 439.109, 392.227 439.231, 390.300 440.607" stroke="#e8b1e4" fill="#e8b1e4" fill-opacity="0.2" fill-rule="evenodd"/><path class="svg-region-MB" d="M 381.500 469.232 C 378.766 470.788, 377 472.640, 377 473.951 C 377 474.552, 378.740 476.947, 380.866 479.272 C 386.056 484.948, 388.006 489.046, 387.970 494.200 C 387.936 498.937, 391.730 511.865, 396.152 522.080 C 397.718 525.699, 399 530.036, 399 531.718 C 399 533.400, 400.125 538.658, 401.500 543.403 C 402.875 548.148, 404.006 553.711, 404.013 555.765 C 404.020 557.819, 404.920 562.351, 406.012 565.836 C 407.104 569.321, 408.441 575.846, 408.982 580.336 C 411.270 599.307, 411.736 601.209, 414.698 603.671 C 417.028 605.608, 418.259 605.906, 422 605.441 C 427.437 604.765, 439.342 606.532, 442.335 608.460 C 443.526 609.226, 448.222 610.170, 452.772 610.558 C 457.322 610.945, 461.286 611.653, 461.581 612.131 C 461.876 612.609, 463.249 613, 464.631 613 C 466.013 613, 471.797 615.331, 477.485 618.180 L 487.826 623.360 490.644 620.011 C 493.371 616.771, 508.929 605.964, 519.053 600.278 C 523.795 597.614, 523.998 597.321, 523.999 593.154 C 524 590.500, 523.266 587.775, 522.114 586.154 C 517.629 579.841, 516.702 575.914, 516.233 561.250 C 515.873 549.976, 515.488 547, 514.389 547 C 513.506 547, 513 548.116, 513 550.066 C 513 558.002, 508.602 559.221, 505.204 552.226 C 501.115 543.807, 499.156 540.744, 496.806 539.099 C 495.538 538.211, 491.181 534.290, 487.124 530.386 C 480.219 523.741, 479.775 523.056, 480.170 519.673 C 480.569 516.249, 480.354 515.938, 476.046 513.728 C 473.546 512.446, 470.600 510.011, 469.500 508.317 C 468.400 506.622, 465.025 503.407, 462 501.172 C 458.975 498.937, 454.025 494.543, 451 491.409 C 447.975 488.275, 444.120 485.129, 442.433 484.418 C 440.746 483.708, 436.696 481.132, 433.433 478.695 C 430.170 476.258, 425.925 473.451, 424 472.458 C 419.256 470.011, 410.162 467.929, 409.425 469.121 C 408.901 469.969, 396.461 469.630, 387 468.508 C 385.075 468.280, 382.600 468.606, 381.500 469.232" stroke="#f9c6c6" fill="#f9c6c6" fill-opacity="0.2" fill-rule="evenodd"/><path class="svg-region-LBl" d="M 412.563 610.250 C 412.598 614.238, 413.186 618.529, 413.869 619.788 C 415.153 622.153, 414.573 626, 412.933 626 C 410.594 626, 412.576 627.936, 419.616 632.530 C 423.831 635.281, 428.479 639.286, 430.027 641.500 C 431.564 643.700, 433.875 646.352, 435.161 647.393 C 436.448 648.433, 440.715 652.371, 444.643 656.143 C 452.557 663.739, 456 664.954, 456 660.149 C 456 652.786, 460.108 646.455, 469.856 638.794 C 473.493 635.937, 477.600 632.615, 478.984 631.412 C 480.368 630.210, 482.850 628.082, 484.500 626.683 C 486.476 625.007, 487.159 623.809, 486.500 623.172 C 484.737 621.466, 468.866 613.763, 465.120 612.795 C 463.129 612.280, 457.447 611.288, 452.494 610.590 C 447.541 609.893, 442.591 608.798, 441.494 608.158 C 437.885 606.052, 426.739 604.368, 422.712 605.321 C 419.827 606.003, 418.402 605.838, 416.518 604.603 C 415.172 603.722, 413.717 603, 413.285 603 C 412.853 603.001, 412.529 606.263, 412.563 610.250" stroke="#d7b230" fill="#d7b230" fill-opacity="0.2" fill-rule="evenodd"/><path class="svg-region-PP" d="M 490.223 620.617 C 486.047 624.806, 478.326 631.665, 473.065 635.860 C 467.804 640.054, 463.202 643.939, 462.838 644.493 C 462.473 645.047, 461.239 646.578, 460.095 647.895 C 456.237 652.336, 454.808 662.165, 457.216 667.703 C 459.195 672.254, 463.123 677.012, 466.225 678.617 C 467.819 679.441, 472.617 680.729, 476.886 681.480 C 481.972 682.374, 486.893 684.078, 491.157 686.422 C 494.737 688.390, 499.065 690, 500.774 690 C 502.483 690, 504.160 690.450, 504.500 691 C 504.840 691.550, 506.786 692, 508.826 692 L 512.533 692 512.533 686.232 C 512.533 681.866, 513.076 679.702, 514.767 677.328 C 518.050 672.716, 517.702 667.778, 513.657 661.604 C 511.819 658.797, 509.028 653.800, 507.456 650.500 C 505.884 647.200, 503.986 644.125, 503.239 643.667 C 502.491 643.208, 500.338 641.480, 498.454 639.825 C 492.360 634.475, 491.489 623.980, 496.522 616.563 C 497.852 614.603, 498.687 613, 498.377 613 C 498.068 613, 494.398 616.428, 490.223 620.617" stroke="#c4743d" fill="#c4743d" fill-opacity="0.2" fill-rule="evenodd"/><path class="svg-region-LPl" d="M 547.030 593.674 C 544.783 594.653, 542.194 594.967, 539.684 594.565 C 534.393 593.719, 523.591 597.547, 512.338 604.255 C 500.811 611.126, 495.537 616.223, 493.997 621.981 C 491.729 630.460, 493.917 636.812, 500.805 641.742 C 503.278 643.512, 505.492 646.515, 507.500 650.820 C 509.150 654.357, 511.789 659.063, 513.365 661.277 C 517.475 667.049, 517.819 671.553, 514.610 677.581 C 513.175 680.278, 512 683.845, 512 685.508 C 512 689.962, 515.195 695.257, 519.085 697.248 C 523.934 699.731, 532.874 699.540, 539.198 696.819 C 545.459 694.126, 548.479 694.144, 557.954 696.929 C 563.381 698.525, 565.963 698.853, 567.454 698.139 C 570.209 696.817, 586.112 695.656, 599 695.836 C 634.295 696.327, 639.149 695.430, 655.131 685.466 C 660.701 681.993, 669.237 677.717, 674.100 675.964 C 678.962 674.211, 683.507 672.095, 684.198 671.262 C 684.889 670.429, 685.455 668.042, 685.455 665.958 C 685.455 662.959, 684.571 661.120, 681.227 657.154 C 677.545 652.787, 676.998 651.520, 676.985 647.321 C 676.977 644.669, 676.415 641.486, 675.735 640.247 C 674.331 637.685, 659.302 625.017, 657.610 624.968 C 656.406 624.934, 651 620.468, 651 619.507 C 651 617.350, 645.630 612.370, 641.015 610.248 C 635.779 607.841, 635.186 607.779, 628.004 608.878 C 621.339 609.898, 619.623 609.802, 612.989 608.039 C 607.608 606.608, 602.247 606.040, 593.944 606.024 C 583.208 606.002, 582.148 605.823, 579 603.500 C 577.136 602.125, 574.370 601, 572.853 601 C 569.623 601, 566.521 599.707, 559.059 595.250 C 553.006 591.634, 552.013 591.504, 547.030 593.674" stroke="#d2454f" fill="#d2454f" fill-opacity="0.2" fill-rule="evenodd"/><path class="svg-region-DMl" d="M 384.852 624.391 C 382.846 625.108, 379.973 626.663, 378.467 627.847 C 376.962 629.031, 374.891 630, 373.865 630 C 371.381 630, 371.450 633.060, 374 636 C 375.100 637.268, 376 639.601, 376 641.183 C 376 642.766, 377.125 646.733, 378.500 650 C 379.875 653.267, 381 657.318, 381 659.002 C 381 663.179, 383.376 668.533, 387.422 673.470 C 391.049 677.897, 391.220 678.778, 392.463 699.500 C 393.046 709.203, 396.166 721.361, 398.842 724.354 C 400.051 725.706, 400.636 728.823, 401 735.854 C 401.591 747.249, 402.802 749.534, 409.287 751.486 C 411.766 752.232, 415.169 753.553, 416.848 754.421 C 418.527 755.290, 420.993 756, 422.328 756 C 423.663 756, 425.232 756.574, 425.814 757.276 C 427.547 759.365, 455.518 771.837, 462.267 773.531 C 465.775 774.411, 465.855 772.723, 462.537 767.839 C 460.161 764.343, 460.143 764.196, 462.037 763.701 C 463.351 763.357, 464 762.330, 464 760.593 C 464 758.516, 464.993 757.452, 468.989 755.250 C 476.412 751.158, 478 747.140, 478 732.446 C 478 723.309, 478.406 719.884, 479.925 716.185 C 480.985 713.608, 482.046 709.107, 482.285 706.181 C 482.827 699.546, 483.011 699.676, 464.419 693.535 C 456.674 690.977, 448.799 687.937, 446.919 686.780 L 443.500 684.677 448.232 682.589 C 455.318 679.461, 458.013 674.335, 455.591 668.592 C 454.101 665.061, 425.545 636.199, 419.500 632.114 C 414.417 628.680, 407.743 626.003, 404.230 625.989 C 402.728 625.983, 399.291 625.308, 396.591 624.489 C 390.719 622.708, 389.590 622.698, 384.852 624.391" stroke="#68533d" fill="#68533d" fill-opacity="0.2" fill-rule="evenodd"/><path class="svg-region-VMl" d="M 480.635 715.106 C 478.226 719.939, 478 721.426, 478.003 732.446 C 478.006 747.176, 476.421 751.202, 469.096 755.072 C 464.678 757.406, 464.500 757.674, 464.500 761.987 C 464.500 765.872, 464.861 766.646, 467.193 767.764 C 469.313 768.780, 470.027 769.999, 470.552 773.495 C 470.918 775.937, 471.808 778.426, 472.531 779.025 C 474.987 781.064, 489.062 785.888, 500.736 788.691 C 504.449 789.583, 509.344 788.166, 515.582 784.393 C 521.813 780.625, 526.266 778.043, 534.500 773.424 C 537.250 771.881, 539.725 770.323, 540 769.961 C 540.275 769.599, 543.499 767.880, 547.164 766.141 C 553.453 763.158, 553.866 762.751, 554.516 758.907 C 554.965 756.250, 556.211 753.936, 558.102 752.252 C 561.275 749.424, 561.808 747.247, 559.538 746.376 C 558.734 746.068, 557.789 744.911, 557.439 743.807 C 557.072 742.652, 554.529 740.758, 551.455 739.351 C 548.514 738.004, 543.861 734.882, 541.113 732.412 C 534.657 726.607, 524.557 723, 514.759 723 C 507.151 723, 505.565 722.407, 499.030 717.118 C 494.863 713.745, 490.443 711.546, 485.385 710.328 C 483.637 709.907, 482.812 710.737, 480.635 715.106" stroke="#e59376" fill="#e59376" fill-opacity="0.2" fill-rule="evenodd"/><path class="svg-region-PMl" d="M 267.425 718.274 C 264.241 719.778, 259 728.574, 259 732.413 C 259 736.964, 262.679 741.231, 269.296 744.355 C 273.565 746.370, 276.607 746.912, 286.232 747.368 C 296.914 747.875, 298.391 747.727, 302.732 745.711 C 308.924 742.835, 314.756 738.343, 315.552 735.837 C 316.988 731.312, 314.362 728.562, 304.706 724.482 C 299.643 722.342, 294.600 720.054, 293.500 719.397 C 291.035 717.926, 270.073 717.023, 267.425 718.274" stroke="#90cf92" fill="#90cf92" fill-opacity="0.2" fill-rule="evenodd"/><path class="svg-region-PV" d="M 274.332 659.665 C 271.124 663.910, 264.806 669.903, 261.629 671.715 C 260.458 672.383, 256.997 672.945, 253.938 672.965 C 248.991 672.996, 248.148 672.692, 246.314 670.210 C 244.440 667.676, 243.621 667.401, 237.376 667.204 C 233.594 667.085, 228.925 666.375, 227 665.625 C 220.995 663.287, 216.443 662, 214.179 662 C 212.017 662, 212 662.146, 212 681.026 C 212 697.069, 212.327 701.314, 214.083 708.091 C 216.023 715.574, 216.058 716.358, 214.583 719.465 C 212.495 723.866, 212.586 725.665, 215 727.732 C 216.100 728.674, 217 730.542, 217 731.883 C 217 734.680, 222.362 740, 225.180 740 C 226.748 740, 227 739.124, 227 733.667 C 227 730.183, 227.259 727.074, 227.576 726.758 C 227.992 726.341, 237.721 736.128, 239.496 738.749 C 239.589 738.886, 241.652 739.393, 244.082 739.876 C 246.512 740.359, 249.247 741.067, 250.160 741.449 C 251.315 741.933, 252.013 741.534, 252.457 740.135 C 252.808 739.030, 254.424 737.538, 256.047 736.819 C 258.486 735.739, 259 734.917, 259 732.097 C 259 729.658, 260.152 727.155, 263.032 723.341 C 265.250 720.403, 267.613 717.938, 268.282 717.863 C 268.952 717.788, 274.410 717.839, 280.411 717.977 C 289.770 718.192, 291.974 718.575, 295.911 720.670 L 300.500 723.113 301.110 708.307 C 301.751 692.738, 304.222 678.531, 307.908 669.213 C 309.059 666.305, 310 663.651, 310 663.315 C 310 662.979, 306.482 662.975, 302.183 663.306 C 294.727 663.881, 294.066 663.756, 287.869 660.581 C 277.727 655.386, 277.575 655.375, 274.332 659.665" stroke="#b09658" fill="#b09658" fill-opacity="0.2" fill-rule="evenodd"/><path class="svg-region-LPVl" d="M 368.500 647.046 C 365.750 647.474, 361.368 647.864, 358.763 647.912 C 354.419 647.993, 353.826 648.312, 351.632 651.750 C 346.666 659.533, 345.438 660.114, 331.824 661.123 C 315.547 662.330, 311.253 662.971, 310.202 664.351 C 308.249 666.915, 305.057 676.947, 303.949 684 C 303.301 688.125, 302.360 692.011, 301.858 692.635 C 301.356 693.260, 301.070 700.387, 301.223 708.474 L 301.500 723.178 306.787 725.411 C 313.486 728.241, 315.333 730.112, 315.333 734.063 C 315.333 736.498, 314.438 737.987, 311.417 740.573 C 309.262 742.416, 307.050 743.941, 306.500 743.960 C 305.950 743.979, 303.609 744.996, 301.297 746.221 C 297.958 747.989, 297.032 749.070, 296.797 751.474 C 296.575 753.731, 295.932 754.581, 294.265 754.818 C 292.099 755.125, 292.076 755.246, 293.529 758.723 C 295.111 762.509, 294.537 763.967, 290 767.702 C 287.918 769.415, 288.812 769.301, 295.500 767 C 298.697 765.900, 302.930 764.995, 304.907 764.989 C 308.790 764.977, 316.683 762.865, 321.500 760.548 C 333.071 754.983, 336.815 753.776, 345.356 752.856 C 350.385 752.314, 355.678 751.511, 357.118 751.072 C 360.685 749.984, 378.797 751.615, 384.446 753.533 C 389.274 755.172, 410.674 755.337, 411.659 753.743 C 411.926 753.311, 410.468 752.258, 408.420 751.402 C 402.157 748.785, 401.071 746.667, 401.033 736.992 C 401.006 730.010, 400.575 727.679, 398.628 723.992 C 395.091 717.296, 393.161 709.556, 392.519 699.500 C 391.172 678.372, 391.111 678.081, 386.938 672.802 C 383.138 667.995, 381.017 662.768, 381.006 658.185 C 380.996 654.300, 376.940 645.985, 375.127 646.134 C 374.232 646.207, 371.250 646.618, 368.500 647.046" stroke="#494949" fill="#494949" fill-opacity="0.2" fill-rule="evenodd"/><path class="svg-region-Fl" d="M 309.500 538.610 C 307.300 539.447, 304.600 540.397, 303.500 540.721 C 302.400 541.046, 300.612 541.916, 299.527 542.655 C 298.443 543.395, 296.517 544, 295.249 544 C 293.228 544, 285.459 547.576, 279.500 551.248 C 270.220 556.968, 264.063 561.164, 261.698 563.377 C 260.158 564.820, 258.480 566, 257.971 566 C 257.462 566, 254.672 567.278, 251.773 568.840 C 248.873 570.401, 245.315 571.972, 243.868 572.329 C 242.420 572.687, 238.370 574.781, 234.868 576.984 C 231.365 579.187, 226.808 581.718, 224.741 582.607 C 222.085 583.750, 220.829 584.999, 220.462 586.862 C 220.177 588.313, 219.451 590.850, 218.851 592.500 C 217.544 596.087, 216.487 601.565, 214.892 613 C 214.240 617.675, 213.085 623.279, 212.326 625.452 C 210.725 630.038, 208.965 649.944, 209.729 654.829 C 210.016 656.661, 210.869 658.396, 211.625 658.686 C 212.381 658.977, 213 659.732, 213 660.364 C 213 662.148, 227.661 666.218, 235.889 666.718 C 244.092 667.217, 244.296 667.093, 246.088 660.500 C 246.686 658.300, 248.529 655.248, 250.184 653.718 C 252.578 651.505, 252.954 650.650, 252.026 649.531 C 251.277 648.629, 251.097 646.533, 251.525 643.683 L 252.191 639.242 260.114 638.550 C 267.125 637.939, 268.408 638.098, 271.268 639.929 C 278.469 644.542, 278.324 644.278, 276.536 649.545 C 275.655 652.142, 275.061 654.379, 275.217 654.517 C 275.372 654.654, 279.775 656.797, 285 659.278 L 294.500 663.788 307.500 662.921 C 346.596 660.310, 346.569 660.316, 350.609 653.500 C 353.497 648.629, 354.114 648.354, 363.782 647.624 C 368.868 647.240, 373.698 646.669, 374.515 646.356 C 376.845 645.462, 376.479 637.743, 374 635.500 C 371.193 632.960, 371.378 630, 374.345 630 C 375.635 630, 377.541 629.059, 378.582 627.910 C 380.438 625.858, 380.437 625.793, 378.546 624.410 C 377.485 623.634, 376.288 623, 375.885 623 C 374.858 623, 365.797 603.936, 363.781 597.533 C 362.790 594.387, 360.486 584.452, 359.134 577.500 C 358.706 575.300, 357.662 572.150, 356.813 570.500 C 355.965 568.850, 354.480 565.025, 353.513 562 C 351.029 554.232, 347.888 547, 346.997 547 C 346.581 547, 344.367 545.181, 342.077 542.959 C 339.786 540.736, 336.778 538.486, 335.391 537.959 C 331.381 536.434, 314.075 536.869, 309.500 538.610" stroke="#5ca7a9" fill="#5ca7a9" fill-opacity="0.2" fill-rule="evenodd"/><path class="svg-region-PCl" d="M 256.856 638.731 L 252.212 639.101 251.535 643.613 C 250.707 649.138, 251.989 651, 256.622 651 C 258.480 651, 260 651.450, 260 652 C 260 652.550, 261.393 653, 263.096 653 C 264.798 653, 267.448 653.742, 268.984 654.650 C 272.881 656.951, 274.453 655.969, 276.400 650.015 L 278.088 644.857 275.377 642.678 C 269.429 637.898, 268.850 637.775, 256.856 638.731" stroke="#465ee0" fill="#465ee0" fill-opacity="0.2" fill-rule="evenodd"/><path class="svg-region-VV" d="M 254.463 737.750 C 246.631 746.670, 246.127 749.914, 251.750 755.192 C 253.813 757.128, 257.008 760.600, 258.850 762.908 C 263.305 768.487, 268.583 771.848, 274.033 772.574 C 277.738 773.068, 279.661 772.623, 285.306 769.964 C 289.049 768.202, 292.756 765.776, 293.543 764.575 C 295.783 761.156, 293.637 756.751, 288.588 754.402 C 285.537 752.983, 284.423 751.836, 284.197 749.884 C 283.917 747.471, 283.444 747.227, 278.109 746.744 C 271.375 746.133, 267.636 744.408, 262.457 739.525 C 258.258 735.564, 256.689 735.216, 254.463 737.750" stroke="#7699d1" fill="#7699d1" fill-opacity="0.2" fill-rule="evenodd"/><path class="svg-region-B" d="M 801.342 492.750 C 799.113 495.913, 796.969 499.512, 796.577 500.750 C 796.186 501.988, 795.393 503, 794.816 503 C 794.239 503, 794.009 503.928, 794.306 505.063 C 794.603 506.197, 794.149 508.785, 793.297 510.813 C 792.099 513.668, 791.881 516.645, 792.336 524 C 792.839 532.146, 792.624 534.284, 790.827 539 C 787.540 547.631, 787.358 548.149, 785.391 554.500 C 784.057 558.805, 783.484 564.031, 783.363 573 C 783.270 579.875, 783.151 586.742, 783.097 588.259 C 783.020 590.441, 781.973 591.651, 778.095 594.037 C 773.451 596.894, 773.156 597.333, 772.567 602.278 C 772.225 605.150, 771.693 614.061, 771.384 622.080 L 770.823 636.659 775.005 642.580 C 778.988 648.219, 779.163 648.771, 778.691 654.215 L 778.196 659.930 787.848 660.215 L 797.500 660.500 797.813 663.750 C 798.421 670.055, 801.317 666.833, 802.531 658.500 C 804.133 647.504, 808.149 642.913, 824.804 633.038 C 832.504 628.473, 833.821 626.755, 837.956 615.875 C 839.449 611.947, 839.999 608.140, 839.999 601.734 C 840 593.421, 838.378 585, 836.777 585 C 836.372 585, 835.115 583.185, 833.984 580.968 L 831.926 576.936 828.713 580.310 C 824.630 584.599, 817.184 589.519, 816.230 588.560 C 815.828 588.156, 815.500 580, 815.500 570.435 C 815.500 553.444, 815.447 553.007, 813.210 551.437 C 811.111 549.965, 810.971 549.316, 811.536 543.665 C 812.206 536.963, 813.731 532, 815.121 532 C 815.605 532, 816 529.256, 816 525.901 C 816 522.547, 816.637 518.384, 817.416 516.651 C 818.195 514.918, 819.037 512.150, 819.288 510.500 C 819.538 508.850, 820.511 504.653, 821.449 501.173 C 822.387 497.693, 822.886 494.145, 822.557 493.287 C 821.590 490.767, 818.085 494.618, 817.390 498.963 C 817.071 500.957, 815.245 504.746, 813.331 507.383 C 809.908 512.100, 809.820 512.147, 807.812 510.338 C 805.931 508.644, 805.824 507.770, 806.453 499.157 C 806.828 494.018, 807.377 489.180, 807.674 488.407 C 807.981 487.608, 807.605 487, 806.804 487 C 806.028 487, 803.570 489.587, 801.342 492.750" stroke="#e23b33" fill="#e23b33" fill-opacity="0.2" fill-rule="evenodd"/><path class="svg-region-SB" d="M 878.636 133.482 C 875.252 135.275, 872.625 135.405, 869.839 133.914 C 868.193 133.033, 867.442 133.222, 865.866 134.914 C 864.547 136.329, 862.687 137, 860.083 137 C 857.866 137, 855.711 137.643, 854.981 138.523 C 854.222 139.437, 852.940 139.798, 851.772 139.428 C 850.497 139.023, 849.152 139.533, 847.874 140.905 C 846.800 142.057, 845.334 143, 844.616 143 C 843.898 143, 842.495 143.900, 841.500 145 C 840.505 146.100, 839.110 147, 838.402 147 C 837.693 147, 834.732 149.518, 831.821 152.596 C 828.910 155.674, 824.497 159.367, 822.014 160.803 C 812.656 166.216, 807.843 170.595, 802.473 178.582 C 795.482 188.982, 794 192.658, 794 199.602 C 794 207.197, 795.218 211.735, 800.549 224 C 804.247 232.507, 807.101 234.989, 813.191 234.995 C 815.771 234.998, 818.121 234.613, 818.413 234.141 C 818.705 233.669, 821.470 232.985, 824.558 232.622 C 827.646 232.259, 831.596 231.205, 833.336 230.280 C 835.076 229.355, 838.975 228.306, 842 227.948 C 845.025 227.591, 852 226.094, 857.500 224.621 C 863 223.149, 870.924 221.534, 875.109 221.032 C 879.294 220.530, 885.819 219.438, 889.609 218.605 C 893.399 217.772, 899.503 216.657, 903.173 216.129 C 906.843 215.600, 911.343 214.487, 913.173 213.656 C 915.003 212.825, 918.300 211.943, 920.500 211.696 C 926.020 211.075, 938.071 206.643, 942.863 203.472 C 947.012 200.726, 951.143 195.487, 952.944 190.685 C 955.319 184.352, 953.525 170.840, 949.185 162.388 C 946.798 157.738, 931.902 143.006, 927.087 140.533 C 919.386 136.577, 912.245 134.895, 899.142 133.949 C 891.796 133.418, 884.821 132.754, 883.642 132.474 C 882.464 132.193, 880.211 132.646, 878.636 133.482" stroke="#d2e400" fill="#d2e400" fill-opacity="0.2" fill-rule="evenodd"/><path class="svg-region-VOC" d="M 503.148 489.609 C 501.885 490.494, 498.138 494.656, 494.823 498.859 C 491.507 503.061, 487.436 507.588, 485.776 508.917 C 482.377 511.639, 480 516.530, 480 520.800 C 480 523.052, 481.548 525.141, 487.250 530.581 C 491.238 534.386, 495.538 538.222, 496.806 539.106 C 499.217 540.787, 501.414 544.277, 505.082 552.250 C 508.495 559.671, 512.936 558.533, 512.986 550.225 C 512.995 548.782, 513.837 547.632, 515.291 547.079 C 519.766 545.378, 520.508 543.338, 520.379 533.094 C 520.313 527.817, 519.513 520.602, 518.601 517.061 C 517.690 513.520, 516.538 506.688, 516.040 501.879 C 514.951 491.355, 513.154 488, 508.607 488 C 506.868 488, 504.411 488.724, 503.148 489.609" stroke="#ff8f93" fill="#ff8f93" fill-opacity="0.2" fill-rule="evenodd"/><path class="svg-region-OABl" d="M 630.022 442.478 C 628.049 444.513, 624.547 446.638, 621.576 447.603 C 615.168 449.683, 612.210 452.363, 611.368 456.853 C 610.736 460.220, 608.036 465.772, 605.459 469 C 604.801 469.825, 604.009 474.633, 603.700 479.685 C 603.065 490.060, 603.693 491.349, 609.125 490.818 C 611.958 490.541, 612.728 489.796, 615.051 485.089 C 616.519 482.113, 618.393 479.186, 619.214 478.585 C 620.036 477.985, 621.667 475.613, 622.840 473.314 C 624.012 471.016, 625.429 468.853, 625.988 468.507 C 626.972 467.899, 628.995 463.829, 632.454 455.500 C 634.397 450.820, 635.749 439, 634.341 439 C 633.819 439, 631.876 440.565, 630.022 442.478" stroke="#81244d" fill="#81244d" fill-opacity="0.2" fill-rule="evenodd"/><path class="svg-region-SOTl" d="M 501.249 445.032 C 498.151 446.277, 495.297 452.312, 496.939 454.147 C 497.605 454.891, 499.143 457.300, 500.357 459.500 C 501.571 461.700, 503.979 464.400, 505.709 465.500 C 507.674 466.749, 509.503 469.189, 510.582 472 C 514.798 482.977, 521.268 486.034, 526.985 479.750 C 529.332 477.169, 529.945 475.573, 529.957 472 C 529.983 464.654, 529.140 462.989, 524.358 460.939 L 520 459.071 520 453.782 L 520 448.493 513.563 446.247 C 506.614 443.822, 504.723 443.635, 501.249 445.032" stroke="#995b45" fill="#995b45" fill-opacity="0.2" fill-rule="evenodd"/><path class="svg-region-BPCl" d="M 766.453 639.584 C 764.279 640.335, 760.112 641.448, 757.193 642.058 C 754.273 642.667, 748.648 645.069, 744.693 647.394 C 734.476 653.401, 729.158 655.735, 724 656.476 C 719.261 657.156, 717.216 657.784, 707.500 661.538 C 704.200 662.813, 698.004 664.632, 693.731 665.582 C 687.250 667.022, 685.758 667.732, 684.731 669.865 C 683.975 671.434, 681.956 672.961, 679.500 673.817 C 667.709 677.932, 661.346 681.127, 649.939 688.659 C 647.980 689.952, 642.580 692.106, 637.939 693.445 C 629.277 695.944, 624.802 696.217, 599 695.820 C 586.369 695.626, 568.943 696.922, 567.350 698.175 C 566.115 699.146, 559.448 697.864, 552.293 695.280 C 547.702 693.623, 545.171 693.961, 538.113 697.176 C 534.641 698.758, 532.154 699.121, 526.852 698.822 C 520.798 698.480, 519.680 698.082, 516.726 695.219 C 514.071 692.646, 512.573 692, 509.261 692 C 506.983 692, 504.840 691.550, 504.500 691 C 504.160 690.450, 502.484 690, 500.776 690 C 499.058 690, 494.505 688.272, 490.585 686.131 C 485.786 683.510, 481.570 682.026, 477.518 681.530 C 466.139 680.138, 460.193 675.868, 456.937 666.750 C 456.201 664.688, 455.039 663, 454.355 663 C 453.472 663, 453.676 664.273, 455.061 667.405 C 457.979 674.002, 455.889 678.983, 448.875 682.153 C 446.238 683.345, 444.318 684.705, 444.608 685.174 C 445.664 686.883, 452.906 689.941, 465.565 694.023 C 482.973 699.636, 482.757 699.473, 482.342 706.668 C 482.158 709.875, 482.268 711.938, 482.587 711.250 C 483.358 709.588, 486.042 709.718, 488.441 711.532 C 489.509 712.339, 491.154 713, 492.097 713 C 493.039 713, 495.729 714.602, 498.073 716.561 C 504.509 721.938, 507.218 723, 514.496 723 C 522.596 723, 536.135 727.104, 538.732 730.346 C 541.104 733.308, 546.467 737.021, 552.250 739.704 C 554.862 740.916, 557 742.361, 557 742.915 C 557 743.469, 557.939 744.797, 559.086 745.866 C 560.755 747.420, 560.960 748.205, 560.114 749.787 C 559.532 750.875, 558.392 752.019, 557.580 752.331 C 555.604 753.089, 553.494 760.894, 554.888 762.288 C 555.600 763, 558.971 762.352, 565.711 760.209 C 576.028 756.928, 586.497 753.876, 594 751.961 C 596.475 751.330, 599.281 750.405, 600.236 749.906 C 601.191 749.408, 603.095 749, 604.465 749 C 606.796 749, 618.015 745.852, 622.500 743.941 C 623.600 743.472, 627.650 742.346, 631.500 741.439 C 635.350 740.533, 640.750 739.100, 643.500 738.255 C 655.037 734.712, 669.023 730.014, 670.699 729.118 C 671.690 728.588, 676.100 726.774, 680.500 725.085 C 688.281 722.098, 688.817 722.032, 700.101 722.652 C 708.353 723.106, 711.907 722.959, 712.410 722.145 C 712.800 721.515, 714.612 721, 716.437 721 C 720.335 721, 726.116 718.770, 727.952 716.558 C 728.663 715.701, 729.839 715, 730.565 715 C 731.292 715, 733.413 714.099, 735.281 712.997 C 739.148 710.715, 746.197 710.286, 760.500 711.459 L 769.500 712.198 776.408 708.349 C 785.417 703.329, 790.683 698.238, 791.916 693.356 C 793.652 686.485, 796.638 676.573, 797.881 673.563 C 798.697 671.584, 798.831 668.973, 798.289 665.563 L 797.485 660.500 787.819 660.215 L 778.152 659.929 778.711 654.513 C 779.214 649.636, 778.952 648.601, 776.088 644.137 C 774.338 641.409, 772.343 638.962, 771.656 638.698 C 770.968 638.434, 768.627 638.833, 766.453 639.584" stroke="#83385f" fill="#83385f" fill-opacity="0.2" fill-rule="evenodd"/><path class="svg-region-PNl" d="M 249.104 654.535 C 247.397 656.479, 246 659.152, 246 660.476 C 246 661.799, 245.550 663.160, 245 663.500 C 243.423 664.474, 243.823 666.943, 246.068 670.096 C 247.921 672.698, 248.707 673, 253.634 673 C 256.658 673, 260.114 672.486, 261.316 671.858 C 266.020 669.399, 277 657.860, 277 655.376 C 277 655.082, 275.661 655.135, 274.025 655.495 C 272.038 655.931, 270.302 655.625, 268.802 654.574 C 267.566 653.708, 265.332 653, 263.837 653 C 262.341 653, 260.840 652.550, 260.500 652 C 260.160 651.450, 258.155 651, 256.045 651 C 252.904 651, 251.644 651.642, 249.104 654.535" stroke="#bbc0d1" fill="#bbc0d1" fill-opacity="0.2" fill-rule="evenodd"/>
    </svg>