<svg xmlns="http://www.w3.org/2000/svg" width="1078" height="1151" viewBox="0 0 1078 1151" version="1.1">
    <path class="svg-region-V" d="M 494 201.113 C 467.130 202.540, 458.768 204.991, 438.750 217.307 C 435.038 219.591, 432 221.925, 432 222.494 C 432 223.063, 427.946 227.544, 422.992 232.453 C 418.037 237.362, 412.299 243.867, 410.242 246.910 C 408.184 249.952, 405.262 253.507, 403.750 254.809 C 402.238 256.112, 400.997 257.700, 400.994 258.339 C 400.991 258.978, 398.553 262.029, 395.577 265.121 C 392.600 268.213, 389.038 272.966, 387.660 275.684 C 386.283 278.402, 384.451 281.211, 383.588 281.927 C 382.726 282.642, 380.174 286.852, 377.917 291.282 C 373.561 299.831, 371.606 302.922, 364.496 312.500 C 358.775 320.206, 345.275 343.581, 343.958 348.059 C 338.040 368.192, 337.392 387.226, 342.301 396.717 C 343.786 399.586, 345 402.789, 345 403.835 C 345 406.028, 359.492 435.568, 361.036 436.522 C 361.601 436.871, 367.755 437.560, 374.712 438.053 C 387.096 438.931, 387.483 438.896, 393.109 436.371 C 398.063 434.147, 399.445 432.874, 403.118 427.146 C 405.461 423.491, 407.674 420.275, 408.035 420 C 408.753 419.453, 410.081 417.065, 415.539 406.500 C 419.125 399.558, 419.150 399.424, 418.558 390.264 C 417.865 379.533, 418.744 376.673, 424.652 370.442 C 426.768 368.210, 431.650 362.836, 435.500 358.500 C 439.350 354.163, 445.963 346.891, 450.196 342.338 C 454.429 337.786, 459.788 331.460, 462.105 328.281 C 464.422 325.101, 468.466 320.250, 471.092 317.500 C 475.785 312.586, 484.998 302.603, 498.164 288.167 L 504.828 280.860 513.664 285.126 C 518.524 287.472, 523.135 290.019, 523.910 290.785 C 524.686 291.551, 527.723 293.315, 530.660 294.706 C 533.597 296.096, 536 297.565, 536 297.969 C 536 299.449, 549.752 305, 553.420 305 C 556.290 305, 557.732 304.349, 559.512 302.250 C 572.890 286.474, 577.216 280.981, 578.612 278 C 579.514 276.075, 581.770 271.438, 583.626 267.695 C 586.690 261.516, 587 260.078, 587 252.059 C 587 241.418, 586.338 239.961, 577.769 231.722 C 573.553 227.669, 571.018 224.358, 570.571 222.321 C 569.651 218.136, 560.066 209, 556.594 209 C 555.205 209, 552.590 208.357, 550.784 207.572 C 545.481 205.265, 526.083 201.086, 518.500 200.617 C 514.650 200.378, 503.625 200.601, 494 201.113 M 442.278 329.518 C 440.307 330.899, 435.370 337, 436.224 337 C 436.422 337, 438.571 334.975, 441 332.500 C 445.592 327.822, 445.974 326.929, 442.278 329.518 M 415 360.059 C 415 360.641, 415.450 360.840, 416 360.500 C 416.550 360.160, 417 359.684, 417 359.441 C 417 359.198, 416.550 359, 416 359 C 415.450 359, 415 359.477, 415 360.059" stroke="#dd8a8a" fill="#dd8a8a" fill-opacity="0.2" fill-rule="evenodd"/><path class="svg-region-SV" d="M 498 288.220 C 485.977 301.479, 475.859 312.463, 470.566 318 C 467.674 321.025, 463.925 325.554, 462.234 328.065 C 460.542 330.575, 455.411 336.695, 450.829 341.665 C 433.639 360.311, 425.201 369.590, 422.786 372.500 C 418.169 378.065, 417.758 379.629, 418.490 388.877 C 419.290 398.987, 418.442 401.838, 410.832 414.606 C 408.174 419.065, 406 423.002, 406 423.356 C 406 423.710, 408.769 424, 412.154 424 L 418.308 424 423.870 430.146 C 430.740 437.738, 437.114 440.976, 445.212 440.990 C 448.354 440.996, 453.304 441.855, 456.212 442.900 C 459.121 443.944, 463.075 445.031, 465 445.314 C 466.925 445.598, 469.232 446.120, 470.127 446.475 C 471.434 446.993, 471.885 446.249, 472.416 442.710 C 472.858 439.762, 473.976 437.473, 475.789 435.805 C 478.256 433.534, 479.334 433.303, 487.765 433.234 C 496.933 433.158, 497.045 433.187, 498.478 435.958 C 500.133 439.157, 501.797 440, 506.459 440 C 508.272 440, 510.315 440.675, 511 441.500 C 512.819 443.691, 513.440 443.416, 516.436 439.092 C 518.429 436.216, 519.371 433.246, 520.001 427.842 C 521.155 417.958, 522.456 412.360, 524.045 410.445 C 524.772 409.570, 528.271 407.537, 531.821 405.927 C 543.101 400.813, 552.861 402.292, 556.369 409.648 C 558.265 413.623, 559.020 413.747, 562.597 410.670 L 565.306 408.340 562.811 402.920 C 557.682 391.776, 557.596 391.371, 559.017 385.191 C 559.737 382.061, 560.399 376.241, 560.489 372.258 L 560.652 365.015 565.159 361.504 C 567.638 359.572, 571.092 356.008, 572.833 353.583 C 575.679 349.619, 576 348.452, 576 342.054 C 576 334.186, 574.233 328.730, 571.150 327.080 C 566.843 324.775, 559.024 326.476, 553.326 330.958 C 551.919 332.065, 549.178 333.409, 547.234 333.946 C 544.278 334.762, 543.229 334.588, 540.834 332.882 C 536.948 330.115, 535.334 326.619, 534.653 319.500 C 534.338 316.200, 533.794 312.093, 533.445 310.374 C 532.952 307.950, 533.245 306.938, 534.746 305.874 C 535.811 305.118, 537.207 303.512, 537.847 302.305 C 538.878 300.361, 538.628 299.818, 535.661 297.555 C 533.819 296.150, 531.842 295, 531.268 295 C 530.694 295, 527.921 293.415, 525.105 291.478 C 520.750 288.483, 506.192 280.946, 504.914 281.026 C 504.687 281.040, 501.575 284.278, 498 288.220" stroke="#c666b5" fill="#c666b5" fill-opacity="0.2" fill-rule="evenodd"/><path class="svg-region-SF" d="M 588.673 249.750 C 588.429 250.162, 587.899 252.944, 587.495 255.932 C 587.092 258.919, 585.297 264.319, 583.507 267.932 C 581.716 271.544, 579.518 276.075, 578.622 278 C 576.368 282.841, 557.307 305, 555.397 305 C 554.164 305, 553.987 305.675, 554.543 308.250 C 556.285 316.321, 560.293 321.017, 568.282 324.348 C 573.359 326.465, 575.948 332.098, 575.978 341.096 C 576.005 349.098, 574.623 352.133, 567.403 359.932 C 562.345 365.395, 562 366.091, 562 370.833 C 562 375.402, 562.328 376.148, 565.344 378.449 C 567.184 379.852, 569.067 381, 569.530 381 C 569.993 381, 571.300 381.827, 572.436 382.838 C 573.571 383.849, 576.075 385.281, 578 386.020 C 579.925 386.759, 583.975 389.469, 587 392.043 C 594.691 398.585, 598.521 400.418, 601.853 399.150 C 603.309 398.596, 607.875 397.945, 612 397.703 C 622.601 397.082, 631.894 393.824, 634.748 389.727 C 635.984 387.952, 644.306 378.915, 653.240 369.645 C 666.543 355.842, 669.426 352.342, 669.160 350.315 C 668.982 348.953, 669.505 347.088, 670.323 346.169 C 671.140 345.251, 671.965 341.992, 672.155 338.928 C 672.448 334.187, 672.089 332.735, 669.750 329.199 C 668.237 326.913, 666.980 324.246, 666.956 323.271 C 666.932 322.297, 666.220 319.700, 665.374 317.500 C 663.916 313.707, 663.348 311.152, 659.503 291.105 C 657.649 281.443, 655.407 276.570, 649.620 269.625 C 643.131 261.840, 640.154 259.354, 633.093 255.826 C 626.643 252.605, 626.148 252.522, 610.296 252.017 C 599.277 251.665, 593.694 251.100, 592.846 250.250 C 591.456 248.856, 589.353 248.604, 588.673 249.750" stroke="#8c6b55" fill="#8c6b55" fill-opacity="0.2" fill-rule="evenodd"/><path class="svg-region-IF" d="M 653.220 369.666 C 644.297 378.925, 635.984 387.947, 634.748 389.716 C 631.900 393.790, 622.120 397.055, 610.174 397.919 C 601.360 398.556, 600.503 399.081, 598.802 404.879 C 598.114 407.223, 598.173 407.245, 602.802 406.400 C 609.472 405.182, 626.483 405.823, 633.144 407.543 C 636.249 408.344, 640.560 409, 642.724 409 C 647.480 409, 660.351 413.455, 664.500 416.537 C 666.150 417.762, 669.808 419.428, 672.628 420.237 C 677.629 421.673, 685.098 426.629, 687.877 430.356 C 688.639 431.376, 690.778 432.845, 692.631 433.619 C 694.484 434.393, 696 435.477, 696 436.028 C 696 437.183, 701.909 440.991, 703.711 440.996 C 704.377 440.998, 705.784 440.074, 706.839 438.943 C 708.097 437.592, 709.724 436.991, 711.578 437.193 C 714.161 437.474, 714.463 437.158, 715.117 433.500 C 715.510 431.300, 716.817 427.250, 718.022 424.500 C 719.985 420.018, 720.149 418.413, 719.599 409 C 718.871 396.519, 717.847 392.404, 713.934 386.234 C 710.409 380.676, 710.317 379.612, 713.250 378.296 C 715.475 377.298, 715.463 377.265, 712.226 375.290 C 707.841 372.615, 703.062 366.131, 703.028 362.809 C 702.991 359.215, 701.964 358.749, 693.617 358.534 C 688.792 358.410, 684.728 357.611, 681 356.052 C 670.011 351.457, 671.448 350.753, 653.220 369.666" stroke="#f2823b" fill="#f2823b" fill-opacity="0.2" fill-rule="evenodd"/><path class="svg-region-PF" d="M 538 301.960 C 538 302.487, 536.814 304.019, 535.365 305.362 C 533.245 307.328, 532.861 308.363, 533.401 310.653 C 533.771 312.219, 534.332 316.200, 534.648 319.500 C 535.312 326.433, 536.888 329.980, 540.601 332.900 C 543.573 335.239, 546.588 334.958, 551.500 331.884 C 558.773 327.333, 563.264 325.770, 567.650 326.264 C 570.042 326.534, 572 326.569, 572 326.342 C 572 326.115, 570.087 325.086, 567.750 324.055 C 560.581 320.895, 556.113 315.548, 554.541 308.250 C 554.060 306.016, 553.266 305, 552.003 305 C 550.993 305, 548.066 304.100, 545.500 303 C 540.392 300.811, 538 300.479, 538 301.960 M 562.676 363.436 C 560.248 365.377, 559.941 366.170, 560.489 369.097 C 560.840 370.968, 560.595 375.425, 559.946 379 C 557.608 391.874, 557.620 392.056, 561.340 400.218 C 564.345 406.812, 565.371 408.128, 568.544 409.454 C 573.056 411.339, 580.640 411.386, 588 409.575 C 595.960 407.616, 599 406.243, 599 404.607 C 599 403.813, 599.244 402.529, 599.542 401.752 C 599.897 400.826, 598.779 399.750, 596.292 398.622 C 594.206 397.677, 590.274 394.882, 587.553 392.411 C 584.832 389.941, 580.657 387.057, 578.276 386.004 C 575.894 384.950, 573.251 383.393, 572.401 382.544 C 571.552 381.695, 570.262 381, 569.534 381 C 568.807 381, 566.814 379.694, 565.106 378.099 C 562.426 375.595, 562 374.507, 562 370.155 C 562 366.101, 562.429 364.813, 564.190 363.580 C 565.394 362.736, 566.181 361.851, 565.940 361.613 C 565.698 361.374, 564.229 362.195, 562.676 363.436" stroke="#faaaaa" fill="#faaaaa" fill-opacity="0.2" fill-rule="evenodd"/><path class="svg-region-AAB" d="M 639.174 411.314 C 636.103 414.584, 635.984 425.386, 639.001 427.001 C 644.443 429.913, 648.247 444.424, 645.108 450.296 C 643.976 452.413, 643.946 453.456, 644.949 455.876 C 646.739 460.198, 645.590 462.429, 638.935 467.550 C 635.671 470.062, 633 472.508, 633 472.987 C 633 473.466, 632.408 474.452, 631.685 475.179 C 629.332 477.542, 625.189 485.402, 624.084 489.599 C 622.481 495.683, 618.932 500.442, 615.718 500.816 C 614.223 500.990, 613 501.485, 613 501.914 C 613 502.344, 610.188 505.449, 606.750 508.814 C 594.413 520.890, 592.952 522, 589.387 522 C 586.570 522, 585.628 522.628, 583.575 525.881 C 582.228 528.015, 579.972 531.006, 578.563 532.527 C 577.153 534.048, 576 536.325, 576 537.587 C 576 538.849, 575.550 540.160, 575 540.500 C 574.450 540.840, 574 542.494, 574 544.176 C 574 546.879, 574.261 547.155, 576.250 546.561 C 577.487 546.191, 581.425 545.630, 585 545.314 C 588.575 544.998, 591.950 544.405, 592.500 543.996 C 593.050 543.587, 595.606 542.948, 598.179 542.575 C 604.759 541.624, 622.369 536.484, 627.408 534.044 C 629.731 532.920, 631.934 532, 632.304 532 C 632.674 532, 639.395 528.887, 647.239 525.083 C 657.410 520.149, 661.787 517.496, 662.500 515.833 C 663.089 514.459, 664.894 513.090, 666.890 512.504 C 668.980 511.890, 673.266 508.534, 678.065 503.754 C 682.347 499.489, 686.267 496, 686.776 496 C 689.074 496, 700.818 485.799, 703.750 481.257 C 707.762 475.041, 707.813 471.754, 703.989 466.110 C 702.353 463.695, 700.300 459.195, 699.427 456.110 C 694.225 437.720, 693.100 434.960, 689.300 431.265 C 683.042 425.181, 676.805 421.085, 671.409 419.517 C 668.607 418.702, 665.160 417.127, 663.747 416.016 C 660.734 413.646, 647.643 409.017, 643.924 409.007 C 642.508 409.003, 640.370 410.042, 639.174 411.314" stroke="#7f3c1a" fill="#7f3c1a" fill-opacity="0.2" fill-rule="evenodd"/><path class="svg-region-APB" d="M 603.500 406.192 C 592.259 408.393, 582.327 411.224, 579.500 413.033 C 577.850 414.088, 574.130 416.144, 571.234 417.601 C 564.640 420.917, 562.063 423.962, 558.511 432.635 C 556.965 436.411, 553.830 443.550, 551.546 448.500 C 547.404 457.475, 545.583 465.171, 542.908 485 C 540.967 499.391, 544.004 537.307, 547.898 547.300 C 548.972 550.058, 549.085 550.091, 555.244 549.473 C 565.487 548.445, 572.340 547.068, 573.067 545.891 C 573.443 545.283, 574.300 542.921, 574.972 540.643 C 576.376 535.880, 576.433 535.773, 580.683 529.899 C 585.716 522.943, 586.816 522, 589.894 522 C 591.671 522, 593.926 520.938, 595.734 519.250 C 597.354 517.737, 600.737 514.815, 603.252 512.755 C 605.766 510.696, 609.266 507.190, 611.029 504.964 C 613.891 501.350, 614.078 500.733, 612.780 499.208 C 611.980 498.269, 610.327 494.125, 609.107 490 C 607.887 485.875, 606.464 481.466, 605.944 480.203 C 604.740 477.272, 604.712 467.296, 605.906 466.558 C 606.405 466.250, 607.130 463.636, 607.517 460.749 C 607.905 457.862, 608.778 454.148, 609.458 452.495 C 610.996 448.753, 620.904 439.029, 623.194 439.012 C 625.483 438.996, 629.477 435.267, 631.775 431 C 632.812 429.075, 634.544 427.368, 635.625 427.207 C 637.396 426.943, 637.549 426.277, 637.176 420.418 C 636.843 415.195, 637.111 413.535, 638.542 411.954 C 639.520 410.873, 640.136 409.821, 639.911 409.616 C 639.685 409.412, 637.025 408.559, 634 407.720 C 626.977 405.773, 609.986 404.922, 603.500 406.192" stroke="#ac7444" fill="#ac7444" fill-opacity="0.2" fill-rule="evenodd"/><path class="svg-region-PC" d="M 531.203 405.982 C 528.289 407.458, 525.219 409.353, 524.379 410.192 C 522.465 412.107, 521.145 417.286, 520.003 427.365 C 519.330 433.312, 518.456 436.177, 516.422 439.113 L 513.731 442.995 515.673 447.748 C 517.226 451.550, 517.502 453.941, 517.050 459.707 C 516.210 470.442, 512.783 472.072, 508.742 463.660 C 506.288 458.551, 505.002 459.096, 504.987 465.250 C 504.980 468.137, 503.855 474.005, 502.487 478.288 C 499.055 489.035, 499.159 490.792, 503.250 491.187 C 506.264 491.477, 506.671 491.973, 508.854 498 C 510.149 501.575, 512.255 508.325, 513.534 513 C 514.813 517.675, 516.544 522.820, 517.380 524.432 C 519.857 529.206, 520.456 537.217, 518.605 540.797 C 516.660 544.559, 517.429 547, 520.560 547 C 521.850 547, 523.940 547.400, 525.203 547.888 C 526.466 548.377, 530.781 549.279, 534.792 549.892 C 540.989 550.841, 542.541 550.771, 545.132 549.432 C 547.763 548.071, 548.080 547.488, 547.450 545.178 C 544.457 534.207, 542.702 518.037, 542.654 501 C 542.592 478.504, 545.481 461.240, 551.321 449.215 C 553.115 445.522, 555.629 439.691, 556.910 436.259 C 560.794 425.843, 563.893 421.865, 571.083 418.066 C 574.612 416.202, 578.573 413.849, 579.885 412.838 L 582.270 411 576.835 411 C 573.846 411, 570.973 410.589, 570.450 410.086 C 568.589 408.297, 565.425 408.561, 562.331 410.764 C 558.321 413.620, 558.102 413.590, 556.860 410.027 C 554.305 402.699, 541.627 400.700, 531.203 405.982" stroke="#cda789" fill="#cda789" fill-opacity="0.2" fill-rule="evenodd"/><path class="svg-region-DB" d="M 401.936 428.950 C 400.260 431.673, 398.015 434.178, 396.945 434.517 C 394.372 435.334, 394.476 436.104, 397.886 441.482 C 401.796 447.646, 405.309 450.189, 411.203 451.121 C 416.387 451.941, 429.468 458.962, 434 463.357 C 444.361 473.406, 455.153 486.099, 461.008 495.124 C 463.371 498.768, 466.574 502.499, 468.126 503.415 C 469.971 504.505, 471.549 506.776, 472.686 509.980 C 474.388 514.769, 475.877 515.952, 480.250 515.986 C 481.460 515.996, 482 515.218, 482 513.468 C 482 507.306, 488.963 498.092, 496.866 493.797 C 499.309 492.469, 500 491.428, 500 489.077 C 500 487.419, 501.125 482.615, 502.500 478.403 C 504.013 473.767, 505 468.427, 505 464.872 C 505 459.255, 504.890 459, 502.468 459 C 498.602 459, 493 456.315, 493 454.463 C 493 453.116, 492.315 452.940, 489.147 453.475 C 485.518 454.088, 485.218 453.941, 483.975 450.941 C 482.689 447.836, 482.528 447.769, 477.578 448.273 C 474.040 448.633, 472.122 448.381, 471.254 447.441 C 470.568 446.699, 468.318 445.818, 466.254 445.484 C 464.189 445.149, 459.979 444.004, 456.897 442.938 C 453.816 441.872, 448.641 440.996, 445.397 440.990 C 437.098 440.976, 430.800 437.804, 423.870 430.146 L 418.308 424 411.645 424 L 404.982 424 401.936 428.950" stroke="#e8b1e4" fill="#e8b1e4" fill-opacity="0.2" fill-rule="evenodd"/><path class="svg-region-MB" d="M 390.500 437.537 C 387.622 438.856, 379.943 438.834, 367.125 437.470 L 362.751 437.004 363.397 440.236 C 363.753 442.013, 365.258 445.275, 366.742 447.484 C 368.227 449.693, 370.245 453.750, 371.227 456.500 C 372.209 459.250, 373.878 462.676, 374.936 464.114 C 375.993 465.551, 377.171 468.394, 377.553 470.430 C 378.133 473.521, 384.481 483.203, 387.119 485.020 C 387.534 485.306, 388.834 487.781, 390.007 490.520 C 392.303 495.879, 398.159 505.153, 401.463 508.664 C 402.583 509.854, 404.625 512.705, 406 515 C 411.147 523.591, 430.862 538.454, 445.219 544.567 C 451.891 547.407, 456.026 548.387, 466.500 549.611 C 484.397 551.701, 517.752 551.987, 521.334 550.081 C 524.609 548.338, 524.769 547, 521.700 547 C 520.435 547, 518.864 546.464, 518.209 545.809 C 517.553 545.153, 515.776 544.566, 514.259 544.503 C 505.585 544.146, 505.112 543.999, 503.421 541.136 C 502.490 539.560, 500.327 537.461, 498.614 536.470 C 489.614 531.266, 485.145 526.029, 483.591 518.865 C 483.108 516.638, 482.327 516.126, 478.545 515.559 C 474.384 514.935, 474.023 514.638, 473.402 511.328 C 472.947 508.904, 471.313 506.450, 468.279 503.634 C 465.828 501.360, 462.229 497.025, 460.281 494 C 455.569 486.686, 445.937 475.275, 435.900 465.119 C 430.436 459.589, 417.185 451.967, 411.791 451.251 C 405.948 450.475, 401.077 446.969, 397.543 440.997 C 395.917 438.249, 394.342 436.037, 394.043 436.081 C 393.744 436.126, 392.150 436.781, 390.500 437.537" stroke="#f9c6c6" fill="#f9c6c6" fill-opacity="0.2" fill-rule="evenodd"/><path class="svg-region-AP" d="M 533.200 593.200 C 531.632 594.768, 531.698 602.695, 533.493 628.500 C 534.297 640.050, 535.621 659.175, 536.435 671 C 537.249 682.825, 537.650 695.045, 537.325 698.156 C 536.747 703.699, 536.796 703.843, 539.821 705.408 C 543.051 707.078, 545.572 711.668, 547.920 720.159 C 548.717 723.039, 550.792 726.522, 553.355 729.279 C 559.535 735.930, 561.883 740.408, 563.121 747.904 C 564.163 754.210, 564.058 755.183, 561.553 762.439 C 557.949 772.882, 558.253 773.437, 567.178 772.688 C 571.101 772.359, 574.722 771.678, 575.225 771.175 C 575.779 770.621, 574.929 768.289, 573.070 765.269 C 570.787 761.557, 570 759.075, 570 755.580 C 570 751.294, 570.453 750.401, 575.145 745.440 C 577.975 742.448, 581.025 740, 581.923 740 C 584.736 740, 588 737.016, 588 734.443 C 588 732.266, 588.428 732, 591.941 732 C 594.109 732, 596.160 732.450, 596.500 733 C 596.849 733.564, 601.709 734, 607.655 734 C 616.247 734, 618.681 734.339, 620.846 735.836 C 626.727 739.904, 626.075 738.977, 616.180 729.199 C 610.503 723.589, 605.250 719, 604.506 719 C 603.762 719, 601.769 717.835, 600.077 716.411 C 597.607 714.333, 597 713.051, 597 709.911 L 597 706 610.965 706 C 620.391 706, 626.323 705.536, 629.215 704.573 C 631.572 703.788, 635.750 702.870, 638.500 702.532 C 644.531 701.791, 648.297 700.791, 662 696.294 C 676.470 691.545, 678.238 689.810, 681.346 677.305 C 682.686 671.912, 684.731 665.025, 685.891 662 C 687.652 657.404, 688.808 649, 687.678 649 C 685.416 649, 677.718 652.658, 676.946 654.100 C 675.707 656.416, 670.566 656.643, 665.784 654.592 C 652.933 649.080, 644.956 646.750, 636.065 645.912 C 628.878 645.234, 625.878 644.504, 624 642.977 C 621.693 641.102, 617.897 639.134, 613.859 637.721 C 611.199 636.790, 606.500 626.113, 606.500 621 C 606.500 616.963, 606.963 616.062, 611 612.248 C 613.475 609.910, 616.513 607.723, 617.750 607.390 C 621.407 606.404, 620.322 605, 615.904 605 C 611.280 605, 601.569 602.415, 598.398 600.339 C 595.082 598.169, 579.457 596.568, 575.915 598.035 C 574.312 598.699, 573 599.638, 573 600.121 C 573 601.499, 568.166 601.150, 565.715 599.595 C 564.497 598.823, 561.025 597.871, 558 597.480 C 554.975 597.089, 551.600 596.272, 550.500 595.663 C 547.780 594.157, 540.070 592.098, 536.950 592.044 C 535.548 592.020, 533.860 592.540, 533.200 593.200" stroke="#fc7143" fill="#fc7143" fill-opacity="0.2" fill-rule="evenodd"/><path class="svg-region-PP" d="M 440 590.864 C 434.225 592.314, 428.150 594.321, 426.500 595.324 C 424.850 596.328, 421.837 599.968, 419.805 603.414 C 417.773 606.859, 414.620 611.462, 412.799 613.643 C 410.977 615.823, 408.397 619.661, 407.065 622.172 C 403.268 629.329, 398.370 631.500, 386.022 631.500 L 376.120 631.500 375.470 636.220 C 374.952 639.984, 375.212 641.502, 376.753 643.720 C 378.657 646.459, 382.639 657.203, 385.010 666 C 385.677 668.475, 387.070 673.200, 388.104 676.500 C 389.139 679.800, 390.437 684.341, 390.989 686.591 C 391.540 688.841, 392.882 691.488, 393.970 692.473 C 395.686 694.026, 396.353 694.097, 398.991 693.004 C 403.071 691.314, 409.571 692.173, 416.119 695.268 C 420.379 697.282, 423.624 697.926, 431.691 698.360 C 437.296 698.662, 442.696 699.342, 443.691 699.871 C 444.686 700.400, 446.987 701.385, 448.804 702.060 C 451.168 702.938, 452.265 704.076, 452.662 706.060 C 453.156 708.529, 454.111 709.118, 461.358 711.421 C 465.836 712.844, 470.057 714.007, 470.737 714.004 C 471.418 714.002, 473.111 712.200, 474.500 710 C 475.974 707.665, 477.802 706, 478.890 706 C 479.916 706, 482.469 705.284, 484.563 704.409 C 487.770 703.069, 491.297 702.910, 506.935 703.400 C 517.146 703.720, 528.200 704.244, 531.500 704.564 L 537.500 705.146 537.637 699.823 C 537.778 694.330, 536.097 665.209, 533.520 628.500 C 531.742 603.183, 531.642 594.758, 533.100 593.300 C 534.661 591.739, 525.030 589.094, 514.955 588.317 C 507.824 587.767, 506.784 587.908, 505.520 589.599 C 504.154 591.427, 503.980 591.433, 500.969 589.750 C 497.077 587.574, 494.632 587.540, 491.463 589.616 C 489.803 590.704, 488.098 591.002, 486.248 590.526 C 483.008 589.693, 479.707 589.441, 463 588.747 C 451.784 588.281, 449.422 588.498, 440 590.864" stroke="#c4743d" fill="#c4743d" fill-opacity="0.2" fill-rule="evenodd"/><path class="svg-region-LPl" d="M 620.921 606.907 C 617.461 607.355, 615.201 608.508, 611.671 611.626 C 605.980 616.653, 605.130 619.860, 607.552 627.166 C 609.904 634.263, 612.346 637.370, 616.804 638.936 C 618.837 639.650, 621.667 641.323, 623.093 642.654 C 625.263 644.679, 627.219 645.214, 635.093 645.935 C 640.267 646.409, 646.525 647.494, 649 648.346 C 661.154 652.529, 665.581 654.238, 666.450 655.080 C 666.972 655.586, 669.254 656, 671.520 656 C 674.668 656, 676.152 655.410, 677.813 653.500 C 679.009 652.125, 680.748 651, 681.678 651 C 685.679 651, 691.787 646.827, 695.343 641.664 C 697.354 638.743, 699 635.669, 699 634.832 C 699 632.957, 695.450 629.604, 694.251 630.345 C 693.769 630.643, 692.053 630.015, 690.438 628.950 C 688.822 627.885, 686.723 627.010, 685.774 627.007 C 684.824 627.003, 681.733 624.793, 678.905 622.095 C 674.192 617.601, 672.998 617.015, 664.631 615.094 C 659.609 613.941, 653.250 612.359, 650.500 611.578 C 630.072 605.773, 629.893 605.745, 620.921 606.907" stroke="#d2454f" fill="#d2454f" fill-opacity="0.2" fill-rule="evenodd"/><path class="svg-region-DMl" d="M 398.500 693.195 C 397.400 693.819, 396.169 694.818, 395.765 695.415 C 394.187 697.746, 395.077 705.624, 397.510 710.849 C 399.352 714.808, 400.011 717.928, 400.044 722.849 C 400.068 726.507, 400.542 731.525, 401.098 734 C 401.654 736.475, 402.467 740.434, 402.904 742.799 C 403.995 748.709, 405.174 749.701, 409.322 748.201 C 411.148 747.540, 413.826 747, 415.274 747 C 418.302 747, 423 748.922, 423 750.161 C 423 750.622, 424.012 751.007, 425.250 751.015 C 426.488 751.023, 428.625 751.671, 430 752.455 C 431.375 753.239, 433.908 754.536, 435.628 755.338 C 437.348 756.140, 439.062 757.292, 439.437 757.898 C 439.812 758.504, 440.776 759, 441.580 759 C 442.385 759, 444.884 760.218, 447.133 761.707 C 451.124 764.348, 451.258 764.367, 452.634 762.486 C 453.409 761.425, 454.995 760.545, 456.157 760.529 C 457.320 760.513, 458.660 759.712, 459.136 758.750 C 459.611 757.788, 460.383 756.212, 460.851 755.250 C 461.319 754.288, 462.817 753.365, 464.180 753.200 C 466.900 752.871, 468.404 750.055, 471.498 739.500 C 472.466 736.200, 473.649 733.072, 474.129 732.550 C 474.608 732.028, 475 728.815, 475 725.411 C 475 717.036, 473.426 715.286, 462.878 711.936 C 455.650 709.640, 454.308 708.854, 453.100 706.209 C 450.979 701.563, 443.847 698.959, 431.500 698.324 C 423.220 697.898, 420.436 697.311, 415.313 694.905 C 408.767 691.832, 402.100 691.153, 398.500 693.195" stroke="#68533d" fill="#68533d" fill-opacity="0.2" fill-rule="evenodd"/><path class="svg-region-VMl" d="M 492 719.705 C 490.625 719.928, 487.026 721.323, 484.002 722.805 C 477.629 725.929, 473.920 730.712, 471.443 739 C 470.539 742.025, 469.423 745.400, 468.963 746.500 C 466.602 752.141, 466.746 753, 470.787 757.385 C 476.522 763.606, 477.727 765.869, 478.520 771.904 C 479.467 779.108, 481.768 781.065, 494.064 785.120 C 502.863 788.021, 504.390 788.261, 507.325 787.199 C 511.247 785.781, 515.350 785.656, 517.764 786.882 C 519.961 787.998, 528.419 790, 530.937 790 C 531.987 790, 534.196 788.650, 535.846 787 C 537.496 785.350, 539.402 784, 540.081 784 C 540.760 784, 543.646 782.202, 546.495 780.004 C 549.344 777.806, 553.435 775.390, 555.587 774.634 C 558.221 773.709, 559.406 772.736, 559.212 771.657 C 559.054 770.775, 560.120 766.591, 561.581 762.358 C 564.056 755.189, 564.161 754.200, 563.121 747.904 C 561.821 740.032, 559.420 735.651, 552.461 728.456 C 547.760 723.595, 547.007 723.197, 541.257 722.530 C 537.286 722.069, 533.811 722.237, 531.490 723.003 C 527.259 724.400, 522.755 723.993, 510.551 721.112 C 502.071 719.111, 497.705 718.780, 492 719.705" stroke="#e59376" fill="#e59376" fill-opacity="0.2" fill-rule="evenodd"/><path class="svg-region-PMl" d="M 271.500 720.949 C 270.400 721.450, 268.040 721.891, 266.256 721.930 C 263.640 721.986, 262.431 722.803, 260.006 726.150 C 255.086 732.942, 256.401 739.743, 263.156 742.446 C 265.292 743.301, 268.044 744.003, 269.270 744.007 C 270.497 744.010, 272.850 744.907, 274.500 746 C 278.304 748.519, 280.652 748.507, 286.647 745.937 C 292.315 743.508, 292.964 742.682, 292.985 737.880 C 292.996 735.192, 292.133 733.262, 289.633 730.380 C 287.781 728.246, 285.193 725.235, 283.882 723.688 C 281.290 720.632, 275.171 719.278, 271.500 720.949" stroke="#90cf92" fill="#90cf92" fill-opacity="0.2" fill-rule="evenodd"/><path class="svg-region-PV" d="M 370.504 609.590 C 368.636 611.605, 368 613.388, 368 616.607 C 368 619.758, 367.410 621.472, 365.811 622.961 C 362.670 625.888, 360.648 625.502, 356.928 621.265 C 353.337 617.175, 351.536 616.078, 342.440 612.439 C 335.016 609.469, 334.571 609.458, 330.813 612.133 C 329.165 613.306, 325.721 614.492, 323.159 614.768 C 319.956 615.112, 316.989 616.367, 313.666 618.781 C 311.008 620.713, 307.183 622.883, 305.166 623.603 C 300.306 625.339, 291.120 625.284, 288 623.500 C 284.608 621.561, 280.484 621.648, 277.215 623.727 C 275.722 624.677, 274.275 625.739, 274 626.087 C 273.725 626.435, 270.205 626.950, 266.178 627.232 C 262.152 627.513, 258.349 628.251, 257.728 628.872 C 257.108 629.492, 254.738 630, 252.463 630 C 249.003 630, 247.637 629.345, 244.121 626 C 239.457 621.563, 236.001 620.914, 230.950 623.526 L 228 625.051 228.044 620.276 C 228.068 617.649, 228.698 613.790, 229.443 611.700 C 231.140 606.943, 229.376 607.189, 226.849 612.061 C 224.970 615.684, 223.351 625.872, 222.011 642.500 C 221.298 651.350, 221.420 652.874, 223.072 655.755 C 224.670 658.542, 224.786 659.690, 223.876 663.755 C 223.293 666.365, 222.617 670.525, 222.375 673 C 222.132 675.475, 220.748 681.123, 219.298 685.552 L 216.661 693.603 219 698.286 C 221.144 702.578, 221.207 703.115, 219.758 704.734 C 218.889 705.705, 217.859 708.655, 217.469 711.289 C 216.898 715.156, 217.104 716.458, 218.542 718.046 C 220.005 719.663, 234.895 728.496, 238.500 729.885 C 239.050 730.098, 242.274 732.910, 245.663 736.135 C 254.225 744.282, 258.345 743.922, 257.355 735.113 C 256.901 731.068, 257.227 729.977, 260.005 726.250 C 262.195 723.311, 263.913 722, 265.572 722 C 266.892 722, 269.946 721.472, 272.359 720.826 C 278.464 719.194, 281.624 720.734, 287.812 728.362 C 291.628 733.064, 292.933 735.539, 293.177 738.538 L 293.500 742.500 299.500 743.244 C 304.941 743.918, 317.737 747.821, 322.333 750.207 C 323.874 751.008, 324.062 751.912, 323.514 755.898 L 322.862 760.638 329.181 760.195 C 332.691 759.948, 339.945 758.222, 345.500 756.310 C 361.057 750.956, 361.823 750.796, 373.500 750.452 C 379.550 750.273, 388.860 749.821, 394.189 749.447 L 403.878 748.767 403.301 743.633 C 402.984 740.810, 402.275 737.627, 401.726 736.561 C 401.177 735.495, 400.531 730.545, 400.291 725.561 C 399.965 718.767, 399.219 715.029, 397.313 710.619 C 395.317 706.003, 394.876 703.643, 395.261 699.639 C 395.668 695.402, 395.363 694.029, 393.460 691.520 C 392.199 689.859, 390.873 686.700, 390.512 684.500 C 390.151 682.300, 389.484 679.600, 389.029 678.500 C 387.850 675.650, 386.422 671.202, 385.015 666 C 382.615 657.131, 378.651 646.450, 376.737 643.697 C 374.193 640.038, 375.054 632.060, 378.078 631.269 C 380.579 630.615, 380.466 629.359, 377.474 624.500 C 375.554 621.383, 375.009 619.133, 375.005 614.309 C 375.002 610.904, 374.552 607.841, 374.004 607.503 C 373.457 607.164, 371.882 608.103, 370.504 609.590" stroke="#b09658" fill="#b09658" fill-opacity="0.2" fill-rule="evenodd"/><path class="svg-region-Fl" d="M 309 562.716 C 305.425 564.081, 299.513 566.259, 295.863 567.556 C 284.974 571.426, 262.883 581.912, 259.831 584.660 C 258.913 585.487, 255.534 587.406, 252.323 588.925 C 243.853 592.931, 233.532 602.032, 230.932 607.787 C 228.724 612.676, 227.057 625.024, 228.613 624.968 C 229.101 624.951, 230.374 624.276, 231.441 623.468 C 235.056 620.734, 239.523 621.626, 244.121 626 C 247.637 629.345, 249.003 630, 252.463 630 C 254.738 630, 257.108 629.492, 257.728 628.872 C 258.349 628.251, 262.116 627.510, 266.100 627.225 C 271.457 626.842, 274.247 626.094, 276.811 624.353 C 280.739 621.688, 284.348 621.412, 288 623.500 C 291.144 625.297, 300.317 625.334, 305.261 623.570 C 307.330 622.832, 311.380 620.648, 314.261 618.717 C 317.718 616.401, 321.182 614.998, 324.443 614.596 C 327.311 614.242, 330.278 613.148, 331.508 611.993 C 334.709 608.985, 335.394 609.128, 350 615.847 C 351.925 616.733, 354.998 619.154, 356.828 621.229 C 358.658 623.303, 360.936 625, 361.889 625 C 364.961 625, 368 621.218, 368 617.395 C 368 613.291, 369.051 611.040, 372.644 607.447 C 375.070 605.021, 375.196 604.442, 374.552 598.675 C 374.173 595.279, 373.444 592.072, 372.931 591.550 C 372.419 591.027, 372 589.152, 372 587.382 C 372 584.791, 371.327 583.747, 368.552 582.032 C 366.655 580.860, 364.857 579.124, 364.556 578.175 C 363.843 575.929, 357.140 569.042, 354.531 567.876 C 353.414 567.377, 349.575 565.403, 346 563.490 C 339.565 560.048, 339.379 560.014, 327.500 560.124 C 317.307 560.218, 314.521 560.609, 309 562.716" stroke="#5ca7a9" fill="#5ca7a9" fill-opacity="0.2" fill-rule="evenodd"/><path class="svg-region-VV" d="M 256.200 741.200 C 254.248 743.152, 254.794 745.493, 258.482 750.973 C 260.397 753.819, 262.524 758.016, 263.208 760.300 C 263.892 762.583, 266.150 766.150, 268.226 768.226 L 272 772 281.841 772 C 287.693 772, 293.672 771.396, 296.591 770.511 C 299.291 769.692, 302.428 769.017, 303.562 769.011 C 306.465 768.996, 313.893 765.264, 317.785 761.867 C 319.591 760.290, 321.484 759, 321.989 759 C 323.273 759, 324.450 752.050, 323.351 750.951 C 320.079 747.679, 293.321 740.863, 292.018 742.970 C 291.711 743.467, 289.224 744.832, 286.492 746.004 C 281.126 748.304, 276.152 748.093, 273.978 745.474 C 273.305 744.663, 271.348 743.990, 269.628 743.978 C 267.907 743.966, 264.538 743.066, 262.141 741.978 C 256.984 739.638, 257.672 739.728, 256.200 741.200" stroke="#7699d1" fill="#7699d1" fill-opacity="0.2" fill-rule="evenodd"/><path class="svg-region-B" d="M 812 490.730 C 808.975 490.918, 804.925 491.839, 803 492.777 C 800.540 493.976, 796.240 494.587, 788.532 494.836 C 777.989 495.175, 777.449 495.301, 774.592 498.094 C 771.585 501.035, 768.630 501.829, 767.500 500 C 767.160 499.450, 765.097 499, 762.916 499 C 759.718 499, 758.789 499.435, 758.115 501.250 C 757.656 502.488, 756.963 511.375, 756.576 521 C 755.446 549.124, 753.978 556.544, 746.384 572.514 C 745.073 575.272, 744 578.508, 744 579.705 C 744 583.194, 742.044 583.425, 740.876 580.075 C 738.847 574.253, 737.485 576.295, 734.925 589 C 733.982 593.675, 732.906 598.439, 732.532 599.588 C 731.924 601.453, 732.179 601.627, 734.926 601.224 C 737.844 600.796, 738 600.946, 738 604.175 C 738 606.045, 739.013 609.584, 740.250 612.038 C 742.802 617.099, 746.342 618.316, 750.529 615.573 C 753.543 613.598, 759 613.473, 759 615.378 C 759 616.136, 759.932 617.375, 761.070 618.131 L 763.141 619.506 761.070 624.336 C 759.796 627.308, 758.996 631.345, 758.989 634.833 C 758.983 637.950, 758.311 642.701, 757.494 645.392 C 756.412 648.960, 756.184 652.548, 756.653 658.653 C 757.202 665.796, 757.720 667.573, 760.184 670.780 C 761.773 672.846, 765.015 675.862, 767.390 677.481 C 771.504 680.286, 773.453 682.778, 776.791 689.500 C 777.611 691.150, 779.288 693.625, 780.518 695 C 781.748 696.375, 783.554 699.975, 784.532 703 C 785.509 706.025, 787.027 709.498, 787.904 710.719 C 789.552 713.010, 793.412 713.760, 794.500 712 C 795.264 710.764, 799.682 710.677, 800.428 711.883 C 800.728 712.369, 805.817 712.815, 811.737 712.874 C 821.938 712.976, 832.909 714.553, 834 716.073 C 834.275 716.456, 836.525 717.032, 839 717.353 C 841.475 717.674, 845.395 718.221, 847.711 718.569 C 853.652 719.463, 857.216 717.546, 861.245 711.291 C 863.316 708.076, 867.518 703.828, 871.942 700.476 C 875.950 697.440, 880.303 693.503, 881.616 691.728 C 884.178 688.262, 890 676.685, 890 675.056 C 890 674.512, 891.728 671.393, 893.841 668.125 C 898.220 661.350, 899.062 659.266, 901.397 649.418 C 903.299 641.398, 902.830 635.750, 899.743 629.500 C 896.985 623.917, 895.277 622.217, 891.646 621.441 C 889.916 621.072, 888.050 620.430, 887.500 620.015 C 886.950 619.600, 884.764 618.948, 882.641 618.565 C 880.519 618.182, 877.819 616.859, 876.641 615.626 C 872.685 611.483, 867.331 608, 864.906 607.992 C 862.047 607.983, 858.670 602.697, 857.564 596.500 C 856.834 592.414, 848.578 578, 846.968 578 C 846.478 578, 845.568 576.109, 844.946 573.798 C 844.323 571.487, 842.056 567.598, 839.907 565.157 C 837.758 562.716, 836 560.219, 836 559.609 C 836 556.664, 838.925 545.045, 840.370 542.251 C 841.266 540.518, 842 538.267, 842 537.250 C 842 536.232, 842.504 534.896, 843.119 534.281 C 843.945 533.455, 843.880 532.331, 842.869 529.997 C 841.549 526.945, 841.336 526.854, 836.871 527.434 C 832.751 527.971, 832.183 527.806, 831.694 525.939 C 831.351 524.627, 832.263 521.947, 834.127 518.784 C 835.767 516.003, 836.867 513.097, 836.572 512.327 C 835.692 510.033, 831.775 511.317, 827.500 515.300 C 822.859 519.625, 816.448 523, 812.875 523 C 808.441 523, 807.016 521.023, 806.390 514 L 805.810 507.500 812.956 500.631 C 816.945 496.796, 819.968 493.079, 819.800 492.214 C 819.441 490.364, 819.065 490.292, 812 490.730" stroke="#e23b33" fill="#e23b33" fill-opacity="0.2" fill-rule="evenodd"/><path class="svg-region-SB" d="M 893 143.120 C 891.075 143.698, 884.239 144.988, 877.810 145.988 C 858.948 148.920, 852.651 151.689, 836.234 164.272 C 830.329 168.797, 823.923 173.564, 821.999 174.865 C 817.857 177.665, 812.543 184.505, 809.987 190.329 C 804.935 201.840, 807.008 224.630, 814.077 235.302 C 816.698 239.259, 818.654 240.727, 826.347 244.509 C 834.232 248.384, 836.886 249.160, 845.500 250.103 C 858.872 251.569, 864.145 250.862, 879.500 245.549 C 886.650 243.075, 893.850 241.040, 895.500 241.026 C 902.416 240.970, 907.298 244.106, 918.588 255.861 C 924.590 262.109, 931.134 268.268, 933.131 269.548 C 939.422 273.579, 947.250 275.274, 957.394 274.802 C 967.340 274.338, 970.495 273.203, 982 265.952 C 990.916 260.332, 994.232 256.902, 997.212 250.217 C 998.613 247.072, 1000.560 242.700, 1001.539 240.500 C 1002.601 238.111, 1003.500 233.058, 1003.771 227.952 C 1004.163 220.575, 1003.885 218.520, 1001.745 212.952 C 1000.380 209.403, 998.530 204.475, 997.633 202 C 995.662 196.559, 994.187 194.276, 986.773 185.186 C 980.980 178.084, 970.607 168.654, 964.067 164.545 C 952.565 157.320, 945.111 153.483, 937.772 151.010 C 933.222 149.477, 926.405 147.046, 922.622 145.608 C 914.801 142.635, 899.028 141.310, 893 143.120" stroke="#d2e400" fill="#d2e400" fill-opacity="0.2" fill-rule="evenodd"/><path class="svg-region-VOC" d="M 498.055 492.952 C 496.757 494.078, 495.245 495, 494.697 495 C 494.149 495, 491.533 497.261, 488.883 500.025 C 483.091 506.066, 481.067 511.530, 482.822 516.385 C 483.470 518.177, 484 520.661, 484 521.907 C 484 524.506, 492.886 533.547, 498.313 536.469 C 500.210 537.491, 502.491 539.561, 503.382 541.070 C 504.677 543.262, 505.996 543.949, 509.955 544.494 C 515.690 545.283, 516.454 544.956, 518.605 540.797 C 520.438 537.253, 519.864 529.219, 517.445 524.556 C 516.643 523.012, 515.109 518.317, 514.035 514.124 C 512.961 509.931, 510.813 503.125, 509.261 499 C 506.678 492.134, 506.185 491.475, 503.428 491.202 C 501.494 491.011, 499.571 491.637, 498.055 492.952" stroke="#ff8f93" fill="#ff8f93" fill-opacity="0.2" fill-rule="evenodd"/><path class="svg-region-OABl" d="M 633.443 427.765 C 632.862 428.169, 631.789 429.978, 631.058 431.784 C 629.601 435.385, 625.649 438.987, 623.115 439.023 C 621.406 439.048, 612.904 446.685, 610.520 450.337 C 607.216 455.400, 604.070 475.192, 605.836 479.811 C 606.401 481.290, 607.868 485.875, 609.095 490 C 611.514 498.132, 613.331 501, 616.066 501 C 618.458 501, 622.678 495.774, 623.517 491.774 C 624.229 488.378, 629.654 476.878, 630.958 476 C 631.366 475.725, 632.216 474.521, 632.846 473.325 C 633.475 472.128, 636.211 469.710, 638.925 467.952 C 644.699 464.211, 646.701 460.449, 645.204 456.156 C 644.446 453.980, 644.586 452.053, 645.763 448.477 C 647.615 442.853, 646.615 437.519, 642.485 430.976 C 640.549 427.909, 639.349 427.004, 637.237 427.015 C 635.732 427.024, 634.024 427.361, 633.443 427.765" stroke="#81244d" fill="#81244d" fill-opacity="0.2" fill-rule="evenodd"/><path class="svg-region-SOTl" d="M 475.378 436.127 C 473.435 438.155, 472.584 440.277, 472.228 443.977 L 471.741 449.048 477.120 448.429 C 482.428 447.819, 482.518 447.853, 483.864 450.974 C 485.148 453.951, 485.457 454.099, 489.114 453.481 C 492.242 452.952, 493 453.127, 493 454.377 C 493 456.479, 496.565 458.295, 501.988 458.954 C 506.179 459.464, 506.625 459.814, 508.728 464.250 C 511.027 469.097, 513.615 470.374, 515.801 467.740 C 517.302 465.931, 517.502 452.049, 516.077 448.500 C 514.020 443.377, 510.061 440.004, 506.063 439.968 C 502.149 439.933, 499.930 438.632, 498.180 435.347 C 497.125 433.366, 496.277 433.201, 487.537 433.272 C 478.505 433.345, 477.910 433.484, 475.378 436.127" stroke="#995b45" fill="#995b45" fill-opacity="0.2" fill-rule="evenodd"/><path class="svg-region-BPCl" d="M 732.045 603.250 C 730.501 607.084, 715.352 620.815, 709.290 623.875 C 704.486 626.300, 698.252 626.614, 693.651 624.665 C 687.292 621.969, 683.419 620.740, 680 620.329 L 676.500 619.909 680.417 623.454 C 682.571 625.404, 684.827 627, 685.431 627 C 686.035 627, 688.161 627.874, 690.155 628.943 C 692.149 630.012, 694.052 630.615, 694.384 630.283 C 695.326 629.341, 699 633.110, 699 635.017 C 699 636.862, 694.736 642.948, 690.579 647.038 C 688.792 648.796, 688 650.639, 687.999 653.038 C 687.999 654.942, 687.052 658.975, 685.894 662 C 684.737 665.025, 682.677 671.775, 681.317 677 C 677.537 691.523, 676.808 692.039, 647.500 700.931 C 645.850 701.432, 641.617 702.155, 638.094 702.537 C 634.570 702.920, 630.197 703.855, 628.376 704.616 C 626.090 705.571, 620.719 706, 611.032 706 L 597 706 597.032 709.750 C 597.071 714.420, 598.335 716.110, 603.913 718.956 C 607.798 720.937, 624.025 736.232, 623.985 737.873 C 623.976 738.218, 623.639 738.050, 623.235 737.500 C 621.307 734.876, 617.513 734, 608.073 734 C 602.515 734, 597.845 733.558, 597.500 733 C 597.160 732.450, 594.884 732, 592.441 732 C 588.345 732, 588 732.198, 588 734.556 C 588 736.613, 587.146 737.490, 583.628 739.046 C 581.224 740.110, 577.174 743.122, 574.629 745.740 C 570.441 750.048, 570.001 750.952, 570.001 755.257 C 570 760.781, 573.988 769.120, 577.539 771.021 C 579.458 772.048, 580.335 771.845, 583.623 769.610 C 586.731 767.498, 588.634 767, 593.594 767 C 598.267 767, 601.295 766.287, 606.340 764 C 609.979 762.350, 614.322 761, 615.991 761 C 617.660 761, 622.282 760.062, 626.263 758.916 C 630.243 757.770, 636.650 756.452, 640.500 755.987 C 661.452 753.456, 665.092 752.877, 669.110 751.436 C 674.097 749.647, 681.318 748.210, 691.500 746.981 C 709.302 744.833, 721.503 742.332, 736 737.859 C 742.668 735.802, 746.150 735.487, 767.383 735.022 L 791.266 734.500 793.133 731.016 C 794.160 729.099, 795 726.956, 795 726.252 C 795 725.548, 795.549 724.094, 796.219 723.020 C 797.262 721.350, 797.045 720.657, 794.719 718.229 C 793.224 716.668, 792 714.853, 792 714.195 C 792 713.538, 791.408 713, 790.684 713 C 789.080 713, 785.471 706.696, 784.529 702.249 C 784.151 700.461, 782.302 697.156, 780.420 694.905 C 778.539 692.653, 777 690.402, 777 689.902 C 777 687.568, 771.049 679.829, 767.315 677.308 C 765.028 675.764, 761.840 672.837, 760.230 670.804 C 757.688 667.593, 757.227 666.004, 756.710 658.687 C 756.290 652.723, 756.537 648.866, 757.558 645.473 C 758.351 642.838, 759 638.359, 759 635.519 C 759 629.697, 761.596 621, 763.334 621 C 763.964 621, 763.247 619.857, 761.740 618.460 C 760.233 617.062, 759 615.487, 759 614.960 C 759 613.418, 752.651 613.856, 750.210 615.565 C 746.291 618.310, 742.787 617.070, 740.250 612.038 C 739.013 609.584, 738 606.097, 738 604.288 C 738 601.439, 737.663 601, 735.475 601 C 733.792 601, 732.649 601.750, 732.045 603.250 M 483 704.660 C 476.235 707.052, 475.659 707.439, 473.569 711.008 C 471.739 714.132, 471.726 714.457, 473.319 717.233 C 474.278 718.905, 475 722.306, 475 725.158 L 475 730.153 477.480 727.206 C 478.844 725.586, 481.431 723.714, 483.230 723.046 C 485.028 722.379, 487.272 721.426, 488.216 720.929 C 492.201 718.830, 500.517 718.868, 510 721.027 C 523.173 724.027, 527.688 724.423, 532.100 722.967 C 534.963 722.022, 537.474 721.966, 542.205 722.740 C 545.667 723.306, 548.645 723.639, 548.822 723.480 C 549.740 722.652, 543.477 707.424, 541.765 706.323 C 539.670 704.976, 526.591 703.923, 506.500 703.484 C 490.906 703.144, 486.693 703.355, 483 704.660" stroke="#83385f" fill="#83385f" fill-opacity="0.2" fill-rule="evenodd"/>
    </svg>