<svg xmlns="http://www.w3.org/2000/svg" width="1078" height="1151" viewBox="0 0 1078 1151" version="1.1">
    <path class="svg-region-V" d="M 495.908 195.412 C 495.583 195.745, 491.533 196.476, 486.908 197.038 C 482.284 197.599, 476.700 198.784, 474.500 199.670 C 472.300 200.556, 468.250 201.416, 465.500 201.582 C 456.068 202.150, 442.537 208.345, 435 215.546 C 432.525 217.911, 428.700 221.568, 426.499 223.673 C 424.299 225.778, 421.628 228.850, 420.564 230.500 C 419.500 232.150, 417.579 234.327, 416.295 235.338 C 415.011 236.349, 413.319 238.374, 412.536 239.838 C 411.753 241.302, 409.624 244.141, 407.806 246.148 C 404.425 249.877, 401.427 253.596, 397 259.551 C 395.625 261.400, 392.453 265.520, 389.952 268.707 C 387.450 271.893, 384.532 276.075, 383.467 278 C 382.402 279.925, 380.535 282.625, 379.318 284 C 378.102 285.375, 376.360 288.300, 375.447 290.500 C 374.535 292.700, 371.384 297.030, 368.445 300.122 C 365.507 303.214, 362.814 306.894, 362.461 308.300 C 362.108 309.705, 361.252 311.073, 360.558 311.339 C 358.348 312.187, 351.278 323.465, 348.162 331.112 C 340.632 349.589, 340.609 382.242, 348.115 397.280 C 349.702 400.459, 351.010 403.609, 351.022 404.280 C 351.068 406.869, 356.692 416.195, 360.686 420.303 C 362.988 422.671, 367.357 425.865, 370.394 427.402 C 375.481 429.976, 376.648 430.168, 385.208 429.842 C 393.953 429.509, 395.594 429.075, 402.500 425.264 C 403.600 424.657, 406.525 423.185, 409 421.993 C 415.216 418.999, 419.475 414.647, 422.052 408.658 C 423.935 404.279, 424.141 402.543, 423.546 396.040 C 422.480 384.395, 422.497 384.280, 427.266 370.924 C 431.233 359.814, 432.674 357.137, 439.628 347.961 C 450.213 333.992, 473.434 311.297, 483.073 305.500 C 490.418 301.082, 490.601 301.033, 499.661 301.017 C 506.105 301.005, 510.702 301.596, 515.161 303.009 C 518.647 304.114, 526.169 305.503, 531.876 306.096 C 543.457 307.299, 549.133 306.449, 554.429 302.718 C 559.526 299.127, 560.694 297.761, 564.167 291.328 C 566 287.934, 568.945 282.734, 570.712 279.773 C 572.479 276.812, 574.596 271.939, 575.416 268.945 C 576.237 265.950, 577.584 261.700, 578.410 259.500 C 581.654 250.861, 579.623 236.631, 573.991 228.528 C 566.948 218.396, 552.704 209.617, 534 203.881 C 530.425 202.785, 523 200.478, 517.500 198.755 C 508 195.778, 497.189 194.105, 495.908 195.412" stroke="#dd8a8a" fill="#dd8a8a" fill-opacity="0.2" fill-rule="evenodd"/><path class="svg-region-SV" d="M 482.781 305.371 C 473.753 310.980, 449.466 334.944, 439.616 347.962 C 432.663 357.150, 431.200 359.866, 427.238 370.941 C 422.480 384.241, 422.471 384.297, 423.549 396.083 C 424.341 404.754, 422.729 409.822, 417.162 416.162 C 414.230 419.502, 414.143 419.817, 415.768 421.245 C 420.339 425.262, 426.324 427.254, 432.955 426.965 C 436.555 426.809, 443.030 426.703, 447.345 426.730 C 454.863 426.777, 455.342 426.922, 458.845 430.194 C 465.296 436.219, 465.639 436.349, 465.200 432.589 C 464.882 429.861, 465.404 428.722, 468.157 426.143 C 472.543 422.031, 478.230 421.751, 481.179 425.500 C 482.723 427.464, 484.054 428, 487.381 428 C 489.711 428, 492.491 428.661, 493.559 429.468 C 494.626 430.276, 496.716 430.951, 498.203 430.968 C 501.191 431.003, 506 429.115, 506 427.907 C 506 427.482, 506.908 426.847, 508.017 426.495 C 510.851 425.595, 513.883 419.114, 515.553 410.387 C 517.599 399.693, 519.755 393.718, 522.947 389.894 C 525.239 387.149, 526.009 386.763, 527.207 387.757 C 528.011 388.424, 533.356 389.476, 539.085 390.093 L 549.500 391.215 554.805 396.828 C 558.773 401.026, 560.320 402.100, 560.944 401.090 C 561.466 400.246, 560.985 398.395, 559.665 396.156 C 558.006 393.346, 557.557 390.948, 557.579 385.036 C 557.605 378.289, 558.047 376.573, 561.804 368.650 C 564.112 363.783, 566.011 358.383, 566.024 356.650 C 566.037 354.918, 567.130 350.867, 568.453 347.648 C 571.189 340.996, 570.962 339.093, 567.513 339.753 C 566.200 340.004, 563.728 339.512, 562.019 338.659 C 556.389 335.851, 550.754 335.570, 546.919 337.908 C 542.639 340.517, 538.605 340.567, 535.076 338.054 C 531.007 335.157, 524 327.929, 524 326.628 C 524 324.863, 531.145 316.511, 534.619 314.215 C 536.334 313.081, 537.953 311.029, 538.215 309.653 C 538.762 306.793, 537.143 306.036, 530.426 306.014 C 528.186 306.006, 522.594 304.875, 518 303.500 C 511.323 301.501, 507.627 301.020, 499.574 301.098 C 489.560 301.196, 489.460 301.222, 482.781 305.371" stroke="#c666b5" fill="#c666b5" fill-opacity="0.2" fill-rule="evenodd"/><path class="svg-region-SF" d="M 592 238.999 C 591.175 239.533, 589.522 239.976, 588.327 239.985 C 587.131 239.993, 584.769 241.165, 583.077 242.589 C 580.416 244.828, 580 245.837, 580 250.051 C 580 252.732, 579.150 257.304, 578.111 260.212 C 577.071 263.121, 575.466 267.975, 574.542 271 C 573.619 274.025, 571.402 278.750, 569.617 281.500 C 567.831 284.250, 565.365 288.601, 564.135 291.169 C 562.906 293.736, 559.898 297.683, 557.450 299.939 C 555.003 302.195, 553 304.725, 553 305.560 C 553 308.690, 557.212 315.169, 560.950 317.788 C 565.531 320.998, 568.292 326.729, 569.726 336 C 570.623 341.798, 570.508 342.932, 568.662 346.500 C 567.207 349.312, 566.578 352.453, 566.546 357.074 C 566.507 362.684, 566.942 364.363, 569.511 368.523 C 572.753 373.771, 579.609 379.699, 587.992 384.500 C 590.872 386.150, 594.352 388.710, 595.726 390.189 C 597.517 392.119, 598.685 392.643, 599.861 392.045 C 602.415 390.746, 615.359 389, 622.436 389 C 626.574 389, 630.453 388.306, 633.417 387.036 C 637.446 385.308, 638 384.698, 638 381.986 C 638 380.289, 638.640 377.686, 639.422 376.200 C 641.410 372.424, 649.692 364.713, 654.691 361.985 C 657.865 360.253, 659.658 358.218, 662.077 353.599 C 663.834 350.245, 666.368 346.317, 667.707 344.871 C 669.910 342.492, 670.042 341.868, 669.085 338.316 C 668.433 335.894, 668.363 333.220, 668.903 331.339 C 669.818 328.148, 669.455 323.893, 667.979 320.500 C 667.501 319.400, 666.185 316.387, 665.055 313.805 C 663.925 311.223, 663 308.703, 663 308.205 C 663 306.530, 653.260 283.127, 651.177 279.798 C 650.042 277.984, 647.636 273.839, 645.831 270.587 C 643.766 266.868, 638.473 260.653, 631.567 253.837 C 621.527 243.929, 620.263 243, 616.832 243 C 614.477 243, 612.411 242.306, 611.289 241.138 C 609.206 238.969, 594.556 237.344, 592 238.999" stroke="#8c6b55" fill="#8c6b55" fill-opacity="0.2" fill-rule="evenodd"/><path class="svg-region-IF" d="M 668.650 332.258 C 668.324 333.558, 668.530 336.336, 669.108 338.431 C 670.084 341.963, 669.946 342.467, 667.217 345.370 C 665.598 347.091, 663.209 350.684, 661.908 353.354 C 659.510 358.274, 654.922 363, 652.544 363 C 651.828 363, 648.263 366.158, 644.621 370.019 C 638.731 376.262, 638 377.480, 638 381.040 C 638 384.473, 637.608 385.200, 635.250 386.146 C 633.737 386.753, 631.600 387.612, 630.500 388.056 C 629.400 388.500, 624.225 389.124, 619 389.443 C 613.775 389.761, 607.250 390.355, 604.500 390.761 C 600.030 391.422, 599.500 391.765, 599.500 394 L 599.500 396.500 612.122 397.112 C 619.065 397.449, 625.308 398.073, 625.997 398.498 C 626.686 398.924, 630.847 399.897, 635.244 400.660 C 646.349 402.587, 661.714 409.683, 666 414.864 C 666.825 415.862, 670.278 418.775, 673.674 421.339 C 679.398 425.660, 680.277 426, 685.737 426 C 690.975 426, 691.944 426.332, 694.500 429 C 697.424 432.052, 703.143 433.196, 704.500 431 C 704.840 430.450, 706.901 430, 709.080 430 C 712.280 430, 713.251 429.543, 714.124 427.626 C 714.893 425.939, 714.897 424.676, 714.137 423.256 C 713.194 421.493, 713.817 420.710, 719.458 416.569 C 728.792 409.716, 729.820 405.874, 725.025 395.769 C 723.389 392.321, 720.660 385.908, 718.962 381.517 C 713.739 368.015, 703.535 353.992, 697.478 351.993 C 695.596 351.372, 692.131 349.769, 689.778 348.432 C 687.425 347.094, 684.038 345.319, 682.250 344.487 C 680.462 343.654, 679 342.544, 679 342.020 C 679 341.496, 677.538 339.538, 675.750 337.671 C 673.962 335.803, 671.767 333.289, 670.872 332.084 L 669.244 329.893 668.650 332.258" stroke="#f2823b" fill="#f2823b" fill-opacity="0.2" fill-rule="evenodd"/><path class="svg-region-PF" d="M 546.015 306.180 C 544.098 306.729, 540.698 308.826, 538.459 310.840 C 536.221 312.853, 533.260 315.400, 531.880 316.500 C 528.903 318.872, 524 325.246, 524 326.744 C 524 327.325, 525.688 329.533, 527.750 331.650 C 536.344 340.473, 540.491 341.827, 546.919 337.908 C 549.658 336.238, 551.233 335.958, 554.836 336.498 C 557.310 336.869, 560.355 337.841, 561.602 338.659 C 562.850 339.476, 565.137 340, 566.685 339.823 C 569.426 339.508, 569.491 339.361, 569.172 334.186 C 568.723 326.908, 566.102 321.581, 561.235 318.055 C 558.629 316.168, 556.298 313.254, 554.826 310.044 C 552.397 304.750, 551.845 304.508, 546.015 306.180 M 561.250 370.066 C 556.803 380.381, 556.266 384.100, 558.082 391.985 C 559.361 397.537, 560.932 399.327, 565.981 400.994 C 569.454 402.140, 571.243 402.024, 580.717 400.037 C 591.253 397.827, 599.032 395.296, 598.968 394.098 C 598.882 392.469, 593.752 387.976, 587.965 384.462 C 575.672 376.998, 567 368.005, 567 362.721 C 567 358.647, 565.160 360.997, 561.250 370.066" stroke="#faaaaa" fill="#faaaaa" fill-opacity="0.2" fill-rule="evenodd"/><path class="svg-region-AAB" d="M 635.001 403.499 C 633.493 407.463, 635.848 413.424, 639.071 413.799 C 641.442 414.075, 641.849 414.901, 644.321 424.437 C 645.794 430.124, 647 435.480, 647 436.340 C 647 437.200, 645.433 439.425, 643.519 441.285 C 641.604 443.144, 639.359 446.291, 638.528 448.278 C 637.698 450.264, 636.450 452.252, 635.753 452.695 C 634.450 453.524, 628 465.575, 628 467.181 C 628 469.311, 623.473 474, 621.416 474 C 620.012 474, 617.751 475.726, 615.208 478.739 L 611.208 483.478 609.223 481.026 L 607.237 478.575 599.965 483.454 C 595.966 486.137, 590.400 490.500, 587.597 493.148 C 584.793 495.797, 580.581 499.366, 578.235 501.079 C 575.889 502.793, 572.768 506.289, 571.300 508.848 C 569.831 511.406, 567.121 515.207, 565.277 517.294 C 563.434 519.381, 561.180 522.652, 560.268 524.564 C 558.730 527.789, 558.729 528.158, 560.255 529.684 C 562.043 531.471, 564.624 531.518, 579 530.020 C 591.704 528.696, 598.627 527.198, 602.248 524.990 C 604.037 523.900, 606.625 523.005, 608 523.003 C 611.304 522.997, 620.321 519.537, 620.803 518.090 C 621.219 516.842, 627.387 514, 629.678 514 C 632.659 514, 666.614 498.147, 676.323 492.222 C 678.090 491.144, 680.418 487.845, 682.546 483.402 C 684.417 479.498, 687.647 474.446, 689.724 472.177 C 699.086 461.946, 702.378 453.722, 701.600 442.500 C 701.296 438.100, 701.036 433.938, 701.023 433.250 C 701.010 432.563, 700.184 432, 699.187 432 C 698.190 432, 696.081 430.650, 694.500 429 C 691.963 426.352, 690.955 426, 685.913 426 C 680.585 426, 679.722 425.646, 673.127 420.750 C 669.238 417.863, 665.820 414.814, 665.532 413.975 C 664.589 411.229, 642.345 401, 637.316 401 C 636.565 401, 635.523 402.124, 635.001 403.499" stroke="#7f3c1a" fill="#7f3c1a" fill-opacity="0.2" fill-rule="evenodd"/><path class="svg-region-APB" d="M 598.500 397.877 C 596.300 398.287, 592.999 399.414, 591.164 400.381 C 589.329 401.349, 584.941 402.745, 581.412 403.483 C 577.369 404.329, 573.795 405.826, 571.748 407.531 C 567.336 411.208, 559.753 422.394, 557.535 428.500 C 556.536 431.250, 555.313 434.020, 554.816 434.655 C 554.320 435.290, 553.035 438.881, 551.962 442.635 C 550.888 446.389, 549.385 450.819, 548.622 452.480 C 547.859 454.141, 546.675 457.975, 545.992 461 C 545.308 464.025, 543.877 469.875, 542.811 474 C 541.745 478.125, 540.481 483.075, 540.003 485 C 539.524 486.925, 538.664 490.300, 538.090 492.500 C 537.517 494.700, 537.037 498.397, 537.024 500.715 C 537.011 503.033, 536.261 507.083, 535.357 509.715 C 534.453 512.347, 533.665 516.451, 533.607 518.836 C 533.519 522.419, 533.987 523.591, 536.306 525.586 C 537.849 526.914, 540.156 528, 541.433 528 C 542.710 528, 544.315 528.675, 545 529.500 C 547.309 532.282, 559 531.129, 559 528.120 C 559 526.313, 565.615 516.001, 566.777 515.998 C 567.174 515.996, 568.811 513.485, 570.414 510.418 C 572.245 506.914, 575.034 503.568, 577.914 501.418 C 580.436 499.535, 584.525 496.068, 587 493.714 C 589.475 491.360, 594.987 487.003, 599.250 484.033 C 607.001 478.632, 607.874 477.658, 606 476.500 C 604.593 475.630, 604.812 467.806, 606.295 466 C 606.972 465.175, 608.870 463.743, 610.513 462.817 C 612.156 461.891, 613.789 460.541, 614.143 459.817 C 614.497 459.093, 615.307 457.375, 615.944 456 C 616.580 454.625, 618.466 451.025, 620.135 448 C 621.803 444.975, 623.976 440.250, 624.964 437.500 C 625.951 434.750, 628.163 429.812, 629.879 426.528 C 631.596 423.243, 633 419.133, 633 417.394 C 633 415.079, 633.533 414.094, 634.992 413.712 C 636.838 413.230, 636.883 412.952, 635.611 409.925 C 634.700 407.760, 634.516 405.688, 635.064 403.777 C 635.636 401.783, 635.522 400.799, 634.695 400.584 C 625.733 398.251, 621.942 397.702, 613 397.439 C 607.225 397.270, 600.700 397.467, 598.500 397.877" stroke="#ac7444" fill="#ac7444" fill-opacity="0.2" fill-rule="evenodd"/><path class="svg-region-PC" d="M 522.200 390.882 C 519.394 394.756, 517.144 401.425, 515.010 412.192 C 514.390 415.323, 513.061 419.574, 512.056 421.639 L 510.230 425.394 514.508 428.107 C 519.848 431.494, 521.814 436.341, 520.129 441.965 C 518.830 446.300, 516.603 448.569, 512.689 449.546 C 510.352 450.129, 509.784 449.889, 509.322 448.124 C 508.854 446.334, 508.018 446, 504.006 446 L 499.245 446 498.649 454.750 C 498.321 459.563, 497.758 467.216, 497.398 471.757 L 496.742 480.014 499.871 481.105 C 501.592 481.705, 503 482.586, 503 483.063 C 503 484.231, 508.170 492.319, 510.753 495.192 C 511.895 496.461, 514.529 499.451, 516.607 501.834 C 518.878 504.439, 523.157 507.565, 527.332 509.667 C 535.096 513.577, 535.604 513.400, 536.408 506.500 C 537.577 496.459, 538.883 489.070, 540.384 484 C 541.280 480.975, 543.186 473.325, 544.620 467 C 546.054 460.675, 547.889 454.212, 548.698 452.637 C 549.507 451.062, 550.810 447.237, 551.594 444.137 C 552.377 441.037, 553.860 436.925, 554.888 435 C 555.915 433.075, 557.320 429.700, 558.009 427.500 C 559.623 422.344, 566.844 412.145, 572.012 407.722 C 574.820 405.318, 577.442 404.074, 580.616 403.639 C 583.127 403.295, 587.278 402.047, 589.841 400.865 C 592.403 399.683, 596.300 398.427, 598.500 398.074 C 602.283 397.466, 602.381 397.365, 600.301 396.208 C 598.537 395.226, 597.448 395.262, 594.801 396.391 C 592.985 397.164, 586.648 398.810, 580.717 400.048 C 571.204 402.033, 569.463 402.143, 565.937 400.979 C 563.007 400.012, 561.644 399.956, 560.829 400.771 C 560.015 401.585, 558.355 400.456, 554.609 396.540 L 549.500 391.200 539.029 390.079 C 533.270 389.462, 528.117 388.517, 527.579 387.979 C 525.969 386.369, 525.149 386.812, 522.200 390.882" stroke="#cda789" fill="#cda789" fill-opacity="0.2" fill-rule="evenodd"/><path class="svg-region-DB" d="M 410 421.418 C 399.899 426.934, 392.359 430, 388.897 430 C 386.754 430, 385 430.449, 385 430.999 C 385 431.548, 386.800 433.852, 389 436.119 C 391.200 438.386, 393 440.815, 393 441.516 C 393 443.212, 403.669 448.269, 413 450.996 C 417.125 452.201, 421.918 453.820, 423.651 454.594 C 425.384 455.367, 427.274 456, 427.850 456 C 428.427 456, 430.144 457.688, 431.667 459.750 C 438.614 469.157, 444.267 475, 446.421 475 C 448.934 475, 459.137 480.255, 461.013 482.516 C 461.691 483.332, 462.810 484, 463.500 484 C 464.190 484, 465.337 484.701, 466.048 485.558 C 466.759 486.415, 468.727 487.711, 470.420 488.439 C 472.114 489.167, 475.075 491.152, 477 492.850 C 482.460 497.667, 482.527 497.715, 484.827 498.445 C 486.805 499.073, 487 498.784, 487 495.217 C 487 489.872, 488.773 485.207, 491.084 484.473 C 492.138 484.139, 493 483.476, 493 483 C 493 482.524, 493.843 481.867, 494.873 481.540 C 496.843 480.915, 496.857 480.817, 498.613 455.500 C 499.128 448.070, 499.007 446.718, 497.919 447.750 C 497.193 448.438, 494.990 449, 493.023 449 C 491.055 449, 488.439 449.704, 487.210 450.565 C 485.981 451.426, 483.746 451.989, 482.243 451.815 C 480.088 451.567, 479.400 450.866, 478.991 448.500 C 478.550 445.952, 478.022 445.500, 475.486 445.500 C 472.966 445.500, 472.202 444.859, 470.588 441.390 C 469.430 438.900, 467.375 436.579, 465.372 435.501 C 463.555 434.523, 460.727 432.248, 459.087 430.446 C 456.524 427.629, 455.224 427.076, 449.800 426.495 C 446.331 426.124, 441.123 426.251, 438.226 426.777 C 431.335 428.030, 424.753 426.753, 418.684 422.988 C 413.175 419.571, 413.332 419.599, 410 421.418" stroke="#e8b1e4" fill="#e8b1e4" fill-opacity="0.2" fill-rule="evenodd"/><path class="svg-region-MB" d="M 356.976 419.438 C 357.486 420.778, 359.053 424.144, 360.458 426.916 C 361.863 429.689, 363.946 434.454, 365.088 437.506 C 366.613 441.580, 369.148 445.106, 374.629 450.777 C 378.735 455.025, 382.690 459.625, 383.417 461 C 384.144 462.375, 385.057 468.814, 385.446 475.310 C 386.220 488.255, 387.725 493.264, 391.430 495.218 C 393.452 496.285, 399 503.090, 399 504.504 C 399 504.733, 401.299 507.075, 404.109 509.710 C 408.933 514.233, 415.004 518, 417.467 518 C 418.078 518, 420.360 518.909, 422.539 520.020 C 425.464 521.511, 429.769 522.273, 439 522.932 C 446.008 523.432, 453.477 524.559, 456 525.496 C 466.448 529.377, 472.228 530.159, 490 530.097 C 499.625 530.064, 511.663 530.037, 516.750 530.037 C 521.837 530.038, 526 529.627, 526 529.126 C 526 527.884, 523.446 527, 519.856 527 C 518.217 527, 514.541 526.299, 511.688 525.441 C 497.376 521.142, 490.509 518.652, 489.113 517.256 C 487.488 515.630, 485.826 505, 487.197 505 C 487.639 505, 488 503.903, 488 502.562 C 488 500.667, 486.888 499.520, 483 497.403 C 480.250 495.907, 478 494.183, 478 493.572 C 478 492.961, 475.259 490.895, 471.910 488.981 C 468.560 487.066, 464.963 485.010, 463.916 484.411 C 462.870 483.812, 461.223 482.647, 460.257 481.822 C 457.067 479.097, 448.788 475, 446.473 475 C 444.252 475, 437.628 468.190, 432.103 460.229 C 429.586 456.600, 426.316 454.963, 414.500 451.412 C 410.100 450.090, 405.600 448.613, 404.500 448.131 C 397.007 444.843, 393 442.515, 393 441.450 C 393 440.770, 390.890 437.916, 388.311 435.107 C 384.218 430.650, 383.128 430, 379.748 430 C 374.527 430, 365.542 425.451, 361.549 420.786 C 357.776 416.378, 355.565 415.726, 356.976 419.438" stroke="#f9c6c6" fill="#f9c6c6" fill-opacity="0.2" fill-rule="evenodd"/><path class="svg-region-AP" d="M 541.073 611.750 C 541.113 617.663, 541.542 624.750, 542.026 627.500 C 542.510 630.250, 543.581 637.141, 544.406 642.814 C 546.048 654.104, 546.411 655.591, 548.972 661.500 C 549.925 663.700, 550.946 666.175, 551.241 667 C 551.535 667.825, 554.752 672.478, 558.388 677.340 C 562.559 682.916, 565 687.137, 565 688.770 C 565 691.381, 561.612 703.020, 559.916 706.236 C 558.680 708.580, 558.747 720.725, 560 721.500 C 560.550 721.840, 561 723.116, 561 724.337 C 561 725.557, 561.618 727.443, 562.372 728.527 C 563.127 729.612, 564.056 731.931, 564.437 733.681 C 565.348 737.870, 566.728 738.874, 572.601 739.618 C 580.603 740.633, 582 742.021, 582 748.964 C 582 752.219, 582.450 755.160, 583 755.500 C 584.722 756.564, 584.092 761.607, 582 763.500 C 580.773 764.610, 580 766.580, 580 768.596 C 580 770.403, 579.559 772.154, 579.020 772.487 C 578.416 772.861, 578.388 773.745, 578.947 774.796 C 579.446 775.733, 580.098 777.288, 580.396 778.250 C 581.247 781.002, 582.569 780.387, 588.457 774.500 C 591.482 771.475, 594.810 769, 595.853 769 C 596.895 769, 599.718 769.700, 602.124 770.555 C 605.610 771.794, 610.522 772.069, 626.264 771.903 C 637.135 771.789, 646.322 771.989, 646.681 772.348 C 647.712 773.379, 655.588 773.107, 658.674 771.934 C 661.826 770.736, 667.389 770.161, 683.716 769.346 C 696.977 768.684, 699.420 767.339, 694.468 763.426 C 684.797 755.786, 682.508 750.839, 682.475 737.500 C 682.460 731.605, 681.913 726.204, 681.143 724.346 C 680.227 722.134, 679.936 717.255, 680.169 707.999 L 680.500 694.806 683.500 692.408 C 685.828 690.547, 687.732 690.002, 692 689.973 C 697.204 689.938, 702.201 687.868, 700.701 686.368 C 700.342 686.009, 699.453 686.209, 698.725 686.814 C 696.526 688.638, 689.506 689.336, 686.883 687.990 C 685.572 687.317, 682.587 684.925, 680.250 682.675 C 674.883 677.509, 674.844 675.898, 679.681 659.204 C 682.873 648.186, 683.374 645.040, 683.454 635.500 C 683.505 629.450, 683.912 623.920, 684.357 623.211 C 684.889 622.363, 683.983 620.824, 681.707 618.711 C 679.804 616.945, 677.949 614.528, 677.585 613.339 C 677.220 612.151, 675.702 610.351, 674.211 609.339 C 671.735 607.659, 668.123 607.448, 632.500 606.895 C 604.978 606.469, 590.263 605.822, 582.500 604.699 C 563.635 601.968, 554.510 601, 547.637 601 L 541 601 541.073 611.750" stroke="#fc7143" fill="#fc7143" fill-opacity="0.2" fill-rule="evenodd"/><path class="svg-region-PP" d="M 499.750 596.699 C 496.471 598.074, 496 598.694, 496 601.636 L 496 605 490 605 C 486.667 605, 484 605.444, 484 606 C 484 606.550, 483.190 607, 482.200 607 C 481.210 607, 479.879 607.521, 479.242 608.158 C 478.447 608.953, 477.681 608.997, 476.792 608.298 C 474.533 606.520, 468.831 605.895, 467.204 607.246 C 466.373 607.936, 464.004 608.528, 461.939 608.561 C 459.454 608.602, 456.966 609.551, 454.586 611.367 C 450.484 614.495, 449 614.132, 449 610 C 449 606.388, 450.143 605.653, 453.429 607.150 C 457.264 608.897, 457.936 607.172, 454.500 604.401 C 451.319 601.834, 448.166 601.861, 443.055 604.498 C 441.300 605.404, 439.806 605.480, 437.760 604.766 C 435.587 604.009, 434.503 604.121, 433.204 605.234 C 431.356 606.820, 428.379 608.213, 426 608.607 C 415.575 610.333, 411.214 611.258, 409.764 612.051 C 407.413 613.336, 407 613.254, 407 611.500 C 407 609.701, 403.887 609.513, 402.190 611.210 C 401.525 611.875, 398.623 613.568, 395.740 614.971 C 390.603 617.474, 390.502 617.608, 390.589 621.798 C 390.658 625.095, 391.365 626.808, 393.680 629.286 C 397.843 633.743, 400.751 638.158, 401.508 641.175 C 402.278 644.243, 400.458 644.965, 391.904 644.986 C 388.766 644.994, 384.875 645.714, 383.048 646.626 L 379.789 648.252 380.277 654.876 C 380.801 661.984, 383.466 675.023, 384.962 677.802 C 386.993 681.574, 391.868 692.868, 393.983 698.700 C 395.220 702.109, 397.038 705.629, 398.023 706.521 C 399.686 708.026, 400.107 707.957, 403.887 705.571 C 409.815 701.829, 415.276 702.090, 423.299 706.500 C 426.801 708.425, 430.704 710, 431.974 710 C 433.243 710, 436.259 710.988, 438.677 712.195 C 442.557 714.133, 443.006 714.698, 442.498 717.009 C 441.911 719.684, 444.108 723.180, 450.039 729.006 C 451.628 730.567, 453.054 733.639, 453.853 737.219 C 455.055 742.603, 455.520 743.231, 461.815 747.959 C 465.492 750.721, 469.175 752.992, 470 753.005 C 471.414 753.028, 472.589 753.593, 477.992 756.846 C 479.954 758.027, 479.846 757.636, 477.114 753.666 C 473.591 748.544, 472.972 742.396, 475.396 736.594 C 476.581 733.759, 477.682 732.977, 482.646 731.443 C 485.866 730.448, 489.400 729.113, 490.500 728.477 C 491.963 727.630, 497.867 727.537, 512.500 728.128 C 540.240 729.250, 546.751 730.035, 551.180 732.788 C 554.271 734.710, 565.035 738.298, 565.704 737.630 C 565.921 737.413, 564.097 732.239, 562.310 728 C 558.125 718.075, 558.067 712.473, 562.025 700.507 C 563.661 695.560, 565 690.319, 565 688.859 C 565 687.143, 562.523 682.843, 557.995 676.701 C 554.142 671.474, 550.711 665.803, 550.370 664.099 C 550.029 662.395, 549.405 661, 548.983 661 C 547.956 661, 545.202 649.303, 544.037 640 C 543.521 635.875, 542.653 630.250, 542.109 627.500 C 541.565 624.750, 541.092 617.663, 541.060 611.750 L 541 601 544.167 601 C 545.908 601, 546.997 600.663, 546.586 600.250 C 546.175 599.837, 540.363 599.189, 533.670 598.809 C 522.773 598.190, 513.238 597.095, 506 595.631 C 504.625 595.353, 501.813 595.834, 499.750 596.699" stroke="#c4743d" fill="#c4743d" fill-opacity="0.2" fill-rule="evenodd"/><path class="svg-region-ADCl" d="M 693.764 621.665 C 692.759 622.670, 690.388 623.370, 687.830 623.419 L 683.569 623.500 683.408 635.500 C 683.265 646.207, 682.858 648.764, 679.624 659.239 C 676.155 670.476, 675.185 677.349, 676.765 679.500 C 677.169 680.050, 679.627 682.413, 682.228 684.750 C 686.025 688.164, 687.697 689, 690.728 688.999 C 694.512 688.998, 706.151 684.183, 707.450 682.080 C 707.830 681.465, 710.339 679.849, 713.024 678.488 C 717.795 676.070, 724.286 669.990, 726.715 665.663 C 728.286 662.864, 728.326 653.734, 726.797 646.886 C 726.136 643.924, 725.573 638.350, 725.547 634.500 L 725.500 627.500 721.750 627.720 C 719.065 627.878, 718 627.535, 718 626.512 C 718 625.727, 715.990 623.906, 713.533 622.466 C 709.132 619.887, 709.020 619.875, 706.033 621.640 C 704.365 622.625, 703 623.784, 703 624.216 C 703 625.879, 699.975 624.886, 697.759 622.496 C 695.588 620.155, 695.328 620.101, 693.764 621.665" stroke="#54413e" fill="#54413e" fill-opacity="0.2" fill-rule="evenodd"/><path class="svg-region-AVCl" d="M 699.500 688.474 C 696.641 690.235, 694.034 690.946, 690.361 690.969 C 681.868 691.020, 681.132 692.205, 680.365 707.055 C 679.885 716.347, 680.063 720.635, 681.051 723.555 C 681.808 725.794, 682.410 732.042, 682.443 738 C 682.496 747.727, 682.720 748.896, 685.482 753.884 C 687.287 757.143, 689.969 760.218, 692.279 761.676 C 694.378 763.001, 696.337 764.715, 696.633 765.486 C 697.036 766.537, 697.787 766.651, 699.650 765.943 C 701.014 765.424, 705.697 765, 710.056 765 C 716.613 765, 719.150 764.494, 724.741 762.073 C 728.459 760.463, 735.100 758.406, 739.500 757.501 C 743.900 756.597, 750.650 755.029, 754.500 754.018 C 758.350 753.006, 763.208 751.889, 765.296 751.536 C 770.282 750.690, 771.598 747.979, 769.680 742.500 C 768.578 739.351, 767.837 738.565, 766.195 738.804 C 764.780 739.010, 762.566 737.526, 759.305 734.186 C 756.662 731.479, 753.902 729.081, 753.172 728.857 C 752.442 728.632, 751.033 726.051, 750.041 723.122 C 748.010 717.122, 744.387 714.017, 739.405 714.007 C 735.804 713.999, 733 711.363, 733 707.986 C 733 706.689, 732.049 704.616, 730.886 703.379 L 728.772 701.129 730.886 698.160 C 733.640 694.292, 733.568 693.767, 730 691.659 C 728.350 690.684, 727 689.506, 727 689.041 C 727 687.330, 720.473 686, 712.101 686.005 C 704.715 686.010, 702.935 686.358, 699.500 688.474" stroke="#ffbab9" fill="#ffbab9" fill-opacity="0.2" fill-rule="evenodd"/><path class="svg-region-DMl" d="M 404 705.228 C 399.189 708.245, 399.033 708.594, 399.015 716.338 C 399.002 722.309, 399.444 723.968, 402.500 729.434 C 404.751 733.459, 406 737.020, 406 739.412 C 406 746.255, 407.173 747.197, 414.814 746.487 C 420.476 745.962, 422.113 746.192, 425.500 747.993 C 429.378 750.056, 435.153 751.474, 445.500 752.907 C 448.250 753.288, 451.483 754.140, 452.684 754.800 C 453.886 755.460, 455.850 756, 457.049 756 C 459.137 756, 459.161 755.895, 457.615 753.535 C 456.727 752.180, 455.992 749.817, 455.983 748.285 C 455.949 742.854, 452.138 730.547, 449.933 728.753 C 448.753 727.793, 446.467 725.347, 444.855 723.317 C 442.577 720.451, 442.061 718.997, 442.544 716.802 C 443.110 714.224, 442.784 713.803, 438.832 712.010 C 436.449 710.929, 433.412 710.034, 432.083 710.022 C 430.754 710.010, 426.801 708.425, 423.299 706.500 C 415.546 702.238, 409.413 701.834, 404 705.228" stroke="#68533d" fill="#68533d" fill-opacity="0.2" fill-rule="evenodd"/><path class="svg-region-VMl" d="M 488.796 728.875 C 482.596 731.504, 481.498 731.897, 479.500 732.201 C 476.655 732.634, 473.999 738.603, 474.026 744.500 C 474.055 750.714, 477.911 756.408, 487.378 764.217 C 494.642 770.209, 512.730 780, 516.534 780 C 517.922 780, 521.731 781.350, 525 783 C 528.377 784.705, 532.524 786, 534.603 786 C 538.129 786, 545 789.294, 545 790.984 C 545 792.012, 550.574 794, 553.455 794 C 556.352 794, 560.685 790.670, 571.193 780.366 C 578.646 773.057, 580 771.236, 580 768.520 C 580 766.538, 580.796 764.589, 582.083 763.425 C 583.749 761.917, 584.036 760.837, 583.518 758.020 C 583.161 756.084, 582.634 751.896, 582.344 748.714 C 581.736 742.018, 580.242 740.585, 572.904 739.660 C 566.620 738.868, 553.483 734.480, 550.027 732.019 C 548.064 730.622, 545.605 730, 542.038 730 C 539.204 730, 534.999 729.565, 532.693 729.033 C 525.490 727.372, 492.620 727.254, 488.796 728.875" stroke="#e59376" fill="#e59376" fill-opacity="0.2" fill-rule="evenodd"/><path class="svg-region-PMl" d="M 257.500 726.966 C 254.099 728.393, 248 735.862, 248 738.600 C 248 745.267, 253.610 748, 267.298 748 C 276.881 748, 281 746.620, 281 743.410 C 281 742.597, 282.587 740.996, 284.526 739.852 C 290.585 736.277, 291.734 731.509, 287.365 728.073 C 285.004 726.215, 283.419 726.007, 272.115 726.063 C 265.177 726.098, 258.600 726.504, 257.500 726.966" stroke="#90cf92" fill="#90cf92" fill-opacity="0.2" fill-rule="evenodd"/><path class="svg-region-PV" d="M 330.750 580.739 C 324.659 581.121, 323.812 581.777, 326.909 583.711 C 328.608 584.772, 329.987 588.665, 331.672 597.156 C 332.038 599, 331.404 600.983, 329.600 603.638 C 328.170 605.743, 326.998 607.922, 326.995 608.482 C 326.992 609.042, 325.899 610.850, 324.565 612.500 C 322.426 615.145, 321.896 615.352, 320.083 614.250 C 317.149 612.466, 315.067 612.700, 313.160 615.026 C 311.956 616.495, 309.254 617.406, 303.327 618.342 C 297.638 619.240, 293.889 620.469, 290.994 622.385 C 288.119 624.288, 284.338 625.535, 278.743 626.425 C 270.919 627.670, 268.082 629.255, 266.801 633.096 C 266.605 633.684, 263.757 634.491, 260.472 634.889 C 251.500 635.976, 247.291 639.077, 244.672 646.528 L 243.276 650.500 246.888 652.105 C 248.875 652.988, 252.423 654.301, 254.773 655.023 C 257.837 655.964, 259.212 656.995, 259.631 658.668 C 260.540 662.287, 259.216 665.903, 256.735 666.577 C 254.320 667.234, 248.009 676.355, 246.155 681.869 C 245.531 683.721, 245.281 686.270, 245.597 687.532 C 245.988 689.087, 245.501 690.499, 244.087 691.913 C 241.347 694.653, 240.716 694.568, 236.533 690.895 C 232.830 687.643, 231.955 687.562, 222.194 689.565 C 219.542 690.109, 218.405 689.789, 216.444 687.947 L 214 685.651 214 695.777 C 214 707.051, 216.820 720.010, 221.588 730.651 C 222.365 732.384, 223 734.231, 223 734.755 C 223 735.693, 225.884 739.280, 230.270 743.797 C 231.496 745.061, 234.843 747.659, 237.706 749.572 C 240.569 751.484, 243.183 753.488, 243.515 754.024 C 244.679 755.908, 246 754.973, 246.022 752.250 C 246.034 750.737, 246.890 748.400, 247.923 747.055 C 249.386 745.152, 249.590 744.053, 248.846 742.094 C 247.516 738.596, 248.472 735.671, 252.257 731.657 C 257.183 726.435, 258.737 726, 272.480 726 C 284.536 726, 285.199 726.108, 287.545 728.455 C 290.483 731.392, 290.691 734.414, 288.106 736.606 C 282.771 741.128, 280 743.946, 280 744.850 C 280 745.402, 281.238 746.488, 282.750 747.263 C 287.435 749.665, 292.302 752.572, 297.250 755.924 C 301.091 758.526, 302 759.698, 302 762.052 C 302 764.309, 302.552 765.100, 304.459 765.579 C 309.180 766.764, 309.175 768.379, 304.441 771.374 C 301.999 772.919, 300 774.762, 300 775.470 C 300 776.177, 298.988 777.437, 297.750 778.269 C 296.512 779.101, 295.813 780.106, 296.196 780.503 C 297.236 781.583, 307.108 778.997, 310.185 776.839 C 311.662 775.803, 315.487 774.476, 318.685 773.889 C 321.883 773.302, 326.525 771.997, 329 770.988 C 331.475 769.979, 335.973 768.598, 338.995 767.919 C 342.017 767.239, 346.292 765.864, 348.495 764.864 C 350.698 763.863, 353.666 763.034, 355.090 763.022 C 356.515 763.010, 360.340 761.685, 363.590 760.079 C 370.511 756.657, 375.967 755.101, 383.242 754.473 C 390.529 753.845, 396.841 752.015, 404.750 748.237 C 408.099 746.638, 408.739 745.575, 407 744.500 C 406.450 744.160, 406 742.163, 406 740.063 C 406 736.405, 403.583 729.047, 402.037 728 C 400.007 726.624, 399 722.376, 399 715.188 C 399 709.661, 398.581 706.897, 397.622 706.101 C 396.864 705.473, 395.025 701.524, 393.535 697.327 C 392.045 693.130, 389.266 686.502, 387.359 682.598 C 382.746 673.153, 380.710 663.107, 380.370 648.114 C 380.150 638.400, 380.429 635.056, 381.665 632.614 C 384.026 627.950, 386.058 626, 388.560 626 C 390.587 626, 390.759 625.624, 390.301 622.209 C 389.935 619.479, 390.242 618.044, 391.396 617.086 C 393.620 615.241, 393.416 614.044, 390.331 610.824 C 387.959 608.348, 387.795 607.746, 388.855 605.419 C 389.511 603.979, 390.937 602.568, 392.024 602.283 C 395.979 601.249, 394.136 596.620, 388.657 593.825 C 383.963 591.430, 378.656 587.851, 378.167 586.750 C 377.983 586.337, 377.061 586, 376.117 586 C 375.173 586, 373.960 585.560, 373.423 585.023 C 372.885 584.485, 369.800 583.135, 366.566 582.023 C 360.718 580.011, 349.031 579.592, 330.750 580.739" stroke="#b09658" fill="#b09658" fill-opacity="0.2" fill-rule="evenodd"/><path class="svg-region-Fl" d="M 305 577.991 C 299.183 581.141, 290.812 585, 289.795 585 C 289.269 585, 286.513 586.522, 283.669 588.383 C 274.665 594.276, 264.834 600, 263.719 600 C 263.127 600, 261.221 601.462, 259.483 603.250 C 257.746 605.038, 254.819 607.400, 252.979 608.500 C 251.139 609.600, 248.569 612.525, 247.268 615 C 245.967 617.475, 244.249 620.497, 243.451 621.715 C 242.653 622.933, 242 624.438, 242 625.060 C 242 625.682, 241.097 627.460, 239.993 629.010 C 238.888 630.561, 237.692 634.006, 237.335 636.665 C 236.977 639.324, 236.046 642.485, 235.267 643.689 C 233.996 645.652, 234.087 646.198, 236.143 648.980 C 239.232 653.157, 241.977 652.657, 244.272 647.500 C 247.097 641.153, 247.480 640.647, 251.562 637.856 C 254.199 636.053, 257.173 635.067, 260.914 634.757 C 263.931 634.507, 266.570 633.790, 266.778 633.165 C 268.080 629.260, 270.882 627.676, 278.684 626.434 C 284.272 625.545, 288.215 624.234, 291.644 622.124 C 294.354 620.456, 297.456 619.082, 298.536 619.070 C 304.581 619.003, 311.458 617.153, 313.073 615.158 C 314.842 612.973, 319 612.161, 319 614 C 319 614.550, 320.104 615, 321.453 615 C 323.311 615, 324.329 614.091, 325.648 611.250 C 326.606 609.188, 328.480 605.823, 329.812 603.774 C 331.504 601.171, 332.067 599.212, 331.679 597.274 C 329.547 586.631, 329.199 585.877, 324.158 580.966 C 319.325 576.258, 318.785 576.002, 313.780 576.048 C 310.576 576.077, 307.124 576.841, 305 577.991" stroke="#5ca7a9" fill="#5ca7a9" fill-opacity="0.2" fill-rule="evenodd"/><path class="svg-region-DV" d="M 231.338 647.999 C 230.149 648.478, 228.871 649.832, 228.498 651.008 C 228.068 652.362, 227.276 652.936, 226.337 652.576 C 224.432 651.845, 221 653.669, 221 655.413 C 221 656.151, 220.372 657.276, 219.605 657.913 C 218.838 658.549, 218.004 660.517, 217.752 662.285 C 217.499 664.053, 216.512 669.092, 215.558 673.483 C 212.648 686.872, 215.675 691.912, 224.957 689.131 C 230.980 687.327, 233.427 687.728, 236.342 691 C 239.373 694.401, 240.629 694.648, 243.754 692.460 C 245.471 691.257, 245.927 689.995, 245.834 686.710 C 245.704 682.162, 246.975 678.168, 249.287 675.856 C 250.086 675.057, 251.482 672.969, 252.387 671.218 C 253.293 669.467, 255.376 667.340, 257.017 666.491 C 259.441 665.238, 260 664.311, 260 661.546 C 260 657.343, 258.051 655.286, 253.218 654.388 C 251.173 654.009, 248.525 653.064, 247.333 652.288 C 245.922 651.371, 243.973 651.102, 241.750 651.519 C 238.817 652.069, 238.096 651.795, 236.644 649.580 C 234.808 646.777, 234.554 646.702, 231.338 647.999" stroke="#45567a" fill="#45567a" fill-opacity="0.2" fill-rule="evenodd"/><path class="svg-region-VV" d="M 247.557 747.223 C 245.717 749.850, 245.483 758.083, 247.200 759.800 C 247.982 760.582, 248.024 761, 247.322 761 C 246.730 761, 245.685 760.325, 245 759.500 C 243.709 757.944, 240.998 757.436, 241.003 758.750 C 241.004 759.163, 242.353 760.400, 244 761.500 C 245.647 762.600, 246.996 764.022, 246.997 764.661 C 247.001 766.347, 252.842 771, 254.954 771 C 255.945 771, 257.315 771.675, 258 772.500 C 258.685 773.325, 259.795 774, 260.467 774 C 261.140 774, 262.470 774.862, 263.424 775.916 C 264.377 776.970, 267.577 778.814, 270.534 780.014 C 275.035 781.841, 277.425 782.139, 285.205 781.845 C 293.609 781.528, 294.764 781.244, 297.250 778.883 C 298.762 777.446, 300 775.801, 300 775.227 C 300 774.653, 302.024 772.905, 304.498 771.342 C 306.972 769.779, 308.997 768.246, 308.998 767.935 C 308.999 767.625, 307.425 766.619, 305.500 765.701 C 302.923 764.472, 302 763.394, 302 761.610 C 302 758.977, 297.305 755.135, 286.723 749.111 C 281.603 746.196, 280.592 745.946, 277.824 746.911 C 273.179 748.531, 258.595 748.275, 254.346 746.500 C 249.695 744.557, 249.402 744.588, 247.557 747.223" stroke="#7699d1" fill="#7699d1" fill-opacity="0.2" fill-rule="evenodd"/><path class="svg-region-B" d="M 827 491.904 C 825.540 492.716, 820.150 494.694, 811 497.774 C 808.525 498.608, 805.825 499.648, 805 500.087 C 799.765 502.871, 790.999 507, 790.322 507 C 788.267 507, 778.786 514.614, 776.793 517.864 C 775.567 519.864, 773.446 522.392, 772.079 523.483 C 767.043 527.500, 764.093 530.905, 758.976 538.612 C 753.697 546.564, 748 556.970, 748 558.662 C 748 559.165, 747.100 561.342, 746 563.500 C 744.337 566.763, 744 569.397, 744 579.152 C 744 585.893, 743.575 591.145, 743 591.500 C 742.450 591.840, 742 593.052, 742 594.193 C 742 598.067, 739.637 604.177, 737.064 606.956 C 726.646 618.205, 722.789 624.836, 725.067 627.581 C 725.673 628.310, 725.825 630.836, 725.440 633.742 C 724.489 640.910, 727.277 651.761, 733.084 663.500 C 735.806 669, 738.027 673.950, 738.021 674.500 C 738.015 675.050, 739.020 676.715, 740.255 678.199 C 742.119 680.441, 743.662 681.035, 749.352 681.699 C 756.097 682.488, 756.240 682.566, 758.602 686.777 C 759.921 689.129, 761.017 691.829, 761.038 692.777 C 761.064 693.990, 762.070 693.337, 764.439 690.569 L 767.804 686.638 773.174 687.840 C 776.127 688.501, 779.884 688.775, 781.522 688.449 C 784.750 687.806, 798.713 692.207, 800.500 694.430 C 801.050 695.114, 802.513 696.213, 803.750 696.872 C 805.500 697.804, 806 698.946, 806 702.010 C 806 705.385, 806.434 706.173, 809.034 707.517 C 811.010 708.539, 812.270 710.100, 812.649 711.995 C 813.181 714.657, 813.496 714.848, 816.365 714.239 C 819.758 713.519, 821.371 713.568, 827.500 714.578 C 832.573 715.414, 834.006 716.585, 833.978 719.872 C 833.960 721.873, 832.772 723.336, 829 726 C 826.275 727.925, 824.035 729.756, 824.022 730.070 C 824.010 730.383, 828.617 731.177, 834.260 731.833 C 843.451 732.901, 845.666 732.817, 855.510 731.028 C 861.555 729.929, 867.556 729.024, 868.846 729.015 C 870.136 729.007, 873.603 728.299, 876.550 727.443 C 881.710 725.942, 881.871 725.790, 880.927 723.308 C 880.388 721.890, 880.071 719.104, 880.224 717.115 L 880.500 713.500 874.116 713.305 C 865.489 713.043, 865 712.762, 865 708.070 C 865 703.622, 867.017 701.106, 873.099 697.969 C 875.079 696.948, 878.817 694.496, 881.405 692.520 C 883.994 690.544, 887.549 688.652, 889.306 688.315 C 893.124 687.583, 898 684.371, 898 682.587 C 898 681.885, 898.952 680.453, 900.115 679.405 C 901.278 678.357, 902.617 676.487, 903.090 675.250 C 903.575 673.983, 904.800 673, 905.896 673 C 908.315 673, 909.230 669.384, 908.533 662.575 C 908.218 659.502, 908.530 656.644, 909.363 654.974 C 910.097 653.503, 910.489 650.882, 910.235 649.150 C 909.828 646.378, 909.393 646, 906.609 646 C 904.869 646, 902.471 646.682, 901.281 647.516 C 899.656 648.654, 897.737 648.869, 893.576 648.380 C 888.321 647.762, 887.879 647.486, 885.017 643.027 C 880.775 636.415, 880.768 629.740, 885 625 C 887.317 622.405, 888 620.690, 888 617.468 C 888 613.886, 887.421 612.747, 883.901 609.398 C 875.240 601.160, 873.661 599.407, 872.281 596.500 C 871.498 594.850, 870.011 591.925, 868.977 590 C 866.774 585.901, 866.585 583.488, 868.122 579.081 C 869.122 576.211, 868.977 575.574, 866.778 573.182 C 865.422 571.707, 862.663 566.900, 860.647 562.500 C 854.862 549.876, 854.639 549.545, 851.580 549.004 C 847.399 548.264, 845 543.159, 845 535 L 845 528.469 852.640 520.780 C 860.042 513.329, 860.243 513.001, 859.089 510.215 C 858.353 508.438, 856.460 506.705, 854.134 505.679 C 849.905 503.813, 848.433 502.447, 843.708 496 C 840.487 491.606, 840.269 491.495, 834.455 491.285 C 831.180 491.166, 827.825 491.445, 827 491.904" stroke="#e23b33" fill="#e23b33" fill-opacity="0.2" fill-rule="evenodd"/><path class="svg-region-SB" d="M 899 175.657 C 883.116 178.134, 872.643 183.657, 854.732 199 C 852.360 201.032, 846.723 208.281, 842.773 214.378 C 839.130 220.002, 834 233.100, 834 236.778 C 834 245.508, 838.697 252.442, 845.359 253.549 C 847.637 253.927, 850.625 254.797, 852 255.482 C 854.384 256.670, 862.257 257.879, 872 258.552 C 881.045 259.177, 887.125 262.233, 895.555 270.394 C 899.876 274.577, 903.747 278, 904.158 278 C 904.568 278, 906.211 279.912, 907.808 282.250 C 909.942 285.372, 910.894 288.225, 911.397 293 C 912.862 306.899, 916.713 314.500, 925.193 320.226 C 927.414 321.726, 930.866 323.259, 932.865 323.633 C 934.864 324.007, 938.075 325.571, 940 327.108 C 946.850 332.578, 954.728 335.436, 964.032 335.826 C 974.840 336.278, 981.115 334.520, 991.094 328.245 C 1001.160 321.914, 1001.647 321.507, 1008.134 314 C 1015.333 305.671, 1019.283 299.133, 1022.030 291 C 1023.934 285.362, 1024.158 283.041, 1023.717 273.500 C 1023.437 267.450, 1022.657 260.250, 1021.983 257.500 C 1020.373 250.933, 1014.001 234.119, 1012.854 233.410 C 1012.360 233.104, 1010.562 230.075, 1008.860 226.677 C 1004.174 217.327, 982.352 197.125, 968.703 189.500 C 965.750 187.850, 961.346 185.289, 958.916 183.808 C 956.487 182.328, 949.325 179.639, 943 177.833 C 933.368 175.084, 929.632 174.520, 920 174.363 C 913.675 174.260, 904.225 174.843, 899 175.657" stroke="#d2e400" fill="#d2e400" fill-opacity="0.2" fill-rule="evenodd"/><path class="svg-region-VOC" d="M 492.251 483.250 C 488.070 486.171, 486.594 490.692, 487.424 498.033 C 487.790 501.270, 487.674 504.083, 487.161 504.400 C 484.766 505.881, 488.325 519, 491.122 519 C 491.714 519, 493.616 519.667, 495.349 520.481 C 503.595 524.358, 527.389 528.872, 532.635 527.555 C 534.874 526.994, 535.096 526.574, 534.403 524.206 C 533.968 522.718, 533.703 519.595, 533.814 517.267 L 534.016 513.033 527.174 509.588 C 523.362 507.668, 518.889 504.450, 517.074 502.321 C 515.282 500.219, 512.817 497.375, 511.598 496 C 508.455 492.458, 503 484.321, 503 483.177 C 503 482.647, 502.288 481.941, 501.418 481.607 C 498.446 480.466, 495.473 480.999, 492.251 483.250" stroke="#ff8f93" fill="#ff8f93" fill-opacity="0.2" fill-rule="evenodd"/><path class="svg-region-OABl" d="M 633 416.932 C 633 418.544, 630.975 424.024, 628.500 429.109 C 626.025 434.194, 624 438.908, 624 439.585 C 624 441.377, 618.796 451.177, 616.750 453.238 C 615.788 454.207, 615 456.094, 615 457.432 C 615 459.622, 610.638 464, 608.456 464 C 606.752 464, 605.061 467.789, 605.032 471.673 C 605.008 474.750, 605.709 476.721, 607.700 479.173 C 609.185 481.003, 610.548 482.701, 610.729 482.946 C 610.911 483.191, 612.999 481.279, 615.370 478.696 C 617.865 475.979, 620.561 474, 621.768 474 C 624.076 474, 628 469.653, 628 467.097 C 628 466.199, 629.125 463.809, 630.500 461.785 C 631.875 459.762, 633 457.403, 633 456.543 C 633 455.684, 633.937 454.197, 635.083 453.240 C 636.229 452.283, 637.842 449.839, 638.668 447.809 C 639.494 445.780, 641.181 443.456, 642.418 442.646 C 645.353 440.723, 648.091 435.058, 647.059 433.047 C 646.622 432.196, 645.237 427.563, 643.981 422.750 L 641.697 414 637.349 414 C 633.206 414, 633 414.139, 633 416.932" stroke="#81244d" fill="#81244d" fill-opacity="0.2" fill-rule="evenodd"/><path class="svg-region-SOTl" d="M 468.223 425.944 C 464.597 429.255, 463.805 434.232, 466.649 435.824 C 467.556 436.331, 469.244 438.716, 470.399 441.123 C 472.186 444.846, 472.946 445.500, 475.486 445.500 C 478.022 445.500, 478.550 445.952, 478.991 448.500 C 479.400 450.866, 480.088 451.567, 482.243 451.815 C 483.746 451.989, 485.981 451.426, 487.210 450.565 C 488.439 449.704, 491.322 449, 493.616 449 C 496.400 449, 497.977 448.502, 498.362 447.500 C 499.292 445.076, 507.645 445.469, 509 448 C 510.445 450.701, 513.233 450.517, 516.838 447.483 C 522.568 442.661, 521.737 432.797, 515.209 428.149 C 511.756 425.690, 508.742 425.401, 506.801 427.342 C 503.028 431.115, 497.013 432.081, 493.559 429.468 C 492.491 428.661, 489.711 428, 487.381 428 C 484.054 428, 482.723 427.464, 481.179 425.500 C 478.291 421.829, 472.511 422.027, 468.223 425.944" stroke="#995b45" fill="#995b45" fill-opacity="0.2" fill-rule="evenodd"/><path class="svg-region-BPCl" d="M 728 659.050 C 728 661.277, 727.361 664.314, 726.580 665.800 C 724.490 669.774, 717.211 676.349, 711.500 679.420 C 708.750 680.899, 705.283 683.097, 703.795 684.305 L 701.090 686.500 710.587 686.152 C 721.518 685.752, 723.711 686.141, 727.066 689.075 C 728.405 690.247, 730.348 691.807, 731.385 692.541 C 733.221 693.842, 733.213 693.974, 731.088 697.575 L 728.907 701.272 730.953 703.450 C 732.079 704.649, 733 706.768, 733 708.159 C 733 711.400, 735.877 714, 739.461 714 C 743.199 714, 749 717.678, 749 720.048 C 749 723.037, 752.189 728.925, 754.145 729.546 C 755.126 729.857, 757.722 732.149, 759.914 734.639 C 763.009 738.156, 764.357 739.022, 765.949 738.516 C 767.561 738.005, 768.236 738.467, 769.112 740.683 C 769.724 742.232, 770.287 745.075, 770.362 747 C 770.522 751.056, 768.817 750.911, 788.833 748.573 C 796.166 747.716, 802.600 746.747, 803.131 746.419 C 803.661 746.091, 808.686 745.719, 814.298 745.593 C 820.413 745.455, 825.478 744.834, 826.941 744.044 C 828.500 743.202, 834.215 742.598, 842.750 742.373 C 850.622 742.166, 858.252 741.403, 861.309 740.517 C 864.164 739.690, 870.325 738.627, 875 738.155 C 882.952 737.353, 890.908 734.576, 892.463 732.060 C 892.792 731.528, 892.785 729.990, 892.447 728.644 C 891.980 726.785, 890.813 725.939, 887.603 725.130 C 883.979 724.218, 882.780 724.360, 879.217 726.123 C 876.930 727.254, 871.818 728.587, 867.856 729.084 C 863.895 729.582, 857.041 730.674, 852.626 731.511 C 845.869 732.793, 842.968 732.845, 834.299 731.837 C 828.635 731.179, 824 730.271, 824 729.820 C 824 729.369, 824.450 729, 825 729 C 825.550 729, 826.826 728.212, 827.835 727.250 C 828.844 726.288, 830.644 724.838, 831.835 724.029 C 835.800 721.336, 834.391 715, 829.827 715 C 828.200 715, 825.992 714.531, 824.920 713.957 C 823.652 713.278, 821.265 713.225, 818.080 713.804 C 813.248 714.682, 813.182 714.658, 812.628 711.889 C 812.271 710.104, 810.965 708.516, 809.034 707.517 C 806.423 706.168, 806 705.391, 806 701.953 C 806 698.661, 805.560 697.756, 803.500 696.818 C 802.125 696.192, 801 695.307, 801 694.853 C 801 692.769, 784.815 687.587, 780.809 688.388 C 779.245 688.701, 775.673 688.428, 772.871 687.781 L 767.777 686.605 764.388 690.413 C 762.233 692.835, 761 693.644, 761 692.637 C 761 691.766, 759.921 689.129, 758.602 686.777 C 756.240 682.566, 756.097 682.488, 749.352 681.699 C 743.662 681.035, 742.119 680.441, 740.255 678.199 C 739.020 676.715, 738.008 674.953, 738.005 674.284 C 738 672.948, 729.069 655, 728.410 655 C 728.184 655, 728 656.822, 728 659.050" stroke="#83385f" fill="#83385f" fill-opacity="0.2" fill-rule="evenodd"/><path class="svg-region-AMC" d="M 469 753.772 C 469 755.273, 475.216 762.060, 477.840 763.426 C 479.303 764.187, 481.850 766.682, 483.500 768.971 C 485.150 771.260, 487.004 773.687, 487.620 774.365 C 492.326 779.542, 492.870 786.353, 488.974 791.306 C 485.376 795.881, 487.051 807.654, 491.545 809.379 C 496.212 811.170, 503.454 809.837, 508 806.349 C 515.986 800.224, 525.292 798.239, 528.711 801.933 C 531.451 804.892, 537 816.587, 537 819.401 C 537 820.281, 537.391 821, 537.868 821 C 538.346 821, 538.983 822.835, 539.284 825.078 C 539.584 827.320, 540.544 829.943, 541.415 830.906 C 542.287 831.869, 543 833.435, 543 834.385 C 543 835.335, 544.462 837.465, 546.250 839.117 C 549.652 842.262, 549.143 842.212, 559.349 840.408 C 562.407 839.868, 562.799 839.385, 563.843 834.860 C 565.274 828.661, 563.568 823.610, 559.718 822.644 C 558.344 822.299, 556.989 821.413, 556.705 820.674 C 555.976 818.775, 558.051 809.986, 559.933 807 C 560.452 806.175, 562.019 802.965, 563.414 799.866 C 565.057 796.213, 568.421 791.745, 572.975 787.164 C 579.846 780.252, 581.751 776.200, 578.945 774.466 C 578.364 774.107, 573.752 777.809, 568.695 782.692 C 557.894 793.121, 554.675 794.818, 548.948 793.103 C 546.777 792.452, 545 791.481, 545 790.945 C 545 789.125, 538.516 786.007, 534.721 786.004 C 532.517 786.002, 528.468 784.750, 525 783 C 521.731 781.350, 518.057 780, 516.835 780 C 514.229 780, 501.658 774.039, 494.500 769.409 C 491.750 767.630, 486.800 763.837, 483.500 760.980 C 476.430 754.859, 469 751.166, 469 753.772" stroke="#9d4741" fill="#9d4741" fill-opacity="0.2" fill-rule="evenodd"/>
    </svg>