<svg xmlns="http://www.w3.org/2000/svg" width="1078" height="1151" viewBox="0 0 1078 1151" version="1.1">
    <path class="svg-region-V" d="M 480.500 204.021 C 478.850 204.429, 474.797 204.817, 471.493 204.882 C 461.092 205.087, 449.383 209.871, 443.533 216.307 C 441.315 218.747, 437.250 222.361, 434.500 224.338 C 428.878 228.379, 426.971 230.370, 421.980 237.408 C 420.066 240.108, 416.893 243.933, 414.928 245.908 C 412.964 247.884, 410.613 250.703, 409.705 252.174 C 408.797 253.645, 407.141 255.138, 406.027 255.492 C 404.912 255.845, 404 256.639, 404 257.255 C 404 257.871, 401.993 260.930, 399.541 264.052 C 397.088 267.174, 394.506 271.027, 393.804 272.614 C 393.101 274.201, 390.243 278.297, 387.453 281.715 C 384.662 285.133, 380.831 290.673, 378.939 294.026 C 377.048 297.379, 374.486 301.692, 373.247 303.610 C 370.177 308.362, 364.112 326.619, 363.065 334.260 C 362.595 337.692, 361.498 343.685, 360.628 347.577 C 359.590 352.217, 358.977 360.481, 358.846 371.577 C 358.641 388.900, 359.208 392.908, 363.080 401.500 C 364.072 403.700, 365.186 406.749, 365.556 408.276 C 365.927 409.803, 367.073 411.504, 368.103 412.055 C 369.133 412.607, 370.849 414.974, 371.916 417.316 C 374.680 423.384, 380.991 426.489, 390.500 426.461 C 398.608 426.437, 403.950 424.147, 409.693 418.233 C 418.504 409.161, 421.175 401.443, 420.903 385.841 C 420.686 373.358, 421.824 367.536, 425.623 361.698 C 426.984 359.607, 429.088 355.148, 430.298 351.788 C 432.328 346.156, 432.929 345.451, 438 342.746 C 444.918 339.057, 448.359 335.889, 452.660 329.250 C 454.531 326.363, 456.320 324, 456.636 324 C 456.953 324, 459.976 324.720, 463.356 325.601 C 467.578 326.700, 472.315 327.076, 478.500 326.801 C 486.155 326.460, 488.098 326.006, 491.500 323.762 C 495.181 321.334, 495.899 321.203, 500.500 322.118 C 506.666 323.345, 527.492 322.354, 535 320.477 C 538.025 319.720, 542.108 318.848, 544.073 318.538 C 546.039 318.229, 549.731 316.654, 552.279 315.038 C 558.944 310.811, 562.698 304.242, 564.468 293.711 C 564.859 291.390, 566.182 288.962, 567.885 287.445 C 569.414 286.083, 573.047 280.211, 575.958 274.396 C 581.196 263.935, 581.247 263.747, 580.777 256.424 C 580.381 250.262, 579.775 248.225, 577.158 244.261 C 575.428 241.643, 573.057 237.514, 571.888 235.087 C 566.217 223.313, 557.405 215.701, 545.500 212.292 C 542.750 211.505, 537.575 210.023, 534 208.999 C 530.425 207.975, 525.475 206.328, 523 205.338 C 519.323 203.868, 515.299 203.515, 501 203.408 C 491.375 203.337, 482.150 203.612, 480.500 204.021" stroke="#dd8a8a" fill="#dd8a8a" fill-opacity="0.2" fill-rule="evenodd"/><path class="svg-region-SV" d="M 490.136 324.088 C 485.447 326.633, 483.736 327, 476.545 327 C 472.020 327, 466.109 326.330, 463.409 325.511 C 460.709 324.692, 457.951 324.017, 457.281 324.011 C 456.610 324.005, 454.534 326.363, 452.667 329.250 C 448.340 335.941, 445.261 338.763, 438.188 342.523 C 432.832 345.370, 432.366 345.922, 430.202 351.992 C 428.938 355.536, 426.862 359.803, 425.588 361.473 C 422.257 365.841, 420.201 376.742, 420.745 387.155 C 421.405 399.786, 418.768 408.052, 411.620 415.753 L 408.601 419.007 412.550 423.090 C 419.009 429.766, 424.706 432.100, 435.892 432.650 C 441.176 432.910, 446.458 433.314, 447.628 433.549 C 448.798 433.785, 452.453 436.682, 455.749 439.988 C 463.056 447.318, 464.994 447.687, 465.015 441.750 C 465.034 436.625, 465.536 435.773, 469.833 433.571 C 473.695 431.591, 477.779 432.505, 481.751 436.235 C 483.513 437.891, 485.857 438.593, 491.287 439.091 C 495.247 439.453, 499.016 439.547, 499.664 439.299 C 500.311 439.050, 503.580 435.619, 506.929 431.674 C 515.612 421.443, 515.904 421.178, 519.369 420.433 C 523.801 419.479, 527.807 417.296, 533 413.004 C 535.475 410.959, 539.182 408.738, 541.238 408.069 C 543.294 407.400, 546.219 405.359, 547.738 403.534 C 550.374 400.366, 550.716 400.248, 555.240 400.947 C 558.610 401.468, 559.727 401.365, 559.105 400.590 C 558.624 399.990, 557.920 398.047, 557.541 396.272 C 557.035 393.908, 555.800 392.454, 552.925 390.838 C 549.362 388.835, 549 388.257, 549.004 384.566 C 549.007 380.398, 553.569 366.833, 556.441 362.450 C 557.418 360.959, 559 360, 560.485 360 C 563.315 360, 564.489 356.768, 565.569 346 C 566.137 340.326, 565.972 339.276, 564.266 337.737 C 562.376 336.030, 562.151 336.134, 557.299 340.987 C 553.154 345.132, 551.668 346, 548.715 346 C 546.009 346, 544.624 345.334, 542.992 343.250 C 541.807 341.738, 538.625 338.175, 535.919 335.334 C 530.943 330.109, 529.896 326.931, 531.909 323.170 C 532.750 321.599, 532.018 321.532, 522.159 322.279 C 512.551 323.006, 500.338 322.673, 496.834 321.589 C 496.100 321.362, 493.086 322.486, 490.136 324.088 M 564.519 402.970 C 564.189 403.503, 565.458 404.582, 567.338 405.368 C 569.218 406.153, 571.036 407.250, 571.379 407.804 C 572.078 408.936, 576 408.216, 576 406.956 C 576 403.874, 566.087 400.432, 564.519 402.970" stroke="#c666b5" fill="#c666b5" fill-opacity="0.2" fill-rule="evenodd"/><path class="svg-region-SF" d="M 582.750 252.080 C 581.413 252.859, 581 254.421, 581 258.706 C 581 263.440, 580.215 265.884, 575.956 274.406 C 573.182 279.958, 569.625 285.625, 568.050 287 C 565.952 288.833, 564.916 290.968, 564.169 295 C 562.778 302.516, 561.795 304.805, 557.607 310.291 C 555.040 313.654, 554 316.034, 554 318.542 C 554 322.869, 558.074 331.181, 562.744 336.379 C 565.893 339.886, 566.167 340.655, 565.590 344.379 C 565.239 346.646, 564.673 352.881, 564.332 358.235 C 563.732 367.632, 563.816 368.188, 566.735 374.235 C 568.399 377.681, 570.028 381.660, 570.356 383.079 C 570.684 384.497, 572.051 386.158, 573.394 386.770 C 574.737 387.382, 579.454 390.647, 583.875 394.026 C 589.381 398.234, 594.211 400.959, 599.206 402.676 C 607.830 405.639, 620.586 406.752, 626.750 405.077 C 630.671 404.012, 631 403.664, 631 400.584 C 631 391.021, 642.420 375.296, 658.477 362.750 C 661.116 360.688, 663.632 359, 664.067 359 C 664.502 359, 666.173 357.051, 667.781 354.670 C 670.767 350.244, 671.155 345.263, 668.747 342.245 C 668.194 341.551, 668.031 339.211, 668.382 337.014 C 669.163 332.131, 667.780 325.268, 664.551 318 C 663.207 314.975, 660.434 308.681, 658.390 304.013 C 652.277 290.052, 642.591 275.741, 631.862 264.815 C 622.971 255.761, 621.924 254.999, 618.362 254.993 C 616.192 254.990, 613.186 254.116, 611.500 253 C 608.919 251.290, 606.825 251.017, 596.500 251.037 C 589.900 251.050, 583.712 251.519, 582.750 252.080" stroke="#8c6b55" fill="#8c6b55" fill-opacity="0.2" fill-rule="evenodd"/><path class="svg-region-IF" d="M 670.909 351.255 C 669.485 352.490, 667.562 354.738, 666.636 356.250 C 665.711 357.762, 664.478 359, 663.897 359 C 662.733 359, 656.733 363.799, 648.270 371.500 C 642.730 376.541, 635.274 387.015, 632.501 393.652 C 630.236 399.073, 630.568 406.061, 633.282 410.102 C 635.404 413.263, 643.967 418.924, 646.706 418.977 C 647.809 418.998, 652.033 421.498, 657.746 425.510 C 658.982 426.378, 662.582 430.529, 665.746 434.735 C 671.355 442.189, 671.689 442.443, 679 444.811 C 683.125 446.147, 687.281 447.636, 688.236 448.120 C 690.743 449.390, 696.399 449.201, 697.800 447.800 C 698.460 447.140, 699 445.845, 699 444.922 C 699 444, 699.675 442.685, 700.500 442 C 701.325 441.315, 702 439.676, 702 438.358 C 702 437.039, 703.074 434.259, 704.387 432.179 C 705.700 430.100, 708.175 424.899, 709.887 420.623 C 714.353 409.469, 714.261 401.601, 709.549 391.671 C 707.651 387.671, 704.726 382.672, 703.049 380.562 C 701.372 378.451, 700 375.817, 700 374.707 C 700 373.597, 698.875 371.214, 697.500 369.411 C 696.125 367.608, 695 365.732, 695 365.241 C 695 364.750, 693.888 363.304, 692.529 362.027 C 691.170 360.751, 689.570 358.227, 688.974 356.420 C 688.161 353.959, 687.134 352.969, 684.877 352.473 C 683.220 352.109, 681.622 351.179, 681.325 350.406 C 680.453 348.133, 673.894 348.668, 670.909 351.255" stroke="#f2823b" fill="#f2823b" fill-opacity="0.2" fill-rule="evenodd"/><path class="svg-region-PF" d="M 548.500 317.055 C 546.300 318.096, 543.330 318.959, 541.899 318.974 C 537.921 319.014, 533.069 321.002, 531.979 323.039 C 530.384 326.020, 530.855 329.931, 533.095 332.292 C 534.247 333.506, 537.473 337.087, 540.265 340.250 C 544.610 345.171, 545.842 346, 548.814 346 C 551.643 346, 553.204 345.082, 557.242 341.044 L 562.198 336.087 560.083 333.116 C 556.755 328.442, 554.046 321.798, 554.022 318.250 C 553.997 314.528, 553.888 314.505, 548.500 317.055 M 560.772 359.814 C 559.190 359.997, 557.255 361.256, 556.163 362.814 C 553.267 366.949, 549 379.859, 549 384.486 C 549 388.275, 549.341 388.823, 552.963 390.859 C 556.036 392.586, 557.072 393.867, 557.579 396.568 C 558.457 401.252, 561.242 403.066, 566.458 402.351 C 569.929 401.875, 571.086 402.202, 573.689 404.392 C 577.929 407.959, 584.084 408.007, 587.591 404.500 C 589.007 403.084, 591.264 401.992, 592.795 401.981 C 595.343 401.963, 595.239 401.788, 591 398.962 C 588.525 397.311, 584.700 394.605, 582.500 392.946 C 580.300 391.288, 576.848 388.839, 574.829 387.503 C 572.810 386.168, 570.867 384.046, 570.510 382.788 C 570.154 381.529, 568.741 378.364, 567.371 375.754 C 566.001 373.144, 564.569 368.419, 564.190 365.254 C 563.526 359.717, 563.397 359.512, 560.772 359.814" stroke="#faaaaa" fill="#faaaaa" fill-opacity="0.2" fill-rule="evenodd"/><path class="svg-region-AAB" d="M 639.388 417.979 C 635.938 419.374, 635.728 422.726, 638.970 424.642 C 641.395 426.074, 641.835 427.089, 642.392 432.521 C 642.743 435.951, 642.553 440.985, 641.969 443.708 C 641.031 448.085, 639.987 449.506, 632.954 455.981 C 625.773 462.592, 625 463.662, 625 466.997 C 625 470.782, 622.675 473.992, 619.921 474.008 C 619.140 474.013, 616.261 475.303, 613.525 476.876 C 609.879 478.973, 608.132 479.475, 606.983 478.757 C 605.830 478.037, 604.398 478.469, 601.568 480.389 C 599.452 481.826, 597.221 483.594, 596.610 484.319 C 593.194 488.378, 578.727 500.112, 574.073 502.600 C 570.983 504.251, 567.106 507.462, 565.073 510.055 C 563.108 512.560, 560.150 515.298, 558.500 516.139 C 554.854 517.997, 554.075 522.311, 556.529 527.056 L 558.176 530.240 569.838 529.737 C 581.245 529.244, 596.519 526.943, 602.500 524.816 C 604.150 524.229, 607.075 523.537, 609 523.278 C 610.925 523.019, 614.835 521.725, 617.688 520.404 C 620.542 519.082, 623.566 518, 624.410 518 C 625.253 518, 628.381 516.922, 631.362 515.604 C 634.342 514.286, 638.278 512.878, 640.107 512.476 C 643.584 511.713, 644.376 511.403, 649.831 508.669 C 651.663 507.751, 653.844 507, 654.677 507 C 655.510 507, 657.511 506.060, 659.124 504.911 C 660.738 503.763, 663.509 502.422, 665.283 501.932 C 668.734 500.980, 675.645 495.311, 674.613 494.280 C 673.884 493.550, 676.289 489.546, 679.602 485.974 C 680.890 484.585, 683.004 481.435, 684.298 478.974 C 685.593 476.513, 688.286 471.859, 690.283 468.631 C 693.951 462.701, 695.702 455.931, 694.650 451.743 C 694.224 450.042, 692.855 449.119, 689.289 448.126 C 675.205 444.203, 671.580 442.447, 668.221 437.920 C 660.508 427.523, 657.328 424.059, 654.565 423.049 C 652.951 422.458, 650.926 421.369, 650.065 420.629 C 649.204 419.888, 647.600 419.045, 646.500 418.754 C 645.400 418.464, 643.825 417.979, 643 417.676 C 642.175 417.373, 640.550 417.509, 639.388 417.979" stroke="#7f3c1a" fill="#7f3c1a" fill-opacity="0.2" fill-rule="evenodd"/><path class="svg-region-APB" d="M 587.586 404.180 C 586.451 405.801, 584.576 406.542, 580.280 407.068 C 571.809 408.104, 561.195 414.917, 556.680 422.215 C 555.536 424.063, 555 427.107, 555 431.748 C 555 437.623, 554.519 439.462, 551.527 445.033 C 545.271 456.683, 538.868 470.371, 536.341 477.500 C 529.133 497.830, 528.861 499.029, 529.188 509.077 C 529.457 517.337, 529.841 519.151, 531.982 522.272 C 535.350 527.183, 537.628 528, 547.960 528 L 556.826 528 555.760 525.176 C 554.260 521.202, 555.489 517.398, 558.748 515.929 C 560.261 515.246, 563.108 512.620, 565.073 510.094 C 567.140 507.436, 570.932 504.278, 574.073 502.600 C 578.772 500.088, 592.493 488.940, 597 483.972 C 597.825 483.062, 600.215 481.293, 602.311 480.040 C 605.201 478.312, 605.930 477.367, 605.327 476.131 C 604.889 475.234, 604.597 472.104, 604.679 469.175 C 604.832 463.645, 606.542 460.598, 610.130 459.459 C 611.156 459.133, 612.270 457.772, 612.606 456.433 C 612.942 455.095, 613.599 454, 614.066 454 C 614.533 454, 616.137 451.863, 617.629 449.250 C 619.121 446.637, 621.615 443.455, 623.171 442.178 C 625.040 440.643, 626 438.913, 626 437.077 C 626 430.349, 630.472 423, 634.566 423 C 636.097 423, 636.977 422.226, 637.411 420.500 C 637.756 419.125, 638.705 418, 639.519 418 C 641.874 418, 641.183 416.662, 637.711 414.500 C 635.945 413.400, 633.608 410.579, 632.518 408.232 C 631.089 405.155, 630.112 404.144, 629.018 404.608 C 628.183 404.962, 624.114 405.472, 619.975 405.742 C 614.212 406.116, 610.685 405.736, 604.911 404.115 C 594.885 401.302, 589.588 401.322, 587.586 404.180" stroke="#ac7444" fill="#ac7444" fill-opacity="0.2" fill-rule="evenodd"/><path class="svg-region-PC" d="M 547.683 403.530 C 546.236 405.344, 543.353 407.381, 541.276 408.057 C 539.199 408.732, 535.475 410.959, 533 413.004 C 527.875 417.240, 523.832 419.463, 519.500 420.427 C 515.871 421.235, 514.304 422.428, 510.873 427 C 509.428 428.925, 506.165 432.725, 503.622 435.444 L 498.998 440.389 501.589 443.093 C 503.793 445.394, 504.007 446.118, 503.026 447.952 C 501.224 451.318, 495.985 453.992, 491.183 453.996 C 488.124 453.999, 485.912 454.728, 483.589 456.500 C 481.786 457.875, 479.736 459, 479.034 459 C 478.099 459, 478.191 459.604, 479.378 461.250 C 480.270 462.488, 482.410 466.200, 484.134 469.500 C 485.857 472.800, 488.107 476.573, 489.133 477.885 C 490.160 479.197, 491 481.144, 491 482.212 C 491 484.354, 490.553 483.854, 510.904 504.434 C 518.826 512.445, 525.657 519, 526.083 519 C 527.846 519, 530 522.339, 530 525.071 C 530 527.986, 531.306 528.728, 533.727 527.190 C 534.630 526.616, 534.235 525.401, 532.227 522.581 C 529.811 519.189, 529.460 517.680, 529.153 509.365 C 528.793 499.629, 529.346 497.143, 535.973 478.689 C 538.863 470.643, 546.849 453.027, 548.978 450.001 C 553.514 443.557, 555 439.115, 555 432.005 C 555 422.634, 558.527 417.204, 568.112 411.817 C 570.271 410.604, 571.902 409.136, 571.736 408.555 C 571.255 406.867, 558.888 401.286, 554.407 400.736 C 550.703 400.280, 550.065 400.545, 547.683 403.530" stroke="#cda789" fill="#cda789" fill-opacity="0.2" fill-rule="evenodd"/><path class="svg-region-DB" d="M 364.128 417.219 C 362.036 421.823, 361.901 422.837, 362.980 425.821 C 363.946 428.492, 363.943 430.131, 362.969 433.611 C 361.805 437.769, 361.912 438.379, 364.867 444.382 C 366.590 447.882, 368.017 451.815, 368.038 453.123 C 368.058 454.430, 369.589 457.269, 371.439 459.431 L 374.804 463.362 390.652 463.115 L 406.500 462.869 417.500 466.544 C 427.554 469.903, 439.255 475.485, 442.283 478.368 C 442.952 479.005, 444.850 480.369, 446.500 481.399 C 451.827 484.724, 461 496.032, 461 499.273 C 461 499.848, 462.767 502.659, 464.928 505.520 C 468.059 509.668, 469.870 511.054, 473.866 512.361 C 476.621 513.263, 479.178 514, 479.547 514 C 479.917 514, 479.918 512.313, 479.550 510.250 C 479.182 508.188, 478.656 504.250, 478.380 501.500 C 477.885 496.551, 477.936 496.441, 483.439 490.750 C 486.496 487.587, 489.448 485, 489.999 485 C 491.749 485, 491.076 479.379, 489.113 477.602 C 488.075 476.663, 486.021 473.331, 484.548 470.197 C 480.620 461.838, 477.453 457.882, 473.143 455.952 C 470.956 454.974, 468.362 452.703, 467.104 450.668 C 465.891 448.706, 463.405 446.177, 461.578 445.048 C 459.751 443.919, 456.828 441.242, 455.081 439.100 C 450.990 434.080, 448.623 433.260, 436.500 432.661 C 424.572 432.071, 421.071 430.745, 413.738 424.044 C 408.884 419.608, 408.080 419.198, 406.934 420.580 C 401.629 426.972, 387.216 428.555, 378.500 423.703 C 374.852 421.673, 372.959 419.784, 371.500 416.718 C 368.707 410.851, 366.968 410.969, 364.128 417.219" stroke="#e8b1e4" fill="#e8b1e4" fill-opacity="0.2" fill-rule="evenodd"/><path class="svg-region-MB" d="M 377.582 466.819 C 376.033 470.253, 376.008 470.984, 377.329 474.069 C 380.973 482.580, 381.882 486.195, 382.967 496.500 C 384.568 511.702, 385.159 512.531, 398.050 517.649 C 403.798 519.931, 411.200 522.312, 414.500 522.940 C 417.800 523.568, 422.525 524.573, 425 525.173 C 433.802 527.308, 465.515 530.856, 476.500 530.934 C 483.549 530.984, 484.878 529.932, 482.150 526.463 C 480.655 524.563, 480 522.323, 480 519.110 L 480 514.490 474.049 512.182 C 469.247 510.320, 467.412 508.921, 464.549 504.935 C 462.597 502.218, 461 499.540, 461 498.984 C 461 495.498, 451.791 484.998, 443.678 479.235 C 435.213 473.221, 430.295 470.835, 417.667 466.618 C 407.315 463.161, 406.223 463, 393.069 463 L 379.304 463 377.582 466.819" stroke="#f9c6c6" fill="#f9c6c6" fill-opacity="0.2" fill-rule="evenodd"/><path class="svg-region-AP" d="M 543.030 608.250 C 543.047 610.038, 544.201 615.550, 545.595 620.500 C 549.543 634.519, 549.748 635.717, 550.469 648.987 C 550.843 655.855, 551.491 661.930, 551.911 662.487 C 552.330 663.044, 553.688 666.061, 554.928 669.190 C 556.774 673.847, 557.074 676.026, 556.579 681.190 C 555.402 693.478, 554.071 728.566, 554.609 733.133 C 555.114 737.416, 555.471 737.908, 559.319 739.633 C 561.608 740.660, 564.836 742.673, 566.491 744.107 C 568.146 745.541, 571.075 747.242, 573 747.888 C 574.925 748.533, 577.784 750.191, 579.354 751.572 C 581.867 753.783, 582.084 754.407, 581.165 756.792 C 580.591 758.281, 579.821 761.465, 579.454 763.866 C 579.086 766.267, 577.920 770.187, 576.863 772.576 C 575.043 776.691, 575.112 782, 576.986 782 C 578.968 782, 584.871 778.876, 587.921 776.213 C 590.660 773.821, 592.534 773.146, 597.795 772.655 C 604.001 772.075, 604.641 772.232, 612.290 776.212 C 616.691 778.501, 621.654 781.521, 623.318 782.921 C 626.183 785.332, 627.085 785.488, 640.226 785.849 C 653.998 786.227, 660.754 785.315, 665.500 782.439 C 668.605 780.557, 677.754 777.814, 683.225 777.124 C 687.614 776.571, 688.330 776.133, 689.533 773.266 C 690.659 770.582, 690.665 769.808, 689.565 768.707 C 686.650 765.793, 683.061 756.128, 682.061 748.500 C 681.484 744.100, 680.570 738.700, 680.030 736.500 C 679.490 734.300, 679.037 725.840, 679.024 717.700 C 678.995 699.663, 679.507 698.320, 687.936 694.326 C 691.216 692.771, 693.922 691.218, 693.950 690.874 C 693.977 690.529, 691.502 690.041, 688.449 689.787 C 685.178 689.516, 682.228 688.656, 681.266 687.694 C 676.607 683.035, 674.173 666, 677.532 661.559 C 678.606 660.139, 679 656.805, 679 649.146 C 679 639.190, 679.149 638.443, 682.036 633.944 C 683.774 631.235, 686.374 628.674, 688.119 627.951 L 691.165 626.689 687.968 625.344 C 686.209 624.605, 683.752 624, 682.507 624 C 681.262 624, 679.627 623.072, 678.872 621.938 C 678.117 620.804, 676.332 619.748, 674.905 619.593 C 673.477 619.437, 670.327 617.956, 667.905 616.302 C 660.455 611.217, 658.055 610.969, 613.500 610.689 C 591.632 610.551, 582.908 610.161, 581.316 609.250 C 579.974 608.482, 575.329 608, 569.276 608 C 563.741 608, 556.895 607.342, 553.661 606.500 C 550.494 605.675, 546.799 605, 545.451 605 C 543.346 605, 543.004 605.459, 543.030 608.250 M 716.036 653.382 C 716.015 655.648, 716.883 658.693, 718.123 660.699 C 719.756 663.341, 720.114 665.099, 719.675 668.317 C 719.137 672.269, 719.337 672.701, 723.303 676.133 L 727.500 679.765 727.847 688.813 C 728.109 695.639, 728.557 698, 729.672 698.428 C 730.941 698.915, 731.048 697.689, 730.430 689.747 C 729.834 682.091, 729.279 679.934, 727.204 677.208 C 725.827 675.398, 723.679 670.898, 722.433 667.208 C 721.187 663.519, 719.246 658.025, 718.119 655 L 716.072 649.500 716.036 653.382" stroke="#fc7143" fill="#fc7143" fill-opacity="0.2" fill-rule="evenodd"/><path class="svg-region-PP" d="M 531 605.503 C 521.481 607.399, 472.134 609.291, 468.178 607.912 C 465.948 607.135, 464.125 607.131, 461.780 607.899 C 459.261 608.723, 457.361 608.628, 453.591 607.486 C 445.658 605.084, 443.249 605.464, 440.875 609.487 C 438.701 613.172, 438.218 613.374, 424.285 616.445 C 416.502 618.160, 409.192 617.663, 408.307 615.358 C 408.021 614.611, 406.920 614, 405.862 614 C 404.803 614, 403.685 613.342, 403.376 612.538 C 402.894 611.283, 402.438 611.315, 400.157 612.764 C 398.696 613.694, 397.275 614.732, 397 615.073 C 396.725 615.413, 395.150 616.329, 393.500 617.108 C 391.258 618.167, 390.474 619.242, 390.398 621.362 C 390.301 624.056, 388.700 625.951, 386.493 625.985 C 385.940 625.993, 384.926 627.796, 384.241 629.991 L 382.996 633.981 390.998 642.059 C 395.399 646.502, 399 650.903, 399 651.839 C 399 653.887, 392.060 657.660, 386.750 658.498 C 384.688 658.824, 383 659.318, 383 659.595 C 383 659.872, 383.746 661.539, 384.659 663.300 C 385.571 665.060, 386.657 667.850, 387.073 669.500 C 387.488 671.150, 389.397 677, 391.314 682.500 C 393.231 688, 395.108 695.685, 395.484 699.577 C 396.293 707.947, 397.098 709.792, 398.961 707.547 C 401 705.090, 420.822 705.354, 425.790 707.905 C 430.005 710.069, 433 714.502, 433 718.576 C 433 720.097, 433.788 722.214, 434.750 723.279 C 436.038 724.705, 436.508 726.969, 436.531 731.858 C 436.549 735.511, 436.842 739.175, 437.184 740 C 437.525 740.825, 438.367 743.672, 439.054 746.326 C 439.776 749.116, 441.188 751.729, 442.401 752.519 C 446.368 755.102, 466.184 759.166, 477.565 759.730 L 488.631 760.279 488.193 756.526 C 487.952 754.462, 488.228 751.137, 488.806 749.137 C 489.384 747.136, 490.239 743.925, 490.705 742 C 491.425 739.026, 492.526 737.977, 498.026 735.021 C 503.977 731.823, 505.146 731.553, 512.500 731.674 C 519.258 731.786, 543.571 734.772, 552 736.525 L 554.500 737.046 554.823 712.773 C 555.001 699.423, 555.564 688.072, 556.073 687.550 C 557.278 686.315, 557.277 673.491, 556.072 671.236 C 551.963 663.551, 551.138 659.933, 550.127 645.149 C 549.549 636.705, 548.670 629.280, 548.173 628.649 C 547.675 628.017, 547.028 626.375, 546.734 625 C 546.440 623.625, 545.450 619.800, 544.533 616.500 C 543.617 613.200, 543.031 609.038, 543.233 607.250 C 543.576 604.196, 543.414 604.006, 540.549 604.104 C 538.872 604.161, 534.575 604.791, 531 605.503" stroke="#c4743d" fill="#c4743d" fill-opacity="0.2" fill-rule="evenodd"/><path class="svg-region-ADCl" d="M 688.141 627.700 C 686.294 628.611, 683.490 631.412, 681.910 633.928 C 679.257 638.151, 679.034 639.264, 678.984 648.500 C 678.947 655.248, 678.464 659.313, 677.500 661 C 675.192 665.038, 675.652 677.550, 678.309 682.971 C 680.946 688.351, 683.801 689.966, 690.710 689.985 C 699.448 690.010, 706.067 687.341, 712.816 681.072 C 718.442 675.846, 718.858 675.146, 719.517 669.795 C 720.112 664.963, 719.897 663.569, 718.110 660.677 C 716.445 657.985, 716 655.651, 716 649.625 C 716 642.745, 715.754 641.773, 713.525 639.835 C 712.164 638.652, 710.554 636.180, 709.948 634.342 C 709.041 631.594, 708.339 631, 705.999 631 C 704.423 631, 701.828 629.885, 700.182 628.500 C 696.735 625.599, 692.920 625.346, 688.141 627.700" stroke="#54413e" fill="#54413e" fill-opacity="0.2" fill-rule="evenodd"/><path class="svg-region-AVCl" d="M 699 688.940 C 698.175 689.393, 694.003 691.432, 689.729 693.471 C 679.235 698.479, 679 699.022, 679 718.207 C 679 726.625, 679.449 735.080, 679.999 736.996 C 680.548 738.911, 681.445 744.048, 681.992 748.410 C 682.539 752.772, 683.890 758.206, 684.993 760.486 C 686.097 762.766, 687 765.086, 687 765.641 C 687 766.197, 688.042 767.630, 689.314 768.826 C 692.021 771.368, 699.352 771.824, 702.527 769.648 C 703.612 768.904, 708.216 768.018, 712.758 767.678 C 717.301 767.339, 721.884 766.598, 722.943 766.031 C 724.002 765.464, 727.036 764.997, 729.684 764.994 C 732.333 764.990, 735.789 764.315, 737.364 763.494 C 738.940 762.672, 741.951 762, 744.055 762 C 746.160 762, 748.160 761.550, 748.500 761 C 748.840 760.450, 750.104 759.993, 751.309 759.985 C 753.701 759.969, 760.551 757.783, 761.648 756.685 C 762.025 756.308, 763.638 756, 765.232 756 C 768.857 756, 772 754.376, 772 752.503 C 772 751.680, 770.267 750.610, 767.897 749.972 C 765.641 749.365, 762.828 747.730, 761.647 746.339 C 760.466 744.948, 756.079 740.365, 751.898 736.155 C 742.817 727.010, 739.575 721.604, 736.964 711.254 C 734.725 702.376, 731.726 698.811, 724.966 696.991 C 720.674 695.835, 713.899 692.399, 712.948 690.896 C 712.645 690.416, 709.996 689.568, 707.062 689.012 C 700.927 687.848, 700.990 687.849, 699 688.940" stroke="#ffbab9" fill="#ffbab9" fill-opacity="0.2" fill-rule="evenodd"/><path class="svg-region-DMl" d="M 398.655 707.829 C 397.416 709.198, 397 711.597, 397 717.369 C 397 725.303, 398.443 729.622, 403.277 736.161 C 404.970 738.450, 405.184 739.778, 404.626 744.525 L 403.963 750.167 406.731 749.612 C 415.488 747.855, 418.803 748.054, 423.660 750.627 C 426.322 752.038, 430.618 754.709, 433.207 756.563 C 437.800 759.853, 437.999 759.899, 441.457 758.454 C 445.651 756.701, 445.816 755.842, 442.545 752.790 C 439.411 749.867, 436.744 740.462, 436.606 731.855 C 436.529 727.042, 436.018 724.677, 434.750 723.277 C 433.788 722.213, 432.998 720.028, 432.996 718.421 C 432.991 714.285, 429.835 709.624, 425.717 707.670 C 423.096 706.426, 419.405 706, 411.254 706 C 401.922 706, 400.066 706.269, 398.655 707.829" stroke="#68533d" fill="#68533d" fill-opacity="0.2" fill-rule="evenodd"/><path class="svg-region-VMl" d="M 504.500 732.040 C 502.850 732.573, 499.260 734.244, 496.522 735.754 C 491.804 738.357, 491.453 738.840, 489.809 745 C 487.336 754.261, 487.471 759.154, 490.270 761.784 C 491.519 762.957, 496.581 765.783, 501.520 768.064 C 507.552 770.850, 512.881 774.297, 517.753 778.561 C 522.849 783.023, 526.120 785.105, 528.753 785.566 C 530.814 785.927, 536.213 787.510, 540.751 789.083 C 545.289 790.657, 551.964 792.248, 555.584 792.619 C 560.415 793.114, 562.474 793.786, 563.324 795.147 C 565.762 799.050, 568.495 797.294, 573.430 788.653 C 575.378 785.242, 576.062 782.878, 575.739 780.676 C 575.471 778.849, 576.261 774.738, 577.640 770.792 C 578.938 767.077, 580 762.925, 580 761.566 C 580 760.206, 580.529 757.934, 581.175 756.516 C 582.247 754.163, 582.050 753.686, 578.925 751.057 C 577.041 749.473, 574.166 747.904, 572.536 747.570 C 570.906 747.237, 568.431 745.880, 567.036 744.554 C 561.587 739.375, 554.333 736.817, 538.305 734.424 C 519.061 731.551, 508.351 730.796, 504.500 732.040" stroke="#e59376" fill="#e59376" fill-opacity="0.2" fill-rule="evenodd"/><path class="svg-region-PMl" d="M 258 721.070 C 256.625 721.541, 254.282 722.172, 252.792 722.472 C 251.303 722.771, 248.977 724.026, 247.623 725.258 C 246.268 726.491, 244.224 728.283, 243.080 729.240 C 241.741 730.361, 241 732.162, 241 734.299 C 241 740.214, 245.008 743.273, 253.903 744.151 C 257.532 744.508, 262.300 745.089, 264.500 745.440 C 270.196 746.349, 272.777 744.553, 275.653 737.678 C 278.287 731.383, 278.099 729.119, 274.672 725.879 C 269.421 720.915, 263.465 719.197, 258 721.070" stroke="#90cf92" fill="#90cf92" fill-opacity="0.2" fill-rule="evenodd"/><path class="svg-region-PV" d="M 291.475 590.876 C 287.611 591.827, 283.888 592.951, 283.201 593.376 C 282.515 593.800, 279.826 594.380, 277.227 594.666 C 274.627 594.951, 271.150 595.747, 269.500 596.435 C 267.850 597.122, 265.066 597.725, 263.313 597.774 C 258.758 597.901, 256.282 599.527, 254.083 603.836 C 251.861 608.193, 247.299 610.944, 246.359 608.494 C 246.044 607.672, 245.238 607, 244.567 607 C 242.676 607, 239 611.397, 239 613.659 C 239 616.522, 235.884 619, 232.285 619 C 229.744 619, 228.932 619.623, 227.476 622.691 C 226.513 624.721, 225.421 627.518, 225.050 628.907 C 224.635 630.457, 222.856 632.231, 220.437 633.505 C 216.926 635.355, 216.529 635.940, 216.771 638.919 C 216.961 641.257, 216.137 643.670, 214.021 646.967 C 209.921 653.357, 209.809 659.106, 213.750 660.947 C 215.262 661.654, 217.175 662.560, 218 662.962 C 218.825 663.363, 220.026 665.224, 220.668 667.096 C 221.931 670.778, 223.418 670.995, 226.289 667.918 C 229.368 664.617, 234.122 666.045, 237.768 671.367 C 240.405 675.215, 240.692 681.099, 238.500 686.346 C 236.440 691.276, 236.621 696.330, 238.996 700.226 C 241.612 704.517, 241.519 706.229, 238.473 709.850 C 235.194 713.746, 231.575 714.457, 224.359 712.620 C 221.136 711.800, 217.262 711.377, 215.750 711.681 C 213.333 712.166, 213 712.690, 213 716.011 C 213 718.089, 213.861 722.649, 214.913 726.145 C 215.966 729.640, 217.126 733.960, 217.491 735.744 C 217.857 737.528, 218.730 739.328, 219.432 739.744 C 223.408 742.100, 223.758 750.579, 219.904 751.189 C 218.065 751.480, 218.042 751.643, 219.540 753.768 C 221.389 756.391, 228.110 759.954, 236 762.494 C 239.025 763.468, 241.989 764.649, 242.586 765.119 C 243.184 765.589, 245.525 766.627, 247.788 767.425 L 251.904 768.877 249.848 764.932 C 247.417 760.269, 247.870 758.524, 252.109 756.213 C 256.500 753.820, 260.848 750.153, 262.126 747.765 C 263.603 745.005, 261.841 744.035, 255.315 744.015 C 246.223 743.988, 241 740.573, 241 734.654 C 241 731.965, 241.878 730.509, 245.470 727.240 C 247.928 725.003, 251.415 722.872, 253.220 722.504 C 255.024 722.137, 257.923 721.347, 259.663 720.749 C 264.981 718.920, 274.809 723.736, 276.881 729.186 C 277.723 731.402, 277.162 734.059, 274.558 740.173 C 273.732 742.111, 275.814 744.338, 281.748 747.865 C 286.993 750.982, 290.312 758.447, 289.402 765.081 C 288.676 770.383, 289.846 771.802, 295.661 772.670 C 299.956 773.311, 302 775.253, 302 778.691 C 302 781.701, 302.575 781.629, 310.670 777.608 C 314.427 775.742, 319.643 773.950, 322.262 773.625 C 324.881 773.301, 328.931 772.099, 331.262 770.955 C 340.007 766.665, 353.472 762.250, 360.288 761.439 C 363.155 761.098, 366.850 760.231, 368.500 759.513 C 370.150 758.795, 373.410 757.896, 375.745 757.516 C 378.079 757.137, 380.225 756.445, 380.512 755.980 C 380.800 755.515, 383.615 754.636, 386.767 754.027 C 395.791 752.284, 403.793 748.891, 404.424 746.542 C 405.683 741.857, 404.496 735.754, 401.985 734 C 401.591 733.725, 400.308 731.605, 399.134 729.290 C 397.539 726.143, 396.998 723.239, 396.992 717.790 C 396.978 706.029, 394.388 690.273, 390.943 681 C 389.206 676.325, 387.366 670.745, 386.854 668.600 C 385.766 664.046, 382.443 659, 380.531 659 C 379.021 659, 375.385 653.282, 373.474 647.902 C 371.750 643.048, 373.677 639.138, 380.049 634.560 L 384.854 631.108 384.293 623.696 C 383.915 618.692, 384.101 616.055, 384.866 615.583 C 385.490 615.197, 386 613.984, 386 612.886 C 386 610.265, 395.602 605.734, 400.205 606.184 C 402.643 606.422, 403.528 606.069, 403.794 604.750 C 404.098 603.243, 403.336 603, 398.296 603 C 394.399 603, 391.631 602.430, 390.008 601.293 C 388.668 600.355, 385.305 599.209, 382.536 598.748 C 379.766 598.286, 374.800 597.463, 371.500 596.917 C 368.200 596.372, 358.300 595.672, 349.500 595.362 C 340.700 595.052, 332.950 594.349, 332.278 593.800 C 331.606 593.251, 329.365 592.421, 327.298 591.954 C 324.438 591.309, 323.140 591.468, 321.870 592.618 C 319.584 594.687, 313.372 593.529, 312.686 590.906 C 312.254 589.256, 311.268 589.010, 305.344 589.074 C 301.580 589.114, 295.339 589.925, 291.475 590.876" stroke="#b09658" fill="#b09658" fill-opacity="0.2" fill-rule="evenodd"/><path class="svg-region-DV" d="M 203.258 660.047 C 199.545 663.845, 195 672.681, 195 676.101 C 195 681.189, 197.890 697.576, 199.429 701.219 C 200.439 703.608, 201.490 704.749, 202.371 704.411 C 203.178 704.101, 205.098 705.598, 207.042 708.053 C 210.209 712.051, 210.527 712.201, 214.840 711.715 C 217.422 711.424, 221.458 711.838, 224.318 712.687 C 230.470 714.514, 234.963 713.764, 238.388 710.339 C 241.516 707.212, 241.672 704.614, 238.996 700.226 C 236.619 696.328, 236.446 691.571, 238.500 686.654 C 240.631 681.554, 240.393 675.372, 237.911 671.355 C 234.247 665.428, 229.971 664.444, 225.577 668.516 C 222.544 671.327, 221 671.016, 221 667.596 C 221 665.148, 218.196 662, 216.016 662 C 215.286 662, 213.214 660.875, 211.411 659.500 C 207.260 656.334, 206.863 656.360, 203.258 660.047" stroke="#45567a" fill="#45567a" fill-opacity="0.2" fill-rule="evenodd"/><path class="svg-region-VV" d="M 273 742.839 C 273 744.024, 268.355 746, 265.572 746 C 264.066 746, 262.261 747.280, 260.487 749.606 C 258.974 751.589, 256.324 753.802, 254.598 754.524 C 247.510 757.485, 246.825 760.590, 251.593 768.146 C 253.894 771.792, 264.780 779.340, 272.218 782.447 C 277.520 784.662, 296.125 784.619, 299.535 782.385 C 303.748 779.624, 302.116 773.012, 297.215 772.985 C 295.722 772.977, 293.375 772.398, 292 771.698 C 289.774 770.565, 289.490 769.772, 289.408 764.463 C 289.256 754.583, 285.822 748.624, 278.523 745.574 C 276.585 744.764, 275 743.629, 275 743.051 C 275 742.473, 274.550 742, 274 742 C 273.450 742, 273 742.378, 273 742.839" stroke="#7699d1" fill="#7699d1" fill-opacity="0.2" fill-rule="evenodd"/><path class="svg-region-B" d="M 808.657 499.648 C 806.543 500.397, 801.593 502.396, 797.657 504.090 C 777.406 512.808, 770.183 517.801, 766.021 525.959 C 764.887 528.181, 763.580 530, 763.117 530 C 762.114 530, 756.653 541.026, 755.192 546 C 754.626 547.925, 753.222 552.425, 752.072 556 C 750.921 559.575, 749.984 563.120, 749.990 563.879 C 749.995 564.637, 748.425 567.001, 746.500 569.132 C 744.575 571.262, 743 574.060, 743 575.348 C 743 576.636, 742.100 578.505, 741 579.500 C 739.900 580.495, 739 582.063, 739 582.983 C 739 583.903, 737.855 587.474, 736.455 590.919 C 734.089 596.740, 732.087 600.392, 726.642 608.813 C 724.271 612.480, 712.391 620, 708.969 620 C 707.271 620, 706.953 620.389, 707.536 621.750 C 707.949 622.712, 708.614 626.008, 709.013 629.073 C 709.824 635.292, 710.836 637.637, 713.907 640.416 C 715.318 641.693, 716 643.525, 716 646.040 C 716 649.757, 721.353 665.893, 725.109 673.500 C 727.525 678.393, 729.385 680.579, 734.587 684.640 C 738.264 687.510, 738.819 687.664, 741.054 686.425 C 744.750 684.379, 745.844 684.696, 747.349 688.250 C 749.593 693.553, 754.571 697.137, 770.588 704.983 C 776.152 707.708, 781.543 709.439, 787.865 710.530 C 803.943 713.305, 809.918 714.775, 811.485 716.342 C 812.325 717.182, 813.909 718.154, 815.006 718.502 C 818.080 719.478, 817.549 722.804, 814.259 723.184 C 812.557 723.380, 811.386 724.192, 811.171 725.324 C 810.703 727.791, 813.679 730.897, 815.944 730.304 C 816.951 730.041, 818.077 730.315, 818.446 730.913 C 818.816 731.511, 820.007 732, 821.094 732 C 822.181 732, 824.271 732.788, 825.738 733.750 C 827.228 734.727, 831.517 735.809, 835.453 736.200 C 839.329 736.585, 845.325 737.202, 848.778 737.572 C 856.733 738.424, 863.749 736.644, 865.228 733.399 C 866.712 730.142, 868.472 729.787, 874.061 731.615 C 881.915 734.184, 886.493 732.336, 887.600 726.150 C 887.959 724.142, 888.823 721.825, 889.519 721 C 890.215 720.175, 891.095 717.174, 891.475 714.330 C 891.893 711.200, 892.922 708.476, 894.083 707.425 C 895.137 706.471, 896 705.030, 896 704.223 C 896 703.118, 896.328 703.027, 897.324 703.854 C 898.863 705.131, 901 703.548, 901 701.129 C 901 700.320, 901.788 698.789, 902.750 697.728 C 904.202 696.127, 904.594 693.134, 905.053 680.149 C 905.357 671.542, 905.941 663.783, 906.350 662.906 C 906.855 661.825, 906.113 660.262, 904.047 658.050 C 900.540 654.296, 900.164 651.067, 902.941 648.554 C 904.557 647.091, 904.785 645.936, 904.303 641.649 C 903.455 634.108, 902.633 633.017, 897.715 632.900 C 891.263 632.748, 889.361 631.840, 886.440 627.521 C 883.240 622.788, 881.537 618.205, 880.581 611.750 C 880.097 608.480, 879.405 607, 878.361 607 C 875.934 607, 865.049 596.758, 865.023 594.450 C 865.010 593.323, 864.441 591.841, 863.759 591.159 C 862.918 590.318, 862.561 586.741, 862.653 580.074 L 862.789 570.230 857.446 569.787 C 850.924 569.246, 845.304 565.665, 842.137 560.030 L 839.922 556.088 842.552 550.898 C 845.205 545.662, 845.290 544.185, 843.449 535.292 C 842.959 532.925, 843.338 531.190, 844.893 528.674 C 846.052 526.798, 847 524.512, 847 523.592 C 847 522.673, 847.900 520.156, 849 518 C 851.657 512.791, 851.556 512.268, 847.750 511.521 C 845.962 511.170, 843.549 510.416, 842.386 509.846 C 839.972 508.661, 834 511.119, 834 513.298 C 834 513.984, 832.425 515.393, 830.500 516.430 C 828.575 517.467, 827 518.694, 827 519.157 C 827 519.621, 825.875 520, 824.500 520 C 821.182 520, 821.327 518.122, 825 513.500 C 827.284 510.626, 828 508.698, 828 505.422 C 828 503.055, 828.450 500.840, 829 500.500 C 831.622 498.879, 829.260 498.189, 821.250 498.236 C 816.438 498.264, 810.771 498.899, 808.657 499.648" stroke="#e23b33" fill="#e23b33" fill-opacity="0.2" fill-rule="evenodd"/><path class="svg-region-SB" d="M 864.969 167.443 C 858.311 169.486, 848.471 173.995, 841 178.424 C 839.625 179.240, 836.475 180.804, 834 181.901 C 822.919 186.811, 803.017 199.800, 799.491 204.422 C 794.266 211.273, 792.600 220.419, 795.001 229.063 C 796.349 233.915, 803.226 242.905, 808.088 246.170 C 812.846 249.366, 820.885 251.281, 825.889 250.410 C 827.875 250.065, 832.650 248.096, 836.500 246.034 C 842.343 242.906, 844.824 242.188, 851.510 241.693 L 859.521 241.100 861.477 244.300 C 863.431 247.496, 865.701 254.006, 866.709 259.306 C 867.083 261.267, 866.639 262.772, 865.237 264.306 C 861.005 268.932, 861.659 274.741, 866.741 277.676 C 869.905 279.503, 874.994 286.857, 875.013 289.630 C 875.039 293.631, 884.509 307.656, 888.579 309.721 C 891.716 311.313, 915.842 311.195, 926.142 309.537 C 941.899 307, 961.450 295.912, 969.569 284.906 C 975.995 276.196, 979.200 254.509, 975.403 245.423 C 967.304 226.038, 961.016 216.387, 947.762 203 C 940.719 195.886, 928.943 185.254, 924.214 181.741 C 918.191 177.266, 902.158 169.929, 895.072 168.404 C 891.457 167.626, 886.700 166.553, 884.500 166.019 C 878.385 164.534, 873.221 164.911, 864.969 167.443" stroke="#d2e400" fill="#d2e400" fill-opacity="0.2" fill-rule="evenodd"/><path class="svg-region-VOC" d="M 486.452 487.812 C 485.538 489.359, 483.474 491.496, 481.865 492.562 C 478.386 494.867, 477.551 497.494, 478.468 503.240 C 478.842 505.583, 479.370 511.383, 479.642 516.128 C 480.094 524.021, 480.382 524.991, 483.021 527.520 L 485.905 530.284 506.298 530.392 C 528.926 530.512, 530 530.243, 530 524.459 C 530 521.807, 529.353 520.763, 526.692 519.119 C 523.849 517.361, 502.065 495.987, 494.722 487.750 C 491.559 484.202, 488.571 484.224, 486.452 487.812" stroke="#ff8f93" fill="#ff8f93" fill-opacity="0.2" fill-rule="evenodd"/><path class="svg-region-OABl" d="M 630.226 425.253 C 627.773 427.871, 626 432.871, 626 437.171 C 626 438.913, 624.999 440.670, 623.147 442.178 C 621.578 443.455, 619.245 446.413, 617.963 448.750 C 616.681 451.087, 615.241 453, 614.764 453 C 614.287 453, 613.432 454.332, 612.864 455.959 C 612.297 457.587, 611.030 459.173, 610.048 459.485 C 606.924 460.476, 605.152 463.366, 604.516 468.505 C 604.017 472.534, 604.295 474.134, 605.953 476.781 L 608.008 480.062 613.754 477.033 C 616.914 475.367, 620.125 474.003, 620.890 474.002 C 623.100 473.999, 624.934 470.806, 624.968 466.903 C 624.997 463.700, 625.870 462.512, 632.938 456.057 C 640.009 449.599, 640.993 448.260, 641.953 443.783 C 643.212 437.914, 642.301 426.495, 640.452 424.960 C 639.752 424.379, 637.676 423.661, 635.839 423.364 C 633.177 422.935, 632.039 423.318, 630.226 425.253" stroke="#81244d" fill="#81244d" fill-opacity="0.2" fill-rule="evenodd"/><path class="svg-region-SOTl" d="M 469.220 433.720 C 465.436 435.648, 464.565 438.125, 465.232 445.064 C 465.806 451.042, 467.733 453.404, 474.751 456.740 L 480.003 459.235 483.435 456.618 C 485.908 454.731, 488.072 453.999, 491.183 453.996 C 495.999 453.992, 501.225 451.316, 503.040 447.926 C 504.053 446.033, 503.809 445.348, 501.196 442.734 C 498.607 440.146, 497.192 439.632, 491.120 439.075 C 485.316 438.543, 483.554 437.947, 481.242 435.732 C 477.644 432.284, 473.425 431.579, 469.220 433.720" stroke="#995b45" fill="#995b45" fill-opacity="0.2" fill-rule="evenodd"/><path class="svg-region-BPCl" d="M 717.633 675.733 C 716.216 678.465, 706.544 687, 704.865 687 C 704.389 687, 704 687.391, 704 687.868 C 704 688.346, 705.865 688.987, 708.144 689.293 C 710.423 689.598, 712.561 690.280, 712.894 690.808 C 713.833 692.296, 720.394 695.739, 724.395 696.843 L 728 697.839 728 689.496 C 728 681.964, 727.747 680.852, 725.392 678.054 C 721.165 673.030, 719.322 672.479, 717.633 675.733 M 730.331 690.354 C 730.755 697.023, 731.360 699.441, 733.329 702.343 C 734.685 704.342, 736.309 708.345, 736.937 711.239 C 738.889 720.238, 744.610 729.893, 751.191 735.296 C 754.404 737.934, 758.147 741.857, 759.509 744.014 C 761.444 747.079, 763.022 748.241, 766.742 749.339 C 770.542 750.461, 771.484 751.173, 771.421 752.872 C 771.342 754.986, 771.498 755, 795.514 755 C 817.397 755, 820.246 755.196, 825.593 757.071 C 830.700 758.862, 833.329 759.095, 845 758.791 C 857.710 758.460, 858.822 758.266, 864 755.485 C 867.408 753.654, 873.773 748.233, 880.735 741.232 C 890.206 731.707, 892.522 728.739, 895.485 722.326 C 897.418 718.142, 898.986 713.994, 898.969 713.109 C 898.932 711.228, 894.398 707.636, 893.085 708.448 C 892.591 708.753, 891.872 711.364, 891.486 714.251 C 891.100 717.138, 890.215 720.175, 889.519 721 C 888.823 721.825, 887.947 724.206, 887.574 726.291 C 887.037 729.282, 886.197 730.415, 883.596 731.656 C 880.589 733.089, 879.807 733.086, 874.745 731.614 C 867.482 729.503, 867.400 729.514, 865.390 732.917 C 863.098 736.796, 857.136 738.467, 848.778 737.572 C 845.325 737.202, 839.329 736.585, 835.453 736.200 C 831.517 735.809, 827.228 734.727, 825.738 733.750 C 824.271 732.788, 822.155 732, 821.035 732 C 819.916 732, 819 731.498, 819 730.883 C 819 730.235, 817.963 729.965, 816.525 730.240 C 814.946 730.542, 813.466 730.068, 812.437 728.931 C 810.101 726.350, 810.985 723.561, 814.259 723.184 C 818.163 722.733, 817.735 719.992, 813.312 717.125 C 809.621 714.734, 804.498 713.400, 788.166 710.582 C 778.123 708.849, 772.586 706.723, 762.500 700.730 C 752.674 694.891, 748.270 691.213, 747.107 687.877 C 746.100 684.990, 742.806 683.887, 741.500 686 C 740.457 687.687, 737.932 687.120, 734.818 684.500 C 730.162 680.583, 729.744 681.128, 730.331 690.354" stroke="#83385f" fill="#83385f" fill-opacity="0.2" fill-rule="evenodd"/><path class="svg-region-AMC" d="M 469.405 762.115 C 468.357 763.278, 466.488 764.617, 465.250 765.090 C 460.977 766.724, 463.666 771, 468.966 771 C 475.335 771, 490.270 778.394, 491.528 782.169 C 491.860 783.166, 493.655 784.104, 495.984 784.497 C 498.130 784.860, 500.377 785.749, 500.978 786.474 C 501.579 787.198, 503.679 788.092, 505.644 788.461 C 509.943 789.267, 517.419 792.747, 520.771 795.500 C 524.169 798.291, 531 805.365, 531 806.092 C 531 806.423, 531.939 807.775, 533.088 809.097 C 534.236 810.419, 536.535 813.596, 538.197 816.158 L 541.218 820.816 548.359 820.882 C 552.287 820.918, 555.992 820.622, 556.593 820.224 C 558.169 819.180, 565 809.216, 565 807.962 C 565 807.380, 565.900 805.041, 567 802.764 C 569.414 797.768, 569.555 795.850, 567.449 796.658 C 566.589 796.988, 564.919 796.361, 563.699 795.250 C 562.231 793.913, 559.369 793.017, 555.094 792.556 C 551.571 792.176, 545.882 790.809, 542.452 789.518 C 539.023 788.227, 533.429 786.457, 530.021 785.584 C 525.002 784.298, 522.561 782.879, 517.163 778.107 C 512.784 774.236, 507.234 770.678, 500.970 767.726 C 495.728 765.256, 490.836 762.507, 490.097 761.617 C 489.049 760.354, 486.847 760, 480.033 760 C 472.419 760, 471.068 760.269, 469.405 762.115" stroke="#9d4741" fill="#9d4741" fill-opacity="0.2" fill-rule="evenodd"/>
    </svg>