<svg xmlns="http://www.w3.org/2000/svg" width="1078" height="1151" viewBox="0 0 1078 1151" version="1.1">
    <path class="svg-region-V" d="M 473.817 198.835 C 473.265 200.120, 461.630 204.718, 456.974 205.492 C 454.321 205.932, 450.520 207.681, 447.635 209.787 C 443.014 213.161, 430 227.412, 430 229.098 C 430 229.534, 425.494 235.167, 419.986 241.615 C 410.651 252.544, 402.251 265.553, 394.610 280.916 C 393.128 283.895, 390.688 287.730, 389.187 289.440 C 387.686 291.149, 384.485 296.362, 382.073 301.024 C 379.662 305.686, 375.171 312.241, 372.094 315.592 C 369.017 318.943, 365.399 323.893, 364.053 326.592 C 362.707 329.291, 360.861 332.625, 359.951 334 C 356.324 339.480, 353.794 349.361, 353.272 360.081 C 352.812 369.542, 352.993 371.183, 354.987 375.581 C 356.214 378.287, 357.564 383.200, 357.987 386.500 C 358.409 389.800, 359.249 393.850, 359.851 395.500 C 360.454 397.150, 361.675 401.200, 362.564 404.500 C 365.461 415.253, 366.927 418.471, 371.992 425.198 L 376.983 431.827 387.741 431.891 C 397.322 431.948, 399.077 431.675, 403.770 429.394 C 406.668 427.986, 410.407 425.132, 412.078 423.053 C 413.749 420.973, 417.612 417.973, 420.663 416.386 C 429.688 411.690, 435.931 402.857, 435.978 394.718 C 436.012 388.786, 438.279 384.739, 445.414 377.869 C 455.998 367.679, 462.784 362.274, 474.102 355.023 C 483.133 349.237, 484.798 347.759, 485.339 345.054 C 486.080 341.351, 491.256 333.263, 497.225 326.482 C 501.634 321.473, 511.435 316.002, 516 316.001 C 517.375 316.001, 522.325 314.935, 527 313.632 C 531.675 312.329, 538.110 310.773, 541.299 310.174 C 547.681 308.976, 556.060 304.340, 563.190 298.064 C 566.440 295.203, 569.153 291.251, 572.592 284.367 C 575.251 279.046, 579.393 272.174, 581.797 269.096 C 587.026 262.400, 588.724 259.293, 590.595 252.992 C 591.371 250.378, 592.680 247.681, 593.503 246.997 C 596.048 244.885, 595.220 241.209, 591.250 236.989 C 589.188 234.797, 587.008 233.003, 586.407 233.002 C 585.009 233, 577.824 224.501, 575.630 220.255 C 574.542 218.148, 572.139 216.091, 568.776 214.386 C 565.928 212.943, 562.396 210.874, 560.928 209.788 C 557.509 207.261, 546.602 204.160, 537 202.986 C 532.875 202.481, 527.475 201.282, 525 200.320 C 521.255 198.865, 516.609 198.532, 497.317 198.335 C 484.566 198.204, 473.991 198.430, 473.817 198.835" stroke="#dd8a8a" fill="#dd8a8a" fill-opacity="0.2" fill-rule="evenodd"/><path class="svg-region-SV" d="M 550.287 307.110 C 548.520 308.231, 543.570 309.781, 539.287 310.554 C 535.004 311.326, 528.647 312.868, 525.161 313.979 C 521.674 315.091, 517.524 316, 515.938 316 C 511.138 316, 502.297 320.876, 497.575 326.127 C 491.902 332.437, 486.591 340.539, 485.087 345.175 C 484.065 348.324, 482.361 349.821, 473.197 355.622 C 461.501 363.026, 455.718 367.700, 444.491 378.821 C 437.900 385.351, 437.037 386.647, 436.502 390.821 C 435.006 402.508, 431.402 409.560, 424.692 413.930 C 422.640 415.267, 421.340 416.740, 421.804 417.204 C 422.268 417.668, 425.159 418.456, 428.229 418.956 C 431.298 419.455, 434.640 420.338, 435.655 420.917 C 436.670 421.496, 441.519 423.596, 446.431 425.583 C 451.343 427.571, 456.976 430.494, 458.949 432.079 C 461.587 434.199, 475.221 440, 477.567 440 C 477.686 440, 478.040 438.979, 478.353 437.730 C 480.233 430.239, 487.956 428.852, 496.980 434.383 C 500.016 436.244, 504.013 438.091, 505.861 438.487 C 509.165 439.195, 509.211 439.279, 508.569 443.354 L 507.916 447.500 516.208 439.416 C 525.745 430.119, 544.213 416.335, 551.296 413.227 C 552.834 412.553, 554.859 410.557, 555.796 408.792 C 556.733 407.028, 558.776 404.254, 560.336 402.629 C 563.382 399.456, 563.440 399.976, 559.201 392.500 C 557.731 389.908, 557.500 386.264, 557.500 365.714 C 557.500 346.432, 557.764 341.764, 558.897 341.064 C 560.050 340.351, 559.804 339.009, 557.484 333.350 C 555.244 327.888, 554.556 324.330, 554.087 315.785 L 553.500 305.071 550.287 307.110 M 491 447 C 490.411 448.100, 489.186 449, 488.278 449 C 487.013 449, 487.300 449.704, 489.500 452 C 491.081 453.650, 493.377 455, 494.604 455 C 495.830 455, 497.038 455.563, 497.289 456.250 C 497.584 457.059, 499.027 456.282, 501.381 454.045 C 504.550 451.035, 504.803 450.469, 503.348 449.655 C 502.253 449.042, 501.021 449.130, 499.771 449.911 C 498.099 450.955, 497.723 450.727, 496.713 448.051 C 495.385 444.531, 492.596 444.018, 491 447" stroke="#c666b5" fill="#c666b5" fill-opacity="0.2" fill-rule="evenodd"/><path class="svg-region-SF" d="M 595 242.540 C 595 243.938, 594.107 246.300, 593.015 247.790 C 591.923 249.281, 590.401 252.606, 589.634 255.179 C 588.866 257.753, 585.564 263.603, 582.295 268.179 C 579.027 272.756, 575.326 278.733, 574.072 281.461 C 569.971 290.381, 565.227 296.764, 559.462 301.116 L 553.797 305.394 554.217 316.447 C 554.567 325.652, 555.072 328.450, 557.234 333.182 C 558.662 336.308, 560.369 341.483, 561.027 344.682 C 562.505 351.864, 562.995 352.802, 568.544 359.049 C 570.995 361.809, 573 364.447, 573 364.912 C 573 365.377, 574.237 366.272, 575.750 366.902 C 577.263 367.531, 581.293 370.848, 584.706 374.273 C 590.989 380.576, 592.816 381.765, 603.371 386.414 C 608.818 388.813, 610.308 389, 623.996 389 C 644.297 389, 644.435 388.961, 645.848 382.838 C 647.193 377.011, 651.153 370.837, 658.910 362.472 C 661.984 359.156, 666.904 353.472, 669.841 349.839 C 672.779 346.207, 677.167 341.748, 679.591 339.932 C 684.508 336.248, 684.805 335.322, 682.175 331.885 C 681.172 330.573, 679.284 325.450, 677.980 320.500 C 676.677 315.550, 674.524 308.575, 673.196 305 C 671.869 301.425, 670.141 295.582, 669.358 292.017 C 668.574 288.451, 666.865 283.276, 665.559 280.517 C 660.611 270.063, 637.476 249.992, 628 247.932 C 626.075 247.514, 618.212 245.558, 610.526 243.586 C 602.841 241.614, 596.203 240, 595.776 240 C 595.349 240, 595 241.143, 595 242.540" stroke="#8c6b55" fill="#8c6b55" fill-opacity="0.2" fill-rule="evenodd"/><path class="svg-region-IF" d="M 683.651 334.772 C 683.970 335.992, 682.749 337.566, 679.723 339.833 C 677.309 341.642, 672.671 346.333, 669.417 350.258 C 666.162 354.182, 661.231 359.892, 658.458 362.947 C 648.124 374.329, 645.126 379.856, 645.044 387.674 C 645.007 391.194, 645.483 392.212, 648.086 394.174 C 649.783 395.453, 653.495 398.565, 656.336 401.089 C 659.176 403.614, 664.650 407.833, 668.500 410.466 C 672.350 413.098, 676.400 416.066, 677.500 417.060 C 679.964 419.287, 689.893 423.977, 692.172 423.990 C 694.323 424.003, 700.305 430.990, 702.912 436.535 C 705.240 441.489, 706.284 442.362, 708.890 441.535 C 711.147 440.818, 719.282 429.266, 718.463 427.940 C 717.548 426.459, 720.891 421.599, 724.086 419.765 C 725.689 418.845, 727 417.476, 727 416.721 C 727 415.966, 728.075 414.339, 729.388 413.105 C 730.814 411.766, 731.585 410.128, 731.301 409.044 C 731.040 408.044, 731.315 406.923, 731.913 406.554 C 732.528 406.173, 733 402.841, 733 398.871 C 733 392.709, 732.635 391.330, 729.985 387.478 C 728.327 385.068, 726.066 381.162, 724.960 378.798 C 723.854 376.434, 722.332 373.375, 721.577 372 C 720.822 370.625, 719.473 367.925, 718.579 366 C 715.722 359.845, 712.082 355.694, 704.795 350.281 C 700.885 347.376, 697.283 345, 696.790 345 C 696.298 345, 693.395 342.300, 690.340 339 C 684.614 332.815, 682.847 331.698, 683.651 334.772" stroke="#f2823b" fill="#f2823b" fill-opacity="0.2" fill-rule="evenodd"/><path class="svg-region-PF" d="M 557.484 344.250 C 557.150 346.038, 557.018 356.950, 557.189 368.500 C 557.449 386.079, 557.778 389.989, 559.209 392.500 C 560.149 394.150, 562.143 398.067, 563.641 401.204 C 567.449 409.183, 569.105 409.709, 582.376 407.161 C 594.507 404.832, 597.655 403.062, 604.407 394.774 L 609.054 389.068 605.277 387.162 C 603.200 386.114, 600.445 384.930, 599.156 384.531 C 596.318 383.653, 589.115 378.837, 586.878 376.323 C 585.986 375.320, 583.130 372.700, 580.532 370.500 C 567.862 359.774, 562.637 352.836, 561.399 345.092 C 560.608 340.147, 558.341 339.659, 557.484 344.250" stroke="#faaaaa" fill="#faaaaa" fill-opacity="0.2" fill-rule="evenodd"/><path class="svg-region-AAB" d="M 656.753 407.445 C 651.847 410.005, 651.778 410.097, 653.432 411.925 C 654.754 413.386, 654.845 414.833, 654.025 421.302 C 652.908 430.116, 649.769 436.023, 644.578 439.087 C 640.291 441.616, 631.513 451.741, 630.675 455.124 C 630.318 456.567, 629.178 458.794, 628.142 460.074 C 625.780 462.990, 620.027 463.239, 617.059 460.553 C 615.060 458.744, 614.974 458.766, 612.813 461.603 C 611.599 463.197, 608.377 466.750, 605.652 469.500 C 602.928 472.250, 598.787 477.425, 596.450 481 C 594.114 484.575, 590.324 488.850, 588.028 490.500 C 585.732 492.150, 580.961 495.915, 577.426 498.867 C 571.960 503.432, 571 504.717, 571 507.462 C 571 511.941, 573.504 513.859, 579.512 513.980 C 589.139 514.174, 609.066 511.875, 614.757 509.913 C 621.818 507.480, 633.048 504.331, 643 501.996 C 650.184 500.310, 667.318 492.703, 673.398 488.500 C 679.709 484.138, 693.106 469.768, 698.737 461.321 C 700.636 458.472, 702.765 455.920, 703.470 455.650 C 704.214 455.364, 705.036 452.489, 705.433 448.783 C 706.044 443.073, 705.836 441.868, 703.434 437.240 C 699.512 429.680, 694.532 424.273, 690.738 423.456 C 686.155 422.470, 683.516 420.981, 672.244 413.026 C 666.768 409.162, 661.661 406.003, 660.894 406.006 C 660.127 406.010, 658.264 406.657, 656.753 407.445" stroke="#7f3c1a" fill="#7f3c1a" fill-opacity="0.2" fill-rule="evenodd"/><path class="svg-region-APB" d="M 624.813 388.748 L 609.126 389.050 605.063 393.666 C 602.828 396.205, 601 398.608, 601 399.008 C 601 401.155, 592.232 405.193, 584.232 406.732 C 579.316 407.677, 574.960 409.086, 574.265 409.955 C 571.044 413.984, 558.306 441.803, 557.411 446.764 C 557.040 448.819, 556.328 451.291, 555.829 452.259 C 555.329 453.226, 554.525 456.826, 554.041 460.259 C 552.933 468.130, 549.869 477.197, 544.754 487.739 C 534.965 507.915, 540.120 514.292, 566.750 514.950 C 575.106 515.156, 576.624 514.495, 573 512.232 C 571.643 511.384, 571 509.900, 571 507.613 C 571 504.780, 571.837 503.532, 576.250 499.785 C 579.138 497.334, 582.833 494.467, 584.463 493.414 C 589.158 490.381, 593.418 485.907, 596.817 480.442 C 598.546 477.661, 601.154 474.286, 602.612 472.942 C 608.571 467.452, 615 458.830, 615 456.330 C 615 454.910, 616.328 452.252, 617.974 450.377 C 620.218 447.821, 620.822 446.316, 620.435 444.245 C 619.837 441.046, 623.140 435, 625.485 435 C 626.318 435, 627 434.377, 627 433.615 C 627 431.668, 632.067 428.530, 634.686 428.855 C 637.488 429.203, 639.684 425.907, 640.587 420 C 641.550 413.696, 642.640 412.008, 645.785 411.951 C 647.278 411.925, 651.321 410.452, 654.768 408.678 L 661.037 405.453 656.768 401.414 C 654.421 399.193, 650.813 396.143, 648.750 394.637 C 646.636 393.093, 645 391.048, 645 389.949 C 645 388.528, 644.390 388.060, 642.750 388.223 C 641.513 388.345, 633.441 388.581, 624.813 388.748" stroke="#ac7444" fill="#ac7444" fill-opacity="0.2" fill-rule="evenodd"/><path class="svg-region-PC" d="M 559.618 401.715 C 559.225 402.108, 558.065 404.326, 557.039 406.644 C 555.944 409.121, 553.992 411.470, 552.305 412.342 C 549.207 413.944, 535.149 423.444, 527.943 428.806 C 525.499 430.624, 517.443 438.049, 510.041 445.306 L 496.582 458.500 496.554 464 C 496.539 467.025, 496.878 471.188, 497.308 473.250 C 498.015 476.637, 498.400 477.001, 501.295 477.010 C 505.663 477.023, 514.047 481.080, 517.041 484.630 C 520.557 488.799, 524.039 491, 527.117 491 C 529.637 491, 531.993 492.860, 537.482 499.181 L 539.464 501.464 540.455 498.482 C 541 496.842, 543.145 492.158, 545.223 488.074 C 547.300 483.990, 549.004 479.715, 549.010 478.574 C 549.015 477.433, 550.140 474.093, 551.510 471.151 C 552.879 468.209, 554.011 464.384, 554.024 462.651 C 554.037 460.918, 554.467 457.925, 554.979 456 C 555.492 454.075, 556.546 450.025, 557.323 447 C 558.793 441.272, 562.198 433.489, 569.621 418.885 C 574.510 409.268, 574.589 409, 572.547 409 C 569.515 409, 566.062 406.617, 565.102 403.862 C 564.147 401.123, 561.318 400.015, 559.618 401.715" stroke="#cda789" fill="#cda789" fill-opacity="0.2" fill-rule="evenodd"/><path class="svg-region-DB" d="M 412.652 422.386 C 405.168 430.175, 400.574 432.022, 389.083 431.862 C 384.050 431.792, 379.638 432.028, 379.280 432.387 C 378.922 432.745, 379.630 434.717, 380.854 436.769 C 382.078 438.821, 384.162 442.865, 385.486 445.755 C 387.103 449.284, 388.754 451.336, 390.512 452.005 C 394.203 453.408, 396 453.243, 396 451.500 C 396 449.594, 397.988 449.591, 401.636 451.494 C 403.211 452.315, 405.175 453, 406 453.016 C 406.825 453.032, 408.625 453.924, 410 455 C 411.375 456.076, 413.063 456.966, 413.750 456.978 C 414.438 456.990, 415 457.378, 415 457.841 C 415 458.303, 417.587 459.257, 420.750 459.961 C 427.848 461.540, 438.527 465.327, 446.597 469.128 C 449.950 470.708, 453.007 472, 453.390 472 C 453.774 472, 455.234 473.063, 456.635 474.362 C 458.036 475.662, 461.725 478.249, 464.833 480.112 C 467.940 481.976, 473.412 486.550, 476.991 490.278 C 482.896 496.428, 491.297 502.985, 493.285 502.996 C 493.717 502.998, 493.605 502.130, 493.035 501.066 C 490.453 496.240, 493.114 482.172, 497.168 479.219 C 498.635 478.150, 498.742 477.487, 497.815 475.219 C 497.204 473.724, 496.697 468.563, 496.689 463.750 C 496.675 455.330, 496.589 455, 494.410 455 C 493.164 455, 491.285 453.907, 490.234 452.570 C 489.183 451.234, 486.818 449.751, 484.980 449.274 C 482.260 448.570, 481.386 447.659, 480.298 444.394 C 479.026 440.579, 478.603 440.267, 471.730 438.074 C 467.754 436.806, 462.288 434.192, 459.584 432.266 C 456.880 430.341, 450.805 427.241, 446.084 425.378 C 441.363 423.516, 436.670 421.513, 435.655 420.928 C 434.640 420.343, 431.490 419.445, 428.655 418.934 C 425.820 418.422, 422.272 417.727, 420.772 417.389 C 418.415 416.859, 417.308 417.540, 412.652 422.386" stroke="#e8b1e4" fill="#e8b1e4" fill-opacity="0.2" fill-rule="evenodd"/><path class="svg-region-MB" d="M 396 451.611 C 396 452.907, 395.324 453.096, 392.552 452.576 C 389.219 451.950, 389.081 452.049, 388.426 455.541 C 388.037 457.617, 388.227 460.203, 388.874 461.624 C 389.493 462.982, 390 466.289, 390 468.972 C 390 473.244, 391.911 479.932, 398.151 497.500 C 398.737 499.150, 399.176 501.483, 399.125 502.683 C 399.057 504.300, 400.521 505.801, 404.767 508.468 C 409.500 511.441, 411.119 511.967, 414.045 511.481 C 415.995 511.158, 418.920 511.417, 420.545 512.057 C 423.577 513.251, 517.562 515.314, 519.403 514.227 C 520.859 513.366, 504.857 508.057, 500.719 508.027 C 498.268 508.010, 496.731 507.462, 496.351 506.472 C 496.029 505.632, 492.771 503.008, 489.111 500.641 C 485.452 498.274, 480.033 493.603, 477.069 490.262 C 474.104 486.921, 469.839 483.164, 467.590 481.913 C 465.340 480.661, 461.446 477.919, 458.936 475.819 C 456.425 473.718, 453.994 472, 453.532 472 C 453.071 472, 449.950 470.708, 446.597 469.128 C 438.527 465.327, 427.848 461.540, 420.750 459.961 C 417.587 459.257, 415 458.303, 415 457.841 C 415 457.378, 414.438 456.990, 413.750 456.978 C 413.063 456.966, 411.375 456.076, 410 455 C 408.625 453.924, 406.825 453.032, 406 453.016 C 405.175 453, 403.211 452.315, 401.636 451.494 C 397.926 449.559, 396 449.599, 396 451.611" stroke="#f9c6c6" fill="#f9c6c6" fill-opacity="0.2" fill-rule="evenodd"/><path class="svg-region-AP" d="M 549.231 616.104 C 549.513 620.172, 550.719 626.262, 551.911 629.637 C 553.933 635.366, 554.053 637.229, 553.703 657.637 C 553.496 669.662, 552.836 681.300, 552.236 683.500 C 549.786 692.471, 549 701.761, 549 721.729 L 549 742.728 552.750 745.266 C 554.813 746.662, 558.983 748.957, 562.018 750.365 C 569.808 753.980, 573.087 757.987, 576.859 768.500 C 581.979 782.770, 582.880 783.676, 588.111 779.808 C 593.321 775.955, 604.925 772.643, 610.131 773.522 C 616.088 774.529, 627.098 778.780, 629.500 781.002 C 630.600 782.019, 632.850 783.173, 634.500 783.566 C 636.150 783.959, 638.742 784.906, 640.259 785.671 C 642.482 786.791, 643.453 786.821, 645.259 785.827 C 646.729 785.018, 653.103 784.526, 663.786 784.397 C 679.446 784.207, 680.348 784.083, 687.286 781.168 C 691.253 779.501, 695.365 777.866, 696.421 777.534 C 698.036 777.028, 697.717 776.607, 694.421 774.899 C 688.117 771.632, 686 768.643, 686 763.010 C 686 757.288, 688.328 745.545, 690.486 740.379 C 692.411 735.772, 692.388 730.944, 690.408 724 C 686.641 710.793, 686.620 709.582, 690.034 702.429 L 693.161 695.876 698.831 696.563 C 701.949 696.941, 705.319 697.677, 706.321 698.198 C 707.497 698.810, 709.232 698.766, 711.220 698.073 C 714.974 696.764, 722.336 696.727, 730.963 697.974 C 734.517 698.488, 737.560 698.773, 737.725 698.608 C 737.890 698.444, 737.007 695.614, 735.762 692.321 C 733.157 685.426, 724.570 675.030, 722.878 676.722 C 722.308 677.292, 721.599 679.569, 721.302 681.783 C 720.806 685.480, 720.466 685.864, 717.131 686.484 C 710.320 687.750, 706.461 687.229, 699.591 684.114 C 695.814 682.401, 692.180 681, 691.517 681 C 689.145 681, 687 677.342, 687 673.297 C 687 668.317, 688.782 663.129, 692.872 656.206 C 694.593 653.294, 696 650.460, 696 649.908 C 696 648.635, 700.937 644.243, 703.250 643.459 C 704.361 643.082, 705 641.839, 705 640.055 C 705 638.509, 705.670 636.689, 706.489 636.009 C 708.284 634.519, 707.564 633, 705.063 633 C 704.063 633, 702.706 632.351, 702.048 631.558 C 701.390 630.765, 699.426 629.977, 697.684 629.808 C 695.520 629.598, 694.403 628.902, 694.159 627.614 C 693.572 624.523, 687.170 615.184, 685.266 614.642 C 682.473 613.846, 675.546 613.611, 661 613.818 C 631.447 614.239, 609.838 613.952, 596.500 612.961 C 588.800 612.388, 578.900 611.752, 574.500 611.546 C 557.575 610.755, 551.153 610.213, 549.958 609.474 C 548.998 608.881, 548.834 610.376, 549.231 616.104" stroke="#fc7143" fill="#fc7143" fill-opacity="0.2" fill-rule="evenodd"/><path class="svg-region-PP" d="M 430.665 605.092 C 429.103 606.030, 428.879 607.260, 429.160 613.342 L 429.490 620.489 425.588 622.326 C 421 624.486, 416.169 623.949, 413.482 620.980 C 411.075 618.321, 405.872 618.379, 403.416 621.093 C 400.514 624.299, 398.094 625.323, 396.514 624.012 C 394.722 622.524, 391.438 624.524, 390.015 627.972 C 388.654 631.267, 387.013 641.406, 387.006 646.563 C 386.999 651.148, 389.443 654.042, 396.649 657.985 C 398.931 659.233, 401.376 661.334, 402.082 662.652 C 403.259 664.852, 403.082 665.292, 399.932 667.984 C 398.045 669.598, 395.349 670.937, 393.941 670.959 C 392.534 670.982, 390.573 671.591, 389.585 672.314 C 387.897 673.549, 388.021 673.990, 391.623 679.564 C 395.135 684.998, 395.511 686.262, 396.069 694.504 C 396.708 703.941, 399.172 711.223, 400.541 707.720 C 401.158 706.142, 402.518 705.964, 412.570 706.147 L 423.904 706.353 425.070 709.169 C 425.837 711.021, 426.001 714.494, 425.549 719.318 C 424.946 725.757, 425.123 727.094, 427 730.275 C 428.740 733.225, 429.093 735.254, 428.899 741.199 L 428.661 748.500 439.830 759.589 C 445.974 765.687, 451 771.211, 451 771.863 C 451 773.481, 454.415 774.651, 463.137 776.022 C 467.187 776.658, 472.975 777.604, 476 778.123 C 481.035 778.988, 485.782 779.796, 496.391 781.593 C 500.269 782.250, 500.279 782.243, 499.590 779.376 C 497.755 771.745, 497.858 766.519, 499.921 762.564 C 501.786 758.989, 501.831 758.471, 500.418 756.909 C 499.067 755.417, 499.026 754.353, 500.103 748.845 C 500.785 745.355, 502.054 741.947, 502.922 741.271 C 503.790 740.594, 506.149 738.873, 508.164 737.444 L 511.827 734.848 523.664 736.052 C 533.892 737.092, 539.142 738.309, 547.250 741.521 C 548.883 742.167, 549.001 740.814, 549.018 721.357 C 549.035 702.050, 550.530 686.187, 552.657 682.746 C 553.027 682.148, 553.504 671.351, 553.717 658.755 C 554.081 637.255, 553.971 635.474, 551.932 629.676 C 550.737 626.279, 549.529 620.472, 549.247 616.770 L 548.734 610.041 545.117 609.498 C 543.128 609.199, 538.575 608.538, 535 608.028 C 528.351 607.080, 478.611 604.941, 449 604.330 C 438.163 604.106, 431.870 604.368, 430.665 605.092" stroke="#c4743d" fill="#c4743d" fill-opacity="0.2" fill-rule="evenodd"/><path class="svg-region-ADCl" d="M 707.076 634.893 C 705.934 636.496, 705 638.722, 705 639.838 C 705 641.108, 703.426 642.925, 700.793 644.693 C 698.479 646.247, 696.341 648.424, 696.043 649.530 C 695.744 650.636, 693.766 654.614, 691.646 658.369 C 686.916 666.748, 685.552 675.743, 688.515 679.016 C 689.502 680.107, 690.803 681.004, 691.405 681.010 C 692.007 681.015, 694.975 682.194, 698 683.629 C 701.025 685.064, 705.075 686.622, 707 687.091 C 711.559 688.202, 720.953 686.160, 721.115 684.023 C 721.333 681.155, 721.502 680.495, 722.830 677.350 C 724.044 674.474, 723.902 673.602, 721.198 667.350 C 719.569 663.582, 717.701 658.819, 717.045 656.764 C 716.390 654.709, 715.437 652.770, 714.927 652.455 C 714.417 652.140, 714 649.970, 714 647.632 C 714 645.295, 713.339 642.509, 712.532 641.441 C 711.724 640.374, 711.049 638.064, 711.032 636.309 C 710.988 631.934, 709.550 631.419, 707.076 634.893" stroke="#54413e" fill="#54413e" fill-opacity="0.2" fill-rule="evenodd"/><path class="svg-region-AVCl" d="M 692.074 698.896 C 686.602 706.581, 686.231 711.225, 690.115 723.415 C 692.433 730.689, 692.502 735.573, 690.358 740.628 C 688.240 745.622, 686.003 757.198, 686.001 763.173 C 686 768.514, 688.944 772.906, 693.901 774.959 C 699.552 777.300, 713.169 775.225, 723.754 770.412 C 726.643 769.098, 730.918 767.755, 733.254 767.429 C 735.589 767.102, 739.750 765.908, 742.500 764.775 C 745.250 763.642, 751.603 761.697, 756.618 760.452 C 761.632 759.207, 767.223 757.419, 769.041 756.479 L 772.346 754.770 770.038 753.029 C 768.769 752.071, 764.830 750.211, 761.286 748.894 C 757.742 747.577, 753.865 745.571, 752.671 744.435 C 751.477 743.299, 748.827 741.119, 746.782 739.590 C 742.082 736.077, 737 728.480, 737 724.968 C 737 719.874, 730.022 711.674, 724.642 710.446 C 723.070 710.087, 719.020 707.459, 715.642 704.606 C 708.917 698.926, 705.870 697.460, 698.851 696.526 C 694.516 695.950, 694.058 696.110, 692.074 698.896" stroke="#ffbab9" fill="#ffbab9" fill-opacity="0.2" fill-rule="evenodd"/><path class="svg-region-DMl" d="M 400.044 707.917 C 398.090 711.569, 398.794 719.724, 401.412 723.771 C 402.739 725.822, 404.632 730.121, 405.619 733.325 C 407.613 739.802, 409.723 741.596, 413.821 740.297 C 418.235 738.899, 421.327 739.881, 424 743.531 C 427.858 748.800, 429.001 748.050, 428.996 740.250 C 428.994 735.265, 428.470 732.642, 426.993 730.220 C 425.250 727.362, 425.075 725.875, 425.630 718.654 C 426.578 706.316, 426.549 706.288, 412.578 706.111 C 402.125 705.979, 400.994 706.142, 400.044 707.917" stroke="#68533d" fill="#68533d" fill-opacity="0.2" fill-rule="evenodd"/><path class="svg-region-VMl" d="M 506.264 738.691 C 501.605 742.138, 501.200 742.793, 500.131 748.592 C 498.798 755.826, 499.696 759.458, 502.395 757.750 C 503.234 757.219, 507.097 761.490, 509.525 765.633 C 512.211 770.217, 519.079 775.382, 529.361 780.553 C 536.579 784.183, 543.388 790.573, 545.684 795.872 C 547.901 800.991, 552.824 803.862, 559.207 803.760 C 561.797 803.718, 564.576 804.233, 565.384 804.903 C 566.196 805.578, 568.783 805.983, 571.176 805.811 L 575.500 805.500 578.584 796.406 C 580.280 791.405, 582.391 786.280, 583.274 785.019 C 584.777 782.874, 584.749 782.618, 582.854 781.082 C 580.911 779.509, 578.491 773.940, 575.330 763.766 C 574.244 760.270, 572.508 757.850, 568.697 754.516 C 565.857 752.032, 562.774 750, 561.845 750 C 560.917 750, 557.226 748.035, 553.644 745.633 C 545.286 740.028, 537.055 737.346, 524.214 736.043 C 518.557 735.470, 513.326 735, 512.591 735 C 511.855 735, 509.008 736.661, 506.264 738.691" stroke="#e59376" fill="#e59376" fill-opacity="0.2" fill-rule="evenodd"/><path class="svg-region-PMl" d="M 251.485 720.806 C 246.019 723.113, 245.724 723.348, 242.540 727.943 C 239.968 731.654, 239.849 732.222, 241.045 735.110 C 242.680 739.056, 247.123 741, 254.508 741 C 264.920 741, 271.758 735.266, 268.586 729.194 C 266.332 724.879, 259.056 718.868, 256.316 719.056 C 255.867 719.087, 253.693 719.874, 251.485 720.806" stroke="#90cf92" fill="#90cf92" fill-opacity="0.2" fill-rule="evenodd"/><path class="svg-region-PV" d="M 261.221 588.726 C 259.418 588.949, 258.009 589.664, 258.090 590.316 C 258.416 592.939, 257.895 593.810, 255.662 594.370 C 247.984 596.297, 224 613.446, 224 617.009 C 224 617.598, 223.058 619.926, 221.907 622.182 C 219.908 626.100, 219.824 628.400, 221.487 633.612 C 222.002 635.227, 221.671 635.853, 220.081 636.269 C 217.058 637.059, 217.530 639.291, 221.176 641.445 C 223.449 642.787, 226.716 643.399, 232.665 643.597 C 239.616 643.827, 241.800 644.333, 245.991 646.686 C 252.079 650.103, 254.480 654.382, 253.676 660.379 C 253.353 662.784, 252.284 665.161, 251.091 666.127 C 249.972 667.034, 248.144 670.212, 247.030 673.191 C 245.915 676.170, 243.850 680.158, 242.439 682.053 C 240.088 685.214, 239.929 686.048, 240.523 692.093 C 241.447 701.486, 240.879 701.888, 227.276 701.489 C 220.305 701.285, 215.187 700.613, 212.782 699.587 C 210.737 698.714, 208.210 698, 207.167 698 C 206.123 698, 204.126 697.100, 202.727 696 C 201.329 694.900, 199.691 694, 199.089 694 C 197.225 694, 198.457 720.583, 200.571 726 C 202.673 731.383, 202.857 741.801, 201.010 750.766 C 199.858 756.355, 199.899 757.231, 201.384 758.872 C 203.082 760.748, 211.751 764, 215.056 764 C 216.060 764, 217.193 764.503, 217.573 765.118 C 218.699 766.940, 226.008 765.392, 235.116 761.404 C 241.900 758.433, 244.773 756.436, 250.171 750.939 C 257.234 743.747, 259.506 742.813, 270.486 742.583 C 274.379 742.502, 274.486 742.593, 275.125 746.500 C 275.744 750.288, 279.413 759.747, 281.526 763 C 282.062 763.825, 283.850 765.262, 285.500 766.192 L 288.500 767.885 288.585 777.637 C 288.643 784.319, 289.051 787.517, 289.881 787.794 C 291.192 788.231, 302.337 785.603, 308 783.522 C 309.925 782.815, 314.200 781.460, 317.500 780.511 C 320.800 779.563, 326.875 777.100, 331 775.038 C 345.524 767.779, 357.272 764, 365.313 764 C 367.963 764, 371.095 763.484, 372.273 762.854 C 373.451 762.223, 375.666 761.743, 377.194 761.786 C 380.193 761.872, 390.084 755.908, 396 750.448 C 397.925 748.671, 400.400 746.921, 401.500 746.558 C 402.600 746.195, 404.491 744.638, 405.703 743.097 L 407.906 740.297 406.010 734.034 C 404.967 730.589, 402.963 726.032, 401.557 723.907 C 399.563 720.894, 398.997 718.771, 398.985 714.271 C 398.977 711.097, 398.321 706.700, 397.529 704.500 C 396.736 702.300, 396.068 697.279, 396.044 693.343 C 396.003 686.619, 395.733 685.772, 391.595 679.343 C 389.172 675.579, 386.319 671.375, 385.253 670 C 381.533 665.198, 381.465 656.025, 385.121 652.100 C 386.337 650.795, 387.013 648.569, 387.037 645.792 C 387.057 643.431, 387.678 638.373, 388.417 634.551 C 389.500 628.955, 390.368 627.060, 392.881 624.815 C 394.596 623.282, 396 621.527, 396 620.915 C 396 620.303, 396.713 618.299, 397.585 616.463 C 399.159 613.144, 399.148 613.104, 395.835 610.091 C 393.689 608.140, 391.416 607.048, 389.461 607.029 C 387.790 607.013, 384.683 606.113, 382.557 605.029 C 375.185 601.270, 369.049 599.736, 364.047 600.399 C 360.733 600.839, 357.374 600.456, 352.902 599.129 C 349.381 598.084, 343.417 597.177, 339.650 597.112 C 335.882 597.047, 332.282 596.660, 331.650 596.252 C 330.343 595.407, 316.709 594.053, 303.791 593.483 C 297.880 593.223, 294.264 592.564, 292.536 591.432 C 290.525 590.114, 289.686 590.016, 288.543 590.964 C 287.651 591.705, 286.215 591.868, 284.798 591.391 C 283.534 590.965, 281.716 590.731, 280.757 590.870 C 279.798 591.009, 278.011 590.421, 276.785 589.562 C 274.630 588.053, 269.075 587.754, 261.221 588.726 M 250.497 721.349 C 247.211 722.880, 244.495 725.121, 242.582 727.881 C 239.732 731.994, 239.704 732.157, 241.290 735.483 C 242.498 738.016, 243.877 739.150, 246.706 739.935 C 252.588 741.569, 259.656 741.216, 263.843 739.080 C 267.721 737.102, 270.561 732.747, 269.324 730.675 C 266.900 726.617, 261.187 720.912, 258.667 720.034 C 255.120 718.797, 256.431 718.586, 250.497 721.349" stroke="#b09658" fill="#b09658" fill-opacity="0.2" fill-rule="evenodd"/><path class="svg-region-DV" d="M 205.014 639.216 C 200.725 643.819, 198.650 655.500, 197.385 682.166 L 196.878 692.833 199.689 694.367 C 209.051 699.479, 215.961 701.251, 227.647 701.535 C 240.747 701.853, 241.484 701.340, 240.542 692.545 C 239.924 686.775, 240.085 686.100, 243.411 680.577 C 245.350 677.358, 247.442 673.189, 248.061 671.314 C 248.680 669.439, 250.270 666.821, 251.593 665.498 C 253.255 663.836, 254 661.963, 254 659.447 C 254 649.644, 246.573 644.138, 232.559 643.553 C 225.966 643.278, 223.255 642.703, 220.488 640.993 C 218.526 639.780, 216.055 639.014, 214.997 639.291 C 213.939 639.567, 212.552 639.165, 211.914 638.397 C 210.217 636.351, 207.367 636.690, 205.014 639.216" stroke="#45567a" fill="#45567a" fill-opacity="0.2" fill-rule="evenodd"/><path class="svg-region-VV" d="M 267.500 742.477 C 266.950 742.678, 264.327 743.136, 261.671 743.494 C 257.360 744.076, 256.116 744.889, 250.065 751.073 C 246.337 754.883, 243.061 758, 242.785 758 C 242.508 758, 238.731 759.641, 234.391 761.648 C 225.881 765.581, 225.921 766.780, 234.568 766.930 C 241.860 767.056, 248.318 769.675, 254.350 774.954 C 257.556 777.759, 261.884 780.474, 264.269 781.176 C 266.596 781.860, 270.501 783.676, 272.946 785.210 C 275.995 787.124, 278.721 788, 281.624 788 C 287.969 788, 289 786.400, 289 776.561 L 289 768.266 285.159 765.724 C 282.946 764.259, 280.789 761.766, 280.070 759.841 C 279.384 758.003, 278.092 755.150, 277.200 753.500 C 276.308 751.850, 275.336 748.700, 275.039 746.500 C 274.554 742.900, 274.200 742.481, 271.500 742.306 C 269.850 742.199, 268.050 742.276, 267.500 742.477" stroke="#7699d1" fill="#7699d1" fill-opacity="0.2" fill-rule="evenodd"/><path class="svg-region-B" d="M 859 523 C 858.175 523.533, 855.502 523.976, 853.060 523.985 C 850.618 523.993, 845.984 524.545, 842.761 525.210 C 838.177 526.157, 836.481 526.157, 834.965 525.210 C 830.870 522.653, 819.640 524.370, 808 529.331 C 803.527 531.238, 795 539.613, 795 542.099 C 795 543.144, 794.597 544, 794.104 544 C 792.933 544, 787.836 551.987, 783.843 560.078 C 779.623 568.630, 769.042 581.779, 758.962 591 C 754.453 595.125, 748.579 600.670, 745.909 603.323 C 743.195 606.020, 739.515 608.571, 737.559 609.111 C 735.636 609.642, 732.746 611.185, 731.137 612.538 C 729.528 613.892, 727.329 615, 726.252 615 C 724 615, 720.599 618.115, 717 623.472 C 715.625 625.519, 713.712 627.926, 712.750 628.819 C 710.565 630.849, 710.430 638.662, 712.532 641.441 C 713.339 642.509, 714 645.098, 714 647.195 C 714 649.292, 714.900 652.686, 716 654.739 C 717.100 656.791, 718 658.977, 718 659.595 C 718 662.522, 726.587 678.947, 729.974 682.500 C 732.511 685.161, 734.537 688.757, 736.026 693.241 C 737.953 699.045, 739.045 700.641, 743.882 704.716 C 746.972 707.319, 750.175 710.171, 751 711.053 C 751.825 711.935, 755.304 714.142, 758.730 715.957 C 763.554 718.512, 765.675 719.115, 768.124 718.625 C 769.958 718.258, 771.860 718.469, 772.654 719.127 C 773.405 719.751, 776.106 720.652, 778.655 721.128 C 781.203 721.604, 786.413 723.795, 790.232 725.997 C 796.783 729.774, 797.637 730, 805.338 730 C 814.585 730, 826.378 727.843, 828.847 725.700 C 829.960 724.733, 834.252 724.047, 841.979 723.600 C 854.569 722.872, 855.865 722.422, 872 713.165 C 881.520 707.703, 884.785 703.831, 892.203 689.210 C 896.719 680.307, 897.649 679.140, 902.941 675.722 C 907.158 672.998, 909.462 666.161, 910.935 652 C 911.478 646.775, 912.227 641.214, 912.599 639.641 C 913.226 636.989, 913.125 636.863, 911.203 637.891 C 910.064 638.501, 907.801 639, 906.174 639 C 903.808 639, 903.084 638.470, 902.551 636.346 C 901.593 632.531, 897.148 626.481, 889.695 618.849 C 884.509 613.539, 882.875 611.081, 881.587 606.650 C 880.700 603.599, 879.530 600.827, 878.987 600.492 C 878.444 600.156, 877.990 598.896, 877.978 597.691 C 877.966 596.486, 877.109 593.634, 876.074 591.354 C 874.767 588.477, 874.510 586.890, 875.234 586.166 C 875.808 585.592, 876.378 583.326, 876.502 581.129 C 876.626 578.933, 877.682 575.305, 878.848 573.068 L 880.968 569 877.734 568.968 C 875.955 568.951, 873.626 568.276, 872.559 567.468 C 871.491 566.661, 870.063 566, 869.386 566 C 868.708 566, 866.755 564.601, 865.045 562.891 C 862.588 560.434, 861.300 559.876, 858.905 560.227 C 856.213 560.622, 855.652 560.237, 853.896 556.796 C 851.920 552.922, 851.920 552.918, 853.959 550.325 C 855.082 548.898, 856 546.918, 856 545.924 C 856 544.931, 856.450 543.840, 857 543.500 C 857.550 543.160, 858 541.515, 858 539.845 C 858 538.175, 858.831 535.614, 859.847 534.154 C 861.798 531.351, 864 525.622, 864 523.351 C 864 521.786, 861.184 521.589, 859 523" stroke="#e23b33" fill="#e23b33" fill-opacity="0.2" fill-rule="evenodd"/><path class="svg-region-SB" d="M 879 184.669 C 876.525 185.506, 871.161 187.835, 867.080 189.845 L 859.661 193.500 856.889 201 C 853.451 210.303, 853.231 218.026, 856.019 231.640 C 858.362 243.080, 861.179 251.765, 864.471 257.698 C 865.753 260.007, 868.044 265.632, 869.564 270.198 C 871.083 274.764, 873.075 280.175, 873.991 282.222 C 877.893 290.951, 897.704 311.551, 905.272 314.750 C 909.458 316.519, 929.185 316.363, 936.320 314.505 C 949.530 311.064, 954.072 306.933, 961.469 291.628 C 970.033 273.911, 971.500 268.041, 971.500 251.500 C 971.500 238.720, 971.294 237.108, 969.137 233 C 965.268 225.630, 959.217 218.044, 949.544 208.436 C 935.346 194.334, 927.371 189.097, 913.312 184.643 C 906.439 182.466, 885.469 182.482, 879 184.669" stroke="#d2e400" fill="#d2e400" fill-opacity="0.2" fill-rule="evenodd"/><path class="svg-region-VOC" d="M 497.399 478.772 C 491.805 483.371, 490.306 496.433, 494.542 503.662 C 496.712 507.365, 497.559 508, 500.327 508 C 502.110 508, 506.254 508.945, 509.535 510.101 C 523.699 515.089, 537.075 516.379, 541.071 513.143 C 543.311 511.329, 543.325 511.206, 541.682 507.742 C 540.757 505.793, 540 503.607, 540 502.884 C 540 502.162, 539.139 500.655, 538.087 499.535 C 537.035 498.416, 534.820 496.038, 533.164 494.250 C 531.054 491.972, 529.255 491, 527.148 491 C 525.495 491, 523.468 490.325, 522.643 489.500 C 521.818 488.675, 520.872 488, 520.541 488 C 520.210 488, 518.644 486.526, 517.062 484.724 C 513.606 480.787, 506.375 476.992, 502.390 477.022 C 500.801 477.034, 498.554 477.822, 497.399 478.772" stroke="#ff8f93" fill="#ff8f93" fill-opacity="0.2" fill-rule="evenodd"/><path class="svg-region-OABl" d="M 650 411.018 C 649.175 411.541, 647.278 411.976, 645.785 411.985 C 642.619 412.003, 641.787 413.350, 640.108 421.173 C 638.812 427.215, 637.004 429.599, 634.458 428.622 C 632.638 427.924, 627 431.753, 627 433.688 C 627 434.410, 626.356 435, 625.568 435 C 623.046 435, 619.708 440.788, 620.357 444.034 C 620.818 446.339, 620.322 447.619, 617.969 450.195 C 613.016 455.618, 614.639 461.178, 621.581 462.566 C 625.403 463.331, 629.586 460.163, 630.549 455.775 C 631.392 451.941, 638.860 443.020, 644.169 439.507 C 650.057 435.610, 652.790 430.655, 654.051 421.587 C 655.048 414.423, 654.981 413.537, 653.324 411.885 C 652.034 410.598, 651.061 410.344, 650 411.018" stroke="#81244d" fill="#81244d" fill-opacity="0.2" fill-rule="evenodd"/><path class="svg-region-SOTr" d="M 481.881 432.007 C 478.593 433.928, 477.838 438.073, 479.788 443.500 C 481.515 448.309, 481.742 448.512, 485.728 448.804 C 489.069 449.050, 490.084 448.711, 490.971 447.054 C 492.556 444.093, 494.940 444.528, 496.150 448 C 497.221 451.072, 498.403 451.776, 499.502 449.996 C 499.843 449.444, 501.127 449.245, 502.355 449.553 C 505.252 450.280, 507.900 447.393, 508.665 442.674 C 509.203 439.363, 509.034 439.054, 506.373 438.481 C 502.990 437.752, 500.910 436.795, 495.500 433.483 C 491.338 430.933, 484.910 430.237, 481.881 432.007" stroke="#995b45" fill="#995b45" fill-opacity="0.2" fill-rule="evenodd"/><path class="svg-region-BPCl" d="M 897.942 679.250 C 896.767 680.487, 893.897 685.340, 891.564 690.032 C 884.548 704.146, 881.569 707.667, 871.990 713.167 C 856.062 722.312, 854.606 722.819, 842 723.594 C 834.149 724.077, 829.723 724.809, 828.051 725.901 C 824.478 728.234, 815.673 729.862, 806.239 729.936 C 798.324 729.997, 797.621 729.812, 789.446 725.500 C 784.754 723.025, 779.696 720.986, 778.207 720.968 C 776.718 720.951, 774.622 720.272, 773.549 719.461 C 772.287 718.507, 770.481 718.194, 768.439 718.578 C 766.067 719.022, 763.706 718.376, 758.968 715.984 C 755.497 714.232, 751.947 712.010, 751.079 711.047 C 750.210 710.084, 746.729 706.948, 743.343 704.079 C 737.666 699.269, 736.613 698.782, 729.843 697.837 C 722.131 696.760, 711.582 697.071, 710.271 698.415 C 709.074 699.643, 720.052 708.883, 724.227 710.161 C 729.682 711.832, 736.997 720.312, 737.004 724.973 C 737.014 731.776, 748.687 743.232, 761.139 748.660 C 768.677 751.946, 768.830 751.969, 772.639 750.352 C 774.896 749.395, 780.501 748.513, 786.131 748.229 C 795 747.782, 796.222 747.955, 801.588 750.412 C 804.793 751.879, 808.785 754.123, 810.458 755.398 C 819.052 761.947, 831.063 765.676, 838.284 764.036 C 845.979 762.288, 857.401 758, 861.478 755.329 C 866.699 751.908, 879.399 741.222, 884.500 735.959 C 886.700 733.688, 889.737 731.097, 891.250 730.200 C 892.763 729.303, 894 728.216, 894 727.784 C 894 727.353, 894.618 727, 895.374 727 C 897.072 727, 903.325 721.278, 904.865 718.316 C 906.442 715.281, 906.282 705.650, 904.500 696.338 C 903.675 692.027, 903 685.913, 903 682.750 C 903 676.285, 901.646 675.349, 897.942 679.250" stroke="#83385f" fill="#83385f" fill-opacity="0.2" fill-rule="evenodd"/><path class="svg-region-AMC" d="M 501.791 759.742 C 497.640 764.500, 496.892 770.569, 499.525 778.124 C 501.022 782.418, 506.809 788.726, 512.725 792.514 C 524.875 800.293, 533.335 808.166, 538.580 816.578 C 545.782 828.127, 547.345 830, 549.781 830 C 551.147 830, 553.797 830.947, 555.670 832.105 C 558.264 833.708, 559.961 834.057, 562.788 833.567 C 572.173 831.940, 574.228 831.828, 575.287 832.887 C 575.899 833.499, 577.262 834, 578.317 834 C 579.945 834, 580.106 833.587, 579.391 831.250 C 578.927 829.737, 578.600 821.300, 578.663 812.500 C 578.779 796.504, 578.778 796.501, 577.116 801 C 575.534 805.284, 575.248 805.515, 571.153 805.811 C 568.788 805.982, 566.215 805.593, 565.436 804.947 C 564.657 804.300, 561.556 803.697, 558.544 803.606 C 551.948 803.408, 548.811 801.361, 545.353 795 C 542.156 789.120, 537.384 784.935, 528.080 779.855 C 516.961 773.784, 512.098 770.024, 509.392 765.406 C 508.067 763.145, 506.159 760.549, 505.153 759.639 C 503.449 758.097, 503.220 758.104, 501.791 759.742" stroke="#9d4741" fill="#9d4741" fill-opacity="0.2" fill-rule="evenodd"/>
    </svg>