<svg xmlns="http://www.w3.org/2000/svg" width="1078" height="1151" viewBox="0 0 1078 1151" version="1.1">
    <path class="svg-region-V" d="M 462.500 177.900 C 445.723 184.198, 434.218 194.319, 420.021 215.268 C 417.126 219.541, 413.439 223.975, 411.829 225.122 C 410.218 226.269, 407.565 229.573, 405.934 232.463 C 404.302 235.354, 402.075 238.527, 400.984 239.515 C 399.893 240.502, 399 241.700, 399 242.176 C 399 242.653, 396.637 246.048, 393.750 249.720 C 390.863 253.393, 387.375 258.064, 386 260.100 C 377.341 272.925, 372.504 279.598, 371.380 280.274 C 370.005 281.100, 361 296.594, 361 298.134 C 361 298.639, 359.151 304.466, 356.890 311.083 L 352.781 323.115 353.241 337.307 C 353.566 347.326, 354.204 352.823, 355.410 356 C 356.349 358.475, 357.531 364.074, 358.037 368.442 C 359.667 382.526, 365.555 390.805, 377 395.109 C 381.715 396.881, 384.213 397.123, 394.500 396.802 C 404.509 396.489, 407.164 396.063, 410.500 394.236 C 419.163 389.492, 423.426 383.786, 425.643 373.971 C 427.343 366.442, 427.763 365.830, 435.507 359.604 C 441.327 354.925, 443.412 349.875, 443.603 340 C 443.737 333.016, 444.233 330.582, 446.383 326.355 C 447.822 323.525, 449 320.867, 449 320.449 C 449 320.031, 450.238 318.073, 451.750 316.099 C 453.262 314.124, 455.979 310.063, 457.786 307.073 C 459.594 304.084, 462.059 300.946, 463.266 300.101 C 464.472 299.256, 467.782 296.525, 470.621 294.032 C 480.601 285.268, 484.524 282.463, 492.476 278.404 C 496.889 276.151, 503.399 272.776, 506.943 270.904 C 513.058 267.673, 513.846 267.512, 522.443 267.741 C 529.499 267.930, 533.378 268.643, 540 270.970 C 546.870 273.385, 550.152 273.961, 557.112 273.979 C 568.093 274.006, 572.090 271.964, 585.454 259.500 C 597.531 248.236, 600 243.874, 600 233.798 C 600 221.150, 595.497 215.042, 573.118 197.338 C 568.508 193.691, 564.528 189.910, 564.273 188.934 C 564.018 187.959, 560.814 185.711, 557.154 183.938 C 551.506 181.202, 548.762 180.571, 539 179.762 C 532.675 179.237, 523.225 178.708, 518 178.584 C 506.699 178.318, 487.806 177.431, 476 176.613 C 469.101 176.134, 466.558 176.377, 462.500 177.900" stroke="#dd8a8a" fill="#dd8a8a" fill-opacity="0.2" fill-rule="evenodd"/><path class="svg-region-SV" d="M 511.660 268.621 C 508.449 269.877, 505.299 271.326, 504.660 271.843 C 504.022 272.359, 499.334 274.906, 494.243 277.502 C 489.152 280.098, 481.727 284.874, 477.743 288.115 C 473.759 291.356, 468.412 295.694, 465.860 297.754 C 463.308 299.814, 459.726 303.975, 457.899 307 C 456.073 310.025, 453.324 314.065, 451.789 315.978 C 450.255 317.891, 449 319.850, 449 320.333 C 449 320.815, 447.822 323.525, 446.383 326.355 C 444.225 330.598, 443.741 332.991, 443.622 340 C 443.495 347.454, 443.120 349.099, 440.573 353.371 C 438.975 356.050, 435.500 359.799, 432.850 361.704 C 427.963 365.214, 427.693 365.729, 425.010 376.613 C 424.453 378.875, 422.821 382.458, 421.385 384.575 C 419.948 386.692, 419.180 388.560, 419.677 388.726 C 420.175 388.892, 422.139 389.932, 424.041 391.037 C 431.002 395.081, 436.165 397.132, 441.624 398.020 C 447.609 398.994, 455.348 404.214, 456.977 408.377 C 458.599 412.521, 464.859 418.602, 470.379 421.395 C 473.876 423.164, 476.768 425.507, 478.085 427.638 C 479.244 429.514, 481.496 431.722, 483.088 432.546 C 485.303 433.691, 486.133 434.978, 486.619 438.021 C 486.969 440.210, 487.564 442, 487.941 442 C 489.178 442, 493.761 436.548, 494.455 434.250 C 495.070 432.216, 494.799 432, 491.632 432 C 486.749 432, 483.748 430.671, 479.052 426.428 C 474.886 422.664, 474.064 420.138, 476.250 417.815 C 476.938 417.084, 479.606 413.979, 482.180 410.915 C 486.086 406.266, 487.410 405.334, 490.180 405.285 C 492.006 405.253, 494.787 404.889, 496.360 404.476 C 499.145 403.744, 499.201 403.807, 498.530 406.862 C 498.151 408.588, 498.242 410, 498.732 410 C 499.222 410, 500.623 410.931, 501.845 412.070 L 504.066 414.140 506 411.820 C 507.063 410.544, 507.948 408.953, 507.967 408.283 C 508.020 406.346, 514.746 400.133, 518.478 398.574 C 521.545 397.292, 522.399 397.344, 526.980 399.084 C 530.175 400.298, 533.085 400.776, 534.787 400.366 C 539.292 399.280, 549.306 393.975, 552.500 390.981 C 554.150 389.435, 557.413 387.664, 559.750 387.046 C 563.913 385.946, 565.009 384.742, 562.986 383.491 C 562.428 383.146, 561.033 381.024, 559.885 378.775 C 558.197 375.465, 557.770 372.657, 557.649 364.059 C 557.461 350.685, 558.596 348.388, 565.865 347.423 L 570.729 346.778 570.234 342.381 C 569.888 339.316, 570.413 336.133, 571.965 331.875 C 573.651 327.253, 574.030 324.682, 573.523 321.305 C 572.971 317.624, 572.560 316.970, 571.177 317.571 C 570.255 317.971, 566.800 318.475, 563.500 318.691 C 555.792 319.193, 550.599 316.594, 546.081 309.974 C 542.087 304.121, 540.349 299.208, 539.444 291.212 C 538.626 283.975, 540.178 280.572, 544.693 279.704 C 549.133 278.851, 554.244 277.347, 557.500 275.936 C 560.404 274.677, 560.260 274.613, 553 273.927 C 548.791 273.529, 542.429 272.021, 538.500 270.491 C 534.636 268.986, 529.790 267.830, 527.685 267.911 C 525.586 267.992, 522.436 267.671, 520.685 267.198 C 518.243 266.539, 516.137 266.871, 511.660 268.621" stroke="#c666b5" fill="#c666b5" fill-opacity="0.2" fill-rule="evenodd"/><path class="svg-region-SF" d="M 601.250 224.662 C 600.401 225.005, 600 227.646, 600 232.887 C 600 244.235, 597.778 247.985, 583.048 261.500 C 568.954 274.432, 566.482 278.553, 566.552 289 C 566.586 294.057, 567.198 296.662, 569.307 300.735 C 571.351 304.681, 572.274 308.455, 573.054 316.058 C 573.999 325.271, 573.912 326.620, 572.045 331.610 C 570.920 334.616, 570.010 338.971, 570.022 341.288 C 570.068 350.031, 577.424 360.807, 586.761 365.806 C 589.918 367.496, 594.750 371.208, 597.500 374.055 C 604.139 380.927, 608.689 382.954, 617.500 382.964 C 626.683 382.975, 629.002 382.303, 628.992 379.633 C 628.987 378.327, 631.099 375.540, 634.438 372.448 C 639.806 367.476, 641.028 366.688, 648 363.708 C 659.732 358.691, 660.819 357.985, 663.292 353.764 C 664.723 351.323, 667.494 348.528, 669.731 347.271 C 674.758 344.446, 676.551 339.586, 675.617 331.320 C 675.102 326.766, 675.315 324.993, 676.594 323.168 C 678.929 319.836, 678.121 310.008, 675.186 306.038 C 673.984 304.412, 673 302.319, 673 301.388 C 673 300.456, 670.975 294.633, 668.500 288.447 C 666.025 282.261, 664 276.685, 664 276.057 C 664 275.429, 662.352 271.896, 660.338 268.207 C 658.324 264.518, 656.049 260.279, 655.283 258.786 C 653.829 255.954, 643.100 246.112, 639.316 244.139 C 638.114 243.512, 636.224 243, 635.115 243 C 634.007 243, 632.740 242.357, 632.300 241.572 C 631.860 240.787, 629.509 238.649, 627.076 236.822 C 624.642 234.995, 621.042 232.264, 619.076 230.753 C 611.944 225.273, 605.334 223.014, 601.250 224.662" stroke="#8c6b55" fill="#8c6b55" fill-opacity="0.2" fill-rule="evenodd"/><path class="svg-region-IF" d="M 676.464 323.415 C 675.229 325.299, 675.034 327.176, 675.574 331.955 C 676.456 339.747, 674.384 344.970, 669.485 347.306 C 667.533 348.237, 665.069 350.732, 663.560 353.307 C 661.398 356.997, 659.799 358.245, 653.739 360.971 C 641.113 366.650, 638.873 367.985, 633.886 372.796 C 629.603 376.929, 629.010 378.001, 629.005 381.629 C 629 385.625, 629.283 385.984, 637.750 392.726 C 647.680 400.632, 649.124 401.489, 654.007 402.368 C 658.016 403.090, 666.259 409.494, 671.173 415.704 C 673.003 418.017, 676.750 421.375, 679.500 423.166 C 682.250 424.958, 684.840 426.968, 685.256 427.633 C 685.671 428.299, 688.272 429.594, 691.034 430.511 C 700.722 433.729, 709.988 430.459, 712.524 422.929 C 713.175 420.995, 716.042 417.508, 719.372 414.601 C 724.728 409.924, 725.291 409.671, 728.034 410.707 C 730.509 411.641, 731.363 411.502, 733.503 409.819 C 734.899 408.721, 736.721 406.506, 737.554 404.895 C 738.911 402.271, 738.905 401.486, 737.491 397.320 C 736.623 394.765, 734.132 390.547, 731.956 387.948 C 729.780 385.349, 728 382.916, 728 382.541 C 728 381.041, 721.851 373.042, 720.868 373.263 C 719.574 373.554, 718.911 372.380, 715.353 363.500 C 713.810 359.650, 710.978 353.839, 709.059 350.586 C 705.496 344.546, 698.461 337.070, 696.297 337.025 C 693.184 336.960, 689.711 334.216, 686.266 329.097 C 682.584 323.625, 680.234 321.096, 678.773 321.032 C 678.373 321.014, 677.334 322.087, 676.464 323.415" stroke="#f2823b" fill="#f2823b" fill-opacity="0.2" fill-rule="evenodd"/><path class="svg-region-PF" d="M 567 272.810 C 564.525 273.593, 560.250 275.033, 557.500 276.009 C 554.750 276.985, 550.250 278.351, 547.500 279.044 C 539.403 281.084, 538.661 282.185, 539.433 291 C 540.125 298.884, 544.033 309.097, 547.720 312.651 C 552.966 317.709, 555.852 319, 561.912 319 C 565.209 319, 569.105 318.454, 570.571 317.786 C 573.073 316.646, 573.203 316.258, 572.704 311.423 C 572.412 308.591, 570.914 303.850, 569.375 300.887 C 565.452 293.331, 565.445 284.682, 569.356 277.151 C 570.884 274.208, 571.992 271.708, 571.817 271.594 C 571.643 271.480, 569.475 272.027, 567 272.810 M 562.206 348.048 C 558.151 349.675, 556.671 355.246, 557.456 365.935 C 558.356 378.212, 562.076 385.558, 568.661 388.061 C 572.388 389.478, 580.999 389.109, 585.500 387.340 C 587.700 386.475, 592.650 385.329, 596.500 384.794 C 600.350 384.259, 604.625 383.591, 606 383.309 L 608.500 382.797 606 381.167 C 604.625 380.270, 600.800 376.996, 597.500 373.890 C 594.200 370.785, 588.924 366.803, 585.776 365.041 C 580.204 361.923, 574.714 355.855, 571.922 349.729 C 570.946 347.587, 570.015 347.014, 567.589 347.063 C 565.890 347.098, 563.468 347.541, 562.206 348.048" stroke="#faaaaa" fill="#faaaaa" fill-opacity="0.2" fill-rule="evenodd"/><path class="svg-region-AAB" d="M 642 401.103 L 639.500 402.150 642.250 403.607 C 644.723 404.917, 644.996 405.589, 644.958 410.282 C 644.892 418.376, 642.820 425.684, 639.797 428.488 C 638.334 429.844, 635.928 432.539, 634.450 434.477 C 632.972 436.415, 631.163 438, 630.431 438 C 629.699 438, 628.740 438.563, 628.300 439.250 C 627.860 439.938, 624.941 442.222, 621.814 444.328 C 618.687 446.433, 615.418 449.239, 614.550 450.564 C 611.101 455.828, 605 457.297, 605 452.863 C 605 451.043, 604.835 451.062, 601.903 453.220 C 598.559 455.682, 592.179 468.002, 587.592 480.854 C 586.149 484.898, 584.300 489.161, 583.484 490.326 C 581.419 493.274, 581.632 497.357, 583.960 499.464 C 585.740 501.074, 586.778 501.135, 595.210 500.127 C 609.803 498.381, 614.260 497.499, 617.733 495.669 C 619.511 494.733, 623.111 493.677, 625.733 493.324 C 628.355 492.970, 632.179 491.627, 634.230 490.340 C 636.282 489.053, 638.532 487.998, 639.230 487.996 C 639.929 487.994, 642 487.078, 643.833 485.960 C 648.246 483.270, 666.038 476, 668.210 476 C 670.144 476, 675 471.180, 675 469.260 C 675 468.567, 675.427 468, 675.950 468 C 677.934 468, 686.350 461.539, 692.051 455.639 C 698.404 449.065, 699.713 445.768, 698.558 439.250 C 697.420 432.831, 697.077 432.344, 692.731 430.979 C 690.404 430.248, 687.600 428.900, 686.500 427.984 C 685.400 427.068, 682.190 424.855, 679.366 423.066 C 676.542 421.277, 672.729 417.807, 670.891 415.355 C 666.487 409.477, 657.884 402.927, 653.228 401.907 C 651.178 401.457, 648.375 400.857, 647 400.573 C 645.625 400.289, 643.375 400.528, 642 401.103 M 634.068 408.904 C 631.459 412.568, 631.369 415.378, 633.969 412 C 635.733 409.708, 637.281 406, 636.474 406 C 636.288 406, 635.206 407.307, 634.068 408.904" stroke="#7f3c1a" fill="#7f3c1a" fill-opacity="0.2" fill-rule="evenodd"/><path class="svg-region-APB" d="M 617 383.044 C 604.613 384.064, 592.893 386.034, 589.800 387.618 C 588.314 388.378, 585.152 389, 582.772 389 C 577.710 389, 574.617 390.878, 572.377 395.311 C 571.491 397.065, 569.968 399.400, 568.993 400.500 C 568.018 401.600, 565.816 405.159, 564.100 408.410 C 562.384 411.660, 560.586 414.810, 560.105 415.410 C 559.624 416.009, 553.933 427.075, 547.459 440 C 540.985 452.925, 534.113 465.975, 532.189 469 C 526.593 477.798, 525.046 481.981, 525.022 488.382 C 525.001 494.004, 525.192 494.455, 529.368 498.632 L 533.737 503 547.618 502.874 C 561.883 502.745, 592.096 501.489, 588.473 501.175 C 584.671 500.847, 581.764 497.997, 582.300 495.126 C 582.723 492.860, 586.119 483.944, 589.012 477.500 C 589.506 476.400, 591.038 472.743, 592.416 469.374 C 595.914 460.819, 598.876 455.934, 602.418 452.878 C 604.761 450.856, 605.207 449.940, 604.365 448.878 C 602.789 446.890, 601.786 436.269, 602.965 434.065 C 604.141 431.868, 609.005 430, 613.550 430 C 616.207 430, 617.181 429.359, 618.867 426.500 C 620.676 423.435, 621.426 423, 624.899 423 C 628.167 423, 628.971 422.604, 629.468 420.750 C 631.545 412.992, 632.783 410.392, 636.310 406.385 C 638.481 403.919, 641.609 401.349, 643.262 400.675 L 646.266 399.449 638.100 393.017 C 633.543 389.427, 629.680 385.572, 629.359 384.292 C 629.022 382.952, 628.102 382.072, 627.142 382.172 C 626.239 382.267, 621.675 382.660, 617 383.044" stroke="#ac7444" fill="#ac7444" fill-opacity="0.2" fill-rule="evenodd"/><path class="svg-region-PC" d="M 558.500 387.202 C 556.850 387.776, 554.150 389.494, 552.500 391.019 C 549.336 393.945, 539.226 399.306, 535 400.300 C 533.625 400.623, 530.057 400.055, 527.071 399.037 C 523.222 397.725, 520.946 397.450, 519.252 398.094 C 515.470 399.532, 510.483 403.716, 508.955 406.733 C 508.184 408.255, 506.753 410.573, 505.776 411.885 C 504.799 413.197, 503.990 414.997, 503.978 415.885 C 503.966 416.773, 503.076 418.625, 502 420 C 500.924 421.375, 500.034 423.178, 500.022 424.006 C 499.990 426.186, 494.041 435.788, 490.250 439.779 C 485.986 444.268, 486.124 446.936, 491 454.238 C 493.200 457.532, 495 461.077, 495 462.114 C 495 463.555, 495.729 464, 498.088 464 C 504.156 464, 519.826 474.726, 521.510 480.032 C 522.669 483.683, 524.884 483.050, 526.901 478.491 C 527.977 476.058, 530.172 472.139, 531.778 469.783 C 533.384 467.428, 538.897 457.175, 544.030 447 C 556.693 421.894, 559.665 416.176, 562.485 411.500 C 563.812 409.300, 565.400 406.375, 566.015 405 C 566.630 403.625, 568.036 401.536, 569.140 400.357 C 570.244 399.178, 571.902 396.709, 572.824 394.871 C 573.746 393.032, 575.625 390.966, 577 390.279 C 579.376 389.091, 579.278 389.027, 575 388.979 C 572.525 388.952, 569.375 388.286, 568 387.500 C 565.083 385.832, 562.655 385.756, 558.500 387.202" stroke="#cda789" fill="#cda789" fill-opacity="0.2" fill-rule="evenodd"/><path class="svg-region-DB" d="M 367.748 392.250 C 372.069 400.266, 388.258 412.128, 403.500 418.447 C 410.077 421.173, 417.064 425.374, 421.318 429.160 C 422.344 430.072, 425.276 431.872, 427.833 433.160 C 430.391 434.447, 436.312 437.985, 440.992 441.023 C 445.671 444.060, 450.778 447.195, 452.340 447.990 C 453.902 448.784, 458.057 452.912, 461.573 457.162 C 465.090 461.413, 469.489 465.613, 471.349 466.495 C 473.208 467.378, 475.672 468.977, 476.823 470.050 C 477.974 471.122, 479.121 472, 479.370 472 C 479.620 472, 480.128 470.200, 480.500 468 L 481.176 464 487.619 464 C 492.241 464, 494.216 463.601, 494.604 462.590 C 495.237 460.941, 492.718 455.697, 489.359 451.673 C 487.525 449.476, 487 447.653, 487 443.488 C 487 436.688, 485.674 433.207, 482.645 432.055 C 481.329 431.555, 479.271 429.557, 478.071 427.615 C 476.761 425.496, 474.017 423.169, 471.202 421.793 C 465.794 419.148, 458.842 412.447, 457.072 408.175 C 455.485 404.342, 448.005 399.018, 443.249 398.336 C 437.854 397.563, 429.439 394.370, 425.196 391.487 C 420.778 388.485, 417.912 388.335, 415.519 390.979 C 408.127 399.148, 377.989 399.160, 369.228 390.998 C 366.171 388.150, 365.736 388.518, 367.748 392.250" stroke="#e8b1e4" fill="#e8b1e4" fill-opacity="0.2" fill-rule="evenodd"/><path class="svg-region-MB" d="M 371.604 403.250 C 371.975 406.137, 373.612 410.923, 375.244 413.884 C 380.065 422.636, 384.923 435.628, 386.445 443.836 C 387.862 451.477, 389.466 456.542, 391.780 460.684 C 392.451 461.886, 393 463.502, 393 464.276 C 393 465.050, 395.813 468.381, 399.250 471.680 C 404.235 476.463, 406.864 478.130, 412.239 479.916 C 415.946 481.148, 419.219 482.545, 419.512 483.020 C 419.806 483.496, 422.174 484.191, 424.773 484.566 C 427.373 484.941, 432.875 486.271, 437 487.520 C 442.081 489.059, 448.295 489.975, 456.265 490.360 C 467.637 490.909, 469.954 491.389, 484 496.102 C 488.468 497.601, 493.470 498.364, 500 498.543 C 505.225 498.686, 508.375 498.599, 507 498.351 C 497.032 496.551, 485.286 491.576, 481.771 487.666 C 479.691 485.352, 478.545 479.949, 479.406 476.519 C 480.285 473.015, 478.329 470.367, 472.302 466.902 C 469.444 465.258, 465.931 462.470, 464.497 460.707 C 456.829 451.276, 454.966 449.327, 452.356 448.006 C 449.332 446.476, 440.844 441.022, 440 440.066 C 439.428 439.418, 436.068 437.445, 431 434.781 C 426.004 432.155, 420.584 428.882, 420 428.137 C 418.344 426.027, 409.359 420.738, 403.432 418.384 C 399.620 416.870, 395.375 414.875, 394 413.951 C 392.625 413.026, 388.065 410.185, 383.866 407.636 C 379.667 405.087, 375.494 401.877, 374.593 400.501 C 371.934 396.444, 370.858 397.433, 371.604 403.250" stroke="#f9c6c6" fill="#f9c6c6" fill-opacity="0.2" fill-rule="evenodd"/><path class="svg-region-AP" d="M 593 617.156 C 591.507 617.771, 585.326 617.995, 577.648 617.713 C 562.088 617.141, 561.278 617.298, 561.648 620.819 C 561.803 622.293, 562.619 634.525, 563.461 648 C 565.686 683.606, 566.899 696.295, 568.911 705 C 569.483 707.475, 569.962 713.593, 569.976 718.595 C 569.990 724.057, 571.039 733.246, 572.600 741.595 L 575.201 755.500 581.021 761 C 585.872 765.584, 587.375 767.873, 590.046 774.747 C 592.248 780.413, 593.068 783.912, 592.665 785.926 C 592.137 788.567, 592.382 788.925, 595.138 789.530 C 596.939 789.926, 598.651 789.749, 599.299 789.101 C 599.904 788.496, 601.323 787.985, 602.450 787.967 C 605.549 787.918, 614.766 784.522, 616.802 782.679 C 620.525 779.310, 632 776.584, 632 779.069 C 632 780.227, 660.571 779.838, 667 778.592 C 668.925 778.219, 674.100 777.535, 678.500 777.071 C 682.900 776.607, 688.075 775.663, 690 774.972 C 691.925 774.282, 695.075 773.148, 697 772.453 C 703.330 770.170, 714.390 767.132, 720.816 765.912 C 726.264 764.878, 733.606 761.128, 730.367 761.033 C 729.745 761.015, 727.310 757.962, 724.956 754.250 C 716.348 740.669, 715.536 739.468, 713.784 737.711 C 711.321 735.242, 711.552 733.121, 714.403 732.037 C 715.724 731.534, 717.070 730.696, 717.393 730.173 C 717.985 729.215, 711.922 724, 710.217 724 C 709.713 724, 707.321 722.658, 704.900 721.018 C 700.900 718.308, 699.745 718.035, 692.200 718.018 C 686.590 718.006, 682.901 717.483, 680.816 716.405 C 679.120 715.528, 675.570 714.827, 672.928 714.847 C 665.908 714.902, 661.598 711.773, 661.198 706.331 C 660.755 700.307, 664.012 697.992, 672.885 698.024 C 676.523 698.037, 681.300 698.493, 683.500 699.037 C 705.252 704.415, 741 707.960, 741 704.740 C 741 701.569, 730.910 681.968, 726.476 676.524 C 720.603 669.313, 716.644 661.415, 714.215 652.061 C 712.473 645.357, 711.785 644.258, 705.041 637.407 C 701.030 633.333, 697.165 630, 696.451 630 C 695.737 630, 693.816 628.875, 692.182 627.500 C 690.548 626.125, 688.698 625, 688.070 625 C 685.925 625, 682 621.772, 682 620.007 C 682 616.519, 679.469 615.691, 671.240 616.487 C 658.937 617.678, 602.159 618.066, 601.478 616.964 C 600.714 615.728, 596.221 615.830, 593 617.156" stroke="#fc7143" fill="#fc7143" fill-opacity="0.2" fill-rule="evenodd"/><path class="svg-region-PP" d="M 433.500 611.885 C 432.400 612.231, 429.605 613.523, 427.290 614.757 C 424.974 615.991, 422.400 617, 421.570 617 C 420.213 617, 414.055 620.039, 411.500 621.969 C 410.950 622.384, 409.302 623.010, 407.838 623.359 C 404.063 624.259, 397.766 631.850, 396.014 637.612 C 394.104 643.895, 394.384 653.802, 396.843 666.919 C 398.884 677.807, 400.786 680.924, 405.421 680.978 C 406.478 680.990, 408.053 681.599, 408.921 682.331 C 409.790 683.062, 412.630 684.447, 415.234 685.407 C 421.374 687.672, 424.375 690.166, 424.519 693.123 C 424.748 697.838, 426.249 705.036, 427.115 705.571 C 427.602 705.872, 428 707.116, 428 708.337 C 428 709.557, 428.655 711.490, 429.456 712.634 C 430.257 713.777, 431.797 717.815, 432.879 721.606 C 435.073 729.295, 442.867 748.622, 445.226 752.223 C 447.400 755.539, 461.837 769.782, 464.525 771.261 C 465.764 771.942, 468.796 773.747, 471.264 775.272 C 476.981 778.804, 489.171 780.025, 495.547 777.705 C 498.846 776.504, 500.048 776.462, 502.047 777.478 C 509.252 781.137, 512.025 779.844, 507.986 774.709 C 505.262 771.246, 500.145 760.800, 498.507 755.358 C 497.212 751.055, 497.252 750.846, 499.836 748.430 C 501.301 747.060, 504.969 744.538, 507.987 742.827 C 513.114 739.919, 514.163 739.708, 523.987 739.608 C 533.828 739.507, 535.139 739.740, 544.500 743.254 C 550 745.318, 556.300 747.907, 558.500 749.007 C 560.700 750.106, 562.979 751.004, 563.564 751.003 C 564.149 751.001, 566.849 752.078, 569.564 753.395 C 572.279 754.713, 574.647 755.653, 574.828 755.485 C 575.008 755.316, 573.995 748.993, 572.578 741.434 C 570.968 732.852, 569.991 724.087, 569.976 718.095 C 569.962 712.818, 569.471 706.475, 568.884 704 C 567.567 698.446, 566.016 685.968, 565.404 676 C 565.151 671.875, 564.282 659.627, 563.472 648.782 C 562.662 637.937, 562 626.607, 562 623.604 L 562 618.144 556.250 617.423 C 553.087 617.026, 540.375 617.100, 528 617.588 C 515.625 618.076, 500.485 618.417, 494.356 618.345 C 484.085 618.225, 479.001 617.626, 453.500 613.533 C 441.363 611.585, 435.889 611.133, 433.500 611.885" stroke="#c4743d" fill="#c4743d" fill-opacity="0.2" fill-rule="evenodd"/><path class="svg-region-AVCl" d="M 715.760 731.282 C 713.703 732.502, 712.015 734.001, 712.010 734.612 C 712.004 735.224, 713.393 737.474, 715.096 739.612 C 716.799 741.751, 719.948 746.502, 722.094 750.171 C 729.749 763.259, 735.032 765.857, 747.274 762.555 C 754.215 760.683, 753.628 760.727, 760.500 761.564 C 765.867 762.219, 767.938 761.076, 771.646 755.418 C 773.178 753.079, 773.162 752.836, 771.390 751.503 C 769.559 750.125, 765.582 748.101, 756.750 744.052 C 740.474 736.590, 737.224 735.162, 735 734.494 C 733.625 734.081, 730.925 732.956, 729 731.994 C 723.012 729, 719.889 728.832, 715.760 731.282" stroke="#ffbab9" fill="#ffbab9" fill-opacity="0.2" fill-rule="evenodd"/><path class="svg-region-VMl" d="M 519.638 739.500 C 519.407 740.102, 521.835 744.549, 525.032 749.382 C 528.230 754.214, 532.100 761.168, 533.632 764.834 C 537.282 773.567, 540.265 778.075, 544.817 781.733 C 549.014 785.106, 556.229 789, 558.280 789 C 559.028 789, 561.409 790.498, 563.570 792.329 C 565.732 794.159, 569.858 796.971, 572.740 798.576 C 578.859 801.984, 581.299 806.602, 580.848 813.924 C 580.629 817.491, 580.923 818.554, 582.198 818.800 C 583.202 818.993, 584.076 818.227, 584.472 816.807 C 584.826 815.538, 585.713 812.925, 586.442 811 C 587.171 809.075, 588.302 805.025, 588.954 802 C 589.606 798.975, 590.874 793.495, 591.773 789.821 L 593.406 783.143 589.953 774.498 C 585.827 764.167, 580.389 758.498, 570.104 753.803 C 566.472 752.145, 561.244 749.711, 558.486 748.394 C 555.728 747.077, 552.878 746, 552.152 746 C 551.427 746, 547.411 744.630, 543.229 742.955 C 534.954 739.642, 520.402 737.510, 519.638 739.500" stroke="#e59376" fill="#e59376" fill-opacity="0.2" fill-rule="evenodd"/><path class="svg-region-PMl" d="M 256.500 718.412 C 251.621 720.580, 249.003 724.179, 248.363 729.595 C 247.555 736.436, 249.732 738.419, 257.185 737.629 C 268.700 736.409, 272.551 735.744, 273.750 734.770 C 276.703 732.372, 274.035 723.485, 269.101 719.286 C 266.113 716.742, 261.047 716.391, 256.500 718.412" stroke="#90cf92" fill="#90cf92" fill-opacity="0.2" fill-rule="evenodd"/><path class="svg-region-PV" d="M 259.709 594.624 C 259.319 595.014, 259 596.298, 259 597.478 C 259 599.202, 258.058 599.863, 254.193 600.854 C 251.550 601.531, 248.637 601.798, 247.721 601.447 C 246.102 600.825, 243.867 602.831, 230.500 616.894 L 226.500 621.103 230.358 619.493 C 232.480 618.607, 234.453 618.120, 234.744 618.410 C 235.467 619.134, 232.188 624, 230.977 624 C 228.439 624, 230.453 625.697, 234.359 626.851 C 238.983 628.216, 245.044 633.741, 248.783 640 C 249.933 641.925, 252.702 645.279, 254.937 647.453 C 257.172 649.627, 259 651.964, 259 652.646 C 259 653.328, 259.818 654.475, 260.817 655.193 C 261.816 655.912, 263.714 658.525, 265.035 661 C 266.356 663.475, 267.987 666.182, 268.660 667.015 C 270.698 669.537, 271.860 676.677, 270.917 680.876 C 270.379 683.269, 266.976 688.829, 262.023 695.408 C 256.614 702.593, 253.996 706.950, 253.986 708.783 C 253.961 713.825, 252.934 715.763, 249.973 716.355 C 246.992 716.952, 242 723.048, 242 726.093 C 242 728.575, 233.881 736.746, 230.599 737.567 C 228.907 737.990, 226.271 737.777, 224.274 737.054 C 222.391 736.374, 220.606 736.060, 220.308 736.359 C 220.010 736.657, 220.162 739.061, 220.647 741.701 C 221.375 745.668, 221.903 746.505, 223.693 746.531 C 224.884 746.548, 226.774 747.391, 227.894 748.404 C 229.215 749.599, 230.849 750.071, 232.545 749.747 C 233.983 749.472, 236.792 749.615, 238.786 750.064 C 240.967 750.556, 244.223 750.445, 246.956 749.784 C 256.423 747.496, 264.200 744.973, 266.284 743.513 C 267.473 742.681, 270.133 742, 272.197 742 C 275.331 742, 276.197 742.481, 277.457 744.917 L 278.966 747.835 283.233 745.749 C 285.580 744.602, 289.825 743.461, 292.667 743.214 C 297.779 742.771, 297.888 742.821, 302.793 747.883 C 305.643 750.825, 308.639 753, 309.841 753 C 312.823 753, 318.642 758.460, 319.331 761.904 C 319.652 763.510, 321.059 765.968, 322.457 767.366 C 323.856 768.765, 325 770.616, 325 771.480 C 325 772.424, 326.195 773.289, 328 773.650 C 331.406 774.331, 332.115 777.276, 329.258 778.875 C 326.486 780.427, 328.580 781.342, 332.098 780.116 C 333.858 779.502, 337.256 779, 339.649 779 C 342.042 779, 344 778.583, 344 778.073 C 344 776.652, 354.619 771.947, 359.848 771.052 C 367.388 769.760, 374.162 767.939, 379.500 765.768 C 382.250 764.650, 385.947 763.522, 387.715 763.262 C 389.483 763.002, 391.451 762.162, 392.087 761.395 C 392.724 760.628, 393.752 759.971, 394.372 759.935 C 394.993 759.899, 396.625 758.520, 398 756.871 C 399.375 755.222, 402.451 751.764, 404.835 749.186 C 407.219 746.609, 410.025 742.843, 411.070 740.818 C 412.116 738.793, 413.428 736.854, 413.986 736.509 C 415.341 735.671, 415.164 728.778, 413.614 722 C 412.024 715.049, 407.160 704.627, 403.221 699.731 C 400.397 696.221, 400.182 695.373, 400.096 687.388 C 400.045 682.672, 399.691 678.310, 399.310 677.693 C 397.765 675.193, 393.842 648.055, 394.518 644.538 C 395.664 638.567, 397.450 633, 398.218 633 C 398.648 633, 399 632.419, 399 631.709 C 399 630.999, 400.808 628.755, 403.018 626.724 C 406.204 623.794, 406.842 622.664, 406.101 621.265 C 405.587 620.294, 404.650 618.098, 404.017 616.384 C 402.066 611.092, 400.009 610.629, 384.361 611.956 C 372.337 612.976, 369.705 612.922, 364.500 611.548 C 361.200 610.677, 353.775 609.710, 348 609.399 C 336.281 608.769, 308.459 603.778, 300.001 600.789 C 287.892 596.510, 277.126 595.875, 270.863 599.070 C 268.632 600.208, 266.719 600.996, 266.613 600.820 C 266.507 600.644, 265.979 599.150, 265.440 597.500 C 264.498 594.616, 261.315 593.019, 259.709 594.624 M 257 718.121 C 249.792 720.986, 245.874 730.106, 249.483 735.615 C 251.089 738.065, 251.543 738.189, 256.847 737.616 C 268.603 736.346, 271.550 735.739, 273.250 734.237 C 275.153 732.555, 275.605 728.492, 274 727.500 C 273.450 727.160, 273 726.097, 273 725.137 C 273 724.178, 271.516 721.954, 269.702 720.196 C 266.194 716.795, 262.040 716.117, 257 718.121" stroke="#b09658" fill="#b09658" fill-opacity="0.2" fill-rule="evenodd"/><path class="svg-region-DV" d="M 225.500 625.724 C 222.713 626.409, 221.248 627.750, 216.984 633.522 C 212.239 639.945, 209.628 645.221, 208.088 651.500 C 207.414 654.250, 206.185 659.120, 205.359 662.321 C 201.766 676.241, 204.951 709.868, 210.436 715.929 C 211.296 716.880, 212 718.348, 212 719.191 C 212 720.035, 213.300 722.360, 214.888 724.359 C 216.477 726.358, 218.072 729.573, 218.435 731.503 C 218.966 734.336, 219.806 735.314, 222.796 736.579 C 228.660 739.060, 232.789 737.895, 237.709 732.372 C 240.024 729.774, 242.195 726.389, 242.533 724.851 C 243.338 721.186, 248.241 716, 250.901 716 C 252.056 716, 253 715.836, 253 715.636 C 253 715.437, 253.451 712.897, 254.001 709.993 C 254.808 705.741, 256.496 702.743, 262.670 694.606 C 267.735 687.930, 270.577 683.204, 271.047 680.681 C 271.836 676.434, 270.570 669.343, 268.607 667.015 C 267.904 666.182, 266.742 664.016, 266.023 662.201 C 265.305 660.387, 263.431 657.688, 261.858 656.204 C 260.286 654.721, 259 653.031, 259 652.449 C 259 651.868, 257.425 649.866, 255.500 648 C 253.575 646.134, 250.789 642.784, 249.308 640.554 C 244.177 632.828, 238.809 628.021, 233.578 626.467 C 230.861 625.660, 228.381 625.052, 228.068 625.116 C 227.756 625.180, 226.600 625.453, 225.500 625.724" stroke="#45567a" fill="#45567a" fill-opacity="0.2" fill-rule="evenodd"/><path class="svg-region-VV" d="M 285.744 744.428 C 283.679 745.165, 280.079 747.318, 277.744 749.212 C 271.777 754.053, 267.933 755.746, 256.500 758.565 C 245.757 761.214, 238.010 764.024, 238.004 765.275 C 237.999 766.335, 242.599 768, 245.534 768 C 246.857 768, 249.865 768.936, 252.219 770.080 C 257.743 772.763, 257.431 772.567, 266.405 779 C 270.624 782.025, 276.197 786.008, 278.788 787.852 L 283.500 791.204 292.500 790.521 C 308.905 789.277, 316.711 786.990, 327.250 780.341 C 331.904 777.405, 332.230 774.496, 328 773.650 C 326.195 773.289, 325 772.424, 325 771.480 C 325 770.616, 323.856 768.765, 322.457 767.366 C 321.059 765.968, 319.652 763.510, 319.331 761.904 C 318.642 758.460, 312.823 753, 309.841 753 C 308.646 753, 305.677 750.859, 302.906 748 C 298.551 743.505, 297.629 743.004, 293.781 743.044 C 291.426 743.068, 287.810 743.691, 285.744 744.428" stroke="#7699d1" fill="#7699d1" fill-opacity="0.2" fill-rule="evenodd"/><path class="svg-region-B" d="M 825.177 593.183 C 822.283 593.828, 819.555 595.445, 816.927 598.073 C 813.258 601.742, 812.618 602, 807.182 602 C 803.981 602, 798.919 602.734, 795.932 603.630 C 792.944 604.527, 786.606 605.347, 781.847 605.452 C 776.101 605.579, 772.406 606.151, 770.847 607.157 C 767.452 609.348, 759.973 611, 753.452 611 C 749.496 611, 746.375 611.711, 743.091 613.360 C 740.507 614.658, 735.717 616.055, 732.447 616.463 C 723.293 617.607, 717.300 621.644, 714.380 628.634 C 712.572 632.960, 712.603 648.122, 714.432 654.148 C 716.355 660.483, 721.631 670.958, 724.431 674 C 727.349 677.169, 734 687.175, 734 688.395 C 734 689.143, 737.512 696.898, 741.972 706 C 742.376 706.825, 744.011 707.898, 745.604 708.383 C 752.459 710.474, 760.661 714.521, 763.470 717.198 C 768.146 721.655, 780.007 728.766, 786.479 730.993 C 790.904 732.515, 794.992 733.011, 803.407 733.044 C 814.777 733.089, 822.414 734.439, 825.421 736.935 C 827.356 738.540, 836.625 739.562, 840.479 738.595 C 841.893 738.240, 844.767 736.398, 846.865 734.503 C 849.118 732.468, 854.327 729.650, 859.590 727.621 C 868.353 724.242, 881.056 717.941, 884 715.514 C 884.825 714.834, 887.750 713.007, 890.500 711.455 C 898.375 707.009, 902.739 703.232, 906.435 697.662 C 911.122 690.600, 912.173 687.493, 912.243 680.500 C 912.292 675.586, 911.643 673.117, 908.657 666.858 C 905.125 659.454, 905.058 659.105, 906.506 655.640 C 908.707 650.372, 908.353 646.100, 904.948 636.818 C 901.262 626.771, 899.270 623.650, 890.547 614.254 C 881.898 604.937, 878.850 602.833, 872.603 601.862 C 869.797 601.426, 864.478 599.498, 860.785 597.578 C 854.273 594.193, 853.891 594.119, 848.152 595.130 C 843.393 595.968, 841.673 595.888, 839.367 594.720 C 835.240 592.629, 830.141 592.077, 825.177 593.183" stroke="#e23b33" fill="#e23b33" fill-opacity="0.2" fill-rule="evenodd"/><path class="svg-region-VOC" d="M 480.651 467.250 C 478.404 480.038, 478.819 485.054, 482.408 488.510 C 488.341 494.224, 506.943 499.622, 524.500 500.727 L 531.500 501.167 528.584 498.105 C 526.241 495.646, 525.575 493.910, 525.195 489.272 C 524.890 485.556, 523.969 482.486, 522.611 480.652 C 518.912 475.662, 514.135 471.121, 510.768 469.393 C 508.970 468.472, 506.427 466.881, 505.115 465.859 C 503.128 464.310, 500.935 464, 491.976 464 L 481.223 464 480.651 467.250" stroke="#ff8f93" fill="#ff8f93" fill-opacity="0.2" fill-rule="evenodd"/><path class="svg-region-OABl" d="M 637.388 405.750 C 636.477 407.262, 634.441 410.426, 632.865 412.779 C 631.289 415.133, 630 417.684, 630 418.447 C 630 421.839, 628.728 423, 625.012 423 C 621.873 423, 620.788 423.590, 618.568 426.500 C 616.414 429.324, 615.223 430, 612.399 430 C 608.124 430, 603.345 432.336, 602.560 434.810 C 601.986 436.620, 603.069 445.210, 604.726 451.994 C 606.011 457.254, 608.524 457.083, 614.060 451.358 C 619.196 446.047, 620.113 445.265, 624.526 442.428 C 629.300 439.358, 629.917 438.822, 636.364 432.134 C 643.038 425.210, 644.873 420.580, 644.958 410.450 C 645.021 402.879, 640.726 400.212, 637.388 405.750" stroke="#81244d" fill="#81244d" fill-opacity="0.2" fill-rule="evenodd"/><path class="svg-region-SOTr" d="M 493.105 405.085 C 491.788 405.612, 489.927 405.794, 488.970 405.491 C 487.713 405.092, 485.534 406.905, 481.115 412.026 C 477.752 415.924, 475 419.931, 475 420.930 C 475 423.634, 483.255 430.770, 487.252 431.520 C 494.815 432.938, 496.172 432.154, 500.262 424 C 504.400 415.752, 504.446 413.112, 500.489 410.994 C 498.370 409.860, 498.032 409.132, 498.542 406.811 C 499.223 403.706, 497.734 403.233, 493.105 405.085" stroke="#995b45" fill="#995b45" fill-opacity="0.2" fill-rule="evenodd"/><path class="svg-region-BPCl" d="M 936.500 673.924 C 934.850 674.978, 929.675 679.509, 925 683.994 C 920.325 688.478, 914.416 693.220, 911.868 694.531 C 909.321 695.841, 905.808 698.717, 904.063 700.920 C 902.318 703.124, 897.428 707.048, 893.195 709.641 C 888.963 712.234, 884.825 714.914, 884 715.597 C 881.647 717.544, 864.829 725.705, 857.428 728.491 C 853.743 729.878, 849.016 732.559, 846.924 734.450 C 844.819 736.351, 841.501 738.191, 839.497 738.567 C 834.728 739.461, 827.418 738.591, 825.361 736.885 C 822.413 734.438, 814.701 733.089, 803.407 733.044 C 795.252 733.012, 790.881 732.504, 786.907 731.129 C 779.999 728.738, 769.738 722.707, 764.546 717.987 C 760.470 714.281, 750.200 709, 747.070 709 C 746.142 709, 744.509 708.339, 743.441 707.532 C 742.035 706.468, 738.673 706.055, 731.243 706.032 C 721.669 706.002, 704.615 703.533, 685.803 699.453 C 669.723 695.965, 661 698.262, 661 705.984 C 661 711.719, 665.200 714.946, 672.549 714.858 C 675.996 714.817, 678.944 715.389, 680.482 716.396 C 682.243 717.550, 685.314 718, 691.430 718 C 699.157 718, 700.361 718.273, 704.661 721 C 707.263 722.650, 709.783 724, 710.263 724 C 710.742 724, 712.566 725.051, 714.317 726.336 C 716.068 727.620, 719.525 729.152, 722 729.740 C 728.116 731.192, 743.454 737.584, 755.232 743.588 C 757.834 744.915, 760.512 746, 761.183 746 C 761.854 746, 764.787 747.445, 767.702 749.211 C 771.885 751.747, 772.873 752.823, 772.396 754.326 C 771.846 756.059, 772.182 756.172, 776.146 755.589 C 781.897 754.742, 783.486 754.727, 790 755.461 C 793.025 755.802, 798.650 756.213, 802.500 756.374 C 806.350 756.536, 810.936 756.997, 812.691 757.400 C 814.579 757.834, 816.733 757.678, 817.964 757.019 C 819.718 756.081, 821.783 756.779, 831.082 761.453 C 842.030 766.956, 842.189 767, 851.131 767 C 859.054 767, 860.685 766.683, 864.621 764.376 C 867.084 762.933, 871.202 759.316, 873.772 756.339 C 877.535 751.981, 879.468 750.629, 883.695 749.400 C 890.031 747.558, 893.085 745.979, 899 741.488 C 901.475 739.609, 906.532 736, 910.238 733.467 C 917.200 728.709, 933.068 712.387, 938.715 704.175 C 940.483 701.604, 941.961 698.150, 942 696.500 C 942.039 694.850, 942.714 692.375, 943.500 691 C 945.341 687.779, 945.401 681.577, 943.605 680.087 C 942.837 679.450, 941.917 677.370, 941.559 675.464 C 940.806 671.448, 940.515 671.359, 936.500 673.924" stroke="#83385f" fill="#83385f" fill-opacity="0.2" fill-rule="evenodd"/><path class="svg-region-AMC" d="M 506 743.696 C 497.582 749.198, 496.951 750.188, 498.528 755.427 C 500.059 760.512, 505.090 770.913, 507.989 774.984 C 510.332 778.274, 510.555 780, 508.639 780 C 505.357 780, 508.849 785.515, 518.403 795.423 C 524.013 801.240, 529.045 806, 529.586 806 C 530.512 806, 532.443 807.860, 544.902 820.752 C 547.693 823.640, 551.179 827.915, 552.649 830.252 C 557.295 837.637, 565.136 846.001, 567.400 845.987 C 568.555 845.980, 573.555 846.512, 578.510 847.169 C 586.877 848.280, 587.664 848.584, 589.524 851.422 C 591.567 854.538, 593.956 855.615, 596.589 854.604 C 597.754 854.157, 597.325 852.971, 594.530 848.908 C 592.589 846.085, 591 843.068, 591 842.202 C 591 841.337, 590.045 839.613, 588.878 838.370 C 587.047 836.421, 586.757 834.907, 586.760 827.306 C 586.762 822.463, 587.094 816.528, 587.499 814.118 C 588.421 808.630, 586.599 809.270, 584.869 815.042 C 583.075 821.031, 581 820.178, 581 813.450 C 581 805.036, 578.478 800.983, 571 797.380 C 569.075 796.452, 565.732 794.187, 563.570 792.347 C 561.409 790.506, 559.028 789, 558.280 789 C 556.229 789, 549.014 785.106, 544.817 781.733 C 540.706 778.429, 537.095 773.356, 535.042 768 C 532.131 760.408, 530.394 757.167, 524.726 748.750 C 519.084 740.372, 518.677 740.002, 515.167 740.051 C 512.705 740.085, 509.692 741.283, 506 743.696" stroke="#9d4741" fill="#9d4741" fill-opacity="0.2" fill-rule="evenodd"/>
    </svg>