<svg xmlns="http://www.w3.org/2000/svg" width="1078" height="1151" viewBox="0 0 1078 1151" version="1.1">
    <path class="svg-region-V" d="M 498.500 193.922 C 492.395 194.392, 486.574 195.639, 480.401 197.801 C 475.396 199.553, 468.646 201.387, 465.401 201.876 C 462.155 202.364, 454.580 204.214, 448.566 205.986 C 433.565 210.406, 427.681 214.226, 420.058 224.500 C 416.612 229.143, 406.844 245.547, 401.301 256 C 399.988 258.475, 397.968 262.075, 396.812 264 C 395.656 265.925, 393.362 269.975, 391.715 273 C 390.067 276.025, 388.159 279.175, 387.474 280 C 386.789 280.825, 385.100 283.750, 383.722 286.500 C 382.344 289.250, 380.272 292.354, 379.117 293.397 C 377.962 294.440, 375.927 297.156, 374.593 299.431 C 373.260 301.707, 369.768 305.803, 366.834 308.534 C 357.990 316.767, 354.948 321.691, 354.498 328.500 C 354.353 330.700, 353.692 338.006, 353.030 344.736 C 352.105 354.141, 352.097 359.050, 352.994 365.952 C 353.636 370.890, 353.906 375.342, 353.596 375.845 C 353.285 376.348, 354.186 378.932, 355.598 381.588 C 357.010 384.243, 358.830 388.375, 359.642 390.768 C 360.455 393.161, 362.358 397.071, 363.870 399.457 C 365.383 401.842, 367.419 406.430, 368.395 409.652 C 370.701 417.268, 371.407 418.130, 378.399 421.861 C 383.152 424.397, 385.457 425, 390.405 425 C 397.405 425, 405.479 422.398, 410.602 418.490 C 412.493 417.048, 415.587 415.617, 417.477 415.310 C 421.470 414.662, 422.866 413.301, 426.409 406.601 C 429.725 400.332, 429.959 390.679, 427 382.260 C 424.151 374.154, 424.414 369.395, 428.099 362.391 C 431.586 355.762, 439.950 346.627, 444.548 344.424 C 448.835 342.370, 454.460 336.660, 456.547 332.244 C 458.175 328.799, 485.040 301.005, 486.750 300.996 C 487.163 300.994, 488.298 299.052, 489.273 296.680 C 493.493 286.416, 502.668 280.673, 515.018 280.565 C 522.480 280.500, 522.575 280.533, 527.755 284.896 C 530.626 287.313, 533.880 290.826, 534.986 292.700 C 536.360 295.029, 538.770 296.921, 542.590 298.670 C 547.610 300.968, 549.135 301.189, 557.477 300.824 C 565.475 300.474, 567.331 300.046, 570.793 297.756 C 577.922 293.038, 582.312 287.735, 590.461 274 C 595.036 266.288, 598.329 263.388, 606.453 259.914 C 612.026 257.531, 612.521 257.061, 612.771 253.914 C 613.024 250.719, 612.638 250.243, 606.771 246.500 C 602.593 243.835, 600.393 241.749, 600.180 240.250 C 600.005 239.012, 599.317 238, 598.652 238 C 597.986 238, 594.533 235.065, 590.977 231.477 C 587.117 227.583, 580.944 222.877, 575.656 219.800 C 565.348 213.800, 561.997 210.721, 558.813 204.324 C 555.964 198.598, 550.941 196.053, 540 194.793 C 529.163 193.545, 508.922 193.120, 498.500 193.922" stroke="#dd8a8a" fill="#dd8a8a" fill-opacity="0.2" fill-rule="evenodd"/><path class="svg-region-SV" d="M 506.797 281.287 C 499.392 283.197, 493.440 288.032, 490.249 294.730 C 488.737 297.904, 487.124 300.663, 486.665 300.862 C 483.984 302.023, 457.897 329.193, 456.165 332.628 C 454.073 336.777, 445.707 345, 443.578 345 C 441.579 345, 431.398 356.293, 428.141 362.122 C 424.357 368.895, 424.085 374.069, 427.065 382.593 C 430.254 391.716, 429.533 401.818, 425.191 408.858 C 421.981 414.061, 421.938 414.274, 423.693 416.216 C 425.731 418.472, 433.123 422.383, 437.205 423.365 C 438.693 423.723, 441.126 425.609, 442.612 427.557 C 446.644 432.844, 452.769 435.964, 462.027 437.446 C 468.390 438.465, 470.722 439.318, 472.930 441.433 C 475.344 443.746, 475.827 443.893, 476.369 442.480 C 477.457 439.645, 476.997 434.580, 475.468 432.559 C 474.661 431.491, 474 429.882, 474 428.983 C 474 426.770, 477.873 423.304, 481.293 422.455 C 484.484 421.663, 492.980 424.469, 493.033 426.333 C 493.104 428.825, 496.863 432, 499.743 432 C 502.656 432, 505.635 429.113, 510.272 421.797 C 511.342 420.107, 513.207 418.870, 515.242 418.497 C 517.034 418.168, 530.650 418.274, 545.500 418.732 L 572.500 419.564 575.610 416.936 C 577.320 415.490, 581.234 412.869, 584.306 411.111 C 589.938 407.889, 591.566 405.639, 590.423 402.659 C 589.951 401.430, 589.356 401.275, 587.966 402.018 C 583.727 404.287, 570.551 402.649, 567.091 399.424 C 565.774 398.197, 564.637 391.162, 563.367 376.376 C 562.917 371.138, 562.478 370.059, 560.334 368.911 C 555.139 366.131, 549 356.253, 549 350.675 C 549 347.743, 548.604 347.168, 546.250 346.683 C 538.429 345.069, 531 337.297, 531 330.729 C 531 327.089, 536.504 320.416, 540.986 318.622 C 545.121 316.968, 545.567 316.118, 546.294 308.500 C 546.504 306.300, 546.998 303.777, 547.390 302.893 C 547.940 301.655, 546.850 300.672, 542.651 298.617 C 539.651 297.150, 536.426 294.723, 535.484 293.225 C 534.542 291.726, 531.461 288.311, 528.636 285.636 C 523.832 281.087, 523.112 280.750, 517.500 280.423 C 514.200 280.231, 509.384 280.620, 506.797 281.287 M 479.531 445.950 C 479.208 446.472, 479.806 447.361, 480.861 447.925 C 483.255 449.207, 490.116 458.487, 491.637 462.500 C 492.896 465.824, 493.127 465.483, 494.963 457.602 C 496.243 452.106, 496.032 451.731, 490.700 450.027 C 488.609 449.358, 486.364 447.954, 485.709 446.906 C 484.466 444.916, 480.545 444.309, 479.531 445.950" stroke="#c666b5" fill="#c666b5" fill-opacity="0.2" fill-rule="evenodd"/><path class="svg-region-SF" d="M 613 254.051 C 613 256.644, 612.438 257.326, 609.250 258.596 C 601.213 261.797, 593 267.168, 593 269.223 C 593 270.967, 582.596 286.579, 578.585 290.853 C 576.338 293.248, 572.813 296.291, 570.750 297.616 C 567.160 299.923, 567 300.260, 567 305.552 C 567 309.050, 567.713 312.477, 568.941 314.885 C 571.183 319.280, 576.989 324.708, 580.349 325.551 C 582.581 326.112, 582.645 326.418, 582.192 334.316 C 581.733 342.305, 581.618 342.616, 577.374 347.343 C 572.442 352.837, 570.514 358.439, 571.380 364.757 C 572.867 375.606, 580.598 382.527, 593.356 384.430 C 597.066 384.983, 599.239 386.101, 602.562 389.164 C 605.212 391.606, 607.385 392.880, 608.124 392.423 C 608.791 392.011, 612.852 391.365, 617.148 390.987 C 623.149 390.459, 625.833 389.704, 628.730 387.727 C 630.803 386.312, 634.372 384.663, 636.659 384.063 C 643.740 382.205, 660 368.621, 660 364.562 C 660 362.267, 672.888 347.375, 676.607 345.372 C 679.582 343.770, 680 343.059, 680 339.601 C 680 337.432, 679.398 334.947, 678.662 334.079 C 677.927 333.210, 676.759 329.866, 676.068 326.646 C 675.376 323.427, 673.971 319.371, 672.946 317.633 C 671.921 315.895, 669.725 311.184, 668.067 307.162 C 666.409 303.141, 663.756 297.072, 662.172 293.676 C 658.131 285.014, 654.200 275.862, 653.506 273.500 C 653.182 272.400, 651.124 270.150, 648.932 268.500 C 646.739 266.850, 644.267 264.890, 643.438 264.144 C 641.078 262.021, 627.332 255, 625.535 255 C 624.647 255, 622.156 254.100, 620 253 C 614.450 250.169, 613 250.387, 613 254.051" stroke="#8c6b55" fill="#8c6b55" fill-opacity="0.2" fill-rule="evenodd"/><path class="svg-region-IF" d="M 676.500 345.158 C 672.381 347.417, 660 362.056, 660 364.666 C 660 366.562, 652.348 374.715, 647.589 377.890 C 640.239 382.794, 638.488 383.686, 634.882 384.362 C 632.898 384.735, 630.470 385.928, 629.487 387.014 C 627.270 389.464, 621.994 390.987, 615.702 390.994 C 612.961 390.998, 609.129 391.857, 606.764 393 C 604.487 394.100, 601.696 395.007, 600.562 395.016 C 599.428 395.025, 596.700 396.052, 594.500 397.298 C 590.896 399.339, 590.491 399.966, 590.408 403.635 L 590.317 407.707 597.408 406.325 C 614.606 402.972, 629.039 402.125, 645.868 403.481 C 655.159 404.230, 656.717 404.646, 660.868 407.485 C 663.416 409.227, 668.650 412.491, 672.500 414.737 C 680.729 419.538, 699.570 437.439, 700.565 441.401 C 701.349 444.525, 703.705 446, 707.914 446 C 710.398 446, 711.341 445.309, 713.032 442.250 C 714.172 440.188, 716.198 436.700, 717.536 434.500 C 718.873 432.300, 719.975 429.353, 719.984 427.950 C 719.993 426.547, 720.465 424.935, 721.034 424.366 C 722.823 422.577, 724.210 412.984, 724.700 399 C 725.076 388.287, 724.864 384.881, 723.676 382.500 C 722.852 380.850, 720.707 376.125, 718.909 372 C 717.111 367.875, 714.371 363.129, 712.820 361.452 C 711.269 359.776, 710 357.948, 710 357.389 C 710 355.329, 704.368 351.139, 700.068 349.999 C 697.631 349.353, 694.039 347.739, 692.086 346.412 C 688.196 343.769, 680.204 343.126, 676.500 345.158" stroke="#f2823b" fill="#f2823b" fill-opacity="0.2" fill-rule="evenodd"/><path class="svg-region-PF" d="M 556.393 300.742 C 548.859 301.053, 548.206 301.254, 547.143 303.585 C 546.514 304.965, 545.993 307.985, 545.985 310.297 C 545.966 315.536, 545.509 316.220, 540.251 318.885 C 537.877 320.089, 534.847 322.785, 533.384 324.996 C 531.169 328.342, 530.867 329.629, 531.424 333.340 C 531.817 335.963, 532.970 338.530, 534.291 339.722 C 538.466 343.489, 544.467 347, 546.732 347 C 548.661 347, 549 347.528, 549 350.533 C 549 355.605, 553.250 363.273, 558.485 367.650 C 562.874 371.318, 563 371.584, 563 377.153 C 563 380.304, 563.450 383.160, 564 383.500 C 564.550 383.840, 565 386.967, 565 390.448 C 565 397.685, 566.461 400.108, 571.899 401.887 C 578.454 404.033, 591 402.701, 591 399.860 C 591 398.627, 598.593 395.002, 601.210 394.985 C 602.470 394.976, 604.170 394.546, 604.988 394.028 C 607.252 392.597, 600.645 386.228, 595.528 384.908 C 582.585 381.569, 581.200 380.940, 577.176 376.575 C 570.586 369.425, 569.478 360.863, 573.999 352.002 C 575.069 349.905, 577.252 347.133, 578.850 345.844 C 581.560 343.658, 581.790 342.917, 582.262 334.824 L 582.769 326.147 579.689 324.871 C 575.177 323.002, 570.114 318.209, 568.453 314.233 C 567.654 312.320, 567 308.336, 567 305.378 C 567 301.634, 566.620 300.062, 565.750 300.204 C 565.063 300.315, 560.852 300.558, 556.393 300.742" stroke="#faaaaa" fill="#faaaaa" fill-opacity="0.2" fill-rule="evenodd"/><path class="svg-region-AAB" d="M 646.368 405.213 C 645.956 405.881, 645.320 408.392, 644.955 410.794 C 644.365 414.684, 644.533 415.252, 646.490 415.996 C 649.977 417.322, 651.490 422.139, 650.025 427.250 C 647.640 435.568, 647.572 438, 649.724 438 C 652.566 438, 652.909 438.745, 651.843 442.605 C 650.428 447.732, 641.629 459.888, 632.605 469.183 C 628.286 473.633, 620.950 477.246, 617.042 476.849 C 615.064 476.648, 613.264 477.912, 608.930 482.545 C 605.867 485.820, 602.267 489.664, 600.930 491.086 C 599.594 492.508, 594.331 496.955, 589.235 500.968 L 579.971 508.265 581.789 511.382 L 583.607 514.500 594.428 514.785 C 602.038 514.986, 606.474 514.634, 609.375 513.602 C 611.644 512.794, 615.975 511.876, 619 511.562 C 634.197 509.982, 646.202 507.380, 652.217 504.365 C 654.811 503.064, 657.961 501.998, 659.217 501.996 C 662.182 501.991, 666.572 499.202, 671.222 494.369 C 673.269 492.241, 678.270 487.125, 682.336 483 C 686.401 478.875, 692.151 472.575, 695.114 469 C 698.076 465.425, 700.725 462.275, 701 462 C 703.506 459.494, 707.883 452.841, 708.828 450.101 C 710.315 445.787, 710.362 446, 707.934 446 C 704.709 446, 702.168 444.227, 700.367 440.720 C 698.079 436.267, 680.582 419.451, 674.500 415.861 C 667.654 411.820, 666.313 410.985, 660.679 407.250 C 655.495 403.814, 647.901 402.733, 646.368 405.213" stroke="#7f3c1a" fill="#7f3c1a" fill-opacity="0.2" fill-rule="evenodd"/><path class="svg-region-APB" d="M 619.500 403.063 C 608.181 404.046, 593.971 406.513, 589.500 408.269 C 585.005 410.034, 577.161 415.330, 571.169 420.643 C 563.393 427.539, 557.536 439.903, 553.590 457.751 C 551.962 465.120, 549.864 471.401, 545.102 483.167 C 543.192 487.887, 542 492.602, 542 495.436 C 542 498.624, 541.231 501.258, 539.500 504 C 536.721 508.403, 536.220 514.077, 538.418 516.275 C 540.078 517.935, 554.939 519.461, 556.290 518.110 C 556.820 517.580, 558.685 517.628, 560.844 518.227 C 562.855 518.785, 567.650 518.992, 571.500 518.688 C 579.529 518.052, 587.318 515.720, 584.729 514.726 C 583.836 514.383, 582.425 512.789, 581.595 511.184 L 580.086 508.265 589.799 500.657 C 595.142 496.473, 600.364 492.026, 601.404 490.775 C 602.445 489.524, 605.659 485.994, 608.546 482.932 C 613.595 477.575, 613.776 477.190, 613.284 472.832 C 612.913 469.533, 613.349 467, 614.887 463.523 C 616.305 460.318, 617 456.684, 617 452.480 C 617 447.833, 617.388 446.065, 618.500 445.638 C 619.325 445.322, 620 444.258, 620 443.274 C 620 441.471, 626.007 437.277, 632.440 434.590 C 634.935 433.547, 636.409 431.829, 638.379 427.663 C 639.821 424.617, 641 420.776, 641 419.129 C 641 417.013, 641.587 415.949, 643 415.500 C 644.498 415.025, 645 413.987, 645 411.367 C 645 409.443, 645.440 407.046, 645.978 406.041 C 646.813 404.481, 646.484 404.133, 643.728 403.660 C 636.528 402.424, 628.989 402.238, 619.500 403.063" stroke="#ac7444" fill="#ac7444" fill-opacity="0.2" fill-rule="evenodd"/><path class="svg-region-PC" d="M 513.356 418.966 C 511.230 419.850, 503 430.438, 503 432.291 C 503 432.854, 504.640 432.993, 506.940 432.626 L 510.879 431.996 511.190 435.748 C 511.521 439.752, 512.048 439.953, 518.250 438.438 C 520.692 437.842, 521 438.045, 521 440.249 C 521 441.614, 520.046 443.943, 518.879 445.426 L 516.759 448.122 514.418 445.923 L 512.078 443.724 508.431 446.926 C 505.946 449.108, 503.943 450.043, 502.142 449.861 C 497.367 449.379, 496.022 451.060, 494.335 459.623 L 492.760 467.617 495.433 473.558 C 500.243 484.252, 501.156 485.745, 503.718 487.117 C 505.110 487.862, 509.005 491.424, 512.375 495.033 C 515.744 498.643, 520.167 502.850, 522.205 504.382 C 525.657 506.978, 526.343 507.122, 532.240 506.491 C 537.897 505.885, 538.753 505.495, 540.285 502.825 C 541.228 501.182, 542 497.861, 542 495.445 C 542 492.871, 543.284 487.832, 545.100 483.276 C 549.880 471.288, 552.679 463.022, 553.996 457 C 557.171 442.485, 562.991 429.035, 568.812 422.760 C 570.210 421.254, 571.162 419.852, 570.927 419.645 C 569.954 418.788, 515.335 418.144, 513.356 418.966" stroke="#cda789" fill="#cda789" fill-opacity="0.2" fill-rule="evenodd"/><path class="svg-region-DB" d="M 414.001 416.123 C 412.626 416.672, 410.557 418.007, 409.404 419.090 C 406.058 422.234, 397.165 425, 390.405 425 C 385.513 425, 383.148 424.395, 378.641 421.990 C 372.131 418.516, 371.380 419.474, 375.500 426 C 376.875 428.178, 378 430.203, 378 430.500 C 378 430.797, 379.091 432.768, 380.424 434.880 C 382.126 437.575, 383.792 438.908, 386.015 439.353 C 389.261 440.002, 399.074 444.585, 399.990 445.879 C 400.956 447.244, 411.032 453, 412.456 453 C 413.240 453, 414.160 453.450, 414.500 454 C 414.840 454.550, 417.769 455, 421.008 455 C 426.650 455, 427.016 455.158, 429.699 458.750 C 431.240 460.813, 432.837 462.650, 433.250 462.833 C 433.663 463.017, 434 463.768, 434 464.503 C 434 466.084, 443.863 475.085, 447.775 477.074 C 449.274 477.837, 453.799 480.719, 457.832 483.480 C 470.699 492.289, 473.434 493.919, 476.500 494.601 C 478.150 494.968, 481.016 496.298, 482.869 497.557 C 486.919 500.309, 489 499.773, 489 495.977 C 489 492.747, 495.569 485, 498.308 485 C 499.239 485, 500 484.887, 499.999 484.750 C 499.998 483.933, 495.599 473.135, 493.957 469.915 C 492.880 467.806, 492 465.009, 492 463.701 C 492 459.690, 480.753 446, 477.458 446 C 476.656 446, 476 445.544, 476 444.986 C 476 444.428, 474.555 442.681, 472.788 441.102 C 470.223 438.810, 468.268 438.099, 463.069 437.566 C 454.473 436.685, 449.147 434.199, 443.889 428.612 C 441.067 425.613, 437.928 423.473, 434.855 422.452 C 432.264 421.591, 428.316 419.563, 426.081 417.944 C 421.885 414.904, 418.382 414.376, 414.001 416.123" stroke="#e8b1e4" fill="#e8b1e4" fill-opacity="0.2" fill-rule="evenodd"/><path class="svg-region-MB" d="M 382 439.428 C 382 443.582, 390.567 460.472, 395.192 465.436 C 397.733 468.164, 397.459 474.125, 394.407 482.500 C 389.729 495.337, 389.638 495.908, 391.666 499.726 C 393.752 503.655, 396.445 505.287, 405.283 507.980 C 427.358 514.707, 444.127 517.025, 475.500 517.689 C 506.681 518.349, 507.416 518.253, 499.500 514.533 C 492.008 511.013, 489.084 507.721, 489.036 502.750 C 489.005 499.493, 488.692 499, 486.655 499 C 485.365 499, 483.545 498.154, 482.609 497.120 C 481.673 496.087, 479.161 494.961, 477.025 494.620 C 474.889 494.278, 472.467 493.324, 471.642 492.500 C 470.818 491.675, 469.693 491, 469.143 491 C 468.593 491, 467.548 490.426, 466.821 489.725 C 465.044 488.009, 451.193 478.812, 447.741 477.056 C 444.929 475.626, 436.716 468.101, 434 464.467 C 426.424 454.332, 427.299 455, 421.603 455 C 415.638 455, 413.080 453.936, 401 446.432 C 391.764 440.695, 382 437.096, 382 439.428" stroke="#f9c6c6" fill="#f9c6c6" fill-opacity="0.2" fill-rule="evenodd"/><path class="svg-region-AP" d="M 557 607.868 C 556.175 608.313, 552.800 609.285, 549.500 610.030 C 546.200 610.774, 543.169 611.859, 542.765 612.442 C 542.361 613.024, 542.024 618.610, 542.015 624.856 C 541.999 637.231, 542.995 642.255, 548.685 658.500 C 550.611 664, 553.037 671.650, 554.076 675.500 C 560.078 697.738, 559.965 697.029, 559.983 712.812 C 559.995 723.990, 560.424 729.422, 561.572 732.930 L 563.144 737.735 568.490 738.287 C 575.970 739.059, 580 742.672, 580 748.606 C 580 750.958, 579.550 753.160, 579 753.500 C 576.475 755.061, 579.404 766.832, 582.635 768.106 C 583.661 768.510, 586.258 770.689, 588.406 772.948 C 593.708 778.522, 597.869 780.380, 603.234 779.567 C 605.580 779.211, 615.375 778.684, 625 778.395 C 639.126 777.971, 643.560 777.481, 648 775.855 C 652.926 774.051, 656.088 773.830, 678.281 773.735 C 697.943 773.652, 703.297 773.347, 704.199 772.261 C 706.376 769.637, 709.304 768.795, 719.249 767.931 C 729.855 767.010, 731.573 766.309, 737.059 760.663 C 742.685 754.873, 745.235 751.056, 744.594 749.384 C 744.264 748.524, 744.332 747.298, 744.747 746.660 C 745.161 746.022, 745.538 743.250, 745.584 740.500 C 745.630 737.750, 746.270 731.292, 747.007 726.150 C 748.502 715.714, 748.530 715.819, 741.126 704 C 735.978 695.784, 731.300 685.046, 726.391 670.176 C 723.971 662.848, 721.442 655.873, 720.770 654.676 C 718.934 651.403, 717.136 642.223, 717.064 635.750 C 717.016 631.423, 716.641 630, 715.550 630 C 714.752 630, 713.740 630.614, 713.300 631.365 C 712 633.583, 706.370 636, 702.504 636 C 700.003 636, 698.149 635.239, 696.409 633.500 C 695.034 632.125, 693.571 631, 693.158 631 C 690.795 631, 675 613.074, 675 610.392 C 675 608.600, 674.716 608.617, 664.289 611.053 C 656.525 612.867, 652.117 613.113, 626.493 613.157 C 610.131 613.186, 595.745 612.769, 593.493 612.200 C 591.297 611.646, 585 610.663, 579.500 610.015 C 574 609.368, 567.613 608.424, 565.307 607.919 C 560.277 606.816, 558.969 606.809, 557 607.868" stroke="#fc7143" fill="#fc7143" fill-opacity="0.2" fill-rule="evenodd"/><path class="svg-region-PP" d="M 538 612.206 C 535.525 612.752, 531.361 614.729, 528.748 616.599 C 526.134 618.470, 523.428 620, 522.734 620 C 522.041 620, 519.135 618.425, 516.276 616.500 C 512.813 614.168, 509.919 613, 507.603 613 C 504.437 613, 504.099 613.281, 503.813 616.149 C 503.443 619.873, 501.098 621.715, 498.386 620.413 C 497.349 619.916, 492.152 619.507, 486.838 619.504 C 478.289 619.500, 476.906 619.248, 474.838 617.317 C 472.580 615.208, 471.850 615.143, 453.500 615.418 C 443.050 615.575, 433.825 615.960, 433 616.275 C 430.165 617.358, 424.495 618.832, 420.750 619.461 C 418.688 619.807, 417 620.435, 417 620.857 C 417 622.819, 412.676 626, 410.008 626 C 406.016 626, 403.009 627.620, 399.707 631.550 C 397.329 634.379, 396.765 636.261, 395.918 644.187 C 395.370 649.309, 394.490 654.805, 393.961 656.399 C 392.043 662.184, 393.651 672.686, 397.597 680.154 C 398.369 681.614, 399 683.717, 399 684.828 C 399 685.938, 400.093 688.145, 401.428 689.732 C 402.870 691.445, 403.987 694.217, 404.178 696.552 C 404.436 699.699, 405.050 700.748, 407.250 701.797 C 408.762 702.519, 410 703.683, 410 704.385 C 410 706.438, 418.072 711.559, 423.500 712.949 C 430.524 714.748, 443.504 721.126, 449.931 725.936 C 452.917 728.171, 455.892 730, 456.540 730 C 458.044 730, 467 737.844, 467 739.161 C 467 739.705, 468.800 743.233, 471 747 C 473.200 750.767, 475 754.628, 475 755.580 C 475 756.532, 476.125 758.786, 477.500 760.589 C 478.875 762.392, 480 764.342, 480 764.923 C 480 765.504, 482.332 768.571, 485.183 771.739 C 489.679 776.736, 492.319 778.608, 501.184 783.084 C 504.459 784.738, 514.966 788, 517.016 788 C 518.965 788, 518.897 787.711, 515.932 783.402 C 513.209 779.443, 512.923 778.464, 513.880 776.364 C 514.491 775.023, 515.237 771.354, 515.538 768.212 C 515.839 765.071, 516.836 758.515, 517.755 753.645 C 519.171 746.132, 519.772 744.657, 521.712 743.919 C 522.998 743.431, 524 742.210, 524 741.133 C 524 739.393, 525.037 739.161, 535.250 738.618 C 541.438 738.289, 550.155 737.745, 554.622 737.410 L 562.744 736.800 561.719 733.150 C 561.155 731.142, 560.403 721.175, 560.048 711 C 559.522 695.963, 559.009 691.377, 557.305 686.500 C 556.153 683.200, 554.881 678.925, 554.480 677 C 554.078 675.075, 551.987 668.325, 549.832 662 C 542.531 640.573, 541.788 636.818, 542.162 623.250 C 542.348 616.512, 542.500 611.048, 542.500 611.107 C 542.500 611.166, 540.475 611.661, 538 612.206" stroke="#c4743d" fill="#c4743d" fill-opacity="0.2" fill-rule="evenodd"/><path class="svg-region-VMr" d="M 546 738 C 544.625 738.440, 539.225 738.849, 534 738.908 C 524.707 739.013, 524.473 739.074, 523.250 741.707 C 520.850 746.875, 521.683 752.128, 526.003 759.069 C 528.204 762.606, 530.974 767.075, 532.157 769 C 534.941 773.530, 543.728 781.038, 548.090 782.615 C 549.966 783.293, 553.386 783.882, 555.691 783.924 C 557.996 783.966, 560.160 784.450, 560.500 785 C 560.840 785.550, 562.921 786, 565.125 786 C 570.989 786, 573 787.413, 573 791.535 C 573 793.888, 573.463 795, 574.443 795 C 576.774 795, 579 790.868, 579.006 786.527 C 579.009 784.312, 579.481 780.807, 580.056 778.738 C 580.802 776.050, 580.764 772.910, 579.922 767.738 C 578.652 759.935, 578.602 757.340, 579.566 749.273 C 580.183 744.102, 578.904 741, 576.155 741 C 575.611 741, 575.017 740.552, 574.833 740.004 C 574.107 737.833, 551.440 736.258, 546 738" stroke="#e59376" fill="#e59376" fill-opacity="0.2" fill-rule="evenodd"/><path class="svg-region-PMr" d="M 258 709.500 C 256.625 710.286, 254.406 710.945, 253.070 710.965 C 249.268 711.020, 242 719.371, 242 723.684 C 242 728.754, 245.944 732.352, 250.804 731.715 C 255.775 731.064, 265.075 728.325, 266.226 727.174 C 267.225 726.175, 268.862 720.546, 269.708 715.205 C 270.689 709.007, 264.305 705.896, 258 709.500" stroke="#90cf92" fill="#90cf92" fill-opacity="0.2" fill-rule="evenodd"/><path class="svg-region-PV" d="M 269.500 593.847 C 268.950 594.368, 266.700 595.006, 264.500 595.263 C 255.290 596.339, 247.383 600.480, 238.044 609.119 C 233.654 613.178, 228.491 617.625, 226.570 619 C 221.961 622.298, 221.572 623.607, 224.573 625.732 C 225.945 626.704, 228.690 628.737, 230.672 630.250 C 232.654 631.763, 234.595 633, 234.986 633 C 235.376 633, 236.488 634.913, 237.456 637.250 C 238.424 639.587, 239.895 642.784, 240.726 644.354 C 243.282 649.186, 241.877 654.865, 237.101 659.002 C 232.153 663.288, 232.341 664.817, 238.908 673.735 C 241.434 677.165, 243.739 681.215, 244.031 682.735 C 244.322 684.256, 243.961 689.100, 243.229 693.501 L 241.896 701.502 246.319 706.251 C 251.087 711.372, 254.668 712.322, 258.441 709.468 C 261.135 707.430, 266.346 707.620, 268.345 709.829 C 270.136 711.808, 270.518 716.117, 269.141 718.816 C 268.668 719.742, 268.011 721.930, 267.680 723.677 C 267.094 726.775, 267.198 726.883, 271.790 727.984 C 274.380 728.605, 278.300 729.553, 280.500 730.089 C 282.700 730.626, 286.525 731.300, 289 731.587 C 296.017 732.401, 303.714 734.946, 313.427 739.664 C 318.338 742.049, 323.063 744.003, 323.927 744.006 C 324.792 744.010, 326.672 744.624, 328.105 745.372 C 330.660 746.705, 336.937 748.307, 344.118 749.460 C 348.106 750.101, 353.985 755.136, 356.563 760.122 C 357.424 761.787, 358.391 766.281, 358.712 770.107 C 359.033 773.934, 359.646 777.281, 360.075 777.546 C 360.503 777.811, 364.319 776.896, 368.554 775.514 C 372.790 774.131, 376.998 773, 377.906 773 C 380.368 773, 393.243 766.568, 395.209 764.357 C 396.149 763.299, 398.537 759.197, 400.516 755.240 C 402.495 751.284, 404.539 747.785, 405.057 747.465 C 405.576 747.144, 406 745.798, 406 744.472 C 406 742.636, 405.604 742.215, 404.336 742.701 C 403.182 743.144, 402.904 742.964, 403.430 742.113 C 403.847 741.439, 404.596 738.437, 405.094 735.444 C 405.592 732.450, 406.417 727.483, 406.926 724.407 C 407.436 721.331, 407.998 718.743, 408.176 718.657 C 413.193 716.224, 413.874 714.458, 411.573 709.846 C 410.708 708.112, 410 705.886, 410 704.901 C 410 703.915, 408.762 702.519, 407.250 701.797 C 405.053 700.748, 404.399 699.635, 404 696.259 C 403.725 693.935, 402.823 691.239, 401.996 690.267 C 395.055 682.110, 391 671.365, 391 661.126 C 391 654.937, 394.490 641.615, 398.573 632.216 C 399.358 630.410, 400 628.080, 400 627.039 C 400 625.997, 401.164 624.229, 402.588 623.110 C 404.731 621.424, 405.060 620.552, 404.506 618.029 C 403.619 613.991, 400.825 612.633, 394.996 613.406 C 391.363 613.888, 389.971 613.670, 388.968 612.462 C 385.859 608.716, 375.877 605.963, 365.951 606.114 C 361.396 606.183, 358.401 605.748, 357.332 604.860 C 356.266 603.976, 352.859 603.475, 347.596 603.428 C 342.507 603.383, 338.678 602.838, 337.287 601.961 C 335.472 600.816, 334.260 600.783, 330.547 601.776 C 325.724 603.066, 309.597 601.991, 303.425 599.968 C 301.733 599.414, 296.333 598.258, 291.425 597.399 C 280.797 595.541, 275.216 594.401, 272.500 593.536 C 271.400 593.185, 270.050 593.325, 269.500 593.847" stroke="#b09658" fill="#b09658" fill-opacity="0.2" fill-rule="evenodd"/><path class="svg-region-DV" d="M 212.500 622.209 C 206.889 624.176, 205.264 626.475, 199.921 640 C 192.868 657.853, 192.264 689.363, 198.567 710.596 C 199.889 715.050, 201.877 719.846, 202.985 721.254 C 204.093 722.663, 205 724.229, 205 724.733 C 205 725.238, 206.125 726.708, 207.500 728 C 208.875 729.292, 210 730.961, 210 731.709 C 210 733.700, 213.033 738, 214.437 738 C 215.101 738, 217.411 736.663, 219.572 735.028 C 222.550 732.775, 224.588 732.048, 228 732.024 C 230.475 732.006, 234.750 731.180, 237.500 730.187 C 242.414 728.413, 242.494 728.316, 242.162 724.609 C 241.875 721.397, 242.439 720.108, 245.957 715.936 C 250.590 710.442, 250.488 709.271, 244.974 704.632 L 241.903 702.047 243.298 693.811 C 244.998 683.779, 244.330 680.330, 239.565 674.514 C 237.566 672.075, 235.293 668.553, 234.514 666.688 C 233.107 663.319, 233.126 663.267, 237.549 658.717 C 243.606 652.485, 243.582 649.696, 237.356 636.482 C 236.481 634.623, 233.060 631.582, 228.456 628.570 C 224.343 625.879, 220.477 623.075, 219.866 622.339 C 218.573 620.781, 216.672 620.747, 212.500 622.209" stroke="#45567a" fill="#45567a" fill-opacity="0.2" fill-rule="evenodd"/><path class="svg-region-VV" d="M 264.500 727.985 C 260.370 729.740, 252.037 732, 249.697 732 C 248.362 732, 246.070 731.056, 244.604 729.903 C 242.843 728.518, 241.524 728.119, 240.719 728.728 C 238.715 730.243, 231.540 732, 227.356 732 C 223.420 732, 220.612 733.432, 216 737.790 L 213.500 740.153 215.750 741.698 C 216.988 742.548, 218 744.043, 218 745.019 C 218 745.995, 221.200 749.631, 225.111 753.098 C 232.331 759.499, 236.122 762, 238.606 762 C 239.363 762, 240.545 762.900, 241.232 764 C 241.919 765.100, 242.800 766, 243.190 766 C 243.581 766, 245.900 767.350, 248.345 769 C 250.790 770.650, 253.625 772.002, 254.645 772.004 C 257.635 772.010, 263.038 775.812, 269.312 782.324 C 272.530 785.664, 276.139 788.883, 277.331 789.478 C 278.524 790.072, 280.077 791.763, 280.783 793.235 C 282.422 796.652, 287.104 800, 290.244 800 C 293.457 800, 307.078 796.496, 314 793.889 C 319.384 791.862, 323.456 790.736, 331.500 789.054 C 336.496 788.009, 346.506 784.358, 349.355 782.541 C 350.535 781.788, 353.351 780.631, 355.614 779.969 L 359.728 778.765 359.298 774.132 C 357.687 756.777, 353.212 751.137, 338.900 748.422 C 334.350 747.558, 329.711 746.210, 328.591 745.426 C 327.471 744.642, 325.563 744, 324.350 744 C 323.138 744, 319.110 742.418, 315.401 740.485 C 306.515 735.853, 295.693 732, 291.569 732 C 289.747 732, 283.822 730.875, 278.401 729.500 C 267.639 726.770, 267.417 726.746, 264.500 727.985" stroke="#7699d1" fill="#7699d1" fill-opacity="0.2" fill-rule="evenodd"/><path class="svg-region-B" d="M 759 595 C 758.411 596.100, 757.156 597, 756.210 597 C 752.113 597, 740.543 602.164, 737.408 605.392 C 735.598 607.256, 732.730 609.768, 731.036 610.975 C 727.984 613.147, 724 619.591, 724 622.353 C 724 623.141, 723.394 624.019, 722.652 624.303 C 721.911 624.588, 720.288 626.982, 719.046 629.625 C 717.271 633.401, 716.907 635.507, 717.347 639.465 C 718.471 649.601, 719.277 654, 720.009 654 C 720.826 654, 722.340 657.521, 723.880 663 C 728.329 678.832, 735.207 694.889, 741.838 704.920 C 743.808 707.901, 746.113 711.726, 746.960 713.420 C 748.418 716.336, 748.845 716.514, 755 716.756 C 763.738 717.100, 765.072 717.481, 769.310 720.849 C 773.537 724.208, 801.004 738, 803.467 738 C 804.383 738, 805.937 738.431, 806.921 738.958 C 807.905 739.484, 811.813 740.393, 815.605 740.978 C 819.397 741.562, 825.425 742.758, 829 743.635 C 835.948 745.341, 846.250 745.007, 850.090 742.952 C 851.246 742.333, 856.536 740.771, 861.846 739.479 C 878.676 735.385, 887.162 730.533, 894.519 720.795 C 900.746 712.552, 902.120 709.071, 902.716 700.018 C 903.163 693.219, 902.974 692.156, 900.742 688.908 C 899.385 686.932, 896.598 682.317, 894.549 678.654 C 889.149 668.998, 882.272 665.360, 861.009 660.910 C 858.539 660.393, 854.939 659.149, 853.009 658.146 C 851.079 657.143, 846.738 654.912, 843.362 653.189 C 836.535 649.704, 832.504 645.572, 831.508 641.038 C 831.142 639.370, 829.544 637.099, 827.926 635.947 C 826.319 634.803, 824.741 632.815, 824.418 631.528 C 824.095 630.242, 822.705 628.134, 821.328 626.845 C 818.431 624.130, 816.028 618.908, 815.936 615.128 C 815.899 613.582, 813.935 610.029, 811.166 606.500 C 804.428 597.911, 796.527 594.034, 785.500 593.904 C 781.100 593.852, 774.296 594.130, 770.381 594.521 C 765.509 595.008, 763.044 594.880, 762.572 594.116 C 761.534 592.436, 760.195 592.768, 759 595" stroke="#e23b33" fill="#e23b33" fill-opacity="0.2" fill-rule="evenodd"/><path class="svg-region-VOC" d="M 492.620 489.130 C 489.228 493, 489.002 493.677, 489.036 499.880 C 489.080 508.057, 490.913 510.639, 499.500 514.615 C 505.155 517.234, 506.462 517.416, 522.250 517.781 C 538.061 518.147, 541.456 517.636, 537.885 515.429 C 537.202 515.007, 536.965 513.005, 537.273 510.268 L 537.777 505.797 532.470 506.460 C 525.673 507.310, 520.893 505.027, 515.428 498.321 C 509.070 490.518, 502.023 485.018, 498.370 485.007 C 497.120 485.003, 494.746 486.706, 492.620 489.130" stroke="#ff8f93" fill="#ff8f93" fill-opacity="0.2" fill-rule="evenodd"/><path class="svg-region-OABr" d="M 642.250 415.662 C 641.563 415.940, 641 417.174, 641 418.405 C 641 422.132, 638.037 429.617, 635.688 431.824 C 634.472 432.966, 630.558 435.450, 626.989 437.346 C 622.497 439.731, 620.399 441.458, 620.172 442.957 C 619.992 444.148, 619.205 445.368, 618.422 445.668 C 617.401 446.060, 617 447.987, 617 452.498 C 617 456.622, 616.320 460.279, 615.022 463.141 C 612.790 468.059, 612.404 474.004, 614.200 475.800 C 616.046 477.646, 619.618 477.239, 625.337 474.534 C 631.283 471.721, 634.361 469.128, 636.394 465.221 C 637.173 463.724, 639.016 461.375, 640.491 460 C 644.428 456.328, 651.662 445, 652.464 441.250 C 653.107 438.244, 652.965 438, 650.579 438 C 647.492 438, 647.352 436.730, 649.641 429.469 C 651.473 423.659, 650.982 419.982, 647.975 416.975 C 646.012 415.012, 644.641 414.698, 642.250 415.662" stroke="#81244d" fill="#81244d" fill-opacity="0.2" fill-rule="evenodd"/><path class="svg-region-SOTr" d="M 478.236 423.654 C 474.196 425.646, 473.160 429.068, 475.510 432.656 C 476.864 434.723, 477.101 436.479, 476.601 440.740 L 475.961 446.182 480.065 445.489 C 483.508 444.907, 484.394 445.118, 485.572 446.800 C 487.569 449.650, 495.105 452.084, 497.584 450.680 C 498.638 450.083, 500.671 449.712, 502.102 449.857 C 503.725 450.021, 505.849 449.156, 507.746 447.560 C 511.267 444.597, 512.682 444.402, 515.058 446.552 C 516.625 447.971, 516.955 447.873, 518.886 445.417 C 520.049 443.939, 521 441.614, 521 440.249 C 521 438.045, 520.692 437.842, 518.250 438.438 C 512.123 439.935, 511.519 439.726, 511.204 436 L 510.908 432.500 503.871 432.327 C 496.549 432.147, 495.147 431.383, 493.062 426.437 C 492.558 425.243, 490.523 423.874, 488.230 423.187 C 483.147 421.664, 482.182 421.709, 478.236 423.654" stroke="#995b45" fill="#995b45" fill-opacity="0.2" fill-rule="evenodd"/><path class="svg-region-AMC" d="M 519.528 745.250 C 518.446 748.556, 516.034 762.227, 515.473 768.239 C 515.126 771.946, 514.428 775.235, 513.922 775.548 C 512.165 776.634, 513.016 779.734, 516.272 784.106 C 520.482 789.757, 524.604 797.638, 525.451 801.653 C 526.123 804.837, 531.242 810, 533.728 810 C 534.466 810, 536.067 810.639, 537.285 811.419 C 539.970 813.140, 557.501 817.998, 561.028 817.999 C 565.525 818.001, 569.905 813.987, 573.034 807 C 576.287 799.734, 576.730 796.217, 574.500 795.362 C 573.532 794.990, 573 793.443, 573 791 C 573 786.666, 571.998 786, 565.477 786 C 563.080 786, 560.880 785.614, 560.588 785.143 C 560.297 784.672, 557.628 784.035, 554.657 783.728 C 544.829 782.714, 537.635 777.195, 529.081 764.105 C 522.981 754.772, 522 752.547, 522 748.050 C 522 744.251, 520.435 742.479, 519.528 745.250" stroke="#9d4741" fill="#9d4741" fill-opacity="0.2" fill-rule="evenodd"/>
    </svg>