<svg xmlns="http://www.w3.org/2000/svg" width="1078" height="1151" viewBox="0 0 1078 1151" version="1.1">
    <path class="svg-region-V" d="M 502.676 190.096 C 502.029 190.424, 494.075 191.246, 485 191.923 C 470.340 193.016, 468.159 193.413, 465.443 195.481 C 463.444 197.002, 460.328 198.041, 456.443 198.481 C 450.085 199.201, 436.432 203.266, 431.500 205.906 C 424.792 209.498, 412.695 219.380, 409.696 223.717 C 407.938 226.261, 404.946 230.402, 403.046 232.921 C 399.015 238.265, 390.352 255.654, 387.064 265 C 382.835 277.024, 369.671 304.083, 366.776 306.703 C 365.799 307.587, 365 308.785, 365 309.366 C 365 309.947, 361.906 316.965, 358.124 324.961 C 351.618 338.717, 348.165 350.221, 347.907 359 C 347.786 363.140, 353.494 383.214, 356.011 387.500 C 357.304 389.700, 359.173 393.044, 360.165 394.932 C 361.158 396.819, 362.329 398.619, 362.768 398.932 C 365.460 400.849, 370.244 410.653, 371.554 416.937 C 373.859 427.992, 379.781 433.328, 386.032 429.983 C 387.077 429.424, 391.820 428.288, 396.572 427.460 C 406.154 425.789, 409.547 424.378, 411.314 421.332 C 411.966 420.207, 413.742 417.423, 415.261 415.145 C 416.780 412.868, 418.646 408.416, 419.408 405.252 C 420.171 402.089, 421.516 397.827, 422.397 395.782 C 423.406 393.441, 424 389.216, 424 384.373 C 424 376.900, 424.172 376.354, 430.057 365.149 C 437.912 350.195, 450.732 331.088, 458.002 323.500 C 461.164 320.200, 466.269 313.860, 469.346 309.411 C 474.645 301.750, 489.855 286, 491.954 286 C 492.491 286, 494.409 284.702, 496.215 283.116 C 502.607 277.504, 511.715 276.592, 521.257 280.608 C 529.357 284.017, 534.032 287.318, 542.259 295.436 C 548.956 302.045, 555.411 305.936, 559.750 305.978 C 560.987 305.990, 562 306.466, 562 307.035 C 562 307.749, 562.601 307.749, 563.934 307.035 C 564.998 306.466, 567.296 306, 569.041 306 C 571.562 306, 572.086 305.665, 571.589 304.371 C 570.990 302.811, 571.526 300.551, 574.682 291.321 C 575.468 289.023, 577.697 285.065, 579.635 282.527 C 581.872 279.597, 584.229 274.488, 586.090 268.534 C 589.286 258.309, 595.336 249.429, 601.156 246.420 C 603.239 245.342, 604.027 244.322, 603.663 243.174 C 601.756 237.165, 600.040 233.513, 598.951 233.150 C 596.117 232.206, 590.123 227.468, 582.566 220.199 C 578.163 215.964, 573.647 212.005, 572.530 211.400 C 571.414 210.796, 568.025 208.856, 565 207.091 C 555.242 201.397, 543.664 196.204, 537 194.533 C 533.425 193.637, 528.347 192.209, 525.716 191.360 C 520.973 189.830, 504.937 188.950, 502.676 190.096" stroke="#dd8a8a" fill="#dd8a8a" fill-opacity="0.2" fill-rule="evenodd"/><path class="svg-region-SV" d="M 503 279.327 C 494.658 282.123, 477.747 297.167, 469.500 309.129 C 466.750 313.118, 461.739 319.333, 458.365 322.941 C 449.074 332.875, 434.031 355.790, 427.157 370.479 C 424.500 376.155, 424 378.406, 424 384.677 C 424 389.694, 423.378 393.660, 422.097 396.815 C 421.051 399.392, 419.622 403.750, 418.923 406.500 C 418.223 409.250, 417.028 412.474, 416.267 413.664 C 414.662 416.173, 415.090 416.405, 423.500 417.592 C 426.250 417.980, 430.107 419.310, 432.071 420.548 C 438.854 424.824, 444.790 426.163, 458.262 426.459 L 471.024 426.740 475.880 431.120 C 478.946 433.886, 481.073 436.790, 481.654 439 C 482.283 441.398, 483.647 443.130, 485.986 444.500 C 492.145 448.109, 497.841 454.581, 498.494 458.713 C 499.323 463.965, 502.251 471.251, 503.730 471.744 C 504.415 471.972, 505.663 470.459, 506.549 468.327 C 507.423 466.222, 510.088 460.630, 512.471 455.900 C 515.350 450.184, 516.515 446.833, 515.943 445.908 C 515.471 445.143, 514.788 442.151, 514.427 439.259 C 513.995 435.801, 513.302 434, 512.404 434 C 508.792 434, 509.998 425.122, 514.116 421.395 C 516.838 418.932, 525.121 418.897, 527.819 421.338 C 530.102 423.402, 532.874 423.253, 534.106 421 C 535.818 417.871, 540 407.898, 540 406.946 C 540 406.398, 541.237 405.486, 542.750 404.919 C 544.263 404.352, 547.172 402.738, 549.215 401.332 C 551.870 399.506, 554.955 398.554, 560.023 397.998 C 563.923 397.569, 567.369 396.964, 567.680 396.653 C 567.991 396.342, 568.467 392.130, 568.736 387.294 C 569.337 376.508, 566.797 358.280, 563.841 352.173 C 560.844 345.981, 553.213 340.230, 546.878 339.389 C 540.487 338.542, 538.617 336.749, 539.358 332.183 C 539.978 328.361, 543.020 324.580, 547.240 322.384 C 548.747 321.600, 550.894 319.168, 552.011 316.979 C 553.142 314.762, 555.804 311.887, 558.021 310.487 C 562.498 307.661, 563.118 306, 559.696 306 C 556.150 306, 547.351 301.209, 544.401 297.672 C 535.816 287.379, 519.824 277.936, 511.212 278.077 C 508.620 278.119, 504.925 278.682, 503 279.327" stroke="#c666b5" fill="#c666b5" fill-opacity="0.2" fill-rule="evenodd"/><path class="svg-region-SF" d="M 601.938 238.655 C 602.408 240.220, 603.079 242.203, 603.431 243.062 C 603.861 244.113, 603.211 245.084, 601.447 246.029 C 600.004 246.801, 596.658 249.932, 594.012 252.986 C 590.025 257.588, 588.663 260.271, 586.060 268.652 C 584.263 274.433, 582.032 279.564, 580.850 280.632 C 578.185 283.038, 573.391 292.533, 572.012 298.136 C 571.089 301.884, 571.245 303.277, 573.114 308 C 574.321 311.050, 575.616 317.286, 576.022 322 C 576.424 326.675, 577.077 331.900, 577.474 333.612 C 577.974 335.770, 577.667 337.743, 576.473 340.053 C 575.525 341.885, 574.362 344.737, 573.888 346.391 C 572.912 349.792, 574.365 361.195, 576.239 364.849 C 577.899 368.085, 589.916 374, 594.830 374 C 598.215 374, 599.345 374.672, 603.695 379.271 C 606.437 382.171, 608.919 385.208, 609.209 386.021 C 609.630 387.201, 610.320 386.976, 612.618 384.910 C 616.211 381.680, 623.394 378, 626.104 378 C 630.136 378, 645.569 373.741, 648.924 371.702 C 655.857 367.490, 664.431 358.894, 666.484 354.097 C 667.593 351.506, 669.908 347.688, 671.629 345.612 C 675.964 340.384, 676.488 334.760, 673.499 325.565 C 672.235 321.679, 670.430 315.350, 669.488 311.500 C 668.545 307.650, 667.375 304.072, 666.887 303.550 C 666.399 303.027, 666 301.790, 666 300.800 C 666 299.810, 665.550 299, 665 299 C 664.450 299, 664 298.357, 664 297.571 C 664 296.786, 663.437 295.548, 662.748 294.821 C 660.833 292.800, 656.600 285.950, 654.579 281.604 C 650.583 273.008, 640.827 260, 638.378 260 C 637.731 260, 634.861 258.425, 632 256.500 C 629.139 254.575, 626.608 253, 626.375 253 C 626.142 253, 623.743 251.537, 621.043 249.750 C 618.343 247.963, 614.191 245.284, 611.817 243.797 C 609.443 242.311, 606.057 239.905, 604.292 238.452 L 601.085 235.809 601.938 238.655" stroke="#8c6b55" fill="#8c6b55" fill-opacity="0.2" fill-rule="evenodd"/><path class="svg-region-IF" d="M 675.688 334.646 C 675.309 335.024, 675 336.314, 675 337.513 C 675 340.180, 672.342 345.699, 670.556 346.738 C 669.451 347.382, 666.198 353.638, 664.879 357.656 C 664.354 359.259, 653.091 369.171, 648.924 371.699 C 645.458 373.801, 629.350 378, 624.749 378 C 623.372 378, 621.685 378.675, 621 379.500 C 620.315 380.325, 619.170 381, 618.454 381 C 615.779 381, 611 386.108, 611 388.966 C 611 393.082, 613.132 394.441, 617.386 393.037 C 620.326 392.067, 629.538 391.553, 637.673 391.906 C 638.869 391.958, 641.242 393.174, 642.948 394.610 C 645.739 396.958, 646.523 397.139, 650.775 396.418 C 656.533 395.441, 659.167 395.569, 665 397.109 C 672.751 399.156, 681.264 402.981, 687.726 407.319 C 693.270 411.042, 694.119 412.065, 695.476 416.654 C 696.314 419.489, 697 422.998, 697 424.454 C 697 425.909, 697.631 428.320, 698.403 429.813 C 699.175 431.305, 700.113 434.770, 700.488 437.513 C 700.863 440.256, 702.267 444.815, 703.607 447.645 C 705.925 452.539, 706.166 452.735, 708.524 451.645 C 709.887 451.015, 711.290 449.600, 711.641 448.500 C 711.992 447.400, 714.008 444.713, 716.121 442.530 C 719.754 438.775, 723 431.834, 723 427.822 C 723 426.820, 723.450 426, 724 426 C 724.550 426, 725 425.041, 725 423.868 C 725 422.695, 725.955 420.191, 727.122 418.303 C 728.979 415.298, 729.288 413.033, 729.596 400.195 C 729.790 392.124, 729.555 383.941, 729.074 382.010 C 728.594 380.080, 727.924 377.271, 727.586 375.768 C 726.965 373.010, 722.903 367.922, 715.422 360.529 C 710.859 356.021, 703.471 351.282, 694.500 347.108 C 691.200 345.573, 687.882 343.570, 687.128 342.658 C 686.373 341.746, 684.910 341, 683.878 341 C 682.845 341, 682 340.583, 682 340.073 C 682 339.564, 681.213 338.995, 680.252 338.810 C 679.290 338.625, 678.503 337.618, 678.502 336.573 C 678.500 334.584, 676.867 333.466, 675.688 334.646" stroke="#f2823b" fill="#f2823b" fill-opacity="0.2" fill-rule="evenodd"/><path class="svg-region-PF" d="M 563 307.474 C 561.625 308.268, 559.032 309.697, 557.238 310.650 C 555.270 311.695, 553.301 313.913, 552.273 316.242 C 551.336 318.366, 549.111 321.005, 547.327 322.107 C 540.247 326.483, 537.088 333.215, 540.250 337.188 C 540.938 338.052, 543.676 339.034, 546.335 339.372 C 553.548 340.287, 560.701 345.600, 563.897 352.416 C 566.864 358.744, 568.240 369.204, 568.112 384.461 C 567.969 401.609, 569.280 406.277, 574.747 408.081 C 578.920 409.459, 582.448 408.541, 594.500 402.943 C 598.900 400.899, 604.862 398.221, 607.750 396.990 C 613.526 394.530, 613.379 394.691, 612.083 392.236 C 611.579 391.281, 610.660 389.122, 610.040 387.437 C 609.420 385.752, 606.615 382.040, 603.806 379.187 C 599.447 374.759, 598.149 374, 594.933 374 C 590.910 374, 578.519 368.092, 576.366 365.148 C 574.599 362.732, 572.907 349.810, 573.903 346.338 C 574.369 344.713, 575.524 341.887, 576.469 340.059 C 577.608 337.858, 577.973 335.683, 577.552 333.618 C 577.201 331.903, 576.532 326.675, 576.064 322 C 575.596 317.325, 574.605 311.813, 573.862 309.750 C 572.648 306.382, 572.154 306.002, 569.005 306.015 C 567.077 306.023, 564.375 306.679, 563 307.474" stroke="#faaaaa" fill="#faaaaa" fill-opacity="0.2" fill-rule="evenodd"/><path class="svg-region-AAB" d="M 649.250 396.292 C 646.501 397.241, 646.015 397.883, 646.100 400.457 C 646.255 405.207, 647.274 407.767, 650.270 410.934 C 653.941 414.816, 655.682 423.125, 654.209 429.736 C 652.702 436.495, 649.929 444.228, 648.348 446.079 C 647.607 446.947, 647 447.993, 647 448.404 C 647 448.814, 644.933 452.379, 642.406 456.325 C 637.219 464.428, 626.373 476, 623.966 476 C 620.892 476, 613.709 485.518, 607.684 497.575 C 601.647 509.655, 600.101 512.285, 597.341 515.166 C 595.858 516.713, 594.838 518.150, 595.073 518.358 C 596.502 519.628, 612.607 514.756, 620.500 510.666 C 625.450 508.101, 630.625 505.821, 632 505.598 C 633.375 505.376, 636.525 504.438, 639 503.515 C 641.475 502.592, 644.587 501.581, 645.916 501.270 C 648.801 500.593, 664.503 492.414, 667.885 489.825 C 669.197 488.821, 671.109 488, 672.135 488 C 673.161 488, 674 487.630, 674 487.178 C 674 486.253, 681.699 481, 683.055 481 C 683.536 481, 684.361 480.195, 684.887 479.210 C 685.414 478.226, 687.117 476.789, 688.673 476.017 C 693.324 473.708, 705.212 460.920, 704.663 458.817 C 704.400 457.815, 704.856 456.620, 705.675 456.162 C 706.965 455.440, 706.890 454.737, 705.119 450.914 C 703.993 448.486, 702.632 444.700, 702.093 442.500 C 701.554 440.300, 700.609 436.700, 699.992 434.500 C 699.376 432.300, 698.459 428.475, 697.955 426 C 695.564 414.251, 694.203 411.743, 687.682 407.070 C 683.692 404.210, 677.960 401.436, 671.515 399.245 C 660.376 395.458, 654.084 394.623, 649.250 396.292" stroke="#7f3c1a" fill="#7f3c1a" fill-opacity="0.2" fill-rule="evenodd"/><path class="svg-region-APB" d="M 615 393.911 C 597.962 400.304, 586.869 406.494, 578 414.556 C 569.109 422.638, 567.194 425.597, 564.444 435.500 C 561.269 446.938, 560.809 448.083, 557.302 453.279 C 555.363 456.151, 553.316 459.625, 552.753 461 C 551.535 463.970, 549.884 479.721, 549.398 493 C 549.207 498.225, 548.689 505.274, 548.247 508.664 C 547.317 515.796, 548.192 517.491, 554.574 520.912 C 558.874 523.217, 566.127 523.670, 570.685 521.918 C 572.233 521.324, 576.627 520.819, 580.448 520.798 C 594.052 520.722, 598.980 516.590, 607.532 498.087 C 610.544 491.571, 617.925 480.232, 620.872 477.595 C 622.195 476.410, 622.988 474.520, 622.967 472.595 C 622.933 469.370, 620.376 461.251, 618.081 457.082 C 617.156 455.402, 616.943 452.823, 617.381 448.631 C 618.182 440.966, 620.858 437.993, 630.158 434.440 C 639.506 430.867, 644 424.719, 644 415.500 C 644 412.830, 644.592 410.753, 645.591 409.925 C 646.863 408.868, 647.045 407.496, 646.499 403.052 C 646.124 399.999, 645.070 396.650, 644.158 395.612 C 639.383 390.175, 626.898 389.447, 615 393.911" stroke="#ac7444" fill="#ac7444" fill-opacity="0.2" fill-rule="evenodd"/><path class="svg-region-PC" d="M 559.500 397.902 C 555.196 398.331, 552.011 399.419, 548.235 401.750 C 545.339 403.538, 542.516 405, 541.960 405 C 541.405 405, 540.522 406.126, 539.999 407.503 C 539.475 408.880, 538.203 411.917, 537.171 414.253 C 536.139 416.589, 535.001 419.330, 534.642 420.345 C 534.283 421.360, 533.074 422.429, 531.955 422.722 C 530.035 423.224, 530.015 423.360, 531.607 425.119 C 533.011 426.669, 533.188 428.248, 532.660 434.494 C 532.311 438.624, 531.384 443.539, 530.600 445.414 C 527.471 452.903, 521.572 455.329, 518.370 450.442 L 516.694 447.884 512.882 454.456 C 510.785 458.070, 508.615 462.708, 508.060 464.763 C 507.504 466.819, 506.312 469.550, 505.410 470.833 C 503.884 473.005, 503.896 473.452, 505.588 477.333 C 506.588 479.625, 508.889 483.189, 510.703 485.253 C 512.516 487.317, 514 489.413, 514 489.911 C 514 492.061, 523.582 502.311, 528.582 505.509 C 531.583 507.429, 534.447 509, 534.947 509 C 535.446 509, 537.142 510.562, 538.715 512.470 C 541.235 515.527, 541.928 515.847, 544.538 515.153 C 547.263 514.428, 547.565 513.891, 548.314 508.432 C 548.762 505.170, 549.074 499.115, 549.009 494.978 C 548.943 490.842, 549.403 485.217, 550.030 482.478 C 550.658 479.740, 551.325 474.253, 551.514 470.284 C 551.829 463.648, 552.305 462.282, 557.428 453.315 C 560.493 447.951, 563 442.897, 563 442.083 C 563 441.269, 564.129 436.901, 565.509 432.376 C 567.973 424.300, 568.187 423.992, 577.179 415.602 L 586.339 407.054 581.253 407.656 C 573.173 408.613, 571.416 407.768, 569.500 402.001 C 568.587 399.251, 567.313 397.069, 566.670 397.152 C 566.026 397.236, 562.800 397.574, 559.500 397.902" stroke="#cda789" fill="#cda789" fill-opacity="0.2" fill-rule="evenodd"/><path class="svg-region-DB" d="M 411.229 420.509 C 409.429 422.964, 406.842 425.253, 405.479 425.595 C 404.099 425.941, 403 426.945, 403 427.860 C 403 430.127, 415.716 443.293, 420.001 445.463 C 421.926 446.437, 424.400 448.031, 425.500 449.005 C 430.407 453.349, 447.151 463.871, 450.169 464.508 C 454.735 465.471, 470.198 481.483, 475.921 491.174 C 478.300 495.203, 481.305 499.918, 482.598 501.651 C 484.993 504.858, 493.417 510.250, 494.438 509.228 C 495.400 508.267, 495.053 502.151, 494 501.500 C 493.450 501.160, 493 499.135, 493 497 C 493 494.865, 493.450 492.840, 494 492.500 C 494.550 492.160, 495 490.949, 495 489.809 C 495 488.669, 495.937 486.220, 497.082 484.368 C 498.870 481.475, 499.713 481, 503.067 481 L 506.971 481 504.987 475.968 C 503.896 473.200, 502.333 469.911, 501.512 468.659 C 500.692 467.407, 499.557 463.939, 498.991 460.951 C 497.769 454.511, 494.128 449.584, 487.897 445.940 C 484.735 444.091, 483.090 442.268, 482.005 439.413 C 481.177 437.234, 478.354 433.485, 475.732 431.082 L 470.964 426.712 458.541 426.453 C 445.334 426.178, 441.741 425.406, 433 420.964 C 429.975 419.427, 425.700 417.891, 423.500 417.551 C 421.300 417.210, 418.375 416.732, 417 416.488 C 414.961 416.127, 413.897 416.868, 411.229 420.509" stroke="#e8b1e4" fill="#e8b1e4" fill-opacity="0.2" fill-rule="evenodd"/><path class="svg-region-MB" d="M 392.903 428.013 C 390.375 428.441, 386.887 429.524, 385.153 430.421 C 382.494 431.796, 382 432.620, 382 435.681 C 382 438.013, 382.894 440.484, 384.500 442.589 C 385.875 444.392, 387 446.369, 387 446.983 C 387 449.492, 390.515 454.602, 395.212 458.921 L 400.199 463.507 400.563 473.003 C 400.762 478.226, 400.942 483.705, 400.963 485.179 C 401.013 488.822, 406.605 494.524, 415.500 500.002 C 417.700 501.357, 421.121 503.928, 423.102 505.715 C 427.157 509.374, 435.654 511.635, 449.359 512.701 C 455.575 513.185, 457.801 513.803, 460.004 515.657 C 462.232 517.531, 463.961 518, 468.651 518 C 471.875 518, 476.085 518.460, 478.007 519.021 C 479.928 519.583, 485.775 520.278, 491 520.565 C 496.225 520.853, 502.660 521.518, 505.299 522.044 C 507.939 522.570, 514.239 522.939, 519.299 522.864 L 528.500 522.728 521.500 521.979 C 517.650 521.567, 512.537 520.698, 510.138 520.047 C 505.662 518.832, 495.842 512.693, 492.542 509.047 C 491.524 507.921, 490.119 507, 489.422 507 C 487.519 507, 482.639 502.578, 480.977 499.347 C 480.171 497.781, 478.271 494.745, 476.756 492.600 C 475.240 490.455, 474 488.183, 474 487.552 C 474 486.921, 469.387 481.663, 463.750 475.867 C 455.778 467.672, 452.591 465.072, 449.410 464.173 C 445.927 463.187, 436.447 457.159, 427 449.923 C 425.625 448.870, 422.706 447.043, 420.514 445.864 C 416.178 443.530, 403 430.278, 403 428.251 C 403 426.872, 400.058 426.803, 392.903 428.013" stroke="#f9c6c6" fill="#f9c6c6" fill-opacity="0.2" fill-rule="evenodd"/><path class="svg-region-AP" d="M 603.500 610.080 C 600.200 610.399, 594.575 611.599, 591 612.747 C 587.425 613.895, 582.700 615.164, 580.500 615.566 C 578.300 615.969, 575.600 616.459, 574.500 616.657 C 573.400 616.854, 568.055 617.300, 562.622 617.648 L 552.745 618.280 553.286 630.890 C 553.720 641.018, 554.332 644.878, 556.392 650.500 C 557.803 654.350, 558.967 659.161, 558.979 661.191 C 558.991 663.221, 559.424 665.144, 559.942 665.464 C 560.460 665.785, 561.180 668.174, 561.542 670.773 C 561.903 673.373, 562.791 677.750, 563.514 680.500 C 564.237 683.250, 565.332 692.700, 565.946 701.500 C 567.399 722.310, 567.768 725.599, 568.887 727.728 C 570.259 730.340, 571.986 744.017, 572.456 756 C 572.967 769.024, 573.409 771.046, 576.206 773.155 C 578.678 775.020, 589.299 775.988, 611.500 776.373 C 618.708 776.497, 625.399 777.093, 626.517 777.709 C 629.199 779.187, 647.798 778.716, 650.828 777.093 C 652.109 776.407, 653.758 776.077, 654.494 776.359 C 656.190 777.010, 668.984 775.231, 670.422 774.145 C 671.015 773.697, 674.650 772.530, 678.500 771.552 C 682.350 770.574, 687.525 769.128, 690 768.338 C 694.484 766.908, 707.049 761.028, 708 759.915 C 708.275 759.593, 711.650 757.488, 715.500 755.238 C 722.730 751.012, 726.057 748.681, 728.869 745.869 C 731.497 743.240, 733.999 739.676, 734.009 738.547 C 734.022 736.953, 744.006 725.597, 746.100 724.793 C 750.104 723.256, 749.504 712.801, 745.377 712.201 C 743.836 711.978, 741.921 708.966, 737.746 700.201 C 734.679 693.766, 731.909 686.988, 731.588 685.139 C 731.242 683.143, 729.037 679.488, 726.157 676.139 C 720.466 669.521, 713.578 656.594, 711.962 649.500 C 711.336 646.750, 710.193 642.475, 709.424 640 C 708.654 637.525, 707.530 632.879, 706.926 629.676 C 706.061 625.088, 705.501 623.978, 704.287 624.443 C 703.440 624.768, 702.241 624.642, 701.623 624.162 C 701.005 623.681, 698.250 622.740, 695.500 622.069 C 688.411 620.340, 680.960 616.398, 677.755 612.683 L 675.010 609.500 642.255 609.500 C 624.240 609.500, 606.800 609.761, 603.500 610.080" stroke="#fc7143" fill="#fc7143" fill-opacity="0.2" fill-rule="evenodd"/><path class="svg-region-PP" d="M 434.014 622.108 C 431.035 625.367, 429.808 626.074, 428.081 625.526 C 426.884 625.146, 425.346 625.298, 424.663 625.864 C 423.981 626.431, 420.515 627.360, 416.961 627.929 C 411.369 628.825, 400.918 633.195, 397.355 636.128 C 396.726 636.646, 395.615 636.942, 394.887 636.785 C 393.249 636.432, 392.023 642.753, 393.241 645.276 C 393.712 646.252, 394.021 651.652, 393.927 657.276 C 393.584 677.836, 394.232 684.137, 397.086 688 C 399.978 691.915, 403 699.439, 403 702.724 C 403 703.911, 403.490 705.185, 404.089 705.555 C 404.687 705.925, 407.122 710.223, 409.499 715.106 C 416.778 730.062, 421.091 734.079, 440.680 744.143 C 445.775 746.760, 452.543 750.571, 455.721 752.611 C 458.900 754.652, 464.200 757.675, 467.500 759.330 C 470.800 760.985, 474.405 763.140, 475.510 764.119 C 478.056 766.372, 490.710 773, 492.466 773 C 493.192 773, 494.023 773.617, 494.312 774.371 C 494.602 775.126, 496.085 776.055, 497.607 776.438 C 499.130 776.820, 500.854 777.742, 501.438 778.487 C 502.916 780.372, 513.392 785.851, 516.649 786.441 C 519.289 786.920, 520.954 788.491, 520.985 790.531 C 521.005 791.870, 526.745 794.035, 528.495 793.364 C 529.237 793.079, 530.757 793.335, 531.873 793.932 C 533.807 794.967, 533.849 794.865, 532.771 791.759 C 532.149 789.967, 529.616 786.475, 527.142 784 C 521.999 778.856, 512.448 764.521, 510.518 759.050 C 508.878 754.403, 509.395 753.396, 517.847 744.750 C 525.836 736.579, 528.096 736.181, 536.070 741.547 C 543.590 746.607, 557.760 752.298, 561.153 751.619 C 563.443 751.161, 564.213 751.609, 565.941 754.405 C 567.074 756.237, 568 758.686, 568 759.848 C 568 763.121, 571.118 770.130, 572.375 769.684 C 572.994 769.464, 573.406 768.433, 573.290 767.392 C 573.175 766.352, 572.802 760.100, 572.461 753.500 C 572.120 746.900, 571.429 739.925, 570.926 738 C 570.423 736.075, 570.009 733.064, 570.006 731.309 C 570.003 729.554, 569.576 727.856, 569.058 727.536 C 567.884 726.810, 567.397 722.769, 565.983 702 C 565.365 692.925, 564.254 683.025, 563.514 680 C 561.311 671.001, 559.945 664.814, 558.930 659.253 C 558.404 656.367, 557.020 651.642, 555.855 648.753 C 554.226 644.711, 553.622 640.557, 553.235 630.736 L 552.734 617.972 546.117 618.628 C 542.222 619.014, 538.408 620.048, 536.846 621.142 C 534.736 622.619, 532.342 623, 525.179 623 C 519.306 623, 516.034 623.398, 515.786 624.143 C 515.507 624.980, 513.073 625.037, 506.702 624.354 C 501.916 623.841, 498 623.704, 498 624.050 C 498 624.899, 493.282 627, 491.376 627 C 490.535 627, 488.509 625.663, 486.874 624.028 C 482.953 620.107, 474.588 618.644, 473.779 621.739 C 472.770 625.594, 457.388 625.940, 450.464 622.264 C 446.502 620.161, 440.559 618, 438.735 618 C 438.204 618, 436.079 619.849, 434.014 622.108" stroke="#c4743d" fill="#c4743d" fill-opacity="0.2" fill-rule="evenodd"/><path class="svg-region-VMr" d="M 517.482 744.630 C 509.124 752.987, 508.472 754.603, 511.044 760.602 C 513.790 767.010, 521.170 777.785, 526.793 783.599 C 529.382 786.275, 531.985 789.822, 532.579 791.482 C 533.172 793.142, 534.747 795.002, 536.079 795.617 C 538.442 796.707, 540.126 796.592, 556.035 794.255 C 564.520 793.009, 572.952 786.229, 575.153 778.885 C 576.251 775.217, 576.155 774.772, 573.718 772.227 C 570.647 769.021, 568 763.125, 568 759.492 C 568 758.077, 567.034 755.612, 565.852 754.014 C 564.154 751.717, 563.152 751.220, 561.064 751.637 C 557.765 752.297, 543.467 746.525, 536.070 741.547 C 528.031 736.137, 525.565 736.546, 517.482 744.630" stroke="#e59376" fill="#e59376" fill-opacity="0.2" fill-rule="evenodd"/><path class="svg-region-PV" d="M 251 604.581 C 247.975 605.878, 244.739 606.952, 243.809 606.969 C 242.879 606.986, 241.840 607.450, 241.500 608 C 241.160 608.550, 239.896 609.016, 238.691 609.036 C 236.181 609.077, 230.224 613.557, 231.278 614.611 C 231.663 614.996, 233.634 615.580, 235.657 615.909 C 238.633 616.393, 240.258 617.654, 244.156 622.504 C 251.677 631.863, 253.376 635.576, 253.308 642.500 C 253.275 645.800, 253.281 653, 253.320 658.500 C 253.360 664, 253.409 671.650, 253.429 675.500 C 253.466 682.681, 252.888 687.484, 251.142 694.500 C 246.487 713.208, 245.738 717.953, 246.972 720.932 C 248.443 724.483, 250.733 725.432, 254.433 724.025 C 258.073 722.641, 263.330 722.730, 264.800 724.200 C 265.460 724.860, 266 726.414, 266 727.653 C 266 732.477, 270.022 737.270, 272.741 735.687 C 273.724 735.115, 288.515 736.509, 297.500 738.021 C 304.527 739.203, 307.809 740.981, 314.500 747.232 C 316.150 748.773, 319.167 750.542, 321.205 751.162 C 325.634 752.510, 328.120 756.902, 328.755 764.500 C 328.984 767.250, 329.969 771.300, 330.942 773.500 C 331.916 775.700, 333.006 779.732, 333.366 782.460 C 333.725 785.187, 334.465 787.865, 335.010 788.410 C 335.554 788.954, 335.996 790.547, 335.992 791.950 C 335.984 794.319, 333.387 797.454, 325.167 805.019 C 323.883 806.200, 323.004 807.337, 323.212 807.545 C 324.029 808.362, 349.979 800.386, 351 799.004 C 353.331 795.847, 371.159 788.579, 379.172 787.519 C 383.059 787.005, 384.634 786.087, 388.542 782.058 C 393.920 776.514, 399.422 765.617, 401.613 756.168 C 403.892 746.343, 403.991 728.797, 401.809 721.500 C 400.822 718.200, 400.012 714.025, 400.008 712.223 C 400 709.004, 395.779 694.424, 393.719 690.500 C 387.304 678.285, 385.981 672.662, 385.872 657.150 C 385.798 646.619, 386.854 641.810, 390.525 635.973 C 391.745 634.034, 393.062 630.996, 393.451 629.223 C 394.149 626.044, 394.108 626, 390.450 626 C 388.411 626, 383.623 624.875, 379.811 623.500 C 376 622.125, 371.994 621, 370.909 621 C 369.825 621, 368.693 620.363, 368.394 619.584 C 367.185 616.435, 360.558 613.212, 354 612.585 C 332.733 610.553, 326.356 610.033, 316 609.492 C 309.675 609.162, 300.752 608.016, 296.171 606.946 C 291.590 605.876, 286.325 605, 284.470 605 C 282.615 605, 278.506 604.325, 275.339 603.500 C 266.965 601.319, 257.644 601.733, 251 604.581" stroke="#b09658" fill="#b09658" fill-opacity="0.2" fill-rule="evenodd"/><path class="svg-region-DV" d="M 224.500 616.292 C 222.300 617.506, 220.350 618.837, 220.167 619.250 C 219.983 619.663, 219.146 620, 218.305 620 C 215.409 620, 199.641 637.254, 196.291 644.088 C 186.195 664.682, 185.931 687.544, 195.305 729.509 C 196.861 736.472, 200.722 744.695, 203.532 747.026 C 204.339 747.697, 205.015 748.752, 205.033 749.372 C 205.107 751.859, 208.922 755.159, 210.972 754.509 C 212.145 754.137, 213 754.315, 213 754.933 C 213 756.225, 219.214 756.365, 220.550 755.102 C 221.073 754.609, 225.206 752.331, 229.736 750.041 C 238.839 745.439, 241 743.174, 241 738.235 C 241 735.671, 242.042 733.800, 245.577 730.021 L 250.154 725.128 247.951 722.148 C 246.387 720.032, 245.915 718.347, 246.325 716.334 C 249.126 702.558, 250.899 694.852, 252.042 691.482 C 253.038 688.547, 253.391 680.798, 253.386 662 L 253.380 636.500 250.673 631.250 C 249.184 628.362, 247.594 626, 247.140 626 C 246.685 626, 244.811 623.799, 242.976 621.110 C 240.088 616.877, 239.091 616.152, 235.569 615.720 C 233.331 615.446, 230.825 614.965, 230 614.652 C 229.175 614.340, 226.700 615.077, 224.500 616.292 M 222 625 C 220.781 625.788, 220.910 625.972, 222.691 625.985 C 223.896 625.993, 225.160 625.550, 225.500 625 C 226.287 623.727, 223.970 623.727, 222 625" stroke="#45567a" fill="#45567a" fill-opacity="0.2" fill-rule="evenodd"/><path class="svg-region-VV" d="M 263.137 737.943 C 260.602 740.653, 250.361 745, 246.512 745 C 245.492 745, 243.827 744.248, 242.812 743.329 C 241.074 741.757, 240.805 741.812, 238.233 744.260 C 235.114 747.228, 218.925 756, 216.565 756 C 214.543 756, 214.495 755.777, 218.054 762.949 C 219.733 766.334, 221.871 769.387, 222.804 769.732 C 223.737 770.077, 226.176 771.456, 228.225 772.796 C 230.274 774.137, 232.578 774.992, 233.345 774.698 C 234.111 774.404, 236.224 775.139, 238.039 776.331 C 239.854 777.524, 242.240 779.030, 243.340 779.677 C 244.441 780.325, 246.502 781.993, 247.921 783.384 C 253.856 789.206, 262.107 796.001, 263.261 796.017 C 263.942 796.027, 265.556 797.148, 266.846 798.508 C 268.136 799.869, 271.399 802.412, 274.096 804.159 C 276.793 805.907, 279 807.711, 279 808.168 C 279 808.626, 279.513 809, 280.140 809 C 280.767 809, 281.812 809.728, 282.463 810.618 C 284.938 814.003, 290.843 815.123, 300 813.945 C 309.045 812.781, 316.974 810.749, 320.895 808.592 C 325.274 806.183, 336 794.698, 336 792.417 C 336 791.222, 335.325 788.629, 334.500 786.654 C 333.675 784.680, 333 781.682, 333 779.992 C 333 778.303, 332.100 775.156, 331 773 C 329.900 770.844, 329 767.299, 329 765.123 C 329 762.946, 328.135 759.147, 327.077 756.679 C 325.525 753.060, 324.531 752.056, 321.934 751.486 C 320.164 751.097, 316.867 749.110, 314.608 747.071 C 308.005 741.112, 304.574 739.108, 299.895 738.478 C 297.478 738.153, 293.700 737.474, 291.500 736.969 C 289.300 736.465, 282.612 735.843, 276.637 735.588 L 265.774 735.124 263.137 737.943" stroke="#7699d1" fill="#7699d1" fill-opacity="0.2" fill-rule="evenodd"/><path class="svg-region-B" d="M 827 486.880 C 821.764 488.602, 813.876 493.158, 810.752 496.266 C 807.453 499.546, 803 507.528, 803 510.160 C 803 510.952, 802.507 512.093, 801.904 512.696 C 801.301 513.299, 800.607 515.526, 800.360 517.646 C 800.114 519.766, 799.195 523.750, 798.319 526.500 C 796.518 532.150, 795.610 539.934, 795.822 547.909 C 795.937 552.279, 795.363 554.392, 792.830 558.909 C 789.430 564.975, 786.194 569, 784.720 569 C 783.729 569, 776.180 574.552, 774.500 576.516 C 773.950 577.159, 771.700 578.277, 769.500 579.001 C 767.300 579.724, 763.250 581.754, 760.500 583.512 C 751.713 589.128, 736.480 598, 735.627 598 C 734.442 598, 723 605.163, 723 605.905 C 723 606.247, 720.585 608.412, 717.634 610.718 C 710.689 616.141, 708.914 620.789, 708.329 635.084 C 707.972 643.800, 708.169 645.896, 709.448 646.957 C 710.301 647.665, 711 648.815, 711 649.512 C 711 653.381, 723.776 674.634, 729.608 680.465 C 730.441 681.298, 731.386 683.672, 731.708 685.740 C 732.030 687.808, 734.719 694.533, 737.683 700.685 C 741.893 709.424, 743.556 711.939, 745.286 712.185 C 746.987 712.427, 747.718 713.484, 748.442 716.750 C 749.238 720.343, 749.780 721.019, 751.942 721.122 C 762.051 721.606, 764.132 721.858, 765.244 722.735 C 765.935 723.279, 767.834 724.044, 769.465 724.435 C 771.096 724.826, 774.332 726.012, 776.655 727.071 C 778.979 728.129, 783.572 729.623, 786.863 730.391 C 790.153 731.159, 793.332 732.087, 793.927 732.455 C 794.521 732.822, 798.043 733.520, 801.754 734.006 C 805.464 734.492, 810.975 735.363, 814 735.941 C 824.908 738.025, 853.642 734.574, 854.820 731.039 C 855.011 730.467, 856.021 730, 857.065 730 C 859.828 730, 865.748 723.824, 868.115 718.472 C 870.471 713.146, 870.807 706.670, 869.574 690.374 C 868.744 679.420, 868.774 679.161, 871.529 673.530 C 873.068 670.385, 874.928 667.581, 875.663 667.299 C 876.399 667.017, 877 666.231, 877 665.554 C 877 664.876, 878.118 663.812, 879.484 663.189 C 880.909 662.540, 883.091 659.809, 884.606 656.779 C 886.711 652.566, 887.231 650.131, 887.180 644.719 C 887.142 640.706, 886.480 636.664, 885.558 634.815 C 884.701 633.098, 884 630.487, 884 629.013 C 884 627.539, 883.687 626.020, 883.304 625.638 C 882.922 625.255, 882.480 624.393, 882.322 623.721 C 882.165 623.049, 881.738 621.198, 881.374 619.606 C 881.010 618.014, 879.859 615.859, 878.816 614.816 C 876.421 612.421, 874.887 608.458, 875.618 606.554 C 876.361 604.618, 872.125 597.174, 869.873 596.460 C 868.835 596.130, 868.332 595.298, 868.658 594.449 C 868.964 593.652, 868.746 593, 868.174 593 C 867.602 593, 867.170 591.715, 867.215 590.144 C 867.260 588.573, 866.981 586.779, 866.596 586.156 C 864.515 582.789, 858.814 556.127, 859.827 554.500 C 860.170 553.950, 860.325 552.741, 860.173 551.813 C 860.020 550.885, 860.818 548.317, 861.945 546.108 C 866.169 537.828, 866.679 522.451, 862.977 515 C 862.021 513.075, 860.034 507.856, 858.563 503.403 C 856.435 496.963, 854.982 494.417, 851.461 490.962 L 847.035 486.618 838.267 486.338 C 833.445 486.184, 828.375 486.428, 827 486.880" stroke="#e23b33" fill="#e23b33" fill-opacity="0.2" fill-rule="evenodd"/><path class="svg-region-VOC" d="M 497.082 484.368 C 495.937 486.220, 495 488.669, 495 489.809 C 495 490.949, 494.550 492.160, 494 492.500 C 492.636 493.343, 492.730 500.715, 494.115 501.571 C 494.795 501.991, 495.036 503.986, 494.734 506.672 L 494.236 511.083 501.757 516.042 C 505.893 518.769, 510.227 521.032, 511.389 521.071 C 512.550 521.110, 517.100 521.583, 521.500 522.121 C 536.658 523.975, 541 522.842, 541 517.032 C 541 513.826, 537.768 510.657, 529.446 505.699 C 523.602 502.218, 516.697 495.181, 514.041 490 C 513.337 488.625, 511.376 486.038, 509.684 484.250 C 507.286 481.716, 505.787 481, 502.885 481 C 499.738 481, 498.842 481.520, 497.082 484.368" stroke="#ff8f93" fill="#ff8f93" fill-opacity="0.2" fill-rule="evenodd"/><path class="svg-region-OABr" d="M 645.200 410.200 C 644.540 410.860, 643.989 413.447, 643.977 415.950 C 643.961 418.991, 643.049 422.145, 641.227 425.460 C 638.498 430.424, 637.061 431.463, 627.323 435.504 C 620.696 438.255, 617.983 441.769, 617.288 448.502 C 616.862 452.628, 617.122 455.160, 618.201 457.386 C 620.465 462.056, 622 467.309, 622 470.387 C 622 471.896, 622.495 474.056, 623.100 475.186 C 624.139 477.129, 624.524 476.922, 630.185 471.370 C 639.048 462.678, 647.666 449.817, 651.207 440 C 655.528 428.022, 655.872 425.714, 654.279 419.373 C 652.211 411.137, 648.257 407.143, 645.200 410.200" stroke="#81244d" fill="#81244d" fill-opacity="0.2" fill-rule="evenodd"/><path class="svg-region-SOTr" d="M 517.500 419.719 C 514.701 420.401, 512.389 422.646, 510.978 426.053 C 509.593 429.397, 510.405 434, 512.380 434 C 513.242 434, 513.930 435.764, 514.305 438.932 C 514.956 444.425, 518.309 451.798, 520.547 452.657 C 526.519 454.948, 531.649 447.409, 532.609 434.932 L 533.259 426.467 529.127 422.733 C 525.065 419.063, 522.704 418.451, 517.500 419.719" stroke="#995b45" fill="#995b45" fill-opacity="0.2" fill-rule="evenodd"/>
    </svg>