<svg xmlns="http://www.w3.org/2000/svg" width="1078" height="1151" viewBox="0 0 1078 1151" version="1.1">
    <path class="svg-region-V" d="M 492.075 189.563 C 486.341 190.300, 481.262 190.662, 480.788 190.369 C 480.314 190.076, 477.261 191.223, 474.004 192.918 C 470.747 194.613, 467.272 196, 466.283 196 C 465.294 196, 462.463 197.065, 459.992 198.368 C 457.521 199.670, 453.365 201.047, 450.755 201.428 C 447.991 201.832, 444.799 203.140, 443.110 204.561 C 441.516 205.902, 439.704 207, 439.083 207 C 438.463 207, 436.053 208.740, 433.728 210.866 C 431.402 212.993, 428.112 215.441, 426.415 216.307 C 421.862 218.630, 412 226.908, 412 228.407 C 412 229.120, 409.975 232.787, 407.500 236.555 C 405.025 240.323, 402.998 244.102, 402.996 244.953 C 402.994 245.804, 402.094 247.973, 400.996 249.774 C 399.898 251.575, 399 253.468, 399 253.980 C 399 254.493, 397.656 257.191, 396.014 259.976 C 394.372 262.762, 392.736 266.202, 392.380 267.622 C 391.357 271.696, 385.222 282.701, 380.535 288.865 C 376.341 294.383, 365.384 315.071, 362.987 322 C 356.407 341.016, 351.707 365.666, 353.893 369.694 C 354.432 370.687, 356.028 375.245, 357.440 379.822 C 358.851 384.399, 360.515 389.093, 361.136 390.254 C 361.757 391.414, 362.835 394.644, 363.532 397.432 C 366.420 408.988, 372.391 421.632, 375.796 423.403 C 377.283 424.176, 379.589 425.758, 380.919 426.918 C 382.249 428.078, 384.049 428.810, 384.919 428.545 C 385.789 428.279, 390.477 427.376, 395.337 426.539 C 408.973 424.188, 416.440 417.870, 419.020 406.500 C 419.644 403.750, 421.019 399.392, 422.077 396.815 C 423.404 393.582, 424 389.735, 424 384.405 C 424 376.925, 424.184 376.332, 429.831 365.591 C 437.878 350.284, 450.287 331.676, 457.234 324.500 C 460.429 321.200, 463.821 317.313, 464.771 315.863 C 471.066 306.262, 475.737 300.551, 482.861 293.750 C 487.325 289.488, 491.417 286, 491.954 286 C 492.491 286, 494.409 284.702, 496.215 283.116 C 502.528 277.573, 511.717 276.593, 520.947 280.478 C 528.926 283.836, 534.179 287.542, 542.668 295.799 C 551.769 304.652, 556.058 306.427, 566.834 305.803 C 578.541 305.126, 583.261 301.924, 591.447 289.109 C 594.044 285.043, 598.885 278.968, 602.206 275.609 C 610.715 266.999, 613 262.387, 613 253.819 C 613 244.935, 611.212 240.783, 605.880 237.288 C 603.541 235.755, 598.252 230.989, 594.129 226.698 C 582.542 214.642, 570.582 206.850, 550.500 198.274 C 535.241 191.758, 529.287 190.123, 516.681 188.986 C 504.555 187.892, 505.214 187.877, 492.075 189.563" stroke="#dd8a8a" fill="#dd8a8a" fill-opacity="0.2" fill-rule="evenodd"/><path class="svg-region-SV" d="M 503 279.172 C 501.075 279.717, 498.600 280.971, 497.500 281.958 C 496.400 282.945, 493.603 284.929, 491.285 286.367 C 485.803 289.767, 475.401 300.692, 469.317 309.440 C 466.667 313.249, 461.537 319.546, 457.916 323.433 C 448.778 333.242, 434.896 354.388, 427.498 369.772 C 424.453 376.103, 424 378.020, 424 384.587 C 424 389.692, 423.385 393.643, 422.097 396.815 C 421.051 399.392, 419.622 403.750, 418.923 406.500 C 418.223 409.250, 417.028 412.474, 416.267 413.664 C 414.686 416.136, 415.023 416.330, 423 417.532 C 425.475 417.905, 431.131 419.996, 435.568 422.179 C 443.629 426.143, 443.650 426.147, 457.336 426.449 L 471.036 426.751 475.886 431.126 C 478.947 433.887, 481.074 436.790, 481.654 439 C 482.283 441.398, 483.647 443.130, 485.986 444.500 C 492.123 448.096, 497.840 454.582, 498.512 458.713 C 499.341 463.807, 501.906 470.824, 503.241 471.649 C 504.657 472.524, 508 468.360, 508 465.721 C 508 464.590, 509.986 459.991, 512.414 455.501 C 515.406 449.967, 516.547 446.884, 515.955 445.928 C 515.476 445.152, 514.788 442.151, 514.427 439.259 C 513.995 435.801, 513.302 434, 512.404 434 C 510.749 434, 509.580 429.900, 510.451 427.155 C 511.746 423.073, 514.979 420.179, 519.004 419.499 C 523.257 418.781, 523.868 417.965, 521.578 416.064 C 520.795 415.415, 519.698 413.571, 519.138 411.967 C 518.245 409.403, 518.429 408.807, 520.662 407.051 C 523.837 404.554, 529.743 403.343, 531.275 404.875 C 532.693 406.293, 538.986 406.331, 542.685 404.944 C 544.233 404.363, 547.244 402.688, 549.375 401.221 C 552.262 399.235, 555.009 398.393, 560.147 397.922 C 563.940 397.575, 567.327 397.007, 567.673 396.660 C 568.019 396.314, 568.513 391.411, 568.771 385.765 C 569.036 379.935, 569.761 374.852, 570.447 374 C 571.112 373.175, 572.604 370.837, 573.762 368.805 C 575.543 365.679, 575.694 364.649, 574.737 362.114 C 574.079 360.371, 572.651 358.878, 571.321 358.544 C 570.065 358.229, 568.368 356.679, 567.551 355.100 C 566.735 353.520, 563.275 349.702, 559.863 346.614 C 554.012 341.320, 549.312 339.018, 544.321 339.006 C 540.770 338.996, 538.711 336.167, 539.358 332.183 C 539.969 328.415, 542.867 324.781, 547.345 322.163 C 548.910 321.248, 551.057 318.812, 552.116 316.750 C 553.175 314.687, 555.832 311.869, 558.021 310.487 C 562.478 307.673, 563.115 306.011, 559.750 305.978 C 555.411 305.936, 548.956 302.045, 542.259 295.436 C 527.625 280.996, 515.011 275.770, 503 279.172" stroke="#c666b5" fill="#c666b5" fill-opacity="0.2" fill-rule="evenodd"/><path class="svg-region-SF" d="M 613.667 247.667 C 613.300 248.033, 613 250.973, 613 254.199 C 613 262.216, 611.259 265.775, 603.136 274.357 C 599.303 278.406, 594.176 284.820, 591.743 288.610 C 589.310 292.399, 585.335 297.282, 582.909 299.461 C 580.134 301.953, 578.042 304.918, 577.265 307.461 C 575.720 312.514, 575.639 325.679, 577.116 331.545 C 578.099 335.451, 577.967 336.539, 575.999 340.725 C 569.609 354.319, 574.372 370.011, 586.851 376.478 C 589.408 377.803, 593.674 381.397, 596.331 384.465 C 603.341 392.557, 607.526 394.484, 618 394.442 C 629.453 394.395, 637.055 391.728, 638.187 387.359 C 638.725 385.284, 640.492 383.311, 643.738 381.164 C 652.320 375.487, 657.774 370.585, 661.416 365.274 C 663.387 362.400, 665 359.378, 665 358.558 C 665 354.173, 671.094 345, 674.007 345 C 675.404 345, 675.603 344.095, 675.274 339.250 C 675.059 336.087, 674.224 329.401, 673.419 324.390 C 672.614 319.380, 672.231 314.563, 672.567 313.685 C 672.941 312.711, 672.210 311.119, 670.692 309.601 C 666.838 305.747, 659 295.286, 659 293.996 C 659 293.360, 656.862 288.939, 654.250 284.170 C 649.605 275.692, 640.930 265.771, 633.114 260 C 631.252 258.625, 627.525 255.588, 624.831 253.250 C 622.137 250.912, 619.273 249, 618.467 249 C 617.660 249, 617 248.550, 617 248 C 617 246.875, 614.689 246.644, 613.667 247.667" stroke="#8c6b55" fill="#8c6b55" fill-opacity="0.2" fill-rule="evenodd"/><path class="svg-region-IF" d="M 670.558 346.585 C 668.738 348.405, 665 356.237, 665 358.229 C 665 358.965, 663.433 361.999, 661.518 364.972 C 658.229 370.077, 652.024 375.860, 645.652 379.758 C 638.773 383.965, 638 384.951, 638 389.516 C 638 392.899, 638.502 394.238, 640.223 395.443 C 642.693 397.174, 650.535 397.561, 651.500 396 C 652.449 394.465, 656.657 394.799, 664.669 397.047 C 675.043 399.958, 682.471 403.455, 690.157 409.045 C 693.832 411.718, 699.083 415.117, 701.825 416.598 C 706.465 419.104, 707.113 419.205, 711.156 418.056 C 713.545 417.377, 717.300 416.523, 719.500 416.160 L 723.500 415.498 723.145 409.999 C 722.949 406.975, 722.387 403.742, 721.895 402.816 C 721.403 401.889, 720.989 398.739, 720.976 395.816 C 720.943 388.690, 719.492 382.817, 715.912 375.315 C 711.743 366.579, 709.089 363.803, 701.295 360.024 C 697.558 358.212, 693.150 355.729, 691.500 354.506 C 689.850 353.284, 686.138 351.087, 683.250 349.625 C 680.362 348.163, 678 346.524, 678 345.983 C 678 344.395, 672.286 344.857, 670.558 346.585" stroke="#f2823b" fill="#f2823b" fill-opacity="0.2" fill-rule="evenodd"/><path class="svg-region-PF" d="M 574 305 C 572.625 305.440, 569.925 305.854, 568 305.919 C 565.921 305.989, 562.713 307.247, 560.100 309.018 C 557.679 310.658, 555.366 312, 554.960 312 C 554.553 312, 553.268 314.025, 552.105 316.500 C 550.942 318.975, 549.623 321, 549.175 321 C 548.727 321, 546.495 322.596, 544.217 324.547 C 541.459 326.907, 539.863 329.213, 539.445 331.441 C 538.468 336.649, 540.110 338.616, 546.020 339.316 C 551.854 340.007, 558.486 344.317, 564.381 351.249 C 566.369 353.587, 568.672 356.288, 569.498 357.250 C 572.024 360.193, 572.711 359.273, 573.233 352.250 C 573.542 348.109, 574.627 343.685, 576.041 340.804 C 578.188 336.431, 578.258 335.742, 577.062 330.758 C 575.768 325.363, 576.026 310.720, 577.494 306.250 C 578.280 303.859, 577.942 303.738, 574 305 M 572.298 370.669 C 569.603 375.050, 569.268 376.572, 568.699 387 C 567.893 401.784, 569.289 406.407, 575.084 408.143 C 577.954 409.003, 579.589 408.999, 581.698 408.128 C 583.239 407.492, 587.182 406.536, 590.461 406.004 C 594.371 405.369, 597.868 403.998, 600.624 402.018 C 602.936 400.358, 605.716 399, 606.803 399 C 607.889 399, 609.841 398.135, 611.139 397.078 L 613.500 395.155 610.500 394.051 C 608.850 393.443, 606.247 392.447, 604.716 391.838 C 603.184 391.228, 599.393 387.838, 596.291 384.305 C 593.189 380.772, 589.073 377.222, 587.144 376.416 C 585.214 375.609, 581.754 372.900, 579.453 370.394 L 575.271 365.839 572.298 370.669" stroke="#faaaaa" fill="#faaaaa" fill-opacity="0.2" fill-rule="evenodd"/><path class="svg-region-AAB" d="M 651.500 396 C 651.160 396.550, 649.722 397, 648.303 397 C 645.761 397, 645.734 397.079, 646.381 402.586 C 647.137 409.019, 649.159 413.479, 652.010 415.006 C 653.105 415.591, 654 416.896, 654 417.905 C 654 418.914, 654.901 422.559, 656.002 426.006 C 657.631 431.104, 657.810 432.991, 656.966 436.126 C 656.395 438.245, 656.231 442.258, 656.600 445.043 C 657.195 449.526, 656.991 450.416, 654.829 452.803 C 651.707 456.250, 644.259 466.087, 640.909 471.189 C 638.066 475.517, 631.747 479.920, 628.307 479.969 C 627.100 479.986, 625.448 479.050, 624.635 477.889 C 622.828 475.309, 622.395 475.564, 611.641 485.550 C 602.011 494.493, 601.367 495, 599.635 495 C 598.838 495, 596.125 497.292, 593.607 500.092 C 588.424 505.857, 588.549 508.260, 594.089 509.368 C 598.784 510.307, 617.627 510.096, 624.500 509.027 C 646.057 505.675, 651.741 504.265, 660.113 500.191 C 664.850 497.886, 669.069 496, 669.489 496 C 669.908 496, 675.483 493.188, 681.876 489.750 C 688.269 486.313, 694.354 483.266, 695.398 482.979 C 697.316 482.453, 704.178 470.327, 705.462 465.196 C 707.330 457.731, 705.654 447.013, 702.216 444.440 C 701.365 443.804, 700.593 440.793, 700.280 436.895 C 699.828 431.268, 700.106 429.724, 702.380 425.238 C 703.821 422.394, 705 419.623, 705 419.080 C 705 418.538, 703.538 417.390, 701.750 416.530 C 699.962 415.669, 694.899 412.386, 690.497 409.233 C 682.028 403.166, 675.764 400.221, 664.448 396.985 C 656.806 394.800, 652.447 394.468, 651.500 396" stroke="#7f3c1a" fill="#7f3c1a" fill-opacity="0.2" fill-rule="evenodd"/><path class="svg-region-APB" d="M 634.733 391.090 C 631.739 392.833, 622.138 395, 617.409 395 C 614.299 395, 612.256 395.615, 610.770 397 C 609.589 398.100, 607.769 399, 606.725 399 C 605.681 399, 602.909 400.378, 600.564 402.061 C 598.119 403.818, 594.355 405.416, 591.737 405.811 C 587.888 406.392, 585.788 407.735, 578.336 414.383 C 569.132 422.594, 567.221 425.500, 564.444 435.500 C 561.283 446.888, 560.814 448.076, 557.582 452.879 C 551.647 461.697, 551.096 464.213, 550.384 485.722 C 550.023 496.600, 549.400 505.950, 548.999 506.500 C 548.598 507.050, 548.032 509.374, 547.742 511.665 C 547.287 515.249, 547.582 516.171, 549.857 518.275 C 551.310 519.620, 554.862 521.980, 557.749 523.519 L 562.998 526.317 571.249 522.491 C 575.787 520.387, 580.625 517.900, 582 516.965 C 583.375 516.030, 587.862 514.211, 591.971 512.923 L 599.443 510.582 595.148 509.536 C 588.671 507.959, 588.413 506.336, 593.671 500.234 C 596.151 497.355, 598.834 495, 599.632 495 C 601.377 495, 601.668 494.769, 613.529 484 C 622.004 476.305, 622.895 475.156, 622.945 471.864 C 622.975 469.865, 622.328 466.940, 621.506 465.364 C 620.685 463.789, 619.995 461.825, 619.974 461 C 619.953 460.175, 619.276 458.626, 618.468 457.559 C 617.661 456.491, 617 453.695, 617 451.344 C 617 446.432, 618.678 445, 624.434 445 C 627.681 445, 628 444.747, 628 442.174 C 628 439.114, 630.181 436.711, 636.264 433.072 C 640.245 430.690, 644.730 424.819, 647.013 419 C 647.768 417.075, 648.821 415.204, 649.351 414.843 C 649.941 414.442, 649.697 412.882, 648.724 410.831 C 647.848 408.986, 646.825 405.165, 646.451 402.340 C 645.841 397.746, 645.476 397.145, 642.989 396.648 C 641.138 396.278, 639.757 395.073, 638.860 393.046 C 637.368 389.675, 637.255 389.621, 634.733 391.090" stroke="#ac7444" fill="#ac7444" fill-opacity="0.2" fill-rule="evenodd"/><path class="svg-region-PC" d="M 559.500 397.902 C 555.102 398.340, 552.032 399.413, 548 401.920 C 542.182 405.537, 532.942 407.333, 531.570 405.113 C 530.123 402.772, 523.928 404.143, 519.831 407.711 C 517.146 410.048, 519.344 414.179, 526.712 420.649 L 533.265 426.402 532.668 434.149 C 532.017 442.594, 530.326 447.674, 527.088 450.912 C 524.435 453.565, 520.396 453.607, 518.768 451 C 518.081 449.900, 517.199 449, 516.807 449 C 515.613 449, 508.930 461.090, 508.297 464.396 C 507.971 466.103, 506.826 468.756, 505.754 470.291 L 503.805 473.082 507.083 480.541 C 508.886 484.643, 510.673 488, 511.055 488 C 511.436 488, 514.167 491.693, 517.124 496.206 C 523.446 505.856, 533.898 517.006, 536.601 516.985 C 537.645 516.976, 540.525 516.367, 543 515.631 C 547.070 514.420, 547.531 513.967, 547.821 510.896 C 547.998 509.028, 548.561 507.072, 549.071 506.550 C 549.582 506.027, 550.020 500.627, 550.044 494.550 C 550.068 488.472, 550.467 478.921, 550.931 473.325 C 551.736 463.614, 552.004 462.746, 556.806 454.325 C 560.146 448.468, 562.748 442.137, 564.543 435.500 L 567.249 425.500 576.738 416.250 C 585.867 407.351, 586.844 405.747, 581.715 408.084 C 580.002 408.865, 578.192 408.859, 575.242 408.065 C 571.523 407.064, 570.997 406.507, 569.494 401.981 C 568.584 399.242, 567.313 397.069, 566.670 397.152 C 566.026 397.236, 562.800 397.574, 559.500 397.902" stroke="#cda789" fill="#cda789" fill-opacity="0.2" fill-rule="evenodd"/><path class="svg-region-DB" d="M 412.941 418.563 C 411.607 419.982, 408.825 422.094, 406.758 423.256 C 403.932 424.844, 403.002 426.005, 403.009 427.934 C 403.022 431.249, 407.771 439.467, 412.439 444.251 C 415.624 447.516, 438.115 463, 439.672 463 C 441.399 463, 454.303 468.638, 455.580 469.951 C 463.043 477.621, 463.549 478.673, 464.360 488.203 C 464.876 494.262, 465.727 496.279, 470.500 502.767 C 474.086 507.641, 475.920 508.421, 488.851 510.568 C 492.099 511.107, 493.427 510.937, 494.086 509.895 C 495.291 507.993, 495.232 502.261, 494 501.500 C 493.450 501.160, 493 499.193, 493 497.128 C 493 494.321, 493.707 492.697, 495.805 490.687 C 497.347 489.209, 499.147 488, 499.805 488 C 500.462 488, 501 487.550, 501 487 C 501 486.450, 502.800 486, 505 486 C 507.200 486, 509 485.544, 509 484.987 C 509 484.430, 506.952 479.818, 504.450 474.737 C 501.947 469.657, 499.464 463.254, 498.930 460.510 C 497.770 454.536, 493.933 449.470, 487.897 445.940 C 484.704 444.072, 483.101 442.284, 482.005 439.364 C 481.177 437.158, 478.497 433.510, 476.050 431.258 C 472.043 427.571, 470.928 427.095, 464.868 426.487 C 461.167 426.115, 456.869 426.089, 455.319 426.428 C 450.972 427.381, 442.222 425.353, 434.500 421.604 C 430.650 419.734, 425.475 417.901, 423 417.529 C 420.525 417.158, 417.795 416.658, 416.933 416.418 C 416.071 416.178, 414.275 417.143, 412.941 418.563" stroke="#e8b1e4" fill="#e8b1e4" fill-opacity="0.2" fill-rule="evenodd"/><path class="svg-region-MB" d="M 389.202 427.345 L 383.904 428.381 384.315 436.001 C 384.816 445.276, 386.463 448.962, 393.844 457.325 C 399.107 463.287, 399.622 464.325, 401.250 472.248 C 402.212 476.932, 403.010 481.829, 403.022 483.132 C 403.063 487.516, 407.055 494.464, 412.569 499.750 C 415.582 502.637, 418.287 505, 418.581 505 C 418.875 505, 422.200 507.587, 425.971 510.750 C 432.983 516.632, 434.026 517.257, 447 523.366 C 457.144 528.142, 462.226 529.669, 470.500 530.426 C 474.350 530.778, 481.550 531.769, 486.500 532.627 C 497.623 534.555, 509.190 534.921, 528 533.938 C 543.405 533.133, 549 531.858, 549 529.151 C 549 528.193, 547.213 526.639, 544.750 525.456 C 541.223 523.762, 540.447 522.869, 540.187 520.207 C 539.994 518.231, 539.322 517, 538.437 517 C 537.646 517, 537 517.538, 537 518.196 C 537 518.854, 535.814 521.104, 534.364 523.196 C 532.118 526.437, 531.193 526.994, 528.114 526.956 C 526.126 526.932, 522.700 526.225, 520.500 525.385 C 518.300 524.544, 512 523.610, 506.500 523.309 C 494.290 522.640, 492.536 521.577, 493.462 515.408 L 494.082 511.269 489.791 510.636 C 479.620 509.134, 473 507.261, 473 505.886 C 473 505.402, 471.445 503.285, 469.545 501.182 C 465.905 497.153, 464.067 491.539, 464.024 484.327 C 464.005 481.085, 463.180 479.076, 460.328 475.327 C 455.541 469.035, 454.918 468.597, 445.580 464.943 C 438.797 462.289, 427.609 456.103, 426 454.117 C 425.725 453.778, 423.914 452.696, 421.975 451.714 C 414.399 447.875, 403 433.812, 403 428.304 C 403 426.236, 402.565 426.016, 398.750 426.155 C 396.413 426.240, 392.116 426.776, 389.202 427.345" stroke="#f9c6c6" fill="#f9c6c6" fill-opacity="0.2" fill-rule="evenodd"/><path class="svg-region-AP" d="M 555.638 606.456 L 552.776 609.112 553.267 626.306 C 553.705 641.652, 554.037 644.252, 556.358 650.500 C 557.788 654.350, 558.967 659.161, 558.979 661.191 C 558.991 663.221, 559.424 665.144, 559.942 665.464 C 560.460 665.785, 561.180 668.174, 561.542 670.773 C 561.903 673.373, 562.799 677.750, 563.532 680.500 C 564.265 683.250, 565.359 692.700, 565.963 701.500 C 567.388 722.265, 567.817 726.068, 568.889 727.399 C 569.955 728.724, 570.793 734.496, 571.625 746.250 C 571.966 751.063, 572.640 755, 573.122 755 C 573.605 755, 573.993 755.563, 573.984 756.250 C 573.966 757.731, 582.990 765.977, 584.643 765.991 C 585.272 765.996, 586.059 766.711, 586.392 767.580 C 586.840 768.747, 587.762 768.991, 589.926 768.516 C 592.369 767.980, 593.533 768.486, 596.953 771.576 C 600.951 775.189, 601.196 775.264, 606.954 774.663 C 611.083 774.231, 615.633 774.639, 622.107 776.023 C 627.196 777.110, 632.210 778, 633.251 778 C 634.291 778, 635.817 778.674, 636.641 779.498 C 637.466 780.323, 639.346 781.292, 640.820 781.652 C 642.294 782.013, 643.730 782.653, 644.011 783.076 C 644.291 783.498, 647.216 783.991, 650.511 784.172 L 656.500 784.500 656.292 781.606 C 655.829 775.166, 660.328 773.017, 668.926 775.571 C 673.750 777.003, 674.284 776.959, 681.309 774.534 C 685.347 773.140, 689.648 772, 690.868 772 C 692.087 772, 700.497 769.058, 709.555 765.463 C 725.897 758.977, 726.082 758.869, 733.374 751.529 C 738.304 746.568, 740.933 743.085, 741.360 740.950 C 741.710 739.200, 743.398 736.172, 745.111 734.220 L 748.226 730.673 747.778 718.086 C 747.286 704.259, 746.537 701.959, 737.982 688.004 C 735.792 684.432, 734 680.848, 734 680.041 C 734 678.820, 725.297 660.872, 718.798 648.690 C 717.862 646.936, 717.046 643.475, 716.985 641 C 716.910 637.993, 715.816 634.556, 713.687 630.642 C 710.817 625.367, 709.997 624.617, 705.443 623.111 C 702.662 622.191, 699.315 620.440, 698.005 619.219 C 696.695 617.999, 695.254 617, 694.803 617 C 694.352 617, 692.119 615.650, 689.841 614 C 687.564 612.350, 684.507 611, 683.050 611 C 681.592 611, 679.885 610.485, 679.257 609.857 C 678.399 608.999, 673.025 609.037, 657.735 610.009 C 636.476 611.361, 617.725 610.994, 614.294 609.157 C 613.191 608.567, 604.948 607.801, 595.978 607.455 C 587.007 607.110, 577.380 606.394, 574.584 605.865 C 571.788 605.335, 567.025 604.654, 564 604.351 C 559.038 603.854, 558.220 604.059, 555.638 606.456" stroke="#fc7143" fill="#fc7143" fill-opacity="0.2" fill-rule="evenodd"/><path class="svg-region-PP" d="M 537 610.217 C 535.075 610.734, 533.072 611.571, 532.550 612.078 C 532.028 612.585, 530.535 613, 529.234 613 C 527.933 613, 525.950 613.492, 524.827 614.093 C 523.350 614.883, 522.483 614.883, 521.693 614.093 C 519.497 611.897, 516.251 612.909, 514.169 616.439 C 512.751 618.842, 510.959 620.232, 508.220 621.052 C 504.097 622.288, 501.308 621.882, 490 618.404 C 486.975 617.473, 482.771 616.596, 480.658 616.455 C 478.130 616.286, 475.888 615.309, 474.103 613.599 C 470.665 610.305, 466.548 609.999, 467.535 613.112 C 468.192 615.180, 468.054 615.206, 460.853 614.370 C 456.809 613.901, 450.351 613.513, 446.503 613.508 C 439.560 613.500, 439.499 613.524, 438.502 616.598 C 436.501 622.768, 435.471 623.276, 426.478 622.527 C 419.680 621.960, 418.152 622.112, 417.030 623.464 C 416.293 624.351, 413.487 626.025, 410.793 627.184 C 407.410 628.640, 404.985 630.616, 402.948 633.576 C 399.714 638.276, 399.352 642.149, 401.085 653.500 C 401.588 656.800, 402.428 663.550, 402.951 668.500 C 403.951 677.961, 406.661 686.052, 411.662 694.500 C 413.290 697.250, 414.956 700.388, 415.365 701.472 C 415.773 702.557, 417.443 705.257, 419.076 707.472 C 423.195 713.064, 428.003 720.184, 433.610 729 C 439.148 737.707, 446.044 745.647, 450.545 748.500 C 452.280 749.600, 456.354 752.636, 459.597 755.246 C 466.447 760.759, 487.022 771.503, 493.824 773.119 C 500.911 774.803, 506.112 776.601, 521.308 782.622 C 528.951 785.650, 535.438 787.895, 535.723 787.610 C 536.008 787.326, 531.844 782.234, 526.470 776.296 C 515.938 764.659, 514.444 762.112, 513.548 754.277 C 512.696 746.826, 515.340 740.630, 520.495 738.003 C 525.454 735.474, 532.269 735.473, 537.500 738 C 539.700 739.063, 541.850 739.947, 542.278 739.966 C 543.788 740.032, 558.504 747.304, 558.833 748.146 C 559.017 748.616, 559.695 749, 560.341 749 C 560.987 749, 563.629 750.125, 566.212 751.500 C 568.795 752.875, 571.210 754, 571.580 754 C 572.871 754, 570.425 729.309, 568.952 727.475 C 567.949 726.226, 567.371 721.128, 565.949 701 C 565.347 692.475, 564.257 683.250, 563.527 680.500 C 562.796 677.750, 561.903 673.373, 561.542 670.773 C 561.180 668.174, 560.460 665.785, 559.942 665.464 C 559.424 665.144, 558.991 663.221, 558.979 661.191 C 558.967 659.161, 557.788 654.350, 556.358 650.500 C 554.036 644.249, 553.705 641.655, 553.266 626.250 C 552.882 612.826, 552.479 609, 551.446 609 C 550.715 609, 549.840 609.450, 549.500 610 C 548.743 611.224, 542.761 611.327, 541.450 610.139 C 540.918 609.656, 538.962 609.691, 537 610.217" stroke="#c4743d" fill="#c4743d" fill-opacity="0.2" fill-rule="evenodd"/><path class="svg-region-VMr" d="M 521.559 737.532 C 520.491 738.339, 518.916 739, 518.059 739 C 517.034 739, 515.848 741.039, 514.600 744.944 C 512.952 750.104, 512.854 751.648, 513.860 756.659 C 515.218 763.417, 517.533 767.142, 525.878 775.993 C 529.245 779.565, 532 782.772, 532 783.122 C 532 784.359, 542.553 791.618, 546.071 792.800 C 550.880 794.416, 565.782 794.381, 567.326 792.750 C 575.073 784.564, 580 776.433, 580 771.833 C 580 770.260, 580.563 768.052, 581.250 766.927 C 582.370 765.093, 582.056 764.497, 578.235 761.190 C 575.889 759.161, 573.972 757.050, 573.976 756.500 C 573.984 755.385, 562.211 748.927, 560.250 748.972 C 559.563 748.987, 559 748.602, 559 748.117 C 559 747.631, 558.212 746.969, 557.250 746.646 C 556.288 746.322, 554.825 745.618, 554 745.079 C 553.175 744.541, 549.575 742.908, 546 741.451 C 542.425 739.993, 538.306 738.171, 536.846 737.400 C 533.361 735.562, 524.058 735.642, 521.559 737.532" stroke="#e59376" fill="#e59376" fill-opacity="0.2" fill-rule="evenodd"/><path class="svg-region-PMr" d="M 261.813 716.750 C 259.880 718.813, 256.206 721.720, 253.649 723.212 C 249.539 725.608, 249 726.323, 249 729.373 C 249 731.997, 249.736 733.442, 252.077 735.411 C 255.564 738.345, 258.304 738.621, 263.730 736.585 C 265.803 735.807, 268.725 734.902, 270.222 734.573 C 271.720 734.245, 273.900 732.969, 275.068 731.738 C 276.904 729.804, 277.126 728.645, 276.707 723.202 C 276.115 715.500, 274.228 713, 269.009 713 C 266.047 713, 264.642 713.732, 261.813 716.750" stroke="#90cf92" fill="#90cf92" fill-opacity="0.2" fill-rule="evenodd"/><path class="svg-region-PV" d="M 256.490 591.016 C 256.144 591.575, 255.458 591.783, 254.965 591.478 C 253.116 590.335, 246.233 594.891, 245.160 597.969 C 244.577 599.642, 241.128 603.983, 237.495 607.617 C 233.861 611.250, 231.134 614.467, 231.433 614.767 C 231.733 615.066, 233.634 615.580, 235.657 615.909 C 238.627 616.392, 240.273 617.664, 244.189 622.504 C 250.219 629.955, 253.975 637.419, 253.999 642 C 254.019 645.882, 258.765 651.793, 264.059 654.530 C 267.123 656.115, 270 660.604, 270 663.800 C 270 664.844, 268.658 667.679, 267.018 670.100 C 265.378 672.520, 264.028 675.795, 264.018 677.378 C 264.001 680.136, 259.670 688.862, 255.825 693.885 C 254.416 695.726, 254 698.058, 254 704.109 C 254 711.754, 254.072 711.986, 256.910 713.453 C 258.510 714.281, 260.004 715.513, 260.231 716.192 C 260.516 717.049, 261.503 716.749, 263.456 715.213 C 266.960 712.457, 272.078 712.323, 274.433 714.926 C 275.503 716.108, 276.390 719.205, 276.728 722.942 C 277.178 727.900, 276.950 729.398, 275.502 730.997 C 272.653 734.146, 274.947 735.706, 283.283 736.290 C 301.507 737.564, 305.254 738.865, 314.171 747.009 C 315.955 748.638, 319.234 750.578, 321.457 751.318 C 324.857 752.451, 325.770 753.368, 327.196 757.083 C 328.128 759.512, 328.916 763.328, 328.946 765.562 C 328.976 767.796, 329.838 771.396, 330.863 773.562 C 331.887 775.728, 333.002 779.628, 333.341 782.228 C 333.679 784.829, 334.482 787.798, 335.124 788.827 C 335.767 789.856, 336.009 791.779, 335.663 793.099 C 334.803 796.381, 327.432 803.853, 324.274 804.646 L 321.698 805.293 325.099 807.104 C 329.513 809.456, 335.944 809.470, 341.815 807.141 C 348.594 804.452, 353.381 803, 355.466 803 C 360.693 803, 385.550 787.489, 391.137 780.740 C 392.157 779.508, 394.494 776.925, 396.331 775 C 400.253 770.888, 405 761.841, 405 758.477 C 405 757.180, 405.415 755.861, 405.923 755.548 C 406.431 755.234, 407.163 753.534, 407.550 751.771 C 407.937 750.008, 408.594 747.876, 409.010 747.033 C 411.350 742.285, 414.208 729.794, 414.704 722.145 C 415.177 714.839, 414.981 712.900, 413.547 710.713 C 412.116 708.527, 411.990 707.290, 412.808 703.451 C 413.757 699.002, 413.628 698.547, 409.460 691.662 C 405.769 685.565, 402.349 678.988, 394.382 662.669 C 393.594 661.054, 393 656.726, 393 652.594 C 393 644.470, 395.470 636.026, 401.219 624.500 C 406.524 613.862, 407.470 611.070, 406.199 609.799 C 404.402 608.002, 394.838 605, 390.911 605 C 388.894 605, 385.508 604.274, 383.385 603.387 C 380.709 602.269, 376.707 601.803, 370.332 601.868 C 364.663 601.925, 359.577 601.409, 357.064 600.523 C 354.264 599.535, 342.438 598.595, 319.245 597.518 C 285.354 595.944, 273.437 594.436, 270.919 591.402 C 269.544 589.746, 257.475 589.423, 256.490 591.016" stroke="#b09658" fill="#b09658" fill-opacity="0.2" fill-rule="evenodd"/><path class="svg-region-DV" d="M 225.462 616.097 C 222.611 618.232, 219.896 620.661, 214.395 626 C 212.978 627.375, 210.931 630.525, 209.846 633 C 208.761 635.475, 207.051 639.300, 206.046 641.500 C 205.042 643.700, 203.203 649.916, 201.960 655.314 C 199.892 664.295, 199.748 666.756, 200.268 684.314 C 200.853 704.093, 203.622 722.760, 206.451 725.998 C 207.173 726.824, 208.071 728.510, 208.447 729.744 C 208.823 730.978, 209.681 732.553, 210.353 733.244 C 211.025 733.935, 212.677 736.300, 214.024 738.500 C 215.678 741.203, 216.574 741.975, 216.784 740.881 C 217.045 739.527, 219.173 739.170, 229.798 738.701 C 236.784 738.392, 244.690 737.531, 247.366 736.788 C 251.641 735.602, 252.036 735.275, 250.616 734.096 C 249.708 733.343, 249 731.266, 249 729.356 C 249 725.889, 249.374 725.537, 259.464 719.500 C 261.727 718.146, 260.523 715.322, 256.879 713.437 C 254.117 712.009, 254 711.660, 254 704.843 C 254 698.148, 254.289 697.233, 259 689 C 261.941 683.861, 264 679.030, 264 677.269 C 264 675.448, 265.175 672.796, 267 670.500 C 268.650 668.424, 270 665.640, 270 664.313 C 270 660.687, 267.315 656.214, 264.158 654.582 C 259.076 651.954, 254 645.399, 254 641.464 C 254 637.553, 250.262 629.424, 246.763 625.724 C 245.518 624.409, 243.285 621.734, 241.799 619.781 C 239.951 617.351, 238.057 616.069, 235.799 615.719 C 233.985 615.438, 231.583 614.909, 230.462 614.543 C 229.117 614.104, 227.419 614.632, 225.462 616.097" stroke="#45567a" fill="#45567a" fill-opacity="0.2" fill-rule="evenodd"/><path class="svg-region-VV" d="M 271.500 733.991 C 261.853 737.590, 257.817 738.336, 254.488 737.132 C 251.707 736.126, 249.716 736.184, 243.585 737.451 C 239.460 738.303, 231.790 739, 226.542 739 C 217.596 739, 217 739.128, 217 741.045 C 217 742.170, 218.012 744.110, 219.250 745.355 C 220.488 746.600, 222.710 749.214, 224.190 751.164 C 225.669 753.114, 229.269 755.917, 232.190 757.393 C 240.958 761.825, 249.546 768.200, 258.770 777.123 C 276.828 794.592, 288.285 802.944, 294.310 803.032 C 295.514 803.049, 297.374 803.724, 298.441 804.532 C 299.636 805.435, 302.639 806, 306.250 806 C 309.907 806, 311.885 806.377, 311.500 807 C 310.262 809.003, 317.925 807.955, 322.942 805.435 C 328.938 802.423, 335.939 795.406, 335.975 792.372 C 335.989 791.202, 335.325 788.629, 334.500 786.654 C 333.675 784.680, 333 781.682, 333 779.992 C 333 778.303, 332.100 775.156, 331 773 C 329.900 770.844, 329 767.299, 329 765.123 C 329 762.946, 328.135 759.147, 327.077 756.679 C 325.525 753.060, 324.531 752.056, 321.934 751.486 C 320.164 751.097, 316.867 749.110, 314.608 747.071 C 305.746 739.073, 302.146 737.811, 283.402 736.135 C 279.498 735.786, 275.673 734.993, 274.902 734.372 C 274.104 733.730, 272.639 733.566, 271.500 733.991" stroke="#7699d1" fill="#7699d1" fill-opacity="0.2" fill-rule="evenodd"/><path class="svg-region-B" d="M 823.500 481.343 C 820.750 482.530, 816.108 485.048, 813.184 486.940 C 810.260 488.833, 806.998 490.445, 805.935 490.523 C 804.871 490.602, 803.840 490.853, 803.644 491.083 C 802.100 492.885, 795 505.633, 795 506.604 C 795 507.280, 794.466 508.011, 793.813 508.229 C 793.129 508.457, 792.577 510.746, 792.512 513.624 C 792.446 516.509, 791.533 520.288, 790.352 522.562 C 789.004 525.155, 788.060 529.552, 787.586 535.436 C 787.027 542.364, 786.375 544.999, 784.683 547.169 C 783.482 548.708, 781.453 551.324, 780.174 552.984 C 778.895 554.643, 776.998 556, 775.959 556 C 773.215 556, 772 559.049, 772 565.934 C 772 569.270, 771.605 572, 771.121 572 C 770.638 572, 769.675 573.371, 768.980 575.047 C 768.286 576.723, 766.445 578.753, 764.889 579.558 C 763.333 580.362, 761.577 581.923, 760.987 583.025 C 760.397 584.127, 758.082 586.186, 755.843 587.599 C 749.239 591.768, 743 598.025, 743 600.478 C 743 601.856, 741.004 604.609, 737.750 607.720 C 729.723 615.393, 726 619.495, 726 620.666 C 726 621.251, 725.037 622.955, 723.860 624.451 C 721.874 626.976, 721.808 627.562, 722.936 632.603 C 723.604 635.591, 723.854 639.390, 723.490 641.046 C 722.775 644.300, 725.593 650.982, 729.055 654.246 C 730.910 655.994, 731.382 657.860, 732.498 667.849 C 733.508 676.892, 737.861 689.046, 742.133 694.750 C 744.295 697.638, 746.449 700, 746.918 700 C 747.388 700, 748.490 701.513, 749.368 703.362 C 750.245 705.211, 751.617 707.268, 752.417 707.931 C 753.217 708.595, 754.152 710.345, 754.494 711.819 C 754.836 713.294, 756.683 716.282, 758.597 718.461 C 761.893 722.213, 762.386 722.424, 767.914 722.461 C 773.348 722.497, 774.037 722.777, 777.875 726.500 C 780.143 728.700, 781.999 731.335, 781.999 732.356 C 782 734.080, 782.643 734.161, 791 733.500 C 797.215 733.008, 800 733.122, 800 733.867 C 800 734.608, 802.990 734.750, 809.530 734.320 C 815.581 733.923, 819.871 734.087, 821.280 734.771 C 824.816 736.484, 831.867 737.404, 840.500 737.276 C 846.829 737.183, 849.649 736.621, 854 734.589 C 857.025 733.176, 860.470 732.015, 861.655 732.010 C 862.841 732.004, 865.696 730.425, 868 728.500 C 870.304 726.575, 873.204 725, 874.445 725 C 875.685 725, 878.542 723.665, 880.794 722.034 C 887.154 717.427, 903.819 709, 906.570 709 C 908.138 709, 910.833 707.206, 917.172 701.943 C 920.216 699.415, 920.233 699.351, 918.626 696.243 C 917.594 694.248, 916.998 690.614, 916.996 686.300 C 916.993 681.503, 916.237 677.438, 914.432 672.500 C 911.154 663.537, 910.383 660.835, 909.013 653.500 C 908.396 650.200, 907.413 646.150, 906.827 644.500 C 904.567 638.135, 903.020 629.346, 903.557 625.921 C 903.959 623.357, 903.670 621.971, 902.540 621.033 C 901.402 620.089, 901.137 618.789, 901.588 616.381 C 902.150 613.384, 901.116 608.828, 897.955 600.380 C 897.519 599.214, 896.848 596.171, 896.465 593.618 C 896.083 591.065, 895.371 588.729, 894.885 588.429 C 894.398 588.128, 894 586.874, 894 585.641 C 894 584.408, 893.554 582.954, 893.009 582.409 C 891.403 580.803, 889.820 572.095, 889.572 563.500 C 889.433 558.708, 888.628 553.696, 887.564 551 C 886.587 548.525, 885.558 545.009, 885.277 543.187 C 884.901 540.749, 883.761 539.208, 880.959 537.354 C 877.233 534.888, 874 529.192, 874 525.094 C 874 524.068, 873.328 521.940, 872.506 520.364 C 871.685 518.789, 871.003 515.025, 870.991 512 C 870.979 508.975, 870.552 505.840, 870.042 505.034 C 869.476 504.139, 869.474 503.134, 870.036 502.457 C 870.605 501.771, 870.516 500.177, 869.803 498.288 C 868.732 495.450, 868.916 494.916, 872.356 490.898 C 878.152 484.126, 876.501 482.435, 866.169 484.564 C 864.091 484.993, 861.927 484.764, 860.419 483.956 C 858.595 482.981, 857.446 482.934, 855.750 483.768 C 851.338 485.937, 848.867 486.131, 841.943 484.850 C 836.015 483.754, 834.837 483.199, 834.354 481.276 C 833.626 478.372, 830.341 478.393, 823.500 481.343" stroke="#e23b33" fill="#e23b33" fill-opacity="0.2" fill-rule="evenodd"/><path class="svg-region-VOC" d="M 501 487 C 501 487.550, 500.409 488, 499.687 488 C 498.965 488, 497.165 489.262, 495.687 490.805 C 492.791 493.828, 491.997 499.597, 494.177 501.777 C 495.079 502.679, 495.063 504.848, 494.110 511.074 C 492.413 522.161, 492.816 522.565, 506.288 523.293 C 511.905 523.597, 518.300 524.535, 520.500 525.379 C 522.700 526.222, 526.171 526.932, 528.214 526.956 C 531.405 526.994, 532.285 526.474, 534.464 523.268 C 537.176 519.277, 537.691 517, 535.883 517 C 533.785 517, 523.351 505.445, 517.234 496.347 C 513.874 491.350, 510.385 486.978, 509.480 486.631 C 506.893 485.638, 501 485.895, 501 487" stroke="#ff8f93" fill="#ff8f93" fill-opacity="0.2" fill-rule="evenodd"/><path class="svg-region-OABr" d="M 646.940 418.693 C 644.928 424.807, 641.131 429.719, 635.552 433.422 C 629.356 437.534, 628.302 438.706, 627.846 441.990 C 627.656 443.359, 626.825 444.567, 626 444.673 C 616.780 445.863, 617 445.713, 617 450.854 C 617 453.495, 617.654 456.483, 618.468 457.559 C 619.276 458.626, 619.951 460.426, 619.968 461.559 C 619.986 462.691, 620.661 464.491, 621.468 465.559 C 622.276 466.626, 622.951 469.312, 622.968 471.527 C 623.006 476.376, 625.312 480.016, 628.307 479.957 C 632.028 479.883, 638.334 475.547, 640.980 471.244 C 642.366 468.990, 646.591 463.251, 650.368 458.491 C 657.231 449.843, 657.236 449.833, 656.582 444.908 C 656.223 442.197, 656.377 438.297, 656.925 436.240 C 657.916 432.523, 657.781 431.544, 654.752 420.500 C 653.599 416.296, 652.968 415.451, 650.787 415.193 C 648.566 414.930, 648.012 415.434, 646.940 418.693" stroke="#81244d" fill="#81244d" fill-opacity="0.2" fill-rule="evenodd"/><path class="svg-region-SOTr" d="M 517.500 419.719 C 514.701 420.401, 512.389 422.646, 510.978 426.053 C 509.585 429.415, 510.408 434, 512.404 434 C 513.302 434, 513.995 435.801, 514.426 439.256 C 515.245 445.810, 518.787 452.390, 521.725 452.813 C 527.717 453.676, 531.826 446.842, 532.692 434.576 L 533.277 426.281 529.389 422.668 C 525.540 419.091, 522.834 418.420, 517.500 419.719" stroke="#995b45" fill="#995b45" fill-opacity="0.2" fill-rule="evenodd"/>
    </svg>