<svg xmlns="http://www.w3.org/2000/svg" width="1078" height="1151" viewBox="0 0 1078 1151" version="1.1">
    <path class="svg-region-V" d="M 508.500 161.032 C 503.550 161.442, 497.700 162.237, 495.500 162.798 C 493.300 163.358, 489.250 164.124, 486.500 164.499 C 478.398 165.603, 466.830 170.653, 460 176.068 C 457.525 178.030, 453.700 180.718, 451.500 182.042 C 446.827 184.854, 435.482 195.156, 432.282 199.494 C 429.795 202.865, 422.384 213.924, 417.536 221.500 C 411.497 230.935, 405.856 241.502, 405.256 244.500 C 404.927 246.150, 402.709 250.542, 400.328 254.260 C 397.948 257.978, 396 261.465, 396 262.007 C 396 262.550, 394.484 264.683, 392.632 266.747 C 390.780 268.811, 388.311 272.382, 387.146 274.682 C 385.982 276.982, 384.566 279.150, 384 279.500 C 383.434 279.850, 382.065 281.793, 380.958 283.818 C 379.850 285.843, 378.169 288.689, 377.222 290.142 C 365.973 307.404, 361.907 322.824, 365.376 335.062 C 366.224 338.053, 367.223 343.425, 367.597 347 C 368.064 351.469, 369.678 356.625, 372.762 363.500 C 375.229 369, 378.518 377.289, 380.072 381.920 C 381.625 386.551, 383.707 391.092, 384.698 392.010 C 387.277 394.401, 396.390 397, 402.191 397 C 404.919 397, 411.002 395.762, 415.707 394.250 C 426.118 390.903, 431.708 386.430, 434.979 378.828 C 436.923 374.308, 437.148 372.534, 436.601 366.040 C 436.252 361.893, 436.010 357.825, 436.064 357 C 436.117 356.175, 436.267 350.775, 436.397 345 C 436.665 333.117, 438.571 327.866, 444.025 323.983 C 449.272 320.246, 470.423 296.514, 475.587 288.569 C 478.289 284.412, 481.353 280.731, 482.396 280.391 C 485.346 279.429, 492.880 272.056, 494.585 268.463 C 496.024 265.430, 496.592 265.155, 503.558 264.119 C 507.648 263.511, 513.023 262.059, 515.502 260.894 C 519.097 259.204, 521.377 258.857, 526.755 259.182 C 532.636 259.537, 534.589 260.219, 542 264.509 C 552.198 270.412, 563.806 279.702, 566.333 283.984 C 569.188 288.822, 577.530 293.822, 584 294.575 C 592.333 295.544, 597.171 293.852, 600.515 288.798 C 602.042 286.491, 605.285 282.471, 607.723 279.865 C 610.161 277.259, 614.555 270.486, 617.487 264.813 C 623.233 253.701, 622.479 254.315, 632.748 252.385 C 633.985 252.153, 636.182 250.171, 637.631 247.981 L 640.266 244 637.554 239.902 C 636.063 237.649, 634.260 234.161, 633.548 232.152 C 632.274 228.561, 630.397 225.136, 626.558 219.401 C 624.108 215.741, 612.130 203.678, 606.088 198.785 C 592.649 187.903, 582.016 180.177, 578.096 178.445 C 575.673 177.375, 570.296 174.777, 566.147 172.670 C 561.453 170.287, 556.883 168.729, 554.051 168.546 C 549.421 168.246, 536.632 165.301, 525.145 161.888 C 521.649 160.850, 518.499 160.064, 518.145 160.143 C 517.790 160.221, 513.450 160.621, 508.500 161.032" stroke="#dd8a8a" fill="#dd8a8a" fill-opacity="0.2" fill-rule="evenodd"/><path class="svg-region-SV" d="M 523.500 258.790 C 521.300 258.953, 518.150 259.700, 516.500 260.449 C 512.540 262.247, 506.592 263.787, 500.800 264.516 C 497.235 264.965, 495.943 265.604, 495.448 267.164 C 494.491 270.178, 488.312 276.690, 484.131 279.090 C 481.805 280.425, 478.021 284.745, 473.605 291.107 C 469.601 296.873, 461.065 306.798, 453.252 314.769 C 445.851 322.321, 439.073 329.850, 438.190 331.500 C 436.758 334.178, 435.734 348.276, 436.193 359 C 436.563 367.654, 436.305 375.953, 435.577 378.793 C 434.790 381.862, 435.059 382.399, 439.511 386.665 C 444.651 391.591, 452.624 395.757, 458.715 396.701 C 460.797 397.023, 464.666 398.460, 467.312 399.894 C 469.959 401.327, 474.009 403.495, 476.312 404.711 C 489.300 411.569, 494 415.957, 494 421.224 C 494 422.552, 495.012 424.525, 496.250 425.607 C 497.488 426.689, 499.238 428.682, 500.141 430.037 L 501.782 432.500 504.391 430.076 C 505.826 428.742, 507 426.677, 507 425.487 C 507 422.978, 511.745 416.321, 514.114 415.506 C 515.001 415.201, 517.616 412.713, 519.923 409.976 C 523.647 405.560, 524.562 405, 528.060 405 C 531.866 405, 532 404.885, 532 401.636 L 532 398.273 541.715 397.764 C 550.247 397.318, 551.921 397.512, 555.464 399.359 C 560.095 401.773, 564.257 401.887, 575.222 399.899 C 580.296 398.980, 583.653 397.791, 585.011 396.434 C 587.072 394.372, 587.073 394.362, 585.100 391.855 C 584.013 390.473, 582.839 388.208, 582.491 386.822 C 581.571 383.155, 584.332 373.724, 587.905 368.330 C 591.819 362.420, 591.804 359.199, 587.836 353.569 C 585.442 350.173, 584.555 347.682, 584.195 343.337 C 583.844 339.110, 582.964 336.553, 580.859 333.647 C 579.287 331.476, 578 329.148, 578 328.472 C 578 327.797, 577.354 326.709, 576.564 326.053 C 575.775 325.398, 574.838 323.539, 574.483 321.923 C 574.128 320.306, 573.036 318.554, 572.056 318.030 C 569.810 316.828, 567.733 311.920, 568.168 308.845 C 568.398 307.222, 570.016 305.683, 573.425 303.844 C 578.273 301.230, 581.934 297.597, 581.978 295.358 C 581.990 294.731, 580.838 293.925, 579.417 293.569 C 575.090 292.483, 568.980 288.081, 566.897 284.549 C 562.813 277.628, 539.768 261.440, 531 259.334 C 529.075 258.871, 525.700 258.627, 523.500 258.790" stroke="#c666b5" fill="#c666b5" fill-opacity="0.2" fill-rule="evenodd"/><path class="svg-region-SF" d="M 637.554 247.923 C 635.986 250.185, 633.757 252.210, 632.601 252.422 C 622.068 254.355, 622.912 253.682, 617.461 264.500 C 614.690 270, 610.795 276.205, 608.806 278.290 C 606.816 280.374, 603.496 284.537, 601.428 287.540 C 599.360 290.543, 597.336 293, 596.932 293 C 595.299 293, 593.999 299.801, 593.990 308.399 C 593.980 317.975, 593.866 318.331, 586.433 331.962 C 580.348 343.121, 586.768 358.542, 599.829 364.141 C 602.329 365.213, 604.991 366.970, 605.746 368.047 C 607.962 371.211, 618.644 377.985, 624.706 380.071 C 627.790 381.132, 632.636 382, 635.475 382 C 642.191 382, 650.952 379.393, 651.620 377.196 C 652.921 372.916, 656.078 367, 657.061 367 C 659.549 367, 670.363 355.327, 672.677 350.145 C 675.804 343.140, 676.968 342.103, 682.563 341.336 C 686.951 340.735, 687.375 340.407, 689.251 336.165 C 690.818 332.623, 691.009 331.244, 690.127 329.832 C 689.507 328.839, 689 326.503, 689 324.640 C 689 319.238, 682.514 296.289, 679.493 291 C 678.707 289.625, 677.309 286.925, 676.387 285 C 675.464 283.075, 673.572 279.250, 672.181 276.500 C 670.790 273.750, 669.312 270.825, 668.897 270 C 668.482 269.175, 667.323 266.316, 666.321 263.647 C 664.406 258.545, 655.878 249.022, 650.933 246.465 C 649.435 245.691, 646.454 244.776, 644.307 244.433 C 640.598 243.840, 640.263 244.013, 637.554 247.923" stroke="#8c6b55" fill="#8c6b55" fill-opacity="0.2" fill-rule="evenodd"/><path class="svg-region-IF" d="M 675.792 343.750 C 674.957 344.712, 673.499 347.578, 672.551 350.119 C 670.809 354.790, 662.438 364.092, 657.946 366.349 C 654.933 367.862, 652.164 372.714, 652.073 376.639 C 651.918 383.321, 657.219 385.932, 671.027 385.976 C 678.475 386, 680.852 386.827, 684.924 390.812 C 685.822 391.690, 687.538 392.012, 689.568 391.683 C 692.093 391.273, 693.910 391.899, 697.982 394.580 C 700.838 396.461, 704.044 398, 705.107 398 C 706.938 398, 715 393.515, 715 392.496 C 715 392.233, 713.239 388.656, 711.088 384.546 C 708.936 380.437, 706.880 375.729, 706.518 374.084 C 706.157 372.439, 705.055 370.060, 704.068 368.797 C 703.082 367.534, 701.321 364.621, 700.155 362.324 C 698.989 360.028, 695.777 356.245, 693.018 353.918 C 690.258 351.591, 688 348.957, 688 348.066 C 688 347.174, 687.299 345.445, 686.443 344.223 C 684.471 341.407, 678.071 341.123, 675.792 343.750" stroke="#f2823b" fill="#f2823b" fill-opacity="0.2" fill-rule="evenodd"/><path class="svg-region-PF" d="M 587.394 294.732 C 583.146 295.034, 582.060 295.520, 580.932 297.626 C 580.187 299.019, 577.085 301.611, 574.039 303.387 C 569.085 306.275, 568.467 307.005, 568.190 310.294 C 567.952 313.129, 568.447 314.538, 570.349 316.440 C 571.706 317.797, 574.473 322.191, 576.497 326.204 C 578.521 330.217, 580.973 334.323, 581.945 335.329 C 583.650 337.093, 583.784 337.022, 585.710 333.329 C 586.809 331.223, 589.078 327.025, 590.753 324 C 593.586 318.883, 593.827 317.647, 594.204 306.250 C 594.477 298.001, 594.265 294.060, 593.555 294.185 C 592.975 294.287, 590.202 294.533, 587.394 294.732 M 591 361.407 C 591 362.710, 589.496 365.964, 587.657 368.638 C 585.473 371.814, 583.853 375.820, 582.986 380.188 C 581.702 386.654, 581.736 386.990, 584.004 390.301 C 586.395 393.791, 590.708 396.008, 595.071 395.990 C 598.761 395.975, 607.339 391.619, 611.608 387.593 C 613.703 385.617, 615.729 384, 616.111 384 C 616.771 384, 619.288 377.838, 618.755 377.527 C 613.242 374.317, 607.565 370.269, 606.231 368.597 C 605.279 367.404, 601.462 364.765, 597.750 362.733 C 591.023 359.050, 591 359.046, 591 361.407" stroke="#faaaaa" fill="#faaaaa" fill-opacity="0.2" fill-rule="evenodd"/><path class="svg-region-AAB" d="M 663.605 391.554 C 660.969 396.938, 660.906 397.464, 661.533 408.804 C 662.099 419.030, 661.919 421.317, 660.103 427 C 658.961 430.575, 658.020 435.923, 658.013 438.884 C 658.006 441.845, 657.504 445.922, 656.899 447.943 C 655.084 454.001, 645.192 465.984, 637.865 471 C 634.251 473.475, 629.962 476.483, 628.335 477.684 C 626.709 478.884, 624.055 480.187, 622.439 480.577 C 617.692 481.725, 608.027 486.904, 605.156 489.838 C 603.695 491.331, 601.123 493.123, 599.441 493.819 C 596.376 495.087, 592.242 500.575, 593.445 501.779 C 593.797 502.131, 602.504 502.385, 612.793 502.344 C 628.552 502.281, 632.796 501.931, 639.724 500.120 C 648.031 497.949, 673.133 488.114, 680.485 484.149 C 682.677 482.967, 685.039 482, 685.734 482 C 686.429 482, 690.086 480.426, 693.860 478.503 C 697.634 476.579, 702.168 474.716, 703.936 474.363 C 706.651 473.820, 707.525 472.870, 709.574 468.236 C 712.365 461.927, 712.579 459.725, 710.564 458.053 C 708.205 456.096, 707.839 451.786, 709.450 444.951 C 710.435 440.770, 710.976 433.446, 710.985 424.137 L 711 409.774 707.250 404.039 C 702.277 396.433, 694.432 390.893, 689.718 391.658 C 687.539 392.012, 685.845 391.713, 684.924 390.812 C 681.056 387.027, 678.392 386, 672.440 386 L 666.325 386 663.605 391.554" stroke="#7f3c1a" fill="#7f3c1a" fill-opacity="0.2" fill-rule="evenodd"/><path class="svg-region-APB" d="M 617.510 380.955 C 617.146 382.613, 616.014 384.178, 614.929 384.522 C 613.867 384.860, 612.559 385.956, 612.022 386.959 C 610.707 389.416, 603.280 393.665, 597.685 395.162 C 594.081 396.126, 592.560 396.121, 590.403 395.138 C 587.833 393.967, 587.407 394.159, 583.052 398.448 C 579.663 401.787, 576.386 407.072, 570.773 418.251 C 556.621 446.438, 555.848 448.573, 554.821 462.333 C 554.321 469.025, 553.482 476.419, 552.956 478.764 C 552.430 481.110, 552 484.346, 552 485.955 C 552 487.565, 551.514 489.182, 550.921 489.549 C 548.445 491.079, 552.179 505, 555.065 505 C 555.625 505, 557.077 505.939, 558.292 507.086 C 560.980 509.626, 566.619 509.188, 573.841 505.878 C 576.934 504.460, 581.693 503.502, 588 503.025 C 593.225 502.631, 596.487 502.238, 595.250 502.154 C 594.013 502.069, 593 501.732, 593 501.404 C 593 499.281, 596.934 494.882, 600.117 493.447 C 602.192 492.511, 604.901 490.670, 606.136 489.355 C 607.371 488.040, 610.771 485.834, 613.691 484.453 C 619.114 481.888, 619.748 481.148, 618.013 479.413 C 617.363 478.763, 618.056 477.174, 620.041 474.766 C 623.434 470.651, 626 465.124, 626 461.933 C 626 460.761, 626.713 458.159, 627.583 456.151 C 628.454 454.143, 629.804 451.022, 630.583 449.216 C 632.651 444.422, 632.354 442.118, 629.500 440.818 C 626.204 439.316, 626.322 436.714, 629.977 430.342 C 632.175 426.510, 634.329 424.386, 638.357 422.082 C 641.338 420.376, 645.036 417.297, 646.575 415.240 C 650.916 409.437, 654.790 406, 656.991 406 C 658.883 406, 659.006 406.682, 659.099 417.750 L 659.198 429.500 660.669 425 C 661.798 421.549, 661.994 417.765, 661.511 408.764 C 660.909 397.555, 660.995 396.800, 663.416 391.980 L 665.952 386.932 663.411 385.966 C 662.013 385.435, 659.979 385, 658.889 385 C 656.844 385, 652 380.852, 652 379.099 C 652 378.554, 649.455 378.983, 646.343 380.054 C 639.110 382.543, 631.838 382.525, 624.500 380 C 621.303 378.900, 618.568 378, 618.423 378 C 618.278 378, 617.867 379.330, 617.510 380.955" stroke="#ac7444" fill="#ac7444" fill-opacity="0.2" fill-rule="evenodd"/><path class="svg-region-PC" d="M 539.429 397.741 L 531.357 398.075 531.787 401.005 C 532.024 402.617, 532.844 404.455, 533.609 405.090 C 535.200 406.411, 535.461 409.597, 534.050 410.469 C 533.528 410.792, 533.356 413.213, 533.669 415.849 C 534.067 419.214, 533.760 421.563, 532.639 423.731 C 530.576 427.721, 524.634 432.593, 519.385 434.597 C 515.564 436.056, 514.985 436.046, 511.873 434.468 C 510.018 433.528, 507.794 432.142, 506.931 431.388 C 505.654 430.272, 504.865 430.248, 502.689 431.259 C 499.585 432.700, 499.480 433.585, 501.500 441.339 C 502.325 444.506, 503 447.796, 503 448.649 C 503 449.502, 504.219 452.855, 505.708 456.100 C 508.001 461.096, 508.815 462, 511.020 462 C 514.028 462, 517.997 465.289, 518.006 467.789 C 518.010 468.730, 518.718 470.850, 519.580 472.500 C 520.442 474.150, 521.409 477.693, 521.728 480.374 C 522.138 483.822, 523.276 486.456, 525.614 489.374 C 527.433 491.643, 529.896 495.643, 531.089 498.263 C 533.438 503.423, 536.794 505.234, 540.137 503.146 C 541.147 502.516, 543.441 501.993, 545.236 501.985 C 550.118 501.962, 550.994 500.955, 550.930 495.445 C 550.899 492.725, 551.361 488.025, 551.957 485 C 552.554 481.975, 553.475 474.100, 554.005 467.500 C 554.536 460.900, 555.438 453.700, 556.012 451.500 C 557.931 444.136, 570.498 417.194, 577.166 406.148 C 579.275 402.654, 581 399.574, 581 399.304 C 581 398.566, 570.962 400, 567.309 401.259 C 563.871 402.444, 557.058 400.949, 553.921 398.322 C 553.053 397.595, 551.253 397.092, 549.921 397.204 C 548.590 397.315, 543.868 397.557, 539.429 397.741" stroke="#cda789" fill="#cda789" fill-opacity="0.2" fill-rule="evenodd"/><path class="svg-region-DB" d="M 432.571 383.532 C 429.915 387.585, 424.218 391.182, 415.772 394.138 C 406.568 397.360, 398.915 397.827, 393.362 395.507 C 391.396 394.685, 389.385 394.262, 388.894 394.566 C 387.098 395.675, 388.075 403.721, 391.112 412.837 C 396.470 428.919, 406.288 437.344, 414.316 432.750 C 415.517 432.063, 419.576 431.500, 423.336 431.500 C 429.408 431.500, 430.397 431.223, 432.185 429.017 C 433.901 426.900, 435.033 426.535, 439.849 426.543 C 444.492 426.551, 445.959 426.994, 448.075 429.026 C 452.559 433.333, 454.641 434.727, 458.500 436 C 461.972 437.146, 464.147 438.529, 467.540 441.750 C 468.265 442.438, 469.564 443, 470.429 443 C 471.293 443, 472 443.465, 472 444.034 C 472 444.603, 475.449 448.657, 479.663 453.042 C 483.878 457.428, 488.394 462.588, 489.699 464.508 C 491.057 466.507, 492.912 468, 494.036 468 C 495.116 468, 496 468.450, 496 469 C 496 471.224, 500.814 469.930, 502.510 467.250 C 503.467 465.738, 505.168 463.767, 506.289 462.872 L 508.329 461.243 506.330 457.372 C 504.543 453.911, 501.162 440.695, 499.551 430.873 C 499.188 428.665, 497.987 426.519, 496.478 425.386 C 495.067 424.327, 494 422.510, 494 421.167 C 494 415.967, 490.362 412.243, 479.788 406.620 C 476.330 404.781, 471.310 402.021, 468.633 400.487 C 465.956 398.953, 461.795 397.330, 459.386 396.880 C 452.466 395.587, 443.954 391.049, 438.822 385.918 L 434.101 381.197 432.571 383.532" stroke="#e8b1e4" fill="#e8b1e4" fill-opacity="0.2" fill-rule="evenodd"/><path class="svg-region-MB" d="M 435.573 426.673 C 434.514 426.971, 432.866 428.179, 431.911 429.357 C 430.415 431.205, 429.136 431.500, 422.639 431.500 C 417.943 431.500, 414.630 431.971, 413.851 432.750 C 412.359 434.241, 406.378 434.420, 405.500 433 C 404.177 430.859, 402.797 432.053, 403.476 434.750 C 403.857 436.262, 404.393 441.486, 404.667 446.357 C 405.106 454.167, 405.687 456.340, 409.583 464.732 C 412.012 469.967, 414 474.587, 414 474.999 C 414 475.410, 415.800 477.716, 418 480.123 C 420.200 482.530, 422 485.287, 422 486.250 C 422 487.212, 422.402 488, 422.894 488 C 423.386 488, 425.265 489.379, 427.070 491.065 C 432.248 495.902, 435.232 496.962, 446.730 498.048 C 452.654 498.608, 458.540 499.504, 459.812 500.040 C 461.083 500.575, 467.833 502.163, 474.812 503.569 C 481.790 504.975, 491.306 507.222, 495.957 508.562 C 506.096 511.485, 516.480 511.752, 524.460 509.294 C 527.507 508.356, 530 507.263, 530 506.866 C 530 505.505, 526.858 503, 525.151 503 C 524.213 503, 522.557 502.393, 521.473 501.652 C 520.388 500.910, 517.925 500.008, 516 499.646 C 511.033 498.713, 502.070 496.081, 498.250 494.434 C 494.362 492.757, 494.041 490.216, 497.179 485.971 C 498.854 483.706, 499.305 481.844, 499.126 477.929 C 498.998 475.126, 499.423 472.196, 500.069 471.417 C 501.033 470.256, 500.772 470, 498.622 470 C 497.180 470, 496 469.550, 496 469 C 496 468.450, 495.131 468, 494.068 468 C 493.006 468, 491.114 466.538, 489.864 464.750 C 488.615 462.962, 485.266 459.025, 482.423 456 C 473.686 446.705, 472 444.740, 472 443.854 C 472 443.384, 471.330 443, 470.511 443 C 469.693 443, 468.080 442.212, 466.927 441.250 C 465.775 440.288, 463.901 438.712, 462.763 437.750 C 461.625 436.788, 460.015 436, 459.185 436 C 457.297 436, 448.242 430.255, 447.203 428.398 C 446.374 426.917, 438.735 425.784, 435.573 426.673" stroke="#f9c6c6" fill="#f9c6c6" fill-opacity="0.2" fill-rule="evenodd"/><path class="svg-region-AP" d="M 624.500 604.049 C 623.400 604.495, 620.369 604.891, 617.764 604.930 C 615.160 604.968, 611.110 605.431, 608.764 605.958 C 601.170 607.664, 589.605 609.196, 585.330 609.062 C 583.037 608.990, 580.873 609.396, 580.521 609.965 C 580.114 610.625, 572.305 611, 558.986 611 L 538.091 611 537.422 614.562 C 536.557 619.173, 537.312 625.675, 539.218 630.040 C 540.049 631.943, 541.577 635.520, 542.614 637.990 C 543.651 640.459, 545.962 644.611, 547.750 647.216 C 549.538 649.820, 551 652.218, 551 652.543 C 551 652.868, 552.063 654.566, 553.362 656.317 C 556.755 660.888, 557.230 663.050, 557.906 677 C 558.340 685.962, 559.005 690.463, 560.256 692.904 C 562.193 696.684, 562.675 711.657, 561.063 718 C 558.328 728.763, 556.825 733.085, 553.954 738.447 L 550.769 744.395 553.135 746.273 C 554.436 747.307, 556.607 749.097, 557.960 750.252 C 559.313 751.407, 562.688 753.210, 565.460 754.259 C 576.023 758.256, 580.694 764.446, 579.570 772.960 C 579.246 775.412, 578.535 777.865, 577.990 778.410 C 576.164 780.236, 576.936 783.912, 579.500 785.592 C 580.875 786.493, 582 787.837, 582 788.580 C 582 790.304, 585.151 792, 588.355 792 C 591.085 792, 591.682 790.344, 591.958 782 C 592.040 779.525, 592.485 777.120, 592.947 776.657 C 593.409 776.193, 596.366 775.634, 599.518 775.415 C 605.231 775.018, 612.058 777.077, 615.963 780.374 C 616.809 781.087, 619.075 782.282, 621 783.030 C 622.925 783.778, 625.676 785.241, 627.112 786.281 C 629.577 788.066, 629.989 788.083, 634.397 786.586 C 636.967 785.714, 640.393 785, 642.009 785 C 644.265 785, 645.310 784.301, 646.504 781.993 C 647.962 779.173, 648.321 779.026, 652.279 779.638 C 654.601 779.997, 657.438 780.635, 658.583 781.057 C 659.729 781.479, 661.304 781.420, 662.083 780.927 C 662.863 780.434, 667.242 780.024, 671.816 780.015 C 676.389 780.007, 681.023 779.523, 682.112 778.940 C 683.201 778.357, 686.434 777.497, 689.296 777.029 C 694.226 776.222, 704.052 772.340, 712.198 767.979 C 714.232 766.891, 717.010 766, 718.371 766 C 720.385 766, 725.646 762.693, 728 759.949 C 728.275 759.629, 731.098 757.422, 734.274 755.045 C 739.468 751.157, 747.630 741.878, 750.644 736.433 C 751.715 734.499, 751.424 734.285, 746.143 733.113 C 742.016 732.198, 739.740 732.148, 737.683 732.930 C 733.456 734.538, 732.909 734.351, 727.500 729.462 C 721.286 723.844, 718.888 722.537, 712.200 721.121 C 705.957 719.800, 702.514 718.143, 698.747 714.645 C 697.232 713.240, 694.307 711.785, 692.247 711.413 C 687.472 710.552, 686.970 710.241, 687.621 708.545 C 688.559 706.100, 690.906 705.993, 696.625 708.133 C 702.937 710.494, 710.439 710.314, 719.968 707.573 C 726.667 705.646, 741.138 705.547, 749.833 707.368 C 756.102 708.682, 756.174 708.672, 757.055 706.356 C 758.094 703.624, 757.494 701.628, 754.392 697.495 C 753.151 695.842, 750.825 691.567, 749.222 687.995 C 747.619 684.423, 745.657 680.960, 744.862 680.300 C 743.283 678.990, 739.153 670.378, 736.344 662.538 L 734.566 657.576 733.838 661.038 C 733.438 662.942, 732.831 667.650, 732.489 671.500 C 731.796 679.318, 729.412 686, 727.316 686 C 721.835 686, 712.798 678.098, 702.296 664.122 C 695.512 655.094, 694.666 651.982, 697.467 646.366 C 698.275 644.748, 699.062 641.908, 699.217 640.054 C 699.637 635.046, 703.066 632.127, 709.404 631.382 C 714.525 630.781, 714.883 630.900, 718.918 634.545 C 721.224 636.628, 724.231 640.245, 725.601 642.582 C 728.452 647.447, 731.527 650.570, 730.338 647.391 C 729.540 645.260, 724.084 636.230, 718.636 628.023 C 716.636 625.010, 715 621.780, 715 620.845 C 715 619.388, 714.236 619.223, 709.664 619.695 C 705 620.177, 703.805 619.899, 700.164 617.490 C 695.495 614.400, 694.777 611.492, 698 608.732 C 699.100 607.790, 700 606.623, 700 606.139 C 700 605.340, 677.766 604.372, 640.500 603.549 C 632.800 603.379, 625.600 603.604, 624.500 604.049" stroke="#fc7143" fill="#fc7143" fill-opacity="0.2" fill-rule="evenodd"/><path class="svg-region-PP" d="M 535.398 611.804 C 534.824 612.187, 534.044 613.339, 533.665 614.364 C 533.121 615.835, 532.398 616.077, 530.238 615.509 C 528.732 615.113, 525.475 614.692, 523 614.574 C 520.525 614.456, 517.007 614.011, 515.183 613.586 C 512.617 612.987, 511.411 613.223, 509.856 614.630 C 507.913 616.389, 507.743 616.387, 504.673 614.563 C 500.491 612.077, 487.777 611.255, 488.649 613.527 C 488.963 614.346, 488.451 616.189, 487.512 617.623 C 486.042 619.865, 485.304 620.149, 482.236 619.651 C 480.237 619.326, 477.314 617.768, 475.585 616.105 C 472.553 613.189, 472.371 613.150, 465 613.844 C 460.288 614.288, 457.581 614.970, 457.718 615.679 C 457.838 616.300, 457.291 617.343, 456.503 617.997 C 455.367 618.940, 454.434 618.733, 452 617 C 449.536 615.246, 448.641 615.053, 447.470 616.025 C 446.309 616.988, 445.476 616.886, 443.403 615.528 C 441.969 614.589, 440.006 614.027, 439.040 614.279 C 438.074 614.532, 436.522 614.312, 435.590 613.790 C 433.330 612.525, 431 614.504, 431 617.688 C 431 619.032, 430.534 621.002, 429.965 622.066 C 428.439 624.916, 421.976 624.684, 418.327 621.649 C 413.059 617.266, 411.158 616.667, 408.355 618.503 C 406.585 619.663, 406.059 620.644, 406.574 621.824 C 406.976 622.746, 407.515 625.005, 407.773 626.844 C 408.163 629.636, 407.717 630.666, 405.064 633.088 C 400.937 636.858, 398.719 638, 395.526 638 L 392.921 638 393.079 646.750 C 393.199 653.377, 393.924 657.563, 396.068 664 C 397.625 668.675, 399.210 674.525, 399.591 677 C 400.793 684.812, 405.393 697.502, 408.254 700.896 C 409.769 702.693, 412.590 704.600, 414.523 705.134 C 416.730 705.743, 418.867 707.337, 420.268 709.418 C 430.718 724.937, 433.724 729.882, 438.124 738.796 C 439.833 742.259, 443.430 747.497, 446.116 750.436 C 448.802 753.376, 451.002 756.392, 451.005 757.140 C 451.010 758.734, 455.208 763.382, 460.071 767.177 C 461.957 768.649, 465.874 771.706, 468.775 773.970 C 471.676 776.234, 478.201 779.715, 483.275 781.706 C 488.349 783.696, 493.175 786.116, 494 787.083 C 495.022 788.281, 497.731 789.071, 502.500 789.563 C 506.350 789.960, 510.406 790.877, 511.513 791.602 C 512.621 792.327, 516.896 793.159, 521.013 793.452 C 525.131 793.745, 531.034 794.265, 534.132 794.608 C 537.229 794.951, 540.546 794.794, 541.503 794.258 C 542.978 793.433, 542.407 792.808, 537.749 790.143 C 534.728 788.414, 531.861 786.987, 531.378 786.972 C 530.895 786.956, 527.810 785.156, 524.521 782.972 C 521.233 780.787, 518.049 779, 517.446 779 C 516.842 779, 515.258 777.836, 513.924 776.414 C 511.684 774.025, 511.501 773.056, 511.517 763.664 C 511.537 751.366, 513.266 747.011, 519.875 742.612 L 524.250 739.700 536.375 741.229 C 543.044 742.070, 549.090 742.925, 549.812 743.129 C 550.533 743.333, 552.108 741.703, 553.312 739.506 C 554.515 737.310, 555.799 735.282, 556.164 735 C 556.530 734.718, 557.992 730.011, 559.414 724.539 C 562.603 712.271, 562.973 698.428, 560.275 692.372 C 559.076 689.683, 558.383 684.682, 558.004 676 C 557.455 663.427, 555.673 656.766, 552.304 654.700 C 551.587 654.260, 551 653.442, 551 652.880 C 551 652.319, 549.704 649.977, 548.120 647.674 C 546.536 645.372, 544.233 641.241, 543.003 638.494 C 541.774 635.747, 540.032 631.925, 539.134 630 C 538.141 627.874, 537.456 623.643, 537.389 619.222 C 537.271 611.503, 537.056 610.700, 535.398 611.804" stroke="#c4743d" fill="#c4743d" fill-opacity="0.2" fill-rule="evenodd"/><path class="svg-region-ADCr" d="M 706.170 631.716 C 702.713 632.375, 699.559 636.039, 699.327 639.666 C 699.214 641.424, 698.420 644.221, 697.561 645.882 C 695.772 649.342, 695.476 656.558, 697.083 657.551 C 697.679 657.919, 699.646 660.534, 701.455 663.362 C 708.236 673.963, 721.987 686, 727.316 686 C 729.568 686, 731.762 679.165, 732.932 668.500 C 734.161 657.306, 733.555 653.727, 729.540 648.464 C 728.143 646.632, 727 644.730, 727 644.237 C 727 643.744, 724.487 640.564, 721.416 637.170 C 715.569 630.710, 714.139 630.198, 706.170 631.716" stroke="#54413e" fill="#54413e" fill-opacity="0.2" fill-rule="evenodd"/><path class="svg-region-VMr" d="M 522 740.879 C 522 741.362, 520.667 742.309, 519.038 742.984 C 514.250 744.967, 511.640 751.626, 511.174 763.045 C 510.800 772.185, 510.896 772.723, 513.436 775.741 C 514.894 777.475, 517.081 779.199, 518.294 779.572 C 519.507 779.946, 522.423 781.537, 524.773 783.108 C 530.933 787.225, 548.388 796, 550.417 796 C 551.366 796, 552.818 795.325, 553.643 794.500 C 555.112 793.031, 560.759 792.381, 568.250 792.818 C 571.383 793, 572 792.714, 572 791.075 C 572 789.996, 572.812 788.525, 573.803 787.807 C 575.796 786.363, 580 774.826, 580 770.802 C 580 763.573, 574.704 757.530, 565.278 754.003 C 562.114 752.819, 559.295 751.531, 559.013 751.141 C 558.731 750.751, 556.378 748.719, 553.785 746.624 C 549.439 743.115, 548.262 742.708, 538.785 741.440 C 526.710 739.824, 522 739.666, 522 740.879" stroke="#e59376" fill="#e59376" fill-opacity="0.2" fill-rule="evenodd"/><path class="svg-region-PMr" d="M 258 723.556 C 253.968 724.534, 251.633 725.835, 249.250 728.430 C 245.588 732.420, 245.264 734.540, 247.846 737.629 C 250.309 740.576, 264.710 742.017, 268.084 739.654 C 273.976 735.527, 276.038 726.541, 271.777 723.557 C 269.163 721.725, 265.545 721.725, 258 723.556" stroke="#90cf92" fill="#90cf92" fill-opacity="0.2" fill-rule="evenodd"/><path class="svg-region-PV" d="M 273.500 599.012 C 265.445 599.794, 255.763 602.352, 252.677 604.513 C 251.510 605.331, 249.234 606, 247.619 606 C 243.804 606, 231.367 612.254, 225.439 617.151 C 221.102 620.736, 220.984 620.953, 223.674 620.415 C 227.584 619.633, 235.408 622.741, 241.709 627.578 C 248.127 632.506, 248.912 633.978, 249.398 642 C 249.800 648.620, 253.607 659.034, 256.225 660.675 C 258.023 661.802, 259.992 666.516, 260.035 669.797 C 260.055 671.284, 260.714 673.625, 261.500 675 C 262.286 676.375, 262.947 678.850, 262.968 680.500 C 262.990 682.150, 263.916 684.991, 265.027 686.813 L 267.047 690.125 264.823 693.313 C 263.600 695.066, 260.890 698.187, 258.800 700.249 C 255.116 703.883, 255 704.213, 255 711.024 C 255 717.617, 255.156 718.109, 257.526 719.010 C 258.915 719.538, 260.291 720.594, 260.583 721.356 C 260.966 722.353, 262.327 722.605, 265.440 722.254 C 268.924 721.861, 270.179 722.179, 271.883 723.883 C 274.113 726.113, 274.839 732.364, 273 733.500 C 269.283 735.797, 277.187 739, 286.574 739 C 291.948 739, 295.133 739.535, 297.790 740.885 C 299.830 741.922, 304.406 743.511, 307.959 744.418 C 317.875 746.948, 341.564 760.449, 343.968 764.940 C 345.035 766.934, 344.481 774.308, 342.863 779.653 C 342.253 781.669, 341.078 783.015, 339.603 783.385 C 338.335 783.703, 336.063 785.744, 334.555 787.921 C 330.974 793.087, 323.572 798.802, 319.460 799.573 C 316.743 800.083, 316.121 800.711, 315.727 803.343 C 315.467 805.086, 315.758 806.846, 316.377 807.274 C 317.551 808.083, 317.812 808.044, 327.500 805.606 C 330.800 804.775, 335.750 803.585, 338.500 802.961 C 341.250 802.337, 345.750 801.210, 348.500 800.457 C 351.250 799.704, 355.643 798.792, 358.262 798.429 C 360.882 798.066, 363.271 797.371, 363.571 796.885 C 363.872 796.398, 364.991 796, 366.059 796 C 367.127 796, 368 795.594, 368 795.098 C 368 794.602, 369.349 793.725, 370.997 793.151 C 373.601 792.243, 380.542 787.673, 382 785.905 C 382.275 785.572, 383.542 784.750, 384.816 784.079 C 386.089 783.408, 387.987 780.863, 389.033 778.423 C 390.079 775.983, 391.844 773.010, 392.956 771.817 C 394.068 770.624, 395.238 768.827, 395.556 767.824 C 395.874 766.821, 396.577 766, 397.118 766 C 397.659 766, 398.799 764.313, 399.651 762.250 C 400.502 760.188, 401.858 757.758, 402.664 756.851 C 403.469 755.943, 404.741 752.878, 405.490 750.038 C 406.239 747.198, 407.495 743.890, 408.281 742.687 C 410.453 739.364, 411.085 725.331, 409.270 720.752 C 408.453 718.691, 408.060 716.286, 408.397 715.409 C 409.124 713.514, 407.267 701.029, 406.037 699.539 C 405.565 698.967, 404.849 696.700, 404.445 694.500 C 404.042 692.300, 402.427 688.619, 400.856 686.320 C 399.285 684.021, 398 681.644, 398 681.038 C 398 680.433, 397.347 679.687, 396.549 679.380 C 395.751 679.074, 394.358 676.726, 393.453 674.162 C 392.548 671.598, 391.319 668.375, 390.722 667 C 388.129 661.030, 387.482 658.256, 387.809 654.500 C 388.001 652.300, 388.488 646.450, 388.892 641.500 C 389.771 630.749, 390.043 630.048, 396.055 623 C 401.813 616.252, 402.619 614.723, 403.492 608.901 L 404.182 604.302 383.478 603.583 C 372.091 603.188, 361.671 602.445, 360.322 601.932 C 358.973 601.420, 352.020 601, 344.869 601 C 337.719 601, 331.086 600.581, 330.130 600.070 C 327.981 598.920, 283.088 598.081, 273.500 599.012" stroke="#b09658" fill="#b09658" fill-opacity="0.2" fill-rule="evenodd"/><path class="svg-region-DV" d="M 220.266 621.979 C 216.155 624.486, 208.331 635.055, 207.042 639.845 C 206.499 641.860, 205.143 644.289, 204.028 645.244 C 202.912 646.199, 202 648.081, 202 649.425 C 202 650.770, 201.507 653.137, 200.905 654.685 C 198.337 661.291, 197.212 673.414, 198.045 685.500 C 198.500 692.100, 198.901 703.702, 198.936 711.283 C 198.995 723.905, 199.209 725.479, 201.481 729.962 C 202.846 732.655, 204.454 735.162, 205.054 735.534 C 205.655 735.905, 208.066 739.199, 210.411 742.854 C 216.272 751.987, 217.413 752.825, 219.548 749.567 C 221.069 747.246, 221.854 747, 227.747 747 C 232.594 747, 235.123 746.469, 237.617 744.928 C 239.682 743.651, 241.744 743.101, 242.985 743.495 C 247.909 745.058, 251.312 740.163, 247.500 737 C 245.143 735.043, 245.723 732.273, 249.310 728.359 C 251.601 725.859, 253.808 724.554, 256.478 724.120 C 261.398 723.320, 262.007 721.481, 258.089 719.251 C 255.230 717.624, 255.012 717.104, 255.006 711.904 C 255 706.232, 257.133 700.270, 259.492 699.365 C 260.192 699.096, 262.225 697.059, 264.010 694.838 L 267.256 690.799 265.128 687.014 C 263.957 684.931, 262.997 681.939, 262.994 680.364 C 262.990 678.789, 262.315 676.211, 261.494 674.636 C 260.672 673.060, 260 670.719, 260 669.433 C 260 666.579, 257.978 661.776, 256.339 660.738 C 253.691 659.062, 249.849 648.483, 249.455 641.785 C 249.238 638.091, 248.540 634.266, 247.903 633.285 C 244.678 628.309, 230.486 619.992, 225.239 620.004 C 224.283 620.006, 222.045 620.895, 220.266 621.979" stroke="#45567a" fill="#45567a" fill-opacity="0.2" fill-rule="evenodd"/><path class="svg-region-VV" d="M 271 736.784 C 271 737.216, 269.642 738.371, 267.982 739.352 C 265.447 740.849, 263.687 741.023, 256.982 740.438 C 250.116 739.839, 249 739.960, 249 741.303 C 249 743.261, 245.963 744.280, 242.627 743.442 C 240.869 743.001, 239.174 743.452, 237.137 744.902 C 234.874 746.514, 232.689 747, 227.711 747 C 221.872 747, 221.065 747.252, 219.563 749.544 C 217.958 751.994, 217.996 752.207, 220.593 755.294 C 222.077 757.057, 226.488 760.128, 230.395 762.118 C 244.951 769.530, 252.934 776.136, 269 794.067 C 271.833 797.228, 275.723 800.139, 279.500 801.923 C 290.567 807.149, 294.203 807.990, 303.203 807.408 C 315.090 806.640, 315.818 806.412, 316.184 803.342 C 316.430 801.279, 317.350 800.395, 320.321 799.372 C 325.291 797.660, 330.943 793.133, 334.476 788.034 C 336.028 785.795, 338.317 783.708, 339.563 783.395 C 342.488 782.661, 343.841 779.069, 344.206 771.069 L 344.500 764.637 339.500 760.794 C 332.376 755.317, 315.274 746.306, 308.804 744.621 C 305.779 743.833, 301.236 742.246, 298.707 741.094 C 295.329 739.556, 292.039 738.991, 286.305 738.965 C 281.433 738.942, 277.561 738.392, 276 737.500 C 273.215 735.908, 271 735.591, 271 736.784" stroke="#7699d1" fill="#7699d1" fill-opacity="0.2" fill-rule="evenodd"/><path class="svg-region-B" d="M 785.121 470.904 C 784.084 471.561, 783.691 474.970, 783.538 484.639 C 783.276 501.265, 781.253 524.731, 779.370 533 C 778.556 536.575, 777.516 542.200, 777.060 545.500 C 776.604 548.800, 775.737 552.744, 775.135 554.264 C 772.026 562.106, 764.381 568.200, 756.666 568.986 C 751.955 569.466, 751.563 569.719, 750.770 572.794 C 750.303 574.605, 748.426 578.045, 746.600 580.437 C 744.774 582.830, 742.234 587.310, 740.956 590.394 C 739.678 593.477, 738.275 596, 737.839 596 C 736.281 596, 734.089 600.625, 731.917 608.500 C 730.037 615.312, 729.734 618.769, 729.873 631.782 C 730.032 646.651, 730.127 647.286, 733.395 655.282 C 735.243 659.802, 737.510 665.830, 738.434 668.678 C 739.357 671.526, 741.529 675.801, 743.260 678.178 C 744.991 680.555, 748.110 685.875, 750.192 690 C 752.274 694.125, 755.528 699.525, 757.423 702 C 759.317 704.475, 760.897 706.814, 760.934 707.197 C 760.970 707.580, 762.636 711.293, 764.636 715.447 L 768.271 723 775.790 723 C 783.554 723, 793.117 725.292, 809.500 731.080 C 816.874 733.685, 825.853 735.861, 838.500 738.108 C 841.250 738.597, 847.325 738.718, 852 738.378 C 857.075 738.008, 862.081 738.197, 864.423 738.847 C 870.557 740.547, 891.254 736.808, 893.997 733.504 C 895.181 732.077, 898.864 722.947, 899.690 719.390 C 900.122 717.527, 899.638 717.219, 895.540 716.757 C 892.989 716.470, 890.657 715.990, 890.359 715.692 C 890.060 715.394, 890.415 713.493, 891.148 711.468 C 892.430 707.921, 894.271 705.971, 902.442 699.500 C 909.045 694.272, 910.877 692.103, 911.947 688.252 C 913.407 682.993, 913.253 679.455, 911.500 678 C 909.398 676.256, 909.639 671.104, 912.004 667.226 C 914.232 663.570, 914.673 657.392, 912.750 656.749 C 911.928 656.474, 911.424 653.789, 911.278 648.915 C 911.156 644.837, 911.014 640.150, 910.962 638.500 C 910.910 636.850, 911.177 632.927, 911.555 629.782 C 912.091 625.320, 911.789 622.685, 910.176 617.782 C 909.039 614.327, 907.583 609.385, 906.939 606.800 C 906.295 604.216, 904.451 600.626, 902.842 598.823 C 900.463 596.158, 899.971 594.793, 900.208 591.523 C 900.459 588.059, 900.202 587.457, 898.352 587.194 C 895.687 586.814, 895.380 585.556, 895.447 575.298 C 895.500 567.106, 895.505 567.092, 899.500 563 C 903.495 558.909, 903.500 558.893, 903.500 550.870 C 903.500 543.060, 903.411 542.761, 900.309 540.168 C 898.554 538.701, 894.795 535.509, 891.956 533.076 C 888.707 530.292, 885.441 528.433, 883.147 528.062 L 879.500 527.472 878.922 515.986 C 878.357 504.774, 877.720 502.362, 873.864 496.854 C 872.206 494.486, 871.631 494.294, 868.385 495.026 C 863.642 496.096, 862.025 495.374, 861.325 491.874 C 860.823 489.365, 860.305 489, 857.248 489 C 853.449 489, 842.987 493.653, 836.349 498.295 C 831.855 501.436, 828 501.338, 828 498.082 C 828 494.483, 830.164 490.255, 833.129 488.063 C 835.635 486.210, 836.055 485.347, 835.517 483.157 C 834.527 479.125, 832.167 476, 830.112 476 C 829.099 476, 827.084 475.067, 825.635 473.927 C 824.186 472.788, 823 472.073, 823 472.339 C 823 472.605, 820.229 472.176, 816.842 471.386 C 811.453 470.129, 810.050 470.135, 805.592 471.432 C 802.792 472.247, 798.925 474.078, 797 475.501 L 793.500 478.089 791.750 475.934 C 790.788 474.748, 790 473.201, 790 472.496 C 790 471.791, 789.288 470.941, 788.418 470.607 C 786.503 469.872, 786.791 469.846, 785.121 470.904" stroke="#e23b33" fill="#e23b33" fill-opacity="0.2" fill-rule="evenodd"/><path class="svg-region-VOC" d="M 504.352 464.750 C 500.321 469.092, 498.887 472.697, 499.125 477.896 C 499.288 481.481, 498.790 483.486, 497.172 485.758 C 492.621 492.150, 494.219 493.795, 509 497.931 C 513.125 499.085, 517.850 500.543, 519.500 501.172 C 523.292 502.616, 533.019 503.463, 532.941 502.343 C 532.832 500.791, 528.534 493.330, 525.250 488.992 C 523.001 486.022, 521.993 483.591, 521.978 481.100 C 521.966 479.120, 521.066 475.538, 519.978 473.141 C 518.890 470.743, 518 468.173, 518 467.430 C 518 464.977, 513.758 462, 510.264 462 C 507.885 462, 506.160 462.802, 504.352 464.750" stroke="#ff8f93" fill="#ff8f93" fill-opacity="0.2" fill-rule="evenodd"/><path class="svg-region-OABr" d="M 649.396 411.675 C 642.725 419.408, 642.471 419.640, 637.378 422.624 C 634.377 424.383, 631.927 426.942, 629.958 430.375 C 626.283 436.783, 626.156 439.729, 629.500 441 C 632.368 442.090, 632.794 445.366, 630.468 448.441 C 629.661 449.509, 629 451.145, 629 452.077 C 629 453.009, 628.328 455.060, 627.506 456.636 C 626.685 458.211, 626 460.625, 625.984 462 C 625.951 464.917, 622.483 473, 621.264 473 C 620.806 473, 619.677 474.277, 618.754 475.839 C 617.481 477.994, 617.357 478.957, 618.239 479.839 C 620.245 481.845, 623.693 481.116, 628.173 477.737 C 630.553 475.942, 635.200 472.739, 638.500 470.620 C 645.123 466.366, 654.491 455.093, 656.701 448.717 C 657.494 446.429, 658.271 437.237, 658.665 425.467 L 659.317 406 656.805 406 C 654.992 406, 652.929 407.580, 649.396 411.675" stroke="#81244d" fill="#81244d" fill-opacity="0.2" fill-rule="evenodd"/><path class="svg-region-SOTr" d="M 521.313 408.072 C 519.766 409.761, 517.472 412.124, 516.216 413.322 C 514.959 414.520, 512.372 416.995, 510.466 418.821 C 508.560 420.648, 506.993 423.123, 506.985 424.321 C 506.976 425.520, 506.552 427.160, 506.042 427.966 C 504.835 429.874, 506.294 431.599, 511.254 434.130 C 514.967 436.024, 515.365 436.040, 520.071 434.476 C 522.782 433.576, 525.001 432.538, 525.003 432.170 C 525.004 431.801, 526.332 430.612, 527.952 429.526 C 532.021 426.800, 534.416 421.136, 533.713 415.898 C 533.405 413.598, 533.638 410.950, 534.235 409.996 C 536.271 406.735, 534.486 405, 529.094 405 C 524.825 405, 523.730 405.432, 521.313 408.072" stroke="#995b45" fill="#995b45" fill-opacity="0.2" fill-rule="evenodd"/><path class="svg-region-BPCr" d="M 757.287 706.009 C 756.747 708.076, 756.379 708.163, 751.605 707.360 C 748.797 706.887, 740.650 706.500, 733.500 706.500 C 723.412 706.500, 719.543 706.892, 716.230 708.250 C 710.576 710.567, 702.723 710.464, 696.207 707.987 C 692.207 706.467, 690.436 706.231, 688.957 707.023 C 685.968 708.622, 686.504 711, 689.852 711 C 691.421 711, 694.233 712.108, 696.102 713.461 C 702.168 717.856, 708.460 720.796, 713.371 721.533 C 718.024 722.231, 723.398 725.523, 729.957 731.696 C 732.072 733.686, 733.090 733.966, 736 733.358 C 739.857 732.552, 742.723 732.585, 748 733.494 C 751.109 734.030, 752.282 733.505, 758.500 728.798 C 766.869 722.464, 767.266 721.009, 763.142 711.816 C 759.799 704.365, 758.146 702.726, 757.287 706.009" stroke="#83385f" fill="#83385f" fill-opacity="0.2" fill-rule="evenodd"/>
    </svg>