<svg xmlns="http://www.w3.org/2000/svg" width="1078" height="1151" viewBox="0 0 1078 1151" version="1.1">
    <path class="svg-region-V" d="M 502 197.134 C 498.425 197.608, 488.478 198.618, 479.895 199.378 C 466.078 200.601, 463.541 201.117, 457.752 203.880 C 454.156 205.596, 450.603 207.012, 449.857 207.028 C 447.959 207.066, 433.449 218.349, 422.607 228.218 C 403.608 245.511, 403.142 246.101, 393.728 264.763 C 388.939 274.258, 383.892 285.508, 382.511 289.763 C 381.131 294.018, 378.426 300.110, 376.501 303.300 C 374.575 306.490, 373 309.334, 373 309.620 C 373 309.906, 370.975 313.476, 368.500 317.553 C 366.025 321.630, 364 325.266, 364 325.633 C 364 326, 362.195 329.430, 359.989 333.257 C 353.377 344.724, 349.644 355.815, 347.998 368.879 L 347.068 376.258 351.401 385.379 C 353.784 390.395, 356.079 395.625, 356.501 397 C 357.151 399.119, 362.200 410.862, 371.145 431.061 C 372.256 433.569, 374.004 436.146, 375.031 436.787 C 376.057 437.428, 381.082 438.244, 386.198 438.601 C 394.638 439.189, 396.056 439.021, 401.500 436.787 C 404.800 435.433, 409.602 433.554, 412.171 432.610 C 417.504 430.652, 424.056 424.142, 426.555 418.317 C 427.856 415.287, 428.075 412.540, 427.617 405 C 426.754 390.760, 428.560 367.562, 430.922 362.565 C 431.979 360.329, 434.150 355.574, 435.746 351.999 C 438.300 346.279, 445.695 334.542, 455.109 321.265 C 459.119 315.610, 469.947 306.096, 475.896 303 C 478.538 301.625, 481.511 299.825, 482.502 299.001 C 483.494 298.176, 486.599 296.804, 489.403 295.951 C 494.266 294.472, 494.838 294.507, 501.856 296.722 C 505.902 297.999, 510.066 299.500, 511.109 300.058 C 512.152 300.617, 517.378 302.156, 522.723 303.480 L 532.441 305.888 542.057 315.811 C 550.012 324.020, 552.657 326.102, 557.374 327.867 C 566.764 331.380, 576.714 329.977, 578.045 324.951 C 578.416 323.549, 580.808 318.443, 583.360 313.605 C 585.912 308.767, 588 303.982, 588 302.974 C 588 301.842, 588.849 301.017, 590.217 300.820 C 592.384 300.507, 593.733 298.561, 595.985 292.500 C 597.779 287.672, 601.469 283.856, 605.052 283.123 C 607.455 282.632, 609.237 281.211, 611.513 277.972 C 613.241 275.513, 615.608 273.359, 616.773 273.188 C 618.781 272.891, 618.711 272.639, 615.446 268.361 C 613.551 265.878, 611.985 262.869, 611.967 261.673 C 611.949 260.478, 610.606 257.700, 608.984 255.500 C 607.362 253.300, 605.464 250.381, 604.767 249.014 C 604.070 247.646, 602.738 245.759, 601.806 244.819 C 600.874 243.880, 599.792 241.410, 599.402 239.330 C 597.934 231.502, 583.248 220.553, 564 212.935 C 560.975 211.737, 554 208.627, 548.500 206.022 C 528.054 196.340, 519.831 194.768, 502 197.134" stroke="#dd8a8a" fill="#dd8a8a" fill-opacity="0.2" fill-rule="evenodd"/><path class="svg-region-SV" d="M 490.500 296.269 C 487.200 296.753, 483.600 297.952, 482.500 298.933 C 481.400 299.914, 478.285 301.793, 475.578 303.109 C 463.005 309.217, 443.750 333.694, 433.561 356.520 C 428.959 366.831, 428.871 367.222, 427.931 381.747 C 427.406 389.861, 427.265 400.175, 427.619 404.666 C 428.136 411.234, 427.904 413.826, 426.434 417.914 C 424.634 422.920, 424.637 423.037, 426.647 425.748 C 429.076 429.023, 434.963 432.577, 440.500 434.112 C 442.700 434.722, 446.975 436.254, 450 437.516 C 453.025 438.777, 457.911 440.126, 460.859 440.514 C 466.937 441.312, 476 446.361, 476 448.949 C 476 451.487, 478.079 453, 481.565 453 C 483.306 453, 485.874 453.900, 487.273 455 C 490.176 457.284, 492.958 457.506, 497.604 455.826 C 500.552 454.760, 501.058 453.934, 503.112 446.826 C 505.529 438.459, 507 436.822, 507 442.500 C 507 447.504, 508.473 446.831, 511.369 440.505 C 512.954 437.043, 514.831 434.578, 516.442 433.844 C 517.855 433.201, 519 431.844, 519 430.814 C 519 429.789, 521.587 426.113, 524.750 422.647 C 527.913 419.181, 533.287 412.969, 536.694 408.844 C 542.461 401.860, 543.270 401.258, 548.444 400.100 L 554 398.857 554.161 391.678 C 554.250 387.730, 554.203 378.650, 554.057 371.500 C 553.813 359.570, 553.965 358.281, 555.896 355.842 C 557.519 353.792, 558.010 351.736, 558.044 346.842 C 558.068 343.354, 558.773 338.700, 559.610 336.500 C 560.447 334.300, 561.350 331.825, 561.616 331 C 561.963 329.928, 560.628 328.978, 556.937 327.668 C 552.764 326.189, 549.918 323.923, 542.114 315.870 L 532.455 305.903 522.536 303.384 C 517.080 301.998, 511.738 300.395, 510.666 299.821 C 505.306 296.953, 496.462 295.395, 490.500 296.269" stroke="#c666b5" fill="#c666b5" fill-opacity="0.2" fill-rule="evenodd"/><path class="svg-region-SF" d="M 613.842 274.750 C 613.035 275.712, 611.617 277.720, 610.690 279.211 C 609.624 280.927, 607.541 282.316, 605.015 282.996 C 600.504 284.211, 596.656 288.920, 594.909 295.363 C 594.128 298.246, 593.119 299.506, 590.931 300.332 C 589.319 300.941, 588 302.164, 588 303.050 C 588 303.936, 586.829 306.875, 585.398 309.581 C 578.203 323.185, 577.882 324.075, 574.531 339.734 C 573.680 343.713, 572.087 349.242, 570.992 352.021 C 569.537 355.712, 569 359.444, 569 365.866 C 569 373.994, 569.230 375.005, 572.052 379.264 C 574.855 383.496, 581.428 388, 584.801 388 C 585.445 388, 587.358 390.748, 589.054 394.107 C 593.982 403.870, 601.215 408.936, 610.282 408.978 C 616.066 409.005, 619.288 407.727, 628.760 401.655 C 632.753 399.095, 636.771 397, 637.689 397 C 641.492 397, 646 394.590, 646.015 392.549 C 646.023 391.422, 646.585 389.551, 647.265 388.391 C 647.944 387.231, 649.988 383.631, 651.806 380.391 C 653.624 377.151, 656.311 372.475, 657.776 370 C 663.481 360.361, 665.232 324.070, 660.501 313.500 C 659.763 311.850, 658.847 309.422, 658.466 308.104 C 658.085 306.787, 656.083 303.862, 654.018 301.604 C 651.953 299.347, 648.223 294.301, 645.729 290.392 C 641.357 283.538, 637.328 280.048, 632 278.503 C 630.625 278.104, 628.150 277.216, 626.500 276.529 C 616.249 272.264, 615.961 272.224, 613.842 274.750" stroke="#8c6b55" fill="#8c6b55" fill-opacity="0.2" fill-rule="evenodd"/><path class="svg-region-PF" d="M 574.844 328.489 C 574.297 329.036, 568.852 329.829, 564.935 329.933 C 561.216 330.030, 558.828 335.566, 558.219 345.500 C 557.874 351.134, 557.192 354.187, 555.913 355.823 C 554.276 357.918, 554.098 360.472, 554.098 381.948 L 554.098 405.751 556.799 409.967 C 558.446 412.539, 562.145 415.903, 566.281 418.592 C 572.124 422.390, 573.793 423, 578.343 423 C 584.294 423, 590.202 420.570, 593.924 416.591 C 595.258 415.166, 597.085 414, 597.986 414 C 599.696 414, 604 410.508, 604 409.122 C 604 408.681, 602.930 407.834, 601.623 407.238 C 597.111 405.182, 591.854 399.655, 588.961 393.922 C 586.607 389.260, 585.470 388.043, 582.955 387.490 C 578.948 386.610, 573.407 381.718, 570.941 376.885 C 568.245 371.600, 568.303 360.306, 571.066 352.407 C 572.834 347.353, 576.912 331.034, 576.978 328.750 C 577.003 327.909, 575.596 327.737, 574.844 328.489" stroke="#faaaaa" fill="#faaaaa" fill-opacity="0.2" fill-rule="evenodd"/><path class="svg-region-AAB" d="M 663.989 412.250 C 662.899 414.038, 662.006 415.978, 662.004 416.563 C 661.998 418.124, 656.865 422.665, 654.191 423.474 C 652.922 423.858, 650.022 426.190, 647.748 428.657 C 643.419 433.354, 642.821 435.615, 642.898 447 C 642.946 454.005, 642.279 455.638, 638.451 457.897 C 636.201 459.224, 634.194 461.569, 633.004 464.258 C 630.894 469.027, 623.580 476.976, 617.164 481.470 C 612.437 484.782, 608.503 491.043, 606.822 497.932 C 604.529 507.329, 601.550 510.108, 595.416 508.568 C 592.925 507.943, 592.845 507.689, 593.166 501.458 C 593.350 497.904, 593.465 494.997, 593.422 494.998 C 593.380 494.999, 590.073 498.262, 586.075 502.250 C 582.077 506.238, 577.676 511.718, 576.295 514.429 C 574.914 517.140, 573.158 519.985, 572.392 520.750 C 571.627 521.516, 571 522.505, 571 522.948 C 571 523.391, 568.540 524.821, 565.534 526.126 C 561.484 527.885, 559.758 529.277, 558.870 531.500 C 558.210 533.150, 557.034 535.250, 556.255 536.168 C 554.480 538.258, 554.963 541.959, 557.193 543.357 C 559.086 544.543, 565.011 543.509, 573.500 540.512 C 593.502 533.449, 595.995 532.780, 609 530.987 C 615.927 530.032, 624.667 527.868, 629.500 525.910 C 630.600 525.464, 635.453 523.498, 640.285 521.540 C 645.117 519.582, 650.742 516.962, 652.785 515.717 C 654.828 514.473, 657.737 512.826, 659.250 512.058 C 660.763 511.290, 662 510.288, 662 509.831 C 662 509.374, 662.665 509, 663.477 509 C 667.089 509, 686.241 497.088, 688.725 493.297 C 689.679 491.841, 690.762 488.141, 691.131 485.075 C 691.499 482.009, 692.817 476.800, 694.058 473.500 C 695.984 468.379, 696.328 465.449, 696.405 453.500 C 696.521 435.553, 694.715 429.552, 686.391 420.221 C 680.427 413.536, 676.636 411, 672.609 411 C 671.239 411, 669.840 410.550, 669.500 410 C 668.307 408.070, 665.952 409.031, 663.989 412.250 M 600.997 485.250 C 599.525 487.261, 599.283 487.960, 600.363 487.082 C 602.003 485.751, 604.483 482, 603.723 482 C 603.532 482, 602.305 483.462, 600.997 485.250 M 594.872 492.750 C 593.629 494.336, 593.664 494.371, 595.250 493.128 C 596.916 491.821, 597.445 491, 596.622 491 C 596.415 491, 595.627 491.788, 594.872 492.750" stroke="#7f3c1a" fill="#7f3c1a" fill-opacity="0.2" fill-rule="evenodd"/><path class="svg-region-APB" d="M 641.500 396 C 641.160 396.550, 639.820 397, 638.521 397 C 637.223 397, 631.962 399.572, 626.830 402.715 C 618.492 407.823, 616.809 408.475, 611 408.844 C 606.017 409.160, 603.840 409.810, 601.673 411.628 C 600.119 412.933, 598.276 414, 597.578 414 C 596.881 414, 595.453 414.960, 594.405 416.133 C 593.357 417.307, 590.250 419.950, 587.500 422.008 C 569.109 435.767, 556.314 454.590, 553.231 472.423 C 550.922 485.773, 550.528 503.014, 552.388 509.348 C 553.219 512.182, 554.160 516.540, 554.479 519.033 C 554.797 521.525, 555.915 524.976, 556.964 526.701 L 558.871 529.836 564.646 526.840 C 570.813 523.640, 572.087 522.303, 576 514.914 C 577.375 512.318, 582.421 506.102, 587.214 501.102 C 602.094 485.577, 606.112 479.339, 608.013 468.817 C 609.172 462.395, 610.448 460.356, 614.511 458.428 C 618.534 456.519, 621.860 453.322, 626.331 447.067 C 628.074 444.629, 631.139 441.704, 633.141 440.567 C 638.412 437.575, 646.293 431.006, 649.086 427.278 C 650.414 425.505, 652.253 424.043, 653.173 424.028 C 656.008 423.981, 660.620 419.296, 663.374 413.667 C 664.819 410.716, 666 408.025, 666 407.689 C 666 407.353, 663.749 406.409, 660.998 405.592 C 658.161 404.749, 653.577 402.136, 650.406 399.553 C 644.805 394.991, 642.654 394.133, 641.500 396" stroke="#ac7444" fill="#ac7444" fill-opacity="0.2" fill-rule="evenodd"/><path class="svg-region-PC" d="M 547 400.293 C 544.525 400.872, 542.211 401.778, 541.858 402.306 C 540.432 404.442, 530.145 416.646, 524.750 422.602 C 521.587 426.093, 518.996 429.748, 518.992 430.725 C 518.987 431.701, 519.752 435.499, 520.691 439.165 C 522.217 445.120, 522.699 445.890, 525.216 446.393 C 528.679 447.086, 530 450.161, 530 457.530 C 530 462.140, 529.548 463.446, 526.907 466.453 C 522.976 470.930, 516.559 473.143, 514.730 470.652 C 512.701 467.887, 513.141 494.123, 515.231 500.500 C 516.132 503.250, 518.099 510.675, 519.602 517 C 521.736 525.980, 522.883 528.976, 524.834 530.670 C 527.236 532.756, 527.651 534.831, 526.800 540.500 C 526.538 542.245, 527.145 542.538, 531.560 542.796 C 535.337 543.016, 538.508 542.338, 544.060 540.120 C 548.152 538.486, 552.770 536.834, 554.323 536.448 C 558.524 535.404, 559.662 531.522, 557.101 526.967 C 555.992 524.992, 554.814 521.380, 554.483 518.939 C 554.153 516.497, 553.196 512.150, 552.357 509.278 C 551.221 505.389, 550.952 501.047, 551.305 492.278 C 552.175 470.613, 555.202 459.965, 564.416 446.146 C 568.460 440.081, 583.589 423.970, 585.993 423.169 C 586.547 422.984, 587 422.405, 587 421.881 C 587 421.308, 586.232 421.341, 585.066 421.965 C 584.002 422.534, 580.919 423, 578.214 423 C 574.074 423, 572.223 422.295, 566.508 418.542 C 558.615 413.357, 555.060 408.869, 554.288 403.112 C 553.985 400.850, 553.233 399.054, 552.618 399.120 C 552.003 399.186, 549.475 399.714, 547 400.293" stroke="#cda789" fill="#cda789" fill-opacity="0.2" fill-rule="evenodd"/><path class="svg-region-DB" d="M 420.439 427.062 C 418.333 429.219, 414.560 431.710, 412.055 432.598 C 409.550 433.486, 404.969 435.290, 401.875 436.607 C 395.960 439.123, 390.184 439.520, 380.184 438.098 C 375.136 437.380, 374.894 437.446, 375.366 439.421 C 375.640 440.564, 376.188 443.300, 376.584 445.500 C 376.981 447.700, 378.362 451.179, 379.653 453.230 C 380.944 455.282, 382.002 457.982, 382.004 459.230 C 382.010 462.875, 385.625 467.881, 388.719 468.529 C 390.249 468.850, 393.525 470.051, 396 471.198 C 398.475 472.346, 403.425 473.652, 407 474.100 C 428.138 476.752, 440.464 479.251, 442.959 481.389 C 443.806 482.116, 446.863 483.540, 449.750 484.553 C 452.637 485.566, 455 486.707, 455 487.089 C 455 488.479, 463.162 491.001, 467.770 491.035 C 470.372 491.055, 473.625 491.714, 475 492.500 C 476.375 493.286, 479.075 493.952, 481 493.981 C 484.359 494.030, 486.408 495.338, 493.721 502.100 C 496.541 504.708, 498.672 504.055, 503.899 498.982 C 506.127 496.820, 509.037 494.778, 510.366 494.444 C 513.260 493.718, 514 490.880, 514 480.515 C 514 470.286, 513.004 464, 511.383 464 C 510.643 464, 509.735 462.762, 509.365 461.250 C 508.504 457.733, 507.172 456.862, 503.750 457.581 C 501.604 458.032, 501 457.786, 501 456.463 C 501 455.154, 500.486 454.934, 498.750 455.497 C 493.102 457.330, 489.487 457.196, 487.575 455.083 C 486.322 453.698, 484.468 453, 482.045 453 C 478.118 453, 476 451.581, 476 448.949 C 476 446.357, 466.937 441.311, 460.859 440.520 C 457.911 440.137, 453.183 438.784, 450.351 437.513 C 447.520 436.243, 443.695 434.878, 441.851 434.480 C 436.763 433.381, 430.852 430.092, 427.384 426.431 L 424.268 423.141 420.439 427.062" stroke="#e8b1e4" fill="#e8b1e4" fill-opacity="0.2" fill-rule="evenodd"/><path class="svg-region-MB" d="M 388 469.878 C 388 470.360, 388.675 471.315, 389.500 472 C 390.325 472.685, 391 474.119, 391 475.188 C 391 476.257, 391.488 478.043, 392.084 479.157 C 392.680 480.271, 394.243 485.523, 395.556 490.828 C 397.715 499.547, 398.318 500.785, 401.820 503.694 C 404.233 505.698, 406.369 508.721, 407.481 511.706 C 409.296 516.577, 412.234 521.092, 417.107 526.500 C 418.594 528.150, 420.866 530.749, 422.155 532.277 C 424.831 535.445, 439.292 541.213, 449.285 543.096 C 456.245 544.408, 469.572 545.200, 481.283 544.996 C 486.191 544.911, 490.906 545.472, 494.048 546.516 C 497.490 547.659, 500.333 547.951, 503.245 547.459 C 507.621 546.719, 511.960 544.235, 511.906 542.500 C 511.889 541.950, 508.818 540.004, 505.081 538.175 C 494.214 532.857, 487.125 524.731, 488.476 519.142 C 488.827 517.689, 490.708 514.078, 492.656 511.118 C 495.690 506.505, 496.028 505.432, 495.024 503.618 C 493.048 500.048, 484.450 494.001, 481.343 493.994 C 479.779 493.990, 477.211 493.315, 475.636 492.494 C 474.060 491.672, 470.558 491, 467.854 491 C 463.005 491, 460.871 490.263, 452 485.523 C 449.525 484.200, 446.768 483.091, 445.872 483.059 C 444.977 483.027, 443.703 482.348, 443.042 481.550 C 441.292 479.442, 427.875 476.675, 407 474.117 C 403.425 473.679, 398.605 472.348, 396.290 471.160 C 391.961 468.939, 388 468.326, 388 469.878" stroke="#f9c6c6" fill="#f9c6c6" fill-opacity="0.2" fill-rule="evenodd"/><path class="svg-region-AP" d="M 621.756 600.577 C 620.663 601.670, 603.459 603.135, 583.712 603.817 C 567.741 604.368, 563.742 604.789, 562.978 606 C 562.457 606.825, 562.024 617.076, 562.015 628.780 C 562.001 649.188, 562.101 650.301, 564.475 655.940 C 568.422 665.319, 569.187 669.523, 570.036 686.500 C 571.163 709.046, 571.660 712.072, 575.134 717.550 C 576.792 720.165, 578.985 724.374, 580.006 726.903 C 581.028 729.431, 582.794 733.283, 583.932 735.461 C 586.852 741.054, 586.716 752.564, 583.583 765 C 582.267 770.225, 580.854 775.340, 580.443 776.366 C 579.764 778.064, 579.914 778.117, 582.098 776.954 C 583.419 776.250, 585.725 774.772, 587.223 773.669 C 589.222 772.197, 591.349 771.702, 595.223 771.807 C 608.108 772.157, 613.866 772.893, 619 774.844 C 622.025 775.994, 625.274 776.949, 626.219 776.967 C 627.165 776.985, 629.640 777.862, 631.719 778.916 C 637.101 781.644, 650.654 783.065, 661.500 782.038 C 681.988 780.099, 693.660 777.141, 706.645 770.594 C 709.475 769.167, 712.227 768, 712.760 768 C 713.294 768, 714.803 767.167, 716.115 766.148 C 717.427 765.130, 721.447 763.323, 725.048 762.134 C 728.649 760.945, 732.539 759.310, 733.693 758.503 C 738.269 755.297, 749.771 749.792, 754.500 748.545 C 757.250 747.819, 761.075 746.558, 763 745.742 L 766.500 744.259 754.500 738.562 C 747.900 735.429, 741.150 732.653, 739.500 732.394 C 732.629 731.314, 725.340 729.506, 723 728.300 C 721.625 727.592, 719.695 727.010, 718.710 727.006 C 716.138 726.997, 710.066 723.708, 706 720.120 C 704.075 718.422, 702.038 717.025, 701.472 717.016 C 700.907 717.007, 699.637 716.057, 698.651 714.905 C 696.780 712.721, 696.570 712.716, 684.359 714.563 C 678.967 715.379, 675.959 713.420, 672.014 706.524 C 668.686 700.708, 667.068 700.049, 656 699.996 C 652.975 699.981, 649.935 699.611, 649.245 699.172 C 647.530 698.084, 654.098 695, 658.133 695 C 660.854 695, 667.664 692.526, 669.001 691.052 C 670.026 689.922, 676.213 687, 677.581 687 C 678.361 687, 679 686.550, 679 686 C 679 684.471, 693.737 684.711, 694.249 686.247 C 694.795 687.886, 718.804 687.933, 719.819 686.298 C 720.194 685.695, 721.625 685.012, 723 684.779 L 725.500 684.357 722.500 683.071 C 720.850 682.364, 715.540 681.227, 710.700 680.543 C 705.860 679.860, 701.478 678.878, 700.961 678.361 C 700.444 677.844, 699.834 669.114, 699.604 658.961 C 699.375 648.807, 698.923 639.825, 698.601 639 C 697.974 637.397, 700.279 618.608, 701.441 615.852 C 702.423 613.522, 698.859 610.426, 690.500 606.347 L 683.500 602.932 665.982 603.112 C 651.429 603.261, 647.926 603.013, 645.282 601.646 C 642.957 600.444, 639.434 600, 632.216 600 C 626.781 600, 622.074 600.260, 621.756 600.577" stroke="#fc7143" fill="#fc7143" fill-opacity="0.2" fill-rule="evenodd"/><path class="svg-region-PP" d="M 498.500 603.956 C 497.400 604.453, 493.953 604.891, 490.839 604.930 C 485.953 604.990, 484.852 605.376, 482.797 607.750 C 479.279 611.814, 475.248 613.661, 468.227 614.423 C 462.499 615.045, 461.431 614.839, 455.947 612.052 C 447.911 607.969, 443.988 608.014, 442 612.211 C 439.956 616.526, 436.480 618.836, 429.634 620.428 L 423.859 621.770 418.829 618.385 C 413.558 614.838, 411.962 614.424, 409.184 615.887 C 408.180 616.415, 405.181 616.348, 401.761 615.721 C 397.682 614.974, 395.332 614.983, 393.642 615.753 C 391.318 616.812, 391.246 617.232, 390.542 633.686 C 389.878 649.236, 389.983 651.013, 391.911 656.736 C 393.060 660.147, 394 664.275, 394 665.909 C 394 667.544, 394.497 669.189, 395.104 669.564 C 396.898 670.673, 399.954 678.246, 399.978 681.641 C 400.026 688.439, 407.310 700.147, 415.632 706.803 C 420.583 710.761, 424.999 717.081, 425.001 720.210 C 425.003 723.767, 431.522 734.216, 437.970 741 C 441.892 745.125, 446.449 750.412, 448.097 752.749 C 449.746 755.085, 452.410 757.678, 454.018 758.509 C 455.625 759.340, 457.417 760.911, 458 762 C 459.187 764.219, 463.991 767, 466.636 767 C 467.590 767, 469.300 767.818, 470.436 768.818 C 472.846 770.942, 484.314 775.417, 491.500 777.039 C 494.250 777.659, 497.400 778.512, 498.500 778.934 C 504.949 781.407, 508.220 782.332, 514.500 783.460 C 518.350 784.152, 523.568 785.306, 526.096 786.025 C 528.623 786.744, 531.431 787.048, 532.336 786.701 C 533.760 786.155, 533.647 785.738, 531.490 783.581 C 530.018 782.109, 529.003 779.947, 529.006 778.295 C 529.011 776.306, 527.933 774.563, 525.267 772.250 C 523.207 770.462, 521.215 769, 520.840 769 C 520.466 769, 519.856 767.620, 519.485 765.932 C 519.115 764.245, 518.210 762.634, 517.476 762.352 C 514.882 761.357, 512.475 749, 514.875 749 C 515.356 749, 516.020 747.652, 516.349 746.004 C 517.240 741.551, 519.807 738.200, 522.824 737.552 C 525.239 737.034, 533.588 738.370, 543.015 740.784 C 547.769 742, 554 745.024, 554 746.114 C 554 746.601, 554.900 747, 556 747 C 557.100 747, 558 747.340, 558 747.756 C 558 748.555, 565.775 752.283, 570 753.510 C 574.750 754.890, 578.987 760.100, 577.159 762.314 C 576.230 763.440, 573.399 774.748, 572.294 781.750 C 571.905 784.217, 572.148 785, 573.302 785 C 579 785, 586 764.206, 586 747.280 C 586 740.961, 585.509 738.619, 583.124 733.579 C 581.543 730.236, 579.211 725.250, 577.943 722.500 C 576.675 719.750, 575.337 717.275, 574.969 717 C 572.048 714.818, 570.099 700.805, 570.034 681.524 C 570.003 672.507, 569.611 670.425, 565.961 659.887 L 561.921 648.226 562.211 627.223 L 562.500 606.219 559.249 605.044 C 557.461 604.398, 553.186 603.892, 549.749 603.919 C 546.312 603.947, 533.825 603.763, 522 603.511 C 510.175 603.259, 499.600 603.460, 498.500 603.956" stroke="#c4743d" fill="#c4743d" fill-opacity="0.2" fill-rule="evenodd"/><path class="svg-region-ADCr" d="M 718.352 612.357 C 715.546 614.718, 714.651 614.924, 709.158 614.466 C 703.624 614.005, 702.947 614.165, 701.690 616.230 C 700.100 618.842, 697.552 638.466, 698.586 640.139 C 698.965 640.753, 699.441 649.390, 699.642 659.332 C 699.844 669.274, 700.440 677.840, 700.966 678.366 C 701.492 678.892, 705.652 679.872, 710.211 680.542 C 717.483 681.613, 734.701 685.735, 739.029 687.441 C 739.869 687.773, 741.421 687.413, 742.476 686.641 C 744.332 685.284, 744.339 685.041, 742.697 679.134 C 741.764 675.777, 741 671.201, 741 668.965 C 741 666.730, 740.292 663.532, 739.428 661.860 C 738.563 660.188, 738.095 658.196, 738.387 657.434 C 738.680 656.672, 738.267 653.900, 737.470 651.274 C 736.674 648.648, 736.017 644.085, 736.011 641.134 C 735.992 631.824, 732.102 621.835, 725.634 614.483 L 721.461 609.741 718.352 612.357" stroke="#54413e" fill="#54413e" fill-opacity="0.2" fill-rule="evenodd"/><path class="svg-region-VMr" d="M 519.766 738.969 C 518.389 740.053, 516.984 742.329, 516.645 744.027 C 516.305 745.726, 515.345 747.798, 514.512 748.630 C 512.981 750.161, 513.096 751.935, 515.167 758.750 C 515.711 760.538, 516.541 762, 517.013 762 C 517.485 762, 518.400 763.462, 519.047 765.250 C 519.694 767.038, 522.198 770.015, 524.612 771.867 C 527.685 774.225, 529 775.967, 529 777.683 C 529 781.597, 530.629 783.641, 536.366 786.923 C 540.602 789.347, 542.926 790, 547.313 790 C 550.376 790, 553.160 790.450, 553.500 791 C 554.324 792.332, 563.292 792.279, 566.266 790.925 C 568.719 789.807, 571.469 785.318, 572.346 781 C 574.473 770.530, 576.331 763.318, 577.159 762.314 C 579.114 759.947, 574.876 754.722, 570 753.486 C 566.190 752.520, 558 748.609, 558 747.756 C 558 747.340, 557.100 747, 556 747 C 554.900 747, 554 746.601, 554 746.114 C 554 744.165, 545.866 741.200, 533 738.458 C 524.283 736.601, 522.699 736.662, 519.766 738.969" stroke="#e59376" fill="#e59376" fill-opacity="0.2" fill-rule="evenodd"/><path class="svg-region-PMr" d="M 246.616 719.003 C 241.967 724.149, 241.654 729.246, 245.692 734.046 C 248.292 737.136, 248.580 737.224, 254.146 736.643 C 258.567 736.180, 260.596 736.435, 262.865 737.737 C 265.458 739.226, 266.142 739.262, 268.437 738.033 C 272.359 735.935, 272.630 732.812, 269.505 725.710 C 264.733 714.865, 264.889 715, 257.093 715 C 250.357 715, 250.167 715.073, 246.616 719.003" stroke="#90cf92" fill="#90cf92" fill-opacity="0.2" fill-rule="evenodd"/><path class="svg-region-PV" d="M 303 595.019 C 297.775 595.441, 291.490 596.308, 289.034 596.947 C 285.694 597.815, 284.034 597.821, 282.447 596.972 C 280.800 596.090, 279.509 596.178, 276.663 597.367 C 274.648 598.209, 273 599.371, 273 599.949 C 273 601.661, 269.789 601.148, 267.564 599.081 C 265.526 597.188, 265.405 597.194, 258.119 599.581 C 254.060 600.912, 249.785 602.004, 248.619 602.010 C 247.454 602.015, 244.137 603.119, 241.250 604.464 C 236.998 606.443, 236 607.376, 236 609.372 C 236 611.103, 234.973 612.471, 232.551 613.968 C 227.721 616.954, 220.431 625.831, 221.737 627.137 C 222.298 627.698, 224.725 628.411, 227.129 628.721 C 232.961 629.472, 244.037 635.108, 248.292 639.489 C 250.942 642.218, 251.892 644.216, 252.461 648.261 C 252.867 651.143, 253.151 654.400, 253.092 655.500 C 252.591 664.948, 253.019 668.944, 255.022 673.500 C 256.692 677.298, 257.347 681.194, 257.748 689.709 C 258.274 700.884, 258.268 700.921, 255.803 702.044 C 252.640 703.485, 250 707.951, 250 711.860 L 250 714.912 257.216 715.206 C 265.229 715.532, 264.104 714.556, 269.465 725.832 C 270.859 728.765, 272 731.802, 272 732.582 C 272 733.447, 273.027 734, 274.634 734 C 280.683 734, 285.126 736.324, 290.566 742.336 C 293.538 745.620, 297.741 749.100, 299.906 750.069 C 304.222 752.002, 315.674 759.391, 320.661 763.462 C 322.400 764.881, 325.170 766.512, 326.817 767.086 C 328.637 767.721, 330.289 769.283, 331.029 771.070 C 331.699 772.686, 333.879 775.385, 335.873 777.066 C 345.208 784.934, 345.124 784.822, 344.454 788.396 C 343.859 791.564, 344.007 791.786, 347.162 792.456 C 354.241 793.959, 358.427 793.027, 368.500 787.705 C 369.600 787.124, 374.592 784.585, 379.594 782.063 C 388.499 777.573, 398 769.930, 398 767.256 C 398 766.515, 399.125 764.784, 400.500 763.409 C 401.875 762.034, 403 760.056, 403 759.014 C 403 757.971, 403.389 756.877, 403.865 756.583 C 404.341 756.289, 405.283 753.240, 405.958 749.808 C 406.633 746.375, 408.269 741.429, 409.593 738.817 C 413.420 731.265, 412.809 719.061, 408.001 707 C 406.795 703.975, 405.158 699.416, 404.364 696.868 C 403.569 694.321, 402.037 691.439, 400.959 690.463 C 399.882 689.488, 399 688.299, 399 687.821 C 399 687.343, 397.425 684.662, 395.500 681.864 C 393.575 679.065, 392 675.901, 392 674.833 C 392 672.421, 388.468 664.552, 385.712 660.824 C 383.894 658.365, 383.641 656.525, 383.575 645.268 L 383.500 632.500 388.619 621.890 C 391.435 616.054, 394.247 610.965, 394.869 610.581 C 396.556 609.538, 396.236 606.521, 394.250 604.743 C 393.023 603.645, 389.360 602.976, 382 602.505 C 376.225 602.136, 368.800 601.209, 365.500 600.446 C 362.200 599.683, 352.975 598.598, 345 598.035 C 337.025 597.473, 328.700 596.504, 326.500 595.883 C 321.084 594.353, 314.328 594.105, 303 595.019" stroke="#b09658" fill="#b09658" fill-opacity="0.2" fill-rule="evenodd"/><path class="svg-region-DV" d="M 219.474 626.588 C 218.938 626.718, 217.319 627.084, 215.877 627.400 C 214.272 627.751, 212.801 629.048, 212.090 630.737 C 211.451 632.257, 209.481 635.115, 207.714 637.089 C 205.946 639.063, 203.200 643.563, 201.612 647.089 C 200.024 650.615, 198.224 654.581, 197.612 655.901 C 196.877 657.488, 196.551 666.651, 196.649 682.901 C 196.828 712.411, 197.663 726.204, 199.576 731.270 C 200.359 733.344, 201 736.291, 201 737.820 C 201 739.349, 201.516 741.116, 202.146 741.746 C 203.382 742.982, 203.519 749.455, 202.481 757.558 C 201.388 766.084, 205.804 767.153, 211.750 759.802 C 214.277 756.677, 215 754.838, 215 751.531 C 215 748.552, 215.803 746.115, 217.682 743.390 C 219.457 740.815, 220.438 737.979, 220.584 735 C 220.705 732.525, 221.523 728.531, 222.402 726.124 C 223.281 723.718, 224 721.109, 224 720.326 C 224 718.335, 229.092 714.068, 231.500 714.041 C 232.600 714.029, 235.907 715.140, 238.849 716.510 C 241.791 717.879, 244.759 719, 245.444 719 C 247.664 719, 249.724 715.605, 250.297 711 C 250.744 707.416, 251.614 705.842, 254.571 703.271 L 258.285 700.042 257.774 689.262 C 257.412 681.614, 256.667 677.033, 255.209 673.491 C 252.508 666.930, 251.728 661.844, 252.936 658.668 C 253.615 656.884, 253.501 653.909, 252.569 649.017 C 251.414 642.953, 250.676 641.430, 247.391 638.332 C 243.102 634.287, 232.219 629.003, 228.157 628.994 C 226.696 628.990, 224.363 628.394, 222.974 627.669 C 221.584 626.944, 220.009 626.458, 219.474 626.588" stroke="#45567a" fill="#45567a" fill-opacity="0.2" fill-rule="evenodd"/><path class="svg-region-VV" d="M 270.523 735.974 C 267.849 738.929, 265.232 739.382, 262.223 737.410 L 259.544 735.655 261.272 738.292 C 262.222 739.743, 263 741.805, 263 742.876 C 263 745.334, 257.550 749.999, 254.673 750.004 C 252.116 750.008, 246 753.521, 246 754.985 C 246 755.543, 244.446 756, 242.547 756 C 238.483 756, 233.803 757.909, 234.289 759.368 C 234.477 759.931, 237.526 761.938, 241.065 763.827 C 245.139 766.002, 250.252 770.093, 255 774.978 C 275.783 796.358, 290.970 802.933, 313.039 800.102 C 317.974 799.470, 323.022 798.538, 324.256 798.033 C 325.490 797.527, 329.488 796.832, 333.139 796.489 C 340.744 795.774, 343.421 793.761, 344.492 787.955 C 345.079 784.773, 344.812 784.160, 341.877 781.955 C 335.225 776.957, 332.215 773.934, 331.020 771.048 C 330.204 769.079, 328.655 767.711, 326.397 766.966 C 324.529 766.349, 323 765.479, 323 765.031 C 323 764.166, 304.890 752.431, 299 749.480 C 297.075 748.515, 293.174 745.170, 290.331 742.046 C 283.319 734.340, 274.460 731.624, 270.523 735.974" stroke="#7699d1" fill="#7699d1" fill-opacity="0.2" fill-rule="evenodd"/><path class="svg-region-B" d="M 809.250 492.102 C 806.913 492.661, 805 493.541, 805 494.059 C 805 494.576, 804.372 495, 803.604 495 C 801.973 495, 796.002 501.502, 795.995 503.285 C 795.991 504.474, 791.769 509.241, 786.703 513.779 C 785.304 515.032, 782.660 518.575, 780.829 521.653 C 777.132 527.868, 776.707 528.655, 771.930 538.167 L 768.582 544.834 769.849 552.374 C 770.774 557.880, 770.823 560.463, 770.028 561.948 C 769.236 563.427, 769.274 566.292, 770.166 572.461 C 770.840 577.125, 771.191 581.119, 770.946 581.336 C 770.701 581.553, 766.788 581.974, 762.250 582.271 C 754.775 582.760, 754 582.642, 754 581.012 C 754 577.418, 747.680 576.885, 745.782 580.319 C 742.232 586.741, 735.059 593.902, 728 598.071 C 718.220 603.846, 717.890 605.552, 724.916 613.995 C 727.689 617.327, 730.426 620.927, 730.997 621.994 C 733.277 626.255, 735.976 636.779, 735.998 641.500 C 736.011 644.250, 736.674 648.648, 737.470 651.274 C 738.267 653.900, 738.677 656.677, 738.382 657.446 C 738.087 658.215, 738.429 659.891, 739.142 661.172 C 739.855 662.452, 740.728 666.425, 741.082 670 C 741.989 679.161, 744.364 686.834, 747.133 689.547 C 748.435 690.823, 754 697.040, 759.500 703.363 C 769.989 715.421, 776.374 720, 782.700 720 C 785.406 720, 793.426 724.692, 795.128 727.273 C 795.474 727.796, 799.051 731.595, 803.077 735.714 L 810.398 743.203 818.699 742.512 C 824.895 741.996, 827 742.126, 827 743.027 C 827 743.806, 827.974 744.044, 829.750 743.698 C 831.656 743.327, 834.034 744.032, 837.500 745.996 C 843.920 749.632, 854.744 750.457, 866.657 748.217 C 874.438 746.754, 874.841 746.547, 875.407 743.717 C 875.733 742.085, 876 739.843, 876 738.735 C 876 736.851, 878.270 731.281, 881.739 724.652 C 882.558 723.086, 883.370 719.036, 883.543 715.652 C 883.999 706.729, 885.044 701.857, 887.147 698.846 C 888.166 697.386, 889 695.857, 889 695.448 C 889 695.039, 893.671 690.135, 899.379 684.549 C 905.088 678.964, 910.685 672.578, 911.817 670.358 C 913.926 666.224, 916.986 651.264, 917.003 645 C 917.009 643.075, 917.798 640.310, 918.758 638.855 C 921.164 635.207, 921.096 615.019, 918.662 610.313 C 916.949 607.001, 912.522 603, 910.571 603 C 908.840 603, 902 593.598, 902 591.218 C 902 590.082, 900.857 587.795, 899.461 586.136 C 897.186 583.433, 896.834 581.857, 896.082 571.043 C 895.261 559.225, 895.166 558.870, 891.622 554.320 C 889.630 551.764, 888 549.248, 888 548.730 C 888 548.212, 886.884 546.463, 885.521 544.842 C 883.318 542.224, 883.105 541.261, 883.615 536.198 C 884.182 530.556, 884.148 530.461, 880.094 526.547 C 876.086 522.677, 876 522.451, 876 515.747 C 876 503.777, 871.836 499.902, 865.081 505.585 C 861.306 508.762, 860.120 508.429, 857.529 503.468 C 855.424 499.438, 855.753 499.617, 840.174 494.014 C 833.806 491.723, 815.554 490.595, 809.250 492.102" stroke="#e23b33" fill="#e23b33" fill-opacity="0.2" fill-rule="evenodd"/><path class="svg-region-VOC" d="M 504.310 498.250 C 496.364 505.370, 493.405 508.846, 490.644 514.302 C 487.374 520.766, 487.369 521.634, 490.580 526.550 C 494.735 532.912, 506.751 541, 512.050 541 C 513.058 541, 514.160 541.450, 514.500 542 C 516.214 544.774, 526.848 541.602, 527.158 538.224 C 527.503 534.478, 526.843 532.441, 524.660 530.514 C 522.961 529.014, 521.659 525.440, 519.552 516.500 C 513.684 491.602, 512.848 490.600, 504.310 498.250" stroke="#ff8f93" fill="#ff8f93" fill-opacity="0.2" fill-rule="evenodd"/><path class="svg-region-OABr" d="M 638.924 436.629 C 637.591 438.075, 635.091 439.858, 633.370 440.592 C 630.112 441.981, 626.348 445.903, 623.288 451.099 C 622.304 452.768, 619.190 455.456, 616.367 457.073 C 609.729 460.875, 609.003 461.844, 608.029 468.198 C 606.892 475.619, 603.552 483.813, 600.187 487.432 C 593.879 494.219, 593 496.003, 593 502.028 C 593 508.236, 593.650 509, 598.927 509 C 602.630 509, 604.621 506.554, 606.365 499.859 C 607.853 494.143, 611.340 486.500, 613.366 484.513 C 613.990 483.900, 617.023 481.543, 620.108 479.273 C 626.266 474.742, 630.771 469.511, 633.463 463.766 C 634.425 461.712, 636.741 459.087, 638.608 457.933 C 642.245 455.686, 643.013 453.801, 642.861 447.500 C 642.808 445.300, 643.101 441.363, 643.512 438.750 C 644.400 433.112, 642.835 432.388, 638.924 436.629" stroke="#81244d" fill="#81244d" fill-opacity="0.2" fill-rule="evenodd"/><path class="svg-region-SOTr" d="M 515.738 434.088 C 514.769 434.652, 512.866 437.305, 511.507 439.985 C 508.298 446.318, 507 447.059, 507 442.559 C 507 440.602, 506.639 439, 506.197 439 C 505.101 439, 501 451.971, 501 455.438 C 501 457.811, 501.327 458.148, 503.162 457.668 C 505.817 456.974, 509 458.549, 509 460.557 C 509 461.374, 510.102 462.545, 511.448 463.158 C 513.275 463.991, 513.972 465.187, 514.198 467.878 C 514.573 472.351, 516.288 472.815, 522.189 470.041 C 527.897 467.358, 530 463.720, 530 456.530 C 530 449.721, 528.974 447.535, 525.153 446.203 C 522.699 445.348, 522.051 444.326, 520.854 439.422 C 519.358 433.291, 518.553 432.452, 515.738 434.088" stroke="#995b45" fill="#995b45" fill-opacity="0.2" fill-rule="evenodd"/><path class="svg-region-BPCr" d="M 723 684.717 C 721.625 684.983, 720.194 685.695, 719.819 686.298 C 718.804 687.933, 694.795 687.886, 694.249 686.247 C 693.737 684.711, 679 684.471, 679 686 C 679 686.550, 678.349 687, 677.553 687 C 676.272 687, 674.295 687.965, 664 693.616 C 662.625 694.370, 660.087 694.990, 658.359 694.994 C 656.632 694.997, 653.342 695.840, 651.048 696.867 C 647.238 698.573, 647.077 698.788, 649.188 699.354 C 650.460 699.694, 653.750 699.984, 656.500 699.997 C 667.044 700.049, 668.662 700.740, 671.969 706.599 C 675.915 713.592, 678.701 715.403, 684.237 714.575 C 696.438 712.748, 696.463 712.749, 698.425 714.918 C 699.462 716.063, 700.845 717, 701.500 717 C 702.155 717, 703.547 717.952, 704.595 719.116 C 707.085 721.882, 715.987 726.979, 718.349 726.991 C 719.366 726.996, 721.616 727.646, 723.349 728.436 C 727.507 730.331, 733.879 731.987, 737.037 731.994 C 738.433 731.997, 745.633 734.688, 753.037 737.974 C 766.047 743.747, 766.789 743.949, 775.090 743.974 C 780.488 743.990, 786.586 743.257, 791.500 742 C 795.801 740.900, 801.125 740, 803.331 740 L 807.343 740 800.921 733.203 C 793.126 724.953, 786.350 720, 782.856 720 C 777.083 720, 771.252 716.109, 761.943 706.045 C 756.901 700.595, 751.736 694.604, 750.464 692.732 C 747.235 687.980, 743.300 685.506, 741.433 687.056 C 740.473 687.852, 739.587 687.919, 738.750 687.259 C 738.063 686.717, 735.700 685.987, 733.500 685.637 C 731.300 685.287, 728.600 684.828, 727.500 684.616 C 726.400 684.405, 724.375 684.450, 723 684.717" stroke="#83385f" fill="#83385f" fill-opacity="0.2" fill-rule="evenodd"/>
    </svg>