<svg xmlns="http://www.w3.org/2000/svg" width="1078" height="1151" viewBox="0 0 1078 1151" version="1.1">
    <path class="svg-region-V" d="M 465.500 196.112 C 462.750 197.261, 458.097 199.315, 455.160 200.676 C 452.223 202.037, 447.892 203.730, 445.536 204.439 C 439.852 206.150, 419.334 219.829, 414.363 225.222 C 412.194 227.575, 409.344 231.750, 408.029 234.500 C 406.714 237.250, 405.342 239.725, 404.981 240 C 404.620 240.275, 400.374 248.150, 395.545 257.500 C 390.717 266.850, 386.432 274.950, 386.024 275.500 C 385.615 276.050, 384.460 278.750, 383.456 281.500 C 382.452 284.250, 380.426 288.300, 378.953 290.500 C 377.479 292.700, 375.961 295.501, 375.577 296.725 C 374.704 299.514, 367.676 310.225, 363.302 315.430 C 361.486 317.591, 360 320.122, 360 321.053 C 360 323.258, 356.110 332.033, 354.353 333.790 C 352.068 336.075, 351.238 338.209, 348.476 348.907 C 346.516 356.497, 345.971 360.541, 346.396 364.346 C 346.713 367.181, 347.043 370.400, 347.128 371.500 C 347.467 375.850, 350.101 387.416, 351 388.500 C 351.525 389.132, 352.639 392.908, 353.477 396.891 C 354.315 400.873, 355.450 404.973, 356 406 C 356.550 407.028, 357 409.293, 357 411.033 C 357 413.204, 357.881 415.030, 359.807 416.849 C 361.350 418.307, 364.009 422.499, 365.715 426.166 C 367.420 429.832, 369.742 433.327, 370.874 433.933 C 373.463 435.318, 380.271 434.335, 385.205 431.862 C 387.617 430.653, 391.628 429.900, 396.705 429.703 C 406.416 429.325, 413.780 425.763, 418.418 419.199 C 424.145 411.094, 425.258 403.263, 422 394 C 420.936 390.975, 420.006 386.925, 419.933 385 C 419.860 383.075, 419.483 380.375, 419.095 379 C 418.633 377.363, 418.979 375.464, 420.098 373.500 C 421.037 371.850, 422.129 368.925, 422.523 367 C 422.917 365.075, 424.761 361.415, 426.620 358.866 C 428.479 356.317, 430 353.954, 430 353.614 C 430 353.273, 432.186 348.384, 434.857 342.747 C 437.528 337.111, 441.001 329.655, 442.575 326.177 C 444.149 322.700, 445.917 319.550, 446.504 319.177 C 447.091 318.805, 449.272 316.392, 451.351 313.817 C 453.431 311.241, 457.015 308.163, 459.316 306.977 C 461.617 305.791, 464.625 303.812, 466 302.578 C 467.375 301.345, 470.525 299.771, 473 299.081 C 475.475 298.392, 478.441 297.228, 479.590 296.495 C 483.654 293.906, 489.936 292.778, 493.346 294.025 C 495.081 294.660, 498.975 295.565, 502 296.037 C 513.485 297.829, 517.895 298.906, 521.705 300.849 C 527.084 303.594, 534.221 311.968, 539.441 321.661 C 544.992 331.967, 552.750 337, 563.086 337 C 571.939 337, 575.048 335.756, 577.676 331.164 C 578.873 329.073, 583.007 323.983, 586.864 319.853 C 590.720 315.724, 594.169 311.176, 594.528 309.746 C 594.886 308.317, 596.068 306.343, 597.154 305.361 C 598.239 304.379, 600.024 301.533, 601.120 299.037 C 602.549 295.783, 604.823 293.227, 609.162 290 C 612.488 287.525, 615.613 284.458, 616.105 283.185 C 617.258 280.202, 617.254 275.667, 616.097 274.450 C 615.600 273.927, 614.219 269.900, 613.028 265.500 C 611.836 261.100, 610.134 255.475, 609.244 253 C 607.615 248.466, 601.494 241.671, 594.222 236.321 C 592.175 234.815, 588.009 231.315, 584.964 228.542 C 569.163 214.152, 568.148 213.439, 552.500 205.748 C 549.750 204.396, 543.675 201.312, 539 198.895 L 530.500 194.500 500.500 194.261 C 472.033 194.034, 470.244 194.128, 465.500 196.112" stroke="#dd8a8a" fill="#dd8a8a" fill-opacity="0.2" fill-rule="evenodd"/><path class="svg-region-SV" d="M 485.500 293.938 C 483.850 294.342, 480.700 295.591, 478.500 296.714 C 476.300 297.837, 473.084 299.061, 471.354 299.435 C 469.623 299.808, 467.373 301.036, 466.354 302.165 C 465.334 303.293, 462.475 305.256, 460 306.526 C 453.976 309.618, 445.601 319.423, 441.883 327.734 C 435.965 340.967, 427.651 357.545, 425.452 360.500 C 424.224 362.150, 422.896 365.075, 422.502 367 C 422.107 368.925, 420.926 371.915, 419.876 373.644 C 418.362 376.139, 418.178 377.337, 418.984 379.459 C 419.543 380.928, 420 384.036, 420 386.365 C 420 388.694, 420.374 391.027, 420.831 391.550 C 422.160 393.068, 424.002 400.429, 423.976 404.116 C 423.963 405.977, 422.903 410.052, 421.620 413.171 L 419.288 418.842 421.394 419.407 C 422.552 419.718, 426.001 419.979, 429.059 419.986 C 432.379 419.995, 435.399 420.591, 436.559 421.468 C 437.626 422.276, 440.314 422.951, 442.532 422.968 C 444.750 422.986, 449.025 423.687, 452.032 424.526 C 455.039 425.365, 460.405 426.274, 463.956 426.545 C 467.506 426.817, 471.448 427.719, 472.716 428.549 C 474.911 429.988, 474.947 430.202, 473.480 433.039 C 470.973 437.886, 472.807 440, 479.518 440 C 484.623 440, 485.233 440.273, 489.232 444.344 C 491.580 446.733, 494.280 449.771, 495.233 451.094 C 496.187 452.417, 497.874 454.696, 498.983 456.158 C 500.093 457.619, 501.018 459.419, 501.041 460.158 C 501.103 462.210, 506.426 467.986, 507.528 467.196 C 511.149 464.603, 512.425 454.377, 509.250 453.396 C 505.537 452.249, 504.490 451.195, 504.199 448.314 C 503.843 444.787, 504.650 444.061, 512.293 441.030 C 518.080 438.735, 518.089 438.735, 520.293 440.718 C 524.094 444.137, 524.558 444.058, 524.177 440.060 C 523.873 436.867, 524.253 435.963, 526.659 434.161 C 530.271 431.457, 530.212 431.520, 535.141 425.098 C 539.827 418.993, 542.199 412.408, 541.856 406.459 C 541.559 401.296, 542.242 400.281, 546.851 399.040 C 549.712 398.270, 551.024 397.174, 552.309 394.479 C 553.239 392.528, 554 389.935, 554 388.716 C 554 387.497, 554.667 383.349, 555.483 379.500 C 557.486 370.040, 557.444 358.759, 555.390 354.787 C 553.043 350.249, 553.923 341.290, 556.957 338.834 C 558.347 337.708, 558.690 337, 557.846 337 C 555.746 337, 548.841 333.115, 545.669 330.148 C 544.112 328.691, 541.267 324.800, 539.346 321.500 C 528.808 303.389, 524.964 300.384, 508 297.001 C 504.975 296.397, 499.575 295.247, 496 294.444 C 492.425 293.640, 489.275 293.033, 489 293.094 C 488.725 293.155, 487.150 293.535, 485.500 293.938" stroke="#c666b5" fill="#c666b5" fill-opacity="0.2" fill-rule="evenodd"/><path class="svg-region-SF" d="M 617 278.453 C 617 282.569, 615.102 285.301, 608.978 290 C 604.874 293.149, 602.508 295.879, 601.096 299.095 C 599.986 301.623, 598.359 304.287, 597.481 305.016 C 596.603 305.745, 595.241 307.881, 594.455 309.763 C 593.668 311.645, 589.959 316.468, 586.211 320.481 C 578.023 329.249, 573.913 336.648, 569.975 349.708 C 566.590 360.936, 566.113 370.498, 568.485 379.604 C 570.640 387.878, 574.265 392.815, 582 398.012 C 583.925 399.306, 587.372 402.054, 589.659 404.119 C 596.891 410.648, 606.936 411.569, 614.551 406.401 C 616.574 405.028, 620.420 403.489, 623.097 402.982 C 635.471 400.635, 643.912 392.469, 649.436 377.500 C 650.451 374.750, 651.690 371.977, 652.190 371.338 C 652.690 370.699, 654.652 365.334, 656.550 359.416 C 659.510 350.186, 660 347.275, 660 338.930 C 660 330.056, 659.737 328.703, 657 323.500 C 655.350 320.363, 654 317.050, 654 316.137 C 654 315.224, 651.604 309.757, 648.676 303.988 C 637.846 282.652, 636.257 280.716, 628.653 279.575 C 626.184 279.205, 623.622 278.249, 622.959 277.451 C 622.297 276.653, 620.685 276, 619.378 276 C 617.520 276, 617 276.537, 617 278.453" stroke="#8c6b55" fill="#8c6b55" fill-opacity="0.2" fill-rule="evenodd"/><path class="svg-region-PF" d="M 564.586 336.985 C 555.781 337.878, 553.986 339.728, 554.032 347.861 C 554.051 351.226, 554.656 354.283, 555.532 355.441 C 556.479 356.694, 556.996 359.708, 556.990 363.941 C 556.978 371.106, 553.638 391.939, 552.014 394.973 C 550.543 397.723, 550.771 406.517, 552.416 410.454 C 553.196 412.319, 555.108 414.635, 556.666 415.602 C 558.225 416.569, 560.948 418.703, 562.718 420.345 C 567.772 425.033, 574.375 425.164, 584.004 420.765 C 590.836 417.645, 598 412.130, 598 409.990 C 598 409.520, 597.034 408.828, 595.854 408.454 C 594.674 408.079, 591.862 406.120, 589.604 404.101 C 587.347 402.081, 583.763 399.146, 581.640 397.579 C 574.521 392.325, 571.116 387.827, 569.008 380.892 C 565.855 370.517, 566.275 361.327, 570.493 348.451 C 573.684 338.710, 574.092 335.751, 572.191 336.142 C 571.811 336.220, 568.389 336.600, 564.586 336.985" stroke="#faaaaa" fill="#faaaaa" fill-opacity="0.2" fill-rule="evenodd"/><path class="svg-region-AAB" d="M 646.446 420.750 C 644.439 422.813, 641.975 426.105, 640.971 428.067 C 639.967 430.029, 638.443 432.217, 637.584 432.930 C 636.725 433.643, 636.272 434.632, 636.579 435.127 C 636.885 435.623, 634.249 440.184, 630.722 445.264 C 627.194 450.344, 620.578 459.900, 616.019 466.500 C 607.212 479.250, 586.192 507.585, 582.005 512.351 C 580.627 513.919, 576.663 517.433, 573.196 520.160 C 569.728 522.888, 566.628 525.880, 566.305 526.809 C 565.005 530.556, 556.558 537.986, 551.802 539.566 C 547.356 541.043, 543.996 544.018, 544.003 546.473 C 544.005 547.065, 547.288 547.610, 551.753 547.760 C 556.014 547.902, 561.675 548.739, 564.334 549.618 C 569.438 551.306, 578.687 551.107, 586.500 549.141 C 592.040 547.748, 607.074 542.161, 609.500 540.595 C 610.600 539.885, 615.775 537.700, 621 535.739 C 636.382 529.967, 639.280 528.445, 643.614 523.856 C 648.522 518.659, 658.998 503.648, 659.004 501.803 C 659.007 501.086, 660.355 498.475, 662 496 C 663.645 493.525, 664.993 490.753, 664.996 489.839 C 664.998 488.925, 665.896 485.775, 666.992 482.839 C 669.922 474.983, 672.749 457.317, 671.846 452.500 C 671.433 450.300, 670.601 445.597, 669.997 442.048 C 668.653 434.166, 662.847 422.748, 658.494 419.427 C 653.934 415.949, 650.782 416.295, 646.446 420.750 M 614.964 455.164 C 613.819 457.397, 613.846 457.424, 615.574 455.774 C 616.568 454.824, 617.107 453.773, 616.771 453.438 C 616.436 453.103, 615.623 453.880, 614.964 455.164" stroke="#7f3c1a" fill="#7f3c1a" fill-opacity="0.2" fill-rule="evenodd"/><path class="svg-region-APB" d="M 628 401.563 C 626.075 402.291, 623.481 402.913, 622.235 402.944 C 620.989 402.975, 617.418 404.440, 614.298 406.201 C 609.969 408.644, 607.379 409.413, 603.350 409.451 C 598.885 409.492, 597.882 409.856, 596.833 411.814 C 595.095 415.059, 586.999 420.781, 581.492 422.658 C 573.162 425.496, 559.533 439.996, 554.543 451.329 C 553.291 454.173, 551.082 461.571, 549.633 467.769 C 546.142 482.710, 545.839 503.925, 548.999 512.239 C 550.099 515.133, 550.999 519.892, 550.999 522.815 C 551 527.784, 554.304 538, 555.911 538 C 556.958 538, 565.713 528.665, 566.207 527.022 C 566.452 526.209, 569.993 522.801, 574.076 519.448 C 581.540 513.320, 583.299 511.311, 596.201 494.163 C 601.362 487.305, 602.931 484.531, 602.113 483.713 C 600.552 482.152, 600.725 476.418, 602.384 474.759 C 603.145 473.997, 604.672 471.603, 605.778 469.437 C 606.883 467.272, 608.751 464.628, 609.930 463.562 C 611.108 462.496, 612.894 459.796, 613.899 457.562 C 616.240 452.355, 626.637 441, 629.064 441 C 630.085 441, 631.366 440.438, 631.910 439.750 C 632.454 439.063, 634.391 436.700, 636.214 434.500 C 638.037 432.300, 641.234 427.957, 643.318 424.849 C 646.858 419.569, 649.629 417.570, 654.478 416.797 C 656.017 416.551, 654.574 414.910, 647.978 409.405 C 635.820 399.258, 634.972 398.925, 628 401.563" stroke="#ac7444" fill="#ac7444" fill-opacity="0.2" fill-rule="evenodd"/><path class="svg-region-PC" d="M 546.686 399.017 C 542.207 400.361, 541.409 401.536, 541.691 406.364 C 541.835 408.825, 541.361 412.806, 540.637 415.211 C 539.174 420.072, 531.547 430.480, 526.966 433.867 C 524.686 435.552, 524 436.849, 524 439.471 C 524 441.347, 524.461 443.167, 525.023 443.514 C 526.585 444.479, 531.955 456.868, 532.623 461.046 C 533.353 465.610, 530.912 471.214, 526.972 474.020 C 523.738 476.323, 517.670 476.577, 514.030 474.562 C 511.652 473.245, 511.460 473.368, 508.903 477.847 C 506.670 481.757, 506.326 483.339, 506.750 487.750 C 507.033 490.695, 507.752 493, 508.387 493 C 510.831 493, 513.826 500.848, 515.978 512.888 C 516.507 515.852, 517.556 519.002, 518.309 519.888 C 519.062 520.775, 520.204 525.100, 520.846 529.500 C 522.466 540.603, 522.369 543, 520.300 543 C 517.489 543, 520.140 544.613, 525 545.860 C 527.475 546.495, 532.633 547.124, 536.461 547.257 C 543.208 547.493, 543.465 547.413, 544.802 544.676 C 545.669 542.900, 547.855 541.134, 550.694 539.917 C 554.298 538.372, 555.058 537.631, 554.469 536.241 C 551.890 530.163, 551.083 526.924, 551.043 522.500 C 551.019 519.750, 550.099 515.133, 548.999 512.239 C 547.349 507.896, 547 504.557, 547 493.093 C 547 481.206, 547.414 477.502, 549.879 467.354 C 554.422 448.649, 558.617 441.125, 570.778 429.866 L 576.859 424.236 571.617 423.801 C 567.042 423.422, 565.535 422.675, 559.783 417.933 C 552.668 412.068, 551 409.108, 551 402.351 C 551 399.958, 550.663 398.039, 550.250 398.086 C 549.837 398.133, 548.234 398.552, 546.686 399.017 M 581 422 C 580.175 422.533, 579.950 422.969, 580.500 422.969 C 581.050 422.969, 582.175 422.533, 583 422 C 583.825 421.467, 584.050 421.031, 583.500 421.031 C 582.950 421.031, 581.825 421.467, 581 422" stroke="#cda789" fill="#cda789" fill-opacity="0.2" fill-rule="evenodd"/><path class="svg-region-DB" d="M 416.578 421.522 C 413.866 425.661, 404.405 429.475, 396.349 429.678 C 391.561 429.799, 387.926 430.499, 385.349 431.798 C 383.232 432.864, 379.358 434.050, 376.739 434.432 C 372.396 435.065, 371.981 435.362, 372.019 437.813 C 372.041 439.291, 371.778 441.912, 371.433 443.637 C 370.490 448.357, 373.082 451.342, 381.665 455.418 L 389.208 459 404.045 459 C 412.858 459, 419.133 458.594, 419.500 458 C 420.259 456.771, 425.678 456.670, 426.420 457.871 C 426.716 458.350, 428.363 459.023, 430.079 459.366 C 435.655 460.481, 446.084 470.332, 461.081 488.648 C 466.551 495.330, 471.696 501.053, 472.513 501.367 C 473.331 501.681, 474.032 502.514, 474.072 503.219 C 474.292 507.128, 488 513.587, 488 509.781 C 488 505.394, 496.121 497.282, 503.863 493.935 C 507.099 492.535, 507.169 492.376, 506.705 487.500 C 506.324 483.488, 506.696 481.701, 508.589 478.455 C 510.896 474.503, 510.910 474.328, 509.225 470.738 C 508.276 468.718, 506.938 467.050, 506.250 467.033 C 505.563 467.015, 505 466.341, 505 465.535 C 505 464.730, 504.100 463.589, 503 463 C 501.900 462.411, 501 461.229, 501 460.373 C 501 459.516, 500.093 457.619, 498.983 456.158 C 497.874 454.696, 496.187 452.417, 495.233 451.094 C 494.280 449.771, 491.580 446.733, 489.232 444.344 C 485.233 440.273, 484.623 440, 479.518 440 C 472.851 440, 470.975 437.883, 473.433 433.130 C 474.785 430.515, 474.764 430.097, 473.213 428.698 C 472.206 427.790, 468.822 426.946, 465 426.650 C 461.425 426.373, 455.818 425.438, 452.540 424.573 C 449.262 423.708, 444.797 423, 442.619 423 C 440.440 423, 437.947 422.382, 437.079 421.626 C 436.123 420.794, 432.066 420.050, 426.791 419.739 C 418.533 419.253, 418.004 419.345, 416.578 421.522" stroke="#e8b1e4" fill="#e8b1e4" fill-opacity="0.2" fill-rule="evenodd"/><path class="svg-region-MB" d="M 377 457.162 C 377 458.935, 378.278 462.341, 379.907 464.912 C 381.505 467.436, 383.602 472.425, 384.565 476 C 385.529 479.575, 387.321 484.300, 388.548 486.500 C 389.774 488.700, 391.343 492.300, 392.034 494.500 C 392.725 496.700, 393.608 498.725, 393.997 499 C 394.385 499.275, 397.067 504.085, 399.955 509.689 C 402.844 515.293, 406.107 520.692, 407.206 521.687 C 408.305 522.681, 409.865 524.772, 410.672 526.333 C 411.782 528.480, 415.103 530.609, 424.320 535.081 C 431.019 538.331, 437.049 540.993, 437.720 540.995 C 438.391 540.998, 439.938 542.350, 441.158 544 C 442.378 545.650, 444.221 547, 445.254 547 C 448.413 547, 451 548.951, 451 551.335 C 451 554.388, 452.814 556, 456.250 556 C 459.341 556, 465 553.475, 465 552.096 C 465 550.058, 471.770 549.127, 490.365 548.608 C 503.076 548.254, 510.729 547.640, 511.615 546.905 C 513.973 544.948, 513.320 541.297, 510.485 540.586 C 509.101 540.238, 507.189 539.311, 506.235 538.524 C 505.281 537.738, 501.350 534.541, 497.500 531.420 C 488.739 524.319, 487.015 521.762, 487.007 515.861 C 487 511.398, 486.874 511.199, 483.667 510.597 C 480.003 509.910, 469.495 499.367, 457.657 484.500 C 446.204 470.118, 435.597 460.390, 430.279 459.393 C 428.464 459.052, 426.731 458.374, 426.430 457.887 C 425.679 456.671, 419.264 456.763, 418.500 458 C 418.134 458.592, 411.979 459, 403.408 459 C 389.951 459, 388.587 458.824, 384 456.500 C 377.657 453.286, 377 453.348, 377 457.162" stroke="#f9c6c6" fill="#f9c6c6" fill-opacity="0.2" fill-rule="evenodd"/><path class="svg-region-AP" d="M 557.500 596 C 557.160 596.550, 557.215 597.539, 557.622 598.197 C 558.029 598.856, 558.455 617.193, 558.568 638.947 C 558.769 677.505, 558.833 678.663, 561.092 685 C 563.128 690.709, 563.428 693.509, 563.555 708 C 563.635 717.075, 564.172 726.300, 564.749 728.500 C 565.326 730.700, 566.297 734.944, 566.907 737.930 C 567.518 740.917, 568.688 744.103, 569.508 745.009 C 570.329 745.916, 571.006 747.072, 571.012 747.579 C 571.019 748.085, 572.707 750.356, 574.762 752.624 C 576.818 754.893, 580.075 758.827, 582 761.368 C 583.925 763.909, 587.193 767.760, 589.262 769.927 C 591.331 772.094, 593.299 775.247, 593.637 776.933 C 594.333 780.417, 595.564 780.667, 601.500 778.529 C 606.752 776.637, 614.294 776.650, 620.500 778.562 C 628.421 781.002, 654.045 780.588, 657.500 777.965 C 658.050 777.547, 663.450 776.910, 669.500 776.549 C 680.607 775.886, 690.502 773.538, 703.770 768.419 C 707.218 767.089, 710.876 766, 711.898 766 C 712.920 766, 715.475 765.282, 717.576 764.404 C 721.365 762.821, 721.379 762.794, 719.288 761.154 C 717.996 760.141, 716.547 756.985, 715.550 753.014 C 714.653 749.446, 713.342 745.621, 712.635 744.514 C 711.928 743.406, 710.792 740.250, 710.111 737.500 C 707.525 727.050, 706.482 724.196, 701.379 713.613 C 696.948 704.422, 696.343 702.514, 697.494 701.363 C 698.244 700.613, 699.452 699.982, 700.179 699.961 C 702.524 699.891, 694.856 697, 692.326 697 C 690.855 697, 690.143 696.577, 690.539 695.937 C 690.900 695.352, 690.433 694.031, 689.500 693 C 686.917 690.146, 688.519 689, 695.091 689 C 698.376 689, 702.677 688.326, 704.649 687.502 L 708.233 686.005 703.439 682.752 C 697.164 678.495, 694.128 671.114, 694.052 659.932 C 693.982 649.796, 691.071 638.984, 687.235 634.614 C 685.583 632.733, 684.067 630.704, 683.866 630.105 C 683.638 629.429, 681.639 629.959, 678.581 631.508 C 671.987 634.848, 669.606 634.661, 663.286 630.308 C 658.534 627.035, 654.641 625.166, 648.701 623.305 C 647.711 622.995, 645.162 623.525, 643.036 624.484 C 639.062 626.276, 635.265 626.200, 627.609 624.176 C 622.532 622.834, 620.935 621.111, 619.994 615.966 C 619.219 611.729, 621.216 604.730, 624.685 599.527 C 627.727 594.965, 627.979 595, 592.059 595 C 570.510 595, 557.892 595.365, 557.500 596" stroke="#fc7143" fill="#fc7143" fill-opacity="0.2" fill-rule="evenodd"/><path class="svg-region-PP" d="M 492 595.144 C 489.525 595.499, 484.125 596.259, 480 596.833 C 467.839 598.528, 461.940 600.933, 452.939 607.866 C 451.531 608.951, 448.763 610.141, 446.788 610.512 C 444.744 610.895, 441.969 612.473, 440.348 614.173 C 436.521 618.187, 428.218 622, 423.303 622 C 418.376 622, 413 620.222, 413 618.593 C 413 617.927, 412.363 616.512, 411.585 615.448 C 410.215 613.573, 410.102 613.601, 407.928 616.364 C 406.695 617.932, 404.772 620.066, 403.654 621.107 C 401.530 623.087, 396.497 623.601, 394.100 622.083 C 393.208 621.518, 391.494 621.796, 389.375 622.848 C 385.763 624.642, 385.594 625.387, 386.963 633.500 C 387.452 636.400, 387.427 638.899, 386.903 639.450 C 384.551 641.924, 387.127 651.540, 393.480 664 C 394.741 666.475, 396.345 672.315, 397.043 676.977 C 397.741 681.640, 398.917 686.060, 399.656 686.799 C 400.395 687.538, 401 689.888, 401 692.021 C 401 694.638, 401.939 697.298, 403.889 700.200 C 405.477 702.565, 407.777 706.638, 408.999 709.250 C 410.221 711.862, 411.630 714, 412.132 714 C 412.633 714, 413.522 715.051, 414.107 716.335 C 414.692 717.619, 416.370 719.397, 417.835 720.287 C 421.084 722.260, 425.646 726.560, 429 730.812 C 430.375 732.556, 431.725 733.986, 432 733.992 C 432.275 733.997, 436.613 737.939, 441.641 742.751 C 454.167 754.740, 457.815 757.998, 458.723 758.010 C 459.151 758.015, 461.334 759.478, 463.576 761.260 C 465.818 763.042, 469.418 765.344, 471.576 766.376 C 473.734 767.408, 476.625 768.854, 478 769.590 C 491.037 776.566, 498.361 778.647, 501.846 776.364 C 504.097 774.890, 504.164 774.496, 503.494 766.664 C 503.015 761.057, 501.888 756.411, 499.898 751.832 C 496.760 744.612, 495.921 735.139, 498.250 733.209 C 499.321 732.322, 507.380 731.389, 518.500 730.867 C 520.150 730.789, 527.125 731.264, 534 731.923 C 546.067 733.078, 546.876 733.306, 557.349 738.496 L 568.199 743.872 567.534 740.186 C 567.169 738.159, 565.979 732.900, 564.889 728.500 C 563.228 721.791, 563.010 718.563, 563.534 708.500 C 564.110 697.456, 563.944 695.703, 561.441 686.500 C 558.727 676.518, 558.722 676.431, 558.519 638.500 C 558.408 617.600, 557.971 599.263, 557.550 597.750 C 556.659 594.553, 559.926 594.836, 521.500 594.632 C 507.750 594.560, 494.475 594.790, 492 595.144" stroke="#c4743d" fill="#c4743d" fill-opacity="0.2" fill-rule="evenodd"/><path class="svg-region-LPr" d="M 624.775 598.804 C 620.985 605.220, 619.036 612.343, 619.962 616.391 C 621.073 621.244, 622.670 622.870, 627.609 624.176 C 635.257 626.198, 639.063 626.275, 643.022 624.490 C 646.698 622.832, 647.115 622.837, 652.187 624.593 C 655.109 625.605, 659.075 627.620, 661 629.072 C 665.868 632.742, 668.481 634, 671.238 634 C 673.968 634, 684 629.248, 684 627.955 C 684 627.479, 685.163 625.381, 686.584 623.294 C 688.561 620.391, 689.040 618.704, 688.624 616.109 C 688.325 614.245, 688.537 611.865, 689.095 610.822 C 689.654 609.778, 689.831 608.041, 689.488 606.962 C 688.971 605.335, 687.953 605, 683.514 605 C 680.570 605, 676.888 604.355, 675.331 603.567 C 671.471 601.613, 663.328 600.182, 652.124 599.489 C 646.968 599.170, 640.236 598.255, 637.164 597.455 C 628.894 595.300, 626.704 595.539, 624.775 598.804" stroke="#d2454f" fill="#d2454f" fill-opacity="0.2" fill-rule="evenodd"/><path class="svg-region-ADCr" d="M 716.583 603.750 C 716.171 604.163, 711.258 604.546, 705.667 604.601 C 700.075 604.657, 694.531 605.011, 693.346 605.388 C 690.387 606.330, 687.848 611.991, 688.631 615.903 C 689.107 618.286, 688.636 619.952, 686.627 622.988 C 682.939 628.560, 683.241 630.920, 688.344 636.426 C 691.343 639.662, 694 650.755, 694 660.040 C 694 669.373, 697.051 678.192, 701.410 681.457 C 709.249 687.329, 712.314 688.155, 724.326 687.634 C 730.472 687.368, 737.525 686.856, 740 686.496 C 743.789 685.946, 745.076 686.234, 748.143 688.319 C 752.506 691.284, 757.521 692.583, 758.499 691.002 C 759.585 689.245, 758.264 685.537, 755.606 682.878 C 752.290 679.563, 749.001 669.316, 748.994 662.282 C 748.988 655.142, 747.526 649.668, 744.396 645.062 C 743.078 643.123, 742 640.689, 742 639.654 C 742 634.596, 727.361 616, 723.379 616 C 721.046 616, 720.855 614, 722.935 611.355 C 725.837 607.667, 725.522 606.116, 721.532 604.449 C 717.498 602.763, 717.561 602.772, 716.583 603.750" stroke="#54413e" fill="#54413e" fill-opacity="0.2" fill-rule="evenodd"/><path class="svg-region-AVCr" d="M 697.261 701.484 C 696.255 702.628, 697.046 705.007, 701.488 714.196 C 704.494 720.413, 708.045 729.550, 709.379 734.500 C 710.713 739.450, 712.730 745.750, 713.861 748.500 C 714.993 751.250, 716.165 755.098, 716.467 757.052 C 716.916 759.953, 717.624 760.824, 720.329 761.802 C 724.634 763.359, 725.997 763.312, 727.951 761.544 C 729.548 760.099, 773.152 746.834, 784.750 744.265 C 785.987 743.991, 787 743.439, 787 743.038 C 787 741.913, 783.488 739, 782.131 739 C 781.465 739, 779.251 738.163, 777.210 737.139 C 775.170 736.116, 771.614 735.037, 769.309 734.742 C 765.351 734.236, 759.606 730.456, 751.040 722.721 C 741.811 714.390, 739.540 713.021, 734.917 713.011 C 732.396 713.005, 730.025 712.692, 729.648 712.315 C 728.555 711.221, 721.705 709.032, 719.327 709.015 C 718.131 709.007, 715.131 707.456, 712.660 705.570 C 708.715 702.559, 702.494 699.946, 699.500 700.044 C 698.950 700.061, 697.943 700.709, 697.261 701.484" stroke="#ffbab9" fill="#ffbab9" fill-opacity="0.2" fill-rule="evenodd"/><path class="svg-region-VMr" d="M 514.690 731.217 C 512.985 732.483, 513.058 732.721, 515.940 735.289 C 518.621 737.678, 519 738.667, 519 743.285 C 519 750.265, 520.554 752.219, 529.809 756.880 C 534.039 759.010, 540.200 762.271, 543.500 764.126 C 546.800 765.982, 550.799 768.172, 552.386 768.992 C 553.974 769.813, 555.705 771.725, 556.234 773.242 C 556.763 774.759, 557.602 776, 558.098 776 C 558.594 776, 559 776.689, 559 777.531 C 559 778.374, 559.658 779.315, 560.462 779.624 C 561.266 779.932, 562.176 780.979, 562.484 781.951 C 563.211 784.240, 569.410 786.926, 574.500 787.157 C 577.469 787.292, 580.304 786.358, 585.500 783.534 C 589.350 781.441, 592.902 779.364, 593.394 778.920 C 594.837 777.616, 592.310 772.829, 587.393 767.549 C 584.896 764.868, 581.659 761.060, 580.199 759.087 C 578.740 757.114, 576.302 754.182, 574.783 752.571 C 573.264 750.960, 571.767 748.841, 571.457 747.863 C 570.846 745.941, 559.586 738.830, 551.500 735.261 C 548.022 733.726, 542.846 732.731, 534.500 731.994 C 527.900 731.411, 521.150 730.696, 519.500 730.404 C 517.753 730.095, 515.744 730.435, 514.690 731.217" stroke="#e59376" fill="#e59376" fill-opacity="0.2" fill-rule="evenodd"/><path class="svg-region-PMr" d="M 258.015 714.544 C 255.549 715.895, 252.513 717, 251.268 717 C 247.395 717, 241.039 723.803, 237.351 731.897 C 232.886 741.694, 233.377 743.449, 240.355 742.630 C 243.185 742.298, 248.753 741.731, 252.728 741.371 C 258.549 740.842, 260.071 740.353, 260.546 738.856 C 261.224 736.720, 264.186 734.923, 268.490 734.037 C 272.150 733.284, 274.116 729.017, 272.210 725.965 C 271.545 724.899, 271 722.221, 271 720.014 C 271 715.410, 268.306 711.974, 264.750 712.044 C 263.512 712.069, 260.482 713.194, 258.015 714.544" stroke="#90cf92" fill="#90cf92" fill-opacity="0.2" fill-rule="evenodd"/><path class="svg-region-PV" d="M 321.500 594.948 L 310.500 595.500 309.998 601.809 C 309.583 607.022, 309.066 608.441, 307.024 609.982 C 304.554 611.845, 304.550 611.844, 301.163 608.356 C 297.792 604.885, 297.735 604.869, 291.136 605.503 C 287.486 605.854, 283.150 606.745, 281.500 607.483 C 279.850 608.221, 276.612 609.378, 274.304 610.055 C 270.828 611.073, 269.507 612.245, 266.598 616.892 C 262.483 623.464, 256.813 629.607, 254.054 630.483 C 252.352 631.023, 252.176 631.757, 252.658 636.301 C 252.961 639.160, 253.800 643.593, 254.521 646.152 C 256.130 651.854, 255.345 655.797, 251.266 662.500 C 249.593 665.250, 247.898 668.625, 247.499 670 C 246.547 673.290, 242.482 677.558, 238.883 679.049 C 237.297 679.705, 236.029 680.751, 236.064 681.371 C 236.282 685.204, 238.770 693.881, 240.250 695.973 C 242.949 699.785, 242.442 703.500, 238.644 707.747 C 235.384 711.393, 235.334 711.578, 236.894 714.213 C 237.777 715.705, 239.738 717.875, 241.250 719.035 L 244 721.145 246.635 719.073 C 248.084 717.933, 250.222 716.996, 251.385 716.991 C 252.548 716.986, 255.750 715.875, 258.500 714.522 C 264.615 711.514, 266.424 711.424, 269 714 C 270.400 715.400, 271 717.333, 271 720.441 C 271 722.884, 271.450 725.160, 272 725.500 C 273.403 726.367, 273.247 730.349, 271.750 731.871 C 270.096 733.553, 273.842 736.729, 278.321 737.442 C 287.607 738.920, 302.998 741.237, 306.500 741.685 C 308.700 741.966, 313.296 743.556, 316.714 745.218 C 322.205 747.887, 323.566 748.160, 328.402 747.556 C 332.688 747.020, 334.430 747.236, 336.437 748.551 C 337.847 749.474, 339 750.749, 339 751.383 C 339 752.017, 340.170 754.257, 341.599 756.361 C 343.917 759.772, 344.539 760.122, 347.349 759.599 C 349.467 759.205, 351.465 759.598, 353.441 760.798 C 356.258 762.507, 356.386 762.899, 356.472 770.042 C 356.538 775.498, 356.168 777.801, 355.096 778.622 C 353.910 779.530, 351.539 792.804, 352.400 793.720 C 352.514 793.841, 354.158 793.076, 356.054 792.020 C 357.949 790.963, 361.975 788.877, 365 787.383 C 368.025 785.888, 371.892 783.616, 373.594 782.333 C 375.296 781.050, 377.241 780, 377.916 780 C 378.591 780, 379.724 779.438, 380.434 778.750 C 381.144 778.063, 384.335 775.250, 387.525 772.500 C 395.286 765.809, 405 751.039, 405 745.929 C 405 743.620, 406.509 739.165, 409 734.121 C 411.200 729.666, 413 725.441, 413 724.733 C 413 724.025, 413.666 722.495, 414.479 721.334 C 415.839 719.391, 415.712 718.912, 412.889 715.361 C 411.200 713.237, 409.193 710.003, 408.428 708.173 C 407.663 706.343, 405.725 702.901, 404.120 700.523 C 402.516 698.146, 400.880 694.730, 400.485 692.932 C 399.526 688.567, 391.575 675.240, 388.474 672.801 C 387.113 671.731, 386 669.911, 386 668.757 C 386 667.603, 384.596 663.614, 382.881 659.892 C 380.210 654.099, 379.913 652.689, 380.815 650.102 C 381.646 647.716, 381.441 645.570, 379.841 639.916 C 378.644 635.684, 378.082 631.678, 378.470 630.126 C 380.269 622.918, 381.345 614.829, 381.318 608.705 C 381.292 602.609, 380.994 601.603, 378.422 598.919 C 374.639 594.970, 372.398 594.538, 365.745 596.472 C 360.451 598.011, 359.909 597.991, 354.128 596.043 C 347.789 593.908, 344.447 593.795, 321.500 594.948" stroke="#b09658" fill="#b09658" fill-opacity="0.2" fill-rule="evenodd"/><path class="svg-region-Fr" d="M 292.280 593.120 C 291.162 594.238, 289.760 594.617, 276.357 597.421 C 272.428 598.243, 267.511 600.071, 265.430 601.483 C 263.349 602.895, 260.488 604.322, 259.073 604.654 C 255.864 605.407, 249 609.117, 249 610.098 C 249 610.500, 246.863 612.196, 244.250 613.866 C 235.810 619.264, 235.581 619.546, 236.632 623.222 C 237.360 625.769, 238.230 626.616, 240.535 627.021 C 242.166 627.308, 245.140 628.381, 247.144 629.406 C 253.651 632.733, 258.142 629.937, 266.194 617.547 C 270.014 611.667, 273.788 609, 278.286 609 C 279.417 609, 281.053 608.381, 281.921 607.624 C 282.790 606.868, 286.713 605.945, 290.640 605.575 L 297.780 604.901 301.140 608.422 L 304.500 611.944 306.971 610.051 C 309.026 608.477, 309.535 607.038, 310 601.500 L 310.559 594.842 307.157 593.421 C 303.104 591.728, 293.860 591.540, 292.280 593.120" stroke="#5ca7a9" fill="#5ca7a9" fill-opacity="0.2" fill-rule="evenodd"/><path class="svg-region-DV" d="M 220.971 618.282 C 217.203 624.567, 215.301 630.950, 216.902 631.940 C 217.602 632.372, 218.023 633.773, 217.837 635.052 C 217.582 636.813, 216.355 637.772, 212.785 639.002 C 204.680 641.795, 201.360 646.322, 198.557 658.411 C 196.742 666.236, 196.456 687.588, 198.045 696.583 C 200.636 711.243, 201.207 713.883, 203.113 720 C 205.094 726.360, 205.258 733.990, 203.808 752.407 C 203.636 754.589, 203.979 756.477, 204.584 756.685 C 206.553 757.359, 217.611 742.786, 218.285 738.629 C 219.106 733.573, 220.493 732.105, 225.152 731.360 C 230.164 730.558, 230.789 729.408, 227.584 726.887 C 224.537 724.491, 224.202 722, 226.927 722 C 229.055 722, 233 717.595, 233 715.219 C 233 714.388, 235.025 711.543, 237.500 708.897 C 242.544 703.504, 243.156 700.408, 240.151 695.480 C 239.138 693.819, 237.984 690.669, 237.586 688.480 C 237.189 686.291, 236.620 683.487, 236.323 682.250 C 235.955 680.715, 236.237 680, 237.212 680 C 239.770 680, 246.466 673.367, 247.894 669.417 C 248.660 667.297, 250.525 663.524, 252.038 661.031 C 255.792 654.846, 256.402 651.187, 254.561 645.900 C 253.719 643.480, 253.023 639.849, 253.015 637.832 C 252.996 633.280, 252.166 631, 250.528 631 C 249.836 631, 248.126 630.100, 246.727 629 C 245.329 627.900, 242.823 627, 241.160 627 C 239.013 627, 237.950 626.419, 237.500 625 C 237.151 623.900, 236.426 623, 235.890 623 C 235.353 623, 232.749 620.975, 230.103 618.500 C 227.457 616.025, 224.889 614.014, 224.396 614.032 C 223.903 614.049, 222.362 615.961, 220.971 618.282" stroke="#45567a" fill="#45567a" fill-opacity="0.2" fill-rule="evenodd"/><path class="svg-region-VV" d="M 265.682 734.651 C 265.324 735.009, 265.748 735.826, 266.623 736.466 C 268.047 737.508, 267.892 738.272, 265.145 743.714 C 261.763 750.413, 258.764 753.267, 253.188 755.095 C 251.159 755.759, 248.600 756.861, 247.500 757.543 C 246.400 758.225, 243.399 759.079, 240.832 759.441 C 236.077 760.110, 233.310 762.075, 234.473 763.956 C 234.828 764.530, 236.048 765, 237.184 765 C 239.717 765, 251 769.963, 251 771.078 C 251 771.521, 253.709 773.327, 257.020 775.091 C 261.164 777.300, 265.502 780.991, 270.943 786.938 C 278.293 794.970, 279.434 795.805, 287.208 798.828 C 294.865 801.807, 296.617 802.098, 308.034 802.290 C 321.682 802.520, 337.595 800.585, 340.079 798.393 C 340.947 797.627, 342.650 797, 343.864 797 C 346.075 797, 350.856 794.443, 352.235 792.523 C 352.639 791.960, 352.976 789.116, 352.985 786.202 C 352.997 781.807, 353.438 780.498, 355.572 778.521 C 357.799 776.457, 357.984 775.840, 356.957 773.919 C 356.259 772.615, 356.008 769.956, 356.349 767.473 C 357.123 761.826, 354.678 759.434, 348.383 759.678 C 344.343 759.834, 343.759 759.539, 341.485 756.192 C 340.118 754.181, 339 752.020, 339 751.390 C 339 748.794, 335.566 747.499, 328.595 747.467 C 322.961 747.440, 320.348 746.874, 315.904 744.717 C 312.825 743.223, 308.917 742, 307.219 742 C 305.520 742, 302.950 741.551, 301.507 741.002 C 300.063 740.454, 294.522 739.506, 289.191 738.897 C 283.861 738.288, 277.530 736.937, 275.123 735.895 C 270.681 733.972, 266.864 733.469, 265.682 734.651" stroke="#7699d1" fill="#7699d1" fill-opacity="0.2" fill-rule="evenodd"/><path class="svg-region-B" d="M 835.807 505.837 C 835.088 506.848, 833.167 508.310, 831.537 509.087 C 829.908 509.864, 827.570 512.075, 826.343 514 C 822.182 520.527, 813.819 527.784, 808 529.918 C 804.975 531.027, 800.025 533.483, 797 535.374 C 782.936 544.168, 782.824 544.224, 781.700 543.100 C 780.326 541.726, 777 541.655, 777 543 C 777 543.550, 775.722 544, 774.161 544 C 770.702 544, 769 547.099, 769 553.397 C 769 558.065, 766.880 561.621, 757.906 572 C 753.593 576.989, 746 590.760, 746 593.595 C 746 594.228, 745.050 596.894, 743.888 599.520 C 742.152 603.445, 741.907 605.289, 742.510 609.897 C 743.452 617.094, 743.447 627.933, 742.497 635.262 C 741.832 640.396, 742.017 641.432, 744.195 644.762 C 747.788 650.254, 748.149 651.574, 748.918 662 C 749.811 674.114, 752.716 680.806, 760.141 687.845 C 774.436 701.399, 777.426 703.888, 782.488 706.450 C 785.691 708.070, 791.357 709.735, 796.220 710.485 C 800.774 711.188, 806.975 712.876, 810 714.236 C 813.025 715.597, 819.270 717.956, 823.879 719.480 C 831.004 721.836, 833.221 722.151, 838.699 721.590 C 848.698 720.565, 862.280 714.920, 874.011 706.912 C 877.163 704.761, 880.045 703, 880.414 703 C 880.784 703, 883.429 701.261, 886.293 699.136 C 889.157 697.011, 894.295 693.808, 897.711 692.018 C 905.115 688.138, 913.726 679.448, 917.451 672.097 C 920.687 665.710, 923 654.345, 923 644.825 C 923 637.967, 923.060 637.804, 926 636.694 C 927.650 636.071, 929 635.022, 929 634.363 C 929 632.091, 927.783 630, 926.460 630 C 925.731 630, 924.846 629.091, 924.494 627.980 C 924.141 626.869, 922.324 623.958, 920.456 621.510 C 915.182 614.601, 911 605.576, 911 601.105 C 911 598.389, 910.247 596.259, 908.591 594.290 C 906.812 592.177, 906.427 590.988, 907.121 589.748 C 908.196 587.828, 906.425 584.276, 904.002 583.491 C 902.328 582.950, 899 577.602, 899 575.454 C 899 574.692, 900.350 571.941, 902 569.339 C 905.331 564.086, 905.767 560.910, 903.471 558.614 C 901.831 556.974, 900.425 557.257, 895.309 560.257 C 891.599 562.432, 885.097 562.285, 883.948 560 C 883.533 559.175, 881.771 555.460, 880.032 551.745 L 876.870 544.991 878.888 542.157 C 879.998 540.598, 881.603 538.745, 882.453 538.039 C 884.972 535.949, 884.031 520, 881.390 520 C 880.654 520, 879.364 518.670, 878.523 517.045 C 876.745 513.605, 871.363 512.058, 867.423 513.853 C 865.514 514.723, 865 515.718, 865 518.548 C 865 522.032, 860.012 531, 858.074 531 C 856.562 531, 855.244 528.568, 853.468 522.500 C 852.243 518.315, 850.614 515.441, 848.086 513 C 846.092 511.075, 843.672 508.262, 842.707 506.750 C 840.686 503.579, 837.694 503.183, 835.807 505.837" stroke="#e23b33" fill="#e23b33" fill-opacity="0.2" fill-rule="evenodd"/><path class="svg-region-Or" d="M 710.500 308.801 C 707.875 309.329, 698 316.912, 698 318.399 C 698 319.035, 697.100 320.326, 696 321.268 C 694.900 322.210, 694 323.795, 694 324.790 C 694 325.786, 693.597 327.028, 693.105 327.550 C 692.271 328.435, 691.963 330.886, 690.347 349.500 C 689.738 356.516, 691.657 378.622, 693.038 380.500 C 693.443 381.050, 694.103 383.525, 694.505 386 C 694.907 388.475, 695.858 391.715, 696.618 393.200 C 697.378 394.686, 698 396.843, 698 397.995 C 698 399.250, 700.573 402.612, 704.417 406.382 C 709.636 411.499, 711.913 412.981, 716.612 414.318 C 722.303 415.937, 722.465 415.925, 727.445 413.558 C 731.339 411.708, 733.069 410.104, 734.979 406.578 C 736.343 404.060, 737.769 402, 738.149 402 C 738.529 402, 739.575 399.785, 740.474 397.077 C 741.374 394.369, 742.760 391.614, 743.555 390.955 C 744.350 390.295, 745 388.740, 745 387.500 C 745 386.259, 745.676 383.627, 746.502 381.649 C 747.328 379.672, 748.497 374.742, 749.099 370.694 C 750.139 363.703, 750.068 363.086, 747.694 358.417 C 746.319 355.713, 744.422 351.700, 743.478 349.500 C 739.642 340.556, 738.554 338.142, 734.690 330 C 730.623 321.429, 724.225 312.726, 720.542 310.755 C 717.769 309.271, 712.886 308.321, 710.500 308.801" stroke="#aa444d" fill="#aa444d" fill-opacity="0.2" fill-rule="evenodd"/><path class="svg-region-VOC" d="M 499.446 496.092 C 491.122 501.297, 487.059 508.006, 487.022 516.607 C 487.002 521.306, 487.339 522.046, 491.250 525.884 C 500.740 535.196, 507.844 540.143, 513.756 541.556 C 516.915 542.311, 520.063 542.945, 520.750 542.964 C 523.266 543.036, 521.115 525.437, 517.672 517.782 C 516.753 515.737, 516 513.369, 516 512.519 C 516 509.951, 512.309 497.468, 510.867 495.159 C 508.976 492.131, 505.300 492.432, 499.446 496.092" stroke="#ff8f93" fill="#ff8f93" fill-opacity="0.2" fill-rule="evenodd"/><path class="svg-region-OABr" d="M 633.876 437.372 C 633.238 438.773, 631.301 440.217, 629.148 440.898 C 626.687 441.677, 624.117 443.788, 621.250 447.388 C 618.913 450.323, 617 452.989, 617 453.312 C 617 454.395, 611.198 462.511, 609.004 464.496 C 607.811 465.576, 606.213 467.947, 605.454 469.765 C 604.694 471.583, 603.381 473.761, 602.536 474.606 C 600.903 476.240, 600.491 481.650, 601.839 483.774 C 602.882 485.418, 603.605 484.572, 613.599 470 C 617.937 463.675, 624.977 453.596, 629.243 447.603 C 633.510 441.610, 637 436.323, 637 435.853 C 637 434.081, 634.914 435.095, 633.876 437.372" stroke="#81244d" fill="#81244d" fill-opacity="0.2" fill-rule="evenodd"/><path class="svg-region-SOTr" d="M 510.500 441.519 C 507.200 442.879, 504.387 443.993, 504.250 443.995 C 504.113 443.998, 504 445.485, 504 447.300 C 504 450.930, 505.487 453, 508.093 453 C 511.198 453, 512.037 459.562, 509.500 464 C 507.079 468.235, 507.660 470.697, 511.732 473.464 C 521.942 480.402, 534.361 472.563, 532.528 460.337 C 531.831 455.690, 527.490 445.982, 525.596 444.836 C 524.993 444.471, 523.150 443.009, 521.500 441.588 C 517.859 438.450, 517.950 438.450, 510.500 441.519" stroke="#995b45" fill="#995b45" fill-opacity="0.2" fill-rule="evenodd"/><path class="svg-region-BPCr" d="M 937.174 625.314 C 935.978 626.587, 935 628.753, 935 630.127 C 935 632.949, 930.314 638, 927.695 638 C 926.474 638, 926 638.848, 926 641.031 C 926 642.803, 925.377 644.302, 924.500 644.638 C 923.660 644.961, 923 646.448, 923 648.019 C 923 653.935, 919.888 666.754, 917.057 672.500 C 913.324 680.077, 905.505 687.754, 896.500 692.685 C 892.650 694.793, 887.700 697.774, 885.500 699.309 C 865.068 713.565, 850.701 720.359, 838.372 721.593 C 831.956 722.236, 821.522 719.497, 809.525 714.021 C 806.094 712.455, 800.625 710.966, 796.822 710.563 C 787.759 709.604, 778.116 704.816, 770.500 697.495 C 761.923 689.250, 760.461 688.396, 758.421 690.436 C 756.529 692.328, 754.473 691.890, 748.235 688.269 C 744.761 686.251, 743.186 685.914, 739.735 686.446 C 730.205 687.915, 714.594 688.186, 710.840 686.947 C 707.785 685.939, 706.766 685.950, 705.496 687.003 C 704.633 687.719, 700.558 688.521, 696.441 688.786 C 692.323 689.050, 688.695 689.684, 688.379 690.196 C 688.063 690.708, 688.567 691.969, 689.500 693 C 690.433 694.031, 690.900 695.352, 690.539 695.937 C 690.144 696.576, 690.848 697, 692.303 697 C 695.818 697, 709.053 702.683, 711.989 705.453 C 713.490 706.869, 717.315 708.506, 721.500 709.524 C 725.350 710.460, 728.927 711.625, 729.450 712.113 C 729.972 712.601, 732.222 713.002, 734.450 713.004 C 739.010 713.008, 743.099 715.172, 748.098 720.225 C 755.497 727.707, 764.867 734.027, 770.006 735.001 C 772.752 735.522, 776.327 736.635, 777.950 737.474 C 779.573 738.313, 781.565 739, 782.378 739 C 783.190 739, 784.728 740.110, 785.795 741.466 C 787.863 744.095, 792.020 745.326, 802.882 746.523 C 806.393 746.910, 811.568 748.244, 814.382 749.487 C 817.197 750.729, 821.412 752.068, 823.749 752.461 C 826.087 752.854, 828.337 753.701, 828.749 754.343 C 831.104 758.007, 852.980 760.455, 859.058 757.736 C 870.029 752.826, 874.836 750.056, 887.245 741.489 C 894.805 736.270, 901.495 732, 902.111 732 C 902.728 732, 905.993 729.837, 909.366 727.194 C 917.376 720.918, 926.603 714.723, 931.066 712.624 C 933.027 711.701, 938.165 708.009, 942.484 704.419 C 946.802 700.828, 951.160 697.450, 952.168 696.910 C 953.175 696.371, 954 695.364, 954 694.673 C 954 693.982, 955.540 691.784, 957.422 689.789 C 961.916 685.024, 963 682.855, 963 678.625 C 963 676.696, 963.450 674.840, 964 674.500 C 964.552 674.159, 965 669.664, 965 664.464 C 965 655.999, 964.710 654.509, 962.139 649.757 C 960.566 646.849, 958.544 641.944, 957.647 638.858 C 956.447 634.730, 954.956 632.289, 952.005 629.624 C 949.799 627.631, 947.376 626, 946.620 626 C 945.863 626, 944.685 625.325, 944 624.500 C 942.213 622.347, 939.678 622.649, 937.174 625.314" stroke="#83385f" fill="#83385f" fill-opacity="0.2" fill-rule="evenodd"/><path class="svg-region-AMC" d="M 498.200 733.200 C 496.005 735.395, 496.812 744.474, 499.892 752.227 C 501.631 756.605, 503.068 762.549, 503.499 767.143 C 504.125 773.830, 503.997 774.902, 502.467 775.759 C 499.764 777.271, 501.687 779, 506.073 779 C 508.248 779, 510.809 779.401, 511.764 779.892 C 512.719 780.382, 517.550 782.229, 522.500 783.996 C 527.450 785.763, 535.100 789.081, 539.500 791.369 C 549.121 796.372, 556.148 797.277, 561.296 794.176 C 563.058 793.115, 566.857 791.481, 569.738 790.547 C 575.625 788.637, 577.398 787, 573.579 787 C 570.541 787, 563 784.122, 563 782.963 C 563 782.512, 562.438 781.536, 561.750 780.794 C 559.844 778.739, 556.433 773.685, 555.804 771.984 C 555.280 770.570, 540.808 762.234, 527.844 755.879 C 520.596 752.326, 519 750.007, 519 743.027 C 519 737.925, 518.735 737.288, 515.553 734.750 C 512.608 732.400, 511.182 732, 505.753 732 C 502.145 732, 498.882 732.518, 498.200 733.200" stroke="#9d4741" fill="#9d4741" fill-opacity="0.2" fill-rule="evenodd"/>
    </svg>