<svg xmlns="http://www.w3.org/2000/svg" width="1078" height="1151" viewBox="0 0 1078 1151" version="1.1">
    <path class="svg-region-V" d="M 473.500 192.152 C 471.300 192.603, 465.900 194.747, 461.500 196.916 C 457.100 199.086, 450.125 202.319, 446 204.101 C 441.875 205.883, 436.475 208.947, 434 210.909 C 424.928 218.105, 417.490 224.525, 417.098 225.500 C 416.876 226.050, 415.076 228.034, 413.098 229.910 C 411.119 231.785, 408.825 234.322, 408 235.547 C 407.175 236.772, 404.566 240.532, 402.202 243.903 C 398.055 249.817, 389.629 264.777, 386.377 272 C 385.510 273.925, 384.173 276.207, 383.407 277.072 C 380.026 280.884, 372.341 299.259, 370.483 307.973 C 370.076 309.884, 368.689 313.117, 367.400 315.158 C 366.111 317.200, 361.669 325.804, 357.529 334.280 C 350.363 348.945, 350 350.023, 350.009 356.595 C 350.016 362.601, 351.493 376.523, 353.923 393.500 C 354.582 398.101, 360.049 409.062, 362.061 409.818 C 362.527 409.993, 364.470 413.425, 366.378 417.446 C 370.118 425.325, 372.307 427.374, 381 431.126 C 388.498 434.362, 396.763 434.310, 403.363 430.983 C 409.485 427.898, 417.230 419.514, 418.800 414.272 C 420.259 409.405, 420.367 400.554, 419 398 C 418.326 396.740, 418.345 395.222, 419.061 393.340 C 419.644 391.805, 421.227 384.996, 422.577 378.209 C 424.837 366.853, 428.465 357.067, 430.995 355.503 C 432.509 354.567, 435.640 348.036, 436.510 344 C 436.925 342.075, 438.698 338.250, 440.450 335.500 C 442.201 332.750, 445.180 327.587, 447.067 324.026 C 450.608 317.348, 461.917 305, 464.492 305 C 465.293 305, 469.288 303.673, 473.371 302.051 C 477.453 300.430, 484.492 298.353, 489.013 297.437 C 496.606 295.899, 497.615 295.895, 502.232 297.386 C 504.981 298.274, 508.096 299, 509.155 299 C 510.213 299, 512.749 299.845, 514.790 300.878 C 516.830 301.911, 519.937 303.066, 521.694 303.445 C 524.021 303.947, 525.568 305.271, 527.387 308.317 C 528.761 310.618, 531.056 313.831, 532.488 315.458 C 533.919 317.085, 535.912 320.272, 536.915 322.541 C 541.309 332.475, 553.380 339.708, 563.819 338.663 C 576.049 337.438, 585.758 328.616, 587.608 317.048 C 588.100 313.975, 588.942 312.560, 590.885 311.545 C 592.323 310.794, 594.841 308.768, 596.480 307.045 C 598.119 305.321, 601.423 302.930, 603.823 301.732 C 606.222 300.533, 609.486 297.966, 611.075 296.026 C 614.974 291.270, 615.788 290.476, 621 286.343 C 627.802 280.949, 627.852 280.447, 621.968 276.789 C 615.787 272.947, 612.899 267.847, 609.485 254.740 C 607.136 245.726, 606.514 244.704, 598.431 236.583 C 596.742 234.888, 594.553 232.262, 593.566 230.750 C 592.578 229.238, 591.374 228, 590.890 228 C 590.406 228, 587.228 225.758, 583.828 223.019 C 580.428 220.279, 574.013 216.217, 569.573 213.992 C 565.133 211.767, 560.825 209.524, 560 209.007 C 557.072 207.172, 542.936 201, 541.662 201 C 540.951 201, 535.566 199.443, 529.696 197.541 C 513.968 192.443, 504.474 190.911, 490 191.137 C 483.125 191.244, 475.700 191.701, 473.500 192.152" stroke="#dd8a8a" fill="#dd8a8a" fill-opacity="0.2" fill-rule="evenodd"/><path class="svg-region-SV" d="M 493.500 296.328 C 469.752 301.970, 463.806 304.438, 456.250 311.787 C 452.813 315.130, 450 318.096, 450 318.379 C 450 318.661, 447.112 323.861, 443.582 329.935 C 440.052 336.008, 436.847 342.445, 436.460 344.238 C 435.564 348.387, 432.613 354.246, 430.561 355.949 C 427.783 358.255, 424.989 366.088, 422.521 378.492 C 421.201 385.124, 419.662 391.759, 419.100 393.237 C 418.394 395.094, 418.411 396.880, 419.155 399.016 C 420.591 403.133, 419.815 412.675, 417.701 416.904 C 415.561 421.185, 415.522 421, 418.566 421 C 421.683 421, 424.646 422.449, 428.094 425.659 C 429.520 426.988, 432.895 428.900, 435.594 429.908 C 438.403 430.958, 440.922 432.651, 441.487 433.871 C 442.737 436.567, 444.998 436.576, 448.405 433.896 C 450.721 432.074, 452.138 431.840, 458.964 432.150 C 465.943 432.467, 467.377 432.880, 471.453 435.754 C 473.986 437.539, 476.632 439, 477.333 439 C 478.034 439, 480.833 440.076, 483.554 441.391 C 486.274 442.707, 489.688 444.053, 491.139 444.383 C 492.877 444.778, 493.998 445.855, 494.419 447.534 C 494.771 448.937, 495.834 450.373, 496.780 450.725 C 497.726 451.077, 499.729 452.261, 501.231 453.357 L 503.963 455.349 505.981 453.021 C 507.092 451.741, 508 450.234, 508 449.672 C 508 449.109, 509.632 445.346, 511.627 441.308 C 514.610 435.271, 515.454 434.238, 516.377 435.494 C 517.321 436.777, 518.015 436.826, 520.722 435.802 C 523.588 434.717, 524.280 434.831, 526.988 436.833 C 530.189 439.199, 529.988 439.300, 531.426 434.611 C 532.837 430.010, 523.447 406.905, 517.291 399.833 C 514.815 396.988, 516.693 378.887, 520.251 371.302 C 521.605 368.416, 527.827 366, 533.907 366 C 536.583 366, 542.316 367.026, 546.645 368.280 L 554.517 370.560 554.153 359.927 L 553.789 349.294 557.144 347.217 C 558.990 346.075, 561.822 343.759, 563.437 342.070 L 566.374 339 562.225 339 C 551.968 339, 540.922 331.496, 536.464 321.500 C 535.237 318.750, 533.234 315.601, 532.013 314.501 C 530.792 313.402, 528.713 310.660, 527.394 308.409 C 525.526 305.221, 524.054 304.040, 520.747 303.071 C 518.411 302.387, 515.600 301.262, 514.500 300.572 C 513.400 299.881, 510.355 299.027, 507.733 298.675 C 505.111 298.322, 501.736 297.436, 500.233 296.706 C 498.227 295.731, 496.436 295.631, 493.500 296.328" stroke="#c666b5" fill="#c666b5" fill-opacity="0.2" fill-rule="evenodd"/><path class="svg-region-SF" d="M 625.926 281.750 C 625.090 282.712, 622.695 284.850, 620.602 286.500 C 618.509 288.150, 616.055 290.323, 615.148 291.329 C 609.289 297.831, 605.834 300.848, 602.405 302.457 C 600.257 303.464, 598.128 304.921, 597.672 305.694 C 597.217 306.467, 594.985 308.447, 592.711 310.094 C 589.410 312.486, 588.323 314.082, 587.315 318.023 C 585.794 323.966, 582.021 330.195, 578.437 332.679 C 573.693 335.967, 572 337.967, 572 340.283 C 572 341.538, 570.392 345.594, 568.426 349.295 C 563.951 357.723, 563.083 364.479, 565.428 372.638 C 566.354 375.862, 567.819 380.971, 568.683 383.991 C 572.343 396.783, 576.573 402.701, 585.202 407.103 C 593.526 411.350, 601.311 410.531, 621.500 403.286 C 625.808 401.740, 630.382 400.826, 633.395 400.910 C 638.355 401.049, 642 399.151, 642 396.430 C 642 395.737, 643.869 391.644, 646.153 387.335 C 651.858 376.570, 654.899 362.810, 655.134 346.694 C 655.234 339.830, 654.858 333.584, 654.278 332.476 C 653.710 331.389, 652.015 325.550, 650.512 319.500 C 646.932 305.095, 641.076 293.097, 633.134 283.899 C 629.386 279.558, 628.148 279.189, 625.926 281.750" stroke="#8c6b55" fill="#8c6b55" fill-opacity="0.2" fill-rule="evenodd"/><path class="svg-region-PF" d="M 564.207 341.300 C 561.618 343.665, 558.204 346.414, 556.619 347.409 L 553.738 349.218 554.405 361.859 C 555.176 376.490, 555.176 376.051, 554.400 382.194 C 553.966 385.629, 554.235 387.498, 555.404 389.166 C 556.502 390.734, 557 393.662, 557 398.548 C 557 404.907, 557.272 405.905, 559.597 408.076 C 561.026 409.409, 563.007 412.075, 564 414 C 566.197 418.259, 569.649 421.521, 573 422.503 C 574.375 422.907, 576.247 423.891, 577.160 424.692 C 578.632 425.982, 579.283 425.841, 582.899 423.448 C 586.573 421.017, 593 412.967, 593 410.797 C 593 410.324, 592.212 409.691, 591.250 409.390 C 588.192 408.434, 579.570 403.840, 577.641 402.139 C 574.333 399.223, 569.987 389.166, 566.863 377.194 C 563.174 363.060, 563.422 358.720, 568.459 349.235 C 572.247 342.101, 573.080 337, 570.457 337 C 569.609 337, 566.796 338.935, 564.207 341.300" stroke="#faaaaa" fill="#faaaaa" fill-opacity="0.2" fill-rule="evenodd"/><path class="svg-region-AAB" d="M 649.480 424.878 C 644.864 426.966, 643.098 430.075, 642.337 437.453 C 642.051 440.229, 640.893 444.525, 639.763 447 C 634.806 457.859, 634.073 459.652, 633.533 462.250 C 633.157 464.062, 632.326 465, 631.097 465 C 629.046 465, 622 472.222, 622 474.325 C 622 475.050, 620.663 477.411, 619.028 479.572 C 617.393 481.732, 616.043 484.564, 616.028 485.865 C 616.012 487.209, 614.583 489.584, 612.718 491.365 C 609.110 494.811, 604.068 501.113, 599.497 507.888 C 596.573 512.222, 594.634 514.048, 576 530.018 C 563.773 540.497, 562 542.977, 562 549.605 C 562 554.359, 562.316 555.053, 566.003 558.384 C 571.078 562.969, 575.530 563.162, 584.292 559.176 C 590.813 556.209, 598.457 553.745, 606 552.179 C 608.475 551.666, 613.875 549.861, 618 548.170 C 622.125 546.478, 626.809 544.822, 628.409 544.488 C 630.009 544.155, 632.709 542.392, 634.409 540.571 C 645.054 529.169, 648.378 525.193, 650.691 521.098 C 652.120 518.569, 654.364 514.878, 655.679 512.896 C 657.867 509.598, 659.878 503.503, 664.986 484.690 C 667.084 476.963, 667.566 458.514, 666.046 444.107 C 664.974 433.942, 661.726 425.334, 658.629 424.450 C 657.458 424.115, 655.825 423.665, 655 423.450 C 654.175 423.235, 651.691 423.877, 649.480 424.878" stroke="#7f3c1a" fill="#7f3c1a" fill-opacity="0.2" fill-rule="evenodd"/><path class="svg-region-APB" d="M 623.805 402.448 C 620.673 403.751, 616.623 405.116, 614.805 405.482 C 612.987 405.848, 608.911 407.014, 605.746 408.074 C 602.581 409.133, 598.419 410, 596.496 410 C 594.573 410, 593 410.373, 593 410.829 C 593 412.881, 586.530 421.127, 583.405 423.058 C 578.963 425.804, 578.470 426.343, 572.500 434.999 C 569.750 438.986, 565.450 444.554, 562.944 447.374 C 551.542 460.202, 548.478 465.878, 547.430 476.110 C 546.957 480.726, 547.208 484.258, 548.280 488.079 C 549.117 491.061, 550.113 495.750, 550.493 498.500 C 550.874 501.250, 552.324 507.550, 553.716 512.500 C 555.108 517.450, 556.609 524.875, 557.052 529 C 557.495 533.125, 557.890 536.777, 557.929 537.115 C 557.968 537.453, 558.938 538.923, 560.085 540.381 L 562.169 543.031 566.835 538.421 C 569.401 535.885, 575.325 530.619, 580 526.718 C 591.943 516.754, 597.783 511.058, 600.218 507 C 601.373 505.075, 603.259 502.367, 604.409 500.982 C 605.559 499.598, 603.783 501.285, 600.463 504.732 C 595.257 510.138, 593.933 511, 590.836 511 C 585.868 511, 584.415 509.031, 586.463 505.072 C 587.337 503.382, 588.602 501.985, 589.276 501.967 C 591.307 501.912, 594.749 498.513, 596.431 494.902 C 597.303 493.031, 599.025 490.048, 600.258 488.273 C 606.904 478.709, 607.292 477.763, 605.683 475.041 C 604.009 472.206, 604.468 467.687, 606.611 465.908 C 607.375 465.274, 608 464.189, 608 463.498 C 608 462.807, 609.964 460.631, 612.366 458.664 C 614.767 456.696, 617.532 453.398, 618.512 451.334 C 620.764 446.587, 629.826 438.019, 632.604 438.008 C 634.235 438.002, 635.046 439.058, 636.209 442.702 C 637.034 445.288, 638.163 447.554, 638.718 447.739 C 640.091 448.197, 641.729 443.555, 642.347 437.453 C 642.628 434.678, 643.409 431.197, 644.083 429.718 C 645.563 426.470, 652.584 422.817, 655.755 423.646 C 657.618 424.133, 657.996 423.831, 657.978 421.867 C 657.949 418.751, 654.443 411.107, 651.688 408.155 C 648.560 404.802, 645.288 403.322, 638.145 402.026 C 634.697 401.401, 631.341 400.707, 630.688 400.485 C 630.034 400.262, 626.937 401.146, 623.805 402.448 M 618.004 479.496 C 616.714 480.869, 615.880 482.213, 616.150 482.484 C 616.421 482.754, 617.636 481.631, 618.851 479.988 C 621.542 476.348, 621.166 476.130, 618.004 479.496" stroke="#ac7444" fill="#ac7444" fill-opacity="0.2" fill-rule="evenodd"/><path class="svg-region-PC" d="M 525.160 367.361 C 519.868 369.277, 517.367 375.625, 516.400 389.587 C 515.874 397.177, 516.004 397.916, 518.515 401.587 C 526.545 413.329, 532.362 429.664, 530.741 435.921 C 530.117 438.327, 530.304 439.814, 531.447 441.559 C 532.301 442.863, 533 445.034, 533 446.384 C 533 447.734, 533.729 451.684, 534.620 455.162 C 536.275 461.621, 537.986 476.623, 537.292 478.592 C 536.675 480.343, 529.465 484, 526.630 484 C 522.706 484, 518.115 479.246, 515.997 472.991 C 514.064 467.282, 512.755 466.076, 512.208 469.500 C 512.033 470.600, 511.265 473.750, 510.502 476.500 C 509.739 479.250, 508.863 484.425, 508.554 488 L 507.994 494.500 511.747 494.500 L 515.500 494.500 516.122 505.500 C 516.851 518.415, 518.335 529.367, 519.891 533.315 C 521.375 537.082, 521.298 542.697, 519.750 543.656 C 519.063 544.082, 516.700 544.671, 514.500 544.965 C 508.452 545.774, 508.594 548.637, 514.948 553.957 C 517.727 556.283, 520 558.768, 520 559.478 C 520 560.189, 521.130 561.510, 522.510 562.415 C 524.444 563.682, 525.484 563.811, 527.039 562.979 C 528.149 562.385, 530.515 561.768, 532.297 561.609 C 534.080 561.449, 536.512 560.796, 537.703 560.159 C 538.894 559.521, 542.347 559, 545.375 559 C 548.404 559, 551.160 558.550, 551.500 558 C 551.840 557.450, 553.195 557, 554.512 557 C 555.829 557, 558.015 556.495, 559.370 555.877 C 561.523 554.896, 561.877 554, 562.167 548.779 C 562.350 545.493, 562.159 542.595, 561.743 542.339 C 559.766 541.123, 557.697 534.949, 556.964 528.080 C 556.519 523.911, 555.008 516.486, 553.606 511.580 C 552.204 506.675, 550.605 499.700, 550.053 496.080 C 549.501 492.461, 548.496 487.591, 547.820 485.257 C 546.852 481.916, 546.848 479.511, 547.803 473.942 C 549.509 463.993, 550.411 462.420, 562.538 448.226 C 567.439 442.489, 573.970 433.640, 576.495 429.316 C 578.692 425.551, 577.643 423.520, 572.973 422.494 C 570.211 421.887, 564 415.986, 564 413.968 C 564 413.439, 562.464 411.306, 560.587 409.228 C 557.467 405.775, 557.138 404.807, 556.764 397.975 C 556.538 393.864, 555.729 389.046, 554.965 387.268 C 553.837 384.645, 553.801 383.193, 554.775 379.551 C 556.730 372.242, 555.529 370.632, 546.256 368.130 C 537.547 365.780, 530.262 365.514, 525.160 367.361" stroke="#cda789" fill="#cda789" fill-opacity="0.2" fill-rule="evenodd"/><path class="svg-region-DB" d="M 412 424.503 C 404.193 432.702, 393.332 435.665, 384.060 432.125 C 381.067 430.982, 378.367 430.302, 378.060 430.613 C 377.047 431.638, 392.613 443, 395.029 443 C 396.536 443, 401.827 448.368, 405.075 453.191 C 411.267 462.388, 435.318 492.934, 439.250 496.595 C 443.224 500.296, 448.327 503.686, 455.500 507.390 C 462.305 510.904, 463.800 511.259, 486.250 514.690 C 489.693 515.216, 490.001 515.068, 490.006 512.882 C 490.013 510.312, 498.049 501.396, 504.319 497 C 507.483 494.781, 507.950 493.881, 508.466 489 C 509.199 482.059, 512.118 468.805, 513.189 467.550 C 513.635 467.028, 514 464.518, 514 461.974 C 514 455.573, 510.854 452.511, 505.249 453.458 C 502.328 453.951, 501.016 453.725, 500.049 452.559 C 499.337 451.702, 498.112 451, 497.327 451 C 496.541 451, 495.240 449.425, 494.436 447.500 C 493.384 444.982, 492.346 443.999, 490.737 443.996 C 489.506 443.994, 486.286 442.869, 483.581 441.496 C 480.875 440.123, 477.892 439, 476.953 439 C 476.014 439, 474.627 438.254, 473.872 437.342 C 469.519 432.081, 452.715 429.910, 448 434 C 445.008 436.595, 443.573 436.523, 441.715 433.688 C 440.882 432.417, 438.448 430.851, 436.305 430.210 C 434.163 429.568, 430.490 427.400, 428.144 425.392 C 425.134 422.815, 422.647 421.606, 419.690 421.284 C 415.896 420.870, 415.169 421.174, 412 424.503" stroke="#e8b1e4" fill="#e8b1e4" fill-opacity="0.2" fill-rule="evenodd"/><path class="svg-region-MB" d="M 371 427.997 C 371 430.781, 373.671 437.007, 375.929 439.486 C 376.938 440.594, 377.991 442.850, 378.270 444.500 C 379.474 451.627, 383.036 465.025, 385.420 471.397 C 386.839 475.190, 388 479.621, 388 481.242 C 388 482.864, 388.870 485.413, 389.934 486.907 C 390.997 488.400, 392.172 490.836, 392.544 492.320 C 392.917 493.805, 393.622 495.266, 394.111 495.568 C 394.600 495.871, 395 497.874, 395 500.020 C 395 502.542, 395.666 504.555, 396.884 505.711 C 397.919 506.695, 399.093 509.075, 399.491 511 C 399.889 512.925, 401.350 516.614, 402.738 519.198 C 405.603 524.532, 421.364 540.346, 424.948 541.484 C 428.537 542.623, 443 557.440, 443 559.977 C 443 561.155, 443.419 561.859, 443.931 561.543 C 444.443 561.226, 445.127 561.397, 445.452 561.922 C 445.777 562.448, 448.620 564.348, 451.771 566.146 C 454.922 567.943, 458.347 570.198, 459.383 571.155 C 461.297 572.925, 466.374 572.764, 468.450 570.868 C 468.973 570.390, 471.582 570, 474.250 570 C 476.918 570, 480.539 569.229, 482.300 568.286 C 484.889 566.900, 488.269 566.566, 500 566.536 C 507.975 566.516, 515.034 566.154, 515.687 565.730 C 516.339 565.307, 517.564 563.575, 518.409 561.882 C 519.812 559.070, 519.795 558.597, 518.222 556.433 C 517.275 555.129, 516.016 554.049, 515.424 554.031 C 513.178 553.966, 509.730 549.140, 510.319 546.886 C 511.158 543.678, 510 542.130, 502.176 536 C 497.744 532.527, 494.968 529.578, 494.647 528 C 494.366 526.625, 493.242 524.544, 492.147 523.376 C 491.053 522.208, 490.009 519.985, 489.829 518.436 C 489.542 515.977, 488.864 515.455, 484.500 514.329 C 481.750 513.619, 478.150 513.022, 476.500 513.002 C 469.149 512.912, 459.702 509.959, 451.841 505.294 C 442.016 499.463, 435.171 493.068, 427.442 482.500 C 424.224 478.100, 421.121 473.983, 420.546 473.351 C 416.479 468.882, 409.606 459.893, 404.603 452.500 C 400.757 446.817, 397.821 444.036, 393.500 441.985 C 388.865 439.785, 382.538 435.373, 378.338 431.412 C 372.899 426.282, 371 425.399, 371 427.997" stroke="#f9c6c6" fill="#f9c6c6" fill-opacity="0.2" fill-rule="evenodd"/><path class="svg-region-AP" d="M 549.753 609.360 C 550.174 637.337, 553.469 676.003, 556.966 694 C 557.554 697.025, 557.970 707.543, 557.891 717.374 L 557.747 735.248 561.382 737.325 C 563.643 738.618, 565.808 741.037, 567.111 743.729 C 568.272 746.128, 570.464 748.706, 572.032 749.516 C 573.586 750.320, 575.143 751.876, 575.491 752.973 C 575.840 754.070, 578.122 756.605, 580.562 758.605 C 583.438 760.961, 585 763.039, 585 764.508 C 585 765.755, 586.382 769.730, 588.072 773.340 C 591.101 779.813, 591.496 783.837, 589.540 788.293 C 587.991 791.822, 589.223 791.669, 603.500 786.558 C 607.350 785.179, 612.075 784.035, 614 784.014 C 615.925 783.993, 619.975 783.312, 623 782.500 C 626.398 781.588, 633.115 781.019, 640.575 781.012 C 653.081 781, 653.108 780.994, 670.924 774.502 C 673.358 773.615, 681.188 771.573, 688.324 769.964 C 695.461 768.355, 702.020 766.388, 702.900 765.594 C 703.780 764.800, 706.667 763.606, 709.315 762.940 C 712.721 762.084, 713.818 761.418, 713.065 760.665 C 712.479 760.079, 712 758.536, 712 757.236 C 712 755.936, 710.875 752.412, 709.500 749.406 C 708.125 746.400, 707 743.611, 707 743.209 C 707 742.806, 704.528 737.532, 701.508 731.488 C 698.487 725.445, 696.012 719.739, 696.008 718.809 C 696.003 717.879, 695.550 716.840, 695 716.500 C 694.450 716.160, 694 712.387, 694 708.116 C 694 699.154, 693.954 699.223, 704.500 692.355 C 708.350 689.848, 713.540 685.817, 716.034 683.398 C 719.022 680.500, 721.452 679, 723.159 679 C 727.171 679, 734.196 681.813, 737.078 684.574 C 739.374 686.775, 740.029 686.938, 742.592 685.955 C 744.394 685.263, 747.932 685.096, 751.893 685.514 C 757.846 686.143, 758.235 686.063, 757.537 684.345 C 757.125 683.330, 756.425 677.550, 755.982 671.500 C 755.539 665.450, 754.421 657.350, 753.498 653.500 C 751.002 643.092, 751.232 643.562, 749.379 645.101 C 748.376 645.933, 748.194 646.565, 748.890 646.797 C 749.501 647, 750 648.678, 750 650.524 C 750 652.371, 750.450 654.160, 751 654.500 C 752.856 655.647, 752.164 668.286, 750 672.764 C 748.900 675.041, 748 677.510, 748 678.252 C 748 679.947, 745.998 682, 744.344 682 C 743.025 682, 737.441 678.612, 732.694 674.931 L 729.889 672.756 727.630 674.878 C 724.328 677.980, 718.813 677.636, 711.206 673.854 C 705.482 671.007, 700 665.860, 700 663.332 C 700 662.793, 698.200 658.874, 696 654.622 C 693.800 650.371, 692 646.193, 692 645.339 C 692 644.231, 691.499 644.008, 690.250 644.563 C 687.052 645.983, 680.246 646.201, 677.857 644.961 C 676.560 644.288, 672.446 641.726, 668.713 639.267 C 661.111 634.260, 662.791 634.376, 642.970 637.491 C 631.922 639.227, 631.283 639.228, 627.705 637.530 C 625.652 636.556, 621.728 633.073, 618.986 629.792 C 614.149 624.004, 614 623.634, 614 617.446 C 614 613.516, 613.350 609.704, 612.306 607.515 C 610.848 604.459, 610.791 603.466, 611.898 600.406 C 612.605 598.451, 613.001 596.668, 612.779 596.445 C 612.556 596.222, 605.652 595.562, 597.437 594.977 C 589.222 594.392, 580.328 593.482, 577.674 592.956 C 575.019 592.430, 571.108 592, 568.983 592 C 566.857 592, 564.864 591.589, 564.554 591.087 C 563.665 589.650, 555.948 588.652, 554.777 589.823 C 554.166 590.434, 552.872 590.522, 551.598 590.037 L 549.451 589.221 549.753 609.360 M 673 674.727 C 671.625 674.978, 669.825 675.752, 669 676.449 C 666.684 678.403, 654.762 681, 648.104 681 C 644.811 681, 641.848 681.437, 641.518 681.971 C 641.188 682.504, 641.609 684.277, 642.453 685.909 C 643.774 688.463, 644.441 688.816, 647.244 688.441 C 657.286 687.099, 677.793 685.575, 686.282 685.540 C 693.855 685.509, 696.279 685.161, 697.017 684 C 698.799 681.193, 698.091 680, 694.641 680 C 692.793 680, 688.631 678.656, 685.391 677.013 C 679.626 674.089, 678.077 673.803, 673 674.727" stroke="#fc7143" fill="#fc7143" fill-opacity="0.2" fill-rule="evenodd"/><path class="svg-region-PP" d="M 518.166 586.514 C 514.970 589.203, 514.735 589.240, 501.213 589.164 C 486.990 589.084, 481.661 589.997, 480.104 592.779 C 479.333 594.157, 478.780 594.221, 476.521 593.192 C 473.267 591.709, 472.335 592.198, 471.543 595.802 C 470.743 599.447, 465.638 602.278, 461.394 601.429 C 457.107 600.571, 450.629 604.043, 447.618 608.813 C 442.234 617.341, 432.764 622.413, 423.351 621.808 L 418.565 621.500 415.569 615.250 C 413.548 611.033, 411.992 609, 410.787 609 C 409.657 609, 409 609.748, 409 611.031 C 409 613.859, 406.469 614.537, 403.406 612.530 C 401.987 611.601, 400.588 611.079, 400.296 611.371 C 400.004 611.662, 399.533 613.965, 399.249 616.487 C 398.664 621.671, 397.693 622.474, 390.750 623.515 L 386 624.227 386.004 628.864 C 386.007 631.414, 387.122 636.650, 388.483 640.500 C 390.271 645.558, 390.964 649.609, 390.979 655.102 C 391.001 663.040, 390.760 662.432, 397.591 671.765 C 399.644 674.569, 401.631 683.969, 403.347 699 C 404.844 712.109, 407.279 718.668, 411.924 722.102 C 413.646 723.375, 414.843 724.966, 414.586 725.638 C 414.283 726.425, 415.885 727.238, 419.091 727.926 C 425.357 729.270, 430.782 732.029, 434 735.509 C 435.375 736.996, 438.495 739.593, 440.934 741.281 C 443.372 742.968, 446.747 745.920, 448.434 747.841 C 450.120 749.762, 453.405 752.176, 455.733 753.206 C 458.061 754.236, 460.761 756.257, 461.733 757.698 C 464.986 762.521, 477.828 773.464, 483 775.821 C 484.925 776.698, 490.193 777.660, 494.708 777.958 L 502.915 778.500 502.329 776 C 502.006 774.625, 501.350 773.073, 500.871 772.550 C 500.392 772.028, 500 770.890, 500 770.023 C 500 769.155, 498.613 766.927, 496.917 765.071 C 493.014 760.797, 491.981 758.048, 492.076 752.185 C 492.186 745.415, 493.980 741.486, 498.294 738.567 C 500.381 737.155, 502.406 735.986, 502.794 735.969 C 503.182 735.951, 506.123 734.633, 509.329 733.040 L 515.158 730.143 531.829 730.689 C 544.845 731.115, 549.431 731.635, 552.746 733.059 L 556.991 734.884 557.613 732.405 C 558.580 728.551, 557.375 691.865, 556.171 688.500 C 554.052 682.581, 550.711 643.415, 550.072 617 C 549.719 602.425, 549.121 590.001, 548.743 589.391 C 548.365 588.781, 545.521 587.984, 542.423 587.620 C 539.325 587.256, 536.027 586.550, 535.096 586.051 C 534.164 585.553, 530.703 584.839, 527.404 584.466 C 521.839 583.837, 521.172 583.984, 518.166 586.514" stroke="#c4743d" fill="#c4743d" fill-opacity="0.2" fill-rule="evenodd"/><path class="svg-region-LPr" d="M 616.110 595.346 C 611.420 598.043, 609.576 604.734, 612.468 608.559 C 613.408 609.802, 613.948 612.896, 613.968 617.163 C 613.999 623.660, 614.122 623.971, 618.918 629.711 C 621.623 632.948, 625.445 636.464, 627.412 637.523 C 630.923 639.413, 631.204 639.415, 642.744 637.608 C 663.015 634.434, 661.147 634.347, 667.662 638.759 C 676.190 644.532, 679.447 646, 683.728 646 C 689.377 646, 691.704 643.911, 692.349 638.261 C 692.649 635.643, 693.185 631.866, 693.542 629.868 C 693.942 627.632, 693.770 625.976, 693.096 625.559 C 691.514 624.581, 691.808 617.838, 693.532 615.559 C 695.587 612.841, 695.410 612.263, 691.974 610.487 C 688.199 608.534, 671.499 604.086, 663.500 602.902 C 660.200 602.414, 655.925 601.333, 654 600.500 C 652.075 599.668, 647.125 598.556, 643 598.029 C 638.875 597.502, 633.250 596.648, 630.500 596.131 C 619.299 594.024, 618.486 593.980, 616.110 595.346" stroke="#d2454f" fill="#d2454f" fill-opacity="0.2" fill-rule="evenodd"/><path class="svg-region-ADCr" d="M 696.500 613.155 C 695.400 613.756, 693.938 614.954, 693.250 615.815 C 691.656 617.813, 691.637 623.446, 693.215 625.973 C 694.169 627.501, 694.169 628.643, 693.215 631.281 C 691.747 635.343, 691.614 646.260, 693 649.014 C 695.275 653.534, 696.283 655.443, 698.094 658.667 C 699.142 660.534, 700 662.567, 700 663.186 C 700 665.794, 705.303 670.925, 711.026 673.854 C 718.531 677.695, 724.233 677.981, 728.162 674.714 C 730.739 672.571, 737.166 660.170, 738.543 654.684 C 739.255 651.847, 742.607 648.669, 747.979 645.736 C 750.529 644.344, 751.095 643.501, 750.663 641.736 C 750.363 640.506, 749.801 635.523, 749.414 630.663 C 748.608 620.533, 747.660 619.496, 742.679 623.296 C 739.869 625.439, 737.904 625.915, 729.439 626.499 L 719.500 627.186 716.054 623.593 C 714.158 621.617, 711.847 620, 710.918 620 C 709.980 620, 708.512 618.491, 707.619 616.609 C 705.418 611.972, 701.109 610.634, 696.500 613.155" stroke="#54413e" fill="#54413e" fill-opacity="0.2" fill-rule="evenodd"/><path class="svg-region-AVCr" d="M 715.882 683.290 C 713.472 685.649, 708.130 689.812, 704.012 692.540 C 699.893 695.268, 695.956 698.030, 695.262 698.679 C 693.732 700.107, 693.505 715.576, 695 716.500 C 695.550 716.840, 696 717.788, 696 718.607 C 696 719.426, 696.900 721.959, 698 724.236 C 699.100 726.513, 700 728.784, 700 729.283 C 700 729.783, 700.836 731.386, 701.857 732.846 C 702.878 734.306, 704.954 738.650, 706.470 742.500 C 707.985 746.350, 709.640 750.015, 710.147 750.643 C 710.653 751.272, 711.408 753.747, 711.823 756.143 C 712.523 760.182, 712.794 760.489, 715.539 760.355 C 722.279 760.025, 733.944 757.767, 740.500 755.521 C 744.350 754.203, 750.650 752.633, 754.500 752.032 C 758.350 751.432, 765.159 750.279, 769.632 749.470 C 774.104 748.662, 779.392 748, 781.382 748 C 784.297 748, 785 747.623, 785 746.059 C 785 744.991, 784.532 743.829, 783.959 743.475 C 783.387 743.121, 781.846 741.131, 780.534 739.053 C 779.102 736.785, 775.929 734.022, 772.597 732.142 C 768.336 729.737, 766.358 727.787, 764.089 723.754 C 760.523 717.418, 760.782 717.719, 753.521 711.500 C 750.310 708.750, 746.702 705.500, 745.502 704.277 C 743.221 701.952, 740 693.345, 740 689.572 C 740 685.121, 730.453 679, 723.509 679 C 721.033 679, 719.224 680.017, 715.882 683.290" stroke="#ffbab9" fill="#ffbab9" fill-opacity="0.2" fill-rule="evenodd"/><path class="svg-region-VMr" d="M 513.039 730.976 C 511.886 731.689, 512.102 732.536, 514.236 735.673 C 518.901 742.527, 522.394 745.760, 528.645 749.005 C 534.720 752.159, 535.403 752.926, 542.669 764.757 C 543.432 765.998, 546.598 768.449, 549.707 770.204 C 555.220 773.315, 567 784.017, 567 785.914 C 567 786.437, 567.844 787.133, 568.875 787.460 C 569.906 787.787, 571.497 790.013, 572.411 792.405 C 576.121 802.121, 580.394 802.207, 586.750 792.694 C 591.916 784.962, 592.076 782.286, 587.938 772.859 C 586.254 769.022, 585.030 765.121, 585.219 764.191 C 585.426 763.170, 584.038 761.280, 581.711 759.418 C 579.593 757.723, 577.041 755.087, 576.039 753.559 C 575.037 752.032, 572.937 749.943, 571.372 748.916 C 569.807 747.890, 568.034 745.576, 567.432 743.775 C 566.219 740.143, 561.437 736.548, 553.500 733.299 C 549.402 731.621, 545.429 731.149, 531.473 730.679 C 522.108 730.364, 513.812 730.498, 513.039 730.976" stroke="#e59376" fill="#e59376" fill-opacity="0.2" fill-rule="evenodd"/><path class="svg-region-PMr" d="M 265.500 714 C 265.160 714.550, 264.024 715, 262.975 715 C 261.927 715, 258.203 716.575, 254.701 718.500 C 251.199 720.425, 247.419 722, 246.302 722 C 242.214 722, 239.275 725.708, 236.428 734.456 C 233.291 744.097, 233.808 746, 239.563 746 C 241.389 746, 243.160 746.450, 243.500 747 C 244.422 748.492, 246 748.207, 246 746.550 C 246 745.752, 245.222 744.664, 244.271 744.132 C 242.646 743.223, 242.656 743.038, 244.426 741.082 C 245.462 739.937, 246.933 739, 247.695 739 C 248.456 739, 250.844 738.100, 253 737 C 255.877 735.532, 258.894 735, 264.338 735 C 273.586 735, 274.332 734.248, 274.594 724.658 C 274.759 718.644, 274.459 717.141, 272.721 715.250 C 270.586 712.929, 266.589 712.237, 265.500 714" stroke="#90cf92" fill="#90cf92" fill-opacity="0.2" fill-rule="evenodd"/><path class="svg-region-PV" d="M 323.658 586.450 C 323.241 587.537, 323.918 588.885, 325.612 590.343 C 330.430 594.487, 328.716 607, 323.332 607 C 322.494 607, 320.614 607.820, 319.154 608.822 C 315.922 611.042, 309.603 614, 308.095 614 C 307.489 614, 305.314 614.900, 303.261 616 C 301.209 617.100, 298.886 618, 298.100 618 C 297.314 618, 293.428 619.539, 289.465 621.420 C 284.375 623.836, 280.152 626.919, 275.081 631.920 C 269.530 637.394, 267.249 639, 265.021 639 C 262.256 639, 262.177 639.129, 263.056 642.195 C 263.622 644.167, 263.605 646.755, 263.012 648.957 C 261.956 652.877, 255.254 663.717, 252.453 666.035 C 251.479 666.841, 249.633 669.750, 248.351 672.500 C 246.399 676.686, 246.019 679.129, 246.015 687.500 C 246.011 698.823, 247.140 704.006, 250.603 708.546 C 252.122 710.538, 253 713.027, 253 715.344 C 253 717.355, 253.248 719, 253.552 719 C 253.855 719, 255.768 718.133, 257.802 717.074 C 259.836 716.015, 263.418 714.591, 265.761 713.910 C 269.706 712.764, 270.200 712.839, 272.412 714.917 C 274.558 716.934, 274.780 717.910, 274.589 724.502 C 274.472 728.539, 273.831 732.499, 273.164 733.302 C 272.158 734.514, 272.846 735.313, 277.227 738.018 C 280.127 739.808, 283.850 742.221, 285.500 743.380 C 288.923 745.783, 298.137 746.934, 317.500 747.378 C 325.830 747.569, 330.854 747.217, 333.927 746.227 C 341.068 743.926, 349.325 746.197, 356.356 752.397 C 357.927 753.782, 360.852 755.418, 362.856 756.033 C 364.860 756.648, 367.947 757.886, 369.715 758.784 L 372.931 760.417 367.106 765.977 C 363.903 769.034, 360.942 772.606, 360.527 773.914 C 360.112 775.221, 357.939 778.281, 355.698 780.712 L 351.623 785.133 354.561 784.435 C 356.178 784.051, 358.400 782.953, 359.500 781.994 C 362.119 779.710, 364.177 778.720, 372 775.978 C 379.629 773.304, 384.984 770.097, 389.929 765.243 C 391.893 763.314, 394.962 761.114, 396.750 760.354 C 398.538 759.595, 400 758.552, 400 758.038 C 400 757.524, 401.074 755.944, 402.387 754.528 C 403.699 753.111, 405.878 748.476, 407.229 744.226 C 409.167 738.128, 410.244 736.225, 412.342 735.195 C 415.142 733.821, 415.582 732.469, 414.027 730.010 C 413.392 729.005, 413.568 727.783, 414.566 726.260 C 415.380 725.017, 415.620 724, 415.100 724 C 414.579 724, 412.835 722.890, 411.223 721.534 C 407.213 718.160, 404.395 709.670, 403.080 697 C 401.731 684.003, 399.675 674.596, 397.551 671.703 C 390.781 662.482, 391 663.037, 390.996 655.102 C 390.992 649.575, 390.316 645.589, 388.517 640.500 C 385.633 632.343, 385.353 626.604, 387.617 622.067 C 388.739 619.818, 389.095 617.158, 388.781 613.374 C 388.364 608.344, 387.948 607.575, 383.414 603.465 C 380.641 600.950, 377.511 599.007, 376.230 599.004 C 374.981 599.002, 370.256 597.263, 365.730 595.139 C 361.203 593.016, 355.553 591.029, 353.172 590.724 C 350.792 590.419, 348.092 589.516, 347.172 588.717 C 346.249 587.915, 342.367 586.994, 338.500 586.661 C 334.650 586.329, 329.879 585.772, 327.898 585.422 C 325.073 584.923, 324.158 585.145, 323.658 586.450" stroke="#b09658" fill="#b09658" fill-opacity="0.2" fill-rule="evenodd"/><path class="svg-region-Fr" d="M 292.762 587.571 C 292.448 587.885, 285.960 588.579, 278.345 589.112 C 267.528 589.869, 264.127 590.455, 262.793 591.790 C 261.854 592.731, 260.279 596.794, 259.293 600.821 C 257.629 607.616, 257.069 608.540, 251.500 613.685 C 240.716 623.649, 239 625.391, 239 626.373 C 239 626.906, 238.281 628.137, 237.402 629.108 C 235.291 631.441, 236.182 632.624, 240.689 633.470 C 242.731 633.852, 244.938 634.900, 245.594 635.797 C 246.328 636.802, 248.460 637.507, 251.143 637.633 C 253.539 637.746, 258.277 638.151, 261.670 638.533 L 267.840 639.229 274.817 632.252 C 281.758 625.311, 293.892 618.009, 298.509 617.993 C 299.604 617.990, 301.850 617.093, 303.500 616 C 305.150 614.907, 307.313 614.010, 308.308 614.007 C 309.884 614.001, 317.636 610.203, 320.500 608.033 C 321.050 607.617, 322.708 606.988, 324.183 606.636 C 327.226 605.910, 328.296 603.532, 328.451 597.152 C 328.539 593.501, 328.085 592.408, 325.616 590.330 C 322.962 588.097, 321.887 587.875, 314.588 588.053 C 310.140 588.162, 303.538 587.969, 299.917 587.625 C 296.296 587.281, 293.077 587.256, 292.762 587.571" stroke="#5ca7a9" fill="#5ca7a9" fill-opacity="0.2" fill-rule="evenodd"/><path class="svg-region-DV" d="M 223.200 630.200 C 221.786 631.614, 221.645 635.891, 222.946 637.946 C 223.505 638.830, 223.485 640.094, 222.895 641.196 C 222.108 642.667, 220.656 643, 215.037 643 C 208.842 643, 207.942 643.258, 206.141 645.548 C 205.039 646.949, 203.140 651.317, 201.922 655.253 C 199.830 662.013, 199.741 663.583, 200.327 683.456 C 201.096 709.487, 201.321 711.441, 204.335 718.116 C 207.624 725.400, 208.573 735.155, 206.549 740.876 C 204.482 746.716, 204.596 749.713, 206.934 750.965 C 210.256 752.743, 211.857 752.146, 216.895 747.250 C 220.957 743.304, 221.999 741.527, 223.051 736.750 C 223.988 732.500, 224.762 731, 226.020 731 C 226.955 731, 229.471 729.805, 231.610 728.345 C 233.750 726.885, 236.443 725.583, 237.595 725.450 C 238.748 725.318, 240.548 724.698, 241.595 724.073 C 242.643 723.448, 245.525 722.370, 248 721.679 C 252.422 720.444, 252.505 720.343, 252.799 715.846 C 253.039 712.185, 252.612 710.692, 250.663 708.376 C 247.193 704.253, 246.011 698.939, 246.015 687.500 C 246.019 679.129, 246.399 676.686, 248.351 672.500 C 249.633 669.750, 251.424 666.886, 252.331 666.136 C 255.310 663.671, 261.841 653.302, 262.907 649.345 C 264.610 643.022, 263.165 639.789, 257.935 638.220 C 255.496 637.489, 251.854 637.091, 249.842 637.338 C 247.831 637.584, 245.806 637.439, 245.342 637.016 C 242.276 634.217, 234.430 630.976, 231.240 631.191 C 229.113 631.334, 227.479 630.936, 227.239 630.216 C 226.721 628.663, 224.745 628.655, 223.200 630.200" stroke="#45567a" fill="#45567a" fill-opacity="0.2" fill-rule="evenodd"/><path class="svg-region-VV" d="M 253 737 C 251.075 738.054, 248.775 738.935, 247.889 738.958 C 245.481 739.021, 246.659 744, 249.081 744 C 251.149 744, 253.230 747.078, 252.180 748.581 C 250.932 750.368, 243.538 753.009, 240.501 752.753 C 236.191 752.389, 235.704 756.368, 239.662 759.606 C 241.223 760.883, 242.836 761.944, 243.248 761.964 C 245.539 762.074, 257.249 771.547, 266.881 781.083 C 274 788.132, 282.951 795.126, 285.955 795.987 C 296.271 798.946, 312.425 798.076, 323.500 793.967 C 326.250 792.946, 333 790.899, 338.500 789.416 C 350.568 786.163, 356.007 782.633, 359.380 775.865 C 360.697 773.221, 364.312 768.740, 367.412 765.907 C 372.613 761.153, 372.911 760.650, 371.274 759.385 C 370.298 758.631, 367.206 757.324, 364.401 756.480 C 361.597 755.636, 357.602 753.433, 355.523 751.584 C 351.779 748.253, 343.868 745, 339.511 745 C 338.268 745, 335.507 745.588, 333.376 746.308 C 329.195 747.718, 311.734 747.710, 297.500 746.290 C 290.297 745.571, 288.633 744.969, 280.799 740.246 C 272.247 735.090, 271.963 735.001, 264.299 735.042 C 258.558 735.073, 255.576 735.590, 253 737" stroke="#7699d1" fill="#7699d1" fill-opacity="0.2" fill-rule="evenodd"/><path class="svg-region-B" d="M 825.250 506.491 C 823.462 507.268, 822 508.361, 822 508.920 C 822 509.479, 819.603 511.707, 816.674 513.871 C 808.163 520.159, 798 530.989, 798 533.771 C 798 534.312, 797.337 535.305, 796.526 535.978 C 795.716 536.651, 794.765 538.736, 794.413 540.612 C 794.061 542.487, 793.386 544.262, 792.912 544.555 C 792.438 544.847, 790.196 548.780, 787.930 553.294 C 782.776 563.561, 779.549 567.866, 775.839 569.426 C 772.834 570.689, 759 589.742, 759 592.616 C 759 593.414, 757.888 596.261, 756.529 598.943 C 753.853 604.224, 753.512 606.979, 752.443 632 C 751.881 645.143, 752.046 648.412, 753.525 653.500 C 754.484 656.800, 755.564 664.694, 755.925 671.043 C 756.617 683.230, 757.869 686.780, 763.188 691.652 C 766.049 694.273, 767.480 694.702, 777.500 695.947 C 781.900 696.494, 787.579 697.380, 790.120 697.916 C 792.661 698.452, 797.836 699.140, 801.620 699.444 C 819.325 700.869, 831.857 702.860, 834.656 704.694 C 835.861 705.484, 838.343 706.161, 840.173 706.199 C 842.003 706.238, 844.715 706.884, 846.200 707.635 C 850.544 709.831, 853.687 709.255, 860.805 704.958 C 864.487 702.735, 869.970 700.197, 872.988 699.318 C 876.006 698.439, 879.156 697.371, 879.988 696.946 C 884.841 694.461, 892.705 691.931, 901.384 690.062 C 906.820 688.892, 912.329 687.100, 913.625 686.080 C 914.922 685.060, 917.516 683.938, 919.391 683.586 C 924.580 682.613, 925.317 681.084, 924.608 672.761 C 924.268 668.767, 923.721 660.100, 923.393 653.500 C 922.797 641.523, 922.800 641.495, 925.398 639.076 C 928.886 635.826, 928.924 632, 925.468 632 C 921.864 632, 916.672 634.366, 911.952 638.159 C 908.586 640.864, 907.725 641.176, 906.971 639.964 C 904.632 636.210, 903.900 621.883, 905.466 610.500 C 906.047 606.275, 907.136 603.422, 909.146 600.856 C 912.109 597.074, 912.744 593.259, 910.965 589.934 C 909.831 587.817, 907.015 587.385, 905.329 589.071 C 904.567 589.833, 903.642 589.361, 902.129 587.436 C 900.958 585.948, 900 584.177, 900 583.500 C 900 582.823, 899.157 581.197, 898.127 579.885 C 896.246 577.490, 894.332 568.453, 894.817 564.250 C 895.041 562.305, 894.612 562, 891.660 562 C 889.782 562, 887.746 561.399, 887.137 560.665 C 886.527 559.930, 884.197 558.725, 881.959 557.986 C 879.152 557.060, 876.340 554.856, 872.901 550.885 C 870.157 547.719, 866.987 544.986, 865.857 544.814 C 863.803 544.500, 863.803 544.497, 865.973 541.750 C 867.168 540.237, 868.736 539, 869.458 539 C 871.308 539, 874 534.557, 874 531.504 C 874 528.018, 871.785 527.429, 866.405 529.483 C 862.700 530.898, 861.115 531.015, 857.600 530.129 C 852.541 528.856, 847.776 529.922, 844.414 533.081 C 843.168 534.252, 841.703 534.934, 841.159 534.598 C 839.357 533.484, 836 521.172, 836 515.676 C 836 511.721, 835.444 509.562, 833.927 507.635 C 831.595 504.670, 829.941 504.452, 825.250 506.491" stroke="#e23b33" fill="#e23b33" fill-opacity="0.2" fill-rule="evenodd"/><path class="svg-region-Or" d="M 709.500 269.409 C 707.300 270.040, 703.669 271.524, 701.430 272.706 C 695.910 275.623, 686.362 285.353, 683.524 290.952 C 680.014 297.880, 675.191 314.347, 673.552 325 C 672.749 330.225, 671.621 336.072, 671.046 337.993 C 670.438 340.022, 670.003 351.969, 670.006 366.493 C 670.011 387.302, 670.277 392.004, 671.587 394.500 C 672.453 396.150, 673.792 401.373, 674.562 406.106 C 675.890 414.270, 676.375 415.335, 684.008 426.829 C 688.959 434.284, 693.864 440.400, 696.757 442.723 C 699.344 444.800, 703.494 448.524, 705.980 450.998 C 710.330 455.327, 710.725 455.496, 716.500 455.494 C 723.696 455.493, 727.538 453.752, 734.731 447.238 C 741.265 441.319, 745 436.278, 745 433.377 C 745 432.148, 745.653 430.490, 746.451 429.692 C 747.248 428.894, 748.218 426.980, 748.605 425.438 C 748.992 423.896, 750.332 421.126, 751.582 419.284 C 752.833 417.441, 754.139 414.486, 754.486 412.717 C 754.833 410.948, 755.493 408.600, 755.954 407.500 C 756.414 406.400, 757.325 402.800, 757.978 399.500 C 758.631 396.200, 759.625 391.475, 760.189 389 C 760.752 386.525, 761.454 374.504, 761.750 362.286 C 762.186 344.256, 761.979 338.418, 760.653 331.286 C 759.754 326.454, 758.778 320.858, 758.483 318.850 C 758.188 316.843, 757.284 314.651, 756.474 313.978 C 755.663 313.305, 755 311.908, 755 310.872 C 755 309.837, 752.188 304.898, 748.750 299.897 C 745.313 294.896, 740.700 287.950, 738.500 284.460 C 732.209 274.482, 723.130 267.809, 716.282 268.131 C 714.752 268.202, 711.700 268.778, 709.500 269.409" stroke="#aa444d" fill="#aa444d" fill-opacity="0.2" fill-rule="evenodd"/><path class="svg-region-VOC" d="M 508 494.735 C 505.182 495.818, 499.504 500.420, 494.765 505.462 C 490.343 510.167, 490.030 510.854, 490.015 515.856 C 490.003 520.123, 490.508 521.815, 492.500 524.182 C 493.875 525.816, 495.022 527.906, 495.049 528.827 C 495.075 529.747, 497.645 532.525, 500.759 535 C 503.874 537.475, 507.632 540.737, 509.112 542.250 C 513.522 546.757, 520.992 545.479, 521.008 540.215 C 521.013 538.722, 520.360 534.575, 519.558 531 C 516.822 518.809, 516 512.384, 516 503.190 L 516 494 512.750 494.079 C 510.962 494.122, 508.825 494.417, 508 494.735" stroke="#ff8f93" fill="#ff8f93" fill-opacity="0.2" fill-rule="evenodd"/><path class="svg-region-OABr" d="M 625.396 442.799 C 622.589 445.429, 619.491 449.269, 618.512 451.334 C 617.532 453.398, 614.767 456.696, 612.366 458.664 C 609.964 460.631, 608 462.807, 608 463.498 C 608 464.189, 607.375 465.274, 606.611 465.908 C 604.473 467.683, 604.028 472.153, 605.673 475.334 C 607.035 477.969, 606.996 478.380, 605.193 480.352 C 604.113 481.533, 602.913 483.542, 602.527 484.816 C 602.140 486.089, 600.581 488.564, 599.062 490.316 C 597.543 492.067, 596.009 494.700, 595.652 496.167 C 595.208 497.994, 593.757 499.411, 591.046 500.667 C 583.573 504.128, 583.370 511, 590.740 511 C 593.480 511, 595.020 510.181, 597.868 507.209 C 615.697 488.603, 616 488.228, 616 484.731 C 616 482.524, 616.746 480.635, 618.102 479.407 C 619.259 478.361, 620.884 476.154, 621.714 474.502 C 623.861 470.232, 629.074 465, 631.182 465 C 632.466 465, 633.289 463.739, 634.097 460.530 C 634.716 458.072, 635.847 455.542, 636.611 454.908 C 638.489 453.350, 638.367 448.498, 636.307 442.750 C 634.091 436.565, 632.039 436.574, 625.396 442.799" stroke="#81244d" fill="#81244d" fill-opacity="0.2" fill-rule="evenodd"/><path class="svg-region-SOTr" d="M 511.072 442.348 C 506.664 451.584, 506.299 453, 508.326 453 C 511.397 453, 514 457.497, 514 462.804 C 514 473.031, 520.323 484, 526.219 484 C 530.097 484, 535.627 481.566, 536.820 479.335 C 537.876 477.360, 536.917 465.196, 535.020 456.500 C 534.420 453.750, 533.656 449.539, 533.322 447.143 C 532.882 443.982, 531.699 441.717, 529.013 438.893 C 525.135 434.817, 523.259 434.256, 519.763 436.127 C 518.059 437.039, 517.419 436.926, 516.402 435.535 C 515.300 434.028, 514.642 434.869, 511.072 442.348" stroke="#995b45" fill="#995b45" fill-opacity="0.2" fill-rule="evenodd"/><path class="svg-region-BPCr" d="M 743.256 648.575 C 740.269 650.357, 739.064 651.821, 738.597 654.239 C 738.251 656.033, 736.400 660.650, 734.485 664.500 C 732.569 668.350, 731.002 672.022, 731.001 672.661 C 731 674.132, 736.723 679, 738.454 679 C 739.170 679, 740.334 679.698, 741.042 680.551 C 741.750 681.403, 743.446 681.966, 744.810 681.801 C 746.776 681.563, 747.554 680.609, 748.550 677.218 C 749.242 674.863, 750.336 672.300, 750.982 671.522 C 753.085 668.988, 750.985 647.592, 748.541 646.654 C 747.851 646.389, 745.472 647.254, 743.256 648.575 M 672.500 674.719 C 671.400 674.987, 669.825 675.784, 669 676.490 C 666.873 678.311, 654.119 681, 647.612 681 C 644.590 681, 641.872 681.398, 641.571 681.885 C 641.270 682.372, 641.504 684.147, 642.090 685.829 C 643.111 688.758, 643.354 688.868, 647.828 688.421 C 669.944 686.211, 677.801 685.627, 686.201 685.568 C 694.684 685.509, 696.092 685.249, 697.417 683.500 C 699.505 680.744, 698.814 679.441, 695.463 679.816 C 692.197 680.182, 684.717 677.569, 682.956 675.447 C 681.792 674.045, 676.718 673.692, 672.500 674.719 M 913.891 685.873 C 910.926 687.453, 906.475 689.068, 904 689.461 C 901.525 689.855, 897.025 690.875, 894 691.728 C 888.753 693.208, 887.262 693.768, 878.849 697.417 C 876.841 698.287, 874.578 699, 873.821 699 C 872.596 699, 863.792 703.187, 855.546 707.691 C 853.044 709.058, 851.974 709.118, 848.546 708.083 C 846.321 707.412, 842.724 706.662, 840.554 706.417 C 838.383 706.173, 835.658 705.351, 834.497 704.590 C 833.337 703.830, 828.813 702.685, 824.444 702.047 C 820.075 701.408, 814.925 700.637, 813 700.332 C 811.075 700.028, 806.350 699.613, 802.500 699.409 C 798.650 699.206, 793.250 698.567, 790.500 697.991 C 787.750 697.414, 782.125 696.515, 778 695.993 C 766.368 694.523, 765.249 694.109, 761.707 689.971 C 758.666 686.418, 757.854 686.042, 751.945 685.455 C 740.332 684.301, 738.431 686.354, 741.511 696.724 C 743.223 702.489, 745.109 704.636, 757.597 715.034 C 759.271 716.428, 761.959 719.996, 763.570 722.963 C 765.789 727.051, 767.955 729.296, 772.500 732.221 C 778.172 735.872, 783.265 741.349, 784.626 745.261 C 785.336 747.302, 786.522 747.638, 798 749.051 C 813.414 750.950, 814.483 751.117, 816.500 751.945 C 831.044 757.916, 868.301 756.644, 881.532 749.725 C 884.928 747.949, 909.151 723.404, 916.914 713.872 C 919.768 710.367, 923.178 706.284, 924.491 704.798 C 928.157 700.650, 929 698.531, 929 693.467 C 929 689.538, 928.510 688.345, 925.894 685.901 C 922.026 682.288, 920.623 682.285, 913.891 685.873" stroke="#83385f" fill="#83385f" fill-opacity="0.2" fill-rule="evenodd"/><path class="svg-region-AMC" d="M 507.935 733.601 C 506.596 734.368, 504.375 735.454, 503 736.013 C 494.722 739.379, 492.165 743.158, 492.056 752.185 C 491.989 757.814, 493.313 761.640, 496.493 765 C 497.794 766.375, 499.732 769.735, 500.799 772.466 C 502.866 777.758, 502.879 777.770, 510.441 781.175 C 515.515 783.460, 518.722 786.310, 530 798.560 C 533.575 802.443, 538.451 806.863, 540.836 808.381 C 544.853 810.939, 545.772 811.112, 553.336 810.729 C 564.283 810.175, 574.652 807.260, 578.750 803.585 C 582.469 800.249, 582.885 798.956, 579.995 799.712 C 577.308 800.414, 575.071 798.393, 572.757 793.175 C 570.290 787.610, 555.868 773.184, 549.424 769.836 C 546.716 768.429, 543.600 765.882, 542.500 764.176 C 541.400 762.469, 539.271 759.099, 537.769 756.686 C 535.777 753.485, 533.343 751.402, 528.769 748.982 C 522.514 745.673, 517.272 740.848, 514.525 735.871 C 512.645 732.466, 510.940 731.878, 507.935 733.601" stroke="#9d4741" fill="#9d4741" fill-opacity="0.2" fill-rule="evenodd"/>
    </svg>