<svg xmlns="http://www.w3.org/2000/svg" width="1078" height="1151" viewBox="0 0 1078 1151" version="1.1">
    <path class="svg-region-V" d="M 483.500 189.197 C 465.789 190.748, 453.386 195.618, 434.500 208.437 C 430.650 211.050, 425.757 214.083, 423.626 215.178 C 410.021 222.165, 399.528 234.654, 389.371 255.950 C 386.341 262.302, 381.908 271.550, 379.521 276.500 C 377.134 281.450, 373.069 292.158, 370.488 300.294 C 367.732 308.984, 364.807 316.265, 363.398 317.939 C 362.012 319.586, 361 322.079, 361 323.844 C 361 325.558, 359.476 329.430, 357.530 332.661 C 355.621 335.829, 353.770 340.464, 353.417 342.961 C 352.802 347.311, 348.581 359.411, 346.949 361.502 C 346.519 362.053, 346.167 367.387, 346.167 373.354 C 346.167 381.786, 346.680 385.919, 348.469 391.898 C 350.884 399.965, 357.658 414.390, 361.432 419.500 C 362.650 421.150, 363.955 423.334, 364.332 424.354 C 364.737 425.450, 365.613 425.979, 366.476 425.647 C 367.279 425.339, 368.177 425.477, 368.471 425.953 C 369.045 426.882, 372.837 427.200, 385.500 427.384 C 391.195 427.467, 394.434 427.019, 396.740 425.832 C 398.522 424.914, 401.418 423.848, 403.175 423.461 C 405.091 423.041, 408.466 420.664, 411.603 417.528 C 418.212 410.919, 419.637 406.378, 420.446 389.345 C 421.361 370.091, 423.290 362.150, 429.193 353.333 C 430.727 351.041, 432.621 346.766, 433.402 343.833 C 434.182 340.900, 435.986 335.900, 437.410 332.721 C 438.835 329.543, 440 326.103, 440 325.077 C 440 321.745, 454.836 309.466, 464.416 304.870 C 474.604 299.981, 480.344 299.134, 487.956 301.394 C 490.930 302.277, 495.952 303, 499.116 303 C 506.939 303, 509.057 303.994, 516.515 311.165 C 521.758 316.207, 523.365 318.540, 525.222 323.814 C 527.927 331.493, 534.120 338.911, 540.338 341.921 C 546.680 344.992, 556.045 344.779, 562.805 341.410 C 570.683 337.484, 575.237 331.008, 577.510 320.500 C 578.270 316.989, 586.375 309, 589.179 309 C 591.499 309, 598.345 305.637, 602.754 302.332 C 607.415 298.837, 615 286.430, 615 282.300 C 615 281.416, 613.650 277.836, 612 274.344 C 610.350 270.852, 609 267.537, 609 266.977 C 609 266.418, 607.806 264.068, 606.346 261.755 C 604.886 259.443, 602.688 255.289, 601.461 252.525 C 598.347 245.508, 585.386 232.773, 577 228.492 C 575.075 227.509, 571.700 225.252, 569.500 223.477 C 567.300 221.702, 563.925 219.452, 562 218.477 C 560.075 217.502, 556.700 215.272, 554.500 213.522 C 552.300 211.771, 547.800 208.860, 544.500 207.053 C 541.200 205.245, 537.825 203.198, 537 202.503 C 536.175 201.808, 531.225 199.560, 526 197.507 C 520.775 195.455, 515.150 193.185, 513.500 192.464 C 510.110 190.981, 496.790 187.916, 494.803 188.161 C 494.086 188.249, 489 188.715, 483.500 189.197" stroke="#dd8a8a" fill="#dd8a8a" fill-opacity="0.2" fill-rule="evenodd"/><path class="svg-region-SV" d="M 471 301.880 C 458.756 306.573, 455.117 308.984, 443.356 320.192 C 441.627 321.840, 439.932 324.609, 439.590 326.344 C 439.248 328.080, 437.899 331.750, 436.593 334.500 C 435.286 337.250, 433.936 341.075, 433.593 343 C 433.249 344.925, 431.868 348.300, 430.524 350.500 C 423.222 362.446, 421.614 368.847, 420.212 391.546 C 419.221 407.586, 417.385 412.803, 410.725 418.504 C 407.063 421.638, 407.011 421.770, 409.216 422.361 C 414.328 423.730, 418.087 422.973, 423.019 419.581 C 425.753 417.700, 429.443 415.842, 431.219 415.452 C 432.994 415.062, 436.137 413.676, 438.204 412.371 C 440.270 411.067, 443.207 409.983, 444.730 409.962 C 446.840 409.933, 448.334 408.812, 451 405.253 C 452.925 402.684, 456.135 398.876, 458.132 396.791 C 461.378 393.404, 462.291 393, 466.710 393 C 473.093 393, 483.425 388.863, 488 384.475 C 491.911 380.725, 495.704 379, 500.038 379 C 501.638 379, 504.871 378.136, 507.223 377.081 C 513.436 374.293, 524.599 371, 527.839 371 C 531.881 371, 541.068 373.908, 543.790 376.049 C 545.074 377.060, 547.725 378.414, 549.681 379.060 C 554.306 380.586, 554.965 379.551, 554.985 370.732 C 555 363.879, 557.860 351.105, 560.538 345.927 C 562.503 342.127, 562.414 341.892, 559.435 343.025 C 554.873 344.759, 545.019 344.188, 540.327 341.916 C 534.414 339.054, 528.696 332.219, 525.518 324.213 C 522.769 317.292, 517.834 311.227, 510.600 305.882 C 507.212 303.378, 505.817 303, 499.976 303 C 496.277 303, 491.338 302.325, 489 301.500 C 483.513 299.564, 476.665 299.708, 471 301.880" stroke="#c666b5" fill="#c666b5" fill-opacity="0.2" fill-rule="evenodd"/><path class="svg-region-SF" d="M 614.200 285.200 C 613.540 285.860, 612.992 287.097, 612.982 287.950 C 612.956 290.113, 607.567 297.927, 603.714 301.387 C 600.386 304.376, 591.551 308.973, 589.103 308.990 C 588.335 308.996, 585.759 310.595, 583.379 312.546 C 579.877 315.415, 578.676 317.310, 577.078 322.484 C 574.521 330.761, 570.934 336.354, 566.151 339.519 C 557.201 345.442, 551.772 370.701, 557.089 381.684 C 559.015 385.662, 559.480 386, 563.024 386 C 565.139 386, 568.137 386.476, 569.685 387.058 C 574.081 388.712, 583.635 395.035, 589.538 400.199 C 597.921 407.533, 605.858 408.664, 615.265 403.865 C 620.318 401.287, 626.783 401.796, 628.872 404.937 C 630.446 407.304, 633.802 407.679, 634.608 405.578 C 634.908 404.796, 634.603 403.127, 633.930 401.869 C 633.247 400.594, 632.540 394.479, 632.329 388.041 C 632.122 381.694, 631.449 374.836, 630.834 372.803 C 630.009 370.078, 630.008 365.868, 630.830 356.803 C 632.917 333.776, 633.037 329.753, 631.977 318.625 C 630.991 308.271, 629.937 304.345, 626.442 298 C 625.684 296.625, 624.281 293.925, 623.324 292 C 621.192 287.712, 618.037 284, 616.526 284 C 615.907 284, 614.860 284.540, 614.200 285.200" stroke="#8c6b55" fill="#8c6b55" fill-opacity="0.2" fill-rule="evenodd"/><path class="svg-region-PF" d="M 553.607 379.582 C 552.533 382.382, 552.959 387.692, 554.494 390.636 C 555.315 392.211, 555.990 395.115, 555.994 397.089 C 555.999 399.816, 556.781 401.441, 559.250 403.853 C 561.038 405.598, 563.288 407.920, 564.250 409.013 C 566.590 411.670, 571.413 411.556, 575.339 408.750 C 579.344 405.888, 584.594 404.034, 588.750 404.015 C 590.538 404.007, 592 403.638, 592 403.196 C 592 401.885, 585.938 396.626, 579.375 392.245 C 573.295 388.186, 568.262 386.250, 562.500 385.757 C 560.179 385.558, 559.048 384.652, 557.500 381.753 C 555.303 377.636, 554.521 377.200, 553.607 379.582" stroke="#faaaaa" fill="#faaaaa" fill-opacity="0.2" fill-rule="evenodd"/><path class="svg-region-AAB" d="M 632.500 433.849 C 630.850 434.863, 628.973 437.119, 628.330 438.864 C 627.276 441.722, 627.417 442.342, 629.756 445.122 C 631.632 447.351, 632.476 449.693, 632.796 453.558 C 633.332 460.020, 632.703 462.868, 630.131 465.629 C 629.060 466.778, 627.224 469.601, 626.051 471.901 C 623.373 477.150, 616.842 483.750, 612.552 485.543 C 610.558 486.376, 608.787 488.099, 608.019 489.955 C 607.325 491.630, 606.438 493, 606.047 493 C 605.656 493, 603.874 495.258, 602.086 498.017 C 597.825 504.593, 591.261 509.510, 584.731 511.017 C 579.042 512.330, 572.451 515.712, 569.862 518.646 C 566.319 522.664, 562.818 533.337, 562.277 541.772 C 561.784 549.458, 561.958 550.484, 564.728 556.272 C 566.368 559.697, 568.251 563.892, 568.911 565.593 C 569.572 567.294, 572.275 570.816, 574.919 573.420 C 578.593 577.039, 580.678 578.281, 583.775 578.697 C 587.433 579.187, 588.179 578.888, 591.455 575.612 C 595.962 571.105, 607.844 565.013, 612.225 564.962 C 615.766 564.922, 622.541 561.673, 631.364 555.784 C 635.386 553.100, 637.630 550.690, 639.447 547.105 C 640.830 544.375, 642.431 541.852, 643.003 541.498 C 644.968 540.284, 651.177 526.498, 653.137 519 C 656.257 507.060, 656.991 502.410, 658.185 487 C 659.818 465.930, 659.778 465.163, 656.723 459.054 C 655.226 456.058, 654 453.019, 654 452.300 C 654 451.581, 653.100 449.314, 652 447.261 C 650.900 445.209, 650 442.848, 650 442.014 C 650 441.181, 648.252 438.587, 646.116 436.250 C 641.669 431.385, 637.663 430.679, 632.500 433.849" stroke="#7f3c1a" fill="#7f3c1a" fill-opacity="0.2" fill-rule="evenodd"/><path class="svg-region-APB" d="M 616 403.458 C 614.625 404.283, 611.793 405.440, 609.706 406.029 C 607.051 406.779, 605.610 407.895, 604.906 409.748 C 603.294 413.987, 597.662 418.754, 592.873 419.933 C 585.132 421.839, 580.193 425.086, 571.906 433.718 C 565.320 440.578, 562.945 443.959, 559.288 451.679 C 556.420 457.734, 554.490 463.428, 553.977 467.345 C 553.534 470.730, 551.969 477.100, 550.498 481.500 C 546.689 492.900, 546.792 498.876, 550.940 507 C 552.765 510.575, 555.550 515.140, 557.129 517.144 C 558.708 519.148, 560 521.308, 560 521.944 C 560 523.817, 562.966 529, 564.038 529 C 564.581 529, 566.106 526.557, 567.426 523.572 C 570.277 517.124, 574.954 513.600, 583.655 511.344 C 591.457 509.320, 595.385 506.753, 600.070 500.619 C 602.220 497.803, 604.955 494.285, 606.149 492.800 C 610.851 486.952, 611.004 486.008, 607.250 485.978 C 605.737 485.966, 603.464 485.158, 602.197 484.184 L 599.895 482.412 601.976 477.556 C 603.121 474.886, 604.459 471.081, 604.949 469.100 C 607.012 460.773, 610.879 451.984, 614.336 447.765 C 616.423 445.219, 617.791 442.619, 617.476 441.799 C 616.588 439.483, 618.753 435, 620.760 435 C 621.755 435, 623.366 436.350, 624.341 438 C 626.499 441.653, 627.339 441.746, 628.819 438.498 C 630.709 434.351, 635.787 431.801, 640.878 432.444 L 645.255 432.997 644.623 428.748 C 643.686 422.447, 636.872 409.812, 633.434 408 C 631.868 407.175, 629.875 405.668, 629.004 404.651 C 626.878 402.167, 619.308 401.472, 616 403.458" stroke="#ac7444" fill="#ac7444" fill-opacity="0.2" fill-rule="evenodd"/><path class="svg-region-PC" d="M 540.776 498.922 C 534.739 504.439, 533.411 504.910, 531.392 502.250 C 530.160 500.627, 530.061 500.661, 530.032 502.720 C 530.014 503.940, 529.100 506.542, 528 508.500 C 526.373 511.396, 526 513.914, 526 521.992 C 526 531.313, 525.780 532.388, 522.422 539.462 C 519.892 544.792, 518.308 547, 517.016 547 C 515.587 547, 515.042 548.063, 514.519 551.860 C 513.902 556.347, 514.164 557.233, 517.925 563.378 C 520.166 567.039, 522 570.382, 522 570.805 C 522 571.229, 524.270 573.808, 527.044 576.538 L 532.087 581.500 545.294 581.203 C 552.557 581.040, 560.075 580.375, 562 579.725 C 563.925 579.075, 568.159 578.533, 571.409 578.521 C 574.659 578.510, 577.472 578.049, 577.660 577.498 C 577.847 576.948, 576.004 574.352, 573.562 571.731 C 571.121 569.109, 568.826 565.960, 568.462 564.732 C 568.098 563.504, 566.495 559.841, 564.900 556.590 C 562.588 551.879, 562.001 549.344, 562.006 544.090 C 562.009 540.466, 562.477 535.824, 563.045 533.776 C 563.851 530.874, 563.763 529.549, 562.644 527.776 C 561.854 526.524, 560.876 524.375, 560.471 523 C 560.065 521.625, 558.503 518.925, 557 517 C 553.412 512.407, 550.061 505.769, 547.998 499.172 L 546.332 493.844 540.776 498.922" stroke="#cda789" fill="#cda789" fill-opacity="0.2" fill-rule="evenodd"/><path class="svg-region-DB" d="M 517.500 373.177 C 514.200 374.302, 509.575 376.072, 507.223 377.111 C 504.871 378.150, 501.638 379, 500.038 379 C 495.727 379, 492.258 380.603, 487.495 384.795 C 482.483 389.207, 472.447 393.025, 465.898 393.010 C 462.211 393.002, 460.720 393.555, 458.398 395.793 C 456.804 397.330, 454.913 399.692, 454.195 401.043 C 451.565 405.996, 447.117 410, 444.246 410 C 442.716 410, 439.809 411.125, 437.785 412.500 C 435.762 413.875, 433.385 415, 432.503 415 C 430.476 415, 425.445 417.529, 421.295 420.635 C 418.541 422.696, 417.133 422.999, 411.295 422.787 C 405.813 422.588, 403.211 423.068, 397.829 425.270 C 390.773 428.158, 383.290 428.804, 377.186 427.053 C 371.960 425.555, 371.327 426.284, 371.778 433.285 C 372.360 442.314, 374.602 450.254, 379.094 459.186 C 382.044 465.054, 383.327 469.147, 384.137 475.278 C 384.735 479.800, 386.299 485.793, 387.612 488.596 C 388.926 491.400, 390 494.185, 390 494.787 C 390 495.388, 391.242 498.275, 392.761 501.202 C 394.617 504.779, 396.052 506.421, 397.140 506.212 C 398.029 506.040, 399.550 506.693, 400.519 507.662 C 402.473 509.616, 403.283 509.697, 427 510.316 C 436.075 510.553, 444.767 511.254, 446.315 511.874 C 449.699 513.227, 461.330 513.368, 463.764 512.084 C 469.910 508.842, 474.416 507.601, 481.500 507.202 C 489.377 506.757, 489.566 506.684, 493.797 502.427 C 501.159 495.022, 504.152 493.658, 511.707 494.265 C 519.648 494.902, 522.030 497.089, 523.904 505.460 C 524.586 508.507, 525.550 511, 526.046 511 C 527.706 511, 530 505.146, 530 500.909 C 530 496.210, 526.945 489.151, 522.775 484.215 C 521.249 482.409, 520 480.496, 520 479.965 C 520 479.434, 519.170 479, 518.155 479 C 515.442 479, 513 475.787, 513 472.218 C 513 468.427, 514.886 464, 516.500 464 C 517.149 464, 518.285 462.165, 519.026 459.922 C 519.766 457.679, 521.652 454.867, 523.218 453.672 C 524.783 452.478, 528.116 449.587, 530.624 447.250 C 535.539 442.668, 538.509 441.879, 539.468 444.900 C 539.965 446.465, 540.752 446.709, 543.933 446.282 C 547.565 445.795, 547.894 445.974, 549.474 449.305 C 550.398 451.252, 551.795 453.091, 552.577 453.391 C 553.532 453.758, 554.002 455.510, 554.005 458.719 L 554.010 463.500 558.388 453.792 C 563.250 443.010, 566.032 439.102, 574.641 430.957 C 582.040 423.957, 586.441 421.273, 591.965 420.390 C 597.049 419.577, 603.264 414.551, 604.864 409.959 C 605.762 407.385, 605.659 407, 604.074 407 C 603.071 407, 600.282 406.273, 597.876 405.384 C 590.600 402.696, 579.704 404.403, 574.766 409.004 C 572.006 411.574, 566.575 411.624, 564.250 409.100 C 556.536 400.727, 556 399.926, 555.994 396.777 C 555.990 394.975, 555.315 392.211, 554.494 390.636 C 553.672 389.060, 553 386.058, 553 383.963 C 553 380.511, 552.679 380.049, 549.562 379.021 C 547.672 378.397, 544.956 376.967, 543.528 375.844 C 540.485 373.450, 531.991 371.001, 527 371.078 C 525.075 371.108, 520.800 372.053, 517.500 373.177" stroke="#e8b1e4" fill="#e8b1e4" fill-opacity="0.2" fill-rule="evenodd"/><path class="svg-region-MB" d="M 474.500 507.715 C 472.384 508.225, 466.672 510.550, 463.764 512.084 C 461.258 513.406, 449.255 513.211, 446.684 511.807 C 445.302 511.053, 438.811 510.554, 429 510.450 C 420.475 510.359, 411.465 509.948, 408.979 509.538 L 404.457 508.791 404.376 516.145 C 404.331 520.190, 403.965 524.874, 403.563 526.554 C 402.945 529.129, 403.316 530.126, 405.926 532.920 C 407.628 534.743, 409.277 537.418, 409.592 538.867 C 410.458 542.861, 412.159 547, 412.934 547 C 413.724 547, 417.596 555.541, 418.576 559.447 C 418.936 560.882, 420.754 563.492, 422.615 565.248 C 424.477 567.003, 426 569.004, 426 569.694 C 426 570.384, 427.613 574.074, 429.584 577.895 C 432.087 582.747, 433.441 587.022, 434.075 592.071 C 434.795 597.808, 435.447 599.630, 437.232 600.900 C 440.498 603.224, 451.591 605.882, 458.285 605.946 C 464.486 606.004, 463.461 606.461, 495.500 589.371 L 506.500 583.503 517.750 583.604 C 523.938 583.660, 529 583.322, 529 582.853 C 529 582.384, 529.772 582, 530.716 582 C 531.917 582, 530.927 580.426, 527.411 576.750 C 524.650 573.862, 521.741 570.150, 520.946 568.500 C 520.151 566.850, 518.230 563.587, 516.678 561.249 C 514.145 557.433, 513.925 556.447, 514.528 551.625 C 515.137 546.745, 514.986 546.104, 512.877 544.626 C 511.600 543.732, 509.868 542.978, 509.027 542.950 C 506.904 542.882, 496 528.023, 491.542 519.123 C 489.020 514.088, 488.036 510.993, 488.443 509.373 C 489.024 507.056, 488.889 507.003, 482.769 507.116 C 479.321 507.180, 475.600 507.449, 474.500 507.715" stroke="#f9c6c6" fill="#f9c6c6" fill-opacity="0.2" fill-rule="evenodd"/><path class="svg-region-AP" d="M 562.500 580 C 561.400 580.473, 557.125 580.898, 553 580.945 C 548.875 580.992, 544.865 581.432, 544.089 581.924 C 542.919 582.665, 542.795 585.850, 543.362 600.658 C 544.079 619.356, 544.707 625.726, 547.539 643 C 548.802 650.701, 549.223 658.698, 549.117 673 L 548.972 692.500 551.894 697.500 C 553.501 700.250, 556.320 704.136, 558.158 706.135 C 559.996 708.134, 562.366 711.284, 563.425 713.135 C 568.737 722.418, 570.034 723.871, 575.203 726.319 C 578.116 727.699, 581.490 729.884, 582.699 731.174 C 585.674 734.348, 590 744.359, 590 748.068 C 590 749.725, 590.900 752.844, 592 755 C 593.100 757.156, 594 759.838, 594 760.960 C 594 763.343, 595.704 763.538, 598.441 761.468 C 601.103 759.455, 610.586 759.479, 611.362 761.500 C 611.678 762.325, 612.778 763, 613.805 763 C 614.832 763, 617.658 764.538, 620.086 766.417 C 626.796 771.612, 641.703 773.756, 648.101 770.448 C 649.786 769.576, 654.919 768.662, 659.802 768.363 C 664.586 768.070, 670.197 767.193, 672.270 766.415 C 674.344 765.637, 678.521 765, 681.552 765 C 684.584 765, 688.680 764.325, 690.654 763.500 C 692.629 762.675, 695.709 762, 697.500 762 C 702.100 762, 703.376 759.874, 703.715 751.644 C 703.935 746.301, 703.521 743.359, 702.073 739.975 C 701.009 737.486, 699.640 731.411, 699.031 726.475 C 698.422 721.539, 697.452 714.575, 696.874 711 C 696.210 706.887, 696.166 703.602, 696.756 702.056 C 697.386 700.404, 697.257 698.183, 696.359 695.198 C 695.287 691.635, 695.264 689.553, 696.243 684.392 C 696.910 680.877, 697.803 678, 698.228 678 C 700.988 678, 696.290 656.157, 691.609 647.224 L 690.378 644.874 689.239 647.374 C 688.035 650.016, 682.415 653.916, 669.877 660.809 C 662.835 664.681, 661.682 665, 654.751 665 C 645.407 665, 638.679 662.265, 628.100 654.165 C 618.976 647.179, 605.040 638.498, 600.594 637.031 C 598.769 636.429, 594.626 634.323, 591.388 632.352 C 586.115 629.142, 584.821 628.782, 579 628.907 C 574.026 629.013, 571.723 628.565, 569.190 627.001 C 565.690 624.839, 562.533 618.895, 563.309 615.928 C 563.563 614.956, 562.711 612.437, 561.417 610.330 C 555.804 601.199, 560.521 589.623, 571.306 586.064 C 573.153 585.455, 576.266 584.139, 578.225 583.140 L 581.786 581.325 578.572 580.162 C 574.880 578.827, 565.451 578.732, 562.500 580" stroke="#fc7143" fill="#fc7143" fill-opacity="0.2" fill-rule="evenodd"/><path class="svg-region-PP" d="M 530.750 581.692 C 529.788 581.942, 529 582.485, 529 582.899 C 529 583.313, 523.526 583.618, 516.835 583.576 C 507.937 583.520, 504.557 583.836, 504.251 584.750 C 504.022 585.438, 503.153 586, 502.321 586 C 501.489 586, 499.614 586.845, 498.154 587.879 C 496.694 588.912, 488.193 593.412, 479.262 597.879 C 465.772 604.625, 462.217 606, 458.262 606.003 C 452.407 606.006, 440.065 603.183, 437.921 601.350 C 435.834 599.565, 433.354 599.635, 432.638 601.500 C 432.322 602.325, 431.419 603, 430.633 603 C 429.847 603, 426.637 604.350, 423.500 606 C 420.363 607.650, 416.488 609, 414.888 609 C 411.830 609, 407.676 610.647, 394.500 617.085 C 390.100 619.234, 384.475 621.288, 382 621.649 C 379.525 622.009, 377.169 622.798, 376.765 623.402 C 374.408 626.925, 377.836 645.152, 381.939 650.914 C 383.073 652.506, 384 654.217, 384 654.717 C 384 655.216, 384.900 657.487, 386 659.764 C 387.100 662.041, 388 664.574, 388 665.393 C 388 666.212, 388.389 667.123, 388.865 667.417 C 389.341 667.711, 389.964 669.695, 390.250 671.826 C 390.892 676.615, 398.811 701.129, 400.159 702.500 C 400.811 703.163, 401.784 702.714, 403.049 701.167 C 405.039 698.731, 409.679 697.617, 423.006 696.373 C 428.516 695.859, 430.396 696.138, 435.275 698.196 C 441.446 700.799, 454.419 711.594, 455.512 715.037 C 455.866 716.152, 457.245 718.241, 458.578 719.678 C 459.910 721.116, 461.077 723.689, 461.171 725.396 C 461.265 727.103, 461.391 729.258, 461.452 730.185 C 461.512 731.112, 463.010 733.673, 464.780 735.876 C 466.551 738.080, 468 741.012, 468 742.392 C 468 743.772, 468.604 745.260, 469.343 745.700 C 470.081 746.140, 471.480 747.733, 472.451 749.240 C 474.053 751.725, 474.067 752.037, 472.608 752.597 C 469.602 753.750, 470.986 755.600, 476.250 757.466 C 479.137 758.490, 483.750 760.562, 486.500 762.071 C 489.250 763.580, 493.975 765.800, 497 767.004 C 500.025 768.208, 504.300 769.913, 506.500 770.793 C 508.700 771.672, 511.735 773.232, 513.244 774.260 C 514.893 775.382, 517.260 776.002, 519.175 775.814 L 522.363 775.500 517.681 769.764 C 515.107 766.609, 513 763.652, 513 763.192 C 513 762.732, 511.663 760.589, 510.028 758.428 C 506.355 753.574, 506.319 752.466, 509.675 747.528 L 512.349 743.592 505.675 737.483 C 502.004 734.122, 499.018 730.726, 499.039 729.936 C 499.082 728.364, 506.056 722.793, 512.401 719.262 C 516.303 717.091, 517.001 717.043, 535.961 717.651 C 549.048 718.071, 556.368 718.715, 558.130 719.602 C 564.491 722.806, 573.281 724.825, 569.421 722.196 C 568.436 721.525, 562 711.416, 562 710.541 C 562 710.304, 560.396 708.399, 558.434 706.306 C 556.473 704.213, 553.543 700.250, 551.922 697.500 L 548.974 692.500 549.111 672.500 C 549.212 657.819, 548.807 649.973, 547.588 643 C 545.263 629.701, 543.068 605.496, 543.031 592.750 L 543 582 539.082 582 C 536.927 582, 534.564 581.828, 533.832 581.619 C 533.099 581.409, 531.712 581.442, 530.750 581.692" stroke="#c4743d" fill="#c4743d" fill-opacity="0.2" fill-rule="evenodd"/><path class="svg-region-LPr" d="M 618.720 573.493 C 616.091 574.216, 612.475 575.926, 610.683 577.292 C 607.718 579.554, 606.355 579.810, 595.463 580.152 C 585.783 580.455, 582.641 580.939, 579 582.687 C 576.525 583.876, 572.706 585.579, 570.514 586.472 C 560.403 590.590, 555.876 601.365, 560.839 609.503 C 561.846 611.155, 562.937 614.491, 563.262 616.917 C 564.416 625.521, 568.962 628.963, 579.200 628.985 C 584.843 628.998, 586.578 629.443, 590.200 631.811 C 592.565 633.357, 596.525 635.487, 599 636.545 C 607.285 640.087, 619.444 647.329, 625.403 652.271 C 637.498 662.304, 643.994 665.033, 655.533 664.927 C 661.574 664.871, 664.225 664.392, 666.500 662.942 C 668.150 661.890, 670.437 660.613, 671.582 660.104 C 677.181 657.612, 688.166 649.580, 689.499 647.002 C 690.325 645.405, 691 642.521, 691 640.592 C 691 637.892, 691.884 636.155, 694.839 633.048 C 696.951 630.829, 699.470 627.543, 700.437 625.746 C 701.405 623.949, 703.902 621.254, 705.986 619.756 C 716.164 612.439, 709.305 604.344, 690.821 601.856 C 684.936 601.064, 680.907 599.827, 676.559 597.477 C 673.227 595.675, 669.395 593.871, 668.044 593.468 C 664.808 592.502, 655.157 585.876, 652 582.453 C 650.625 580.962, 645.924 578, 641.553 575.871 C 632.782 571.599, 627.579 571.057, 618.720 573.493" stroke="#d2454f" fill="#d2454f" fill-opacity="0.2" fill-rule="evenodd"/><path class="svg-region-AVCr" d="M 696.181 684.773 C 695.144 690.384, 695.167 692.229, 696.315 695.523 C 697.314 698.391, 697.426 700.308, 696.718 702.398 C 696.061 704.335, 696.094 707.484, 696.817 711.898 C 697.413 715.529, 698.411 722.325, 699.035 727 C 699.660 731.675, 701.090 737.642, 702.213 740.261 C 703.854 744.086, 704.126 746.170, 703.595 750.861 C 702.781 758.055, 704.139 759.844, 709.098 758.116 C 710.824 757.514, 713.245 757.274, 714.477 757.583 C 715.708 757.893, 718.410 757.438, 720.480 756.573 C 722.550 755.708, 725.738 755, 727.563 755 C 729.388 755, 731.132 754.596, 731.437 754.102 C 731.742 753.608, 735.256 752.880, 739.246 752.483 C 743.236 752.087, 749.650 750.528, 753.500 749.019 C 757.350 747.510, 763.650 745.282, 767.500 744.068 C 771.350 742.853, 776.750 740.810, 779.500 739.527 C 782.250 738.243, 786.684 736.396, 789.354 735.421 C 797.905 732.299, 799.282 728.820, 793.525 724.879 C 791.614 723.571, 789.790 721.375, 789.472 720 C 788.391 715.337, 782.379 706.513, 778.354 703.683 C 774.241 700.790, 773.435 700.622, 751 697.962 C 737.929 696.413, 728.182 694.251, 723.864 691.943 C 721.864 690.874, 719.283 690, 718.129 690 C 715.162 690, 706.880 684.682, 704.199 681.055 C 702.843 679.221, 701.040 678, 699.687 678 C 697.695 678, 697.289 678.784, 696.181 684.773" stroke="#ffbab9" fill="#ffbab9" fill-opacity="0.2" fill-rule="evenodd"/><path class="svg-region-DMr" d="M 416.500 697 C 414.850 697.420, 411.620 697.817, 409.323 697.882 C 404.811 698.009, 401.575 700.859, 400.336 705.797 C 399.525 709.030, 403.592 717.398, 410.260 726.214 C 414.898 732.347, 415.730 732.987, 419.874 733.608 C 425.595 734.466, 430.629 736.787, 446.483 745.878 C 451.200 748.583, 456.976 751.069, 459.379 751.430 C 461.772 751.788, 464.578 752.724, 465.615 753.509 C 468.192 755.460, 469.712 755.347, 472.212 753.017 C 474.317 751.056, 474.320 751.009, 472.420 748.767 C 471.364 747.520, 469.938 746.140, 469.250 745.700 C 468.563 745.260, 468 743.772, 468 742.392 C 468 741.012, 466.675 738.222, 465.055 736.191 C 462.998 733.614, 461.895 730.855, 461.399 727.049 C 460.923 723.397, 459.941 720.850, 458.422 719.331 C 457.175 718.084, 455.898 716.253, 455.583 715.260 C 454.342 711.351, 443.023 701.662, 435.772 698.303 C 430.639 695.925, 422.807 695.395, 416.500 697" stroke="#68533d" fill="#68533d" fill-opacity="0.2" fill-rule="evenodd"/><path class="svg-region-VMr" d="M 511.963 719.223 C 509.508 720.424, 507.342 721.787, 507.150 722.254 C 506.957 722.720, 505.045 724.209, 502.900 725.563 C 500.072 727.349, 499 728.709, 499 730.513 C 499 731.881, 499.424 733, 499.943 733 C 500.462 733, 503.499 735.407, 506.693 738.350 C 509.887 741.292, 514.402 744.891, 516.728 746.348 C 519.053 747.805, 523.298 750.770, 526.161 752.937 C 530.883 756.511, 538.640 760.703, 549.500 765.550 C 551.700 766.532, 554.175 767.890, 555 768.569 C 556.259 769.604, 564.231 773.958, 577.192 780.690 C 578.673 781.459, 581.965 784.054, 584.507 786.456 C 587.137 788.940, 589.310 790.322, 589.547 789.661 C 589.777 789.023, 590.869 784.675, 591.975 780 C 594.608 768.871, 594.617 760.129, 592 755 C 590.900 752.844, 590 749.288, 590 747.099 C 590 744.909, 589.585 742.861, 589.077 742.548 C 588.569 742.234, 587.876 740.713, 587.537 739.168 C 586.064 732.463, 576.436 725.341, 564.500 722.127 C 562.300 721.534, 559.600 720.430, 558.500 719.672 C 557.050 718.674, 550.989 718.122, 536.463 717.668 C 517.226 717.065, 516.247 717.128, 511.963 719.223" stroke="#e59376" fill="#e59376" fill-opacity="0.2" fill-rule="evenodd"/><path class="svg-region-PMr" d="M 262.739 718 C 260.686 719.100, 258.155 720, 257.114 720 C 256.073 720, 254.194 720.832, 252.937 721.850 C 251.108 723.331, 250.637 724.744, 250.576 728.935 C 250.510 733.480, 250.870 734.489, 253.306 736.585 C 255.055 738.091, 257.363 739, 259.434 739 C 261.261 739, 264.334 739.660, 266.264 740.466 C 269.411 741.781, 270.272 741.753, 274.636 740.201 C 281.754 737.668, 281.772 737.645, 281.813 730.547 C 281.842 725.503, 281.367 723.356, 279.664 720.829 C 276.273 715.797, 269.089 714.596, 262.739 718" stroke="#90cf92" fill="#90cf92" fill-opacity="0.2" fill-rule="evenodd"/><path class="svg-region-PV" d="M 317 604.451 C 307.925 606.533, 294.837 610.865, 289.250 613.635 C 284.943 615.771, 283.991 616.711, 283.952 618.869 C 283.873 623.201, 280.777 628.208, 276 631.731 C 273.525 633.556, 269.316 636.838, 266.647 639.025 C 262.153 642.706, 261.340 642.999, 255.647 642.988 C 249.197 642.976, 239.442 640.842, 237.651 639.051 C 235.849 637.249, 235 637.884, 235 641.035 C 235 642.705, 234.377 645.067, 233.616 646.285 C 232.855 647.503, 231.935 651.609, 231.572 655.409 C 230.978 661.623, 231.070 662.187, 232.485 661.012 C 234.863 659.039, 238.152 661.009, 241.913 666.658 C 245.356 671.828, 245.367 672.004, 243.019 683.500 C 241.730 689.812, 242.210 698.343, 243.975 700.470 C 244.549 701.161, 246.477 704.590, 248.259 708.088 C 250.925 713.320, 252.066 714.589, 254.686 715.237 C 256.503 715.686, 258.138 716.860, 258.490 717.968 C 259.097 719.880, 259.174 719.877, 263.107 717.827 C 266.233 716.198, 268.116 715.881, 271.730 716.376 C 279.291 717.413, 281.769 721.211, 281.851 731.889 C 281.901 738.319, 283.446 740.262, 294.623 747.955 C 301.854 752.932, 302.123 753.023, 312.005 753.859 C 317.525 754.326, 322.179 754.886, 322.347 755.104 C 328.072 762.513, 329.120 764.922, 329.304 771.093 C 329.409 774.617, 329.110 778.288, 328.640 779.250 C 327.479 781.629, 329.980 781.579, 333.115 779.160 C 335.179 777.568, 340.528 774.463, 350 769.359 C 351.375 768.619, 353.175 768.004, 354 767.994 C 354.825 767.984, 357.458 766.856, 359.852 765.488 C 362.246 764.120, 365.283 763, 366.602 763 C 367.921 763, 369 762.567, 369 762.039 C 369 761.510, 370.877 760.572, 373.171 759.954 C 377.746 758.722, 393.904 750.564, 395.500 748.680 C 396.050 748.031, 398.300 746.174, 400.500 744.553 C 402.700 742.932, 404.725 741.332, 405 740.997 C 405.275 740.663, 407.847 738.886, 410.715 737.049 L 415.929 733.709 413.778 730.605 C 412.595 728.897, 410.315 725.969, 408.711 724.099 C 404.746 719.473, 399.685 708.311, 400.369 705.697 C 400.670 704.546, 400.542 703.131, 400.084 702.552 C 398.837 700.975, 390 673.317, 390 670.990 C 390 669.881, 389.586 668.191, 389.080 667.236 C 388.574 666.281, 387.141 662.800, 385.895 659.500 C 384.650 656.200, 382.676 651.925, 381.510 650 C 377.236 642.943, 374.489 626.934, 376.899 623.128 C 377.480 622.212, 376.789 620.305, 374.813 617.378 C 372.007 613.221, 370 611.812, 370 614 C 370 614.550, 369.077 615, 367.948 615 C 366.567 615, 365.554 614.019, 364.850 612 C 363.937 609.381, 363.325 609, 360.028 609 C 357.951 609, 354.282 608.262, 351.876 607.361 C 342.402 603.812, 325.815 602.428, 317 604.451" stroke="#b09658" fill="#b09658" fill-opacity="0.2" fill-rule="evenodd"/><path class="svg-region-Fr" d="M 334.926 553.978 C 332.641 555.186, 328.133 556.109, 322.426 556.538 C 312.556 557.280, 306.290 558.974, 301 562.332 C 295.284 565.961, 289.018 568.724, 280 571.593 C 275.325 573.080, 271.050 574.617, 270.500 575.010 C 269.950 575.402, 267.711 575.998, 265.525 576.335 C 255.278 577.914, 241.831 587.645, 233.957 599.180 C 229.990 604.991, 229.857 605.432, 230.869 609.377 C 231.451 611.645, 232.217 616.792, 232.572 620.815 C 232.926 624.839, 234.205 630.689, 235.413 633.815 C 237.346 638.815, 238.086 639.666, 241.555 640.878 C 243.725 641.635, 249.106 642.474, 253.513 642.741 L 261.527 643.226 266.513 639.138 C 269.256 636.889, 273.525 633.556, 276 631.731 C 280.768 628.214, 283.873 623.202, 283.952 618.892 C 284.014 615.511, 289.646 612.523, 304 608.257 C 323.008 602.608, 325.142 602.392, 341 604.512 C 343.475 604.843, 346.400 605.482, 347.500 605.932 C 348.600 606.383, 350.759 607.257, 352.297 607.875 C 353.835 608.494, 356.999 609, 359.328 609 C 363.114 609, 363.681 609.317, 364.694 612 C 365.454 614.013, 366.513 615, 367.913 615 C 370.408 615, 370.437 614.498, 368.470 605.500 C 366.509 596.532, 364.296 582.429, 363.455 573.542 C 362.856 567.213, 362.472 566.286, 359.212 563.300 C 357.240 561.494, 354.698 559.751, 353.564 559.428 C 349.517 558.273, 343.366 555.146, 342.071 553.586 C 340.407 551.580, 339.351 551.638, 334.926 553.978" stroke="#5ca7a9" fill="#5ca7a9" fill-opacity="0.2" fill-rule="evenodd"/><path class="svg-region-DV" d="M 215.439 659.067 C 213.788 660.892, 213.579 662.794, 213.651 675.317 C 213.803 701.623, 215.291 710.462, 221.174 720 C 231.276 736.378, 238.678 746.317, 240.112 745.431 C 240.600 745.129, 241 743.344, 241 741.464 C 241 737.833, 243.133 735.717, 248 734.521 C 250.221 733.975, 250.517 733.351, 250.652 728.924 C 250.828 723.175, 251.977 721.384, 256.069 720.485 C 257.681 720.131, 258.993 719.539, 258.985 719.171 C 258.946 717.495, 257.090 715.851, 254.431 715.140 C 252.037 714.500, 250.692 712.725, 246.694 704.932 C 242.049 695.879, 241.875 695.239, 242.356 689 C 242.632 685.425, 243.441 680.333, 244.153 677.685 C 245.369 673.168, 245.296 672.585, 242.975 668.256 C 241.614 665.718, 239.238 662.716, 237.695 661.584 C 234.991 659.602, 234.780 659.590, 231.864 661.263 C 227.518 663.758, 224.812 663.418, 221.813 660 C 218.695 656.447, 217.914 656.332, 215.439 659.067" stroke="#45567a" fill="#45567a" fill-opacity="0.2" fill-rule="evenodd"/><path class="svg-region-VV" d="M 245.203 735.131 C 241.590 736.173, 241.394 736.505, 240.666 742.834 C 240.271 746.274, 240.582 747.582, 242.175 749.175 C 243.278 750.278, 247.120 755.078, 250.712 759.841 C 254.303 764.603, 257.789 768.950, 258.459 769.500 C 262.962 773.201, 272.159 781.160, 275.986 784.669 C 281.322 789.561, 295.222 796, 300.444 796 C 305.029 796, 309.312 794.209, 315.694 789.624 C 318.469 787.631, 321.227 786, 321.824 786 C 323.461 786, 328.001 781.124, 329.145 778.137 C 330.360 774.964, 329.348 765.508, 327.417 762.001 C 323.764 755.364, 322.602 754.755, 311.858 753.847 C 302.832 753.083, 301.386 752.682, 297.996 749.997 C 295.915 748.349, 293.819 747, 293.339 747 C 292.859 747, 290.063 744.899, 287.128 742.330 L 281.789 737.661 275.645 739.656 C 270.366 741.371, 269.077 741.472, 266.500 740.371 C 264.850 739.667, 262.100 739.070, 260.390 739.045 C 258.679 739.020, 255.621 737.875, 253.595 736.500 C 249.534 733.744, 249.840 733.794, 245.203 735.131" stroke="#7699d1" fill="#7699d1" fill-opacity="0.2" fill-rule="evenodd"/><path class="svg-region-B" d="M 861.500 563.950 C 856.342 565.232, 845.816 570.751, 837.814 576.371 C 830.662 581.393, 829.813 581.733, 825.614 581.260 C 821.964 580.849, 820.245 581.252, 816.634 583.369 C 814.178 584.808, 810.893 587.242, 809.334 588.777 C 807.775 590.311, 803.702 593.705, 800.282 596.318 C 795.784 599.753, 793.486 602.373, 791.978 605.784 C 790.831 608.378, 788.756 611.687, 787.367 613.137 C 783.312 617.372, 782.117 622.348, 782.717 632.500 C 783.010 637.450, 783.918 643.300, 784.736 645.500 C 786.044 649.019, 786.639 652.802, 786.920 659.382 C 786.964 660.417, 788.623 662.795, 790.608 664.666 L 794.215 668.069 793.561 675.784 C 792.467 688.691, 792.533 689.535, 794.888 692.843 C 798.413 697.793, 800.019 698.225, 805.185 695.609 C 810.793 692.770, 818.898 691.227, 835 689.933 C 847.817 688.903, 859.929 685.995, 862.051 683.439 C 862.707 682.648, 864.125 682, 865.201 682 C 866.277 682, 869.710 679.826, 872.829 677.169 C 879.300 671.656, 885.302 668, 887.881 668 C 888.853 668, 893.406 666.875, 898 665.500 C 904.457 663.567, 908.589 663, 916.208 663 C 927.696 663, 928.340 662.452, 925.673 654.943 C 924.753 652.352, 924 648.689, 924 646.803 C 924 644.299, 923.191 642.599, 921 640.500 C 919.350 638.919, 918 636.810, 918 635.813 C 918 632.650, 912.069 634.147, 904.900 639.119 C 903.007 640.432, 901.287 640.759, 898.576 640.319 C 895.836 639.874, 893.882 640.257, 891.176 641.771 C 887.598 643.772, 874.900 648.400, 874.633 647.800 C 874.141 646.692, 870.536 640.032, 869.225 637.808 C 867.672 635.175, 867.728 635.019, 871.819 630.581 C 874.652 627.508, 876 625.142, 876 623.245 C 876 621.705, 876.788 619.685, 877.750 618.757 C 878.712 617.829, 880.271 616.244, 881.214 615.235 C 882.157 614.226, 885.682 612.575, 889.047 611.567 C 892.412 610.559, 895.403 609.114, 895.694 608.355 C 896.327 606.705, 894.295 604, 892.422 604 C 891.015 604, 885.136 600.279, 882.711 597.854 C 881.923 597.066, 880.947 593.326, 880.542 589.544 C 879.752 582.174, 878.608 578.681, 875.941 575.500 C 875.019 574.400, 873.990 571.701, 873.655 569.503 C 872.730 563.434, 869.506 561.961, 861.500 563.950" stroke="#e23b33" fill="#e23b33" fill-opacity="0.2" fill-rule="evenodd"/><path class="svg-region-Or" d="M 718.772 222.032 C 716.171 222.470, 709.853 224.452, 704.731 226.436 C 695.127 230.157, 688.713 235.003, 682.808 243 C 681.387 244.925, 679.083 247.811, 677.689 249.414 C 676.295 251.016, 674.683 254.202, 674.106 256.492 C 673.529 258.783, 672.244 261.747, 671.249 263.079 C 670.254 264.410, 668.591 267.975, 667.552 271 C 666.513 274.025, 665.117 277.400, 664.450 278.500 C 663.763 279.632, 662.965 286.276, 662.611 293.813 C 662.239 301.723, 661.440 308.217, 660.642 309.813 C 658.832 313.433, 655.635 355.032, 655.632 375 C 655.630 385.111, 657.842 417.935, 659.069 426 C 659.612 429.575, 660.416 438.800, 660.854 446.500 C 661.291 454.200, 662.105 461.400, 662.662 462.500 C 663.219 463.600, 664.245 467.200, 664.941 470.500 C 665.638 473.800, 667.003 477.850, 667.976 479.500 C 668.948 481.150, 670.027 483.707, 670.373 485.181 C 670.720 486.656, 673.590 490.541, 676.752 493.814 C 683.592 500.897, 690.345 503.839, 702.500 505.033 C 706.900 505.465, 711.767 506.310, 713.315 506.910 C 714.863 507.509, 722.115 508, 729.430 508 C 740.852 508, 743.067 507.738, 745.115 506.148 C 746.427 505.129, 749.136 503.527, 751.135 502.588 C 756.754 499.950, 768.455 489.609, 771.249 484.812 C 777.432 474.201, 783.227 454.734, 784.950 438.789 C 785.528 433.449, 786 413.383, 786 394.198 C 786 365.502, 786.274 358.448, 787.547 354.409 C 789.813 347.222, 792.972 318.332, 792.987 304.664 L 793 292.827 786.092 271.995 C 778.885 250.263, 779.202 250.871, 767.224 235.821 C 760.193 226.987, 753.078 223.598, 738.454 222.118 C 726.283 220.886, 725.590 220.883, 718.772 222.032" stroke="#aa444d" fill="#aa444d" fill-opacity="0.2" fill-rule="evenodd"/><path class="svg-region-VOC" d="M 501 496.224 C 496.211 499.338, 489.063 506.901, 488.395 509.561 C 487.223 514.232, 505.014 542.928, 509.115 542.980 C 510.003 542.991, 511.874 543.900, 513.273 545 C 517.436 548.275, 518.646 547.554, 522.454 539.528 C 525.748 532.588, 526 531.376, 526 522.484 C 526 510.862, 523.661 500.499, 520.254 497.028 C 518.239 494.974, 516.700 494.504, 511.164 494.252 C 505.601 493.999, 503.922 494.325, 501 496.224" stroke="#ff8f93" fill="#ff8f93" fill-opacity="0.2" fill-rule="evenodd"/><path class="svg-region-OABr" d="M 617.934 437.672 C 617.376 439.142, 617.141 440.925, 617.413 441.634 C 617.685 442.342, 616.115 445.302, 613.925 448.211 C 611.735 451.120, 609.422 455.300, 608.786 457.500 C 608.151 459.700, 607.039 462.388, 606.315 463.473 C 605.592 464.557, 605 466.479, 605 467.742 C 605 469.006, 603.858 472.843, 602.463 476.270 L 599.925 482.500 602.073 484.250 C 604.681 486.374, 611.064 486.542, 614.800 484.585 C 618.729 482.527, 623.029 477.531, 628.330 468.864 C 632.507 462.034, 633 460.602, 633 455.296 C 633 449.710, 632.693 448.947, 627.750 442.243 C 622.079 434.553, 619.566 433.382, 617.934 437.672" stroke="#81244d" fill="#81244d" fill-opacity="0.2" fill-rule="evenodd"/><path class="svg-region-SOTr" d="M 530.344 447.275 C 528.058 449.599, 524.974 452.343, 523.491 453.374 C 522.008 454.405, 520.114 456.876, 519.283 458.866 C 518.452 460.855, 516.698 463.477, 515.386 464.693 C 510.976 468.781, 512.700 478.932, 517.821 479.033 C 519.998 479.076, 528.303 491.992, 530.527 498.794 C 531.572 501.987, 532.808 504, 533.725 504 C 534.547 504, 537.681 501.750, 540.690 499 C 543.699 496.250, 546.575 494, 547.081 494 C 547.586 494, 548 492.665, 548 491.034 C 548 489.403, 548.627 486.590, 549.393 484.784 C 552.447 477.587, 554 469.949, 554 462.131 C 554 455.968, 553.647 453.802, 552.577 453.391 C 551.795 453.091, 550.398 451.252, 549.474 449.305 C 547.899 445.986, 547.556 445.796, 543.986 446.275 C 540.842 446.697, 540.091 446.455, 539.682 444.893 C 538.838 441.666, 534.866 442.679, 530.344 447.275" stroke="#995b45" fill="#995b45" fill-opacity="0.2" fill-rule="evenodd"/><path class="svg-region-BPCr" d="M 780.500 577.244 C 778.850 577.842, 775.700 580.051, 773.500 582.154 C 771.300 584.258, 769.029 585.983, 768.453 585.989 C 767.877 585.995, 765.627 587.848, 763.453 590.106 C 759.224 594.499, 752.850 598.982, 750.770 599.028 C 750.071 599.043, 747.732 600.393, 745.572 602.028 C 743.411 603.663, 741.081 605, 740.393 605 C 739.706 605, 738.356 605.788, 737.393 606.750 C 735.926 608.217, 733.774 608.497, 724.072 608.483 C 717.707 608.473, 711.497 608.086, 710.271 607.622 C 708.091 606.796, 708.075 606.843, 709.539 609.777 C 711.494 613.697, 710.299 616.852, 705.655 620.034 C 703.705 621.370, 701.637 623.502, 701.059 624.771 C 700.481 626.039, 697.981 629.244, 695.504 631.893 C 691.569 636.099, 691.002 637.263, 691.014 641.104 C 691.022 643.630, 692.522 649.540, 694.542 655 C 696.547 660.420, 698.320 667.389, 698.671 671.228 C 699.164 676.617, 699.661 678.075, 701.170 678.554 C 702.206 678.883, 703.761 680.231, 704.625 681.551 C 706.662 684.660, 715.356 690, 718.380 690 C 719.673 690, 721.803 690.809, 723.115 691.798 C 726.424 694.293, 741.666 697.425, 756 698.556 C 768.129 699.513, 774.177 700.852, 778.101 703.448 C 781.816 705.907, 788.302 715.358, 789.469 720.014 C 789.815 721.397, 791.651 723.593, 793.549 724.893 C 795.447 726.194, 797 728.045, 797 729.006 C 797 730.496, 797.701 730.679, 801.750 730.246 C 804.362 729.967, 806.950 729.397, 807.500 728.980 C 808.943 727.885, 827.383 726.604, 842.500 726.548 C 855.460 726.500, 855.501 726.493, 855.840 724.090 C 856.045 722.645, 855.545 721.325, 854.590 720.791 C 853.716 720.301, 853 718.841, 853 717.545 C 853 716.249, 851.425 713.304, 849.500 711 C 845.768 706.533, 845.525 705.935, 846.842 704.450 C 848.074 703.059, 851.350 690.017, 850.645 689.311 C 849.858 688.524, 824.217 690.562, 816.500 692.024 C 813.200 692.650, 808.592 694.025, 806.261 695.081 C 800.299 697.780, 798.486 697.504, 795.373 693.422 C 792.475 689.623, 792.428 689.161, 793.561 675.784 L 794.215 668.069 790.608 664.666 C 787.317 661.563, 787 660.782, 787 655.786 C 787 652.612, 786.281 648.875, 785.291 646.904 C 783.381 643.102, 782.026 627.751, 783.072 621.772 C 783.430 619.721, 785.494 615.671, 787.659 612.772 C 789.823 609.872, 792.343 605.835, 793.257 603.799 C 794.172 601.763, 796.061 599.351, 797.455 598.438 C 799.586 597.041, 799.915 596.200, 799.526 593.139 C 799.272 591.137, 798.795 587.353, 798.467 584.729 C 797.650 578.187, 795.118 575.977, 788.561 576.079 C 785.778 576.122, 782.150 576.647, 780.500 577.244" stroke="#83385f" fill="#83385f" fill-opacity="0.2" fill-rule="evenodd"/><path class="svg-region-AMC" d="M 510.051 746.662 C 508.899 748.127, 507.712 750.300, 507.413 751.491 C 506.793 753.961, 510.983 761.391, 517.826 769.955 C 521.457 774.499, 521.906 775.507, 520.518 775.994 C 519.085 776.496, 519.232 776.959, 521.558 779.285 C 523.047 780.774, 526.164 782.940, 528.486 784.100 C 531.530 785.620, 533.199 787.325, 534.474 790.213 C 535.446 792.416, 538.118 796.531, 540.413 799.359 C 542.708 802.187, 546.092 806.750, 547.933 809.500 C 551.614 814.998, 563.587 827.006, 565.374 826.990 C 568 826.967, 577.048 821.928, 579.595 819.070 C 583.428 814.768, 587.017 808.207, 586.407 806.617 C 586.127 805.888, 586.820 802.863, 587.948 799.895 C 590.643 792.806, 590.538 790.874, 587.325 788.487 C 585.854 787.394, 583.942 785.761, 583.075 784.857 C 581.664 783.384, 578.959 781.690, 571 777.292 C 569.625 776.532, 565.350 774.138, 561.500 771.973 C 557.650 769.807, 552.025 766.877, 549 765.461 C 537.070 759.878, 532.134 757.054, 523.121 750.657 C 517.962 746.996, 513.382 744, 512.943 744 C 512.504 744, 511.203 745.198, 510.051 746.662" stroke="#9d4741" fill="#9d4741" fill-opacity="0.2" fill-rule="evenodd"/>
    </svg>