<svg xmlns="http://www.w3.org/2000/svg" width="1078" height="1151" viewBox="0 0 1078 1151" version="1.1">
    <path class="svg-region-V" d="M 513 189.604 C 503.909 190.528, 491.980 192.302, 487 193.471 C 483.975 194.181, 476.100 195.999, 469.500 197.511 C 462.648 199.082, 455.355 201.457, 452.500 203.050 C 449.750 204.583, 445.250 206.703, 442.500 207.760 C 435.576 210.422, 422.069 220.019, 418.724 224.654 C 417.197 226.769, 413.723 231.425, 411.002 235 C 405.724 241.937, 401.852 247.565, 393.275 260.771 C 390.320 265.319, 386.628 270.494, 385.070 272.271 C 377.193 281.251, 368.701 300.489, 364.443 319 C 363.747 322.025, 362.277 327.999, 361.177 332.276 C 358.889 341.166, 359.056 352.496, 361.691 367 C 362.540 371.675, 363.575 377.975, 363.990 381 C 365.355 390.938, 367.024 394.671, 372.701 400.486 C 380.247 408.215, 382.979 409.172, 398 409.351 C 409.146 409.484, 410.933 409.263, 414.500 407.309 C 423.424 402.420, 428.936 394.395, 428.978 386.230 C 428.993 383.402, 429.863 380.593, 431.557 377.910 C 432.963 375.682, 434.828 370.853, 435.701 367.179 C 437.560 359.353, 442.076 349.316, 449.599 336.284 C 452.570 331.139, 455 326.479, 455 325.930 C 455 325.380, 459.454 320.529, 464.897 315.150 C 476.164 304.016, 480.321 302, 492.013 302 C 498.912 302, 499.047 302.050, 509.547 308.447 C 515.432 312.033, 518.698 317.840, 523.639 333.500 C 527.441 345.550, 535.512 352.181, 547.183 352.841 C 558.033 353.454, 564.439 350.124, 572.171 339.853 C 574.119 337.265, 576.151 335.949, 579.671 334.994 C 585.394 333.441, 592.198 330.133, 596.873 326.631 C 598.729 325.242, 601.600 323.807, 603.254 323.444 C 604.909 323.081, 608.791 320.861, 611.881 318.512 C 614.972 316.163, 618.400 314.069, 619.500 313.859 C 621.203 313.534, 621.612 312.364, 622.250 305.988 C 622.663 301.870, 623.052 291.075, 623.115 282 C 623.215 267.565, 622.966 264.764, 621.122 259.614 C 616.934 247.918, 606.616 235.404, 597.543 231.018 C 594.817 229.700, 590.992 227.185, 589.043 225.430 C 584.076 220.956, 573.428 213.535, 567.500 210.416 C 564.750 208.969, 561.359 206.716, 559.964 205.410 C 556.483 202.151, 545.901 197.142, 537.628 194.839 C 533.849 193.787, 529.568 192.311, 528.115 191.560 C 525.079 189.990, 518.095 189.086, 513 189.604" stroke="#dd8a8a" fill="#dd8a8a" fill-opacity="0.2" fill-rule="evenodd"/><path class="svg-region-SV" d="M 479.258 303.959 C 471.981 306.578, 457.582 320.853, 452.992 330 C 451.198 333.575, 448.215 338.871, 446.365 341.769 C 444.514 344.668, 443 347.257, 443 347.524 C 443 347.791, 441.843 350.370, 440.430 353.255 C 439.016 356.140, 436.993 361.829, 435.933 365.897 C 434.873 369.965, 432.880 375.310, 431.503 377.773 C 430.024 380.420, 429 383.850, 429 386.158 C 429 391.317, 426.993 395.896, 422.597 400.761 C 420.619 402.951, 419 404.961, 419 405.229 C 419 405.496, 421.786 406.006, 425.191 406.362 C 430.650 406.933, 431.975 406.700, 436.381 404.396 C 441.259 401.845, 441.559 401.813, 448.759 403.044 L 456.138 404.306 460.569 399.480 C 463.006 396.825, 465.003 394.394, 465.007 394.077 C 465.011 393.760, 466.617 392.408, 468.576 391.074 C 471.799 388.879, 472.463 388.766, 475.563 389.887 C 479.228 391.212, 481 390.748, 481 388.464 C 481 387.684, 482.108 386.320, 483.463 385.432 C 485.548 384.066, 486.730 383.991, 491.160 384.941 C 496.954 386.184, 504.436 385.460, 507.473 383.362 C 508.557 382.613, 510.444 382, 511.665 382 C 512.887 382, 515.462 381.070, 517.388 379.933 C 522.324 377.021, 530.387 376.389, 537.229 378.378 C 540.297 379.270, 544.816 380, 547.270 380 L 551.731 380 552.217 373.216 C 552.577 368.177, 553.383 365.353, 555.351 362.236 C 556.808 359.928, 558 356.793, 558 355.270 L 558 352.500 549.172 352.500 C 541.093 352.500, 539.928 352.243, 535.455 349.478 C 529.789 345.975, 525.640 340.394, 523.948 334 C 523.293 331.525, 521.912 327.670, 520.878 325.434 C 519.845 323.198, 519 320.767, 519 320.032 C 519 317.967, 512.880 310.480, 509.514 308.428 C 498.960 301.993, 498.976 301.999, 491.648 302.036 C 487.247 302.058, 482.485 302.797, 479.258 303.959" stroke="#c666b5" fill="#c666b5" fill-opacity="0.2" fill-rule="evenodd"/><path class="svg-region-SF" d="M 611.622 318.515 C 608.389 320.925, 604.391 323.194, 602.738 323.558 C 601.085 323.921, 597.796 325.696, 595.430 327.502 C 593.063 329.308, 588.961 331.564, 586.314 332.515 C 583.666 333.466, 579.563 334.935, 577.194 335.779 C 574.355 336.792, 572.383 338.293, 571.403 340.188 C 569.595 343.683, 564.483 348.693, 560.750 350.627 C 558.700 351.689, 558 352.797, 558 354.981 C 558 356.593, 556.898 359.535, 555.552 361.519 C 552.801 365.572, 551.465 372.316, 552.342 377.719 C 553.786 386.620, 561.554 396.353, 568.293 397.706 C 570.074 398.064, 571.661 399.377, 572.668 401.326 C 575.376 406.561, 584.270 415.179, 589.500 417.634 C 595.563 420.479, 602.168 420.701, 605.846 418.181 C 609.991 415.341, 616.857 413.636, 618.536 415.030 C 619.632 415.939, 620.484 415.582, 622.564 413.342 C 624.014 411.779, 625.884 409.182, 626.719 407.571 C 628.274 404.569, 628.249 403.931, 625.983 388.500 C 623.680 372.827, 622.799 360.436, 622.527 339.910 C 622.245 318.596, 621.554 313.911, 618.715 314.066 C 618.047 314.103, 614.855 316.105, 611.622 318.515" stroke="#8c6b55" fill="#8c6b55" fill-opacity="0.2" fill-rule="evenodd"/><path class="svg-region-AAB" d="M 638 484.399 C 638 488.496, 636.424 490.665, 632.942 491.362 C 629.901 491.970, 626.657 494.898, 620.518 502.576 C 618.878 504.627, 615.728 507.112, 613.518 508.098 C 611.308 509.084, 607.700 511.520, 605.500 513.512 C 597.046 521.165, 584.914 530.067, 582.199 530.610 C 580.611 530.928, 577.740 530.500, 575.681 529.640 L 572 528.102 572 534.198 C 572 539.688, 571.651 540.720, 568.489 544.579 C 563.881 550.203, 559.142 560.902, 558.405 567.350 C 557.907 571.700, 558.179 573.029, 560.158 575.908 C 564.111 581.660, 567.087 583.213, 575.679 584.007 C 579.980 584.405, 584.625 585.194, 586 585.761 C 592.731 588.536, 597.213 589.267, 603.711 588.648 C 611.422 587.914, 621.707 585.019, 625.135 582.618 C 626.405 581.728, 628.205 581, 629.135 581 C 630.334 581, 631.026 579.807, 631.519 576.887 C 631.901 574.624, 633.205 571.313, 634.416 569.528 C 635.627 567.744, 637.174 563.632, 637.852 560.392 C 639.978 550.242, 642.047 541.757, 644.194 534.386 C 645.561 529.696, 646.039 526.118, 645.598 523.886 C 645.231 522.024, 644.711 517.575, 644.443 514 C 644.174 510.425, 643.472 506.290, 642.881 504.810 C 642.291 503.331, 642.030 501.756, 642.302 501.310 C 642.801 500.492, 639.278 482.945, 638.448 482.115 C 638.202 481.868, 638 482.896, 638 484.399" stroke="#7f3c1a" fill="#7f3c1a" fill-opacity="0.2" fill-rule="evenodd"/><path class="svg-region-APB" d="M 610.275 415.804 C 607.951 416.737, 604.963 418.466, 603.635 419.648 C 602.307 420.829, 600.325 422.080, 599.230 422.427 C 598.136 422.774, 596.161 425.183, 594.841 427.779 C 593.281 430.850, 591.321 433.024, 589.235 434 C 587.471 434.825, 585.750 436.400, 585.412 437.500 C 585.073 438.600, 581.301 443.100, 577.028 447.500 C 572.756 451.900, 568.550 456.850, 567.682 458.500 C 565.124 463.360, 562.258 470.551, 561.497 474.014 C 561.108 475.786, 559.481 480.409, 557.882 484.286 C 552.583 497.137, 549 508.683, 549 512.909 C 549 515.203, 549.873 518.792, 550.941 520.885 C 552.953 524.827, 559.216 531, 561.206 531 C 561.831 531, 563.053 531.611, 563.921 532.358 C 564.790 533.106, 566.962 534.207, 568.750 534.806 L 572 535.896 572 531.644 C 572 528.098, 571.419 526.830, 568.500 524 C 566.575 522.134, 565 520.099, 565 519.478 C 565 517.460, 569.401 514.205, 573.659 513.075 C 580.843 511.169, 596 494.674, 596 488.762 C 596 487.229, 601.572 476.204, 603.460 474 C 606.841 470.053, 612.721 456.227, 616.215 444.007 C 617.434 439.743, 617.794 439.415, 623.250 437.578 C 628.614 435.771, 628.995 435.436, 628.930 432.571 C 628.836 428.456, 628.065 426.792, 624.395 422.772 C 622.687 420.902, 620.498 418.163, 619.530 416.686 C 617.503 413.593, 616.115 413.461, 610.275 415.804" stroke="#ac7444" fill="#ac7444" fill-opacity="0.2" fill-rule="evenodd"/><path class="svg-region-PC" d="M 528.185 487.365 C 527.309 489.787, 527.250 491.528, 527.979 493.444 C 529.518 497.493, 529.218 501.124, 527 505.261 C 525.900 507.314, 525.010 509.332, 525.021 509.746 C 525.033 510.161, 526.833 511.767, 529.021 513.315 C 532.529 515.796, 533 516.604, 533 520.136 C 533 523.639, 532.215 525.018, 526.750 531.121 C 521.424 537.069, 520.334 538.943, 519.377 543.800 C 518.759 546.935, 517.558 552.625, 516.708 556.444 L 515.163 563.388 520.686 572.944 C 526.002 582.143, 526.185 582.701, 525.581 587.870 C 525.178 591.321, 525.364 593.733, 526.100 594.620 C 527.436 596.231, 536 596.520, 536 594.955 C 536 594.380, 537.120 592.789, 538.490 591.419 C 539.859 590.050, 541.244 587.876, 541.567 586.588 C 542.505 582.852, 548.309 577.727, 553.504 576.048 L 558.291 574.500 558.520 568.500 C 558.780 561.671, 562.728 552.263, 568.512 544.689 C 573.424 538.256, 573.133 536.789, 566.282 533.437 C 558.959 529.854, 552.199 523.642, 549.828 518.317 C 548.607 515.575, 547.229 514.025, 545.825 513.817 C 543.136 513.419, 537.402 505.227, 535.915 499.660 C 533.293 489.842, 531.431 484.603, 530.456 484.297 C 529.882 484.118, 528.860 485.498, 528.185 487.365" stroke="#cda789" fill="#cda789" fill-opacity="0.2" fill-rule="evenodd"/><path class="svg-region-DB" d="M 522 377.693 C 521.175 377.987, 518.700 379.014, 516.500 379.975 C 504.588 385.178, 499.002 386.298, 491.910 384.903 C 486.839 383.905, 485.691 383.972, 483.518 385.396 C 482.133 386.304, 481 387.684, 481 388.464 C 481 390.748, 479.228 391.212, 475.563 389.887 C 472.463 388.766, 471.799 388.879, 468.576 391.074 C 466.617 392.408, 465.011 393.796, 465.007 394.158 C 464.994 395.373, 456.089 404, 454.847 404 C 454.173 404, 451.016 403.462, 447.834 402.805 C 442.342 401.670, 441.753 401.749, 436.274 404.345 C 430.974 406.856, 429.982 407.008, 424.187 406.197 C 418.683 405.427, 417.336 405.582, 413.687 407.407 C 410.056 409.222, 407.907 409.476, 397.500 409.317 C 383.558 409.104, 380.406 408.102, 373.937 401.821 C 371.086 399.053, 368.517 397.463, 366.750 397.373 C 363.648 397.216, 363.112 399.018, 365.637 401.113 C 370.096 404.814, 373.931 422.339, 373.978 439.230 C 373.998 446.266, 375.999 454.508, 378.049 456 C 378.782 456.533, 383.464 463.065, 387.552 469.255 C 389.214 471.771, 390.236 475.071, 390.650 479.255 C 390.990 482.690, 391.814 486.175, 392.482 487 C 393.150 487.825, 393.993 489.334, 394.356 490.354 C 394.740 491.431, 395.615 491.978, 396.445 491.660 C 397.230 491.358, 398.985 491.987, 400.344 493.056 C 401.703 494.125, 403.454 495, 404.234 495 C 405.738 495, 421.786 503.386, 423.431 505.031 C 423.964 505.564, 426.199 506, 428.398 506 C 432.544 506, 444.846 507.389, 455.842 509.098 C 462.332 510.107, 461.927 509.872, 481.220 523.779 C 482.959 525.032, 485.533 526.285, 486.941 526.563 C 488.348 526.842, 490.882 527.504, 492.571 528.035 C 496.224 529.183, 501.009 529.305, 500.978 528.250 C 500.966 527.837, 500.076 526.375, 499 525 C 497.772 523.431, 497.036 520.921, 497.022 518.259 C 497.004 514.835, 497.578 513.465, 499.996 511.154 C 505.699 505.704, 508.195 500.965, 508.747 494.537 C 509.032 491.217, 509.754 487.886, 510.350 487.136 C 511.868 485.226, 520.680 486.387, 524.154 488.955 L 526.853 490.951 528.321 486.726 C 529.129 484.402, 530.237 478.986, 530.785 474.691 C 531.929 465.711, 531.510 466.182, 544.729 459.037 C 557.681 452.037, 558.268 451.958, 562.598 456.638 L 566.170 460.500 567.835 458.095 C 568.751 456.773, 572.987 452.017, 577.250 447.527 C 581.513 443.037, 585 439.057, 585 438.682 C 585 438.307, 582.927 438, 580.394 438 C 576.954 438, 575.045 437.374, 572.849 435.526 C 571.232 434.166, 568.197 432.592, 566.106 432.028 C 564.014 431.465, 560.772 429.976, 558.901 428.719 C 555.922 426.717, 555.461 425.830, 555.189 421.571 C 554.882 416.757, 556.183 411.901, 558.557 409 C 559.232 408.175, 560.582 404.937, 561.558 401.804 L 563.331 396.109 559.915 392.304 C 558.037 390.212, 555.644 386.587, 554.598 384.250 C 552.761 380.145, 552.539 380, 548.098 379.988 C 545.569 379.982, 541.025 379.312, 538 378.500 C 532.565 377.041, 524.910 376.655, 522 377.693" stroke="#e8b1e4" fill="#e8b1e4" fill-opacity="0.2" fill-rule="evenodd"/><path class="svg-region-MB" d="M 396.496 492.006 C 395.542 493.550, 396.974 497.085, 400.160 501.050 C 402.690 504.197, 403.052 505.498, 403.169 511.849 C 403.243 515.820, 403.685 519.305, 404.151 519.594 C 404.618 519.882, 405 523.074, 405 526.688 C 405 533.326, 406.090 537.427, 413.721 559.500 C 415.622 565, 417.475 572.425, 417.839 576 C 418.423 581.740, 418.763 582.537, 420.748 582.819 C 421.985 582.995, 424.291 582.217, 425.874 581.090 L 428.751 579.041 438.358 583.977 C 446.551 588.187, 449.108 589.012, 455.733 589.585 C 466.138 590.485, 469.616 591.976, 470.480 595.908 C 470.946 598.032, 471.906 599.189, 473.539 599.599 C 474.847 599.927, 476.423 600.805, 477.040 601.548 C 477.657 602.292, 480.120 603.848, 482.514 605.007 C 485.775 606.585, 487.029 607.854, 487.514 610.065 L 488.163 613.017 490.716 611.009 C 492.790 609.377, 494.772 609, 501.273 609 C 509.220 609, 509.307 608.972, 513.616 605 C 516.003 602.800, 518.362 601, 518.859 601 C 521.293 601, 525.043 593.881, 525.646 588.117 C 526.183 582.972, 525.948 581.588, 523.981 578.313 C 522.721 576.216, 520.228 571.946, 518.441 568.825 L 515.193 563.149 517.582 553.325 C 520.784 540.161, 520.746 539, 517.115 539 C 515.207 539, 513.719 538.220, 512.721 536.697 C 511.035 534.124, 501.849 529, 498.922 529 C 496.671 529, 488.660 527.149, 484.650 525.702 C 483.082 525.137, 479.932 523.145, 477.650 521.276 C 475.367 519.406, 472.707 517.230, 471.739 516.438 C 470.770 515.647, 469.532 515, 468.989 515 C 468.445 515, 468 514.561, 468 514.025 C 468 511.847, 458.898 509.028, 448.375 507.948 C 442.394 507.334, 434.539 506.522, 430.921 506.143 C 427.103 505.743, 423.116 504.641, 421.421 503.516 C 416.272 500.101, 405.794 495, 403.927 495 C 402.932 495, 401.841 494.552, 401.503 494.005 C 400.386 492.197, 397.171 490.914, 396.496 492.006" stroke="#f9c6c6" fill="#f9c6c6" fill-opacity="0.2" fill-rule="evenodd"/><path class="svg-region-LBr" d="M 425.500 581.121 C 423.700 582.293, 421.481 582.886, 419.953 582.603 C 415.242 581.730, 414.740 582.899, 414.835 594.522 L 414.923 605.269 411.856 608.135 C 410.169 609.711, 408.331 611, 407.772 611 C 405.894 611, 409.297 614.097, 412.770 615.548 C 414.657 616.337, 418.067 618.969, 420.350 621.398 C 425.994 627.404, 437.429 633.591, 440.356 632.222 C 444.052 630.494, 458.854 625, 459.815 625 C 460.318 625, 461.841 624.126, 463.198 623.059 C 466.708 620.298, 472.601 618.249, 479.138 617.516 C 486.821 616.655, 488.470 615.317, 487.595 610.653 C 486.896 606.929, 485.489 605.841, 473.925 600.088 C 472.140 599.200, 470.849 597.590, 470.444 595.746 C 469.619 591.987, 465.988 590.472, 455.671 589.580 C 448.252 588.938, 439.197 585.529, 434 581.422 C 431.240 579.241, 428.534 579.145, 425.500 581.121" stroke="#d7b230" fill="#d7b230" fill-opacity="0.2" fill-rule="evenodd"/><path class="svg-region-AP" d="M 536.734 686.600 C 534.578 688.756, 537.293 700.519, 540.250 701.833 C 540.663 702.017, 541 703.834, 541 705.873 C 541 709.420, 541.242 709.684, 546.651 712.039 C 549.760 713.393, 555.496 716.862, 559.398 719.750 C 567.024 725.392, 568 725.817, 568 723.500 C 568 722.393, 569.157 722, 572.411 722 C 574.837 722, 579.674 721.106, 583.161 720.013 C 586.647 718.920, 592.330 718.020, 595.789 718.013 C 601.772 718.001, 602.279 718.194, 606.240 722 C 608.530 724.200, 610.682 726, 611.024 726 C 612.039 726, 616 734.549, 616 736.739 C 616 737.849, 614.852 741.400, 613.448 744.629 C 607.289 758.798, 607.014 759.054, 597 759.931 L 590.500 760.500 590.246 768 C 590.106 772.125, 589.881 776.850, 589.746 778.500 C 589.360 783.205, 592.859 782.992, 600.507 777.843 C 605.724 774.331, 606.963 772.976, 607.204 770.517 C 607.458 767.932, 607.858 767.550, 610 767.849 C 611.375 768.041, 616.247 768.413, 620.827 768.675 C 628.218 769.098, 629.903 768.846, 635.827 766.436 C 639.924 764.770, 644.701 763.646, 648.200 763.525 C 651.334 763.417, 654.533 762.803, 655.308 762.160 C 657.181 760.605, 671.284 756.807, 677.250 756.250 C 681.040 755.897, 682 755.434, 682 753.963 C 682 752.948, 682.450 751.840, 683 751.500 C 684.758 750.413, 684.113 749.496, 678.750 745.455 C 675.862 743.280, 673.350 741.163, 673.167 740.750 C 672.983 740.337, 672.416 740, 671.906 740 C 671.396 740, 669.071 739.136, 666.739 738.081 C 664.408 737.025, 661.445 735.856, 660.156 735.483 C 658.867 735.111, 655.942 733.545, 653.656 732.005 C 651.370 730.465, 647.475 728.686, 645 728.052 C 631.351 724.557, 624.900 722.206, 619.595 718.796 C 616.347 716.708, 613.122 715, 612.428 715 C 611.734 715, 611.017 714.663, 610.833 714.250 C 610.082 712.559, 603.206 709.525, 599 709.030 C 592.721 708.291, 592.853 705.626, 599.337 702.230 C 602.903 700.362, 604.714 698.583, 606.234 695.455 C 608.930 689.906, 608.107 687.569, 603.738 688.370 C 601.957 688.696, 598.025 689.245, 595 689.590 C 591.975 689.935, 587.493 690.870, 585.040 691.668 C 576.562 694.426, 564.666 695.920, 554.202 695.540 C 542.595 695.120, 539.537 693.851, 538.261 688.928 C 537.825 687.244, 537.137 686.196, 536.734 686.600" stroke="#fc7143" fill="#fc7143" fill-opacity="0.2" fill-rule="evenodd"/><path class="svg-region-PP" d="M 531.530 598.275 C 521.975 605.391, 514.206 608.046, 501 608.707 C 492.688 609.122, 492.411 609.219, 488.470 613.058 C 484.886 616.550, 483.724 617.060, 477.974 617.660 C 474.118 618.064, 469.893 619.264, 467.504 620.636 C 462.283 623.636, 459.087 625.059, 450 628.434 C 436.171 633.569, 437.207 632.299, 442.170 638.039 C 444.551 640.794, 447.790 644.870, 449.366 647.098 C 450.942 649.326, 453.201 651.590, 454.384 652.129 C 459.064 654.261, 462.918 663.330, 462.976 672.342 C 462.990 674.639, 463.804 677.207, 465 678.727 C 466.313 680.396, 467 682.784, 467 685.675 C 467 688.106, 467.896 691.836, 469 694 C 470.339 696.625, 471 699.894, 471 703.892 C 471 709.342, 470.746 710.044, 468.096 711.932 C 466.498 713.069, 464.698 714, 464.096 714 C 461.883 714, 463.106 716.482, 467.199 720.299 C 469.508 722.453, 472.488 724.929, 473.820 725.802 C 476.070 727.276, 476.341 727.255, 477.621 725.503 C 478.380 724.466, 479.014 723.141, 479.032 722.559 C 479.084 720.846, 492.100 713.001, 494.918 712.985 C 496.338 712.977, 499.415 712.304, 501.756 711.488 C 504.500 710.532, 512.229 709.771, 523.506 709.346 L 541 708.686 541 705.426 C 541 703.633, 540.663 702.017, 540.250 701.833 C 537.192 700.474, 534.551 688.014, 537 686.500 C 537.550 686.160, 538 683.579, 538 680.764 C 538 676.326, 537.604 675.304, 535.019 673.073 C 530.263 668.969, 529.222 663.044, 531.464 652.838 C 532.471 648.252, 533.981 643.386, 534.818 642.025 C 535.873 640.310, 536.547 635.397, 537.010 626.025 C 537.378 618.586, 538.202 611.233, 538.840 609.685 C 540.566 605.496, 540.256 602.266, 537.812 598.960 C 536.609 597.332, 535.371 596.014, 535.062 596.032 C 534.753 596.049, 533.163 597.059, 531.530 598.275" stroke="#c4743d" fill="#c4743d" fill-opacity="0.2" fill-rule="evenodd"/><path class="svg-region-LPr" d="M 553.037 575.974 C 548.245 577.870, 542.412 583.105, 541.368 586.447 C 541.015 587.576, 539.663 589.772, 538.363 591.327 C 535.427 594.838, 535.389 596.721, 538.193 599.706 C 540.254 601.900, 540.311 602.356, 539.131 607.270 C 538.441 610.147, 537.527 618.666, 537.101 626.201 C 536.658 634.020, 535.824 640.507, 535.158 641.309 C 533.635 643.145, 530 657.400, 530 661.538 C 530 666.059, 532.560 671.666, 535.505 673.595 C 537.794 675.095, 538 675.842, 538 682.660 C 538 694.129, 540.560 695.738, 559 695.862 C 564.815 695.901, 575.218 694.287, 586 691.672 C 589.575 690.806, 595.650 689.566, 599.500 688.918 C 603.350 688.270, 607.010 687.337, 607.632 686.845 C 608.255 686.353, 613.430 685.319, 619.132 684.547 C 635.833 682.286, 654.368 676.945, 657.500 673.491 C 658.600 672.279, 660.961 670.796, 662.747 670.196 C 664.533 669.597, 667.458 668.009, 669.247 666.668 C 671.615 664.894, 674.405 664.038, 679.500 663.522 C 687.564 662.704, 690 661.071, 690 656.480 C 690 654.714, 690.945 652.068, 692.100 650.600 C 693.255 649.132, 694.433 646.192, 694.718 644.067 C 695.140 640.917, 694.688 639.400, 692.266 635.852 C 690.633 633.458, 689.478 630.979, 689.701 630.343 C 689.923 629.707, 689.218 628.566, 688.134 627.807 C 684.570 625.310, 657.432 598.569, 655.194 595.349 C 652.069 590.851, 642.602 584.836, 638.167 584.531 C 633.910 584.238, 631 583.167, 631 581.893 C 631 580.526, 627.686 580.831, 625.439 582.405 C 622.071 584.764, 610.971 587.989, 603.983 588.638 C 598.488 589.149, 595.954 588.808, 589.022 586.627 C 584.433 585.182, 578.482 584, 575.799 584 C 569.776 584, 563.445 580.947, 561.168 576.944 C 559.265 573.600, 559.087 573.579, 553.037 575.974" stroke="#d2454f" fill="#d2454f" fill-opacity="0.2" fill-rule="evenodd"/><path class="svg-region-DMr" d="M 372.975 614.565 C 372.439 615.976, 372 617.551, 372 618.065 C 372 618.579, 371.617 619, 371.149 619 C 369.933 619, 368.647 656.047, 369.823 657.223 C 370.343 657.743, 374.758 658.693, 379.634 659.334 L 388.500 660.500 389.724 664 C 390.584 666.459, 390.768 671.517, 390.345 681.011 C 389.751 694.360, 389.780 694.613, 392.754 702.011 C 396.417 711.124, 399.643 721.169, 400.572 726.356 C 401.152 729.598, 401.838 730.438, 404.881 731.631 C 406.872 732.412, 409.221 733.452, 410.103 733.942 C 410.985 734.432, 413.910 735.144, 416.603 735.525 C 419.296 735.905, 423.525 737.397, 426 738.841 C 428.475 740.284, 432.075 742.189, 434 743.074 C 435.925 743.959, 438.118 745.429, 438.872 746.342 C 439.627 747.254, 440.796 748, 441.469 748 C 442.142 748, 444.199 748.751, 446.040 749.670 C 448.432 750.863, 449.498 751.006, 449.777 750.170 C 450.005 749.484, 452.305 748.986, 455.333 748.967 C 461.089 748.930, 465 746.579, 465 743.156 C 465 740.191, 455.786 731.230, 450.268 728.828 C 444.080 726.135, 442 724.241, 442 721.297 C 442 718.197, 446.561 713.994, 449.896 714.022 C 451.328 714.034, 454.300 714.860, 456.500 715.858 C 460.657 717.744, 463 717.672, 463 715.661 C 463 715.016, 464.462 713.852, 466.250 713.074 C 468.038 712.297, 469.831 711.174, 470.235 710.580 C 471.788 708.297, 471.018 697.955, 469 694 C 467.896 691.836, 467 688.106, 467 685.675 C 467 682.784, 466.313 680.396, 465 678.727 C 463.804 677.207, 462.990 674.639, 462.976 672.342 C 462.920 663.568, 458.863 653.761, 454.738 652.427 C 453.768 652.114, 451.877 650.241, 450.535 648.266 C 445.849 641.371, 436.518 631.829, 432.524 629.850 C 424.579 625.912, 423.206 624.959, 420.649 621.606 C 419.222 619.735, 416.130 617.237, 413.777 616.053 C 411.425 614.870, 408.742 613.382, 407.815 612.747 C 406.548 611.878, 405.557 611.876, 403.815 612.737 C 400.814 614.220, 391.866 616, 387.411 616 C 385.491 616, 382.156 615.100, 380 614 C 374.930 611.413, 374.150 611.476, 372.975 614.565" stroke="#68533d" fill="#68533d" fill-opacity="0.2" fill-rule="evenodd"/><path class="svg-region-VMr" d="M 510.468 709.992 C 506.050 710.379, 501.467 711.215, 500.284 711.848 C 499.100 712.482, 496.737 713, 495.032 713 C 491.251 713, 479.889 720.380, 478.176 723.949 C 476.051 728.375, 476.838 730.358, 483.250 736.739 C 492.225 745.672, 496.181 748.504, 506.678 753.509 C 511.807 755.954, 519.265 760.402, 523.251 763.393 C 530.551 768.870, 543.587 776, 546.300 776 C 547.769 776, 553 782.073, 553 783.778 C 553 784.280, 553.838 785.448, 554.861 786.374 C 555.885 787.301, 557.797 790.794, 559.111 794.138 C 561.899 801.232, 566.263 806.007, 569.940 805.985 C 573.520 805.963, 574.587 805.005, 575.341 801.134 C 575.701 799.283, 577.363 796.133, 579.033 794.134 C 580.703 792.135, 582.527 789.932, 583.086 789.237 C 583.825 788.320, 583.134 786.954, 580.560 784.237 C 575.956 779.381, 575.809 775.426, 580.051 770.594 C 582.084 768.279, 584.151 767.016, 586.244 766.810 C 588.846 766.553, 589.528 765.942, 590.221 763.250 C 591.030 760.105, 591.226 760, 596.279 759.998 C 602.382 759.997, 607.675 757.593, 609.487 754 C 611.841 749.332, 615.241 740.511, 615.725 737.817 C 616.424 733.926, 612.602 727.226, 606.844 722.250 C 602.190 718.228, 601.592 718.001, 595.713 718.013 C 592.296 718.020, 586.647 718.920, 583.161 720.013 C 579.674 721.106, 574.837 722, 572.411 722 C 569.157 722, 568 722.393, 568 723.500 C 568 725.599, 567.206 725.396, 563.098 722.250 C 556.585 717.261, 552.771 714.889, 546.501 711.927 C 540.744 709.207, 539.535 709.010, 529.403 709.144 C 523.406 709.223, 514.886 709.604, 510.468 709.992" stroke="#e59376" fill="#e59376" fill-opacity="0.2" fill-rule="evenodd"/><path class="svg-region-PMr" d="M 265.500 720.724 C 256.347 725.409, 254.662 727.356, 255.341 732.465 C 255.938 736.963, 258.086 739, 262.231 739 C 263.798 739, 266.974 739.968, 269.290 741.150 C 273.062 743.076, 277.846 743.697, 284.500 743.123 C 285.600 743.028, 288.866 740.800, 291.758 738.172 C 296.998 733.410, 297.014 733.378, 296.368 728.667 C 295.728 723.997, 295.638 723.900, 288.805 720.470 C 279.592 715.847, 274.929 715.898, 265.500 720.724" stroke="#90cf92" fill="#90cf92" fill-opacity="0.2" fill-rule="evenodd"/><path class="svg-region-PV" d="M 360 623.797 C 353.971 629.798, 344.469 634.132, 337.666 633.983 C 327.655 633.764, 300.231 636.564, 296 638.237 C 294.625 638.781, 289.942 639.962, 285.593 640.863 L 277.687 642.500 274.162 649.500 C 270.820 656.136, 264.091 664, 261.755 664 C 259.790 664, 255 670.318, 254.985 672.930 C 254.966 676.386, 252.228 684.075, 250.227 686.295 C 248.839 687.834, 248.779 688.724, 249.805 692.559 C 250.462 695.017, 251 697.950, 251 699.076 C 251 700.202, 252.114 703.458, 253.477 706.312 C 255.447 710.440, 257.193 712.295, 262.022 715.390 C 267.363 718.812, 268.392 719.143, 270.593 718.140 C 274.983 716.139, 280.847 716.825, 288.104 720.188 C 291.888 721.941, 295.225 724.134, 295.520 725.062 C 295.955 726.434, 296.935 726.651, 300.777 726.230 C 303.375 725.944, 305.730 725.362, 306.010 724.935 C 306.291 724.508, 307.836 723.828, 309.443 723.425 C 311.051 723.021, 313.522 722.088, 314.933 721.352 C 316.345 720.615, 318.063 720.010, 318.750 720.006 C 319.438 720.003, 320 719.550, 320 719 C 320 718.450, 320.930 718, 322.066 718 C 324.257 718, 327.751 716.405, 329.531 714.592 C 331.595 712.490, 335 704.343, 335 701.505 C 335 698.119, 337.061 692, 338.201 692 C 338.640 692, 339 691.365, 339 690.589 C 339 689.813, 340.415 687.987, 342.144 686.533 C 344.503 684.548, 345.002 683.602, 344.144 682.744 C 343.515 682.115, 343 679.594, 343 677.142 C 343 673.437, 343.709 671.766, 347.200 667.241 C 349.510 664.246, 352.896 660.656, 354.725 659.261 C 357.620 657.053, 358.737 656.796, 363.375 657.275 L 368.700 657.825 369.346 645.162 C 370.391 624.679, 370.232 620.303, 368.418 619.607 C 365.776 618.593, 364.681 619.138, 360 623.797" stroke="#b09658" fill="#b09658" fill-opacity="0.2" fill-rule="evenodd"/><path class="svg-region-LPVr" d="M 352.886 661.133 C 343.889 670.077, 343 671.530, 343 677.291 C 343 680.211, 343.540 683.140, 344.200 683.800 C 345.133 684.733, 345.078 685, 343.950 685.002 C 341.375 685.005, 335.813 694.431, 335.283 699.691 C 334.813 704.350, 331.720 712.364, 329.531 714.592 C 327.751 716.405, 324.257 718, 322.066 718 C 320.930 718, 320 718.414, 320 718.921 C 320 719.427, 318.655 720.136, 317.011 720.497 C 315.368 720.858, 313.766 721.569, 313.452 722.077 C 313.139 722.585, 311.884 723, 310.663 723 C 309.443 723, 307.527 723.643, 306.405 724.429 C 305.283 725.215, 302.596 726.002, 300.433 726.179 C 296.823 726.474, 296.493 726.746, 296.418 729.500 C 296.284 734.370, 296.096 734.835, 294 735.500 C 292.900 735.849, 292 736.779, 292 737.567 C 292 738.355, 291.438 739.012, 290.750 739.027 C 290.063 739.041, 290.738 739.820, 292.250 740.758 C 295.402 742.713, 295.643 744.090, 293.423 747.477 C 291.152 750.943, 291.962 754.228, 295.500 755.895 C 299.760 757.903, 300.070 758.673, 299.769 766.500 C 299.502 773.439, 299.522 773.497, 302 773.207 C 303.375 773.046, 305.400 772.544, 306.500 772.091 C 307.600 771.638, 309.625 770.804, 311 770.237 C 312.375 769.669, 316.650 767.729, 320.500 765.924 C 331.701 760.672, 336.145 759.078, 356.619 752.966 C 363.834 750.812, 371.034 748.553, 372.619 747.945 C 374.204 747.337, 379.325 746.166, 384 745.343 C 400.682 742.406, 402.202 742.079, 405.128 740.797 C 407.369 739.816, 407.961 739.012, 407.559 737.500 C 407.267 736.400, 407.021 734.822, 407.014 733.994 C 407.006 733.166, 405.650 731.891, 404 731.160 C 402.325 730.419, 401 729.064, 401 728.092 C 401 725.457, 396.384 710.486, 392.862 701.701 C 389.758 693.957, 389.740 693.806, 390.346 680.701 C 390.777 671.402, 390.594 666.466, 389.729 664 C 388.519 660.553, 388.379 660.482, 380.500 659.339 C 376.100 658.700, 369.075 657.860, 364.890 657.472 L 357.279 656.766 352.886 661.133" stroke="#494949" fill="#494949" fill-opacity="0.2" fill-rule="evenodd"/><path class="svg-region-Fr" d="M 315.481 524.439 C 314.391 525.263, 312.888 525.951, 312.141 525.968 C 309.867 526.021, 299 536.440, 299 538.567 C 299 540.284, 289.645 549.660, 287.139 550.456 C 285.962 550.829, 285 551.554, 285 552.067 C 285 552.580, 284.424 553, 283.719 553 C 282.398 553, 260.208 563.978, 254 567.703 C 247.694 571.488, 238.577 579.269, 234.500 584.346 C 226.328 594.525, 224.699 597.442, 223.246 604.500 C 221.530 612.831, 221.432 636.611, 223.105 638.626 C 223.715 639.361, 224.615 642.783, 225.105 646.231 C 225.596 649.679, 226.281 654.409, 226.628 656.742 C 227.018 659.370, 226.822 661.509, 226.112 662.365 C 225.481 663.125, 225.249 664.484, 225.595 665.386 C 225.941 666.288, 225.743 667.605, 225.156 668.312 C 224.568 669.020, 223.785 671.489, 223.416 673.800 L 222.744 678 230.406 678 C 238.056 678, 238.070 678.005, 240.070 681.394 C 242.186 684.980, 246.932 687.624, 249.491 686.642 C 250.330 686.320, 251.512 684.806, 252.116 683.278 C 252.721 681.750, 253.617 679.719, 254.108 678.764 C 255.472 676.109, 255.172 672.388, 253.482 670.985 C 252.071 669.814, 251.070 667.887, 248.141 660.703 C 246.578 656.872, 246.711 652.887, 248.521 649.259 C 250.327 645.639, 251.504 644.619, 255.500 643.213 L 258.500 642.158 255.250 642.079 C 252.487 642.012, 252 641.632, 252 639.545 C 252 637.530, 252.629 636.973, 255.511 636.432 C 257.442 636.070, 259.269 635.374, 259.570 634.887 C 259.871 634.399, 261.632 634, 263.482 634 C 266.087 634, 267.731 634.903, 270.767 638 C 275.891 643.227, 278.898 643.192, 299.246 637.671 C 302.407 636.813, 313.432 635.584, 323.746 634.940 C 334.061 634.296, 344.496 633.123, 346.936 632.333 C 351.863 630.738, 359.900 625.214, 362.969 621.312 C 364.430 619.455, 365.575 618.928, 367.241 619.346 C 370.156 620.077, 371.108 619.347, 373.234 614.750 C 374.731 611.512, 374.762 611, 373.462 611 C 372.634 611, 371.445 609.875, 370.818 608.500 C 370.192 607.125, 369.310 606, 368.860 606 C 367.694 606, 364 598.466, 364 596.087 C 364 594.991, 363.540 593.060, 362.978 591.797 C 362.416 590.534, 360.891 584.206, 359.589 577.736 C 358.286 571.265, 356.741 565.393, 356.154 564.686 C 355.568 563.979, 354.780 561.398, 354.405 558.950 C 353.477 552.904, 351.768 549.820, 345.661 543.166 C 342.800 540.050, 339.425 535.820, 338.159 533.767 C 334.326 527.549, 319.457 521.434, 315.481 524.439" stroke="#5ca7a9" fill="#5ca7a9" fill-opacity="0.2" fill-rule="evenodd"/><path class="svg-region-PCr" d="M 259 634.999 C 258.175 635.484, 256.262 636.141, 254.750 636.459 C 252.644 636.903, 252 637.619, 252 639.519 C 252 641.615, 252.471 642, 255.031 642 C 256.803 642, 258.302 642.623, 258.638 643.500 C 259.842 646.637, 273 644.176, 273 640.814 C 273 640.189, 271.569 638.401, 269.820 636.839 C 266.582 633.949, 262.088 633.184, 259 634.999" stroke="#465ee0" fill="#465ee0" fill-opacity="0.2" fill-rule="evenodd"/><path class="svg-region-DV" d="M 222 680.911 C 222 682.512, 221.106 686.674, 220.013 690.161 C 217.053 699.602, 217.340 705.897, 221 711.846 C 222.650 714.527, 224 717.178, 224 717.735 C 224 718.601, 227.579 722.432, 234.617 729.098 C 235.545 729.977, 238.760 733.239, 241.761 736.348 C 247.033 741.809, 251 743.595, 251 740.508 C 251 739.688, 251.900 738.455, 253 737.768 C 254.468 736.851, 255 735.436, 255 732.447 C 255 727.733, 258.059 724.126, 264.250 721.540 C 268.307 719.845, 268.966 718.584, 266.325 717.571 C 261.879 715.865, 256.048 711.145, 254.500 708 C 253.553 706.075, 252.378 703.719, 251.889 702.764 C 251.400 701.809, 251 700.247, 251 699.293 C 251 698.339, 250.446 695.174, 249.768 692.260 C 248.692 687.630, 248.121 686.812, 245.243 685.771 C 243.355 685.088, 241.122 683.177, 240.009 681.290 C 238.070 678.004, 238.057 678, 230.034 678 L 222 678 222 680.911" stroke="#45567a" fill="#45567a" fill-opacity="0.2" fill-rule="evenodd"/><path class="svg-region-VV" d="M 254 737.731 C 253.175 738.046, 251.519 739.350, 250.320 740.628 C 248.260 742.824, 248.232 743.064, 249.820 744.997 C 251.399 746.920, 257.852 751.835, 266.143 757.431 C 268.146 758.783, 270.825 761.377, 272.095 763.195 C 275.303 767.783, 279.046 770.955, 282 771.586 C 283.375 771.880, 285.281 772.544, 286.236 773.060 C 287.191 773.577, 290.181 774, 292.879 774 C 298.502 774, 298.791 773.615, 299.585 765.083 C 300.167 758.816, 299.761 757.903, 295.500 755.895 C 291.962 754.228, 291.152 750.943, 293.423 747.477 C 295.646 744.084, 295.387 742.133, 292.541 740.837 C 290.557 739.933, 289.567 740.054, 287.414 741.464 C 283.623 743.949, 274.606 743.864, 269.500 741.297 C 267.300 740.190, 263.925 739.034, 262 738.728 C 260.075 738.421, 257.825 737.943, 257 737.664 C 256.175 737.386, 254.825 737.416, 254 737.731" stroke="#7699d1" fill="#7699d1" fill-opacity="0.2" fill-rule="evenodd"/><path class="svg-region-Or" d="M 709 210.626 C 708.175 210.884, 705.700 211.959, 703.500 213.016 C 701.300 214.074, 696.123 216.447, 691.996 218.290 C 674.573 226.073, 651.002 249.630, 643.258 267 C 641.910 270.025, 640.176 273.915, 639.406 275.645 C 638.636 277.374, 637.527 282.324, 636.941 286.645 C 636.355 290.965, 635.474 295.850, 634.982 297.500 C 634.490 299.150, 633.835 305.169, 633.525 310.876 C 633.216 316.582, 632.734 321.622, 632.454 322.075 C 631.194 324.113, 632.689 377, 634.006 377 C 634.393 377, 634.972 380.127, 635.293 383.949 C 635.613 387.771, 636.353 391.791, 636.938 392.883 C 637.522 393.975, 638 397.122, 638 399.875 C 638 402.629, 638.450 405.160, 639 405.500 C 639.550 405.840, 640 408.590, 640 411.612 C 640 414.633, 640.643 420.119, 641.429 423.803 C 642.216 427.486, 643.132 433.957, 643.465 438.182 C 644.097 446.196, 647.718 461.569, 651.194 471 C 652.309 474.025, 653.618 479.200, 654.104 482.500 C 655.047 488.911, 657.724 496, 659.203 496 C 659.697 496, 660.715 497.462, 661.464 499.250 C 662.687 502.168, 669.367 511.740, 671.059 513 C 671.428 513.275, 672.079 514.625, 672.506 516 C 673.244 518.380, 674.254 519.901, 680 527.287 C 681.375 529.054, 683.544 532.580, 684.821 535.122 C 686.097 537.664, 688.166 540.210, 689.418 540.781 C 690.670 541.351, 692.717 543.996, 693.968 546.659 C 696.941 552.991, 716.519 572.469, 723.829 576.368 C 728.586 578.905, 729.927 579.166, 736.329 578.798 C 742.796 578.425, 744.124 577.963, 749.855 574.090 C 753.351 571.728, 764.206 561.854, 773.979 552.148 C 790.977 535.265, 791.928 534.110, 795.934 525.500 C 798.236 520.550, 800.750 515.150, 801.520 513.500 C 804.044 508.090, 805.848 498.690, 806.559 487.250 C 806.943 481.062, 807.649 476, 808.129 476 C 808.608 476, 809 470.015, 809 462.700 C 809 453.395, 809.375 449.024, 810.250 448.148 C 811.757 446.637, 811.529 385.960, 809.982 377 C 809.459 373.975, 808.523 365.650, 807.901 358.500 C 805.555 331.548, 804.831 326.175, 801.502 311 C 800.718 307.425, 799.781 302.700, 799.421 300.500 C 797.735 290.216, 786.587 262.783, 781.186 255.630 C 779.051 252.802, 776.501 248.916, 775.519 246.994 C 774.538 245.072, 771.189 241.025, 768.077 238 C 764.965 234.975, 761.762 231.581, 760.959 230.459 C 760.157 229.336, 757.400 227.202, 754.834 225.716 C 752.268 224.230, 748.831 221.677, 747.196 220.042 C 745.561 218.407, 740.873 215.479, 736.776 213.535 C 729.825 210.235, 728.702 210.005, 719.914 210.079 C 714.737 210.122, 709.825 210.369, 709 210.626" stroke="#aa444d" fill="#aa444d" fill-opacity="0.2" fill-rule="evenodd"/><path class="svg-region-VOC" d="M 510.200 487.200 C 509.540 487.860, 509 490.418, 509 492.884 C 509 498.467, 506.080 504.646, 500.938 509.944 C 497.680 513.302, 497 514.696, 497 518.023 C 497 523.528, 500.989 529.332, 506.661 532.078 C 509.104 533.261, 511.807 535.302, 512.667 536.614 C 515.545 541.006, 518.759 539.861, 526.235 531.780 C 532.180 525.353, 532.971 524.035, 532.985 520.527 C 532.998 517.124, 532.420 516.049, 528.954 513.027 L 524.908 509.500 526.954 505.539 C 530.956 497.791, 528.693 490.441, 521.364 487.379 C 517.300 485.681, 511.807 485.593, 510.200 487.200" stroke="#ff8f93" fill="#ff8f93" fill-opacity="0.2" fill-rule="evenodd"/><path class="svg-region-OABr" d="M 622.500 437.590 C 617.570 439.376, 616.266 441.045, 615.426 446.647 C 615.065 449.055, 614.371 451.271, 613.885 451.571 C 613.398 451.872, 613 452.758, 613 453.540 C 613 455.714, 605.436 471.151, 601.517 476.975 C 599.600 479.823, 597.391 484.311, 596.608 486.949 C 594.306 494.700, 592.099 498.105, 584.755 505.236 C 579.807 510.041, 576.625 512.288, 573.659 513.075 C 569.268 514.240, 565 517.475, 565 519.638 C 565 521.644, 573.124 528.826, 576.803 530.071 C 578.620 530.687, 581.305 530.889, 582.770 530.522 C 585.571 529.819, 598.030 520.462, 605.769 513.250 C 608.277 510.913, 610.971 509, 611.755 509 C 614.319 509, 620.750 503.611, 623.378 499.260 C 626.001 494.917, 631.128 491.010, 634.215 491.004 C 635.158 491.002, 636.395 490.130, 636.965 489.066 C 639.327 484.651, 637.533 467.313, 633.556 456.124 C 632.700 453.718, 632 448.745, 632 445.074 C 632 435.806, 630.559 434.671, 622.500 437.590" stroke="#81244d" fill="#81244d" fill-opacity="0.2" fill-rule="evenodd"/><path class="svg-region-SOTr" d="M 545.978 458.297 C 532.563 465.627, 531.883 466.209, 530.922 471.179 C 529.516 478.457, 529.894 482.572, 532.482 488.151 C 533.846 491.093, 535.497 495.975, 536.149 499 C 537.673 506.066, 543.193 514, 546.585 514 C 548.477 514, 549 513.473, 549 511.567 C 549 510.229, 550.976 503.591, 553.392 496.817 C 555.807 490.043, 558.333 482.925, 559.004 481 C 559.675 479.075, 561.558 474.009, 563.189 469.743 L 566.154 461.986 563.880 458.243 C 559.746 451.439, 558.519 451.443, 545.978 458.297" stroke="#995b45" fill="#995b45" fill-opacity="0.2" fill-rule="evenodd"/><path class="svg-region-BPCr" d="M 764.500 625.200 C 757.556 636.217, 754.775 639.648, 749.670 643.500 C 748.212 644.600, 746.002 646.335, 744.759 647.356 C 741.339 650.165, 738.438 651, 732.095 651 C 724.978 651, 717.567 647.509, 707.835 639.574 C 699.474 632.756, 695.487 630.661, 692.365 631.444 L 689.946 632.052 692.596 636.574 C 695.646 641.778, 695.474 646.311, 692.060 650.650 C 690.913 652.109, 690 654.751, 690 656.612 C 690 661.059, 687.315 662.711, 678.650 663.597 C 673.790 664.093, 671.031 664.937, 669.150 666.503 C 667.693 667.717, 664.809 669.261, 662.742 669.935 C 660.676 670.609, 658.549 671.975, 658.016 672.970 C 656.245 676.280, 637.165 681.954, 619.149 684.528 C 613.455 685.342, 608.391 686.258, 607.895 686.565 C 607.399 686.872, 607.250 688.147, 607.564 689.400 C 608.239 692.087, 604.491 699.887, 602.103 700.765 C 601.222 701.089, 598.779 702.426, 596.676 703.736 C 593.546 705.686, 593.070 706.379, 594.049 707.559 C 594.707 708.352, 596.623 709, 598.307 709 C 601.452 709, 609.469 712.380, 611.821 714.698 C 612.548 715.414, 613.679 716, 614.335 716 C 614.990 716, 617.839 717.557, 620.665 719.460 C 624.254 721.877, 629.377 723.872, 637.652 726.077 C 644.168 727.812, 649.725 729.518, 650 729.866 C 650.611 730.640, 655.598 733.528, 659 735.077 C 660.375 735.703, 662.281 736.617, 663.236 737.108 C 664.191 737.598, 665.603 738, 666.372 738 C 667.672 738, 676.415 743.544, 681.860 747.821 C 683.949 749.461, 684.068 749.918, 682.898 751.792 C 682.171 752.956, 681.869 754.202, 682.227 754.561 C 682.586 754.919, 686.578 754.715, 691.099 754.106 C 695.619 753.498, 701.245 753, 703.600 753 C 705.955 753, 708.160 752.550, 708.500 752 C 708.840 751.450, 713.115 751, 718 751 C 722.885 751, 727.129 750.600, 727.432 750.110 C 728.015 749.166, 731.207 748.540, 742.500 747.155 C 747.651 746.523, 750.689 745.504, 754 743.296 C 756.475 741.646, 761.310 738.818, 764.744 737.012 C 771.090 733.674, 774.421 730.926, 779.117 725.153 C 781.556 722.154, 781.781 721.008, 782.429 708.218 C 782.812 700.673, 783.593 692.700, 784.165 690.500 C 785.327 686.030, 789.305 681.857, 798.794 675.156 C 803.899 671.551, 805.057 670.191, 805.606 667.156 C 805.970 665.145, 806.882 662.285, 807.634 660.800 C 809.575 656.963, 809.347 654.618, 806.483 648.967 C 804.458 644.971, 803.469 644, 801.421 644 C 796.939 644, 788.928 640.820, 787.352 638.414 C 786.519 637.143, 785.086 631.741, 784.168 626.409 L 782.500 616.717 778 615.374 C 775.525 614.635, 773.050 614.045, 772.500 614.063 C 771.950 614.081, 768.350 619.093, 764.500 625.200" stroke="#83385f" fill="#83385f" fill-opacity="0.2" fill-rule="evenodd"/><path class="svg-region-AMC" d="M 444.455 716.455 C 441.579 719.331, 441.279 723.059, 443.750 725.222 C 444.712 726.064, 447.525 727.651, 450 728.748 C 455.422 731.151, 463.693 738.927, 464.578 742.455 C 465.554 746.344, 461.857 748.925, 455.250 748.967 C 452.363 748.985, 450 749.360, 450 749.799 C 450 750.703, 454.780 752.491, 460 753.538 C 461.925 753.925, 464.765 754.888, 466.312 755.678 C 467.858 756.468, 472.583 757.736, 476.812 758.495 C 481.040 759.254, 487.079 760.776, 490.232 761.877 C 499.008 764.943, 512.034 772.030, 516.612 776.229 C 518.873 778.303, 521.182 780, 521.743 780 C 522.304 780, 523.964 781.575, 525.432 783.500 C 526.900 785.425, 528.583 787, 529.172 787 C 531.111 787, 543.132 799.410, 545.638 804 C 546.989 806.475, 548.724 809.625, 549.494 811 C 550.264 812.375, 551.705 815.640, 552.697 818.256 C 553.689 820.872, 555.288 823.265, 556.250 823.574 C 557.212 823.882, 558 824.537, 558 825.028 C 558 825.520, 558.985 826.840, 560.189 827.961 C 562.784 830.379, 567.883 830.629, 571.931 828.536 C 575.345 826.770, 575.971 823.767, 575.230 812.703 L 574.708 804.905 571.882 805.526 C 570.038 805.931, 568.032 805.541, 566.107 804.404 C 563.003 802.571, 562.418 801.662, 558.961 793.321 C 557.781 790.473, 555.957 787.366, 554.908 786.416 C 553.858 785.467, 553 784.180, 553 783.557 C 553 781.140, 547.266 776.178, 542.500 774.473 C 537.625 772.728, 532.277 769.494, 519.678 760.673 C 516.280 758.294, 510.724 755.173, 507.331 753.738 C 503.938 752.302, 499.312 749.960, 497.051 748.532 C 491.068 744.755, 478.063 732.099, 477.384 729.393 C 477.063 728.116, 476.042 726.831, 475.114 726.536 C 474.186 726.242, 471.283 723.976, 468.663 721.500 C 465.826 718.820, 462.957 717, 461.571 717 C 460.292 717, 457.629 716.325, 455.654 715.500 C 450.533 713.360, 447.271 713.638, 444.455 716.455" stroke="#9d4741" fill="#9d4741" fill-opacity="0.2" fill-rule="evenodd"/><path class="svg-region-PNr" d="M 269.500 643.536 C 265.835 645.214, 259 645.435, 259 643.875 C 259 641.620, 252.532 643.949, 249.750 647.205 C 247.592 649.732, 247 651.442, 247 655.153 C 247 657.754, 247.392 660.124, 247.871 660.420 C 248.350 660.716, 248.993 662.217, 249.301 663.756 C 249.609 665.294, 250.844 667.804, 252.047 669.333 L 254.233 672.112 255.806 669.867 C 258.056 666.654, 260.843 664, 261.965 664 C 264.500 664, 270.522 656.923, 274.027 649.825 L 277.891 642 275.195 642.081 C 273.713 642.126, 271.150 642.781, 269.500 643.536" stroke="#bbc0d1" fill="#bbc0d1" fill-opacity="0.2" fill-rule="evenodd"/><path class="svg-region-OVr" d="M 561.585 401.717 C 560.595 404.898, 559.270 408.175, 558.642 409 C 555.815 412.713, 555 415.374, 555 420.891 L 555 426.810 559.428 429.405 C 561.864 430.832, 564.721 432, 565.778 432 C 566.835 432, 569.564 433.350, 571.841 435 C 574.969 437.266, 577.074 438, 580.442 438 C 582.916 438, 585.257 437.444, 585.700 436.750 C 586.140 436.063, 587.825 434.822, 589.444 433.993 C 591.139 433.126, 593.411 430.498, 594.798 427.805 C 596.455 424.584, 598.189 422.747, 600.353 421.916 L 603.500 420.709 597.791 419.895 C 594.650 419.448, 590.364 418.206, 588.266 417.136 C 584.046 414.983, 576.654 407.487, 573.207 401.865 C 571.981 399.865, 569.971 398.010, 568.739 397.743 C 567.508 397.476, 565.799 396.960, 564.943 396.596 C 563.730 396.080, 562.988 397.213, 561.585 401.717" stroke="#593939" fill="#593939" fill-opacity="0.2" fill-rule="evenodd"/>
    </svg>