<svg xmlns="http://www.w3.org/2000/svg" width="1078" height="1151" viewBox="0 0 1078 1151" version="1.1">
    <path class="svg-region-V" d="M 494 203.967 C 492.625 204.426, 489.194 204.845, 486.376 204.900 C 483.557 204.955, 479.507 205.608, 477.376 206.352 C 475.244 207.096, 471.210 208.001, 468.411 208.365 C 465.612 208.729, 458.412 210.815, 452.411 213.001 C 446.410 215.187, 440.735 216.981, 439.800 216.988 C 438.865 216.994, 437.740 217.563, 437.300 218.250 C 436.860 218.938, 434.925 220.235, 433 221.134 C 426.851 224.004, 418.065 231.215, 415.589 235.422 C 414.269 237.665, 410.880 242.134, 408.056 245.353 C 399.657 254.928, 391.269 266.557, 385.926 276.035 C 383.165 280.933, 380.490 285.197, 379.980 285.512 C 379.471 285.827, 378.577 287.978, 377.994 290.292 C 375.536 300.049, 368.019 323.623, 361.346 342.500 C 357.029 354.710, 356.127 366.002, 357.915 385.443 C 359.624 404.040, 359.925 404.847, 368.155 412.948 C 381.243 425.829, 391.665 426.237, 408.429 414.522 C 415.245 409.759, 423.793 401.206, 426.005 396.935 C 427.021 394.974, 429.737 387.549, 432.040 380.435 C 434.344 373.321, 438.136 363.450, 440.468 358.500 C 442.800 353.550, 444.994 348.375, 445.344 347 C 446.373 342.953, 455.474 331.458, 460.250 328.172 C 462.677 326.502, 467.307 324.207, 470.538 323.071 L 476.414 321.006 484.847 324.188 C 492.401 327.039, 493.577 327.841, 496.140 331.881 C 498.552 335.686, 499 337.439, 499 343.082 C 499 359.009, 511.504 369.920, 528.484 368.810 C 536.365 368.294, 542.944 364.923, 548.519 358.546 C 558.305 347.350, 565.950 341.337, 579.200 334.416 C 583.500 332.169, 588.027 329.406, 589.259 328.274 C 592.692 325.122, 600.443 322, 604.834 322 C 607.104 322, 609.693 321.257, 610.931 320.250 C 613.020 318.552, 613.051 318.202, 611.971 308.500 C 610.951 299.339, 608.836 287.134, 605.819 273 C 604.134 265.109, 599.548 256.074, 595.093 251.868 C 592.977 249.870, 588.609 247.249, 585.386 246.043 C 582.163 244.837, 579.295 243.527, 579.013 243.131 C 578.159 241.932, 570.973 238, 569.637 238 C 567.640 238, 553.545 228.478, 549.388 224.321 C 545.529 220.463, 538.669 215.973, 529.546 211.335 C 522.636 207.822, 519.843 206.982, 510 205.452 C 505.325 204.725, 500.375 203.906, 499 203.632 C 497.625 203.358, 495.375 203.509, 494 203.967" stroke="#dd8a8a" fill="#dd8a8a" fill-opacity="0.2" fill-rule="evenodd"/><path class="svg-region-SV" d="M 470.287 323 C 467.420 324.019, 462.996 326.283, 460.455 328.031 C 455.245 331.616, 446.599 342.716, 444.902 348 C 444.284 349.925, 442.050 355.100, 439.938 359.500 C 437.826 363.900, 434.213 373.350, 431.908 380.500 C 426.798 396.350, 424.580 400.321, 416.836 407.491 C 409.634 414.159, 409.458 416.668, 416.268 415.586 C 418.596 415.216, 425 414.544, 430.500 414.093 C 439.328 413.368, 440.940 413.493, 444.250 415.156 C 447.454 416.766, 448 417.525, 448 420.365 C 448 426.774, 453.181 428.549, 459.604 424.340 C 461.643 423.004, 462 421.964, 462 417.364 C 462 412.567, 462.282 411.829, 464.500 410.818 C 465.875 410.192, 467 409.076, 467 408.339 C 467 406.506, 470.648 406.640, 471.362 408.500 C 471.698 409.377, 473.197 410, 474.969 410 C 477.831 410, 478 409.781, 478 406.057 C 478 401.762, 480.570 399, 484.567 399 C 485.734 399, 487.996 397.876, 489.594 396.501 C 492.836 393.713, 497 393.150, 497 395.500 C 497 396.517, 498.018 397, 500.162 397 C 503.880 397, 514 393.978, 514 392.868 C 514 391.137, 520.675 386.009, 522.934 386.005 C 524.273 386.002, 527.998 386.738, 531.212 387.639 C 534.425 388.541, 537.269 389.064, 537.532 388.802 C 537.794 388.539, 537.498 386.859, 536.874 385.069 C 535.780 381.930, 536.142 374.223, 537.624 369.081 C 538.231 366.977, 538.073 366.769, 536.411 367.478 C 533.090 368.895, 522.631 369.247, 518.322 368.087 C 511.572 366.269, 504.855 360.980, 501.751 355.038 C 499.549 350.822, 499 348.438, 499 343.082 C 499 337.419, 498.555 335.690, 496.102 331.822 C 493.518 327.748, 492.318 326.915, 485.017 324.127 C 480.514 322.407, 476.530 321.033, 476.165 321.073 C 475.799 321.113, 473.154 321.980, 470.287 323" stroke="#c666b5" fill="#c666b5" fill-opacity="0.2" fill-rule="evenodd"/><path class="svg-region-SF" d="M 609.992 320.940 C 609.171 321.375, 606.162 321.992, 603.304 322.312 C 597.801 322.927, 592.850 325.003, 589.421 328.130 C 588.278 329.173, 583.737 331.933, 579.329 334.263 C 565.472 341.590, 557.493 347.864, 549 358.114 C 547.075 360.437, 544.026 363.213, 542.224 364.283 C 538.095 366.735, 537.202 368.431, 536.386 375.375 C 535.301 384.605, 537.226 389.335, 545.441 397.620 C 551.321 403.552, 553.693 405.188, 559.646 407.418 C 567.596 410.397, 575.100 416.870, 577.708 423 C 580.619 429.844, 583.917 432.979, 592.491 437.052 C 597.061 439.224, 601.632 440.998, 602.650 440.996 C 605.108 440.991, 610.758 437.517, 614.620 433.636 C 616.336 431.911, 618.528 429.869, 619.491 429.097 C 621.094 427.814, 621.182 426.151, 620.527 409.597 C 619.925 394.386, 619.507 391.003, 617.905 388.382 C 616.857 386.667, 616 383.891, 616 382.213 C 616 380.535, 615.364 376.538, 614.586 373.331 C 613.684 369.613, 612.974 359.030, 612.625 344.122 C 612.324 331.265, 611.944 320.611, 611.781 320.447 C 611.617 320.284, 610.812 320.506, 609.992 320.940" stroke="#8c6b55" fill="#8c6b55" fill-opacity="0.2" fill-rule="evenodd"/><path class="svg-region-AAB" d="M 632.250 491.662 C 631.563 491.940, 631 493.173, 631 494.402 C 631 496.080, 628.943 498.042, 622.750 502.271 C 613.237 508.766, 610.388 510, 604.903 510 C 602.721 510, 599.320 510.675, 597.346 511.500 C 591.361 514, 587.375 513.417, 585.374 509.749 C 584.511 508.165, 584.075 508.309, 580.821 511.249 C 578.841 513.037, 575.399 515.965, 573.170 517.757 C 570.624 519.804, 567.900 523.490, 565.836 527.682 L 562.553 534.350 562.527 557.592 C 562.501 579.626, 562.609 580.982, 564.591 583.667 C 570.492 591.661, 578.380 593.860, 604.157 594.702 C 620.234 595.227, 621.702 594.742, 629.688 586.271 C 637.394 578.098, 646.362 558.170, 647.587 546.500 C 647.933 543.200, 648.903 538.040, 649.742 535.033 C 652.077 526.668, 650.944 513.424, 647.223 505.581 C 645.636 502.236, 643.821 498.262, 643.190 496.750 C 642.559 495.238, 641.246 493.986, 640.271 493.968 C 639.297 493.951, 637.626 493.276, 636.559 492.468 C 634.506 490.915, 634.229 490.864, 632.250 491.662" stroke="#7f3c1a" fill="#7f3c1a" fill-opacity="0.2" fill-rule="evenodd"/><path class="svg-region-APB" d="M 579.246 437.676 C 575.532 439.718, 572.402 442.256, 571.539 443.926 C 569.535 447.800, 565.457 460.456, 564.265 466.500 C 563.722 469.250, 562.051 475.100, 560.551 479.500 C 557.450 488.595, 554.933 496.793, 552.566 505.500 C 551.669 508.800, 550.499 512.882, 549.967 514.571 C 546.892 524.334, 552.720 539.035, 560.608 541.410 C 562.534 541.990, 562.765 541.564, 563.291 536.470 C 564.117 528.468, 568.106 522.132, 577 514.694 C 584.129 508.732, 584.528 508.177, 585.072 503.461 C 585.793 497.207, 587.756 490.269, 589.027 489.483 C 589.562 489.153, 590 486.712, 590 484.060 C 590 481.354, 591.097 476.323, 592.500 472.596 C 593.875 468.943, 595 464.803, 595 463.395 C 595 461.987, 596.350 457.759, 598 454 C 602.022 444.835, 601.967 441.573, 597.750 439.300 C 594.924 437.777, 585.500 433.792, 585.500 434.120 C 585.500 434.185, 582.686 435.785, 579.246 437.676" stroke="#ac7444" fill="#ac7444" fill-opacity="0.2" fill-rule="evenodd"/><path class="svg-region-PC" d="M 531.750 496.264 C 530.788 498.605, 530 501.975, 530 503.752 C 530 505.900, 529.330 507.402, 528 508.232 C 525.455 509.821, 525.383 513.669, 527.884 514.463 C 530.995 515.451, 536 520.863, 536 523.239 C 536 524.461, 535.037 527.785, 533.860 530.625 C 531.698 535.842, 526.652 540, 522.485 540 C 520.943 540, 520.839 540.605, 521.579 545.250 C 522.421 550.533, 522.460 553.635, 521.844 566.500 C 521.527 573.115, 521.756 573.990, 526.004 582.409 C 530.728 591.769, 530.849 591.888, 538 594.211 C 540.779 595.114, 542.954 596.573, 543.686 598.025 C 544.339 599.319, 546.139 601.045, 547.686 601.861 C 550.895 603.553, 564.071 604.585, 569.490 603.568 C 573.152 602.881, 581 596.779, 581 594.618 C 581 593.986, 578.772 592.678, 576.048 591.711 C 569.489 589.381, 565.499 585.874, 563.524 580.703 C 562.209 577.259, 561.961 573.230, 562.202 559.248 L 562.500 542.033 559.849 540.936 C 558.391 540.333, 556.287 538.863, 555.174 537.670 C 552.293 534.581, 549 525.633, 549 520.893 C 549 516.621, 544.935 509.469, 540.901 506.643 C 539.615 505.742, 538.629 503.656, 538.288 501.113 C 537.987 498.867, 537.124 496.518, 536.370 495.892 C 535.617 495.267, 535 494.135, 535 493.378 C 535 490.706, 533.480 492.057, 531.750 496.264" stroke="#cda789" fill="#cda789" fill-opacity="0.2" fill-rule="evenodd"/><path class="svg-region-DB" d="M 517.250 389.055 C 515.462 390.731, 514 392.429, 514 392.829 C 514 393.813, 503.073 397, 499.701 397 C 497.967 397, 497 396.463, 497 395.500 C 497 393.334, 492.783 393.622, 490.274 395.960 C 489.117 397.037, 486.895 398.197, 485.335 398.537 C 479.477 399.815, 478.118 401.051, 477.801 405.392 C 477.533 409.044, 477.194 409.535, 474.744 409.817 C 472.947 410.024, 471.779 409.589, 471.387 408.567 C 470.496 406.245, 468.585 406.651, 465.106 409.901 C 462.435 412.396, 462 413.500, 462 417.786 C 462 423.156, 460.329 425.126, 454.544 426.578 C 451.127 427.436, 448 424.322, 448 420.062 C 448 417.570, 447.343 416.713, 444.250 415.170 C 440.976 413.537, 439.230 413.395, 430.500 414.053 C 425 414.467, 418.745 415.145, 416.600 415.558 C 413.514 416.153, 412.445 415.962, 411.481 414.643 C 410.374 413.130, 409.773 413.311, 405.003 416.591 C 398.088 421.348, 392.002 423.351, 386.174 422.788 C 379.738 422.167, 375.480 419.892, 368.749 413.479 C 365.586 410.466, 362.496 408, 361.884 408 C 360.620 408, 361.573 418.321, 363.101 421.184 C 363.596 422.111, 364 423.773, 364 424.878 C 364 425.983, 364.829 427.475, 365.841 428.193 C 368.434 430.033, 370 433.343, 370 436.984 C 370 438.697, 370.668 441.392, 371.486 442.972 C 372.521 444.975, 372.900 448.366, 372.736 454.172 C 372.474 463.419, 371.722 461.980, 383.280 474.344 C 385.358 476.568, 387.294 479.538, 387.581 480.944 C 388.491 485.404, 392.227 498.439, 393.056 500.047 C 393.705 501.306, 395.725 501.561, 403.927 501.419 C 409.596 501.321, 414.588 500.757, 415.344 500.130 C 416.083 499.516, 420.020 498.320, 424.093 497.471 C 428.167 496.622, 433.075 495.507, 435 494.995 C 456.232 489.343, 468.409 487.885, 480.477 489.551 C 485.418 490.233, 487.907 492.064, 487.968 495.063 C 488.003 496.776, 492.626 501.484, 494.979 502.201 C 495.888 502.479, 497.502 501.082, 499.168 498.576 C 500.659 496.334, 503.722 492.587, 505.976 490.250 C 509.716 486.371, 510.508 486, 515.037 486 C 519.502 486, 520.405 486.405, 524.040 490.040 C 526.262 492.262, 528.559 495.299, 529.145 496.790 L 530.210 499.500 531.855 496 C 532.760 494.075, 533.837 492.350, 534.250 492.167 C 534.663 491.983, 535 490.788, 535 489.511 C 535 488.234, 536.462 485.403, 538.250 483.219 C 540.038 481.035, 541.978 478.438, 542.562 477.448 C 543.522 475.822, 544.178 475.760, 549.360 476.800 C 555.099 477.953, 558 479.742, 558 482.129 C 558 484.592, 559.704 481.482, 562.349 474.193 C 563.807 470.174, 565 465.613, 565 464.057 C 565 461.737, 568.430 450.970, 571.418 443.910 C 572.270 441.897, 570.666 440.684, 565.002 439.061 C 562.528 438.351, 558.303 435.929, 555.614 433.677 L 550.723 429.582 551.377 417.041 L 552.030 404.500 544.718 396.939 C 538.287 390.290, 536.679 389.173, 531.387 387.689 C 523.059 385.352, 520.988 385.552, 517.250 389.055" stroke="#e8b1e4" fill="#e8b1e4" fill-opacity="0.2" fill-rule="evenodd"/><path class="svg-region-MB" d="M 463.500 488.983 C 461.850 489.457, 456.675 490.387, 452 491.050 C 447.325 491.713, 441.983 492.873, 440.128 493.628 C 438.273 494.382, 435.551 495, 434.078 495 C 432.605 495, 430.973 495.399, 430.450 495.887 C 429.928 496.374, 426.357 497.306, 422.516 497.957 C 418.674 498.608, 415.238 499.615, 414.879 500.196 C 414.513 500.788, 410.107 501.352, 404.863 501.478 C 399.713 501.602, 395.163 501.771, 394.750 501.852 C 393.380 502.122, 393.974 504.697, 396 507.273 C 397.512 509.195, 398.008 511.364, 398.032 516.158 C 398.052 520.142, 398.609 523.222, 399.532 524.441 C 400.339 525.509, 401.006 527.309, 401.013 528.441 C 401.021 529.574, 402.372 534.325, 404.015 539 C 405.659 543.675, 407.542 551.361, 408.200 556.080 L 409.396 564.661 421.647 564.476 L 433.898 564.290 437.949 568.301 C 440.177 570.507, 442 572.892, 442 573.600 C 442 574.309, 444.280 576.827, 447.067 579.195 C 449.854 581.563, 455.713 586.939, 460.087 591.142 C 466.068 596.890, 468.965 598.958, 471.770 599.482 C 473.822 599.865, 475.950 600.530, 476.500 600.960 C 478.706 602.683, 495.425 605.209, 500.659 604.611 C 503.597 604.275, 508.363 603.739, 511.250 603.420 C 518.164 602.656, 522.975 604.681, 525.534 609.432 C 526.590 611.395, 528.140 612.966, 528.977 612.924 C 532.951 612.725, 537.186 610.055, 540.852 605.438 C 544.471 600.880, 544.752 600.132, 543.669 597.938 C 542.858 596.293, 540.727 594.921, 537.121 593.721 C 530.599 591.552, 529.247 589.955, 524.450 578.755 L 520.684 569.962 521.965 561.724 C 523.037 554.836, 523.016 552.450, 521.838 547.148 L 520.431 540.809 515.370 540.641 C 511.131 540.500, 509.876 539.988, 507.632 537.486 C 503.276 532.631, 501.766 528.978, 501.247 522.045 C 500.959 518.194, 499.984 514.216, 498.878 512.382 C 497.845 510.667, 497 507.930, 497 506.300 C 497 503.992, 496.188 502.800, 493.331 500.918 C 491.313 499.588, 489.341 497.825, 488.947 497 C 488.554 496.175, 487.675 494.302, 486.994 492.838 C 485.975 490.645, 484.897 490.073, 480.878 489.588 C 470.116 488.290, 466.368 488.160, 463.500 488.983" stroke="#f9c6c6" fill="#f9c6c6" fill-opacity="0.2" fill-rule="evenodd"/><path class="svg-region-LBr" d="M 411 570.631 C 411 574.612, 411.716 578.506, 413 581.500 C 415.246 586.740, 415.809 600.619, 413.919 604.151 C 412.528 606.751, 413.762 608.045, 415.442 605.748 C 416.145 604.787, 417.164 604, 417.705 604 C 419.260 604, 422 607.477, 422 609.450 C 422 612.028, 431.534 628.179, 435.037 631.535 C 436.666 633.097, 438 635.132, 438 636.057 C 438 637.201, 439.458 638.148, 442.555 639.015 C 446.653 640.163, 447.581 640.082, 451.805 638.212 C 454.387 637.069, 459.049 635.879, 462.164 635.568 C 465.279 635.257, 470.004 634.072, 472.664 632.935 C 480.562 629.559, 490.392 624.720, 492 623.418 C 492.825 622.750, 495.300 621.192, 497.500 619.956 C 509.236 613.363, 514.542 611.628, 522.732 611.706 L 526.963 611.746 525.232 608.740 C 522.817 604.549, 517.839 602.642, 511.280 603.394 C 508.376 603.728, 503.616 604.273, 500.702 604.607 C 495.115 605.247, 481.683 603.019, 475.463 600.420 C 473.594 599.639, 470.925 599, 469.532 599 C 468.139 599, 467 598.561, 467 598.024 C 467 597.488, 465.328 595.575, 463.284 593.774 C 461.241 591.973, 457.453 588.475, 454.867 586 C 452.281 583.525, 448.988 580.681, 447.550 579.679 C 446.112 578.677, 443.817 576.086, 442.450 573.921 C 441.083 571.756, 438.580 568.750, 436.887 567.242 C 433.920 564.598, 433.400 564.499, 422.405 564.464 L 411 564.429 411 570.631" stroke="#d7b230" fill="#d7b230" fill-opacity="0.2" fill-rule="evenodd"/><path class="svg-region-PP" d="M 514.271 612.498 C 508.435 613.924, 498.551 618.761, 492.553 623.127 C 490.382 624.707, 488.129 626, 487.545 626 C 486.962 626, 484.260 627.184, 481.542 628.631 C 474.477 632.392, 463.666 635.992, 459.269 636.048 C 455.156 636.100, 448.401 638.933, 448.665 640.495 C 448.756 641.032, 451.456 642.378, 454.665 643.486 C 457.874 644.594, 460.835 646.018, 461.245 646.651 C 461.654 647.285, 464.486 649.212, 467.539 650.935 C 470.591 652.657, 474.471 655.388, 476.161 657.003 C 477.850 658.618, 480.168 660.236, 481.312 660.599 C 482.455 660.962, 485.490 662.550, 488.056 664.129 C 490.622 665.708, 493.600 667, 494.673 667 C 495.747 667, 498.999 668.145, 501.899 669.544 C 506.127 671.583, 506.947 672.359, 506.037 673.455 C 505.408 674.213, 505.301 675.068, 505.797 675.374 C 507.753 676.584, 514.857 676.989, 521.400 676.264 L 528.299 675.500 525.637 672.341 C 519.570 665.141, 518.337 654.009, 522.462 643.671 C 523.816 640.277, 525.833 634.575, 526.944 631 C 528.056 627.425, 530.736 621.575, 532.899 618 C 535.063 614.425, 536.676 611.343, 536.484 611.150 C 536.291 610.958, 534.515 611.335, 532.537 611.988 C 529.888 612.862, 528.118 612.888, 525.821 612.087 C 522.112 610.795, 521.099 610.831, 514.271 612.498" stroke="#c4743d" fill="#c4743d" fill-opacity="0.2" fill-rule="evenodd"/><path class="svg-region-LPr" d="M 637.250 577.978 C 636.013 578.505, 634.997 579.288, 634.993 579.718 C 634.978 581.247, 624.447 591.735, 621.300 593.354 C 617.383 595.369, 599.153 595.631, 589.293 593.814 L 582.856 592.628 578.879 597.280 C 576.273 600.329, 573.625 602.288, 571.201 602.961 C 565.651 604.502, 554.591 604.220, 550.099 602.423 C 544.897 600.341, 543.402 601.229, 537.844 609.705 C 531.520 619.350, 529.185 624.001, 525.992 633.317 C 524.449 637.818, 522.426 643.525, 521.494 646 C 519.453 651.427, 519.853 662.920, 522.243 667.500 C 524.241 671.329, 530.621 677.724, 534.500 679.786 C 540.119 682.773, 604.949 683.658, 618 680.927 C 620.475 680.408, 627.271 679.584, 633.102 679.095 C 639.499 678.558, 645.002 677.533, 646.977 676.512 C 653.348 673.218, 668.939 659.218, 668.986 656.750 C 668.994 656.337, 671.405 656, 674.345 656 C 680.461 656, 681.906 654.848, 683.950 648.348 C 685.064 644.806, 685.025 643.521, 683.684 639.585 C 682.820 637.049, 680.564 633.067, 678.671 630.737 C 674.836 626.017, 669 614.165, 669 611.098 C 669 610.007, 668.080 608.469, 666.956 607.682 C 664.640 606.059, 661 599.447, 661 596.862 C 661 595.919, 660.284 595.001, 659.408 594.823 C 658.533 594.645, 657.070 592.417, 656.158 589.872 C 655.246 587.327, 652.999 583.555, 651.164 581.490 C 648.505 578.496, 646.984 577.663, 643.664 577.377 C 641.374 577.181, 638.487 577.451, 637.250 577.978" stroke="#d2454f" fill="#d2454f" fill-opacity="0.2" fill-rule="evenodd"/><path class="svg-region-DMr" d="M 375.241 606.986 C 374.558 608.079, 374 609.587, 374 610.339 C 374 611.758, 382.192 632.118, 384.057 635.332 C 385.922 638.547, 387.294 654.876, 385.968 658.078 C 384.918 660.613, 385.163 661.507, 388.348 666.750 C 390.301 669.965, 392.322 674.374, 392.839 676.548 C 393.355 678.721, 395.127 685.675, 396.775 692 C 398.423 698.325, 400.527 706.875, 401.449 711 C 402.371 715.125, 404.022 722.196, 405.118 726.712 C 406.763 733.494, 406.894 735.323, 405.867 737.212 C 405.183 738.471, 404.520 740.175, 404.393 741 C 404.267 741.825, 403.880 743.400, 403.534 744.500 C 402.944 746.374, 403.332 746.491, 409.702 746.364 C 419.537 746.166, 420 746.104, 420 744.975 C 420 744.412, 418.838 743.509, 417.419 742.969 C 413.692 741.552, 414.976 739.550, 419.842 739.192 C 422.692 738.982, 424.901 739.480, 426.764 740.753 C 428.269 741.781, 431.300 743.344, 433.500 744.226 C 435.700 745.108, 440.200 746.983, 443.500 748.392 C 451.106 751.638, 454.804 751.663, 459.102 748.497 C 460.971 747.121, 463.233 745.733, 464.128 745.413 C 466.083 744.714, 468 740.810, 468 737.530 C 468 736.223, 469.157 733.778, 470.572 732.097 C 473.792 728.270, 473.426 725.161, 469.500 723 C 467.850 722.092, 466.362 720.414, 466.193 719.270 C 466.024 718.127, 467.978 713.322, 470.535 708.593 C 474.918 700.488, 475.406 699.959, 479.031 699.379 C 481.146 699.041, 483.115 698.142, 483.407 697.382 C 483.699 696.622, 485.189 695.990, 486.719 695.978 C 488.248 695.966, 491.463 695.065, 493.863 693.976 C 498.527 691.860, 498.497 691.976, 496.487 683.977 C 495.905 681.660, 496.248 681.337, 500.677 680.026 C 503.330 679.240, 506.850 678.308, 508.500 677.955 L 511.500 677.312 508.097 676.005 C 504.961 674.800, 504.835 674.594, 506.495 673.380 C 508.169 672.156, 508.091 671.986, 505.398 670.970 C 503.804 670.369, 501.193 669.230, 499.596 668.439 C 497.999 667.647, 495.698 667, 494.481 667 C 493.265 667, 491.197 666.178, 489.885 665.173 C 488.573 664.168, 485.372 662.333, 482.771 661.094 C 480.171 659.856, 476.610 657.504, 474.859 655.868 C 473.107 654.232, 469.610 651.702, 467.087 650.247 C 464.564 648.791, 462.160 647.050, 461.744 646.378 C 461.328 645.706, 459.528 644.837, 457.744 644.447 C 455.960 644.057, 452.243 642.706, 449.484 641.446 C 446.726 640.187, 443.126 638.821, 441.484 638.413 C 439.843 638.004, 437.024 636.281, 435.220 634.585 C 433.416 632.888, 431.147 631.453, 430.178 631.397 C 426.512 631.181, 423.983 628.753, 419.092 620.751 C 416.318 616.213, 413.667 611.927, 413.201 611.227 C 412.525 610.212, 411.575 610.280, 408.506 611.562 C 406.091 612.571, 402.952 613.006, 400.079 612.729 C 395.492 612.287, 384.826 608.226, 382.721 606.121 C 380.911 604.311, 376.600 604.810, 375.241 606.986" stroke="#68533d" fill="#68533d" fill-opacity="0.2" fill-rule="evenodd"/><path class="svg-region-VMr" d="M 500.546 710.073 C 495.704 712.464, 491.170 714, 488.957 714 C 486.031 714, 485.094 714.497, 484.161 716.547 C 483.522 717.948, 483 719.693, 483 720.426 C 483 721.672, 480.372 723.061, 475.360 724.465 C 472.561 725.250, 471.612 729.722, 473.976 730.987 C 475.766 731.945, 480.771 741.129, 492.915 765.738 C 494.952 769.866, 496.985 772.011, 502.500 775.850 C 509.628 780.812, 513.595 782.214, 520.207 782.111 C 522.246 782.078, 524.185 782.490, 524.516 783.026 C 524.847 783.562, 525.714 784, 526.442 784 C 528.299 784, 529.104 780.254, 527.389 779.596 C 525.301 778.795, 525.708 773.574, 528.022 771.480 C 529.936 769.748, 530.231 769.739, 533.556 771.325 C 535.487 772.246, 538.366 773, 539.952 773 C 544.174 773, 545.904 773.913, 547.488 776.978 C 548.857 779.624, 550.918 780.510, 560.250 782.463 C 561.763 782.779, 563 783.480, 563 784.019 C 563 786.148, 565.900 784.820, 568.395 781.548 C 569.844 779.650, 572.372 777.303, 574.014 776.333 C 575.656 775.362, 577 773.792, 577 772.843 C 577 771.894, 577.369 770.890, 577.820 770.612 C 578.270 770.333, 578.714 767.370, 578.807 764.028 C 578.956 758.617, 578.476 756.979, 574.429 749.073 C 568.833 738.139, 560.356 729.904, 540.853 716.451 C 532.935 710.990, 530.942 710.074, 525.643 709.459 C 522.289 709.069, 517.791 708.132, 515.647 707.375 C 510.290 705.485, 509.582 705.612, 500.546 710.073" stroke="#e59376" fill="#e59376" fill-opacity="0.2" fill-rule="evenodd"/><path class="svg-region-PMr" d="M 292.500 708.804 C 290.300 709.690, 288.355 710.757, 288.177 711.175 C 288 711.594, 286.200 712.237, 284.177 712.605 C 280.160 713.334, 272.742 716.893, 269.358 719.714 C 266.263 722.295, 263.739 727.826, 264.420 730.538 C 265.375 734.341, 267.797 736, 272.393 736 C 274.731 736, 278.795 736.733, 281.424 737.629 C 284.735 738.757, 288.146 739.102, 292.523 738.750 C 296.147 738.459, 299.272 738.672, 299.848 739.248 C 301.322 740.722, 305.771 739.295, 306.459 737.130 C 306.784 736.104, 306.589 734.050, 306.025 732.567 C 305.461 731.084, 305 728.649, 305 727.157 C 305 725.666, 304.323 723.479, 303.496 722.298 C 302.498 720.872, 302.255 719.369, 302.773 717.825 C 303.652 715.208, 303.611 711.034, 302.682 708.614 C 301.902 706.582, 297.832 706.658, 292.500 708.804" stroke="#90cf92" fill="#90cf92" fill-opacity="0.2" fill-rule="evenodd"/><path class="svg-region-PV" d="M 368 613.860 C 368 616.701, 362.495 621.816, 358.664 622.535 C 356.739 622.896, 353.790 622.538, 351.453 621.658 C 349.279 620.840, 343.569 619.929, 338.765 619.635 C 331.375 619.182, 329.317 619.414, 325.407 621.144 C 321.633 622.813, 320.085 623.011, 316.972 622.221 C 314.042 621.477, 312.043 621.639, 308.330 622.920 C 300.812 625.516, 299.439 626.590, 298.152 630.887 C 296.966 634.846, 292.990 639, 290.388 639 C 289.650 639, 288.296 640.145, 287.379 641.545 C 286.006 643.640, 285.810 645.738, 286.269 653.427 L 286.826 662.765 281.946 663.413 C 279.262 663.769, 276.713 664.609, 276.283 665.280 C 275.852 665.951, 272.817 667.874, 269.539 669.553 C 265.018 671.869, 262.939 673.693, 260.938 677.098 C 258.241 681.690, 256.263 689, 257.719 689 C 258.447 689, 260.889 693.876, 263.810 701.162 C 265.521 705.431, 271.950 713.849, 273.994 714.498 C 275.856 715.089, 287.041 712.348, 288 711.066 C 288.832 709.953, 297.412 707, 299.816 707 C 302.791 707, 303.892 710.193, 302.847 715.788 C 302.392 718.227, 302.240 720.580, 302.510 721.017 C 303.239 722.195, 307 720.964, 307 719.547 C 307 718.876, 309.413 717.106, 312.363 715.614 C 317.689 712.919, 319.974 710.868, 323.161 705.921 C 324.590 703.702, 324.638 702.935, 323.507 700.421 C 322.784 698.815, 321.601 695.362, 320.878 692.750 C 320.155 690.138, 319.212 688, 318.782 688 C 318.352 688, 318 685.156, 318 681.679 C 318 675.538, 318.126 675.231, 322.421 670.929 C 327.966 665.374, 328.698 664.812, 333.036 662.772 C 334.981 661.857, 339.629 659.059, 343.365 656.554 C 347.833 653.558, 351.242 651.995, 353.328 651.985 C 355.073 651.977, 358.300 651.321, 360.500 650.529 C 362.700 649.736, 367.250 649.068, 370.610 649.044 C 373.971 649.020, 378.865 648.706, 381.485 648.347 L 386.248 647.694 385.689 642.597 C 385.376 639.743, 382.776 631.998, 379.783 625 C 374.631 612.954, 374.320 612.489, 371.218 612.187 C 368.569 611.929, 368 612.224, 368 613.860" stroke="#b09658" fill="#b09658" fill-opacity="0.2" fill-rule="evenodd"/><path class="svg-region-LPVr" d="M 371 648.925 C 365.775 649.276, 360.517 650.111, 359.316 650.782 C 358.114 651.452, 355.565 652, 353.650 652 C 351.160 652, 348.077 653.383, 342.834 656.851 C 338.800 659.518, 334.038 662.328, 332.250 663.095 C 330.462 663.861, 329 664.828, 329 665.244 C 329 665.660, 328.446 666, 327.769 666 C 327.092 666, 324.617 668.063, 322.269 670.584 C 318.164 674.993, 318 675.414, 318 681.584 C 318 685.113, 318.340 688, 318.757 688 C 319.592 688, 322 695.067, 322 697.519 C 322 698.372, 322.685 700.116, 323.523 701.394 C 324.886 703.475, 324.886 703.850, 323.523 704.981 C 322.685 705.676, 322 706.660, 322 707.168 C 322 708.761, 317.037 713.139, 312.488 715.557 C 304.717 719.690, 303.923 721.007, 305.166 727.705 C 306.359 734.131, 306.387 735.710, 305.410 741.430 C 304.923 744.283, 305.220 746.252, 306.492 748.614 C 308.195 751.778, 308.183 751.968, 306.041 755.434 C 304.829 757.395, 303.417 759, 302.904 759 C 301.760 759, 298.009 764.994, 298.004 766.829 C 297.999 768.516, 303.011 767.531, 307.985 764.867 C 309.902 763.840, 312.602 762.986, 313.985 762.968 C 315.368 762.951, 317.374 762.276, 318.441 761.468 C 319.509 760.661, 321.084 759.997, 321.941 759.994 C 322.799 759.990, 324.720 759.351, 326.210 758.574 C 327.701 757.796, 331.976 756.949, 335.710 756.691 C 339.445 756.433, 344.075 755.551, 346 754.731 C 351.300 752.473, 356.387 751, 358.886 751 C 360.120 751, 363.238 750.135, 365.815 749.078 C 372.356 746.395, 384.319 744.933, 393.774 745.662 C 401.530 746.260, 401.821 746.203, 403.424 743.756 C 404.334 742.368, 404.965 740.843, 404.826 740.366 C 404.688 739.890, 405.149 738.465, 405.850 737.200 C 406.915 735.278, 406.799 733.550, 405.147 726.700 C 404.060 722.190, 402.409 715.125, 401.477 711 C 400.546 706.875, 398.439 698.325, 396.796 692 C 395.154 685.675, 393.385 678.747, 392.867 676.604 C 392.348 674.460, 390.340 670.004, 388.404 666.701 C 385.303 661.410, 385.018 660.370, 386.014 657.966 C 386.636 656.465, 386.999 653.721, 386.822 651.869 C 386.446 647.939, 386.236 647.900, 371 648.925" stroke="#494949" fill="#494949" fill-opacity="0.2" fill-rule="evenodd"/><path class="svg-region-Fr" d="M 314.811 524.750 C 303.288 536.509, 295.510 543.264, 287.500 548.469 C 284.200 550.614, 281.274 552.693, 280.999 553.091 C 280.723 553.488, 277.348 554.781, 273.499 555.965 C 269.649 557.148, 265.299 558.653, 263.831 559.308 C 257.735 562.030, 241.240 580.491, 237.065 589.265 C 235.957 591.594, 234.596 594.175, 234.040 595 C 231.998 598.034, 228.151 607.615, 227.414 611.500 C 226.441 616.627, 226.455 616.390, 225.576 643.245 C 224.910 663.574, 225.016 666.495, 226.576 670.745 C 228.634 676.355, 230.367 678, 234.216 678 C 236.306 678, 237.295 678.645, 237.984 680.459 C 240.031 685.842, 252.816 691.057, 256.490 688.008 C 257.321 687.319, 258 685.701, 258 684.412 C 258 683.124, 259.350 679.941, 261 677.339 C 262.650 674.737, 264 671.572, 264 670.304 C 264 668.332, 263.489 668, 260.457 668 C 255.685 668, 247 660.197, 247 655.910 C 247 651.752, 248.996 647.936, 253.230 644 C 256.897 640.591, 256.966 640.396, 255.904 636.500 C 253.649 628.227, 253.648 626.259, 255.901 625.053 C 258.007 623.926, 262 625.088, 262 626.828 C 262 628.137, 270.777 630, 276.942 630 C 282.139 630, 283.106 630.319, 284.927 632.635 C 286.067 634.084, 287.007 635.772, 287.015 636.385 C 287.059 639.548, 288.651 640.134, 292.374 638.358 C 295.314 636.957, 296.407 635.612, 297.780 631.709 C 299.613 626.496, 300.768 625.531, 308.274 622.939 C 311.977 621.661, 313.891 621.516, 316.799 622.292 C 319.906 623.121, 321.374 622.928, 325.357 621.166 C 329.383 619.385, 331.412 619.127, 337.833 619.579 C 342.050 619.876, 347.910 620.825, 350.856 621.686 C 355.179 622.951, 356.953 623.031, 360.053 622.102 C 364.172 620.868, 368 616.901, 368 613.865 C 368 612.459, 368.739 612, 371 612 C 373.178 612, 374.009 611.521, 374.032 610.250 C 374.071 608.089, 376.323 605, 377.860 605 C 380.658 605, 378.173 597.764, 372.509 589.419 C 371.129 587.385, 370 584.696, 370 583.443 C 370 582.191, 369.100 579.066, 368 576.500 C 366.900 573.934, 366.001 570.409, 366.003 568.667 C 366.005 566.925, 365.042 561.450, 363.863 556.500 C 360.364 541.806, 357.029 533.722, 351.693 527 C 343.758 517.004, 340.104 515, 329.816 515 L 324.365 515 314.811 524.750" stroke="#5ca7a9" fill="#5ca7a9" fill-opacity="0.2" fill-rule="evenodd"/><path class="svg-region-PCr" d="M 255.200 625.200 C 253.611 626.789, 253.687 629.114, 255.533 635.464 L 257.065 640.736 263.791 641.217 C 267.490 641.482, 271.953 642.441, 273.708 643.349 C 275.464 644.257, 278.872 645, 281.281 645 C 286.850 645, 288.931 642.109, 287.113 636.895 C 285.174 631.333, 283.289 630, 277.359 630 C 270.697 630, 263.073 628.048, 260.761 625.750 C 258.702 623.704, 256.877 623.523, 255.200 625.200" stroke="#465ee0" fill="#465ee0" fill-opacity="0.2" fill-rule="evenodd"/><path class="svg-region-DV" d="M 227.637 683.838 C 227.928 688.602, 228.578 693.805, 229.083 695.399 C 229.587 696.994, 230 699.389, 230 700.722 C 230 704.957, 240.064 723.082, 246.452 730.352 L 252.473 737.205 258.487 736.534 C 261.794 736.165, 264.859 735.512, 265.298 735.084 C 265.737 734.655, 265.554 733.115, 264.892 731.662 C 263.222 727.998, 265.856 722.434, 271.118 718.511 C 275.037 715.588, 275.082 715.485, 273.137 713.910 C 270.491 711.767, 263 701.016, 263 699.361 C 263 698.642, 262.038 696.073, 260.862 693.653 C 258.761 689.328, 258.625 689.244, 252.887 688.723 C 246.111 688.109, 240.645 685.148, 238.450 680.903 C 237.478 679.024, 236.164 677.998, 234.724 677.994 C 233.501 677.990, 231.287 677.355, 229.805 676.582 L 227.110 675.176 227.637 683.838" stroke="#45567a" fill="#45567a" fill-opacity="0.2" fill-rule="evenodd"/><path class="svg-region-VV" d="M 260.699 735.997 C 258.609 736.385, 256.429 737.171, 255.855 737.745 C 254.318 739.282, 255.221 742.301, 257.570 743.475 C 258.698 744.039, 261.089 745.736, 262.883 747.246 C 266.039 749.904, 266.123 750.169, 265.464 755.443 C 264.834 760.484, 264.982 761.079, 267.432 763.349 C 268.889 764.699, 272.650 767.031, 275.790 768.531 C 281.136 771.084, 281.854 771.185, 287.060 770.129 C 290.118 769.508, 293.585 769, 294.763 769 C 296.336 769, 297.427 767.824, 298.859 764.586 C 299.933 762.158, 301.750 759.669, 302.896 759.056 C 304.042 758.443, 305.691 756.564, 306.561 754.881 C 308.001 752.098, 308.002 751.524, 306.572 748.510 C 305.707 746.688, 305 744.028, 305 742.599 C 305 740.510, 304.521 740, 302.559 740 C 301.216 740, 299.872 739.601, 299.571 739.114 C 299.270 738.627, 296.094 738.464, 292.514 738.751 C 288.006 739.113, 284.697 738.799, 281.752 737.732 C 276.684 735.895, 266 735.014, 260.699 735.997" stroke="#7699d1" fill="#7699d1" fill-opacity="0.2" fill-rule="evenodd"/><path class="svg-region-Or" d="M 709.500 185.404 C 706.200 186.128, 701.925 187.423, 700 188.282 C 696.194 189.979, 690.135 196.932, 683.920 206.731 C 679.173 214.218, 667.957 225.659, 660.740 230.378 C 652.272 235.914, 645.806 242.943, 642.629 250.064 C 641.049 253.604, 639.286 257.400, 638.709 258.500 C 635.217 265.165, 633.185 297.072, 634.953 317.500 C 635.619 325.200, 636.534 337.125, 636.987 344 C 637.439 350.875, 638.336 357.850, 638.979 359.500 C 639.623 361.150, 640.556 371.275, 641.053 382 C 642.149 405.637, 643.562 419.563, 646.076 431.500 C 647.118 436.450, 648.863 446.575, 649.952 454 C 651.042 461.425, 652.398 469.924, 652.967 472.886 C 653.535 475.849, 654 479.605, 654 481.232 C 654 482.860, 656.741 490.309, 660.092 497.786 C 667.652 514.658, 676.304 526.668, 690.861 540.500 C 696.649 546, 702.092 551.175, 702.957 552 C 705.379 554.311, 721.979 564, 723.517 564 C 724.268 564, 725.164 564.456, 725.509 565.014 C 727.264 567.854, 734.614 570.197, 743.416 570.722 L 752.566 571.268 763.312 566.136 C 770.717 562.600, 775.059 559.843, 777.279 557.267 C 779.050 555.211, 781.614 552.397, 782.976 551.014 C 787.663 546.254, 796.350 532.477, 801.586 521.500 C 807.123 509.893, 808.112 506.025, 819.863 450 C 826.138 420.088, 829.879 392.861, 828.545 386.820 C 828.141 384.994, 827.646 374.500, 827.444 363.500 C 827.108 345.242, 825.290 324.661, 823.114 314.500 C 818.397 292.462, 815.741 281.202, 814.901 279.681 C 814.349 278.680, 810.940 272.155, 807.326 265.181 C 803.712 258.206, 799.979 251.375, 799.030 250 C 798.082 248.625, 796.160 245.025, 794.759 242 C 793.358 238.975, 789.457 232.675, 786.089 228 C 782.722 223.325, 778.440 217.250, 776.573 214.500 C 770.763 205.942, 756.566 193.444, 747.094 188.548 C 745.164 187.550, 739.746 186.421, 734.594 185.942 C 729.592 185.478, 723.250 184.870, 720.500 184.592 C 717.750 184.314, 712.800 184.679, 709.500 185.404" stroke="#aa444d" fill="#aa444d" fill-opacity="0.2" fill-rule="evenodd"/><path class="svg-region-VOC" d="M 507.360 488.750 C 505.710 490.262, 502.704 493.702, 500.680 496.394 C 496.340 502.165, 495.771 507.624, 499 512.500 C 500.364 514.560, 500.996 517.223, 501.015 521 C 501.047 527.109, 503.315 532.782, 507.613 537.500 C 510.170 540.307, 510.784 540.491, 517.145 540.362 C 526.587 540.169, 531.856 537.087, 534.274 530.343 C 535.229 527.679, 536.008 524.491, 536.005 523.259 C 536 520.865, 531.003 515.453, 527.884 514.463 C 525.406 513.677, 525.474 510.345, 528 508.768 C 529.551 507.799, 530 506.436, 530 502.694 C 530 496.850, 528.935 494.632, 523.787 489.750 C 520.361 486.501, 519.199 486, 515.096 486 C 511.324 486, 509.750 486.559, 507.360 488.750" stroke="#ff8f93" fill="#ff8f93" fill-opacity="0.2" fill-rule="evenodd"/><path class="svg-region-OABr" d="M 624 434.500 C 622.912 437.361, 621.780 437.645, 620 435.500 C 618.630 433.849, 615.433 433.490, 614.568 434.891 C 613.759 436.199, 604.290 441, 602.518 441 C 601.464 441, 601 442.019, 601 444.331 C 601 446.162, 599.872 449.875, 598.494 452.581 C 597.116 455.286, 595.579 459.975, 595.079 463 C 594.578 466.025, 593.231 470.675, 592.085 473.333 C 590.832 476.236, 590 480.306, 590 483.524 C 590 486.471, 589.580 489.142, 589.066 489.459 C 587.497 490.429, 585 500.506, 585 505.869 C 585 509.849, 585.413 511.151, 586.934 511.965 C 589.488 513.331, 593.611 513.279, 596.289 511.845 C 597.476 511.210, 601.706 510.371, 605.690 509.981 C 612.406 509.324, 613.571 508.835, 621.716 503.254 C 628.362 498.700, 630.575 496.619, 630.808 494.702 C 631.202 491.466, 633.637 490.532, 636.606 492.477 C 639.211 494.184, 642 494.487, 642 493.062 C 642 490.602, 638.769 478.628, 636.979 474.450 C 635.873 471.871, 634.326 466.074, 633.540 461.569 C 632.754 457.063, 631.224 449.804, 630.140 445.438 C 629.056 441.072, 627.898 436.262, 627.566 434.750 C 626.813 431.324, 625.249 431.214, 624 434.500" stroke="#81244d" fill="#81244d" fill-opacity="0.2" fill-rule="evenodd"/><path class="svg-region-SOTr" d="M 542.250 477.133 C 541.563 477.830, 541 478.901, 541 479.513 C 541 480.125, 539.650 481.919, 538 483.500 C 535.590 485.809, 535 487.208, 535 490.616 C 535 492.948, 535.598 495.456, 536.330 496.187 C 537.061 496.919, 537.928 499.167, 538.255 501.183 C 538.655 503.648, 540.186 506.186, 542.925 508.925 C 545.166 511.166, 547 513.708, 547 514.573 C 547 517.176, 550.464 515.747, 550.839 512.990 C 551.026 511.620, 552.560 506, 554.249 500.500 C 555.945 494.975, 557.359 488.048, 557.409 485.020 C 557.490 480.115, 557.238 479.416, 555 478.354 C 550.853 476.385, 543.666 475.697, 542.250 477.133" stroke="#995b45" fill="#995b45" fill-opacity="0.2" fill-rule="evenodd"/><path class="svg-region-LBPCr" d="M 414.234 606.897 L 412.093 609.794 417.796 619.014 C 423.478 628.198, 426.457 631.221, 430.091 631.488 C 431.143 631.566, 433.353 632.922, 435.002 634.502 C 439.167 638.492, 438.886 635.528, 434.674 631.042 C 430.774 626.889, 424.752 616.821, 422.892 611.344 C 421.409 606.979, 419.236 604, 417.533 604 C 416.897 604, 415.412 605.304, 414.234 606.897" stroke="#daffff" fill="#daffff" fill-opacity="0.2" fill-rule="evenodd"/><path class="svg-region-BPCr" d="M 690.750 638.811 C 687.587 640.837, 684.993 643.171, 684.985 643.998 C 684.962 646.277, 682.609 652.561, 681.096 654.384 C 680.166 655.505, 678.109 656, 674.378 656 C 671.420 656, 668.993 656.337, 668.984 656.750 C 668.952 658.299, 660.255 666.897, 653.752 671.808 C 646.289 677.445, 642.194 678.950, 634 679.067 C 630.975 679.111, 626.025 679.586, 623 680.123 C 613.261 681.853, 579.089 682.918, 557.859 682.154 C 537.682 681.427, 537.127 681.350, 533.131 678.705 C 530.182 676.754, 527.767 676, 524.464 676 C 518.032 676, 506.093 677.946, 502.349 679.604 C 500.616 680.372, 498.426 681, 497.482 681 C 496.113 681, 495.904 681.556, 496.444 683.750 C 498.373 691.583, 498.349 691.768, 495.207 693.393 C 493.559 694.245, 490.324 695.244, 488.019 695.613 C 485.714 695.981, 483.594 696.894, 483.307 697.642 C 483.021 698.389, 481.746 699, 480.475 699 C 476.347 699, 474.953 700.155, 471.701 706.267 C 469.940 709.576, 467.944 713.231, 467.265 714.391 C 466.585 715.551, 466.023 717.519, 466.015 718.765 C 465.995 721.736, 471.528 725.260, 475 724.487 C 479.680 723.446, 483 721.760, 483 720.426 C 483 719.693, 483.498 718.001, 484.107 716.664 C 484.990 714.726, 486.154 714.139, 489.857 713.765 C 492.411 713.507, 497.963 711.595, 502.195 709.515 L 509.889 705.733 514.695 707.284 C 517.338 708.136, 522.124 709.152, 525.332 709.542 C 530.149 710.128, 532.748 711.291, 540.278 716.236 C 549.981 722.607, 557.156 728.403, 565.363 736.500 C 571.292 742.348, 579 756.575, 579 761.669 C 579 765.280, 579.611 765.590, 583.368 763.878 C 586.834 762.299, 592 764.612, 592 767.744 C 592 770.327, 593.632 770.593, 596.441 768.468 C 597.509 767.661, 599.016 767, 599.790 767 C 600.564 767, 602.616 766.385, 604.349 765.634 C 606.082 764.883, 611.550 762.933, 616.500 761.301 C 629.350 757.064, 634.319 755.137, 644.500 750.437 C 658.871 743.804, 660.095 743.294, 668.168 740.579 C 672.385 739.161, 678.010 736.913, 680.668 735.584 C 683.325 734.254, 687.300 732.844, 689.500 732.448 C 691.700 732.053, 695.075 730.960, 697 730.020 C 698.925 729.080, 703.650 727.275, 707.500 726.011 C 711.350 724.746, 715.918 723.101, 717.651 722.355 C 719.384 721.610, 721.470 721, 722.286 721 C 724.577 721, 727 716.489, 727 712.223 C 727 708.335, 729.937 700.969, 732.770 697.750 C 733.617 696.788, 735.605 696, 737.187 696 C 738.770 696, 741.512 695.396, 743.282 694.657 C 745.052 693.918, 748.104 693.014, 750.064 692.647 C 753.587 691.987, 758.704 687.611, 760.760 683.500 C 761.310 682.400, 761.549 680.109, 761.290 678.409 C 760.880 675.715, 758.998 674.094, 746.660 665.807 C 738.872 660.576, 730.475 655.397, 728 654.298 C 725.525 653.199, 721.084 650.320, 718.132 647.900 C 709.259 640.628, 700.652 634.996, 698.514 635.064 C 697.406 635.099, 693.913 636.785, 690.750 638.811" stroke="#83385f" fill="#83385f" fill-opacity="0.2" fill-rule="evenodd"/><path class="svg-region-AMC" d="M 469.695 732.785 C 468.763 733.815, 468 735.889, 468 737.394 C 468 738.900, 467.549 740.974, 466.998 742.004 C 466.243 743.415, 466.514 744.757, 468.096 747.439 C 469.252 749.397, 470.543 751, 470.966 751 C 471.388 751, 472.925 752.800, 474.381 755 C 476.746 758.573, 477.461 759, 481.080 759 C 483.308 759, 486.040 759.486, 487.151 760.081 C 491.725 762.529, 491.132 760.898, 479.671 739.500 C 475.096 730.958, 472.767 729.390, 469.695 732.785 M 527.035 771.934 C 525.717 774.397, 525.697 778.695, 527 779.500 C 527.550 779.840, 528 781.411, 528 782.992 C 528 784.987, 528.611 786.059, 530.001 786.500 C 531.102 786.850, 532.526 788.113, 533.165 789.309 C 533.805 790.504, 536.505 794.474, 539.164 798.131 C 541.824 801.788, 544 805.111, 544 805.517 C 544 805.923, 545.306 809.010, 546.901 812.377 C 548.497 815.745, 550.033 819.221, 550.314 820.103 C 550.683 821.263, 552.576 821.865, 557.152 822.280 C 560.632 822.596, 563.689 822.645, 563.945 822.389 C 564.200 822.133, 563.815 820.478, 563.088 818.712 C 558.530 807.631, 558.353 803.021, 561.946 789.082 C 563.375 783.542, 562.798 782.004, 559.281 781.985 C 555.044 781.962, 548.846 779.490, 547.739 777.382 C 546.119 774.296, 543.830 773, 540 773 C 538.010 773, 535.509 772.339, 534.441 771.532 C 531.710 769.466, 528.256 769.653, 527.035 771.934" stroke="#9d4741" fill="#9d4741" fill-opacity="0.2" fill-rule="evenodd"/><path class="svg-region-PNr" d="M 252.973 644.292 C 248.835 648.055, 246.971 651.848, 247.074 656.297 C 247.177 660.783, 255.480 668, 260.537 668 C 263.380 668, 264 668.373, 264 670.083 C 264 671.229, 264.337 672.009, 264.750 671.816 C 271.964 668.446, 275.645 666.378, 276.283 665.338 C 276.713 664.635, 279.353 663.757, 282.149 663.386 L 287.232 662.712 286.616 658.216 C 286.277 655.744, 286 651.759, 286 649.360 L 286 645 282.215 645 C 280.134 645, 275.870 644.100, 272.740 643 C 269.611 641.900, 264.676 641.019, 261.775 641.042 C 257.268 641.077, 255.987 641.550, 252.973 644.292" stroke="#bbc0d1" fill="#bbc0d1" fill-opacity="0.2" fill-rule="evenodd"/><path class="svg-region-OVr" d="M 551.640 411.734 C 551.288 415.896, 551 421.667, 551 424.558 C 551 429.604, 551.190 429.973, 555.752 433.792 C 558.366 435.981, 562.528 438.351, 565.002 439.061 C 567.476 439.770, 569.990 440.716, 570.589 441.164 C 571.610 441.927, 582.202 437.198, 584.405 434.995 C 585.030 434.370, 584.615 433.219, 583.236 431.751 C 582.060 430.499, 580.202 427.456, 579.108 424.988 C 576.497 419.098, 568.328 410.861, 562.856 408.599 C 560.460 407.608, 557.100 406.206, 555.390 405.482 L 552.279 404.166 551.640 411.734" stroke="#593939" fill="#593939" fill-opacity="0.2" fill-rule="evenodd"/>
    </svg>