<svg xmlns="http://www.w3.org/2000/svg" width="1078" height="1151" viewBox="0 0 1078 1151" version="1.1">
    <path class="svg-region-V" d="M 482.500 207.043 C 480.850 207.505, 474.775 209.113, 469 210.617 C 458.062 213.465, 446.317 217.881, 442.010 220.765 C 440.629 221.689, 437.475 223.483, 435 224.751 C 421.455 231.689, 407.709 242.446, 405.290 248 C 404.452 249.925, 402.438 253.012, 400.816 254.861 C 399.193 256.710, 397.418 259.410, 396.871 260.861 C 396.324 262.312, 394.388 265.750, 392.568 268.500 C 388.563 274.550, 384.202 281.797, 381.500 286.889 C 380.400 288.962, 378.108 292.422, 376.407 294.579 C 374.706 296.736, 372.818 300.300, 372.212 302.500 C 371.607 304.700, 369.739 311.225, 368.063 317 C 366.386 322.775, 364.740 330.425, 364.404 334 C 364.067 337.585, 362.382 344.088, 360.647 348.500 C 357.569 356.326, 357.501 356.849, 357.562 372.500 C 357.613 385.592, 357.999 389.772, 359.684 395.500 C 360.817 399.350, 362.286 405.728, 362.949 409.673 C 363.733 414.340, 365.271 418.708, 367.350 422.173 C 370.402 427.262, 370.723 427.492, 374.523 427.328 C 376.710 427.233, 382.775 426.971, 388 426.745 C 395.533 426.419, 398.664 425.796, 403.122 423.736 C 406.213 422.308, 410.488 420.836, 412.622 420.466 C 414.755 420.096, 419.200 418.548, 422.500 417.027 C 425.800 415.506, 431.559 413.001, 435.299 411.460 C 442.746 408.391, 449.054 404.626, 459 397.314 C 462.575 394.686, 467.606 391.116, 470.180 389.382 L 474.860 386.230 481.658 388.115 C 493.512 391.402, 503.713 390.345, 511.481 385.026 C 513.691 383.513, 516.625 381.922, 518 381.491 C 522.062 380.218, 527.475 376.425, 530.338 372.843 C 535.455 366.442, 536.014 366.055, 538.671 367.065 C 541.926 368.302, 553.562 368.249, 558.146 366.976 C 560.892 366.213, 561.960 365.289, 562.472 363.232 C 563.394 359.531, 569.590 350.329, 574.217 345.790 C 576.432 343.617, 579.759 341.611, 582.249 340.948 C 584.587 340.324, 587.125 339.501, 587.889 339.118 C 590.641 337.739, 594.052 329.167, 597.055 316.087 C 599.787 304.182, 600.064 301.518, 599.651 291.130 C 598.719 267.694, 596.943 261.304, 589.121 253.244 C 584.782 248.773, 578.684 245.319, 570.262 242.562 C 567.381 241.619, 564.791 240.471, 564.507 240.011 C 564.222 239.550, 562.263 238.882, 560.152 238.526 C 557.819 238.132, 554.400 236.295, 551.429 233.840 C 548.741 231.619, 544.508 228.704, 542.021 227.362 C 536.907 224.603, 531.904 221.279, 527.500 217.713 C 523.625 214.576, 516.844 211.621, 509.965 210.072 C 506.959 209.395, 502.803 208.202, 500.730 207.421 C 496.655 205.885, 487.331 205.692, 482.500 207.043" stroke="#dd8a8a" fill="#dd8a8a" fill-opacity="0.2" fill-rule="evenodd"/><path class="svg-region-SF" d="M 593.445 330.175 C 593.040 331.454, 591.683 334.125, 590.430 336.110 C 588.641 338.945, 587.313 339.854, 584.247 340.344 C 582.100 340.688, 578.544 342.272, 576.344 343.866 C 572.116 346.928, 562 361.121, 562 363.990 C 562 365.089, 560.644 366.090, 558.134 366.842 C 553.550 368.215, 542.107 368.372, 538.780 367.106 C 536.023 366.058, 534.695 366.899, 530.736 372.202 C 529.216 374.238, 526.628 376.697, 524.986 377.667 C 523.344 378.638, 522 379.942, 522 380.566 C 522 382.981, 528.235 390.142, 531.764 391.779 C 533.804 392.726, 536.154 394.045, 536.986 394.711 C 542.185 398.872, 557.212 409.581, 560.972 411.805 C 563.432 413.260, 568.074 417.040, 571.288 420.204 C 586.975 435.649, 591.120 437.754, 599.531 434.541 C 606.410 431.914, 607.262 429.472, 606.647 414.150 C 606.368 407.192, 605.704 398.350, 605.172 394.500 C 602.434 374.695, 599.906 358.658, 599.391 357.824 C 598.490 356.366, 596.914 346.329, 596.173 337.331 C 595.453 328.594, 594.631 326.436, 593.445 330.175" stroke="#8c6b55" fill="#8c6b55" fill-opacity="0.2" fill-rule="evenodd"/><path class="svg-region-AAB" d="M 633.969 496.250 C 633.951 496.938, 632.601 500.189, 630.969 503.475 C 629.336 506.761, 627.979 509.911, 627.954 510.475 C 627.928 511.039, 626.097 512.850, 623.885 514.500 C 616.836 519.757, 612.102 524.105, 611.549 525.828 C 611.255 526.748, 608.740 529.047, 605.960 530.938 C 600.996 534.316, 600.857 534.347, 598.049 532.688 C 595.962 531.455, 592.807 530.991, 586.346 530.968 C 580.157 530.946, 576.917 530.495, 575.559 529.468 C 574.491 528.661, 572.375 528, 570.856 528 C 563.311 528, 558.975 534.011, 558.230 545.500 C 557.802 552.110, 558.008 552.971, 561.915 560.958 C 564.191 565.610, 566.743 572.079, 567.587 575.335 C 569.286 581.894, 570.592 584.280, 576.284 591.233 C 580.498 596.382, 580.803 596.584, 595.500 603.955 C 609.010 610.732, 609.823 610.667, 620 601.990 C 623.025 599.411, 627.659 595.847, 630.297 594.070 C 636.193 590.099, 641.292 585.084, 643.250 581.330 C 644.062 579.773, 645.904 576.447, 647.344 573.937 C 652.097 565.653, 654.596 543.803, 651.969 533.500 C 651.408 531.300, 648.962 525.450, 646.533 520.500 C 644.104 515.550, 641.347 509.475, 640.406 507 C 637.321 498.881, 635.512 495.052, 634.750 495.026 C 634.337 495.012, 633.986 495.563, 633.969 496.250" stroke="#7f3c1a" fill="#7f3c1a" fill-opacity="0.2" fill-rule="evenodd"/><path class="svg-region-APB" d="M 580 449.957 C 579.175 450.419, 576.587 451.585, 574.250 452.550 C 570.306 454.178, 570 454.576, 570 458.095 C 570 460.614, 570.610 462.325, 571.817 463.193 C 575.036 465.508, 579 472.360, 579 475.610 C 579 479.472, 581.139 481.433, 584.448 480.603 L 586.921 479.982 584.961 475.408 C 583.833 472.776, 583 468.577, 583 465.518 C 583 461.099, 583.591 459.323, 586.500 455 C 588.425 452.139, 590 449.619, 590 449.400 C 590 448.644, 581.499 449.118, 580 449.957" stroke="#ac7444" fill="#ac7444" fill-opacity="0.2" fill-rule="evenodd"/><path class="svg-region-PC" d="M 536.174 506.314 C 534.978 507.587, 534 509.420, 534 510.386 C 534 513.324, 539.007 520.895, 541.838 522.237 C 543.448 523.001, 544.878 524.783, 545.456 526.748 C 546.001 528.600, 547.291 530.273, 548.456 530.641 C 550.719 531.355, 554.720 535.591, 555.538 538.138 C 555.827 539.039, 554.658 542.719, 552.940 546.316 C 549.622 553.263, 546.087 556.449, 538.287 559.526 C 534.588 560.985, 533.825 561.852, 532.037 566.631 C 528.951 574.878, 529.175 588.686, 532.510 595.849 C 534.082 599.227, 535 602.980, 535 606.032 C 535 610.025, 535.356 610.978, 537.048 611.515 C 538.208 611.883, 539.790 611.589, 540.696 610.838 C 541.738 609.973, 544.296 609.625, 548.032 609.840 C 551.661 610.049, 554.822 609.639, 556.635 608.724 C 558.211 607.929, 561.450 606.979, 563.833 606.614 C 567.846 605.999, 575.530 602.659, 580.665 599.299 C 582.815 597.891, 582.802 597.855, 578.554 593.606 C 573.108 588.160, 569.197 581.481, 567.380 574.522 C 566.593 571.509, 564.127 565.321, 561.899 560.772 C 558.105 553.021, 557.876 552.059, 558.267 545.500 C 558.752 537.363, 561.556 530.979, 565.420 529.218 C 567.755 528.154, 568.002 527.495, 568.022 522.271 C 568.038 518.088, 568.582 515.812, 570 514 C 572.726 510.514, 572.507 509.612, 568.466 507.685 C 562.857 505.011, 561.423 505.453, 559.349 510.496 C 558.332 512.969, 556.938 514.994, 556.250 514.996 C 555.563 514.998, 555 515.627, 555 516.393 C 555 517.795, 552.125 519.458, 551.236 518.570 C 550.974 518.307, 550.358 515.947, 549.868 513.325 C 548.340 505.142, 540.869 501.317, 536.174 506.314" stroke="#cda789" fill="#cda789" fill-opacity="0.2" fill-rule="evenodd"/><path class="svg-region-DB" d="M 516.961 381.846 C 515.058 382.861, 511.304 384.958, 508.619 386.505 C 501.856 390.402, 492.183 391.017, 482.177 388.185 L 474.931 386.135 468.716 390.497 C 448.258 404.853, 442.204 408.566, 433.297 412.215 C 427.908 414.422, 423.039 416.597, 422.477 417.049 C 421.914 417.500, 417.929 418.813, 413.622 419.967 C 409.315 421.121, 403.926 423.046, 401.646 424.243 C 398.331 425.984, 395.567 426.460, 387.859 426.617 C 378.136 426.814, 374 427.947, 374 430.413 C 374 431.151, 373.316 432.323, 372.481 433.016 C 370.577 434.596, 371.318 439.453, 374.537 446.500 C 375.793 449.250, 378.018 454.650, 379.482 458.500 C 380.946 462.350, 382.537 466.400, 383.018 467.500 C 383.499 468.600, 384.919 471.975, 386.174 475 C 388.488 480.581, 392.665 487.951, 396.750 493.663 C 397.988 495.393, 399 497.302, 399 497.904 C 399 499.425, 400.619 499.275, 404.598 497.386 C 406.559 496.456, 409.373 495.974, 411.244 496.249 C 413.223 496.540, 415.413 496.120, 416.857 495.174 C 419.736 493.288, 452.137 492.059, 454.244 493.757 C 454.935 494.314, 457.030 495.097, 458.899 495.497 C 460.769 495.897, 467.513 498.874, 473.886 502.112 C 480.259 505.350, 486.506 508, 487.769 508 C 489.031 508, 491.737 508.742, 493.782 509.648 C 498.257 511.632, 507.205 514.922, 508.250 514.967 C 508.663 514.985, 509.045 510.613, 509.100 505.250 C 509.233 492.218, 509.666 490.990, 515.181 488 C 517.717 486.625, 520.982 484.649, 522.437 483.608 C 526.776 480.505, 529.097 482.393, 532.297 491.631 C 533.797 495.959, 535.018 501.213, 535.012 503.307 C 535 507.041, 535.042 507.084, 537.223 505.557 C 538.445 504.701, 540.470 504, 541.723 504 C 543.468 504, 544 503.432, 544 501.569 C 544 498.292, 548.074 492.095, 550.264 492.042 C 551.234 492.019, 552.846 492.511, 553.846 493.136 C 555.251 494.013, 556.838 493.883, 560.810 492.563 C 563.640 491.623, 566.415 491.139, 566.978 491.486 C 568.812 492.620, 568.058 496.055, 565 500.500 C 561.560 505.499, 561.427 506, 563.540 506 C 564.387 506, 566.871 506.914, 569.060 508.030 C 573.512 510.302, 573.312 510.487, 575.011 502.500 C 576.648 494.808, 579.104 488.845, 582.219 485 C 584.715 481.919, 584.842 481.457, 583.277 481.142 C 580.253 480.534, 579 478.886, 579 475.517 C 579 472.122, 575.299 465.668, 571.753 462.880 C 570.014 461.512, 569.789 460.553, 570.313 456.730 C 570.904 452.423, 570.801 452.167, 568.217 451.522 C 565.091 450.742, 562 448.241, 562 446.491 C 562 445.832, 560.875 444.078, 559.500 442.595 C 558.125 441.111, 556.997 439.583, 556.993 439.198 C 556.989 438.814, 555.401 434.300, 553.465 429.166 C 550.986 422.595, 549.730 417.293, 549.222 411.252 L 548.500 402.671 542.640 398.585 C 539.417 396.338, 534.692 393.346, 532.140 391.935 C 529.281 390.354, 526.348 387.592, 524.500 384.739 C 522.850 382.192, 521.258 380.084, 520.961 380.054 C 520.665 380.024, 518.865 380.831, 516.961 381.846" stroke="#e8b1e4" fill="#e8b1e4" fill-opacity="0.2" fill-rule="evenodd"/><path class="svg-region-MB" d="M 421.328 493.728 C 419.033 493.937, 416.643 494.725, 416.016 495.481 C 415.271 496.378, 413.717 496.666, 411.535 496.312 C 409.421 495.969, 406.677 496.439, 404.062 497.593 L 399.929 499.416 400.568 507.958 C 401.013 513.914, 401.932 517.998, 403.603 521.446 C 405.603 525.574, 406 525.958, 406 523.764 C 406 520.879, 409.187 519.100, 411.298 520.806 C 411.959 521.340, 415.650 521.972, 419.500 522.210 C 425.967 522.609, 430.442 524.013, 435.496 527.230 C 436.593 527.928, 438.618 529.219, 439.996 530.099 C 441.373 530.978, 445.828 532.955, 449.896 534.492 C 457.423 537.336, 468.138 544.004, 473.429 549.137 C 475.040 550.700, 477.290 552.269, 478.429 552.624 C 479.568 552.979, 480.725 553.602, 481 554.007 C 481.275 554.413, 484.650 556.358, 488.500 558.329 C 492.350 560.300, 497.300 563.537, 499.500 565.522 C 504.931 570.424, 509.546 572.677, 518.731 574.910 C 523.004 575.949, 527.183 577.077, 528.018 577.417 C 529.214 577.905, 529.781 576.747, 530.690 571.961 C 532.078 564.657, 534.176 561.183, 538.004 559.849 L 540.861 558.853 540.304 549.676 C 539.684 539.447, 538.961 537.821, 536.158 540.357 C 533.504 542.759, 526.434 541.593, 522.611 538.122 C 517.920 533.865, 508 519.829, 508 517.450 C 508 515.632, 506.581 514.687, 499.768 511.968 C 495.240 510.161, 489.737 508.279, 487.538 507.785 C 485.339 507.291, 478.716 504.462, 472.820 501.498 C 466.924 498.534, 460.498 495.809, 458.539 495.441 C 456.581 495.074, 454.731 494.374, 454.430 493.887 C 453.908 493.042, 430.136 492.928, 421.328 493.728" stroke="#f9c6c6" fill="#f9c6c6" fill-opacity="0.2" fill-rule="evenodd"/><path class="svg-region-LBr" d="M 407.140 520.864 C 406.145 521.515, 405.948 523.065, 406.407 526.627 C 406.753 529.307, 407.401 534.425, 407.847 538 C 408.294 541.575, 409.223 545.850, 409.913 547.500 C 410.603 549.150, 411.405 554.775, 411.695 560 C 412.135 567.918, 412.636 570.113, 414.700 573.181 C 416.244 575.476, 417.497 579.242, 418.028 583.181 C 419.083 591.010, 424.106 605.551, 426.627 608.071 C 428.746 610.190, 447.847 617.651, 454.281 618.873 C 456.602 619.314, 461.162 621.548, 464.416 623.837 C 467.669 626.127, 471.386 628, 472.676 628 C 473.965 628, 475.790 628.900, 476.732 630 C 478.132 631.635, 479.682 632, 485.222 632 C 492.548 632, 493.937 632.781, 497.109 638.679 C 497.994 640.325, 500.799 642.835, 503.342 644.256 L 507.966 646.840 512.894 645.039 C 515.604 644.048, 519.375 642.053, 521.273 640.605 C 524.149 638.412, 524.822 637.152, 525.307 633.055 C 526.106 626.313, 529.065 620.955, 534.606 616.219 C 538.922 612.530, 539.116 612.172, 537.140 611.544 C 535.331 610.970, 535 610.095, 535 605.893 C 535 602.766, 534.199 599.357, 532.842 596.710 C 531.456 594.006, 530.516 589.931, 530.215 585.319 C 529.679 577.107, 529.875 577.277, 517.729 574.543 C 509.491 572.689, 504.892 570.389, 499.056 565.204 C 496.611 563.032, 491.661 559.769, 488.056 557.953 C 484.450 556.136, 481.275 554.387, 481 554.066 C 480.725 553.744, 478.700 552.246, 476.500 550.736 C 474.300 549.226, 469.800 545.972, 466.500 543.505 C 460.317 538.883, 453.396 535.234, 446.623 533.025 C 444.491 532.330, 440.813 530.456, 438.450 528.862 C 431.992 524.503, 427.236 522.771, 419.500 521.959 C 415.650 521.554, 411.600 520.942, 410.500 520.599 C 409.400 520.255, 407.888 520.375, 407.140 520.864" stroke="#d7b230" fill="#d7b230" fill-opacity="0.2" fill-rule="evenodd"/><path class="svg-region-LPr" d="M 637.500 588.260 C 635.850 589.912, 632.810 592.336, 630.745 593.648 C 628.679 594.959, 624.068 598.510, 620.497 601.540 C 613.189 607.739, 609.736 609.397, 606.039 608.482 C 602.551 607.619, 589.375 601.403, 586.122 599.087 C 583.732 597.385, 583.256 597.344, 581.480 598.681 C 578.187 601.159, 567.570 605.941, 563.924 606.588 C 562.041 606.922, 558.596 607.885, 556.268 608.727 C 553.625 609.683, 550.165 610.078, 547.052 609.779 L 542.067 609.300 534.646 616.400 C 527.186 623.536, 525.020 627.503, 525.006 634.054 C 524.992 640.341, 514.729 645.633, 498 647.978 C 490.529 649.025, 485.548 650.128, 477.250 652.571 C 476.012 652.935, 475.019 653.518, 475.043 653.867 C 475.095 654.646, 484.484 662.038, 487.587 663.742 C 489.424 664.751, 496.381 675.034, 499.940 682 C 500.423 682.946, 502.516 683.619, 505.603 683.822 C 509.834 684.100, 510.772 684.570, 512.500 687.279 C 515.753 692.379, 521.844 696.025, 528.206 696.682 C 535.731 697.459, 539.823 696.553, 545.362 692.883 C 549.786 689.953, 550.282 689.850, 555.548 690.757 C 560.259 691.569, 561.213 691.470, 561.948 690.098 C 562.694 688.704, 564.758 688.531, 577.155 688.822 C 617.948 689.781, 628.521 690.798, 630.471 693.953 C 633.013 698.066, 648.891 699.466, 654.397 696.064 C 660.358 692.380, 663.897 685.291, 666.444 671.931 C 668.157 662.946, 668.794 615.858, 667.255 612 C 666.706 610.625, 666.475 608.043, 666.740 606.262 C 667.099 603.858, 666.794 602.858, 665.557 602.383 C 664.640 602.032, 663.011 599.889, 661.936 597.622 C 660.166 593.887, 658.491 592.348, 650.114 586.755 C 646.132 584.097, 641.054 584.703, 637.500 588.260 M 510 706.014 C 510 708.688, 509.392 709.305, 504.595 711.499 C 501.159 713.071, 497.975 715.524, 495.853 718.236 C 494.017 720.581, 492.174 722.650, 491.757 722.833 C 491.341 723.017, 491 723.723, 491 724.403 C 491 725.084, 489.425 727.480, 487.500 729.729 C 483.481 734.424, 483.334 735.216, 485.813 738.846 C 486.809 740.306, 489.802 745.886, 492.463 751.246 L 497.300 760.992 494.650 763.448 C 493.193 764.799, 492.027 766.938, 492.059 768.202 C 492.166 772.341, 500.298 785.891, 504.824 789.473 C 508.587 792.451, 509.981 792.901, 517.281 793.503 C 530.431 794.586, 542.652 793.392, 548.224 790.478 C 550.830 789.115, 553.554 788, 554.276 788 C 554.998 788, 557.203 785.862, 559.175 783.250 C 562.431 778.938, 564.094 776.166, 569.153 766.619 C 571.204 762.749, 584.666 749, 586.404 749 C 586.901 749, 589.825 747.826, 592.904 746.390 C 598.484 743.788, 601.372 742.489, 608 739.599 C 609.925 738.759, 613.750 736.696, 616.500 735.014 C 619.250 733.331, 622.063 731.692, 622.750 731.370 C 623.438 731.049, 624 730.402, 624 729.932 C 624 728.328, 613.651 726, 606.521 726 C 600.034 726, 586.921 723.692, 568.500 719.308 C 564.650 718.392, 558.467 716.198, 554.760 714.432 C 548.783 711.586, 546.644 711.140, 535.869 710.492 C 524.700 709.821, 523.202 709.489, 517.344 706.381 C 513.839 704.521, 510.753 703, 510.486 703 C 510.219 703, 510 704.356, 510 706.014" stroke="#d2454f" fill="#d2454f" fill-opacity="0.2" fill-rule="evenodd"/><path class="svg-region-DMr" d="M 400.533 605.947 C 400.175 606.526, 397.241 607, 394.013 607 L 388.144 607 387.472 612.379 C 387.025 615.957, 387.217 618.536, 388.045 620.084 C 388.730 621.364, 389.662 626.077, 390.116 630.557 C 390.817 637.474, 396.047 656.824, 399.020 663.500 C 402.257 670.770, 403 673.956, 403 680.575 C 403 687.236, 403.389 689.109, 406.096 695.500 C 406.894 697.382, 407.232 701.640, 408.579 726.750 C 409.128 736.984, 409.125 737.002, 406.625 737.952 C 405.248 738.476, 403.628 739.826, 403.026 740.952 C 401.969 742.927, 402.184 743, 409.061 743 C 414.035 743, 417.080 742.475, 419.130 741.264 C 422.021 739.556, 422.283 739.600, 435.284 743.945 C 442.553 746.374, 451.200 749.605, 454.500 751.125 C 457.800 752.645, 466.350 756.303, 473.500 759.254 C 482.781 763.083, 486.782 765.245, 487.487 766.809 C 488.582 769.239, 492 769.817, 492 767.573 C 492 766.787, 493.176 765.220, 494.613 764.090 C 497.824 761.564, 497.410 759.085, 492.426 751.011 C 490.542 747.958, 489 744.837, 489 744.075 C 489 743.312, 487.875 741.214, 486.500 739.411 C 485.125 737.608, 484.018 735.766, 484.041 735.317 C 484.063 734.868, 487.332 730, 491.304 724.500 C 497.611 715.768, 499.255 714.148, 504.264 711.721 L 510 708.942 510 704.030 C 510 701.328, 509.550 698.840, 509 698.500 C 508.450 698.160, 508 697.181, 508 696.325 C 508 695.469, 506.517 692.683, 504.704 690.134 C 502.891 687.585, 500.106 682.800, 498.514 679.500 C 494.390 670.949, 490.328 665.227, 487.203 663.567 C 485.716 662.777, 483.375 661.072, 482 659.778 C 476.623 654.716, 465.330 647.461, 453.198 641.276 C 432.336 630.640, 426.586 627.159, 420.219 621.308 C 418.907 620.103, 416.637 618.978, 415.173 618.808 C 413.237 618.584, 411.182 616.729, 407.630 612 C 402.401 605.037, 401.546 604.308, 400.533 605.947" stroke="#68533d" fill="#68533d" fill-opacity="0.2" fill-rule="evenodd"/><path class="svg-region-PMr" d="M 297.362 705.339 C 292.459 708.707, 287.304 711.325, 283.355 712.455 C 282.175 712.792, 279.138 715.284, 276.605 717.991 C 273.175 721.658, 272 723.708, 272 726.023 C 272 732.753, 275.008 734.880, 288.208 737.482 C 301.957 740.192, 312.796 738.231, 320.025 731.724 C 323.389 728.697, 324.084 727.508, 323.532 725.724 C 323.154 724.501, 322.474 721.725, 322.021 719.555 C 321.205 715.645, 316.079 710.087, 313.234 710.027 C 312.537 710.012, 311.233 708.460, 310.336 706.578 C 308.870 703.504, 306.653 702.053, 303.362 702.014 C 302.736 702.006, 300.036 703.503, 297.362 705.339" stroke="#90cf92" fill="#90cf92" fill-opacity="0.2" fill-rule="evenodd"/><path class="svg-region-PV" d="M 292.328 644.002 C 291.133 644.484, 288.905 647.043, 287.376 649.689 C 285.847 652.335, 284.303 654.725, 283.946 655 C 283.361 655.450, 281.157 660.120, 278.991 665.500 C 278.548 666.600, 277.642 669.613, 276.978 672.195 C 275.962 676.149, 275.355 676.937, 273.136 677.195 C 270.915 677.452, 270.455 678.051, 270.214 681 C 270.057 682.925, 269.531 685.625, 269.045 687 C 268.560 688.375, 267.904 691.360, 267.588 693.634 L 267.013 697.768 273.257 698.181 C 279.476 698.593, 284.646 701.007, 290.700 706.323 C 292.889 708.245, 292.923 708.240, 297.621 705.127 C 303.352 701.332, 305.322 701.231, 308.652 704.561 C 310.060 705.969, 311.321 706.981, 311.454 706.811 C 311.587 706.640, 312.724 704.402, 313.981 701.839 C 315.681 698.370, 317.400 696.594, 320.700 694.897 C 323.139 693.642, 325.589 691.768, 326.144 690.731 C 326.699 689.695, 327.395 682.919, 327.692 675.673 C 328.045 667.028, 328.707 661.739, 329.615 660.285 C 330.377 659.067, 331 657.881, 331 657.649 C 331 657.417, 328.939 656.918, 326.420 656.540 C 323.900 656.162, 319.694 654.588, 317.072 653.042 C 314.450 651.496, 311.223 649.896, 309.902 649.485 C 308.581 649.075, 304.925 647.448, 301.779 645.870 C 295.534 642.738, 295.488 642.729, 292.328 644.002" stroke="#b09658" fill="#b09658" fill-opacity="0.2" fill-rule="evenodd"/><path class="svg-region-LPVr" d="M 387.173 630.204 C 382.926 639.868, 382.476 640.483, 377.817 643 C 375.272 644.375, 368.535 648.805, 362.845 652.844 L 352.500 660.188 344 659.536 C 339.325 659.177, 334.600 658.680, 333.500 658.432 C 329.224 657.466, 328.646 659.098, 327.839 674.429 C 327.417 682.441, 326.637 689.811, 326.104 690.806 C 325.571 691.802, 323.007 693.711, 320.406 695.048 C 316.506 697.054, 315.265 698.413, 313.322 702.808 C 310.985 708.090, 310.989 710, 313.336 710 C 315.486 710, 320.894 715.715, 321.526 718.654 C 321.863 720.219, 322.557 722.534, 323.069 723.797 C 323.581 725.060, 324 726.489, 324 726.972 C 324 728.483, 315.583 735.978, 313.873 735.989 C 312.529 735.998, 312.333 736.827, 312.747 740.750 C 313.023 743.362, 314.057 746.400, 315.045 747.500 C 316.525 749.147, 316.695 750.295, 316.008 754 C 315.549 756.475, 315.357 758.685, 315.582 758.912 C 316.131 759.465, 320.976 758.029, 344.164 750.437 C 354.979 746.897, 364.557 744, 365.449 744 C 366.341 744, 368.200 743.260, 369.580 742.356 C 371.723 740.951, 373.508 740.835, 381.795 741.560 C 396.543 742.850, 400.713 742.605, 403.279 740.296 C 404.500 739.197, 406.317 738.009, 407.314 737.656 C 408.958 737.074, 409.077 736.046, 408.579 726.757 C 407.233 701.651, 406.894 697.382, 406.096 695.500 C 403.387 689.106, 403 687.228, 403 680.490 C 403 675.285, 402.371 671.498, 400.891 667.787 C 396.144 655.884, 390.874 638.083, 390.209 631.704 L 389.500 624.909 387.173 630.204" stroke="#494949" fill="#494949" fill-opacity="0.2" fill-rule="evenodd"/><path class="svg-region-Fr" d="M 329.926 508.282 C 327.798 509.928, 321 519.929, 321 521.413 C 321 522.066, 318.498 525.278, 315.441 528.550 C 306.554 538.061, 305.369 539.442, 304.161 541.699 C 303.470 542.991, 300.944 544.486, 297.760 545.488 C 294.867 546.398, 291.600 547.532, 290.500 548.009 C 289.400 548.485, 287.528 549.145, 286.339 549.476 C 285.151 549.807, 283.453 551.185, 282.566 552.539 C 281.662 553.920, 279.976 555.007, 278.727 555.017 C 277.502 555.026, 274.437 556.264, 271.916 557.767 C 266.292 561.120, 250.860 574.580, 248.719 578 C 247.858 579.375, 246.198 581.516, 245.030 582.758 C 242.677 585.261, 234.181 605.985, 230.886 617.260 C 226.841 631.098, 227.281 675.467, 231.612 690.644 C 233.192 696.181, 235.528 697.797, 238.652 695.513 C 240.086 694.464, 241.572 694.563, 247.019 696.072 C 250.661 697.082, 256.580 698.209, 260.172 698.577 C 266.454 699.220, 266.727 699.155, 267.338 696.873 C 267.687 695.568, 267.979 693.064, 267.986 691.309 C 267.994 689.554, 268.450 687.840, 269 687.500 C 270.439 686.611, 270.235 677.432, 268.750 676.249 C 268.063 675.702, 265.700 674.673, 263.500 673.963 C 253.443 670.715, 247.904 668.654, 247.506 668.009 C 247.268 667.624, 246.805 665.552, 246.477 663.405 C 245.971 660.098, 246.285 659.072, 248.523 656.704 C 250.534 654.577, 251.167 652.883, 251.167 649.628 C 251.167 644.448, 251.568 643.757, 255.854 641.560 C 259.108 639.892, 259.152 639.788, 257.354 638.043 C 256.334 637.054, 254.717 635.290, 253.760 634.123 C 252.803 632.955, 251.170 632, 250.132 632 C 249.094 632, 247.716 631.363, 247.070 630.585 C 246.125 629.445, 246.734 628.380, 250.198 625.118 C 252.564 622.889, 256.332 620.082, 258.571 618.880 C 263.813 616.064, 267.263 616.869, 272.014 622.016 C 275.485 625.775, 275.699 625.855, 279.831 624.927 C 284.734 623.825, 286.878 624.639, 289.461 628.581 C 292.249 632.835, 291.872 637.480, 288.448 641.060 L 285.500 644.143 291.500 643.885 C 296.576 643.667, 298.458 644.118, 303.721 646.814 C 307.143 648.566, 310.415 650, 310.991 650 C 311.568 650, 313.901 651.175, 316.177 652.612 C 321.238 655.807, 332.674 658.639, 344.015 659.506 C 352.422 660.149, 352.546 660.125, 357.511 656.828 C 360.266 654.997, 365.205 651.475, 368.486 649 C 371.767 646.525, 376.258 643.600, 378.466 642.500 C 382.551 640.464, 383.008 639.824, 387.529 629.797 C 390.001 624.315, 390.037 623.972, 388.452 620.908 C 387.209 618.504, 386.969 616.404, 387.474 612.361 C 388.121 607.183, 388.249 607, 391.228 607 L 394.312 607 389.252 602.149 C 381.049 594.283, 378.726 587.634, 378.814 572.273 C 378.841 567.601, 378.318 564.928, 376.929 562.652 C 375.630 560.520, 375.006 557.658, 375.004 553.809 C 375.002 550.679, 374.585 547.861, 374.077 547.548 C 373.569 547.234, 372.845 545.570, 372.467 543.851 C 370.440 534.621, 364.755 526.263, 353.757 516.341 C 349.468 512.472, 346.971 511.010, 343.769 510.495 C 341.421 510.117, 338.503 509.176, 337.285 508.404 C 334.593 506.697, 332.028 506.655, 329.926 508.282" stroke="#5ca7a9" fill="#5ca7a9" fill-opacity="0.2" fill-rule="evenodd"/><path class="svg-region-PCr" d="M 256.858 619.875 C 254.365 621.456, 250.864 624.178, 249.079 625.923 C 246.441 628.502, 246.059 629.367, 247.039 630.547 C 247.702 631.346, 249.057 632, 250.050 632 C 251.042 632, 253.205 633.639, 254.857 635.642 C 257.639 639.018, 257.978 639.164, 259.499 637.644 C 262.165 634.978, 265.264 634.767, 270.025 636.926 C 272.486 638.043, 275.104 638.966, 275.842 638.978 C 276.581 638.990, 278.329 639.900, 279.727 641 C 283.145 643.689, 286.165 643.518, 289.023 640.475 C 291.811 637.508, 292.022 632.877, 289.585 628.164 C 287.665 624.452, 284.617 623.460, 279.484 624.877 C 275.843 625.882, 275.612 625.785, 271.405 621.456 C 266.175 616.074, 263.337 615.766, 256.858 619.875" stroke="#465ee0" fill="#465ee0" fill-opacity="0.2" fill-rule="evenodd"/><path class="svg-region-DV" d="M 238.974 695.085 C 238.163 695.509, 236.725 696.094, 235.779 696.385 C 234.193 696.873, 234.244 697.410, 236.423 703.208 C 237.723 706.668, 239.568 712.650, 240.522 716.500 C 241.476 720.350, 243.131 725.232, 244.199 727.348 C 245.784 730.490, 246.541 731.089, 248.320 730.612 C 251.703 729.705, 261.235 734.744, 263.109 738.430 C 265.327 742.795, 270.217 743.077, 274.951 739.113 L 278.403 736.223 275.201 732.577 C 270.578 727.311, 270.889 724.103, 276.615 717.981 C 279.736 714.644, 282.324 712.842, 284.615 712.413 C 286.477 712.063, 288 711.426, 288 710.997 C 288 710.568, 289.165 709.924, 290.588 709.567 C 292.800 709.012, 292.988 708.691, 291.882 707.357 C 291.169 706.499, 288.092 704.160, 285.043 702.159 L 279.500 698.522 267 698.349 C 258.197 698.227, 252.422 697.605, 247.474 696.246 C 243.584 695.177, 239.790 694.659, 238.974 695.085" stroke="#45567a" fill="#45567a" fill-opacity="0.2" fill-rule="evenodd"/><path class="svg-region-VV" d="M 275.025 738.935 C 271.004 742.268, 264.943 743.606, 262.050 741.799 C 259.845 740.422, 259.526 740.596, 258.573 743.698 C 257.985 745.612, 258.414 746.034, 261.899 746.973 C 266.349 748.171, 268.890 751.171, 270.938 757.643 C 271.659 759.921, 272.586 762.330, 272.997 762.995 C 274.061 764.717, 290.173 765.572, 294.799 764.152 C 296.834 763.528, 301.650 762.088, 305.500 760.953 C 314.970 758.162, 315.404 757.853, 316.153 753.391 C 316.659 750.377, 316.393 749.049, 314.973 747.500 C 313.965 746.400, 312.996 743.700, 312.820 741.500 C 312.464 737.053, 313.207 737.252, 301.891 738.571 C 298.145 739.007, 293.926 738.689, 289.193 737.612 C 279.853 735.488, 279.098 735.558, 275.025 738.935" stroke="#7699d1" fill="#7699d1" fill-opacity="0.2" fill-rule="evenodd"/><path class="svg-region-Or" d="M 722 174.962 C 712.862 175.765, 706.923 178.310, 697.322 185.536 C 693.330 188.541, 689.599 191, 689.032 191 C 688.464 191, 688 191.346, 688 191.769 C 688 192.192, 685.381 193.978, 682.179 195.738 C 675.953 199.161, 671 203.244, 671 204.952 C 671 205.529, 670.555 206, 670.011 206 C 669.466 206, 666.605 208.137, 663.653 210.750 C 656.799 216.814, 651.111 221.407, 649.927 221.833 C 649.417 222.017, 649 222.775, 649 223.518 C 649 224.261, 646.407 228.161, 643.237 232.184 C 640.067 236.208, 636.933 240.725, 636.271 242.223 C 633.022 249.575, 630 260.561, 630 265.021 C 630 268.070, 629.560 270, 628.865 270 C 628.036 270, 627.939 273.448, 628.505 282.750 C 628.931 289.762, 629.648 311.700, 630.097 331.500 C 631.414 389.549, 633.483 415.213, 637.944 428.842 C 640.865 437.768, 640.990 438.843, 640.751 452.936 C 640.551 464.668, 640.799 468.048, 641.958 469.448 C 642.929 470.618, 643.555 474.371, 643.830 480.660 C 644.240 490.023, 644.307 490.239, 650.941 503.307 C 660.900 522.924, 669.689 538.586, 675.409 546.908 C 678.209 550.982, 683.672 558.961, 687.548 564.639 C 691.424 570.318, 698.637 579.134, 703.576 584.232 C 708.516 589.329, 713.669 594.970, 715.029 596.767 C 717.710 600.312, 731.870 610.211, 737.815 612.697 C 744.024 615.293, 751.680 616.964, 760.460 617.639 C 767.781 618.201, 769.350 618.019, 772.834 616.203 C 775.029 615.059, 778.552 613.807, 780.662 613.420 C 786.506 612.348, 793.624 608.821, 802.984 602.358 C 811.881 596.214, 812.080 595.965, 823.592 576.500 C 826.195 572.100, 829.810 566.025, 831.627 563 C 833.444 559.975, 835.617 554.832, 836.457 551.571 C 837.297 548.310, 839.298 541.785, 840.905 537.071 C 847.147 518.755, 854.955 492.874, 857.978 480.477 C 859.719 473.340, 862.389 463, 863.912 457.500 C 868.674 440.301, 869.114 437.911, 870.531 421.500 C 871.292 412.700, 872.649 397.400, 873.549 387.500 C 876.095 359.474, 874.822 337.610, 869.356 315.500 C 865.377 299.408, 864.871 297.972, 859.658 288 C 847.395 264.541, 842.259 254.167, 841.593 251.514 C 840.124 245.663, 833.634 236.188, 829.500 233.859 C 827.300 232.619, 824.606 230.457, 823.512 229.053 C 819.676 224.126, 796.339 201.460, 791.250 197.719 C 788.421 195.640, 783.496 192.809, 780.304 191.428 C 777.112 190.048, 772.475 187.795, 770 186.422 C 767.525 185.049, 763.475 182.994, 761 181.857 C 758.525 180.719, 755.188 179.139, 753.584 178.345 C 749.680 176.414, 737.762 173.963, 733.185 174.151 C 731.158 174.234, 726.125 174.599, 722 174.962" stroke="#aa444d" fill="#aa444d" fill-opacity="0.2" fill-rule="evenodd"/><path class="svg-region-VOC" d="M 520.500 485 C 518.424 486.650, 515.957 488, 515.017 488 C 514.078 488, 512.473 488.925, 511.449 490.056 C 509.911 491.756, 509.462 494.534, 508.859 506.097 L 508.130 520.082 512.999 526.791 C 515.677 530.481, 519.715 535.300, 521.971 537.500 C 525.662 541.098, 526.548 541.485, 530.787 541.351 C 533.379 541.269, 536.400 541.044, 537.500 540.851 C 539.332 540.529, 539.545 541.189, 540.034 548.701 C 540.327 553.211, 540.882 557.215, 541.266 557.599 C 541.650 557.983, 543.850 556.993, 546.155 555.399 C 549.267 553.246, 551.106 550.828, 553.301 546 L 556.256 539.500 554.270 536 C 553.178 534.075, 550.950 531.891, 549.320 531.146 C 547.422 530.279, 546.021 528.659, 545.427 526.646 C 544.877 524.780, 543.417 522.986, 541.838 522.237 C 540.373 521.543, 538.023 519.008, 536.614 516.605 C 534.334 512.715, 534.120 511.522, 534.660 505.738 C 535.180 500.173, 534.871 498.183, 532.508 491.870 C 528.497 481.156, 526.660 480.105, 520.500 485" stroke="#ff8f93" fill="#ff8f93" fill-opacity="0.2" fill-rule="evenodd"/><path class="svg-region-OABr" d="M 597.854 441.684 C 593.528 445.025, 585.327 455.011, 583.964 458.596 C 582.539 462.342, 582.859 472.130, 584.500 475 C 586.524 478.540, 586.396 479.186, 582.695 484.106 C 578.990 489.031, 576.599 494.852, 574.932 503 C 574.271 506.231, 572.609 510.023, 570.904 512.191 C 568.424 515.343, 568 516.769, 568 521.941 C 568 527.915, 568.039 528, 570.809 528 C 572.354 528, 574.491 528.661, 575.559 529.468 C 576.924 530.501, 580.179 530.946, 586.527 530.968 C 593.137 530.991, 596.166 531.428, 597.835 532.597 C 600.719 534.617, 604.381 533.302, 608.725 528.685 C 615.234 521.767, 619.916 517.367, 623.821 514.500 C 626.069 512.850, 627.928 510.920, 627.954 510.210 C 627.979 509.501, 628.919 507.120, 630.042 504.919 C 632.865 499.384, 633.737 489.096, 631.747 484.804 C 630.861 482.894, 629.925 476.858, 629.527 470.500 C 628.731 457.756, 626.506 452.751, 621.160 451.682 C 619.259 451.302, 617.504 449.969, 616.365 448.041 C 615.377 446.369, 614.250 445, 613.861 445 C 613.472 445, 611.814 443.873, 610.176 442.495 C 605.537 438.591, 602.146 438.368, 597.854 441.684" stroke="#81244d" fill="#81244d" fill-opacity="0.2" fill-rule="evenodd"/><path class="svg-region-SOTr" d="M 560.086 492.705 C 556.689 493.914, 555.252 494.014, 553.849 493.138 C 551.718 491.807, 548 491.622, 548 492.847 C 548 493.313, 547.100 494.732, 546 496 C 543.086 499.360, 543.367 504.372, 546.602 506.728 C 548.569 508.161, 549.333 509.772, 549.734 513.335 C 550.026 515.926, 550.615 518.262, 551.042 518.526 C 552.330 519.322, 555 517.883, 555 516.393 C 555 515.627, 555.675 515, 556.500 515 C 557.325 515, 558 514.397, 558 513.660 C 558 512.922, 560.268 508.546, 563.040 503.934 C 570.033 492.298, 569.280 489.434, 560.086 492.705" stroke="#995b45" fill="#995b45" fill-opacity="0.2" fill-rule="evenodd"/><path class="svg-region-LBPCr" d="M 412.667 572.667 C 412.300 573.033, 412 576.758, 412 580.944 C 412 585.746, 411.496 589.283, 410.635 590.527 C 409.884 591.612, 408.933 593.625, 408.522 595 C 408.111 596.375, 406.645 598.708, 405.263 600.185 C 402.050 603.619, 402.580 605.767, 408.489 613.250 C 411.637 617.237, 413.727 619, 415.306 619 C 416.559 619, 419.177 620.462, 421.125 622.250 C 426.452 627.138, 428.615 628.431, 451 640.096 C 459.525 644.539, 467.993 649.307, 469.819 650.691 C 473.284 653.318, 473.708 653.327, 483 650.992 C 485.475 650.370, 492 649.096, 497.500 648.159 L 507.500 646.457 503.059 643.979 C 500.218 642.394, 497.673 639.878, 495.997 637 L 493.376 632.500 485.999 632.202 C 480.026 631.961, 478.361 631.533, 477.254 629.952 C 476.456 628.813, 474.730 628, 473.109 628 C 471.465 628, 467.918 626.302, 464.416 623.837 C 461.162 621.548, 456.621 619.317, 454.324 618.881 C 447.893 617.660, 430.870 611.060, 427.369 608.431 C 425.631 607.126, 424.010 604.839, 423.725 603.290 C 423.442 601.756, 422.048 597.350, 420.627 593.500 C 419.205 589.650, 418.033 584.828, 418.021 582.784 C 418.001 579.194, 415.306 572, 413.981 572 C 413.625 572, 413.033 572.300, 412.667 572.667" stroke="#daffff" fill="#daffff" fill-opacity="0.2" fill-rule="evenodd"/><path class="svg-region-BPCr" d="M 663.070 684.159 C 660.247 693.583, 654.072 698.010, 643.790 697.984 C 638.894 697.971, 636.614 697.425, 633.500 695.521 C 625.822 690.826, 624.693 690.574, 608 689.842 C 571.204 688.227, 563.626 688.266, 562 690.077 C 560.688 691.540, 559.806 691.604, 554.949 690.595 C 549.929 689.552, 549.212 689.623, 547.449 691.347 C 542.253 696.426, 532.197 698.338, 523.840 695.834 C 520.102 694.714, 511 687.024, 511 684.985 C 511 684.443, 508.750 684, 506 684 C 503.250 684, 501 684.277, 501 684.616 C 501 684.955, 502.575 687.378, 504.500 690 C 506.425 692.622, 508 695.720, 508 696.884 C 508 698.048, 508.450 699, 509 699 C 509.550 699, 510.017 699.788, 510.037 700.750 C 510.060 701.802, 512.353 703.832, 515.787 705.841 C 521.032 708.908, 522.614 709.284, 535.082 710.419 C 546.676 711.474, 549.644 712.113, 555.351 714.784 C 559.207 716.588, 568.062 719.218, 576.269 720.997 C 584.096 722.693, 592.300 724.491, 594.500 724.992 C 596.700 725.493, 602.775 726.106, 608 726.354 C 616.865 726.776, 624.016 728.338, 623.988 729.848 C 623.973 730.658, 610.542 738.476, 606.611 739.963 C 601.964 741.721, 604.348 742.274, 609.651 740.668 C 620.497 737.384, 637.826 729.002, 642.898 724.587 C 648.933 719.334, 659.034 708.318, 660.351 705.554 C 663.450 699.051, 667.244 685.108, 666.606 682.567 C 665.678 678.868, 664.497 679.399, 663.070 684.159" stroke="#83385f" fill="#83385f" fill-opacity="0.2" fill-rule="evenodd"/><path class="svg-region-PNr" d="M 260.187 638 C 258.739 639.650, 256.980 641, 256.277 641 C 253.305 641, 251 644.931, 251 650 C 251 652.750, 250.662 655.014, 250.250 655.031 C 249.838 655.049, 248.686 656.181, 247.691 657.548 C 246.299 659.459, 246.031 661.027, 246.529 664.347 L 247.176 668.662 257.338 671.961 C 262.927 673.775, 268.079 675.796, 268.786 676.451 C 269.493 677.107, 271.336 677.458, 272.880 677.231 C 275.418 676.858, 275.915 676.083, 278.028 669.194 C 280.402 661.459, 282.760 655.908, 284.058 655 C 285.026 654.323, 290.246 644.893, 289.830 644.573 C 289.649 644.433, 287.371 643.741, 284.769 643.034 C 282.167 642.328, 279.548 641.161, 278.950 640.440 C 278.351 639.719, 276.513 638.832, 274.864 638.470 C 273.214 638.108, 270.658 637.182, 269.183 636.412 C 265.168 634.317, 263.098 634.683, 260.187 638" stroke="#bbc0d1" fill="#bbc0d1" fill-opacity="0.2" fill-rule="evenodd"/><path class="svg-region-OVr" d="M 549.292 411.632 C 549.636 416.086, 550.572 421.478, 551.374 423.615 C 552.176 425.752, 553.882 430.418, 555.166 433.984 C 556.450 437.550, 558.323 441.298, 559.330 442.314 C 560.336 443.329, 561.609 445.449, 562.159 447.026 C 562.929 449.236, 564.257 450.257, 567.960 451.487 C 572.513 452.999, 573.043 452.976, 578.131 451.041 C 581.084 449.919, 585.105 449.001, 587.066 449.001 C 589.802 449, 591.336 448.243, 593.656 445.750 C 597.510 441.608, 601.031 439, 602.771 439 C 603.724 439, 603.926 438.322, 603.443 436.750 C 602.459 433.547, 602.309 433.486, 598.654 434.808 C 591.206 437.501, 587.037 435.399, 572.845 421.796 C 568.085 417.233, 561.785 412.031, 558.845 410.235 C 555.905 408.439, 552.413 406.197, 551.084 405.252 L 548.668 403.535 549.292 411.632" stroke="#593939" fill="#593939" fill-opacity="0.2" fill-rule="evenodd"/>
    </svg>