<svg xmlns="http://www.w3.org/2000/svg" width="1078" height="1151" viewBox="0 0 1078 1151" version="1.1">
    <path class="svg-region-V" d="M 494.719 209.906 C 492.639 210.340, 489.939 211.198, 488.719 211.812 C 482.529 214.928, 468.904 218.941, 464.398 218.976 C 461.127 219.001, 444.029 227.157, 433 233.952 C 424.661 239.090, 412.662 249.654, 410.881 253.425 C 410.122 255.033, 408.653 256.833, 407.617 257.425 C 406.581 258.016, 404.744 259.400, 403.536 260.500 C 402.327 261.600, 399.816 263.625, 397.955 265 C 391.969 269.424, 388.472 273.573, 384.794 280.614 C 380.122 289.558, 374 307.627, 374 312.470 C 374 314.557, 373.160 317.667, 372.132 319.382 C 368.125 326.072, 366.790 334.586, 367.165 351.047 C 367.512 366.269, 367.566 366.590, 370.757 372.500 C 372.538 375.800, 373.997 379.218, 373.998 380.095 C 373.999 380.972, 374.838 382.448, 375.861 383.375 C 377.877 385.198, 380.478 390.762, 381.485 395.402 C 382.298 399.149, 386.707 403.220, 393.608 406.597 C 398.836 409.155, 399.599 409.254, 409.302 408.640 C 414.911 408.286, 426.250 407.734, 434.500 407.415 C 451.387 406.762, 466.145 404.135, 473.045 400.554 C 475.545 399.257, 480.270 397.871, 483.545 397.475 C 491.545 396.507, 497.328 394.499, 504.402 390.231 C 510.271 386.691, 514.767 383.058, 528.787 370.531 L 533.074 366.700 546.287 366.561 C 558.923 366.427, 559.679 366.301, 563.605 363.674 C 565.863 362.162, 570.186 358.124, 573.212 354.699 C 578.852 348.314, 587 334.293, 587 330.972 C 587 329.950, 587.851 328.517, 588.892 327.788 C 590.985 326.322, 594.675 310.699, 595.467 299.950 C 595.713 296.611, 596.454 292.386, 597.114 290.560 C 599.421 284.182, 593.438 256.382, 588.352 249.839 C 587.779 249.103, 587.030 247.713, 586.687 246.750 C 586.344 245.787, 585.461 245, 584.725 245 C 583.176 245, 564.402 237.816, 558.500 234.964 C 556.300 233.902, 550.675 230.349, 546 227.070 C 534.595 219.070, 524.907 213.401, 519.204 211.388 C 513.918 209.523, 500.457 208.708, 494.719 209.906" stroke="#dd8a8a" fill="#dd8a8a" fill-opacity="0.2" fill-rule="evenodd"/><path class="svg-region-SF" d="M 588.212 328.188 C 587.546 328.854, 587 330.374, 587 331.565 C 587 332.756, 586.096 334.879, 584.991 336.284 C 583.886 337.689, 582.709 340.207, 582.374 341.880 C 582.039 343.553, 579.805 347.077, 577.408 349.711 C 569.726 358.152, 557.970 373.428, 557.367 375.750 C 557.046 376.988, 556.479 378, 556.107 378 C 554.483 378, 551.763 384.610, 550.911 390.625 C 550.159 395.932, 550.284 397.796, 551.570 400.505 C 553.552 404.684, 558.266 407, 564.786 407 C 571.119 407, 574.984 408.637, 578.490 412.805 C 580.019 414.623, 581.822 415.898, 582.496 415.640 C 583.171 415.381, 586.323 416.481, 589.502 418.085 C 596.486 421.607, 598.007 421.686, 600.836 418.674 C 602.834 416.548, 603.028 415.266, 603.104 403.730 C 603.150 396.790, 602.943 390.717, 602.646 390.236 C 602.348 389.754, 601.613 384.442, 601.013 378.430 C 600.412 372.419, 599.038 364.125, 597.960 360 C 596.881 355.875, 595.345 348.225, 594.547 343 C 592.270 328.102, 591.080 325.320, 588.212 328.188" stroke="#8c6b55" fill="#8c6b55" fill-opacity="0.2" fill-rule="evenodd"/><path class="svg-region-AAB" d="M 622.379 532.777 C 620.663 534.275, 619.010 536.234, 618.706 537.132 C 617.924 539.440, 608.969 541.386, 602.858 540.575 C 600.115 540.212, 595.425 538.795, 592.434 537.427 C 589.443 536.059, 585.342 534.841, 583.321 534.720 C 580.040 534.524, 579.359 534.931, 576.989 538.500 C 571.922 546.131, 570.479 553.004, 570.699 568.444 C 570.892 581.960, 570.995 582.575, 574.051 588.444 C 577.941 595.915, 579.496 597.700, 584.210 600.106 C 588.429 602.259, 598.015 602.622, 604.500 600.874 C 606.700 600.281, 610.300 599.568, 612.500 599.290 C 616.192 598.823, 621.669 595.591, 627.394 590.500 C 629.826 588.337, 633.890 579.628, 636.360 571.285 C 638.659 563.515, 637.531 535.945, 634.770 532.435 C 632.059 528.988, 626.547 529.140, 622.379 532.777" stroke="#7f3c1a" fill="#7f3c1a" fill-opacity="0.2" fill-rule="evenodd"/><path class="svg-region-APB" d="M 585.972 450.750 C 583.077 453.352, 582.976 453.689, 584.101 457 C 585.367 460.726, 586.815 463, 587.922 463 C 589.137 463, 591 456.453, 591 452.179 C 591 447.276, 590.117 447.025, 585.972 450.750" stroke="#ac7444" fill="#ac7444" fill-opacity="0.2" fill-rule="evenodd"/><path class="svg-region-PC" d="M 549 504.907 C 549 507.194, 549.675 510.680, 550.500 512.654 C 551.325 514.629, 552 518.734, 552 521.777 C 552 526.977, 551.747 527.550, 547.787 531.317 C 545.470 533.521, 542.560 537.514, 541.321 540.190 C 538.775 545.684, 533.096 552.955, 531.329 552.982 C 529.439 553.011, 529.079 557.626, 529.811 572.444 L 530.500 586.388 536 590.851 C 539.025 593.306, 543.892 598.618, 546.816 602.657 C 552.069 609.914, 552.969 610.698, 554.397 609.269 C 554.799 608.867, 558.175 608.679, 561.899 608.851 C 569.840 609.218, 574.776 607.522, 579.036 602.962 L 581.904 599.891 578.594 595.556 C 571.700 586.523, 570.946 583.786, 570.970 567.881 C 570.982 559.971, 571.052 550.697, 571.126 547.272 C 571.262 541.004, 570.496 538.024, 566.767 530.303 C 564.822 526.275, 564.808 525.937, 566.427 521.890 C 567.355 519.571, 569.663 514.755, 571.557 511.186 C 573.451 507.618, 575 504.305, 575 503.824 C 575 503.342, 573.672 503.635, 572.050 504.474 C 570.427 505.313, 567.502 506, 565.550 506 C 562.667 506, 562 505.624, 562 504 C 562 502.395, 561.333 502, 558.625 502 C 556.769 502, 553.844 501.719, 552.125 501.375 C 549.026 500.755, 549 500.784, 549 504.907" stroke="#cda789" fill="#cda789" fill-opacity="0.2" fill-rule="evenodd"/><path class="svg-region-DB" d="M 562 364.333 C 558.915 366.243, 556.995 366.510, 545.820 366.584 L 533.140 366.669 523.007 375.584 C 505.520 390.971, 497.982 395.282, 485.322 397.137 C 481.020 397.768, 475.475 399.333, 473 400.614 C 467.004 403.720, 450.613 407.002, 441.140 406.994 C 436.938 406.990, 425.827 407.523, 416.449 408.179 C 399.544 409.361, 399.357 409.351, 394.678 407.086 C 392.083 405.830, 389.353 405.034, 388.612 405.319 C 387.610 405.703, 387.087 409.650, 386.574 420.668 C 385.603 441.560, 386.903 448.744, 393.780 460.500 C 396.293 464.796, 403.704 480.683, 404.296 483.045 C 404.641 484.417, 405.858 486.543, 407 487.770 C 408.927 489.838, 409.953 490, 421.089 490 C 429.080 490, 434.003 490.446, 435.800 491.333 C 437.285 492.066, 441.200 493.236, 444.500 493.932 C 447.800 494.628, 452.197 495.900, 454.271 496.760 C 457.241 497.991, 458.781 498.096, 461.519 497.256 C 463.574 496.625, 469.067 496.413, 474.952 496.737 C 480.813 497.060, 486.675 496.836, 489.204 496.192 C 491.567 495.590, 495.864 494.540, 498.754 493.859 C 502.269 493.030, 504.861 491.662, 506.585 489.727 C 509.005 487.012, 509.479 486.878, 514.331 487.544 C 517.174 487.934, 520.585 489.105, 521.910 490.146 C 523.236 491.188, 527.373 492.967, 531.104 494.100 C 534.836 495.234, 538.419 496.800, 539.067 497.581 C 539.750 498.403, 542.050 499, 544.539 499 C 546.901 499, 548.998 499.494, 549.199 500.098 C 549.761 501.783, 563 502.616, 563 500.967 C 563 500.248, 564.430 496.557, 566.178 492.766 C 569.282 486.031, 569.316 485.804, 567.639 482.967 C 565.945 480.098, 565.961 480.022, 568.962 476.883 C 571.231 474.508, 572 472.763, 572 469.985 C 572 465.733, 575.580 456.110, 577.854 454.250 C 579.208 453.142, 579.162 452.839, 577.448 451.585 C 576.383 450.807, 573.852 449.673, 571.822 449.065 C 568.392 448.037, 566.493 446.459, 560.919 440 C 557.946 436.555, 555.557 430.746, 553.631 422.274 C 551.701 413.790, 551.587 410, 553.159 406.551 C 554.126 404.428, 554.014 403.673, 552.480 401.978 C 551.045 400.392, 550.683 398.527, 550.823 393.440 C 551.018 386.342, 552.230 383.099, 557.521 375.511 C 559.434 372.768, 561 369.955, 561 369.261 C 561 368.568, 561.365 368, 561.812 368 C 562.259 368, 563.622 366.650, 564.842 365 C 567.431 361.498, 566.813 361.353, 562 364.333" stroke="#e8b1e4" fill="#e8b1e4" fill-opacity="0.2" fill-rule="evenodd"/><path class="svg-region-IBr" d="M 519.054 553.728 C 518.259 554.041, 514.826 557.043, 511.424 560.399 C 504.055 567.669, 502.538 571.489, 501.570 585.209 C 500.832 595.669, 501.128 596.827, 505.860 602.008 C 507.606 603.919, 509.180 607.227, 509.921 610.540 C 510.970 615.224, 511.896 616.623, 516.816 620.961 C 519.942 623.717, 523.464 625.978, 524.642 625.986 C 526.007 625.995, 527.006 626.816, 527.399 628.250 C 527.737 629.487, 528.679 631.364, 529.492 632.420 C 530.936 634.297, 531.091 634.280, 536.474 631.644 C 540.983 629.436, 542.969 627.552, 547.457 621.224 C 550.471 616.976, 552.951 612.911, 552.968 612.190 C 552.986 611.470, 551.439 608.770, 549.532 606.190 C 547.625 603.611, 544.631 599.567, 542.880 597.204 C 541.128 594.841, 538.751 592.412, 537.598 591.806 C 536.444 591.200, 534.334 589.500, 532.909 588.027 C 530.413 585.449, 530.295 584.784, 529.728 570.027 C 529.303 558.952, 528.773 554.472, 527.820 553.867 C 526.346 552.933, 521.276 552.852, 519.054 553.728" stroke="#b10e0e" fill="#b10e0e" fill-opacity="0.2" fill-rule="evenodd"/><path class="svg-region-MB" d="M 506.194 489.849 C 501.927 494.363, 487.411 497.497, 474.379 496.720 C 468.760 496.385, 463.644 496.603, 461.466 497.272 C 458.533 498.172, 457.265 498.077, 454.679 496.763 C 452.931 495.875, 450.150 494.917, 448.500 494.635 C 442.310 493.578, 437.436 492.316, 435.477 491.261 C 434.365 490.663, 427.726 490.021, 420.726 489.836 L 407.997 489.500 407.999 497.250 C 408 504.876, 408.041 505, 410.532 505 C 411.925 505, 414.732 504.303, 416.770 503.452 C 420.619 501.843, 421.753 501.925, 440.437 505.149 C 449.779 506.762, 460.558 512.637, 467.471 519.884 C 473.649 526.361, 474.019 527.200, 478.531 545 C 479.352 548.240, 480.865 551.282, 482.213 552.403 C 485.075 554.784, 504.520 564, 506.682 564 C 507.561 564, 510.425 561.729, 513.045 558.953 C 518.268 553.418, 522.886 551.798, 527.065 554.035 C 528.784 554.955, 529.505 554.984, 529.786 554.143 C 529.995 553.515, 530.692 552.992, 531.333 552.982 C 533.639 552.946, 543 539.501, 543 536.226 C 543 535.757, 540.299 535.568, 536.998 535.807 C 530.014 536.312, 529.568 536.040, 524.008 527.894 C 520.193 522.306, 518.158 517.845, 515.846 510 C 515.278 508.075, 514.406 506.072, 513.907 505.550 C 512.680 504.265, 512.752 497.272, 514 496.500 C 515.843 495.361, 515.158 489.155, 513.066 488.035 C 510.146 486.473, 509.133 486.740, 506.194 489.849" stroke="#f9c6c6" fill="#f9c6c6" fill-opacity="0.2" fill-rule="evenodd"/><path class="svg-region-LBr" d="M 414.074 504.182 C 406.544 506.841, 406.005 507.842, 406.635 518 C 406.924 522.675, 407.308 529.103, 407.487 532.284 C 407.666 535.466, 408.266 538.616, 408.821 539.284 C 409.376 539.953, 410.825 543.377, 412.042 546.893 C 413.259 550.410, 415.295 554.820, 416.567 556.694 C 417.839 558.568, 419.377 562.666, 419.985 565.801 C 422.085 576.632, 423.637 579.355, 432.890 588.447 C 443.177 598.555, 442.995 598.420, 453.913 604.094 C 459.923 607.218, 463.147 609.613, 465.205 612.483 C 469.126 617.953, 477.884 626.847, 479.875 627.379 C 480.769 627.618, 482.698 628.080, 484.162 628.404 C 486.341 628.887, 486.946 629.723, 487.503 633.017 C 487.877 635.229, 488.833 637.690, 489.629 638.486 C 490.891 639.748, 490.807 640.457, 488.976 644.047 C 486.631 648.644, 487.009 653.427, 489.831 654.869 C 493.160 656.570, 498.833 656.907, 500.022 655.474 C 500.652 654.714, 503.492 653.415, 506.334 652.585 C 511.242 651.152, 525.234 641.816, 529.282 637.272 C 530.997 635.347, 530.978 635.100, 528.782 630.685 C 527.245 627.596, 525.847 626.078, 524.500 626.034 C 521.146 625.926, 511.383 616.059, 510.120 611.500 C 509.510 609.300, 509.009 606.985, 509.006 606.356 C 509.003 605.726, 507.601 603.714, 505.890 601.883 C 504.180 600.052, 502.369 597.469, 501.865 596.144 C 500.530 592.633, 501.940 576.392, 504.134 570.004 C 505.172 566.981, 505.679 564.370, 505.261 564.203 C 504.842 564.035, 499.341 561.333, 493.036 558.199 C 485.099 554.253, 481.198 551.731, 480.355 550 C 479.685 548.625, 477.868 542.687, 476.318 536.805 C 473.619 526.560, 473.253 525.850, 467.634 519.945 C 460.016 511.938, 449.734 506.533, 439.109 504.948 C 434.924 504.324, 429.613 503.406, 427.307 502.907 C 421.923 501.742, 420.631 501.867, 414.074 504.182" stroke="#d7b230" fill="#d7b230" fill-opacity="0.2" fill-rule="evenodd"/><path class="svg-region-LPr" d="M 620.201 595.713 C 618.386 597.153, 615.011 598.683, 612.701 599.111 C 610.390 599.540, 606.475 600.346, 604 600.902 C 596.978 602.480, 587.792 602.243, 585.186 600.417 C 583.024 598.903, 582.762 599.004, 579.138 602.739 C 574.577 607.438, 568.378 609.445, 560.454 608.788 L 554.875 608.325 552.815 612.413 C 549.088 619.810, 541.093 629.772, 538.025 630.841 C 536.422 631.400, 533.172 633.621, 530.805 635.776 C 521.668 644.093, 511.489 651.093, 506.364 652.583 C 500.398 654.317, 497.765 656.606, 500.064 658.060 C 500.854 658.559, 501.950 659.126, 502.500 659.320 C 503.115 659.537, 502.977 660.654, 502.140 662.225 C 501.186 664.018, 501 666.226, 501.517 669.639 C 501.922 672.313, 502.270 679.450, 502.291 685.500 C 502.335 698.651, 498.977 712.672, 493.363 722.773 C 490.113 728.619, 487.170 736.420, 485.542 743.500 C 485.162 745.150, 483.944 747.472, 482.835 748.661 C 480.015 751.683, 480.836 754.240, 485.019 755.470 C 486.946 756.037, 489.587 757.258, 490.889 758.184 C 492.191 759.110, 497.586 761.556, 502.878 763.618 C 508.170 765.681, 513.840 768.289, 515.478 769.415 C 519.388 772.101, 530.205 772.800, 536.210 770.753 C 541.540 768.938, 553.538 760.069, 557.309 755.158 C 560.284 751.285, 563.027 745.713, 566.003 737.500 C 573.062 718.015, 575.509 713.059, 581.554 706 C 587.250 699.348, 592.071 696.659, 602.102 694.537 C 611.829 692.480, 622.488 687.303, 627.161 682.367 C 631.858 677.406, 636.847 668.856, 638.723 662.552 C 639.643 659.460, 640.252 652.706, 640.348 644.552 C 640.478 633.410, 640.221 630.988, 638.591 628 C 636.668 624.472, 635.794 621.554, 633.990 612.629 C 632.791 606.695, 626.254 592.982, 624.656 593.047 C 624.020 593.073, 622.015 594.272, 620.201 595.713" stroke="#d2454f" fill="#d2454f" fill-opacity="0.2" fill-rule="evenodd"/><path class="svg-region-DMr" d="M 435.658 624.675 C 435.296 625.037, 435 626.309, 435 627.503 C 435 628.696, 433.406 631.717, 431.458 634.218 C 429.035 637.328, 427.663 640.369, 427.113 643.849 C 426.671 646.646, 425.189 650.637, 423.821 652.717 C 419.356 659.505, 418.162 664.664, 417.621 679.500 C 417.340 687.200, 416.635 695.072, 416.055 696.993 C 414.475 702.226, 414.744 716.320, 416.509 720.730 C 417.446 723.072, 417.919 726.964, 417.759 731 L 417.500 737.500 421.500 737.303 C 423.700 737.195, 426.730 737.052, 428.234 736.986 C 429.737 736.920, 433.593 738.265, 436.802 739.975 C 442.618 743.075, 448.536 745.068, 459.030 747.460 C 462.072 748.154, 465.987 749.459, 467.730 750.361 C 469.474 751.262, 472.078 752, 473.516 752 C 474.955 752, 476.938 752.432, 477.924 752.959 C 479.413 753.756, 480.248 753.098, 482.858 749.070 C 484.586 746.403, 486 743.482, 486 742.579 C 486 739.613, 490.122 728.616, 493.525 722.500 C 496.865 716.499, 500.368 705.351, 502.166 695 C 503.083 689.725, 502.826 680.554, 501.443 669.153 C 501.029 665.745, 501.194 663.406, 501.897 662.703 C 504.512 660.088, 501.574 657.586, 494 655.978 C 479.109 652.816, 475.032 650.573, 467.096 641.174 C 462.909 636.215, 460.140 634.030, 454.800 631.471 C 451.009 629.655, 447.307 627.669, 446.572 627.059 C 445.837 626.449, 443.877 626.054, 442.217 626.180 C 440.557 626.307, 438.550 625.872, 437.758 625.214 C 436.965 624.556, 436.020 624.313, 435.658 624.675" stroke="#68533d" fill="#68533d" fill-opacity="0.2" fill-rule="evenodd"/><path class="svg-region-PMr" d="M 297.806 696.027 C 291.547 697.082, 289.505 699.235, 285.912 708.564 C 282.913 716.354, 282.902 716.456, 284.626 720.280 C 285.583 722.402, 287.521 724.701, 288.933 725.388 C 291.355 726.569, 303.540 727.362, 319.704 727.392 C 326.225 727.404, 327.330 727.102, 331.367 724.203 C 333.820 722.441, 336.975 721, 338.378 721 C 341.172 721, 343.357 718.093, 342.412 715.632 C 342.093 714.801, 340.779 713.430, 339.492 712.587 C 338.205 711.743, 336.859 710.132, 336.502 709.006 C 335.759 706.667, 327.237 702, 323.708 702 C 322.410 702, 320.316 700.901, 319.054 699.557 C 317.700 698.116, 314.737 696.680, 311.830 696.057 C 306.350 694.882, 304.619 694.878, 297.806 696.027" stroke="#90cf92" fill="#90cf92" fill-opacity="0.2" fill-rule="evenodd"/><path class="svg-region-LPVr" d="M 379.991 583.516 C 378.840 585.667, 378.888 586.803, 380.322 591.354 C 381.245 594.281, 382 598.371, 382 600.443 C 382 603.972, 385.578 612.632, 388.427 616 C 390.398 618.330, 390.814 620.295, 389.872 622.829 C 389.054 625.029, 388.589 625.140, 381.458 624.829 L 373.911 624.500 374.205 629.938 C 374.487 635.141, 374.670 635.465, 378.429 637.438 C 386.871 641.868, 383.378 643.734, 364 645.147 C 353.987 645.878, 347.917 646.914, 340.500 649.158 C 329.402 652.516, 321.317 656.456, 320.514 658.898 C 319.875 660.845, 312.118 665.220, 303.666 668.401 C 295.970 671.298, 287.358 675.612, 286.501 676.999 C 286.148 677.569, 287.266 679.490, 288.985 681.268 C 293.077 685.500, 300 694.260, 300 695.207 C 300 695.616, 301.290 695.692, 302.867 695.377 C 307.466 694.457, 316.432 696.767, 319.041 699.543 C 320.310 700.894, 322.410 702, 323.708 702 C 326.580 702, 336 706.636, 336 708.050 C 336 708.609, 337.561 710.627, 339.468 712.535 C 343.778 716.844, 342.935 720.940, 337.729 720.985 C 334.360 721.014, 327.887 726.241, 326.296 730.217 C 325.451 732.330, 323.965 734.483, 322.995 735.003 C 322.024 735.522, 320.935 737.122, 320.575 738.559 C 320.214 739.995, 319.037 742.117, 317.960 743.274 C 315.529 745.882, 315.433 748.021, 317.750 747.934 C 325.184 747.654, 350.765 742.267, 354.726 740.146 C 355.934 739.500, 361.343 738.800, 366.747 738.590 C 372.152 738.380, 378.377 737.668, 380.582 737.007 C 384.462 735.844, 397.288 736.079, 411.112 737.566 L 416.725 738.169 417.414 731.176 C 417.936 725.874, 417.728 723.284, 416.552 720.469 C 414.635 715.881, 414.531 703.624, 416.345 695.921 C 417.067 692.853, 417.769 684.814, 417.904 678.057 C 418.186 664.004, 417.959 665.055, 422.995 654.500 C 427.974 644.064, 429.754 636.542, 427.799 634.196 C 427.021 633.263, 424.687 628.988, 422.611 624.695 C 419.496 618.253, 418.195 616.593, 415.168 615.195 C 413.151 614.263, 410.375 612.483, 409 611.239 C 407.625 609.995, 405.781 608.749, 404.902 608.470 C 403.010 607.868, 401 603.832, 401 600.634 C 401 596.953, 398.006 587.757, 395.667 584.257 C 393.621 581.194, 393.162 581.013, 387.419 581.007 C 381.942 581.001, 381.204 581.250, 379.991 583.516" stroke="#494949" fill="#494949" fill-opacity="0.2" fill-rule="evenodd"/><path class="svg-region-Fr" d="M 330.677 502.466 C 329.871 503.272, 328.217 506.084, 327.002 508.716 C 320.558 522.667, 318.595 525.015, 312 526.668 C 309.734 527.236, 304.467 529.513, 292.154 535.247 C 289.764 536.360, 285.799 539.010, 283.343 541.136 C 280.888 543.261, 278.510 545, 278.060 545 C 277.610 545, 273.475 548.879, 268.871 553.621 C 264.267 558.362, 259.226 563.527, 257.668 565.098 C 256.110 566.670, 253.185 571.047, 251.168 574.824 C 249.151 578.602, 245.759 584.714, 243.631 588.406 C 241.320 592.414, 238.593 599.426, 236.860 605.809 C 235.265 611.689, 233.349 618.750, 232.603 621.500 C 230.096 630.741, 229.683 641.773, 231.539 649.903 C 233.652 659.152, 235.744 664.252, 237.225 663.758 C 237.852 663.549, 239.303 660.670, 240.450 657.359 C 242.904 650.279, 246.541 645.583, 250.303 644.639 C 253.223 643.906, 253.922 641.568, 251.500 640.638 C 249.553 639.891, 249.455 634, 251.389 634 C 252.153 634, 253.841 633.106, 255.139 632.014 L 257.500 630.027 255.146 628.181 C 253.466 626.863, 252.638 624.971, 252.255 621.571 L 251.718 616.808 257.609 617.245 C 270.054 618.167, 283.048 625.646, 287.831 634.639 C 289.771 638.286, 299.293 646.363, 306.500 650.475 C 309.250 652.043, 311.725 653.636, 312 654.014 C 313.006 655.396, 316.932 657, 319.308 657 C 320.650 657, 323.717 655.921, 326.124 654.602 C 334.413 650.059, 349.585 646.152, 361.500 645.491 C 373.244 644.840, 381.639 643.393, 382.589 641.856 C 383.451 640.460, 381.109 638.073, 377.330 636.493 C 374.180 635.177, 374 634.829, 374 630.051 L 374 625 381.521 625 C 388.478 625, 389.124 624.821, 390.130 622.614 C 391.042 620.612, 390.756 619.474, 388.359 615.555 C 383.416 607.476, 382.796 605.917, 382.014 599.617 C 381.595 596.237, 380.120 590.553, 378.736 586.986 C 377.351 583.419, 375.685 577.575, 375.032 574 C 374.379 570.425, 372.980 566.012, 371.923 564.193 C 369.599 560.196, 369.516 557.496, 371.533 551.554 C 372.927 547.450, 372.915 546.516, 371.407 541.330 C 369.293 534.056, 368.206 532.279, 358.500 520.230 C 354.100 514.768, 350.033 509.495, 349.463 508.513 C 348.721 507.237, 347.200 506.727, 344.129 506.727 C 341.092 506.727, 339.655 506.254, 339.228 505.114 C 337.795 501.287, 333.260 499.883, 330.677 502.466" stroke="#5ca7a9" fill="#5ca7a9" fill-opacity="0.2" fill-rule="evenodd"/><path class="svg-region-PCr" d="M 252.247 621.499 C 252.526 623.974, 253.315 626.674, 254 627.499 C 255.766 629.628, 260.366 629.358, 262.500 627 C 266.421 622.668, 276 625.261, 276 630.654 C 276 632.819, 279.022 635.999, 283 638.021 C 284.375 638.720, 285.883 639.943, 286.352 640.740 C 287.375 642.478, 293.108 645, 296.036 645 C 297.746 645, 297.303 644.303, 293.651 641.250 C 291.184 639.188, 288.615 636.240, 287.941 634.701 C 286.043 630.361, 278.005 623.259, 273.010 621.506 C 270.530 620.636, 267.226 619.266, 265.669 618.462 C 264.112 617.658, 260.341 617, 257.289 617 L 251.740 617 252.247 621.499" stroke="#465ee0" fill="#465ee0" fill-opacity="0.2" fill-rule="evenodd"/><path class="svg-region-DV" d="M 282 679.007 C 280.625 679.473, 275.642 680.373, 270.927 681.006 L 262.354 682.156 258.044 687.558 C 254.700 691.748, 252.922 693.106, 250.117 693.613 C 244.899 694.557, 241.075 696.742, 239.819 699.497 C 238.889 701.539, 239.198 702.633, 241.888 706.826 C 243.872 709.918, 244.970 712.824, 244.834 714.627 C 244.716 716.207, 245.329 718.625, 246.198 720 C 247.066 721.375, 248.303 724.159, 248.945 726.187 C 250.316 730.513, 255.551 736, 258.308 736 C 259.368 736, 261.870 737.366, 263.868 739.035 C 265.866 740.704, 268.044 742.504, 268.708 743.035 C 269.372 743.566, 271.285 744, 272.958 744 C 276.446 744, 276.891 742.231, 274.538 737.721 L 273.089 734.943 277.794 735.561 C 282.248 736.145, 282.728 735.967, 286.750 732.243 C 291.484 727.859, 291.954 726.438, 288.983 725.495 C 284.763 724.155, 282.270 715.455, 284.972 711.500 C 285.348 710.950, 286.473 708.250, 287.472 705.500 C 289.700 699.366, 292.002 697.036, 296.569 696.295 C 298.497 695.982, 299.946 695.340, 299.788 694.868 C 299.327 693.494, 292.786 685.031, 289.350 681.363 C 285.980 677.765, 285.814 677.712, 282 679.007" stroke="#45567a" fill="#45567a" fill-opacity="0.2" fill-rule="evenodd"/><path class="svg-region-VV" d="M 288.934 729.698 C 287.016 731.789, 283.321 735.422, 280.723 737.771 C 278.125 740.119, 276 742.451, 276 742.951 C 276 743.451, 274.988 744.005, 273.750 744.180 C 271.868 744.448, 271.528 745.069, 271.672 747.978 C 271.934 753.263, 274.775 755, 283.160 755 C 287.186 755, 291.248 754.406, 292.834 753.586 C 294.338 752.808, 297.354 751.884, 299.535 751.533 C 311.683 749.575, 319.838 744.891, 319.959 739.801 C 319.982 738.866, 321.270 736.841, 322.823 735.301 C 324.376 733.760, 326.124 731.356, 326.707 729.959 L 327.767 727.417 313.634 727.243 C 305.860 727.147, 297.907 726.804, 295.961 726.482 C 292.801 725.958, 292.048 726.303, 288.934 729.698" stroke="#7699d1" fill="#7699d1" fill-opacity="0.2" fill-rule="evenodd"/><path class="svg-region-Or" d="M 718 167.920 C 710.318 168.534, 708.345 169.168, 697.500 174.505 C 677.502 184.347, 662.207 193.280, 655.500 199.037 C 654.400 199.981, 651.925 201.261, 650 201.880 C 645.968 203.178, 638.237 210.350, 632.625 217.998 C 628.262 223.945, 625.712 230.458, 624.013 240 C 623.376 243.575, 622.177 248.525, 621.347 251 C 620.518 253.475, 619.587 258.973, 619.279 263.217 C 618.690 271.334, 620.678 298.788, 621.980 300.500 C 622.729 301.486, 623.119 304.802, 625.037 326.500 C 625.572 332.550, 626.404 339.975, 626.886 343 C 627.369 346.025, 628.513 354.350, 629.428 361.500 C 630.344 368.650, 631.821 378.775, 632.709 384 C 633.598 389.225, 634.677 396.650, 635.106 400.500 C 636.313 411.305, 637.984 448.215, 637.377 450.636 C 637.079 451.822, 638.407 459.927, 640.329 468.646 C 642.251 477.366, 644.533 487.978, 645.401 492.229 C 646.800 499.084, 648.503 504.104, 656.012 523.500 C 657.077 526.250, 658.209 531.425, 658.528 535 C 658.939 539.608, 660.176 543.683, 662.775 549 C 664.792 553.125, 667.131 558.360, 667.971 560.634 C 669.658 565.196, 670.927 567.078, 679 576.993 C 682.025 580.708, 686.075 585.699, 688 588.083 C 696.232 598.279, 701.327 603.539, 706.056 606.724 C 708.829 608.591, 711.575 611.167, 712.159 612.449 C 713.300 614.953, 715.337 616.199, 721.250 618.008 C 723.313 618.639, 725 619.550, 725 620.033 C 725 620.516, 727.404 622.394, 730.342 624.205 C 733.280 626.017, 739.793 630.272, 744.815 633.661 C 756.293 641.404, 761.844 643.328, 771.326 642.848 C 777.223 642.550, 779.123 642.010, 782 639.818 C 783.925 638.351, 787.750 636.587, 790.500 635.898 C 793.250 635.208, 797.908 633.037, 800.851 631.072 C 803.793 629.108, 807.739 626.563, 809.618 625.418 C 814.070 622.707, 818.337 618.719, 824.500 611.515 C 827.250 608.299, 832.007 602.931, 835.070 599.584 C 841.503 592.557, 850 581.742, 850 580.582 C 850 580.145, 851.401 578.019, 853.113 575.857 C 854.825 573.696, 857.905 568.456, 859.957 564.213 C 862.009 559.971, 864.433 555.882, 865.344 555.128 C 866.255 554.373, 867 553.104, 867 552.308 C 867 551.512, 869.054 544.929, 871.565 537.680 C 875.904 525.154, 877.314 520.218, 883.902 494.500 C 888.164 477.861, 889.864 470.336, 891.468 461 C 892.272 456.325, 894.067 446.092, 895.458 438.260 C 898.878 419.001, 899.253 411.445, 898.151 384 C 896.936 353.754, 893.447 328.580, 888.613 315.195 C 881.238 294.773, 879.210 290, 875.784 285 C 873.712 281.975, 868.204 273.875, 863.544 267 C 855.225 254.725, 850.357 248.081, 841.466 236.869 C 839.009 233.772, 837 230.734, 837 230.119 C 837 229.503, 836.521 229, 835.935 229 C 834.927 229, 829.830 225.335, 815 213.948 C 811.425 211.202, 806.925 208.249, 805 207.385 C 803.075 206.521, 800.375 204.780, 799 203.517 C 797.625 202.253, 792.225 198.765, 787 195.766 C 781.775 192.767, 775.025 188.732, 772 186.800 C 768.975 184.868, 764.727 182.660, 762.559 181.894 C 760.392 181.127, 757.017 178.849, 755.059 176.832 C 752.573 174.269, 749.246 172.380, 744.025 170.564 C 735.344 167.545, 729.765 166.978, 718 167.920" stroke="#aa444d" fill="#aa444d" fill-opacity="0.2" fill-rule="evenodd"/><path class="svg-region-VOC" d="M 513.969 488.369 C 515.290 489.690, 515.313 495.689, 514 496.500 C 512.504 497.424, 512.794 503.377, 514.494 506.636 C 515.315 508.211, 515.990 510.230, 515.994 511.123 C 516.008 514.882, 523.932 529.347, 528.662 534.250 C 529.835 535.466, 531.902 536, 535.441 536 C 540.353 536, 543.684 534.720, 549.031 530.777 C 552.145 528.481, 552.926 519.493, 550.606 512.661 C 549.723 510.059, 549 505.921, 549 503.465 L 549 499 545.135 499 C 542.784 499, 540.274 498.216, 538.727 497 C 537.329 495.900, 535.473 495, 534.603 495 C 532.293 495, 523.046 491.343, 521.138 489.675 C 519.215 487.994, 512.341 486.741, 513.969 488.369" stroke="#ff8f93" fill="#ff8f93" fill-opacity="0.2" fill-rule="evenodd"/><path class="svg-region-OABr" d="M 600.649 432.267 C 599.696 432.964, 598.373 434.478, 597.708 435.631 C 592.926 443.932, 591.604 447.221, 590.928 452.500 C 590.506 455.800, 589.684 460.300, 589.102 462.500 C 588.520 464.700, 587.507 471.939, 586.852 478.587 C 585.468 492.626, 582.463 500.568, 577.675 502.841 C 575.560 503.844, 573.612 506.712, 569.925 514.252 C 567.216 519.791, 565 524.911, 565 525.631 C 565 526.350, 565.900 528.542, 567 530.500 C 568.100 532.458, 569 534.921, 569 535.971 C 569 537.022, 569.450 538.160, 570 538.500 C 570.550 538.840, 571 540.640, 571 542.500 C 571 547.829, 572.630 547.489, 575.327 541.597 C 579.148 533.250, 581.701 532.661, 592.686 537.588 C 599.606 540.692, 606.632 541.528, 612.991 540.002 C 616.639 539.127, 618.377 538.146, 618.960 536.634 C 621.005 531.321, 631.016 527.904, 634 531.500 C 634.685 532.325, 635.569 533, 635.965 533 C 636.362 533, 637.124 527.864, 637.659 521.586 C 638.531 511.354, 638.928 509.784, 641.490 506.424 L 644.349 502.676 640.657 491.588 C 638.626 485.490, 636.973 479.473, 636.982 478.218 C 637.016 473.851, 627.526 452.695, 623.681 448.564 C 621.665 446.398, 619.788 443.908, 619.509 443.030 C 619.231 442.151, 617.626 440.620, 615.945 439.626 C 614.263 438.633, 611.352 436.285, 609.477 434.410 C 605.856 430.789, 603.465 430.209, 600.649 432.267" stroke="#81244d" fill="#81244d" fill-opacity="0.2" fill-rule="evenodd"/><path class="svg-region-SOTr" d="M 577.293 454.250 C 575.063 457.178, 572 466.170, 572 469.787 C 572 472.780, 571.288 474.448, 568.980 476.863 C 566.021 479.960, 565.993 480.085, 567.572 483.139 C 569.090 486.074, 569.062 486.495, 567.101 490.378 C 564.673 495.186, 562 502.652, 562 504.626 C 562 506.638, 566.906 506.345, 574.392 503.888 C 580.570 501.860, 580.915 501.571, 583.036 496.638 C 585.170 491.673, 587.852 476.456, 587.952 468.746 C 587.978 466.682, 587.100 463.314, 586 461.261 C 584.900 459.209, 584 456.949, 584 456.240 C 584 455.531, 582.846 454.512, 581.435 453.975 C 578.247 452.763, 578.435 452.751, 577.293 454.250" stroke="#995b45" fill="#995b45" fill-opacity="0.2" fill-rule="evenodd"/><path class="svg-region-LBPCr" d="M 385 539.048 C 382.525 539.478, 378.544 540.158, 376.154 540.559 C 372.036 541.251, 371.837 541.437, 372.372 544.110 C 372.682 545.661, 372.275 548.802, 371.468 551.091 C 369.494 556.685, 369.620 560.235, 371.932 564.193 C 372.994 566.012, 374.499 570.902, 375.276 575.060 C 376.052 579.218, 377.123 583.397, 377.655 584.348 C 378.523 585.899, 378.760 585.816, 379.980 583.538 C 381.206 581.246, 381.929 581.001, 387.419 581.007 C 393.171 581.013, 393.621 581.192, 395.739 584.303 C 397.625 587.074, 399.385 592.866, 401.571 603.500 C 401.797 604.600, 402.324 605.950, 402.741 606.500 C 404.173 608.387, 411.529 613.716, 413.618 614.379 C 416.500 615.293, 420.134 619.602, 422.777 625.239 C 424 627.846, 425 630.256, 425 630.595 C 425 630.934, 426.078 632.493, 427.396 634.059 L 429.793 636.907 432.396 633.150 C 433.828 631.083, 435 628.479, 435 627.363 C 435 624.589, 436.034 623.783, 437.758 625.214 C 438.550 625.872, 440.557 626.307, 442.217 626.180 C 443.877 626.054, 445.782 626.404, 446.450 626.959 C 447.118 627.513, 450.849 629.560, 454.741 631.507 C 460.076 634.176, 463.132 636.595, 467.159 641.336 C 473.983 649.372, 478.472 652.544, 484.247 653.410 L 488.865 654.102 487.798 651.275 C 486.919 648.946, 487.119 647.687, 488.934 644.129 C 490.879 640.316, 490.967 639.616, 489.680 638.155 C 488.878 637.245, 487.891 634.925, 487.486 633 C 486.661 629.081, 485.555 628.038, 482.207 628.015 C 479.478 627.997, 471.335 620.677, 465.924 613.379 C 463.054 609.507, 460.342 607.335, 454.813 604.478 C 443.447 598.603, 440.808 596.689, 434.315 589.603 C 430.988 585.971, 427.789 583, 427.206 583 C 425.546 583, 421.185 573.029, 420.427 567.500 C 420.049 564.750, 419.063 561.150, 418.235 559.500 C 416.360 555.762, 404.053 544.086, 401.937 544.036 C 401.077 544.016, 399.081 542.650, 397.500 541 C 394.476 537.844, 393.142 537.635, 385 539.048" stroke="#daffff" fill="#daffff" fill-opacity="0.2" fill-rule="evenodd"/><path class="svg-region-PNr" d="M 262.468 627.035 C 261.455 628.155, 260.069 628.857, 259.389 628.596 C 258.708 628.334, 257.436 629.211, 256.563 630.544 C 255.689 631.878, 253.855 633.249, 252.487 633.593 C 250.547 634.079, 250 634.860, 250 637.140 C 250 638.816, 250.640 640.308, 251.500 640.638 C 253.991 641.594, 253.187 644.013, 250.179 644.614 C 248.627 644.925, 246.228 646.601, 244.847 648.339 C 242.215 651.653, 238 662.857, 238 666.539 C 238 667.722, 237.057 669.543, 235.905 670.586 C 233.997 672.313, 233.872 673.151, 234.506 679.991 C 235.288 688.438, 236.738 692.622, 239.843 695.388 C 241.392 696.768, 242.308 696.990, 243.245 696.212 C 243.950 695.627, 246.670 694.608, 249.289 693.949 C 253.162 692.974, 254.747 691.844, 257.776 687.899 C 261.753 682.719, 263.977 681.705, 274 680.497 C 281.026 679.650, 287 677.941, 287 676.777 C 287 675.822, 298.698 670.170, 305.500 667.838 C 309.961 666.308, 319.100 661.167, 320.235 659.548 C 321.470 657.785, 321.093 657, 319.010 657 C 317.916 657, 313.861 654.975, 310 652.500 C 306.139 650.025, 302.589 648, 302.112 648 C 301.635 648, 300.733 647.383, 300.108 646.630 C 299.482 645.876, 297.172 645.018, 294.974 644.723 C 292.660 644.413, 289.540 642.990, 287.564 641.344 C 285.687 639.780, 282.317 637.267, 280.075 635.760 C 277.238 633.852, 276 632.304, 276 630.664 C 276 627.232, 272.977 625, 268.326 625 C 265.557 625, 263.738 625.632, 262.468 627.035" stroke="#bbc0d1" fill="#bbc0d1" fill-opacity="0.2" fill-rule="evenodd"/><path class="svg-region-OVr" d="M 552.651 407.169 C 551.623 411.009, 551.909 415.710, 553.602 422.794 C 555.688 431.526, 558.545 437.777, 562.120 441.434 C 563.704 443.054, 565 444.682, 565 445.051 C 565 445.615, 569.249 447.913, 576 451.002 C 576.825 451.379, 578.471 452.291, 579.659 453.027 C 581.601 454.233, 582.181 454.048, 585.444 451.184 C 587.438 449.433, 589.616 447.989, 590.285 447.976 C 590.953 447.963, 592.521 445.826, 593.768 443.226 C 597.181 436.114, 598.687 433.749, 600.883 432.047 C 604.030 429.608, 604.459 425.854, 601.956 422.671 C 600.477 420.791, 599.217 420.114, 597.948 420.517 C 596.912 420.845, 593.630 419.938, 590.500 418.456 C 587.421 417, 584.294 415.719, 583.551 415.610 C 582.807 415.501, 580.365 413.756, 578.124 411.731 C 573.705 407.739, 572.526 407.328, 563.500 406.640 C 560.200 406.389, 556.549 405.881, 555.388 405.511 C 553.730 404.983, 553.141 405.340, 552.651 407.169" stroke="#593939" fill="#593939" fill-opacity="0.2" fill-rule="evenodd"/>
    </svg>