<svg xmlns="http://www.w3.org/2000/svg" width="1078" height="1151" viewBox="0 0 1078 1151" version="1.1">
    <path class="svg-region-V" d="M 498 223.218 C 489.623 225.136, 482.861 226.381, 472.500 227.913 C 454.845 230.524, 450.147 232.440, 436.316 242.668 C 432.351 245.601, 428.520 248.001, 427.803 248.003 C 427.086 248.005, 421.234 253.292, 414.797 259.753 C 406.558 268.023, 402.314 273.128, 400.462 277 C 399.015 280.025, 396.856 284.337, 395.665 286.583 C 393.019 291.574, 391.630 294.858, 389.144 302 C 388.092 305.025, 386.303 310.008, 385.168 313.073 C 382.565 320.110, 380.552 333.278, 380.593 343 C 380.638 353.731, 385.333 369.978, 390.463 377.157 C 396.562 385.692, 398.362 389.490, 398.135 393.342 C 397.690 400.874, 403.958 405.046, 407.530 399.595 C 408.913 397.484, 409.505 397.301, 412.376 398.093 C 415.515 398.960, 425.083 399.209, 451.906 399.121 C 463.316 399.084, 464.736 398.866, 469.578 396.416 L 474.843 393.752 477.856 395.897 C 481.758 398.676, 488.404 401, 492.448 401 C 495.813 401, 504.656 398.378, 506.707 396.771 C 507.423 396.211, 512.308 396.107, 518.707 396.516 C 534.484 397.524, 541.210 395.593, 552 386.957 C 554.475 384.976, 558.521 382.488, 560.991 381.428 C 566.890 378.895, 571.628 374.651, 574.201 369.595 C 575.347 367.343, 578.081 363.475, 580.277 361 C 585.697 354.890, 590.241 345.319, 588.907 342.825 C 588.357 341.799, 588.227 340.441, 588.618 339.808 C 589.459 338.448, 590.771 322.124, 591.632 302.316 C 592.126 290.947, 591.920 286.780, 590.596 281.316 C 588.588 273.027, 588.390 271.970, 587.470 264.603 C 586.593 257.590, 583.400 253.428, 576.284 250.028 C 563.418 243.880, 560.361 242.120, 554.174 237.299 C 550.503 234.438, 545.250 230.899, 542.500 229.435 C 539.750 227.970, 536.757 226.119, 535.849 225.320 C 531.064 221.114, 511.846 220.047, 498 223.218" stroke="#dd8a8a" fill="#dd8a8a" fill-opacity="0.2" fill-rule="evenodd"/><path class="svg-region-SF" d="M 579.951 361.283 C 577.999 363.602, 575.229 367.525, 573.796 370 C 570.529 375.643, 567.533 378.462, 562.623 380.513 C 557.407 382.692, 551.276 386.837, 550.579 388.656 C 549.706 390.929, 552.984 400.171, 555.709 403.123 C 557.041 404.566, 561.589 407.405, 565.815 409.433 C 570.042 411.460, 576.200 415.314, 579.500 417.996 C 584.427 422.001, 586.231 422.884, 589.589 422.936 C 593.032 422.990, 593.863 422.597, 594.839 420.453 C 595.478 419.052, 596 416.581, 596 414.962 C 596 413.130, 597.339 410.264, 599.542 407.378 L 603.083 402.738 602.429 394.119 C 601.687 384.357, 599.554 372.933, 597.864 369.684 C 597.240 368.483, 594.878 365.159, 592.615 362.297 C 587.340 355.628, 584.876 355.430, 579.951 361.283" stroke="#8c6b55" fill="#8c6b55" fill-opacity="0.2" fill-rule="evenodd"/><path class="svg-region-AAB" d="M 635.689 539.101 C 634.693 539.687, 633.311 539.950, 632.618 539.684 C 630.613 538.914, 621.162 541.715, 616.454 544.474 C 612.757 546.641, 610.931 547, 603.619 547 C 595.442 547, 591.235 546.028, 588 543.390 C 587.175 542.718, 585.313 542.398, 583.863 542.679 C 580.718 543.288, 574 548.594, 574 550.468 C 574 553.362, 567.568 566.710, 564.565 570.046 C 562.810 571.996, 560.752 575.821, 559.992 578.546 C 559.232 581.271, 558.026 584.625, 557.311 586 C 555.793 588.922, 555.597 595.811, 556.933 599.324 C 557.446 600.674, 559.293 603.403, 561.037 605.389 L 564.207 609 580.354 608.978 C 597.985 608.954, 600.096 608.452, 609.647 602.006 C 612.600 600.013, 615.347 598.999, 617.800 598.996 C 619.835 598.994, 622.973 598.094, 624.774 596.996 C 626.575 595.898, 628.630 595, 629.340 595 C 631.733 595, 635.368 586.718, 636.578 578.510 C 637.228 574.105, 638.524 568.025, 639.459 565 C 642.725 554.434, 642.432 538.841, 638.956 538.272 C 638.155 538.141, 636.685 538.514, 635.689 539.101" stroke="#7f3c1a" fill="#7f3c1a" fill-opacity="0.2" fill-rule="evenodd"/><path class="svg-region-PC" d="M 573.500 527.787 C 564.904 532.632, 557.792 535, 551.841 535 C 549.793 535, 547.840 535.450, 547.500 536 C 547.160 536.550, 545.795 537, 544.466 537 C 542.285 537, 542.145 537.250, 543.025 539.565 C 544.514 543.482, 544.195 551.276, 542.443 553.777 C 541.213 555.534, 541.169 556, 542.231 556 C 542.971 556, 545.106 557.278, 546.977 558.839 L 550.377 561.678 548.189 564.028 C 545.535 566.876, 545.536 566.614, 548.116 581.500 C 549.259 588.100, 550.428 594.987, 550.713 596.805 C 551.165 599.683, 551.572 600.071, 553.866 599.805 C 556.383 599.514, 556.485 599.270, 556.164 594.332 C 555.961 591.213, 556.419 587.843, 557.318 585.832 C 558.138 583.999, 559.532 580.266, 560.417 577.534 C 561.302 574.803, 563.334 571.203, 564.934 569.534 C 566.533 567.866, 569.479 562.450, 571.480 557.500 C 575.183 548.340, 579.504 543, 583.212 543 C 585.290 543, 585.476 541.269, 583.824 537.315 C 583.176 535.767, 582.389 531.975, 582.074 528.889 L 581.500 523.279 573.500 527.787" stroke="#cda789" fill="#cda789" fill-opacity="0.2" fill-rule="evenodd"/><path class="svg-region-DB" d="M 545.286 391.967 C 539.068 395.759, 530.436 397.274, 519.246 396.539 C 509.716 395.913, 508.540 396.047, 502.576 398.433 C 499.046 399.845, 494.605 401, 492.705 401 C 488.415 401, 481.841 398.735, 477.818 395.871 L 474.769 393.699 469.460 396.387 C 464.572 398.862, 463.174 399.079, 451.826 399.119 C 425.191 399.211, 415.515 398.960, 412.376 398.093 C 409.483 397.295, 408.916 397.480, 407.464 399.696 C 406.174 401.663, 405.188 402.108, 402.868 401.767 C 400.640 401.440, 400.046 401.677, 400.450 402.730 C 400.745 403.498, 399.864 405.778, 398.493 407.796 C 397.122 409.813, 396 411.853, 396 412.328 C 396 412.803, 395.118 414.430, 394.039 415.945 C 387.233 425.504, 387.504 447.039, 394.611 461.179 C 395.904 463.753, 397.421 466.142, 397.981 466.488 C 398.541 466.835, 399 467.907, 399 468.872 C 399 469.837, 400.317 471.888, 401.927 473.430 C 403.537 474.973, 405.390 477.645, 406.045 479.367 C 406.699 481.090, 407.857 483.918, 408.617 485.651 C 409.378 487.384, 410 490.822, 410 493.290 L 410 497.779 418.464 497.251 C 425.667 496.801, 427.343 497.003, 429.714 498.608 C 436.928 503.489, 436.183 503.485, 454.818 498.733 C 458.381 497.824, 460.129 497.947, 464.818 499.435 C 467.943 500.426, 471.805 501.634, 473.399 502.119 C 474.994 502.603, 478.671 503, 481.570 503 C 484.469 503, 493.482 504.125, 501.599 505.500 C 509.715 506.875, 517.564 508, 519.040 508 C 522.396 508, 530.744 503.538, 535.410 499.250 C 541.035 494.081, 542.906 494.947, 544.949 503.667 C 546.331 509.566, 548.218 511.690, 552.500 512.166 L 555.500 512.500 555.500 519.169 C 555.500 525.116, 555.139 526.351, 552.164 530.571 L 548.828 535.303 555.164 534.651 C 559.887 534.165, 563.791 532.824, 570.500 529.386 C 581.307 523.846, 581.846 523.372, 584.267 517.281 C 587.724 508.583, 588.291 504.041, 585.584 506.750 C 585.171 507.163, 583.859 507.599, 582.667 507.720 C 578.491 508.145, 576.463 508.738, 572 510.838 C 565.015 514.126, 560.437 513.729, 556.564 509.500 C 554.779 507.552, 552.392 506, 551.179 506 C 548.394 506, 548.284 502.880, 550.875 497.438 C 552.029 495.014, 553.221 488.887, 553.974 481.500 C 554.648 474.900, 555.822 467.202, 556.585 464.394 C 557.858 459.707, 558.382 459.094, 562.986 456.908 L 568 454.528 568 446.635 C 568 438.767, 567.984 438.718, 562.800 431.121 C 558.380 424.643, 557.539 422.661, 557.191 417.908 C 556.822 412.863, 557.031 412.121, 559.326 410.315 L 561.870 408.315 557.519 404.678 C 554.620 402.254, 552.954 399.949, 552.526 397.770 C 551.812 394.136, 549.977 389.998, 549.081 390.004 C 548.761 390.006, 547.054 390.889, 545.286 391.967" stroke="#e8b1e4" fill="#e8b1e4" fill-opacity="0.2" fill-rule="evenodd"/><path class="svg-region-IBr" d="M 516 547.752 C 513.845 548.828, 511.539 551.229, 510 554 C 508.625 556.475, 506.041 559.924, 504.258 561.665 L 501.017 564.829 501.404 584.665 C 501.617 595.574, 502.095 605.243, 502.465 606.152 C 502.836 607.061, 505.328 609.650, 508.003 611.906 C 510.679 614.162, 513.158 617.018, 513.513 618.254 C 514.484 621.629, 517.019 627, 517.643 627 C 518.751 627, 524.635 622.476, 529.500 617.883 C 532.250 615.287, 537.087 611.046, 540.250 608.459 C 543.413 605.872, 546 603.432, 546 603.038 C 546 602.644, 547.171 601.787, 548.603 601.135 C 551.602 599.769, 551.616 600.267, 548.031 580.112 L 545.827 567.725 548.068 564.695 L 550.308 561.664 547.138 558.832 C 545.395 557.274, 543.180 556, 542.216 556 C 541.252 556, 538.299 554.211, 535.654 552.025 C 528.431 546.057, 522.134 544.687, 516 547.752" stroke="#b10e0e" fill="#b10e0e" fill-opacity="0.2" fill-rule="evenodd"/><path class="svg-region-MB" d="M 453 498.721 C 451.625 498.968, 450.072 499.581, 449.550 500.085 C 449.028 500.588, 447.903 501.003, 447.050 501.006 C 444.084 501.016, 438 503.101, 438 504.106 C 438 504.662, 439.787 507.024, 441.972 509.355 C 446.697 514.397, 458.410 529.959, 460.454 533.910 C 461.248 535.446, 463.418 538.007, 465.275 539.602 C 470.228 543.852, 476.128 548.427, 477.394 549 C 478.003 549.275, 479.755 550.350, 481.288 551.390 C 482.821 552.429, 488.648 554.116, 494.236 555.138 C 499.824 556.160, 504.847 557.447, 505.398 557.998 C 507.072 559.672, 507.908 559.156, 509.432 555.510 C 513.982 544.619, 524.956 543.168, 535.658 552.043 L 540.500 556.058 542.250 553.918 C 545.055 550.488, 544.398 538, 541.412 538 C 538.228 538, 529.419 533.174, 528.107 530.710 C 527.340 529.272, 525.540 527.687, 524.107 527.186 C 521.557 526.297, 521.500 526.079, 521.500 517.241 L 521.500 508.206 515.500 507.544 C 512.200 507.181, 505.675 506.181, 501 505.323 C 496.325 504.465, 488.225 503.405, 483 502.967 C 473.609 502.180, 469.165 501.294, 463.685 499.118 C 460.866 497.999, 457.685 497.880, 453 498.721" stroke="#f9c6c6" fill="#f9c6c6" fill-opacity="0.2" fill-rule="evenodd"/><path class="svg-region-LBr" d="M 412.750 497.689 C 411.433 498.033, 411 499.188, 411 502.351 C 411 504.663, 410.285 507.576, 409.410 508.825 C 407.567 511.456, 407.865 517.669, 410.330 528.051 C 411.186 531.653, 411.866 536.153, 411.841 538.051 C 411.742 545.746, 416.364 564.334, 419.150 567.450 C 419.618 567.972, 420 569.426, 420 570.681 C 420 572.344, 420.745 573.139, 422.750 573.615 C 426.415 574.486, 428.453 576.381, 431.653 581.897 C 434.718 587.177, 451.330 603.921, 457.149 607.594 C 459.302 608.953, 461.792 611.594, 462.683 613.462 C 463.582 615.346, 465.300 617.109, 466.541 617.421 C 467.835 617.746, 469.042 619.033, 469.404 620.473 C 470.338 624.195, 475.849 630, 478.449 630 C 482.814 630, 485.574 635.449, 482.500 638 C 480.660 639.527, 480.556 641, 482.288 641 C 482.996 641, 485.130 642.298, 487.030 643.884 L 490.484 646.767 496.337 641.348 C 499.556 638.368, 505.410 634.313, 509.345 632.337 C 513.280 630.362, 516.755 628.347, 517.067 627.860 C 518.250 626.013, 511.854 614.977, 507.483 611.324 C 505.059 609.298, 502.796 606.933, 502.454 606.070 C 502.112 605.206, 501.642 595.620, 501.409 584.766 L 500.985 565.031 503.993 562.157 C 505.647 560.577, 507 559.030, 507 558.719 C 507 557.837, 501.202 556.261, 493 554.912 C 484.888 553.579, 477.419 549.693, 469.671 542.777 C 467.377 540.729, 465.160 539.041, 464.743 539.027 C 464.327 539.012, 462.016 535.962, 459.607 532.250 C 455.546 525.991, 452.690 522.231, 441.142 507.940 C 434.913 500.232, 428.776 496.969, 420.785 497.116 C 417.328 497.180, 413.712 497.438, 412.750 497.689" stroke="#d7b230" fill="#d7b230" fill-opacity="0.2" fill-rule="evenodd"/><path class="svg-region-LPr" d="M 624.500 597.068 C 622.796 598.159, 619.729 598.992, 617.400 598.995 C 614.403 598.999, 612.143 599.838, 608.996 602.118 C 600.298 608.419, 598.062 608.954, 580.328 608.978 L 564.156 609 560.578 604.820 C 558.610 602.521, 557 600.342, 557 599.979 C 557 598.734, 547.670 600.731, 546.584 602.208 C 545.988 603.019, 543.250 605.611, 540.500 607.968 C 537.750 610.326, 532.731 614.785, 529.347 617.877 C 521.505 625.044, 515.908 629.071, 509 632.517 C 502.996 635.513, 496.755 640.086, 493.329 644 L 491.141 646.500 493.713 649.204 C 497.958 653.666, 498.843 659.458, 498.340 679.500 C 497.772 702.144, 496.032 710.247, 489.389 721.183 C 486.319 726.236, 485.810 728.066, 485.086 736.644 C 484.313 745.808, 484.085 746.535, 481.152 749.155 C 477.178 752.707, 477.777 754.259, 484.690 758.316 C 494.295 763.953, 495.396 764.364, 502 764.779 C 523.098 766.105, 527.875 764.717, 537.750 754.395 C 541.188 750.802, 544 747.543, 544 747.154 C 544 746.764, 545.388 744.926, 547.086 743.067 C 551.275 738.480, 553.713 734.479, 561.952 718.661 C 565.828 711.220, 569 704.066, 569 702.764 C 569 701.311, 570.738 698.609, 573.500 695.767 L 577.999 691.138 593.750 690.819 C 608.633 690.518, 609.820 690.345, 615.312 687.691 C 621.906 684.505, 627.074 678.266, 628.156 672.186 C 628.517 670.159, 629.513 665.800, 630.370 662.500 C 632.525 654.206, 632.514 637.885, 630.351 633.326 C 628.802 630.063, 628.812 629.625, 630.509 626.175 C 631.824 623.503, 632.443 619.334, 632.777 610.904 C 633.399 595.182, 631.749 592.424, 624.500 597.068" stroke="#d2454f" fill="#d2454f" fill-opacity="0.2" fill-rule="evenodd"/><path class="svg-region-DMr" d="M 383.663 606.294 C 382.126 608.663, 381 611.817, 381 613.750 C 381 617.651, 383.255 622.500, 385.463 623.347 C 386.540 623.761, 387 625.326, 387 628.579 C 387 631.779, 387.917 634.971, 389.952 638.860 C 391.576 641.962, 393.345 646.750, 393.884 649.500 C 394.422 652.250, 396.244 658.547, 397.932 663.493 C 400.843 672.025, 401.002 673.308, 401.044 688.493 C 401.068 697.297, 401.533 706.525, 402.078 709 C 402.623 711.475, 403.412 716.291, 403.831 719.702 C 404.487 725.035, 405.105 726.400, 408.247 729.452 C 411.551 732.660, 412.438 733, 417.509 733 C 420.994 733, 422.884 732.621, 422.500 732 C 422.134 731.408, 423.279 731, 425.309 731 C 427.712 731, 430.751 732.352, 435.485 735.526 C 439.197 738.016, 444.769 741.194, 447.867 742.588 C 450.965 743.983, 454.293 745.553, 455.262 746.078 C 458.531 747.848, 472.478 751.974, 475.234 751.987 C 476.830 751.995, 479.274 750.834, 481.104 749.199 C 484.045 746.571, 484.294 745.798, 485.127 736.740 C 485.892 728.416, 486.492 726.268, 489.470 721.187 C 496.079 709.910, 497.758 702.090, 498.394 679.612 C 499.078 655.466, 498.546 653.319, 490.160 646.402 C 486.625 643.486, 482.537 640.838, 481.077 640.517 C 479.616 640.196, 473.264 636.993, 466.960 633.399 C 438.776 617.328, 431.489 614.778, 424.364 618.494 C 418.292 621.661, 413.760 620.079, 410.175 613.543 C 408.704 610.860, 405.827 607.323, 403.783 605.684 C 400.582 603.118, 399.111 602.668, 393.196 602.446 L 386.325 602.187 383.663 606.294" stroke="#68533d" fill="#68533d" fill-opacity="0.2" fill-rule="evenodd"/><path class="svg-region-PMr" d="M 310 683.017 C 306.975 684.049, 301.425 685.414, 297.666 686.051 C 292.545 686.919, 289.984 687.953, 287.452 690.176 C 284.085 693.133, 278 703.133, 278 705.711 C 278 706.456, 279.147 709.329, 280.548 712.095 C 283.454 717.829, 283.189 719.827, 278.865 724.785 C 277.289 726.591, 276 728.493, 276 729.010 C 276 729.527, 274.724 729.695, 273.164 729.383 C 271.227 728.995, 269.783 729.360, 268.610 730.533 C 266.986 732.157, 267.005 732.356, 268.946 734.164 C 270.076 735.217, 271 736.399, 271 736.791 C 271 737.183, 273.120 738.628, 275.711 740.002 C 279.523 742.023, 281.859 742.502, 287.961 742.512 C 292.731 742.520, 295.867 742.073, 296.500 741.295 C 297.074 740.590, 301.122 739.831, 306 739.515 C 319.018 738.673, 323.209 738, 326.787 736.178 C 331.060 734.003, 330.712 731.292, 325.750 728.087 C 323.688 726.755, 322 725.070, 322 724.343 C 322 723.615, 324.475 721.377, 327.500 719.369 C 333.586 715.327, 334.257 713.253, 331.562 706.802 C 330.250 703.663, 330.294 703.102, 332.055 700.430 C 334.560 696.630, 334.510 693.772, 331.898 691.407 C 330.741 690.361, 329.184 688.322, 328.436 686.876 C 327.088 684.270, 320.645 680.932, 317.230 681.070 C 316.278 681.109, 313.025 681.985, 310 683.017" stroke="#90cf92" fill="#90cf92" fill-opacity="0.2" fill-rule="evenodd"/><path class="svg-region-LPVr" d="M 378.618 612.552 C 378.291 613.406, 374.868 615.498, 371.011 617.201 C 367.155 618.904, 364 620.829, 364 621.478 C 364 622.127, 361.704 623.734, 358.898 625.048 C 356.091 626.362, 352.404 628.464, 350.703 629.719 C 349.003 630.974, 346.565 632, 345.286 632 C 344.007 632, 341.227 633.094, 339.108 634.432 C 336.989 635.770, 332.695 637.944, 329.565 639.264 C 326.435 640.584, 322.997 642.414, 321.926 643.332 C 320.854 644.249, 319.574 645, 319.082 645 C 318.590 645, 316.586 647.229, 314.628 649.954 C 312.671 652.679, 309.928 655.656, 308.534 656.569 C 307.140 657.483, 306 658.827, 306 659.556 C 306 660.285, 303.315 663.246, 300.033 666.135 C 293.437 671.940, 292.412 673.586, 294.114 675.637 C 294.745 676.398, 296.286 678.928, 297.538 681.260 C 300.045 685.928, 300.806 686.074, 308.785 683.424 C 317.394 680.563, 326.574 682.574, 328.976 687.846 C 329.619 689.258, 331.058 691.053, 332.172 691.833 C 333.748 692.937, 334.063 693.934, 333.588 696.311 C 333.251 697.993, 332.280 700.138, 331.430 701.077 C 330.035 702.619, 330.036 703.150, 331.442 706.515 C 332.299 708.566, 333 711.756, 333 713.603 C 333 717.460, 333.601 717.711, 344.070 718.240 C 348.875 718.483, 351.359 719.137, 353.315 720.676 L 355.989 722.779 352.495 723.435 C 348.297 724.223, 348.001 725.671, 351.750 727.091 C 353.262 727.664, 355.505 729.075, 356.733 730.225 C 358.906 732.261, 359.080 732.271, 363.233 730.607 C 365.580 729.666, 371.325 728.646, 376 728.340 C 384.312 727.796, 384.593 727.852, 388.715 730.872 L 392.929 733.961 400.965 732.825 C 405.384 732.200, 409 731.309, 409 730.844 C 409 730.380, 408.035 729.035, 406.856 727.856 C 405.397 726.397, 404.462 723.760, 403.929 719.606 C 403.498 716.248, 402.672 711.338, 402.093 708.696 C 401.514 706.055, 401.060 696.811, 401.085 688.154 C 401.128 672.791, 401.046 672.167, 397.644 661.958 C 395.727 656.206, 393.832 649.700, 393.432 647.500 C 393.033 645.300, 391.422 641.214, 389.853 638.419 C 387.857 634.865, 387 631.946, 387 628.704 C 387 625.180, 386.546 623.828, 385.105 623.056 C 383.050 621.956, 381 617.110, 381 613.351 C 381 610.696, 379.521 610.200, 378.618 612.552" stroke="#494949" fill="#494949" fill-opacity="0.2" fill-rule="evenodd"/><path class="svg-region-Fr" d="M 322 501.274 C 320.075 502.433, 315.575 505.784, 312 508.719 C 308.425 511.655, 303.833 514.505, 301.795 515.055 C 299.757 515.604, 297.320 516.828, 296.380 517.776 C 293.730 520.447, 286.069 525.540, 280 528.667 C 276.975 530.225, 274.275 531.749, 274 532.053 C 273.725 532.357, 271.925 533.570, 270 534.748 C 263.231 538.891, 246.924 557.280, 242.795 565.429 C 241.660 567.668, 239.469 571.300, 237.925 573.500 C 233.299 580.092, 228.024 597.333, 225.111 615.379 C 222.689 630.387, 221.793 642, 223.058 642 C 223.576 642, 224 641.315, 224 640.477 C 224 639.640, 225.307 635.702, 226.904 631.727 C 228.501 627.752, 230.349 623.054, 231.011 621.286 C 232.463 617.404, 239.184 612.838, 247.580 610.029 C 256.021 607.206, 259.054 607.403, 262.500 611 C 264.716 613.314, 266.253 614, 269.214 614 C 273.302 614, 284.677 619.266, 291 624.086 C 293.271 625.818, 296.431 627.014, 300 627.495 C 310.073 628.850, 314.587 632.591, 313.742 638.885 C 313.443 641.118, 313.687 643.287, 314.308 643.908 C 315.921 645.521, 319.703 645.235, 321.926 643.332 C 322.997 642.414, 326.470 640.569, 329.643 639.231 C 335.494 636.763, 345.165 630.978, 347.735 628.408 C 348.509 627.633, 349.570 627, 350.091 627 C 350.613 627, 352.718 625.967, 354.770 624.705 C 356.821 623.443, 361.650 621.138, 365.500 619.582 C 369.350 618.026, 373.743 616.247, 375.262 615.627 C 376.781 615.008, 378.274 613.714, 378.579 612.751 C 378.885 611.788, 379.508 611, 379.963 611 C 380.419 611, 382.213 608.784, 383.951 606.076 L 387.111 601.152 384.555 596.109 C 383.150 593.336, 382 590.358, 382 589.493 C 382 587.770, 379.568 584.056, 373.651 576.743 C 371.534 574.127, 367.903 568.277, 365.582 563.743 C 363.260 559.209, 360.874 554.600, 360.278 553.500 C 359.682 552.400, 358.694 548.575, 358.081 545 C 355.118 527.704, 352.635 519.410, 349.998 517.999 C 348.933 517.429, 346.923 515.018, 345.530 512.641 C 341.234 505.310, 332.852 498.901, 327.800 499.083 C 326.535 499.128, 323.925 500.114, 322 501.274" stroke="#5ca7a9" fill="#5ca7a9" fill-opacity="0.2" fill-rule="evenodd"/><path class="svg-region-PCr" d="M 259.015 610.750 C 259.037 613.261, 259.828 614.148, 266.222 618.831 C 271.805 622.920, 272.182 623.035, 281.722 623.585 C 290.713 624.103, 291.339 624.023, 289.500 622.588 C 285.217 619.244, 272.415 613.708, 269.356 613.876 C 267.269 613.990, 265.201 613.199, 263.211 611.524 C 259.661 608.537, 258.995 608.414, 259.015 610.750 M 356.881 623.394 C 353.790 625.257, 350.362 627.068, 349.262 627.417 C 348.163 627.766, 346.460 628.940, 345.477 630.026 C 343.757 631.926, 343.762 632, 345.595 631.993 C 346.643 631.990, 348.850 631.072, 350.500 629.953 C 352.150 628.834, 355.863 626.779, 358.750 625.387 C 361.637 623.994, 364 622.212, 364 621.427 C 364 619.375, 363.160 619.607, 356.881 623.394" stroke="#465ee0" fill="#465ee0" fill-opacity="0.2" fill-rule="evenodd"/><path class="svg-region-DV" d="M 279.500 673.910 C 276.750 674.924, 272.214 676.643, 269.420 677.729 C 266.626 678.815, 261.451 680.025, 257.920 680.417 C 251.141 681.172, 247 683.093, 247 685.485 C 247 687.123, 238.704 696, 237.172 696 C 236.619 696, 236.997 697.688, 238.012 699.750 C 239.027 701.813, 240.646 705.443, 241.611 707.817 C 243.545 712.580, 257.436 727.532, 262.750 730.572 C 265.811 732.323, 266.164 732.334, 268.824 730.763 C 270.396 729.834, 272.612 729.347, 273.824 729.664 C 275.021 729.977, 276 729.769, 276 729.201 C 276 728.634, 277.314 726.929, 278.921 725.413 C 283.169 721.403, 283.686 717.027, 280.545 711.666 C 277.381 706.267, 277.376 704.950, 280.500 700 C 281.875 697.822, 283 695.627, 283 695.123 C 283 693.192, 290.312 687.909, 294.556 686.774 C 297 686.120, 299 685.211, 299 684.753 C 299 683.230, 295.204 676.532, 293.048 674.250 C 290.435 671.485, 286.352 671.382, 279.500 673.910" stroke="#45567a" fill="#45567a" fill-opacity="0.2" fill-rule="evenodd"/><path class="svg-region-Or" d="M 704.500 170.401 C 702.300 171.138, 698.025 172.311, 695 173.008 C 691.975 173.705, 688.306 175.113, 686.846 176.137 C 685.386 177.162, 683.871 178, 683.480 178 C 683.089 178, 679.783 179.969, 676.134 182.376 C 672.486 184.782, 668.011 187.508, 666.190 188.432 C 664.370 189.357, 661.220 191.582, 659.190 193.377 C 657.161 195.172, 653.957 197.260, 652.071 198.016 C 645.652 200.590, 625.527 214.763, 621.355 219.647 C 619.074 222.316, 616.262 225.581, 615.105 226.903 C 613.947 228.225, 612.997 229.800, 612.994 230.403 C 612.990 231.006, 612.283 232.850, 611.422 234.500 C 609.219 238.723, 608.016 250.910, 608.008 269.101 C 608 283.970, 608.502 287.611, 611.506 294.500 C 612.225 296.150, 613.109 301.550, 613.470 306.500 C 613.830 311.450, 614.502 316.400, 614.963 317.500 C 617.742 324.138, 621.546 341.770, 622.946 354.500 C 623.369 358.350, 624.205 364.200, 624.804 367.500 C 625.403 370.800, 626.406 378.225, 627.033 384 C 627.660 389.775, 628.523 394.950, 628.950 395.500 C 629.378 396.050, 630.024 399.836, 630.386 403.913 C 630.748 407.989, 631.910 414.964, 632.969 419.413 C 634.028 423.861, 635.419 433.334, 636.059 440.464 C 636.700 447.595, 637.869 455.695, 638.656 458.464 C 639.444 461.234, 640.355 470.137, 640.680 478.250 C 641.006 486.362, 641.602 493, 642.006 493 C 642.746 493, 643.611 497.870, 644.670 508 C 644.986 511.025, 645.600 513.950, 646.034 514.500 C 648.138 517.166, 648.218 531.892, 646.192 543.636 C 643.258 560.652, 641.879 571.991, 641.264 584.151 C 640.785 593.646, 640.958 595.282, 642.863 599.217 C 644.038 601.645, 645 604.334, 645 605.193 C 645 606.052, 645.675 607.315, 646.500 608 C 647.325 608.685, 648 610.028, 648 610.985 C 648 611.942, 649.350 614.424, 651 616.500 C 652.650 618.576, 654 620.583, 654 620.960 C 654 621.337, 656.060 622.738, 658.578 624.073 C 661.097 625.408, 664.584 627.256, 666.328 628.179 C 668.073 629.103, 671.975 630.148, 675 630.501 C 678.025 630.854, 682.651 632.029, 685.279 633.112 C 687.908 634.195, 693.083 635.327, 696.779 635.629 C 700.476 635.930, 707.550 637.466, 712.500 639.042 C 717.450 640.618, 725.016 642.378, 729.313 642.952 C 733.611 643.527, 737.954 644.440, 738.965 644.981 C 739.976 645.523, 746.210 647.107, 752.819 648.502 C 759.427 649.897, 766.981 651.989, 769.606 653.150 C 775.948 655.955, 789.204 656.967, 798.448 655.352 C 811.465 653.077, 820.990 650.272, 825.261 647.457 C 829.284 644.804, 856.931 617.241, 856.978 615.835 C 856.990 615.470, 859.537 611.420, 862.638 606.835 C 868.676 597.907, 874 588.311, 874 586.355 C 874 585.695, 875.737 581.633, 877.860 577.328 C 884.441 563.982, 885.862 559.947, 889.062 545.500 C 890.768 537.800, 893.262 526.550, 894.604 520.500 C 895.945 514.450, 897.498 506.800, 898.054 503.500 C 898.611 500.200, 899.683 495.250, 900.437 492.500 C 901.191 489.750, 902.347 481.425, 903.006 474 C 903.664 466.575, 904.395 460.186, 904.629 459.801 C 905.971 457.599, 909.274 436.694, 909.971 426 C 910.418 419.125, 911.333 409.108, 912.004 403.739 C 912.675 398.371, 912.942 390.721, 912.596 386.739 C 912.250 382.758, 912.015 372.021, 912.073 362.881 C 912.176 346.678, 912.090 345.953, 908.625 333.881 C 906.671 327.071, 903.455 316.775, 901.480 311 C 898.080 301.060, 896.532 298.284, 886.206 283.605 C 883.844 280.247, 879.935 274.575, 877.519 271 C 873.640 265.259, 869.203 259.684, 861.507 250.880 C 860.248 249.440, 858.400 246.965, 857.402 245.380 C 855.134 241.780, 845.922 230.762, 844.325 229.738 C 843.671 229.320, 840.770 226.957, 837.878 224.488 C 834.986 222.020, 832.135 220, 831.542 220 C 830.949 220, 828.895 218.934, 826.977 217.630 C 825.058 216.327, 818.541 212.665, 812.494 209.493 C 793.106 199.324, 780.770 192.819, 769.500 186.821 C 751.428 177.203, 746.015 174.918, 735 172.260 C 722.524 169.249, 710.183 168.497, 704.500 170.401" stroke="#aa444d" fill="#aa444d" fill-opacity="0.2" fill-rule="evenodd"/><path class="svg-region-VOC" d="M 537.833 496.750 C 537.290 497.972, 528.246 505, 527.217 505 C 526.696 505, 525.075 505.940, 523.615 507.088 C 521.044 509.111, 520.973 509.446, 521.359 517.771 C 521.705 525.226, 522.021 526.464, 523.741 527.100 C 524.832 527.504, 526.799 529.171, 528.112 530.806 C 531.670 535.236, 537.912 538.041, 542.626 537.329 C 550.408 536.153, 556.422 527.082, 555.813 517.442 C 555.517 512.775, 555.333 512.481, 552.500 512.166 C 548.218 511.690, 546.331 509.566, 544.949 503.667 C 544.283 500.825, 543.292 497.938, 542.747 497.250 C 541.664 495.885, 538.367 495.549, 537.833 496.750" stroke="#ff8f93" fill="#ff8f93" fill-opacity="0.2" fill-rule="evenodd"/><path class="svg-region-OABr" d="M 609.064 436.880 C 607.559 437.300, 605.821 439.163, 604.516 441.755 C 603.354 444.063, 601.525 446.981, 600.452 448.239 C 596.772 452.553, 595.936 455.519, 595.020 467.500 C 593.883 482.364, 592.603 491.005, 591.130 493.757 C 590.508 494.918, 590 496.850, 590 498.050 C 590 500.379, 588.081 506.670, 584.320 516.671 C 581.568 523.991, 581.364 530.745, 583.708 536.967 C 586.589 544.612, 591.347 547, 603.694 547 C 611.027 547, 612.741 546.650, 616.657 544.355 C 621.209 541.688, 628.474 539.691, 632.896 539.893 C 634.214 539.953, 635.896 539.501, 636.634 538.889 C 637.371 538.277, 638.607 538.019, 639.381 538.316 C 641.237 539.028, 645 534.947, 645 532.220 C 645 528.817, 641.993 520.858, 639.446 517.518 C 636.171 513.224, 634.078 505.188, 635.936 504.039 C 637.094 503.324, 637.049 502.623, 635.658 499.692 C 634.746 497.770, 634 495.055, 634 493.658 C 634 492.261, 633.550 490.840, 633 490.500 C 632.450 490.160, 632 488.118, 632 485.962 C 632 481.489, 628.355 469.310, 626.286 466.868 C 625.420 465.845, 625.148 464.257, 625.560 462.618 C 626.391 459.306, 625.579 456.026, 623.289 453.442 C 620.253 450.018, 617.471 445.707, 615.096 440.750 C 613.845 438.137, 612.524 436.045, 612.161 436.100 C 611.797 436.155, 610.404 436.505, 609.064 436.880" stroke="#81244d" fill="#81244d" fill-opacity="0.2" fill-rule="evenodd"/><path class="svg-region-SOTr" d="M 563.226 456.667 C 558.717 458.991, 557.867 459.926, 556.637 463.917 C 555.861 466.438, 554.673 474.125, 553.997 481 C 553.214 488.961, 552.084 494.930, 550.884 497.438 C 548.329 502.779, 548.398 506, 551.067 506 C 552.204 506, 554.620 507.575, 556.435 509.500 C 560.961 514.299, 565.945 514.321, 574.422 509.581 C 579.234 506.890, 580.930 506.381, 582.382 507.194 C 585.069 508.697, 589.078 504.343, 590.081 498.831 C 590.515 496.449, 591.379 492.475, 592.001 490 C 594.463 480.209, 595 476.717, 595 470.486 C 595 465.584, 594.657 464, 593.596 464 C 590.688 464, 577.649 459.029, 574.093 456.564 C 572.058 455.154, 569.945 454, 569.398 454 C 568.851 454, 566.074 455.200, 563.226 456.667" stroke="#995b45" fill="#995b45" fill-opacity="0.2" fill-rule="evenodd"/><path class="svg-region-LBPCr" d="M 414.855 563.232 C 413.989 563.930, 411.598 567.087, 409.543 570.250 C 407.487 573.413, 405.512 576, 405.153 576 C 404.794 576, 403.216 577.609, 401.647 579.576 C 399.431 582.352, 398.598 584.755, 397.917 590.326 C 397.435 594.272, 396.818 598.431, 396.547 599.569 C 396.154 601.216, 396.851 601.991, 399.961 603.363 C 404.041 605.163, 410 611.114, 410 613.389 C 410 614.114, 411.104 615.899, 412.452 617.354 C 415.281 620.406, 421.306 620.992, 424.559 618.532 C 428.674 615.419, 434.888 616.601, 447.085 622.815 C 453.363 626.014, 460.300 629.725, 462.500 631.063 C 474.860 638.580, 479.021 640.312, 481.742 639.072 C 485.846 637.202, 483.469 630, 478.748 630 C 476.188 630, 471.201 625.198, 469.833 621.416 C 469.065 619.290, 467.727 617.719, 466.403 617.386 C 465.130 617.067, 463.515 615.250, 462.497 612.993 C 461.423 610.612, 459.664 608.689, 457.886 607.953 C 453.763 606.245, 435.921 588.504, 431.741 581.957 C 427.619 575.498, 426.459 574.404, 422.744 573.472 C 420.842 572.995, 419.987 572.126, 419.958 570.642 C 419.935 569.464, 419.132 567.030, 418.173 565.232 C 416.689 562.450, 416.196 562.153, 414.855 563.232" stroke="#daffff" fill="#daffff" fill-opacity="0.2" fill-rule="evenodd"/><path class="svg-region-PNr" d="M 246.500 610.372 C 237.648 613.586, 231.316 618.272, 230.461 622.242 C 230.076 624.034, 228.419 628.425, 226.779 632 C 223.801 638.495, 223.799 638.511, 224.419 652.352 C 224.759 659.970, 225.480 667.028, 226.019 668.036 C 226.558 669.043, 227.658 672.997, 228.462 676.820 C 230.235 685.249, 234.315 694.800, 236.501 695.639 C 238.315 696.335, 247 687.953, 247 685.505 C 247 683.106, 251.101 681.233, 258 680.481 C 261.575 680.091, 269.225 677.981, 275 675.791 C 282.779 672.842, 286.459 671.938, 289.199 672.303 C 292.607 672.757, 293.411 672.322, 299.449 666.752 C 303.052 663.427, 306 660.267, 306 659.730 C 306 659.192, 307.913 657.058, 310.250 654.987 C 312.587 652.916, 315.273 649.890, 316.217 648.262 C 317.896 645.368, 317.883 645.275, 315.601 644.054 C 313.611 642.989, 313.326 642.194, 313.663 638.653 C 314.291 632.071, 310.158 628.722, 299.790 627.410 C 296.881 627.042, 293.825 626.168, 293 625.468 C 292.164 624.758, 287.114 623.873, 281.589 623.467 C 271.837 622.750, 271.583 622.666, 265.793 618.262 C 261.705 615.153, 259.731 612.903, 259.329 610.893 C 258.833 608.414, 258.303 608.014, 255.625 608.097 C 253.906 608.150, 249.800 609.174, 246.500 610.372" stroke="#bbc0d1" fill="#bbc0d1" fill-opacity="0.2" fill-rule="evenodd"/><path class="svg-region-OVr" d="M 559.526 410.158 C 557.003 412.142, 556.816 412.767, 557.197 417.908 C 557.545 422.616, 558.432 424.737, 562.805 431.323 C 567.896 438.991, 568 439.295, 568 446.573 C 568 451.838, 568.364 454.005, 569.250 454.018 C 569.938 454.028, 572.337 455.282, 574.583 456.805 C 579.617 460.219, 592.076 464.569, 594.334 463.702 C 595.467 463.267, 596 461.896, 596 459.418 C 596 456.047, 599.533 448, 601.013 448 C 601.368 448, 602.731 445.709, 604.043 442.909 L 606.427 437.818 600.213 431.813 C 596.796 428.510, 594 425.176, 594 424.404 C 594 423.433, 592.769 423, 590.011 423 C 586.775 423, 584.872 422.104, 579.924 418.250 C 574.676 414.162, 564.806 408.261, 562.885 408.063 C 562.547 408.029, 561.035 408.971, 559.526 410.158" stroke="#593939" fill="#593939" fill-opacity="0.2" fill-rule="evenodd"/>
    </svg>