<svg xmlns="http://www.w3.org/2000/svg" width="1078" height="1151" viewBox="0 0 1078 1151" version="1.1">
    <path class="svg-region-V" d="M 482.500 232.009 C 471.984 233.920, 453.074 240.991, 446.500 245.470 C 440.729 249.403, 430.634 258.946, 426.998 263.908 C 425.624 265.783, 424.050 267.814, 423.500 268.422 C 421.391 270.753, 416.161 278.841, 411.489 287 C 400.270 306.589, 397.071 315.532, 395.930 330.500 C 395.469 336.550, 394.623 344.200, 394.052 347.500 C 391.894 359.950, 392.936 366.048, 400.205 383.500 C 404.546 393.923, 407.296 397.470, 413.389 400.507 C 417.458 402.534, 419.874 403, 426.320 403 C 433.295 403, 435.217 402.563, 442.306 399.362 L 450.364 395.723 471.932 395.904 C 486.946 396.029, 495.905 396.565, 501.415 397.666 C 515.191 400.419, 523.899 398.544, 531.267 391.236 C 533.340 389.181, 538.448 384.125, 542.620 380 C 546.792 375.875, 550.795 371.375, 551.516 370 C 552.237 368.625, 554.254 365.925, 555.998 364 C 558.894 360.805, 567 347.957, 567 346.563 C 567 346.240, 568.562 342.719, 570.470 338.738 C 572.602 334.292, 574.373 328.607, 575.061 324 C 575.677 319.875, 576.676 314.771, 577.281 312.657 C 579.071 306.404, 576.512 277.022, 573.614 270.547 C 572.371 267.771, 570.742 263.925, 569.994 262 C 565.722 251.006, 551.969 240.673, 533.852 234.847 C 525.577 232.186, 523.396 231.924, 506.184 231.529 C 495.908 231.293, 485.250 231.509, 482.500 232.009" stroke="#dd8a8a" fill="#dd8a8a" fill-opacity="0.2" fill-rule="evenodd"/><path class="svg-region-AAB" d="M 582.327 550.280 C 580.772 551.534, 577.025 553.843, 574 555.412 C 559.156 563.110, 548.544 581.368, 551.812 593.586 C 552.465 596.029, 553 599.590, 553 601.499 C 553 603.893, 553.875 605.948, 555.824 608.129 L 558.648 611.289 569.709 610.246 C 575.792 609.673, 582.284 608.546, 584.135 607.742 C 585.986 606.939, 588.715 605.788, 590.201 605.184 C 593.984 603.648, 601.570 593.621, 603.528 587.569 C 604.430 584.781, 606.522 579.816, 608.178 576.535 C 610.891 571.159, 611.078 570.203, 610.071 566.844 C 608.873 562.843, 602.223 556.426, 596.016 553.282 C 594.082 552.302, 591.427 550.712, 590.115 549.750 C 586.987 547.455, 585.723 547.541, 582.327 550.280" stroke="#7f3c1a" fill="#7f3c1a" fill-opacity="0.2" fill-rule="evenodd"/><path class="svg-region-DB" d="M 442.682 399.227 C 435.420 402.535, 433.591 402.957, 426.419 402.977 C 419.755 402.996, 417.477 402.563, 413.419 400.504 C 410.714 399.131, 408.387 398.006, 408.250 398.004 C 408.113 398.002, 408 399.566, 408 401.480 C 408 403.394, 407.280 406.760, 406.399 408.961 C 405.111 412.179, 404.899 415.458, 405.314 425.731 C 405.816 438.133, 406.587 443.310, 410.843 462.832 C 413.964 477.149, 414.991 478, 429.139 478 C 432.927 478, 436.809 478.423, 437.764 478.940 C 438.719 479.456, 440.718 480.135, 442.208 480.448 C 445.042 481.044, 450 485.026, 450 486.708 C 450 487.599, 459.082 500.463, 462.185 503.966 C 464.283 506.336, 468 512.023, 468 512.864 C 468 513.290, 469.012 514.535, 470.250 515.629 C 471.488 516.724, 474.168 519.485, 476.207 521.765 C 482.193 528.459, 486.800 530, 500.830 530 C 508.133 530, 513.923 530.485, 515.737 531.250 C 517.369 531.938, 521.253 532.345, 524.368 532.157 L 530.032 531.813 527.643 529.934 C 523.291 526.511, 521.935 522.074, 522.651 513.604 C 523.174 507.412, 523.826 505.271, 526.150 502.110 C 528.502 498.913, 529.804 498.106, 533.516 497.550 C 540.277 496.536, 542 497.413, 542 501.868 C 542 505.306, 542.359 505.776, 546.527 507.801 C 549.016 509.010, 551.851 510, 552.827 510 C 555.935 510, 556.779 511.801, 555.893 516.544 C 555.438 518.978, 554.300 522.139, 553.363 523.569 C 551.330 526.672, 543.273 533, 541.356 533 C 539.723 533, 539.726 532.935, 541.089 538.807 C 542.862 546.446, 542.530 546.094, 546.424 544.467 C 548.422 543.632, 553.074 543.001, 557.218 543.002 C 563.416 543.004, 565.369 543.462, 570.338 546.081 C 573.548 547.774, 576.318 549.010, 576.492 548.829 C 576.666 548.648, 576.977 541.975, 577.183 534 C 577.527 520.697, 577.782 519.031, 580.279 513.812 C 583.576 506.919, 583.607 506.570, 580.750 508.379 C 579.513 509.162, 576.925 510.133, 575 510.536 C 573.075 510.938, 569.935 512.558, 568.022 514.134 C 563.702 517.694, 559 518.052, 559 514.821 C 559 513.623, 559.546 511.131, 560.214 509.284 C 561.514 505.689, 561.469 505.614, 553.250 497.783 C 550.029 494.714, 550.133 485.541, 553.491 476.620 C 556.762 467.929, 558.051 466, 560.586 466 C 563.305 466, 565.990 463.005, 566.036 459.921 C 566.055 458.590, 566.723 454.800, 567.520 451.500 C 568.317 448.200, 568.976 442.491, 568.984 438.813 C 568.998 432.823, 568.713 431.847, 566.250 429.450 C 564.737 427.979, 561.700 426.157, 559.500 425.402 C 554.825 423.799, 546.392 423.556, 545.500 425 C 545.160 425.550, 543.160 426, 541.056 426 C 535.996 426, 534.100 423.077, 533.102 413.738 C 532.683 409.818, 531.815 406.438, 531.170 406.223 C 530.527 406.009, 530 405.182, 530 404.385 C 530 403.589, 529.366 402.694, 528.590 402.396 C 527.815 402.099, 526.894 400.714, 526.544 399.320 C 526.004 397.167, 525.500 396.877, 523.204 397.397 C 515.673 399.103, 509.572 399.170, 501.303 397.636 C 495.386 396.539, 485.675 395.921, 471.682 395.752 L 450.863 395.500 442.682 399.227" stroke="#e8b1e4" fill="#e8b1e4" fill-opacity="0.2" fill-rule="evenodd"/><path class="svg-region-IBr" d="M 544 545.364 C 537.166 548.793, 535.234 550.194, 533.900 552.688 C 533.123 554.139, 531.371 555.206, 529.089 555.619 C 527.115 555.975, 524.285 556.882, 522.800 557.634 C 521.314 558.385, 518.160 559, 515.789 559 C 511.510 559, 511.456 559.045, 508.282 565.250 C 506.106 569.505, 504.912 573.495, 504.542 577.750 C 504.244 581.188, 503.736 586.678, 503.414 589.951 C 502.860 595.574, 503.007 596.126, 506.081 599.951 C 508.583 603.064, 510.030 604, 512.343 604 C 514.936 604, 524.037 607.760, 533.175 612.606 C 537.047 614.659, 540.428 612.854, 541.897 607.948 C 543.055 604.085, 546.440 600.903, 550.848 599.533 C 552.798 598.927, 553.082 598.355, 552.526 596.152 C 550.823 589.403, 550.892 586.799, 552.937 580.468 C 556.678 568.887, 562.572 561.891, 573.757 555.755 C 579.802 552.438, 579.950 552.264, 578.115 550.604 C 577.071 549.659, 573.580 547.576, 570.358 545.974 C 562.577 542.107, 551.022 541.839, 544 545.364" stroke="#b10e0e" fill="#b10e0e" fill-opacity="0.2" fill-rule="evenodd"/><path class="svg-region-MB" d="M 468 518.451 C 468 525.293, 469.974 533.170, 472.549 536.602 C 473.829 538.309, 478.237 543.098, 482.344 547.245 C 486.451 551.393, 490.682 556.747, 491.745 559.143 C 493.524 563.152, 494.156 563.640, 499.639 565.250 C 502.917 566.212, 505.909 567, 506.287 567 C 506.665 567, 508.111 565.200, 509.500 563 C 511.766 559.411, 512.440 559, 516.062 559 C 518.283 559, 521.314 558.389, 522.800 557.643 C 524.285 556.896, 526.850 556.024, 528.500 555.704 C 530.186 555.377, 533.883 552.873, 536.941 549.988 L 542.382 544.854 541.214 539.283 C 540.571 536.219, 539.876 533.542, 539.668 533.335 C 539.171 532.837, 516.951 531.027, 500 530.104 C 486.072 529.345, 481.154 527.943, 478.252 523.904 C 476.396 521.321, 469.245 514, 468.578 514 C 468.260 514, 468 516.003, 468 518.451" stroke="#f9c6c6" fill="#f9c6c6" fill-opacity="0.2" fill-rule="evenodd"/><path class="svg-region-LBr" d="M 413.658 475.675 C 413.296 476.037, 413 478.527, 413 481.207 C 413 484.505, 412.355 486.957, 411.005 488.790 C 409.907 490.281, 408.316 494.174, 407.467 497.443 C 406.619 500.711, 405.541 503.861, 405.072 504.443 C 403.473 506.425, 403.278 515.185, 404.685 521.849 C 405.457 525.507, 406.439 530.300, 406.866 532.500 C 407.294 534.700, 408.399 537.940, 409.322 539.700 C 410.245 541.461, 411 543.301, 411 543.791 C 411 544.856, 420.178 560.271, 423.299 564.445 C 424.509 566.065, 426.640 568.765, 428.033 570.445 C 429.427 572.125, 431.677 575.184, 433.033 577.243 C 436.020 581.776, 437.735 581.929, 441.500 578 C 443.837 575.561, 445.193 575, 448.753 575 C 451.161 575, 453.999 575.464, 455.059 576.032 C 458.188 577.706, 464.948 585.354, 464.975 587.250 C 464.993 588.536, 465.862 589.021, 468.250 589.079 C 470.038 589.122, 473.525 590.465, 476 592.063 C 478.475 593.661, 484.530 597.014, 489.455 599.514 C 494.380 602.015, 499.139 604.721, 500.031 605.528 C 501.461 606.822, 502.086 606.784, 505.316 605.213 L 508.980 603.431 505.902 599.697 C 502.989 596.163, 502.857 595.631, 503.430 589.732 C 503.763 586.304, 504.289 580.575, 504.598 577 C 504.908 573.425, 505.575 570.072, 506.081 569.550 C 507.776 567.798, 507.033 567.257, 500.343 565.374 C 494.005 563.590, 493.592 563.285, 491.710 559 C 490.623 556.525, 487.603 552.475, 485 550 C 482.396 547.525, 477.999 542.891, 475.227 539.702 C 470.926 534.752, 470.029 532.985, 469.094 527.620 C 468.492 524.164, 468 519.180, 468 516.545 C 468 512.439, 467.326 510.806, 463.288 505.127 C 460.696 501.482, 457.546 497.380, 456.288 496.010 C 455.030 494.641, 454 492.953, 454 492.260 C 454 491.567, 453.601 491, 453.114 491 C 452.627 491, 451.468 489.398, 450.538 487.439 C 448.733 483.636, 443.814 480.010, 440.450 480.004 C 439.323 480.002, 437.973 479.597, 437.450 479.103 C 436.928 478.610, 432.159 478.029, 426.853 477.812 C 421.408 477.589, 416.577 476.894, 415.761 476.217 C 414.966 475.557, 414.020 475.313, 413.658 475.675" stroke="#d7b230" fill="#d7b230" fill-opacity="0.2" fill-rule="evenodd"/><path class="svg-region-LPr" d="M 548 600.752 C 545.602 601.950, 543.790 603.985, 542.246 607.217 C 539.414 613.145, 537.145 614.501, 533.324 612.550 C 518.980 605.228, 515.840 604, 511.456 604 C 507.185 604, 501 606.443, 501 608.130 C 501 608.515, 498.723 610.501, 495.940 612.544 C 492.645 614.963, 490.087 617.902, 488.606 620.972 L 486.332 625.685 488.485 628.187 C 489.668 629.563, 493.410 632.167, 496.801 633.975 C 501.592 636.528, 504.362 639.029, 509.233 645.201 C 517.227 655.331, 519.354 659.431, 518.701 663.453 C 518.421 665.178, 515.855 671.744, 512.998 678.045 C 510.141 684.345, 506.970 692.079, 505.950 695.231 C 503.917 701.515, 495.607 715.151, 491.442 719.039 C 489.992 720.393, 487.911 723.244, 486.818 725.376 C 485.725 727.508, 483.631 730.386, 482.165 731.771 C 479.089 734.678, 468.001 740, 465.022 740 C 462.358 740, 462.456 741.407, 465.250 743.270 C 466.488 744.095, 468.581 745.721, 469.903 746.885 C 471.225 748.048, 472.800 749.001, 473.403 749.003 C 474.006 749.004, 475.400 750.375, 476.500 752.049 C 478.906 755.710, 489.342 761.002, 494.143 760.996 C 499.493 760.989, 508.036 754.699, 511.320 748.348 C 514.350 742.488, 530.521 727.727, 544.183 718.349 C 552.827 712.416, 559.565 705.446, 563.572 698.294 C 565.484 694.881, 567.488 691.817, 568.024 691.485 C 568.561 691.153, 569 688.857, 569 686.383 C 569 682.443, 569.543 681.309, 573.370 677.259 C 577.301 673.098, 578.329 672.561, 583.620 671.901 C 586.854 671.498, 591.997 671.131, 595.050 671.084 C 601.311 670.989, 608.006 667.476, 609.917 663.284 C 611.424 659.976, 611.269 653.691, 609.583 649.784 C 608.804 647.978, 607.454 644.857, 606.583 642.849 C 605.713 640.841, 605 638.719, 605 638.134 C 605 637.548, 603.708 635.591, 602.129 633.785 C 595.280 625.949, 594 623.137, 594 615.926 C 594 607.315, 592.739 603.589, 590.267 604.897 C 584.211 608.102, 579.527 609.320, 569.709 610.246 L 558.648 611.289 555.824 608.129 C 554.062 606.157, 553 603.846, 553 601.984 C 553 598.506, 552.663 598.422, 548 600.752" stroke="#d2454f" fill="#d2454f" fill-opacity="0.2" fill-rule="evenodd"/><path class="svg-region-DMr" d="M 397.250 609.662 C 396.362 610.021, 396 613.194, 396 620.626 C 396 631.129, 396.108 631.516, 400.314 636.135 C 402.799 638.865, 408.989 651.091, 408.995 653.282 C 408.998 654.262, 409.633 656.578, 410.406 658.429 C 411.756 661.661, 411.668 662.022, 408.157 667.646 C 404.781 673.056, 404.503 674.081, 404.502 681.156 C 404.500 688.215, 404.831 689.448, 408.750 696.987 C 412.126 703.481, 413.005 706.226, 413.022 710.331 C 413.062 719.747, 418.126 726.852, 427 729.943 C 428.925 730.613, 434.958 732.260, 440.407 733.603 C 445.855 734.946, 452.325 736.935, 454.784 738.023 C 457.243 739.110, 460.885 739.993, 462.877 739.985 C 471.245 739.952, 482.737 733.396, 486.148 726.710 C 487.214 724.620, 489.585 721.243, 491.416 719.205 C 496.941 713.056, 503.951 701.414, 506.011 694.966 C 507.078 691.624, 508.599 687.677, 509.391 686.195 C 512.007 681.295, 516.726 670.562, 517.980 666.660 C 519.773 661.081, 518.652 657.544, 512.495 649.365 C 505.553 640.140, 501.350 636.009, 496.412 633.556 C 494.261 632.487, 491.107 630.328, 489.404 628.759 C 487.442 626.951, 485.043 625.825, 482.853 625.685 C 480.947 625.563, 477.038 623.950, 474.133 622.085 L 468.867 618.706 459.183 619.284 C 452.100 619.707, 448.023 619.455, 444 618.346 C 435.068 615.885, 416.705 612.011, 413.941 612.005 C 412.534 612.002, 410.509 611.339, 409.441 610.532 C 407.594 609.135, 399.915 608.587, 397.250 609.662" stroke="#68533d" fill="#68533d" fill-opacity="0.2" fill-rule="evenodd"/><path class="svg-region-PMr" d="M 326.232 673.981 C 323.884 675.047, 319.178 676.424, 315.774 677.041 C 312.370 677.658, 308.441 678.779, 307.042 679.532 C 304.837 680.720, 293.456 692.089, 290.455 696.103 C 285.834 702.284, 284.974 703.921, 284.731 707 L 284.455 710.500 277.610 710.798 C 272.791 711.008, 270.281 710.678, 269.132 709.684 C 268.234 708.906, 265.776 708.007, 263.668 707.685 C 261.561 707.363, 257.931 706.177, 255.602 705.050 C 250.166 702.418, 247.385 702.421, 246.695 705.060 C 246.275 706.666, 248.228 709.171, 255.578 716.450 C 260.760 721.581, 265 726.494, 265 727.367 C 265 728.240, 266.040 729.635, 267.311 730.468 C 268.582 731.301, 270.640 733.794, 271.885 736.008 C 273.252 738.442, 275.674 740.813, 278.006 742.003 C 280.128 743.086, 282.146 744.428, 282.491 744.986 C 283.725 746.982, 293.428 745.942, 305.363 742.536 C 312.038 740.631, 319.525 738.761, 322 738.380 C 324.475 737.999, 327.400 737.116, 328.500 736.417 C 329.600 735.719, 332.300 734.870, 334.500 734.529 C 336.700 734.189, 340.863 733.162, 343.750 732.248 C 347.882 730.940, 349 730.140, 349 728.493 C 349 727.342, 349.502 725.898, 350.115 725.285 C 350.936 724.464, 350.804 723.313, 349.615 720.931 C 347.600 716.890, 347.588 717, 350.050 717 C 353.169 717, 357.684 714.318, 358.257 712.124 C 358.538 711.049, 358.258 709.260, 357.634 708.148 C 352.326 698.693, 349.772 695, 348.541 695 C 345.939 695, 345.085 691.889, 346.738 688.424 C 348.954 683.777, 347.735 678.853, 343.434 675.076 C 340.568 672.560, 339.072 672.004, 335.215 672.022 C 332.622 672.034, 328.579 672.916, 326.232 673.981" stroke="#90cf92" fill="#90cf92" fill-opacity="0.2" fill-rule="evenodd"/><path class="svg-region-LPVr" d="M 372.966 591.420 C 374.819 595.743, 374.860 596.370, 373.467 599.065 C 372.632 600.679, 371.545 602, 371.051 602 C 370.557 602, 368.769 603.165, 367.077 604.589 C 364.497 606.759, 364 607.891, 364 611.589 C 364 614.015, 363.575 616, 363.057 616 C 362.538 616, 361.320 617.343, 360.350 618.984 C 359.381 620.625, 357.106 622.671, 355.294 623.531 C 353.482 624.390, 352 625.678, 352 626.392 C 352 628.216, 349 630.613, 345.750 631.385 C 343.717 631.868, 343 632.650, 343 634.384 C 343 637.282, 339.426 642, 337.231 642 C 336.338 642, 333.906 640.821, 331.826 639.379 L 328.044 636.758 318.118 646.629 C 312.659 652.058, 305.449 659.172, 302.096 662.437 C 298.743 665.703, 296 668.966, 296 669.687 C 296 670.409, 295.580 671, 295.067 671 C 294.554 671, 293.865 671.850, 293.535 672.889 C 293.206 673.927, 291.938 675.856, 290.718 677.175 C 286.240 682.017, 285 684.847, 285 690.224 C 285 694.431, 285.410 695.775, 286.995 696.765 C 288.696 697.827, 289.248 697.699, 290.745 695.894 C 291.710 694.730, 295.719 690.493, 299.654 686.478 C 306.648 679.342, 306.984 679.141, 314.654 677.465 C 318.969 676.522, 324.388 674.907, 326.695 673.875 C 333.258 670.941, 339.211 671.369, 343.434 675.076 C 347.807 678.916, 348.957 683.770, 346.643 688.622 C 345.105 691.849, 345.123 692.123, 347.011 694.011 C 348.105 695.105, 349.374 696, 349.831 696 C 350.288 696, 351.278 697.237, 352.030 698.750 C 352.783 700.263, 354.354 702.850, 355.523 704.500 C 359.187 709.674, 359.258 710.896, 356.076 714.078 C 354.358 715.796, 352.091 717, 350.577 717 C 347.531 717, 347.572 716.835, 349.615 720.931 C 350.804 723.313, 350.936 724.464, 350.115 725.285 C 349.502 725.898, 349 727.712, 349 729.316 L 349 732.233 355.250 731.632 C 358.688 731.301, 364.425 730.574, 368 730.016 C 371.575 729.459, 379.325 728.720, 385.222 728.374 C 393.993 727.860, 396.568 728.041, 399.373 729.373 C 402.852 731.023, 417.909 731.667, 422.742 730.372 C 424.844 729.809, 424.730 729.587, 420.915 726.824 C 415.648 723.008, 413.050 717.288, 413.022 709.444 C 413.004 704.576, 412.510 702.724, 410.498 699.998 C 406.910 695.135, 403.996 686.682, 404.022 681.212 C 404.044 676.392, 406.367 670.102, 410.017 664.976 C 411.942 662.273, 411.973 661.872, 410.534 658.426 C 409.690 656.407, 409 653.922, 409 652.903 C 409 650.680, 402.374 637.962, 400.397 636.390 C 399.628 635.779, 399 634.753, 399 634.108 C 399 633.464, 398.325 632.678, 397.500 632.362 C 396.319 631.908, 396 629.855, 396 622.707 L 396 613.629 391.779 608.564 C 389.457 605.779, 386.644 602.845, 385.529 602.044 C 381.719 599.310, 374.011 591.502, 374.005 590.372 C 374.002 589.752, 373.313 588.675, 372.474 587.978 C 371.303 587.007, 371.418 587.809, 372.966 591.420" stroke="#494949" fill="#494949" fill-opacity="0.2" fill-rule="evenodd"/><path class="svg-region-Fr" d="M 324.500 516.224 C 322.850 516.780, 320.719 517.632, 319.764 518.118 C 318.809 518.603, 317.083 519, 315.928 519 C 313.194 519, 286.411 532.807, 279.698 537.677 C 272.232 543.093, 265.043 550.025, 263.290 553.500 C 262.457 555.150, 260.026 558.606, 257.888 561.179 C 255.750 563.753, 254 566.178, 254 566.567 C 254 566.957, 252.172 569.576, 249.938 572.388 C 245.355 578.157, 239 588.636, 239 590.425 C 239 591.076, 237.650 593.737, 236 596.339 C 234.350 598.941, 233 601.894, 233 602.901 C 233 603.909, 232.141 606.931, 231.092 609.617 C 227.703 618.288, 225.050 628.299, 223.834 637 C 222.435 647.016, 222.631 665.322, 224.180 669.281 C 225.198 671.882, 225.351 671.944, 226.552 670.230 C 227.258 669.222, 228.068 664.820, 228.354 660.449 C 229.156 648.140, 230.473 639.830, 232.227 636 C 235.371 629.135, 245.561 615.511, 247.796 615.183 C 250.465 614.792, 259.086 606.555, 265.367 598.395 C 270.423 591.828, 274.724 588.936, 276.108 591.174 C 276.541 591.876, 278.075 595.681, 279.515 599.630 L 282.133 606.810 278.567 611.774 C 275.510 616.029, 275.006 617.508, 275.044 622.119 C 275.123 631.793, 278.595 638.313, 284.339 639.574 C 286.061 639.953, 288.493 640.932, 289.742 641.751 C 293.163 643.992, 302.248 642.910, 309.500 639.398 C 317.873 635.343, 325 630.978, 325 629.905 C 325 629.407, 326.173 629, 327.607 629 C 329.687 629, 330.074 628.647, 329.520 627.250 C 329.139 626.288, 328.630 623.988, 328.390 622.140 L 327.954 618.779 335.414 619.156 C 341.434 619.460, 343.332 619.964, 345.251 621.766 C 348.301 624.631, 355.182 624.854, 357.750 622.171 C 362.891 616.800, 364 614.832, 364 611.081 C 364 607.950, 364.609 606.666, 367.077 604.589 C 368.769 603.165, 370.557 602, 371.051 602 C 371.545 602, 372.644 600.656, 373.493 599.014 C 374.941 596.214, 374.878 595.637, 372.493 589.764 C 371.094 586.319, 369.578 582.825, 369.124 582 C 367.823 579.637, 361.385 558.132, 359.993 551.500 C 356.710 535.861, 350.406 520, 347.473 520 C 346.648 520, 345.191 519.588, 344.236 519.084 C 336.376 514.938, 330.739 514.121, 324.500 516.224" stroke="#5ca7a9" fill="#5ca7a9" fill-opacity="0.2" fill-rule="evenodd"/><path class="svg-region-PCr" d="M 270.910 592.255 C 269.486 593.490, 266.350 596.975, 263.942 600 C 261.535 603.025, 258.230 606.820, 256.600 608.433 C 253.772 611.230, 253.724 611.416, 255.567 612.433 C 256.630 613.020, 260.153 616.313, 263.396 619.750 C 266.639 623.188, 270.037 626, 270.946 626 C 273.421 626, 275 623.949, 275 620.734 C 275 617.387, 276.238 614.806, 280.120 610.062 C 281.780 608.035, 282.596 606.189, 282.110 605.562 C 281.657 604.978, 280.058 601.237, 278.556 597.250 C 277.054 593.263, 275.302 590.002, 274.663 590.005 C 274.023 590.008, 272.335 591.020, 270.910 592.255 M 327.320 619.708 C 327.636 620.221, 328.104 621.734, 328.359 623.070 C 328.613 624.407, 329.135 626.288, 329.518 627.250 C 330.074 628.647, 329.688 629, 327.607 629 C 325.421 629, 325 629.450, 325 631.787 C 325 633.964, 326.087 635.385, 329.974 638.287 C 332.710 640.329, 335.827 642, 336.901 642 C 339.372 642, 343 637.469, 343 634.384 C 343 632.650, 343.717 631.868, 345.750 631.385 C 351.356 630.053, 354.688 624, 349.814 624 C 348.612 624, 346.553 622.989, 345.238 621.754 C 343.259 619.895, 341.460 619.445, 334.796 619.142 C 329.980 618.924, 326.975 619.151, 327.320 619.708" stroke="#465ee0" fill="#465ee0" fill-opacity="0.2" fill-rule="evenodd"/><path class="svg-region-DV" d="M 280.500 679.936 C 278.300 680.314, 274.925 681.476, 273 682.520 C 270.117 684.083, 267.600 684.391, 258.716 684.269 C 248.291 684.126, 247.824 684.213, 244.716 686.877 C 242.947 688.393, 239.813 690.652, 237.750 691.898 C 235.688 693.144, 234 694.367, 234 694.617 C 234 696.086, 237.980 700.697, 241.361 703.147 C 245.815 706.373, 247 706.657, 247 704.500 C 247 702.408, 250.341 702.623, 255.037 705.019 C 257.213 706.129, 261.015 707.314, 263.486 707.653 C 265.957 707.992, 268.488 708.883, 269.112 709.634 C 269.882 710.563, 272.607 711, 277.622 711 L 285 711 285 707.135 C 285 704.756, 285.786 702.270, 287.044 700.671 L 289.088 698.072 287.044 696.796 C 285.379 695.756, 285.006 694.496, 285.032 690.009 C 285.051 686.759, 285.666 683.704, 286.532 682.559 C 289.318 678.875, 288.575 678.551, 280.500 679.936" stroke="#45567a" fill="#45567a" fill-opacity="0.2" fill-rule="evenodd"/><path class="svg-region-Or" d="M 699.782 157.015 C 691.244 157.994, 680.695 160.966, 675.126 163.962 C 673.132 165.035, 668.453 167.259, 664.728 168.904 C 654.976 173.210, 636.610 184.369, 628.681 190.805 C 624.536 194.169, 620.909 198.137, 619.433 200.920 C 618.097 203.439, 615.440 208.200, 613.528 211.500 C 605.323 225.662, 605.792 222.822, 606.286 255.367 C 606.717 283.730, 608.144 304.445, 609.945 308.500 C 611.371 311.711, 612.174 315.095, 613.030 321.500 C 613.471 324.800, 614.324 330.875, 614.925 335 C 616.676 347.014, 619.224 370.622, 619.997 382 C 620.390 387.775, 621.439 395.218, 622.328 398.539 C 623.631 403.404, 623.939 409.755, 623.911 431.203 C 623.892 445.847, 624.152 459.329, 624.488 461.164 C 625.030 464.123, 626.124 478.843, 627.642 503.579 C 628.154 511.931, 625.423 527.028, 622.591 531.500 C 621.894 532.600, 620.784 537.100, 620.124 541.500 C 618.322 553.514, 616.982 558.978, 614.484 564.500 C 610.864 572.499, 608.106 590.890, 609.085 600.500 C 610.041 609.884, 613.628 620.106, 618.912 628.500 C 620.989 631.800, 624.102 636.778, 625.828 639.562 C 628.702 644.196, 636.988 651.803, 645.217 657.362 C 648.893 659.846, 656.741 663.091, 665 665.542 C 668.025 666.439, 672.750 668.082, 675.500 669.191 C 681.751 671.713, 684.264 671.874, 735 673.012 C 757.825 673.525, 780.174 674.481, 784.665 675.138 C 791.975 676.207, 794.173 676.098, 805.665 674.100 C 812.724 672.873, 819.625 671.282, 821 670.565 C 838.007 661.697, 841.967 659.017, 851.857 649.682 C 863.042 639.125, 865.391 636.496, 869.509 629.931 C 885.824 603.925, 894.732 585.634, 902.107 563 C 905.422 552.825, 910.191 538.438, 912.703 531.030 C 915.288 523.408, 918.312 511.685, 919.669 504.030 C 920.987 496.588, 922.950 485.775, 924.030 480 C 925.110 474.225, 926.475 465.225, 927.064 460 C 927.652 454.775, 928.985 443.750, 930.026 435.500 C 931.799 421.456, 931.829 419.099, 930.501 398.500 C 928.379 365.594, 928.294 365.097, 918.575 328.305 C 916.658 321.047, 913.995 312.947, 912.657 310.305 C 911.319 307.662, 909.006 301.967, 907.517 297.649 C 905.857 292.836, 902.234 285.929, 898.155 279.802 C 894.495 274.304, 890.375 267.881, 889 265.530 C 887.625 263.178, 884.700 259.250, 882.500 256.802 C 880.300 254.354, 876.942 250.360, 875.038 247.926 C 870.749 242.442, 863.893 235.585, 858.105 230.990 C 855.687 229.070, 851.862 225.909, 849.605 223.964 C 847.347 222.020, 843.862 219.222, 841.860 217.747 C 839.858 216.272, 836.888 213.813, 835.261 212.283 C 830.182 207.506, 824.660 203.382, 817.451 198.982 C 813.628 196.648, 808.700 193.511, 806.500 192.011 C 791.943 182.080, 775.525 172.297, 764.655 167.074 C 753.934 161.924, 751.179 161, 746.542 161 C 743.339 161, 738.884 160.132, 735.787 158.904 C 729.615 156.458, 712.485 155.559, 699.782 157.015" stroke="#aa444d" fill="#aa444d" fill-opacity="0.2" fill-rule="evenodd"/><path class="svg-region-VOC" d="M 531.201 497.712 C 529.937 497.954, 527.634 499.903, 526.083 502.044 C 523.775 505.231, 523.136 507.407, 522.556 514.054 C 521.885 521.746, 521.986 522.380, 524.490 526.164 C 527.537 530.768, 532.052 533, 538.320 533 C 545.862 533, 554.519 525.091, 556.035 516.815 C 556.922 511.975, 555.941 510.009, 552.628 509.984 C 551.457 509.975, 548.700 508.951, 546.500 507.709 C 543.211 505.852, 542.441 504.834, 542.169 501.984 C 541.986 500.077, 541.311 498.183, 540.669 497.774 C 539.443 496.995, 535.101 496.966, 531.201 497.712" stroke="#ff8f93" fill="#ff8f93" fill-opacity="0.2" fill-rule="evenodd"/><path class="svg-region-OABr" d="M 610 484.664 C 599.251 485.719, 597.965 486.135, 594.531 489.671 C 592.638 491.620, 590.376 495.364, 589.503 497.990 C 588.631 500.616, 586.987 503.605, 585.849 504.632 C 584.712 505.660, 582.387 509.200, 580.683 512.500 C 577.681 518.314, 577.572 518.982, 577.192 534.044 C 576.861 547.156, 577.041 549.789, 578.341 550.868 C 579.620 551.930, 580.398 551.766, 582.918 549.903 C 585.483 548.006, 586.306 547.841, 588.227 548.842 C 599.594 554.761, 607.219 560.699, 609.013 565.032 C 612.058 572.383, 616.161 564.862, 619.394 546 C 620.573 539.125, 622.038 532.600, 622.652 531.500 C 623.265 530.400, 624.719 525.799, 625.883 521.276 C 629.564 506.975, 628.118 490.416, 622.780 485.750 C 620.840 484.054, 618.358 483.843, 610 484.664" stroke="#81244d" fill="#81244d" fill-opacity="0.2" fill-rule="evenodd"/><path class="svg-region-SOTr" d="M 564.551 463.944 C 563.584 465.013, 561.601 466.025, 560.146 466.194 C 557.855 466.459, 557.071 467.573, 554.298 474.500 C 551.889 480.518, 551.083 484.102, 551.048 488.965 C 550.997 495.805, 551.008 495.825, 558.250 502.798 C 561.049 505.493, 561.804 508.385, 560 509.500 C 559.450 509.840, 559 511.666, 559 513.559 C 559 516.707, 559.253 517, 561.965 517 C 563.802 517, 566.181 515.906, 568.215 514.128 C 570.022 512.548, 573.075 510.925, 575 510.522 C 582.207 509.013, 590 501.959, 590 496.945 C 590 496.402, 591.108 494.279, 592.462 492.229 C 594.376 489.330, 594.988 486.941, 595.212 481.500 C 595.527 473.853, 595.335 473.666, 588.946 475.418 C 586.719 476.029, 585.509 475.215, 579.487 469.059 C 573.836 463.282, 572.012 462, 569.446 462 C 567.610 462, 565.581 462.806, 564.551 463.944" stroke="#995b45" fill="#995b45" fill-opacity="0.2" fill-rule="evenodd"/><path class="svg-region-LBPCr" d="M 407.234 541.760 C 406.692 543.313, 404.543 545.915, 402.457 547.542 C 400.371 549.169, 396.643 552.638, 394.172 555.250 C 391.700 557.862, 389.173 560, 388.555 560 C 386.981 560, 375.243 569.034, 370.814 573.654 L 367.127 577.500 369.609 582.500 C 370.974 585.250, 372.680 588.523, 373.399 589.774 C 374.666 591.975, 382.530 599.910, 386.536 603.030 C 387.616 603.871, 389.947 606.317, 391.716 608.466 C 394.771 612.178, 395.024 612.288, 396.794 610.686 C 398.960 608.726, 405.135 608.458, 408.316 610.187 C 409.517 610.840, 412.750 611.717, 415.500 612.137 C 421.931 613.118, 436.938 616.384, 444 618.339 C 448.019 619.452, 452.080 619.708, 459.078 619.290 L 468.656 618.719 474.113 622.209 C 477.845 624.597, 480.665 625.668, 483.035 625.600 C 486.118 625.511, 486.739 625.004, 488.665 621 C 490.001 618.222, 492.775 615.024, 495.915 612.642 C 498.712 610.521, 501 608.189, 501 607.461 C 501 605.787, 496.932 602.897, 490.500 600.001 C 487.750 598.763, 482.245 595.781, 478.267 593.375 C 474.289 590.969, 469.887 589, 468.485 589 C 466.873 589, 465.671 588.285, 465.216 587.056 C 464.821 585.987, 462.317 582.837, 459.652 580.056 C 455.038 575.242, 454.556 575, 449.570 575 C 445.083 575, 443.916 575.426, 441.417 577.972 C 437.732 581.727, 435.878 581.756, 433.713 578.092 C 432.155 575.454, 429.746 572.265, 422.688 563.500 C 421.359 561.850, 419.260 558.475, 418.022 556 C 416.784 553.525, 414.698 550.068, 413.386 548.317 C 412.074 546.566, 411 544.259, 411 543.189 C 411 542.120, 410.374 540.725, 409.609 540.090 C 408.495 539.166, 408.022 539.498, 407.234 541.760" stroke="#daffff" fill="#daffff" fill-opacity="0.2" fill-rule="evenodd"/><path class="svg-region-PNr" d="M 251.441 613.468 C 250.374 614.276, 248.791 614.951, 247.924 614.968 C 246.375 614.999, 242 618.959, 242 620.330 C 242 620.715, 239.822 624.061, 237.159 627.765 C 234.497 631.469, 231.968 635.400, 231.539 636.500 C 230.516 639.121, 228.981 650.582, 228.391 660 C 228.133 664.125, 227.207 668.877, 226.335 670.561 C 224.834 673.458, 224.893 674.041, 227.455 681.463 C 228.944 685.776, 230.760 689.903, 231.492 690.634 C 232.223 691.366, 232.996 692.488, 233.209 693.128 C 233.680 694.541, 240.782 690.779, 245.132 686.812 C 247.964 684.229, 248.497 684.128, 258.789 684.223 C 267.660 684.306, 270.273 683.966, 274 682.246 C 276.475 681.105, 281.082 679.856, 284.239 679.471 C 289.454 678.836, 290.180 678.441, 292.201 675.136 C 293.424 673.136, 295.004 670.905, 295.713 670.179 C 296.421 669.452, 297 668.541, 297 668.155 C 297 667.769, 299.539 664.988, 302.642 661.976 C 324.206 641.046, 328.201 636.620, 326.590 635.442 C 325.715 634.803, 325 633.542, 325 632.640 C 325 630.504, 324.664 630.555, 320.193 633.378 C 306.886 641.779, 295.106 645.024, 289.905 641.723 C 288.582 640.883, 286.017 639.887, 284.205 639.509 C 280.510 638.738, 276.643 633.730, 275.512 628.251 C 274.919 625.378, 274.549 625.075, 272.318 625.635 C 270.172 626.174, 268.952 625.374, 264.148 620.279 C 259.373 615.217, 255.336 612, 253.757 612 C 253.551 612, 252.509 612.661, 251.441 613.468" stroke="#bbc0d1" fill="#bbc0d1" fill-opacity="0.2" fill-rule="evenodd"/><path class="svg-region-OVr" d="M 528 399.990 C 526.689 400.905, 526.721 401.167, 528.250 402.068 C 529.212 402.635, 530 403.697, 530 404.427 C 530 405.158, 530.614 406.264, 531.364 406.887 C 532.129 407.522, 532.951 410.797, 533.236 414.349 C 533.919 422.854, 536.030 426, 541.056 426 C 543.160 426, 545.160 425.550, 545.500 425 C 545.840 424.450, 548.540 424, 551.500 424 C 554.460 424, 557.160 424.450, 557.500 425 C 557.840 425.550, 559.128 426, 560.363 426 C 561.597 426, 564.046 427.484, 565.804 429.298 C 568.733 432.319, 568.999 433.135, 568.984 439.048 C 568.976 442.596, 568.317 448.200, 567.520 451.500 C 565.241 460.939, 565.420 462, 569.291 462 C 572.046 462, 573.696 463.139, 579.429 469 C 583.196 472.850, 586.635 476, 587.073 476 C 587.511 476, 589.020 475.563, 590.426 475.028 C 595.247 473.195, 596.282 474.539, 595.521 481.646 C 594.864 487.788, 595.425 489.175, 597.664 486.936 C 598.936 485.664, 618.528 483.670, 621.774 484.481 C 624.017 485.042, 624.028 485.002, 622.555 481.477 C 621.733 479.511, 620.542 473.996, 619.906 469.221 C 619.243 464.237, 618.166 460.104, 617.378 459.519 C 616.624 458.959, 614.411 453.797, 612.461 448.049 C 608.335 435.888, 606.118 431.955, 601.334 428.306 C 599.423 426.848, 596.494 423.672, 594.826 421.248 C 592.876 418.413, 590.310 416.204, 587.633 415.057 C 585.344 414.076, 582.866 412.544, 582.126 411.652 C 579.152 408.068, 566.871 403.838, 553 401.619 C 539.008 399.380, 529.739 398.776, 528 399.990" stroke="#593939" fill="#593939" fill-opacity="0.2" fill-rule="evenodd"/>
    </svg>