<svg xmlns="http://www.w3.org/2000/svg" width="1078" height="1151" viewBox="0 0 1078 1151" version="1.1">
    <path class="svg-region-V" d="M 495.500 234.982 C 492.750 235.401, 488.700 236.276, 486.500 236.926 C 484.300 237.577, 480.045 238.778, 477.044 239.595 C 466.827 242.379, 446.915 253.767, 438.461 261.662 C 436.789 263.223, 433.414 266.059, 430.961 267.966 C 421.454 275.352, 416.043 281.246, 415.388 284.933 C 415.038 286.895, 414.001 289.400, 413.081 290.500 C 410.642 293.417, 409.390 296.726, 408.104 303.653 C 407.476 307.037, 406.081 312.437, 405.005 315.653 C 402.440 323.322, 402.210 346.234, 404.589 357.185 C 405.464 361.208, 406.814 367.425, 407.589 371 C 408.365 374.574, 409 379.342, 409 381.595 C 409 388.445, 410.982 389.427, 423.283 388.675 C 428.942 388.329, 435.084 387.518, 436.932 386.874 C 439.381 386.020, 444.248 385.946, 454.896 386.600 C 462.928 387.094, 477.825 387.498, 488 387.499 L 506.500 387.500 516 382.397 C 527.141 376.412, 532.373 373, 536.500 369.025 C 546.228 359.657, 557 348.827, 557 348.415 C 557 348.151, 558.973 344.912, 561.385 341.218 C 563.796 337.523, 566.108 333.375, 566.522 332 C 566.937 330.625, 568.339 327.166, 569.638 324.314 C 570.937 321.462, 572 317.581, 572 315.690 C 572 313.799, 572.675 310.338, 573.500 308 C 576.182 300.399, 575.470 290.540, 571.433 279.369 C 566.863 266.722, 562.415 257.694, 559.112 254.360 C 545.767 240.889, 533.399 235.894, 510.500 234.730 C 505 234.450, 498.250 234.564, 495.500 234.982" stroke="#dd8a8a" fill="#dd8a8a" fill-opacity="0.2" fill-rule="evenodd"/><path class="svg-region-AAB" d="M 556.743 566.040 C 554.375 567.478, 551 574.284, 551 577.621 C 551 580.747, 556.625 597.375, 558.862 600.863 C 560.306 603.113, 560.800 603.206, 569.184 602.806 C 577.086 602.428, 578.278 602.108, 580.799 599.692 C 582.345 598.212, 584.488 597, 585.562 597 C 590.498 597, 595.539 581.764, 592.009 577.511 C 586.130 570.427, 562.288 562.671, 556.743 566.040" stroke="#7f3c1a" fill="#7f3c1a" fill-opacity="0.2" fill-rule="evenodd"/><path class="svg-region-DB" d="M 436.115 387.021 C 434.803 387.579, 429.049 388.322, 423.329 388.672 C 417.608 389.022, 412.727 389.633, 412.482 390.030 C 411.817 391.104, 411.755 430.698, 412.383 452.990 C 412.867 470.200, 412.701 473.404, 410.966 480.377 C 409.884 484.721, 409 489.450, 408.999 490.887 C 408.999 492.324, 408.151 495.750, 407.115 498.500 C 406.079 501.250, 404.911 505.525, 404.519 508 C 404.128 510.475, 403.176 513.497, 402.404 514.715 C 401.632 515.933, 401 518.039, 401 519.394 C 401 522.468, 408.057 533.243, 411.962 536.130 C 413.564 537.314, 415.410 539.575, 416.064 541.155 C 416.801 542.933, 418.251 544.256, 419.877 544.633 C 423.088 545.376, 424.939 547.518, 424.342 549.802 C 423.976 551.200, 425.857 552.118, 434.697 554.858 C 440.639 556.699, 448.069 559.509, 451.209 561.103 C 454.349 562.696, 457.601 564, 458.436 564 C 459.271 564, 460.700 565.139, 461.613 566.532 L 463.272 569.064 465.642 565.576 C 469.589 559.768, 476.005 556, 481.946 556 C 488.983 556, 494.615 557.919, 498.822 561.750 C 503.112 565.656, 503.769 565.736, 504.999 562.502 C 505.923 560.071, 515.717 550, 517.157 550 C 517.552 550, 519.330 547.975, 521.107 545.500 C 523.950 541.542, 524.790 541, 528.088 541 C 531.294 541, 532.150 541.507, 534 544.500 C 536.790 549.014, 538.669 548.935, 539.927 544.250 C 540.481 542.188, 541.560 538.188, 542.325 535.363 L 543.715 530.225 539.694 529.686 C 537.483 529.389, 534.509 528.207, 533.087 527.059 C 531.664 525.911, 529.375 524.480, 528 523.879 C 522.980 521.685, 522.494 521.252, 522.188 518.699 C 522.017 517.269, 522.353 515.209, 522.935 514.122 C 523.965 512.198, 541.414 500, 543.137 500 C 543.612 500, 544 501.055, 544 502.345 C 544 503.635, 544.911 505.514, 546.024 506.521 C 549.747 509.891, 550.446 507.354, 550.525 490.203 C 550.565 481.544, 550.894 473.980, 551.256 473.395 C 552.054 472.104, 550.003 465, 548.832 465 C 547.640 465, 547.800 450.242, 549 449.500 C 549.550 449.160, 550 448.052, 550 447.037 C 550 444.915, 557.555 429.864, 560.831 425.461 C 562.042 423.832, 565.203 420.925, 567.855 419 C 570.508 417.075, 573.472 414.454, 574.442 413.175 C 576.149 410.926, 576.132 410.769, 573.929 408.425 C 572.676 407.091, 570.974 406, 570.147 406 C 568.494 406, 566.337 405.365, 554.644 401.436 C 550.215 399.947, 542.799 398.439, 537.644 397.979 C 524.678 396.821, 515.282 393.768, 511.395 389.451 C 508.480 386.213, 508.093 386.072, 505.060 387.129 C 501.966 388.207, 491.161 388.082, 451 386.500 C 443.603 386.208, 437.526 386.421, 436.115 387.021" stroke="#e8b1e4" fill="#e8b1e4" fill-opacity="0.2" fill-rule="evenodd"/><path class="svg-region-IBr" d="M 515.300 550.473 C 510.240 555.540, 505.529 560.994, 504.830 562.593 C 504.131 564.192, 502.084 566.932, 500.281 568.682 C 495.859 572.973, 495 575.689, 495 585.371 C 495 592.591, 495.310 594.031, 497.500 597 C 498.875 598.864, 500 600.915, 500 601.559 C 500 603.613, 523.211 604.343, 531.500 602.549 C 535.350 601.716, 540.248 601.027, 542.384 601.017 C 546.525 600.999, 553.726 599.233, 555.685 597.757 C 556.570 597.089, 556.129 594.796, 553.940 588.682 C 552.328 584.182, 551.008 579.245, 551.005 577.710 C 550.999 574.321, 554.360 567.457, 556.655 566.173 C 558.196 565.311, 558.177 564.988, 556.400 561.944 C 553.851 557.580, 543.334 549.301, 539.264 548.455 C 537.070 547.999, 535.355 546.692, 533.933 544.391 C 532.130 541.474, 531.324 541.018, 528.168 541.130 C 524.944 541.245, 523.387 542.375, 515.300 550.473" stroke="#b10e0e" fill="#b10e0e" fill-opacity="0.2" fill-rule="evenodd"/><path class="svg-region-LBr" d="M 471.957 559.384 C 464.966 564.516, 464.032 566.482, 464.975 574.079 C 466.090 583.070, 464.380 584.548, 455.713 582.081 C 451.306 580.828, 450.818 580.866, 449.572 582.570 C 448.356 584.233, 448.840 585.096, 454.331 591.050 L 460.443 597.678 466.471 595.219 C 474.244 592.048, 488.198 591.015, 492.579 593.285 L 495.500 594.799 495.166 587.254 C 494.706 576.869, 495.504 573.683, 499.626 569.438 L 503.179 565.780 499.932 562.430 C 495.951 558.323, 489.453 555.992, 482.072 556.025 C 477.353 556.046, 475.805 556.560, 471.957 559.384" stroke="#d7b230" fill="#d7b230" fill-opacity="0.2" fill-rule="evenodd"/><path class="svg-region-LPr" d="M 580.778 599.677 C 578.393 602.061, 577.175 602.402, 569.608 602.799 C 561.403 603.230, 561.036 603.154, 558.807 600.585 C 556.503 597.928, 556.494 597.926, 551.500 599.451 C 548.750 600.291, 544.475 600.990, 542 601.005 C 539.525 601.019, 534.800 601.683, 531.500 602.480 C 528.200 603.277, 523.493 603.945, 521.040 603.964 L 516.580 604 520.625 607.750 C 526.247 612.963, 528.002 615.876, 527.987 619.973 C 527.974 623.561, 524.487 635.539, 521.023 643.889 C 519.972 646.425, 518.683 651.425, 518.159 655 C 517.635 658.575, 516.035 664.059, 514.603 667.186 C 513.171 670.313, 512 674.224, 512 675.877 C 512 677.530, 511.522 679.177, 510.938 679.538 C 509.502 680.426, 508.126 684.123, 506.055 692.662 C 504.073 700.828, 497.063 712.925, 490.553 719.412 C 484.472 725.472, 476.869 732.155, 473.750 734.183 C 470.280 736.439, 470.310 738.678, 473.864 742.581 C 476.521 745.499, 484.630 749.007, 488.688 748.994 C 495.284 748.974, 498.539 746.762, 512 733.151 C 519.425 725.643, 528.530 716.865, 532.233 713.645 C 535.936 710.425, 540.085 705.925, 541.453 703.645 C 545.514 696.876, 551 685.663, 551 684.131 C 551 683.347, 552.490 680.860, 554.310 678.603 C 556.131 676.346, 558.663 671.575, 559.936 668 C 561.210 664.425, 563.285 659.700, 564.548 657.500 C 565.810 655.300, 567.606 650.800, 568.539 647.500 C 572.552 633.310, 577.086 621.263, 583.860 606.792 C 585.587 603.102, 587 599.390, 587 598.542 C 587 596.132, 583.725 596.729, 580.778 599.677" stroke="#d2454f" fill="#d2454f" fill-opacity="0.2" fill-rule="evenodd"/><path class="svg-region-DMr" d="M 470 593.941 C 466.975 594.939, 461.741 596.919, 458.369 598.341 C 452.500 600.815, 451.847 600.882, 443.122 599.908 C 434.771 598.975, 433.505 599.073, 428.016 601.074 C 423.160 602.845, 420.541 603.173, 414.182 602.804 C 409.088 602.509, 405.500 601.763, 403.947 600.675 C 399.191 597.344, 387.279 599.563, 382.834 604.609 C 381.918 605.649, 380.389 608.525, 379.438 611 C 378.486 613.475, 376.261 617.075, 374.493 619 C 367.556 626.554, 363.270 632.982, 362.070 637.634 C 360.429 643.995, 359.179 646.595, 355.250 651.827 C 352.199 655.888, 350.890 661, 352.901 661 C 354.166 661, 362.357 669.408, 367.757 676.250 C 370.253 679.413, 372.949 682, 373.748 682 C 374.546 682, 376.657 683.462, 378.439 685.250 C 381.310 688.131, 381.755 689.339, 382.359 695.894 C 383.197 704.982, 382.097 707.073, 374.704 710.438 C 367.550 713.696, 357.201 716.997, 354.085 717.015 C 352.663 717.024, 350.871 717.429, 350.103 717.915 C 348.975 718.629, 349.120 719.058, 350.853 720.140 C 352.034 720.878, 353 721.998, 353 722.629 C 353 724.242, 359.253 725.235, 362.244 724.097 C 364.049 723.411, 365.529 723.568, 367.618 724.667 C 369.970 725.904, 371.109 725.966, 373.811 725.005 C 375.633 724.357, 382.158 723.794, 388.311 723.754 C 397.753 723.692, 400.359 724.034, 405 725.944 C 408.025 727.188, 411.400 728.574, 412.500 729.022 C 416.763 730.761, 420.723 730.882, 422.922 729.342 C 424.415 728.296, 426.169 728.004, 428.317 728.444 C 430.068 728.802, 433.075 729.326, 435 729.609 C 436.925 729.892, 439.400 730.538, 440.500 731.044 C 446.402 733.760, 465.200 736.560, 470.655 735.537 C 472.913 735.113, 475.718 733.354, 478.387 730.686 C 480.690 728.384, 485.033 724.419, 488.037 721.875 C 494.812 716.140, 504.325 701.188, 505.951 693.722 C 507.776 685.340, 509.235 681.050, 510.665 679.863 C 511.399 679.254, 512.002 677.348, 512.004 675.628 C 512.006 673.907, 513.137 670.276, 514.516 667.558 C 515.895 664.840, 517.468 659.665, 518.013 656.058 C 519.478 646.349, 520.937 641.229, 524.283 634.053 C 529.364 623.158, 529.239 616.620, 523.830 610.459 C 519.207 605.193, 514.219 603.004, 506.790 602.978 C 500.692 602.957, 500.454 602.859, 499 599.738 C 496.410 594.180, 491.875 591.990, 483.102 592.063 C 478.610 592.100, 473.250 592.868, 470 593.941" stroke="#68533d" fill="#68533d" fill-opacity="0.2" fill-rule="evenodd"/><path class="svg-region-PMr" d="M 320.641 655.512 C 317.968 657.337, 314.603 660.487, 313.162 662.512 C 311.721 664.537, 306.933 668.797, 302.521 671.979 C 293.713 678.332, 289.522 679.780, 272.276 682.433 C 262.017 684.012, 260.490 683.918, 249.500 681.040 C 247.850 680.608, 243.804 680.535, 240.510 680.877 C 235.911 681.355, 234.443 681.905, 234.188 683.244 C 233.732 685.637, 237.318 690.416, 241.518 693.011 C 244.062 694.583, 245.009 695.882, 245.033 697.832 C 245.073 701.046, 246.451 702.709, 255.519 710.490 C 259.359 713.785, 265.085 719.072, 268.243 722.240 C 271.402 725.408, 274.608 728, 275.366 728 C 276.125 728, 278.152 729.647, 279.872 731.660 C 285.417 738.152, 289.492 739.300, 304.500 738.598 C 317.498 737.991, 317.502 737.990, 326.500 733.386 C 331.450 730.853, 337.606 727.030, 340.179 724.890 C 342.753 722.751, 345.272 721, 345.776 721 C 346.281 721, 347.732 720.100, 349 719 C 350.268 717.900, 352.669 717, 354.335 717 C 357.446 717, 371.751 712.408, 373.450 710.863 C 373.972 710.389, 375.170 710, 376.111 710 C 377.052 710, 379.019 708.578, 380.481 706.840 C 383.016 703.827, 383.109 703.324, 382.462 696.090 C 381.868 689.451, 381.396 688.093, 378.695 685.250 C 376.997 683.462, 374.850 682, 373.924 682 C 372.998 682, 370.453 679.638, 368.268 676.750 C 366.084 673.862, 361.745 668.913, 358.627 665.750 C 353.256 660.303, 352.700 660, 348.055 660 C 339.743 660, 333.583 658.101, 331.419 654.870 C 328.971 651.217, 326.736 651.350, 320.641 655.512" stroke="#90cf92" fill="#90cf92" fill-opacity="0.2" fill-rule="evenodd"/><path class="svg-region-Fr" d="M 332.207 512.953 C 330.718 513.762, 327.908 515.397, 325.962 516.586 C 324.016 517.775, 320.866 519.082, 318.962 519.489 C 317.058 519.897, 315.050 520.590, 314.500 521.029 C 313.950 521.469, 310.211 522.283, 306.192 522.840 C 299.778 523.728, 298.371 524.324, 294.692 527.710 C 291.689 530.474, 288.872 531.957, 284.761 532.941 C 278.143 534.525, 273.474 538.894, 267.915 548.706 C 266.109 551.893, 264.328 554.725, 263.956 555 C 261.648 556.706, 257.169 570.538, 256.266 578.750 C 255.657 584.289, 258 584.550, 260.750 579.250 C 261.820 577.188, 263.214 575.545, 263.848 575.600 C 264.482 575.655, 266.238 575.778, 267.750 575.873 C 269.285 575.970, 272.159 577.541, 274.254 579.428 C 277.990 582.794, 278.045 582.808, 285.816 582.275 C 292.381 581.825, 294.393 582.080, 298.458 583.878 C 305.382 586.941, 312.253 587.481, 320.312 585.594 C 336.907 581.710, 344.692 584.984, 354.942 600.155 C 358.274 605.086, 361 609.530, 361 610.030 C 361 610.531, 359.842 613.471, 358.428 616.565 C 355.650 622.637, 355.833 624.366, 358.953 621.542 C 360.892 619.788, 360.923 619.886, 361.213 628.632 L 361.507 637.500 363.181 634 C 364.102 632.075, 367.475 627.409, 370.678 623.631 C 373.880 619.854, 377.292 615.129, 378.260 613.131 C 381.855 605.712, 382.559 604.650, 385.167 602.714 C 386.635 601.624, 389.994 600.185, 392.632 599.515 L 397.430 598.296 393.465 595.757 C 387.521 591.951, 383.636 587.304, 379.619 579.195 C 375.428 570.735, 375.124 566.858, 378 558.500 C 379.100 555.303, 380 551.617, 380 550.308 C 380 549, 380.765 546.762, 381.700 545.336 C 383.382 542.768, 383.361 542.711, 379.614 539.705 C 377.383 537.916, 374.863 534.485, 373.478 531.355 C 370.639 524.936, 364.426 518.775, 357 515.014 C 350.241 511.592, 336.771 510.472, 332.207 512.953" stroke="#5ca7a9" fill="#5ca7a9" fill-opacity="0.2" fill-rule="evenodd"/><path class="svg-region-PCr" d="M 261.045 578.159 C 259.924 579.996, 259.006 581.837, 259.004 582.250 C 259.002 582.663, 258.212 583.001, 257.250 583.002 C 255.093 583.004, 250.569 590.023, 249.062 595.705 C 248.449 598.017, 246.834 601.232, 245.474 602.849 C 242.797 606.030, 242.173 610, 244.350 610 C 245.092 610, 247.498 608.697, 249.696 607.105 C 254.138 603.887, 259.405 601, 260.833 601 C 261.639 601, 263.913 605.270, 268.289 615 C 268.908 616.375, 270.049 618.270, 270.826 619.210 C 271.768 620.352, 272.025 622.051, 271.599 624.322 C 270.830 628.421, 272.035 629.674, 277.550 630.513 C 280.469 630.958, 282.534 630.578, 285.461 629.057 C 290.929 626.218, 303.109 626.159, 307.686 628.950 C 310.229 630.500, 310.936 631.662, 311.186 634.697 L 311.500 638.500 318.879 638.356 L 326.258 638.212 325.703 643.591 C 325.213 648.335, 325.413 649.180, 327.388 650.735 C 328.621 651.706, 330.419 653.707, 331.385 655.182 C 333.309 658.120, 339.567 660, 347.424 660 C 351.336 660, 351.805 659.737, 352.329 657.250 C 352.648 655.737, 354.097 653.150, 355.548 651.500 C 361.049 645.249, 361.488 643.462, 361.183 628.595 C 361.001 619.749, 360.987 619.702, 358.994 621.506 C 355.895 624.310, 355.741 622.834, 358.487 616.625 C 359.869 613.500, 361 610.518, 361 609.999 C 361 608.150, 349.100 591.450, 346.324 589.404 C 338.390 583.554, 333.863 583.049, 316 586.016 C 308.929 587.191, 308.157 587.130, 302.500 584.942 C 297.865 583.149, 294.312 582.590, 286.880 582.482 C 277.538 582.348, 277.161 582.252, 273.880 579.176 C 272.021 577.435, 269.524 576.007, 268.332 576.005 C 267.139 576.002, 265.470 575.734, 264.623 575.409 C 263.591 575.013, 262.408 575.922, 261.045 578.159" stroke="#465ee0" fill="#465ee0" fill-opacity="0.2" fill-rule="evenodd"/><path class="svg-region-Or" d="M 699 151.921 C 695.975 153.564, 690.125 156.331, 686 158.069 C 681.875 159.808, 673.189 164.441, 666.698 168.365 C 660.207 172.289, 652.332 176.971, 649.198 178.768 C 642.255 182.751, 621.048 204.386, 614.105 214.569 L 609.286 221.638 608.556 242.742 C 607.829 263.746, 607.838 263.881, 610.413 271.341 C 611.836 275.463, 613 280.646, 613 282.859 C 613 285.072, 613.393 287.125, 613.874 287.422 C 615.768 288.593, 618.080 335.876, 618.033 372.500 C 618.010 390.100, 618.176 420.475, 618.400 440 C 618.637 460.572, 618.409 477.182, 617.858 479.500 C 616.286 486.104, 614.071 512.021, 612.943 537 C 612.359 549.925, 611.198 564.775, 610.363 570 C 604.606 606.029, 604.611 622.184, 610.382 634.319 C 611.737 637.168, 613.559 641.150, 614.430 643.166 C 615.302 645.183, 620.295 651.483, 625.527 657.166 C 630.759 662.850, 636.851 670.188, 639.065 673.474 C 641.280 676.760, 648.735 685.264, 655.633 692.371 C 668.613 705.746, 670.607 707.069, 681 709.209 C 702.626 713.663, 714.750 712.289, 732.307 703.398 C 738.463 700.281, 744.711 696.717, 746.192 695.479 C 747.672 694.241, 751.137 692.687, 753.892 692.026 C 756.647 691.365, 759.428 690.189, 760.073 689.412 C 760.751 688.595, 763.064 688, 765.563 688 C 767.939 688, 770.160 687.550, 770.500 687 C 771.273 685.749, 783.261 685.674, 784.550 686.912 C 787.478 689.725, 820.683 690.244, 824 687.529 C 825.724 686.118, 838.268 680, 839.437 680 C 839.866 680, 842.980 677.815, 846.358 675.144 C 849.736 672.474, 853.447 669.793, 854.604 669.187 C 856.517 668.186, 860.218 665.323, 868.465 658.466 C 870.096 657.110, 871.767 656, 872.178 656 C 872.589 656, 875.156 651.612, 877.881 646.250 C 880.606 640.888, 885.329 631.775, 888.376 626 C 908.158 588.508, 916.927 569.339, 923.830 548.500 C 940.462 498.287, 942.827 490.054, 945.082 474.500 C 947.526 457.637, 947.499 457.981, 949.469 419.500 C 950.450 400.349, 950.596 389.920, 949.932 386.500 C 949.398 383.750, 948.556 378.125, 948.061 374 C 946.296 359.295, 942.947 342.422, 940.817 337.500 C 937.906 330.773, 927.746 308.497, 922.801 298 C 920.599 293.325, 918.081 287.700, 917.204 285.500 C 914.806 279.479, 909.717 271.207, 904.286 264.500 C 901.613 261.200, 897.964 256.475, 896.176 254 C 894.389 251.525, 891.256 247.432, 889.213 244.904 C 887.171 242.376, 880.841 234.501, 875.147 227.404 C 866.298 216.374, 863.756 213.884, 857.647 210.254 C 847.997 204.522, 841.831 200.736, 833.500 195.429 C 829.650 192.976, 824.629 190.074, 822.343 188.979 C 820.056 187.884, 815.191 185.169, 811.532 182.946 C 807.873 180.723, 803.722 178.465, 802.309 177.927 C 800.895 177.390, 798.560 176.129, 797.119 175.125 C 791.493 171.204, 771.190 161.162, 765.500 159.486 C 762.200 158.514, 753.875 155.963, 747 153.817 C 735.405 150.197, 733.414 149.879, 719.500 149.424 L 704.500 148.933 699 151.921" stroke="#aa444d" fill="#aa444d" fill-opacity="0.2" fill-rule="evenodd"/><path class="svg-region-VOC" d="M 534.500 505.064 C 530.650 507.787, 526.761 510.251, 525.858 510.540 C 523.824 511.192, 521.722 516.042, 522.168 519.053 C 522.494 521.253, 522.955 521.638, 528 523.915 C 529.375 524.535, 532.029 526.158, 533.898 527.521 C 537.953 530.479, 540.976 530.632, 546.434 528.154 C 548.670 527.139, 551.713 525.810, 553.196 525.200 C 556.132 523.993, 557.420 520.046, 556.827 514.075 C 556.537 511.154, 555.995 510.620, 552 509.323 C 547.097 507.730, 544 504.853, 544 501.889 C 544 499.030, 542.164 499.644, 534.500 505.064" stroke="#ff8f93" fill="#ff8f93" fill-opacity="0.2" fill-rule="evenodd"/><path class="svg-region-OABr" d="M 599.058 484.158 C 597.164 485.136, 595.254 486.582, 594.813 487.370 C 594.371 488.159, 591.871 490.049, 589.255 491.571 C 586.640 493.093, 583.678 495.275, 582.674 496.419 C 575.636 504.442, 574.914 505, 571.585 505 C 569.733 505, 566.257 505.890, 563.859 506.978 C 561.462 508.066, 558.472 508.966, 557.215 508.978 C 555.267 508.997, 555.083 509.286, 555.965 510.934 C 557.262 513.358, 557.301 519.077, 556.044 522.385 C 555.391 524.102, 553.885 525.234, 551.294 525.956 C 544.928 527.728, 543.212 529.771, 541.595 537.500 C 540.790 541.350, 539.842 545.253, 539.488 546.173 C 539.050 547.312, 539.588 548.239, 541.172 549.077 C 546.136 551.699, 555.087 559.268, 556.533 562.064 C 557.891 564.690, 558.556 565, 562.826 565 C 565.452 565, 568.028 565.400, 568.550 565.889 C 569.073 566.378, 572.200 567.544, 575.500 568.479 C 578.800 569.414, 582.176 570.783, 583.002 571.520 C 583.828 572.257, 585.740 573.331, 587.251 573.905 C 591.084 575.363, 594.183 580.690, 593.415 584.500 L 592.810 587.500 595.864 584 C 597.544 582.075, 598.937 580.199, 598.959 579.832 C 599.050 578.339, 605.723 575.115, 607.669 575.624 C 610.540 576.374, 610.808 574.632, 611.995 547.500 C 612.549 534.850, 613.438 520.900, 613.971 516.500 C 615.719 502.065, 616.380 483.353, 615.167 482.604 C 614.558 482.227, 612.696 482.623, 611.029 483.485 C 608.443 484.822, 607.598 484.856, 605.250 483.716 C 602.865 482.558, 602.043 482.616, 599.058 484.158 M 549.459 507.067 C 548.654 508.369, 548.845 508.553, 552 509.509 C 554.489 510.262, 554.492 510.256, 552.595 508.133 C 550.394 505.669, 550.335 505.649, 549.459 507.067" stroke="#81244d" fill="#81244d" fill-opacity="0.2" fill-rule="evenodd"/><path class="svg-region-SOTr" d="M 560.647 460.395 C 557.727 463.362, 554.083 468.353, 552.550 471.487 C 550.074 476.548, 549.839 477.860, 550.446 483.226 C 550.822 486.549, 551.846 490.361, 552.720 491.696 C 554.179 493.922, 554.173 494.413, 552.656 497.596 C 550.518 502.078, 550.481 507.587, 552.582 508.393 C 555.582 509.544, 560.091 508.994, 564 507 C 566.156 505.900, 569.668 505, 571.804 505 C 575.246 505, 576.176 504.420, 579.995 499.890 C 582.365 497.080, 586.654 493.278, 589.526 491.440 C 595.443 487.655, 596 486.684, 596 480.152 C 596 475.642, 595.817 475.348, 591.060 472.234 C 587.340 469.799, 585.008 469, 581.617 469 C 576.581 469, 574 466.628, 574 462 C 574 458.350, 571.330 455, 568.421 455 C 566.762 455, 564.221 456.763, 560.647 460.395" stroke="#995b45" fill="#995b45" fill-opacity="0.2" fill-rule="evenodd"/><path class="svg-region-LBPCr" d="M 399.034 529.416 C 395.815 537.348, 390.660 543, 386.644 543 C 382.779 543, 380 545.867, 380 549.855 C 380 551.412, 379.100 555.303, 378 558.500 C 375.149 566.787, 375.445 570.623, 379.612 579.398 C 383.242 587.042, 390.483 595.055, 396.071 597.611 C 397.407 598.223, 400.300 599.532, 402.500 600.520 C 404.926 601.610, 409.844 602.490, 415 602.757 C 421.981 603.118, 424.441 602.823, 428.763 601.108 C 433.512 599.223, 434.916 599.111, 443.155 599.964 C 452.714 600.952, 459 599.709, 459 596.830 C 459 596.130, 456.551 593.070, 453.558 590.029 C 448.657 585.050, 448.252 584.317, 449.488 582.654 C 450.778 580.920, 451.173 580.900, 456.048 582.329 C 459.880 583.453, 461.835 583.576, 463.533 582.803 C 465.638 581.844, 465.786 581.285, 465.297 576.128 C 465.004 573.033, 464.227 570.050, 463.570 569.500 C 462.913 568.950, 462.077 567.702, 461.711 566.727 C 461.345 565.752, 460.248 564.702, 459.273 564.393 C 458.298 564.084, 454.773 562.519, 451.440 560.916 C 448.107 559.312, 444.646 558, 443.749 558 C 442.852 558, 441.873 557.603, 441.573 557.119 C 441.274 556.634, 437.190 555.178, 432.498 553.883 C 426.402 552.201, 424.113 551.148, 424.480 550.192 C 425.328 547.982, 423.253 545.301, 420.225 544.695 C 418.397 544.329, 416.924 543.129, 416.109 541.340 C 415.411 539.808, 413.162 537.118, 411.110 535.362 C 409.059 533.606, 406.551 530.331, 405.538 528.085 C 404.525 525.838, 403.142 524, 402.464 524 C 401.787 524, 400.243 526.437, 399.034 529.416" stroke="#daffff" fill="#daffff" fill-opacity="0.2" fill-rule="evenodd"/><path class="svg-region-PNr" d="M 258 601.722 C 257.175 602.032, 253.942 604.066, 250.815 606.242 C 247.688 608.418, 244.719 609.944, 244.216 609.633 C 243.065 608.922, 239.448 613.010, 238.458 616.140 C 238.048 617.438, 236.708 619.850, 235.480 621.500 C 234.253 623.150, 232.934 626.300, 232.550 628.500 C 232.166 630.700, 231.210 633.498, 230.424 634.718 C 229.639 635.937, 228.093 639.227, 226.989 642.029 C 225.253 646.432, 225.110 648.029, 225.929 653.811 C 227.259 663.196, 227.938 665.923, 230.104 670.566 C 231.147 672.802, 232 675.143, 232 675.769 C 232 676.394, 232.480 677.960, 233.067 679.248 C 234.082 681.476, 234.460 681.556, 240.817 680.895 C 244.493 680.513, 247.869 680.426, 248.320 680.702 C 248.772 680.979, 252.147 681.847, 255.820 682.633 C 261.711 683.892, 263.682 683.873, 272.500 682.476 C 293.805 679.100, 300.114 676.047, 313.597 662.585 C 317.500 658.688, 322.143 654.428, 323.915 653.118 C 326.026 651.556, 326.797 650.397, 326.152 649.752 C 325.608 649.208, 325.412 646.411, 325.713 643.490 L 326.258 638.212 318.879 638.356 L 311.500 638.500 311.197 634.339 C 310.934 630.729, 310.450 629.967, 307.546 628.589 C 302.425 626.159, 290.182 626.451, 284.657 629.136 C 280.594 631.110, 279.929 631.166, 275.881 629.873 C 271.747 628.554, 271.515 628.284, 271.774 625.092 C 271.968 622.692, 270.733 619.101, 267.524 612.727 C 265.036 607.786, 263 603.127, 263 602.372 C 263 600.983, 260.744 600.690, 258 601.722" stroke="#bbc0d1" fill="#bbc0d1" fill-opacity="0.2" fill-rule="evenodd"/><path class="svg-region-OVr" d="M 574.689 412.260 C 573.693 414.119, 571.623 416.382, 570.089 417.289 C 565.515 419.990, 559.562 426.512, 556.963 431.669 C 555.623 434.326, 554.296 436.725, 554.013 437 C 552.826 438.156, 550 445.221, 550 447.034 C 550 448.115, 549.550 449, 549 449 C 548.425 449, 548 452.104, 548 456.312 C 548 461.662, 548.556 464.775, 550.072 467.913 L 552.144 472.201 553.822 469.113 C 556.687 463.842, 565.836 455, 568.426 455 C 571.011 455, 574 458.709, 574 461.918 C 574 463.011, 574.522 465.052, 575.161 466.453 C 576.148 468.619, 576.977 469, 580.710 469 C 585.359 469, 590.041 470.899, 593.750 474.291 C 595.419 475.818, 596 477.465, 596 480.674 C 596 484.173, 596.344 485, 597.800 485 C 598.790 485, 600.140 484.460, 600.801 483.799 C 601.735 482.865, 602.769 482.876, 605.460 483.849 C 608.406 484.915, 609.288 484.858, 611.415 483.464 C 612.788 482.564, 614.291 482.062, 614.754 482.348 C 615.217 482.634, 616.249 482.463, 617.048 481.967 C 618.992 480.762, 618.709 464.058, 616.669 459.609 C 615.885 457.899, 615.175 453.858, 615.092 450.629 C 614.943 444.831, 613.836 441.449, 611.448 439.500 C 610.774 438.950, 609.937 436.865, 609.588 434.867 C 609.102 432.086, 608.022 430.619, 604.977 428.603 C 602.790 427.156, 600.931 425.191, 600.848 424.236 C 600.764 423.281, 600.645 421.998, 600.583 421.386 C 600.349 419.076, 597.638 417.008, 592.159 414.961 C 589.047 413.799, 585.825 412.245, 585 411.508 C 584.175 410.772, 581.925 409.879, 580 409.524 C 576.778 408.931, 576.356 409.148, 574.689 412.260" stroke="#593939" fill="#593939" fill-opacity="0.2" fill-rule="evenodd"/>
    </svg>