<svg xmlns="http://www.w3.org/2000/svg" width="1078" height="1151" viewBox="0 0 1078 1151" version="1.1">
    <path class="svg-region-V" d="M 472 245.392 C 456.066 251.071, 444.523 258.876, 436.754 269.223 C 433.748 273.225, 430.544 277.850, 429.632 279.500 C 427.169 283.957, 426.132 285.474, 418.748 295.412 C 414.672 300.900, 408.755 311.037, 403.813 321 C 395.662 337.435, 395.628 337.536, 395.201 346.638 C 394.928 352.442, 395.232 357.172, 396.033 359.599 C 397.370 363.650, 403.748 374.266, 405.190 374.841 C 407.026 375.573, 413.207 382.687, 415.038 386.177 C 416.098 388.200, 417.945 390.165, 419.141 390.545 C 420.338 390.925, 425.633 390.949, 430.908 390.599 C 438.407 390.102, 442.490 390.381, 449.620 391.877 C 455.582 393.128, 460.949 393.624, 465.120 393.308 C 470.834 392.876, 471.860 393.096, 474.944 395.413 C 479.325 398.704, 482 398.803, 482 395.674 C 482 393.076, 484.549 390.468, 490.500 386.977 C 492.700 385.686, 495.850 383.550, 497.500 382.230 C 499.150 380.911, 505.900 376.319, 512.500 372.026 C 528.205 361.812, 536.482 353.296, 542.057 341.618 C 544.330 336.859, 546.794 330.610, 547.534 327.732 C 548.275 324.855, 550.122 319.080, 551.641 314.901 C 554.398 307.310, 554.400 307.286, 553.359 293.401 C 552.377 280.289, 552.103 279.074, 548.531 272 C 541.461 257.998, 537.629 254.499, 523.600 249.238 C 518.595 247.361, 512.925 245.209, 511 244.456 C 508.614 243.523, 502.884 243.086, 493 243.081 C 480.366 243.076, 477.664 243.373, 472 245.392" stroke="#dd8a8a" fill="#dd8a8a" fill-opacity="0.2" fill-rule="evenodd"/><path class="svg-region-AAB" d="M 547.750 576.721 C 545.630 579.066, 545.514 584.774, 547.532 587.441 C 548.339 588.509, 549 591.046, 549 593.080 C 549 597.642, 551.173 600.240, 556.770 602.373 C 572.463 608.352, 587.645 596.050, 578.291 584.934 C 575.296 581.374, 568.891 578.056, 564.950 578.022 C 563.548 578.010, 561.966 577.566, 561.437 577.037 C 560.907 576.507, 558.004 575.783, 554.987 575.429 C 550.326 574.882, 549.236 575.077, 547.750 576.721" stroke="#7f3c1a" fill="#7f3c1a" fill-opacity="0.2" fill-rule="evenodd"/><path class="svg-region-DB" d="M 425.985 390.736 L 419.471 391.081 416.287 398.290 C 410.660 411.032, 409.980 418.083, 413.084 431.500 C 416.842 447.748, 417.171 466.402, 413.780 471.021 C 408.221 478.592, 406.205 481.906, 405.577 484.500 C 405.178 486.150, 403.901 488.518, 402.739 489.763 C 401.109 491.510, 400.898 492.298, 401.813 493.213 C 402.466 493.866, 403 495.363, 403 496.540 C 403 500.798, 407.063 514.438, 408.929 516.445 C 409.987 517.583, 411.373 521.402, 412.033 525 C 412.690 528.575, 413.626 532.534, 414.113 533.797 C 414.601 535.060, 415.019 537.085, 415.042 538.297 C 415.096 541.162, 417.680 545.818, 421.779 550.439 C 424.953 554.017, 425.173 554.098, 428.635 552.955 C 430.886 552.213, 434.490 552.026, 438.356 552.453 C 441.735 552.826, 446.840 553.214, 449.700 553.316 C 452.559 553.417, 455.462 554.063, 456.150 554.750 C 456.837 555.438, 458.505 556, 459.856 556 C 461.206 556, 463.786 557.125, 465.589 558.500 C 469.655 561.601, 471.795 561.669, 472.912 558.731 C 473.387 557.483, 475.840 554.558, 478.365 552.231 C 482.829 548.117, 483.144 548, 489.791 548 C 495.942 548, 496.889 548.275, 499.260 550.750 C 502.354 553.980, 505 559.867, 505 563.519 L 505 566.103 507.603 563.302 C 509.034 561.761, 511.122 558.708, 512.241 556.518 C 514.284 552.522, 528.886 537.100, 532.349 535.281 C 534.131 534.345, 534.120 534.155, 532.050 530.098 C 529.762 525.613, 529.873 524.224, 533.054 517.500 C 536.037 511.195, 537.574 509.685, 540.452 510.236 C 543.357 510.791, 543.542 510.301, 541.468 507.559 C 540.498 506.276, 540 503.215, 540 498.536 C 540 492.104, 540.325 490.960, 543.545 486.071 C 546.373 481.778, 546.969 480.062, 546.488 477.594 C 545.505 472.540, 536.859 446.559, 534.897 442.764 C 534.404 441.809, 534 440.107, 534 438.983 C 534 437.859, 532.886 434.294, 531.525 431.060 C 529.114 425.330, 527.564 420.116, 526.158 413.002 C 525.487 409.607, 525.299 409.483, 519.735 408.788 C 516.583 408.395, 513.133 407.606, 512.068 407.036 C 511.003 406.466, 508.152 406, 505.733 406 C 503.313 406, 498.720 405.475, 495.525 404.833 C 490.817 403.888, 489.411 403.131, 488.108 400.840 C 486.604 398.196, 484.340 397.373, 480.150 397.948 C 479.408 398.050, 477.044 396.916, 474.896 395.428 C 471.394 393.001, 470.371 392.779, 464.940 393.272 C 460.920 393.636, 455.798 393.183, 449.693 391.923 C 444.637 390.880, 438.700 390.108, 436.500 390.209 C 434.300 390.309, 429.568 390.547, 425.985 390.736" stroke="#e8b1e4" fill="#e8b1e4" fill-opacity="0.2" fill-rule="evenodd"/><path class="svg-region-IBr" d="M 548.726 531.999 C 547.039 533.034, 543.555 533.774, 539.840 533.885 C 535.416 534.018, 533.006 534.632, 531.114 536.106 C 524.974 540.891, 516.426 549.897, 513.180 555 C 511.256 558.025, 508.606 561.799, 507.291 563.386 C 505.637 565.382, 505.054 567.077, 505.398 568.886 C 505.671 570.324, 506.183 574.276, 506.536 577.668 L 507.177 583.837 512.339 584.526 C 515.284 584.919, 521.150 587.058, 526 589.508 C 536.313 594.715, 544.265 597.368, 546.980 596.506 C 549.421 595.732, 549.689 590.830, 547.500 587 C 545.135 582.863, 545.604 578.306, 548.596 576.345 C 551.251 574.606, 552.238 574.691, 563.861 577.670 C 566.146 578.256, 566.200 578.133, 565.534 573.888 C 565.156 571.475, 563.970 568.267, 562.900 566.759 C 560.087 562.798, 559.337 558.192, 561.378 557.408 C 563.579 556.564, 563.420 553.349, 561.026 550.306 C 559.941 548.926, 558.774 546.155, 558.433 544.149 C 558.092 542.142, 556.955 539.281, 555.907 537.790 C 554.858 536.300, 554 534.211, 554 533.147 C 554 530.439, 551.983 530, 548.726 531.999" stroke="#b10e0e" fill="#b10e0e" fill-opacity="0.2" fill-rule="evenodd"/><path class="svg-region-LPr" d="M 503.218 596.152 C 498.569 609.656, 498.171 613.030, 500.642 617.983 C 501.637 619.978, 502.580 625.454, 503.037 631.887 C 503.801 642.653, 505.497 648.509, 508.597 651.080 C 510.759 652.873, 513 658.160, 513 661.468 C 513 668.328, 522.669 661.801, 545.541 639.500 C 551.786 633.411, 555.212 629.233, 556.135 626.584 C 556.886 624.430, 558.737 621.427, 560.250 619.911 C 561.763 618.394, 563 616.493, 563 615.686 C 563 614.878, 564.787 612.056, 566.971 609.413 C 569.154 606.770, 570.753 604.419, 570.522 604.189 C 570.292 603.959, 567.718 603.673, 564.802 603.554 C 558.384 603.292, 552.282 601.025, 550.059 598.079 C 549.049 596.739, 547.807 596.137, 546.831 596.511 C 545.307 597.096, 536.310 594.818, 532.818 592.962 C 522.230 587.335, 516.691 585.021, 512.485 584.466 L 507.469 583.805 503.218 596.152" stroke="#d2454f" fill="#d2454f" fill-opacity="0.2" fill-rule="evenodd"/><path class="svg-region-DMr" d="M 478.292 552.250 C 476.024 554.587, 473.185 558.413, 471.983 560.750 C 470.052 564.506, 469.374 565.018, 466.149 565.152 C 464.142 565.236, 461.928 565.353, 461.228 565.412 C 460.528 565.471, 458.462 567.149, 456.637 569.142 C 454.811 571.134, 452.258 573.101, 450.964 573.512 C 449.669 573.923, 445.785 576.451, 442.333 579.129 C 436.956 583.302, 435.414 584, 431.566 584 C 429.095 584, 424.695 584.941, 421.787 586.092 C 418.383 587.439, 411.337 588.706, 402 589.651 C 394.025 590.458, 385.137 591.358, 382.250 591.651 C 379.363 591.945, 377.033 592.481, 377.073 592.843 C 377.113 593.204, 377.999 594.850, 379.041 596.500 C 380.084 598.150, 381.570 600.850, 382.345 602.500 C 383.120 604.150, 386.277 608.262, 389.359 611.637 C 395.810 618.701, 397 621.251, 397 628.008 C 397 631.002, 397.741 634.163, 398.919 636.193 C 402.032 641.555, 402.980 646.904, 403.556 662.347 C 404.175 678.973, 403.139 686.710, 399.395 693.409 C 397.849 696.176, 397.094 698.719, 397.468 699.899 C 398.882 704.354, 398.763 706.032, 396.860 708.450 C 395.757 709.853, 394.172 711, 393.337 711 C 391.769 711, 384.059 716.042, 384.021 717.092 C 383.996 717.793, 400.811 723.031, 403.027 723.013 C 403.868 723.006, 405.512 723.671, 406.682 724.490 C 408.601 725.834, 411.528 726.422, 428.520 728.877 C 431.440 729.299, 437.296 729.070, 442.520 728.330 C 461.013 725.708, 478.063 713.554, 484.432 698.453 C 488.315 689.246, 489.644 687.503, 502.250 675.081 C 511.617 665.850, 513 664.062, 513 661.178 C 513 657.426, 511.763 654.621, 508.510 651 C 505.155 647.264, 503 639.573, 503 631.333 C 503 626.443, 502.338 622.279, 501.001 618.761 C 499.901 615.867, 499.001 612.442, 499.001 611.148 C 499 609.854, 500.857 603.329, 503.127 596.648 L 507.254 584.500 506.048 573 C 504.580 559.008, 503.654 555.814, 499.791 551.414 C 496.901 548.123, 496.533 548, 489.605 548 C 482.462 548, 482.391 548.027, 478.292 552.250" stroke="#68533d" fill="#68533d" fill-opacity="0.2" fill-rule="evenodd"/><path class="svg-region-PMr" d="M 373.635 596.317 C 373.316 597.591, 371.868 599.268, 370.419 600.043 C 368.970 600.819, 366.531 603.274, 365 605.500 C 363.469 607.725, 360.117 611.481, 357.552 613.845 C 354.987 616.210, 350.857 621.111, 348.375 624.737 C 340.867 635.703, 325.893 651.130, 319.726 654.253 C 316.742 655.764, 313.838 657, 313.273 657 C 312.707 657, 310.277 659.390, 307.872 662.311 C 299.454 672.537, 293.051 676.839, 278.500 682.048 C 270.623 684.868, 268.159 685.284, 258.751 685.385 C 252.839 685.448, 248.001 685.628, 248.001 685.785 C 247.997 687.301, 251.945 691.355, 254.697 692.661 C 256.596 693.562, 258.893 695.469, 259.802 696.899 C 260.710 698.330, 261.692 699.725, 261.983 700 C 265.601 703.421, 270.652 712.914, 271.651 718.170 C 272.745 723.930, 277.584 733.527, 280.601 735.923 C 283.197 737.983, 284.249 738.169, 290.659 737.696 C 294.596 737.406, 298.816 736.634, 300.036 735.981 C 301.256 735.328, 305.910 734.160, 310.377 733.385 C 315.018 732.581, 319.677 731.113, 321.246 729.962 C 323.968 727.964, 328.570 727.086, 347.321 724.988 C 352.173 724.446, 359.495 722.876, 363.592 721.501 C 367.690 720.125, 373.209 719, 375.858 719 C 379.879 719, 381.596 718.340, 386.260 715 C 389.333 712.800, 392.486 711, 393.268 711 C 396.726 711, 398.998 705.755, 397.692 700.784 C 397.152 698.728, 397.770 696.559, 400.240 691.846 L 403.500 685.624 403.452 667.062 C 403.402 647.718, 402.409 641.005, 398.838 635.846 C 397.649 634.129, 397 631.413, 397 628.161 C 397 621.586, 395.704 618.366, 391.097 613.500 C 386.162 608.286, 381.470 601.558, 379.068 596.250 C 377.720 593.273, 374.389 593.314, 373.635 596.317" stroke="#90cf92" fill="#90cf92" fill-opacity="0.2" fill-rule="evenodd"/><path class="svg-region-Fr" d="M 326.786 513.548 C 326.445 513.888, 323.998 514.167, 321.347 514.167 C 316.488 514.167, 313.420 515.414, 307 520 C 303.630 522.407, 297.229 525.806, 292 527.963 C 282.755 531.779, 273.839 541.298, 268.067 553.514 C 266.380 557.084, 265 560.345, 265 560.760 C 265 561.175, 267.040 561.352, 269.533 561.154 C 273.347 560.851, 274.477 561.204, 276.656 563.384 C 278.081 564.808, 280.879 566.462, 282.873 567.058 C 287.287 568.377, 321.534 570.334, 328.542 569.667 C 334.624 569.089, 336.248 569.889, 339.028 574.836 C 340.202 576.924, 342.711 579.467, 344.604 580.486 C 349.550 583.150, 349.975 586.203, 346.075 591.056 C 341.513 596.733, 343.865 595.911, 349.811 589.750 C 360.028 579.165, 361.640 576.009, 363.010 563.916 C 363.586 558.823, 364.899 552.756, 365.927 550.432 C 368.891 543.732, 369.434 540.104, 367.580 539.392 C 366.711 539.059, 366 537.651, 366 536.264 C 366 534.847, 364.576 532.116, 362.750 530.031 C 360.962 527.989, 358.642 525.112, 357.592 523.636 C 356.543 522.161, 353.168 519.445, 350.092 517.601 C 345.347 514.757, 343.205 514.149, 335.952 513.589 C 331.251 513.226, 327.126 513.207, 326.786 513.548" stroke="#5ca7a9" fill="#5ca7a9" fill-opacity="0.2" fill-rule="evenodd"/><path class="svg-region-PCr" d="M 265.354 561.765 C 264.724 562.169, 262.571 566.100, 260.570 570.500 C 258.570 574.900, 256.503 579.175, 255.977 580 C 255.451 580.825, 254.142 583.075, 253.069 585 C 251.995 586.925, 247.715 592.748, 243.558 597.940 C 239.401 603.132, 236 607.744, 236 608.190 C 236 608.635, 237.170 609, 238.600 609 C 241.127 609, 243.564 606.914, 250.135 599.124 C 253.878 594.686, 256.520 595.035, 259.260 600.329 C 260.492 602.710, 262.323 606.209, 263.329 608.106 C 264.335 610.002, 266.469 612.306, 268.071 613.226 C 269.673 614.145, 271.717 616.608, 272.614 618.699 C 273.511 620.789, 274.883 623.625, 275.663 625 C 282.516 637.084, 282.448 637, 286.500 638.187 C 288.700 638.832, 294.464 639.391, 299.308 639.429 C 306.878 639.490, 308.460 639.806, 310.558 641.674 C 312.684 643.567, 313 644.709, 313 650.492 C 313 658.030, 313.071 658.055, 321.256 653.481 C 326.232 650.699, 342.930 633.055, 348.309 624.893 C 350.342 621.809, 354.429 616.993, 357.390 614.192 C 360.352 611.391, 363.759 607.507, 364.961 605.563 C 366.163 603.618, 368.482 601.237, 370.115 600.273 C 371.747 599.309, 373.338 597.503, 373.650 596.260 C 373.962 595.017, 374.604 594, 375.077 594 C 375.550 594, 375.678 593.325, 375.362 592.500 C 374.566 590.427, 370.509 590.624, 363.465 593.080 C 357.660 595.103, 343.089 602.141, 334 607.310 C 323.667 613.187, 319.818 613.896, 316.958 610.450 C 314.064 606.962, 319.144 603.132, 328.795 601.524 C 334.502 600.574, 341.029 596.818, 345.421 591.956 C 350.183 586.685, 350.084 583.983, 345.006 580.623 C 342.810 579.169, 339.879 576.184, 338.494 573.990 C 337.108 571.795, 335.643 569.985, 335.237 569.966 C 334.832 569.947, 325.050 569.720, 313.500 569.461 C 287.283 568.874, 278.835 567.268, 275.700 562.274 C 274.845 560.911, 267.268 560.538, 265.354 561.765" stroke="#465ee0" fill="#465ee0" fill-opacity="0.2" fill-rule="evenodd"/><path class="svg-region-Or" d="M 721.091 153.097 C 716.478 155.143, 706.400 156.946, 699.387 156.980 C 696.407 156.995, 691.913 158.654, 683.082 163 C 676.377 166.300, 670.498 169, 670.019 169 C 669.539 169, 665.626 171.155, 661.323 173.788 C 657.021 176.421, 650.350 179.600, 646.500 180.852 C 636.516 184.097, 620.841 195.006, 614.769 202.934 C 613.267 204.895, 610.930 207.625, 609.576 209 C 607.728 210.875, 606.944 213.041, 606.437 217.666 C 605.488 226.315, 605.303 262.378, 606.173 269 C 607.592 279.801, 608.144 286.207, 609.746 310.500 C 610.888 327.812, 611.181 401.236, 610.117 403.500 C 607.392 409.302, 606.500 421.471, 606.500 452.839 L 606.500 485.178 608.752 487.001 C 609.991 488.004, 610.783 489.426, 610.512 490.162 C 610.241 490.898, 609.126 503.666, 608.034 518.537 C 606.314 541.976, 605.657 546.898, 603.101 555.537 C 598.333 571.649, 595.226 584.311, 594.496 590.611 C 594.121 593.850, 593.122 599.200, 592.277 602.500 C 590.002 611.382, 590.023 631.207, 592.313 637 C 593.292 639.475, 594.752 643.903, 595.557 646.840 C 596.363 649.778, 598.237 654.278, 599.723 656.840 C 604.671 665.373, 611.259 675.470, 613.531 678 C 614.765 679.375, 616.647 682.234, 617.712 684.353 C 618.777 686.472, 622.660 691.647, 626.341 695.853 C 640.005 711.468, 654 731.170, 654 734.790 C 654 738.384, 664.979 745.773, 672.854 747.478 C 675.922 748.143, 686.527 747.026, 696.500 744.987 C 700.728 744.123, 710 740.577, 718.772 736.469 C 721.672 735.111, 724.846 734, 725.825 734 C 726.805 734, 731.632 731.462, 736.553 728.360 C 749.119 720.438, 761.024 716.068, 775.552 714.045 C 779.431 713.505, 784.156 712.420, 786.052 711.634 C 787.948 710.848, 794.450 708.997, 800.500 707.522 C 806.550 706.046, 816.654 703.075, 822.952 700.919 C 829.251 698.764, 835.182 697, 836.133 697 C 837.991 697, 842.496 694.406, 849.478 689.316 C 851.880 687.564, 855.117 685.466, 856.673 684.653 C 864.251 680.690, 875.077 669.726, 882.571 658.425 C 886.743 652.134, 890.709 646.427, 891.384 645.743 C 893.190 643.915, 895.054 640.278, 903.554 622 C 919.966 586.708, 921 584.345, 921 582.127 C 921 578.771, 931.668 544.732, 933.201 543.199 C 934.414 541.986, 937.918 532.262, 937.967 529.973 C 937.985 529.133, 939.985 522.383, 942.412 514.973 C 946.202 503.400, 948.672 494.400, 950.552 485.319 C 951.708 479.733, 956.181 452.414, 957.481 443 C 958.278 437.225, 959.682 428, 960.601 422.500 C 961.520 417, 962.297 410.700, 962.327 408.500 C 962.441 400.315, 952.820 359.844, 946.994 344 C 944.668 337.675, 941.070 327.775, 938.999 322 C 932.835 304.814, 930.113 298.720, 927.174 295.526 C 925.642 293.862, 923.303 290.025, 921.976 287 C 920.649 283.975, 918.575 280.274, 917.367 278.775 C 916.160 277.277, 914.636 274.352, 913.981 272.275 C 912.603 267.904, 905.143 255, 903.994 255 C 903.566 255, 902.923 253.828, 902.563 252.396 C 901.943 249.926, 890.112 236.817, 881.521 229.082 C 879.333 227.112, 875.733 223.621, 873.521 221.323 C 871.310 219.026, 866.982 215.807, 863.905 214.170 C 860.828 212.532, 857.003 209.979, 855.405 208.497 C 853.807 207.014, 849.350 203.985, 845.500 201.765 C 841.650 199.545, 836.250 196.025, 833.500 193.943 C 830.750 191.861, 823.100 187.007, 816.500 183.156 C 809.900 179.305, 802.025 174.570, 799 172.633 C 795.975 170.695, 792.600 168.780, 791.500 168.375 C 790.400 167.971, 787.925 166.653, 786 165.446 C 784.075 164.239, 778.675 162.006, 774 160.484 C 769.325 158.962, 761.286 156.205, 756.135 154.358 C 747.646 151.314, 745.777 151.007, 736.135 151.071 C 727.862 151.126, 724.521 151.576, 721.091 153.097" stroke="#aa444d" fill="#aa444d" fill-opacity="0.2" fill-rule="evenodd"/><path class="svg-region-VOC" d="M 536.217 511.250 C 534.622 513.189, 530 523.693, 530 525.379 C 530 526.208, 530.944 528.486, 532.099 530.443 C 534.111 533.853, 534.431 534, 539.849 533.996 C 543.731 533.994, 546.525 533.368, 548.774 531.996 C 550.575 530.898, 552.972 530, 554.101 530 C 557.019 530, 562 524.689, 562 521.577 C 562 517.009, 558.827 515, 551.615 515 C 545.908 515, 545.056 514.735, 543.592 512.500 C 541.823 509.801, 537.949 509.144, 536.217 511.250" stroke="#ff8f93" fill="#ff8f93" fill-opacity="0.2" fill-rule="evenodd"/><path class="svg-region-OABr" d="M 598.808 490.071 C 593.819 494.981, 589.719 498.103, 587.140 498.954 C 582.853 500.369, 582.037 501.865, 582.014 508.350 C 581.989 515.382, 572.677 521.930, 569 517.500 C 567.980 516.271, 568.049 516, 569.378 516 C 570.333 516, 571 515.178, 571 514 C 571 511.337, 567.695 511.369, 563.904 514.069 C 561.299 515.924, 561.063 516.539, 561.620 520.025 C 562.166 523.442, 561.873 524.281, 559.198 526.956 C 557.524 528.630, 555.507 530, 554.716 530 C 553.008 530, 553.536 534.632, 555.514 537 C 556.203 537.825, 557.490 541.029, 558.373 544.119 C 559.257 547.210, 560.659 550.302, 561.490 550.992 C 563.489 552.651, 563.420 556.625, 561.378 557.408 C 559.450 558.148, 560.123 563.373, 562.482 565.981 C 563.285 566.867, 564.474 569.899, 565.125 572.719 C 566.214 577.440, 566.639 577.972, 570.484 579.441 C 576.264 581.648, 579.887 585.733, 580.805 591.079 C 581.400 594.538, 581.993 595.505, 583.533 595.525 C 587.228 595.571, 589.801 597.070, 590.420 599.536 C 590.935 601.587, 593 603.154, 593 601.493 C 593 597.496, 596.780 578.064, 599.125 570 C 605.730 547.297, 605.971 545.904, 608.019 518.500 C 609.129 503.650, 610.264 490.874, 610.541 490.110 C 610.818 489.345, 610.165 488.104, 609.091 487.351 C 608.016 486.598, 606.994 485.199, 606.818 484.241 C 606.580 482.936, 604.573 484.396, 598.808 490.071" stroke="#81244d" fill="#81244d" fill-opacity="0.2" fill-rule="evenodd"/><path class="svg-region-SOTr" d="M 554.289 468.288 C 551.431 471.310, 548.786 475.069, 548.412 476.641 C 548.038 478.213, 547.193 480.175, 546.535 481 C 539.325 490.039, 537.884 500.737, 542.642 509.908 L 545.284 515 550.577 515 C 553.488 515, 556.968 515.417, 558.309 515.928 C 560.239 516.661, 561.495 516.348, 564.321 514.428 C 568.680 511.466, 571 511.317, 571 514 C 571 515.178, 570.333 516, 569.378 516 C 568.049 516, 567.980 516.271, 569 517.500 C 570.931 519.826, 574.655 519.280, 578.149 516.158 C 580.804 513.786, 581.446 512.331, 582.033 507.353 C 582.420 504.073, 583.930 498.939, 585.389 495.944 C 587.987 490.611, 590.666 476.177, 589.581 473.351 C 589.296 472.608, 587.811 471.993, 586.281 471.985 C 582.313 471.965, 575.322 469.347, 571.549 466.470 C 569.772 465.114, 566.331 463.733, 563.901 463.400 C 559.570 462.806, 559.384 462.901, 554.289 468.288" stroke="#995b45" fill="#995b45" fill-opacity="0.2" fill-rule="evenodd"/><path class="svg-region-LBPCr" d="M 399.244 494.689 C 398.753 495.685, 397.770 498.525, 397.058 501 C 396.347 503.475, 394.845 507.750, 393.721 510.500 C 392.207 514.207, 391.715 517.492, 391.821 523.202 C 391.975 531.546, 390.962 533.409, 388.155 529.943 C 386.656 528.092, 386.023 527.917, 384.249 528.867 C 383.084 529.490, 381.055 530, 379.740 530 C 376.667 530, 373 533.899, 373 537.167 C 373 538.562, 371.876 541.233, 370.503 543.102 C 366.054 549.158, 364.080 554.484, 363.103 563.075 C 362.064 572.200, 361.338 574.548, 357.810 580.198 C 351.066 590.995, 338.557 599.609, 326.049 602.070 C 315.645 604.117, 312.565 609.941, 320.589 612.394 C 322.827 613.078, 326.527 611.627, 334.500 606.938 C 337.250 605.320, 340.625 603.524, 342 602.946 C 343.375 602.367, 347.441 600.381, 351.036 598.531 C 362.806 592.475, 372.261 589.791, 374.550 591.857 C 375.077 592.333, 378.397 592.336, 382 591.864 C 385.575 591.396, 394.800 590.368, 402.500 589.579 C 410.741 588.735, 418.855 587.292, 422.225 586.072 C 425.374 584.932, 429.804 584, 432.069 584 C 435.402 584, 437.307 583.149, 442.047 579.544 C 445.269 577.094, 449.614 574.214, 451.703 573.144 C 453.791 572.075, 456.444 569.917, 457.597 568.350 C 459.321 566.008, 460.556 565.446, 464.527 565.198 C 472.522 564.698, 472.869 563.681, 466.587 559.170 C 464.159 557.426, 461.099 556, 459.787 556 C 458.474 556, 456.837 555.438, 456.150 554.750 C 455.462 554.063, 452.559 553.417, 449.700 553.316 C 446.840 553.214, 441.782 552.830, 438.460 552.461 C 435.043 552.081, 430.774 552.245, 428.628 552.837 C 424.995 553.840, 424.705 553.735, 421.668 550.313 C 416.414 544.390, 415.462 541.879, 412.508 526.131 C 411.643 521.524, 410.344 517.931, 409.041 516.544 C 407.698 515.114, 406.131 510.641, 404.633 503.964 C 402.317 493.635, 400.934 491.256, 399.244 494.689" stroke="#daffff" fill="#daffff" fill-opacity="0.2" fill-rule="evenodd"/><path class="svg-region-PNr" d="M 247.502 601.997 C 243.652 607, 242.254 608.096, 239.067 608.605 C 234.939 609.265, 235.698 608.200, 227.127 625.367 C 223.532 632.567, 221.227 646.065, 222.465 652.665 C 223.560 658.500, 230.874 671.646, 235.809 676.648 C 245.377 686.347, 244.114 685.832, 257.535 685.504 C 270.715 685.181, 276.883 683.618, 289.500 677.407 C 297.269 673.583, 301.354 670.213, 308.311 661.892 C 312.694 656.651, 313 655.911, 313 650.576 C 313 647.437, 312.515 643.961, 311.921 642.853 C 310.272 639.772, 305.371 638.073, 301.530 639.252 C 298.360 640.225, 285.703 638.785, 283.465 637.197 C 282.018 636.171, 275.575 625.234, 273.175 619.731 C 271.895 616.795, 269.939 614.298, 268.086 613.235 C 266.026 612.053, 263.881 609.071, 261.288 603.787 C 257.978 597.040, 257.161 596.062, 254.808 596.033 C 252.681 596.007, 251.150 597.257, 247.502 601.997" stroke="#bbc0d1" fill="#bbc0d1" fill-opacity="0.2" fill-rule="evenodd"/><path class="svg-region-OVr" d="M 557 407 C 556.175 407.533, 550.017 407.976, 543.315 407.985 C 528.234 408.004, 526 408.704, 526 413.416 C 526 415.322, 526.450 417.160, 527 417.500 C 527.550 417.840, 528 419.254, 528 420.641 C 528 422.029, 529.350 426.241, 531 430 C 532.650 433.759, 534 437.778, 534 438.931 C 534 440.084, 534.404 441.809, 534.897 442.764 C 536.460 445.788, 545.214 471.880, 546.635 477.750 C 546.801 478.438, 547.449 479, 548.076 479 C 548.702 479, 548.975 478.377, 548.682 477.615 C 548.032 475.920, 550.015 472.841, 555.356 467.250 C 560.045 462.342, 562.604 461.933, 568.539 465.142 C 579.064 470.833, 581.779 471.940, 585.281 471.969 C 587.573 471.988, 589.274 472.551, 589.599 473.397 C 590.526 475.813, 588.174 489.352, 585.957 494.365 C 584.789 497.005, 584.026 499.360, 584.263 499.596 C 585.578 500.911, 593.163 495.949, 599.413 489.686 L 606.584 482.500 606.284 463.500 C 605.870 437.342, 605.416 435.510, 597.221 426.927 C 593.591 423.125, 589.828 419.763, 588.860 419.456 C 587.892 419.148, 586.146 417.354, 584.980 415.468 C 583.419 412.941, 581.762 411.759, 578.681 410.972 C 576.381 410.384, 572.392 409.025, 569.815 407.952 C 564.759 405.846, 559.402 405.448, 557 407" stroke="#593939" fill="#593939" fill-opacity="0.2" fill-rule="evenodd"/>
    </svg>