<svg xmlns="http://www.w3.org/2000/svg" width="1078" height="1151" viewBox="0 0 1078 1151" version="1.1">
    <path class="svg-region-V" d="M 495.785 265.045 C 483.929 266.427, 466.456 276.412, 453.185 289.391 C 442.608 299.734, 439.214 304.300, 435.462 313.228 C 428.920 328.797, 428.812 329.285, 429.167 341.776 L 429.500 353.500 435.379 363.260 C 445.140 379.463, 449.591 382.219, 465.298 381.783 C 474.344 381.532, 475.998 381.762, 479.896 383.810 L 484.293 386.120 489.396 383.954 C 492.203 382.762, 495.400 380.963, 496.500 379.956 C 497.600 378.950, 501.650 376.671, 505.500 374.893 C 511.934 371.921, 522.683 363.114, 536.494 349.500 C 540.028 346.015, 545 337.864, 545 335.554 C 545 334.679, 546.237 331.609, 547.750 328.732 C 550.407 323.677, 550.500 322.974, 550.500 308 C 550.500 292.865, 550.432 292.370, 547.622 287 C 543.637 279.384, 538.818 274.309, 530.289 268.750 L 523.002 264 512.751 264.131 C 507.113 264.204, 499.478 264.615, 495.785 265.045" stroke="#dd8a8a" fill="#dd8a8a" fill-opacity="0.2" fill-rule="evenodd"/><path class="svg-region-DB" d="M 446.927 384.103 C 445.895 385.551, 441.616 388.434, 437.416 390.509 C 431.087 393.636, 429.521 394.899, 428.267 397.891 C 425.592 404.270, 425.070 413.387, 426.551 427.885 C 427.315 435.373, 427.954 444.092, 427.970 447.261 C 428.011 455.109, 424.986 461.457, 419.991 464.005 C 417.932 465.055, 415.966 466.646, 415.623 467.539 C 414.463 470.564, 414.941 484.541, 416.250 485.849 C 417.963 487.559, 417.822 505.688, 415.997 518.500 C 413.763 534.179, 413.978 537.096, 417.756 542.456 C 419.540 544.987, 421 547.495, 421 548.029 C 421 549.436, 422.765 549.220, 423.700 547.699 C 424.193 546.898, 429.212 545.823, 436.791 544.897 C 446.968 543.653, 449.271 543.622, 450.180 544.717 C 450.896 545.580, 452.401 545.828, 454.516 545.431 C 457.193 544.929, 458.195 545.297, 460.286 547.552 C 462.177 549.592, 463.407 550.126, 465.158 549.665 C 466.446 549.327, 470.249 549.554, 473.609 550.172 C 477.797 550.941, 480.628 550.978, 482.609 550.289 C 487.132 548.717, 494.296 551.207, 496.886 555.252 L 498.966 558.500 498.983 553.921 C 499.002 548.798, 502.619 542.283, 509.018 535.844 C 513.749 531.083, 521.504 529.775, 528.699 532.523 C 533.655 534.416, 533.623 534.428, 536.818 529.435 C 537.193 528.849, 540.493 525.992, 544.151 523.085 C 549.062 519.182, 550.968 516.975, 551.434 514.650 C 554.776 497.979, 554.749 498.880, 552.119 491.775 C 550.954 488.626, 550 484.683, 550 483.011 C 550 480.255, 548.452 476.274, 546.885 475 C 546.546 474.725, 545.976 473.557, 545.616 472.404 C 545.257 471.252, 542.029 467.202, 538.442 463.404 L 531.921 456.500 532.579 442.930 C 533.277 428.561, 532.696 423, 530.497 423 C 529.758 423, 527.090 421.425, 524.568 419.500 C 522.046 417.575, 519.187 416, 518.214 416 C 517.241 416, 515.557 415.392, 514.473 414.649 C 513.388 413.906, 511.353 413.020, 509.950 412.680 C 508.334 412.289, 506.778 410.758, 505.702 408.500 C 504.767 406.541, 503.215 404.637, 502.251 404.270 C 501.288 403.902, 500.050 403.247, 499.500 402.816 C 493.472 398.082, 491.317 395.960, 487.518 391.023 C 481.163 382.765, 478.505 381.775, 462.232 381.608 L 448.802 381.469 446.927 384.103" stroke="#e8b1e4" fill="#e8b1e4" fill-opacity="0.2" fill-rule="evenodd"/><path class="svg-region-IBr" d="M 514.619 532.034 C 510.729 533.199, 507.461 536.358, 502.858 543.405 C 499.581 548.420, 499 550.127, 499 554.731 C 499 559.246, 499.668 561.294, 502.998 566.996 C 508.876 577.062, 511.623 580, 515.155 580 C 516.792 580, 519.065 580.500, 520.206 581.110 C 522.057 582.101, 523.055 581.388, 529.476 574.492 C 533.434 570.242, 537.342 565.354, 538.160 563.632 C 538.978 561.909, 541.398 557.063, 543.539 552.862 C 547.938 544.227, 547.779 543.459, 540.871 539.934 C 538.801 538.878, 536.746 537.372, 536.304 536.588 C 535.123 534.493, 525.505 530.987, 521.213 531.086 C 519.171 531.133, 516.204 531.560, 514.619 532.034" stroke="#b10e0e" fill="#b10e0e" fill-opacity="0.2" fill-rule="evenodd"/><path class="svg-region-DMr" d="M 463 551.319 C 461.075 552.659, 458.030 555.593, 456.234 557.839 C 452.338 562.711, 445.042 567.141, 430.357 573.551 C 417.669 579.090, 411.240 580.972, 404.944 580.988 C 399.108 581.003, 385.650 585.893, 382.025 589.315 C 377.672 593.423, 377.276 596.800, 380.781 599.918 C 382.378 601.338, 385.398 605.650, 387.494 609.500 C 389.590 613.350, 392.083 617.625, 393.035 619 C 393.987 620.375, 395.713 623.191, 396.870 625.257 C 398.027 627.323, 402.397 633.314, 406.580 638.569 C 410.764 643.824, 415.683 651.359, 417.511 655.312 C 419.340 659.265, 422.897 665.573, 425.418 669.328 C 427.938 673.084, 430 676.550, 430 677.030 C 430 677.511, 432.025 680.801, 434.500 684.341 C 439.501 691.495, 439.938 693.398, 437 695.232 C 435.900 695.919, 435 696.831, 435 697.260 C 435 698.384, 439.793 697.062, 445 694.500 C 447.475 693.282, 450.719 691.993, 452.208 691.634 C 453.698 691.276, 457.560 688.783, 460.790 686.095 C 464.021 683.406, 469.327 679.724, 472.582 677.911 C 480.239 673.646, 484.250 670.732, 491 664.529 C 494.025 661.749, 497.942 658.289, 499.705 656.839 C 506.303 651.416, 504.339 645.243, 495.707 644.270 C 491.758 643.825, 490.348 644.166, 487.018 646.370 C 484.832 647.816, 482.599 649, 482.057 649 C 480.643 649, 479 645.561, 479 642.603 C 479 638.480, 484.749 624.799, 491.019 614 C 493.095 610.425, 495.313 605.847, 495.949 603.826 C 496.686 601.485, 499.987 597.243, 505.052 592.130 C 509.525 587.615, 513 583.254, 513 582.156 C 513 581.083, 511.165 578.022, 508.922 575.353 C 506.679 572.684, 502.693 566.450, 500.064 561.500 C 494.957 551.882, 492.361 549.651, 486.652 549.976 C 479.078 550.407, 473.253 550.278, 470 549.606 C 467.173 549.023, 465.827 549.352, 463 551.319" stroke="#68533d" fill="#68533d" fill-opacity="0.2" fill-rule="evenodd"/><path class="svg-region-PMr" d="M 371.772 600.784 C 369.845 602.315, 366.512 605.597, 364.365 608.078 C 362.219 610.558, 358.485 614.368, 356.068 616.544 C 353.652 618.720, 350.178 622.833, 348.349 625.684 C 346.520 628.535, 343.170 632.360, 340.905 634.184 C 333.479 640.164, 321.331 652.425, 319.093 656.198 C 316.447 660.662, 314.634 661.350, 305.289 661.439 C 298.251 661.505, 297.975 661.605, 293.789 665.600 C 288.837 670.326, 281.240 675.506, 277.844 676.473 C 273.773 677.632, 265.035 681.474, 265.017 682.113 C 265.008 682.450, 267.431 683.491, 270.403 684.426 C 273.374 685.360, 277.890 687.447, 280.437 689.062 C 282.985 690.678, 285.523 692, 286.078 692 C 286.632 692, 289.204 693.940, 291.793 696.311 C 297.603 701.632, 305.767 707, 308.049 707 C 308.987 707, 310.337 707.701, 311.048 708.558 C 313.227 711.183, 320.670 715.089, 326.736 716.790 C 335.661 719.293, 354.516 719.054, 364 716.318 C 368.125 715.128, 374.505 713.665, 378.178 713.066 C 381.851 712.467, 388.826 710.804, 393.678 709.370 C 398.530 707.936, 405.200 706.698, 408.500 706.618 C 413.129 706.507, 416.843 705.481, 424.750 702.127 C 430.387 699.737, 435 697.432, 435 697.007 C 435 696.581, 435.900 695.998, 437 695.710 C 440.114 694.896, 439.409 691.139, 434.991 685 C 432.814 681.975, 430.347 677.973, 429.508 676.108 C 428.669 674.242, 426.407 670.521, 424.480 667.839 C 422.553 665.157, 419.839 660.159, 418.449 656.732 C 415.762 650.108, 414.304 647.908, 403.915 634.805 C 400.294 630.237, 397.041 625.825, 396.686 625 C 396.332 624.175, 394.931 621.700, 393.573 619.500 C 392.215 617.300, 390.479 614.375, 389.715 613 C 384.805 604.159, 383.549 602.266, 381.252 600.250 C 377.898 597.306, 376.015 597.412, 371.772 600.784" stroke="#90cf92" fill="#90cf92" fill-opacity="0.2" fill-rule="evenodd"/><path class="svg-region-Fr" d="M 313.500 527.058 C 311.300 527.583, 307.741 528.304, 305.591 528.659 C 303.209 529.053, 299.222 531.145, 295.384 534.014 C 291.920 536.603, 287.604 539.334, 285.793 540.083 C 283.982 540.831, 281.375 542.728, 280 544.298 C 278.625 545.868, 274.495 550.345, 270.822 554.247 C 266.040 559.327, 263.555 562.956, 262.072 567.024 C 260.932 570.149, 260 573.057, 260 573.486 C 260 573.915, 261.688 576.006, 263.750 578.133 C 266.564 581.033, 268.299 581.998, 270.700 581.999 C 272.460 582, 274.260 581.373, 274.700 580.607 C 275.597 579.045, 282.082 577.014, 286.200 577.006 C 288.178 577.001, 289.917 575.782, 292.700 572.450 C 295.741 568.810, 300.807 565, 302.608 565 C 302.773 565, 305.891 567.925, 309.537 571.500 C 315.403 577.251, 316.615 578, 320.059 578 C 322.200 578, 325.425 577.102, 327.226 576.004 C 335.189 571.148, 344.977 574.857, 351.626 585.250 C 354.385 589.562, 355.573 589.922, 356.579 586.751 C 356.972 585.514, 358.849 583.076, 360.751 581.334 L 364.209 578.167 363.048 570.833 C 361.538 561.290, 358.225 552.064, 355.316 549.298 C 354.042 548.087, 353 546.558, 353 545.901 C 353 544.007, 346.020 534, 344.697 533.997 C 344.038 533.996, 340.821 532.379, 337.546 530.405 C 332.510 527.368, 330.507 526.760, 324.546 526.459 C 320.671 526.264, 315.700 526.533, 313.500 527.058" stroke="#5ca7a9" fill="#5ca7a9" fill-opacity="0.2" fill-rule="evenodd"/><path class="svg-region-PCr" d="M 298.875 566.601 C 297.431 567.365, 294.643 569.950, 292.679 572.347 C 289.337 576.425, 288.710 576.745, 282.864 577.356 C 278.679 577.794, 275.919 578.667, 274.495 580.005 C 273.327 581.102, 271.425 582, 270.269 582 C 267.909 582, 260 575.109, 260 573.052 C 260 572.320, 258.875 573.379, 257.500 575.405 C 256.125 577.431, 255 579.430, 255 579.847 C 255 580.265, 253.586 582.529, 251.858 584.879 C 248.775 589.071, 248.738 589.252, 249.910 594.489 C 250.567 597.424, 251.736 600.068, 252.507 600.364 C 253.278 600.660, 254.882 602.837, 256.071 605.201 C 257.260 607.566, 258.798 610.175, 259.488 611 C 260.178 611.825, 261.722 615.376, 262.919 618.892 C 265.723 627.128, 267.267 630.035, 270.155 632.514 C 276.711 638.144, 280.737 639.970, 294.471 643.538 C 297.755 644.391, 301.242 645.814, 302.221 646.700 C 304.668 648.915, 304.540 655.044, 301.978 658.301 L 299.956 660.871 304.299 661.522 C 310.374 662.433, 316.137 660.658, 318.801 657.056 C 320.010 655.420, 321 653.690, 321 653.213 C 321 652.452, 327.347 646.441, 341.693 633.618 C 343.999 631.557, 346.993 627.981, 348.346 625.673 C 349.699 623.364, 353.212 619.175, 356.153 616.364 C 359.094 613.553, 364.139 608.492, 367.365 605.117 C 370.590 601.742, 374.270 598.719, 375.542 598.400 C 379.177 597.488, 379.264 595.211, 375.827 590.934 C 374.088 588.770, 372.358 587, 371.982 587 C 369.446 587, 364.970 589.549, 363.126 592.043 C 360.815 595.169, 357.485 595.865, 353.934 593.965 C 352.480 593.187, 352 591.857, 352 588.610 C 352 584.862, 351.422 583.695, 347.633 579.797 C 341.633 573.624, 333.189 572.085, 326.774 575.996 C 324.973 577.094, 321.866 577.994, 319.868 577.996 C 316.717 578, 315.394 577.140, 309.868 571.507 C 306.366 567.936, 303.050 565.059, 302.500 565.113 C 301.950 565.168, 300.319 565.837, 298.875 566.601" stroke="#465ee0" fill="#465ee0" fill-opacity="0.2" fill-rule="evenodd"/><path class="svg-region-Or" d="M 723 148.707 C 721.075 148.920, 718.150 149.701, 716.500 150.442 C 714.850 151.183, 711.925 152.106, 710 152.493 C 708.075 152.880, 705.600 153.749, 704.500 154.424 C 703.400 155.100, 698 157.128, 692.500 158.931 C 687 160.735, 680.475 163.343, 678 164.728 C 675.525 166.113, 669.225 169.504, 664 172.264 C 658.775 175.024, 653.825 177.814, 653 178.463 C 649.730 181.037, 636.142 188.959, 630 191.872 C 622.869 195.254, 609.331 203.485, 606.120 206.391 C 603.936 208.368, 600.698 216.371, 596.567 230 C 593.522 240.047, 593.106 254.116, 595.517 265.500 C 596.333 269.349, 597 273.935, 597 275.691 C 597 277.446, 597.450 279.160, 598 279.500 C 598.569 279.852, 599 284.889, 599 291.194 C 599 302.198, 600.556 314.632, 602.161 316.450 C 602.623 316.972, 603 319.171, 603 321.335 C 603 325.203, 604.154 333.486, 606.110 343.655 C 607.081 348.707, 608.153 361.015, 609.973 388 C 610.473 395.425, 610.909 409.184, 610.941 418.576 C 610.991 432.957, 612.771 453.217, 614.493 459 C 614.739 459.825, 615.654 465.900, 616.527 472.500 C 620.030 498.987, 620.063 496.713, 615.862 517.606 C 613.748 528.114, 610.897 539.693, 609.525 543.338 C 603.320 559.823, 597 580.292, 597 583.905 C 597 587.049, 596.567 588.003, 594.902 588.531 C 593.121 589.096, 592.891 589.749, 593.375 592.848 C 595.248 604.820, 595.165 607.597, 592.594 618.884 C 590.594 627.660, 590.004 632.930, 590.017 641.884 L 590.033 653.500 594.544 661 C 597.025 665.125, 599.813 670.975, 600.739 674 C 601.665 677.025, 603.453 680.892, 604.712 682.594 C 605.970 684.296, 607 686.407, 607 687.285 C 607 688.163, 607.408 689.134, 607.908 689.443 C 608.916 690.066, 610.911 696.411, 613.922 708.569 C 615.209 713.769, 618.957 722.744, 624.460 733.804 C 629.157 743.245, 633 751.595, 633 752.360 C 633 755.034, 639.962 769, 641.295 769 C 642.035 769, 644.416 770.463, 646.588 772.250 C 648.759 774.038, 651.248 775.950, 652.118 776.500 C 652.988 777.050, 656.259 779.262, 659.386 781.416 C 664.924 785.229, 665.339 785.343, 675.286 785.761 L 685.500 786.191 691.334 782.067 C 694.543 779.800, 700.353 776.370, 704.245 774.447 C 712.642 770.297, 722.706 764.380, 725.500 761.950 C 726.600 760.993, 729.075 759.372, 731 758.347 C 732.925 757.322, 736.525 755.090, 739 753.387 C 746.151 748.467, 777.907 729.531, 784.500 726.256 C 787.800 724.617, 792.975 722.707, 796 722.011 C 799.025 721.316, 808.700 717.368, 817.500 713.238 C 826.300 709.108, 836.875 704.158, 841 702.238 C 845.371 700.203, 849.657 697.365, 851.273 695.434 C 852.799 693.611, 855.009 691.815, 856.185 691.441 C 858.277 690.777, 883 669.204, 883 668.043 C 883 667.720, 885.514 664.765, 888.587 661.477 C 891.660 658.190, 895.361 653.475, 896.813 651 C 898.264 648.525, 901.396 643.800, 903.772 640.500 C 907.900 634.767, 909.615 632.513, 919.362 620 C 921.718 616.975, 924.705 612.700, 926 610.500 C 927.295 608.300, 930.930 602.892, 934.077 598.483 C 942.746 586.339, 950.221 569.312, 951.539 558.708 C 951.947 555.427, 953.047 552.877, 955.026 550.623 C 956.630 548.796, 958.396 545.196, 958.991 542.538 C 959.582 539.903, 960.471 536.989, 960.966 536.063 C 961.461 535.138, 963.522 528.107, 965.544 520.440 C 967.567 512.773, 969.850 504.250, 970.618 501.500 C 971.387 498.750, 972.710 492.675, 973.558 488 C 974.407 483.325, 976.259 473.875, 977.674 467 C 980.050 455.451, 980.198 453.244, 979.612 438 C 979.030 422.853, 977.746 408.909, 975.082 388.799 C 974.521 384.564, 972.888 376.464, 971.453 370.799 C 970.018 365.135, 967.709 356, 966.321 350.500 C 964.933 345, 963.003 338.700, 962.032 336.500 C 961.060 334.300, 959.952 331.184, 959.570 329.576 C 959.188 327.968, 957.557 324.817, 955.946 322.574 C 954.335 320.331, 951.906 315.121, 950.548 310.998 C 946.687 299.270, 937.657 283.772, 930.157 276 C 925.001 270.658, 921.469 264.821, 920.474 260 C 919.296 254.292, 915.912 247.993, 911.945 244.125 C 909.901 242.131, 907.312 238.700, 906.191 236.500 C 903.318 230.858, 885.253 209.832, 881.470 207.726 C 880.258 207.052, 874.661 202.770, 869.032 198.210 C 863.403 193.651, 855.355 188.188, 851.149 186.071 C 846.942 183.954, 842.621 181.249, 841.548 180.059 C 834.889 172.680, 789.608 155.343, 767 151.516 C 762.325 150.725, 755.800 149.613, 752.500 149.044 C 746.794 148.062, 730.514 147.876, 723 148.707" stroke="#aa444d" fill="#aa444d" fill-opacity="0.2" fill-rule="evenodd"/><path class="svg-region-VOC" d="M 541.270 525.250 C 539.099 527.038, 536.538 529.534, 535.578 530.798 C 533.969 532.919, 533.957 533.286, 535.431 535.536 C 536.310 536.877, 538.740 538.847, 540.832 539.914 C 542.923 540.981, 545.221 542.562, 545.939 543.427 C 547.795 545.663, 548.344 545.474, 553 541 C 555.290 538.800, 557.779 537, 558.531 537 C 559.961 537, 565 531.028, 565 529.333 C 565 528.795, 563.140 527.138, 560.867 525.650 C 556.946 523.082, 556.609 523.026, 554.272 524.558 C 551.951 526.079, 551.724 526.051, 550.348 524.086 C 548.302 521.165, 545.847 521.480, 541.270 525.250" stroke="#ff8f93" fill="#ff8f93" fill-opacity="0.2" fill-rule="evenodd"/><path class="svg-region-OABr" d="M 612 454.278 C 612 455.046, 608.850 460.226, 605 465.790 C 601.150 471.354, 598 476.355, 598 476.904 C 598 477.452, 597.380 478.260, 596.622 478.700 C 593.304 480.625, 590 487.275, 590 492.026 C 590 495.913, 589.262 497.877, 585.926 502.874 C 581.333 509.752, 574.027 516.591, 566.250 521.293 C 563.362 523.039, 561 524.796, 561 525.198 C 561 525.601, 561.900 526.411, 563 527 C 564.100 527.589, 565 528.523, 565 529.076 C 565 530.771, 560.705 536, 559.312 536 C 558.590 536, 556.278 537.722, 554.174 539.826 C 552.069 541.931, 549.701 543.901, 548.911 544.204 C 548.120 544.507, 545.036 549.648, 542.056 555.628 C 537.883 564.002, 534.814 568.505, 528.703 575.224 C 521.307 583.355, 520.810 584.176, 521.399 587.314 C 522.577 593.594, 527.713 596.362, 541.412 598.099 C 551.792 599.416, 553 600.124, 553 604.886 L 553 608.701 558.250 607.876 C 561.138 607.421, 566.797 606.251, 570.827 605.275 C 577.652 603.622, 578.561 603.071, 584.076 597.250 C 587.333 593.813, 590.561 590.985, 591.249 590.967 C 594.027 590.893, 597 587.181, 597 583.786 C 597 580.377, 601.694 565.101, 608.454 546.513 C 610.451 541.020, 613.806 527.970, 615.908 517.513 C 620.008 497.126, 619.940 499.452, 617.101 476.500 C 615.277 461.748, 613.876 454.041, 612.910 453.445 C 612.410 453.135, 612 453.510, 612 454.278 M 548.500 519.388 L 546.500 520.876 548.500 522.371 C 550.217 523.654, 550.546 523.663, 550.823 522.433 C 551.001 521.645, 551.001 520.302, 550.823 519.450 C 550.536 518.071, 550.279 518.064, 548.500 519.388" stroke="#81244d" fill="#81244d" fill-opacity="0.2" fill-rule="evenodd"/><path class="svg-region-SOTr" d="M 580.824 438.287 C 579.467 439.545, 577.756 441.930, 577.023 443.586 C 576.290 445.243, 573.600 448.114, 571.045 449.967 C 568.491 451.820, 565.298 454.826, 563.950 456.647 C 562.603 458.468, 560.750 460.211, 559.832 460.520 C 558.915 460.829, 557.003 461.997, 555.582 463.114 C 552.299 465.697, 552.283 468.549, 555.500 478.403 C 556.875 482.615, 558 487.610, 558 489.501 C 558 491.393, 556.875 495.400, 555.500 498.406 C 554.125 501.412, 553 505.449, 553 507.377 C 553 509.305, 552.550 511.160, 552 511.500 C 550.852 512.209, 550.613 526.016, 551.750 525.968 C 552.163 525.951, 553.332 525.306, 554.350 524.535 C 555.737 523.484, 556.772 523.395, 558.491 524.178 C 560.436 525.064, 561.669 524.618, 566.641 521.227 C 580.892 511.510, 590 500.276, 590 492.416 C 590 489.542, 591.034 486.025, 593.039 482.079 C 598.077 472.165, 599.313 466.629, 598.520 457.533 C 597.730 448.482, 597.264 447.353, 591.585 440.750 C 586.985 435.402, 584.541 434.842, 580.824 438.287" stroke="#995b45" fill="#995b45" fill-opacity="0.2" fill-rule="evenodd"/><path class="svg-region-LBPCr" d="M 413.652 485.755 C 413.359 486.228, 412.833 489.064, 412.482 492.057 C 411.654 499.108, 410.256 502.700, 408.120 503.258 C 407.136 503.516, 405.854 505.543, 405.114 508.012 C 403.545 513.249, 399.663 519.587, 397.265 520.825 C 396.294 521.327, 393.782 522.047, 391.682 522.426 C 388.817 522.944, 387.387 523.924, 385.954 526.354 C 383.468 530.567, 378.759 534, 375.465 534 C 373.879 534, 371.992 535.018, 370.674 536.583 C 369.478 538.004, 366.108 541.715, 363.185 544.830 C 358.292 550.042, 357.922 550.771, 358.524 553.996 C 358.884 555.923, 359.562 557.964, 360.030 558.531 C 360.498 559.097, 361.639 563.708, 362.567 568.776 C 363.921 576.182, 364.007 578.286, 363.004 579.495 C 362.317 580.323, 361.214 581, 360.554 581 C 359.893 581, 358.452 582.688, 357.352 584.750 C 356.069 587.155, 354.751 588.395, 353.676 588.206 C 352.475 587.996, 352 588.624, 352 590.421 C 352 595.229, 359.506 596.715, 362.778 592.555 C 363.836 591.210, 366.389 589.305, 368.452 588.321 L 372.203 586.533 375.103 590.147 L 378.003 593.762 381.788 589.977 C 384.004 587.761, 387.284 585.731, 389.703 585.080 C 391.975 584.468, 395.109 583.303, 396.667 582.490 C 398.225 581.677, 401.750 581.004, 404.500 580.994 C 411.251 580.970, 417.489 579.188, 430.194 573.656 C 436.076 571.095, 441.363 569, 441.944 569 C 442.525 569, 443 568.605, 443 568.121 C 443 567.638, 444.462 566.662, 446.250 565.952 C 449.224 564.771, 463 551.696, 463 550.053 C 463 549.666, 461.900 548.315, 460.556 547.053 C 458.688 545.297, 457.333 544.876, 454.806 545.265 C 452.942 545.552, 450.846 545.245, 450 544.560 C 447.975 542.922, 425.210 545.647, 423.073 547.784 C 421.853 549.004, 421.520 549.019, 421.056 547.873 C 420.750 547.118, 419.151 544.510, 417.503 542.078 C 414.076 537.020, 413.858 534.015, 415.870 519.500 C 417.701 506.289, 418.328 492.982, 417.305 489.068 C 416.417 485.670, 414.678 484.093, 413.652 485.755" stroke="#daffff" fill="#daffff" fill-opacity="0.2" fill-rule="evenodd"/><path class="svg-region-PNr" d="M 245.117 593.311 C 242.971 596.783, 228.997 610.098, 223 614.385 C 221.075 615.761, 216.125 618.501, 212 620.473 C 207.875 622.446, 203.825 624.424, 203 624.869 C 202.175 625.315, 199.363 628.317, 196.750 631.540 C 190.335 639.456, 190.225 643.695, 196.151 654.754 C 201.420 664.585, 201.762 665, 204.599 665 C 205.975 665, 207.602 665.988, 208.512 667.377 C 209.368 668.685, 211.966 670.409, 214.285 671.208 C 225.767 675.166, 229.164 676, 233.808 676 C 239.835 676, 248.734 677.856, 251.473 679.683 C 254.197 681.502, 266.344 681.391, 269.972 679.515 C 271.552 678.698, 274.985 677.302, 277.601 676.414 C 282.965 674.593, 289.787 669.773, 298.250 661.824 C 303.418 656.970, 304 656.012, 304 652.367 C 304 646.193, 303.116 645.692, 281.872 639.821 C 277.889 638.721, 269.457 632.228, 266.837 628.245 C 265.923 626.855, 264.194 622.815, 262.996 619.269 C 261.798 615.723, 259.734 611.224, 258.409 609.271 C 257.084 607.318, 256 605.187, 256 604.535 C 256 603.882, 254.919 602.333, 253.598 601.092 C 252.277 599.851, 250.695 596.848, 250.084 594.418 C 249.472 591.988, 248.564 590, 248.067 590 C 247.570 590, 246.242 591.490, 245.117 593.311" stroke="#bbc0d1" fill="#bbc0d1" fill-opacity="0.2" fill-rule="evenodd"/><path class="svg-region-OVr" d="M 563.211 403.538 C 562.501 404.342, 561.076 405, 560.043 405 C 557.408 405, 548.895 408.768, 546.500 410.994 C 543.737 413.562, 536.356 415.968, 531.184 415.985 C 526.795 416, 523 417.369, 523 418.936 C 523 419.412, 525.014 420.634, 527.475 421.651 C 533.141 423.992, 533.445 425.268, 532.550 442.930 L 531.863 456.500 537.389 462.273 C 540.428 465.449, 543.721 469.499, 544.707 471.273 C 545.693 473.048, 546.726 474.725, 547.002 475 C 548.346 476.340, 549.895 480.961, 550.376 485.063 C 550.670 487.572, 551.866 491.847, 553.034 494.563 L 555.157 499.500 556.578 496.135 C 558.606 491.336, 558.351 487.136, 555.500 478.403 C 551.854 467.234, 552.310 464.439, 558.280 461.360 C 560.051 460.446, 563.155 457.821, 565.178 455.527 C 567.201 453.233, 570.454 450.264, 572.408 448.928 C 574.361 447.593, 576.468 445.274, 577.090 443.776 C 578.631 440.066, 582.859 436, 585.176 436 C 587.202 436, 594.195 442.830, 596.440 447 C 597.180 448.375, 598.088 453.325, 598.458 458 C 599.125 466.414, 598.599 469.255, 594.480 479.500 C 592.954 483.294, 598.263 476.503, 605.500 465.403 C 613.400 453.285, 612.882 456.246, 611.479 431.250 L 610.735 418 605.283 418 C 600.789 418, 598.486 417.271, 592.166 413.851 C 587.950 411.569, 583.338 408.893, 581.918 407.903 C 578.407 405.456, 569.426 401.991, 566.713 402.038 C 565.496 402.059, 563.920 402.734, 563.211 403.538" stroke="#593939" fill="#593939" fill-opacity="0.2" fill-rule="evenodd"/><path class="svg-region-ODMr" d="M 513 582.054 C 513 583.278, 509.826 587.311, 505.141 592.041 C 499.633 597.600, 496.757 601.399, 495.527 604.737 C 494.562 607.357, 492.752 611.097, 491.505 613.050 C 485.493 622.459, 479 638.228, 479 643.419 C 479 648.954, 482.614 650.651, 486.542 646.960 C 492.928 640.961, 505.319 645.240, 503.351 652.766 C 502.837 654.732, 502.873 654.733, 508.473 652.842 C 519.651 649.068, 536.831 635.588, 543.956 625 C 545.251 623.075, 548.133 619.589, 550.360 617.254 C 553.194 614.282, 554.093 612.693, 553.356 611.956 C 552.766 611.366, 552.508 608.770, 552.769 606.050 C 553.328 600.233, 552.265 599.370, 543.355 598.413 C 534.985 597.514, 526.856 595.099, 524.291 592.751 C 522.936 591.511, 521.819 588.943, 521.402 586.114 C 520.646 580.984, 519.770 580.038, 515.750 580.015 C 513.638 580.004, 513 580.476, 513 582.054" stroke="#999999" fill="#999999" fill-opacity="0.2" fill-rule="evenodd"/>
    </svg>