<svg xmlns="http://www.w3.org/2000/svg" width="1078" height="1151" viewBox="0 0 1078 1151" version="1.1">
    <path class="svg-region-DB" d="M 476 396.960 C 474.625 397.422, 471.700 397.850, 469.500 397.911 C 457.835 398.233, 444.879 406.291, 438.807 417 C 435.656 422.558, 433 432.948, 433 439.719 C 433 444.090, 432.496 445.414, 429.439 449.073 C 427.480 451.417, 425.262 454.497, 424.510 455.918 C 423.757 457.338, 421.765 459.400, 420.082 460.500 C 418.399 461.600, 416.753 463.175, 416.423 464 C 415.406 466.545, 413.065 484.215, 413.032 489.601 C 412.999 494.935, 411.553 500.451, 409.521 503 C 408.863 503.825, 407.532 507.650, 406.564 511.500 C 404.159 521.061, 401.968 526.995, 399.667 530.178 C 396.893 534.014, 398.014 535.715, 403.680 536.268 C 406.331 536.527, 410.525 537.522, 413 538.480 C 415.475 539.438, 420.863 540.612, 424.972 541.088 C 429.473 541.609, 433.450 542.686, 434.972 543.796 C 436.363 544.810, 440.200 546.711, 443.500 548.020 C 446.800 549.329, 449.927 550.760, 450.450 551.200 C 452.279 552.740, 454.968 551.978, 456.625 549.449 C 458.739 546.223, 463.516 543.711, 466.024 544.508 C 467.082 544.843, 468.752 546.141, 469.735 547.390 C 470.947 548.931, 473.050 549.872, 476.264 550.313 C 481.995 551.098, 486.963 553.532, 493.689 558.849 L 498.740 562.841 499.361 557.671 C 500.360 549.357, 500.043 543.641, 498.468 541.559 C 496.266 538.647, 496.677 535.833, 499.956 531.374 C 502.161 528.376, 504.257 526.898, 508.206 525.557 C 513.090 523.899, 513.791 523.881, 517.250 525.329 C 520.806 526.817, 521 526.801, 521 525.027 C 521 523.998, 519.423 521.208, 517.496 518.828 C 510.596 510.307, 510.532 509.997, 510.187 483.370 C 509.929 463.572, 510.145 458.589, 511.386 455.620 C 512.469 453.027, 513.518 452, 515.081 452 C 516.282 452, 518.780 451.063, 520.632 449.918 C 523.819 447.948, 524 447.531, 524 442.130 C 524 438.444, 523.309 435.067, 522.048 432.595 C 520.766 430.080, 520.299 427.754, 520.687 425.813 C 521.185 423.326, 520.644 422.199, 517.265 418.680 C 515.058 416.381, 512.474 412.400, 511.522 409.833 C 509.704 404.929, 504.942 399.303, 501.523 398.017 C 498.370 396.833, 478.790 396.021, 476 396.960" stroke="#e8b1e4" fill="#e8b1e4" fill-opacity="0.2" fill-rule="evenodd"/><path class="svg-region-IBr" d="M 506.472 525.935 C 501.852 527.993, 497 533.769, 497 537.211 C 497 538.500, 497.738 540.608, 498.639 541.895 C 500.003 543.843, 500.168 545.802, 499.623 553.558 C 499.035 561.928, 499.194 563.346, 501.183 567.440 C 503.775 572.776, 505.803 573.211, 509.210 569.162 C 511.300 566.679, 512.523 566.239, 519.016 565.635 C 527.856 564.814, 529.457 563.887, 534.378 556.741 C 537.642 552.002, 538.052 550.793, 537.460 547.638 C 536.929 544.808, 536.302 543.997, 534.639 543.985 C 530.977 543.958, 529.315 542.359, 530.673 540.168 C 531.620 538.638, 531.468 537.655, 529.882 535.046 C 528.666 533.046, 527.377 532.025, 526.495 532.364 C 525.644 532.690, 524.194 531.677, 522.887 529.842 C 520.675 526.735, 515.542 523.941, 512.282 524.071 C 511.302 524.109, 508.687 524.949, 506.472 525.935" stroke="#b10e0e" fill="#b10e0e" fill-opacity="0.2" fill-rule="evenodd"/><path class="svg-region-DMr" d="M 462 544.746 C 461.175 545.069, 457.883 547.991, 454.684 551.240 C 449.474 556.532, 438.863 562.997, 435.382 562.999 C 434.768 563, 430.268 564.295, 425.382 565.877 C 420.497 567.459, 413.631 569.033, 410.125 569.375 C 402.022 570.164, 387.717 575.933, 383.185 580.241 C 378.665 584.537, 376.049 590.392, 376.022 596.275 C 376.003 600.328, 376.343 601.180, 378.269 601.912 C 381.114 602.994, 388.266 610.680, 390.567 615.130 C 391.522 616.977, 393.987 620.741, 396.044 623.494 C 398.101 626.247, 401.015 630.883, 402.520 633.795 C 404.492 637.611, 406.339 639.643, 409.131 641.067 C 413.587 643.340, 421.998 653.491, 421.999 656.597 C 422 658.602, 424.460 661.711, 433 670.500 C 439.363 677.048, 439.851 680.587, 435.540 688.923 C 432.833 694.157, 435.008 694.640, 440.573 690.041 C 443.263 687.819, 445.813 686, 446.241 686 C 447.452 686, 463.431 675.391, 464.917 673.600 C 465.646 672.722, 470.913 668.576, 476.621 664.388 C 482.330 660.199, 487 656.417, 487 655.983 C 487 655.550, 489.374 653.619, 492.276 651.692 C 499.208 647.091, 503 642.437, 503 638.530 C 503 634.562, 500.493 631.002, 497.693 630.994 C 496.385 630.991, 492.716 628.397, 488.600 624.568 L 481.700 618.148 482.324 612.179 C 483.155 604.221, 484.502 601.592, 489.393 598.377 C 495.243 594.532, 508 581.431, 508 579.267 C 508 577.593, 505.539 573.185, 503.942 572 C 503.572 571.725, 502.330 569.647, 501.182 567.383 C 497.494 560.108, 485.653 551.768, 477.063 550.394 C 474.796 550.032, 471.318 548.445, 469.333 546.868 C 465.683 543.966, 464.708 543.684, 462 544.746" stroke="#68533d" fill="#68533d" fill-opacity="0.2" fill-rule="evenodd"/><path class="svg-region-PMr" d="M 373.531 601.743 C 372.447 602.012, 369.095 604.429, 366.081 607.116 C 363.067 609.802, 360.325 612, 359.988 612 C 359.650 612, 356.028 616.086, 351.937 621.079 C 347.847 626.073, 340.634 633.447, 335.909 637.467 C 331.184 641.486, 325.584 646.963, 323.464 649.638 C 321.344 652.312, 318.010 656.137, 316.055 658.138 C 310.298 664.030, 305.619 669.958, 303.816 673.643 C 302.196 676.955, 298.189 682.194, 293.910 686.594 C 292.772 687.765, 289.368 689.214, 286.187 689.881 C 283.059 690.536, 278.700 691.482, 276.500 691.983 C 265.463 694.493, 265.933 693.989, 269.009 700.019 C 270.115 702.185, 271.686 706.779, 272.502 710.229 C 273.318 713.678, 274.693 718.750, 275.559 721.500 C 276.424 724.250, 277.256 728.618, 277.407 731.207 C 277.860 738.931, 280.373 740.380, 288.500 737.603 C 292.381 736.277, 294.348 734.148, 298.224 727.075 C 299.928 723.965, 300.029 723.932, 307.224 724.098 C 324.362 724.494, 335.211 723.939, 338.680 722.489 C 340.641 721.670, 344.037 721, 346.228 721 C 351.730 721, 361.702 718.313, 366.500 715.538 C 369.731 713.669, 372.519 713.116, 381 712.662 C 392.430 712.049, 394.236 711.684, 399.747 708.874 C 401.769 707.843, 404.407 707, 405.610 707 C 406.813 707, 410.255 705.707, 413.259 704.127 C 416.264 702.546, 420.971 700.506, 423.721 699.593 C 429.318 697.734, 433.774 693.025, 437.143 685.410 C 439.604 679.847, 438.698 676.259, 433.507 671 C 427.107 664.517, 422 657.891, 422 656.070 C 422 653.339, 414.164 644.060, 409.198 640.911 C 406.474 639.183, 403.891 636.401, 402.386 633.573 C 398.241 625.788, 386.383 608.655, 382.859 605.360 C 379.241 601.978, 376.644 600.971, 373.531 601.743" stroke="#90cf92" fill="#90cf92" fill-opacity="0.2" fill-rule="evenodd"/><path class="svg-region-PCr" d="M 298 547.459 C 295.525 548.217, 290.575 549.345, 287 549.966 C 282.815 550.692, 278.976 552.146, 276.221 554.047 C 273.867 555.671, 271.693 557, 271.389 557 C 271.085 557, 268.904 558.583, 266.542 560.519 C 262.327 563.973, 253 578.402, 253 581.469 C 253 582.302, 252.100 583.545, 251 584.232 C 249.900 584.919, 249 585.900, 249 586.412 C 249 586.924, 248.270 588.149, 247.379 589.134 C 245.070 591.685, 246.283 593.730, 250.832 594.955 C 252.996 595.538, 255.212 596.574, 255.755 597.257 C 256.299 597.941, 257.060 601.830, 257.447 605.900 C 257.834 609.970, 258.795 614.284, 259.583 615.487 C 261.405 618.267, 268.161 622.583, 279.092 627.951 C 286.769 631.721, 287.919 632.653, 289.883 636.696 C 291.776 640.592, 291.923 641.703, 290.942 644.676 C 290.315 646.576, 290.075 649.585, 290.408 651.362 C 290.932 654.152, 290.523 655.065, 287.412 658.047 C 285.430 659.946, 282.511 663.368, 280.925 665.651 C 277.744 670.228, 271.152 674, 266.334 674 C 264.591 674, 261.640 675.203, 259.398 676.826 C 257.252 678.381, 254.153 680.297, 252.510 681.084 C 247.891 683.298, 248.118 685.668, 253.176 688.009 C 255.554 689.110, 258.850 690.875, 260.500 691.932 C 263.597 693.916, 271.456 694.689, 272.435 693.106 C 272.739 692.614, 274.678 691.967, 276.744 691.669 C 285.941 690.341, 292.211 688.501, 294.090 686.577 C 297.962 682.612, 303.112 675.669, 304.463 672.593 C 305.210 670.892, 307.465 667.700, 309.475 665.500 C 311.486 663.300, 315.238 659.060, 317.815 656.077 C 323.003 650.072, 331.015 642.030, 342.151 631.651 C 346.193 627.884, 351.501 622.146, 353.947 618.901 C 356.392 615.655, 360.217 611.773, 362.447 610.274 C 364.676 608.776, 367.625 606.328, 369 604.835 C 370.375 603.343, 372.400 601.977, 373.500 601.801 C 375.152 601.537, 375.552 600.584, 375.800 596.316 C 376.088 591.345, 375.920 590.966, 371.300 586.204 C 368.660 583.484, 365.150 580.425, 363.500 579.408 C 356.723 575.230, 352.639 571.266, 350.856 567.135 C 346.672 557.440, 342.244 553.787, 329.269 549.329 C 319.918 546.117, 305.245 545.239, 298 547.459" stroke="#465ee0" fill="#465ee0" fill-opacity="0.2" fill-rule="evenodd"/><path class="svg-region-Or" d="M 704.500 154.945 C 680.599 161.263, 666.962 166.859, 656.967 174.450 C 647.859 181.369, 637.769 186.903, 628.546 190.040 C 623.760 191.668, 619.437 193, 618.940 193 C 616.926 193, 604.190 201.495, 599.678 205.848 C 587.656 217.445, 584 225.420, 584 240.045 C 584 245.337, 584.298 249.965, 584.662 250.329 C 586.654 252.321, 592.589 278.904, 593.519 290 C 593.911 294.675, 594.889 301.425, 595.693 305 C 598.397 317.018, 599.099 321.450, 600.051 332.500 C 600.573 338.550, 601.446 347.550, 601.991 352.500 C 603.787 368.790, 600.679 398.701, 596.087 409.333 C 594.939 411.991, 594 416.092, 594 418.446 C 594 422.291, 594.508 423.201, 598.990 427.394 C 601.735 429.962, 604.635 433.327, 605.435 434.874 C 608.943 441.658, 610.999 448.817, 610.999 454.250 C 611 457.416, 611.449 460, 612 460 C 612.617 460, 613 465.147, 613 473.441 C 613 481.323, 613.414 487.138, 614 487.500 C 615.297 488.301, 615.298 502.894, 614.003 515 C 613.444 520.225, 612.577 529.450, 612.076 535.500 C 611.357 544.191, 610.507 548.074, 608.030 554 C 606.305 558.125, 603.799 564.843, 602.461 568.930 C 601.123 573.016, 598.814 578.191, 597.332 580.430 C 593.123 586.783, 588 596.615, 588 598.339 C 588 599.198, 587.430 600.260, 586.733 600.700 C 585.451 601.509, 583 609.492, 583 612.859 C 583 613.866, 581.147 617.558, 578.881 621.063 C 574.901 627.221, 574.745 627.775, 574.246 637.553 C 573.862 645.070, 574.126 648.933, 575.271 652.585 C 576.119 655.288, 577.354 661.100, 578.015 665.500 C 578.677 669.900, 579.844 674.715, 580.609 676.200 C 581.374 677.686, 582.003 680.386, 582.006 682.200 C 582.013 686.641, 583.549 691.886, 587.069 699.491 C 588.681 702.974, 590 706.306, 590 706.897 C 590 708.950, 595.865 728.453, 606.126 760.521 C 607.713 765.482, 610.472 771.650, 612.256 774.226 C 622.087 788.423, 630.310 799.080, 632.744 800.775 C 637.686 804.217, 649.682 806.137, 667.500 806.338 C 676.055 806.434, 676.920 806.239, 685 802.383 C 700.890 794.800, 704.495 793.294, 709.750 792.047 C 712.638 791.361, 715 790.500, 715 790.133 C 715 789.766, 717.654 788.411, 720.897 787.123 C 724.141 785.835, 728.218 783.480, 729.959 781.890 C 731.699 780.301, 733.373 779, 733.678 779 C 734.616 779, 744.201 771.822, 750.009 766.771 C 760.687 757.484, 772.507 750.178, 795 738.964 C 798.575 737.182, 802.850 734.739, 804.500 733.537 C 807.078 731.658, 816.704 725.793, 831.226 717.251 C 840.885 711.570, 852.790 703.664, 856.464 700.491 C 870.850 688.066, 882.031 677.640, 884.513 674.336 C 888.603 668.892, 896.629 659.353, 902.044 653.500 C 908.703 646.303, 923.749 620.631, 927.440 610.171 C 928.270 607.818, 930.258 603.104, 931.858 599.696 C 938.299 585.975, 941.621 577.382, 946.045 563 C 947.822 557.225, 951.272 546.425, 953.711 539 C 959.077 522.668, 965.879 496.355, 969.921 476.296 C 973.648 457.798, 974.600 440.185, 973.093 417.666 C 971.318 391.160, 968.230 374.638, 961.660 356.500 C 960.266 352.650, 958.141 346.575, 956.938 343 C 952.822 330.764, 941.334 309.048, 922.091 277.126 C 914.341 264.271, 908 253.579, 908 253.367 C 908 252.159, 896.310 235.115, 894.117 233.126 C 892.678 231.820, 888.125 227.599, 884 223.746 C 877.264 217.454, 864.183 208, 862.214 208 C 861.793 208, 858.236 206.001, 854.310 203.558 C 844.834 197.661, 835.501 193, 833.168 193 C 832.129 193, 829.601 191.861, 827.550 190.469 C 825.499 189.077, 821.049 186.622, 817.660 185.013 C 814.272 183.404, 808.800 180.594, 805.500 178.769 C 802.200 176.944, 796.800 174.210, 793.500 172.694 C 790.200 171.177, 785.700 168.831, 783.500 167.479 C 778.655 164.503, 774.031 162.805, 763.500 160.136 C 759.100 159.021, 750.466 156.735, 744.313 155.055 C 729.834 151.101, 719.154 151.072, 704.500 154.945" stroke="#aa444d" fill="#aa444d" fill-opacity="0.2" fill-rule="evenodd"/><path class="svg-region-VOC" d="M 534.443 528.765 C 532.793 529.913, 530.708 535.797, 531.355 537.482 C 531.675 538.317, 531.470 539, 530.899 539 C 530.328 539, 530.005 540.010, 530.180 541.244 C 530.404 542.814, 531.400 543.679, 533.500 544.125 C 538.324 545.151, 544.830 545.083, 545.500 544 C 545.840 543.450, 547.126 543, 548.359 543 C 550.880 543, 553 541.282, 553 539.240 C 553 537.022, 546.654 528, 545.095 528 C 544.304 528, 542.835 528.745, 541.829 529.655 C 540.127 531.195, 539.873 531.195, 538.171 529.655 C 536.109 527.789, 535.915 527.742, 534.443 528.765" stroke="#ff8f93" fill="#ff8f93" fill-opacity="0.2" fill-rule="evenodd"/><path class="svg-region-OABr" d="M 611.500 461.369 C 610.950 462.136, 607.489 466.979, 603.808 472.132 C 600.128 477.284, 595.527 483.300, 593.584 485.500 C 591.641 487.700, 589.207 491.300, 588.175 493.500 C 580.480 509.902, 578.652 512.808, 572.651 518.175 C 569.262 521.207, 565.186 525.568, 563.593 527.866 C 559.232 534.158, 550.240 543, 548.201 543 C 547.210 543, 545.972 543.418, 545.450 543.929 C 544.927 544.439, 542.925 545.002, 541 545.179 C 537.751 545.477, 537.521 545.721, 537.792 548.583 C 538.014 550.938, 537.010 553.125, 533.542 557.836 C 528.591 564.561, 528.390 565, 530.263 565 C 532.077 565, 534.990 569.222, 537.591 575.623 C 540.125 581.858, 543.266 586.654, 548.596 592.426 C 551.944 596.053, 552.177 596.701, 551.652 600.926 C 551.339 603.442, 550.814 606.625, 550.485 608 C 549.682 611.355, 552.795 613.409, 556.532 611.988 C 557.961 611.445, 563.279 611, 568.349 611 L 577.568 611 580.534 605.088 C 582.708 600.755, 583.822 599.443, 584.706 600.174 C 586.368 601.549, 587.730 600.487, 588.470 597.239 C 588.814 595.732, 590.311 592.410, 591.797 589.856 C 593.284 587.301, 595.910 582.801, 597.634 579.856 C 599.358 576.910, 601.343 572.700, 602.046 570.500 C 602.749 568.300, 605.107 562.004, 607.287 556.509 C 610.680 547.953, 611.376 544.865, 612.130 535.009 C 612.614 528.679, 613.457 519.877, 614.005 515.448 C 615.276 505.163, 615.291 488.691, 614.031 487.431 C 613.497 486.897, 612.935 480.502, 612.781 473.218 C 612.587 464.062, 612.191 460.405, 611.500 461.369" stroke="#81244d" fill="#81244d" fill-opacity="0.2" fill-rule="evenodd"/><path class="svg-region-SOTr" d="M 578.743 452.746 C 577.254 454.301, 575.755 456.977, 575.411 458.693 C 575.068 460.410, 573.260 463.294, 571.394 465.103 C 568.648 467.765, 567.996 469.166, 567.978 472.446 C 567.954 476.773, 564.856 482.195, 563.584 480.136 C 562.006 477.583, 558.504 478.997, 555.869 483.252 C 552.549 488.611, 551.448 492.158, 549.431 504 C 548.541 509.225, 547.179 515.017, 546.406 516.872 C 544.109 522.381, 544.632 526.489, 548.250 531.346 C 550.038 533.746, 551.974 536.522, 552.552 537.515 C 553.504 539.147, 553.999 538.897, 557.712 534.910 C 559.971 532.485, 564.553 527.270, 567.894 523.322 C 571.235 519.375, 574.832 515.871, 575.887 515.536 C 577.553 515.007, 583.162 504.802, 588.547 492.500 C 590.483 488.076, 591.053 468.482, 589.297 466.725 C 588.543 465.971, 587.368 462.012, 586.686 457.927 C 585.237 449.247, 583.304 447.986, 578.743 452.746" stroke="#995b45" fill="#995b45" fill-opacity="0.2" fill-rule="evenodd"/><path class="svg-region-LBPCr" d="M 362.500 527.284 C 354.980 530.332, 353.219 532.510, 350.302 542.378 C 349.469 545.195, 347.520 549.229, 345.971 551.342 L 343.154 555.185 346.632 559.740 C 348.544 562.246, 350.371 565.605, 350.691 567.204 C 351.075 569.127, 353.121 571.618, 356.728 574.556 C 359.728 577, 362.589 579, 363.085 579 C 363.581 579, 366.747 581.718, 370.121 585.039 C 373.494 588.361, 376.345 590.949, 376.455 590.789 C 376.565 590.630, 377.211 589.101, 377.890 587.392 C 381.167 579.145, 396.935 570.493, 410.701 569.388 C 414.440 569.088, 418.400 568.473, 419.500 568.022 C 422.979 566.595, 427.314 565.184, 433.457 563.478 C 440.128 561.626, 447.147 558.181, 451.198 554.771 L 453.897 552.500 445.698 549.031 C 441.189 547.122, 437.259 545.227, 436.965 544.819 C 435.794 543.196, 428.829 541, 424.853 541 C 420.404 541, 415.360 539.720, 410.669 537.400 C 409.112 536.630, 406.056 536, 403.879 536 C 401.702 536, 398.251 535.154, 396.210 534.120 C 389.598 530.769, 379.392 526.995, 376.915 526.985 C 375.587 526.979, 372.475 526.770, 370 526.521 C 367.525 526.272, 364.150 526.615, 362.500 527.284" stroke="#daffff" fill="#daffff" fill-opacity="0.2" fill-rule="evenodd"/><path class="svg-region-PNr" d="M 219 593.849 C 215.206 595.394, 206.440 600.102, 202.390 602.769 C 193.795 608.431, 191.526 610.865, 187.203 619.062 C 183.611 625.873, 180.980 636.434, 181.035 643.815 C 181.132 656.741, 188.732 674.795, 197 681.740 C 201.533 685.548, 209.041 689, 212.788 689 C 215.132 689, 217.011 689.526, 217.256 690.250 C 218.107 692.771, 245.560 690.822, 250.069 687.921 C 251.289 687.136, 251.294 686.867, 250.104 686.101 C 248.228 684.892, 249.403 682.178, 252.276 681.085 C 253.555 680.599, 256.604 678.869, 259.051 677.241 C 261.689 675.486, 265.499 674.019, 268.409 673.638 C 273.862 672.923, 279.191 669.461, 281.400 665.198 C 282.169 663.714, 284.670 660.770, 286.958 658.655 C 290.504 655.378, 291.026 654.393, 290.496 651.981 C 290.154 650.425, 290.409 647.367, 291.062 645.186 C 292.121 641.653, 292 640.718, 289.952 636.619 C 287.866 632.441, 286.772 631.582, 278.077 627.296 C 267.829 622.243, 261.462 618.105, 259.394 615.153 C 258.689 614.146, 257.791 609.763, 257.398 605.411 C 256.653 597.159, 255.475 595.095, 251.473 595.032 C 250.357 595.014, 248.557 594.408, 247.473 593.684 C 244.185 591.490, 224.512 591.604, 219 593.849" stroke="#bbc0d1" fill="#bbc0d1" fill-opacity="0.2" fill-rule="evenodd"/><path class="svg-region-OVr" d="M 551.538 407.938 C 551.177 408.522, 548.419 409, 545.409 409 C 539.211 409, 533.326 411.090, 531.273 414.020 C 530.511 415.109, 529.337 416, 528.665 416 C 527.993 416, 525.944 417.028, 524.111 418.284 C 521.280 420.224, 520.746 421.223, 520.567 424.921 C 520.440 427.539, 521.082 430.700, 522.178 432.849 C 523.308 435.066, 524 438.582, 524 442.113 C 524 447.573, 523.856 447.887, 520.443 449.901 C 518.486 451.056, 516.067 452, 515.065 452 C 510.811 452, 510.500 453.969, 510.500 480.903 C 510.500 494.981, 510.821 507.638, 511.213 509.028 C 511.606 510.418, 513.968 514.185, 516.463 517.398 C 518.958 520.612, 521.010 524.199, 521.022 525.370 C 521.045 527.556, 524.249 532.472, 525.693 532.535 C 526.137 532.555, 527.497 533.125, 528.716 533.802 C 530.708 534.910, 531.082 534.742, 532.429 532.138 C 534.245 528.626, 536.439 527.619, 538.049 529.559 C 538.707 530.352, 539.640 531, 540.122 531 C 542.203 531, 544.821 526.887, 545.304 522.859 C 545.592 520.462, 546.535 515.800, 547.400 512.500 C 548.265 509.200, 549.849 502.405, 550.921 497.400 C 553.203 486.736, 557.308 479, 560.684 479 C 561.893 479, 563.198 479.511, 563.584 480.136 C 564.852 482.187, 567.954 476.775, 567.978 472.470 C 567.996 469.206, 568.640 467.837, 571.366 465.265 C 573.217 463.519, 574.993 460.783, 575.313 459.185 C 576.147 455.013, 580.789 449.827, 583.356 450.198 C 585.123 450.453, 585.636 451.634, 586.671 457.834 C 587.344 461.868, 588.469 465.860, 589.171 466.706 C 590.069 467.788, 590.369 471.387, 590.184 478.872 L 589.920 489.500 594.024 485 C 596.281 482.525, 599.327 478.700, 600.792 476.500 C 602.258 474.300, 605.250 470.026, 607.443 467.002 C 611.346 461.619, 611.422 461.351, 611.120 454.100 C 610.455 438.160, 599.163 422, 588.689 422 C 586.381 422, 584.650 421.356, 583.807 420.184 C 582.165 417.902, 579.187 416.635, 576.169 416.933 C 573.389 417.209, 570.187 414.581, 568.510 410.646 C 567.354 407.935, 566.913 407.769, 559.744 407.334 C 555.009 407.047, 551.950 407.272, 551.538 407.938" stroke="#593939" fill="#593939" fill-opacity="0.2" fill-rule="evenodd"/><path class="svg-region-ODMr" d="M 519.430 565.414 C 512.051 566.407, 511.095 566.802, 508.277 570.022 C 505.513 573.178, 505.339 573.743, 506.597 575.463 C 507.368 576.519, 508 578.216, 508 579.235 C 508 581.424, 495.284 594.506, 489.393 598.377 C 484.502 601.592, 483.155 604.221, 482.324 612.179 L 481.700 618.148 488.600 624.568 C 492.395 628.099, 496.288 630.991, 497.250 630.994 C 499.980 631.003, 503 634.683, 503 638 C 503 639.650, 503.391 641, 503.870 641 C 506.284 641, 517.153 636.860, 522 634.095 C 525.025 632.369, 530.017 629.646, 533.092 628.044 C 536.168 626.441, 539.397 624.043, 540.267 622.715 C 541.138 621.386, 543.459 619.536, 545.425 618.603 C 548.562 617.114, 549.004 616.453, 549.035 613.203 C 549.055 611.166, 549.714 608.375, 550.500 607 C 551.286 605.625, 551.945 602.643, 551.965 600.372 C 551.995 596.782, 551.245 595.343, 546.192 589.311 C 542.673 585.108, 539.505 580.023, 538.150 576.402 C 535.625 569.650, 532.450 565.373, 529.500 564.750 C 528.400 564.518, 523.868 564.817, 519.430 565.414" stroke="#999999" fill="#999999" fill-opacity="0.2" fill-rule="evenodd"/>
    </svg>