<svg xmlns="http://www.w3.org/2000/svg" width="1078" height="1151" viewBox="0 0 1078 1151" version="1.1">
    <path class="svg-region-DB" d="M 488.500 375.089 C 485.750 376.179, 482.555 378.126, 481.399 379.417 C 480.244 380.708, 477.544 382.576, 475.399 383.567 C 471.671 385.291, 468.436 387.690, 461.216 394.090 C 459.410 395.690, 457.303 397, 456.533 397 C 454.779 397, 449.053 404.085, 446.102 409.907 C 444.874 412.331, 443.606 416.606, 443.286 419.407 C 442.965 422.208, 442.095 425.388, 441.352 426.473 C 440.608 427.557, 440 429.641, 440 431.104 C 440 432.943, 438.970 434.548, 436.660 436.310 C 434.239 438.157, 432.039 441.729, 428.660 449.298 C 426.097 455.040, 424 460.236, 424 460.845 C 424 461.454, 423.102 463.425, 422.004 465.226 C 420.906 467.027, 420.006 469.288, 420.004 470.250 C 420.002 471.212, 419.276 472, 418.392 472 C 417.195 472, 416.937 472.612, 417.383 474.391 C 418.016 476.913, 414.601 486, 413.021 486 C 412.533 486, 411.873 486.826, 411.552 487.835 C 411.232 488.845, 409.427 491.404, 407.542 493.523 C 403.996 497.510, 403.722 499.755, 406.995 498.003 C 410.636 496.054, 411 496.772, 411 505.893 C 411 513.080, 411.303 514.902, 412.582 515.393 C 415.245 516.415, 417.694 516.074, 419 514.500 C 421.247 511.793, 423.721 512.912, 429.505 519.250 C 435.902 526.259, 439.517 533.158, 440.554 540.334 C 441.110 544.185, 441.582 545.058, 442.876 544.630 C 443.769 544.335, 447.185 543.134, 450.466 541.962 C 455.575 540.136, 457.873 539.908, 466.466 540.368 C 478.438 541.009, 490.731 542.444, 493.500 543.524 C 494.600 543.953, 496.272 544.967, 497.217 545.777 C 498.775 547.113, 499.577 546.615, 505.906 540.375 C 509.742 536.594, 513.361 533.050, 513.950 532.500 C 514.539 531.950, 516.826 529.577, 519.032 527.226 C 522.324 523.719, 522.863 522.612, 522.033 521.061 C 521.476 520.021, 520.570 507.544, 520.020 493.335 C 518.923 464.990, 518.054 455.628, 516.213 452.316 C 515.546 451.114, 515 447.822, 515 445 C 515 442.178, 514.505 438.944, 513.900 437.813 C 511.831 433.948, 512.574 424.638, 515.400 419.012 C 516.830 416.165, 518 412.555, 518 410.989 C 518 409.424, 518.738 407.405, 519.640 406.502 C 520.838 405.305, 521.398 402.434, 521.714 395.874 L 522.147 386.886 518.489 382.421 C 516.476 379.965, 513.348 377.337, 511.537 376.580 C 509.726 375.823, 507.938 374.708, 507.563 374.102 C 506.419 372.250, 494.051 372.891, 488.500 375.089" stroke="#e8b1e4" fill="#e8b1e4" fill-opacity="0.2" fill-rule="evenodd"/><path class="svg-region-IBr" d="M 510.505 535.559 L 498.875 547.210 505.265 553.855 C 508.779 557.510, 512.138 561.376, 512.728 562.447 C 513.564 563.966, 514.239 564.186, 515.793 563.447 C 518.712 562.060, 527.945 550.912, 528.587 548 C 528.890 546.625, 529.557 544.466, 530.069 543.203 C 532.557 537.064, 529.166 526.089, 524.317 524.585 C 522.490 524.018, 520.241 525.805, 510.505 535.559" stroke="#b10e0e" fill="#b10e0e" fill-opacity="0.2" fill-rule="evenodd"/><path class="svg-region-DMr" d="M 450 542.024 C 439.480 545.971, 429.483 548.970, 426.795 548.985 C 422.495 549.009, 411.497 553.414, 405.602 557.474 C 399.480 561.690, 392.936 569.253, 389.416 576.179 C 388.108 578.753, 386.573 581.146, 386.005 581.497 C 385.436 581.848, 384.038 583.966, 382.896 586.204 C 380.560 590.782, 380.861 591.269, 387.091 592.996 C 391.639 594.257, 393.601 596.444, 396.113 603.054 C 398.817 610.173, 406.070 621.202, 409.787 623.849 C 411.451 625.033, 415.837 629.586, 419.532 633.965 C 423.927 639.173, 427.375 642.299, 429.497 642.999 C 431.282 643.588, 434.251 645.728, 436.096 647.755 C 439.213 651.181, 439.429 651.856, 439.156 657.352 L 438.863 663.264 441.832 661.382 C 447.610 657.720, 459.221 650.470, 462.836 648.268 C 464.851 647.040, 469.650 644.444, 473.500 642.500 C 493.502 632.395, 494.547 631.635, 495.246 626.682 C 495.493 624.932, 496.014 622.772, 496.404 621.881 C 496.889 620.774, 495.957 619.036, 493.453 616.382 C 490.011 612.731, 489.820 612.189, 490.232 607.220 C 490.488 604.127, 491.492 600.811, 492.655 599.219 C 493.746 597.724, 495.733 593.834, 497.070 590.575 C 498.774 586.422, 501.661 582.386, 506.729 577.075 C 514.195 569.251, 514.727 568.074, 512.947 563.315 C 511.852 560.385, 497.991 545.687, 494.500 543.753 C 492.054 542.398, 481.166 541.116, 466.500 540.455 C 457.045 540.030, 454.728 540.250, 450 542.024" stroke="#68533d" fill="#68533d" fill-opacity="0.2" fill-rule="evenodd"/><path class="svg-region-PMr" d="M 377.027 591.250 C 373.780 595.111, 370.271 600.075, 368.619 603.145 C 367.585 605.067, 365.110 607.723, 363.119 609.046 C 354.936 614.484, 350.289 618.397, 346.500 623.039 C 344.300 625.734, 339.070 630.766, 334.879 634.220 C 327.305 640.461, 320.799 647.907, 319.589 651.720 C 318.762 654.324, 307.567 663, 305.033 663 C 303.175 663, 301.344 663.698, 291.296 668.235 C 288.984 669.279, 286.822 670.986, 286.491 672.029 C 285.476 675.225, 297.251 692, 300.509 692 C 301.123 692, 302.868 693.297, 304.386 694.881 C 305.904 696.466, 308.801 698.433, 310.823 699.252 C 317.378 701.907, 324.446 704.010, 326.800 704.005 C 328.064 704.002, 330.393 704.669, 331.974 705.486 C 337.685 708.440, 354.652 707.157, 369.504 702.650 C 386.642 697.449, 401.951 689.353, 419.204 676.369 C 424.541 672.352, 430.391 668.438, 432.204 667.671 C 436.976 665.651, 438.656 663.183, 439.324 657.206 C 439.885 652.190, 439.732 651.709, 436.392 648.012 C 434.454 645.867, 431.380 643.620, 429.561 643.020 C 426.777 642.101, 418.515 633.789, 415.234 628.605 C 414.830 627.968, 412.604 625.971, 410.287 624.168 C 405.793 620.672, 398.006 608.963, 396.026 602.725 C 394.454 597.769, 390.371 593.008, 387.661 592.968 C 386.472 592.951, 384.626 592.276, 383.559 591.468 C 381.182 589.670, 378.433 589.579, 377.027 591.250" stroke="#90cf92" fill="#90cf92" fill-opacity="0.2" fill-rule="evenodd"/><path class="svg-region-PCr" d="M 310.800 537.101 C 310.524 537.927, 308.967 538.500, 306.998 538.500 C 304.366 538.500, 303.329 539.102, 302.081 541.354 C 301.211 542.923, 298.843 545.168, 296.818 546.342 L 293.137 548.477 290.754 546.239 C 288.248 543.884, 286.392 543.384, 285.833 544.912 C 285.355 546.222, 275.041 553, 273.527 553 C 272.130 553, 264 561.411, 264 562.856 C 264 563.352, 262.682 564.303, 261.070 564.971 C 257.821 566.317, 255.844 569.885, 254.039 577.667 C 253.380 580.509, 251.976 583.617, 250.920 584.572 C 249.864 585.528, 249 586.957, 249 587.747 C 249 588.538, 248.100 590.329, 247 591.727 C 245.026 594.236, 244.342 597, 245.695 597 C 246.078 597, 247.552 595.887, 248.972 594.527 C 251.082 592.505, 252.092 592.197, 254.499 592.841 C 260.509 594.449, 259.695 605.345, 253.338 608.376 C 250.644 609.661, 250 610.549, 250 612.984 C 250 615.581, 250.369 616, 252.654 616 C 255.982 616, 273.865 625.057, 277.822 628.746 C 280.921 631.636, 285 638.849, 285 641.440 C 285 642.276, 284.267 644.791, 283.371 647.031 C 282.123 650.150, 281.071 651.236, 278.871 651.676 C 275.771 652.296, 275.160 654.058, 277.402 655.919 C 278.173 656.558, 279.108 658.301, 279.480 659.791 C 279.852 661.281, 281.269 663.962, 282.629 665.750 C 285.365 669.346, 288.433 669.910, 292.846 667.627 C 298.149 664.884, 303.111 663, 305.033 663 C 306.960 663, 319 654.358, 319 652.975 C 319 650.539, 327.878 639.981, 334.578 634.449 C 338.935 630.851, 344.420 625.625, 346.766 622.835 C 351.466 617.247, 353.316 615.652, 360.880 610.671 C 364.474 608.304, 367.551 604.950, 371.218 599.401 C 374.090 595.055, 377.240 590.912, 378.220 590.193 C 380.311 588.659, 380.502 586.668, 378.737 584.821 C 378.042 584.095, 376.683 582.264, 375.717 580.754 C 374.082 578.200, 363.559 572, 360.859 572 C 358.820 572, 347.051 562.591, 347.025 560.940 C 347.011 560.082, 344.992 557.028, 342.538 554.154 C 339.714 550.845, 337.851 547.564, 337.461 545.213 C 336.319 538.333, 337.007 538.660, 325.294 539.444 C 315.020 540.132, 314.567 540.077, 312.947 537.930 C 311.689 536.263, 311.149 536.054, 310.800 537.101" stroke="#465ee0" fill="#465ee0" fill-opacity="0.2" fill-rule="evenodd"/><path class="svg-region-Or" d="M 752 160.045 C 732.708 160.838, 726.673 161.549, 718.500 163.995 C 715.200 164.983, 710.025 166.349, 707 167.030 C 701.551 168.259, 693.964 171.619, 689.049 174.981 C 681.579 180.091, 666.451 188.411, 658.991 191.512 C 654.321 193.453, 649.600 195.430, 648.500 195.904 C 647.400 196.378, 642.337 198.486, 637.250 200.588 C 632.163 202.690, 628 204.749, 628 205.164 C 628 206.139, 622.769 211, 621.721 211 C 619.806 211, 613 219.227, 613 221.540 C 613 222.893, 612.647 224, 612.216 224 C 611.784 224, 610.634 225.349, 609.660 226.998 C 608.027 229.763, 607.975 231.376, 608.991 247.748 C 609.596 257.512, 610.538 268.200, 611.083 271.500 C 611.627 274.800, 612.342 281.545, 612.670 286.489 C 612.999 291.433, 613.835 296.383, 614.529 297.489 C 617.140 301.652, 619.344 367.771, 617.063 373.485 C 614.793 379.170, 612.636 383.513, 610.651 386.395 C 609.033 388.744, 608.693 390.725, 608.847 396.895 C 608.952 401.078, 609.246 405.175, 609.501 406 C 611.014 410.890, 612.992 443.869, 612.996 464.250 C 613 486.612, 613.107 488, 614.833 488 C 615.842 488, 618.429 489.523, 620.583 491.384 L 624.500 494.769 624.412 508.634 C 624.364 516.260, 623.991 524.075, 623.584 526 C 622.674 530.301, 616.886 544, 615.979 544 C 615.617 544, 614.720 545.913, 613.986 548.250 C 613.253 550.587, 612.280 552.928, 611.826 553.450 C 611.372 553.973, 611 554.994, 611 555.720 C 611 556.446, 609.943 558.718, 608.651 560.770 C 607.359 562.821, 605.693 566.188, 604.949 568.252 C 604.206 570.315, 601.809 574.365, 599.623 577.252 C 597.438 580.138, 594.357 585.200, 592.778 588.500 C 591.198 591.800, 589.190 595.850, 588.316 597.500 C 584.868 604.008, 584.060 606.213, 582.919 612.240 C 582.099 616.572, 580.884 619.424, 578.973 621.500 C 577.455 623.150, 575.312 626.300, 574.211 628.500 C 573.111 630.700, 571.275 634.300, 570.131 636.500 C 568.988 638.700, 567.599 643.650, 567.046 647.500 C 565.496 658.281, 565.762 682.523, 567.500 689 C 568.312 692.025, 568.982 696.811, 568.988 699.635 C 568.999 704.202, 569.648 707.235, 573.026 718.500 C 573.521 720.150, 574.431 724.875, 575.050 729 C 575.668 733.125, 576.955 737.854, 577.910 739.508 C 578.865 741.162, 580.462 745.662, 581.458 749.508 C 584.024 759.409, 591.715 774.514, 601.333 788.540 C 609.159 799.952, 617.355 809, 619.868 809 C 620.498 809, 621.946 810.073, 623.086 811.384 C 626.862 815.727, 640.882 820.693, 653.147 822.033 C 662.571 823.062, 663.011 823.016, 672.147 820.039 C 677.291 818.363, 682.400 816.596, 683.500 816.114 C 684.600 815.632, 688.875 813.770, 693 811.978 C 697.125 810.185, 701.864 807.709, 703.530 806.476 C 705.197 805.242, 712.397 801.201, 719.530 797.495 C 738.809 787.478, 745.121 783.912, 749 780.844 C 750.925 779.322, 756.550 776.364, 761.500 774.272 C 766.450 772.180, 771.625 769.755, 773 768.882 C 780.103 764.376, 785.184 762.007, 790.951 760.513 C 794.458 759.604, 800.291 757.376, 803.913 755.561 C 807.536 753.747, 811.625 751.923, 813 751.509 C 815.896 750.637, 828.163 742.714, 829.948 740.563 C 830.613 739.761, 833.260 738.365, 835.829 737.459 C 845.730 733.971, 850.673 731.398, 855.313 727.316 C 857.960 724.987, 862.773 721.376, 866.008 719.291 C 886.587 706.030, 887.158 705.559, 890.363 699.190 C 891.938 696.061, 893.784 692.825, 894.465 692 C 895.147 691.175, 897.146 686.984, 898.908 682.686 C 903.169 672.291, 904.668 670.405, 926.857 647.500 C 927.923 646.400, 930.264 643.025, 932.059 640 C 933.854 636.975, 936.291 633.375, 937.475 632 C 940.938 627.976, 948.668 613.806, 949.476 610 C 949.885 608.075, 951.935 603.125, 954.032 599 C 958.806 589.609, 962.251 580.679, 964.872 570.906 C 965.992 566.729, 968.440 559.950, 970.313 555.841 C 972.185 551.732, 974.035 546.254, 974.423 543.668 C 975.155 538.785, 978.326 530.605, 980.496 528 C 981.184 527.175, 982.731 523.125, 983.936 519 C 986.487 510.262, 987.896 506.014, 991.320 496.737 C 992.693 493.017, 994.108 487.617, 994.466 484.737 C 994.823 481.857, 995.771 475.830, 996.572 471.344 C 998.340 461.449, 1001.243 440.448, 1001.320 437 C 1001.417 432.656, 999.001 412.275, 997.557 405.249 C 996.793 401.537, 995.660 395.410, 995.038 391.633 C 993.573 382.739, 989.428 367.669, 986.948 362.223 C 985.876 359.871, 985.001 356.946, 985.002 355.723 C 985.004 354.500, 983.696 350.350, 982.096 346.500 C 980.496 342.650, 977.963 336.350, 976.468 332.500 C 972.745 322.917, 969.655 316.822, 964.051 308 C 961.430 303.875, 958.028 298.278, 956.491 295.563 C 954.954 292.848, 952.024 288.798, 949.979 286.563 C 947.934 284.328, 944.740 280.215, 942.881 277.422 C 936.958 268.525, 933.720 264.612, 928.546 260.098 C 925.771 257.677, 918.152 250.702, 911.615 244.598 C 899.683 233.457, 898.402 232.298, 888.831 224 C 885.977 221.525, 880.909 216.979, 877.571 213.898 C 872.027 208.784, 857.010 198, 855.430 198 C 855.066 198, 851.750 195.993, 848.059 193.539 C 844.369 191.086, 839.133 188.155, 836.425 187.025 C 830.382 184.506, 818.386 178.322, 815 175.982 C 807.631 170.887, 786.489 162.008, 781.674 161.985 C 779.928 161.977, 776.700 161.321, 774.500 160.529 C 772.300 159.736, 770.050 159.151, 769.500 159.228 C 768.950 159.304, 761.075 159.672, 752 160.045" stroke="#aa444d" fill="#aa444d" fill-opacity="0.2" fill-rule="evenodd"/><path class="svg-region-DLr" d="M 537.388 421.987 C 536.511 424.180, 534.265 427.317, 532.397 428.957 C 530.528 430.597, 529 432.788, 529 433.826 C 529 434.863, 530.596 437.802, 532.546 440.356 C 535.794 444.610, 536.453 445, 540.385 445 C 544.012 445, 545.169 444.461, 547.839 441.527 C 550.061 439.085, 551 437.062, 551 434.718 C 551 430.629, 549.553 428.560, 545 426.139 C 542.310 424.709, 541.427 423.551, 541.187 421.139 C 540.760 416.870, 539.306 417.195, 537.388 421.987" stroke="#b7d6d3" fill="#b7d6d3" fill-opacity="0.2" fill-rule="evenodd"/><path class="svg-region-OABr" d="M 608.250 473.580 C 606.462 476.032, 605 478.479, 605 479.019 C 605 479.558, 604.647 480, 604.216 480 C 602.740 480, 600 485.805, 600 488.932 C 600 493.078, 594.189 504.566, 589.730 509.235 C 586.571 512.542, 586.092 513.746, 585.550 519.735 C 585.213 523.456, 584.378 527.615, 583.693 528.977 C 581.687 532.971, 576.311 536, 571.228 536 C 567.187 536, 566.373 536.430, 562.849 540.434 C 559.650 544.069, 557.956 545.090, 553.461 546.096 C 547.307 547.473, 546.524 548.131, 545.536 552.750 L 544.841 556 549.266 556 C 556.742 556, 559.689 561.423, 555.536 567.542 C 554.141 569.597, 553 572.193, 553 573.311 C 553 574.428, 552.381 576.053, 551.625 576.921 C 550.104 578.667, 548.625 604.650, 549.998 605.499 C 550.420 605.760, 551.866 605.107, 553.211 604.048 C 556.983 601.081, 560.256 600.694, 566.981 602.417 C 570.380 603.287, 574.245 604, 575.569 604 C 578.320 604, 582 601.231, 582 599.161 C 582 598.225, 582.796 597.919, 584.425 598.230 C 587.261 598.773, 589.481 596.229, 592.878 588.546 C 594.083 585.821, 596.844 581.239, 599.015 578.364 C 601.185 575.489, 603.726 571.194, 604.661 568.818 C 605.595 566.443, 607.404 562.821, 608.680 560.770 C 609.956 558.718, 611 556.356, 611 555.520 C 611 554.684, 611.450 554, 612 554 C 612.550 554, 613 553.121, 613 552.047 C 613 549.988, 614.996 544.848, 616.125 544 C 617.287 543.127, 622.686 529.690, 623.866 524.736 C 624.489 522.115, 625 514.508, 625 507.831 L 625 495.690 620.958 491.845 C 618.735 489.730, 616.035 488, 614.958 488 C 613.151 488, 613 487.265, 613 478.500 C 613 473.275, 612.663 469.028, 612.250 469.062 C 611.837 469.096, 610.038 471.129, 608.250 473.580" stroke="#81244d" fill="#81244d" fill-opacity="0.2" fill-rule="evenodd"/><path class="svg-region-SOTr" d="M 569.500 480.721 C 566.632 480.987, 565.168 481.716, 564.328 483.296 C 551.974 506.516, 551.501 508.382, 552.661 529.326 C 553.418 543, 553.684 544.514, 555.381 544.838 C 558.106 545.358, 561.175 543.418, 563.886 539.461 C 566.092 536.243, 566.631 536, 571.587 536 C 576.385 536, 577.304 535.627, 580.812 532.250 C 584.401 528.796, 584.757 527.956, 585.329 521.612 C 585.947 514.760, 587.593 510.862, 591.075 508 C 592.079 507.175, 594.498 503.250, 596.450 499.278 C 600.206 491.635, 601.182 484.226, 598.704 482.169 C 597.924 481.522, 593.927 481.222, 588.683 481.417 C 583.884 481.596, 579.716 481.350, 579.420 480.871 C 578.890 480.012, 577.378 479.989, 569.500 480.721" stroke="#995b45" fill="#995b45" fill-opacity="0.2" fill-rule="evenodd"/><path class="svg-region-LBPCr" d="M 405.773 498.372 C 404.274 499.037, 401.748 500.825, 400.161 502.346 C 397.702 504.701, 396.476 505.098, 391.887 505.022 C 384.236 504.894, 372.886 506.346, 370.316 507.781 C 369.114 508.451, 367.314 509.012, 366.316 509.028 C 365.317 509.043, 361.350 511.068, 357.500 513.527 C 353.650 515.987, 349.262 518.494, 347.750 519.098 C 346.238 519.702, 345 520.846, 345 521.642 C 345 522.437, 344.328 522.955, 343.507 522.794 C 341.878 522.473, 329.045 535.720, 329.017 537.750 C 329.007 538.508, 330.336 539, 332.393 539 C 335.949 539, 337 540.244, 337 544.452 C 337 545.711, 339.250 549.827, 342 553.599 C 344.750 557.371, 347.017 560.917, 347.038 561.479 C 347.126 563.855, 355.987 569.728, 366.845 574.607 C 370.681 576.331, 374.030 578.653, 375.312 580.479 C 376.479 582.141, 378.046 584.130, 378.795 584.899 C 379.543 585.669, 379.937 587.131, 379.671 588.149 C 378.823 591.394, 380.889 590.138, 382.907 586.183 C 383.978 584.084, 385.518 581.815, 386.330 581.141 C 387.142 580.467, 388.961 577.572, 390.372 574.708 C 392.946 569.481, 399.180 562.586, 406.339 557.047 C 410.949 553.481, 418.832 550.404, 426.713 549.094 C 429.896 548.565, 434.300 547.484, 436.500 546.691 C 440.428 545.275, 440.496 545.168, 440.266 540.708 C 440.137 538.210, 439.226 534.114, 438.241 531.606 C 436.231 526.489, 424.704 513, 422.341 513 C 421.498 513, 419.491 513.778, 417.880 514.730 C 412.899 517.672, 411.552 515.837, 411.211 505.644 C 410.903 496.427, 410.718 496.179, 405.773 498.372" stroke="#daffff" fill="#daffff" fill-opacity="0.2" fill-rule="evenodd"/><path class="svg-region-PNr" d="M 248.250 595.044 C 245.645 597.391, 245 598.742, 245 601.851 C 245 604.219, 245.781 606.723, 247.005 608.279 L 249.010 610.828 252.859 608.720 C 257.287 606.295, 259.117 602.495, 258.295 597.431 C 257.675 593.609, 257.606 593.533, 254 592.696 C 252.133 592.263, 250.678 592.857, 248.250 595.044 M 253 617.441 C 253 618.234, 253.456 619.164, 254.014 619.509 C 254.572 619.854, 255.895 621.793, 256.955 623.818 C 258.015 625.843, 260.257 629.075, 261.938 631 C 263.620 632.925, 264.996 634.776, 264.998 635.112 C 264.999 635.449, 266.240 637.285, 267.755 639.192 C 269.270 641.098, 271.591 644.760, 272.912 647.329 C 276.501 654.307, 281.498 653.540, 284.008 645.625 C 286.799 636.827, 280.689 628.681, 265.560 621.028 C 255.033 615.703, 253 615.123, 253 617.441" stroke="#bbc0d1" fill="#bbc0d1" fill-opacity="0.2" fill-rule="evenodd"/><path class="svg-region-OVr" d="M 603.459 391.042 C 601.288 393.265, 598.384 395.365, 597.006 395.709 C 595.628 396.052, 592.700 397.148, 590.500 398.144 C 588.300 399.141, 584.420 399.966, 581.877 399.978 C 576.998 400.001, 568.051 403.338, 566.700 405.638 C 566.260 406.387, 564.334 407, 562.418 407 C 560.503 407, 557.263 407.746, 555.218 408.657 C 553.173 409.568, 549.250 410.581, 546.500 410.907 L 541.500 411.500 541.209 418.047 L 540.918 424.594 544.561 426.024 C 551.709 428.829, 553.077 435.025, 547.927 441.272 C 545.226 444.550, 544.321 445, 540.437 445 C 536.323 445, 535.780 444.674, 532.535 440.250 C 530.618 437.637, 529.038 434.765, 529.025 433.868 C 529.011 432.970, 530.771 430.464, 532.935 428.300 C 536.289 424.946, 539.095 419.467, 537.870 418.664 C 537.667 418.531, 534.800 417.089, 531.500 415.461 C 526.059 412.776, 525.469 412.175, 525.168 409.004 C 524.850 405.651, 523.492 403, 522.093 403 C 520.821 403, 518 408.831, 518 411.462 C 518 412.921, 516.831 416.208, 515.403 418.767 C 513.332 422.476, 512.798 424.806, 512.763 430.269 C 512.739 434.122, 513.219 437.619, 513.860 438.260 C 514.487 438.887, 515 441.815, 515 444.766 C 515 447.717, 515.549 451.114, 516.219 452.316 C 518.010 455.524, 518.924 465.509, 519.987 493.467 C 520.519 507.453, 521.435 519.636, 522.070 521.168 C 522.693 522.672, 524.237 524.581, 525.503 525.410 C 528.738 527.530, 531.387 534.951, 530.602 539.697 C 529.296 547.598, 529.210 547.343, 533.500 548.211 C 536.298 548.777, 538.101 549.915, 539.500 551.999 C 542.263 556.114, 543.863 556.464, 545.137 553.230 C 547.142 548.146, 547.621 547.647, 551.563 546.539 C 553.747 545.925, 555.004 545.124, 554.385 544.741 C 552.750 543.726, 551.586 514.736, 552.939 508.738 C 554.140 503.415, 558.848 492.986, 563.236 485.927 C 566.055 481.392, 566.288 481.255, 572.213 480.636 C 575.558 480.286, 578.791 480.390, 579.397 480.867 C 580.004 481.343, 584.432 481.588, 589.238 481.410 C 597.208 481.114, 598.072 481.266, 599.075 483.140 C 600.168 485.182, 600.185 485.180, 601.779 482.848 C 602.662 481.556, 603.635 480.275, 603.942 480 C 604.249 479.725, 604.950 478.780, 605.500 477.899 C 606.050 477.019, 607.962 474.364, 609.750 471.999 L 613 467.700 612.988 454.100 C 612.981 446.620, 612.267 433.075, 611.402 424 C 608.427 392.810, 608.378 391.825, 609.664 389.347 C 611.716 385.392, 607.979 386.413, 603.459 391.042" stroke="#593939" fill="#593939" fill-opacity="0.2" fill-rule="evenodd"/><path class="svg-region-ODMr" d="M 526.248 552.250 C 522.524 557.369, 516.113 564, 514.886 564 C 514.399 564, 514 565.098, 514 566.441 C 514 568.068, 511.744 571.315, 507.227 576.191 C 502.197 581.618, 499.108 586.236, 495.227 594.128 C 488.692 607.417, 488.418 611.022, 493.523 616.594 C 495.801 619.082, 496.807 620.981, 496.370 621.970 C 495.999 622.812, 495.482 625.030, 495.221 626.900 C 494.777 630.081, 494.899 630.256, 497.123 629.626 C 498.430 629.255, 501.750 628.471, 504.500 627.882 C 507.250 627.293, 510.190 626.461, 511.033 626.033 C 511.876 625.605, 514.126 624.920, 516.033 624.512 C 517.940 624.103, 519.950 623.424, 520.500 623.003 C 521.050 622.581, 524.481 621.566, 528.124 620.746 C 533.694 619.493, 535.909 618.297, 542.051 613.228 L 549.354 607.201 549.756 593.351 C 550.036 583.669, 550.585 578.833, 551.578 577.285 C 552.360 576.067, 553 574.259, 553 573.267 C 553 572.276, 554.170 569.743, 555.600 567.638 C 558.049 564.034, 558.119 563.600, 556.813 560.156 C 555.434 556.519, 555.390 556.497, 548.546 556 C 544.142 555.680, 541.509 555.030, 541.231 554.193 C 540.219 551.155, 535.834 548, 532.624 548 C 529.911 548, 528.801 548.740, 526.248 552.250" stroke="#999999" fill="#999999" fill-opacity="0.2" fill-rule="evenodd"/>
    </svg>