<svg xmlns="http://www.w3.org/2000/svg" width="1078" height="1151" viewBox="0 0 1078 1151" version="1.1">
    <path class="svg-region-V" d="M 459.500 272.069 C 455.756 274.099, 443.507 281.227, 439.874 283.488 C 438.980 284.045, 435.830 286.411, 432.874 288.746 C 429.918 291.081, 424.261 295.495, 420.302 298.555 C 413.681 303.673, 413.050 304.483, 412.420 308.683 C 412.044 311.193, 412.015 316.250, 412.356 319.919 C 412.830 325.020, 412.508 328.227, 410.988 333.542 C 407.747 344.873, 408.688 355.258, 413.900 365.698 C 416.397 370.698, 420.601 374.095, 427.787 376.921 C 436.109 380.193, 451.893 379.805, 462.500 376.068 C 478.557 370.411, 483.019 368.349, 489.694 363.497 C 493.437 360.776, 498.975 357.242, 502 355.645 C 509.926 351.459, 515.594 346.555, 518.711 341.188 C 520.208 338.609, 521.997 335.919, 522.686 335.209 C 524.721 333.113, 528.138 320.245, 528.691 312.594 C 529.257 304.757, 526.886 288.774, 524.781 286.235 C 522.870 283.931, 517.571 282, 513.158 282 C 508.343 282, 503.012 280.163, 492 274.709 C 483.964 270.730, 482.954 270.484, 473.500 270.199 C 464.786 269.937, 462.986 270.178, 459.500 272.069" stroke="#dd8a8a" fill="#dd8a8a" fill-opacity="0.2" fill-rule="evenodd"/><path class="svg-region-DB" d="M 477.500 411.719 C 476.400 411.987, 474.794 412.831, 473.930 413.595 C 471.632 415.629, 462.354 418.607, 455.766 419.427 C 452.612 419.819, 449.804 420.509, 449.525 420.959 C 449.247 421.410, 447.777 422.088, 446.259 422.466 C 444.742 422.844, 441.135 424.935, 438.244 427.113 C 434.246 430.126, 432.132 432.773, 429.413 438.172 L 425.839 445.270 426.169 456.971 C 426.496 468.546, 426.532 468.699, 429.500 471.304 C 432.193 473.667, 433.319 473.941, 440.500 473.981 C 452.619 474.049, 473.497 468.762, 479.564 464.090 C 485.833 459.261, 495.364 450.141, 496.588 447.800 C 498.129 444.852, 498.496 438.425, 497.171 437.606 C 496.715 437.324, 495.766 434.485, 495.063 431.297 C 492.978 421.845, 492.289 420.227, 488.342 415.505 C 484.566 410.987, 482.897 410.404, 477.500 411.719" stroke="#e8b1e4" fill="#e8b1e4" fill-opacity="0.2" fill-rule="evenodd"/><path class="svg-region-MB" d="M 493.500 451.457 C 483.214 461.911, 477.711 465.658, 466 470.184 L 463.500 471.151 466 472.540 C 467.375 473.304, 469.262 473.945, 470.193 473.965 C 471.910 474.001, 478.640 477.582, 480.536 479.469 C 485.319 484.227, 487.125 488.108, 487.689 494.832 C 488.419 503.536, 486.961 509.657, 482.723 515.681 C 478.161 522.165, 470.740 526.152, 462.175 526.721 C 455.890 527.138, 455.149 526.951, 449.500 523.514 C 446.200 521.506, 443.350 519.444, 443.167 518.932 C 442.983 518.419, 442.137 518, 441.285 518 C 440.024 518, 439.862 518.789, 440.413 522.250 C 440.785 524.587, 441.458 531.315, 441.909 537.201 C 442.646 546.817, 443.054 548.410, 445.940 552.907 C 447.707 555.660, 451.226 559.286, 453.761 560.965 C 458.077 563.824, 458.787 563.979, 464.935 563.404 C 471.227 562.816, 483 558.449, 483 556.704 C 483 556.264, 484.688 553.369, 486.750 550.270 C 493.378 540.311, 493.711 539.536, 494.392 532.463 C 495.501 520.940, 496.059 518.317, 497.818 516.360 C 498.743 515.331, 500.599 512.466, 501.942 509.994 C 503.285 507.522, 505.876 504.041, 507.701 502.258 C 511.696 498.356, 514.991 493.151, 514.996 490.736 C 515 489.030, 515.384 488.022, 517.844 483.264 C 520.432 478.256, 518.539 474.562, 509.500 466.985 C 507.850 465.602, 505.269 462.829, 503.765 460.822 C 502.261 458.815, 500.379 456.522, 499.584 455.727 C 498.788 454.931, 497.994 452.731, 497.819 450.836 L 497.500 447.392 493.500 451.457" stroke="#f9c6c6" fill="#f9c6c6" fill-opacity="0.2" fill-rule="evenodd"/><path class="svg-region-LBl" d="M 457.500 471.735 C 456.400 472.012, 453.982 473.570, 452.127 475.197 C 450.272 476.824, 447.797 478.521, 446.627 478.968 C 434.182 483.726, 433 485.189, 433 495.825 C 433 502.178, 434.998 510.650, 436.805 511.959 C 437.216 512.257, 438.982 514.339, 440.730 516.586 C 442.568 518.949, 446.513 522.061, 450.082 523.963 C 455.689 526.952, 456.836 527.207, 462.589 526.745 C 475.513 525.708, 486.456 515.668, 487.690 503.719 C 489.480 486.373, 483.999 478.330, 466.500 472.621 C 461.335 470.936, 460.861 470.890, 457.500 471.735" stroke="#79495c" fill="#79495c" fill-opacity="0.2" fill-rule="evenodd"/><path class="svg-region-DMl" d="M 476 560.526 C 473.525 561.841, 469.762 562.936, 467.639 562.959 C 464.616 562.991, 462.716 563.889, 458.889 567.093 C 451.898 572.946, 452.085 575.595, 460.004 582.935 C 463.307 585.996, 466.007 589.084, 466.004 589.798 C 466.002 590.511, 468.137 593.230, 470.750 595.839 C 474.641 599.724, 477.164 601.162, 484.700 603.791 C 498.866 608.732, 504.544 608.160, 508.511 601.392 C 509.926 598.976, 511.515 597, 512.042 597 C 513.607 597, 513.131 590.632, 511.378 588.130 C 510.032 586.208, 509.876 584.291, 510.457 576.855 L 511.158 567.895 506.711 563.448 C 503.151 559.888, 501.568 559, 498.782 559 C 496.868 559, 491.971 558.805, 487.901 558.567 C 481.514 558.194, 479.883 558.463, 476 560.526" stroke="#68533d" fill="#68533d" fill-opacity="0.2" fill-rule="evenodd"/><path class="svg-region-Ol" d="M 686.500 189.859 C 681.638 191.164, 667.566 198.387, 660.925 202.987 C 659.041 204.292, 653.675 209.130, 649 213.740 C 643.576 219.088, 638.087 223.395, 633.833 225.641 C 630.166 227.576, 625.216 231.194, 622.833 233.679 C 620.450 236.164, 615.800 239.946, 612.500 242.084 C 596.538 252.423, 593.339 255.867, 586.571 270 L 582.500 278.500 582.500 294.500 C 582.500 305.502, 583.039 313.311, 584.225 319.500 C 585.173 324.450, 586.869 334.350, 587.994 341.500 C 590.222 355.658, 592.406 368.372, 594.101 377.038 C 596.098 387.255, 593.900 425.867, 591.271 426.743 C 590.677 426.941, 589.599 429.105, 588.877 431.552 C 588.154 433.998, 587.212 436, 586.782 436 C 585.624 436, 585.832 450.778, 587 451.500 C 587.550 451.840, 588.003 453.554, 588.006 455.309 C 588.010 457.064, 588.753 459.850, 589.659 461.500 C 590.565 463.150, 592.060 465.905, 592.980 467.623 C 593.901 469.340, 595.632 471.988, 596.827 473.508 C 598.022 475.027, 599 477.019, 599 477.935 C 599 478.851, 599.408 480.028, 599.906 480.550 C 600.935 481.627, 603 494.138, 603 499.288 C 603 501.161, 603.680 504.056, 604.511 505.721 C 607.434 511.582, 608.251 519.991, 607.645 538 C 607.050 555.664, 605.794 565.221, 603.985 565.833 C 603.443 566.017, 603 567.730, 603 569.641 C 603 573.439, 601.149 581.909, 599.971 583.500 C 599.564 584.050, 598.898 586.075, 598.491 588 C 598.084 589.925, 597.015 592.625, 596.115 594 C 595.215 595.375, 593.133 599.200, 591.489 602.500 C 589.845 605.800, 588.166 608.649, 587.759 608.830 C 587.351 609.012, 586.288 610.698, 585.397 612.576 C 583.012 617.601, 572.680 626.680, 565.907 629.702 C 562.658 631.152, 560 632.712, 560 633.169 C 560 634.359, 548.242 634.200, 547.500 633 C 547.160 632.450, 543.591 632, 539.568 632 C 534.540 632, 530.886 631.400, 527.877 630.079 C 525.470 629.022, 521.777 627.841, 519.670 627.453 C 517.564 627.065, 515.603 626.129, 515.313 625.374 C 514.638 623.614, 511.343 623.592, 510.300 625.341 C 509.335 626.958, 501.551 629, 496.351 629 C 487.099 629, 464.728 633.575, 461.398 636.148 C 460.792 636.616, 457.347 638.069, 453.743 639.376 C 443.785 642.988, 435.380 648.624, 425.967 658 C 415.123 668.802, 404 682.355, 404 684.765 C 404 685.231, 402.889 687.117, 401.532 688.957 C 398.706 692.787, 395.080 703.394, 392.073 716.624 C 390.293 724.457, 390.006 728.982, 390.040 748.624 C 390.084 773.910, 390.648 778.290, 396.468 798.500 C 398.527 805.650, 400.439 812.625, 400.718 814 C 401.500 817.861, 408.984 834.705, 413.380 842.500 C 415.552 846.350, 418.267 851.337, 419.414 853.582 C 423.876 862.314, 435.828 878.760, 442.500 885.348 C 448.624 891.396, 455.900 896.933, 462.500 900.571 C 463.600 901.177, 468.640 903.983, 473.701 906.808 L 482.902 911.943 507.327 915.971 L 531.751 920 559.626 919.973 C 586.020 919.947, 604.847 919.100, 627.500 916.920 C 633 916.390, 648.075 915.566, 661 915.089 C 678.096 914.458, 685.999 913.763, 690 912.541 C 693.025 911.617, 697.300 910.427, 699.500 909.897 C 709.525 907.484, 738.705 893.318, 747.500 886.596 C 750.800 884.074, 753.950 881.667, 754.500 881.248 C 766.845 871.838, 772.186 866.758, 786.867 850.459 C 789.819 847.181, 794.567 842.025, 797.417 839 C 800.268 835.975, 803.645 832.004, 804.921 830.175 C 806.198 828.347, 812.251 822.664, 818.371 817.547 C 831.334 806.710, 844.988 792.914, 847.400 788.216 C 848.328 786.410, 851.248 781.685, 853.890 777.716 C 860.083 768.413, 871 749.482, 871 748.045 C 871 746.831, 876.329 732.302, 878.536 727.500 C 882.977 717.837, 886.944 708.108, 887.508 705.500 C 888.281 701.924, 893.041 689.922, 897.092 681.336 C 898.691 677.945, 900.002 674.795, 900.003 674.336 C 900.009 672.970, 905.452 660.039, 909.268 652.325 C 911.221 648.378, 913.147 644.103, 913.549 642.825 C 913.951 641.546, 917.061 634.650, 920.459 627.500 C 929.289 608.921, 931 605.085, 931 603.870 C 931 603.278, 933.428 597.327, 936.395 590.647 C 943.420 574.831, 952.675 547.371, 954.536 536.826 C 957.576 519.599, 958.920 480.631, 957.039 464.272 C 955.234 448.578, 949.506 424.790, 943.730 409 C 933.672 381.506, 929.202 371.451, 921.456 358.904 C 904.230 330.998, 900.524 325.722, 890.198 314.411 C 884.864 308.569, 879.537 302.349, 878.360 300.591 C 875.430 296.213, 836.423 259.483, 820.915 246.500 C 813.582 240.360, 787.533 220.869, 782.159 217.500 C 779.526 215.850, 776.051 213.456, 774.436 212.181 C 767.234 206.493, 757.720 201.688, 742.500 196.052 C 739.200 194.830, 734.250 192.944, 731.500 191.862 C 727.348 190.227, 723.363 189.822, 708 189.473 C 697.825 189.242, 688.150 189.416, 686.500 189.859" stroke="#aa444d" fill="#aa444d" fill-opacity="0.2" fill-rule="evenodd"/><path class="svg-region-DLl" d="M 527 442.173 C 524.525 442.698, 516.987 442.921, 510.250 442.669 L 498 442.211 498 448.147 C 498 452.835, 498.446 454.548, 500.120 456.292 C 501.287 457.506, 502.974 459.659, 503.870 461.075 C 504.767 462.491, 507.139 465.083, 509.143 466.834 C 513.480 470.626, 514.904 470.337, 520.308 464.566 C 525.208 459.335, 528 453.616, 528 448.812 C 528 445.773, 528.374 445, 529.845 445 C 530.860 445, 532.505 444.100, 533.500 443 C 535.250 441.066, 535.247 441.004, 533.405 441.110 C 532.357 441.170, 529.475 441.648, 527 442.173" stroke="#b7d6d3" fill="#b7d6d3" fill-opacity="0.2" fill-rule="evenodd"/><path class="svg-region-OABl" d="M 561.352 582.065 C 558.133 583.751, 554.129 586.451, 552.452 588.065 C 550.687 589.766, 548.320 591, 546.825 591 C 545.406 591, 543.685 591.675, 543 592.500 C 541.150 594.729, 534.691 594.421, 532.500 592 C 529.510 588.696, 524.122 589.369, 516.795 593.963 C 510.597 597.849, 505.940 603.435, 507.640 604.943 C 508.113 605.362, 510.750 606.291, 513.500 607.007 C 516.250 607.723, 518.790 608.461, 519.145 608.648 C 519.956 609.076, 516.416 616.125, 514.929 617.044 C 514.184 617.504, 514.102 619.112, 514.676 622.013 C 515.509 626.226, 515.630 626.332, 521.512 627.960 C 524.805 628.872, 528.483 630.154, 529.684 630.809 C 530.886 631.464, 535.273 632, 539.434 632 C 543.811 632, 547 632.421, 547 633 C 547 634.175, 559.672 634.381, 560.167 633.213 C 560.350 632.781, 563.109 631.162, 566.298 629.616 C 573.182 626.279, 583.108 617.400, 585.435 612.496 C 586.347 610.573, 587.502 609, 588.002 609 C 589.349 609, 590.296 602.626, 589.492 598.966 C 588.741 595.544, 582.574 588, 580.529 588 C 579.848 588, 577.207 585.975, 574.660 583.500 C 572.114 581.025, 569.394 579, 568.617 579 C 567.839 579, 564.570 580.379, 561.352 582.065" stroke="#81244d" fill="#81244d" fill-opacity="0.2" fill-rule="evenodd"/><path class="svg-region-OVl" d="M 559 419.089 C 556.525 421.777, 553.658 425.576, 552.629 427.533 C 551.600 429.489, 549.650 431.857, 548.296 432.795 C 546.942 433.733, 544.350 435.738, 542.535 437.250 C 540.721 438.762, 538.460 440, 537.512 440 C 536.564 440, 534.903 441.125, 533.821 442.500 C 532.740 443.875, 530.988 445, 529.927 445 C 528.400 445, 528 445.710, 528 448.417 C 528 450.296, 527.126 453.784, 526.057 456.167 C 524.020 460.709, 516.926 469, 515.078 469 C 513.544 469, 513.745 470.602, 515.500 472.357 C 516.325 473.182, 517 474.339, 517 474.929 C 517 475.518, 517.450 476, 518 476 C 518.550 476, 519 477.131, 519 478.514 C 519 479.896, 518.550 481.921, 518 483.014 C 517.450 484.106, 516.550 485.894, 516 486.986 C 515.450 488.079, 514.984 489.766, 514.965 490.736 C 514.913 493.287, 512.834 496.680, 508.118 501.907 C 505.839 504.433, 502.112 509.359, 499.835 512.854 C 495.981 518.770, 495.629 519.904, 494.730 529.336 C 493.782 539.269, 493.661 539.620, 488.382 547.636 C 485.422 552.131, 483 556.239, 483 556.765 C 483 557.802, 490.856 558.977, 497.882 558.991 C 501.736 558.999, 502.805 559.541, 506.762 563.499 C 511.152 567.889, 511.244 568.112, 510.590 572.749 C 509.571 579.970, 509.948 586.088, 511.554 588.381 C 512.349 589.516, 513 591.687, 513 593.205 L 513 595.966 516.750 593.889 C 518.813 592.746, 520.928 591.404, 521.450 590.906 C 523.284 589.157, 530.581 589.879, 532.500 592 C 534.691 594.421, 541.150 594.729, 543 592.500 C 543.685 591.675, 545.461 591, 546.948 591 C 548.555 591, 550.626 589.963, 552.054 588.443 C 554.859 585.457, 563.322 580.446, 567.184 579.484 C 569.462 578.917, 570.565 579.513, 574.461 583.408 C 576.986 585.934, 579.490 588, 580.025 588 C 582.357 588, 588.863 595.751, 589.534 599.329 C 590.091 602.299, 590.505 602.826, 591.577 601.936 C 592.317 601.322, 593.224 599.848, 593.592 598.660 C 593.961 597.472, 595.047 595.375, 596.007 594 C 596.966 592.625, 598.084 589.925, 598.491 588 C 598.898 586.075, 599.564 584.050, 599.971 583.500 C 601.022 582.081, 603 573.604, 603 570.522 C 603 569.096, 603.636 566.933, 604.414 565.715 C 609.204 558.211, 608.658 504, 603.793 504 C 603.357 504, 602.997 502.087, 602.992 499.750 C 602.983 494.588, 601.283 483.249, 600.106 480.500 C 597.694 474.870, 596.688 472.985, 592.894 467 C 590.580 463.349, 588.546 458.747, 588.252 456.500 C 587.965 454.300, 587.310 451.967, 586.798 451.317 C 586.285 450.666, 585.962 446.823, 586.080 442.777 C 586.279 435.960, 586.091 435.205, 583.508 432.461 C 581.976 430.832, 579.863 427.587, 578.814 425.250 C 577.765 422.913, 576.477 421, 575.953 421 C 575.429 421, 575 420.489, 575 419.865 C 575 417.517, 569.933 413.999, 566.698 414.101 C 564.217 414.180, 562.492 415.298, 559 419.089" stroke="#593939" fill="#593939" fill-opacity="0.2" fill-rule="evenodd"/>
    </svg>