<svg xmlns="http://www.w3.org/2000/svg" width="1078" height="1151" viewBox="0 0 1078 1151" version="1.1">
    <path class="svg-region-V" d="M 473 238.092 C 470.525 238.555, 465.992 239.139, 462.926 239.389 C 459.120 239.700, 455.722 240.806, 452.215 242.873 C 449.390 244.539, 445.313 246.377, 443.156 246.958 C 440.998 247.539, 438.723 248.629, 438.100 249.379 C 437.477 250.130, 433.487 252.183, 429.234 253.942 C 413.756 260.342, 409.102 263.237, 400.458 271.840 C 395.849 276.426, 391.829 280.963, 391.525 281.921 C 391.221 282.879, 389.294 284.546, 387.242 285.627 C 382.039 288.367, 379.625 293.284, 378.120 304.212 C 377.416 309.320, 375.687 317.550, 374.277 322.500 C 367.801 345.239, 367.852 344.951, 368.664 354.500 C 369.085 359.450, 369.459 367.550, 369.496 372.500 C 369.558 380.802, 369.865 382.142, 373.454 389.782 C 377.557 398.514, 383.033 404.657, 388.500 406.662 C 390.150 407.266, 395.264 409.174, 399.865 410.901 C 404.465 412.627, 411.440 414.479, 415.365 415.017 C 423.900 416.185, 431.755 417.822, 434.500 419.005 C 435.600 419.480, 439.080 420.154, 442.234 420.504 C 445.388 420.854, 448.227 421.558, 448.543 422.070 C 448.859 422.581, 452.707 423, 457.094 423 C 462.786 423, 465.784 423.467, 467.561 424.632 C 469.864 426.141, 470.187 426.141, 471.854 424.632 C 472.846 423.734, 473.969 423, 474.350 423 C 474.731 423, 476.856 421.800, 479.072 420.333 C 482.241 418.236, 484.106 417.722, 487.801 417.926 C 499.490 418.570, 501.015 418.337, 504.710 415.347 C 506.679 413.754, 509.028 411.111, 509.931 409.475 C 513.309 403.351, 514.672 401.822, 521.546 396.434 C 525.422 393.396, 529.430 389.356, 530.454 387.456 C 531.477 385.555, 532.694 384, 533.157 384 C 533.621 384, 534 383.363, 534 382.583 C 534 381.804, 534.356 381.017, 534.790 380.833 C 536.562 380.086, 541.880 371.264, 542.526 368 C 542.907 366.075, 544.337 363.012, 545.703 361.194 C 547.232 359.159, 548.474 355.779, 548.931 352.409 C 549.340 349.397, 550.628 345.642, 551.794 344.065 C 554.064 340.995, 556 329.380, 556 318.835 C 556 315.691, 556.468 312.829, 557.041 312.475 C 557.613 312.121, 557.805 310.961, 557.467 309.896 C 556.849 307.950, 559.487 298.322, 561.123 296.550 C 561.605 296.028, 562 289.901, 562 282.935 C 562 271.784, 561.761 269.966, 560 267.727 C 558.900 266.329, 558 264.791, 558 264.311 C 558 263.830, 555.862 262.814, 553.250 262.054 C 550.638 261.293, 545.350 259.366, 541.500 257.773 C 537.650 256.179, 532.391 254.219, 529.814 253.418 C 524.624 251.804, 516.669 247.802, 510.411 243.656 C 508.064 242.102, 503.836 240.543, 500.485 239.998 C 497.274 239.475, 494.187 238.587, 493.624 238.024 C 492.429 236.829, 479.522 236.872, 473 238.092" stroke="#dd8a8a" fill="#dd8a8a" fill-opacity="0.2" fill-rule="evenodd"/><path class="svg-region-DB" d="M 408.923 417.923 C 406.217 420.629, 405.504 422.849, 405.941 427.211 C 406.035 428.152, 404.351 430.852, 402.198 433.211 C 394.802 441.315, 394.437 443.899, 399.503 452.300 C 401.426 455.490, 403 458.458, 403 458.895 C 403 459.332, 403.860 460.468, 404.910 461.419 C 405.961 462.369, 407.094 464.239, 407.429 465.574 C 407.764 466.908, 408.411 468, 408.867 468 C 409.707 468, 411.035 470.856, 415.025 481.250 C 416.239 484.413, 417.348 487, 417.490 487 C 417.632 487, 419.718 486.298, 422.124 485.440 C 424.937 484.438, 433.013 483.538, 444.728 482.924 C 467.521 481.728, 468 481.569, 468 475.213 C 468 469.497, 470.831 463.065, 474.680 460.037 C 477.311 457.968, 486 443.040, 486 440.589 C 486 438.708, 479.853 432.853, 476.317 431.367 C 474.566 430.631, 472.541 429.227, 471.817 428.247 C 468.890 424.287, 465.314 423, 457.235 423 C 452.926 423, 448.973 422.589, 448.450 422.088 C 447.928 421.586, 444.800 420.711, 441.500 420.144 C 438.200 419.576, 431.450 418.194, 426.500 417.073 C 414.355 414.322, 412.431 414.415, 408.923 417.923" stroke="#e8b1e4" fill="#e8b1e4" fill-opacity="0.2" fill-rule="evenodd"/><path class="svg-region-IBl" d="M 524.832 550.344 C 522.814 550.980, 520.827 551.837, 520.415 552.250 C 520.003 552.663, 518.401 553, 516.854 553 C 512.856 553, 505.981 555.856, 502.712 558.874 C 499.954 561.420, 497.026 566.282, 496.972 568.404 C 496.957 569.007, 495.395 570.625, 493.500 572 C 491.605 573.375, 490.043 574.793, 490.028 575.150 C 490.012 575.507, 491.502 577.308, 493.339 579.150 C 496.471 582.292, 496.720 583.051, 497.356 591.393 C 498.128 601.520, 498.831 605, 500.106 605 C 500.594 605, 502.683 603.486, 504.747 601.636 C 506.811 599.786, 509.883 597.566, 511.573 596.702 C 513.263 595.839, 515.234 594.423, 515.954 593.556 C 516.673 592.689, 519.756 591.255, 522.805 590.368 C 528.056 588.842, 528.419 588.853, 529.678 590.575 C 531.281 592.766, 532.128 591.978, 534.350 586.230 C 535.548 583.129, 536 578.737, 536 570.192 C 536 559.977, 535.703 557.835, 533.750 553.962 C 531.275 549.054, 530.248 548.637, 524.832 550.344" stroke="#b10e0e" fill="#b10e0e" fill-opacity="0.2" fill-rule="evenodd"/><path class="svg-region-MB" d="M 491.500 538.311 C 487.375 544.071, 479.922 547.563, 468.500 549.087 C 457.689 550.529, 451.650 550.564, 443 549.231 C 439.425 548.681, 436.333 548.382, 436.130 548.569 C 435.191 549.426, 437.203 554, 438.519 554 C 440.519 554, 440.440 558.446, 438.379 561.936 C 437.487 563.445, 433.849 566.652, 430.295 569.063 C 422.598 574.282, 421.344 576.097, 423.861 578.374 C 426.071 580.374, 428.383 580.440, 431.285 578.584 C 433.692 577.044, 444.973 574.257, 449 574.206 C 450.375 574.189, 458.475 573.864, 467 573.485 C 479.674 572.921, 483.128 573.067, 485.944 574.289 C 489.288 575.739, 489.498 575.694, 493.194 572.724 C 495.287 571.042, 497 569.059, 497 568.319 C 497 566.333, 499.074 562.961, 502.774 558.933 L 506.049 555.365 504.518 547.933 C 503.244 541.747, 502.403 539.955, 499.508 537.250 C 497.595 535.462, 495.685 534.027, 495.265 534.061 C 494.844 534.095, 493.150 536.007, 491.500 538.311" stroke="#f9c6c6" fill="#f9c6c6" fill-opacity="0.2" fill-rule="evenodd"/><path class="svg-region-LBl" d="M 427.477 483.988 C 421.811 484.821, 412.138 489.787, 407.209 494.395 C 400.778 500.407, 398.986 516.958, 404.004 524.005 C 405.142 525.604, 406.577 528.357, 407.193 530.124 C 408.457 533.749, 413.957 539.041, 417.886 540.412 C 419.324 540.914, 420.950 541.902, 421.500 542.609 C 423.057 544.609, 430.597 547.015, 441.099 548.862 C 451.724 550.730, 456.657 550.774, 468.500 549.104 C 483.119 547.042, 490.380 542.808, 493.554 534.497 C 496.242 527.459, 494.546 521.907, 485.438 507.921 C 477.175 495.233, 467.433 487.707, 455.040 484.440 C 449.344 482.938, 436.097 482.721, 427.477 483.988" stroke="#79495c" fill="#79495c" fill-opacity="0.2" fill-rule="evenodd"/><path class="svg-region-DMl" d="M 458.897 573.436 C 458.577 573.757, 455.431 574.073, 451.907 574.139 C 443.836 574.290, 435.656 576.095, 430.515 578.858 C 428.323 580.036, 425.792 581, 424.891 581 C 421.412 581, 414.364 584.225, 411.254 587.239 C 408.552 589.857, 408 591.140, 408 594.796 C 408 601.423, 412.049 604.984, 423.517 608.445 C 434.656 611.806, 437.098 612.681, 444 615.788 C 447.025 617.150, 454.409 619.783, 460.408 621.641 C 466.408 623.498, 471.808 625.400, 472.408 625.866 C 473.009 626.332, 476.660 627.903, 480.521 629.357 C 487.813 632.102, 494.396 632.786, 495.550 630.919 C 497.288 628.107, 498.544 619.382, 497.592 616.728 C 496.911 614.828, 496.956 612.627, 497.735 609.728 C 499.046 604.848, 497.640 586.160, 495.651 582.034 C 494.997 580.678, 492.521 578.203, 490.149 576.534 C 485.952 573.581, 485.483 573.491, 472.658 573.177 C 465.410 572.999, 459.217 573.116, 458.897 573.436" stroke="#68533d" fill="#68533d" fill-opacity="0.2" fill-rule="evenodd"/><path class="svg-region-Ol" d="M 705.022 216.141 C 697.673 217.359, 684.590 223.827, 677.377 229.807 C 674.144 232.487, 670.768 235.089, 669.872 235.590 C 668.977 236.090, 666.052 238.373, 663.372 240.662 C 654.747 248.030, 647.735 253.419, 637 260.932 C 625.411 269.041, 617.556 276.149, 612.610 283 C 608.943 288.080, 603.723 300.100, 602.056 307.305 C 600.876 312.401, 600.264 395, 601.392 396.825 C 602.782 399.074, 603.640 423.807, 602.959 442 C 602.210 461.995, 601.401 466.982, 595.493 488 C 593.651 494.556, 592.869 500.846, 592.078 515.500 C 591.317 529.576, 590.116 539.554, 587.443 554 C 585.459 564.725, 583.436 576.650, 582.948 580.500 C 582.460 584.350, 581.560 590.425, 580.947 594 C 579.561 602.088, 572.156 625, 570.928 625 C 570.429 625, 567.548 627.240, 564.525 629.977 C 561.502 632.715, 557.911 635.235, 556.545 635.578 C 555.179 635.921, 549.971 636.044, 544.971 635.851 L 535.880 635.500 536.558 640.428 C 538.140 651.922, 527.850 661.841, 498.946 676.683 C 469.211 691.952, 463.079 695.993, 452.619 707.216 C 442.813 717.736, 437.970 725.274, 435.409 734 C 433.331 741.081, 432.432 764.223, 433.874 773.500 C 434.472 777.350, 435.671 786.471, 436.537 793.769 C 439.656 820.034, 444.887 834.229, 458.779 854.127 C 462.475 859.421, 467.624 866.846, 470.220 870.627 C 474.935 877.493, 484.844 889.358, 487.889 891.784 C 505.318 905.668, 518.206 911.480, 559.482 924.066 L 567.465 926.500 615.482 926.500 C 662.248 926.500, 663.748 926.440, 673 924.189 C 685.382 921.177, 697.921 916.273, 706.505 911.086 C 729.797 897.011, 735.884 891.861, 769.500 857.791 C 806.432 820.361, 817.120 808.452, 826.307 794.500 C 828.842 790.650, 832.172 785.746, 833.708 783.601 C 841.597 772.586, 858.493 742.361, 865.500 726.731 C 866.050 725.504, 868.280 721.125, 870.456 717 C 877.534 703.582, 882.043 693.924, 892.156 670.519 C 906.825 636.570, 907.069 636.013, 910.119 629.500 C 912.946 623.463, 920.368 604.073, 924.474 592 C 927.867 582.023, 930.767 567.962, 932.723 552 C 935.251 531.374, 935.194 488.562, 932.615 470.500 C 930.831 458.005, 925.494 437.534, 921.014 426 C 919.839 422.975, 917.513 416.675, 915.844 412 C 914.175 407.325, 912.235 402.150, 911.533 400.500 C 906.032 387.578, 904.490 384.386, 901.509 379.757 C 896.413 371.843, 886.351 358.658, 878.484 349.589 C 874.625 345.140, 870.263 339.925, 868.791 338 C 867.319 336.075, 863.844 332.025, 861.070 329 C 858.296 325.975, 856.021 323.178, 856.013 322.783 C 856.006 322.389, 853.962 319.772, 851.471 316.967 C 848.979 314.162, 845.779 309.984, 844.360 307.683 C 842.940 305.383, 839.178 300.800, 836 297.500 C 832.822 294.200, 829 289.475, 827.507 287 C 823.336 280.086, 793.803 251.418, 783.724 244.500 C 778.916 241.200, 772.741 236.877, 770.002 234.893 C 762.373 229.367, 737.206 217.145, 731.114 216.006 C 724.723 214.812, 712.667 214.875, 705.022 216.141" stroke="#aa444d" fill="#aa444d" fill-opacity="0.2" fill-rule="evenodd"/><path class="svg-region-VOC" d="M 537.250 548.720 C 534.611 549.663, 535.921 554.833, 539.845 558.958 C 544.014 563.341, 547.492 564.177, 548.488 561.038 C 549.186 558.839, 547.508 555, 545.850 555 C 545.256 555, 543.359 553.487, 541.635 551.637 C 539.911 549.787, 537.938 548.474, 537.250 548.720" stroke="#ff8f93" fill="#ff8f93" fill-opacity="0.2" fill-rule="evenodd"/><path class="svg-region-OABl" d="M 585.214 450.250 C 584.648 450.938, 583.498 453.975, 582.658 457 C 581.819 460.025, 580.448 464.300, 579.610 466.500 C 578.773 468.700, 578.068 473.446, 578.044 477.047 C 578.003 483.085, 577.652 484.123, 573.524 490.408 C 571.063 494.156, 568.794 498.860, 568.482 500.861 C 567.362 508.042, 561.746 523.996, 558.558 529.052 C 555.222 534.343, 553.960 536.021, 545.707 546.140 L 540.913 552.016 544.367 554.054 C 548.394 556.430, 549.397 558.389, 547.961 561.072 C 546.450 563.896, 544.244 563.444, 540.300 559.500 C 538.375 557.575, 536.508 556, 536.150 556 C 535.793 556, 535.660 561.409, 535.856 568.020 C 536.165 578.444, 535.909 580.964, 533.931 586.998 C 531.864 593.301, 531.795 594.122, 533.192 595.728 C 534.214 596.903, 534.940 600.575, 535.347 606.627 C 535.946 615.538, 535.893 615.848, 533.086 619.723 C 530.260 623.624, 527 629.370, 527 630.450 C 527 630.753, 527.652 631, 528.448 631 C 529.245 631, 531.091 632.107, 532.551 633.460 C 535.091 635.814, 535.715 635.911, 546.994 635.710 L 558.782 635.500 564.163 630.410 C 567.122 627.610, 570.096 625.135, 570.773 624.909 C 573.802 623.899, 580.880 598.207, 582.974 580.621 C 583.440 576.704, 585.448 564.725, 587.436 554 C 590.079 539.743, 591.339 529.391, 592.122 515.500 C 592.999 499.936, 593.712 494.601, 596.066 486 C 602.224 463.503, 602.766 459.092, 598.952 462.543 C 597.202 464.127, 597.005 464.054, 595.301 461.188 C 594.311 459.522, 592.274 456.098, 590.775 453.580 C 587.920 448.782, 586.919 448.183, 585.214 450.250" stroke="#81244d" fill="#81244d" fill-opacity="0.2" fill-rule="evenodd"/><path class="svg-region-LBPCl" d="M 423.807 547.139 C 424.040 548.728, 423.779 551.259, 423.228 552.764 C 422.676 554.269, 421.417 558.955, 420.430 563.178 C 418.945 569.532, 418.860 571.127, 419.940 572.428 C 420.658 573.293, 421.675 574, 422.200 574 C 424.153 574, 436.857 564.512, 438.400 561.900 C 440.443 558.441, 440.510 554, 438.519 554 C 437.705 554, 436.752 552.859, 436.402 551.464 C 435.788 549.020, 432.561 547.033, 425.941 545.025 C 423.556 544.302, 423.412 544.445, 423.807 547.139" stroke="#daffff" fill="#daffff" fill-opacity="0.2" fill-rule="evenodd"/><path class="svg-region-OVl" d="M 498.734 428.088 C 489.736 430.208, 484.401 434.995, 485.663 439.818 C 485.986 441.054, 484.885 444.100, 482.824 447.669 C 480.972 450.876, 478.932 454.698, 478.290 456.163 C 477.647 457.628, 476.252 459.103, 475.189 459.440 C 472.113 460.416, 468 469.386, 468 475.117 C 468 479.492, 467.710 480.160, 465.435 481.025 C 464.024 481.561, 460.762 482.007, 458.185 482.015 C 455.608 482.024, 452.825 482.467, 452 483 C 450.816 483.765, 451.037 483.973, 453.053 483.985 C 456.765 484.007, 470.913 491.168, 475.043 495.114 C 479.817 499.676, 486.165 508.412, 490.697 516.656 C 493.677 522.078, 494.429 524.509, 494.429 528.724 C 494.429 532.696, 494.827 534.128, 496.038 534.512 C 499.910 535.741, 502.933 540.550, 504.492 547.962 C 505.351 552.046, 506.179 555.512, 506.331 555.664 C 506.648 555.981, 514.584 553.765, 523.761 550.798 C 528.794 549.170, 530.313 549.015, 531.511 550.009 C 532.330 550.689, 533 551.810, 533 552.500 C 533 553.190, 533.675 554.315, 534.500 555 C 535.775 556.058, 536 555.807, 536 553.322 C 536 549.274, 537.853 547.557, 540.063 549.557 C 541.611 550.958, 542.182 550.557, 546.836 544.794 C 549.631 541.332, 552.498 537.821, 553.209 536.992 C 558.781 530.482, 565.028 517.044, 567.031 507.259 C 568.725 498.985, 569.886 496.129, 573.846 490.500 C 577.028 485.977, 577.429 484.638, 578.050 476.455 C 578.427 471.481, 579.410 466.081, 580.234 464.455 C 581.058 462.830, 582.282 459.160, 582.954 456.300 C 583.626 453.439, 584.811 450.572, 585.588 449.927 C 586.365 449.282, 587 447.840, 587 446.722 C 587 443.846, 582.274 438, 579.949 438 C 578.877 438, 578 437.612, 578 437.138 C 578 436.664, 573.612 435.772, 568.250 435.156 C 547.437 432.765, 537.288 431.090, 532 429.173 C 527.646 427.595, 524 427.182, 514.500 427.191 C 507.900 427.197, 500.806 427.600, 498.734 428.088" stroke="#593939" fill="#593939" fill-opacity="0.2" fill-rule="evenodd"/><path class="svg-region-ODMl" d="M 521.684 590.449 C 519.585 591.197, 516.967 592.625, 515.866 593.621 C 514.765 594.618, 512.374 596.348, 510.551 597.466 C 504.710 601.052, 498.520 606.085, 497.820 607.817 C 496.851 610.216, 496.880 616.262, 497.868 617.820 C 498.647 619.049, 496.994 628.583, 495.615 630.813 C 495.284 631.349, 496.710 632.467, 498.784 633.297 C 507.404 636.746, 529 631.954, 529 626.592 C 529 625.988, 530.565 623.292, 532.479 620.601 L 535.957 615.708 535.315 606.650 C 534.753 598.741, 534.288 597.048, 531.643 593.296 C 528.365 588.646, 527.463 588.388, 521.684 590.449" stroke="#999999" fill="#999999" fill-opacity="0.2" fill-rule="evenodd"/><path class="svg-region-HRl" d="M 393.036 525.066 C 390.031 526.670, 386.746 528.809, 385.736 529.819 C 381.470 534.086, 379.137 553.583, 381.806 562.663 C 384.926 573.272, 394.604 581.746, 402.246 580.559 C 412.390 578.984, 418.477 572.921, 420.934 561.945 C 421.605 558.950, 422.569 555.118, 423.077 553.429 C 425.218 546.307, 423.625 542.854, 416.784 539.793 C 411.154 537.273, 408.257 534.448, 407.426 530.664 C 406.471 526.316, 403.011 521.986, 400.562 522.074 C 399.428 522.115, 396.041 523.461, 393.036 525.066" stroke="#d9dba1" fill="#d9dba1" fill-opacity="0.2" fill-rule="evenodd"/>
    </svg>