<svg xmlns="http://www.w3.org/2000/svg" width="1078" height="1151" viewBox="0 0 1078 1151" version="1.1">
    <path class="svg-region-V" d="M 501.500 228.170 C 499.300 228.687, 493 229.489, 487.500 229.952 C 482 230.415, 475.535 231.531, 473.134 232.432 C 470.733 233.333, 466.683 234.340, 464.134 234.669 C 461.241 235.043, 456.870 236.865, 452.500 239.517 C 448.650 241.854, 444.295 244.381, 442.821 245.133 C 441.348 245.885, 436.209 248.750, 431.402 251.500 C 426.594 254.250, 421.279 257.289, 419.590 258.253 C 415.342 260.679, 411.248 263.964, 408.134 267.446 C 406.685 269.066, 402.890 273.142, 399.701 276.504 C 391.706 284.932, 388.236 290.505, 386.952 296.981 C 386.350 300.017, 384.717 305.650, 383.322 309.500 C 381.927 313.350, 380.125 318.637, 379.318 321.250 C 378.510 323.863, 377.506 326, 377.085 326 C 376.665 326, 375.726 329.262, 374.999 333.250 C 374.273 337.238, 373.273 341.030, 372.777 341.677 C 372.231 342.391, 372.361 344.474, 373.110 346.972 C 374.086 350.232, 374.088 353.113, 373.118 360.795 C 371.735 371.748, 370.139 378.796, 368.863 379.585 C 368.388 379.878, 368 382.743, 368 385.952 C 368 391.982, 368.719 393, 372.978 393 C 375.054 393, 379.162 397.427, 383.449 404.283 C 385.072 406.877, 386.984 409, 387.699 409 C 388.415 409, 389 409.433, 389 409.961 C 389 410.490, 391.332 411.615, 394.182 412.461 C 401.346 414.589, 435.529 414.632, 444.336 412.525 C 447.726 411.714, 453.875 410.415, 458 409.639 C 462.125 408.863, 469.775 407.109, 475 405.740 C 480.225 404.371, 486.525 402.929, 489 402.536 C 496.817 401.293, 507.106 397.865, 519.584 392.345 C 526.821 389.144, 533.097 387, 535.233 387 C 538.189 387, 539.968 385.951, 545.649 380.859 C 554.524 372.904, 557.542 366.479, 562.963 344 C 564.091 339.325, 565.710 333.025, 566.561 330 C 567.412 326.975, 569.159 319.530, 570.443 313.456 C 571.728 307.383, 573.726 300.858, 574.885 298.956 C 576.044 297.055, 576.994 294.008, 576.996 292.184 C 576.998 290.361, 577.460 288.008, 578.023 286.957 C 579.427 284.334, 577.474 272.238, 575.129 269.026 C 573.040 266.164, 560.304 258.068, 557.827 258.028 C 556.906 258.012, 554.881 256.936, 553.327 255.637 C 551.772 254.337, 548.475 252.247, 546 250.992 C 543.525 249.738, 540.150 247.719, 538.500 246.507 C 536.850 245.294, 533.475 243.517, 531 242.559 C 527.120 241.057, 522.110 237.194, 513.395 228.983 C 511.141 226.860, 507.992 226.645, 501.500 228.170" stroke="#dd8a8a" fill="#dd8a8a" fill-opacity="0.2" fill-rule="evenodd"/><path class="svg-region-DB" d="M 545.336 381 C 539.836 385.883, 537.931 387, 535.106 387 C 533.174 387, 526.950 389.045, 521.067 391.612 C 515.255 394.148, 509.150 396.806, 507.500 397.519 C 505.850 398.232, 500.225 399.808, 495 401.021 C 489.775 402.235, 481 404.339, 475.500 405.698 C 470 407.057, 462.125 408.817, 458 409.610 C 453.875 410.402, 447.726 411.714, 444.336 412.525 C 439.999 413.563, 432.441 413.998, 418.836 413.994 C 399.386 413.989, 393.039 413.170, 389.744 410.240 C 388.778 409.381, 387.722 408.944, 387.398 409.269 C 386.751 409.916, 386.724 418.130, 387.309 436.500 C 387.618 446.176, 388.123 449.468, 389.918 453.500 C 394.110 462.912, 396.503 467.121, 400.238 471.654 C 402.294 474.148, 404.507 477.961, 405.156 480.126 C 405.805 482.291, 407.483 485.210, 408.885 486.613 C 410.950 488.677, 412.014 489.032, 414.468 488.479 C 423.519 486.436, 426.064 486.084, 432 486.051 C 439.802 486.007, 453.973 489.233, 458.925 492.182 C 460.891 493.352, 464.525 495.933, 467 497.916 C 476.074 505.189, 487.856 509, 501.266 509 C 507.095 509, 532.612 504.721, 533.787 503.547 C 534.257 503.076, 528.781 494.597, 521.655 484.762 L 516.772 478.025 517.156 467.655 C 517.492 458.578, 517.849 456.848, 520.020 453.776 C 521.384 451.846, 524.299 447.619, 526.497 444.383 C 528.695 441.148, 531.058 438.140, 531.747 437.700 C 532.436 437.260, 533 436.457, 533 435.915 C 533 434.034, 542.504 424.139, 545.348 423.059 C 547.420 422.272, 547.479 421.838, 546.924 411.371 C 546.513 403.626, 546.745 399.062, 547.730 395.500 C 548.490 392.750, 549.765 387.800, 550.564 384.500 C 551.362 381.200, 552.466 377.712, 553.016 376.750 C 554.918 373.424, 552.139 374.962, 545.336 381" stroke="#e8b1e4" fill="#e8b1e4" fill-opacity="0.2" fill-rule="evenodd"/><path class="svg-region-IBl" d="M 493.250 549.319 C 492.012 551.136, 491 553.074, 491 553.625 C 491 554.961, 485.686 560, 484.277 560 C 483.025 560, 471 575.374, 471 576.973 C 471 577.538, 471.943 578, 473.096 578 C 477.018 578, 486.492 581.219, 488.879 583.363 C 492.253 586.394, 493.998 591.101, 494.014 597.218 C 494.028 602.832, 494.823 607.016, 495.867 606.976 C 496.215 606.963, 500.443 600.957, 505.263 593.630 C 514.379 579.772, 516.346 578, 522.613 578 C 529.686 578, 532.122 573.967, 528.121 568.880 C 527.087 567.566, 525.258 564.400, 524.057 561.845 C 522.249 557.997, 521.293 557.090, 518.497 556.565 C 516.434 556.178, 514.073 554.681, 512.428 552.716 C 508.312 547.800, 504.998 546.013, 500 546.013 C 496.028 546.014, 495.236 546.402, 493.250 549.319" stroke="#b10e0e" fill="#b10e0e" fill-opacity="0.2" fill-rule="evenodd"/><path class="svg-region-MB" d="M 473.414 503.905 C 475.506 506.216, 478 514.145, 478 518.481 C 478 528.175, 470.908 536.974, 457.192 544.299 C 448.850 548.754, 440.843 550.500, 428.750 550.500 C 423.937 550.500, 420 550.563, 420 550.641 C 420 550.718, 420.788 552.518, 421.750 554.641 C 423.154 557.736, 423.960 558.435, 425.823 558.171 C 427.100 557.990, 428.900 558.173, 429.823 558.579 C 430.745 558.984, 432.012 559.236, 432.638 559.140 C 435.256 558.735, 438.784 561.002, 439.408 563.491 C 440.602 568.246, 427.825 582, 422.214 582 C 421.673 582, 420.465 580.832, 419.530 579.405 C 417.908 576.930, 417.923 576.711, 419.848 574.655 C 421.912 572.452, 424.037 567.809, 423.953 565.685 C 423.928 565.033, 422.830 566.567, 421.514 569.093 C 420.198 571.620, 417.442 575.161, 415.390 576.962 C 412.412 579.577, 411.869 580.566, 412.694 581.869 C 414.624 584.912, 433.779 583.400, 450.480 578.887 C 454.319 577.849, 460.394 576.981, 463.980 576.957 L 470.500 576.915 474.500 571.765 C 476.700 568.933, 479.290 565.337, 480.256 563.774 C 481.221 562.211, 482.796 560.657, 483.756 560.320 C 486.206 559.459, 491 554.872, 491 553.390 C 491 552.710, 492.165 550.769, 493.589 549.077 C 497.988 543.849, 504.921 545.106, 511.936 552.404 C 513.868 554.414, 516.766 556.241, 518.556 556.576 C 521.169 557.067, 522.155 558.060, 524.056 562.119 C 527.124 568.671, 528.391 569.664, 531.534 567.982 C 533.228 567.075, 534 565.810, 534 563.940 C 534 562.238, 535.498 559.404, 538 556.377 C 540.721 553.084, 541.998 550.572, 541.994 548.518 C 541.987 544.640, 540.150 538, 539.085 538 C 538.633 538, 537.988 536.313, 537.653 534.250 C 537.317 532.188, 536.540 528.475, 535.926 526 C 535.312 523.525, 534.583 517.563, 534.305 512.750 C 534.028 507.938, 533.657 504, 533.481 504 C 533.305 504, 527.508 505.125, 520.597 506.500 C 501.855 510.229, 487.695 509.456, 477.264 504.135 C 472.101 501.501, 471.189 501.446, 473.414 503.905 M 423.079 562.583 C 423.127 563.748, 423.364 563.985, 423.683 563.188 C 423.972 562.466, 423.936 561.603, 423.604 561.271 C 423.272 560.939, 423.036 561.529, 423.079 562.583" stroke="#f9c6c6" fill="#f9c6c6" fill-opacity="0.2" fill-rule="evenodd"/><path class="svg-region-LBl" d="M 422 486.691 C 411.785 488.401, 405.570 492.642, 400.507 501.356 C 396.794 507.747, 395.879 518.671, 398.465 525.760 C 402.159 535.890, 405.101 540.664, 409.153 543.106 C 411.338 544.423, 414.781 546.573, 416.805 547.885 C 421.429 550.881, 430.261 551.715, 439.662 550.045 C 450.009 548.206, 452.872 547.162, 460.605 542.407 C 475.947 532.975, 480.496 523.769, 476.488 510.271 C 475.322 506.347, 473.731 504.041, 469.553 500.222 C 461.951 493.275, 456.445 490.316, 446.828 488.010 C 439.181 486.177, 428.469 485.608, 422 486.691" stroke="#79495c" fill="#79495c" fill-opacity="0.2" fill-rule="evenodd"/><path class="svg-region-DMl" d="M 451.500 578.572 C 444.190 580.812, 430.261 582.911, 415.845 583.944 C 408.318 584.483, 402.037 585.450, 400.345 586.330 C 395.145 589.035, 392.942 592.311, 392.422 598.115 C 392.157 601.077, 391.678 605.959, 391.359 608.965 C 391.039 611.971, 391.310 616.808, 391.961 619.715 C 393.021 624.452, 393.614 625.276, 397.687 627.663 C 401.408 629.843, 404.449 630.555, 414.466 631.592 C 432.766 633.485, 451.046 636.909, 465.500 641.150 C 470.197 642.528, 476.700 643.378, 485.267 643.735 C 497.645 644.250, 498.095 644.197, 500.017 641.980 C 502.642 638.953, 502.518 636.457, 499.454 630.702 C 496.905 625.912, 496.745 624.917, 494.119 597.500 C 493.294 588.886, 492.475 586.689, 488.842 583.344 C 483.368 578.304, 461.494 575.509, 451.500 578.572" stroke="#68533d" fill="#68533d" fill-opacity="0.2" fill-rule="evenodd"/><path class="svg-region-Ol" d="M 716 225.430 C 698.705 231.472, 675.104 243.278, 650.622 258.132 C 647.939 259.760, 642.764 262.685, 639.122 264.633 C 626.495 271.384, 618.805 281.668, 614.170 298 C 612.284 304.645, 609.680 320.933, 609.854 325 C 609.889 325.825, 610.366 338.322, 610.913 352.772 C 611.461 367.221, 612.150 379.433, 612.444 379.910 C 612.936 380.705, 614.252 392.846, 617.115 423 C 617.726 429.437, 617.935 440.663, 617.590 448.500 C 617.080 460.076, 616.473 464.058, 614.084 471.500 C 612.495 476.450, 610.433 481.984, 609.501 483.797 C 606.470 489.695, 599.313 521.797, 597.974 535.500 C 597.544 539.900, 595.639 552.725, 593.741 564 C 590.365 584.049, 590.167 584.742, 584.727 595.508 C 581.668 601.563, 577.646 609.213, 575.790 612.508 C 573.934 615.804, 571.153 621.650, 569.610 625.500 C 564.391 638.519, 564.121 639, 562.030 639 C 560.678 639, 559.541 640.162, 558.534 642.573 C 557.713 644.538, 554.444 649.112, 551.271 652.738 C 544.758 660.177, 516.428 686.116, 510.430 690.131 C 508.269 691.578, 503.350 694.817, 499.500 697.329 C 488.562 704.467, 478.225 715.760, 472.156 727.204 C 469.326 732.541, 465.829 740.416, 464.386 744.704 C 461.789 752.421, 461.761 752.819, 461.631 784 C 461.517 811.441, 461.736 816.466, 463.332 823 C 466.131 834.455, 467.660 838.145, 474.212 849.251 C 483.301 864.661, 484.826 866.766, 493.439 875.789 C 499.575 882.217, 502.982 884.878, 508.439 887.502 C 515.220 890.763, 531.685 897.032, 539 899.138 C 540.925 899.692, 546.100 901.424, 550.500 902.986 C 563.036 907.438, 568.360 908.668, 585.500 911.075 C 606.162 913.976, 644.558 914.379, 655 911.804 C 658.575 910.923, 663.975 909.885, 667 909.497 C 676.133 908.328, 689.005 904.176, 696.974 899.830 C 707.199 894.252, 714.144 888.724, 729.477 873.962 C 736.640 867.067, 744.975 859.248, 748 856.588 C 751.025 853.927, 761.375 844.208, 771 834.989 C 780.625 825.770, 792.550 815.081, 797.500 811.235 C 806.224 804.456, 818.657 791.804, 839.987 768 C 845.654 761.675, 851.013 755.362, 851.896 753.970 C 852.778 752.579, 855.638 748.472, 858.250 744.843 C 860.862 741.215, 863 737.918, 863 737.517 C 863 737.117, 864.013 735.514, 865.250 733.957 C 874.400 722.440, 879.784 712.523, 883.958 699.500 C 888.825 684.312, 901.334 656.789, 906.455 650 C 908.004 647.946, 909.509 643.289, 912.946 629.907 C 914.558 623.633, 916.117 617.600, 916.411 616.500 C 919.114 606.383, 923.276 588.470, 924.482 581.763 C 926.475 570.681, 928.834 558.587, 930.178 552.566 C 931.798 545.307, 931.824 490.878, 930.210 484.500 C 929.514 481.750, 928.313 474.550, 927.542 468.500 C 926.054 456.827, 923.892 445.450, 922.222 440.500 C 921.665 438.850, 920.203 434.125, 918.973 430 C 917.743 425.875, 915.931 420.700, 914.946 418.500 C 911.200 410.134, 907 400.142, 907 399.597 C 907 398.222, 896.842 377.607, 894.971 375.185 C 893.830 373.708, 889.295 366.662, 884.893 359.527 C 874.043 341.937, 865.627 330.889, 852.117 316.500 C 849.535 313.750, 844.659 308.125, 841.282 304 C 837.905 299.875, 832.526 294.250, 829.330 291.500 C 826.134 288.750, 819.915 283.067, 815.510 278.871 C 811.104 274.675, 804.726 268.953, 801.335 266.155 C 797.944 263.358, 793.219 258.752, 790.835 255.921 C 788.451 253.089, 784.947 249.361, 783.048 247.636 C 781.150 245.911, 778.638 243.600, 777.465 242.500 C 770.937 236.373, 755.285 227.706, 748.433 226.423 C 746.270 226.018, 743.052 225.082, 741.282 224.343 C 736.215 222.228, 723.613 222.770, 716 225.430" stroke="#aa444d" fill="#aa444d" fill-opacity="0.2" fill-rule="evenodd"/><path class="svg-region-VOC" d="M 542.294 550.250 C 541.728 551.487, 539.631 554.455, 537.633 556.845 C 533.055 562.319, 532.920 565.315, 537.154 567.427 C 538.888 568.292, 541.007 569, 541.863 569 C 543.603 569, 552 560.301, 552 558.498 C 552 556.599, 545.911 548, 544.566 548 C 543.881 548, 542.859 549.013, 542.294 550.250" stroke="#ff8f93" fill="#ff8f93" fill-opacity="0.2" fill-rule="evenodd"/><path class="svg-region-OABl" d="M 586.375 472.267 C 584.371 473.642, 582.703 476.039, 581.723 478.955 C 578.389 488.875, 573.082 500.305, 570.615 502.880 C 567.937 505.675, 561 516.616, 561 518.044 C 561 518.486, 559.919 520.131, 558.599 521.700 C 556.679 523.981, 551 535.987, 551 537.763 C 551 537.994, 553.379 535.666, 556.287 532.591 C 560.487 528.149, 562.209 527, 564.665 527 C 567.528 527, 567.922 527.444, 570.004 533.011 C 572.827 540.560, 572.391 546.950, 568.615 553.394 C 566.251 557.428, 565.496 558, 562.535 558 C 560.387 558, 558.069 557.088, 556.182 555.500 C 552.646 552.524, 549.414 552.097, 550.506 554.750 C 552.181 558.817, 551.912 559.749, 547.765 564.266 C 543.028 569.426, 541.864 569.777, 537.197 567.448 C 534.362 566.034, 533.863 566.044, 531.552 567.558 C 529.532 568.882, 529.143 569.755, 529.638 571.859 C 530.506 575.555, 531.476 576.337, 532.965 574.542 C 533.669 573.694, 534.663 573, 535.173 573 C 536.536 573, 539 579.450, 539 583.018 C 539 586.423, 541.499 592, 543.026 592 C 545.298 592, 542.918 604.127, 539.091 612.047 C 536.434 617.548, 536.269 626.564, 538.772 629.587 C 540.876 632.128, 549.575 635.874, 555.869 636.949 C 558.416 637.384, 561.274 638.066, 562.221 638.465 C 563.897 639.173, 565.151 637.234, 568.019 629.500 C 570.321 623.292, 572.865 617.775, 576.088 612 C 589.714 587.587, 589.876 587.153, 593.638 565 C 595.553 553.725, 597.498 540.900, 597.960 536.500 C 598.825 528.276, 600.052 520.887, 601.862 513 C 602.728 509.226, 603.799 503.344, 604.182 500.258 C 604.233 499.841, 603.426 499.050, 602.388 498.500 C 601.350 497.950, 598.998 496.375, 597.162 495 L 593.824 492.500 594.123 483.500 C 594.425 474.431, 593.284 469.931, 590.715 470.062 C 590.047 470.096, 588.094 471.088, 586.375 472.267" stroke="#81244d" fill="#81244d" fill-opacity="0.2" fill-rule="evenodd"/><path class="svg-region-SOTl" d="M 555.516 533.435 C 552.207 536.974, 548.263 540.338, 546.750 540.910 C 544.716 541.679, 544 542.632, 544 544.565 C 544 547.420, 548.593 553, 550.943 553 C 551.740 553, 554.062 554.157, 556.102 555.570 C 558.696 557.368, 560.816 558.045, 563.155 557.820 C 566.086 557.540, 566.840 556.829, 569.250 552.071 C 572.606 545.445, 572.771 540.192, 569.861 532.589 C 567.902 527.468, 567.463 527, 564.627 527 C 562.110 527, 560.407 528.203, 555.516 533.435" stroke="#995b45" fill="#995b45" fill-opacity="0.2" fill-rule="evenodd"/><path class="svg-region-LBPCl" d="M 423.813 563.902 C 423.491 568.362, 422.719 570.679, 420.657 573.383 C 418.016 576.845, 417.983 577.044, 419.624 579.549 C 420.982 581.622, 421.835 582.008, 423.910 581.490 C 427.386 580.623, 432.363 576.732, 435.085 572.752 C 436.309 570.964, 437.958 568.969, 438.750 568.320 C 441.006 566.472, 439.402 561.103, 436.235 559.899 C 434.816 559.360, 433.058 559.148, 432.328 559.428 C 431.597 559.708, 431 559.501, 431 558.969 C 431 558.436, 429.479 558, 427.620 558 L 424.240 558 423.813 563.902" stroke="#daffff" fill="#daffff" fill-opacity="0.2" fill-rule="evenodd"/><path class="svg-region-OVl" d="M 542.150 425.006 C 539.868 426.660, 538 428.379, 538 428.826 C 538 429.274, 536.763 431.037, 535.250 432.746 C 533.737 434.454, 531.920 436.673, 531.211 437.676 C 529.153 440.588, 523.171 449.157, 520.237 453.397 C 517.822 456.886, 517.500 458.372, 517.158 467.593 L 516.777 477.892 523.648 487.696 C 534.289 502.880, 533.812 501.802, 534.226 511.601 C 534.648 521.594, 537.662 536.804, 539.604 538.747 C 540.306 539.449, 541.183 542.039, 541.553 544.502 C 542.282 549.369, 544 549.687, 544 544.954 C 544 542.600, 544.636 541.758, 547.250 540.653 C 549.917 539.526, 550.932 538.134, 552.910 532.890 C 554.236 529.376, 556.599 524.839, 558.160 522.809 C 559.722 520.778, 561 518.695, 561 518.180 C 561 516.506, 567.679 506.098, 571.387 501.993 C 573.374 499.794, 575 497.398, 575 496.670 C 575 495.941, 576.800 491.195, 579 486.122 C 581.200 481.050, 583.017 476.360, 583.038 475.700 C 583.059 475.040, 584.790 473.316, 586.885 471.869 C 590.277 469.525, 590.764 468.650, 591.338 463.869 C 592.615 453.230, 592.328 451.887, 587.509 445.993 C 585.038 442.972, 581.899 440.032, 580.532 439.459 C 579.165 438.887, 576.799 437.303, 575.273 435.939 C 568.814 430.164, 560.844 425.764, 552.846 423.559 C 549.736 422.702, 546.991 422, 546.746 422 C 546.501 422, 544.433 423.353, 542.150 425.006" stroke="#593939" fill="#593939" fill-opacity="0.2" fill-rule="evenodd"/><path class="svg-region-ODMl" d="M 532.964 574.369 C 531.013 576.192, 525.437 577.992, 521.601 578.035 C 519.895 578.055, 517.473 578.641, 516.217 579.338 C 514.961 580.036, 509.773 586.792, 504.688 594.352 L 495.443 608.099 496.151 616.963 C 496.682 623.603, 497.505 627.039, 499.430 630.656 C 502.463 636.354, 502.540 637.277, 500.303 641.065 C 499.369 642.645, 498.919 644.253, 499.303 644.637 C 500.484 645.818, 511.365 646.942, 512.499 646.001 C 513.121 645.485, 515.366 645.520, 517.881 646.085 C 524.046 647.470, 528.921 646.263, 532.975 642.348 C 534.886 640.502, 537.137 638.774, 537.977 638.507 C 538.818 638.241, 540.079 637.104, 540.780 635.981 C 541.882 634.217, 541.711 633.488, 539.528 630.625 C 536.037 626.048, 536.024 618.263, 539.496 611.419 C 540.869 608.714, 541.994 605.289, 541.996 603.809 C 541.998 602.329, 542.450 600.840, 543 600.500 C 544.289 599.704, 544.312 592, 543.026 592 C 541.581 592, 539 586.497, 539 583.416 C 539 579.476, 536.859 573, 535.556 573 C 534.936 573, 533.770 573.616, 532.964 574.369" stroke="#999999" fill="#999999" fill-opacity="0.2" fill-rule="evenodd"/><path class="svg-region-HRl" d="M 382.289 515.250 C 381.157 516.487, 379.887 518.625, 379.468 520 C 377.624 526.053, 367.507 544.238, 364.631 546.670 C 358.286 552.033, 353.508 553.413, 341 553.495 C 324.444 553.604, 319.083 555.965, 314.392 565.217 C 312.597 568.756, 312 571.559, 312 576.447 C 312 582.153, 312.424 583.624, 315.419 588.306 C 322.008 598.606, 333.642 606, 343.260 606 C 349.831 606, 353.065 604.400, 364.423 595.532 C 373.881 588.146, 374.513 587.918, 391 585.913 C 395.675 585.345, 401.915 584.141, 404.867 583.238 C 411.033 581.351, 418.882 574.876, 421.378 569.616 C 424.989 562.005, 422.181 550.825, 415.710 547.049 C 404.625 540.580, 405.360 541.466, 398.028 525.755 C 392.268 513.415, 387.116 509.976, 382.289 515.250" stroke="#d9dba1" fill="#d9dba1" fill-opacity="0.2" fill-rule="evenodd"/>
    </svg>