<svg xmlns="http://www.w3.org/2000/svg" width="1078" height="1151" viewBox="0 0 1078 1151" version="1.1">
    <path class="svg-region-V" d="M 494 225.687 C 489.875 226.461, 483.575 227.752, 480 228.556 C 476.425 229.359, 471.867 230.013, 469.872 230.008 C 464.659 229.996, 460.212 232.139, 447.985 240.555 C 442.036 244.650, 436.507 248, 435.700 248 C 434.892 248, 430.506 249.865, 425.953 252.144 C 419.435 255.406, 415.689 258.253, 408.337 265.534 C 403.202 270.619, 399 275.420, 399 276.202 C 399 276.983, 398.193 278.495, 397.206 279.561 C 393.595 283.464, 388.091 293.667, 386.181 300 C 385.102 303.575, 383.090 309.279, 381.710 312.675 C 380.330 316.071, 378.892 320.681, 378.514 322.920 C 378.135 325.158, 377.415 327.243, 376.913 327.554 C 376.411 327.864, 376 329.235, 376 330.600 C 376 331.964, 375.113 334.300, 374.030 335.790 C 372.408 338.020, 371.963 340.714, 371.514 351 C 371.214 357.875, 370.268 366.200, 369.413 369.500 C 366.130 382.173, 366.234 383.503, 370.977 389.472 C 372.640 391.563, 374.004 394.001, 374.010 394.888 C 374.034 398.805, 380.373 409.668, 388.449 419.630 C 392.136 424.177, 397.752 425.301, 413 424.541 C 419.875 424.199, 427.300 423.475, 429.500 422.934 C 440.113 420.323, 454.114 418.678, 470.500 418.117 C 487.479 417.535, 488.708 417.360, 492.159 415.024 C 494.172 413.663, 497.657 409.570, 499.904 405.928 C 504.762 398.055, 507.240 395.983, 519.134 389.844 L 528.155 385.188 533.828 388.183 C 538.202 390.493, 540.367 391.064, 543.289 390.679 C 547.940 390.066, 549.561 388.780, 552.197 383.614 C 553.325 381.403, 556.214 377.518, 558.616 374.980 C 561.019 372.443, 564.434 368.146, 566.205 365.433 C 567.977 362.720, 569.718 360.275, 570.074 360 C 570.431 359.725, 571.039 357.250, 571.425 354.500 C 572.128 349.496, 577.494 332.384, 578.950 330.500 C 579.376 329.950, 579.993 327.426, 580.323 324.892 C 580.653 322.358, 582.740 314.809, 584.961 308.116 C 590.391 291.757, 590.472 285.747, 585.388 276.498 C 582.686 271.583, 580.804 269.431, 577.921 267.960 C 575.801 266.878, 573.586 265.095, 572.998 263.997 C 572.411 262.899, 571.115 262, 570.119 262 C 569.123 262, 565.131 259.332, 561.247 256.071 C 557.364 252.811, 552.328 248.969, 550.056 247.535 C 547.785 246.102, 542.680 241.504, 538.713 237.318 C 530.621 228.780, 528.178 227.466, 516.612 225.430 C 507.111 223.758, 504.092 223.793, 494 225.687" stroke="#dd8a8a" fill="#dd8a8a" fill-opacity="0.2" fill-rule="evenodd"/><path class="svg-region-SF" d="M 566.500 365.051 C 564.850 367.375, 562.150 370.757, 560.500 372.567 C 558.850 374.378, 556.746 376.757, 555.824 377.854 C 553.458 380.672, 549 388.826, 549 390.336 C 549 391.032, 547.087 393.422, 544.750 395.647 C 534.770 405.145, 532.408 407.705, 530.797 410.765 C 529.770 412.714, 528.322 414, 527.153 414 C 526.087 414, 524.941 414.712, 524.607 415.582 C 523.585 418.245, 523.931 422.839, 525.213 423.632 C 527.421 424.997, 535.353 426.199, 546.500 426.858 C 555.120 427.368, 558.411 427.995, 561.710 429.754 C 567.085 432.621, 569.123 432.579, 574.001 429.499 C 578.265 426.808, 579.657 423.649, 578.528 419.232 C 578.144 417.729, 577.854 415.207, 577.884 413.627 C 577.914 412.047, 577.532 409.994, 577.035 409.065 C 576.538 408.136, 575.842 401.568, 575.489 394.469 C 575.136 387.370, 574.654 381.249, 574.418 380.868 C 574.183 380.486, 573.771 377.363, 573.504 373.926 C 573.237 370.489, 572.386 366.963, 571.612 366.089 C 570.839 365.215, 570.048 363.674, 569.853 362.664 C 569.575 361.219, 568.860 361.728, 566.500 365.051" stroke="#8c6b55" fill="#8c6b55" fill-opacity="0.2" fill-rule="evenodd"/><path class="svg-region-DB" d="M 378.051 412.250 C 378.128 420.047, 379.544 429.561, 381.885 438 C 383.029 442.125, 383.973 447.358, 383.983 449.628 C 384.002 454.313, 386.275 460.495, 388.420 461.695 C 390.044 462.604, 394.760 472.719, 397.422 481 C 400.760 491.383, 402.098 493.340, 406.500 494.281 C 409.022 494.820, 413.157 494.692, 417.693 493.936 C 428.369 492.156, 440.267 493.082, 444.215 496.001 C 446.558 497.733, 449.429 498.536, 455.432 499.137 C 459.869 499.582, 468.225 500.432, 474 501.028 C 502.877 504.006, 527.115 503.942, 529.347 500.883 C 530.708 499.016, 538.031 495.539, 542.691 494.547 C 544.492 494.163, 546.780 494.347, 547.941 494.969 C 549.584 495.848, 550 495.774, 550 494.607 C 550 493.802, 549.273 492.415, 548.384 491.526 C 546.135 489.278, 545.206 484.393, 543.995 468.438 C 542.771 452.302, 542.446 450.720, 539.340 445.770 C 537.427 442.721, 537 440.673, 537 434.555 C 537 426.313, 536.073 425, 530.257 425 C 525.608 425, 523.671 422.946, 524.183 418.560 L 524.624 414.782 520.562 415.315 C 518.328 415.607, 514.012 416.404, 510.970 417.084 C 506.198 418.151, 505.034 418.100, 502.470 416.709 C 500.837 415.823, 498.523 414.570, 497.329 413.924 C 495.505 412.938, 494.627 413.130, 491.829 415.126 C 488.717 417.345, 487.327 417.540, 470.500 418.117 C 454.078 418.679, 440.946 420.231, 429 423.020 C 426.525 423.598, 417.975 424.167, 410 424.285 C 392.438 424.545, 391.201 424.051, 384.305 414.008 C 381.662 410.159, 379.163 407.008, 378.750 407.005 C 378.337 407.002, 378.023 409.363, 378.051 412.250" stroke="#e8b1e4" fill="#e8b1e4" fill-opacity="0.2" fill-rule="evenodd"/><path class="svg-region-IBl" d="M 496.464 549.401 C 494.497 550.258, 492.848 552.092, 491.780 554.612 C 488.078 563.344, 485.982 570.349, 485.449 575.771 C 485.139 578.922, 484.443 583.300, 483.902 585.500 C 483.080 588.840, 483.254 590.154, 484.959 593.461 C 486.081 595.640, 487 598.488, 487 599.791 C 487 601.924, 487.322 602.097, 490.250 601.532 C 500.430 599.567, 502.884 598.654, 506.410 595.517 C 508.661 593.515, 511.767 591.877, 514.045 591.492 C 516.157 591.136, 518.437 590.178, 519.113 589.364 C 520.260 587.981, 526.850 584.591, 528.034 584.774 C 528.328 584.819, 530.785 583.651, 533.495 582.178 C 538.494 579.460, 540.354 576.814, 542.929 568.756 C 544.523 563.765, 543.655 562.640, 538.810 563.414 C 535.732 563.907, 534.232 563.589, 531.946 561.962 C 530.338 560.817, 526.115 559.073, 522.562 558.088 C 519.009 557.103, 515.067 555.540, 513.801 554.615 C 512.535 553.690, 509.971 551.824, 508.102 550.467 C 504.326 547.725, 501.008 547.421, 496.464 549.401" stroke="#b10e0e" fill="#b10e0e" fill-opacity="0.2" fill-rule="evenodd"/><path class="svg-region-MB" d="M 455.871 503.574 C 458.692 506.110, 461 508.620, 461 509.151 C 461 509.683, 462.462 511.936, 464.250 514.159 C 467.320 517.978, 467.519 518.724, 467.849 527.663 C 468.317 540.366, 466.197 546.166, 457.967 554.709 C 451.865 561.041, 441.407 568, 437.992 568 C 436.595 568, 435.909 568.971, 435.405 571.657 C 434.167 578.252, 430.633 583.256, 424.600 586.956 C 420.723 589.335, 420.691 589.337, 419.087 587.356 C 417.492 585.386, 417.431 585.396, 413.487 588.310 L 409.500 591.256 416 590.611 C 422.240 589.993, 429.208 588.126, 430.648 586.685 C 431.025 586.308, 432.328 586, 433.545 586 C 437.363 586, 442.309 583.275, 447.829 578.132 C 452.154 574.102, 454.051 573.043, 457.890 572.515 C 465.105 571.523, 469.531 573.782, 476.525 582.030 C 482.273 588.807, 482.466 588.934, 483.681 586.747 C 484.367 585.511, 484.945 582.444, 484.965 579.932 C 485.025 572.200, 491.615 552.346, 494.777 550.371 C 499.953 547.139, 507.256 548.299, 511.520 553.032 C 513.803 555.566, 516.454 556.766, 523.625 558.513 L 528.751 559.762 528.258 553.625 L 527.765 547.488 533.301 543.494 C 539.441 539.064, 540.422 535.753, 535.760 535.194 C 530.503 534.562, 529.627 532.150, 529.039 516.688 C 528.632 505.969, 528.189 502.563, 527.230 502.757 C 523.814 503.447, 491.523 502.939, 484.500 502.084 C 474.950 500.922, 468.057 500.249, 458.121 499.511 L 450.741 498.962 455.871 503.574 M 422.704 569.250 C 423.125 571.474, 421.969 577.703, 420.446 581.414 C 419.069 584.767, 421.950 582.148, 425.098 577.185 C 428.639 571.601, 428.853 568.462, 425.750 567.630 C 422.391 566.730, 422.241 566.810, 422.704 569.250" stroke="#f9c6c6" fill="#f9c6c6" fill-opacity="0.2" fill-rule="evenodd"/><path class="svg-region-LBl" d="M 416.982 493.984 C 407.021 496.500, 395.731 504.074, 392.361 510.500 C 389.990 515.020, 388.024 522.951, 388.023 528 C 388.021 533.419, 390.271 541.259, 392.718 544.364 C 395.638 548.071, 407.307 558.168, 410 559.319 C 411.375 559.906, 413.196 560.962, 414.047 561.665 C 419.248 565.961, 425.209 568, 432.568 568 C 439.127 568, 440.722 567.610, 445.744 564.776 C 448.886 563.002, 454.255 558.626, 457.676 555.051 C 465.843 546.515, 468 541.011, 468 528.713 L 468 519.603 463.515 512.918 C 458.787 505.872, 453.376 500.515, 449.078 498.626 C 447.660 498.003, 445.183 496.603, 443.573 495.515 C 441.208 493.918, 438.707 493.495, 430.573 493.316 C 425.033 493.194, 418.917 493.495, 416.982 493.984" stroke="#79495c" fill="#79495c" fill-opacity="0.2" fill-rule="evenodd"/><path class="svg-region-DMl" d="M 455.849 572.707 C 454.391 572.931, 450.592 575.520, 447.407 578.460 C 443.899 581.699, 440.017 584.263, 437.559 584.965 C 435.326 585.603, 431.475 586.835, 429 587.705 C 426.525 588.574, 417.038 590.285, 407.917 591.508 C 398.797 592.730, 390.023 594.359, 388.420 595.127 C 384.871 596.828, 378.743 606.615, 379.579 609.248 C 379.899 610.256, 379.224 612.876, 378.080 615.071 C 374.884 621.203, 375.803 628.102, 380.317 631.848 C 381.114 632.510, 383.458 635.943, 385.525 639.479 C 390.891 648.653, 392.163 649.103, 415.974 650.237 C 439.774 651.372, 469.419 650.083, 480.205 647.445 C 488.282 645.471, 492.233 618.600, 487.144 600.264 C 484.929 592.287, 484.893 592.210, 480.536 586.500 C 470.883 573.848, 466.040 571.142, 455.849 572.707" stroke="#68533d" fill="#68533d" fill-opacity="0.2" fill-rule="evenodd"/><path class="svg-region-PMl" d="M 368.132 622.166 C 366.279 623.902, 364.089 626.938, 363.265 628.911 C 362.442 630.885, 360.423 634.199, 358.780 636.275 C 356.078 639.689, 348.461 657.567, 347.606 662.500 C 347.153 665.111, 349.498 669.661, 351.982 670.990 C 353.495 671.800, 355.337 671.473, 360.046 669.559 C 366.944 666.756, 382.567 655.490, 383.572 652.594 C 383.936 651.546, 385.383 649.623, 386.788 648.321 L 389.342 645.954 387.013 641.727 C 385.732 639.402, 382.730 634.868, 380.342 631.651 C 377.651 628.026, 376 624.739, 376 623.008 C 376 620.552, 374.503 618.988, 372.168 619.005 C 371.801 619.007, 369.984 620.430, 368.132 622.166" stroke="#90cf92" fill="#90cf92" fill-opacity="0.2" fill-rule="evenodd"/><path class="svg-region-PCl" d="M 288.260 572.941 C 281.789 573.995, 276 580.435, 276 586.579 C 276 588.053, 274.838 592.462, 273.417 596.379 C 270.246 605.121, 269.700 619.215, 272.304 625.092 C 273.179 627.068, 273.655 629.603, 273.361 630.726 C 273.048 631.925, 273.813 634.362, 275.216 636.633 C 276.529 638.760, 278.847 643, 280.367 646.056 C 284.791 654.951, 290.322 660.673, 297.751 664.041 C 301.340 665.669, 305.088 667, 306.079 667 C 307.071 667, 308.128 667.398, 308.429 667.885 C 308.729 668.371, 311.118 669.087, 313.738 669.475 C 316.357 669.863, 320.525 670.986, 323 671.970 C 325.475 672.955, 330.948 674.287, 335.162 674.931 C 341.673 675.925, 343.379 675.868, 346.529 674.553 C 349.891 673.148, 350.165 672.749, 349.485 670.252 C 348.082 665.094, 348.616 658.526, 350.889 653 C 352.132 649.975, 353.556 646.189, 354.052 644.587 C 354.548 642.985, 356.028 640.060, 357.341 638.087 C 359.301 635.141, 359.760 633.071, 359.911 626.500 C 360.012 622.100, 360.524 618.350, 361.048 618.167 C 365.440 616.630, 351.149 605.180, 341 602.104 C 328.719 598.383, 324.481 595.360, 322.582 588.964 C 320.544 582.102, 315.571 575.151, 312.208 574.463 C 310.718 574.158, 307.873 573.480, 305.884 572.955 C 301.869 571.895, 294.718 571.889, 288.260 572.941" stroke="#465ee0" fill="#465ee0" fill-opacity="0.2" fill-rule="evenodd"/><path class="svg-region-Ol" d="M 702.500 227.399 C 697.921 228.847, 692.195 231.650, 690 233.517 C 688.252 235.005, 664.696 247.791, 654.501 252.787 C 644.419 257.727, 627.131 275.360, 620.831 287.129 C 612.526 302.646, 609.494 314.241, 608.137 335.678 C 607.244 349.787, 608.412 386.050, 610.064 395.500 C 610.641 398.800, 611.361 415.675, 611.665 433 L 612.217 464.500 607.108 487.282 C 604.299 499.812, 602 511.012, 602 512.172 C 602 513.331, 601.392 514.779, 600.650 515.390 C 598.057 517.521, 595.071 527.580, 593.939 538 C 592.911 547.456, 586.578 570.137, 584.027 573.500 C 583.610 574.050, 583.024 575.625, 582.725 577 C 582.426 578.375, 581.034 582.663, 579.633 586.528 C 578.232 590.393, 576.114 598.043, 574.927 603.528 C 572.390 615.248, 569.576 620.092, 558.303 632.146 C 552.817 638.012, 549.742 642.395, 546.938 648.344 C 544.824 652.830, 540.812 659.650, 538.023 663.500 C 535.234 667.350, 530.872 674.550, 528.329 679.500 C 525.787 684.450, 522.050 690.975, 520.024 694 C 506.568 714.094, 495.467 734.772, 491.314 747.477 C 488.847 755.025, 488.666 756.929, 488.256 779.656 C 487.833 803.095, 487.897 804.108, 490.399 813.797 C 493.287 824.980, 494.483 827.997, 502.672 844.748 C 510.316 860.384, 514.477 866.243, 525.370 876.713 C 535.897 886.830, 544.565 891.740, 561 896.894 C 573.113 900.693, 608.541 902.949, 626.817 901.085 C 642.973 899.437, 645.464 898.477, 675 882.518 C 694.992 871.716, 698.702 869.254, 716.192 855.189 C 739.676 836.304, 757.135 822.590, 761 819.993 C 762.925 818.699, 766.595 815.809, 769.155 813.570 C 775.537 807.989, 776.808 807, 777.596 807 C 777.970 807, 780.178 805.313, 782.503 803.250 C 784.827 801.188, 789.909 797.527, 793.795 795.115 C 797.682 792.703, 806.311 785.561, 812.971 779.243 C 823.606 769.156, 827.522 764.916, 837.824 752.338 C 844.256 744.485, 851.103 732.595, 860.477 713 C 863.503 706.675, 867.774 698.350, 869.969 694.500 C 872.164 690.650, 875.601 683.225, 877.608 678 C 879.615 672.775, 882.762 665.575, 884.601 662 C 886.441 658.425, 888.593 653.644, 889.384 651.376 C 890.175 649.108, 892.552 644.158, 894.665 640.376 C 899.131 632.387, 900.358 629.075, 902.401 619.500 C 903.222 615.650, 904.613 609.350, 905.492 605.500 C 906.371 601.650, 907.760 594.900, 908.579 590.500 C 911.626 574.124, 915.590 490.720, 913.851 479.584 C 910.791 459.989, 910.077 455.613, 908.535 447 C 905.620 430.709, 900.439 416.503, 889.754 395.500 C 880.232 376.784, 866.043 355.192, 852.780 339.235 C 848.501 334.087, 845 329.458, 845 328.948 C 845 328.438, 842.862 325.605, 840.250 322.653 C 834.077 315.677, 830.724 311.284, 824.114 301.509 C 816.901 290.844, 807.532 278.582, 803.188 274.120 C 801.249 272.129, 796.063 266.296, 791.664 261.158 C 787.264 256.019, 781.310 250.076, 778.432 247.950 C 770 241.720, 746.457 231.019, 734.562 228.009 C 725.379 225.685, 708.910 225.372, 702.500 227.399" stroke="#aa444d" fill="#aa444d" fill-opacity="0.2" fill-rule="evenodd"/><path class="svg-region-VOC" d="M 538.596 538.389 C 538.974 539.376, 538.688 540.016, 537.857 540.041 C 537.111 540.064, 534.587 541.812, 532.250 543.927 C 528.577 547.250, 528 548.324, 528 551.839 C 528 560.121, 532.147 564.480, 538.986 563.386 C 541.678 562.956, 543 563.116, 543 563.872 C 543 566.773, 544.725 564.422, 546.759 558.750 C 549.374 551.457, 549.825 542, 547.557 542 C 546.763 542, 545.505 541.132, 544.762 540.071 C 544.019 539.009, 542.188 537.834, 540.694 537.459 C 538.458 536.898, 538.087 537.063, 538.596 538.389" stroke="#ff8f93" fill="#ff8f93" fill-opacity="0.2" fill-rule="evenodd"/><path class="svg-region-OABl" d="M 582.996 470.250 C 582.994 471.488, 582.040 474.062, 580.877 475.970 C 579.713 477.879, 578.115 481.617, 577.325 484.277 C 575.722 489.674, 564.478 503.315, 557.868 507.881 C 555.782 509.321, 554.059 510.775, 554.038 511.110 C 554.017 511.446, 555.067 513.293, 556.371 515.214 C 558.113 517.782, 559.029 521.141, 559.827 527.887 C 560.424 532.935, 560.687 537.652, 560.412 538.368 C 559.794 539.978, 553.632 543, 550.966 543 C 549.275 543, 549 543.695, 549 547.963 C 549 552.509, 547.232 558.467, 543.455 566.651 C 542.655 568.384, 542 570.496, 542 571.344 C 542 574.740, 537.698 580.088, 533.385 582.052 C 529.689 583.736, 529 584.500, 529 586.918 C 529 589.829, 530.453 591, 534.063 591 C 535.271 591, 536.198 591.940, 536.610 593.584 C 537.511 597.172, 536.264 608.125, 534.464 612.433 C 533.641 614.401, 532.680 618.822, 532.327 622.256 C 531.974 625.690, 531.042 629.494, 530.255 630.709 C 529.344 632.115, 529.061 634.001, 529.477 635.894 C 530.103 638.743, 530.339 638.861, 535.045 638.651 C 539.062 638.472, 540.565 637.845, 543.277 635.216 C 545.102 633.447, 547.526 632, 548.663 632 C 549.800 632, 551.874 631.100, 553.273 630 C 554.671 628.900, 557.119 628, 558.712 628 C 561.722 628, 565.457 624.748, 569.911 618.248 C 571.154 616.434, 573.804 608.473, 575.903 600.248 C 577.973 592.137, 581.121 581.675, 582.898 577 C 590.048 558.190, 592.804 548.406, 594.023 537.500 C 595.207 526.904, 598.244 517.203, 600.888 515.569 C 602.938 514.302, 602.129 508.744, 599.495 505.994 C 597.665 504.085, 596.289 500.428, 594.394 492.440 C 592.967 486.423, 590.992 479.250, 590.006 476.500 C 589.020 473.750, 587.954 470.712, 587.638 469.750 C 586.762 467.084, 583.001 467.489, 582.996 470.250" stroke="#81244d" fill="#81244d" fill-opacity="0.2" fill-rule="evenodd"/><path class="svg-region-SOTl" d="M 541.500 494.718 C 535.610 496.149, 529.940 499.393, 529.372 501.655 C 529.041 502.974, 528.946 510.082, 529.161 517.451 C 529.493 528.807, 529.839 531.165, 531.431 532.924 C 532.465 534.066, 534.149 535, 535.175 535 C 537.098 535, 544.371 539.173, 545.427 540.883 C 545.755 541.413, 547.416 542.152, 549.119 542.526 C 552.625 543.296, 559.515 540.707, 560.451 538.268 C 560.763 537.453, 560.499 532.672, 559.863 527.643 C 558.949 520.424, 558.106 517.620, 555.853 514.320 C 554.102 511.754, 553 508.833, 553 506.758 C 553 502.694, 549.705 495.485, 547.453 494.620 C 545.703 493.949, 544.590 493.967, 541.500 494.718" stroke="#995b45" fill="#995b45" fill-opacity="0.2" fill-rule="evenodd"/><path class="svg-region-LBPCl" d="M 428.376 569.750 C 426.905 574.335, 423.452 580.158, 420.804 582.517 C 417.761 585.228, 417.581 586.703, 420.099 588.291 C 421.145 588.951, 422.690 588.472, 425.358 586.661 C 430.976 582.849, 434.207 577.950, 435.521 571.250 C 436.146 568.066, 436.086 568, 432.548 568 C 429.990 568, 428.774 568.510, 428.376 569.750" stroke="#daffff" fill="#daffff" fill-opacity="0.2" fill-rule="evenodd"/><path class="svg-region-PNl" d="M 162 634.729 C 161.175 635.043, 160.275 635.629, 160 636.031 C 159.725 636.434, 156.350 638.890, 152.500 641.490 C 148.650 644.090, 143.475 648.170, 141 650.556 C 138.525 652.942, 134.631 656.156, 132.347 657.697 C 128.010 660.625, 123.731 664.114, 111.077 675.045 C 106.910 678.645, 101.925 682.555, 100 683.734 C 92.172 688.530, 81.247 702.874, 76.002 715.240 C 74.308 719.233, 72.496 723.175, 71.975 724 C 69.504 727.910, 65.038 738.053, 63.609 743 C 61.289 751.030, 60.067 765.474, 61.114 772.500 C 61.605 775.800, 62.471 781.999, 63.038 786.275 C 63.605 790.552, 64.503 795.193, 65.034 796.590 C 65.565 797.987, 66 800.952, 66 803.179 C 66 805.406, 66.845 808.864, 67.878 810.864 C 68.911 812.864, 70.255 815.747, 70.865 817.270 C 73.577 824.038, 82.024 822.770, 91.397 814.186 C 94.812 811.059, 98.932 807.346, 100.553 805.935 C 102.174 804.524, 105.166 801.510, 107.202 799.236 C 109.237 796.962, 112.162 794.431, 113.702 793.611 C 116.913 791.901, 141.643 767.705, 147.247 760.791 C 149.307 758.248, 155.567 752.643, 161.157 748.334 C 166.747 744.025, 172.936 739.098, 174.910 737.384 C 176.885 735.671, 181.650 732.235, 185.500 729.749 C 189.350 727.263, 195.952 721.855, 200.172 717.730 C 206.711 711.340, 208.579 708.699, 212.813 699.866 C 215.545 694.165, 218.341 687.700, 219.024 685.500 C 220.751 679.946, 222.831 675.935, 225.510 673 C 233.265 664.502, 244.078 644.713, 243.964 639.227 C 243.935 637.846, 243.485 638.023, 241.714 640.113 C 238.270 644.178, 234.694 646.030, 227.311 647.575 C 219.438 649.222, 209.712 649.416, 203.693 648.045 C 201.387 647.520, 196.350 646.375, 192.500 645.501 C 188.650 644.627, 184.600 643.506, 183.500 643.010 C 182.400 642.513, 179.170 641.141, 176.321 639.961 C 173.473 638.781, 170.366 636.957, 169.416 635.908 C 167.722 634.035, 164.971 633.598, 162 634.729" stroke="#bbc0d1" fill="#bbc0d1" fill-opacity="0.2" fill-rule="evenodd"/><path class="svg-region-OVl" d="M 524.500 386.896 C 522.300 387.721, 520.275 388.668, 520 388.999 C 519.725 389.331, 517.025 390.860, 514 392.399 C 508.375 395.259, 501.565 401.644, 500.474 405.081 C 500.139 406.136, 499.446 407, 498.933 407 C 498.420 407, 498 407.450, 498 408 C 498 408.550, 499.295 409, 500.878 409 C 502.460 409, 504.315 409.675, 505 410.500 C 505.791 411.454, 508 412, 511.063 412 C 513.714 412, 516.160 412.450, 516.500 413 C 516.840 413.550, 519.778 414, 523.028 414 L 528.939 414 532.366 408.641 C 534.252 405.694, 537.303 402.226, 539.147 400.935 C 542.953 398.272, 549 392.032, 549 390.770 C 549 390.309, 546.862 390.211, 544.250 390.553 C 540.228 391.080, 538.657 390.733, 534 388.285 C 528.681 385.490, 528.368 385.444, 524.500 386.896 M 537 434.768 C 537 441.402, 537.364 443.072, 539.496 446.208 C 542.127 450.081, 543.944 459.197, 543.980 468.709 C 544.010 476.675, 546.092 488.949, 547.682 490.539 C 549.255 492.112, 551.793 500.145, 552.829 506.829 L 553.500 511.157 557.613 508.172 C 564.834 502.929, 575.718 489.690, 577.365 484.143 C 578.177 481.409, 579.609 477.999, 580.549 476.566 C 583.320 472.336, 584.891 462.683, 583.990 455.417 C 583.222 449.229, 582.935 448.719, 576.097 441.396 C 572.193 437.217, 569 433.393, 569 432.899 C 569 432.404, 568.310 432, 567.467 432 C 566.623 432, 563.713 430.875, 561 429.500 C 556.763 427.353, 554.720 427, 546.533 427 L 537 427 537 434.768" stroke="#593939" fill="#593939" fill-opacity="0.2" fill-rule="evenodd"/><path class="svg-region-ODMl" d="M 524.498 585.714 C 522.849 586.555, 520.600 588.052, 519.500 589.041 C 518.400 590.029, 515.841 591.144, 513.814 591.518 C 511.787 591.892, 508.343 593.727, 506.161 595.594 C 503.260 598.077, 500.405 599.365, 495.540 600.385 C 491.881 601.152, 488.736 601.942, 488.550 602.140 C 488.365 602.338, 488.692 606.949, 489.278 612.386 C 490.069 619.734, 490.042 623.395, 489.171 626.650 C 488.527 629.058, 488 632.395, 488 634.064 C 488 635.733, 487.336 638.383, 486.525 639.952 C 485.210 642.494, 485.219 642.870, 486.607 643.403 C 489.718 644.596, 500.704 643.912, 509.449 641.978 C 514.371 640.890, 520.221 639.986, 522.449 639.968 C 527.567 639.928, 530.428 637.924, 529.508 635.024 C 529.100 633.740, 529.459 631.948, 530.417 630.486 C 531.288 629.158, 532 626.520, 532 624.624 C 532 622.729, 532.906 618.326, 534.013 614.839 C 536.310 607.608, 537.584 594.178, 536.169 592.119 C 535.647 591.359, 534.158 590.629, 532.860 590.496 C 531.562 590.364, 530.163 590.198, 529.750 590.128 C 529.337 590.057, 528.993 589.212, 528.985 588.250 C 528.954 584.794, 527.695 584.083, 524.498 585.714" stroke="#999999" fill="#999999" fill-opacity="0.2" fill-rule="evenodd"/><path class="svg-region-COl" d="M 159.281 598.506 C 154.923 600.502, 153 604.629, 153 611.982 C 153 621.679, 155.148 625.233, 165.950 633.406 C 175.798 640.859, 183.276 643.837, 201.500 647.566 C 214.033 650.130, 229.524 648.749, 236.893 644.411 C 243.166 640.717, 245.810 633.029, 242.454 628.238 C 241.604 627.024, 238.791 624.822, 236.204 623.346 C 233.617 621.870, 230.825 620.142, 230 619.507 C 228.434 618.301, 218.454 614.038, 206.500 609.470 C 202.650 607.999, 198.150 606.229, 196.500 605.538 C 194.850 604.847, 192.150 603.719, 190.500 603.033 C 177.864 597.775, 164.959 595.904, 159.281 598.506" stroke="#906d99" fill="#906d99" fill-opacity="0.2" fill-rule="evenodd"/><path class="svg-region-HRl" d="M 379.930 536.750 C 369.792 550.265, 365.700 552.731, 355.523 551.460 C 352.604 551.095, 349.335 551.076, 348.258 551.418 C 346.148 552.088, 337.755 563.699, 336.044 568.315 C 335.470 569.863, 335 573.810, 335 577.086 C 335 585.303, 339.379 594.149, 347.084 601.499 C 352.789 606.940, 352.918 607, 358.975 607 C 365.199 607, 368.679 605.769, 374.500 601.508 C 379.758 597.659, 391.220 593.784, 402.717 591.969 C 414.071 590.177, 421.141 583.914, 422.570 574.381 C 423.434 568.617, 422.381 566.057, 418.472 564.424 C 416.638 563.657, 414.831 562.536, 414.458 561.932 C 414.085 561.329, 411.917 560.012, 409.640 559.008 C 407.363 558.003, 402.264 554, 398.308 550.113 C 392.077 543.990, 390.891 542.242, 389.426 537.023 C 387.253 529.278, 385.572 529.229, 379.930 536.750" stroke="#d9dba1" fill="#d9dba1" fill-opacity="0.2" fill-rule="evenodd"/>
    </svg>