<svg xmlns="http://www.w3.org/2000/svg" width="1078" height="1151" viewBox="0 0 1078 1151" version="1.1">
    <path class="svg-region-V" d="M 503.500 227.079 C 501.300 227.629, 494.325 229.278, 488 230.742 C 476.698 233.359, 473.054 234.983, 467.920 239.685 C 465.287 242.097, 458.258 245.117, 449.743 247.494 C 447.126 248.225, 442.851 250.340, 440.243 252.195 C 437.634 254.049, 433.546 256.200, 431.158 256.974 C 428.061 257.977, 424.423 260.741, 418.470 266.614 C 408.221 276.727, 392.006 298.366, 391.985 301.961 C 391.968 305.063, 390.118 310.475, 384.827 322.907 C 382.605 328.128, 380.145 334.897, 379.361 337.950 C 378.578 341.002, 376.858 346.425, 375.541 350 C 365.017 378.563, 364.553 388.607, 372.932 406.500 C 376.316 413.726, 383.806 422.957, 386.305 422.982 C 387.298 422.992, 390.223 423.972, 392.805 425.160 C 398.677 427.862, 415.412 429.414, 429.500 428.563 C 439.042 427.987, 459.301 424.037, 482 418.327 C 489.428 416.459, 495.865 413.930, 504 409.685 C 510.325 406.384, 515.950 403.154, 516.500 402.505 C 517.377 401.472, 534.984 391.402, 539 389.637 C 539.825 389.275, 541.850 388.123, 543.500 387.078 C 550.400 382.710, 559.101 378.897, 560.882 379.463 C 562.178 379.874, 562.902 379.483, 563.240 378.191 C 563.696 376.445, 572.107 370, 573.928 370 C 574.383 370, 575.344 369.290, 576.065 368.422 C 576.785 367.554, 579.428 365.803, 581.937 364.530 C 584.447 363.257, 587.222 361.380, 588.104 360.358 C 589.667 358.548, 592 347.065, 592 341.180 C 592 339.566, 592.626 337.725, 593.391 337.090 C 594.156 336.455, 595.090 333.888, 595.465 331.386 C 595.840 328.883, 597.486 324.285, 599.122 321.168 C 600.759 318.051, 602.730 313.250, 603.503 310.500 C 604.276 307.750, 605.217 304.449, 605.593 303.164 C 606.392 300.441, 604.295 290.623, 602.142 287 C 599.891 283.213, 586.873 270.050, 583.745 268.398 C 582.229 267.598, 579.861 265.156, 578.482 262.972 C 577.103 260.787, 575.524 259, 574.973 259 C 574.038 259, 563.719 251.250, 561.500 248.881 C 553.822 240.686, 549.613 237.074, 547.094 236.521 C 545.444 236.158, 542.914 234.934, 541.472 233.799 C 534.796 228.548, 513.028 224.696, 503.500 227.079" stroke="#dd8a8a" fill="#dd8a8a" fill-opacity="0.2" fill-rule="evenodd"/><path class="svg-region-SF" d="M 587.460 360.940 C 586.930 361.470, 584.655 362.938, 582.406 364.202 C 580.156 365.466, 574.919 368.721, 570.768 371.435 C 563.615 376.112, 563.190 376.600, 562.618 380.770 C 562.286 383.190, 561.180 386.369, 560.160 387.835 C 559.140 389.301, 557.771 392.075, 557.118 394 C 556.465 395.925, 554.061 400.646, 551.777 404.491 C 548.728 409.624, 547.509 412.873, 547.190 416.719 C 546.783 421.632, 546.974 422.174, 550.284 425.484 C 552.225 427.425, 555.258 429.302, 557.025 429.655 C 559.135 430.077, 562.685 432.672, 567.369 437.216 C 571.291 441.022, 576.525 445.196, 579 446.492 C 581.475 447.788, 585.075 450.926, 587 453.466 C 592.005 460.067, 592.955 461, 594.678 461 C 595.695 461, 596 460.442, 595.581 459.350 C 595.232 458.442, 594.792 447.529, 594.603 435.100 C 594.414 422.670, 593.795 410.700, 593.229 408.500 C 592.170 404.385, 590.634 381.234, 590.548 368.091 C 590.502 360.974, 589.574 358.826, 587.460 360.940" stroke="#8c6b55" fill="#8c6b55" fill-opacity="0.2" fill-rule="evenodd"/><path class="svg-region-AAB" d="M 549.666 608.750 C 549.418 609.163, 548.919 611.709, 548.558 614.408 C 548.196 617.108, 547.473 620.116, 546.950 621.093 C 546.428 622.069, 546 624.037, 546 625.466 C 546 626.894, 545.325 628.322, 544.500 628.638 C 540.975 629.991, 543.602 633.570, 548.898 634.630 C 551.896 635.229, 552.592 634.762, 559.553 627.478 C 563.649 623.191, 567 619.101, 567 618.389 C 567 617.063, 565.851 616.117, 558 610.981 C 553.571 608.083, 550.554 607.275, 549.666 608.750" stroke="#7f3c1a" fill="#7f3c1a" fill-opacity="0.2" fill-rule="evenodd"/><path class="svg-region-DB" d="M 516.324 402.292 C 515.871 403.050, 510.286 406.378, 503.914 409.686 C 491.890 415.928, 489.843 416.547, 452.500 425.230 C 439.150 428.334, 437.617 428.480, 419.500 428.372 C 401.358 428.264, 400.219 428.140, 394.280 425.629 C 390.859 424.183, 387.409 423, 386.613 423 C 385.072 423, 383 430.576, 383 436.210 C 383 440.076, 377.934 445, 373.956 445 C 371.205 445, 366 449.240, 366 451.481 C 366 453.900, 369.658 456, 373.871 456 C 378.022 456, 378.126 456.087, 380.820 461.783 C 383.967 468.438, 387.386 473.633, 390.505 476.500 C 391.856 477.742, 392.917 480.255, 393.305 483.131 C 393.648 485.679, 395.183 489.827, 396.715 492.350 C 398.941 496.017, 400.202 497.061, 403 497.553 C 404.925 497.891, 407.974 498.619, 409.776 499.170 C 412.053 499.867, 415.222 499.806, 420.171 498.971 C 427.444 497.744, 438.025 498.244, 444.201 500.106 C 446.015 500.653, 456.231 501.516, 466.902 502.023 C 477.574 502.530, 487.699 503.396, 489.402 503.946 C 496.996 506.400, 533.264 511.573, 535.066 510.459 C 535.580 510.142, 536 509.041, 536 508.012 C 536 506.984, 536.688 505.455, 537.530 504.613 C 539.725 502.418, 541.984 495.446, 542.691 488.682 C 543.221 483.607, 543.738 482.496, 546.651 480.172 C 549.356 478.014, 550 476.794, 550 473.831 C 550 469.437, 547.784 460.109, 544.440 450.427 L 541.996 443.354 544.498 437.197 C 547.380 430.104, 547.641 425.470, 545.452 420.232 C 543.122 414.654, 540.248 412.107, 532.032 408.339 C 527.924 406.456, 523.874 404.312, 523.032 403.576 C 520.526 401.385, 517.242 400.756, 516.324 402.292" stroke="#e8b1e4" fill="#e8b1e4" fill-opacity="0.2" fill-rule="evenodd"/><path class="svg-region-IBl" d="M 508 555.869 C 500.355 557.805, 492.424 565.375, 485.675 577.178 C 482.369 582.960, 482.368 583.325, 485.659 585.081 C 488.639 586.672, 491.945 593.054, 491.978 597.282 C 491.990 598.812, 492.652 601.625, 493.449 603.532 C 494.566 606.206, 495.483 607, 497.453 607 C 498.858 607, 501.686 607.900, 503.739 609 C 508.195 611.388, 509.594 611.460, 513.364 609.494 C 516.595 607.809, 521.732 607.554, 525.185 608.907 C 530.098 610.833, 535.428 617.352, 537.358 623.797 C 538.531 627.714, 539.753 630, 540.674 630 C 543.420 630, 546 627.930, 546.015 625.715 C 546.023 624.497, 546.679 621.700, 547.471 619.500 C 548.264 617.300, 548.932 614.068, 548.956 612.317 C 549.014 608.137, 552.125 606.977, 555.864 609.741 C 559.761 612.622, 565.103 615.230, 565.761 614.572 C 566.525 613.809, 564.373 609.881, 561.484 606.766 C 560.206 605.388, 556.605 599.814, 553.482 594.380 C 550.360 588.946, 546.979 583.600, 545.969 582.500 C 543.531 579.844, 542 575.622, 542 571.554 C 542 567.496, 538.372 564.447, 529.500 561.051 C 526.200 559.788, 521.651 557.909, 519.390 556.877 C 515.218 554.971, 512.499 554.731, 508 555.869" stroke="#b10e0e" fill="#b10e0e" fill-opacity="0.2" fill-rule="evenodd"/><path class="svg-region-MB" d="M 401 503 C 401 508.381, 401.731 509.060, 404.375 506.139 C 405.301 505.115, 407.899 503.447, 410.148 502.433 L 414.236 500.590 410.868 499.371 C 409.016 498.701, 406.038 498.118, 404.250 498.076 C 401.007 498, 401 498.010, 401 503 M 450.794 502.121 C 451.182 502.469, 453.832 503.511, 456.682 504.435 C 464.302 506.906, 473.389 514.891, 477.242 522.500 C 479.538 527.034, 481.323 539.633, 480.667 546.666 C 480.346 550.104, 479.099 554.848, 477.897 557.208 C 475.231 562.442, 462.692 575.595, 459.681 576.315 C 458.482 576.601, 455.475 577.591, 453 578.514 C 449.540 579.804, 446.421 580.076, 439.500 579.693 C 434.550 579.419, 429.570 578.895, 428.433 578.528 C 426.661 577.958, 426.186 578.480, 425.111 582.181 C 423.142 588.958, 420.537 593.330, 417.175 595.500 C 415.471 596.600, 414.060 597.903, 414.039 598.395 C 413.973 599.916, 427.188 598.278, 434.023 595.918 C 439.784 593.928, 443.664 591.485, 453.244 583.815 C 455.807 581.763, 456.315 581.703, 460.968 582.895 C 464.894 583.901, 466.721 583.917, 469.591 582.970 C 471.594 582.309, 475.367 581.973, 477.974 582.223 L 482.715 582.679 485.903 576.879 C 492.502 564.877, 501.892 556.778, 510.786 555.418 C 514.409 554.864, 515.283 554.259, 516.431 551.512 C 517.178 549.724, 518.652 547.640, 519.707 546.881 C 520.762 546.121, 522.713 544.012, 524.043 542.193 L 526.460 538.886 535.230 539.572 C 541.835 540.089, 544 539.957, 544 539.039 C 544 538.369, 541.719 535.273, 538.932 532.160 C 534.289 526.975, 533.911 526.185, 534.432 522.750 C 534.744 520.688, 535.272 517.200, 535.605 515 C 536.058 512.004, 535.870 510.999, 534.855 510.997 C 529.019 510.985, 510.767 508.311, 497 505.452 C 492.875 504.595, 485.900 503.489, 481.500 502.994 C 471.598 501.880, 449.835 501.261, 450.794 502.121" stroke="#f9c6c6" fill="#f9c6c6" fill-opacity="0.2" fill-rule="evenodd"/><path class="svg-region-LBl" d="M 418.746 499.017 C 412.485 500.607, 405.577 504.619, 401.687 508.925 C 399.659 511.170, 398 513.384, 398 513.847 C 398 514.310, 396.868 515.996, 395.483 517.594 C 390.312 523.565, 390.234 527.190, 394.847 547 C 396.972 556.124, 407.973 569.433, 417.311 574.176 C 428.977 580.102, 446.311 581.857, 454.859 577.978 C 457.257 576.890, 459.802 576, 460.515 576 C 462.566 576, 475.262 562.319, 477.792 557.383 C 480.695 551.717, 481.563 542.597, 480.097 533.167 C 478.620 523.672, 476.281 519.261, 468.917 512.077 C 463.406 506.701, 461.990 505.907, 451.974 502.580 C 440.126 498.645, 426.127 497.144, 418.746 499.017" stroke="#79495c" fill="#79495c" fill-opacity="0.2" fill-rule="evenodd"/><path class="svg-region-DMl" d="M 454 582.681 C 453.175 583.018, 452.138 583.906, 451.695 584.655 C 450.329 586.968, 440.366 593.872, 437.354 594.593 C 435.784 594.968, 434.019 595.651, 433.431 596.110 C 432.843 596.569, 429.149 597.495, 425.222 598.169 C 419.563 599.139, 415.425 599.133, 405.270 598.140 C 398.224 597.451, 391.568 597.209, 390.479 597.602 C 389.391 597.995, 386.288 599.933, 383.584 601.908 C 380.880 603.884, 377.280 606.192, 375.584 607.038 C 373.474 608.091, 372.588 609.197, 372.777 610.538 C 373.237 613.795, 373.147 616.336, 372.451 619.693 C 371.846 622.616, 372.073 623.005, 375.145 624.297 C 377.053 625.099, 383.029 630.594, 389 637.035 C 394.775 643.265, 400.327 649.069, 401.337 649.931 C 402.348 650.794, 405.065 655.335, 407.375 660.021 L 411.576 668.542 415.768 667.827 C 418.074 667.433, 421.948 666.232, 424.376 665.158 C 433.947 660.924, 451.487 659.516, 461.500 662.176 C 466.215 663.429, 495.404 662.389, 498.248 660.867 C 500.522 659.650, 500.197 653.547, 497.666 649.933 C 496.260 647.926, 496.002 644.746, 496.014 629.527 C 496.027 614.382, 495.712 610.461, 494.048 605 C 492.958 601.425, 491.825 596.925, 491.530 595 C 490.159 586.049, 483.579 581.309, 474.112 582.454 C 466.360 583.391, 464.111 583.429, 459.500 582.701 C 457.300 582.353, 454.825 582.344, 454 582.681" stroke="#68533d" fill="#68533d" fill-opacity="0.2" fill-rule="evenodd"/><path class="svg-region-PMl" d="M 362.815 623.809 C 361.219 625.152, 358.971 628.107, 357.820 630.376 C 356.670 632.644, 351.545 638.867, 346.433 644.204 C 341.320 649.541, 335.227 656.741, 332.893 660.204 C 330.560 663.667, 328.269 666.757, 327.804 667.072 C 326.217 668.145, 323.342 677.524, 323.165 682.206 C 322.883 689.654, 325.448 691.841, 336 693.151 C 356.891 695.746, 359.960 695.717, 367.100 692.853 C 376.220 689.196, 378.918 687.713, 384.584 683.241 C 387.288 681.107, 390.926 678.866, 392.670 678.261 C 394.413 677.655, 398.665 675.324, 402.119 673.080 C 405.572 670.836, 408.983 669, 409.699 669 C 411.711 669, 411.293 667.309, 407.380 659.617 C 405.389 655.702, 401.183 649.800, 398.034 646.500 C 394.884 643.200, 389.426 637.411, 385.904 633.635 C 374.935 621.876, 368.412 619.100, 362.815 623.809" stroke="#90cf92" fill="#90cf92" fill-opacity="0.2" fill-rule="evenodd"/><path class="svg-region-PCl" d="M 294.500 571.961 C 286.776 572.434, 283.590 573.085, 280.500 574.823 C 269.439 581.042, 265.841 585.241, 258.398 600.614 C 254.262 609.157, 253.557 611.525, 253.209 618.047 C 252.887 624.085, 253.126 625.860, 254.403 626.920 C 255.372 627.723, 256 629.797, 256 632.188 C 256 636.489, 257.046 638.996, 260.649 643.327 C 261.942 644.881, 263.003 647.131, 263.006 648.327 C 263.016 652.443, 265.116 658.062, 267.844 661.277 C 269.349 663.050, 271.068 665.636, 271.666 667.024 C 272.542 669.062, 273.895 669.785, 278.686 670.774 C 281.950 671.448, 286.739 672, 289.329 672 C 293.657 672, 301.496 675.034, 305.891 678.410 C 307.386 679.559, 310.857 680.116, 317.991 680.351 L 322.482 680.500 324.550 674.484 C 325.688 671.176, 327.348 667.576, 328.239 666.484 C 329.130 665.393, 332.554 660.900, 335.847 656.500 C 339.141 652.100, 344.841 645.585, 348.514 642.021 C 352.188 638.458, 356.099 633.733, 357.206 631.521 C 358.314 629.310, 360.339 626.305, 361.707 624.844 C 363.583 622.841, 364.014 621.611, 363.462 619.844 C 362.494 616.745, 357.354 610.852, 354.098 609.109 C 351.753 607.854, 349.698 606.208, 341.929 599.359 C 340.593 598.181, 338.375 595.315, 337 592.989 C 333.472 587.022, 316.993 574.574, 310.500 572.971 C 308.850 572.564, 306.825 572.032, 306 571.789 C 305.175 571.547, 300 571.624, 294.500 571.961" stroke="#465ee0" fill="#465ee0" fill-opacity="0.2" fill-rule="evenodd"/><path class="svg-region-Ol" d="M 709 242.109 C 699.039 243.892, 686.300 246.978, 682.367 248.560 C 680.240 249.416, 673.385 252.678, 667.134 255.808 C 656.754 261.007, 654.751 262.497, 644.039 273 C 637.587 279.325, 631.452 286.139, 630.404 288.143 C 624.045 300.305, 620.793 307.781, 617.415 318 C 615.799 322.890, 615.558 328.211, 615.241 366 C 615.014 393.037, 615.280 411.411, 615.970 416.500 C 618.889 438.014, 618.094 494.577, 614.767 502 C 613.905 503.925, 612.675 507.750, 612.034 510.500 C 611.394 513.250, 609.276 519.772, 607.327 524.994 C 603.918 534.131, 601.545 544.945, 598.990 563 C 597.754 571.738, 597.027 574.647, 592.583 588.630 C 591.163 593.102, 590 598.093, 590 599.721 C 590 601.350, 589.330 604.891, 588.511 607.591 C 587.692 610.291, 587.017 613.698, 587.011 615.162 C 586.995 619.098, 575.321 639.177, 568.522 646.962 C 563.004 653.281, 559.612 658.326, 554.715 667.496 C 550.176 675.995, 549.851 677.117, 548.933 687.502 C 546.650 713.330, 547.650 814.854, 550.410 837.500 C 554.422 870.409, 555.652 874.743, 562.816 881.215 C 568.408 886.267, 575.979 888.366, 590 888.753 C 619.357 889.563, 648.660 889.252, 650.795 888.110 C 652.004 887.463, 655.582 886.456, 658.746 885.872 C 661.911 885.289, 665.625 884.193, 667 883.437 C 668.375 882.681, 671.075 881.431, 673 880.660 C 676.171 879.388, 696.063 865.080, 699.659 861.483 C 700.475 860.668, 701.578 860, 702.110 860 C 702.642 860, 709.049 854.038, 716.347 846.750 C 730.380 832.738, 736.599 827.296, 741.500 824.739 C 743.150 823.878, 747.330 820.714, 750.788 817.706 C 754.246 814.699, 759.702 810.838, 762.912 809.128 C 771.371 804.619, 784.049 795.327, 795.457 785.274 C 809.110 773.243, 832.571 750.300, 835.825 745.799 C 837.296 743.764, 841.040 738.814, 844.144 734.799 C 849.086 728.407, 860 709.056, 860 706.686 C 860 706.214, 863.664 697.879, 868.141 688.164 C 876.723 669.545, 880.419 659.364, 881.504 651.352 C 881.866 648.684, 882.564 645.150, 883.056 643.500 C 883.548 641.850, 884.647 632.625, 885.498 623 C 886.349 613.375, 887.464 601.406, 887.976 596.402 C 889.107 585.339, 887.675 513.613, 886.250 510 C 885.708 508.625, 884.950 504.350, 884.565 500.500 C 882.028 475.114, 876.219 450.952, 865.691 422 C 862.023 411.911, 858.892 405.792, 852.629 396.477 C 850.500 393.310, 847.408 387.969, 845.758 384.609 C 841.133 375.193, 832.056 360.020, 827.902 354.761 C 825.844 352.155, 822.689 347.430, 820.892 344.261 C 819.095 341.092, 815.942 336.475, 813.885 334 C 811.829 331.525, 808.260 325.900, 805.955 321.500 C 803.650 317.100, 801.197 312.825, 800.504 312 C 799.812 311.175, 797.820 307.575, 796.079 304 C 782.506 276.127, 763.667 257.097, 737.545 244.874 C 731.780 242.176, 729.215 241.578, 722.545 241.372 C 718.120 241.236, 712.025 241.567, 709 242.109" stroke="#aa444d" fill="#aa444d" fill-opacity="0.2" fill-rule="evenodd"/><path class="svg-region-VOC" d="M 523.906 542.146 C 522.598 543.991, 520.284 546.553, 518.764 547.839 C 514.922 551.090, 515.054 554.955, 519.087 557.250 C 520.778 558.212, 522.830 559, 523.646 559 C 525.956 559, 535.269 563.125, 537.564 565.165 C 542.816 569.833, 545 565.825, 545 551.520 C 545 539.594, 545.839 540.505, 533.892 539.458 L 526.285 538.792 523.906 542.146" stroke="#ff8f93" fill="#ff8f93" fill-opacity="0.2" fill-rule="evenodd"/><path class="svg-region-OABl" d="M 588.180 473.970 C 586.939 475.649, 584.028 478.250, 581.712 479.752 C 579.395 481.253, 577.229 482.855, 576.897 483.312 C 576.565 483.769, 576.009 488.499, 575.662 493.822 C 574.938 504.909, 572.427 513.877, 568.922 517.887 C 566.825 520.286, 566.498 521.664, 566.486 528.144 C 566.476 533.722, 566.002 536.348, 564.625 538.449 C 562.781 541.265, 562.765 541.268, 554.693 540.595 C 550.247 540.224, 546.135 539.527, 545.555 539.045 C 544.822 538.437, 544.609 541.811, 544.856 550.099 C 545.154 560.099, 544.934 562.452, 543.493 564.651 C 541.274 568.037, 541.863 576.695, 544.575 580.559 C 547.933 585.343, 554.131 595.367, 556.067 599.146 C 557.094 601.151, 558.512 603.401, 559.217 604.146 C 564.794 610.033, 566.253 613.231, 566.314 619.699 L 566.375 626.201 569.831 625.640 C 571.732 625.332, 574.256 624.168, 575.441 623.055 C 576.627 621.942, 579.037 620.743, 580.798 620.390 C 583.223 619.905, 584 619.222, 584 617.575 C 584 616.379, 584.382 614.973, 584.850 614.450 C 586.682 612.401, 590.027 598.913, 591.532 587.500 C 592.403 580.900, 593.755 573.599, 594.537 571.276 C 595.572 568.202, 595.719 565.753, 595.078 562.276 C 593.505 553.736, 597.189 532.655, 601.301 526.675 C 604.045 522.684, 603.334 509.623, 599.986 502.500 C 598.503 499.346, 597.503 495.100, 597.276 491 C 597.079 487.425, 596.239 482.202, 595.411 479.394 C 594.582 476.585, 594.038 473.671, 594.202 472.917 C 594.813 470.110, 590.473 470.868, 588.180 473.970" stroke="#81244d" fill="#81244d" fill-opacity="0.2" fill-rule="evenodd"/><path class="svg-region-SOTl" d="M 546.077 480.589 C 544.174 482.190, 543 484.118, 543 485.641 C 543 490.422, 539.797 502.112, 538.025 503.795 C 536.822 504.938, 536.037 507.641, 535.640 512 C 535.315 515.575, 534.763 520.192, 534.414 522.261 C 533.717 526.387, 535.857 530.040, 542.818 536.606 C 545.827 539.444, 547.177 539.940, 553.509 540.533 C 557.495 540.907, 561.670 540.922, 562.788 540.567 C 565.717 539.638, 567.482 531.510, 566.465 523.632 C 566.030 520.259, 565.635 514.125, 565.587 510 C 565.480 500.794, 562.716 491.421, 558.776 486.909 C 557.169 485.068, 555.115 482.311, 554.212 480.781 C 552.165 477.317, 550.025 477.267, 546.077 480.589" stroke="#995b45" fill="#995b45" fill-opacity="0.2" fill-rule="evenodd"/><path class="svg-region-LBPCl" d="M 419.331 583.250 C 418.828 583.938, 417.827 585.683, 417.104 587.129 C 416.382 588.575, 414.151 590.622, 412.146 591.678 C 407.397 594.178, 407.139 597.368, 411.649 597.806 C 417.621 598.386, 426.280 587.452, 422.989 583.487 C 421.483 581.672, 420.530 581.610, 419.331 583.250" stroke="#daffff" fill="#daffff" fill-opacity="0.2" fill-rule="evenodd"/><path class="svg-region-PNl" d="M 250.060 616.343 C 249.197 618.612, 248.857 618.677, 239.334 618.383 C 230.450 618.108, 217.058 616.825, 214.500 616.004 C 212.851 615.474, 207.494 617.758, 198.500 622.824 C 195.750 624.374, 190.125 626.664, 186 627.915 C 181.875 629.166, 177.600 630.550, 176.500 630.991 C 175.400 631.433, 172.025 632.786, 169 634 C 159.435 637.837, 146.731 644.518, 139.951 649.277 C 136.349 651.805, 130.049 655.770, 125.951 658.087 C 117.409 662.918, 106.431 670.116, 103.500 672.808 C 102.400 673.818, 98.350 677.051, 94.500 679.993 C 86.670 685.977, 78 693.992, 78 695.249 C 78 695.702, 75.810 698.930, 73.132 702.423 C 66.282 711.360, 60.393 722.434, 56.742 733.241 L 53.614 742.500 53.595 765 C 53.576 786.673, 53.675 787.827, 56.297 796.396 C 60.242 809.286, 61.807 813.716, 63.234 816.026 C 64.552 818.159, 73.625 821.393, 76.098 820.610 C 76.869 820.367, 78.711 819.903, 80.191 819.579 C 81.671 819.256, 85.721 816.501, 89.191 813.458 C 92.661 810.414, 98.650 805.809, 102.500 803.224 C 106.350 800.640, 111.525 796.706, 114 794.483 C 116.475 792.260, 120.676 789.105, 123.335 787.471 C 125.994 785.837, 132.069 781.340, 136.835 777.478 C 141.601 773.616, 150.814 766.483, 157.308 761.626 C 163.803 756.770, 171.678 750.534, 174.808 747.768 C 177.939 745.003, 181.850 741.903, 183.500 740.880 C 185.150 739.857, 189.425 736.349, 193 733.085 C 200.132 726.575, 212.609 717, 213.962 717 C 214.432 717, 218.044 713.288, 221.988 708.750 C 233.658 695.322, 240.165 689.106, 246 685.808 C 251.543 682.676, 265.530 677.494, 271.989 676.180 C 276.335 675.295, 276.833 673.191, 273.537 669.635 C 272.142 668.129, 271 666.417, 271 665.830 C 271 665.244, 269.695 663.277, 268.100 661.461 C 266.174 659.268, 264.686 655.910, 263.674 651.473 C 262.836 647.796, 261.272 643.823, 260.200 642.644 C 257.136 639.275, 256 636.447, 256 632.188 C 256 629.903, 255.369 627.721, 254.500 627 C 253.478 626.152, 253 623.882, 253 619.878 C 253 613.798, 251.646 612.171, 250.060 616.343 M 225 621.362 C 223.075 622.082, 219.925 623.648, 218 624.843 C 216.075 626.039, 212.137 628.132, 209.250 629.496 C 204.254 631.855, 204 632.161, 204 635.827 C 204 641.537, 206.386 642.343, 224.500 642.752 C 241.135 643.128, 244.988 642.153, 247.945 636.822 C 249.290 634.396, 249.243 633.694, 247.451 629.370 C 246.173 626.286, 244.359 623.946, 242.327 622.759 C 238.260 620.384, 229.507 619.678, 225 621.362" stroke="#bbc0d1" fill="#bbc0d1" fill-opacity="0.2" fill-rule="evenodd"/><path class="svg-region-OVl" d="M 553.500 381.436 C 548.087 384.206, 539.641 388.844, 530 394.342 C 528.075 395.440, 524.813 397.172, 522.750 398.192 C 520.688 399.212, 519 400.452, 519 400.947 C 519 401.442, 523.640 404.124, 529.310 406.907 C 540.465 412.382, 543.071 414.533, 545.452 420.232 C 547.641 425.469, 547.380 430.104, 544.500 437.193 L 541.999 443.347 544.409 450.424 C 547.874 460.599, 550 469.576, 550 474.031 C 550 476.229, 550.586 478.246, 551.357 478.700 C 552.103 479.140, 554.715 481.975, 557.162 485 C 563.155 492.410, 565.422 499.282, 565.466 510.164 C 565.485 514.930, 565.857 519.187, 566.294 519.625 C 567.694 521.029, 571.776 514.690, 573.457 508.500 C 574.353 505.200, 575.426 498.258, 575.840 493.073 C 576.554 484.141, 576.748 483.538, 579.547 481.573 C 581.171 480.433, 584.405 477.587, 586.733 475.250 C 589.061 472.913, 591.408 471, 591.948 471 C 593.272 471, 595 467.620, 595 465.028 C 595 461.886, 583.256 448.325, 579.044 446.605 C 577.095 445.808, 572.350 441.959, 568.500 438.050 C 563.629 433.105, 560.347 430.633, 557.711 429.923 C 555.627 429.361, 552.477 427.611, 550.711 426.033 C 547.779 423.413, 547.503 422.657, 547.539 417.332 C 547.572 412.307, 548.160 410.518, 551.788 404.401 C 554.104 400.497, 556.518 395.772, 557.152 393.901 C 557.787 392.030, 559.090 389.371, 560.049 387.991 C 561.680 385.645, 562.385 383.038, 562.115 380.357 C 561.888 378.103, 559.404 378.414, 553.500 381.436" stroke="#593939" fill="#593939" fill-opacity="0.2" fill-rule="evenodd"/><path class="svg-region-ODMl" d="M 495.826 627.739 C 496.046 641.699, 496.537 648.940, 497.326 649.888 C 497.972 650.663, 498.950 653.142, 499.500 655.398 L 500.500 659.500 508.265 659.792 C 514.525 660.028, 516.145 659.786, 516.622 658.542 C 517.024 657.496, 518.547 657, 521.360 657 C 529.359 657, 537.815 648.625, 538.020 640.500 C 538.090 637.753, 540.202 634.500, 541.917 634.500 C 544.389 634.500, 544.217 632.188, 541.617 630.485 C 539.965 629.402, 538.386 626.664, 536.983 622.449 C 535.197 617.081, 534.044 615.409, 529.797 612.027 C 525.471 608.583, 524.042 608, 519.928 608 C 517.283 608, 514.861 608.415, 514.548 608.923 C 513.237 611.043, 508.137 611.111, 504.121 609.062 C 501.898 607.928, 499.049 607, 497.790 606.999 L 495.500 606.998 495.826 627.739" stroke="#999999" fill="#999999" fill-opacity="0.2" fill-rule="evenodd"/><path class="svg-region-COl" d="M 220.382 623.630 C 216.597 625.626, 211.942 628.101, 210.039 629.130 C 208.135 630.158, 205.973 631, 205.234 631 C 204.258 631, 203.974 632.274, 204.195 635.655 C 204.486 640.094, 204.685 640.374, 208.500 641.707 C 211.406 642.722, 216.515 643.022, 227.181 642.802 C 240.263 642.533, 242.168 642.271, 244.681 640.398 C 249.108 637.097, 249.795 633.815, 247.182 628.438 C 245.503 624.982, 243.955 623.428, 240.736 621.967 C 234.066 618.939, 228.398 619.402, 220.382 623.630" stroke="#906d99" fill="#906d99" fill-opacity="0.2" fill-rule="evenodd"/><path class="svg-region-HRl" d="M 379.873 547.806 C 375.268 551.550, 369.925 555.698, 368 557.024 C 357.972 563.932, 349.281 571.562, 347.250 575.240 C 345.356 578.670, 345 580.831, 345.002 588.907 C 345.003 600.904, 346.407 604.015, 354.214 609.333 C 359.019 612.605, 360.979 613.309, 366.524 613.754 L 373.120 614.283 372.810 611.497 C 372.543 609.096, 373.118 608.381, 376.972 606.321 C 379.432 605.007, 382.357 603.100, 383.472 602.083 C 388.027 597.930, 391.937 596.762, 398.895 597.475 C 402.528 597.847, 406.625 598.417, 408 598.742 C 410.160 599.252, 410.328 599.123, 409.233 597.793 C 407.436 595.611, 408.713 593.147, 412.449 591.586 C 414.442 590.753, 416.298 588.891, 417.354 586.666 C 419.430 582.291, 420.638 581.455, 422.568 583.056 C 424.332 584.521, 424.637 584.295, 425.491 580.893 C 426.101 578.461, 425.636 578.035, 418.382 574.395 C 414.112 572.253, 409.446 569.895, 408.012 569.156 C 406.421 568.337, 403.745 564.740, 401.148 559.932 C 398.807 555.597, 396.457 551.783, 395.927 551.455 C 395.396 551.127, 393.838 548.640, 392.464 545.929 C 391.090 543.218, 389.579 541, 389.106 541 C 388.633 541, 384.478 544.063, 379.873 547.806" stroke="#d9dba1" fill="#d9dba1" fill-opacity="0.2" fill-rule="evenodd"/>
    </svg>