<svg xmlns="http://www.w3.org/2000/svg" width="1078" height="1151" viewBox="0 0 1078 1151" version="1.1">
    <path class="svg-region-V" d="M 492.146 222.157 C 489.775 223.164, 485.136 224.687, 481.837 225.542 C 478.538 226.397, 473.327 228.207, 470.258 229.565 C 467.189 230.922, 463.865 231.775, 462.873 231.460 C 461.699 231.087, 459.062 232.368, 455.336 235.121 C 450.462 238.722, 445.039 241.812, 422.820 253.649 C 421.346 254.434, 418.871 256.577, 417.320 258.410 C 415.769 260.243, 411.575 265.250, 408 269.536 C 404.425 273.821, 399.637 279.392, 397.360 281.914 C 391.495 288.411, 385.039 299.393, 385.194 302.609 C 385.324 305.313, 381.310 316.322, 377.212 324.500 C 375.282 328.350, 372.700 335.775, 371.472 341 C 370.244 346.225, 367.759 354.550, 365.948 359.500 C 362.828 368.033, 362.663 369.166, 362.773 381.323 C 362.894 394.642, 364.362 404.363, 366.662 407.079 C 367.398 407.947, 368 409.030, 368 409.484 C 368 409.939, 369.119 411.778, 370.486 413.571 C 371.854 415.363, 373.777 419.006, 374.760 421.665 L 376.547 426.500 389.524 428.804 C 409.964 432.434, 422.107 431.759, 455.500 425.136 C 480.648 420.149, 489.051 417.050, 511 404.665 C 513.475 403.269, 517.300 401.135, 519.500 399.924 C 529.057 394.664, 537.632 388.334, 546.534 379.968 C 551.782 375.036, 556.460 371, 556.928 371 C 557.397 371, 560.531 368.975, 563.893 366.500 C 567.255 364.025, 570.792 361.992, 571.753 361.982 C 572.714 361.972, 575.950 360.613, 578.945 358.962 C 581.940 357.312, 586.078 355.691, 588.139 355.362 C 591.750 354.784, 591.964 354.520, 593.944 348.213 C 595.075 344.610, 596 340.814, 596 339.777 C 596 338.056, 597.904 333.231, 601.596 325.596 C 602.368 323.999, 603 321.737, 603 320.569 C 603 319.401, 603.719 317.419, 604.597 316.164 C 606.022 314.130, 606.067 312.190, 605.011 298.224 C 603.842 282.769, 602.841 278.773, 599.430 275.942 C 598.494 275.165, 596.663 272.842, 595.361 270.779 C 594.058 268.716, 589.884 264.885, 586.084 262.264 C 581.236 258.921, 577.949 255.653, 575.064 251.307 C 570.007 243.690, 562.152 236.841, 554.684 233.539 C 551.583 232.167, 548.023 230.023, 546.774 228.773 C 539.635 221.629, 503.649 217.272, 492.146 222.157" stroke="#dd8a8a" fill="#dd8a8a" fill-opacity="0.2" fill-rule="evenodd"/><path class="svg-region-SF" d="M 584.500 355.732 C 583.400 356.007, 582.275 356.569, 582 356.981 C 581.187 358.200, 573.217 362, 571.473 362 C 570.590 362, 568.322 363.178, 566.433 364.619 C 563.152 367.121, 563 367.521, 563 373.644 C 563 378.978, 562.413 381.216, 559.491 387.018 C 557.561 390.850, 555.476 396.352, 554.858 399.243 C 553.898 403.733, 552.830 405.375, 547.534 410.500 C 541.414 416.423, 539.920 418.451, 538.046 423.379 C 537.189 425.633, 537.472 426.123, 540.795 428.122 C 542.833 429.348, 547.425 432.620, 551 435.393 C 560.793 442.988, 580.969 456, 582.953 456 C 585.840 456, 590.277 452.581, 591.647 449.302 C 592.467 447.341, 594.681 444.280, 596.568 442.500 C 600.432 438.856, 600.717 437.287, 598.345 432.700 C 597.435 430.940, 596.351 426.800, 595.936 423.500 C 594.563 412.578, 590.867 392.545, 590.035 391.514 C 589.585 390.956, 588.678 387.876, 588.021 384.669 C 587.007 379.728, 587.084 377.779, 588.522 371.910 C 589.456 368.100, 590.620 364.735, 591.110 364.432 C 591.599 364.130, 592 361.884, 592 359.441 C 592 355.235, 591.855 355.006, 589.250 355.116 C 587.737 355.180, 585.600 355.457, 584.500 355.732" stroke="#8c6b55" fill="#8c6b55" fill-opacity="0.2" fill-rule="evenodd"/><path class="svg-region-AAB" d="M 549.392 610.390 C 544.699 615.236, 544.098 616.364, 543.450 621.554 C 542.543 628.814, 543.599 631.794, 547.896 634.090 C 549.763 635.088, 552.575 637.135, 554.145 638.638 C 556.430 640.828, 558.174 641.457, 562.903 641.799 C 568.128 642.177, 568.939 641.983, 569.939 640.113 C 570.561 638.951, 571.901 638, 572.916 638 C 574.213 638, 575.839 635.819, 578.388 630.661 C 581.299 624.771, 581.884 622.648, 581.352 619.911 C 580.543 615.739, 577.269 611.658, 571.703 607.886 C 568.170 605.491, 566.473 605.033, 561.057 605.018 L 554.613 605 549.392 610.390" stroke="#7f3c1a" fill="#7f3c1a" fill-opacity="0.2" fill-rule="evenodd"/><path class="svg-region-APB" d="M 584.388 460.980 C 581.589 462.111, 578 466.767, 578 469.267 C 578 471.983, 574.478 477.482, 571.195 479.891 C 568.557 481.827, 568.536 481.928, 570.183 484.684 C 571.109 486.233, 572.551 487.935, 573.388 488.467 C 575.810 490.005, 580.524 484.957, 587.708 473.134 C 590.552 468.452, 593.612 466, 596.611 466 C 599.947 466, 599.588 464.329, 595.750 461.989 C 592.354 459.919, 587.977 459.530, 584.388 460.980" stroke="#ac7444" fill="#ac7444" fill-opacity="0.2" fill-rule="evenodd"/><path class="svg-region-DB" d="M 515.534 401.945 C 514.672 403.340, 492.384 414.724, 484.500 417.796 C 473.968 421.900, 441.494 428.425, 421 430.554 C 411.136 431.579, 404.660 431.363, 395 429.685 C 381.463 427.335, 381.485 427.332, 379.609 432.020 C 378.724 434.231, 378 436.979, 378 438.126 C 378 439.274, 376.619 441.956, 374.930 444.088 C 371.340 448.621, 370.948 452.497, 373.426 458.961 C 374.366 461.415, 375.332 466.730, 375.572 470.772 C 376.038 478.640, 376.449 479.587, 386.918 496.910 C 389.713 501.535, 392 505.864, 392 506.530 C 392 508.356, 403.209 510.196, 412.395 509.876 C 416.853 509.721, 426.800 509.720, 434.500 509.873 C 456.322 510.310, 472.396 510.314, 500 509.891 C 514.025 509.676, 526.692 509.835, 528.150 510.244 C 530.715 510.964, 530.812 510.836, 531.202 506.244 C 531.423 503.635, 531.187 500.098, 530.676 498.385 C 529.544 494.587, 532.906 483.305, 536.677 478.250 C 538.895 475.278, 539.567 475, 544.551 475 C 550.970 475, 551.364 474.019, 547.369 467.981 C 545.279 464.823, 544.859 463.254, 545.329 460.359 C 545.878 456.975, 545.564 456.377, 540.960 452.055 L 536 447.398 536 437.758 C 536 432.456, 536.424 427.856, 536.942 427.536 C 537.460 427.215, 538.178 424.994, 538.537 422.599 C 539.089 418.919, 538.781 417.626, 536.548 414.252 C 530.998 405.866, 517.865 398.174, 515.534 401.945" stroke="#e8b1e4" fill="#e8b1e4" fill-opacity="0.2" fill-rule="evenodd"/><path class="svg-region-IBl" d="M 503.756 557.358 C 499.212 562.621, 499.016 562.725, 492.669 563.234 C 489.116 563.520, 485.712 564.060, 485.104 564.435 C 483.374 565.505, 483.827 573.740, 486.097 582.500 C 487.238 586.900, 488.627 592.750, 489.185 595.500 C 490.521 602.091, 494.191 610.033, 497.556 613.616 C 499.046 615.202, 500.897 617.988, 501.669 619.806 C 502.658 622.134, 503.580 622.974, 504.787 622.648 C 505.729 622.393, 509.087 621.406, 512.249 620.455 C 517.705 618.815, 518.229 618.816, 522.572 620.475 C 525.089 621.436, 527.376 622.816, 527.655 623.542 C 528.388 625.454, 540.004 632.151, 541.897 631.754 C 542.954 631.532, 543.395 630.580, 543.192 628.959 C 543.022 627.607, 543.161 624.184, 543.501 621.353 C 544.010 617.109, 544.904 615.329, 548.605 611.200 C 551.073 608.447, 554.196 605.917, 555.546 605.578 C 559.912 604.482, 558.512 596.948, 552.665 590.073 C 547.523 584.027, 546.772 580.701, 548.423 571.292 C 549.389 565.788, 548.521 563.348, 545.312 562.542 C 543.873 562.181, 541.507 560.614, 540.055 559.059 L 537.415 556.233 528.647 557.319 C 521.956 558.148, 519.422 558.120, 517.953 557.203 C 516.894 556.541, 515.416 556, 514.669 556 C 513.921 556, 512.495 555.100, 511.500 554 C 510.505 552.900, 509.396 552, 509.036 552 C 508.676 552, 506.300 554.411, 503.756 557.358" stroke="#b10e0e" fill="#b10e0e" fill-opacity="0.2" fill-rule="evenodd"/><path class="svg-region-MB" d="M 396 510.814 C 396 511.879, 395.719 514.157, 395.375 515.876 L 394.749 519.003 398.125 517.582 C 402.320 515.817, 411.211 510.861, 410.802 510.516 C 410.636 510.375, 407.238 509.950, 403.250 509.570 C 396.509 508.927, 396 509.015, 396 510.814 M 473.250 510.229 C 463.212 510.799, 455.002 511.543, 455.004 511.883 C 455.006 512.222, 456.987 513.314, 459.406 514.309 C 464.511 516.408, 471.331 522.871, 474.096 528.230 C 475.154 530.282, 476.551 535.370, 477.198 539.538 C 479.214 552.499, 475.900 563.297, 467.411 571.430 C 460.316 578.229, 455.561 580.285, 439 583.713 C 432.979 584.959, 430.224 585.052, 425.031 584.185 C 421.473 583.591, 418.367 583.300, 418.128 583.539 C 417.383 584.284, 425.300 587.222, 429.500 587.759 C 434.725 588.427, 436 589.553, 436 593.500 C 436 598.156, 433.566 603.346, 429.960 606.380 C 428.248 607.821, 427.219 608.998, 427.673 608.996 C 428.906 608.990, 436.940 604.767, 441.504 601.727 C 443.706 600.260, 448.421 597.876, 451.982 596.429 C 457.891 594.028, 459.417 593.830, 469.478 594.160 C 479.188 594.478, 481.066 594.838, 485.250 597.190 C 490.266 600.009, 490.542 599.777, 489.045 594 C 484.778 577.534, 484.024 574.004, 484.027 570.500 C 484.032 564.634, 484.928 563.856, 492.357 563.259 C 498.814 562.741, 499.084 562.604, 504.087 557.315 C 508.216 552.949, 509.067 551.474, 508.482 549.700 C 506.780 544.537, 506.774 538.908, 508.467 537.036 C 511.506 533.679, 515.626 532.571, 520.096 533.911 C 525.109 535.413, 527.054 534.792, 529.203 531.003 C 530.140 529.351, 531.655 528, 532.570 528 C 533.868 528, 534.097 527.397, 533.612 525.250 C 533.270 523.737, 532.703 520.119, 532.351 517.208 C 531.896 513.440, 531.156 511.619, 529.785 510.885 C 527.003 509.396, 494.536 509.019, 473.250 510.229" stroke="#f9c6c6" fill="#f9c6c6" fill-opacity="0.2" fill-rule="evenodd"/><path class="svg-region-LBl" d="M 416.500 510.112 C 413.750 510.601, 407.544 512.913, 402.709 515.251 L 393.918 519.500 389.280 527.982 C 385.176 535.488, 384.592 537.336, 384.204 544.042 C 383.843 550.280, 384.124 552.315, 385.799 555.560 C 388.131 560.078, 395.439 568.959, 400.823 573.818 C 408.972 581.171, 423.243 585.746, 434.252 584.534 C 442.686 583.605, 454.910 580.209, 459.555 577.505 C 473.662 569.291, 480.281 554.271, 477.044 537.816 C 474.103 522.869, 465.307 514.437, 448.500 510.452 C 441.895 508.886, 424.442 508.701, 416.500 510.112" stroke="#79495c" fill="#79495c" fill-opacity="0.2" fill-rule="evenodd"/><path class="svg-region-DMl" d="M 453 595.729 C 450.525 596.593, 446.250 598.726, 443.500 600.468 C 428.255 610.125, 421.805 611.840, 398.273 612.492 C 389.688 612.730, 385.099 613.303, 382.869 614.415 C 381.122 615.287, 379.090 616, 378.354 616 C 377.618 616, 375.813 617.350, 374.342 619 C 372.816 620.713, 370.668 622, 369.335 622 C 365.754 622, 366.074 626.698, 369.750 628.094 C 371.262 628.668, 374.094 630.898, 376.043 633.050 C 379.727 637.119, 389.775 656.174, 392.361 664 C 394.379 670.104, 396.596 675.502, 399.616 681.658 C 401.829 686.171, 402.012 687.295, 401.078 690.658 C 400.491 692.771, 400.009 694.837, 400.006 695.250 C 399.993 696.961, 410.162 695.849, 416.565 693.439 C 420.306 692.031, 425.872 690.211, 428.934 689.395 C 450.958 683.523, 461.284 681, 463.284 681 C 464.558 681, 466.053 680.547, 466.608 679.992 C 467.162 679.438, 471.935 678.576, 477.216 678.077 C 482.497 677.577, 487.716 676.687, 488.815 676.099 C 491.734 674.537, 495.701 666.979, 500.113 654.571 C 503.560 644.880, 504 642.595, 504 634.404 C 504 623.819, 501.988 617.690, 496.722 612.229 C 494.987 610.431, 492.869 607.068, 492.016 604.757 C 490.315 600.155, 486.053 596.665, 480.118 595.016 C 474.580 593.478, 458.215 593.908, 453 595.729" stroke="#68533d" fill="#68533d" fill-opacity="0.2" fill-rule="evenodd"/><path class="svg-region-PMl" d="M 363.500 628.675 C 361.850 629.525, 358.584 632.308, 356.243 634.860 C 353.901 637.412, 351.651 639.799, 351.243 640.165 C 350.834 640.531, 347.800 643.260, 344.500 646.230 C 341.200 649.200, 336.356 653.348, 333.735 655.448 C 323.220 663.873, 311 685.030, 311 694.811 C 311 701.394, 312.400 704.312, 317.134 707.593 C 323.269 711.844, 330.632 713.123, 345 712.430 C 356.909 711.856, 371.195 709.811, 375.500 708.064 C 381.732 705.534, 391.825 700.488, 393.885 698.871 C 395.197 697.842, 397.024 697, 397.946 697 C 399.111 697, 399.998 695.534, 400.854 692.193 C 402.215 686.882, 402.146 686.566, 397.385 676.331 C 395.550 672.388, 392.840 665.638, 391.361 661.331 C 389.882 657.024, 387.646 651.862, 386.392 649.860 C 385.139 647.857, 383.182 644.239, 382.045 641.819 C 379.356 636.099, 372.184 628.307, 369 627.648 C 367.625 627.363, 365.150 627.826, 363.500 628.675" stroke="#90cf92" fill="#90cf92" fill-opacity="0.2" fill-rule="evenodd"/><path class="svg-region-Fl" d="M 307.520 547.883 C 306.556 553.586, 314.935 570.062, 323.362 579.036 C 326.738 582.631, 330.730 587.906, 332.234 590.758 C 334.273 594.626, 336.051 596.487, 339.234 598.086 C 341.580 599.264, 344.935 601.304, 346.689 602.618 C 348.442 603.933, 350.137 604.587, 350.455 604.073 C 350.773 603.559, 350.669 602.913, 350.224 602.638 C 349.778 602.363, 349.476 596.917, 349.552 590.536 C 349.684 579.386, 349.794 578.824, 352.384 576.121 C 354.834 573.564, 354.995 572.935, 354.157 569.204 C 352.844 563.359, 349.336 559.493, 343.635 557.608 C 340.960 556.724, 338.162 556, 337.419 556 C 335.584 556, 328.840 552.824, 327.040 551.111 C 324.749 548.932, 319.390 547, 315.639 547 C 313.517 547, 311.995 546.429, 311.638 545.500 C 310.515 542.573, 308.190 543.919, 307.520 547.883" stroke="#5ca7a9" fill="#5ca7a9" fill-opacity="0.2" fill-rule="evenodd"/><path class="svg-region-PCl" d="M 299.836 543.688 C 298.186 543.953, 292.931 548.092, 286.027 554.563 C 279.897 560.309, 270.521 568.654, 265.191 573.108 C 259.861 577.561, 254.791 582.469, 253.924 584.013 C 253.057 585.557, 251.669 587.873, 250.838 589.160 C 248.392 592.952, 247.743 595.912, 246.924 607 C 246.498 612.775, 245.844 619.165, 245.471 621.200 C 244.937 624.116, 245.250 625.542, 246.949 627.929 C 248.317 629.850, 249.260 632.973, 249.529 636.471 C 250.028 642.984, 252.737 648.759, 256.956 652.310 C 258.630 653.718, 260 655.262, 260 655.739 C 260 656.217, 261.610 658.158, 263.578 660.054 C 267.694 664.018, 270.208 669.248, 269.490 672.355 C 268.650 675.989, 271.367 684.191, 274.047 686.114 C 276.112 687.596, 277.371 687.729, 282 686.958 C 289.162 685.765, 299.008 687.334, 304.482 690.542 C 309.801 693.660, 310.627 693.625, 311.469 690.250 C 312.392 686.550, 318.403 673.966, 321.225 669.823 C 326.023 662.781, 330.667 657.682, 335.491 654.158 C 338.246 652.146, 341.485 649.343, 342.689 647.929 C 343.893 646.514, 346.705 644.090, 348.939 642.542 C 351.172 640.995, 353 639.322, 353 638.825 C 353 637.430, 360.172 630.583, 363.250 629.041 C 364.762 628.282, 365.998 627.176, 365.995 626.581 C 365.974 622.103, 347.913 602.510, 340.207 598.605 C 336.020 596.483, 334.425 594.921, 332.236 590.799 C 330.731 587.964, 326.717 582.624, 323.316 578.932 C 315.608 570.565, 306.907 553.423, 307.271 547.323 C 307.477 543.878, 307.253 543.488, 305 543.379 C 303.625 543.313, 301.301 543.452, 299.836 543.688" stroke="#465ee0" fill="#465ee0" fill-opacity="0.2" fill-rule="evenodd"/><path class="svg-region-Ol" d="M 719 249.536 C 718.175 249.703, 713.900 250.359, 709.500 250.994 C 705.100 251.628, 699.250 252.624, 696.500 253.206 C 690.854 254.402, 672.284 264.249, 664.043 270.416 C 661.042 272.662, 657.808 274.950, 656.857 275.501 C 652.812 277.843, 638.464 291.776, 635.843 295.908 C 629.813 305.417, 626.166 320.297, 623.934 344.500 C 623.275 351.650, 622.268 358.400, 621.698 359.500 C 620.227 362.335, 620.589 502.388, 622.089 510.500 C 623.182 516.413, 623.145 516.601, 619.523 523.468 C 617.502 527.301, 615.555 530.901, 615.196 531.468 C 614.837 532.036, 613.708 534.975, 612.685 538 C 611.663 541.025, 610.257 544.175, 609.562 545 C 606.854 548.211, 604.011 554.804, 602.445 561.500 C 601.545 565.350, 599.735 572.100, 598.424 576.500 C 597.112 580.900, 594.719 589.450, 593.106 595.500 C 587.041 618.248, 585.944 621.488, 583.624 623.500 C 582.355 624.600, 579.812 628.200, 577.972 631.500 C 576.132 634.800, 573.824 638.216, 572.843 639.091 C 571.863 639.966, 569.144 645.141, 566.802 650.591 C 563.330 658.672, 562.551 661.607, 562.581 666.500 C 562.636 675.359, 565.647 686.056, 571.729 699 C 574.701 705.325, 578.024 713.135, 579.113 716.356 C 580.202 719.576, 581.698 723.176, 582.439 724.356 C 583.894 726.673, 587.394 736.643, 588.458 741.500 C 588.820 743.150, 590.248 747.362, 591.633 750.860 C 595.155 759.753, 597.356 772.261, 596.630 779.243 C 596.262 782.778, 594.738 787.584, 592.666 791.743 C 587.567 801.980, 586.796 806.500, 587.075 824.500 C 587.212 833.300, 586.962 846.395, 586.520 853.601 C 585.740 866.321, 585.790 866.861, 588.231 872.193 C 591.418 879.155, 593.826 881.425, 602.472 885.619 C 610.793 889.654, 613.992 889.809, 629.408 886.923 C 649.720 883.121, 674.054 874.264, 681.149 868.092 C 681.892 867.446, 686.100 864.290, 690.500 861.079 C 699.328 854.637, 714.086 839.947, 718.601 833.110 C 720.196 830.695, 723.126 825.806, 725.113 822.246 C 728.976 815.324, 734.334 807.464, 740 800.407 C 741.925 798.009, 744.474 794.775, 745.664 793.219 C 746.854 791.664, 749.779 789.081, 752.164 787.479 C 754.549 785.878, 758.075 783.372, 760 781.910 C 761.925 780.449, 770.142 775.579, 778.260 771.089 C 794.257 762.241, 817.498 746.977, 828.214 738.281 C 836.882 731.246, 845.860 721.621, 849.421 715.544 C 850.970 712.902, 853.276 709.209, 854.546 707.337 C 855.816 705.465, 857.164 702.486, 857.541 700.717 C 857.918 698.948, 860.875 691.752, 864.113 684.727 C 867.351 677.702, 870 671.499, 870 670.942 C 870 670.385, 870.720 668.831, 871.600 667.487 C 872.480 666.144, 873.566 663.572, 874.014 661.773 C 874.461 659.973, 875.500 656.025, 876.323 653 C 877.145 649.975, 878.128 644.800, 878.506 641.500 C 878.885 638.200, 879.811 633.250, 880.564 630.500 C 882.774 622.434, 884.084 609.849, 884.936 588.500 C 885.850 565.587, 884.963 547.901, 882.001 530 C 880.863 523.125, 879.269 513, 878.457 507.500 C 875.147 485.054, 872.798 474.347, 867.703 458.500 C 866.289 454.100, 864.443 447.455, 863.602 443.734 C 862.354 438.216, 852.762 414.893, 848.973 408.164 C 848.457 407.249, 846.233 402.675, 844.030 398 C 841.827 393.325, 839.231 388.302, 838.262 386.838 C 831.954 377.310, 825.846 365.858, 819.880 352.371 C 812.618 335.953, 797.619 305.526, 795.543 303 C 794.865 302.175, 792.805 298.800, 790.965 295.500 C 782.642 280.570, 769.858 267.876, 752.703 257.506 C 741.796 250.913, 735.980 248.976, 727.514 249.116 C 723.656 249.180, 719.825 249.369, 719 249.536" stroke="#aa444d" fill="#aa444d" fill-opacity="0.2" fill-rule="evenodd"/><path class="svg-region-VOC" d="M 528.279 531.630 C 525.723 534.501, 524.587 535.109, 522.779 534.572 C 516.013 532.564, 513.450 532.750, 510.201 535.484 C 507.617 537.659, 507 538.922, 507 542.042 C 507 548.150, 511.324 556, 514.688 556 C 515.424 556, 516.844 556.510, 517.842 557.134 C 519.711 558.301, 533.565 557.560, 535.615 556.184 C 536.175 555.808, 537.768 553.250, 539.155 550.500 C 540.542 547.750, 542.531 544.062, 543.575 542.305 C 545.465 539.124, 545.463 539.099, 543.199 536.305 C 541.949 534.762, 540.155 532.265, 539.213 530.756 C 536.657 526.663, 532.397 527.003, 528.279 531.630" stroke="#ff8f93" fill="#ff8f93" fill-opacity="0.2" fill-rule="evenodd"/><path class="svg-region-OABl" d="M 591.077 468.589 C 589.385 470.013, 588 471.740, 588 472.428 C 588 474.213, 583.262 480.606, 577.918 486.031 C 575.398 488.590, 573.001 491.542, 572.591 492.591 C 571.602 495.129, 569 512.476, 569 516.536 C 569 522.233, 565.250 535.105, 562.844 537.666 C 560.677 539.973, 560.156 540.064, 552.803 539.422 C 545.302 538.768, 545.012 538.824, 543.980 541.123 C 543.393 542.430, 541.608 545.750, 540.014 548.500 C 538.419 551.250, 537.089 554.048, 537.057 554.717 C 536.968 556.609, 543.842 563, 545.966 563 C 548.449 563, 549.347 566.066, 548.394 571.292 C 546.867 579.664, 547.558 583.754, 551.265 588.291 C 555.857 593.911, 558 598.256, 558 601.950 C 558 604.919, 558.126 605, 562.750 605.018 C 566.302 605.032, 568.560 605.755, 571.703 607.886 C 577.196 611.609, 580.996 616.204, 581.015 619.144 C 581.024 620.440, 581.439 622.146, 581.939 622.936 C 583.329 625.132, 585.771 622.606, 587.067 617.631 C 587.658 615.359, 589.196 609.900, 590.484 605.500 C 592.966 597.022, 599.144 573.547, 600.880 566 C 603.939 552.701, 605.598 548.094, 608.011 546.201 C 609.392 545.118, 611.343 541.816, 612.346 538.865 C 614.630 532.146, 615.641 529.964, 619.902 522.558 C 623.254 516.732, 623.298 516.506, 622.160 510.998 C 621.522 507.908, 621 503.849, 621 501.977 C 621 499.556, 620.278 497.987, 618.497 496.538 C 616.756 495.121, 615.454 492.367, 614.221 487.500 C 611.799 477.931, 608.632 472.746, 602.970 469.077 C 597.181 465.326, 595.058 465.239, 591.077 468.589" stroke="#81244d" fill="#81244d" fill-opacity="0.2" fill-rule="evenodd"/><path class="svg-region-SOTl" d="M 536.677 478.250 C 533.022 483.149, 529.662 494.268, 530.635 498.246 C 531.072 500.036, 531.293 503.007, 531.125 504.848 C 530.958 506.689, 531.363 512.014, 532.026 516.681 C 533 523.544, 533.734 525.684, 535.865 527.871 C 537.314 529.359, 540.075 532.412, 542 534.656 C 545.365 538.578, 545.792 538.762, 553.056 539.435 C 563.004 540.356, 564.204 539.378, 566.953 528.113 C 568.079 523.500, 569 518.220, 569 516.381 C 569 511.738, 570.956 499.393, 572.538 494.053 C 573.745 489.979, 573.685 489.366, 571.820 486.748 C 567.556 480.759, 554.389 475, 544.962 475 C 539.514 475, 538.931 475.229, 536.677 478.250" stroke="#995b45" fill="#995b45" fill-opacity="0.2" fill-rule="evenodd"/><path class="svg-region-LBPCl" d="M 408.500 601.058 C 396.930 602.055, 393.500 603.087, 393.500 605.572 C 393.500 607.359, 394.231 607.487, 403.500 607.328 C 414.688 607.135, 421.371 605.163, 420.804 602.221 C 420.404 600.145, 419.778 600.086, 408.500 601.058" stroke="#daffff" fill="#daffff" fill-opacity="0.2" fill-rule="evenodd"/><path class="svg-region-PNl" d="M 205 637.697 C 202.525 638.543, 196 641.013, 190.500 643.187 C 181.227 646.851, 161.854 652.953, 152.500 655.155 C 146.433 656.583, 133.516 661.921, 128.633 665.018 C 126.242 666.534, 123.209 668.102, 121.893 668.503 C 117.050 669.978, 108.726 677.605, 93.123 694.863 C 85.059 703.783, 84.956 703.935, 78.992 715.693 L 74.017 725.500 74.044 742.500 C 74.073 760.924, 75.687 774.756, 78.361 779.500 C 85.730 792.573, 88.247 794.496, 98.003 794.498 C 105.215 794.500, 103.211 795.482, 131.113 778.277 C 144.449 770.054, 156.599 761.113, 166.482 752.252 C 169.772 749.302, 174.283 746.084, 176.506 745.100 C 178.729 744.117, 182.337 741.636, 184.524 739.587 C 188.466 735.893, 206.343 723.678, 215.002 718.762 C 217.478 717.356, 221.456 714.472, 223.841 712.353 C 228.500 708.213, 238.127 702.407, 247 698.387 C 250.025 697.016, 254.300 695.027, 256.500 693.965 C 263.495 690.591, 268.162 689, 271.063 689 C 274.753 689, 275.540 687.540, 273.142 685.142 C 271.099 683.099, 268.675 674.010, 269.559 671.707 C 270.785 668.512, 267.801 664.060, 255.923 651.358 C 253.591 648.864, 251.567 645.409, 250.836 642.677 L 249.622 638.138 235.061 637.612 C 227.052 637.323, 218.025 636.877, 215 636.622 C 211.517 636.329, 207.850 636.723, 205 637.697" stroke="#bbc0d1" fill="#bbc0d1" fill-opacity="0.2" fill-rule="evenodd"/><path class="svg-region-OVl" d="M 557.500 370.717 C 555.300 372.147, 549.287 377.295, 544.137 382.158 C 538.987 387.021, 534.205 391, 533.509 391 C 532.814 391, 531.687 391.672, 531.005 392.494 C 530.323 393.315, 527.279 395.410, 524.240 397.149 L 518.715 400.310 522.607 402.301 C 528.401 405.265, 534.184 410.322, 537 414.891 C 539.560 419.044, 541 420.039, 541 417.657 C 541 416.918, 543.297 414.376, 546.104 412.009 C 551.984 407.051, 554.991 402.617, 554.996 398.895 C 554.998 397.463, 556.798 392.738, 558.996 388.395 C 562.385 381.698, 562.992 379.552, 562.996 374.250 C 562.998 370.813, 562.663 368.026, 562.250 368.059 C 561.837 368.091, 559.700 369.287, 557.500 370.717 M 536.667 427.667 C 536.300 428.033, 536 432.393, 536 437.355 C 536 447.354, 537.566 451.066, 543.129 454.259 C 545.745 455.761, 545.929 456.243, 545.397 460.197 C 544.918 463.761, 545.263 465.152, 547.409 468.294 C 548.834 470.381, 550 472.639, 550 473.310 C 550 473.982, 554.034 476.237, 558.964 478.321 C 566.299 481.421, 568.303 481.908, 569.995 481.003 C 572.916 479.439, 578 472.124, 578 469.485 C 578 466.511, 581.250 462.553, 584.949 461.021 C 589.902 458.969, 593.982 460.437, 600.197 466.505 C 607.208 473.350, 608.345 473.486, 607.428 467.367 C 606.651 462.184, 600.611 441.277, 599.598 440.265 C 598.653 439.319, 593.192 445.604, 591.556 449.520 C 590.224 452.708, 585.718 456, 582.687 456 C 581.910 456, 579.660 454.762, 577.686 453.250 C 575.712 451.738, 571.288 448.925, 567.855 447 C 564.422 445.075, 557.987 440.639, 553.556 437.143 C 549.125 433.647, 544.487 430.312, 543.250 429.733 C 542.013 429.153, 541 428.301, 541 427.839 C 541 426.844, 537.624 426.709, 536.667 427.667" stroke="#593939" fill="#593939" fill-opacity="0.2" fill-rule="evenodd"/><path class="svg-region-ODMl" d="M 513.450 619.912 C 512.928 620.413, 510.528 621.204, 508.117 621.670 L 503.734 622.517 503.923 632.725 C 504.093 641.856, 503.778 643.914, 500.941 652.217 C 496.633 664.829, 491.886 674.399, 489.183 675.926 C 485.693 677.898, 509.153 676.272, 515.839 674.079 C 519.326 672.936, 523.246 672, 524.552 672 C 527.965 672, 537.097 668.224, 539.846 665.675 C 542.129 663.559, 552.515 643.132, 553.172 639.467 C 553.544 637.391, 548.181 633.252, 544.059 632.435 C 540.230 631.676, 531.370 627.094, 528.779 624.531 C 524.098 619.903, 516.002 617.463, 513.450 619.912" stroke="#999999" fill="#999999" fill-opacity="0.2" fill-rule="evenodd"/><path class="svg-region-COl" d="M 235.500 625.971 C 233.300 626.987, 228.129 628.881, 224.010 630.180 C 209.593 634.725, 215.690 638.300, 237 637.796 L 249.500 637.500 249.183 633.500 C 248.819 628.902, 244.832 623.964, 241.563 624.062 C 240.428 624.096, 237.700 624.955, 235.500 625.971" stroke="#906d99" fill="#906d99" fill-opacity="0.2" fill-rule="evenodd"/><path class="svg-region-HRl" d="M 373.560 560.011 C 369.821 563.867, 365.578 567.313, 364.131 567.669 C 358.876 568.962, 351.711 574.976, 350.035 579.500 C 349.628 580.600, 349.407 587.108, 349.544 593.962 L 349.795 606.424 353.313 609.648 C 356.955 612.985, 364.159 615.683, 372.051 616.665 C 375.496 617.094, 377.774 616.698, 381.424 615.035 C 385.393 613.227, 388.481 612.778, 398.873 612.500 C 422.283 611.872, 430.102 609.410, 434.009 601.434 C 436.007 597.354, 436.607 591.460, 435.235 589.395 C 434.831 588.786, 432.432 588.062, 429.904 587.785 C 427.375 587.507, 421.422 585.417, 416.674 583.140 C 411.925 580.863, 407.570 579, 406.995 579 C 405.575 579, 394.913 568.017, 388.308 559.750 C 385.342 556.038, 382.340 553, 381.636 553 C 380.933 553, 377.299 556.155, 373.560 560.011 M 408.500 601.058 C 396.930 602.055, 393.500 603.087, 393.500 605.572 C 393.500 607.359, 394.231 607.487, 403.500 607.328 C 414.688 607.135, 421.371 605.163, 420.804 602.221 C 420.404 600.145, 419.778 600.086, 408.500 601.058" stroke="#d9dba1" fill="#d9dba1" fill-opacity="0.2" fill-rule="evenodd"/>
    </svg>