<svg xmlns="http://www.w3.org/2000/svg" width="1078" height="1151" viewBox="0 0 1078 1151" version="1.1">
    <path class="svg-region-V" d="M 497.500 221.117 C 494.750 222.107, 490.883 222.936, 488.907 222.958 C 480.843 223.052, 469.569 228.295, 459.159 236.793 C 455.122 240.090, 450.426 243.065, 448.725 243.405 C 447.023 243.745, 444.927 244.609, 444.066 245.324 C 443.205 246.040, 440.475 247.475, 438 248.514 C 431.081 251.418, 412.138 267.014, 407.500 273.625 C 405.300 276.761, 401.556 281.760, 399.181 284.734 C 396.805 287.709, 394.211 291.984, 393.417 294.235 C 392.623 296.486, 391.588 298.816, 391.117 299.414 C 390.646 300.011, 389.694 302.300, 389.001 304.500 C 388.309 306.700, 387.157 309.625, 386.441 311 C 385.725 312.375, 383.697 316.875, 381.934 321 C 380.171 325.125, 377.851 330.489, 376.779 332.920 C 374.146 338.892, 369.127 354.351, 367.825 360.500 C 367.243 363.250, 366.298 366.081, 365.726 366.791 C 364.160 368.736, 362.174 381.146, 361.453 393.500 L 360.811 404.500 364.539 410.500 C 366.590 413.800, 369.438 418.637, 370.869 421.250 C 372.932 425.018, 374.004 426, 376.051 426 C 377.730 426, 379.685 427.189, 381.644 429.402 L 384.655 432.804 397.578 432.314 C 404.685 432.045, 414.775 431.159, 420 430.347 C 446.478 426.228, 447.369 425.991, 459.209 419.925 C 462.349 418.316, 465.431 417, 466.058 417 C 466.685 417, 468.616 416.388, 470.349 415.641 C 477.439 412.582, 479.196 412, 481.347 412 C 482.586 412, 484.036 411.564, 484.568 411.032 C 485.100 410.500, 489.286 409.644, 493.868 409.132 C 498.451 408.619, 502.695 407.705, 503.300 407.100 C 503.905 406.495, 506.083 406, 508.141 406 C 510.199 406, 512.160 405.550, 512.500 405 C 512.840 404.450, 513.949 404, 514.965 404 C 515.981 404, 520.257 401.637, 524.467 398.750 C 528.676 395.863, 534.531 391.925, 537.476 390 C 551.019 381.149, 561.501 373.141, 569.500 365.535 C 573.350 361.874, 578.525 357.700, 581 356.260 C 583.475 354.819, 587.975 351.971, 591 349.932 C 594.025 347.892, 599.095 345.434, 602.266 344.470 C 607.562 342.859, 608.195 342.347, 610.032 338.195 C 611.132 335.709, 611.782 332.887, 611.476 331.925 C 611.171 330.963, 611.891 327.548, 613.076 324.338 C 616.732 314.433, 617.278 307.058, 615.396 293 C 614.475 286.125, 613.146 279.375, 612.443 278 C 611.740 276.625, 608.316 272.133, 604.833 268.018 C 601.350 263.903, 597.375 258.905, 596 256.911 C 593.659 253.516, 583.844 244.587, 574.340 237.206 C 572.053 235.429, 568.266 233.300, 565.927 232.474 C 563.587 231.649, 561.162 230.550, 560.538 230.032 C 559.915 229.514, 555.601 227.885, 550.952 226.411 C 546.303 224.937, 542.072 223.342, 541.550 222.866 C 541.027 222.390, 539.002 221.997, 537.050 221.994 C 535.097 221.991, 531.909 221.547, 529.964 221.006 C 528.019 220.466, 521.044 219.865, 514.464 219.671 C 504.816 219.386, 501.532 219.666, 497.500 221.117 M 471.584 370.060 C 469.478 371.909, 467.281 375.306, 466.033 378.642 C 463.249 386.083, 461.243 389.825, 458.391 392.901 C 457.076 394.319, 456 395.992, 456 396.617 C 456 397.243, 455.364 398.283, 454.586 398.928 C 452.649 400.536, 449 408.499, 449 411.118 C 449 413.120, 449.337 413.213, 454.250 412.565 C 458.876 411.954, 472.654 406.001, 474 404.031 C 474.275 403.628, 476.445 402.080, 478.823 400.591 C 484.770 396.866, 487.977 389.941, 487.990 380.797 C 488.002 372.924, 486.883 369.961, 483.253 368.250 C 478.900 366.198, 475.357 366.748, 471.584 370.060" stroke="#dd8a8a" fill="#dd8a8a" fill-opacity="0.2" fill-rule="evenodd"/><path class="svg-region-SV" d="M 471.709 369.951 C 469.860 371.574, 467.533 374.836, 466.537 377.201 C 463.015 385.561, 460.848 389.561, 456.894 395 C 452.801 400.629, 450.385 405.280, 448.901 410.384 L 448.063 413.268 453.659 412.610 C 459.242 411.954, 474 405.690, 474 403.977 C 474 403.491, 475.520 402.372, 477.379 401.491 C 484.517 398.103, 488 391.194, 488 380.421 C 488 372.914, 486.841 369.941, 483.253 368.250 C 478.947 366.220, 475.355 366.749, 471.709 369.951" stroke="#c666b5" fill="#c666b5" fill-opacity="0.2" fill-rule="evenodd"/><path class="svg-region-SF" d="M 600.136 345.088 C 597.186 346.105, 593.361 347.992, 591.636 349.283 C 589.911 350.574, 585.720 353.301, 582.322 355.344 C 578.924 357.386, 573.299 361.790, 569.822 365.130 C 566.345 368.469, 560.125 373.703, 556 376.759 C 551.875 379.816, 546.839 383.595, 544.809 385.158 C 542.778 386.721, 540.847 388, 540.516 388 C 540.186 388, 539.372 388.458, 538.708 389.018 C 538.044 389.578, 535.639 391.266, 533.365 392.768 C 524.671 398.511, 521.558 405.568, 524.934 411.877 C 526.560 414.914, 534.096 418, 539.889 418 C 545.596 418, 549.023 420.270, 556.386 428.927 C 560.974 434.322, 566.057 438.941, 574.920 445.771 C 578.648 448.644, 585.263 451, 589.600 451 C 592.237 451, 593.255 450.416, 594.389 448.250 C 596.142 444.904, 601.358 439.931, 605.734 437.433 C 611.561 434.108, 613.337 427.300, 610.413 419.500 C 609.588 417.300, 608.545 410.775, 608.094 405 C 607.643 399.225, 606.717 393.150, 606.036 391.500 C 604.021 386.620, 604.209 361.510, 606.301 356.124 C 608.328 350.905, 608.603 342.942, 606.750 343.120 C 606.063 343.186, 603.086 344.072, 600.136 345.088" stroke="#8c6b55" fill="#8c6b55" fill-opacity="0.2" fill-rule="evenodd"/><path class="svg-region-AAB" d="M 577.715 572.700 C 575.552 575.582, 574.978 577.357, 575.148 580.633 C 575.419 585.869, 574.786 586.644, 563.351 595.102 C 550.883 604.321, 550.379 604.955, 549.653 612.296 C 547.668 632.384, 547.669 631.382, 549.635 633.696 C 551.374 635.744, 552.093 635.853, 560.263 635.305 C 568.449 634.755, 569.454 634.435, 575.532 630.443 C 579.111 628.092, 583.878 625.859, 586.125 625.479 C 589.856 624.849, 591.284 623.884, 594.651 619.719 C 595.285 618.936, 597.419 614.797, 599.395 610.521 L 602.987 602.747 602.002 591.624 C 601.460 585.506, 601.013 579.767, 601.009 578.872 C 600.994 576.140, 591.141 570.231, 585.500 569.572 C 580.635 569.004, 580.425 569.088, 577.715 572.700" stroke="#7f3c1a" fill="#7f3c1a" fill-opacity="0.2" fill-rule="evenodd"/><path class="svg-region-APB" d="M 588.500 466.420 C 586.850 467.158, 583.138 470.282, 580.250 473.362 C 575.282 478.661, 575.001 479.245, 575.014 484.231 C 575.037 493.098, 577.001 497.115, 578.464 491.286 C 579.346 487.772, 584.951 476.148, 586.108 475.433 C 586.599 475.130, 587 473.993, 587 472.907 C 587 471.711, 588.378 470.119, 590.499 468.868 C 592.423 467.733, 593.746 466.398, 593.439 465.902 C 592.719 464.737, 592.124 464.799, 588.500 466.420" stroke="#ac7444" fill="#ac7444" fill-opacity="0.2" fill-rule="evenodd"/><path class="svg-region-PC" d="M 537.214 603.786 C 530.820 610.180, 527.792 616.839, 530.044 619.553 C 530.741 620.393, 531.672 623.361, 532.113 626.148 C 532.930 631.322, 534.578 633.385, 538.746 634.458 C 539.981 634.776, 542.810 637.008, 545.031 639.418 L 549.071 643.801 555.035 639.818 C 558.316 637.627, 561 635.586, 561 635.281 C 561 634.977, 558.967 635.007, 556.483 635.347 C 552.786 635.854, 551.607 635.607, 549.983 633.983 C 548.892 632.892, 548 630.786, 548 629.302 C 548 625.249, 550.017 609.875, 550.948 606.832 C 552.086 603.113, 550.555 602, 544.300 602 C 540.546 602, 538.479 602.521, 537.214 603.786" stroke="#cda789" fill="#cda789" fill-opacity="0.2" fill-rule="evenodd"/><path class="svg-region-DB" d="M 523.929 398.976 C 521.964 400.015, 519.772 401.570, 519.056 402.432 C 518.341 403.294, 516.712 404, 515.437 404 C 514.161 404, 512.840 404.450, 512.500 405 C 512.160 405.550, 510.311 406, 508.391 406 C 506.471 406, 503.686 406.612, 502.200 407.361 C 500.715 408.109, 496.411 408.997, 492.635 409.334 C 488.859 409.671, 485.259 410.346, 484.635 410.834 C 484.011 411.323, 481.799 411.984, 479.719 412.303 C 477.640 412.623, 474.533 413.585, 472.816 414.442 C 471.098 415.299, 469.159 416, 468.506 416 C 467.853 416, 464.660 417.288, 461.410 418.862 C 446.259 426.198, 446.753 426.060, 420 430.432 C 415.325 431.196, 405.088 431.974, 397.251 432.161 C 388.674 432.365, 382.989 432.898, 382.970 433.500 C 382.952 434.050, 381.831 436.750, 380.478 439.500 C 379.125 442.250, 378.014 445.227, 378.009 446.115 C 378.004 447.003, 377.100 448.874, 376 450.273 C 373.824 453.039, 373.425 455.526, 375 456.500 C 375.550 456.840, 376 459.090, 376 461.500 C 376 463.910, 376.384 466.119, 376.852 466.409 C 377.321 466.699, 377.984 469.930, 378.326 473.591 C 378.669 477.263, 379.790 481.674, 380.826 483.430 C 381.860 485.182, 383.029 488.342, 383.425 490.453 C 383.821 492.565, 384.745 495.239, 385.478 496.396 C 386.212 497.553, 387.380 501.200, 388.075 504.500 C 388.771 507.800, 389.438 510.638, 389.559 510.806 C 389.680 510.975, 391.967 510.410, 394.640 509.551 C 397.313 508.692, 402.425 507.519, 406 506.945 C 409.575 506.370, 413.903 505.656, 415.618 505.356 C 417.468 505.033, 419.930 505.429, 421.671 506.330 C 426.123 508.632, 481.616 509.432, 495.500 507.395 C 501 506.588, 506.400 505.700, 507.500 505.422 C 509.882 504.821, 538.359 495.716, 538.819 495.408 C 538.995 495.291, 538.268 493.238, 537.204 490.847 C 536.140 488.456, 534.486 484.250, 533.529 481.500 C 532.572 478.750, 531.349 475.561, 530.813 474.413 C 530.103 472.896, 530.308 471.258, 531.564 468.413 C 532.514 466.261, 533.610 462.250, 533.999 459.500 C 534.750 454.199, 536.651 446.237, 538.209 441.865 C 538.725 440.415, 541.604 435.465, 544.605 430.865 L 550.063 422.500 547.476 420.250 C 545.662 418.673, 543.613 418, 540.622 418 C 534.560 418, 527.445 415.328, 525.466 412.308 C 523.053 408.625, 523.204 403.568, 525.832 400.013 C 527.057 398.356, 527.934 397.020, 527.780 397.044 C 527.626 397.069, 525.893 397.938, 523.929 398.976" stroke="#e8b1e4" fill="#e8b1e4" fill-opacity="0.2" fill-rule="evenodd"/><path class="svg-region-IBl" d="M 548.500 549 C 547.400 549.473, 544.587 549.891, 542.250 549.930 C 538.461 549.992, 538 550.258, 538 552.378 C 538 555.811, 535.345 561.654, 533.455 562.379 C 531.027 563.311, 526.196 563.126, 525.548 562.077 C 525.234 561.569, 523.740 560.882, 522.229 560.550 C 520.717 560.218, 518.652 558.721, 517.640 557.223 C 516.628 555.725, 514.674 553.656, 513.296 552.625 C 510.800 550.756, 510.763 550.763, 502.146 554.866 C 490.337 560.487, 487.310 563.130, 486.703 568.346 C 486.438 570.631, 485.201 575.200, 483.955 578.500 L 481.689 584.500 484.010 592 C 486.152 598.923, 486.928 600.077, 494.083 607 C 502.372 615.019, 504 617.388, 504 621.434 C 504 623.744, 504.384 624, 507.843 624 C 509.957 624, 514.345 624.915, 517.593 626.034 C 520.842 627.152, 525.604 628.693, 528.175 629.458 L 532.850 630.848 532.350 627.174 C 532.076 625.153, 531.169 621.874, 530.335 619.887 C 528.927 616.529, 528.963 616, 530.851 612.387 C 531.968 610.249, 534.282 607.038, 535.992 605.250 C 538.602 602.522, 539.827 602, 543.616 602 C 546.100 602, 548.920 602.422, 549.884 602.938 C 551.273 603.681, 553.854 602.221, 562.314 595.909 C 573.533 587.538, 576.457 584.353, 575.415 581.639 C 574.465 579.162, 575.691 575.520, 578.667 571.984 L 581.335 568.813 578.053 566.244 C 576.140 564.747, 573.617 561.103, 572.004 557.508 C 569.839 552.683, 568.470 550.976, 565.717 549.670 C 561.967 547.891, 551.986 547.502, 548.500 549" stroke="#b10e0e" fill="#b10e0e" fill-opacity="0.2" fill-rule="evenodd"/><path class="svg-region-MB" d="M 523.213 500.460 C 512.003 504.322, 507.922 505.279, 491 508.017 C 482.070 509.461, 425.198 508.154, 421.859 506.427 C 418.704 504.795, 414.146 504.583, 410.797 505.911 C 409.534 506.412, 405.340 507.335, 401.478 507.961 C 397.616 508.588, 393.947 509.415, 393.326 509.800 C 392.499 510.312, 392.463 513.058, 393.189 520 C 394.261 530.246, 395.395 533.032, 396.481 528.089 C 398.176 520.370, 402.268 515.957, 411.334 512.071 C 418.249 509.107, 428.229 509.242, 435.362 512.396 C 438.342 513.714, 442.257 515.117, 444.062 515.514 C 447.964 516.371, 460.975 528.447, 464.568 534.546 C 466.884 538.478, 471.127 553.214, 472.383 561.690 C 473.534 569.450, 469.738 580.802, 464.521 585.205 C 463.409 586.143, 460.172 587.943, 457.326 589.205 L 452.152 591.500 452.326 596.748 C 452.422 599.635, 452.627 601.997, 452.782 601.998 C 452.937 601.999, 454.718 601.309, 456.740 600.464 C 459.273 599.406, 464.390 598.862, 473.206 598.714 C 480.240 598.596, 485.997 598.172, 485.998 597.771 C 485.999 597.370, 485.033 594.097, 483.851 590.497 L 481.703 583.952 484.351 577.201 C 485.808 573.488, 487 569.203, 487 567.677 C 487 563.854, 490.628 560.828, 502.058 555.119 L 511.616 550.345 510.466 545.238 C 509.834 542.429, 508.637 539.089, 507.808 537.816 C 506.978 536.542, 505.706 533.171, 504.980 530.325 C 503.848 525.887, 503.879 524.464, 505.198 520.325 L 506.736 515.500 523.118 514.738 C 532.128 514.319, 540.063 513.771, 540.750 513.520 C 543.684 512.447, 540.181 495.888, 537.067 496.113 C 536.205 496.176, 529.971 498.132, 523.213 500.460" stroke="#f9c6c6" fill="#f9c6c6" fill-opacity="0.2" fill-rule="evenodd"/><path class="svg-region-LBl" d="M 408.881 512.998 C 399.305 517.943, 398.141 520.081, 393 542.172 C 390.338 553.611, 390.756 558.647, 394.912 565.201 C 398.856 571.419, 411.399 582.073, 418.885 585.562 C 420.747 586.430, 423.594 588.119, 425.212 589.315 C 427.742 591.185, 429.760 591.542, 439.584 591.853 C 450.892 592.212, 451.089 592.180, 458.334 588.739 C 464.459 585.831, 466.097 584.511, 468.346 580.672 C 471.965 574.498, 473.262 567.211, 472.007 560.114 C 468.390 539.659, 466.573 535.547, 456.619 525.286 C 450.358 518.833, 447.491 516.622, 444.008 515.564 C 441.529 514.811, 437.475 513.261, 435 512.119 C 431.611 510.556, 428.526 510.050, 422.500 510.070 C 415.659 510.092, 413.686 510.517, 408.881 512.998" stroke="#79495c" fill="#79495c" fill-opacity="0.2" fill-rule="evenodd"/><path class="svg-region-DMl" d="M 465.500 598.988 C 457.030 599.792, 450.882 602.018, 446.496 605.870 C 444.596 607.537, 440.962 609.279, 437.858 610.008 C 434.911 610.701, 431.305 611.872, 429.845 612.611 C 424.328 615.400, 409.166 618, 398.261 618.026 C 389.566 618.047, 386.080 618.523, 380.103 620.504 C 372.654 622.973, 368.593 625.532, 369.583 627.134 C 369.877 627.610, 370.922 628, 371.906 628 C 372.889 628, 375.261 629.462, 377.178 631.250 C 379.094 633.038, 382.723 636.379, 385.242 638.675 C 388.051 641.237, 391.452 645.986, 394.041 650.963 C 396.363 655.424, 400.115 661.196, 402.381 663.787 C 404.646 666.379, 408.736 671.875, 411.469 676 C 414.202 680.125, 417.669 685.075, 419.173 687 C 420.678 688.925, 422.850 692.638, 424.001 695.250 C 425.152 697.862, 426.635 699.993, 427.297 699.985 C 429.155 699.962, 435.607 697.567, 437.134 696.334 C 437.885 695.727, 440.525 694.748, 443 694.158 C 445.475 693.568, 452.225 691.473, 458 689.502 C 463.775 687.532, 470.940 685.450, 473.922 684.877 C 481.667 683.389, 491.536 678.461, 494.164 674.769 C 495.981 672.218, 496.490 669.760, 497.003 661.080 C 497.576 651.365, 499.536 641.044, 502.239 633.500 C 503.907 628.845, 504.317 620.179, 503.017 617.042 C 501.330 612.967, 487.540 600.015, 483.724 598.921 C 480.271 597.931, 476.489 597.945, 465.500 598.988" stroke="#68533d" fill="#68533d" fill-opacity="0.2" fill-rule="evenodd"/><path class="svg-region-PMl" d="M 364 629.649 C 359.867 631.611, 355.268 635.579, 345.500 645.611 C 338.350 652.954, 330.959 660.089, 329.075 661.467 C 325.534 664.056, 317.517 672.978, 310.440 682.206 C 305.601 688.515, 301.399 700.912, 302.274 706.300 C 302.585 708.220, 304.482 712.262, 306.488 715.284 C 311.543 722.898, 314.216 723.579, 337.677 723.230 C 350.694 723.036, 356.830 722.551, 359.293 721.522 C 361.185 720.731, 366.056 719.355, 370.117 718.464 C 374.178 717.573, 380.650 715.704, 384.500 714.310 C 388.350 712.917, 393.750 711.191, 396.500 710.475 C 399.250 709.758, 405.325 707.957, 410 706.472 C 414.675 704.986, 420.188 703.279, 422.250 702.679 C 424.313 702.078, 426 700.987, 426 700.254 C 426 698.348, 422.269 691.183, 418.838 686.500 C 409.798 674.159, 408 671.568, 408 670.878 C 408 670.459, 405.815 667.620, 403.145 664.569 C 400.475 661.518, 396.140 654.971, 393.511 650.021 C 390.117 643.630, 387.394 639.938, 384.116 637.283 C 381.577 635.227, 379.050 633.075, 378.500 632.499 C 373.320 627.078, 370.558 626.535, 364 629.649" stroke="#90cf92" fill="#90cf92" fill-opacity="0.2" fill-rule="evenodd"/><path class="svg-region-Fl" d="M 287.319 535.372 C 283.920 535.992, 280.807 536.837, 280.403 537.250 C 279.998 537.663, 278.729 538.018, 277.583 538.041 C 276.438 538.063, 273.025 539.998, 270 542.341 C 264.600 546.525, 264.495 546.704, 264.202 552.250 C 263.915 557.678, 264.024 557.961, 267.006 559.503 C 268.713 560.386, 273.270 564.009, 277.133 567.554 L 284.158 574 293.514 574 C 298.660 574, 303.973 574.419, 305.321 574.932 C 306.669 575.445, 309.061 577.794, 310.636 580.154 C 314.144 585.409, 325.077 596.237, 330.500 599.828 C 336.474 603.784, 339.657 604.959, 347.359 606.051 C 351.201 606.596, 354.937 607.533, 355.661 608.134 C 358.147 610.197, 358.367 606.008, 356.133 599.144 C 354.944 595.490, 353.978 590.614, 353.986 588.309 C 353.993 586.004, 353.550 583.840, 353 583.500 C 351.709 582.702, 351.694 571.706, 352.982 570.418 C 354.240 569.160, 350.340 561.046, 348.102 560.263 C 346.053 559.545, 342 555.914, 342 554.796 C 342 554.041, 336.573 547.211, 328.058 537.250 L 325.280 534 309.390 534.122 C 300.650 534.189, 290.719 534.752, 287.319 535.372" stroke="#5ca7a9" fill="#5ca7a9" fill-opacity="0.2" fill-rule="evenodd"/><path class="svg-region-PCl" d="M 249.119 559.470 C 247.569 562.767, 247 565.930, 246.999 571.239 C 246.998 575.233, 246.323 582.325, 245.500 587 C 244.677 591.675, 244.002 598.451, 244.001 602.059 C 244 606.276, 243.476 609.311, 242.532 610.559 C 239.832 614.128, 240.665 617.811, 245.250 622.570 C 252.324 629.915, 258 638.682, 258 642.264 C 258 643.003, 260.676 645.608, 263.946 648.054 C 269.102 651.909, 270.565 653.812, 274.946 662.365 C 277.726 667.790, 280 673.092, 280 674.147 C 280 675.201, 280.626 677.563, 281.391 679.395 C 282.659 682.428, 282.538 683.560, 280.033 692.112 C 278.521 697.276, 276.235 703.628, 274.953 706.228 C 273.672 708.828, 272.830 711.164, 273.084 711.417 C 273.679 712.012, 286.978 714.896, 293.685 715.884 C 296.537 716.304, 299.462 717.114, 300.185 717.685 C 300.908 718.255, 303.175 718.770, 305.221 718.829 L 308.943 718.937 305.976 714.115 C 304.344 711.463, 302.727 707.883, 302.382 706.161 C 301.401 701.253, 306.234 687.421, 311.016 681.452 C 318.631 671.945, 322.525 667.523, 325.919 664.522 C 327.799 662.860, 335.899 654.975, 343.919 647 C 353.032 637.938, 360.330 631.562, 363.381 630 C 366.065 628.625, 369.453 626.327, 370.911 624.893 L 373.560 622.286 368.780 620.094 C 365.835 618.743, 363.425 616.788, 362.501 615.002 C 359.822 609.821, 354.829 606.917, 346.884 605.919 C 336.497 604.615, 330.214 600.834, 317.076 587.979 C 315.659 586.593, 313.039 583.320, 311.254 580.706 C 307.222 574.802, 304.657 573.781, 294.235 573.933 C 289.590 574.001, 284.990 573.539, 283.735 572.878 C 282.506 572.232, 278.760 569.153, 275.411 566.036 C 268.061 559.197, 263.180 556.531, 256.369 555.636 L 251.238 554.963 249.119 559.470" stroke="#465ee0" fill="#465ee0" fill-opacity="0.2" fill-rule="evenodd"/><path class="svg-region-Ol" d="M 699.387 252.958 C 691.504 254.176, 684.279 256.833, 675.167 261.867 C 667.279 266.224, 664.415 268.808, 655.375 279.726 C 648.337 288.226, 638.506 311.779, 632.304 335 L 629.500 345.500 629.610 377.500 C 629.672 395.702, 630.236 413.596, 630.918 419 C 632.816 434.035, 633.776 493.881, 632.667 528 C 632.020 547.916, 631.061 552.501, 625.139 564 C 623.581 567.025, 621.708 571.075, 620.976 573 C 618.448 579.648, 606.672 599.273, 604.938 599.727 C 603.981 599.977, 602.965 601.153, 602.680 602.341 C 600.454 611.602, 595.173 621.218, 586.117 632.494 C 579.470 640.771, 577.429 643.764, 573.739 650.655 C 570.522 656.663, 566.297 669.125, 565.405 675.240 C 565.064 677.583, 564.083 681.975, 563.226 685 C 562.103 688.967, 561.667 695.099, 561.662 707 C 561.655 724.590, 561.382 723.032, 568.944 748.500 C 573.377 763.431, 575.631 793.560, 573.021 803 C 572.489 804.925, 571.440 811, 570.690 816.500 C 568.986 828.991, 569.852 839.899, 573.346 849.944 C 575.544 856.266, 576.938 858.395, 582.641 864.142 C 586.330 867.860, 590.621 871.429, 592.175 872.072 C 593.729 872.716, 595 873.596, 595 874.027 C 595 875.827, 605.362 878.213, 617.771 879.270 C 636.301 880.848, 642.990 879.591, 657.039 871.892 C 658.436 871.126, 663.419 867.500, 668.112 863.834 C 680.825 853.903, 693.406 839.990, 707.295 820.500 C 731.723 786.222, 744.957 774.065, 778.500 755.087 C 785.650 751.041, 795.100 745.388, 799.500 742.523 C 803.900 739.658, 812.280 734.976, 818.122 732.118 C 846.145 718.409, 863.307 701.564, 868.673 682.500 C 876.221 655.684, 876.899 590.173, 870.084 546 C 868.430 535.275, 866.403 521.100, 865.580 514.500 C 864.197 503.409, 862.523 494.734, 858.539 478 C 857.687 474.425, 856.514 469.025, 855.932 466 C 853.790 454.872, 851.964 449.344, 844.203 430.500 C 841.485 423.900, 837.803 414.675, 836.022 410 C 832.345 400.349, 816.308 362.281, 814.959 360 C 812.387 355.653, 805.878 343.041, 798.444 328 C 795.862 322.775, 793.185 317.825, 792.495 317 C 791.805 316.175, 790.442 313.925, 789.466 312 C 786.685 306.519, 773.436 290.249, 765.086 282.064 C 754.316 271.505, 744.105 264.292, 731.465 258.314 C 721.814 253.749, 719.541 253.070, 712.500 252.648 C 708.100 252.384, 702.199 252.524, 699.387 252.958" stroke="#aa444d" fill="#aa444d" fill-opacity="0.2" fill-rule="evenodd"/><path class="svg-region-VOC" d="M 517.750 514.747 C 507.634 515.019, 506 515.292, 506 516.711 C 506 517.617, 505.463 519.844, 504.806 521.660 C 503.478 525.333, 504.986 533.483, 507.790 537.788 C 508.610 539.047, 509.858 542.561, 510.563 545.596 C 513.078 556.412, 525.422 565.462, 533.455 562.379 C 535.290 561.675, 538 555.844, 538 552.600 C 538 551.415, 538.593 549.557, 539.318 548.473 C 541.822 544.724, 544.208 536.876, 543.660 534.192 C 543.358 532.711, 542.312 527.563, 541.336 522.750 L 539.561 514 534.530 514.215 C 531.764 514.333, 524.212 514.573, 517.750 514.747" stroke="#ff8f93" fill="#ff8f93" fill-opacity="0.2" fill-rule="evenodd"/><path class="svg-region-OABl" d="M 605.500 455.954 C 604.400 456.409, 602.375 458.003, 601 459.497 C 599.625 460.990, 597.487 462.603, 596.250 463.081 C 595.013 463.559, 594 464.660, 594 465.526 C 594 466.393, 592.425 467.760, 590.500 468.564 C 587.302 469.901, 586.491 470.985, 586.917 473.355 C 587.001 473.826, 586.651 474.726, 586.140 475.355 C 583.890 478.122, 580.149 486.015, 578.249 492 C 574.684 503.232, 570.045 524.455, 570.649 526.767 C 570.985 528.050, 570.339 530.876, 569.114 533.480 C 565.941 540.231, 566.361 545.343, 570.892 555.110 C 573.032 559.725, 575.856 564.496, 577.167 565.713 C 578.478 566.930, 582.413 568.660, 585.912 569.556 C 589.411 570.452, 594.125 572.523, 596.387 574.156 C 600.858 577.386, 601.705 580.113, 601.928 592 C 602.043 598.157, 603.084 600.565, 605.269 599.727 C 606.829 599.129, 618.718 578.913, 620.989 573 C 621.728 571.075, 623.786 566.575, 625.563 563 C 631.208 551.644, 633.658 541.832, 631.950 537.424 C 629.692 531.597, 627.031 519.254, 625.569 507.831 C 624.748 501.413, 622.990 491.738, 621.662 486.331 C 620.335 480.924, 618.657 472.477, 617.934 467.559 C 617.062 461.633, 616.008 458.008, 614.809 456.809 C 612.916 454.916, 608.901 454.547, 605.500 455.954" stroke="#81244d" fill="#81244d" fill-opacity="0.2" fill-rule="evenodd"/><path class="svg-region-SOTl" d="M 536.557 448.250 C 536.347 448.938, 535.687 451.030, 535.088 452.899 C 534.490 454.769, 534 457.824, 534 459.689 C 534 461.554, 533.100 464.844, 532 467 C 529.964 470.991, 529.359 475, 530.793 475 C 531.229 475, 532.128 477.028, 532.790 479.506 C 533.453 481.985, 534.928 485.997, 536.069 488.422 C 537.982 492.494, 540.348 500.445, 541.698 507.348 C 542.005 508.914, 541.711 511.847, 541.045 513.865 C 540.016 516.981, 540.148 518.796, 541.917 525.905 C 544.533 536.417, 544.525 536.755, 541.500 543.596 C 540.125 546.705, 539 549.463, 539 549.725 C 539 549.987, 541.138 549.929, 543.750 549.596 C 557.647 547.825, 561.862 547.785, 565.082 549.391 C 569.157 551.424, 569.289 551.409, 568.035 549.066 C 566.361 545.938, 566.842 539.239, 569.119 533.945 C 570.285 531.236, 570.994 528.083, 570.695 526.940 C 570.396 525.796, 571.470 519.605, 573.082 513.180 C 576.284 500.424, 576.626 496.542, 575.348 487.512 C 574.545 481.842, 574.257 481.364, 569.915 478.512 C 562.710 473.778, 559.940 470.158, 555.441 459.597 C 551.884 451.248, 546.953 447, 540.819 447 C 538.583 447, 536.776 447.530, 536.557 448.250" stroke="#995b45" fill="#995b45" fill-opacity="0.2" fill-rule="evenodd"/><path class="svg-region-LBPCl" d="M 388 608.982 C 386.625 609.432, 382.324 609.845, 378.441 609.900 C 369.690 610.024, 367.421 611.348, 368.972 615.426 L 370.061 618.292 378.089 617.673 C 384.605 617.170, 386.907 616.523, 390.309 614.239 C 392.614 612.690, 394.500 610.766, 394.500 609.962 C 394.500 608.257, 391.565 607.815, 388 608.982" stroke="#daffff" fill="#daffff" fill-opacity="0.2" fill-rule="evenodd"/><path class="svg-region-PNl" d="M 236.053 619.835 C 233.279 622.473, 229.922 624.466, 226.623 625.431 C 223.805 626.256, 219.025 628.496, 216 630.410 C 212.975 632.323, 207.194 635.996, 203.153 638.572 C 199.112 641.147, 194.387 643.587, 192.653 643.993 C 179.974 646.962, 144.446 661.852, 142.490 665.016 C 142.146 665.573, 139.982 666.972, 137.682 668.125 C 135.382 669.279, 128.325 674.103, 122 678.845 C 115.675 683.588, 109.288 688.151, 107.806 688.984 C 101.465 692.551, 85 710.968, 85 714.492 C 85 714.816, 83.995 716.441, 82.766 718.103 C 80.577 721.064, 80.532 721.699, 80.522 749.812 C 80.513 778.400, 80.521 778.517, 83.006 783.499 C 86.539 790.579, 90.591 793.001, 98.898 792.996 C 103.888 792.993, 106.355 792.469, 109 790.849 C 110.925 789.670, 114.075 787.826, 116 786.751 C 117.925 785.676, 121.300 783.479, 123.500 781.868 C 131.257 776.187, 135.150 773.985, 147.265 768.424 C 153.994 765.335, 163.061 761.164, 167.414 759.154 C 171.767 757.144, 178.742 753.533, 182.914 751.130 C 187.086 748.726, 197.025 743.372, 205 739.232 C 212.975 735.093, 221.099 730.697, 223.053 729.464 C 225.008 728.232, 229.733 725.584, 233.553 723.581 C 237.374 721.578, 242.915 718.552, 245.868 716.857 C 251.019 713.899, 261.563 711, 267.168 711 C 271.590 711, 272.978 709.978, 275.612 704.779 C 278.067 699.935, 282.283 686.003, 282.203 683 C 282.110 679.506, 278.015 667.947, 274.351 660.839 C 271.349 655.016, 269.015 652.048, 264.617 648.465 C 259.441 644.250, 258.594 643.879, 256.586 644.954 C 254.761 645.931, 252.671 645.759, 245.420 644.037 C 240.514 642.871, 233.879 641.644, 230.675 641.309 C 227.226 640.948, 223.963 639.948, 222.675 638.858 L 220.500 637.017 224 634.035 C 225.925 632.396, 228.063 631.042, 228.750 631.027 C 229.438 631.012, 230 630.585, 230 630.078 C 230 629.025, 241.627 623, 243.660 623 C 245.519 623, 245.343 621.069, 243.416 620.330 C 242.545 619.995, 241.501 618.826, 241.096 617.730 C 240.416 615.893, 240.025 616.057, 236.053 619.835" stroke="#bbc0d1" fill="#bbc0d1" fill-opacity="0.2" fill-rule="evenodd"/><path class="svg-region-OVl" d="M 545.365 429.657 C 535.628 444.662, 535.010 447, 540.777 447 C 547.224 447, 550.238 449.825, 555.950 461.219 C 561.300 471.892, 563.249 474.366, 569.173 478.011 C 574.011 480.988, 574.382 481.068, 575.341 479.339 C 577.520 475.411, 588.170 465.916, 591.040 465.342 C 594.566 464.637, 594.782 462.929, 592 457.739 C 590.900 455.686, 590 453.331, 590 452.504 C 590 451.677, 589.212 451, 588.250 450.999 C 580.822 450.996, 565.314 439.828, 554.449 426.657 L 550.454 421.814 545.365 429.657" stroke="#593939" fill="#593939" fill-opacity="0.2" fill-rule="evenodd"/><path class="svg-region-ODMl" d="M 503.193 628.750 C 502.500 631.362, 501.538 635.525, 501.057 638 C 500.576 640.475, 499.472 644.525, 498.605 647 C 497.709 649.558, 497.023 654.791, 497.015 659.125 C 496.995 669.377, 496.240 672.532, 492.967 676.036 L 490.198 679 492.849 678.958 C 504.852 678.768, 537.142 676.004, 539.088 675 C 542.755 673.108, 545.318 669.785, 549.404 661.626 C 552.535 655.375, 553.015 653.595, 552.421 650.433 C 551.448 645.246, 543.085 636.273, 536 632.816 C 528.496 629.154, 512.052 624, 507.874 624 C 504.639 624, 504.387 624.255, 503.193 628.750" stroke="#999999" fill="#999999" fill-opacity="0.2" fill-rule="evenodd"/><path class="svg-region-COl" d="M 236.500 625.569 C 233.750 626.923, 231 628.700, 230.390 629.516 C 229.779 630.332, 228.879 631.012, 228.390 631.027 C 227.900 631.042, 225.925 632.367, 224 633.972 C 220.707 636.717, 220.600 636.990, 222.193 638.602 C 223.183 639.603, 226.509 640.663, 230.193 641.152 C 233.662 641.612, 240.631 642.972, 245.681 644.174 C 253.294 645.987, 255.129 646.138, 256.431 645.058 C 257.294 644.341, 258 643.091, 258 642.279 C 258 639.959, 254.903 633.836, 251.789 630 C 245.174 621.851, 244.464 621.645, 236.500 625.569" stroke="#906d99" fill="#906d99" fill-opacity="0.2" fill-rule="evenodd"/><path class="svg-region-HRl" d="M 386.684 563.449 C 384.585 564.197, 382.103 565.502, 381.169 566.347 C 379.169 568.157, 372.065 569.941, 366.718 569.976 C 362.185 570.005, 356.948 572.052, 354.088 574.912 C 351.917 577.083, 351.242 582.413, 353 583.500 C 353.550 583.840, 354 586.245, 354 588.844 C 354 591.443, 354.920 596.188, 356.045 599.388 C 357.170 602.589, 357.975 605.948, 357.834 606.854 C 357.693 607.759, 359.269 610.833, 361.336 613.685 C 364.095 617.492, 366.291 619.327, 369.591 620.588 C 373.857 622.217, 374.378 622.214, 379.793 620.525 C 383.404 619.398, 391.009 618.451, 400.500 617.947 C 415.971 617.125, 420.272 616.273, 435.316 611.049 C 444.241 607.950, 451.471 603.243, 452.555 599.826 C 452.882 598.797, 452.865 596.662, 452.518 595.081 L 451.887 592.207 440.193 591.854 C 427.363 591.466, 429.832 592.373, 413.500 582.051 C 407.871 578.493, 397.911 569.173, 394.435 564.210 C 392.652 561.665, 391.894 561.590, 386.684 563.449 M 388 609 C 386.625 609.440, 382.717 609.845, 379.315 609.900 C 370.828 610.037, 367.654 611.322, 368.568 614.251 C 368.954 615.488, 369.771 616.862, 370.385 617.304 C 372.236 618.639, 384.872 617.106, 388.882 615.060 C 397.241 610.796, 396.580 606.252, 388 609" stroke="#d9dba1" fill="#d9dba1" fill-opacity="0.2" fill-rule="evenodd"/>
    </svg>