<svg xmlns="http://www.w3.org/2000/svg" width="1078" height="1151" viewBox="0 0 1078 1151" version="1.1">
    <path class="svg-region-V" d="M 488 220.957 C 486.625 221.437, 480.349 223.452, 474.053 225.435 C 467.758 227.418, 460.750 230.129, 458.481 231.458 C 456.212 232.788, 453.036 233.839, 451.424 233.793 C 446.677 233.658, 429.918 244.700, 418.478 255.500 C 417.313 256.600, 413.803 259.672, 410.679 262.328 C 407.555 264.983, 404.726 268.245, 404.391 269.578 C 404.057 270.910, 403.454 272, 403.052 272 C 402.650 272, 401.856 273.021, 401.288 274.268 C 400.719 275.516, 397.315 280.389, 393.722 285.097 C 388.343 292.147, 379 308.134, 379 310.289 C 379 310.596, 375.127 318.869, 370.394 328.673 C 358.062 354.219, 357.848 354.820, 354.028 374.500 C 353.601 376.700, 352.520 381.182, 351.626 384.460 C 349.678 391.599, 349.633 393.858, 351.218 404.819 C 352.259 412.019, 352.769 413.393, 354.736 414.289 C 357.324 415.468, 362.521 423.378, 364.318 428.872 C 365.158 431.440, 366.925 433.449, 370.366 435.750 C 375.188 438.975, 375.322 439, 387.458 439 C 398.292 439, 399.891 438.778, 401.445 437.061 C 402.410 435.994, 407.096 432.854, 411.859 430.082 C 422.655 423.799, 428.959 416.846, 436.020 403.438 C 438.898 397.972, 442.771 391.203, 444.627 388.396 C 446.482 385.590, 448 382.972, 448 382.580 C 448 382.188, 449.152 380.357, 450.559 378.512 C 451.966 376.666, 453.538 373.659, 454.052 371.828 C 455.529 366.566, 462.166 359.566, 467.073 358.096 C 469.398 357.400, 473 355.705, 475.079 354.329 C 479.994 351.076, 486.154 350.216, 489.383 352.331 C 494.635 355.773, 501.999 372.329, 501.999 380.700 C 502 383.897, 502.502 386.209, 503.303 386.700 C 504.020 387.140, 505.407 389.638, 506.386 392.252 C 507.366 394.865, 509.129 397.678, 510.306 398.502 C 512.641 400.137, 519.546 400.544, 520.439 399.098 C 520.746 398.603, 523.662 397.887, 526.920 397.509 C 531.718 396.952, 534.269 395.876, 540.351 391.843 C 544.481 389.104, 548.600 385.733, 549.506 384.351 C 551.803 380.845, 566.779 366.176, 572.094 362.225 C 574.517 360.424, 580.550 355.981, 585.500 352.353 C 590.450 348.725, 596.094 344.236, 598.042 342.378 C 600.761 339.785, 602.446 339, 605.292 339 C 607.509 339, 609 339.482, 609 340.200 C 609 340.943, 609.333 341.038, 609.875 340.450 C 611.138 339.079, 613.114 311.145, 612.356 305.376 C 612.004 302.694, 610.908 298.885, 609.920 296.912 C 608.933 294.938, 608.165 291.888, 608.215 290.132 C 608.265 288.377, 607.849 285.941, 607.290 284.720 C 598.748 266.051, 596.749 262.323, 594.525 260.920 C 593.148 260.051, 586.906 254.499, 580.656 248.583 C 574.405 242.666, 567.315 236.703, 564.899 235.331 C 562.484 233.959, 559.891 232.325, 559.138 231.699 C 557.385 230.244, 551.906 228.192, 545.331 226.527 C 542.488 225.807, 539.752 224.965, 539.252 224.655 C 536.962 223.241, 523.258 221.753, 510.500 221.535 C 502.800 221.403, 495.150 221.023, 493.500 220.690 C 491.850 220.356, 489.375 220.477, 488 220.957" stroke="#dd8a8a" fill="#dd8a8a" fill-opacity="0.2" fill-rule="evenodd"/><path class="svg-region-SV" d="M 479.145 352.070 C 477.850 352.589, 475.600 353.829, 474.145 354.825 C 472.690 355.822, 469.614 357.179, 467.308 357.841 C 464.250 358.720, 461.882 360.489, 458.558 364.381 C 456.051 367.315, 454 370.664, 454 371.823 C 454 372.982, 452.650 375.468, 451 377.347 C 449.350 379.226, 448 381.195, 448 381.722 C 448 382.250, 445.704 386.465, 442.898 391.090 C 440.093 395.716, 436.930 401.300, 435.870 403.500 C 431.106 413.391, 422.483 424.160, 417.010 427.055 C 412.348 429.521, 414.674 429.485, 421.775 426.982 C 424.924 425.872, 433.341 424.066, 440.479 422.969 C 455.253 420.699, 467.885 417.541, 472.985 414.843 C 474.902 413.830, 477.209 413, 478.113 413 C 479.016 413, 480.315 412.325, 481 411.500 C 481.685 410.675, 483.202 409.990, 484.372 409.978 C 485.543 409.966, 488.445 409.074, 490.822 407.995 C 493.199 406.916, 498.049 405.528, 501.601 404.909 C 505.153 404.291, 510.183 402.954, 512.779 401.939 C 516.840 400.351, 517.109 400.087, 514.705 400.047 C 511.057 399.986, 507.475 396.318, 505.887 391.018 C 505.191 388.694, 504.031 386.566, 503.311 386.289 C 502.462 385.963, 502 383.951, 502 380.583 C 502 373.071, 496.473 359.745, 490.664 353.250 C 488.498 350.829, 483.518 350.319, 479.145 352.070" stroke="#c666b5" fill="#c666b5" fill-opacity="0.2" fill-rule="evenodd"/><path class="svg-region-SF" d="M 596.790 343.416 C 594.199 345.801, 589.699 349.405, 586.790 351.424 C 581.716 354.946, 578.473 357.261, 571.660 362.221 C 568.642 364.419, 553.837 378.924, 547.348 386.042 C 545.614 387.944, 541.675 391.075, 538.594 393 C 532.731 396.664, 531.018 399.723, 531.006 406.553 C 531 409.639, 537.943 425.229, 539.847 426.405 C 540.414 426.756, 542.316 429.556, 544.074 432.628 C 548.343 440.091, 551.755 441.596, 560.820 440.018 L 567.339 438.882 570.108 442.126 C 571.631 443.911, 572.851 445.625, 572.820 445.935 C 572.323 450.890, 576.955 457, 581.209 457 C 582.558 457, 585.489 455.279, 588.036 452.992 C 590.491 450.787, 595.263 447.638, 598.639 445.994 C 603.796 443.482, 605.116 442.285, 606.889 438.513 C 609.671 432.594, 609.798 420.893, 607.152 414.185 C 603.298 404.413, 603.261 403.975, 604.624 383.923 C 605.691 368.211, 606.448 362.911, 608.583 356.184 C 610.972 348.656, 611.105 347.447, 609.981 343.434 C 608.802 339.221, 608.559 339.002, 605.120 339.040 C 602.270 339.071, 600.498 340.002, 596.790 343.416" stroke="#8c6b55" fill="#8c6b55" fill-opacity="0.2" fill-rule="evenodd"/><path class="svg-region-AAB" d="M 602.090 551.650 C 599.328 552.854, 589.721 559.681, 583.263 565.030 C 582.582 565.594, 581.232 566.383, 580.263 566.784 C 579.293 567.185, 575.934 569.198, 572.798 571.257 C 569.662 573.316, 566.667 575, 566.143 575 C 564.140 575, 556.361 582.426, 553.250 587.307 C 550.500 591.623, 550 593.341, 550 598.481 C 550 601.822, 549.410 605.443, 548.690 606.527 C 545.167 611.831, 543.699 622.749, 545.170 632.720 C 546.170 639.501, 546.453 640.070, 549.824 642.059 L 553.414 644.177 562.957 641.173 C 568.206 639.522, 573.625 637.871, 575 637.505 C 577.761 636.772, 583.250 634.773, 595.868 629.907 C 603.343 627.025, 604.394 626.297, 605.720 623.090 C 606.536 621.116, 608.275 617.141, 609.584 614.259 C 611.334 610.406, 611.994 607.094, 612.075 601.759 C 612.136 597.766, 612.607 592.536, 613.122 590.136 C 613.638 587.736, 614.202 579.636, 614.377 572.136 C 614.646 560.573, 614.420 557.949, 612.890 554.873 C 610.317 549.703, 608.084 549.037, 602.090 551.650" stroke="#7f3c1a" fill="#7f3c1a" fill-opacity="0.2" fill-rule="evenodd"/><path class="svg-region-APB" d="M 572.920 463.234 C 567.173 468.981, 566.008 471.790, 566.004 479.905 C 566.001 485.499, 566.550 488.484, 568.250 492.114 C 569.487 494.756, 570.755 496.936, 571.067 496.959 C 571.379 496.982, 572.439 494.413, 573.422 491.250 C 574.405 488.087, 576.004 484.150, 576.976 482.500 C 577.948 480.850, 579.054 478.184, 579.434 476.576 C 580.081 473.841, 583.698 469.056, 585.148 469.017 C 585.504 469.008, 587.675 467.932, 589.972 466.628 L 594.149 464.255 590.707 462.128 C 588.277 460.626, 585.630 460, 581.709 460 C 576.781 460, 575.789 460.365, 572.920 463.234" stroke="#ac7444" fill="#ac7444" fill-opacity="0.2" fill-rule="evenodd"/><path class="svg-region-PC" d="M 533.203 584.586 C 528.666 586.847, 524 591.379, 524 593.524 C 524 593.918, 521.975 598.431, 519.500 603.553 C 517.025 608.675, 515 613.481, 515 614.233 C 515 614.985, 514.502 616.098, 513.892 616.708 C 513.283 617.317, 512.548 620.766, 512.258 624.373 C 511.756 630.634, 511.873 631.092, 514.866 634.500 C 516.590 636.463, 518 638.685, 518 639.437 C 518 640.189, 519.360 641.278, 521.022 641.858 C 522.683 642.437, 526.313 645.241, 529.087 648.089 C 533.904 653.035, 534.246 653.206, 536.683 651.902 C 541.190 649.490, 549.137 641.703, 547.883 640.928 C 544.887 639.076, 543.376 615.121, 546.148 613.409 C 546.616 613.119, 547 611.931, 547 610.770 C 547 609.608, 547.622 607.947, 548.383 607.079 C 549.220 606.123, 549.943 602.256, 550.216 597.275 C 550.649 589.365, 550.555 588.916, 547.760 585.525 C 544.149 581.145, 540.572 580.914, 533.203 584.586" stroke="#cda789" fill="#cda789" fill-opacity="0.2" fill-rule="evenodd"/><path class="svg-region-DB" d="M 525 397.678 C 523.625 397.901, 521.600 398.500, 520.500 399.010 C 515.128 401.499, 507.015 404.062, 502.686 404.636 C 497.228 405.360, 482.291 410.309, 480.670 411.930 C 480.081 412.519, 478.896 413, 478.035 413 C 477.175 413, 474.902 413.830, 472.985 414.843 C 467.900 417.533, 455.282 420.692, 440.479 422.982 C 422.526 425.759, 406.931 431.251, 401.953 436.550 C 399.767 438.877, 399.070 439, 388.076 438.994 C 379.762 438.989, 375.693 438.567, 373.636 437.494 C 369.837 435.513, 369.675 435.569, 370.436 438.602 C 370.795 440.033, 370.346 445.647, 369.438 451.078 C 368.163 458.707, 368.039 461.673, 368.894 464.125 C 369.502 465.870, 370 471.061, 370 475.660 C 370 483.660, 370.199 484.399, 374.594 492.761 C 377.120 497.567, 379.736 502.175, 380.406 503 C 381.801 504.717, 385.477 512.920, 385.545 514.468 C 385.570 515.035, 386.245 515.283, 387.045 515.017 C 393.035 513.028, 443.306 515.072, 451.414 517.634 C 457.207 519.465, 496.807 522.478, 511.750 522.225 L 528 521.950 528 517.935 C 528 515.727, 527.141 512.237, 526.092 510.180 C 522.587 503.311, 521.179 495.724, 520.657 480.904 L 520.143 466.308 524.636 463.469 C 527.106 461.907, 529.973 459.443, 531.005 457.993 C 532.037 456.543, 534.709 454.533, 536.941 453.527 C 540.475 451.933, 541 451.277, 541 448.455 C 541 446.497, 541.594 444.986, 542.500 444.638 C 543.325 444.322, 544 443.522, 544 442.860 C 544 442.199, 544.706 440.877, 545.569 439.924 C 546.999 438.343, 546.959 437.840, 545.117 434.229 C 544.005 432.050, 541.933 428.885, 540.512 427.196 C 539.091 425.507, 536.320 420.645, 534.354 416.391 C 531.103 409.355, 530.840 408.130, 531.440 402.828 C 532.164 396.430, 532.253 396.502, 525 397.678" stroke="#e8b1e4" fill="#e8b1e4" fill-opacity="0.2" fill-rule="evenodd"/><path class="svg-region-IBl" d="M 481.329 572.938 C 476.228 575.254, 472.826 578.456, 466.053 587.317 C 459.105 596.407, 458 599.376, 458 608.968 C 458 613.386, 458.170 617, 458.378 617 C 458.586 617, 460.371 616.325, 462.346 615.500 C 464.320 614.675, 467.981 614, 470.480 614 C 474.878 614, 475.135 614.172, 478.436 619.332 C 480.311 622.264, 482.157 626.319, 482.536 628.343 C 482.916 630.366, 483.640 632.278, 484.145 632.590 C 484.650 632.902, 489.212 633.782, 494.282 634.545 C 499.352 635.308, 506.200 636.836, 509.500 637.941 C 519.058 641.142, 520.133 640.499, 515 634.653 C 509.685 628.600, 511.116 620.892, 521.525 599.500 C 525.653 591.016, 527.692 587.956, 530.439 586.121 C 532.397 584.813, 534 583.366, 534 582.906 C 534 581.647, 530.977 580.347, 526.441 579.656 C 522.777 579.098, 518.604 577.544, 513.764 574.936 C 512.809 574.421, 510.334 573.993, 508.264 573.984 C 506.194 573.976, 501.800 573.317, 498.500 572.520 C 490.450 570.576, 486.308 570.677, 481.329 572.938" stroke="#b10e0e" fill="#b10e0e" fill-opacity="0.2" fill-rule="evenodd"/><path class="svg-region-MB" d="M 388.750 514.689 C 387.183 515.099, 387 516.690, 387 529.890 C 387 542.925, 386.117 552.330, 384.322 558.424 C 384.010 559.482, 381.792 562.446, 379.394 565.010 C 375.597 569.069, 370.211 578.552, 371.166 579.496 C 371.350 579.677, 374.650 578.751, 378.500 577.438 C 382.609 576.037, 387.875 575.041, 391.250 575.026 C 394.413 575.012, 397 574.832, 397 574.627 C 397 574.422, 395.988 572.060, 394.750 569.377 C 392.744 565.030, 392.500 562.925, 392.500 550 C 392.500 535.885, 392.575 535.372, 395.329 530.687 C 401.505 520.180, 408.720 519.425, 421.284 527.970 C 429.602 533.627, 433.716 538.740, 438.652 549.559 C 441.078 554.877, 441.370 556.706, 441.431 567 C 441.472 573.901, 440.995 579.922, 440.236 582.056 C 438.536 586.843, 432.631 592.924, 428.974 593.655 C 427.338 593.982, 426.014 594.531, 426.031 594.875 C 426.106 596.349, 431.361 599.138, 438.383 601.430 C 442.538 602.787, 446.890 604.406, 448.054 605.029 C 450.453 606.313, 453 611.689, 453 615.468 C 453 617.502, 453.492 618, 455.500 618 C 457.971 618, 458 617.902, 458 609.468 C 458 599.124, 459.058 596.344, 466.638 586.772 C 473.740 577.804, 476.390 575.336, 481.500 572.928 C 486.331 570.652, 490.694 570.539, 498 572.500 C 501.025 573.312, 505.133 573.982, 507.128 573.988 C 510.462 573.999, 516.128 575.729, 520.127 577.957 C 521.022 578.455, 523.497 579.169, 525.627 579.544 C 527.757 579.918, 530.519 580.864, 531.764 581.645 C 533.374 582.654, 535.470 582.874, 539.012 582.404 C 543.873 581.759, 544.089 581.842, 547.748 585.764 L 551.500 589.786 555.265 584.893 L 559.030 580 556.206 580 C 550.710 580, 549.723 578.264, 550.200 569.430 C 550.538 563.188, 551.307 560.058, 553.814 554.725 C 555.566 550.999, 557 546.393, 557 544.489 C 557 540.970, 558.556 533.320, 560.097 529.261 L 560.947 527.022 550.223 527.650 C 544.326 527.996, 539.375 528.378, 539.222 528.501 C 539.069 528.623, 539.407 529.939, 539.972 531.426 C 540.537 532.913, 541 538.132, 541 543.023 L 541 551.916 537.013 556.107 L 533.026 560.298 525.218 559.696 C 520.924 559.365, 516.080 558.401, 514.455 557.553 C 512.830 556.706, 510.970 556.010, 510.323 556.006 C 509.675 556.003, 507.735 554.313, 506.011 552.250 C 503.350 549.066, 502.963 547.937, 503.447 544.770 C 504.077 540.648, 508.440 532.184, 510.915 530.282 C 511.787 529.612, 514.601 529.049, 517.168 529.032 C 523.269 528.990, 524.777 528.333, 526.525 524.952 L 527.976 522.146 509.238 522.047 C 492.705 521.960, 453.212 518.867, 450.974 517.484 C 447.459 515.312, 395.328 512.970, 388.750 514.689" stroke="#f9c6c6" fill="#f9c6c6" fill-opacity="0.2" fill-rule="evenodd"/><path class="svg-region-LBl" d="M 400.898 524.289 C 399.029 525.547, 396.375 528.585, 395 531.039 C 392.653 535.227, 392.500 536.388, 392.500 550.021 C 392.500 564.401, 392.531 564.605, 395.745 571.021 C 400.551 580.618, 405.329 586.534, 411.671 590.743 C 416.559 593.986, 418.102 594.496, 422.950 594.469 C 430.169 594.428, 434.541 591.913, 438.487 585.530 C 441.403 580.814, 441.500 580.270, 441.495 568.579 C 441.491 558.374, 441.132 555.569, 439.184 550.500 C 435.449 540.784, 429.531 533.401, 420.628 527.350 C 411.423 521.095, 406.723 520.365, 400.898 524.289" stroke="#79495c" fill="#79495c" fill-opacity="0.2" fill-rule="evenodd"/><path class="svg-region-DMl" d="M 462 615.634 C 460.075 616.490, 454.450 618.073, 449.500 619.152 C 441.392 620.920, 436.425 621.695, 422 623.448 C 385.141 627.926, 377.185 629.543, 373.402 633.325 L 371.039 635.688 373.560 638.056 C 374.946 639.358, 377.652 643.509, 379.574 647.280 C 381.496 651.051, 383.476 654.894, 383.973 655.818 C 385.918 659.433, 391.800 672.779, 393.750 678 C 394.880 681.025, 397.824 688.675, 400.293 695 C 407.250 712.824, 407.362 713.307, 405.895 719.034 C 404.192 725.678, 405.096 726.361, 412.405 723.949 C 415.653 722.877, 419.361 722, 420.645 722 C 421.929 722, 425.796 720.936, 429.239 719.636 C 432.683 718.336, 437.750 716.572, 440.500 715.716 C 457.874 710.310, 482.782 699.109, 486.455 695.050 C 488.910 692.336, 489.598 685.073, 487.746 681.416 C 485.352 676.688, 484.129 666.714, 483.466 646.500 C 482.807 626.438, 482.306 624.103, 477.189 617.250 C 475.051 614.386, 474.213 614.005, 470.131 614.039 C 467.584 614.061, 463.925 614.779, 462 615.634" stroke="#68533d" fill="#68533d" fill-opacity="0.2" fill-rule="evenodd"/><path class="svg-region-PMl" d="M 358.139 636.033 C 356.841 637.115, 354.975 638, 353.993 638 C 352.303 638, 348.749 641.608, 344.665 647.469 C 343.655 648.917, 340.885 651.317, 338.510 652.801 C 336.134 654.286, 328.923 660.450, 322.486 666.500 C 316.050 672.550, 310.195 677.839, 309.475 678.253 C 308.045 679.076, 299.149 690.028, 295.282 695.726 C 291.913 700.691, 287 711.300, 287 713.611 C 287 716.107, 290.520 725.717, 292.156 727.689 C 292.856 728.531, 296.595 730.697, 300.464 732.500 C 313.935 738.777, 316.276 739.284, 332.972 739.534 C 347.590 739.753, 348.943 739.608, 357.472 736.891 C 362.437 735.310, 367.850 733.590, 369.500 733.069 C 371.150 732.547, 374.300 731.810, 376.500 731.430 C 378.700 731.050, 380.950 730.403, 381.500 729.993 C 382.050 729.582, 385.425 728.737, 389 728.115 C 392.575 727.493, 397.489 726.386, 399.921 725.655 C 404 724.429, 404.450 723.954, 405.748 719.500 C 407.486 713.540, 406.751 710.189, 400.492 695.536 C 398.022 689.751, 396 684.626, 396 684.147 C 396 683.189, 391.256 671.355, 387.736 663.532 C 382.386 651.643, 376.506 641.227, 373.180 637.750 C 370.049 634.475, 369.018 634.004, 365.047 634.033 C 362.031 634.055, 359.705 634.729, 358.139 636.033" stroke="#90cf92" fill="#90cf92" fill-opacity="0.2" fill-rule="evenodd"/><path class="svg-region-Fl" d="M 299.500 530.971 C 272.491 537.906, 251.712 550.755, 244.470 565 C 243.491 566.925, 242.340 571.200, 241.911 574.500 C 241.483 577.800, 240.331 583.290, 239.351 586.701 C 237.585 592.845, 237.935 595.465, 240.217 593.183 C 240.975 592.425, 245.103 592, 251.700 592 C 260.460 592, 262.282 591.718, 263.886 590.114 C 265.511 588.489, 267.404 588.217, 277.536 588.153 C 284.006 588.111, 291.144 587.812, 293.400 587.487 C 300.656 586.443, 308.114 590.286, 318 600.165 C 322.675 604.836, 329.421 612.307, 332.992 616.765 C 338.771 623.982, 339.658 624.715, 341.071 623.436 C 341.943 622.646, 343.247 622, 343.968 622 C 344.690 622, 345.813 621.271, 346.465 620.379 C 347.293 619.247, 349.813 618.603, 354.825 618.245 C 359.607 617.902, 362 617.316, 362 616.486 C 362 615.802, 360.818 612.659, 359.373 609.503 C 357.002 604.324, 356.811 603.039, 357.419 596.327 C 357.790 592.236, 358.589 587.802, 359.194 586.474 C 360.542 583.516, 359.164 581.513, 354.417 579.530 C 352.634 578.785, 350.182 577.182, 348.968 575.968 C 345.200 572.200, 337.848 558.838, 336.348 553.033 C 333.601 542.398, 324.189 531.687, 315.384 529.174 C 313.120 528.529, 311.095 528.033, 310.884 528.073 C 310.673 528.113, 305.550 529.417, 299.500 530.971" stroke="#5ca7a9" fill="#5ca7a9" fill-opacity="0.2" fill-rule="evenodd"/><path class="svg-region-PCl" d="M 292.821 587.512 C 292.540 587.794, 286.244 588.043, 278.831 588.065 C 266.743 588.102, 265.182 588.307, 263.687 590.053 C 262.231 591.753, 260.687 592, 251.510 592 C 238.366 592, 238.108 592.213, 235.746 605.002 C 234.781 610.226, 233.458 616.845, 232.806 619.712 C 231.745 624.376, 231.814 625.137, 233.465 626.962 C 234.562 628.174, 236.561 629, 238.395 629 C 240.904 629, 242.650 630.241, 247.740 635.640 C 251.183 639.293, 254.001 642.780, 254.003 643.390 C 254.004 644.001, 255.332 645.388, 256.953 646.474 C 258.597 647.576, 260.611 650.311, 261.508 652.661 C 263.348 657.479, 268.412 662.283, 275.810 666.229 C 283.285 670.216, 284.336 672.382, 285.123 685.421 L 285.792 696.500 279.192 702.834 C 271.291 710.416, 266.923 712.802, 257.080 714.910 C 246.450 717.188, 246.699 718.494, 258.500 722.368 C 261.250 723.271, 264.239 724.008, 265.143 724.005 C 266.047 724.002, 267.057 724.706, 267.388 725.569 C 267.792 726.622, 268.660 726.925, 270.029 726.491 C 271.382 726.061, 274.495 727.101, 279.284 729.580 C 286.193 733.157, 299.677 737.308, 301.250 736.342 C 303.233 735.125, 301.563 732.742, 297.509 731.004 C 292.319 728.779, 289.880 725.336, 288.029 717.619 C 286.782 712.425, 286.841 712.032, 289.775 705.873 C 293.340 698.387, 301.408 686.698, 306.737 681.299 C 315.188 672.735, 333.487 656.353, 337.985 653.324 C 340.630 651.543, 344.772 647.479, 347.190 644.293 C 350.067 640.503, 352.437 638.383, 354.044 638.162 C 355.395 637.977, 357.498 636.900, 358.717 635.769 C 360.559 634.061, 361.828 633.800, 366.217 634.226 C 375.138 635.091, 376.661 633.028, 369.936 629.188 L 365.888 626.876 361.694 628.833 C 356.309 631.346, 341.907 632.583, 339.021 630.781 C 336.814 629.403, 336.392 627.008, 338.063 625.337 C 338.814 624.586, 337.272 621.974, 332.813 616.444 C 324.634 606.300, 308.181 590.002, 306.110 589.994 C 305.225 589.990, 303.211 589.315, 301.636 588.494 C 298.846 587.039, 293.851 586.483, 292.821 587.512" stroke="#465ee0" fill="#465ee0" fill-opacity="0.2" fill-rule="evenodd"/><path class="svg-region-Ol" d="M 678 283.751 C 664.384 289.534, 653.033 302.084, 647.763 317.182 C 642.654 331.820, 639.204 346.879, 637.040 364 C 636.449 368.675, 635.236 377, 634.345 382.500 C 633.021 390.669, 632.849 396.537, 633.409 414.544 C 633.786 426.668, 634.596 439.493, 635.209 443.044 C 636.793 452.211, 636.240 491.086, 634.436 497.367 C 633.450 500.802, 633.222 504.823, 633.663 511.035 C 634.149 517.880, 633.883 521.399, 632.466 526.862 C 630.807 533.256, 630.757 535.005, 631.908 546.371 L 633.173 558.856 628.743 566.178 C 626.284 570.243, 624.005 575.459, 623.620 577.904 C 623.239 580.326, 621.369 585.548, 619.464 589.509 C 617.559 593.469, 616 597.177, 616 597.748 C 616 598.319, 615.381 599.023, 614.625 599.313 C 613.869 599.604, 612.931 601.974, 612.540 604.582 C 612.149 607.190, 610.458 612.288, 608.781 615.912 C 604.759 624.606, 604.581 628.978, 608.176 630.732 C 609.920 631.583, 612.619 635.214, 615.926 641.156 C 618.717 646.171, 621 650.580, 621 650.953 C 621 651.327, 623.813 654.763, 627.250 658.590 C 630.688 662.416, 635.813 668.461, 638.640 672.023 C 641.467 675.586, 647.261 681.425, 651.517 685 C 655.773 688.575, 662.010 693.879, 665.377 696.788 C 681.801 710.972, 706.567 723.906, 726 728.451 C 739.380 731.579, 780.354 730.159, 799 725.920 C 801.475 725.357, 805.727 724.434, 808.450 723.867 C 814.202 722.670, 817.959 720.737, 827.201 714.220 C 836.160 707.903, 841.732 701.135, 847.251 689.865 C 855.048 673.944, 855.758 670.682, 857.998 640.473 C 859.142 625.031, 858.822 620.117, 855.524 602.500 C 854.700 598.100, 853.381 590.577, 852.592 585.782 C 851.803 580.987, 850.846 576.559, 850.465 575.943 C 849.446 574.295, 847.025 565.244, 846.066 559.500 C 845.021 553.237, 841.379 534.602, 839.519 526 C 838.746 522.425, 837.560 516.350, 836.884 512.500 C 836.207 508.650, 833.666 497.625, 831.238 488 C 826.468 469.096, 824.870 462.349, 822.592 451.500 C 819.651 437.493, 815.738 424, 812.022 415.054 C 809.575 409.161, 807.819 404.610, 799.269 382 C 795.761 372.724, 786.783 351.707, 779.405 335.500 C 776.290 328.656, 758.770 308.785, 748.988 301 C 745.878 298.525, 741.094 294.700, 738.357 292.500 C 732.789 288.024, 721.949 282.799, 714.736 281.113 C 712.115 280.501, 704.690 280.032, 698.236 280.071 C 687.068 280.138, 686.088 280.316, 678 283.751" stroke="#aa444d" fill="#aa444d" fill-opacity="0.2" fill-rule="evenodd"/><path class="svg-region-VOC" d="M 526.497 525.006 C 524.823 528.243, 523.206 529, 517.965 529 C 515.836 529, 513.046 529.477, 511.766 530.061 C 508.955 531.342, 504.442 539.074, 503.473 544.270 C 501.950 552.436, 510.713 558.603, 525.421 559.715 L 532.950 560.285 536.975 556.260 L 541 552.235 541 542.568 C 541 530.568, 539.824 527.950, 532.953 524.662 L 527.920 522.254 526.497 525.006" stroke="#ff8f93" fill="#ff8f93" fill-opacity="0.2" fill-rule="evenodd"/><path class="svg-region-OABl" d="M 589.500 466.703 C 581.513 470.761, 579.749 473.452, 573.575 491 C 572.317 494.575, 570.110 499.825, 568.669 502.667 C 567.229 505.509, 565.757 509.784, 565.398 512.167 C 565.040 514.550, 563.857 518.750, 562.770 521.500 C 561.683 524.250, 560.440 527.400, 560.007 528.500 C 558.708 531.803, 557 540.922, 557 544.551 C 557 546.421, 555.562 550.999, 553.804 554.725 C 551.172 560.304, 550.538 563.020, 550.210 570.109 C 549.824 578.446, 549.886 578.737, 552.156 579.345 C 555.630 580.275, 559.801 580.131, 560.465 579.057 C 560.785 578.538, 564.359 576.286, 568.405 574.052 C 572.452 571.819, 576.321 569.318, 577.004 568.495 C 577.686 567.673, 578.787 567, 579.449 567 C 580.111 567, 584.894 563.816, 590.077 559.923 C 604.619 549.003, 609.283 547.834, 612.666 554.264 C 614.070 556.932, 614.331 559.958, 614.155 571.500 C 614.037 579.200, 613.475 587.912, 612.905 590.859 C 612.336 593.807, 612.110 596.844, 612.403 597.609 C 613.410 600.233, 615.845 598.999, 617.058 595.250 C 617.726 593.188, 619.301 589.633, 620.559 587.352 C 621.818 585.070, 623.171 581.042, 623.567 578.400 C 624.011 575.438, 625.994 570.786, 628.741 566.261 L 633.195 558.925 632.508 551.712 C 632.130 547.746, 631.410 542.594, 630.909 540.265 C 630.194 536.938, 630.454 534.368, 632.121 528.291 C 633.971 521.548, 634.155 519.068, 633.549 509.026 C 632.220 487.010, 625.320 474.030, 611.500 467.545 C 602.562 463.350, 596.551 463.120, 589.500 466.703" stroke="#81244d" fill="#81244d" fill-opacity="0.2" fill-rule="evenodd"/><path class="svg-region-SOTl" d="M 535.668 453.959 C 534.111 454.956, 531.636 457.183, 530.168 458.909 C 528.701 460.634, 525.925 462.880, 524 463.899 L 520.500 465.753 520.841 481.126 C 521.182 496.490, 523.101 507.006, 526.256 510.808 C 526.924 511.613, 527.702 514.572, 527.985 517.383 C 528.492 522.418, 528.582 522.536, 533.956 525.247 C 539.677 528.133, 545.543 528.710, 555.416 527.356 C 559.774 526.759, 560.277 526.382, 562.413 522.106 C 563.678 519.573, 564.989 515.401, 565.326 512.835 C 565.663 510.269, 567.129 505.743, 568.583 502.777 L 571.228 497.384 568.614 492.225 C 566.680 488.408, 566 485.543, 566 481.208 C 566 476.171, 565.632 475.008, 563.381 472.924 C 561.941 471.591, 559.804 469.107, 558.631 467.405 C 552.688 458.773, 548.816 454.237, 546.485 453.175 C 542.899 451.541, 539.004 451.824, 535.668 453.959" stroke="#995b45" fill="#995b45" fill-opacity="0.2" fill-rule="evenodd"/><path class="svg-region-LBPCl" d="M 349.323 618.696 C 348.125 618.929, 346.607 619.768, 345.950 620.560 C 345.293 621.352, 344.342 622, 343.837 622 C 342.055 622, 337 626.397, 337 627.948 C 337 631.142, 340.647 632.133, 349.702 631.398 C 359.474 630.605, 368.500 626.756, 368.500 623.380 C 368.500 619.530, 358.096 616.988, 349.323 618.696" stroke="#daffff" fill="#daffff" fill-opacity="0.2" fill-rule="evenodd"/><path class="svg-region-PNl" d="M 229.200 627.200 C 228.540 627.860, 228 628.920, 228 629.556 C 228 632.005, 220.909 639.839, 216.805 641.924 C 209.612 645.579, 198.781 647.862, 185.287 648.569 C 170.323 649.352, 164.560 650.969, 151.215 658.127 C 138.665 664.859, 136.052 666.694, 124.812 676.666 C 112.580 687.519, 109.988 690.779, 104.403 702.330 C 100.205 711.013, 99.821 712.480, 99.061 722.751 C 98.611 728.838, 98.392 734.871, 98.575 736.159 C 100.440 749.274, 101.589 753.183, 106.189 762.073 C 113.615 776.424, 114.668 777.500, 121.284 777.500 C 126.284 777.500, 127.236 777.111, 132.292 773 C 164.096 747.145, 185.640 730.294, 189.192 728.498 C 193.738 726.198, 208.090 721.526, 214 720.423 C 215.925 720.063, 217.950 719.427, 218.500 719.008 C 219.050 718.589, 222.156 717.925, 225.403 717.532 C 228.649 717.139, 232.366 716.335, 233.661 715.745 C 235.345 714.978, 236.657 714.982, 238.259 715.759 C 241.208 717.190, 248.862 718.032, 249.503 716.995 C 249.780 716.547, 253.208 715.608, 257.122 714.909 C 265.371 713.435, 273.486 708.967, 280.844 701.849 L 285.652 697.198 285.287 688.349 C 284.613 671.978, 283.579 669.836, 274.032 665.016 C 267.788 661.864, 263.522 657.515, 261.264 652 C 259.230 647.031, 254 643.030, 254 646.443 C 254 647.237, 253 648.587, 251.777 649.443 C 247.377 652.525, 224.651 650.861, 223.307 647.358 C 222.226 644.541, 224.161 641.052, 229.943 635.391 C 235.511 629.939, 235.799 629.435, 234.298 627.776 C 232.420 625.702, 230.873 625.527, 229.200 627.200" stroke="#bbc0d1" fill="#bbc0d1" fill-opacity="0.2" fill-rule="evenodd"/><path class="svg-region-OVl" d="M 545.689 439.880 C 544.927 440.771, 544.025 442.288, 543.683 443.250 C 543.342 444.212, 542.599 445, 542.031 445 C 541.464 445, 541 446.519, 541 448.375 C 541 451.265, 541.399 451.830, 543.779 452.306 C 546.947 452.939, 549.976 455.709, 555 462.567 C 559.092 468.153, 564.873 474.500, 565.333 473.910 C 565.509 473.685, 566.601 471.925, 567.760 470 C 571.196 464.294, 576.117 460.175, 579.923 459.820 C 584.059 459.433, 585.426 457, 581.506 457 C 577.892 457, 573.001 452.014, 572.998 448.327 C 572.996 446.671, 571.819 444.124, 570.155 442.177 L 567.316 438.855 561.251 439.955 C 556.421 440.830, 554.360 440.770, 551.130 439.657 C 547.523 438.414, 546.922 438.439, 545.689 439.880" stroke="#593939" fill="#593939" fill-opacity="0.2" fill-rule="evenodd"/><path class="svg-region-ODMl" d="M 483.549 649.250 C 484.131 666.262, 485.402 676.308, 487.658 681.718 C 489.412 685.923, 489.355 689.413, 487.474 693.050 C 485.464 696.938, 487.192 696.917, 491.653 693 C 493.532 691.350, 495.932 690, 496.985 690 C 498.039 690, 499.260 689.437, 499.700 688.748 C 500.140 688.060, 501.750 686.852, 503.277 686.065 C 504.805 685.277, 510.430 680.456, 515.777 675.350 C 521.125 670.245, 527.638 664.060, 530.250 661.605 C 532.862 659.151, 535 656.411, 535 655.516 C 535 654.621, 532.310 651.249, 529.022 648.021 C 523.675 642.773, 522.049 641.830, 513.634 639.095 C 506.443 636.757, 487.870 633, 483.503 633 C 483.223 633, 483.243 640.313, 483.549 649.250" stroke="#999999" fill="#999999" fill-opacity="0.2" fill-rule="evenodd"/><path class="svg-region-COl" d="M 230.110 635.049 C 224.634 640.229, 223.704 641.617, 223.610 644.745 C 223.507 648.164, 223.753 648.473, 227.500 649.621 C 233.554 651.475, 249.038 651.362, 251.777 649.443 C 255.822 646.610, 254.733 642.871, 247.731 635.552 C 239.704 627.162, 238.483 627.127, 230.110 635.049" stroke="#906d99" fill="#906d99" fill-opacity="0.2" fill-rule="evenodd"/><path class="svg-region-HRl" d="M 382 576.154 C 378.960 576.999, 375.192 578.374, 362.836 583.143 C 361.370 583.709, 359.610 585.527, 358.924 587.183 C 357.182 591.390, 357.524 607.625, 359.416 610.513 C 360.219 611.737, 361.267 614.260, 361.747 616.120 C 362.345 618.442, 363.281 619.597, 364.736 619.810 C 368.103 620.303, 369.641 622.743, 368.121 625.179 C 367.428 626.287, 367.005 627.297, 367.181 627.421 C 373.080 631.605, 373.978 631.977, 376.173 631.141 C 381.111 629.262, 385.710 628.134, 391 627.506 C 394.025 627.147, 401 626.228, 406.500 625.464 C 412 624.700, 418.750 623.814, 421.500 623.495 C 433.108 622.147, 440.863 620.997, 446.500 619.787 C 452.196 618.565, 452.516 618.339, 452.809 615.314 C 453.207 611.199, 450.700 606.404, 447.233 604.653 C 445.730 603.894, 441.350 602.239, 437.500 600.976 C 433.650 599.712, 429.375 597.896, 428 596.939 C 426.625 595.982, 423.475 594.909, 421 594.554 C 414.103 593.565, 405.886 587.359, 400 578.694 C 397.571 575.118, 397.329 575.016, 391.500 575.097 C 388.200 575.143, 383.925 575.618, 382 576.154" stroke="#d9dba1" fill="#d9dba1" fill-opacity="0.2" fill-rule="evenodd"/>
    </svg>