<svg xmlns="http://www.w3.org/2000/svg" width="1078" height="1151" viewBox="0 0 1078 1151" version="1.1">
    <path class="svg-region-V" d="M 492 216.151 C 490.075 216.682, 487.046 217.077, 485.268 217.028 C 483.491 216.980, 478.643 218.528, 474.496 220.470 C 470.349 222.411, 466.710 224, 466.408 224 C 466.107 224, 463.977 225.296, 461.674 226.880 C 455.135 231.380, 446.828 235.610, 443.094 236.343 C 439.378 237.073, 430.681 242.465, 427.500 246.010 C 426.400 247.236, 423.025 249.804, 420 251.717 C 413.261 255.978, 402 266.843, 402 269.084 C 402 269.986, 400.650 272.424, 399 274.500 C 397.350 276.576, 396 278.654, 396 279.117 C 396 279.580, 394.200 282.331, 392.001 285.230 C 389.801 288.128, 387.056 292.525, 385.900 295 C 384.744 297.475, 382.796 300.850, 381.571 302.500 C 377.752 307.641, 369.168 325.235, 367.666 331 C 366.077 337.099, 364.429 341.974, 362.428 346.500 C 361.698 348.150, 359.910 352.425, 358.454 356 C 356.997 359.575, 354.553 364.975, 353.022 368 C 346.801 380.293, 344.663 392.239, 347.281 400.078 C 348.093 402.510, 349.059 407.650, 349.428 411.500 C 350.305 420.664, 351.458 423.381, 355.231 425.167 C 357.427 426.207, 359.435 428.685, 362.032 433.559 L 365.716 440.476 373.108 442.270 C 381.728 444.362, 400.945 445.079, 403.090 443.388 C 403.865 442.776, 405.743 441.979, 407.262 441.616 C 408.781 441.253, 411.218 439.616, 412.677 437.978 C 414.137 436.340, 415.972 435, 416.755 435 C 418.639 435, 421.451 431.633, 424.687 425.500 C 426.711 421.665, 427.511 418.286, 428.119 411 C 429.108 399.136, 431.101 393.958, 440.281 379.394 C 449.232 365.195, 467.183 347.111, 478.622 340.769 C 482.676 338.521, 494.893 337.337, 497.828 338.908 C 500.216 340.186, 512 355.717, 512 357.587 C 512 358.229, 512.631 359.279, 513.402 359.919 C 514.173 360.558, 515.066 362.128, 515.387 363.407 C 516.560 368.080, 525.083 381.843, 528.991 385.373 C 532.294 388.357, 533.768 389, 537.303 389 C 544.212 389, 549.683 384.473, 562 368.561 C 563.375 366.785, 568.088 362.220, 572.474 358.416 C 582.795 349.464, 584.989 347.141, 586.559 343.500 C 588.412 339.207, 592.818 334.221, 597.774 330.812 C 601.642 328.150, 602.385 327.972, 605.428 328.976 C 607.282 329.588, 609.860 329.822, 611.157 329.497 C 613.493 328.910, 613.513 328.787, 613.317 316.202 C 613.097 302.104, 612.269 293.987, 610.903 292.550 C 610.406 292.028, 610 290.585, 610 289.345 C 610 284.946, 598.401 260.407, 593.868 255.215 C 592.291 253.409, 591 251.257, 591 250.434 C 591 249.611, 590.212 248.660, 589.250 248.322 C 588.288 247.984, 586.258 246.559, 584.739 245.156 C 580.611 241.341, 563.074 229.281, 558.500 227.110 C 546.671 221.497, 540.481 219, 538.397 219 C 537.117 219, 534.142 218.374, 531.785 217.608 C 526.460 215.878, 496.909 214.795, 492 216.151" stroke="#dd8a8a" fill="#dd8a8a" fill-opacity="0.2" fill-rule="evenodd"/><path class="svg-region-SV" d="M 483.500 338.938 C 477.836 340.323, 472.486 343.861, 463.776 351.981 C 453.528 361.536, 445.092 371.684, 438.030 382.953 C 430.961 394.232, 428.885 399.970, 428.243 410 C 427.663 419.078, 425.618 425.191, 421.242 430.928 C 419.215 433.584, 419.024 434.205, 420.394 433.679 C 421.367 433.305, 422.767 433, 423.505 433 C 424.243 433, 426.119 431.955, 427.673 430.679 C 429.228 429.402, 433.200 427.341, 436.500 426.099 C 439.800 424.857, 443.281 423.426, 444.236 422.920 C 445.191 422.414, 446.810 422, 447.833 422 C 448.856 422, 455.049 419.307, 461.596 416.016 C 468.143 412.724, 474.175 410.004, 475 409.972 C 475.825 409.939, 478.300 409.242, 480.500 408.424 C 488.626 405.400, 502.773 402.105, 510.523 401.430 C 514.910 401.048, 519.132 400.232, 519.905 399.618 C 520.677 399.003, 524.578 398.518, 528.572 398.540 C 535.568 398.579, 535.853 398.487, 536.324 396.040 C 536.593 394.643, 537.133 392.488, 537.523 391.250 C 538.144 389.283, 537.881 389, 535.433 389 C 530.869 389, 524.399 381.266, 517.335 367.369 C 511.543 355.974, 508.194 350.747, 500.919 341.750 C 498.031 338.178, 497.617 338.005, 492.194 338.102 C 489.062 338.159, 485.150 338.535, 483.500 338.938" stroke="#c666b5" fill="#c666b5" fill-opacity="0.2" fill-rule="evenodd"/><path class="svg-region-SF" d="M 597.489 330.868 C 592.930 334.225, 587.616 340.483, 586.597 343.695 C 586.219 344.886, 582.518 348.929, 578.374 352.680 C 566.885 363.077, 564.083 365.971, 556.500 375.269 C 551.333 381.604, 547.996 384.671, 543.755 386.982 C 540.596 388.703, 537.558 390.957, 537.005 391.990 C 536.452 393.023, 536 396.620, 536 399.982 C 536 405.950, 536.113 406.207, 540.756 410.798 C 543.372 413.384, 548.533 417.239, 552.225 419.364 C 560.459 424.103, 571.374 434.815, 576.535 443.221 C 578.655 446.675, 581.089 450.048, 581.945 450.718 C 584.051 452.368, 597.435 452.393, 598.773 450.750 C 599.333 450.063, 601.022 447.250, 602.527 444.500 C 607.218 435.928, 612.265 429.907, 615.267 429.301 C 617.954 428.759, 618.018 428.593, 617.468 423.622 C 616.400 413.984, 615.830 411.497, 614.001 408.500 C 612.435 405.934, 612.134 402.898, 611.918 387.500 C 611.780 377.600, 612.248 361.542, 612.958 351.816 C 614.495 330.776, 614.291 329.338, 609.775 329.373 C 607.974 329.388, 605.375 329.065, 604 328.657 C 602.070 328.083, 600.586 328.587, 597.489 330.868" stroke="#8c6b55" fill="#8c6b55" fill-opacity="0.2" fill-rule="evenodd"/><path class="svg-region-AAB" d="M 598 539.488 C 591.684 541.918, 587.088 544.712, 583.493 548.307 C 580.432 551.368, 579.096 551.938, 573.593 552.527 C 570.094 552.902, 566.332 552.923, 565.232 552.574 C 563.681 552.081, 563.094 552.491, 562.615 554.400 C 562.275 555.753, 561.420 557.454, 560.716 558.180 C 558.350 560.616, 555.116 565.633, 551.424 572.592 C 547.859 579.310, 547.740 579.884, 547.084 593.500 C 545.997 616.064, 547.552 631.460, 552.059 642.750 C 553.264 645.770, 558.056 645.737, 565.126 642.662 C 568.082 641.376, 574.775 638.855, 580 637.059 C 591.687 633.043, 605.090 626.598, 607.838 623.673 C 608.966 622.472, 611.315 618.791, 613.058 615.494 C 614.801 612.197, 616.793 608.825, 617.484 608 C 618.176 607.175, 619.798 603.800, 621.088 600.500 C 623.227 595.032, 623.433 592.993, 623.415 577.500 C 623.398 563.391, 623.077 559.650, 621.528 555.500 C 620.501 552.750, 619.117 549.825, 618.451 549 C 617.786 548.175, 616.522 546.080, 615.644 544.345 C 613.007 539.135, 611.284 537.994, 606.179 538.070 C 603.605 538.109, 599.925 538.747, 598 539.488" stroke="#7f3c1a" fill="#7f3c1a" fill-opacity="0.2" fill-rule="evenodd"/><path class="svg-region-APB" d="M 580.500 453.662 C 574.468 456.841, 573.647 458.029, 567.311 472.741 C 566.543 474.524, 565.514 479.474, 565.025 483.741 C 564.444 488.805, 562.983 494.105, 560.817 499 C 557.526 506.441, 557.500 506.622, 557.500 522 C 557.500 535.880, 557.722 537.918, 559.624 541.500 C 560.792 543.700, 562.582 547.188, 563.602 549.250 C 565.228 552.542, 565.885 552.995, 568.977 552.956 C 572.603 552.912, 580.789 551.547, 581.453 550.877 C 581.659 550.670, 581.476 547.315, 581.048 543.422 C 580.417 537.685, 579.595 535.364, 576.715 531.176 C 574.760 528.335, 572.876 524.713, 572.528 523.129 C 571.701 519.363, 574.914 509.829, 580.501 499.466 C 582.884 495.047, 585.582 488.542, 586.497 485.010 C 588.516 477.220, 590.605 472.986, 593.399 471.025 C 594.555 470.214, 597.075 468.102, 599 466.331 L 602.500 463.111 600.247 458.806 C 599.008 456.438, 597.996 453.938, 597.997 453.250 C 598.001 451.347, 584.277 451.670, 580.500 453.662" stroke="#ac7444" fill="#ac7444" fill-opacity="0.2" fill-rule="evenodd"/><path class="svg-region-PC" d="M 515.500 587.487 C 511.901 589.075, 508.177 593.864, 507.358 597.958 C 506.160 603.949, 507.876 609.572, 512.919 616.185 C 515.569 619.658, 518.055 623.850, 518.446 625.500 C 518.836 627.150, 519.720 629.175, 520.408 630 C 523.305 633.469, 525.025 640.659, 524.763 648.206 C 524.553 654.258, 524.850 656.165, 526.245 657.711 C 527.205 658.776, 528.278 661.751, 528.631 664.323 C 528.983 666.895, 529.789 669, 530.420 669 C 532.041 669, 541.484 659.100, 543.298 655.500 C 545.062 651.998, 548.860 648.497, 551.962 647.512 C 553.522 647.017, 553.941 646.346, 553.430 645.160 C 548.267 633.163, 546.938 625, 546.932 605.250 L 546.927 589 542.655 589 C 540.305 589, 537.509 588.339, 536.441 587.532 C 533.955 585.651, 519.730 585.621, 515.500 587.487" stroke="#cda789" fill="#cda789" fill-opacity="0.2" fill-rule="evenodd"/><path class="svg-region-DB" d="M 520.796 399.410 C 518.759 400.137, 513.809 401.049, 509.796 401.436 C 501.800 402.207, 486.947 405.584, 483 407.528 C 481.625 408.205, 478.925 409.079, 477 409.469 C 475.075 409.860, 470.350 411.666, 466.500 413.482 C 462.650 415.299, 458.825 417.063, 458 417.403 C 457.175 417.744, 455.150 418.884, 453.500 419.938 C 451.850 420.992, 449.352 421.887, 447.950 421.927 C 446.547 421.967, 444.972 422.358, 444.450 422.796 C 443.927 423.234, 441.700 424.171, 439.500 424.879 C 433.316 426.869, 428.576 429.161, 427.746 430.562 C 427.332 431.263, 423.788 432.828, 419.871 434.040 C 415.057 435.530, 412.597 436.826, 412.279 438.040 C 412.021 439.028, 410.615 440.287, 409.155 440.837 C 397.674 445.164, 397.049 445.279, 388.706 444.602 C 384.149 444.232, 377.963 443.276, 374.960 442.477 C 366.558 440.241, 365.547 440.460, 363.521 444.953 C 361.558 449.307, 362.043 452.918, 366.050 463.788 C 367.123 466.696, 368 470.189, 368 471.551 C 368 472.913, 368.441 474.809, 368.979 475.764 C 369.517 476.719, 371.821 482, 374.099 487.500 C 376.377 493, 378.636 497.928, 379.120 498.450 C 379.604 498.972, 380 500.198, 380 501.173 C 380 502.149, 380.875 504.871, 381.944 507.223 C 383.013 509.575, 384.134 512.625, 384.435 514 C 384.736 515.375, 385.440 517.175, 385.999 518 C 386.873 519.291, 387.258 519.202, 388.757 517.366 C 389.716 516.192, 392.300 514.673, 394.500 513.989 C 396.700 513.306, 399.175 512.183, 400 511.494 C 405.057 507.270, 411.108 505.986, 414.562 508.406 C 415.927 509.362, 421.190 510.030, 431.034 510.497 C 443.903 511.106, 446.494 510.943, 454.500 509.018 C 469.080 505.511, 471.937 505.122, 483.570 505.060 C 494.166 505.003, 494.732 505.107, 496.813 507.500 C 498.573 509.524, 499.910 510, 503.836 510 C 506.504 510, 514.199 510.296, 520.938 510.659 L 533.189 511.318 530.176 505.349 C 528.519 502.066, 526.422 498.765, 525.516 498.013 C 519.714 493.198, 513.108 467.981, 515.890 461.266 C 519.507 452.534, 536.092 444.302, 542.816 447.902 C 544.341 448.718, 544.472 448.034, 544.203 440.652 L 543.905 432.500 547.871 428.295 C 551.387 424.567, 553.806 420.328, 552.841 419.587 C 552.654 419.443, 549.920 417.638, 546.766 415.576 C 539.563 410.867, 536 406.690, 536 402.958 C 536 401.127, 535.293 399.692, 534.066 399.035 C 531.441 397.631, 525.294 397.804, 520.796 399.410" stroke="#e8b1e4" fill="#e8b1e4" fill-opacity="0.2" fill-rule="evenodd"/><path class="svg-region-IBl" d="M 516.744 577.589 C 516.420 577.913, 511.226 578.504, 505.202 578.901 C 494.685 579.595, 493.966 579.792, 487.146 583.844 C 479.194 588.568, 473.624 594.976, 471.890 601.394 C 470.842 605.274, 471.292 615.992, 472.652 619.535 C 472.981 620.394, 476.007 622.912, 479.375 625.131 C 482.744 627.350, 488.001 631.867, 491.057 635.169 C 496.454 641, 496.880 641.240, 505.929 643.534 C 511.053 644.834, 516.877 646.973, 518.873 648.288 C 520.868 649.604, 523.063 650.490, 523.750 650.257 C 526.611 649.288, 524.203 634.597, 520.430 630 C 519.753 629.175, 518.756 626.870, 518.215 624.878 C 517.675 622.886, 515.185 618.744, 512.684 615.673 C 505.901 607.345, 505.116 598.648, 510.509 591.577 C 513.725 587.361, 519.312 585.711, 528.852 586.162 C 533.302 586.372, 536.004 586.112, 536.002 585.473 C 535.999 584.147, 533.039 579.852, 531.046 578.282 C 529.490 577.056, 517.842 576.492, 516.744 577.589" stroke="#b10e0e" fill="#b10e0e" fill-opacity="0.2" fill-rule="evenodd"/><path class="svg-region-MB" d="M 467.500 506.054 C 465.300 506.497, 459.128 507.864, 453.784 509.093 C 444.781 511.164, 443.054 511.255, 430.284 510.327 C 422.703 509.776, 415.117 508.734, 413.426 508.010 C 409.759 506.440, 406.626 507.086, 401.703 510.427 C 399.696 511.789, 396.247 513.445, 394.040 514.106 C 391.823 514.770, 389.307 516.408, 388.417 517.766 C 386.892 520.094, 386.996 520.764, 390.372 530.362 C 392.333 535.938, 394.874 544.550, 396.018 549.500 C 399.622 565.083, 404.909 579.744, 408.568 584.304 C 410.420 586.612, 414.509 591.822, 417.656 595.883 C 420.984 600.178, 425.521 604.637, 428.501 606.544 C 434.411 610.324, 448.778 614.995, 454.552 615.012 C 458.140 615.023, 466.064 616.769, 470.102 618.438 C 471.509 619.020, 471.692 617.963, 471.602 609.800 C 471.485 599.125, 472.547 596.365, 479.362 589.642 C 486.289 582.808, 493.867 579.614, 505 578.836 C 510.225 578.471, 517.875 577.891, 522 577.548 C 527.437 577.096, 529.916 577.278, 531.014 578.212 C 533.166 580.043, 536 584.673, 536 586.358 C 536 588.179, 538.166 589, 542.968 589 C 546.713 589, 546.784 588.929, 547.450 584.483 C 548.310 578.753, 551.277 571.966, 555.887 565.187 C 557.874 562.265, 560.656 557.990, 562.069 555.687 L 564.638 551.500 561.184 544.505 C 558.769 539.613, 557.579 535.629, 557.228 531.255 C 556.952 527.815, 556.607 525, 556.462 525 C 556.317 525, 553.791 526.121, 550.849 527.490 C 547.907 528.860, 544.791 529.985, 543.924 529.990 C 541.392 530.006, 538.289 525.950, 535.899 519.500 C 534.676 516.200, 533.186 512.970, 532.588 512.321 C 531.895 511.571, 525.549 510.882, 515.117 510.426 C 499.601 509.748, 498.626 509.585, 496.687 507.355 C 494.743 505.120, 494.051 505.006, 483.070 505.125 C 476.706 505.194, 469.700 505.612, 467.500 506.054 M 518.053 528.080 C 516.707 528.631, 512.882 529.028, 509.553 528.963 C 506.224 528.899, 501.895 529.145, 499.934 529.511 C 496.810 530.093, 496.215 530.692, 495.138 534.338 C 494.462 536.627, 493.683 539.011, 493.409 539.637 C 493.134 540.262, 494.772 542.926, 497.050 545.558 C 499.328 548.189, 502.290 552.082, 503.632 554.209 C 504.975 556.336, 507.294 558.564, 508.787 559.160 C 510.279 559.757, 513.136 561.089, 515.136 562.122 C 519.487 564.369, 533.120 564.806, 534.740 562.750 C 536.508 560.505, 537.093 555.943, 536.399 549.807 C 535.875 545.176, 534.955 542.785, 532.423 539.468 C 530.327 536.721, 529.015 533.763, 528.815 531.326 C 528.510 527.623, 528.372 527.493, 524.500 527.289 C 522.300 527.174, 519.399 527.529, 518.053 528.080 M 423.077 533.589 C 420.030 536.153, 420 536.271, 420.015 545.839 C 420.032 556.948, 421.051 559.742, 426.014 562.289 C 430.453 564.568, 434.757 563.848, 437.869 560.307 C 440.013 557.868, 440.190 556.940, 439.734 550.556 C 439.442 546.460, 438.330 541.522, 437.084 538.785 C 433.437 530.775, 428.568 528.969, 423.077 533.589" stroke="#f9c6c6" fill="#f9c6c6" fill-opacity="0.2" fill-rule="evenodd"/><path class="svg-region-LBl" d="M 422.992 533.660 L 419.832 536.320 420.166 547.140 C 420.480 557.323, 420.657 558.117, 423.175 560.632 C 426.882 564.336, 433.721 564.549, 437.419 561.076 C 444.234 554.674, 437.230 531, 428.521 531 C 427.219 531, 424.731 532.197, 422.992 533.660" stroke="#79495c" fill="#79495c" fill-opacity="0.2" fill-rule="evenodd"/><path class="svg-region-DMl" d="M 377 630.674 C 371.537 632.747, 368.864 634.598, 366.672 637.824 C 364.529 640.976, 364.276 642.147, 364.896 646.040 C 365.294 648.537, 367.315 654.162, 369.388 658.540 C 374.018 668.321, 375.421 671.507, 377.074 676 C 377.782 677.925, 379.894 682.650, 381.767 686.500 C 392.868 709.316, 393.303 710.654, 393.230 721.751 C 393.162 732, 393.162 732.003, 395.782 732.660 C 398.143 733.253, 421.045 731.056, 428.500 729.522 C 433.376 728.519, 439.425 726.695, 440.502 725.903 C 441.054 725.498, 443.943 724.205, 446.922 723.031 C 454.509 720.040, 461.039 717.171, 464.154 715.459 C 465.614 714.656, 467.387 714, 468.094 714 C 468.801 714, 472.332 712.252, 475.940 710.115 C 482.632 706.152, 488.973 702.610, 502.104 695.500 C 510.156 691.140, 513.848 687.795, 522.690 676.850 C 528.021 670.250, 528.494 669.261, 528.427 664.853 C 528.384 661.946, 527.724 659.349, 526.755 658.275 C 525.876 657.299, 524.874 655.369, 524.529 653.986 C 523.546 650.048, 513.490 644.176, 507.500 644.043 C 506.400 644.019, 503.133 643.099, 500.239 641.999 C 496.193 640.462, 492.499 639.993, 484.239 639.968 C 471.853 639.932, 457.552 637.972, 447.500 634.933 C 442.384 633.386, 435.654 632.548, 422.500 631.819 C 398.159 630.470, 378.820 629.983, 377 630.674" stroke="#68533d" fill="#68533d" fill-opacity="0.2" fill-rule="evenodd"/><path class="svg-region-PMl" d="M 357.696 644.475 C 353.265 646.786, 349.126 650.057, 342.819 656.232 C 339.599 659.384, 333.508 664.295, 329.285 667.145 C 320.458 673.102, 306.843 685.505, 302.614 691.443 C 301.024 693.674, 298.031 697.075, 295.962 699 C 291.006 703.611, 289 708.738, 289 716.794 C 289 723.202, 289.092 723.431, 293.285 727.449 C 298.713 732.649, 302.430 733.690, 318.500 734.510 C 325.650 734.875, 334.340 735.809, 337.812 736.587 C 345.078 738.214, 356.004 738.433, 360.832 737.048 C 362.657 736.525, 368.616 735.577, 374.075 734.943 C 379.534 734.308, 385.913 733.225, 388.250 732.536 C 392.417 731.307, 392.514 731.178, 393.240 725.892 C 394.667 715.496, 392.694 708.755, 381.688 686.432 C 379.771 682.545, 377.489 677.263, 376.617 674.694 C 375.745 672.125, 374.611 669.231, 374.096 668.262 C 369.523 659.650, 365 648.629, 365 646.098 C 365 643.550, 364.600 643.001, 362.750 643.006 C 361.512 643.010, 359.238 643.671, 357.696 644.475" stroke="#90cf92" fill="#90cf92" fill-opacity="0.2" fill-rule="evenodd"/><path class="svg-region-PV" d="M 283.429 715.417 C 278.817 721.276, 273.775 726.075, 268.168 729.943 C 265.220 731.977, 266.790 733.433, 274.826 736.115 C 283.710 739.080, 300.556 739.333, 306.241 736.587 C 308.299 735.594, 309.730 734.373, 309.422 733.874 C 309.114 733.375, 308.407 733.248, 307.852 733.592 C 305.855 734.826, 297.865 731.652, 293.724 727.980 C 289.586 724.310, 289.490 724.079, 289 716.604 L 288.500 708.974 283.429 715.417" stroke="#b09658" fill="#b09658" fill-opacity="0.2" fill-rule="evenodd"/><path class="svg-region-Fl" d="M 306.500 528.200 C 304.703 529.315, 299.318 530.986, 287.500 534.099 C 279.665 536.162, 267.387 538.309, 260.036 538.900 C 252.621 539.496, 252.553 539.528, 249.536 543.789 C 247.866 546.148, 243.912 551.031, 240.750 554.640 C 234.432 561.850, 234.565 561.333, 234.968 577.098 C 235.172 585.068, 234.962 586.097, 232.094 591.179 C 227.960 598.505, 227.698 607.902, 231.742 603.858 C 232.597 603.003, 233.838 603.170, 236.692 604.527 C 242.653 607.360, 249.266 607.631, 253.371 605.208 C 256.302 603.479, 258.921 603.120, 270.663 602.835 C 282.303 602.553, 285.085 602.780, 288.186 604.266 C 292.741 606.449, 302.154 607.746, 325.863 609.454 C 341.138 610.555, 344.663 611.104, 346.826 612.719 C 349.791 614.933, 352.819 619.663, 352.927 622.250 C 353.018 624.421, 352.838 624.432, 358.667 621.904 C 362.465 620.257, 364.844 619.911, 369.779 620.291 C 376.733 620.826, 376.665 621.195, 370.876 614.331 C 369.406 612.588, 367.910 609.438, 367.552 607.331 C 366.822 603.034, 363.872 597.579, 356.455 586.819 C 353.681 582.794, 350.794 577.925, 350.041 576 C 349.287 574.075, 348.087 571.809, 347.374 570.963 C 346.660 570.118, 345.104 567.193, 343.915 564.463 C 339.913 555.274, 338.323 551.517, 336.945 548 C 336.191 546.075, 334.770 543.628, 333.787 542.561 C 332.804 541.495, 332 540.249, 332 539.792 C 332 537.794, 326.768 530.932, 324.255 529.634 C 320.262 527.571, 308.984 526.660, 306.500 528.200" stroke="#5ca7a9" fill="#5ca7a9" fill-opacity="0.2" fill-rule="evenodd"/><path class="svg-region-PCl" d="M 266.714 602.693 C 259.240 602.983, 256.169 603.536, 253.714 605.033 C 249.552 607.571, 243.724 607.529, 238.339 604.922 C 229.538 600.662, 229.061 601.578, 224.491 631.500 C 224.239 633.150, 224.427 635.122, 224.908 635.883 C 225.641 637.042, 226.160 637.001, 228.114 635.633 C 229.607 634.587, 232.490 634, 236.132 634 C 240.965 634, 243.333 634.758, 251.899 639.046 C 257.443 641.822, 262.396 644.859, 262.905 645.796 C 264.128 648.048, 270.939 651.456, 282.258 655.480 C 284.875 656.410, 288.855 658.708, 291.103 660.586 C 293.350 662.464, 296.239 664, 297.522 664 C 301.215 664, 303.990 668.410, 304.058 674.385 C 304.089 677.198, 304.430 681.272, 304.814 683.438 L 305.514 687.376 313.507 679.928 C 317.903 675.831, 325.453 669.831, 330.285 666.594 C 335.117 663.358, 339.982 659.429, 341.096 657.865 C 344.005 653.780, 356.923 644.365, 360.750 643.541 C 362.538 643.156, 364 642.490, 364 642.061 C 364 640.058, 372.309 632.091, 375.019 631.496 C 376.658 631.136, 378 630.228, 378 629.480 C 378 627.383, 376.366 626.855, 374.993 628.508 C 373.352 630.485, 364.664 633, 359.473 633 C 355.560 633, 352 630.857, 352 628.500 C 352 628.037, 352.745 626.835, 353.655 625.829 C 354.565 624.823, 354.846 624, 354.280 624 C 353.713 624, 352.993 622.713, 352.678 621.140 C 351.824 616.871, 347.371 612.169, 343.177 611.107 C 341.155 610.595, 333.875 609.884, 327 609.527 C 309.981 608.644, 292.284 606.292, 288.569 604.419 C 284.919 602.579, 279.879 602.181, 266.714 602.693 M 337 625.653 C 322.848 630.541, 317.373 635.516, 321.551 639.694 C 322.745 640.888, 324.295 641.096, 328.301 640.597 C 337.789 639.417, 347.717 632.889, 348.220 627.500 C 348.480 624.716, 348.248 624.486, 345 624.300 C 343.075 624.189, 339.475 624.799, 337 625.653" stroke="#465ee0" fill="#465ee0" fill-opacity="0.2" fill-rule="evenodd"/><path class="svg-region-Ol" d="M 686.734 292.432 C 679.283 295.090, 671.483 300.673, 661.487 310.500 C 652.265 319.566, 651.051 321.196, 648.494 327.948 C 645.699 335.330, 642.708 347.939, 641.010 359.500 C 640.525 362.800, 639.405 369.100, 638.521 373.500 C 637.032 380.907, 636.015 398.181, 634.515 441.500 C 633.267 477.547, 636.625 529.880, 640.989 542.399 C 641.545 543.994, 642 547.369, 642 549.899 C 642 555.069, 644.180 566.999, 646.480 574.416 C 650.921 588.740, 665.250 605.810, 690.992 627.441 C 700.457 635.395, 705.120 638.224, 717.284 643.392 C 723.317 645.955, 748.723 645.674, 755.851 642.965 C 775.165 635.624, 787.321 623.688, 794.515 605 C 795.256 603.075, 796.814 599.025, 797.977 596 C 800.334 589.873, 807.457 555.436, 809.251 541.500 C 809.888 536.550, 810.412 521.700, 810.416 508.500 C 810.424 479.243, 808.383 458.749, 803.913 443.209 C 802.219 437.319, 800.021 429.575, 799.029 426 C 797.509 420.521, 792.469 406.850, 786.494 392 C 785.719 390.075, 784.652 386.925, 784.122 385 C 783.592 383.075, 782.190 379.025, 781.007 376 C 779.823 372.975, 778.367 369.150, 777.771 367.500 C 777.175 365.850, 775.451 362.700, 773.939 360.500 C 772.427 358.300, 768.373 351.775, 764.931 346 C 758.966 335.992, 755.153 330.091, 753.947 329 C 753.643 328.725, 752.098 326.700, 750.515 324.500 C 744.772 316.524, 733.502 305.871, 727 302.274 C 723.425 300.296, 719.789 298.075, 718.919 297.337 C 718.050 296.600, 714.121 294.872, 710.188 293.498 C 702.109 290.676, 692.837 290.254, 686.734 292.432" stroke="#aa444d" fill="#aa444d" fill-opacity="0.2" fill-rule="evenodd"/><path class="svg-region-VOC" d="M 518.053 528.104 C 516.707 528.642, 512.882 529.028, 509.553 528.963 C 506.224 528.899, 501.925 529.144, 500 529.510 C 496.811 530.115, 496.343 530.661, 494.735 535.659 L 492.969 541.145 497.985 546.772 C 500.743 549.867, 503.015 552.872, 503.033 553.450 C 503.097 555.461, 506.756 558.901, 509.588 559.612 C 511.157 560.005, 513.874 561.173, 515.627 562.207 C 518.166 563.705, 520.405 564.028, 526.647 563.794 C 534.139 563.513, 534.539 563.377, 535.833 560.669 C 536.812 558.622, 536.993 555.905, 536.485 550.854 C 535.903 545.055, 535.209 543.116, 532.392 539.426 C 529.845 536.089, 529 533.989, 529 530.991 L 529 527 524.750 527.063 C 522.413 527.098, 519.399 527.567, 518.053 528.104" stroke="#ff8f93" fill="#ff8f93" fill-opacity="0.2" fill-rule="evenodd"/><path class="svg-region-OABl" d="M 611.378 431.680 C 608.496 434.739, 602.014 444.408, 601.978 445.702 C 601.966 446.141, 601.076 447.625, 600 449 C 597.482 452.219, 597.513 453.592, 600.219 458.700 L 602.443 462.899 600.072 465.423 C 598.768 466.811, 596.213 468.966, 594.395 470.213 C 590.724 472.728, 588.879 476.266, 586.074 486.174 C 585.035 489.845, 582.652 495.470, 580.778 498.674 C 578.905 501.878, 576.118 507.946, 574.586 512.157 C 571.306 521.172, 571.577 523.706, 576.600 531.009 C 578.871 534.310, 580.225 537.622, 580.584 540.755 C 580.884 543.365, 581.363 546.625, 581.648 548 L 582.167 550.500 584.574 547.705 C 585.898 546.168, 590.309 543.330, 594.375 541.399 C 600.447 538.515, 602.703 537.942, 606.988 538.194 C 612.029 538.490, 612.292 538.654, 614.706 543 C 616.081 545.475, 617.742 548.175, 618.398 549 C 619.054 549.825, 620.434 552.948, 621.464 555.940 C 622.963 560.293, 623.354 564.488, 623.419 576.940 C 623.513 594.956, 622.640 598.726, 615.518 611.074 C 613.033 615.382, 611 619.153, 611 619.453 C 611 622.129, 619.944 614.754, 628.831 604.750 C 630.663 602.688, 632.526 601, 632.971 601 C 633.416 601, 634.717 599.087, 635.863 596.750 C 639.578 589.171, 642.377 587, 648.434 587 C 650.395 587, 652 586.832, 652 586.626 C 652 586.420, 650.918 584.283, 649.595 581.876 C 646.460 576.174, 642.999 561.999, 641.952 550.578 C 641.495 545.585, 640.677 540.044, 640.134 538.265 C 639.592 536.487, 638.616 530.637, 637.966 525.265 C 637.268 519.505, 635.849 513.450, 634.504 510.500 C 629.802 500.186, 627.890 492.087, 625.059 470.500 C 623.132 455.802, 621.719 447.990, 618.550 434.502 C 617.138 428.490, 615.128 427.699, 611.378 431.680" stroke="#81244d" fill="#81244d" fill-opacity="0.2" fill-rule="evenodd"/><path class="svg-region-SOTl" d="M 532 448.500 C 530.625 449.286, 528.725 449.945, 527.777 449.965 C 525.421 450.013, 517.415 457.583, 515.931 461.165 C 513.111 467.974, 519.658 493.152, 525.512 498.010 C 527.860 499.958, 531.634 507.769, 534.975 517.590 C 537.921 526.253, 540.753 529.925, 544.500 529.943 C 545.600 529.949, 548.750 528.726, 551.500 527.227 L 556.500 524.500 557.086 515.500 C 557.549 508.388, 558.345 504.974, 560.882 499.227 C 562.991 494.448, 564.408 489.190, 565.011 483.900 C 565.517 479.471, 566.564 474.575, 567.340 473.020 C 568.574 470.547, 568.549 469.778, 567.138 466.866 C 565.399 463.274, 558.420 456, 556.713 456 C 556.138 456, 552.419 453.975, 548.448 451.500 C 540.705 446.674, 536.527 445.912, 532 448.500" stroke="#995b45" fill="#995b45" fill-opacity="0.2" fill-rule="evenodd"/><path class="svg-region-LBPCl" d="M 360 621.331 C 355.233 623.560, 352 626.239, 352 627.960 C 352 630.983, 355.329 633, 360.318 633 C 365.335 633, 374.830 629.871, 376.157 627.781 C 377.602 625.504, 377.051 622.097, 375.066 621.035 C 372.515 619.670, 363.160 619.854, 360 621.331 M 334.500 626.456 C 321.495 631.374, 317.412 635.554, 321.559 639.702 C 325.023 643.166, 340.718 638.389, 346.361 632.153 C 347.312 631.102, 348.182 628.951, 348.295 627.371 C 348.487 624.677, 348.254 624.490, 344.500 624.344 C 342.300 624.258, 337.800 625.208, 334.500 626.456" stroke="#daffff" fill="#daffff" fill-opacity="0.2" fill-rule="evenodd"/><path class="svg-region-PNl" d="M 219.697 648.500 C 217.828 650.425, 215.660 652, 214.880 652 C 214.100 652, 208.842 654.250, 203.197 657 C 197.551 659.750, 192.664 662, 192.336 662 C 192.007 662, 189.547 663.575, 186.867 665.500 C 184.188 667.425, 181.560 669, 181.027 669 C 180.107 669, 171.058 674.829, 170 676.102 C 168.944 677.373, 158.284 685.734, 153.809 688.800 C 147.610 693.048, 131.300 709.484, 123.345 719.500 C 119.851 723.900, 116.543 728.044, 115.995 728.709 C 113.704 731.487, 106.759 746.909, 105.506 752 C 103.144 761.599, 101.762 766.437, 100.752 768.649 C 99.366 771.682, 100.619 786.769, 102.495 789.632 C 104.451 792.617, 107.396 793.324, 115.764 792.814 C 123.496 792.343, 127.443 790.685, 138.167 783.402 C 142.383 780.538, 147.283 777.877, 149.055 777.488 C 150.828 777.099, 155.258 774.917, 158.900 772.640 C 162.542 770.363, 166.417 767.948, 167.511 767.273 C 168.605 766.598, 172.902 764.313, 177.061 762.195 C 187.552 756.852, 200.842 747.557, 208.473 740.225 C 212.938 735.936, 223.598 731.006, 230.226 730.165 C 233.127 729.798, 238.200 729.821, 241.500 730.216 C 244.800 730.612, 251.683 731.237, 256.796 731.606 C 265.466 732.232, 266.227 732.133, 268.085 730.139 C 269.181 728.962, 270.422 728, 270.844 728 C 273.086 728, 291 707.576, 291 705.018 C 291 704.462, 293.173 701.867, 295.829 699.253 C 304.744 690.477, 305.146 689.501, 304.373 678.503 C 303.611 667.660, 302.112 664.672, 296.915 663.633 C 295.184 663.287, 292.297 661.712, 290.499 660.133 C 288.701 658.554, 283.915 656.054, 279.865 654.577 C 275.814 653.101, 270.619 650.931, 268.319 649.755 L 264.139 647.617 259.541 651.855 L 254.944 656.093 248.722 655.406 C 245.300 655.028, 240.475 654.111, 238 653.370 C 235.525 652.628, 232.566 652.017, 231.424 652.011 C 229.220 651.999, 225 648.173, 225 646.186 C 225 644.110, 223.196 644.898, 219.697 648.500" stroke="#bbc0d1" fill="#bbc0d1" fill-opacity="0.2" fill-rule="evenodd"/><path class="svg-region-OVl" d="M 551.882 423.250 C 551.229 424.488, 549.188 427.062, 547.347 428.971 C 544.195 432.239, 544 432.853, 544 439.498 C 544 448.196, 544.971 449.722, 553.794 454.894 C 560.708 458.947, 564.825 462.697, 567.013 466.936 L 568.270 469.372 570.394 465.208 C 572.919 460.259, 578.264 454.369, 581.025 453.492 C 583.166 452.812, 583.595 451.486, 581.994 450.496 C 581.440 450.154, 578.905 446.684, 576.360 442.785 C 570.040 433.103, 557.798 421.026, 554.285 421.007 C 553.617 421.003, 552.536 422.012, 551.882 423.250" stroke="#593939" fill="#593939" fill-opacity="0.2" fill-rule="evenodd"/><path class="svg-region-COl" d="M 227.077 636.589 C 224.774 638.527, 224 640.016, 224 642.512 C 224 646.651, 228.208 652, 231.463 652 C 232.720 652, 235.493 652.608, 237.624 653.351 C 239.756 654.094, 244.481 655.001, 248.124 655.366 C 254.543 656.009, 254.873 655.929, 258.809 652.765 C 261.043 650.969, 263.136 648.872, 263.460 648.105 C 264.452 645.753, 260.912 642.932, 251.244 638.369 C 243.567 634.746, 240.978 634, 236.071 634 C 231.164 634, 229.628 634.442, 227.077 636.589" stroke="#906d99" fill="#906d99" fill-opacity="0.2" fill-rule="evenodd"/><path class="svg-region-HRl" d="M 379.156 582.508 C 374.377 585.240, 369.041 590.736, 366.331 595.717 C 364.673 598.765, 364.671 599.184, 366.295 603.717 C 367.238 606.348, 368.008 609.106, 368.005 609.847 C 368.002 610.587, 369.771 613.205, 371.935 615.664 C 374.100 618.123, 376.158 621.567, 376.510 623.317 C 377.918 630.326, 376.922 629.851, 391.300 630.361 C 423.225 631.494, 439.529 632.831, 447 634.930 C 451.125 636.089, 458.775 637.695, 464 638.499 C 474.232 640.074, 494 640.522, 494 639.180 C 494 637.365, 486.915 630.266, 481.381 626.536 C 478.146 624.356, 474.268 621.577, 472.762 620.360 C 469.346 617.602, 460.609 615, 454.763 615 C 448.822 615, 433.078 609.837, 427.667 606.115 C 425.268 604.464, 422.592 602.026, 421.721 600.697 C 420.850 599.368, 419.529 597.655, 418.786 596.890 C 418.042 596.126, 416.425 594.064, 415.191 592.309 C 412.187 588.035, 406.691 582.440, 404.174 581.093 C 403.050 580.492, 397.939 580.005, 392.816 580.012 C 384.741 580.022, 382.921 580.355, 379.156 582.508" stroke="#d9dba1" fill="#d9dba1" fill-opacity="0.2" fill-rule="evenodd"/>
    </svg>