<svg xmlns="http://www.w3.org/2000/svg" width="1078" height="1151" viewBox="0 0 1078 1151" version="1.1">
    <path class="svg-region-V" d="M 486.014 217.087 C 482.446 218.259, 478.634 219.844, 477.541 220.609 C 476.449 221.374, 474.177 222, 472.494 222 C 469.370 222, 461.349 226.443, 455.098 231.636 C 451.146 234.920, 446.137 237.019, 440.534 237.741 C 437.545 238.125, 435.206 239.505, 431.034 243.346 C 419.917 253.579, 407.864 266.668, 403.267 273.500 C 400.676 277.350, 397.791 281.400, 396.855 282.500 C 395.920 283.600, 393.489 287.650, 391.453 291.500 C 389.417 295.350, 386.528 300.300, 385.033 302.500 C 381.616 307.528, 375.552 319.239, 373.641 324.500 C 370.978 331.830, 363.167 350.094, 362.176 351.305 C 361.638 351.962, 360.011 356.049, 358.561 360.386 C 357.110 364.724, 354.591 370.799, 352.963 373.886 C 350.673 378.231, 350.004 380.809, 350.002 385.290 C 350.001 389.147, 349.317 392.419, 347.953 395.091 L 345.907 399.103 347.991 406.801 C 349.137 411.036, 350.898 415.639, 351.905 417.031 C 355.329 421.765, 358 427.912, 358.065 431.210 C 358.119 433.936, 359.089 435.314, 363.727 439.250 C 366.805 441.863, 370.231 444, 371.340 444 C 374.344 444, 379.563 442.171, 388.500 437.987 C 392.900 435.927, 398.267 433.927, 400.426 433.542 C 403.526 432.990, 405.706 431.437, 410.772 426.172 C 414.302 422.502, 418.286 417.925, 419.625 416 C 420.963 414.075, 423.133 411.026, 424.446 409.225 C 425.759 407.424, 428.279 402.474, 430.046 398.225 C 431.813 393.976, 434.489 388.700, 435.995 386.500 C 437.500 384.300, 440.050 380.025, 441.662 377 C 449.511 362.271, 453.851 356.962, 467.286 345.654 C 474.404 339.663, 486.125 334.835, 494.030 334.638 C 499.537 334.501, 499.600 334.533, 508.530 342.124 C 513.464 346.317, 519.750 352.293, 522.500 355.404 C 525.250 358.515, 531.294 365.097, 535.931 370.030 L 544.362 379 549.616 379 C 552.506 379, 555.912 378.586, 557.185 378.081 C 561.778 376.258, 576.323 360.988, 600.431 332.681 C 605.894 326.267, 611.294 320.754, 612.431 320.429 C 616.947 319.140, 623 315.925, 623 314.816 C 623 314.170, 622.570 312.260, 622.044 310.571 C 619.462 302.282, 617.049 292.866, 616.003 287 C 614.544 278.820, 612.698 274.622, 605.883 263.990 C 602.889 259.321, 599.783 254.202, 598.979 252.615 C 597.090 248.885, 587.506 240.344, 584.310 239.542 C 582.950 239.200, 579.642 237.476, 576.959 235.710 C 567.407 229.423, 564.810 227.987, 558.238 225.358 C 554.579 223.894, 547.908 221.685, 543.414 220.449 C 538.920 219.212, 534.293 217.692, 533.131 217.070 C 531.875 216.398, 523.202 215.740, 511.759 215.447 C 494.030 214.995, 491.985 215.125, 486.014 217.087" stroke="#dd8a8a" fill="#dd8a8a" fill-opacity="0.2" fill-rule="evenodd"/><path class="svg-region-SV" d="M 489 335.005 C 481.080 336.759, 474.338 340.086, 467.126 345.801 C 455.050 355.369, 449.729 361.819, 442.210 376 C 440.898 378.475, 438.348 382.750, 436.544 385.500 C 434.740 388.250, 431.593 394.325, 429.551 399 C 427.508 403.675, 424.636 409.047, 423.169 410.937 C 421.701 412.828, 420.050 415.159, 419.500 416.117 C 418.950 417.076, 415.475 421.042, 411.777 424.930 C 404.858 432.207, 404.901 432.714, 412.307 431.068 C 414.613 430.555, 419.425 429.621, 423 428.992 C 426.575 428.363, 431.525 427.467, 434 427 C 436.475 426.533, 441.425 425.600, 445 424.926 C 448.575 424.252, 451.950 423.373, 452.500 422.973 C 453.050 422.572, 454.616 421.902, 455.980 421.482 C 457.344 421.063, 459.662 419.432, 461.131 417.860 C 462.600 416.287, 464.790 415, 465.997 415 C 468.805 415, 478.293 412.251, 481.801 410.420 C 483.285 409.646, 485.483 409.010, 486.685 409.006 C 487.887 409.003, 490.137 408.490, 491.685 407.867 C 493.233 407.243, 502.059 406.155, 511.297 405.449 C 520.536 404.743, 531.176 403.614, 534.942 402.941 L 541.790 401.717 542.395 397.931 C 543.001 394.141, 546.777 390, 549.626 390 C 551.923 390, 560.982 379.484, 560.996 376.801 C 560.998 376.417, 559.439 376.754, 557.532 377.551 C 555.625 378.348, 551.959 379, 549.387 379 C 544.890 379, 544.435 378.717, 537.605 371.679 C 533.697 367.653, 527.466 360.941, 523.757 356.765 C 520.049 352.589, 512.946 345.758, 507.973 341.586 C 498.387 333.542, 497.303 333.166, 489 335.005" stroke="#c666b5" fill="#c666b5" fill-opacity="0.2" fill-rule="evenodd"/><path class="svg-region-SF" d="M 617.985 317.949 C 616.618 318.922, 614.327 319.998, 612.894 320.341 C 611.192 320.749, 606.854 325.029, 600.394 332.672 C 587.860 347.503, 568.591 368.747, 565.392 371.264 C 564.046 372.323, 562.054 374.934, 560.966 377.067 C 558.150 382.586, 553.302 387.805, 548.911 390.046 C 541.157 394.001, 539.809 400.217, 545.385 406.305 C 547.247 408.338, 549.723 410, 550.889 410 C 553.118 410, 568 423.995, 568 426.092 C 568 426.723, 570.587 429.933, 573.750 433.224 C 576.913 436.515, 580.703 440.511, 582.173 442.104 C 584.515 444.641, 585.546 445, 590.489 445 C 596.722 445, 598.613 444.259, 604.500 439.507 C 606.700 437.732, 611.239 434.897, 614.587 433.208 C 617.934 431.518, 622.049 428.569, 623.731 426.654 C 627.058 422.865, 627.153 422.401, 629.010 401 C 629.606 394.125, 630.308 386.925, 630.570 385 C 630.831 383.075, 631.035 380.825, 631.021 380 C 630.459 344.791, 629.683 331.203, 628.022 327.500 C 627.035 325.300, 625.749 322.290, 625.163 320.812 C 623.589 316.835, 621.003 315.803, 617.985 317.949" stroke="#8c6b55" fill="#8c6b55" fill-opacity="0.2" fill-rule="evenodd"/><path class="svg-region-AAB" d="M 626.575 518.059 C 625.516 519.127, 623.823 520, 622.811 520 C 620.898 520, 617.708 521.535, 614.812 523.848 C 613.669 524.762, 611.863 524.984, 609.210 524.535 C 605.543 523.916, 605.216 524.065, 604.045 526.892 C 601.722 532.500, 591.820 541.717, 583.402 546.106 C 575.728 550.108, 575.203 550.231, 565.211 550.363 C 553.437 550.520, 554.327 549.662, 553.649 561.500 C 553.429 565.350, 552.518 570.961, 551.624 573.968 C 549.851 579.937, 549.338 601.144, 550.837 606.507 C 551.305 608.182, 551.244 613.426, 550.697 618.414 C 549.847 626.179, 549.945 627.742, 551.455 630.546 C 553.277 633.930, 556.603 635.988, 560.297 636.018 C 561.509 636.028, 564.934 637.378, 567.910 639.018 C 573.080 641.868, 573.855 641.999, 585.410 641.985 C 592.059 641.976, 597.959 641.639, 598.520 641.235 C 599.082 640.831, 600.084 639.263, 600.749 637.750 C 601.596 635.823, 602.693 635, 604.417 635 C 607.796 635, 617.516 625.005, 621.890 617.033 C 629.236 603.642, 630.707 597.684, 631.479 578.181 C 631.747 571.406, 632.213 565.464, 632.515 564.976 C 632.816 564.489, 632.528 555.407, 631.875 544.795 C 631.222 534.183, 630.773 523.362, 630.876 520.750 C 631.083 515.500, 629.868 514.740, 626.575 518.059" stroke="#7f3c1a" fill="#7f3c1a" fill-opacity="0.2" fill-rule="evenodd"/><path class="svg-region-APB" d="M 622.623 427.864 C 621.695 428.889, 618.160 431.183, 614.767 432.962 C 611.374 434.740, 606.776 437.667, 604.549 439.465 C 599.355 443.660, 596.724 445, 593.681 445 C 592.161 445, 590.599 445.963, 589.568 447.536 C 588.654 448.931, 583.990 454.023, 579.203 458.852 C 574.416 463.680, 568.633 470.214, 566.352 473.371 C 562.414 478.820, 562.169 479.579, 561.531 488.306 C 561.162 493.363, 559.991 500.089, 558.930 503.254 C 557.868 506.419, 557 510.121, 557 511.481 C 557 512.841, 555.875 516.943, 554.500 520.596 C 550.689 530.720, 551.310 545.167, 555.746 549.603 C 557.163 551.020, 558.820 551.182, 566.647 550.668 C 574.645 550.143, 576.852 549.567, 583.188 546.354 C 591.114 542.335, 597.521 536.902, 602.095 530.320 C 605.665 525.183, 605.749 523.405, 602.459 522.579 C 599.827 521.918, 594 513.970, 594 511.039 C 594 510.176, 593.100 507.791, 592 505.739 C 588.962 500.071, 589.388 495.602, 593.500 490 C 595.425 487.378, 597 484.723, 597 484.101 C 597 483.479, 598.350 480.578, 600 477.654 C 601.650 474.730, 603 471.421, 603 470.300 C 603 469.179, 604.714 466.065, 606.809 463.381 C 611.365 457.543, 613.936 450.536, 612.170 448.770 C 610.497 447.097, 610.726 442.417, 612.571 440.571 C 614.781 438.362, 620.242 438.616, 623.365 441.073 L 626 443.145 626 434.573 C 626 429.858, 625.620 426, 625.155 426 C 624.690 426, 623.551 426.839, 622.623 427.864" stroke="#ac7444" fill="#ac7444" fill-opacity="0.2" fill-rule="evenodd"/><path class="svg-region-PC" d="M 546 555.734 C 545.175 556.050, 542.099 558.352, 539.165 560.849 C 534.465 564.848, 533.884 565.752, 534.288 568.444 C 534.647 570.838, 533.756 573.016, 530.174 578.500 C 521.991 591.029, 513.086 605.406, 510.823 609.742 L 508.610 613.983 511.197 616.742 C 512.621 618.259, 514.914 621.750, 516.294 624.500 C 519.948 631.785, 522.766 634.017, 529.135 634.675 C 533.513 635.126, 535.672 634.743, 540.727 632.615 C 544.144 631.177, 547.544 630, 548.282 630 C 550.127 630, 552.092 609.933, 550.730 605 C 549.245 599.621, 550.415 575.258, 552.373 570.782 C 553.285 568.698, 554 564.413, 554 561.032 L 554 555 550.750 555.079 C 548.962 555.122, 546.825 555.417, 546 555.734" stroke="#cda789" fill="#cda789" fill-opacity="0.2" fill-rule="evenodd"/><path class="svg-region-DB" d="M 534 403.047 C 532.075 403.510, 523.075 404.401, 514 405.026 C 504.925 405.651, 495.507 406.800, 493.072 407.581 C 490.636 408.361, 487.711 409.003, 486.572 409.006 C 485.432 409.010, 483.285 409.646, 481.801 410.420 C 478.322 412.235, 468.814 415, 466.051 415 C 464.873 415, 462.770 416.139, 461.378 417.531 C 456.488 422.421, 451.031 424.036, 422.500 429.040 C 403.786 432.321, 396.295 434.281, 388.767 437.866 C 376.666 443.628, 370.518 445.118, 368.242 442.842 C 366.395 440.995, 364.341 443.436, 363.679 448.265 C 362.977 453.395, 365.801 462.805, 373.504 481 C 376.415 487.875, 379.132 494.621, 379.542 495.991 C 379.952 497.361, 381.573 501.259, 383.144 504.653 C 384.715 508.047, 386 511.512, 386 512.353 C 386 515.032, 387.806 515.121, 390.189 512.561 C 393.761 508.723, 399.941 506.976, 407.461 507.679 C 412.462 508.146, 414.718 507.887, 417.606 506.517 C 420.728 505.035, 425.076 504.684, 444.910 504.314 C 471.032 503.825, 477.177 504.503, 494.346 509.764 C 503.188 512.474, 504.463 512.640, 506.846 511.397 C 511.426 509.007, 517.109 509.634, 521.741 513.041 C 524.444 515.029, 528.330 516.593, 532.965 517.560 C 536.864 518.373, 541.730 519.665, 543.777 520.431 C 550.063 522.782, 553.744 523.109, 554.410 521.375 C 555.446 518.675, 555.060 518, 552.480 518 C 549.005 518, 542.334 513.589, 539.949 509.715 C 537.159 505.180, 532 488.689, 532 484.304 C 532 482.284, 532.855 478.802, 533.899 476.566 C 534.944 474.330, 536.084 470.925, 536.432 469 C 537.214 464.682, 540.156 461, 542.823 461 C 544.814 461, 552.077 465.277, 559.255 470.676 C 562.462 473.087, 562.939 473.938, 562.523 476.500 C 562.057 479.367, 562.103 479.411, 563.558 477.500 C 564.395 476.400, 565.926 474.526, 566.959 473.335 C 567.993 472.145, 569.380 470.120, 570.041 468.835 C 570.703 467.551, 572.364 465.299, 573.731 463.831 C 576.167 461.218, 576.120 459, 573.629 459 C 572.940 459, 570.513 458.100, 568.236 457 C 565.959 455.900, 563.625 455, 563.048 455 C 562.472 455, 562 454.599, 562 454.109 C 562 453.618, 560.145 452.475, 557.879 451.568 C 553.769 449.924, 553.759 449.907, 554.430 445.710 C 554.800 443.394, 555.529 441.072, 556.051 440.550 C 557.599 439, 557.189 430.402, 555.500 429 C 553.638 427.455, 553.584 425.053, 555.351 422.473 C 558.069 418.504, 558.092 415.578, 555.427 412.705 C 554.048 411.217, 552.283 410, 551.507 410 C 549.160 410, 545 407.759, 545 406.494 C 545 404.683, 541.577 401.988, 539.421 402.102 C 538.365 402.159, 535.925 402.584, 534 403.047" stroke="#e8b1e4" fill="#e8b1e4" fill-opacity="0.2" fill-rule="evenodd"/><path class="svg-region-IBl" d="M 492.500 587.029 C 488.100 588.616, 482.873 589.933, 480.885 589.957 C 476.244 590.012, 472.832 592.736, 470.584 598.177 C 469.602 600.555, 468.169 603.978, 467.399 605.784 C 465.338 610.622, 465.654 616.852, 468.233 622.211 C 469.836 625.541, 471.107 626.934, 472.572 626.961 C 473.711 626.983, 476.861 627.687, 479.572 628.526 C 482.282 629.366, 487.650 630.981, 491.500 632.116 C 495.350 633.251, 499.850 634.641, 501.500 635.204 C 503.150 635.768, 505.850 636.459, 507.500 636.740 C 509.150 637.021, 510.989 637.639, 511.587 638.113 C 512.262 638.647, 513.563 638.030, 515.012 636.488 C 516.297 635.119, 518.395 634, 519.674 634 C 522.375 634, 522.668 632.799, 520.422 630.935 C 519.554 630.215, 517.706 627.347, 516.315 624.563 C 514.923 621.778, 512.679 618.319, 511.326 616.876 C 509.003 614.397, 508.947 614.066, 510.300 610.876 C 511.088 609.019, 513.345 605.069, 515.316 602.099 C 518.834 596.796, 518.873 596.631, 517.399 593.099 C 514.916 587.149, 513.295 585.309, 509.943 584.639 C 504.460 583.542, 500.764 584.049, 492.500 587.029" stroke="#b10e0e" fill="#b10e0e" fill-opacity="0.2" fill-rule="evenodd"/><path class="svg-region-MB" d="M 425.500 504.958 C 421.650 505.324, 417.409 506.216, 416.076 506.940 C 414.424 507.837, 411.674 508.072, 407.442 507.677 C 400.339 507.014, 395.423 508.093, 391.502 511.177 C 389.022 513.128, 388.830 513.744, 389.400 517.912 C 390.231 523.993, 393.542 538.143, 397.024 550.500 C 398.620 556.161, 400.069 564.238, 400.363 569.116 C 400.650 573.855, 401.652 580.914, 402.590 584.803 C 404.475 592.610, 405.633 593.792, 418.500 601.039 C 421.800 602.897, 428.841 607.474, 434.146 611.209 C 439.451 614.944, 444.209 618, 444.718 618 C 445.227 618, 449.183 620.942, 453.508 624.538 C 460.497 630.348, 461.714 631.004, 464.436 630.420 C 470.001 629.227, 471.052 628.267, 469.955 625.382 C 469.415 623.962, 468.305 621.845, 467.487 620.678 C 465.850 618.341, 465.426 608.473, 466.923 607.548 C 467.431 607.234, 468.150 605.520, 468.521 603.739 C 469.554 598.784, 473.855 592.005, 476.638 590.948 C 478.009 590.426, 480.266 590, 481.655 590 C 483.043 590, 488.242 588.594, 493.207 586.875 C 500.483 584.355, 503.202 583.864, 507.223 584.340 C 513.275 585.057, 514.336 585.867, 516.676 591.558 C 518.637 596.326, 519.431 596.926, 520.408 594.379 C 520.750 593.487, 524.193 587.906, 528.059 581.978 C 533.832 573.124, 534.969 570.725, 534.423 568.551 C 533.855 566.284, 534.460 565.251, 538.629 561.370 C 544 556.371, 546.673 555, 551.046 555 C 555.025 555, 555.894 551.387, 553.510 544.758 C 552.120 540.894, 551.846 537.949, 552.259 531.332 C 552.628 525.416, 552.442 522.765, 551.644 522.556 C 551.015 522.391, 547.800 521.461, 544.500 520.490 C 538.208 518.638, 527 516.149, 527 516.604 C 527 516.750, 527.430 518.002, 527.957 519.386 C 528.483 520.770, 528.994 523.836, 529.094 526.201 C 529.204 528.812, 530.253 532.041, 531.766 534.424 C 534.073 538.055, 534.209 538.940, 533.597 546.284 C 532.898 554.656, 531.337 559.648, 528.744 561.798 C 523.969 565.759, 512.432 562.835, 509.215 556.849 C 508.272 555.094, 505.940 551.953, 504.034 549.870 C 500.775 546.309, 494.209 531.745, 494.064 527.755 C 494.029 526.795, 496.250 523.218, 499 519.805 C 501.750 516.392, 503.663 513.283, 503.250 512.895 C 501.978 511.700, 482.873 506.246, 475.918 505.092 C 468.921 503.931, 437.199 503.847, 425.500 504.958" stroke="#f9c6c6" fill="#f9c6c6" fill-opacity="0.2" fill-rule="evenodd"/><path class="svg-region-LPl" d="M 545 631.120 C 534.296 634.986, 532.091 635.365, 527.051 634.201 C 524.443 633.599, 521.227 633.370, 519.904 633.691 C 516.838 634.437, 513.009 637.879, 512.971 639.924 C 512.955 640.791, 511.658 642.909, 510.090 644.632 C 507.246 647.757, 507.217 647.764, 497.869 647.528 C 489.400 647.314, 484.819 646.387, 479.764 643.866 C 477.096 642.536, 476.417 642.789, 475.138 645.596 C 474.139 647.790, 474.275 648.709, 476.018 651.529 C 478.042 654.804, 489.549 665.682, 496.476 670.868 C 499.952 673.471, 505 679.984, 505 681.867 C 505 682.402, 507.472 685.736, 510.493 689.275 L 515.986 695.710 522.585 696.326 C 526.248 696.668, 531.479 698.009, 534.342 699.341 C 541.493 702.667, 551.470 703.558, 555.726 701.250 C 565.378 696.015, 580 684.060, 580 681.403 C 580 680.676, 581.688 678.518, 583.750 676.609 C 585.813 674.699, 589.045 670.519, 590.934 667.318 C 592.823 664.118, 596.423 658.446, 598.934 654.713 C 603.889 647.348, 608.420 639.417, 610.657 634.195 C 612.019 631.016, 611.997 630.931, 610.092 631.951 C 609.003 632.534, 607.835 633.458, 607.497 634.005 C 607.159 634.552, 605.795 635, 604.467 635 C 602.817 635, 601.579 635.913, 600.563 637.879 C 599.744 639.462, 598.346 641.037, 597.455 641.379 C 596.565 641.720, 590.910 642, 584.890 642 C 574.714 642, 573.524 641.789, 568 639 C 564.731 637.350, 561.165 636, 560.076 636 C 556.985 636, 553.509 634.074, 551.936 631.491 L 550.500 629.133 545 631.120" stroke="#d2454f" fill="#d2454f" fill-opacity="0.2" fill-rule="evenodd"/><path class="svg-region-DMl" d="M 375 635.867 C 368.166 638.561, 366.326 639.983, 361.243 646.500 C 358.670 649.800, 355.731 653.110, 354.712 653.855 C 353.003 655.107, 353.232 655.382, 357.701 657.453 C 363.337 660.064, 364.868 662.693, 366.011 671.718 C 366.727 677.378, 367.838 680.885, 374.329 698 C 375.476 701.025, 377.965 706.200, 379.861 709.500 C 385.362 719.077, 385.239 729.237, 379.566 733.945 C 378.705 734.660, 378 735.568, 378 735.962 C 378 737.795, 388.930 740.985, 396 741.215 C 401.824 741.405, 417.083 738.934, 424.500 736.599 C 429.710 734.959, 435.813 733.912, 442 733.596 C 452.545 733.057, 463.876 731.341, 465.466 730.041 C 466.035 729.576, 468.518 728.656, 470.984 727.996 C 476.471 726.529, 480.845 723.258, 492.500 711.909 C 499.734 704.865, 502.543 702.809, 506.815 701.436 C 512.279 699.679, 515 697.760, 515 695.661 C 515 695.004, 513.057 692.223, 510.682 689.483 C 508.307 686.742, 505.332 682.342, 504.070 679.703 C 502.466 676.349, 499.693 673.245, 494.847 669.378 C 491.036 666.337, 485.030 660.976, 481.502 657.465 C 476.238 652.227, 474.047 650.783, 469.293 649.420 C 466.107 648.507, 462.375 647.170, 461 646.450 C 455.715 643.682, 450.975 642.855, 435.500 642.003 C 416.836 640.975, 409.927 639.805, 402.733 636.456 C 398.379 634.429, 395.989 634.026, 388.500 634.057 C 382.315 634.082, 378.093 634.648, 375 635.867" stroke="#68533d" fill="#68533d" fill-opacity="0.2" fill-rule="evenodd"/><path class="svg-region-PMl" d="M 346.500 657.651 C 343.681 659.127, 337.733 662.880, 328.500 669.008 C 326.300 670.468, 322.475 672.625, 320 673.802 C 315.609 675.889, 300.269 690.193, 292.807 699.158 C 290.776 701.598, 287.869 705.996, 286.346 708.931 C 280.390 720.411, 285.008 732.124, 296.460 734.587 C 298.132 734.947, 300.673 735.840, 302.107 736.572 C 305.821 738.469, 326.554 741.766, 339.500 742.520 C 348.132 743.022, 351.415 742.829, 354.752 741.624 C 357.091 740.779, 361.816 739.583, 365.252 738.966 C 378.835 736.529, 383.993 731.997, 383.993 722.500 C 383.992 717.669, 383.342 715.979, 376.595 703.281 C 373.319 697.116, 366 674.691, 366 670.819 C 366 659.853, 355.647 652.861, 346.500 657.651" stroke="#90cf92" fill="#90cf92" fill-opacity="0.2" fill-rule="evenodd"/><path class="svg-region-PV" d="M 288.670 701.664 C 288.305 702.029, 285.689 703.143, 282.858 704.140 C 280.026 705.138, 276.951 706.639, 276.026 707.477 C 275.100 708.315, 273.369 709, 272.180 709 C 270.990 709, 268.006 710.535, 265.547 712.412 C 263.089 714.289, 259.597 716.147, 257.789 716.541 C 255.980 716.936, 252.074 718.551, 249.109 720.129 C 246.144 721.708, 242.544 723.032, 241.109 723.070 C 233.746 723.269, 234.387 724.450, 245.594 731.338 C 260.520 740.511, 266.932 742.383, 281.333 741.770 C 292.392 741.299, 301.490 738.971, 300.766 736.797 C 300.591 736.273, 298.096 735.048, 295.222 734.075 C 288.495 731.798, 286.521 729.931, 284.966 724.378 C 283.081 717.646, 283.504 714.695, 287.383 707.513 C 290.409 701.910, 290.969 699.364, 288.670 701.664" stroke="#b09658" fill="#b09658" fill-opacity="0.2" fill-rule="evenodd"/><path class="svg-region-Fl" d="M 285.500 532.975 C 281.100 534.009, 275.925 535.322, 274 535.894 C 272.075 536.465, 266.586 537.900, 261.802 539.081 C 255.498 540.638, 252.412 541.955, 250.590 543.865 C 246.308 548.354, 239 557.342, 239 558.119 C 239 558.525, 238.415 559.452, 237.700 560.179 C 236.986 560.905, 234.969 565.550, 233.219 570.500 C 230.114 579.282, 229.565 585.461, 231.471 590.160 C 231.842 591.073, 231.491 593.098, 230.693 594.660 C 229.894 596.222, 228.937 598.910, 228.566 600.634 C 227.919 603.642, 228.046 603.796, 231.696 604.448 C 233.788 604.821, 240.225 605.480, 246 605.911 C 255.437 606.615, 257.614 607.178, 267.500 611.469 C 278.340 616.175, 289.725 619.873, 301.515 622.520 C 304.823 623.263, 308.873 624.413, 310.515 625.077 C 312.241 625.774, 318.350 626.285, 325 626.287 C 334.585 626.291, 337.487 625.911, 342.425 624.008 C 347.705 621.974, 348.740 621.866, 351.925 623.017 C 353.891 623.727, 357.911 626.152, 360.857 628.404 C 371.296 636.385, 371.331 636.398, 378.041 634.910 C 385.160 633.330, 385.579 631.918, 380.401 626.952 C 369.152 616.165, 367.933 614.377, 364.065 603 C 362.849 599.425, 360.151 593.533, 358.068 589.906 C 355.985 586.279, 353.991 581.763, 353.635 579.870 C 352.966 576.303, 351.665 574.231, 343.891 564.355 C 341.356 561.135, 337.862 555.125, 336.127 551 C 331.042 538.914, 329.553 536.666, 324.880 534.024 C 320.893 531.771, 319.288 531.528, 307 531.322 C 296.664 531.148, 291.625 531.535, 285.500 532.975" stroke="#5ca7a9" fill="#5ca7a9" fill-opacity="0.2" fill-rule="evenodd"/><path class="svg-region-PCl" d="M 227.582 605.142 C 227.342 605.889, 225.952 612.350, 224.493 619.500 C 218.451 649.129, 217.655 651.970, 214.224 656.151 C 212.259 658.546, 214.518 659.528, 216.619 657.192 C 217.549 656.157, 221.895 651.641, 226.277 647.155 C 235.083 638.140, 237.018 637.473, 245.500 640.529 C 247.700 641.321, 250.199 641.977, 251.054 641.985 C 251.909 641.993, 254.696 643.324, 257.248 644.942 C 259.799 646.560, 262.713 647.822, 263.723 647.746 C 265.641 647.601, 268.311 648.739, 284 656.382 C 301.200 664.761, 304.659 667.239, 310.500 675.368 L 312.500 678.151 319.506 674.285 C 323.360 672.159, 327.860 669.503, 329.506 668.382 C 338.340 662.367, 343.916 658.981, 347.500 657.456 C 354.610 654.432, 355.680 653.600, 360.937 647.015 C 363.784 643.449, 367.510 639.647, 369.216 638.567 C 372.026 636.787, 372.150 636.504, 370.534 635.551 C 369.554 634.973, 366.895 632.967, 364.626 631.092 C 358.592 626.109, 351.876 622, 349.763 622 C 348.748 622, 344.899 622.987, 341.209 624.194 C 331.959 627.219, 319.541 627.190, 307.500 624.115 C 289.313 619.471, 280.401 616.856, 276.261 614.951 C 273.929 613.878, 271.755 613, 271.429 613 C 271.102 613, 267.610 611.542, 263.668 609.761 C 257.657 607.044, 254.805 606.411, 246 605.835 C 240.225 605.458, 233.817 604.842, 231.760 604.466 C 229.023 603.967, 227.903 604.148, 227.582 605.142" stroke="#465ee0" fill="#465ee0" fill-opacity="0.2" fill-rule="evenodd"/><path class="svg-region-Ol" d="M 681.500 329.507 C 671.485 334.794, 668.258 337.509, 665.200 343.220 C 663.715 345.994, 660.346 351.555, 657.713 355.578 C 651.870 364.509, 649.743 370.785, 647.069 387 C 645.330 397.545, 645.011 403.878, 645.024 427.500 C 645.033 442.900, 645.480 458.425, 646.017 462 C 646.554 465.575, 647.436 472.775, 647.977 478 C 649.393 491.677, 653.203 511.748, 655.948 520 C 656.406 521.375, 658.235 527.225, 660.014 533 C 663.736 545.086, 668.658 557.818, 670.450 560 C 671.128 560.825, 673.414 564.425, 675.530 568 C 682.190 579.250, 703.603 599.662, 715 605.623 C 720.046 608.262, 721.370 608.500, 731.039 608.500 C 741.310 608.500, 741.725 608.411, 747.388 605 C 750.584 603.075, 754.503 599.925, 756.097 598 C 757.691 596.075, 759.896 593.416, 760.997 592.092 C 762.099 590.767, 763 589.129, 763 588.452 C 763 587.776, 765.208 583.009, 767.908 577.861 C 770.607 572.712, 773.486 566.025, 774.307 563 C 776.663 554.316, 780.829 539.921, 782.411 535 C 785.910 524.115, 788.496 494.006, 787.722 473.161 C 787.216 459.529, 786.136 451.676, 782.454 434.857 C 781.654 431.203, 781 427.010, 781 425.538 C 781 422.267, 777.014 406.348, 773.479 395.500 C 767.757 377.941, 761.187 366.561, 749.353 353.710 C 745.309 349.318, 742 345.337, 742 344.862 C 742 344.388, 741.518 344, 740.929 344 C 740.341 344, 737.753 342.246, 735.179 340.101 C 732.606 337.957, 726.225 334.040, 721 331.397 C 711.551 326.618, 711.438 326.590, 700 326.202 L 688.500 325.812 681.500 329.507" stroke="#aa444d" fill="#aa444d" fill-opacity="0.2" fill-rule="evenodd"/><path class="svg-region-VOC" d="M 507.500 510.976 C 506.400 511.443, 504.150 513.539, 502.500 515.634 C 500.850 517.728, 498.262 520.727, 496.750 522.298 C 493.698 525.467, 493.307 528.614, 495.378 533.349 C 496.136 535.082, 497.630 538.638, 498.699 541.251 C 499.767 543.864, 501.798 547.464, 503.210 549.251 C 504.623 551.038, 507.291 554.466, 509.140 556.869 C 514.080 563.293, 522.878 565.875, 527.883 562.369 C 531.191 560.052, 532.835 555.417, 533.599 546.251 C 534.226 538.742, 534.112 538.059, 531.632 534.409 C 529.842 531.775, 529 529.218, 529 526.417 C 529 519.950, 527.354 516.789, 522.144 513.250 C 517.233 509.914, 511.938 509.092, 507.500 510.976" stroke="#ff8f93" fill="#ff8f93" fill-opacity="0.2" fill-rule="evenodd"/><path class="svg-region-OABl" d="M 612.571 440.571 C 610.686 442.457, 610.536 446.283, 612.241 449.014 C 613.228 450.595, 613.228 451.405, 612.241 452.986 C 611.558 454.079, 611 455.611, 611 456.392 C 611 457.172, 609.422 459.700, 607.493 462.008 C 605.565 464.317, 603.751 467.397, 603.464 468.853 C 603.176 470.309, 601.591 474.200, 599.942 477.500 C 598.293 480.800, 596.956 483.890, 596.972 484.366 C 596.987 484.842, 595.425 487.378, 593.500 490 C 589.416 495.563, 589.006 499.702, 591.894 506.223 C 592.935 508.575, 594.784 512.802, 596.002 515.616 C 597.635 519.389, 599.111 521.159, 601.622 522.357 C 606.806 524.829, 612.736 525.516, 614.776 523.882 C 617.632 521.593, 620.869 520.002, 622.736 519.968 C 623.706 519.951, 625.668 518.907, 627.096 517.649 L 629.691 515.361 628.735 494.931 C 628.209 483.694, 627.652 467.910, 627.498 459.856 C 627.344 451.802, 626.832 444.575, 626.359 443.796 C 623.679 439.377, 615.645 437.498, 612.571 440.571" stroke="#81244d" fill="#81244d" fill-opacity="0.2" fill-rule="evenodd"/><path class="svg-region-SOTl" d="M 538.683 463.559 C 537.683 464.932, 536.607 467.647, 536.291 469.594 C 535.975 471.540, 534.881 474.773, 533.858 476.778 C 531.352 481.694, 531.518 486.333, 534.556 496.198 C 537.394 505.418, 539.711 510.582, 542.065 512.935 C 544.831 515.700, 549.724 518, 552.837 518 C 556.164 518, 556.417 517.541, 557.515 509.500 C 557.890 506.750, 558.683 503.600, 559.277 502.500 C 559.871 501.400, 560.934 494.425, 561.640 487 C 563.115 471.467, 564.117 473.661, 551.803 465.460 C 544.203 460.398, 541.291 459.977, 538.683 463.559" stroke="#995b45" fill="#995b45" fill-opacity="0.2" fill-rule="evenodd"/><path class="svg-region-PNl" d="M 224.250 649.033 C 220.813 652.327, 218 655.444, 218 655.960 C 218 656.476, 215.075 658.294, 211.499 660 C 206.860 662.215, 201.777 666.130, 193.749 673.671 C 187.562 679.484, 180.925 685.416, 179 686.855 C 169.621 693.865, 155.025 705.703, 151 709.564 C 144.300 715.991, 139.640 720, 138.868 720 C 137.911 720, 129.197 733.357, 125.820 740 C 119.860 751.726, 118.801 761.700, 123.104 765.594 C 125.405 767.676, 134.673 767.114, 140.625 764.531 C 158.836 756.629, 167.499 750.696, 185.389 733.872 C 196.184 723.721, 205.563 717.437, 211.119 716.632 C 216.396 715.868, 222.988 717.695, 228.536 721.460 C 232.122 723.893, 233.031 724.077, 238.411 723.452 C 241.670 723.074, 246.290 721.726, 248.677 720.457 C 251.063 719.188, 254.700 717.611, 256.758 716.954 C 260.730 715.684, 266.627 712.425, 268.821 710.287 C 269.548 709.579, 271.029 709, 272.112 709 C 273.195 709, 275.300 708.126, 276.790 707.058 C 278.281 705.990, 281.884 704.356, 284.799 703.427 C 287.932 702.428, 291.273 700.464, 292.974 698.619 C 294.557 696.904, 299.649 691.675, 304.290 687 L 312.729 678.500 308.817 673.232 C 306.665 670.335, 303.238 666.947, 301.202 665.703 C 299.166 664.458, 296.600 662.875, 295.500 662.184 C 289.158 658.200, 264.827 647.129, 263.518 647.632 C 262.669 647.957, 261.305 647.668, 260.487 646.989 C 259.227 645.944, 259 646.213, 259 648.755 C 259 652.817, 257.608 653.722, 248.374 655.664 C 239.385 657.553, 235.979 657.070, 232.292 653.383 C 230.181 651.271, 229.845 650.193, 230.283 646.924 C 230.573 644.766, 230.740 643.010, 230.655 643.022 C 230.570 643.034, 227.688 645.739, 224.250 649.033" stroke="#bbc0d1" fill="#bbc0d1" fill-opacity="0.2" fill-rule="evenodd"/><path class="svg-region-OVl" d="M 557.667 416.667 C 557.300 417.033, 557 418.103, 557 419.044 C 557 419.985, 556.325 421.315, 555.500 422 C 553.609 423.569, 553.623 426.918, 555.532 429.441 C 557.423 431.941, 557.408 437.779, 555.500 442.346 C 553.062 448.180, 553.504 449.818, 558 451.617 C 560.200 452.497, 562 453.535, 562 453.925 C 562 454.704, 570.993 458.549, 575.093 459.522 C 577.292 460.044, 578.620 459.218, 583.843 454.075 C 590.584 447.438, 591.529 445, 587.360 445 C 585.558 445, 583.733 443.843, 581.610 441.355 C 579.900 439.350, 576.794 435.920, 574.709 433.733 C 572.623 431.547, 569.725 428.125, 568.267 426.129 C 564.967 421.609, 559.819 416, 558.970 416 C 558.620 416, 558.033 416.300, 557.667 416.667" stroke="#593939" fill="#593939" fill-opacity="0.2" fill-rule="evenodd"/><path class="svg-region-COl" d="M 232.560 640.332 C 231.369 641.203, 230.572 643.397, 230.258 646.672 C 229.820 651.229, 230.025 651.875, 232.551 653.861 C 236.736 657.153, 239.688 657.489, 248.374 655.664 C 257.481 653.749, 259 652.801, 259 649.033 C 259 645.216, 256.639 643.523, 247.936 641.103 C 239.179 638.668, 235.115 638.464, 232.560 640.332" stroke="#906d99" fill="#906d99" fill-opacity="0.2" fill-rule="evenodd"/><path class="svg-region-HRl" d="M 389.500 591.477 C 382.575 593.217, 370.556 599.478, 368.067 602.642 C 364.046 607.754, 366.150 612.971, 376.168 622.718 C 380.001 626.448, 383.546 630.513, 384.044 631.750 C 384.848 633.746, 385.658 634.001, 391.225 634.010 C 395.761 634.017, 398.951 634.695, 402.733 636.456 C 409.955 639.818, 416.866 640.980, 435.652 641.990 C 449.221 642.719, 452.820 643.259, 458.152 645.365 C 461.644 646.743, 467.061 648.721, 470.192 649.761 C 475.518 651.529, 475.823 651.538, 474.945 649.898 C 474.429 648.934, 474.304 647.371, 474.667 646.426 C 475.534 644.165, 454.592 623.931, 446.335 619.053 C 443.126 617.157, 436.900 613.070, 432.500 609.971 C 428.100 606.872, 421.800 602.829, 418.500 600.986 C 415.200 599.144, 411.150 596.638, 409.500 595.417 C 405.644 592.563, 399.351 589.969, 396.628 590.111 C 395.458 590.171, 392.250 590.786, 389.500 591.477" stroke="#d9dba1" fill="#d9dba1" fill-opacity="0.2" fill-rule="evenodd"/>
    </svg>