<svg xmlns="http://www.w3.org/2000/svg" width="1078" height="1151" viewBox="0 0 1078 1151" version="1.1">
    <path class="svg-region-V" d="M 495.500 211.430 C 493.300 212.209, 486.775 214.286, 481 216.047 C 475.225 217.808, 466.288 221.442, 461.139 224.124 C 455.991 226.806, 451.177 229, 450.442 229 C 449.707 229, 446.133 231.250, 442.500 234 C 438.867 236.750, 435.493 239, 435.004 239 C 434.514 239, 433.474 239.913, 432.692 241.029 C 431.910 242.145, 427.066 247.567, 421.927 253.078 C 416.788 258.590, 411.439 264.798, 410.041 266.874 C 408.644 268.950, 405.813 272.687, 403.750 275.178 C 401.688 277.668, 400 280.044, 400 280.458 C 400 280.872, 398.584 283.300, 396.853 285.855 C 395.123 288.410, 392.929 291.850, 391.978 293.500 C 373.971 324.749, 374.360 324.002, 358.140 358.500 C 352.804 369.850, 350.717 375.568, 349.564 382 C 348.726 386.675, 347.765 391.467, 347.430 392.648 C 347.070 393.916, 347.516 395.859, 348.520 397.391 C 349.653 399.120, 350.066 401.239, 349.759 403.743 C 349.465 406.132, 350.188 410.231, 351.745 415 C 353.091 419.125, 354.830 424.975, 355.609 428 C 356.388 431.025, 357.552 434.524, 358.195 435.775 C 359.695 438.693, 372.184 446.703, 377.441 448.119 C 385.386 450.258, 394.772 447.245, 401.130 440.515 C 405.973 435.389, 414.750 420.704, 416.582 414.663 C 420.356 402.216, 423.116 395.687, 426.275 391.736 C 428.137 389.406, 432.692 382.723, 436.396 376.884 C 445.821 362.030, 464.401 343.436, 475.500 337.752 C 477.150 336.906, 482.716 335.182, 487.869 333.920 C 496.376 331.837, 498.033 331.727, 505.869 332.724 C 520.144 334.539, 530.028 339.861, 537.040 349.508 C 540.468 354.224, 557.159 366.471, 561.757 367.644 C 565.769 368.668, 571.233 366.967, 574.522 363.671 C 576.799 361.389, 578.562 357.778, 580.807 350.795 C 582.524 345.456, 586.410 335.986, 589.442 329.750 L 594.956 318.410 604.949 311.455 L 614.941 304.500 617.085 297.510 C 618.840 291.784, 619.026 289.962, 618.114 287.439 C 617.501 285.744, 617 282.552, 617 280.344 C 617 276.053, 612.243 265.212, 606.789 257.075 C 602.022 249.963, 586.078 235, 583.268 235 C 580.833 235, 575.654 232.729, 573 230.498 C 572.175 229.804, 570.375 228.906, 569 228.502 C 567.625 228.098, 565.150 226.784, 563.500 225.581 C 558.738 222.110, 553.016 219, 551.393 219 C 550.572 219, 548.534 218.293, 546.864 217.430 C 542.498 215.172, 532.031 212.989, 520.500 211.930 C 515 211.425, 508.025 210.787, 505 210.513 C 501.570 210.201, 497.995 210.546, 495.500 211.430" stroke="#dd8a8a" fill="#dd8a8a" fill-opacity="0.2" fill-rule="evenodd"/><path class="svg-region-SV" d="M 489 333.500 C 487.075 334.241, 484.600 334.886, 483.500 334.934 C 473.363 335.369, 449.076 356.891, 436.746 376.365 C 433.311 381.791, 428.790 388.443, 426.700 391.149 C 422.304 396.839, 419.819 402.250, 418.043 410 C 416.861 415.154, 411.059 427.169, 406.862 433.154 C 405.838 434.614, 405 436.349, 405 437.010 C 405 439.045, 410.123 444.430, 413.352 445.789 C 417.578 447.567, 439.633 450.322, 443.412 449.543 C 445.110 449.193, 451.450 448.322, 457.500 447.608 C 464.794 446.747, 470.606 445.415, 474.750 443.655 C 478.188 442.195, 483.813 439.809, 487.250 438.352 C 494.477 435.291, 512.484 431, 518.106 431 C 520.221 431, 523.425 431.898, 525.226 432.996 C 527.027 434.094, 530.166 434.994, 532.203 434.996 C 534.240 434.998, 536.940 435.422, 538.203 435.938 C 539.466 436.454, 543.728 437.831, 547.673 438.997 C 553.535 440.731, 555.551 440.929, 558.708 440.079 C 564.205 438.598, 571 431.043, 571 426.411 C 571 424.807, 570.876 424.803, 569.171 426.345 C 562.807 432.105, 555.479 419.967, 559.506 410.334 C 560.387 408.225, 561.587 402.900, 562.171 398.500 C 562.756 394.100, 563.658 389.692, 564.177 388.704 C 565.748 385.712, 567.072 375.738, 566.429 371.750 C 565.949 368.772, 565.383 368, 563.682 368 C 559.054 368, 540.241 354.340, 534.941 347.131 C 530.996 341.766, 528.197 339.635, 521.225 336.688 C 510.604 332.199, 496.104 330.764, 489 333.500" stroke="#c666b5" fill="#c666b5" fill-opacity="0.2" fill-rule="evenodd"/><path class="svg-region-SF" d="M 617.611 295.841 C 616.644 299.569, 615.549 303.059, 615.177 303.596 C 614.804 304.133, 610.090 307.706, 604.700 311.536 L 594.900 318.500 589.053 330.500 C 585.837 337.100, 582.059 346.250, 580.658 350.833 C 577.713 360.468, 574.375 365.391, 569.754 366.916 L 566.485 367.995 566.336 375.747 C 566.253 380.067, 565.525 385.050, 564.691 387 C 562.150 392.946, 561.562 401.252, 563.428 404.861 C 564.321 406.587, 565.387 408, 565.797 408 C 566.208 408, 568.784 410.072, 571.522 412.603 C 585.018 425.084, 589.111 428.229, 593.617 429.585 C 598.925 431.183, 605.736 431.423, 609.185 430.135 C 610.514 429.639, 614.604 429.677, 618.790 430.225 C 626.400 431.221, 629 430.471, 629 427.279 C 629 426.467, 629.641 424.384, 630.425 422.651 C 631.209 420.918, 632.293 417.475, 632.833 415 C 633.374 412.525, 635.654 406.119, 637.900 400.764 C 642.715 389.287, 644.082 380.977, 644.702 359.397 C 645.096 345.687, 644.900 343.335, 642.569 333.897 C 641.157 328.179, 640.002 322.318, 640.001 320.872 C 640 319.427, 639.325 317.685, 638.500 317 C 637.675 316.315, 637 314.765, 637 313.554 C 637 312.259, 633.911 307.747, 629.500 302.599 C 625.375 297.784, 622 293.260, 622 292.545 C 622 291.830, 621.408 290.754, 620.685 290.153 C 619.640 289.286, 619.008 290.456, 617.611 295.841" stroke="#8c6b55" fill="#8c6b55" fill-opacity="0.2" fill-rule="evenodd"/><path class="svg-region-PF" d="M 559.679 409.040 C 557.563 414.999, 558.175 421.681, 561.188 425.512 C 563.673 428.671, 566.707 428.668, 571 425.500 C 573.274 423.822, 575.723 422.990, 578.444 422.971 L 582.500 422.941 572.500 413.491 C 567 408.294, 562.268 404.032, 561.985 404.021 C 561.701 404.009, 560.664 406.268, 559.679 409.040" stroke="#faaaaa" fill="#faaaaa" fill-opacity="0.2" fill-rule="evenodd"/><path class="svg-region-AAB" d="M 629.993 476.250 C 629.990 476.938, 627.749 480.425, 625.014 484 C 622.279 487.575, 619.593 492.075, 619.044 494 C 618.496 495.925, 616.200 499.731, 613.942 502.458 C 611.684 505.185, 609.187 508.672, 608.392 510.208 C 607.598 511.744, 606.119 513, 605.104 513 C 603.396 513, 596.375 522.401, 591.899 530.680 C 590.832 532.655, 586.834 535.669, 579.899 539.728 C 565.350 548.243, 562.261 551.984, 560.869 562.776 C 560.392 566.474, 559.724 571.585, 559.385 574.133 C 559.045 576.682, 559.256 580.282, 559.853 582.133 C 561.057 585.872, 561.198 590.612, 560.365 599.311 C 559.603 607.254, 561.008 610.142, 567.297 613.565 C 570.132 615.108, 573.587 617.582, 574.975 619.062 C 576.364 620.543, 580.200 623.159, 583.500 624.875 C 588.778 627.620, 590.478 627.996, 597.628 627.998 C 603.197 627.999, 606.105 627.579, 606.866 626.662 C 607.476 625.926, 609.669 624.800, 611.738 624.159 C 615.449 623.011, 623.611 616.049, 626.606 611.479 C 627.778 609.690, 628.208 605.607, 628.416 594.316 C 628.582 585.301, 629.298 576.955, 630.245 573 C 632.199 564.837, 636.010 552.832, 637.082 551.462 C 638.104 550.154, 643.588 527.029, 644.305 521 C 644.989 515.257, 643.497 494.180, 641.898 487 C 640.710 481.662, 638.305 478.304, 634.034 476.018 C 631.478 474.650, 630.001 474.735, 629.993 476.250" stroke="#7f3c1a" fill="#7f3c1a" fill-opacity="0.2" fill-rule="evenodd"/><path class="svg-region-APB" d="M 609.500 430.010 C 608.400 430.477, 606.215 430.891, 604.644 430.930 C 602.884 430.973, 601.067 431.916, 599.910 433.388 C 598.877 434.701, 596.868 436.067, 595.447 436.424 C 593.251 436.975, 579.018 445.339, 575.599 448.086 C 574.995 448.572, 573.021 450.155, 571.214 451.604 C 569.407 453.053, 567.208 455.647, 566.327 457.369 C 565.446 459.091, 563.433 462.146, 561.852 464.158 C 556.873 470.495, 550.260 484.175, 547.910 493 C 546.665 497.675, 544.291 504.425, 542.635 508 C 539.881 513.943, 539.618 515.443, 539.561 525.500 C 539.505 535.541, 539.731 536.936, 542.151 541.500 C 543.609 544.250, 545.859 547.463, 547.151 548.640 C 549.561 550.835, 559.190 556, 560.873 556 C 561.390 556, 563.388 553.807, 565.314 551.126 C 567.584 547.967, 570.871 545.101, 574.658 542.981 C 587.532 535.771, 590.768 533.151, 594.101 527.242 C 595.883 524.084, 598.614 519.860, 600.170 517.856 C 601.727 515.852, 603 513.978, 603 513.692 C 603 512.322, 596.142 506.380, 593.493 505.454 C 590.565 504.431, 590.507 504.279, 590.823 498.454 C 591.049 494.286, 591.724 491.881, 593.073 490.436 C 594.133 489.300, 595.001 487.950, 595.002 487.436 C 595.004 486.921, 596.327 484.953, 597.942 483.063 C 600.447 480.132, 612.760 459.626, 613.872 456.533 C 614.076 455.965, 614.913 454.041, 615.732 452.258 C 616.550 450.475, 616.935 448.274, 616.587 447.367 C 615.643 444.905, 618.640 441, 621.475 441 C 623.243 441, 624.801 442.292, 627.202 445.750 C 630.493 450.490, 630.500 450.526, 630.500 462.704 C 630.500 474.482, 630.578 474.928, 632.722 475.466 C 633.945 475.773, 635.842 476.988, 636.939 478.165 L 638.933 480.306 640.217 477.403 C 641.062 475.491, 641.500 469.719, 641.500 460.500 C 641.500 446.948, 641.410 446.347, 638.683 441.708 C 634.498 434.588, 629.359 431.291, 621.203 430.494 C 617.516 430.134, 613.825 429.686, 613 429.500 C 612.175 429.313, 610.600 429.542, 609.500 430.010" stroke="#ac7444" fill="#ac7444" fill-opacity="0.2" fill-rule="evenodd"/><path class="svg-region-PC" d="M 515.250 467.220 C 512.443 468.575, 512.218 473.423, 514.750 478.003 L 516.500 481.167 527.026 480.514 C 536.711 479.913, 537.763 480.026, 540.184 481.930 C 541.871 483.257, 544.284 484, 546.908 484 L 551 484 551 479.934 C 551 475.319, 549.873 472.698, 546.191 468.750 C 542.899 465.221, 537.277 464.996, 532.917 468.220 C 529.918 470.437, 529.909 470.437, 524.707 468.591 C 521.843 467.574, 519.050 466.606, 518.500 466.438 C 517.950 466.271, 516.487 466.623, 515.250 467.220 M 522.271 508.796 C 521.044 511.383, 520.482 513.650, 521.021 513.833 C 521.559 514.017, 522.016 517.842, 522.035 522.333 C 522.058 527.520, 522.592 531.412, 523.500 533 C 524.367 534.516, 524.943 538.363, 524.965 542.772 C 524.999 549.870, 524.905 550.147, 521.052 554.327 C 518.169 557.455, 515.742 558.981, 512.052 559.986 C 509.274 560.742, 507 561.701, 507 562.115 C 507 562.529, 508.069 565.485, 509.376 568.684 C 510.683 571.883, 512.278 577.321, 512.919 580.768 C 514.002 586.583, 515.137 590.754, 518.639 601.785 C 519.388 604.142, 520 607.785, 520 609.882 C 520 612.259, 520.753 614.562, 522 616 C 523.342 617.547, 524.023 619.818, 524.070 622.903 C 524.160 628.770, 525.154 631.259, 527.574 631.679 C 539.217 633.699, 542.712 632.557, 546.279 625.566 C 547.501 623.171, 551.087 618.039, 554.250 614.160 C 559.771 607.388, 560.001 606.875, 560.015 601.303 C 560.024 598.112, 560.392 594.930, 560.834 594.234 C 561.577 593.063, 561.376 590.899, 559.433 579.175 C 559.034 576.765, 559.207 572.558, 559.823 569.675 C 560.432 566.829, 561.122 562.630, 561.357 560.345 C 561.777 556.258, 561.715 556.163, 557.568 554.579 C 550.832 552.007, 545.153 547.218, 542.213 541.632 C 539.818 537.081, 539.499 535.335, 539.400 526.213 L 539.289 515.927 535.894 513.436 C 534.028 512.066, 531.060 509.382, 529.301 507.473 C 527.542 505.563, 525.742 504.021, 525.301 504.046 C 524.860 504.071, 523.497 506.208, 522.271 508.796" stroke="#cda789" fill="#cda789" fill-opacity="0.2" fill-rule="evenodd"/><path class="svg-region-DB" d="M 503 433.420 C 492.291 435.879, 492.598 435.773, 481 440.981 C 470.280 445.795, 469.856 445.909, 456 447.687 C 441.301 449.573, 435.538 449.678, 424.798 448.254 C 414.824 446.932, 411.523 445.499, 407.254 440.636 L 404.211 437.171 401.355 440.174 C 394.742 447.132, 385.347 450.248, 377.418 448.113 C 375.185 447.511, 370.248 445.019, 366.448 442.574 C 359.795 438.293, 357.617 437.535, 359.702 440.226 C 361.219 442.183, 362.833 449.704, 363.518 458 C 363.859 462.125, 364.565 467.443, 365.088 469.819 C 365.611 472.194, 366.515 477.594, 367.096 481.819 C 368.246 490.172, 370.481 496.093, 373.959 500 C 375.182 501.375, 376.963 503.566, 377.916 504.868 C 379.436 506.947, 379.901 507.079, 381.716 505.945 C 383.481 504.843, 384.866 505.040, 391.142 507.281 C 402.223 511.239, 415.831 513.385, 425 512.620 C 432.865 511.964, 433.789 512.132, 449.523 517.076 C 452.836 518.116, 462.961 519.837, 472.023 520.899 L 488.500 522.830 489.973 520.665 C 493.216 515.898, 498.854 510.999, 501.132 510.968 C 502.435 510.951, 504.374 510.276, 505.441 509.468 C 508.298 507.308, 512.241 507.674, 516.384 510.486 L 520.047 512.971 522.020 509.736 C 524.698 505.343, 524.506 503.317, 521.250 501.608 C 516.135 498.924, 511.145 492.804, 510.436 488.347 C 509.830 484.535, 510.011 484.046, 512.638 482.399 C 514.212 481.413, 515.673 480.483, 515.885 480.334 C 516.097 480.185, 515.535 478.939, 514.635 477.566 C 512.084 473.673, 512.483 468.556, 515.443 467.208 C 517.411 466.311, 519.053 466.519, 523.884 468.279 L 529.882 470.463 532.901 468.232 C 534.821 466.812, 537.351 466, 539.856 466 C 543.099 466, 544.331 466.613, 546.847 469.479 C 548.527 471.392, 550.199 474.542, 550.562 476.479 C 550.925 478.415, 551.510 479.999, 551.861 479.998 C 552.213 479.996, 553.850 477.410, 555.500 474.249 C 557.150 471.089, 559.862 466.703, 561.526 464.502 C 567.189 457.013, 568.852 453.491, 567.711 451.404 C 567.139 450.357, 566.382 449.275, 566.029 449 C 565.442 448.543, 564.004 445.061, 562.650 440.815 C 562.195 439.388, 561.558 439.283, 558.494 440.129 C 555.605 440.927, 553.428 440.700, 547.688 439.002 C 543.735 437.833, 539.466 436.454, 538.203 435.938 C 536.940 435.422, 534.240 434.998, 532.203 434.996 C 530.166 434.994, 527.027 434.094, 525.226 432.996 C 521.057 430.454, 515.454 430.561, 503 433.420" stroke="#e8b1e4" fill="#e8b1e4" fill-opacity="0.2" fill-rule="evenodd"/><path class="svg-region-MB" d="M 381.295 506.673 C 380.942 507.593, 381.470 510.630, 382.469 513.423 C 383.513 516.344, 384.619 523.383, 385.072 530 C 385.833 541.092, 387.995 551.566, 391.472 561 C 392.384 563.475, 393.758 567.525, 394.525 570 C 395.292 572.475, 397.118 578.325, 398.584 583 C 400.049 587.675, 401.979 594.047, 402.874 597.160 C 404.219 601.840, 405.361 603.526, 409.482 606.910 C 412.222 609.159, 415.372 611.010, 416.482 611.022 C 420.585 611.067, 426.899 614.878, 429.986 619.173 C 433.546 624.128, 444.841 632.209, 456.500 638.144 C 460.900 640.384, 465.995 643.340, 467.823 644.714 C 471.132 647.203, 471.153 647.205, 473.323 645.255 C 476.459 642.436, 477.539 642.186, 493.796 640.521 C 504.541 639.420, 510.742 638.228, 516.829 636.095 C 521.410 634.489, 525.421 632.913, 525.742 632.592 C 526.062 632.271, 525.802 630.860, 525.162 629.457 C 524.523 628.054, 524 624.971, 524 622.606 C 524 619.741, 523.332 617.536, 522 616 C 520.798 614.614, 520 612.259, 520 610.095 C 520 608.116, 518.200 600.198, 516 592.500 C 513.800 584.802, 512 577.480, 512 576.230 C 512 571.665, 498.727 546.521, 491.702 537.779 C 488.948 534.351, 488.500 533.004, 488.500 528.147 L 488.500 522.500 481.500 521.831 C 464.430 520.200, 455.081 518.806, 449.500 517.060 C 433.711 512.121, 432.854 511.965, 425.046 512.617 C 416.065 513.366, 401.053 511.027, 391.227 507.348 C 383.775 504.559, 382.149 504.448, 381.295 506.673" stroke="#f9c6c6" fill="#f9c6c6" fill-opacity="0.2" fill-rule="evenodd"/><path class="svg-region-LPl" d="M 556.293 611.614 C 554.757 613.602, 552.241 616.640, 550.702 618.364 C 549.162 620.089, 547.064 623.381, 546.039 625.679 C 543.223 631.994, 537.046 634.489, 530.443 631.979 C 528.685 631.310, 527.349 631.296, 526.576 631.937 C 523.171 634.763, 506.997 639.254, 497.044 640.138 C 479.481 641.698, 475.863 642.578, 472.696 646.065 C 470.401 648.592, 469.948 649.909, 470.196 653.326 C 470.363 655.622, 470.950 657.535, 471.500 657.578 C 472.549 657.659, 478.912 658.790, 482.750 659.577 C 484.445 659.924, 485 660.737, 485 662.869 C 485 664.516, 486.360 667.496, 488.250 669.993 C 500.313 685.929, 501.566 689.247, 502.423 707.532 C 503.132 722.661, 502.659 726.295, 498.323 739 C 498.041 739.825, 495.333 742.470, 492.305 744.879 C 483.354 751.997, 487.821 752.565, 507.396 746.798 C 512.953 745.161, 519.525 743.409, 522 742.905 C 533.644 740.533, 537.018 739.431, 544 735.720 C 548.125 733.528, 552.850 731.042, 554.500 730.195 C 556.150 729.348, 559.300 727.253, 561.500 725.539 C 568.407 720.158, 582.123 714.748, 585.500 716.074 C 589.117 717.494, 600.744 717.080, 604.716 715.390 C 614.607 711.180, 619.285 708.806, 623.018 706.102 C 629.060 701.725, 637.560 690.793, 640.001 684.259 C 641.184 681.092, 642.725 677.825, 643.425 677 C 644.855 675.314, 647.671 667.538, 649.040 661.500 C 649.539 659.300, 650.250 652.056, 650.620 645.402 C 651.179 635.359, 651.025 632.812, 649.712 630.402 C 648.843 628.806, 647.876 626.292, 647.563 624.817 C 647.247 623.320, 646.094 621.847, 644.957 621.486 C 643.835 621.130, 641.154 619.188, 638.998 617.170 C 636.843 615.151, 634.161 612.712, 633.039 611.750 C 630.915 609.927, 627 609.358, 627 610.872 C 627 612.821, 615.300 623.084, 612 624.030 C 610.075 624.581, 607.626 625.700, 606.559 626.516 C 605.237 627.526, 602.205 627.999, 597.059 627.998 C 590.575 627.996, 588.647 627.556, 583.500 624.906 C 580.200 623.207, 576.600 620.776, 575.500 619.504 C 574.400 618.232, 571.025 615.750, 568 613.987 C 564.975 612.224, 562.140 610.156, 561.700 609.391 C 560.459 607.233, 559.314 607.703, 556.293 611.614" stroke="#d2454f" fill="#d2454f" fill-opacity="0.2" fill-rule="evenodd"/><path class="svg-region-DMl" d="M 413.004 642.742 C 407.287 643.431, 407 644.097, 407 656.672 C 407 665.482, 406.612 668.832, 405.307 671.300 C 404.075 673.628, 403.391 678.589, 402.798 689.500 C 402.349 697.750, 401.739 706.750, 401.442 709.500 C 401.145 712.250, 401.404 720.125, 402.018 727 C 402.632 733.875, 403.082 742.689, 403.019 746.588 C 402.941 751.336, 403.336 754.034, 404.215 754.763 C 404.936 755.362, 409.345 755.961, 414.013 756.095 C 431.095 756.584, 463.236 755.861, 465.679 754.932 C 467.060 754.407, 471.982 753.316, 476.616 752.508 C 484.365 751.156, 485.542 750.624, 491.271 745.881 C 494.697 743.045, 497.787 740.224, 498.138 739.612 C 498.489 739, 499.761 734.900, 500.963 730.500 C 502.940 723.267, 503.086 721.061, 502.488 707.500 C 501.894 694.040, 501.543 691.884, 499.072 686.500 C 497.558 683.200, 493.910 677.366, 490.967 673.535 C 487.831 669.455, 485.383 665.141, 485.054 663.119 L 484.493 659.667 473.997 657.839 C 468.223 656.833, 459.383 655.362, 454.351 654.570 C 446.185 653.284, 434.433 649.154, 422.596 643.409 C 420.999 642.634, 418.974 642.072, 418.096 642.160 C 417.218 642.248, 414.927 642.510, 413.004 642.742" stroke="#68533d" fill="#68533d" fill-opacity="0.2" fill-rule="evenodd"/><path class="svg-region-PMl" d="M 325 690.553 C 320.875 691.303, 315.250 692.343, 312.500 692.864 C 309.750 693.385, 303.900 695.481, 299.500 697.522 C 295.100 699.564, 290.593 701.580, 289.483 702.003 C 285.446 703.545, 276.783 711.275, 275.409 714.563 C 273.347 719.498, 273.627 726.875, 276.024 730.808 C 278.046 734.123, 284.625 737.916, 288.500 737.999 C 289.600 738.023, 293.650 739.172, 297.500 740.552 C 302.475 742.336, 308.261 743.368, 317.500 744.119 C 337.617 745.754, 346.285 745.137, 350.571 741.765 C 353.907 739.141, 353.581 735.304, 349.230 725.977 C 347.568 722.415, 345.016 715.450, 343.559 710.500 C 339.211 695.726, 338.810 694.616, 336.796 691.750 C 334.622 688.656, 335.149 688.709, 325 690.553" stroke="#90cf92" fill="#90cf92" fill-opacity="0.2" fill-rule="evenodd"/><path class="svg-region-PV" d="M 279.978 699.854 C 275.606 703.443, 271.937 705.333, 264.028 708.069 C 258.147 710.105, 256.680 710.191, 239.559 709.516 C 223.158 708.868, 221.177 708.966, 219.646 710.497 C 215.748 714.394, 221.054 725.963, 229.281 731.503 C 232.137 733.426, 234.836 735, 235.278 735 C 235.721 735, 238.988 736.358, 242.538 738.018 C 257.482 745.004, 277.082 749.974, 292.722 750.742 C 299.221 751.061, 303.308 750.579, 312.222 748.443 C 318.425 746.957, 323.862 745.416, 324.304 745.017 C 324.746 744.619, 320.471 744.044, 314.804 743.739 C 308.149 743.382, 302.552 742.469, 299 741.161 C 295.975 740.047, 290.267 738.201, 286.316 737.059 C 275.997 734.076, 272.850 729.155, 274.448 718.498 C 275.249 713.156, 278.297 709.246, 285.094 704.842 L 290.061 701.624 287.280 699.348 C 285.751 698.096, 284.265 697.056, 283.978 697.036 C 283.691 697.016, 281.891 698.284, 279.978 699.854" stroke="#b09658" fill="#b09658" fill-opacity="0.2" fill-rule="evenodd"/><path class="svg-region-LPVl" d="M 375.909 634.250 C 374.798 635.487, 372.901 637.736, 371.694 639.248 C 369.598 641.872, 369.076 642.002, 360 642.154 C 354.775 642.241, 348.572 642.917, 346.215 643.656 C 341.200 645.229, 335.607 645.395, 333.086 644.046 C 330.276 642.542, 306.984 642.540, 303.750 644.043 C 301.112 645.269, 301 645.624, 301 652.733 L 301 660.145 303.635 658.073 C 306.632 655.715, 308.592 655.584, 315.110 657.306 C 320.827 658.815, 322.691 660.316, 323.515 664.069 C 325.135 671.445, 320.385 676.950, 313.618 675.537 C 303.753 673.479, 303.836 673.455, 299.500 679.629 C 297.300 682.761, 293.134 687.614, 290.242 690.412 C 287.350 693.210, 284.987 695.993, 284.992 696.595 C 285.004 698.200, 288.394 701, 290.325 701 C 291.241 701, 295.481 699.382, 299.746 697.405 C 304.011 695.427, 310.200 693.356, 313.500 692.803 C 316.800 692.250, 322.851 691.160, 326.948 690.380 L 334.395 688.963 336.613 691.731 C 337.833 693.254, 339.272 696.075, 339.810 698 C 342.792 708.657, 346.420 719.989, 347.974 723.500 C 352.303 733.279, 353 735.204, 353 737.379 C 353 738.650, 352.206 740.409, 351.235 741.287 C 349.260 743.074, 342.193 744.938, 337.250 744.976 C 334.553 744.996, 334 745.383, 334.001 747.250 C 334.002 748.910, 335.320 750.240, 339.029 752.323 L 344.056 755.147 372.944 755.323 C 388.832 755.421, 402.074 755.258, 402.370 754.963 C 403.354 753.980, 403.164 739.693, 401.966 724.500 C 401.049 712.874, 401.052 708.434, 401.981 704.759 C 402.641 702.151, 403.134 695.085, 403.076 689.056 C 402.993 680.310, 403.379 677.024, 404.986 672.797 C 406.618 668.501, 406.996 665.137, 406.981 655 L 406.964 642.500 403.232 639.444 C 400.561 637.256, 396.929 635.764, 390.452 634.194 C 379.213 631.469, 378.402 631.472, 375.909 634.250" stroke="#494949" fill="#494949" fill-opacity="0.2" fill-rule="evenodd"/><path class="svg-region-Fl" d="M 291.232 534.033 C 283.679 537.901, 272.100 542.905, 265.500 545.152 C 246.264 551.703, 239.256 558.122, 228.968 578.616 L 222.500 591.500 222.356 605.130 C 222.276 612.626, 221.925 619.660, 221.576 620.760 C 220.988 622.615, 221.291 622.723, 225.721 622.249 C 228.349 621.967, 231.400 621.263, 232.500 620.684 C 234.637 619.559, 240.683 618.283, 248 617.412 C 252.109 616.923, 252.826 617.181, 256.250 620.387 C 258.313 622.318, 260 624.821, 260 625.949 C 260 627.403, 260.655 628.006, 262.250 628.022 C 266.493 628.063, 272.886 631.697, 273.580 634.462 C 274.470 638.008, 276.762 639.008, 288.796 641.097 C 294.503 642.087, 299.716 643.350, 300.382 643.902 C 301.200 644.581, 302.874 644.502, 305.546 643.658 C 309.438 642.430, 326.421 642.905, 336.594 644.527 C 338.887 644.893, 342.406 644.665, 344.594 644.009 C 346.742 643.365, 353.192 642.647, 358.928 642.413 C 370.001 641.962, 372.257 641.043, 374.097 636.232 C 375.573 632.371, 379.549 631.557, 387.285 633.532 C 391.016 634.484, 394.305 635.028, 394.592 634.741 C 394.880 634.453, 393.767 633.258, 392.119 632.084 C 390.470 630.911, 387.936 627.599, 386.488 624.725 C 381.708 615.244, 380.965 614.124, 379.063 613.520 C 378.027 613.191, 376.404 611.702, 375.457 610.211 C 374.510 608.720, 372.051 605.250, 369.992 602.500 C 367.934 599.750, 365.519 595.925, 364.626 594 C 363.734 592.075, 359.235 585.453, 354.629 579.286 C 350.024 573.118, 344.970 565.018, 343.399 561.286 C 339.130 551.145, 331.112 535.822, 328.660 533.118 C 325.069 529.158, 319.205 527.046, 311.732 527.022 C 305.299 527.001, 304.283 527.348, 291.232 534.033" stroke="#5ca7a9" fill="#5ca7a9" fill-opacity="0.2" fill-rule="evenodd"/><path class="svg-region-PCl" d="M 243 618 C 242.175 618.533, 240.218 618.976, 238.651 618.985 C 237.084 618.993, 234.384 619.655, 232.651 620.457 C 230.918 621.258, 227.768 622.045, 225.651 622.207 C 222.149 622.474, 221.676 622.861, 220.418 626.500 C 219.658 628.700, 218.575 632.750, 218.012 635.500 C 217.450 638.250, 216.720 641.708, 216.391 643.185 C 215.838 645.662, 216.091 645.925, 219.646 646.570 C 221.766 646.954, 225.156 647.920, 227.180 648.715 C 230.404 649.982, 231.270 649.977, 234.180 648.674 C 239.094 646.473, 248.572 645.761, 254.698 647.132 C 259.661 648.242, 260.184 648.176, 262.328 646.162 C 263.593 644.973, 265.131 644, 265.745 644 C 266.359 644, 268.464 642.987, 270.423 641.750 C 273.503 639.804, 273.952 639.034, 273.742 636.049 C 273.550 633.316, 272.805 632.194, 270.160 630.654 C 268.323 629.585, 265.398 628.421, 263.660 628.068 C 261.484 627.626, 260.406 626.776, 260.197 625.338 C 259.695 621.878, 252.722 616.998, 248.309 617.015 C 246.214 617.024, 243.825 617.467, 243 618 M 304.743 657.027 C 302.875 658.176, 299 665.048, 299 667.213 C 299 669.411, 304.321 673.663, 308.001 674.407 C 317.712 676.368, 318.784 676.307, 321.446 673.645 C 324.234 670.857, 324.690 667.278, 322.910 662.171 C 322.085 659.806, 320.928 658.790, 318.160 658 C 312.129 656.280, 306.609 655.880, 304.743 657.027" stroke="#465ee0" fill="#465ee0" fill-opacity="0.2" fill-rule="evenodd"/><path class="svg-region-Ol" d="M 698.465 380.406 C 688.686 384.855, 678.336 399.689, 675.378 413.494 C 674.670 416.797, 673.154 423.775, 672.010 429 C 669.707 439.518, 667.057 466.713, 667.023 480.201 C 666.974 498.945, 672.401 509.395, 685.426 515.637 C 691.551 518.572, 693.442 519, 700.288 519 C 710.603 519, 724.923 515.563, 732.089 511.366 C 740.166 506.636, 749.636 495.219, 754.729 484.069 C 756.983 479.135, 757.329 476.820, 757.760 463.776 C 758.147 452.036, 757.891 447.476, 756.495 441.276 C 753.305 427.104, 751.835 422.561, 748.365 416.150 C 746.475 412.658, 743.982 407.033, 742.825 403.650 C 738.127 389.907, 731.295 381.286, 723.355 379.081 C 716.470 377.170, 704.135 377.826, 698.465 380.406" stroke="#aa444d" fill="#aa444d" fill-opacity="0.2" fill-rule="evenodd"/><path class="svg-region-VOC" d="M 505.441 509.468 C 504.374 510.276, 502.375 510.965, 501 511 C 495.346 511.143, 488.625 520.600, 488.549 528.518 C 488.506 533.002, 489.014 534.337, 492.565 539.075 C 494.801 542.059, 498.564 548.021, 500.926 552.324 C 503.289 556.627, 505.849 560.389, 506.616 560.683 C 509.656 561.850, 517.191 558.516, 521.102 554.274 C 524.898 550.155, 524.999 549.855, 524.965 542.772 C 524.943 538.363, 524.367 534.516, 523.500 533 C 522.606 531.435, 522.058 527.561, 522.035 522.644 C 522.003 515.356, 521.807 514.633, 519.333 512.644 C 513.214 507.725, 509.015 506.765, 505.441 509.468" stroke="#ff8f93" fill="#ff8f93" fill-opacity="0.2" fill-rule="evenodd"/><path class="svg-region-OABl" d="M 617.577 442.915 C 616.503 444.102, 616.023 445.616, 616.405 446.612 C 617.165 448.593, 614.604 455.901, 611.254 461.315 C 609.955 463.414, 608.017 466.676, 606.946 468.565 C 605.876 470.454, 604.046 473.688, 602.880 475.750 C 601.714 477.813, 599.464 480.978, 597.880 482.785 C 596.296 484.591, 595 486.587, 595 487.220 C 595 487.853, 594.140 489.300, 593.088 490.436 C 591.932 491.684, 590.898 494.774, 590.473 498.253 L 589.769 504.005 593.146 505.416 C 595.003 506.193, 597.976 508.216, 599.752 509.914 C 604.466 514.419, 605.711 514.133, 610.265 507.500 C 611.776 505.300, 614.359 501.746, 616.006 499.601 C 617.653 497.457, 619 494.908, 619 493.937 C 619 492.965, 621.440 488.950, 624.421 485.015 C 629.549 478.247, 629.881 477.450, 630.549 470.318 C 631.682 458.233, 630.717 450.873, 627.341 445.833 C 623.973 440.806, 620.441 439.750, 617.577 442.915" stroke="#81244d" fill="#81244d" fill-opacity="0.2" fill-rule="evenodd"/><path class="svg-region-SOTl" d="M 520.898 480.916 C 511.352 481.650, 509.574 482.932, 510.454 488.452 C 511.158 492.864, 515.043 497.642, 521.071 501.509 C 523.035 502.769, 527.532 506.320, 531.064 509.400 C 534.596 512.480, 537.970 515, 538.562 515 C 540.565 515, 550 490.461, 550 485.253 C 550 484.466, 548.570 484, 546.155 484 C 543.580 484, 541.712 483.339, 540.500 482 C 538.558 479.854, 536.321 479.730, 520.898 480.916" stroke="#995b45" fill="#995b45" fill-opacity="0.2" fill-rule="evenodd"/><path class="svg-region-PNl" d="M 273.958 638.224 C 273.915 639.522, 267.660 644, 265.890 644 C 265.356 644, 263.611 644.967, 262.013 646.148 L 259.107 648.297 261.554 650.221 C 266.805 654.352, 262.565 660.500, 253.879 661.350 C 236.696 663.032, 231.913 660.861, 233.217 651.974 C 233.586 649.457, 233.371 649.065, 231.879 649.538 C 230.900 649.849, 228.840 649.467, 227.300 648.691 C 225.760 647.914, 222.657 646.996, 220.404 646.652 C 216.362 646.034, 216.294 646.074, 215.204 649.763 C 213.921 654.100, 210.978 681.087, 211.047 687.879 C 211.095 692.706, 214.671 707.063, 216.675 710.479 C 217.799 712.395, 217.900 712.400, 219.842 710.643 C 221.690 708.971, 223.267 708.884, 239.768 709.545 C 256.622 710.221, 258.062 710.134, 263.986 708.084 C 271.825 705.371, 275.525 703.474, 280.016 699.866 C 285.900 695.139, 294.026 687.246, 296.326 684.026 C 297.521 682.351, 299.820 679.155, 301.432 676.923 L 304.365 672.866 301.444 670.537 C 298.673 668.327, 298.587 668.032, 299.762 664.783 C 300.443 662.899, 301 657.441, 301 652.654 C 301 642.471, 301.496 642.914, 287.868 640.907 C 283.266 640.228, 278.262 639.061, 276.750 638.311 C 274.564 637.228, 273.991 637.210, 273.958 638.224" stroke="#bbc0d1" fill="#bbc0d1" fill-opacity="0.2" fill-rule="evenodd"/><path class="svg-region-OVl" d="M 573.362 423.765 C 572.737 424.169, 571.477 426.300, 570.564 428.500 C 569.650 430.700, 567.381 434.075, 565.522 436 L 562.142 439.500 563.821 444.056 C 564.744 446.562, 566.257 449.656, 567.182 450.932 C 568.845 453.224, 568.893 453.230, 571.317 451.376 C 578.713 445.717, 592.289 437.372, 596.162 436.103 C 599.187 435.112, 601 433.388, 601 431.501 C 601 431.317, 598.638 430.661, 595.750 430.044 C 592.748 429.402, 588.919 427.653, 586.809 425.961 C 583.989 423.699, 582.100 423.004, 578.809 423.015 C 576.439 423.024, 573.988 423.361, 573.362 423.765" stroke="#593939" fill="#593939" fill-opacity="0.2" fill-rule="evenodd"/><path class="svg-region-COl" d="M 241.002 646.688 C 234.941 647.296, 233 649.240, 233 654.706 C 233 658.772, 233.259 659.210, 236.447 660.542 C 240.420 662.202, 256.288 661.986, 259.575 660.228 C 262.596 658.611, 264.644 654.246, 263.348 652.185 C 260.513 647.676, 252.012 645.585, 241.002 646.688" stroke="#906d99" fill="#906d99" fill-opacity="0.2" fill-rule="evenodd"/><path class="svg-region-HRl" d="M 392.500 599.991 C 391.400 600.466, 388.485 602.626, 386.023 604.791 C 382.153 608.193, 381.545 609.258, 381.545 612.640 C 381.545 615.083, 382.382 617.728, 383.773 619.681 C 384.998 621.401, 386 623.505, 386 624.357 C 386 626.494, 395.689 636, 397.867 636 C 398.842 636, 400.605 637.013, 401.786 638.250 C 407.158 643.881, 407.094 643.855, 413.474 642.847 C 417.302 642.241, 420.176 642.252, 421.474 642.875 C 435.871 649.791, 445.282 653.150, 453.937 654.462 C 459.197 655.259, 464.895 656.199, 466.599 656.550 L 469.699 657.190 470.321 651.935 C 471.054 645.747, 471.322 646.038, 458.904 639.553 C 448.401 634.069, 434.018 624.452, 432.053 621.600 C 428.406 616.307, 424.124 613.092, 418.569 611.477 C 415.190 610.495, 411.261 608.433, 409.138 606.529 C 405.273 603.061, 397.937 598.958, 395.790 599.063 C 395.080 599.098, 393.600 599.516, 392.500 599.991" stroke="#d9dba1" fill="#d9dba1" fill-opacity="0.2" fill-rule="evenodd"/>
    </svg>