<svg xmlns="http://www.w3.org/2000/svg" width="1078" height="1151" viewBox="0 0 1078 1151" version="1.1">
    <path class="svg-region-V" d="M 514.368 208.213 C 514.101 208.646, 512.356 209, 510.490 209 C 505.946 209, 489.498 214.269, 478.984 219.093 C 474.300 221.242, 469.800 223, 468.984 223.001 C 463.376 223.004, 441.631 237.706, 429.627 249.610 C 422.191 256.985, 417 263.021, 417 264.294 C 417 265.106, 415.878 266.505, 414.508 267.403 C 413.137 268.301, 410.922 271.194, 409.586 273.831 C 408.249 276.468, 406.434 279.225, 405.552 279.957 C 404.669 280.689, 401.866 285.161, 399.322 289.894 C 396.778 294.627, 393.545 300.056, 392.139 301.958 C 390.732 303.860, 384.158 316.236, 377.529 329.462 C 370.901 342.687, 364.282 355.081, 362.822 357.004 C 358.777 362.329, 355.788 370.687, 354.955 379 C 354.542 383.125, 353.633 388.632, 352.936 391.238 C 351.823 395.400, 351.871 396.200, 353.334 397.817 C 354.250 398.829, 355 400.932, 355 402.491 C 355 404.049, 355.654 407.614, 356.453 410.412 C 357.253 413.210, 358.437 418.301, 359.085 421.724 C 359.932 426.201, 360.773 428.111, 362.080 428.525 C 363.080 428.843, 364.193 430.092, 364.553 431.301 C 365.683 435.088, 371.408 442.844, 373.500 443.421 C 374.600 443.724, 381.085 443.979, 387.912 443.986 C 399.415 443.999, 400.642 443.814, 404.662 441.458 C 407.048 440.060, 409 438.486, 409 437.961 C 409 437.435, 410.350 434.148, 412 430.656 C 413.650 427.164, 415 423.493, 415 422.499 C 415 421.505, 416.575 417.876, 418.500 414.434 C 420.425 410.991, 422 407.667, 422 407.046 C 422 406.425, 422.879 404.973, 423.953 403.820 C 425.027 402.667, 426.610 399.657, 427.471 397.131 C 428.332 394.606, 430.278 390.955, 431.797 389.020 C 433.316 387.084, 435.288 384.347, 436.179 382.938 C 437.071 381.528, 440.833 377.028, 444.540 372.938 C 469.225 345.695, 469.636 345.324, 483 338.183 C 501.404 328.349, 503.019 327.706, 513.648 325.976 C 518.455 325.194, 519.816 325.416, 526.268 328.041 C 532.621 330.626, 545.677 338.772, 551.500 343.784 C 552.600 344.731, 555.411 348.070, 557.746 351.205 C 560.948 355.502, 562.915 357.160, 565.746 357.946 C 576.547 360.946, 584 357.043, 584 348.388 C 584 344.274, 591.133 323.897, 594.715 317.776 C 596.558 314.628, 599.453 310.578, 601.149 308.776 C 602.845 306.974, 605.560 302.631, 607.183 299.124 C 611.928 288.873, 614.262 286.974, 623.374 285.952 C 627.606 285.478, 631.661 285.316, 632.384 285.594 C 633.329 285.957, 633.641 285.161, 633.495 282.757 C 632.878 272.594, 622.719 255, 617.468 255 C 616.643 255, 611.171 250.220, 605.307 244.377 C 599.443 238.535, 593.488 233.245, 592.073 232.623 C 590.658 232, 587.475 230.300, 585 228.844 C 582.525 227.387, 579.095 225.904, 577.378 225.547 C 575.660 225.189, 570.710 222.656, 566.378 219.917 C 562.045 217.178, 556.475 214.317, 554 213.560 C 551.525 212.802, 548.034 211.431, 546.242 210.514 C 544.450 209.596, 541.525 208.967, 539.742 209.116 C 537.959 209.265, 534.925 209.090, 533 208.726 C 527.508 207.689, 514.906 207.342, 514.368 208.213" stroke="#dd8a8a" fill="#dd8a8a" fill-opacity="0.2" fill-rule="evenodd"/><path class="svg-region-SV" d="M 515.500 325.607 C 514.400 325.834, 511.025 326.509, 508 327.108 C 504.975 327.707, 499.125 329.903, 495 331.988 C 472.956 343.132, 472.690 343.308, 463 353.096 C 442.842 373.459, 429.485 390.100, 427.212 397.685 C 426.572 399.823, 425.137 402.549, 424.024 403.744 C 422.911 404.939, 422 406.317, 422 406.807 C 422 407.298, 420.425 410.667, 418.500 414.294 C 416.575 417.921, 415 421.543, 415 422.342 C 415 423.141, 413.650 426.516, 412 429.841 C 407.365 439.183, 406.877 438.875, 421.500 435.851 C 429.963 434.101, 438.220 434.246, 447.500 436.307 C 451.900 437.285, 458.875 438.797, 463 439.668 C 467.125 440.539, 471.715 441.870, 473.200 442.626 C 474.686 443.382, 476.766 444, 477.824 444 C 481.341 444, 489.412 449.323, 496.708 456.455 C 503.009 462.613, 503.981 463.241, 504.429 461.442 C 504.722 460.264, 506.912 458.400, 509.544 457.085 C 514.142 454.789, 521 448.757, 521 447.009 C 521 446.500, 522.940 444.947, 525.311 443.558 C 527.682 442.169, 530.655 439.932, 531.917 438.588 C 533.180 437.244, 534.784 436.364, 535.483 436.632 C 536.218 436.914, 536.969 436.146, 537.264 434.810 C 537.545 433.539, 538.365 429.704, 539.086 426.286 C 540.263 420.704, 540.686 420.008, 543.239 419.448 C 547.512 418.509, 550.406 420.980, 552.379 427.253 C 554.596 434.304, 556.562 437, 559.485 437 C 562.677 437, 565 439.523, 565 442.990 C 565 449.096, 565.894 449.366, 570.910 444.777 C 573.481 442.425, 576.893 439.569, 578.492 438.430 L 581.398 436.360 579.072 428.524 C 577.793 424.214, 576.797 418.419, 576.859 415.645 C 576.928 412.610, 576.481 410.298, 575.738 409.838 C 574.896 409.318, 574.593 406.746, 574.786 401.740 C 574.981 396.658, 574.564 393.200, 573.427 390.480 C 572.071 387.234, 571.975 385.685, 572.875 381.528 C 573.473 378.762, 574.642 373.350, 575.472 369.500 C 576.303 365.650, 577.232 361.600, 577.537 360.500 C 578.048 358.653, 577.600 358.497, 571.688 358.458 C 564.051 358.409, 561.519 357.009, 557.160 350.428 C 553.177 344.415, 540.828 334.935, 530.522 329.978 C 522.025 325.892, 518.744 324.937, 515.500 325.607" stroke="#c666b5" fill="#c666b5" fill-opacity="0.2" fill-rule="evenodd"/><path class="svg-region-SF" d="M 622.329 285.902 C 614.659 286.645, 612.089 288.822, 607.458 298.500 C 605.615 302.350, 602.831 306.883, 601.271 308.574 C 595.784 314.520, 591.923 321.852, 587.981 333.813 C 585.792 340.456, 584 347.071, 584 348.512 C 584 351.543, 582.311 355.144, 580.344 356.305 C 578.199 357.572, 576.574 362.552, 574.037 375.636 C 571.688 387.748, 571.687 387.780, 573.636 391.136 C 574.709 392.986, 577.354 395.400, 579.512 396.500 C 581.671 397.600, 584.199 399.420, 585.129 400.545 C 586.060 401.669, 588.440 403.460, 590.417 404.525 C 592.394 405.590, 594.258 407.238, 594.559 408.187 C 594.860 409.136, 596.320 410.944, 597.803 412.206 C 599.287 413.468, 600.956 415.836, 601.513 417.469 C 602.699 420.945, 608.225 425, 611.776 425 C 613.140 425, 616.744 423.577, 619.785 421.837 C 628.445 416.882, 632.273 416.573, 638.867 420.294 C 644.079 423.236, 644.405 423.297, 645.426 421.524 C 646.017 420.498, 647.880 418.048, 649.566 416.079 C 657.189 407.179, 658.318 403.930, 655.500 399 C 652.950 394.539, 653.639 391.201, 658 386.883 C 660.200 384.705, 662.016 382.828, 662.035 382.711 C 662.054 382.595, 662.720 378.900, 663.515 374.500 C 664.310 370.100, 664.970 363.092, 664.980 358.926 C 665.036 337.683, 656.778 308.272, 648.571 300.480 C 646.822 298.819, 645.118 296.750, 644.785 295.882 C 643.918 293.623, 632.118 284.971, 630.151 285.152 C 629.243 285.236, 625.723 285.574, 622.329 285.902" stroke="#8c6b55" fill="#8c6b55" fill-opacity="0.2" fill-rule="evenodd"/><path class="svg-region-PF" d="M 575 397.958 C 575 400.044, 574.716 403.170, 574.369 404.905 C 573.814 407.680, 574.240 408.538, 577.911 412.030 C 581.450 415.397, 582.739 416, 586.393 416 C 589.860 416, 596.383 414.561, 597.780 413.488 C 598.736 412.754, 592.220 404.920, 589.831 403.930 C 588.237 403.270, 586.141 401.778, 585.175 400.615 C 584.208 399.452, 581.523 397.525, 579.208 396.333 L 575 394.166 575 397.958" stroke="#faaaaa" fill="#faaaaa" fill-opacity="0.2" fill-rule="evenodd"/><path class="svg-region-AAB" d="M 645 447.891 C 642.590 448.558, 642.482 448.945, 642 458.687 C 641.447 469.870, 639.945 472.987, 635.095 473.015 C 630.884 473.040, 630.010 474.274, 629.151 481.406 C 628.322 488.299, 627.245 489.937, 623.500 490.007 C 620.486 490.063, 613.588 493.461, 609.995 496.660 C 607.118 499.221, 597.005 511.752, 594.500 515.860 C 592.656 518.884, 582.571 531.911, 578.500 536.527 C 577.400 537.774, 575.552 539.895, 574.393 541.240 C 573.234 542.586, 571.395 544.319, 570.305 545.093 C 566.587 547.733, 557.647 561.478, 555.731 567.500 C 552.696 577.037, 553.703 587.700, 558.583 597.694 C 560.680 601.987, 563.457 606.927, 564.756 608.672 C 566.998 611.682, 567.381 611.817, 572.309 611.318 C 575.578 610.988, 579.891 611.417, 583.961 612.479 C 587.895 613.505, 592.001 613.930, 594.461 613.567 C 597.979 613.047, 599.135 613.423, 603.426 616.485 C 607.032 619.058, 609.394 620, 612.242 620 C 619.194 620, 619.362 619.790, 628.496 599.657 C 629.954 596.443, 630.930 593.597, 630.665 593.331 C 630.399 593.066, 631.723 589.469, 633.606 585.337 C 637.010 577.868, 637.493 576.340, 640.986 562 C 643.644 551.090, 648.606 534.969, 651.196 528.829 C 653.247 523.968, 653.453 521.830, 653.539 504.500 C 653.601 491.887, 654.196 482.068, 655.307 475.291 C 656.499 468.025, 656.696 464.330, 655.991 462.475 C 655.446 461.042, 655 458.814, 655 457.525 C 655 454.807, 650.157 446.952, 648.572 447.100 C 647.983 447.155, 646.375 447.511, 645 447.891" stroke="#7f3c1a" fill="#7f3c1a" fill-opacity="0.2" fill-rule="evenodd"/><path class="svg-region-APB" d="M 629.177 417.729 C 627.350 417.954, 623.579 419.480, 620.797 421.120 C 618.015 422.760, 614.452 424.360, 612.879 424.674 C 611.306 424.989, 608.443 426.732, 606.518 428.548 C 601.772 433.024, 592.878 436.409, 586.124 436.310 C 582.032 436.250, 580.130 436.741, 578.160 438.366 C 565.738 448.605, 552.832 464.195, 550.930 471.260 C 550.319 473.530, 549.969 479.767, 550.153 485.120 C 550.455 493.912, 550.281 495.077, 548.360 497.176 C 545.223 500.604, 543.045 505.396, 542.364 510.364 C 541.386 517.495, 544.112 523.816, 551.827 532.310 C 558.218 539.345, 561.409 543.189, 564.396 547.447 C 565.723 549.340, 565.854 549.311, 569.035 546.447 C 574.102 541.884, 576.290 539.611, 579 536.093 C 581.856 532.385, 584.131 529.641, 587.494 525.846 C 588.787 524.386, 591.116 521.236, 592.669 518.846 C 594.221 516.455, 598.121 511.158, 601.334 507.074 L 607.176 499.648 603.588 498.217 C 601.360 497.329, 600 496.115, 600 495.015 C 600 491.497, 602.935 486.415, 607.422 482.160 C 610.328 479.405, 612 476.962, 612 475.471 C 612 474.179, 613.815 470.957, 616.034 468.311 C 618.253 465.665, 621.412 461.901, 623.053 459.946 C 624.694 457.992, 626.729 455.404, 627.575 454.196 C 628.421 452.988, 630.100 451.997, 631.307 451.993 C 632.513 451.990, 634.850 451.093, 636.500 450 C 638.289 448.815, 641.192 448.011, 643.691 448.007 C 645.996 448.003, 648.162 447.547, 648.504 446.994 C 648.846 446.440, 648.237 443.403, 647.151 440.244 C 646.065 437.085, 644.883 431.939, 644.524 428.809 C 643.877 423.170, 643.821 423.090, 638.451 420.059 C 635.469 418.377, 632.911 417.072, 632.765 417.160 C 632.619 417.248, 631.005 417.504, 629.177 417.729" stroke="#ac7444" fill="#ac7444" fill-opacity="0.2" fill-rule="evenodd"/><path class="svg-region-PC" d="M 541.867 419.667 C 540.715 419.973, 539.708 422.607, 538.451 428.594 C 537.227 434.428, 536.281 436.938, 535.429 436.611 C 534.746 436.349, 533.406 436.999, 532.449 438.056 C 531.493 439.113, 528.638 441.319, 526.105 442.959 C 523.572 444.598, 520.464 447.479, 519.197 449.359 C 517.867 451.333, 514.354 454.132, 510.880 455.983 C 507.571 457.747, 504.609 459.854, 504.298 460.667 C 503.986 461.479, 504.261 465.358, 504.910 469.287 C 506.147 476.776, 508.006 480.063, 515.059 487.234 C 517.431 489.645, 518.958 492.302, 519.370 494.734 C 519.720 496.805, 520.280 499.952, 520.614 501.727 C 520.947 503.502, 522.746 506.571, 524.610 508.548 C 527.988 512.130, 529.192 517.145, 527 518.500 C 526.450 518.840, 526 521.244, 526 523.843 C 526 528.033, 526.340 528.770, 529 530.341 C 531.617 531.887, 532 532.680, 532 536.554 C 532 540.224, 531.393 541.666, 528.500 544.868 C 526.575 546.999, 524.994 549.138, 524.986 549.621 C 524.963 551.067, 517.405 559, 516.051 559 C 514.291 559, 515.234 565.993, 518.008 573.500 C 520.669 580.702, 522.711 591.134, 523.978 604 C 524.967 614.039, 527.009 622.121, 530.077 628.146 C 533.216 634.309, 534.420 635, 542.015 635 C 548.470 635, 548.987 634.831, 550.530 632.219 C 551.434 630.689, 553.423 628.720, 554.952 627.842 C 556.857 626.749, 557.942 625.122, 558.402 622.670 C 558.865 620.203, 560.337 618.011, 563.147 615.606 L 567.221 612.119 565.287 609.310 C 564.224 607.764, 561.466 602.757, 559.158 598.182 C 555.827 591.578, 554.838 588.385, 554.358 582.682 C 553.547 573.057, 555.807 564.312, 561.038 556.841 C 563.217 553.729, 565 550.327, 565 549.281 C 565 547.359, 559.914 540.690, 551.401 531.448 C 545.400 524.934, 542.968 520.091, 542.262 513.247 C 541.780 508.576, 541.271 507.489, 538.945 506.153 C 537.433 505.286, 534.294 501.770, 531.968 498.341 C 529.314 494.427, 526.684 491.737, 524.905 491.117 C 521.570 489.954, 520.482 486.788, 521.739 481.906 C 522.542 478.791, 522.995 478.457, 527.058 478 C 530.719 477.588, 531.556 477.104, 531.820 475.250 C 532.060 473.555, 532.801 473, 534.821 473 C 536.988 473, 537.972 473.883, 539.940 477.593 C 542.074 481.616, 547.457 487, 549.344 487 C 549.705 487, 550 484.155, 550 480.678 C 550 471.637, 552.198 466.321, 559.635 457.376 C 565.230 450.646, 566.074 449.121, 565.578 446.641 C 565.260 445.051, 565 442.938, 565 441.946 C 565 439.411, 562.296 437, 559.452 437 C 556.547 437, 554.542 434.188, 552.469 427.208 C 550.452 420.417, 547.347 418.208, 541.867 419.667" stroke="#cda789" fill="#cda789" fill-opacity="0.2" fill-rule="evenodd"/><path class="svg-region-DB" d="M 426 434.987 C 424.625 435.442, 420.012 436.396, 415.750 437.107 C 411.488 437.817, 408 438.676, 408 439.015 C 408 439.354, 406.191 440.648, 403.980 441.891 C 400.244 443.991, 398.972 444.128, 385.967 443.825 C 373.829 443.543, 372.060 443.699, 372.622 445 C 374.630 449.649, 375.917 453.753, 375.956 455.628 C 375.980 456.798, 376.675 459.371, 377.500 461.346 C 378.325 463.320, 379 465.895, 379 467.067 C 379 468.239, 379.626 470.616, 380.391 472.349 C 381.157 474.082, 382.330 477.750, 382.998 480.500 C 383.667 483.250, 384.421 486.288, 384.674 487.250 C 384.928 488.212, 385.769 489, 386.544 489 C 387.320 489, 388.656 490.072, 389.514 491.381 C 390.372 492.691, 393.870 495.728, 397.287 498.131 L 403.500 502.500 413.500 502.792 C 419 502.952, 424.400 503.506, 425.500 504.023 C 426.600 504.540, 436.577 505.084, 447.672 505.231 C 466.579 505.483, 467.990 505.632, 470.172 507.607 C 473.074 510.233, 478.708 513, 481.154 513 C 482.169 513, 483 513.450, 483 514 C 483 514.550, 484.107 515, 485.461 515 C 488.377 515, 491.983 518.529, 492.041 521.439 C 492.090 523.948, 497.453 530.456, 498.790 529.630 C 499.318 529.304, 499.946 526.666, 500.187 523.768 C 500.612 518.658, 505.825 506.220, 508.458 504.035 C 509.246 503.381, 510.824 503.376, 513.071 504.020 C 514.950 504.559, 517.560 505, 518.871 505 C 521.070 505, 521.207 504.708, 520.637 501.250 C 519.258 492.896, 517.767 489.803, 512.428 484.214 C 507.392 478.942, 505.020 474.310, 505.006 469.718 C 504.994 466.113, 502.159 461.322, 496.999 456.189 C 491.099 450.320, 481.076 444, 477.669 444 C 476.446 444, 474.557 443.416, 473.473 442.703 C 471.459 441.378, 464.479 439.673, 446.212 436.044 C 435.381 433.892, 430.130 433.617, 426 434.987" stroke="#e8b1e4" fill="#e8b1e4" fill-opacity="0.2" fill-rule="evenodd"/><path class="svg-region-MB" d="M 386 490.826 C 386 491.830, 387.170 495.992, 388.601 500.076 C 390.379 505.152, 391.612 511.769, 392.500 521 C 393.461 531.003, 394.876 538.226, 397.960 548.884 C 402.374 564.139, 405.483 577.950, 406.538 587 C 407.410 594.475, 412.592 610.657, 415.585 615.250 C 417.291 617.869, 418.755 619, 420.436 619 C 423.600 619, 437.902 626.370, 442.714 630.480 C 444.796 632.259, 448.514 634.739, 450.975 635.992 C 455.359 638.224, 468.243 647.673, 474.681 653.379 C 476.468 654.962, 478.416 657.730, 479.010 659.530 C 480.066 662.731, 480.151 662.771, 482.937 661.381 C 484.765 660.470, 488.242 660.053, 492.643 660.219 C 501.766 660.562, 518.940 658.352, 527 655.798 C 530.575 654.665, 535.662 652.111, 538.304 650.122 C 542.857 646.695, 549 638.678, 549 636.162 C 549 635.391, 546.669 635, 542.071 635 C 534.390 635, 533.229 634.329, 530.017 628.033 C 527.241 622.592, 524.002 609.437, 523.991 603.562 C 523.979 597.163, 520.719 580.898, 517.926 573.305 C 516.752 570.112, 515.568 565.587, 515.295 563.250 C 514.895 559.828, 514.408 559, 512.793 559 C 511.690 559, 509.823 557.768, 508.644 556.262 C 507.465 554.757, 504.587 551.366, 502.249 548.728 C 495.655 541.287, 493.450 534.693, 496.528 531.615 C 498.115 530.027, 497.724 529.174, 493.250 524.460 C 492.563 523.735, 492 522.296, 492 521.260 C 492 518.526, 488.317 515, 485.461 515 C 484.107 515, 483 514.550, 483 514 C 483 513.450, 482.114 513, 481.030 513 C 478.880 513, 472.589 509.766, 469.648 507.149 C 468.117 505.786, 464.217 505.376, 447.148 504.785 C 410.937 503.532, 405.201 502.912, 399.653 499.651 C 396.986 498.084, 393.102 495.046, 391.020 492.901 C 386.768 488.520, 386 488.202, 386 490.826" stroke="#f9c6c6" fill="#f9c6c6" fill-opacity="0.2" fill-rule="evenodd"/><path class="svg-region-LPl" d="M 631.500 603.164 C 627.953 605.121, 623.870 609.418, 622.528 612.608 C 619.028 620.928, 612.018 622.356, 603.769 616.429 C 599.442 613.321, 598.302 612.942, 594.970 613.505 C 592.646 613.898, 588.724 613.532, 584.990 612.576 C 581.607 611.709, 577.057 611, 574.879 611 C 567.487 611, 559.383 616.885, 558.098 623.185 C 557.642 625.423, 556.541 626.924, 554.708 627.806 C 552.033 629.093, 549 633.593, 549 636.274 C 549 638.447, 542.820 646.567, 538.636 649.892 C 536.538 651.559, 532.275 653.892, 529.161 655.077 C 521.964 657.815, 504.039 660.315, 492.885 660.137 C 485.481 660.019, 483.890 660.299, 481.561 662.131 C 476.732 665.929, 476.564 668.328, 480.694 674.461 C 485.484 681.574, 496.671 688.786, 503.177 688.956 C 505.512 689.017, 509 693.746, 509 696.851 C 509 698.271, 509.754 701.407, 510.676 703.821 C 512.112 707.582, 512.156 708.514, 510.986 710.354 C 510.235 711.534, 508.831 714.075, 507.866 716 C 506.901 717.925, 504.961 720.807, 503.556 722.406 C 502.150 724.004, 500.958 725.579, 500.906 725.906 C 500.854 726.232, 500.672 729.487, 500.501 733.137 C 500.331 736.788, 499.724 740.647, 499.153 741.714 C 497.064 745.618, 496.682 753.484, 498.418 756.841 C 499.856 759.623, 500.551 760, 504.235 760 C 506.788 760, 511.559 758.651, 516.483 756.536 C 520.952 754.616, 528.329 752.459, 533.025 751.699 C 544.172 749.893, 550.423 746.592, 556.938 739.072 C 559.819 735.746, 563.199 732.456, 564.449 731.762 C 565.699 731.068, 568.509 729.304, 570.693 727.843 C 576.877 723.706, 581.204 722.852, 600 722.054 C 614.852 721.424, 618.483 720.947, 624 718.901 C 631.395 716.159, 640 711.285, 640 709.838 C 640 709.304, 641.064 707.434, 642.365 705.683 C 646.459 700.173, 651.760 688.852, 654.861 679 C 658.860 666.292, 662.079 639.567, 660.576 631.555 C 659.449 625.546, 649.723 612.707, 644.183 609.914 C 642.707 609.170, 640.089 607.085, 638.365 605.281 C 634.932 601.688, 634.447 601.539, 631.500 603.164" stroke="#d2454f" fill="#d2454f" fill-opacity="0.2" fill-rule="evenodd"/><path class="svg-region-DMl" d="M 398.370 631.472 C 395.317 633.704, 396.178 647.768, 400.106 659.818 L 403.262 669.500 403.617 697.409 C 403.906 720.168, 403.697 726.125, 402.486 729.694 C 400.834 734.558, 400.525 740.588, 401.883 741.428 C 402.369 741.728, 403.078 744.469, 403.459 747.519 C 404.314 754.360, 406.076 756.141, 414.278 758.456 C 417.700 759.422, 423.633 761.107, 427.462 762.199 C 437.896 765.177, 447.357 765.585, 458.221 763.524 C 469.859 761.317, 470.724 760.890, 475 755.232 C 478.730 750.297, 481.546 747.346, 489.814 739.709 C 492.666 737.074, 495.006 734.374, 495.014 733.709 C 495.021 733.044, 497.529 729.575, 500.587 726 C 503.645 722.425, 506.928 717.925, 507.884 716 C 508.839 714.075, 510.235 711.534, 510.986 710.354 C 512.156 708.514, 512.112 707.582, 510.676 703.821 C 509.754 701.407, 509 698.271, 509 696.851 C 509 692.686, 505.597 689.343, 499.989 687.997 C 493.280 686.388, 484.714 680.421, 480.947 674.734 C 478.457 670.974, 475.886 668.997, 467.185 664.148 C 461.300 660.868, 453.563 657.213, 449.993 656.025 C 435.569 651.226, 414.853 640.538, 411 635.906 C 410.175 634.915, 407.403 633.214, 404.840 632.126 C 400.897 630.453, 399.901 630.352, 398.370 631.472" stroke="#68533d" fill="#68533d" fill-opacity="0.2" fill-rule="evenodd"/><path class="svg-region-PMl" d="M 307 701.602 C 300.675 703.530, 293.880 705.520, 291.900 706.025 C 281.176 708.759, 272.919 715.033, 271.012 721.897 C 269.401 727.696, 269.749 734.463, 271.752 736.275 C 273.787 738.117, 278.225 739.929, 281.918 740.426 C 283.338 740.617, 287.875 741.547, 292 742.493 C 303.380 745.102, 309.324 745.840, 311.184 744.874 C 312.111 744.393, 316.019 744, 319.869 744 C 327.031 744, 331.872 742.798, 333.214 740.687 C 335.002 737.876, 332.914 717.594, 329.867 708.164 C 328.388 703.591, 323.282 697.989, 320.646 698.049 C 319.466 698.076, 313.325 699.675, 307 701.602" stroke="#90cf92" fill="#90cf92" fill-opacity="0.2" fill-rule="evenodd"/><path class="svg-region-PV" d="M 209.608 671.578 C 208.581 674.254, 208.951 680.228, 210.500 686 C 211.312 689.025, 211.982 693.801, 211.988 696.614 C 212.008 705.348, 213.833 712.008, 219.119 722.645 C 225.021 734.521, 232.108 742.147, 241.031 746.221 C 244.039 747.595, 248.572 749.644, 251.105 750.776 C 255.800 752.873, 257.587 754.722, 263.342 763.429 C 268.390 771.067, 270.774 772.419, 278.973 772.293 C 284.972 772.200, 286.707 771.724, 291.545 768.843 C 294.632 767.004, 298.775 764.673, 300.751 763.661 C 306.108 760.919, 321.177 759.691, 337.500 760.665 C 356.335 761.788, 368.185 761.047, 370.918 758.574 C 373.726 756.033, 373.538 755.009, 370.250 754.953 C 368.738 754.927, 362.775 753.774, 357 752.391 C 351.225 751.008, 343.350 749.252, 339.500 748.488 C 335.650 747.724, 330.475 746.560, 328 745.902 C 325.525 745.244, 320.575 744.741, 317 744.784 C 302.828 744.954, 300.742 744.852, 298.169 743.862 C 295.784 742.945, 289.061 741.536, 281.984 740.472 C 278.244 739.910, 272.521 737.332, 271.035 735.542 C 268.843 732.901, 270.260 721.592, 273.321 717.289 C 276.011 713.508, 276.048 713.874, 272.402 708.183 C 272.290 708.008, 269.859 709.051, 267 710.500 C 262.129 712.968, 261.224 713.094, 252.650 712.487 C 247.618 712.131, 242.150 711.425, 240.500 710.919 C 238.803 710.398, 233.542 705.982, 228.386 700.749 L 219.272 691.500 217.966 683.500 C 216.824 676.509, 216.253 675.153, 213.438 672.746 C 210.725 670.427, 210.121 670.243, 209.608 671.578" stroke="#b09658" fill="#b09658" fill-opacity="0.2" fill-rule="evenodd"/><path class="svg-region-LPVl" d="M 380.010 638.250 C 379.493 639.487, 378.176 641.535, 377.083 642.801 C 375.209 644.972, 374.932 645.016, 372.163 643.585 C 369.848 642.387, 368.043 642.261, 363.596 642.984 C 360.497 643.489, 355.691 643.632, 352.915 643.304 C 348.777 642.814, 347.128 643.122, 343.761 645.014 C 340.852 646.649, 337.460 647.463, 332.135 647.805 C 326.266 648.182, 323.701 648.868, 320.447 650.932 C 314.854 654.478, 309.462 659.589, 305.860 664.758 C 304.228 667.100, 301.832 670.077, 300.535 671.374 C 297.691 674.218, 294 681.216, 294 683.764 C 294 684.778, 292.390 687.158, 290.422 689.054 C 288.454 690.949, 286.273 693.850, 285.575 695.500 C 284.338 698.424, 278.127 704.710, 274.433 706.778 C 272.855 707.661, 272.761 708.179, 273.774 710.404 C 275.088 713.288, 276.556 713.654, 278.921 711.688 C 281.910 709.203, 304.931 701.458, 316.839 698.930 C 322.030 697.827, 322.259 697.874, 325.128 700.623 C 329.599 704.907, 333.973 721.670, 333.992 734.595 C 334.001 740.386, 332.344 742.581, 327.184 743.613 C 322.925 744.465, 323.161 745.602, 327.750 746.339 C 333.816 747.313, 345.868 749.826, 355 752.021 C 368.655 755.304, 374.427 755.930, 381.624 754.911 C 385.400 754.376, 389.588 754.341, 391.372 754.828 C 393.856 755.507, 403.999 755.382, 404.649 754.665 C 404.731 754.574, 404.138 751.350, 403.331 747.500 C 402.524 743.650, 401.618 739.261, 401.318 737.747 C 401.017 736.232, 401.439 732.857, 402.254 730.247 C 403.329 726.804, 403.778 720.007, 403.887 705.500 C 404.072 680.946, 402.892 667.799, 399.623 658 C 398.247 653.875, 397.016 647.886, 396.887 644.691 C 396.662 639.095, 396.526 638.829, 393.204 637.441 C 391.308 636.648, 387.775 636, 385.353 636 C 381.733 636, 380.783 636.400, 380.010 638.250" stroke="#494949" fill="#494949" fill-opacity="0.2" fill-rule="evenodd"/><path class="svg-region-Fl" d="M 303.500 527.719 C 302.400 527.987, 300.825 528.785, 300 529.491 C 299.175 530.198, 296.025 531.988, 293 533.470 C 289.975 534.951, 286.825 536.588, 286 537.107 C 285.175 537.625, 281.575 539.445, 278 541.150 C 247.884 555.515, 247.453 555.776, 236.929 566.118 C 226.470 576.396, 221 584.878, 221 590.818 C 221 592.430, 220.272 595.718, 219.381 598.124 C 218.289 601.076, 217.689 606.406, 217.537 614.500 C 217.413 621.100, 216.968 627.288, 216.549 628.250 C 215.916 629.701, 216.307 630, 218.834 630 C 220.510 630, 222.129 630.400, 222.432 630.890 C 222.734 631.379, 224.448 632.017, 226.241 632.308 C 228.033 632.599, 230.383 632.986, 231.462 633.169 C 232.780 633.391, 233.551 632.844, 233.812 631.500 C 234.286 629.053, 237.892 625, 239.593 625 C 240.278 625, 242.112 625.649, 243.669 626.442 C 245.226 627.236, 249.088 628.863, 252.250 630.058 C 257.575 632.072, 259.756 634, 256.708 634 C 255.266 634, 248.180 641.273, 246.248 644.736 C 243.366 649.901, 245.660 653, 252.364 653 C 254.739 653, 257.724 651.770, 261.679 649.163 C 269.566 643.963, 272.843 643.006, 282.899 642.965 C 288.463 642.942, 292.383 642.424, 294 641.500 C 296.805 639.897, 311.525 639.423, 312.442 640.906 C 312.750 641.405, 316.039 643.247, 319.751 644.999 C 325.714 647.815, 327.257 648.134, 333 647.743 C 337.033 647.468, 341.184 646.440, 343.937 645.034 C 347.548 643.190, 349.341 642.882, 353.574 643.380 C 356.434 643.716, 361.123 643.546, 363.993 643.001 C 368.368 642.172, 369.688 642.294, 372.163 643.755 C 375.065 645.470, 375.148 645.457, 377.103 643 C 378.196 641.625, 379.530 639.433, 380.067 638.128 C 380.969 635.937, 381.442 635.802, 386.272 636.355 C 389.147 636.685, 392.625 637.077, 394 637.227 C 396.066 637.453, 396.555 637.023, 396.816 634.750 C 397.157 631.790, 399.406 630.048, 402.525 630.326 C 403.948 630.454, 404.501 629.832, 404.593 628 C 404.662 626.625, 405.055 624.712, 405.466 623.750 C 406.064 622.350, 405.713 622, 403.709 622 C 400.585 622, 390.837 616.942, 386.323 612.978 C 384.241 611.151, 381.819 610, 380.055 610 C 376.405 610, 369.827 604.800, 360.287 594.373 C 350.938 584.155, 348.256 580.452, 347.429 576.627 C 346.500 572.323, 339.127 554.275, 336.552 550 C 335.392 548.075, 333.612 544.897, 332.595 542.937 C 329.486 536.945, 328.685 536.277, 318.936 531.568 C 309.832 527.171, 307.815 526.668, 303.500 527.719" stroke="#5ca7a9" fill="#5ca7a9" fill-opacity="0.2" fill-rule="evenodd"/><path class="svg-region-PCl" d="M 236.174 627.314 C 234.978 628.587, 234 630.312, 234 631.148 C 234 633.635, 233.220 633.770, 227.734 632.227 C 216.429 629.049, 216.732 628.949, 214.250 636.667 C 211.848 644.134, 208 661.876, 208 665.483 C 208 667.458, 215.743 676, 217.534 676 C 218.724 676, 232.991 660.400, 233.996 658 C 235.208 655.104, 240.118 652, 243.487 652 C 245.345 652, 245.704 651.585, 245.273 649.934 C 244.975 648.798, 245.332 646.661, 246.065 645.184 C 247.986 641.316, 254.084 634.977, 257 633.818 C 259.350 632.884, 259.110 632.675, 253 630.333 C 249.425 628.963, 245.306 627.202, 243.846 626.421 C 240.179 624.458, 238.695 624.631, 236.174 627.314" stroke="#465ee0" fill="#465ee0" fill-opacity="0.2" fill-rule="evenodd"/><path class="svg-region-SB" d="M 886.148 142.964 C 868.533 145.737, 842.244 164.134, 833.474 179.825 C 831.657 183.076, 831.001 185.745, 831.005 189.876 C 831.011 196.904, 833.251 199.784, 841 202.731 C 844.025 203.881, 849.502 205.987, 853.171 207.411 C 856.839 208.835, 860.821 210, 862.019 210 C 865.641 210, 870.328 207.125, 873.500 202.959 C 883.314 190.067, 890.706 183.033, 898 179.646 C 901.575 177.986, 905.737 175.727, 907.248 174.627 C 911.343 171.647, 918.001 160.071, 917.996 155.940 C 917.992 151.574, 914.949 146.542, 911.116 144.560 C 907.508 142.694, 893.534 141.801, 886.148 142.964" stroke="#d2e400" fill="#d2e400" fill-opacity="0.2" fill-rule="evenodd"/><path class="svg-region-VOC" d="M 508.109 504.369 C 504.699 508.478, 500 520.080, 500 524.391 C 500 528.155, 499.562 529.241, 497.500 530.592 C 493.108 533.470, 494.945 540.486, 502.249 548.728 C 504.587 551.366, 507.465 554.757, 508.644 556.262 C 512.021 560.575, 516.357 560.050, 521.138 554.750 C 523.247 552.413, 524.978 550.205, 524.986 549.845 C 524.994 549.484, 526.575 547.304, 528.500 545 C 531.285 541.667, 532 539.949, 532 536.593 C 532 533.039, 531.514 532.017, 528.907 530.089 C 525.643 527.676, 525.483 526.081, 527.532 516.363 C 528 514.147, 527.658 512.385, 526.370 510.363 C 523.946 506.558, 523.405 506.242, 517.026 504.909 C 514.015 504.280, 511.049 503.572, 510.436 503.337 C 509.822 503.102, 508.775 503.566, 508.109 504.369" stroke="#ff8f93" fill="#ff8f93" fill-opacity="0.2" fill-rule="evenodd"/><path class="svg-region-OABl" d="M 637.750 448.689 C 636.788 448.941, 636 449.543, 636 450.028 C 636 450.513, 634.476 451.195, 632.613 451.545 C 630.044 452.027, 628.052 453.632, 624.363 458.195 C 621.688 461.503, 617.813 466.215, 615.750 468.666 C 613.688 471.117, 612 474.179, 612 475.471 C 612 476.962, 610.328 479.405, 607.422 482.160 C 600.155 489.050, 598.058 495.794, 602.547 497.839 C 606.131 499.472, 606.196 499.454, 612.755 494.928 C 616.422 492.397, 620.249 490.642, 622.866 490.291 C 627.812 489.628, 628.526 488.553, 629.308 480.594 C 629.922 474.339, 630.914 473.040, 635.095 473.015 C 640.045 472.986, 641.463 469.913, 641.841 458.398 C 642.198 447.508, 642.205 447.525, 637.750 448.689" stroke="#81244d" fill="#81244d" fill-opacity="0.2" fill-rule="evenodd"/><path class="svg-region-SOTl" d="M 531.820 475.250 C 531.556 477.103, 530.719 477.588, 527.067 478 C 523.168 478.440, 522.532 478.862, 521.793 481.500 C 521.332 483.150, 521.199 485.908, 521.500 487.630 C 521.923 490.055, 522.667 490.883, 524.811 491.312 C 526.802 491.710, 528.785 493.647, 531.887 498.221 C 537.954 507.168, 543.908 510.173, 543.985 504.327 C 543.993 503.681, 545.581 501.082, 547.513 498.551 C 551.852 492.866, 551.489 490.222, 545.582 484.481 C 543.308 482.271, 540.650 478.783, 539.677 476.731 C 538.236 473.695, 537.369 473, 535.023 473 C 532.794 473, 532.067 473.511, 531.820 475.250" stroke="#995b45" fill="#995b45" fill-opacity="0.2" fill-rule="evenodd"/><path class="svg-region-PNl" d="M 293 641.500 C 291.415 642.406, 287.525 642.942, 282.376 642.965 C 272.937 643.006, 267.685 644.602, 260.862 649.503 C 258.186 651.427, 255.593 653, 255.100 653 C 254.608 653, 254.271 654.391, 254.353 656.090 C 254.493 659.025, 254.197 659.277, 248.500 661.076 C 241.210 663.378, 235.160 663.580, 234.380 661.547 C 233.931 660.378, 233.449 660.327, 231.911 661.288 C 230.860 661.944, 230 662.754, 230 663.088 C 230 664.097, 218.557 675.406, 217.750 675.196 C 216.589 674.893, 216.889 679.894, 218.421 686.409 C 219.696 691.830, 220.544 693.049, 228.656 701.141 C 233.520 705.993, 238.850 710.385, 240.500 710.901 C 242.150 711.417, 247.611 712.130, 252.635 712.486 C 261.541 713.116, 261.941 713.049, 268.536 709.834 C 276.182 706.105, 284.727 698.936, 285.582 695.531 C 285.895 694.280, 287.918 691.533, 290.076 689.426 C 292.234 687.318, 294.004 684.673, 294.009 683.547 C 294.022 680.895, 299.653 671.070, 301.586 670.329 C 302.404 670.015, 303.767 668.418, 304.614 666.780 C 306.657 662.828, 314.524 654.957, 319.687 651.698 C 321.967 650.259, 324.086 648.670, 324.396 648.168 C 324.706 647.666, 322.284 646.054, 319.014 644.587 C 315.743 643.119, 312.801 641.487, 312.475 640.959 C 311.527 639.425, 295.869 639.860, 293 641.500" stroke="#bbc0d1" fill="#bbc0d1" fill-opacity="0.2" fill-rule="evenodd"/><path class="svg-region-OVl" d="M 576.889 414.682 C 576.585 422.435, 580.026 434.408, 583.019 436.010 C 585.621 437.403, 589.729 437.120, 595.186 435.172 C 600.780 433.176, 609.016 427.555, 608.961 425.771 C 608.940 425.072, 607.511 423.600, 605.786 422.500 C 604.061 421.400, 602.166 419.070, 601.575 417.322 C 600.040 412.784, 599.550 412.563, 595.021 414.375 C 589.388 416.629, 583.448 416.455, 579.904 413.932 L 577 411.864 576.889 414.682" stroke="#593939" fill="#593939" fill-opacity="0.2" fill-rule="evenodd"/><path class="svg-region-COl" d="M 237.188 653.960 C 234.392 655.721, 233.925 656.547, 234.188 659.273 C 234.478 662.268, 234.788 662.519, 238.500 662.759 C 244.332 663.136, 254.423 659.745, 254.798 657.281 C 255.247 654.340, 252.710 652.869, 246.287 652.345 C 241.602 651.963, 239.869 652.271, 237.188 653.960" stroke="#906d99" fill="#906d99" fill-opacity="0.2" fill-rule="evenodd"/><path class="svg-region-HRl" d="M 410.500 619.945 C 407.369 621.227, 404.977 624.429, 404.534 627.933 C 404.181 630.720, 404.580 631.410, 407.564 633.170 C 409.454 634.285, 411 635.559, 411 636.002 C 411 638.615, 431.093 648.936, 451.782 656.949 C 456.336 658.713, 463.601 662.147, 467.926 664.578 C 472.250 667.010, 476.040 669, 476.347 669 C 476.655 669, 477.646 667.440, 478.551 665.533 C 480.098 662.274, 480.086 661.841, 478.348 658.309 C 477.332 656.242, 474.195 652.740, 471.379 650.526 C 468.562 648.312, 463.612 644.413, 460.379 641.863 C 457.145 639.313, 452.785 636.512, 450.689 635.638 C 448.592 634.765, 445.155 632.577, 443.049 630.775 C 440.944 628.974, 435.630 625.587, 431.242 623.250 C 424.596 619.710, 422.363 619.011, 417.881 619.063 C 414.922 619.098, 411.600 619.495, 410.500 619.945" stroke="#d9dba1" fill="#d9dba1" fill-opacity="0.2" fill-rule="evenodd"/>
    </svg>