<svg xmlns="http://www.w3.org/2000/svg" width="1078" height="1151" viewBox="0 0 1078 1151" version="1.1">
    <path class="svg-region-V" d="M 502.500 202.948 C 497.947 203.406, 493.428 205.052, 483.763 209.776 C 476.006 213.566, 469.739 216, 467.735 216 C 465.926 216, 463.557 216.615, 462.473 217.367 C 461.388 218.119, 457.935 219.475, 454.801 220.380 C 451.666 221.286, 448.835 222.458, 448.509 222.986 C 448.182 223.514, 446.247 224.396, 444.208 224.948 C 438.665 226.445, 426.026 236.362, 425.980 239.250 C 425.969 239.938, 423.242 243.425, 419.920 247 C 416.599 250.575, 412.671 255.300, 411.192 257.500 C 409.712 259.700, 406.701 263.825, 404.501 266.666 C 397.123 276.193, 394.294 280.466, 391.702 286 C 390.285 289.025, 387.085 294.650, 384.590 298.500 C 382.096 302.350, 377.577 310.450, 374.548 316.500 C 371.518 322.550, 367.236 330.650, 365.032 334.500 C 359.229 344.636, 351.432 360.712, 349.512 366.500 C 347.365 372.972, 345.770 387.121, 346.531 392.942 C 348.236 405.994, 351.012 413.953, 360.235 432.250 L 366.159 444 375.007 444 C 383.195 444, 384.364 443.735, 390.677 440.450 C 398.699 436.276, 404.101 431.318, 406.849 425.610 C 415.313 408.029, 420.580 398.089, 422.845 395.422 C 424.305 393.702, 428.650 387.915, 432.500 382.562 C 439.463 372.880, 440.881 370.991, 451.425 357.359 C 465.306 339.412, 475.129 331.134, 493 322.322 C 497.732 319.989, 510.213 320.015, 520.500 322.380 C 524.900 323.392, 528.955 324.586, 529.512 325.035 C 530.069 325.483, 533.219 326.521, 536.512 327.341 C 539.805 328.161, 544.403 329.540, 546.730 330.404 C 549.056 331.269, 554.681 332.082, 559.230 332.212 C 566.662 332.423, 568.020 332.161, 572.632 329.629 C 575.454 328.079, 578.222 325.841, 578.782 324.656 C 581.143 319.659, 583.790 313.330, 584.493 311 C 584.908 309.625, 587.603 305.118, 590.482 300.985 C 593.361 296.851, 596.036 292.463, 596.426 291.235 C 596.816 290.006, 597.543 289, 598.042 289 C 598.541 289, 599.662 287.621, 600.534 285.935 C 601.405 284.250, 604.850 280.181, 608.189 276.893 C 614.255 270.920, 614.260 270.912, 613.623 266.264 C 613.272 263.706, 612.147 260.688, 611.121 259.557 C 610.096 258.425, 607.548 255.025, 605.459 252 C 598.320 241.663, 588.820 231.952, 583 229.040 C 579.975 227.526, 576.375 226.013, 575 225.677 C 573.625 225.341, 570.177 223.026, 567.339 220.533 C 564.500 218.040, 561.554 216, 560.793 216 C 560.031 216, 556.054 213.913, 551.954 211.363 C 538.971 203.285, 534.489 201.973, 520.560 202.173 C 513.927 202.268, 505.800 202.617, 502.500 202.948" stroke="#dd8a8a" fill="#dd8a8a" fill-opacity="0.2" fill-rule="evenodd"/><path class="svg-region-SV" d="M 494.456 321.768 C 478.477 328.610, 465.075 339.508, 452.971 355.500 C 450.057 359.350, 445.946 364.402, 443.836 366.728 C 441.726 369.053, 440 371.386, 440 371.912 C 440 372.438, 437.406 376.161, 434.236 380.184 C 431.065 384.208, 427.632 388.850, 426.606 390.500 C 425.580 392.150, 423.709 394.625, 422.448 396 C 419.960 398.713, 409 419.451, 409 421.446 C 409 422.118, 407.223 425.206, 405.051 428.306 C 401.161 433.859, 401.100 436.087, 404.893 434.057 C 407.637 432.589, 427.280 432.522, 434.946 433.954 C 438.491 434.617, 443.085 436.023, 445.156 437.079 C 447.226 438.136, 450.748 439, 452.982 439 C 459.235 439, 469.150 444.027, 476.290 450.816 C 479.706 454.064, 483.696 457.007, 485.157 457.356 C 486.619 457.706, 488.521 458.263, 489.384 458.594 C 490.423 458.992, 491.324 458.382, 492.050 456.789 C 492.654 455.464, 494.914 453.289, 497.074 451.954 C 499.618 450.382, 501 448.791, 501 447.435 C 501 443.120, 510.962 430, 514.238 430 C 515.263 430, 517.542 428.502, 519.301 426.672 C 527.784 417.847, 533.921 417.916, 544.225 426.954 C 546.576 429.016, 550.638 431.645, 553.250 432.795 C 555.862 433.946, 558 435.438, 558 436.110 C 558 436.783, 558.250 437.083, 558.556 436.777 C 559.488 435.845, 555.967 426.339, 552.895 421.495 C 549.013 415.374, 548.772 405.818, 552.343 399.588 C 553.631 397.340, 555.273 393.250, 555.992 390.500 C 557.288 385.540, 560.357 381.005, 562.424 380.995 C 563.016 380.992, 564.691 379.980, 566.146 378.745 C 568.594 376.667, 568.837 375.737, 569.401 366.250 L 570.010 356 564.821 356 C 557.286 356, 551.252 352.859, 550.436 348.513 C 549.554 343.807, 550.646 341.231, 554.321 339.355 C 556.069 338.462, 558.779 336.831, 560.342 335.732 C 563.948 333.196, 562.478 332.054, 555.500 331.971 C 552.750 331.939, 548.700 331.212, 546.500 330.357 C 544.300 329.502, 539.892 328.210, 536.705 327.486 C 533.517 326.762, 530.367 325.731, 529.705 325.194 C 527.748 323.610, 513.058 320.663, 505.500 320.338 C 500.531 320.124, 497.327 320.539, 494.456 321.768" stroke="#c666b5" fill="#c666b5" fill-opacity="0.2" fill-rule="evenodd"/><path class="svg-region-SF" d="M 614 269.953 C 614 271.028, 612.834 272.715, 611.408 273.703 C 608.469 275.741, 608.064 276.172, 601.079 284.706 C 598.286 288.120, 596 291.454, 596 292.115 C 596 292.777, 594.239 295.651, 592.086 298.502 C 588.218 303.626, 584 310.776, 584 312.210 C 584 312.976, 578.692 324.357, 577.102 327 C 576.605 327.825, 575.692 331.875, 575.073 336 C 574.453 340.125, 573.289 345.403, 572.486 347.728 C 570.102 354.628, 568.791 365.583, 569.157 375.549 C 569.483 384.434, 569.653 385.054, 572.629 388.196 C 574.350 390.013, 576.520 393.849, 577.450 396.720 C 579.295 402.417, 582.095 405.294, 589.955 409.572 C 593.202 411.340, 595.450 413.428, 596.511 415.664 C 598.020 418.844, 598.367 419.027, 601.813 418.458 C 603.841 418.123, 606.625 417.479, 608 417.027 C 609.375 416.575, 613.200 415.472, 616.500 414.576 C 619.800 413.680, 623.850 412.460, 625.500 411.864 C 627.150 411.268, 630.840 410.421, 633.699 409.983 C 637.551 409.393, 639.550 408.449, 641.414 406.343 C 642.798 404.779, 646.768 400.350, 650.236 396.500 C 659.328 386.406, 664.728 375.106, 666.132 363.234 C 667.253 353.751, 666.836 349.213, 663.401 333.500 C 660.685 321.078, 652.981 303.578, 646.860 295.929 C 635.678 281.953, 619.478 268, 614.435 268 C 614.196 268, 614 268.879, 614 269.953" stroke="#8c6b55" fill="#8c6b55" fill-opacity="0.2" fill-rule="evenodd"/><path class="svg-region-PF" d="M 571.500 330.028 C 569.300 331.001, 566.375 332.296, 565 332.905 C 559.583 335.304, 550.482 341.760, 550.157 343.432 C 549.969 344.404, 550.109 346.767, 550.468 348.683 C 551.016 351.603, 551.841 352.485, 555.572 354.135 C 558.602 355.475, 561.677 356.007, 565.201 355.802 L 570.378 355.500 571.743 350.500 C 574.974 338.666, 576.072 333.349, 575.795 330.886 L 575.500 328.259 571.500 330.028 M 564.818 379.491 C 558.960 382.794, 557.475 384.615, 556.061 390.229 C 555.331 393.128, 553.668 397.340, 552.367 399.588 C 548.725 405.878, 548.996 415.347, 552.997 421.657 C 554.646 424.256, 556.756 428.948, 557.687 432.084 C 559.258 437.377, 559.535 437.713, 561.563 436.789 C 563.054 436.110, 564.401 436.144, 565.808 436.897 C 570.232 439.265, 575.040 438.195, 586.500 432.292 C 593.019 428.935, 595.703 426.431, 597.001 422.497 C 598.647 417.510, 595.642 411.861, 590 409.334 C 588.625 408.719, 585.609 406.829, 583.297 405.135 C 579.982 402.707, 578.765 400.948, 577.538 396.816 C 576.682 393.934, 574.627 390.178, 572.970 388.469 C 571.193 386.635, 569.658 383.731, 569.229 381.388 L 568.500 377.414 564.818 379.491" stroke="#faaaaa" fill="#faaaaa" fill-opacity="0.2" fill-rule="evenodd"/><path class="svg-region-AAB" d="M 643.667 440.175 C 640.075 442.854, 634 455.209, 634 459.837 C 634 462.652, 633.162 464.151, 629.750 467.443 C 625.635 471.412, 619 482.986, 619 486.195 C 619 487.061, 618.257 490.072, 617.348 492.885 C 615.902 497.363, 615.361 498, 613.003 498 C 610.022 498, 607 495.288, 607 492.612 C 607 489.945, 605.206 491.661, 602.584 496.834 C 601.276 499.414, 596.223 505.677, 591.353 510.750 C 586.484 515.823, 580.700 521.864, 578.500 524.175 C 574.158 528.735, 568.108 536.726, 565.383 541.500 C 564.344 543.320, 563.346 548.237, 562.846 554 C 562.393 559.225, 561.758 565.750, 561.436 568.500 C 560.946 572.677, 561.234 574.076, 563.183 577 C 564.466 578.925, 567.480 581.493, 569.881 582.706 C 572.281 583.919, 574.978 585.568, 575.873 586.369 C 576.768 587.170, 580.726 589.440, 584.669 591.413 C 592.967 595.565, 598.406 596.008, 608.077 593.319 C 613.139 591.911, 614.343 591.137, 615.465 588.569 C 616.203 586.881, 619.025 583.194, 621.737 580.375 C 624.449 577.557, 629.637 570.063, 633.267 563.722 C 636.896 557.381, 641.375 550.216, 643.220 547.799 C 645.064 545.383, 647.371 541.177, 648.347 538.453 C 649.322 535.729, 650.768 532.022, 651.560 530.216 C 652.352 528.410, 653 526.322, 653 525.575 C 653 524.829, 653.890 522.257, 654.978 519.859 C 656.066 517.462, 656.954 513.925, 656.952 512 C 656.950 510.075, 657.837 504.675, 658.924 500 C 662.919 482.814, 663.446 479.280, 663.618 468.500 C 663.807 456.644, 662.639 450.413, 659.960 448.979 C 659.032 448.482, 656.544 445.809, 654.431 443.038 C 650.147 437.421, 648.094 436.875, 643.667 440.175" stroke="#7f3c1a" fill="#7f3c1a" fill-opacity="0.2" fill-rule="evenodd"/><path class="svg-region-APB" d="M 633 409.995 C 630.525 410.395, 627.150 411.199, 625.500 411.780 C 623.850 412.361, 619.800 413.595, 616.500 414.521 C 613.200 415.447, 609.375 416.575, 608 417.027 C 606.625 417.479, 603.878 418.116, 601.895 418.443 C 598.842 418.945, 598.052 419.639, 596.745 422.966 C 595.017 427.367, 588.754 431.858, 578.724 435.891 C 573.108 438.148, 569.855 438.280, 564.215 436.478 C 559.143 434.858, 550.990 447.790, 551.007 457.428 C 551.012 460.353, 549.544 464.427, 545.797 471.885 C 540.835 481.764, 540.561 482.722, 540.176 491.524 C 539.922 497.332, 540.239 502.214, 541.029 504.638 C 543.144 511.135, 550.465 525.282, 554.336 530.353 C 556.351 532.993, 558 535.698, 558 536.364 C 558 537.031, 559.265 539.090, 560.810 540.942 L 563.621 544.308 565.794 540.904 C 571.078 532.627, 573.790 529.054, 578 524.818 C 591.590 511.145, 600.272 501.381, 602.134 497.676 C 603.289 495.379, 604.895 492.746, 605.704 491.824 C 607.766 489.476, 606.949 486.695, 603.995 486.004 C 600.024 485.076, 600.216 481.128, 604.480 476.025 C 606.450 473.666, 609.135 469.392, 610.446 466.525 C 612.139 462.824, 613.698 460.953, 615.826 460.072 C 617.475 459.389, 621.451 456.169, 624.662 452.917 C 627.873 449.664, 631.063 447.003, 631.750 447.002 C 632.565 447.001, 633 448.566, 633 451.500 C 633 453.975, 633.337 455.991, 633.750 455.980 C 634.163 455.969, 635.985 452.799, 637.801 448.935 C 641.030 442.062, 645.185 438.007, 649 438.008 C 649.825 438.008, 652.410 440.481, 654.745 443.504 C 657.079 446.527, 659.442 449, 659.995 449 C 660.548 449, 661 446.750, 661 444 C 661 441.250, 660.550 439, 660 439 C 659.450 439, 659 438.328, 659 437.506 C 659 436.685, 655.833 432.419, 651.963 428.027 C 648.076 423.616, 644.265 418.167, 643.449 415.857 C 641.755 411.054, 640.241 408.942, 638.628 409.134 C 638.007 409.207, 635.475 409.595, 633 409.995" stroke="#ac7444" fill="#ac7444" fill-opacity="0.2" fill-rule="evenodd"/><path class="svg-region-PC" d="M 524.500 421.805 C 522.850 422.858, 520.259 425.133, 518.742 426.860 C 517.226 428.587, 515.172 430, 514.179 430 C 511.964 430, 508.212 433.889, 504.101 440.446 C 500.117 446.800, 500.076 448.362, 503.916 447.518 C 508.580 446.494, 513.858 448, 517.424 451.372 C 520.345 454.134, 520.785 455.245, 521.188 460.865 L 521.644 467.229 530.322 475.526 C 535.095 480.088, 539 484.312, 539 484.911 C 539 485.510, 539.450 486, 540 486 C 540.550 486, 541 484.949, 541 483.665 C 541 482.381, 543.177 477.092, 545.839 471.912 C 549.506 464.775, 550.811 461.025, 551.228 456.425 C 551.754 450.621, 554.572 443.392, 557.696 439.833 C 559.818 437.416, 557.958 434.600, 552.900 432.577 C 550.613 431.662, 546.102 428.617, 542.875 425.810 C 537.939 421.517, 536.254 420.642, 532.254 420.298 C 528.755 419.997, 526.708 420.394, 524.500 421.805 M 513.567 489.946 C 508.769 493.110, 506.297 499, 509.768 499 C 510.740 499, 513.215 500.141, 515.268 501.536 L 519 504.072 519 514.381 C 519 523.420, 519.246 524.913, 521 526.500 C 523.430 528.699, 523.539 532.561, 521.380 540 C 518.118 551.240, 516.728 563.073, 518.032 568.500 C 519.456 574.425, 521.580 579.392, 524.428 583.461 C 525.567 585.089, 527.625 588.689, 529 591.461 C 531.078 595.649, 532.478 597.007, 537.289 599.500 L 543.078 602.500 544.789 600.349 C 545.730 599.166, 547.941 597.897, 549.703 597.530 C 551.465 597.162, 554.024 595.983, 555.390 594.908 C 558.297 592.622, 561.952 583.553, 561.879 578.806 C 561.741 569.706, 561.970 563.624, 562.793 554.500 C 563.594 545.632, 563.500 544.274, 561.961 542.500 C 561.007 541.400, 559.253 538.563, 558.065 536.196 C 556.876 533.829, 554.463 529.993, 552.702 527.672 C 547.735 521.127, 540.758 505.533, 540.200 499.732 L 539.712 494.653 537.337 499.326 C 536.031 501.897, 534.498 504, 533.931 504 C 531.117 504, 526.796 500.495, 524.370 496.244 C 519.294 487.352, 518.344 486.798, 513.567 489.946" stroke="#cda789" fill="#cda789" fill-opacity="0.2" fill-rule="evenodd"/><path class="svg-region-DB" d="M 413 433.094 C 401.402 434.072, 401.089 434.151, 396.137 437.350 C 388.262 442.436, 383.389 444, 375.417 444 C 366.526 444, 366.526 444, 371.582 454.828 C 373.552 459.048, 375.994 464.300, 377.008 466.500 C 379.382 471.651, 384.538 488.773, 386.042 496.500 C 388.382 508.521, 387.751 507.955, 402 510.829 C 405.025 511.439, 414.165 513.303, 422.312 514.971 C 433.612 517.285, 437.598 517.750, 439.125 516.933 C 443.144 514.782, 478.828 518.519, 483.715 521.602 C 486.967 523.655, 487.999 523.329, 488.006 520.250 C 488.018 514.248, 490.190 509.731, 495.879 503.881 C 500.383 499.250, 502.244 498, 504.639 498 C 506.926 498, 507.966 497.369, 508.839 495.453 C 510.410 492.006, 510.310 491.314, 508.161 490.752 C 505.833 490.144, 501 481.602, 501 478.097 C 501 476.638, 501.720 474.417, 502.600 473.161 C 504.077 471.052, 504.063 470.728, 502.426 468.918 C 501.451 467.841, 498.594 466.360, 496.077 465.626 C 492.258 464.514, 491.417 463.821, 490.998 461.444 C 490.582 459.080, 489.788 458.417, 486.335 457.547 C 483.447 456.821, 480.313 454.722, 476.102 450.695 C 469.111 444.008, 459.210 439, 452.982 439 C 450.748 439, 447.226 438.136, 445.156 437.079 C 438.508 433.688, 425.327 432.054, 413 433.094" stroke="#e8b1e4" fill="#e8b1e4" fill-opacity="0.2" fill-rule="evenodd"/><path class="svg-region-MB" d="M 390 509.138 C 390 509.648, 390.675 511.680, 391.500 513.654 C 392.432 515.885, 393 520.446, 393 525.702 C 393 541.024, 395.875 561, 398.080 561 C 398.498 561, 399.570 564.263, 400.463 568.250 C 401.355 572.237, 403.132 579.100, 404.410 583.500 C 405.689 587.900, 408.252 598.225, 410.107 606.445 C 412.492 617.014, 414.361 622.861, 416.490 626.413 L 419.500 631.435 434 636.482 C 441.975 639.257, 449.625 642.307, 451 643.260 C 452.375 644.212, 458.225 649.606, 464 655.246 C 480.068 670.937, 480.709 671.418, 483.319 669.721 C 484.519 668.941, 487.300 667.724, 489.500 667.015 C 491.700 666.306, 495.652 663.732, 498.282 661.293 C 503.519 656.438, 510.752 652.739, 518.500 650.953 C 525.945 649.237, 528.464 647.768, 528.763 644.967 C 529.710 636.097, 530.506 633.535, 534.231 627.363 C 537.635 621.724, 540.903 613.171, 543.143 604.044 C 543.371 603.113, 541.347 601.458, 537.518 599.448 C 532.580 596.854, 531.098 595.440, 529.018 591.337 C 527.633 588.604, 525.567 585.048, 524.428 583.434 C 521.764 579.663, 519.394 574.369, 518.526 570.251 C 517.958 567.556, 517.471 567.089, 515.671 567.511 C 513.045 568.127, 512.337 567.632, 508.494 562.504 C 503.397 555.701, 501.496 552.681, 499.051 547.500 C 497.754 544.750, 496.128 541.825, 495.439 541 C 494.750 540.175, 493.693 537.646, 493.090 535.381 C 492.487 533.115, 491.095 530.119, 489.997 528.723 C 488.898 527.327, 487.995 525.581, 487.989 524.842 C 487.947 519.947, 456.626 515.268, 436.250 517.114 C 433.566 517.357, 426.277 516.050, 407 511.870 C 401.775 510.737, 395.813 509.451, 393.750 509.011 C 391.542 508.541, 390 508.593, 390 509.138" stroke="#f9c6c6" fill="#f9c6c6" fill-opacity="0.2" fill-rule="evenodd"/><path class="svg-region-LPl" d="M 562 579.462 C 562 583.596, 558.024 592.836, 555.335 594.951 C 553.939 596.049, 551.227 597.242, 549.308 597.602 C 545.449 598.326, 543.962 600.885, 540.650 612.500 C 538.924 618.554, 537.550 621.568, 532.548 630.270 C 530.752 633.396, 529.620 637.098, 529.265 641.012 C 528.967 644.297, 528.169 647.445, 527.491 648.008 C 526.812 648.571, 522.487 649.973, 517.879 651.123 C 508.272 653.522, 504.323 655.591, 498 661.538 C 495.525 663.866, 491.700 666.319, 489.500 666.990 C 487.300 667.660, 483.805 669.298, 481.734 670.629 L 477.969 673.049 483.734 680.155 C 486.905 684.063, 492.279 690.118, 495.675 693.611 C 500.961 699.047, 502.015 700.756, 502.996 705.481 C 504.356 712.030, 502.757 718.848, 498.257 725.692 C 496.740 727.998, 494.375 731.781, 493 734.099 C 491.625 736.417, 489.488 739.838, 488.250 741.701 C 486.898 743.737, 486 746.617, 486 748.919 C 486 751.025, 485.325 754.662, 484.500 757 C 481.285 766.111, 483.787 774.019, 490.467 775.863 C 495.238 777.181, 499.252 775.908, 504.078 771.548 C 506.314 769.528, 509.056 768, 510.444 768 C 511.785 768, 513.161 767.549, 513.501 766.998 C 514.223 765.830, 525.697 760, 527.274 760 C 528.215 760, 537.916 756.434, 543.500 754.036 C 544.600 753.563, 547.975 752.690, 551 752.095 C 566.321 749.083, 595.560 740.311, 617 732.296 C 629.228 727.724, 642.848 719.221, 650.992 711.074 C 657.860 704.204, 659.025 702.431, 663.532 692 L 668.500 680.500 668.463 665 C 668.411 643.647, 666.211 636.133, 655.828 621.858 C 647.665 610.635, 640.704 605.089, 627.798 599.524 C 621.584 596.844, 615.772 594.040, 614.883 593.291 C 613.578 592.193, 612.418 592.155, 608.883 593.094 C 599.150 595.677, 593.721 595.415, 586.343 592.006 C 582.580 590.266, 578.150 587.838, 576.500 586.610 C 574.850 585.382, 572.022 583.782, 570.216 583.053 C 568.410 582.325, 566.095 580.665, 565.072 579.365 C 562.709 576.360, 562 576.382, 562 579.462" stroke="#d2454f" fill="#d2454f" fill-opacity="0.2" fill-rule="evenodd"/><path class="svg-region-DMl" d="M 365.358 617.750 C 365.699 619.813, 365.983 622.897, 365.989 624.604 C 365.996 626.517, 366.959 628.743, 368.500 630.405 C 370.150 632.186, 371 634.262, 371 636.512 C 371 638.387, 371.563 640.373, 372.250 640.926 C 378.600 646.029, 381.247 648.673, 383.159 651.820 C 384.388 653.844, 385.649 655.725, 385.961 656 C 386.971 656.892, 394.637 666.460, 395.439 667.831 C 395.868 668.564, 397.283 673.514, 398.583 678.831 C 400.597 687.068, 400.951 691.063, 400.974 705.803 C 400.999 722.591, 401.074 723.216, 403.500 726.785 C 405.206 729.296, 406 731.826, 406 734.754 C 406 740.115, 401.265 750.860, 397.649 753.704 C 396.003 754.999, 395 756.768, 395 758.375 C 395 761.712, 398.582 762.722, 404.909 761.170 C 421.578 757.081, 422.520 757.118, 442.132 762.643 C 449.144 764.619, 452.607 765.021, 460.571 764.788 L 470.377 764.500 471.176 761.408 C 471.668 759.505, 475.442 754.780, 480.988 749.122 C 485.944 744.065, 490 739.630, 490 739.267 C 490 738.618, 491.067 736.900, 498.246 726 C 506.155 713.990, 505.625 703.666, 496.636 694.687 C 493.781 691.834, 489.144 686.575, 486.332 683 C 481.304 676.608, 473.762 669.170, 469.611 666.512 C 468.450 665.768, 463.326 663.761, 458.225 662.052 C 444.384 657.413, 430.411 647.523, 419.065 634.334 C 413.948 628.385, 411.179 625.979, 408.868 625.471 C 407.124 625.088, 402.502 623.304, 398.598 621.507 C 394.617 619.674, 388.938 617.959, 385.664 617.601 C 382.454 617.250, 378.539 616.296, 376.964 615.481 C 375.388 614.667, 371.993 614, 369.419 614 L 364.738 614 365.358 617.750" stroke="#68533d" fill="#68533d" fill-opacity="0.2" fill-rule="evenodd"/><path class="svg-region-PMl" d="M 299.879 706.030 C 293.488 707.016, 285.534 708.588, 282.204 709.523 C 276.785 711.043, 275.676 711.831, 271.649 717.016 C 263.640 727.329, 261.931 732.371, 265.084 736.379 C 266.218 737.821, 267.835 739, 268.677 739 C 269.520 739, 272.441 740.121, 275.168 741.490 C 284.570 746.213, 290.372 747.322, 301.865 746.596 C 310.100 746.075, 313.948 745.292, 319.916 742.923 C 324.087 741.266, 328.063 739.170, 328.750 738.264 C 330.568 735.869, 330.299 731.704, 327.630 720.925 C 323.149 702.830, 322.580 702.524, 299.879 706.030" stroke="#90cf92" fill="#90cf92" fill-opacity="0.2" fill-rule="evenodd"/><path class="svg-region-PV" d="M 215 692.492 C 213.625 693.273, 211.649 693.656, 210.608 693.344 C 208.820 692.806, 208.746 693.289, 209.269 702.137 C 210.064 715.601, 211.944 720.745, 218.758 728.105 C 225.133 734.991, 237.161 744.261, 243.393 747.091 C 245.652 748.117, 249.343 748.966, 251.595 748.978 C 256.415 749.004, 257.806 750.289, 261.361 758 C 264.402 764.598, 268.279 769.113, 272.949 771.497 C 279.968 775.079, 294.564 771.861, 303.408 764.780 C 307.680 761.361, 308.422 761.189, 333 757.925 C 344.884 756.347, 351.416 756.002, 361 756.446 C 367.875 756.763, 375.750 756.621, 378.500 756.129 C 381.250 755.638, 382.600 755.179, 381.500 755.110 C 380.400 755.041, 374.325 753.688, 368 752.102 C 361.675 750.516, 354.800 748.922, 352.722 748.559 C 350.644 748.196, 346.369 747.116, 343.222 746.160 C 336.455 744.103, 320.586 744.057, 303.745 746.046 C 291.631 747.476, 285.687 746.684, 277.935 742.606 C 275.496 741.323, 271.797 739.721, 269.715 739.047 C 262.455 736.697, 261.733 731.094, 267.580 722.478 L 270.131 718.718 266.587 715.089 C 262.896 711.309, 259.853 703.540, 260.553 699.684 C 260.948 697.510, 260.903 697.504, 251.115 698.409 L 241.279 699.319 237.182 696.026 C 234.011 693.478, 232.453 692.859, 230.292 693.289 C 228.736 693.599, 226.394 693.231, 225 692.458 C 221.798 690.681, 218.164 690.694, 215 692.492" stroke="#b09658" fill="#b09658" fill-opacity="0.2" fill-rule="evenodd"/><path class="svg-region-LPVl" d="M 371.669 644.421 C 371.369 645.203, 368.644 647.714, 365.613 650.002 C 361.534 653.082, 357.298 655.021, 349.301 657.467 C 343.361 659.285, 336.925 661.589, 335 662.587 C 333.075 663.586, 328.800 664.581, 325.500 664.798 C 318.489 665.260, 310.518 668.827, 301.500 675.539 C 298.200 677.995, 293.549 681.241, 291.163 682.753 C 288.778 684.264, 284.516 687.002, 281.692 688.838 C 276.043 692.511, 267.646 695.999, 264.450 695.999 C 261.792 696, 260 697.842, 260 700.574 C 260 704.740, 263.110 711.525, 266.710 715.214 L 270.335 718.928 273.331 715.029 C 275.940 711.635, 277.309 710.877, 283.914 709.168 C 288.086 708.088, 297.234 706.409, 304.242 705.438 C 322.224 702.945, 323.070 703.489, 327.444 720.359 C 331.362 735.474, 330.828 738.941, 324.258 741.041 C 318.495 742.882, 318.059 743.988, 323.050 744.103 C 333.570 744.345, 341.206 745.040, 342.813 745.900 C 343.763 746.408, 348.004 747.540, 352.238 748.414 C 363.614 750.764, 379.655 754.781, 386.631 757.026 C 394.057 759.417, 395 759.458, 395 757.394 C 395 756.511, 396.192 754.850, 397.649 753.704 C 401.291 750.840, 406.008 740.106, 405.969 734.772 C 405.949 732.024, 405.058 729.073, 403.474 726.500 C 401.110 722.662, 401.010 721.813, 401.005 705.498 C 401.001 690.853, 400.662 687.132, 398.565 678.662 C 397.226 673.254, 395.538 667.989, 394.815 666.964 C 391.031 661.599, 381.251 649.089, 378.619 646.250 C 375.434 642.812, 372.575 642.060, 371.669 644.421" stroke="#494949" fill="#494949" fill-opacity="0.2" fill-rule="evenodd"/><path class="svg-region-Fl" d="M 312.423 529.074 C 310.731 529.565, 306.252 532, 302.470 534.484 C 298.688 536.968, 294.873 539, 293.993 539 C 293.112 539, 290.263 540.350, 287.661 542 C 285.059 543.650, 282.727 545, 282.479 545 C 282.230 545, 277.634 547.844, 272.264 551.319 C 266.894 554.795, 259.575 559.123, 256 560.938 C 252.425 562.752, 248.825 564.804, 248 565.498 C 247.175 566.191, 245.150 567.467, 243.500 568.332 C 240.855 569.720, 236.246 573.858, 230.750 579.782 C 229.787 580.819, 229 582.127, 229 582.688 C 229 583.249, 227.868 584.929, 226.485 586.422 C 225.102 587.914, 223.088 591.644, 222.010 594.711 C 220.933 597.778, 219.426 601.010, 218.662 601.893 C 216.379 604.536, 214.120 611.998, 213.029 620.500 C 212.464 624.900, 211.571 630.525, 211.044 633 C 210.517 635.475, 209.328 644.700, 208.402 653.500 C 206.564 670.968, 207.078 689.357, 209.497 692.665 C 210.749 694.377, 210.979 694.381, 214.439 692.730 C 218.936 690.586, 221.896 690.539, 224.788 692.564 C 227.056 694.153, 231 693.720, 231 691.883 C 231 691.343, 230.338 689.620, 229.529 688.055 C 228.719 686.490, 227.763 683.367, 227.402 681.115 C 226.849 677.654, 227.152 676.489, 229.360 673.595 C 230.797 671.711, 232.779 667.994, 233.765 665.335 C 235.084 661.780, 236.808 659.574, 240.279 657.002 C 244.776 653.670, 246.177 650.845, 244 649.500 C 242.004 648.266, 243.075 644.247, 246.421 640.417 C 249.408 636.996, 250.074 636.659, 251.671 637.756 C 255.170 640.160, 256.239 640.290, 259.016 638.650 C 262.900 636.355, 266.711 636.513, 267.500 639.001 C 267.849 640.101, 269.641 642.150, 271.482 643.554 C 274.516 645.868, 274.746 646.398, 273.939 649.214 C 273.449 650.922, 272.063 653.368, 270.859 654.650 C 268.823 656.817, 268.785 657.105, 270.306 658.785 C 272.454 661.159, 286.178 663.677, 289.862 662.374 C 291.665 661.736, 296.617 662.020, 305.500 663.270 C 321.712 665.552, 329.715 665.197, 337 661.875 C 340.025 660.496, 345.425 658.577, 349 657.611 C 357.937 655.195, 363.246 652.443, 368.612 647.447 C 372.561 643.769, 373.029 642.923, 372.088 641.164 C 371.490 640.046, 371 637.907, 371 636.410 C 371 634.913, 369.946 632.296, 368.657 630.594 C 366.972 628.369, 366.140 625.604, 365.695 620.750 C 365.121 614.499, 365.220 614, 367.038 614 C 368.117 614, 369 613.850, 369 613.666 C 369 613.483, 365.441 606.233, 361.091 597.556 C 356.740 588.879, 352.883 580.141, 352.519 578.140 C 351.631 573.254, 345.627 561.357, 340.891 555.100 C 338.777 552.307, 335.201 546.754, 332.945 542.761 C 328.009 534.023, 325.535 531.183, 321.282 529.371 C 317.672 527.833, 316.798 527.804, 312.423 529.074" stroke="#5ca7a9" fill="#5ca7a9" fill-opacity="0.2" fill-rule="evenodd"/><path class="svg-region-PCl" d="M 246.104 640.535 C 242.628 644.494, 242.430 645.776, 244.419 651.490 C 245.548 654.736, 246.403 655.603, 248.996 656.133 C 250.750 656.492, 252.684 657.284, 253.293 657.893 C 253.902 658.502, 257.150 659, 260.510 659 C 266.004 659, 266.943 658.685, 269.813 655.879 C 271.569 654.162, 273.383 651.349, 273.843 649.629 C 274.599 646.807, 274.304 646.147, 270.841 642.904 C 268.728 640.926, 267 638.788, 267 638.154 C 267 636.459, 260.459 636.742, 259 638.500 C 258.315 639.325, 256.965 640, 256 640 C 255.035 640, 253.685 639.325, 253 638.500 C 251.094 636.203, 249.492 636.676, 246.104 640.535" stroke="#465ee0" fill="#465ee0" fill-opacity="0.2" fill-rule="evenodd"/><path class="svg-region-SB" d="M 899.500 132.472 C 889.232 134.107, 881.217 136.876, 870.699 142.424 C 848.749 154, 831.373 168.434, 825.830 179.694 C 822.794 185.862, 822.727 186.308, 822.667 200.898 C 822.609 215.091, 822.722 215.971, 825.036 219.348 C 826.372 221.298, 829.273 223.930, 831.483 225.197 C 835.318 227.396, 836.430 227.500, 856 227.500 C 876.323 227.500, 876.573 227.474, 885 224.452 C 889.675 222.776, 896.238 219.584, 899.583 217.360 C 906.056 213.056, 911.915 209.707, 916 207.974 C 917.375 207.391, 919.400 206.354, 920.500 205.670 C 923.721 203.667, 931.715 199.338, 943.500 193.215 C 954.029 187.744, 954.621 187.265, 957.321 182 C 960.021 176.737, 960.113 176.096, 959.468 167.127 C 959.098 161.971, 958.166 156.249, 957.398 154.411 C 955.705 150.359, 950.139 144.627, 945.734 142.399 C 943.955 141.500, 940.975 139.621, 939.111 138.225 C 934.426 134.715, 921.017 130.977, 913.551 131.099 C 910.223 131.153, 903.900 131.771, 899.500 132.472" stroke="#d2e400" fill="#d2e400" fill-opacity="0.2" fill-rule="evenodd"/><path class="svg-region-VOC" d="M 496.067 503.630 C 489.852 509.863, 488.016 513.980, 488.006 521.706 C 488.002 524.549, 488.810 527.104, 490.500 529.595 C 491.875 531.621, 493 533.925, 493 534.714 C 493 535.503, 494.800 539.566, 497 543.742 C 499.200 547.917, 501 551.834, 501 552.445 C 501 553.056, 501.788 554.271, 502.750 555.145 C 503.712 556.020, 506.299 559.287, 508.497 562.405 C 511.401 566.524, 513.041 567.996, 514.497 567.787 C 516.227 567.539, 516.663 566.263, 517.700 558.419 C 518.359 553.425, 519.822 546.009, 520.950 541.939 C 523.545 532.572, 523.558 528.815, 521 526.500 C 519.246 524.913, 519 523.420, 519 514.359 L 519 504.028 515.250 501.585 C 513.188 500.242, 509.344 498.832, 506.710 498.452 L 501.919 497.761 496.067 503.630" stroke="#ff8f93" fill="#ff8f93" fill-opacity="0.2" fill-rule="evenodd"/><path class="svg-region-OABl" d="M 625.021 452.478 C 622.046 455.491, 618.106 458.671, 616.266 459.544 C 613.805 460.712, 612.155 462.712, 610.024 467.111 C 608.431 470.399, 605.724 474.690, 604.007 476.645 C 600.169 481.016, 600.166 485.112, 604 486 C 606.137 486.495, 606.546 487.225, 606.819 491.020 C 607.218 496.585, 608.379 498, 612.545 498 C 616.137 498, 616.745 496.943, 618.938 486.897 C 620.299 480.659, 626.323 470.173, 630.679 466.459 L 634.245 463.417 633.518 455.209 C 633.055 449.978, 632.364 447, 631.612 447 C 630.963 447, 627.997 449.465, 625.021 452.478" stroke="#81244d" fill="#81244d" fill-opacity="0.2" fill-rule="evenodd"/><path class="svg-region-SOTl" d="M 498.738 450.761 C 494.292 453.646, 492.719 455.339, 491.852 458.175 C 490.379 462.992, 491.126 464.612, 495.170 465.378 C 497.002 465.725, 499.848 467.087, 501.495 468.405 C 504.369 470.706, 504.419 470.879, 502.745 472.730 C 500.252 475.484, 500.706 480.756, 503.887 486 C 506.948 491.046, 510.397 492.237, 514.210 489.565 C 515.439 488.704, 517.023 488, 517.729 488 C 518.435 488, 520.984 491.074, 523.392 494.831 C 527.730 501.600, 532.981 505.489, 534.953 503.394 C 537.285 500.918, 540 494.096, 540 490.715 C 540 485.458, 537.965 481.994, 531.884 476.903 C 523.899 470.217, 521 465.655, 521 459.773 C 521 455.664, 520.516 454.362, 518.084 451.930 C 512.050 445.896, 506.732 445.575, 498.738 450.761" stroke="#995b45" fill="#995b45" fill-opacity="0.2" fill-rule="evenodd"/><path class="svg-region-PNl" d="M 239.911 657.238 C 237.125 659.362, 234.975 662.058, 234.013 664.632 C 233.181 666.860, 231.214 670.618, 229.642 672.983 C 227.393 676.368, 226.903 678.017, 227.344 680.732 C 228.181 685.890, 231.116 693, 232.408 693 C 233.033 693, 235.254 694.409, 237.344 696.132 C 241.143 699.263, 241.143 699.263, 249.792 698.562 C 254.548 698.176, 260.704 697.266, 263.470 696.541 C 272.099 694.279, 279 691.804, 279 690.971 C 279 690.532, 282.223 688.315, 286.161 686.044 C 290.100 683.773, 294.712 680.783, 296.411 679.400 C 301.594 675.178, 309.265 670.180, 313.892 668.010 C 316.307 666.877, 317.982 665.649, 317.614 665.281 C 316.176 663.843, 292.543 661.274, 290.250 662.307 C 287.255 663.657, 274.436 661.402, 270.803 658.886 C 269.180 657.762, 267.863 657.413, 267.494 658.009 C 266.525 659.577, 254.785 659.152, 252.559 657.468 C 251.491 656.661, 249.669 656, 248.509 656 C 247.349 656, 245.926 655.526, 245.347 654.947 C 244.610 654.210, 242.980 654.897, 239.911 657.238" stroke="#bbc0d1" fill="#bbc0d1" fill-opacity="0.2" fill-rule="evenodd"/><path class="svg-region-HRl" d="M 417 631.302 C 417 631.596, 419.035 634.236, 421.522 637.168 C 429.360 646.409, 445.404 657.790, 455.113 660.995 C 458.626 662.155, 462.918 663.755, 464.651 664.552 C 466.384 665.348, 468.208 666, 468.705 666 C 469.201 666, 471.134 667.575, 473 669.500 C 476.639 673.255, 478.722 673.889, 479.631 671.519 C 479.982 670.605, 478.918 668.996, 476.850 667.313 C 475.007 665.813, 469.256 660.357, 464.068 655.187 C 458.881 650.018, 452.945 644.669, 450.878 643.301 C 445.945 640.036, 417 629.784, 417 631.302" stroke="#d9dba1" fill="#d9dba1" fill-opacity="0.2" fill-rule="evenodd"/>
    </svg>