<svg xmlns="http://www.w3.org/2000/svg" width="1078" height="1151" viewBox="0 0 1078 1151" version="1.1">
    <path class="svg-region-V" d="M 494 201.113 C 467.130 202.540, 458.768 204.991, 438.750 217.307 C 435.038 219.591, 432 221.925, 432 222.494 C 432 223.063, 427.946 227.544, 422.992 232.453 C 418.037 237.362, 412.299 243.867, 410.242 246.910 C 408.184 249.952, 405.262 253.507, 403.750 254.809 C 402.238 256.112, 400.997 257.700, 400.994 258.339 C 400.991 258.978, 398.553 262.029, 395.577 265.121 C 392.600 268.213, 389.038 272.966, 387.660 275.684 C 386.283 278.402, 384.451 281.211, 383.588 281.927 C 382.726 282.642, 380.174 286.852, 377.917 291.282 C 373.561 299.831, 371.606 302.922, 364.496 312.500 C 358.775 320.206, 345.275 343.581, 343.958 348.059 C 338.040 368.192, 337.392 387.226, 342.301 396.717 C 343.786 399.586, 345 402.789, 345 403.835 C 345 406.028, 359.492 435.568, 361.036 436.522 C 361.601 436.871, 367.755 437.560, 374.712 438.053 C 387.096 438.931, 387.483 438.896, 393.109 436.371 C 398.063 434.147, 399.445 432.874, 403.118 427.146 C 405.461 423.491, 407.674 420.275, 408.035 420 C 408.782 419.431, 410.419 416.462, 415.461 406.528 C 418.024 401.478, 419 398.259, 419 394.849 C 419 391.050, 419.750 389.012, 422.887 384.289 C 425.026 381.070, 428.738 376.690, 431.137 374.557 C 449.193 358.500, 474 334.814, 474 333.631 C 474 332.253, 497.937 304.444, 501.579 301.590 C 504.699 299.146, 506.454 298.606, 512.554 298.215 C 517.755 297.881, 521.189 298.222, 524.657 299.418 C 527.321 300.336, 532.425 301.331, 536 301.630 C 539.575 301.928, 544.197 302.808, 546.270 303.586 C 552.385 305.879, 556.813 305.433, 559.512 302.250 C 572.890 286.474, 577.216 280.981, 578.612 278 C 579.514 276.075, 581.770 271.438, 583.626 267.695 C 586.690 261.516, 587 260.078, 587 252.059 C 587 241.418, 586.338 239.961, 577.769 231.722 C 573.553 227.669, 571.018 224.358, 570.571 222.321 C 569.651 218.136, 560.066 209, 556.594 209 C 555.205 209, 552.590 208.357, 550.784 207.572 C 545.481 205.265, 526.083 201.086, 518.500 200.617 C 514.650 200.378, 503.625 200.601, 494 201.113" stroke="#dd8a8a" fill="#dd8a8a" fill-opacity="0.2" fill-rule="evenodd"/><path class="svg-region-SV" d="M 504.175 300.142 C 501.622 301.406, 497.346 305.196, 493.739 309.392 C 490.377 313.301, 487.149 317.002, 486.564 317.615 C 485.979 318.228, 482.800 322.216, 479.500 326.478 C 473.187 334.631, 461.313 346.802, 445.819 361 C 440.718 365.675, 434.339 371.525, 431.643 374 C 424.436 380.619, 419 389.239, 419 394.050 C 419 399.084, 416.833 404.538, 410.832 414.606 C 408.174 419.065, 406 423.002, 406 423.356 C 406 423.710, 408.769 424, 412.154 424 L 418.308 424 423.870 430.146 C 430.740 437.738, 437.114 440.976, 445.212 440.990 C 448.354 440.996, 453.304 441.855, 456.212 442.900 C 459.121 443.944, 463.075 445.031, 465 445.314 C 466.925 445.598, 469.232 446.120, 470.127 446.475 C 471.434 446.993, 471.885 446.249, 472.416 442.710 C 472.858 439.762, 473.976 437.473, 475.789 435.805 C 478.256 433.534, 479.334 433.303, 487.765 433.234 C 496.933 433.158, 497.045 433.187, 498.478 435.958 C 500.133 439.157, 501.797 440, 506.459 440 C 508.272 440, 510.315 440.675, 511 441.500 C 512.819 443.691, 513.440 443.416, 516.436 439.092 C 518.429 436.216, 519.371 433.246, 520.001 427.842 C 521.155 417.958, 522.456 412.360, 524.045 410.445 C 524.772 409.570, 528.271 407.537, 531.821 405.927 C 543.101 400.813, 552.861 402.292, 556.369 409.648 C 558.276 413.647, 559.020 413.755, 562.694 410.563 C 565.051 408.516, 565.316 407.825, 564.354 406.243 C 563.723 405.206, 561.978 401.288, 560.477 397.534 C 557.884 391.053, 557.812 390.428, 559.036 385.105 C 559.746 382.022, 560.399 376.241, 560.489 372.258 L 560.652 365.015 565.159 361.504 C 567.638 359.572, 571.092 356.008, 572.833 353.583 C 575.679 349.619, 576 348.452, 576 342.054 C 576 334.186, 574.233 328.730, 571.150 327.080 C 566.843 324.775, 559.024 326.476, 553.326 330.958 C 551.919 332.065, 549.178 333.409, 547.234 333.946 C 544.278 334.762, 543.229 334.588, 540.834 332.882 C 536.948 330.115, 535.334 326.619, 534.653 319.500 C 534.338 316.200, 533.792 312.077, 533.440 310.339 C 532.899 307.669, 533.203 306.913, 535.400 305.474 C 539.050 303.082, 538.670 302.328, 533.417 301.540 C 530.896 301.162, 527.014 300.211, 524.791 299.426 C 518.671 297.267, 509.328 297.592, 504.175 300.142" stroke="#c666b5" fill="#c666b5" fill-opacity="0.2" fill-rule="evenodd"/><path class="svg-region-SF" d="M 588.673 249.750 C 588.429 250.162, 587.899 252.944, 587.495 255.932 C 587.092 258.919, 585.297 264.319, 583.507 267.932 C 581.716 271.544, 579.518 276.075, 578.622 278 C 576.368 282.841, 557.307 305, 555.397 305 C 554.164 305, 553.987 305.675, 554.543 308.250 C 556.285 316.321, 560.293 321.017, 568.282 324.348 C 573.359 326.465, 575.948 332.098, 575.978 341.096 C 576.005 349.098, 574.623 352.133, 567.403 359.932 C 562.345 365.395, 562 366.091, 562 370.833 C 562 375.402, 562.328 376.148, 565.344 378.449 C 567.184 379.852, 569.067 381, 569.530 381 C 569.993 381, 571.300 381.827, 572.436 382.838 C 573.571 383.849, 576.075 385.281, 578 386.020 C 579.925 386.759, 583.975 389.469, 587 392.043 C 594.691 398.585, 598.521 400.418, 601.853 399.150 C 603.309 398.596, 607.875 397.945, 612 397.703 C 622.601 397.082, 631.894 393.824, 634.748 389.727 C 635.984 387.952, 644.291 378.931, 653.207 369.680 L 669.417 352.860 669.317 342.604 C 669.220 332.624, 667.057 320.300, 664.473 315 C 663.803 313.625, 662.933 309.800, 662.540 306.500 C 660.722 291.245, 641.318 262.999, 628.657 257.177 C 617.427 252.013, 617.372 252, 606.290 252 C 598.247 252, 594.872 251.614, 593.441 250.532 C 591.301 248.913, 589.359 248.594, 588.673 249.750" stroke="#8c6b55" fill="#8c6b55" fill-opacity="0.2" fill-rule="evenodd"/><path class="svg-region-IF" d="M 653.139 369.750 C 644.261 378.962, 635.984 387.947, 634.748 389.716 C 631.900 393.790, 622.120 397.055, 610.174 397.919 C 601.360 398.556, 600.503 399.081, 598.802 404.879 C 598.114 407.223, 598.173 407.245, 602.802 406.400 C 609.472 405.182, 626.483 405.823, 633.144 407.543 C 636.249 408.344, 640.560 409, 642.724 409 C 647.480 409, 660.351 413.455, 664.500 416.537 C 666.150 417.762, 669.808 419.428, 672.628 420.237 C 677.629 421.673, 685.098 426.629, 687.877 430.356 C 693.128 437.396, 707.612 434.707, 716.313 425.075 L 720 420.994 719.994 411.247 C 719.987 398.813, 718.675 390.798, 715.617 384.500 C 714.281 381.750, 712.001 376.575, 710.549 373 C 709.097 369.425, 706.398 364.729, 704.550 362.565 C 701.258 358.710, 701.022 358.618, 692.845 357.994 C 687.894 357.616, 682.350 356.471, 679.213 355.179 C 676.305 353.980, 672.881 353, 671.604 353 C 669.910 353, 664.918 357.528, 653.139 369.750" stroke="#f2823b" fill="#f2823b" fill-opacity="0.2" fill-rule="evenodd"/><path class="svg-region-PF" d="M 535.625 304.986 C 533.319 307.337, 532.881 308.468, 533.412 310.708 C 533.776 312.244, 534.332 316.200, 534.648 319.500 C 535.312 326.433, 536.888 329.980, 540.601 332.900 C 543.573 335.239, 546.588 334.958, 551.500 331.884 C 558.773 327.333, 563.264 325.770, 567.650 326.264 C 570.042 326.534, 572 326.569, 572 326.342 C 572 326.115, 570.087 325.086, 567.750 324.055 C 560.581 320.895, 556.113 315.548, 554.541 308.250 C 554.067 306.048, 553.261 305, 552.043 305 C 551.054 305, 548.629 304.325, 546.654 303.500 C 541.458 301.329, 538.871 301.677, 535.625 304.986 M 562.676 363.436 C 560.248 365.377, 559.941 366.170, 560.489 369.097 C 560.840 370.968, 560.595 375.425, 559.946 379 C 557.608 391.874, 557.620 392.056, 561.340 400.218 C 564.345 406.812, 565.371 408.128, 568.544 409.454 C 573.056 411.339, 580.640 411.386, 588 409.575 C 595.960 407.616, 599 406.243, 599 404.607 C 599 403.813, 599.244 402.529, 599.542 401.752 C 599.897 400.826, 598.779 399.750, 596.292 398.622 C 594.206 397.677, 590.274 394.882, 587.553 392.411 C 584.832 389.941, 580.657 387.057, 578.276 386.004 C 575.894 384.950, 573.251 383.393, 572.401 382.544 C 571.552 381.695, 570.262 381, 569.534 381 C 568.807 381, 566.814 379.694, 565.106 378.099 C 562.426 375.595, 562 374.507, 562 370.155 C 562 366.101, 562.429 364.813, 564.190 363.580 C 565.394 362.736, 566.181 361.851, 565.940 361.613 C 565.698 361.374, 564.229 362.195, 562.676 363.436" stroke="#faaaaa" fill="#faaaaa" fill-opacity="0.2" fill-rule="evenodd"/><path class="svg-region-AAB" d="M 639.174 411.314 C 636.103 414.584, 635.984 425.386, 639.001 427.001 C 644.443 429.913, 648.247 444.424, 645.108 450.296 C 643.976 452.413, 643.946 453.456, 644.949 455.876 C 646.739 460.198, 645.590 462.429, 638.935 467.550 C 635.671 470.062, 633 472.508, 633 472.987 C 633 473.466, 632.408 474.452, 631.685 475.179 C 629.332 477.542, 625.189 485.402, 624.084 489.599 C 622.481 495.683, 618.932 500.442, 615.718 500.816 C 614.223 500.990, 613 501.485, 613 501.914 C 613 502.344, 610.188 505.449, 606.750 508.814 C 594.413 520.890, 592.952 522, 589.387 522 C 586.570 522, 585.628 522.628, 583.575 525.881 C 582.228 528.015, 579.972 531.006, 578.563 532.527 C 577.153 534.048, 576 536.325, 576 537.587 C 576 538.849, 575.550 540.160, 575 540.500 C 574.450 540.840, 574 542.494, 574 544.176 C 574 546.860, 574.275 547.159, 576.250 546.625 C 577.487 546.291, 582.775 545.316, 588 544.459 C 600.927 542.339, 620.399 537.248, 626.596 534.368 C 629.400 533.066, 631.982 532, 632.335 532 C 634.617 532, 662.413 517.371, 666.500 514.019 C 684.390 499.345, 697.128 486.481, 700.411 479.772 C 703.663 473.125, 703.603 467.430, 700.178 457.500 C 699.040 454.200, 696.981 447.778, 695.604 443.230 C 693.640 436.746, 692.279 434.162, 689.300 431.265 C 683.042 425.181, 676.805 421.085, 671.409 419.517 C 668.607 418.702, 665.160 417.127, 663.747 416.016 C 660.734 413.646, 647.643 409.017, 643.924 409.007 C 642.508 409.003, 640.370 410.042, 639.174 411.314" stroke="#7f3c1a" fill="#7f3c1a" fill-opacity="0.2" fill-rule="evenodd"/><path class="svg-region-APB" d="M 603.500 406.192 C 592.259 408.393, 582.327 411.224, 579.500 413.033 C 577.850 414.088, 574.130 416.144, 571.234 417.601 C 564.640 420.917, 562.063 423.962, 558.511 432.635 C 556.965 436.411, 553.830 443.550, 551.546 448.500 C 547.404 457.475, 545.583 465.171, 542.908 485 C 540.967 499.391, 544.004 537.307, 547.898 547.300 C 548.972 550.058, 549.085 550.091, 555.244 549.473 C 565.487 548.445, 572.340 547.068, 573.067 545.891 C 573.443 545.283, 574.300 542.921, 574.972 540.643 C 576.376 535.880, 576.433 535.773, 580.683 529.899 C 585.716 522.943, 586.816 522, 589.894 522 C 591.671 522, 593.926 520.938, 595.734 519.250 C 597.354 517.737, 600.737 514.815, 603.252 512.755 C 605.766 510.696, 609.266 507.190, 611.029 504.964 C 613.891 501.350, 614.078 500.733, 612.780 499.208 C 611.980 498.269, 610.327 494.125, 609.107 490 C 607.887 485.875, 606.464 481.466, 605.944 480.203 C 604.740 477.272, 604.712 467.296, 605.906 466.558 C 606.405 466.250, 607.130 463.636, 607.517 460.749 C 607.905 457.862, 608.778 454.148, 609.458 452.495 C 610.996 448.753, 620.904 439.029, 623.194 439.012 C 625.483 438.996, 629.477 435.267, 631.775 431 C 632.812 429.075, 634.544 427.368, 635.625 427.207 C 637.396 426.943, 637.549 426.277, 637.176 420.418 C 636.843 415.195, 637.111 413.535, 638.542 411.954 C 639.520 410.873, 640.136 409.821, 639.911 409.616 C 639.685 409.412, 637.025 408.559, 634 407.720 C 626.977 405.773, 609.986 404.922, 603.500 406.192" stroke="#ac7444" fill="#ac7444" fill-opacity="0.2" fill-rule="evenodd"/><path class="svg-region-PC" d="M 531.203 405.982 C 528.289 407.458, 525.219 409.353, 524.379 410.192 C 522.465 412.107, 521.145 417.286, 520.003 427.365 C 519.330 433.312, 518.456 436.177, 516.422 439.113 L 513.731 442.995 515.673 447.748 C 517.226 451.550, 517.502 453.941, 517.050 459.707 C 516.210 470.442, 512.783 472.072, 508.742 463.660 C 506.288 458.551, 505.002 459.096, 504.987 465.250 C 504.980 468.137, 503.855 474.005, 502.487 478.288 C 499.055 489.035, 499.159 490.792, 503.250 491.187 C 506.264 491.477, 506.671 491.973, 508.854 498 C 510.149 501.575, 512.255 508.325, 513.534 513 C 514.813 517.675, 516.544 522.820, 517.380 524.432 C 519.857 529.206, 520.456 537.217, 518.605 540.797 C 516.660 544.559, 517.429 547, 520.560 547 C 521.850 547, 523.940 547.400, 525.203 547.888 C 526.466 548.377, 530.781 549.279, 534.792 549.892 C 540.989 550.841, 542.541 550.771, 545.132 549.432 C 547.763 548.071, 548.080 547.488, 547.450 545.178 C 544.457 534.207, 542.702 518.037, 542.654 501 C 542.592 478.504, 545.481 461.240, 551.321 449.215 C 553.115 445.522, 555.629 439.691, 556.910 436.259 C 560.794 425.843, 563.893 421.865, 571.083 418.066 C 574.612 416.202, 578.573 413.849, 579.885 412.838 L 582.270 411 576.835 411 C 573.846 411, 570.973 410.589, 570.450 410.086 C 568.589 408.297, 565.425 408.561, 562.331 410.764 C 558.321 413.620, 558.102 413.590, 556.860 410.027 C 554.305 402.699, 541.627 400.700, 531.203 405.982" stroke="#cda789" fill="#cda789" fill-opacity="0.2" fill-rule="evenodd"/><path class="svg-region-DB" d="M 401.936 428.950 C 400.260 431.673, 398.015 434.178, 396.945 434.517 C 394.372 435.334, 394.476 436.104, 397.886 441.482 C 401.796 447.646, 405.309 450.189, 411.203 451.121 C 416.387 451.941, 429.468 458.962, 434 463.357 C 444.361 473.406, 455.153 486.099, 461.008 495.124 C 463.371 498.768, 466.559 502.490, 468.092 503.395 C 469.624 504.300, 471.162 505.935, 471.509 507.028 C 471.856 508.121, 474.246 510.623, 476.820 512.589 L 481.500 516.163 482.190 512.128 C 482.569 509.909, 483.432 507.060, 484.108 505.797 C 485.760 502.706, 492.996 495.900, 496.866 493.797 C 499.309 492.469, 500 491.428, 500 489.077 C 500 487.419, 501.125 482.615, 502.500 478.403 C 504.013 473.767, 505 468.427, 505 464.872 C 505 459.255, 504.890 459, 502.468 459 C 498.602 459, 493 456.315, 493 454.463 C 493 453.116, 492.315 452.940, 489.147 453.475 C 485.518 454.088, 485.218 453.941, 483.975 450.941 C 482.689 447.836, 482.528 447.769, 477.578 448.273 C 474.040 448.633, 472.122 448.381, 471.254 447.441 C 470.568 446.699, 468.318 445.818, 466.254 445.484 C 464.189 445.149, 459.979 444.004, 456.897 442.938 C 453.816 441.872, 448.641 440.996, 445.397 440.990 C 437.098 440.976, 430.800 437.804, 423.870 430.146 L 418.308 424 411.645 424 L 404.982 424 401.936 428.950" stroke="#e8b1e4" fill="#e8b1e4" fill-opacity="0.2" fill-rule="evenodd"/><path class="svg-region-MB" d="M 390 437.501 C 387.583 438.884, 380.445 438.880, 367.250 437.487 C 364.913 437.240, 363 437.455, 363 437.965 C 363 439.434, 374.071 463.338, 375.522 465 C 376.242 465.825, 377.152 468.230, 377.544 470.345 C 377.984 472.713, 380.133 476.525, 383.141 480.274 C 385.827 483.620, 389.325 489.111, 390.915 492.476 C 392.505 495.841, 394.524 499.190, 395.403 499.919 C 396.281 500.648, 397 501.771, 397 502.414 C 397 503.057, 398.462 505.199, 400.250 507.174 C 402.038 509.149, 404.625 512.656, 406 514.969 C 407.375 517.281, 410.791 521.272, 413.590 523.837 C 420.759 530.404, 436.232 540.818, 442.345 543.190 C 445.180 544.290, 448.729 545.843, 450.230 546.640 C 453.724 548.495, 476.232 551.009, 490.594 551.150 C 502.010 551.261, 507.913 550.091, 511.151 547.074 C 512.814 545.524, 512.634 545.298, 507.957 543.078 C 505.231 541.784, 503 540.373, 503 539.944 C 503 539.514, 501.313 538.149, 499.250 536.909 C 497.188 535.670, 493.137 532.673, 490.249 530.250 C 486.106 526.774, 484.871 525.046, 484.394 522.060 C 483.643 517.366, 483.499 517.171, 478.074 513.497 C 475.639 511.849, 472.828 509.114, 471.825 507.420 C 470.823 505.726, 468.963 503.783, 467.692 503.103 C 466.421 502.423, 463.430 498.859, 461.046 495.183 C 455.188 486.153, 441.629 470.203, 434.638 464.120 C 433.615 463.229, 432.265 462.022, 431.638 461.437 C 428.177 458.206, 415.555 451.756, 411.791 451.295 C 405.904 450.575, 401.563 447.463, 397.777 441.250 C 394.326 435.587, 393.794 435.331, 390 437.501" stroke="#f9c6c6" fill="#f9c6c6" fill-opacity="0.2" fill-rule="evenodd"/><path class="svg-region-AP" d="M 533.200 593.200 C 531.632 594.768, 531.698 602.695, 533.493 628.500 C 534.297 640.050, 535.621 659.175, 536.435 671 C 537.249 682.825, 537.650 695.045, 537.325 698.156 C 536.747 703.699, 536.796 703.843, 539.821 705.408 C 543.051 707.078, 545.572 711.668, 547.920 720.159 C 548.717 723.039, 550.792 726.522, 553.355 729.279 C 559.535 735.930, 561.883 740.408, 563.121 747.904 C 564.163 754.210, 564.058 755.183, 561.553 762.439 C 557.949 772.882, 558.253 773.437, 567.178 772.688 C 571.101 772.359, 574.722 771.678, 575.225 771.175 C 575.779 770.621, 574.929 768.289, 573.070 765.269 C 570.787 761.557, 570 759.075, 570 755.580 C 570 751.294, 570.453 750.401, 575.145 745.440 C 577.975 742.448, 581.025 740, 581.923 740 C 584.736 740, 588 737.016, 588 734.443 C 588 732.266, 588.428 732, 591.941 732 C 594.109 732, 596.160 732.450, 596.500 733 C 597.454 734.543, 614.161 734.193, 616.280 732.586 C 617.923 731.340, 617.596 730.764, 612.037 725.118 C 608.724 721.753, 605.370 719, 604.583 719 C 603.797 719, 601.769 717.835, 600.077 716.411 C 597.607 714.333, 597 713.051, 597 709.911 L 597 706 610.965 706 C 620.391 706, 626.323 705.536, 629.215 704.573 C 631.572 703.788, 635.750 702.870, 638.500 702.532 C 644.531 701.791, 648.297 700.791, 662 696.294 C 676.470 691.545, 678.238 689.810, 681.346 677.305 C 682.686 671.912, 684.731 665.025, 685.891 662 C 687.652 657.404, 688.808 649, 687.678 649 C 685.416 649, 677.718 652.658, 676.946 654.100 C 675.707 656.416, 670.566 656.643, 665.784 654.592 C 652.933 649.080, 644.956 646.750, 636.065 645.912 C 628.878 645.234, 625.878 644.504, 624 642.977 C 621.693 641.102, 617.897 639.134, 613.859 637.721 C 611.199 636.790, 606.500 626.113, 606.500 621 C 606.500 616.963, 606.963 616.062, 611 612.248 C 613.475 609.910, 616.513 607.723, 617.750 607.390 C 621.407 606.404, 620.322 605, 615.904 605 C 611.280 605, 601.569 602.415, 598.398 600.339 C 595.493 598.438, 579.311 596.537, 576.589 597.777 C 575.295 598.367, 570.780 598.430, 564.985 597.939 C 555.899 597.170, 553.972 596.806, 549.500 595.019 C 542.107 592.065, 535.115 591.285, 533.200 593.200" stroke="#fc7143" fill="#fc7143" fill-opacity="0.2" fill-rule="evenodd"/><path class="svg-region-PP" d="M 487.500 587.262 C 481.450 587.768, 470.425 588.258, 463 588.351 C 448.084 588.537, 432.180 591.552, 426.509 595.270 C 424.824 596.374, 421.795 600.068, 419.778 603.478 C 417.761 606.888, 414.623 611.464, 412.805 613.646 C 410.987 615.828, 408.600 619.304, 407.500 621.370 C 406.183 623.843, 403.660 626.181, 400.113 628.215 C 395.207 631.028, 393.896 631.312, 385.425 631.402 L 376.123 631.500 375.472 636.220 C 374.952 639.985, 375.211 641.502, 376.753 643.720 C 378.657 646.459, 382.639 657.203, 385.010 666 C 385.677 668.475, 387.070 673.200, 388.104 676.500 C 389.139 679.800, 390.437 684.341, 390.989 686.591 C 392.375 692.245, 395.190 694.690, 398.551 693.159 C 401.673 691.736, 405.634 691.687, 411.236 693 C 422.730 695.694, 430.076 697.299, 436 698.410 C 439.575 699.081, 443.400 699.969, 444.500 700.385 C 449.711 702.353, 459.949 707.688, 464 710.548 C 470.680 715.262, 471.156 715.253, 474.252 710.354 C 475.904 707.740, 477.754 706, 478.880 706 C 479.912 706, 482.469 705.284, 484.563 704.409 C 487.770 703.069, 491.297 702.910, 506.935 703.400 C 517.146 703.720, 528.200 704.244, 531.500 704.564 L 537.500 705.146 537.637 699.823 C 537.778 694.330, 536.097 665.209, 533.520 628.500 C 531.742 603.183, 531.642 594.758, 533.100 593.300 C 534.390 592.010, 527.562 589.894, 516.500 588.156 C 505.681 586.457, 499.431 586.264, 487.500 587.262" stroke="#c4743d" fill="#c4743d" fill-opacity="0.2" fill-rule="evenodd"/><path class="svg-region-LPl" d="M 620.921 606.907 C 617.461 607.355, 615.201 608.508, 611.671 611.626 C 605.980 616.653, 605.130 619.860, 607.552 627.166 C 609.904 634.263, 612.346 637.370, 616.804 638.936 C 618.837 639.650, 621.667 641.323, 623.093 642.654 C 625.263 644.679, 627.219 645.214, 635.093 645.935 C 640.267 646.409, 646.525 647.494, 649 648.346 C 661.154 652.529, 665.581 654.238, 666.450 655.080 C 666.972 655.586, 669.254 656, 671.520 656 C 674.668 656, 676.152 655.410, 677.813 653.500 C 679.009 652.125, 680.748 651, 681.678 651 C 685.679 651, 691.787 646.827, 695.343 641.664 C 697.354 638.743, 699 635.669, 699 634.832 C 699 632.957, 695.450 629.604, 694.251 630.345 C 693.769 630.643, 692.053 630.015, 690.438 628.950 C 688.822 627.885, 686.723 627.010, 685.774 627.007 C 684.824 627.003, 681.733 624.793, 678.905 622.095 C 674.192 617.601, 672.998 617.015, 664.631 615.094 C 659.609 613.941, 653.250 612.359, 650.500 611.578 C 630.072 605.773, 629.893 605.745, 620.921 606.907" stroke="#d2454f" fill="#d2454f" fill-opacity="0.2" fill-rule="evenodd"/><path class="svg-region-DMl" d="M 398.500 693.195 C 397.400 693.819, 396.169 694.818, 395.765 695.415 C 394.187 697.746, 395.077 705.624, 397.510 710.849 C 399.352 714.808, 400.011 717.928, 400.044 722.849 C 400.068 726.507, 400.542 731.525, 401.098 734 C 401.654 736.475, 402.449 740.316, 402.864 742.537 C 403.970 748.457, 404.522 748.942, 409.882 748.709 C 412.530 748.594, 415.777 749.018, 417.098 749.652 C 448.163 764.553, 454.747 766.112, 460.763 759.995 C 466.685 753.974, 468.161 751.161, 471.526 739.500 C 472.478 736.200, 473.649 733.072, 474.129 732.550 C 474.608 732.028, 475 728.826, 475 725.435 C 475 719.202, 472.587 714.014, 469.677 713.990 C 469.030 713.985, 466.652 712.511, 464.394 710.715 C 458.516 706.042, 444.744 699.844, 437.071 698.420 C 426.528 696.463, 414.746 693.942, 411.429 692.934 C 407.294 691.677, 400.951 691.805, 398.500 693.195" stroke="#68533d" fill="#68533d" fill-opacity="0.2" fill-rule="evenodd"/><path class="svg-region-VMl" d="M 492 719.705 C 486.630 720.576, 478.514 725.486, 475.806 729.500 C 473.121 733.482, 470 741.492, 470 744.404 C 470 745.244, 469.251 747.504, 468.335 749.425 L 466.669 752.917 470.704 757.295 C 476.527 763.612, 477.724 765.850, 478.520 771.904 C 479.926 782.606, 488.862 786.944, 510.672 787.511 C 516.267 787.656, 523.156 788.368, 525.981 789.092 C 530.231 790.181, 531.481 790.180, 533.230 789.089 C 534.392 788.363, 537.403 786.635, 539.921 785.248 C 542.440 783.861, 547.208 780.851, 550.517 778.560 C 553.826 776.268, 557.306 774.097, 558.250 773.734 C 559.215 773.364, 559.726 772.450, 559.418 771.646 C 559.116 770.859, 560.077 766.716, 561.553 762.439 C 564.058 755.183, 564.163 754.210, 563.121 747.904 C 561.821 740.032, 559.420 735.651, 552.461 728.456 C 547.760 723.595, 547.007 723.197, 541.257 722.530 C 537.286 722.069, 533.811 722.237, 531.490 723.003 C 527.259 724.400, 522.755 723.993, 510.551 721.112 C 502.071 719.111, 497.705 718.780, 492 719.705" stroke="#e59376" fill="#e59376" fill-opacity="0.2" fill-rule="evenodd"/><path class="svg-region-PMl" d="M 271.500 720.949 C 270.400 721.450, 268.040 721.891, 266.256 721.930 C 263.640 721.986, 262.431 722.803, 260.006 726.150 C 255.086 732.942, 256.401 739.743, 263.156 742.446 C 265.292 743.301, 268.044 744.003, 269.270 744.007 C 270.497 744.010, 272.850 744.907, 274.500 746 C 278.304 748.519, 280.652 748.507, 286.647 745.937 C 292.315 743.508, 292.964 742.682, 292.985 737.880 C 292.996 735.192, 292.133 733.262, 289.633 730.380 C 287.781 728.246, 285.193 725.235, 283.882 723.688 C 281.290 720.632, 275.171 719.278, 271.500 720.949" stroke="#90cf92" fill="#90cf92" fill-opacity="0.2" fill-rule="evenodd"/><path class="svg-region-PV" d="M 371.726 612.760 C 365.745 625.372, 363.078 627.296, 358.055 622.623 C 351.185 616.231, 330.941 613.770, 318.500 617.814 C 315.200 618.886, 310.837 620.747, 308.804 621.949 C 306.772 623.150, 302.596 624.393, 299.525 624.710 C 296.454 625.027, 293.703 625.672, 293.412 626.143 C 292.803 627.127, 252.038 627.137, 238.329 626.156 C 230.636 625.606, 228.760 625.125, 226.681 623.171 L 224.204 620.843 223.621 626.171 C 221.217 648.182, 221.137 652.413, 223.062 655.755 C 224.660 658.527, 224.785 659.712, 223.909 663.755 C 223.343 666.365, 222.449 671.194, 221.922 674.486 C 221.395 677.778, 220.005 683.446, 218.835 687.082 L 216.706 693.692 219.022 698.330 C 221.157 702.605, 221.213 703.107, 219.736 704.739 C 218.855 705.713, 217.835 708.761, 217.470 711.512 C 216.901 715.800, 217.102 716.783, 218.876 718.387 C 221.004 720.313, 237.787 730, 238.996 730 C 239.998 730, 251.949 742.996, 256.118 748.620 C 258.108 751.304, 261.370 756.751, 263.367 760.724 C 268.288 770.513, 269.387 771, 286.545 771 C 299.602 771, 300.648 770.844, 310.845 767.375 C 316.705 765.381, 323.170 762.906, 325.210 761.875 C 327.251 760.844, 330.255 760, 331.886 760 C 333.518 760, 339.498 758.396, 345.176 756.434 C 361.064 750.947, 361.772 750.798, 373.500 750.452 C 379.550 750.273, 388.860 749.821, 394.189 749.447 L 403.878 748.767 403.301 743.633 C 402.984 740.810, 402.275 737.627, 401.726 736.561 C 401.177 735.495, 400.531 730.545, 400.291 725.561 C 399.965 718.767, 399.219 715.029, 397.313 710.619 C 395.317 706.003, 394.876 703.643, 395.261 699.639 C 395.668 695.402, 395.363 694.029, 393.460 691.520 C 392.199 689.859, 390.873 686.700, 390.512 684.500 C 390.151 682.300, 389.484 679.600, 389.029 678.500 C 387.850 675.650, 386.422 671.202, 385.015 666 C 382.615 657.131, 378.651 646.450, 376.737 643.697 C 374.193 640.038, 375.054 632.060, 378.078 631.269 C 380.579 630.615, 380.466 629.359, 377.474 624.500 C 375.608 621.470, 375.009 619.105, 375.005 614.750 C 375.002 611.587, 374.663 609.005, 374.250 609.010 C 373.837 609.016, 372.702 610.703, 371.726 612.760 M 271.500 721 C 270.400 721.473, 268.076 721.891, 266.337 721.930 C 263.817 721.986, 262.545 722.854, 260.087 726.197 C 255.091 732.990, 256.364 739.728, 263.156 742.446 C 265.292 743.301, 268.326 744, 269.898 744 C 271.469 744, 273.305 744.663, 273.978 745.474 C 276.152 748.093, 281.126 748.304, 286.492 746.004 C 292.267 743.528, 292.964 742.683, 292.985 738.128 C 292.996 735.551, 291.805 733.282, 287.930 728.506 C 281.382 720.436, 277.229 718.538, 271.500 721" stroke="#b09658" fill="#b09658" fill-opacity="0.2" fill-rule="evenodd"/><path class="svg-region-Fl" d="M 309 562.716 C 305.425 564.081, 299.513 566.259, 295.863 567.556 C 285.237 571.332, 262.896 581.901, 259.967 584.537 C 259.124 585.296, 255.299 587.498, 251.467 589.429 C 242.806 593.795, 229.974 605.357, 227.023 611.453 C 224.229 617.224, 224.645 621.667, 228.228 624.330 C 230.829 626.263, 232.423 626.361, 262.228 626.413 C 297.055 626.475, 300.211 626.095, 312.582 620.345 C 319.789 616.995, 321.466 616.623, 331.267 616.203 C 340.541 615.806, 342.968 616.052, 348.767 617.982 C 352.470 619.214, 356.650 621.297, 358.055 622.611 C 359.460 623.925, 361.287 625, 362.116 625 C 364.636 625, 367.671 621.415, 371.170 614.303 C 374.077 608.393, 374.487 606.605, 374.396 600.213 C 374.339 596.184, 373.777 592.377, 373.146 591.746 C 372.516 591.116, 372 589.152, 372 587.382 C 372 584.791, 371.327 583.747, 368.552 582.032 C 366.655 580.860, 364.857 579.124, 364.556 578.175 C 363.843 575.929, 357.140 569.042, 354.531 567.876 C 353.414 567.377, 349.575 565.403, 346 563.490 C 339.565 560.048, 339.379 560.014, 327.500 560.124 C 317.307 560.218, 314.521 560.609, 309 562.716" stroke="#5ca7a9" fill="#5ca7a9" fill-opacity="0.2" fill-rule="evenodd"/><path class="svg-region-B" d="M 810 488.670 C 809.175 488.951, 806.580 490.047, 804.233 491.104 C 801.161 492.488, 796.006 493.293, 785.840 493.976 C 770.118 495.033, 767.498 496.096, 760.532 504.234 L 757.253 508.064 756.562 523.282 C 755.610 544.250, 754.609 549.809, 750.356 557.765 C 748.376 561.469, 746.188 565.175, 745.494 566 C 744.801 566.825, 743.220 569.525, 741.982 572 C 740.744 574.475, 739.409 576.725, 739.015 577 C 737.469 578.080, 736.200 581.803, 735.095 588.500 C 734.459 592.350, 733.464 596.699, 732.884 598.164 C 732.023 600.338, 732.166 601.185, 733.664 602.764 C 736.627 605.888, 738.371 608.390, 740.500 612.571 C 741.977 615.474, 743.210 616.582, 745.216 616.813 C 748.445 617.185, 752.850 622.440, 755.434 629 C 756.834 632.556, 757.143 635.808, 756.907 644.500 C 756.379 663.985, 756.641 666.169, 760.036 670.587 C 761.706 672.759, 765.015 675.862, 767.390 677.481 C 771.504 680.286, 773.453 682.778, 776.791 689.500 C 777.611 691.150, 779.297 693.625, 780.539 695 C 781.781 696.375, 783.569 699.989, 784.512 703.031 C 785.455 706.073, 787.032 709.557, 788.016 710.772 C 789.972 713.187, 791.554 713.342, 812 713.112 C 821.820 713.002, 832.862 714.488, 834 716.073 C 834.275 716.456, 836.525 717.032, 839 717.353 C 841.475 717.674, 845.395 718.221, 847.711 718.569 C 853.652 719.463, 857.216 717.546, 861.245 711.291 C 863.316 708.076, 867.518 703.828, 871.942 700.476 C 875.950 697.440, 880.303 693.503, 881.616 691.728 C 884.178 688.262, 890 676.685, 890 675.056 C 890 674.512, 891.728 671.393, 893.841 668.125 C 898.220 661.350, 899.062 659.266, 901.397 649.418 C 903.299 641.398, 902.830 635.750, 899.743 629.500 C 896.985 623.917, 895.277 622.217, 891.646 621.441 C 889.916 621.072, 888.050 620.430, 887.500 620.015 C 886.950 619.600, 884.764 618.948, 882.641 618.565 C 880.519 618.182, 877.819 616.859, 876.641 615.626 C 872.685 611.483, 867.331 608, 864.906 607.992 C 862.047 607.983, 858.670 602.697, 857.564 596.500 C 856.834 592.414, 848.578 578, 846.968 578 C 846.478 578, 845.568 576.109, 844.946 573.798 C 844.323 571.487, 842.056 567.598, 839.907 565.157 C 837.758 562.716, 836 560.219, 836 559.609 C 836 556.664, 838.925 545.045, 840.370 542.251 C 841.266 540.518, 842 538.267, 842 537.250 C 842 536.232, 842.514 534.886, 843.142 534.258 C 843.997 533.403, 843.891 532.288, 842.719 529.808 C 841.858 527.989, 840.858 525.150, 840.496 523.500 C 838.319 513.579, 832.368 502.280, 825.885 495.759 C 818.919 488.751, 814.951 486.980, 810 488.670" stroke="#e23b33" fill="#e23b33" fill-opacity="0.2" fill-rule="evenodd"/><path class="svg-region-SB" d="M 888 141.673 C 873.523 143.134, 859.077 147.252, 850.500 152.363 C 845.718 155.212, 839.193 160.305, 820.459 175.810 C 817.145 178.553, 812.099 185.518, 810.057 190.170 C 804.938 201.833, 806.962 224.561, 814.077 235.302 C 816.698 239.259, 818.654 240.727, 826.347 244.509 C 834.232 248.384, 836.886 249.160, 845.500 250.103 C 858.872 251.569, 864.145 250.862, 879.500 245.549 C 886.650 243.075, 893.850 241.040, 895.500 241.026 C 902.416 240.970, 907.298 244.106, 918.588 255.861 C 924.590 262.109, 931.134 268.268, 933.131 269.548 C 939.422 273.579, 947.250 275.274, 957.394 274.802 C 967.340 274.338, 970.495 273.203, 982 265.952 C 990.916 260.332, 994.232 256.902, 997.212 250.217 C 998.613 247.072, 1000.560 242.700, 1001.539 240.500 C 1002.601 238.111, 1003.500 233.058, 1003.771 227.952 C 1004.163 220.575, 1003.885 218.520, 1001.745 212.952 C 1000.380 209.403, 998.530 204.475, 997.633 202 C 995.662 196.559, 994.187 194.276, 986.773 185.186 C 980.980 178.084, 970.607 168.654, 964.067 164.545 C 952.114 157.036, 944.976 153.509, 933.455 149.420 C 917.767 143.852, 916.277 143.424, 907.885 142.068 C 901.527 141.042, 895.456 140.921, 888 141.673" stroke="#d2e400" fill="#d2e400" fill-opacity="0.2" fill-rule="evenodd"/><path class="svg-region-VOC" d="M 498.055 492.952 C 496.757 494.078, 495.245 495, 494.697 495 C 494.149 495, 491.533 497.261, 488.883 500.025 C 483.091 506.066, 481.067 511.530, 482.822 516.385 C 483.470 518.177, 484 520.441, 484 521.417 C 484 524.422, 487.585 528.447, 495.973 534.858 C 510.435 545.910, 514.634 547.220, 518.073 541.750 C 519.740 539.099, 520.008 537.493, 519.524 533.035 C 519.199 530.029, 518.261 526.224, 517.440 524.580 C 516.620 522.935, 515.078 518.194, 514.015 514.045 C 512.952 509.895, 510.813 503.125, 509.261 499 C 506.678 492.134, 506.185 491.475, 503.428 491.202 C 501.494 491.011, 499.571 491.637, 498.055 492.952" stroke="#ff8f93" fill="#ff8f93" fill-opacity="0.2" fill-rule="evenodd"/><path class="svg-region-OABl" d="M 633.443 427.765 C 632.862 428.169, 631.789 429.978, 631.058 431.784 C 629.601 435.385, 625.649 438.987, 623.115 439.023 C 621.406 439.048, 612.904 446.685, 610.520 450.337 C 607.216 455.400, 604.070 475.192, 605.836 479.811 C 606.401 481.290, 607.868 485.875, 609.095 490 C 611.514 498.132, 613.331 501, 616.066 501 C 618.458 501, 622.678 495.774, 623.517 491.774 C 624.229 488.378, 629.654 476.878, 630.958 476 C 631.366 475.725, 632.216 474.521, 632.846 473.325 C 633.475 472.128, 636.211 469.710, 638.925 467.952 C 644.699 464.211, 646.701 460.449, 645.204 456.156 C 644.446 453.980, 644.586 452.053, 645.763 448.477 C 647.615 442.853, 646.615 437.519, 642.485 430.976 C 640.549 427.909, 639.349 427.004, 637.237 427.015 C 635.732 427.024, 634.024 427.361, 633.443 427.765" stroke="#81244d" fill="#81244d" fill-opacity="0.2" fill-rule="evenodd"/><path class="svg-region-SOTl" d="M 475.378 436.127 C 473.435 438.155, 472.584 440.277, 472.228 443.977 L 471.741 449.048 477.120 448.429 C 482.428 447.819, 482.518 447.853, 483.864 450.974 C 485.148 453.951, 485.457 454.099, 489.114 453.481 C 492.242 452.952, 493 453.127, 493 454.377 C 493 456.479, 496.565 458.295, 501.988 458.954 C 506.179 459.464, 506.625 459.814, 508.728 464.250 C 511.027 469.097, 513.615 470.374, 515.801 467.740 C 517.302 465.931, 517.502 452.049, 516.077 448.500 C 514.020 443.377, 510.061 440.004, 506.063 439.968 C 502.149 439.933, 499.930 438.632, 498.180 435.347 C 497.125 433.366, 496.277 433.201, 487.537 433.272 C 478.505 433.345, 477.910 433.484, 475.378 436.127" stroke="#995b45" fill="#995b45" fill-opacity="0.2" fill-rule="evenodd"/><path class="svg-region-BPCl" d="M 731.649 603.630 C 730.075 606.588, 728.417 608.314, 719 616.795 C 709.390 625.452, 701.377 627.939, 693.651 624.665 C 687.292 621.969, 683.419 620.740, 680 620.329 L 676.500 619.909 680.417 623.454 C 682.571 625.404, 684.827 627, 685.431 627 C 686.035 627, 688.161 627.874, 690.155 628.943 C 692.149 630.012, 694.052 630.615, 694.384 630.283 C 695.326 629.341, 699 633.110, 699 635.017 C 699 636.862, 694.736 642.948, 690.579 647.038 C 688.792 648.796, 688 650.639, 687.999 653.038 C 687.999 654.942, 687.052 658.975, 685.894 662 C 684.737 665.025, 682.677 671.775, 681.317 677 C 677.900 690.130, 675.773 692.100, 659.500 697.209 C 647.097 701.103, 643.943 701.874, 637.679 702.542 C 634.477 702.883, 630.329 703.800, 628.461 704.581 C 626.075 705.578, 620.887 706, 611.032 706 L 597 706 597.032 709.750 C 597.072 714.493, 598.232 715.946, 604.823 719.515 C 607.751 721.101, 611.882 724.470, 614.002 727.003 C 617.662 731.373, 617.760 731.669, 615.942 732.804 C 613.624 734.252, 598.374 734.414, 597.500 733 C 597.160 732.450, 594.884 732, 592.441 732 C 588.345 732, 588 732.198, 588 734.556 C 588 736.613, 587.146 737.490, 583.628 739.046 C 581.224 740.110, 577.174 743.122, 574.629 745.740 C 570.432 750.057, 570.001 750.946, 570.001 755.290 C 570 760.478, 572.587 766.606, 576.198 769.970 C 578.445 772.064, 581.838 772.075, 588 770.011 C 589.375 769.551, 595.900 767.745, 602.500 765.999 C 609.100 764.254, 618.775 761.458, 624 759.787 C 629.225 758.116, 636.875 756.375, 641 755.919 C 658.126 754.022, 664.915 752.940, 669.091 751.442 C 674.096 749.647, 681.309 748.211, 691.500 746.981 C 709.165 744.850, 721.233 742.384, 736 737.892 C 742.601 735.883, 746.364 735.543, 767.383 735.055 L 791.266 734.500 793.133 731.016 C 794.160 729.099, 795 726.956, 795 726.252 C 795 725.548, 795.549 724.094, 796.219 723.020 C 797.262 721.350, 797.045 720.657, 794.719 718.229 C 793.224 716.668, 792 714.853, 792 714.195 C 792 713.538, 791.408 713, 790.684 713 C 789.080 713, 785.471 706.696, 784.529 702.249 C 784.151 700.461, 782.302 697.156, 780.420 694.905 C 778.539 692.653, 777 690.402, 777 689.902 C 777 687.568, 771.049 679.829, 767.315 677.308 C 765.028 675.764, 761.771 672.751, 760.078 670.612 C 756.660 666.296, 756.400 664.122, 756.898 644 C 757.086 636.430, 756.721 632.289, 755.592 629.160 C 753.353 622.958, 748.508 617.193, 745.216 616.813 C 743.170 616.577, 741.883 615.376, 740 611.946 C 738.625 609.441, 736.527 605.900, 735.338 604.076 L 733.176 600.760 731.649 603.630 M 483 704.660 C 476.235 707.052, 475.659 707.439, 473.569 711.008 C 471.739 714.132, 471.726 714.457, 473.319 717.233 C 474.278 718.905, 475 722.306, 475 725.158 L 475 730.153 477.480 727.206 C 478.844 725.586, 481.431 723.714, 483.230 723.046 C 485.028 722.379, 487.272 721.426, 488.216 720.929 C 492.201 718.830, 500.517 718.868, 510 721.027 C 523.173 724.027, 527.688 724.423, 532.100 722.967 C 534.963 722.022, 537.474 721.966, 542.205 722.740 C 545.667 723.306, 548.645 723.639, 548.822 723.480 C 549.740 722.652, 543.477 707.424, 541.765 706.323 C 539.670 704.976, 526.591 703.923, 506.500 703.484 C 490.906 703.144, 486.693 703.355, 483 704.660" stroke="#83385f" fill="#83385f" fill-opacity="0.2" fill-rule="evenodd"/>
    </svg>