<svg xmlns="http://www.w3.org/2000/svg" width="1078" height="1151" viewBox="0 0 1078 1151" version="1.1">
    <path class="svg-region-V" d="M 485 207.938 C 470.606 211.441, 454.884 217.301, 449 221.357 C 437.837 229.050, 434.112 232.785, 415.133 255.316 C 406.545 265.511, 402.477 270.250, 401 271.782 C 400.175 272.637, 397.925 275.439, 396 278.007 C 394.075 280.575, 389.800 285.720, 386.500 289.440 C 383.200 293.159, 379.898 297.330, 379.161 298.709 C 378.425 300.088, 376.768 302.405, 375.479 303.858 C 371.945 307.840, 368 313.923, 368 315.389 C 368 316.105, 367.177 317.435, 366.170 318.346 C 362.629 321.551, 356.185 336.331, 349.317 357 C 347.318 363.016, 346.941 365.687, 347.409 370.500 C 347.731 373.800, 348.428 381.900, 348.958 388.500 C 350.066 402.295, 350.904 406.204, 355.150 417.397 C 356.841 421.854, 358.667 426.709, 359.207 428.188 C 359.748 429.666, 361.926 432.699, 364.046 434.927 L 367.901 438.980 374.200 438.403 C 378.091 438.047, 382.840 436.713, 386.621 434.914 C 389.988 433.312, 394.263 431.717, 396.121 431.369 C 397.980 431.021, 400.625 429.758, 402 428.561 C 403.375 427.365, 406.197 425.144, 408.271 423.626 C 412.711 420.377, 421.393 408.391, 423.094 403.162 C 423.750 401.148, 427.511 395.450, 431.453 390.500 C 435.395 385.550, 439.304 380.496, 440.141 379.270 C 440.977 378.043, 444.852 373.543, 448.752 369.270 C 452.652 364.996, 457.341 359.510, 459.172 357.078 C 461.002 354.646, 464.378 351.271, 466.672 349.578 C 468.967 347.885, 474.668 343.717, 479.341 340.316 C 484.014 336.914, 489.787 332.005, 492.169 329.407 C 494.551 326.808, 498.413 322.617, 500.750 320.093 C 503.087 317.569, 505 315.200, 505 314.829 C 505 313.618, 518.931 304.858, 522.364 303.910 C 524.442 303.336, 529.269 303.361, 535.105 303.976 C 547.734 305.306, 559.430 305.251, 564.142 303.839 C 569.327 302.286, 575.306 297.002, 579.649 290.136 C 581.610 287.036, 584.216 283.375, 585.441 282 C 586.666 280.625, 588.707 277.700, 589.978 275.500 C 592.780 270.651, 597.248 254.234, 596.231 252.531 C 595.829 251.858, 592.597 248.733, 589.048 245.586 C 585.499 242.439, 581.845 238.629, 580.926 237.119 C 579.153 234.203, 571.131 227.174, 564.500 222.726 C 562.300 221.251, 559.056 218.866, 557.292 217.426 C 554.204 214.906, 551.753 214.019, 542 211.892 C 527.887 208.814, 523.356 207.613, 522.097 206.613 C 521.274 205.960, 515.698 205.425, 508.597 205.319 C 498.350 205.166, 494.741 205.567, 485 207.938" stroke="#dd8a8a" fill="#dd8a8a" fill-opacity="0.2" fill-rule="evenodd"/><path class="svg-region-SV" d="M 565.500 303.055 C 560.891 305.236, 551.465 305.528, 535.573 303.983 C 518.725 302.345, 514.476 304.543, 497 323.939 C 486.970 335.071, 487.487 334.574, 482.175 338.188 C 470.530 346.110, 461.686 353.509, 458.138 358.298 C 456.018 361.159, 451.935 365.975, 449.065 369 C 440.485 378.043, 424.013 399.712, 422.535 403.901 C 421.777 406.048, 419.984 409.578, 418.550 411.745 C 417.010 414.072, 416.201 416.360, 416.575 417.334 C 417.340 419.329, 424.878 424.930, 430.874 427.958 C 433.280 429.173, 437.062 431.481, 439.280 433.088 C 441.497 434.694, 446.504 436.933, 450.406 438.063 C 454.307 439.194, 460.328 441.104, 463.785 442.309 C 469.268 444.221, 470.183 444.309, 470.960 443 C 471.450 442.175, 474.022 438.692, 476.675 435.259 C 481.978 428.400, 484.718 427.395, 487.313 431.355 C 488.556 433.252, 489.999 433.813, 494.750 434.244 C 497.992 434.538, 502.502 435.726, 504.773 436.884 C 509.278 439.183, 518.024 442.337, 518.465 441.822 C 518.617 441.645, 519.700 439.475, 520.874 437 C 523.154 432.190, 524.856 429.701, 533.798 418.107 C 543.947 404.948, 543.892 405, 547.534 405 C 550.245 405, 551.850 405.976, 555.895 410.086 C 558.649 412.883, 561.441 416.820, 562.099 418.836 C 562.758 420.851, 564.285 423.963, 565.492 425.752 L 567.687 429.003 569.593 426.895 C 570.642 425.736, 573.209 423.915, 575.299 422.848 C 577.388 421.782, 579.349 420.142, 579.656 419.205 C 579.963 418.267, 580.841 416.082, 581.607 414.349 C 583.494 410.080, 583.363 409, 580.960 409 C 577.581 409, 571.387 405.293, 568.097 401.301 C 565.358 397.979, 565 396.814, 565 391.232 C 565 386.894, 565.625 383.695, 567 381 C 568.100 378.844, 569 375.244, 569 373 C 569 369.345, 570.146 366.469, 574.735 358.614 C 576.274 355.980, 576.490 335, 574.979 335 C 574.417 335, 572.153 336.194, 569.949 337.652 C 566.087 340.208, 565.737 340.259, 560.358 339.056 C 557.222 338.354, 552.863 338.093, 550.409 338.461 C 546.254 339.084, 545.943 338.955, 544.024 335.808 C 542.915 333.989, 542.006 330.868, 542.004 328.873 C 542.001 325.743, 542.702 324.646, 547.121 320.873 C 554.121 314.897, 559.750 311.490, 564.464 310.377 C 567.997 309.544, 568.562 308.982, 569.651 305.221 C 571.028 300.466, 571.001 300.452, 565.500 303.055 M 488.158 454.866 C 485.970 462.169, 486.672 466.078, 492.154 477.119 C 498.818 490.541, 498.451 490.121, 501.978 488.361 C 505.712 486.498, 506.841 482.792, 507.116 471.500 C 507.236 466.550, 507.921 461.311, 508.637 459.859 C 509.861 457.376, 509.765 457.145, 507.042 456.017 C 505.448 455.357, 503.367 453.958, 502.417 452.909 C 501.103 451.457, 499.329 451, 495.003 451 L 489.317 451 488.158 454.866" stroke="#c666b5" fill="#c666b5" fill-opacity="0.2" fill-rule="evenodd"/><path class="svg-region-SF" d="M 597.180 254.353 C 596.688 254.984, 595.299 259.307, 594.094 263.961 C 591.929 272.321, 590.009 276.377, 586.069 280.921 C 584.956 282.203, 582.609 285.558, 580.852 288.376 C 579.096 291.194, 576.204 295.075, 574.427 297 C 570.650 301.092, 566.402 311.467, 565.720 318.268 C 565.286 322.589, 565.499 323.219, 567.990 324.993 C 569.502 326.069, 571.963 327.416, 573.459 327.984 L 576.179 329.019 575.611 344.259 C 575.298 352.642, 574.764 362.132, 574.423 365.348 C 573.557 373.526, 575.629 378.388, 582.964 385.385 C 586.202 388.473, 589.559 391, 590.423 391 C 591.287 391, 593.717 392.556, 595.822 394.458 C 600.996 399.133, 604.299 400.289, 608.859 399.022 C 610.862 398.466, 614.412 398.009, 616.749 398.006 C 619.512 398.002, 624.056 396.639, 629.749 394.105 C 634.562 391.963, 639.625 389.887, 641 389.492 C 647.941 387.499, 656.021 380.158, 664 368.596 C 664.825 367.400, 666.737 364.822, 668.250 362.867 C 669.763 360.911, 671 358.932, 671 358.467 C 671 356.937, 675.477 351.014, 676.639 351.007 C 678.344 350.997, 679.201 344.653, 677.939 341.373 C 677.331 339.793, 676.221 335.350, 675.472 331.500 C 673.789 322.846, 671.343 314.142, 670.171 312.634 C 669.686 312.011, 668.756 309.319, 668.105 306.652 C 664.253 290.869, 650.318 272.758, 634.620 263.131 C 626.844 258.363, 625.389 257.842, 617.315 256.940 C 612.467 256.398, 607.150 255.557, 605.500 255.072 C 599.667 253.357, 598.064 253.219, 597.180 254.353" stroke="#8c6b55" fill="#8c6b55" fill-opacity="0.2" fill-rule="evenodd"/><path class="svg-region-IF" d="M 673.250 353.901 C 672.013 355.504, 670.988 357.420, 670.973 358.158 C 670.959 358.896, 668.221 362.875, 664.890 367 C 661.560 371.125, 658.367 375.400, 657.795 376.500 C 656.273 379.429, 651.807 384, 650.468 384 C 649.831 384, 648.512 384.881, 647.537 385.959 C 646.562 387.036, 643.482 388.676, 640.692 389.602 C 637.903 390.529, 632.443 392.728, 628.560 394.490 C 623.713 396.688, 619.301 397.873, 614.486 398.268 C 609.091 398.711, 605.524 399.786, 599.038 402.922 C 594.400 405.165, 589.765 407, 588.737 407 C 585.525 407, 583.188 408.867, 582.504 411.980 C 582.142 413.628, 581.431 415.234, 580.923 415.548 C 579.436 416.467, 579.864 420, 581.462 420 C 582.267 420, 585.304 419.128, 588.212 418.063 C 591.121 416.998, 598.292 414.748, 604.149 413.063 C 613.484 410.378, 616.323 410.002, 627.149 410.017 C 638.068 410.033, 651.597 411.569, 659 413.635 C 661.271 414.268, 665.296 416.403, 670.538 419.754 C 672.343 420.909, 680.671 425.046, 685.546 427.211 C 686.671 427.710, 691.006 431.355, 695.181 435.310 C 701.993 441.764, 702.895 443.063, 703.997 448 C 704.673 451.025, 705.621 454.525, 706.104 455.779 C 706.947 457.963, 707.086 457.989, 709.492 456.414 C 710.871 455.510, 712 454.449, 712 454.056 C 712 453.188, 718.127 443.714, 719.173 442.966 C 721.106 441.583, 729.707 419.816, 730.987 413.067 C 733.609 399.244, 731.003 381.151, 725.151 372.542 C 722.235 368.252, 713.802 361.204, 707.652 357.917 C 704.432 356.195, 695.269 354.168, 678.500 351.468 C 676.063 351.076, 675.078 351.532, 673.250 353.901" stroke="#f2823b" fill="#f2823b" fill-opacity="0.2" fill-rule="evenodd"/><path class="svg-region-PF" d="M 561.914 310.956 C 558.325 312.043, 554.466 314.591, 547.750 320.305 C 542.690 324.610, 542 325.636, 542.004 328.849 C 542.006 330.857, 542.922 333.999, 544.039 335.832 C 545.950 338.966, 546.309 339.124, 550.091 338.485 C 552.318 338.108, 556.925 338.364, 560.418 339.059 C 566.598 340.287, 566.794 340.259, 570.207 337.656 C 572.122 336.195, 574.209 335, 574.844 335 C 575.491 335, 575.980 333.568, 575.955 331.750 C 575.914 328.835, 575.372 328.242, 570.705 326 L 565.500 323.500 565.814 318.500 C 565.986 315.750, 566.354 312.712, 566.631 311.750 C 567.176 309.856, 566.125 309.679, 561.914 310.956 M 572.662 361.659 C 570.903 363.424, 569 369.403, 569 373.162 C 569 375.317, 568.100 378.844, 567 381 C 565.604 383.737, 565 386.894, 565 391.457 C 565 397.511, 565.256 398.278, 568.465 401.829 C 570.370 403.939, 573.769 406.494, 576.017 407.508 C 579.653 409.147, 580.680 409.210, 585.303 408.075 C 591.335 406.594, 604 401.070, 604 399.919 C 604 399.488, 602.987 398.820, 601.750 398.435 C 600.513 398.050, 597.811 396.219, 595.747 394.367 C 593.683 392.515, 591.301 391, 590.454 391 C 588.436 391, 579.587 382.687, 576.793 378.165 C 575.333 375.803, 574.417 372.313, 574.050 367.718 C 573.748 363.923, 573.123 361.196, 572.662 361.659" stroke="#faaaaa" fill="#faaaaa" fill-opacity="0.2" fill-rule="evenodd"/><path class="svg-region-AAB" d="M 640.703 413.028 C 639.972 415.823, 642.756 423.053, 645.257 424.855 C 646.897 426.037, 647.050 427.022, 646.453 432.592 C 645.846 438.264, 645.977 439.051, 647.635 439.664 C 650.321 440.658, 650.967 441.985, 650.985 446.542 C 650.998 450.007, 650.372 451.200, 646.601 454.901 C 644.182 457.275, 641.172 461.306, 639.912 463.859 C 635.578 472.642, 625.260 485.224, 620.187 487.912 C 618.916 488.586, 616.531 489.176, 614.889 489.222 C 613.119 489.273, 611.211 490.174, 610.202 491.437 C 609.266 492.609, 606.250 495.265, 603.500 497.341 C 597.327 502, 584.077 514.601, 578.783 520.847 C 576.614 523.406, 573.750 526.784, 572.419 528.353 C 569.591 531.687, 569.313 535.170, 571.684 537.541 C 573.138 538.995, 575.086 539.162, 585.934 538.762 C 596.483 538.373, 599.704 537.853, 606 535.519 C 616.964 531.454, 631.611 524.398, 651.200 513.744 C 660.715 508.569, 671.425 502.847, 675 501.029 C 683.077 496.920, 688.420 493.276, 693.191 488.620 C 697.104 484.802, 697.802 483.696, 703.545 472.216 C 707.604 464.102, 707.730 461.321, 704.604 449 C 703.070 442.958, 702.414 441.994, 695.291 435.319 C 691.076 431.370, 686.699 427.726, 685.564 427.221 C 679.890 424.696, 671.915 420.589, 666.826 417.571 C 659.837 413.426, 656.355 412.301, 647.893 411.457 C 641.636 410.833, 641.255 410.916, 640.703 413.028" stroke="#7f3c1a" fill="#7f3c1a" fill-opacity="0.2" fill-rule="evenodd"/><path class="svg-region-APB" d="M 603.500 413.156 C 596.350 415.331, 588.025 417.854, 585 418.763 C 571.206 422.910, 567.482 427.193, 555.441 452.766 L 547.782 469.032 545.869 487.266 C 544.816 497.295, 543.450 509.167, 542.832 513.648 C 541.474 523.505, 542.135 529.450, 544.918 532.413 C 546.063 533.632, 547 535.154, 547 535.795 C 547 537.461, 551.246 538.302, 556.227 537.622 C 558.577 537.302, 562.638 536.761, 565.250 536.419 C 569.424 535.874, 570 535.508, 570 533.399 C 570 532.080, 570.788 530.198, 571.750 529.217 C 572.712 528.236, 574.767 525.753, 576.315 523.699 C 580.724 517.848, 597.859 501.340, 603.697 497.320 C 611.811 491.732, 612.251 490.659, 612.061 476.913 C 611.937 467.943, 612.272 464.375, 613.449 462.098 C 614.302 460.449, 615.010 456.714, 615.022 453.800 C 615.049 447.318, 616.152 445.859, 625.672 439.700 C 633.333 434.744, 636 431.834, 636 428.432 C 636 425.967, 638.910 423, 641.329 423 C 643.308 423, 643.376 422.571, 641.845 419.710 C 641.210 418.523, 640.756 415.853, 640.838 413.776 L 640.986 410 630.075 410 C 624.074 410, 618.564 409.821, 617.832 409.601 C 617.099 409.382, 610.650 410.982, 603.500 413.156" stroke="#ac7444" fill="#ac7444" fill-opacity="0.2" fill-rule="evenodd"/><path class="svg-region-PC" d="M 541.293 408.609 C 539.757 410.594, 536.453 414.756, 533.952 417.859 C 527.073 426.392, 521.938 433.919, 519.917 438.435 L 518.098 442.496 521.299 444.001 C 525.246 445.858, 525.842 449.203, 523.035 453.750 C 521.166 456.778, 520.655 457, 515.540 457 C 510.548 457, 509.928 457.249, 508.693 459.750 C 507.933 461.288, 507.220 466.468, 507.075 471.500 C 506.932 476.450, 506.180 482.023, 505.402 483.884 C 504.059 487.102, 504.138 487.492, 506.995 491.806 C 508.648 494.301, 510 496.846, 510 497.460 C 510 498.896, 512.770 504.176, 516.811 510.446 C 518.565 513.166, 520 515.996, 520 516.736 C 520 518.637, 523.566 525.395, 525.351 526.876 C 526.661 527.964, 526.670 528.545, 525.424 531.527 C 523.433 536.292, 523.554 536.695, 527.540 538.586 C 531.384 540.410, 539.612 540.045, 544.462 537.835 C 547.585 536.412, 547.642 535.311, 544.750 532.236 C 541.562 528.844, 541.719 522.841, 546.021 483.804 C 547.617 469.322, 548.153 467.708, 558.109 447.441 C 562.999 437.486, 567 428.997, 567 428.575 C 567 428.154, 566.162 426.614, 565.139 425.154 C 564.115 423.694, 562.737 420.834, 562.077 418.798 C 561.417 416.762, 558.744 412.824, 556.137 410.048 C 552.120 405.769, 550.841 405, 547.742 405 C 544.724 405, 543.597 405.631, 541.293 408.609" stroke="#cda789" fill="#cda789" fill-opacity="0.2" fill-rule="evenodd"/><path class="svg-region-DB" d="M 412.630 419.441 C 411.751 420.784, 408.886 423.345, 406.265 425.133 C 403.644 426.921, 401.353 428.739, 401.173 429.174 C 400.992 429.609, 398.967 430.444, 396.673 431.030 C 394.378 431.616, 390.410 433.201, 387.856 434.552 C 385.302 435.903, 381.027 437.261, 378.356 437.569 C 369.391 438.603, 369 438.785, 369 441.937 C 369 446.161, 373.478 454.441, 376.511 455.823 C 377.932 456.470, 380.375 457, 381.940 457 C 383.505 457, 385.031 457.637, 385.329 458.416 C 385.628 459.195, 389.345 462.795, 393.589 466.416 L 401.305 473 408.403 472.965 C 412.660 472.943, 416.500 472.357, 418 471.500 C 422.250 469.070, 433.916 469.597, 442.269 472.596 C 446.246 474.024, 451.075 475.577, 453 476.047 C 456.585 476.923, 464.699 484.784, 467.530 490.124 C 468.915 492.737, 475.940 499.042, 481.336 502.517 L 484.172 504.342 487.535 500.671 C 489.385 498.652, 491.140 497, 491.436 497 C 491.731 497, 493.475 495.361, 495.310 493.359 L 498.647 489.717 492.738 478.109 C 487.181 467.190, 486.859 466.173, 487.323 461 C 487.595 457.975, 488.151 454.428, 488.560 453.117 L 489.303 450.735 482.859 451.425 C 477.185 452.032, 476.092 451.860, 473.708 449.985 C 472.218 448.813, 471 447.094, 471 446.165 C 471 444.889, 468.369 443.664, 460.250 441.162 C 445.282 436.549, 427.347 427.362, 419.427 420.250 C 415.089 416.355, 414.684 416.307, 412.630 419.441" stroke="#e8b1e4" fill="#e8b1e4" fill-opacity="0.2" fill-rule="evenodd"/><path class="svg-region-MB" d="M 376.485 457.719 C 376.883 458.699, 377.571 460.625, 378.015 462 C 378.458 463.375, 379.986 466.860, 381.410 469.745 C 382.902 472.766, 384.026 476.795, 384.062 479.245 C 384.177 487.183, 386.444 496.410, 388.550 497.508 C 393.268 499.967, 395.853 502.277, 396.421 504.540 C 396.757 505.879, 398.150 507.707, 399.516 508.602 C 400.882 509.498, 402 510.671, 402 511.211 C 402 513.969, 407.043 518.425, 416.255 523.807 C 432.992 533.585, 441.598 537.277, 455 540.431 C 458.025 541.142, 466.089 543.187, 472.919 544.975 C 488 548.922, 492.183 548.683, 498.843 543.495 C 501.310 541.573, 504.492 539.980, 505.914 539.956 C 508.357 539.914, 508.301 539.806, 504.900 538.009 C 502.919 536.962, 500.620 535.069, 499.790 533.803 C 498.959 532.536, 496.596 530.892, 494.539 530.149 C 487.044 527.442, 484.005 522.156, 483.988 511.800 L 483.976 504.500 477.318 499.495 C 473.656 496.743, 469.096 492.268, 467.186 489.552 C 462.091 482.309, 455.532 476, 453.097 476 C 451.929 476, 450.191 475.574, 449.236 475.053 C 440.732 470.417, 423.353 468.440, 418 471.500 C 416.546 472.331, 412.718 472.944, 408.849 472.965 C 402.504 472.998, 401.925 472.795, 396.252 468.530 C 392.982 466.072, 389 462.543, 387.403 460.687 C 385.254 458.190, 383.366 457.135, 380.131 456.626 C 376.201 456.007, 375.835 456.117, 376.485 457.719" stroke="#f9c6c6" fill="#f9c6c6" fill-opacity="0.2" fill-rule="evenodd"/><path class="svg-region-AP" d="M 548.571 600.571 C 546.629 602.514, 546.630 602.788, 548.598 610.356 C 549.872 615.254, 550.077 619.541, 549.611 631.500 C 549.290 639.750, 548.740 657.442, 548.389 670.816 L 547.752 695.132 550.268 697.816 C 554.799 702.650, 557.390 718.288, 555.850 731.500 L 555.500 734.500 563.836 734.792 C 573.367 735.125, 578.884 737.720, 581.834 743.257 C 582.750 744.976, 585.332 748.434, 587.570 750.942 C 592.844 756.847, 596 761.449, 596 763.230 C 596 764.914, 591.883 769, 590.186 769 C 588.504 769, 588.677 769.631, 591.500 773.785 C 592.875 775.809, 594 778.035, 594 778.732 C 594 780.336, 594.505 780.324, 600 778.588 C 602.475 777.806, 608.100 776.416, 612.500 775.498 C 616.900 774.581, 623.103 773.240, 626.285 772.518 C 629.467 771.796, 632.988 771.446, 634.109 771.739 C 635.230 772.032, 638.702 771.571, 641.824 770.714 C 649.665 768.563, 669.416 764, 670.890 764 C 671.555 764, 676.127 762.594, 681.050 760.875 C 690.950 757.417, 691.484 756.634, 687.500 751.411 C 686.125 749.608, 685 746.978, 685 745.567 C 685 743.215, 684.645 743, 680.750 742.994 C 674.025 742.986, 668.803 741.071, 665.262 737.316 C 662.504 734.392, 662 733.109, 662 729.014 C 662 724.927, 662.469 723.727, 665 721.338 C 666.650 719.781, 668 717.943, 668 717.253 C 668 716.564, 669.013 715.997, 670.250 715.993 C 672.835 715.986, 675.890 714.016, 681.331 708.848 C 683.438 706.847, 687.038 704.514, 689.331 703.664 C 695.606 701.336, 713.668 697, 717.088 697 C 720.633 697, 724.920 692.749, 724.968 689.184 C 725.011 686.078, 723.267 683, 721.465 683 C 720.659 683, 720 682.580, 720 682.067 C 720 681.554, 719.212 680.881, 718.250 680.570 C 715.002 679.522, 713 674.316, 713 666.919 L 713 660 708.750 659.978 C 706.413 659.966, 702.587 659.088, 700.250 658.027 L 696 656.098 696 650.203 C 696 644.407, 693.839 638, 691.884 638 C 691.351 638, 688.497 636.214, 685.543 634.032 C 679.735 629.741, 679.185 627.385, 683.314 624.492 C 685.878 622.697, 685.673 622.511, 679.500 621.050 C 669.812 618.756, 670.454 618.093, 670.841 630 C 671.061 636.789, 671.680 641.283, 672.591 642.715 C 674.620 645.904, 674.388 653.299, 672.174 656.033 C 669.485 659.354, 664.018 658.066, 658.643 652.844 C 650.983 645.403, 641.080 640, 635.100 640 C 634.093 640, 632.197 639.169, 630.885 638.152 C 629.573 637.136, 627.150 635.980, 625.500 635.583 C 623.850 635.186, 619.948 633.722, 616.830 632.329 C 612.546 630.418, 610.843 629.028, 609.866 626.649 C 609.155 624.917, 607.544 621.975, 606.286 620.110 C 603.599 616.126, 603.368 612.347, 605.616 609.138 C 606.504 607.870, 606.842 606.490, 606.366 606.073 C 604.186 604.163, 585.039 600.990, 569.973 600.041 C 549.259 598.736, 550.436 598.707, 548.571 600.571" stroke="#fc7143" fill="#fc7143" fill-opacity="0.2" fill-rule="evenodd"/><path class="svg-region-PP" d="M 465 589.985 C 449.263 590.384, 437.081 591.133, 435.007 591.828 C 433.085 592.473, 429.710 593.016, 427.507 593.036 C 415.697 593.141, 390.801 603.176, 384.112 610.527 C 380.146 614.885, 379.452 616.395, 376.997 626.012 C 375.534 631.741, 374.983 636.355, 375.271 640.464 C 375.915 649.659, 378.785 663.271, 381.218 668.666 C 382.898 672.392, 383.479 675.907, 383.753 684 C 383.948 689.775, 384.487 695.400, 384.951 696.500 C 385.415 697.600, 386.324 701.089, 386.970 704.254 C 388.087 709.721, 390.667 713, 392.450 711.217 C 392.842 710.825, 399.313 710.183, 406.831 709.790 C 420.335 709.085, 425.970 708.313, 435.255 705.898 C 439.671 704.749, 440.175 704.816, 442.319 706.830 C 443.590 708.024, 445.205 709, 445.910 709 C 447.548 709, 453.011 712.837, 455.127 715.473 C 456.529 717.220, 458.128 717.542, 466.696 717.807 C 472.164 717.976, 479.532 718.841, 483.069 719.730 C 491.709 721.903, 505.913 721.840, 507.535 719.622 C 509.788 716.541, 522.001 718.076, 524.300 721.729 C 524.740 722.428, 525.570 723, 526.145 723 C 526.721 723, 528.390 723.853, 529.855 724.897 C 531.320 725.940, 534.539 727.334, 537.009 727.996 C 539.479 728.657, 542.625 729.772, 544 730.472 C 546.942 731.971, 553.913 735, 554.420 735 C 555.293 735, 556.270 727.848, 556.334 721 C 556.419 711.862, 553.709 701.510, 550.267 697.824 L 547.768 695.149 548.392 671.324 C 548.735 658.221, 549.283 640.236, 549.610 631.358 C 550.095 618.195, 549.909 614.198, 548.600 609.696 C 547.028 604.290, 547.281 601.250, 549.427 599.750 C 550.925 598.703, 548.176 597.035, 544.918 597.015 C 543.499 597.007, 539.449 596.158, 535.918 595.128 C 516.221 589.385, 509.090 588.868, 465 589.985" stroke="#c4743d" fill="#c4743d" fill-opacity="0.2" fill-rule="evenodd"/><path class="svg-region-LPl" d="M 607.184 607.033 C 605.995 608.309, 604.750 610.212, 604.416 611.263 C 603.545 614.010, 604.789 619.580, 606.612 621.093 C 607.469 621.805, 608.848 624.079, 609.676 626.148 C 611.166 629.872, 615.330 632.690, 622 634.489 C 623.375 634.860, 626.750 636.197, 629.500 637.459 C 632.250 638.722, 637.200 640.543, 640.500 641.505 C 647.086 643.426, 652.306 646.688, 658.643 652.844 C 664.018 658.066, 669.485 659.354, 672.174 656.033 C 674.375 653.315, 674.612 646.107, 672.629 642.200 C 671.875 640.715, 671.037 635.100, 670.767 629.723 C 670.366 621.748, 670.550 619.792, 671.762 619.113 C 672.991 618.426, 672.837 617.991, 670.874 616.607 C 658.915 608.174, 654.513 606.661, 641.500 606.509 C 636 606.444, 626.515 606.014, 620.422 605.553 C 609.604 604.734, 609.294 604.768, 607.184 607.033" stroke="#d2454f" fill="#d2454f" fill-opacity="0.2" fill-rule="evenodd"/><path class="svg-region-ADCl" d="M 720.188 607.395 C 717.334 610.412, 715 613.376, 715 613.982 C 715 615.814, 711.702 618.634, 708.159 619.831 C 706.114 620.521, 701.981 620.719, 697.502 620.341 C 691.051 619.795, 689.761 619.985, 686.592 621.943 C 683.191 624.045, 680 627.554, 680 629.191 C 680 630.146, 690.596 638, 691.884 638 C 693.839 638, 696 644.407, 696 650.203 L 696 656.098 700.250 658.027 C 703.489 659.497, 706.788 659.961, 714.120 659.978 L 723.741 660 730.586 653.250 C 737.758 646.177, 739.437 642.773, 740.665 632.808 C 741.171 628.705, 740.832 627.451, 737.964 622.808 C 736.160 619.889, 733.515 614.125, 732.086 610 C 728.717 600.273, 727.231 599.948, 720.188 607.395" stroke="#54413e" fill="#54413e" fill-opacity="0.2" fill-rule="evenodd"/><path class="svg-region-DMl" d="M 433 706.211 C 429.080 707.910, 420.605 709.061, 406.500 709.810 C 388.928 710.743, 389.006 710.682, 389.408 722.989 C 389.611 729.231, 390.272 733.624, 391.307 735.628 C 392.181 737.316, 393.416 740.765, 394.052 743.292 C 395.349 748.444, 396.268 748.893, 406 749.130 C 412.127 749.280, 417.292 751.023, 419.823 753.796 C 420.745 754.807, 423.975 756.424, 427 757.390 C 430.025 758.356, 434.525 759.971, 437 760.980 C 443.019 763.434, 451.807 765.270, 455.500 764.845 L 458.500 764.500 458.786 755.921 C 459.050 748.013, 458.835 746.890, 456.036 741.569 C 452.432 734.718, 452.185 730.096, 455.074 723.565 C 456.981 719.255, 457.023 718.684, 455.595 716.504 C 453.616 713.484, 447.770 709, 445.811 709 C 444.985 709, 443.495 708.100, 442.500 707 C 440.524 704.817, 436.908 704.517, 433 706.211" stroke="#68533d" fill="#68533d" fill-opacity="0.2" fill-rule="evenodd"/><path class="svg-region-VMl" d="M 507.692 719.361 C 507.370 720.200, 504.735 720.984, 500.835 721.403 C 494.190 722.116, 482.906 725.397, 479.500 727.605 C 475.877 729.954, 464.304 733.891, 462.383 733.428 C 461.347 733.178, 459.829 733.411, 459.008 733.945 C 457.423 734.978, 457.425 734.891, 458.551 756.194 L 459.169 767.888 464.634 772.013 C 470.351 776.330, 471.734 778.606, 474.649 788.500 C 477.210 797.190, 481.616 801.505, 490.497 804.019 C 494.345 805.109, 499.520 805.993, 501.997 805.985 C 512.187 805.952, 526.280 800.860, 534.642 794.190 C 536.764 792.498, 542.784 788.894, 548.020 786.181 C 556.507 781.784, 558.459 781.178, 566.020 780.594 C 570.684 780.234, 577.087 779.410, 580.250 778.763 C 585.857 777.617, 586 777.505, 586 774.272 C 586 771.606, 586.538 770.728, 588.750 769.788 C 592.417 768.228, 596 764.988, 596 763.230 C 596 761.449, 592.844 756.847, 587.570 750.942 C 585.332 748.434, 582.750 744.976, 581.834 743.257 C 580.918 741.538, 578.339 738.977, 576.104 737.566 C 572.510 735.297, 570.967 734.996, 562.770 734.968 C 556.208 734.946, 552.933 734.507, 551.559 733.468 C 550.491 732.661, 548.605 732, 547.368 732 C 546.130 732, 544.844 731.556, 544.508 731.013 C 544.173 730.470, 541.442 729.312, 538.440 728.440 C 535.439 727.567, 530.846 725.424, 528.236 723.677 C 525.625 721.929, 522.233 719.938, 520.697 719.250 C 516.873 717.538, 508.363 717.610, 507.692 719.361" stroke="#e59376" fill="#e59376" fill-opacity="0.2" fill-rule="evenodd"/><path class="svg-region-PMl" d="M 250.097 723.036 C 242.745 727.619, 240.758 732.646, 243.881 738.766 C 246.903 744.691, 249.046 745.602, 261.733 746.361 C 272.159 746.985, 273.112 746.888, 274.983 745.017 C 277.664 742.336, 277.670 735.235, 274.997 729.994 C 272.772 725.632, 271.283 724.593, 264.880 722.933 C 256.546 720.771, 253.697 720.791, 250.097 723.036" stroke="#90cf92" fill="#90cf92" fill-opacity="0.2" fill-rule="evenodd"/><path class="svg-region-PV" d="M 366.540 601.244 C 367.456 603.632, 365.146 608.077, 360.723 612.435 C 354.954 618.120, 353.325 618.598, 350.241 615.514 C 348.858 614.130, 345.875 612.507, 343.613 611.907 C 341.351 611.307, 336.570 609.704, 332.990 608.345 C 328.064 606.476, 324.390 605.846, 317.895 605.757 C 303.738 605.564, 292.845 610.751, 287.986 620 C 286.260 623.285, 282.760 627.657, 277.848 632.665 C 276.680 633.855, 274.153 635.124, 272.232 635.484 C 270.311 635.845, 267.094 637.178, 265.083 638.447 C 261.428 640.755, 252.637 645, 251.514 645 C 251.187 645, 249.698 645.903, 248.205 647.007 C 246.712 648.111, 242.680 649.509, 239.245 650.114 C 235.810 650.719, 233 651.572, 233 652.009 C 233 652.446, 231.583 653.298, 229.852 653.902 C 227.369 654.767, 226.068 654.681, 223.690 653.495 C 222.032 652.668, 220.607 652.106, 220.524 652.246 C 218.839 655.071, 212.430 662, 211.502 662 C 209.050 662, 207.796 665.040, 206.874 673.219 C 205.497 685.436, 205.648 687.159, 209.895 707.657 C 212.188 718.722, 212.517 724.165, 211.058 726.892 C 209.695 729.439, 212.248 736.223, 215.139 737.735 C 216.438 738.415, 218.992 738.977, 220.815 738.985 C 222.638 738.993, 226.354 739.957, 229.074 741.127 C 233.249 742.923, 234.485 744.128, 237.023 748.877 C 240.559 755.495, 245.648 761.122, 251.357 764.725 C 253.614 766.150, 256.300 768.382, 257.325 769.686 C 258.350 770.989, 260.986 772.972, 263.181 774.092 C 266.604 775.839, 268.551 776.068, 276.837 775.702 C 288.274 775.197, 292.238 774.290, 301.237 770.116 C 304.943 768.398, 308.318 767.075, 308.737 767.178 C 309.858 767.451, 318.342 764.801, 319.450 763.831 C 319.973 763.374, 321.928 763, 323.795 763 C 325.662 763, 330.409 762.078, 334.345 760.951 C 338.280 759.824, 343.300 758.424, 345.500 757.839 C 347.700 757.255, 351.075 755.971, 353 754.987 C 355.707 753.602, 359.897 753.067, 371.500 752.625 C 389.418 751.941, 397.196 750.941, 397.754 749.250 C 397.981 748.563, 397.508 748, 396.702 748 C 395.794 748, 394.793 746.234, 394.066 743.349 C 393.422 740.791, 392.217 737.387, 391.389 735.786 C 389.475 732.085, 388.643 713.839, 390.340 712.790 C 391.143 712.294, 390.962 711.690, 389.740 710.789 C 387.300 708.992, 384.893 697.690, 384.034 684 C 383.523 675.852, 382.773 671.480, 381.462 669 C 380.445 667.075, 378.706 661.225, 377.598 656 C 375.147 644.447, 375.104 622.792, 377.517 615.952 C 378.333 613.640, 379 609.551, 379 606.866 L 379 601.983 373.452 602.635 C 369.226 603.131, 367.975 602.984, 368.202 602.018 C 368.366 601.321, 367.937 600.544, 367.249 600.291 C 366.495 600.015, 366.214 600.393, 366.540 601.244 M 250.500 722.861 C 246.642 725.244, 244.410 727.791, 243.053 731.360 C 242.154 733.726, 242.344 734.969, 244.162 738.610 C 245.369 741.026, 247.289 743.607, 248.428 744.345 C 249.657 745.141, 255.059 745.944, 261.698 746.317 L 272.896 746.947 274.948 744.339 C 277.582 740.990, 277.579 735.828, 274.940 730.375 C 273.244 726.872, 272.050 725.827, 268.190 724.464 C 265.610 723.553, 262.466 722.401, 261.203 721.904 C 257.621 720.494, 253.774 720.838, 250.500 722.861" stroke="#b09658" fill="#b09658" fill-opacity="0.2" fill-rule="evenodd"/><path class="svg-region-Fl" d="M 288.500 574.046 C 281.844 574.782, 264.435 579.766, 254.231 583.858 C 236.428 590.995, 238.144 589.821, 231.331 599.520 C 223.614 610.505, 222.360 613.200, 219.945 624 C 216.452 639.615, 217.803 650.502, 223.622 653.636 C 226.327 655.093, 227.221 655.151, 229.889 654.046 C 231.600 653.337, 233 652.390, 233 651.940 C 233 651.490, 235.137 650.820, 237.750 650.449 C 242.344 649.798, 260.867 641.622, 266.034 637.965 C 267.427 636.979, 270.178 635.870, 272.146 635.500 C 274.114 635.131, 276.657 633.855, 277.797 632.665 C 278.936 631.474, 281.209 629.091, 282.847 627.369 C 284.485 625.647, 286.522 622.890, 287.374 621.244 C 289.419 617.289, 296.008 610, 297.537 610 C 298.202 610, 300.935 609.032, 303.611 607.848 C 310.820 604.659, 323.623 604.912, 332.383 608.416 C 335.935 609.837, 339.682 611, 340.709 611 C 343.236 611, 350.219 614.640, 351.259 616.499 C 352.733 619.133, 355.079 618.139, 360.575 612.555 C 367.341 605.680, 368.048 603.182, 364.671 598.079 C 362.140 594.255, 358.096 591.363, 348.634 586.611 C 345.958 585.267, 342.358 582.840, 340.634 581.218 C 333.094 574.122, 312.914 571.345, 288.500 574.046" stroke="#5ca7a9" fill="#5ca7a9" fill-opacity="0.2" fill-rule="evenodd"/><path class="svg-region-B" d="M 811.500 494.432 C 808.200 495.133, 804.375 496.167, 803 496.729 C 801.625 497.291, 796.450 498.550, 791.500 499.526 C 781.397 501.518, 775.228 503.891, 772.993 506.644 C 772.164 507.665, 770.198 511.544, 768.625 515.264 C 767.051 518.985, 765.363 522.276, 764.874 522.578 C 764.385 522.880, 761.716 527.711, 758.942 533.314 C 756.168 538.916, 753.471 543.928, 752.949 544.450 C 752.427 544.972, 751.993 546.322, 751.985 547.450 C 751.977 548.577, 751.336 551.300, 750.560 553.500 C 748.077 560.541, 736.424 582, 735.084 582 C 734.661 582, 733.457 583.688, 732.407 585.750 C 731.358 587.813, 730.237 589.725, 729.915 590 C 729.306 590.520, 724 601.903, 724 602.688 C 724 602.934, 724.788 602.890, 725.750 602.590 C 728.553 601.718, 729.678 603.086, 731.954 610.131 C 733.132 613.776, 735.355 618.745, 736.894 621.172 C 739.751 625.677, 742.779 634.172, 745.031 644 C 745.724 647.025, 747.582 652.180, 749.159 655.455 C 750.737 658.731, 752.485 664.278, 753.045 667.783 C 753.605 671.287, 754.700 676.002, 755.478 678.260 C 756.256 680.518, 756.666 682.731, 756.390 683.177 C 755.444 684.709, 761.505 689.873, 769 693.921 C 775.891 697.643, 777.122 697.973, 784.158 697.986 L 791.816 698 796.408 702.463 C 799.525 705.492, 801 707.754, 801 709.506 C 801 712.783, 810.676 723, 813.780 723 C 816.501 723, 821 720.964, 821 719.733 C 821 718.304, 830.866 710.904, 835.434 708.908 C 836.570 708.411, 838.288 707.554, 839.250 707.002 C 840.212 706.451, 841.608 705.663, 842.350 705.250 C 843.093 704.837, 845.456 703.340, 847.600 701.921 C 849.745 700.503, 854.425 697.758, 858 695.822 C 865.920 691.532, 876.288 685.423, 880.505 682.562 C 882.221 681.397, 885.622 679.810, 888.062 679.036 C 890.503 678.261, 893.694 676.811, 895.154 675.814 C 896.614 674.816, 898.527 674, 899.404 674 C 900.282 674, 901 673.563, 901 673.029 C 901 672.495, 902.411 670.056, 904.136 667.610 C 906.339 664.484, 907.662 660.981, 908.583 655.830 C 910.858 643.115, 910.589 641.237, 905.869 636.879 C 903.340 634.544, 899.732 632.483, 896.561 631.561 C 889.404 629.480, 883.582 625.310, 880.042 619.727 C 877.560 615.814, 876.270 614.797, 872.511 613.792 C 868.859 612.815, 867.094 611.481, 863.464 606.955 C 857.891 600.006, 854.823 594.134, 855.557 591.821 C 856.625 588.457, 854.044 578.977, 849.418 569.275 C 846.826 563.839, 844.444 557.175, 844.048 554.253 C 843.656 551.365, 843.076 548.743, 842.759 548.426 C 842.443 548.110, 843.043 544.848, 844.092 541.178 C 845.191 537.335, 846 531.390, 846 527.158 C 846 518.661, 845.619 517.959, 834.363 505.727 C 822.652 492.999, 821.326 492.344, 811.500 494.432" stroke="#e23b33" fill="#e23b33" fill-opacity="0.2" fill-rule="evenodd"/><path class="svg-region-SB" d="M 898.500 157.057 C 894.650 157.562, 889.475 158.835, 887 159.884 C 884.525 160.934, 879.399 163.042, 875.609 164.569 C 871.819 166.096, 866.644 168.838, 864.109 170.664 C 861.574 172.489, 857.025 175.729, 854 177.864 C 846.736 182.990, 839.630 189.781, 837.637 193.500 C 833.009 202.140, 831 210.144, 831 219.941 C 831 232.750, 833.217 239.548, 839.974 247.457 C 848.788 257.774, 855.169 261.749, 864.456 262.708 C 868.817 263.158, 870.789 262.786, 875.518 260.620 C 880.745 258.227, 882.501 257.972, 894.634 257.835 C 911.734 257.643, 911.466 257.443, 912.360 271.077 C 913.131 282.849, 914.633 286.401, 921.669 293.098 C 927.400 298.553, 940.492 306.127, 947.486 308.033 C 954.347 309.903, 980.736 309.948, 988 308.102 C 994.666 306.408, 1002.776 301.993, 1005.971 298.319 C 1011.322 292.165, 1020.772 279.231, 1022.643 275.500 C 1024.555 271.687, 1025.550 268.364, 1027.938 257.807 C 1028.522 255.226, 1029 246.500, 1029 238.415 C 1029 226.409, 1028.617 222.430, 1026.910 216.696 C 1023.559 205.446, 1017.762 196.147, 1009.350 188.528 C 999.714 179.801, 994.976 176.701, 980.500 169.648 C 973.900 166.432, 966.721 162.865, 964.546 161.722 C 956.968 157.737, 950.496 156.820, 927.500 156.471 C 915.400 156.288, 902.350 156.551, 898.500 157.057" stroke="#d2e400" fill="#d2e400" fill-opacity="0.2" fill-rule="evenodd"/><path class="svg-region-VOC" d="M 495.858 492.709 C 484.355 502.818, 484 503.383, 484 511.561 C 484 515.581, 484.411 519.950, 484.913 521.271 C 486.292 524.899, 491.613 529.756, 495.031 530.507 C 496.701 530.874, 498.794 532.283, 499.682 533.638 C 502.991 538.688, 510.142 540.252, 519.338 537.937 C 523.055 537, 523.744 536.367, 525.080 532.649 C 526.570 528.507, 526.545 528.349, 523.797 524.560 C 522.256 522.435, 520.552 519.077, 520.010 517.098 C 519.468 515.119, 518.006 511.949, 516.762 510.053 C 513.036 504.376, 510 498.759, 510 497.543 C 510 495.332, 504.533 488, 502.885 488 C 501.967 488, 498.805 490.119, 495.858 492.709" stroke="#ff8f93" fill="#ff8f93" fill-opacity="0.2" fill-rule="evenodd"/><path class="svg-region-OABl" d="M 637.784 424.359 C 636.935 425.207, 635.945 427.480, 635.583 429.409 C 634.941 432.830, 629.051 439, 626.427 439 C 625.813 439, 624.495 439.900, 623.500 441 C 622.505 442.100, 621.115 443, 620.413 443 C 617.916 443, 615 448.623, 615 453.436 C 615 455.982, 614.325 459.680, 613.500 461.654 C 611.562 466.292, 611.369 487.234, 613.250 488.788 C 617.500 492.299, 632.003 479.469, 638.580 466.381 C 640.548 462.465, 644.147 457.309, 646.579 454.923 C 650.423 451.150, 651 450.033, 651 446.363 C 651 442.371, 649.136 439, 646.929 439 C 645.757 439, 645.729 434.433, 646.876 430.434 C 647.970 426.619, 646.417 424.233, 642.306 423.411 C 640.303 423.011, 638.822 423.321, 637.784 424.359" stroke="#81244d" fill="#81244d" fill-opacity="0.2" fill-rule="evenodd"/><path class="svg-region-SOTl" d="M 476.250 435.511 C 470.167 443.006, 469.470 446.652, 473.514 449.833 C 475.803 451.633, 477.104 451.761, 488.042 451.257 C 499.134 450.746, 500.226 450.858, 502.278 452.727 C 506.007 456.122, 508.610 457, 514.949 457 C 520.736 457, 521.125 456.843, 523.011 453.750 C 526.561 447.927, 525.804 445.850, 518.997 442.741 C 515.695 441.234, 512.537 440, 511.979 440 C 511.420 440, 508.640 438.785, 505.801 437.301 C 502.484 435.566, 498.538 434.450, 494.761 434.176 C 489.939 433.828, 488.603 433.324, 487.327 431.376 C 484.726 427.406, 482.003 428.423, 476.250 435.511" stroke="#995b45" fill="#995b45" fill-opacity="0.2" fill-rule="evenodd"/><path class="svg-region-BPCl" d="M 741.044 633 C 740.981 634.375, 740.286 636.625, 739.500 638 C 738.714 639.375, 738.055 641.679, 738.035 643.120 C 738.010 645.021, 736.021 647.696, 730.785 652.870 C 723.670 659.900, 723.496 660, 718.285 660 L 713 660 713 666.919 C 713 674.316, 715.002 679.522, 718.250 680.570 C 719.212 680.881, 720 681.554, 720 682.067 C 720 682.580, 720.659 683, 721.465 683 C 723.121 683, 725 685.989, 725 688.622 C 725 689.587, 723.987 691.864, 722.750 693.681 C 720.999 696.253, 719.794 696.988, 717.319 696.993 C 713.374 697.002, 690.588 702.645, 686.993 704.504 C 685.540 705.255, 682.842 707.280, 680.998 709.002 C 675.189 714.428, 672.801 716, 670.365 716 C 669.064 716, 668 716.564, 668 717.253 C 668 717.943, 666.650 719.781, 665 721.338 C 662.456 723.739, 662 724.918, 662 729.093 C 662 732.984, 662.547 734.631, 664.607 736.943 C 667.977 740.725, 673.766 743, 680.020 743 C 684.641 743, 685 743.177, 685 745.456 C 685 746.806, 686.125 749.569, 687.500 751.595 C 688.875 753.621, 690 756.164, 690 757.247 C 690 758.744, 690.418 759.032, 691.750 758.452 C 692.712 758.033, 696.425 757.368, 700 756.973 C 704.348 756.494, 708.817 755.095, 713.500 752.748 C 721.912 748.531, 750.921 740.528, 763.500 738.953 C 768.450 738.334, 774.660 737.416, 777.299 736.913 C 779.939 736.411, 785.600 736, 789.880 736 C 797.093 736, 797.757 735.823, 798.960 733.575 C 799.730 732.136, 802.647 730.114, 806.129 728.603 C 809.358 727.203, 812 725.449, 812 724.705 C 812 723.962, 809.525 720.818, 806.500 717.720 C 802.567 713.692, 801 711.313, 801 709.372 C 801 707.458, 799.667 705.380, 796.482 702.329 C 791.966 698.001, 791.963 698, 784.379 698 C 777.590 698, 776.065 697.618, 769.874 694.364 C 762.429 690.452, 755.438 684.719, 756.338 683.263 C 756.643 682.769, 756.256 680.518, 755.478 678.260 C 754.700 676.002, 753.583 671.151, 752.997 667.480 C 752.410 663.809, 750.673 658.262, 749.136 655.153 C 747.598 652.044, 745.767 646.800, 745.066 643.500 C 744.364 640.200, 743.421 636.600, 742.968 635.500 C 742.516 634.400, 741.924 632.825, 741.652 632 C 741.370 631.143, 741.109 631.572, 741.044 633 M 458.106 717.913 C 454.090 720.457, 451.862 733.932, 454.598 739.129 L 456.373 742.500 457.319 738.500 C 458.502 733.499, 458.215 733.761, 462.805 733.502 C 464.926 733.382, 470.450 731.603, 475.081 729.548 C 479.711 727.492, 485.730 725.118, 488.455 724.270 L 493.410 722.730 488.787 720.914 C 486.245 719.915, 480.641 718.836, 476.333 718.516 C 472.025 718.196, 466.475 717.730, 464 717.482 C 461.525 717.233, 458.873 717.427, 458.106 717.913" stroke="#83385f" fill="#83385f" fill-opacity="0.2" fill-rule="evenodd"/>
    </svg>