<svg xmlns="http://www.w3.org/2000/svg" width="1078" height="1151" viewBox="0 0 1078 1151" version="1.1">
    <path class="svg-region-V" d="M 480.500 204.021 C 478.850 204.429, 474.797 204.817, 471.493 204.882 C 461.092 205.087, 449.383 209.871, 443.533 216.307 C 441.315 218.747, 437.250 222.361, 434.500 224.338 C 428.878 228.379, 426.971 230.370, 421.980 237.408 C 420.066 240.108, 416.893 243.933, 414.928 245.908 C 412.964 247.884, 410.613 250.703, 409.705 252.174 C 408.797 253.645, 407.141 255.138, 406.027 255.492 C 404.912 255.845, 404 256.639, 404 257.255 C 404 257.871, 401.993 260.930, 399.541 264.052 C 397.088 267.174, 394.506 271.027, 393.804 272.614 C 393.101 274.201, 390.243 278.297, 387.453 281.715 C 384.662 285.133, 380.831 290.673, 378.939 294.026 C 377.048 297.379, 374.486 301.692, 373.247 303.610 C 370.177 308.362, 364.112 326.619, 363.065 334.260 C 362.595 337.692, 361.498 343.685, 360.628 347.577 C 359.590 352.217, 358.977 360.481, 358.846 371.577 C 358.641 388.900, 359.208 392.908, 363.080 401.500 C 364.072 403.700, 365.186 406.749, 365.556 408.276 C 365.927 409.803, 367.073 411.504, 368.103 412.055 C 369.133 412.607, 370.849 414.974, 371.916 417.316 C 374.680 423.384, 380.991 426.489, 390.500 426.461 C 395.849 426.445, 398.533 425.897, 401.879 424.134 C 407.748 421.043, 414.078 414.160, 417.951 406.657 C 419.699 403.271, 422.479 398.025, 424.129 395 C 425.779 391.975, 428.219 386.648, 429.552 383.163 C 430.885 379.677, 433.259 374.952, 434.828 372.663 C 450.894 349.210, 453.889 345.827, 463.675 340.076 C 466.879 338.193, 471.750 335.230, 474.500 333.492 C 481.008 329.379, 486.220 327.409, 493 326.502 C 496.025 326.097, 499.625 325.198, 501 324.504 C 502.375 323.810, 509.350 322.932, 516.500 322.552 C 523.650 322.173, 531.975 321.242, 535 320.482 C 538.025 319.723, 542.108 318.848, 544.073 318.538 C 549.199 317.731, 556.495 312.760, 559.469 308.050 C 560.875 305.822, 562.645 301.637, 563.401 298.750 C 564.158 295.862, 566.362 291.151, 568.300 288.281 C 570.238 285.410, 573.943 278.704, 576.534 273.378 C 581.107 263.976, 581.230 263.483, 580.773 256.359 C 580.382 250.267, 579.768 248.215, 577.158 244.261 C 575.428 241.643, 573.057 237.514, 571.888 235.087 C 566.217 223.313, 557.405 215.701, 545.500 212.292 C 542.750 211.505, 537.575 210.023, 534 208.999 C 530.425 207.975, 525.475 206.328, 523 205.338 C 519.323 203.868, 515.299 203.515, 501 203.408 C 491.375 203.337, 482.150 203.612, 480.500 204.021" stroke="#dd8a8a" fill="#dd8a8a" fill-opacity="0.2" fill-rule="evenodd"/><path class="svg-region-SV" d="M 517.500 322.550 C 496.979 324.278, 483.388 327.731, 474.500 333.477 C 471.750 335.254, 467.001 338.107, 463.947 339.815 C 456.541 343.958, 449.657 350.787, 443.096 360.500 C 440.124 364.900, 436.406 370.373, 434.834 372.663 C 433.262 374.952, 430.883 379.677, 429.547 383.163 C 428.211 386.648, 425.754 391.975, 424.086 395 C 422.419 398.025, 419.646 403.200, 417.924 406.500 C 416.202 409.800, 413.400 413.964, 411.697 415.753 L 408.601 419.007 412.550 423.090 C 419.009 429.766, 424.706 432.100, 435.892 432.650 C 441.176 432.910, 446.458 433.314, 447.628 433.549 C 448.798 433.785, 452.453 436.682, 455.749 439.988 C 463.056 447.318, 464.994 447.687, 465.015 441.750 C 465.034 436.625, 465.536 435.773, 469.833 433.571 C 473.695 431.591, 477.779 432.505, 481.751 436.235 C 483.513 437.891, 485.857 438.593, 491.287 439.091 C 495.247 439.453, 499.016 439.547, 499.664 439.299 C 500.311 439.050, 503.580 435.619, 506.929 431.674 C 515.612 421.443, 515.904 421.178, 519.369 420.433 C 523.801 419.479, 527.807 417.296, 533 413.004 C 535.475 410.959, 539.182 408.738, 541.238 408.069 C 543.294 407.400, 546.219 405.359, 547.738 403.534 C 550.374 400.366, 550.716 400.248, 555.240 400.947 C 558.610 401.468, 559.727 401.365, 559.105 400.590 C 558.624 399.990, 557.920 398.047, 557.541 396.272 C 557.035 393.908, 555.800 392.454, 552.925 390.838 C 549.362 388.835, 549 388.257, 549.004 384.566 C 549.007 380.398, 553.569 366.833, 556.441 362.450 C 557.418 360.959, 559 360, 560.485 360 C 563.315 360, 564.489 356.768, 565.569 346 C 566.137 340.326, 565.972 339.276, 564.266 337.737 C 562.376 336.030, 562.151 336.134, 557.299 340.987 C 553.154 345.132, 551.668 346, 548.715 346 C 546.009 346, 544.624 345.334, 542.992 343.250 C 541.807 341.738, 538.625 338.175, 535.919 335.334 C 530.857 330.017, 529.892 326.938, 532.035 322.934 C 532.605 321.870, 532.942 321.065, 532.785 321.144 C 532.628 321.223, 525.750 321.856, 517.500 322.550 M 564.519 402.970 C 564.189 403.503, 565.458 404.582, 567.338 405.368 C 569.218 406.153, 571.036 407.250, 571.379 407.804 C 572.078 408.936, 576 408.216, 576 406.956 C 576 403.874, 566.087 400.432, 564.519 402.970" stroke="#c666b5" fill="#c666b5" fill-opacity="0.2" fill-rule="evenodd"/><path class="svg-region-SF" d="M 582.750 252.080 C 581.412 252.859, 581 254.422, 581 258.711 C 581 263.542, 580.223 265.857, 575.419 275.335 C 572.349 281.391, 568.740 287.786, 567.397 289.546 C 566.055 291.305, 564.288 295.315, 563.470 298.455 C 562.113 303.665, 557.410 312.011, 554.987 313.508 C 554.444 313.844, 554 315.906, 554 318.092 C 554 322.857, 557.873 330.957, 562.744 336.379 C 565.893 339.886, 566.167 340.655, 565.590 344.379 C 565.239 346.646, 564.673 352.881, 564.332 358.235 C 563.732 367.632, 563.816 368.188, 566.735 374.235 C 568.399 377.681, 570.028 381.660, 570.356 383.079 C 570.684 384.497, 572.051 386.158, 573.394 386.770 C 574.737 387.382, 579.454 390.647, 583.875 394.026 C 589.381 398.234, 594.211 400.959, 599.206 402.676 C 607.830 405.639, 620.586 406.752, 626.750 405.077 C 630.671 404.012, 631 403.664, 631 400.584 C 631 391.021, 642.420 375.296, 658.477 362.750 C 661.116 360.688, 663.632 359, 664.067 359 C 664.502 359, 666.173 357.051, 667.781 354.670 C 670.767 350.244, 671.155 345.263, 668.747 342.245 C 668.194 341.551, 668.031 339.211, 668.382 337.014 C 669.163 332.131, 667.780 325.268, 664.551 318 C 663.207 314.975, 660.434 308.681, 658.390 304.013 C 652.277 290.052, 642.591 275.741, 631.862 264.815 C 622.971 255.761, 621.924 254.999, 618.362 254.993 C 616.192 254.990, 613.186 254.116, 611.500 253 C 608.919 251.290, 606.825 251.017, 596.500 251.037 C 589.900 251.050, 583.712 251.519, 582.750 252.080" stroke="#8c6b55" fill="#8c6b55" fill-opacity="0.2" fill-rule="evenodd"/><path class="svg-region-IF" d="M 670.909 351.255 C 669.485 352.490, 667.562 354.738, 666.636 356.250 C 665.711 357.762, 664.478 359, 663.897 359 C 662.733 359, 656.733 363.799, 648.270 371.500 C 642.730 376.541, 635.274 387.015, 632.501 393.652 C 630.236 399.073, 630.568 406.061, 633.282 410.102 C 635.404 413.263, 643.967 418.924, 646.706 418.977 C 647.809 418.998, 652.033 421.498, 657.746 425.510 C 658.982 426.378, 662.582 430.529, 665.746 434.735 C 671.355 442.189, 671.689 442.443, 679 444.811 C 683.125 446.147, 687.281 447.636, 688.236 448.120 C 690.743 449.390, 696.399 449.201, 697.800 447.800 C 698.460 447.140, 699 445.845, 699 444.922 C 699 444, 699.675 442.685, 700.500 442 C 701.325 441.315, 702 439.676, 702 438.358 C 702 437.039, 703.074 434.259, 704.387 432.179 C 709.449 424.161, 713 413.296, 713 405.828 C 713 399.456, 712.531 397.823, 707.926 388.154 C 705.135 382.294, 702.400 376.663, 701.849 375.641 C 692.675 358.623, 689.767 354.658, 683.788 351.012 C 679.382 348.326, 674.176 348.424, 670.909 351.255" stroke="#f2823b" fill="#f2823b" fill-opacity="0.2" fill-rule="evenodd"/><path class="svg-region-PF" d="M 548.500 317.055 C 546.300 318.096, 543.330 318.959, 541.899 318.974 C 537.921 319.014, 533.069 321.002, 531.979 323.039 C 530.384 326.020, 530.855 329.931, 533.095 332.292 C 534.247 333.506, 537.473 337.087, 540.265 340.250 C 544.610 345.171, 545.842 346, 548.814 346 C 551.643 346, 553.204 345.082, 557.242 341.044 L 562.198 336.087 560.083 333.116 C 556.755 328.442, 554.046 321.798, 554.022 318.250 C 553.997 314.528, 553.888 314.505, 548.500 317.055 M 560.772 359.814 C 559.190 359.997, 557.255 361.256, 556.163 362.814 C 553.267 366.949, 549 379.859, 549 384.486 C 549 388.275, 549.341 388.823, 552.963 390.859 C 556.036 392.586, 557.072 393.867, 557.579 396.568 C 558.457 401.252, 561.242 403.066, 566.458 402.351 C 569.929 401.875, 571.086 402.202, 573.689 404.392 C 577.929 407.959, 584.084 408.007, 587.591 404.500 C 589.007 403.084, 591.264 401.992, 592.795 401.981 C 595.343 401.963, 595.239 401.788, 591 398.962 C 588.525 397.311, 584.700 394.605, 582.500 392.946 C 580.300 391.288, 576.848 388.839, 574.829 387.503 C 572.810 386.168, 570.867 384.046, 570.510 382.788 C 570.154 381.529, 568.741 378.364, 567.371 375.754 C 566.001 373.144, 564.569 368.419, 564.190 365.254 C 563.526 359.717, 563.397 359.512, 560.772 359.814" stroke="#faaaaa" fill="#faaaaa" fill-opacity="0.2" fill-rule="evenodd"/><path class="svg-region-AAB" d="M 639.388 417.979 C 635.938 419.374, 635.728 422.726, 638.970 424.642 C 641.395 426.074, 641.835 427.089, 642.392 432.521 C 642.743 435.951, 642.546 441.019, 641.953 443.783 C 640.993 448.260, 640.009 449.599, 632.938 456.057 C 625.763 462.609, 625 463.661, 625 466.998 C 625 470.782, 622.674 473.992, 619.921 474.008 C 619.140 474.013, 616.261 475.303, 613.525 476.876 C 609.879 478.973, 608.132 479.475, 606.983 478.757 C 605.830 478.037, 604.398 478.469, 601.568 480.389 C 599.452 481.826, 597.221 483.594, 596.610 484.319 C 593.194 488.378, 578.727 500.112, 574.073 502.600 C 570.983 504.251, 567.106 507.462, 565.073 510.055 C 563.108 512.560, 560.150 515.298, 558.500 516.139 C 554.854 517.997, 554.075 522.311, 556.529 527.056 L 558.176 530.240 569.838 529.737 C 581.245 529.244, 596.519 526.943, 602.500 524.816 C 604.150 524.229, 607.075 523.537, 609 523.278 C 610.925 523.019, 614.835 521.725, 617.688 520.404 C 620.542 519.082, 623.524 518, 624.316 518 C 626.088 518, 646.034 509.491, 650.933 506.645 C 657.731 502.696, 672.525 491.239, 677.743 485.882 C 683.719 479.747, 692.564 466.226, 694.013 461.011 C 695.164 456.868, 695.268 451.923, 694.235 450.458 C 693.831 449.885, 691.475 448.813, 689 448.075 C 673.944 443.590, 671.565 442.427, 668.221 437.920 C 660.508 427.523, 657.328 424.059, 654.565 423.049 C 652.951 422.458, 650.926 421.369, 650.065 420.629 C 649.204 419.888, 647.600 419.045, 646.500 418.754 C 645.400 418.464, 643.825 417.979, 643 417.676 C 642.175 417.373, 640.550 417.509, 639.388 417.979" stroke="#7f3c1a" fill="#7f3c1a" fill-opacity="0.2" fill-rule="evenodd"/><path class="svg-region-APB" d="M 587.586 404.180 C 586.451 405.801, 584.576 406.542, 580.280 407.068 C 571.809 408.104, 561.195 414.917, 556.680 422.215 C 555.536 424.063, 555 427.107, 555 431.748 C 555 437.623, 554.519 439.462, 551.527 445.033 C 545.271 456.683, 538.868 470.371, 536.341 477.500 C 529.133 497.830, 528.861 499.029, 529.188 509.077 C 529.457 517.337, 529.841 519.151, 531.982 522.272 C 535.350 527.183, 537.628 528, 547.960 528 L 556.826 528 555.760 525.176 C 554.260 521.202, 555.489 517.398, 558.748 515.929 C 560.261 515.246, 563.108 512.620, 565.073 510.094 C 567.140 507.436, 570.932 504.278, 574.073 502.600 C 578.772 500.088, 592.493 488.940, 597 483.972 C 597.825 483.062, 600.215 481.293, 602.311 480.040 C 605.201 478.312, 605.930 477.367, 605.327 476.131 C 604.889 475.234, 604.597 472.104, 604.679 469.175 C 604.832 463.645, 606.542 460.598, 610.130 459.459 C 611.156 459.133, 612.270 457.772, 612.606 456.433 C 612.942 455.095, 613.599 454, 614.066 454 C 614.533 454, 616.137 451.863, 617.629 449.250 C 619.121 446.637, 621.615 443.455, 623.171 442.178 C 625.040 440.643, 626 438.913, 626 437.077 C 626 430.349, 630.472 423, 634.566 423 C 636.097 423, 636.977 422.226, 637.411 420.500 C 637.756 419.125, 638.705 418, 639.519 418 C 641.874 418, 641.183 416.662, 637.711 414.500 C 635.945 413.400, 633.608 410.579, 632.518 408.232 C 631.089 405.155, 630.112 404.144, 629.018 404.608 C 628.183 404.962, 624.114 405.472, 619.975 405.742 C 614.212 406.116, 610.685 405.736, 604.911 404.115 C 594.885 401.302, 589.588 401.322, 587.586 404.180" stroke="#ac7444" fill="#ac7444" fill-opacity="0.2" fill-rule="evenodd"/><path class="svg-region-PC" d="M 547.683 403.530 C 546.236 405.344, 543.353 407.381, 541.276 408.057 C 539.199 408.732, 535.475 410.959, 533 413.004 C 527.875 417.240, 523.832 419.463, 519.500 420.427 C 515.871 421.235, 514.304 422.428, 510.873 427 C 509.428 428.925, 506.165 432.725, 503.622 435.444 L 498.998 440.389 501.589 443.093 C 503.793 445.394, 504.007 446.118, 503.026 447.952 C 501.224 451.318, 495.985 453.992, 491.183 453.996 C 488.124 453.999, 485.912 454.728, 483.589 456.500 C 481.786 457.875, 479.736 459, 479.034 459 C 478.099 459, 478.191 459.604, 479.378 461.250 C 480.270 462.488, 482.410 466.200, 484.134 469.500 C 485.857 472.800, 488.107 476.573, 489.133 477.885 C 490.160 479.197, 491 481.144, 491 482.212 C 491 484.354, 490.553 483.854, 510.904 504.434 C 518.826 512.445, 525.657 519, 526.083 519 C 527.846 519, 530 522.339, 530 525.071 C 530 527.986, 531.306 528.728, 533.727 527.190 C 534.630 526.616, 534.235 525.401, 532.227 522.581 C 529.811 519.189, 529.460 517.680, 529.153 509.365 C 528.793 499.629, 529.346 497.143, 535.973 478.689 C 538.863 470.643, 546.849 453.027, 548.978 450.001 C 553.514 443.557, 555 439.115, 555 432.005 C 555 422.634, 558.527 417.204, 568.112 411.817 C 570.271 410.604, 571.902 409.136, 571.736 408.555 C 571.255 406.867, 558.888 401.286, 554.407 400.736 C 550.703 400.280, 550.065 400.545, 547.683 403.530" stroke="#cda789" fill="#cda789" fill-opacity="0.2" fill-rule="evenodd"/><path class="svg-region-DB" d="M 364.302 416.846 C 362.336 421.184, 362.193 422.524, 362.946 429.596 C 363.850 438.075, 365.157 441.817, 370.136 450.177 C 371.880 453.105, 373.836 457.252, 374.482 459.392 L 375.657 463.285 391.079 463.084 C 406.411 462.885, 406.564 462.905, 417.500 466.551 C 427.585 469.913, 439.291 475.501, 442.283 478.380 C 442.952 479.024, 444.912 480.440, 446.638 481.526 C 450.282 483.818, 457.902 492.255, 459.937 496.250 C 460.708 497.762, 461.619 499, 461.963 499 C 462.786 499, 469.683 505.713, 473.610 510.338 C 475.321 512.352, 477.507 514, 478.469 514 C 479.943 514, 480.113 513.409, 479.550 510.250 C 479.182 508.188, 478.656 504.250, 478.380 501.500 C 477.885 496.551, 477.936 496.441, 483.439 490.750 C 486.496 487.587, 489.448 485, 489.999 485 C 491.749 485, 491.076 479.379, 489.113 477.602 C 488.075 476.663, 486.021 473.331, 484.548 470.197 C 480.620 461.838, 477.453 457.882, 473.143 455.952 C 470.956 454.974, 468.362 452.703, 467.104 450.668 C 465.891 448.706, 463.405 446.177, 461.578 445.048 C 459.751 443.919, 456.828 441.242, 455.081 439.100 C 450.990 434.080, 448.623 433.260, 436.500 432.661 C 424.572 432.071, 421.071 430.745, 413.738 424.044 C 408.884 419.608, 408.080 419.198, 406.934 420.580 C 401.629 426.972, 387.216 428.555, 378.500 423.703 C 374.852 421.673, 372.959 419.784, 371.500 416.718 C 368.753 410.947, 366.963 410.979, 364.302 416.846" stroke="#e8b1e4" fill="#e8b1e4" fill-opacity="0.2" fill-rule="evenodd"/><path class="svg-region-MB" d="M 378.607 464.582 C 377.449 467.599, 378.075 474.528, 380 480 C 381.064 483.025, 381.949 486.934, 381.967 488.687 C 382.001 492.008, 387.246 500.496, 395.657 510.842 C 398.046 513.780, 400 516.608, 400 517.127 C 400 518.472, 407.464 521.422, 414.500 522.857 C 417.800 523.531, 422.525 524.575, 425 525.179 C 431.819 526.841, 447.723 528.797, 465.208 530.123 C 477.812 531.079, 481.218 531.064, 482.444 530.047 C 483.801 528.920, 483.751 528.498, 481.986 526.255 C 480.637 524.540, 480 522.205, 480 518.974 C 480 514.803, 479.708 514.144, 477.629 513.622 C 476.325 513.294, 474.001 511.333, 472.464 509.263 C 469.689 505.524, 463.031 499.056, 461.919 499.019 C 461.599 499.009, 460.708 497.762, 459.937 496.250 C 456.210 488.932, 443.970 478.159, 433 472.541 C 430.525 471.273, 423.625 468.608, 417.667 466.618 C 407.308 463.158, 406.230 463, 393.024 463 C 381.354 463, 379.120 463.245, 378.607 464.582" stroke="#f9c6c6" fill="#f9c6c6" fill-opacity="0.2" fill-rule="evenodd"/><path class="svg-region-AP" d="M 543.090 609.750 C 543.525 612.362, 544.834 617.875, 545.998 622 C 549.496 634.389, 549.763 636.002, 550.469 648.987 C 550.843 655.855, 551.491 661.930, 551.911 662.487 C 552.330 663.044, 553.688 666.061, 554.928 669.190 C 556.771 673.840, 557.074 676.034, 556.585 681.190 C 555.341 694.305, 554.127 731.829, 554.857 734.605 C 555.395 736.650, 556.986 738.247, 560.274 740.042 C 562.834 741.440, 565.957 743.522, 567.214 744.669 C 568.471 745.816, 571.075 747.273, 573 747.908 C 574.925 748.542, 577.784 750.191, 579.354 751.572 C 581.857 753.774, 582.082 754.416, 581.185 756.792 C 580.623 758.281, 579.907 761.342, 579.595 763.593 C 579.282 765.844, 578.108 769.763, 576.984 772.303 C 575.055 776.665, 575.056 782, 576.986 782 C 578.968 782, 584.871 778.876, 587.921 776.213 C 590.660 773.821, 592.534 773.146, 597.795 772.655 C 604.001 772.075, 604.641 772.232, 612.290 776.212 C 616.691 778.501, 621.654 781.521, 623.318 782.921 C 626.183 785.332, 627.085 785.488, 640.226 785.849 C 654.042 786.228, 660.826 785.306, 665.500 782.413 C 668.654 780.461, 680.867 777, 684.602 777 C 687.482 777, 688.201 776.509, 689.362 773.750 C 690.548 770.931, 690.524 770.265, 689.187 768.725 C 688.165 767.548, 687.720 765.300, 687.868 762.056 C 687.991 759.365, 687.073 752.063, 685.828 745.831 C 684.016 736.758, 683.589 731.451, 683.687 719.199 C 683.842 699.856, 684.987 695.288, 690.240 693.075 C 695.145 691.009, 694.985 690.001, 689.750 689.995 C 683.689 689.987, 680.149 687.450, 677.895 681.500 C 675.577 675.380, 675.377 664.407, 677.532 661.559 C 678.607 660.137, 679 656.797, 679 649.080 C 679 638.840, 679.092 638.407, 682.241 633.792 C 684.023 631.180, 686.777 628.507, 688.361 627.851 L 691.240 626.658 687.200 625.078 C 684.978 624.209, 682.111 622.520, 680.830 621.323 C 679.548 620.127, 677.150 618.821, 675.500 618.421 C 673.850 618.022, 670.250 616.707, 667.500 615.499 C 656.281 610.574, 656.366 610.582, 619 610.517 C 592.906 610.471, 582.921 610.129, 581.316 609.227 C 580.001 608.488, 575.209 608, 569.276 608 C 563.741 608, 556.895 607.342, 553.661 606.500 C 550.494 605.675, 546.642 605, 545.101 605 C 542.314 605, 542.303 605.025, 543.090 609.750" stroke="#fc7143" fill="#fc7143" fill-opacity="0.2" fill-rule="evenodd"/><path class="svg-region-PP" d="M 421.500 604.373 C 419.850 605.085, 414.900 606.239, 410.500 606.936 C 406.100 607.634, 400.925 608.856, 399 609.650 C 395.274 611.188, 387 618.678, 387 620.514 C 387 621.118, 385.910 623.089, 384.577 624.896 C 382.775 627.338, 381.977 630.062, 381.466 635.522 C 380.682 643.888, 381.678 650.291, 385.408 660.852 C 386.836 664.896, 388.407 670.521, 388.900 673.352 C 389.392 676.183, 390.753 680.975, 391.923 684 C 393.094 687.025, 394.501 692.875, 395.049 697 C 396.673 709.223, 396.777 709.512, 398.876 707.612 C 401.640 705.111, 420.752 705.318, 425.790 707.905 C 430.005 710.069, 433 714.502, 433 718.576 C 433 720.097, 433.788 722.214, 434.750 723.279 C 436.038 724.705, 436.508 726.969, 436.531 731.858 C 436.549 735.511, 436.842 739.175, 437.184 740 C 437.525 740.825, 438.367 743.672, 439.054 746.326 C 439.776 749.116, 441.188 751.729, 442.401 752.519 C 446.368 755.102, 466.184 759.166, 477.565 759.730 L 488.631 760.279 488.193 756.526 C 487.952 754.462, 488.228 751.137, 488.806 749.137 C 489.384 747.136, 490.239 743.925, 490.705 742 C 491.425 739.026, 492.526 737.977, 498.026 735.021 C 503.977 731.823, 505.146 731.553, 512.500 731.674 C 519.258 731.786, 543.571 734.772, 552 736.525 L 554.500 737.046 554.823 712.773 C 555.001 699.423, 555.564 688.072, 556.073 687.550 C 557.278 686.315, 557.277 673.491, 556.072 671.236 C 551.963 663.551, 551.138 659.933, 550.127 645.149 C 549.549 636.705, 548.670 629.280, 548.173 628.649 C 547.675 628.017, 547.028 626.375, 546.734 625 C 546.440 623.625, 545.450 619.800, 544.533 616.500 C 543.617 613.200, 543.037 608.985, 543.246 607.134 L 543.625 603.769 538.063 604.634 C 530.263 605.848, 492.719 605.485, 485.566 604.127 C 476.910 602.483, 425.421 602.681, 421.500 604.373" stroke="#c4743d" fill="#c4743d" fill-opacity="0.2" fill-rule="evenodd"/><path class="svg-region-ADCl" d="M 688.141 627.700 C 686.294 628.611, 683.490 631.412, 681.910 633.928 C 679.257 638.151, 679.034 639.264, 678.984 648.500 C 678.947 655.248, 678.464 659.313, 677.500 661 C 675.192 665.038, 675.652 677.550, 678.309 682.971 C 680.946 688.351, 683.801 689.966, 690.710 689.985 C 699.468 690.010, 706.062 687.343, 712.908 681.008 C 718.804 675.552, 718.999 675.212, 718.956 670.435 C 718.932 667.721, 718.218 663.700, 717.369 661.500 C 716.520 659.300, 714.936 653.962, 713.850 649.638 C 711.008 638.324, 707.583 631, 705.132 631 C 704.044 631, 701.816 629.875, 700.182 628.500 C 696.735 625.599, 692.920 625.346, 688.141 627.700" stroke="#54413e" fill="#54413e" fill-opacity="0.2" fill-rule="evenodd"/><path class="svg-region-AVCl" d="M 697.500 689.312 C 695.850 689.951, 694.275 690.754, 694 691.096 C 693.725 691.438, 691.893 692.293, 689.928 692.996 C 684.892 694.797, 683.852 699.074, 683.683 718.682 C 683.573 731.526, 683.984 736.756, 685.870 746.500 C 687.291 753.843, 687.971 760.129, 687.622 762.698 C 687.122 766.382, 687.372 767.148, 689.661 768.948 C 692.712 771.348, 698.328 771.599, 702 769.500 C 703.375 768.714, 706.750 768.044, 709.500 768.012 C 712.250 767.979, 716.300 767.502, 718.500 766.952 C 720.700 766.402, 725.875 765.316, 730 764.538 C 734.125 763.760, 739.525 762.643, 742 762.054 C 744.475 761.466, 748.075 760.727, 750 760.412 C 751.925 760.098, 754.400 759.482, 755.500 759.045 C 756.600 758.607, 758.759 757.743, 760.297 757.125 C 761.835 756.506, 764.337 756, 765.856 756 C 769.281 756, 772.506 753.762, 771.786 751.885 C 771.490 751.113, 769.175 749.927, 766.642 749.249 C 763.053 748.289, 761.511 747.186, 759.660 744.253 C 757.418 740.703, 752.026 735.283, 747.448 731.980 C 744.318 729.722, 738.474 718.224, 737.039 711.500 C 736.335 708.200, 734.902 704.290, 733.855 702.811 C 732.061 700.278, 726.895 697, 724.696 697 C 723.031 697, 713 691.822, 713 690.962 C 713 690.520, 711.763 689.914, 710.250 689.614 C 703.644 688.304, 700.306 688.225, 697.500 689.312" stroke="#ffbab9" fill="#ffbab9" fill-opacity="0.2" fill-rule="evenodd"/><path class="svg-region-DMl" d="M 398.655 707.829 C 397.416 709.198, 397 711.597, 397 717.369 C 397 725.303, 398.443 729.622, 403.277 736.161 C 404.970 738.450, 405.184 739.778, 404.626 744.525 L 403.963 750.167 406.731 749.612 C 415.488 747.855, 418.803 748.054, 423.660 750.627 C 426.322 752.038, 430.618 754.709, 433.207 756.563 C 437.800 759.853, 437.999 759.899, 441.457 758.454 C 445.651 756.701, 445.816 755.842, 442.545 752.790 C 439.411 749.867, 436.744 740.462, 436.606 731.855 C 436.529 727.042, 436.018 724.677, 434.750 723.277 C 433.788 722.213, 432.998 720.028, 432.996 718.421 C 432.991 714.285, 429.835 709.624, 425.717 707.670 C 423.096 706.426, 419.405 706, 411.254 706 C 401.922 706, 400.066 706.269, 398.655 707.829" stroke="#68533d" fill="#68533d" fill-opacity="0.2" fill-rule="evenodd"/><path class="svg-region-VMl" d="M 504.500 732.040 C 502.850 732.573, 499.260 734.244, 496.522 735.754 C 491.804 738.357, 491.453 738.840, 489.809 745 C 487.336 754.261, 487.471 759.154, 490.270 761.784 C 491.519 762.957, 496.581 765.783, 501.520 768.064 C 507.552 770.850, 512.881 774.297, 517.753 778.561 C 522.849 783.023, 526.120 785.105, 528.753 785.566 C 530.814 785.927, 536.213 787.510, 540.751 789.083 C 545.289 790.657, 551.964 792.248, 555.584 792.619 C 560.415 793.114, 562.474 793.786, 563.324 795.147 C 565.762 799.050, 568.495 797.294, 573.430 788.653 C 575.378 785.242, 576.062 782.878, 575.739 780.676 C 575.471 778.849, 576.261 774.738, 577.640 770.792 C 578.938 767.077, 580 762.925, 580 761.566 C 580 760.206, 580.529 757.934, 581.175 756.516 C 582.247 754.163, 582.050 753.686, 578.925 751.057 C 577.041 749.473, 574.166 747.904, 572.536 747.570 C 570.906 747.237, 568.431 745.880, 567.036 744.554 C 561.587 739.375, 554.333 736.817, 538.305 734.424 C 519.061 731.551, 508.351 730.796, 504.500 732.040" stroke="#e59376" fill="#e59376" fill-opacity="0.2" fill-rule="evenodd"/><path class="svg-region-PMl" d="M 258 721.070 C 256.625 721.541, 254.282 722.172, 252.792 722.472 C 251.303 722.771, 248.977 724.026, 247.623 725.258 C 246.268 726.491, 244.224 728.283, 243.080 729.240 C 241.741 730.361, 241 732.162, 241 734.299 C 241 740.214, 245.008 743.273, 253.903 744.151 C 257.532 744.508, 262.300 745.089, 264.500 745.440 C 270.196 746.349, 272.777 744.553, 275.653 737.678 C 278.287 731.383, 278.099 729.119, 274.672 725.879 C 269.421 720.915, 263.465 719.197, 258 721.070" stroke="#90cf92" fill="#90cf92" fill-opacity="0.2" fill-rule="evenodd"/><path class="svg-region-PV" d="M 291.475 590.806 C 287.611 591.795, 283.888 592.951, 283.201 593.376 C 282.515 593.800, 279.826 594.380, 277.227 594.666 C 274.627 594.951, 271.150 595.747, 269.500 596.435 C 267.850 597.122, 264.957 597.728, 263.071 597.781 C 261.185 597.833, 258.485 598.788, 257.071 599.902 C 255.657 601.017, 252.025 603.155, 249 604.654 C 242.026 608.111, 230.929 617.798, 225.730 624.967 C 223.524 628.010, 220.476 631.850, 218.957 633.500 C 217.295 635.306, 216.207 637.608, 216.223 639.283 C 216.238 640.813, 215.069 644.342, 213.625 647.125 C 212.181 649.908, 211 653.833, 211 655.848 C 211 659.012, 211.439 659.706, 214.215 660.935 C 215.984 661.718, 219.337 663.645, 221.667 665.218 C 225.240 667.629, 226.207 667.888, 227.837 666.870 C 230.546 665.178, 234.875 667.127, 237.750 671.332 C 240.405 675.216, 240.698 681.085, 238.500 686.346 C 236.440 691.276, 236.621 696.330, 238.996 700.226 C 241.612 704.517, 241.519 706.229, 238.473 709.850 C 235.194 713.746, 231.575 714.457, 224.359 712.620 C 221.136 711.800, 217.262 711.377, 215.750 711.681 C 213.333 712.166, 213 712.690, 213 716.011 C 213 718.089, 213.861 722.649, 214.913 726.145 C 215.966 729.640, 217.126 733.960, 217.491 735.744 C 217.857 737.528, 218.730 739.328, 219.432 739.744 C 223.408 742.100, 223.758 750.579, 219.904 751.189 C 218.065 751.480, 218.042 751.643, 219.540 753.768 C 221.389 756.391, 228.110 759.954, 236 762.494 C 239.025 763.468, 241.989 764.649, 242.586 765.119 C 243.184 765.589, 245.534 766.630, 247.809 767.433 L 251.946 768.892 249.973 765.211 C 248.888 763.186, 248 761.133, 248 760.648 C 248 759.412, 258.872 747.733, 261.263 746.402 C 263.048 745.408, 263.074 745.242, 261.536 744.652 C 260.601 744.293, 257.653 744, 254.983 744 C 246.245 744, 241 740.495, 241 734.654 C 241 731.965, 241.878 730.509, 245.470 727.240 C 247.928 725.003, 251.415 722.872, 253.220 722.504 C 255.024 722.137, 257.923 721.347, 259.663 720.749 C 264.981 718.920, 274.809 723.736, 276.881 729.186 C 277.723 731.402, 277.162 734.059, 274.558 740.173 C 273.732 742.111, 275.814 744.338, 281.748 747.865 C 284.733 749.639, 286.271 751.541, 287.902 755.476 C 289.098 758.362, 291.184 761.764, 292.538 763.036 C 293.892 764.308, 295 765.747, 295 766.234 C 295 766.721, 296.575 769.183, 298.500 771.704 C 300.425 774.225, 302 777.348, 302 778.644 C 302 781.705, 302.556 781.638, 310.670 777.608 C 314.427 775.742, 319.643 773.950, 322.262 773.625 C 324.881 773.301, 328.931 772.099, 331.262 770.955 C 340.007 766.665, 353.472 762.250, 360.288 761.439 C 363.155 761.098, 366.850 760.231, 368.500 759.513 C 370.150 758.795, 373.410 757.896, 375.745 757.516 C 378.079 757.137, 380.225 756.445, 380.512 755.980 C 380.800 755.515, 383.615 754.636, 386.767 754.027 C 395.791 752.284, 403.793 748.891, 404.424 746.542 C 405.683 741.857, 404.496 735.754, 401.985 734 C 401.591 733.725, 400.308 731.605, 399.134 729.290 C 397.539 726.143, 396.998 723.239, 396.992 717.790 C 396.979 707.047, 394.452 690.416, 391.704 683 C 390.379 679.425, 388.964 674.250, 388.559 671.500 C 388.154 668.750, 386.228 662.230, 384.280 657.010 C 380.983 648.180, 380.777 646.964, 381.315 639.510 C 381.633 635.105, 382.459 629.076, 383.150 626.112 C 384.236 621.459, 385.095 620.185, 389.454 616.768 C 396.785 611.019, 398.036 606.929, 392.832 605.725 C 391.549 605.428, 387.350 603.990, 383.500 602.530 C 379.650 601.070, 374.718 599.430, 372.539 598.885 C 370.361 598.341, 367.930 597.356, 367.136 596.698 C 366.192 595.914, 360.146 595.376, 349.645 595.141 C 337.450 594.868, 333.040 594.417, 331.279 593.263 C 330.005 592.428, 327.058 591.685, 324.731 591.612 C 322.404 591.539, 319.951 591.128, 319.281 590.700 C 318.610 590.271, 313.660 589.715, 308.281 589.464 C 300.932 589.122, 296.753 589.455, 291.475 590.806" stroke="#b09658" fill="#b09658" fill-opacity="0.2" fill-rule="evenodd"/><path class="svg-region-DV" d="M 203.258 660.047 C 199.545 663.845, 195 672.681, 195 676.101 C 195 685.719, 198.927 701.984, 202.233 706.062 C 204.963 709.430, 211.708 712.309, 215.446 711.702 C 217.502 711.369, 221.233 711.771, 224.169 712.643 C 230.473 714.515, 234.935 713.792, 238.388 710.339 C 241.516 707.212, 241.672 704.614, 238.996 700.226 C 236.619 696.328, 236.446 691.571, 238.500 686.654 C 242.975 675.943, 235.896 662.993, 227.626 666.761 C 225.825 667.581, 224.644 667.264, 221.450 665.103 C 219.277 663.633, 215.832 661.647, 213.792 660.689 C 211.753 659.730, 209.814 658.509, 209.483 657.973 C 208.409 656.235, 206.298 656.938, 203.258 660.047" stroke="#45567a" fill="#45567a" fill-opacity="0.2" fill-rule="evenodd"/><path class="svg-region-VV" d="M 273 742.839 C 273 744.224, 268.148 746, 264.367 746 C 261.301 746, 259.962 746.905, 254.368 752.750 C 247.219 760.222, 247.074 760.989, 251.487 767.979 C 252.979 770.343, 256.669 773.521, 261.197 776.343 C 272.455 783.359, 274.574 784, 286.503 784 C 302.459 784, 305.505 780.878, 298.500 771.704 C 296.575 769.183, 295 766.713, 295 766.215 C 295 765.717, 294.052 764.453, 292.894 763.405 C 290.655 761.380, 287 754.868, 287 752.905 C 287 751.168, 282.359 747.177, 278.433 745.536 C 276.545 744.747, 275 743.629, 275 743.051 C 275 742.473, 274.550 742, 274 742 C 273.450 742, 273 742.378, 273 742.839" stroke="#7699d1" fill="#7699d1" fill-opacity="0.2" fill-rule="evenodd"/><path class="svg-region-B" d="M 813 497.726 C 812.175 498.038, 806.775 500.283, 801 502.715 C 777.741 512.508, 770.392 517.392, 766.021 525.959 C 764.887 528.181, 763.592 530, 763.143 530 C 761.612 530, 754 546.736, 754 550.101 C 754 551.123, 751.782 556.355, 749.071 561.729 C 743.281 573.207, 739.839 580.957, 738.070 586.500 C 736.335 591.934, 732.124 600.396, 727.954 606.827 C 724.357 612.375, 716.311 618.114, 710.269 619.441 C 707.418 620.067, 705 623.264, 705 626.409 C 705 627.132, 706.742 631.498, 708.871 636.112 C 711.001 640.725, 713.288 647.385, 713.953 650.910 C 714.619 654.436, 715.767 658.261, 716.504 659.410 C 717.241 660.560, 718.157 663.750, 718.539 666.500 C 719.235 671.512, 722.933 677, 725.615 677 C 726.297 677, 727.686 678.013, 728.702 679.250 C 731.005 682.054, 738.559 688, 739.819 688 C 740.334 688, 741.296 688.652, 741.958 689.449 C 742.619 690.246, 744.756 691.424, 746.707 692.068 C 748.657 692.712, 752.109 694.423, 754.377 695.869 C 756.645 697.316, 759.400 699.077, 760.500 699.782 C 765.895 703.238, 779.116 708.929, 784.109 709.944 C 789.856 711.111, 792.752 712.966, 807.603 724.993 C 811.334 728.014, 815.160 730.355, 816.105 730.195 C 817.050 730.035, 818.114 730.376, 818.470 730.952 C 818.827 731.528, 820.007 732, 821.094 732 C 822.181 732, 824.271 732.788, 825.738 733.750 C 828.537 735.586, 836.371 736.672, 853.673 737.620 C 863.160 738.140, 864.563 737.958, 874.457 734.920 C 884.965 731.693, 885.132 731.593, 891.943 724.423 C 898.070 717.973, 898.946 716.546, 899.974 711.342 C 900.609 708.129, 901.976 702.800, 903.012 699.500 C 906.913 687.076, 907.229 640.500, 903.466 632.570 C 902.511 630.558, 898.606 626.135, 894.788 622.742 C 890.970 619.349, 885.686 613.856, 883.045 610.536 C 880.404 607.216, 875.449 601.632, 872.034 598.126 C 864.947 590.853, 863.008 586.460, 862.982 577.624 C 862.964 571.483, 860.629 553.827, 859.619 552.192 C 859.322 551.712, 858.566 547.092, 857.937 541.924 C 857.309 536.756, 856.215 530.947, 855.506 529.014 C 854.798 527.081, 853.667 522.825, 852.993 519.555 C 851.954 514.509, 850.964 512.769, 846.451 508.055 C 841.985 503.390, 839.875 502.059, 833.277 499.750 C 825.798 497.132, 816.911 496.245, 813 497.726" stroke="#e23b33" fill="#e23b33" fill-opacity="0.2" fill-rule="evenodd"/><path class="svg-region-SB" d="M 859.500 167.408 C 854 169.211, 847.417 171.769, 844.871 173.093 C 842.326 174.417, 836.037 177.679, 830.896 180.343 C 825.755 183.006, 820.413 185.955, 819.024 186.897 C 817.636 187.838, 814.589 189.439, 812.252 190.455 C 807.340 192.591, 799.113 200.874, 796.244 206.573 C 795.157 208.733, 793.690 212.796, 792.983 215.602 C 791.861 220.054, 791.929 221.583, 793.515 227.602 C 796.592 239.284, 800.968 246.333, 807.146 249.561 C 808.602 250.322, 815.352 252.342, 822.146 254.052 C 830.364 256.119, 837.011 258.522, 842 261.229 C 846.125 263.467, 852.397 266.833, 855.938 268.709 C 859.478 270.585, 862.853 272.944, 863.438 273.951 C 864.022 274.958, 866.162 278.644, 868.193 282.141 C 870.224 285.638, 873.235 291.818, 874.884 295.872 C 880.271 309.121, 884.837 311.939, 901 311.988 C 914.421 312.028, 929.850 310.291, 937.444 307.884 C 940.713 306.848, 944.131 306, 945.039 306 C 949.795 306, 970.516 288.849, 973.955 282.067 C 977.164 275.737, 978.233 268.149, 977.837 254.485 L 977.462 241.500 972.608 231 C 967.351 219.629, 964.448 215.535, 956.036 207.633 C 953.032 204.810, 948.082 199.975, 945.036 196.888 C 939.185 190.956, 935.144 187.899, 919.922 177.882 C 907.077 169.430, 899.975 166.316, 890.678 165.058 C 877.411 163.263, 870.571 163.779, 859.500 167.408" stroke="#d2e400" fill="#d2e400" fill-opacity="0.2" fill-rule="evenodd"/><path class="svg-region-VOC" d="M 486.452 487.812 C 485.538 489.359, 483.474 491.496, 481.865 492.562 C 478.386 494.867, 477.551 497.494, 478.468 503.240 C 478.842 505.583, 479.370 511.383, 479.642 516.128 C 480.094 524.021, 480.382 524.991, 483.021 527.520 L 485.905 530.284 506.298 530.392 C 528.926 530.512, 530 530.243, 530 524.459 C 530 521.807, 529.353 520.763, 526.692 519.119 C 523.849 517.361, 502.065 495.987, 494.722 487.750 C 491.559 484.202, 488.571 484.224, 486.452 487.812" stroke="#ff8f93" fill="#ff8f93" fill-opacity="0.2" fill-rule="evenodd"/><path class="svg-region-OABl" d="M 630.226 425.253 C 627.773 427.871, 626 432.871, 626 437.171 C 626 438.913, 624.999 440.670, 623.147 442.178 C 621.578 443.455, 619.245 446.413, 617.963 448.750 C 616.681 451.087, 615.241 453, 614.764 453 C 614.287 453, 613.432 454.332, 612.864 455.959 C 612.297 457.587, 611.030 459.173, 610.048 459.485 C 606.924 460.476, 605.152 463.366, 604.516 468.505 C 604.017 472.534, 604.295 474.134, 605.953 476.781 L 608.008 480.062 613.754 477.033 C 616.914 475.367, 620.125 474.003, 620.890 474.002 C 623.100 473.999, 624.934 470.806, 624.968 466.903 C 624.997 463.700, 625.870 462.512, 632.938 456.057 C 640.009 449.599, 640.993 448.260, 641.953 443.783 C 643.212 437.914, 642.301 426.495, 640.452 424.960 C 639.752 424.379, 637.676 423.661, 635.839 423.364 C 633.177 422.935, 632.039 423.318, 630.226 425.253" stroke="#81244d" fill="#81244d" fill-opacity="0.2" fill-rule="evenodd"/><path class="svg-region-SOTl" d="M 469.220 433.720 C 465.436 435.648, 464.565 438.125, 465.232 445.064 C 465.806 451.042, 467.733 453.404, 474.751 456.740 L 480.003 459.235 483.435 456.618 C 485.908 454.731, 488.072 453.999, 491.183 453.996 C 495.999 453.992, 501.225 451.316, 503.040 447.926 C 504.053 446.033, 503.809 445.348, 501.196 442.734 C 498.607 440.146, 497.192 439.632, 491.120 439.075 C 485.316 438.543, 483.554 437.947, 481.242 435.732 C 477.644 432.284, 473.425 431.579, 469.220 433.720" stroke="#995b45" fill="#995b45" fill-opacity="0.2" fill-rule="evenodd"/><path class="svg-region-BPCl" d="M 717.665 675.672 C 716.224 678.449, 706.563 687, 704.865 687 C 704.389 687, 704 687.391, 704 687.868 C 704 688.346, 705.788 688.976, 707.973 689.269 C 710.158 689.563, 712.654 690.511, 713.519 691.376 C 715.252 693.109, 718.900 694.920, 726.500 697.819 C 732.440 700.085, 735.322 703.792, 736.939 711.250 C 738.889 720.238, 744.613 729.895, 751.191 735.296 C 754.404 737.934, 758.147 741.857, 759.509 744.014 C 761.444 747.079, 763.022 748.241, 766.742 749.339 C 770.542 750.461, 771.484 751.173, 771.421 752.872 C 771.342 754.986, 771.498 755, 795.514 755 C 817.397 755, 820.246 755.196, 825.593 757.071 C 830.700 758.862, 833.329 759.095, 845 758.791 C 857.710 758.460, 858.822 758.266, 864 755.485 C 871.298 751.565, 891.513 731.302, 894.064 725.351 C 895.090 722.958, 895.710 721, 895.442 721 C 895.175 721, 892.588 723.406, 889.693 726.347 C 884.921 731.197, 883.478 731.997, 874.196 734.938 C 864.610 737.975, 863.313 738.146, 853.731 737.622 C 836.382 736.673, 828.541 735.589, 825.738 733.750 C 824.271 732.788, 822.181 732, 821.094 732 C 820.007 732, 818.827 731.528, 818.470 730.952 C 818.114 730.376, 817.071 730.032, 816.153 730.187 C 815.234 730.343, 811.159 727.777, 807.097 724.485 C 791.476 711.827, 790.599 711.266, 784.460 710.001 C 777.133 708.491, 769.008 704.839, 758.449 698.312 C 754.021 695.574, 749.061 692.868, 747.428 692.299 C 745.794 691.729, 742.442 689.828, 739.979 688.075 C 737.515 686.321, 734.078 683.991, 732.339 682.897 C 730.601 681.803, 728.925 680.247, 728.615 679.439 C 728.305 678.631, 727.027 677.531, 725.776 676.995 C 724.524 676.459, 722.517 675.305, 721.316 674.432 C 719.241 672.923, 719.059 672.985, 717.665 675.672" stroke="#83385f" fill="#83385f" fill-opacity="0.2" fill-rule="evenodd"/><path class="svg-region-AMC" d="M 469.405 762.115 C 468.357 763.278, 466.488 764.617, 465.250 765.090 C 460.977 766.724, 463.666 771, 468.966 771 C 475.335 771, 490.270 778.394, 491.528 782.169 C 491.860 783.166, 493.655 784.104, 495.984 784.497 C 498.130 784.860, 500.377 785.749, 500.978 786.474 C 501.579 787.198, 503.679 788.092, 505.644 788.461 C 509.943 789.267, 517.419 792.747, 520.771 795.500 C 524.169 798.291, 531 805.365, 531 806.092 C 531 806.423, 531.939 807.775, 533.088 809.097 C 534.236 810.419, 536.535 813.596, 538.197 816.158 L 541.218 820.816 548.359 820.882 C 552.287 820.918, 555.992 820.622, 556.593 820.224 C 558.169 819.180, 565 809.216, 565 807.962 C 565 807.380, 565.900 805.041, 567 802.764 C 569.414 797.768, 569.555 795.850, 567.449 796.658 C 566.589 796.988, 564.919 796.361, 563.699 795.250 C 562.231 793.913, 559.369 793.017, 555.094 792.556 C 551.571 792.176, 545.882 790.809, 542.452 789.518 C 539.023 788.227, 533.429 786.457, 530.021 785.584 C 525.002 784.298, 522.561 782.879, 517.163 778.107 C 512.784 774.236, 507.234 770.678, 500.970 767.726 C 495.728 765.256, 490.836 762.507, 490.097 761.617 C 489.049 760.354, 486.847 760, 480.033 760 C 472.419 760, 471.068 760.269, 469.405 762.115" stroke="#9d4741" fill="#9d4741" fill-opacity="0.2" fill-rule="evenodd"/>
    </svg>