<svg xmlns="http://www.w3.org/2000/svg" width="1078" height="1151" viewBox="0 0 1078 1151" version="1.1">
    <path class="svg-region-V" d="M 487 195 C 485.625 195.440, 482.421 195.845, 479.880 195.900 C 475.345 195.998, 465.275 198.736, 460.780 201.093 C 456.147 203.522, 444.179 215.581, 437 225.053 C 435.625 226.868, 434.036 228.835, 433.469 229.426 C 432.902 230.017, 430.327 233.262, 427.747 236.637 C 425.167 240.013, 421.795 243.838, 420.254 245.137 C 416.890 247.973, 410.739 256.630, 401.523 271.500 C 397.773 277.550, 393.264 284.754, 391.503 287.508 C 389.742 290.263, 386.601 295.663, 384.524 299.508 C 381.213 305.636, 379.476 308.688, 374.282 317.500 C 373.633 318.600, 371.238 322.521, 368.959 326.213 C 365.860 331.233, 364.606 334.511, 363.984 339.213 C 363.526 342.671, 362.390 347.975, 361.458 351 C 359.115 358.605, 359.943 371.905, 363.389 382 C 364.796 386.125, 365.960 390.371, 365.974 391.436 C 365.988 392.500, 366.855 394.300, 367.899 395.436 C 368.944 396.571, 370.532 399.691, 371.428 402.369 C 374.325 411.029, 373.827 410.702, 385.224 411.405 C 390.876 411.754, 398.353 412.298, 401.839 412.613 C 407.537 413.129, 408.816 412.873, 414.475 410.087 C 419.017 407.851, 422.406 405.125, 426.636 400.304 C 429.861 396.628, 434.039 391.879, 435.920 389.751 C 437.801 387.623, 441.739 384.289, 444.670 382.343 C 447.602 380.398, 450 378.443, 450 378 C 450 377.557, 452.587 375.489, 455.750 373.405 C 458.913 371.320, 464.200 367.072, 467.500 363.964 C 470.800 360.855, 476.031 356.469, 479.125 354.217 C 485.646 349.469, 494.504 341.362, 511.954 324.170 C 519.592 316.645, 526.322 310.939, 529.359 309.414 C 535.174 306.493, 547.215 303.009, 555.005 301.993 C 564.583 300.745, 580.971 290.923, 584.543 284.290 C 585.519 282.478, 587.765 279.891, 589.533 278.542 C 591.548 277.006, 596.172 270.096, 601.911 260.048 C 609.439 246.867, 610.891 243.664, 610.048 242.090 C 609.484 241.036, 608.677 240.023, 608.255 239.837 C 607.832 239.652, 605.015 236.585, 601.993 233.021 C 594.384 224.047, 592.096 221.763, 584.300 215.366 C 573.282 206.325, 567.683 203.006, 561.839 202.055 C 558.903 201.577, 553.800 200.503, 550.500 199.670 C 547.200 198.837, 541.350 197.677, 537.500 197.094 C 533.650 196.510, 528.928 195.575, 527.007 195.016 C 522.939 193.833, 490.685 193.820, 487 195" stroke="#dd8a8a" fill="#dd8a8a" fill-opacity="0.2" fill-rule="evenodd"/><path class="svg-region-SV" d="M 536 306.327 C 528.426 308.866, 523.407 312.583, 511.067 324.794 C 492.355 343.310, 488.224 347.117, 481 352.508 C 477.425 355.175, 471.575 360.117, 468 363.490 C 464.425 366.863, 458.913 371.326, 455.750 373.409 C 452.587 375.491, 450 377.557, 450 378 C 450 378.443, 447.628 380.380, 444.729 382.304 C 439.774 385.593, 437.642 387.704, 425.721 401.121 C 419.997 407.563, 414.420 410.989, 407 412.622 C 400.921 413.960, 400.223 413.853, 419.196 414.481 C 430.819 414.866, 430.934 414.894, 437.633 418.934 C 441.340 421.170, 444.925 423, 445.599 423 C 446.273 423, 449.901 424.749, 453.662 426.886 C 457.423 429.024, 462.300 431.330, 464.500 432.010 C 468.344 433.199, 474.409 437.065, 476.500 439.659 C 478.100 441.643, 485.186 447, 486.211 447 C 488.143 447, 486.392 443.601, 483.677 442.081 C 476.683 438.164, 476.423 431.652, 483.093 427.441 C 488.820 423.826, 490.585 424.444, 490.167 429.917 L 489.835 434.270 495.167 433.571 C 501.749 432.707, 503.218 432.722, 509.500 433.712 C 513.669 434.369, 514.554 434.882, 514.826 436.796 C 515.121 438.881, 515.435 438.698, 518.245 434.796 C 519.947 432.433, 522.050 429.986, 522.920 429.359 C 523.789 428.731, 525.761 427.043, 527.302 425.609 C 528.842 424.174, 530.483 423, 530.947 423 C 532.466 423, 537.829 413.591, 538.551 409.660 C 539.288 405.646, 544.233 397.175, 548.190 393.149 C 549.460 391.856, 552.413 389.894, 554.750 388.789 L 559 386.780 559 380.756 C 559 375.570, 559.661 373.408, 563.750 365.224 C 572.021 348.669, 572.415 348.003, 574.301 347.405 C 577.171 346.493, 580.141 338.471, 579.796 332.561 L 579.500 327.500 572 327.855 C 567.875 328.050, 563.978 328.634, 563.341 329.152 C 562.703 329.671, 559.610 331.409, 556.468 333.017 C 548.207 337.241, 545.771 335.588, 544.011 324.567 C 543.408 320.796, 542.484 316.905, 541.958 315.921 C 541.431 314.937, 541 312.077, 541 309.566 C 541 304.585, 541.067 304.629, 536 306.327 M 497 451.976 C 496.175 452.522, 494.488 452.976, 493.250 452.985 C 490.424 453.004, 490.464 453.756, 493.492 457.461 L 495.911 460.422 499.706 457.351 C 501.793 455.661, 503.500 453.654, 503.500 452.890 C 503.500 451.210, 499.091 450.590, 497 451.976" stroke="#c666b5" fill="#c666b5" fill-opacity="0.2" fill-rule="evenodd"/><path class="svg-region-SF" d="M 610.423 245.750 C 609.555 246.713, 605.455 253.575, 601.310 261 C 597.166 268.425, 591.913 276.349, 589.638 278.610 C 587.362 280.870, 583.747 284.847, 581.604 287.448 C 579.460 290.049, 576.649 292.658, 575.357 293.247 C 572.415 294.587, 571.006 299.391, 571.028 308 C 571.045 315.068, 573.169 321.035, 577.497 326.178 C 580.762 330.059, 580.737 334.552, 577.395 344.076 C 574.010 353.722, 574.325 363.467, 578.239 370.144 C 581.297 375.360, 590.243 384.044, 598.500 389.810 C 601.800 392.115, 605.769 395.013, 607.321 396.250 C 609.806 398.232, 611.234 398.490, 619.321 398.418 C 624.369 398.373, 631.538 397.974, 635.250 397.531 C 641.271 396.813, 642 396.491, 642 394.548 C 642 393.138, 644.873 389.571, 650.147 384.435 C 665.601 369.382, 678 352.345, 678 346.163 C 678 345.108, 678.663 343.695, 679.474 343.022 C 681.881 341.024, 682.303 335.868, 680.460 330.968 C 679.535 328.511, 678.409 322.583, 677.956 317.795 C 676.562 303.039, 673.439 292.627, 667.220 282 C 658.195 266.577, 657.086 265.550, 643 259.559 C 640.702 258.582, 637.399 256.576, 635.518 255.015 C 634.586 254.241, 631.501 252.748, 628.662 251.695 C 625.823 250.643, 622.057 249.243, 620.293 248.585 C 618.529 247.926, 616.243 246.625, 615.214 245.694 C 612.873 243.575, 612.378 243.581, 610.423 245.750" stroke="#8c6b55" fill="#8c6b55" fill-opacity="0.2" fill-rule="evenodd"/><path class="svg-region-IF" d="M 681.037 340.403 C 680.534 341.724, 679.646 343.101, 679.062 343.462 C 678.478 343.823, 678 344.905, 678 345.866 C 678 348.617, 671.899 360.028, 667.500 365.505 C 665.300 368.244, 658.663 375.462, 652.750 381.545 C 643.252 391.317, 642.003 393.007, 642.030 396.053 C 642.052 398.599, 643.032 400.580, 645.780 403.632 C 649.162 407.390, 661.938 418.138, 667.918 422.258 C 670.291 423.892, 673.114 428.284, 678.528 438.762 C 680.472 442.525, 681.995 444.202, 683.873 444.651 C 685.318 444.996, 689.375 446.566, 692.888 448.139 C 699.761 451.217, 704.482 451.710, 707.212 449.636 C 709.223 448.108, 716 438.465, 716 437.131 C 716 436.627, 716.642 435.968, 717.426 435.667 C 719.258 434.964, 727.692 422.076, 728.545 418.675 C 728.903 417.249, 729.827 415.558, 730.598 414.919 C 732.282 413.521, 732.447 406.705, 730.869 403.755 C 730.247 402.593, 729.176 399.135, 728.488 396.071 C 726.648 387.869, 725.001 384.074, 720.864 378.500 C 718.822 375.750, 716.215 371.025, 715.069 368 C 711.938 359.736, 703.514 348.005, 700.707 348.001 C 699.698 348, 689.355 340.383, 688.514 339.022 C 688.166 338.460, 686.547 338, 684.916 338 C 682.705 338, 681.718 338.611, 681.037 340.403" stroke="#f2823b" fill="#f2823b" fill-opacity="0.2" fill-rule="evenodd"/><path class="svg-region-PF" d="M 566.783 298.048 C 563.571 299.706, 558.225 301.401, 554.581 301.917 C 551.015 302.422, 546.500 303.413, 544.549 304.119 C 541.256 305.309, 541 305.702, 541 309.575 C 541 311.871, 541.675 315.662, 542.500 318 C 543.325 320.338, 544 323.478, 544 324.977 C 544 329.467, 545.943 333.653, 548.587 334.858 C 550.700 335.820, 551.962 335.543, 556.964 333.018 C 560.204 331.383, 563.139 329.585, 563.486 329.022 C 563.834 328.460, 566.454 327.993, 569.309 327.985 C 577.115 327.962, 577.759 327.152, 574.456 321.515 C 571.291 316.115, 570.021 305.207, 571.804 298.748 C 572.373 296.687, 572.763 295.022, 572.669 295.048 C 572.576 295.075, 569.927 296.424, 566.783 298.048 M 572.571 348.571 C 571.707 349.436, 571 350.627, 571 351.218 C 571 351.809, 569.502 354.590, 567.671 357.396 C 565.840 360.203, 563.103 365.465, 561.590 369.088 C 559.184 374.847, 558.889 376.672, 559.244 383.588 C 559.901 396.354, 567.010 409.653, 575.425 413.856 C 580.474 416.377, 581.798 416.490, 583.921 414.580 C 586.842 411.954, 597.454 406.407, 603 404.609 C 606.025 403.627, 609.977 402.131, 611.781 401.283 L 615.063 399.742 610.738 397.621 C 599.898 392.305, 582.685 377.717, 578.146 370 C 575.800 366.009, 575.500 364.453, 575.500 356.250 C 575.500 351.163, 575.195 347, 574.821 347 C 574.448 347, 573.436 347.707, 572.571 348.571" stroke="#faaaaa" fill="#faaaaa" fill-opacity="0.2" fill-rule="evenodd"/><path class="svg-region-AAB" d="M 654.155 415.756 C 651.673 418.840, 651.369 422.232, 653.422 423.935 C 654.204 424.584, 655.134 426.832, 655.488 428.931 C 656.172 432.978, 655.212 435.789, 650.349 443.977 C 647.182 449.308, 646.617 449.891, 641.722 452.886 C 639.606 454.181, 637.337 456.650, 636.564 458.501 C 634.797 462.730, 615.165 479, 611.829 479 C 610.714 479, 610.766 470.650, 611.888 469.450 C 612.376 468.928, 613.090 467.461, 613.474 466.191 C 614.071 464.216, 613.111 464.636, 606.836 469.090 C 602.801 471.955, 596.298 476.819, 592.385 479.899 C 588.473 482.980, 582.263 487.750, 578.586 490.500 C 562.796 502.311, 558.892 509.383, 563.680 517.500 C 564.806 519.409, 565.919 519.500, 588.180 519.500 C 611.861 519.500, 621.399 518.370, 630.500 514.485 C 632.150 513.781, 637.100 511.948, 641.500 510.413 C 645.900 508.877, 651.075 506.651, 653 505.464 C 654.925 504.278, 658.300 502.725, 660.500 502.015 C 662.700 501.304, 665.694 499.885, 667.154 498.861 C 668.614 497.838, 670.286 497, 670.869 497 C 672.785 497, 697 483.167, 697 482.072 C 697 481.658, 700.600 477.379, 705 472.562 C 709.844 467.259, 713 462.949, 713 461.637 C 713 460.445, 712.064 457.725, 710.921 455.591 C 709.778 453.458, 709.057 450.889, 709.320 449.882 C 709.766 448.180, 709.600 448.156, 706.949 449.526 C 702.990 451.574, 701.527 451.412, 693.146 447.997 C 689.102 446.348, 685.234 445, 684.551 445 C 682.912 445, 680.216 441.947, 677.611 437.141 C 676.450 434.999, 674.255 430.940, 672.733 428.123 C 671.211 425.305, 669.609 423, 669.172 423 C 668.735 423, 667.505 422.208, 666.439 421.241 C 665.372 420.274, 662.657 418.041, 660.405 416.280 L 656.310 413.078 654.155 415.756" stroke="#7f3c1a" fill="#7f3c1a" fill-opacity="0.2" fill-rule="evenodd"/><path class="svg-region-APB" d="M 630 398 C 628.625 398.440, 624.975 398.845, 621.888 398.900 C 618.037 398.969, 614.273 399.897, 609.888 401.861 C 606.375 403.434, 602.177 405.039, 600.560 405.427 C 598.944 405.816, 594.507 408.016, 590.701 410.317 C 586.895 412.617, 582.521 415.175, 580.979 416 C 577.658 417.778, 572.548 423.300, 570.338 427.500 C 569.469 429.150, 568.106 431.246, 567.309 432.157 C 564.343 435.545, 544.998 473.975, 538.111 490.159 C 533.308 501.445, 532.897 506.494, 536.291 512.487 L 538.549 516.473 545.524 516.523 C 549.361 516.550, 554.935 517.121, 557.912 517.791 C 563.781 519.113, 564.945 518.844, 563.081 516.597 C 561.138 514.257, 561.508 507.138, 563.728 504.148 C 566.494 500.422, 583.103 486.787, 601 473.550 C 602.925 472.126, 606.469 469.507, 608.875 467.731 C 613.123 464.594, 616.997 457.461, 616.999 452.773 C 617 450.583, 620.119 448.539, 627.160 446.117 C 630.214 445.066, 634.577 443.030, 636.856 441.591 C 640.374 439.370, 641 438.467, 641 435.613 C 641 433.765, 639.820 430.140, 638.377 427.559 C 635.639 422.661, 635.508 418.794, 637.874 412.750 C 638.699 410.643, 639.619 410, 641.806 410 C 644.036 410, 645.355 410.966, 647.830 414.413 C 649.574 416.841, 651.032 419.428, 651.070 420.163 C 651.122 421.143, 651.322 421.099, 651.820 420 C 652.194 419.175, 653.326 417.283, 654.336 415.795 L 656.171 413.089 652.416 409.795 C 646.556 404.654, 642.018 399.621, 642.009 398.250 C 641.999 396.835, 634.148 396.672, 630 398" stroke="#ac7444" fill="#ac7444" fill-opacity="0.2" fill-rule="evenodd"/><path class="svg-region-PC" d="M 556.500 388 C 556.160 388.550, 555.106 389, 554.157 389 C 550.038 389, 540.193 402.207, 538.092 410.548 C 536.782 415.750, 532.434 422.660, 529.946 423.491 C 526.255 424.725, 516.992 435.372, 508.587 448.042 C 506.337 451.434, 501.585 456.076, 497.268 459.100 C 495.323 460.462, 495.298 460.793, 496.648 467.356 C 498.934 478.474, 500.152 480.606, 504.638 481.341 C 508.301 481.941, 509.620 482.885, 519.664 492.098 C 521.404 493.694, 523.557 495, 524.449 495 C 525.341 495, 527.154 495.710, 528.477 496.577 C 533.169 499.651, 534.846 498.299, 539.111 488 C 541.275 482.775, 545 474.675, 547.390 470 C 560.544 444.268, 566.317 433.342, 567.470 432 C 568.179 431.175, 569.467 429.150, 570.332 427.500 C 571.198 425.850, 573.695 422.603, 575.881 420.284 L 579.856 416.069 575.494 413.890 C 573.095 412.692, 569.806 409.864, 568.187 407.606 C 565.011 403.180, 559 390.587, 559 388.362 C 559 386.776, 557.400 386.545, 556.500 388" stroke="#cda789" fill="#cda789" fill-opacity="0.2" fill-rule="evenodd"/><path class="svg-region-DB" d="M 375 411.535 C 375 411.830, 375.632 413.067, 376.404 414.285 C 377.176 415.503, 378.772 420.281, 379.950 424.902 C 382.474 434.799, 383.513 437, 385.664 437 C 386.540 437, 389.787 438.697, 392.879 440.771 C 395.970 442.845, 400.525 445.517, 403 446.709 C 405.475 447.901, 412.225 451.121, 418 453.864 C 423.775 456.607, 431.650 461.148, 435.500 463.956 C 439.350 466.764, 444.975 470.236, 448 471.672 C 451.229 473.204, 455.827 476.702, 459.135 480.141 C 462.234 483.364, 465.516 486, 466.428 486 C 467.340 486, 470.574 488.467, 473.613 491.482 C 480.959 498.769, 483.893 501, 486.135 501 C 487.666 501, 488 500.229, 488 496.691 C 488 491.996, 489.463 489.356, 492.354 488.834 C 493.374 488.650, 495.561 486.629, 497.215 484.343 C 500.216 480.195, 500.219 480.175, 498.710 475.343 C 497.879 472.679, 496.637 467.666, 495.952 464.202 C 494.897 458.866, 494.118 457.401, 490.853 454.606 C 488.734 452.792, 487 450.619, 487 449.776 C 487 448.933, 484.525 446.334, 481.500 444 C 478.475 441.666, 476 439.421, 476 439.011 C 476 437.778, 468.776 433.400, 464.500 432.043 C 462.300 431.344, 457.556 429.100, 453.957 427.056 C 450.358 425.012, 445.891 422.809, 444.029 422.160 C 442.167 421.511, 438.513 419.612, 435.908 417.941 C 431.336 415.007, 430.693 414.887, 417.323 414.458 C 409.705 414.214, 400.869 413.336, 397.688 412.507 C 392.271 411.096, 375 410.356, 375 411.535" stroke="#e8b1e4" fill="#e8b1e4" fill-opacity="0.2" fill-rule="evenodd"/><path class="svg-region-MB" d="M 384 438.800 C 384 439.790, 384.379 441.028, 384.842 441.550 C 385.304 442.072, 386.653 445.875, 387.838 450 C 389.023 454.125, 390.894 460.284, 391.996 463.687 C 393.098 467.090, 394 471.198, 394 472.815 C 394 474.432, 394.631 476.279, 395.403 476.920 C 396.175 477.560, 398.037 480.653, 399.540 483.792 C 401.044 486.931, 403.722 491.750, 405.491 494.500 C 407.260 497.250, 409.010 500.749, 409.379 502.275 C 411.478 510.948, 420.790 512.597, 473 513.543 C 479.875 513.668, 489.212 514.105, 493.750 514.514 C 502.801 515.330, 505.041 513.991, 498.102 511.912 C 493.443 510.516, 489.257 506.873, 488.403 503.470 C 487.998 501.855, 487.078 501, 485.746 501 C 484.573 501, 481.012 498.290, 477.348 494.607 C 473.849 491.091, 469.076 487.294, 466.743 486.171 C 464.409 485.047, 460.700 482.032, 458.500 479.471 C 456.040 476.606, 452.467 473.903, 449.218 472.448 C 446.314 471.147, 441.992 468.489, 439.615 466.541 C 437.239 464.593, 434.833 463, 434.269 463 C 433.706 463, 432.631 462.260, 431.881 461.356 C 431.131 460.452, 425.338 457.280, 419.008 454.307 C 403.271 446.914, 398.361 444.354, 392.331 440.394 C 386.560 436.606, 384 436.116, 384 438.800" stroke="#f9c6c6" fill="#f9c6c6" fill-opacity="0.2" fill-rule="evenodd"/><path class="svg-region-AP" d="M 551 612.361 C 551 613.263, 550.550 614, 550 614 C 548.468 614, 548.813 640.250, 550.467 649.500 C 551.254 653.900, 552.335 658.850, 552.869 660.500 C 553.403 662.150, 554.120 665.975, 554.461 669 C 554.803 672.025, 556.465 677.854, 558.154 681.952 C 562.126 691.588, 562.795 698.883, 560.488 707.407 C 558.913 713.225, 558.857 714.818, 559.993 721.459 C 561.004 727.370, 561.020 729.857, 560.069 733.254 C 559.406 735.622, 559.007 739.536, 559.182 741.952 L 559.500 746.345 566.500 748.618 C 570.350 749.869, 575.436 751.390, 577.803 751.999 C 584.503 753.722, 586.189 755.996, 585.430 762.280 C 585.083 765.151, 584.215 770.200, 583.501 773.500 C 581.027 784.923, 580.695 789.884, 582.244 792.277 C 583.036 793.500, 583.988 795.737, 584.361 797.250 C 585.299 801.058, 586.577 800.695, 589.230 795.869 C 590.478 793.597, 592.266 790.334, 593.202 788.619 C 594.138 786.903, 594.926 784.745, 594.952 783.823 C 595.029 781.138, 599.633 778.238, 604.987 777.502 C 607.709 777.127, 619.963 777.372, 632.218 778.044 C 658.213 779.472, 654.180 779.460, 666 778.141 C 677.783 776.827, 684.384 775.454, 688.292 773.504 C 689.950 772.677, 692.476 771.986, 693.904 771.968 C 695.332 771.951, 697.374 771.276, 698.441 770.468 C 699.509 769.661, 702.010 769, 704 769 C 705.990 769, 708.491 768.361, 709.559 767.581 C 711.467 766.186, 711.461 766.120, 709.250 763.766 C 708.013 762.449, 707 760.639, 707 759.745 C 707 758.850, 706.600 757.871, 706.110 757.568 C 705.621 757.266, 704.974 755.552, 704.672 753.759 C 702.569 741.289, 701.374 737.378, 698.037 732.045 C 695.497 727.985, 694.031 722.775, 694.015 717.750 L 694 713 702.750 712.948 C 711.150 712.899, 711.360 712.844, 708 711.564 C 706.075 710.830, 699.550 708.307, 693.500 705.957 C 687.450 703.606, 680.371 701.473, 677.768 701.216 C 671.812 700.628, 670.006 698.810, 673.175 696.590 C 674.423 695.716, 676.394 695, 677.553 695 C 678.712 695, 681.875 693.877, 684.581 692.504 C 688.711 690.409, 690.906 690.008, 698.264 690.004 C 703.084 690.002, 707.809 690.390, 708.764 690.866 C 712.908 692.933, 730.141 697.935, 733.261 697.976 C 734.229 697.989, 737.059 698.958, 739.549 700.128 C 742.040 701.299, 744.321 702.012, 744.619 701.714 C 745.388 700.945, 743.216 697.118, 739.595 692.861 C 734.414 686.768, 728.202 673.918, 723.511 659.588 C 721.059 652.100, 718.479 645.282, 717.777 644.438 C 714.530 640.537, 712.134 638.637, 707.500 636.293 C 704.750 634.902, 700.700 632.318, 698.500 630.550 C 696.300 628.783, 691.688 625.848, 688.250 624.029 C 684.813 622.210, 682 620.371, 682 619.942 C 682 619.514, 680.390 618.168, 678.422 616.952 C 675.117 614.909, 674.066 614.791, 664.672 615.407 C 659.077 615.774, 653.825 616.111, 653 616.155 C 652.175 616.199, 641.375 615.905, 629 615.500 C 616.625 615.095, 600.200 614.619, 592.500 614.441 C 584.800 614.264, 576.925 613.798, 575 613.407 C 573.075 613.015, 569.700 612.597, 567.500 612.477 C 565.300 612.356, 560.688 611.913, 557.250 611.490 C 551.813 610.822, 551 610.935, 551 612.361" stroke="#fc7143" fill="#fc7143" fill-opacity="0.2" fill-rule="evenodd"/><path class="svg-region-PP" d="M 479.644 609.689 C 479.540 609.793, 476.090 610.134, 471.978 610.447 C 463.502 611.093, 450.154 612.683, 442 614.019 C 438.975 614.514, 432.675 615.406, 428 616 C 415.404 617.600, 407.981 619.014, 403.500 620.666 C 395.480 623.623, 388.204 635.201, 387.265 646.501 C 386.801 652.085, 387.107 654.927, 389.989 671.825 C 390.582 675.304, 392.403 680.516, 394.034 683.406 C 396.239 687.313, 397 689.960, 397 693.722 C 397 696.627, 397.842 700.638, 398.978 703.141 C 400.066 705.538, 400.971 708.850, 400.989 710.500 C 401.036 714.855, 403.402 722.001, 407.004 728.673 C 410.259 734.701, 414.646 738, 419.406 738 C 420.684 738, 422.874 738.900, 424.273 740 C 425.671 741.100, 427.275 742, 427.837 742 C 429.779 742, 440.516 749.825, 445 754.507 C 451.171 760.953, 467.613 771, 471.988 771 C 473.889 771, 487.227 775.680, 494.519 778.905 C 497.123 780.057, 501.277 781, 503.749 781 C 508.229 781, 508.238 780.992, 506.607 778.750 C 505.706 777.513, 504.439 775.375, 503.791 774 C 503.143 772.625, 502.084 770.825, 501.436 770 C 500.789 769.175, 499.076 766.347, 497.630 763.715 C 495.388 759.636, 495 757.709, 495 750.665 C 495 745.570, 495.460 741.940, 496.200 741.200 C 496.909 740.491, 500.320 740, 504.539 740 C 511.185 740, 511.758 739.827, 512.818 737.500 C 513.445 736.125, 514.754 735.021, 515.729 735.048 C 521.411 735.201, 538.064 737.805, 539.179 738.715 C 540.783 740.024, 555.999 745.989, 557.750 745.995 C 558.565 745.998, 559 744.439, 559 741.514 C 559 739.047, 559.531 735.044, 560.180 732.617 C 561.110 729.140, 561.077 726.707, 560.024 721.129 C 558.830 714.799, 558.878 713.355, 560.476 707.449 C 562.805 698.845, 562.125 691.496, 558.116 681.954 C 556.328 677.699, 554.739 671.793, 554.370 668.032 C 554.018 664.439, 553.333 660.729, 552.849 659.786 C 549.787 653.828, 547.317 615, 550 615 C 550.550 615, 551 614.590, 551 614.089 C 551 613.588, 548.413 612.964, 545.250 612.702 C 542.087 612.440, 535.900 611.740, 531.500 611.144 C 525.006 610.266, 480.318 609.012, 479.644 609.689" stroke="#c4743d" fill="#c4743d" fill-opacity="0.2" fill-rule="evenodd"/><path class="svg-region-AVCl" d="M 694 718.514 C 694 721.546, 694.424 724.809, 694.943 725.764 C 698.583 732.471, 703 743.008, 703 744.986 C 703 746.290, 703.420 748.740, 703.932 750.429 C 704.445 752.118, 705.401 755.363, 706.056 757.640 C 706.711 759.917, 708.308 763.014, 709.604 764.523 C 711.706 766.969, 712.420 767.196, 716.230 766.631 C 718.579 766.282, 723.200 765.605, 726.500 765.126 C 732.079 764.317, 742.583 761.844, 754.500 758.535 C 757.250 757.771, 762.875 756.643, 767 756.028 C 778.563 754.303, 785.624 748.175, 777.843 746.619 C 773.034 745.657, 758.175 739.070, 752 735.163 C 738.412 726.565, 736.181 725.170, 731 722.022 C 717.931 714.081, 714.703 713.034, 703.250 713.015 L 694 713 694 718.514" stroke="#ffbab9" fill="#ffbab9" fill-opacity="0.2" fill-rule="evenodd"/><path class="svg-region-VMl" d="M 512.434 738.500 C 510.885 746.757, 512.054 748.456, 533.557 769.196 C 540.500 775.893, 541.839 776.957, 554 785.443 C 557.575 787.937, 562.254 791.333, 564.399 792.989 C 566.543 794.645, 569.378 796, 570.698 796 C 573.930 796, 578.697 798.566, 580.006 801.010 C 581.404 803.624, 582.383 803.521, 583.949 800.596 C 585.063 798.514, 584.931 797.580, 582.967 793.649 L 580.699 789.106 582.819 777.803 C 583.985 771.586, 585.232 764.164, 585.591 761.309 C 586.228 756.231, 586.170 756.074, 582.923 754.099 C 581.097 752.989, 577.483 751.626, 574.890 751.070 C 572.298 750.514, 567.775 749.146, 564.838 748.030 C 561.902 746.914, 558.742 746.001, 557.816 746.001 C 556.013 746, 545.445 741.896, 540.500 739.276 C 538.850 738.401, 533 737.103, 527.500 736.391 C 512.811 734.488, 513.197 734.434, 512.434 738.500" stroke="#e59376" fill="#e59376" fill-opacity="0.2" fill-rule="evenodd"/><path class="svg-region-PMl" d="M 254.513 721.134 C 250.013 722.187, 244.749 726.778, 242.887 731.272 C 241.702 734.134, 241.827 734.453, 245.411 737.738 C 248.677 740.731, 249.670 741.118, 252.841 740.636 C 254.853 740.329, 259.041 739.705, 262.146 739.248 C 269.620 738.149, 271 736.871, 271 731.052 C 271 727.448, 270.474 725.869, 268.750 724.299 C 263.973 719.948, 261.720 719.447, 254.513 721.134" stroke="#90cf92" fill="#90cf92" fill-opacity="0.2" fill-rule="evenodd"/><path class="svg-region-PV" d="M 258.812 597.307 C 253.215 598.720, 248.499 600.650, 245.558 602.732 C 243.047 604.509, 239.924 606.232, 238.617 606.560 C 234.803 607.517, 229.885 613.420, 227.830 619.509 L 225.926 625.149 232.091 632.102 C 235.481 635.927, 239.223 639.831, 240.405 640.778 C 243.781 643.483, 248.516 650.162, 249.778 654 C 251.716 659.894, 252.357 672.948, 251.031 679.500 C 249.791 685.628, 246.247 694, 244.894 694 C 243.989 694, 244.508 701.602, 245.884 708.500 C 246.432 711.250, 246.908 716.072, 246.940 719.216 L 247 724.933 250.250 723.061 C 254.691 720.504, 261.276 719.553, 264.175 721.050 C 269.353 723.723, 271 726.136, 271 731.052 C 271 736.796, 269.600 738.155, 262.646 739.164 C 259.816 739.574, 256.008 740.211, 254.185 740.578 C 251.452 741.129, 250.107 740.698, 246.522 738.123 C 244.130 736.405, 241.789 735, 241.320 735 C 240.527 735, 234 745.136, 234 746.368 C 234 746.673, 236.322 747.612, 239.160 748.455 C 242.942 749.578, 246.515 749.818, 252.540 749.355 C 257.062 749.008, 261.837 748.993, 263.151 749.323 C 266.444 750.150, 270.253 753.898, 269.581 755.650 C 269.118 756.855, 270.065 756.992, 275.263 756.472 C 278.693 756.129, 282.746 755.374, 284.269 754.795 C 290.124 752.568, 299.811 756.072, 300.041 760.500 C 300.231 764.154, 309.206 775.194, 313.914 777.564 C 316.321 778.776, 318.697 780.495, 319.195 781.384 C 320.435 783.600, 324.684 783.317, 329.607 780.691 C 352.673 768.384, 353.012 768.257, 366 767.005 C 381.272 765.533, 386.440 763.624, 392.802 757.107 C 394.836 755.024, 397.753 753.010, 399.285 752.632 C 400.822 752.252, 402.458 750.948, 402.935 749.722 C 403.410 748.500, 405.234 746.150, 406.989 744.500 C 409.808 741.849, 413 737.096, 413 735.550 C 413 735.247, 412.407 735, 411.681 735 C 409.700 735, 403.489 722.330, 402.122 715.500 C 401.461 712.200, 400.209 707.475, 399.339 705 C 398.470 702.525, 397.473 697.489, 397.124 693.810 C 396.612 688.417, 395.967 686.575, 393.798 684.310 C 389.317 679.630, 386.921 673.055, 387.822 667.911 C 388.248 665.485, 388.190 661.250, 387.694 658.500 C 386.415 651.407, 387.402 641.341, 389.948 635.520 C 391.146 632.781, 392.475 630.306, 392.900 630.020 C 394.315 629.070, 403 610.398, 403 608.306 C 403 605.652, 399.809 605, 386.809 605 C 381.342 605, 376.087 604.582, 375.132 604.071 C 373.129 602.999, 358.239 601.933, 339.461 601.518 C 326.774 601.237, 322.135 600.634, 307.398 597.352 C 301.970 596.144, 299.141 596.004, 295.398 596.758 C 292.597 597.322, 287.931 597.412, 284.500 596.968 C 269.793 595.064, 267.586 595.093, 258.812 597.307" stroke="#b09658" fill="#b09658" fill-opacity="0.2" fill-rule="evenodd"/><path class="svg-region-DV" d="M 223.089 627.392 C 222.454 628.158, 220.486 629.370, 218.717 630.085 C 216.948 630.800, 212.836 633.773, 209.580 636.693 C 206.323 639.612, 203.304 642, 202.870 642 C 202.050 642, 201.542 643.656, 197.893 658.230 C 195.832 666.464, 195.772 667.769, 196.844 681.230 C 197.469 689.078, 198.466 699.521, 199.060 704.435 C 199.830 710.801, 199.833 715.136, 199.071 719.516 C 197.636 727.755, 197.542 727.263, 201.429 731.915 C 204.054 735.057, 205.021 737.320, 205.551 741.563 L 206.244 747.105 209.357 746.422 C 215.670 745.035, 219.360 741.030, 222.790 731.843 C 223.952 728.732, 225.757 724.232, 226.801 721.843 C 227.845 719.454, 229.737 714.800, 231.005 711.500 C 233.938 703.869, 239.313 696.389, 242.424 695.608 C 248.203 694.158, 252.610 679.906, 251.580 666.002 C 250.575 652.442, 248.811 648.859, 237.544 637.500 C 234.220 634.149, 230.522 630.190, 229.326 628.703 C 226.921 625.713, 224.845 625.277, 223.089 627.392" stroke="#45567a" fill="#45567a" fill-opacity="0.2" fill-rule="evenodd"/><path class="svg-region-VV" d="M 282 755.001 C 272.241 757.379, 265.390 758.278, 254.029 758.674 C 247.171 758.912, 241.364 759.302, 241.127 759.540 C 240.889 759.778, 242.001 760.964, 243.597 762.178 C 245.194 763.391, 248.746 766.884, 251.492 769.942 C 260.272 779.718, 265.863 784.712, 270.743 787.136 C 275.074 789.288, 276.754 789.497, 289.500 789.467 C 301.782 789.439, 304.098 789.163, 308.377 787.217 C 311.060 785.998, 314.007 785, 314.927 785 C 316.920 785, 319 783.113, 319 781.305 C 319 780.593, 316.927 779.036, 314.393 777.845 C 309.599 775.591, 304.751 770.001, 300.985 762.382 C 299.866 760.117, 298.065 757.464, 296.985 756.486 C 294.734 754.449, 287.293 753.711, 282 755.001" stroke="#7699d1" fill="#7699d1" fill-opacity="0.2" fill-rule="evenodd"/><path class="svg-region-B" d="M 859.138 519.369 C 857.289 520.038, 855.264 521.247, 854.638 522.056 C 850.230 527.753, 824.155 543.999, 819.417 544.001 C 817.233 544.001, 808.541 547.173, 803.057 549.971 C 799.261 551.907, 795.129 556.205, 789 564.593 C 785.325 569.622, 767.457 587.991, 766.219 588.012 C 765.824 588.019, 763.648 589.707, 761.385 591.762 C 759.122 593.818, 754.920 597.300, 752.048 599.500 C 749.176 601.700, 744.104 605.663, 740.776 608.307 C 737.448 610.951, 732.329 614.647, 729.401 616.520 C 721.646 621.481, 718.608 626.593, 718.174 635.410 C 717.862 641.737, 718.361 644.130, 722.811 657.653 C 728.162 673.911, 734.080 686.389, 739.398 692.623 C 741.218 694.755, 743.452 697.949, 744.363 699.720 C 746.507 703.886, 748.277 704.805, 761.500 708.616 C 767.550 710.360, 778.800 713.657, 786.500 715.943 C 810.417 723.043, 808.700 722.764, 823.218 721.898 C 830.523 721.463, 840.550 721.083, 845.500 721.055 L 854.500 721.004 867.500 714.373 C 874.650 710.726, 882.075 706.295, 884 704.527 C 885.925 702.759, 888.974 700.732, 890.776 700.024 C 894.906 698.400, 902.699 689.853, 905.235 684.167 C 906.990 680.230, 907.136 677.852, 906.834 658.167 C 906.449 633.156, 906.261 632.509, 896.143 621.185 C 893.039 617.711, 889.885 613.715, 889.133 612.304 C 887.660 609.541, 884.971 599.596, 882.020 586 C 878.401 569.326, 877.114 564.080, 876.207 562.302 C 875.702 561.311, 874.759 558.250, 874.112 555.500 C 873.465 552.750, 872.306 549.150, 871.535 547.500 C 870.765 545.850, 869.610 539.933, 868.967 534.350 C 868.229 527.926, 867.108 523.063, 865.915 521.100 C 863.819 517.655, 863.852 517.663, 859.138 519.369" stroke="#e23b33" fill="#e23b33" fill-opacity="0.2" fill-rule="evenodd"/><path class="svg-region-SB" d="M 846 190 C 845.175 190.533, 843.506 190.976, 842.292 190.985 C 838.908 191.008, 832.391 197.820, 831.077 202.707 C 829.773 207.559, 830.508 220.708, 832.541 228.883 C 834.967 238.639, 844.383 252.038, 854.500 260.132 C 857.800 262.773, 861.962 266.117, 863.750 267.565 C 865.538 269.013, 867 270.998, 867 271.976 C 867 272.955, 867.658 274.301, 868.461 274.968 C 869.265 275.635, 870.201 277.152, 870.541 278.340 C 871.498 281.682, 875.027 291.013, 877.220 296 C 881.541 305.826, 890.539 308.423, 903.359 303.545 C 913.572 299.659, 919.082 294.526, 922.961 285.285 C 925.969 278.120, 926.180 276.788, 926.719 261.591 C 927.366 243.335, 926.247 236.531, 920.699 225 C 917.188 217.701, 906.453 206.292, 899.998 202.999 C 897.863 201.910, 894.452 199.890, 892.419 198.509 C 890.385 197.129, 887.759 196, 886.583 196 C 885.407 196, 883.557 195.384, 882.473 194.630 C 881.388 193.877, 878.925 193.021, 877 192.729 C 875.075 192.436, 869.450 191.479, 864.500 190.602 C 854.266 188.789, 848.180 188.591, 846 190" stroke="#d2e400" fill="#d2e400" fill-opacity="0.2" fill-rule="evenodd"/><path class="svg-region-VOC" d="M 496.500 485 C 494.975 487.200, 492.905 489, 491.899 489 C 490.893 489, 489.605 489.870, 489.035 490.934 C 487.679 493.468, 487.705 502.580, 489.076 505.141 C 490.509 507.819, 493.747 511, 495.040 511 C 495.612 511, 497.749 511.843, 499.790 512.873 C 503.909 514.953, 529.263 517.497, 534.809 516.388 L 537.921 515.766 535.961 511.923 C 534.793 509.634, 534 506.073, 534 503.119 C 534 498.425, 533.840 498.124, 531.011 497.503 C 529.368 497.142, 527.766 496.431, 527.452 495.923 C 527.139 495.415, 526.029 495, 524.986 495 C 523.944 495, 522.031 493.988, 520.735 492.750 C 518.007 490.144, 509.301 482.844, 507.635 481.765 C 507.011 481.361, 504.874 481.024, 502.886 481.015 C 499.791 481.002, 498.874 481.574, 496.500 485" stroke="#ff8f93" fill="#ff8f93" fill-opacity="0.2" fill-rule="evenodd"/><path class="svg-region-OABl" d="M 637.874 412.750 C 635.541 418.711, 635.670 422.552, 638.385 427.958 C 641.270 433.701, 641.641 436.777, 639.750 439.256 C 638.312 441.139, 630.356 445.184, 624.500 447.007 C 619.453 448.579, 617.354 450.402, 616.667 453.810 C 615.518 459.515, 612.769 468.543, 611.905 469.450 C 610.560 470.861, 610.777 479, 612.159 479 C 615.375 479, 634.880 462.531, 636.633 458.336 C 637.389 456.527, 639.379 454.338, 641.057 453.471 C 646.340 450.739, 649.946 446.099, 654.598 436.048 C 656.546 431.840, 655.890 426.576, 653.040 423.542 C 651.918 422.348, 651 420.701, 651 419.883 C 651 419.064, 649.611 416.505, 647.913 414.197 C 645.504 410.920, 644.183 410, 641.889 410 C 639.611 410, 638.709 410.618, 637.874 412.750" stroke="#81244d" fill="#81244d" fill-opacity="0.2" fill-rule="evenodd"/><path class="svg-region-SOTr" d="M 482.768 427.541 C 476.523 431.666, 476.775 438.674, 483.280 441.802 C 485.882 443.052, 486.612 444.572, 487.220 450 C 487.485 452.364, 487.799 452.487, 493 452.255 C 507.028 451.632, 505.851 452.107, 510.634 445.138 C 513.035 441.639, 515 437.745, 515 436.484 C 515 434.463, 514.381 434.122, 509.750 433.592 C 501.959 432.700, 500.982 432.696, 495.166 433.532 L 489.832 434.299 490.166 429.899 C 490.454 426.109, 490.223 425.471, 488.500 425.288 C 487.400 425.172, 484.821 426.185, 482.768 427.541" stroke="#995b45" fill="#995b45" fill-opacity="0.2" fill-rule="evenodd"/><path class="svg-region-BPCl" d="M 926 624.068 C 924.625 624.471, 921.603 624.845, 919.284 624.900 C 913.890 625.028, 908 627.787, 908 630.185 C 908 631.183, 907.641 632, 907.201 632 C 906.762 632, 906.592 642.724, 906.823 655.831 C 907.212 677.906, 907.098 679.988, 905.273 684.081 C 902.704 689.842, 894.931 698.390, 890.776 700.024 C 888.974 700.732, 885.925 702.759, 884 704.527 C 882.075 706.295, 874.650 710.726, 867.500 714.373 L 854.500 721.004 845.500 721.055 C 840.550 721.083, 830.523 721.463, 823.218 721.898 C 810.736 722.643, 802.826 721.865, 799.031 719.519 C 798.506 719.195, 795.021 718.121, 791.288 717.133 C 787.555 716.146, 777.423 713.237, 768.774 710.669 C 760.125 708.101, 752.545 706, 751.929 706 C 751.313 706, 749.614 705.177, 748.154 704.171 C 744.440 701.611, 735.833 698.491, 727 696.503 C 722.875 695.575, 718.193 694.182, 716.596 693.408 C 714.999 692.633, 712.663 692, 711.405 692 C 710.147 692, 708.840 691.550, 708.500 691 C 708.160 690.450, 703.713 690, 698.610 690 C 690.706 690, 688.614 690.368, 684.419 692.496 C 681.714 693.869, 678.537 694.994, 677.361 694.996 C 676.184 694.998, 674.159 695.891, 672.861 696.980 C 670.846 698.669, 670.720 699.107, 672 699.964 C 672.825 700.517, 674.866 700.976, 676.535 700.985 C 679.590 701, 688.092 703.677, 695.500 706.957 C 697.700 707.930, 704 710.244, 709.500 712.099 C 715 713.953, 721.525 716.700, 724 718.203 C 726.475 719.707, 730.300 721.897, 732.500 723.071 C 734.700 724.245, 738.750 726.673, 741.500 728.467 C 755.132 737.358, 758.268 739.121, 766.551 742.549 L 775.491 746.250 782.495 744.612 C 792.922 742.174, 796.467 742.529, 806.500 747.013 C 814.923 750.777, 845.368 756.032, 847.338 754.062 C 847.922 753.478, 849.997 752.997, 851.950 752.994 C 857.440 752.986, 862.765 751.162, 867.853 747.548 C 870.409 745.732, 875.200 742.962, 878.500 741.393 C 887.789 736.977, 898.143 730.209, 902 726.033 C 903.925 723.948, 907.427 720.158, 909.781 717.610 C 912.136 715.062, 917.146 710.734, 920.915 707.992 C 927.319 703.335, 931 698.502, 931 694.754 C 931 693.960, 931.900 692.495, 933 691.500 C 934.100 690.505, 935 689.087, 935 688.349 C 935 687.611, 935.989 684.194, 937.198 680.754 C 939.706 673.618, 940.111 660.072, 938.139 649.250 C 937.512 645.813, 936.635 640.413, 936.189 637.250 C 935.432 631.886, 931.845 624.631, 929.500 623.723 C 928.950 623.510, 927.375 623.665, 926 624.068" stroke="#83385f" fill="#83385f" fill-opacity="0.2" fill-rule="evenodd"/><path class="svg-region-AMC" d="M 496.200 741.200 C 495.460 741.940, 495 745.570, 495 750.665 C 495 759.852, 494.821 759.418, 506.542 778.713 C 507.616 780.481, 509.396 782.338, 510.497 782.841 C 522.489 788.315, 526.252 790.715, 531.641 796.327 C 534.902 799.722, 538.655 804.075, 539.980 806 C 541.306 807.925, 544.008 811.368, 545.985 813.652 C 547.962 815.935, 550.773 820.242, 552.232 823.222 C 553.691 826.201, 557.498 831.869, 560.693 835.816 C 566.037 842.422, 566.801 842.994, 570.272 842.997 C 575.281 843.001, 581.960 836.944, 585.543 829.147 C 587.866 824.090, 588.012 823.117, 586.936 819.831 C 586.210 817.617, 585.918 812.977, 586.199 808.124 C 586.544 802.164, 586.333 799.958, 585.383 799.594 C 584.679 799.323, 583.811 800.021, 583.454 801.145 C 582.819 803.145, 582.750 803.137, 580.153 800.716 C 576.745 797.541, 573.722 796.006, 570.816 795.976 C 569.542 795.962, 566.475 794.390, 564 792.481 C 561.525 790.572, 557.700 787.821, 555.500 786.368 C 547.349 780.984, 537.396 773.120, 533.984 769.367 C 532.050 767.240, 528.142 763.557, 525.299 761.183 C 517.531 754.694, 512.884 748.551, 512.268 743.959 L 511.737 740 504.568 740 C 500.326 740, 496.910 740.490, 496.200 741.200" stroke="#9d4741" fill="#9d4741" fill-opacity="0.2" fill-rule="evenodd"/><path class="svg-region-VSl" d="M 236.677 700.606 C 234.789 703.208, 230.873 711.448, 227.975 718.918 C 219.393 741.037, 216.806 744.818, 209.115 746.485 C 202.304 747.961, 195.957 751.999, 192.919 756.789 C 191.313 759.321, 190 761.965, 190 762.665 C 190 763.365, 189.017 765.825, 187.815 768.131 C 186 771.612, 185.653 773.839, 185.769 781.267 C 185.918 790.834, 187.465 795, 190.868 795 C 193.273 795, 195.126 792.757, 198.715 785.500 C 208.409 765.902, 210.145 763.546, 217.597 759.878 C 223.220 757.109, 224.540 756.829, 228.738 757.516 C 231.357 757.945, 241.061 758.398, 250.302 758.524 C 263.860 758.708, 267.384 758.473, 268.552 757.305 C 270.574 755.283, 270.390 754.454, 267.250 751.448 C 264.556 748.869, 264.292 748.827, 254.244 749.352 C 246.699 749.747, 242.646 749.490, 238.911 748.381 C 233.055 746.642, 233.045 746.897, 239.331 737.238 C 241.742 733.532, 244.454 729.060, 245.358 727.300 C 247.230 723.650, 247.463 714.869, 245.868 708 C 245.294 705.525, 244.751 701.925, 244.662 700 C 244.533 697.219, 244.049 696.436, 242.305 696.188 C 240.662 695.954, 239.247 697.064, 236.677 700.606" stroke="#959faf" fill="#959faf" fill-opacity="0.2" fill-rule="evenodd"/>
    </svg>