<svg xmlns="http://www.w3.org/2000/svg" width="1078" height="1151" viewBox="0 0 1078 1151" version="1.1">
    <path class="svg-region-V" d="M 484.975 183.137 C 484.950 184.538, 470.194 190, 466.434 190 C 462.887 190, 443.331 200.508, 436.291 206.196 C 428.182 212.747, 422.718 219.632, 417.002 230.500 C 414.688 234.900, 412.034 239.400, 411.105 240.500 C 410.175 241.600, 408.084 245.420, 406.457 248.988 C 402.118 258.509, 384.650 283.430, 381.458 284.655 C 380.656 284.962, 380 285.604, 380 286.081 C 380 286.924, 378.265 290.538, 368.620 309.784 C 364.153 318.698, 358 338.700, 358 344.309 C 358 345.724, 357.550 347.160, 357 347.500 C 355.284 348.560, 355.868 355.226, 357.870 357.436 C 358.899 358.571, 360.533 362.875, 361.503 367 C 362.473 371.125, 363.826 375.175, 364.511 376 C 366.414 378.294, 370 389.243, 370 392.762 C 370 395.175, 371.022 396.848, 374.471 400.081 C 380.728 405.945, 381.456 406.380, 391.768 410.409 C 402.362 414.549, 405.810 414.791, 413.452 411.932 C 420.388 409.337, 426.259 403.625, 428.474 397.320 C 429.405 394.669, 431.455 389.350, 433.030 385.500 C 434.606 381.650, 437.279 374.845, 438.970 370.379 C 440.662 365.912, 443.187 360.962, 444.580 359.379 C 445.974 357.795, 448.229 354.634, 449.591 352.354 C 452.940 346.748, 477.274 324.415, 482.601 322.058 C 486.328 320.410, 490.125 317.541, 495.967 311.961 C 496.853 311.114, 500.121 307.289, 503.229 303.461 C 512.907 291.538, 515.286 289.378, 522 286.419 C 530.734 282.568, 535.527 282.682, 545 286.965 C 549.770 289.121, 554.624 290.519, 558.336 290.804 C 563.585 291.208, 564.931 290.867, 571.741 287.410 C 580.469 282.980, 588.460 276.072, 594.772 267.500 C 598.759 262.086, 606.716 253.246, 610.166 250.399 C 610.900 249.794, 612.741 247.881, 614.258 246.149 C 615.774 244.417, 617.687 243, 618.508 243 C 621.504 243, 619.908 239.059, 615.424 235.385 C 612.908 233.322, 609.773 229.513, 608.459 226.919 C 605.723 221.521, 601.134 217.416, 592.966 213.062 C 589.830 211.391, 586.700 209.343, 586.010 208.512 C 585.320 207.680, 584.116 207, 583.336 207 C 582.555 207, 580.923 206.070, 579.708 204.932 C 578.494 203.795, 574.888 201.469, 571.695 199.764 C 568.502 198.058, 565.449 195.839, 564.910 194.831 C 564.313 193.716, 562.819 193, 561.087 193 C 559.524 193, 557.685 192.325, 557 191.500 C 556.315 190.675, 554.671 190, 553.345 190 C 552.020 190, 549.299 189.316, 547.298 188.480 C 545.297 187.644, 540.474 186.761, 536.580 186.517 C 532.686 186.274, 525.450 185.549, 520.500 184.905 C 515.550 184.262, 507 183.578, 501.500 183.386 C 496 183.194, 490.038 182.753, 488.250 182.405 C 485.868 181.942, 484.993 182.137, 484.975 183.137" stroke="#dd8a8a" fill="#dd8a8a" fill-opacity="0.2" fill-rule="evenodd"/><path class="svg-region-SV" d="M 527 284.217 C 525.625 284.813, 522.475 286.194, 520 287.288 C 515.386 289.327, 507.827 296.548, 502.500 304.005 C 498.052 310.232, 487.305 319.938, 482.612 321.967 C 478.990 323.534, 472.955 328.594, 457.139 343.329 C 454.740 345.564, 451.637 349.217, 450.242 351.446 C 448.848 353.676, 446.497 356.894, 445.018 358.598 C 442.550 361.440, 432.511 384.793, 429.509 394.678 C 428.810 396.975, 427.285 400.195, 426.120 401.832 C 424.954 403.469, 424 405.060, 424 405.367 C 424 405.674, 426.900 405.654, 430.445 405.323 C 436.456 404.762, 437.217 404.930, 441.737 407.831 C 445.686 410.365, 446.928 411.898, 448.441 416.106 C 451.879 425.666, 458.661 431.081, 469.772 433.135 C 472.900 433.713, 476.819 434.891, 478.480 435.752 C 482.402 437.785, 488 439.043, 488 437.891 C 488 437.397, 485.975 436.451, 483.500 435.789 C 480.180 434.901, 479 434.090, 479 432.697 C 479 431.658, 478.080 429.517, 476.956 427.939 C 475.096 425.327, 475.043 424.819, 476.361 422.285 C 477.158 420.753, 478.912 418.471, 480.259 417.213 L 482.708 414.925 485.926 417.931 C 489.150 420.942, 492.057 421.876, 499.473 422.282 C 503.804 422.520, 503.446 422.953, 512 407.126 C 513.921 403.572, 515.144 402.426, 517.281 402.181 C 518.856 402, 521.891 400.112, 524.281 397.828 C 526.601 395.609, 529.388 393.166, 530.473 392.397 C 533.648 390.148, 539.227 390.760, 546.110 394.114 C 554.171 398.042, 553.716 397.779, 560.356 402.329 C 563.429 404.434, 566.716 406.009, 567.659 405.827 C 568.603 405.645, 570.685 402.840, 572.286 399.593 C 574.860 394.373, 575.012 393.586, 573.599 392.795 C 571.602 391.678, 571.577 387.144, 573.552 384.531 C 574.371 383.448, 575.488 380.901, 576.035 378.872 C 576.581 376.842, 578.385 373.728, 580.044 371.953 C 582.688 369.122, 582.886 368.525, 581.651 367.112 C 579.557 364.717, 576.750 358.909, 576.043 355.505 C 575.540 353.089, 574.346 351.994, 569.868 349.848 C 563.611 346.848, 561.003 342.880, 560.996 336.349 C 560.994 334.232, 560.094 331.027, 558.996 329.226 C 557.551 326.855, 557 324.188, 557 319.557 C 557 315.432, 556.412 312.137, 555.343 310.275 C 554.333 308.515, 553.931 306.433, 554.312 304.944 C 555.087 301.924, 564.127 295.077, 569.430 293.494 C 572.567 292.557, 573.601 291.626, 574.552 288.880 L 575.743 285.439 570.122 288.300 C 565.373 290.716, 563.568 291.103, 558.500 290.790 C 555.200 290.586, 550.925 289.606, 549 288.613 C 543.589 285.821, 534.966 282.993, 532.093 283.068 C 530.667 283.105, 528.375 283.622, 527 284.217 M 490.235 439.667 C 489.340 440.028, 489.705 441.050, 491.485 443.165 C 492.868 444.809, 494 447.019, 494 448.077 C 494 451.475, 495.888 450.129, 497.021 445.924 C 498.576 440.147, 495.678 437.475, 490.235 439.667" stroke="#c666b5" fill="#c666b5" fill-opacity="0.2" fill-rule="evenodd"/><path class="svg-region-SF" d="M 618.579 243.733 C 616.972 243.971, 614.764 245.302, 613.672 246.690 C 612.580 248.078, 611.044 249.728, 610.259 250.357 C 606.932 253.022, 598.869 261.934, 594.750 267.500 C 590.910 272.688, 587.121 276.470, 576.250 285.964 C 574.174 287.777, 574.002 288.762, 574.024 298.714 C 574.044 307.998, 574.402 310.336, 576.592 315.500 C 577.991 318.800, 580.220 324.394, 581.545 327.932 L 583.953 334.363 580.274 339.906 C 575.432 347.202, 574.659 354.599, 578.017 361.534 C 580.434 366.528, 586.231 371.418, 591.440 372.856 C 593.181 373.337, 595.932 374.963, 597.553 376.471 C 599.174 377.978, 603.055 380.504, 606.177 382.083 C 609.300 383.663, 612.139 385.415, 612.486 385.978 C 613.298 387.292, 617.692 387.308, 618.500 386 C 618.840 385.450, 620.190 385, 621.500 385 C 622.810 385, 624.142 384.580, 624.459 384.066 C 624.777 383.552, 627.497 382.416, 630.503 381.542 C 633.510 380.668, 637.889 378.704, 640.235 377.176 C 642.581 375.649, 647.425 372.539, 651 370.264 C 668.586 359.076, 678.946 350.085, 679.073 345.903 C 679.194 341.936, 682.347 337.536, 685.322 337.184 C 689.405 336.701, 689.875 332.903, 686.642 326.517 C 685.189 323.648, 684 320.390, 684 319.277 C 684 317.382, 681.347 311.027, 678.665 306.500 C 678.013 305.400, 675.849 301.752, 673.855 298.393 C 671.862 295.034, 669.009 288.734, 667.516 284.393 C 662 268.351, 662.112 268.504, 647.222 256.669 C 631.542 244.206, 627.549 242.403, 618.579 243.733" stroke="#8c6b55" fill="#8c6b55" fill-opacity="0.2" fill-rule="evenodd"/><path class="svg-region-IF" d="M 682.314 338.250 C 680.152 341.613, 678.999 344.426, 678.989 346.364 C 678.975 349.205, 667.021 360.104, 656.904 366.500 C 640.676 376.759, 634.324 380.408, 630.649 381.581 C 623.610 383.828, 617.894 386.003, 614.740 387.634 C 612.519 388.783, 610.318 389.020, 606.409 388.532 C 601.923 387.971, 600.653 388.197, 598.239 389.981 C 596.147 391.528, 592.637 392.417, 585.149 393.297 L 574.916 394.500 571.958 399.910 C 570.331 402.885, 569 405.473, 569 405.660 C 569 405.847, 571.673 406, 574.941 406 C 578.209 406, 581.160 406.450, 581.500 407 C 582.549 408.697, 585.223 408.118, 589.265 405.316 C 595.548 400.962, 614.446 397.563, 618.955 399.976 C 620.184 400.633, 625.534 401.385, 630.845 401.645 C 643.032 402.244, 656.105 405.344, 662.265 409.097 C 664.886 410.694, 667.382 412, 667.812 412 C 669.121 412, 675.546 419.252, 678 423.500 C 682.005 430.433, 687.001 435, 690.581 435 C 692.327 435, 695.371 435.675, 697.346 436.500 C 702.819 438.787, 705.870 438.326, 713.500 434.059 C 721.170 429.769, 729.712 422.001, 733.692 415.695 C 735.949 412.121, 736.186 410.893, 735.742 405.077 C 735.293 399.189, 733.074 391.129, 729.527 382.500 C 724.536 370.360, 723.610 369.087, 709.489 354.955 C 701.631 347.090, 693.694 339.852, 691.851 338.870 C 687.915 336.772, 683.451 336.482, 682.314 338.250" stroke="#f2823b" fill="#f2823b" fill-opacity="0.2" fill-rule="evenodd"/><path class="svg-region-PF" d="M 565.174 295.035 C 554.828 301.343, 551.963 305.925, 555.468 310.559 C 556.412 311.806, 556.948 314.904, 556.968 319.226 C 556.991 324.145, 557.536 326.831, 558.996 329.226 C 560.094 331.027, 560.994 334.202, 560.996 336.282 C 561.003 343.244, 563.239 346.647, 569.940 349.893 C 575.919 352.789, 576 352.799, 576.022 350.664 C 576.048 348.050, 579.500 340.210, 581.690 337.790 C 583.952 335.290, 582.963 329.875, 578.418 319.873 C 575.096 312.565, 574.558 310.324, 574.187 302.250 C 573.763 293.034, 573.752 293, 571.131 293.004 C 569.684 293.006, 567.003 293.920, 565.174 295.035 M 579.967 372.035 C 578.408 373.704, 576.588 376.742, 575.924 378.785 C 575.259 380.828, 574.104 383.388, 573.358 384.473 C 571.117 387.727, 571.642 391.880, 574.455 393.161 C 578.248 394.890, 594.392 392.826, 598.011 390.150 C 600.456 388.342, 601.727 388.143, 607.419 388.675 C 616.515 389.524, 615.973 386.968, 606 381.984 C 603.525 380.748, 599.811 378.220, 597.747 376.368 C 595.683 374.516, 593.208 372.998, 592.247 372.996 C 591.286 372.994, 589.027 372.094, 587.226 370.996 C 585.425 369.898, 583.693 369, 583.377 369 C 583.061 369, 581.527 370.366, 579.967 372.035" stroke="#faaaaa" fill="#faaaaa" fill-opacity="0.2" fill-rule="evenodd"/><path class="svg-region-AAB" d="M 647.182 405.292 C 645.171 407.740, 645.482 410.027, 648 411.306 C 650.403 412.527, 650.486 412.884, 650.128 420.492 C 649.707 429.457, 646.425 439.507, 642.313 444.423 C 640.897 446.115, 637.660 448.983, 635.119 450.796 C 632.579 452.608, 629.150 455.791, 627.500 457.869 C 622.460 464.215, 621.184 465.193, 618.898 464.468 C 616.154 463.597, 610.466 468.964, 604.132 478.400 C 601.584 482.195, 598.715 486.470, 597.755 487.900 C 596.796 489.330, 595.997 491.175, 595.980 492 C 595.908 495.576, 589.343 502.121, 582.013 505.927 C 570.459 511.926, 571.125 512.385, 590.122 511.530 C 599.130 511.124, 607.258 510.389, 608.184 509.896 C 609.111 509.403, 611.416 509, 613.307 509 C 616.386 509, 619.561 507.922, 629.500 503.502 C 631.150 502.768, 635.425 501.197, 639 500.012 C 642.575 498.826, 647.903 496.511, 650.839 494.869 C 655.683 492.159, 662.336 489.316, 676.499 483.901 C 679.249 482.850, 682.174 481.181, 682.999 480.193 C 683.825 479.205, 686.413 477.176, 688.750 475.684 C 691.087 474.192, 693 472.563, 693 472.063 C 693 471.563, 694.292 469.861, 695.872 468.282 C 697.452 466.702, 700.172 462.665, 701.918 459.311 C 704.768 453.834, 705.062 452.472, 704.796 445.939 L 704.500 438.666 699.500 436.910 C 696.750 435.945, 693.192 435.120, 691.594 435.078 C 687.456 434.967, 682.604 430.867, 678.673 424.160 C 674.040 416.256, 671.098 413.559, 662.160 409.028 C 653.598 404.686, 648.687 403.461, 647.182 405.292" stroke="#7f3c1a" fill="#7f3c1a" fill-opacity="0.2" fill-rule="evenodd"/><path class="svg-region-APB" d="M 605.500 399.925 C 604.400 400.364, 601.391 401.034, 598.813 401.413 C 596.236 401.793, 592.497 403.210, 590.505 404.561 C 588.513 405.913, 584.997 407.959, 582.692 409.109 C 580.386 410.259, 575.227 414.416, 571.227 418.347 C 564.929 424.537, 563.545 426.568, 560.897 433.498 C 559.216 437.899, 556.798 443.750, 555.523 446.500 C 554.249 449.250, 551.511 455.550, 549.439 460.500 C 547.367 465.450, 543.216 473.883, 540.214 479.241 C 532.083 493.753, 532.167 501.582, 540.545 510.208 L 544.096 513.864 553.298 513.398 C 568.476 512.630, 569.508 512.394, 579.750 507.352 C 587.893 503.344, 590.163 501.705, 592.804 497.930 C 594.562 495.417, 596.002 492.717, 596.005 491.930 C 596.008 491.144, 596.796 489.323, 597.755 487.885 C 598.715 486.447, 601.273 482.622, 603.441 479.385 C 605.608 476.148, 609.607 471.174, 612.327 468.331 L 617.272 463.161 615.265 460.610 C 613.538 458.414, 613.394 457.461, 614.235 453.779 C 614.773 451.426, 615.151 447.375, 615.077 444.778 C 614.948 440.324, 615.179 439.883, 619.120 437.028 C 621.446 435.343, 624.565 434, 626.150 434 C 627.718 434, 629.923 433.212, 631.050 432.250 C 638.233 426.119, 639.888 424.070, 640.992 419.950 C 641.648 417.503, 643.508 412.853, 645.126 409.617 C 646.744 406.382, 647.839 403.506, 647.560 403.227 C 647.281 402.947, 641.223 402.365, 634.097 401.933 C 626.972 401.500, 620.240 400.664, 619.137 400.073 C 616.829 398.838, 608.452 398.747, 605.500 399.925" stroke="#ac7444" fill="#ac7444" fill-opacity="0.2" fill-rule="evenodd"/><path class="svg-region-PC" d="M 526.800 395.567 C 524.324 398.078, 520.543 400.727, 518.399 401.453 C 514.903 402.637, 513.903 403.837, 508.725 413.063 L 502.949 423.352 505.975 426.474 C 511.038 431.698, 509.336 436.954, 501.766 439.474 C 495.641 441.513, 493.455 455.575, 497.136 469.250 C 498.203 473.212, 498.806 474, 500.773 474 C 504.313 474, 506.621 475.559, 514.405 483.210 C 518.307 487.046, 522.850 490.875, 524.500 491.719 C 526.150 492.563, 528.962 494.828, 530.750 496.752 L 534 500.251 534.010 495.876 C 534.021 491.062, 536.526 485.034, 542.692 474.987 C 544.890 471.404, 547.257 466.751, 547.952 464.646 C 548.647 462.541, 551.582 455.572, 554.475 449.159 C 557.368 442.747, 560.539 435.025, 561.522 432 C 562.905 427.743, 564.913 424.840, 570.405 419.154 C 574.307 415.114, 578.769 411.148, 580.321 410.342 C 582.614 409.150, 582.918 408.606, 581.948 407.438 C 581.102 406.418, 578.539 406, 573.128 405.998 C 565.805 405.997, 565.280 405.836, 560 401.982 C 556.975 399.775, 553.605 397.670, 552.511 397.305 C 551.417 396.940, 548.109 395.372, 545.159 393.821 C 541.719 392.011, 538.275 391, 535.550 391 C 531.831 391, 530.742 391.568, 526.800 395.567" stroke="#cda789" fill="#cda789" fill-opacity="0.2" fill-rule="evenodd"/><path class="svg-region-DB" d="M 372.311 401.530 C 372.796 404.519, 380.582 421.367, 382.926 424.500 C 383.338 425.050, 384.721 428.425, 386 432 C 388.951 440.247, 388.958 440.256, 394.427 441.871 C 398.481 443.067, 399.302 443.032, 401.539 441.567 C 403.917 440.008, 404.288 440.026, 407.784 441.873 C 409.828 442.952, 413.975 444.636, 417 445.615 C 420.025 446.594, 423.850 448.360, 425.500 449.539 C 428.367 451.587, 444.463 460.941, 450.255 463.924 C 451.770 464.705, 454.470 466.782, 456.255 468.539 C 459.175 471.415, 471.190 479.272, 478.213 482.898 C 480.763 484.214, 481.090 484.116, 483.808 481.205 C 485.396 479.505, 487.889 477.815, 489.348 477.449 C 490.806 477.083, 492 476.418, 492 475.971 C 492 475.524, 493.394 474.853, 495.099 474.478 C 497.804 473.884, 498.132 473.461, 497.681 471.149 C 496.631 465.767, 494.975 455.359, 494.420 450.653 C 493.377 441.811, 486.839 437.182, 470 433.363 C 458.365 430.725, 451.234 424.800, 448.038 415.115 C 447.026 412.050, 445.475 410.168, 442.085 407.891 C 437.778 404.998, 437.083 404.844, 430.622 405.358 C 425.525 405.763, 422.807 406.554, 420.122 408.412 C 415.541 411.582, 408.732 414, 404.388 414 C 398.429 414, 382.357 407.074, 377.224 402.294 C 374.688 399.932, 372.416 398, 372.176 398 C 371.935 398, 371.996 399.589, 372.311 401.530" stroke="#e8b1e4" fill="#e8b1e4" fill-opacity="0.2" fill-rule="evenodd"/><path class="svg-region-MB" d="M 401.173 441.724 C 399.239 443.072, 398.298 443.148, 395.602 442.173 C 390.990 440.505, 389.642 440.658, 390.523 442.750 C 392.719 447.967, 394.149 456.475, 394.095 464 C 394.043 471.295, 394.378 473.067, 396.459 476.500 C 397.793 478.700, 400.719 484.100, 402.961 488.500 C 408.706 499.773, 412.204 502.066, 425.003 502.954 C 430.266 503.319, 435.049 503.912, 435.633 504.273 C 436.216 504.633, 445.650 504.969, 456.597 505.019 C 467.543 505.069, 479.519 505.566, 483.208 506.125 C 486.897 506.684, 491.135 506.997, 492.625 506.820 C 495.174 506.519, 494.977 506.250, 489.292 502.274 C 482.461 497.496, 479.477 492.608, 480.299 487.543 C 480.808 484.409, 480.629 484.240, 470.694 478.470 C 465.126 475.237, 458.818 470.941, 456.677 468.924 C 454.535 466.907, 448.894 463.106, 444.142 460.478 C 439.389 457.850, 432.448 453.743, 428.719 451.350 C 424.989 448.958, 421.548 447, 421.072 447 C 420.597 447, 416.898 445.623, 412.854 443.940 C 408.809 442.256, 405.050 440.704, 404.500 440.490 C 403.950 440.276, 402.453 440.831, 401.173 441.724" stroke="#f9c6c6" fill="#f9c6c6" fill-opacity="0.2" fill-rule="evenodd"/><path class="svg-region-AP" d="M 545.378 616 C 546.840 637.740, 549.156 654.444, 551.200 657.986 C 557.256 668.484, 565.033 705.588, 562.833 713.493 C 561.758 717.355, 561.744 739, 562.816 739 C 563.265 739, 564.680 740.913, 565.962 743.250 C 567.243 745.587, 570.399 749.975, 572.975 753 C 578.025 758.931, 580.167 763.644, 579.308 766.932 C 578.868 768.615, 579.232 769, 581.261 769 C 582.633 769, 585.281 769.637, 587.144 770.416 C 593.359 773.012, 610.439 774.311, 630.500 773.712 C 669.911 772.535, 687.626 769.391, 704.500 760.579 C 706.150 759.717, 708.254 759.010, 709.174 759.006 C 712.078 758.995, 729.456 754.814, 730.450 753.886 C 730.972 753.399, 732.163 753, 733.095 753 C 735.302 753, 743.701 743.630, 746.092 738.500 C 747.117 736.300, 747.967 733.375, 747.980 732 C 748.004 729.534, 747.909 729.505, 740.872 729.837 C 735.973 730.069, 732.762 729.704, 730.619 728.671 C 728.904 727.844, 725.592 726.663, 723.260 726.047 C 718.373 724.755, 717.126 722.089, 718.613 716.113 L 719.512 712.500 730.441 712.705 C 736.452 712.818, 742.658 713.444, 744.232 714.096 C 747.469 715.437, 749.966 719.544, 750.070 723.700 C 750.135 726.275, 750.258 726.181, 751.596 722.524 C 752.397 720.337, 753.490 718.110, 754.026 717.574 C 755.710 715.890, 755.097 715, 752.250 714.996 C 746.693 714.989, 739.768 708.400, 737.539 701 C 737.125 699.625, 735.522 696.475, 733.977 694 C 732.432 691.525, 730.178 687.250, 728.969 684.500 C 727.759 681.750, 725.406 676.575, 723.741 673 C 718.600 661.968, 716.056 654.901, 715.373 649.756 C 714.986 646.834, 713.782 643.706, 712.424 642.092 C 711.162 640.593, 709.835 638.046, 709.475 636.433 C 708.124 630.381, 706.813 627, 705.816 627 C 705.251 627, 703.930 625.909, 702.881 624.575 C 699.997 620.909, 692.161 615.513, 686 612.951 C 682.975 611.694, 679.748 610.027, 678.828 609.248 C 677.250 607.911, 665.471 607.429, 650 608.068 C 646.318 608.220, 626.761 608.310, 616 608.224 C 614.625 608.213, 605.175 607.897, 595 607.521 C 584.825 607.145, 569.354 606.762, 560.620 606.669 L 544.740 606.500 545.378 616" stroke="#fc7143" fill="#fc7143" fill-opacity="0.2" fill-rule="evenodd"/><path class="svg-region-PP" d="M 417.314 601.708 C 415.562 602.694, 412.470 605.975, 410.443 609 C 408.416 612.025, 404.629 616.750, 402.027 619.500 C 394.567 627.385, 391 639.873, 391 658.101 C 391 663.936, 391.491 665.979, 394.048 670.779 C 397.975 678.152, 400.417 681.804, 406.250 689.029 C 408.863 692.265, 411 695.312, 411 695.801 C 411 696.290, 411.788 697.407, 412.750 698.282 C 413.712 699.158, 415.385 701.590, 416.468 703.687 C 417.550 705.784, 419.245 708.583, 420.235 709.908 C 421.226 711.232, 422.752 714.832, 423.628 717.908 C 426.341 727.435, 437.842 745.783, 445.668 753.067 C 455.145 761.889, 469.882 771.945, 480.598 776.903 C 482.852 777.946, 485.684 780.055, 486.892 781.589 C 488.099 783.124, 490.136 785.082, 491.418 785.940 C 492.700 786.798, 494.886 788.310, 496.275 789.300 C 499.373 791.507, 508.724 795, 511.536 795 C 514.855 795, 515.999 792.967, 516.011 787.050 C 516.027 778.834, 517.027 774, 518.709 774 C 519.630 774, 518.845 772.469, 516.550 769.787 C 511.839 764.284, 508 756.055, 508 751.462 C 508 748.610, 508.774 747.026, 511.500 744.300 C 513.425 742.375, 515.003 740.058, 515.006 739.150 C 515.009 738.243, 515.496 735.753, 516.089 733.618 L 517.167 729.736 526.833 730.455 C 554.404 732.504, 554.412 732.505, 558.250 734.879 L 562 737.198 562 726.842 C 562 721.147, 562.375 715.140, 562.833 713.493 C 563.984 709.357, 561.741 691.614, 558.600 680 C 554.225 663.828, 553.484 661.603, 551.347 658.210 C 549.146 654.719, 547.853 645.982, 545.912 621.500 C 545.345 614.350, 544.725 608.009, 544.533 607.410 C 544.294 606.661, 531.716 606.124, 504.343 605.696 C 482.429 605.353, 460.900 604.610, 456.500 604.044 C 452.100 603.479, 443.325 602.585, 437 602.057 C 430.675 601.530, 424.375 600.832, 423 600.507 C 421.471 600.146, 419.263 600.612, 417.314 601.708" stroke="#c4743d" fill="#c4743d" fill-opacity="0.2" fill-rule="evenodd"/><path class="svg-region-VMl" d="M 516.143 733.020 C 515.514 734.823, 515 738.486, 515 741.159 C 515 745.776, 515.338 746.383, 521.750 753.278 C 531.642 763.914, 537.207 768.771, 541.599 770.602 C 543.744 771.497, 546.722 773.097, 548.215 774.158 C 549.709 775.219, 551.959 775.997, 553.215 775.888 C 558.409 775.436, 560.910 776.136, 563.145 778.667 C 564.440 780.134, 566.980 782.820, 568.788 784.636 C 570.596 786.452, 572.765 789.586, 573.606 791.600 C 576.020 797.376, 577.097 794.537, 577.871 780.365 C 578.257 773.289, 578.889 766.989, 579.275 766.365 C 580.329 764.659, 578.069 758.866, 575.114 755.699 C 573.676 754.158, 570.025 749.238, 567 744.766 C 558.658 732.432, 560.042 732.926, 526.893 730.458 L 517.285 729.742 516.143 733.020" stroke="#e59376" fill="#e59376" fill-opacity="0.2" fill-rule="evenodd"/><path class="svg-region-PMl" d="M 258.883 713 C 256.705 715.200, 254.300 717, 253.538 717 C 252.777 717, 250.769 718.165, 249.077 719.589 C 246.533 721.730, 246 722.911, 246 726.415 C 246 732.588, 249.274 735.455, 255.520 734.751 C 258.221 734.446, 261.036 733.376, 262.329 732.161 C 263.541 731.022, 266.776 728.898, 269.517 727.442 C 275.530 724.248, 275.965 723.639, 275.985 718.385 C 276.008 712.190, 273.073 709, 267.349 709 C 263.419 709, 262.337 709.511, 258.883 713" stroke="#90cf92" fill="#90cf92" fill-opacity="0.2" fill-rule="evenodd"/><path class="svg-region-PV" d="M 269.500 594.450 C 267.420 597.162, 264.766 597.940, 245 601.631 C 240.325 602.504, 236.050 603.775, 235.500 604.456 C 234.950 605.136, 233.037 606.448, 231.250 607.372 C 228.944 608.564, 228 609.753, 228 611.467 C 228 612.795, 227.538 614.167, 226.974 614.516 C 226.409 614.865, 226.079 617.278, 226.239 619.879 C 226.472 623.663, 227.166 625.230, 229.714 627.720 C 231.465 629.432, 233.708 631.104, 234.699 631.435 C 236.994 632.201, 245.316 643.294, 247.406 648.372 C 248.283 650.502, 249.010 655.002, 249.022 658.372 C 249.036 662.418, 249.748 666.029, 251.116 669 C 252.256 671.475, 253.817 675.525, 254.584 678 C 256.113 682.935, 256.508 696.568, 255.146 697.410 C 252.819 698.848, 253.299 716, 255.665 716 C 255.923 716, 257.620 714.425, 259.435 712.500 C 262.184 709.585, 263.435 709, 266.914 709 C 272.803 709, 276 712.308, 276 718.404 C 276 722.308, 275.569 723.227, 272.720 725.400 C 270.916 726.776, 268.329 728.345, 266.970 728.887 C 264.541 729.857, 264.552 729.874, 267.615 729.937 C 269.328 729.971, 271.836 730.870, 273.188 731.933 C 275.422 733.691, 280.081 735.685, 294.500 741.054 C 297.250 742.078, 301.300 743.200, 303.500 743.547 C 310.086 744.587, 326.427 750.325, 327.483 751.969 C 328.024 752.811, 329.088 755.289, 329.847 757.476 C 331.383 761.898, 336.247 769.709, 340.696 774.897 L 343.609 778.295 357.152 771.147 L 370.694 764 380.357 764 C 388.349 764, 390.267 763.697, 391.448 762.250 C 392.234 761.288, 394.480 758.545, 396.438 756.155 C 398.397 753.766, 400 750.902, 400 749.791 C 400 748.680, 402.275 745.146, 405.055 741.936 C 407.836 738.727, 410.007 735.515, 409.881 734.800 C 409.485 732.562, 411.202 718.002, 411.867 717.958 C 412.215 717.935, 414.238 716.382, 416.362 714.506 L 420.224 711.094 417.941 706.379 C 416.686 703.785, 413.035 698.768, 409.829 695.231 C 406.623 691.693, 404 688.260, 404 687.602 C 404 686.944, 401.935 683.277, 399.412 679.453 C 391.877 668.035, 391 665.819, 391 658.199 C 391 639.861, 395.186 625.940, 402.938 618.500 C 405.230 616.300, 408.516 612.305, 410.239 609.623 C 413.289 604.874, 413.321 604.708, 411.436 603.328 C 409.199 601.691, 402.424 602.406, 400 604.536 C 397.873 606.404, 371.757 606.867, 362 605.209 C 357.875 604.508, 351.125 603.496, 347 602.960 C 342.875 602.424, 336.575 601.350, 333 600.573 C 329.425 599.796, 321.325 598.628, 315 597.978 C 308.675 597.328, 302.971 596.365, 302.324 595.837 C 301.677 595.309, 296.277 594.467, 290.324 593.965 C 284.371 593.464, 277.700 592.781, 275.500 592.448 C 271.999 591.917, 271.250 592.167, 269.500 594.450" stroke="#b09658" fill="#b09658" fill-opacity="0.2" fill-rule="evenodd"/><path class="svg-region-DV" d="M 213.528 625.560 C 212.032 626.846, 210.462 628.033, 210.039 628.199 C 209.616 628.364, 206.755 633.225, 203.681 639 C 197.177 651.221, 195.546 658.777, 196.266 673.353 C 196.775 683.673, 198.634 697.758, 200.179 703 C 200.746 704.925, 204.449 713.025, 208.408 721 C 212.367 728.975, 216.696 738.763, 218.030 742.750 C 219.363 746.737, 220.914 749.990, 221.477 749.978 C 222.880 749.947, 226.547 746.867, 227.623 744.814 C 228.673 742.812, 241.563 734.161, 244.669 733.374 C 246.639 732.874, 246.788 732.347, 246.298 727.602 C 245.789 722.668, 245.935 722.232, 248.956 719.690 C 250.715 718.211, 252.843 717, 253.685 717 C 254.888 717, 255.041 716.410, 254.397 714.250 C 253.314 710.620, 253.735 701.210, 255.136 697.741 C 257.146 692.764, 255.671 679.446, 252.144 670.724 C 249.829 664.998, 249 661.362, 249 656.934 C 249 652.767, 248.344 649.635, 246.865 646.735 C 243.718 640.567, 236.888 632.318, 233.822 630.983 C 232.349 630.342, 230.910 629.207, 230.623 628.461 C 229.880 626.523, 225.179 624.362, 220.374 623.750 C 217.023 623.322, 215.737 623.663, 213.528 625.560" stroke="#45567a" fill="#45567a" fill-opacity="0.2" fill-rule="evenodd"/><path class="svg-region-VV" d="M 262.306 732.139 C 259.478 734.967, 251.014 735.927, 249.112 733.635 C 247.929 732.210, 247.446 732.205, 244.151 733.580 C 238.586 735.904, 228.087 743.151, 227.470 745.095 C 227.169 746.044, 225.815 747.547, 224.461 748.434 C 221.282 750.516, 221.360 751.414, 225 754.658 C 226.650 756.128, 228 757.918, 228 758.637 C 228 759.717, 243.552 767.923, 245.809 768.034 C 246.189 768.053, 248.300 768.937, 250.500 770 C 252.700 771.063, 254.805 771.947, 255.178 771.966 C 256.080 772.011, 267.993 779.090, 270.378 780.997 C 271.411 781.824, 273.886 783.962, 275.878 785.749 C 280.592 789.977, 287.065 792.983, 292.959 793.682 C 296.886 794.147, 298.336 793.817, 301.590 791.720 C 304.034 790.144, 307.743 788.936, 311.482 788.498 C 314.772 788.113, 319.047 787.208, 320.982 786.486 C 322.917 785.764, 326.199 784.936, 328.276 784.646 C 330.352 784.355, 334.517 782.706, 337.532 780.982 L 343.012 777.846 338.575 772.173 C 333.976 766.293, 329 757.261, 329 754.793 C 329 752.675, 325.193 749, 322.998 749 C 321.940 749, 318.703 748.065, 315.805 746.923 C 312.907 745.781, 308.053 744.398, 305.018 743.850 C 297.512 742.495, 276.491 734.535, 273.802 732.030 C 270.847 729.277, 265.114 729.331, 262.306 732.139" stroke="#7699d1" fill="#7699d1" fill-opacity="0.2" fill-rule="evenodd"/><path class="svg-region-B" d="M 786.761 603.573 C 786.446 603.888, 777.187 604.570, 766.185 605.089 C 749.572 605.872, 745.397 606.379, 741.548 608.082 C 738.998 609.210, 734.381 610.792, 731.286 611.598 C 722.955 613.768, 718.493 616.688, 715.054 622.220 C 711.839 627.392, 711.360 631.080, 712.938 638.500 C 713.406 640.700, 714.509 646.100, 715.388 650.500 C 716.327 655.197, 719.007 662.835, 721.878 669 C 724.567 674.775, 727.833 681.956, 729.134 684.957 C 730.435 687.958, 732.436 691.804, 733.581 693.502 C 734.725 695.200, 736.142 697.969, 736.730 699.655 C 738.336 704.261, 742.692 710.752, 745.344 712.490 C 748.465 714.535, 758.126 717, 763.020 717 C 765.178 717, 769.362 718.070, 772.319 719.378 C 778.791 722.240, 795.859 732.194, 799.725 735.360 C 802.849 737.919, 815.219 745.090, 825 750.013 C 830.866 752.965, 832.578 753.332, 842.548 753.773 C 851.424 754.165, 853.886 753.972, 855.069 752.789 C 857.362 750.495, 860.633 749, 863.358 749 C 864.727 749, 867.794 747.530, 870.173 745.733 C 872.553 743.935, 877.875 740.481, 882 738.057 C 886.125 735.632, 891.750 731.492, 894.500 728.857 C 897.250 726.222, 902.272 721.819, 905.660 719.072 C 913.711 712.544, 915.739 706.257, 913.844 693.700 C 913.412 690.840, 912.571 682.650, 911.976 675.500 C 910.193 654.109, 907.376 648.297, 896 642.538 C 894.075 641.564, 891.288 639.469, 889.806 637.883 C 888.325 636.297, 886.300 634.987, 885.306 634.972 C 884.313 634.957, 882.150 633.562, 880.500 631.872 C 872.517 623.696, 845.542 608.014, 839.414 607.987 C 837.812 607.980, 832.995 606.855, 828.712 605.487 C 821.692 603.245, 819.266 603, 804.129 603 C 794.891 603, 787.076 603.258, 786.761 603.573" stroke="#e23b33" fill="#e23b33" fill-opacity="0.2" fill-rule="evenodd"/><path class="svg-region-VOC" d="M 489.980 476.825 C 476.739 483.652, 476.780 493.216, 490.092 502.928 C 494.820 506.379, 498.357 508.170, 501.256 508.583 C 503.590 508.915, 507.075 509.912, 509 510.798 C 512.558 512.436, 519.141 513.573, 531.203 514.632 C 537.781 515.209, 537.919 515.172, 538.555 512.636 C 539.864 507.421, 532.135 495.653, 525 492 C 523.075 491.014, 520.053 488.699, 518.284 486.854 C 512.333 480.646, 507.514 476.295, 505.316 475.144 C 501.590 473.193, 495.793 473.828, 489.980 476.825" stroke="#ff8f93" fill="#ff8f93" fill-opacity="0.2" fill-rule="evenodd"/><path class="svg-region-OABr" d="M 643.200 412.200 C 642.540 412.860, 642 414.565, 642 415.988 C 642 422.868, 632.217 433.772, 625.900 433.934 C 624.470 433.970, 621.400 435.376, 619.078 437.059 C 615.314 439.785, 614.879 440.518, 615.067 443.809 C 615.184 445.839, 615.021 448.625, 614.705 450 C 612.947 457.662, 613.041 458.896, 615.621 461.962 C 617.027 463.633, 618.881 465, 619.741 465 C 621.225 465, 628.956 457.296, 628.986 455.787 C 628.994 455.395, 631.664 453.266, 634.920 451.055 C 641.947 446.282, 644.082 443.499, 647.288 434.927 C 650.101 427.405, 651.568 413.968, 649.773 412.173 C 648.254 410.654, 644.731 410.669, 643.200 412.200" stroke="#81244d" fill="#81244d" fill-opacity="0.2" fill-rule="evenodd"/><path class="svg-region-SOTr" d="M 478.616 419.003 C 474.453 423.612, 474.250 424.776, 477 428.273 C 478.100 429.671, 479 431.707, 479 432.796 C 479 434.266, 479.897 434.946, 482.471 435.429 C 484.380 435.787, 486.562 436.964, 487.319 438.045 C 488.392 439.578, 489.390 439.872, 491.845 439.381 C 493.604 439.029, 495.568 439.227, 496.293 439.828 C 497.226 440.602, 498.620 440.551, 501.253 439.646 C 509.574 436.785, 511.379 431.332, 505.750 426.054 C 503.962 424.379, 501.038 422.781, 499.250 422.504 C 497.462 422.227, 494.443 421.758, 492.539 421.462 C 490.569 421.156, 487.802 419.648, 486.116 417.962 C 484.487 416.333, 482.947 415, 482.693 415 C 482.440 415, 480.605 416.801, 478.616 419.003" stroke="#995b45" fill="#995b45" fill-opacity="0.2" fill-rule="evenodd"/><path class="svg-region-BPCl" d="M 719.112 713.791 C 717.613 716.592, 717.700 723.517, 719.250 724.747 C 719.938 725.292, 722.864 726.292, 725.753 726.970 C 728.642 727.647, 731.256 728.606, 731.562 729.100 C 731.868 729.595, 735.397 730, 739.404 730 C 745.193 730, 747.030 729.624, 748.345 728.171 C 751.660 724.508, 749.478 716.450, 744.566 714.212 C 743.144 713.564, 737.086 712.737, 731.103 712.374 C 720.764 711.746, 720.169 711.816, 719.112 713.791" stroke="#83385f" fill="#83385f" fill-opacity="0.2" fill-rule="evenodd"/><path class="svg-region-AMC" d="M 510.687 744.805 C 505.874 749.828, 507.537 758.066, 515.446 768.383 C 518.185 771.955, 518.853 773.473, 517.935 774.040 C 517.169 774.513, 516.509 777.875, 516.243 782.658 C 515.816 790.325, 515.887 790.623, 519.457 796 C 521.761 799.471, 525.579 803.247, 529.804 806.235 C 538.188 812.163, 546.014 819.134, 546.006 820.667 C 546.003 821.308, 546.337 821.983, 546.750 822.167 C 547.163 822.350, 548.808 824.975, 550.407 828 C 552.005 831.025, 553.911 834.175, 554.641 835 C 555.371 835.825, 556.988 837.744, 558.235 839.266 L 560.500 842.031 564.232 838.266 C 566.285 836.194, 569.096 833.087, 570.478 831.360 C 571.861 829.633, 574.709 827.533, 576.807 826.694 L 580.621 825.168 579.862 818.334 C 579.444 814.575, 579.044 805.425, 578.972 798 C 578.849 785.169, 578.378 784.056, 576.558 792.291 C 575.895 795.290, 574 795.092, 574 792.023 C 574 791, 572.313 788.368, 570.250 786.173 C 568.188 783.979, 565.224 780.792, 563.665 779.092 C 562.006 777.282, 559.725 775.935, 558.165 775.844 C 556.699 775.758, 554.375 775.593, 553 775.477 C 549.279 775.164, 537.821 769.005, 533.386 764.933 C 524.830 757.078, 515 745.885, 515 743.997 C 515 741.275, 513.865 741.488, 510.687 744.805" stroke="#9d4741" fill="#9d4741" fill-opacity="0.2" fill-rule="evenodd"/>
    </svg>