<svg xmlns="http://www.w3.org/2000/svg" width="1078" height="1151" viewBox="0 0 1078 1151" version="1.1">
    <path class="svg-region-V" d="M 520.977 193.343 C 519.508 194.849, 504.234 196.998, 494.997 196.999 C 487.422 197, 482.543 197.565, 477.497 199.025 C 473.649 200.139, 468.025 201.436, 465 201.907 C 456.278 203.267, 438.015 208.970, 433.566 211.724 C 428.104 215.105, 424.499 218.515, 420.058 224.500 C 416.612 229.143, 406.844 245.547, 401.301 256 C 399.988 258.475, 397.968 262.075, 396.812 264 C 395.656 265.925, 393.362 269.975, 391.715 273 C 390.067 276.025, 388.159 279.175, 387.474 280 C 386.789 280.825, 385.100 283.750, 383.722 286.500 C 382.344 289.250, 380.272 292.354, 379.117 293.397 C 377.962 294.440, 375.927 297.156, 374.593 299.431 C 373.260 301.707, 369.768 305.803, 366.834 308.534 C 357.990 316.767, 354.948 321.691, 354.498 328.500 C 354.353 330.700, 353.692 338.006, 353.030 344.736 C 352.105 354.141, 352.097 359.050, 352.994 365.952 C 353.636 370.890, 353.906 375.342, 353.596 375.845 C 353.285 376.348, 354.186 378.932, 355.598 381.588 C 357.010 384.243, 358.846 388.423, 359.679 390.875 C 360.512 393.328, 362.260 396.947, 363.565 398.918 C 364.869 400.890, 366.851 405.202, 367.969 408.501 C 371.069 417.651, 371.683 418.428, 378.619 421.985 C 385.036 425.277, 385.132 425.292, 395.193 424.633 C 406.526 423.890, 413.607 421.118, 420.190 414.848 C 427.474 407.909, 428.439 405.095, 429.054 389 C 429.559 375.807, 429.860 373.978, 432.396 368.710 C 434.388 364.573, 436.940 361.461, 441.341 357.803 C 449.085 351.369, 454.101 346.013, 458.953 339 C 464.636 330.785, 477.239 318.462, 488.500 310.108 C 494 306.028, 501.043 300.350, 504.150 297.490 C 510.139 291.979, 512.761 291, 521.535 291 C 527.098 291, 535.973 294.474, 541.484 298.809 C 543.888 300.700, 545.518 301, 553.391 301 C 558.408 301, 563.974 300.581, 565.760 300.069 C 567.565 299.551, 572.963 295.510, 577.916 290.967 C 584.895 284.567, 587.885 280.922, 591.715 274.148 C 594.404 269.392, 597.410 263.350, 598.395 260.723 C 599.791 256.998, 601.038 255.511, 604.053 253.973 C 606.180 252.888, 608.763 252, 609.793 252 C 613.648 252, 612.832 250.541, 606.755 246.570 C 602.648 243.886, 600.390 241.713, 600.180 240.241 C 600.005 239.009, 599.317 238, 598.652 238 C 597.986 238, 594.533 235.065, 590.977 231.477 C 587.117 227.583, 580.944 222.877, 575.656 219.800 C 565.348 213.800, 561.997 210.721, 558.813 204.324 C 555.924 198.517, 550.897 196.039, 539.500 194.804 C 535.100 194.328, 529.250 193.683, 526.500 193.372 C 523.750 193.061, 521.265 193.048, 520.977 193.343" stroke="#dd8a8a" fill="#dd8a8a" fill-opacity="0.2" fill-rule="evenodd"/><path class="svg-region-SV" d="M 512.229 291.708 C 510.980 291.948, 507.380 294.493, 504.229 297.364 C 501.078 300.235, 494.457 305.490, 489.516 309.042 C 478.661 316.844, 463.745 331.576, 457.973 340.194 C 455.651 343.662, 449.466 350.325, 444.230 355 C 430.771 367.018, 429.084 371.141, 428.690 393 C 428.509 402.981, 428.337 403.765, 425.193 408.858 C 421.981 414.061, 421.938 414.274, 423.693 416.216 C 425.645 418.377, 434.151 423, 436.173 423 C 436.855 423, 439.908 424.728, 442.957 426.841 C 448.464 430.657, 464.393 438, 467.163 438 C 467.960 438, 470.116 439.110, 471.955 440.467 C 473.794 441.824, 475.681 442.697, 476.149 442.408 C 477.534 441.552, 477.057 434.660, 475.468 432.559 C 473.406 429.833, 473.638 427.680, 476.250 425.289 C 481.116 420.835, 487.634 421.311, 494.600 426.629 C 501.099 431.589, 503.653 431.196, 508.283 424.527 C 511.177 420.357, 512.820 418.940, 515.283 418.489 C 517.052 418.165, 530.650 418.274, 545.500 418.732 L 572.500 419.564 575.610 416.936 C 577.320 415.490, 581.234 412.869, 584.306 411.111 C 589.938 407.889, 591.566 405.639, 590.423 402.659 C 589.951 401.430, 589.356 401.275, 587.966 402.018 C 585.436 403.372, 575.243 403.115, 571 401.590 C 566.684 400.039, 565.038 396.998, 565 390.500 C 564.968 385.182, 563.505 379.970, 560.916 375.955 C 560.045 374.605, 558.125 371.025, 556.650 368 C 555.175 364.975, 552.857 360.700, 551.500 358.500 C 550.143 356.300, 549.011 353.825, 548.983 353 C 548.905 350.636, 545.950 347.669, 539.675 343.655 C 533.783 339.886, 531 335.740, 531 330.729 C 531 327.089, 536.504 320.416, 540.986 318.622 C 545.121 316.968, 545.567 316.118, 546.294 308.500 C 546.504 306.300, 547.022 303.712, 547.445 302.750 C 548.009 301.468, 547.759 301, 546.511 301 C 545.575 301, 543.398 299.988, 541.674 298.750 C 533.940 293.199, 527.986 290.994, 521.109 291.136 C 517.474 291.211, 513.478 291.469, 512.229 291.708 M 484.128 447.725 C 484.882 448.674, 486.962 450.939, 488.750 452.758 C 491.480 455.537, 492 456.814, 492 460.733 C 492 463.312, 492.372 464.975, 492.832 464.450 C 494.137 462.961, 496.135 452.727, 495.273 451.944 C 494.848 451.558, 492.848 450.714, 490.830 450.070 C 488.811 449.425, 486.619 448.246, 485.958 447.449 C 484.241 445.381, 482.474 445.647, 484.128 447.725" stroke="#c666b5" fill="#c666b5" fill-opacity="0.2" fill-rule="evenodd"/><path class="svg-region-SF" d="M 609.500 251.935 C 602.962 253.527, 600.229 255.772, 598.181 261.236 C 593.208 274.500, 583.341 287.375, 570.250 297.679 C 566.153 300.904, 565.927 305.369, 569.504 312.419 C 570.877 315.125, 572 317.898, 572 318.581 C 572 320.228, 577.566 324.853, 580.408 325.566 C 582.567 326.108, 582.642 326.475, 582.192 334.316 C 581.733 342.305, 581.618 342.616, 577.374 347.343 C 564.238 361.978, 572.577 381.331, 593.356 384.430 C 597.066 384.983, 599.239 386.101, 602.562 389.164 C 605.212 391.606, 607.385 392.880, 608.124 392.423 C 608.791 392.011, 612.852 391.365, 617.148 390.987 C 623.149 390.459, 625.833 389.704, 628.730 387.727 C 630.803 386.312, 634.372 384.663, 636.659 384.063 C 643.740 382.205, 660 368.621, 660 364.562 C 660 362.267, 672.888 347.375, 676.607 345.372 C 679.626 343.747, 680 343.087, 680 339.395 C 680 337.007, 679.390 334.739, 678.563 334.052 C 677.773 333.397, 676.818 330.304, 676.440 327.180 C 675.535 319.683, 673.541 313.907, 670.071 308.733 C 666.436 303.313, 654.002 277.005, 653.998 274.728 C 653.996 273.262, 646.643 268.225, 639 264.453 C 635.975 262.960, 631.739 260.352, 629.587 258.657 C 625.097 255.119, 616.581 250.952, 614.151 251.102 C 613.243 251.159, 611.150 251.533, 609.500 251.935" stroke="#8c6b55" fill="#8c6b55" fill-opacity="0.2" fill-rule="evenodd"/><path class="svg-region-IF" d="M 676.500 345.158 C 672.381 347.417, 660 362.056, 660 364.666 C 660 366.562, 652.348 374.715, 647.589 377.890 C 640.239 382.794, 638.488 383.686, 634.882 384.362 C 632.898 384.735, 630.470 385.928, 629.487 387.014 C 627.270 389.464, 621.994 390.987, 615.702 390.994 C 612.961 390.998, 609.129 391.857, 606.764 393 C 604.487 394.100, 601.696 395.007, 600.562 395.016 C 599.428 395.025, 596.700 396.052, 594.500 397.298 C 590.896 399.339, 590.491 399.966, 590.408 403.635 L 590.317 407.707 597.408 406.325 C 608.151 404.231, 618.576 403.043, 628 402.840 C 639.654 402.589, 657.708 404.429, 662.257 406.332 C 665.619 407.738, 680.744 417.544, 682 419.132 C 682.275 419.479, 686.281 422.738, 690.902 426.373 C 699.355 433.023, 703.265 437.594, 705.167 443.048 C 706.704 447.458, 710.364 447.086, 713.014 442.250 C 714.143 440.188, 716.380 436.475, 717.983 434 C 720.791 429.667, 722.557 426.231, 725.583 419.216 C 726.535 417.010, 727 412.130, 727 404.351 C 727 384.899, 720.861 366.706, 711.032 357.032 C 701.486 347.635, 683.351 341.400, 676.500 345.158" stroke="#f2823b" fill="#f2823b" fill-opacity="0.2" fill-rule="evenodd"/><path class="svg-region-PF" d="M 556.393 300.742 C 548.859 301.053, 548.206 301.254, 547.143 303.585 C 546.514 304.965, 545.993 307.985, 545.985 310.297 C 545.966 315.536, 545.509 316.220, 540.251 318.885 C 537.877 320.089, 534.847 322.785, 533.384 324.996 C 531.169 328.342, 530.867 329.629, 531.424 333.340 C 532.134 338.078, 533.756 339.989, 541 344.622 C 546.124 347.899, 548.908 350.818, 548.990 353 C 549.021 353.825, 550.372 356.750, 551.992 359.500 C 553.611 362.250, 555.912 366.525, 557.105 369 C 558.297 371.475, 560.111 374.694, 561.136 376.154 C 562.161 377.614, 563 379.725, 563 380.845 C 563 381.965, 563.450 383.160, 564 383.500 C 564.550 383.840, 565 386.967, 565 390.448 C 565 397.685, 566.461 400.108, 571.899 401.887 C 578.454 404.033, 591 402.701, 591 399.860 C 591 398.627, 598.593 395.002, 601.210 394.985 C 602.470 394.976, 604.170 394.546, 604.988 394.028 C 607.252 392.597, 600.645 386.228, 595.528 384.908 C 582.585 381.569, 581.200 380.940, 577.176 376.575 C 570.586 369.425, 569.478 360.863, 573.999 352.002 C 575.069 349.905, 577.252 347.133, 578.850 345.844 C 581.557 343.660, 581.790 342.911, 582.258 334.891 L 582.761 326.282 578.323 324.126 C 575.019 322.521, 573.506 321.016, 572.401 318.235 C 571.585 316.181, 570.035 312.864, 568.958 310.864 C 567.881 308.864, 567 305.601, 567 303.614 C 567 301.281, 566.557 300.072, 565.750 300.204 C 565.063 300.315, 560.852 300.558, 556.393 300.742" stroke="#faaaaa" fill="#faaaaa" fill-opacity="0.2" fill-rule="evenodd"/><path class="svg-region-AAB" d="M 646.368 405.213 C 645.956 405.881, 645.320 408.392, 644.955 410.794 C 644.365 414.684, 644.533 415.252, 646.490 415.996 C 649.977 417.322, 651.490 422.139, 650.025 427.250 C 647.640 435.568, 647.572 438, 649.724 438 C 652.566 438, 652.909 438.745, 651.843 442.605 C 650.428 447.732, 641.629 459.888, 632.605 469.183 C 628.286 473.633, 620.950 477.246, 617.042 476.849 C 615.048 476.646, 613.206 477.972, 608.500 482.996 C 599.187 492.940, 599.082 493.038, 588.797 501.272 C 583.460 505.544, 578.831 509.464, 578.512 509.981 C 578.192 510.499, 573.446 512.334, 567.965 514.060 C 562.484 515.785, 558 517.382, 558 517.608 C 558 517.834, 560.138 517.794, 562.750 517.519 C 575.363 516.190, 586.026 515.900, 591.186 516.746 C 596.408 517.601, 610.197 516.290, 614.881 514.492 C 615.664 514.192, 621.973 512.823, 628.902 511.451 C 644.907 508.282, 653.396 505.080, 663.791 498.292 C 672.389 492.677, 685.652 480.253, 695.064 469 C 698.054 465.425, 700.725 462.275, 701 462 C 704.144 458.856, 708 452.601, 708 450.645 C 708 446.965, 702.100 436.128, 698.048 432.365 C 692.773 427.466, 681.920 418.640, 678.500 416.468 C 676.850 415.420, 673.209 412.900, 670.409 410.868 C 662.634 405.223, 648.427 401.882, 646.368 405.213" stroke="#7f3c1a" fill="#7f3c1a" fill-opacity="0.2" fill-rule="evenodd"/><path class="svg-region-APB" d="M 619.500 403.063 C 608.181 404.046, 593.971 406.513, 589.500 408.269 C 585.005 410.034, 577.161 415.330, 571.169 420.643 C 563.393 427.539, 557.536 439.903, 553.590 457.751 C 551.962 465.120, 549.864 471.401, 545.102 483.167 C 543.192 487.887, 542 492.602, 542 495.436 C 542 498.624, 541.231 501.258, 539.500 504 C 536.721 508.403, 536.220 514.077, 538.418 516.275 C 540.207 518.064, 554.380 519.377, 556.780 517.975 C 557.726 517.423, 562.563 515.700, 567.530 514.147 C 575.623 511.617, 577.696 510.415, 587.530 502.557 C 593.563 497.735, 599.594 492.599, 600.930 491.145 C 602.267 489.690, 605.709 485.994, 608.578 482.932 C 613.590 477.582, 613.775 477.185, 613.284 472.832 C 612.913 469.533, 613.349 467, 614.887 463.523 C 616.305 460.318, 617 456.684, 617 452.480 C 617 447.833, 617.388 446.065, 618.500 445.638 C 619.325 445.322, 620 444.258, 620 443.274 C 620 441.471, 626.007 437.277, 632.440 434.590 C 634.935 433.547, 636.409 431.829, 638.379 427.663 C 639.821 424.617, 641 420.776, 641 419.129 C 641 417.013, 641.587 415.949, 643 415.500 C 644.498 415.025, 645 413.987, 645 411.367 C 645 409.443, 645.440 407.046, 645.978 406.041 C 646.813 404.481, 646.484 404.133, 643.728 403.660 C 636.528 402.424, 628.989 402.238, 619.500 403.063" stroke="#ac7444" fill="#ac7444" fill-opacity="0.2" fill-rule="evenodd"/><path class="svg-region-PC" d="M 513.401 418.950 C 511.371 419.795, 505 427.566, 505 429.197 C 505 429.639, 505.839 430, 506.865 430 C 507.891 430, 510.011 431.008, 511.577 432.240 C 513.143 433.471, 515.792 435.209, 517.462 436.101 C 523.805 439.486, 520.847 447.024, 512.909 447.704 C 510.484 447.912, 507.019 448.555, 505.209 449.132 C 503.399 449.710, 501.355 449.966, 500.667 449.702 C 497.913 448.646, 495.860 451.884, 494.317 459.715 L 492.760 467.617 495.433 473.558 C 500.243 484.252, 501.156 485.745, 503.718 487.117 C 505.110 487.862, 509.005 491.424, 512.375 495.033 C 515.744 498.643, 520.167 502.850, 522.205 504.382 C 525.657 506.978, 526.343 507.122, 532.240 506.491 C 537.897 505.885, 538.753 505.495, 540.285 502.825 C 541.228 501.182, 542 497.861, 542 495.445 C 542 492.871, 543.284 487.832, 545.100 483.276 C 549.880 471.288, 552.679 463.022, 553.996 457 C 557.171 442.485, 562.991 429.035, 568.812 422.760 C 570.210 421.254, 571.162 419.852, 570.927 419.645 C 569.970 418.802, 515.342 418.142, 513.401 418.950" stroke="#cda789" fill="#cda789" fill-opacity="0.2" fill-rule="evenodd"/><path class="svg-region-DB" d="M 418.300 416.375 C 417.860 417.132, 414.692 419.161, 411.261 420.884 C 405.900 423.577, 403.579 424.101, 394.761 424.611 C 384.666 425.195, 384.407 425.154, 378.750 422.092 C 372.138 418.513, 371.363 419.446, 375.500 426 C 376.875 428.178, 378 430.203, 378 430.500 C 378 430.797, 379.091 432.768, 380.424 434.880 C 382.126 437.575, 383.792 438.908, 386.015 439.353 C 389.261 440.002, 399.074 444.585, 399.990 445.879 C 400.956 447.244, 411.032 453, 412.456 453 C 413.240 453, 414.160 453.450, 414.500 454 C 414.840 454.550, 416.147 455, 417.404 455 C 418.661 455, 420.505 455.900, 421.500 457 C 422.495 458.100, 423.708 459, 424.195 459 C 425.630 459, 431.026 463.076, 438.102 469.504 C 441.738 472.806, 446.014 476.172, 447.606 476.984 C 449.198 477.796, 453.799 480.719, 457.832 483.480 C 470.699 492.289, 473.434 493.919, 476.500 494.601 C 478.150 494.968, 481.016 496.298, 482.869 497.557 C 486.919 500.309, 489 499.773, 489 495.977 C 489 492.747, 495.569 485, 498.308 485 C 499.239 485, 500 484.887, 499.999 484.750 C 499.998 483.933, 495.599 473.135, 493.957 469.915 C 492.781 467.611, 492 464.069, 492 461.045 C 492 456.364, 491.655 455.658, 487.099 451.005 C 484.404 448.252, 481.645 446, 480.969 446 C 480.292 446, 477.481 444.378, 474.721 442.395 C 471.961 440.412, 467.408 437.999, 464.602 437.033 C 455.231 433.805, 448.540 430.683, 443.979 427.410 C 441.492 425.626, 437.078 423.262, 434.170 422.157 C 431.261 421.051, 427.363 418.989, 425.508 417.574 C 421.739 414.699, 419.492 414.325, 418.300 416.375" stroke="#e8b1e4" fill="#e8b1e4" fill-opacity="0.2" fill-rule="evenodd"/><path class="svg-region-MB" d="M 381.518 441.051 C 382.304 443.279, 383.734 446.542, 384.696 448.301 C 389.159 456.465, 393.581 463.671, 395.211 465.439 C 397.439 467.853, 397.578 474.681, 395.500 479.654 C 391.632 488.912, 395.375 496.606, 408.758 506.904 C 413.575 510.611, 422.432 513.101, 439.718 515.609 C 452.771 517.502, 504 518.780, 504 517.211 C 504 516.650, 501.522 515.164, 498.492 513.908 C 492.437 511.398, 489.762 508.327, 489 503.010 C 488.647 500.542, 487.915 499.408, 486.504 499.139 C 485.407 498.930, 483.434 497.913, 482.120 496.879 C 480.805 495.846, 478.958 495, 478.014 495 C 476.304 495, 466.951 490.414, 466 489.109 C 465.296 488.142, 451.065 478.747, 447.752 477.062 C 446.240 476.293, 442.415 473.236, 439.252 470.268 C 433.505 464.876, 425.606 459, 424.105 459 C 423.668 459, 422.495 458.100, 421.500 457 C 420.505 455.900, 418.661 455, 417.404 455 C 416.147 455, 414.840 454.550, 414.500 454 C 414.160 453.450, 413.263 453, 412.507 453 C 411.236 453, 401.134 447.269, 400 445.905 C 398.705 444.346, 389.753 440.044, 386.558 439.445 C 384.589 439.075, 382.731 438.374, 382.430 437.887 C 382.129 437.399, 381.478 437, 380.985 437 C 380.492 437, 380.732 438.823, 381.518 441.051" stroke="#f9c6c6" fill="#f9c6c6" fill-opacity="0.2" fill-rule="evenodd"/><path class="svg-region-AP" d="M 557 607.868 C 556.175 608.313, 552.800 609.285, 549.500 610.030 C 546.200 610.774, 543.169 611.859, 542.765 612.442 C 542.361 613.024, 542.024 618.610, 542.015 624.856 C 541.999 637.231, 542.995 642.255, 548.685 658.500 C 550.611 664, 553.037 671.650, 554.076 675.500 C 560.078 697.738, 559.965 697.029, 559.983 712.812 C 559.995 723.990, 560.424 729.422, 561.572 732.930 L 563.144 737.735 568.490 738.287 C 575.970 739.059, 580 742.672, 580 748.606 C 580 750.958, 579.550 753.160, 579 753.500 C 576.475 755.061, 579.404 766.832, 582.635 768.106 C 583.661 768.510, 586.258 770.689, 588.406 772.948 C 594.720 779.587, 597.756 780.581, 607.441 779.180 C 611.931 778.531, 620.803 778, 627.157 778 C 639.887 778, 660.632 776.569, 671.500 774.942 C 675.350 774.366, 683.989 773.913, 690.698 773.935 C 697.458 773.958, 703.161 773.548, 703.490 773.017 C 704.241 771.801, 712.764 768, 714.737 768 C 716.380 768, 726.843 762.700, 731.456 759.531 C 741.325 752.751, 745.394 747.275, 745.569 740.538 C 745.641 737.767, 746.295 731.292, 747.023 726.150 C 748.508 715.661, 748.616 716.054, 740.737 703.325 C 735.685 695.161, 730.113 682.138, 725.626 668 C 721.983 656.523, 721.958 656.481, 713.262 647.140 C 697.922 630.663, 683.769 619.882, 670.221 614.354 C 665.165 612.291, 664.045 612.231, 643.721 612.930 C 612.851 613.992, 591.628 612.648, 565.940 608.005 C 559.385 606.820, 558.959 606.814, 557 607.868" stroke="#fc7143" fill="#fc7143" fill-opacity="0.2" fill-rule="evenodd"/><path class="svg-region-PP" d="M 536.500 612.673 C 531.987 613.806, 527.233 614.045, 517.318 613.637 C 509.568 613.318, 504.004 613.477, 503.818 614.023 C 503.365 615.346, 475.933 617.013, 473.739 615.851 C 471.184 614.497, 434.371 615.350, 429.500 616.876 C 427.300 617.565, 423.516 618.549, 421.091 619.064 C 413.991 620.570, 406.841 624.341, 401.828 629.223 C 398.051 632.902, 397.054 634.609, 396.619 638.137 C 396.324 640.536, 395.564 645.875, 394.931 650 C 392.859 663.499, 392.793 665.774, 394.317 671.170 C 395.145 674.101, 396.143 678.525, 396.534 681 C 398.057 690.649, 402.129 697.881, 411.915 708.325 C 415.715 712.380, 417.776 713.468, 430.493 718.133 C 444.788 723.376, 455.134 730.985, 465.666 744 C 467.223 745.925, 469.298 748.386, 470.277 749.468 C 471.880 751.242, 475.958 757.745, 480 764.972 C 483.102 770.518, 490.085 777.581, 494.710 779.851 C 497.344 781.144, 500.258 782.591, 501.184 783.068 C 504.370 784.707, 514.940 788, 517.016 788 C 518.965 788, 518.897 787.711, 515.932 783.402 C 513.209 779.443, 512.923 778.464, 513.880 776.364 C 514.491 775.023, 515.237 771.354, 515.538 768.212 C 515.839 765.071, 516.836 758.515, 517.755 753.645 C 519.171 746.132, 519.772 744.657, 521.712 743.919 C 522.998 743.431, 524 742.210, 524 741.133 C 524 739.393, 525.037 739.161, 535.250 738.618 C 541.438 738.289, 550.155 737.745, 554.622 737.410 L 562.744 736.800 561.719 733.150 C 561.155 731.142, 560.403 721.175, 560.048 711 C 559.522 695.963, 559.009 691.377, 557.305 686.500 C 556.153 683.200, 554.881 678.925, 554.480 677 C 554.078 675.075, 551.987 668.325, 549.832 662 C 542.531 640.573, 541.788 636.818, 542.162 623.250 C 542.348 616.512, 542.500 611.037, 542.500 611.083 C 542.500 611.129, 539.800 611.844, 536.500 612.673" stroke="#c4743d" fill="#c4743d" fill-opacity="0.2" fill-rule="evenodd"/><path class="svg-region-VMr" d="M 546 738 C 544.625 738.440, 539.225 738.849, 534 738.908 C 524.707 739.013, 524.473 739.074, 523.250 741.707 C 520.850 746.875, 521.683 752.128, 526.003 759.069 C 528.204 762.606, 530.974 767.075, 532.157 769 C 534.941 773.530, 543.728 781.038, 548.090 782.615 C 549.966 783.293, 553.386 783.882, 555.691 783.924 C 557.996 783.966, 560.160 784.450, 560.500 785 C 560.840 785.550, 562.921 786, 565.125 786 C 570.989 786, 573 787.413, 573 791.535 C 573 793.888, 573.463 795, 574.443 795 C 576.774 795, 579 790.868, 579.006 786.527 C 579.009 784.312, 579.481 780.807, 580.056 778.738 C 580.802 776.050, 580.764 772.910, 579.922 767.738 C 578.652 759.935, 578.602 757.340, 579.566 749.273 C 580.183 744.102, 578.904 741, 576.155 741 C 575.611 741, 575.017 740.552, 574.833 740.004 C 574.107 737.833, 551.440 736.258, 546 738" stroke="#e59376" fill="#e59376" fill-opacity="0.2" fill-rule="evenodd"/><path class="svg-region-PMr" d="M 258 709.500 C 256.625 710.286, 254.406 710.945, 253.070 710.965 C 249.268 711.020, 242 719.371, 242 723.684 C 242 728.754, 245.944 732.352, 250.804 731.715 C 255.775 731.064, 265.075 728.325, 266.226 727.174 C 267.225 726.175, 268.862 720.546, 269.708 715.205 C 270.689 709.007, 264.305 705.896, 258 709.500" stroke="#90cf92" fill="#90cf92" fill-opacity="0.2" fill-rule="evenodd"/><path class="svg-region-PV" d="M 269.500 593.847 C 268.950 594.368, 266.700 595.006, 264.500 595.263 C 255.290 596.339, 247.383 600.480, 238.044 609.119 C 233.654 613.178, 228.491 617.625, 226.570 619 C 221.961 622.298, 221.572 623.607, 224.573 625.732 C 225.945 626.704, 228.690 628.737, 230.672 630.250 C 232.654 631.763, 234.595 633, 234.986 633 C 235.376 633, 236.486 634.913, 237.451 637.250 C 238.416 639.587, 239.690 642.400, 240.283 643.500 C 242.732 648.047, 244.372 663.841, 244.435 683.500 L 244.500 703.500 247.369 707.250 C 249.623 710.197, 250.908 710.993, 253.369 710.968 C 255.091 710.951, 257.374 710.276, 258.441 709.468 C 261.135 707.430, 266.346 707.620, 268.345 709.829 C 270.136 711.808, 270.518 716.117, 269.141 718.816 C 268.668 719.742, 268.011 721.930, 267.680 723.677 C 267.094 726.775, 267.198 726.883, 271.790 727.984 C 274.380 728.605, 278.300 729.554, 280.500 730.091 C 282.700 730.629, 287.267 731.410, 290.649 731.826 C 301.257 733.132, 309.959 740.529, 325.316 761.295 C 330.552 768.374, 334.095 775.361, 336.937 784.209 L 338.128 787.918 343.814 785.345 C 346.941 783.930, 352.117 781.956, 355.316 780.958 C 358.515 779.960, 362.194 778.448, 363.491 777.598 C 364.788 776.748, 369.595 775.086, 374.174 773.904 C 383.189 771.577, 392.483 767.345, 395.209 764.326 C 396.149 763.285, 398.537 759.197, 400.516 755.240 C 402.495 751.284, 404.539 747.785, 405.057 747.465 C 405.576 747.144, 406 745.798, 406 744.472 C 406 742.636, 405.604 742.215, 404.336 742.701 C 403.182 743.144, 402.904 742.964, 403.430 742.113 C 403.847 741.439, 404.570 738.550, 405.037 735.694 C 405.505 732.837, 406.117 729.375, 406.399 728 C 406.680 726.625, 407.176 723.813, 407.501 721.750 C 407.841 719.588, 408.655 718, 409.423 718 C 411.720 718, 413.214 715.249, 412.552 712.236 C 412.208 710.670, 409.464 706.157, 406.453 702.206 C 403.443 698.254, 400.058 692.429, 398.931 689.261 C 397.805 686.092, 396.281 682.375, 395.545 681 C 392.968 676.186, 391 667.580, 391 661.126 C 391 654.937, 394.490 641.615, 398.573 632.216 C 399.358 630.410, 400 628.080, 400 627.039 C 400 625.997, 401.164 624.229, 402.588 623.110 C 404.731 621.424, 405.060 620.552, 404.506 618.029 C 403.677 614.252, 400.875 612.663, 396.136 613.284 C 393.482 613.632, 391.342 613.100, 388.211 611.315 C 382.620 608.127, 374.322 606.011, 367.201 605.956 C 364.066 605.932, 359.700 605.264, 357.500 604.471 C 355.300 603.679, 350.231 603.023, 346.236 603.015 C 342.241 603.007, 338.096 602.452, 337.024 601.783 C 335.495 600.828, 334.098 600.827, 330.547 601.776 C 325.724 603.066, 309.597 601.991, 303.425 599.968 C 301.733 599.414, 296.333 598.258, 291.425 597.399 C 280.797 595.541, 275.216 594.401, 272.500 593.536 C 271.400 593.185, 270.050 593.325, 269.500 593.847" stroke="#b09658" fill="#b09658" fill-opacity="0.2" fill-rule="evenodd"/><path class="svg-region-DV" d="M 212.500 622.209 C 206.889 624.176, 205.264 626.475, 199.921 640 C 193.058 657.371, 192.273 689.010, 198.196 709.465 C 201.831 722.017, 211.053 738, 214.660 738 C 215.201 738, 217.411 736.663, 219.572 735.028 C 222.550 732.775, 224.588 732.048, 228 732.024 C 230.475 732.006, 234.750 731.180, 237.500 730.187 C 242.414 728.413, 242.494 728.316, 242.162 724.609 C 241.875 721.391, 242.440 720.107, 246.014 715.868 L 250.203 710.900 247.352 706.778 L 244.500 702.655 244.465 683.078 C 244.430 662.930, 242.974 650.550, 239.519 641 C 237.277 634.805, 236.562 634.020, 227.797 628.134 C 223.560 625.288, 219.821 622.519, 219.488 621.980 C 218.736 620.764, 216.406 620.840, 212.500 622.209" stroke="#45567a" fill="#45567a" fill-opacity="0.2" fill-rule="evenodd"/><path class="svg-region-VV" d="M 264.500 727.985 C 260.370 729.740, 252.037 732, 249.697 732 C 248.362 732, 246.088 731.071, 244.645 729.935 C 243.051 728.682, 241.524 728.187, 240.760 728.677 C 237.900 730.509, 232.217 731.971, 227.900 731.985 C 224.414 731.996, 222.319 732.711, 219.250 734.934 C 214.066 738.689, 213.286 740.005, 215.347 741.512 C 216.256 742.177, 217 743.218, 217 743.826 C 217 745.135, 219.876 748.146, 229.996 757.430 C 235.934 762.878, 239.875 765.426, 248.964 769.697 C 255.273 772.662, 260.675 775.405, 260.968 775.794 C 261.261 776.182, 264.875 779.397, 269 782.939 C 273.125 786.480, 278.833 791.767, 281.685 794.689 C 285.596 798.695, 287.584 800, 289.775 800 C 293.388 800, 306.671 796.650, 314 793.889 C 319.645 791.763, 324.455 790.460, 331.537 789.136 C 337.701 787.984, 337.991 787.610, 336.501 782.751 C 333.948 774.429, 331.052 769.048, 323.949 759.431 C 314.664 746.860, 309.879 741.697, 302.550 736.345 C 297.782 732.864, 295.771 732, 292.428 732 C 290.134 732, 283.822 730.875, 278.401 729.500 C 267.639 726.770, 267.417 726.746, 264.500 727.985" stroke="#7699d1" fill="#7699d1" fill-opacity="0.2" fill-rule="evenodd"/><path class="svg-region-B" d="M 759.200 594.077 C 758.815 594.395, 755.173 595.745, 751.106 597.077 C 744.866 599.122, 742.448 600.640, 735.606 606.805 C 730.943 611.007, 726.536 615.998, 725.231 618.555 C 723.983 621, 722.495 623, 721.925 623 C 721.354 623, 719.958 625.102, 718.822 627.670 C 717.118 631.523, 716.869 633.494, 717.402 638.920 C 718.488 649.985, 719.175 654, 719.984 654 C 720.823 654, 722.326 657.471, 723.880 663 C 728.329 678.832, 735.207 694.889, 741.838 704.920 C 743.808 707.901, 746.113 711.726, 746.960 713.420 C 748.418 716.336, 748.845 716.514, 755 716.756 C 763.738 717.100, 765.072 717.481, 769.310 720.849 C 773.537 724.208, 801.004 738, 803.467 738 C 804.383 738, 805.937 738.431, 806.921 738.958 C 807.905 739.484, 811.813 740.393, 815.605 740.978 C 819.397 741.562, 825.425 742.758, 829 743.635 C 835.948 745.341, 846.250 745.007, 850.090 742.952 C 851.246 742.333, 856.536 740.771, 861.846 739.479 C 878.676 735.385, 887.162 730.533, 894.519 720.795 C 900.746 712.552, 902.120 709.071, 902.716 700.018 C 903.163 693.219, 902.974 692.156, 900.742 688.908 C 899.385 686.932, 896.598 682.317, 894.549 678.654 C 889.149 668.998, 882.272 665.360, 861.009 660.910 C 858.539 660.393, 854.939 659.152, 853.009 658.152 C 851.079 657.152, 847.025 655.076, 844 653.538 C 836.903 649.931, 833.328 646.548, 831.897 642.085 C 831.264 640.113, 830.199 637.825, 829.529 637 C 828.859 636.175, 826.813 632.800, 824.983 629.500 C 823.152 626.200, 820.382 621.619, 818.827 619.320 C 817.272 617.021, 815.971 614.546, 815.936 613.820 C 815.902 613.094, 813.755 609.800, 811.166 606.500 C 807.519 601.851, 804.893 599.712, 799.503 597 L 792.547 593.500 776.224 593.500 C 767.246 593.500, 759.585 593.760, 759.200 594.077" stroke="#e23b33" fill="#e23b33" fill-opacity="0.2" fill-rule="evenodd"/><path class="svg-region-VOC" d="M 492.620 489.130 C 489.228 493, 489.002 493.677, 489.036 499.880 C 489.080 508.057, 490.913 510.639, 499.500 514.615 C 505.155 517.234, 506.462 517.416, 522.250 517.781 C 538.061 518.147, 541.456 517.636, 537.885 515.429 C 537.202 515.007, 536.965 513.005, 537.273 510.268 L 537.777 505.797 532.470 506.460 C 525.673 507.310, 520.893 505.027, 515.428 498.321 C 509.070 490.518, 502.023 485.018, 498.370 485.007 C 497.120 485.003, 494.746 486.706, 492.620 489.130" stroke="#ff8f93" fill="#ff8f93" fill-opacity="0.2" fill-rule="evenodd"/><path class="svg-region-OABr" d="M 642.250 415.662 C 641.563 415.940, 641 417.174, 641 418.405 C 641 422.132, 638.037 429.617, 635.688 431.824 C 634.472 432.966, 630.558 435.450, 626.989 437.346 C 622.497 439.731, 620.399 441.458, 620.172 442.957 C 619.992 444.148, 619.205 445.368, 618.422 445.668 C 617.401 446.060, 617 447.987, 617 452.498 C 617 456.622, 616.320 460.279, 615.022 463.141 C 612.790 468.059, 612.404 474.004, 614.200 475.800 C 616.046 477.646, 619.618 477.239, 625.337 474.534 C 631.283 471.721, 634.361 469.128, 636.394 465.221 C 637.173 463.724, 639.016 461.375, 640.491 460 C 644.428 456.328, 651.662 445, 652.464 441.250 C 653.107 438.244, 652.965 438, 650.579 438 C 647.492 438, 647.352 436.730, 649.641 429.469 C 651.473 423.659, 650.982 419.982, 647.975 416.975 C 646.012 415.012, 644.641 414.698, 642.250 415.662" stroke="#81244d" fill="#81244d" fill-opacity="0.2" fill-rule="evenodd"/><path class="svg-region-SOTr" d="M 478.236 423.607 C 474.203 425.654, 473.168 429.081, 475.504 432.647 C 476.713 434.491, 477.086 436.544, 476.752 439.505 C 476.319 443.347, 476.543 443.890, 479.207 445.463 C 480.819 446.416, 482.409 446.924, 482.739 446.594 C 483.070 446.263, 484.420 446.701, 485.741 447.566 C 490.434 450.641, 495.650 451.977, 497.547 450.589 C 498.495 449.896, 500.284 449.523, 501.523 449.760 C 502.762 449.997, 504.651 449.722, 505.720 449.150 C 506.789 448.578, 509.799 447.999, 512.409 447.864 C 516.110 447.672, 517.589 447.067, 519.125 445.114 C 521.846 441.654, 521.189 438.090, 517.462 436.101 C 515.792 435.209, 513.143 433.471, 511.577 432.240 C 509.578 430.667, 507.378 430, 504.188 430 C 500.648 430, 498.528 429.235, 494.573 426.533 C 488.380 422.300, 482.785 421.298, 478.236 423.607" stroke="#995b45" fill="#995b45" fill-opacity="0.2" fill-rule="evenodd"/><path class="svg-region-AMC" d="M 519.528 745.250 C 518.446 748.556, 516.034 762.227, 515.473 768.239 C 515.126 771.946, 514.428 775.235, 513.922 775.548 C 512.165 776.634, 513.016 779.734, 516.272 784.106 C 520.482 789.757, 524.604 797.638, 525.451 801.653 C 526.123 804.837, 531.242 810, 533.728 810 C 534.466 810, 536.067 810.639, 537.285 811.419 C 539.970 813.140, 557.501 817.998, 561.028 817.999 C 565.525 818.001, 569.905 813.987, 573.034 807 C 576.287 799.734, 576.730 796.217, 574.500 795.362 C 573.532 794.990, 573 793.443, 573 791 C 573 786.666, 571.998 786, 565.477 786 C 563.080 786, 560.880 785.614, 560.588 785.143 C 560.297 784.672, 557.628 784.035, 554.657 783.728 C 544.829 782.714, 537.635 777.195, 529.081 764.105 C 522.981 754.772, 522 752.547, 522 748.050 C 522 744.251, 520.435 742.479, 519.528 745.250" stroke="#9d4741" fill="#9d4741" fill-opacity="0.2" fill-rule="evenodd"/>
    </svg>