<svg xmlns="http://www.w3.org/2000/svg" width="1078" height="1151" viewBox="0 0 1078 1151" version="1.1">
    <path class="svg-region-V" d="M 502.679 190.112 C 502.030 190.449, 494.128 191.269, 485.119 191.935 C 470.740 192.998, 468.295 193.436, 465.119 195.520 C 463.043 196.881, 459.155 198.176, 456 198.555 C 450.140 199.260, 435.477 203.794, 430.500 206.441 C 422.762 210.556, 412.330 219.832, 406.815 227.500 C 400.262 236.613, 391.621 252.960, 387.521 264 C 382.226 278.261, 371.044 301.606, 367.479 305.843 C 366.115 307.463, 365 309.162, 365 309.618 C 365 310.074, 362.026 316.682, 358.391 324.302 C 353.022 335.559, 351.340 340.333, 349.425 349.767 C 348.129 356.152, 347.439 361.855, 347.892 362.438 C 348.345 363.022, 349.712 367.680, 350.931 372.789 C 352.321 378.620, 354.607 384.657, 357.073 389.008 C 359.233 392.820, 361 396.154, 361 396.418 C 361 396.681, 362.036 398.015, 363.303 399.381 C 366.954 403.321, 370.959 412.101, 371.987 418.422 C 372.744 423.073, 373.628 424.908, 376.417 427.616 C 380.240 431.330, 382.068 431.676, 387.128 429.648 C 388.983 428.905, 394.550 427.730, 399.500 427.036 C 409.828 425.590, 413.074 423.936, 419.411 416.888 C 426.388 409.127, 430.110 400.580, 431.991 388 C 433.946 374.918, 439.317 359.860, 442.456 358.655 C 443.225 358.360, 444.723 356.180, 445.786 353.809 C 446.849 351.439, 450.044 347.250, 452.887 344.500 C 455.729 341.750, 459.730 337.029, 461.777 334.010 C 467.040 326.249, 476.019 316.023, 488.667 303.390 C 498.715 293.353, 499.999 292.402, 505.064 291.250 C 515.545 288.866, 521.817 289.540, 531.654 294.108 C 536.519 296.367, 541.625 298.676, 543 299.239 C 544.375 299.802, 547.228 301.155, 549.339 302.246 C 555.059 305.199, 562.281 306.835, 567.168 306.285 C 571.476 305.799, 571.508 305.766, 571.681 301.648 C 571.890 296.692, 576.003 287.046, 580.131 281.834 C 581.870 279.639, 584.337 274.143, 586.064 268.617 C 589.287 258.306, 595.316 249.440, 601.156 246.420 C 603.239 245.342, 604.027 244.322, 603.663 243.174 C 601.531 236.455, 599.959 233.529, 598.115 232.847 C 596.952 232.417, 596 231.600, 596 231.032 C 596 230.465, 595.212 229.990, 594.250 229.979 C 593.288 229.967, 588.675 226.245, 584 221.709 C 579.325 217.172, 573.250 212.044, 570.500 210.313 C 551.452 198.326, 527.498 189.824, 512.179 189.614 C 507.602 189.551, 503.327 189.776, 502.679 190.112" stroke="#dd8a8a" fill="#dd8a8a" fill-opacity="0.2" fill-rule="evenodd"/><path class="svg-region-SV" d="M 503.564 291.348 C 500.540 292.190, 496.837 295.248, 487.564 304.565 C 473.859 318.335, 466.496 326.654, 462.740 332.614 C 461.314 334.876, 457.394 339.601, 454.029 343.114 C 450.663 346.626, 446.798 351.637, 445.438 354.250 C 444.079 356.863, 442.557 359, 442.056 359 C 439.558 359, 432.164 380.706, 432.008 388.500 C 431.915 393.135, 427.425 405.663, 423.873 411.198 C 420.525 416.416, 420.858 417.947, 425.348 417.985 C 426.364 417.993, 430.895 419.833, 435.416 422.073 L 443.637 426.147 457.405 426.451 L 471.174 426.754 475.818 431.127 C 478.372 433.532, 480.653 435.950, 480.888 436.500 C 481.122 437.050, 483.538 439.525, 486.255 442 C 493.598 448.687, 497.867 455.024, 498.979 460.890 C 500.038 466.473, 502.520 472, 503.969 472 C 505.359 472, 508 467.813, 508 465.610 C 508 464.540, 509.986 459.991, 512.414 455.501 C 515.406 449.967, 516.547 446.884, 515.955 445.928 C 515.476 445.152, 514.788 442.151, 514.427 439.259 C 513.995 435.801, 513.302 434, 512.404 434 C 508.792 434, 509.998 425.122, 514.116 421.395 C 516.838 418.932, 525.121 418.897, 527.819 421.338 C 530.102 423.402, 532.874 423.253, 534.106 421 C 535.818 417.871, 540 407.898, 540 406.946 C 540 406.398, 541.237 405.486, 542.750 404.919 C 544.263 404.352, 547.244 402.688, 549.375 401.221 C 552.262 399.235, 555.009 398.393, 560.147 397.922 C 563.940 397.575, 567.307 397.027, 567.628 396.705 C 567.950 396.383, 568.453 392.291, 568.745 387.612 C 569.398 377.145, 566.604 357.220, 563.703 351.654 C 560.660 345.817, 552.947 340.195, 546.878 339.389 C 540.487 338.542, 538.617 336.749, 539.358 332.183 C 539.969 328.415, 542.867 324.781, 547.345 322.163 C 548.910 321.248, 551.057 318.812, 552.116 316.750 C 553.175 314.687, 555.832 311.869, 558.021 310.487 C 562.522 307.646, 563.116 306, 559.640 306 C 558.343 306, 554.405 304.591, 550.890 302.868 C 547.376 301.146, 543.600 299.363, 542.500 298.906 C 541.400 298.450, 536.500 296.259, 531.610 294.038 C 523.555 290.379, 522.006 290.012, 515.110 290.126 C 510.925 290.196, 505.729 290.746, 503.564 291.348" stroke="#c666b5" fill="#c666b5" fill-opacity="0.2" fill-rule="evenodd"/><path class="svg-region-SF" d="M 600.898 246.480 C 594.270 250.826, 589.242 258.408, 585.940 269.036 C 584.172 274.729, 582.041 279.539, 580.805 280.632 C 578.480 282.688, 572.586 294.764, 571.596 299.500 C 571.183 301.479, 571.705 304.372, 573.130 308 C 574.318 311.025, 575.619 317.325, 576.022 322 C 576.424 326.675, 577.090 331.961, 577.501 333.748 C 577.937 335.640, 577.825 337.518, 577.233 338.248 C 576.675 338.936, 575.493 341.657, 574.606 344.292 C 573.251 348.324, 573.171 350.229, 574.106 356.292 C 574.717 360.257, 575.635 364.291, 576.147 365.257 C 577.614 368.025, 590.377 374, 594.824 374 C 598.118 374, 599.394 374.706, 603.349 378.718 C 605.907 381.312, 608.007 383.675, 608.015 383.968 C 608.024 384.260, 608.437 385.142, 608.933 385.926 C 609.666 387.084, 610.514 386.756, 613.452 384.176 C 615.442 382.429, 617.674 381, 618.412 381 C 619.151 381, 620.315 380.325, 621 379.500 C 621.685 378.675, 623.573 378, 625.195 378 C 629.966 378, 645.205 373.959, 649 371.688 C 653.162 369.196, 664.999 358.845, 664.999 357.695 C 665.001 355.987, 668.981 348.261, 670.516 346.986 C 674.974 343.287, 676.211 335.827, 674.077 325.500 C 672.484 317.790, 667.462 302.783, 664.540 297 C 658.613 285.273, 657.294 282.942, 652.088 275 C 643.805 262.364, 643.224 261.903, 617.227 247.278 C 610.362 243.416, 605.903 243.198, 600.898 246.480" stroke="#8c6b55" fill="#8c6b55" fill-opacity="0.2" fill-rule="evenodd"/><path class="svg-region-IF" d="M 675.667 334.667 C 675.300 335.033, 675 336.314, 675 337.513 C 675 340.153, 672.528 345.317, 670.430 347.058 C 669.133 348.135, 666.208 353.699, 664.879 357.619 C 664.312 359.294, 654.071 368.338, 649.500 371.202 C 645.290 373.840, 635.394 376.692, 627.004 377.686 C 624.260 378.011, 621.507 378.890, 620.885 379.638 C 620.264 380.387, 619.170 381, 618.454 381 C 615.779 381, 611 386.108, 611 388.966 C 611 393.470, 613.133 394.483, 618.654 392.602 C 627.545 389.573, 640.229 390.952, 643.872 395.345 C 645.374 397.156, 650.513 397.597, 651.500 396 C 653.765 392.336, 677.650 399.963, 688.499 407.814 C 691.249 409.805, 693.750 411.784, 694.056 412.212 C 694.362 412.640, 695.400 416.255, 696.364 420.245 C 698.349 428.467, 699.881 434.346, 700.992 438 C 701.410 439.375, 702.316 442.975, 703.005 446 C 703.694 449.025, 704.683 452.036, 705.202 452.691 C 707.216 455.230, 714.162 449.929, 717.925 442.979 C 719.259 440.516, 720.619 438.275, 720.946 438 C 721.938 437.166, 724.079 431.950, 727.103 423 C 729.821 414.958, 729.977 413.577, 729.988 397.377 C 729.998 382.582, 729.736 379.657, 728.058 375.864 C 724.378 367.544, 705.918 351.102, 697.444 348.596 C 694.315 347.671, 682.052 339.372, 679.603 336.522 C 677.315 333.859, 676.744 333.590, 675.667 334.667" stroke="#f2823b" fill="#f2823b" fill-opacity="0.2" fill-rule="evenodd"/><path class="svg-region-PF" d="M 560.100 309.018 C 557.679 310.658, 555.349 312, 554.922 312 C 554.494 312, 553.340 313.823, 552.357 316.051 C 551.374 318.280, 549.196 320.952, 547.518 321.989 C 542.748 324.937, 539.971 328.406, 539.358 332.183 C 538.622 336.715, 540.483 338.540, 546.684 339.368 C 552.748 340.179, 560.464 345.809, 563.559 351.683 C 566.855 357.939, 569.445 376.820, 568.655 388.841 C 567.524 406.056, 571.716 411.200, 583.842 407.480 C 586.954 406.525, 590.850 404.951, 592.500 403.981 C 594.150 403.012, 599.438 400.541, 604.250 398.491 C 609.063 396.440, 613 394.585, 613 394.368 C 613 394.151, 612.616 393.191, 612.147 392.236 C 611.678 391.281, 610.513 388.870, 609.558 386.878 C 608.604 384.886, 605.770 381.173, 603.260 378.628 C 599.517 374.831, 598.053 374, 595.108 374 C 590.521 374, 577.715 367.737, 576.184 364.746 C 574.356 361.173, 572.926 349.745, 573.888 346.391 C 574.362 344.737, 575.524 341.887, 576.469 340.059 C 577.608 337.858, 577.973 335.683, 577.552 333.618 C 577.201 331.903, 576.532 326.675, 576.064 322 C 575.596 317.325, 574.605 311.813, 573.862 309.750 C 572.604 306.260, 572.233 306.001, 568.505 306.018 C 565.732 306.031, 563.146 306.954, 560.100 309.018" stroke="#faaaaa" fill="#faaaaa" fill-opacity="0.2" fill-rule="evenodd"/><path class="svg-region-AAB" d="M 651.500 396 C 651.160 396.550, 649.784 397, 648.441 397 C 646.333 397, 646.014 397.444, 646.100 400.250 C 646.251 405.193, 647.236 407.727, 650.239 410.901 C 654.995 415.929, 656.296 429.643, 652.573 435.500 C 651.874 436.600, 650.997 439.142, 650.624 441.150 C 650.252 443.157, 649.284 445.349, 648.474 446.022 C 647.663 446.695, 647 447.673, 647 448.197 C 647 452.318, 626.004 477.739, 623.751 476.346 C 621.582 475.006, 613.011 486.240, 607.994 497 C 603.120 507.453, 600.188 512.509, 597.599 514.924 C 593.132 519.091, 593.894 519.171, 608 516.022 C 610.946 515.364, 616.891 512.911, 627.500 507.976 C 630.885 506.402, 643.323 501.910, 646.651 501.060 C 648.384 500.617, 654.234 498.134, 659.651 495.542 C 672.634 489.328, 674.996 488.058, 678.169 485.582 C 679.637 484.437, 682.722 482.375, 685.025 481 C 691.805 476.953, 703.706 464.628, 704.523 460.810 C 704.912 458.989, 705.614 457.022, 706.083 456.437 C 706.580 455.816, 706.122 453.733, 704.982 451.428 C 703.908 449.258, 702.602 445.461, 702.079 442.991 C 701.556 440.521, 700.622 436.700, 700.004 434.500 C 699.385 432.300, 698.260 427.800, 697.504 424.500 C 694.693 412.229, 694.781 412.392, 688.500 407.838 C 677.515 399.873, 653.796 392.284, 651.500 396" stroke="#7f3c1a" fill="#7f3c1a" fill-opacity="0.2" fill-rule="evenodd"/><path class="svg-region-APB" d="M 619.500 392.154 C 615.641 393.435, 606.694 397.260, 596.168 402.130 C 585.680 406.981, 569.955 420.335, 567.470 426.500 C 565.765 430.728, 563.778 434.804, 558.763 444.354 C 552.971 455.384, 550.259 469.473, 549.398 493 C 549.207 498.225, 548.689 505.274, 548.247 508.664 C 547.317 515.796, 548.192 517.491, 554.574 520.912 C 559.215 523.399, 565.971 523.627, 572 521.500 C 574.338 520.675, 579.367 520, 583.175 520 C 594.362 520, 598.124 516.976, 605.572 502 C 610.788 491.512, 617.741 480.449, 620.934 477.560 C 624.464 474.365, 623.583 467.839, 618.243 457.626 C 617.143 455.521, 616.905 453.115, 617.357 448.626 C 617.910 443.117, 618.350 442.177, 621.731 439.295 C 623.798 437.532, 628.060 435.152, 631.202 434.007 C 639.379 431.025, 644 424.343, 644 415.500 C 644 412.830, 644.592 410.753, 645.591 409.925 C 646.863 408.868, 647.045 407.496, 646.499 403.052 C 645.740 396.878, 644.055 394.382, 639.282 392.362 C 635.595 390.801, 623.943 390.679, 619.500 392.154" stroke="#ac7444" fill="#ac7444" fill-opacity="0.2" fill-rule="evenodd"/><path class="svg-region-PC" d="M 559.500 397.902 C 555.196 398.331, 552.011 399.419, 548.235 401.750 C 545.339 403.538, 542.516 405, 541.960 405 C 541.405 405, 540.537 406.012, 540.031 407.250 C 535.133 419.231, 533.878 421.646, 532.051 422.605 C 530.115 423.623, 530.079 423.821, 531.604 425.086 C 532.989 426.236, 533.163 427.729, 532.666 434.178 C 532.017 442.596, 530.323 447.677, 527.088 450.912 C 524.435 453.565, 520.396 453.607, 518.768 451 C 518.081 449.900, 517.199 449, 516.807 449 C 515.613 449, 508.930 461.090, 508.297 464.396 C 507.971 466.103, 506.816 468.770, 505.732 470.322 C 503.806 473.079, 503.803 473.240, 505.583 477.322 C 506.586 479.620, 508.889 483.189, 510.703 485.253 C 512.516 487.317, 514 489.431, 514 489.951 C 514 492.001, 524.303 503.123, 528.170 505.247 C 530.425 506.486, 533.223 508.040, 534.386 508.700 C 535.549 509.361, 537.646 511.259, 539.046 512.918 C 541.238 515.517, 542.003 515.827, 544.546 515.150 C 547.268 514.426, 547.561 513.900, 548.274 508.432 C 548.700 505.170, 549.176 498.450, 549.332 493.500 C 549.743 480.453, 551.596 463.624, 552.886 461.213 C 553.499 460.068, 554 458.042, 554 456.710 C 554 455.378, 556.628 449.161, 559.840 442.894 C 563.052 436.627, 566.234 429.820, 566.912 427.766 C 567.768 425.173, 570.935 421.428, 577.271 415.516 C 585.973 407.395, 587.002 405.675, 581.715 408.084 C 580.002 408.865, 578.192 408.859, 575.242 408.065 C 571.523 407.064, 570.997 406.507, 569.494 401.981 C 568.584 399.242, 567.313 397.069, 566.670 397.152 C 566.026 397.236, 562.800 397.574, 559.500 397.902" stroke="#cda789" fill="#cda789" fill-opacity="0.2" fill-rule="evenodd"/><path class="svg-region-DB" d="M 417.921 418.608 C 415.087 422.049, 408.635 426, 405.850 426 C 403.802 426, 403 426.493, 403 427.751 C 403 430.004, 415.511 443.179, 419.714 445.352 C 421.481 446.266, 425.815 449.148, 429.345 451.757 C 432.876 454.365, 436.770 457.175, 437.998 458 C 439.226 458.825, 441.192 460.203, 442.366 461.063 C 443.540 461.923, 446.750 463.432, 449.500 464.417 C 453.405 465.815, 456.436 468.210, 463.340 475.354 C 468.202 480.384, 473.254 486.525, 474.566 489 C 479.342 498.008, 484.485 504.393, 489.163 507.121 C 491.728 508.616, 494.091 509.576, 494.413 509.253 C 495.394 508.273, 495.068 502.160, 494 501.500 C 493.450 501.160, 493 499.135, 493 497 C 493 494.865, 493.450 492.840, 494 492.500 C 494.550 492.160, 495 490.949, 495 489.809 C 495 488.669, 495.937 486.220, 497.082 484.368 C 498.872 481.471, 499.711 481, 503.082 481 C 505.237 481, 507 480.737, 507 480.415 C 507 480.093, 505.401 476.605, 503.447 472.665 C 501.492 468.724, 499.465 463.287, 498.941 460.583 C 497.831 454.856, 492.383 447.087, 485.548 441.485 C 483.046 439.436, 481 437.301, 481 436.741 C 481 436.182, 478.870 433.796, 476.268 431.440 C 471.984 427.563, 470.900 427.092, 464.837 426.484 C 461.152 426.114, 456.869 426.089, 455.319 426.428 C 450.972 427.381, 442.222 425.353, 434.500 421.604 C 425.534 417.250, 419.881 416.229, 417.921 418.608" stroke="#e8b1e4" fill="#e8b1e4" fill-opacity="0.2" fill-rule="evenodd"/><path class="svg-region-MB" d="M 392.834 428.023 C 384.700 429.396, 382.542 430.937, 382.199 435.620 C 381.967 438.787, 382.452 440.386, 384.320 442.613 C 385.651 444.201, 387.078 447.046, 387.491 448.935 C 388.008 451.307, 390.093 454.107, 394.221 457.975 L 400.202 463.579 400.564 473.039 C 400.763 478.243, 400.942 483.705, 400.963 485.179 C 401.016 489.002, 406.483 494.409, 417.278 501.315 C 420.288 503.240, 423.601 505.729, 424.641 506.846 C 426.837 509.202, 437.555 511.733, 449.359 512.682 C 455.448 513.171, 457.822 513.821, 459.896 515.566 C 461.944 517.289, 464.211 517.925, 469.537 518.271 C 473.367 518.519, 483.226 519.446, 491.446 520.331 C 499.667 521.216, 506.594 521.740, 506.839 521.494 C 507.631 520.702, 504.623 517.752, 499.500 514.297 C 484.200 503.978, 482.765 502.820, 480.986 499.365 C 480.175 497.789, 478.271 494.745, 476.756 492.600 C 475.240 490.455, 474 488.257, 474 487.716 C 474 487.175, 470.063 482.439, 465.250 477.193 C 458.047 469.341, 455.351 467.134, 450 464.711 C 446.425 463.092, 439 458.555, 433.500 454.629 C 428 450.703, 421.250 446.051, 418.500 444.292 C 413.518 441.105, 403 430.095, 403 428.067 C 403 426.870, 399.749 426.856, 392.834 428.023" stroke="#f9c6c6" fill="#f9c6c6" fill-opacity="0.2" fill-rule="evenodd"/><path class="svg-region-AP" d="M 582.500 615.006 C 578.650 616.083, 570.380 617.269, 564.123 617.642 L 552.746 618.319 553.242 630.910 C 553.619 640.493, 554.236 644.736, 555.824 648.674 C 556.972 651.520, 558.216 656.245, 558.589 659.174 C 558.961 662.103, 559.637 664.972, 560.089 665.550 C 560.542 666.127, 561.206 668.602, 561.564 671.050 C 561.923 673.497, 562.804 677.750, 563.522 680.500 C 564.241 683.250, 565.332 692.700, 565.946 701.500 C 567.399 722.313, 567.824 726.071, 568.871 727.399 C 569.348 728.005, 570.003 730.525, 570.327 733 C 571.853 744.677, 573.019 750.824, 574.404 754.500 C 575.234 756.700, 575.932 759.480, 575.956 760.679 C 575.980 761.877, 576.723 763.580, 577.607 764.464 C 578.491 765.348, 578.997 766.905, 578.730 767.924 C 578.464 768.942, 579.213 770.988, 580.395 772.471 C 582.503 775.114, 582.831 775.179, 597.522 775.879 C 605.760 776.271, 615.200 776.520, 618.500 776.433 C 621.800 776.346, 625.061 776.717, 625.746 777.257 C 627.376 778.541, 642.287 778.900, 647.461 777.780 C 649.682 777.299, 654.425 776.699, 658 776.446 C 663.722 776.043, 671.570 774.028, 689.500 768.360 C 694.437 766.799, 707.030 761.050, 708 759.915 C 708.275 759.593, 711.733 757.452, 715.684 755.159 C 719.636 752.865, 723.470 750.387, 724.205 749.652 C 724.940 748.917, 726.544 747.779, 727.771 747.123 C 728.997 746.467, 730 745.293, 730 744.515 C 730 743.736, 730.649 742.736, 731.443 742.292 C 732.236 741.848, 733.248 740.508, 733.693 739.314 C 735.037 735.700, 744.382 725.015, 746.205 725.007 C 750.197 724.990, 749.366 712.800, 745.332 712.201 C 743.851 711.982, 741.851 708.818, 737.746 700.201 C 734.679 693.766, 731.909 686.988, 731.588 685.139 C 731.242 683.142, 729.037 679.490, 726.155 676.139 C 721.682 670.940, 711 652.117, 711 649.436 C 711 648.798, 708.873 645.851, 706.273 642.888 C 696.726 632.007, 689.018 625.257, 681.815 621.472 L 674.526 617.642 653.513 616.985 C 641.956 616.624, 631.307 615.833, 629.848 615.226 C 628.390 614.620, 618.715 613.882, 608.348 613.586 C 591.641 613.109, 588.705 613.271, 582.500 615.006" stroke="#fc7143" fill="#fc7143" fill-opacity="0.2" fill-rule="evenodd"/><path class="svg-region-PP" d="M 432.500 619.471 C 427.213 620.525, 423.437 622.160, 407.864 630.137 C 405.864 631.162, 403.536 632, 402.691 632 C 401.845 632, 399.769 633.165, 398.077 634.589 C 396.385 636.013, 395 636.823, 395 636.389 C 395 635.955, 394.498 636.102, 393.884 636.716 C 392.063 638.537, 391.668 661.008, 393.370 665.949 C 394.293 668.627, 394.613 672.174, 394.272 675.936 C 393.846 680.630, 394.150 682.526, 395.824 685.635 C 396.969 687.761, 398.626 691.725, 399.507 694.444 C 400.387 697.163, 402.161 701.438, 403.449 703.944 C 404.736 706.450, 407.558 711.936, 409.721 716.136 C 411.883 720.336, 415.162 725.679, 417.007 728.009 C 420.635 732.589, 430.318 739.230, 440.876 744.378 C 449.828 748.744, 457.045 752.927, 459.686 755.280 C 462.638 757.911, 470.028 762.974, 478.500 768.171 C 482.350 770.533, 486.976 773.452, 488.781 774.658 C 495.467 779.129, 526.795 794.016, 528.301 793.438 C 529.149 793.112, 530.757 793.335, 531.873 793.932 C 533.807 794.967, 533.849 794.865, 532.771 791.759 C 532.149 789.967, 529.636 786.491, 527.186 784.037 C 521.811 778.651, 512.563 764.848, 510.598 759.277 C 509.296 755.587, 509.338 754.973, 511.095 752.083 C 517.493 741.563, 529.543 737.165, 537.386 742.487 C 541.404 745.214, 557.160 752, 559.473 752 C 561.763 752, 564.563 755.625, 568.486 763.670 C 571.746 770.355, 572.386 771.089, 574.709 770.811 C 578.594 770.345, 579.716 767.830, 577.827 763.825 C 574.288 756.322, 572.200 747.753, 570.314 733 C 569.997 730.525, 569.376 728.039, 568.933 727.475 C 567.949 726.221, 567.365 721.039, 565.949 701 C 565.347 692.475, 564.257 683.250, 563.527 680.500 C 562.796 677.750, 561.903 673.373, 561.542 670.773 C 561.180 668.174, 560.460 665.785, 559.942 665.464 C 559.424 665.144, 558.991 663.221, 558.979 661.191 C 558.967 659.161, 557.803 654.350, 556.392 650.500 C 554.323 644.855, 553.721 641.025, 553.279 630.716 L 552.732 617.931 547.116 618.458 C 535.441 619.555, 501.297 621.464, 496.500 621.289 C 493.750 621.189, 485.104 620.897, 477.286 620.642 C 469.468 620.386, 459.568 619.905, 455.286 619.573 C 451.004 619.240, 445.475 618.812, 443 618.621 C 440.525 618.431, 435.800 618.813, 432.500 619.471" stroke="#c4743d" fill="#c4743d" fill-opacity="0.2" fill-rule="evenodd"/><path class="svg-region-VMr" d="M 523.408 741.078 C 519.806 742.123, 511.327 750.010, 509.971 753.576 C 508.233 758.148, 517.006 773.642, 527.257 784.103 C 529.590 786.484, 531.985 789.798, 532.579 791.466 C 534.541 796.984, 537.138 797.281, 556.560 794.208 C 564.485 792.954, 572.911 785.939, 575.156 778.727 C 576.246 775.226, 576.142 774.758, 573.718 772.227 C 572.282 770.727, 570.397 767.803, 569.531 765.729 C 566.587 758.681, 561.913 752, 559.926 752 C 557.251 752, 541.785 745.473, 537.386 742.487 C 533.536 739.874, 529.096 739.427, 523.408 741.078" stroke="#e59376" fill="#e59376" fill-opacity="0.2" fill-rule="evenodd"/><path class="svg-region-PMr" d="M 252.500 724.928 C 247.888 727.101, 243.820 730.544, 242.157 733.684 C 239.459 738.778, 241.902 745.021, 246.579 744.985 C 251.098 744.951, 260.203 741.224, 262.851 738.324 C 264.374 736.657, 266.219 735.094, 266.953 734.849 C 267.998 734.501, 268.039 733.941, 267.143 732.268 C 266.515 731.093, 266 729.067, 266 727.766 C 266 726.465, 265.460 724.860, 264.800 724.200 C 263.027 722.427, 257.059 722.781, 252.500 724.928" stroke="#90cf92" fill="#90cf92" fill-opacity="0.2" fill-rule="evenodd"/><path class="svg-region-PV" d="M 252.370 603.037 C 246.875 604.125, 232.270 610.855, 231.596 612.609 C 230.728 614.872, 231.966 616.775, 234.764 617.477 C 238.605 618.441, 248.785 627.659, 251.169 632.331 C 253.039 635.997, 253.251 638.405, 253.470 658.435 C 253.712 680.724, 253.377 685.219, 250.595 697 C 245.539 718.404, 245.643 717.723, 246.957 720.897 C 248.442 724.481, 250.723 725.436, 254.433 724.025 C 258.073 722.641, 263.330 722.730, 264.800 724.200 C 265.460 724.860, 266 726.795, 266 728.500 C 266 730.205, 266.563 732.196, 267.250 732.925 C 268.254 733.989, 268.218 734.352, 267.069 734.769 C 265.352 735.391, 261 739.950, 261 741.127 C 261 742.196, 263.074 742.576, 276.500 743.968 C 295.948 745.984, 298.344 746.512, 307.695 750.840 C 317.533 755.393, 322.257 759.038, 323.482 763.020 C 323.902 764.384, 324.578 765.950, 324.985 766.500 C 325.391 767.050, 326.048 768.850, 326.443 770.500 C 326.838 772.150, 328.700 776.034, 330.581 779.131 C 332.461 782.228, 334 785.464, 334 786.322 C 334 787.180, 334.450 788.160, 335 788.500 C 337.059 789.773, 335.879 794.009, 332.250 798.372 C 330.188 800.851, 327.712 803.163, 326.749 803.508 C 325.786 803.853, 324.510 805.048, 323.913 806.162 C 322.645 808.533, 321.351 808.770, 338.500 803.487 C 345.100 801.454, 350.725 799.461, 351 799.058 C 353.136 795.933, 371.057 788.593, 379.172 787.519 C 383.059 787.005, 384.634 786.087, 388.542 782.058 C 393.920 776.514, 399.422 765.617, 401.613 756.168 C 403.892 746.343, 403.991 728.797, 401.809 721.500 C 400.822 718.200, 400.016 713.925, 400.017 712 C 400.019 708.715, 395.963 694.924, 393.694 690.500 C 389.149 681.639, 388.026 678.737, 387.053 673.334 C 385.530 664.879, 385.531 647.957, 387.054 643.316 C 387.743 641.217, 389.296 637.925, 390.505 636 C 391.715 634.075, 392.917 631.038, 393.179 629.250 C 393.644 626.064, 393.578 626, 389.805 626 C 387.665 626, 383.018 624.668, 379.340 623 C 375.701 621.350, 372.299 620, 371.781 620 C 371.263 620, 368.513 618.482, 365.669 616.627 C 361.663 614.013, 359.038 613.114, 354 612.632 C 350.425 612.289, 343.225 611.591, 338 611.081 C 332.775 610.570, 323.100 609.870, 316.500 609.526 C 309.900 609.182, 300.752 608.023, 296.171 606.950 C 291.590 605.878, 286.325 605, 284.470 605 C 282.615 605, 278.506 604.325, 275.339 603.500 C 269.196 601.900, 259.136 601.697, 252.370 603.037" stroke="#b09658" fill="#b09658" fill-opacity="0.2" fill-rule="evenodd"/><path class="svg-region-DV" d="M 224.500 616.269 C 222.300 617.443, 220.350 618.763, 220.167 619.202 C 219.983 619.641, 219.153 620, 218.321 620 C 216.718 620, 210.741 623.851, 210.150 625.265 C 209.957 625.726, 207.388 628.868, 204.440 632.247 C 188.890 650.077, 184.680 677.069, 191.845 713 C 196.598 736.833, 199.451 744.354, 206.803 752.434 C 211.166 757.228, 216.572 757.379, 224.136 752.920 C 227.009 751.226, 231.087 749.149, 233.198 748.304 C 238.114 746.337, 241 742.645, 241 738.322 C 241 735.651, 241.995 733.850, 245.602 729.994 L 250.204 725.075 248.102 722.402 C 246.946 720.933, 246 719.025, 246 718.163 C 246 715.964, 249.772 699.585, 251.782 693.052 C 253.171 688.542, 253.453 683.207, 253.421 662.052 C 253.386 637.938, 253.263 636.269, 251.246 632.396 C 248.980 628.045, 238.967 618.729, 235.340 617.597 C 234.152 617.226, 232.635 616.265, 231.968 615.461 C 230.398 613.570, 229.342 613.684, 224.500 616.269" stroke="#45567a" fill="#45567a" fill-opacity="0.2" fill-rule="evenodd"/><path class="svg-region-VV" d="M 238.793 743.886 C 237.298 746.019, 218.995 756, 216.576 756 C 214.547 756, 214.508 755.803, 217.908 762.647 C 221.107 769.087, 223.222 770.931, 233.284 776.049 C 240.019 779.475, 256.288 791.136, 263 797.347 C 272.189 805.851, 283.057 812.888, 289.340 814.400 C 294.781 815.709, 314.583 812.065, 320.895 808.592 C 325.328 806.153, 336 794.698, 336 792.378 C 336 789.924, 333.617 784.323, 329.031 776 C 327.364 772.975, 326 769.987, 326 769.359 C 326 767.220, 322.481 760.506, 319.971 757.856 C 316.063 753.729, 299.804 746.590, 292 745.575 C 263.950 741.924, 258.153 741.609, 252.868 743.450 C 247.326 745.380, 244.572 745.394, 243 743.500 C 241.356 741.519, 240.388 741.608, 238.793 743.886" stroke="#7699d1" fill="#7699d1" fill-opacity="0.2" fill-rule="evenodd"/><path class="svg-region-B" d="M 824 488.390 C 812.800 493.160, 811.455 493.875, 809.363 496.163 C 806.500 499.293, 803.660 505.213, 801.525 512.500 C 800.559 515.800, 799.171 520.300, 798.442 522.500 C 797.713 524.700, 796.374 531.900, 795.466 538.500 C 793.118 555.568, 790.250 562.726, 783.266 568.951 C 780.207 571.677, 774.661 575.507, 770.941 577.462 C 767.221 579.416, 761.921 582.475, 759.163 584.258 C 749.953 590.213, 744.556 593.402, 737.500 597.058 C 724.201 603.949, 720.486 606.315, 716.750 610.276 C 714.688 612.463, 713 614.439, 713 614.667 C 713 614.895, 712.012 616.417, 710.804 618.051 C 708.903 620.623, 708.551 622.633, 708.180 633.044 C 707.833 642.773, 708.039 645.395, 709.257 646.784 C 710.086 647.728, 711.102 649.625, 711.516 651 C 713.674 658.170, 726.042 678.007, 730.272 681.081 C 730.711 681.400, 731.346 683.425, 731.682 685.581 C 732.019 687.736, 734.719 694.533, 737.683 700.685 C 741.893 709.424, 743.556 711.939, 745.286 712.185 C 746.977 712.426, 747.717 713.480, 748.421 716.650 C 749.336 720.773, 749.380 720.807, 755.421 721.956 C 764.433 723.671, 773.030 726.119, 777.146 728.142 C 782.139 730.596, 794.014 733.686, 803.021 734.873 C 807.134 735.416, 814.190 736.382, 818.700 737.021 C 829.667 738.574, 836.555 737.905, 848.458 734.131 C 859.235 730.713, 862.863 728.623, 867.500 723.160 L 870.500 719.625 870.178 702.062 C 870 692.403, 870.156 682.025, 870.524 679 C 871.130 674.016, 871.723 672.968, 876.846 667.827 C 886.913 657.727, 889 653.920, 889 645.658 C 889 638.655, 886.590 627.057, 883.981 621.500 C 882.948 619.300, 880.279 613.718, 878.051 609.096 C 875.823 604.474, 874 600.235, 874 599.675 C 874 599.115, 873.416 597.947, 872.703 597.079 C 871.989 596.210, 870.381 592.800, 869.128 589.500 C 867.875 586.200, 865.871 581.280, 864.675 578.567 C 861.263 570.828, 861.768 556.436, 866.193 535.344 C 867.311 530.013, 866.679 517.242, 864.894 509.116 C 864.365 506.704, 862.181 501.754, 860.041 498.116 C 854.558 488.790, 849.422 485.991, 837.853 486.024 C 831.362 486.042, 828.274 486.570, 824 488.390" stroke="#e23b33" fill="#e23b33" fill-opacity="0.2" fill-rule="evenodd"/><path class="svg-region-VOC" d="M 497.082 484.368 C 495.937 486.220, 495 488.669, 495 489.809 C 495 490.949, 494.550 492.160, 494 492.500 C 492.636 493.343, 492.730 500.715, 494.115 501.571 C 494.792 501.989, 495.037 503.978, 494.739 506.627 L 494.247 510.993 500.306 515.129 C 506.782 519.549, 514.369 521.906, 522.316 521.964 C 524.964 521.984, 527.984 522.456, 529.026 523.014 C 531.340 524.253, 538.902 522.761, 540.130 520.824 C 541.804 518.184, 540.997 514.371, 538.195 511.687 C 536.653 510.209, 535.110 509, 534.766 509 C 534.422 509, 531.522 507.245, 528.321 505.101 C 522.580 501.256, 516.553 494.880, 514.045 490 C 513.338 488.625, 511.376 486.038, 509.684 484.250 C 507.286 481.716, 505.787 481, 502.885 481 C 499.738 481, 498.842 481.520, 497.082 484.368" stroke="#ff8f93" fill="#ff8f93" fill-opacity="0.2" fill-rule="evenodd"/><path class="svg-region-OABr" d="M 645.200 410.200 C 644.540 410.860, 643.963 413.447, 643.919 415.950 C 643.867 418.845, 642.867 422.309, 641.169 425.473 C 638.489 430.465, 637.183 431.412, 627.323 435.504 C 620.530 438.324, 617.920 441.795, 617.279 448.862 C 616.858 453.504, 617.114 455.525, 618.364 457.433 C 619.264 458.806, 620 460.759, 620 461.774 C 620 462.788, 620.661 464.491, 621.468 465.559 C 622.276 466.626, 622.951 469.386, 622.968 471.691 C 622.986 473.996, 623.371 476.112, 623.825 476.392 C 624.790 476.988, 636.598 465.100, 640.099 460.008 C 647.980 448.547, 651.816 440.364, 654.293 429.728 C 656.747 419.190, 650.223 405.177, 645.200 410.200" stroke="#81244d" fill="#81244d" fill-opacity="0.2" fill-rule="evenodd"/><path class="svg-region-SOTr" d="M 517.500 419.719 C 514.701 420.401, 512.389 422.646, 510.978 426.053 C 509.585 429.415, 510.408 434, 512.404 434 C 513.302 434, 513.995 435.801, 514.426 439.256 C 515.245 445.810, 518.787 452.390, 521.725 452.813 C 527.869 453.698, 531.929 446.740, 532.613 434.150 L 533.084 425.500 528.934 422.250 C 524.945 419.127, 522.319 418.545, 517.500 419.719" stroke="#995b45" fill="#995b45" fill-opacity="0.2" fill-rule="evenodd"/>
    </svg>