<svg xmlns="http://www.w3.org/2000/svg" width="1078" height="1151" viewBox="0 0 1078 1151" version="1.1">
    <path class="svg-region-V" d="M 492.075 189.563 C 486.341 190.300, 481.262 190.662, 480.788 190.369 C 480.314 190.076, 477.261 191.223, 474.004 192.918 C 470.747 194.613, 467.272 196, 466.283 196 C 465.294 196, 462.463 197.065, 459.992 198.368 C 457.521 199.670, 453.365 201.047, 450.755 201.428 C 447.991 201.832, 444.799 203.140, 443.110 204.561 C 441.516 205.902, 439.704 207, 439.083 207 C 438.463 207, 436.053 208.740, 433.728 210.866 C 431.402 212.993, 428.112 215.441, 426.415 216.307 C 421.862 218.630, 412 226.908, 412 228.407 C 412 229.120, 409.975 232.787, 407.500 236.555 C 405.025 240.323, 402.998 244.102, 402.996 244.953 C 402.994 245.804, 402.094 247.973, 400.996 249.774 C 399.898 251.575, 399 253.468, 399 253.980 C 399 254.493, 397.656 257.191, 396.014 259.976 C 394.372 262.762, 392.736 266.202, 392.380 267.622 C 391.357 271.696, 385.222 282.701, 380.535 288.865 C 376.341 294.383, 365.384 315.071, 362.987 322 C 356.407 341.016, 351.707 365.666, 353.893 369.694 C 354.432 370.687, 356.028 375.245, 357.440 379.822 C 358.851 384.399, 360.515 389.093, 361.136 390.254 C 361.757 391.414, 362.835 394.644, 363.532 397.432 C 366.420 408.988, 372.391 421.632, 375.796 423.403 C 377.283 424.176, 379.589 425.758, 380.919 426.918 C 382.249 428.078, 384.049 428.810, 384.919 428.545 C 385.789 428.279, 390.477 427.376, 395.337 426.539 C 409.192 424.150, 416.526 417.817, 419.121 406 C 419.786 402.975, 421.004 399.150, 421.828 397.500 C 422.652 395.850, 423.641 390.965, 424.024 386.645 C 424.408 382.325, 425.172 378.500, 425.721 378.145 C 426.271 377.790, 427.517 375.947, 428.490 374.049 C 429.463 372.151, 430.894 369.963, 431.669 369.188 C 432.444 368.413, 434.225 365.516, 435.627 362.750 C 440.611 352.913, 446.130 346.280, 463.703 329 C 483.400 309.631, 486.994 306.569, 497.377 300.308 C 508.300 293.721, 513.966 291.855, 519.729 292.949 C 524.392 293.835, 532.514 296.843, 536.493 299.160 C 537.589 299.798, 539.839 300.660, 541.493 301.075 C 543.147 301.491, 547.875 302.811, 552 304.010 C 561.909 306.888, 572.850 306.468, 578.600 302.988 C 584.088 299.667, 586.072 297.523, 591.447 289.109 C 594.044 285.043, 598.885 278.968, 602.206 275.609 C 610.715 266.999, 613 262.387, 613 253.819 C 613 244.935, 611.212 240.783, 605.880 237.288 C 603.541 235.755, 598.252 230.989, 594.129 226.698 C 582.542 214.642, 570.582 206.850, 550.500 198.274 C 535.241 191.758, 529.287 190.123, 516.681 188.986 C 504.555 187.892, 505.214 187.877, 492.075 189.563" stroke="#dd8a8a" fill="#dd8a8a" fill-opacity="0.2" fill-rule="evenodd"/><path class="svg-region-SV" d="M 511.500 293.076 C 507.346 294.273, 491.044 303.760, 485.855 308 C 480.979 311.984, 465.850 325.957, 464.813 327.435 C 464.435 327.973, 459.485 333.179, 453.813 339.002 C 442.823 350.286, 441.082 352.539, 434.882 363.500 C 432.704 367.350, 429.367 372.975, 427.465 376 C 424.649 380.481, 424.008 382.485, 424.004 386.815 C 424.002 389.738, 423.144 394.238, 422.097 396.815 C 421.051 399.392, 419.622 403.750, 418.923 406.500 C 418.223 409.250, 417.028 412.474, 416.267 413.664 C 414.686 416.136, 415.023 416.330, 423 417.532 C 425.475 417.905, 431.131 419.996, 435.568 422.179 C 443.629 426.143, 443.650 426.147, 457.336 426.449 L 471.036 426.751 475.886 431.126 C 478.947 433.887, 481.074 436.790, 481.654 439 C 482.283 441.398, 483.647 443.130, 485.986 444.500 C 492.123 448.096, 497.840 454.582, 498.512 458.713 C 499.341 463.807, 501.906 470.824, 503.241 471.649 C 504.657 472.524, 508 468.360, 508 465.721 C 508 464.590, 509.986 459.991, 512.414 455.501 C 515.406 449.967, 516.547 446.884, 515.955 445.928 C 515.476 445.152, 514.788 442.151, 514.427 439.259 C 513.995 435.801, 513.302 434, 512.404 434 C 510.749 434, 509.580 429.900, 510.451 427.155 C 511.746 423.073, 514.979 420.179, 519.004 419.499 C 521.460 419.084, 523 418.280, 523 417.412 C 523 416.635, 523.563 416, 524.250 416 C 524.938 416, 526.741 414.444, 528.258 412.543 C 531.132 408.941, 535.272 406.597, 540.673 405.512 C 542.418 405.162, 545.998 403.450, 548.628 401.707 C 552.367 399.231, 554.898 398.403, 560.227 397.915 C 563.976 397.571, 567.327 397.007, 567.673 396.660 C 568.019 396.314, 568.513 391.411, 568.771 385.765 C 569.036 379.935, 569.761 374.852, 570.447 374 C 571.112 373.175, 572.604 370.837, 573.762 368.805 C 575.543 365.679, 575.694 364.649, 574.737 362.114 C 574.079 360.371, 572.651 358.878, 571.321 358.544 C 570.065 358.229, 568.368 356.679, 567.551 355.100 C 566.735 353.520, 563.275 349.702, 559.863 346.614 C 554.012 341.320, 549.312 339.018, 544.321 339.006 C 540.770 338.996, 538.711 336.167, 539.358 332.183 C 539.969 328.415, 542.867 324.781, 547.345 322.163 C 548.910 321.248, 551.057 318.812, 552.116 316.750 C 553.175 314.687, 555.832 311.869, 558.021 310.487 C 562.275 307.801, 563.141 306, 560.178 306 C 559.176 306, 556.364 305.378, 553.928 304.617 C 551.493 303.857, 547.475 302.698, 545 302.042 C 542.525 301.386, 539.150 300.163, 537.500 299.324 C 527.404 294.194, 516.617 291.601, 511.500 293.076" stroke="#c666b5" fill="#c666b5" fill-opacity="0.2" fill-rule="evenodd"/><path class="svg-region-SF" d="M 613.667 247.667 C 613.300 248.033, 613 250.973, 613 254.199 C 613 262.216, 611.259 265.775, 603.136 274.357 C 599.303 278.406, 594.176 284.820, 591.743 288.610 C 589.310 292.399, 585.335 297.282, 582.909 299.461 C 580.134 301.953, 578.042 304.918, 577.265 307.461 C 575.720 312.514, 575.639 325.679, 577.116 331.545 C 578.099 335.451, 577.967 336.539, 575.999 340.725 C 569.609 354.319, 574.372 370.011, 586.851 376.478 C 589.408 377.803, 593.674 381.397, 596.331 384.465 C 603.341 392.557, 607.526 394.484, 618 394.442 C 629.453 394.395, 637.055 391.728, 638.187 387.359 C 638.725 385.284, 640.492 383.311, 643.738 381.164 C 652.320 375.487, 657.774 370.585, 661.416 365.274 C 663.387 362.400, 665 359.378, 665 358.558 C 665 354.111, 671.101 345, 674.079 345 C 675.478 345, 675.738 344.282, 675.437 341.250 C 675.232 339.188, 674.558 332.325, 673.939 326 C 672.831 314.667, 672.745 314.398, 668.068 307.500 C 665.458 303.650, 661.748 297.575, 659.825 294 C 649.958 275.662, 644.271 268.439, 633.052 260 C 631.224 258.625, 627.525 255.588, 624.831 253.250 C 622.137 250.912, 619.273 249, 618.467 249 C 617.660 249, 617 248.550, 617 248 C 617 246.875, 614.689 246.644, 613.667 247.667" stroke="#8c6b55" fill="#8c6b55" fill-opacity="0.2" fill-rule="evenodd"/><path class="svg-region-IF" d="M 670.558 346.585 C 668.738 348.405, 665 356.237, 665 358.229 C 665 358.965, 663.433 361.999, 661.518 364.972 C 658.229 370.077, 652.024 375.860, 645.652 379.758 C 638.773 383.965, 638 384.951, 638 389.516 C 638 392.899, 638.502 394.238, 640.223 395.443 C 642.693 397.174, 650.535 397.561, 651.500 396 C 652.449 394.465, 656.657 394.799, 664.669 397.047 C 675.043 399.958, 682.471 403.455, 690.157 409.045 C 693.832 411.718, 699.083 415.117, 701.825 416.598 C 706.465 419.104, 707.113 419.205, 711.156 418.056 C 713.545 417.377, 717.300 416.523, 719.500 416.160 L 723.500 415.498 723.145 409.999 C 722.949 406.975, 722.387 403.742, 721.895 402.816 C 721.403 401.889, 720.989 398.739, 720.976 395.816 C 720.943 388.690, 719.492 382.817, 715.912 375.315 C 711.743 366.579, 709.089 363.803, 701.295 360.024 C 697.558 358.212, 693.150 355.729, 691.500 354.506 C 689.850 353.284, 686.138 351.087, 683.250 349.625 C 680.362 348.163, 678 346.524, 678 345.983 C 678 344.395, 672.286 344.857, 670.558 346.585" stroke="#f2823b" fill="#f2823b" fill-opacity="0.2" fill-rule="evenodd"/><path class="svg-region-PF" d="M 574 305 C 572.625 305.440, 569.925 305.854, 568 305.919 C 565.921 305.989, 562.713 307.247, 560.100 309.018 C 557.679 310.658, 555.366 312, 554.960 312 C 554.553 312, 553.268 314.025, 552.105 316.500 C 550.942 318.975, 549.623 321, 549.175 321 C 548.727 321, 546.495 322.596, 544.217 324.547 C 541.459 326.907, 539.863 329.213, 539.445 331.441 C 538.468 336.649, 540.110 338.616, 546.020 339.316 C 551.854 340.007, 558.486 344.317, 564.381 351.249 C 566.369 353.587, 568.672 356.288, 569.498 357.250 C 572.024 360.193, 572.711 359.273, 573.233 352.250 C 573.542 348.109, 574.627 343.685, 576.041 340.804 C 578.188 336.431, 578.258 335.742, 577.062 330.758 C 575.768 325.363, 576.026 310.720, 577.494 306.250 C 578.280 303.859, 577.942 303.738, 574 305 M 572.298 370.669 C 569.603 375.050, 569.268 376.572, 568.699 387 C 567.891 401.827, 569.283 406.405, 575.135 408.159 C 578.706 409.228, 579.586 409.042, 586.749 405.704 C 595.913 401.434, 598.382 400.430, 607 397.468 C 612.098 395.716, 613.069 395.082, 611.500 394.532 C 604.239 391.985, 601.288 389.996, 596.245 384.252 C 593.169 380.748, 589.073 377.222, 587.144 376.416 C 585.214 375.609, 581.754 372.900, 579.453 370.394 L 575.271 365.839 572.298 370.669" stroke="#faaaaa" fill="#faaaaa" fill-opacity="0.2" fill-rule="evenodd"/><path class="svg-region-AAB" d="M 651.500 396 C 651.160 396.550, 649.722 397, 648.303 397 C 645.761 397, 645.734 397.079, 646.381 402.586 C 647.137 409.019, 649.159 413.479, 652.010 415.006 C 653.105 415.591, 654 416.896, 654 417.905 C 654 418.914, 654.901 422.559, 656.002 426.006 C 657.631 431.104, 657.810 432.991, 656.966 436.126 C 656.395 438.245, 656.231 442.258, 656.600 445.043 C 657.195 449.526, 656.991 450.416, 654.829 452.803 C 651.707 456.250, 644.259 466.087, 640.909 471.189 C 638.066 475.517, 631.747 479.920, 628.307 479.969 C 627.100 479.986, 625.448 479.050, 624.635 477.889 C 623.279 475.953, 622.976 475.903, 621.002 477.286 C 613.702 482.399, 579.374 516.291, 580.960 516.820 C 581.504 517.001, 584.972 515.662, 588.665 513.844 C 595.164 510.645, 595.906 510.516, 611.688 509.847 C 620.658 509.467, 629.460 508.699, 631.248 508.139 C 633.037 507.580, 638.100 506.583, 642.500 505.924 C 648.117 505.083, 653.220 503.426, 659.630 500.363 C 664.652 497.963, 669.152 495.994, 669.630 495.987 C 670.109 495.980, 675.873 493.055, 682.440 489.487 C 689.008 485.919, 694.858 483, 695.440 483 C 697.194 483, 702.154 476.084, 704.320 470.622 C 705.771 466.960, 706.372 463.053, 706.425 456.914 C 706.493 449.110, 706.204 447.754, 703.250 442.024 C 699.345 434.448, 699.214 431.485, 702.500 425 C 703.875 422.287, 705 419.623, 705 419.080 C 705 418.538, 703.538 417.390, 701.750 416.530 C 699.962 415.669, 694.899 412.386, 690.497 409.233 C 682.028 403.166, 675.764 400.221, 664.448 396.985 C 656.806 394.800, 652.447 394.468, 651.500 396" stroke="#7f3c1a" fill="#7f3c1a" fill-opacity="0.2" fill-rule="evenodd"/><path class="svg-region-APB" d="M 634.584 391.173 C 631.738 392.825, 626.405 394.030, 618 394.920 C 607.137 396.071, 589.809 403.059, 584.476 408.440 C 582.262 410.673, 577.890 414.816, 574.759 417.646 C 568.729 423.097, 567.131 425.865, 564.449 435.500 C 561.271 446.917, 560.811 448.079, 557.582 452.879 C 551.647 461.697, 551.096 464.213, 550.384 485.722 C 550.023 496.600, 549.400 505.950, 548.999 506.500 C 548.598 507.050, 548.032 509.374, 547.742 511.665 C 547.287 515.249, 547.582 516.171, 549.857 518.275 C 551.310 519.620, 554.851 521.974, 557.724 523.505 L 562.947 526.289 571.474 522.395 C 576.163 520.253, 580.222 517.817, 580.494 516.981 C 581.204 514.798, 599.742 496.124, 612.243 485 C 622.060 476.264, 622.922 475.207, 622.959 471.864 C 622.982 469.865, 622.328 466.940, 621.506 465.364 C 620.685 463.789, 619.995 461.825, 619.974 461 C 619.953 460.175, 619.276 458.626, 618.468 457.559 C 617.661 456.491, 617.014 453.791, 617.032 451.559 C 617.057 448.271, 617.730 446.836, 620.574 444.005 C 622.505 442.083, 625.343 439.833, 626.881 439.005 C 638.183 432.921, 643.702 427.437, 647.013 419 C 647.768 417.075, 648.821 415.204, 649.351 414.843 C 649.941 414.442, 649.697 412.882, 648.724 410.831 C 647.848 408.986, 646.825 405.165, 646.451 402.340 C 645.841 397.746, 645.476 397.145, 642.989 396.648 C 641.138 396.278, 639.757 395.073, 638.860 393.046 C 637.356 389.648, 637.274 389.612, 634.584 391.173" stroke="#ac7444" fill="#ac7444" fill-opacity="0.2" fill-rule="evenodd"/><path class="svg-region-PC" d="M 559.500 397.902 C 555.176 398.333, 552.010 399.419, 548.168 401.791 C 545.235 403.602, 541.429 405.364, 539.711 405.708 C 535.238 406.602, 532.700 408.100, 527.439 412.950 L 522.796 417.229 528.031 421.809 L 533.266 426.388 532.669 434.142 C 532.017 442.594, 530.326 447.674, 527.088 450.912 C 524.435 453.565, 520.396 453.607, 518.768 451 C 518.081 449.900, 517.199 449, 516.807 449 C 515.613 449, 508.930 461.090, 508.297 464.396 C 507.971 466.103, 506.826 468.756, 505.754 470.291 L 503.805 473.082 507.083 480.541 C 508.886 484.643, 510.673 488, 511.055 488 C 511.436 488, 514.167 491.693, 517.124 496.206 C 523.446 505.856, 533.898 517.006, 536.601 516.985 C 537.645 516.976, 540.525 516.367, 543 515.631 C 547.070 514.420, 547.531 513.967, 547.821 510.896 C 547.998 509.028, 548.561 507.072, 549.071 506.550 C 549.582 506.027, 550.020 500.627, 550.044 494.550 C 550.068 488.472, 550.467 478.921, 550.931 473.325 C 551.736 463.614, 552.004 462.746, 556.806 454.325 C 560.122 448.510, 562.768 442.089, 564.563 435.500 L 567.288 425.500 576.208 416.647 C 581.114 411.778, 584.932 407.599, 584.693 407.360 C 584.454 407.121, 583.151 407.430, 581.797 408.046 C 579.993 408.869, 578.245 408.874, 575.242 408.065 C 571.523 407.064, 570.997 406.507, 569.494 401.981 C 568.584 399.242, 567.313 397.069, 566.670 397.152 C 566.026 397.236, 562.800 397.574, 559.500 397.902" stroke="#cda789" fill="#cda789" fill-opacity="0.2" fill-rule="evenodd"/><path class="svg-region-DB" d="M 413.949 417.562 C 410.007 422.311, 403.900 425.126, 394.237 426.647 C 388.881 427.491, 384.190 428.477, 383.811 428.840 C 383.431 429.203, 383.656 432.200, 384.311 435.500 C 385.378 440.887, 385.858 441.674, 389 443.205 C 393.833 445.559, 401.864 448.419, 412.500 451.574 C 428.053 456.187, 430.098 456.971, 434.534 460.023 C 436.913 461.661, 439.285 463, 439.803 463 C 440.876 463, 448.898 466.275, 453.750 468.695 C 455.538 469.586, 457 470.814, 457 471.423 C 457 473.534, 479.539 486.857, 489.279 490.504 C 494.003 492.273, 494.084 492.269, 496.344 490.147 C 497.600 488.966, 499.162 488, 499.814 488 C 500.467 488, 501 487.550, 501 487 C 501 486.450, 502.800 486, 505 486 C 507.200 486, 509 485.544, 509 484.987 C 509 484.430, 506.952 479.818, 504.450 474.737 C 501.947 469.657, 499.464 463.254, 498.930 460.510 C 497.770 454.536, 493.933 449.470, 487.897 445.940 C 484.704 444.072, 483.101 442.284, 482.005 439.364 C 481.177 437.158, 478.497 433.510, 476.050 431.258 C 472.043 427.571, 470.928 427.095, 464.868 426.487 C 461.167 426.115, 456.869 426.089, 455.319 426.428 C 450.972 427.381, 442.222 425.353, 434.500 421.604 C 430.650 419.734, 425.475 417.901, 423 417.529 C 420.525 417.158, 417.776 416.652, 416.891 416.404 C 416.006 416.157, 414.682 416.678, 413.949 417.562" stroke="#e8b1e4" fill="#e8b1e4" fill-opacity="0.2" fill-rule="evenodd"/><path class="svg-region-MB" d="M 388.386 447.314 C 389.549 449.687, 391.135 453.141, 391.912 454.990 C 392.688 456.840, 394.782 459.966, 396.563 461.938 C 399.256 464.919, 400.082 467.042, 401.456 474.512 C 403.864 487.599, 404.929 491.148, 407.459 494.500 C 411.786 500.235, 420.944 508.887, 427.203 513.155 C 437.740 520.338, 462.926 531.977, 468 532.008 C 469.375 532.017, 472.975 532.720, 476 533.572 C 483.037 535.553, 523.251 536.686, 533.718 535.199 C 542.667 533.927, 549 531.278, 549 528.808 C 549 527.813, 548.429 527, 547.732 527 C 547.035 527, 544.843 525.898, 542.861 524.551 C 539.933 522.562, 539.349 521.625, 539.745 519.551 C 540.510 515.554, 538.634 516.542, 535.097 522 C 532.161 526.531, 531.512 526.996, 528.179 526.956 C 526.155 526.932, 522.700 526.225, 520.500 525.385 C 518.300 524.544, 512 523.608, 506.500 523.304 C 493.003 522.557, 492.298 521.858, 494.064 510.985 C 495.087 504.685, 495.092 502.816, 494.091 501.609 C 493.400 500.778, 492.974 498.246, 493.139 495.963 C 493.437 491.829, 493.432 491.823, 488.469 490.054 C 479.107 486.719, 458.467 474.381, 457.341 471.447 C 456.776 469.973, 446.066 464.557, 441.404 463.387 C 439.888 463.006, 436.781 461.435, 434.500 459.895 C 430.263 457.036, 429.238 456.648, 411 451.005 C 405.225 449.218, 397.723 446.686, 394.329 445.378 C 390.936 444.070, 387.734 443, 387.215 443 C 386.697 443, 387.223 444.941, 388.386 447.314" stroke="#f9c6c6" fill="#f9c6c6" fill-opacity="0.2" fill-rule="evenodd"/><path class="svg-region-AP" d="M 555.638 606.456 L 552.776 609.112 553.267 626.306 C 553.705 641.652, 554.037 644.252, 556.358 650.500 C 557.788 654.350, 558.967 659.161, 558.979 661.191 C 558.991 663.221, 559.424 665.144, 559.942 665.464 C 560.460 665.785, 561.180 668.174, 561.542 670.773 C 561.903 673.373, 562.799 677.750, 563.532 680.500 C 564.265 683.250, 565.359 692.700, 565.963 701.500 C 567.388 722.265, 567.817 726.068, 568.889 727.399 C 569.955 728.724, 570.793 734.496, 571.625 746.250 C 571.966 751.063, 572.640 755, 573.122 755 C 573.605 755, 574 755.609, 574 756.354 C 574 757.098, 576.545 759.911, 579.655 762.604 C 583.894 766.273, 586.838 767.899, 591.405 769.094 C 624.609 777.778, 629.635 778.450, 655.584 777.669 C 675.943 777.057, 677.597 776.863, 682.574 774.508 C 685.490 773.129, 689.048 772, 690.481 772 C 691.913 772, 700.497 769.058, 709.555 765.463 C 725.897 758.977, 726.082 758.869, 733.374 751.529 C 738.304 746.568, 740.933 743.085, 741.360 740.950 C 741.710 739.200, 743.375 736.198, 745.060 734.278 L 748.124 730.789 747.702 720.644 C 747.223 709.124, 744.245 699.328, 737.750 687.904 C 735.688 684.276, 734 680.648, 734 679.841 C 734 679.034, 731.016 672.552, 727.368 665.437 C 723.720 658.322, 719.854 650.749, 718.776 648.609 C 717.698 646.468, 716.287 642.118, 715.639 638.942 C 714.991 635.765, 713.611 632.228, 712.574 631.081 C 710.559 628.855, 695.331 617, 694.486 617 C 694.209 617, 692.119 615.650, 689.841 614 C 687.564 612.350, 684.507 611, 683.050 611 C 681.592 611, 679.885 610.485, 679.257 609.857 C 678.399 608.999, 673.025 609.037, 657.735 610.009 C 636.476 611.361, 617.725 610.994, 614.294 609.157 C 613.191 608.567, 604.948 607.801, 595.978 607.455 C 587.007 607.110, 577.380 606.394, 574.584 605.865 C 571.788 605.335, 567.025 604.654, 564 604.351 C 559.038 603.854, 558.220 604.059, 555.638 606.456" stroke="#fc7143" fill="#fc7143" fill-opacity="0.2" fill-rule="evenodd"/><path class="svg-region-PP" d="M 538.884 607.449 C 538.637 607.696, 533.950 608.929, 528.468 610.189 C 519.428 612.267, 516.592 612.446, 498 612.112 C 447.335 611.201, 442.423 611.550, 427 617.145 C 414.102 621.825, 409.080 625.030, 404.427 631.550 C 399.561 638.369, 399.169 640.948, 401.085 653.500 C 401.588 656.800, 402.428 663.550, 402.951 668.500 C 403.951 677.961, 406.661 686.052, 411.662 694.500 C 413.290 697.250, 414.956 700.388, 415.365 701.472 C 415.773 702.557, 417.443 705.257, 419.076 707.472 C 423.195 713.064, 428.003 720.184, 433.610 729 C 439.109 737.645, 446.064 745.618, 450.619 748.500 C 452.358 749.600, 456.416 752.636, 459.637 755.246 C 466.417 760.740, 486.990 771.496, 493.824 773.119 C 500.911 774.803, 506.112 776.601, 521.308 782.622 C 528.951 785.650, 535.438 787.895, 535.723 787.610 C 536.008 787.326, 531.844 782.234, 526.470 776.296 C 515.938 764.659, 514.444 762.112, 513.548 754.277 C 512.696 746.826, 515.340 740.630, 520.495 738.003 C 525.454 735.474, 532.269 735.473, 537.500 738 C 539.700 739.063, 541.850 739.947, 542.278 739.966 C 543.788 740.032, 558.504 747.304, 558.833 748.146 C 559.017 748.616, 559.695 749, 560.341 749 C 560.987 749, 563.629 750.125, 566.212 751.500 C 568.795 752.875, 571.210 754, 571.580 754 C 572.871 754, 570.425 729.309, 568.952 727.475 C 567.949 726.226, 567.371 721.128, 565.949 701 C 565.347 692.475, 564.257 683.250, 563.527 680.500 C 562.796 677.750, 561.903 673.373, 561.542 670.773 C 561.180 668.174, 560.460 665.785, 559.942 665.464 C 559.424 665.144, 558.991 663.221, 558.979 661.191 C 558.967 659.161, 557.789 654.350, 556.361 650.500 C 554.050 644.271, 553.710 641.627, 553.274 626.500 C 553.005 617.150, 552.328 608.938, 551.770 608.250 C 550.822 607.082, 539.928 606.405, 538.884 607.449" stroke="#c4743d" fill="#c4743d" fill-opacity="0.2" fill-rule="evenodd"/><path class="svg-region-VMr" d="M 521.559 737.532 C 520.491 738.339, 518.916 739, 518.059 739 C 517.034 739, 515.848 741.039, 514.600 744.944 C 512.952 750.104, 512.854 751.648, 513.860 756.659 C 515.218 763.417, 517.533 767.142, 525.878 775.993 C 529.245 779.565, 532 782.772, 532 783.122 C 532 784.359, 542.553 791.618, 546.071 792.800 C 550.880 794.416, 565.782 794.381, 567.326 792.750 C 575.073 784.564, 580 776.433, 580 771.833 C 580 770.260, 580.563 768.052, 581.250 766.927 C 582.370 765.093, 582.056 764.497, 578.235 761.190 C 575.889 759.161, 573.972 757.050, 573.976 756.500 C 573.984 755.385, 562.211 748.927, 560.250 748.972 C 559.563 748.987, 559 748.602, 559 748.117 C 559 747.631, 558.212 746.969, 557.250 746.646 C 556.288 746.322, 554.825 745.618, 554 745.079 C 553.175 744.541, 549.575 742.908, 546 741.451 C 542.425 739.993, 538.306 738.171, 536.846 737.400 C 533.361 735.562, 524.058 735.642, 521.559 737.532" stroke="#e59376" fill="#e59376" fill-opacity="0.2" fill-rule="evenodd"/><path class="svg-region-PMr" d="M 261.813 716.750 C 259.880 718.813, 256.206 721.720, 253.649 723.212 C 249.539 725.608, 249 726.323, 249 729.373 C 249 731.997, 249.736 733.442, 252.077 735.411 C 255.564 738.345, 258.304 738.621, 263.730 736.585 C 265.803 735.807, 268.725 734.902, 270.222 734.573 C 271.720 734.245, 273.900 732.969, 275.068 731.738 C 276.904 729.804, 277.126 728.645, 276.707 723.202 C 276.115 715.500, 274.228 713, 269.009 713 C 266.047 713, 264.642 713.732, 261.813 716.750" stroke="#90cf92" fill="#90cf92" fill-opacity="0.2" fill-rule="evenodd"/><path class="svg-region-PV" d="M 256.490 591.016 C 256.144 591.575, 255.458 591.783, 254.965 591.478 C 253.116 590.335, 246.233 594.891, 245.160 597.969 C 244.577 599.642, 241.115 603.996, 237.466 607.645 C 232.531 612.580, 231.174 614.495, 232.166 615.124 C 232.900 615.589, 234.108 615.976, 234.850 615.985 C 237.723 616.017, 244.954 624.768, 249.409 633.605 C 251.934 638.612, 254 643.380, 254 644.200 C 254 645.019, 254.873 646.480, 255.940 647.446 C 258.735 649.976, 260.774 656.762, 262.644 669.765 C 264.189 680.508, 264.179 681.880, 262.472 693.829 C 260.246 709.410, 259.600 717, 260.500 717 C 260.876 717, 262.329 716.100, 263.727 715 C 266.981 712.440, 272.151 712.405, 274.433 714.926 C 275.503 716.108, 276.390 719.205, 276.728 722.942 C 277.178 727.900, 276.950 729.398, 275.502 730.997 C 272.653 734.146, 274.947 735.706, 283.283 736.290 C 300.776 737.513, 306.332 739.332, 313.025 746.025 C 313.903 746.903, 315.516 748.269, 316.609 749.061 C 321.739 752.775, 325.847 760.186, 330.022 773.258 C 332.349 780.541, 334.703 787.478, 335.254 788.673 C 335.805 789.868, 335.981 791.893, 335.645 793.173 C 334.799 796.395, 327.398 803.862, 324.274 804.646 L 321.698 805.293 325.099 807.104 C 329.513 809.456, 335.944 809.470, 341.815 807.141 C 348.594 804.452, 353.381 803, 355.466 803 C 360.693 803, 385.550 787.489, 391.137 780.740 C 392.157 779.508, 394.494 776.925, 396.331 775 C 400.253 770.888, 405 761.841, 405 758.477 C 405 757.180, 405.415 755.861, 405.923 755.548 C 406.431 755.234, 407.163 753.534, 407.550 751.771 C 407.937 750.008, 408.594 747.876, 409.010 747.033 C 411.350 742.285, 414.208 729.794, 414.704 722.145 C 415.177 714.839, 414.981 712.900, 413.547 710.713 C 412.116 708.527, 411.990 707.290, 412.808 703.451 C 413.757 699.002, 413.628 698.547, 409.460 691.662 C 405.769 685.565, 402.349 678.988, 394.382 662.669 C 393.594 661.054, 393 656.726, 393 652.594 C 393 644.470, 395.470 636.026, 401.219 624.500 C 406.524 613.862, 407.470 611.070, 406.199 609.799 C 404.402 608.002, 394.838 605, 390.911 605 C 388.894 605, 385.508 604.274, 383.385 603.387 C 380.709 602.269, 376.707 601.803, 370.332 601.868 C 364.663 601.925, 359.577 601.409, 357.064 600.523 C 354.264 599.535, 342.438 598.595, 319.245 597.518 C 285.354 595.944, 273.437 594.436, 270.919 591.402 C 269.544 589.746, 257.475 589.423, 256.490 591.016" stroke="#b09658" fill="#b09658" fill-opacity="0.2" fill-rule="evenodd"/><path class="svg-region-DV" d="M 225.385 616.158 C 222.606 618.236, 219.877 620.680, 214.395 626 C 212.978 627.375, 210.931 630.525, 209.846 633 C 208.761 635.475, 207.051 639.300, 206.046 641.500 C 205.042 643.700, 203.203 649.916, 201.960 655.314 C 199.892 664.295, 199.748 666.756, 200.268 684.314 C 200.853 704.093, 203.622 722.760, 206.451 725.998 C 207.173 726.824, 208.071 728.510, 208.447 729.744 C 208.823 730.978, 209.664 732.556, 210.316 733.251 C 210.967 733.945, 213.231 737.081, 215.346 740.220 C 217.462 743.359, 220.004 746.184, 220.994 746.498 C 222.088 746.845, 224.568 745.874, 227.306 744.026 C 231.110 741.459, 237.861 739.138, 249.792 736.297 C 251.923 735.789, 251.971 735.625, 250.472 733.969 C 249.479 732.872, 248.982 730.903, 249.180 728.847 C 249.453 725.994, 250.304 725.025, 255 722.212 C 259.946 719.249, 260.468 718.614, 260.178 715.902 C 260.001 714.243, 260.841 706.049, 262.044 697.693 C 264.029 683.907, 264.118 681.528, 262.998 672 C 261.578 659.911, 259.171 651.304, 256.126 647.433 C 254.957 645.947, 254 644.325, 254 643.830 C 254 643.334, 251.996 638.783, 249.547 633.715 C 244.705 623.695, 239.059 617.397, 233.006 615.265 C 228.485 613.672, 228.749 613.641, 225.385 616.158" stroke="#45567a" fill="#45567a" fill-opacity="0.2" fill-rule="evenodd"/><path class="svg-region-VV" d="M 271.500 733.991 C 261.862 737.587, 257.932 738.298, 254.254 737.111 C 251.058 736.080, 249.317 736.207, 242.538 737.963 C 234.010 740.173, 227.938 742.832, 224.134 746.023 L 221.769 748.008 224.324 751.358 C 225.730 753.201, 229.269 755.917, 232.190 757.393 C 240.958 761.825, 249.546 768.200, 258.770 777.123 C 276.828 794.592, 288.285 802.944, 294.310 803.032 C 295.514 803.049, 297.374 803.724, 298.441 804.532 C 301.067 806.518, 319.693 806.573, 324.395 804.608 C 328.477 802.903, 335.941 795.185, 335.975 792.634 C 336 790.735, 335.126 787.717, 330.430 773.500 C 326.316 761.042, 323.314 755.490, 317.694 749.941 C 307.095 739.478, 303.185 737.904, 283.402 736.135 C 279.498 735.786, 275.673 734.993, 274.902 734.372 C 274.104 733.730, 272.639 733.566, 271.500 733.991" stroke="#7699d1" fill="#7699d1" fill-opacity="0.2" fill-rule="evenodd"/><path class="svg-region-B" d="M 834.530 466.574 C 832.346 467.384, 829.421 469.099, 828.030 470.384 C 826.638 471.669, 823.120 473.990, 820.212 475.540 C 815.441 478.084, 812.253 481.053, 805.194 489.528 C 802.023 493.334, 795 505.099, 795 506.604 C 795 507.280, 794.466 508.011, 793.813 508.229 C 793.129 508.457, 792.577 510.746, 792.512 513.624 C 792.443 516.635, 791.524 520.301, 790.199 522.842 C 788.990 525.163, 788 527.734, 788 528.556 C 788 530.253, 782.774 540.903, 776.496 552 C 774.162 556.125, 771.408 561.908, 770.376 564.852 C 768.892 569.086, 766.924 571.697, 760.959 577.352 C 756.812 581.283, 750.962 587.636, 747.959 591.469 C 741.771 599.370, 729.805 611.633, 722.720 617.335 C 716.387 622.433, 714.695 626.571, 715.297 635.495 C 715.734 641.979, 716.497 643.916, 725.748 661.995 C 731.236 672.723, 736.307 683.289, 737.016 685.476 C 737.724 687.663, 739.142 690.813, 740.166 692.476 C 741.190 694.139, 742.929 698.498, 744.030 702.162 C 746.046 708.870, 752.506 718.895, 757.841 723.595 C 761.412 726.741, 767.518 729.575, 778.358 733.117 C 787.223 736.014, 787.631 736.053, 802.438 735.418 C 813.072 734.963, 819.705 735.160, 825 736.091 C 836.947 738.190, 847.456 737.646, 854 734.589 C 857.025 733.176, 860.470 732.015, 861.655 732.010 C 862.841 732.004, 865.696 730.425, 868 728.500 C 870.304 726.575, 873.204 725, 874.445 725 C 875.685 725, 878.542 723.665, 880.794 722.034 C 887.154 717.427, 903.819 709, 906.570 709 C 908.138 709, 910.833 707.206, 917.172 701.943 C 920.216 699.415, 920.233 699.351, 918.626 696.243 C 917.603 694.265, 916.991 690.578, 916.975 686.300 C 916.952 679.918, 915.470 673.915, 911.715 665 C 910.905 663.075, 909.947 658.800, 909.587 655.500 C 908.386 644.497, 905.852 628.569, 904.338 622.500 C 902.838 616.488, 902.483 615.219, 899.449 605 C 898.550 601.975, 897.389 597.475, 896.867 595 C 896.346 592.525, 895.487 589.719, 894.960 588.764 C 894.432 587.809, 894 586.148, 894 585.073 C 894 583.998, 893.613 582.879, 893.140 582.586 C 892.667 582.294, 891.965 578.105, 891.581 573.277 C 890.792 563.371, 888.436 551.832, 886.378 547.800 C 885.620 546.314, 885 543.979, 885 542.609 C 885 541.239, 884.541 539.835, 883.981 539.488 C 882.650 538.666, 878.386 530.218, 876.557 524.780 C 875.765 522.426, 874.612 516.450, 873.995 511.500 C 872.541 499.834, 869.204 485.491, 866.848 480.778 C 863.910 474.899, 859.411 470.420, 854.257 468.242 C 847.614 465.434, 839.456 464.744, 834.530 466.574" stroke="#e23b33" fill="#e23b33" fill-opacity="0.2" fill-rule="evenodd"/><path class="svg-region-VOC" d="M 501 487 C 501 487.550, 500.409 488, 499.687 488 C 498.965 488, 497.165 489.262, 495.687 490.805 C 492.791 493.828, 491.997 499.597, 494.177 501.777 C 495.079 502.679, 495.063 504.848, 494.110 511.074 C 492.413 522.161, 492.816 522.565, 506.288 523.293 C 511.905 523.597, 518.300 524.535, 520.500 525.379 C 522.700 526.222, 526.171 526.932, 528.214 526.956 C 531.405 526.994, 532.285 526.474, 534.464 523.268 C 537.176 519.277, 537.691 517, 535.883 517 C 533.785 517, 523.351 505.445, 517.234 496.347 C 513.874 491.350, 510.385 486.978, 509.480 486.631 C 506.893 485.638, 501 485.895, 501 487" stroke="#ff8f93" fill="#ff8f93" fill-opacity="0.2" fill-rule="evenodd"/><path class="svg-region-OABr" d="M 646.952 418.693 C 644.795 425.308, 640.532 430.288, 632.992 435 C 629.031 437.475, 623.813 441.245, 621.395 443.377 C 617.520 446.796, 617 447.750, 617 451.436 C 617 453.736, 617.661 456.491, 618.468 457.559 C 619.276 458.626, 619.951 460.426, 619.968 461.559 C 619.986 462.691, 620.661 464.491, 621.468 465.559 C 622.276 466.626, 622.951 469.312, 622.968 471.527 C 623.006 476.376, 625.312 480.016, 628.307 479.957 C 632.028 479.883, 638.334 475.547, 640.980 471.244 C 642.366 468.990, 646.591 463.251, 650.368 458.491 C 657.231 449.843, 657.236 449.833, 656.582 444.908 C 656.223 442.197, 656.381 438.297, 656.934 436.240 C 657.746 433.217, 657.495 430.870, 655.624 424 C 653.541 416.353, 653.052 415.469, 650.751 415.193 C 648.570 414.931, 648.010 415.447, 646.952 418.693" stroke="#81244d" fill="#81244d" fill-opacity="0.2" fill-rule="evenodd"/><path class="svg-region-SOTr" d="M 517.500 419.719 C 514.701 420.401, 512.389 422.646, 510.978 426.053 C 509.585 429.415, 510.408 434, 512.404 434 C 513.302 434, 513.995 435.801, 514.426 439.256 C 515.245 445.810, 518.787 452.390, 521.725 452.813 C 527.717 453.676, 531.826 446.842, 532.692 434.576 L 533.277 426.281 529.389 422.668 C 525.540 419.091, 522.834 418.420, 517.500 419.719" stroke="#995b45" fill="#995b45" fill-opacity="0.2" fill-rule="evenodd"/>
    </svg>