<svg xmlns="http://www.w3.org/2000/svg" width="1078" height="1151" viewBox="0 0 1078 1151" version="1.1">
    <path class="svg-region-V" d="M 508.500 161.032 C 503.550 161.442, 497.700 162.237, 495.500 162.798 C 493.300 163.358, 489.250 164.124, 486.500 164.499 C 478.398 165.603, 466.830 170.653, 460 176.068 C 457.525 178.030, 453.700 180.718, 451.500 182.042 C 446.827 184.854, 435.482 195.156, 432.282 199.494 C 429.795 202.865, 422.384 213.924, 417.536 221.500 C 411.497 230.935, 405.856 241.502, 405.256 244.500 C 404.927 246.150, 402.709 250.542, 400.328 254.260 C 397.948 257.978, 396 261.465, 396 262.007 C 396 262.550, 394.484 264.683, 392.632 266.747 C 390.780 268.811, 388.311 272.382, 387.146 274.682 C 385.982 276.982, 384.566 279.150, 384 279.500 C 383.434 279.850, 382.065 281.793, 380.958 283.818 C 379.850 285.843, 378.169 288.689, 377.222 290.142 C 365.973 307.404, 361.907 322.824, 365.376 335.062 C 366.224 338.053, 367.223 343.425, 367.597 347 C 368.064 351.469, 369.678 356.625, 372.762 363.500 C 375.229 369, 378.518 377.289, 380.072 381.920 C 381.625 386.551, 383.707 391.092, 384.698 392.010 C 387.315 394.436, 396.428 397.002, 402.365 396.986 C 409.386 396.966, 423.323 392.172, 428.158 388.113 C 434.689 382.630, 436.256 378.335, 437.138 363.500 C 438.393 342.392, 442.747 330.210, 450.434 326.302 C 455.471 323.741, 463.671 316.503, 479.003 301.085 C 501.766 278.194, 505.029 276.235, 520.645 276.080 C 532.397 275.964, 544.615 280.048, 554.128 287.273 C 560.093 291.803, 567.613 294.038, 579 294.665 C 592.857 295.428, 596.847 294.340, 600.515 288.798 C 602.042 286.491, 605.285 282.471, 607.723 279.865 C 610.161 277.259, 614.547 270.514, 617.470 264.875 C 620.393 259.237, 623.620 254.308, 624.642 253.921 C 625.664 253.535, 627.613 252.021, 628.973 250.557 C 630.333 249.094, 633.418 247.024, 635.828 245.958 L 640.209 244.020 638.038 240.760 C 636.845 238.967, 635.207 235.925, 634.399 234 C 627.470 217.495, 620.064 209.413, 592 187.730 C 586.775 183.693, 580.518 179.515, 578.096 178.445 C 575.673 177.375, 570.296 174.777, 566.147 172.670 C 561.453 170.287, 556.883 168.729, 554.051 168.546 C 549.421 168.246, 536.632 165.301, 525.145 161.888 C 521.649 160.850, 518.499 160.064, 518.145 160.143 C 517.790 160.221, 513.450 160.621, 508.500 161.032" stroke="#dd8a8a" fill="#dd8a8a" fill-opacity="0.2" fill-rule="evenodd"/><path class="svg-region-SV" d="M 508.216 277.330 C 502.137 278.990, 496.580 283.476, 480.032 300.083 C 465.302 314.864, 455.097 323.864, 450.185 326.404 C 447.152 327.973, 441 335.993, 441 338.379 C 441 339.232, 440.315 341.946, 439.479 344.411 C 438.642 346.875, 437.545 355.104, 437.040 362.696 C 436.535 370.288, 435.813 377.760, 435.435 379.300 C 434.837 381.739, 435.365 382.692, 439.518 386.672 C 444.652 391.591, 452.627 395.757, 458.715 396.701 C 460.797 397.023, 464.666 398.460, 467.312 399.894 C 469.959 401.327, 474.009 403.495, 476.312 404.711 C 489.300 411.569, 494 415.957, 494 421.224 C 494 422.552, 495.012 424.525, 496.250 425.607 C 497.488 426.689, 499.238 428.682, 500.141 430.037 L 501.782 432.500 504.391 430.076 C 505.826 428.742, 507 426.677, 507 425.487 C 507 422.978, 511.745 416.321, 514.114 415.506 C 515.001 415.201, 517.616 412.713, 519.923 409.976 C 523.647 405.560, 524.562 405, 528.060 405 C 531.866 405, 532 404.885, 532 401.636 L 532 398.273 541.715 397.764 C 550.247 397.318, 551.921 397.512, 555.464 399.359 C 560.095 401.773, 564.257 401.887, 575.222 399.899 C 580.296 398.980, 583.653 397.791, 585.011 396.434 C 587.072 394.372, 587.073 394.362, 585.100 391.855 C 584.013 390.473, 582.839 388.208, 582.491 386.822 C 581.571 383.155, 584.332 373.724, 587.905 368.330 C 591.819 362.420, 591.804 359.199, 587.836 353.569 C 585.442 350.173, 584.555 347.682, 584.195 343.337 C 583.844 339.110, 582.964 336.553, 580.859 333.647 C 579.287 331.476, 578 329.148, 578 328.472 C 578 327.797, 577.354 326.709, 576.564 326.053 C 575.775 325.398, 574.838 323.539, 574.483 321.923 C 574.128 320.306, 573.036 318.554, 572.056 318.030 C 569.810 316.828, 567.733 311.920, 568.168 308.845 C 568.398 307.222, 570.016 305.683, 573.425 303.844 C 577.785 301.493, 581.914 297.647, 581.978 295.879 C 581.990 295.538, 578.907 294.954, 575.126 294.581 C 566.850 293.766, 558.933 290.907, 553.892 286.914 C 549.416 283.369, 540.713 279.276, 533.661 277.398 C 527.462 275.747, 514.144 275.712, 508.216 277.330" stroke="#c666b5" fill="#c666b5" fill-opacity="0.2" fill-rule="evenodd"/><path class="svg-region-SF" d="M 635.167 245.956 C 627.335 249.609, 621.956 255.343, 617.004 265.319 C 614.497 270.369, 610.813 276.205, 608.817 278.290 C 606.822 280.374, 603.496 284.537, 601.428 287.540 C 599.360 290.543, 597.336 293, 596.932 293 C 595.299 293, 593.999 299.801, 593.990 308.399 C 593.980 317.975, 593.866 318.331, 586.433 331.962 C 580.348 343.121, 586.768 358.542, 599.829 364.141 C 602.329 365.213, 604.991 366.970, 605.746 368.047 C 607.962 371.211, 618.644 377.985, 624.706 380.071 C 627.790 381.132, 632.636 382, 635.475 382 C 642.191 382, 650.952 379.393, 651.620 377.196 C 652.921 372.916, 656.078 367, 657.061 367 C 659.549 367, 670.363 355.327, 672.677 350.145 C 675.721 343.327, 676.899 342.200, 681.800 341.416 C 685.671 340.797, 685.851 340.593, 687.400 335.073 C 689.890 326.198, 689.670 323.078, 685.320 305.500 C 683.667 298.819, 680.716 290.313, 678.209 285 C 677.301 283.075, 676.320 280.825, 676.029 280 C 675.738 279.175, 672.837 273.838, 669.582 268.140 C 663.717 257.872, 656.225 249.202, 650.786 246.389 C 645.950 243.888, 639.956 243.722, 635.167 245.956" stroke="#8c6b55" fill="#8c6b55" fill-opacity="0.2" fill-rule="evenodd"/><path class="svg-region-IF" d="M 675.792 343.750 C 674.957 344.712, 673.499 347.578, 672.551 350.119 C 670.809 354.790, 662.438 364.092, 657.946 366.349 C 653.294 368.685, 650.644 376.597, 653.023 381.043 C 654.771 384.309, 657.904 385.210, 670.405 386.040 C 685.190 387.022, 687.979 387.823, 696.472 393.518 C 700.149 395.983, 704.030 398, 705.098 398 C 706.683 398, 715.006 393.575, 714.997 392.737 C 714.996 392.607, 713.226 387.458, 711.063 381.296 C 706.992 369.696, 703.495 364.030, 694.524 354.500 C 691.936 351.750, 688.728 347.813, 687.396 345.750 C 685.291 342.490, 684.474 342, 681.142 342 C 678.737 342, 676.745 342.652, 675.792 343.750" stroke="#f2823b" fill="#f2823b" fill-opacity="0.2" fill-rule="evenodd"/><path class="svg-region-PF" d="M 587.394 294.732 C 583.146 295.034, 582.060 295.520, 580.932 297.626 C 580.187 299.019, 577.085 301.611, 574.039 303.387 C 569.085 306.275, 568.467 307.005, 568.190 310.294 C 567.952 313.129, 568.447 314.538, 570.349 316.440 C 571.706 317.797, 574.473 322.191, 576.497 326.204 C 578.521 330.217, 580.973 334.323, 581.945 335.329 C 583.650 337.093, 583.784 337.022, 585.710 333.329 C 586.809 331.223, 589.078 327.025, 590.753 324 C 593.586 318.883, 593.827 317.647, 594.204 306.250 C 594.477 298.001, 594.265 294.060, 593.555 294.185 C 592.975 294.287, 590.202 294.533, 587.394 294.732 M 591 361.407 C 591 362.710, 589.496 365.964, 587.657 368.638 C 585.473 371.814, 583.853 375.820, 582.986 380.188 C 581.695 386.689, 581.725 386.976, 584.079 390.431 C 587.140 394.926, 588.894 394.944, 599.327 390.585 C 603.822 388.707, 609.611 386.406, 612.192 385.471 C 615.819 384.158, 617.125 383.081, 617.946 380.724 C 618.531 379.048, 618.894 377.609, 618.755 377.527 C 613.242 374.317, 607.565 370.269, 606.231 368.597 C 605.279 367.404, 601.462 364.765, 597.750 362.733 C 591.023 359.050, 591 359.046, 591 361.407" stroke="#faaaaa" fill="#faaaaa" fill-opacity="0.2" fill-rule="evenodd"/><path class="svg-region-AAB" d="M 663.661 391.440 C 660.959 396.958, 660.903 397.415, 661.533 408.804 C 662.099 419.030, 661.919 421.317, 660.103 427 C 658.961 430.575, 658.020 436.020, 658.013 439.101 C 658.006 442.181, 657.483 446.231, 656.851 448.101 C 655.167 453.080, 645.341 465.798, 640.816 468.857 C 638.664 470.310, 634.319 473.381, 631.159 475.679 C 628 477.977, 624.084 480.180, 622.457 480.573 C 617.840 481.689, 607.712 487.039, 605.500 489.530 C 604.400 490.768, 601.700 492.693, 599.500 493.808 C 597.300 494.922, 594.921 496.792, 594.213 497.963 C 593.505 499.134, 591.962 500.448, 590.784 500.884 C 587.692 502.028, 611.475 503.144, 623.035 502.398 C 628.241 502.061, 635.976 500.928, 640.224 499.878 C 647.851 497.995, 675.470 487.232, 679.568 484.547 C 680.730 483.786, 683.440 482.682, 685.590 482.094 C 693.727 479.868, 695.630 477.847, 701.914 464.755 C 709.434 449.087, 711 442.052, 711 423.940 L 711 409.774 707.250 404.027 C 703.195 397.811, 694.260 390.935, 686.735 388.238 C 684.406 387.403, 678.886 386.507, 674.468 386.246 L 666.436 385.772 663.661 391.440" stroke="#7f3c1a" fill="#7f3c1a" fill-opacity="0.2" fill-rule="evenodd"/><path class="svg-region-APB" d="M 617.513 380.942 C 616.971 383.410, 616.033 384.159, 611.683 385.596 C 608.832 386.538, 602.973 388.814, 598.661 390.654 C 594.350 392.495, 590.028 394, 589.056 394 C 585.288 394, 577.667 404.162, 570.310 419 C 556.484 446.884, 555.839 448.689, 554.821 462.333 C 554.321 469.025, 553.482 476.419, 552.956 478.764 C 552.430 481.110, 552 484.346, 552 485.955 C 552 487.565, 551.514 489.182, 550.921 489.549 C 548.445 491.079, 552.179 505, 555.065 505 C 555.625 505, 557.050 505.900, 558.230 507 C 560.911 509.497, 563.986 509.483, 571 506.943 C 577.378 504.632, 583.802 502.610, 589.574 501.095 C 592.162 500.415, 594.120 499.145, 594.940 497.612 C 595.650 496.285, 597.954 494.422, 600.061 493.473 C 602.167 492.523, 604.901 490.670, 606.136 489.355 C 607.371 488.040, 610.771 485.834, 613.691 484.453 C 619.114 481.888, 619.748 481.148, 618.013 479.413 C 617.363 478.763, 618.056 477.174, 620.041 474.766 C 623.434 470.651, 626 465.124, 626 461.933 C 626 460.761, 626.713 458.159, 627.583 456.151 C 628.454 454.143, 629.804 451.022, 630.583 449.216 C 632.651 444.422, 632.354 442.118, 629.500 440.818 C 626.204 439.316, 626.322 436.714, 629.977 430.342 C 632.175 426.510, 634.329 424.386, 638.357 422.082 C 641.338 420.376, 645.036 417.297, 646.575 415.240 C 650.916 409.437, 654.790 406, 656.991 406 C 658.883 406, 659.006 406.682, 659.099 417.750 L 659.198 429.500 660.669 425 C 661.798 421.549, 661.994 417.765, 661.511 408.764 C 660.909 397.555, 660.995 396.800, 663.416 391.980 L 665.952 386.932 663.411 385.966 C 662.013 385.435, 659.979 385, 658.889 385 C 656.844 385, 652 380.852, 652 379.099 C 652 378.554, 649.455 378.983, 646.343 380.054 C 639.110 382.543, 631.838 382.525, 624.500 380 C 621.303 378.900, 618.568 378, 618.423 378 C 618.278 378, 617.868 379.324, 617.513 380.942" stroke="#ac7444" fill="#ac7444" fill-opacity="0.2" fill-rule="evenodd"/><path class="svg-region-PC" d="M 539.429 397.741 L 531.357 398.075 531.787 401.005 C 532.024 402.617, 532.844 404.455, 533.609 405.090 C 535.200 406.411, 535.461 409.597, 534.050 410.469 C 533.528 410.792, 533.356 413.213, 533.669 415.849 C 534.067 419.214, 533.760 421.563, 532.639 423.731 C 530.576 427.721, 524.634 432.593, 519.385 434.597 C 515.564 436.056, 514.985 436.046, 511.873 434.468 C 510.018 433.528, 507.794 432.142, 506.931 431.388 C 505.654 430.272, 504.865 430.248, 502.689 431.259 C 499.585 432.700, 499.480 433.585, 501.500 441.339 C 502.325 444.506, 503 447.796, 503 448.649 C 503 449.502, 504.219 452.855, 505.708 456.100 C 508.001 461.096, 508.815 462, 511.020 462 C 514.028 462, 517.997 465.289, 518.006 467.789 C 518.010 468.730, 518.718 470.850, 519.580 472.500 C 520.442 474.150, 521.409 477.693, 521.728 480.374 C 522.138 483.822, 523.276 486.456, 525.614 489.374 C 527.433 491.643, 529.896 495.643, 531.089 498.263 C 533.438 503.423, 536.794 505.234, 540.137 503.146 C 541.147 502.516, 543.441 501.993, 545.236 501.985 C 550.118 501.962, 550.994 500.955, 550.930 495.445 C 550.899 492.725, 551.361 488.025, 551.957 485 C 552.554 481.975, 553.475 474.100, 554.005 467.500 C 554.536 460.900, 555.438 453.700, 556.012 451.500 C 557.931 444.136, 570.498 417.194, 577.166 406.148 C 579.275 402.654, 581 399.574, 581 399.304 C 581 398.566, 570.962 400, 567.309 401.259 C 563.871 402.444, 557.058 400.949, 553.921 398.322 C 553.053 397.595, 551.253 397.092, 549.921 397.204 C 548.590 397.315, 543.868 397.557, 539.429 397.741" stroke="#cda789" fill="#cda789" fill-opacity="0.2" fill-rule="evenodd"/><path class="svg-region-DB" d="M 432.571 383.532 C 429.915 387.585, 424.218 391.182, 415.772 394.138 C 406.568 397.360, 398.915 397.827, 393.362 395.507 C 391.396 394.685, 389.385 394.262, 388.894 394.566 C 385.239 396.825, 391.878 419.500, 398.362 426.904 C 404.372 433.766, 405.980 434.311, 411.850 431.480 C 417.848 428.586, 426.416 426.981, 437.222 426.728 C 446.187 426.518, 448.234 427.220, 456.442 433.316 C 458.800 435.067, 461.990 437.400, 463.530 438.500 C 465.070 439.600, 466.899 441.063, 467.594 441.750 C 468.289 442.438, 469.564 443, 470.429 443 C 471.293 443, 472 443.465, 472 444.034 C 472 444.603, 475.449 448.657, 479.663 453.042 C 483.878 457.428, 488.394 462.588, 489.699 464.508 C 491.057 466.507, 492.912 468, 494.036 468 C 495.116 468, 496 468.450, 496 469 C 496 471.224, 500.814 469.930, 502.510 467.250 C 503.467 465.738, 505.168 463.767, 506.289 462.872 L 508.329 461.243 506.330 457.372 C 504.543 453.911, 501.162 440.695, 499.551 430.873 C 499.188 428.665, 497.987 426.519, 496.478 425.386 C 495.067 424.327, 494 422.510, 494 421.167 C 494 415.967, 490.362 412.243, 479.788 406.620 C 476.330 404.781, 471.310 402.021, 468.633 400.487 C 465.956 398.953, 461.795 397.330, 459.386 396.880 C 452.466 395.587, 443.954 391.049, 438.822 385.918 L 434.101 381.197 432.571 383.532" stroke="#e8b1e4" fill="#e8b1e4" fill-opacity="0.2" fill-rule="evenodd"/><path class="svg-region-MB" d="M 430 427.017 C 420.998 427.901, 415.074 429.431, 410.326 432.098 C 407.718 433.562, 406.458 433.795, 405.489 432.991 C 404.768 432.392, 403.986 432.262, 403.752 432.701 C 402.785 434.515, 404.981 455.063, 406.445 457.893 C 407.300 459.547, 408 461.460, 408 462.144 C 408 464.399, 415.005 477.807, 418.787 482.791 C 427.524 494.305, 433.012 497.130, 452 499.886 C 459.975 501.044, 468.525 502.406, 471 502.914 C 473.475 503.421, 478.425 504.390, 482 505.067 C 485.575 505.744, 489.360 506.735, 490.411 507.270 C 493.785 508.987, 505.309 511, 511.765 511 C 518.081 511, 530 508.325, 530 506.907 C 530 505.512, 526.883 503, 525.151 503 C 524.213 503, 522.557 502.393, 521.473 501.652 C 520.388 500.910, 517.925 500.008, 516 499.646 C 511.033 498.713, 502.070 496.081, 498.250 494.434 C 494.361 492.757, 494.033 490.167, 497.154 485.783 C 500.063 481.698, 500.505 469.999, 497.750 470 C 496.788 470, 496 469.550, 496 469 C 496 468.450, 495.116 468, 494.036 468 C 492.924 468, 491.075 466.532, 489.774 464.618 C 488.510 462.757, 483.993 457.556, 479.738 453.058 C 475.482 448.561, 472 444.458, 472 443.941 C 472 443.423, 471.293 443, 470.429 443 C 469.564 443, 468.289 442.438, 467.594 441.750 C 466.899 441.063, 465.243 439.712, 463.915 438.749 C 462.587 437.785, 458.800 435.020, 455.500 432.603 C 449.667 428.331, 443.574 425.872, 439.500 426.145 C 438.400 426.219, 434.125 426.611, 430 427.017" stroke="#f9c6c6" fill="#f9c6c6" fill-opacity="0.2" fill-rule="evenodd"/><path class="svg-region-AP" d="M 624.500 604.017 C 623.400 604.480, 620.369 604.891, 617.764 604.930 C 615.160 604.968, 611.110 605.431, 608.764 605.958 C 601.170 607.664, 589.605 609.196, 585.330 609.062 C 583.037 608.990, 580.873 609.396, 580.521 609.965 C 580.116 610.621, 572.125 611.030, 558.691 611.082 C 539.910 611.154, 537.853 611.318, 540.605 612.525 C 544.904 614.411, 545.130 615.072, 550.025 640 C 552.440 652.302, 553.589 656.774, 554.721 658.278 C 556.126 660.146, 557.896 666.790, 558.910 674 C 559.413 677.575, 560.298 683.425, 560.877 687 C 561.457 690.575, 562.367 696.650, 562.901 700.500 C 567.358 732.649, 574.215 755.201, 583.123 767 C 584.991 769.475, 587.332 772.767, 588.325 774.315 C 589.918 776.798, 590.507 777.038, 593.316 776.348 C 598.205 775.148, 605.782 775.872, 613.500 778.277 C 620.008 780.304, 622.540 780.459, 649.500 780.479 C 673.872 780.497, 679.298 780.235, 683.500 778.842 C 686.250 777.930, 689.864 776.948, 691.532 776.660 C 693.200 776.373, 697.700 774.716, 701.532 772.978 C 714.270 767.204, 727.493 760.746, 728 760.052 C 728.275 759.675, 731.098 757.422, 734.274 755.045 C 739.468 751.157, 747.630 741.878, 750.644 736.433 C 751.715 734.499, 751.424 734.285, 746.143 733.113 C 742.016 732.198, 739.740 732.148, 737.683 732.930 C 733.456 734.538, 732.909 734.351, 727.500 729.462 C 721.286 723.844, 718.888 722.537, 712.200 721.121 C 705.957 719.800, 702.514 718.143, 698.747 714.645 C 697.232 713.240, 694.307 711.785, 692.247 711.413 C 687.472 710.552, 686.970 710.241, 687.621 708.545 C 688.559 706.100, 690.906 705.993, 696.625 708.133 C 702.937 710.494, 710.439 710.314, 719.968 707.573 C 726.667 705.646, 741.138 705.547, 749.833 707.368 C 756.102 708.682, 756.174 708.672, 757.055 706.356 C 758.094 703.624, 757.494 701.628, 754.392 697.495 C 753.151 695.842, 750.825 691.567, 749.222 687.995 C 747.619 684.423, 745.657 680.960, 744.862 680.300 C 743.310 679.012, 739.575 671.205, 735.869 661.500 C 734.609 658.200, 732.376 653.700, 730.906 651.500 C 729.436 649.300, 725.942 642.775, 723.140 637 C 720.339 631.225, 717.473 625.783, 716.773 624.906 C 714.306 621.817, 693.415 610.151, 686.500 608.001 C 682.650 606.804, 675 605.397, 669.500 604.874 C 655.555 603.547, 626.909 603.001, 624.500 604.017" stroke="#fc7143" fill="#fc7143" fill-opacity="0.2" fill-rule="evenodd"/><path class="svg-region-PP" d="M 524.500 612.034 C 521.750 612.409, 499.025 612.781, 474 612.860 C 429.058 613.001, 422.923 613.379, 413.131 616.614 C 406.867 618.683, 404.969 619.789, 400.744 623.827 C 395.201 629.126, 392.913 636.133, 393.091 647.269 C 393.172 652.317, 393.840 657.765, 394.601 659.588 C 395.352 661.385, 396.929 666.376, 398.105 670.678 C 400.590 679.765, 413.721 705.755, 418.559 711.162 C 420.361 713.175, 422.383 715.875, 423.054 717.162 C 423.724 718.448, 426.156 721.750, 428.459 724.500 C 430.762 727.250, 434.587 733.042, 436.960 737.371 C 439.332 741.700, 442.496 746.650, 443.991 748.371 C 445.485 750.092, 447.859 753.300, 449.267 755.500 C 452.310 760.257, 455.278 763.439, 460.458 767.500 C 462.562 769.150, 466.218 772.075, 468.582 774 C 475.718 779.811, 494.575 788.688, 501.500 789.496 C 504.800 789.880, 508.999 790.819, 510.832 791.581 C 512.664 792.343, 517.389 793.195, 521.332 793.475 C 525.274 793.755, 531.034 794.265, 534.132 794.608 C 537.229 794.951, 540.546 794.794, 541.503 794.258 C 542.978 793.433, 542.407 792.808, 537.749 790.143 C 534.728 788.414, 531.861 786.987, 531.378 786.972 C 530.895 786.956, 527.810 785.156, 524.521 782.972 C 521.233 780.787, 518.049 779, 517.446 779 C 516.842 779, 515.258 777.836, 513.924 776.414 C 511.684 774.025, 511.501 773.056, 511.517 763.664 C 511.537 751.366, 513.266 747.011, 519.875 742.612 L 524.250 739.700 536.541 741.215 C 548.365 742.672, 549.017 742.877, 553.666 746.615 C 556.325 748.752, 558.760 750.851, 559.078 751.281 C 559.396 751.710, 562.096 752.985, 565.078 754.114 C 572.246 756.827, 576.690 760.323, 578.512 764.682 C 580.402 769.207, 580.385 771.795, 578.428 777.560 C 577.564 780.106, 577.062 782.396, 577.314 782.647 C 577.565 782.899, 580.486 781.682, 583.804 779.942 L 589.837 776.780 588.168 774.126 C 587.251 772.667, 584.666 768.779, 582.425 765.486 C 580.183 762.194, 577.420 757.475, 576.285 755 C 573.651 749.256, 569 734.493, 569 731.873 C 569 730.770, 568.557 729.040, 568.015 728.028 C 566.967 726.071, 565.210 716.055, 560.991 688 C 560.371 683.875, 559.277 676.641, 558.561 671.924 C 557.845 667.207, 556.524 661.800, 555.627 659.909 C 553.174 654.739, 552.003 650.504, 549.982 639.500 C 546.213 618.967, 545.320 615.678, 543.010 613.807 C 541.782 612.813, 540.041 611.977, 539.139 611.950 C 538.238 611.922, 535.700 611.776, 533.500 611.625 C 531.300 611.475, 527.250 611.659, 524.500 612.034" stroke="#c4743d" fill="#c4743d" fill-opacity="0.2" fill-rule="evenodd"/><path class="svg-region-VMr" d="M 522 740.879 C 522 741.362, 520.667 742.309, 519.038 742.984 C 514.250 744.967, 511.640 751.626, 511.174 763.045 C 510.800 772.185, 510.896 772.723, 513.436 775.741 C 514.894 777.475, 517.081 779.202, 518.294 779.578 C 519.507 779.955, 522.750 781.721, 525.500 783.501 C 528.250 785.282, 533.766 788.430, 537.757 790.497 L 545.014 794.255 555.853 793.233 C 571.211 791.784, 574.497 789.792, 577.800 779.930 C 580.385 772.210, 580.517 769.482, 578.537 764.742 C 576.601 760.110, 572.309 756.634, 565.278 754.003 C 562.114 752.819, 559.295 751.531, 559.013 751.141 C 558.731 750.751, 556.378 748.719, 553.785 746.624 C 549.439 743.115, 548.262 742.708, 538.785 741.440 C 526.710 739.824, 522 739.666, 522 740.879" stroke="#e59376" fill="#e59376" fill-opacity="0.2" fill-rule="evenodd"/><path class="svg-region-PMr" d="M 258 723.556 C 253.968 724.534, 251.633 725.835, 249.250 728.430 C 245.588 732.420, 245.264 734.540, 247.846 737.629 C 250.309 740.576, 264.710 742.017, 268.084 739.654 C 273.976 735.527, 276.038 726.541, 271.777 723.557 C 269.163 721.725, 265.545 721.725, 258 723.556" stroke="#90cf92" fill="#90cf92" fill-opacity="0.2" fill-rule="evenodd"/><path class="svg-region-PV" d="M 273.500 599.012 C 265.445 599.794, 255.763 602.352, 252.677 604.513 C 251.510 605.331, 249.234 606, 247.619 606 C 243.804 606, 231.367 612.254, 225.439 617.151 C 220.887 620.913, 220.856 620.979, 223.885 620.373 C 227.446 619.661, 236.221 623.460, 239.720 627.228 C 240.880 628.478, 244.609 636.016, 248.007 643.979 C 251.405 651.943, 255.222 660.268, 256.490 662.479 C 260.149 668.861, 262.238 677.557, 261.517 683.404 C 260.334 693.003, 258.764 699.501, 257.025 702 C 256.026 703.435, 254.992 707.482, 254.599 711.500 C 254.223 715.350, 253.034 720.201, 251.957 722.281 C 249.684 726.672, 249.510 727.642, 251.250 726.230 C 252.794 724.977, 264.286 722, 267.581 722 C 271.095 722, 274 725.368, 274 729.441 C 274 731.334, 273.550 733.160, 273 733.500 C 269.283 735.797, 277.187 739, 286.574 739 C 291.948 739, 295.133 739.535, 297.790 740.885 C 299.830 741.922, 304.406 743.511, 307.959 744.418 C 317.704 746.904, 341.558 760.436, 343.896 764.805 C 344.443 765.828, 344.536 770.088, 344.118 774.958 L 343.397 783.349 337.448 788.768 C 331.716 793.991, 319.525 802, 317.308 802 C 315.712 802, 314.875 806.295, 316.288 807.238 C 317.554 808.083, 317.791 808.049, 327.500 805.606 C 330.800 804.775, 335.750 803.585, 338.500 802.961 C 341.250 802.337, 345.750 801.210, 348.500 800.457 C 351.250 799.704, 355.643 798.792, 358.262 798.429 C 360.882 798.066, 363.271 797.371, 363.571 796.885 C 363.872 796.398, 364.991 796, 366.059 796 C 367.127 796, 368 795.594, 368 795.098 C 368 794.602, 369.349 793.725, 370.997 793.151 C 373.601 792.243, 380.542 787.673, 382 785.905 C 382.275 785.572, 383.542 784.750, 384.816 784.079 C 386.089 783.408, 387.987 780.863, 389.033 778.423 C 390.079 775.983, 391.844 773.010, 392.956 771.817 C 394.068 770.624, 395.238 768.827, 395.556 767.824 C 395.874 766.821, 396.577 766, 397.118 766 C 397.659 766, 398.799 764.313, 399.651 762.250 C 400.502 760.188, 401.858 757.758, 402.664 756.851 C 403.469 755.943, 404.741 752.878, 405.490 750.038 C 406.239 747.198, 407.495 743.890, 408.281 742.687 C 410.453 739.364, 411.085 725.331, 409.270 720.752 C 408.453 718.691, 408.060 716.286, 408.397 715.409 C 409.124 713.514, 407.267 701.029, 406.037 699.539 C 405.565 698.967, 404.849 696.700, 404.445 694.500 C 404.042 692.300, 402.427 688.619, 400.856 686.320 C 399.285 684.021, 398 681.644, 398 681.038 C 398 680.433, 397.347 679.687, 396.549 679.380 C 395.751 679.074, 394.358 676.726, 393.453 674.162 C 392.548 671.598, 391.319 668.375, 390.722 667 C 388.129 661.030, 387.482 658.256, 387.809 654.500 C 388.001 652.300, 388.488 646.450, 388.892 641.500 C 389.771 630.749, 390.043 630.048, 396.055 623 C 401.813 616.252, 402.619 614.723, 403.492 608.901 L 404.182 604.302 383.478 603.583 C 372.091 603.188, 361.671 602.445, 360.322 601.932 C 358.973 601.420, 352.020 601, 344.869 601 C 337.719 601, 331.086 600.581, 330.130 600.070 C 327.981 598.920, 283.088 598.081, 273.500 599.012" stroke="#b09658" fill="#b09658" fill-opacity="0.2" fill-rule="evenodd"/><path class="svg-region-DV" d="M 220.266 621.979 C 216.288 624.405, 208.576 634.695, 206.942 639.758 C 206.278 641.816, 204.894 644.305, 203.867 645.289 C 202.840 646.273, 202 648.156, 202 649.474 C 202 650.792, 201.507 653.137, 200.905 654.685 C 198.287 661.420, 197.215 673.412, 198.064 686.500 C 198.527 693.650, 198.927 705.183, 198.953 712.128 C 199.004 725.929, 199.923 729.530, 204.840 735.213 C 206.405 737.021, 209.256 740.975, 211.177 744 C 216.208 751.924, 217.459 752.756, 219.548 749.567 C 221.075 747.236, 221.843 747, 227.893 747 C 232.625 747, 235.271 746.494, 237.027 745.252 C 238.495 744.215, 241.329 743.503, 244 743.502 C 248.095 743.500, 248.527 743.267, 248.801 740.914 C 248.968 739.476, 248.413 737.758, 247.551 737.042 C 245.259 735.140, 245.612 733.400, 249.636 726.775 C 252.348 722.312, 253.566 718.845, 254.426 713.145 C 255.060 708.940, 256.557 703.424, 257.752 700.886 C 258.985 698.269, 260.414 692.257, 261.054 686.996 C 262.397 675.949, 261.702 672.603, 255.444 660 C 250.518 650.079, 245.740 639.076, 244.034 633.729 C 242.117 627.719, 232.066 620.317, 225.500 620.080 C 224.400 620.040, 222.045 620.895, 220.266 621.979" stroke="#45567a" fill="#45567a" fill-opacity="0.2" fill-rule="evenodd"/><path class="svg-region-VV" d="M 271 736.784 C 271 737.216, 269.642 738.371, 267.982 739.352 C 265.447 740.849, 263.687 741.023, 256.982 740.438 C 250.116 739.839, 249 739.960, 249 741.303 C 249 743.261, 245.963 744.280, 242.627 743.442 C 240.869 743.001, 239.174 743.452, 237.137 744.902 C 234.874 746.514, 232.689 747, 227.711 747 C 221.872 747, 221.065 747.252, 219.563 749.544 C 217.958 751.994, 217.996 752.207, 220.593 755.294 C 222.077 757.057, 226.488 760.128, 230.395 762.118 C 244.951 769.530, 252.934 776.136, 269 794.067 C 273.487 799.075, 280.181 802.953, 290.203 806.350 C 297.301 808.756, 316 807.416, 316 804.501 C 316 803.698, 317.913 802.077, 320.250 800.899 C 326.726 797.634, 336.176 790.655, 340.301 786.089 C 344.179 781.796, 344.094 782.184, 344.438 767.292 C 344.486 765.183, 343.394 763.739, 339.500 760.767 C 332.313 755.280, 315.230 746.295, 308.804 744.621 C 305.779 743.833, 301.236 742.246, 298.707 741.094 C 295.329 739.556, 292.039 738.991, 286.305 738.965 C 281.433 738.942, 277.561 738.392, 276 737.500 C 273.215 735.908, 271 735.591, 271 736.784" stroke="#7699d1" fill="#7699d1" fill-opacity="0.2" fill-rule="evenodd"/><path class="svg-region-B" d="M 795.365 465.953 C 793.640 466.364, 790.871 467.668, 789.210 468.850 C 787.550 470.033, 785.763 471, 785.240 471 C 784.080 471, 783.017 481.496, 783.007 493.042 C 783.001 500.793, 782.573 502.691, 778.387 513.542 C 775.850 520.119, 772.756 528.650, 771.511 532.500 C 770.267 536.350, 768.446 541.525, 767.466 544 C 764.820 550.678, 754.147 568.730, 752.462 569.376 C 751.658 569.685, 751 570.801, 751 571.856 C 751 572.912, 749.475 575.993, 747.610 578.703 C 745.746 581.413, 743.061 585.920, 741.643 588.718 C 738.618 594.687, 735.832 597.779, 727 604.974 C 715.158 614.621, 714.440 619.062, 722.165 634.906 C 725.006 640.733, 728.650 647.445, 730.263 649.822 C 731.876 652.200, 734.900 658.839, 736.982 664.577 C 739.065 670.314, 742.024 676.653, 743.557 678.663 C 745.090 680.674, 748.062 685.734, 750.161 689.909 C 752.260 694.084, 755.528 699.525, 757.423 702 C 759.317 704.475, 760.897 706.814, 760.934 707.197 C 760.970 707.580, 762.636 711.293, 764.636 715.447 L 768.271 723 775.790 723 C 783.554 723, 793.117 725.292, 809.500 731.080 C 816.874 733.685, 825.853 735.861, 838.500 738.108 C 841.250 738.597, 847.325 738.718, 852 738.378 C 857.075 738.008, 862.081 738.197, 864.423 738.847 C 868.880 740.082, 878.867 738.943, 888 736.157 C 892.608 734.752, 893.760 733.913, 895.102 730.990 C 895.983 729.070, 898.569 723.675, 900.849 719 C 903.129 714.325, 906.737 705.100, 908.867 698.500 C 912.365 687.658, 912.786 685.198, 913.234 673 C 913.509 665.508, 913.185 654.160, 912.506 647.500 C 911.833 640.900, 911.498 632.927, 911.762 629.782 C 912.245 624.035, 911.735 621.826, 906.041 605 C 901.419 591.340, 900.766 588.167, 900.275 576.955 C 899.819 566.559, 899.991 564.893, 902.005 560.211 C 903.768 556.112, 904.147 553.709, 903.796 548.857 C 903.405 543.455, 902.970 542.385, 900.234 540.101 C 885.522 527.822, 885.233 527.423, 880.553 513 C 875.786 498.309, 874.232 495.946, 866.922 492.273 C 863.390 490.498, 859.375 489.029, 858 489.009 C 852.930 488.936, 838.797 483.205, 835.110 479.728 C 823.400 468.684, 807.304 463.105, 795.365 465.953" stroke="#e23b33" fill="#e23b33" fill-opacity="0.2" fill-rule="evenodd"/><path class="svg-region-VOC" d="M 504.352 464.750 C 500.321 469.092, 498.887 472.697, 499.125 477.896 C 499.288 481.481, 498.790 483.486, 497.172 485.758 C 492.621 492.150, 494.219 493.795, 509 497.931 C 513.125 499.085, 517.850 500.543, 519.500 501.172 C 523.292 502.616, 533.019 503.463, 532.941 502.343 C 532.832 500.791, 528.534 493.330, 525.250 488.992 C 523.001 486.022, 521.993 483.591, 521.978 481.100 C 521.966 479.120, 521.066 475.538, 519.978 473.141 C 518.890 470.743, 518 468.173, 518 467.430 C 518 464.977, 513.758 462, 510.264 462 C 507.885 462, 506.160 462.802, 504.352 464.750" stroke="#ff8f93" fill="#ff8f93" fill-opacity="0.2" fill-rule="evenodd"/><path class="svg-region-OABr" d="M 649.396 411.675 C 642.725 419.408, 642.471 419.640, 637.378 422.624 C 634.377 424.383, 631.927 426.942, 629.958 430.375 C 626.283 436.783, 626.156 439.729, 629.500 441 C 632.368 442.090, 632.794 445.366, 630.468 448.441 C 629.661 449.509, 629 451.145, 629 452.077 C 629 453.009, 628.328 455.060, 627.506 456.636 C 626.685 458.211, 626 460.625, 625.984 462 C 625.951 464.917, 622.483 473, 621.264 473 C 620.806 473, 619.677 474.277, 618.754 475.839 C 617.481 477.994, 617.357 478.957, 618.239 479.839 C 620.245 481.845, 623.693 481.116, 628.173 477.737 C 630.553 475.942, 635.200 472.739, 638.500 470.620 C 645.123 466.366, 654.491 455.093, 656.701 448.717 C 657.494 446.429, 658.271 437.237, 658.665 425.467 L 659.317 406 656.805 406 C 654.992 406, 652.929 407.580, 649.396 411.675" stroke="#81244d" fill="#81244d" fill-opacity="0.2" fill-rule="evenodd"/><path class="svg-region-SOTr" d="M 521.313 408.072 C 519.766 409.761, 517.472 412.124, 516.216 413.322 C 514.959 414.520, 512.372 416.995, 510.466 418.821 C 508.560 420.648, 506.993 423.123, 506.985 424.321 C 506.976 425.520, 506.552 427.160, 506.042 427.966 C 504.835 429.874, 506.294 431.599, 511.254 434.130 C 514.967 436.024, 515.365 436.040, 520.071 434.476 C 522.782 433.576, 525.001 432.538, 525.003 432.170 C 525.004 431.801, 526.332 430.612, 527.952 429.526 C 532.021 426.800, 534.416 421.136, 533.713 415.898 C 533.405 413.598, 533.638 410.950, 534.235 409.996 C 536.271 406.735, 534.486 405, 529.094 405 C 524.825 405, 523.730 405.432, 521.313 408.072" stroke="#995b45" fill="#995b45" fill-opacity="0.2" fill-rule="evenodd"/><path class="svg-region-BPCr" d="M 757.287 706.009 C 756.747 708.076, 756.379 708.163, 751.605 707.360 C 748.797 706.887, 740.650 706.500, 733.500 706.500 C 723.412 706.500, 719.543 706.892, 716.230 708.250 C 710.576 710.567, 702.723 710.464, 696.207 707.987 C 692.207 706.467, 690.436 706.231, 688.957 707.023 C 685.968 708.622, 686.504 711, 689.852 711 C 691.421 711, 694.233 712.108, 696.102 713.461 C 702.168 717.856, 708.460 720.796, 713.371 721.533 C 718.024 722.231, 723.398 725.523, 729.957 731.696 C 732.072 733.686, 733.090 733.966, 736 733.358 C 739.857 732.552, 742.723 732.585, 748 733.494 C 751.109 734.030, 752.282 733.505, 758.500 728.798 C 766.869 722.464, 767.266 721.009, 763.142 711.816 C 759.799 704.365, 758.146 702.726, 757.287 706.009" stroke="#83385f" fill="#83385f" fill-opacity="0.2" fill-rule="evenodd"/>
    </svg>