<svg xmlns="http://www.w3.org/2000/svg" width="1078" height="1151" viewBox="0 0 1078 1151" version="1.1">
    <path class="svg-region-V" d="M 502 197.134 C 498.425 197.608, 488.478 198.618, 479.895 199.378 C 466.078 200.601, 463.541 201.117, 457.752 203.880 C 454.156 205.596, 450.603 207.012, 449.857 207.028 C 447.959 207.066, 433.449 218.349, 422.607 228.218 C 403.608 245.511, 403.142 246.101, 393.728 264.763 C 388.939 274.258, 383.892 285.508, 382.511 289.763 C 381.131 294.018, 378.426 300.110, 376.501 303.300 C 374.575 306.490, 373 309.334, 373 309.620 C 373 309.906, 370.975 313.476, 368.500 317.553 C 366.025 321.630, 364 325.266, 364 325.633 C 364 326, 362.195 329.430, 359.989 333.257 C 353.377 344.724, 349.644 355.815, 347.998 368.879 L 347.068 376.258 351.401 385.379 C 353.784 390.395, 356.079 395.625, 356.501 397 C 357.151 399.119, 362.200 410.862, 371.145 431.061 C 372.256 433.569, 374.004 436.146, 375.031 436.787 C 376.057 437.428, 381.082 438.244, 386.198 438.601 C 394.638 439.189, 396.056 439.021, 401.500 436.787 C 404.800 435.433, 409.602 433.554, 412.171 432.610 C 417.510 430.649, 424.066 424.130, 426.544 418.317 C 427.872 415.202, 428.059 412.385, 427.560 403 C 426.876 390.130, 427.429 387.266, 433.420 372.631 C 440.761 354.699, 450.084 342.144, 469.531 324 C 482.263 312.121, 486.345 310.427, 501.724 310.644 C 511.359 310.779, 525.312 313.071, 529.296 315.172 C 530.284 315.693, 534.487 319.214, 538.636 322.996 C 547.316 330.909, 552.194 333.003, 561.928 332.994 C 575.463 332.983, 579.058 330.292, 583.966 316.500 C 591.443 295.486, 601.711 279.570, 609.435 277.021 C 611.308 276.403, 613.381 275.246, 614.042 274.449 C 614.704 273.652, 616.087 273, 617.116 273 C 618.707 273, 618.465 272.317, 615.493 268.423 C 613.572 265.906, 611.985 262.869, 611.967 261.673 C 611.949 260.478, 610.606 257.700, 608.984 255.500 C 607.362 253.300, 605.464 250.381, 604.767 249.014 C 604.070 247.646, 602.738 245.759, 601.806 244.819 C 600.874 243.880, 599.792 241.410, 599.402 239.330 C 597.934 231.502, 583.248 220.553, 564 212.935 C 560.975 211.737, 554 208.627, 548.500 206.022 C 528.054 196.340, 519.831 194.768, 502 197.134" stroke="#dd8a8a" fill="#dd8a8a" fill-opacity="0.2" fill-rule="evenodd"/><path class="svg-region-SV" d="M 486.228 312.119 C 481.038 313.919, 478.190 315.927, 469.728 323.752 C 449.860 342.123, 440.554 354.883, 432.715 374.500 C 427.257 388.160, 426.704 391.155, 427.494 402.750 C 428.076 411.286, 427.896 413.848, 426.429 417.928 C 424.756 422.579, 424.754 422.975, 426.386 425.466 C 428.385 428.518, 432.823 431.423, 438.500 433.397 C 444.757 435.573, 463.672 441, 464.998 441 C 465.654 441, 467.386 441.836, 468.846 442.858 C 470.306 443.880, 476 446.143, 481.500 447.887 C 497.806 453.057, 498.449 453.264, 499.692 453.726 C 500.447 454.007, 501.835 451.051, 503.481 445.656 C 505.935 437.608, 506.254 437.107, 509.289 436.507 C 514.319 435.513, 519 432.736, 519 430.747 C 519 429.759, 521.587 426.113, 524.750 422.647 C 527.913 419.181, 533.287 412.969, 536.694 408.844 C 542.461 401.860, 543.270 401.258, 548.444 400.100 L 554 398.857 554.161 391.678 C 554.250 387.730, 554.203 378.650, 554.057 371.500 C 553.819 359.845, 553.995 358.241, 555.760 356 C 557.194 354.179, 557.880 351.328, 558.285 345.500 C 558.591 341.100, 559.155 336.488, 559.538 335.250 C 560.128 333.342, 559.863 333, 557.795 333 C 552.256 333, 546.063 329.766, 538.636 322.996 C 534.487 319.214, 530.284 315.697, 529.296 315.180 C 525.634 313.263, 512.721 310.967, 502.765 310.463 C 493.943 310.016, 491.619 310.249, 486.228 312.119" stroke="#c666b5" fill="#c666b5" fill-opacity="0.2" fill-rule="evenodd"/><path class="svg-region-SF" d="M 614.449 274.083 C 614.081 274.678, 611.917 276.008, 609.640 277.037 C 604.620 279.307, 603.508 280.236, 598.911 286 C 594.709 291.268, 589.530 301.687, 584.495 315 C 582.519 320.225, 579.856 326.075, 578.578 328 C 577.299 329.925, 575.680 334.425, 574.978 338 C 574.277 341.575, 572.645 347.366, 571.352 350.869 C 569.550 355.748, 569 359.276, 569 365.948 C 569 373.923, 569.249 375.033, 571.956 379.120 C 573.626 381.640, 576.780 384.606, 579.206 385.936 C 585.038 389.134, 587.829 391.787, 590.177 396.367 C 592.648 401.185, 596.268 404.552, 601.711 407.093 C 605.703 408.957, 606.120 408.973, 609.711 407.412 C 617.289 404.117, 626.342 400.999, 628.397 400.978 C 629.554 400.966, 631.625 400.076, 633 399 C 634.375 397.924, 636.368 397.034, 637.429 397.022 C 641.159 396.979, 646 394.631, 646 392.864 C 646 390.592, 647.266 387.878, 652 380 C 661.714 363.836, 663.589 356.643, 663.339 336.500 C 663.119 318.794, 660.115 307.835, 653.623 301.059 C 651.747 299.102, 648.184 294.301, 645.704 290.392 C 641.351 283.530, 637.343 280.053, 632 278.503 C 630.625 278.104, 628.150 277.216, 626.500 276.529 C 619.114 273.456, 617.823 273, 616.512 273 C 615.745 273, 614.817 273.487, 614.449 274.083" stroke="#8c6b55" fill="#8c6b55" fill-opacity="0.2" fill-rule="evenodd"/><path class="svg-region-PF" d="M 572 332 C 570.625 332.440, 567.643 332.845, 565.372 332.900 C 563.051 332.956, 560.706 333.650, 560.013 334.485 C 559.335 335.301, 558.540 339.914, 558.246 344.735 C 557.861 351.046, 557.206 354.150, 555.905 355.823 C 554.278 357.914, 554.098 360.517, 554.098 381.948 L 554.098 405.751 556.799 409.967 C 558.446 412.539, 562.145 415.903, 566.281 418.592 C 572.247 422.470, 573.735 423, 578.659 423 C 583.783 423, 584.814 422.589, 590.878 418.126 C 594.520 415.445, 598.962 412.509, 600.750 411.600 C 602.538 410.692, 603.997 409.623, 603.992 409.224 C 603.988 408.826, 602.254 407.512, 600.138 406.304 C 596.188 404.049, 592.527 400.134, 588.655 394.024 C 587.444 392.112, 584.888 389.556, 582.976 388.345 C 572.013 381.397, 569 376.557, 569 365.893 C 569 360.712, 569.812 356.167, 571.908 349.603 C 575.095 339.628, 576.717 330.943, 575.364 331.100 C 574.889 331.155, 573.375 331.560, 572 332" stroke="#faaaaa" fill="#faaaaa" fill-opacity="0.2" fill-rule="evenodd"/><path class="svg-region-AAB" d="M 663.989 412.250 C 662.899 414.038, 662.006 415.978, 662.004 416.563 C 661.998 418.124, 656.865 422.665, 654.191 423.474 C 652.922 423.858, 650.022 426.190, 647.748 428.657 C 643.419 433.354, 642.821 435.615, 642.898 447 C 642.946 454.005, 642.279 455.638, 638.451 457.897 C 636.201 459.224, 634.194 461.569, 633.004 464.258 C 630.894 469.027, 623.580 476.976, 617.164 481.470 C 612.437 484.782, 608.503 491.043, 606.822 497.932 C 604.529 507.329, 601.550 510.108, 595.416 508.568 C 592.925 507.943, 592.845 507.689, 593.166 501.458 C 593.350 497.904, 593.465 494.997, 593.422 494.998 C 593.380 494.999, 590.073 498.262, 586.075 502.250 C 582.077 506.238, 577.676 511.718, 576.295 514.429 C 574.914 517.140, 573.158 519.985, 572.392 520.750 C 571.627 521.516, 571 522.505, 571 522.948 C 571 523.391, 568.540 524.821, 565.534 526.126 C 561.484 527.885, 559.758 529.277, 558.870 531.500 C 558.210 533.150, 557.034 535.250, 556.255 536.168 C 554.480 538.258, 554.963 541.959, 557.193 543.357 C 559.086 544.543, 565.011 543.509, 573.500 540.512 C 593.502 533.449, 595.995 532.780, 609 530.987 C 615.927 530.032, 624.667 527.868, 629.500 525.910 C 630.600 525.464, 635.453 523.498, 640.285 521.540 C 645.117 519.582, 650.742 516.962, 652.785 515.717 C 654.828 514.473, 657.737 512.826, 659.250 512.058 C 660.763 511.290, 662 510.288, 662 509.831 C 662 509.374, 662.665 509, 663.477 509 C 667.089 509, 686.241 497.088, 688.725 493.297 C 689.679 491.841, 690.762 488.141, 691.131 485.075 C 691.499 482.009, 692.817 476.800, 694.058 473.500 C 695.984 468.379, 696.328 465.449, 696.405 453.500 C 696.521 435.553, 694.715 429.552, 686.391 420.221 C 680.427 413.536, 676.636 411, 672.609 411 C 671.239 411, 669.840 410.550, 669.500 410 C 668.307 408.070, 665.952 409.031, 663.989 412.250" stroke="#7f3c1a" fill="#7f3c1a" fill-opacity="0.2" fill-rule="evenodd"/><path class="svg-region-APB" d="M 641.500 396 C 641.160 396.550, 639.896 396.999, 638.691 396.997 C 637.486 396.996, 634.700 397.856, 632.500 398.910 C 630.300 399.963, 625.800 401.589, 622.500 402.523 C 619.200 403.457, 614.207 405.296, 611.404 406.611 C 608.600 407.925, 605.805 409, 605.192 409 C 602.951 409, 588.299 419.969, 580.966 427.136 C 558.449 449.147, 552.311 462.728, 551.268 492.848 C 550.985 501.030, 551.297 505.634, 552.388 509.348 C 553.219 512.182, 554.160 516.540, 554.479 519.033 C 554.797 521.525, 555.915 524.976, 556.964 526.701 L 558.871 529.836 564.646 526.840 C 570.813 523.640, 572.087 522.303, 576 514.914 C 577.375 512.318, 582.421 506.102, 587.214 501.102 C 602.094 485.577, 606.112 479.339, 608.013 468.817 C 609.172 462.395, 610.448 460.356, 614.511 458.428 C 618.534 456.519, 621.860 453.322, 626.331 447.067 C 628.074 444.629, 631.139 441.704, 633.141 440.567 C 638.412 437.575, 646.293 431.006, 649.086 427.278 C 650.414 425.505, 652.253 424.043, 653.173 424.028 C 656.008 423.981, 660.620 419.296, 663.374 413.667 C 664.819 410.716, 666 408.025, 666 407.689 C 666 407.353, 663.749 406.409, 660.998 405.592 C 658.161 404.749, 653.577 402.136, 650.406 399.553 C 644.805 394.991, 642.654 394.133, 641.500 396" stroke="#ac7444" fill="#ac7444" fill-opacity="0.2" fill-rule="evenodd"/><path class="svg-region-PC" d="M 547 400.293 C 544.525 400.872, 542.211 401.778, 541.858 402.306 C 540.432 404.442, 530.145 416.646, 524.750 422.602 C 521.587 426.093, 518.996 429.748, 518.992 430.725 C 518.987 431.701, 519.752 435.499, 520.691 439.165 C 522.217 445.120, 522.699 445.890, 525.216 446.393 C 528.698 447.090, 530 450.163, 530 457.683 C 530 462.790, 529.692 463.544, 526.154 467.081 C 523.466 469.769, 521.099 471.120, 518.291 471.570 L 514.273 472.212 513.749 483.276 C 513.331 492.090, 513.571 495.372, 514.929 499.420 C 515.866 502.214, 517.912 509.900, 519.475 516.500 C 521.718 525.976, 522.844 528.957, 524.825 530.670 C 527.237 532.758, 527.652 534.824, 526.800 540.500 C 526.538 542.245, 527.145 542.538, 531.560 542.796 C 535.337 543.016, 538.508 542.338, 544.060 540.120 C 548.152 538.486, 552.770 536.834, 554.323 536.448 C 558.524 535.404, 559.662 531.522, 557.101 526.967 C 555.992 524.992, 554.814 521.380, 554.483 518.939 C 554.153 516.497, 553.196 512.150, 552.357 509.278 C 551.221 505.389, 550.952 501.047, 551.305 492.278 C 552.175 470.613, 555.202 459.965, 564.416 446.146 C 568.460 440.081, 583.589 423.970, 585.993 423.169 C 586.547 422.984, 587 422.405, 587 421.881 C 587 421.308, 586.232 421.341, 585.066 421.965 C 584.002 422.534, 580.919 423, 578.214 423 C 574.074 423, 572.223 422.295, 566.508 418.542 C 558.615 413.357, 555.060 408.869, 554.288 403.112 C 553.985 400.850, 553.233 399.054, 552.618 399.120 C 552.003 399.186, 549.475 399.714, 547 400.293" stroke="#cda789" fill="#cda789" fill-opacity="0.2" fill-rule="evenodd"/><path class="svg-region-DB" d="M 420.542 426.957 C 418.380 429.171, 414.560 431.710, 412.055 432.598 C 409.550 433.486, 404.969 435.290, 401.875 436.607 C 395.960 439.123, 390.184 439.520, 380.184 438.098 C 375.136 437.380, 374.894 437.446, 375.366 439.421 C 375.640 440.564, 376.188 443.300, 376.584 445.500 C 376.981 447.700, 378.362 451.179, 379.653 453.230 C 380.944 455.282, 382.002 457.982, 382.004 459.230 C 382.010 462.875, 385.625 467.881, 388.719 468.529 C 390.249 468.850, 393.525 470.051, 396 471.198 C 398.475 472.346, 403.425 473.652, 407 474.100 C 428.138 476.752, 440.464 479.251, 442.959 481.389 C 443.806 482.116, 446.863 483.540, 449.750 484.553 C 452.637 485.566, 455 486.707, 455 487.089 C 455 488.479, 463.162 491.001, 467.770 491.035 C 470.372 491.055, 473.625 491.714, 475 492.500 C 476.375 493.286, 479.075 493.952, 481 493.981 C 484.359 494.030, 486.408 495.338, 493.721 502.100 C 496.541 504.708, 498.672 504.055, 503.899 498.982 C 506.127 496.820, 509.065 494.771, 510.428 494.429 C 512.455 493.920, 513.028 492.993, 513.576 489.345 C 514.674 482.018, 513.595 468.316, 511.759 466.278 C 510.877 465.300, 509.826 463.150, 509.424 461.500 C 508.593 458.093, 507.411 457.037, 504.405 457.015 C 503.253 457.007, 501.559 456.170, 500.641 455.155 C 499.722 454.141, 497.065 452.736, 494.736 452.033 C 479.982 447.585, 471.178 444.495, 469 443 C 467.625 442.056, 465.375 441.049, 464 440.761 C 462.625 440.474, 455.879 438.589, 449.009 436.573 C 435.628 432.646, 429.294 429.547, 426.329 425.477 L 424.474 422.930 420.542 426.957" stroke="#e8b1e4" fill="#e8b1e4" fill-opacity="0.2" fill-rule="evenodd"/><path class="svg-region-MB" d="M 388.880 470.775 C 390.673 474.127, 394.830 486.862, 396.028 492.680 C 396.704 495.960, 398.945 501.337, 401.164 505 C 405.182 511.635, 413.901 523.363, 416.314 525.381 C 417.051 525.996, 419.071 528.351, 420.803 530.614 C 424.699 535.704, 436.063 540.682, 449.153 543.034 C 452.094 543.562, 456.525 544.420, 459 544.939 C 463.283 545.838, 490.871 547.500, 501.500 547.500 C 506.441 547.500, 511.979 544.839, 511.906 542.500 C 511.889 541.950, 508.710 539.949, 504.842 538.053 C 497.044 534.230, 489.432 527.243, 488.514 523.065 C 487.794 519.786, 489.079 516.155, 493.035 510.293 C 494.666 507.877, 495.974 505.360, 495.942 504.700 C 495.832 502.424, 484.652 494.024, 481.718 494.012 C 480.188 494.005, 477.320 493.325, 475.346 492.500 C 473.371 491.675, 469.795 491, 467.398 491 C 463.106 491, 455 488.443, 455 487.089 C 455 486.707, 452.637 485.566, 449.750 484.553 C 446.863 483.540, 443.806 482.116, 442.959 481.389 C 440.477 479.262, 429.425 477.009, 407 474.061 C 403.425 473.591, 398.717 472.260, 396.539 471.103 C 394.360 469.946, 391.531 469, 390.253 469 C 388.338 469, 388.096 469.312, 388.880 470.775" stroke="#f9c6c6" fill="#f9c6c6" fill-opacity="0.2" fill-rule="evenodd"/><path class="svg-region-AP" d="M 621.756 600.577 C 620.663 601.670, 603.459 603.135, 583.712 603.817 C 567.741 604.368, 563.742 604.789, 562.978 606 C 562.457 606.825, 562.024 617.076, 562.015 628.780 C 562.001 649.188, 562.101 650.301, 564.475 655.940 C 568.422 665.319, 569.187 669.523, 570.036 686.500 C 571.163 709.046, 571.660 712.072, 575.134 717.550 C 576.792 720.165, 578.985 724.374, 580.006 726.903 C 581.028 729.431, 582.794 733.283, 583.932 735.461 C 586.852 741.054, 586.716 752.564, 583.583 765 C 582.267 770.225, 580.854 775.340, 580.443 776.366 C 579.764 778.064, 579.914 778.117, 582.098 776.954 C 583.419 776.250, 585.713 774.781, 587.196 773.689 C 591.248 770.705, 603.063 771.958, 618.673 777.026 C 627.705 779.958, 633.640 781.218, 641.673 781.910 C 653.222 782.905, 672.542 781.913, 677.315 780.081 C 678.863 779.486, 681.420 779, 682.997 779 C 686.252 779, 698.964 774.486, 706.645 770.602 C 709.475 769.171, 712.227 768, 712.760 768 C 713.294 768, 714.803 767.167, 716.115 766.148 C 717.427 765.130, 721.447 763.323, 725.048 762.134 C 728.649 760.945, 732.539 759.310, 733.693 758.503 C 738.269 755.297, 749.771 749.792, 754.500 748.545 C 757.250 747.819, 761.075 746.558, 763 745.742 L 766.500 744.259 754.500 738.562 C 747.900 735.429, 741.150 732.653, 739.500 732.394 C 732.629 731.314, 725.340 729.506, 723 728.300 C 721.625 727.592, 719.695 727.010, 718.710 727.006 C 716.138 726.997, 710.066 723.708, 706 720.120 C 704.075 718.422, 702.038 717.025, 701.472 717.016 C 700.907 717.007, 699.637 716.057, 698.651 714.905 C 696.780 712.721, 696.570 712.716, 684.359 714.563 C 678.967 715.379, 675.959 713.420, 672.014 706.524 C 668.686 700.708, 667.068 700.049, 656 699.996 C 652.975 699.981, 649.935 699.611, 649.245 699.172 C 647.530 698.084, 654.098 695, 658.133 695 C 660.954 695, 667.826 692.454, 669 690.974 C 669.827 689.930, 676.209 687, 677.654 687 C 678.394 687, 679 686.550, 679 686 C 679 684.471, 693.737 684.711, 694.249 686.247 C 694.766 687.799, 718.767 687.939, 719.819 686.396 C 720.260 685.750, 723.677 685.695, 729.500 686.240 C 743.699 687.567, 744.286 687.569, 744.726 686.287 C 744.959 685.607, 743.902 684.776, 742.321 684.397 C 737.791 683.309, 733.798 681.004, 729.272 676.866 C 726.947 674.740, 724.022 672.993, 722.772 672.985 C 721.523 672.977, 718.629 672.319, 716.342 671.522 C 703.641 667.097, 698.301 660.749, 699.462 651.456 C 699.811 648.668, 699.639 644.352, 699.081 641.863 C 698.093 637.455, 699.673 620.048, 701.441 615.852 C 702.415 613.542, 698.837 610.388, 691 606.646 C 684.867 603.718, 683.597 603.503, 668.500 602.830 C 659.700 602.438, 649.800 601.643, 646.500 601.064 C 640.135 599.948, 622.728 599.605, 621.756 600.577" stroke="#fc7143" fill="#fc7143" fill-opacity="0.2" fill-rule="evenodd"/><path class="svg-region-PP" d="M 499.756 603.577 C 499.348 603.985, 492.823 604.863, 485.257 605.528 C 469.015 606.955, 448.134 609.695, 442.500 611.139 C 433.248 613.510, 424.072 614.923, 417.684 614.960 C 413.936 614.982, 410.111 615.391, 409.184 615.869 C 408.202 616.376, 404.883 616.295, 401.223 615.674 C 392.332 614.167, 391.503 615.196, 390.017 629.581 C 388.794 641.429, 389.126 647.388, 391.629 658.500 C 393.886 668.521, 394.967 671.888, 397.637 677.217 C 398.936 679.811, 400 682.566, 400 683.340 C 400 688.101, 406.561 698.276, 415.425 707.262 C 419.584 711.479, 422.442 715.770, 426.080 723.262 C 439.734 751.379, 452.539 763.663, 477.843 772.920 C 482.054 774.461, 487.975 776.266, 491 776.933 C 494.025 777.599, 497.400 778.494, 498.500 778.922 C 504.698 781.335, 508.201 782.329, 514.500 783.460 C 518.350 784.152, 523.568 785.306, 526.096 786.025 C 528.623 786.744, 531.431 787.048, 532.336 786.701 C 533.760 786.155, 533.647 785.738, 531.490 783.581 C 530.018 782.109, 529.003 779.947, 529.006 778.295 C 529.011 776.306, 527.933 774.563, 525.267 772.250 C 523.207 770.462, 521.215 769, 520.840 769 C 520.466 769, 519.856 767.620, 519.485 765.932 C 519.115 764.245, 518.210 762.634, 517.476 762.352 C 514.882 761.357, 512.475 749, 514.875 749 C 515.356 749, 516.020 747.652, 516.349 746.004 C 517.240 741.551, 519.807 738.200, 522.824 737.552 C 525.239 737.034, 533.588 738.370, 543.015 740.784 C 547.769 742, 554 745.024, 554 746.114 C 554 746.601, 554.900 747, 556 747 C 557.100 747, 558 747.340, 558 747.756 C 558 748.555, 565.775 752.283, 570 753.510 C 574.750 754.890, 578.987 760.100, 577.159 762.314 C 576.230 763.440, 573.399 774.748, 572.294 781.750 C 571.905 784.217, 572.148 785, 573.302 785 C 579 785, 586 764.206, 586 747.280 C 586 740.961, 585.509 738.619, 583.124 733.579 C 581.543 730.236, 579.211 725.250, 577.943 722.500 C 576.675 719.750, 575.337 717.275, 574.969 717 C 572.048 714.818, 570.099 700.805, 570.034 681.524 C 570.003 672.507, 569.611 670.425, 565.961 659.887 L 561.921 648.226 562.211 627.223 L 562.500 606.219 559.249 605.044 C 557.461 604.398, 553.186 603.892, 549.749 603.919 C 546.312 603.947, 533.825 603.714, 521.999 603.402 C 510.174 603.090, 500.165 603.169, 499.756 603.577" stroke="#c4743d" fill="#c4743d" fill-opacity="0.2" fill-rule="evenodd"/><path class="svg-region-ADCr" d="M 718.347 612.362 C 715.558 614.709, 714.637 614.923, 709.254 614.474 C 704.616 614.088, 702.975 614.325, 701.977 615.527 C 699.874 618.062, 697.759 637.391, 699.057 642.213 C 699.677 644.515, 699.854 648.426, 699.466 651.248 C 699.074 654.099, 699.216 657.136, 699.800 658.362 C 700.360 659.538, 701.062 661.266, 701.360 662.203 C 702.476 665.715, 716.933 673, 722.785 673 C 724.090 673, 726.713 674.570, 728.800 676.600 C 732.715 680.409, 736.575 682.731, 741.192 684.055 C 744.453 684.990, 744.477 684.889, 742.511 678.409 C 741.692 675.709, 741.017 671.565, 741.011 669.200 C 741.005 666.836, 740.292 663.532, 739.428 661.860 C 738.563 660.188, 738.095 658.196, 738.387 657.434 C 738.680 656.672, 738.267 653.900, 737.470 651.274 C 736.674 648.648, 736.017 644.085, 736.011 641.134 C 735.992 631.811, 731.865 621.260, 725.475 614.198 L 721.450 609.750 718.347 612.362" stroke="#54413e" fill="#54413e" fill-opacity="0.2" fill-rule="evenodd"/><path class="svg-region-VMr" d="M 519.766 738.969 C 518.389 740.053, 516.984 742.329, 516.645 744.027 C 516.305 745.726, 515.345 747.798, 514.512 748.630 C 512.981 750.161, 513.096 751.935, 515.167 758.750 C 515.711 760.538, 516.541 762, 517.013 762 C 517.485 762, 518.400 763.462, 519.047 765.250 C 519.694 767.038, 522.198 770.015, 524.612 771.867 C 527.685 774.225, 529 775.967, 529 777.683 C 529 781.597, 530.629 783.641, 536.366 786.923 C 540.602 789.347, 542.926 790, 547.313 790 C 550.376 790, 553.160 790.450, 553.500 791 C 554.324 792.332, 563.292 792.279, 566.266 790.925 C 568.719 789.807, 571.469 785.318, 572.346 781 C 574.473 770.530, 576.331 763.318, 577.159 762.314 C 579.114 759.947, 574.876 754.722, 570 753.486 C 566.190 752.520, 558 748.609, 558 747.756 C 558 747.340, 557.100 747, 556 747 C 554.900 747, 554 746.601, 554 746.114 C 554 744.165, 545.866 741.200, 533 738.458 C 524.283 736.601, 522.699 736.662, 519.766 738.969" stroke="#e59376" fill="#e59376" fill-opacity="0.2" fill-rule="evenodd"/><path class="svg-region-PMr" d="M 246.930 718.835 C 243.653 722.111, 243 723.437, 243 726.806 C 243 732.057, 246.890 737, 251.024 737 C 256.278 737, 268.484 733.947, 270.152 732.215 C 271.692 730.616, 271.556 729.993, 268.152 723 L 264.500 715.500 257.680 715.203 C 250.924 714.908, 250.822 714.943, 246.930 718.835" stroke="#90cf92" fill="#90cf92" fill-opacity="0.2" fill-rule="evenodd"/><path class="svg-region-PV" d="M 303 595.019 C 297.775 595.441, 291.490 596.308, 289.034 596.947 C 285.694 597.815, 284.034 597.821, 282.447 596.972 C 280.800 596.090, 279.509 596.178, 276.663 597.367 C 274.648 598.209, 273 599.371, 273 599.949 C 273 601.661, 269.789 601.148, 267.564 599.081 C 265.526 597.188, 265.405 597.194, 258.119 599.581 C 254.060 600.912, 249.785 602.004, 248.619 602.010 C 247.454 602.015, 244.137 603.119, 241.250 604.464 C 236.998 606.443, 236 607.376, 236 609.372 C 236 611.103, 234.973 612.471, 232.551 613.968 C 227.721 616.954, 220.431 625.831, 221.737 627.137 C 222.298 627.698, 224.725 628.411, 227.129 628.721 C 232.961 629.472, 244.037 635.108, 248.292 639.489 C 251.981 643.287, 253.381 648.777, 253.064 658.197 C 252.961 661.237, 253.636 664.325, 254.975 666.950 C 257.627 672.150, 259.358 685.040, 258.794 695.396 C 258.395 702.729, 257.276 706.513, 253.235 714.198 C 253.033 714.582, 255.470 715.032, 258.651 715.198 C 265.006 715.530, 264.181 714.719, 269.465 725.832 C 272.683 732.602, 272.648 734.311, 269.233 737.140 C 266.547 739.364, 266.510 739.528, 267.983 742.683 L 269.500 745.935 280.338 745.967 C 290.207 745.997, 291.749 746.265, 297.579 748.963 C 303.947 751.911, 314.773 758.682, 320.500 763.300 C 322.150 764.631, 324.908 766.441, 326.630 767.323 C 328.351 768.205, 330.661 770.456, 331.764 772.324 C 332.866 774.193, 335.508 777.017, 337.634 778.600 C 343.994 783.335, 345.099 784.953, 344.426 788.542 C 343.864 791.538, 344.043 791.794, 347.162 792.456 C 354.601 794.035, 357.297 793.432, 368.500 787.676 C 369.600 787.111, 374.592 784.585, 379.594 782.063 C 388.499 777.573, 398 769.930, 398 767.256 C 398 766.515, 399.125 764.784, 400.500 763.409 C 401.875 762.034, 403 760.056, 403 759.014 C 403 757.971, 403.389 756.877, 403.865 756.583 C 404.341 756.289, 405.283 753.240, 405.958 749.808 C 406.633 746.375, 408.269 741.429, 409.593 738.817 C 413.420 731.265, 412.809 719.061, 408.001 707 C 406.795 703.975, 405.158 699.416, 404.364 696.868 C 403.569 694.321, 402.037 691.439, 400.959 690.463 C 399.882 689.488, 399 688.299, 399 687.821 C 399 687.343, 397.425 684.662, 395.500 681.864 C 393.575 679.065, 392 675.901, 392 674.833 C 392 672.421, 388.468 664.552, 385.712 660.824 C 383.894 658.365, 383.641 656.525, 383.575 645.268 L 383.500 632.500 388.619 621.890 C 391.435 616.054, 394.247 610.965, 394.869 610.581 C 396.556 609.538, 396.236 606.521, 394.250 604.743 C 393.023 603.645, 389.360 602.976, 382 602.505 C 376.225 602.136, 368.800 601.209, 365.500 600.446 C 362.200 599.683, 352.975 598.598, 345 598.035 C 337.025 597.473, 328.700 596.504, 326.500 595.883 C 321.084 594.353, 314.328 594.105, 303 595.019" stroke="#b09658" fill="#b09658" fill-opacity="0.2" fill-rule="evenodd"/><path class="svg-region-DV" d="M 219.474 626.588 C 218.938 626.718, 217.319 627.084, 215.877 627.400 C 214.272 627.751, 212.801 629.048, 212.090 630.737 C 211.451 632.257, 209.481 635.115, 207.714 637.089 C 205.946 639.063, 203.200 643.563, 201.612 647.089 C 200.024 650.615, 198.224 654.581, 197.612 655.901 C 196.878 657.486, 196.547 666.670, 196.640 682.901 C 196.786 708.747, 197.736 722.611, 200.553 740 C 201.488 745.775, 202.171 753.237, 202.071 756.581 C 201.864 763.475, 203.403 765.925, 206.799 764.108 C 209.441 762.694, 215 756.235, 215 754.580 C 215 753.837, 215.672 751.940, 216.494 750.364 C 217.315 748.789, 217.990 746.683, 217.994 745.684 C 217.997 744.686, 218.459 743.010, 219.021 741.961 C 219.582 740.912, 220.484 737.679, 221.024 734.777 C 222.763 725.432, 223.475 724.499, 231.542 720.982 C 237.228 718.503, 239.716 717.912, 242.370 718.410 C 245.186 718.938, 246.633 718.505, 250.281 716.043 C 254.743 713.032, 255.978 711.011, 257.942 703.500 C 260.279 694.569, 258.568 673.994, 254.889 666.783 C 253.443 663.948, 252.936 661.515, 253.271 659.018 C 253.539 657.019, 253.187 652.343, 252.489 648.627 C 251.400 642.834, 250.670 641.370, 247.360 638.345 C 242.923 634.290, 232.065 629.003, 228.157 628.994 C 226.696 628.990, 224.363 628.394, 222.974 627.669 C 221.584 626.944, 220.009 626.458, 219.474 626.588" stroke="#45567a" fill="#45567a" fill-opacity="0.2" fill-rule="evenodd"/><path class="svg-region-VV" d="M 262.500 748.181 C 259.750 749.276, 254.912 751.097, 251.750 752.229 C 248.588 753.360, 246 754.671, 246 755.143 C 246 755.614, 245.041 756, 243.868 756 C 242.695 756, 240.181 756.961, 238.280 758.136 C 234.413 760.526, 234.392 760.493, 242.500 764.633 C 245.250 766.037, 250.875 770.644, 255 774.872 C 276.100 796.496, 290.920 802.939, 313.039 800.102 C 317.974 799.470, 323.022 798.564, 324.256 798.091 C 325.490 797.617, 329.200 796.476, 332.500 795.556 C 342.969 792.637, 343.746 792.166, 344.471 788.305 C 345.190 784.471, 344.876 784.024, 337.711 778.670 C 335.629 777.114, 332.814 774.081, 331.457 771.931 C 330.058 769.715, 327.528 767.412, 325.617 766.613 C 323.762 765.838, 321.923 764.684, 321.530 764.049 C 320.445 762.292, 304.284 752.071, 297.500 748.850 C 291.889 746.186, 290.722 746.008, 279.500 746.096 C 270.020 746.171, 266.450 746.608, 262.500 748.181" stroke="#7699d1" fill="#7699d1" fill-opacity="0.2" fill-rule="evenodd"/><path class="svg-region-B" d="M 829.732 457.536 C 827.679 458.931, 826 460.489, 826 460.998 C 826 461.508, 823.473 464.754, 820.386 468.212 C 815.464 473.724, 796.590 500.930, 794.864 505 C 794.214 506.532, 791.353 509.604, 786.557 513.918 C 785.079 515.248, 782.979 518.080, 781.891 520.213 C 780.803 522.345, 778.439 525.757, 776.638 527.795 C 774.837 529.833, 772.430 533.075, 771.291 535 C 766.925 542.374, 756.240 563.681, 754.992 567.500 C 753.341 572.552, 749.874 577.971, 748.282 577.988 C 747.612 577.994, 746.487 579.044, 745.782 580.319 C 742.232 586.741, 735.059 593.902, 728 598.071 C 718.220 603.846, 717.890 605.552, 724.916 613.995 C 727.689 617.327, 730.426 620.927, 730.997 621.994 C 733.277 626.255, 735.976 636.779, 735.998 641.500 C 736.011 644.250, 736.674 648.648, 737.470 651.274 C 738.267 653.900, 738.680 656.672, 738.387 657.434 C 738.095 658.196, 738.563 660.188, 739.428 661.860 C 740.292 663.532, 741 667.152, 741 669.903 C 741 672.655, 741.403 675.940, 741.896 677.203 C 742.389 678.466, 743.352 681.387, 744.037 683.692 C 744.722 685.998, 746.231 688.771, 747.391 689.853 C 748.551 690.936, 754 697.006, 759.500 703.341 C 769.991 715.424, 776.363 720, 782.700 720 C 785.406 720, 793.426 724.692, 795.128 727.273 C 795.474 727.796, 799.058 731.602, 803.093 735.730 L 810.429 743.235 815.719 742.690 C 819.810 742.267, 822.311 742.661, 826.754 744.425 C 829.914 745.680, 836.894 747.758, 842.264 749.043 C 851.293 751.203, 852.725 751.292, 861.264 750.219 C 876.932 748.250, 887.010 745.599, 896 741.082 C 908.725 734.687, 915.365 729.125, 919.165 721.676 C 921.484 717.131, 921.496 717.911, 918.582 682 C 917.108 663.834, 917.301 657.255, 919.806 640.365 C 921.136 631.393, 920.475 613.813, 918.676 610.338 C 916.951 607.004, 912.528 603, 910.571 603 C 908.862 603, 902 593.613, 902 591.276 C 902 590.173, 901.145 588.183, 900.100 586.854 C 898.768 585.161, 897.864 581.455, 897.079 574.469 C 896.463 568.986, 895.103 561.575, 894.057 558 C 893.011 554.425, 891.722 549.700, 891.193 547.500 C 890.663 545.300, 888.549 539.675, 886.495 535 C 884.440 530.325, 881.009 522, 878.870 516.500 C 876.731 511, 874.357 505.150, 873.596 503.500 C 872.834 501.850, 871.078 497.350, 869.693 493.500 C 861.512 470.760, 854.790 459.628, 847.282 456.389 C 841.933 454.081, 834.060 454.595, 829.732 457.536" stroke="#e23b33" fill="#e23b33" fill-opacity="0.2" fill-rule="evenodd"/><path class="svg-region-VOC" d="M 504.310 498.250 C 496.364 505.370, 493.405 508.846, 490.644 514.302 C 487.374 520.766, 487.369 521.634, 490.580 526.550 C 494.735 532.912, 506.751 541, 512.050 541 C 513.058 541, 514.160 541.450, 514.500 542 C 516.214 544.774, 526.848 541.602, 527.158 538.224 C 527.503 534.478, 526.843 532.441, 524.660 530.514 C 522.961 529.014, 521.659 525.440, 519.552 516.500 C 513.684 491.602, 512.848 490.600, 504.310 498.250" stroke="#ff8f93" fill="#ff8f93" fill-opacity="0.2" fill-rule="evenodd"/><path class="svg-region-OABr" d="M 638.924 436.629 C 637.591 438.075, 635.091 439.858, 633.370 440.592 C 630.112 441.981, 626.348 445.903, 623.288 451.099 C 622.304 452.768, 619.190 455.456, 616.367 457.073 C 609.729 460.875, 609.003 461.844, 608.029 468.198 C 606.892 475.619, 603.552 483.813, 600.187 487.432 C 593.879 494.219, 593 496.003, 593 502.028 C 593 508.236, 593.650 509, 598.927 509 C 602.630 509, 604.621 506.554, 606.365 499.859 C 607.853 494.143, 611.340 486.500, 613.366 484.513 C 613.990 483.900, 617.023 481.543, 620.108 479.273 C 626.266 474.742, 630.771 469.511, 633.463 463.766 C 634.425 461.712, 636.741 459.087, 638.608 457.933 C 642.245 455.686, 643.013 453.801, 642.861 447.500 C 642.808 445.300, 643.101 441.363, 643.512 438.750 C 644.400 433.112, 642.835 432.388, 638.924 436.629" stroke="#81244d" fill="#81244d" fill-opacity="0.2" fill-rule="evenodd"/><path class="svg-region-SOTr" d="M 515.500 434.274 C 514.400 434.939, 511.755 435.937, 509.623 436.492 C 505.825 437.479, 505.693 437.671, 503.182 445.836 C 501.225 452.201, 500.878 454.565, 501.716 455.836 C 502.320 456.751, 503.324 457.381, 503.947 457.236 C 505.929 456.776, 509 459.003, 509 460.900 C 509 461.907, 509.846 463.805, 510.879 465.120 C 511.913 466.434, 512.930 468.407, 513.140 469.504 C 513.670 472.285, 516.994 472.483, 522.184 470.043 C 527.897 467.358, 530 463.722, 530 456.530 C 530 449.721, 528.974 447.535, 525.153 446.203 C 522.699 445.348, 522.051 444.326, 520.854 439.422 C 519.327 433.166, 518.557 432.425, 515.500 434.274" stroke="#995b45" fill="#995b45" fill-opacity="0.2" fill-rule="evenodd"/><path class="svg-region-BPCr" d="M 679 686 C 679 686.550, 678.349 687, 677.553 687 C 676.272 687, 674.295 687.965, 664 693.616 C 662.625 694.370, 660.087 694.990, 658.359 694.994 C 656.632 694.997, 653.342 695.840, 651.048 696.867 C 647.238 698.573, 647.077 698.788, 649.188 699.354 C 650.460 699.694, 653.750 699.984, 656.500 699.997 C 667.044 700.049, 668.662 700.740, 671.969 706.599 C 675.915 713.592, 678.701 715.403, 684.237 714.575 C 696.438 712.748, 696.463 712.749, 698.425 714.918 C 699.462 716.063, 700.845 717, 701.500 717 C 702.155 717, 703.547 717.952, 704.595 719.116 C 707.085 721.882, 715.987 726.979, 718.349 726.991 C 719.366 726.996, 721.616 727.646, 723.349 728.436 C 727.507 730.331, 733.879 731.987, 737.037 731.994 C 738.433 731.997, 745.633 734.688, 753.037 737.974 C 766.047 743.747, 766.789 743.949, 775.090 743.974 C 780.488 743.990, 786.586 743.257, 791.500 742 C 795.801 740.900, 801.125 740, 803.331 740 L 807.343 740 800.921 733.203 C 793.126 724.953, 786.350 720, 782.856 720 C 777.112 720, 771.250 716.107, 762.120 706.227 C 757.176 700.877, 751.749 694.587, 750.059 692.250 C 748.370 689.913, 746.653 687.967, 746.244 687.928 C 745.835 687.888, 743.925 687.688, 742 687.483 C 725.722 685.753, 720.435 685.494, 719.819 686.396 C 718.767 687.939, 694.766 687.799, 694.249 686.247 C 693.737 684.711, 679 684.471, 679 686" stroke="#83385f" fill="#83385f" fill-opacity="0.2" fill-rule="evenodd"/><path class="svg-region-VSr" d="M 234 719.466 C 232.625 720.171, 229.825 721.544, 227.778 722.516 C 223.837 724.389, 221.823 728.245, 220.474 736.500 C 220.115 738.700, 219.468 740.950, 219.036 741.500 C 218.604 742.050, 218.021 743.850, 217.740 745.500 C 216.487 752.853, 212.040 760.617, 207.304 763.720 C 204.870 765.315, 204.661 765.300, 203.121 763.415 C 201.549 761.491, 201.355 761.629, 196.709 767.965 C 186.375 782.059, 168.687 810.012, 163.967 819.709 C 158.351 831.244, 156.558 838.049, 157.247 845.217 C 157.928 852.311, 160.653 855.523, 165.895 855.413 C 173.777 855.246, 179.202 847.183, 185.013 827 C 187.135 819.629, 199.248 793.536, 201.958 790.500 C 202.939 789.400, 205.435 786.025, 207.503 783 C 212.013 776.405, 219.944 769.152, 225.240 766.781 C 227.358 765.833, 231.398 764.751, 234.218 764.377 C 239.281 763.705, 239.317 763.675, 237.189 761.952 L 235.035 760.207 237.413 758.649 C 238.721 757.792, 241.076 756.776, 242.646 756.391 C 244.216 756.007, 245.725 755.424, 246 755.095 C 246.422 754.591, 255.518 750.865, 266.250 746.799 C 270.529 745.178, 269.397 741.612, 263.499 738.132 C 260.560 736.398, 258.949 736.141, 254.165 736.641 C 248.535 737.229, 248.310 737.157, 245.574 733.906 C 243.099 730.964, 242.823 729.969, 243.252 725.534 C 243.519 722.765, 243.535 719.938, 243.286 719.250 C 242.711 717.662, 237.269 717.788, 234 719.466" stroke="#959faf" fill="#959faf" fill-opacity="0.2" fill-rule="evenodd"/>
    </svg>