<svg xmlns="http://www.w3.org/2000/svg" width="1078" height="1151" viewBox="0 0 1078 1151" version="1.1">
    <path class="svg-region-V" d="M 465.500 196.112 C 462.750 197.261, 458.097 199.315, 455.160 200.676 C 452.223 202.037, 447.892 203.730, 445.536 204.439 C 439.852 206.150, 419.334 219.829, 414.363 225.222 C 412.194 227.575, 409.344 231.750, 408.029 234.500 C 406.714 237.250, 405.342 239.725, 404.981 240 C 404.620 240.275, 400.374 248.150, 395.545 257.500 C 390.717 266.850, 386.432 274.950, 386.024 275.500 C 385.615 276.050, 384.460 278.750, 383.456 281.500 C 382.452 284.250, 380.426 288.300, 378.953 290.500 C 377.479 292.700, 375.961 295.501, 375.577 296.725 C 374.704 299.514, 367.676 310.225, 363.302 315.430 C 361.486 317.591, 360 320.122, 360 321.053 C 360 323.258, 356.110 332.033, 354.353 333.790 C 352.068 336.075, 351.238 338.209, 348.476 348.907 C 346.516 356.497, 345.971 360.541, 346.396 364.346 C 346.713 367.181, 347.043 370.400, 347.128 371.500 C 347.467 375.850, 350.101 387.416, 351 388.500 C 351.525 389.132, 352.639 392.908, 353.477 396.891 C 354.315 400.873, 355.450 404.973, 356 406 C 356.550 407.028, 357 409.293, 357 411.033 C 357 413.204, 357.881 415.030, 359.807 416.849 C 361.350 418.307, 364.009 422.499, 365.715 426.166 C 367.420 429.832, 369.742 433.327, 370.874 433.933 C 373.463 435.318, 380.271 434.335, 385.205 431.862 C 387.617 430.653, 391.628 429.900, 396.705 429.703 C 403.090 429.454, 405.480 428.866, 409.921 426.450 C 420.596 420.641, 425.418 409.817, 423.013 397.069 C 422.284 393.205, 421.964 387.639, 422.289 384.485 C 422.880 378.767, 427.304 368.203, 431.498 362.500 C 432.712 360.850, 433.995 358.677, 434.351 357.671 C 437.607 348.463, 466.313 315.239, 474.070 311.700 C 486.590 305.988, 496.888 305.502, 511.316 309.943 C 524.610 314.035, 536.011 320.276, 542.682 327.112 C 550.005 334.617, 554.952 337, 563.210 337 C 571.937 337, 575.057 335.741, 577.676 331.164 C 578.873 329.073, 582.971 324.018, 586.784 319.931 C 590.596 315.844, 594.055 311.375, 594.470 310 C 594.885 308.625, 596.264 306.375, 597.535 305 C 598.806 303.625, 600.578 300.700, 601.474 298.500 C 602.605 295.721, 604.950 293.126, 609.156 290 C 612.486 287.525, 615.613 284.458, 616.105 283.185 C 617.258 280.202, 617.254 275.667, 616.097 274.450 C 615.600 273.927, 614.219 269.900, 613.028 265.500 C 611.836 261.100, 610.134 255.475, 609.244 253 C 607.615 248.466, 601.494 241.671, 594.222 236.321 C 592.175 234.815, 588.009 231.315, 584.964 228.542 C 569.163 214.152, 568.148 213.439, 552.500 205.748 C 549.750 204.396, 543.675 201.312, 539 198.895 L 530.500 194.500 500.500 194.261 C 472.033 194.034, 470.244 194.128, 465.500 196.112" stroke="#dd8a8a" fill="#dd8a8a" fill-opacity="0.2" fill-rule="evenodd"/><path class="svg-region-SV" d="M 480.116 309.009 C 477.155 310.074, 473.780 311.572, 472.616 312.337 C 469.591 314.327, 457.485 326.379, 450.825 334.030 C 445.027 340.692, 434 356.635, 434 358.356 C 434 358.882, 432.964 360.704, 431.697 362.406 C 427.960 367.428, 425.395 372.296, 423.535 377.895 C 421.801 383.114, 421.812 388.522, 423.580 402.124 C 424.046 405.706, 423.631 408.111, 421.738 412.796 L 419.295 418.844 421.398 419.408 C 422.554 419.719, 426.001 419.979, 429.059 419.986 C 432.379 419.995, 435.399 420.591, 436.559 421.468 C 437.626 422.276, 440.314 422.951, 442.532 422.968 C 444.750 422.986, 449.025 423.687, 452.032 424.526 C 455.039 425.365, 460.405 426.274, 463.956 426.545 C 467.506 426.817, 471.331 427.637, 472.456 428.368 C 473.580 429.099, 476.300 430.286, 478.500 431.006 C 480.700 431.725, 484.769 433.988, 487.541 436.035 C 490.314 438.081, 494.884 440.921, 497.696 442.346 L 502.810 444.937 508.655 442.551 C 511.870 441.239, 515.850 439.456, 517.500 438.589 C 519.150 437.722, 521.218 437.010, 522.095 437.006 C 522.972 437.003, 524.505 436.100, 525.500 435 C 526.495 433.900, 527.899 433, 528.620 433 C 529.340 433, 530.455 431.988, 531.097 430.750 C 531.739 429.512, 533.832 426.561, 535.748 424.190 C 539.787 419.194, 542.188 412.223, 541.856 406.459 C 541.559 401.296, 542.242 400.281, 546.851 399.040 C 549.712 398.270, 551.024 397.174, 552.309 394.479 C 553.239 392.528, 554 389.935, 554 388.716 C 554 387.497, 554.667 383.349, 555.483 379.500 C 557.486 370.040, 557.444 358.759, 555.390 354.787 C 553.043 350.249, 553.923 341.290, 556.957 338.834 C 558.347 337.708, 558.690 337, 557.846 337 C 554.914 337, 548.259 332.586, 542.984 327.142 C 539.950 324.011, 535.675 320.607, 533.484 319.577 C 531.293 318.547, 529.275 317.416, 529 317.063 C 527.995 315.773, 516.302 311.127, 508.936 309.091 C 499.140 306.383, 487.509 306.349, 480.116 309.009" stroke="#c666b5" fill="#c666b5" fill-opacity="0.2" fill-rule="evenodd"/><path class="svg-region-SF" d="M 617 278.453 C 617 282.569, 615.102 285.301, 608.978 290 C 604.874 293.149, 602.508 295.879, 601.096 299.095 C 599.986 301.623, 598.359 304.287, 597.481 305.016 C 596.603 305.745, 595.241 307.881, 594.455 309.763 C 593.668 311.645, 589.959 316.468, 586.211 320.481 C 578.023 329.249, 573.913 336.648, 569.975 349.708 C 566.590 360.936, 566.113 370.498, 568.485 379.604 C 570.640 387.878, 574.265 392.815, 582 398.012 C 583.925 399.306, 587.372 402.054, 589.659 404.119 C 596.891 410.648, 606.936 411.569, 614.551 406.401 C 616.574 405.028, 620.420 403.489, 623.097 402.982 C 635.471 400.635, 643.912 392.469, 649.436 377.500 C 650.451 374.750, 651.690 371.977, 652.190 371.338 C 652.690 370.699, 654.652 365.334, 656.550 359.416 C 659.435 350.420, 660 347.177, 660 339.626 C 660 331.719, 659.491 329.070, 655.910 318.349 C 651.292 304.521, 643.935 290.866, 637.702 284.552 C 634.385 281.193, 632.516 280.149, 628.832 279.599 C 626.264 279.216, 623.622 278.249, 622.959 277.451 C 622.297 276.653, 620.685 276, 619.378 276 C 617.520 276, 617 276.537, 617 278.453" stroke="#8c6b55" fill="#8c6b55" fill-opacity="0.2" fill-rule="evenodd"/><path class="svg-region-PF" d="M 564.586 336.985 C 555.781 337.878, 553.986 339.728, 554.032 347.861 C 554.051 351.226, 554.656 354.283, 555.532 355.441 C 556.479 356.694, 556.996 359.708, 556.990 363.941 C 556.978 371.106, 553.638 391.939, 552.014 394.973 C 550.543 397.723, 550.771 406.517, 552.416 410.454 C 553.196 412.319, 555.108 414.635, 556.666 415.602 C 558.225 416.569, 560.948 418.703, 562.718 420.345 C 567.772 425.033, 574.375 425.164, 584.004 420.765 C 590.836 417.645, 598 412.130, 598 409.990 C 598 409.520, 597.034 408.828, 595.854 408.454 C 594.674 408.079, 591.862 406.120, 589.604 404.101 C 587.347 402.081, 583.763 399.146, 581.640 397.579 C 574.521 392.325, 571.116 387.827, 569.008 380.892 C 565.855 370.517, 566.275 361.327, 570.493 348.451 C 573.684 338.710, 574.092 335.751, 572.191 336.142 C 571.811 336.220, 568.389 336.600, 564.586 336.985" stroke="#faaaaa" fill="#faaaaa" fill-opacity="0.2" fill-rule="evenodd"/><path class="svg-region-AAB" d="M 646.446 420.750 C 644.439 422.813, 641.975 426.105, 640.971 428.067 C 639.967 430.029, 638.443 432.217, 637.584 432.930 C 636.725 433.643, 636.272 434.632, 636.579 435.127 C 636.885 435.623, 634.249 440.184, 630.722 445.264 C 627.194 450.344, 620.578 459.900, 616.019 466.500 C 607.212 479.250, 586.192 507.585, 582.005 512.351 C 580.627 513.919, 576.663 517.433, 573.196 520.160 C 569.728 522.888, 566.628 525.880, 566.305 526.809 C 565.005 530.556, 556.558 537.986, 551.802 539.566 C 547.356 541.043, 543.996 544.018, 544.003 546.473 C 544.005 547.065, 547.288 547.610, 551.753 547.760 C 556.014 547.902, 561.675 548.739, 564.334 549.618 C 569.438 551.306, 578.687 551.107, 586.500 549.141 C 592.040 547.748, 607.074 542.161, 609.500 540.595 C 610.600 539.885, 615.775 537.700, 621 535.739 C 636.382 529.967, 639.280 528.445, 643.614 523.856 C 648.522 518.659, 658.998 503.648, 659.004 501.803 C 659.007 501.086, 660.355 498.475, 662 496 C 663.645 493.525, 664.993 490.753, 664.996 489.839 C 664.998 488.925, 665.896 485.775, 666.992 482.839 C 669.922 474.983, 672.749 457.317, 671.846 452.500 C 671.433 450.300, 670.601 445.597, 669.997 442.048 C 668.653 434.166, 662.847 422.748, 658.494 419.427 C 653.934 415.949, 650.782 416.295, 646.446 420.750" stroke="#7f3c1a" fill="#7f3c1a" fill-opacity="0.2" fill-rule="evenodd"/><path class="svg-region-APB" d="M 628 401.563 C 626.075 402.291, 623.481 402.913, 622.235 402.944 C 620.989 402.975, 617.418 404.440, 614.298 406.201 C 609.969 408.644, 607.379 409.413, 603.350 409.451 C 598.885 409.492, 597.882 409.856, 596.833 411.814 C 595.095 415.059, 586.999 420.781, 581.492 422.658 C 573.162 425.496, 559.533 439.996, 554.543 451.329 C 553.291 454.173, 551.082 461.571, 549.633 467.769 C 546.142 482.710, 545.839 503.925, 548.999 512.239 C 550.099 515.133, 550.999 519.892, 550.999 522.815 C 551 527.784, 554.304 538, 555.911 538 C 556.958 538, 565.713 528.665, 566.207 527.022 C 566.452 526.209, 569.993 522.801, 574.076 519.448 C 581.540 513.320, 583.299 511.311, 596.201 494.163 C 601.362 487.305, 602.931 484.531, 602.113 483.713 C 600.552 482.152, 600.725 476.418, 602.384 474.759 C 603.145 473.997, 604.672 471.603, 605.778 469.437 C 606.883 467.272, 608.751 464.628, 609.930 463.562 C 611.108 462.496, 612.894 459.796, 613.899 457.562 C 616.240 452.355, 626.637 441, 629.064 441 C 630.085 441, 631.366 440.438, 631.910 439.750 C 632.454 439.063, 634.391 436.700, 636.214 434.500 C 638.037 432.300, 641.234 427.957, 643.318 424.849 C 646.858 419.569, 649.629 417.570, 654.478 416.797 C 656.017 416.551, 654.574 414.910, 647.978 409.405 C 635.820 399.258, 634.972 398.925, 628 401.563" stroke="#ac7444" fill="#ac7444" fill-opacity="0.2" fill-rule="evenodd"/><path class="svg-region-PC" d="M 546.299 399.106 C 542.266 400.273, 541.566 401.430, 541.856 406.459 C 542.350 415.032, 537.385 424.349, 527.658 433.103 L 523.654 436.706 525.798 439.717 C 526.977 441.373, 528.179 444.608, 528.467 446.906 C 528.756 449.204, 529.656 452.368, 530.468 453.937 C 534.360 461.465, 532.911 469.791, 526.972 474.020 C 523.738 476.323, 517.670 476.577, 514.030 474.562 C 511.652 473.245, 511.460 473.368, 508.903 477.847 C 506.670 481.757, 506.326 483.339, 506.750 487.750 C 507.033 490.695, 507.752 493, 508.387 493 C 510.831 493, 513.826 500.848, 515.978 512.888 C 516.507 515.852, 517.556 519.002, 518.309 519.888 C 519.062 520.775, 520.204 525.100, 520.846 529.500 C 522.466 540.603, 522.369 543, 520.300 543 C 517.489 543, 520.140 544.613, 525 545.860 C 527.475 546.495, 532.633 547.124, 536.461 547.257 C 543.208 547.493, 543.465 547.413, 544.802 544.676 C 545.669 542.900, 547.855 541.134, 550.694 539.917 C 554.298 538.372, 555.058 537.631, 554.469 536.241 C 551.890 530.163, 551.083 526.924, 551.043 522.500 C 551.019 519.750, 550.099 515.133, 548.999 512.239 C 547.349 507.896, 547 504.557, 547 493.093 C 547 481.206, 547.414 477.502, 549.879 467.354 C 554.435 448.597, 558.609 441.133, 570.905 429.748 L 577.114 424 572.807 423.985 C 567.909 423.968, 566.373 423.216, 558.874 417.160 C 552.638 412.124, 551.107 409.307, 551.045 402.750 C 551.020 400.137, 550.663 398.041, 550.250 398.090 C 549.837 398.140, 548.060 398.597, 546.299 399.106" stroke="#cda789" fill="#cda789" fill-opacity="0.2" fill-rule="evenodd"/><path class="svg-region-DB" d="M 416.578 421.522 C 413.866 425.661, 404.405 429.475, 396.349 429.678 C 391.561 429.799, 387.926 430.499, 385.349 431.798 C 383.232 432.864, 379.358 434.050, 376.739 434.432 C 372.396 435.065, 371.981 435.362, 372.019 437.813 C 372.041 439.291, 371.778 441.912, 371.433 443.637 C 370.490 448.357, 373.082 451.342, 381.665 455.418 L 389.208 459 404.045 459 C 412.858 459, 419.133 458.594, 419.500 458 C 420.259 456.771, 425.678 456.670, 426.420 457.871 C 426.716 458.350, 428.363 459.023, 430.079 459.366 C 433.307 460.011, 436.971 462.582, 443 468.431 C 446.208 471.543, 447.628 472.044, 460 474.421 C 467.425 475.847, 476.650 477.442, 480.500 477.965 C 488.955 479.113, 498.241 480.557, 503.027 481.468 C 506.362 482.102, 506.677 481.920, 508.822 478.103 C 510.980 474.263, 511.009 473.944, 509.417 471.514 C 507.851 469.124, 507.853 468.674, 509.442 464.514 C 511.772 458.411, 511.203 455.034, 507.500 453 C 505.372 451.831, 504.413 450.482, 504.200 448.360 C 503.947 445.833, 503.041 444.946, 498.367 442.654 C 495.324 441.161, 490.508 438.223, 487.667 436.124 C 484.825 434.026, 480.700 431.696, 478.500 430.947 C 476.300 430.199, 473.825 429.039, 473 428.370 C 472.175 427.701, 468.575 426.927, 465 426.650 C 461.425 426.373, 455.818 425.438, 452.540 424.573 C 449.262 423.708, 444.797 423, 442.619 423 C 440.440 423, 437.947 422.382, 437.079 421.626 C 436.123 420.794, 432.066 420.050, 426.791 419.739 C 418.533 419.253, 418.004 419.345, 416.578 421.522" stroke="#e8b1e4" fill="#e8b1e4" fill-opacity="0.2" fill-rule="evenodd"/><path class="svg-region-MB" d="M 376 454.040 C 376 454.612, 376.900 456.844, 378 459 C 379.100 461.156, 380 463.523, 380 464.260 C 380 464.997, 380.550 466.150, 381.222 466.822 C 381.894 467.494, 383.432 471.522, 384.638 475.772 C 391.304 499.255, 409.430 529.320, 422.028 537.788 C 424.719 539.596, 432.369 542.846, 439.028 545.009 L 451.137 548.943 480.447 548.694 C 511.725 548.430, 513 548.226, 513 543.486 C 513 541.859, 512.242 541.026, 510.319 540.544 C 507.571 539.854, 493.253 528.629, 489.286 524.054 C 485.358 519.524, 486.617 509.116, 491.906 502.393 C 494.158 499.529, 499.102 496.008, 503.773 493.940 C 506.383 492.785, 506.997 491.937, 506.986 489.506 C 506.958 483.232, 506.147 482.164, 500.646 481.157 C 493.054 479.767, 483.115 478.153, 478 477.480 C 475.525 477.154, 467.425 475.759, 460 474.379 C 447.527 472.061, 446.272 471.624, 443.500 468.629 C 439.173 463.953, 433.953 460.264, 430.500 459.440 C 428.850 459.046, 426.942 458.285, 426.259 457.747 C 425.557 457.194, 423.604 457.094, 421.759 457.517 C 419.967 457.928, 411.894 458.452, 403.819 458.681 L 389.139 459.099 383.098 456.049 C 376.390 452.663, 376 452.553, 376 454.040" stroke="#f9c6c6" fill="#f9c6c6" fill-opacity="0.2" fill-rule="evenodd"/><path class="svg-region-AP" d="M 557.500 596 C 557.160 596.550, 557.215 597.539, 557.622 598.197 C 558.029 598.856, 558.455 617.193, 558.568 638.947 C 558.769 677.505, 558.833 678.663, 561.092 685 C 563.128 690.709, 563.428 693.509, 563.555 708 C 563.635 717.075, 564.172 726.300, 564.749 728.500 C 565.326 730.700, 566.297 734.944, 566.907 737.930 C 567.518 740.917, 568.688 744.103, 569.508 745.009 C 570.329 745.916, 571.002 747.072, 571.005 747.579 C 571.007 748.085, 572.245 749.853, 573.755 751.506 C 575.265 753.159, 578.652 757.209, 581.281 760.506 C 583.911 763.803, 587.631 768.169, 589.548 770.209 C 591.465 772.249, 593.307 775.286, 593.642 776.959 C 594.340 780.451, 595.518 780.661, 601.916 778.433 C 605.601 777.150, 607.423 777.086, 612.916 778.047 C 626.663 780.452, 630.894 780.833, 644.500 780.889 C 656.595 780.940, 660.201 780.549, 671 778.020 C 686.060 774.493, 701.329 769.936, 705.700 767.664 C 707.461 766.749, 709.993 766, 711.328 766 C 712.663 766, 715.475 765.282, 717.576 764.404 C 721.386 762.812, 721.390 762.803, 719.243 761.154 C 717.959 760.167, 716.650 757.483, 715.998 754.500 C 715.397 751.750, 714.072 747.700, 713.052 745.500 C 710.596 740.200, 709.503 736.281, 707.471 725.500 C 705.064 712.726, 701.205 700.796, 698.819 698.750 C 697.697 697.788, 695.227 697, 693.330 697 C 691.150 697, 690.124 696.609, 690.539 695.937 C 690.900 695.352, 690.433 694.031, 689.500 693 C 686.917 690.146, 688.519 689, 695.091 689 C 698.376 689, 702.677 688.326, 704.649 687.502 L 708.233 686.005 703.439 682.752 C 697.164 678.495, 694.128 671.114, 694.052 659.932 C 693.982 649.796, 691.071 638.984, 687.235 634.614 C 685.583 632.733, 684.067 630.704, 683.866 630.105 C 683.638 629.429, 681.639 629.959, 678.581 631.508 C 671.987 634.848, 669.606 634.661, 663.286 630.308 C 658.534 627.035, 654.641 625.166, 648.701 623.305 C 647.711 622.995, 645.162 623.525, 643.036 624.484 C 639.062 626.276, 635.265 626.200, 627.609 624.176 C 622.532 622.834, 620.935 621.111, 619.994 615.966 C 619.219 611.729, 621.216 604.730, 624.685 599.527 C 627.727 594.965, 627.979 595, 592.059 595 C 570.510 595, 557.892 595.365, 557.500 596" stroke="#fc7143" fill="#fc7143" fill-opacity="0.2" fill-rule="evenodd"/><path class="svg-region-PP" d="M 483 594.703 C 479.395 595.374, 462.683 601.046, 461.500 602 C 460.151 603.087, 448.315 606.410, 438.500 608.456 C 434.100 609.374, 428.700 610.556, 426.500 611.084 C 424.300 611.611, 419.654 612.486, 416.175 613.028 C 412.696 613.570, 407.296 615.359, 404.175 617.004 C 400.910 618.725, 396.964 619.997, 394.885 619.998 C 392.744 619.999, 390.195 620.845, 388.635 622.073 C 386.067 624.092, 386 624.432, 386 635.400 C 386 644.991, 386.357 647.533, 388.414 652.596 C 389.742 655.864, 391.338 661.454, 391.961 665.019 C 393.172 671.950, 397.362 685.551, 399.617 689.873 C 400.371 691.318, 400.981 693.175, 400.973 694 C 400.965 694.825, 402.430 699.046, 404.229 703.380 C 407.307 710.796, 408.533 712.321, 425 729.214 C 444.696 749.420, 454.651 757.642, 467.009 763.910 C 471.679 766.278, 476.625 768.826, 478 769.572 C 490.719 776.468, 498.363 778.646, 501.846 776.364 C 504.098 774.889, 504.164 774.501, 503.477 766.737 C 502.999 761.344, 501.800 756.391, 499.880 751.878 C 496.764 744.555, 495.940 735.123, 498.250 733.209 C 499.321 732.322, 507.380 731.389, 518.500 730.867 C 520.150 730.789, 527.125 731.264, 534 731.923 C 546.067 733.078, 546.876 733.306, 557.349 738.496 L 568.199 743.872 567.534 740.186 C 567.169 738.159, 565.979 732.900, 564.889 728.500 C 563.228 721.791, 563.010 718.563, 563.534 708.500 C 564.110 697.456, 563.944 695.703, 561.441 686.500 C 558.727 676.518, 558.722 676.431, 558.519 638.500 C 558.408 617.600, 557.971 599.263, 557.550 597.750 C 556.898 595.412, 556.237 594.990, 553.142 594.935 C 528.046 594.484, 484.939 594.342, 483 594.703" stroke="#c4743d" fill="#c4743d" fill-opacity="0.2" fill-rule="evenodd"/><path class="svg-region-LPr" d="M 624.775 598.804 C 620.985 605.220, 619.036 612.343, 619.962 616.391 C 621.073 621.244, 622.670 622.870, 627.609 624.176 C 635.257 626.198, 639.063 626.275, 643.022 624.490 C 646.698 622.832, 647.115 622.837, 652.187 624.593 C 655.109 625.605, 659.075 627.620, 661 629.072 C 665.868 632.742, 668.481 634, 671.238 634 C 673.968 634, 684 629.248, 684 627.955 C 684 627.479, 685.163 625.381, 686.584 623.294 C 688.561 620.391, 689.040 618.704, 688.624 616.109 C 688.325 614.245, 688.537 611.865, 689.095 610.822 C 689.654 609.778, 689.831 608.041, 689.488 606.962 C 688.971 605.335, 687.953 605, 683.514 605 C 680.570 605, 676.888 604.355, 675.331 603.567 C 671.471 601.613, 663.328 600.182, 652.124 599.489 C 646.968 599.170, 640.236 598.255, 637.164 597.455 C 628.894 595.300, 626.704 595.539, 624.775 598.804" stroke="#d2454f" fill="#d2454f" fill-opacity="0.2" fill-rule="evenodd"/><path class="svg-region-ADCr" d="M 692.837 605.773 C 690.357 606.280, 687.893 612.215, 688.631 615.903 C 689.107 618.286, 688.636 619.952, 686.627 622.988 C 682.939 628.560, 683.241 630.920, 688.344 636.426 C 691.343 639.662, 694 650.755, 694 660.040 C 694 669.373, 697.051 678.192, 701.410 681.457 C 709.249 687.329, 712.314 688.155, 724.326 687.634 C 730.472 687.368, 737.525 686.856, 740 686.496 C 743.789 685.946, 745.076 686.234, 748.143 688.319 C 752.506 691.284, 757.521 692.583, 758.499 691.002 C 759.567 689.273, 758.281 685.560, 755.694 682.907 C 752.007 679.125, 749.844 672.313, 749.003 661.831 C 748.576 656.512, 747.554 650.887, 746.731 649.331 C 745.908 647.774, 743.474 643.125, 741.321 639 C 736.182 629.154, 728.593 618.906, 724.942 616.882 C 723.336 615.992, 721.455 614.814, 720.761 614.265 C 717.552 611.723, 695.913 605.143, 692.837 605.773" stroke="#54413e" fill="#54413e" fill-opacity="0.2" fill-rule="evenodd"/><path class="svg-region-AVCr" d="M 701 700.565 C 701 700.788, 702.147 704.914, 703.548 709.735 C 704.949 714.556, 706.933 722.775, 707.955 728 C 709.706 736.944, 710.523 739.699, 714.330 749.500 C 715.185 751.700, 716.139 755.098, 716.450 757.052 C 716.911 759.945, 717.631 760.826, 720.329 761.802 C 724.634 763.359, 725.997 763.312, 727.951 761.544 C 729.548 760.099, 773.152 746.834, 784.750 744.265 C 785.987 743.991, 787 743.439, 787 743.038 C 787 741.913, 783.488 739, 782.131 739 C 781.465 739, 779.251 738.163, 777.210 737.139 C 775.170 736.116, 771.614 735.037, 769.309 734.742 C 765.351 734.236, 759.606 730.456, 751.040 722.721 C 741.811 714.390, 739.540 713.021, 734.917 713.011 C 732.396 713.005, 730.025 712.692, 729.648 712.315 C 728.555 711.221, 721.705 709.032, 719.327 709.015 C 718.131 709.007, 715.131 707.456, 712.660 705.570 C 708.838 702.653, 701 699.289, 701 700.565" stroke="#ffbab9" fill="#ffbab9" fill-opacity="0.2" fill-rule="evenodd"/><path class="svg-region-VMr" d="M 514.690 731.217 C 512.985 732.483, 513.058 732.721, 515.940 735.289 C 518.621 737.678, 519 738.667, 519 743.285 C 519 750.265, 520.554 752.219, 529.809 756.880 C 534.039 759.010, 540.200 762.271, 543.500 764.126 C 546.800 765.982, 550.799 768.172, 552.386 768.992 C 553.974 769.813, 555.705 771.725, 556.234 773.242 C 556.763 774.759, 557.602 776, 558.098 776 C 558.594 776, 559 776.689, 559 777.531 C 559 778.374, 559.658 779.315, 560.462 779.624 C 561.266 779.932, 562.176 780.979, 562.484 781.951 C 563.211 784.240, 569.410 786.926, 574.500 787.157 C 577.469 787.292, 580.304 786.358, 585.500 783.534 C 589.350 781.441, 592.902 779.364, 593.394 778.920 C 594.837 777.616, 592.310 772.829, 587.393 767.549 C 584.896 764.868, 581.659 761.060, 580.199 759.087 C 578.740 757.114, 576.302 754.182, 574.783 752.571 C 573.264 750.960, 571.767 748.841, 571.457 747.863 C 570.846 745.941, 559.586 738.830, 551.500 735.261 C 548.022 733.726, 542.846 732.731, 534.500 731.994 C 527.900 731.411, 521.150 730.696, 519.500 730.404 C 517.753 730.095, 515.744 730.435, 514.690 731.217" stroke="#e59376" fill="#e59376" fill-opacity="0.2" fill-rule="evenodd"/><path class="svg-region-PMr" d="M 258.015 714.544 C 255.549 715.895, 252.513 717, 251.268 717 C 250.024 717, 247.204 718.627, 245.003 720.616 C 241.534 723.751, 241 724.796, 241 728.461 C 241 731.237, 241.601 733.217, 242.750 734.224 C 248.514 739.278, 257.088 740.473, 261.925 736.897 C 263.489 735.741, 266.279 734.486, 268.124 734.108 C 272.149 733.285, 274.213 729.172, 272.210 725.965 C 271.545 724.899, 271 722.221, 271 720.014 C 271 715.410, 268.306 711.974, 264.750 712.044 C 263.512 712.069, 260.482 713.194, 258.015 714.544" stroke="#90cf92" fill="#90cf92" fill-opacity="0.2" fill-rule="evenodd"/><path class="svg-region-PV" d="M 321.500 594.948 L 310.500 595.500 309.998 601.809 C 309.583 607.022, 309.066 608.441, 307.024 609.982 C 304.554 611.845, 304.550 611.844, 301.163 608.356 C 297.792 604.885, 297.735 604.869, 291.136 605.503 C 287.486 605.854, 283.150 606.745, 281.500 607.483 C 279.850 608.221, 276.612 609.378, 274.304 610.055 C 270.828 611.073, 269.507 612.245, 266.598 616.892 C 262.483 623.464, 256.813 629.607, 254.054 630.483 C 252.352 631.023, 252.176 631.757, 252.658 636.301 C 252.961 639.160, 253.800 643.593, 254.521 646.152 C 256.130 651.854, 255.345 655.797, 251.266 662.500 C 249.593 665.250, 247.898 668.625, 247.499 670 C 247.101 671.375, 245.588 673.768, 244.138 675.317 C 241.562 678.067, 241.498 678.455, 241.428 691.817 C 241.365 703.926, 241.100 705.995, 239.129 709.807 C 236.933 714.052, 236.986 718, 239.239 718 C 239.846 718, 241.144 718.725, 242.123 719.611 C 243.767 721.099, 244.107 721.061, 246.586 719.111 C 248.062 717.950, 250.222 716.996, 251.385 716.991 C 252.548 716.986, 255.750 715.875, 258.500 714.522 C 264.615 711.514, 266.424 711.424, 269 714 C 270.400 715.400, 271 717.333, 271 720.441 C 271 722.884, 271.450 725.160, 272 725.500 C 273.408 726.370, 273.187 730.170, 271.608 732.250 C 270.877 733.212, 269.227 734, 267.940 734 C 266.120 734, 265.867 734.267, 266.800 735.200 C 267.460 735.860, 268 737.210, 268 738.200 C 268 740.303, 269.519 740.425, 277.083 738.928 C 281.375 738.079, 284.577 738.201, 292.500 739.519 C 298 740.433, 304.300 741.407, 306.500 741.683 C 308.700 741.959, 313.159 743.493, 316.410 745.092 C 319.660 746.692, 323.170 748, 324.209 748 C 326.838 748, 331.234 750.378, 340.100 756.596 C 346.274 760.926, 348 762.731, 349.296 766.213 C 351.384 771.824, 353.394 786.186, 352.694 790.499 C 352.153 793.833, 352.193 793.877, 354.819 792.879 C 356.292 792.319, 358.189 791.234, 359.035 790.469 C 359.881 789.703, 362.807 788.092, 365.537 786.888 C 368.266 785.685, 371.892 783.643, 373.594 782.350 C 375.296 781.058, 377.241 780, 377.916 780 C 378.591 780, 379.724 779.438, 380.434 778.750 C 381.144 778.063, 384.335 775.250, 387.525 772.500 C 395.287 765.808, 405 751.039, 405 745.928 C 405 743.708, 406.399 739.389, 408.485 735.168 C 410.401 731.290, 412.634 726.189, 413.446 723.832 C 414.852 719.750, 414.817 719.427, 412.711 717.032 C 411.495 715.649, 410.178 714.272, 409.785 713.971 C 408.527 713.010, 401.235 696.627, 400.488 693.082 C 399.550 688.634, 391.652 675.300, 388.474 672.801 C 387.113 671.731, 386 669.911, 386 668.757 C 386 667.603, 384.596 663.614, 382.881 659.892 C 380.210 654.099, 379.913 652.689, 380.815 650.102 C 381.646 647.716, 381.441 645.570, 379.841 639.916 C 378.644 635.684, 378.082 631.678, 378.470 630.126 C 380.269 622.918, 381.345 614.829, 381.318 608.705 C 381.292 602.609, 380.994 601.603, 378.422 598.919 C 374.639 594.970, 372.398 594.538, 365.745 596.472 C 360.451 598.011, 359.909 597.991, 354.128 596.043 C 347.789 593.908, 344.447 593.795, 321.500 594.948" stroke="#b09658" fill="#b09658" fill-opacity="0.2" fill-rule="evenodd"/><path class="svg-region-Fr" d="M 292.280 593.120 C 291.162 594.238, 289.760 594.617, 276.357 597.421 C 272.428 598.243, 267.511 600.071, 265.430 601.483 C 263.349 602.895, 260.488 604.322, 259.073 604.654 C 255.864 605.407, 249 609.117, 249 610.098 C 249 610.500, 246.863 612.196, 244.250 613.866 C 235.810 619.264, 235.581 619.546, 236.632 623.222 C 237.360 625.769, 238.230 626.616, 240.535 627.021 C 242.166 627.308, 245.140 628.381, 247.144 629.406 C 253.651 632.733, 258.142 629.937, 266.194 617.547 C 270.014 611.667, 273.788 609, 278.286 609 C 279.417 609, 281.053 608.381, 281.921 607.624 C 282.790 606.868, 286.713 605.945, 290.640 605.575 L 297.780 604.901 301.140 608.422 L 304.500 611.944 306.971 610.051 C 309.026 608.477, 309.535 607.038, 310 601.500 L 310.559 594.842 307.157 593.421 C 303.104 591.728, 293.860 591.540, 292.280 593.120" stroke="#5ca7a9" fill="#5ca7a9" fill-opacity="0.2" fill-rule="evenodd"/><path class="svg-region-DV" d="M 231.273 629.407 C 223.809 635.353, 212.500 641.927, 208.197 642.821 C 203.636 643.769, 200.830 648.284, 198.561 658.331 C 196.745 666.374, 196.459 687.603, 198.045 696.583 C 200.636 711.243, 201.207 713.883, 203.113 720 C 205.094 726.360, 205.258 733.990, 203.808 752.407 C 203.636 754.589, 203.979 756.477, 204.584 756.685 C 206.138 757.217, 218 742.435, 218 739.966 C 218 737.465, 220.703 732, 221.941 732 C 222.430 732, 224.530 729.638, 226.608 726.750 C 228.687 723.862, 232.134 719.560, 234.270 717.190 C 240.484 710.291, 241.315 707.344, 241.413 691.865 C 241.497 678.690, 241.585 678.144, 244.013 675.716 C 245.394 674.333, 247.147 671.483, 247.906 669.382 C 248.666 667.281, 250.525 663.524, 252.038 661.031 C 255.792 654.846, 256.402 651.187, 254.561 645.900 C 253.719 643.480, 253.023 639.849, 253.015 637.832 C 252.996 633.280, 252.166 631, 250.528 631 C 249.836 631, 248.126 630.100, 246.727 629 C 245.329 627.900, 242.883 627, 241.292 627 C 239.702 627, 237.972 626.604, 237.450 626.121 C 236.884 625.598, 234.386 626.927, 231.273 629.407" stroke="#45567a" fill="#45567a" fill-opacity="0.2" fill-rule="evenodd"/><path class="svg-region-VV" d="M 278.500 738.429 C 277.950 738.621, 274.972 739.297, 271.883 739.931 C 266.696 740.996, 266.127 741.392, 264.453 745.105 C 262.278 749.928, 258.396 753.387, 253.275 755.066 C 251.199 755.746, 248.600 756.861, 247.500 757.543 C 246.400 758.225, 243.399 759.079, 240.832 759.441 C 236.077 760.110, 233.310 762.075, 234.473 763.956 C 234.828 764.530, 236.048 765, 237.184 765 C 239.717 765, 251 769.963, 251 771.078 C 251 771.521, 253.709 773.327, 257.020 775.091 C 261.164 777.300, 265.502 780.991, 270.943 786.938 C 278.293 794.970, 279.434 795.805, 287.208 798.828 C 294.865 801.807, 296.617 802.098, 308.034 802.290 C 321.682 802.520, 337.595 800.585, 340.079 798.393 C 340.947 797.627, 342.598 797, 343.748 797 C 347.098 797, 352.001 793.714, 352.699 791.001 C 353.575 787.595, 351.386 771.004, 349.407 766.059 C 348.240 763.142, 345.976 760.697, 341.149 757.142 C 333.936 751.829, 326.981 748, 324.543 748 C 323.697 748, 320.148 746.650, 316.656 745 C 313.164 743.350, 309.149 742, 307.734 742 C 306.319 742, 302.538 741.356, 299.331 740.568 C 293.455 739.125, 280.354 737.780, 278.500 738.429" stroke="#7699d1" fill="#7699d1" fill-opacity="0.2" fill-rule="evenodd"/><path class="svg-region-B" d="M 813 468.926 C 809.425 469.262, 805.484 470.109, 804.242 470.808 C 798.247 474.182, 791.298 486.767, 780.981 512.935 C 776.667 523.879, 773.738 529.524, 768.494 537 C 766.759 539.475, 763.691 544.546, 761.678 548.268 C 759.665 551.990, 756.326 557.193, 754.259 559.830 C 752.192 562.467, 749.600 565.891, 748.500 567.438 C 747.400 568.985, 745.596 571.432, 744.492 572.876 C 740.526 578.060, 736.275 584.642, 731.583 592.868 L 726.810 601.237 727.155 609.975 L 727.500 618.713 733.043 626.106 C 736.092 630.173, 739.650 635.750, 740.950 638.500 C 742.249 641.250, 744.074 644.625, 745.004 646 C 747.438 649.597, 748.094 652.380, 748.895 662.500 C 749.811 674.075, 752.856 680.938, 760.141 687.845 C 774.436 701.399, 777.426 703.888, 782.488 706.450 C 785.691 708.070, 791.357 709.735, 796.220 710.485 C 800.774 711.188, 806.975 712.876, 810 714.236 C 813.025 715.597, 819.270 717.956, 823.879 719.480 C 831.004 721.836, 833.221 722.151, 838.699 721.590 C 848.654 720.570, 862.373 714.878, 874.195 706.862 C 877.327 704.738, 880.159 703, 880.488 703 C 880.817 703, 883.429 701.250, 886.293 699.110 C 889.157 696.971, 893.951 693.994, 896.946 692.494 C 904.953 688.485, 913.377 679.970, 917.513 671.701 C 919.431 667.868, 921 663.468, 921 661.925 C 921 660.381, 921.495 658.812, 922.099 658.439 C 922.704 658.065, 924.504 655.001, 926.099 651.630 C 928.683 646.166, 928.999 644.436, 928.999 635.708 C 929 620.561, 927.945 616.440, 913.453 575 C 908.968 562.174, 904.990 554.915, 899.206 549 C 895.811 545.529, 891.427 538.989, 890.491 536 C 890.060 534.625, 887.739 529.941, 885.333 525.591 C 882.028 519.615, 878.215 514.956, 869.729 506.525 C 863.553 500.389, 856.729 494.048, 854.565 492.434 C 850.713 489.561, 845.885 484.706, 838.528 476.304 C 836.507 473.996, 832.944 471.183, 830.611 470.054 C 826.291 467.963, 824.479 467.846, 813 468.926" stroke="#e23b33" fill="#e23b33" fill-opacity="0.2" fill-rule="evenodd"/><path class="svg-region-Or" d="M 705.500 307.890 C 700.086 310.389, 697.779 313.135, 693.474 322.210 C 688.935 331.778, 688.073 338.004, 688.040 361.500 C 688.012 380.851, 688.654 384.197, 695.233 399.014 C 701.520 413.173, 717.477 419.846, 729.943 413.529 C 734.841 411.047, 737.880 407.058, 743.732 395.431 C 749.159 384.646, 751.943 362.886, 748.866 355.297 C 742.888 340.551, 731.947 318.984, 727.767 313.706 C 722.099 306.549, 713.355 304.265, 705.500 307.890" stroke="#aa444d" fill="#aa444d" fill-opacity="0.2" fill-rule="evenodd"/><path class="svg-region-VOC" d="M 499.446 496.092 C 491.122 501.297, 487.059 508.006, 487.022 516.607 C 487.002 521.306, 487.339 522.046, 491.250 525.884 C 500.740 535.196, 507.844 540.143, 513.756 541.556 C 516.915 542.311, 520.063 542.945, 520.750 542.964 C 523.266 543.036, 521.115 525.437, 517.672 517.782 C 516.753 515.737, 516 513.369, 516 512.519 C 516 509.951, 512.309 497.468, 510.867 495.159 C 508.976 492.131, 505.300 492.432, 499.446 496.092" stroke="#ff8f93" fill="#ff8f93" fill-opacity="0.2" fill-rule="evenodd"/><path class="svg-region-OABr" d="M 633.876 437.372 C 633.238 438.773, 631.301 440.217, 629.148 440.898 C 626.687 441.677, 624.117 443.788, 621.250 447.388 C 618.913 450.323, 617 452.989, 617 453.312 C 617 454.395, 611.198 462.511, 609.004 464.496 C 607.811 465.576, 606.213 467.947, 605.454 469.765 C 604.694 471.583, 603.381 473.761, 602.536 474.606 C 600.903 476.240, 600.491 481.650, 601.839 483.774 C 602.882 485.418, 603.605 484.572, 613.599 470 C 617.937 463.675, 624.977 453.596, 629.243 447.603 C 633.510 441.610, 637 436.323, 637 435.853 C 637 434.081, 634.914 435.095, 633.876 437.372" stroke="#81244d" fill="#81244d" fill-opacity="0.2" fill-rule="evenodd"/><path class="svg-region-SOTr" d="M 517.500 438.456 C 515.850 439.231, 512.114 440.861, 509.198 442.078 C 504.088 444.211, 503.908 444.418, 504.198 447.821 C 504.432 450.551, 505.180 451.725, 507.500 453 C 511.098 454.976, 511.919 459.321, 509.559 463.887 C 507.136 468.571, 507.611 470.664, 511.732 473.464 C 521.995 480.438, 534.361 472.562, 532.512 460.230 C 532.136 457.723, 530.985 454.099, 529.954 452.176 C 528.924 450.253, 528.319 448.293, 528.611 447.820 C 529.356 446.616, 527.141 440.284, 525.348 438.491 C 523.501 436.643, 521.376 436.634, 517.500 438.456" stroke="#995b45" fill="#995b45" fill-opacity="0.2" fill-rule="evenodd"/><path class="svg-region-BPCr" d="M 937.174 625.314 C 935.978 626.587, 935 628.753, 935 630.127 C 935 631.598, 933.766 633.808, 932 635.500 C 929.772 637.634, 928.997 639.291, 928.990 641.937 C 928.981 645.429, 925.137 655.026, 922.558 657.997 C 921.841 658.824, 920.960 661.138, 920.602 663.139 C 918.680 673.883, 908.864 685.915, 896.500 692.685 C 892.650 694.793, 887.700 697.774, 885.500 699.309 C 865.068 713.565, 850.701 720.359, 838.372 721.593 C 831.956 722.236, 821.522 719.497, 809.525 714.021 C 806.094 712.455, 800.625 710.966, 796.822 710.563 C 787.759 709.604, 778.116 704.816, 770.500 697.495 C 761.923 689.250, 760.461 688.396, 758.421 690.436 C 756.529 692.328, 754.473 691.890, 748.235 688.269 C 744.761 686.251, 743.186 685.914, 739.735 686.446 C 730.205 687.915, 714.594 688.186, 710.840 686.947 C 707.785 685.939, 706.766 685.950, 705.496 687.003 C 704.633 687.719, 700.558 688.521, 696.441 688.786 C 692.323 689.050, 688.695 689.684, 688.379 690.196 C 688.063 690.708, 688.567 691.969, 689.500 693 C 690.433 694.031, 690.900 695.352, 690.539 695.937 C 690.139 696.584, 690.905 697, 692.496 697 C 696.073 697, 708.935 702.585, 712 705.469 C 713.484 706.866, 717.345 708.514, 721.500 709.524 C 725.350 710.460, 728.927 711.625, 729.450 712.113 C 729.972 712.601, 732.222 713.002, 734.450 713.004 C 739.010 713.008, 743.099 715.172, 748.098 720.225 C 755.497 727.707, 764.867 734.027, 770.006 735.001 C 772.752 735.522, 776.327 736.635, 777.950 737.474 C 779.573 738.313, 781.565 739, 782.378 739 C 783.190 739, 784.728 740.110, 785.795 741.466 C 787.863 744.095, 792.020 745.326, 802.882 746.523 C 806.393 746.910, 811.568 748.244, 814.382 749.487 C 817.197 750.729, 821.412 752.068, 823.749 752.461 C 826.087 752.854, 828.337 753.701, 828.749 754.343 C 831.104 758.007, 852.980 760.455, 859.058 757.736 C 870.029 752.826, 874.836 750.056, 887.245 741.489 C 894.805 736.270, 901.495 732, 902.111 732 C 902.728 732, 905.993 729.837, 909.366 727.194 C 917.376 720.918, 926.603 714.723, 931.066 712.624 C 933.027 711.701, 938.165 708.009, 942.484 704.419 C 946.802 700.828, 951.160 697.450, 952.168 696.910 C 953.175 696.371, 954 695.364, 954 694.673 C 954 693.982, 955.540 691.784, 957.422 689.789 C 961.916 685.024, 963 682.855, 963 678.625 C 963 676.696, 963.450 674.840, 964 674.500 C 964.552 674.159, 965 669.664, 965 664.464 C 965 655.999, 964.710 654.509, 962.139 649.757 C 960.566 646.849, 958.544 641.944, 957.647 638.858 C 956.447 634.730, 954.956 632.289, 952.005 629.624 C 949.799 627.631, 947.376 626, 946.620 626 C 945.863 626, 944.685 625.325, 944 624.500 C 942.213 622.347, 939.678 622.649, 937.174 625.314" stroke="#83385f" fill="#83385f" fill-opacity="0.2" fill-rule="evenodd"/><path class="svg-region-AMC" d="M 498.200 733.200 C 496.005 735.395, 496.812 744.474, 499.892 752.227 C 501.631 756.605, 503.068 762.549, 503.499 767.143 C 504.125 773.830, 503.997 774.902, 502.467 775.759 C 499.764 777.271, 501.687 779, 506.073 779 C 508.248 779, 510.809 779.401, 511.764 779.892 C 512.719 780.382, 517.550 782.229, 522.500 783.996 C 527.450 785.763, 535.100 789.081, 539.500 791.369 C 549.121 796.372, 556.148 797.277, 561.296 794.176 C 563.058 793.115, 566.857 791.481, 569.738 790.547 C 575.625 788.637, 577.398 787, 573.579 787 C 570.541 787, 563 784.122, 563 782.963 C 563 782.512, 562.438 781.536, 561.750 780.794 C 559.844 778.739, 556.433 773.685, 555.804 771.984 C 555.280 770.570, 540.808 762.234, 527.844 755.879 C 520.596 752.326, 519 750.007, 519 743.027 C 519 737.925, 518.735 737.288, 515.553 734.750 C 512.608 732.400, 511.182 732, 505.753 732 C 502.145 732, 498.882 732.518, 498.200 733.200" stroke="#9d4741" fill="#9d4741" fill-opacity="0.2" fill-rule="evenodd"/><path class="svg-region-VSr" d="M 233.348 718.290 C 231.717 720.056, 229.068 723.300, 227.462 725.500 C 225.856 727.700, 223.260 730.678, 221.693 732.117 C 219.805 733.852, 218.666 736.072, 218.313 738.704 C 217.938 741.500, 216.557 744.022, 213.640 747.238 C 211.363 749.749, 209.008 752.635, 208.408 753.652 C 207.807 754.668, 206.007 756.121, 204.408 756.879 C 200.168 758.891, 197.288 761.749, 192.698 768.500 C 190.455 771.800, 186.543 777.200, 184.005 780.500 C 179.733 786.054, 175.305 792.755, 168.950 803.277 C 165.053 809.730, 154.581 833.409, 151.162 843.500 C 146.178 858.204, 143.246 873.238, 142.482 888 L 141.783 901.500 144.475 904 C 146.802 906.161, 148.070 906.493, 153.833 906.452 C 165.228 906.370, 175.630 899.180, 177.979 889.763 C 178.564 887.418, 180.146 881.900, 181.495 877.500 C 184.192 868.696, 187.455 854.999, 188.521 848 C 189.827 839.425, 195.060 820.333, 198.522 811.515 C 200.435 806.642, 202 802.246, 202 801.745 C 202 800.042, 208.237 786.523, 212.066 779.927 C 216.365 772.521, 221 768.783, 228.732 766.487 C 232.102 765.486, 234.092 764.286, 234.497 763.010 C 235.054 761.255, 240.218 759.021, 243.754 759.006 C 244.443 759.003, 246.686 758.100, 248.739 757 C 250.791 755.900, 253.246 755, 254.193 755 C 255.141 755, 257.622 753.282, 259.708 751.182 C 266.280 744.564, 269.736 737.191, 267.046 735.528 C 265.166 734.367, 261.172 736.180, 260.601 738.454 C 260.090 740.490, 259.247 740.801, 252.764 741.345 C 248.769 741.681, 243.205 742.242, 240.400 742.591 C 234.372 743.341, 233.086 741.805, 235.434 736.659 C 236.227 734.921, 237.600 731.706, 238.485 729.514 C 239.371 727.321, 240.999 724.566, 242.102 723.391 L 244.109 721.255 240.212 718.168 L 236.314 715.081 233.348 718.290" stroke="#959faf" fill="#959faf" fill-opacity="0.2" fill-rule="evenodd"/>
    </svg>