<svg xmlns="http://www.w3.org/2000/svg" width="1078" height="1151" viewBox="0 0 1078 1151" version="1.1">
    <path class="svg-region-V" d="M 513 189.604 C 503.909 190.528, 491.980 192.302, 487 193.471 C 483.975 194.181, 476.100 195.999, 469.500 197.511 C 462.648 199.082, 455.355 201.457, 452.500 203.050 C 449.750 204.583, 445.250 206.703, 442.500 207.760 C 435.576 210.422, 422.069 220.019, 418.724 224.654 C 417.197 226.769, 413.723 231.425, 411.002 235 C 405.724 241.937, 401.852 247.565, 393.275 260.771 C 390.320 265.319, 386.628 270.494, 385.070 272.271 C 377.193 281.251, 368.701 300.489, 364.443 319 C 363.747 322.025, 362.277 327.999, 361.177 332.276 C 358.889 341.166, 359.056 352.496, 361.691 367 C 362.540 371.675, 363.575 377.975, 363.990 381 C 365.355 390.938, 367.024 394.671, 372.701 400.486 C 380.247 408.215, 382.979 409.172, 398 409.351 C 411.868 409.516, 414.884 408.574, 421.873 401.893 C 425.117 398.792, 428.932 391.953, 428.978 389.157 C 429.042 385.277, 435.073 371.535, 439.706 364.715 C 442.615 360.433, 445.908 355.141, 447.023 352.954 C 454.210 338.868, 470.399 319.748, 480.946 312.891 C 484.548 310.549, 486.490 310, 491.176 310 C 498.498 310, 504.410 312.346, 507.215 316.364 C 508.419 318.089, 509.736 319.735, 510.142 320.022 C 510.549 320.309, 511.974 322.904, 513.310 325.787 C 514.646 328.671, 518.531 334.432, 521.943 338.589 C 527.145 344.927, 529.303 346.703, 535.296 349.574 C 541.212 352.410, 543.568 352.996, 548.972 352.978 C 555.899 352.955, 558.731 351.902, 569 345.536 C 572.025 343.660, 577.363 340.410, 580.862 338.313 C 584.361 336.216, 589.761 332.357, 592.862 329.738 C 595.963 327.119, 600.300 324.433, 602.500 323.769 C 604.700 323.105, 608.975 320.690, 612 318.401 C 615.025 316.113, 618.400 314.069, 619.500 313.859 C 621.203 313.534, 621.612 312.364, 622.250 305.988 C 622.663 301.870, 623.062 291.075, 623.138 282 C 623.261 267.181, 623.050 264.914, 621.065 259.748 C 619.849 256.584, 617.090 251.763, 614.933 249.034 C 610.527 243.460, 594.602 230.315, 588.500 227.215 C 586.300 226.098, 583.150 223.749, 581.500 221.996 C 578.098 218.382, 568.426 210.810, 564.868 208.976 C 563.566 208.305, 561.359 206.694, 559.964 205.396 C 556.468 202.142, 545.872 197.134, 537.628 194.839 C 533.849 193.787, 529.568 192.311, 528.115 191.560 C 525.079 189.990, 518.095 189.086, 513 189.604" stroke="#dd8a8a" fill="#dd8a8a" fill-opacity="0.2" fill-rule="evenodd"/><path class="svg-region-SV" d="M 480.946 312.877 C 470.377 319.717, 454.245 338.799, 446.961 353.076 C 445.811 355.330, 442.746 360.173, 440.149 363.837 C 435.802 369.973, 430.782 381.543, 428.100 391.606 C 427.498 393.864, 425.205 397.758, 423.003 400.259 C 420.801 402.760, 419 405.075, 419 405.403 C 419 405.732, 422.168 406, 426.040 406 C 431.106 406, 434.179 405.439, 437 404 C 439.156 402.900, 441.920 402, 443.142 402 C 444.364 402, 448.954 401.031, 453.342 399.847 C 459.593 398.160, 462.205 396.862, 465.405 393.847 C 468.051 391.354, 471.423 389.437, 474.982 388.403 C 478.002 387.525, 481.745 386.149, 483.299 385.345 C 485.588 384.162, 487.124 384.092, 491.384 384.976 C 497.302 386.204, 500.890 385.490, 516.500 379.972 C 524.400 377.179, 526.317 376.865, 532.188 377.397 C 535.867 377.730, 540.058 378.452, 541.503 379.001 C 542.948 379.551, 545.840 380, 547.931 380 L 551.731 380 552.217 373.216 C 552.577 368.177, 553.383 365.353, 555.351 362.236 C 556.808 359.928, 558 356.785, 558 355.250 L 558 352.461 550.497 352.840 C 543.586 353.189, 542.409 352.941, 535.600 349.708 C 529.508 346.815, 527.205 344.990, 522.521 339.348 C 519.394 335.582, 515.688 330.250, 514.286 327.500 C 507.401 313.996, 502.252 310, 491.736 310 C 486.444 310, 484.654 310.477, 480.946 312.877" stroke="#c666b5" fill="#c666b5" fill-opacity="0.2" fill-rule="evenodd"/><path class="svg-region-SF" d="M 611.622 318.515 C 608.389 320.925, 604.339 323.199, 602.622 323.567 C 600.905 323.935, 597.219 326.174, 594.430 328.542 C 589.711 332.549, 586.604 334.643, 575 341.637 C 560.531 350.357, 558 352.372, 558 355.168 C 558 356.677, 556.898 359.535, 555.552 361.519 C 552.801 365.572, 551.465 372.316, 552.342 377.719 C 553.786 386.620, 561.554 396.353, 568.293 397.706 C 570.074 398.064, 571.661 399.377, 572.668 401.326 C 575.376 406.561, 584.270 415.179, 589.500 417.634 C 595.563 420.479, 602.168 420.701, 605.846 418.181 C 609.991 415.341, 616.857 413.636, 618.536 415.030 C 619.632 415.939, 620.484 415.582, 622.564 413.342 C 624.014 411.779, 625.884 409.182, 626.719 407.571 C 628.274 404.569, 628.249 403.931, 625.983 388.500 C 623.680 372.827, 622.799 360.436, 622.527 339.910 C 622.245 318.596, 621.554 313.911, 618.715 314.066 C 618.047 314.103, 614.855 316.105, 611.622 318.515" stroke="#8c6b55" fill="#8c6b55" fill-opacity="0.2" fill-rule="evenodd"/><path class="svg-region-AAB" d="M 638 483.899 C 638 488.601, 636.505 490.683, 632.603 491.415 C 630.364 491.835, 628.161 493.277, 626.326 495.525 C 624.772 497.429, 622.158 500.634, 620.518 502.647 C 618.878 504.659, 615.728 507.112, 613.518 508.098 C 611.308 509.084, 607.700 511.520, 605.500 513.512 C 597.046 521.165, 584.914 530.067, 582.199 530.610 C 580.611 530.928, 577.740 530.500, 575.681 529.640 L 572 528.102 572 534.198 C 572 539.688, 571.651 540.720, 568.489 544.579 C 563.881 550.203, 559.142 560.902, 558.405 567.350 C 557.907 571.700, 558.179 573.029, 560.158 575.908 C 564.111 581.660, 567.087 583.213, 575.679 584.007 C 579.980 584.405, 584.625 585.194, 586 585.761 C 592.731 588.536, 597.213 589.267, 603.711 588.648 C 611.422 587.914, 621.707 585.019, 625.135 582.618 C 626.405 581.728, 628.205 581, 629.135 581 C 630.334 581, 631.026 579.807, 631.519 576.887 C 631.901 574.624, 633.205 571.313, 634.416 569.528 C 635.627 567.744, 637.174 563.632, 637.852 560.392 C 639.978 550.242, 642.047 541.757, 644.194 534.386 C 645.555 529.714, 646.039 526.109, 645.604 523.886 C 645.239 522.024, 644.746 518.250, 644.509 515.500 C 643.644 505.482, 639.523 482.364, 638.374 481.083 C 638.168 480.854, 638 482.121, 638 483.899" stroke="#7f3c1a" fill="#7f3c1a" fill-opacity="0.2" fill-rule="evenodd"/><path class="svg-region-APB" d="M 610.275 415.804 C 607.951 416.737, 604.963 418.466, 603.635 419.648 C 602.307 420.829, 600.325 422.080, 599.230 422.427 C 598.136 422.774, 596.161 425.183, 594.841 427.779 C 593.281 430.850, 591.321 433.024, 589.235 434 C 587.471 434.825, 585.750 436.400, 585.412 437.500 C 585.073 438.600, 581.301 443.100, 577.028 447.500 C 572.756 451.900, 568.550 456.850, 567.682 458.500 C 565.160 463.291, 562 471.135, 562 472.601 C 562 473.342, 560.591 477.447, 558.870 481.724 C 548.877 506.547, 547.385 513.914, 550.941 520.885 C 552.953 524.827, 559.216 531, 561.206 531 C 561.831 531, 563.053 531.611, 563.921 532.358 C 564.790 533.106, 566.962 534.207, 568.750 534.806 L 572 535.896 572 530.586 C 572 522.285, 576.663 513.093, 584.957 505.042 C 591.211 498.971, 596 491.911, 596 488.762 C 596 487.229, 601.572 476.204, 603.460 474 C 606.841 470.053, 612.721 456.227, 616.215 444.007 C 617.434 439.743, 617.794 439.415, 623.250 437.578 C 628.614 435.771, 628.995 435.436, 628.930 432.571 C 628.836 428.456, 628.065 426.792, 624.395 422.772 C 622.687 420.902, 620.498 418.163, 619.530 416.686 C 617.503 413.593, 616.115 413.461, 610.275 415.804" stroke="#ac7444" fill="#ac7444" fill-opacity="0.2" fill-rule="evenodd"/><path class="svg-region-PC" d="M 528.185 487.365 C 527.309 489.787, 527.250 491.528, 527.979 493.444 C 529.518 497.493, 529.218 501.124, 527 505.261 C 525.900 507.314, 525.010 509.332, 525.021 509.746 C 525.033 510.161, 526.833 511.767, 529.021 513.315 C 532.529 515.796, 533 516.604, 533 520.136 C 533 523.639, 532.215 525.018, 526.750 531.121 C 521.424 537.069, 520.334 538.943, 519.377 543.800 C 518.759 546.935, 517.558 552.625, 516.708 556.444 L 515.163 563.388 520.686 572.944 C 526.002 582.143, 526.185 582.701, 525.581 587.870 C 525.178 591.321, 525.364 593.733, 526.100 594.620 C 527.436 596.231, 536 596.520, 536 594.955 C 536 594.380, 537.120 592.789, 538.490 591.419 C 539.859 590.050, 541.244 587.876, 541.567 586.588 C 542.505 582.852, 548.309 577.727, 553.504 576.048 L 558.291 574.500 558.520 568.500 C 558.780 561.671, 562.728 552.263, 568.512 544.689 C 573.424 538.256, 573.133 536.789, 566.282 533.437 C 558.959 529.854, 552.199 523.642, 549.828 518.317 C 548.607 515.575, 547.229 514.025, 545.825 513.817 C 543.136 513.419, 537.402 505.227, 535.915 499.660 C 533.293 489.842, 531.431 484.603, 530.456 484.297 C 529.882 484.118, 528.860 485.498, 528.185 487.365" stroke="#cda789" fill="#cda789" fill-opacity="0.2" fill-rule="evenodd"/><path class="svg-region-DB" d="M 515.500 380.082 C 502.302 385.203, 497.732 386.136, 491.933 384.892 C 487.552 383.953, 486.247 384.076, 482.188 385.810 C 479.609 386.912, 475.700 388.296, 473.500 388.886 C 471.300 389.477, 467.660 391.700, 465.410 393.827 C 462.194 396.869, 459.617 398.154, 453.342 399.847 C 448.954 401.031, 444.439 402, 443.309 402 C 442.179 402, 439.134 402.938, 436.542 404.085 C 432.956 405.671, 430.115 406.116, 424.664 405.944 C 419.355 405.778, 416.464 406.209, 413.500 407.610 C 410.183 409.177, 407.450 409.469, 397.500 409.317 C 383.316 409.101, 380.241 408.075, 373.421 401.284 C 370.704 398.578, 368.952 397.369, 369.389 398.500 C 372.622 406.885, 374.115 416.684, 374.688 433.279 L 375.302 451.058 378.401 453.800 C 382.396 457.334, 389.783 472.137, 390.628 478.302 C 391.372 483.734, 392.361 484.535, 400.223 486.075 C 421.555 490.254, 423.781 490.402, 465.941 490.452 L 507.381 490.500 509.605 488.102 C 511.571 485.983, 512.391 485.781, 516.665 486.360 C 519.324 486.721, 522.704 487.901, 524.177 488.984 L 526.853 490.951 528.321 486.726 C 529.129 484.402, 530.237 478.986, 530.785 474.691 C 531.929 465.711, 531.510 466.182, 544.729 459.037 C 557.681 452.037, 558.268 451.958, 562.598 456.638 L 566.170 460.500 567.835 458.095 C 568.751 456.773, 572.987 452.017, 577.250 447.527 C 581.513 443.037, 585 439.057, 585 438.682 C 585 438.307, 582.927 438, 580.394 438 C 576.954 438, 575.045 437.374, 572.849 435.526 C 571.232 434.166, 568.197 432.592, 566.106 432.028 C 564.014 431.465, 560.772 429.976, 558.901 428.719 C 555.922 426.717, 555.461 425.830, 555.189 421.571 C 554.882 416.757, 556.183 411.901, 558.557 409 C 559.232 408.175, 560.582 404.937, 561.558 401.804 L 563.331 396.109 559.915 392.304 C 558.037 390.212, 555.644 386.587, 554.598 384.250 C 552.789 380.208, 552.487 380, 548.413 380 C 546.058 380, 542.893 379.529, 541.380 378.954 C 539.868 378.379, 535.226 377.699, 531.065 377.443 C 524.353 377.030, 522.598 377.328, 515.500 380.082" stroke="#e8b1e4" fill="#e8b1e4" fill-opacity="0.2" fill-rule="evenodd"/><path class="svg-region-MB" d="M 393.528 487.616 C 394.445 489.752, 395.678 492.850, 396.270 494.500 C 396.861 496.150, 398.625 499.104, 400.190 501.064 C 402.684 504.187, 403.053 505.522, 403.169 511.849 C 403.243 515.820, 403.685 519.305, 404.151 519.594 C 404.618 519.882, 405 523.201, 405 526.970 C 405 531.178, 405.736 535.882, 406.907 539.161 C 407.956 542.097, 410.928 551.005, 413.512 558.956 C 417.732 571.942, 418.094 573.772, 417.075 576.956 C 416.451 578.905, 415.501 585.661, 414.963 591.970 L 413.985 603.439 410.010 607.490 L 406.035 611.540 408.267 613.006 C 409.495 613.812, 411.784 615.038, 413.354 615.731 C 414.924 616.424, 418.074 618.976, 420.354 621.403 C 422.634 623.829, 427.462 627.414, 431.082 629.369 L 437.664 632.924 444.082 630.578 C 447.612 629.288, 453.058 627.286, 456.185 626.130 C 459.311 624.974, 463.553 622.886, 465.612 621.489 C 467.670 620.092, 470.512 618.709, 471.927 618.414 C 473.342 618.120, 475.400 617.373, 476.500 616.755 C 488.693 609.903, 492.468 608.642, 501.018 608.571 C 509.207 608.503, 509.706 608.365, 513.911 605 C 523.318 597.474, 524.800 595.390, 525.508 588.687 C 526.156 582.555, 526.112 582.413, 520.662 572.809 L 515.162 563.119 517.563 552.809 C 520.690 539.383, 520.677 539, 517.115 539 C 515.178 539, 513.716 538.216, 512.667 536.614 C 511.807 535.302, 509.104 533.261, 506.661 532.078 C 497.440 527.614, 494.017 516.868, 499.996 511.154 C 505.304 506.081, 508.149 500.954, 508.719 495.433 L 509.257 490.222 467.878 490.361 C 426.112 490.501, 421.846 490.245, 402.378 486.431 C 398.461 485.663, 394.492 484.742, 393.559 484.384 C 391.966 483.773, 391.964 483.973, 393.528 487.616" stroke="#f9c6c6" fill="#f9c6c6" fill-opacity="0.2" fill-rule="evenodd"/><path class="svg-region-AP" d="M 536.734 686.600 C 534.578 688.756, 537.293 700.519, 540.250 701.833 C 540.663 702.017, 541.004 703.817, 541.009 705.833 C 541.017 709.470, 541.093 709.536, 550.259 713.923 C 561.244 719.181, 569.326 721.965, 573.661 721.985 C 575.399 721.993, 579.674 721.106, 583.161 720.013 C 586.647 718.920, 592.330 718.020, 595.789 718.013 C 601.772 718.001, 602.279 718.194, 606.240 722 C 608.530 724.200, 610.682 726, 611.024 726 C 612.039 726, 616 734.549, 616 736.739 C 616 738.647, 612.944 746.370, 609.209 753.901 C 608.142 756.052, 606.233 757.825, 604.011 758.727 C 600.332 760.220, 591.745 764.135, 591.159 764.586 C 590.846 764.827, 590.188 771.099, 589.698 778.500 C 589.385 783.242, 592.816 782.960, 600.994 777.573 C 604.812 775.058, 609.117 773, 610.561 773 C 614.673 773, 631.871 769.283, 638.500 766.962 C 641.800 765.807, 646.750 764.403, 649.500 763.842 C 652.250 763.282, 654.999 762.411, 655.608 761.907 C 657.240 760.557, 671.759 756.763, 677.250 756.250 C 680.884 755.911, 682 755.407, 682 754.103 C 682 753.167, 682.540 751.860, 683.200 751.200 C 683.944 750.456, 684.039 749.691, 683.450 749.186 C 677.460 744.056, 671.862 740.116, 669 739.013 C 667.075 738.271, 665.050 737.352, 664.500 736.970 C 663.950 736.588, 662.278 735.984, 660.785 735.628 C 659.292 735.271, 656.142 733.680, 653.785 732.092 C 651.428 730.504, 647.475 728.686, 645 728.052 C 631.351 724.557, 624.900 722.206, 619.595 718.796 C 616.347 716.708, 613.122 715, 612.428 715 C 611.734 715, 611.017 714.663, 610.833 714.250 C 610.082 712.559, 603.206 709.525, 599 709.030 C 592.721 708.291, 592.853 705.626, 599.337 702.230 C 602.903 700.362, 604.714 698.583, 606.234 695.455 C 608.930 689.906, 608.107 687.569, 603.738 688.370 C 601.957 688.696, 598.025 689.245, 595 689.590 C 591.975 689.935, 587.493 690.870, 585.040 691.668 C 576.562 694.426, 564.666 695.920, 554.202 695.540 C 542.595 695.120, 539.537 693.851, 538.261 688.928 C 537.825 687.244, 537.137 686.196, 536.734 686.600" stroke="#fc7143" fill="#fc7143" fill-opacity="0.2" fill-rule="evenodd"/><path class="svg-region-PP" d="M 531.530 598.275 C 521.745 605.563, 513.822 608.190, 501 608.396 C 493.046 608.524, 491.890 608.832, 483 613.181 C 477.775 615.738, 471.475 618.788, 469 619.958 C 466.525 621.129, 463.375 622.738, 462 623.534 C 460.625 624.330, 455.675 626.380, 451 628.090 C 446.325 629.801, 441.470 631.603, 440.211 632.096 C 438.026 632.952, 438.243 633.305, 444.961 639.826 C 448.832 643.584, 452.007 647.073, 452.016 647.579 C 452.024 648.086, 453.826 650.525, 456.021 653 C 458.215 655.475, 460.458 659.075, 461.006 661 C 464.136 671.995, 466.323 681.158, 466.984 686.041 C 467.396 689.089, 468.468 693.004, 469.366 694.742 C 470.344 696.632, 471 700.304, 471 703.882 C 471 709.343, 470.747 710.044, 468.096 711.932 C 466.498 713.069, 464.698 714, 464.096 714 C 461.883 714, 463.106 716.482, 467.199 720.299 C 469.508 722.453, 472.488 724.929, 473.820 725.802 C 476.070 727.276, 476.341 727.255, 477.621 725.503 C 478.380 724.466, 479.014 723.141, 479.032 722.559 C 479.084 720.846, 492.100 713.001, 494.918 712.985 C 496.338 712.977, 499.415 712.304, 501.756 711.488 C 504.500 710.532, 512.229 709.771, 523.506 709.346 L 541 708.686 541 705.426 C 541 703.633, 540.663 702.017, 540.250 701.833 C 537.047 700.410, 534.700 688.700, 537.130 686.270 C 537.970 685.430, 537.957 679.796, 537.080 664.320 C 535.868 642.929, 536.848 615.159, 539.017 609.455 C 540.557 605.405, 540.185 602.170, 537.812 598.960 C 536.609 597.332, 535.371 596.014, 535.062 596.032 C 534.753 596.049, 533.163 597.059, 531.530 598.275" stroke="#c4743d" fill="#c4743d" fill-opacity="0.2" fill-rule="evenodd"/><path class="svg-region-LPr" d="M 553.037 575.974 C 548.245 577.870, 542.412 583.105, 541.368 586.447 C 541.015 587.576, 539.663 589.772, 538.363 591.327 C 535.426 594.841, 535.389 596.721, 538.201 599.713 C 540.280 601.927, 540.333 602.372, 539.163 607.778 C 536.709 619.125, 535.843 642.400, 537.017 665.500 C 537.632 677.600, 538.336 688.507, 538.583 689.737 C 539.409 693.858, 543.260 695.298, 554.321 695.619 C 564.296 695.909, 573.005 694.824, 586 691.672 C 589.575 690.806, 595.650 689.566, 599.500 688.918 C 603.350 688.270, 607.010 687.337, 607.632 686.845 C 608.255 686.353, 613.430 685.319, 619.132 684.547 C 635.833 682.286, 654.368 676.945, 657.500 673.491 C 658.600 672.279, 660.961 670.796, 662.747 670.196 C 664.533 669.597, 667.458 668.009, 669.247 666.668 C 671.615 664.894, 674.405 664.038, 679.500 663.522 C 687.564 662.704, 690 661.071, 690 656.480 C 690 654.714, 690.945 652.068, 692.100 650.600 C 693.255 649.132, 694.433 646.192, 694.718 644.067 C 695.140 640.917, 694.688 639.400, 692.266 635.852 C 690.633 633.458, 689.478 630.979, 689.701 630.343 C 689.923 629.707, 689.218 628.566, 688.134 627.807 C 684.570 625.310, 657.432 598.569, 655.194 595.349 C 652.069 590.851, 642.602 584.836, 638.167 584.531 C 633.910 584.238, 631 583.167, 631 581.893 C 631 580.526, 627.686 580.831, 625.439 582.405 C 622.071 584.764, 610.971 587.989, 603.983 588.638 C 598.488 589.149, 595.954 588.808, 589.022 586.627 C 584.433 585.182, 578.482 584, 575.799 584 C 569.776 584, 563.445 580.947, 561.168 576.944 C 559.265 573.600, 559.087 573.579, 553.037 575.974" stroke="#d2454f" fill="#d2454f" fill-opacity="0.2" fill-rule="evenodd"/><path class="svg-region-DMr" d="M 372.975 614.565 C 372.439 615.976, 372 617.551, 372 618.065 C 372 618.579, 371.617 619, 371.149 619 C 369.933 619, 368.647 656.047, 369.823 657.223 C 370.343 657.743, 374.758 658.693, 379.634 659.334 L 388.500 660.500 389.724 664 C 390.584 666.459, 390.768 671.517, 390.345 681.011 C 389.751 694.360, 389.780 694.613, 392.754 702.011 C 396.417 711.124, 399.643 721.169, 400.572 726.356 C 401.152 729.598, 401.838 730.438, 404.881 731.631 C 406.872 732.412, 409.221 733.452, 410.103 733.942 C 410.985 734.432, 413.910 735.144, 416.603 735.525 C 419.296 735.905, 423.525 737.397, 426 738.841 C 428.475 740.284, 432.075 742.189, 434 743.074 C 435.925 743.959, 438.118 745.429, 438.872 746.342 C 439.627 747.254, 440.796 748, 441.469 748 C 442.142 748, 444.199 748.751, 446.040 749.670 C 448.432 750.863, 449.498 751.006, 449.777 750.170 C 450.005 749.484, 452.305 748.986, 455.333 748.967 C 461.089 748.930, 465 746.579, 465 743.156 C 465 740.191, 455.786 731.230, 450.268 728.828 C 444.080 726.135, 442 724.241, 442 721.297 C 442 718.197, 446.561 713.994, 449.896 714.022 C 451.328 714.034, 454.300 714.860, 456.500 715.858 C 460.657 717.744, 463 717.672, 463 715.661 C 463 715.016, 464.462 713.852, 466.250 713.074 C 468.038 712.297, 469.831 711.174, 470.235 710.580 C 471.553 708.642, 471.045 697.987, 469.490 694.981 C 468.660 693.375, 467.584 689.460, 467.100 686.281 C 466.320 681.153, 463.975 671.425, 461.006 661 C 460.458 659.075, 458.601 655.925, 456.879 654 C 455.158 652.075, 452.710 648.867, 451.439 646.871 C 447.187 640.195, 435.289 630.710, 425.444 626.149 C 424.313 625.625, 422.188 623.624, 420.721 621.701 C 419.254 619.778, 416.130 617.237, 413.777 616.053 C 411.425 614.870, 408.742 613.382, 407.815 612.747 C 406.548 611.878, 405.557 611.876, 403.815 612.737 C 400.814 614.220, 391.866 616, 387.411 616 C 385.491 616, 382.156 615.100, 380 614 C 374.930 611.413, 374.150 611.476, 372.975 614.565" stroke="#68533d" fill="#68533d" fill-opacity="0.2" fill-rule="evenodd"/><path class="svg-region-VMr" d="M 510.468 709.992 C 506.050 710.379, 501.467 711.215, 500.284 711.848 C 499.100 712.482, 496.737 713, 495.032 713 C 491.251 713, 479.889 720.380, 478.176 723.949 C 476.051 728.375, 476.838 730.358, 483.250 736.739 C 492.225 745.672, 496.181 748.504, 506.678 753.509 C 511.807 755.954, 519.265 760.402, 523.251 763.393 C 530.551 768.870, 543.587 776, 546.300 776 C 547.769 776, 553 782.073, 553 783.778 C 553 784.280, 553.838 785.448, 554.861 786.374 C 555.885 787.301, 557.797 790.794, 559.111 794.138 C 561.899 801.232, 566.263 806.007, 569.940 805.985 C 573.520 805.963, 574.587 805.005, 575.341 801.134 C 575.701 799.283, 577.363 796.133, 579.033 794.134 C 580.703 792.135, 582.527 789.932, 583.086 789.237 C 583.825 788.320, 583.134 786.954, 580.560 784.237 C 575.937 779.360, 575.806 775.429, 580.104 770.535 C 581.811 768.591, 583.987 767, 584.941 767 C 586.388 767, 595.641 762.879, 605.842 757.691 C 607.131 757.036, 608.761 755.375, 609.466 754 C 611.776 749.492, 615.233 740.554, 615.725 737.817 C 616.424 733.926, 612.602 727.226, 606.844 722.250 C 602.190 718.228, 601.592 718.001, 595.713 718.013 C 592.296 718.020, 586.647 718.920, 583.161 720.013 C 579.674 721.106, 575.624 721.994, 574.161 721.987 C 570.007 721.967, 560.389 718.630, 550 713.605 L 540.500 709.011 529.500 709.149 C 523.450 709.225, 514.886 709.604, 510.468 709.992" stroke="#e59376" fill="#e59376" fill-opacity="0.2" fill-rule="evenodd"/><path class="svg-region-PMr" d="M 264.709 721.117 C 255.812 725.651, 254.144 727.963, 255.579 733.773 C 256.303 736.703, 257.327 737.904, 260.368 739.389 C 267.595 742.918, 284.476 744.879, 286.860 742.466 C 287.212 742.110, 289.637 739.961, 292.250 737.692 C 294.863 735.422, 296.997 732.875, 296.994 732.033 C 296.981 728.384, 294.735 722.928, 292.074 720.079 C 289.292 717.101, 288.924 717.002, 280.849 717.073 C 273.165 717.141, 271.879 717.463, 264.709 721.117" stroke="#90cf92" fill="#90cf92" fill-opacity="0.2" fill-rule="evenodd"/><path class="svg-region-PV" d="M 231.500 649.374 L 226.500 650.557 226.792 655.199 C 226.952 657.751, 226.155 663.475, 225.021 667.917 C 222.367 678.313, 219.024 697.419, 219.010 702.269 C 218.992 708.833, 223.925 719.708, 228.798 723.848 C 234.416 728.621, 239.330 733.365, 245.589 740.058 C 250.259 745.052, 263.751 757.222, 274.498 766.135 C 279.035 769.896, 290.150 774, 295.804 774 C 298.775 774, 298.802 773.949, 299.497 767.028 C 300.108 760.947, 299.929 759.621, 298.099 756.660 C 296.944 754.792, 296 752.136, 296 750.757 C 296 742.554, 292.320 738.267, 287.795 741.197 C 284.106 743.585, 278.459 743.988, 270.864 742.404 C 260.370 740.216, 256.244 737.817, 255.420 733.423 C 254.411 728.045, 256.332 725.598, 265.130 721.054 C 272.411 717.294, 273.568 717, 281.089 717 C 288.839 717, 289.324 717.135, 292.048 720.051 C 293.615 721.729, 295.176 723.979, 295.516 725.051 C 296.441 727.965, 297.752 727.408, 298.553 723.759 C 299.016 721.651, 301.299 718.589, 305.085 714.997 C 311.576 708.840, 320.133 695.426, 322.637 687.483 C 324.948 680.153, 330.564 672.415, 338.229 666 C 341.844 662.975, 344.721 660.413, 344.623 660.306 C 344.526 660.200, 339.958 659.428, 334.473 658.590 C 316.298 655.817, 303.072 655.047, 289.088 655.950 C 281.711 656.426, 274.793 656.489, 273.713 656.089 C 272.210 655.534, 270.721 656.377, 267.369 659.682 C 264.960 662.057, 262.469 664, 261.833 664 C 260.508 664, 255 669.886, 255 671.303 C 255 673.011, 251.989 669.785, 250.622 666.612 C 247.467 659.289, 247 657.730, 247 654.512 C 247 652.645, 247.450 650.840, 248 650.500 C 252.169 647.924, 240.889 647.154, 231.500 649.374" stroke="#b09658" fill="#b09658" fill-opacity="0.2" fill-rule="evenodd"/><path class="svg-region-LPVr" d="M 356 657.938 C 355.175 658.505, 352.964 658.976, 351.088 658.985 C 342.376 659.024, 327.028 674.315, 322.595 687.371 C 319.222 697.308, 312.258 708.260, 305.570 714.147 C 300.525 718.588, 295.634 727.271, 296.551 730.159 C 297.267 732.416, 295.373 736, 293.465 736 C 292.659 736, 292 736.675, 292 737.500 C 292 738.325, 291.438 739.012, 290.750 739.027 C 290.063 739.041, 290.697 739.796, 292.160 740.704 C 294.763 742.319, 296 745.558, 296 750.757 C 296 752.136, 296.929 754.767, 298.064 756.604 C 299.731 759.301, 300.068 761.250, 299.814 766.722 C 299.503 773.434, 299.524 773.497, 302 773.207 C 303.375 773.046, 305.400 772.544, 306.500 772.091 C 307.600 771.638, 309.625 770.804, 311 770.237 C 312.375 769.669, 316.650 767.729, 320.500 765.924 C 331.701 760.672, 336.145 759.078, 356.619 752.966 C 363.834 750.812, 371.034 748.553, 372.619 747.945 C 374.204 747.337, 379.325 746.166, 384 745.343 C 400.682 742.406, 402.202 742.079, 405.128 740.797 C 407.369 739.816, 407.961 739.012, 407.559 737.500 C 407.267 736.400, 407.021 734.822, 407.014 733.994 C 407.006 733.166, 405.650 731.891, 404 731.160 C 402.325 730.419, 401 729.064, 401 728.092 C 401 725.457, 396.384 710.486, 392.862 701.701 C 389.758 693.957, 389.740 693.806, 390.346 680.701 C 390.777 671.402, 390.594 666.466, 389.729 664 C 388.519 660.553, 388.379 660.482, 380.500 659.339 C 366.865 657.360, 357.610 656.831, 356 657.938" stroke="#494949" fill="#494949" fill-opacity="0.2" fill-rule="evenodd"/><path class="svg-region-Fr" d="M 315.481 524.439 C 314.391 525.263, 312.888 525.951, 312.141 525.968 C 309.867 526.021, 299 536.440, 299 538.567 C 299 540.284, 289.645 549.660, 287.139 550.456 C 285.962 550.829, 285 551.554, 285 552.067 C 285 552.580, 284.424 553, 283.719 553 C 282.398 553, 260.208 563.978, 254 567.703 C 247.694 571.488, 238.577 579.269, 234.500 584.346 C 226.328 594.525, 224.699 597.442, 223.246 604.500 C 221.297 613.965, 221.447 635.711, 223.488 639.624 C 224.313 641.206, 224.990 644.247, 224.994 646.382 L 225 650.263 229.250 649.614 C 231.588 649.257, 236.875 648.690, 241 648.355 C 246.006 647.948, 249.165 647.165, 250.500 646 C 251.600 645.040, 253.850 643.783, 255.500 643.206 L 258.500 642.158 255.250 642.079 C 252.487 642.012, 252 641.632, 252 639.545 C 252 637.530, 252.629 636.973, 255.511 636.432 C 257.442 636.070, 259.269 635.374, 259.570 634.887 C 259.871 634.399, 261.632 634, 263.482 634 C 266.087 634, 267.731 634.903, 270.767 638 C 272.924 640.200, 275.208 642, 275.844 642 C 277.503 642, 277.307 642.988, 274.500 648.808 C 273.125 651.658, 272 654.390, 272 654.878 C 272 656.562, 276.014 656.803, 289.737 655.945 C 303.158 655.106, 319.209 656.141, 337.500 659.024 C 344.041 660.054, 354.748 659.337, 356.769 657.732 C 357.477 657.169, 360.393 656.967, 363.369 657.274 L 368.700 657.825 369.346 645.162 C 369.701 638.198, 369.994 629.500, 369.996 625.833 C 369.998 622.167, 370.337 619.017, 370.750 618.833 C 371.163 618.650, 372.280 616.813, 373.234 614.750 C 374.731 611.512, 374.762 611, 373.462 611 C 372.634 611, 371.445 609.875, 370.818 608.500 C 370.192 607.125, 369.310 606, 368.860 606 C 367.694 606, 364 598.466, 364 596.087 C 364 594.991, 363.540 593.060, 362.978 591.797 C 362.416 590.534, 360.891 584.206, 359.589 577.736 C 358.286 571.265, 356.741 565.393, 356.154 564.686 C 355.568 563.979, 354.780 561.398, 354.405 558.950 C 353.477 552.904, 351.768 549.820, 345.661 543.166 C 342.800 540.050, 339.425 535.820, 338.159 533.767 C 334.326 527.549, 319.457 521.434, 315.481 524.439" stroke="#5ca7a9" fill="#5ca7a9" fill-opacity="0.2" fill-rule="evenodd"/><path class="svg-region-PCr" d="M 259 634.999 C 258.175 635.484, 256.262 636.141, 254.750 636.459 C 252.644 636.903, 252 637.619, 252 639.519 C 252 641.615, 252.471 642, 255.031 642 C 256.803 642, 258.302 642.623, 258.638 643.500 C 259.842 646.637, 273 644.176, 273 640.814 C 273 640.189, 271.569 638.401, 269.820 636.839 C 266.582 633.949, 262.088 633.184, 259 634.999" stroke="#465ee0" fill="#465ee0" fill-opacity="0.2" fill-rule="evenodd"/><path class="svg-region-Or" d="M 710.500 206.957 C 686.372 212.166, 659.831 235.426, 641.091 267.784 C 634.464 279.225, 632.787 287.608, 631.242 317 C 630.210 336.623, 632.794 390.950, 635.125 398.627 C 635.647 400.347, 636.732 407.547, 637.536 414.627 C 638.340 421.707, 639.905 432.225, 641.014 438 C 642.122 443.775, 643.663 452.325, 644.438 457 C 645.694 464.578, 646.839 468.834, 652.605 487.372 C 654.070 492.082, 655.696 495.143, 664.094 509 C 666.261 512.575, 669.376 518.274, 671.018 521.664 C 672.659 525.054, 676.145 530.454, 678.764 533.664 C 681.384 536.874, 684.754 541.288, 686.253 543.474 C 690.875 550.210, 706.913 566.867, 713.791 572.074 C 717.383 574.793, 722.582 577.689, 725.343 578.509 C 735.230 581.445, 747.322 579.639, 755.472 574.007 C 760.553 570.497, 770.373 560.177, 775.462 553 C 777.607 549.975, 782.644 544.075, 786.656 539.890 C 793.624 532.622, 795.486 529.545, 800.214 517.500 C 802.641 511.317, 805.409 500.740, 807.020 491.500 C 807.691 487.650, 808.956 482.025, 809.831 479 C 811.153 474.429, 811.461 466.461, 811.653 431.816 C 811.780 408.890, 811.470 385.940, 810.964 380.816 C 810.458 375.692, 809.574 365.425, 809 358 C 806.646 327.561, 803.653 303.645, 800.741 292 C 799.400 286.638, 792.723 270.730, 790.282 267.082 C 789.332 265.662, 787.588 262.475, 786.407 260 C 785.225 257.525, 781.163 251.957, 777.379 247.628 C 773.596 243.298, 769.440 238.170, 768.144 236.233 C 766.848 234.295, 761.975 228.755, 757.315 223.921 C 750.366 216.713, 747.321 214.379, 740.375 210.938 C 732.713 207.142, 731.081 206.713, 723.204 206.419 C 718.417 206.240, 712.700 206.482, 710.500 206.957" stroke="#aa444d" fill="#aa444d" fill-opacity="0.2" fill-rule="evenodd"/><path class="svg-region-VOC" d="M 510.200 487.200 C 509.540 487.860, 509 490.418, 509 492.884 C 509 498.467, 506.080 504.646, 500.938 509.944 C 497.680 513.302, 497 514.696, 497 518.023 C 497 523.528, 500.989 529.332, 506.661 532.078 C 509.104 533.261, 511.807 535.302, 512.667 536.614 C 515.545 541.006, 518.759 539.861, 526.235 531.780 C 532.180 525.353, 532.971 524.035, 532.985 520.527 C 532.998 517.124, 532.420 516.049, 528.954 513.027 L 524.908 509.500 526.954 505.539 C 530.956 497.791, 528.693 490.441, 521.364 487.379 C 517.300 485.681, 511.807 485.593, 510.200 487.200" stroke="#ff8f93" fill="#ff8f93" fill-opacity="0.2" fill-rule="evenodd"/><path class="svg-region-OABr" d="M 622.500 437.590 C 617.570 439.376, 616.266 441.045, 615.426 446.647 C 615.065 449.055, 614.371 451.271, 613.885 451.571 C 613.398 451.872, 613 452.758, 613 453.540 C 613 455.714, 605.436 471.151, 601.517 476.975 C 599.600 479.823, 597.391 484.311, 596.608 486.949 C 594.315 494.671, 592.103 498.101, 584.923 505.073 C 579.857 509.992, 577.284 513.516, 574.702 519.073 C 572.382 524.068, 571.564 526.893, 572.206 527.699 C 573.727 529.611, 579.865 531.251, 582.770 530.522 C 585.571 529.819, 598.030 520.462, 605.769 513.250 C 608.277 510.913, 610.971 509, 611.755 509 C 614.031 509, 620.694 503.775, 622.596 500.500 C 625.262 495.908, 629.716 492.007, 633.057 491.339 C 634.715 491.007, 636.505 489.925, 637.036 488.934 C 639.332 484.643, 637.477 467.154, 633.556 456.124 C 632.700 453.718, 632 448.745, 632 445.074 C 632 435.806, 630.559 434.671, 622.500 437.590" stroke="#81244d" fill="#81244d" fill-opacity="0.2" fill-rule="evenodd"/><path class="svg-region-SOTr" d="M 545.978 458.297 C 532.850 465.470, 532.240 465.992, 531.072 471.061 C 529.512 477.830, 529.797 482.682, 532.009 487.019 C 533.115 489.185, 534.722 493.988, 535.581 497.692 C 537.504 505.984, 542.913 514, 546.585 514 C 548.439 514, 549 513.465, 549 511.696 C 549 508.888, 554.573 492.185, 558.860 482.145 C 560.587 478.100, 562 474.134, 562 473.331 C 562 472.528, 562.948 469.668, 564.106 466.975 L 566.212 462.079 563.909 458.290 C 559.742 451.433, 558.537 451.434, 545.978 458.297" stroke="#995b45" fill="#995b45" fill-opacity="0.2" fill-rule="evenodd"/><path class="svg-region-BPCr" d="M 764.500 625.200 C 757.556 636.217, 754.775 639.648, 749.670 643.500 C 748.212 644.600, 746.002 646.335, 744.759 647.356 C 741.339 650.165, 738.438 651, 732.095 651 C 724.978 651, 717.567 647.509, 707.835 639.574 C 699.474 632.756, 695.487 630.661, 692.365 631.444 L 689.946 632.052 692.596 636.574 C 695.646 641.778, 695.474 646.311, 692.060 650.650 C 690.913 652.109, 690 654.751, 690 656.612 C 690 661.059, 687.315 662.711, 678.650 663.597 C 673.790 664.093, 671.031 664.937, 669.150 666.503 C 667.693 667.717, 664.809 669.261, 662.742 669.935 C 660.676 670.609, 658.549 671.975, 658.016 672.970 C 656.245 676.280, 637.165 681.954, 619.149 684.528 C 613.455 685.342, 608.391 686.258, 607.895 686.565 C 607.399 686.872, 607.250 688.147, 607.564 689.400 C 608.239 692.087, 604.491 699.887, 602.103 700.765 C 601.222 701.089, 598.779 702.426, 596.676 703.736 C 593.546 705.686, 593.070 706.379, 594.049 707.559 C 594.707 708.352, 596.623 709, 598.307 709 C 601.452 709, 609.469 712.380, 611.821 714.698 C 612.548 715.414, 613.679 716, 614.335 716 C 614.990 716, 617.839 717.557, 620.665 719.460 C 624.254 721.877, 629.377 723.872, 637.652 726.077 C 644.168 727.812, 649.725 729.518, 650 729.866 C 650.611 730.640, 655.598 733.528, 659 735.077 C 660.375 735.703, 662.281 736.617, 663.236 737.108 C 664.191 737.598, 665.603 738, 666.372 738 C 667.672 738, 676.415 743.544, 681.860 747.821 C 683.949 749.461, 684.068 749.918, 682.898 751.792 C 682.171 752.956, 681.869 754.202, 682.227 754.561 C 682.586 754.919, 686.578 754.715, 691.099 754.106 C 695.619 753.498, 701.245 753, 703.600 753 C 705.955 753, 708.160 752.550, 708.500 752 C 708.840 751.450, 713.115 751, 718 751 C 722.885 751, 727.129 750.600, 727.432 750.110 C 728.015 749.166, 731.207 748.540, 742.500 747.155 C 747.651 746.523, 750.689 745.504, 754 743.296 C 756.475 741.646, 761.310 738.818, 764.744 737.012 C 771.090 733.674, 774.421 730.926, 779.117 725.153 C 781.556 722.154, 781.781 721.008, 782.429 708.218 C 782.812 700.673, 783.593 692.700, 784.165 690.500 C 785.327 686.030, 789.305 681.857, 798.794 675.156 C 803.899 671.551, 805.057 670.191, 805.606 667.156 C 805.970 665.145, 806.882 662.285, 807.634 660.800 C 809.575 656.963, 809.347 654.618, 806.483 648.967 C 804.458 644.971, 803.469 644, 801.421 644 C 796.939 644, 788.928 640.820, 787.352 638.414 C 786.519 637.143, 785.086 631.741, 784.168 626.409 L 782.500 616.717 778 615.374 C 775.525 614.635, 773.050 614.045, 772.500 614.063 C 771.950 614.081, 768.350 619.093, 764.500 625.200" stroke="#83385f" fill="#83385f" fill-opacity="0.2" fill-rule="evenodd"/><path class="svg-region-AMC" d="M 444.455 716.455 C 441.579 719.331, 441.279 723.059, 443.750 725.222 C 444.712 726.064, 447.525 727.651, 450 728.748 C 455.422 731.151, 463.693 738.927, 464.578 742.455 C 465.554 746.344, 461.857 748.925, 455.250 748.967 C 452.363 748.985, 450 749.360, 450 749.799 C 450 750.703, 454.780 752.491, 460 753.538 C 461.925 753.925, 464.765 754.888, 466.312 755.678 C 467.858 756.468, 472.583 757.736, 476.812 758.495 C 481.040 759.254, 487.079 760.776, 490.232 761.877 C 499.008 764.943, 512.034 772.030, 516.612 776.229 C 518.873 778.303, 521.182 780, 521.743 780 C 522.304 780, 523.964 781.575, 525.432 783.500 C 526.900 785.425, 528.583 787, 529.172 787 C 531.111 787, 543.132 799.410, 545.638 804 C 546.989 806.475, 548.724 809.625, 549.494 811 C 550.264 812.375, 551.705 815.640, 552.697 818.256 C 553.689 820.872, 555.288 823.265, 556.250 823.574 C 557.212 823.882, 558 824.537, 558 825.028 C 558 825.520, 558.985 826.840, 560.189 827.961 C 562.784 830.379, 567.883 830.629, 571.931 828.536 C 575.345 826.770, 575.971 823.767, 575.230 812.703 L 574.708 804.905 571.882 805.526 C 570.038 805.931, 568.032 805.541, 566.107 804.404 C 563.003 802.571, 562.418 801.662, 558.961 793.321 C 557.781 790.473, 555.957 787.366, 554.908 786.416 C 553.858 785.467, 553 784.180, 553 783.557 C 553 781.140, 547.266 776.178, 542.500 774.473 C 537.625 772.728, 532.277 769.494, 519.678 760.673 C 516.280 758.294, 510.724 755.173, 507.331 753.738 C 503.938 752.302, 499.312 749.960, 497.051 748.532 C 491.068 744.755, 478.063 732.099, 477.384 729.393 C 477.063 728.116, 476.042 726.831, 475.114 726.536 C 474.186 726.242, 471.283 723.976, 468.663 721.500 C 465.826 718.820, 462.957 717, 461.571 717 C 460.292 717, 457.629 716.325, 455.654 715.500 C 450.533 713.360, 447.271 713.638, 444.455 716.455" stroke="#9d4741" fill="#9d4741" fill-opacity="0.2" fill-rule="evenodd"/><path class="svg-region-PNr" d="M 269.500 643.536 C 265.835 645.214, 259 645.435, 259 643.875 C 259 641.620, 252.532 643.949, 249.750 647.205 C 247.592 649.732, 247 651.442, 247 655.153 C 247 657.754, 247.392 660.124, 247.871 660.420 C 248.350 660.716, 248.993 662.217, 249.301 663.756 C 249.609 665.294, 250.844 667.804, 252.047 669.333 L 254.233 672.112 255.806 669.867 C 258.056 666.654, 260.843 664, 261.965 664 C 264.500 664, 270.522 656.923, 274.027 649.825 L 277.891 642 275.195 642.081 C 273.713 642.126, 271.150 642.781, 269.500 643.536" stroke="#bbc0d1" fill="#bbc0d1" fill-opacity="0.2" fill-rule="evenodd"/><path class="svg-region-OVr" d="M 561.585 401.717 C 560.595 404.898, 559.270 408.175, 558.642 409 C 555.815 412.713, 555 415.374, 555 420.891 L 555 426.810 559.428 429.405 C 561.864 430.832, 564.721 432, 565.778 432 C 566.835 432, 569.564 433.350, 571.841 435 C 574.969 437.266, 577.074 438, 580.442 438 C 582.916 438, 585.257 437.444, 585.700 436.750 C 586.140 436.063, 587.825 434.822, 589.444 433.993 C 591.139 433.126, 593.411 430.498, 594.798 427.805 C 596.455 424.584, 598.189 422.747, 600.353 421.916 L 603.500 420.709 597.791 419.895 C 594.650 419.448, 590.364 418.206, 588.266 417.136 C 584.046 414.983, 576.654 407.487, 573.207 401.865 C 571.981 399.865, 569.971 398.010, 568.739 397.743 C 567.508 397.476, 565.799 396.960, 564.943 396.596 C 563.730 396.080, 562.988 397.213, 561.585 401.717" stroke="#593939" fill="#593939" fill-opacity="0.2" fill-rule="evenodd"/>
    </svg>