<svg xmlns="http://www.w3.org/2000/svg" width="1078" height="1151" viewBox="0 0 1078 1151" version="1.1">
    <path class="svg-region-V" d="M 494 203.967 C 492.625 204.426, 489.194 204.845, 486.376 204.900 C 483.557 204.955, 479.507 205.608, 477.376 206.352 C 475.244 207.096, 471.210 208.001, 468.411 208.365 C 465.612 208.729, 458.412 210.815, 452.411 213.001 C 446.410 215.187, 440.735 216.981, 439.800 216.988 C 438.865 216.994, 437.740 217.563, 437.300 218.250 C 436.860 218.938, 434.925 220.235, 433 221.134 C 426.851 224.004, 418.065 231.215, 415.589 235.422 C 414.269 237.665, 410.880 242.134, 408.056 245.353 C 399.657 254.928, 391.269 266.557, 385.926 276.035 C 383.165 280.933, 380.490 285.197, 379.980 285.512 C 379.471 285.827, 378.577 287.978, 377.994 290.292 C 375.536 300.049, 368.019 323.623, 361.346 342.500 C 357.029 354.710, 356.127 366.002, 357.915 385.443 C 359.624 404.040, 359.925 404.847, 368.155 412.948 C 376.228 420.894, 382.070 423.540, 389.859 422.781 C 397.534 422.034, 408.624 415.677, 417.735 406.802 C 423.850 400.845, 438.708 378.231, 441.804 370.167 C 447.199 356.118, 463.110 336.028, 469.920 334.666 C 477.541 333.142, 481.788 333.848, 486.748 337.466 C 492.815 341.891, 498.167 348.169, 501.749 355.064 C 504.824 360.983, 511.251 366.142, 517.823 367.967 C 522.749 369.336, 530.923 369.269, 535.101 367.826 C 541.952 365.461, 552.125 358.110, 563.035 347.645 C 570.140 340.829, 576.306 335.865, 579.957 334.021 C 583.117 332.427, 587.007 330.029, 588.601 328.692 C 592.921 325.073, 600.375 322, 604.834 322 C 607.104 322, 609.693 321.257, 610.931 320.250 C 613.020 318.552, 613.051 318.202, 611.971 308.500 C 610.951 299.339, 608.836 287.134, 605.819 273 C 604.134 265.109, 599.548 256.074, 595.093 251.868 C 592.977 249.870, 588.609 247.249, 585.386 246.043 C 582.163 244.837, 579.295 243.527, 579.013 243.131 C 578.159 241.932, 570.973 238, 569.637 238 C 567.640 238, 553.545 228.478, 549.388 224.321 C 545.529 220.463, 538.669 215.973, 529.546 211.335 C 522.636 207.822, 519.843 206.982, 510 205.452 C 505.325 204.725, 500.375 203.906, 499 203.632 C 497.625 203.358, 495.375 203.509, 494 203.967" stroke="#dd8a8a" fill="#dd8a8a" fill-opacity="0.2" fill-rule="evenodd"/><path class="svg-region-SV" d="M 467.500 335.556 C 460.791 339.008, 446.244 358.324, 442.275 369.050 C 441.146 372.102, 438.484 377.307, 436.361 380.617 C 434.237 383.926, 430.700 389.529, 428.500 393.067 C 426.300 396.605, 421.435 402.592, 417.689 406.370 C 409.802 414.327, 409.440 416.671, 416.268 415.586 C 425.222 414.162, 440.571 413.302, 442.184 414.133 C 446.796 416.508, 461.362 413.715, 465.432 409.676 C 466.637 408.479, 468.946 406.848, 470.562 406.051 C 472.178 405.253, 475.750 402.934, 478.500 400.897 C 484.183 396.686, 491.754 394.096, 500.500 393.371 C 507.094 392.823, 517.317 389.527, 519.106 387.372 C 520.607 385.563, 524.086 385.640, 531.212 387.639 C 534.425 388.541, 537.269 389.064, 537.532 388.802 C 537.794 388.539, 537.498 386.859, 536.874 385.069 C 535.780 381.930, 536.142 374.223, 537.624 369.081 C 538.231 366.977, 538.073 366.769, 536.411 367.478 C 533.090 368.895, 522.631 369.247, 518.322 368.087 C 511.617 366.281, 504.854 360.977, 501.798 355.128 C 498.104 348.056, 492.740 341.719, 486.892 337.518 C 482.645 334.467, 481.233 334.001, 476.248 334.006 C 473.041 334.010, 469.174 334.695, 467.500 335.556" stroke="#c666b5" fill="#c666b5" fill-opacity="0.2" fill-rule="evenodd"/><path class="svg-region-SF" d="M 609.971 321.039 C 609.162 321.551, 607.150 321.979, 605.500 321.990 C 600.910 322.022, 595.623 323.761, 591.882 326.470 C 590.022 327.817, 585.125 330.829, 581 333.164 C 575.956 336.018, 569.870 340.944, 562.415 348.204 C 556.319 354.142, 551.083 359, 550.779 359 C 549.396 359, 538.137 367.202, 537.600 368.600 C 536.082 372.556, 535.806 381.237, 537.055 385.731 C 538.083 389.429, 539.967 392.099, 545.441 397.620 C 551.321 403.552, 553.693 405.188, 559.646 407.418 C 567.596 410.397, 575.100 416.870, 577.708 423 C 580.619 429.844, 583.917 432.979, 592.491 437.052 C 597.061 439.224, 601.632 440.984, 602.650 440.965 C 605.564 440.909, 608.590 438.839, 612.592 434.164 C 614.628 431.785, 617.410 429.415, 618.774 428.896 L 621.253 427.953 620.532 409.727 C 619.925 394.393, 619.508 391.005, 617.905 388.382 C 616.857 386.667, 616 383.891, 616 382.213 C 616 380.535, 615.364 376.538, 614.586 373.331 C 613.684 369.613, 612.974 359.030, 612.625 344.122 C 612.324 331.265, 611.935 320.602, 611.760 320.427 C 611.585 320.252, 610.780 320.527, 609.971 321.039" stroke="#8c6b55" fill="#8c6b55" fill-opacity="0.2" fill-rule="evenodd"/><path class="svg-region-AAB" d="M 632.250 491.662 C 631.563 491.940, 631 493.173, 631 494.402 C 631 496.080, 628.943 498.042, 622.750 502.271 C 613.237 508.766, 610.388 510, 604.903 510 C 602.721 510, 599.320 510.675, 597.346 511.500 C 591.361 514, 587.375 513.417, 585.374 509.749 C 584.511 508.165, 584.075 508.309, 580.821 511.249 C 578.841 513.037, 575.399 515.965, 573.170 517.757 C 570.624 519.804, 567.900 523.490, 565.836 527.682 L 562.553 534.350 562.527 557.592 C 562.501 579.626, 562.609 580.982, 564.591 583.667 C 570.492 591.661, 578.380 593.860, 604.157 594.702 C 620.234 595.227, 621.702 594.742, 629.688 586.271 C 637.394 578.098, 646.362 558.170, 647.587 546.500 C 647.933 543.200, 648.903 538.040, 649.742 535.033 C 652.077 526.668, 650.944 513.424, 647.223 505.581 C 645.636 502.236, 643.821 498.262, 643.190 496.750 C 642.559 495.238, 641.246 493.986, 640.271 493.968 C 639.297 493.951, 637.626 493.276, 636.559 492.468 C 634.506 490.915, 634.229 490.864, 632.250 491.662" stroke="#7f3c1a" fill="#7f3c1a" fill-opacity="0.2" fill-rule="evenodd"/><path class="svg-region-APB" d="M 579.246 437.676 C 575.532 439.718, 572.402 442.256, 571.539 443.926 C 569.535 447.800, 565.457 460.456, 564.265 466.500 C 563.722 469.250, 562.051 475.100, 560.551 479.500 C 557.450 488.595, 554.933 496.793, 552.566 505.500 C 551.669 508.800, 550.499 512.882, 549.967 514.571 C 546.892 524.334, 552.720 539.035, 560.608 541.410 C 562.534 541.990, 562.765 541.564, 563.291 536.470 C 564.117 528.468, 568.106 522.132, 577 514.694 C 584.129 508.732, 584.528 508.177, 585.072 503.461 C 585.793 497.207, 587.756 490.269, 589.027 489.483 C 589.562 489.153, 590 486.712, 590 484.060 C 590 481.354, 591.097 476.323, 592.500 472.596 C 593.875 468.943, 595 464.803, 595 463.395 C 595 461.987, 596.350 457.759, 598 454 C 602.022 444.835, 601.967 441.573, 597.750 439.300 C 594.924 437.777, 585.500 433.792, 585.500 434.120 C 585.500 434.185, 582.686 435.785, 579.246 437.676" stroke="#ac7444" fill="#ac7444" fill-opacity="0.2" fill-rule="evenodd"/><path class="svg-region-PC" d="M 533.552 495.835 C 533.207 496.924, 532.266 498.068, 531.462 498.376 C 530.515 498.740, 530 500.353, 530 502.960 C 530 505.900, 529.462 507.319, 528 508.232 C 525.455 509.821, 525.383 513.669, 527.884 514.463 C 530.995 515.451, 536 520.863, 536 523.239 C 536 524.461, 535.037 527.785, 533.860 530.625 C 531.698 535.842, 526.652 540, 522.485 540 C 520.943 540, 520.839 540.605, 521.579 545.250 C 522.421 550.533, 522.460 553.635, 521.844 566.500 C 521.527 573.115, 521.756 573.990, 526.004 582.409 C 530.728 591.769, 530.849 591.888, 538 594.211 C 540.779 595.114, 542.954 596.573, 543.686 598.025 C 544.339 599.319, 546.139 601.045, 547.686 601.861 C 550.895 603.553, 564.071 604.585, 569.490 603.568 C 573.152 602.881, 581 596.779, 581 594.618 C 581 593.986, 578.772 592.678, 576.048 591.711 C 569.489 589.381, 565.499 585.874, 563.524 580.703 C 562.209 577.259, 561.961 573.230, 562.202 559.248 L 562.500 542.033 559.849 540.936 C 558.391 540.333, 556.287 538.863, 555.174 537.670 C 552.293 534.581, 549 525.633, 549 520.893 C 549 516.621, 544.935 509.469, 540.901 506.643 C 539.619 505.745, 538.630 503.658, 538.292 501.139 C 537.993 498.908, 536.945 496.355, 535.964 495.468 C 534.313 493.974, 534.135 494.001, 533.552 495.835" stroke="#cda789" fill="#cda789" fill-opacity="0.2" fill-rule="evenodd"/><path class="svg-region-DB" d="M 519.047 387.444 C 517.332 389.510, 506.496 392.845, 499.737 393.387 C 491.659 394.034, 484.344 396.631, 478.500 400.926 C 475.750 402.947, 472.150 405.244, 470.500 406.029 C 468.850 406.815, 466.419 408.487, 465.097 409.745 C 461.641 413.036, 452.980 415.313, 446.679 414.587 C 438.472 413.641, 426.056 413.927, 419.137 415.221 C 413.434 416.288, 412.644 416.234, 411.518 414.693 C 410.361 413.112, 409.842 413.263, 405.003 416.591 C 398.088 421.348, 392.002 423.351, 386.174 422.788 C 379.738 422.167, 375.480 419.892, 368.749 413.479 C 365.586 410.466, 362.496 408, 361.884 408 C 360.620 408, 361.573 418.321, 363.101 421.184 C 363.596 422.111, 364 423.773, 364 424.878 C 364 425.983, 364.829 427.475, 365.841 428.193 C 368.434 430.033, 370 433.343, 370 436.984 C 370 438.697, 370.668 441.392, 371.486 442.972 C 372.521 444.975, 372.900 448.366, 372.736 454.172 C 372.474 463.419, 371.722 461.980, 383.280 474.344 C 385.358 476.568, 387.294 479.538, 387.581 480.944 C 388.491 485.404, 392.227 498.439, 393.056 500.047 C 393.705 501.306, 395.725 501.561, 403.927 501.419 C 409.596 501.321, 414.588 500.757, 415.344 500.130 C 416.083 499.516, 420.020 498.320, 424.093 497.471 C 428.167 496.622, 433.075 495.507, 435 494.995 C 450.004 491.001, 462.683 488.796, 470.500 488.820 C 473.250 488.828, 481.992 489.503, 489.926 490.319 L 504.352 491.802 507.253 488.901 C 509.587 486.567, 511.026 486, 514.612 486 C 520.476 486, 523.602 488.203, 526.153 494.135 C 528.830 500.357, 530.641 500.494, 534.293 494.754 C 535.343 493.104, 535.807 491.079, 535.455 489.677 C 535.027 487.970, 535.758 486.260, 538.185 483.297 C 540.008 481.070, 541.978 478.438, 542.562 477.448 C 543.522 475.822, 544.178 475.760, 549.360 476.800 C 555.099 477.953, 558 479.742, 558 482.129 C 558 484.592, 559.704 481.482, 562.349 474.193 C 563.807 470.174, 565 465.613, 565 464.057 C 565 461.737, 568.430 450.970, 571.418 443.910 C 572.270 441.897, 570.666 440.684, 565.002 439.061 C 562.528 438.351, 558.303 435.929, 555.614 433.677 L 550.723 429.582 551.377 417.041 L 552.030 404.500 544.718 396.939 C 538.287 390.290, 536.679 389.173, 531.387 387.689 C 524.016 385.621, 520.616 385.553, 519.047 387.444" stroke="#e8b1e4" fill="#e8b1e4" fill-opacity="0.2" fill-rule="evenodd"/><path class="svg-region-MB" d="M 465 488.954 C 464.175 489.512, 461.847 489.976, 459.826 489.985 C 454.474 490.007, 446.073 491.793, 431.500 496.007 C 429.850 496.484, 425.851 497.349, 422.613 497.929 C 419.375 498.508, 416.110 499.494, 415.357 500.119 C 414.604 500.743, 409.830 501.356, 404.744 501.479 C 399.660 501.603, 395.132 501.771, 394.683 501.852 C 393.610 502.046, 394.861 506.070, 396.618 508.079 C 397.478 509.061, 398.012 512.085, 398.032 516.079 C 398.051 519.982, 398.611 523.223, 399.459 524.342 C 400.227 525.355, 401.166 528.055, 401.545 530.342 C 401.924 532.629, 403.281 537.299, 404.561 540.719 C 405.840 544.140, 407.401 550.665, 408.030 555.219 C 408.658 559.774, 409.527 564.192, 409.962 565.038 C 410.397 565.885, 411.076 568.585, 411.472 571.038 C 411.868 573.492, 413.324 578.831, 414.708 582.902 C 416.870 589.258, 417.068 590.829, 416.113 594.018 C 415.501 596.061, 415 600.073, 415 602.933 C 415 607.684, 415.174 608.080, 417.005 607.498 C 418.755 606.943, 419.696 608.306, 424.379 618.181 C 430.449 630.979, 435.747 637.019, 442.687 639.052 C 446.375 640.133, 447.390 640.041, 451.187 638.283 C 453.559 637.185, 458.405 635.994, 461.956 635.637 C 465.507 635.280, 468.860 634.540, 469.406 633.994 C 469.953 633.447, 470.994 633, 471.721 633 C 473.486 633, 489.721 625.154, 493.500 622.474 C 504.147 614.924, 519.293 609.952, 525.451 611.984 C 531.033 613.826, 535.920 611.777, 540.779 605.555 C 544.435 600.874, 544.731 600.090, 543.660 597.919 C 542.859 596.295, 540.710 594.915, 537.121 593.721 C 530.599 591.552, 529.247 589.955, 524.450 578.755 L 520.684 569.962 521.965 561.724 C 523.037 554.836, 523.016 552.450, 521.838 547.148 L 520.431 540.809 515.370 540.641 C 511.140 540.500, 509.865 539.983, 507.595 537.486 C 503.313 532.776, 501.047 527.099, 501.015 521 C 500.996 517.223, 500.364 514.560, 499 512.500 C 495.957 507.905, 496.369 502.252, 500.120 497.151 C 501.837 494.817, 502.929 492.596, 502.549 492.215 C 502.168 491.835, 495.926 490.941, 488.678 490.230 C 481.430 489.518, 473.475 488.712, 471 488.437 C 468.525 488.163, 465.825 488.395, 465 488.954" stroke="#f9c6c6" fill="#f9c6c6" fill-opacity="0.2" fill-rule="evenodd"/><path class="svg-region-PP" d="M 514.271 612.498 C 508.435 613.924, 498.551 618.761, 492.553 623.127 C 490.382 624.707, 488.129 626, 487.545 626 C 486.962 626, 484.260 627.184, 481.542 628.631 C 474.477 632.392, 463.666 635.992, 459.269 636.048 C 455.156 636.100, 448.401 638.933, 448.665 640.495 C 448.756 641.032, 451.398 642.378, 454.536 643.486 C 457.675 644.594, 461.875 647.004, 463.871 648.843 C 473.363 657.587, 503.774 675.525, 510.767 676.505 C 512.820 676.793, 517.605 676.684, 521.400 676.264 L 528.299 675.500 525.637 672.341 C 519.570 665.141, 518.337 654.009, 522.462 643.671 C 523.816 640.277, 525.833 634.575, 526.944 631 C 528.056 627.425, 530.736 621.575, 532.899 618 C 535.063 614.425, 536.676 611.343, 536.484 611.150 C 536.291 610.958, 534.515 611.335, 532.537 611.988 C 529.888 612.862, 528.118 612.888, 525.821 612.087 C 522.112 610.795, 521.099 610.831, 514.271 612.498" stroke="#c4743d" fill="#c4743d" fill-opacity="0.2" fill-rule="evenodd"/><path class="svg-region-LPr" d="M 637.250 577.978 C 636.013 578.505, 634.997 579.288, 634.993 579.718 C 634.978 581.247, 624.447 591.735, 621.300 593.354 C 617.383 595.369, 599.153 595.631, 589.293 593.814 L 582.856 592.628 578.879 597.280 C 576.273 600.329, 573.625 602.288, 571.201 602.961 C 565.651 604.502, 554.591 604.220, 550.099 602.423 C 544.897 600.341, 543.402 601.229, 537.844 609.705 C 531.520 619.350, 529.185 624.001, 525.992 633.317 C 524.449 637.818, 522.426 643.525, 521.494 646 C 519.453 651.427, 519.853 662.920, 522.243 667.500 C 524.241 671.329, 530.621 677.724, 534.500 679.786 C 540.119 682.773, 604.949 683.658, 618 680.927 C 620.475 680.408, 627.271 679.584, 633.102 679.095 C 639.499 678.558, 645.002 677.533, 646.977 676.512 C 653.348 673.218, 668.939 659.218, 668.986 656.750 C 668.994 656.337, 671.405 656, 674.345 656 C 680.461 656, 681.906 654.848, 683.950 648.348 C 685.064 644.806, 685.025 643.521, 683.684 639.585 C 682.820 637.049, 680.571 633.067, 678.687 630.737 C 676.804 628.407, 674.592 624.925, 673.772 623 C 670.575 615.495, 670 613.846, 670 612.188 C 670 609.932, 667.170 604.740, 659.996 593.832 C 651.107 580.316, 648.612 577.802, 643.664 577.377 C 641.374 577.181, 638.487 577.451, 637.250 577.978" stroke="#d2454f" fill="#d2454f" fill-opacity="0.2" fill-rule="evenodd"/><path class="svg-region-DMr" d="M 375.241 606.986 C 374.558 608.079, 374 609.587, 374 610.339 C 374 611.755, 382.190 632.113, 384.050 635.321 C 384.631 636.323, 385.548 641.032, 386.088 645.786 C 386.628 650.540, 387.700 656.470, 388.470 658.965 C 389.239 661.459, 390.753 667.325, 391.833 672 C 392.914 676.675, 395.142 685.675, 396.785 692 C 398.428 698.325, 400.527 706.875, 401.449 711 C 402.371 715.125, 404.022 722.196, 405.118 726.712 C 406.763 733.494, 406.894 735.323, 405.867 737.212 C 405.183 738.471, 404.520 740.175, 404.393 741 C 404.267 741.825, 403.878 743.400, 403.530 744.500 C 402.910 746.454, 403.289 746.494, 420.044 746.220 C 436.397 745.953, 437.486 746.057, 443.517 748.470 C 451.463 751.649, 454.815 751.655, 459.102 748.497 C 460.971 747.121, 463.233 745.733, 464.128 745.413 C 466.083 744.714, 468 740.810, 468 737.530 C 468 736.223, 469.157 733.778, 470.572 732.097 C 473.792 728.270, 473.426 725.161, 469.500 723 C 467.850 722.092, 466.362 720.414, 466.193 719.270 C 466.024 718.127, 467.978 713.322, 470.535 708.593 C 474.968 700.395, 475.371 699.964, 479.178 699.356 C 481.374 699.004, 483.406 698.106, 483.693 697.358 C 483.979 696.611, 485.403 695.990, 486.857 695.978 C 488.311 695.966, 491.463 695.065, 493.863 693.976 C 498.527 691.860, 498.497 691.976, 496.487 683.977 C 495.905 681.660, 496.248 681.337, 500.677 680.026 C 503.330 679.240, 506.850 678.316, 508.500 677.972 L 511.500 677.347 508.500 676.167 C 506.850 675.518, 504.375 674.361, 503 673.598 C 481.665 661.749, 475.417 657.946, 469.500 653.211 C 465.650 650.129, 462.160 647.057, 461.744 646.382 C 461.328 645.708, 459.528 644.837, 457.744 644.447 C 455.960 644.057, 452.243 642.706, 449.484 641.446 C 446.726 640.187, 443.126 638.821, 441.484 638.413 C 439.843 638.004, 437.024 636.281, 435.220 634.585 C 433.416 632.888, 431.147 631.453, 430.178 631.397 C 426.512 631.181, 423.983 628.753, 419.092 620.751 C 416.318 616.213, 413.667 611.927, 413.201 611.227 C 412.525 610.212, 411.575 610.280, 408.506 611.562 C 406.091 612.571, 402.952 613.006, 400.079 612.729 C 395.492 612.287, 384.826 608.226, 382.721 606.121 C 380.911 604.311, 376.600 604.810, 375.241 606.986" stroke="#68533d" fill="#68533d" fill-opacity="0.2" fill-rule="evenodd"/><path class="svg-region-VMr" d="M 505.825 707.577 C 504.354 708.351, 499.404 710.142, 494.825 711.556 C 485.587 714.408, 478.697 717.626, 476.353 720.184 C 475.504 721.110, 474.222 723.577, 473.504 725.665 C 472.251 729.310, 472.326 729.623, 475.349 733.434 C 478.380 737.254, 479.788 739.751, 486.943 754 C 488.738 757.575, 491.398 762.857, 492.853 765.738 C 494.916 769.821, 497.045 772.053, 502.500 775.850 C 509.037 780.401, 511.962 781.537, 519.500 782.455 C 521.150 782.655, 525.875 783.575, 530 784.497 C 536.093 785.860, 540.175 786.045, 551.755 785.483 C 559.596 785.103, 566.259 784.389, 566.563 783.898 C 566.867 783.406, 569.581 781.838, 572.593 780.413 C 578.915 777.422, 581.063 774.672, 581.712 768.736 C 582.114 765.065, 581.366 762.888, 576.105 752.419 C 569.892 740.053, 567.888 737.665, 554.068 726.158 C 545.972 719.418, 532.438 710.652, 527.536 708.974 C 520.370 706.520, 509.198 705.802, 505.825 707.577" stroke="#e59376" fill="#e59376" fill-opacity="0.2" fill-rule="evenodd"/><path class="svg-region-PMr" d="M 283.500 710.892 C 272.119 715.270, 266.384 718.413, 264.974 721.048 C 262.518 725.638, 264.687 734.712, 268.421 735.470 C 279.935 737.807, 284.571 738.428, 291.003 738.497 C 295.130 738.541, 299.093 738.940, 299.810 739.383 C 301.779 740.599, 305.789 739.240, 306.459 737.130 C 306.784 736.104, 306.589 734.050, 306.025 732.567 C 305.461 731.084, 304.966 726.412, 304.924 722.185 C 304.882 717.958, 304.282 712.925, 303.590 711 C 302.432 707.779, 301.980 707.482, 297.916 707.273 C 294.785 707.112, 290.590 708.165, 283.500 710.892" stroke="#90cf92" fill="#90cf92" fill-opacity="0.2" fill-rule="evenodd"/><path class="svg-region-PV" d="M 228.008 656.500 C 227.969 658.150, 227.276 660.374, 226.468 661.441 C 224.613 663.893, 224.587 669.685, 226.415 673.189 C 227.187 674.668, 228.124 679.393, 228.497 683.689 C 229.295 692.862, 232.868 706.874, 236.295 714.268 C 237.628 717.146, 240.777 722.200, 243.292 725.500 C 256.604 742.968, 258.918 746.353, 259.552 749.292 C 260.672 754.481, 263.632 759.482, 267.184 762.187 C 271.590 765.541, 277.722 768.588, 281.871 769.484 C 286.098 770.397, 300.806 769.116, 298.989 767.993 C 297.101 766.826, 299.471 761.513, 303 759 C 304.505 757.929, 306.289 755.716, 306.965 754.084 C 307.994 751.600, 307.934 750.744, 306.597 748.835 C 305.719 747.581, 305 745.080, 305 743.277 C 305 740.511, 304.636 740, 302.667 740 C 301.383 740, 300.012 739.678, 299.619 739.285 C 299.225 738.892, 295.438 738.534, 291.202 738.490 C 286.966 738.446, 280.575 737.827, 277 737.114 C 273.425 736.402, 269.565 735.646, 268.421 735.433 C 264.386 734.685, 262.410 724.715, 265.440 720.389 C 268.120 716.563, 291.358 706.978, 297.864 707.015 C 301.532 707.037, 302.518 707.912, 304.004 712.465 C 305.086 715.782, 305.414 716.109, 306.014 714.465 C 306.408 713.384, 307.055 709.440, 307.450 705.700 C 308.501 695.768, 311.540 686.156, 314.983 681.872 C 316.642 679.807, 318 677.391, 318 676.502 C 318 675.614, 319.450 673.563, 321.223 671.944 C 322.995 670.325, 324.008 668.963, 323.473 668.918 C 322.938 668.873, 320.025 668.882, 317 668.937 C 310.547 669.056, 303.804 667.370, 295.089 663.460 C 290.288 661.305, 288.407 660.889, 287.115 661.696 C 286.184 662.277, 283.528 663.073, 281.212 663.464 C 278.896 663.855, 276.663 664.725, 276.251 665.395 C 275.640 666.387, 271.897 668.477, 264.750 671.816 C 264.337 672.009, 264 671.229, 264 670.083 C 264 668.367, 263.380 668, 260.478 668 C 257.742 668, 255.899 667.051, 252.228 663.750 C 249.627 661.413, 247.356 659.179, 247.179 658.787 C 247.002 658.395, 243.337 658.345, 239.034 658.677 L 231.211 659.280 229.645 656.390 L 228.080 653.500 228.008 656.500" stroke="#b09658" fill="#b09658" fill-opacity="0.2" fill-rule="evenodd"/><path class="svg-region-LPVr" d="M 371 648.925 C 365.775 649.276, 360.517 650.111, 359.316 650.782 C 358.114 651.452, 355.565 652, 353.650 652 C 351.160 652, 348.077 653.383, 342.834 656.851 C 338.800 659.518, 334.038 662.328, 332.250 663.095 C 330.462 663.861, 329 664.828, 329 665.244 C 329 665.660, 328.446 666, 327.769 666 C 326.249 666, 318 674.729, 318 676.337 C 318 676.980, 316.469 679.659, 314.599 682.291 C 308.365 691.058, 304.596 713.741, 305.922 734.500 C 306.027 736.150, 305.804 739.269, 305.426 741.430 C 304.924 744.301, 305.211 746.237, 306.492 748.614 C 308.195 751.778, 308.183 751.968, 306.041 755.434 C 304.829 757.395, 303.417 759, 302.904 759 C 301.760 759, 298.009 764.994, 298.004 766.829 C 297.999 768.516, 303.011 767.531, 307.985 764.867 C 309.902 763.840, 312.602 762.986, 313.985 762.968 C 315.368 762.951, 317.374 762.276, 318.441 761.468 C 319.509 760.661, 321.084 759.997, 321.941 759.994 C 322.799 759.990, 324.720 759.351, 326.210 758.574 C 327.701 757.796, 331.976 756.949, 335.710 756.691 C 339.445 756.433, 344.075 755.551, 346 754.731 C 351.300 752.473, 356.387 751, 358.886 751 C 360.120 751, 363.238 750.135, 365.815 749.078 C 372.313 746.412, 384.518 744.900, 393.445 745.655 C 402.306 746.404, 403.137 745.934, 405.446 738.876 C 406.678 735.108, 406.852 733.023, 406.132 730.663 C 405.600 728.923, 403.953 722.100, 402.470 715.500 C 399.384 701.758, 396.071 688.455, 392.509 675.500 C 391.148 670.550, 390.026 665.218, 390.017 663.651 C 390.008 662.084, 389.348 659.384, 388.552 657.651 C 387.755 655.918, 386.968 653.150, 386.802 651.500 C 386.449 647.996, 385.971 647.918, 371 648.925" stroke="#494949" fill="#494949" fill-opacity="0.2" fill-rule="evenodd"/><path class="svg-region-Fr" d="M 322.287 517.250 C 321.153 518.487, 319.284 521.377, 318.132 523.672 C 314.719 530.474, 305.574 539.623, 300.202 541.610 C 297.509 542.606, 293.791 545.149, 291.500 547.560 C 288.019 551.225, 286.138 552.183, 277 554.946 C 271.225 556.693, 265.299 558.657, 263.831 559.311 C 257.740 562.024, 241.242 580.488, 237.065 589.265 C 235.957 591.594, 234.596 594.175, 234.040 595 C 232.309 597.573, 228.210 607.356, 227.546 610.500 C 227.197 612.150, 226.666 618.450, 226.365 624.500 L 225.817 635.500 229.893 636.750 C 235.867 638.582, 242.509 638.291, 247 636 C 249.156 634.900, 251.838 634, 252.960 634 C 254.082 634, 255.006 633.438, 255.014 632.750 C 255.031 631.184, 265.721 627.697, 267.321 628.735 C 267.970 629.156, 271.829 629.725, 275.899 630 C 282.467 630.444, 283.521 630.800, 285.288 633.176 C 287.340 635.933, 287.427 637.065, 286.411 647.844 C 285.675 655.651, 286.556 661, 288.579 661 C 289.397 661, 292.189 662.067, 294.783 663.372 C 305.683 668.854, 318.990 670.593, 325.300 667.360 C 327.060 666.459, 328.725 665.423, 329 665.058 C 329.275 664.694, 331.091 663.656, 333.036 662.752 C 334.981 661.848, 339.629 659.059, 343.365 656.554 C 347.833 653.558, 351.242 651.995, 353.328 651.985 C 355.073 651.977, 358.300 651.321, 360.500 650.529 C 362.700 649.736, 367.250 649.068, 370.610 649.044 C 373.971 649.020, 378.865 648.706, 381.485 648.347 L 386.248 647.694 385.691 642.597 C 385.373 639.688, 382.745 631.933, 379.567 624.528 C 376.505 617.393, 374.014 610.868, 374.032 610.028 C 374.073 608.050, 376.395 605, 377.860 605 C 380.658 605, 378.173 597.764, 372.509 589.419 C 371.129 587.385, 370 584.696, 370 583.443 C 370 582.191, 369.100 579.066, 368 576.500 C 366.900 573.934, 366.001 570.409, 366.003 568.667 C 366.005 566.925, 365.042 561.450, 363.863 556.500 C 360.364 541.806, 357.029 533.722, 351.693 527 C 343.756 517.002, 340.105 515, 329.808 515 C 325.424 515, 323.943 515.443, 322.287 517.250" stroke="#5ca7a9" fill="#5ca7a9" fill-opacity="0.2" fill-rule="evenodd"/><path class="svg-region-PCr" d="M 259.755 629.876 C 257.146 630.769, 255.008 632.063, 255.005 632.750 C 255.002 633.438, 254.137 634, 253.083 634 C 252.029 634, 248.991 634.934, 246.333 636.075 C 241.483 638.158, 233.769 638.395, 229.770 636.585 C 228.173 635.862, 228.088 636.556, 228.657 645.651 C 228.997 651.068, 229.678 656.288, 230.172 657.250 C 231.133 659.123, 236.086 659.542, 243.250 658.358 C 246.291 657.855, 247 657.312, 247 655.484 C 247 651.720, 249.300 647.534, 253.282 644.047 C 256.929 640.854, 257.306 640.753, 263.790 641.217 C 267.489 641.482, 271.953 642.441, 273.708 643.349 C 275.464 644.257, 278.872 645, 281.281 645 C 286.904 645, 288.876 642.184, 287.075 636.727 C 285.323 631.418, 283.342 630.221, 275.500 629.735 C 271.650 629.496, 267.600 629.064, 266.500 628.776 C 265.400 628.487, 262.365 628.982, 259.755 629.876" stroke="#465ee0" fill="#465ee0" fill-opacity="0.2" fill-rule="evenodd"/><path class="svg-region-Or" d="M 721.500 183.960 C 719.850 184.432, 715.172 185.319, 711.105 185.931 C 702.946 187.158, 692.245 192.138, 687.005 197.146 C 683.217 200.766, 672.355 215.307, 671.554 217.831 C 671.231 218.846, 667.950 222.112, 664.262 225.088 C 660.574 228.065, 656.419 231.783, 655.028 233.352 C 653.638 234.920, 650.924 237.897, 648.999 239.966 C 647.073 242.035, 644.206 246.602, 642.627 250.114 C 641.049 253.626, 639.286 257.400, 638.709 258.500 C 635.230 265.141, 633.106 298.779, 634.953 318 C 635.613 324.875, 636.769 340.625, 637.522 353 C 639.364 383.286, 641.742 412.291, 642.933 419 C 643.470 422.025, 644.420 429.896, 645.045 436.491 C 645.669 443.086, 646.321 448.711, 646.493 448.991 C 646.664 449.271, 647.773 455.125, 648.956 462 C 651.210 475.101, 652.943 481.511, 656.254 489 C 657.349 491.475, 659.489 497.358, 661.012 502.073 C 664.364 512.458, 666.710 517.173, 673.268 526.700 C 683.272 541.235, 707.820 562.745, 721.950 569.357 C 727.768 572.080, 729.704 572.451, 739.984 572.810 C 746.318 573.031, 754.120 572.723, 757.321 572.127 C 765.887 570.530, 776.029 565.251, 778.697 561 C 779.905 559.075, 782.923 555.217, 785.403 552.426 C 801.369 534.465, 806.817 523.010, 813.431 493.500 C 820.342 462.659, 822.642 450.316, 824.051 436.500 C 824.612 431, 825.475 424.925, 825.968 423 C 827.120 418.511, 827.849 411.251, 828.530 397.500 C 828.829 391.450, 829.543 384.925, 830.116 383 C 832.164 376.124, 829.211 329.680, 826.082 319.553 C 825.563 317.874, 824.836 314.025, 824.467 311 C 822.795 297.298, 815.304 273.855, 808.886 262.240 C 806.534 257.983, 803.102 251.575, 801.259 248 C 791.824 229.694, 782.538 217.781, 765.636 202.300 C 751.537 189.385, 741.085 183.657, 731.001 183.320 C 727.425 183.200, 723.150 183.488, 721.500 183.960" stroke="#aa444d" fill="#aa444d" fill-opacity="0.2" fill-rule="evenodd"/><path class="svg-region-VOC" d="M 507.360 488.750 C 505.710 490.262, 502.704 493.702, 500.680 496.394 C 496.340 502.165, 495.771 507.624, 499 512.500 C 500.364 514.560, 500.996 517.223, 501.015 521 C 501.047 527.109, 503.315 532.782, 507.613 537.500 C 510.170 540.307, 510.784 540.491, 517.145 540.362 C 526.587 540.169, 531.856 537.087, 534.274 530.343 C 535.229 527.679, 536.008 524.491, 536.005 523.259 C 536 520.865, 531.003 515.453, 527.884 514.463 C 525.406 513.677, 525.474 510.345, 528 508.768 C 529.491 507.836, 530 506.436, 530 503.259 C 530 500.917, 529.605 499, 529.123 499 C 528.641 499, 527.304 496.811, 526.153 494.135 C 523.613 488.230, 520.477 486, 514.715 486 C 511.358 486, 509.673 486.630, 507.360 488.750" stroke="#ff8f93" fill="#ff8f93" fill-opacity="0.2" fill-rule="evenodd"/><path class="svg-region-OABr" d="M 618.500 428.701 C 617.400 428.936, 614.925 431.157, 613 433.636 C 609.493 438.152, 605.451 441, 602.550 441 C 601.460 441, 601 441.989, 601 444.331 C 601 446.162, 599.872 449.875, 598.494 452.581 C 597.116 455.286, 595.579 459.975, 595.079 463 C 594.578 466.025, 593.231 470.675, 592.085 473.333 C 590.832 476.236, 590 480.306, 590 483.524 C 590 486.471, 589.580 489.142, 589.066 489.459 C 587.497 490.429, 585 500.506, 585 505.869 C 585 509.849, 585.413 511.151, 586.934 511.965 C 589.488 513.331, 593.611 513.279, 596.289 511.845 C 597.476 511.210, 601.706 510.371, 605.690 509.981 C 612.406 509.324, 613.571 508.835, 621.716 503.254 C 628.362 498.700, 630.575 496.619, 630.808 494.702 C 631.202 491.466, 633.637 490.532, 636.606 492.477 C 639.211 494.184, 642 494.487, 642 493.062 C 642 490.602, 638.769 478.628, 636.979 474.450 C 635.873 471.871, 634.319 466.036, 633.525 461.484 C 632.731 456.932, 631.163 449.701, 630.041 445.415 C 628.918 441.130, 628 436.889, 628 435.992 C 628 434.135, 622.794 427.929, 621.411 428.136 C 620.910 428.211, 619.600 428.465, 618.500 428.701" stroke="#81244d" fill="#81244d" fill-opacity="0.2" fill-rule="evenodd"/><path class="svg-region-SOTr" d="M 542.250 477.133 C 541.563 477.830, 541 478.901, 541 479.513 C 541 480.125, 539.667 481.903, 538.037 483.464 C 535.397 485.994, 535.112 486.844, 535.423 491.272 C 535.614 494.004, 536.203 496.524, 536.731 496.870 C 537.259 497.217, 537.952 499.154, 538.270 501.175 C 538.663 503.666, 540.163 506.163, 542.925 508.925 C 545.166 511.166, 547 513.708, 547 514.573 C 547 517.176, 550.464 515.747, 550.839 512.990 C 551.026 511.620, 552.560 506, 554.249 500.500 C 555.945 494.975, 557.359 488.048, 557.409 485.020 C 557.490 480.115, 557.238 479.416, 555 478.354 C 550.853 476.385, 543.666 475.697, 542.250 477.133" stroke="#995b45" fill="#995b45" fill-opacity="0.2" fill-rule="evenodd"/><path class="svg-region-BPCr" d="M 690.750 638.811 C 687.587 640.837, 684.993 643.171, 684.985 643.998 C 684.962 646.277, 682.609 652.561, 681.096 654.384 C 680.166 655.505, 678.109 656, 674.378 656 C 671.420 656, 668.993 656.337, 668.984 656.750 C 668.952 658.299, 660.255 666.897, 653.752 671.808 C 646.289 677.445, 642.194 678.950, 634 679.067 C 630.975 679.111, 626.025 679.586, 623 680.123 C 613.261 681.853, 579.089 682.918, 557.859 682.154 C 537.682 681.427, 537.127 681.350, 533.131 678.705 C 530.182 676.754, 527.767 676, 524.464 676 C 518.032 676, 506.093 677.946, 502.349 679.604 C 500.616 680.372, 498.426 681, 497.482 681 C 496.113 681, 495.904 681.556, 496.444 683.750 C 498.373 691.583, 498.349 691.768, 495.207 693.393 C 493.559 694.245, 490.324 695.244, 488.019 695.613 C 485.714 695.981, 483.594 696.894, 483.307 697.642 C 483.021 698.389, 481.746 699, 480.475 699 C 476.347 699, 474.953 700.155, 471.701 706.267 C 469.940 709.576, 467.944 713.231, 467.265 714.391 C 465.101 718.085, 465.743 720.872, 469.250 723.011 C 471.038 724.101, 472.725 724.977, 473 724.958 C 473.275 724.939, 474.400 723.545, 475.500 721.860 C 477.952 718.104, 483.705 715.115, 495.500 711.467 C 500.450 709.937, 505.404 708.100, 506.508 707.386 C 509.266 705.602, 523.034 707.037, 529.158 709.746 C 534.624 712.164, 547.507 720.682, 554.381 726.423 C 566.320 736.395, 570.945 742.045, 576.301 753.204 C 581.051 763.098, 581.703 763.986, 583.843 763.475 C 587.385 762.629, 592 765.044, 592 767.744 C 592 770.327, 593.632 770.593, 596.441 768.468 C 597.509 767.661, 599.016 767, 599.790 767 C 600.564 767, 602.616 766.390, 604.349 765.644 C 606.082 764.899, 611.550 762.934, 616.500 761.277 C 630.306 756.658, 634.751 754.937, 644.500 750.437 C 658.871 743.804, 660.095 743.294, 668.168 740.579 C 672.385 739.161, 678.010 736.913, 680.668 735.584 C 683.325 734.254, 687.300 732.844, 689.500 732.448 C 691.700 732.053, 695.075 730.960, 697 730.020 C 698.925 729.080, 703.650 727.275, 707.500 726.011 C 711.350 724.746, 715.918 723.101, 717.651 722.355 C 719.384 721.610, 721.470 721, 722.286 721 C 724.577 721, 727 716.489, 727 712.223 C 727 708.335, 729.937 700.969, 732.770 697.750 C 733.617 696.788, 735.581 696, 737.135 696 C 738.688 696, 741.656 695.363, 743.730 694.585 C 745.803 693.807, 748.703 692.907, 750.173 692.586 C 753.499 691.858, 758.635 687.618, 760.414 684.131 C 761.152 682.684, 761.546 680.109, 761.288 678.409 C 760.880 675.715, 759.001 674.096, 746.660 665.807 C 738.872 660.576, 730.475 655.397, 728 654.298 C 725.525 653.199, 721.084 650.320, 718.132 647.900 C 709.259 640.628, 700.652 634.996, 698.514 635.064 C 697.406 635.099, 693.913 636.785, 690.750 638.811" stroke="#83385f" fill="#83385f" fill-opacity="0.2" fill-rule="evenodd"/><path class="svg-region-AMC" d="M 469.655 732.829 C 468.745 733.835, 468 735.889, 468 737.394 C 468 738.900, 467.549 740.974, 466.998 742.004 C 466.243 743.415, 466.514 744.757, 468.096 747.439 C 469.252 749.397, 470.543 751, 470.966 751 C 471.388 751, 472.925 752.800, 474.381 755 C 476.746 758.573, 477.461 759, 481.080 759 C 483.308 759, 486.040 759.486, 487.151 760.081 C 488.262 760.676, 489.419 760.915, 489.721 760.613 C 490.309 760.024, 486.024 750.902, 482.278 744.770 C 481.025 742.718, 480 740.554, 480 739.961 C 480 738.345, 473.843 731, 472.488 731 C 471.840 731, 470.565 731.823, 469.655 732.829 M 528 784.989 C 528 785.368, 529.125 786.192, 530.500 786.818 C 531.875 787.445, 533 788.396, 533 788.933 C 533 789.469, 535.296 792.967, 538.103 796.704 C 540.910 800.442, 543.628 804.625, 544.143 806 C 544.659 807.375, 546.148 810.750, 547.452 813.500 C 548.756 816.250, 550.049 819.221, 550.324 820.103 C 550.686 821.264, 552.569 821.865, 557.152 822.280 C 560.632 822.596, 563.689 822.645, 563.945 822.389 C 564.200 822.133, 563.817 820.478, 563.092 818.712 C 559.058 808.879, 558.159 798.486, 560.880 793.145 C 561.341 792.240, 562.002 790.003, 562.349 788.174 L 562.980 784.848 550.740 785.475 C 544.008 785.820, 536.138 785.696, 533.250 785.200 C 530.362 784.704, 528 784.609, 528 784.989" stroke="#9d4741" fill="#9d4741" fill-opacity="0.2" fill-rule="evenodd"/><path class="svg-region-PNr" d="M 252.973 644.292 C 248.835 648.055, 246.971 651.848, 247.074 656.297 C 247.177 660.783, 255.480 668, 260.537 668 C 263.380 668, 264 668.373, 264 670.083 C 264 671.229, 264.337 672.009, 264.750 671.816 C 271.964 668.446, 275.645 666.378, 276.283 665.338 C 276.713 664.635, 279.353 663.757, 282.149 663.386 L 287.232 662.712 286.616 658.216 C 286.277 655.744, 286 651.759, 286 649.360 L 286 645 282.215 645 C 280.134 645, 275.870 644.100, 272.740 643 C 269.611 641.900, 264.676 641.019, 261.775 641.042 C 257.268 641.077, 255.987 641.550, 252.973 644.292" stroke="#bbc0d1" fill="#bbc0d1" fill-opacity="0.2" fill-rule="evenodd"/><path class="svg-region-OVr" d="M 551.640 411.734 C 551.288 415.896, 551 421.667, 551 424.558 C 551 429.604, 551.190 429.973, 555.752 433.792 C 558.366 435.981, 562.528 438.351, 565.002 439.061 C 567.476 439.770, 569.990 440.716, 570.589 441.164 C 571.610 441.927, 582.202 437.198, 584.405 434.995 C 585.030 434.370, 584.615 433.219, 583.236 431.751 C 582.060 430.499, 580.202 427.456, 579.108 424.988 C 576.497 419.098, 568.328 410.861, 562.856 408.599 C 560.460 407.608, 557.100 406.206, 555.390 405.482 L 552.279 404.166 551.640 411.734" stroke="#593939" fill="#593939" fill-opacity="0.2" fill-rule="evenodd"/><path class="svg-region-HRr" d="M 414.545 608.950 C 412.752 610.932, 412.830 611.159, 418.263 619.737 C 421.493 624.838, 425.125 629.281, 426.953 630.370 C 428.681 631.398, 430.257 632.073, 430.456 631.870 C 430.790 631.528, 423.594 615.738, 420.489 610 C 418.739 606.765, 416.828 606.428, 414.545 608.950" stroke="#d9dba1" fill="#d9dba1" fill-opacity="0.2" fill-rule="evenodd"/>
    </svg>