<svg xmlns="http://www.w3.org/2000/svg" width="1078" height="1151" viewBox="0 0 1078 1151" version="1.1">
    <path class="svg-region-V" d="M 482.500 232.009 C 471.984 233.920, 453.074 240.991, 446.500 245.470 C 440.729 249.403, 430.634 258.946, 426.998 263.908 C 425.624 265.783, 424.050 267.814, 423.500 268.422 C 421.391 270.753, 416.161 278.841, 411.489 287 C 400.270 306.589, 397.071 315.532, 395.930 330.500 C 395.469 336.550, 394.623 344.200, 394.052 347.500 C 391.894 359.950, 392.936 366.048, 400.205 383.500 C 404.546 393.923, 407.296 397.470, 413.389 400.507 C 417.458 402.534, 419.874 403, 426.320 403 C 433.295 403, 435.217 402.563, 442.306 399.362 L 450.364 395.723 471.932 395.904 C 486.946 396.029, 495.905 396.565, 501.415 397.666 C 515.191 400.419, 523.899 398.544, 531.267 391.236 C 533.340 389.181, 538.448 384.125, 542.620 380 C 546.792 375.875, 550.795 371.375, 551.516 370 C 552.237 368.625, 554.254 365.925, 555.998 364 C 558.894 360.805, 567 347.957, 567 346.563 C 567 346.240, 568.562 342.719, 570.470 338.738 C 572.602 334.292, 574.373 328.607, 575.061 324 C 575.677 319.875, 576.676 314.771, 577.281 312.657 C 579.071 306.404, 576.512 277.022, 573.614 270.547 C 572.371 267.771, 570.742 263.925, 569.994 262 C 565.722 251.006, 551.969 240.673, 533.852 234.847 C 525.577 232.186, 523.396 231.924, 506.184 231.529 C 495.908 231.293, 485.250 231.509, 482.500 232.009" stroke="#dd8a8a" fill="#dd8a8a" fill-opacity="0.2" fill-rule="evenodd"/><path class="svg-region-AAB" d="M 582.327 550.280 C 580.772 551.534, 577.025 553.843, 574 555.412 C 559.156 563.110, 548.544 581.368, 551.812 593.586 C 552.465 596.029, 553 599.590, 553 601.499 C 553 603.893, 553.875 605.948, 555.824 608.129 L 558.648 611.289 569.709 610.246 C 575.792 609.673, 582.284 608.546, 584.135 607.742 C 585.986 606.939, 588.715 605.788, 590.201 605.184 C 593.984 603.648, 601.570 593.621, 603.528 587.569 C 604.430 584.781, 606.522 579.816, 608.178 576.535 C 610.891 571.159, 611.078 570.203, 610.071 566.844 C 608.873 562.843, 602.223 556.426, 596.016 553.282 C 594.082 552.302, 591.427 550.712, 590.115 549.750 C 586.987 547.455, 585.723 547.541, 582.327 550.280" stroke="#7f3c1a" fill="#7f3c1a" fill-opacity="0.2" fill-rule="evenodd"/><path class="svg-region-DB" d="M 442.682 399.227 C 435.420 402.535, 433.591 402.957, 426.419 402.977 C 419.755 402.996, 417.477 402.563, 413.419 400.504 C 410.714 399.131, 408.387 398.006, 408.250 398.004 C 408.113 398.002, 408 399.566, 408 401.480 C 408 403.394, 407.280 406.760, 406.399 408.961 C 404.450 413.832, 404.953 434.080, 407.320 446 C 410.833 463.697, 412.974 472.312, 414.400 474.488 C 416.395 477.532, 421.557 478.362, 433.272 477.522 C 442.659 476.849, 449.270 477.972, 469 483.590 C 472.025 484.451, 476.975 485.771, 480 486.523 C 483.025 487.274, 489.100 489.106, 493.500 490.593 C 503.011 493.807, 514.317 495.588, 534 496.973 C 541.975 497.534, 549.513 498.157, 550.750 498.358 C 553.049 498.731, 553.801 497.613, 552 496.500 C 550.015 495.273, 550.897 483.512, 553.491 476.620 C 556.762 467.929, 558.051 466, 560.586 466 C 563.305 466, 565.990 463.005, 566.036 459.921 C 566.055 458.590, 566.723 454.800, 567.520 451.500 C 568.317 448.200, 568.976 442.491, 568.984 438.813 C 568.998 432.823, 568.713 431.847, 566.250 429.450 C 564.737 427.979, 561.700 426.157, 559.500 425.402 C 554.825 423.799, 546.392 423.556, 545.500 425 C 545.160 425.550, 543.160 426, 541.056 426 C 535.996 426, 534.100 423.077, 533.102 413.738 C 532.683 409.818, 531.815 406.438, 531.170 406.223 C 530.527 406.009, 530 405.182, 530 404.385 C 530 403.589, 529.366 402.694, 528.590 402.396 C 527.815 402.099, 526.894 400.714, 526.544 399.320 C 526.004 397.167, 525.500 396.877, 523.204 397.397 C 515.673 399.103, 509.572 399.170, 501.303 397.636 C 495.386 396.539, 485.675 395.921, 471.682 395.752 L 450.863 395.500 442.682 399.227" stroke="#e8b1e4" fill="#e8b1e4" fill-opacity="0.2" fill-rule="evenodd"/><path class="svg-region-IBr" d="M 544 545.364 C 537.166 548.793, 535.234 550.194, 533.900 552.688 C 533.123 554.139, 531.371 555.206, 529.089 555.619 C 527.115 555.975, 524.285 556.882, 522.800 557.634 C 521.314 558.385, 518.160 559, 515.789 559 C 511.510 559, 511.456 559.045, 508.282 565.250 C 506.106 569.505, 504.912 573.495, 504.542 577.750 C 504.244 581.188, 503.736 586.678, 503.414 589.951 C 502.860 595.574, 503.007 596.126, 506.081 599.951 C 508.583 603.064, 510.030 604, 512.343 604 C 514.936 604, 524.037 607.760, 533.175 612.606 C 537.047 614.659, 540.428 612.854, 541.897 607.948 C 543.055 604.085, 546.440 600.903, 550.848 599.533 C 552.798 598.927, 553.082 598.355, 552.526 596.152 C 550.823 589.403, 550.892 586.799, 552.937 580.468 C 556.678 568.887, 562.572 561.891, 573.757 555.755 C 579.802 552.438, 579.950 552.264, 578.115 550.604 C 577.071 549.659, 573.580 547.576, 570.358 545.974 C 562.577 542.107, 551.022 541.839, 544 545.364" stroke="#b10e0e" fill="#b10e0e" fill-opacity="0.2" fill-rule="evenodd"/><path class="svg-region-MB" d="M 417.364 479.278 C 417.621 480.264, 416.346 483.257, 414.501 485.999 C 411.244 490.839, 408.370 497.704, 409.238 498.571 C 409.479 498.812, 411.211 498.219, 413.088 497.254 C 415.316 496.109, 418.769 495.500, 423.039 495.500 C 428.728 495.500, 430.318 495.949, 435.274 498.952 C 442.348 503.240, 444.557 507.493, 445.536 518.717 C 446.873 534.048, 442.910 541.666, 431.598 545.511 C 426.826 547.133, 425.617 547.202, 421.828 546.067 C 419.449 545.354, 415.927 543.383, 414.001 541.687 L 410.500 538.602 410.173 541.984 C 409.656 547.336, 410.851 551.818, 412.975 552.492 C 414.907 553.105, 424.152 563.195, 429.475 570.500 C 431.078 572.700, 438.537 580.575, 446.051 588 C 460.039 601.824, 466.467 610.080, 467.581 615.655 C 468.094 618.219, 468.987 619.095, 472.356 620.335 C 477.570 622.255, 485.918 625, 486.543 625 C 486.803 625, 487.727 623.225, 488.595 621.055 C 489.622 618.487, 492.063 615.652, 495.587 612.933 C 498.564 610.636, 501 608.413, 501 607.992 C 501 607.572, 502.575 606.480, 504.500 605.567 C 506.425 604.654, 508 603.512, 508 603.030 C 508 602.548, 506.835 600.769, 505.411 599.077 C 502.608 595.745, 502.592 595.184, 504.793 577.500 C 505.753 569.785, 506.261 568.254, 509.689 562.750 C 511.762 559.422, 512.479 559, 516.062 559 C 518.283 559, 521.314 558.389, 522.800 557.643 C 524.285 556.896, 526.850 556.029, 528.500 555.715 C 530.150 555.402, 533.536 553.200, 536.025 550.823 C 541.709 545.394, 548.312 542.988, 557.500 542.997 C 563.377 543.003, 565.436 543.498, 570.338 546.081 C 573.548 547.774, 576.318 549.010, 576.492 548.829 C 576.666 548.648, 576.977 541.975, 577.183 534 C 577.527 520.697, 577.782 519.031, 580.279 513.812 C 583.576 506.919, 583.607 506.570, 580.750 508.379 C 579.513 509.162, 576.925 510.133, 575 510.536 C 573.075 510.938, 569.935 512.558, 568.022 514.134 C 563.702 517.694, 559 518.052, 559 514.821 C 559 513.623, 559.537 511.156, 560.194 509.340 C 561.337 506.180, 561.218 505.864, 557.444 502.035 C 553.757 498.294, 553.126 498.033, 547.750 498.017 L 542 498 542 501.801 C 542 505.318, 542.338 505.765, 546.527 507.801 C 549.016 509.010, 551.851 510, 552.827 510 C 555.954 510, 556.780 511.797, 555.876 516.632 C 553.028 531.881, 533.826 538.527, 525.239 527.236 C 522.681 523.873, 522.518 523.069, 522.772 515.090 C 523.008 507.665, 523.401 506.029, 525.767 502.614 C 527.265 500.453, 529.393 498.425, 530.495 498.108 C 531.808 497.731, 530.774 497.320, 527.500 496.917 C 508.830 494.620, 502.519 493.465, 495 490.967 C 487.246 488.390, 476.252 485.326, 454.500 479.678 C 448.215 478.046, 443.327 477.590, 431.700 477.550 C 417.996 477.504, 416.935 477.632, 417.364 479.278" stroke="#f9c6c6" fill="#f9c6c6" fill-opacity="0.2" fill-rule="evenodd"/><path class="svg-region-LBr" d="M 413.234 497.113 C 406.503 500.464, 404.563 504.022, 404.146 513.777 C 403.498 528.950, 409.578 541.290, 419.810 545.565 C 424.417 547.490, 427.966 547.372, 433.220 545.120 C 443.318 540.792, 446.730 533.663, 445.620 519.217 C 444.721 507.521, 442.638 503.416, 435.370 499.010 C 428.036 494.566, 419.774 493.858, 413.234 497.113" stroke="#79495c" fill="#79495c" fill-opacity="0.2" fill-rule="evenodd"/><path class="svg-region-LPr" d="M 548 600.752 C 545.602 601.950, 543.790 603.985, 542.246 607.217 C 539.414 613.145, 537.145 614.501, 533.324 612.550 C 518.980 605.228, 515.840 604, 511.456 604 C 507.226 604, 501 606.439, 501 608.095 C 501 608.461, 498.569 610.595, 495.599 612.838 C 491.681 615.796, 489.729 618.142, 488.493 621.379 C 486.867 625.638, 486.873 625.955, 488.628 628.282 C 489.639 629.623, 493.261 632.169, 496.676 633.940 C 501.605 636.495, 504.186 638.807, 509.193 645.151 C 517.227 655.331, 519.355 659.426, 518.701 663.453 C 518.421 665.178, 515.855 671.744, 512.998 678.045 C 510.141 684.345, 506.970 692.079, 505.950 695.231 C 503.917 701.515, 495.607 715.151, 491.442 719.039 C 489.992 720.393, 487.911 723.244, 486.818 725.376 C 485.725 727.508, 483.631 730.386, 482.165 731.771 C 479.089 734.678, 468.001 740, 465.022 740 C 462.358 740, 462.456 741.407, 465.250 743.270 C 466.488 744.095, 468.581 745.721, 469.903 746.885 C 471.225 748.048, 472.800 749.001, 473.403 749.003 C 474.006 749.004, 475.400 750.375, 476.500 752.049 C 478.906 755.710, 489.342 761.002, 494.143 760.996 C 499.493 760.989, 508.036 754.699, 511.320 748.348 C 514.350 742.488, 530.521 727.727, 544.183 718.349 C 552.827 712.416, 559.565 705.446, 563.572 698.294 C 565.484 694.881, 567.488 691.817, 568.024 691.485 C 568.561 691.153, 569 688.857, 569 686.383 C 569 682.443, 569.543 681.309, 573.370 677.259 C 577.301 673.098, 578.329 672.561, 583.620 671.901 C 586.854 671.498, 591.997 671.131, 595.050 671.084 C 601.311 670.989, 608.006 667.476, 609.917 663.284 C 611.424 659.976, 611.269 653.691, 609.583 649.784 C 608.804 647.978, 607.454 644.857, 606.583 642.849 C 605.713 640.841, 605 638.719, 605 638.134 C 605 637.548, 603.708 635.591, 602.129 633.785 C 595.280 625.949, 594 623.137, 594 615.926 C 594 607.315, 592.739 603.589, 590.267 604.897 C 584.211 608.102, 579.527 609.320, 569.709 610.246 L 558.648 611.289 555.824 608.129 C 554.062 606.157, 553 603.846, 553 601.984 C 553 598.506, 552.663 598.422, 548 600.752" stroke="#d2454f" fill="#d2454f" fill-opacity="0.2" fill-rule="evenodd"/><path class="svg-region-DMr" d="M 397.102 609.916 C 393.916 611.933, 397.832 630.214, 403.926 641.772 C 405.587 644.922, 407.367 649.975, 407.882 653 C 408.396 656.025, 409.488 662.550, 410.308 667.500 C 411.127 672.450, 412.046 685.159, 412.349 695.742 C 413.197 725.372, 414.579 727.237, 440.407 733.603 C 445.855 734.946, 452.325 736.935, 454.784 738.023 C 457.243 739.110, 460.885 739.993, 462.877 739.985 C 471.245 739.952, 482.737 733.396, 486.148 726.710 C 487.214 724.620, 489.585 721.243, 491.416 719.205 C 496.941 713.056, 503.951 701.414, 506.011 694.966 C 507.078 691.624, 508.599 687.677, 509.391 686.195 C 512.007 681.295, 516.726 670.562, 517.980 666.660 C 519.773 661.081, 518.652 657.544, 512.495 649.365 C 505.551 640.138, 501.348 636.008, 496.412 633.559 C 494.261 632.491, 490.700 629.992, 488.500 628.004 C 485.799 625.564, 481.764 623.471, 476.076 621.559 C 468.481 619.005, 466.767 618.784, 458.665 619.309 C 452.150 619.731, 448.142 619.470, 444.089 618.360 C 434.980 615.864, 416.699 612.011, 413.941 612.005 C 412.534 612.002, 410.509 611.339, 409.441 610.532 C 407.305 608.916, 399.311 608.517, 397.102 609.916" stroke="#68533d" fill="#68533d" fill-opacity="0.2" fill-rule="evenodd"/><path class="svg-region-PMr" d="M 328.500 673 C 327.400 673.473, 325.127 673.891, 323.450 673.930 C 321.772 673.968, 319.972 674.372, 319.450 674.826 C 318.928 675.280, 316.475 676.220, 314 676.914 C 306.486 679.020, 303.051 681.155, 296.130 688.021 C 289.916 694.184, 284 703.505, 284 707.129 C 284 709.474, 287.868 714, 289.873 714 C 290.823 714, 292.104 714.504, 292.720 715.120 C 293.335 715.735, 295.563 716.606, 297.670 717.054 C 299.776 717.502, 303.525 718.388, 306 719.023 C 308.926 719.774, 316.970 720.036, 329 719.773 C 346.624 719.388, 347.742 719.244, 352.621 716.733 C 358.286 713.817, 359.483 711.486, 357.390 707.450 C 356.625 705.977, 356 703.910, 356 702.857 C 356 701.804, 354.705 698.368, 353.121 695.221 C 351.538 692.075, 349.420 686.877, 348.414 683.672 C 345.909 675.686, 341.685 671.974, 335.215 672.070 C 332.622 672.109, 329.600 672.527, 328.500 673" stroke="#90cf92" fill="#90cf92" fill-opacity="0.2" fill-rule="evenodd"/><path class="svg-region-PV" d="M 281.500 679.227 C 279.850 679.784, 276.284 681.199, 273.577 682.370 C 269.458 684.152, 266.964 684.465, 258.318 684.288 C 248.321 684.083, 247.877 684.167, 244.741 686.855 C 242.959 688.383, 239.811 690.653, 237.747 691.900 C 233.253 694.614, 233.136 694.323, 243.099 705.255 C 247.231 709.790, 251.995 715.525, 253.685 718 C 258.291 724.745, 272.853 738.261, 278.515 741.047 C 282.587 743.051, 285.331 743.559, 293.500 743.822 C 302.521 744.112, 304.380 743.843, 312.492 741.072 C 317.438 739.382, 322.737 738, 324.269 738 C 327.835 738, 342.656 734.194, 346.250 732.356 C 348.032 731.444, 349 730.148, 349 728.674 C 349 727.423, 349.467 725.933, 350.037 725.363 C 350.717 724.683, 350.749 723.471, 350.130 721.843 L 349.187 719.361 329.843 719.774 C 316.959 720.049, 308.997 719.794, 306 719.011 C 303.525 718.365, 300.251 717.596, 298.724 717.301 C 297.198 717.006, 293.629 715.581, 290.795 714.133 C 284.137 710.732, 282.945 707.704, 285.912 701.724 C 287.753 698.014, 287.825 697.365, 286.504 696.390 C 284.446 694.871, 284.500 685.693, 286.586 682.509 C 289.257 678.433, 287.398 677.233, 281.500 679.227" stroke="#b09658" fill="#b09658" fill-opacity="0.2" fill-rule="evenodd"/><path class="svg-region-LPVr" d="M 376 595.149 C 376 596.592, 373.388 599.433, 366.259 605.745 C 363.926 607.810, 360.727 611.892, 359.151 614.816 C 355.732 621.157, 348.502 626.903, 335.754 633.410 C 328.814 636.952, 325.060 639.800, 317.592 647.188 C 312.414 652.309, 305.438 659.172, 302.089 662.437 C 298.740 665.703, 296 668.966, 296 669.687 C 296 670.409, 295.580 671, 295.067 671 C 294.554 671, 293.865 671.850, 293.535 672.889 C 293.206 673.927, 291.938 675.856, 290.718 677.175 C 286.208 682.051, 285 684.836, 285 690.358 C 285 697.274, 286.966 698.424, 290.790 693.745 C 300.658 681.675, 305.409 678.989, 326.799 673.388 C 339.194 670.142, 345.042 672.924, 348.414 683.672 C 349.420 686.877, 351.538 692.075, 353.121 695.221 C 354.705 698.368, 356 701.804, 356 702.857 C 356 703.910, 356.650 706.024, 357.444 707.555 C 358.481 709.554, 358.604 710.871, 357.881 712.223 C 357.009 713.852, 352.155 717.432, 349.688 718.267 C 349.241 718.418, 349.370 719.843, 349.975 721.434 C 350.734 723.431, 350.753 724.647, 350.037 725.363 C 349.467 725.933, 349 727.712, 349 729.316 L 349 732.233 355.250 731.632 C 358.688 731.301, 364.425 730.574, 368 730.016 C 371.575 729.459, 379.325 728.720, 385.222 728.374 C 393.993 727.860, 396.568 728.041, 399.373 729.373 C 402.957 731.073, 419.601 731.608, 423.320 730.142 C 424.875 729.529, 424.585 729.068, 421.320 726.963 C 414.299 722.436, 413.071 718.230, 412.411 696.455 C 411.570 668.692, 408.411 649.162, 403.279 640 C 399.964 634.082, 397.556 626.492, 396.458 618.500 C 395.938 614.718, 394.770 612.282, 391.664 608.500 C 389.405 605.750, 386.644 602.834, 385.529 602.020 C 384.413 601.206, 381.813 599.016, 379.750 597.153 C 377.528 595.147, 376 594.330, 376 595.149" stroke="#494949" fill="#494949" fill-opacity="0.2" fill-rule="evenodd"/><path class="svg-region-Fr" d="M 324.500 516.224 C 322.850 516.780, 320.719 517.632, 319.764 518.118 C 318.809 518.603, 317.083 519, 315.928 519 C 313.194 519, 286.411 532.807, 279.698 537.677 C 272.232 543.093, 265.043 550.025, 263.290 553.500 C 262.457 555.150, 260.026 558.606, 257.888 561.179 C 255.750 563.753, 254 566.199, 254 566.615 C 254 567.031, 252.264 569.430, 250.143 571.946 C 248.021 574.462, 245.344 578.365, 244.194 580.620 L 242.102 584.720 248.301 585.330 C 251.710 585.666, 258.269 587.113, 262.876 588.547 C 267.669 590.038, 272.268 590.898, 273.626 590.558 C 274.932 590.230, 276 590.376, 276 590.881 C 276 591.387, 278.363 592.363, 281.250 593.051 C 284.137 593.739, 291.183 596.709, 296.906 599.651 C 302.629 602.593, 307.929 605, 308.684 605 C 309.439 605, 312.750 606.359, 316.041 608.021 C 319.333 609.682, 323.932 611.299, 326.263 611.613 C 335.956 612.920, 358.985 608.389, 368.500 603.303 C 372.687 601.065, 375.921 596.980, 375.964 593.877 C 376.008 590.660, 372.793 583.215, 368.957 577.650 C 366.045 573.425, 362.233 562.321, 359.982 551.500 C 356.412 534.343, 352.797 525.627, 347.409 521.186 C 345.284 519.434, 343.023 518, 342.386 518 C 341.750 518, 339.940 517.328, 338.364 516.506 C 335.148 514.829, 329.010 514.704, 324.500 516.224" stroke="#5ca7a9" fill="#5ca7a9" fill-opacity="0.2" fill-rule="evenodd"/><path class="svg-region-PCr" d="M 240.911 587.116 C 232.547 602.420, 224.409 622.879, 226.089 624.379 C 226.315 624.580, 229.633 624.465, 233.462 624.122 C 240.309 623.510, 240.435 623.447, 241.072 620.319 C 241.970 615.904, 244.357 613.863, 249.821 612.837 C 257.158 611.460, 259.287 612.396, 263.958 619.056 C 267.304 623.826, 268.663 625, 270.837 625 C 272.327 625, 277.052 626.350, 281.337 628 C 288.950 630.932, 289.535 631, 307.045 631 L 324.962 631 325.571 633.428 C 326.578 637.440, 328.818 637.261, 337.874 632.444 C 349.841 626.078, 356.885 620.433, 358.992 615.520 C 359.943 613.301, 361.949 610.026, 363.449 608.242 C 364.950 606.459, 365.767 605, 365.264 605 C 364.761 605, 361.013 606.135, 356.934 607.523 C 348.359 610.439, 332.581 612.464, 326.057 611.486 C 323.585 611.115, 319.308 609.670, 316.554 608.274 C 313.799 606.878, 309.064 604.882, 306.032 603.839 C 303 602.796, 297.590 600.216, 294.010 598.106 C 290.429 595.996, 285.700 593.950, 283.500 593.561 C 281.300 593.171, 278.467 592.187, 277.204 591.373 C 275.923 590.548, 274.024 590.175, 272.906 590.530 C 271.153 591.086, 265.742 589.741, 258.210 586.877 C 256.951 586.398, 252.836 585.720, 249.067 585.370 C 242.565 584.765, 242.147 584.855, 240.911 587.116" stroke="#465ee0" fill="#465ee0" fill-opacity="0.2" fill-rule="evenodd"/><path class="svg-region-Or" d="M 692.500 158.024 C 690.300 158.466, 684 160.270, 678.500 162.031 C 656.143 169.192, 635.786 181.375, 620.051 197.009 C 613.200 203.816, 610.212 209.465, 606.565 222.500 C 603.199 234.531, 605.753 298.399, 610.004 308.500 C 610.467 309.600, 611.114 314.887, 611.443 320.249 C 611.970 328.852, 613.840 340.988, 616.999 356.303 C 618.187 362.066, 619.582 380.838, 620.989 410 C 621.559 421.825, 622.894 441.850, 623.955 454.500 C 626.101 480.097, 627.639 507.650, 627.219 513 C 626.817 518.120, 624.032 529.186, 622.563 531.500 C 621.865 532.600, 620.965 535.702, 620.564 538.393 C 619.545 545.230, 614.508 565.167, 613.201 567.536 C 610.991 571.544, 608.264 592.178, 609.044 599 C 612.256 627.119, 612.485 627.944, 620.411 639.866 C 628.375 651.845, 642.806 661.265, 670 672.235 L 680.500 676.470 742.500 676.696 C 800.527 676.908, 804.852 676.804, 810 675.072 C 813.025 674.054, 819.401 672.044, 824.169 670.604 C 833.400 667.816, 836.900 665.514, 850.848 653.061 C 857.681 646.959, 867.746 635.726, 875.602 625.434 C 879.699 620.068, 883.051 613.463, 885.885 605.179 C 887.074 601.702, 889.555 595.852, 891.399 592.179 C 895.394 584.218, 897.696 578.646, 904.486 560.500 C 905.927 556.650, 907.505 552.600, 907.994 551.500 C 908.484 550.400, 909.889 546.125, 911.119 542 C 912.348 537.875, 914.662 530.675, 916.262 526 C 917.861 521.325, 919.796 515.475, 920.561 513 C 922.454 506.878, 927.820 475.977, 928.571 466.878 C 928.906 462.820, 929.584 458.150, 930.078 456.500 C 932.161 449.544, 932.886 417.915, 931.431 397.500 C 928.797 360.541, 927.870 353.054, 924.623 342.500 C 923.777 339.750, 922.567 335.475, 921.934 333 C 916.516 311.819, 910.788 296.148, 904.570 285.500 C 901.679 280.550, 899.031 275.707, 898.684 274.739 C 898.338 273.770, 895.618 269.270, 892.641 264.739 C 886.137 254.839, 866.769 235.343, 849.921 221.737 C 848.040 220.218, 841.550 214.813, 835.500 209.727 C 812.713 190.571, 800.280 182.150, 779.134 171.550 C 769.520 166.731, 751.871 160.292, 743.297 158.475 C 735.839 156.895, 699.709 156.574, 692.500 158.024" stroke="#aa444d" fill="#aa444d" fill-opacity="0.2" fill-rule="evenodd"/><path class="svg-region-VOC" d="M 531.201 497.712 C 529.937 497.954, 527.634 499.903, 526.083 502.044 C 523.775 505.231, 523.136 507.407, 522.556 514.054 C 521.885 521.746, 521.986 522.380, 524.490 526.164 C 527.537 530.768, 532.052 533, 538.320 533 C 545.862 533, 554.519 525.091, 556.035 516.815 C 556.922 511.975, 555.941 510.009, 552.628 509.984 C 551.457 509.975, 548.700 508.951, 546.500 507.709 C 543.211 505.852, 542.441 504.834, 542.169 501.984 C 541.986 500.077, 541.311 498.183, 540.669 497.774 C 539.443 496.995, 535.101 496.966, 531.201 497.712" stroke="#ff8f93" fill="#ff8f93" fill-opacity="0.2" fill-rule="evenodd"/><path class="svg-region-OABr" d="M 610 484.664 C 599.251 485.719, 597.965 486.135, 594.531 489.671 C 592.638 491.620, 590.376 495.364, 589.503 497.990 C 588.631 500.616, 586.987 503.605, 585.849 504.632 C 584.712 505.660, 582.387 509.200, 580.683 512.500 C 577.681 518.314, 577.572 518.982, 577.192 534.044 C 576.861 547.156, 577.041 549.789, 578.341 550.868 C 579.620 551.930, 580.398 551.766, 582.918 549.903 C 585.483 548.006, 586.306 547.841, 588.227 548.842 C 599.594 554.761, 607.219 560.699, 609.013 565.032 C 610.473 568.557, 612.697 568.882, 613.924 565.750 C 615.583 561.515, 618.878 548.504, 620.067 541.500 C 620.720 537.650, 621.821 533.375, 622.514 532 C 623.206 530.625, 624.552 526.575, 625.505 523 C 627.518 515.447, 627.697 497.060, 625.819 490.791 C 623.918 484.446, 621.552 483.530, 610 484.664" stroke="#81244d" fill="#81244d" fill-opacity="0.2" fill-rule="evenodd"/><path class="svg-region-SOTr" d="M 564.551 463.944 C 563.584 465.013, 561.601 466.025, 560.146 466.194 C 557.855 466.459, 557.071 467.573, 554.298 474.500 C 551.889 480.518, 551.083 484.102, 551.048 488.965 C 550.997 495.805, 551.008 495.825, 558.250 502.798 C 561.049 505.493, 561.804 508.385, 560 509.500 C 559.450 509.840, 559 511.666, 559 513.559 C 559 516.707, 559.253 517, 561.965 517 C 563.802 517, 566.181 515.906, 568.215 514.128 C 570.022 512.548, 573.075 510.925, 575 510.522 C 582.207 509.013, 590 501.959, 590 496.945 C 590 496.402, 591.108 494.279, 592.462 492.229 C 594.376 489.330, 594.988 486.941, 595.212 481.500 C 595.527 473.851, 595.336 473.666, 588.936 475.421 C 586.312 476.140, 586.273 476.108, 574.750 463.860 C 572.412 461.375, 566.834 461.420, 564.551 463.944" stroke="#995b45" fill="#995b45" fill-opacity="0.2" fill-rule="evenodd"/><path class="svg-region-PNr" d="M 233.660 623.979 C 229.618 624.390, 226.474 625.233, 225.976 626.040 C 224.450 628.508, 223.754 637.179, 223.734 653.962 C 223.715 669.928, 223.824 670.823, 226.886 679.850 C 228.629 684.992, 230.678 689.821, 231.439 690.582 C 232.199 691.342, 232.996 692.488, 233.209 693.128 C 233.690 694.571, 240.819 690.747, 245.330 686.626 C 248.366 683.854, 248.742 683.773, 255.988 684.334 C 264.114 684.963, 268.218 684.314, 277.500 680.933 C 280.800 679.731, 284.935 678.790, 286.689 678.841 C 289.339 678.919, 290.261 678.307, 292.151 675.217 C 293.402 673.173, 295.004 670.905, 295.713 670.179 C 296.421 669.452, 297 668.541, 297 668.155 C 297 667.769, 299.363 665.157, 302.250 662.351 C 305.137 659.545, 312.097 652.703, 317.715 647.145 L 327.931 637.041 326.215 634.027 L 324.500 631.013 306.869 631.006 C 290.213 631, 288.858 630.854, 282.369 628.356 C 278.591 626.902, 273.587 625.398, 271.250 625.015 C 267.561 624.409, 267 624.556, 267 626.123 C 267 629.219, 263.511 630.294, 257.678 628.996 C 248.089 626.864, 242 624.904, 242 623.949 C 242 623.427, 241.662 623.064, 241.250 623.142 C 240.838 623.220, 237.422 623.597, 233.660 623.979" stroke="#bbc0d1" fill="#bbc0d1" fill-opacity="0.2" fill-rule="evenodd"/><path class="svg-region-OVr" d="M 528 399.990 C 526.689 400.905, 526.721 401.167, 528.250 402.068 C 529.212 402.635, 530 403.697, 530 404.427 C 530 405.158, 530.614 406.264, 531.364 406.887 C 532.129 407.522, 532.951 410.797, 533.236 414.349 C 533.919 422.854, 536.030 426, 541.056 426 C 543.160 426, 545.160 425.550, 545.500 425 C 545.840 424.450, 548.540 424, 551.500 424 C 554.460 424, 557.160 424.450, 557.500 425 C 557.840 425.550, 559.128 426, 560.363 426 C 561.597 426, 564.046 427.484, 565.804 429.298 C 568.733 432.319, 568.999 433.135, 568.984 439.048 C 568.976 442.596, 568.317 448.200, 567.520 451.500 C 565.214 461.050, 565.393 462, 569.500 462 C 571.618 462, 573.691 462.734, 574.750 463.860 C 587.476 477.387, 586.344 476.580, 590.426 475.028 C 595.247 473.195, 596.282 474.539, 595.521 481.646 C 594.864 487.788, 595.425 489.175, 597.664 486.936 C 598.936 485.664, 618.528 483.670, 621.774 484.481 C 624.017 485.042, 624.028 485.002, 622.555 481.477 C 621.733 479.511, 620.542 473.996, 619.906 469.221 C 619.243 464.237, 618.166 460.104, 617.378 459.519 C 616.624 458.959, 614.411 453.797, 612.461 448.049 C 608.335 435.888, 606.118 431.955, 601.334 428.306 C 599.423 426.848, 596.494 423.672, 594.826 421.248 C 592.876 418.413, 590.310 416.204, 587.633 415.057 C 585.344 414.076, 582.866 412.544, 582.126 411.652 C 579.152 408.068, 566.871 403.838, 553 401.619 C 539.008 399.380, 529.739 398.776, 528 399.990" stroke="#593939" fill="#593939" fill-opacity="0.2" fill-rule="evenodd"/><path class="svg-region-COr" d="M 248.024 613.022 C 242.583 614.302, 239.332 619.830, 241.768 623.659 C 243.743 626.763, 262.990 631.083, 265.514 628.989 C 268.483 626.524, 266.633 621.068, 260.685 614.750 C 257.937 611.832, 254.867 611.413, 248.024 613.022" stroke="#906d99" fill="#906d99" fill-opacity="0.2" fill-rule="evenodd"/><path class="svg-region-HRr" d="M 399.241 552.468 C 388.416 557.508, 378.660 565.501, 374.336 572.874 C 371.263 578.113, 371.500 582.136, 375.362 590.300 C 377.645 595.127, 379.683 597.434, 386.607 603.030 C 387.648 603.871, 389.947 606.317, 391.716 608.466 C 394.842 612.263, 394.986 612.322, 396.910 610.581 C 399.052 608.643, 404.743 608.729, 410.500 610.785 C 412.150 611.375, 419.125 612.970, 426 614.331 C 432.875 615.692, 441.015 617.499, 444.089 618.348 C 448.198 619.482, 452.119 619.733, 458.886 619.294 L 468.093 618.698 467.458 615.599 C 466.321 610.042, 459.925 601.793, 446.079 588.025 C 438.599 580.586, 431.160 572.700, 429.548 570.500 C 424.072 563.026, 415.790 554.033, 412.522 552.013 C 408.286 549.395, 405.646 549.486, 399.241 552.468" stroke="#d9dba1" fill="#d9dba1" fill-opacity="0.2" fill-rule="evenodd"/>
    </svg>