<svg xmlns="http://www.w3.org/2000/svg" width="1078" height="1151" viewBox="0 0 1078 1151" version="1.1">
    <path class="svg-region-V" d="M 472 245.392 C 456.066 251.071, 444.523 258.876, 436.754 269.223 C 433.748 273.225, 430.544 277.850, 429.632 279.500 C 427.169 283.957, 426.132 285.474, 418.748 295.412 C 414.672 300.900, 408.755 311.037, 403.813 321 C 395.662 337.435, 395.628 337.536, 395.201 346.638 C 394.928 352.442, 395.232 357.172, 396.033 359.599 C 397.370 363.650, 403.748 374.266, 405.190 374.841 C 407.040 375.578, 413.213 382.699, 415.066 386.234 C 417.463 390.804, 419.757 391.485, 429.864 390.623 C 439.367 389.813, 474.211 393.225, 480.301 395.562 C 480.968 395.818, 481.961 395.011, 482.507 393.768 C 483.053 392.525, 485.750 390.079, 488.500 388.332 C 491.250 386.586, 495.075 383.969, 497 382.518 C 498.925 381.068, 505.900 376.357, 512.500 372.051 C 528.211 361.800, 536.493 353.272, 542.057 341.618 C 544.330 336.859, 546.794 330.610, 547.534 327.732 C 548.275 324.855, 550.122 319.080, 551.641 314.901 C 554.398 307.310, 554.400 307.286, 553.359 293.401 C 552.377 280.289, 552.103 279.074, 548.531 272 C 541.461 257.998, 537.629 254.499, 523.600 249.238 C 518.595 247.361, 512.925 245.209, 511 244.456 C 508.614 243.523, 502.884 243.086, 493 243.081 C 480.366 243.076, 477.664 243.373, 472 245.392" stroke="#dd8a8a" fill="#dd8a8a" fill-opacity="0.2" fill-rule="evenodd"/><path class="svg-region-AAB" d="M 547.750 576.721 C 545.630 579.066, 545.514 584.774, 547.532 587.441 C 548.339 588.509, 549 591.046, 549 593.080 C 549 597.642, 551.173 600.240, 556.770 602.373 C 572.463 608.352, 587.645 596.050, 578.291 584.934 C 575.296 581.374, 568.891 578.056, 564.950 578.022 C 563.548 578.010, 561.966 577.566, 561.437 577.037 C 560.907 576.507, 558.004 575.783, 554.987 575.429 C 550.326 574.882, 549.236 575.077, 547.750 576.721" stroke="#7f3c1a" fill="#7f3c1a" fill-opacity="0.2" fill-rule="evenodd"/><path class="svg-region-DB" d="M 425.985 390.736 L 419.471 391.081 416.287 398.290 C 410.464 411.478, 409.971 417.620, 413.463 433.500 C 414.189 436.800, 415.072 442.650, 415.425 446.500 C 415.941 452.116, 419.368 466.266, 420.597 467.851 C 420.746 468.044, 422.361 467.081, 424.184 465.712 C 431.031 460.570, 445.809 459.462, 453.439 463.519 C 457.661 465.763, 458.902 465.964, 464.838 465.365 C 469.036 464.941, 473.534 463.664, 477 461.914 C 488.384 456.165, 504.786 455.997, 519.500 461.479 C 522.800 462.708, 528.171 464.046, 531.435 464.452 C 534.699 464.858, 538.474 465.610, 539.824 466.123 C 541.173 466.636, 542.467 466.867, 542.698 466.635 C 543.303 466.030, 537.082 446.991, 534.897 442.764 C 534.404 441.809, 534 440.107, 534 438.983 C 534 437.859, 532.886 434.294, 531.525 431.060 C 529.114 425.330, 527.564 420.116, 526.158 413.002 C 525.487 409.607, 525.299 409.483, 519.735 408.788 C 516.583 408.395, 513.133 407.606, 512.068 407.036 C 511.003 406.466, 507.915 406, 505.206 406 C 501.631 406, 498.529 405.111, 493.890 402.756 C 490.376 400.972, 487.275 399.284, 487 399.006 C 485.546 397.534, 478.462 394.991, 473.335 394.100 C 464.818 392.620, 438.995 389.950, 435.500 390.188 C 433.850 390.300, 429.568 390.547, 425.985 390.736" stroke="#e8b1e4" fill="#e8b1e4" fill-opacity="0.2" fill-rule="evenodd"/><path class="svg-region-IBr" d="M 548.726 531.999 C 547.039 533.034, 543.555 533.774, 539.840 533.885 C 535.416 534.018, 533.006 534.632, 531.114 536.106 C 524.974 540.891, 516.426 549.897, 513.180 555 C 511.256 558.025, 508.606 561.799, 507.291 563.386 C 505.637 565.382, 505.054 567.077, 505.398 568.886 C 505.671 570.324, 506.183 574.276, 506.536 577.668 L 507.177 583.837 512.339 584.526 C 515.284 584.919, 521.150 587.058, 526 589.508 C 536.313 594.715, 544.265 597.368, 546.980 596.506 C 549.421 595.732, 549.689 590.830, 547.500 587 C 545.135 582.863, 545.604 578.306, 548.596 576.345 C 551.251 574.606, 552.238 574.691, 563.861 577.670 C 566.146 578.256, 566.200 578.133, 565.534 573.888 C 565.156 571.475, 563.970 568.267, 562.900 566.759 C 560.087 562.798, 559.337 558.192, 561.378 557.408 C 563.579 556.564, 563.420 553.349, 561.026 550.306 C 559.941 548.926, 558.774 546.155, 558.433 544.149 C 558.092 542.142, 556.955 539.281, 555.907 537.790 C 554.858 536.300, 554 534.211, 554 533.147 C 554 530.439, 551.983 530, 548.726 531.999" stroke="#b10e0e" fill="#b10e0e" fill-opacity="0.2" fill-rule="evenodd"/><path class="svg-region-MB" d="M 486.500 458.470 C 483.200 459.191, 478.295 460.955, 475.601 462.390 C 472.907 463.826, 469.082 465.045, 467.101 465.100 C 465.120 465.155, 462.482 465.492, 461.238 465.850 C 459.098 466.465, 459.211 466.688, 463.324 469.977 C 469.174 474.654, 473.534 480.523, 478.611 490.553 C 483.555 500.323, 484.722 507.054, 483.263 517.392 C 480.490 537.037, 468.103 546.861, 442.750 549.524 C 439.038 549.914, 436 550.571, 436 550.985 C 436 551.966, 443.121 553.205, 449.700 553.370 C 452.559 553.441, 455.462 554.063, 456.150 554.750 C 456.837 555.438, 458.451 556, 459.735 556 C 463.062 556, 467.057 558.906, 468.522 562.391 L 469.778 565.377 471.832 560.869 C 472.962 558.389, 475.927 554.479, 478.421 552.180 C 482.822 548.123, 483.157 548, 489.791 548 C 495.942 548, 496.889 548.275, 499.260 550.750 C 502.354 553.980, 505 559.867, 505 563.519 L 505 566.103 507.603 563.302 C 509.034 561.761, 511.122 558.708, 512.241 556.518 C 514.284 552.522, 528.886 537.100, 532.349 535.281 C 534.131 534.345, 534.120 534.155, 532.050 530.098 C 529.762 525.613, 529.873 524.224, 533.054 517.500 C 536.037 511.195, 537.574 509.685, 540.452 510.236 C 543.357 510.791, 543.542 510.301, 541.468 507.559 C 540.498 506.276, 540 503.215, 540 498.536 C 540 492.104, 540.325 490.960, 543.545 486.071 C 547.266 480.422, 547.358 479.340, 544.819 471.153 C 543.588 467.186, 540.301 465.535, 531.500 464.467 C 528.200 464.066, 523.250 462.852, 520.500 461.768 C 515.246 459.698, 500.607 456.954, 495.500 457.083 C 493.850 457.125, 489.800 457.749, 486.500 458.470" stroke="#f9c6c6" fill="#f9c6c6" fill-opacity="0.2" fill-rule="evenodd"/><path class="svg-region-LBr" d="M 431 462.298 C 427.482 463.126, 425.064 464.791, 419.922 469.928 C 416.304 473.543, 412.110 478.617, 410.603 481.205 C 407.006 487.380, 405.203 499.128, 405.522 514.296 C 405.754 525.273, 405.992 526.541, 408.948 532.546 C 410.696 536.096, 412.522 539, 413.006 539 C 413.490 539, 414.925 540.731, 416.193 542.846 C 417.462 544.962, 419.950 548.338, 421.723 550.350 L 424.945 554.007 429.723 552.885 C 432.350 552.268, 435.215 551.408, 436.089 550.974 C 436.963 550.540, 440.338 549.900, 443.589 549.553 C 455.031 548.330, 467.505 543.777, 473.238 538.729 C 480.496 532.338, 484.866 518.489, 483.696 505.584 C 482.729 494.914, 472.776 477.545, 463.258 469.915 C 455.024 463.314, 449.430 460.987, 442.112 461.120 C 438.475 461.186, 433.475 461.716, 431 462.298" stroke="#79495c" fill="#79495c" fill-opacity="0.2" fill-rule="evenodd"/><path class="svg-region-LPr" d="M 503.218 596.152 C 498.569 609.656, 498.171 613.030, 500.642 617.983 C 501.637 619.978, 502.580 625.454, 503.037 631.887 C 503.801 642.653, 505.497 648.509, 508.597 651.080 C 510.759 652.873, 513 658.160, 513 661.468 C 513 668.328, 522.669 661.801, 545.541 639.500 C 551.786 633.411, 555.212 629.233, 556.135 626.584 C 556.886 624.430, 558.737 621.427, 560.250 619.911 C 561.763 618.394, 563 616.493, 563 615.686 C 563 614.878, 564.787 612.056, 566.971 609.413 C 569.154 606.770, 570.753 604.419, 570.522 604.189 C 570.292 603.959, 567.718 603.673, 564.802 603.554 C 558.384 603.292, 552.282 601.025, 550.059 598.079 C 549.049 596.739, 547.807 596.137, 546.831 596.511 C 545.307 597.096, 536.310 594.818, 532.818 592.962 C 522.230 587.335, 516.691 585.021, 512.485 584.466 L 507.469 583.805 503.218 596.152" stroke="#d2454f" fill="#d2454f" fill-opacity="0.2" fill-rule="evenodd"/><path class="svg-region-DMr" d="M 478.292 552.250 C 476.024 554.587, 473.185 558.413, 471.983 560.750 C 470.052 564.506, 469.374 565.018, 466.149 565.152 C 464.142 565.236, 461.928 565.353, 461.228 565.412 C 460.528 565.471, 458.462 567.149, 456.637 569.142 C 454.811 571.134, 452.258 573.101, 450.964 573.512 C 449.669 573.923, 445.785 576.451, 442.333 579.129 C 436.956 583.302, 435.414 584, 431.566 584 C 429.095 584, 424.695 584.941, 421.787 586.092 C 418.383 587.439, 411.337 588.706, 402 589.651 C 394.025 590.458, 385.137 591.358, 382.250 591.651 C 379.363 591.945, 377 592.347, 377 592.546 C 377 592.744, 380.488 597.540, 384.750 603.203 C 395.243 617.145, 397.385 621.762, 401.588 639.500 C 403.511 647.613, 403.958 652.236, 403.962 664 C 403.964 672.434, 403.394 681.219, 402.599 685 C 401.848 688.575, 400.931 693.975, 400.562 697 C 400.193 700.025, 398.953 705.108, 397.806 708.296 C 395.520 714.652, 392.679 716.924, 386.800 717.097 C 384.148 717.176, 385.170 717.757, 392 720.055 C 396.675 721.627, 401.412 722.934, 402.527 722.957 C 403.643 722.981, 405.512 723.671, 406.682 724.490 C 408.601 725.834, 411.528 726.422, 428.520 728.877 C 431.440 729.299, 437.296 729.070, 442.520 728.330 C 461.013 725.708, 478.063 713.554, 484.432 698.453 C 488.315 689.246, 489.644 687.503, 502.250 675.081 C 511.617 665.850, 513 664.062, 513 661.178 C 513 657.426, 511.763 654.621, 508.510 651 C 505.155 647.264, 503 639.573, 503 631.333 C 503 626.443, 502.338 622.279, 501.001 618.761 C 499.901 615.867, 499.001 612.442, 499.001 611.148 C 499 609.854, 500.857 603.329, 503.127 596.648 L 507.254 584.500 506.048 573 C 504.580 559.008, 503.654 555.814, 499.791 551.414 C 496.901 548.123, 496.533 548, 489.605 548 C 482.462 548, 482.391 548.027, 478.292 552.250" stroke="#68533d" fill="#68533d" fill-opacity="0.2" fill-rule="evenodd"/><path class="svg-region-PMr" d="M 365.934 604.079 C 361.358 609.623, 356.640 614.925, 355.450 615.861 C 354.260 616.797, 351.147 620.686, 348.534 624.504 C 339.573 637.592, 323.376 652.856, 314.521 656.556 C 312.585 657.365, 310.438 658.941, 309.750 660.058 C 309.063 661.175, 306.475 663.400, 304 665.002 C 301.525 666.604, 298.600 669.130, 297.500 670.617 C 296.400 672.103, 294.042 674.935, 292.261 676.910 C 285.203 684.731, 285.197 697.176, 292.247 704.664 C 296.368 709.042, 305.127 712.664, 313.500 713.452 C 317.350 713.815, 322.750 714.715, 325.500 715.451 C 337.541 718.678, 349.056 719.375, 370.415 718.173 C 383.158 717.455, 391.809 716.535, 393.114 715.757 C 396.121 713.964, 398.963 706.841, 400.598 697 C 401.374 692.325, 402.430 686.250, 402.945 683.500 C 404.478 675.309, 404.190 650.834, 402.462 642.468 C 400.711 633.992, 396.722 621.298, 394.397 616.802 C 391.128 610.478, 377.888 594, 376.077 594 C 374.986 594, 370.919 598.041, 365.934 604.079" stroke="#90cf92" fill="#90cf92" fill-opacity="0.2" fill-rule="evenodd"/><path class="svg-region-PV" d="M 290 677.432 C 288.625 678.175, 283.450 680.240, 278.500 682.021 C 270.790 684.795, 267.995 685.289, 259 685.470 C 253.225 685.586, 248.278 686.090, 248.007 686.590 C 247.736 687.091, 249.669 688.663, 252.302 690.085 C 254.935 691.508, 259.114 694.658, 261.589 697.085 C 266.188 701.597, 267.151 703.896, 272.520 723.179 C 275.559 734.097, 281.228 737.941, 294.341 737.978 C 302.318 738, 302.149 738.043, 336.424 727.348 C 340.418 726.102, 343.018 724.589, 344.405 722.702 C 347.010 719.159, 346.041 718.452, 337.300 717.515 C 333.775 717.138, 329.453 716.403, 327.696 715.883 C 325.938 715.363, 319.859 714.273, 314.186 713.461 C 303.625 711.950, 300.023 710.654, 294.141 706.248 C 285.971 700.128, 284.713 685.500, 291.693 677.787 C 293.602 675.678, 293.344 675.624, 290 677.432" stroke="#b09658" fill="#b09658" fill-opacity="0.2" fill-rule="evenodd"/><path class="svg-region-Fr" d="M 326.786 513.548 C 326.445 513.888, 323.998 514.167, 321.347 514.167 C 316.488 514.167, 313.420 515.414, 307 520 C 303.630 522.407, 297.229 525.806, 292 527.963 C 282.755 531.779, 273.839 541.298, 268.067 553.514 C 266.380 557.084, 265 560.345, 265 560.760 C 265 561.175, 267.040 561.352, 269.533 561.154 C 273.347 560.851, 274.477 561.204, 276.656 563.384 C 278.081 564.808, 280.879 566.462, 282.873 567.058 C 287.287 568.377, 321.534 570.334, 328.542 569.667 C 334.628 569.088, 336.247 569.888, 339.038 574.855 C 341.983 580.094, 350.327 584.649, 354.209 583.136 C 358.220 581.573, 360.790 575.486, 362.587 563.294 C 363.467 557.325, 364.985 551.159, 365.982 549.500 C 368.748 544.897, 369.501 540.130, 367.580 539.392 C 366.711 539.059, 366 537.651, 366 536.264 C 366 534.847, 364.576 532.116, 362.750 530.031 C 360.962 527.989, 358.642 525.112, 357.592 523.636 C 356.543 522.161, 353.168 519.445, 350.092 517.601 C 345.347 514.757, 343.205 514.149, 335.952 513.589 C 331.251 513.226, 327.126 513.207, 326.786 513.548" stroke="#5ca7a9" fill="#5ca7a9" fill-opacity="0.2" fill-rule="evenodd"/><path class="svg-region-PCr" d="M 265.354 561.765 C 264.724 562.169, 262.571 566.100, 260.570 570.500 C 258.570 574.900, 256.503 579.175, 255.977 580 C 255.451 580.825, 254.142 583.075, 253.069 585 C 251.995 586.925, 247.715 592.748, 243.558 597.940 C 239.401 603.132, 236 607.744, 236 608.190 C 236 609.632, 240.045 609.047, 240.631 607.520 C 240.943 606.706, 242.706 605.109, 244.549 603.970 C 246.392 602.831, 248.874 600.322, 250.065 598.394 C 253.065 593.541, 256.395 594.005, 260.469 599.843 C 266.709 608.783, 271.035 615.607, 272.615 619 C 273.512 620.925, 274.883 623.625, 275.663 625 C 282.516 637.084, 282.448 637, 286.500 638.187 C 288.700 638.832, 294.464 639.391, 299.308 639.429 C 306.878 639.490, 308.460 639.806, 310.558 641.674 C 312.679 643.563, 313 644.713, 313 650.424 C 313 654.041, 313.255 657, 313.566 657 C 318.405 657, 341.119 636.259, 347.516 626 C 349.059 623.525, 353.081 618.575, 356.454 615 C 359.827 611.425, 365.206 605.237, 368.407 601.250 C 371.608 597.263, 374.652 594, 375.172 594 C 375.693 594, 375.816 593.512, 375.447 592.915 C 375.009 592.206, 372.766 592.063, 368.985 592.502 C 362.370 593.269, 359.301 592.137, 358.820 588.752 C 358.556 586.895, 357.948 587.473, 355.356 592.047 C 351.358 599.100, 347.040 601.947, 333.433 606.500 C 320.963 610.672, 317.645 610.749, 317.196 606.880 C 316.936 604.641, 317.485 604.023, 320.966 602.630 C 323.207 601.734, 326.111 601, 327.420 601 C 330.765 601, 346.432 594.285, 348.551 591.943 C 349.519 590.875, 350.712 590, 351.203 590 C 352.432 590, 356.930 584.775, 356.968 583.302 C 356.992 582.405, 356.247 582.366, 354.003 583.149 C 351.449 584.039, 350.344 583.805, 346.530 581.570 C 344.068 580.127, 341.254 577.813, 340.277 576.427 C 335.264 569.315, 337.613 569.940, 313.998 569.442 C 287.295 568.879, 278.854 567.299, 275.700 562.274 C 274.845 560.911, 267.268 560.538, 265.354 561.765" stroke="#465ee0" fill="#465ee0" fill-opacity="0.2" fill-rule="evenodd"/><path class="svg-region-Or" d="M 712 151.586 C 694.091 156.110, 677.953 162.145, 669 167.665 C 667.075 168.852, 660.775 171.910, 655 174.461 C 625.424 187.526, 610.426 200.266, 606.393 215.748 C 604.737 222.109, 604.465 256.493, 605.965 269.887 C 606.495 274.624, 607.468 285.700, 608.125 294.500 C 608.783 303.300, 609.563 312.975, 609.859 316 C 610.861 326.244, 611.083 401.443, 610.117 403.500 C 606.545 411.105, 605.489 448.710, 607.477 497.530 C 608.508 522.861, 607.043 542.217, 603.079 555.611 C 598.332 571.653, 595.225 584.321, 594.496 590.611 C 594.121 593.850, 593.122 599.200, 592.277 602.500 C 590.002 611.382, 590.023 631.207, 592.313 637 C 593.292 639.475, 594.752 643.903, 595.557 646.840 C 597.476 653.836, 599.291 656.934, 617 683.434 C 618.925 686.314, 622.300 691.487, 624.500 694.930 C 638.185 716.341, 652.872 737.718, 656.152 740.998 C 657.857 742.703, 661.997 745.484, 665.352 747.178 C 671.444 750.253, 671.467 750.256, 683.173 749.571 C 698.150 748.695, 704.932 746.434, 727.988 734.630 C 760.191 718.142, 767.618 715.394, 786.417 713.011 C 790.374 712.509, 794.711 711.688, 796.055 711.186 C 797.400 710.683, 800.750 709.963, 803.500 709.585 C 806.250 709.206, 811.200 708.050, 814.500 707.014 C 817.800 705.979, 823.425 704.220, 827 703.105 C 836.018 700.294, 841.699 698.202, 845.370 696.339 C 859.092 689.378, 876.895 672.946, 886.367 658.500 C 899.760 638.072, 924.103 582.969, 930.985 557.500 C 931.431 555.850, 933.654 549.325, 935.924 543 C 943.883 520.832, 945.266 516.306, 951.513 492 C 952.997 486.225, 954.803 479.475, 955.525 477 C 960.709 459.250, 963.788 416.279, 961.366 395.500 C 958.929 374.604, 951.171 345.077, 944.156 330 C 943.005 327.525, 940.672 321.900, 938.973 317.500 C 937.273 313.100, 934.555 307.137, 932.933 304.250 C 931.310 301.362, 928.870 296.044, 927.511 292.432 C 926.151 288.820, 924.130 284.709, 923.019 283.297 C 921.909 281.886, 921 280.347, 921 279.879 C 921 278.844, 912.307 264.041, 906.209 254.691 C 903.767 250.947, 899.571 245.719, 896.884 243.075 C 894.198 240.431, 892 237.819, 892 237.271 C 892 236.723, 888.737 232.853, 884.750 228.671 C 878.542 222.159, 866.727 212.552, 854.181 203.812 C 852.356 202.540, 849.470 200.375, 847.768 199 C 842.171 194.478, 826.191 184.928, 807.828 175.133 C 803.608 172.882, 797.801 169.652, 794.923 167.954 C 783.735 161.358, 775.071 157.617, 761.201 153.392 C 747.275 149.151, 746.346 149.003, 734.140 149.093 C 724.335 149.165, 719.369 149.725, 712 151.586" stroke="#aa444d" fill="#aa444d" fill-opacity="0.2" fill-rule="evenodd"/><path class="svg-region-VOC" d="M 536.217 511.250 C 534.622 513.189, 530 523.693, 530 525.379 C 530 526.208, 530.944 528.486, 532.099 530.443 C 534.111 533.853, 534.431 534, 539.849 533.996 C 543.731 533.994, 546.525 533.368, 548.774 531.996 C 550.575 530.898, 552.972 530, 554.101 530 C 557.019 530, 562 524.689, 562 521.577 C 562 517.009, 558.827 515, 551.615 515 C 545.908 515, 545.056 514.735, 543.592 512.500 C 541.823 509.801, 537.949 509.144, 536.217 511.250" stroke="#ff8f93" fill="#ff8f93" fill-opacity="0.2" fill-rule="evenodd"/><path class="svg-region-OABr" d="M 598.808 490.071 C 593.819 494.981, 589.719 498.103, 587.140 498.954 C 582.853 500.369, 582.037 501.865, 582.014 508.350 C 581.989 515.382, 572.677 521.930, 569 517.500 C 567.980 516.271, 568.049 516, 569.378 516 C 570.333 516, 571 515.178, 571 514 C 571 511.337, 567.695 511.369, 563.904 514.069 C 561.299 515.924, 561.063 516.539, 561.620 520.025 C 562.166 523.442, 561.873 524.281, 559.198 526.956 C 557.524 528.630, 555.507 530, 554.716 530 C 553.008 530, 553.536 534.632, 555.514 537 C 556.203 537.825, 557.490 541.029, 558.373 544.119 C 559.257 547.210, 560.659 550.302, 561.490 550.992 C 563.489 552.651, 563.420 556.625, 561.378 557.408 C 559.450 558.148, 560.123 563.373, 562.482 565.981 C 563.285 566.867, 564.474 569.899, 565.125 572.719 C 566.214 577.440, 566.639 577.972, 570.484 579.441 C 576.264 581.648, 579.887 585.733, 580.805 591.079 C 581.400 594.538, 581.993 595.505, 583.533 595.525 C 587.228 595.571, 589.801 597.070, 590.420 599.536 C 590.935 601.587, 593 603.154, 593 601.493 C 593 597.495, 596.780 578.064, 599.126 570 C 605.042 549.670, 606.173 544.393, 607.059 533 C 608.073 519.957, 608.134 487.525, 607.150 484.500 C 606.580 482.747, 605.551 483.434, 598.808 490.071" stroke="#81244d" fill="#81244d" fill-opacity="0.2" fill-rule="evenodd"/><path class="svg-region-SOTr" d="M 554.289 468.288 C 551.431 471.310, 548.786 475.069, 548.412 476.641 C 548.038 478.213, 547.193 480.175, 546.535 481 C 539.325 490.039, 537.884 500.737, 542.642 509.908 L 545.284 515 550.577 515 C 553.488 515, 556.968 515.417, 558.309 515.928 C 560.239 516.661, 561.495 516.348, 564.321 514.428 C 568.680 511.466, 571 511.317, 571 514 C 571 515.178, 570.333 516, 569.378 516 C 568.049 516, 567.980 516.271, 569 517.500 C 570.931 519.826, 574.655 519.280, 578.149 516.158 C 580.804 513.786, 581.446 512.331, 582.033 507.353 C 582.420 504.073, 583.930 498.939, 585.389 495.944 C 587.987 490.611, 590.666 476.177, 589.581 473.351 C 589.296 472.608, 587.811 471.993, 586.281 471.985 C 582.313 471.965, 575.322 469.347, 571.549 466.470 C 569.772 465.114, 566.331 463.733, 563.901 463.400 C 559.570 462.806, 559.384 462.901, 554.289 468.288" stroke="#995b45" fill="#995b45" fill-opacity="0.2" fill-rule="evenodd"/><path class="svg-region-LBPCr" d="M 352.062 588.735 C 346.147 594.429, 336.146 599.285, 326.763 601.020 C 319.157 602.426, 316.843 603.859, 317.202 606.944 C 317.650 610.792, 321.854 610.679, 333.866 606.499 C 348.964 601.243, 352.939 598.400, 356.409 590.372 C 359.375 583.512, 358.018 583.001, 352.062 588.735" stroke="#daffff" fill="#daffff" fill-opacity="0.2" fill-rule="evenodd"/><path class="svg-region-PNr" d="M 232.923 613.806 C 223.931 631.641, 223.755 632.110, 222.804 640.767 C 222.282 645.521, 222.129 650.875, 222.465 652.665 C 223.560 658.500, 230.874 671.646, 235.809 676.648 C 245.377 686.347, 244.114 685.832, 257.535 685.504 C 266.621 685.281, 271.064 684.683, 276 683.017 C 283.751 680.402, 295 675.181, 295.001 674.199 C 295.003 672.916, 299.452 668.368, 303.681 665.326 C 311.087 659.997, 313 656.962, 313 650.540 C 313 647.421, 312.515 643.961, 311.921 642.853 C 310.272 639.772, 305.371 638.073, 301.530 639.252 C 298.360 640.225, 285.703 638.785, 283.465 637.197 C 282.084 636.218, 275.703 625.474, 272.954 619.500 C 271.059 615.383, 270.583 614.896, 270.258 616.741 C 269.626 620.331, 266.211 622.001, 259.527 621.990 C 249.524 621.974, 242.962 618.073, 240.622 610.750 C 240.298 609.736, 239.071 609, 237.704 609 C 235.889 609, 234.787 610.108, 232.923 613.806" stroke="#bbc0d1" fill="#bbc0d1" fill-opacity="0.2" fill-rule="evenodd"/><path class="svg-region-OVr" d="M 557 407 C 556.175 407.533, 550.017 407.976, 543.315 407.985 C 528.234 408.004, 526 408.704, 526 413.416 C 526 415.322, 526.450 417.160, 527 417.500 C 527.550 417.840, 528 419.254, 528 420.641 C 528 422.029, 529.350 426.241, 531 430 C 532.650 433.759, 534 437.778, 534 438.931 C 534 440.084, 534.404 441.809, 534.897 442.764 C 536.460 445.788, 545.214 471.880, 546.635 477.750 C 546.801 478.438, 547.449 479, 548.076 479 C 548.702 479, 548.975 478.377, 548.682 477.615 C 548.032 475.920, 550.015 472.841, 555.356 467.250 C 560.045 462.342, 562.604 461.933, 568.539 465.142 C 579.064 470.833, 581.779 471.940, 585.281 471.969 C 587.573 471.988, 589.274 472.551, 589.599 473.397 C 590.526 475.813, 588.174 489.352, 585.957 494.365 C 584.789 497.005, 584.026 499.360, 584.263 499.596 C 585.578 500.911, 593.163 495.949, 599.413 489.686 L 606.584 482.500 606.284 463.500 C 605.870 437.342, 605.416 435.510, 597.221 426.927 C 593.591 423.125, 589.828 419.763, 588.860 419.456 C 587.892 419.148, 586.146 417.354, 584.980 415.468 C 583.419 412.941, 581.762 411.759, 578.681 410.972 C 576.381 410.384, 572.392 409.025, 569.815 407.952 C 564.759 405.846, 559.402 405.448, 557 407" stroke="#593939" fill="#593939" fill-opacity="0.2" fill-rule="evenodd"/><path class="svg-region-COr" d="M 251.607 596.095 C 250.173 597.222, 249 598.681, 249 599.335 C 249 599.990, 247.782 601.420, 246.293 602.513 C 240.682 606.633, 239.829 607.939, 240.546 611.315 C 241.431 615.482, 243.241 617.423, 248.585 619.935 C 254.504 622.717, 265.917 622.854, 268.345 620.171 C 270.749 617.515, 270.397 615.140, 266.746 609.375 C 256.981 593.955, 255.726 592.854, 251.607 596.095" stroke="#906d99" fill="#906d99" fill-opacity="0.2" fill-rule="evenodd"/><path class="svg-region-HRr" d="M 399.776 500.750 C 395.639 505.468, 392.027 516.075, 392.011 523.550 C 391.997 530.028, 390.952 531.019, 384.892 530.301 C 380.415 529.771, 379.838 529.962, 377.102 532.891 C 375.477 534.631, 373.866 537.335, 373.522 538.901 C 373.178 540.468, 371.767 542.810, 370.386 544.107 C 365.779 548.435, 364.208 552.299, 362.588 563.287 C 361.714 569.219, 360.262 575.197, 359.363 576.569 C 358.128 578.453, 357.867 580.423, 358.298 584.602 C 359.171 593.053, 359.218 593.076, 373.863 592.398 C 380.810 592.076, 386.887 591.570, 387.366 591.274 C 387.845 590.978, 394.371 590.146, 401.868 589.426 C 409.366 588.706, 418.371 587.190, 421.880 586.058 C 425.389 584.926, 430.044 584, 432.224 584 C 435.373 584, 437.393 583.084, 442.047 579.544 C 445.269 577.094, 449.614 574.214, 451.703 573.144 C 453.791 572.075, 456.492 569.852, 457.704 568.203 C 458.915 566.555, 460.490 565.231, 461.204 565.261 C 466.442 565.480, 469 564.870, 469 563.401 C 469 560.881, 463.127 556, 460.094 556 C 458.612 556, 456.837 555.438, 456.150 554.750 C 455.462 554.063, 452.559 553.417, 449.700 553.316 C 446.840 553.214, 441.782 552.830, 438.460 552.461 C 435.043 552.081, 430.774 552.245, 428.628 552.837 C 424.995 553.840, 424.705 553.735, 421.668 550.313 C 419.926 548.349, 417.885 545.562, 417.133 544.121 C 416.382 542.679, 414.492 540.150, 412.935 538.500 C 408.050 533.326, 405.911 526.988, 405.581 516.716 C 405.061 500.507, 403.574 496.418, 399.776 500.750" stroke="#d9dba1" fill="#d9dba1" fill-opacity="0.2" fill-rule="evenodd"/>
    </svg>