<svg xmlns="http://www.w3.org/2000/svg" width="1078" height="1151" viewBox="0 0 1078 1151" version="1.1">
    <path class="svg-region-V" d="M 495.785 265.045 C 483.929 266.427, 466.456 276.412, 453.185 289.391 C 442.608 299.734, 439.214 304.300, 435.462 313.228 C 428.920 328.797, 428.812 329.285, 429.167 341.776 L 429.500 353.500 435.379 363.260 C 445.140 379.463, 449.591 382.219, 465.298 381.783 C 474.344 381.532, 475.998 381.762, 479.896 383.810 L 484.293 386.120 489.396 383.954 C 492.203 382.762, 495.400 380.963, 496.500 379.956 C 497.600 378.950, 501.650 376.671, 505.500 374.893 C 511.934 371.921, 522.683 363.114, 536.494 349.500 C 540.028 346.015, 545 337.864, 545 335.554 C 545 334.679, 546.237 331.609, 547.750 328.732 C 550.407 323.677, 550.500 322.974, 550.500 308 C 550.500 292.865, 550.432 292.370, 547.622 287 C 543.637 279.384, 538.818 274.309, 530.289 268.750 L 523.002 264 512.751 264.131 C 507.113 264.204, 499.478 264.615, 495.785 265.045" stroke="#dd8a8a" fill="#dd8a8a" fill-opacity="0.2" fill-rule="evenodd"/><path class="svg-region-DB" d="M 446.927 384.103 C 445.895 385.551, 441.616 388.434, 437.416 390.509 C 431.087 393.636, 429.521 394.899, 428.267 397.891 C 425.592 404.270, 425.070 413.387, 426.551 427.885 C 428.227 444.299, 428.343 451.967, 426.972 455.574 C 426.407 457.061, 426.130 458.464, 426.358 458.691 C 426.586 458.919, 429.861 457.458, 433.636 455.445 C 440.404 451.835, 440.626 451.791, 449.500 452.299 C 458.684 452.825, 469.205 456.066, 473.063 459.557 C 476.443 462.616, 483.910 464, 497.029 464 C 510.828 464, 517.620 462.509, 526.951 457.430 L 531.716 454.837 532.352 446.668 C 533.602 430.618, 532.993 423, 530.460 423 C 529.741 423, 527.090 421.425, 524.568 419.500 C 522.046 417.575, 519.187 416, 518.214 416 C 517.241 416, 515.557 415.392, 514.473 414.649 C 513.388 413.906, 511.353 413.020, 509.950 412.680 C 508.334 412.289, 506.778 410.758, 505.702 408.500 C 504.767 406.541, 503.215 404.637, 502.251 404.270 C 501.288 403.902, 500.050 403.247, 499.500 402.816 C 493.472 398.082, 491.317 395.960, 487.518 391.023 C 481.163 382.765, 478.505 381.775, 462.232 381.608 L 448.802 381.469 446.927 384.103" stroke="#e8b1e4" fill="#e8b1e4" fill-opacity="0.2" fill-rule="evenodd"/><path class="svg-region-IBr" d="M 514.619 532.034 C 510.729 533.199, 507.461 536.358, 502.858 543.405 C 499.581 548.420, 499 550.127, 499 554.731 C 499 559.246, 499.668 561.294, 502.998 566.996 C 508.876 577.062, 511.623 580, 515.155 580 C 516.792 580, 519.065 580.500, 520.206 581.110 C 522.057 582.101, 523.055 581.388, 529.476 574.492 C 533.434 570.242, 537.342 565.354, 538.160 563.632 C 538.978 561.909, 541.398 557.063, 543.539 552.862 C 547.938 544.227, 547.779 543.459, 540.871 539.934 C 538.801 538.878, 536.746 537.372, 536.304 536.588 C 535.123 534.493, 525.505 530.987, 521.213 531.086 C 519.171 531.133, 516.204 531.560, 514.619 532.034" stroke="#b10e0e" fill="#b10e0e" fill-opacity="0.2" fill-rule="evenodd"/><path class="svg-region-MB" d="M 526.500 457.569 C 518.542 462.305, 512.599 463.500, 497 463.500 C 489.025 463.500, 480.925 463.114, 479 462.642 L 475.500 461.784 478.638 465.142 C 480.364 466.989, 482.447 469.850, 483.266 471.500 C 488.672 482.380, 488.106 509.352, 482.273 518.877 C 474.503 531.567, 465.035 541.174, 458.994 542.501 C 457.347 542.863, 456.010 543.461, 456.021 543.829 C 456.068 545.306, 464.163 550.152, 465.637 549.586 C 466.496 549.256, 470.015 549.506, 473.458 550.140 C 477.781 550.937, 480.613 550.982, 482.609 550.286 C 486.072 549.079, 493.812 551.022, 495.671 553.565 C 497.187 555.638, 499 554.575, 499 551.612 C 499 548.829, 504.117 540.775, 509.018 535.844 C 513.749 531.083, 521.504 529.775, 528.699 532.523 C 533.655 534.416, 533.623 534.428, 536.818 529.435 C 537.193 528.849, 540.493 525.992, 544.151 523.085 C 551.118 517.549, 551.023 517.730, 552.959 506.157 C 553.451 503.218, 554.071 500.596, 554.338 500.329 C 554.605 500.062, 553.738 496.737, 552.412 492.940 C 551.085 489.144, 550 484.673, 550 483.005 C 550 480.254, 548.451 476.273, 546.885 475 C 546.546 474.725, 545.976 473.557, 545.616 472.404 C 545.257 471.252, 542.052 467.202, 538.494 463.404 C 534.936 459.607, 532.020 456.163, 532.013 455.750 C 531.993 454.601, 530.856 454.977, 526.500 457.569" stroke="#f9c6c6" fill="#f9c6c6" fill-opacity="0.2" fill-rule="evenodd"/><path class="svg-region-LBr" d="M 433.500 455.440 C 424.505 460.155, 421.423 463.116, 417.826 470.500 C 415.045 476.210, 414.916 477.056, 415.170 488 C 415.317 494.325, 415.080 507.150, 414.645 516.500 C 413.872 533.106, 413.907 533.604, 416.177 537.987 C 417.507 540.556, 420.339 543.751, 422.805 545.465 C 426.868 548.288, 427.663 548.457, 436.974 548.478 C 445.654 548.497, 447.117 548.245, 449.169 546.374 C 450.451 545.204, 453.284 543.928, 455.465 543.538 C 461.176 542.516, 463.875 540.873, 470.599 534.322 C 482.426 522.798, 486 514.687, 486.750 497.666 C 487.526 480.054, 485.069 471.503, 476.819 463.102 C 470.236 456.398, 461.646 452.936, 450 452.295 C 440.563 451.775, 440.453 451.796, 433.500 455.440" stroke="#79495c" fill="#79495c" fill-opacity="0.2" fill-rule="evenodd"/><path class="svg-region-DMr" d="M 463 551.319 C 461.075 552.659, 458.030 555.593, 456.234 557.839 C 452.338 562.711, 445.042 567.141, 430.357 573.551 C 417.669 579.090, 411.240 580.972, 404.944 580.988 C 400.300 581, 387.230 585.260, 383.330 588.033 C 382.145 588.876, 380.368 591.258, 379.381 593.327 L 377.588 597.088 380.636 599.794 C 382.312 601.282, 385.398 605.650, 387.494 609.500 C 389.590 613.350, 392.083 617.625, 393.035 619 C 393.987 620.375, 395.713 623.191, 396.870 625.257 C 398.027 627.323, 402.371 633.281, 406.523 638.496 C 413.291 646.998, 419 656.240, 419 658.694 C 419 659.192, 421.475 663.339, 424.500 667.910 C 427.525 672.482, 430 676.601, 430 677.063 C 430 677.526, 432.025 680.801, 434.500 684.341 C 439.501 691.495, 439.938 693.398, 437 695.232 C 435.900 695.919, 435 696.831, 435 697.260 C 435 698.384, 439.793 697.062, 445 694.500 C 447.475 693.282, 450.699 691.998, 452.164 691.646 C 453.630 691.293, 457.905 688.481, 461.664 685.395 C 465.424 682.310, 470.975 678.509, 474 676.949 C 477.025 675.389, 481.620 672.400, 484.211 670.306 C 494.644 661.877, 502.793 654.411, 503.263 652.851 C 503.874 650.823, 500.459 650, 491.440 650 C 483.696 650, 480.232 648.778, 479.488 645.785 C 479.176 644.528, 479.327 639.891, 479.824 635.479 C 481.496 620.629, 489.068 607.954, 506.794 590.330 C 510.207 586.937, 512.997 583.337, 512.994 582.330 C 512.990 581.323, 511.147 578.227, 508.897 575.448 C 506.647 572.670, 502.665 566.370, 500.046 561.448 C 494.959 551.886, 492.350 549.651, 486.652 549.976 C 479.078 550.407, 473.253 550.278, 470 549.606 C 467.173 549.023, 465.827 549.352, 463 551.319" stroke="#68533d" fill="#68533d" fill-opacity="0.2" fill-rule="evenodd"/><path class="svg-region-PMr" d="M 371.772 600.784 C 369.845 602.315, 366.512 605.597, 364.365 608.078 C 362.219 610.558, 358.485 614.368, 356.068 616.544 C 353.652 618.720, 350.178 622.833, 348.349 625.684 C 346.520 628.535, 343.133 632.360, 340.822 634.184 C 338.512 636.008, 332.094 642.012, 326.561 647.526 C 321.027 653.040, 313.730 659.711, 310.345 662.349 C 302.693 668.313, 296.697 675.346, 292.924 682.784 C 288.402 691.701, 288.784 693.365, 297.250 701.613 C 309.131 713.188, 323.539 718.313, 344.500 718.420 C 353.959 718.468, 358.088 718.023, 364 716.318 C 368.125 715.128, 374.505 713.665, 378.178 713.066 C 381.851 712.467, 388.826 710.804, 393.678 709.370 C 398.530 707.936, 405.200 706.698, 408.500 706.618 C 413.129 706.507, 416.843 705.481, 424.750 702.127 C 430.387 699.737, 435 697.432, 435 697.007 C 435 696.581, 435.900 695.998, 437 695.710 C 440.114 694.896, 439.409 691.139, 434.991 685 C 432.814 681.975, 430.347 677.973, 429.508 676.108 C 428.669 674.242, 426.407 670.521, 424.480 667.839 C 422.553 665.157, 419.839 660.159, 418.449 656.732 C 415.762 650.108, 414.304 647.908, 403.915 634.805 C 400.294 630.237, 397.041 625.825, 396.686 625 C 396.332 624.175, 394.931 621.700, 393.573 619.500 C 392.215 617.300, 390.479 614.375, 389.715 613 C 384.805 604.159, 383.549 602.266, 381.252 600.250 C 377.898 597.306, 376.015 597.412, 371.772 600.784" stroke="#90cf92" fill="#90cf92" fill-opacity="0.2" fill-rule="evenodd"/><path class="svg-region-PV" d="M 293.784 665.640 C 290.771 668.313, 287.420 671.211, 286.339 672.081 C 284.595 673.482, 277.058 676.776, 267.174 680.456 L 263.848 681.694 266.674 682.800 C 268.228 683.409, 271.525 684.409, 274 685.024 C 276.475 685.639, 280.856 687.685, 283.735 689.571 C 289.790 693.537, 290 693.593, 290 691.222 C 290 686.896, 296.912 675.224, 303.332 668.708 C 307.741 664.233, 309.369 661.996, 308.221 661.989 C 307.274 661.983, 304.872 661.709, 302.882 661.379 C 299.601 660.837, 298.751 661.235, 293.784 665.640" stroke="#b09658" fill="#b09658" fill-opacity="0.2" fill-rule="evenodd"/><path class="svg-region-Fr" d="M 313.500 527.058 C 311.300 527.583, 307.724 528.306, 305.553 528.665 C 303.159 529.060, 299.348 531.034, 295.863 533.684 C 292.704 536.086, 288.478 538.738, 286.471 539.576 C 284.465 540.415, 281.625 542.462, 280.161 544.127 C 278.698 545.791, 274.470 550.371, 270.767 554.304 C 266.890 558.420, 263.435 563.161, 262.622 565.477 C 261.846 567.690, 260.887 570.298, 260.490 571.272 C 259.834 572.884, 260.300 572.993, 265.634 572.480 C 272.152 571.853, 295.684 567.421, 300.751 565.867 C 302.539 565.319, 307.939 564.636, 312.751 564.349 C 321.494 563.828, 321.504 563.830, 327 567.461 C 330.025 569.459, 335.286 572.433, 338.692 574.070 C 344.211 576.723, 352 583.807, 352 586.173 C 352 586.621, 353.960 585.527, 356.355 583.743 C 358.750 581.960, 361.501 580.040, 362.467 579.478 C 364.062 578.550, 364.120 577.762, 363.101 570.978 C 361.680 561.525, 358.312 552.146, 355.316 549.298 C 354.042 548.087, 353 546.558, 353 545.901 C 353 544.007, 346.020 534, 344.697 533.997 C 344.038 533.996, 340.821 532.379, 337.546 530.405 C 332.510 527.368, 330.507 526.760, 324.546 526.459 C 320.671 526.264, 315.700 526.533, 313.500 527.058" stroke="#5ca7a9" fill="#5ca7a9" fill-opacity="0.2" fill-rule="evenodd"/><path class="svg-region-PCr" d="M 305.500 564.685 C 303.850 564.897, 301.600 565.445, 300.500 565.902 C 297.028 567.346, 270.746 572.052, 264.875 572.281 C 259.078 572.507, 257.674 573.612, 254.842 580.177 C 254.444 581.099, 252.742 583.754, 251.059 586.077 C 246.486 592.390, 247.156 596.334, 252.940 597.154 C 254.577 597.386, 256.786 599.472, 259.659 603.500 C 265.789 612.094, 266.349 613.684, 264.973 618.596 C 263.969 622.183, 264.078 623.231, 265.811 626.611 C 270.021 634.824, 277.160 639.040, 294.471 643.538 C 297.755 644.391, 301.242 645.814, 302.221 646.700 C 304.647 648.895, 304.541 655.042, 302.022 658.245 L 300.044 660.759 303.147 661.379 C 304.854 661.721, 307.202 662, 308.366 662 C 310.914 662, 321 655.255, 321 653.551 C 321 652.494, 326.461 647.234, 341.693 633.618 C 343.999 631.557, 346.993 627.981, 348.346 625.673 C 349.699 623.364, 353.212 619.175, 356.153 616.364 C 359.094 613.553, 364.139 608.492, 367.365 605.117 C 370.590 601.742, 374.190 598.731, 375.365 598.427 C 376.733 598.072, 378.323 596.016, 379.792 592.703 C 381.946 587.843, 381.979 587.458, 380.350 586.267 C 376.630 583.547, 372.171 584.714, 366.093 590 C 361.423 594.062, 359.651 595, 356.648 595 C 353.575 595, 352.782 594.556, 351.950 592.368 C 351.399 590.920, 351.223 588.873, 351.557 587.819 C 352.645 584.393, 345.427 575.826, 340.388 574.561 C 339.041 574.223, 334.207 571.708, 329.646 568.973 C 321.843 564.294, 320.974 564.009, 314.927 564.150 C 311.392 564.232, 307.150 564.473, 305.500 564.685" stroke="#465ee0" fill="#465ee0" fill-opacity="0.2" fill-rule="evenodd"/><path class="svg-region-Or" d="M 716.500 148.698 C 712.603 149.215, 697.780 153.990, 696.550 155.124 C 696.027 155.606, 694.902 156, 694.050 156.001 C 693.197 156.001, 689.647 157.351, 686.160 159.001 C 682.673 160.650, 679.015 162, 678.030 162 C 676.338 162, 650.045 175.059, 647.632 177.099 C 642.899 181.098, 631.599 189, 630.612 189 C 629.942 189, 625.818 190.737, 621.447 192.860 C 615.886 195.561, 611.957 198.361, 608.360 202.183 C 602.546 208.364, 600.237 212.458, 596.898 222.500 C 594.681 229.170, 594.579 230.727, 594.730 255.519 C 594.837 273.178, 595.388 284.881, 596.444 291.945 C 597.300 297.669, 598.011 304.411, 598.024 306.926 C 598.037 309.442, 598.496 313.300, 599.044 315.500 C 599.592 317.700, 600.485 323.511, 601.029 328.413 C 601.573 333.315, 602.465 338.940, 603.011 340.913 C 603.558 342.886, 604.467 351.700, 605.031 360.500 C 606.626 385.390, 607.810 399.753, 609.026 409 C 609.641 413.675, 610.520 423.125, 610.979 430 C 611.751 441.572, 613.433 455.449, 614.492 459 C 614.738 459.825, 615.654 465.900, 616.527 472.500 C 620.030 498.987, 620.063 496.713, 615.862 517.606 C 613.748 528.114, 610.897 539.693, 609.525 543.338 C 605.329 554.486, 597 579.851, 597 581.483 C 597 582.329, 596.115 584.929, 595.033 587.261 C 593.951 589.592, 593.106 593.075, 593.155 595 C 593.301 600.748, 591.194 616.147, 589.542 621.409 C 588.511 624.690, 588 630.296, 588 638.317 C 588 648.991, 588.349 651.431, 591.161 660.408 C 592.900 665.959, 594.897 671.400, 595.598 672.500 C 596.300 673.600, 599.392 681.475, 602.468 690 C 610.621 712.591, 611.558 714.829, 620.662 733.500 C 633.923 760.695, 638.145 767.229, 648.005 775.816 C 661.900 787.917, 667.609 789.677, 682.303 786.390 C 690.235 784.616, 699.636 780.086, 709.234 773.412 C 712.680 771.016, 717.750 767.865, 720.500 766.409 C 723.250 764.953, 731.350 760.283, 738.500 756.030 C 756.886 745.095, 786.944 728.343, 790.500 727.050 C 792.150 726.450, 794.400 725.566, 795.500 725.085 C 796.600 724.605, 799.750 723.432, 802.500 722.479 C 814.190 718.429, 837.169 707.733, 843.984 703.171 C 869.373 686.175, 883.553 673.280, 903.615 648.946 C 917.671 631.896, 926.155 620.306, 934.354 606.951 C 940.814 596.430, 949 579.909, 949 577.394 C 949 576.665, 949.643 574.590, 950.429 572.784 C 951.772 569.698, 953.086 565.490, 958.011 548.500 C 959.127 544.650, 961.133 538.800, 962.470 535.500 C 963.806 532.200, 966.057 525.450, 967.473 520.500 C 968.889 515.550, 970.518 510.150, 971.093 508.500 C 973.969 500.243, 977.279 488.556, 979.084 480.282 C 980.882 472.040, 981.052 468.334, 980.692 445.282 C 980.080 406.158, 978.006 391.955, 966.997 351.500 C 965.855 347.306, 962.386 336.917, 960.985 333.500 C 960.534 332.400, 959.707 330.150, 959.147 328.500 C 951.326 305.450, 943.186 288.820, 929.610 268.160 C 926.957 264.123, 923.661 258.049, 922.285 254.662 C 915.823 238.759, 909.976 231.468, 886.427 209.942 C 869.207 194.202, 862.609 189.003, 852.817 183.459 C 849.343 181.492, 844.925 178.955, 843 177.821 C 834.147 172.607, 813.510 162.414, 803.885 158.502 C 793.241 154.176, 779.851 150.999, 764.026 149.046 C 756.070 148.064, 723.096 147.822, 716.500 148.698" stroke="#aa444d" fill="#aa444d" fill-opacity="0.2" fill-rule="evenodd"/><path class="svg-region-VOC" d="M 541.270 525.250 C 539.099 527.038, 536.538 529.534, 535.578 530.798 C 533.969 532.919, 533.957 533.286, 535.431 535.536 C 536.310 536.877, 538.740 538.847, 540.832 539.914 C 542.923 540.981, 545.221 542.562, 545.939 543.427 C 547.795 545.663, 548.344 545.474, 553 541 C 555.290 538.800, 557.779 537, 558.531 537 C 559.961 537, 565 531.028, 565 529.333 C 565 528.795, 563.140 527.138, 560.867 525.650 C 556.946 523.082, 556.609 523.026, 554.272 524.558 C 551.951 526.079, 551.724 526.051, 550.348 524.086 C 548.302 521.165, 545.847 521.480, 541.270 525.250" stroke="#ff8f93" fill="#ff8f93" fill-opacity="0.2" fill-rule="evenodd"/><path class="svg-region-OABr" d="M 612 454.278 C 612 455.046, 608.850 460.226, 605 465.790 C 601.150 471.354, 598 476.355, 598 476.904 C 598 477.452, 597.380 478.260, 596.622 478.700 C 593.304 480.625, 590 487.275, 590 492.026 C 590 500.302, 580.510 512.169, 567 520.785 C 563.975 522.714, 561.308 524.457, 561.073 524.657 C 560.838 524.857, 561.625 525.934, 562.823 527.050 C 564.020 528.165, 565 529.328, 565 529.635 C 565 531.083, 560.699 536, 559.432 536 C 558.644 536, 556.278 537.722, 554.174 539.826 C 552.069 541.931, 549.701 543.901, 548.911 544.204 C 548.120 544.507, 545.036 549.648, 542.056 555.628 C 537.883 564.002, 534.814 568.505, 528.703 575.224 C 521.307 583.355, 520.810 584.176, 521.399 587.314 C 522.577 593.594, 527.713 596.362, 541.412 598.099 C 551.792 599.416, 553 600.124, 553 604.886 L 553 608.701 558.250 607.876 C 561.138 607.421, 566.799 606.251, 570.831 605.275 C 577.508 603.658, 578.620 603.010, 583.312 598 C 586.145 594.975, 589.785 591.825, 591.401 591 C 593.372 589.994, 594.768 588.183, 595.641 585.500 C 596.357 583.300, 598.774 575.650, 601.011 568.500 C 603.248 561.350, 606.635 551.329, 608.538 546.231 C 610.457 541.089, 613.719 528.399, 615.864 517.731 C 620.012 497.102, 619.941 499.464, 617.101 476.500 C 615.277 461.748, 613.876 454.041, 612.910 453.445 C 612.410 453.135, 612 453.510, 612 454.278" stroke="#81244d" fill="#81244d" fill-opacity="0.2" fill-rule="evenodd"/><path class="svg-region-SOTr" d="M 578.089 441.574 C 576.940 443.521, 575.990 445.426, 575.978 445.807 C 575.965 446.188, 573.757 448.073, 571.070 449.996 C 568.383 451.920, 565.356 454.764, 564.342 456.317 C 563.329 457.871, 561.150 459.839, 559.500 460.691 C 552.099 464.514, 551.636 466.566, 555.500 478.403 C 556.875 482.615, 558 487.610, 558 489.501 C 558 491.393, 556.875 495.400, 555.500 498.406 C 554.125 501.412, 553 505.449, 553 507.377 C 553 509.305, 552.550 511.160, 552 511.500 C 550.852 512.209, 550.613 526.016, 551.750 525.968 C 552.163 525.951, 553.332 525.306, 554.350 524.535 C 555.737 523.484, 556.772 523.395, 558.491 524.178 C 560.436 525.064, 561.669 524.618, 566.641 521.227 C 580.892 511.510, 590 500.276, 590 492.416 C 590 489.542, 591.034 486.025, 593.039 482.079 C 598.077 472.165, 599.313 466.629, 598.520 457.533 C 597.746 448.659, 597.135 447.073, 592.543 442 C 589.901 439.081, 588.611 438.461, 584.776 438.266 C 580.472 438.048, 580.044 438.260, 578.089 441.574" stroke="#995b45" fill="#995b45" fill-opacity="0.2" fill-rule="evenodd"/><path class="svg-region-LBPCr" d="M 364.100 579.373 C 361.381 580.037, 357.981 582.003, 355.199 584.521 C 351.031 588.295, 350.771 588.814, 351.677 591.548 C 352.493 594.012, 353.266 594.552, 356.357 594.812 C 359.556 595.082, 360.880 594.438, 366.114 590.064 C 369.444 587.281, 372.728 584.666, 373.410 584.252 C 374.093 583.839, 374.970 582.636, 375.359 581.580 C 376.672 578.023, 372.766 577.257, 364.100 579.373" stroke="#daffff" fill="#daffff" fill-opacity="0.2" fill-rule="evenodd"/><path class="svg-region-PNr" d="M 235 605.189 C 233.625 605.696, 231.150 607.409, 229.500 608.996 C 224.794 613.522, 220.106 616.597, 212 620.473 C 207.875 622.446, 203.825 624.424, 203 624.869 C 202.175 625.315, 199.363 628.317, 196.750 631.540 C 190.335 639.456, 190.225 643.695, 196.151 654.754 C 201.420 664.585, 201.762 665, 204.599 665 C 205.975 665, 207.602 665.988, 208.512 667.377 C 209.368 668.685, 211.966 670.409, 214.285 671.208 C 225.767 675.166, 229.164 676, 233.808 676 C 239.835 676, 248.734 677.856, 251.473 679.683 C 254.197 681.502, 266.344 681.391, 269.972 679.515 C 271.552 678.698, 274.985 677.302, 277.601 676.414 C 282.965 674.593, 289.787 669.773, 298.250 661.824 C 303.418 656.970, 304 656.012, 304 652.367 C 304 647.148, 302.307 645.661, 293.500 643.143 C 279.769 639.218, 277.947 638.451, 272.973 634.500 C 270.069 632.194, 266.958 628.540, 265.627 625.872 C 263.730 622.072, 263.015 621.412, 261.629 622.188 C 260.662 622.729, 256.561 622.837, 252.028 622.442 C 242.081 621.574, 240.059 619.799, 238.543 610.600 C 237.523 604.409, 237.444 604.289, 235 605.189" stroke="#bbc0d1" fill="#bbc0d1" fill-opacity="0.2" fill-rule="evenodd"/><path class="svg-region-OVr" d="M 550.673 407.899 C 544.169 411.119, 538.341 414.259, 537.723 414.877 C 537.105 415.495, 534.410 416, 531.734 416 C 526.873 416, 523 417.302, 523 418.936 C 523 419.412, 525.014 420.634, 527.475 421.651 C 533.141 423.992, 533.445 425.268, 532.550 442.930 L 531.863 456.500 537.389 462.273 C 540.428 465.449, 543.721 469.499, 544.707 471.273 C 545.693 473.048, 546.726 474.725, 547.002 475 C 548.346 476.340, 549.895 480.961, 550.376 485.063 C 550.670 487.572, 551.866 491.847, 553.034 494.563 L 555.157 499.500 556.578 496.135 C 558.606 491.336, 558.351 487.136, 555.500 478.403 C 551.854 467.234, 552.310 464.439, 558.280 461.360 C 560.051 460.446, 563.155 457.821, 565.178 455.527 C 567.201 453.233, 570.389 450.306, 572.263 449.022 C 574.136 447.739, 576.715 444.717, 577.993 442.307 L 580.318 437.925 584.909 438.579 C 589.744 439.268, 594.106 442.442, 596.482 447 C 597.199 448.375, 598.088 453.325, 598.458 458 C 599.125 466.414, 598.599 469.255, 594.480 479.500 C 592.954 483.294, 598.263 476.503, 605.500 465.403 C 613.421 453.253, 613.008 455.639, 611.378 431.500 L 610.500 418.500 605.048 418.191 C 600.408 417.928, 598.973 417.331, 595.420 414.191 C 593.124 412.161, 588.378 408.710, 584.873 406.523 C 578.991 402.852, 577.884 402.526, 570.500 402.295 C 562.557 402.046, 562.416 402.086, 550.673 407.899" stroke="#593939" fill="#593939" fill-opacity="0.2" fill-rule="evenodd"/><path class="svg-region-ODMr" d="M 513 582.080 C 513 583.303, 510.436 586.703, 506.777 590.330 C 487.333 609.610, 480.348 622.073, 479.800 638.466 C 479.503 647.328, 479.531 647.447, 482.186 648.740 C 483.953 649.600, 489.942 650.124, 499.686 650.271 L 514.500 650.494 520.987 646.497 C 527.911 642.231, 540.177 630.771, 543.995 625 C 545.269 623.075, 548.133 619.589, 550.360 617.254 C 553.194 614.282, 554.093 612.693, 553.356 611.956 C 552.766 611.366, 552.508 608.770, 552.769 606.050 C 553.328 600.233, 552.265 599.370, 543.355 598.413 C 534.985 597.514, 526.856 595.099, 524.291 592.751 C 522.936 591.511, 521.819 588.943, 521.402 586.114 C 520.646 580.984, 519.770 580.038, 515.750 580.015 C 513.627 580.003, 513 580.474, 513 582.080" stroke="#999999" fill="#999999" fill-opacity="0.2" fill-rule="evenodd"/><path class="svg-region-COr" d="M 242.782 597.255 C 238.228 601.016, 236.970 606.752, 239.054 614.257 C 240.744 620.341, 242.972 621.678, 252.777 622.495 C 261.292 623.204, 261.453 623.175, 263.709 620.551 C 267.021 616.702, 266.592 613.260, 262.019 606.973 C 259.829 603.963, 257.333 600.487, 256.472 599.250 C 255.588 597.979, 253.865 597, 252.512 597 C 251.195 597, 249.840 596.550, 249.500 596 C 248.479 594.348, 245.666 594.873, 242.782 597.255" stroke="#906d99" fill="#906d99" fill-opacity="0.2" fill-rule="evenodd"/><path class="svg-region-HRr" d="M 410.420 504.750 C 405.890 512.553, 399.843 519.513, 395.759 521.625 C 394.194 522.434, 390.022 525.549, 386.487 528.548 C 382.952 531.547, 379.102 534, 377.931 534 C 373.845 534, 368.870 537.200, 367.192 540.907 C 366.297 542.883, 364.832 545.625, 363.936 547 C 360.170 552.776, 359.892 555.656, 362.069 566.338 C 363.199 571.883, 363.904 577.261, 363.635 578.289 C 363.300 579.570, 363.572 579.994, 364.502 579.638 C 371.273 577.039, 376.958 578.342, 374.979 582.039 C 373.577 584.658, 373.727 585, 376.277 585 C 377.530 585, 379.544 585.692, 380.752 586.539 C 382.730 587.924, 383.246 587.924, 385.925 586.539 C 387.562 585.692, 389.486 584.985, 390.200 584.966 C 390.915 584.947, 393.300 584.063, 395.500 583 C 397.744 581.916, 401.694 581.048, 404.500 581.022 C 407.250 580.997, 411.750 580.377, 414.500 579.645 C 419.351 578.353, 439.972 569.912, 443 567.979 C 443.825 567.452, 446.075 566.163, 448 565.115 C 451.223 563.361, 463 551.491, 463 549.998 C 463 548.459, 458.139 544.978, 455.159 544.382 C 452.576 543.865, 451.405 544.211, 449.421 546.074 C 447.171 548.188, 446.032 548.412, 437.714 548.373 C 424.751 548.312, 419.116 545.302, 415.418 536.463 C 414.003 533.082, 413.859 530.226, 414.437 517 C 414.809 508.475, 415.344 500.712, 415.624 499.750 C 416.762 495.849, 414.107 498.400, 410.420 504.750" stroke="#d9dba1" fill="#d9dba1" fill-opacity="0.2" fill-rule="evenodd"/>
    </svg>