<svg xmlns="http://www.w3.org/2000/svg" width="1078" height="1151" viewBox="0 0 1078 1151" version="1.1">
    <path class="svg-region-DB" d="M 476 396.960 C 474.625 397.422, 471.700 397.850, 469.500 397.911 C 457.835 398.233, 444.879 406.291, 438.807 417 C 432.666 427.830, 431.442 444.061, 436.208 451.455 C 438.227 454.588, 438.857 454.937, 441.500 454.383 C 443.150 454.037, 446.525 452.735, 449 451.490 C 451.475 450.246, 456.650 448.748, 460.500 448.161 C 464.350 447.575, 469.750 446.567, 472.500 445.921 C 479.337 444.316, 484.886 445.932, 490.591 451.190 C 493.016 453.426, 495 455.632, 495 456.093 C 495 456.553, 496.345 459.051, 497.988 461.642 C 499.631 464.233, 501.257 467.854, 501.601 469.688 C 502.390 473.895, 503.388 474.496, 507.060 472.975 C 509.881 471.807, 510 471.498, 510 465.347 C 510 457.354, 512.038 452, 515.081 452 C 516.282 452, 518.780 451.063, 520.632 449.918 C 523.819 447.948, 524 447.531, 524 442.130 C 524 438.444, 523.309 435.067, 522.048 432.595 C 520.766 430.080, 520.299 427.754, 520.687 425.813 C 521.185 423.326, 520.644 422.199, 517.265 418.680 C 515.058 416.381, 512.474 412.400, 511.522 409.833 C 509.704 404.929, 504.942 399.303, 501.523 398.017 C 498.370 396.833, 478.790 396.021, 476 396.960" stroke="#e8b1e4" fill="#e8b1e4" fill-opacity="0.2" fill-rule="evenodd"/><path class="svg-region-IBr" d="M 506.472 525.935 C 501.852 527.993, 497 533.769, 497 537.211 C 497 538.500, 497.738 540.608, 498.639 541.895 C 500.003 543.843, 500.168 545.802, 499.623 553.558 C 499.035 561.928, 499.194 563.346, 501.183 567.440 C 503.775 572.776, 505.803 573.211, 509.210 569.162 C 511.300 566.679, 512.523 566.239, 519.016 565.635 C 527.856 564.814, 529.457 563.887, 534.378 556.741 C 537.642 552.002, 538.052 550.793, 537.460 547.638 C 536.929 544.808, 536.302 543.997, 534.639 543.985 C 530.977 543.958, 529.315 542.359, 530.673 540.168 C 531.620 538.638, 531.468 537.655, 529.882 535.046 C 528.666 533.046, 527.377 532.025, 526.495 532.364 C 525.644 532.690, 524.194 531.677, 522.887 529.842 C 520.675 526.735, 515.542 523.941, 512.282 524.071 C 511.302 524.109, 508.687 524.949, 506.472 525.935" stroke="#b10e0e" fill="#b10e0e" fill-opacity="0.2" fill-rule="evenodd"/><path class="svg-region-MB" d="M 505.750 473.162 C 503.155 474.110, 503 474.516, 503 480.340 C 503 483.735, 503.442 488.054, 503.982 489.938 C 504.522 491.821, 505.028 496.670, 505.107 500.713 C 505.233 507.217, 504.915 508.604, 502.344 512.762 C 500.746 515.347, 497.652 518.741, 495.469 520.304 C 487.744 525.837, 476.433 532.766, 471.288 535.117 C 467.649 536.781, 465.703 538.385, 464.840 540.434 C 463.812 542.876, 463.846 543.449, 465.043 543.848 C 465.834 544.111, 467.692 545.538, 469.172 547.018 C 470.972 548.818, 473.377 549.917, 476.435 550.336 C 482.001 551.099, 487.014 553.572, 493.689 558.849 L 498.740 562.841 499.361 557.671 C 500.361 549.349, 500.103 544.426, 498.506 541.364 C 496.404 537.333, 496.603 535.934, 499.920 531.423 C 503.829 526.108, 511.217 523.256, 516.534 525.011 C 518.514 525.665, 520.402 525.931, 520.729 525.604 C 521.643 524.690, 519.500 520.639, 515.983 516.633 C 511.080 511.049, 510 505.851, 510 487.841 C 510 479.128, 509.663 472.036, 509.250 472.079 C 508.837 472.122, 507.262 472.610, 505.750 473.162" stroke="#f9c6c6" fill="#f9c6c6" fill-opacity="0.2" fill-rule="evenodd"/><path class="svg-region-LBr" d="M 469.500 446.378 C 467.850 447.092, 463.575 447.979, 460 448.348 C 456.425 448.717, 451.250 450.093, 448.500 451.406 C 445.750 452.719, 441.250 454.593, 438.500 455.570 C 430.972 458.245, 418.968 470.497, 416.036 478.500 C 413.638 485.043, 409.148 505.443, 408.301 513.638 C 406.966 526.571, 415.406 536.203, 432.203 540.917 C 441.346 543.482, 443.819 543.502, 453.687 541.090 C 466.250 538.019, 476.400 533.542, 484.425 527.532 C 486.116 526.265, 489.343 524.304, 491.595 523.173 C 496.021 520.952, 501.002 515.830, 503.573 510.858 C 505.252 507.611, 505.211 503.758, 503.237 479.863 C 502.542 471.439, 501.942 469.254, 498.473 462.512 C 496.273 458.235, 492.658 453.096, 490.357 450.975 C 484.281 445.374, 476.021 443.553, 469.500 446.378" stroke="#79495c" fill="#79495c" fill-opacity="0.2" fill-rule="evenodd"/><path class="svg-region-DMr" d="M 462 544.746 C 461.175 545.069, 457.883 547.991, 454.684 551.240 C 449.474 556.532, 438.863 562.997, 435.382 562.999 C 434.768 563, 430.268 564.295, 425.382 565.877 C 420.497 567.459, 413.631 569.033, 410.125 569.375 C 402.022 570.164, 387.717 575.933, 383.185 580.241 C 378.665 584.537, 376.049 590.392, 376.022 596.275 C 376.003 600.328, 376.343 601.180, 378.269 601.912 C 381.128 602.999, 388.283 610.701, 390.552 615.136 C 392.149 618.256, 397.618 625.854, 399.091 627 C 399.445 627.275, 401.367 630.063, 403.364 633.196 C 405.360 636.329, 408.579 640.103, 410.518 641.581 C 415.132 645.101, 422.777 654.857, 427.302 663 C 429.288 666.575, 431.827 670.063, 432.945 670.751 C 434.062 671.439, 436.177 673.904, 437.644 676.229 C 442.107 683.298, 442.413 683.462, 448.895 682.257 C 454.306 681.250, 462.061 677.041, 464.977 673.528 C 465.673 672.689, 470.913 668.576, 476.621 664.388 C 482.330 660.199, 487 656.417, 487 655.983 C 487 655.550, 489.374 653.619, 492.276 651.692 C 499.208 647.091, 503 642.437, 503 638.530 C 503 634.562, 500.493 631.002, 497.693 630.994 C 496.385 630.991, 492.716 628.397, 488.600 624.568 L 481.700 618.148 482.324 612.179 C 483.155 604.221, 484.502 601.592, 489.393 598.377 C 495.449 594.397, 508 581.408, 508 579.121 C 508 578.039, 506.936 575.881, 505.637 574.327 C 504.337 572.772, 502.333 569.647, 501.184 567.383 C 497.441 560.005, 485.611 551.742, 476.842 550.378 C 474.230 549.971, 471.191 548.567, 469.215 546.851 C 465.918 543.989, 464.779 543.657, 462 544.746" stroke="#68533d" fill="#68533d" fill-opacity="0.2" fill-rule="evenodd"/><path class="svg-region-PMr" d="M 373.531 601.743 C 372.447 602.012, 369.095 604.429, 366.081 607.116 C 363.067 609.802, 360.325 612, 359.988 612 C 359.650 612, 356.028 616.086, 351.937 621.079 C 347.847 626.073, 340.634 633.447, 335.909 637.467 C 331.184 641.486, 325.584 646.963, 323.464 649.638 C 321.344 652.312, 318.010 656.137, 316.055 658.138 C 310.166 664.165, 305.601 669.991, 303.743 673.850 C 302.777 675.858, 301.156 678.194, 300.140 679.041 C 294.247 683.961, 295.088 688.755, 303.345 697.302 C 310.209 704.407, 314.107 706.723, 325.694 710.585 C 332.934 712.998, 334.733 713.181, 350.500 713.103 C 377.394 712.970, 402.102 708.565, 418.500 700.979 C 430.415 695.468, 433.751 692.786, 436.697 686.352 C 438.831 681.689, 439.003 680.540, 438.015 677.545 C 437.389 675.650, 435.407 672.809, 433.610 671.231 C 431.813 669.653, 428.353 664.830, 425.921 660.513 C 423.077 655.464, 418.629 649.781, 413.452 644.582 C 409.025 640.137, 404.368 634.801, 403.104 632.723 C 401.839 630.646, 400.174 628.317, 399.403 627.546 C 398.633 626.776, 395.354 622.175, 392.118 617.323 C 383.566 604.501, 378.736 600.453, 373.531 601.743" stroke="#90cf92" fill="#90cf92" fill-opacity="0.2" fill-rule="evenodd"/><path class="svg-region-PV" d="M 280.689 665.894 C 277.845 670.192, 271.101 674, 266.334 674 C 264.591 674, 261.640 675.203, 259.398 676.826 C 257.252 678.381, 254.180 680.294, 252.572 681.076 C 248.883 682.872, 248.475 684.142, 250.717 686.852 C 251.922 688.309, 254.121 689.206, 257.500 689.620 C 262.402 690.220, 269.243 693.826, 271.708 697.109 C 273.251 699.165, 281.553 702.749, 286.603 703.540 C 290.983 704.226, 302.822 702.578, 304.326 701.074 C 304.968 700.432, 304.304 698.843, 302.404 696.479 C 299.054 692.311, 296.004 687.014, 296.002 685.359 C 296.001 684.731, 297.691 682.172, 299.757 679.671 C 301.824 677.170, 304.020 673.785, 304.638 672.148 L 305.761 669.173 297.325 667.975 C 291.086 667.090, 288.154 666.159, 286.068 664.404 L 283.246 662.029 280.689 665.894" stroke="#b09658" fill="#b09658" fill-opacity="0.2" fill-rule="evenodd"/><path class="svg-region-PCr" d="M 298 547.459 C 295.525 548.217, 290.575 549.345, 287 549.966 C 282.815 550.692, 278.976 552.146, 276.221 554.047 C 273.867 555.671, 271.693 557, 271.389 557 C 271.085 557, 268.904 558.583, 266.542 560.519 C 262.327 563.973, 253 578.402, 253 581.469 C 253 582.302, 252.100 583.545, 251 584.232 C 249.900 584.919, 249 585.900, 249 586.412 C 249 586.924, 248.270 588.149, 247.379 589.134 C 245.222 591.517, 246.314 594, 249.518 594 C 252.969 594, 257.739 596.557, 258.358 598.739 C 258.632 599.708, 259.162 604.220, 259.534 608.767 L 260.211 617.033 265.420 620.491 C 268.285 622.393, 272.850 624.928, 275.565 626.126 C 283.860 629.786, 287.865 632.814, 290.035 637.068 C 291.825 640.576, 291.950 641.621, 290.948 644.658 C 290.309 646.594, 290.065 649.576, 290.407 651.283 C 290.937 653.935, 290.479 654.952, 287.264 658.263 L 283.500 662.138 286.156 664.440 C 288.068 666.098, 291.071 667.073, 296.877 667.922 C 306.165 669.280, 307.514 668.854, 311.709 663.237 C 313.244 661.183, 315.850 658.098, 317.500 656.383 C 319.150 654.669, 322.958 650.504, 325.961 647.129 C 328.965 643.754, 333.941 639.037, 337.019 636.646 C 340.098 634.256, 346.332 627.845, 350.874 622.400 C 355.416 616.955, 360.928 611.291, 363.122 609.813 C 365.317 608.335, 367.996 606.003, 369.076 604.630 C 370.156 603.257, 372.043 601.991, 373.270 601.817 C 375.166 601.547, 375.546 600.790, 375.804 596.759 C 376.058 592.806, 375.593 591.269, 373.006 587.509 C 371.300 585.029, 369.508 583, 369.024 583 C 367.339 583, 354.778 570.475, 352.978 567 C 351.056 563.290, 344.303 556.467, 339.800 553.687 C 338.315 552.770, 333.590 550.814, 329.300 549.340 C 319.917 546.117, 305.257 545.236, 298 547.459" stroke="#465ee0" fill="#465ee0" fill-opacity="0.2" fill-rule="evenodd"/><path class="svg-region-Or" d="M 707.867 153.466 C 707.611 153.722, 702.924 154.646, 697.451 155.519 C 679.279 158.416, 666.443 163.738, 654.507 173.324 C 651.203 175.977, 644.675 180.301, 640 182.934 C 631.876 187.509, 627.738 189.540, 614.646 195.375 C 606.044 199.209, 595.523 206.525, 591.434 211.515 C 585.529 218.722, 583.743 224.709, 583.236 239 C 582.824 250.604, 583.394 256.255, 586.061 267 C 586.539 268.925, 587.582 273.425, 588.380 277 C 589.178 280.575, 590.512 286.425, 591.345 290 C 597.609 316.877, 600.166 343.081, 599.735 376 C 599.407 401.095, 599.359 401.602, 596.701 407.922 C 595.215 411.455, 594 416.231, 594 418.536 C 594 422.273, 594.540 423.231, 598.990 427.394 C 601.735 429.962, 604.635 433.327, 605.435 434.874 C 608.943 441.658, 610.999 448.817, 610.999 454.250 C 611 457.416, 611.449 460, 612 460 C 612.617 460, 613 465.147, 613 473.441 C 613 481.323, 613.414 487.138, 614 487.500 C 615.297 488.301, 615.298 502.894, 614.003 515 C 613.444 520.225, 612.577 529.450, 612.076 535.500 C 611.357 544.191, 610.507 548.074, 608.030 554 C 606.305 558.125, 603.799 564.843, 602.461 568.930 C 601.123 573.016, 598.814 578.191, 597.332 580.430 C 593.047 586.899, 588 596.628, 588 598.420 C 588 599.323, 587.325 600.322, 586.500 600.638 C 585.675 600.955, 585 602.046, 585 603.062 C 585 604.847, 578.207 621.419, 575.803 625.500 C 574.229 628.170, 573.497 655.065, 574.822 661.500 C 581.491 693.883, 585.600 709.577, 591.348 724.615 C 593.264 729.628, 595.290 735.253, 595.850 737.115 C 596.410 738.977, 598.427 744.775, 600.331 750 C 602.236 755.225, 604.335 761.075, 604.996 763 C 606.929 768.629, 609.057 773.251, 611.442 777 C 622.546 794.455, 625.333 797.531, 634 801.906 C 643.468 806.684, 647.341 807.277, 665.702 806.759 C 682.368 806.289, 682.589 806.252, 693.844 802.155 C 706.883 797.409, 710.514 795.466, 726.710 784.563 C 733.194 780.198, 741.875 774.381, 746 771.637 C 754.511 765.976, 759.722 762.341, 765.500 758.037 C 767.700 756.398, 770.625 754.270, 772 753.308 C 773.375 752.346, 776.750 749.906, 779.500 747.885 C 782.250 745.864, 788.325 742.300, 793 739.965 C 797.675 737.629, 802.850 734.726, 804.500 733.514 C 806.150 732.301, 810.834 729.641, 814.910 727.602 C 818.985 725.563, 824.744 722.231, 827.708 720.197 C 830.672 718.164, 837.455 713.674, 842.782 710.221 C 848.108 706.767, 854.274 702.381, 856.483 700.473 C 870.826 688.090, 882.031 677.639, 884.507 674.336 C 888.056 669.602, 896.998 659.016, 902.530 653 C 908.769 646.215, 923.904 620.192, 927.440 610.171 C 928.270 607.818, 930.258 603.104, 931.858 599.696 C 938.299 585.975, 941.621 577.382, 946.045 563 C 947.822 557.225, 951.272 546.425, 953.711 539 C 959.077 522.668, 965.879 496.355, 969.921 476.296 C 973.648 457.798, 974.600 440.185, 973.093 417.666 C 971.318 391.160, 968.230 374.638, 961.660 356.500 C 960.266 352.650, 958.141 346.575, 956.938 343 C 954.881 336.884, 952.716 332.282, 940.943 309 C 938.301 303.775, 933.402 293.875, 930.057 287 C 921.581 269.583, 919.165 265.314, 913.918 258.473 C 911.397 255.188, 907.152 249.125, 904.483 245 C 898.864 236.316, 890.677 227.384, 884.684 223.398 C 882.383 221.867, 878.700 218.948, 876.500 216.909 C 871.577 212.348, 865.168 208.291, 849 199.504 C 842.125 195.767, 831.418 189.820, 825.207 186.289 C 812.487 179.058, 802.413 174.231, 783.500 166.307 C 755.225 154.461, 748.822 153, 725.177 153 C 715.913 153, 708.124 153.210, 707.867 153.466" stroke="#aa444d" fill="#aa444d" fill-opacity="0.2" fill-rule="evenodd"/><path class="svg-region-VOC" d="M 534.443 528.765 C 532.793 529.913, 530.708 535.797, 531.355 537.482 C 531.675 538.317, 531.470 539, 530.899 539 C 530.328 539, 530.005 540.010, 530.180 541.244 C 530.404 542.814, 531.400 543.679, 533.500 544.125 C 538.324 545.151, 544.830 545.083, 545.500 544 C 545.840 543.450, 547.126 543, 548.359 543 C 550.880 543, 553 541.282, 553 539.240 C 553 537.022, 546.654 528, 545.095 528 C 544.304 528, 542.835 528.745, 541.829 529.655 C 540.127 531.195, 539.873 531.195, 538.171 529.655 C 536.109 527.789, 535.915 527.742, 534.443 528.765" stroke="#ff8f93" fill="#ff8f93" fill-opacity="0.2" fill-rule="evenodd"/><path class="svg-region-OABr" d="M 611.500 461.369 C 610.950 462.136, 607.489 466.979, 603.808 472.132 C 600.128 477.284, 595.527 483.300, 593.584 485.500 C 591.641 487.700, 589.207 491.300, 588.175 493.500 C 580.480 509.902, 578.652 512.808, 572.651 518.175 C 569.262 521.207, 565.186 525.568, 563.593 527.866 C 559.232 534.158, 550.240 543, 548.201 543 C 547.210 543, 545.972 543.418, 545.450 543.929 C 544.927 544.439, 542.925 545.002, 541 545.179 C 537.751 545.477, 537.521 545.721, 537.792 548.583 C 538.014 550.938, 537.010 553.125, 533.542 557.836 C 528.591 564.561, 528.390 565, 530.263 565 C 532.077 565, 534.990 569.222, 537.591 575.623 C 540.125 581.858, 543.266 586.654, 548.596 592.426 C 551.944 596.053, 552.177 596.701, 551.652 600.926 C 551.339 603.442, 550.814 606.625, 550.485 608 C 549.682 611.355, 552.795 613.409, 556.532 611.988 C 557.961 611.445, 563.279 611, 568.349 611 L 577.568 611 580.534 605.088 C 582.708 600.755, 583.822 599.443, 584.706 600.174 C 586.368 601.549, 587.730 600.487, 588.470 597.239 C 588.814 595.732, 590.311 592.410, 591.797 589.856 C 593.284 587.301, 595.910 582.801, 597.634 579.856 C 599.358 576.910, 601.343 572.700, 602.046 570.500 C 602.749 568.300, 605.107 562.004, 607.287 556.509 C 610.680 547.953, 611.376 544.865, 612.130 535.009 C 612.614 528.679, 613.457 519.877, 614.005 515.448 C 615.276 505.163, 615.291 488.691, 614.031 487.431 C 613.497 486.897, 612.935 480.502, 612.781 473.218 C 612.587 464.062, 612.191 460.405, 611.500 461.369" stroke="#81244d" fill="#81244d" fill-opacity="0.2" fill-rule="evenodd"/><path class="svg-region-SOTr" d="M 578.743 452.746 C 577.254 454.301, 575.755 456.977, 575.411 458.693 C 575.068 460.410, 573.260 463.294, 571.394 465.103 C 568.648 467.765, 567.996 469.166, 567.978 472.446 C 567.954 476.773, 564.856 482.195, 563.584 480.136 C 562.006 477.583, 558.504 478.997, 555.869 483.252 C 552.549 488.611, 551.448 492.158, 549.431 504 C 548.541 509.225, 547.179 515.017, 546.406 516.872 C 544.109 522.381, 544.632 526.489, 548.250 531.346 C 550.038 533.746, 551.974 536.522, 552.552 537.515 C 553.504 539.147, 553.999 538.897, 557.712 534.910 C 559.971 532.485, 564.553 527.270, 567.894 523.322 C 571.235 519.375, 574.832 515.871, 575.887 515.536 C 577.553 515.007, 583.162 504.802, 588.547 492.500 C 590.483 488.076, 591.053 468.482, 589.297 466.725 C 588.543 465.971, 587.368 462.012, 586.686 457.927 C 585.237 449.247, 583.304 447.986, 578.743 452.746" stroke="#995b45" fill="#995b45" fill-opacity="0.2" fill-rule="evenodd"/><path class="svg-region-LBPCr" d="M 387.224 566.314 C 376.789 569.948, 371.452 575.640, 375.404 578.920 C 376.492 579.823, 378.123 579.597, 382.654 577.914 C 385.869 576.720, 392.008 574.489, 396.296 572.956 C 405.117 569.802, 407 568.557, 407 565.878 C 407 564.220, 406.209 564.008, 400.250 564.064 C 396.041 564.104, 391.138 564.951, 387.224 566.314" stroke="#daffff" fill="#daffff" fill-opacity="0.2" fill-rule="evenodd"/><path class="svg-region-PNr" d="M 220.879 592.965 C 217.569 593.966, 205.107 600.888, 198.382 605.459 C 188.546 612.146, 180.924 629, 181.035 643.815 C 181.132 656.741, 188.732 674.795, 197 681.740 C 201.533 685.548, 209.041 689, 212.788 689 C 215.132 689, 217.011 689.526, 217.256 690.250 C 218.107 692.771, 245.560 690.822, 250.069 687.921 C 251.289 687.136, 251.294 686.867, 250.104 686.101 C 248.160 684.849, 249.439 682.164, 252.543 680.984 C 253.969 680.441, 256.705 678.801, 258.622 677.339 C 260.804 675.675, 264.228 674.348, 267.773 673.792 C 274.055 672.807, 279.141 669.561, 281.475 665.049 C 282.285 663.482, 284.819 660.599, 287.107 658.641 C 290.811 655.470, 291.197 654.734, 290.632 651.910 C 290.283 650.166, 290.505 647.048, 291.124 644.980 C 292.108 641.696, 291.960 640.639, 289.952 636.619 C 287.865 632.440, 286.774 631.583, 278.077 627.299 C 272.810 624.704, 266.447 621.156, 263.939 619.416 C 259.905 616.617, 259.160 616.410, 257.498 617.625 C 253.485 620.560, 242.436 618.631, 238.948 614.388 C 238.095 613.350, 236.173 608.774, 234.679 604.220 C 232.588 597.850, 232.205 595.486, 233.016 593.970 C 234.005 592.121, 233.745 592.005, 228.785 592.086 C 225.878 592.133, 222.320 592.529, 220.879 592.965" stroke="#bbc0d1" fill="#bbc0d1" fill-opacity="0.2" fill-rule="evenodd"/><path class="svg-region-OVr" d="M 544.392 408.496 C 535.597 409.912, 533.043 411.059, 525.634 416.921 C 521.294 420.355, 520.746 421.231, 520.562 425.023 C 520.440 427.538, 521.100 430.735, 522.178 432.849 C 523.308 435.066, 524 438.582, 524 442.113 C 524 447.573, 523.856 447.887, 520.443 449.901 C 518.486 451.056, 516.067 452, 515.065 452 C 510.801 452, 510.500 453.939, 510.500 481.404 C 510.500 510.314, 510.470 510.151, 517.496 518.828 C 519.423 521.208, 521.010 524.133, 521.022 525.328 C 521.045 527.547, 524.236 532.471, 525.693 532.535 C 526.137 532.555, 527.497 533.125, 528.716 533.802 C 530.708 534.910, 531.082 534.742, 532.429 532.138 C 534.245 528.626, 536.439 527.619, 538.049 529.559 C 538.707 530.352, 539.640 531, 540.122 531 C 542.203 531, 544.821 526.887, 545.304 522.859 C 545.592 520.462, 546.535 515.800, 547.400 512.500 C 548.265 509.200, 549.849 502.405, 550.921 497.400 C 553.203 486.736, 557.308 479, 560.684 479 C 561.893 479, 563.198 479.511, 563.584 480.136 C 564.852 482.187, 567.954 476.775, 567.978 472.470 C 567.996 469.206, 568.640 467.837, 571.366 465.265 C 573.217 463.519, 574.993 460.783, 575.313 459.185 C 576.147 455.013, 580.789 449.827, 583.356 450.198 C 585.123 450.453, 585.636 451.634, 586.671 457.834 C 587.344 461.868, 588.469 465.860, 589.171 466.706 C 590.069 467.788, 590.369 471.387, 590.184 478.872 L 589.920 489.500 594.024 485 C 596.281 482.525, 599.327 478.700, 600.792 476.500 C 602.258 474.300, 605.250 470.026, 607.443 467.002 C 611.348 461.617, 611.423 461.354, 611.119 454.086 C 610.949 450.006, 610.430 445.955, 609.966 445.084 C 609.502 444.213, 607.943 440.800, 606.502 437.500 C 603.624 430.909, 597.828 424.662, 592.543 422.453 C 590.669 421.671, 588.849 420.564, 588.497 419.995 C 588.145 419.425, 584.626 417.409, 580.678 415.514 C 576.730 413.619, 571.925 411.073, 570 409.857 C 565.658 407.112, 556.135 406.606, 544.392 408.496" stroke="#593939" fill="#593939" fill-opacity="0.2" fill-rule="evenodd"/><path class="svg-region-ODMr" d="M 519.430 565.414 C 512.051 566.407, 511.095 566.802, 508.277 570.022 C 505.513 573.178, 505.339 573.743, 506.597 575.463 C 507.368 576.519, 508 578.216, 508 579.235 C 508 581.424, 495.284 594.506, 489.393 598.377 C 484.502 601.592, 483.155 604.221, 482.324 612.179 L 481.700 618.148 488.600 624.568 C 492.395 628.099, 496.288 630.991, 497.250 630.994 C 499.980 631.003, 503 634.683, 503 638 C 503 639.650, 503.391 641, 503.870 641 C 506.284 641, 517.153 636.860, 522 634.095 C 525.025 632.369, 530.017 629.646, 533.092 628.044 C 536.168 626.441, 539.397 624.043, 540.267 622.715 C 541.138 621.386, 543.459 619.536, 545.425 618.603 C 548.562 617.114, 549.004 616.453, 549.035 613.203 C 549.055 611.166, 549.714 608.375, 550.500 607 C 551.286 605.625, 551.945 602.643, 551.965 600.372 C 551.995 596.782, 551.245 595.343, 546.192 589.311 C 542.673 585.108, 539.505 580.023, 538.150 576.402 C 535.625 569.650, 532.450 565.373, 529.500 564.750 C 528.400 564.518, 523.868 564.817, 519.430 565.414" stroke="#999999" fill="#999999" fill-opacity="0.2" fill-rule="evenodd"/><path class="svg-region-COr" d="M 232.968 594.060 C 232.086 595.708, 232.498 597.984, 235.028 605.429 C 237.886 613.844, 238.554 614.943, 241.981 616.869 C 247.187 619.795, 255.199 619.801, 258.120 616.880 C 259.890 615.110, 260.137 614.016, 259.620 610.241 C 259.279 607.755, 259 604.259, 259 602.471 C 259 596.994, 256.534 595.147, 247 593.485 C 235.857 591.542, 234.281 591.607, 232.968 594.060" stroke="#906d99" fill="#906d99" fill-opacity="0.2" fill-rule="evenodd"/><path class="svg-region-HRr" d="M 362.728 527.896 C 355.150 529.496, 351.316 536.330, 350.300 550.050 C 349.460 561.410, 351.454 567.142, 358.719 574.251 C 367.188 582.538, 369.685 584.212, 374.325 584.715 C 378.184 585.134, 378.803 584.848, 382.500 580.937 C 385.155 578.128, 385.828 576.958, 384.500 577.457 C 378.312 579.782, 376.543 579.971, 375.039 578.467 C 371.463 574.892, 379.156 568.413, 390.479 565.463 C 401.564 562.576, 409.643 564.110, 406.065 568.422 C 404.370 570.464, 415.983 569.417, 422.500 566.941 C 425.250 565.896, 430.018 564.399, 433.096 563.615 C 441.477 561.480, 448.365 557.591, 454.328 551.629 C 457.269 548.687, 460.484 545.829, 461.471 545.276 C 463.015 544.412, 466.587 538, 465.524 538 C 465.315 538, 460.949 539.124, 455.822 540.497 C 450.695 541.871, 445.122 542.996, 443.438 542.997 C 438.376 543.002, 425.009 539.078, 421.149 536.455 C 418.500 534.655, 416.196 534, 412.518 533.999 C 406.588 533.997, 393.544 531.764, 386.500 529.544 C 380.516 527.659, 367.973 526.790, 362.728 527.896" stroke="#d9dba1" fill="#d9dba1" fill-opacity="0.2" fill-rule="evenodd"/>
    </svg>