<svg xmlns="http://www.w3.org/2000/svg" width="1078" height="1151" viewBox="0 0 1078 1151" version="1.1">
    <path class="svg-region-DB" d="M 488.500 375.089 C 485.750 376.179, 482.555 378.126, 481.399 379.417 C 480.244 380.708, 477.544 382.576, 475.399 383.567 C 471.671 385.291, 468.436 387.690, 461.216 394.090 C 459.410 395.690, 457.303 397, 456.533 397 C 454.792 397, 449.109 404.012, 445.997 410 C 442.264 417.185, 441.845 436.670, 445.322 441.425 C 446.557 443.115, 446.946 443.096, 453.559 441.042 C 457.377 439.856, 463.200 438.498, 466.500 438.025 C 469.800 437.552, 474.300 436.688, 476.500 436.106 C 478.700 435.524, 484.550 435.007, 489.500 434.958 C 497.873 434.874, 498.980 434.611, 505.392 431.184 C 511.607 427.862, 512.430 427.058, 513.763 423 C 514.576 420.525, 515.862 417.612, 516.621 416.527 C 517.379 415.443, 518 413.112, 518 411.349 C 518 409.586, 518.738 407.405, 519.640 406.502 C 520.838 405.305, 521.398 402.434, 521.714 395.874 L 522.147 386.886 518.489 382.421 C 516.476 379.965, 513.348 377.337, 511.537 376.580 C 509.726 375.823, 507.938 374.708, 507.563 374.102 C 506.419 372.250, 494.051 372.891, 488.500 375.089" stroke="#e8b1e4" fill="#e8b1e4" fill-opacity="0.2" fill-rule="evenodd"/><path class="svg-region-IBr" d="M 510.505 535.559 L 498.875 547.210 505.265 553.855 C 508.779 557.510, 512.138 561.376, 512.728 562.447 C 513.564 563.966, 514.239 564.186, 515.793 563.447 C 518.712 562.060, 527.945 550.912, 528.587 548 C 528.890 546.625, 529.557 544.466, 530.069 543.203 C 532.557 537.064, 529.166 526.089, 524.317 524.585 C 522.490 524.018, 520.241 525.805, 510.505 535.559" stroke="#b10e0e" fill="#b10e0e" fill-opacity="0.2" fill-rule="evenodd"/><path class="svg-region-MB" d="M 516.655 479.750 C 516.391 480.712, 515.878 483.253, 515.515 485.396 C 514.620 490.675, 512.458 493.692, 508.668 494.951 C 506.926 495.530, 504.150 497.258, 502.500 498.790 C 498.440 502.561, 492.653 505.434, 479.542 510.189 C 469.417 513.860, 465.601 515.024, 457.691 516.851 C 455.249 517.415, 454.557 518.467, 452.396 524.896 C 451.029 528.964, 448.586 534.962, 446.967 538.226 C 445.348 541.489, 444.580 543.925, 445.261 543.639 C 454.570 539.732, 463.439 539.318, 484 541.828 C 492.210 542.831, 494.623 543.552, 497.217 545.777 C 498.775 547.113, 499.577 546.615, 505.906 540.375 C 509.742 536.594, 513.377 533.050, 513.986 532.500 C 514.594 531.950, 516.609 529.796, 518.464 527.713 L 521.837 523.927 520.949 511.713 C 520.461 504.996, 520.047 494.663, 520.031 488.750 C 520.006 480.100, 519.720 478, 518.567 478 C 517.779 478, 516.919 478.788, 516.655 479.750" stroke="#f9c6c6" fill="#f9c6c6" fill-opacity="0.2" fill-rule="evenodd"/><path class="svg-region-LBr" d="M 475.500 436.101 C 473.300 436.643, 469.245 437.463, 466.488 437.924 C 451.152 440.490, 439.099 445.788, 433.179 452.566 C 431.156 454.883, 425.452 464.731, 420.505 474.451 C 411.708 491.733, 411.501 492.300, 411.145 500.150 C 410.786 508.054, 410.830 508.230, 414.020 511.520 C 418.401 516.040, 424.327 517.309, 441.500 517.404 C 456.321 517.485, 465.671 516.256, 470.935 513.533 C 472.697 512.622, 477.595 510.723, 481.819 509.312 C 491.568 506.056, 498.732 502.505, 502.294 499.163 C 503.830 497.722, 506.980 495.632, 509.294 494.521 C 515.386 491.594, 516.388 488.072, 516.415 469.500 C 516.442 451.101, 515.501 447.425, 509.028 440.639 L 504.219 435.598 491.860 435.357 C 485.062 435.225, 477.700 435.559, 475.500 436.101" stroke="#79495c" fill="#79495c" fill-opacity="0.2" fill-rule="evenodd"/><path class="svg-region-DMr" d="M 450 542.024 C 439.480 545.971, 429.483 548.970, 426.795 548.985 C 422.495 549.009, 411.497 553.414, 405.602 557.474 C 399.480 561.690, 392.936 569.253, 389.416 576.179 C 388.108 578.753, 386.573 581.146, 386.005 581.497 C 385.436 581.848, 384.021 583.999, 382.859 586.276 C 381.315 589.303, 381.081 590.527, 381.987 590.829 C 382.669 591.056, 383.963 592.178, 384.864 593.321 C 388.487 597.922, 399.896 610.107, 429.250 640.721 C 435.163 646.888, 440.010 652.736, 440.022 653.717 C 440.034 654.697, 440.841 656.535, 441.814 657.799 L 443.583 660.098 451.341 655.299 C 464.224 647.330, 466.220 646.177, 473.500 642.500 C 493.502 632.395, 494.547 631.635, 495.246 626.682 C 495.493 624.932, 496.014 622.772, 496.404 621.881 C 496.889 620.774, 495.957 619.036, 493.453 616.382 C 490.011 612.731, 489.820 612.189, 490.232 607.220 C 490.488 604.127, 491.492 600.811, 492.655 599.219 C 493.746 597.724, 495.733 593.834, 497.070 590.575 C 498.774 586.422, 501.661 582.386, 506.729 577.075 C 514.195 569.251, 514.727 568.074, 512.947 563.315 C 511.852 560.385, 497.991 545.687, 494.500 543.753 C 492.054 542.398, 481.166 541.116, 466.500 540.455 C 457.045 540.030, 454.728 540.250, 450 542.024" stroke="#68533d" fill="#68533d" fill-opacity="0.2" fill-rule="evenodd"/><path class="svg-region-PMr" d="M 377.486 590.765 C 376.929 591.169, 374.679 594.164, 372.486 597.420 C 370.294 600.676, 365.803 605.401, 362.507 607.920 C 359.211 610.439, 350.498 618.462, 343.145 625.750 C 335.792 633.038, 329.398 639, 328.936 639 C 328.474 639, 326.739 640.913, 325.081 643.250 C 323.423 645.587, 318.863 650.875, 314.947 655 C 308.385 661.912, 304.323 668.066, 302.556 673.770 C 301.648 676.701, 306.710 687.353, 312.818 695.361 C 317.339 701.289, 321.638 704, 326.518 704 C 327.938 704, 330.393 704.669, 331.974 705.486 C 339.556 709.407, 367.299 705.443, 381.055 698.472 C 383.738 697.112, 386.483 696, 387.154 696 C 388.956 696, 408.207 684.583, 416.413 678.648 C 424.410 672.863, 427.093 671.195, 435.060 667.053 C 443.299 662.770, 443.686 662.036, 441.016 655.749 C 439.457 652.078, 435.874 647.494, 429.096 640.500 C 406.313 616.988, 393.084 602.814, 384.865 593.111 C 382.319 590.105, 379.593 589.238, 377.486 590.765" stroke="#90cf92" fill="#90cf92" fill-opacity="0.2" fill-rule="evenodd"/><path class="svg-region-PV" d="M 299 664.689 C 297.075 665.547, 294.306 666.869, 292.846 667.625 C 291.386 668.381, 289.213 669, 288.016 669 C 286.085 669, 285.920 669.364, 286.543 672.250 C 287.647 677.367, 290.346 681.952, 296.687 689.483 C 303.967 698.128, 308.072 701, 313.148 701 C 315.267 701, 317 700.732, 317 700.403 C 317 700.075, 315.170 697.728, 312.934 695.187 C 310.697 692.646, 307.275 687.258, 305.330 683.213 L 301.792 675.858 303.984 670.679 C 305.190 667.831, 306.410 664.938, 306.695 664.250 C 307.414 662.517, 303.351 662.749, 299 664.689" stroke="#b09658" fill="#b09658" fill-opacity="0.2" fill-rule="evenodd"/><path class="svg-region-PCr" d="M 311 537.031 C 311 537.564, 309.762 538.002, 308.250 538.004 C 306.738 538.007, 302.350 539.172, 298.500 540.593 C 294.650 542.014, 290.262 543.413, 288.750 543.702 C 287.238 543.991, 286 544.636, 286 545.135 C 286 545.634, 284.762 546.586, 283.250 547.249 C 277.537 549.754, 270.322 554.942, 265.338 560.128 C 262.500 563.083, 259.284 566.317, 258.193 567.315 C 257.102 568.313, 255.192 572.363, 253.950 576.315 C 252.707 580.267, 251.085 584.210, 250.345 585.079 C 249.605 585.947, 249 587.226, 249 587.921 C 249 588.616, 248.100 590.329, 247 591.727 C 245.026 594.236, 244.342 597, 245.695 597 C 246.078 597, 247.552 595.887, 248.972 594.527 C 251.082 592.505, 252.092 592.197, 254.499 592.841 C 260.509 594.449, 259.695 605.345, 253.338 608.376 C 250.644 609.661, 250 610.549, 250 612.984 C 250 615.581, 250.369 616, 252.654 616 C 255.982 616, 273.865 625.057, 277.822 628.746 C 280.921 631.636, 285 638.849, 285 641.440 C 285 642.276, 284.267 644.791, 283.371 647.031 C 282.123 650.150, 281.071 651.236, 278.871 651.676 C 275.771 652.296, 275.160 654.058, 277.402 655.919 C 278.173 656.558, 279.108 658.301, 279.480 659.791 C 279.852 661.281, 281.269 663.962, 282.629 665.750 C 285.365 669.346, 288.433 669.910, 292.846 667.627 C 298.338 664.786, 303.141 663, 305.287 663 C 307.562 663, 320.799 649.704, 325.691 642.504 C 327.001 640.577, 328.456 639, 328.924 639 C 329.393 639, 335.849 633.038, 343.271 625.750 C 350.693 618.462, 357.385 612.050, 358.143 611.500 C 364.566 606.838, 369.106 602.372, 372.492 597.382 C 374.687 594.147, 377.275 590.912, 378.242 590.193 C 380.312 588.654, 380.496 586.662, 378.737 584.821 C 378.042 584.095, 376.683 582.264, 375.717 580.754 C 374.082 578.200, 363.559 572, 360.859 572 C 358.820 572, 347.051 562.591, 347.025 560.940 C 347.011 560.082, 344.992 557.028, 342.538 554.154 C 339.714 550.845, 337.851 547.564, 337.461 545.213 C 337.122 543.171, 336.694 541.005, 336.511 540.400 C 336.173 539.283, 330.354 538.252, 319.500 537.387 C 316.200 537.123, 312.938 536.718, 312.250 536.485 C 311.563 536.253, 311 536.499, 311 537.031" stroke="#465ee0" fill="#465ee0" fill-opacity="0.2" fill-rule="evenodd"/><path class="svg-region-Or" d="M 721.500 159.443 C 716.803 160.661, 715.258 161.228, 707.349 164.641 C 705.616 165.388, 703.824 166, 703.368 166 C 701.522 166, 690.825 170.764, 679.500 176.630 C 663.838 184.742, 660.020 186.634, 657 187.782 C 655.625 188.305, 651.800 189.768, 648.500 191.033 C 631.968 197.373, 616.170 208.963, 611.187 218.408 L 608.500 223.500 608.500 248.500 C 608.500 275.874, 609.860 292.032, 613.885 312.500 C 615.036 318.351, 616.810 336.855, 617.683 352.123 C 618.364 364.014, 617.956 366.193, 612.002 382.500 C 608.572 391.896, 608.395 392.953, 609.073 400 C 609.469 404.125, 610.514 414.925, 611.393 424 C 612.348 433.855, 612.994 450.065, 612.996 464.250 C 613 486.612, 613.107 488, 614.833 488 C 615.842 488, 618.429 489.523, 620.583 491.384 L 624.500 494.769 624.412 508.634 C 624.364 516.260, 623.991 524.075, 623.584 526 C 622.674 530.301, 616.886 544, 615.979 544 C 615.617 544, 614.720 545.913, 613.986 548.250 C 613.253 550.587, 612.280 552.928, 611.826 553.450 C 611.372 553.973, 611 554.994, 611 555.720 C 611 556.446, 609.943 558.718, 608.651 560.770 C 607.359 562.821, 605.693 566.188, 604.949 568.252 C 604.206 570.315, 601.814 574.359, 599.635 577.238 C 597.456 580.117, 594.544 584.954, 593.163 587.986 C 590.434 593.983, 589.171 595.959, 581.333 606.500 C 563.523 630.453, 560.941 650.474, 567.607 712.915 C 568.966 725.642, 578.283 756.779, 583.792 767 C 597.860 793.104, 607.974 803.522, 633 817.688 L 641.500 822.500 661 822.421 C 680.286 822.343, 680.577 822.310, 687.500 819.381 C 694.916 816.243, 716.121 805.025, 724.500 799.806 C 727.250 798.093, 732.425 794.798, 736 792.484 C 744.587 786.925, 759.870 778.420, 762.961 777.480 C 764.315 777.068, 773.711 772.716, 783.843 767.808 C 793.974 762.900, 805.089 757.820, 808.544 756.520 C 814.950 754.108, 838.667 740.725, 845 735.948 C 846.925 734.495, 852.885 730.077, 858.244 726.129 C 876.166 712.927, 893.987 694.773, 906.500 676.972 C 909.250 673.060, 915.813 664.829, 921.083 658.680 C 931.589 646.425, 937.679 638.194, 944.153 627.500 C 949.102 619.326, 960 597.707, 960 596.063 C 960 595.442, 961.177 592.611, 962.615 589.772 C 964.054 586.934, 966.037 582.336, 967.023 579.556 C 968.009 576.775, 971.058 568.425, 973.799 561 C 979.055 546.760, 983.282 533.443, 985.687 523.546 C 986.483 520.271, 987.440 517.121, 987.813 516.546 C 988.187 515.971, 988.995 513.250, 989.609 510.500 C 990.223 507.750, 991.836 501.675, 993.195 497 C 1001.076 469.873, 1002.302 461.347, 1001.733 437.658 C 1001.127 412.487, 999.250 398.707, 993.537 377.500 C 992.796 374.750, 991.893 370.700, 991.530 368.500 C 990.843 364.339, 987.613 352.973, 986.130 349.500 C 985.661 348.400, 984.041 343.450, 982.531 338.500 C 978.449 325.122, 966.529 303.427, 955.610 289.500 C 953.885 287.300, 949.812 281.564, 946.558 276.754 C 943.305 271.944, 937.461 264.722, 933.572 260.706 C 924.690 251.535, 902.589 231.284, 895.704 226.007 C 892.842 223.814, 885.775 218.186, 880 213.500 C 874.225 208.814, 867.475 203.673, 865 202.075 C 862.525 200.476, 857.894 197.443, 854.708 195.334 C 842.622 187.333, 840.157 185.875, 827.559 179.278 C 820.442 175.550, 812.567 171.409, 810.059 170.075 C 803.981 166.842, 797.361 164.357, 786.500 161.229 C 778.006 158.783, 776.066 158.623, 752 158.392 C 733.647 158.216, 725.099 158.510, 721.500 159.443" stroke="#aa444d" fill="#aa444d" fill-opacity="0.2" fill-rule="evenodd"/><path class="svg-region-DLr" d="M 537.388 421.987 C 536.511 424.180, 534.265 427.317, 532.397 428.957 C 530.528 430.597, 529 432.788, 529 433.826 C 529 434.863, 530.596 437.802, 532.546 440.356 C 535.794 444.610, 536.453 445, 540.385 445 C 544.012 445, 545.169 444.461, 547.839 441.527 C 550.061 439.085, 551 437.062, 551 434.718 C 551 430.629, 549.553 428.560, 545 426.139 C 542.310 424.709, 541.427 423.551, 541.187 421.139 C 540.760 416.870, 539.306 417.195, 537.388 421.987" stroke="#b7d6d3" fill="#b7d6d3" fill-opacity="0.2" fill-rule="evenodd"/><path class="svg-region-OABr" d="M 608.250 473.580 C 606.462 476.032, 605 478.479, 605 479.019 C 605 479.558, 604.647 480, 604.216 480 C 602.740 480, 600 485.805, 600 488.932 C 600 493.078, 594.189 504.566, 589.730 509.235 C 586.571 512.542, 586.092 513.746, 585.550 519.735 C 585.213 523.456, 584.378 527.615, 583.693 528.977 C 581.687 532.971, 576.311 536, 571.228 536 C 567.187 536, 566.373 536.430, 562.849 540.434 C 559.650 544.069, 557.956 545.090, 553.461 546.096 C 547.307 547.473, 546.524 548.131, 545.536 552.750 L 544.841 556 549.266 556 C 556.742 556, 559.689 561.423, 555.536 567.542 C 554.141 569.597, 553 572.193, 553 573.311 C 553 574.428, 552.381 576.053, 551.625 576.921 C 550.104 578.667, 548.625 604.650, 549.998 605.499 C 550.420 605.760, 551.866 605.107, 553.211 604.048 C 556.983 601.081, 560.256 600.694, 566.981 602.417 C 570.380 603.287, 574.245 604, 575.569 604 C 578.320 604, 582 601.231, 582 599.161 C 582 598.225, 582.796 597.919, 584.425 598.230 C 587.261 598.773, 589.481 596.229, 592.878 588.546 C 594.083 585.821, 596.844 581.239, 599.015 578.364 C 601.185 575.489, 603.726 571.194, 604.661 568.818 C 605.595 566.443, 607.404 562.821, 608.680 560.770 C 609.956 558.718, 611 556.356, 611 555.520 C 611 554.684, 611.450 554, 612 554 C 612.550 554, 613 553.121, 613 552.047 C 613 549.988, 614.996 544.848, 616.125 544 C 617.287 543.127, 622.686 529.690, 623.866 524.736 C 624.489 522.115, 625 514.508, 625 507.831 L 625 495.690 620.958 491.845 C 618.735 489.730, 616.035 488, 614.958 488 C 613.151 488, 613 487.265, 613 478.500 C 613 473.275, 612.663 469.028, 612.250 469.062 C 611.837 469.096, 610.038 471.129, 608.250 473.580" stroke="#81244d" fill="#81244d" fill-opacity="0.2" fill-rule="evenodd"/><path class="svg-region-SOTr" d="M 569.500 480.721 C 566.632 480.987, 565.168 481.716, 564.328 483.296 C 551.974 506.516, 551.501 508.382, 552.661 529.326 C 553.418 543, 553.684 544.514, 555.381 544.838 C 558.106 545.358, 561.175 543.418, 563.886 539.461 C 566.092 536.243, 566.631 536, 571.587 536 C 576.385 536, 577.304 535.627, 580.812 532.250 C 584.401 528.796, 584.757 527.956, 585.329 521.612 C 585.947 514.760, 587.593 510.862, 591.075 508 C 592.079 507.175, 594.498 503.250, 596.450 499.278 C 600.206 491.635, 601.182 484.226, 598.704 482.169 C 597.924 481.522, 593.927 481.222, 588.683 481.417 C 583.884 481.596, 579.716 481.350, 579.420 480.871 C 578.890 480.012, 577.378 479.989, 569.500 480.721" stroke="#995b45" fill="#995b45" fill-opacity="0.2" fill-rule="evenodd"/><path class="svg-region-LBPCr" d="M 429.564 535.186 C 427.399 537.992, 424.136 541.167, 422.314 542.243 C 418.657 544.400, 417.759 548, 420.878 548 C 423.945 548, 429.680 545.220, 433.463 541.899 C 436.505 539.227, 437 538.178, 437 534.396 C 437 528.360, 434.638 528.611, 429.564 535.186" stroke="#daffff" fill="#daffff" fill-opacity="0.2" fill-rule="evenodd"/><path class="svg-region-PNr" d="M 248.250 595.044 C 245.645 597.391, 245 598.742, 245 601.851 C 245 604.219, 245.781 606.723, 247.005 608.279 L 249.010 610.828 252.859 608.720 C 257.287 606.295, 259.117 602.495, 258.295 597.431 C 257.675 593.609, 257.606 593.533, 254 592.696 C 252.133 592.263, 250.678 592.857, 248.250 595.044 M 253 617.441 C 253 618.234, 253.456 619.164, 254.014 619.509 C 254.572 619.854, 255.895 621.793, 256.955 623.818 C 258.015 625.843, 260.257 629.075, 261.938 631 C 263.620 632.925, 264.996 634.776, 264.998 635.112 C 264.999 635.449, 266.240 637.285, 267.755 639.192 C 269.270 641.098, 271.591 644.760, 272.912 647.329 C 276.501 654.307, 281.498 653.540, 284.008 645.625 C 286.799 636.827, 280.689 628.681, 265.560 621.028 C 255.033 615.703, 253 615.123, 253 617.441" stroke="#bbc0d1" fill="#bbc0d1" fill-opacity="0.2" fill-rule="evenodd"/><path class="svg-region-OVr" d="M 603.459 391.042 C 601.288 393.265, 598.384 395.365, 597.006 395.709 C 595.628 396.052, 592.700 397.148, 590.500 398.144 C 588.300 399.141, 584.420 399.966, 581.877 399.978 C 576.998 400.001, 568.051 403.338, 566.700 405.638 C 566.260 406.387, 564.334 407, 562.418 407 C 560.503 407, 557.263 407.746, 555.218 408.657 C 553.173 409.568, 549.250 410.581, 546.500 410.907 L 541.500 411.500 541.209 418.047 L 540.918 424.594 544.561 426.024 C 551.709 428.829, 553.077 435.025, 547.927 441.272 C 545.226 444.550, 544.321 445, 540.437 445 C 536.323 445, 535.780 444.674, 532.535 440.250 C 530.618 437.637, 529.038 434.765, 529.025 433.868 C 529.011 432.970, 530.771 430.464, 532.935 428.300 C 536.289 424.946, 539.095 419.467, 537.870 418.664 C 537.667 418.531, 534.800 417.089, 531.500 415.461 C 526.059 412.776, 525.469 412.175, 525.168 409.004 C 524.850 405.651, 523.492 403, 522.093 403 C 520.821 403, 518 408.831, 518 411.462 C 518 412.921, 516.831 416.208, 515.403 418.767 C 513.332 422.476, 512.798 424.806, 512.763 430.269 C 512.739 434.122, 513.219 437.619, 513.860 438.260 C 514.487 438.887, 515 441.815, 515 444.766 C 515 447.717, 515.549 451.114, 516.219 452.316 C 518.010 455.524, 518.924 465.509, 519.987 493.467 C 520.519 507.453, 521.435 519.636, 522.070 521.168 C 522.693 522.672, 524.237 524.581, 525.503 525.410 C 528.738 527.530, 531.387 534.951, 530.602 539.697 C 529.296 547.598, 529.210 547.343, 533.500 548.211 C 536.298 548.777, 538.101 549.915, 539.500 551.999 C 542.263 556.114, 543.863 556.464, 545.137 553.230 C 547.142 548.146, 547.621 547.647, 551.563 546.539 C 553.747 545.925, 555.004 545.124, 554.385 544.741 C 552.750 543.726, 551.586 514.736, 552.939 508.738 C 554.140 503.415, 558.848 492.986, 563.236 485.927 C 566.055 481.392, 566.288 481.255, 572.213 480.636 C 575.558 480.286, 578.791 480.390, 579.397 480.867 C 580.004 481.343, 584.432 481.588, 589.238 481.410 C 597.208 481.114, 598.072 481.266, 599.075 483.140 C 600.168 485.182, 600.185 485.180, 601.779 482.848 C 602.662 481.556, 603.635 480.275, 603.942 480 C 604.249 479.725, 604.950 478.780, 605.500 477.899 C 606.050 477.019, 607.962 474.364, 609.750 471.999 L 613 467.700 612.988 454.100 C 612.981 446.620, 612.267 433.075, 611.402 424 C 608.427 392.810, 608.378 391.825, 609.664 389.347 C 611.716 385.392, 607.979 386.413, 603.459 391.042" stroke="#593939" fill="#593939" fill-opacity="0.2" fill-rule="evenodd"/><path class="svg-region-ODMr" d="M 526.248 552.250 C 522.524 557.369, 516.113 564, 514.886 564 C 514.399 564, 514 565.098, 514 566.441 C 514 568.068, 511.744 571.315, 507.227 576.191 C 502.197 581.618, 499.108 586.236, 495.227 594.128 C 488.692 607.417, 488.418 611.022, 493.523 616.594 C 495.801 619.082, 496.807 620.981, 496.370 621.970 C 495.999 622.812, 495.482 625.030, 495.221 626.900 C 494.777 630.081, 494.899 630.256, 497.123 629.626 C 498.430 629.255, 501.750 628.471, 504.500 627.882 C 507.250 627.293, 510.190 626.461, 511.033 626.033 C 511.876 625.605, 514.126 624.920, 516.033 624.512 C 517.940 624.103, 519.950 623.424, 520.500 623.003 C 521.050 622.581, 524.481 621.566, 528.124 620.746 C 533.694 619.493, 535.909 618.297, 542.051 613.228 L 549.354 607.201 549.756 593.351 C 550.036 583.669, 550.585 578.833, 551.578 577.285 C 552.360 576.067, 553 574.259, 553 573.267 C 553 572.276, 554.170 569.743, 555.600 567.638 C 558.049 564.034, 558.119 563.600, 556.813 560.156 C 555.434 556.519, 555.390 556.497, 548.546 556 C 544.142 555.680, 541.509 555.030, 541.231 554.193 C 540.219 551.155, 535.834 548, 532.624 548 C 529.911 548, 528.801 548.740, 526.248 552.250" stroke="#999999" fill="#999999" fill-opacity="0.2" fill-rule="evenodd"/><path class="svg-region-HRr" d="M 403.500 503.706 C 399.452 505.414, 394.572 506.472, 388.500 506.957 C 378.805 507.731, 361.464 513.033, 353 517.810 C 345.965 521.780, 338.608 528.072, 335.156 533.070 C 331.456 538.428, 331.342 539, 333.981 539 C 335.289 539, 336.138 539.849, 336.481 541.500 C 336.766 542.875, 337.208 545.025, 337.463 546.278 C 337.718 547.531, 339.968 551.185, 342.463 554.398 C 344.958 557.612, 347.017 560.749, 347.038 561.370 C 347.059 561.992, 349.130 564.075, 351.641 566 C 354.151 567.925, 356.802 570.063, 357.531 570.750 C 358.261 571.438, 359.577 572, 360.457 572 C 361.337 572, 364.731 573.350, 368 575 C 371.610 576.822, 375.492 578, 377.889 578 C 383.070 578, 390.118 574.869, 392 571.730 C 395.212 566.374, 405.009 557.183, 410.780 554.111 C 413.991 552.402, 424.888 549, 427.151 549 C 428.191 549, 432.367 548.022, 436.431 546.826 C 443.287 544.809, 443.964 544.359, 445.833 540.576 C 449.847 532.450, 452.937 524.854, 453.544 521.620 L 454.163 518.316 440.832 517.707 C 422.707 516.880, 417.853 515.735, 414.038 511.390 C 411.904 508.960, 411 506.899, 411 504.465 C 411 502.559, 410.663 501.039, 410.250 501.087 C 409.837 501.135, 406.800 502.314, 403.500 503.706 M 433 530.775 C 433 532.329, 424.668 541.101, 421.750 542.620 C 418.463 544.331, 417.959 548, 421.011 548 C 424.106 548, 431.396 544.240, 434.419 541.084 C 436.596 538.812, 437.072 537.481, 436.818 534.383 C 436.593 531.653, 435.986 530.419, 434.750 530.185 C 433.788 530.003, 433 530.268, 433 530.775" stroke="#d9dba1" fill="#d9dba1" fill-opacity="0.2" fill-rule="evenodd"/>
    </svg>