<svg width="120" height="121" viewBox="0 0 120 121" fill="none" xmlns="http://www.w3.org/2000/svg">
<path fill-rule="evenodd" clip-rule="evenodd" d="M57.3682 61.5701C57.3682 58.8227 58.7382 60.1964 60.1082 60.1964C61.4782 60.1964 62.8482 56.0754 65.5883 56.0754C68.3283 56.0754 72.4384 54.7017 73.8084 56.0754C75.1784 57.449 74.8813 58.1108 75.1784 60.1964C75.5663 62.9186 76.5484 64.3174 75.1784 65.6911C73.8084 67.0648 71.0684 67.0648 68.3283 67.0648C65.5883 67.0648 57.3682 64.3174 57.3682 61.5701Z" fill="black"/>
<path fill-rule="evenodd" clip-rule="evenodd" d="M75.5842 57.3675C76.2268 59.548 76.548 61.4064 76.548 62.9426C76.548 65.69 79.2881 65.69 80.6581 64.3163C82.0281 62.9426 80.6581 58.8216 79.2881 58.8216C77.9181 58.8216 77.9181 56.0742 76.548 56.0742C75.9929 56.0742 75.543 56.5254 75.543 57.082C75.543 57.1786 75.5568 57.2748 75.5842 57.3675L75.5842 57.3675Z" fill="black"/>
<path fill-rule="evenodd" clip-rule="evenodd" d="M76.5473 54.7031C77.9173 54.7031 79.2873 58.8241 82.0274 58.8241C84.7674 58.8241 84.7674 56.0767 84.7674 54.7031C84.7674 53.3294 83.3974 50.582 76.5473 50.582C69.6972 50.582 68.3271 53.3294 68.3271 54.7031C68.3271 54.7031 73.8072 53.3294 75.1773 56.0767C75.1773 55.1609 75.6339 54.7031 76.5473 54.7031Z" fill="black"/>
<path fill-rule="evenodd" clip-rule="evenodd" d="M76.5479 67.0651C76.5479 66.1493 77.4612 65.6914 79.2879 65.6914C82.0279 65.6914 79.2879 68.4387 77.9179 68.4387C77.0045 68.4387 76.5479 67.9808 76.5479 67.0651Z" fill="black"/>
<path fill-rule="evenodd" clip-rule="evenodd" d="M82.0282 60.1953C82.9416 62.9427 82.4849 64.7742 80.6582 65.69C80.6582 65.69 86.1382 65.69 86.1382 62.9427C86.1382 61.1111 84.7682 60.1953 82.0282 60.1953Z" fill="black"/>
<path fill-rule="evenodd" clip-rule="evenodd" d="M71.0676 50.5823C68.3275 51.4981 66.9575 52.8717 66.9575 54.7033C66.9575 54.7033 62.8474 54.7033 61.4774 57.4507C60.1074 60.198 60.1074 58.8243 57.3673 58.8243C55.5406 58.8243 52.8006 58.3664 49.1472 57.4507C49.1472 52.8717 47.7772 49.6665 45.0371 47.8349C45.0371 46.4613 49.1472 46.4613 57.3673 47.8349C62.8474 48.7507 67.4142 49.6665 71.0676 50.5823Z" fill="black"/>
<path fill-rule="evenodd" clip-rule="evenodd" d="M47.778 54.703C47.778 57.4503 45.038 62.945 38.1879 62.945C31.3378 62.945 29.9677 54.703 31.3378 51.9556C32.7078 49.2083 36.8179 46.4609 39.5579 46.4609C41.3846 46.4609 43.2113 47.3767 45.038 49.2083C46.8647 51.0399 47.778 52.8714 47.778 54.703ZM39.5579 50.582C36.8179 50.582 35.4478 51.9556 35.4478 54.703C35.4478 57.4503 38.1879 58.824 39.5579 58.824C40.9279 58.824 43.668 57.4503 43.668 54.703C43.668 51.9556 42.298 50.582 39.5579 50.582Z" fill="black"/>
<path fill-rule="evenodd" clip-rule="evenodd" d="M29.9673 54.7017C29.9673 58.8227 31.3373 60.1964 34.0774 62.9438C34.0774 62.9438 32.7073 64.3174 29.9673 64.3174C27.2273 64.3174 23.1172 61.5701 23.1172 57.4491C23.1172 53.3281 24.4872 49.207 32.7073 49.207C30.8806 50.1228 29.9673 51.9544 29.9673 54.7017Z" fill="black"/>
<path d="M49.1481 60.1953C49.1481 63.8584 46.8647 66.1479 42.298 67.0637C35.4478 68.4374 23.1177 83.5478 20.3776 82.1741C17.6376 80.8004 25.8577 73.9321 25.8577 71.1847C25.8577 68.4374 20.3776 68.4374 17.6376 76.6794C14.8975 84.9215 12.1575 71.1847 17.6376 65.69C17.6376 65.69 20.3776 62.9427 21.7476 62.9427" stroke="black" stroke-linejoin="round"/>
<path d="M14.8972 71.1858C13.9838 73.0173 13.0705 73.9331 12.1571 73.9331C10.7871 73.9331 9.41709 65.6911 13.5272 57.449C17.6372 49.207 24.4873 45.0859 36.8175 45.0859" stroke="black" stroke-linejoin="round"/>
<path fill-rule="evenodd" clip-rule="evenodd" d="M47.7784 67.0647C46.4084 68.4384 43.6684 68.4384 40.9283 69.812C38.1883 71.1857 35.4482 72.5594 35.4482 75.3067C35.4482 78.0541 39.5583 76.6804 42.2984 73.9331C45.0384 71.1857 45.0384 68.4384 50.5185 68.4384C55.9986 68.4384 57.3686 65.691 57.3686 64.3173C57.3686 62.9437 55.9986 61.57 54.6285 61.57C53.2585 61.57 51.8885 60.1963 50.5185 62.9437C49.6051 64.7752 48.6918 66.1489 47.7784 67.0647Z" fill="black"/>
<path d="M43.6685 46.46C41.8418 45.5443 40.4717 45.0864 39.5584 45.0864C38.1884 45.0864 36.8183 40.9653 42.2984 40.9653C47.7785 40.9653 57.3687 38.218 65.5888 39.5917C73.8089 40.9653 103.949 43.7127 106.689 50.5811C106.689 50.5811 109.43 56.0758 108.059 58.8231C107.146 60.6547 104.406 61.5705 99.8393 61.5705C97.0993 67.981 92.5326 72.102 86.1391 73.9336C76.549 76.6809 62.8488 76.6809 55.9987 73.9336C51.4319 72.102 47.7785 71.6441 45.0385 72.5599" stroke="black" stroke-linejoin="round"/>
<path fill-rule="evenodd" clip-rule="evenodd" d="M101.209 53.3294C102.579 53.3294 103.949 53.3294 103.949 54.7031C103.949 56.0767 99.8385 57.4504 99.8385 58.8241C99.8385 60.1978 95.7284 60.1978 94.3584 58.8241C92.9884 57.4504 88.8783 50.582 94.3584 50.582C95.7284 50.582 99.8385 53.3294 101.209 53.3294Z" fill="black"/>
<path fill-rule="evenodd" clip-rule="evenodd" d="M94.3582 49.2079C92.9881 50.5816 80.6579 46.4605 76.5479 46.4605C72.4378 46.4605 53.2575 43.7132 50.5174 43.7132C47.7774 43.7132 46.4074 42.3395 53.2575 42.3395C60.1076 42.3395 69.6977 40.9658 80.6579 43.7132C91.6181 46.4605 95.7282 47.8342 94.3582 49.2079Z" fill="black"/>
</svg>
