<svg width="120" height="121" viewBox="0 0 120 121" fill="none" xmlns="http://www.w3.org/2000/svg">
<path d="M93.0808 29.744C93.0808 29.744 79.6418 36.4023 79.6023 52.2827C79.5627 68.1631 65.4659 73.8212 65.4659 73.8212C65.4659 73.8212 51.5246 79.854 40.266 68.6846C29.0075 57.5151 14.832 62.3711 14.832 62.3711" stroke="black" stroke-miterlimit="10"/>
<path d="M27.1978 90.4845C27.1978 90.4845 40.6352 83.8269 40.6741 67.9468C40.7129 52.0667 54.808 46.4093 54.808 46.4093C54.808 46.4093 68.7477 40.3772 80.0055 51.5469C91.2633 62.7167 105.447 57.8574 105.447 57.8574" stroke="black" stroke-miterlimit="10"/>
<path d="M20.749 61.3164L31.5123 87.2677" stroke="black" stroke-miterlimit="10"/>
<path d="M28.873 62.1797L36.8829 81.4923" stroke="black" stroke-miterlimit="10"/>
<path d="M43.9209 55.9023L51.9309 75.215" stroke="black" stroke-miterlimit="10"/>
<path d="M49.29 50.125L59.803 75.4728" stroke="black" stroke-miterlimit="10"/>
<path d="M54.8086 46.4062L66.0725 73.5646" stroke="black" stroke-miterlimit="10"/>
<path d="M61.0781 44.5L71.5911 69.8478" stroke="black" stroke-miterlimit="10"/>
<path d="M68.3486 45.0078L76.3585 64.3204" stroke="black" stroke-miterlimit="10"/>
<path d="M83.999 38.4844L92.2593 58.4005" stroke="black" stroke-miterlimit="10"/>
<path d="M88.7666 32.957L99.53 58.9083" stroke="black" stroke-miterlimit="10"/>
</svg>
